<svg xmlns="http://www.w3.org/2000/svg" width="760" height="340" viewBox="0 0 760 340">
<rect width="100%" height="100%" fill="white"/><text x="52" y="30" font-family="Arial" font-size="18" font-weight="700">Comparison position RMSE</text>
<line x1="52" y1="280" x2="736" y2="280" stroke="#263238"/><line x1="52" y1="42" x2="52" y2="280" stroke="#263238"/>
<text x="585" y="324" font-family="Arial" font-size="12">m</text>
<rect x="62.0" y="98.9" width="71.5" height="181.1" fill="#0f766e"/>
<text x="62.0" y="300" font-family="Arial" font-size="11" transform="rotate(25 62.0,300)">baseline_ekf_nominal</text>
<rect x="170.3" y="109.3" width="71.5" height="170.7" fill="#2563eb"/>
<text x="170.3" y="300" font-family="Arial" font-size="11" transform="rotate(25 170.3,300)">baseline_ekf_dropout_robust</text>
<rect x="278.7" y="56.0" width="71.5" height="224.0" fill="#b45309"/>
<text x="278.7" y="300" font-family="Arial" font-size="11" transform="rotate(25 278.7,300)">dropout_ekf_nominal</text>
<rect x="387.0" y="70.0" width="71.5" height="210.0" fill="#be123c"/>
<text x="387.0" y="300" font-family="Arial" font-size="11" transform="rotate(25 387.0,300)">dropout_ekf_dropout_robust</text>
<rect x="495.3" y="93.4" width="71.5" height="186.6" fill="#4f46e5"/>
<text x="495.3" y="300" font-family="Arial" font-size="11" transform="rotate(25 495.3,300)">outlier_ekf_nominal</text>
<rect x="603.7" y="104.1" width="71.5" height="175.9" fill="#15803d"/>
<text x="603.7" y="300" font-family="Arial" font-size="11" transform="rotate(25 603.7,300)">outlier_ekf_dropout_robust</text>
</svg>