<svg xmlns="http://www.w3.org/2000/svg" width="820" height="320" viewBox="0 0 820 320">
<rect width="100%" height="100%" fill="white"/>
<text x="52" y="30" font-family="Arial" font-size="18" font-weight="700">Truth altitude</text>
<line x1="52" y1="274" x2="796" y2="274" stroke="#263238"/>
<line x1="52" y1="42" x2="52" y2="274" stroke="#263238"/>
<text x="52" y="306" font-family="Arial" font-size="12">time (s)</text>
<text x="630" y="306" font-family="Arial" font-size="12">m</text>

<polyline fill="none" stroke="#0f766e" stroke-width="2.3" points="52.0,203.7 52.8,203.6 53.7,203.4 54.5,203.3 55.3,203.1 56.1,203.0 57.0,202.8 57.8,202.7 58.6,202.5 59.4,202.4 60.3,202.2 61.1,202.1 61.9,201.9 62.7,201.8 63.6,201.6 64.4,201.5 65.2,201.4 66.1,201.2 66.9,201.1 67.7,200.9 68.5,200.8 69.4,200.6 70.2,200.5 71.0,200.3 71.8,200.2 72.7,200.0 73.5,199.9 74.3,199.7 75.1,199.6 76.0,199.4 76.8,199.2 77.6,199.1 78.5,198.9 79.3,198.8 80.1,198.6 80.9,198.4 81.8,198.2 82.6,198.1 83.4,197.9 84.2,197.7 85.1,197.5 85.9,197.3 86.7,197.2 87.5,197.0 88.4,196.8 89.2,196.6 90.0,196.4 90.9,196.2 91.7,196.0 92.5,195.7 93.3,195.5 94.2,195.3 95.0,195.1 95.8,194.9 96.6,194.6 97.5,194.4 98.3,194.1 99.1,193.9 99.9,193.7 100.8,193.4 101.6,193.1 102.4,192.9 103.3,192.6 104.1,192.3 104.9,192.1 105.7,191.8 106.6,191.5 107.4,191.2 108.2,190.9 109.0,190.6 109.9,190.3 110.7,190.0 111.5,189.7 112.3,189.3 113.2,189.0 114.0,188.7 114.8,188.3 115.7,188.0 116.5,187.6 117.3,187.3 118.1,186.9 119.0,186.6 119.8,186.2 120.6,185.8 121.4,185.4 122.3,185.0 123.1,184.6 123.9,184.2 124.7,183.8 125.6,183.4 126.4,183.0 127.2,182.5 128.1,182.1 128.9,181.7 129.7,181.2 130.5,180.8 131.4,180.3 132.2,179.8 133.0,179.4 133.8,178.9 134.7,178.4 135.5,177.9 136.3,177.4 137.1,176.9 138.0,176.4 138.8,175.9 139.6,175.4 140.5,174.9 141.3,174.3 142.1,173.8 142.9,173.2 143.8,172.7 144.6,172.1 145.4,171.6 146.2,171.0 147.1,170.4 147.9,169.8 148.7,169.2 149.5,168.7 150.4,168.1 151.2,167.4 152.0,166.8 152.9,166.2 153.7,165.6 154.5,165.0 155.3,164.3 156.2,163.7 157.0,163.0 157.8,162.4 158.6,161.7 159.5,161.1 160.3,160.4 161.1,159.7 161.9,159.0 162.8,158.4 163.6,157.7 164.4,157.0 165.3,156.3 166.1,155.6 166.9,154.9 167.7,154.1 168.6,153.4 169.4,152.7 170.2,152.0 171.0,151.2 171.9,150.5 172.7,149.7 173.5,149.0 174.3,148.2 175.2,147.5 176.0,146.7 176.8,146.0 177.7,145.2 178.5,144.4 179.3,143.6 180.1,142.9 181.0,142.1 181.8,141.3 182.6,140.5 183.4,139.7 184.3,138.9 185.1,138.1 185.9,137.3 186.7,136.5 187.6,135.7 188.4,134.9 189.2,134.0 190.1,133.2 190.9,132.4 191.7,131.6 192.5,130.7 193.4,129.9 194.2,129.1 195.0,128.2 195.8,127.4 196.7,126.6 197.5,125.7 198.3,124.9 199.1,124.1 200.0,123.2 200.8,122.4 201.6,121.5 202.5,120.7 203.3,119.8 204.1,119.0 204.9,118.1 205.8,117.3 206.6,116.4 207.4,115.6 208.2,114.7 209.1,113.9 209.9,113.0 210.7,112.2 211.5,111.3 212.4,110.5 213.2,109.6 214.0,108.8 214.9,107.9 215.7,107.1 216.5,106.2 217.3,105.4 218.2,104.5 219.0,103.7 219.8,102.8 220.6,102.0 221.5,101.2 222.3,100.3 223.1,99.5 223.9,98.7 224.8,97.8 225.6,97.0 226.4,96.2 227.3,95.3 228.1,94.5 228.9,93.7 229.7,92.9 230.6,92.1 231.4,91.3 232.2,90.5 233.0,89.6 233.9,88.8 234.7,88.0 235.5,87.3 236.3,86.5 237.2,85.7 238.0,84.9 238.8,84.1 239.7,83.3 240.5,82.6 241.3,81.8 242.1,81.1 243.0,80.3 243.8,79.6 244.6,78.8 245.4,78.1 246.3,77.3 247.1,76.6 247.9,75.9 248.7,75.2 249.6,74.4 250.4,73.7 251.2,73.0 252.1,72.3 252.9,71.6 253.7,71.0 254.5,70.3 255.4,69.6 256.2,68.9 257.0,68.3 257.8,67.6 258.7,67.0 259.5,66.3 260.3,65.7 261.1,65.1 262.0,64.5 262.8,63.9 263.6,63.3 264.5,62.7 265.3,62.1 266.1,61.5 266.9,60.9 267.8,60.3 268.6,59.8 269.4,59.2 270.2,58.7 271.1,58.2 271.9,57.6 272.7,57.1 273.5,56.6 274.4,56.1 275.2,55.6 276.0,55.1 276.9,54.6 277.7,54.1 278.5,53.7 279.3,53.2 280.2,52.8 281.0,52.3 281.8,51.9 282.6,51.5 283.5,51.1 284.3,50.7 285.1,50.3 285.9,49.9 286.8,49.5 287.6,49.2 288.4,48.8 289.3,48.5 290.1,48.1 290.9,47.8 291.7,47.5 292.6,47.1 293.4,46.8 294.2,46.5 295.0,46.3 295.9,46.0 296.7,45.7 297.5,45.5 298.3,45.2 299.2,45.0 300.0,44.7 300.8,44.5 301.7,44.3 302.5,44.1 303.3,43.9 304.1,43.7 305.0,43.6 305.8,43.4 306.6,43.2 307.4,43.1 308.3,43.0 309.1,42.8 309.9,42.7 310.7,42.6 311.6,42.5 312.4,42.4 313.2,42.3 314.1,42.3 314.9,42.2 315.7,42.1 316.5,42.1 317.4,42.1 318.2,42.0 319.0,42.0 319.8,42.0 320.7,42.0 321.5,42.0 322.3,42.0 323.1,42.1 324.0,42.1 324.8,42.1 325.6,42.2 326.5,42.3 327.3,42.3 328.1,42.4 328.9,42.5 329.8,42.6 330.6,42.7 331.4,42.8 332.2,42.9 333.1,43.1 333.9,43.2 334.7,43.3 335.5,43.5 336.4,43.7 337.2,43.8 338.0,44.0 338.9,44.2 339.7,44.4 340.5,44.6 341.3,44.8 342.2,45.0 343.0,45.2 343.8,45.5 344.6,45.7 345.5,45.9 346.3,46.2 347.1,46.4 347.9,46.7 348.8,47.0 349.6,47.3 350.4,47.5 351.3,47.8 352.1,48.1 352.9,48.4 353.7,48.8 354.6,49.1 355.4,49.4 356.2,49.7 357.0,50.1 357.9,50.4 358.7,50.7 359.5,51.1 360.3,51.5 361.2,51.8 362.0,52.2 362.8,52.6 363.7,52.9 364.5,53.3 365.3,53.7 366.1,54.1 367.0,54.5 367.8,54.9 368.6,55.3 369.4,55.7 370.3,56.1 371.1,56.6 371.9,57.0 372.7,57.4 373.6,57.8 374.4,58.3 375.2,58.7 376.1,59.1 376.9,59.6 377.7,60.0 378.5,60.5 379.4,60.9 380.2,61.4 381.0,61.9 381.8,62.3 382.7,62.8 383.5,63.2 384.3,63.7 385.1,64.2 386.0,64.6 386.8,65.1 387.6,65.6 388.5,66.1 389.3,66.5 390.1,67.0 390.9,67.5 391.8,68.0 392.6,68.5 393.4,68.9 394.2,69.4 395.1,69.9 395.9,70.4 396.7,70.9 397.5,71.4 398.4,71.9 399.2,72.3 400.0,72.8 400.9,73.3 401.7,73.8 402.5,74.3 403.3,74.8 404.2,75.2 405.0,75.7 405.8,76.2 406.6,76.7 407.5,77.2 408.3,77.6 409.1,78.1 409.9,78.6 410.8,79.1 411.6,79.5 412.4,80.0 413.3,80.5 414.1,80.9 414.9,81.4 415.7,81.9 416.6,82.3 417.4,82.8 418.2,83.2 419.0,83.7 419.9,84.1 420.7,84.6 421.5,85.0 422.3,85.5 423.2,85.9 424.0,86.3 424.8,86.7 425.7,87.2 426.5,87.6 427.3,88.0 428.1,88.4 429.0,88.8 429.8,89.2 430.6,89.7 431.4,90.1 432.3,90.4 433.1,90.8 433.9,91.2 434.7,91.6 435.6,92.0 436.4,92.4 437.2,92.7 438.1,93.1 438.9,93.4 439.7,93.8 440.5,94.1 441.4,94.5 442.2,94.8 443.0,95.2 443.8,95.5 444.7,95.8 445.5,96.1 446.3,96.5 447.1,96.8 448.0,97.1 448.8,97.4 449.6,97.7 450.5,97.9 451.3,98.2 452.1,98.5 452.9,98.8 453.8,99.0 454.6,99.3 455.4,99.5 456.2,99.8 457.1,100.0 457.9,100.3 458.7,100.5 459.5,100.7 460.4,100.9 461.2,101.1 462.0,101.3 462.9,101.5 463.7,101.7 464.5,101.9 465.3,102.1 466.2,102.3 467.0,102.4 467.8,102.6 468.6,102.7 469.5,102.9 470.3,103.0 471.1,103.2 471.9,103.3 472.8,103.4 473.6,103.5 474.4,103.6 475.3,103.8 476.1,103.8 476.9,103.9 477.7,104.0 478.6,104.1 479.4,104.2 480.2,104.2 481.0,104.3 481.9,104.4 482.7,104.4 483.5,104.5 484.3,104.5 485.2,104.5 486.0,104.6 486.8,104.6 487.7,104.6 488.5,104.6 489.3,104.6 490.1,104.6 491.0,104.6 491.8,104.6 492.6,104.6 493.4,104.5 494.3,104.5 495.1,104.5 495.9,104.4 496.7,104.4 497.6,104.3 498.4,104.3 499.2,104.2 500.1,104.1 500.9,104.0 501.7,104.0 502.5,103.9 503.4,103.8 504.2,103.7 505.0,103.6 505.8,103.5 506.7,103.4 507.5,103.3 508.3,103.2 509.1,103.0 510.0,102.9 510.8,102.8 511.6,102.6 512.5,102.5 513.3,102.4 514.1,102.2 514.9,102.1 515.8,101.9 516.6,101.8 517.4,101.6 518.2,101.4 519.1,101.3 519.9,101.1 520.7,100.9 521.5,100.7 522.4,100.6 523.2,100.4 524.0,100.2 524.9,100.0 525.7,99.8 526.5,99.6 527.3,99.4 528.2,99.2 529.0,99.0 529.8,98.8 530.6,98.6 531.5,98.4 532.3,98.2 533.1,98.0 533.9,97.8 534.8,97.5 535.6,97.3 536.4,97.1 537.3,96.9 538.1,96.7 538.9,96.5 539.7,96.2 540.6,96.0 541.4,95.8 542.2,95.6 543.0,95.4 543.9,95.1 544.7,94.9 545.5,94.7 546.3,94.5 547.2,94.2 548.0,94.0 548.8,93.8 549.7,93.6 550.5,93.4 551.3,93.1 552.1,92.9 553.0,92.7 553.8,92.5 554.6,92.3 555.4,92.1 556.3,91.9 557.1,91.7 557.9,91.4 558.7,91.2 559.6,91.0 560.4,90.8 561.2,90.6 562.1,90.4 562.9,90.2 563.7,90.1 564.5,89.9 565.4,89.7 566.2,89.5 567.0,89.3 567.8,89.1 568.7,89.0 569.5,88.8 570.3,88.6 571.1,88.5 572.0,88.3 572.8,88.2 573.6,88.0 574.5,87.9 575.3,87.7 576.1,87.6 576.9,87.5 577.8,87.3 578.6,87.2 579.4,87.1 580.2,87.0 581.1,86.9 581.9,86.8 582.7,86.7 583.5,86.6 584.4,86.5 585.2,86.4 586.0,86.3 586.9,86.3 587.7,86.2 588.5,86.2 589.3,86.1 590.2,86.1 591.0,86.0 591.8,86.0 592.6,86.0 593.5,85.9 594.3,85.9 595.1,85.9 595.9,85.9 596.8,85.9 597.6,86.0 598.4,86.0 599.3,86.0 600.1,86.0 600.9,86.1 601.7,86.1 602.6,86.2 603.4,86.3 604.2,86.3 605.0,86.4 605.9,86.5 606.7,86.6 607.5,86.7 608.3,86.8 609.2,87.0 610.0,87.1 610.8,87.2 611.7,87.4 612.5,87.5 613.3,87.7 614.1,87.9 615.0,88.0 615.8,88.2 616.6,88.4 617.4,88.6 618.3,88.8 619.1,89.1 619.9,89.3 620.7,89.5 621.6,89.8 622.4,90.0 623.2,90.3 624.1,90.6 624.9,90.9 625.7,91.2 626.5,91.5 627.4,91.8 628.2,92.1 629.0,92.4 629.8,92.8 630.7,93.1 631.5,93.5 632.3,93.9 633.1,94.2 634.0,94.6 634.8,95.0 635.6,95.4 636.5,95.8 637.3,96.3 638.1,96.7 638.9,97.1 639.8,97.6 640.6,98.1 641.4,98.5 642.2,99.0 643.1,99.5 643.9,100.0 644.7,100.5 645.5,101.0 646.4,101.5 647.2,102.1 648.0,102.6 648.9,103.2 649.7,103.7 650.5,104.3 651.3,104.9 652.2,105.5 653.0,106.1 653.8,106.7 654.6,107.3 655.5,107.9 656.3,108.6 657.1,109.2 657.9,109.9 658.8,110.5 659.6,111.2 660.4,111.9 661.3,112.6 662.1,113.3 662.9,114.0 663.7,114.7 664.6,115.4 665.4,116.1 666.2,116.9 667.0,117.6 667.9,118.4 668.7,119.1 669.5,119.9 670.3,120.7 671.2,121.5 672.0,122.3 672.8,123.1 673.7,123.9 674.5,124.7 675.3,125.5 676.1,126.4 677.0,127.2 677.8,128.1 678.6,128.9 679.4,129.8 680.3,130.7 681.1,131.5 681.9,132.4 682.7,133.3 683.6,134.2 684.4,135.1 685.2,136.0 686.1,137.0 686.9,137.9 687.7,138.8 688.5,139.8 689.4,140.7 690.2,141.7 691.0,142.6 691.8,143.6 692.7,144.5 693.5,145.5 694.3,146.5 695.1,147.5 696.0,148.5 696.8,149.5 697.6,150.5 698.5,151.5 699.3,152.5 700.1,153.5 700.9,154.5 701.8,155.5 702.6,156.6 703.4,157.6 704.2,158.6 705.1,159.7 705.9,160.7 706.7,161.8 707.5,162.8 708.4,163.9 709.2,165.0 710.0,166.0 710.9,167.1 711.7,168.2 712.5,169.2 713.3,170.3 714.2,171.4 715.0,172.5 715.8,173.6 716.6,174.7 717.5,175.8 718.3,176.8 719.1,177.9 719.9,179.0 720.8,180.1 721.6,181.2 722.4,182.3 723.3,183.4 724.1,184.6 724.9,185.7 725.7,186.8 726.6,187.9 727.4,189.0 728.2,190.1 729.0,191.2 729.9,192.3 730.7,193.4 731.5,194.6 732.3,195.7 733.2,196.8 734.0,197.9 734.8,199.0 735.7,200.1 736.5,201.2 737.3,202.4 738.1,203.5 739.0,204.6 739.8,205.7 740.6,206.8 741.4,207.9 742.3,209.0 743.1,210.1 743.9,211.2 744.7,212.3 745.6,213.4 746.4,214.5 747.2,215.6 748.1,216.7 748.9,217.8 749.7,218.9 750.5,220.0 751.4,221.1 752.2,222.2 753.0,223.3 753.8,224.4 754.7,225.4 755.5,226.5 756.3,227.6 757.1,228.7 758.0,229.7 758.8,230.8 759.6,231.8 760.5,232.9 761.3,234.0 762.1,235.0 762.9,236.0 763.8,237.1 764.6,238.1 765.4,239.2 766.2,240.2 767.1,241.2 767.9,242.2 768.7,243.3 769.5,244.3 770.4,245.3 771.2,246.3 772.0,247.3 772.9,248.3 773.7,249.3 774.5,250.3 775.3,251.2 776.2,252.2 777.0,253.2 777.8,254.1 778.6,255.1 779.5,256.1 780.3,257.0 781.1,258.0 781.9,258.9 782.8,259.8 783.6,260.8 784.4,261.7 785.3,262.6 786.1,263.5 786.9,264.4 787.7,265.3 788.6,266.2 789.4,267.1 790.2,268.0 791.0,268.9 791.9,269.7 792.7,270.6 793.5,271.5 794.3,272.3 795.2,273.2 796.0,274.0"/>
<text x="640" y="56" font-family="Arial" font-size="12" fill="#0f766e">Truth altitude</text>
</svg>