<svg xmlns="http://www.w3.org/2000/svg" width="820" height="320" viewBox="0 0 820 320">
<rect width="100%" height="100%" fill="white"/>
<text x="52" y="30" font-family="Arial" font-size="18" font-weight="700">ekf_nominal altitude</text>
<line x1="52" y1="274" x2="796" y2="274" stroke="#263238"/>
<line x1="52" y1="42" x2="52" y2="274" stroke="#263238"/>
<text x="52" y="306" font-family="Arial" font-size="12">time (s)</text>
<text x="630" y="306" font-family="Arial" font-size="12">m</text>

<polyline fill="none" stroke="#0f766e" stroke-width="2.3" points="52.0,206.8 52.8,206.6 53.7,206.5 54.5,206.3 55.3,206.2 56.1,206.0 57.0,205.9 57.8,205.7 58.6,205.6 59.4,205.5 60.3,205.3 61.1,205.2 61.9,205.0 62.7,204.9 63.6,204.8 64.4,204.6 65.2,204.5 66.1,204.4 66.9,204.2 67.7,204.1 68.5,203.9 69.4,203.8 70.2,203.7 71.0,203.5 71.8,203.4 72.7,203.2 73.5,203.1 74.3,202.9 75.1,202.8 76.0,202.6 76.8,202.5 77.6,202.3 78.5,202.2 79.3,202.0 80.1,201.8 80.9,201.7 81.8,201.5 82.6,201.4 83.4,201.2 84.2,201.0 85.1,200.8 85.9,200.7 86.7,200.5 87.5,200.3 88.4,200.1 89.2,199.9 90.0,199.7 90.9,199.5 91.7,199.3 92.5,199.1 93.3,198.9 94.2,198.7 95.0,198.5 95.8,198.3 96.6,198.1 97.5,197.8 98.3,197.6 99.1,197.4 99.9,197.1 100.8,196.9 101.6,196.6 102.4,196.4 103.3,196.1 104.1,195.9 104.9,195.6 105.7,195.3 106.6,195.1 107.4,194.8 108.2,194.5 109.0,194.2 109.9,193.9 110.7,193.6 111.5,193.3 112.3,193.0 113.2,192.7 114.0,192.4 114.8,192.0 115.7,191.7 116.5,191.4 117.3,191.0 118.1,190.7 119.0,190.3 119.8,190.0 120.6,189.6 121.4,189.2 122.3,188.9 123.1,188.5 123.9,188.1 124.7,187.7 125.6,187.3 126.4,186.9 127.2,186.5 128.1,186.1 128.9,185.7 129.7,185.2 130.5,184.8 131.4,184.4 132.2,183.9 133.0,183.5 133.8,183.0 134.7,182.5 135.5,182.1 136.3,181.6 137.1,181.1 138.0,180.6 138.8,180.1 139.6,179.6 140.5,179.1 141.3,178.6 142.1,178.1 142.9,177.6 143.8,177.1 144.6,176.5 145.4,176.0 146.2,175.4 147.1,174.9 147.9,174.3 148.7,173.8 149.5,173.2 150.4,172.6 151.2,172.0 152.0,171.5 152.9,170.9 153.7,170.3 154.5,169.7 155.3,169.1 156.2,168.5 157.0,167.8 157.8,167.2 158.6,166.6 159.5,165.9 160.3,165.3 161.1,164.7 161.9,164.0 162.8,163.4 163.6,162.7 164.4,162.0 165.3,161.4 166.1,160.7 166.9,160.0 167.7,159.3 168.6,158.6 169.4,157.9 170.2,157.2 171.0,156.5 171.9,155.8 172.7,155.1 173.5,154.4 174.3,153.7 175.2,153.0 176.0,152.2 176.8,151.5 177.7,150.8 178.5,150.0 179.3,149.3 180.1,148.5 181.0,147.8 181.8,147.0 182.6,146.3 183.4,145.5 184.3,144.7 185.1,144.0 185.9,143.2 186.7,142.4 187.6,141.6 188.4,140.9 189.2,140.1 190.1,139.3 190.9,138.5 191.7,137.7 192.5,136.9 193.4,136.1 194.2,135.3 195.0,134.5 195.8,133.7 196.7,132.9 197.5,132.1 198.3,131.3 199.1,130.5 200.0,129.7 200.8,128.9 201.6,128.1 202.5,127.3 203.3,126.5 204.1,125.7 204.9,124.9 205.8,124.0 206.6,123.2 207.4,122.4 208.2,121.6 209.1,120.8 209.9,120.0 210.7,119.2 211.5,118.3 212.4,117.5 213.2,116.7 214.0,115.9 214.9,115.1 215.7,114.3 216.5,113.5 217.3,112.7 218.2,111.9 219.0,111.0 219.8,110.2 220.6,109.4 221.5,108.6 222.3,107.8 223.1,107.0 223.9,106.2 224.8,105.4 225.6,104.6 226.4,103.8 227.3,103.1 228.1,102.3 228.9,101.5 229.7,100.7 230.6,99.9 231.4,99.2 232.2,98.4 233.0,97.6 233.9,96.8 234.7,96.1 235.5,95.3 236.3,94.6 237.2,93.8 238.0,93.1 238.8,92.3 239.7,91.6 240.5,90.9 241.3,90.1 242.1,89.4 243.0,88.7 243.8,88.0 244.6,87.2 245.4,86.5 246.3,85.8 247.1,85.1 247.9,84.4 248.7,83.8 249.6,83.1 250.4,82.4 251.2,81.7 252.1,81.1 252.9,80.4 253.7,79.7 254.5,79.1 255.4,78.4 256.2,77.8 257.0,77.2 257.8,76.6 258.7,75.9 259.5,75.3 260.3,74.7 261.1,74.1 262.0,73.5 262.8,72.9 263.6,72.4 264.5,71.8 265.3,71.2 266.1,70.7 266.9,70.1 267.8,69.6 268.6,69.0 269.4,68.5 270.2,68.0 271.1,67.5 271.9,67.0 272.7,66.5 273.5,66.0 274.4,65.5 275.2,65.0 276.0,64.6 276.9,64.1 277.7,63.6 278.5,63.2 279.3,62.8 280.2,62.3 281.0,61.9 281.8,61.5 282.6,61.1 283.5,60.7 284.3,60.3 285.1,60.0 285.9,59.6 286.8,59.2 287.6,58.9 288.4,58.5 289.3,58.2 290.1,57.9 290.9,57.6 291.7,57.2 292.6,56.9 293.4,56.7 294.2,56.4 295.0,56.1 295.9,55.8 296.7,55.6 297.5,55.3 298.3,55.1 299.2,54.9 300.0,54.6 300.8,54.4 301.7,54.2 302.5,54.0 303.3,53.9 304.1,53.7 305.0,53.5 305.8,53.4 306.6,53.2 307.4,53.1 308.3,52.9 309.1,52.8 309.9,52.7 310.7,52.6 311.6,52.5 312.4,52.4 313.2,52.3 314.1,52.3 314.9,52.2 315.7,52.2 316.5,52.1 317.4,52.1 318.2,52.1 319.0,52.0 319.8,52.0 320.7,52.0 321.5,52.0 322.3,52.1 323.1,52.1 324.0,52.1 324.8,52.2 325.6,52.2 326.5,52.3 327.3,52.3 328.1,52.4 328.9,52.5 329.8,52.6 330.6,52.7 331.4,52.8 332.2,52.9 333.1,53.0 333.9,53.2 334.7,53.3 335.5,53.5 336.4,53.6 337.2,53.8 338.0,53.9 338.9,54.1 339.7,54.3 340.5,54.5 341.3,54.7 342.2,54.9 343.0,55.1 343.8,55.3 344.6,55.6 345.5,55.8 346.3,56.0 347.1,56.3 347.9,56.5 348.8,56.8 349.6,57.1 350.4,57.3 351.3,57.6 352.1,57.9 352.9,58.2 353.7,58.5 354.6,58.8 355.4,59.1 356.2,59.4 357.0,59.7 357.9,60.1 358.7,60.4 359.5,60.7 360.3,61.1 361.2,61.4 362.0,61.8 362.8,62.1 363.7,62.5 364.5,62.9 365.3,63.2 366.1,63.6 367.0,64.0 367.8,64.4 368.6,64.8 369.4,65.2 370.3,65.6 371.1,66.0 371.9,66.4 372.7,66.8 373.6,67.2 374.4,67.6 375.2,68.0 376.1,68.4 376.9,68.9 377.7,69.3 378.5,69.7 379.4,70.1 380.2,70.6 381.0,71.0 381.8,71.5 382.7,71.9 383.5,72.3 384.3,72.8 385.1,73.2 386.0,73.7 386.8,74.1 387.6,74.6 388.5,75.1 389.3,75.5 390.1,76.0 390.9,76.4 391.8,76.9 392.6,77.3 393.4,77.8 394.2,78.3 395.1,78.7 395.9,79.2 396.7,79.7 397.5,80.1 398.4,80.6 399.2,81.1 400.0,81.5 400.9,82.0 401.7,82.4 402.5,82.9 403.3,83.4 404.2,83.8 405.0,84.3 405.8,84.8 406.6,85.2 407.5,85.7 408.3,86.1 409.1,86.6 409.9,87.0 410.8,87.5 411.6,87.9 412.4,88.4 413.3,88.8 414.1,89.3 414.9,89.7 415.7,90.2 416.6,90.6 417.4,91.0 418.2,91.5 419.0,91.9 419.9,92.3 420.7,92.8 421.5,93.2 422.3,93.6 423.2,94.0 424.0,94.4 424.8,94.8 425.7,95.2 426.5,95.7 427.3,96.1 428.1,96.5 429.0,96.8 429.8,97.2 430.6,97.6 431.4,98.0 432.3,98.4 433.1,98.8 433.9,99.1 434.7,99.5 435.6,99.8 436.4,100.2 437.2,100.6 438.1,100.9 438.9,101.2 439.7,101.6 440.5,101.9 441.4,102.3 442.2,102.6 443.0,102.9 443.8,103.2 444.7,103.5 445.5,103.8 446.3,104.1 447.1,104.4 448.0,104.7 448.8,105.0 449.6,105.3 450.5,105.5 451.3,105.8 452.1,106.1 452.9,106.3 453.8,106.6 454.6,106.8 455.4,107.1 456.2,107.3 457.1,107.5 457.9,107.8 458.7,108.0 459.5,108.2 460.4,108.4 461.2,108.6 462.0,108.8 462.9,109.0 463.7,109.2 464.5,109.3 465.3,109.5 466.2,109.7 467.0,109.8 467.8,110.0 468.6,110.1 469.5,110.3 470.3,110.4 471.1,110.5 471.9,110.7 472.8,110.8 473.6,110.9 474.4,111.0 475.3,111.1 476.1,111.2 476.9,111.3 477.7,111.4 478.6,111.5 479.4,111.5 480.2,111.6 481.0,111.6 481.9,111.7 482.7,111.7 483.5,111.8 484.3,111.8 485.2,111.9 486.0,111.9 486.8,111.9 487.7,111.9 488.5,111.9 489.3,111.9 490.1,111.9 491.0,111.9 491.8,111.9 492.6,111.9 493.4,111.8 494.3,111.8 495.1,111.8 495.9,111.7 496.7,111.7 497.6,111.6 498.4,111.6 499.2,111.5 500.1,111.5 500.9,111.4 501.7,111.3 502.5,111.2 503.4,111.1 504.2,111.1 505.0,111.0 505.8,110.9 506.7,110.8 507.5,110.7 508.3,110.5 509.1,110.4 510.0,110.3 510.8,110.2 511.6,110.0 512.5,109.9 513.3,109.8 514.1,109.6 514.9,109.5 515.8,109.3 516.6,109.2 517.4,109.0 518.2,108.9 519.1,108.7 519.9,108.6 520.7,108.4 521.5,108.2 522.4,108.1 523.2,107.9 524.0,107.7 524.9,107.5 525.7,107.3 526.5,107.1 527.3,107.0 528.2,106.8 529.0,106.6 529.8,106.4 530.6,106.2 531.5,106.0 532.3,105.8 533.1,105.6 533.9,105.4 534.8,105.2 535.6,105.0 536.4,104.8 537.3,104.6 538.1,104.3 538.9,104.1 539.7,103.9 540.6,103.7 541.4,103.5 542.2,103.3 543.0,103.1 543.9,102.9 544.7,102.7 545.5,102.4 546.3,102.2 547.2,102.0 548.0,101.8 548.8,101.6 549.7,101.4 550.5,101.2 551.3,101.0 552.1,100.8 553.0,100.5 553.8,100.3 554.6,100.1 555.4,99.9 556.3,99.7 557.1,99.5 557.9,99.3 558.7,99.1 559.6,98.9 560.4,98.8 561.2,98.6 562.1,98.4 562.9,98.2 563.7,98.0 564.5,97.8 565.4,97.7 566.2,97.5 567.0,97.3 567.8,97.1 568.7,97.0 569.5,96.8 570.3,96.7 571.1,96.5 572.0,96.3 572.8,96.2 573.6,96.1 574.5,95.9 575.3,95.8 576.1,95.7 576.9,95.5 577.8,95.4 578.6,95.3 579.4,95.2 580.2,95.1 581.1,95.0 581.9,94.9 582.7,94.8 583.5,94.7 584.4,94.6 585.2,94.5 586.0,94.5 586.9,94.4 587.7,94.3 588.5,94.3 589.3,94.2 590.2,94.2 591.0,94.1 591.8,94.1 592.6,94.1 593.5,94.1 594.3,94.1 595.1,94.1 595.9,94.1 596.8,94.1 597.6,94.1 598.4,94.1 599.3,94.1 600.1,94.2 600.9,94.2 601.7,94.3 602.6,94.3 603.4,94.4 604.2,94.5 605.0,94.5 605.9,94.6 606.7,94.7 607.5,94.8 608.3,94.9 609.2,95.0 610.0,95.2 610.8,95.3 611.7,95.4 612.5,95.6 613.3,95.7 614.1,95.9 615.0,96.1 615.8,96.3 616.6,96.4 617.4,96.6 618.3,96.8 619.1,97.1 619.9,97.3 620.7,97.5 621.6,97.8 622.4,98.0 623.2,98.3 624.1,98.5 624.9,98.8 625.7,99.1 626.5,99.4 627.4,99.7 628.2,100.0 629.0,100.3 629.8,100.6 630.7,101.0 631.5,101.3 632.3,101.6 633.1,102.0 634.0,102.4 634.8,102.8 635.6,103.1 636.5,103.5 637.3,103.9 638.1,104.4 638.9,104.8 639.8,105.2 640.6,105.7 641.4,106.1 642.2,106.6 643.1,107.0 643.9,107.5 644.7,108.0 645.5,108.5 646.4,109.0 647.2,109.5 648.0,110.0 648.9,110.6 649.7,111.1 650.5,111.6 651.3,112.2 652.2,112.8 653.0,113.3 653.8,113.9 654.6,114.5 655.5,115.1 656.3,115.7 657.1,116.3 657.9,117.0 658.8,117.6 659.6,118.2 660.4,118.9 661.3,119.5 662.1,120.2 662.9,120.9 663.7,121.6 664.6,122.3 665.4,123.0 666.2,123.7 667.0,124.4 667.9,125.1 668.7,125.8 669.5,126.6 670.3,127.3 671.2,128.1 672.0,128.8 672.8,129.6 673.7,130.4 674.5,131.2 675.3,132.0 676.1,132.8 677.0,133.6 677.8,134.4 678.6,135.2 679.4,136.0 680.3,136.9 681.1,137.7 681.9,138.5 682.7,139.4 683.6,140.3 684.4,141.1 685.2,142.0 686.1,142.9 686.9,143.8 687.7,144.7 688.5,145.6 689.4,146.5 690.2,147.4 691.0,148.3 691.8,149.2 692.7,150.1 693.5,151.1 694.3,152.0 695.1,152.9 696.0,153.9 696.8,154.8 697.6,155.8 698.5,156.8 699.3,157.7 700.1,158.7 700.9,159.7 701.8,160.7 702.6,161.6 703.4,162.6 704.2,163.6 705.1,164.6 705.9,165.6 706.7,166.6 707.5,167.6 708.4,168.7 709.2,169.7 710.0,170.7 710.9,171.7 711.7,172.7 712.5,173.8 713.3,174.8 714.2,175.8 715.0,176.9 715.8,177.9 716.6,179.0 717.5,180.0 718.3,181.0 719.1,182.1 719.9,183.1 720.8,184.2 721.6,185.2 722.4,186.3 723.3,187.4 724.1,188.4 724.9,189.5 725.7,190.5 726.6,191.6 727.4,192.7 728.2,193.7 729.0,194.8 729.9,195.9 730.7,196.9 731.5,198.0 732.3,199.1 733.2,200.1 734.0,201.2 734.8,202.3 735.7,203.3 736.5,204.4 737.3,205.5 738.1,206.5 739.0,207.6 739.8,208.6 740.6,209.7 741.4,210.8 742.3,211.8 743.1,212.9 743.9,213.9 744.7,215.0 745.6,216.1 746.4,217.1 747.2,218.2 748.1,219.2 748.9,220.3 749.7,221.3 750.5,222.4 751.4,223.4 752.2,224.4 753.0,225.5 753.8,226.5 754.7,227.5 755.5,228.6 756.3,229.6 757.1,230.6 758.0,231.6 758.8,232.7 759.6,233.7 760.5,234.7 761.3,235.7 762.1,236.7 762.9,237.7 763.8,238.7 764.6,239.7 765.4,240.7 766.2,241.7 767.1,242.6 767.9,243.6 768.7,244.6 769.5,245.6 770.4,246.5 771.2,247.5 772.0,248.4 772.9,249.4 773.7,250.3 774.5,251.3 775.3,252.2 776.2,253.2 777.0,254.1 777.8,255.0 778.6,255.9 779.5,256.8 780.3,257.7 781.1,258.6 781.9,259.5 782.8,260.4 783.6,261.3 784.4,262.2 785.3,263.1 786.1,264.0 786.9,264.8 787.7,265.7 788.6,266.5 789.4,267.4 790.2,268.2 791.0,269.1 791.9,269.9 792.7,270.7 793.5,271.6 794.3,272.4 795.2,273.2 796.0,274.0"/>
<text x="640" y="56" font-family="Arial" font-size="12" fill="#0f766e">truth</text>
<polyline fill="none" stroke="#2563eb" stroke-width="2.3" points="52.0,207.8 52.8,207.6 53.7,207.3 54.5,207.1 55.3,204.5 56.1,203.9 57.0,203.4 57.8,202.9 58.6,202.6 59.4,202.1 60.3,201.5 61.1,201.0 61.9,203.7 62.7,203.5 63.6,203.3 64.4,203.1 65.2,210.4 66.1,210.8 66.9,211.2 67.7,211.6 68.5,208.7 69.4,208.9 70.2,209.1 71.0,209.2 71.8,207.0 72.7,207.0 73.5,207.1 74.3,207.1 75.1,205.8 76.0,205.8 76.8,205.7 77.6,205.6 78.5,207.0 79.3,207.0 80.1,207.0 80.9,207.0 81.8,203.6 82.6,203.5 83.4,203.3 84.2,203.1 85.1,198.5 85.9,198.1 86.7,197.7 87.5,197.3 88.4,203.3 89.2,203.2 90.0,203.1 90.9,203.0 91.7,203.6 92.5,203.5 93.3,203.4 94.2,203.3 95.0,204.4 95.8,204.3 96.6,204.3 97.5,204.2 98.3,204.2 99.1,204.1 99.9,204.0 100.8,204.0 101.6,205.6 102.4,205.6 103.3,205.6 104.1,205.6 104.9,204.1 105.7,204.0 106.6,203.9 107.4,203.8 108.2,200.9 109.0,200.7 109.9,200.5 110.7,200.3 111.5,195.8 112.3,195.4 113.2,194.9 114.0,194.5 114.8,197.7 115.7,197.4 116.5,197.0 117.3,196.7 118.1,195.3 119.0,194.9 119.8,194.5 120.6,194.1 121.4,195.2 122.3,194.8 123.1,194.5 123.9,194.1 124.7,192.5 125.6,192.0 126.4,191.6 127.2,191.1 128.1,187.3 128.9,186.7 129.7,186.0 130.5,185.4 131.4,183.7 132.2,183.0 133.0,182.3 133.8,181.6 134.7,183.1 135.5,182.4 136.3,181.8 137.1,181.1 138.0,184.9 138.8,184.4 139.6,183.9 140.5,183.3 141.3,182.4 142.1,181.8 142.9,181.2 143.8,180.6 144.6,179.7 145.4,179.0 146.2,178.4 147.1,177.8 147.9,177.2 148.7,176.5 149.5,175.9 150.4,175.2 151.2,173.3 152.0,172.6 152.9,171.9 153.7,171.1 154.5,167.7 155.3,166.9 156.2,166.0 157.0,165.2 157.8,167.5 158.6,166.7 159.5,165.9 160.3,165.1 161.1,163.6 161.9,162.8 162.8,162.0 163.6,161.2 164.4,162.2 165.3,161.4 166.1,160.6 166.9,159.8 167.7,157.6 168.6,156.7 169.4,155.9 170.2,155.0 171.0,157.5 171.9,156.7 172.7,155.9 173.5,155.1 174.3,154.2 175.2,153.4 176.0,152.5 176.8,151.7 177.7,151.2 178.5,150.4 179.3,149.5 180.1,148.7 181.0,147.2 181.8,146.4 182.6,145.5 183.4,144.6 184.3,144.9 185.1,144.1 185.9,143.2 186.7,142.3 187.6,140.9 188.4,140.0 189.2,139.1 190.1,138.2 190.9,135.0 191.7,134.0 192.5,133.1 193.4,132.1 194.2,133.5 195.0,132.5 195.8,131.6 196.7,130.7 197.5,129.1 198.3,128.1 199.1,127.1 200.0,126.2 200.8,126.2 201.6,125.2 202.5,124.3 203.3,123.3 204.1,121.8 204.9,120.9 205.8,119.9 206.6,119.0 207.4,120.8 208.2,119.9 209.1,119.0 209.9,118.0 210.7,118.6 211.5,117.7 212.4,116.8 213.2,115.9 214.0,115.0 214.9,114.1 215.7,113.3 216.5,112.4 217.3,110.3 218.2,109.4 219.0,108.5 219.8,107.6 220.6,106.7 221.5,105.8 222.3,104.9 223.1,104.0 223.9,106.3 224.8,105.5 225.6,104.6 226.4,103.8 227.3,103.6 228.1,102.8 228.9,102.0 229.7,101.2 230.6,97.6 231.4,96.8 232.2,95.9 233.0,95.1 233.9,92.6 234.7,91.7 235.5,90.8 236.3,90.0 237.2,88.8 238.0,88.0 238.8,87.1 239.7,86.3 240.5,86.2 241.3,85.4 242.1,84.5 243.0,83.7 243.8,85.3 244.6,84.5 245.4,83.8 246.3,83.0 247.1,81.8 247.9,81.0 248.7,80.2 249.6,79.5 250.4,80.7 251.2,80.0 252.1,79.3 252.9,78.6 253.7,75.0 254.5,74.3 255.4,73.5 256.2,72.8 257.0,73.3 257.8,72.6 258.7,72.0 259.5,71.3 260.3,71.1 261.1,70.5 262.0,69.8 262.8,69.2 263.6,68.1 264.5,67.5 265.3,66.8 266.1,66.2 266.9,66.0 267.8,65.4 268.6,64.8 269.4,64.2 270.2,63.8 271.1,63.3 271.9,62.7 272.7,62.1 273.5,62.5 274.4,61.9 275.2,61.4 276.0,60.9 276.9,59.1 277.7,58.6 278.5,58.1 279.3,57.6 280.2,55.9 281.0,55.4 281.8,54.9 282.6,54.4 283.5,53.5 284.3,53.0 285.1,52.5 285.9,52.0 286.8,51.6 287.6,51.1 288.4,50.7 289.3,50.2 290.1,48.3 290.9,47.9 291.7,47.4 292.6,47.0 293.4,49.1 294.2,48.7 295.0,48.3 295.9,48.0 296.7,45.5 297.5,45.1 298.3,44.7 299.2,44.4 300.0,46.5 300.8,46.2 301.7,45.9 302.5,45.6 303.3,43.4 304.1,43.1 305.0,42.8 305.8,42.6 306.6,43.3 307.4,43.0 308.3,42.8 309.1,42.5 309.9,42.6 310.7,42.4 311.6,42.2 312.4,42.0 313.2,43.0 314.1,42.9 314.9,42.7 315.7,42.6 316.5,45.0 317.4,44.9 318.2,44.9 319.0,44.8 319.8,48.4 320.7,48.4 321.5,48.4 322.3,48.4 323.1,51.5 324.0,51.6 324.8,51.7 325.6,51.8 326.5,50.4 327.3,50.6 328.1,50.7 328.9,50.8 329.8,50.4 330.6,50.5 331.4,50.7 332.2,50.8 333.1,52.4 333.9,52.6 334.7,52.7 335.5,52.9 336.4,54.4 337.2,54.6 338.0,54.8 338.9,55.1 339.7,55.3 340.5,55.5 341.3,55.8 342.2,56.1 343.0,56.1 343.8,56.4 344.6,56.7 345.5,57.0 346.3,58.0 347.1,58.3 347.9,58.6 348.8,58.9 349.6,56.2 350.4,56.5 351.3,56.8 352.1,57.2 352.9,55.0 353.7,55.3 354.6,55.6 355.4,55.9 356.2,58.1 357.0,58.4 357.9,58.7 358.7,59.1 359.5,57.5 360.3,57.9 361.2,58.2 362.0,58.5 362.8,57.5 363.7,57.8 364.5,58.1 365.3,58.5 366.1,61.0 367.0,61.4 367.8,61.8 368.6,62.2 369.4,61.5 370.3,61.8 371.1,62.2 371.9,62.6 372.7,62.9 373.6,63.3 374.4,63.7 375.2,64.1 376.1,64.7 376.9,65.2 377.7,65.6 378.5,66.0 379.4,66.3 380.2,66.7 381.0,67.1 381.8,67.5 382.7,67.5 383.5,67.9 384.3,68.3 385.1,68.7 386.0,68.1 386.8,68.6 387.6,69.0 388.5,69.4 389.3,71.3 390.1,71.8 390.9,72.2 391.8,72.6 392.6,73.5 393.4,73.9 394.2,74.4 395.1,74.8 395.9,76.2 396.7,76.6 397.5,77.1 398.4,77.6 399.2,76.7 400.0,77.1 400.9,77.6 401.7,78.0 402.5,79.0 403.3,79.4 404.2,79.9 405.0,80.4 405.8,82.2 406.6,82.7 407.5,83.2 408.3,83.6 409.1,84.3 409.9,84.8 410.8,85.2 411.6,85.7 412.4,87.5 413.3,88.0 414.1,88.5 414.9,89.0 415.7,88.9 416.6,89.4 417.4,89.9 418.2,90.3 419.0,91.2 419.9,91.7 420.7,92.2 421.5,92.6 422.3,93.4 423.2,93.9 424.0,94.3 424.8,94.8 425.7,94.3 426.5,94.7 427.3,95.2 428.1,95.6 429.0,95.6 429.8,96.1 430.6,96.5 431.4,96.9 432.3,98.8 433.1,99.2 433.9,99.7 434.7,100.1 435.6,100.7 436.4,101.1 437.2,101.5 438.1,101.9 438.9,103.2 439.7,103.6 440.5,104.0 441.4,104.4 442.2,105.2 443.0,105.6 443.8,106.0 444.7,106.4 445.5,105.4 446.3,105.7 447.1,106.1 448.0,106.4 448.8,108.3 449.6,108.7 450.5,109.0 451.3,109.4 452.1,109.4 452.9,109.7 453.8,110.0 454.6,110.4 455.4,109.6 456.2,109.9 457.1,110.1 457.9,110.4 458.7,112.3 459.5,112.6 460.4,112.9 461.2,113.2 462.0,112.3 462.9,112.5 463.7,112.8 464.5,113.0 465.3,114.1 466.2,114.3 467.0,114.6 467.8,114.8 468.6,113.6 469.5,113.8 470.3,114.0 471.1,114.2 471.9,116.2 472.8,116.4 473.6,116.6 474.4,116.8 475.3,116.5 476.1,116.7 476.9,116.9 477.7,117.0 478.6,117.9 479.4,118.1 480.2,118.2 481.0,118.4 481.9,118.5 482.7,118.6 483.5,118.8 484.3,118.9 485.2,117.6 486.0,117.7 486.8,117.8 487.7,117.9 488.5,117.0 489.3,117.1 490.1,117.1 491.0,117.2 491.8,116.7 492.6,116.7 493.4,116.8 494.3,116.8 495.1,115.3 495.9,115.3 496.7,115.3 497.6,115.2 498.4,112.9 499.2,112.8 500.1,112.8 500.9,112.7 501.7,111.9 502.5,111.8 503.4,111.7 504.2,111.7 505.0,109.8 505.8,109.7 506.7,109.6 507.5,109.5 508.3,110.5 509.1,110.4 510.0,110.2 510.8,110.1 511.6,110.6 512.5,110.4 513.3,110.3 514.1,110.2 514.9,111.7 515.8,111.6 516.6,111.5 517.4,111.4 518.2,108.9 519.1,108.8 519.9,108.6 520.7,108.5 521.5,107.9 522.4,107.7 523.2,107.5 524.0,107.4 524.9,107.2 525.7,107.0 526.5,106.9 527.3,106.7 528.2,107.0 529.0,106.8 529.8,106.6 530.6,106.4 531.5,105.1 532.3,104.9 533.1,104.7 533.9,104.5 534.8,102.8 535.6,102.6 536.4,102.3 537.3,102.1 538.1,102.8 538.9,102.6 539.7,102.3 540.6,102.1 541.4,102.7 542.2,102.5 543.0,102.3 543.9,102.1 544.7,102.5 545.5,102.3 546.3,102.1 547.2,101.9 548.0,101.6 548.8,101.4 549.7,101.2 550.5,101.0 551.3,101.8 552.1,101.6 553.0,101.4 553.8,101.2 554.6,100.0 555.4,99.8 556.3,99.6 557.1,99.4 557.9,99.5 558.7,99.3 559.6,99.1 560.4,98.9 561.2,97.0 562.1,96.8 562.9,96.6 563.7,96.4 564.5,97.1 565.4,96.9 566.2,96.7 567.0,96.6 567.8,95.6 568.7,95.4 569.5,95.3 570.3,95.1 571.1,94.2 572.0,94.1 572.8,93.9 573.6,93.7 574.5,95.3 575.3,95.1 576.1,95.0 576.9,94.9 577.8,93.6 578.6,93.5 579.4,93.4 580.2,93.3 581.1,92.6 581.9,92.5 582.7,92.4 583.5,92.3 584.4,91.9 585.2,91.8 586.0,91.7 586.9,91.6 587.7,90.9 588.5,90.9 589.3,90.8 590.2,90.7 591.0,90.4 591.8,90.3 592.6,90.3 593.5,90.2 594.3,90.8 595.1,90.7 595.9,90.7 596.8,90.7 597.6,89.9 598.4,89.9 599.3,89.9 600.1,90.0 600.9,90.3 601.7,90.4 602.6,90.4 603.4,90.5 604.2,90.8 605.0,90.9 605.9,91.0 606.7,91.1 607.5,92.4 608.3,92.5 609.2,92.7 610.0,92.8 610.8,93.5 611.7,93.7 612.5,93.8 613.3,94.0 614.1,94.6 615.0,94.8 615.8,95.0 616.6,95.2 617.4,96.1 618.3,96.3 619.1,96.6 619.9,96.8 620.7,98.1 621.6,98.4 622.4,98.7 623.2,99.0 624.1,100.6 624.9,100.9 625.7,101.3 626.5,101.6 627.4,102.7 628.2,103.0 629.0,103.4 629.8,103.8 630.7,103.9 631.5,104.3 632.3,104.7 633.1,105.1 634.0,105.5 634.8,106.0 635.6,106.5 636.5,106.9 637.3,105.9 638.1,106.4 638.9,106.8 639.8,107.3 640.6,107.9 641.4,108.4 642.2,108.9 643.1,109.4 643.9,109.0 644.7,109.5 645.5,110.0 646.4,110.6 647.2,109.7 648.0,110.3 648.9,110.8 649.7,111.4 650.5,112.1 651.3,112.7 652.2,113.3 653.0,113.9 653.8,115.0 654.6,115.7 655.5,116.3 656.3,116.9 657.1,116.7 657.9,117.4 658.8,118.0 659.6,118.7 660.4,117.1 661.3,117.8 662.1,118.4 662.9,119.1 663.7,119.6 664.6,120.3 665.4,121.0 666.2,121.7 667.0,121.9 667.9,122.7 668.7,123.4 669.5,124.1 670.3,125.2 671.2,126.0 672.0,126.7 672.8,127.5 673.7,129.6 674.5,130.4 675.3,131.2 676.1,132.0 677.0,133.9 677.8,134.7 678.6,135.6 679.4,136.4 680.3,135.9 681.1,136.8 681.9,137.6 682.7,138.5 683.6,138.3 684.4,139.2 685.2,140.0 686.1,140.9 686.9,141.8 687.7,142.7 688.5,143.6 689.4,144.5 690.2,145.0 691.0,145.9 691.8,146.8 692.7,147.7 693.5,148.4 694.3,149.3 695.1,150.2 696.0,151.2 696.8,151.1 697.6,152.0 698.5,152.9 699.3,153.8 700.1,153.9 700.9,154.9 701.8,155.8 702.6,156.7 703.4,157.8 704.2,158.8 705.1,159.7 705.9,160.7 706.7,161.0 707.5,161.9 708.4,162.9 709.2,163.8 710.0,167.0 710.9,167.9 711.7,168.9 712.5,169.9 713.3,169.7 714.2,170.7 715.0,171.6 715.8,172.6 716.6,175.3 717.5,176.3 718.3,177.3 719.1,178.4 719.9,181.2 720.8,182.3 721.6,183.3 722.4,184.4 723.3,185.7 724.1,186.8 724.9,187.8 725.7,188.9 726.6,190.4 727.4,191.4 728.2,192.5 729.0,193.6 729.9,193.9 730.7,195.0 731.5,196.0 732.3,197.1 733.2,198.3 734.0,199.3 734.8,200.4 735.7,201.4 736.5,202.8 737.3,203.8 738.1,204.9 739.0,206.0 739.8,206.2 740.6,207.3 741.4,208.3 742.3,209.3 743.1,208.0 743.9,209.0 744.7,209.9 745.6,210.9 746.4,211.2 747.2,212.1 748.1,213.1 748.9,214.1 749.7,216.7 750.5,217.7 751.4,218.6 752.2,219.6 753.0,223.3 753.8,224.3 754.7,225.3 755.5,226.3 756.3,228.6 757.1,229.6 758.0,230.6 758.8,231.6 759.6,232.3 760.5,233.3 761.3,234.3 762.1,235.3 762.9,237.0 763.8,238.0 764.6,239.0 765.4,239.9 766.2,240.1 767.1,241.1 767.9,242.0 768.7,243.0 769.5,243.6 770.4,244.5 771.2,245.5 772.0,246.4 772.9,247.0 773.7,247.9 774.5,248.8 775.3,249.7 776.2,250.4 777.0,251.3 777.8,252.2 778.6,253.1 779.5,255.8 780.3,256.7 781.1,257.6 781.9,258.5 782.8,260.2 783.6,261.1 784.4,262.0 785.3,262.9 786.1,263.6 786.9,264.4 787.7,265.3 788.6,266.2 789.4,266.0 790.2,266.9 791.0,267.7 791.9,268.5 792.7,270.0 793.5,270.8 794.3,271.7 795.2,272.5 796.0,273.2"/>
<text x="640" y="72" font-family="Arial" font-size="12" fill="#2563eb">estimate</text>
</svg>