<svg xmlns="http://www.w3.org/2000/svg" width="820" height="320" viewBox="0 0 820 320">
<rect width="100%" height="100%" fill="white"/>
<text x="52" y="30" font-family="Arial" font-size="18" font-weight="700">ekf_nominal accelerometer bias estimates</text>
<line x1="52" y1="274" x2="796" y2="274" stroke="#263238"/>
<line x1="52" y1="42" x2="52" y2="274" stroke="#263238"/>
<text x="52" y="306" font-family="Arial" font-size="12">time (s)</text>
<text x="630" y="306" font-family="Arial" font-size="12">m/s^2</text>

<polyline fill="none" stroke="#0f766e" stroke-width="2.3" points="52.0,70.3 52.8,70.3 53.7,70.3 54.5,70.3 55.3,70.3 56.1,70.3 57.0,70.3 57.8,70.3 58.6,70.3 59.4,70.3 60.3,70.3 61.1,70.3 61.9,70.3 62.7,70.3 63.6,70.3 64.4,70.3 65.2,70.3 66.1,70.3 66.9,70.3 67.7,70.3 68.5,61.4 69.4,61.4 70.2,61.4 71.0,61.4 71.8,61.4 72.7,61.4 73.5,61.4 74.3,61.4 75.1,61.4 76.0,61.4 76.8,61.4 77.6,61.4 78.5,61.4 79.3,61.4 80.1,61.4 80.9,61.4 81.8,61.4 82.6,61.4 83.4,61.4 84.2,61.4 85.1,60.3 85.9,60.3 86.7,60.3 87.5,60.3 88.4,60.3 89.2,60.3 90.0,60.3 90.9,60.3 91.7,60.3 92.5,60.3 93.3,60.3 94.2,60.3 95.0,60.3 95.8,60.3 96.6,60.3 97.5,60.3 98.3,60.3 99.1,60.3 99.9,60.3 100.8,60.3 101.6,74.0 102.4,74.0 103.3,74.0 104.1,74.0 104.9,74.0 105.7,74.0 106.6,74.0 107.4,74.0 108.2,74.0 109.0,74.0 109.9,74.0 110.7,74.0 111.5,74.0 112.3,74.0 113.2,74.0 114.0,74.0 114.8,74.0 115.7,74.0 116.5,74.0 117.3,74.0 118.1,130.5 119.0,130.5 119.8,130.5 120.6,130.5 121.4,130.5 122.3,130.5 123.1,130.5 123.9,130.5 124.7,130.5 125.6,130.5 126.4,130.5 127.2,130.5 128.1,130.5 128.9,130.5 129.7,130.5 130.5,130.5 131.4,130.5 132.2,130.5 133.0,130.5 133.8,130.5 134.7,156.1 135.5,156.1 136.3,156.1 137.1,156.1 138.0,156.1 138.8,156.1 139.6,156.1 140.5,156.1 141.3,156.1 142.1,156.1 142.9,156.1 143.8,156.1 144.6,156.1 145.4,156.1 146.2,156.1 147.1,156.1 147.9,156.1 148.7,156.1 149.5,156.1 150.4,156.1 151.2,205.1 152.0,205.1 152.9,205.1 153.7,205.1 154.5,205.1 155.3,205.1 156.2,205.1 157.0,205.1 157.8,205.1 158.6,205.1 159.5,205.1 160.3,205.1 161.1,205.1 161.9,205.1 162.8,205.1 163.6,205.1 164.4,205.1 165.3,205.1 166.1,205.1 166.9,205.1 167.7,207.5 168.6,207.5 169.4,207.5 170.2,207.5 171.0,207.5 171.9,207.5 172.7,207.5 173.5,207.5 174.3,207.5 175.2,207.5 176.0,207.5 176.8,207.5 177.7,207.5 178.5,207.5 179.3,207.5 180.1,207.5 181.0,207.5 181.8,207.5 182.6,207.5 183.4,207.5 184.3,274.0 185.1,274.0 185.9,274.0 186.7,274.0 187.6,274.0 188.4,274.0 189.2,274.0 190.1,274.0 190.9,274.0 191.7,274.0 192.5,274.0 193.4,274.0 194.2,274.0 195.0,274.0 195.8,274.0 196.7,274.0 197.5,274.0 198.3,274.0 199.1,274.0 200.0,274.0 200.8,227.0 201.6,227.0 202.5,227.0 203.3,227.0 204.1,227.0 204.9,227.0 205.8,227.0 206.6,227.0 207.4,227.0 208.2,227.0 209.1,227.0 209.9,227.0 210.7,227.0 211.5,227.0 212.4,227.0 213.2,227.0 214.0,227.0 214.9,227.0 215.7,227.0 216.5,227.0 217.3,202.1 218.2,202.1 219.0,202.1 219.8,202.1 220.6,202.1 221.5,202.1 222.3,202.1 223.1,202.1 223.9,202.1 224.8,202.1 225.6,202.1 226.4,202.1 227.3,202.1 228.1,202.1 228.9,202.1 229.7,202.1 230.6,202.1 231.4,202.1 232.2,202.1 233.0,202.1 233.9,189.3 234.7,189.3 235.5,189.3 236.3,189.3 237.2,189.3 238.0,189.3 238.8,189.3 239.7,189.3 240.5,189.3 241.3,189.3 242.1,189.3 243.0,189.3 243.8,189.3 244.6,189.3 245.4,189.3 246.3,189.3 247.1,189.3 247.9,189.3 248.7,189.3 249.6,189.3 250.4,154.8 251.2,154.8 252.1,154.8 252.9,154.8 253.7,154.8 254.5,154.8 255.4,154.8 256.2,154.8 257.0,154.8 257.8,154.8 258.7,154.8 259.5,154.8 260.3,154.8 261.1,154.8 262.0,154.8 262.8,154.8 263.6,154.8 264.5,154.8 265.3,154.8 266.1,154.8 266.9,133.4 267.8,133.4 268.6,133.4 269.4,133.4 270.2,133.4 271.1,133.4 271.9,133.4 272.7,133.4 273.5,133.4 274.4,133.4 275.2,133.4 276.0,133.4 276.9,133.4 277.7,133.4 278.5,133.4 279.3,133.4 280.2,133.4 281.0,133.4 281.8,133.4 282.6,133.4 283.5,97.9 284.3,97.9 285.1,97.9 285.9,97.9 286.8,97.9 287.6,97.9 288.4,97.9 289.3,97.9 290.1,97.9 290.9,97.9 291.7,97.9 292.6,97.9 293.4,97.9 294.2,97.9 295.0,97.9 295.9,97.9 296.7,97.9 297.5,97.9 298.3,97.9 299.2,97.9 300.0,91.7 300.8,91.7 301.7,91.7 302.5,91.7 303.3,91.7 304.1,91.7 305.0,91.7 305.8,91.7 306.6,91.7 307.4,91.7 308.3,91.7 309.1,91.7 309.9,91.7 310.7,91.7 311.6,91.7 312.4,91.7 313.2,91.7 314.1,91.7 314.9,91.7 315.7,91.7 316.5,86.2 317.4,86.2 318.2,86.2 319.0,86.2 319.8,86.2 320.7,86.2 321.5,86.2 322.3,86.2 323.1,86.2 324.0,86.2 324.8,86.2 325.6,86.2 326.5,86.2 327.3,86.2 328.1,86.2 328.9,86.2 329.8,86.2 330.6,86.2 331.4,86.2 332.2,86.2 333.1,79.0 333.9,79.0 334.7,79.0 335.5,79.0 336.4,79.0 337.2,79.0 338.0,79.0 338.9,79.0 339.7,79.0 340.5,79.0 341.3,79.0 342.2,79.0 343.0,79.0 343.8,79.0 344.6,79.0 345.5,79.0 346.3,79.0 347.1,79.0 347.9,79.0 348.8,79.0 349.6,65.9 350.4,65.9 351.3,65.9 352.1,65.9 352.9,65.9 353.7,65.9 354.6,65.9 355.4,65.9 356.2,65.9 357.0,65.9 357.9,65.9 358.7,65.9 359.5,65.9 360.3,65.9 361.2,65.9 362.0,65.9 362.8,65.9 363.7,65.9 364.5,65.9 365.3,65.9 366.1,65.1 367.0,65.1 367.8,65.1 368.6,65.1 369.4,65.1 370.3,65.1 371.1,65.1 371.9,65.1 372.7,65.1 373.6,65.1 374.4,65.1 375.2,65.1 376.1,65.1 376.9,65.1 377.7,65.1 378.5,65.1 379.4,65.1 380.2,65.1 381.0,65.1 381.8,65.1 382.7,66.4 383.5,66.4 384.3,66.4 385.1,66.4 386.0,66.4 386.8,66.4 387.6,66.4 388.5,66.4 389.3,66.4 390.1,66.4 390.9,66.4 391.8,66.4 392.6,66.4 393.4,66.4 394.2,66.4 395.1,66.4 395.9,66.4 396.7,66.4 397.5,66.4 398.4,66.4 399.2,70.4 400.0,70.4 400.9,70.4 401.7,70.4 402.5,70.4 403.3,70.4 404.2,70.4 405.0,70.4 405.8,70.4 406.6,70.4 407.5,70.4 408.3,70.4 409.1,70.4 409.9,70.4 410.8,70.4 411.6,70.4 412.4,70.4 413.3,70.4 414.1,70.4 414.9,70.4 415.7,71.1 416.6,71.1 417.4,71.1 418.2,71.1 419.0,71.1 419.9,71.1 420.7,71.1 421.5,71.1 422.3,71.1 423.2,71.1 424.0,71.1 424.8,71.1 425.7,71.1 426.5,71.1 427.3,71.1 428.1,71.1 429.0,71.1 429.8,71.1 430.6,71.1 431.4,71.1 432.3,72.8 433.1,72.8 433.9,72.8 434.7,72.8 435.6,72.8 436.4,72.8 437.2,72.8 438.1,72.8 438.9,72.8 439.7,72.8 440.5,72.8 441.4,72.8 442.2,72.8 443.0,72.8 443.8,72.8 444.7,72.8 445.5,72.8 446.3,72.8 447.1,72.8 448.0,72.8 448.8,72.0 449.6,72.0 450.5,72.0 451.3,72.0 452.1,72.0 452.9,72.0 453.8,72.0 454.6,72.0 455.4,72.0 456.2,72.0 457.1,72.0 457.9,72.0 458.7,72.0 459.5,72.0 460.4,72.0 461.2,72.0 462.0,72.0 462.9,72.0 463.7,72.0 464.5,72.0 465.3,72.3 466.2,72.3 467.0,72.3 467.8,72.3 468.6,72.3 469.5,72.3 470.3,72.3 471.1,72.3 471.9,72.3 472.8,72.3 473.6,72.3 474.4,72.3 475.3,72.3 476.1,72.3 476.9,72.3 477.7,72.3 478.6,72.3 479.4,72.3 480.2,72.3 481.0,72.3 481.9,69.8 482.7,69.8 483.5,69.8 484.3,69.8 485.2,69.8 486.0,69.8 486.8,69.8 487.7,69.8 488.5,69.8 489.3,69.8 490.1,69.8 491.0,69.8 491.8,69.8 492.6,69.8 493.4,69.8 494.3,69.8 495.1,69.8 495.9,69.8 496.7,69.8 497.6,69.8 498.4,70.0 499.2,70.0 500.1,70.0 500.9,70.0 501.7,70.0 502.5,70.0 503.4,70.0 504.2,70.0 505.0,70.0 505.8,70.0 506.7,70.0 507.5,70.0 508.3,70.0 509.1,70.0 510.0,70.0 510.8,70.0 511.6,70.0 512.5,70.0 513.3,70.0 514.1,70.0 514.9,67.0 515.8,67.0 516.6,67.0 517.4,67.0 518.2,67.0 519.1,67.0 519.9,67.0 520.7,67.0 521.5,67.0 522.4,67.0 523.2,67.0 524.0,67.0 524.9,67.0 525.7,67.0 526.5,67.0 527.3,67.0 528.2,67.0 529.0,67.0 529.8,67.0 530.6,67.0 531.5,65.3 532.3,65.3 533.1,65.3 533.9,65.3 534.8,65.3 535.6,65.3 536.4,65.3 537.3,65.3 538.1,65.3 538.9,65.3 539.7,65.3 540.6,65.3 541.4,65.3 542.2,65.3 543.0,65.3 543.9,65.3 544.7,65.3 545.5,65.3 546.3,65.3 547.2,65.3 548.0,64.5 548.8,64.5 549.7,64.5 550.5,64.5 551.3,64.5 552.1,64.5 553.0,64.5 553.8,64.5 554.6,64.5 555.4,64.5 556.3,64.5 557.1,64.5 557.9,64.5 558.7,64.5 559.6,64.5 560.4,64.5 561.2,64.5 562.1,64.5 562.9,64.5 563.7,64.5 564.5,64.0 565.4,64.0 566.2,64.0 567.0,64.0 567.8,64.0 568.7,64.0 569.5,64.0 570.3,64.0 571.1,64.0 572.0,64.0 572.8,64.0 573.6,64.0 574.5,64.0 575.3,64.0 576.1,64.0 576.9,64.0 577.8,64.0 578.6,64.0 579.4,64.0 580.2,64.0 581.1,64.2 581.9,64.2 582.7,64.2 583.5,64.2 584.4,64.2 585.2,64.2 586.0,64.2 586.9,64.2 587.7,64.2 588.5,64.2 589.3,64.2 590.2,64.2 591.0,64.2 591.8,64.2 592.6,64.2 593.5,64.2 594.3,64.2 595.1,64.2 595.9,64.2 596.8,64.2 597.6,64.1 598.4,64.1 599.3,64.1 600.1,64.1 600.9,64.1 601.7,64.1 602.6,64.1 603.4,64.1 604.2,64.1 605.0,64.1 605.9,64.1 606.7,64.1 607.5,64.1 608.3,64.1 609.2,64.1 610.0,64.1 610.8,64.1 611.7,64.1 612.5,64.1 613.3,64.1 614.1,63.9 615.0,63.9 615.8,63.9 616.6,63.9 617.4,63.9 618.3,63.9 619.1,63.9 619.9,63.9 620.7,63.9 621.6,63.9 622.4,63.9 623.2,63.9 624.1,63.9 624.9,63.9 625.7,63.9 626.5,63.9 627.4,63.9 628.2,63.9 629.0,63.9 629.8,63.9 630.7,64.2 631.5,64.2 632.3,64.2 633.1,64.2 634.0,64.2 634.8,64.2 635.6,64.2 636.5,64.2 637.3,64.2 638.1,64.2 638.9,64.2 639.8,64.2 640.6,64.2 641.4,64.2 642.2,64.2 643.1,64.2 643.9,64.2 644.7,64.2 645.5,64.2 646.4,64.2 647.2,63.9 648.0,63.9 648.9,63.9 649.7,63.9 650.5,63.9 651.3,63.9 652.2,63.9 653.0,63.9 653.8,63.9 654.6,63.9 655.5,63.9 656.3,63.9 657.1,63.9 657.9,63.9 658.8,63.9 659.6,63.9 660.4,63.9 661.3,63.9 662.1,63.9 662.9,63.9 663.7,64.1 664.6,64.1 665.4,64.1 666.2,64.1 667.0,64.1 667.9,64.1 668.7,64.1 669.5,64.1 670.3,64.1 671.2,64.1 672.0,64.1 672.8,64.1 673.7,64.1 674.5,64.1 675.3,64.1 676.1,64.1 677.0,64.1 677.8,64.1 678.6,64.1 679.4,64.1 680.3,62.5 681.1,62.5 681.9,62.5 682.7,62.5 683.6,62.5 684.4,62.5 685.2,62.5 686.1,62.5 686.9,62.5 687.7,62.5 688.5,62.5 689.4,62.5 690.2,62.5 691.0,62.5 691.8,62.5 692.7,62.5 693.5,62.5 694.3,62.5 695.1,62.5 696.0,62.5 696.8,62.7 697.6,62.7 698.5,62.7 699.3,62.7 700.1,62.7 700.9,62.7 701.8,62.7 702.6,62.7 703.4,62.7 704.2,62.7 705.1,62.7 705.9,62.7 706.7,62.7 707.5,62.7 708.4,62.7 709.2,62.7 710.0,62.7 710.9,62.7 711.7,62.7 712.5,62.7 713.3,62.5 714.2,62.5 715.0,62.5 715.8,62.5 716.6,62.5 717.5,62.5 718.3,62.5 719.1,62.5 719.9,62.5 720.8,62.5 721.6,62.5 722.4,62.5 723.3,62.5 724.1,62.5 724.9,62.5 725.7,62.5 726.6,62.5 727.4,62.5 728.2,62.5 729.0,62.5 729.9,62.6 730.7,62.6 731.5,62.6 732.3,62.6 733.2,62.6 734.0,62.6 734.8,62.6 735.7,62.6 736.5,62.6 737.3,62.6 738.1,62.6 739.0,62.6 739.8,62.6 740.6,62.6 741.4,62.6 742.3,62.6 743.1,62.6 743.9,62.6 744.7,62.6 745.6,62.6 746.4,62.6 747.2,62.6 748.1,62.6 748.9,62.6 749.7,62.6 750.5,62.6 751.4,62.6 752.2,62.6 753.0,62.6 753.8,62.6 754.7,62.6 755.5,62.6 756.3,62.6 757.1,62.6 758.0,62.6 758.8,62.6 759.6,62.6 760.5,62.6 761.3,62.6 762.1,62.6 762.9,63.3 763.8,63.3 764.6,63.3 765.4,63.3 766.2,63.3 767.1,63.3 767.9,63.3 768.7,63.3 769.5,63.3 770.4,63.3 771.2,63.3 772.0,63.3 772.9,63.3 773.7,63.3 774.5,63.3 775.3,63.3 776.2,63.3 777.0,63.3 777.8,63.3 778.6,63.3 779.5,63.5 780.3,63.5 781.1,63.5 781.9,63.5 782.8,63.5 783.6,63.5 784.4,63.5 785.3,63.5 786.1,63.5 786.9,63.5 787.7,63.5 788.6,63.5 789.4,63.5 790.2,63.5 791.0,63.5 791.9,63.5 792.7,63.5 793.5,63.5 794.3,63.5 795.2,63.5 796.0,62.7"/>
<text x="640" y="56" font-family="Arial" font-size="12" fill="#0f766e">bax</text>
<polyline fill="none" stroke="#2563eb" stroke-width="2.3" points="52.0,70.3 52.8,70.3 53.7,70.3 54.5,70.3 55.3,70.3 56.1,70.3 57.0,70.3 57.8,70.3 58.6,70.3 59.4,70.3 60.3,70.3 61.1,70.3 61.9,70.3 62.7,70.3 63.6,70.3 64.4,70.3 65.2,70.3 66.1,70.3 66.9,70.3 67.7,70.3 68.5,59.1 69.4,59.1 70.2,59.1 71.0,59.1 71.8,59.1 72.7,59.1 73.5,59.1 74.3,59.1 75.1,59.1 76.0,59.1 76.8,59.1 77.6,59.1 78.5,59.1 79.3,59.1 80.1,59.1 80.9,59.1 81.8,59.1 82.6,59.1 83.4,59.1 84.2,59.1 85.1,84.0 85.9,84.0 86.7,84.0 87.5,84.0 88.4,84.0 89.2,84.0 90.0,84.0 90.9,84.0 91.7,84.0 92.5,84.0 93.3,84.0 94.2,84.0 95.0,84.0 95.8,84.0 96.6,84.0 97.5,84.0 98.3,84.0 99.1,84.0 99.9,84.0 100.8,84.0 101.6,98.5 102.4,98.5 103.3,98.5 104.1,98.5 104.9,98.5 105.7,98.5 106.6,98.5 107.4,98.5 108.2,98.5 109.0,98.5 109.9,98.5 110.7,98.5 111.5,98.5 112.3,98.5 113.2,98.5 114.0,98.5 114.8,98.5 115.7,98.5 116.5,98.5 117.3,98.5 118.1,110.8 119.0,110.8 119.8,110.8 120.6,110.8 121.4,110.8 122.3,110.8 123.1,110.8 123.9,110.8 124.7,110.8 125.6,110.8 126.4,110.8 127.2,110.8 128.1,110.8 128.9,110.8 129.7,110.8 130.5,110.8 131.4,110.8 132.2,110.8 133.0,110.8 133.8,110.8 134.7,188.3 135.5,188.3 136.3,188.3 137.1,188.3 138.0,188.3 138.8,188.3 139.6,188.3 140.5,188.3 141.3,188.3 142.1,188.3 142.9,188.3 143.8,188.3 144.6,188.3 145.4,188.3 146.2,188.3 147.1,188.3 147.9,188.3 148.7,188.3 149.5,188.3 150.4,188.3 151.2,148.2 152.0,148.2 152.9,148.2 153.7,148.2 154.5,148.2 155.3,148.2 156.2,148.2 157.0,148.2 157.8,148.2 158.6,148.2 159.5,148.2 160.3,148.2 161.1,148.2 161.9,148.2 162.8,148.2 163.6,148.2 164.4,148.2 165.3,148.2 166.1,148.2 166.9,148.2 167.7,135.7 168.6,135.7 169.4,135.7 170.2,135.7 171.0,135.7 171.9,135.7 172.7,135.7 173.5,135.7 174.3,135.7 175.2,135.7 176.0,135.7 176.8,135.7 177.7,135.7 178.5,135.7 179.3,135.7 180.1,135.7 181.0,135.7 181.8,135.7 182.6,135.7 183.4,135.7 184.3,146.8 185.1,146.8 185.9,146.8 186.7,146.8 187.6,146.8 188.4,146.8 189.2,146.8 190.1,146.8 190.9,146.8 191.7,146.8 192.5,146.8 193.4,146.8 194.2,146.8 195.0,146.8 195.8,146.8 196.7,146.8 197.5,146.8 198.3,146.8 199.1,146.8 200.0,146.8 200.8,163.3 201.6,163.3 202.5,163.3 203.3,163.3 204.1,163.3 204.9,163.3 205.8,163.3 206.6,163.3 207.4,163.3 208.2,163.3 209.1,163.3 209.9,163.3 210.7,163.3 211.5,163.3 212.4,163.3 213.2,163.3 214.0,163.3 214.9,163.3 215.7,163.3 216.5,163.3 217.3,159.7 218.2,159.7 219.0,159.7 219.8,159.7 220.6,159.7 221.5,159.7 222.3,159.7 223.1,159.7 223.9,159.7 224.8,159.7 225.6,159.7 226.4,159.7 227.3,159.7 228.1,159.7 228.9,159.7 229.7,159.7 230.6,159.7 231.4,159.7 232.2,159.7 233.0,159.7 233.9,149.6 234.7,149.6 235.5,149.6 236.3,149.6 237.2,149.6 238.0,149.6 238.8,149.6 239.7,149.6 240.5,149.6 241.3,149.6 242.1,149.6 243.0,149.6 243.8,149.6 244.6,149.6 245.4,149.6 246.3,149.6 247.1,149.6 247.9,149.6 248.7,149.6 249.6,149.6 250.4,138.9 251.2,138.9 252.1,138.9 252.9,138.9 253.7,138.9 254.5,138.9 255.4,138.9 256.2,138.9 257.0,138.9 257.8,138.9 258.7,138.9 259.5,138.9 260.3,138.9 261.1,138.9 262.0,138.9 262.8,138.9 263.6,138.9 264.5,138.9 265.3,138.9 266.1,138.9 266.9,130.4 267.8,130.4 268.6,130.4 269.4,130.4 270.2,130.4 271.1,130.4 271.9,130.4 272.7,130.4 273.5,130.4 274.4,130.4 275.2,130.4 276.0,130.4 276.9,130.4 277.7,130.4 278.5,130.4 279.3,130.4 280.2,130.4 281.0,130.4 281.8,130.4 282.6,130.4 283.5,105.1 284.3,105.1 285.1,105.1 285.9,105.1 286.8,105.1 287.6,105.1 288.4,105.1 289.3,105.1 290.1,105.1 290.9,105.1 291.7,105.1 292.6,105.1 293.4,105.1 294.2,105.1 295.0,105.1 295.9,105.1 296.7,105.1 297.5,105.1 298.3,105.1 299.2,105.1 300.0,99.7 300.8,99.7 301.7,99.7 302.5,99.7 303.3,99.7 304.1,99.7 305.0,99.7 305.8,99.7 306.6,99.7 307.4,99.7 308.3,99.7 309.1,99.7 309.9,99.7 310.7,99.7 311.6,99.7 312.4,99.7 313.2,99.7 314.1,99.7 314.9,99.7 315.7,99.7 316.5,97.9 317.4,97.9 318.2,97.9 319.0,97.9 319.8,97.9 320.7,97.9 321.5,97.9 322.3,97.9 323.1,97.9 324.0,97.9 324.8,97.9 325.6,97.9 326.5,97.9 327.3,97.9 328.1,97.9 328.9,97.9 329.8,97.9 330.6,97.9 331.4,97.9 332.2,97.9 333.1,87.4 333.9,87.4 334.7,87.4 335.5,87.4 336.4,87.4 337.2,87.4 338.0,87.4 338.9,87.4 339.7,87.4 340.5,87.4 341.3,87.4 342.2,87.4 343.0,87.4 343.8,87.4 344.6,87.4 345.5,87.4 346.3,87.4 347.1,87.4 347.9,87.4 348.8,87.4 349.6,89.7 350.4,89.7 351.3,89.7 352.1,89.7 352.9,89.7 353.7,89.7 354.6,89.7 355.4,89.7 356.2,89.7 357.0,89.7 357.9,89.7 358.7,89.7 359.5,89.7 360.3,89.7 361.2,89.7 362.0,89.7 362.8,89.7 363.7,89.7 364.5,89.7 365.3,89.7 366.1,84.7 367.0,84.7 367.8,84.7 368.6,84.7 369.4,84.7 370.3,84.7 371.1,84.7 371.9,84.7 372.7,84.7 373.6,84.7 374.4,84.7 375.2,84.7 376.1,84.7 376.9,84.7 377.7,84.7 378.5,84.7 379.4,84.7 380.2,84.7 381.0,84.7 381.8,84.7 382.7,83.5 383.5,83.5 384.3,83.5 385.1,83.5 386.0,83.5 386.8,83.5 387.6,83.5 388.5,83.5 389.3,83.5 390.1,83.5 390.9,83.5 391.8,83.5 392.6,83.5 393.4,83.5 394.2,83.5 395.1,83.5 395.9,83.5 396.7,83.5 397.5,83.5 398.4,83.5 399.2,83.4 400.0,83.4 400.9,83.4 401.7,83.4 402.5,83.4 403.3,83.4 404.2,83.4 405.0,83.4 405.8,83.4 406.6,83.4 407.5,83.4 408.3,83.4 409.1,83.4 409.9,83.4 410.8,83.4 411.6,83.4 412.4,83.4 413.3,83.4 414.1,83.4 414.9,83.4 415.7,84.4 416.6,84.4 417.4,84.4 418.2,84.4 419.0,84.4 419.9,84.4 420.7,84.4 421.5,84.4 422.3,84.4 423.2,84.4 424.0,84.4 424.8,84.4 425.7,84.4 426.5,84.4 427.3,84.4 428.1,84.4 429.0,84.4 429.8,84.4 430.6,84.4 431.4,84.4 432.3,83.8 433.1,83.8 433.9,83.8 434.7,83.8 435.6,83.8 436.4,83.8 437.2,83.8 438.1,83.8 438.9,83.8 439.7,83.8 440.5,83.8 441.4,83.8 442.2,83.8 443.0,83.8 443.8,83.8 444.7,83.8 445.5,83.8 446.3,83.8 447.1,83.8 448.0,83.8 448.8,81.8 449.6,81.8 450.5,81.8 451.3,81.8 452.1,81.8 452.9,81.8 453.8,81.8 454.6,81.8 455.4,81.8 456.2,81.8 457.1,81.8 457.9,81.8 458.7,81.8 459.5,81.8 460.4,81.8 461.2,81.8 462.0,81.8 462.9,81.8 463.7,81.8 464.5,81.8 465.3,86.0 466.2,86.0 467.0,86.0 467.8,86.0 468.6,86.0 469.5,86.0 470.3,86.0 471.1,86.0 471.9,86.0 472.8,86.0 473.6,86.0 474.4,86.0 475.3,86.0 476.1,86.0 476.9,86.0 477.7,86.0 478.6,86.0 479.4,86.0 480.2,86.0 481.0,86.0 481.9,84.3 482.7,84.3 483.5,84.3 484.3,84.3 485.2,84.3 486.0,84.3 486.8,84.3 487.7,84.3 488.5,84.3 489.3,84.3 490.1,84.3 491.0,84.3 491.8,84.3 492.6,84.3 493.4,84.3 494.3,84.3 495.1,84.3 495.9,84.3 496.7,84.3 497.6,84.3 498.4,84.8 499.2,84.8 500.1,84.8 500.9,84.8 501.7,84.8 502.5,84.8 503.4,84.8 504.2,84.8 505.0,84.8 505.8,84.8 506.7,84.8 507.5,84.8 508.3,84.8 509.1,84.8 510.0,84.8 510.8,84.8 511.6,84.8 512.5,84.8 513.3,84.8 514.1,84.8 514.9,83.3 515.8,83.3 516.6,83.3 517.4,83.3 518.2,83.3 519.1,83.3 519.9,83.3 520.7,83.3 521.5,83.3 522.4,83.3 523.2,83.3 524.0,83.3 524.9,83.3 525.7,83.3 526.5,83.3 527.3,83.3 528.2,83.3 529.0,83.3 529.8,83.3 530.6,83.3 531.5,83.6 532.3,83.6 533.1,83.6 533.9,83.6 534.8,83.6 535.6,83.6 536.4,83.6 537.3,83.6 538.1,83.6 538.9,83.6 539.7,83.6 540.6,83.6 541.4,83.6 542.2,83.6 543.0,83.6 543.9,83.6 544.7,83.6 545.5,83.6 546.3,83.6 547.2,83.6 548.0,83.8 548.8,83.8 549.7,83.8 550.5,83.8 551.3,83.8 552.1,83.8 553.0,83.8 553.8,83.8 554.6,83.8 555.4,83.8 556.3,83.8 557.1,83.8 557.9,83.8 558.7,83.8 559.6,83.8 560.4,83.8 561.2,83.8 562.1,83.8 562.9,83.8 563.7,83.8 564.5,85.5 565.4,85.5 566.2,85.5 567.0,85.5 567.8,85.5 568.7,85.5 569.5,85.5 570.3,85.5 571.1,85.5 572.0,85.5 572.8,85.5 573.6,85.5 574.5,85.5 575.3,85.5 576.1,85.5 576.9,85.5 577.8,85.5 578.6,85.5 579.4,85.5 580.2,85.5 581.1,83.9 581.9,83.9 582.7,83.9 583.5,83.9 584.4,83.9 585.2,83.9 586.0,83.9 586.9,83.9 587.7,83.9 588.5,83.9 589.3,83.9 590.2,83.9 591.0,83.9 591.8,83.9 592.6,83.9 593.5,83.9 594.3,83.9 595.1,83.9 595.9,83.9 596.8,83.9 597.6,82.9 598.4,82.9 599.3,82.9 600.1,82.9 600.9,82.9 601.7,82.9 602.6,82.9 603.4,82.9 604.2,82.9 605.0,82.9 605.9,82.9 606.7,82.9 607.5,82.9 608.3,82.9 609.2,82.9 610.0,82.9 610.8,82.9 611.7,82.9 612.5,82.9 613.3,82.9 614.1,82.2 615.0,82.2 615.8,82.2 616.6,82.2 617.4,82.2 618.3,82.2 619.1,82.2 619.9,82.2 620.7,82.2 621.6,82.2 622.4,82.2 623.2,82.2 624.1,82.2 624.9,82.2 625.7,82.2 626.5,82.2 627.4,82.2 628.2,82.2 629.0,82.2 629.8,82.2 630.7,81.2 631.5,81.2 632.3,81.2 633.1,81.2 634.0,81.2 634.8,81.2 635.6,81.2 636.5,81.2 637.3,81.2 638.1,81.2 638.9,81.2 639.8,81.2 640.6,81.2 641.4,81.2 642.2,81.2 643.1,81.2 643.9,81.2 644.7,81.2 645.5,81.2 646.4,81.2 647.2,81.2 648.0,81.2 648.9,81.2 649.7,81.2 650.5,81.2 651.3,81.2 652.2,81.2 653.0,81.2 653.8,81.2 654.6,81.2 655.5,81.2 656.3,81.2 657.1,81.2 657.9,81.2 658.8,81.2 659.6,81.2 660.4,81.2 661.3,81.2 662.1,81.2 662.9,81.2 663.7,79.7 664.6,79.7 665.4,79.7 666.2,79.7 667.0,79.7 667.9,79.7 668.7,79.7 669.5,79.7 670.3,79.7 671.2,79.7 672.0,79.7 672.8,79.7 673.7,79.7 674.5,79.7 675.3,79.7 676.1,79.7 677.0,79.7 677.8,79.7 678.6,79.7 679.4,79.7 680.3,80.3 681.1,80.3 681.9,80.3 682.7,80.3 683.6,80.3 684.4,80.3 685.2,80.3 686.1,80.3 686.9,80.3 687.7,80.3 688.5,80.3 689.4,80.3 690.2,80.3 691.0,80.3 691.8,80.3 692.7,80.3 693.5,80.3 694.3,80.3 695.1,80.3 696.0,80.3 696.8,80.6 697.6,80.6 698.5,80.6 699.3,80.6 700.1,80.6 700.9,80.6 701.8,80.6 702.6,80.6 703.4,80.6 704.2,80.6 705.1,80.6 705.9,80.6 706.7,80.6 707.5,80.6 708.4,80.6 709.2,80.6 710.0,80.6 710.9,80.6 711.7,80.6 712.5,80.6 713.3,80.8 714.2,80.8 715.0,80.8 715.8,80.8 716.6,80.8 717.5,80.8 718.3,80.8 719.1,80.8 719.9,80.8 720.8,80.8 721.6,80.8 722.4,80.8 723.3,80.8 724.1,80.8 724.9,80.8 725.7,80.8 726.6,80.8 727.4,80.8 728.2,80.8 729.0,80.8 729.9,80.4 730.7,80.4 731.5,80.4 732.3,80.4 733.2,80.4 734.0,80.4 734.8,80.4 735.7,80.4 736.5,80.4 737.3,80.4 738.1,80.4 739.0,80.4 739.8,80.4 740.6,80.4 741.4,80.4 742.3,80.4 743.1,80.4 743.9,80.4 744.7,80.4 745.6,80.4 746.4,80.4 747.2,80.4 748.1,80.4 748.9,80.4 749.7,80.4 750.5,80.4 751.4,80.4 752.2,80.4 753.0,80.4 753.8,80.4 754.7,80.4 755.5,80.4 756.3,80.4 757.1,80.4 758.0,80.4 758.8,80.4 759.6,80.4 760.5,80.4 761.3,80.4 762.1,80.4 762.9,79.3 763.8,79.3 764.6,79.3 765.4,79.3 766.2,79.3 767.1,79.3 767.9,79.3 768.7,79.3 769.5,79.3 770.4,79.3 771.2,79.3 772.0,79.3 772.9,79.3 773.7,79.3 774.5,79.3 775.3,79.3 776.2,79.3 777.0,79.3 777.8,79.3 778.6,79.3 779.5,79.7 780.3,79.7 781.1,79.7 781.9,79.7 782.8,79.7 783.6,79.7 784.4,79.7 785.3,79.7 786.1,79.7 786.9,79.7 787.7,79.7 788.6,79.7 789.4,79.7 790.2,79.7 791.0,79.7 791.9,79.7 792.7,79.7 793.5,79.7 794.3,79.7 795.2,79.7 796.0,79.8"/>
<text x="640" y="72" font-family="Arial" font-size="12" fill="#2563eb">bay</text>
<polyline fill="none" stroke="#b45309" stroke-width="2.3" points="52.0,70.3 52.8,70.3 53.7,70.3 54.5,70.3 55.3,70.5 56.1,70.5 57.0,70.5 57.8,70.5 58.6,70.4 59.4,70.4 60.3,70.4 61.1,70.4 61.9,69.4 62.7,69.4 63.6,69.4 64.4,69.4 65.2,65.4 66.1,65.4 66.9,65.4 67.7,65.4 68.5,68.3 69.4,68.3 70.2,68.3 71.0,68.3 71.8,71.5 72.7,71.5 73.5,71.5 74.3,71.5 75.1,74.0 76.0,74.0 76.8,74.0 77.6,74.0 78.5,70.2 79.3,70.2 80.1,70.2 80.9,70.2 81.8,82.0 82.6,82.0 83.4,82.0 84.2,82.0 85.1,101.7 85.9,101.7 86.7,101.7 87.5,101.7 88.4,67.6 89.2,67.6 90.0,67.6 90.9,67.6 91.7,62.6 92.5,62.6 93.3,62.6 94.2,62.6 95.0,54.7 95.8,54.7 96.6,54.7 97.5,54.7 98.3,54.3 99.1,54.3 99.9,54.3 100.8,54.3 101.6,42.0 102.4,42.0 103.3,42.0 104.1,42.0 104.9,53.1 105.7,53.1 106.6,53.1 107.4,53.1 108.2,73.5 109.0,73.5 109.9,73.5 110.7,73.5 111.5,103.0 112.3,103.0 113.2,103.0 114.0,103.0 114.8,78.5 115.7,78.5 116.5,78.5 117.3,78.5 118.1,85.6 119.0,85.6 119.8,85.6 120.6,85.6 121.4,76.3 122.3,76.3 123.1,76.3 123.9,76.3 124.7,83.2 125.6,83.2 126.4,83.2 127.2,83.2 128.1,101.1 128.9,101.1 129.7,101.1 130.5,101.1 131.4,106.3 132.2,106.3 133.0,106.3 133.8,106.3 134.7,95.9 135.5,95.9 136.3,95.9 137.1,95.9 138.0,76.3 138.8,76.3 139.6,76.3 140.5,76.3 141.3,77.8 142.1,77.8 142.9,77.8 143.8,77.8 144.6,79.2 145.4,79.2 146.2,79.2 147.1,79.2 147.9,79.1 148.7,79.1 149.5,79.1 150.4,79.1 151.2,83.3 152.0,83.3 152.9,83.3 153.7,83.3 154.5,91.8 155.3,91.8 156.2,91.8 157.0,91.8 157.8,82.5 158.6,82.5 159.5,82.5 160.3,82.5 161.1,84.6 161.9,84.6 162.8,84.6 163.6,84.6 164.4,79.5 165.3,79.5 166.1,79.5 166.9,79.5 167.7,83.2 168.6,83.2 169.4,83.2 170.2,83.2 171.0,75.1 171.9,75.1 172.7,75.1 173.5,75.1 174.3,75.3 175.2,75.3 176.0,75.3 176.8,75.3 177.7,74.6 178.5,74.6 179.3,74.6 180.1,74.6 181.0,75.8 181.8,75.8 182.6,75.8 183.4,75.8 184.3,73.4 185.1,73.4 185.9,73.4 186.7,73.4 187.6,74.6 188.4,74.6 189.2,74.6 190.1,74.6 190.9,78.7 191.7,78.7 192.5,78.7 193.4,78.7 194.2,74.7 195.0,74.7 195.8,74.7 196.7,74.7 197.5,75.8 198.3,75.8 199.1,75.8 200.0,75.8 200.8,74.3 201.6,74.3 202.5,74.3 203.3,74.3 204.1,75.2 204.9,75.2 205.8,75.2 206.6,75.2 207.4,71.2 208.2,71.2 209.1,71.2 209.9,71.2 210.7,69.3 211.5,69.3 212.4,69.3 213.2,69.3 214.0,69.3 214.9,69.3 215.7,69.3 216.5,69.3 217.3,70.9 218.2,70.9 219.0,70.9 219.8,70.9 220.6,71.0 221.5,71.0 222.3,71.0 223.1,71.0 223.9,67.2 224.8,67.2 225.6,67.2 226.4,67.2 227.3,66.6 228.1,66.6 228.9,66.6 229.7,66.6 230.6,69.6 231.4,69.6 232.2,69.6 233.0,69.6 233.9,71.3 234.7,71.3 235.5,71.3 236.3,71.3 237.2,71.6 238.0,71.6 238.8,71.6 239.7,71.6 240.5,70.8 241.3,70.8 242.1,70.8 243.0,70.8 243.8,68.5 244.6,68.5 245.4,68.5 246.3,68.5 247.1,68.9 247.9,68.9 248.7,68.9 249.6,68.9 250.4,67.2 251.2,67.2 252.1,67.2 252.9,67.2 253.7,69.7 254.5,69.7 255.4,69.7 256.2,69.7 257.0,68.6 257.8,68.6 258.7,68.6 259.5,68.6 260.3,68.2 261.1,68.2 262.0,68.2 262.8,68.2 263.6,68.5 264.5,68.5 265.3,68.5 266.1,68.5 266.9,68.2 267.8,68.2 268.6,68.2 269.4,68.2 270.2,68.0 271.1,68.0 271.9,68.0 272.7,68.0 273.5,67.3 274.4,67.3 275.2,67.3 276.0,67.3 276.9,68.2 277.7,68.2 278.5,68.2 279.3,68.2 280.2,69.0 281.0,69.0 281.8,69.0 282.6,69.0 283.5,69.3 284.3,69.3 285.1,69.3 285.9,69.3 286.8,69.3 287.6,69.3 288.4,69.3 289.3,69.3 290.1,70.2 290.9,70.2 291.7,70.2 292.6,70.2 293.4,68.7 294.2,68.7 295.0,68.7 295.9,68.7 296.7,70.0 297.5,70.0 298.3,70.0 299.2,70.0 300.0,68.5 300.8,68.5 301.7,68.5 302.5,68.5 303.3,69.6 304.1,69.6 305.0,69.6 305.8,69.6 306.6,69.0 307.4,69.0 308.3,69.0 309.1,69.0 309.9,68.9 310.7,68.9 311.6,68.9 312.4,68.9 313.2,68.2 314.1,68.2 314.9,68.2 315.7,68.2 316.5,66.8 317.4,66.8 318.2,66.8 319.0,66.8 319.8,65.0 320.7,65.0 321.5,65.0 322.3,65.0 323.1,63.4 324.0,63.4 324.8,63.4 325.6,63.4 326.5,64.2 327.3,64.2 328.1,64.2 328.9,64.2 329.8,64.4 330.6,64.4 331.4,64.4 332.2,64.4 333.1,63.7 333.9,63.7 334.7,63.7 335.5,63.7 336.4,63.2 337.2,63.2 338.0,63.2 338.9,63.2 339.7,63.2 340.5,63.2 341.3,63.2 342.2,63.2 343.0,63.3 343.8,63.3 344.6,63.3 345.5,63.3 346.3,63.0 347.1,63.0 347.9,63.0 348.8,63.0 349.6,64.3 350.4,64.3 351.3,64.3 352.1,64.3 352.9,65.3 353.7,65.3 354.6,65.3 355.4,65.3 356.2,64.6 357.0,64.6 357.9,64.6 358.7,64.6 359.5,65.4 360.3,65.4 361.2,65.4 362.0,65.4 362.8,65.9 363.7,65.9 364.5,65.9 365.3,65.9 366.1,65.1 367.0,65.1 367.8,65.1 368.6,65.1 369.4,65.5 370.3,65.5 371.1,65.5 371.9,65.5 372.7,65.5 373.6,65.5 374.4,65.5 375.2,65.5 376.1,65.5 376.9,65.5 377.7,65.5 378.5,65.5 379.4,65.5 380.2,65.5 381.0,65.5 381.8,65.5 382.7,65.7 383.5,65.7 384.3,65.7 385.1,65.7 386.0,66.1 386.8,66.1 387.6,66.1 388.5,66.1 389.3,65.5 390.1,65.5 390.9,65.5 391.8,65.5 392.6,65.4 393.4,65.4 394.2,65.4 395.1,65.4 395.9,65.1 396.7,65.1 397.5,65.1 398.4,65.1 399.2,65.6 400.0,65.6 400.9,65.6 401.7,65.6 402.5,65.4 403.3,65.4 404.2,65.4 405.0,65.4 405.8,64.9 406.6,64.9 407.5,64.9 408.3,64.9 409.1,64.9 409.9,64.9 410.8,64.9 411.6,64.9 412.4,64.4 413.3,64.4 414.1,64.4 414.9,64.4 415.7,64.6 416.6,64.6 417.4,64.6 418.2,64.6 419.0,64.5 419.9,64.5 420.7,64.5 421.5,64.5 422.3,64.4 423.2,64.4 424.0,64.4 424.8,64.4 425.7,64.7 426.5,64.7 427.3,64.7 428.1,64.7 429.0,64.8 429.8,64.8 430.6,64.8 431.4,64.8 432.3,64.3 433.1,64.3 433.9,64.3 434.7,64.3 435.6,64.3 436.4,64.3 437.2,64.3 438.1,64.3 438.9,64.0 439.7,64.0 440.5,64.0 441.4,64.0 442.2,63.9 443.0,63.9 443.8,63.9 444.7,63.9 445.5,64.3 446.3,64.3 447.1,64.3 448.0,64.3 448.8,63.8 449.6,63.8 450.5,63.8 451.3,63.8 452.1,63.9 452.9,63.9 453.8,63.9 454.6,63.9 455.4,64.3 456.2,64.3 457.1,64.3 457.9,64.3 458.7,63.8 459.5,63.8 460.4,63.8 461.2,63.8 462.0,64.1 462.9,64.1 463.7,64.1 464.5,64.1 465.3,63.9 466.2,63.9 467.0,63.9 467.8,63.9 468.6,64.3 469.5,64.3 470.3,64.3 471.1,64.3 471.9,63.8 472.8,63.8 473.6,63.8 474.4,63.8 475.3,64.0 476.1,64.0 476.9,64.0 477.7,64.0 478.6,63.8 479.4,63.8 480.2,63.8 481.0,63.8 481.9,63.8 482.7,63.8 483.5,63.8 484.3,63.8 485.2,64.2 486.0,64.2 486.8,64.2 487.7,64.2 488.5,64.4 489.3,64.4 490.1,64.4 491.0,64.4 491.8,64.6 492.6,64.6 493.4,64.6 494.3,64.6 495.1,65.0 495.9,65.0 496.7,65.0 497.6,65.0 498.4,65.6 499.2,65.6 500.1,65.6 500.9,65.6 501.7,65.8 502.5,65.8 503.4,65.8 504.2,65.8 505.0,66.3 505.8,66.3 506.7,66.3 507.5,66.3 508.3,66.0 509.1,66.0 510.0,66.0 510.8,66.0 511.6,65.8 512.5,65.8 513.3,65.8 514.1,65.8 514.9,65.4 515.8,65.4 516.6,65.4 517.4,65.4 518.2,66.0 519.1,66.0 519.9,66.0 520.7,66.0 521.5,66.1 522.4,66.1 523.2,66.1 524.0,66.1 524.9,66.1 525.7,66.1 526.5,66.1 527.3,66.1 528.2,66.0 529.0,66.0 529.8,66.0 530.6,66.0 531.5,66.3 532.3,66.3 533.1,66.3 533.9,66.3 534.8,66.6 535.6,66.6 536.4,66.6 537.3,66.6 538.1,66.4 538.9,66.4 539.7,66.4 540.6,66.4 541.4,66.2 542.2,66.2 543.0,66.2 543.9,66.2 544.7,66.1 545.5,66.1 546.3,66.1 547.2,66.1 548.0,66.1 548.8,66.1 549.7,66.1 550.5,66.1 551.3,65.9 552.1,65.9 553.0,65.9 553.8,65.9 554.6,66.1 555.4,66.1 556.3,66.1 557.1,66.1 557.9,66.0 558.7,66.0 559.6,66.0 560.4,66.0 561.2,66.4 562.1,66.4 562.9,66.4 563.7,66.4 564.5,66.3 565.4,66.3 566.2,66.3 567.0,66.3 567.8,66.4 568.7,66.4 569.5,66.4 570.3,66.4 571.1,66.6 572.0,66.6 572.8,66.6 573.6,66.6 574.5,66.2 575.3,66.2 576.1,66.2 576.9,66.2 577.8,66.5 578.6,66.5 579.4,66.5 580.2,66.5 581.1,66.6 581.9,66.6 582.7,66.6 583.5,66.6 584.4,66.7 585.2,66.7 586.0,66.7 586.9,66.7 587.7,66.8 588.5,66.8 589.3,66.8 590.2,66.8 591.0,66.9 591.8,66.9 592.6,66.9 593.5,66.9 594.3,66.7 595.1,66.7 595.9,66.7 596.8,66.7 597.6,66.9 598.4,66.9 599.3,66.9 600.1,66.9 600.9,66.9 601.7,66.9 602.6,66.9 603.4,66.9 604.2,66.8 605.0,66.8 605.9,66.8 606.7,66.8 607.5,66.5 608.3,66.5 609.2,66.5 610.0,66.5 610.8,66.4 611.7,66.4 612.5,66.4 613.3,66.4 614.1,66.3 615.0,66.3 615.8,66.3 616.6,66.3 617.4,66.1 618.3,66.1 619.1,66.1 619.9,66.1 620.7,65.9 621.6,65.9 622.4,65.9 623.2,65.9 624.1,65.7 624.9,65.7 625.7,65.7 626.5,65.7 627.4,65.5 628.2,65.5 629.0,65.5 629.8,65.5 630.7,65.6 631.5,65.6 632.3,65.6 633.1,65.6 634.0,65.6 634.8,65.6 635.6,65.6 636.5,65.6 637.3,65.9 638.1,65.9 638.9,65.9 639.8,65.9 640.6,65.9 641.4,65.9 642.2,65.9 643.1,65.9 643.9,66.1 644.7,66.1 645.5,66.1 646.4,66.1 647.2,66.4 648.0,66.4 648.9,66.4 649.7,66.4 650.5,66.4 651.3,66.4 652.2,66.4 653.0,66.4 653.8,66.3 654.6,66.3 655.5,66.3 656.3,66.3 657.1,66.5 657.9,66.5 658.8,66.5 659.6,66.5 660.4,66.9 661.3,66.9 662.1,66.9 662.9,66.9 663.7,66.9 664.6,66.9 665.4,66.9 666.2,66.9 667.0,67.0 667.9,67.0 668.7,67.0 669.5,67.0 670.3,67.0 671.2,67.0 672.0,67.0 672.8,67.0 673.7,66.7 674.5,66.7 675.3,66.7 676.1,66.7 677.0,66.5 677.8,66.5 678.6,66.5 679.4,66.5 680.3,66.7 681.1,66.7 681.9,66.7 682.7,66.7 683.6,67.0 684.4,67.0 685.2,67.0 686.1,67.0 686.9,66.9 687.7,66.9 688.5,66.9 689.4,66.9 690.2,67.0 691.0,67.0 691.8,67.0 692.7,67.0 693.5,67.0 694.3,67.0 695.1,67.0 696.0,67.0 696.8,67.2 697.6,67.2 698.5,67.2 699.3,67.2 700.1,67.4 700.9,67.4 701.8,67.4 702.6,67.4 703.4,67.4 704.2,67.4 705.1,67.4 705.9,67.4 706.7,67.5 707.5,67.5 708.4,67.5 709.2,67.5 710.0,67.1 710.9,67.1 711.7,67.1 712.5,67.1 713.3,67.3 714.2,67.3 715.0,67.3 715.8,67.3 716.6,67.0 717.5,67.0 718.3,67.0 719.1,67.0 719.9,66.6 720.8,66.6 721.6,66.6 722.4,66.6 723.3,66.6 724.1,66.6 724.9,66.6 725.7,66.6 726.6,66.5 727.4,66.5 728.2,66.5 729.0,66.5 729.9,66.6 730.7,66.6 731.5,66.6 732.3,66.6 733.2,66.6 734.0,66.6 734.8,66.6 735.7,66.6 736.5,66.5 737.3,66.5 738.1,66.5 739.0,66.5 739.8,66.7 740.6,66.7 741.4,66.7 742.3,66.7 743.1,67.1 743.9,67.1 744.7,67.1 745.6,67.1 746.4,67.3 747.2,67.3 748.1,67.3 748.9,67.3 749.7,67.0 750.5,67.0 751.4,67.0 752.2,67.0 753.0,66.4 753.8,66.4 754.7,66.4 755.5,66.4 756.3,66.2 757.1,66.2 758.0,66.2 758.8,66.2 759.6,66.3 760.5,66.3 761.3,66.3 762.1,66.3 762.9,66.1 763.8,66.1 764.6,66.1 765.4,66.1 766.2,66.2 767.1,66.2 767.9,66.2 768.7,66.2 769.5,66.3 770.4,66.3 771.2,66.3 772.0,66.3 772.9,66.4 773.7,66.4 774.5,66.4 775.3,66.4 776.2,66.4 777.0,66.4 777.8,66.4 778.6,66.4 779.5,66.0 780.3,66.0 781.1,66.0 781.9,66.0 782.8,65.9 783.6,65.9 784.4,65.9 785.3,65.9 786.1,65.9 786.9,65.9 787.7,65.9 788.6,65.9 789.4,66.1 790.2,66.1 791.0,66.1 791.9,66.1 792.7,66.0 793.5,66.0 794.3,66.0 795.2,66.0 796.0,66.0"/>
<text x="640" y="88" font-family="Arial" font-size="12" fill="#b45309">baz</text>
</svg>