<svg xmlns="http://www.w3.org/2000/svg" width="820" height="320" viewBox="0 0 820 320">
<rect width="100%" height="100%" fill="white"/>
<text x="52" y="30" font-family="Arial" font-size="18" font-weight="700">ekf_dropout_robust accelerometer bias estimates</text>
<line x1="52" y1="274" x2="796" y2="274" stroke="#263238"/>
<line x1="52" y1="42" x2="52" y2="274" stroke="#263238"/>
<text x="52" y="306" font-family="Arial" font-size="12">time (s)</text>
<text x="630" y="306" font-family="Arial" font-size="12">m/s^2</text>

<polyline fill="none" stroke="#0f766e" stroke-width="2.3" points="52.0,63.5 52.8,63.5 53.7,63.5 54.5,63.5 55.3,63.5 56.1,63.5 57.0,63.5 57.8,63.5 58.6,63.5 59.4,63.5 60.3,63.5 61.1,63.5 61.9,63.5 62.7,63.5 63.6,63.5 64.4,63.5 65.2,63.5 66.1,63.5 66.9,63.5 67.7,63.5 68.5,54.5 69.4,54.5 70.2,54.5 71.0,54.5 71.8,54.5 72.7,54.5 73.5,54.5 74.3,54.5 75.1,54.5 76.0,54.5 76.8,54.5 77.6,54.5 78.5,54.5 79.3,54.5 80.1,54.5 80.9,54.5 81.8,54.5 82.6,54.5 83.4,54.5 84.2,54.5 85.1,48.5 85.9,48.5 86.7,48.5 87.5,48.5 88.4,48.5 89.2,48.5 90.0,48.5 90.9,48.5 91.7,48.5 92.5,48.5 93.3,48.5 94.2,48.5 95.0,48.5 95.8,48.5 96.6,48.5 97.5,48.5 98.3,48.5 99.1,48.5 99.9,48.5 100.8,48.5 101.6,59.4 102.4,59.4 103.3,59.4 104.1,59.4 104.9,59.4 105.7,59.4 106.6,59.4 107.4,59.4 108.2,59.4 109.0,59.4 109.9,59.4 110.7,59.4 111.5,59.4 112.3,59.4 113.2,59.4 114.0,59.4 114.8,59.4 115.7,59.4 116.5,59.4 117.3,59.4 118.1,108.8 119.0,108.8 119.8,108.8 120.6,108.8 121.4,108.8 122.3,108.8 123.1,108.8 123.9,108.8 124.7,108.8 125.6,108.8 126.4,108.8 127.2,108.8 128.1,108.8 128.9,108.8 129.7,108.8 130.5,108.8 131.4,108.8 132.2,108.8 133.0,108.8 133.8,108.8 134.7,133.5 135.5,133.5 136.3,133.5 137.1,133.5 138.0,133.5 138.8,133.5 139.6,133.5 140.5,133.5 141.3,133.5 142.1,133.5 142.9,133.5 143.8,133.5 144.6,133.5 145.4,133.5 146.2,133.5 147.1,133.5 147.9,133.5 148.7,133.5 149.5,133.5 150.4,133.5 151.2,184.1 152.0,184.1 152.9,184.1 153.7,184.1 154.5,184.1 155.3,184.1 156.2,184.1 157.0,184.1 157.8,184.1 158.6,184.1 159.5,184.1 160.3,184.1 161.1,184.1 161.9,184.1 162.8,184.1 163.6,184.1 164.4,184.1 165.3,184.1 166.1,184.1 166.9,184.1 167.7,194.9 168.6,194.9 169.4,194.9 170.2,194.9 171.0,194.9 171.9,194.9 172.7,194.9 173.5,194.9 174.3,194.9 175.2,194.9 176.0,194.9 176.8,194.9 177.7,194.9 178.5,194.9 179.3,194.9 180.1,194.9 181.0,194.9 181.8,194.9 182.6,194.9 183.4,194.9 184.3,274.0 185.1,274.0 185.9,274.0 186.7,274.0 187.6,274.0 188.4,274.0 189.2,274.0 190.1,274.0 190.9,274.0 191.7,274.0 192.5,274.0 193.4,274.0 194.2,274.0 195.0,274.0 195.8,274.0 196.7,274.0 197.5,274.0 198.3,274.0 199.1,274.0 200.0,274.0 200.8,233.1 201.6,233.1 202.5,233.1 203.3,233.1 204.1,233.1 204.9,233.1 205.8,233.1 206.6,233.1 207.4,233.1 208.2,233.1 209.1,233.1 209.9,233.1 210.7,233.1 211.5,233.1 212.4,233.1 213.2,233.1 214.0,233.1 214.9,233.1 215.7,233.1 216.5,233.1 217.3,211.1 218.2,211.1 219.0,211.1 219.8,211.1 220.6,211.1 221.5,211.1 222.3,211.1 223.1,211.1 223.9,211.1 224.8,211.1 225.6,211.1 226.4,211.1 227.3,211.1 228.1,211.1 228.9,211.1 229.7,211.1 230.6,211.1 231.4,211.1 232.2,211.1 233.0,211.1 233.9,200.4 234.7,200.4 235.5,200.4 236.3,200.4 237.2,200.4 238.0,200.4 238.8,200.4 239.7,200.4 240.5,200.4 241.3,200.4 242.1,200.4 243.0,200.4 243.8,200.4 244.6,200.4 245.4,200.4 246.3,200.4 247.1,200.4 247.9,200.4 248.7,200.4 249.6,200.4 250.4,162.2 251.2,162.2 252.1,162.2 252.9,162.2 253.7,162.2 254.5,162.2 255.4,162.2 256.2,162.2 257.0,162.2 257.8,162.2 258.7,162.2 259.5,162.2 260.3,162.2 261.1,162.2 262.0,162.2 262.8,162.2 263.6,162.2 264.5,162.2 265.3,162.2 266.1,162.2 266.9,137.8 267.8,137.8 268.6,137.8 269.4,137.8 270.2,137.8 271.1,137.8 271.9,137.8 272.7,137.8 273.5,137.8 274.4,137.8 275.2,137.8 276.0,137.8 276.9,137.8 277.7,137.8 278.5,137.8 279.3,137.8 280.2,137.8 281.0,137.8 281.8,137.8 282.6,137.8 283.5,95.5 284.3,95.5 285.1,95.5 285.9,95.5 286.8,95.5 287.6,95.5 288.4,95.5 289.3,95.5 290.1,95.5 290.9,95.5 291.7,95.5 292.6,95.5 293.4,95.5 294.2,95.5 295.0,95.5 295.9,95.5 296.7,95.5 297.5,95.5 298.3,95.5 299.2,95.5 300.0,88.5 300.8,88.5 301.7,88.5 302.5,88.5 303.3,88.5 304.1,88.5 305.0,88.5 305.8,88.5 306.6,88.5 307.4,88.5 308.3,88.5 309.1,88.5 309.9,88.5 310.7,88.5 311.6,88.5 312.4,88.5 313.2,88.5 314.1,88.5 314.9,88.5 315.7,88.5 316.5,82.2 317.4,82.2 318.2,82.2 319.0,82.2 319.8,82.2 320.7,82.2 321.5,82.2 322.3,82.2 323.1,82.2 324.0,82.2 324.8,82.2 325.6,82.2 326.5,82.2 327.3,82.2 328.1,82.2 328.9,82.2 329.8,82.2 330.6,82.2 331.4,82.2 332.2,82.2 333.1,73.5 333.9,73.5 334.7,73.5 335.5,73.5 336.4,73.5 337.2,73.5 338.0,73.5 338.9,73.5 339.7,73.5 340.5,73.5 341.3,73.5 342.2,73.5 343.0,73.5 343.8,73.5 344.6,73.5 345.5,73.5 346.3,73.5 347.1,73.5 347.9,73.5 348.8,73.5 349.6,57.2 350.4,57.2 351.3,57.2 352.1,57.2 352.9,57.2 353.7,57.2 354.6,57.2 355.4,57.2 356.2,57.2 357.0,57.2 357.9,57.2 358.7,57.2 359.5,57.2 360.3,57.2 361.2,57.2 362.0,57.2 362.8,57.2 363.7,57.2 364.5,57.2 365.3,57.2 366.1,56.5 367.0,56.5 367.8,56.5 368.6,56.5 369.4,56.5 370.3,56.5 371.1,56.5 371.9,56.5 372.7,56.5 373.6,56.5 374.4,56.5 375.2,56.5 376.1,56.5 376.9,56.5 377.7,56.5 378.5,56.5 379.4,56.5 380.2,56.5 381.0,56.5 381.8,56.5 382.7,58.4 383.5,58.4 384.3,58.4 385.1,58.4 386.0,58.4 386.8,58.4 387.6,58.4 388.5,58.4 389.3,58.4 390.1,58.4 390.9,58.4 391.8,58.4 392.6,58.4 393.4,58.4 394.2,58.4 395.1,58.4 395.9,58.4 396.7,58.4 397.5,58.4 398.4,58.4 399.2,63.8 400.0,63.8 400.9,63.8 401.7,63.8 402.5,63.8 403.3,63.8 404.2,63.8 405.0,63.8 405.8,63.8 406.6,63.8 407.5,63.8 408.3,63.8 409.1,63.8 409.9,63.8 410.8,63.8 411.6,63.8 412.4,63.8 413.3,63.8 414.1,63.8 414.9,63.8 415.7,64.9 416.6,64.9 417.4,64.9 418.2,64.9 419.0,64.9 419.9,64.9 420.7,64.9 421.5,64.9 422.3,64.9 423.2,64.9 424.0,64.9 424.8,64.9 425.7,64.9 426.5,64.9 427.3,64.9 428.1,64.9 429.0,64.9 429.8,64.9 430.6,64.9 431.4,64.9 432.3,67.2 433.1,67.2 433.9,67.2 434.7,67.2 435.6,67.2 436.4,67.2 437.2,67.2 438.1,67.2 438.9,67.2 439.7,67.2 440.5,67.2 441.4,67.2 442.2,67.2 443.0,67.2 443.8,67.2 444.7,67.2 445.5,67.2 446.3,67.2 447.1,67.2 448.0,67.2 448.8,66.1 449.6,66.1 450.5,66.1 451.3,66.1 452.1,66.1 452.9,66.1 453.8,66.1 454.6,66.1 455.4,66.1 456.2,66.1 457.1,66.1 457.9,66.1 458.7,66.1 459.5,66.1 460.4,66.1 461.2,66.1 462.0,66.1 462.9,66.1 463.7,66.1 464.5,66.1 465.3,66.5 466.2,66.5 467.0,66.5 467.8,66.5 468.6,66.5 469.5,66.5 470.3,66.5 471.1,66.5 471.9,66.5 472.8,66.5 473.6,66.5 474.4,66.5 475.3,66.5 476.1,66.5 476.9,66.5 477.7,66.5 478.6,66.5 479.4,66.5 480.2,66.5 481.0,66.5 481.9,63.0 482.7,63.0 483.5,63.0 484.3,63.0 485.2,63.0 486.0,63.0 486.8,63.0 487.7,63.0 488.5,63.0 489.3,63.0 490.1,63.0 491.0,63.0 491.8,63.0 492.6,63.0 493.4,63.0 494.3,63.0 495.1,63.0 495.9,63.0 496.7,63.0 497.6,63.0 498.4,63.3 499.2,63.3 500.1,63.3 500.9,63.3 501.7,63.3 502.5,63.3 503.4,63.3 504.2,63.3 505.0,63.3 505.8,63.3 506.7,63.3 507.5,63.3 508.3,63.3 509.1,63.3 510.0,63.3 510.8,63.3 511.6,63.3 512.5,63.3 513.3,63.3 514.1,63.3 514.9,58.9 515.8,58.9 516.6,58.9 517.4,58.9 518.2,58.9 519.1,58.9 519.9,58.9 520.7,58.9 521.5,58.9 522.4,58.9 523.2,58.9 524.0,58.9 524.9,58.9 525.7,58.9 526.5,58.9 527.3,58.9 528.2,58.9 529.0,58.9 529.8,58.9 530.6,58.9 531.5,56.5 532.3,56.5 533.1,56.5 533.9,56.5 534.8,56.5 535.6,56.5 536.4,56.5 537.3,56.5 538.1,56.5 538.9,56.5 539.7,56.5 540.6,56.5 541.4,56.5 542.2,56.5 543.0,56.5 543.9,56.5 544.7,56.5 545.5,56.5 546.3,56.5 547.2,56.5 548.0,55.5 548.8,55.5 549.7,55.5 550.5,55.5 551.3,55.5 552.1,55.5 553.0,55.5 553.8,55.5 554.6,55.5 555.4,55.5 556.3,55.5 557.1,55.5 557.9,55.5 558.7,55.5 559.6,55.5 560.4,55.5 561.2,55.5 562.1,55.5 562.9,55.5 563.7,55.5 564.5,54.8 565.4,54.8 566.2,54.8 567.0,54.8 567.8,54.8 568.7,54.8 569.5,54.8 570.3,54.8 571.1,54.8 572.0,54.8 572.8,54.8 573.6,54.8 574.5,54.8 575.3,54.8 576.1,54.8 576.9,54.8 577.8,54.8 578.6,54.8 579.4,54.8 580.2,54.8 581.1,55.4 581.9,55.4 582.7,55.4 583.5,55.4 584.4,55.4 585.2,55.4 586.0,55.4 586.9,55.4 587.7,55.4 588.5,55.4 589.3,55.4 590.2,55.4 591.0,55.4 591.8,55.4 592.6,55.4 593.5,55.4 594.3,55.4 595.1,55.4 595.9,55.4 596.8,55.4 597.6,55.4 598.4,55.4 599.3,55.4 600.1,55.4 600.9,55.4 601.7,55.4 602.6,55.4 603.4,55.4 604.2,55.4 605.0,55.4 605.9,55.4 606.7,55.4 607.5,55.4 608.3,55.4 609.2,55.4 610.0,55.4 610.8,55.4 611.7,55.4 612.5,55.4 613.3,55.4 614.1,55.2 615.0,55.2 615.8,55.2 616.6,55.2 617.4,55.2 618.3,55.2 619.1,55.2 619.9,55.2 620.7,55.2 621.6,55.2 622.4,55.2 623.2,55.2 624.1,55.2 624.9,55.2 625.7,55.2 626.5,55.2 627.4,55.2 628.2,55.2 629.0,55.2 629.8,55.2 630.7,56.0 631.5,56.0 632.3,56.0 633.1,56.0 634.0,56.0 634.8,56.0 635.6,56.0 636.5,56.0 637.3,56.0 638.1,56.0 638.9,56.0 639.8,56.0 640.6,56.0 641.4,56.0 642.2,56.0 643.1,56.0 643.9,56.0 644.7,56.0 645.5,56.0 646.4,56.0 647.2,55.4 648.0,55.4 648.9,55.4 649.7,55.4 650.5,55.4 651.3,55.4 652.2,55.4 653.0,55.4 653.8,55.4 654.6,55.4 655.5,55.4 656.3,55.4 657.1,55.4 657.9,55.4 658.8,55.4 659.6,55.4 660.4,55.4 661.3,55.4 662.1,55.4 662.9,55.4 663.7,56.0 664.6,56.0 665.4,56.0 666.2,56.0 667.0,56.0 667.9,56.0 668.7,56.0 669.5,56.0 670.3,56.0 671.2,56.0 672.0,56.0 672.8,56.0 673.7,56.0 674.5,56.0 675.3,56.0 676.1,56.0 677.0,56.0 677.8,56.0 678.6,56.0 679.4,56.0 680.3,52.8 681.1,52.8 681.9,52.8 682.7,52.8 683.6,52.8 684.4,52.8 685.2,52.8 686.1,52.8 686.9,52.8 687.7,52.8 688.5,52.8 689.4,52.8 690.2,52.8 691.0,52.8 691.8,52.8 692.7,52.8 693.5,52.8 694.3,52.8 695.1,52.8 696.0,52.8 696.8,53.4 697.6,53.4 698.5,53.4 699.3,53.4 700.1,53.4 700.9,53.4 701.8,53.4 702.6,53.4 703.4,53.4 704.2,53.4 705.1,53.4 705.9,53.4 706.7,53.4 707.5,53.4 708.4,53.4 709.2,53.4 710.0,53.4 710.9,53.4 711.7,53.4 712.5,53.4 713.3,53.2 714.2,53.2 715.0,53.2 715.8,53.2 716.6,53.2 717.5,53.2 718.3,53.2 719.1,53.2 719.9,53.2 720.8,53.2 721.6,53.2 722.4,53.2 723.3,53.2 724.1,53.2 724.9,53.2 725.7,53.2 726.6,53.2 727.4,53.2 728.2,53.2 729.0,53.2 729.9,53.5 730.7,53.5 731.5,53.5 732.3,53.5 733.2,53.5 734.0,53.5 734.8,53.5 735.7,53.5 736.5,53.5 737.3,53.5 738.1,53.5 739.0,53.5 739.8,53.5 740.6,53.5 741.4,53.5 742.3,53.5 743.1,53.5 743.9,53.5 744.7,53.5 745.6,53.5 746.4,53.6 747.2,53.6 748.1,53.6 748.9,53.6 749.7,53.6 750.5,53.6 751.4,53.6 752.2,53.6 753.0,53.6 753.8,53.6 754.7,53.6 755.5,53.6 756.3,53.6 757.1,53.6 758.0,53.6 758.8,53.6 759.6,53.6 760.5,53.6 761.3,53.6 762.1,53.6 762.9,55.5 763.8,55.5 764.6,55.5 765.4,55.5 766.2,55.5 767.1,55.5 767.9,55.5 768.7,55.5 769.5,55.5 770.4,55.5 771.2,55.5 772.0,55.5 772.9,55.5 773.7,55.5 774.5,55.5 775.3,55.5 776.2,55.5 777.0,55.5 777.8,55.5 778.6,55.5 779.5,56.1 780.3,56.1 781.1,56.1 781.9,56.1 782.8,56.1 783.6,56.1 784.4,56.1 785.3,56.1 786.1,56.1 786.9,56.1 787.7,56.1 788.6,56.1 789.4,56.1 790.2,56.1 791.0,56.1 791.9,56.1 792.7,56.1 793.5,56.1 794.3,56.1 795.2,56.1 796.0,53.8"/>
<text x="640" y="56" font-family="Arial" font-size="12" fill="#0f766e">bax</text>
<polyline fill="none" stroke="#2563eb" stroke-width="2.3" points="52.0,63.5 52.8,63.5 53.7,63.5 54.5,63.5 55.3,63.5 56.1,63.5 57.0,63.5 57.8,63.5 58.6,63.5 59.4,63.5 60.3,63.5 61.1,63.5 61.9,63.5 62.7,63.5 63.6,63.5 64.4,63.5 65.2,63.5 66.1,63.5 66.9,63.5 67.7,63.5 68.5,53.3 69.4,53.3 70.2,53.3 71.0,53.3 71.8,53.3 72.7,53.3 73.5,53.3 74.3,53.3 75.1,53.3 76.0,53.3 76.8,53.3 77.6,53.3 78.5,53.3 79.3,53.3 80.1,53.3 80.9,53.3 81.8,53.3 82.6,53.3 83.4,53.3 84.2,53.3 85.1,71.7 85.9,71.7 86.7,71.7 87.5,71.7 88.4,71.7 89.2,71.7 90.0,71.7 90.9,71.7 91.7,71.7 92.5,71.7 93.3,71.7 94.2,71.7 95.0,71.7 95.8,71.7 96.6,71.7 97.5,71.7 98.3,71.7 99.1,71.7 99.9,71.7 100.8,71.7 101.6,80.9 102.4,80.9 103.3,80.9 104.1,80.9 104.9,80.9 105.7,80.9 106.6,80.9 107.4,80.9 108.2,80.9 109.0,80.9 109.9,80.9 110.7,80.9 111.5,80.9 112.3,80.9 113.2,80.9 114.0,80.9 114.8,80.9 115.7,80.9 116.5,80.9 117.3,80.9 118.1,89.0 119.0,89.0 119.8,89.0 120.6,89.0 121.4,89.0 122.3,89.0 123.1,89.0 123.9,89.0 124.7,89.0 125.6,89.0 126.4,89.0 127.2,89.0 128.1,89.0 128.9,89.0 129.7,89.0 130.5,89.0 131.4,89.0 132.2,89.0 133.0,89.0 133.8,89.0 134.7,158.2 135.5,158.2 136.3,158.2 137.1,158.2 138.0,158.2 138.8,158.2 139.6,158.2 140.5,158.2 141.3,158.2 142.1,158.2 142.9,158.2 143.8,158.2 144.6,158.2 145.4,158.2 146.2,158.2 147.1,158.2 147.9,158.2 148.7,158.2 149.5,158.2 150.4,158.2 151.2,125.8 152.0,125.8 152.9,125.8 153.7,125.8 154.5,125.8 155.3,125.8 156.2,125.8 157.0,125.8 157.8,125.8 158.6,125.8 159.5,125.8 160.3,125.8 161.1,125.8 161.9,125.8 162.8,125.8 163.6,125.8 164.4,125.8 165.3,125.8 166.1,125.8 166.9,125.8 167.7,118.7 168.6,118.7 169.4,118.7 170.2,118.7 171.0,118.7 171.9,118.7 172.7,118.7 173.5,118.7 174.3,118.7 175.2,118.7 176.0,118.7 176.8,118.7 177.7,118.7 178.5,118.7 179.3,118.7 180.1,118.7 181.0,118.7 181.8,118.7 182.6,118.7 183.4,118.7 184.3,135.6 185.1,135.6 185.9,135.6 186.7,135.6 187.6,135.6 188.4,135.6 189.2,135.6 190.1,135.6 190.9,135.6 191.7,135.6 192.5,135.6 193.4,135.6 194.2,135.6 195.0,135.6 195.8,135.6 196.7,135.6 197.5,135.6 198.3,135.6 199.1,135.6 200.0,135.6 200.8,159.6 201.6,159.6 202.5,159.6 203.3,159.6 204.1,159.6 204.9,159.6 205.8,159.6 206.6,159.6 207.4,159.6 208.2,159.6 209.1,159.6 209.9,159.6 210.7,159.6 211.5,159.6 212.4,159.6 213.2,159.6 214.0,159.6 214.9,159.6 215.7,159.6 216.5,159.6 217.3,160.7 218.2,160.7 219.0,160.7 219.8,160.7 220.6,160.7 221.5,160.7 222.3,160.7 223.1,160.7 223.9,160.7 224.8,160.7 225.6,160.7 226.4,160.7 227.3,160.7 228.1,160.7 228.9,160.7 229.7,160.7 230.6,160.7 231.4,160.7 232.2,160.7 233.0,160.7 233.9,152.9 234.7,152.9 235.5,152.9 236.3,152.9 237.2,152.9 238.0,152.9 238.8,152.9 239.7,152.9 240.5,152.9 241.3,152.9 242.1,152.9 243.0,152.9 243.8,152.9 244.6,152.9 245.4,152.9 246.3,152.9 247.1,152.9 247.9,152.9 248.7,152.9 249.6,152.9 250.4,142.8 251.2,142.8 252.1,142.8 252.9,142.8 253.7,142.8 254.5,142.8 255.4,142.8 256.2,142.8 257.0,142.8 257.8,142.8 258.7,142.8 259.5,142.8 260.3,142.8 261.1,142.8 262.0,142.8 262.8,142.8 263.6,142.8 264.5,142.8 265.3,142.8 266.1,142.8 266.9,134.2 267.8,134.2 268.6,134.2 269.4,134.2 270.2,134.2 271.1,134.2 271.9,134.2 272.7,134.2 273.5,134.2 274.4,134.2 275.2,134.2 276.0,134.2 276.9,134.2 277.7,134.2 278.5,134.2 279.3,134.2 280.2,134.2 281.0,134.2 281.8,134.2 282.6,134.2 283.5,104.6 284.3,104.6 285.1,104.6 285.9,104.6 286.8,104.6 287.6,104.6 288.4,104.6 289.3,104.6 290.1,104.6 290.9,104.6 291.7,104.6 292.6,104.6 293.4,104.6 294.2,104.6 295.0,104.6 295.9,104.6 296.7,104.6 297.5,104.6 298.3,104.6 299.2,104.6 300.0,98.6 300.8,98.6 301.7,98.6 302.5,98.6 303.3,98.6 304.1,98.6 305.0,98.6 305.8,98.6 306.6,98.6 307.4,98.6 308.3,98.6 309.1,98.6 309.9,98.6 310.7,98.6 311.6,98.6 312.4,98.6 313.2,98.6 314.1,98.6 314.9,98.6 315.7,98.6 316.5,96.8 317.4,96.8 318.2,96.8 319.0,96.8 319.8,96.8 320.7,96.8 321.5,96.8 322.3,96.8 323.1,96.8 324.0,96.8 324.8,96.8 325.6,96.8 326.5,96.8 327.3,96.8 328.1,96.8 328.9,96.8 329.8,96.8 330.6,96.8 331.4,96.8 332.2,96.8 333.1,84.1 333.9,84.1 334.7,84.1 335.5,84.1 336.4,84.1 337.2,84.1 338.0,84.1 338.9,84.1 339.7,84.1 340.5,84.1 341.3,84.1 342.2,84.1 343.0,84.1 343.8,84.1 344.6,84.1 345.5,84.1 346.3,84.1 347.1,84.1 347.9,84.1 348.8,84.1 349.6,87.3 350.4,87.3 351.3,87.3 352.1,87.3 352.9,87.3 353.7,87.3 354.6,87.3 355.4,87.3 356.2,87.3 357.0,87.3 357.9,87.3 358.7,87.3 359.5,87.3 360.3,87.3 361.2,87.3 362.0,87.3 362.8,87.3 363.7,87.3 364.5,87.3 365.3,87.3 366.1,81.3 367.0,81.3 367.8,81.3 368.6,81.3 369.4,81.3 370.3,81.3 371.1,81.3 371.9,81.3 372.7,81.3 373.6,81.3 374.4,81.3 375.2,81.3 376.1,81.3 376.9,81.3 377.7,81.3 378.5,81.3 379.4,81.3 380.2,81.3 381.0,81.3 381.8,81.3 382.7,79.9 383.5,79.9 384.3,79.9 385.1,79.9 386.0,79.9 386.8,79.9 387.6,79.9 388.5,79.9 389.3,79.9 390.1,79.9 390.9,79.9 391.8,79.9 392.6,79.9 393.4,79.9 394.2,79.9 395.1,79.9 395.9,79.9 396.7,79.9 397.5,79.9 398.4,79.9 399.2,79.9 400.0,79.9 400.9,79.9 401.7,79.9 402.5,79.9 403.3,79.9 404.2,79.9 405.0,79.9 405.8,79.9 406.6,79.9 407.5,79.9 408.3,79.9 409.1,79.9 409.9,79.9 410.8,79.9 411.6,79.9 412.4,79.9 413.3,79.9 414.1,79.9 414.9,79.9 415.7,81.3 416.6,81.3 417.4,81.3 418.2,81.3 419.0,81.3 419.9,81.3 420.7,81.3 421.5,81.3 422.3,81.3 423.2,81.3 424.0,81.3 424.8,81.3 425.7,81.3 426.5,81.3 427.3,81.3 428.1,81.3 429.0,81.3 429.8,81.3 430.6,81.3 431.4,81.3 432.3,80.7 433.1,80.7 433.9,80.7 434.7,80.7 435.6,80.7 436.4,80.7 437.2,80.7 438.1,80.7 438.9,80.7 439.7,80.7 440.5,80.7 441.4,80.7 442.2,80.7 443.0,80.7 443.8,80.7 444.7,80.7 445.5,80.7 446.3,80.7 447.1,80.7 448.0,80.7 448.8,78.1 449.6,78.1 450.5,78.1 451.3,78.1 452.1,78.1 452.9,78.1 453.8,78.1 454.6,78.1 455.4,78.1 456.2,78.1 457.1,78.1 457.9,78.1 458.7,78.1 459.5,78.1 460.4,78.1 461.2,78.1 462.0,78.1 462.9,78.1 463.7,78.1 464.5,78.1 465.3,83.9 466.2,83.9 467.0,83.9 467.8,83.9 468.6,83.9 469.5,83.9 470.3,83.9 471.1,83.9 471.9,83.9 472.8,83.9 473.6,83.9 474.4,83.9 475.3,83.9 476.1,83.9 476.9,83.9 477.7,83.9 478.6,83.9 479.4,83.9 480.2,83.9 481.0,83.9 481.9,81.6 482.7,81.6 483.5,81.6 484.3,81.6 485.2,81.6 486.0,81.6 486.8,81.6 487.7,81.6 488.5,81.6 489.3,81.6 490.1,81.6 491.0,81.6 491.8,81.6 492.6,81.6 493.4,81.6 494.3,81.6 495.1,81.6 495.9,81.6 496.7,81.6 497.6,81.6 498.4,82.2 499.2,82.2 500.1,82.2 500.9,82.2 501.7,82.2 502.5,82.2 503.4,82.2 504.2,82.2 505.0,82.2 505.8,82.2 506.7,82.2 507.5,82.2 508.3,82.2 509.1,82.2 510.0,82.2 510.8,82.2 511.6,82.2 512.5,82.2 513.3,82.2 514.1,82.2 514.9,80.0 515.8,80.0 516.6,80.0 517.4,80.0 518.2,80.0 519.1,80.0 519.9,80.0 520.7,80.0 521.5,80.0 522.4,80.0 523.2,80.0 524.0,80.0 524.9,80.0 525.7,80.0 526.5,80.0 527.3,80.0 528.2,80.0 529.0,80.0 529.8,80.0 530.6,80.0 531.5,80.5 532.3,80.5 533.1,80.5 533.9,80.5 534.8,80.5 535.6,80.5 536.4,80.5 537.3,80.5 538.1,80.5 538.9,80.5 539.7,80.5 540.6,80.5 541.4,80.5 542.2,80.5 543.0,80.5 543.9,80.5 544.7,80.5 545.5,80.5 546.3,80.5 547.2,80.5 548.0,80.9 548.8,80.9 549.7,80.9 550.5,80.9 551.3,80.9 552.1,80.9 553.0,80.9 553.8,80.9 554.6,80.9 555.4,80.9 556.3,80.9 557.1,80.9 557.9,80.9 558.7,80.9 559.6,80.9 560.4,80.9 561.2,80.9 562.1,80.9 562.9,80.9 563.7,80.9 564.5,83.6 565.4,83.6 566.2,83.6 567.0,83.6 567.8,83.6 568.7,83.6 569.5,83.6 570.3,83.6 571.1,83.6 572.0,83.6 572.8,83.6 573.6,83.6 574.5,83.6 575.3,83.6 576.1,83.6 576.9,83.6 577.8,83.6 578.6,83.6 579.4,83.6 580.2,83.6 581.1,80.9 581.9,80.9 582.7,80.9 583.5,80.9 584.4,80.9 585.2,80.9 586.0,80.9 586.9,80.9 587.7,80.9 588.5,80.9 589.3,80.9 590.2,80.9 591.0,80.9 591.8,80.9 592.6,80.9 593.5,80.9 594.3,80.9 595.1,80.9 595.9,80.9 596.8,80.9 597.6,79.1 598.4,79.1 599.3,79.1 600.1,79.1 600.9,79.1 601.7,79.1 602.6,79.1 603.4,79.1 604.2,79.1 605.0,79.1 605.9,79.1 606.7,79.1 607.5,79.1 608.3,79.1 609.2,79.1 610.0,79.1 610.8,79.1 611.7,79.1 612.5,79.1 613.3,79.1 614.1,77.9 615.0,77.9 615.8,77.9 616.6,77.9 617.4,77.9 618.3,77.9 619.1,77.9 619.9,77.9 620.7,77.9 621.6,77.9 622.4,77.9 623.2,77.9 624.1,77.9 624.9,77.9 625.7,77.9 626.5,77.9 627.4,77.9 628.2,77.9 629.0,77.9 629.8,77.9 630.7,76.3 631.5,76.3 632.3,76.3 633.1,76.3 634.0,76.3 634.8,76.3 635.6,76.3 636.5,76.3 637.3,76.3 638.1,76.3 638.9,76.3 639.8,76.3 640.6,76.3 641.4,76.3 642.2,76.3 643.1,76.3 643.9,76.3 644.7,76.3 645.5,76.3 646.4,76.3 647.2,76.4 648.0,76.4 648.9,76.4 649.7,76.4 650.5,76.4 651.3,76.4 652.2,76.4 653.0,76.4 653.8,76.4 654.6,76.4 655.5,76.4 656.3,76.4 657.1,76.4 657.9,76.4 658.8,76.4 659.6,76.4 660.4,76.4 661.3,76.4 662.1,76.4 662.9,76.4 663.7,73.7 664.6,73.7 665.4,73.7 666.2,73.7 667.0,73.7 667.9,73.7 668.7,73.7 669.5,73.7 670.3,73.7 671.2,73.7 672.0,73.7 672.8,73.7 673.7,73.7 674.5,73.7 675.3,73.7 676.1,73.7 677.0,73.7 677.8,73.7 678.6,73.7 679.4,73.7 680.3,75.2 681.1,75.2 681.9,75.2 682.7,75.2 683.6,75.2 684.4,75.2 685.2,75.2 686.1,75.2 686.9,75.2 687.7,75.2 688.5,75.2 689.4,75.2 690.2,75.2 691.0,75.2 691.8,75.2 692.7,75.2 693.5,75.2 694.3,75.2 695.1,75.2 696.0,75.2 696.8,75.9 697.6,75.9 698.5,75.9 699.3,75.9 700.1,75.9 700.9,75.9 701.8,75.9 702.6,75.9 703.4,75.9 704.2,75.9 705.1,75.9 705.9,75.9 706.7,75.9 707.5,75.9 708.4,75.9 709.2,75.9 710.0,75.9 710.9,75.9 711.7,75.9 712.5,75.9 713.3,76.6 714.2,76.6 715.0,76.6 715.8,76.6 716.6,76.6 717.5,76.6 718.3,76.6 719.1,76.6 719.9,76.6 720.8,76.6 721.6,76.6 722.4,76.6 723.3,76.6 724.1,76.6 724.9,76.6 725.7,76.6 726.6,76.6 727.4,76.6 728.2,76.6 729.0,76.6 729.9,75.8 730.7,75.8 731.5,75.8 732.3,75.8 733.2,75.8 734.0,75.8 734.8,75.8 735.7,75.8 736.5,75.8 737.3,75.8 738.1,75.8 739.0,75.8 739.8,75.8 740.6,75.8 741.4,75.8 742.3,75.8 743.1,75.8 743.9,75.8 744.7,75.8 745.6,75.8 746.4,75.9 747.2,75.9 748.1,75.9 748.9,75.9 749.7,75.9 750.5,75.9 751.4,75.9 752.2,75.9 753.0,75.9 753.8,75.9 754.7,75.9 755.5,75.9 756.3,75.9 757.1,75.9 758.0,75.9 758.8,75.9 759.6,75.9 760.5,75.9 761.3,75.9 762.1,75.9 762.9,73.4 763.8,73.4 764.6,73.4 765.4,73.4 766.2,73.4 767.1,73.4 767.9,73.4 768.7,73.4 769.5,73.4 770.4,73.4 771.2,73.4 772.0,73.4 772.9,73.4 773.7,73.4 774.5,73.4 775.3,73.4 776.2,73.4 777.0,73.4 777.8,73.4 778.6,73.4 779.5,74.6 780.3,74.6 781.1,74.6 781.9,74.6 782.8,74.6 783.6,74.6 784.4,74.6 785.3,74.6 786.1,74.6 786.9,74.6 787.7,74.6 788.6,74.6 789.4,74.6 790.2,74.6 791.0,74.6 791.9,74.6 792.7,74.6 793.5,74.6 794.3,74.6 795.2,74.6 796.0,75.1"/>
<text x="640" y="72" font-family="Arial" font-size="12" fill="#2563eb">bay</text>
<polyline fill="none" stroke="#b45309" stroke-width="2.3" points="52.0,63.5 52.8,63.5 53.7,63.5 54.5,63.5 55.3,63.6 56.1,63.6 57.0,63.6 57.8,63.6 58.6,63.6 59.4,63.6 60.3,63.6 61.1,63.6 61.9,62.9 62.7,62.9 63.6,62.9 64.4,62.9 65.2,59.7 66.1,59.7 66.9,59.7 67.7,59.7 68.5,61.6 69.4,61.6 70.2,61.6 71.0,61.6 71.8,63.9 72.7,63.9 73.5,63.9 74.3,63.9 75.1,65.7 76.0,65.7 76.8,65.7 77.6,65.7 78.5,63.2 79.3,63.2 80.1,63.2 80.9,63.2 81.8,71.4 82.6,71.4 83.4,71.4 84.2,71.4 85.1,85.6 85.9,85.6 86.7,85.6 87.5,85.6 88.4,62.1 89.2,62.1 90.0,62.1 90.9,62.1 91.7,58.4 92.5,58.4 93.3,58.4 94.2,58.4 95.0,52.3 95.8,52.3 96.6,52.3 97.5,52.3 98.3,51.5 99.1,51.5 99.9,51.5 100.8,51.5 101.6,42.0 102.4,42.0 103.3,42.0 104.1,42.0 104.9,49.9 105.7,49.9 106.6,49.9 107.4,49.9 108.2,66.6 109.0,66.6 109.9,66.6 110.7,66.6 111.5,93.1 112.3,93.1 113.2,93.1 114.0,93.1 114.8,71.1 115.7,71.1 116.5,71.1 117.3,71.1 118.1,78.6 119.0,78.6 119.8,78.6 120.6,78.6 121.4,69.5 122.3,69.5 123.1,69.5 123.9,69.5 124.7,76.8 125.6,76.8 126.4,76.8 127.2,76.8 128.1,96.1 128.9,96.1 129.7,96.1 130.5,96.1 131.4,102.5 132.2,102.5 133.0,102.5 133.8,102.5 134.7,92.1 135.5,92.1 136.3,92.1 137.1,92.1 138.0,70.3 138.8,70.3 139.6,70.3 140.5,70.3 141.3,72.0 142.1,72.0 142.9,72.0 143.8,72.0 144.6,73.7 145.4,73.7 146.2,73.7 147.1,73.7 147.9,73.6 148.7,73.6 149.5,73.6 150.4,73.6 151.2,79.0 152.0,79.0 152.9,79.0 153.7,79.0 154.5,89.1 155.3,89.1 156.2,89.1 157.0,89.1 157.8,78.0 158.6,78.0 159.5,78.0 160.3,78.0 161.1,80.6 161.9,80.6 162.8,80.6 163.6,80.6 164.4,74.5 165.3,74.5 166.1,74.5 166.9,74.5 167.7,79.3 168.6,79.3 169.4,79.3 170.2,79.3 171.0,69.3 171.9,69.3 172.7,69.3 173.5,69.3 174.3,69.5 175.2,69.5 176.0,69.5 176.8,69.5 177.7,68.7 178.5,68.7 179.3,68.7 180.1,68.7 181.0,70.2 181.8,70.2 182.6,70.2 183.4,70.2 184.3,67.2 185.1,67.2 185.9,67.2 186.7,67.2 187.6,68.6 188.4,68.6 189.2,68.6 190.1,68.6 190.9,73.8 191.7,73.8 192.5,73.8 193.4,73.8 194.2,68.8 195.0,68.8 195.8,68.8 196.7,68.8 197.5,70.2 198.3,70.2 199.1,70.2 200.0,70.2 200.8,68.4 201.6,68.4 202.5,68.4 203.3,68.4 204.1,69.5 204.9,69.5 205.8,69.5 206.6,69.5 207.4,64.4 208.2,64.4 209.1,64.4 209.9,64.4 210.7,61.9 211.5,61.9 212.4,61.9 213.2,61.9 214.0,62.0 214.9,62.0 215.7,62.0 216.5,62.0 217.3,64.3 218.2,64.3 219.0,64.3 219.8,64.3 220.6,64.4 221.5,64.4 222.3,64.4 223.1,64.4 223.9,59.4 224.8,59.4 225.6,59.4 226.4,59.4 227.3,58.6 228.1,58.6 228.9,58.6 229.7,58.6 230.6,62.7 231.4,62.7 232.2,62.7 233.0,62.7 233.9,65.3 234.7,65.3 235.5,65.3 236.3,65.3 237.2,65.6 238.0,65.6 238.8,65.6 239.7,65.6 240.5,64.5 241.3,64.5 242.1,64.5 243.0,64.5 243.8,61.3 244.6,61.3 245.4,61.3 246.3,61.3 247.1,61.9 247.9,61.9 248.7,61.9 249.6,61.9 250.4,59.4 251.2,59.4 252.1,59.4 252.9,59.4 253.7,62.9 254.5,62.9 255.4,62.9 256.2,62.9 257.0,61.5 257.8,61.5 258.7,61.5 259.5,61.5 260.3,60.9 261.1,60.9 262.0,60.9 262.8,60.9 263.6,61.3 264.5,61.3 265.3,61.3 266.1,61.3 266.9,60.8 267.8,60.8 268.6,60.8 269.4,60.8 270.2,60.6 271.1,60.6 271.9,60.6 272.7,60.6 273.5,59.6 274.4,59.6 275.2,59.6 276.0,59.6 276.9,61.0 277.7,61.0 278.5,61.0 279.3,61.0 280.2,62.2 281.0,62.2 281.8,62.2 282.6,62.2 283.5,62.7 284.3,62.7 285.1,62.7 285.9,62.7 286.8,62.7 287.6,62.7 288.4,62.7 289.3,62.7 290.1,64.1 290.9,64.1 291.7,64.1 292.6,64.1 293.4,61.7 294.2,61.7 295.0,61.7 295.9,61.7 296.7,63.7 297.5,63.7 298.3,63.7 299.2,63.7 300.0,61.4 300.8,61.4 301.7,61.4 302.5,61.4 303.3,63.1 304.1,63.1 305.0,63.1 305.8,63.1 306.6,62.2 307.4,62.2 308.3,62.2 309.1,62.2 309.9,61.9 310.7,61.9 311.6,61.9 312.4,61.9 313.2,60.9 314.1,60.9 314.9,60.9 315.7,60.9 316.5,58.6 317.4,58.6 318.2,58.6 319.0,58.6 319.8,55.6 320.7,55.6 321.5,55.6 322.3,55.6 323.1,53.1 324.0,53.1 324.8,53.1 325.6,53.1 326.5,54.5 327.3,54.5 328.1,54.5 328.9,54.5 329.8,55.1 330.6,55.1 331.4,55.1 332.2,55.1 333.1,54.0 333.9,54.0 334.7,54.0 335.5,54.0 336.4,53.2 337.2,53.2 338.0,53.2 338.9,53.2 339.7,53.4 340.5,53.4 341.3,53.4 342.2,53.4 343.0,53.7 343.8,53.7 344.6,53.7 345.5,53.7 346.3,53.4 347.1,53.4 347.9,53.4 348.8,53.4 349.6,56.0 350.4,56.0 351.3,56.0 352.1,56.0 352.9,58.0 353.7,58.0 354.6,58.0 355.4,58.0 356.2,56.6 357.0,56.6 357.9,56.6 358.7,56.6 359.5,58.1 360.3,58.1 361.2,58.1 362.0,58.1 362.8,59.2 363.7,59.2 364.5,59.2 365.3,59.2 366.1,57.5 367.0,57.5 367.8,57.5 368.6,57.5 369.4,58.4 370.3,58.4 371.1,58.4 371.9,58.4 372.7,58.4 373.6,58.4 374.4,58.4 375.2,58.4 376.1,58.3 376.9,58.3 377.7,58.3 378.5,58.3 379.4,58.4 380.2,58.4 381.0,58.4 381.8,58.4 382.7,58.7 383.5,58.7 384.3,58.7 385.1,58.7 386.0,59.4 386.8,59.4 387.6,59.4 388.5,59.4 389.3,58.3 390.1,58.3 390.9,58.3 391.8,58.3 392.6,58.0 393.4,58.0 394.2,58.0 395.1,58.0 395.9,57.4 396.7,57.4 397.5,57.4 398.4,57.4 399.2,58.4 400.0,58.4 400.9,58.4 401.7,58.4 402.5,58.0 403.3,58.0 404.2,58.0 405.0,58.0 405.8,57.0 406.6,57.0 407.5,57.0 408.3,57.0 409.1,56.9 409.9,56.9 410.8,56.9 411.6,56.9 412.4,56.0 413.3,56.0 414.1,56.0 414.9,56.0 415.7,56.4 416.6,56.4 417.4,56.4 418.2,56.4 419.0,56.1 419.9,56.1 420.7,56.1 421.5,56.1 422.3,56.0 423.2,56.0 424.0,56.0 424.8,56.0 425.7,56.7 426.5,56.7 427.3,56.7 428.1,56.7 429.0,56.9 429.8,56.9 430.6,56.9 431.4,56.9 432.3,55.9 433.1,55.9 433.9,55.9 434.7,55.9 435.6,55.8 436.4,55.8 437.2,55.8 438.1,55.8 438.9,55.3 439.7,55.3 440.5,55.3 441.4,55.3 442.2,55.0 443.0,55.0 443.8,55.0 444.7,55.0 445.5,56.0 446.3,56.0 447.1,56.0 448.0,56.0 448.8,55.1 449.6,55.1 450.5,55.1 451.3,55.1 452.1,55.3 452.9,55.3 453.8,55.3 454.6,55.3 455.4,56.1 456.2,56.1 457.1,56.1 457.9,56.1 458.7,55.1 459.5,55.1 460.4,55.1 461.2,55.1 462.0,55.9 462.9,55.9 463.7,55.9 464.5,55.9 465.3,55.4 466.2,55.4 467.0,55.4 467.8,55.4 468.6,56.3 469.5,56.3 470.3,56.3 471.1,56.3 471.9,55.2 472.8,55.2 473.6,55.2 474.4,55.2 475.3,55.5 476.1,55.5 476.9,55.5 477.7,55.5 478.6,55.2 479.4,55.2 480.2,55.2 481.0,55.2 481.9,55.3 482.7,55.3 483.5,55.3 484.3,55.3 485.2,56.2 486.0,56.2 486.8,56.2 487.7,56.2 488.5,56.8 489.3,56.8 490.1,56.8 491.0,56.8 491.8,57.1 492.6,57.1 493.4,57.1 494.3,57.1 495.1,58.1 495.9,58.1 496.7,58.1 497.6,58.1 498.4,59.5 499.2,59.5 500.1,59.5 500.9,59.5 501.7,59.9 502.5,59.9 503.4,59.9 504.2,59.9 505.0,60.8 505.8,60.8 506.7,60.8 507.5,60.8 508.3,60.0 509.1,60.0 510.0,60.0 510.8,60.0 511.6,59.5 512.5,59.5 513.3,59.5 514.1,59.5 514.9,58.4 515.8,58.4 516.6,58.4 517.4,58.4 518.2,59.7 519.1,59.7 519.9,59.7 520.7,59.7 521.5,59.9 522.4,59.9 523.2,59.9 524.0,59.9 524.9,59.8 525.7,59.8 526.5,59.8 527.3,59.8 528.2,59.4 529.0,59.4 529.8,59.4 530.6,59.4 531.5,60.0 532.3,60.0 533.1,60.0 533.9,60.0 534.8,60.8 535.6,60.8 536.4,60.8 537.3,60.8 538.1,60.1 538.9,60.1 539.7,60.1 540.6,60.1 541.4,59.5 542.2,59.5 543.0,59.5 543.9,59.5 544.7,59.1 545.5,59.1 546.3,59.1 547.2,59.1 548.0,59.0 548.8,59.0 549.7,59.0 550.5,59.0 551.3,58.4 552.1,58.4 553.0,58.4 553.8,58.4 554.6,59.0 555.4,59.0 556.3,59.0 557.1,59.0 557.9,58.8 558.7,58.8 559.6,58.8 560.4,58.8 561.2,59.8 562.1,59.8 562.9,59.8 563.7,59.8 564.5,59.2 565.4,59.2 566.2,59.2 567.0,59.2 567.8,59.6 568.7,59.6 569.5,59.6 570.3,59.6 571.1,59.9 572.0,59.9 572.8,59.9 573.6,59.9 574.5,58.9 575.3,58.9 576.1,58.9 576.9,58.9 577.8,59.5 578.6,59.5 579.4,59.5 580.2,59.5 581.1,59.7 581.9,59.7 582.7,59.7 583.5,59.7 584.4,59.8 585.2,59.8 586.0,59.8 586.9,59.8 587.7,60.1 588.5,60.1 589.3,60.1 590.2,60.1 591.0,60.3 591.8,60.3 592.6,60.3 593.5,60.3 594.3,59.9 595.1,59.9 595.9,59.9 596.8,59.9 597.6,60.2 598.4,60.2 599.3,60.2 600.1,60.2 600.9,60.0 601.7,60.0 602.6,60.0 603.4,60.0 604.2,59.8 605.0,59.8 605.9,59.8 606.7,59.8 607.5,59.0 608.3,59.0 609.2,59.0 610.0,59.0 610.8,58.7 611.7,58.7 612.5,58.7 613.3,58.7 614.1,58.4 615.0,58.4 615.8,58.4 616.6,58.4 617.4,58.1 618.3,58.1 619.1,58.1 619.9,58.1 620.7,57.5 621.6,57.5 622.4,57.5 623.2,57.5 624.1,56.8 624.9,56.8 625.7,56.8 626.5,56.8 627.4,56.5 628.2,56.5 629.0,56.5 629.8,56.5 630.7,56.9 631.5,56.9 632.3,56.9 633.1,56.9 634.0,57.0 634.8,57.0 635.6,57.0 636.5,57.0 637.3,57.9 638.1,57.9 638.9,57.9 639.8,57.9 640.6,57.9 641.4,57.9 642.2,57.9 643.1,57.9 643.9,58.5 644.7,58.5 645.5,58.5 646.4,58.5 647.2,59.3 648.0,59.3 648.9,59.3 649.7,59.3 650.5,59.2 651.3,59.2 652.2,59.2 653.0,59.2 653.8,58.9 654.6,58.9 655.5,58.9 656.3,58.9 657.1,59.3 657.9,59.3 658.8,59.3 659.6,59.3 660.4,60.6 661.3,60.6 662.1,60.6 662.9,60.6 663.7,60.6 664.6,60.6 665.4,60.6 666.2,60.6 667.0,60.8 667.9,60.8 668.7,60.8 669.5,60.8 670.3,60.5 671.2,60.5 672.0,60.5 672.8,60.5 673.7,59.7 674.5,59.7 675.3,59.7 676.1,59.7 677.0,59.1 677.8,59.1 678.6,59.1 679.4,59.1 680.3,59.8 681.1,59.8 681.9,59.8 682.7,59.8 683.6,60.4 684.4,60.4 685.2,60.4 686.1,60.4 686.9,60.3 687.7,60.3 688.5,60.3 689.4,60.3 690.2,60.4 691.0,60.4 691.8,60.4 692.7,60.4 693.5,60.5 694.3,60.5 695.1,60.5 696.0,60.5 696.8,61.0 697.6,61.0 698.5,61.0 699.3,61.0 700.1,61.4 700.9,61.4 701.8,61.4 702.6,61.4 703.4,61.2 704.2,61.2 705.1,61.2 705.9,61.2 706.7,61.5 707.5,61.5 708.4,61.5 709.2,61.5 710.0,60.2 710.9,60.2 711.7,60.2 712.5,60.2 713.3,60.8 714.2,60.8 715.0,60.8 715.8,60.8 716.6,59.8 717.5,59.8 718.3,59.8 719.1,59.8 719.9,58.8 720.8,58.8 721.6,58.8 722.4,58.8 723.3,58.6 724.1,58.6 724.9,58.6 725.7,58.6 726.6,58.4 727.4,58.4 728.2,58.4 729.0,58.4 729.9,58.8 730.7,58.8 731.5,58.8 732.3,58.8 733.2,58.7 734.0,58.7 734.8,58.7 735.7,58.7 736.5,58.6 737.3,58.6 738.1,58.6 739.0,58.6 739.8,59.0 740.6,59.0 741.4,59.0 742.3,59.0 743.1,60.4 743.9,60.4 744.7,60.4 745.6,60.4 746.4,60.8 747.2,60.8 748.1,60.8 748.9,60.8 749.7,59.9 750.5,59.9 751.4,59.9 752.2,59.9 753.0,58.3 753.8,58.3 754.7,58.3 755.5,58.3 756.3,57.7 757.1,57.7 758.0,57.7 758.8,57.7 759.6,57.9 760.5,57.9 761.3,57.9 762.1,57.9 762.9,57.4 763.8,57.4 764.6,57.4 765.4,57.4 766.2,57.9 767.1,57.9 767.9,57.9 768.7,57.9 769.5,58.1 770.4,58.1 771.2,58.1 772.0,58.1 772.9,58.3 773.7,58.3 774.5,58.3 775.3,58.3 776.2,58.4 777.0,58.4 777.8,58.4 778.6,58.4 779.5,57.4 780.3,57.4 781.1,57.4 781.9,57.4 782.8,57.0 783.6,57.0 784.4,57.0 785.3,57.0 786.1,57.2 786.9,57.2 787.7,57.2 788.6,57.2 789.4,57.8 790.2,57.8 791.0,57.8 791.9,57.8 792.7,57.4 793.5,57.4 794.3,57.4 795.2,57.4 796.0,57.6"/>
<text x="640" y="88" font-family="Arial" font-size="12" fill="#b45309">baz</text>
</svg>