<svg xmlns="http://www.w3.org/2000/svg" width="820" height="320" viewBox="0 0 820 320">
<rect width="100%" height="100%" fill="white"/>
<text x="52" y="30" font-family="Arial" font-size="18" font-weight="700">ekf_dropout_robust covariance bounds</text>
<line x1="52" y1="274" x2="796" y2="274" stroke="#263238"/>
<line x1="52" y1="42" x2="52" y2="274" stroke="#263238"/>
<text x="52" y="306" font-family="Arial" font-size="12">time (s)</text>
<text x="630" y="306" font-family="Arial" font-size="12">m</text>

<polyline fill="none" stroke="#0f766e" stroke-width="2.3" points="52.0,46.7 52.8,46.5 53.7,46.3 54.5,46.1 55.3,45.8 56.1,45.6 57.0,45.3 57.8,45.1 58.6,44.8 59.4,44.6 60.3,44.4 61.1,44.1 61.9,43.9 62.7,43.7 63.6,43.4 64.4,43.2 65.2,42.8 66.1,42.5 66.9,42.3 67.7,42.0 68.5,211.3 69.4,214.6 70.2,217.4 71.0,219.9 71.8,222.3 72.7,223.9 73.5,224.9 74.3,225.3 75.1,225.3 76.0,224.6 76.8,223.3 77.6,221.5 78.5,219.0 79.3,216.3 80.1,213.1 80.9,209.7 81.8,206.2 82.6,202.2 83.4,198.0 84.2,193.6 85.1,254.1 85.9,250.1 86.7,246.0 87.5,241.7 88.4,237.3 89.2,232.9 90.0,228.4 90.9,223.9 91.7,219.3 92.5,214.7 93.3,210.1 94.2,205.6 95.0,200.8 95.8,196.2 96.6,191.6 97.5,186.9 98.3,182.3 99.1,177.6 99.9,173.0 100.8,168.3 101.6,198.6 102.4,194.8 103.3,191.0 104.1,187.1 104.9,183.5 105.7,179.7 106.6,175.9 107.4,172.0 108.2,168.5 109.0,164.6 109.9,160.8 110.7,157.0 111.5,153.4 112.3,149.5 113.2,145.7 114.0,141.9 114.8,137.9 115.7,134.0 116.5,130.2 117.3,126.3 118.1,200.9 119.0,198.4 119.8,196.0 120.6,193.6 121.4,191.1 122.3,188.7 123.1,186.3 123.9,183.9 124.7,181.6 125.6,179.2 126.4,176.9 127.2,174.5 128.1,172.3 128.9,170.0 129.7,167.6 130.5,165.3 131.4,163.0 132.2,160.6 133.0,158.3 133.8,156.0 134.7,199.5 135.5,198.1 136.3,196.8 137.1,195.6 138.0,194.1 138.8,192.8 139.6,191.6 140.5,190.3 141.3,189.1 142.1,187.9 142.9,186.6 143.8,185.4 144.6,184.3 145.4,183.1 146.2,181.9 147.1,180.7 147.9,179.6 148.7,178.4 149.5,177.3 150.4,176.2 151.2,219.7 152.0,219.4 152.9,219.2 153.7,218.9 154.5,218.6 155.3,218.4 156.2,218.2 157.0,218.0 157.8,217.9 158.6,217.7 159.5,217.6 160.3,217.5 161.1,217.3 161.9,217.2 162.8,217.2 163.6,217.1 164.4,217.1 165.3,217.1 166.1,217.1 166.9,217.2 167.7,223.2 168.6,223.4 169.4,223.5 170.2,223.7 171.0,223.9 171.9,224.1 172.7,224.4 173.5,224.6 174.3,224.9 175.2,225.1 176.0,225.4 176.8,225.7 177.7,226.0 178.5,226.4 179.3,226.7 180.1,227.1 181.0,227.5 181.8,227.9 182.6,228.3 183.4,228.7 184.3,249.4 185.1,247.8 185.9,246.1 186.7,244.3 187.6,242.5 188.4,240.6 189.2,238.7 190.1,236.7 190.9,234.5 191.7,232.4 192.5,230.3 193.4,228.2 194.2,226.2 195.0,224.0 195.8,221.8 196.7,219.5 197.5,217.1 198.3,214.7 199.1,212.3 200.0,209.9 200.8,246.6 201.6,244.6 202.5,242.5 203.3,240.5 204.1,238.3 204.9,236.2 205.8,234.1 206.6,231.9 207.4,230.0 208.2,227.8 209.1,225.6 209.9,223.4 210.7,221.1 211.5,218.8 212.4,216.5 213.2,214.1 214.0,211.7 214.9,209.3 215.7,206.9 216.5,204.4 217.3,223.2 218.2,221.1 219.0,218.9 219.8,216.7 220.6,214.4 221.5,212.2 222.3,209.9 223.1,207.6 223.9,205.3 224.8,203.0 225.6,200.6 226.4,198.2 227.3,195.7 228.1,193.3 228.9,190.8 229.7,188.3 230.6,185.7 231.4,183.2 232.2,180.6 233.0,178.0 233.9,191.1 234.7,188.8 235.5,186.3 236.3,183.9 237.2,181.4 238.0,178.9 238.8,176.4 239.7,173.9 240.5,171.4 241.3,168.9 242.1,166.3 243.0,163.6 243.8,161.1 244.6,158.5 245.4,155.8 246.3,153.1 247.1,150.4 247.9,147.6 248.7,144.8 249.6,142.0 250.4,193.3 251.2,191.3 252.1,189.3 252.9,187.2 253.7,185.0 254.5,182.9 255.4,180.8 256.2,178.7 257.0,176.6 257.8,174.5 258.7,172.3 259.5,170.1 260.3,167.9 261.1,165.7 262.0,163.5 262.8,161.2 263.6,158.9 264.5,156.6 265.3,154.3 266.1,152.0 266.9,189.7 267.8,187.9 268.6,186.1 269.4,184.2 270.2,182.4 271.1,180.6 271.9,178.7 272.7,176.8 273.5,175.0 274.4,173.0 275.2,171.1 276.0,169.2 276.9,167.1 277.7,165.2 278.5,163.2 279.3,161.2 280.2,159.1 281.0,157.0 281.8,155.0 282.6,152.9 283.5,243.2 284.3,242.4 285.1,241.6 285.9,240.7 286.8,239.9 287.6,239.0 288.4,238.2 289.3,237.3 290.1,235.8 290.9,234.9 291.7,234.0 292.6,233.1 293.4,233.1 294.2,232.2 295.0,231.3 295.9,230.3 296.7,228.7 297.5,227.7 298.3,226.8 299.2,225.8 300.0,243.6 300.8,242.8 301.7,242.1 302.5,241.3 303.3,239.7 304.1,239.0 305.0,238.2 305.8,237.4 306.6,237.1 307.4,236.3 308.3,235.5 309.1,234.7 309.9,234.0 310.7,233.2 311.6,232.3 312.4,231.5 313.2,231.1 314.1,230.3 314.9,229.5 315.7,228.6 316.5,242.8 317.4,242.1 318.2,241.4 319.0,240.7 319.8,240.8 320.7,240.1 321.5,239.5 322.3,238.8 323.1,238.1 324.0,237.4 324.8,236.7 325.6,236.0 326.5,235.3 327.3,234.5 328.1,233.8 328.9,233.0 329.8,232.3 330.6,231.5 331.4,230.8 332.2,230.0 333.1,259.2 333.9,258.9 334.7,258.5 335.5,258.1 336.4,257.6 337.2,257.2 338.0,256.8 338.9,256.4 339.7,256.0 340.5,255.6 341.3,255.2 342.2,254.8 343.0,254.5 343.8,254.1 344.6,253.7 345.5,253.2 346.3,252.7 347.1,252.3 347.9,251.9 348.8,251.4 349.6,264.9 350.4,264.7 351.3,264.6 352.1,264.4 352.9,263.9 353.7,263.8 354.6,263.6 355.4,263.4 356.2,263.6 357.0,263.5 357.9,263.3 358.7,263.2 359.5,262.6 360.3,262.4 361.2,262.3 362.0,262.1 362.8,261.4 363.7,261.2 364.5,261.0 365.3,260.8 366.1,260.6 367.0,260.5 367.8,260.4 368.6,260.4 369.4,260.0 370.3,259.9 371.1,259.8 371.9,259.8 372.7,259.7 373.6,259.6 374.4,259.5 375.2,259.5 376.1,259.5 376.9,259.4 377.7,259.3 378.5,259.3 379.4,259.1 380.2,259.1 381.0,259.0 381.8,258.9 382.7,262.0 383.5,261.9 384.3,261.9 385.1,261.9 386.0,261.3 386.8,261.3 387.6,261.2 388.5,261.2 389.3,262.0 390.1,262.0 390.9,262.0 391.8,262.0 392.6,262.1 393.4,262.1 394.2,262.1 395.1,262.1 395.9,262.5 396.7,262.5 397.5,262.5 398.4,262.5 399.2,267.2 400.0,267.1 400.9,267.0 401.7,266.9 402.5,267.2 403.3,267.1 404.2,267.0 405.0,266.9 405.8,267.5 406.6,267.4 407.5,267.3 408.3,267.2 409.1,267.1 409.9,267.0 410.8,267.0 411.6,266.9 412.4,267.0 413.3,266.8 414.1,266.7 414.9,266.6 415.7,266.5 416.6,266.3 417.4,266.1 418.2,265.9 419.0,265.7 419.9,265.5 420.7,265.3 421.5,265.0 422.3,264.8 423.2,264.6 424.0,264.3 424.8,264.1 425.7,263.8 426.5,263.6 427.3,263.3 428.1,263.1 429.0,262.8 429.8,262.5 430.6,262.3 431.4,262.0 432.3,251.1 433.1,250.7 433.9,250.4 434.7,250.0 435.6,249.6 436.4,249.2 437.2,248.8 438.1,248.5 438.9,248.0 439.7,247.6 440.5,247.2 441.4,246.8 442.2,246.3 443.0,245.9 443.8,245.5 444.7,245.1 445.5,244.9 446.3,244.5 447.1,244.0 448.0,243.6 448.8,244.3 449.6,243.9 450.5,243.6 451.3,243.2 452.1,242.9 452.9,242.5 453.8,242.1 454.6,241.8 455.4,241.6 456.2,241.2 457.1,240.8 457.9,240.4 458.7,239.7 459.5,239.3 460.4,238.9 461.2,238.5 462.0,238.4 462.9,238.0 463.7,237.6 464.5,237.3 465.3,236.7 466.2,236.2 467.0,235.7 467.8,235.2 468.6,235.0 469.5,234.5 470.3,234.0 471.1,233.4 471.9,232.5 472.8,232.0 473.6,231.5 474.4,230.9 475.3,230.5 476.1,230.0 476.9,229.4 477.7,228.9 478.6,228.2 479.4,227.6 480.2,227.1 481.0,226.5 481.9,246.3 482.7,245.9 483.5,245.6 484.3,245.2 485.2,245.4 486.0,245.1 486.8,244.7 487.7,244.3 488.5,244.3 489.3,243.9 490.1,243.6 491.0,243.2 491.8,243.0 492.6,242.6 493.4,242.2 494.3,241.9 495.1,241.8 495.9,241.4 496.7,241.1 497.6,240.7 498.4,238.1 499.2,237.7 500.1,237.3 500.9,236.9 501.7,236.4 502.5,236.0 503.4,235.6 504.2,235.2 505.0,234.6 505.8,234.2 506.7,233.7 507.5,233.3 508.3,233.0 509.1,232.5 510.0,232.1 510.8,231.6 511.6,231.2 512.5,230.8 513.3,230.3 514.1,229.9 514.9,257.5 515.8,257.3 516.6,257.1 517.4,256.9 518.2,256.6 519.1,256.4 519.9,256.2 520.7,256.0 521.5,255.7 522.4,255.5 523.2,255.2 524.0,255.0 524.9,254.8 525.7,254.6 526.5,254.3 527.3,254.1 528.2,253.9 529.0,253.6 529.8,253.4 530.6,253.1 531.5,264.5 532.3,264.3 533.1,264.1 533.9,263.9 534.8,263.2 535.6,262.9 536.4,262.7 537.3,262.5 538.1,262.7 538.9,262.5 539.7,262.2 540.6,262.0 541.4,262.1 542.2,261.9 543.0,261.6 543.9,261.4 544.7,261.3 545.5,261.1 546.3,260.8 547.2,260.6 548.0,262.7 548.8,262.4 549.7,262.1 550.5,261.9 551.3,261.7 552.1,261.4 553.0,261.1 553.8,260.9 554.6,260.6 555.4,260.3 556.3,260.0 557.1,259.8 557.9,259.5 558.7,259.3 559.6,259.0 560.4,258.7 561.2,258.2 562.1,257.9 562.9,257.7 563.7,257.4 564.5,240.8 565.4,240.4 566.2,240.0 567.0,239.6 567.8,239.1 568.7,238.7 569.5,238.3 570.3,237.9 571.1,237.4 572.0,237.0 572.8,236.6 573.6,236.1 574.5,235.9 575.3,235.5 576.1,235.1 576.9,234.6 577.8,234.1 578.6,233.7 579.4,233.2 580.2,232.8 581.1,249.7 581.9,249.4 582.7,249.1 583.5,248.8 584.4,248.4 585.2,248.1 586.0,247.8 586.9,247.5 587.7,247.0 588.5,246.7 589.3,246.4 590.2,246.1 591.0,245.7 591.8,245.3 592.6,245.0 593.5,244.7 594.3,244.5 595.1,244.2 595.9,243.8 596.8,243.5 597.6,254.3 598.4,254.1 599.3,253.8 600.1,253.6 600.9,253.5 601.7,253.2 602.6,253.0 603.4,252.7 604.2,252.6 605.0,252.3 605.9,252.1 606.7,251.8 607.5,251.8 608.3,251.6 609.2,251.3 610.0,251.1 610.8,250.9 611.7,250.7 612.5,250.4 613.3,250.1 614.1,258.1 615.0,257.9 615.8,257.7 616.6,257.5 617.4,257.3 618.3,257.1 619.1,256.9 619.9,256.7 620.7,256.5 621.6,256.3 622.4,256.1 623.2,255.9 624.1,255.4 624.9,255.2 625.7,255.0 626.5,254.8 627.4,254.4 628.2,254.2 629.0,253.9 629.8,253.7 630.7,257.2 631.5,257.0 632.3,256.8 633.1,256.6 634.0,256.4 634.8,256.2 635.6,256.0 636.5,255.8 637.3,256.1 638.1,255.9 638.9,255.7 639.8,255.5 640.6,255.3 641.4,255.1 642.2,254.9 643.1,254.7 643.9,254.7 644.7,254.5 645.5,254.3 646.4,254.1 647.2,257.4 648.0,257.2 648.9,257.1 649.7,256.9 650.5,256.7 651.3,256.6 652.2,256.4 653.0,256.2 653.8,256.0 654.6,255.8 655.5,255.7 656.3,255.5 657.1,255.4 657.9,255.2 658.8,255.0 659.6,254.8 660.4,254.4 661.3,254.2 662.1,254.1 662.9,253.9 663.7,252.4 664.6,252.2 665.4,252.0 666.2,251.8 667.0,251.5 667.9,251.2 668.7,251.0 669.5,250.8 670.3,250.7 671.2,250.5 672.0,250.3 672.8,250.1 673.7,250.1 674.5,249.9 675.3,249.7 676.1,249.5 677.0,249.3 677.8,249.1 678.6,248.9 679.4,248.7 680.3,274.0 681.1,274.0 681.9,274.0 682.7,274.0 683.6,273.4 684.4,273.4 685.2,273.4 686.1,273.3 686.9,273.4 687.7,273.4 688.5,273.4 689.4,273.3 690.2,273.1 691.0,273.0 691.8,273.0 692.7,272.9 693.5,272.9 694.3,272.8 695.1,272.8 696.0,272.7 696.8,264.8 697.6,264.7 698.5,264.6 699.3,264.5 700.1,263.9 700.9,263.8 701.8,263.7 702.6,263.6 703.4,263.7 704.2,263.6 705.1,263.5 705.9,263.4 706.7,262.9 707.5,262.8 708.4,262.7 709.2,262.6 710.0,264.1 710.9,264.1 711.7,264.0 712.5,263.9 713.3,260.1 714.2,260.0 715.0,259.9 715.8,259.8 716.6,260.6 717.5,260.5 718.3,260.5 719.1,260.4 719.9,260.9 720.8,260.8 721.6,260.7 722.4,260.6 723.3,260.6 724.1,260.5 724.9,260.5 725.7,260.4 726.6,260.4 727.4,260.3 728.2,260.2 729.0,260.1 729.9,263.5 730.7,263.4 731.5,263.4 732.3,263.4 733.2,263.3 734.0,263.3 734.8,263.2 735.7,263.2 736.5,263.2 737.3,263.2 738.1,263.1 739.0,263.1 739.8,262.8 740.6,262.8 741.4,262.7 742.3,262.7 743.1,261.6 743.9,261.5 744.7,261.4 745.6,261.3 746.4,259.8 747.2,259.7 748.1,259.6 748.9,259.5 749.7,260.5 750.5,260.4 751.4,260.3 752.2,260.2 753.0,261.2 753.8,261.1 754.7,261.1 755.5,261.0 756.3,261.1 757.1,261.0 758.0,260.9 758.8,260.9 759.6,260.8 760.5,260.7 761.3,260.7 762.1,260.6 762.9,249.2 763.8,249.0 764.6,248.8 765.4,248.6 766.2,248.4 767.1,248.3 767.9,248.1 768.7,247.9 769.5,247.7 770.4,247.5 771.2,247.4 772.0,247.2 772.9,246.9 773.7,246.8 774.5,246.6 775.3,246.4 776.2,246.2 777.0,246.0 777.8,245.8 778.6,245.6 779.5,242.1 780.3,241.9 781.1,241.7 781.9,241.5 782.8,241.2 783.6,241.1 784.4,240.9 785.3,240.7 786.1,240.5 786.9,240.3 787.7,240.1 788.6,239.9 789.4,239.7 790.2,239.5 791.0,239.3 791.9,239.1 792.7,238.9 793.5,238.6 794.3,238.4 795.2,238.2 796.0,256.9"/>
<text x="640" y="56" font-family="Arial" font-size="12" fill="#0f766e">position error</text>
<polyline fill="none" stroke="#2563eb" stroke-width="2.3" points="52.0,205.5 52.8,205.3 53.7,204.6 54.5,203.5 55.3,204.0 56.1,202.4 57.0,200.4 57.8,198.1 58.6,197.2 59.4,194.6 60.3,191.8 61.1,188.7 61.9,187.0 62.7,183.8 63.6,180.4 64.4,176.9 65.2,174.4 66.1,170.7 66.9,167.0 67.7,163.2 68.5,212.1 69.4,209.8 70.2,207.3 71.0,204.7 71.8,202.8 72.7,200.1 73.5,197.3 74.3,194.5 75.1,192.1 76.0,189.1 76.8,186.1 77.6,183.0 78.5,180.3 79.3,177.2 80.1,174.0 80.9,170.8 81.8,167.8 82.6,164.5 83.4,161.2 84.2,157.9 85.1,211.6 85.9,209.7 86.7,207.7 87.5,205.7 88.4,204.1 89.2,202.0 90.0,199.9 90.9,197.8 91.7,196.0 92.5,193.8 93.3,191.6 94.2,189.4 95.0,187.4 95.8,185.1 96.6,182.8 97.5,180.5 98.3,178.4 99.1,176.1 99.9,173.7 100.8,171.3 101.6,214.3 102.4,212.9 103.3,211.4 104.1,209.8 104.9,208.5 105.7,207.0 106.6,205.4 107.4,203.7 108.2,202.3 109.0,200.7 109.9,199.0 110.7,197.3 111.5,195.8 112.3,194.0 113.2,192.2 114.0,190.4 114.8,188.8 115.7,187.0 116.5,185.1 117.3,183.3 118.1,217.3 119.0,216.0 119.8,214.7 120.6,213.4 121.4,212.3 122.3,211.0 123.1,209.6 123.9,208.2 124.7,207.0 125.6,205.5 126.4,204.1 127.2,202.6 128.1,201.3 128.9,199.7 129.7,198.1 130.5,196.5 131.4,195.2 132.2,193.5 133.0,191.8 133.8,190.1 134.7,219.2 135.5,218.0 136.3,216.8 137.1,215.6 138.0,214.6 138.8,213.3 139.6,212.0 140.5,210.6 141.3,209.5 142.1,208.1 142.9,206.6 143.8,205.2 144.6,203.9 145.4,202.4 146.2,200.9 147.1,199.3 147.9,198.0 148.7,196.3 149.5,194.7 150.4,193.1 151.2,220.2 152.0,219.0 152.9,217.8 153.7,216.5 154.5,215.5 155.3,214.2 156.2,212.9 157.0,211.5 157.8,210.3 158.6,208.9 159.5,207.5 160.3,206.1 161.1,204.7 161.9,203.2 162.8,201.7 163.6,200.2 164.4,198.7 165.3,197.1 166.1,195.5 166.9,193.8 167.7,220.5 168.6,219.3 169.4,218.1 170.2,216.8 171.0,215.7 171.9,214.4 172.7,213.1 173.5,211.8 174.3,210.6 175.2,209.2 176.0,207.8 176.8,206.3 177.7,205.0 178.5,203.5 179.3,202.0 180.1,200.4 181.0,199.0 181.8,197.4 182.6,195.8 183.4,194.2 184.3,220.6 185.1,219.5 185.9,218.3 186.7,217.1 187.6,216.0 188.4,214.7 189.2,213.4 190.1,212.1 190.9,210.9 191.7,209.6 192.5,208.2 193.4,206.8 194.2,205.5 195.0,204.1 195.8,202.7 196.7,201.2 197.5,199.8 198.3,198.3 199.1,196.7 200.0,195.2 200.8,221.0 201.6,219.9 202.5,218.7 203.3,217.6 204.1,216.5 204.9,215.4 205.8,214.1 206.6,212.9 207.4,211.8 208.2,210.5 209.1,209.2 209.9,207.9 210.7,206.7 211.5,205.3 212.4,204.0 213.2,202.6 214.0,201.3 214.9,199.9 215.7,198.4 216.5,197.0 217.3,221.7 218.2,220.6 219.0,219.6 219.8,218.5 220.6,217.5 221.5,216.4 222.3,215.2 223.1,214.1 223.9,213.0 224.8,211.9 225.6,210.7 226.4,209.5 227.3,208.3 228.1,207.1 228.9,205.8 229.7,204.6 230.6,203.4 231.4,202.1 232.2,200.7 233.0,199.4 233.9,222.5 234.7,221.6 235.5,220.6 236.3,219.6 237.2,218.7 238.0,217.7 238.8,216.6 239.7,215.6 240.5,214.6 241.3,213.5 242.1,212.4 243.0,211.3 243.8,210.3 244.6,209.1 245.4,208.0 246.3,206.8 247.1,205.7 247.9,204.5 248.7,203.3 249.6,202.1 250.4,223.6 251.2,222.7 252.1,221.8 252.9,220.9 253.7,220.0 254.5,219.1 255.4,218.1 256.2,217.1 257.0,216.3 257.8,215.3 258.7,214.3 259.5,213.2 260.3,212.3 261.1,211.3 262.0,210.2 262.8,209.2 263.6,208.2 264.5,207.1 265.3,206.0 266.1,204.9 266.9,224.7 267.8,223.8 268.6,223.0 269.4,222.2 270.2,221.4 271.1,220.5 271.9,219.6 272.7,218.8 273.5,217.9 274.4,217.0 275.2,216.1 276.0,215.2 276.9,214.3 277.7,213.4 278.5,212.4 279.3,211.4 280.2,210.5 281.0,209.6 281.8,208.6 282.6,207.6 283.5,225.8 284.3,225.0 285.1,224.2 285.9,223.5 286.8,222.8 287.6,222.0 288.4,221.1 289.3,220.3 290.1,219.6 290.9,218.7 291.7,217.9 292.6,217.0 293.4,216.3 294.2,215.4 295.0,214.5 295.9,213.6 296.7,212.8 297.5,211.9 298.3,211.0 299.2,210.1 300.0,226.9 300.8,226.2 301.7,225.4 302.5,224.7 303.3,224.1 304.1,223.3 305.0,222.6 305.8,221.8 306.6,221.1 307.4,220.4 308.3,219.6 309.1,218.8 309.9,218.1 310.7,217.3 311.6,216.5 312.4,215.7 313.2,214.9 314.1,214.1 314.9,213.2 315.7,212.4 316.5,227.9 317.4,227.3 318.2,226.6 319.0,225.9 319.8,225.3 320.7,224.6 321.5,223.9 322.3,223.2 323.1,222.6 324.0,221.9 324.8,221.2 325.6,220.4 326.5,219.8 327.3,219.0 328.1,218.3 328.9,217.5 329.8,216.8 330.6,216.1 331.4,215.3 332.2,214.5 333.1,228.9 333.9,228.3 334.7,227.7 335.5,227.0 336.4,226.5 337.2,225.8 338.0,225.2 338.9,224.5 339.7,224.0 340.5,223.3 341.3,222.6 342.2,221.9 343.0,221.3 343.8,220.6 344.6,219.9 345.5,219.2 346.3,218.6 347.1,217.9 347.9,217.2 348.8,216.4 349.6,229.9 350.4,229.3 351.3,228.7 352.1,228.1 352.9,227.6 353.7,227.0 354.6,226.4 355.4,225.8 356.2,225.2 357.0,224.6 357.9,224.0 358.7,223.3 359.5,222.8 360.3,222.1 361.2,221.5 362.0,220.8 362.8,220.2 363.7,219.5 364.5,218.9 365.3,218.2 366.1,230.7 367.0,230.2 367.8,229.6 368.6,229.1 369.4,228.6 370.3,228.0 371.1,227.5 371.9,226.9 372.7,226.4 373.6,225.8 374.4,225.2 375.2,224.6 376.1,224.1 376.9,223.5 377.7,222.8 378.5,222.2 379.4,221.7 380.2,221.1 381.0,220.4 381.8,219.8 382.7,231.6 383.5,231.0 384.3,230.5 385.1,230.0 386.0,229.5 386.8,229.0 387.6,228.5 388.5,227.9 389.3,227.4 390.1,226.9 390.9,226.3 391.8,225.8 392.6,225.3 393.4,224.7 394.2,224.1 395.1,223.5 395.9,223.0 396.7,222.4 397.5,221.8 398.4,221.2 399.2,232.3 400.0,231.8 400.9,231.3 401.7,230.8 402.5,230.4 403.3,229.9 404.2,229.4 405.0,228.9 405.8,228.4 406.6,227.9 407.5,227.3 408.3,226.8 409.1,226.3 409.9,225.8 410.8,225.2 411.6,224.7 412.4,224.2 413.3,223.7 414.1,223.1 414.9,222.5 415.7,233.0 416.6,232.6 417.4,232.1 418.2,231.6 419.0,231.2 419.9,230.7 420.7,230.2 421.5,229.7 422.3,229.3 423.2,228.8 424.0,228.3 424.8,227.8 425.7,227.3 426.5,226.8 427.3,226.3 428.1,225.8 429.0,225.3 429.8,224.8 430.6,224.2 431.4,223.7 432.3,233.7 433.1,233.2 433.9,232.8 434.7,232.3 435.6,231.9 436.4,231.5 437.2,231.0 438.1,230.5 438.9,230.1 439.7,229.6 440.5,229.1 441.4,228.6 442.2,228.2 443.0,227.7 443.8,227.2 444.7,226.7 445.5,226.3 446.3,225.8 447.1,225.3 448.0,224.7 448.8,234.3 449.6,233.8 450.5,233.4 451.3,233.0 452.1,232.6 452.9,232.1 453.8,231.7 454.6,231.2 455.4,230.8 456.2,230.4 457.1,229.9 457.9,229.4 458.7,229.0 459.5,228.6 460.4,228.1 461.2,227.6 462.0,227.2 462.9,226.7 463.7,226.2 464.5,225.7 465.3,234.8 466.2,234.4 467.0,234.0 467.8,233.5 468.6,233.2 469.5,232.7 470.3,232.3 471.1,231.9 471.9,231.5 472.8,231.1 473.6,230.6 474.4,230.1 475.3,229.8 476.1,229.3 476.9,228.8 477.7,228.4 478.6,228.0 479.4,227.5 480.2,227.0 481.0,226.5 481.9,235.3 482.7,234.9 483.5,234.5 484.3,234.1 485.2,233.7 486.0,233.3 486.8,232.9 487.7,232.5 488.5,232.1 489.3,231.7 490.1,231.2 491.0,230.8 491.8,230.4 492.6,230.0 493.4,229.5 494.3,229.1 495.1,228.7 495.9,228.2 496.7,227.8 497.6,227.3 498.4,235.8 499.2,235.4 500.1,235.0 500.9,234.5 501.7,234.2 502.5,233.8 503.4,233.4 504.2,233.0 505.0,232.6 505.8,232.2 506.7,231.8 507.5,231.4 508.3,231.0 509.1,230.6 510.0,230.1 510.8,229.7 511.6,229.3 512.5,228.9 513.3,228.4 514.1,228.0 514.9,236.2 515.8,235.8 516.6,235.4 517.4,235.0 518.2,234.7 519.1,234.3 519.9,233.9 520.7,233.4 521.5,233.1 522.4,232.7 523.2,232.3 524.0,231.9 524.9,231.5 525.7,231.1 526.5,230.7 527.3,230.2 528.2,229.9 529.0,229.4 529.8,229.0 530.6,228.6 531.5,236.5 532.3,236.1 533.1,235.7 533.9,235.4 534.8,235.1 535.6,234.7 536.4,234.3 537.3,233.9 538.1,233.5 538.9,233.1 539.7,232.7 540.6,232.3 541.4,232.0 542.2,231.6 543.0,231.1 543.9,230.7 544.7,230.4 545.5,229.9 546.3,229.5 547.2,229.1 548.0,236.8 548.8,236.5 549.7,236.1 550.5,235.7 551.3,235.4 552.1,235.0 553.0,234.6 553.8,234.2 554.6,233.9 555.4,233.5 556.3,233.1 557.1,232.7 557.9,232.4 558.7,232.0 559.6,231.6 560.4,231.2 561.2,230.8 562.1,230.4 562.9,230.0 563.7,229.5 564.5,237.1 565.4,236.7 566.2,236.4 567.0,236.0 567.8,235.7 568.7,235.3 569.5,234.9 570.3,234.6 571.1,234.2 572.0,233.9 572.8,233.5 573.6,233.1 574.5,232.7 575.3,232.3 576.1,231.9 576.9,231.5 577.8,231.2 578.6,230.8 579.4,230.4 580.2,229.9 581.1,237.4 581.9,237.0 582.7,236.6 583.5,236.3 584.4,236.0 585.2,235.6 586.0,235.2 586.9,234.8 587.7,234.5 588.5,234.2 589.3,233.8 590.2,233.4 591.0,233.1 591.8,232.7 592.6,232.3 593.5,231.9 594.3,231.5 595.1,231.1 595.9,230.7 596.8,230.3 597.6,237.6 598.4,237.2 599.3,236.9 600.1,236.5 600.9,236.2 601.7,235.8 602.6,235.5 603.4,235.1 604.2,234.8 605.0,234.4 605.9,234.0 606.7,233.6 607.5,233.3 608.3,232.9 609.2,232.5 610.0,232.1 610.8,231.8 611.7,231.4 612.5,231.0 613.3,230.6 614.1,237.8 615.0,237.4 615.8,237.1 616.6,236.7 617.4,236.4 618.3,236.1 619.1,235.7 619.9,235.3 620.7,235.0 621.6,234.6 622.4,234.3 623.2,233.9 624.1,233.6 624.9,233.2 625.7,232.8 626.5,232.4 627.4,232.1 628.2,231.7 629.0,231.3 629.8,230.9 630.7,237.9 631.5,237.6 632.3,237.2 633.1,236.9 634.0,236.6 634.8,236.2 635.6,235.9 636.5,235.5 637.3,235.2 638.1,234.8 638.9,234.5 639.8,234.1 640.6,233.8 641.4,233.4 642.2,233.0 643.1,232.6 643.9,232.3 644.7,231.9 645.5,231.5 646.4,231.1 647.2,238.1 648.0,237.7 648.9,237.4 649.7,237.0 650.5,236.7 651.3,236.4 652.2,236.0 653.0,235.7 653.8,235.4 654.6,235.0 655.5,234.6 656.3,234.2 657.1,233.9 657.9,233.6 658.8,233.2 659.6,232.8 660.4,232.5 661.3,232.1 662.1,231.7 662.9,231.3 663.7,238.2 664.6,237.9 665.4,237.5 666.2,237.2 667.0,236.9 667.9,236.5 668.7,236.2 669.5,235.8 670.3,235.5 671.2,235.1 672.0,234.8 672.8,234.4 673.7,234.1 674.5,233.7 675.3,233.3 676.1,232.9 677.0,232.6 677.8,232.2 678.6,231.8 679.4,231.5 680.3,238.3 681.1,238.0 681.9,237.6 682.7,237.3 683.6,237.0 684.4,236.6 685.2,236.3 686.1,235.9 686.9,235.6 687.7,235.3 688.5,234.9 689.4,234.5 690.2,234.2 691.0,233.8 691.8,233.5 692.7,233.1 693.5,232.8 694.3,232.4 695.1,232.0 696.0,231.6 696.8,238.4 697.6,238.1 698.5,237.7 699.3,237.4 700.1,237.1 700.9,236.7 701.8,236.4 702.6,236.0 703.4,235.7 704.2,235.4 705.1,235.0 705.9,234.6 706.7,234.3 707.5,233.9 708.4,233.6 709.2,233.2 710.0,232.9 710.9,232.5 711.7,232.1 712.5,231.7 713.3,238.5 714.2,238.1 715.0,237.8 715.8,237.4 716.6,237.2 717.5,236.8 718.3,236.5 719.1,236.1 719.9,235.8 720.8,235.4 721.6,235.1 722.4,234.7 723.3,234.4 724.1,234.0 724.9,233.7 725.7,233.3 726.6,233.0 727.4,232.6 728.2,232.2 729.0,231.8 729.9,238.5 730.7,238.2 731.5,237.9 732.3,237.5 733.2,237.2 734.0,236.9 734.8,236.5 735.7,236.2 736.5,235.9 737.3,235.5 738.1,235.2 739.0,234.8 739.8,234.5 740.6,234.1 741.4,233.7 742.3,233.4 743.1,233.1 743.9,232.7 744.7,232.3 745.6,231.9 746.4,238.6 747.2,238.3 748.1,237.9 748.9,237.6 749.7,237.3 750.5,236.9 751.4,236.6 752.2,236.2 753.0,235.9 753.8,235.6 754.7,235.2 755.5,234.8 756.3,234.6 757.1,234.2 758.0,233.8 758.8,233.4 759.6,233.1 760.5,232.7 761.3,232.4 762.1,232.0 762.9,238.6 763.8,238.3 764.6,238.0 765.4,237.6 766.2,237.3 767.1,237.0 767.9,236.6 768.7,236.3 769.5,236.0 770.4,235.6 771.2,235.3 772.0,234.9 772.9,234.6 773.7,234.2 774.5,233.9 775.3,233.5 776.2,233.2 777.0,232.8 777.8,232.4 778.6,232.0 779.5,238.7 780.3,238.3 781.1,238.0 781.9,237.6 782.8,237.4 783.6,237.0 784.4,236.7 785.3,236.3 786.1,236.0 786.9,235.7 787.7,235.3 788.6,234.9 789.4,234.7 790.2,234.3 791.0,233.9 791.9,233.5 792.7,233.2 793.5,232.9 794.3,232.5 795.2,232.1 796.0,238.7"/>
<text x="640" y="72" font-family="Arial" font-size="12" fill="#2563eb">sqrt trace Ppos</text>
</svg>