<svg xmlns="http://www.w3.org/2000/svg" width="820" height="320" viewBox="0 0 820 320">
<rect width="100%" height="100%" fill="white"/>
<text x="52" y="30" font-family="Arial" font-size="18" font-weight="700">dropout_robust position error</text>
<line x1="52" y1="274" x2="796" y2="274" stroke="#263238"/>
<line x1="52" y1="42" x2="52" y2="274" stroke="#263238"/>
<text x="52" y="306" font-family="Arial" font-size="12">time (s)</text>
<text x="630" y="306" font-family="Arial" font-size="12">m</text>

<polyline fill="none" stroke="#0f766e" stroke-width="2.3" points="52.0,46.7 52.8,46.5 53.7,46.3 54.5,46.1 55.3,45.8 56.1,45.6 57.0,45.3 57.8,45.1 58.6,44.8 59.4,44.6 60.3,44.4 61.1,44.1 61.9,43.9 62.7,43.7 63.6,43.4 64.4,43.2 65.2,42.8 66.1,42.5 66.9,42.3 67.7,42.0 68.5,211.3 69.4,214.6 70.2,217.4 71.0,219.9 71.8,222.3 72.7,223.9 73.5,224.9 74.3,225.3 75.1,225.3 76.0,224.6 76.8,223.3 77.6,221.5 78.5,219.0 79.3,216.3 80.1,213.1 80.9,209.7 81.8,206.2 82.6,202.2 83.4,198.0 84.2,193.6 85.1,254.1 85.9,250.1 86.7,246.0 87.5,241.7 88.4,237.3 89.2,232.9 90.0,228.4 90.9,223.9 91.7,219.3 92.5,214.7 93.3,210.1 94.2,205.6 95.0,200.8 95.8,196.2 96.6,191.6 97.5,186.9 98.3,182.3 99.1,177.6 99.9,173.0 100.8,168.3 101.6,198.6 102.4,194.8 103.3,191.0 104.1,187.1 104.9,183.5 105.7,179.7 106.6,175.9 107.4,172.0 108.2,168.5 109.0,164.6 109.9,160.8 110.7,157.0 111.5,153.4 112.3,149.5 113.2,145.7 114.0,141.9 114.8,137.9 115.7,134.0 116.5,130.2 117.3,126.3 118.1,200.9 119.0,198.4 119.8,196.0 120.6,193.6 121.4,191.1 122.3,188.7 123.1,186.3 123.9,183.9 124.7,181.6 125.6,179.2 126.4,176.9 127.2,174.5 128.1,172.3 128.9,170.0 129.7,167.6 130.5,165.3 131.4,163.0 132.2,160.6 133.0,158.3 133.8,156.0 134.7,199.5 135.5,198.1 136.3,196.8 137.1,195.6 138.0,194.1 138.8,192.8 139.6,191.6 140.5,190.3 141.3,189.1 142.1,187.9 142.9,186.6 143.8,185.4 144.6,184.3 145.4,183.1 146.2,181.9 147.1,180.7 147.9,179.6 148.7,178.4 149.5,177.3 150.4,176.2 151.2,219.7 152.0,219.4 152.9,219.2 153.7,218.9 154.5,218.6 155.3,218.4 156.2,218.2 157.0,218.0 157.8,217.9 158.6,217.7 159.5,217.6 160.3,217.5 161.1,217.3 161.9,217.2 162.8,217.2 163.6,217.1 164.4,217.1 165.3,217.1 166.1,217.1 166.9,217.2 167.7,223.2 168.6,223.4 169.4,223.5 170.2,223.7 171.0,223.9 171.9,224.1 172.7,224.4 173.5,224.6 174.3,224.9 175.2,225.1 176.0,225.4 176.8,225.7 177.7,226.0 178.5,226.4 179.3,226.7 180.1,227.1 181.0,227.5 181.8,227.9 182.6,228.3 183.4,228.7 184.3,249.4 185.1,247.8 185.9,246.1 186.7,244.3 187.6,242.5 188.4,240.6 189.2,238.7 190.1,236.7 190.9,234.5 191.7,232.4 192.5,230.3 193.4,228.2 194.2,226.2 195.0,224.0 195.8,221.8 196.7,219.5 197.5,217.1 198.3,214.7 199.1,212.3 200.0,209.9 200.8,246.6 201.6,244.6 202.5,242.5 203.3,240.5 204.1,238.3 204.9,236.2 205.8,234.1 206.6,231.9 207.4,230.0 208.2,227.8 209.1,225.6 209.9,223.4 210.7,221.1 211.5,218.8 212.4,216.5 213.2,214.1 214.0,211.7 214.9,209.3 215.7,206.9 216.5,204.4 217.3,223.2 218.2,221.1 219.0,218.9 219.8,216.7 220.6,214.4 221.5,212.2 222.3,209.9 223.1,207.6 223.9,205.3 224.8,203.0 225.6,200.6 226.4,198.2 227.3,195.7 228.1,193.3 228.9,190.8 229.7,188.3 230.6,185.7 231.4,183.2 232.2,180.6 233.0,178.0 233.9,191.1 234.7,188.8 235.5,186.3 236.3,183.9 237.2,181.4 238.0,178.9 238.8,176.4 239.7,173.9 240.5,171.4 241.3,168.9 242.1,166.3 243.0,163.6 243.8,161.1 244.6,158.5 245.4,155.8 246.3,153.1 247.1,150.4 247.9,147.6 248.7,144.8 249.6,142.0 250.4,193.3 251.2,191.3 252.1,189.3 252.9,187.2 253.7,185.0 254.5,182.9 255.4,180.8 256.2,178.7 257.0,176.6 257.8,174.5 258.7,172.3 259.5,170.1 260.3,167.9 261.1,165.7 262.0,163.5 262.8,161.2 263.6,158.9 264.5,156.6 265.3,154.3 266.1,152.0 266.9,189.7 267.8,187.9 268.6,186.1 269.4,184.2 270.2,182.4 271.1,180.6 271.9,178.7 272.7,176.8 273.5,175.0 274.4,173.0 275.2,171.1 276.0,169.2 276.9,167.1 277.7,165.2 278.5,163.2 279.3,161.2 280.2,159.1 281.0,157.0 281.8,155.0 282.6,152.9 283.5,243.2 284.3,242.4 285.1,241.6 285.9,240.7 286.8,239.9 287.6,239.0 288.4,238.2 289.3,237.3 290.1,235.8 290.9,234.9 291.7,234.0 292.6,233.1 293.4,233.1 294.2,232.2 295.0,231.3 295.9,230.3 296.7,228.7 297.5,227.7 298.3,226.8 299.2,225.8 300.0,243.6 300.8,242.8 301.7,242.1 302.5,241.3 303.3,239.7 304.1,239.0 305.0,238.2 305.8,237.4 306.6,237.1 307.4,236.3 308.3,235.5 309.1,234.7 309.9,234.0 310.7,233.2 311.6,232.3 312.4,231.5 313.2,231.1 314.1,230.3 314.9,229.5 315.7,228.6 316.5,242.8 317.4,242.1 318.2,241.4 319.0,240.7 319.8,240.8 320.7,240.1 321.5,239.5 322.3,238.8 323.1,238.1 324.0,237.4 324.8,236.7 325.6,236.0 326.5,235.3 327.3,234.5 328.1,233.8 328.9,233.0 329.8,232.3 330.6,231.5 331.4,230.8 332.2,230.0 333.1,259.2 333.9,258.9 334.7,258.5 335.5,258.1 336.4,257.6 337.2,257.2 338.0,256.8 338.9,256.4 339.7,256.0 340.5,255.6 341.3,255.2 342.2,254.8 343.0,254.5 343.8,254.1 344.6,253.7 345.5,253.2 346.3,252.7 347.1,252.3 347.9,251.9 348.8,251.4 349.6,264.9 350.4,264.7 351.3,264.6 352.1,264.4 352.9,263.9 353.7,263.8 354.6,263.6 355.4,263.4 356.2,263.6 357.0,263.5 357.9,263.3 358.7,263.2 359.5,262.6 360.3,262.4 361.2,262.3 362.0,262.1 362.8,261.4 363.7,261.2 364.5,261.0 365.3,260.8 366.1,260.6 367.0,260.5 367.8,260.4 368.6,260.4 369.4,260.0 370.3,259.9 371.1,259.8 371.9,259.8 372.7,259.7 373.6,259.6 374.4,259.5 375.2,259.5 376.1,259.5 376.9,259.4 377.7,259.3 378.5,259.3 379.4,259.1 380.2,259.1 381.0,259.0 381.8,258.9 382.7,262.0 383.5,261.9 384.3,261.9 385.1,261.9 386.0,261.3 386.8,261.3 387.6,261.2 388.5,261.2 389.3,262.0 390.1,262.0 390.9,262.0 391.8,262.0 392.6,262.1 393.4,262.1 394.2,262.1 395.1,262.1 395.9,262.5 396.7,262.5 397.5,262.5 398.4,262.5 399.2,267.2 400.0,267.1 400.9,267.0 401.7,266.9 402.5,267.2 403.3,267.1 404.2,267.0 405.0,266.9 405.8,267.5 406.6,267.4 407.5,267.3 408.3,267.2 409.1,267.1 409.9,267.0 410.8,267.0 411.6,266.9 412.4,267.0 413.3,266.8 414.1,266.7 414.9,266.6 415.7,266.5 416.6,266.3 417.4,266.1 418.2,265.9 419.0,265.7 419.9,265.5 420.7,265.3 421.5,265.0 422.3,264.8 423.2,264.6 424.0,264.3 424.8,264.1 425.7,263.8 426.5,263.6 427.3,263.3 428.1,263.1 429.0,262.8 429.8,262.5 430.6,262.3 431.4,262.0 432.3,251.1 433.1,250.7 433.9,250.4 434.7,250.0 435.6,249.6 436.4,249.2 437.2,248.8 438.1,248.5 438.9,248.0 439.7,247.6 440.5,247.2 441.4,246.8 442.2,246.3 443.0,245.9 443.8,245.5 444.7,245.1 445.5,244.9 446.3,244.5 447.1,244.0 448.0,243.6 448.8,244.3 449.6,243.9 450.5,243.6 451.3,243.2 452.1,242.9 452.9,242.5 453.8,242.1 454.6,241.8 455.4,241.6 456.2,241.2 457.1,240.8 457.9,240.4 458.7,239.7 459.5,239.3 460.4,238.9 461.2,238.5 462.0,238.4 462.9,238.0 463.7,237.6 464.5,237.3 465.3,236.7 466.2,236.2 467.0,235.7 467.8,235.2 468.6,235.0 469.5,234.5 470.3,234.0 471.1,233.4 471.9,232.5 472.8,232.0 473.6,231.5 474.4,230.9 475.3,230.5 476.1,230.0 476.9,229.4 477.7,228.9 478.6,228.2 479.4,227.6 480.2,227.1 481.0,226.5 481.9,246.3 482.7,245.9 483.5,245.6 484.3,245.2 485.2,245.4 486.0,245.1 486.8,244.7 487.7,244.3 488.5,244.3 489.3,243.9 490.1,243.6 491.0,243.2 491.8,243.0 492.6,242.6 493.4,242.2 494.3,241.9 495.1,241.8 495.9,241.4 496.7,241.1 497.6,240.7 498.4,238.1 499.2,237.7 500.1,237.3 500.9,236.9 501.7,236.4 502.5,236.0 503.4,235.6 504.2,235.2 505.0,234.6 505.8,234.2 506.7,233.7 507.5,233.3 508.3,233.0 509.1,232.5 510.0,232.1 510.8,231.6 511.6,231.2 512.5,230.8 513.3,230.3 514.1,229.9 514.9,257.5 515.8,257.3 516.6,257.1 517.4,256.9 518.2,256.6 519.1,256.4 519.9,256.2 520.7,256.0 521.5,255.7 522.4,255.5 523.2,255.2 524.0,255.0 524.9,254.8 525.7,254.6 526.5,254.3 527.3,254.1 528.2,253.9 529.0,253.6 529.8,253.4 530.6,253.1 531.5,264.5 532.3,264.3 533.1,264.1 533.9,263.9 534.8,263.2 535.6,262.9 536.4,262.7 537.3,262.5 538.1,262.7 538.9,262.5 539.7,262.2 540.6,262.0 541.4,262.1 542.2,261.9 543.0,261.6 543.9,261.4 544.7,261.3 545.5,261.1 546.3,260.8 547.2,260.6 548.0,262.7 548.8,262.4 549.7,262.1 550.5,261.9 551.3,261.7 552.1,261.4 553.0,261.1 553.8,260.9 554.6,260.6 555.4,260.3 556.3,260.0 557.1,259.8 557.9,259.5 558.7,259.3 559.6,259.0 560.4,258.7 561.2,258.2 562.1,257.9 562.9,257.7 563.7,257.4 564.5,240.8 565.4,240.4 566.2,240.0 567.0,239.6 567.8,239.1 568.7,238.7 569.5,238.3 570.3,237.9 571.1,237.4 572.0,237.0 572.8,236.6 573.6,236.1 574.5,235.9 575.3,235.5 576.1,235.1 576.9,234.6 577.8,234.1 578.6,233.7 579.4,233.2 580.2,232.8 581.1,249.7 581.9,249.4 582.7,249.1 583.5,248.8 584.4,248.4 585.2,248.1 586.0,247.8 586.9,247.5 587.7,247.0 588.5,246.7 589.3,246.4 590.2,246.1 591.0,245.7 591.8,245.3 592.6,245.0 593.5,244.7 594.3,244.5 595.1,244.2 595.9,243.8 596.8,243.5 597.6,254.3 598.4,254.1 599.3,253.8 600.1,253.6 600.9,253.5 601.7,253.2 602.6,253.0 603.4,252.7 604.2,252.6 605.0,252.3 605.9,252.1 606.7,251.8 607.5,251.8 608.3,251.6 609.2,251.3 610.0,251.1 610.8,250.9 611.7,250.7 612.5,250.4 613.3,250.1 614.1,258.1 615.0,257.9 615.8,257.7 616.6,257.5 617.4,257.3 618.3,257.1 619.1,256.9 619.9,256.7 620.7,256.5 621.6,256.3 622.4,256.1 623.2,255.9 624.1,255.4 624.9,255.2 625.7,255.0 626.5,254.8 627.4,254.4 628.2,254.2 629.0,253.9 629.8,253.7 630.7,257.2 631.5,257.0 632.3,256.8 633.1,256.6 634.0,256.4 634.8,256.2 635.6,256.0 636.5,255.8 637.3,256.1 638.1,255.9 638.9,255.7 639.8,255.5 640.6,255.3 641.4,255.1 642.2,254.9 643.1,254.7 643.9,254.7 644.7,254.5 645.5,254.3 646.4,254.1 647.2,257.4 648.0,257.2 648.9,257.1 649.7,256.9 650.5,256.7 651.3,256.6 652.2,256.4 653.0,256.2 653.8,256.0 654.6,255.8 655.5,255.7 656.3,255.5 657.1,255.4 657.9,255.2 658.8,255.0 659.6,254.8 660.4,254.4 661.3,254.2 662.1,254.1 662.9,253.9 663.7,252.4 664.6,252.2 665.4,252.0 666.2,251.8 667.0,251.5 667.9,251.2 668.7,251.0 669.5,250.8 670.3,250.7 671.2,250.5 672.0,250.3 672.8,250.1 673.7,250.1 674.5,249.9 675.3,249.7 676.1,249.5 677.0,249.3 677.8,249.1 678.6,248.9 679.4,248.7 680.3,274.0 681.1,274.0 681.9,274.0 682.7,274.0 683.6,273.4 684.4,273.4 685.2,273.4 686.1,273.3 686.9,273.4 687.7,273.4 688.5,273.4 689.4,273.3 690.2,273.1 691.0,273.0 691.8,273.0 692.7,272.9 693.5,272.9 694.3,272.8 695.1,272.8 696.0,272.7 696.8,264.8 697.6,264.7 698.5,264.6 699.3,264.5 700.1,263.9 700.9,263.8 701.8,263.7 702.6,263.6 703.4,263.7 704.2,263.6 705.1,263.5 705.9,263.4 706.7,262.9 707.5,262.8 708.4,262.7 709.2,262.6 710.0,264.1 710.9,264.1 711.7,264.0 712.5,263.9 713.3,260.1 714.2,260.0 715.0,259.9 715.8,259.8 716.6,260.6 717.5,260.5 718.3,260.5 719.1,260.4 719.9,260.9 720.8,260.8 721.6,260.7 722.4,260.6 723.3,260.6 724.1,260.5 724.9,260.5 725.7,260.4 726.6,260.4 727.4,260.3 728.2,260.2 729.0,260.1 729.9,263.5 730.7,263.4 731.5,263.4 732.3,263.4 733.2,263.3 734.0,263.3 734.8,263.2 735.7,263.2 736.5,263.2 737.3,263.2 738.1,263.1 739.0,263.1 739.8,262.8 740.6,262.8 741.4,262.7 742.3,262.7 743.1,261.6 743.9,261.5 744.7,261.4 745.6,261.3 746.4,259.8 747.2,259.7 748.1,259.6 748.9,259.5 749.7,260.5 750.5,260.4 751.4,260.3 752.2,260.2 753.0,261.2 753.8,261.1 754.7,261.1 755.5,261.0 756.3,261.1 757.1,261.0 758.0,260.9 758.8,260.9 759.6,260.8 760.5,260.7 761.3,260.7 762.1,260.6 762.9,249.2 763.8,249.0 764.6,248.8 765.4,248.6 766.2,248.4 767.1,248.3 767.9,248.1 768.7,247.9 769.5,247.7 770.4,247.5 771.2,247.4 772.0,247.2 772.9,246.9 773.7,246.8 774.5,246.6 775.3,246.4 776.2,246.2 777.0,246.0 777.8,245.8 778.6,245.6 779.5,242.1 780.3,241.9 781.1,241.7 781.9,241.5 782.8,241.2 783.6,241.1 784.4,240.9 785.3,240.7 786.1,240.5 786.9,240.3 787.7,240.1 788.6,239.9 789.4,239.7 790.2,239.5 791.0,239.3 791.9,239.1 792.7,238.9 793.5,238.6 794.3,238.4 795.2,238.2 796.0,256.9"/>
<text x="640" y="56" font-family="Arial" font-size="12" fill="#0f766e">dropout_robust position error</text>
</svg>