<svg xmlns="http://www.w3.org/2000/svg" width="820" height="320" viewBox="0 0 820 320">
<rect width="100%" height="100%" fill="white"/>
<text x="52" y="30" font-family="Arial" font-size="18" font-weight="700">dropout_robust covariance trace</text>
<line x1="52" y1="274" x2="796" y2="274" stroke="#263238"/>
<line x1="52" y1="42" x2="52" y2="274" stroke="#263238"/>
<text x="52" y="306" font-family="Arial" font-size="12">time (s)</text>
<text x="630" y="306" font-family="Arial" font-size="12">sqrt trace P</text>

<polyline fill="none" stroke="#0f766e" stroke-width="2.3" points="52.0,178.8 52.8,178.1 53.7,176.2 54.5,173.0 55.3,174.3 56.1,169.7 57.0,164.0 57.8,157.3 58.6,154.9 59.4,147.5 60.3,139.3 61.1,130.6 61.9,125.6 62.7,116.4 63.6,106.7 64.4,96.6 65.2,89.4 66.1,79.0 66.9,68.2 67.7,57.2 68.5,197.6 69.4,190.9 70.2,183.8 71.0,176.4 71.8,171.1 72.7,163.3 73.5,155.2 74.3,147.0 75.1,140.3 76.0,131.7 76.8,123.1 77.6,114.2 78.5,106.5 79.3,97.5 80.1,88.3 80.9,79.0 81.8,70.6 82.6,61.1 83.4,51.6 84.2,42.0 85.1,196.2 85.9,190.7 86.7,185.1 87.5,179.4 88.4,174.5 89.2,168.7 90.0,162.7 90.9,156.6 91.7,151.3 92.5,145.1 93.3,138.8 94.2,132.4 95.0,126.7 95.8,120.2 96.6,113.6 97.5,107.0 98.3,100.9 99.1,94.2 99.9,87.4 100.8,80.5 101.6,204.1 102.4,199.8 103.3,195.5 104.1,191.1 104.9,187.4 105.7,182.9 106.6,178.3 107.4,173.6 108.2,169.6 109.0,164.8 109.9,160.0 110.7,155.0 111.5,150.8 112.3,145.7 113.2,140.6 114.0,135.4 114.8,130.9 115.7,125.6 116.5,120.3 117.3,114.8 118.1,212.4 119.0,208.8 119.8,205.1 120.6,201.3 121.4,198.3 122.3,194.4 123.1,190.4 123.9,186.3 124.7,183.0 125.6,178.8 126.4,174.6 127.2,170.2 128.1,166.6 128.9,162.1 129.7,157.6 130.5,153.0 131.4,149.0 132.2,144.3 133.0,139.5 133.8,134.6 134.7,218.1 135.5,214.7 136.3,211.2 137.1,207.6 138.0,204.7 138.8,201.0 139.6,197.2 140.5,193.3 141.3,190.1 142.1,186.1 142.9,182.0 143.8,177.8 144.6,174.2 145.4,169.9 146.2,165.5 147.1,161.0 147.9,157.0 148.7,152.4 149.5,147.7 150.4,143.0 151.2,220.8 152.0,217.4 152.9,213.9 153.7,210.3 154.5,207.3 155.3,203.6 156.2,199.8 157.0,196.0 157.8,192.6 158.6,188.6 159.5,184.5 160.3,180.3 161.1,176.5 161.9,172.2 162.8,167.8 163.6,163.3 164.4,159.2 165.3,154.6 166.1,149.9 166.9,145.1 167.7,221.6 168.6,218.2 169.4,214.7 170.2,211.2 171.0,208.0 171.9,204.3 172.7,200.5 173.5,196.7 174.3,193.2 175.2,189.2 176.0,185.2 176.8,181.0 177.7,177.2 178.5,172.9 179.3,168.6 180.1,164.2 181.0,160.1 181.8,155.5 182.6,150.9 183.4,146.2 184.3,222.1 185.1,218.7 185.9,215.3 186.7,211.9 187.6,208.7 188.4,205.1 189.2,201.5 190.1,197.7 190.9,194.3 191.7,190.4 192.5,186.5 193.4,182.5 194.2,178.8 195.0,174.7 195.8,170.5 196.7,166.3 197.5,162.3 198.3,157.9 199.1,153.5 200.0,149.0 200.8,223.1 201.6,220.0 202.5,216.7 203.3,213.4 204.1,210.4 204.9,207.0 205.8,203.5 206.6,200.0 207.4,196.7 208.2,193.0 209.1,189.4 209.9,185.6 210.7,182.1 211.5,178.2 212.4,174.3 213.2,170.4 214.0,166.6 214.9,162.6 215.7,158.4 216.5,154.3 217.3,225.0 218.2,222.1 219.0,219.0 219.8,215.9 220.6,213.1 221.5,209.9 222.3,206.7 223.1,203.4 223.9,200.3 224.8,197.0 225.6,193.5 226.4,190.1 227.3,186.8 228.1,183.3 228.9,179.7 229.7,176.0 230.6,172.6 231.4,168.8 232.2,165.1 233.0,161.2 233.9,227.6 234.7,224.8 235.5,222.0 236.3,219.1 237.2,216.5 238.0,213.6 238.8,210.6 239.7,207.6 240.5,204.8 241.3,201.7 242.1,198.5 243.0,195.3 243.8,192.4 244.6,189.1 245.4,185.8 246.3,182.5 247.1,179.3 247.9,175.9 248.7,172.5 249.6,169.0 250.4,230.6 251.2,228.0 252.1,225.4 252.9,222.8 253.7,220.3 254.5,217.6 255.4,214.9 256.2,212.1 257.0,209.5 257.8,206.7 258.7,203.8 259.5,200.9 260.3,198.2 261.1,195.2 262.0,192.2 262.8,189.2 263.6,186.3 264.5,183.2 265.3,180.1 266.1,176.9 266.9,233.7 267.8,231.3 268.6,228.9 269.4,226.5 270.2,224.3 271.1,221.8 271.9,219.3 272.7,216.7 273.5,214.4 274.4,211.8 275.2,209.1 276.0,206.5 276.9,204.0 277.7,201.3 278.5,198.5 279.3,195.8 280.2,193.2 281.0,190.3 281.8,187.5 282.6,184.6 283.5,236.9 284.3,234.7 285.1,232.5 285.9,230.2 286.8,228.2 287.6,225.9 288.4,223.6 289.3,221.2 290.1,219.1 290.9,216.7 291.7,214.3 292.6,211.8 293.4,209.6 294.2,207.1 295.0,204.5 295.9,202.0 296.7,199.6 297.5,197.1 298.3,194.4 299.2,191.8 300.0,240.0 300.8,238.0 301.7,235.9 302.5,233.8 303.3,232.0 304.1,229.8 305.0,227.7 305.8,225.5 306.6,223.5 307.4,221.3 308.3,219.1 309.1,216.8 309.9,214.8 310.7,212.5 311.6,210.2 312.4,207.8 313.2,205.7 314.1,203.3 314.9,200.9 315.7,198.5 316.5,243.0 317.4,241.1 318.2,239.2 319.0,237.3 319.8,235.6 320.7,233.6 321.5,231.6 322.3,229.6 323.1,227.7 324.0,225.7 324.8,223.6 325.6,221.5 326.5,219.6 327.3,217.5 328.1,215.4 328.9,213.2 329.8,211.2 330.6,209.0 331.4,206.8 332.2,204.6 333.1,245.9 333.9,244.1 334.7,242.3 335.5,240.5 336.4,238.9 337.2,237.1 338.0,235.2 338.9,233.3 339.7,231.6 340.5,229.7 341.3,227.8 342.2,225.9 343.0,224.1 343.8,222.1 344.6,220.1 345.5,218.1 346.3,216.3 347.1,214.2 347.9,212.2 348.8,210.1 349.6,248.6 350.4,246.9 351.3,245.3 352.1,243.6 352.9,242.1 353.7,240.3 354.6,238.6 355.4,236.8 356.2,235.3 357.0,233.5 357.9,231.7 358.7,229.8 359.5,228.2 360.3,226.4 361.2,224.5 362.0,222.6 362.8,220.9 363.7,219.0 364.5,217.1 365.3,215.1 366.1,251.1 367.0,249.6 367.8,248.0 368.6,246.4 369.4,245.0 370.3,243.3 371.1,241.7 371.9,240.0 372.7,238.6 373.6,236.9 374.4,235.2 375.2,233.5 376.1,232.0 376.9,230.2 377.7,228.5 378.5,226.7 379.4,225.1 380.2,223.3 381.0,221.5 381.8,219.7 382.7,253.5 383.5,252.0 384.3,250.5 385.1,249.0 386.0,247.7 386.8,246.1 387.6,244.6 388.5,243.0 389.3,241.6 390.1,240.0 390.9,238.4 391.8,236.8 392.6,235.4 393.4,233.7 394.2,232.1 395.1,230.4 395.9,228.9 396.7,227.2 397.5,225.5 398.4,223.8 399.2,255.7 400.0,254.3 400.9,252.8 401.7,251.4 402.5,250.1 403.3,248.7 404.2,247.2 405.0,245.7 405.8,244.4 406.6,242.9 407.5,241.4 408.3,239.8 409.1,238.5 409.9,236.9 410.8,235.4 411.6,233.8 412.4,232.4 413.3,230.8 414.1,229.2 414.9,227.5 415.7,257.7 416.6,256.3 417.4,255.0 418.2,253.6 419.0,252.4 419.9,251.0 420.7,249.6 421.5,248.2 422.3,247.0 423.2,245.5 424.0,244.1 424.8,242.6 425.7,241.3 426.5,239.8 427.3,238.3 428.1,236.8 429.0,235.5 429.8,234.0 430.6,232.5 431.4,230.9 432.3,259.6 433.1,258.3 433.9,256.9 434.7,255.6 435.6,254.5 436.4,253.2 437.2,251.8 438.1,250.5 438.9,249.3 439.7,247.9 440.5,246.5 441.4,245.1 442.2,243.9 443.0,242.5 443.8,241.0 444.7,239.6 445.5,238.3 446.3,236.9 447.1,235.4 448.0,233.9 448.8,261.3 449.6,260.0 450.5,258.8 451.3,257.5 452.1,256.4 452.9,255.1 453.8,253.8 454.6,252.5 455.4,251.4 456.2,250.1 457.1,248.7 457.9,247.4 458.7,246.2 459.5,244.9 460.4,243.5 461.2,242.1 462.0,240.9 462.9,239.5 463.7,238.1 464.5,236.6 465.3,262.8 466.2,261.6 467.0,260.4 467.8,259.2 468.6,258.1 469.5,256.9 470.3,255.6 471.1,254.4 471.9,253.3 472.8,252.0 473.6,250.7 474.4,249.4 475.3,248.3 476.1,247.0 476.9,245.7 477.7,244.3 478.6,243.2 479.4,241.8 480.2,240.4 481.0,239.1 481.9,264.2 482.7,263.1 483.5,261.9 484.3,260.7 485.2,259.7 486.0,258.5 486.8,257.3 487.7,256.0 488.5,255.0 489.3,253.8 490.1,252.5 491.0,251.2 491.8,250.2 492.6,248.9 493.4,247.6 494.3,246.3 495.1,245.2 495.9,243.9 496.7,242.6 497.6,241.2 498.4,265.5 499.2,264.4 500.1,263.2 500.9,262.1 501.7,261.1 502.5,259.9 503.4,258.7 504.2,257.5 505.0,256.6 505.8,255.3 506.7,254.1 507.5,252.9 508.3,251.9 509.1,250.6 510.0,249.4 510.8,248.1 511.6,247.0 512.5,245.7 513.3,244.5 514.1,243.2 514.9,266.7 515.8,265.6 516.6,264.4 517.4,263.3 518.2,262.4 519.1,261.2 519.9,260.1 520.7,258.9 521.5,257.9 522.4,256.8 523.2,255.6 524.0,254.4 524.9,253.4 525.7,252.1 526.5,250.9 527.3,249.7 528.2,248.6 529.0,247.4 529.8,246.1 530.6,244.9 531.5,267.7 532.3,266.6 533.1,265.5 533.9,264.4 534.8,263.5 535.6,262.4 536.4,261.2 537.3,260.1 538.1,259.2 538.9,258.0 539.7,256.8 540.6,255.6 541.4,254.7 542.2,253.5 543.0,252.3 543.9,251.1 544.7,250.1 545.5,248.8 546.3,247.6 547.2,246.4 548.0,268.6 548.8,267.5 549.7,266.5 550.5,265.4 551.3,264.5 552.1,263.4 553.0,262.3 553.8,261.1 554.6,260.2 555.4,259.1 556.3,258.0 557.1,256.8 557.9,255.9 558.7,254.7 559.6,253.5 560.4,252.3 561.2,251.3 562.1,250.1 562.9,248.9 563.7,247.7 564.5,269.4 565.4,268.4 566.2,267.3 567.0,266.2 567.8,265.4 568.7,264.3 569.5,263.2 570.3,262.1 571.1,261.2 572.0,260.1 572.8,258.9 573.6,257.8 574.5,256.9 575.3,255.7 576.1,254.6 576.9,253.4 577.8,252.4 578.6,251.3 579.4,250.1 580.2,248.9 581.1,270.1 581.9,269.1 582.7,268.1 583.5,267.0 584.4,266.2 585.2,265.1 586.0,264.0 586.9,262.9 587.7,262.0 588.5,260.9 589.3,259.8 590.2,258.7 591.0,257.8 591.8,256.6 592.6,255.5 593.5,254.3 594.3,253.4 595.1,252.2 595.9,251.1 596.8,249.9 597.6,270.8 598.4,269.7 599.3,268.7 600.1,267.7 600.9,266.8 601.7,265.8 602.6,264.7 603.4,263.6 604.2,262.8 605.0,261.7 605.9,260.6 606.7,259.5 607.5,258.6 608.3,257.4 609.2,256.3 610.0,255.2 610.8,254.2 611.7,253.1 612.5,251.9 613.3,250.7 614.1,271.3 615.0,270.3 615.8,269.3 616.6,268.2 617.4,267.4 618.3,266.4 619.1,265.3 619.9,264.2 620.7,263.4 621.6,262.3 622.4,261.2 623.2,260.1 624.1,259.2 624.9,258.1 625.7,257.0 626.5,255.9 627.4,255.0 628.2,253.8 629.0,252.7 629.8,251.5 630.7,271.8 631.5,270.8 632.3,269.8 633.1,268.7 634.0,267.9 634.8,266.9 635.6,265.8 636.5,264.8 637.3,263.9 638.1,262.9 638.9,261.8 639.8,260.7 640.6,259.8 641.4,258.7 642.2,257.6 643.1,256.5 643.9,255.6 644.7,254.4 645.5,253.3 646.4,252.1 647.2,272.2 648.0,271.2 648.9,270.2 649.7,269.2 650.5,268.4 651.3,267.3 652.2,266.3 653.0,265.2 653.8,264.4 654.6,263.3 655.5,262.3 656.3,261.2 657.1,260.3 657.9,259.2 658.8,258.1 659.6,257.0 660.4,256.1 661.3,255.0 662.1,253.8 662.9,252.7 663.7,272.6 664.6,271.6 665.4,270.5 666.2,269.5 667.0,268.7 667.9,267.7 668.7,266.7 669.5,265.6 670.3,264.8 671.2,263.7 672.0,262.7 672.8,261.6 673.7,260.7 674.5,259.7 675.3,258.6 676.1,257.4 677.0,256.6 677.8,255.4 678.6,254.3 679.4,253.2 680.3,272.9 681.1,271.9 681.9,270.9 682.7,269.8 683.6,269.1 684.4,268.0 685.2,267.0 686.1,266.0 686.9,265.1 687.7,264.1 688.5,263.0 689.4,262.0 690.2,261.1 691.0,260.0 691.8,258.9 692.7,257.8 693.5,256.9 694.3,255.8 695.1,254.7 696.0,253.6 696.8,273.1 697.6,272.1 698.5,271.1 699.3,270.1 700.1,269.3 700.9,268.3 701.8,267.3 702.6,266.2 703.4,265.4 704.2,264.4 705.1,263.3 705.9,262.3 706.7,261.4 707.5,260.3 708.4,259.2 709.2,258.2 710.0,257.3 710.9,256.2 711.7,255.0 712.5,253.9 713.3,273.3 714.2,272.3 715.0,271.3 715.8,270.3 716.6,269.6 717.5,268.6 718.3,267.5 719.1,266.5 719.9,265.7 720.8,264.6 721.6,263.6 722.4,262.5 723.3,261.7 724.1,260.6 724.9,259.5 725.7,258.4 726.6,257.5 727.4,256.4 728.2,255.3 729.0,254.2 729.9,273.5 730.7,272.5 731.5,271.5 732.3,270.5 733.2,269.8 734.0,268.8 734.8,267.7 735.7,266.7 736.5,265.9 737.3,264.8 738.1,263.8 739.0,262.7 739.8,261.9 740.6,260.8 741.4,259.7 742.3,258.7 743.1,257.8 743.9,256.7 744.7,255.6 745.6,254.4 746.4,273.7 747.2,272.7 748.1,271.7 748.9,270.7 749.7,269.9 750.5,268.9 751.4,267.9 752.2,266.9 753.0,266.1 753.8,265.0 754.7,264.0 755.5,262.9 756.3,262.1 757.1,261.0 758.0,259.9 758.8,258.8 759.6,258.0 760.5,256.9 761.3,255.8 762.1,254.7 762.9,273.8 763.8,272.8 764.6,271.8 765.4,270.8 766.2,270.1 767.1,269.1 767.9,268.0 768.7,267.0 769.5,266.2 770.4,265.2 771.2,264.1 772.0,263.1 772.9,262.2 773.7,261.2 774.5,260.1 775.3,259.0 776.2,258.1 777.0,257.0 777.8,255.9 778.6,254.8 779.5,273.9 780.3,272.9 781.1,271.9 781.9,270.9 782.8,270.2 783.6,269.2 784.4,268.2 785.3,267.1 786.1,266.3 786.9,265.3 787.7,264.3 788.6,263.2 789.4,262.4 790.2,261.3 791.0,260.2 791.9,259.1 792.7,258.3 793.5,257.2 794.3,256.1 795.2,255.0 796.0,274.0"/>
<text x="640" y="56" font-family="Arial" font-size="12" fill="#0f766e">dropout_robust covariance trace</text>
</svg>