<svg xmlns="http://www.w3.org/2000/svg" width="820" height="320" viewBox="0 0 820 320">
<rect width="100%" height="100%" fill="white"/>
<text x="52" y="30" font-family="Arial" font-size="18" font-weight="700">ekf_dropout_robust NEES proxy</text>
<line x1="52" y1="274" x2="796" y2="274" stroke="#263238"/>
<line x1="52" y1="42" x2="52" y2="274" stroke="#263238"/>
<text x="52" y="306" font-family="Arial" font-size="12">time (s)</text>
<text x="630" y="306" font-family="Arial" font-size="12">value</text>

<polyline fill="none" stroke="#0f766e" stroke-width="2.3" points="52.0,42.0 52.8,42.5 53.7,45.0 54.5,49.2 55.3,54.7 56.1,61.8 57.0,69.9 57.8,78.8 58.6,87.8 59.4,97.4 60.3,107.1 61.1,116.6 61.9,126.3 62.7,135.1 63.6,143.6 64.4,151.6 65.2,156.5 66.1,163.5 66.9,170.1 67.7,176.2 68.5,248.8 69.4,252.4 70.2,255.3 71.0,257.8 71.8,260.5 72.7,262.1 73.5,263.3 74.3,264.2 75.1,265.0 76.0,265.4 76.8,265.6 77.6,265.7 78.5,263.5 79.3,263.4 80.1,263.1 80.9,262.8 81.8,264.5 82.6,264.1 83.4,263.6 84.2,263.1 85.1,271.1 85.9,270.2 86.7,269.2 87.5,268.1 88.4,266.3 89.2,265.2 90.0,264.1 90.9,262.9 91.7,260.3 92.5,259.2 93.3,258.1 94.2,257.1 95.0,253.1 95.8,252.1 96.6,251.2 97.5,250.3 98.3,247.2 99.1,246.4 99.9,245.6 100.8,244.9 101.6,227.7 102.4,226.4 103.3,225.1 104.1,223.8 104.9,222.1 105.7,221.1 106.6,220.1 107.4,219.2 108.2,220.9 109.0,220.1 109.9,219.3 110.7,218.5 111.5,221.9 112.3,221.1 113.2,220.3 114.0,219.6 114.8,214.1 115.7,213.6 116.5,213.2 117.3,212.9 118.1,234.6 119.0,234.1 119.8,233.6 120.6,233.2 121.4,229.2 122.3,229.1 123.1,229.0 123.9,228.8 124.7,229.2 125.6,229.2 126.4,229.2 127.2,229.2 128.1,231.7 128.9,231.6 129.7,231.5 130.5,231.4 131.4,231.5 132.2,231.4 133.0,231.3 133.8,231.2 134.7,234.3 135.5,234.6 136.3,234.9 137.1,235.2 138.0,232.1 138.8,232.7 139.6,233.3 140.5,233.9 141.3,234.3 142.1,235.0 142.9,235.6 143.8,236.3 144.6,236.8 145.4,237.5 146.2,238.2 147.1,238.9 147.9,239.2 148.7,239.9 149.5,240.6 150.4,241.2 151.2,251.2 152.0,251.9 152.9,252.7 153.7,253.4 154.5,253.4 155.3,253.9 156.2,254.4 157.0,254.9 157.8,256.7 158.6,257.3 159.5,257.9 160.3,258.5 161.1,258.9 161.9,259.4 162.8,259.9 163.6,260.4 164.4,261.3 165.3,261.9 166.1,262.4 166.9,262.9 167.7,253.3 168.6,254.1 169.4,254.9 170.2,255.6 171.0,257.3 171.9,258.1 172.7,258.9 173.5,259.7 174.3,260.4 175.2,261.2 176.0,261.9 176.8,262.5 177.7,263.1 178.5,263.7 179.3,264.3 180.1,264.9 181.0,265.4 181.8,265.8 182.6,266.3 183.4,266.7 184.3,268.9 185.1,268.5 185.9,268.0 186.7,267.6 187.6,267.0 188.4,266.5 189.2,265.9 190.1,265.4 190.9,262.1 191.7,261.4 192.5,260.8 193.4,260.1 194.2,262.2 195.0,261.7 195.8,261.1 196.7,260.5 197.5,258.7 198.3,258.0 199.1,257.4 200.0,256.8 200.8,265.7 201.6,265.1 202.5,264.4 203.3,263.7 204.1,261.4 204.9,260.7 205.8,259.9 206.6,259.2 207.4,262.1 208.2,261.4 209.1,260.8 209.9,260.1 210.7,260.2 211.5,259.6 212.4,259.0 213.2,258.3 214.0,257.7 214.9,257.1 215.7,256.5 216.5,255.9 217.3,251.7 218.2,250.8 219.0,249.9 219.8,249.0 220.6,247.7 221.5,246.9 222.3,246.0 223.1,245.1 223.9,246.5 224.8,245.7 225.6,245.0 226.4,244.2 227.3,243.3 228.1,242.6 228.9,241.8 229.7,241.1 230.6,239.1 231.4,238.4 232.2,237.6 233.0,236.9 233.9,214.7 234.7,213.6 235.5,212.5 236.3,211.4 237.2,208.4 238.0,207.4 238.8,206.4 239.7,205.4 240.5,205.7 241.3,204.8 242.1,203.9 243.0,203.0 243.8,207.0 244.6,206.2 245.4,205.4 246.3,204.6 247.1,202.5 247.9,201.8 248.7,201.1 249.6,200.4 250.4,220.6 251.2,219.8 252.1,219.1 252.9,218.3 253.7,211.3 254.5,210.6 255.4,209.9 256.2,209.2 257.0,211.1 257.8,210.4 258.7,209.8 259.5,209.2 260.3,209.2 261.1,208.6 262.0,208.1 262.8,207.6 263.6,205.3 264.5,204.8 265.3,204.3 266.1,203.8 266.9,209.8 267.8,209.3 268.6,208.7 269.4,208.1 270.2,207.4 271.1,206.9 271.9,206.4 272.7,205.9 273.5,206.9 274.4,206.4 275.2,206.0 276.0,205.6 276.9,200.9 277.7,200.5 278.5,200.2 279.3,199.8 280.2,193.4 281.0,193.1 281.8,192.9 282.6,192.6 283.5,247.3 284.3,247.3 285.1,247.2 285.9,247.2 286.8,244.6 287.6,244.6 288.4,244.6 289.3,244.6 290.1,231.6 290.9,231.7 291.7,231.8 292.6,231.9 293.4,244.2 294.2,244.3 295.0,244.4 295.9,244.5 296.7,226.6 297.5,226.8 298.3,227.0 299.2,227.3 300.0,242.6 300.8,242.8 301.7,243.0 302.5,243.1 303.3,226.1 304.1,226.5 305.0,226.8 305.8,227.1 306.6,229.8 307.4,230.1 308.3,230.5 309.1,230.9 309.9,228.6 310.7,229.0 311.6,229.4 312.4,229.8 313.2,234.5 314.1,234.9 314.9,235.3 315.7,235.7 316.5,249.3 317.4,249.6 318.2,249.8 319.0,250.1 319.8,261.1 320.7,261.1 321.5,261.2 322.3,261.2 323.1,262.3 324.0,262.2 324.8,262.0 325.6,261.8 326.5,262.3 327.3,262.2 328.1,262.1 328.9,262.0 329.8,261.6 330.6,261.6 331.4,261.5 332.2,261.5 333.1,270.9 333.9,270.8 334.7,270.7 335.5,270.6 336.4,268.8 337.2,268.7 338.0,268.5 338.9,268.4 339.7,268.4 340.5,268.3 341.3,268.1 342.2,268.0 343.0,268.4 343.8,268.2 344.6,268.1 345.5,268.0 346.3,266.2 347.1,266.0 347.9,265.9 348.8,265.8 349.6,273.0 350.4,273.0 351.3,273.0 352.1,273.0 352.9,270.2 353.7,270.3 354.6,270.3 355.4,270.4 356.2,272.9 357.0,272.9 357.9,272.9 358.7,273.0 359.5,269.9 360.3,270.0 361.2,270.1 362.0,270.2 362.8,264.9 363.7,265.1 364.5,265.2 365.3,265.3 366.1,269.6 367.0,269.7 367.8,269.9 368.6,270.0 369.4,266.8 370.3,267.0 371.1,267.1 371.9,267.3 372.7,266.5 373.6,266.7 374.4,266.8 375.2,267.0 376.1,267.2 376.9,267.3 377.7,267.5 378.5,267.6 379.4,266.6 380.2,266.8 381.0,266.9 381.8,267.1 382.7,264.3 383.5,264.5 384.3,264.7 385.1,264.9 386.0,259.3 386.8,259.6 387.6,259.9 388.5,260.2 389.3,265.7 390.1,265.9 390.9,266.2 391.8,266.4 392.6,267.1 393.4,267.3 394.2,267.5 395.1,267.7 395.9,269.9 396.7,270.0 397.5,270.2 398.4,270.4 399.2,266.0 400.0,266.2 400.9,266.3 401.7,266.5 402.5,267.9 403.3,268.1 404.2,268.2 405.0,268.4 405.8,271.8 406.6,271.9 407.5,272.1 408.3,272.2 409.1,272.3 409.9,272.4 410.8,272.5 411.6,272.6 412.4,273.9 413.3,273.9 414.1,273.9 414.9,273.9 415.7,272.9 416.6,272.9 417.4,273.0 418.2,273.0 419.0,273.1 419.9,273.1 420.7,273.1 421.5,273.0 422.3,273.0 423.2,272.9 424.0,272.9 424.8,272.9 425.7,272.8 426.5,272.8 427.3,272.8 428.1,272.8 429.0,272.5 429.8,272.5 430.6,272.5 431.4,272.5 432.3,265.5 433.1,265.4 433.9,265.3 434.7,265.3 435.6,265.0 436.4,264.9 437.2,264.8 438.1,264.7 438.9,262.8 439.7,262.7 440.5,262.6 441.4,262.5 442.2,260.9 443.0,260.8 443.8,260.6 444.7,260.5 445.5,263.6 446.3,263.6 447.1,263.5 448.0,263.4 448.8,255.0 449.6,255.0 450.5,254.9 451.3,254.8 452.1,255.4 452.9,255.3 453.8,255.3 454.6,255.2 455.4,258.1 456.2,258.1 457.1,258.0 457.9,258.0 458.7,251.7 459.5,251.7 460.4,251.6 461.2,251.6 462.0,255.6 462.9,255.6 463.7,255.6 464.5,255.6 465.3,244.3 466.2,244.2 467.0,244.1 467.8,244.0 468.6,248.9 469.5,248.8 470.3,248.7 471.1,248.6 471.9,239.8 472.8,239.7 473.6,239.7 474.4,239.6 475.3,240.6 476.1,240.6 476.9,240.5 477.7,240.4 478.6,234.8 479.4,234.8 480.2,234.8 481.0,234.8 481.9,242.9 482.7,243.0 483.5,243.0 484.3,243.1 485.2,249.9 486.0,249.9 486.8,250.0 487.7,250.1 488.5,253.5 489.3,253.5 490.1,253.6 491.0,253.7 491.8,254.9 492.6,255.0 493.4,255.1 494.3,255.1 495.1,259.5 495.9,259.6 496.7,259.6 497.6,259.7 498.4,254.2 499.2,254.2 500.1,254.1 500.9,254.1 501.7,253.7 502.5,253.6 503.4,253.6 504.2,253.5 505.0,250.4 505.8,250.3 506.7,250.3 507.5,250.2 508.3,252.7 509.1,252.7 510.0,252.6 510.8,252.5 511.6,253.3 512.5,253.3 513.3,253.3 514.1,253.2 514.9,268.2 515.8,268.2 516.6,268.2 517.4,268.2 518.2,268.0 519.1,268.0 519.9,268.0 520.7,268.0 521.5,267.4 522.4,267.4 523.2,267.4 524.0,267.4 524.9,267.5 525.7,267.5 526.5,267.5 527.3,267.5 528.2,268.2 529.0,268.2 529.8,268.2 530.6,268.2 531.5,270.0 532.3,269.9 533.1,269.9 533.9,269.9 534.8,265.3 535.6,265.3 536.4,265.3 537.3,265.3 538.1,268.3 538.9,268.3 539.7,268.3 540.6,268.3 541.4,270.2 542.2,270.2 543.0,270.2 543.9,270.3 544.7,271.2 545.5,271.2 546.3,271.2 547.2,271.2 548.0,270.7 548.8,270.7 549.7,270.7 550.5,270.6 551.3,271.0 552.1,271.0 553.0,270.9 553.8,270.9 554.6,270.4 555.4,270.4 556.3,270.4 557.1,270.3 557.9,270.6 558.7,270.5 559.6,270.5 560.4,270.5 561.2,267.9 562.1,267.9 562.9,267.9 563.7,267.9 564.5,254.7 565.4,254.6 566.2,254.6 567.0,254.5 567.8,253.0 568.7,253.0 569.5,253.0 570.3,252.9 571.1,250.9 572.0,250.9 572.8,250.8 573.6,250.8 574.5,254.3 575.3,254.3 576.1,254.2 576.9,254.2 577.8,252.1 578.6,252.1 579.4,252.1 580.2,252.1 581.1,259.6 581.9,259.6 582.7,259.6 583.5,259.6 584.4,258.5 585.2,258.6 586.0,258.6 586.9,258.7 587.7,256.1 588.5,256.2 589.3,256.3 590.2,256.4 591.0,254.6 591.8,254.7 592.6,254.8 593.5,254.9 594.3,256.6 595.1,256.8 595.9,256.9 596.8,257.0 597.6,257.8 598.4,258.0 599.3,258.1 600.1,258.3 600.9,259.3 601.7,259.4 602.6,259.6 603.4,259.7 604.2,260.4 605.0,260.5 605.9,260.7 606.7,260.8 607.5,264.2 608.3,264.3 609.2,264.4 610.0,264.5 610.8,265.4 611.7,265.5 612.5,265.5 613.3,265.6 614.1,268.2 615.0,268.2 615.8,268.2 616.6,268.3 617.4,268.6 618.3,268.6 619.1,268.6 619.9,268.6 620.7,267.9 621.6,267.9 622.4,267.8 623.2,267.8 624.1,265.0 624.9,264.9 625.7,264.8 626.5,264.7 627.4,262.1 628.2,262.0 629.0,261.9 629.8,261.7 630.7,262.7 631.5,262.6 632.3,262.5 633.1,262.4 634.0,262.1 634.8,262.0 635.6,261.9 636.5,261.8 637.3,266.1 638.1,266.1 638.9,266.1 639.8,266.0 640.6,265.7 641.4,265.7 642.2,265.7 643.1,265.6 643.9,267.5 644.7,267.4 645.5,267.4 646.4,267.4 647.2,268.1 648.0,268.1 648.9,268.1 649.7,268.1 650.5,268.1 651.3,268.1 652.2,268.2 653.0,268.2 653.8,267.8 654.6,267.8 655.5,267.8 656.3,267.8 657.1,268.3 657.9,268.3 658.8,268.3 659.6,268.3 660.4,265.7 661.3,265.7 662.1,265.8 662.9,265.8 663.7,261.8 664.6,261.9 665.4,261.9 666.2,262.0 667.0,260.5 667.9,260.5 668.7,260.6 669.5,260.6 670.3,261.7 671.2,261.7 672.0,261.8 672.8,261.8 673.7,264.5 674.5,264.5 675.3,264.6 676.1,264.6 677.0,265.2 677.8,265.2 678.6,265.2 679.4,265.2 680.3,273.9 681.1,274.0 681.9,274.0 682.7,274.0 683.6,272.0 684.4,272.0 685.2,272.0 686.1,272.1 686.9,272.1 687.7,272.1 688.5,272.1 689.4,272.2 690.2,270.9 691.0,271.0 691.8,271.0 692.7,271.0 693.5,270.4 694.3,270.4 695.1,270.4 696.0,270.5 696.8,263.2 697.6,263.3 698.5,263.3 699.3,263.4 700.1,258.4 700.9,258.5 701.8,258.6 702.6,258.8 703.4,258.7 704.2,258.9 705.1,259.0 705.9,259.1 706.7,254.1 707.5,254.3 708.4,254.4 709.2,254.5 710.0,265.4 710.9,265.5 711.7,265.6 712.5,265.7 713.3,256.3 714.2,256.5 715.0,256.7 715.8,256.8 716.6,264.1 717.5,264.2 718.3,264.4 719.1,264.6 719.9,269.3 720.8,269.4 721.6,269.5 722.4,269.6 723.3,270.0 724.1,270.1 724.9,270.2 725.7,270.2 726.6,270.6 727.4,270.7 728.2,270.8 729.0,270.8 729.9,270.1 730.7,270.2 731.5,270.3 732.3,270.4 733.2,270.5 734.0,270.5 734.8,270.6 735.7,270.7 736.5,271.0 737.3,271.1 738.1,271.1 739.0,271.2 739.8,269.8 740.6,269.9 741.4,270.0 742.3,270.0 743.1,260.8 743.9,260.9 744.7,261.0 745.6,261.1 746.4,252.6 747.2,252.8 748.1,252.9 748.9,253.1 749.7,260.9 750.5,261.1 751.4,261.2 752.2,261.3 753.0,269.6 753.8,269.6 754.7,269.7 755.5,269.8 756.3,270.9 757.1,271.0 758.0,271.0 758.8,271.0 759.6,270.9 760.5,271.0 761.3,271.0 762.1,271.0 762.9,261.9 763.8,262.0 764.6,262.0 765.4,262.1 766.2,261.9 767.1,262.0 767.9,262.1 768.7,262.1 769.5,261.8 770.4,261.8 771.2,261.9 772.0,262.0 772.9,261.4 773.7,261.5 774.5,261.5 775.3,261.6 776.2,261.0 777.0,261.1 777.8,261.2 778.6,261.3 779.5,255.3 780.3,255.4 781.1,255.5 781.9,255.6 782.8,255.4 783.6,255.5 784.4,255.6 785.3,255.7 786.1,256.0 786.9,256.1 787.7,256.2 788.6,256.3 789.4,256.5 790.2,256.6 791.0,256.7 791.9,256.8 792.7,257.0 793.5,257.1 794.3,257.2 795.2,257.3 796.0,267.6"/>
<text x="640" y="56" font-family="Arial" font-size="12" fill="#0f766e">ekf_dropout_robust NEES proxy</text>
</svg>