<svg xmlns="http://www.w3.org/2000/svg" width="820" height="320" viewBox="0 0 820 320">
<rect width="100%" height="100%" fill="white"/>
<text x="52" y="30" font-family="Arial" font-size="18" font-weight="700">ekf_nominal NEES proxy</text>
<line x1="52" y1="274" x2="796" y2="274" stroke="#263238"/>
<line x1="52" y1="42" x2="52" y2="274" stroke="#263238"/>
<text x="52" y="306" font-family="Arial" font-size="12">time (s)</text>
<text x="630" y="306" font-family="Arial" font-size="12">value</text>

<polyline fill="none" stroke="#0f766e" stroke-width="2.3" points="52.0,42.0 52.8,43.0 53.7,46.8 54.5,53.0 55.3,61.0 56.1,70.8 57.0,81.6 57.8,93.1 58.6,104.3 59.4,115.8 60.3,127.0 61.1,137.7 61.9,148.3 62.7,157.6 63.6,166.3 64.4,174.2 65.2,178.1 66.1,184.8 66.9,190.9 67.7,196.4 68.5,254.5 69.4,257.2 70.2,259.1 71.0,260.4 71.8,262.2 72.7,262.7 73.5,262.8 74.3,262.6 75.1,262.5 76.0,262.0 76.8,261.4 77.6,260.6 78.5,257.4 79.3,256.6 80.1,255.7 80.9,254.8 81.8,256.2 82.6,255.3 83.4,254.3 84.2,253.4 85.1,271.3 85.9,270.2 86.7,268.9 87.5,267.6 88.4,265.7 89.2,264.5 90.0,263.3 90.9,262.1 91.7,259.0 92.5,257.8 93.3,256.7 94.2,255.6 95.0,251.0 95.8,250.0 96.6,249.0 97.5,248.1 98.3,244.7 99.1,244.0 99.9,243.2 100.8,242.5 101.6,226.9 102.4,225.7 103.3,224.6 104.1,223.5 104.9,222.1 105.7,221.2 106.6,220.5 107.4,219.7 108.2,222.4 109.0,221.7 109.9,221.1 110.7,220.5 111.5,224.6 112.3,223.9 113.2,223.2 114.0,222.6 114.8,216.6 115.7,216.4 116.5,216.2 117.3,216.0 118.1,237.2 119.0,237.0 119.8,236.8 120.6,236.6 121.4,232.3 122.3,232.4 123.1,232.6 123.9,232.7 124.7,233.5 125.6,233.7 126.4,234.0 127.2,234.3 128.1,237.2 128.9,237.3 129.7,237.4 130.5,237.5 131.4,237.6 132.2,237.7 133.0,237.8 133.8,237.9 134.7,240.5 135.5,240.9 136.3,241.3 137.1,241.8 138.0,238.3 138.8,239.2 139.6,240.0 140.5,240.8 141.3,241.2 142.1,242.1 142.9,242.9 143.8,243.7 144.6,244.3 145.4,245.1 146.2,245.9 147.1,246.7 147.9,246.9 148.7,247.7 149.5,248.5 150.4,249.2 151.2,257.9 152.0,258.8 152.9,259.6 153.7,260.4 154.5,260.3 155.3,260.8 156.2,261.4 157.0,261.9 157.8,263.9 158.6,264.5 159.5,265.1 160.3,265.6 161.1,265.9 161.9,266.4 162.8,266.8 163.6,267.2 164.4,268.2 165.3,268.6 166.1,269.1 166.9,269.5 167.7,260.2 168.6,261.0 169.4,261.8 170.2,262.5 171.0,264.1 171.9,264.9 172.7,265.7 173.5,266.4 174.3,267.1 175.2,267.7 176.0,268.3 176.8,268.8 177.7,269.3 178.5,269.8 179.3,270.3 180.1,270.7 181.0,271.0 181.8,271.4 182.6,271.7 183.4,272.0 184.3,267.0 185.1,266.4 185.9,265.7 186.7,265.1 187.6,264.2 188.4,263.5 189.2,262.8 190.1,262.0 190.9,258.0 191.7,257.1 192.5,256.2 193.4,255.4 194.2,257.8 195.0,257.0 195.8,256.2 196.7,255.5 197.5,253.2 198.3,252.4 199.1,251.6 200.0,250.8 200.8,262.4 201.6,261.5 202.5,260.6 203.3,259.7 204.1,257.0 204.9,256.1 205.8,255.2 206.6,254.3 207.4,257.8 208.2,256.9 209.1,256.1 209.9,255.3 210.7,255.6 211.5,254.8 212.4,254.1 213.2,253.3 214.0,252.5 214.9,251.8 215.7,251.1 216.5,250.4 217.3,248.1 218.2,247.1 219.0,246.1 219.8,245.1 220.6,243.6 221.5,242.6 222.3,241.6 223.1,240.6 223.9,242.6 224.8,241.7 225.6,240.9 226.4,240.0 227.3,239.1 228.1,238.3 228.9,237.5 229.7,236.7 230.6,234.0 231.4,233.2 232.2,232.4 233.0,231.6 233.9,211.7 234.7,210.5 235.5,209.3 236.3,208.1 237.2,204.8 238.0,203.6 238.8,202.5 239.7,201.4 240.5,201.8 241.3,200.8 242.1,199.8 243.0,198.8 243.8,203.6 244.6,202.7 245.4,201.8 246.3,200.9 247.1,198.5 247.9,197.7 248.7,196.9 249.6,196.2 250.4,219.3 251.2,218.4 252.1,217.6 252.9,216.8 253.7,208.2 254.5,207.4 255.4,206.7 256.2,205.9 257.0,208.3 257.8,207.5 258.7,206.9 259.5,206.2 260.3,206.3 261.1,205.7 262.0,205.0 262.8,204.4 263.6,201.7 264.5,201.2 265.3,200.6 266.1,200.1 266.9,207.5 267.8,206.9 268.6,206.2 269.4,205.6 270.2,204.8 271.1,204.2 271.9,203.6 272.7,203.1 273.5,204.5 274.4,204.0 275.2,203.5 276.0,203.1 276.9,197.2 277.7,196.8 278.5,196.4 279.3,196.0 280.2,188.2 281.0,187.8 281.8,187.5 282.6,187.2 283.5,241.5 284.3,241.4 285.1,241.3 285.9,241.2 286.8,238.1 287.6,238.0 288.4,237.9 289.3,237.8 290.1,222.5 290.9,222.5 291.7,222.5 292.6,222.6 293.4,236.7 294.2,236.7 295.0,236.7 295.9,236.8 296.7,215.7 297.5,215.8 298.3,215.9 299.2,216.0 300.0,233.9 300.8,234.0 301.7,234.0 302.5,234.1 303.3,214.0 304.1,214.2 305.0,214.4 305.8,214.6 306.6,217.5 307.4,217.8 308.3,218.0 309.1,218.3 309.9,215.4 310.7,215.7 311.6,216.0 312.4,216.3 313.2,221.9 314.1,222.2 314.9,222.5 315.7,222.9 316.5,239.5 317.4,239.7 318.2,239.9 319.0,240.1 319.8,256.3 320.7,256.4 321.5,256.5 322.3,256.5 323.1,262.1 324.0,262.0 324.8,261.9 325.6,261.8 326.5,260.1 327.3,260.1 328.1,260.1 328.9,260.1 329.8,258.9 330.6,259.0 331.4,259.0 332.2,259.0 333.1,271.0 333.9,271.0 334.7,271.0 335.5,270.9 336.4,270.7 337.2,270.6 338.0,270.6 338.9,270.5 339.7,270.4 340.5,270.3 341.3,270.2 342.2,270.1 343.0,270.1 343.8,270.0 344.6,269.9 345.5,269.8 346.3,268.6 347.1,268.5 347.9,268.4 348.8,268.3 349.6,273.2 350.4,273.3 351.3,273.3 352.1,273.3 352.9,268.5 353.7,268.6 354.6,268.8 355.4,268.9 356.2,272.7 357.0,272.8 357.9,272.8 358.7,272.9 359.5,268.5 360.3,268.6 361.2,268.7 362.0,268.9 362.8,262.7 363.7,262.9 364.5,263.0 365.3,263.2 366.1,269.2 367.0,269.4 367.8,269.6 368.6,269.7 369.4,265.8 370.3,266.0 371.1,266.2 371.9,266.4 372.7,265.5 373.6,265.7 374.4,265.9 375.2,266.1 376.1,266.3 376.9,266.5 377.7,266.7 378.5,266.9 379.4,265.6 380.2,265.8 381.0,266.1 381.8,266.3 382.7,262.9 383.5,263.1 384.3,263.4 385.1,263.6 386.0,257.4 386.8,257.7 387.6,258.0 388.5,258.4 389.3,264.4 390.1,264.6 390.9,264.9 391.8,265.1 392.6,265.9 393.4,266.2 394.2,266.4 395.1,266.6 395.9,269.1 396.7,269.3 397.5,269.5 398.4,269.7 399.2,264.0 400.0,264.3 400.9,264.5 401.7,264.7 402.5,266.2 403.3,266.4 404.2,266.6 405.0,266.8 405.8,270.9 406.6,271.0 407.5,271.1 408.3,271.3 409.1,271.5 409.9,271.6 410.8,271.8 411.6,271.9 412.4,273.9 413.3,273.9 414.1,274.0 414.9,274.0 415.7,272.6 416.6,272.6 417.4,272.7 418.2,272.7 419.0,273.1 419.9,273.1 420.7,273.1 421.5,273.1 422.3,273.2 423.2,273.2 424.0,273.1 424.8,273.1 425.7,272.6 426.5,272.6 427.3,272.6 428.1,272.7 429.0,272.2 429.8,272.2 430.6,272.3 431.4,272.3 432.3,266.3 433.1,266.2 433.9,266.2 434.7,266.1 435.6,265.8 436.4,265.7 437.2,265.6 438.1,265.6 438.9,264.0 439.7,263.8 440.5,263.7 441.4,263.6 442.2,262.0 443.0,261.9 443.8,261.7 444.7,261.6 445.5,264.3 446.3,264.2 447.1,264.0 448.0,263.9 448.8,255.9 449.6,255.8 450.5,255.7 451.3,255.5 452.1,255.9 452.9,255.8 453.8,255.6 454.6,255.5 455.4,258.4 456.2,258.3 457.1,258.2 457.9,258.1 458.7,251.4 459.5,251.3 460.4,251.1 461.2,251.0 462.0,255.0 462.9,254.9 463.7,254.8 464.5,254.7 465.3,243.5 466.2,243.3 467.0,243.1 467.8,242.9 468.6,247.9 469.5,247.8 470.3,247.6 471.1,247.4 471.9,237.7 472.8,237.5 473.6,237.3 474.4,237.1 475.3,237.9 476.1,237.7 476.9,237.5 477.7,237.3 478.6,230.8 479.4,230.6 480.2,230.5 481.0,230.3 481.9,237.5 482.7,237.4 483.5,237.2 484.3,237.1 485.2,244.4 486.0,244.3 486.8,244.2 487.7,244.2 488.5,248.0 489.3,248.0 490.1,247.9 491.0,247.9 491.8,249.3 492.6,249.2 493.4,249.2 494.3,249.1 495.1,255.1 495.9,255.1 496.7,255.0 497.6,255.0 498.4,253.0 499.2,252.9 500.1,252.9 500.9,252.8 501.7,253.5 502.5,253.4 503.4,253.3 504.2,253.2 505.0,252.7 505.8,252.6 506.7,252.5 507.5,252.5 508.3,253.1 509.1,253.0 510.0,252.9 510.8,252.9 511.6,252.7 512.5,252.6 513.3,252.5 514.1,252.5 514.9,265.0 515.8,264.9 516.6,264.9 517.4,264.8 518.2,267.6 519.1,267.5 519.9,267.5 520.7,267.5 521.5,267.4 522.4,267.3 523.2,267.3 524.0,267.3 524.9,267.2 525.7,267.2 526.5,267.2 527.3,267.1 528.2,267.1 529.0,267.1 529.8,267.0 530.6,267.0 531.5,270.7 532.3,270.7 533.1,270.6 533.9,270.6 534.8,267.8 535.6,267.8 536.4,267.8 537.3,267.8 538.1,269.4 538.9,269.4 539.7,269.3 540.6,269.3 541.4,270.2 542.2,270.2 543.0,270.2 543.9,270.1 544.7,270.4 545.5,270.3 546.3,270.3 547.2,270.3 548.0,270.3 548.8,270.3 549.7,270.2 550.5,270.2 551.3,269.8 552.1,269.7 553.0,269.6 553.8,269.5 554.6,269.8 555.4,269.8 556.3,269.7 557.1,269.7 557.9,269.6 558.7,269.5 559.6,269.5 560.4,269.4 561.2,268.1 562.1,268.0 562.9,268.0 563.7,268.0 564.5,255.7 565.4,255.6 566.2,255.5 567.0,255.4 567.8,254.3 568.7,254.2 569.5,254.1 570.3,254.1 571.1,252.3 572.0,252.3 572.8,252.2 573.6,252.1 574.5,254.6 575.3,254.5 576.1,254.4 576.9,254.3 577.8,252.7 578.6,252.6 579.4,252.6 580.2,252.5 581.1,258.7 581.9,258.6 582.7,258.6 583.5,258.6 584.4,257.4 585.2,257.4 586.0,257.4 586.9,257.4 587.7,254.8 588.5,254.8 589.3,254.9 590.2,254.9 591.0,253.0 591.8,253.0 592.6,253.1 593.5,253.1 594.3,254.5 595.1,254.6 595.9,254.6 596.8,254.7 597.6,254.8 598.4,254.9 599.3,255.0 600.1,255.1 600.9,255.8 601.7,255.9 602.6,256.0 603.4,256.1 604.2,256.6 605.0,256.7 605.9,256.8 606.7,256.9 607.5,260.4 608.3,260.4 609.2,260.5 610.0,260.5 610.8,261.6 611.7,261.6 612.5,261.6 613.3,261.6 614.1,264.8 615.0,264.8 615.8,264.8 616.6,264.7 617.4,265.3 618.3,265.3 619.1,265.3 619.9,265.3 620.7,265.1 621.6,265.0 622.4,265.0 623.2,264.9 624.1,262.8 624.9,262.6 625.7,262.5 626.5,262.4 627.4,260.1 628.2,259.9 629.0,259.7 629.8,259.6 630.7,260.5 631.5,260.3 632.3,260.2 633.1,260.0 634.0,259.5 634.8,259.3 635.6,259.2 636.5,259.0 637.3,262.8 638.1,262.7 638.9,262.6 639.8,262.5 640.6,262.1 641.4,262.0 642.2,261.9 643.1,261.8 643.9,263.5 644.7,263.5 645.5,263.4 646.4,263.3 647.2,264.4 648.0,264.4 648.9,264.3 649.7,264.3 650.5,264.2 651.3,264.2 652.2,264.1 653.0,264.1 653.8,263.5 654.6,263.4 655.5,263.4 656.3,263.3 657.1,264.0 657.9,264.0 658.8,263.9 659.6,263.9 660.4,262.2 661.3,262.2 662.1,262.3 662.9,262.3 663.7,261.0 664.6,261.0 665.4,261.0 666.2,261.1 667.0,259.7 667.9,259.7 668.7,259.8 669.5,259.8 670.3,260.5 671.2,260.6 672.0,260.6 672.8,260.6 673.7,262.6 674.5,262.6 675.3,262.7 676.1,262.7 677.0,262.9 677.8,262.9 678.6,262.9 679.4,262.9 680.3,272.1 681.1,272.1 681.9,272.1 682.7,272.1 683.6,270.4 684.4,270.5 685.2,270.5 686.1,270.5 686.9,270.4 687.7,270.4 688.5,270.4 689.4,270.4 690.2,269.3 691.0,269.3 691.8,269.3 692.7,269.3 693.5,268.6 694.3,268.6 695.1,268.6 696.0,268.7 696.8,261.0 697.6,261.0 698.5,261.1 699.3,261.1 700.1,256.2 700.9,256.3 701.8,256.4 702.6,256.4 703.4,256.0 704.2,256.1 705.1,256.2 705.9,256.2 706.7,251.1 707.5,251.1 708.4,251.2 709.2,251.3 710.0,261.3 710.9,261.4 711.7,261.4 712.5,261.5 713.3,251.9 714.2,252.0 715.0,252.1 715.8,252.2 716.6,259.3 717.5,259.4 718.3,259.5 719.1,259.6 719.9,264.7 720.8,264.8 721.6,264.9 722.4,264.9 723.3,265.4 724.1,265.5 724.9,265.5 725.7,265.6 726.6,266.2 727.4,266.2 728.2,266.3 729.0,266.3 729.9,265.6 730.7,265.6 731.5,265.7 732.3,265.8 733.2,265.9 734.0,265.9 734.8,266.0 735.7,266.0 736.5,266.5 737.3,266.5 738.1,266.6 739.0,266.6 739.8,264.8 740.6,264.8 741.4,264.9 742.3,264.9 743.1,254.5 743.9,254.6 744.7,254.6 745.6,254.7 746.4,246.6 747.2,246.7 748.1,246.7 748.9,246.8 749.7,254.7 750.5,254.7 751.4,254.8 752.2,254.8 753.0,264.3 753.8,264.4 754.7,264.4 755.5,264.4 756.3,266.5 757.1,266.6 758.0,266.6 758.8,266.6 759.6,266.2 760.5,266.2 761.3,266.2 762.1,266.2 762.9,260.3 763.8,260.4 764.6,260.4 765.4,260.4 766.2,259.5 767.1,259.5 767.9,259.5 768.7,259.5 769.5,258.8 770.4,258.8 771.2,258.9 772.0,258.9 772.9,257.9 773.7,258.0 774.5,258.0 775.3,258.0 776.2,257.2 777.0,257.2 777.8,257.2 778.6,257.3 779.5,252.3 780.3,252.4 781.1,252.5 781.9,252.6 782.8,253.2 783.6,253.3 784.4,253.3 785.3,253.4 786.1,253.4 786.9,253.5 787.7,253.6 788.6,253.6 789.4,252.7 790.2,252.8 791.0,252.9 791.9,253.0 792.7,253.8 793.5,253.9 794.3,254.0 795.2,254.0 796.0,263.4"/>
<text x="640" y="56" font-family="Arial" font-size="12" fill="#0f766e">ekf_nominal NEES proxy</text>
</svg>