<svg xmlns="http://www.w3.org/2000/svg" width="820" height="320" viewBox="0 0 820 320">
<rect width="100%" height="100%" fill="white"/>
<text x="52" y="30" font-family="Arial" font-size="18" font-weight="700">ekf_dropout_robust NIS</text>
<line x1="52" y1="274" x2="796" y2="274" stroke="#263238"/>
<line x1="52" y1="42" x2="52" y2="274" stroke="#263238"/>
<text x="52" y="306" font-family="Arial" font-size="12">time (s)</text>
<text x="630" y="306" font-family="Arial" font-size="12">value</text>

<polyline fill="none" stroke="#0f766e" stroke-width="2.3" points="52.0,107.7 52.0,272.1 55.3,273.4 58.6,274.0 61.9,272.7 65.2,262.2 68.5,42.0 68.5,267.9 71.8,271.7 75.1,273.1 78.5,272.9 81.8,266.0 85.1,211.6 85.1,261.1 88.4,236.9 91.7,273.3 95.0,272.5 98.3,274.0 101.6,255.0 101.6,266.0 104.9,272.2 108.2,266.4 111.5,255.3 114.8,261.0 118.1,200.3 118.1,273.3 121.4,271.4 124.7,272.2 128.1,259.8 131.4,272.2 134.7,179.1 134.7,265.1 138.0,245.7 141.3,273.8 144.6,273.8 147.9,274.0 151.2,223.8 151.2,273.1 154.5,260.9 157.8,255.7 161.1,272.9 164.4,266.7 167.7,266.2 167.7,272.1 171.0,246.7 174.3,274.0 177.7,273.8 181.0,273.1 184.3,194.8 184.3,270.7 187.6,272.9 190.9,257.3 194.2,256.7 197.5,272.4 200.8,240.7 200.8,270.9 204.1,272.7 207.4,245.4 210.7,266.4 214.0,274.0 217.3,259.3 217.3,270.2 220.6,274.0 223.9,227.9 227.3,272.7 230.6,237.5 233.9,231.0 233.9,270.8 237.2,273.7 240.5,270.4 243.8,242.4 247.1,272.7 250.4,197.2 250.4,261.2 253.7,223.3 257.0,264.7 260.3,272.4 263.6,272.9 266.9,212.2 266.9,273.8 270.2,273.7 273.5,269.1 276.9,262.6 280.2,264.3 283.5,45.3 283.5,273.3 286.8,274.0 290.1,258.0 293.4,226.2 296.7,238.7 300.0,262.8 300.0,229.5 303.3,246.4 306.6,266.3 309.9,273.2 313.2,261.7 316.5,252.9 316.5,236.1 319.8,167.9 323.1,203.2 326.5,250.5 329.8,269.8 333.1,201.7 333.1,268.3 336.4,264.7 339.7,273.4 343.0,272.5 346.3,272.1 349.6,171.2 349.6,198.2 352.9,211.7 356.2,242.6 359.5,235.9 362.8,254.0 366.1,256.9 366.1,230.4 369.4,260.1 372.7,273.9 376.1,273.5 379.4,273.8 382.7,268.9 382.7,270.0 386.0,264.0 389.3,250.2 392.6,272.4 395.9,266.0 399.2,253.3 399.2,252.8 402.5,270.6 405.8,253.5 409.1,273.7 412.4,256.9 415.7,263.9 415.7,266.2 419.0,272.7 422.3,273.5 425.7,263.3 429.0,272.2 432.3,255.8 432.3,258.6 435.6,273.8 438.9,266.5 442.2,272.7 445.5,250.9 448.8,248.3 448.8,236.6 452.1,272.0 455.4,258.6 458.7,246.5 462.0,255.6 465.3,193.2 465.3,272.9 468.6,248.6 471.9,240.0 475.3,270.9 478.6,269.8 481.9,239.5 481.9,273.5 485.2,248.4 488.5,263.1 491.8,270.9 495.1,246.9 498.4,271.5 498.4,222.4 501.7,269.5 505.0,247.2 508.3,254.0 511.6,267.6 514.9,207.3 514.9,241.5 518.2,218.6 521.5,273.1 524.9,273.5 528.2,269.3 531.5,252.9 531.5,266.8 534.8,254.5 538.1,260.0 541.4,263.3 544.7,267.8 548.0,267.2 548.0,273.9 551.3,262.4 554.6,262.6 557.9,272.2 561.2,242.3 564.5,244.8 564.5,263.1 567.8,268.7 571.1,269.8 574.5,236.4 577.8,260.8 581.1,213.7 581.1,263.5 584.4,273.6 587.7,270.6 591.0,273.4 594.3,269.1 597.6,203.6 597.6,250.4 600.9,271.7 604.2,272.5 607.5,254.9 610.8,269.8 614.1,264.3 614.1,273.2 617.4,269.0 620.7,262.7 624.1,258.2 627.4,270.9 630.7,243.4 630.7,273.4 634.0,273.7 637.3,243.3 640.6,274.0 643.9,261.3 647.2,269.0 647.2,255.1 650.5,273.5 653.8,269.6 657.1,265.3 660.4,216.4 663.7,226.5 663.7,273.8 667.0,272.2 670.3,270.9 673.7,248.8 677.0,259.7 680.3,195.3 680.3,254.3 683.6,263.5 686.9,273.8 690.2,273.0 693.5,274.0 696.8,254.3 696.8,270.0 700.1,268.2 703.4,272.8 706.7,271.1 710.0,208.8 713.3,270.2 713.3,258.9 716.6,235.6 719.9,232.1 723.3,272.8 726.6,272.2 729.9,268.9 729.9,268.1 733.2,273.8 736.5,273.2 739.8,266.7 743.1,204.4 746.4,225.4 746.4,273.9 749.7,237.9 753.0,182.0 756.3,255.3 759.6,272.3 762.9,181.9 762.9,272.9 766.2,265.0 769.5,272.2 772.9,272.4 776.2,273.4 779.5,243.7 779.5,248.4 782.8,267.6 786.1,272.9 789.4,259.6 792.7,269.8 796.0,233.9 796.0,273.8"/>
<text x="640" y="56" font-family="Arial" font-size="12" fill="#0f766e">ekf_dropout_robust NIS</text>
</svg>