<svg xmlns="http://www.w3.org/2000/svg" width="820" height="320" viewBox="0 0 820 320">
<rect width="100%" height="100%" fill="white"/>
<text x="52" y="30" font-family="Arial" font-size="18" font-weight="700">ekf_nominal NIS</text>
<line x1="52" y1="274" x2="796" y2="274" stroke="#263238"/>
<line x1="52" y1="42" x2="52" y2="274" stroke="#263238"/>
<text x="52" y="306" font-family="Arial" font-size="12">time (s)</text>
<text x="630" y="306" font-family="Arial" font-size="12">value</text>

<polyline fill="none" stroke="#0f766e" stroke-width="2.3" points="52.0,163.2 52.0,272.6 55.3,273.2 58.6,274.0 61.9,272.3 65.2,260.7 68.5,70.0 68.5,266.3 71.8,271.3 75.1,273.0 78.5,272.6 81.8,264.6 85.1,191.0 85.1,259.0 88.4,228.5 91.7,273.3 95.0,272.4 98.3,274.0 101.6,248.6 101.6,265.5 104.9,271.1 108.2,264.2 111.5,252.2 114.8,257.4 118.1,200.7 118.1,273.2 121.4,270.7 124.7,271.9 128.1,257.7 131.4,272.3 134.7,185.0 134.7,262.5 138.0,239.3 141.3,273.8 144.6,273.7 147.9,274.0 151.2,228.1 151.2,272.9 154.5,258.2 157.8,251.7 161.1,272.7 164.4,265.0 167.7,266.6 167.7,271.6 171.0,241.3 174.3,274.0 177.7,273.7 181.0,272.9 184.3,217.9 184.3,270.0 187.6,272.7 190.9,254.0 194.2,252.9 197.5,272.2 200.8,232.7 200.8,270.2 204.1,272.5 207.4,238.9 210.7,264.5 214.0,274.0 217.3,253.8 217.3,269.6 220.6,274.0 223.9,217.5 227.3,272.2 230.6,230.8 233.9,227.7 233.9,269.9 237.2,273.6 240.5,269.9 243.8,236.1 247.1,272.5 250.4,189.8 250.4,257.9 253.7,213.8 257.0,262.5 260.3,271.8 263.6,272.8 266.9,208.0 266.9,273.9 270.2,273.5 273.5,267.3 276.9,261.1 280.2,262.8 283.5,42.0 283.5,273.1 286.8,274.0 290.1,254.2 293.4,216.6 296.7,231.0 300.0,261.2 300.0,220.3 303.3,240.7 306.6,264.8 309.9,273.1 313.2,258.7 316.5,252.0 316.5,225.0 319.8,136.2 323.1,176.3 326.5,252.3 329.8,271.2 333.1,198.8 333.1,263.2 336.4,257.5 339.7,274.0 343.0,273.6 346.3,269.2 349.6,173.7 349.6,191.4 352.9,203.0 356.2,233.4 359.5,230.3 362.8,249.9 366.1,256.0 366.1,220.8 369.4,257.6 372.7,273.9 376.1,273.4 379.4,273.7 382.7,269.3 382.7,268.9 386.0,260.8 389.3,246.7 392.6,272.3 395.9,264.3 399.2,255.2 399.2,248.0 402.5,270.2 405.8,249.1 409.1,273.6 412.4,251.9 415.7,264.3 415.7,265.8 419.0,271.9 422.3,272.9 425.7,262.3 429.0,272.0 432.3,256.3 432.3,253.7 435.6,273.5 438.9,263.1 442.2,271.5 445.5,249.0 448.8,248.9 448.8,225.9 452.1,272.4 455.4,256.9 458.7,238.5 462.0,253.6 465.3,196.4 465.3,272.1 468.6,245.1 471.9,230.7 475.3,271.0 478.6,267.9 481.9,240.3 481.9,273.7 485.2,244.5 488.5,260.8 491.8,269.8 495.1,238.6 498.4,271.4 498.4,204.0 501.7,265.3 505.0,232.5 508.3,256.9 511.6,269.5 514.9,208.0 514.9,240.6 518.2,198.2 521.5,271.1 524.9,274.0 528.2,270.8 531.5,250.6 531.5,261.2 534.8,242.7 538.1,262.6 541.4,265.0 544.7,268.9 548.0,266.2 548.0,273.6 551.3,262.4 554.6,257.7 557.9,272.7 561.2,230.7 564.5,243.7 564.5,263.6 567.8,265.6 571.1,266.7 574.5,233.2 577.8,255.6 581.1,218.4 581.1,259.2 584.4,272.9 587.7,268.3 591.0,272.5 594.3,269.7 597.6,206.5 597.6,242.9 600.9,272.1 604.2,272.7 607.5,252.2 610.8,269.0 614.1,262.8 614.1,272.9 617.4,267.2 620.7,258.4 624.1,251.5 627.4,268.1 630.7,243.8 630.7,273.8 634.0,274.0 637.3,240.6 640.6,274.0 643.9,259.8 647.2,268.6 647.2,251.0 650.5,273.6 653.8,269.0 657.1,263.0 660.4,200.1 663.7,221.1 663.7,273.2 667.0,270.5 670.3,271.7 673.7,246.7 677.0,257.9 680.3,196.1 680.3,248.5 683.6,259.1 686.9,274.0 690.2,271.9 693.5,273.7 696.8,257.2 696.8,266.9 700.1,263.8 703.4,273.6 706.7,268.1 710.0,202.8 713.3,270.8 713.3,252.5 716.6,231.7 719.9,224.6 723.3,272.4 726.6,271.5 729.9,268.0 729.9,267.4 733.2,273.7 736.5,272.8 739.8,265.7 743.1,188.1 746.4,225.8 746.4,273.6 749.7,234.0 753.0,163.0 756.3,249.1 759.6,272.7 762.9,178.2 762.9,271.7 766.2,265.4 769.5,272.6 772.9,272.7 776.2,273.6 779.5,247.8 779.5,238.9 782.8,263.3 786.1,273.6 789.4,259.9 792.7,267.0 796.0,235.8 796.0,274.0"/>
<text x="640" y="56" font-family="Arial" font-size="12" fill="#0f766e">ekf_nominal NIS</text>
</svg>