<svg xmlns="http://www.w3.org/2000/svg" width="820" height="320" viewBox="0 0 820 320">
<rect width="100%" height="100%" fill="white"/>
<text x="52" y="30" font-family="Arial" font-size="18" font-weight="700">nominal covariance trace</text>
<line x1="52" y1="274" x2="796" y2="274" stroke="#263238"/>
<line x1="52" y1="42" x2="52" y2="274" stroke="#263238"/>
<text x="52" y="306" font-family="Arial" font-size="12">time (s)</text>
<text x="630" y="306" font-family="Arial" font-size="12">sqrt trace P</text>

<polyline fill="none" stroke="#0f766e" stroke-width="2.3" points="52.0,180.6 52.8,179.8 53.7,177.4 54.5,173.6 55.3,173.5 56.1,168.1 57.0,161.6 57.8,154.0 58.6,150.5 59.4,142.1 60.3,133.1 61.1,123.5 61.9,116.9 62.7,106.8 63.6,96.3 64.4,85.4 65.2,76.4 66.1,65.2 66.9,53.7 67.7,42.0 68.5,194.5 69.4,188.2 70.2,181.5 71.0,174.6 71.8,168.9 72.7,161.6 73.5,154.1 74.3,146.3 75.1,139.5 76.0,131.5 76.8,123.4 77.6,115.1 78.5,107.5 79.3,99.0 80.1,90.4 80.9,81.8 81.8,73.6 82.6,64.8 83.4,55.9 84.2,46.9 85.1,196.2 85.9,191.4 86.7,186.5 87.5,181.6 88.4,177.2 89.2,172.1 90.0,166.8 90.9,161.5 91.7,156.7 92.5,151.3 93.3,145.8 94.2,140.2 95.0,135.1 95.8,129.4 96.6,123.6 97.5,117.7 98.3,112.3 99.1,106.4 99.9,100.4 100.8,94.3 101.6,204.3 102.4,200.6 103.3,196.9 104.1,193.1 104.9,189.9 105.7,186.0 106.6,182.0 107.4,177.9 108.2,174.4 109.0,170.2 109.9,165.9 110.7,161.6 111.5,157.8 112.3,153.4 113.2,148.9 114.0,144.3 114.8,140.2 115.7,135.5 116.5,130.8 117.3,125.9 118.1,211.4 119.0,208.2 119.8,204.9 120.6,201.6 121.4,198.9 122.3,195.4 123.1,191.9 123.9,188.3 124.7,185.2 125.6,181.4 126.4,177.6 127.2,173.7 128.1,170.3 128.9,166.2 129.7,162.1 130.5,157.9 131.4,154.1 132.2,149.8 133.0,145.4 133.8,141.0 134.7,215.4 135.5,212.3 136.3,209.2 137.1,206.0 138.0,203.2 138.8,199.8 139.6,196.4 140.5,192.8 141.3,189.7 142.1,186.0 142.9,182.2 143.8,178.4 144.6,174.9 145.4,170.9 146.2,166.8 147.1,162.6 147.9,158.7 148.7,154.4 149.5,150.1 150.4,145.6 151.2,216.8 152.0,213.7 152.9,210.6 153.7,207.3 154.5,204.4 155.3,201.0 156.2,197.5 157.0,194.0 157.8,190.7 158.6,187.0 159.5,183.2 160.3,179.4 161.1,175.8 161.9,171.8 162.8,167.7 163.6,163.5 164.4,159.6 165.3,155.3 166.1,150.9 166.9,146.5 167.7,217.2 168.6,214.1 169.4,211.0 170.2,207.8 171.0,204.8 171.9,201.5 172.7,198.1 173.5,194.6 174.3,191.3 175.2,187.7 176.0,184.0 176.8,180.3 177.7,176.7 178.5,172.8 179.3,168.9 180.1,164.9 181.0,161.0 181.8,156.9 182.6,152.7 183.4,148.4 184.3,217.9 185.1,214.9 185.9,211.9 186.7,208.9 187.6,206.0 188.4,202.8 189.2,199.6 190.1,196.3 190.9,193.2 191.7,189.8 192.5,186.3 193.4,182.8 194.2,179.4 195.0,175.8 195.8,172.1 196.7,168.3 197.5,164.7 198.3,160.9 199.1,157.0 200.0,153.0 200.8,219.4 201.6,216.6 202.5,213.8 203.3,211.0 204.1,208.3 204.9,205.4 205.8,202.4 206.6,199.3 207.4,196.4 208.2,193.3 209.1,190.1 209.9,186.8 210.7,183.7 211.5,180.4 212.4,177.0 213.2,173.6 214.0,170.3 214.9,166.8 215.7,163.3 216.5,159.7 217.3,221.6 218.2,219.1 219.0,216.5 219.8,213.9 220.6,211.4 221.5,208.7 222.3,206.0 223.1,203.2 223.9,200.5 224.8,197.7 225.6,194.8 226.4,191.9 227.3,189.0 228.1,186.0 228.9,183.0 229.7,179.9 230.6,176.9 231.4,173.7 232.2,170.6 233.0,167.3 233.9,224.3 234.7,221.9 235.5,219.6 236.3,217.2 237.2,214.9 238.0,212.5 238.8,210.0 239.7,207.5 240.5,205.1 241.3,202.5 242.1,199.9 243.0,197.2 243.8,194.7 244.6,192.0 245.4,189.2 246.3,186.4 247.1,183.8 247.9,180.9 248.7,178.1 249.6,175.2 250.4,227.1 251.2,225.0 252.1,222.9 252.9,220.7 253.7,218.6 254.5,216.4 255.4,214.2 256.2,211.9 257.0,209.7 257.8,207.3 258.7,205.0 259.5,202.6 260.3,200.3 261.1,197.8 262.0,195.4 262.8,192.9 263.6,190.4 264.5,187.9 265.3,185.3 266.1,182.7 266.9,230.1 267.8,228.1 268.6,226.2 269.4,224.2 270.2,222.3 271.1,220.3 271.9,218.2 272.7,216.1 273.5,214.2 274.4,212.0 275.2,209.9 276.0,207.7 276.9,205.6 277.7,203.4 278.5,201.2 279.3,198.9 280.2,196.7 281.0,194.4 281.8,192.1 282.6,189.8 283.5,233.0 284.3,231.2 285.1,229.4 285.9,227.6 286.8,225.9 287.6,224.0 288.4,222.1 289.3,220.2 290.1,218.4 290.9,216.5 291.7,214.5 292.6,212.6 293.4,210.7 294.2,208.7 295.0,206.6 295.9,204.6 296.7,202.6 297.5,200.5 298.3,198.4 299.2,196.3 300.0,235.8 300.8,234.1 301.7,232.5 302.5,230.8 303.3,229.2 304.1,227.5 305.0,225.8 305.8,224.1 306.6,222.4 307.4,220.7 308.3,218.9 309.1,217.1 309.9,215.3 310.7,213.5 311.6,211.6 312.4,209.8 313.2,208.0 314.1,206.1 314.9,204.1 315.7,202.2 316.5,238.5 317.4,237.0 318.2,235.4 319.0,233.9 319.8,232.4 320.7,230.9 321.5,229.3 322.3,227.7 323.1,226.2 324.0,224.5 324.8,222.9 325.6,221.2 326.5,219.6 327.3,218.0 328.1,216.2 328.9,214.5 329.8,212.9 330.6,211.1 331.4,209.4 332.2,207.6 333.1,241.0 333.9,239.6 334.7,238.2 335.5,236.8 336.4,235.4 337.2,234.0 338.0,232.5 338.9,231.0 339.7,229.6 340.5,228.1 341.3,226.6 342.2,225.1 343.0,223.6 343.8,222.1 344.6,220.5 345.5,218.9 346.3,217.4 347.1,215.8 347.9,214.2 348.8,212.5 349.6,243.4 350.4,242.1 351.3,240.8 352.1,239.5 352.9,238.2 353.7,236.9 354.6,235.5 355.4,234.1 356.2,232.8 357.0,231.5 357.9,230.0 358.7,228.6 359.5,227.3 360.3,225.8 361.2,224.4 362.0,222.9 362.8,221.5 363.7,220.0 364.5,218.6 365.3,217.0 366.1,245.7 367.0,244.5 367.8,243.3 368.6,242.0 369.4,240.9 370.3,239.6 371.1,238.3 371.9,237.0 372.7,235.8 373.6,234.5 374.4,233.2 375.2,231.9 376.1,230.7 376.9,229.3 377.7,228.0 378.5,226.6 379.4,225.3 380.2,223.9 381.0,222.6 381.8,221.2 382.7,247.9 383.5,246.7 384.3,245.6 385.1,244.4 386.0,243.3 386.8,242.1 387.6,240.9 388.5,239.7 389.3,238.6 390.1,237.4 390.9,236.2 391.8,234.9 392.6,233.8 393.4,232.5 394.2,231.3 395.1,230.0 395.9,228.8 396.7,227.5 397.5,226.2 398.4,224.9 399.2,249.9 400.0,248.8 400.9,247.7 401.7,246.6 402.5,245.6 403.3,244.5 404.2,243.4 405.0,242.3 405.8,241.2 406.6,240.1 407.5,238.9 408.3,237.8 409.1,236.7 409.9,235.5 410.8,234.3 411.6,233.1 412.4,232.0 413.3,230.8 414.1,229.6 414.9,228.4 415.7,251.8 416.6,250.8 417.4,249.8 418.2,248.7 419.0,247.8 419.9,246.7 420.7,245.7 421.5,244.6 422.3,243.6 423.2,242.6 424.0,241.5 424.8,240.4 425.7,239.4 426.5,238.3 427.3,237.1 428.1,236.0 429.0,235.0 429.8,233.9 430.6,232.7 431.4,231.6 432.3,253.6 433.1,252.6 433.9,251.7 434.7,250.7 435.6,249.8 436.4,248.8 437.2,247.8 438.1,246.8 438.9,245.9 439.7,244.9 440.5,243.8 441.4,242.8 442.2,241.9 443.0,240.8 443.8,239.8 444.7,238.7 445.5,237.7 446.3,236.7 447.1,235.6 448.0,234.5 448.8,255.3 449.6,254.4 450.5,253.5 451.3,252.5 452.1,251.7 452.9,250.8 453.8,249.8 454.6,248.8 455.4,248.0 456.2,247.0 457.1,246.0 457.9,245.1 458.7,244.2 459.5,243.2 460.4,242.2 461.2,241.2 462.0,240.3 462.9,239.2 463.7,238.2 464.5,237.2 465.3,256.9 466.2,256.0 467.0,255.1 467.8,254.3 468.6,253.5 469.5,252.6 470.3,251.7 471.1,250.8 471.9,249.9 472.8,249.0 473.6,248.1 474.4,247.2 475.3,246.3 476.1,245.4 476.9,244.4 477.7,243.5 478.6,242.6 479.4,241.6 480.2,240.7 481.0,239.7 481.9,258.4 482.7,257.6 483.5,256.7 484.3,255.9 485.2,255.1 486.0,254.3 486.8,253.4 487.7,252.5 488.5,251.8 489.3,250.9 490.1,250.0 491.0,249.1 491.8,248.3 492.6,247.4 493.4,246.5 494.3,245.6 495.1,244.8 495.9,243.9 496.7,242.9 497.6,242.0 498.4,259.8 499.2,259.0 500.1,258.2 500.9,257.4 501.7,256.7 502.5,255.9 503.4,255.0 504.2,254.2 505.0,253.5 505.8,252.6 506.7,251.8 507.5,250.9 508.3,250.2 509.1,249.3 510.0,248.5 510.8,247.6 511.6,246.8 512.5,245.9 513.3,245.0 514.1,244.2 514.9,261.1 515.8,260.4 516.6,259.6 517.4,258.8 518.2,258.1 519.1,257.4 519.9,256.6 520.7,255.8 521.5,255.1 522.4,254.3 523.2,253.4 524.0,252.6 524.9,251.9 525.7,251.1 526.5,250.3 527.3,249.4 528.2,248.7 529.0,247.8 529.8,247.0 530.6,246.1 531.5,262.4 532.3,261.7 533.1,260.9 533.9,260.2 534.8,259.5 535.6,258.7 536.4,258.0 537.3,257.2 538.1,256.5 538.9,255.8 539.7,255.0 540.6,254.2 541.4,253.5 542.2,252.7 543.0,251.9 543.9,251.1 544.7,250.4 545.5,249.6 546.3,248.8 547.2,248.0 548.0,263.6 548.8,262.9 549.7,262.1 550.5,261.4 551.3,260.8 552.1,260.1 553.0,259.3 553.8,258.6 554.6,257.9 555.4,257.2 556.3,256.4 557.1,255.7 557.9,255.0 558.7,254.3 559.6,253.5 560.4,252.7 561.2,252.0 562.1,251.3 562.9,250.5 563.7,249.7 564.5,264.7 565.4,264.0 566.2,263.3 567.0,262.6 567.8,262.0 568.7,261.3 569.5,260.6 570.3,259.8 571.1,259.2 572.0,258.5 572.8,257.8 573.6,257.0 574.5,256.4 575.3,255.7 576.1,254.9 576.9,254.2 577.8,253.5 578.6,252.8 579.4,252.0 580.2,251.3 581.1,265.7 581.9,265.0 582.7,264.4 583.5,263.7 584.4,263.1 585.2,262.4 586.0,261.7 586.9,261.0 587.7,260.4 588.5,259.7 589.3,259.0 590.2,258.3 591.0,257.7 591.8,257.0 592.6,256.3 593.5,255.6 594.3,254.9 595.1,254.2 595.9,253.5 596.8,252.7 597.6,266.7 598.4,266.0 599.3,265.4 600.1,264.7 600.9,264.1 601.7,263.5 602.6,262.8 603.4,262.1 604.2,261.6 605.0,260.9 605.9,260.2 606.7,259.5 607.5,258.9 608.3,258.2 609.2,257.5 610.0,256.8 610.8,256.2 611.7,255.5 612.5,254.8 613.3,254.1 614.1,267.6 615.0,266.9 615.8,266.3 616.6,265.6 617.4,265.1 618.3,264.5 619.1,263.8 619.9,263.2 620.7,262.6 621.6,261.9 622.4,261.3 623.2,260.6 624.1,260.0 624.9,259.3 625.7,258.7 626.5,258.0 627.4,257.4 628.2,256.7 629.0,256.0 629.8,255.3 630.7,268.4 631.5,267.8 632.3,267.2 633.1,266.5 634.0,266.0 634.8,265.4 635.6,264.7 636.5,264.1 637.3,263.6 638.1,262.9 638.9,262.3 639.8,261.6 640.6,261.1 641.4,260.4 642.2,259.7 643.1,259.1 643.9,258.5 644.7,257.8 645.5,257.2 646.4,256.5 647.2,269.2 648.0,268.6 648.9,268.0 649.7,267.4 650.5,266.8 651.3,266.2 652.2,265.6 653.0,265.0 653.8,264.5 654.6,263.8 655.5,263.2 656.3,262.6 657.1,262.0 657.9,261.4 658.8,260.7 659.6,260.1 660.4,259.5 661.3,258.9 662.1,258.2 662.9,257.5 663.7,269.9 664.6,269.3 665.4,268.7 666.2,268.1 667.0,267.6 667.9,267.0 668.7,266.4 669.5,265.8 670.3,265.3 671.2,264.7 672.0,264.0 672.8,263.4 673.7,262.9 674.5,262.3 675.3,261.6 676.1,261.0 677.0,260.5 677.8,259.8 678.6,259.2 679.4,258.5 680.3,270.6 681.1,270.0 681.9,269.4 682.7,268.8 683.6,268.3 684.4,267.7 685.2,267.1 686.1,266.5 686.9,266.0 687.7,265.4 688.5,264.8 689.4,264.2 690.2,263.7 691.0,263.1 691.8,262.5 692.7,261.8 693.5,261.3 694.3,260.7 695.1,260.1 696.0,259.4 696.8,271.2 697.6,270.6 698.5,270.0 699.3,269.5 700.1,269.0 700.9,268.4 701.8,267.8 702.6,267.2 703.4,266.8 704.2,266.2 705.1,265.6 705.9,265.0 706.7,264.5 707.5,263.9 708.4,263.2 709.2,262.6 710.0,262.1 710.9,261.5 711.7,260.9 712.5,260.2 713.3,271.8 714.2,271.2 715.0,270.6 715.8,270.1 716.6,269.6 717.5,269.0 718.3,268.5 719.1,267.9 719.9,267.4 720.8,266.8 721.6,266.2 722.4,265.6 723.3,265.1 724.1,264.6 724.9,264.0 725.7,263.3 726.6,262.8 727.4,262.2 728.2,261.6 729.0,261.0 729.9,272.3 730.7,271.7 731.5,271.2 732.3,270.6 733.2,270.2 734.0,269.6 734.8,269.0 735.7,268.5 736.5,268.0 737.3,267.4 738.1,266.8 739.0,266.3 739.8,265.8 740.6,265.2 741.4,264.6 742.3,264.0 743.1,263.5 743.9,262.9 744.7,262.3 745.6,261.7 746.4,272.8 747.2,272.2 748.1,271.7 748.9,271.1 749.7,270.7 750.5,270.1 751.4,269.6 752.2,269.0 753.0,268.5 753.8,268.0 754.7,267.4 755.5,266.8 756.3,266.4 757.1,265.8 758.0,265.2 758.8,264.6 759.6,264.1 760.5,263.5 761.3,262.9 762.1,262.3 762.9,273.2 763.8,272.7 764.6,272.1 765.4,271.6 766.2,271.2 767.1,270.6 767.9,270.1 768.7,269.5 769.5,269.0 770.4,268.5 771.2,267.9 772.0,267.3 772.9,266.9 773.7,266.3 774.5,265.7 775.3,265.2 776.2,264.7 777.0,264.1 777.8,263.5 778.6,262.9 779.5,273.6 780.3,273.1 781.1,272.6 781.9,272.0 782.8,271.6 783.6,271.0 784.4,270.5 785.3,269.9 786.1,269.5 786.9,268.9 787.7,268.4 788.6,267.8 789.4,267.4 790.2,266.8 791.0,266.2 791.9,265.7 792.7,265.2 793.5,264.6 794.3,264.0 795.2,263.4 796.0,274.0"/>
<text x="640" y="56" font-family="Arial" font-size="12" fill="#0f766e">nominal covariance trace</text>
</svg>