<svg xmlns="http://www.w3.org/2000/svg" width="820" height="320" viewBox="0 0 820 320">
<rect width="100%" height="100%" fill="white"/>
<text x="52" y="30" font-family="Arial" font-size="18" font-weight="700">ekf_nominal position error</text>
<line x1="52" y1="274" x2="796" y2="274" stroke="#263238"/>
<line x1="52" y1="42" x2="52" y2="274" stroke="#263238"/>
<text x="52" y="306" font-family="Arial" font-size="12">time (s)</text>
<text x="630" y="306" font-family="Arial" font-size="12">m</text>

<polyline fill="none" stroke="#0f766e" stroke-width="2.3" points="52.0,46.3 52.8,46.1 53.7,45.8 54.5,45.6 55.3,45.4 56.1,45.2 57.0,45.0 57.8,44.8 58.6,44.6 59.4,44.3 60.3,44.1 61.1,43.9 61.9,43.7 62.7,43.5 63.6,43.3 64.4,43.1 65.2,42.7 66.1,42.5 66.9,42.3 67.7,42.0 68.5,223.7 69.4,226.2 70.2,227.8 71.0,228.5 71.8,228.6 72.7,227.5 73.5,225.5 74.3,222.7 75.1,219.4 76.0,215.3 76.8,210.7 77.6,205.8 78.5,200.3 79.3,194.7 80.1,188.8 80.9,182.7 81.8,176.7 82.6,170.3 83.4,163.8 84.2,157.2 85.1,260.0 85.9,255.2 86.7,250.3 87.5,245.4 88.4,240.5 89.2,235.6 90.0,230.6 90.9,225.7 91.7,220.6 92.5,215.7 93.3,210.7 94.2,205.7 95.0,200.6 95.8,195.7 96.6,190.7 97.5,185.7 98.3,180.7 99.1,175.7 99.9,170.7 100.8,165.7 101.6,205.4 102.4,201.5 103.3,197.7 104.1,193.8 104.9,190.1 105.7,186.2 106.6,182.3 107.4,178.4 108.2,174.8 109.0,171.0 109.9,167.1 110.7,163.2 111.5,159.5 112.3,155.7 113.2,151.8 114.0,147.9 114.8,143.9 115.7,140.0 116.5,136.1 117.3,132.3 118.1,209.0 119.0,206.7 119.8,204.4 120.6,202.1 121.4,199.7 122.3,197.5 123.1,195.3 123.9,193.1 124.7,191.0 125.6,188.8 126.4,186.6 127.2,184.4 128.1,182.4 128.9,180.3 129.7,178.1 130.5,176.0 131.4,173.9 132.2,171.8 133.0,169.7 133.8,167.6 134.7,210.5 135.5,209.4 136.3,208.3 137.1,207.2 138.0,205.9 138.8,204.8 139.6,203.7 140.5,202.7 141.3,201.7 142.1,200.6 142.9,199.6 143.8,198.6 144.6,197.6 145.4,196.6 146.2,195.7 147.1,194.7 147.9,193.7 148.7,192.8 149.5,191.9 150.4,190.9 151.2,233.7 152.0,233.8 152.9,233.9 153.7,234.0 154.5,234.1 155.3,234.3 156.2,234.5 157.0,234.7 157.8,235.1 158.6,235.4 159.5,235.7 160.3,236.1 161.1,236.4 161.9,236.8 162.8,237.2 163.6,237.6 164.4,238.1 165.3,238.6 166.1,239.2 166.9,239.7 167.7,238.1 168.6,238.6 169.4,239.2 170.2,239.7 171.0,240.4 171.9,241.0 172.7,241.6 173.5,242.3 174.3,243.0 175.2,243.7 176.0,244.4 176.8,245.1 177.7,245.9 178.5,246.7 179.3,247.5 180.1,248.3 181.0,249.1 181.8,250.0 182.6,250.9 183.4,251.7 184.3,249.6 185.1,247.5 185.9,245.3 186.7,243.1 187.6,240.8 188.4,238.5 189.2,236.1 190.1,233.7 190.9,231.0 191.7,228.5 192.5,225.9 193.4,223.3 194.2,220.9 195.0,218.2 195.8,215.4 196.7,212.7 197.5,209.8 198.3,207.0 199.1,204.1 200.0,201.2 200.8,245.3 201.6,243.1 202.5,240.8 203.3,238.5 204.1,236.1 204.9,233.7 205.8,231.3 206.6,228.9 207.4,226.6 208.2,224.1 209.1,221.6 209.9,219.1 210.7,216.5 211.5,213.9 212.4,211.3 213.2,208.6 214.0,205.9 214.9,203.2 215.7,200.4 216.5,197.6 217.3,224.2 218.2,221.9 219.0,219.5 219.8,217.1 220.6,214.7 221.5,212.3 222.3,209.8 223.1,207.3 223.9,204.9 224.8,202.3 225.6,199.7 226.4,197.1 227.3,194.5 228.1,191.9 228.9,189.2 229.7,186.5 230.6,183.7 231.4,180.9 232.2,178.2 233.0,175.3 233.9,194.8 234.7,192.3 235.5,189.7 236.3,187.2 237.2,184.6 238.0,182.0 238.8,179.4 239.7,176.8 240.5,174.2 241.3,171.5 242.1,168.8 243.0,166.1 243.8,163.5 244.6,160.7 245.4,157.9 246.3,155.1 247.1,152.2 247.9,149.4 248.7,146.5 249.6,143.6 250.4,198.3 251.2,196.2 252.1,194.1 252.9,192.0 253.7,189.7 254.5,187.6 255.4,185.4 256.2,183.2 257.0,181.1 257.8,178.9 258.7,176.7 259.5,174.4 260.3,172.2 261.1,169.9 262.0,167.6 262.8,165.2 263.6,162.9 264.5,160.5 265.3,158.1 266.1,155.7 266.9,195.6 267.8,193.8 268.6,191.9 269.4,190.1 270.2,188.2 271.1,186.3 271.9,184.4 272.7,182.5 273.5,180.6 274.4,178.7 275.2,176.7 276.0,174.7 276.9,172.7 277.7,170.7 278.5,168.7 279.3,166.6 280.2,164.5 281.0,162.4 281.8,160.3 282.6,158.2 283.5,248.0 284.3,247.2 285.1,246.3 285.9,245.4 286.8,244.5 287.6,243.6 288.4,242.7 289.3,241.8 290.1,240.4 290.9,239.5 291.7,238.5 292.6,237.6 293.4,237.3 294.2,236.4 295.0,235.4 295.9,234.5 296.7,232.9 297.5,231.9 298.3,230.9 299.2,229.9 300.0,248.5 300.8,247.8 301.7,247.0 302.5,246.2 303.3,244.8 304.1,244.0 305.0,243.2 305.8,242.3 306.6,241.9 307.4,241.1 308.3,240.2 309.1,239.4 309.9,238.6 310.7,237.8 311.6,236.9 312.4,236.1 313.2,235.6 314.1,234.7 314.9,233.9 315.7,233.0 316.5,247.7 317.4,247.0 318.2,246.3 319.0,245.6 319.8,245.6 320.7,244.9 321.5,244.2 322.3,243.5 323.1,243.0 324.0,242.2 324.8,241.5 325.6,240.7 326.5,239.9 327.3,239.2 328.1,238.4 328.9,237.6 329.8,236.8 330.6,236.0 331.4,235.3 332.2,234.5 333.1,264.5 333.9,264.1 334.7,263.7 335.5,263.3 336.4,262.9 337.2,262.5 338.0,262.1 338.9,261.6 339.7,261.2 340.5,260.8 341.3,260.4 342.2,260.0 343.0,259.6 343.8,259.1 344.6,258.7 345.5,258.3 346.3,257.8 347.1,257.3 347.9,256.9 348.8,256.4 349.6,271.8 350.4,271.7 351.3,271.6 352.1,271.4 352.9,270.8 353.7,270.7 354.6,270.6 355.4,270.4 356.2,270.7 357.0,270.5 357.9,270.4 358.7,270.2 359.5,269.7 360.3,269.5 361.2,269.3 362.0,269.2 362.8,268.5 363.7,268.4 364.5,268.2 365.3,268.0 366.1,268.8 367.0,268.8 367.8,268.8 368.6,268.7 369.4,268.4 370.3,268.4 371.1,268.4 371.9,268.4 372.7,268.3 373.6,268.3 374.4,268.3 375.2,268.2 376.1,268.3 376.9,268.2 377.7,268.2 378.5,268.2 379.4,268.1 380.2,268.1 381.0,268.1 381.8,268.0 382.7,270.1 383.5,270.2 384.3,270.2 385.1,270.2 386.0,269.7 386.8,269.7 387.6,269.7 388.5,269.8 389.3,270.4 390.1,270.5 390.9,270.5 391.8,270.5 392.6,270.7 393.4,270.7 394.2,270.8 395.1,270.8 395.9,271.1 396.7,271.2 397.5,271.2 398.4,271.3 399.2,273.9 400.0,273.8 400.9,273.8 401.7,273.7 402.5,273.8 403.3,273.8 404.2,273.7 405.0,273.6 405.8,274.0 406.6,273.9 407.5,273.8 408.3,273.7 409.1,273.7 409.9,273.5 410.8,273.4 411.6,273.3 412.4,273.5 413.3,273.3 414.1,273.2 414.9,273.1 415.7,272.3 416.6,272.1 417.4,271.9 418.2,271.7 419.0,271.5 419.9,271.3 420.7,271.1 421.5,270.8 422.3,270.6 423.2,270.4 424.0,270.1 424.8,269.9 425.7,269.6 426.5,269.4 427.3,269.1 428.1,268.9 429.0,268.6 429.8,268.3 430.6,268.1 431.4,267.8 432.3,257.9 433.1,257.5 433.9,257.2 434.7,256.8 435.6,256.5 436.4,256.1 437.2,255.8 438.1,255.4 438.9,255.0 439.7,254.6 440.5,254.2 441.4,253.9 442.2,253.4 443.0,253.1 443.8,252.7 444.7,252.3 445.5,252.0 446.3,251.6 447.1,251.2 448.0,250.8 448.8,251.8 449.6,251.5 450.5,251.1 451.3,250.8 452.1,250.5 452.9,250.1 453.8,249.8 454.6,249.4 455.4,249.2 456.2,248.8 457.1,248.5 457.9,248.1 458.7,247.5 459.5,247.2 460.4,246.8 461.2,246.4 462.0,246.2 462.9,245.9 463.7,245.5 464.5,245.1 465.3,244.2 466.2,243.8 467.0,243.3 467.8,242.8 468.6,242.5 469.5,242.1 470.3,241.6 471.1,241.1 471.9,240.3 472.8,239.9 473.6,239.4 474.4,238.9 475.3,238.4 476.1,237.9 476.9,237.4 477.7,236.9 478.6,236.3 479.4,235.8 480.2,235.3 481.0,234.7 481.9,252.7 482.7,252.3 483.5,252.0 484.3,251.6 485.2,251.7 486.0,251.3 486.8,251.0 487.7,250.6 488.5,250.5 489.3,250.1 490.1,249.8 491.0,249.4 491.8,249.1 492.6,248.8 493.4,248.4 494.3,248.0 495.1,247.9 495.9,247.6 496.7,247.2 497.6,246.8 498.4,244.8 499.2,244.4 500.1,244.0 500.9,243.6 501.7,243.3 502.5,242.9 503.4,242.5 504.2,242.0 505.0,241.6 505.8,241.2 506.7,240.8 507.5,240.4 508.3,240.0 509.1,239.5 510.0,239.1 510.8,238.7 511.6,238.2 512.5,237.8 513.3,237.4 514.1,236.9 514.9,261.7 515.8,261.5 516.6,261.2 517.4,261.0 518.2,260.9 519.1,260.7 519.9,260.4 520.7,260.2 521.5,259.9 522.4,259.6 523.2,259.4 524.0,259.1 524.9,258.9 525.7,258.6 526.5,258.3 527.3,258.0 528.2,257.8 529.0,257.5 529.8,257.2 530.6,256.9 531.5,268.3 532.3,268.0 533.1,267.8 533.9,267.6 534.8,267.1 535.6,266.9 536.4,266.6 537.3,266.4 538.1,266.3 538.9,266.1 539.7,265.8 540.6,265.6 541.4,265.4 542.2,265.1 543.0,264.9 543.9,264.7 544.7,264.4 545.5,264.2 546.3,263.9 547.2,263.7 548.0,267.0 548.8,266.8 549.7,266.5 550.5,266.2 551.3,266.0 552.1,265.7 553.0,265.4 553.8,265.1 554.6,264.9 555.4,264.6 556.3,264.3 557.1,264.1 557.9,263.8 558.7,263.5 559.6,263.2 560.4,263.0 561.2,262.6 562.1,262.3 562.9,262.1 563.7,261.8 564.5,248.8 565.4,248.5 566.2,248.1 567.0,247.7 567.8,247.3 568.7,246.9 569.5,246.6 570.3,246.2 571.1,245.8 572.0,245.4 572.8,245.0 573.6,244.6 574.5,244.3 575.3,244.0 576.1,243.6 576.9,243.2 577.8,242.7 578.6,242.3 579.4,241.9 580.2,241.5 581.1,255.2 581.9,254.9 582.7,254.6 583.5,254.3 584.4,253.9 585.2,253.6 586.0,253.3 586.9,253.0 587.7,252.6 588.5,252.3 589.3,251.9 590.2,251.6 591.0,251.2 591.8,250.9 592.6,250.5 593.5,250.2 594.3,250.0 595.1,249.6 595.9,249.3 596.8,249.0 597.6,258.3 598.4,258.0 599.3,257.8 600.1,257.5 600.9,257.3 601.7,257.0 602.6,256.7 603.4,256.4 604.2,256.2 605.0,255.9 605.9,255.6 606.7,255.3 607.5,255.2 608.3,254.9 609.2,254.6 610.0,254.3 610.8,254.1 611.7,253.8 612.5,253.5 613.3,253.3 614.1,260.7 615.0,260.4 615.8,260.2 616.6,260.0 617.4,259.7 618.3,259.5 619.1,259.3 619.9,259.0 620.7,258.8 621.6,258.5 622.4,258.3 623.2,258.0 624.1,257.7 624.9,257.4 625.7,257.2 626.5,256.9 627.4,256.6 628.2,256.3 629.0,256.1 629.8,255.8 630.7,260.0 631.5,259.8 632.3,259.6 633.1,259.3 634.0,259.1 634.8,258.9 635.6,258.7 636.5,258.4 637.3,258.4 638.1,258.2 638.9,257.9 639.8,257.7 640.6,257.5 641.4,257.2 642.2,257.0 643.1,256.8 643.9,256.6 644.7,256.4 645.5,256.2 646.4,255.9 647.2,259.5 648.0,259.3 648.9,259.1 649.7,258.9 650.5,258.7 651.3,258.5 652.2,258.3 653.0,258.0 653.8,257.8 654.6,257.6 655.5,257.4 656.3,257.1 657.1,256.9 657.9,256.7 658.8,256.5 659.6,256.3 660.4,256.0 661.3,255.8 662.1,255.5 662.9,255.3 663.7,258.1 664.6,257.9 665.4,257.7 666.2,257.5 667.0,257.2 667.9,257.0 668.7,256.8 669.5,256.6 670.3,256.5 671.2,256.3 672.0,256.1 672.8,255.9 673.7,255.8 674.5,255.6 675.3,255.4 676.1,255.2 677.0,255.0 677.8,254.8 678.6,254.6 679.4,254.4 680.3,272.8 681.1,272.7 681.9,272.6 682.7,272.5 683.6,272.3 684.4,272.2 685.2,272.1 686.1,272.0 686.9,271.9 687.7,271.8 688.5,271.7 689.4,271.6 690.2,271.4 691.0,271.3 691.8,271.2 692.7,271.0 693.5,270.9 694.3,270.8 695.1,270.7 696.0,270.6 696.8,265.8 697.6,265.7 698.5,265.5 699.3,265.4 700.1,265.0 700.9,264.9 701.8,264.8 702.6,264.6 703.4,264.5 704.2,264.4 705.1,264.3 705.9,264.1 706.7,263.8 707.5,263.6 708.4,263.5 709.2,263.4 710.0,264.0 710.9,263.8 711.7,263.7 712.5,263.6 713.3,262.3 714.2,262.2 715.0,262.0 715.8,261.9 716.6,262.2 717.5,262.1 718.3,262.0 719.1,261.9 719.9,262.1 720.8,262.0 721.6,261.8 722.4,261.7 723.3,261.6 724.1,261.5 724.9,261.4 725.7,261.3 726.6,261.2 727.4,261.1 728.2,261.0 729.0,260.9 729.9,264.5 730.7,264.4 731.5,264.3 732.3,264.2 733.2,264.2 734.0,264.1 734.8,264.0 735.7,263.9 736.5,263.8 737.3,263.7 738.1,263.6 739.0,263.5 739.8,263.3 740.6,263.2 741.4,263.1 742.3,263.0 743.1,262.4 743.9,262.2 744.7,262.1 745.6,262.0 746.4,262.2 747.2,262.1 748.1,262.0 748.9,261.9 749.7,262.3 750.5,262.2 751.4,262.1 752.2,262.0 753.0,262.5 753.8,262.4 754.7,262.3 755.5,262.2 756.3,262.2 757.1,262.1 758.0,262.0 758.8,261.9 759.6,261.8 760.5,261.7 761.3,261.5 762.1,261.4 762.9,256.6 763.8,256.4 764.6,256.3 765.4,256.1 766.2,256.0 767.1,255.8 767.9,255.7 768.7,255.6 769.5,255.4 770.4,255.3 771.2,255.1 772.0,255.0 772.9,254.8 773.7,254.7 774.5,254.5 775.3,254.4 776.2,254.2 777.0,254.1 777.8,254.0 778.6,253.8 779.5,249.7 780.3,249.6 781.1,249.4 781.9,249.3 782.8,249.1 783.6,249.0 784.4,248.8 785.3,248.7 786.1,248.5 786.9,248.4 787.7,248.2 788.6,248.0 789.4,247.8 790.2,247.7 791.0,247.5 791.9,247.4 792.7,247.2 793.5,247.1 794.3,246.9 795.2,246.8 796.0,260.3"/>
<text x="640" y="56" font-family="Arial" font-size="12" fill="#0f766e">ekf_nominal position error</text>
</svg>