<svg xmlns="http://www.w3.org/2000/svg" width="820" height="320" viewBox="0 0 820 320">
<rect width="100%" height="100%" fill="white"/>
<text x="52" y="30" font-family="Arial" font-size="18" font-weight="700">ekf_nominal residuals</text>
<line x1="52" y1="274" x2="796" y2="274" stroke="#263238"/>
<line x1="52" y1="42" x2="52" y2="274" stroke="#263238"/>
<text x="52" y="306" font-family="Arial" font-size="12">time (s)</text>
<text x="630" y="306" font-family="Arial" font-size="12">norm</text>

<polyline fill="none" stroke="#0f766e" stroke-width="2.3" points="52.0,200.1 52.0,263.0 55.3,269.7 58.6,273.8 61.9,267.8 65.2,257.5 68.5,42.0 68.5,262.5 71.8,267.5 75.1,270.3 78.5,269.5 81.8,262.5 85.1,243.8 85.1,259.8 88.4,249.3 91.7,271.0 95.0,269.5 98.3,273.9 101.6,215.1 101.6,263.6 104.9,268.0 108.2,262.8 111.5,257.2 114.8,259.3 118.1,142.5 118.1,270.9 121.4,267.6 124.7,268.9 128.1,259.6 131.4,269.5 134.7,216.8 134.7,262.1 138.0,253.3 141.3,272.4 144.6,272.4 147.9,274.0 151.2,206.6 151.2,270.5 154.5,260.3 157.8,257.8 161.1,270.2 164.4,263.8 167.7,250.6 167.7,268.9 171.0,254.6 174.3,273.6 177.7,272.3 181.0,270.6 184.3,164.5 184.3,267.4 187.6,270.3 190.9,259.1 194.2,258.7 197.5,269.6 200.8,191.3 200.8,267.6 204.1,270.1 207.4,254.4 210.7,263.9 214.0,273.8 217.3,214.2 217.3,267.2 220.6,273.8 223.9,249.3 227.3,269.7 230.6,252.4 233.9,203.8 233.9,267.5 237.2,272.0 240.5,267.5 243.8,253.9 247.1,270.1 250.4,154.5 250.4,261.0 253.7,248.7 257.0,263.0 260.3,269.3 263.6,270.6 266.9,176.1 266.9,272.9 270.2,271.9 273.5,265.7 276.9,262.5 280.2,263.2 283.5,95.3 283.5,271.1 286.8,273.8 290.1,259.7 293.4,249.5 296.7,252.9 300.0,235.7 300.0,250.4 303.3,255.4 306.6,264.3 309.9,271.0 313.2,261.5 316.5,223.1 316.5,251.5 319.8,236.2 323.1,242.2 326.5,259.1 329.8,268.7 333.1,197.9 333.1,263.5 336.4,261.0 339.7,273.7 343.0,272.0 346.3,267.1 349.6,158.4 349.6,244.9 352.9,247.0 356.2,253.6 359.5,252.8 362.8,258.3 366.1,255.0 366.1,250.7 369.4,261.1 372.7,273.2 376.1,271.7 379.4,272.4 382.7,255.6 382.7,266.9 386.0,262.5 389.3,257.3 392.6,269.9 395.9,264.2 399.2,222.8 399.2,257.8 402.5,267.9 405.8,258.1 409.1,272.0 412.4,259.0 415.7,244.8 415.7,265.0 419.0,269.5 422.3,270.8 425.7,263.2 429.0,269.6 432.3,231.4 432.3,259.7 435.6,271.9 438.9,263.5 442.2,269.0 445.5,258.1 448.8,233.4 448.8,251.9 452.1,270.1 455.4,260.9 458.7,255.0 462.0,259.6 465.3,223.5 465.3,269.7 468.6,256.9 471.9,253.0 475.3,268.6 478.6,266.2 481.9,214.6 481.9,272.5 485.2,256.7 488.5,262.5 491.8,267.6 495.1,255.1 498.4,261.1 498.4,247.3 501.7,264.7 505.0,253.5 508.3,260.9 511.6,267.4 514.9,188.2 514.9,255.6 518.2,246.2 521.5,268.7 524.9,273.7 528.2,268.4 531.5,222.1 531.5,262.7 534.8,256.2 538.1,263.3 541.4,264.6 544.7,266.9 548.0,244.8 548.0,272.0 551.3,263.2 554.6,261.2 557.9,270.4 561.2,253.1 564.5,260.5 564.5,263.8 567.8,264.9 571.1,265.5 574.5,253.7 577.8,260.4 581.1,224.0 581.1,261.8 584.4,270.8 587.7,266.5 591.0,270.2 594.3,267.5 597.6,202.8 597.6,256.3 600.9,269.7 604.2,270.5 607.5,259.2 610.8,267.0 614.1,252.8 614.1,270.8 617.4,265.8 620.7,261.5 624.1,259.0 627.4,266.4 630.7,238.6 630.7,272.8 634.0,273.6 637.3,255.6 640.6,273.8 643.9,262.1 647.2,249.8 647.2,258.8 650.5,272.1 653.8,267.0 657.1,263.5 660.4,246.6 663.7,260.6 663.7,271.2 667.0,268.2 670.3,269.3 673.7,257.4 677.0,261.3 680.3,184.1 680.3,258.0 683.6,261.8 686.9,273.5 690.2,269.5 693.5,272.4 696.8,235.7 696.8,265.6 700.1,263.9 703.4,272.1 706.7,266.4 710.0,247.1 713.3,263.4 713.3,259.3 716.6,253.3 719.9,251.6 723.3,270.0 726.6,269.0 729.9,270.1 729.9,265.9 733.2,272.5 736.5,270.6 739.8,264.9 743.1,244.5 746.4,206.3 746.4,272.0 749.7,253.9 753.0,240.4 756.3,258.2 759.6,270.5 762.9,209.5 762.9,269.3 766.2,264.7 769.5,270.3 772.9,270.6 776.2,272.1 779.5,229.7 779.5,255.2 782.8,263.7 786.1,272.1 789.4,262.1 792.7,265.7 796.0,207.8 796.0,273.7"/>
<text x="640" y="56" font-family="Arial" font-size="12" fill="#0f766e">ekf_nominal residuals</text>
</svg>