<svg xmlns="http://www.w3.org/2000/svg" width="820" height="320" viewBox="0 0 820 320">
<rect width="100%" height="100%" fill="white"/>
<text x="52" y="30" font-family="Arial" font-size="18" font-weight="700">ekf_dropout_robust residuals</text>
<line x1="52" y1="274" x2="796" y2="274" stroke="#263238"/>
<line x1="52" y1="42" x2="52" y2="274" stroke="#263238"/>
<text x="52" y="306" font-family="Arial" font-size="12">time (s)</text>
<text x="630" y="306" font-family="Arial" font-size="12">norm</text>

<polyline fill="none" stroke="#0f766e" stroke-width="2.3" points="52.0,195.9 52.0,260.9 55.3,269.9 58.6,273.7 61.9,268.1 65.2,256.5 68.5,42.0 68.5,262.3 71.8,267.0 75.1,269.8 78.5,269.4 81.8,261.8 85.1,222.9 85.1,258.8 88.4,248.4 91.7,270.6 95.0,269.0 98.3,273.4 101.6,219.1 101.6,262.4 104.9,268.5 108.2,262.7 111.5,256.2 114.8,259.1 118.1,139.7 118.1,270.5 121.4,267.4 124.7,268.5 128.1,258.6 131.4,268.6 134.7,210.9 134.7,261.9 138.0,252.4 141.3,272.3 144.6,272.2 147.9,274.0 151.2,195.1 151.2,270.3 154.5,259.5 157.8,256.9 161.1,269.8 164.4,263.3 167.7,244.8 167.7,268.6 171.0,253.4 174.3,273.5 177.7,272.1 181.0,270.3 184.3,143.4 184.3,267.0 187.6,270.0 190.9,258.1 194.2,257.8 197.5,269.2 200.8,207.4 200.8,267.3 204.1,269.7 207.4,253.3 210.7,263.4 214.0,273.5 217.3,224.4 217.3,266.6 220.6,273.7 223.9,247.9 227.3,269.7 230.6,250.8 233.9,205.2 233.9,267.3 237.2,272.1 240.5,266.8 243.8,252.5 247.1,269.8 250.4,156.7 250.4,260.4 253.7,246.9 257.0,262.4 260.3,269.2 263.6,270.0 266.9,176.3 266.9,272.3 270.2,272.2 273.5,265.6 276.9,261.2 280.2,262.2 283.5,90.2 283.5,270.9 286.8,273.7 290.1,258.9 293.4,247.8 296.7,251.5 300.0,236.6 300.0,248.8 303.3,254.2 306.6,263.5 309.9,270.8 313.2,260.8 316.5,222.5 316.5,250.8 319.8,235.1 323.1,242.2 326.5,255.7 329.8,266.3 333.1,196.9 333.1,265.0 336.4,262.6 339.7,271.1 343.0,269.4 346.3,268.9 349.6,153.7 349.6,241.2 352.9,244.2 356.2,252.9 359.5,250.7 362.8,257.2 366.1,255.8 366.1,249.1 369.4,260.0 372.7,273.1 376.1,271.3 379.4,272.3 382.7,252.4 382.7,266.5 386.0,262.1 389.3,255.6 392.6,269.4 395.9,263.4 399.2,217.8 399.2,256.7 402.5,267.2 405.8,257.0 409.1,272.1 412.4,258.4 415.7,243.2 415.7,263.5 419.0,269.7 422.3,271.3 425.7,261.8 429.0,269.0 432.3,228.7 432.3,259.3 435.6,272.6 438.9,263.7 442.2,269.8 445.5,255.9 448.8,230.6 448.8,251.0 452.1,268.8 455.4,259.3 458.7,254.3 462.0,257.9 465.3,221.0 465.3,270.2 468.6,255.1 471.9,252.1 475.3,267.4 478.6,266.4 481.9,211.2 481.9,271.5 485.2,255.0 488.5,261.6 491.8,267.4 495.1,254.4 498.4,260.9 498.4,247.0 501.7,266.1 505.0,254.6 508.3,257.2 511.6,264.5 514.9,183.7 514.9,252.6 518.2,246.0 521.5,270.5 524.9,271.4 528.2,265.9 531.5,222.6 531.5,263.9 534.8,257.4 538.1,260.0 541.4,261.7 544.7,264.7 548.0,246.0 548.0,273.2 551.3,261.2 554.6,261.3 557.9,269.0 561.2,252.8 564.5,264.5 564.5,261.6 567.8,265.4 571.1,266.3 574.5,251.0 577.8,260.4 581.1,219.5 581.1,261.9 584.4,271.7 587.7,267.1 591.0,271.3 594.3,265.7 597.6,198.0 597.6,255.8 600.9,268.4 604.2,269.4 607.5,257.6 610.8,266.4 614.1,254.1 614.1,270.8 617.4,265.6 620.7,261.4 624.1,259.1 627.4,267.4 630.7,233.1 630.7,271.2 634.0,272.1 637.3,253.2 640.6,273.7 643.9,260.7 647.2,250.4 647.2,257.7 650.5,271.5 653.8,266.2 657.1,263.0 660.4,245.5 663.7,256.3 663.7,272.2 667.0,269.1 670.3,267.5 673.7,255.1 677.0,259.8 680.3,181.7 680.3,257.4 683.6,261.9 686.9,272.2 690.2,270.2 693.5,273.5 696.8,231.5 696.8,266.6 700.1,265.0 703.4,270.0 706.7,267.7 710.0,243.6 713.3,268.5 713.3,259.4 716.6,250.7 719.9,249.7 723.3,269.9 726.6,269.0 729.9,265.5 729.9,265.0 733.2,272.5 736.5,270.7 739.8,263.9 743.1,242.6 746.4,203.3 746.4,273.1 749.7,251.4 753.0,237.9 756.3,257.8 759.6,269.2 762.9,203.4 762.9,270.2 766.2,262.8 769.5,269.0 772.9,269.4 776.2,271.1 779.5,227.6 779.5,255.0 782.8,264.5 786.1,270.1 789.4,259.8 792.7,266.3 796.0,202.6 796.0,272.3"/>
<text x="640" y="56" font-family="Arial" font-size="12" fill="#0f766e">ekf_dropout_robust residuals</text>
</svg>