<svg xmlns="http://www.w3.org/2000/svg" width="820" height="320" viewBox="0 0 820 320">
<rect width="100%" height="100%" fill="white"/>
<text x="52" y="30" font-family="Arial" font-size="18" font-weight="700">ekf_dropout_robust velocity error</text>
<line x1="52" y1="274" x2="796" y2="274" stroke="#263238"/>
<line x1="52" y1="42" x2="52" y2="274" stroke="#263238"/>
<text x="52" y="306" font-family="Arial" font-size="12">time (s)</text>
<text x="630" y="306" font-family="Arial" font-size="12">m/s</text>

<polyline fill="none" stroke="#0f766e" stroke-width="2.3" points="52.0,251.6 52.8,251.5 53.7,251.3 54.5,251.4 55.3,248.1 56.1,248.2 57.0,248.2 57.8,248.1 58.6,247.6 59.4,247.4 60.3,246.9 61.1,246.8 61.9,251.0 62.7,250.7 63.6,250.6 64.4,250.6 65.2,239.1 66.1,239.0 66.9,238.9 67.7,238.7 68.5,42.8 69.4,42.9 70.2,42.7 71.0,42.7 71.8,42.9 72.7,42.8 73.5,42.7 74.3,42.6 75.1,42.7 76.0,42.7 76.8,42.6 77.6,42.5 78.5,42.3 79.3,42.3 80.1,42.2 80.9,42.2 81.8,42.3 82.6,42.1 83.4,42.1 84.2,42.0 85.1,86.0 85.9,85.9 86.7,85.9 87.5,85.9 88.4,85.8 89.2,85.9 90.0,86.0 90.9,86.0 91.7,85.9 92.5,85.9 93.3,85.7 94.2,85.7 95.0,85.6 95.8,85.7 96.6,85.7 97.5,85.6 98.3,85.6 99.1,85.7 99.9,85.6 100.8,85.6 101.6,117.3 102.4,117.4 103.3,117.5 104.1,117.6 104.9,117.9 105.7,118.1 106.6,118.0 107.4,118.1 108.2,118.1 109.0,118.1 109.9,118.1 110.7,118.2 111.5,118.4 112.3,118.4 113.2,118.6 114.0,118.5 114.8,118.6 115.7,118.7 116.5,118.7 117.3,118.8 118.1,175.4 119.0,175.8 119.8,176.1 120.6,176.4 121.4,176.9 122.3,177.2 123.1,177.7 123.9,177.8 124.7,178.2 125.6,178.4 126.4,178.6 127.2,178.8 128.1,178.7 128.9,178.9 129.7,179.3 130.5,179.7 131.4,179.9 132.2,180.2 133.0,180.4 133.8,180.7 134.7,220.4 135.5,220.8 136.3,221.2 137.1,221.7 138.0,222.8 138.8,223.1 139.6,223.6 140.5,224.0 141.3,224.3 142.1,224.8 142.9,225.3 143.8,225.8 144.6,226.1 145.4,226.5 146.2,226.8 147.1,227.3 147.9,227.7 148.7,228.1 149.5,228.4 150.4,228.8 151.2,257.2 152.0,257.9 152.9,258.3 153.7,258.8 154.5,256.9 155.3,257.2 156.2,257.5 157.0,257.8 157.8,261.2 158.6,261.6 159.5,262.0 160.3,262.3 161.1,261.8 161.9,262.0 162.8,262.1 163.6,262.0 164.4,263.7 165.3,263.9 166.1,263.9 166.9,263.9 167.7,255.5 168.6,255.3 169.4,254.8 170.2,254.2 171.0,255.4 171.9,254.8 172.7,254.3 173.5,253.7 174.3,253.1 175.2,252.7 176.0,252.0 176.8,251.5 177.7,251.0 178.5,250.3 179.3,249.5 180.1,248.9 181.0,248.1 181.8,247.5 182.6,246.8 183.4,245.9 184.3,194.8 185.1,193.6 185.9,192.2 186.7,190.9 187.6,189.7 188.4,188.5 189.2,187.4 190.1,186.2 190.9,184.9 191.7,183.6 192.5,182.5 193.4,181.3 194.2,180.2 195.0,178.9 195.8,177.8 196.7,176.5 197.5,175.2 198.3,174.1 199.1,172.8 200.0,171.7 200.8,194.6 201.6,193.7 202.5,192.5 203.3,191.4 204.1,190.4 204.9,189.4 205.8,188.4 206.6,187.3 207.4,186.4 208.2,185.4 209.1,184.3 209.9,183.2 210.7,182.2 211.5,181.2 212.4,180.2 213.2,179.2 214.0,178.1 214.9,176.8 215.7,175.8 216.5,174.6 217.3,188.1 218.2,187.1 219.0,186.1 219.8,185.2 220.6,184.0 221.5,182.9 222.3,182.0 223.1,181.0 223.9,180.1 224.8,179.2 225.6,178.3 226.4,177.2 227.3,176.1 228.1,175.2 228.9,174.3 229.7,173.3 230.6,172.3 231.4,171.2 232.2,170.3 233.0,169.4 233.9,178.7 234.7,178.0 235.5,177.1 236.3,176.2 237.2,175.2 238.0,174.4 238.8,173.4 239.7,172.5 240.5,171.7 241.3,170.9 242.1,169.8 243.0,168.9 243.8,168.2 244.6,167.3 245.4,166.4 246.3,165.5 247.1,164.6 247.9,163.8 248.7,162.9 249.6,161.9 250.4,194.1 251.2,193.4 252.1,192.7 252.9,191.9 253.7,191.1 254.5,190.2 255.4,189.4 256.2,188.7 257.0,188.0 257.8,187.4 258.7,186.8 259.5,186.1 260.3,185.4 261.1,184.8 262.0,184.1 262.8,183.4 263.6,182.6 264.5,182.0 265.3,181.3 266.1,180.6 266.9,202.7 267.8,202.1 268.6,201.4 269.4,200.8 270.2,200.1 271.1,199.6 271.9,198.9 272.7,198.3 273.5,197.8 274.4,197.3 275.2,196.7 276.0,196.2 276.9,195.7 277.7,195.1 278.5,194.5 279.3,193.9 280.2,193.3 281.0,192.6 281.8,192.0 282.6,191.4 283.5,240.8 284.3,240.5 285.1,240.2 285.9,240.0 286.8,239.8 287.6,239.6 288.4,239.2 289.3,238.9 290.1,238.3 290.9,238.0 291.7,237.7 292.6,237.4 293.4,237.6 294.2,237.5 295.0,237.2 295.9,236.8 296.7,236.3 297.5,235.9 298.3,235.6 299.2,235.3 300.0,244.5 300.8,244.3 301.7,243.9 302.5,243.8 303.3,243.2 304.1,243.0 305.0,242.6 305.8,242.4 306.6,242.4 307.4,242.1 308.3,241.9 309.1,241.6 309.9,241.4 310.7,241.3 311.6,241.1 312.4,240.8 313.2,240.9 314.1,240.5 314.9,240.4 315.7,240.0 316.5,247.2 317.4,247.0 318.2,246.8 319.0,246.6 319.8,246.5 320.7,246.4 321.5,246.1 322.3,245.9 323.1,245.2 324.0,244.8 324.8,244.6 325.6,244.5 326.5,244.4 327.3,244.3 328.1,244.2 328.9,244.0 329.8,243.9 330.6,243.8 331.4,243.6 332.2,243.4 333.1,258.0 333.9,257.9 334.7,257.8 335.5,257.8 336.4,257.3 337.2,257.1 338.0,257.0 338.9,256.9 339.7,256.9 340.5,256.7 341.3,256.6 342.2,256.6 343.0,256.5 343.8,256.5 344.6,256.5 345.5,256.4 346.3,256.0 347.1,255.9 347.9,255.8 348.8,255.7 349.6,265.8 350.4,265.8 351.3,265.6 352.1,265.7 352.9,265.8 353.7,265.6 354.6,265.7 355.4,265.5 356.2,265.4 357.0,265.4 357.9,265.5 358.7,265.6 359.5,265.5 360.3,265.4 361.2,265.4 362.0,265.3 362.8,264.9 363.7,264.7 364.5,264.7 365.3,264.8 366.1,270.7 367.0,270.8 367.8,270.8 368.6,271.0 369.4,270.7 370.3,270.6 371.1,270.7 371.9,270.6 372.7,270.6 373.6,270.6 374.4,270.6 375.2,270.5 376.1,270.4 376.9,270.4 377.7,270.4 378.5,270.4 379.4,270.3 380.2,270.5 381.0,270.5 381.8,270.2 382.7,272.1 383.5,272.1 384.3,272.3 385.1,272.4 386.0,271.3 386.8,271.4 387.6,271.2 388.5,271.2 389.3,272.8 390.1,272.8 390.9,272.8 391.8,272.9 392.6,273.4 393.4,273.3 394.2,273.3 395.1,273.3 395.9,274.0 396.7,274.0 397.5,273.9 398.4,273.9 399.2,265.9 400.0,265.9 400.9,265.9 401.7,265.8 402.5,265.9 403.3,265.9 404.2,265.8 405.0,265.8 405.8,265.8 406.6,265.6 407.5,265.5 408.3,265.5 409.1,265.4 409.9,265.5 410.8,265.4 411.6,265.4 412.4,265.1 413.3,265.1 414.1,265.1 414.9,264.9 415.7,262.9 416.6,262.8 417.4,262.7 418.2,262.6 419.0,262.3 419.9,262.2 420.7,262.2 421.5,262.3 422.3,262.1 423.2,262.1 424.0,261.9 424.8,261.8 425.7,261.8 426.5,261.8 427.3,261.7 428.1,261.6 429.0,261.6 429.8,261.6 430.6,261.5 431.4,261.5 432.3,257.7 433.1,257.7 433.9,257.7 434.7,257.6 435.6,257.5 436.4,257.3 437.2,257.1 438.1,257.2 438.9,256.9 439.7,256.8 440.5,256.8 441.4,256.8 442.2,256.6 443.0,256.4 443.8,256.4 444.7,256.2 445.5,256.3 446.3,256.1 447.1,256.0 448.0,255.9 448.8,257.7 449.6,257.5 450.5,257.5 451.3,257.4 452.1,257.5 452.9,257.4 453.8,257.3 454.6,257.1 455.4,257.4 456.2,257.2 457.1,257.2 457.9,257.2 458.7,256.7 459.5,256.7 460.4,256.6 461.2,256.6 462.0,256.9 462.9,256.8 463.7,256.8 464.5,256.7 465.3,252.9 466.2,252.9 467.0,252.9 467.8,252.8 468.6,253.0 469.5,253.0 470.3,252.9 471.1,252.9 471.9,252.5 472.8,252.3 473.6,252.2 474.4,252.1 475.3,251.9 476.1,251.6 476.9,251.6 477.7,251.7 478.6,251.4 479.4,251.3 480.2,251.3 481.0,251.2 481.9,258.4 482.7,258.3 483.5,258.4 484.3,258.3 485.2,258.7 486.0,258.7 486.8,258.8 487.7,258.7 488.5,258.9 489.3,259.0 490.1,258.9 491.0,258.8 491.8,258.7 492.6,258.6 493.4,258.5 494.3,258.5 495.1,258.6 495.9,258.5 496.7,258.6 497.6,258.5 498.4,257.2 499.2,257.1 500.1,256.9 500.9,256.8 501.7,256.5 502.5,256.4 503.4,256.3 504.2,256.2 505.0,255.9 505.8,255.8 506.7,255.6 507.5,255.5 508.3,255.6 509.1,255.5 510.0,255.3 510.8,255.2 511.6,255.2 512.5,255.3 513.3,255.1 514.1,255.2 514.9,264.5 515.8,264.5 516.6,264.3 517.4,264.2 518.2,264.1 519.1,264.1 519.9,264.0 520.7,264.0 521.5,263.8 522.4,263.6 523.2,263.5 524.0,263.4 524.9,263.4 525.7,263.3 526.5,263.1 527.3,263.1 528.2,263.1 529.0,263.1 529.8,263.1 530.6,263.0 531.5,264.7 532.3,264.7 533.1,264.6 533.9,264.7 534.8,264.0 535.6,264.0 536.4,264.0 537.3,263.9 538.1,264.2 538.9,264.0 539.7,264.2 540.6,264.2 541.4,264.3 542.2,264.2 543.0,264.2 543.9,264.1 544.7,264.0 545.5,263.8 546.3,263.8 547.2,263.8 548.0,263.7 548.8,263.4 549.7,263.4 550.5,263.3 551.3,263.2 552.1,263.2 553.0,263.1 553.8,263.3 554.6,263.3 555.4,263.3 556.3,263.4 557.1,263.4 557.9,263.3 558.7,263.5 559.6,263.5 560.4,263.6 561.2,263.5 562.1,263.4 562.9,263.3 563.7,263.3 564.5,258.0 565.4,257.9 566.2,257.9 567.0,257.7 567.8,257.6 568.7,257.7 569.5,257.6 570.3,257.6 571.1,257.5 572.0,257.4 572.8,257.4 573.6,257.4 574.5,257.2 575.3,257.2 576.1,257.1 576.9,256.9 577.8,256.8 578.6,256.8 579.4,256.7 580.2,256.5 581.1,261.6 581.9,261.7 582.7,261.7 583.5,261.8 584.4,261.7 585.2,261.6 586.0,261.7 586.9,261.5 587.7,261.2 588.5,261.1 589.3,261.1 590.2,261.0 591.0,260.8 591.8,261.0 592.6,260.9 593.5,260.9 594.3,260.9 595.1,260.9 595.9,261.0 596.8,260.8 597.6,264.3 598.4,264.2 599.3,264.1 600.1,264.0 600.9,264.1 601.7,264.0 602.6,264.0 603.4,263.9 604.2,263.8 605.0,263.7 605.9,263.6 606.7,263.5 607.5,263.6 608.3,263.8 609.2,263.9 610.0,264.0 610.8,263.8 611.7,263.8 612.5,263.9 613.3,263.8 614.1,266.2 615.0,266.2 615.8,266.0 616.6,266.0 617.4,265.9 618.3,265.9 619.1,265.9 619.9,265.7 620.7,265.3 621.6,265.3 622.4,265.3 623.2,265.2 624.1,264.5 624.9,264.6 625.7,264.5 626.5,264.6 627.4,264.3 628.2,264.1 629.0,263.9 629.8,263.8 630.7,265.1 631.5,265.1 632.3,265.2 633.1,265.1 634.0,265.1 634.8,265.1 635.6,265.1 636.5,265.1 637.3,265.9 638.1,265.9 638.9,266.0 639.8,265.9 640.6,266.0 641.4,266.0 642.2,266.0 643.1,265.8 643.9,266.2 644.7,266.3 645.5,266.4 646.4,266.5 647.2,267.6 648.0,267.6 648.9,267.5 649.7,267.4 650.5,267.5 651.3,267.4 652.2,267.4 653.0,267.3 653.8,267.1 654.6,267.1 655.5,267.0 656.3,266.9 657.1,267.0 657.9,267.1 658.8,267.2 659.6,267.1 660.4,266.9 661.3,266.9 662.1,266.9 662.9,267.0 663.7,265.8 664.6,265.9 665.4,265.8 666.2,265.7 667.0,265.5 667.9,265.5 668.7,265.5 669.5,265.4 670.3,265.5 671.2,265.5 672.0,265.6 672.8,265.6 673.7,265.7 674.5,265.8 675.3,265.8 676.1,265.8 677.0,265.7 677.8,265.6 678.6,265.6 679.4,265.5 680.3,273.3 681.1,273.3 681.9,273.4 682.7,273.2 683.6,272.3 684.4,272.2 685.2,272.0 686.1,272.0 686.9,272.2 687.7,272.2 688.5,272.2 689.4,272.2 690.2,271.8 691.0,271.8 691.8,271.7 692.7,271.7 693.5,271.5 694.3,271.5 695.1,271.4 696.0,271.5 696.8,269.5 697.6,269.5 698.5,269.5 699.3,269.6 700.1,269.0 700.9,268.9 701.8,268.9 702.6,268.8 703.4,269.2 704.2,269.1 705.1,269.2 705.9,269.1 706.7,268.4 707.5,268.3 708.4,268.4 709.2,268.5 710.0,270.8 710.9,270.9 711.7,270.8 712.5,270.8 713.3,268.9 714.2,268.8 715.0,268.9 715.8,268.9 716.6,270.2 717.5,270.4 718.3,270.5 719.1,270.5 719.9,270.7 720.8,270.7 721.6,270.8 722.4,270.8 723.3,270.8 724.1,270.9 724.9,271.0 725.7,271.1 726.6,271.0 727.4,271.0 728.2,270.9 729.0,270.9 729.9,272.3 730.7,272.3 731.5,272.4 732.3,272.5 733.2,272.4 734.0,272.4 734.8,272.4 735.7,272.5 736.5,272.3 737.3,272.1 738.1,272.1 739.0,272.2 739.8,272.0 740.6,272.1 741.4,272.0 742.3,271.9 743.1,269.7 743.9,269.7 744.7,269.6 745.6,269.5 746.4,268.4 747.2,268.4 748.1,268.3 748.9,268.4 749.7,270.1 750.5,270.0 751.4,270.0 752.2,269.9 753.0,271.8 753.8,271.7 754.7,271.7 755.5,271.7 756.3,271.6 757.1,271.6 758.0,271.6 758.8,271.6 759.6,271.5 760.5,271.5 761.3,271.3 762.1,271.3 762.9,266.4 763.8,266.3 764.6,266.3 765.4,266.5 766.2,266.6 767.1,266.7 767.9,266.8 768.7,266.8 769.5,266.6 770.4,266.6 771.2,266.6 772.0,266.5 772.9,266.4 773.7,266.3 774.5,266.3 775.3,266.4 776.2,266.3 777.0,266.4 777.8,266.4 778.6,266.6 779.5,266.4 780.3,266.4 781.1,266.3 781.9,266.3 782.8,266.2 783.6,266.1 784.4,266.2 785.3,266.0 786.1,266.0 786.9,265.9 787.7,266.0 788.6,265.8 789.4,265.9 790.2,265.9 791.0,265.9 791.9,265.9 792.7,265.9 793.5,265.8 794.3,265.9 795.2,266.0 796.0,271.6"/>
<text x="640" y="56" font-family="Arial" font-size="12" fill="#0f766e">ekf_dropout_robust velocity error</text>
</svg>