<svg xmlns="http://www.w3.org/2000/svg" width="820" height="320" viewBox="0 0 820 320">
<rect width="100%" height="100%" fill="white"/>
<text x="52" y="30" font-family="Arial" font-size="18" font-weight="700">Truth altitude</text>
<line x1="52" y1="274" x2="796" y2="274" stroke="#263238"/>
<line x1="52" y1="42" x2="52" y2="274" stroke="#263238"/>
<text x="52" y="306" font-family="Arial" font-size="12">time (s)</text>
<text x="630" y="306" font-family="Arial" font-size="12">m</text>

<polyline fill="none" stroke="#0f766e" stroke-width="2.3" points="52.0,274.0 52.7,273.9 53.5,273.8 54.2,273.7 55.0,273.6 55.7,273.6 56.5,273.5 57.2,273.4 58.0,273.3 58.7,273.2 59.4,273.1 60.2,273.0 60.9,272.9 61.7,272.8 62.4,272.7 63.2,272.6 63.9,272.6 64.6,272.5 65.4,272.4 66.1,272.3 66.9,272.2 67.6,272.1 68.4,272.0 69.1,271.9 69.9,271.8 70.6,271.7 71.3,271.6 72.1,271.5 72.8,271.4 73.6,271.4 74.3,271.3 75.1,271.2 75.8,271.1 76.6,271.0 77.3,270.9 78.0,270.8 78.8,270.7 79.5,270.6 80.3,270.5 81.0,270.4 81.8,270.3 82.5,270.2 83.2,270.1 84.0,270.0 84.7,269.9 85.5,269.8 86.2,269.7 87.0,269.6 87.7,269.5 88.5,269.4 89.2,269.3 89.9,269.2 90.7,269.1 91.4,269.0 92.2,268.9 92.9,268.7 93.7,268.6 94.4,268.5 95.2,268.4 95.9,268.3 96.6,268.2 97.4,268.1 98.1,268.0 98.9,267.9 99.6,267.8 100.4,267.6 101.1,267.5 101.8,267.4 102.6,267.3 103.3,267.2 104.1,267.1 104.8,266.9 105.6,266.8 106.3,266.7 107.1,266.6 107.8,266.5 108.5,266.3 109.3,266.2 110.0,266.1 110.8,266.0 111.5,265.8 112.3,265.7 113.0,265.6 113.8,265.5 114.5,265.3 115.2,265.2 116.0,265.1 116.7,264.9 117.5,264.8 118.2,264.7 119.0,264.5 119.7,264.4 120.4,264.3 121.2,264.1 121.9,264.0 122.7,263.8 123.4,263.7 124.2,263.6 124.9,263.4 125.7,263.3 126.4,263.1 127.1,263.0 127.9,262.8 128.6,262.7 129.4,262.5 130.1,262.4 130.9,262.2 131.6,262.1 132.4,261.9 133.1,261.8 133.8,261.6 134.6,261.5 135.3,261.3 136.1,261.1 136.8,261.0 137.6,260.8 138.3,260.7 139.0,260.5 139.8,260.3 140.5,260.2 141.3,260.0 142.0,259.8 142.8,259.7 143.5,259.5 144.3,259.3 145.0,259.1 145.7,259.0 146.5,258.8 147.2,258.6 148.0,258.4 148.7,258.3 149.5,258.1 150.2,257.9 151.0,257.7 151.7,257.5 152.4,257.3 153.2,257.2 153.9,257.0 154.7,256.8 155.4,256.6 156.2,256.4 156.9,256.2 157.6,256.0 158.4,255.8 159.1,255.6 159.9,255.4 160.6,255.2 161.4,255.0 162.1,254.8 162.9,254.6 163.6,254.4 164.3,254.2 165.1,254.0 165.8,253.8 166.6,253.6 167.3,253.4 168.1,253.1 168.8,252.9 169.6,252.7 170.3,252.5 171.0,252.3 171.8,252.1 172.5,251.8 173.3,251.6 174.0,251.4 174.8,251.2 175.5,250.9 176.2,250.7 177.0,250.5 177.7,250.3 178.5,250.0 179.2,249.8 180.0,249.6 180.7,249.3 181.5,249.1 182.2,248.8 182.9,248.6 183.7,248.4 184.4,248.1 185.2,247.9 185.9,247.6 186.7,247.4 187.4,247.1 188.2,246.9 188.9,246.6 189.6,246.4 190.4,246.1 191.1,245.9 191.9,245.6 192.6,245.4 193.4,245.1 194.1,244.9 194.8,244.6 195.6,244.3 196.3,244.1 197.1,243.8 197.8,243.5 198.6,243.3 199.3,243.0 200.1,242.7 200.8,242.5 201.5,242.2 202.3,241.9 203.0,241.6 203.8,241.4 204.5,241.1 205.3,240.8 206.0,240.5 206.8,240.2 207.5,240.0 208.2,239.7 209.0,239.4 209.7,239.1 210.5,238.8 211.2,238.5 212.0,238.2 212.7,237.9 213.4,237.6 214.2,237.3 214.9,237.1 215.7,236.8 216.4,236.5 217.2,236.2 217.9,235.9 218.7,235.6 219.4,235.2 220.1,234.9 220.9,234.6 221.6,234.3 222.4,234.0 223.1,233.7 223.9,233.4 224.6,233.1 225.4,232.8 226.1,232.5 226.8,232.2 227.6,231.8 228.3,231.5 229.1,231.2 229.8,230.9 230.6,230.6 231.3,230.2 232.0,229.9 232.8,229.6 233.5,229.3 234.3,228.9 235.0,228.6 235.8,228.3 236.5,228.0 237.3,227.6 238.0,227.3 238.7,227.0 239.5,226.6 240.2,226.3 241.0,226.0 241.7,225.6 242.5,225.3 243.2,224.9 244.0,224.6 244.7,224.3 245.4,223.9 246.2,223.6 246.9,223.2 247.7,222.9 248.4,222.5 249.2,222.2 249.9,221.8 250.6,221.5 251.4,221.1 252.1,220.8 252.9,220.4 253.6,220.1 254.4,219.7 255.1,219.4 255.9,219.0 256.6,218.7 257.3,218.3 258.1,218.0 258.8,217.6 259.6,217.2 260.3,216.9 261.1,216.5 261.8,216.2 262.6,215.8 263.3,215.4 264.0,215.1 264.8,214.7 265.5,214.3 266.3,214.0 267.0,213.6 267.8,213.2 268.5,212.9 269.2,212.5 270.0,212.1 270.7,211.8 271.5,211.4 272.2,211.0 273.0,210.7 273.7,210.3 274.5,209.9 275.2,209.5 275.9,209.2 276.7,208.8 277.4,208.4 278.2,208.0 278.9,207.7 279.7,207.3 280.4,206.9 281.2,206.5 281.9,206.2 282.6,205.8 283.4,205.4 284.1,205.0 284.9,204.6 285.6,204.3 286.4,203.9 287.1,203.5 287.8,203.1 288.6,202.7 289.3,202.3 290.1,202.0 290.8,201.6 291.6,201.2 292.3,200.8 293.1,200.4 293.8,200.0 294.5,199.7 295.3,199.3 296.0,198.9 296.8,198.5 297.5,198.1 298.3,197.7 299.0,197.3 299.8,197.0 300.5,196.6 301.2,196.2 302.0,195.8 302.7,195.4 303.5,195.0 304.2,194.6 305.0,194.2 305.7,193.9 306.4,193.5 307.2,193.1 307.9,192.7 308.7,192.3 309.4,191.9 310.2,191.5 310.9,191.1 311.7,190.8 312.4,190.4 313.1,190.0 313.9,189.6 314.6,189.2 315.4,188.8 316.1,188.4 316.9,188.0 317.6,187.6 318.4,187.3 319.1,186.9 319.8,186.5 320.6,186.1 321.3,185.7 322.1,185.3 322.8,184.9 323.6,184.5 324.3,184.2 325.0,183.8 325.8,183.4 326.5,183.0 327.3,182.6 328.0,182.2 328.8,181.8 329.5,181.5 330.3,181.1 331.0,180.7 331.7,180.3 332.5,179.9 333.2,179.5 334.0,179.2 334.7,178.8 335.5,178.4 336.2,178.0 337.0,177.6 337.7,177.2 338.4,176.9 339.2,176.5 339.9,176.1 340.7,175.7 341.4,175.3 342.2,175.0 342.9,174.6 343.6,174.2 344.4,173.8 345.1,173.5 345.9,173.1 346.6,172.7 347.4,172.3 348.1,172.0 348.9,171.6 349.6,171.2 350.3,170.8 351.1,170.5 351.8,170.1 352.6,169.7 353.3,169.3 354.1,169.0 354.8,168.6 355.6,168.2 356.3,167.9 357.0,167.5 357.8,167.1 358.5,166.8 359.3,166.4 360.0,166.0 360.8,165.7 361.5,165.3 362.2,165.0 363.0,164.6 363.7,164.2 364.5,163.9 365.2,163.5 366.0,163.2 366.7,162.8 367.5,162.4 368.2,162.1 368.9,161.7 369.7,161.4 370.4,161.0 371.2,160.7 371.9,160.3 372.7,160.0 373.4,159.6 374.2,159.3 374.9,158.9 375.6,158.6 376.4,158.2 377.1,157.9 377.9,157.5 378.6,157.2 379.4,156.9 380.1,156.5 380.8,156.2 381.6,155.8 382.3,155.5 383.1,155.2 383.8,154.8 384.6,154.5 385.3,154.2 386.1,153.8 386.8,153.5 387.5,153.2 388.3,152.8 389.0,152.5 389.8,152.2 390.5,151.8 391.3,151.5 392.0,151.2 392.8,150.9 393.5,150.6 394.2,150.2 395.0,149.9 395.7,149.6 396.5,149.3 397.2,149.0 398.0,148.6 398.7,148.3 399.4,148.0 400.2,147.7 400.9,147.4 401.7,147.1 402.4,146.8 403.2,146.5 403.9,146.2 404.7,145.9 405.4,145.6 406.1,145.3 406.9,145.0 407.6,144.7 408.4,144.4 409.1,144.1 409.9,143.8 410.6,143.5 411.4,143.2 412.1,142.9 412.8,142.6 413.6,142.3 414.3,142.0 415.1,141.7 415.8,141.4 416.6,141.2 417.3,140.9 418.0,140.6 418.8,140.3 419.5,140.0 420.3,139.7 421.0,139.5 421.8,139.2 422.5,138.9 423.3,138.6 424.0,138.4 424.7,138.1 425.5,137.8 426.2,137.6 427.0,137.3 427.7,137.0 428.5,136.8 429.2,136.5 430.0,136.2 430.7,136.0 431.4,135.7 432.2,135.5 432.9,135.2 433.7,135.0 434.4,134.7 435.2,134.5 435.9,134.2 436.6,134.0 437.4,133.7 438.1,133.5 438.9,133.2 439.6,133.0 440.4,132.7 441.1,132.5 441.9,132.3 442.6,132.0 443.3,131.8 444.1,131.5 444.8,131.3 445.6,131.1 446.3,130.8 447.1,130.6 447.8,130.4 448.6,130.2 449.3,129.9 450.0,129.7 450.8,129.5 451.5,129.3 452.3,129.0 453.0,128.8 453.8,128.6 454.5,128.4 455.2,128.2 456.0,128.0 456.7,127.7 457.5,127.5 458.2,127.3 459.0,127.1 459.7,126.9 460.5,126.7 461.2,126.5 461.9,126.3 462.7,126.1 463.4,125.9 464.2,125.7 464.9,125.5 465.7,125.3 466.4,125.1 467.2,124.9 467.9,124.7 468.6,124.5 469.4,124.3 470.1,124.1 470.9,123.9 471.6,123.8 472.4,123.6 473.1,123.4 473.8,123.2 474.6,123.0 475.3,122.8 476.1,122.7 476.8,122.5 477.6,122.3 478.3,122.1 479.1,121.9 479.8,121.8 480.5,121.6 481.3,121.4 482.0,121.3 482.8,121.1 483.5,120.9 484.3,120.8 485.0,120.6 485.8,120.4 486.5,120.3 487.2,120.1 488.0,119.9 488.7,119.8 489.5,119.6 490.2,119.5 491.0,119.3 491.7,119.2 492.4,119.0 493.2,118.9 493.9,118.7 494.7,118.6 495.4,118.4 496.2,118.3 496.9,118.1 497.7,118.0 498.4,117.8 499.1,117.7 499.9,117.5 500.6,117.4 501.4,117.2 502.1,117.1 502.9,117.0 503.6,116.8 504.4,116.7 505.1,116.6 505.8,116.4 506.6,116.3 507.3,116.1 508.1,116.0 508.8,115.9 509.6,115.8 510.3,115.6 511.0,115.5 511.8,115.4 512.5,115.2 513.3,115.1 514.0,115.0 514.8,114.9 515.5,114.7 516.3,114.6 517.0,114.5 517.7,114.4 518.5,114.3 519.2,114.1 520.0,114.0 520.7,113.9 521.5,113.8 522.2,113.7 523.0,113.6 523.7,113.4 524.4,113.3 525.2,113.2 525.9,113.1 526.7,113.0 527.4,112.9 528.2,112.8 528.9,112.7 529.6,112.6 530.4,112.4 531.1,112.3 531.9,112.2 532.6,112.1 533.4,112.0 534.1,111.9 534.9,111.8 535.6,111.7 536.3,111.6 537.1,111.5 537.8,111.4 538.6,111.3 539.3,111.2 540.1,111.1 540.8,111.0 541.6,110.9 542.3,110.8 543.0,110.7 543.8,110.6 544.5,110.5 545.3,110.4 546.0,110.3 546.8,110.2 547.5,110.1 548.2,110.0 549.0,109.9 549.7,109.8 550.5,109.7 551.2,109.6 552.0,109.5 552.7,109.4 553.5,109.4 554.2,109.3 554.9,109.2 555.7,109.1 556.4,109.0 557.2,108.9 557.9,108.8 558.7,108.7 559.4,108.6 560.2,108.5 560.9,108.4 561.6,108.3 562.4,108.3 563.1,108.2 563.9,108.1 564.6,108.0 565.4,107.9 566.1,107.8 566.8,107.7 567.6,107.6 568.3,107.5 569.1,107.4 569.8,107.4 570.6,107.3 571.3,107.2 572.1,107.1 572.8,107.0 573.5,106.9 574.3,106.8 575.0,106.7 575.8,106.6 576.5,106.5 577.3,106.5 578.0,106.4 578.8,106.3 579.5,106.2 580.2,106.1 581.0,106.0 581.7,105.9 582.5,105.8 583.2,105.7 584.0,105.6 584.7,105.5 585.4,105.5 586.2,105.4 586.9,105.3 587.7,105.2 588.4,105.1 589.2,105.0 589.9,104.9 590.7,104.8 591.4,104.7 592.1,104.6 592.9,104.5 593.6,104.4 594.4,104.3 595.1,104.2 595.9,104.1 596.6,104.0 597.4,104.0 598.1,103.9 598.8,103.8 599.6,103.7 600.3,103.6 601.1,103.5 601.8,103.4 602.6,103.3 603.3,103.2 604.0,103.1 604.8,103.0 605.5,102.9 606.3,102.8 607.0,102.7 607.8,102.6 608.5,102.4 609.3,102.3 610.0,102.2 610.7,102.1 611.5,102.0 612.2,101.9 613.0,101.8 613.7,101.7 614.5,101.6 615.2,101.5 616.0,101.4 616.7,101.3 617.4,101.2 618.2,101.0 618.9,100.9 619.7,100.8 620.4,100.7 621.2,100.6 621.9,100.5 622.6,100.4 623.4,100.2 624.1,100.1 624.9,100.0 625.6,99.9 626.4,99.8 627.1,99.6 627.9,99.5 628.6,99.4 629.3,99.3 630.1,99.1 630.8,99.0 631.6,98.9 632.3,98.8 633.1,98.6 633.8,98.5 634.6,98.4 635.3,98.2 636.0,98.1 636.8,98.0 637.5,97.8 638.3,97.7 639.0,97.6 639.8,97.4 640.5,97.3 641.2,97.2 642.0,97.0 642.7,96.9 643.5,96.7 644.2,96.6 645.0,96.5 645.7,96.3 646.5,96.2 647.2,96.0 647.9,95.9 648.7,95.7 649.4,95.6 650.2,95.4 650.9,95.3 651.7,95.1 652.4,95.0 653.2,94.8 653.9,94.6 654.6,94.5 655.4,94.3 656.1,94.2 656.9,94.0 657.6,93.8 658.4,93.7 659.1,93.5 659.8,93.3 660.6,93.2 661.3,93.0 662.1,92.8 662.8,92.7 663.6,92.5 664.3,92.3 665.1,92.2 665.8,92.0 666.5,91.8 667.3,91.6 668.0,91.4 668.8,91.3 669.5,91.1 670.3,90.9 671.0,90.7 671.8,90.5 672.5,90.3 673.2,90.2 674.0,90.0 674.7,89.8 675.5,89.6 676.2,89.4 677.0,89.2 677.7,89.0 678.4,88.8 679.2,88.6 679.9,88.4 680.7,88.2 681.4,88.0 682.2,87.8 682.9,87.6 683.7,87.4 684.4,87.2 685.1,87.0 685.9,86.8 686.6,86.5 687.4,86.3 688.1,86.1 688.9,85.9 689.6,85.7 690.4,85.5 691.1,85.3 691.8,85.0 692.6,84.8 693.3,84.6 694.1,84.4 694.8,84.1 695.6,83.9 696.3,83.7 697.0,83.4 697.8,83.2 698.5,83.0 699.3,82.7 700.0,82.5 700.8,82.3 701.5,82.0 702.3,81.8 703.0,81.6 703.7,81.3 704.5,81.1 705.2,80.8 706.0,80.6 706.7,80.3 707.5,80.1 708.2,79.8 709.0,79.6 709.7,79.3 710.4,79.1 711.2,78.8 711.9,78.6 712.7,78.3 713.4,78.0 714.2,77.8 714.9,77.5 715.6,77.3 716.4,77.0 717.1,76.7 717.9,76.5 718.6,76.2 719.4,75.9 720.1,75.7 720.9,75.4 721.6,75.1 722.3,74.8 723.1,74.6 723.8,74.3 724.6,74.0 725.3,73.7 726.1,73.4 726.8,73.2 727.6,72.9 728.3,72.6 729.0,72.3 729.8,72.0 730.5,71.7 731.3,71.4 732.0,71.1 732.8,70.8 733.5,70.5 734.2,70.2 735.0,70.0 735.7,69.7 736.5,69.4 737.2,69.1 738.0,68.8 738.7,68.4 739.5,68.1 740.2,67.8 740.9,67.5 741.7,67.2 742.4,66.9 743.2,66.6 743.9,66.3 744.7,66.0 745.4,65.7 746.2,65.4 746.9,65.0 747.6,64.7 748.4,64.4 749.1,64.1 749.9,63.8 750.6,63.4 751.4,63.1 752.1,62.8 752.8,62.5 753.6,62.1 754.3,61.8 755.1,61.5 755.8,61.2 756.6,60.8 757.3,60.5 758.1,60.2 758.8,59.8 759.5,59.5 760.3,59.2 761.0,58.8 761.8,58.5 762.5,58.1 763.3,57.8 764.0,57.5 764.8,57.1 765.5,56.8 766.2,56.4 767.0,56.1 767.7,55.7 768.5,55.4 769.2,55.0 770.0,54.7 770.7,54.4 771.4,54.0 772.2,53.6 772.9,53.3 773.7,52.9 774.4,52.6 775.2,52.2 775.9,51.9 776.7,51.5 777.4,51.2 778.1,50.8 778.9,50.5 779.6,50.1 780.4,49.7 781.1,49.4 781.9,49.0 782.6,48.6 783.4,48.3 784.1,47.9 784.8,47.6 785.6,47.2 786.3,46.8 787.1,46.5 787.8,46.1 788.6,45.7 789.3,45.3 790.0,45.0 790.8,44.6 791.5,44.2 792.3,43.9 793.0,43.5 793.8,43.1 794.5,42.7 795.3,42.4 796.0,42.0"/>
<text x="640" y="56" font-family="Arial" font-size="12" fill="#0f766e">Truth altitude</text>
</svg>