<svg xmlns="http://www.w3.org/2000/svg" width="820" height="320" viewBox="0 0 820 320">
<rect width="100%" height="100%" fill="white"/>
<text x="52" y="30" font-family="Arial" font-size="18" font-weight="700">linear_nominal altitude</text>
<line x1="52" y1="274" x2="796" y2="274" stroke="#263238"/>
<line x1="52" y1="42" x2="52" y2="274" stroke="#263238"/>
<text x="52" y="306" font-family="Arial" font-size="12">time (s)</text>
<text x="630" y="306" font-family="Arial" font-size="12">m</text>

<rect x="379.4" y="42" width="89.3" height="232" fill="#fef3c7" opacity="0.72"/>
<polyline fill="none" stroke="#0f766e" stroke-width="2.3" points="52.0,273.3 52.7,273.2 53.5,273.1 54.2,273.0 55.0,272.9 55.7,272.8 56.5,272.7 57.2,272.6 58.0,272.5 58.7,272.5 59.4,272.4 60.2,272.3 60.9,272.2 61.7,272.1 62.4,272.0 63.2,271.9 63.9,271.8 64.6,271.7 65.4,271.7 66.1,271.6 66.9,271.5 67.6,271.4 68.4,271.3 69.1,271.2 69.9,271.1 70.6,271.0 71.3,270.9 72.1,270.8 72.8,270.7 73.6,270.7 74.3,270.6 75.1,270.5 75.8,270.4 76.6,270.3 77.3,270.2 78.0,270.1 78.8,270.0 79.5,269.9 80.3,269.8 81.0,269.7 81.8,269.6 82.5,269.5 83.2,269.4 84.0,269.3 84.7,269.2 85.5,269.1 86.2,269.0 87.0,268.9 87.7,268.8 88.5,268.7 89.2,268.6 89.9,268.5 90.7,268.4 91.4,268.3 92.2,268.2 92.9,268.1 93.7,268.0 94.4,267.9 95.2,267.8 95.9,267.7 96.6,267.5 97.4,267.4 98.1,267.3 98.9,267.2 99.6,267.1 100.4,267.0 101.1,266.9 101.8,266.8 102.6,266.7 103.3,266.5 104.1,266.4 104.8,266.3 105.6,266.2 106.3,266.1 107.1,266.0 107.8,265.8 108.5,265.7 109.3,265.6 110.0,265.5 110.8,265.3 111.5,265.2 112.3,265.1 113.0,265.0 113.8,264.8 114.5,264.7 115.2,264.6 116.0,264.5 116.7,264.3 117.5,264.2 118.2,264.1 119.0,263.9 119.7,263.8 120.4,263.7 121.2,263.5 121.9,263.4 122.7,263.3 123.4,263.1 124.2,263.0 124.9,262.8 125.7,262.7 126.4,262.6 127.1,262.4 127.9,262.3 128.6,262.1 129.4,262.0 130.1,261.8 130.9,261.7 131.6,261.5 132.4,261.4 133.1,261.2 133.8,261.1 134.6,260.9 135.3,260.8 136.1,260.6 136.8,260.4 137.6,260.3 138.3,260.1 139.0,260.0 139.8,259.8 140.5,259.6 141.3,259.5 142.0,259.3 142.8,259.1 143.5,259.0 144.3,258.8 145.0,258.6 145.7,258.5 146.5,258.3 147.2,258.1 148.0,257.9 148.7,257.8 149.5,257.6 150.2,257.4 151.0,257.2 151.7,257.0 152.4,256.9 153.2,256.7 153.9,256.5 154.7,256.3 155.4,256.1 156.2,255.9 156.9,255.7 157.6,255.5 158.4,255.3 159.1,255.2 159.9,255.0 160.6,254.8 161.4,254.6 162.1,254.4 162.9,254.2 163.6,254.0 164.3,253.8 165.1,253.6 165.8,253.3 166.6,253.1 167.3,252.9 168.1,252.7 168.8,252.5 169.6,252.3 170.3,252.1 171.0,251.9 171.8,251.7 172.5,251.4 173.3,251.2 174.0,251.0 174.8,250.8 175.5,250.6 176.2,250.3 177.0,250.1 177.7,249.9 178.5,249.6 179.2,249.4 180.0,249.2 180.7,249.0 181.5,248.7 182.2,248.5 182.9,248.3 183.7,248.0 184.4,247.8 185.2,247.5 185.9,247.3 186.7,247.1 187.4,246.8 188.2,246.6 188.9,246.3 189.6,246.1 190.4,245.8 191.1,245.6 191.9,245.3 192.6,245.1 193.4,244.8 194.1,244.6 194.8,244.3 195.6,244.0 196.3,243.8 197.1,243.5 197.8,243.3 198.6,243.0 199.3,242.7 200.1,242.5 200.8,242.2 201.5,241.9 202.3,241.7 203.0,241.4 203.8,241.1 204.5,240.8 205.3,240.6 206.0,240.3 206.8,240.0 207.5,239.7 208.2,239.5 209.0,239.2 209.7,238.9 210.5,238.6 211.2,238.3 212.0,238.0 212.7,237.7 213.4,237.5 214.2,237.2 214.9,236.9 215.7,236.6 216.4,236.3 217.2,236.0 217.9,235.7 218.7,235.4 219.4,235.1 220.1,234.8 220.9,234.5 221.6,234.2 222.4,233.9 223.1,233.6 223.9,233.3 224.6,233.0 225.4,232.7 226.1,232.4 226.8,232.0 227.6,231.7 228.3,231.4 229.1,231.1 229.8,230.8 230.6,230.5 231.3,230.2 232.0,229.8 232.8,229.5 233.5,229.2 234.3,228.9 235.0,228.6 235.8,228.2 236.5,227.9 237.3,227.6 238.0,227.3 238.7,226.9 239.5,226.6 240.2,226.3 241.0,225.9 241.7,225.6 242.5,225.3 243.2,224.9 244.0,224.6 244.7,224.3 245.4,223.9 246.2,223.6 246.9,223.3 247.7,222.9 248.4,222.6 249.2,222.2 249.9,221.9 250.6,221.6 251.4,221.2 252.1,220.9 252.9,220.5 253.6,220.2 254.4,219.8 255.1,219.5 255.9,219.1 256.6,218.8 257.3,218.4 258.1,218.1 258.8,217.7 259.6,217.4 260.3,217.0 261.1,216.7 261.8,216.3 262.6,215.9 263.3,215.6 264.0,215.2 264.8,214.9 265.5,214.5 266.3,214.2 267.0,213.8 267.8,213.4 268.5,213.1 269.2,212.7 270.0,212.3 270.7,212.0 271.5,211.6 272.2,211.3 273.0,210.9 273.7,210.5 274.5,210.2 275.2,209.8 275.9,209.4 276.7,209.0 277.4,208.7 278.2,208.3 278.9,207.9 279.7,207.6 280.4,207.2 281.2,206.8 281.9,206.4 282.6,206.1 283.4,205.7 284.1,205.3 284.9,205.0 285.6,204.6 286.4,204.2 287.1,203.8 287.8,203.5 288.6,203.1 289.3,202.7 290.1,202.3 290.8,201.9 291.6,201.6 292.3,201.2 293.1,200.8 293.8,200.4 294.5,200.1 295.3,199.7 296.0,199.3 296.8,198.9 297.5,198.5 298.3,198.2 299.0,197.8 299.8,197.4 300.5,197.0 301.2,196.6 302.0,196.3 302.7,195.9 303.5,195.5 304.2,195.1 305.0,194.7 305.7,194.3 306.4,194.0 307.2,193.6 307.9,193.2 308.7,192.8 309.4,192.4 310.2,192.0 310.9,191.7 311.7,191.3 312.4,190.9 313.1,190.5 313.9,190.1 314.6,189.8 315.4,189.4 316.1,189.0 316.9,188.6 317.6,188.2 318.4,187.8 319.1,187.5 319.8,187.1 320.6,186.7 321.3,186.3 322.1,185.9 322.8,185.6 323.6,185.2 324.3,184.8 325.0,184.4 325.8,184.0 326.5,183.7 327.3,183.3 328.0,182.9 328.8,182.5 329.5,182.1 330.3,181.8 331.0,181.4 331.7,181.0 332.5,180.6 333.2,180.2 334.0,179.9 334.7,179.5 335.5,179.1 336.2,178.7 337.0,178.4 337.7,178.0 338.4,177.6 339.2,177.2 339.9,176.9 340.7,176.5 341.4,176.1 342.2,175.7 342.9,175.4 343.6,175.0 344.4,174.6 345.1,174.2 345.9,173.9 346.6,173.5 347.4,173.1 348.1,172.8 348.9,172.4 349.6,172.0 350.3,171.7 351.1,171.3 351.8,170.9 352.6,170.6 353.3,170.2 354.1,169.8 354.8,169.5 355.6,169.1 356.3,168.8 357.0,168.4 357.8,168.0 358.5,167.7 359.3,167.3 360.0,167.0 360.8,166.6 361.5,166.2 362.2,165.9 363.0,165.5 363.7,165.2 364.5,164.8 365.2,164.5 366.0,164.1 366.7,163.8 367.5,163.4 368.2,163.1 368.9,162.7 369.7,162.4 370.4,162.0 371.2,161.7 371.9,161.3 372.7,161.0 373.4,160.6 374.2,160.3 374.9,159.9 375.6,159.6 376.4,159.3 377.1,158.9 377.9,158.6 378.6,158.2 379.4,157.9 380.1,157.6 380.8,157.2 381.6,156.9 382.3,156.6 383.1,156.2 383.8,155.9 384.6,155.6 385.3,155.2 386.1,154.9 386.8,154.6 387.5,154.3 388.3,153.9 389.0,153.6 389.8,153.3 390.5,153.0 391.3,152.7 392.0,152.3 392.8,152.0 393.5,151.7 394.2,151.4 395.0,151.1 395.7,150.8 396.5,150.4 397.2,150.1 398.0,149.8 398.7,149.5 399.4,149.2 400.2,148.9 400.9,148.6 401.7,148.3 402.4,148.0 403.2,147.7 403.9,147.4 404.7,147.1 405.4,146.8 406.1,146.5 406.9,146.2 407.6,145.9 408.4,145.6 409.1,145.3 409.9,145.0 410.6,144.7 411.4,144.4 412.1,144.1 412.8,143.9 413.6,143.6 414.3,143.3 415.1,143.0 415.8,142.7 416.6,142.4 417.3,142.2 418.0,141.9 418.8,141.6 419.5,141.3 420.3,141.1 421.0,140.8 421.8,140.5 422.5,140.2 423.3,140.0 424.0,139.7 424.7,139.4 425.5,139.2 426.2,138.9 427.0,138.7 427.7,138.4 428.5,138.1 429.2,137.9 430.0,137.6 430.7,137.4 431.4,137.1 432.2,136.9 432.9,136.6 433.7,136.3 434.4,136.1 435.2,135.9 435.9,135.6 436.6,135.4 437.4,135.1 438.1,134.9 438.9,134.6 439.6,134.4 440.4,134.2 441.1,133.9 441.9,133.7 442.6,133.4 443.3,133.2 444.1,133.0 444.8,132.7 445.6,132.5 446.3,132.3 447.1,132.1 447.8,131.8 448.6,131.6 449.3,131.4 450.0,131.2 450.8,130.9 451.5,130.7 452.3,130.5 453.0,130.3 453.8,130.1 454.5,129.9 455.2,129.7 456.0,129.4 456.7,129.2 457.5,129.0 458.2,128.8 459.0,128.6 459.7,128.4 460.5,128.2 461.2,128.0 461.9,127.8 462.7,127.6 463.4,127.4 464.2,127.2 464.9,127.0 465.7,126.8 466.4,126.6 467.2,126.4 467.9,126.2 468.6,126.1 469.4,125.9 470.1,125.7 470.9,125.5 471.6,125.3 472.4,125.1 473.1,124.9 473.8,124.8 474.6,124.6 475.3,124.4 476.1,124.2 476.8,124.1 477.6,123.9 478.3,123.7 479.1,123.5 479.8,123.4 480.5,123.2 481.3,123.0 482.0,122.9 482.8,122.7 483.5,122.5 484.3,122.4 485.0,122.2 485.8,122.0 486.5,121.9 487.2,121.7 488.0,121.6 488.7,121.4 489.5,121.2 490.2,121.1 491.0,120.9 491.7,120.8 492.4,120.6 493.2,120.5 493.9,120.3 494.7,120.2 495.4,120.0 496.2,119.9 496.9,119.7 497.7,119.6 498.4,119.5 499.1,119.3 499.9,119.2 500.6,119.0 501.4,118.9 502.1,118.8 502.9,118.6 503.6,118.5 504.4,118.4 505.1,118.2 505.8,118.1 506.6,118.0 507.3,117.8 508.1,117.7 508.8,117.6 509.6,117.4 510.3,117.3 511.0,117.2 511.8,117.1 512.5,116.9 513.3,116.8 514.0,116.7 514.8,116.6 515.5,116.4 516.3,116.3 517.0,116.2 517.7,116.1 518.5,116.0 519.2,115.8 520.0,115.7 520.7,115.6 521.5,115.5 522.2,115.4 523.0,115.3 523.7,115.2 524.4,115.0 525.2,114.9 525.9,114.8 526.7,114.7 527.4,114.6 528.2,114.5 528.9,114.4 529.6,114.3 530.4,114.2 531.1,114.1 531.9,114.0 532.6,113.9 533.4,113.8 534.1,113.6 534.9,113.5 535.6,113.4 536.3,113.3 537.1,113.2 537.8,113.1 538.6,113.0 539.3,112.9 540.1,112.8 540.8,112.7 541.6,112.6 542.3,112.5 543.0,112.4 543.8,112.4 544.5,112.3 545.3,112.2 546.0,112.1 546.8,112.0 547.5,111.9 548.2,111.8 549.0,111.7 549.7,111.6 550.5,111.5 551.2,111.4 552.0,111.3 552.7,111.2 553.5,111.1 554.2,111.0 554.9,110.9 555.7,110.9 556.4,110.8 557.2,110.7 557.9,110.6 558.7,110.5 559.4,110.4 560.2,110.3 560.9,110.2 561.6,110.1 562.4,110.0 563.1,110.0 563.9,109.9 564.6,109.8 565.4,109.7 566.1,109.6 566.8,109.5 567.6,109.4 568.3,109.3 569.1,109.2 569.8,109.2 570.6,109.1 571.3,109.0 572.1,108.9 572.8,108.8 573.5,108.7 574.3,108.6 575.0,108.5 575.8,108.5 576.5,108.4 577.3,108.3 578.0,108.2 578.8,108.1 579.5,108.0 580.2,107.9 581.0,107.8 581.7,107.7 582.5,107.7 583.2,107.6 584.0,107.5 584.7,107.4 585.4,107.3 586.2,107.2 586.9,107.1 587.7,107.0 588.4,106.9 589.2,106.8 589.9,106.7 590.7,106.7 591.4,106.6 592.1,106.5 592.9,106.4 593.6,106.3 594.4,106.2 595.1,106.1 595.9,106.0 596.6,105.9 597.4,105.8 598.1,105.7 598.8,105.6 599.6,105.5 600.3,105.4 601.1,105.3 601.8,105.2 602.6,105.1 603.3,105.0 604.0,104.9 604.8,104.8 605.5,104.7 606.3,104.6 607.0,104.5 607.8,104.4 608.5,104.3 609.3,104.2 610.0,104.1 610.7,104.0 611.5,103.9 612.2,103.8 613.0,103.7 613.7,103.6 614.5,103.5 615.2,103.4 616.0,103.3 616.7,103.2 617.4,103.1 618.2,102.9 618.9,102.8 619.7,102.7 620.4,102.6 621.2,102.5 621.9,102.4 622.6,102.3 623.4,102.2 624.1,102.0 624.9,101.9 625.6,101.8 626.4,101.7 627.1,101.6 627.9,101.4 628.6,101.3 629.3,101.2 630.1,101.1 630.8,101.0 631.6,100.8 632.3,100.7 633.1,100.6 633.8,100.4 634.6,100.3 635.3,100.2 636.0,100.1 636.8,99.9 637.5,99.8 638.3,99.7 639.0,99.5 639.8,99.4 640.5,99.3 641.2,99.1 642.0,99.0 642.7,98.8 643.5,98.7 644.2,98.6 645.0,98.4 645.7,98.3 646.5,98.1 647.2,98.0 647.9,97.9 648.7,97.7 649.4,97.6 650.2,97.4 650.9,97.3 651.7,97.1 652.4,97.0 653.2,96.8 653.9,96.6 654.6,96.5 655.4,96.3 656.1,96.2 656.9,96.0 657.6,95.9 658.4,95.7 659.1,95.5 659.8,95.4 660.6,95.2 661.3,95.0 662.1,94.9 662.8,94.7 663.6,94.5 664.3,94.4 665.1,94.2 665.8,94.0 666.5,93.8 667.3,93.7 668.0,93.5 668.8,93.3 669.5,93.1 670.3,93.0 671.0,92.8 671.8,92.6 672.5,92.4 673.2,92.2 674.0,92.0 674.7,91.8 675.5,91.7 676.2,91.5 677.0,91.3 677.7,91.1 678.4,90.9 679.2,90.7 679.9,90.5 680.7,90.3 681.4,90.1 682.2,89.9 682.9,89.7 683.7,89.5 684.4,89.3 685.1,89.1 685.9,88.9 686.6,88.7 687.4,88.5 688.1,88.3 688.9,88.0 689.6,87.8 690.4,87.6 691.1,87.4 691.8,87.2 692.6,87.0 693.3,86.7 694.1,86.5 694.8,86.3 695.6,86.1 696.3,85.8 697.0,85.6 697.8,85.4 698.5,85.2 699.3,84.9 700.0,84.7 700.8,84.5 701.5,84.2 702.3,84.0 703.0,83.8 703.7,83.5 704.5,83.3 705.2,83.0 706.0,82.8 706.7,82.6 707.5,82.3 708.2,82.1 709.0,81.8 709.7,81.6 710.4,81.3 711.2,81.1 711.9,80.8 712.7,80.6 713.4,80.3 714.2,80.0 714.9,79.8 715.6,79.5 716.4,79.3 717.1,79.0 717.9,78.7 718.6,78.5 719.4,78.2 720.1,77.9 720.9,77.7 721.6,77.4 722.3,77.1 723.1,76.9 723.8,76.6 724.6,76.3 725.3,76.0 726.1,75.8 726.8,75.5 727.6,75.2 728.3,74.9 729.0,74.6 729.8,74.4 730.5,74.1 731.3,73.8 732.0,73.5 732.8,73.2 733.5,72.9 734.2,72.6 735.0,72.3 735.7,72.0 736.5,71.7 737.2,71.4 738.0,71.2 738.7,70.9 739.5,70.6 740.2,70.3 740.9,69.9 741.7,69.6 742.4,69.3 743.2,69.0 743.9,68.7 744.7,68.4 745.4,68.1 746.2,67.8 746.9,67.5 747.6,67.2 748.4,66.9 749.1,66.5 749.9,66.2 750.6,65.9 751.4,65.6 752.1,65.3 752.8,65.0 753.6,64.6 754.3,64.3 755.1,64.0 755.8,63.7 756.6,63.3 757.3,63.0 758.1,62.7 758.8,62.4 759.5,62.0 760.3,61.7 761.0,61.4 761.8,61.0 762.5,60.7 763.3,60.4 764.0,60.0 764.8,59.7 765.5,59.4 766.2,59.0 767.0,58.7 767.7,58.3 768.5,58.0 769.2,57.7 770.0,57.3 770.7,57.0 771.4,56.6 772.2,56.3 772.9,55.9 773.7,55.6 774.4,55.2 775.2,54.9 775.9,54.5 776.7,54.2 777.4,53.8 778.1,53.5 778.9,53.1 779.6,52.8 780.4,52.4 781.1,52.1 781.9,51.7 782.6,51.4 783.4,51.0 784.1,50.6 784.8,50.3 785.6,49.9 786.3,49.6 787.1,49.2 787.8,48.8 788.6,48.5 789.3,48.1 790.0,47.7 790.8,47.4 791.5,47.0 792.3,46.6 793.0,46.3 793.8,45.9 794.5,45.5 795.3,45.2 796.0,44.8"/>
<text x="640" y="56" font-family="Arial" font-size="12" fill="#0f766e">truth</text>
<polyline fill="none" stroke="#2563eb" stroke-width="2.3" points="52.0,272.0 52.7,271.8 53.5,271.6 54.2,271.3 55.0,267.4 55.7,267.2 56.5,267.0 57.2,266.8 58.0,264.0 58.7,263.7 59.4,263.5 60.2,263.3 60.9,266.6 61.7,266.4 62.4,266.2 63.2,266.0 63.9,273.0 64.6,273.0 65.4,272.9 66.1,272.9 66.9,273.1 67.6,272.9 68.4,272.7 69.1,272.4 69.9,274.0 70.6,273.8 71.3,273.6 72.1,273.4 72.8,272.3 73.6,272.1 74.3,271.9 75.1,271.6 75.8,268.6 76.6,268.2 77.3,267.9 78.0,267.6 78.8,264.4 79.5,264.0 80.3,263.5 81.0,263.1 81.8,261.0 82.5,260.6 83.2,260.2 84.0,259.8 84.7,261.3 85.5,261.0 86.2,260.6 87.0,260.2 87.7,258.4 88.5,257.9 89.2,257.5 89.9,257.1 90.7,259.4 91.4,259.1 92.2,258.8 92.9,258.4 93.7,260.1 94.4,259.8 95.2,259.5 95.9,259.2 96.6,263.0 97.4,262.9 98.1,262.9 98.9,262.9 99.6,263.8 100.4,263.8 101.1,263.9 101.8,263.9 102.6,262.4 103.3,262.4 104.1,262.4 104.8,262.3 105.6,262.8 106.3,262.8 107.1,262.8 107.8,262.9 108.5,264.8 109.3,264.9 110.0,265.0 110.8,265.1 111.5,265.9 112.3,266.0 113.0,266.1 113.8,266.2 114.5,262.6 115.2,262.7 116.0,262.7 116.7,262.8 117.5,264.2 118.2,264.2 119.0,264.3 119.7,264.4 120.4,264.4 121.2,264.5 121.9,264.6 122.7,264.7 123.4,262.0 124.2,262.0 124.9,262.0 125.7,262.1 126.4,268.1 127.1,268.3 127.9,268.6 128.6,268.8 129.4,267.3 130.1,267.5 130.9,267.7 131.6,268.0 132.4,268.2 133.1,268.5 133.8,268.7 134.6,268.9 135.3,265.7 136.1,265.8 136.8,266.0 137.6,266.2 138.3,268.5 139.0,268.7 139.8,268.9 140.5,269.2 141.3,267.7 142.0,267.9 142.8,268.1 143.5,268.3 144.3,264.7 145.0,264.9 145.7,265.0 146.5,265.2 147.2,265.6 148.0,265.8 148.7,266.0 149.5,266.2 150.2,265.9 151.0,266.1 151.7,266.2 152.4,266.4 153.2,263.3 153.9,263.4 154.7,263.5 155.4,263.7 156.2,265.3 156.9,265.4 157.6,265.6 158.4,265.8 159.1,262.7 159.9,262.8 160.6,263.0 161.4,263.1 162.1,264.2 162.9,264.4 163.6,264.6 164.3,264.8 165.1,263.7 165.8,263.8 166.6,264.0 167.3,264.2 168.1,258.8 168.8,258.8 169.6,258.9 170.3,258.9 171.0,256.0 171.8,255.9 172.5,255.8 173.3,255.8 174.0,255.9 174.8,255.8 175.5,255.7 176.2,255.6 177.0,254.0 177.7,253.9 178.5,253.8 179.2,253.7 180.0,252.5 180.7,252.4 181.5,252.2 182.2,252.1 182.9,253.8 183.7,253.7 184.4,253.6 185.2,253.5 185.9,248.7 186.7,248.5 187.4,248.3 188.2,248.1 188.9,247.2 189.6,247.0 190.4,246.8 191.1,246.6 191.9,250.1 192.6,250.0 193.4,249.8 194.1,249.7 194.8,251.4 195.6,251.3 196.3,251.2 197.1,251.1 197.8,249.7 198.6,249.6 199.3,249.4 200.1,249.3 200.8,248.3 201.5,248.1 202.3,248.0 203.0,247.8 203.8,249.5 204.5,249.3 205.3,249.2 206.0,249.1 206.8,245.3 207.5,245.1 208.2,244.9 209.0,244.8 209.7,242.3 210.5,242.1 211.2,241.9 212.0,241.7 212.7,241.7 213.4,241.5 214.2,241.3 214.9,241.1 215.7,240.1 216.4,239.9 217.2,239.7 217.9,239.4 218.7,237.0 219.4,236.7 220.1,236.4 220.9,236.1 221.6,237.8 222.4,237.6 223.1,237.3 223.9,237.0 224.6,235.9 225.4,235.7 226.1,235.4 226.8,235.1 227.6,236.7 228.3,236.5 229.1,236.3 229.8,236.0 230.6,231.8 231.3,231.5 232.0,231.1 232.8,230.8 233.5,233.7 234.3,233.4 235.0,233.1 235.8,232.8 236.5,233.2 237.3,233.0 238.0,232.7 238.7,232.4 239.5,231.4 240.2,231.1 241.0,230.8 241.7,230.5 242.5,231.7 243.2,231.4 244.0,231.2 244.7,230.9 245.4,232.0 246.2,231.8 246.9,231.6 247.7,231.4 248.4,232.4 249.2,232.2 249.9,232.0 250.6,231.8 251.4,233.0 252.1,232.8 252.9,232.6 253.6,232.5 254.4,233.9 255.1,233.8 255.9,233.6 256.6,233.5 257.3,231.7 258.1,231.6 258.8,231.4 259.6,231.2 260.3,229.3 261.1,229.1 261.8,228.9 262.6,228.7 263.3,228.3 264.0,228.1 264.8,227.9 265.5,227.7 266.3,225.9 267.0,225.7 267.8,225.5 268.5,225.2 269.2,222.9 270.0,222.6 270.7,222.4 271.5,222.1 272.2,224.2 273.0,224.0 273.7,223.7 274.5,223.5 275.2,220.2 275.9,219.9 276.7,219.7 277.4,219.4 278.2,217.5 278.9,217.2 279.7,216.9 280.4,216.6 281.2,215.8 281.9,215.5 282.6,215.2 283.4,214.9 284.1,215.4 284.9,215.1 285.6,214.8 286.4,214.5 287.1,213.7 287.8,213.4 288.6,213.1 289.3,212.8 290.1,210.7 290.8,210.4 291.6,210.1 292.3,209.7 293.1,206.7 293.8,206.3 294.5,206.0 295.3,205.6 296.0,205.4 296.8,205.1 297.5,204.7 298.3,204.3 299.0,204.3 299.8,203.9 300.5,203.6 301.2,203.2 302.0,203.3 302.7,203.0 303.5,202.6 304.2,202.2 305.0,204.0 305.7,203.7 306.4,203.3 307.2,203.0 307.9,201.3 308.7,200.9 309.4,200.6 310.2,200.2 310.9,199.0 311.7,198.6 312.4,198.3 313.1,197.9 313.9,196.3 314.6,195.9 315.4,195.5 316.1,195.1 316.9,194.1 317.6,193.7 318.4,193.3 319.1,192.9 319.8,195.5 320.6,195.1 321.3,194.8 322.1,194.4 322.8,194.3 323.6,193.9 324.3,193.6 325.0,193.2 325.8,190.7 326.5,190.3 327.3,190.0 328.0,189.6 328.8,188.3 329.5,187.9 330.3,187.5 331.0,187.1 331.7,187.8 332.5,187.5 333.2,187.1 334.0,186.8 334.7,187.9 335.5,187.6 336.2,187.3 337.0,187.0 337.7,186.1 338.4,185.7 339.2,185.4 339.9,185.1 340.7,185.2 341.4,184.9 342.2,184.6 342.9,184.2 343.6,184.5 344.4,184.2 345.1,183.9 345.9,183.6 346.6,181.1 347.4,180.8 348.1,180.5 348.9,180.1 349.6,179.5 350.3,179.1 351.1,178.8 351.8,178.5 352.6,177.4 353.3,177.1 354.1,176.7 354.8,176.4 355.6,175.0 356.3,174.7 357.0,174.4 357.8,174.0 358.5,174.0 359.3,173.7 360.0,173.3 360.8,173.0 361.5,171.2 362.2,170.9 363.0,170.5 363.7,170.2 364.5,168.4 365.2,168.1 366.0,167.7 366.7,167.3 367.5,167.1 368.2,166.8 368.9,166.4 369.7,166.0 370.4,167.3 371.2,166.9 371.9,166.6 372.7,166.2 373.4,163.9 374.2,163.6 374.9,163.2 375.6,162.8 376.4,160.8 377.1,160.4 377.9,160.0 378.6,159.6 379.4,157.7 380.1,157.3 380.8,156.9 381.6,156.5 382.3,155.9 383.1,155.5 383.8,155.1 384.6,154.7 385.3,153.2 386.1,152.8 386.8,152.3 387.5,151.9 388.3,153.0 389.0,152.6 389.8,152.2 390.5,151.9 391.3,151.8 392.0,151.4 392.8,151.0 393.5,150.6 394.2,149.5 395.0,149.1 395.7,148.7 396.5,148.4 397.2,148.6 398.0,148.2 398.7,147.8 399.4,147.5 400.2,147.4 400.9,147.0 401.7,146.6 402.4,146.3 403.2,146.1 403.9,145.7 404.7,145.4 405.4,145.0 406.1,142.3 406.9,141.9 407.6,141.5 408.4,141.1 409.1,140.5 409.9,140.1 410.6,139.7 411.4,139.4 412.1,140.6 412.8,140.2 413.6,139.8 414.3,139.5 415.1,141.8 415.8,141.5 416.6,141.1 417.3,140.8 418.0,141.7 418.8,141.4 419.5,141.1 420.3,140.8 421.0,139.5 421.8,139.2 422.5,138.9 423.3,138.6 424.0,137.9 424.7,137.6 425.5,137.3 426.2,137.0 427.0,135.8 427.7,135.5 428.5,135.2 429.2,134.9 430.0,136.5 430.7,136.2 431.4,135.9 432.2,135.6 432.9,135.1 433.7,134.8 434.4,134.5 435.2,134.2 435.9,135.0 436.6,134.7 437.4,134.4 438.1,134.1 438.9,133.7 439.6,133.4 440.4,133.1 441.1,132.8 441.9,131.3 442.6,131.0 443.3,130.8 444.1,130.5 444.8,131.7 445.6,131.4 446.3,131.2 447.1,130.9 447.8,129.2 448.6,128.9 449.3,128.6 450.0,128.3 450.8,128.2 451.5,127.9 452.3,127.6 453.0,127.4 453.8,129.8 454.5,129.6 455.2,129.3 456.0,129.1 456.7,127.5 457.5,127.3 458.2,127.0 459.0,126.8 459.7,126.2 460.5,125.9 461.2,125.6 461.9,125.4 462.7,124.2 463.4,123.9 464.2,123.7 464.9,123.4 465.7,122.4 466.4,122.1 467.2,121.8 467.9,121.5 468.6,123.9 469.4,123.6 470.1,123.4 470.9,123.2 471.6,121.1 472.4,120.9 473.1,120.6 473.8,120.4 474.6,120.9 475.3,120.6 476.1,120.4 476.8,120.1 477.6,121.9 478.3,121.6 479.1,121.4 479.8,121.2 480.5,122.8 481.3,122.6 482.0,122.4 482.8,122.2 483.5,123.6 484.3,123.5 485.0,123.3 485.8,123.2 486.5,122.8 487.2,122.7 488.0,122.5 488.7,122.4 489.5,123.6 490.2,123.4 491.0,123.3 491.7,123.2 492.4,123.0 493.2,122.9 493.9,122.8 494.7,122.7 495.4,121.4 496.2,121.3 496.9,121.2 497.7,121.0 498.4,118.7 499.1,118.6 499.9,118.5 500.6,118.3 501.4,118.1 502.1,118.0 502.9,117.9 503.6,117.7 504.4,118.3 505.1,118.1 505.8,118.0 506.6,117.9 507.3,119.5 508.1,119.4 508.8,119.3 509.6,119.2 510.3,117.7 511.0,117.6 511.8,117.5 512.5,117.4 513.3,118.2 514.0,118.1 514.8,118.0 515.5,117.9 516.3,118.3 517.0,118.2 517.7,118.1 518.5,118.0 519.2,116.5 520.0,116.4 520.7,116.3 521.5,116.2 522.2,116.3 523.0,116.2 523.7,116.2 524.4,116.1 525.2,117.0 525.9,116.9 526.7,116.8 527.4,116.7 528.2,115.6 528.9,115.5 529.6,115.4 530.4,115.3 531.1,115.3 531.9,115.3 532.6,115.2 533.4,115.1 534.1,114.1 534.9,114.0 535.6,113.9 536.3,113.8 537.1,111.4 537.8,111.3 538.6,111.2 539.3,111.1 540.1,111.5 540.8,111.4 541.6,111.3 542.3,111.1 543.0,112.9 543.8,112.8 544.5,112.7 545.3,112.6 546.0,111.4 546.8,111.3 547.5,111.2 548.2,111.1 549.0,110.1 549.7,110.0 550.5,109.9 551.2,109.8 552.0,111.6 552.7,111.6 553.5,111.5 554.2,111.4 554.9,110.4 555.7,110.3 556.4,110.2 557.2,110.1 557.9,107.9 558.7,107.8 559.4,107.7 560.2,107.6 560.9,106.6 561.6,106.5 562.4,106.3 563.1,106.2 563.9,107.7 564.6,107.6 565.4,107.4 566.1,107.3 566.8,107.7 567.6,107.6 568.3,107.5 569.1,107.4 569.8,107.0 570.6,106.9 571.3,106.8 572.1,106.6 572.8,106.7 573.5,106.6 574.3,106.5 575.0,106.3 575.8,104.8 576.5,104.6 577.3,104.5 578.0,104.4 578.8,103.1 579.5,102.9 580.2,102.8 581.0,102.6 581.7,103.7 582.5,103.5 583.2,103.4 584.0,103.3 584.7,103.3 585.4,103.2 586.2,103.1 586.9,102.9 587.7,106.4 588.4,106.3 589.2,106.2 589.9,106.1 590.7,105.9 591.4,105.8 592.1,105.7 592.9,105.6 593.6,106.3 594.4,106.3 595.1,106.2 595.9,106.1 596.6,106.5 597.4,106.4 598.1,106.4 598.8,106.3 599.6,105.5 600.3,105.4 601.1,105.3 601.8,105.2 602.6,105.1 603.3,105.0 604.0,104.9 604.8,104.8 605.5,102.9 606.3,102.7 607.0,102.6 607.8,102.4 608.5,105.4 609.3,105.3 610.0,105.2 610.7,105.1 611.5,104.4 612.2,104.3 613.0,104.1 613.7,104.0 614.5,103.9 615.2,103.8 616.0,103.7 616.7,103.5 617.4,105.5 618.2,105.4 618.9,105.4 619.7,105.3 620.4,105.4 621.2,105.3 621.9,105.2 622.6,105.2 623.4,103.4 624.1,103.3 624.9,103.2 625.6,103.1 626.4,103.5 627.1,103.4 627.9,103.4 628.6,103.3 629.3,103.9 630.1,103.8 630.8,103.7 631.6,103.6 632.3,104.1 633.1,104.1 633.8,104.0 634.6,103.9 635.3,103.9 636.0,103.8 636.8,103.7 637.5,103.6 638.3,104.5 639.0,104.5 639.8,104.4 640.5,104.3 641.2,103.8 642.0,103.7 642.7,103.7 643.5,103.6 644.2,104.3 645.0,104.2 645.7,104.2 646.5,104.1 647.2,102.4 647.9,102.3 648.7,102.2 649.4,102.1 650.2,101.0 650.9,100.9 651.7,100.8 652.4,100.7 653.2,99.9 653.9,99.8 654.6,99.7 655.4,99.5 656.1,98.4 656.9,98.3 657.6,98.1 658.4,98.0 659.1,98.8 659.8,98.7 660.6,98.5 661.3,98.4 662.1,99.1 662.8,99.0 663.6,98.8 664.3,98.7 665.1,99.0 665.8,98.9 666.5,98.8 667.3,98.6 668.0,99.6 668.8,99.5 669.5,99.3 670.3,99.2 671.0,98.5 671.8,98.4 672.5,98.3 673.2,98.1 674.0,98.3 674.7,98.2 675.5,98.1 676.2,97.9 677.0,96.2 677.7,96.0 678.4,95.9 679.2,95.7 679.9,93.1 680.7,92.9 681.4,92.7 682.2,92.5 682.9,91.0 683.7,90.8 684.4,90.5 685.1,90.3 685.9,91.5 686.6,91.3 687.4,91.0 688.1,90.8 688.9,89.5 689.6,89.3 690.4,89.0 691.1,88.8 691.8,86.9 692.6,86.6 693.3,86.4 694.1,86.1 694.8,88.0 695.6,87.8 696.3,87.6 697.0,87.3 697.8,86.7 698.5,86.5 699.3,86.2 700.0,86.0 700.8,87.7 701.5,87.5 702.3,87.3 703.0,87.0 703.7,88.9 704.5,88.6 705.2,88.4 706.0,88.2 706.7,86.8 707.5,86.6 708.2,86.3 709.0,86.1 709.7,88.4 710.4,88.2 711.2,88.0 711.9,87.8 712.7,86.4 713.4,86.2 714.2,85.9 714.9,85.7 715.6,85.9 716.4,85.7 717.1,85.5 717.9,85.3 718.6,85.5 719.4,85.3 720.1,85.1 720.9,84.9 721.6,82.1 722.3,81.8 723.1,81.6 723.8,81.3 724.6,80.8 725.3,80.5 726.1,80.3 726.8,80.0 727.6,78.5 728.3,78.2 729.0,77.9 729.8,77.6 730.5,78.8 731.3,78.6 732.0,78.3 732.8,78.0 733.5,80.1 734.2,79.8 735.0,79.6 735.7,79.3 736.5,79.5 737.2,79.2 738.0,79.0 738.7,78.7 739.5,79.9 740.2,79.7 740.9,79.4 741.7,79.2 742.4,77.7 743.2,77.4 743.9,77.1 744.7,76.9 745.4,77.7 746.2,77.5 746.9,77.2 747.6,77.0 748.4,77.3 749.1,77.1 749.9,76.9 750.6,76.6 751.4,73.9 752.1,73.6 752.8,73.3 753.6,73.0 754.3,70.1 755.1,69.8 755.8,69.4 756.6,69.1 757.3,69.2 758.1,68.9 758.8,68.6 759.5,68.2 760.3,64.3 761.0,64.0 761.8,63.6 762.5,63.2 763.3,61.9 764.0,61.5 764.8,61.1 765.5,60.7 766.2,60.0 767.0,59.6 767.7,59.2 768.5,58.8 769.2,58.4 770.0,58.0 770.7,57.6 771.4,57.2 772.2,55.4 772.9,55.0 773.7,54.6 774.4,54.2 775.2,53.7 775.9,53.3 776.7,52.9 777.4,52.5 778.1,53.7 778.9,53.3 779.6,52.9 780.4,52.5 781.1,50.4 781.9,49.9 782.6,49.5 783.4,49.1 784.1,49.0 784.8,48.6 785.6,48.1 786.3,47.7 787.1,45.5 787.8,45.0 788.6,44.5 789.3,44.1 790.0,43.8 790.8,43.4 791.5,42.9 792.3,42.5 793.0,43.3 793.8,42.9 794.5,42.4 795.3,42.0 796.0,44.0"/>
<text x="640" y="72" font-family="Arial" font-size="12" fill="#2563eb">estimate</text>
</svg>