<svg xmlns="http://www.w3.org/2000/svg" width="820" height="320" viewBox="0 0 820 320">
<rect width="100%" height="100%" fill="white"/>
<text x="52" y="30" font-family="Arial" font-size="18" font-weight="700">ukf_nominal altitude</text>
<line x1="52" y1="274" x2="796" y2="274" stroke="#263238"/>
<line x1="52" y1="42" x2="52" y2="274" stroke="#263238"/>
<text x="52" y="306" font-family="Arial" font-size="12">time (s)</text>
<text x="630" y="306" font-family="Arial" font-size="12">m</text>

<rect x="379.4" y="42" width="89.3" height="232" fill="#fef3c7" opacity="0.72"/>
<polyline fill="none" stroke="#0f766e" stroke-width="2.3" points="52.0,259.1 52.7,259.0 53.5,258.9 54.2,258.8 55.0,258.7 55.7,258.7 56.5,258.6 57.2,258.5 58.0,258.4 58.7,258.3 59.4,258.3 60.2,258.2 60.9,258.1 61.7,258.0 62.4,257.9 63.2,257.8 63.9,257.8 64.6,257.7 65.4,257.6 66.1,257.5 66.9,257.4 67.6,257.3 68.4,257.2 69.1,257.2 69.9,257.1 70.6,257.0 71.3,256.9 72.1,256.8 72.8,256.7 73.6,256.6 74.3,256.6 75.1,256.5 75.8,256.4 76.6,256.3 77.3,256.2 78.0,256.1 78.8,256.0 79.5,255.9 80.3,255.8 81.0,255.8 81.8,255.7 82.5,255.6 83.2,255.5 84.0,255.4 84.7,255.3 85.5,255.2 86.2,255.1 87.0,255.0 87.7,254.9 88.5,254.8 89.2,254.7 89.9,254.6 90.7,254.5 91.4,254.4 92.2,254.3 92.9,254.2 93.7,254.1 94.4,254.1 95.2,254.0 95.9,253.8 96.6,253.7 97.4,253.6 98.1,253.5 98.9,253.4 99.6,253.3 100.4,253.2 101.1,253.1 101.8,253.0 102.6,252.9 103.3,252.8 104.1,252.7 104.8,252.6 105.6,252.5 106.3,252.4 107.1,252.3 107.8,252.1 108.5,252.0 109.3,251.9 110.0,251.8 110.8,251.7 111.5,251.6 112.3,251.5 113.0,251.3 113.8,251.2 114.5,251.1 115.2,251.0 116.0,250.9 116.7,250.7 117.5,250.6 118.2,250.5 119.0,250.4 119.7,250.2 120.4,250.1 121.2,250.0 121.9,249.9 122.7,249.7 123.4,249.6 124.2,249.5 124.9,249.3 125.7,249.2 126.4,249.1 127.1,248.9 127.9,248.8 128.6,248.7 129.4,248.5 130.1,248.4 130.9,248.3 131.6,248.1 132.4,248.0 133.1,247.8 133.8,247.7 134.6,247.5 135.3,247.4 136.1,247.3 136.8,247.1 137.6,247.0 138.3,246.8 139.0,246.7 139.8,246.5 140.5,246.4 141.3,246.2 142.0,246.0 142.8,245.9 143.5,245.7 144.3,245.6 145.0,245.4 145.7,245.3 146.5,245.1 147.2,244.9 148.0,244.8 148.7,244.6 149.5,244.4 150.2,244.3 151.0,244.1 151.7,243.9 152.4,243.8 153.2,243.6 153.9,243.4 154.7,243.2 155.4,243.1 156.2,242.9 156.9,242.7 157.6,242.5 158.4,242.3 159.1,242.2 159.9,242.0 160.6,241.8 161.4,241.6 162.1,241.4 162.9,241.2 163.6,241.1 164.3,240.9 165.1,240.7 165.8,240.5 166.6,240.3 167.3,240.1 168.1,239.9 168.8,239.7 169.6,239.5 170.3,239.3 171.0,239.1 171.8,238.9 172.5,238.7 173.3,238.5 174.0,238.3 174.8,238.1 175.5,237.9 176.2,237.7 177.0,237.5 177.7,237.2 178.5,237.0 179.2,236.8 180.0,236.6 180.7,236.4 181.5,236.2 182.2,235.9 182.9,235.7 183.7,235.5 184.4,235.3 185.2,235.1 185.9,234.8 186.7,234.6 187.4,234.4 188.2,234.1 188.9,233.9 189.6,233.7 190.4,233.5 191.1,233.2 191.9,233.0 192.6,232.7 193.4,232.5 194.1,232.3 194.8,232.0 195.6,231.8 196.3,231.5 197.1,231.3 197.8,231.1 198.6,230.8 199.3,230.6 200.1,230.3 200.8,230.1 201.5,229.8 202.3,229.6 203.0,229.3 203.8,229.1 204.5,228.8 205.3,228.5 206.0,228.3 206.8,228.0 207.5,227.8 208.2,227.5 209.0,227.2 209.7,227.0 210.5,226.7 211.2,226.4 212.0,226.2 212.7,225.9 213.4,225.6 214.2,225.4 214.9,225.1 215.7,224.8 216.4,224.5 217.2,224.3 217.9,224.0 218.7,223.7 219.4,223.4 220.1,223.2 220.9,222.9 221.6,222.6 222.4,222.3 223.1,222.0 223.9,221.7 224.6,221.4 225.4,221.2 226.1,220.9 226.8,220.6 227.6,220.3 228.3,220.0 229.1,219.7 229.8,219.4 230.6,219.1 231.3,218.8 232.0,218.5 232.8,218.2 233.5,217.9 234.3,217.6 235.0,217.3 235.8,217.0 236.5,216.7 237.3,216.4 238.0,216.1 238.7,215.8 239.5,215.5 240.2,215.2 241.0,214.9 241.7,214.6 242.5,214.3 243.2,213.9 244.0,213.6 244.7,213.3 245.4,213.0 246.2,212.7 246.9,212.4 247.7,212.1 248.4,211.7 249.2,211.4 249.9,211.1 250.6,210.8 251.4,210.5 252.1,210.1 252.9,209.8 253.6,209.5 254.4,209.2 255.1,208.8 255.9,208.5 256.6,208.2 257.3,207.9 258.1,207.5 258.8,207.2 259.6,206.9 260.3,206.5 261.1,206.2 261.8,205.9 262.6,205.5 263.3,205.2 264.0,204.9 264.8,204.5 265.5,204.2 266.3,203.9 267.0,203.5 267.8,203.2 268.5,202.9 269.2,202.5 270.0,202.2 270.7,201.8 271.5,201.5 272.2,201.2 273.0,200.8 273.7,200.5 274.5,200.1 275.2,199.8 275.9,199.4 276.7,199.1 277.4,198.7 278.2,198.4 278.9,198.1 279.7,197.7 280.4,197.4 281.2,197.0 281.9,196.7 282.6,196.3 283.4,196.0 284.1,195.6 284.9,195.3 285.6,194.9 286.4,194.6 287.1,194.2 287.8,193.9 288.6,193.5 289.3,193.2 290.1,192.8 290.8,192.5 291.6,192.1 292.3,191.8 293.1,191.4 293.8,191.0 294.5,190.7 295.3,190.3 296.0,190.0 296.8,189.6 297.5,189.3 298.3,188.9 299.0,188.6 299.8,188.2 300.5,187.9 301.2,187.5 302.0,187.1 302.7,186.8 303.5,186.4 304.2,186.1 305.0,185.7 305.7,185.4 306.4,185.0 307.2,184.6 307.9,184.3 308.7,183.9 309.4,183.6 310.2,183.2 310.9,182.9 311.7,182.5 312.4,182.1 313.1,181.8 313.9,181.4 314.6,181.1 315.4,180.7 316.1,180.4 316.9,180.0 317.6,179.6 318.4,179.3 319.1,178.9 319.8,178.6 320.6,178.2 321.3,177.9 322.1,177.5 322.8,177.1 323.6,176.8 324.3,176.4 325.0,176.1 325.8,175.7 326.5,175.4 327.3,175.0 328.0,174.7 328.8,174.3 329.5,174.0 330.3,173.6 331.0,173.2 331.7,172.9 332.5,172.5 333.2,172.2 334.0,171.8 334.7,171.5 335.5,171.1 336.2,170.8 337.0,170.4 337.7,170.1 338.4,169.7 339.2,169.4 339.9,169.0 340.7,168.7 341.4,168.3 342.2,168.0 342.9,167.6 343.6,167.3 344.4,166.9 345.1,166.6 345.9,166.2 346.6,165.9 347.4,165.6 348.1,165.2 348.9,164.9 349.6,164.5 350.3,164.2 351.1,163.8 351.8,163.5 352.6,163.1 353.3,162.8 354.1,162.5 354.8,162.1 355.6,161.8 356.3,161.5 357.0,161.1 357.8,160.8 358.5,160.4 359.3,160.1 360.0,159.8 360.8,159.4 361.5,159.1 362.2,158.8 363.0,158.4 363.7,158.1 364.5,157.8 365.2,157.4 366.0,157.1 366.7,156.8 367.5,156.5 368.2,156.1 368.9,155.8 369.7,155.5 370.4,155.2 371.2,154.8 371.9,154.5 372.7,154.2 373.4,153.9 374.2,153.5 374.9,153.2 375.6,152.9 376.4,152.6 377.1,152.3 377.9,151.9 378.6,151.6 379.4,151.3 380.1,151.0 380.8,150.7 381.6,150.4 382.3,150.1 383.1,149.8 383.8,149.5 384.6,149.1 385.3,148.8 386.1,148.5 386.8,148.2 387.5,147.9 388.3,147.6 389.0,147.3 389.8,147.0 390.5,146.7 391.3,146.4 392.0,146.1 392.8,145.8 393.5,145.5 394.2,145.2 395.0,144.9 395.7,144.6 396.5,144.3 397.2,144.1 398.0,143.8 398.7,143.5 399.4,143.2 400.2,142.9 400.9,142.6 401.7,142.3 402.4,142.0 403.2,141.8 403.9,141.5 404.7,141.2 405.4,140.9 406.1,140.6 406.9,140.4 407.6,140.1 408.4,139.8 409.1,139.5 409.9,139.3 410.6,139.0 411.4,138.7 412.1,138.5 412.8,138.2 413.6,137.9 414.3,137.7 415.1,137.4 415.8,137.1 416.6,136.9 417.3,136.6 418.0,136.4 418.8,136.1 419.5,135.8 420.3,135.6 421.0,135.3 421.8,135.1 422.5,134.8 423.3,134.6 424.0,134.3 424.7,134.1 425.5,133.8 426.2,133.6 427.0,133.3 427.7,133.1 428.5,132.8 429.2,132.6 430.0,132.4 430.7,132.1 431.4,131.9 432.2,131.6 432.9,131.4 433.7,131.2 434.4,130.9 435.2,130.7 435.9,130.5 436.6,130.3 437.4,130.0 438.1,129.8 438.9,129.6 439.6,129.4 440.4,129.1 441.1,128.9 441.9,128.7 442.6,128.5 443.3,128.2 444.1,128.0 444.8,127.8 445.6,127.6 446.3,127.4 447.1,127.2 447.8,127.0 448.6,126.8 449.3,126.5 450.0,126.3 450.8,126.1 451.5,125.9 452.3,125.7 453.0,125.5 453.8,125.3 454.5,125.1 455.2,124.9 456.0,124.7 456.7,124.5 457.5,124.3 458.2,124.1 459.0,124.0 459.7,123.8 460.5,123.6 461.2,123.4 461.9,123.2 462.7,123.0 463.4,122.8 464.2,122.6 464.9,122.5 465.7,122.3 466.4,122.1 467.2,121.9 467.9,121.7 468.6,121.6 469.4,121.4 470.1,121.2 470.9,121.0 471.6,120.9 472.4,120.7 473.1,120.5 473.8,120.4 474.6,120.2 475.3,120.0 476.1,119.9 476.8,119.7 477.6,119.5 478.3,119.4 479.1,119.2 479.8,119.0 480.5,118.9 481.3,118.7 482.0,118.6 482.8,118.4 483.5,118.3 484.3,118.1 485.0,118.0 485.8,117.8 486.5,117.7 487.2,117.5 488.0,117.4 488.7,117.2 489.5,117.1 490.2,116.9 491.0,116.8 491.7,116.6 492.4,116.5 493.2,116.4 493.9,116.2 494.7,116.1 495.4,115.9 496.2,115.8 496.9,115.7 497.7,115.5 498.4,115.4 499.1,115.3 499.9,115.1 500.6,115.0 501.4,114.9 502.1,114.7 502.9,114.6 503.6,114.5 504.4,114.4 505.1,114.2 505.8,114.1 506.6,114.0 507.3,113.9 508.1,113.8 508.8,113.6 509.6,113.5 510.3,113.4 511.0,113.3 511.8,113.2 512.5,113.0 513.3,112.9 514.0,112.8 514.8,112.7 515.5,112.6 516.3,112.5 517.0,112.4 517.7,112.2 518.5,112.1 519.2,112.0 520.0,111.9 520.7,111.8 521.5,111.7 522.2,111.6 523.0,111.5 523.7,111.4 524.4,111.3 525.2,111.2 525.9,111.1 526.7,111.0 527.4,110.9 528.2,110.8 528.9,110.7 529.6,110.6 530.4,110.5 531.1,110.4 531.9,110.3 532.6,110.2 533.4,110.1 534.1,110.0 534.9,109.9 535.6,109.8 536.3,109.7 537.1,109.6 537.8,109.5 538.6,109.4 539.3,109.3 540.1,109.2 540.8,109.1 541.6,109.0 542.3,108.9 543.0,108.9 543.8,108.8 544.5,108.7 545.3,108.6 546.0,108.5 546.8,108.4 547.5,108.3 548.2,108.2 549.0,108.1 549.7,108.1 550.5,108.0 551.2,107.9 552.0,107.8 552.7,107.7 553.5,107.6 554.2,107.5 554.9,107.4 555.7,107.4 556.4,107.3 557.2,107.2 557.9,107.1 558.7,107.0 559.4,106.9 560.2,106.9 560.9,106.8 561.6,106.7 562.4,106.6 563.1,106.5 563.9,106.4 564.6,106.4 565.4,106.3 566.1,106.2 566.8,106.1 567.6,106.0 568.3,105.9 569.1,105.9 569.8,105.8 570.6,105.7 571.3,105.6 572.1,105.5 572.8,105.4 573.5,105.4 574.3,105.3 575.0,105.2 575.8,105.1 576.5,105.0 577.3,105.0 578.0,104.9 578.8,104.8 579.5,104.7 580.2,104.6 581.0,104.5 581.7,104.5 582.5,104.4 583.2,104.3 584.0,104.2 584.7,104.1 585.4,104.0 586.2,104.0 586.9,103.9 587.7,103.8 588.4,103.7 589.2,103.6 589.9,103.5 590.7,103.4 591.4,103.4 592.1,103.3 592.9,103.2 593.6,103.1 594.4,103.0 595.1,102.9 595.9,102.8 596.6,102.7 597.4,102.7 598.1,102.6 598.8,102.5 599.6,102.4 600.3,102.3 601.1,102.2 601.8,102.1 602.6,102.0 603.3,101.9 604.0,101.8 604.8,101.7 605.5,101.6 606.3,101.6 607.0,101.5 607.8,101.4 608.5,101.3 609.3,101.2 610.0,101.1 610.7,101.0 611.5,100.9 612.2,100.8 613.0,100.7 613.7,100.6 614.5,100.5 615.2,100.4 616.0,100.3 616.7,100.2 617.4,100.1 618.2,100.0 618.9,99.9 619.7,99.8 620.4,99.7 621.2,99.6 621.9,99.4 622.6,99.3 623.4,99.2 624.1,99.1 624.9,99.0 625.6,98.9 626.4,98.8 627.1,98.7 627.9,98.6 628.6,98.5 629.3,98.3 630.1,98.2 630.8,98.1 631.6,98.0 632.3,97.9 633.1,97.8 633.8,97.6 634.6,97.5 635.3,97.4 636.0,97.3 636.8,97.2 637.5,97.0 638.3,96.9 639.0,96.8 639.8,96.7 640.5,96.5 641.2,96.4 642.0,96.3 642.7,96.1 643.5,96.0 644.2,95.9 645.0,95.8 645.7,95.6 646.5,95.5 647.2,95.4 647.9,95.2 648.7,95.1 649.4,94.9 650.2,94.8 650.9,94.7 651.7,94.5 652.4,94.4 653.2,94.2 653.9,94.1 654.6,93.9 655.4,93.8 656.1,93.6 656.9,93.5 657.6,93.4 658.4,93.2 659.1,93.0 659.8,92.9 660.6,92.7 661.3,92.6 662.1,92.4 662.8,92.3 663.6,92.1 664.3,92.0 665.1,91.8 665.8,91.6 666.5,91.5 667.3,91.3 668.0,91.1 668.8,91.0 669.5,90.8 670.3,90.6 671.0,90.5 671.8,90.3 672.5,90.1 673.2,90.0 674.0,89.8 674.7,89.6 675.5,89.4 676.2,89.3 677.0,89.1 677.7,88.9 678.4,88.7 679.2,88.5 679.9,88.3 680.7,88.2 681.4,88.0 682.2,87.8 682.9,87.6 683.7,87.4 684.4,87.2 685.1,87.0 685.9,86.8 686.6,86.6 687.4,86.4 688.1,86.2 688.9,86.0 689.6,85.8 690.4,85.6 691.1,85.4 691.8,85.2 692.6,85.0 693.3,84.8 694.1,84.6 694.8,84.4 695.6,84.2 696.3,84.0 697.0,83.8 697.8,83.6 698.5,83.4 699.3,83.1 700.0,82.9 700.8,82.7 701.5,82.5 702.3,82.3 703.0,82.1 703.7,81.8 704.5,81.6 705.2,81.4 706.0,81.2 706.7,80.9 707.5,80.7 708.2,80.5 709.0,80.2 709.7,80.0 710.4,79.8 711.2,79.5 711.9,79.3 712.7,79.1 713.4,78.8 714.2,78.6 714.9,78.3 715.6,78.1 716.4,77.9 717.1,77.6 717.9,77.4 718.6,77.1 719.4,76.9 720.1,76.6 720.9,76.4 721.6,76.1 722.3,75.9 723.1,75.6 723.8,75.4 724.6,75.1 725.3,74.8 726.1,74.6 726.8,74.3 727.6,74.1 728.3,73.8 729.0,73.5 729.8,73.3 730.5,73.0 731.3,72.7 732.0,72.5 732.8,72.2 733.5,71.9 734.2,71.6 735.0,71.4 735.7,71.1 736.5,70.8 737.2,70.5 738.0,70.3 738.7,70.0 739.5,69.7 740.2,69.4 740.9,69.1 741.7,68.9 742.4,68.6 743.2,68.3 743.9,68.0 744.7,67.7 745.4,67.4 746.2,67.1 746.9,66.9 747.6,66.6 748.4,66.3 749.1,66.0 749.9,65.7 750.6,65.4 751.4,65.1 752.1,64.8 752.8,64.5 753.6,64.2 754.3,63.9 755.1,63.6 755.8,63.3 756.6,63.0 757.3,62.7 758.1,62.4 758.8,62.1 759.5,61.8 760.3,61.4 761.0,61.1 761.8,60.8 762.5,60.5 763.3,60.2 764.0,59.9 764.8,59.6 765.5,59.3 766.2,58.9 767.0,58.6 767.7,58.3 768.5,58.0 769.2,57.7 770.0,57.3 770.7,57.0 771.4,56.7 772.2,56.4 772.9,56.1 773.7,55.7 774.4,55.4 775.2,55.1 775.9,54.8 776.7,54.4 777.4,54.1 778.1,53.8 778.9,53.4 779.6,53.1 780.4,52.8 781.1,52.4 781.9,52.1 782.6,51.8 783.4,51.4 784.1,51.1 784.8,50.8 785.6,50.4 786.3,50.1 787.1,49.8 787.8,49.4 788.6,49.1 789.3,48.7 790.0,48.4 790.8,48.1 791.5,47.7 792.3,47.4 793.0,47.0 793.8,46.7 794.5,46.3 795.3,46.0 796.0,45.7"/>
<text x="640" y="56" font-family="Arial" font-size="12" fill="#0f766e">truth</text>
<polyline fill="none" stroke="#2563eb" stroke-width="2.3" points="52.0,258.0 52.7,257.8 53.5,257.7 54.2,257.5 55.0,252.6 55.7,251.8 56.5,251.1 57.2,250.3 58.0,246.9 58.7,245.9 59.4,244.8 60.2,243.7 60.9,254.8 61.7,254.9 62.4,255.0 63.2,255.1 63.9,270.1 64.6,271.4 65.4,272.7 66.1,274.0 66.9,270.4 67.6,271.4 68.4,272.3 69.1,273.3 69.9,271.6 70.6,272.4 71.3,273.2 72.1,274.0 72.8,266.2 73.6,266.6 74.3,266.9 75.1,267.3 75.8,257.7 76.6,257.6 77.3,257.4 78.0,257.3 78.8,250.6 79.5,250.1 80.3,249.7 81.0,249.2 81.8,241.1 82.5,240.2 83.2,239.4 84.0,238.5 84.7,244.5 85.5,243.9 86.2,243.3 87.0,242.7 87.7,240.4 88.5,239.7 89.2,239.0 89.9,238.3 90.7,244.5 91.4,244.1 92.2,243.7 92.9,243.2 93.7,246.8 94.4,246.5 95.2,246.3 95.9,246.0 96.6,246.6 97.4,246.4 98.1,246.2 98.9,245.9 99.6,248.9 100.4,248.8 101.1,248.7 101.8,248.7 102.6,246.1 103.3,245.9 104.1,245.7 104.8,245.5 105.6,247.4 106.3,247.3 107.1,247.2 107.8,247.1 108.5,251.0 109.3,251.1 110.0,251.2 110.8,251.3 111.5,254.0 112.3,254.3 113.0,254.5 113.8,254.8 114.5,246.6 115.2,246.5 116.0,246.4 116.7,246.3 117.5,249.7 118.2,249.8 119.0,249.8 119.7,249.9 120.4,250.0 121.2,250.1 121.9,250.2 122.7,250.2 123.4,245.7 124.2,245.6 124.9,245.5 125.7,245.4 126.4,254.7 127.1,255.0 127.9,255.2 128.6,255.5 129.4,252.3 130.1,252.5 130.9,252.6 131.6,252.8 132.4,253.4 133.1,253.6 133.8,253.8 134.6,254.0 135.3,248.5 136.1,248.5 136.8,248.5 137.6,248.5 138.3,253.0 139.0,253.2 139.8,253.3 140.5,253.5 141.3,250.0 142.0,250.0 142.8,250.1 143.5,250.2 144.3,244.5 145.0,244.4 145.7,244.3 146.5,244.2 147.2,246.3 148.0,246.3 148.7,246.2 149.5,246.2 150.2,246.9 151.0,246.9 151.7,246.9 152.4,246.9 153.2,243.2 153.9,243.1 154.7,243.0 155.4,242.9 156.2,243.5 156.9,243.4 157.6,243.3 158.4,243.2 159.1,239.7 159.9,239.5 160.6,239.3 161.4,239.1 162.1,242.7 162.9,242.6 163.6,242.5 164.3,242.4 165.1,242.3 165.8,242.2 166.6,242.1 167.3,242.0 168.1,235.9 168.8,235.6 169.6,235.4 170.3,235.1 171.0,240.5 171.8,240.4 172.5,240.3 173.3,240.1 174.0,240.8 174.8,240.7 175.5,240.6 176.2,240.5 177.0,238.5 177.7,238.4 178.5,238.2 179.2,238.1 180.0,237.0 180.7,236.8 181.5,236.6 182.2,236.4 182.9,239.2 183.7,239.1 184.4,239.0 185.2,238.9 185.9,234.5 186.7,234.3 187.4,234.1 188.2,233.9 188.9,233.0 189.6,232.8 190.4,232.5 191.1,232.3 191.9,237.5 192.6,237.4 193.4,237.3 194.1,237.2 194.8,239.5 195.6,239.4 196.3,239.4 197.1,239.3 197.8,237.5 198.6,237.4 199.3,237.3 200.1,237.2 200.8,234.3 201.5,234.2 202.3,234.0 203.0,233.9 203.8,236.3 204.5,236.2 205.3,236.1 206.0,236.0 206.8,231.1 207.5,230.9 208.2,230.7 209.0,230.5 209.7,227.8 210.5,227.6 211.2,227.3 212.0,227.1 212.7,227.5 213.4,227.3 214.2,227.0 214.9,226.8 215.7,227.6 216.4,227.3 217.2,227.1 217.9,226.9 218.7,223.9 219.4,223.6 220.1,223.4 220.9,223.1 221.6,225.5 222.4,225.2 223.1,225.0 223.9,224.8 224.6,223.5 225.4,223.3 226.1,223.0 226.8,222.8 227.6,224.8 228.3,224.6 229.1,224.4 229.8,224.2 230.6,221.1 231.3,220.8 232.0,220.6 232.8,220.3 233.5,223.8 234.3,223.6 235.0,223.4 235.8,223.2 236.5,223.6 237.3,223.4 238.0,223.2 238.7,223.0 239.5,221.6 240.2,221.4 241.0,221.1 241.7,220.9 242.5,222.2 243.2,222.0 244.0,221.8 244.7,221.6 245.4,220.2 246.2,220.0 246.9,219.8 247.7,219.6 248.4,220.9 249.2,220.7 249.9,220.5 250.6,220.3 251.4,221.8 252.1,221.6 252.9,221.5 253.6,221.3 254.4,223.0 255.1,222.9 255.9,222.8 256.6,222.7 257.3,220.6 258.1,220.5 258.8,220.3 259.6,220.2 260.3,219.3 261.1,219.2 261.8,219.0 262.6,218.8 263.3,218.3 264.0,218.1 264.8,218.0 265.5,217.8 266.3,215.7 267.0,215.5 267.8,215.3 268.5,215.1 269.2,212.4 270.0,212.1 270.7,211.9 271.5,211.6 272.2,214.0 273.0,213.8 273.7,213.6 274.5,213.4 275.2,209.8 275.9,209.6 276.7,209.3 277.4,209.1 278.2,206.9 278.9,206.7 279.7,206.4 280.4,206.1 281.2,205.3 281.9,205.0 282.6,204.7 283.4,204.4 284.1,205.0 284.9,204.7 285.6,204.4 286.4,204.2 287.1,203.3 287.8,203.0 288.6,202.8 289.3,202.5 290.1,202.3 290.8,202.0 291.6,201.7 292.3,201.4 293.1,198.0 293.8,197.6 294.5,197.3 295.3,197.0 296.0,196.8 296.8,196.5 297.5,196.2 298.3,195.8 299.0,195.8 299.8,195.5 300.5,195.1 301.2,194.8 302.0,194.9 302.7,194.6 303.5,194.3 304.2,194.0 305.0,196.1 305.7,195.8 306.4,195.5 307.2,195.2 307.9,193.3 308.7,192.9 309.4,192.6 310.2,192.3 310.9,190.9 311.7,190.6 312.4,190.3 313.1,189.9 313.9,188.2 314.6,187.8 315.4,187.4 316.1,187.1 316.9,185.9 317.6,185.6 318.4,185.2 319.1,184.9 319.8,186.6 320.6,186.3 321.3,185.9 322.1,185.6 322.8,185.5 323.6,185.2 324.3,184.8 325.0,184.5 325.8,181.8 326.5,181.4 327.3,181.0 328.0,180.7 328.8,179.3 329.5,179.0 330.3,178.6 331.0,178.2 331.7,179.1 332.5,178.7 333.2,178.4 334.0,178.0 334.7,179.0 335.5,178.7 336.2,178.3 337.0,178.0 337.7,177.1 338.4,176.8 339.2,176.5 339.9,176.1 340.7,176.4 341.4,176.1 342.2,175.7 342.9,175.4 343.6,175.8 344.4,175.5 345.1,175.2 345.9,174.9 346.6,172.4 347.4,172.0 348.1,171.7 348.9,171.4 349.6,170.1 350.3,169.8 351.1,169.4 351.8,169.1 352.6,168.1 353.3,167.7 354.1,167.4 354.8,167.0 355.6,165.7 356.3,165.4 357.0,165.0 357.8,164.6 358.5,164.8 359.3,164.5 360.0,164.1 360.8,163.8 361.5,162.1 362.2,161.7 363.0,161.4 363.7,161.0 364.5,158.2 365.2,157.8 366.0,157.3 366.7,156.9 367.5,157.1 368.2,156.7 368.9,156.2 369.7,155.8 370.4,157.5 371.2,157.1 371.9,156.7 372.7,156.4 373.4,154.2 374.2,153.8 374.9,153.4 375.6,153.0 376.4,151.1 377.1,150.7 377.9,150.2 378.6,149.8 379.4,148.1 380.1,147.7 380.8,147.2 381.6,146.8 382.3,146.5 383.1,146.1 383.8,145.7 384.6,145.2 385.3,144.0 386.1,143.5 386.8,143.1 387.5,142.7 388.3,144.1 389.0,143.7 389.8,143.3 390.5,142.9 391.3,143.1 392.0,142.7 392.8,142.3 393.5,141.9 394.2,141.0 395.0,140.6 395.7,140.2 396.5,139.9 397.2,140.3 398.0,140.0 398.7,139.6 399.4,139.2 400.2,139.3 400.9,138.9 401.7,138.6 402.4,138.2 403.2,138.3 403.9,137.9 404.7,137.5 405.4,137.2 406.1,134.7 406.9,134.3 407.6,134.0 408.4,133.6 409.1,133.2 409.9,132.8 410.6,132.4 411.4,132.0 412.1,133.4 412.8,133.0 413.6,132.7 414.3,132.3 415.1,134.7 415.8,134.4 416.6,134.1 417.3,133.8 418.0,134.8 418.8,134.5 419.5,134.2 420.3,133.9 421.0,132.8 421.8,132.5 422.5,132.2 423.3,131.9 424.0,131.4 424.7,131.1 425.5,130.8 426.2,130.5 427.0,129.5 427.7,129.2 428.5,128.9 429.2,128.6 430.0,130.3 430.7,130.0 431.4,129.7 432.2,129.4 432.9,129.0 433.7,128.7 434.4,128.4 435.2,128.1 435.9,129.0 436.6,128.7 437.4,128.5 438.1,128.2 438.9,127.9 439.6,127.6 440.4,127.3 441.1,127.1 441.9,125.7 442.6,125.5 443.3,125.2 444.1,124.9 444.8,126.2 445.6,125.9 446.3,125.7 447.1,125.4 447.8,123.8 448.6,123.6 449.3,123.3 450.0,123.1 450.8,123.0 451.5,122.7 452.3,122.5 453.0,122.2 453.8,124.6 454.5,124.4 455.2,124.1 456.0,123.9 456.7,122.5 457.5,122.2 458.2,122.0 459.0,121.8 459.7,121.3 460.5,121.0 461.2,120.8 461.9,120.5 462.7,119.5 463.4,119.2 464.2,119.0 464.9,118.7 465.7,117.8 466.4,117.5 467.2,117.3 467.9,117.0 468.6,119.2 469.4,119.0 470.1,118.8 470.9,118.6 471.6,116.7 472.4,116.5 473.1,116.2 473.8,116.0 474.6,116.5 475.3,116.3 476.1,116.1 476.8,115.8 477.6,117.5 478.3,117.3 479.1,117.1 479.8,116.9 480.5,118.4 481.3,118.2 482.0,118.0 482.8,117.8 483.5,118.1 484.3,118.0 485.0,117.8 485.8,117.6 486.5,117.4 487.2,117.2 488.0,117.1 488.7,116.9 489.5,118.2 490.2,118.1 491.0,117.9 491.7,117.8 492.4,117.8 493.2,117.6 493.9,117.5 494.7,117.4 495.4,116.2 496.2,116.1 496.9,115.9 497.7,115.8 498.4,112.9 499.1,112.7 499.9,112.6 500.6,112.4 501.4,112.4 502.1,112.2 502.9,112.1 503.6,111.9 504.4,112.6 505.1,112.5 505.8,112.3 506.6,112.2 507.3,113.9 508.1,113.8 508.8,113.7 509.6,113.6 510.3,112.2 511.0,112.1 511.8,112.0 512.5,111.8 513.3,112.8 514.0,112.6 514.8,112.5 515.5,112.4 516.3,112.9 517.0,112.8 517.7,112.7 518.5,112.6 519.2,111.2 520.0,111.0 520.7,110.9 521.5,110.8 522.2,111.1 523.0,111.0 523.7,110.9 524.4,110.8 525.2,111.8 525.9,111.8 526.7,111.7 527.4,111.6 528.2,110.7 528.9,110.6 529.6,110.5 530.4,110.4 531.1,110.5 531.9,110.4 532.6,110.3 533.4,110.2 534.1,109.3 534.9,109.2 535.6,109.0 536.3,108.9 537.1,106.6 537.8,106.4 538.6,106.3 539.3,106.2 540.1,106.8 540.8,106.6 541.6,106.5 542.3,106.4 543.0,107.5 543.8,107.4 544.5,107.2 545.3,107.1 546.0,106.0 546.8,105.9 547.5,105.8 548.2,105.6 549.0,104.8 549.7,104.6 550.5,104.5 551.2,104.4 552.0,106.5 552.7,106.4 553.5,106.3 554.2,106.2 554.9,105.3 555.7,105.1 556.4,105.0 557.2,104.9 557.9,103.5 558.7,103.3 559.4,103.2 560.2,103.1 560.9,102.2 561.6,102.0 562.4,101.9 563.1,101.8 563.9,103.5 564.6,103.3 565.4,103.2 566.1,103.1 566.8,103.6 567.6,103.5 568.3,103.4 569.1,103.3 569.8,103.0 570.6,102.9 571.3,102.8 572.1,102.6 572.8,102.8 573.5,102.7 574.3,102.6 575.0,102.5 575.8,100.9 576.5,100.7 577.3,100.6 578.0,100.5 578.8,99.2 579.5,99.1 580.2,98.9 581.0,98.8 581.7,100.0 582.5,99.8 583.2,99.7 584.0,99.6 584.7,99.7 585.4,99.6 586.2,99.4 586.9,99.3 587.7,103.0 588.4,102.9 589.2,102.8 589.9,102.7 590.7,102.6 591.4,102.5 592.1,102.4 592.9,102.3 593.6,103.1 594.4,103.0 595.1,102.9 595.9,102.9 596.6,103.3 597.4,103.2 598.1,103.2 598.8,103.1 599.6,102.3 600.3,102.2 601.1,102.2 601.8,102.1 602.6,104.4 603.3,104.4 604.0,104.3 604.8,104.3 605.5,102.1 606.3,102.0 607.0,102.0 607.8,101.9 608.5,104.7 609.3,104.7 610.0,104.7 610.7,104.6 611.5,103.7 612.2,103.7 613.0,103.6 613.7,103.6 614.5,103.3 615.2,103.2 616.0,103.1 616.7,103.1 617.4,103.0 618.2,102.9 618.9,102.8 619.7,102.8 620.4,102.8 621.2,102.7 621.9,102.7 622.6,102.6 623.4,100.8 624.1,100.7 624.9,100.6 625.6,100.5 626.4,100.9 627.1,100.8 627.9,100.7 628.6,100.7 629.3,101.3 630.1,101.2 630.8,101.1 631.6,101.0 632.3,100.6 633.1,100.5 633.8,100.4 634.6,100.3 635.3,100.3 636.0,100.2 636.8,100.1 637.5,100.0 638.3,101.0 639.0,100.9 639.8,100.8 640.5,100.8 641.2,100.3 642.0,100.2 642.7,100.1 643.5,100.0 644.2,100.7 645.0,100.7 645.7,100.6 646.5,100.5 647.2,100.0 647.9,100.0 648.7,99.9 649.4,99.8 650.2,98.6 650.9,98.5 651.7,98.4 652.4,98.3 653.2,97.5 653.9,97.4 654.6,97.2 655.4,97.1 656.1,95.9 656.9,95.8 657.6,95.7 658.4,95.5 659.1,96.4 659.8,96.3 660.6,96.2 661.3,96.0 662.1,98.0 662.8,97.9 663.6,97.8 664.3,97.7 665.1,97.9 665.8,97.8 666.5,97.8 667.3,97.7 668.0,98.6 668.8,98.5 669.5,98.4 670.3,98.3 671.0,97.5 671.8,97.4 672.5,97.3 673.2,97.2 674.0,97.3 674.7,97.2 675.5,97.1 676.2,97.0 677.0,96.5 677.7,96.4 678.4,96.3 679.2,96.2 679.9,93.2 680.7,93.0 681.4,92.9 682.2,92.7 682.9,91.0 683.7,90.8 684.4,90.6 685.1,90.5 685.9,91.6 686.6,91.4 687.4,91.2 688.1,91.1 688.9,89.5 689.6,89.4 690.4,89.2 691.1,89.0 691.8,87.0 692.6,86.8 693.3,86.6 694.1,86.4 694.8,88.4 695.6,88.2 696.3,88.0 697.0,87.8 697.8,87.0 698.5,86.8 699.3,86.6 700.0,86.4 700.8,88.1 701.5,87.9 702.3,87.7 703.0,87.6 703.7,89.3 704.5,89.2 705.2,89.0 706.0,88.9 706.7,87.4 707.5,87.2 708.2,87.1 709.0,86.9 709.7,89.2 710.4,89.0 711.2,88.9 711.9,88.8 712.7,87.0 713.4,86.8 714.2,86.7 714.9,86.5 715.6,86.5 716.4,86.4 717.1,86.2 717.9,86.1 718.6,86.1 719.4,85.9 720.1,85.8 720.9,85.6 721.6,83.0 722.3,82.8 723.1,82.6 723.8,82.4 724.6,81.7 725.3,81.5 726.1,81.2 726.8,81.0 727.6,79.3 728.3,79.0 729.0,78.8 729.8,78.5 730.5,79.7 731.3,79.4 732.0,79.2 732.8,79.0 733.5,81.0 734.2,80.8 735.0,80.6 735.7,80.4 736.5,80.1 737.2,79.9 738.0,79.7 738.7,79.4 739.5,80.6 740.2,80.4 740.9,80.2 741.7,80.0 742.4,78.2 743.2,78.0 743.9,77.8 744.7,77.5 745.4,78.3 746.2,78.1 746.9,77.9 747.6,77.6 748.4,77.9 749.1,77.7 749.9,77.5 750.6,77.2 751.4,74.9 752.1,74.6 752.8,74.4 753.6,74.1 754.3,70.8 755.1,70.5 755.8,70.2 756.6,70.0 757.3,70.0 758.1,69.7 758.8,69.4 759.5,69.1 760.3,64.9 761.0,64.5 761.8,64.2 762.5,63.8 763.3,62.4 764.0,62.0 764.8,61.7 765.5,61.3 766.2,59.2 767.0,58.8 767.7,58.4 768.5,58.0 769.2,57.6 770.0,57.2 770.7,56.8 771.4,56.4 772.2,54.6 772.9,54.2 773.7,53.8 774.4,53.3 775.2,53.0 775.9,52.6 776.7,52.2 777.4,51.7 778.1,53.2 778.9,52.8 779.6,52.3 780.4,51.9 781.1,49.9 781.9,49.5 782.6,49.1 783.4,48.6 784.1,48.7 784.8,48.2 785.6,47.8 786.3,47.4 787.1,45.1 787.8,44.7 788.6,44.2 789.3,43.8 790.0,43.6 790.8,43.2 791.5,42.7 792.3,42.3 793.0,43.3 793.8,42.9 794.5,42.4 795.3,42.0 796.0,42.5"/>
<text x="640" y="72" font-family="Arial" font-size="12" fill="#2563eb">estimate</text>
</svg>