<svg xmlns="http://www.w3.org/2000/svg" width="820" height="320" viewBox="0 0 820 320">
<rect width="100%" height="100%" fill="white"/>
<text x="52" y="30" font-family="Arial" font-size="18" font-weight="700">linear_nominal accelerometer bias estimates</text>
<line x1="52" y1="274" x2="796" y2="274" stroke="#263238"/>
<line x1="52" y1="42" x2="52" y2="274" stroke="#263238"/>
<text x="52" y="306" font-family="Arial" font-size="12">time (s)</text>
<text x="630" y="306" font-family="Arial" font-size="12">m/s^2</text>

<polyline fill="none" stroke="#0f766e" stroke-width="2.3" points="52.0,192.2 52.7,192.2 53.5,192.2 54.2,192.2 55.0,192.2 55.7,192.2 56.5,192.2 57.2,192.2 58.0,192.2 58.7,192.2 59.4,192.2 60.2,192.2 60.9,192.2 61.7,192.2 62.4,192.2 63.2,192.2 63.9,192.2 64.6,192.2 65.4,192.2 66.1,192.2 66.9,227.7 67.6,227.7 68.4,227.7 69.1,227.7 69.9,227.7 70.6,227.7 71.3,227.7 72.1,227.7 72.8,227.7 73.6,227.7 74.3,227.7 75.1,227.7 75.8,227.7 76.6,227.7 77.3,227.7 78.0,227.7 78.8,227.7 79.5,227.7 80.3,227.7 81.0,227.7 81.8,274.0 82.5,274.0 83.2,274.0 84.0,274.0 84.7,274.0 85.5,274.0 86.2,274.0 87.0,274.0 87.7,274.0 88.5,274.0 89.2,274.0 89.9,274.0 90.7,274.0 91.4,274.0 92.2,274.0 92.9,274.0 93.7,274.0 94.4,274.0 95.2,274.0 95.9,274.0 96.6,172.6 97.4,172.6 98.1,172.6 98.9,172.6 99.6,172.6 100.4,172.6 101.1,172.6 101.8,172.6 102.6,172.6 103.3,172.6 104.1,172.6 104.8,172.6 105.6,172.6 106.3,172.6 107.1,172.6 107.8,172.6 108.5,172.6 109.3,172.6 110.0,172.6 110.8,172.6 111.5,126.5 112.3,126.5 113.0,126.5 113.8,126.5 114.5,126.5 115.2,126.5 116.0,126.5 116.7,126.5 117.5,126.5 118.2,126.5 119.0,126.5 119.7,126.5 120.4,126.5 121.2,126.5 121.9,126.5 122.7,126.5 123.4,126.5 124.2,126.5 124.9,126.5 125.7,126.5 126.4,169.6 127.1,169.6 127.9,169.6 128.6,169.6 129.4,169.6 130.1,169.6 130.9,169.6 131.6,169.6 132.4,169.6 133.1,169.6 133.8,169.6 134.6,169.6 135.3,169.6 136.1,169.6 136.8,169.6 137.6,169.6 138.3,169.6 139.0,169.6 139.8,169.6 140.5,169.6 141.3,207.2 142.0,207.2 142.8,207.2 143.5,207.2 144.3,207.2 145.0,207.2 145.7,207.2 146.5,207.2 147.2,207.2 148.0,207.2 148.7,207.2 149.5,207.2 150.2,207.2 151.0,207.2 151.7,207.2 152.4,207.2 153.2,207.2 153.9,207.2 154.7,207.2 155.4,207.2 156.2,204.3 156.9,204.3 157.6,204.3 158.4,204.3 159.1,204.3 159.9,204.3 160.6,204.3 161.4,204.3 162.1,204.3 162.9,204.3 163.6,204.3 164.3,204.3 165.1,204.3 165.8,204.3 166.6,204.3 167.3,204.3 168.1,204.3 168.8,204.3 169.6,204.3 170.3,204.3 171.0,198.7 171.8,198.7 172.5,198.7 173.3,198.7 174.0,198.7 174.8,198.7 175.5,198.7 176.2,198.7 177.0,198.7 177.7,198.7 178.5,198.7 179.2,198.7 180.0,198.7 180.7,198.7 181.5,198.7 182.2,198.7 182.9,198.7 183.7,198.7 184.4,198.7 185.2,198.7 185.9,208.1 186.7,208.1 187.4,208.1 188.2,208.1 188.9,208.1 189.6,208.1 190.4,208.1 191.1,208.1 191.9,208.1 192.6,208.1 193.4,208.1 194.1,208.1 194.8,208.1 195.6,208.1 196.3,208.1 197.1,208.1 197.8,208.1 198.6,208.1 199.3,208.1 200.1,208.1 200.8,197.2 201.5,197.2 202.3,197.2 203.0,197.2 203.8,197.2 204.5,197.2 205.3,197.2 206.0,197.2 206.8,197.2 207.5,197.2 208.2,197.2 209.0,197.2 209.7,197.2 210.5,197.2 211.2,197.2 212.0,197.2 212.7,197.2 213.4,197.2 214.2,197.2 214.9,197.2 215.7,185.3 216.4,185.3 217.2,185.3 217.9,185.3 218.7,185.3 219.4,185.3 220.1,185.3 220.9,185.3 221.6,185.3 222.4,185.3 223.1,185.3 223.9,185.3 224.6,185.3 225.4,185.3 226.1,185.3 226.8,185.3 227.6,185.3 228.3,185.3 229.1,185.3 229.8,185.3 230.6,181.1 231.3,181.1 232.0,181.1 232.8,181.1 233.5,181.1 234.3,181.1 235.0,181.1 235.8,181.1 236.5,181.1 237.3,181.1 238.0,181.1 238.7,181.1 239.5,181.1 240.2,181.1 241.0,181.1 241.7,181.1 242.5,181.1 243.2,181.1 244.0,181.1 244.7,181.1 245.4,175.8 246.2,175.8 246.9,175.8 247.7,175.8 248.4,175.8 249.2,175.8 249.9,175.8 250.6,175.8 251.4,175.8 252.1,175.8 252.9,175.8 253.6,175.8 254.4,175.8 255.1,175.8 255.9,175.8 256.6,175.8 257.3,175.8 258.1,175.8 258.8,175.8 259.6,175.8 260.3,171.9 261.1,171.9 261.8,171.9 262.6,171.9 263.3,171.9 264.0,171.9 264.8,171.9 265.5,171.9 266.3,171.9 267.0,171.9 267.8,171.9 268.5,171.9 269.2,171.9 270.0,171.9 270.7,171.9 271.5,171.9 272.2,171.9 273.0,171.9 273.7,171.9 274.5,171.9 275.2,163.8 275.9,163.8 276.7,163.8 277.4,163.8 278.2,163.8 278.9,163.8 279.7,163.8 280.4,163.8 281.2,163.8 281.9,163.8 282.6,163.8 283.4,163.8 284.1,163.8 284.9,163.8 285.6,163.8 286.4,163.8 287.1,163.8 287.8,163.8 288.6,163.8 289.3,163.8 290.1,161.2 290.8,161.2 291.6,161.2 292.3,161.2 293.1,161.2 293.8,161.2 294.5,161.2 295.3,161.2 296.0,161.2 296.8,161.2 297.5,161.2 298.3,161.2 299.0,161.2 299.8,161.2 300.5,161.2 301.2,161.2 302.0,161.2 302.7,161.2 303.5,161.2 304.2,161.2 305.0,158.7 305.7,158.7 306.4,158.7 307.2,158.7 307.9,158.7 308.7,158.7 309.4,158.7 310.2,158.7 310.9,158.7 311.7,158.7 312.4,158.7 313.1,158.7 313.9,158.7 314.6,158.7 315.4,158.7 316.1,158.7 316.9,158.7 317.6,158.7 318.4,158.7 319.1,158.7 319.8,164.4 320.6,164.4 321.3,164.4 322.1,164.4 322.8,164.4 323.6,164.4 324.3,164.4 325.0,164.4 325.8,164.4 326.5,164.4 327.3,164.4 328.0,164.4 328.8,164.4 329.5,164.4 330.3,164.4 331.0,164.4 331.7,164.4 332.5,164.4 333.2,164.4 334.0,164.4 334.7,161.0 335.5,161.0 336.2,161.0 337.0,161.0 337.7,161.0 338.4,161.0 339.2,161.0 339.9,161.0 340.7,161.0 341.4,161.0 342.2,161.0 342.9,161.0 343.6,161.0 344.4,161.0 345.1,161.0 345.9,161.0 346.6,161.0 347.4,161.0 348.1,161.0 348.9,161.0 349.6,162.3 350.3,162.3 351.1,162.3 351.8,162.3 352.6,162.3 353.3,162.3 354.1,162.3 354.8,162.3 355.6,162.3 356.3,162.3 357.0,162.3 357.8,162.3 358.5,162.3 359.3,162.3 360.0,162.3 360.8,162.3 361.5,162.3 362.2,162.3 363.0,162.3 363.7,162.3 364.5,161.4 365.2,161.4 366.0,161.4 366.7,161.4 367.5,161.4 368.2,161.4 368.9,161.4 369.7,161.4 370.4,161.4 371.2,161.4 371.9,161.4 372.7,161.4 373.4,161.4 374.2,161.4 374.9,161.4 375.6,161.4 376.4,161.4 377.1,161.4 377.9,161.4 378.6,161.4 379.4,161.4 380.1,161.4 380.8,161.4 381.6,161.4 382.3,161.4 383.1,161.4 383.8,161.4 384.6,161.4 385.3,161.4 386.1,161.4 386.8,161.4 387.5,161.4 388.3,161.4 389.0,161.4 389.8,161.4 390.5,161.4 391.3,161.4 392.0,161.4 392.8,161.4 393.5,161.4 394.2,161.4 395.0,161.4 395.7,161.4 396.5,161.4 397.2,161.4 398.0,161.4 398.7,161.4 399.4,161.4 400.2,161.4 400.9,161.4 401.7,161.4 402.4,161.4 403.2,161.4 403.9,161.4 404.7,161.4 405.4,161.4 406.1,161.4 406.9,161.4 407.6,161.4 408.4,161.4 409.1,161.4 409.9,161.4 410.6,161.4 411.4,161.4 412.1,161.4 412.8,161.4 413.6,161.4 414.3,161.4 415.1,161.4 415.8,161.4 416.6,161.4 417.3,161.4 418.0,161.4 418.8,161.4 419.5,161.4 420.3,161.4 421.0,161.4 421.8,161.4 422.5,161.4 423.3,161.4 424.0,161.4 424.7,161.4 425.5,161.4 426.2,161.4 427.0,161.4 427.7,161.4 428.5,161.4 429.2,161.4 430.0,161.4 430.7,161.4 431.4,161.4 432.2,161.4 432.9,161.4 433.7,161.4 434.4,161.4 435.2,161.4 435.9,161.4 436.6,161.4 437.4,161.4 438.1,161.4 438.9,161.4 439.6,161.4 440.4,161.4 441.1,161.4 441.9,161.4 442.6,161.4 443.3,161.4 444.1,161.4 444.8,161.4 445.6,161.4 446.3,161.4 447.1,161.4 447.8,161.4 448.6,161.4 449.3,161.4 450.0,161.4 450.8,161.4 451.5,161.4 452.3,161.4 453.0,161.4 453.8,161.4 454.5,161.4 455.2,161.4 456.0,161.4 456.7,161.4 457.5,161.4 458.2,161.4 459.0,161.4 459.7,161.4 460.5,161.4 461.2,161.4 461.9,161.4 462.7,161.4 463.4,161.4 464.2,161.4 464.9,161.4 465.7,161.4 466.4,161.4 467.2,161.4 467.9,161.4 468.6,161.4 469.4,161.4 470.1,161.4 470.9,161.4 471.6,161.4 472.4,161.4 473.1,161.4 473.8,161.4 474.6,161.4 475.3,161.4 476.1,161.4 476.8,161.4 477.6,161.4 478.3,161.4 479.1,161.4 479.8,161.4 480.5,161.4 481.3,161.4 482.0,161.4 482.8,161.4 483.5,163.8 484.3,163.8 485.0,163.8 485.8,163.8 486.5,163.8 487.2,163.8 488.0,163.8 488.7,163.8 489.5,163.8 490.2,163.8 491.0,163.8 491.7,163.8 492.4,163.8 493.2,163.8 493.9,163.8 494.7,163.8 495.4,163.8 496.2,163.8 496.9,163.8 497.7,163.8 498.4,162.3 499.1,162.3 499.9,162.3 500.6,162.3 501.4,162.3 502.1,162.3 502.9,162.3 503.6,162.3 504.4,162.3 505.1,162.3 505.8,162.3 506.6,162.3 507.3,162.3 508.1,162.3 508.8,162.3 509.6,162.3 510.3,162.3 511.0,162.3 511.8,162.3 512.5,162.3 513.3,164.2 514.0,164.2 514.8,164.2 515.5,164.2 516.3,164.2 517.0,164.2 517.7,164.2 518.5,164.2 519.2,164.2 520.0,164.2 520.7,164.2 521.5,164.2 522.2,164.2 523.0,164.2 523.7,164.2 524.4,164.2 525.2,164.2 525.9,164.2 526.7,164.2 527.4,164.2 528.2,167.0 528.9,167.0 529.6,167.0 530.4,167.0 531.1,167.0 531.9,167.0 532.6,167.0 533.4,167.0 534.1,167.0 534.9,167.0 535.6,167.0 536.3,167.0 537.1,167.0 537.8,167.0 538.6,167.0 539.3,167.0 540.1,167.0 540.8,167.0 541.6,167.0 542.3,167.0 543.0,170.2 543.8,170.2 544.5,170.2 545.3,170.2 546.0,170.2 546.8,170.2 547.5,170.2 548.2,170.2 549.0,170.2 549.7,170.2 550.5,170.2 551.2,170.2 552.0,170.2 552.7,170.2 553.5,170.2 554.2,170.2 554.9,170.2 555.7,170.2 556.4,170.2 557.2,170.2 557.9,170.2 558.7,170.2 559.4,170.2 560.2,170.2 560.9,170.2 561.6,170.2 562.4,170.2 563.1,170.2 563.9,170.2 564.6,170.2 565.4,170.2 566.1,170.2 566.8,170.2 567.6,170.2 568.3,170.2 569.1,170.2 569.8,170.2 570.6,170.2 571.3,170.2 572.1,170.2 572.8,169.9 573.5,169.9 574.3,169.9 575.0,169.9 575.8,169.9 576.5,169.9 577.3,169.9 578.0,169.9 578.8,169.9 579.5,169.9 580.2,169.9 581.0,169.9 581.7,169.9 582.5,169.9 583.2,169.9 584.0,169.9 584.7,169.9 585.4,169.9 586.2,169.9 586.9,169.9 587.7,169.9 588.4,169.9 589.2,169.9 589.9,169.9 590.7,169.9 591.4,169.9 592.1,169.9 592.9,169.9 593.6,169.9 594.4,169.9 595.1,169.9 595.9,169.9 596.6,169.9 597.4,169.9 598.1,169.9 598.8,169.9 599.6,169.9 600.3,169.9 601.1,169.9 601.8,169.9 602.6,171.8 603.3,171.8 604.0,171.8 604.8,171.8 605.5,171.8 606.3,171.8 607.0,171.8 607.8,171.8 608.5,171.8 609.3,171.8 610.0,171.8 610.7,171.8 611.5,171.8 612.2,171.8 613.0,171.8 613.7,171.8 614.5,171.8 615.2,171.8 616.0,171.8 616.7,171.8 617.4,172.2 618.2,172.2 618.9,172.2 619.7,172.2 620.4,172.2 621.2,172.2 621.9,172.2 622.6,172.2 623.4,172.2 624.1,172.2 624.9,172.2 625.6,172.2 626.4,172.2 627.1,172.2 627.9,172.2 628.6,172.2 629.3,172.2 630.1,172.2 630.8,172.2 631.6,172.2 632.3,170.8 633.1,170.8 633.8,170.8 634.6,170.8 635.3,170.8 636.0,170.8 636.8,170.8 637.5,170.8 638.3,170.8 639.0,170.8 639.8,170.8 640.5,170.8 641.2,170.8 642.0,170.8 642.7,170.8 643.5,170.8 644.2,170.8 645.0,170.8 645.7,170.8 646.5,170.8 647.2,173.2 647.9,173.2 648.7,173.2 649.4,173.2 650.2,173.2 650.9,173.2 651.7,173.2 652.4,173.2 653.2,173.2 653.9,173.2 654.6,173.2 655.4,173.2 656.1,173.2 656.9,173.2 657.6,173.2 658.4,173.2 659.1,173.2 659.8,173.2 660.6,173.2 661.3,173.2 662.1,172.3 662.8,172.3 663.6,172.3 664.3,172.3 665.1,172.3 665.8,172.3 666.5,172.3 667.3,172.3 668.0,172.3 668.8,172.3 669.5,172.3 670.3,172.3 671.0,172.3 671.8,172.3 672.5,172.3 673.2,172.3 674.0,172.3 674.7,172.3 675.5,172.3 676.2,172.3 677.0,170.6 677.7,170.6 678.4,170.6 679.2,170.6 679.9,170.6 680.7,170.6 681.4,170.6 682.2,170.6 682.9,170.6 683.7,170.6 684.4,170.6 685.1,170.6 685.9,170.6 686.6,170.6 687.4,170.6 688.1,170.6 688.9,170.6 689.6,170.6 690.4,170.6 691.1,170.6 691.8,171.1 692.6,171.1 693.3,171.1 694.1,171.1 694.8,171.1 695.6,171.1 696.3,171.1 697.0,171.1 697.8,171.1 698.5,171.1 699.3,171.1 700.0,171.1 700.8,171.1 701.5,171.1 702.3,171.1 703.0,171.1 703.7,171.1 704.5,171.1 705.2,171.1 706.0,171.1 706.7,170.9 707.5,170.9 708.2,170.9 709.0,170.9 709.7,170.9 710.4,170.9 711.2,170.9 711.9,170.9 712.7,170.9 713.4,170.9 714.2,170.9 714.9,170.9 715.6,170.9 716.4,170.9 717.1,170.9 717.9,170.9 718.6,170.9 719.4,170.9 720.1,170.9 720.9,170.9 721.6,169.4 722.3,169.4 723.1,169.4 723.8,169.4 724.6,169.4 725.3,169.4 726.1,169.4 726.8,169.4 727.6,169.4 728.3,169.4 729.0,169.4 729.8,169.4 730.5,169.4 731.3,169.4 732.0,169.4 732.8,169.4 733.5,169.4 734.2,169.4 735.0,169.4 735.7,169.4 736.5,169.9 737.2,169.9 738.0,169.9 738.7,169.9 739.5,169.9 740.2,169.9 740.9,169.9 741.7,169.9 742.4,169.9 743.2,169.9 743.9,169.9 744.7,169.9 745.4,169.9 746.2,169.9 746.9,169.9 747.6,169.9 748.4,169.9 749.1,169.9 749.9,169.9 750.6,169.9 751.4,169.8 752.1,169.8 752.8,169.8 753.6,169.8 754.3,169.8 755.1,169.8 755.8,169.8 756.6,169.8 757.3,169.8 758.1,169.8 758.8,169.8 759.5,169.8 760.3,169.8 761.0,169.8 761.8,169.8 762.5,169.8 763.3,169.8 764.0,169.8 764.8,169.8 765.5,169.8 766.2,169.8 767.0,169.8 767.7,169.8 768.5,169.8 769.2,169.8 770.0,169.8 770.7,169.8 771.4,169.8 772.2,169.8 772.9,169.8 773.7,169.8 774.4,169.8 775.2,169.8 775.9,169.8 776.7,169.8 777.4,169.8 778.1,169.8 778.9,169.8 779.6,169.8 780.4,169.8 781.1,167.8 781.9,167.8 782.6,167.8 783.4,167.8 784.1,167.8 784.8,167.8 785.6,167.8 786.3,167.8 787.1,167.8 787.8,167.8 788.6,167.8 789.3,167.8 790.0,167.8 790.8,167.8 791.5,167.8 792.3,167.8 793.0,167.8 793.8,167.8 794.5,167.8 795.3,167.8 796.0,166.9"/>
<text x="640" y="56" font-family="Arial" font-size="12" fill="#0f766e">bax</text>
<polyline fill="none" stroke="#2563eb" stroke-width="2.3" points="52.0,192.2 52.7,192.2 53.5,192.2 54.2,192.2 55.0,192.2 55.7,192.2 56.5,192.2 57.2,192.2 58.0,192.2 58.7,192.2 59.4,192.2 60.2,192.2 60.9,192.2 61.7,192.2 62.4,192.2 63.2,192.2 63.9,192.2 64.6,192.2 65.4,192.2 66.1,192.2 66.9,42.0 67.6,42.0 68.4,42.0 69.1,42.0 69.9,42.0 70.6,42.0 71.3,42.0 72.1,42.0 72.8,42.0 73.6,42.0 74.3,42.0 75.1,42.0 75.8,42.0 76.6,42.0 77.3,42.0 78.0,42.0 78.8,42.0 79.5,42.0 80.3,42.0 81.0,42.0 81.8,65.3 82.5,65.3 83.2,65.3 84.0,65.3 84.7,65.3 85.5,65.3 86.2,65.3 87.0,65.3 87.7,65.3 88.5,65.3 89.2,65.3 89.9,65.3 90.7,65.3 91.4,65.3 92.2,65.3 92.9,65.3 93.7,65.3 94.4,65.3 95.2,65.3 95.9,65.3 96.6,101.1 97.4,101.1 98.1,101.1 98.9,101.1 99.6,101.1 100.4,101.1 101.1,101.1 101.8,101.1 102.6,101.1 103.3,101.1 104.1,101.1 104.8,101.1 105.6,101.1 106.3,101.1 107.1,101.1 107.8,101.1 108.5,101.1 109.3,101.1 110.0,101.1 110.8,101.1 111.5,140.8 112.3,140.8 113.0,140.8 113.8,140.8 114.5,140.8 115.2,140.8 116.0,140.8 116.7,140.8 117.5,140.8 118.2,140.8 119.0,140.8 119.7,140.8 120.4,140.8 121.2,140.8 121.9,140.8 122.7,140.8 123.4,140.8 124.2,140.8 124.9,140.8 125.7,140.8 126.4,204.3 127.1,204.3 127.9,204.3 128.6,204.3 129.4,204.3 130.1,204.3 130.9,204.3 131.6,204.3 132.4,204.3 133.1,204.3 133.8,204.3 134.6,204.3 135.3,204.3 136.1,204.3 136.8,204.3 137.6,204.3 138.3,204.3 139.0,204.3 139.8,204.3 140.5,204.3 141.3,219.6 142.0,219.6 142.8,219.6 143.5,219.6 144.3,219.6 145.0,219.6 145.7,219.6 146.5,219.6 147.2,219.6 148.0,219.6 148.7,219.6 149.5,219.6 150.2,219.6 151.0,219.6 151.7,219.6 152.4,219.6 153.2,219.6 153.9,219.6 154.7,219.6 155.4,219.6 156.2,208.8 156.9,208.8 157.6,208.8 158.4,208.8 159.1,208.8 159.9,208.8 160.6,208.8 161.4,208.8 162.1,208.8 162.9,208.8 163.6,208.8 164.3,208.8 165.1,208.8 165.8,208.8 166.6,208.8 167.3,208.8 168.1,208.8 168.8,208.8 169.6,208.8 170.3,208.8 171.0,206.5 171.8,206.5 172.5,206.5 173.3,206.5 174.0,206.5 174.8,206.5 175.5,206.5 176.2,206.5 177.0,206.5 177.7,206.5 178.5,206.5 179.2,206.5 180.0,206.5 180.7,206.5 181.5,206.5 182.2,206.5 182.9,206.5 183.7,206.5 184.4,206.5 185.2,206.5 185.9,212.6 186.7,212.6 187.4,212.6 188.2,212.6 188.9,212.6 189.6,212.6 190.4,212.6 191.1,212.6 191.9,212.6 192.6,212.6 193.4,212.6 194.1,212.6 194.8,212.6 195.6,212.6 196.3,212.6 197.1,212.6 197.8,212.6 198.6,212.6 199.3,212.6 200.1,212.6 200.8,215.0 201.5,215.0 202.3,215.0 203.0,215.0 203.8,215.0 204.5,215.0 205.3,215.0 206.0,215.0 206.8,215.0 207.5,215.0 208.2,215.0 209.0,215.0 209.7,215.0 210.5,215.0 211.2,215.0 212.0,215.0 212.7,215.0 213.4,215.0 214.2,215.0 214.9,215.0 215.7,213.6 216.4,213.6 217.2,213.6 217.9,213.6 218.7,213.6 219.4,213.6 220.1,213.6 220.9,213.6 221.6,213.6 222.4,213.6 223.1,213.6 223.9,213.6 224.6,213.6 225.4,213.6 226.1,213.6 226.8,213.6 227.6,213.6 228.3,213.6 229.1,213.6 229.8,213.6 230.6,206.7 231.3,206.7 232.0,206.7 232.8,206.7 233.5,206.7 234.3,206.7 235.0,206.7 235.8,206.7 236.5,206.7 237.3,206.7 238.0,206.7 238.7,206.7 239.5,206.7 240.2,206.7 241.0,206.7 241.7,206.7 242.5,206.7 243.2,206.7 244.0,206.7 244.7,206.7 245.4,212.4 246.2,212.4 246.9,212.4 247.7,212.4 248.4,212.4 249.2,212.4 249.9,212.4 250.6,212.4 251.4,212.4 252.1,212.4 252.9,212.4 253.6,212.4 254.4,212.4 255.1,212.4 255.9,212.4 256.6,212.4 257.3,212.4 258.1,212.4 258.8,212.4 259.6,212.4 260.3,213.3 261.1,213.3 261.8,213.3 262.6,213.3 263.3,213.3 264.0,213.3 264.8,213.3 265.5,213.3 266.3,213.3 267.0,213.3 267.8,213.3 268.5,213.3 269.2,213.3 270.0,213.3 270.7,213.3 271.5,213.3 272.2,213.3 273.0,213.3 273.7,213.3 274.5,213.3 275.2,220.5 275.9,220.5 276.7,220.5 277.4,220.5 278.2,220.5 278.9,220.5 279.7,220.5 280.4,220.5 281.2,220.5 281.9,220.5 282.6,220.5 283.4,220.5 284.1,220.5 284.9,220.5 285.6,220.5 286.4,220.5 287.1,220.5 287.8,220.5 288.6,220.5 289.3,220.5 290.1,217.9 290.8,217.9 291.6,217.9 292.3,217.9 293.1,217.9 293.8,217.9 294.5,217.9 295.3,217.9 296.0,217.9 296.8,217.9 297.5,217.9 298.3,217.9 299.0,217.9 299.8,217.9 300.5,217.9 301.2,217.9 302.0,217.9 302.7,217.9 303.5,217.9 304.2,217.9 305.0,216.2 305.7,216.2 306.4,216.2 307.2,216.2 307.9,216.2 308.7,216.2 309.4,216.2 310.2,216.2 310.9,216.2 311.7,216.2 312.4,216.2 313.1,216.2 313.9,216.2 314.6,216.2 315.4,216.2 316.1,216.2 316.9,216.2 317.6,216.2 318.4,216.2 319.1,216.2 319.8,215.3 320.6,215.3 321.3,215.3 322.1,215.3 322.8,215.3 323.6,215.3 324.3,215.3 325.0,215.3 325.8,215.3 326.5,215.3 327.3,215.3 328.0,215.3 328.8,215.3 329.5,215.3 330.3,215.3 331.0,215.3 331.7,215.3 332.5,215.3 333.2,215.3 334.0,215.3 334.7,219.2 335.5,219.2 336.2,219.2 337.0,219.2 337.7,219.2 338.4,219.2 339.2,219.2 339.9,219.2 340.7,219.2 341.4,219.2 342.2,219.2 342.9,219.2 343.6,219.2 344.4,219.2 345.1,219.2 345.9,219.2 346.6,219.2 347.4,219.2 348.1,219.2 348.9,219.2 349.6,217.7 350.3,217.7 351.1,217.7 351.8,217.7 352.6,217.7 353.3,217.7 354.1,217.7 354.8,217.7 355.6,217.7 356.3,217.7 357.0,217.7 357.8,217.7 358.5,217.7 359.3,217.7 360.0,217.7 360.8,217.7 361.5,217.7 362.2,217.7 363.0,217.7 363.7,217.7 364.5,215.5 365.2,215.5 366.0,215.5 366.7,215.5 367.5,215.5 368.2,215.5 368.9,215.5 369.7,215.5 370.4,215.5 371.2,215.5 371.9,215.5 372.7,215.5 373.4,215.5 374.2,215.5 374.9,215.5 375.6,215.5 376.4,215.5 377.1,215.5 377.9,215.5 378.6,215.5 379.4,215.5 380.1,215.5 380.8,215.5 381.6,215.5 382.3,215.5 383.1,215.5 383.8,215.5 384.6,215.5 385.3,215.5 386.1,215.5 386.8,215.5 387.5,215.5 388.3,215.5 389.0,215.5 389.8,215.5 390.5,215.5 391.3,215.5 392.0,215.5 392.8,215.5 393.5,215.5 394.2,215.5 395.0,215.5 395.7,215.5 396.5,215.5 397.2,215.5 398.0,215.5 398.7,215.5 399.4,215.5 400.2,215.5 400.9,215.5 401.7,215.5 402.4,215.5 403.2,215.5 403.9,215.5 404.7,215.5 405.4,215.5 406.1,215.5 406.9,215.5 407.6,215.5 408.4,215.5 409.1,215.5 409.9,215.5 410.6,215.5 411.4,215.5 412.1,215.5 412.8,215.5 413.6,215.5 414.3,215.5 415.1,215.5 415.8,215.5 416.6,215.5 417.3,215.5 418.0,215.5 418.8,215.5 419.5,215.5 420.3,215.5 421.0,215.5 421.8,215.5 422.5,215.5 423.3,215.5 424.0,215.5 424.7,215.5 425.5,215.5 426.2,215.5 427.0,215.5 427.7,215.5 428.5,215.5 429.2,215.5 430.0,215.5 430.7,215.5 431.4,215.5 432.2,215.5 432.9,215.5 433.7,215.5 434.4,215.5 435.2,215.5 435.9,215.5 436.6,215.5 437.4,215.5 438.1,215.5 438.9,215.5 439.6,215.5 440.4,215.5 441.1,215.5 441.9,215.5 442.6,215.5 443.3,215.5 444.1,215.5 444.8,215.5 445.6,215.5 446.3,215.5 447.1,215.5 447.8,215.5 448.6,215.5 449.3,215.5 450.0,215.5 450.8,215.5 451.5,215.5 452.3,215.5 453.0,215.5 453.8,215.5 454.5,215.5 455.2,215.5 456.0,215.5 456.7,215.5 457.5,215.5 458.2,215.5 459.0,215.5 459.7,215.5 460.5,215.5 461.2,215.5 461.9,215.5 462.7,215.5 463.4,215.5 464.2,215.5 464.9,215.5 465.7,215.5 466.4,215.5 467.2,215.5 467.9,215.5 468.6,215.5 469.4,215.5 470.1,215.5 470.9,215.5 471.6,215.5 472.4,215.5 473.1,215.5 473.8,215.5 474.6,215.5 475.3,215.5 476.1,215.5 476.8,215.5 477.6,215.5 478.3,215.5 479.1,215.5 479.8,215.5 480.5,215.5 481.3,215.5 482.0,215.5 482.8,215.5 483.5,212.3 484.3,212.3 485.0,212.3 485.8,212.3 486.5,212.3 487.2,212.3 488.0,212.3 488.7,212.3 489.5,212.3 490.2,212.3 491.0,212.3 491.7,212.3 492.4,212.3 493.2,212.3 493.9,212.3 494.7,212.3 495.4,212.3 496.2,212.3 496.9,212.3 497.7,212.3 498.4,211.5 499.1,211.5 499.9,211.5 500.6,211.5 501.4,211.5 502.1,211.5 502.9,211.5 503.6,211.5 504.4,211.5 505.1,211.5 505.8,211.5 506.6,211.5 507.3,211.5 508.1,211.5 508.8,211.5 509.6,211.5 510.3,211.5 511.0,211.5 511.8,211.5 512.5,211.5 513.3,208.0 514.0,208.0 514.8,208.0 515.5,208.0 516.3,208.0 517.0,208.0 517.7,208.0 518.5,208.0 519.2,208.0 520.0,208.0 520.7,208.0 521.5,208.0 522.2,208.0 523.0,208.0 523.7,208.0 524.4,208.0 525.2,208.0 525.9,208.0 526.7,208.0 527.4,208.0 528.2,203.3 528.9,203.3 529.6,203.3 530.4,203.3 531.1,203.3 531.9,203.3 532.6,203.3 533.4,203.3 534.1,203.3 534.9,203.3 535.6,203.3 536.3,203.3 537.1,203.3 537.8,203.3 538.6,203.3 539.3,203.3 540.1,203.3 540.8,203.3 541.6,203.3 542.3,203.3 543.0,200.9 543.8,200.9 544.5,200.9 545.3,200.9 546.0,200.9 546.8,200.9 547.5,200.9 548.2,200.9 549.0,200.9 549.7,200.9 550.5,200.9 551.2,200.9 552.0,200.9 552.7,200.9 553.5,200.9 554.2,200.9 554.9,200.9 555.7,200.9 556.4,200.9 557.2,200.9 557.9,200.7 558.7,200.7 559.4,200.7 560.2,200.7 560.9,200.7 561.6,200.7 562.4,200.7 563.1,200.7 563.9,200.7 564.6,200.7 565.4,200.7 566.1,200.7 566.8,200.7 567.6,200.7 568.3,200.7 569.1,200.7 569.8,200.7 570.6,200.7 571.3,200.7 572.1,200.7 572.8,203.1 573.5,203.1 574.3,203.1 575.0,203.1 575.8,203.1 576.5,203.1 577.3,203.1 578.0,203.1 578.8,203.1 579.5,203.1 580.2,203.1 581.0,203.1 581.7,203.1 582.5,203.1 583.2,203.1 584.0,203.1 584.7,203.1 585.4,203.1 586.2,203.1 586.9,203.1 587.7,203.1 588.4,203.1 589.2,203.1 589.9,203.1 590.7,203.1 591.4,203.1 592.1,203.1 592.9,203.1 593.6,203.1 594.4,203.1 595.1,203.1 595.9,203.1 596.6,203.1 597.4,203.1 598.1,203.1 598.8,203.1 599.6,203.1 600.3,203.1 601.1,203.1 601.8,203.1 602.6,202.3 603.3,202.3 604.0,202.3 604.8,202.3 605.5,202.3 606.3,202.3 607.0,202.3 607.8,202.3 608.5,202.3 609.3,202.3 610.0,202.3 610.7,202.3 611.5,202.3 612.2,202.3 613.0,202.3 613.7,202.3 614.5,202.3 615.2,202.3 616.0,202.3 616.7,202.3 617.4,201.2 618.2,201.2 618.9,201.2 619.7,201.2 620.4,201.2 621.2,201.2 621.9,201.2 622.6,201.2 623.4,201.2 624.1,201.2 624.9,201.2 625.6,201.2 626.4,201.2 627.1,201.2 627.9,201.2 628.6,201.2 629.3,201.2 630.1,201.2 630.8,201.2 631.6,201.2 632.3,202.4 633.1,202.4 633.8,202.4 634.6,202.4 635.3,202.4 636.0,202.4 636.8,202.4 637.5,202.4 638.3,202.4 639.0,202.4 639.8,202.4 640.5,202.4 641.2,202.4 642.0,202.4 642.7,202.4 643.5,202.4 644.2,202.4 645.0,202.4 645.7,202.4 646.5,202.4 647.2,202.9 647.9,202.9 648.7,202.9 649.4,202.9 650.2,202.9 650.9,202.9 651.7,202.9 652.4,202.9 653.2,202.9 653.9,202.9 654.6,202.9 655.4,202.9 656.1,202.9 656.9,202.9 657.6,202.9 658.4,202.9 659.1,202.9 659.8,202.9 660.6,202.9 661.3,202.9 662.1,202.8 662.8,202.8 663.6,202.8 664.3,202.8 665.1,202.8 665.8,202.8 666.5,202.8 667.3,202.8 668.0,202.8 668.8,202.8 669.5,202.8 670.3,202.8 671.0,202.8 671.8,202.8 672.5,202.8 673.2,202.8 674.0,202.8 674.7,202.8 675.5,202.8 676.2,202.8 677.0,203.4 677.7,203.4 678.4,203.4 679.2,203.4 679.9,203.4 680.7,203.4 681.4,203.4 682.2,203.4 682.9,203.4 683.7,203.4 684.4,203.4 685.1,203.4 685.9,203.4 686.6,203.4 687.4,203.4 688.1,203.4 688.9,203.4 689.6,203.4 690.4,203.4 691.1,203.4 691.8,204.6 692.6,204.6 693.3,204.6 694.1,204.6 694.8,204.6 695.6,204.6 696.3,204.6 697.0,204.6 697.8,204.6 698.5,204.6 699.3,204.6 700.0,204.6 700.8,204.6 701.5,204.6 702.3,204.6 703.0,204.6 703.7,204.6 704.5,204.6 705.2,204.6 706.0,204.6 706.7,204.0 707.5,204.0 708.2,204.0 709.0,204.0 709.7,204.0 710.4,204.0 711.2,204.0 711.9,204.0 712.7,204.0 713.4,204.0 714.2,204.0 714.9,204.0 715.6,204.0 716.4,204.0 717.1,204.0 717.9,204.0 718.6,204.0 719.4,204.0 720.1,204.0 720.9,204.0 721.6,204.8 722.3,204.8 723.1,204.8 723.8,204.8 724.6,204.8 725.3,204.8 726.1,204.8 726.8,204.8 727.6,204.8 728.3,204.8 729.0,204.8 729.8,204.8 730.5,204.8 731.3,204.8 732.0,204.8 732.8,204.8 733.5,204.8 734.2,204.8 735.0,204.8 735.7,204.8 736.5,204.1 737.2,204.1 738.0,204.1 738.7,204.1 739.5,204.1 740.2,204.1 740.9,204.1 741.7,204.1 742.4,204.1 743.2,204.1 743.9,204.1 744.7,204.1 745.4,204.1 746.2,204.1 746.9,204.1 747.6,204.1 748.4,204.1 749.1,204.1 749.9,204.1 750.6,204.1 751.4,204.3 752.1,204.3 752.8,204.3 753.6,204.3 754.3,204.3 755.1,204.3 755.8,204.3 756.6,204.3 757.3,204.3 758.1,204.3 758.8,204.3 759.5,204.3 760.3,204.3 761.0,204.3 761.8,204.3 762.5,204.3 763.3,204.3 764.0,204.3 764.8,204.3 765.5,204.3 766.2,203.4 767.0,203.4 767.7,203.4 768.5,203.4 769.2,203.4 770.0,203.4 770.7,203.4 771.4,203.4 772.2,203.4 772.9,203.4 773.7,203.4 774.4,203.4 775.2,203.4 775.9,203.4 776.7,203.4 777.4,203.4 778.1,203.4 778.9,203.4 779.6,203.4 780.4,203.4 781.1,203.6 781.9,203.6 782.6,203.6 783.4,203.6 784.1,203.6 784.8,203.6 785.6,203.6 786.3,203.6 787.1,203.6 787.8,203.6 788.6,203.6 789.3,203.6 790.0,203.6 790.8,203.6 791.5,203.6 792.3,203.6 793.0,203.6 793.8,203.6 794.5,203.6 795.3,203.6 796.0,203.1"/>
<text x="640" y="72" font-family="Arial" font-size="12" fill="#2563eb">bay</text>
<polyline fill="none" stroke="#b45309" stroke-width="2.3" points="52.0,192.2 52.7,192.2 53.5,192.2 54.2,192.2 55.0,192.9 55.7,192.9 56.5,192.9 57.2,192.9 58.0,196.2 58.7,196.2 59.4,196.2 60.2,196.2 60.9,182.6 61.7,182.6 62.4,182.6 63.2,182.6 63.9,127.6 64.6,127.6 65.4,127.6 66.1,127.6 66.9,203.0 67.6,203.0 68.4,203.0 69.1,203.0 69.9,195.3 70.6,195.3 71.3,195.3 72.1,195.3 72.8,202.3 73.6,202.3 74.3,202.3 75.1,202.3 75.8,232.1 76.6,232.1 77.3,232.1 78.0,232.1 78.8,268.1 79.5,268.1 80.3,268.1 81.0,268.1 81.8,225.9 82.5,225.9 83.2,225.9 84.0,225.9 84.7,214.4 85.5,214.4 86.2,214.4 87.0,214.4 87.7,226.0 88.5,226.0 89.2,226.0 89.9,226.0 90.7,202.1 91.4,202.1 92.2,202.1 92.9,202.1 93.7,183.8 94.4,183.8 95.2,183.8 95.9,183.8 96.6,108.2 97.4,108.2 98.1,108.2 98.9,108.2 99.6,103.1 100.4,103.1 101.1,103.1 101.8,103.1 102.6,112.1 103.3,112.1 104.1,112.1 104.8,112.1 105.6,108.9 106.3,108.9 107.1,108.9 107.8,108.9 108.5,96.4 109.3,96.4 110.0,96.4 110.8,96.4 111.5,97.8 112.3,97.8 113.0,97.8 113.8,97.8 114.5,114.2 115.2,114.2 116.0,114.2 116.7,114.2 117.5,108.0 118.2,108.0 119.0,108.0 119.7,108.0 120.4,108.5 121.2,108.5 121.9,108.5 122.7,108.5 123.4,122.5 124.2,122.5 124.9,122.5 125.7,122.5 126.4,90.5 127.1,90.5 127.9,90.5 128.6,90.5 129.4,96.8 130.1,96.8 130.9,96.8 131.6,96.8 132.4,96.5 133.1,96.5 133.8,96.5 134.6,96.5 135.3,110.0 136.1,110.0 136.8,110.0 137.6,110.0 138.3,101.9 139.0,101.9 139.8,101.9 140.5,101.9 141.3,105.0 142.0,105.0 142.8,105.0 143.5,105.0 144.3,116.7 145.0,116.7 145.7,116.7 146.5,116.7 147.2,115.9 148.0,115.9 148.7,115.9 149.5,115.9 150.2,117.3 151.0,117.3 151.7,117.3 152.4,117.3 153.2,127.5 153.9,127.5 154.7,127.5 155.4,127.5 156.2,117.1 156.9,117.1 157.6,117.1 158.4,117.1 159.1,125.7 159.9,125.7 160.6,125.7 161.4,125.7 162.1,123.2 162.9,123.2 163.6,123.2 164.3,123.2 165.1,126.3 165.8,126.3 166.6,126.3 167.3,126.3 168.1,140.2 168.8,140.2 169.6,140.2 170.3,140.2 171.0,159.3 171.8,159.3 172.5,159.3 173.3,159.3 174.0,158.9 174.8,158.9 175.5,158.9 176.2,158.9 177.0,162.3 177.7,162.3 178.5,162.3 179.2,162.3 180.0,164.6 180.7,164.6 181.5,164.6 182.2,164.6 182.9,160.9 183.7,160.9 184.4,160.9 185.2,160.9 185.9,172.5 186.7,172.5 187.4,172.5 188.2,172.5 188.9,173.8 189.6,173.8 190.4,173.8 191.1,173.8 191.9,166.9 192.6,166.9 193.4,166.9 194.1,166.9 194.8,163.6 195.6,163.6 196.3,163.6 197.1,163.6 197.8,165.8 198.6,165.8 199.3,165.8 200.1,165.8 200.8,165.7 201.5,165.7 202.3,165.7 203.0,165.7 203.8,162.9 204.5,162.9 205.3,162.9 206.0,162.9 206.8,168.8 207.5,168.8 208.2,168.8 209.0,168.8 209.7,172.3 210.5,172.3 211.2,172.3 212.0,172.3 212.7,172.0 213.4,172.0 214.2,172.0 214.9,172.0 215.7,174.7 216.4,174.7 217.2,174.7 217.9,174.7 218.7,177.7 219.4,177.7 220.1,177.7 220.9,177.7 221.6,175.1 222.4,175.1 223.1,175.1 223.9,175.1 224.6,176.2 225.4,176.2 226.1,176.2 226.8,176.2 227.6,173.8 228.3,173.8 229.1,173.8 229.8,173.8 230.6,180.5 231.3,180.5 232.0,180.5 232.8,180.5 233.5,176.7 234.3,176.7 235.0,176.7 235.8,176.7 236.5,175.9 237.3,175.9 238.0,175.9 238.7,175.9 239.5,176.8 240.2,176.8 241.0,176.8 241.7,176.8 242.5,175.1 243.2,175.1 244.0,175.1 244.7,175.1 245.4,171.6 246.2,171.6 246.9,171.6 247.7,171.6 248.4,170.2 249.2,170.2 249.9,170.2 250.6,170.2 251.4,168.8 252.1,168.8 252.9,168.8 253.6,168.8 254.4,167.0 255.1,167.0 255.9,167.0 256.6,167.0 257.3,168.7 258.1,168.7 258.8,168.7 259.6,168.7 260.3,171.5 261.1,171.5 261.8,171.5 262.6,171.5 263.3,171.6 264.0,171.6 264.8,171.6 265.5,171.6 266.3,173.1 267.0,173.1 267.8,173.1 268.5,173.1 269.2,175.0 270.0,175.0 270.7,175.0 271.5,175.0 272.2,172.8 273.0,172.8 273.7,172.8 274.5,172.8 275.2,175.6 275.9,175.6 276.7,175.6 277.4,175.6 278.2,176.9 278.9,176.9 279.7,176.9 280.4,176.9 281.2,177.3 281.9,177.3 282.6,177.3 283.4,177.3 284.1,176.7 284.9,176.7 285.6,176.7 286.4,176.7 287.1,177.1 287.8,177.1 288.6,177.1 289.3,177.1 290.1,179.8 290.8,179.8 291.6,179.8 292.3,179.8 293.1,181.9 293.8,181.9 294.5,181.9 295.3,181.9 296.0,181.7 296.8,181.7 297.5,181.7 298.3,181.7 299.0,181.4 299.8,181.4 300.5,181.4 301.2,181.4 302.0,181.0 302.7,181.0 303.5,181.0 304.2,181.0 305.0,179.5 305.7,179.5 306.4,179.5 307.2,179.5 307.9,180.4 308.7,180.4 309.4,180.4 310.2,180.4 310.9,181.0 311.7,181.0 312.4,181.0 313.1,181.0 313.9,181.9 314.6,181.9 315.4,181.9 316.1,181.9 316.9,182.3 317.6,182.3 318.4,182.3 319.1,182.3 319.8,179.6 320.6,179.6 321.3,179.6 322.1,179.6 322.8,179.5 323.6,179.5 324.3,179.5 325.0,179.5 325.8,180.9 326.5,180.9 327.3,180.9 328.0,180.9 328.8,181.5 329.5,181.5 330.3,181.5 331.0,181.5 331.7,180.8 332.5,180.8 333.2,180.8 334.0,180.8 334.7,179.6 335.5,179.6 336.2,179.6 337.0,179.6 337.7,180.0 338.4,180.0 339.2,180.0 339.9,180.0 340.7,179.7 341.4,179.7 342.2,179.7 342.9,179.7 343.6,179.3 344.4,179.3 345.1,179.3 345.9,179.3 346.6,180.6 347.4,180.6 348.1,180.6 348.9,180.6 349.6,180.5 350.3,180.5 351.1,180.5 351.8,180.5 352.6,180.9 353.3,180.9 354.1,180.9 354.8,180.9 355.6,181.5 356.3,181.5 357.0,181.5 357.8,181.5 358.5,181.3 359.3,181.3 360.0,181.3 360.8,181.3 361.5,182.1 362.2,182.1 363.0,182.1 363.7,182.1 364.5,182.2 365.2,182.2 366.0,182.2 366.7,182.2 367.5,182.2 368.2,182.2 368.9,182.2 369.7,182.2 370.4,181.3 371.2,181.3 371.9,181.3 372.7,181.3 373.4,182.4 374.2,182.4 374.9,182.4 375.6,182.4 376.4,183.3 377.1,183.3 377.9,183.3 378.6,183.3 379.4,184.1 380.1,184.1 380.8,184.1 381.6,184.1 382.3,184.2 383.1,184.2 383.8,184.2 384.6,184.2 385.3,184.8 386.1,184.8 386.8,184.8 387.5,184.8 388.3,184.0 389.0,184.0 389.8,184.0 390.5,184.0 391.3,183.9 392.0,183.9 392.8,183.9 393.5,183.9 394.2,184.3 395.0,184.3 395.7,184.3 396.5,184.3 397.2,184.0 398.0,184.0 398.7,184.0 399.4,184.0 400.2,183.8 400.9,183.8 401.7,183.8 402.4,183.8 403.2,183.7 403.9,183.7 404.7,183.7 405.4,183.7 406.1,184.9 406.9,184.9 407.6,184.9 408.4,184.9 409.1,185.0 409.9,185.0 410.6,185.0 411.4,185.0 412.1,184.2 412.8,184.2 413.6,184.2 414.3,184.2 415.1,182.9 415.8,182.9 416.6,182.9 417.3,182.9 418.0,182.3 418.8,182.3 419.5,182.3 420.3,182.3 421.0,182.8 421.8,182.8 422.5,182.8 423.3,182.8 424.0,183.0 424.7,183.0 425.5,183.0 426.2,183.0 427.0,183.4 427.7,183.4 428.5,183.4 429.2,183.4 430.0,182.5 430.7,182.5 431.4,182.5 432.2,182.5 432.9,182.6 433.7,182.6 434.4,182.6 435.2,182.6 435.9,182.1 436.6,182.1 437.4,182.1 438.1,182.1 438.9,182.2 439.6,182.2 440.4,182.2 441.1,182.2 441.9,182.8 442.6,182.8 443.3,182.8 444.1,182.8 444.8,182.0 445.6,182.0 446.3,182.0 447.1,182.0 447.8,182.7 448.6,182.7 449.3,182.7 450.0,182.7 450.8,182.7 451.5,182.7 452.3,182.7 453.0,182.7 453.8,181.4 454.5,181.4 455.2,181.4 456.0,181.4 456.7,182.0 457.5,182.0 458.2,182.0 459.0,182.0 459.7,182.2 460.5,182.2 461.2,182.2 461.9,182.2 462.7,182.6 463.4,182.6 464.2,182.6 464.9,182.6 465.7,182.9 466.4,182.9 467.2,182.9 467.9,182.9 468.6,181.8 469.4,181.8 470.1,181.8 470.9,181.8 471.6,182.6 472.4,182.6 473.1,182.6 473.8,182.6 474.6,182.2 475.3,182.2 476.1,182.2 476.8,182.2 477.6,181.3 478.3,181.3 479.1,181.3 479.8,181.3 480.5,180.5 481.3,180.5 482.0,180.5 482.8,180.5 483.5,179.3 484.3,179.3 485.0,179.3 485.8,179.3 486.5,179.4 487.2,179.4 488.0,179.4 488.7,179.4 489.5,178.8 490.2,178.8 491.0,178.8 491.7,178.8 492.4,178.8 493.2,178.8 493.9,178.8 494.7,178.8 495.4,179.3 496.2,179.3 496.9,179.3 497.7,179.3 498.4,179.9 499.1,179.9 499.9,179.9 500.6,179.9 501.4,179.9 502.1,179.9 502.9,179.9 503.6,179.9 504.4,179.6 505.1,179.6 505.8,179.6 506.6,179.6 507.3,178.9 508.1,178.9 508.8,178.9 509.6,178.9 510.3,179.5 511.0,179.5 511.8,179.5 512.5,179.5 513.3,179.1 514.0,179.1 514.8,179.1 515.5,179.1 516.3,178.9 517.0,178.9 517.7,178.9 518.5,178.9 519.2,179.5 520.0,179.5 520.7,179.5 521.5,179.5 522.2,179.4 523.0,179.4 523.7,179.4 524.4,179.4 525.2,179.0 525.9,179.0 526.7,179.0 527.4,179.0 528.2,179.5 528.9,179.5 529.6,179.5 530.4,179.5 531.1,179.5 531.9,179.5 532.6,179.5 533.4,179.5 534.1,179.8 534.9,179.8 535.6,179.8 536.3,179.8 537.1,180.7 537.8,180.7 538.6,180.7 539.3,180.7 540.1,180.5 540.8,180.5 541.6,180.5 542.3,180.5 543.0,179.4 543.8,179.4 544.5,179.4 545.3,179.4 546.0,179.8 546.8,179.8 547.5,179.8 548.2,179.8 549.0,180.1 549.7,180.1 550.5,180.1 551.2,180.1 552.0,179.4 552.7,179.4 553.5,179.4 554.2,179.4 554.9,179.7 555.7,179.7 556.4,179.7 557.2,179.7 557.9,180.8 558.7,180.8 559.4,180.8 560.2,180.8 560.9,181.1 561.6,181.1 562.4,181.1 563.1,181.1 563.9,180.5 564.6,180.5 565.4,180.5 566.1,180.5 566.8,180.3 567.6,180.3 568.3,180.3 569.1,180.3 569.8,180.4 570.6,180.4 571.3,180.4 572.1,180.4 572.8,180.4 573.5,180.4 574.3,180.4 575.0,180.4 575.8,180.9 576.5,180.9 577.3,180.9 578.0,180.9 578.8,181.4 579.5,181.4 580.2,181.4 581.0,181.4 581.7,180.9 582.5,180.9 583.2,180.9 584.0,180.9 584.7,180.8 585.4,180.8 586.2,180.8 586.9,180.8 587.7,179.4 588.4,179.4 589.2,179.4 589.9,179.4 590.7,179.5 591.4,179.5 592.1,179.5 592.9,179.5 593.6,179.2 594.4,179.2 595.1,179.2 595.9,179.2 596.6,179.0 597.4,179.0 598.1,179.0 598.8,179.0 599.6,179.3 600.3,179.3 601.1,179.3 601.8,179.3 602.6,180.3 603.3,180.3 604.0,180.3 604.8,180.3 605.5,180.9 606.3,180.9 607.0,180.9 607.8,180.9 608.5,179.8 609.3,179.8 610.0,179.8 610.7,179.8 611.5,180.0 612.2,180.0 613.0,180.0 613.7,180.0 614.5,180.0 615.2,180.0 616.0,180.0 616.7,180.0 617.4,178.5 618.2,178.5 618.9,178.5 619.7,178.5 620.4,178.4 621.2,178.4 621.9,178.4 622.6,178.4 623.4,179.0 624.1,179.0 624.9,179.0 625.6,179.0 626.4,178.9 627.1,178.9 627.9,178.9 628.6,178.9 629.3,178.6 630.1,178.6 630.8,178.6 631.6,178.6 632.3,178.0 633.1,178.0 633.8,178.0 634.6,178.0 635.3,178.0 636.0,178.0 636.8,178.0 637.5,178.0 638.3,177.7 639.0,177.7 639.8,177.7 640.5,177.7 641.2,177.8 642.0,177.8 642.7,177.8 643.5,177.8 644.2,177.6 645.0,177.6 645.7,177.6 646.5,177.6 647.2,178.6 647.9,178.6 648.7,178.6 649.4,178.6 650.2,179.0 650.9,179.0 651.7,179.0 652.4,179.0 653.2,179.2 653.9,179.2 654.6,179.2 655.4,179.2 656.1,179.6 656.9,179.6 657.6,179.6 658.4,179.6 659.1,179.2 659.8,179.2 660.6,179.2 661.3,179.2 662.1,179.4 662.8,179.4 663.6,179.4 664.3,179.4 665.1,179.3 665.8,179.3 666.5,179.3 667.3,179.3 668.0,178.9 668.8,178.9 669.5,178.9 670.3,178.9 671.0,179.1 671.8,179.1 672.5,179.1 673.2,179.1 674.0,179.0 674.7,179.0 675.5,179.0 676.2,179.0 677.0,180.1 677.7,180.1 678.4,180.1 679.2,180.1 679.9,180.9 680.7,180.9 681.4,180.9 682.2,180.9 682.9,181.3 683.7,181.3 684.4,181.3 685.1,181.3 685.9,180.8 686.6,180.8 687.4,180.8 688.1,180.8 688.9,181.2 689.6,181.2 690.4,181.2 691.1,181.2 691.8,181.8 692.6,181.8 693.3,181.8 694.1,181.8 694.8,181.1 695.6,181.1 696.3,181.1 697.0,181.1 697.8,181.2 698.5,181.2 699.3,181.2 700.0,181.2 700.8,180.6 701.5,180.6 702.3,180.6 703.0,180.6 703.7,179.9 704.5,179.9 705.2,179.9 706.0,179.9 706.7,180.4 707.5,180.4 708.2,180.4 709.0,180.4 709.7,179.6 710.4,179.6 711.2,179.6 711.9,179.6 712.7,180.0 713.4,180.0 714.2,180.0 714.9,180.0 715.6,179.8 716.4,179.8 717.1,179.8 717.9,179.8 718.6,179.7 719.4,179.7 720.1,179.7 720.9,179.7 721.6,180.7 722.3,180.7 723.1,180.7 723.8,180.7 724.6,180.8 725.3,180.8 726.1,180.8 726.8,180.8 727.6,181.2 728.3,181.2 729.0,181.2 729.8,181.2 730.5,180.7 731.3,180.7 732.0,180.7 732.8,180.7 733.5,179.9 734.2,179.9 735.0,179.9 735.7,179.9 736.5,179.7 737.2,179.7 738.0,179.7 738.7,179.7 739.5,179.2 740.2,179.2 740.9,179.2 741.7,179.2 742.4,179.7 743.2,179.7 743.9,179.7 744.7,179.7 745.4,179.3 746.2,179.3 746.9,179.3 747.6,179.3 748.4,179.1 749.1,179.1 749.9,179.1 750.6,179.1 751.4,180.1 752.1,180.1 752.8,180.1 753.6,180.1 754.3,180.9 755.1,180.9 755.8,180.9 756.6,180.9 757.3,180.8 758.1,180.8 758.8,180.8 759.5,180.8 760.3,181.9 761.0,181.9 761.8,181.9 762.5,181.9 763.3,182.2 764.0,182.2 764.8,182.2 765.5,182.2 766.2,181.8 767.0,181.8 767.7,181.8 768.5,181.8 769.2,181.8 770.0,181.8 770.7,181.8 771.4,181.8 772.2,182.2 772.9,182.2 773.7,182.2 774.4,182.2 775.2,182.2 775.9,182.2 776.7,182.2 777.4,182.2 778.1,181.7 778.9,181.7 779.6,181.7 780.4,181.7 781.1,182.3 781.9,182.3 782.6,182.3 783.4,182.3 784.1,182.2 784.8,182.2 785.6,182.2 786.3,182.2 787.1,182.7 787.8,182.7 788.6,182.7 789.3,182.7 790.0,182.7 790.8,182.7 791.5,182.7 792.3,182.7 793.0,182.3 793.8,182.3 794.5,182.3 795.3,182.3 796.0,180.9"/>
<text x="640" y="88" font-family="Arial" font-size="12" fill="#b45309">baz</text>
</svg>