<svg xmlns="http://www.w3.org/2000/svg" width="820" height="320" viewBox="0 0 820 320">
<rect width="100%" height="100%" fill="white"/>
<text x="52" y="30" font-family="Arial" font-size="18" font-weight="700">ukf_nominal accelerometer bias estimates</text>
<line x1="52" y1="274" x2="796" y2="274" stroke="#263238"/>
<line x1="52" y1="42" x2="52" y2="274" stroke="#263238"/>
<text x="52" y="306" font-family="Arial" font-size="12">time (s)</text>
<text x="630" y="306" font-family="Arial" font-size="12">m/s^2</text>

<polyline fill="none" stroke="#0f766e" stroke-width="2.3" points="52.0,141.8 52.7,141.8 53.5,141.8 54.2,141.8 55.0,141.8 55.7,141.8 56.5,141.8 57.2,141.8 58.0,141.8 58.7,141.8 59.4,141.8 60.2,141.8 60.9,141.8 61.7,141.8 62.4,141.8 63.2,141.8 63.9,141.8 64.6,141.8 65.4,141.8 66.1,141.8 66.9,138.8 67.6,138.8 68.4,138.8 69.1,138.8 69.9,138.8 70.6,138.8 71.3,138.8 72.1,138.8 72.8,138.8 73.6,138.8 74.3,138.8 75.1,138.8 75.8,138.8 76.6,138.8 77.3,138.8 78.0,138.8 78.8,138.8 79.5,138.8 80.3,138.8 81.0,138.8 81.8,157.4 82.5,157.4 83.2,157.4 84.0,157.4 84.7,157.6 85.5,157.6 86.2,157.6 87.0,157.6 87.7,157.5 88.5,157.5 89.2,157.5 89.9,157.5 90.7,157.6 91.4,157.6 92.2,157.6 92.9,157.6 93.7,157.7 94.4,157.7 95.2,157.7 95.9,157.7 96.6,170.5 97.4,170.5 98.1,170.5 98.9,170.5 99.6,170.6 100.4,170.6 101.1,170.6 101.8,170.6 102.6,170.6 103.3,170.6 104.1,170.6 104.8,170.6 105.6,170.6 106.3,170.6 107.1,170.6 107.8,170.6 108.5,170.7 109.3,170.7 110.0,170.7 110.8,170.7 111.5,176.3 112.3,176.3 113.0,176.3 113.8,176.3 114.5,175.9 115.2,175.9 116.0,175.9 116.7,175.9 117.5,176.1 118.2,176.1 119.0,176.1 119.7,176.1 120.4,176.1 121.2,176.1 121.9,176.1 122.7,176.1 123.4,175.9 124.2,175.9 124.9,175.9 125.7,175.9 126.4,162.1 127.1,162.1 127.9,162.1 128.6,162.1 129.4,161.9 130.1,161.9 130.9,161.9 131.6,161.9 132.4,161.9 133.1,161.9 133.8,161.9 134.6,161.9 135.3,161.6 136.1,161.6 136.8,161.6 137.6,161.6 138.3,161.8 139.0,161.8 139.8,161.8 140.5,161.8 141.3,216.7 142.0,216.7 142.8,216.7 143.5,216.7 144.3,216.4 145.0,216.4 145.7,216.4 146.5,216.4 147.2,216.5 148.0,216.5 148.7,216.5 149.5,216.5 150.2,216.5 151.0,216.5 151.7,216.5 152.4,216.5 153.2,216.4 153.9,216.4 154.7,216.4 155.4,216.4 156.2,138.1 156.9,138.1 157.6,138.1 158.4,138.1 159.1,137.9 159.9,137.9 160.6,137.9 161.4,137.9 162.1,138.1 162.9,138.1 163.6,138.1 164.3,138.1 165.1,138.1 165.8,138.1 166.6,138.1 167.3,138.1 168.1,137.9 168.8,137.9 169.6,137.9 170.3,137.9 171.0,144.8 171.8,144.8 172.5,144.8 173.3,144.8 174.0,144.8 174.8,144.8 175.5,144.8 176.2,144.8 177.0,144.7 177.7,144.7 178.5,144.7 179.2,144.7 180.0,144.7 180.7,144.7 181.5,144.7 182.2,144.7 182.9,144.8 183.7,144.8 184.4,144.8 185.2,144.8 185.9,117.1 186.7,117.1 187.4,117.1 188.2,117.1 188.9,117.1 189.6,117.1 190.4,117.1 191.1,117.1 191.9,117.3 192.6,117.3 193.4,117.3 194.1,117.3 194.8,117.3 195.6,117.3 196.3,117.3 197.1,117.3 197.8,117.3 198.6,117.3 199.3,117.3 200.1,117.3 200.8,95.9 201.5,95.9 202.3,95.9 203.0,95.9 203.8,96.0 204.5,96.0 205.3,96.0 206.0,96.0 206.8,95.9 207.5,95.9 208.2,95.9 209.0,95.9 209.7,95.8 210.5,95.8 211.2,95.8 212.0,95.8 212.7,95.9 213.4,95.9 214.2,95.9 214.9,95.9 215.7,98.7 216.4,98.7 217.2,98.7 217.9,98.7 218.7,98.6 219.4,98.6 220.1,98.6 220.9,98.6 221.6,98.7 222.4,98.7 223.1,98.7 223.9,98.7 224.6,98.7 225.4,98.7 226.1,98.7 226.8,98.7 227.6,98.7 228.3,98.7 229.1,98.7 229.8,98.7 230.6,101.5 231.3,101.5 232.0,101.5 232.8,101.5 233.5,101.6 234.3,101.6 235.0,101.6 235.8,101.6 236.5,101.6 237.3,101.6 238.0,101.6 238.7,101.6 239.5,101.5 240.2,101.5 241.0,101.5 241.7,101.5 242.5,101.6 243.2,101.6 244.0,101.6 244.7,101.6 245.4,114.2 246.2,114.2 246.9,114.2 247.7,114.2 248.4,114.2 249.2,114.2 249.9,114.2 250.6,114.2 251.4,114.2 252.1,114.2 252.9,114.2 253.6,114.2 254.4,114.2 255.1,114.2 255.9,114.2 256.6,114.2 257.3,114.2 258.1,114.2 258.8,114.2 259.6,114.2 260.3,112.0 261.1,112.0 261.8,112.0 262.6,112.0 263.3,112.0 264.0,112.0 264.8,112.0 265.5,112.0 266.3,112.0 267.0,112.0 267.8,112.0 268.5,112.0 269.2,112.0 270.0,112.0 270.7,112.0 271.5,112.0 272.2,112.0 273.0,112.0 273.7,112.0 274.5,112.0 275.2,115.1 275.9,115.1 276.7,115.1 277.4,115.1 278.2,115.1 278.9,115.1 279.7,115.1 280.4,115.1 281.2,115.1 281.9,115.1 282.6,115.1 283.4,115.1 284.1,115.1 284.9,115.1 285.6,115.1 286.4,115.1 287.1,115.1 287.8,115.1 288.6,115.1 289.3,115.1 290.1,119.0 290.8,119.0 291.6,119.0 292.3,119.0 293.1,119.0 293.8,119.0 294.5,119.0 295.3,119.0 296.0,119.0 296.8,119.0 297.5,119.0 298.3,119.0 299.0,119.0 299.8,119.0 300.5,119.0 301.2,119.0 302.0,119.0 302.7,119.0 303.5,119.0 304.2,119.0 305.0,112.6 305.7,112.6 306.4,112.6 307.2,112.6 307.9,112.5 308.7,112.5 309.4,112.5 310.2,112.5 310.9,112.5 311.7,112.5 312.4,112.5 313.1,112.5 313.9,112.5 314.6,112.5 315.4,112.5 316.1,112.5 316.9,112.5 317.6,112.5 318.4,112.5 319.1,112.5 319.8,117.4 320.6,117.4 321.3,117.4 322.1,117.4 322.8,117.4 323.6,117.4 324.3,117.4 325.0,117.4 325.8,117.4 326.5,117.4 327.3,117.4 328.0,117.4 328.8,117.4 329.5,117.4 330.3,117.4 331.0,117.4 331.7,117.4 332.5,117.4 333.2,117.4 334.0,117.4 334.7,119.1 335.5,119.1 336.2,119.1 337.0,119.1 337.7,119.1 338.4,119.1 339.2,119.1 339.9,119.1 340.7,119.1 341.4,119.1 342.2,119.1 342.9,119.1 343.6,119.1 344.4,119.1 345.1,119.1 345.9,119.1 346.6,119.1 347.4,119.1 348.1,119.1 348.9,119.1 349.6,121.5 350.3,121.5 351.1,121.5 351.8,121.5 352.6,121.5 353.3,121.5 354.1,121.5 354.8,121.5 355.6,121.5 356.3,121.5 357.0,121.5 357.8,121.5 358.5,121.5 359.3,121.5 360.0,121.5 360.8,121.5 361.5,121.5 362.2,121.5 363.0,121.5 363.7,121.5 364.5,124.3 365.2,124.3 366.0,124.3 366.7,124.3 367.5,124.3 368.2,124.3 368.9,124.3 369.7,124.3 370.4,124.3 371.2,124.3 371.9,124.3 372.7,124.3 373.4,124.3 374.2,124.3 374.9,124.3 375.6,124.3 376.4,124.3 377.1,124.3 377.9,124.3 378.6,124.3 379.4,128.6 380.1,128.6 380.8,128.6 381.6,128.6 382.3,128.6 383.1,128.6 383.8,128.6 384.6,128.6 385.3,128.6 386.1,128.6 386.8,128.6 387.5,128.6 388.3,128.6 389.0,128.6 389.8,128.6 390.5,128.6 391.3,128.6 392.0,128.6 392.8,128.6 393.5,128.6 394.2,128.3 395.0,128.3 395.7,128.3 396.5,128.3 397.2,128.3 398.0,128.3 398.7,128.3 399.4,128.3 400.2,128.3 400.9,128.3 401.7,128.3 402.4,128.3 403.2,128.3 403.9,128.3 404.7,128.3 405.4,128.3 406.1,128.3 406.9,128.3 407.6,128.3 408.4,128.3 409.1,127.9 409.9,127.9 410.6,127.9 411.4,127.9 412.1,127.9 412.8,127.9 413.6,127.9 414.3,127.9 415.1,127.9 415.8,127.9 416.6,127.9 417.3,127.9 418.0,127.9 418.8,127.9 419.5,127.9 420.3,127.9 421.0,127.9 421.8,127.9 422.5,127.9 423.3,127.9 424.0,129.9 424.7,129.9 425.5,129.9 426.2,129.9 427.0,129.9 427.7,129.9 428.5,129.9 429.2,129.9 430.0,129.9 430.7,129.9 431.4,129.9 432.2,129.9 432.9,129.9 433.7,129.9 434.4,129.9 435.2,129.9 435.9,129.9 436.6,129.9 437.4,129.9 438.1,129.9 438.9,127.5 439.6,127.5 440.4,127.5 441.1,127.5 441.9,127.5 442.6,127.5 443.3,127.5 444.1,127.5 444.8,127.5 445.6,127.5 446.3,127.5 447.1,127.5 447.8,127.5 448.6,127.5 449.3,127.5 450.0,127.5 450.8,127.5 451.5,127.5 452.3,127.5 453.0,127.5 453.8,125.4 454.5,125.4 455.2,125.4 456.0,125.4 456.7,125.4 457.5,125.4 458.2,125.4 459.0,125.4 459.7,125.4 460.5,125.4 461.2,125.4 461.9,125.4 462.7,125.4 463.4,125.4 464.2,125.4 464.9,125.4 465.7,125.4 466.4,125.4 467.2,125.4 467.9,125.4 468.6,125.9 469.4,125.9 470.1,125.9 470.9,125.9 471.6,125.9 472.4,125.9 473.1,125.9 473.8,125.9 474.6,125.9 475.3,125.9 476.1,125.9 476.8,125.9 477.6,125.9 478.3,125.9 479.1,125.9 479.8,125.9 480.5,125.9 481.3,125.9 482.0,125.9 482.8,125.9 483.5,125.5 484.3,125.5 485.0,125.5 485.8,125.5 486.5,125.5 487.2,125.5 488.0,125.5 488.7,125.5 489.5,125.5 490.2,125.5 491.0,125.5 491.7,125.5 492.4,125.5 493.2,125.5 493.9,125.5 494.7,125.5 495.4,125.5 496.2,125.5 496.9,125.5 497.7,125.5 498.4,123.4 499.1,123.4 499.9,123.4 500.6,123.4 501.4,123.4 502.1,123.4 502.9,123.4 503.6,123.4 504.4,123.4 505.1,123.4 505.8,123.4 506.6,123.4 507.3,123.4 508.1,123.4 508.8,123.4 509.6,123.4 510.3,123.4 511.0,123.4 511.8,123.4 512.5,123.4 513.3,122.5 514.0,122.5 514.8,122.5 515.5,122.5 516.3,122.5 517.0,122.5 517.7,122.5 518.5,122.5 519.2,122.5 520.0,122.5 520.7,122.5 521.5,122.5 522.2,122.5 523.0,122.5 523.7,122.5 524.4,122.5 525.2,122.5 525.9,122.5 526.7,122.5 527.4,122.5 528.2,124.5 528.9,124.5 529.6,124.5 530.4,124.5 531.1,124.5 531.9,124.5 532.6,124.5 533.4,124.5 534.1,124.5 534.9,124.5 535.6,124.5 536.3,124.5 537.1,124.5 537.8,124.5 538.6,124.5 539.3,124.5 540.1,124.5 540.8,124.5 541.6,124.5 542.3,124.5 543.0,125.4 543.8,125.4 544.5,125.4 545.3,125.4 546.0,125.4 546.8,125.4 547.5,125.4 548.2,125.4 549.0,125.4 549.7,125.4 550.5,125.4 551.2,125.4 552.0,125.4 552.7,125.4 553.5,125.4 554.2,125.4 554.9,125.4 555.7,125.4 556.4,125.4 557.2,125.4 557.9,125.0 558.7,125.0 559.4,125.0 560.2,125.0 560.9,125.0 561.6,125.0 562.4,125.0 563.1,125.0 563.9,125.0 564.6,125.0 565.4,125.0 566.1,125.0 566.8,125.0 567.6,125.0 568.3,125.0 569.1,125.0 569.8,125.0 570.6,125.0 571.3,125.0 572.1,125.0 572.8,125.6 573.5,125.6 574.3,125.6 575.0,125.6 575.8,125.6 576.5,125.6 577.3,125.6 578.0,125.6 578.8,125.6 579.5,125.6 580.2,125.6 581.0,125.6 581.7,125.6 582.5,125.6 583.2,125.6 584.0,125.6 584.7,125.6 585.4,125.6 586.2,125.6 586.9,125.6 587.7,125.7 588.4,125.7 589.2,125.7 589.9,125.7 590.7,125.7 591.4,125.7 592.1,125.7 592.9,125.7 593.6,125.7 594.4,125.7 595.1,125.7 595.9,125.7 596.6,125.7 597.4,125.7 598.1,125.7 598.8,125.7 599.6,125.7 600.3,125.7 601.1,125.7 601.8,125.7 602.6,126.1 603.3,126.1 604.0,126.1 604.8,126.1 605.5,126.1 606.3,126.1 607.0,126.1 607.8,126.1 608.5,126.1 609.3,126.1 610.0,126.1 610.7,126.1 611.5,126.1 612.2,126.1 613.0,126.1 613.7,126.1 614.5,126.1 615.2,126.1 616.0,126.1 616.7,126.1 617.4,125.5 618.2,125.5 618.9,125.5 619.7,125.5 620.4,125.5 621.2,125.5 621.9,125.5 622.6,125.5 623.4,125.5 624.1,125.5 624.9,125.5 625.6,125.5 626.4,125.5 627.1,125.5 627.9,125.5 628.6,125.5 629.3,125.5 630.1,125.5 630.8,125.5 631.6,125.5 632.3,125.3 633.1,125.3 633.8,125.3 634.6,125.3 635.3,125.3 636.0,125.3 636.8,125.3 637.5,125.3 638.3,125.3 639.0,125.3 639.8,125.3 640.5,125.3 641.2,125.3 642.0,125.3 642.7,125.3 643.5,125.3 644.2,125.3 645.0,125.3 645.7,125.3 646.5,125.3 647.2,126.6 647.9,126.6 648.7,126.6 649.4,126.6 650.2,126.6 650.9,126.6 651.7,126.6 652.4,126.6 653.2,126.6 653.9,126.6 654.6,126.6 655.4,126.6 656.1,126.6 656.9,126.6 657.6,126.6 658.4,126.6 659.1,126.6 659.8,126.6 660.6,126.6 661.3,126.6 662.1,126.4 662.8,126.4 663.6,126.4 664.3,126.4 665.1,126.4 665.8,126.4 666.5,126.4 667.3,126.4 668.0,126.4 668.8,126.4 669.5,126.4 670.3,126.4 671.0,126.4 671.8,126.4 672.5,126.4 673.2,126.4 674.0,126.4 674.7,126.4 675.5,126.4 676.2,126.4 677.0,125.6 677.7,125.6 678.4,125.6 679.2,125.6 679.9,125.6 680.7,125.6 681.4,125.6 682.2,125.6 682.9,125.6 683.7,125.6 684.4,125.6 685.1,125.6 685.9,125.6 686.6,125.6 687.4,125.6 688.1,125.6 688.9,125.6 689.6,125.6 690.4,125.6 691.1,125.6 691.8,126.7 692.6,126.7 693.3,126.7 694.1,126.7 694.8,126.7 695.6,126.7 696.3,126.7 697.0,126.7 697.8,126.7 698.5,126.7 699.3,126.7 700.0,126.7 700.8,126.7 701.5,126.7 702.3,126.7 703.0,126.7 703.7,126.7 704.5,126.7 705.2,126.7 706.0,126.7 706.7,126.7 707.5,126.7 708.2,126.7 709.0,126.7 709.7,126.7 710.4,126.7 711.2,126.7 711.9,126.7 712.7,126.7 713.4,126.7 714.2,126.7 714.9,126.7 715.6,126.7 716.4,126.7 717.1,126.7 717.9,126.7 718.6,126.7 719.4,126.7 720.1,126.7 720.9,126.7 721.6,125.4 722.3,125.4 723.1,125.4 723.8,125.4 724.6,125.4 725.3,125.4 726.1,125.4 726.8,125.4 727.6,125.4 728.3,125.4 729.0,125.4 729.8,125.4 730.5,125.4 731.3,125.4 732.0,125.4 732.8,125.4 733.5,125.4 734.2,125.4 735.0,125.4 735.7,125.4 736.5,125.1 737.2,125.1 738.0,125.1 738.7,125.1 739.5,125.1 740.2,125.1 740.9,125.1 741.7,125.1 742.4,125.1 743.2,125.1 743.9,125.1 744.7,125.1 745.4,125.1 746.2,125.1 746.9,125.1 747.6,125.1 748.4,125.1 749.1,125.1 749.9,125.1 750.6,125.1 751.4,124.4 752.1,124.4 752.8,124.4 753.6,124.4 754.3,124.4 755.1,124.4 755.8,124.4 756.6,124.4 757.3,124.4 758.1,124.4 758.8,124.4 759.5,124.4 760.3,124.4 761.0,124.4 761.8,124.4 762.5,124.4 763.3,124.4 764.0,124.4 764.8,124.4 765.5,124.4 766.2,124.9 767.0,124.9 767.7,124.9 768.5,124.9 769.2,124.9 770.0,124.9 770.7,124.9 771.4,124.9 772.2,124.9 772.9,124.9 773.7,124.9 774.4,124.9 775.2,124.9 775.9,124.9 776.7,124.9 777.4,124.9 778.1,124.9 778.9,124.9 779.6,124.9 780.4,124.9 781.1,124.1 781.9,124.1 782.6,124.1 783.4,124.1 784.1,124.1 784.8,124.1 785.6,124.1 786.3,124.1 787.1,124.1 787.8,124.1 788.6,124.1 789.3,124.1 790.0,124.1 790.8,124.1 791.5,124.1 792.3,124.1 793.0,124.1 793.8,124.1 794.5,124.1 795.3,124.1 796.0,124.0"/>
<text x="640" y="56" font-family="Arial" font-size="12" fill="#0f766e">bax</text>
<polyline fill="none" stroke="#2563eb" stroke-width="2.3" points="52.0,141.8 52.7,141.8 53.5,141.8 54.2,141.8 55.0,141.8 55.7,141.8 56.5,141.8 57.2,141.8 58.0,141.8 58.7,141.8 59.4,141.8 60.2,141.8 60.9,141.8 61.7,141.8 62.4,141.8 63.2,141.8 63.9,141.8 64.6,141.8 65.4,141.8 66.1,141.8 66.9,144.3 67.6,144.3 68.4,144.3 69.1,144.3 69.9,144.3 70.6,144.3 71.3,144.3 72.1,144.3 72.8,144.3 73.6,144.3 74.3,144.3 75.1,144.3 75.8,144.3 76.6,144.3 77.3,144.3 78.0,144.3 78.8,144.3 79.5,144.3 80.3,144.3 81.0,144.3 81.8,122.5 82.5,122.5 83.2,122.5 84.0,122.5 84.7,122.5 85.5,122.5 86.2,122.5 87.0,122.5 87.7,122.5 88.5,122.5 89.2,122.5 89.9,122.5 90.7,122.4 91.4,122.4 92.2,122.4 92.9,122.4 93.7,122.4 94.4,122.4 95.2,122.4 95.9,122.4 96.6,140.3 97.4,140.3 98.1,140.3 98.9,140.3 99.6,140.3 100.4,140.3 101.1,140.3 101.8,140.3 102.6,140.3 103.3,140.3 104.1,140.3 104.8,140.3 105.6,140.3 106.3,140.3 107.1,140.3 107.8,140.3 108.5,140.2 109.3,140.2 110.0,140.2 110.8,140.2 111.5,63.8 112.3,63.8 113.0,63.8 113.8,63.8 114.5,64.0 115.2,64.0 116.0,64.0 116.7,64.0 117.5,63.9 118.2,63.9 119.0,63.9 119.7,63.9 120.4,63.9 121.2,63.9 121.9,63.9 122.7,63.9 123.4,64.0 124.2,64.0 124.9,64.0 125.7,64.0 126.4,124.7 127.1,124.7 127.9,124.7 128.6,124.7 129.4,124.8 130.1,124.8 130.9,124.8 131.6,124.8 132.4,124.8 133.1,124.8 133.8,124.8 134.6,124.8 135.3,124.9 136.1,124.9 136.8,124.9 137.6,124.9 138.3,124.8 139.0,124.8 139.8,124.8 140.5,124.8 141.3,204.0 142.0,204.0 142.8,204.0 143.5,204.0 144.3,204.1 145.0,204.1 145.7,204.1 146.5,204.1 147.2,204.1 148.0,204.1 148.7,204.1 149.5,204.1 150.2,204.0 151.0,204.0 151.7,204.0 152.4,204.0 153.2,204.1 153.9,204.1 154.7,204.1 155.4,204.1 156.2,201.6 156.9,201.6 157.6,201.6 158.4,201.6 159.1,201.6 159.9,201.6 160.6,201.6 161.4,201.6 162.1,201.6 162.9,201.6 163.6,201.6 164.3,201.6 165.1,201.6 165.8,201.6 166.6,201.6 167.3,201.6 168.1,201.7 168.8,201.7 169.6,201.7 170.3,201.7 171.0,163.2 171.8,163.2 172.5,163.2 173.3,163.2 174.0,163.2 174.8,163.2 175.5,163.2 176.2,163.2 177.0,163.2 177.7,163.2 178.5,163.2 179.2,163.2 180.0,163.2 180.7,163.2 181.5,163.2 182.2,163.2 182.9,163.2 183.7,163.2 184.4,163.2 185.2,163.2 185.9,171.6 186.7,171.6 187.4,171.6 188.2,171.6 188.9,171.6 189.6,171.6 190.4,171.6 191.1,171.6 191.9,171.5 192.6,171.5 193.4,171.5 194.1,171.5 194.8,171.5 195.6,171.5 196.3,171.5 197.1,171.5 197.8,171.5 198.6,171.5 199.3,171.5 200.1,171.5 200.8,141.1 201.5,141.1 202.3,141.1 203.0,141.1 203.8,141.1 204.5,141.1 205.3,141.1 206.0,141.1 206.8,141.1 207.5,141.1 208.2,141.1 209.0,141.1 209.7,141.2 210.5,141.2 211.2,141.2 212.0,141.2 212.7,141.2 213.4,141.2 214.2,141.2 214.9,141.2 215.7,134.3 216.4,134.3 217.2,134.3 217.9,134.3 218.7,134.3 219.4,134.3 220.1,134.3 220.9,134.3 221.6,134.3 222.4,134.3 223.1,134.3 223.9,134.3 224.6,134.3 225.4,134.3 226.1,134.3 226.8,134.3 227.6,134.3 228.3,134.3 229.1,134.3 229.8,134.3 230.6,126.5 231.3,126.5 232.0,126.5 232.8,126.5 233.5,126.5 234.3,126.5 235.0,126.5 235.8,126.5 236.5,126.5 237.3,126.5 238.0,126.5 238.7,126.5 239.5,126.5 240.2,126.5 241.0,126.5 241.7,126.5 242.5,126.5 243.2,126.5 244.0,126.5 244.7,126.5 245.4,126.7 246.2,126.7 246.9,126.7 247.7,126.7 248.4,126.7 249.2,126.7 249.9,126.7 250.6,126.7 251.4,126.7 252.1,126.7 252.9,126.7 253.6,126.7 254.4,126.7 255.1,126.7 255.9,126.7 256.6,126.7 257.3,126.7 258.1,126.7 258.8,126.7 259.6,126.7 260.3,137.5 261.1,137.5 261.8,137.5 262.6,137.5 263.3,137.5 264.0,137.5 264.8,137.5 265.5,137.5 266.3,137.5 267.0,137.5 267.8,137.5 268.5,137.5 269.2,137.5 270.0,137.5 270.7,137.5 271.5,137.5 272.2,137.5 273.0,137.5 273.7,137.5 274.5,137.5 275.2,147.6 275.9,147.6 276.7,147.6 277.4,147.6 278.2,147.6 278.9,147.6 279.7,147.6 280.4,147.6 281.2,147.6 281.9,147.6 282.6,147.6 283.4,147.6 284.1,147.6 284.9,147.6 285.6,147.6 286.4,147.6 287.1,147.6 287.8,147.6 288.6,147.6 289.3,147.6 290.1,156.6 290.8,156.6 291.6,156.6 292.3,156.6 293.1,156.6 293.8,156.6 294.5,156.6 295.3,156.6 296.0,156.6 296.8,156.6 297.5,156.6 298.3,156.6 299.0,156.6 299.8,156.6 300.5,156.6 301.2,156.6 302.0,156.6 302.7,156.6 303.5,156.6 304.2,156.6 305.0,153.5 305.7,153.5 306.4,153.5 307.2,153.5 307.9,153.6 308.7,153.6 309.4,153.6 310.2,153.6 310.9,153.6 311.7,153.6 312.4,153.6 313.1,153.6 313.9,153.6 314.6,153.6 315.4,153.6 316.1,153.6 316.9,153.6 317.6,153.6 318.4,153.6 319.1,153.6 319.8,152.5 320.6,152.5 321.3,152.5 322.1,152.5 322.8,152.5 323.6,152.5 324.3,152.5 325.0,152.5 325.8,152.5 326.5,152.5 327.3,152.5 328.0,152.5 328.8,152.6 329.5,152.6 330.3,152.6 331.0,152.6 331.7,152.5 332.5,152.5 333.2,152.5 334.0,152.5 334.7,156.9 335.5,156.9 336.2,156.9 337.0,156.9 337.7,156.9 338.4,156.9 339.2,156.9 339.9,156.9 340.7,156.9 341.4,156.9 342.2,156.9 342.9,156.9 343.6,156.9 344.4,156.9 345.1,156.9 345.9,156.9 346.6,156.9 347.4,156.9 348.1,156.9 348.9,156.9 349.6,153.1 350.3,153.1 351.1,153.1 351.8,153.1 352.6,153.1 353.3,153.1 354.1,153.1 354.8,153.1 355.6,153.1 356.3,153.1 357.0,153.1 357.8,153.1 358.5,153.1 359.3,153.1 360.0,153.1 360.8,153.1 361.5,153.1 362.2,153.1 363.0,153.1 363.7,153.1 364.5,151.9 365.2,151.9 366.0,151.9 366.7,151.9 367.5,151.9 368.2,151.9 368.9,151.9 369.7,151.9 370.4,151.9 371.2,151.9 371.9,151.9 372.7,151.9 373.4,151.9 374.2,151.9 374.9,151.9 375.6,151.9 376.4,151.9 377.1,151.9 377.9,151.9 378.6,151.9 379.4,152.7 380.1,152.7 380.8,152.7 381.6,152.7 382.3,152.7 383.1,152.7 383.8,152.7 384.6,152.7 385.3,152.7 386.1,152.7 386.8,152.7 387.5,152.7 388.3,152.7 389.0,152.7 389.8,152.7 390.5,152.7 391.3,152.7 392.0,152.7 392.8,152.7 393.5,152.7 394.2,152.7 395.0,152.7 395.7,152.7 396.5,152.7 397.2,152.7 398.0,152.7 398.7,152.7 399.4,152.7 400.2,152.7 400.9,152.7 401.7,152.7 402.4,152.7 403.2,152.7 403.9,152.7 404.7,152.7 405.4,152.7 406.1,152.7 406.9,152.7 407.6,152.7 408.4,152.7 409.1,153.9 409.9,153.9 410.6,153.9 411.4,153.9 412.1,153.9 412.8,153.9 413.6,153.9 414.3,153.9 415.1,153.9 415.8,153.9 416.6,153.9 417.3,153.9 418.0,153.9 418.8,153.9 419.5,153.9 420.3,153.9 421.0,153.9 421.8,153.9 422.5,153.9 423.3,153.9 424.0,153.5 424.7,153.5 425.5,153.5 426.2,153.5 427.0,153.5 427.7,153.5 428.5,153.5 429.2,153.5 430.0,153.5 430.7,153.5 431.4,153.5 432.2,153.5 432.9,153.5 433.7,153.5 434.4,153.5 435.2,153.5 435.9,153.5 436.6,153.5 437.4,153.5 438.1,153.5 438.9,151.4 439.6,151.4 440.4,151.4 441.1,151.4 441.9,151.4 442.6,151.4 443.3,151.4 444.1,151.4 444.8,151.4 445.6,151.4 446.3,151.4 447.1,151.4 447.8,151.4 448.6,151.4 449.3,151.4 450.0,151.4 450.8,151.4 451.5,151.4 452.3,151.4 453.0,151.4 453.8,152.6 454.5,152.6 455.2,152.6 456.0,152.6 456.7,152.6 457.5,152.6 458.2,152.6 459.0,152.6 459.7,152.6 460.5,152.6 461.2,152.6 461.9,152.6 462.7,152.6 463.4,152.6 464.2,152.6 464.9,152.6 465.7,152.6 466.4,152.6 467.2,152.6 467.9,152.6 468.6,152.6 469.4,152.6 470.1,152.6 470.9,152.6 471.6,152.6 472.4,152.6 473.1,152.6 473.8,152.6 474.6,152.6 475.3,152.6 476.1,152.6 476.8,152.6 477.6,152.6 478.3,152.6 479.1,152.6 479.8,152.6 480.5,152.6 481.3,152.6 482.0,152.6 482.8,152.6 483.5,152.4 484.3,152.4 485.0,152.4 485.8,152.4 486.5,152.4 487.2,152.4 488.0,152.4 488.7,152.4 489.5,152.4 490.2,152.4 491.0,152.4 491.7,152.4 492.4,152.4 493.2,152.4 493.9,152.4 494.7,152.4 495.4,152.4 496.2,152.4 496.9,152.4 497.7,152.4 498.4,152.9 499.1,152.9 499.9,152.9 500.6,152.9 501.4,152.9 502.1,152.9 502.9,152.9 503.6,152.9 504.4,152.9 505.1,152.9 505.8,152.9 506.6,152.9 507.3,152.9 508.1,152.9 508.8,152.9 509.6,152.9 510.3,152.9 511.0,152.9 511.8,152.9 512.5,152.9 513.3,150.4 514.0,150.4 514.8,150.4 515.5,150.4 516.3,150.4 517.0,150.4 517.7,150.4 518.5,150.4 519.2,150.4 520.0,150.4 520.7,150.4 521.5,150.4 522.2,150.4 523.0,150.4 523.7,150.4 524.4,150.4 525.2,150.4 525.9,150.4 526.7,150.4 527.4,150.4 528.2,151.3 528.9,151.3 529.6,151.3 530.4,151.3 531.1,151.3 531.9,151.3 532.6,151.3 533.4,151.3 534.1,151.3 534.9,151.3 535.6,151.3 536.3,151.3 537.1,151.3 537.8,151.3 538.6,151.3 539.3,151.3 540.1,151.3 540.8,151.3 541.6,151.3 542.3,151.3 543.0,153.1 543.8,153.1 544.5,153.1 545.3,153.1 546.0,153.1 546.8,153.1 547.5,153.1 548.2,153.1 549.0,153.1 549.7,153.1 550.5,153.1 551.2,153.1 552.0,153.1 552.7,153.1 553.5,153.1 554.2,153.1 554.9,153.1 555.7,153.1 556.4,153.1 557.2,153.1 557.9,154.7 558.7,154.7 559.4,154.7 560.2,154.7 560.9,154.7 561.6,154.7 562.4,154.7 563.1,154.7 563.9,154.7 564.6,154.7 565.4,154.7 566.1,154.7 566.8,154.7 567.6,154.7 568.3,154.7 569.1,154.7 569.8,154.7 570.6,154.7 571.3,154.7 572.1,154.7 572.8,154.1 573.5,154.1 574.3,154.1 575.0,154.1 575.8,154.1 576.5,154.1 577.3,154.1 578.0,154.1 578.8,154.1 579.5,154.1 580.2,154.1 581.0,154.1 581.7,154.1 582.5,154.1 583.2,154.1 584.0,154.1 584.7,154.1 585.4,154.1 586.2,154.1 586.9,154.1 587.7,152.9 588.4,152.9 589.2,152.9 589.9,152.9 590.7,152.9 591.4,152.9 592.1,152.9 592.9,152.9 593.6,152.9 594.4,152.9 595.1,152.9 595.9,152.9 596.6,152.9 597.4,152.9 598.1,152.9 598.8,152.9 599.6,152.9 600.3,152.9 601.1,152.9 601.8,152.9 602.6,153.4 603.3,153.4 604.0,153.4 604.8,153.4 605.5,153.4 606.3,153.4 607.0,153.4 607.8,153.4 608.5,153.4 609.3,153.4 610.0,153.4 610.7,153.4 611.5,153.4 612.2,153.4 613.0,153.4 613.7,153.4 614.5,153.4 615.2,153.4 616.0,153.4 616.7,153.4 617.4,153.6 618.2,153.6 618.9,153.6 619.7,153.6 620.4,153.6 621.2,153.6 621.9,153.6 622.6,153.6 623.4,153.6 624.1,153.6 624.9,153.6 625.6,153.6 626.4,153.6 627.1,153.6 627.9,153.6 628.6,153.6 629.3,153.6 630.1,153.6 630.8,153.6 631.6,153.6 632.3,152.8 633.1,152.8 633.8,152.8 634.6,152.8 635.3,152.8 636.0,152.8 636.8,152.8 637.5,152.8 638.3,152.8 639.0,152.8 639.8,152.8 640.5,152.8 641.2,152.8 642.0,152.8 642.7,152.8 643.5,152.8 644.2,152.8 645.0,152.8 645.7,152.8 646.5,152.8 647.2,153.5 647.9,153.5 648.7,153.5 649.4,153.5 650.2,153.5 650.9,153.5 651.7,153.5 652.4,153.5 653.2,153.5 653.9,153.5 654.6,153.5 655.4,153.5 656.1,153.5 656.9,153.5 657.6,153.5 658.4,153.5 659.1,153.5 659.8,153.5 660.6,153.5 661.3,153.5 662.1,152.7 662.8,152.7 663.6,152.7 664.3,152.7 665.1,152.7 665.8,152.7 666.5,152.7 667.3,152.7 668.0,152.7 668.8,152.7 669.5,152.7 670.3,152.7 671.0,152.7 671.8,152.7 672.5,152.7 673.2,152.7 674.0,152.7 674.7,152.7 675.5,152.7 676.2,152.7 677.0,152.4 677.7,152.4 678.4,152.4 679.2,152.4 679.9,152.4 680.7,152.4 681.4,152.4 682.2,152.4 682.9,152.4 683.7,152.4 684.4,152.4 685.1,152.4 685.9,152.4 686.6,152.4 687.4,152.4 688.1,152.4 688.9,152.4 689.6,152.4 690.4,152.4 691.1,152.4 691.8,152.1 692.6,152.1 693.3,152.1 694.1,152.1 694.8,152.1 695.6,152.1 696.3,152.1 697.0,152.1 697.8,152.1 698.5,152.1 699.3,152.1 700.0,152.1 700.8,152.1 701.5,152.1 702.3,152.1 703.0,152.1 703.7,152.1 704.5,152.1 705.2,152.1 706.0,152.1 706.7,151.3 707.5,151.3 708.2,151.3 709.0,151.3 709.7,151.3 710.4,151.3 711.2,151.3 711.9,151.3 712.7,151.3 713.4,151.3 714.2,151.3 714.9,151.3 715.6,151.3 716.4,151.3 717.1,151.3 717.9,151.3 718.6,151.3 719.4,151.3 720.1,151.3 720.9,151.3 721.6,150.2 722.3,150.2 723.1,150.2 723.8,150.2 724.6,150.2 725.3,150.2 726.1,150.2 726.8,150.2 727.6,150.2 728.3,150.2 729.0,150.2 729.8,150.2 730.5,150.2 731.3,150.2 732.0,150.2 732.8,150.2 733.5,150.2 734.2,150.2 735.0,150.2 735.7,150.2 736.5,149.8 737.2,149.8 738.0,149.8 738.7,149.8 739.5,149.8 740.2,149.8 740.9,149.8 741.7,149.8 742.4,149.8 743.2,149.8 743.9,149.8 744.7,149.8 745.4,149.8 746.2,149.8 746.9,149.8 747.6,149.8 748.4,149.8 749.1,149.8 749.9,149.8 750.6,149.8 751.4,148.3 752.1,148.3 752.8,148.3 753.6,148.3 754.3,148.3 755.1,148.3 755.8,148.3 756.6,148.3 757.3,148.3 758.1,148.3 758.8,148.3 759.5,148.3 760.3,148.3 761.0,148.3 761.8,148.3 762.5,148.3 763.3,148.3 764.0,148.3 764.8,148.3 765.5,148.3 766.2,147.8 767.0,147.8 767.7,147.8 768.5,147.8 769.2,147.8 770.0,147.8 770.7,147.8 771.4,147.8 772.2,147.8 772.9,147.8 773.7,147.8 774.4,147.8 775.2,147.8 775.9,147.8 776.7,147.8 777.4,147.8 778.1,147.8 778.9,147.8 779.6,147.8 780.4,147.8 781.1,147.0 781.9,147.0 782.6,147.0 783.4,147.0 784.1,147.0 784.8,147.0 785.6,147.0 786.3,147.0 787.1,147.0 787.8,147.0 788.6,147.0 789.3,147.0 790.0,147.0 790.8,147.0 791.5,147.0 792.3,147.0 793.0,147.0 793.8,147.0 794.5,147.0 795.3,147.0 796.0,147.5"/>
<text x="640" y="72" font-family="Arial" font-size="12" fill="#2563eb">bay</text>
<polyline fill="none" stroke="#b45309" stroke-width="2.3" points="52.0,141.8 52.7,141.8 53.5,141.8 54.2,141.8 55.0,142.1 55.7,142.1 56.5,142.1 57.2,142.1 58.0,142.8 58.7,142.8 59.4,142.8 60.2,142.8 60.9,137.6 61.7,137.6 62.4,137.6 63.2,137.6 63.9,126.8 64.6,126.8 65.4,126.8 66.1,126.8 66.9,132.5 67.6,132.5 68.4,132.5 69.1,132.5 69.9,137.4 70.6,137.4 71.3,137.4 72.1,137.4 72.8,160.3 73.6,160.3 74.3,160.3 75.1,160.3 75.8,196.6 76.6,196.6 77.3,196.6 78.0,196.6 78.8,228.1 79.5,228.1 80.3,228.1 81.0,228.1 81.8,274.0 82.5,274.0 83.2,274.0 84.0,274.0 84.7,224.1 85.5,224.1 86.2,224.1 87.0,224.1 87.7,238.1 88.5,238.1 89.2,238.1 89.9,238.1 90.7,174.6 91.4,174.6 92.2,174.6 92.9,174.6 93.7,135.9 94.4,135.9 95.2,135.9 95.9,135.9 96.6,127.2 97.4,127.2 98.1,127.2 98.9,127.2 99.6,95.7 100.4,95.7 101.1,95.7 101.8,95.7 102.6,120.2 103.3,120.2 104.1,120.2 104.8,120.2 105.6,101.1 106.3,101.1 107.1,101.1 107.8,101.1 108.5,64.1 109.3,64.1 110.0,64.1 110.8,64.1 111.5,42.0 112.3,42.0 113.0,42.0 113.8,42.0 114.5,110.6 115.2,110.6 116.0,110.6 116.7,110.6 117.5,83.7 118.2,83.7 119.0,83.7 119.7,83.7 120.4,83.1 121.2,83.1 121.9,83.1 122.7,83.1 123.4,114.3 124.2,114.3 124.9,114.3 125.7,114.3 126.4,54.9 127.1,54.9 127.9,54.9 128.6,54.9 129.4,75.5 130.1,75.5 130.9,75.5 131.6,75.5 132.4,72.8 133.1,72.8 133.8,72.8 134.6,72.8 135.3,102.7 136.1,102.7 136.8,102.7 137.6,102.7 138.3,81.0 139.0,81.0 139.8,81.0 140.5,81.0 141.3,98.1 142.0,98.1 142.8,98.1 143.5,98.1 144.3,122.8 145.0,122.8 145.7,122.8 146.5,122.8 147.2,113.8 148.0,113.8 148.7,113.8 149.5,113.8 150.2,110.8 151.0,110.8 151.7,110.8 152.4,110.8 153.2,124.1 153.9,124.1 154.7,124.1 155.4,124.1 156.2,121.4 156.9,121.4 157.6,121.4 158.4,121.4 159.1,132.7 159.9,132.7 160.6,132.7 161.4,132.7 162.1,121.0 162.9,121.0 163.6,121.0 164.3,121.0 165.1,120.9 165.8,120.9 166.6,120.9 167.3,120.9 168.1,137.8 168.8,137.8 169.6,137.8 170.3,137.8 171.0,122.9 171.8,122.9 172.5,122.9 173.3,122.9 174.0,120.8 174.8,120.8 175.5,120.8 176.2,120.8 177.0,125.4 177.7,125.4 178.5,125.4 179.2,125.4 180.0,127.7 180.7,127.7 181.5,127.7 182.2,127.7 182.9,121.2 183.7,121.2 184.4,121.2 185.2,121.2 185.9,130.3 186.7,130.3 187.4,130.3 188.2,130.3 188.9,131.7 189.6,131.7 190.4,131.7 191.1,131.7 191.9,121.1 192.6,121.1 193.4,121.1 194.1,121.1 194.8,116.6 195.6,116.6 196.3,116.6 197.1,116.6 197.8,119.8 198.6,119.8 199.3,119.8 200.1,119.8 200.8,124.7 201.5,124.7 202.3,124.7 203.0,124.7 203.8,120.4 204.5,120.4 205.3,120.4 206.0,120.4 206.8,128.1 207.5,128.1 208.2,128.1 209.0,128.1 209.7,132.1 210.5,132.1 211.2,132.1 212.0,132.1 212.7,131.1 213.4,131.1 214.2,131.1 214.9,131.1 215.7,129.6 216.4,129.6 217.2,129.6 217.9,129.6 218.7,133.5 219.4,133.5 220.1,133.5 220.9,133.5 221.6,129.9 222.4,129.9 223.1,129.9 223.9,129.9 224.6,131.2 225.4,131.2 226.1,131.2 226.8,131.2 227.6,128.3 228.3,128.3 229.1,128.3 229.8,128.3 230.6,131.9 231.3,131.9 232.0,131.9 232.8,131.9 233.5,127.4 234.3,127.4 235.0,127.4 235.8,127.4 236.5,126.8 237.3,126.8 238.0,126.8 238.7,126.8 239.5,128.1 240.2,128.1 241.0,128.1 241.7,128.1 242.5,126.6 243.2,126.6 244.0,126.6 244.7,126.6 245.4,127.8 246.2,127.8 246.9,127.8 247.7,127.8 248.4,126.2 249.2,126.2 249.9,126.2 250.6,126.2 251.4,124.6 252.1,124.6 252.9,124.6 253.6,124.6 254.4,122.8 255.1,122.8 255.9,122.8 256.6,122.8 257.3,124.6 258.1,124.6 258.8,124.6 259.6,124.6 260.3,125.2 261.1,125.2 261.8,125.2 262.6,125.2 263.3,125.6 264.0,125.6 264.8,125.6 265.5,125.6 266.3,127.2 267.0,127.2 267.8,127.2 268.5,127.2 269.2,129.3 270.0,129.3 270.7,129.3 271.5,129.3 272.2,127.1 273.0,127.1 273.7,127.1 274.5,127.1 275.2,129.9 275.9,129.9 276.7,129.9 277.4,129.9 278.2,131.3 278.9,131.3 279.7,131.3 280.4,131.3 281.2,131.7 281.9,131.7 282.6,131.7 283.4,131.7 284.1,131.1 284.9,131.1 285.6,131.1 286.4,131.1 287.1,131.5 287.8,131.5 288.6,131.5 289.3,131.5 290.1,131.4 290.8,131.4 291.6,131.4 292.3,131.4 293.1,133.6 293.8,133.6 294.5,133.6 295.3,133.6 296.0,133.5 296.8,133.5 297.5,133.5 298.3,133.5 299.0,133.4 299.8,133.4 300.5,133.4 301.2,133.4 302.0,133.1 302.7,133.1 303.5,133.1 304.2,133.1 305.0,131.5 305.7,131.5 306.4,131.5 307.2,131.5 307.9,132.6 308.7,132.6 309.4,132.6 310.2,132.6 310.9,133.2 311.7,133.2 312.4,133.2 313.1,133.2 313.9,134.1 314.6,134.1 315.4,134.1 316.1,134.1 316.9,134.6 317.6,134.6 318.4,134.6 319.1,134.6 319.8,133.3 320.6,133.3 321.3,133.3 322.1,133.3 322.8,133.2 323.6,133.2 324.3,133.2 325.0,133.2 325.8,134.6 326.5,134.6 327.3,134.6 328.0,134.6 328.8,135.2 329.5,135.2 330.3,135.2 331.0,135.2 331.7,134.5 332.5,134.5 333.2,134.5 334.0,134.5 334.7,133.8 335.5,133.8 336.2,133.8 337.0,133.8 337.7,134.1 338.4,134.1 339.2,134.1 339.9,134.1 340.7,133.8 341.4,133.8 342.2,133.8 342.9,133.8 343.6,133.4 344.4,133.4 345.1,133.4 345.9,133.4 346.6,134.5 347.4,134.5 348.1,134.5 348.9,134.5 349.6,135.0 350.3,135.0 351.1,135.0 351.8,135.0 352.6,135.3 353.3,135.3 354.1,135.3 354.8,135.3 355.6,135.8 356.3,135.8 357.0,135.8 357.8,135.8 358.5,135.5 359.3,135.5 360.0,135.5 360.8,135.5 361.5,136.2 362.2,136.2 363.0,136.2 363.7,136.2 364.5,137.3 365.2,137.3 366.0,137.3 366.7,137.3 367.5,137.1 368.2,137.1 368.9,137.1 369.7,137.1 370.4,136.2 371.2,136.2 371.9,136.2 372.7,136.2 373.4,137.0 374.2,137.0 374.9,137.0 375.6,137.0 376.4,137.7 377.1,137.7 377.9,137.7 378.6,137.7 379.4,138.2 380.1,138.2 380.8,138.2 381.6,138.2 382.3,138.2 383.1,138.2 383.8,138.2 384.6,138.2 385.3,138.5 386.1,138.5 386.8,138.5 387.5,138.5 388.3,137.7 389.0,137.7 389.8,137.7 390.5,137.7 391.3,137.5 392.0,137.5 392.8,137.5 393.5,137.5 394.2,137.7 395.0,137.7 395.7,137.7 396.5,137.7 397.2,137.3 398.0,137.3 398.7,137.3 399.4,137.3 400.2,137.1 400.9,137.1 401.7,137.1 402.4,137.1 403.2,136.9 403.9,136.9 404.7,136.9 405.4,136.9 406.1,137.8 406.9,137.8 407.6,137.8 408.4,137.8 409.1,137.8 409.9,137.8 410.6,137.8 411.4,137.8 412.1,137.1 412.8,137.1 413.6,137.1 414.3,137.1 415.1,136.0 415.8,136.0 416.6,136.0 417.3,136.0 418.0,135.5 418.8,135.5 419.5,135.5 420.3,135.5 421.0,135.8 421.8,135.8 422.5,135.8 423.3,135.8 424.0,135.8 424.7,135.8 425.5,135.8 426.2,135.8 427.0,136.1 427.7,136.1 428.5,136.1 429.2,136.1 430.0,135.3 430.7,135.3 431.4,135.3 432.2,135.3 432.9,135.4 433.7,135.4 434.4,135.4 435.2,135.4 435.9,135.0 436.6,135.0 437.4,135.0 438.1,135.0 438.9,135.0 439.6,135.0 440.4,135.0 441.1,135.0 441.9,135.4 442.6,135.4 443.3,135.4 444.1,135.4 444.8,134.8 445.6,134.8 446.3,134.8 447.1,134.8 447.8,135.3 448.6,135.3 449.3,135.3 450.0,135.3 450.8,135.2 451.5,135.2 452.3,135.2 453.0,135.2 453.8,134.3 454.5,134.3 455.2,134.3 456.0,134.3 456.7,134.7 457.5,134.7 458.2,134.7 459.0,134.7 459.7,134.8 460.5,134.8 461.2,134.8 461.9,134.8 462.7,135.1 463.4,135.1 464.2,135.1 464.9,135.1 465.7,135.3 466.4,135.3 467.2,135.3 467.9,135.3 468.6,134.4 469.4,134.4 470.1,134.4 470.9,134.4 471.6,135.0 472.4,135.0 473.1,135.0 473.8,135.0 474.6,134.8 475.3,134.8 476.1,134.8 476.8,134.8 477.6,134.1 478.3,134.1 479.1,134.1 479.8,134.1 480.5,133.5 481.3,133.5 482.0,133.5 482.8,133.5 483.5,133.3 484.3,133.3 485.0,133.3 485.8,133.3 486.5,133.3 487.2,133.3 488.0,133.3 488.7,133.3 489.5,132.8 490.2,132.8 491.0,132.8 491.7,132.8 492.4,132.8 493.2,132.8 493.9,132.8 494.7,132.8 495.4,133.1 496.2,133.1 496.9,133.1 497.7,133.1 498.4,134.1 499.1,134.1 499.9,134.1 500.6,134.1 501.4,134.1 502.1,134.1 502.9,134.1 503.6,134.1 504.4,133.7 505.1,133.7 505.8,133.7 506.6,133.7 507.3,133.1 508.1,133.1 508.8,133.1 509.6,133.1 510.3,133.5 511.0,133.5 511.8,133.5 512.5,133.5 513.3,133.2 514.0,133.2 514.8,133.2 515.5,133.2 516.3,132.9 517.0,132.9 517.7,132.9 518.5,132.9 519.2,133.4 520.0,133.4 520.7,133.4 521.5,133.4 522.2,133.3 523.0,133.3 523.7,133.3 524.4,133.3 525.2,132.9 525.9,132.9 526.7,132.9 527.4,132.9 528.2,133.2 528.9,133.2 529.6,133.2 530.4,133.2 531.1,133.1 531.9,133.1 532.6,133.1 533.4,133.1 534.1,133.4 534.9,133.4 535.6,133.4 536.3,133.4 537.1,134.2 537.8,134.2 538.6,134.2 539.3,134.2 540.1,133.9 540.8,133.9 541.6,133.9 542.3,133.9 543.0,133.5 543.8,133.5 544.5,133.5 545.3,133.5 546.0,133.8 546.8,133.8 547.5,133.8 548.2,133.8 549.0,134.0 549.7,134.0 550.5,134.0 551.2,134.0 552.0,133.3 552.7,133.3 553.5,133.3 554.2,133.3 554.9,133.6 555.7,133.6 556.4,133.6 557.2,133.6 557.9,134.0 558.7,134.0 559.4,134.0 560.2,134.0 560.9,134.3 561.6,134.3 562.4,134.3 563.1,134.3 563.9,133.7 564.6,133.7 565.4,133.7 566.1,133.7 566.8,133.4 567.6,133.4 568.3,133.4 569.1,133.4 569.8,133.5 570.6,133.5 571.3,133.5 572.1,133.5 572.8,133.4 573.5,133.4 574.3,133.4 575.0,133.4 575.8,133.9 576.5,133.9 577.3,133.9 578.0,133.9 578.8,134.3 579.5,134.3 580.2,134.3 581.0,134.3 581.7,133.8 582.5,133.8 583.2,133.8 584.0,133.8 584.7,133.7 585.4,133.7 586.2,133.7 586.9,133.7 587.7,132.5 588.4,132.5 589.2,132.5 589.9,132.5 590.7,132.6 591.4,132.6 592.1,132.6 592.9,132.6 593.6,132.3 594.4,132.3 595.1,132.3 595.9,132.3 596.6,132.2 597.4,132.2 598.1,132.2 598.8,132.2 599.6,132.4 600.3,132.4 601.1,132.4 601.8,132.4 602.6,131.7 603.3,131.7 604.0,131.7 604.8,131.7 605.5,132.3 606.3,132.3 607.0,132.3 607.8,132.3 608.5,131.4 609.3,131.4 610.0,131.4 610.7,131.4 611.5,131.7 612.2,131.7 613.0,131.7 613.7,131.7 614.5,131.8 615.2,131.8 616.0,131.8 616.7,131.8 617.4,131.8 618.2,131.8 618.9,131.8 619.7,131.8 620.4,131.8 621.2,131.8 621.9,131.8 622.6,131.8 623.4,132.3 624.1,132.3 624.9,132.3 625.6,132.3 626.4,132.2 627.1,132.2 627.9,132.2 628.6,132.2 629.3,132.0 630.1,132.0 630.8,132.0 631.6,132.0 632.3,132.1 633.1,132.1 633.8,132.1 634.6,132.1 635.3,132.1 636.0,132.1 636.8,132.1 637.5,132.1 638.3,131.8 639.0,131.8 639.8,131.8 640.5,131.8 641.2,131.9 642.0,131.9 642.7,131.9 643.5,131.9 644.2,131.6 645.0,131.6 645.7,131.6 646.5,131.6 647.2,131.8 647.9,131.8 648.7,131.8 649.4,131.8 650.2,132.1 650.9,132.1 651.7,132.1 652.4,132.1 653.2,132.3 653.9,132.3 654.6,132.3 655.4,132.3 656.1,132.6 656.9,132.6 657.6,132.6 658.4,132.6 659.1,132.4 659.8,132.4 660.6,132.4 661.3,132.4 662.1,131.8 662.8,131.8 663.6,131.8 664.3,131.8 665.1,131.7 665.8,131.7 666.5,131.7 667.3,131.7 668.0,131.4 668.8,131.4 669.5,131.4 670.3,131.4 671.0,131.6 671.8,131.6 672.5,131.6 673.2,131.6 674.0,131.6 674.7,131.6 675.5,131.6 676.2,131.6 677.0,131.7 677.7,131.7 678.4,131.7 679.2,131.7 679.9,132.5 680.7,132.5 681.4,132.5 682.2,132.5 682.9,133.0 683.7,133.0 684.4,133.0 685.1,133.0 685.9,132.6 686.6,132.6 687.4,132.6 688.1,132.6 688.9,133.0 689.6,133.0 690.4,133.0 691.1,133.0 691.8,133.5 692.6,133.5 693.3,133.5 694.1,133.5 694.8,132.9 695.6,132.9 696.3,132.9 697.0,132.9 697.8,133.1 698.5,133.1 699.3,133.1 700.0,133.1 700.8,132.6 701.5,132.6 702.3,132.6 703.0,132.6 703.7,132.0 704.5,132.0 705.2,132.0 706.0,132.0 706.7,132.4 707.5,132.4 708.2,132.4 709.0,132.4 709.7,131.7 710.4,131.7 711.2,131.7 711.9,131.7 712.7,132.2 713.4,132.2 714.2,132.2 714.9,132.2 715.6,132.1 716.4,132.1 717.1,132.1 717.9,132.1 718.6,132.1 719.4,132.1 720.1,132.1 720.9,132.1 721.6,132.7 722.3,132.7 723.1,132.7 723.8,132.7 724.6,132.9 725.3,132.9 726.1,132.9 726.8,132.9 727.6,133.3 728.3,133.3 729.0,133.3 729.8,133.3 730.5,132.9 731.3,132.9 732.0,132.9 732.8,132.9 733.5,132.3 734.2,132.3 735.0,132.3 735.7,132.3 736.5,132.3 737.2,132.3 738.0,132.3 738.7,132.3 739.5,132.0 740.2,132.0 740.9,132.0 741.7,132.0 742.4,132.4 743.2,132.4 743.9,132.4 744.7,132.4 745.4,132.1 746.2,132.1 746.9,132.1 747.6,132.1 748.4,132.0 749.1,132.0 749.9,132.0 750.6,132.0 751.4,132.6 752.1,132.6 752.8,132.6 753.6,132.6 754.3,133.4 755.1,133.4 755.8,133.4 756.6,133.4 757.3,133.3 758.1,133.3 758.8,133.3 759.5,133.3 760.3,134.3 761.0,134.3 761.8,134.3 762.5,134.3 763.3,134.6 764.0,134.6 764.8,134.6 765.5,134.6 766.2,135.0 767.0,135.0 767.7,135.0 768.5,135.0 769.2,135.0 770.0,135.0 770.7,135.0 771.4,135.0 772.2,135.4 772.9,135.4 773.7,135.4 774.4,135.4 775.2,135.3 775.9,135.3 776.7,135.3 777.4,135.3 778.1,134.9 778.9,134.9 779.6,134.9 780.4,134.9 781.1,135.3 781.9,135.3 782.6,135.3 783.4,135.3 784.1,135.1 784.8,135.1 785.6,135.1 786.3,135.1 787.1,135.6 787.8,135.6 788.6,135.6 789.3,135.6 790.0,135.5 790.8,135.5 791.5,135.5 792.3,135.5 793.0,135.1 793.8,135.1 794.5,135.1 795.3,135.1 796.0,134.9"/>
<text x="640" y="88" font-family="Arial" font-size="12" fill="#b45309">baz</text>
</svg>