<svg xmlns="http://www.w3.org/2000/svg" width="820" height="320" viewBox="0 0 820 320">
<rect width="100%" height="100%" fill="white"/>
<text x="52" y="30" font-family="Arial" font-size="18" font-weight="700">ekf_nominal accelerometer bias estimates</text>
<line x1="52" y1="274" x2="796" y2="274" stroke="#263238"/>
<line x1="52" y1="42" x2="52" y2="274" stroke="#263238"/>
<text x="52" y="306" font-family="Arial" font-size="12">time (s)</text>
<text x="630" y="306" font-family="Arial" font-size="12">m/s^2</text>

<polyline fill="none" stroke="#0f766e" stroke-width="2.3" points="52.0,142.9 52.7,142.9 53.5,142.9 54.2,142.9 55.0,142.9 55.7,142.9 56.5,142.9 57.2,142.9 58.0,142.9 58.7,142.9 59.4,142.9 60.2,142.9 60.9,142.9 61.7,142.9 62.4,142.9 63.2,142.9 63.9,142.9 64.6,142.9 65.4,142.9 66.1,142.9 66.9,139.8 67.6,139.8 68.4,139.8 69.1,139.8 69.9,139.8 70.6,139.8 71.3,139.8 72.1,139.8 72.8,139.8 73.6,139.8 74.3,139.8 75.1,139.8 75.8,139.8 76.6,139.8 77.3,139.8 78.0,139.8 78.8,139.8 79.5,139.8 80.3,139.8 81.0,139.8 81.8,159.6 82.5,159.6 83.2,159.6 84.0,159.6 84.7,159.7 85.5,159.7 86.2,159.7 87.0,159.7 87.7,159.7 88.5,159.7 89.2,159.7 89.9,159.7 90.7,159.8 91.4,159.8 92.2,159.8 92.9,159.8 93.7,159.8 94.4,159.8 95.2,159.8 95.9,159.8 96.6,176.6 97.4,176.6 98.1,176.6 98.9,176.6 99.6,176.7 100.4,176.7 101.1,176.7 101.8,176.7 102.6,176.6 103.3,176.6 104.1,176.6 104.8,176.6 105.6,176.6 106.3,176.6 107.1,176.6 107.8,176.6 108.5,176.7 109.3,176.7 110.0,176.7 110.8,176.7 111.5,185.3 112.3,185.3 113.0,185.3 113.8,185.3 114.5,184.9 115.2,184.9 116.0,184.9 116.7,184.9 117.5,185.0 118.2,185.0 119.0,185.0 119.7,185.0 120.4,185.1 121.2,185.1 121.9,185.1 122.7,185.1 123.4,184.8 124.2,184.8 124.9,184.8 125.7,184.8 126.4,171.2 127.1,171.2 127.9,171.2 128.6,171.2 129.4,171.0 130.1,171.0 130.9,171.0 131.6,171.0 132.4,171.0 133.1,171.0 133.8,171.0 134.6,171.0 135.3,170.7 136.1,170.7 136.8,170.7 137.6,170.7 138.3,170.9 139.0,170.9 139.8,170.9 140.5,170.9 141.3,224.1 142.0,224.1 142.8,224.1 143.5,224.1 144.3,223.8 145.0,223.8 145.7,223.8 146.5,223.8 147.2,223.9 148.0,223.9 148.7,223.9 149.5,223.9 150.2,223.9 151.0,223.9 151.7,223.9 152.4,223.9 153.2,223.8 153.9,223.8 154.7,223.8 155.4,223.8 156.2,145.5 156.9,145.5 157.6,145.5 158.4,145.5 159.1,145.3 159.9,145.3 160.6,145.3 161.4,145.3 162.1,145.5 162.9,145.5 163.6,145.5 164.3,145.5 165.1,145.5 165.8,145.5 166.6,145.5 167.3,145.5 168.1,145.2 168.8,145.2 169.6,145.2 170.3,145.2 171.0,150.1 171.8,150.1 172.5,150.1 173.3,150.1 174.0,150.1 174.8,150.1 175.5,150.1 176.2,150.1 177.0,150.1 177.7,150.1 178.5,150.1 179.2,150.1 180.0,150.1 180.7,150.1 181.5,150.1 182.2,150.1 182.9,150.1 183.7,150.1 184.4,150.1 185.2,150.1 185.9,122.4 186.7,122.4 187.4,122.4 188.2,122.4 188.9,122.3 189.6,122.3 190.4,122.3 191.1,122.3 191.9,122.5 192.6,122.5 193.4,122.5 194.1,122.5 194.8,122.5 195.6,122.5 196.3,122.5 197.1,122.5 197.8,122.5 198.6,122.5 199.3,122.5 200.1,122.5 200.8,100.2 201.5,100.2 202.3,100.2 203.0,100.2 203.8,100.3 204.5,100.3 205.3,100.3 206.0,100.3 206.8,100.2 207.5,100.2 208.2,100.2 209.0,100.2 209.7,100.2 210.5,100.2 211.2,100.2 212.0,100.2 212.7,100.2 213.4,100.2 214.2,100.2 214.9,100.2 215.7,102.3 216.4,102.3 217.2,102.3 217.9,102.3 218.7,102.3 219.4,102.3 220.1,102.3 220.9,102.3 221.6,102.3 222.4,102.3 223.1,102.3 223.9,102.3 224.6,102.3 225.4,102.3 226.1,102.3 226.8,102.3 227.6,102.3 228.3,102.3 229.1,102.3 229.8,102.3 230.6,104.6 231.3,104.6 232.0,104.6 232.8,104.6 233.5,104.6 234.3,104.6 235.0,104.6 235.8,104.6 236.5,104.7 237.3,104.7 238.0,104.7 238.7,104.7 239.5,104.6 240.2,104.6 241.0,104.6 241.7,104.6 242.5,104.7 243.2,104.7 244.0,104.7 244.7,104.7 245.4,116.8 246.2,116.8 246.9,116.8 247.7,116.8 248.4,116.8 249.2,116.8 249.9,116.8 250.6,116.8 251.4,116.8 252.1,116.8 252.9,116.8 253.6,116.8 254.4,116.8 255.1,116.8 255.9,116.8 256.6,116.8 257.3,116.8 258.1,116.8 258.8,116.8 259.6,116.8 260.3,114.7 261.1,114.7 261.8,114.7 262.6,114.7 263.3,114.7 264.0,114.7 264.8,114.7 265.5,114.7 266.3,114.7 267.0,114.7 267.8,114.7 268.5,114.7 269.2,114.7 270.0,114.7 270.7,114.7 271.5,114.7 272.2,114.7 273.0,114.7 273.7,114.7 274.5,114.7 275.2,117.7 275.9,117.7 276.7,117.7 277.4,117.7 278.2,117.7 278.9,117.7 279.7,117.7 280.4,117.7 281.2,117.7 281.9,117.7 282.6,117.7 283.4,117.7 284.1,117.7 284.9,117.7 285.6,117.7 286.4,117.7 287.1,117.7 287.8,117.7 288.6,117.7 289.3,117.7 290.1,121.6 290.8,121.6 291.6,121.6 292.3,121.6 293.1,121.6 293.8,121.6 294.5,121.6 295.3,121.6 296.0,121.6 296.8,121.6 297.5,121.6 298.3,121.6 299.0,121.6 299.8,121.6 300.5,121.6 301.2,121.6 302.0,121.6 302.7,121.6 303.5,121.6 304.2,121.6 305.0,115.0 305.7,115.0 306.4,115.0 307.2,115.0 307.9,115.0 308.7,115.0 309.4,115.0 310.2,115.0 310.9,115.0 311.7,115.0 312.4,115.0 313.1,115.0 313.9,115.0 314.6,115.0 315.4,115.0 316.1,115.0 316.9,115.0 317.6,115.0 318.4,115.0 319.1,115.0 319.8,119.7 320.6,119.7 321.3,119.7 322.1,119.7 322.8,119.7 323.6,119.7 324.3,119.7 325.0,119.7 325.8,119.7 326.5,119.7 327.3,119.7 328.0,119.7 328.8,119.6 329.5,119.6 330.3,119.6 331.0,119.6 331.7,119.7 332.5,119.7 333.2,119.7 334.0,119.7 334.7,121.3 335.5,121.3 336.2,121.3 337.0,121.3 337.7,121.3 338.4,121.3 339.2,121.3 339.9,121.3 340.7,121.3 341.4,121.3 342.2,121.3 342.9,121.3 343.6,121.3 344.4,121.3 345.1,121.3 345.9,121.3 346.6,121.3 347.4,121.3 348.1,121.3 348.9,121.3 349.6,123.6 350.3,123.6 351.1,123.6 351.8,123.6 352.6,123.6 353.3,123.6 354.1,123.6 354.8,123.6 355.6,123.5 356.3,123.5 357.0,123.5 357.8,123.5 358.5,123.5 359.3,123.5 360.0,123.5 360.8,123.5 361.5,123.5 362.2,123.5 363.0,123.5 363.7,123.5 364.5,126.2 365.2,126.2 366.0,126.2 366.7,126.2 367.5,126.2 368.2,126.2 368.9,126.2 369.7,126.2 370.4,126.2 371.2,126.2 371.9,126.2 372.7,126.2 373.4,126.2 374.2,126.2 374.9,126.2 375.6,126.2 376.4,126.2 377.1,126.2 377.9,126.2 378.6,126.2 379.4,130.3 380.1,130.3 380.8,130.3 381.6,130.3 382.3,130.3 383.1,130.3 383.8,130.3 384.6,130.3 385.3,130.3 386.1,130.3 386.8,130.3 387.5,130.3 388.3,130.4 389.0,130.4 389.8,130.4 390.5,130.4 391.3,130.4 392.0,130.4 392.8,130.4 393.5,130.4 394.2,130.1 395.0,130.1 395.7,130.1 396.5,130.1 397.2,130.1 398.0,130.1 398.7,130.1 399.4,130.1 400.2,130.1 400.9,130.1 401.7,130.1 402.4,130.1 403.2,130.1 403.9,130.1 404.7,130.1 405.4,130.1 406.1,130.1 406.9,130.1 407.6,130.1 408.4,130.1 409.1,129.7 409.9,129.7 410.6,129.7 411.4,129.7 412.1,129.7 412.8,129.7 413.6,129.7 414.3,129.7 415.1,129.7 415.8,129.7 416.6,129.7 417.3,129.7 418.0,129.7 418.8,129.7 419.5,129.7 420.3,129.7 421.0,129.7 421.8,129.7 422.5,129.7 423.3,129.7 424.0,131.5 424.7,131.5 425.5,131.5 426.2,131.5 427.0,131.5 427.7,131.5 428.5,131.5 429.2,131.5 430.0,131.5 430.7,131.5 431.4,131.5 432.2,131.5 432.9,131.5 433.7,131.5 434.4,131.5 435.2,131.5 435.9,131.5 436.6,131.5 437.4,131.5 438.1,131.5 438.9,129.1 439.6,129.1 440.4,129.1 441.1,129.1 441.9,129.1 442.6,129.1 443.3,129.1 444.1,129.1 444.8,129.1 445.6,129.1 446.3,129.1 447.1,129.1 447.8,129.1 448.6,129.1 449.3,129.1 450.0,129.1 450.8,129.1 451.5,129.1 452.3,129.1 453.0,129.1 453.8,127.1 454.5,127.1 455.2,127.1 456.0,127.1 456.7,127.1 457.5,127.1 458.2,127.1 459.0,127.1 459.7,127.1 460.5,127.1 461.2,127.1 461.9,127.1 462.7,127.1 463.4,127.1 464.2,127.1 464.9,127.1 465.7,127.1 466.4,127.1 467.2,127.1 467.9,127.1 468.6,127.6 469.4,127.6 470.1,127.6 470.9,127.6 471.6,127.6 472.4,127.6 473.1,127.6 473.8,127.6 474.6,127.6 475.3,127.6 476.1,127.6 476.8,127.6 477.6,127.6 478.3,127.6 479.1,127.6 479.8,127.6 480.5,127.6 481.3,127.6 482.0,127.6 482.8,127.6 483.5,127.1 484.3,127.1 485.0,127.1 485.8,127.1 486.5,127.1 487.2,127.1 488.0,127.1 488.7,127.1 489.5,127.1 490.2,127.1 491.0,127.1 491.7,127.1 492.4,127.1 493.2,127.1 493.9,127.1 494.7,127.1 495.4,127.1 496.2,127.1 496.9,127.1 497.7,127.1 498.4,125.0 499.1,125.0 499.9,125.0 500.6,125.0 501.4,125.0 502.1,125.0 502.9,125.0 503.6,125.0 504.4,125.0 505.1,125.0 505.8,125.0 506.6,125.0 507.3,125.0 508.1,125.0 508.8,125.0 509.6,125.0 510.3,125.0 511.0,125.0 511.8,125.0 512.5,125.0 513.3,124.1 514.0,124.1 514.8,124.1 515.5,124.1 516.3,124.1 517.0,124.1 517.7,124.1 518.5,124.1 519.2,124.1 520.0,124.1 520.7,124.1 521.5,124.1 522.2,124.1 523.0,124.1 523.7,124.1 524.4,124.1 525.2,124.1 525.9,124.1 526.7,124.1 527.4,124.1 528.2,126.0 528.9,126.0 529.6,126.0 530.4,126.0 531.1,126.0 531.9,126.0 532.6,126.0 533.4,126.0 534.1,126.0 534.9,126.0 535.6,126.0 536.3,126.0 537.1,126.0 537.8,126.0 538.6,126.0 539.3,126.0 540.1,126.0 540.8,126.0 541.6,126.0 542.3,126.0 543.0,127.0 543.8,127.0 544.5,127.0 545.3,127.0 546.0,127.0 546.8,127.0 547.5,127.0 548.2,127.0 549.0,127.0 549.7,127.0 550.5,127.0 551.2,127.0 552.0,127.0 552.7,127.0 553.5,127.0 554.2,127.0 554.9,127.0 555.7,127.0 556.4,127.0 557.2,127.0 557.9,126.5 558.7,126.5 559.4,126.5 560.2,126.5 560.9,126.5 561.6,126.5 562.4,126.5 563.1,126.5 563.9,126.5 564.6,126.5 565.4,126.5 566.1,126.5 566.8,126.5 567.6,126.5 568.3,126.5 569.1,126.5 569.8,126.5 570.6,126.5 571.3,126.5 572.1,126.5 572.8,127.2 573.5,127.2 574.3,127.2 575.0,127.2 575.8,127.2 576.5,127.2 577.3,127.2 578.0,127.2 578.8,127.2 579.5,127.2 580.2,127.2 581.0,127.2 581.7,127.2 582.5,127.2 583.2,127.2 584.0,127.2 584.7,127.2 585.4,127.2 586.2,127.2 586.9,127.2 587.7,127.2 588.4,127.2 589.2,127.2 589.9,127.2 590.7,127.2 591.4,127.2 592.1,127.2 592.9,127.2 593.6,127.2 594.4,127.2 595.1,127.2 595.9,127.2 596.6,127.2 597.4,127.2 598.1,127.2 598.8,127.2 599.6,127.2 600.3,127.2 601.1,127.2 601.8,127.2 602.6,127.6 603.3,127.6 604.0,127.6 604.8,127.6 605.5,127.6 606.3,127.6 607.0,127.6 607.8,127.6 608.5,127.6 609.3,127.6 610.0,127.6 610.7,127.6 611.5,127.6 612.2,127.6 613.0,127.6 613.7,127.6 614.5,127.6 615.2,127.6 616.0,127.6 616.7,127.6 617.4,127.0 618.2,127.0 618.9,127.0 619.7,127.0 620.4,127.0 621.2,127.0 621.9,127.0 622.6,127.0 623.4,127.0 624.1,127.0 624.9,127.0 625.6,127.0 626.4,127.0 627.1,127.0 627.9,127.0 628.6,127.0 629.3,127.0 630.1,127.0 630.8,127.0 631.6,127.0 632.3,126.8 633.1,126.8 633.8,126.8 634.6,126.8 635.3,126.8 636.0,126.8 636.8,126.8 637.5,126.8 638.3,126.8 639.0,126.8 639.8,126.8 640.5,126.8 641.2,126.8 642.0,126.8 642.7,126.8 643.5,126.8 644.2,126.8 645.0,126.8 645.7,126.8 646.5,126.8 647.2,128.0 647.9,128.0 648.7,128.0 649.4,128.0 650.2,128.0 650.9,128.0 651.7,128.0 652.4,128.0 653.2,128.0 653.9,128.0 654.6,128.0 655.4,128.0 656.1,128.0 656.9,128.0 657.6,128.0 658.4,128.0 659.1,128.0 659.8,128.0 660.6,128.0 661.3,128.0 662.1,127.8 662.8,127.8 663.6,127.8 664.3,127.8 665.1,127.8 665.8,127.8 666.5,127.8 667.3,127.8 668.0,127.8 668.8,127.8 669.5,127.8 670.3,127.8 671.0,127.8 671.8,127.8 672.5,127.8 673.2,127.8 674.0,127.8 674.7,127.8 675.5,127.8 676.2,127.8 677.0,127.1 677.7,127.1 678.4,127.1 679.2,127.1 679.9,127.1 680.7,127.1 681.4,127.1 682.2,127.1 682.9,127.1 683.7,127.1 684.4,127.1 685.1,127.1 685.9,127.1 686.6,127.1 687.4,127.1 688.1,127.1 688.9,127.1 689.6,127.1 690.4,127.1 691.1,127.1 691.8,128.2 692.6,128.2 693.3,128.2 694.1,128.2 694.8,128.2 695.6,128.2 696.3,128.2 697.0,128.2 697.8,128.2 698.5,128.2 699.3,128.2 700.0,128.2 700.8,128.2 701.5,128.2 702.3,128.2 703.0,128.2 703.7,128.2 704.5,128.2 705.2,128.2 706.0,128.2 706.7,128.2 707.5,128.2 708.2,128.2 709.0,128.2 709.7,128.2 710.4,128.2 711.2,128.2 711.9,128.2 712.7,128.2 713.4,128.2 714.2,128.2 714.9,128.2 715.6,128.2 716.4,128.2 717.1,128.2 717.9,128.2 718.6,128.2 719.4,128.2 720.1,128.2 720.9,128.2 721.6,126.9 722.3,126.9 723.1,126.9 723.8,126.9 724.6,126.9 725.3,126.9 726.1,126.9 726.8,126.9 727.6,126.9 728.3,126.9 729.0,126.9 729.8,126.9 730.5,126.9 731.3,126.9 732.0,126.9 732.8,126.9 733.5,126.9 734.2,126.9 735.0,126.9 735.7,126.9 736.5,126.5 737.2,126.5 738.0,126.5 738.7,126.5 739.5,126.5 740.2,126.5 740.9,126.5 741.7,126.5 742.4,126.5 743.2,126.5 743.9,126.5 744.7,126.5 745.4,126.5 746.2,126.5 746.9,126.5 747.6,126.5 748.4,126.5 749.1,126.5 749.9,126.5 750.6,126.5 751.4,125.9 752.1,125.9 752.8,125.9 753.6,125.9 754.3,125.9 755.1,125.9 755.8,125.9 756.6,125.9 757.3,125.9 758.1,125.9 758.8,125.9 759.5,125.9 760.3,125.8 761.0,125.8 761.8,125.8 762.5,125.8 763.3,125.8 764.0,125.8 764.8,125.8 765.5,125.8 766.2,126.3 767.0,126.3 767.7,126.3 768.5,126.3 769.2,126.3 770.0,126.3 770.7,126.3 771.4,126.3 772.2,126.3 772.9,126.3 773.7,126.3 774.4,126.3 775.2,126.3 775.9,126.3 776.7,126.3 777.4,126.3 778.1,126.3 778.9,126.3 779.6,126.3 780.4,126.3 781.1,125.5 781.9,125.5 782.6,125.5 783.4,125.5 784.1,125.6 784.8,125.6 785.6,125.6 786.3,125.6 787.1,125.5 787.8,125.5 788.6,125.5 789.3,125.5 790.0,125.5 790.8,125.5 791.5,125.5 792.3,125.5 793.0,125.5 793.8,125.5 794.5,125.5 795.3,125.5 796.0,125.4"/>
<text x="640" y="56" font-family="Arial" font-size="12" fill="#0f766e">bax</text>
<polyline fill="none" stroke="#2563eb" stroke-width="2.3" points="52.0,142.9 52.7,142.9 53.5,142.9 54.2,142.9 55.0,142.9 55.7,142.9 56.5,142.9 57.2,142.9 58.0,142.9 58.7,142.9 59.4,142.9 60.2,142.9 60.9,142.9 61.7,142.9 62.4,142.9 63.2,142.9 63.9,142.9 64.6,142.9 65.4,142.9 66.1,142.9 66.9,146.3 67.6,146.3 68.4,146.3 69.1,146.3 69.9,146.3 70.6,146.3 71.3,146.3 72.1,146.3 72.8,146.3 73.6,146.3 74.3,146.3 75.1,146.3 75.8,146.3 76.6,146.3 77.3,146.3 78.0,146.3 78.8,146.3 79.5,146.3 80.3,146.3 81.0,146.3 81.8,119.9 82.5,119.9 83.2,119.9 84.0,119.9 84.7,119.9 85.5,119.9 86.2,119.9 87.0,119.9 87.7,119.9 88.5,119.9 89.2,119.9 89.9,119.9 90.7,119.9 91.4,119.9 92.2,119.9 92.9,119.9 93.7,119.9 94.4,119.9 95.2,119.9 95.9,119.9 96.6,127.4 97.4,127.4 98.1,127.4 98.9,127.4 99.6,127.4 100.4,127.4 101.1,127.4 101.8,127.4 102.6,127.4 103.3,127.4 104.1,127.4 104.8,127.4 105.6,127.4 106.3,127.4 107.1,127.4 107.8,127.4 108.5,127.3 109.3,127.3 110.0,127.3 110.8,127.3 111.5,42.0 112.3,42.0 113.0,42.0 113.8,42.0 114.5,42.2 115.2,42.2 116.0,42.2 116.7,42.2 117.5,42.1 118.2,42.1 119.0,42.1 119.7,42.1 120.4,42.1 121.2,42.1 121.9,42.1 122.7,42.1 123.4,42.2 124.2,42.2 124.9,42.2 125.7,42.2 126.4,101.0 127.1,101.0 127.9,101.0 128.6,101.0 129.4,101.1 130.1,101.1 130.9,101.1 131.6,101.1 132.4,101.1 133.1,101.1 133.8,101.1 134.6,101.1 135.3,101.2 136.1,101.2 136.8,101.2 137.6,101.2 138.3,101.1 139.0,101.1 139.8,101.1 140.5,101.1 141.3,183.3 142.0,183.3 142.8,183.3 143.5,183.3 144.3,183.5 145.0,183.5 145.7,183.5 146.5,183.5 147.2,183.4 148.0,183.4 148.7,183.4 149.5,183.4 150.2,183.4 151.0,183.4 151.7,183.4 152.4,183.4 153.2,183.5 153.9,183.5 154.7,183.5 155.4,183.5 156.2,184.1 156.9,184.1 157.6,184.1 158.4,184.1 159.1,184.2 159.9,184.2 160.6,184.2 161.4,184.2 162.1,184.1 162.9,184.1 163.6,184.1 164.3,184.1 165.1,184.1 165.8,184.1 166.6,184.1 167.3,184.1 168.1,184.2 168.8,184.2 169.6,184.2 170.3,184.2 171.0,151.8 171.8,151.8 172.5,151.8 173.3,151.8 174.0,151.8 174.8,151.8 175.5,151.8 176.2,151.8 177.0,151.8 177.7,151.8 178.5,151.8 179.2,151.8 180.0,151.8 180.7,151.8 181.5,151.8 182.2,151.8 182.9,151.8 183.7,151.8 184.4,151.8 185.2,151.8 185.9,161.7 186.7,161.7 187.4,161.7 188.2,161.7 188.9,161.7 189.6,161.7 190.4,161.7 191.1,161.7 191.9,161.7 192.6,161.7 193.4,161.7 194.1,161.7 194.8,161.6 195.6,161.6 196.3,161.6 197.1,161.6 197.8,161.6 198.6,161.6 199.3,161.6 200.1,161.6 200.8,134.5 201.5,134.5 202.3,134.5 203.0,134.5 203.8,134.5 204.5,134.5 205.3,134.5 206.0,134.5 206.8,134.6 207.5,134.6 208.2,134.6 209.0,134.6 209.7,134.6 210.5,134.6 211.2,134.6 212.0,134.6 212.7,134.6 213.4,134.6 214.2,134.6 214.9,134.6 215.7,129.7 216.4,129.7 217.2,129.7 217.9,129.7 218.7,129.7 219.4,129.7 220.1,129.7 220.9,129.7 221.6,129.7 222.4,129.7 223.1,129.7 223.9,129.7 224.6,129.7 225.4,129.7 226.1,129.7 226.8,129.7 227.6,129.7 228.3,129.7 229.1,129.7 229.8,129.7 230.6,123.6 231.3,123.6 232.0,123.6 232.8,123.6 233.5,123.5 234.3,123.5 235.0,123.5 235.8,123.5 236.5,123.5 237.3,123.5 238.0,123.5 238.7,123.5 239.5,123.5 240.2,123.5 241.0,123.5 241.7,123.5 242.5,123.5 243.2,123.5 244.0,123.5 244.7,123.5 245.4,124.9 246.2,124.9 246.9,124.9 247.7,124.9 248.4,124.8 249.2,124.8 249.9,124.8 250.6,124.8 251.4,124.8 252.1,124.8 252.9,124.8 253.6,124.8 254.4,124.8 255.1,124.8 255.9,124.8 256.6,124.8 257.3,124.8 258.1,124.8 258.8,124.8 259.6,124.8 260.3,135.5 261.1,135.5 261.8,135.5 262.6,135.5 263.3,135.5 264.0,135.5 264.8,135.5 265.5,135.5 266.3,135.5 267.0,135.5 267.8,135.5 268.5,135.5 269.2,135.5 270.0,135.5 270.7,135.5 271.5,135.5 272.2,135.5 273.0,135.5 273.7,135.5 274.5,135.5 275.2,145.6 275.9,145.6 276.7,145.6 277.4,145.6 278.2,145.6 278.9,145.6 279.7,145.6 280.4,145.6 281.2,145.6 281.9,145.6 282.6,145.6 283.4,145.6 284.1,145.6 284.9,145.6 285.6,145.6 286.4,145.6 287.1,145.6 287.8,145.6 288.6,145.6 289.3,145.6 290.1,154.6 290.8,154.6 291.6,154.6 292.3,154.6 293.1,154.6 293.8,154.6 294.5,154.6 295.3,154.6 296.0,154.6 296.8,154.6 297.5,154.6 298.3,154.6 299.0,154.6 299.8,154.6 300.5,154.6 301.2,154.6 302.0,154.6 302.7,154.6 303.5,154.6 304.2,154.6 305.0,152.0 305.7,152.0 306.4,152.0 307.2,152.0 307.9,152.0 308.7,152.0 309.4,152.0 310.2,152.0 310.9,152.0 311.7,152.0 312.4,152.0 313.1,152.0 313.9,152.0 314.6,152.0 315.4,152.0 316.1,152.0 316.9,152.0 317.6,152.0 318.4,152.0 319.1,152.0 319.8,151.5 320.6,151.5 321.3,151.5 322.1,151.5 322.8,151.5 323.6,151.5 324.3,151.5 325.0,151.5 325.8,151.5 326.5,151.5 327.3,151.5 328.0,151.5 328.8,151.5 329.5,151.5 330.3,151.5 331.0,151.5 331.7,151.5 332.5,151.5 333.2,151.5 334.0,151.5 334.7,155.8 335.5,155.8 336.2,155.8 337.0,155.8 337.7,155.9 338.4,155.9 339.2,155.9 339.9,155.9 340.7,155.8 341.4,155.8 342.2,155.8 342.9,155.8 343.6,155.8 344.4,155.8 345.1,155.8 345.9,155.8 346.6,155.9 347.4,155.9 348.1,155.9 348.9,155.9 349.6,152.5 350.3,152.5 351.1,152.5 351.8,152.5 352.6,152.5 353.3,152.5 354.1,152.5 354.8,152.5 355.6,152.5 356.3,152.5 357.0,152.5 357.8,152.5 358.5,152.5 359.3,152.5 360.0,152.5 360.8,152.5 361.5,152.5 362.2,152.5 363.0,152.5 363.7,152.5 364.5,151.6 365.2,151.6 366.0,151.6 366.7,151.6 367.5,151.6 368.2,151.6 368.9,151.6 369.7,151.6 370.4,151.6 371.2,151.6 371.9,151.6 372.7,151.6 373.4,151.6 374.2,151.6 374.9,151.6 375.6,151.6 376.4,151.6 377.1,151.6 377.9,151.6 378.6,151.6 379.4,152.5 380.1,152.5 380.8,152.5 381.6,152.5 382.3,152.5 383.1,152.5 383.8,152.5 384.6,152.5 385.3,152.5 386.1,152.5 386.8,152.5 387.5,152.5 388.3,152.5 389.0,152.5 389.8,152.5 390.5,152.5 391.3,152.5 392.0,152.5 392.8,152.5 393.5,152.5 394.2,152.7 395.0,152.7 395.7,152.7 396.5,152.7 397.2,152.7 398.0,152.7 398.7,152.7 399.4,152.7 400.2,152.7 400.9,152.7 401.7,152.7 402.4,152.7 403.2,152.7 403.9,152.7 404.7,152.7 405.4,152.7 406.1,152.7 406.9,152.7 407.6,152.7 408.4,152.7 409.1,153.9 409.9,153.9 410.6,153.9 411.4,153.9 412.1,153.9 412.8,153.9 413.6,153.9 414.3,153.9 415.1,153.9 415.8,153.9 416.6,153.9 417.3,153.9 418.0,153.9 418.8,153.9 419.5,153.9 420.3,153.9 421.0,153.9 421.8,153.9 422.5,153.9 423.3,153.9 424.0,153.6 424.7,153.6 425.5,153.6 426.2,153.6 427.0,153.6 427.7,153.6 428.5,153.6 429.2,153.6 430.0,153.6 430.7,153.6 431.4,153.6 432.2,153.6 432.9,153.6 433.7,153.6 434.4,153.6 435.2,153.6 435.9,153.6 436.6,153.6 437.4,153.6 438.1,153.6 438.9,151.6 439.6,151.6 440.4,151.6 441.1,151.6 441.9,151.6 442.6,151.6 443.3,151.6 444.1,151.6 444.8,151.6 445.6,151.6 446.3,151.6 447.1,151.6 447.8,151.6 448.6,151.6 449.3,151.6 450.0,151.6 450.8,151.6 451.5,151.6 452.3,151.6 453.0,151.6 453.8,152.9 454.5,152.9 455.2,152.9 456.0,152.9 456.7,152.9 457.5,152.9 458.2,152.9 459.0,152.9 459.7,152.9 460.5,152.9 461.2,152.9 461.9,152.9 462.7,152.9 463.4,152.9 464.2,152.9 464.9,152.9 465.7,152.9 466.4,152.9 467.2,152.9 467.9,152.9 468.6,152.9 469.4,152.9 470.1,152.9 470.9,152.9 471.6,152.9 472.4,152.9 473.1,152.9 473.8,152.9 474.6,152.9 475.3,152.9 476.1,152.9 476.8,152.9 477.6,152.9 478.3,152.9 479.1,152.9 479.8,152.9 480.5,152.9 481.3,152.9 482.0,152.9 482.8,152.9 483.5,152.7 484.3,152.7 485.0,152.7 485.8,152.7 486.5,152.7 487.2,152.7 488.0,152.7 488.7,152.7 489.5,152.7 490.2,152.7 491.0,152.7 491.7,152.7 492.4,152.7 493.2,152.7 493.9,152.7 494.7,152.7 495.4,152.7 496.2,152.7 496.9,152.7 497.7,152.7 498.4,153.3 499.1,153.3 499.9,153.3 500.6,153.3 501.4,153.3 502.1,153.3 502.9,153.3 503.6,153.3 504.4,153.3 505.1,153.3 505.8,153.3 506.6,153.3 507.3,153.3 508.1,153.3 508.8,153.3 509.6,153.3 510.3,153.3 511.0,153.3 511.8,153.3 512.5,153.3 513.3,150.9 514.0,150.9 514.8,150.9 515.5,150.9 516.3,150.9 517.0,150.9 517.7,150.9 518.5,150.9 519.2,150.9 520.0,150.9 520.7,150.9 521.5,150.9 522.2,150.9 523.0,150.9 523.7,150.9 524.4,150.9 525.2,150.9 525.9,150.9 526.7,150.9 527.4,150.9 528.2,151.8 528.9,151.8 529.6,151.8 530.4,151.8 531.1,151.8 531.9,151.8 532.6,151.8 533.4,151.8 534.1,151.8 534.9,151.8 535.6,151.8 536.3,151.8 537.1,151.8 537.8,151.8 538.6,151.8 539.3,151.8 540.1,151.8 540.8,151.8 541.6,151.8 542.3,151.8 543.0,153.6 543.8,153.6 544.5,153.6 545.3,153.6 546.0,153.6 546.8,153.6 547.5,153.6 548.2,153.6 549.0,153.6 549.7,153.6 550.5,153.6 551.2,153.6 552.0,153.6 552.7,153.6 553.5,153.6 554.2,153.6 554.9,153.6 555.7,153.6 556.4,153.6 557.2,153.6 557.9,155.2 558.7,155.2 559.4,155.2 560.2,155.2 560.9,155.2 561.6,155.2 562.4,155.2 563.1,155.2 563.9,155.2 564.6,155.2 565.4,155.2 566.1,155.2 566.8,155.2 567.6,155.2 568.3,155.2 569.1,155.2 569.8,155.2 570.6,155.2 571.3,155.2 572.1,155.2 572.8,154.7 573.5,154.7 574.3,154.7 575.0,154.7 575.8,154.7 576.5,154.7 577.3,154.7 578.0,154.7 578.8,154.7 579.5,154.7 580.2,154.7 581.0,154.7 581.7,154.7 582.5,154.7 583.2,154.7 584.0,154.7 584.7,154.7 585.4,154.7 586.2,154.7 586.9,154.7 587.7,153.5 588.4,153.5 589.2,153.5 589.9,153.5 590.7,153.5 591.4,153.5 592.1,153.5 592.9,153.5 593.6,153.5 594.4,153.5 595.1,153.5 595.9,153.5 596.6,153.5 597.4,153.5 598.1,153.5 598.8,153.5 599.6,153.5 600.3,153.5 601.1,153.5 601.8,153.5 602.6,154.0 603.3,154.0 604.0,154.0 604.8,154.0 605.5,154.0 606.3,154.0 607.0,154.0 607.8,154.0 608.5,154.0 609.3,154.0 610.0,154.0 610.7,154.0 611.5,154.0 612.2,154.0 613.0,154.0 613.7,154.0 614.5,154.0 615.2,154.0 616.0,154.0 616.7,154.0 617.4,154.2 618.2,154.2 618.9,154.2 619.7,154.2 620.4,154.2 621.2,154.2 621.9,154.2 622.6,154.2 623.4,154.2 624.1,154.2 624.9,154.2 625.6,154.2 626.4,154.2 627.1,154.2 627.9,154.2 628.6,154.2 629.3,154.2 630.1,154.2 630.8,154.2 631.6,154.2 632.3,153.4 633.1,153.4 633.8,153.4 634.6,153.4 635.3,153.4 636.0,153.4 636.8,153.4 637.5,153.4 638.3,153.4 639.0,153.4 639.8,153.4 640.5,153.4 641.2,153.4 642.0,153.4 642.7,153.4 643.5,153.4 644.2,153.4 645.0,153.4 645.7,153.4 646.5,153.4 647.2,154.1 647.9,154.1 648.7,154.1 649.4,154.1 650.2,154.1 650.9,154.1 651.7,154.1 652.4,154.1 653.2,154.1 653.9,154.1 654.6,154.1 655.4,154.1 656.1,154.1 656.9,154.1 657.6,154.1 658.4,154.1 659.1,154.1 659.8,154.1 660.6,154.1 661.3,154.1 662.1,153.4 662.8,153.4 663.6,153.4 664.3,153.4 665.1,153.4 665.8,153.4 666.5,153.4 667.3,153.4 668.0,153.4 668.8,153.4 669.5,153.4 670.3,153.4 671.0,153.4 671.8,153.4 672.5,153.4 673.2,153.4 674.0,153.4 674.7,153.4 675.5,153.4 676.2,153.4 677.0,153.1 677.7,153.1 678.4,153.1 679.2,153.1 679.9,153.1 680.7,153.1 681.4,153.1 682.2,153.1 682.9,153.1 683.7,153.1 684.4,153.1 685.1,153.1 685.9,153.1 686.6,153.1 687.4,153.1 688.1,153.1 688.9,153.1 689.6,153.1 690.4,153.1 691.1,153.1 691.8,152.8 692.6,152.8 693.3,152.8 694.1,152.8 694.8,152.8 695.6,152.8 696.3,152.8 697.0,152.8 697.8,152.8 698.5,152.8 699.3,152.8 700.0,152.8 700.8,152.8 701.5,152.8 702.3,152.8 703.0,152.8 703.7,152.8 704.5,152.8 705.2,152.8 706.0,152.8 706.7,152.1 707.5,152.1 708.2,152.1 709.0,152.1 709.7,152.1 710.4,152.1 711.2,152.1 711.9,152.1 712.7,152.1 713.4,152.1 714.2,152.1 714.9,152.1 715.6,152.1 716.4,152.1 717.1,152.1 717.9,152.1 718.6,152.1 719.4,152.1 720.1,152.1 720.9,152.1 721.6,151.0 722.3,151.0 723.1,151.0 723.8,151.0 724.6,151.0 725.3,151.0 726.1,151.0 726.8,151.0 727.6,151.0 728.3,151.0 729.0,151.0 729.8,151.0 730.5,151.0 731.3,151.0 732.0,151.0 732.8,151.0 733.5,151.0 734.2,151.0 735.0,151.0 735.7,151.0 736.5,150.6 737.2,150.6 738.0,150.6 738.7,150.6 739.5,150.6 740.2,150.6 740.9,150.6 741.7,150.6 742.4,150.6 743.2,150.6 743.9,150.6 744.7,150.6 745.4,150.6 746.2,150.6 746.9,150.6 747.6,150.6 748.4,150.6 749.1,150.6 749.9,150.6 750.6,150.6 751.4,149.2 752.1,149.2 752.8,149.2 753.6,149.2 754.3,149.2 755.1,149.2 755.8,149.2 756.6,149.2 757.3,149.2 758.1,149.2 758.8,149.2 759.5,149.2 760.3,149.2 761.0,149.2 761.8,149.2 762.5,149.2 763.3,149.2 764.0,149.2 764.8,149.2 765.5,149.2 766.2,148.7 767.0,148.7 767.7,148.7 768.5,148.7 769.2,148.7 770.0,148.7 770.7,148.7 771.4,148.7 772.2,148.7 772.9,148.7 773.7,148.7 774.4,148.7 775.2,148.7 775.9,148.7 776.7,148.7 777.4,148.7 778.1,148.7 778.9,148.7 779.6,148.7 780.4,148.7 781.1,147.9 781.9,147.9 782.6,147.9 783.4,147.9 784.1,147.9 784.8,147.9 785.6,147.9 786.3,147.9 787.1,147.9 787.8,147.9 788.6,147.9 789.3,147.9 790.0,147.9 790.8,147.9 791.5,147.9 792.3,147.9 793.0,147.9 793.8,147.9 794.5,147.9 795.3,147.9 796.0,148.4"/>
<text x="640" y="72" font-family="Arial" font-size="12" fill="#2563eb">bay</text>
<polyline fill="none" stroke="#b45309" stroke-width="2.3" points="52.0,142.9 52.7,142.9 53.5,142.9 54.2,142.9 55.0,143.3 55.7,143.3 56.5,143.3 57.2,143.3 58.0,143.9 58.7,143.9 59.4,143.9 60.2,143.9 60.9,138.7 61.7,138.7 62.4,138.7 63.2,138.7 63.9,128.1 64.6,128.1 65.4,128.1 66.1,128.1 66.9,133.7 67.6,133.7 68.4,133.7 69.1,133.7 69.9,138.6 70.6,138.6 71.3,138.6 72.1,138.6 72.8,161.4 73.6,161.4 74.3,161.4 75.1,161.4 75.8,197.3 76.6,197.3 77.3,197.3 78.0,197.3 78.8,228.4 79.5,228.4 80.3,228.4 81.0,228.4 81.8,274.0 82.5,274.0 83.2,274.0 84.0,274.0 84.7,224.6 85.5,224.6 86.2,224.6 87.0,224.6 87.7,238.5 88.5,238.5 89.2,238.5 89.9,238.5 90.7,175.6 91.4,175.6 92.2,175.6 92.9,175.6 93.7,137.3 94.4,137.3 95.2,137.3 95.9,137.3 96.6,128.8 97.4,128.8 98.1,128.8 98.9,128.8 99.6,97.5 100.4,97.5 101.1,97.5 101.8,97.5 102.6,121.7 103.3,121.7 104.1,121.7 104.8,121.7 105.6,102.9 106.3,102.9 107.1,102.9 107.8,102.9 108.5,66.2 109.3,66.2 110.0,66.2 110.8,66.2 111.5,44.4 112.3,44.4 113.0,44.4 113.8,44.4 114.5,112.2 115.2,112.2 116.0,112.2 116.7,112.2 117.5,85.6 118.2,85.6 119.0,85.6 119.7,85.6 120.4,85.0 121.2,85.0 121.9,85.0 122.7,85.0 123.4,115.9 124.2,115.9 124.9,115.9 125.7,115.9 126.4,57.0 127.1,57.0 127.9,57.0 128.6,57.0 129.4,77.4 130.1,77.4 130.9,77.4 131.6,77.4 132.4,74.8 133.1,74.8 133.8,74.8 134.6,74.8 135.3,104.3 136.1,104.3 136.8,104.3 137.6,104.3 138.3,82.9 139.0,82.9 139.8,82.9 140.5,82.9 141.3,99.8 142.0,99.8 142.8,99.8 143.5,99.8 144.3,124.2 145.0,124.2 145.7,124.2 146.5,124.2 147.2,115.3 148.0,115.3 148.7,115.3 149.5,115.3 150.2,112.3 151.0,112.3 151.7,112.3 152.4,112.3 153.2,125.5 153.9,125.5 154.7,125.5 155.4,125.5 156.2,122.8 156.9,122.8 157.6,122.8 158.4,122.8 159.1,133.9 159.9,133.9 160.6,133.9 161.4,133.9 162.1,122.4 162.9,122.4 163.6,122.4 164.3,122.4 165.1,122.3 165.8,122.3 166.6,122.3 167.3,122.3 168.1,139.0 168.8,139.0 169.6,139.0 170.3,139.0 171.0,124.2 171.8,124.2 172.5,124.2 173.3,124.2 174.0,122.2 174.8,122.2 175.5,122.2 176.2,122.2 177.0,126.8 177.7,126.8 178.5,126.8 179.2,126.8 180.0,129.0 180.7,129.0 181.5,129.0 182.2,129.0 182.9,122.6 183.7,122.6 184.4,122.6 185.2,122.6 185.9,131.6 186.7,131.6 187.4,131.6 188.2,131.6 188.9,133.0 189.6,133.0 190.4,133.0 191.1,133.0 191.9,122.5 192.6,122.5 193.4,122.5 194.1,122.5 194.8,118.0 195.6,118.0 196.3,118.0 197.1,118.0 197.8,121.2 198.6,121.2 199.3,121.2 200.1,121.2 200.8,126.0 201.5,126.0 202.3,126.0 203.0,126.0 203.8,121.8 204.5,121.8 205.3,121.8 206.0,121.8 206.8,129.4 207.5,129.4 208.2,129.4 209.0,129.4 209.7,133.3 210.5,133.3 211.2,133.3 212.0,133.3 212.7,132.3 213.4,132.3 214.2,132.3 214.9,132.3 215.7,130.9 216.4,130.9 217.2,130.9 217.9,130.9 218.7,134.7 219.4,134.7 220.1,134.7 220.9,134.7 221.6,131.2 222.4,131.2 223.1,131.2 223.9,131.2 224.6,132.5 225.4,132.5 226.1,132.5 226.8,132.5 227.6,129.6 228.3,129.6 229.1,129.6 229.8,129.6 230.6,133.1 231.3,133.1 232.0,133.1 232.8,133.1 233.5,128.7 234.3,128.7 235.0,128.7 235.8,128.7 236.5,128.1 237.3,128.1 238.0,128.1 238.7,128.1 239.5,129.4 240.2,129.4 241.0,129.4 241.7,129.4 242.5,127.9 243.2,127.9 244.0,127.9 244.7,127.9 245.4,129.1 246.2,129.1 246.9,129.1 247.7,129.1 248.4,127.5 249.2,127.5 249.9,127.5 250.6,127.5 251.4,125.9 252.1,125.9 252.9,125.9 253.6,125.9 254.4,124.2 255.1,124.2 255.9,124.2 256.6,124.2 257.3,126.0 258.1,126.0 258.8,126.0 259.6,126.0 260.3,126.6 261.1,126.6 261.8,126.6 262.6,126.6 263.3,126.9 264.0,126.9 264.8,126.9 265.5,126.9 266.3,128.5 267.0,128.5 267.8,128.5 268.5,128.5 269.2,130.6 270.0,130.6 270.7,130.6 271.5,130.6 272.2,128.4 273.0,128.4 273.7,128.4 274.5,128.4 275.2,131.1 275.9,131.1 276.7,131.1 277.4,131.1 278.2,132.6 278.9,132.6 279.7,132.6 280.4,132.6 281.2,133.0 281.9,133.0 282.6,133.0 283.4,133.0 284.1,132.3 284.9,132.3 285.6,132.3 286.4,132.3 287.1,132.7 287.8,132.7 288.6,132.7 289.3,132.7 290.1,132.7 290.8,132.7 291.6,132.7 292.3,132.7 293.1,134.9 293.8,134.9 294.5,134.9 295.3,134.9 296.0,134.8 296.8,134.8 297.5,134.8 298.3,134.8 299.0,134.6 299.8,134.6 300.5,134.6 301.2,134.6 302.0,134.3 302.7,134.3 303.5,134.3 304.2,134.3 305.0,132.7 305.7,132.7 306.4,132.7 307.2,132.7 307.9,133.8 308.7,133.8 309.4,133.8 310.2,133.8 310.9,134.5 311.7,134.5 312.4,134.5 313.1,134.5 313.9,135.3 314.6,135.3 315.4,135.3 316.1,135.3 316.9,135.8 317.6,135.8 318.4,135.8 319.1,135.8 319.8,134.6 320.6,134.6 321.3,134.6 322.1,134.6 322.8,134.5 323.6,134.5 324.3,134.5 325.0,134.5 325.8,135.8 326.5,135.8 327.3,135.8 328.0,135.8 328.8,136.4 329.5,136.4 330.3,136.4 331.0,136.4 331.7,135.7 332.5,135.7 333.2,135.7 334.0,135.7 334.7,135.0 335.5,135.0 336.2,135.0 337.0,135.0 337.7,135.3 338.4,135.3 339.2,135.3 339.9,135.3 340.7,135.0 341.4,135.0 342.2,135.0 342.9,135.0 343.6,134.7 344.4,134.7 345.1,134.7 345.9,134.7 346.6,135.8 347.4,135.8 348.1,135.8 348.9,135.8 349.6,136.2 350.3,136.2 351.1,136.2 351.8,136.2 352.6,136.6 353.3,136.6 354.1,136.6 354.8,136.6 355.6,137.0 356.3,137.0 357.0,137.0 357.8,137.0 358.5,136.8 359.3,136.8 360.0,136.8 360.8,136.8 361.5,137.4 362.2,137.4 363.0,137.4 363.7,137.4 364.5,138.5 365.2,138.5 366.0,138.5 366.7,138.5 367.5,138.3 368.2,138.3 368.9,138.3 369.7,138.3 370.4,137.4 371.2,137.4 371.9,137.4 372.7,137.4 373.4,138.2 374.2,138.2 374.9,138.2 375.6,138.2 376.4,138.8 377.1,138.8 377.9,138.8 378.6,138.8 379.4,139.4 380.1,139.4 380.8,139.4 381.6,139.4 382.3,139.4 383.1,139.4 383.8,139.4 384.6,139.4 385.3,139.7 386.1,139.7 386.8,139.7 387.5,139.7 388.3,138.9 389.0,138.9 389.8,138.9 390.5,138.9 391.3,138.7 392.0,138.7 392.8,138.7 393.5,138.7 394.2,138.9 395.0,138.9 395.7,138.9 396.5,138.9 397.2,138.5 398.0,138.5 398.7,138.5 399.4,138.5 400.2,138.3 400.9,138.3 401.7,138.3 402.4,138.3 403.2,138.1 403.9,138.1 404.7,138.1 405.4,138.1 406.1,139.0 406.9,139.0 407.6,139.0 408.4,139.0 409.1,139.0 409.9,139.0 410.6,139.0 411.4,139.0 412.1,138.3 412.8,138.3 413.6,138.3 414.3,138.3 415.1,137.2 415.8,137.2 416.6,137.2 417.3,137.2 418.0,136.7 418.8,136.7 419.5,136.7 420.3,136.7 421.0,137.0 421.8,137.0 422.5,137.0 423.3,137.0 424.0,137.0 424.7,137.0 425.5,137.0 426.2,137.0 427.0,137.3 427.7,137.3 428.5,137.3 429.2,137.3 430.0,136.6 430.7,136.6 431.4,136.6 432.2,136.6 432.9,136.6 433.7,136.6 434.4,136.6 435.2,136.6 435.9,136.2 436.6,136.2 437.4,136.2 438.1,136.2 438.9,136.2 439.6,136.2 440.4,136.2 441.1,136.2 441.9,136.6 442.6,136.6 443.3,136.6 444.1,136.6 444.8,136.0 445.6,136.0 446.3,136.0 447.1,136.0 447.8,136.5 448.6,136.5 449.3,136.5 450.0,136.5 450.8,136.5 451.5,136.5 452.3,136.5 453.0,136.5 453.8,135.5 454.5,135.5 455.2,135.5 456.0,135.5 456.7,135.9 457.5,135.9 458.2,135.9 459.0,135.9 459.7,136.0 460.5,136.0 461.2,136.0 461.9,136.0 462.7,136.3 463.4,136.3 464.2,136.3 464.9,136.3 465.7,136.6 466.4,136.6 467.2,136.6 467.9,136.6 468.6,135.7 469.4,135.7 470.1,135.7 470.9,135.7 471.6,136.3 472.4,136.3 473.1,136.3 473.8,136.3 474.6,136.0 475.3,136.0 476.1,136.0 476.8,136.0 477.6,135.3 478.3,135.3 479.1,135.3 479.8,135.3 480.5,134.7 481.3,134.7 482.0,134.7 482.8,134.7 483.5,134.6 484.3,134.6 485.0,134.6 485.8,134.6 486.5,134.6 487.2,134.6 488.0,134.6 488.7,134.6 489.5,134.1 490.2,134.1 491.0,134.1 491.7,134.1 492.4,134.0 493.2,134.0 493.9,134.0 494.7,134.0 495.4,134.4 496.2,134.4 496.9,134.4 497.7,134.4 498.4,135.3 499.1,135.3 499.9,135.3 500.6,135.3 501.4,135.3 502.1,135.3 502.9,135.3 503.6,135.3 504.4,135.0 505.1,135.0 505.8,135.0 506.6,135.0 507.3,134.3 508.1,134.3 508.8,134.3 509.6,134.3 510.3,134.8 511.0,134.8 511.8,134.8 512.5,134.8 513.3,134.4 514.0,134.4 514.8,134.4 515.5,134.4 516.3,134.2 517.0,134.2 517.7,134.2 518.5,134.2 519.2,134.7 520.0,134.7 520.7,134.7 521.5,134.7 522.2,134.5 523.0,134.5 523.7,134.5 524.4,134.5 525.2,134.1 525.9,134.1 526.7,134.1 527.4,134.1 528.2,134.4 528.9,134.4 529.6,134.4 530.4,134.4 531.1,134.3 531.9,134.3 532.6,134.3 533.4,134.3 534.1,134.6 534.9,134.6 535.6,134.6 536.3,134.6 537.1,135.4 537.8,135.4 538.6,135.4 539.3,135.4 540.1,135.1 540.8,135.1 541.6,135.1 542.3,135.1 543.0,134.7 543.8,134.7 544.5,134.7 545.3,134.7 546.0,135.0 546.8,135.0 547.5,135.0 548.2,135.0 549.0,135.3 549.7,135.3 550.5,135.3 551.2,135.3 552.0,134.5 552.7,134.5 553.5,134.5 554.2,134.5 554.9,134.8 555.7,134.8 556.4,134.8 557.2,134.8 557.9,135.2 558.7,135.2 559.4,135.2 560.2,135.2 560.9,135.5 561.6,135.5 562.4,135.5 563.1,135.5 563.9,134.9 564.6,134.9 565.4,134.9 566.1,134.9 566.8,134.7 567.6,134.7 568.3,134.7 569.1,134.7 569.8,134.8 570.6,134.8 571.3,134.8 572.1,134.8 572.8,134.7 573.5,134.7 574.3,134.7 575.0,134.7 575.8,135.1 576.5,135.1 577.3,135.1 578.0,135.1 578.8,135.5 579.5,135.5 580.2,135.5 581.0,135.5 581.7,135.1 582.5,135.1 583.2,135.1 584.0,135.1 584.7,135.0 585.4,135.0 586.2,135.0 586.9,135.0 587.7,133.8 588.4,133.8 589.2,133.8 589.9,133.8 590.7,133.8 591.4,133.8 592.1,133.8 592.9,133.8 593.6,133.6 594.4,133.6 595.1,133.6 595.9,133.6 596.6,133.4 597.4,133.4 598.1,133.4 598.8,133.4 599.6,133.6 600.3,133.6 601.1,133.6 601.8,133.6 602.6,132.9 603.3,132.9 604.0,132.9 604.8,132.9 605.5,133.6 606.3,133.6 607.0,133.6 607.8,133.6 608.5,132.7 609.3,132.7 610.0,132.7 610.7,132.7 611.5,132.9 612.2,132.9 613.0,132.9 613.7,132.9 614.5,133.0 615.2,133.0 616.0,133.0 616.7,133.0 617.4,133.1 618.2,133.1 618.9,133.1 619.7,133.1 620.4,133.0 621.2,133.0 621.9,133.0 622.6,133.0 623.4,133.6 624.1,133.6 624.9,133.6 625.6,133.6 626.4,133.4 627.1,133.4 627.9,133.4 628.6,133.4 629.3,133.2 630.1,133.2 630.8,133.2 631.6,133.2 632.3,133.3 633.1,133.3 633.8,133.3 634.6,133.3 635.3,133.3 636.0,133.3 636.8,133.3 637.5,133.3 638.3,133.0 639.0,133.0 639.8,133.0 640.5,133.0 641.2,133.1 642.0,133.1 642.7,133.1 643.5,133.1 644.2,132.9 645.0,132.9 645.7,132.9 646.5,132.9 647.2,133.0 647.9,133.0 648.7,133.0 649.4,133.0 650.2,133.3 650.9,133.3 651.7,133.3 652.4,133.3 653.2,133.6 653.9,133.6 654.6,133.6 655.4,133.6 656.1,133.9 656.9,133.9 657.6,133.9 658.4,133.9 659.1,133.6 659.8,133.6 660.6,133.6 661.3,133.6 662.1,133.0 662.8,133.0 663.6,133.0 664.3,133.0 665.1,132.9 665.8,132.9 666.5,132.9 667.3,132.9 668.0,132.7 668.8,132.7 669.5,132.7 670.3,132.7 671.0,132.9 671.8,132.9 672.5,132.9 673.2,132.9 674.0,132.8 674.7,132.8 675.5,132.8 676.2,132.8 677.0,133.0 677.7,133.0 678.4,133.0 679.2,133.0 679.9,133.8 680.7,133.8 681.4,133.8 682.2,133.8 682.9,134.2 683.7,134.2 684.4,134.2 685.1,134.2 685.9,133.9 686.6,133.9 687.4,133.9 688.1,133.9 688.9,134.3 689.6,134.3 690.4,134.3 691.1,134.3 691.8,134.7 692.6,134.7 693.3,134.7 694.1,134.7 694.8,134.2 695.6,134.2 696.3,134.2 697.0,134.2 697.8,134.3 698.5,134.3 699.3,134.3 700.0,134.3 700.8,133.8 701.5,133.8 702.3,133.8 703.0,133.8 703.7,133.3 704.5,133.3 705.2,133.3 706.0,133.3 706.7,133.6 707.5,133.6 708.2,133.6 709.0,133.6 709.7,133.0 710.4,133.0 711.2,133.0 711.9,133.0 712.7,133.4 713.4,133.4 714.2,133.4 714.9,133.4 715.6,133.4 716.4,133.4 717.1,133.4 717.9,133.4 718.6,133.3 719.4,133.3 720.1,133.3 720.9,133.3 721.6,133.9 722.3,133.9 723.1,133.9 723.8,133.9 724.6,134.1 725.3,134.1 726.1,134.1 726.8,134.1 727.6,134.5 728.3,134.5 729.0,134.5 729.8,134.5 730.5,134.1 731.3,134.1 732.0,134.1 732.8,134.1 733.5,133.5 734.2,133.5 735.0,133.5 735.7,133.5 736.5,133.6 737.2,133.6 738.0,133.6 738.7,133.6 739.5,133.2 740.2,133.2 740.9,133.2 741.7,133.2 742.4,133.6 743.2,133.6 743.9,133.6 744.7,133.6 745.4,133.4 746.2,133.4 746.9,133.4 747.6,133.4 748.4,133.3 749.1,133.3 749.9,133.3 750.6,133.3 751.4,133.8 752.1,133.8 752.8,133.8 753.6,133.8 754.3,134.6 755.1,134.6 755.8,134.6 756.6,134.6 757.3,134.5 758.1,134.5 758.8,134.5 759.5,134.5 760.3,135.5 761.0,135.5 761.8,135.5 762.5,135.5 763.3,135.8 764.0,135.8 764.8,135.8 765.5,135.8 766.2,136.2 767.0,136.2 767.7,136.2 768.5,136.2 769.2,136.2 770.0,136.2 770.7,136.2 771.4,136.2 772.2,136.6 772.9,136.6 773.7,136.6 774.4,136.6 775.2,136.5 775.9,136.5 776.7,136.5 777.4,136.5 778.1,136.1 778.9,136.1 779.6,136.1 780.4,136.1 781.1,136.5 781.9,136.5 782.6,136.5 783.4,136.5 784.1,136.4 784.8,136.4 785.6,136.4 786.3,136.4 787.1,136.8 787.8,136.8 788.6,136.8 789.3,136.8 790.0,136.7 790.8,136.7 791.5,136.7 792.3,136.7 793.0,136.4 793.8,136.4 794.5,136.4 795.3,136.4 796.0,136.1"/>
<text x="640" y="88" font-family="Arial" font-size="12" fill="#b45309">baz</text>
</svg>