<svg xmlns="http://www.w3.org/2000/svg" width="820" height="320" viewBox="0 0 820 320">
<rect width="100%" height="100%" fill="white"/>
<text x="52" y="30" font-family="Arial" font-size="18" font-weight="700">linear_nominal covariance bounds</text>
<line x1="52" y1="274" x2="796" y2="274" stroke="#263238"/>
<line x1="52" y1="42" x2="52" y2="274" stroke="#263238"/>
<text x="52" y="306" font-family="Arial" font-size="12">time (s)</text>
<text x="630" y="306" font-family="Arial" font-size="12">m</text>

<rect x="379.4" y="42" width="89.3" height="232" fill="#fef3c7" opacity="0.72"/>
<polyline fill="none" stroke="#0f766e" stroke-width="2.3" points="52.0,51.2 52.7,51.7 53.5,52.2 54.2,52.6 55.0,52.0 55.7,52.4 56.5,52.8 57.2,53.2 58.0,52.0 58.7,52.3 59.4,52.6 60.2,53.0 60.9,55.5 61.7,55.9 62.4,56.3 63.2,56.6 63.9,58.5 64.6,58.9 65.4,59.3 66.1,59.7 66.9,137.1 67.6,136.4 68.4,135.6 69.1,134.8 69.9,133.5 70.6,132.7 71.3,131.8 72.1,130.8 72.8,130.1 73.6,129.0 74.3,127.9 75.1,126.8 75.8,125.4 76.6,124.1 77.3,122.7 78.0,121.2 78.8,118.4 79.5,116.7 80.3,115.0 81.0,113.2 81.8,168.9 82.5,166.9 83.2,164.8 84.0,162.6 84.7,162.9 85.5,160.7 86.2,158.4 87.0,156.1 87.7,151.7 88.5,149.2 89.2,146.6 89.9,144.0 90.7,145.0 91.4,142.4 92.2,139.7 92.9,136.9 93.7,136.3 94.4,133.6 95.2,130.7 95.9,127.8 96.6,174.9 97.4,173.1 98.1,171.2 98.9,169.3 99.6,167.9 100.4,165.9 101.1,163.9 101.8,161.8 102.6,158.9 103.3,156.8 104.1,154.6 104.8,152.4 105.6,150.4 106.3,148.1 107.1,145.8 107.8,143.4 108.5,141.5 109.3,139.1 110.0,136.6 110.8,134.1 111.5,198.1 112.3,196.4 113.0,194.6 113.8,192.7 114.5,190.7 115.2,189.0 116.0,187.2 116.7,185.4 117.5,183.7 118.2,181.8 119.0,179.8 119.7,177.8 120.4,175.7 121.2,173.6 121.9,171.5 122.7,169.3 123.4,167.3 124.2,165.1 124.9,163.0 125.7,160.8 126.4,168.5 127.1,167.5 127.9,166.4 128.6,165.4 129.4,166.0 130.1,165.0 130.9,164.1 131.6,163.1 132.4,162.0 133.1,161.0 133.8,159.9 134.6,158.8 135.3,161.1 136.1,160.2 136.8,159.3 137.6,158.4 138.3,155.2 139.0,154.1 139.8,153.0 140.5,151.8 141.3,185.2 142.0,184.1 142.8,183.0 143.5,181.9 144.3,185.9 145.0,185.0 145.7,184.1 146.5,183.1 147.2,181.7 148.0,180.6 148.7,179.5 149.5,178.4 150.2,177.8 151.0,176.6 151.7,175.4 152.4,174.1 153.2,177.3 153.9,176.2 154.7,175.1 155.4,174.0 156.2,155.2 156.9,153.4 157.6,151.6 158.4,149.8 159.1,152.2 159.9,150.5 160.6,148.9 161.4,147.2 162.1,144.3 162.9,142.5 163.6,140.6 164.3,138.8 165.1,138.6 165.8,136.7 166.6,134.8 167.3,132.9 168.1,137.0 168.8,135.3 169.6,133.6 170.3,131.9 171.0,178.3 171.8,176.7 172.5,175.1 173.3,173.5 174.0,171.7 174.8,170.0 175.5,168.3 176.2,166.6 177.0,166.1 177.7,164.4 178.5,162.7 179.2,161.1 180.0,159.9 180.7,158.2 181.5,156.5 182.2,154.8 182.9,151.9 183.7,150.1 184.4,148.3 185.2,146.5 185.9,158.1 186.7,155.9 187.4,153.6 188.2,151.4 188.9,149.2 189.6,147.0 190.4,144.7 191.1,142.4 191.9,138.6 192.6,136.3 193.4,133.9 194.1,131.5 194.8,127.7 195.6,125.2 196.3,122.6 197.1,120.1 197.8,118.6 198.6,116.0 199.3,113.5 200.1,110.9 200.8,179.3 201.5,177.3 202.3,175.3 203.0,173.3 203.8,169.2 204.5,167.1 205.3,165.1 206.0,163.0 206.8,164.9 207.5,162.8 208.2,160.8 209.0,158.7 209.7,158.1 210.5,156.1 211.2,154.1 212.0,152.0 212.7,149.8 213.4,147.8 214.2,145.7 214.9,143.6 215.7,199.6 216.4,198.2 217.2,196.8 217.9,195.4 218.7,195.1 219.4,193.8 220.1,192.4 220.9,191.0 221.6,188.7 222.4,187.3 223.1,185.8 223.9,184.4 224.6,183.5 225.4,182.0 226.1,180.6 226.8,179.2 227.6,176.5 228.3,175.0 229.1,173.6 229.8,172.1 230.6,185.1 231.3,183.9 232.0,182.7 232.8,181.6 233.5,178.9 234.3,177.7 235.0,176.5 235.8,175.3 236.5,173.5 237.3,172.3 238.0,171.0 238.7,169.8 239.5,169.2 240.2,167.9 241.0,166.7 241.7,165.4 242.5,162.9 243.2,161.6 244.0,160.3 244.7,159.0 245.4,187.7 246.2,186.8 246.9,185.8 247.7,184.8 248.4,181.9 249.2,180.9 249.9,180.0 250.6,179.0 251.4,175.4 252.1,174.3 252.9,173.3 253.6,172.2 254.4,167.7 255.1,166.5 255.9,165.3 256.6,164.1 257.3,166.3 258.1,165.2 258.8,164.0 259.6,162.9 260.3,208.0 261.1,207.2 261.8,206.3 262.6,205.5 263.3,205.1 264.0,204.3 264.8,203.4 265.5,202.6 266.3,205.7 267.0,205.0 267.8,204.2 268.5,203.4 269.2,207.4 270.0,206.7 270.7,206.0 271.5,205.3 272.2,198.9 273.0,198.1 273.7,197.3 274.5,196.5 275.2,230.4 275.9,230.1 276.7,229.7 277.4,229.4 278.2,233.4 278.9,233.1 279.7,232.9 280.4,232.6 281.2,233.5 281.9,233.2 282.6,232.9 283.4,232.6 284.1,230.2 284.9,229.9 285.6,229.5 286.4,229.2 287.1,230.2 287.8,229.8 288.6,229.4 289.3,229.0 290.1,238.0 290.8,238.2 291.6,238.3 292.3,238.5 293.1,244.8 293.8,245.1 294.5,245.3 295.3,245.6 296.0,245.3 296.8,245.5 297.5,245.8 298.3,246.0 299.0,245.4 299.8,245.6 300.5,245.8 301.2,245.9 302.0,244.9 302.7,245.0 303.5,245.2 304.2,245.3 305.0,252.2 305.7,252.4 306.4,252.5 307.2,252.7 307.9,257.7 308.7,258.0 309.4,258.2 310.2,258.5 310.9,261.6 311.7,261.9 312.4,262.2 313.1,262.6 313.9,266.9 314.6,267.4 315.4,267.8 316.1,268.2 316.9,270.6 317.6,271.0 318.4,271.4 319.1,271.7 319.8,225.0 320.6,224.9 321.3,224.7 322.1,224.6 322.8,224.0 323.6,223.9 324.3,223.8 325.0,223.7 325.8,227.9 326.5,227.9 327.3,227.8 328.0,227.7 328.8,229.2 329.5,229.1 330.3,229.1 331.0,229.0 331.7,227.1 332.5,227.0 333.2,226.9 334.0,226.8 334.7,246.3 335.5,245.5 336.2,244.6 337.0,243.8 337.7,244.4 338.4,243.6 339.2,242.7 339.9,241.8 340.7,239.6 341.4,238.7 342.2,237.8 342.9,236.8 343.6,234.3 344.4,233.3 345.1,232.2 345.9,231.2 346.6,235.4 347.4,234.4 348.1,233.3 348.9,232.3 349.6,247.3 350.3,246.5 351.1,245.7 351.8,244.8 352.6,245.8 353.3,244.9 354.1,244.1 354.8,243.2 355.6,244.5 356.3,243.6 357.0,242.7 357.8,241.8 358.5,240.2 359.3,239.2 360.0,238.3 360.8,237.4 361.5,239.0 362.2,238.0 363.0,237.1 363.7,236.1 364.5,247.7 365.2,246.8 366.0,245.9 366.7,244.9 367.5,243.8 368.2,242.9 368.9,242.0 369.7,241.1 370.4,238.0 371.2,237.0 371.9,236.1 372.7,235.2 373.4,236.7 374.2,235.8 374.9,234.8 375.6,233.9 376.4,234.0 377.1,233.0 377.9,232.0 378.6,231.0 379.4,230.2 380.1,229.2 380.8,228.1 381.6,227.0 382.3,225.9 383.1,224.7 383.8,223.6 384.6,222.5 385.3,221.0 386.1,219.8 386.8,218.6 387.5,217.5 388.3,216.9 389.0,215.7 389.8,214.6 390.5,213.5 391.3,212.4 392.0,211.2 392.8,210.1 393.5,208.9 394.2,207.5 395.0,206.3 395.7,205.2 396.5,204.0 397.2,203.1 398.0,201.9 398.7,200.7 399.4,199.6 400.2,198.5 400.9,197.3 401.7,196.2 402.4,195.0 403.2,193.9 403.9,192.7 404.7,191.5 405.4,190.4 406.1,188.0 406.9,186.8 407.6,185.5 408.4,184.3 409.1,182.9 409.9,181.7 410.6,180.5 411.4,179.3 412.1,179.2 412.8,178.0 413.6,176.7 414.3,175.5 415.1,175.3 415.8,174.1 416.6,172.9 417.3,171.7 418.0,170.6 418.8,169.4 419.5,168.1 420.3,166.9 421.0,165.5 421.8,164.2 422.5,162.9 423.3,161.6 424.0,160.3 424.7,159.0 425.5,157.7 426.2,156.4 427.0,154.8 427.7,153.5 428.5,152.2 429.2,150.8 430.0,150.0 430.7,148.7 431.4,147.4 432.2,146.1 432.9,144.7 433.7,143.4 434.4,142.0 435.2,140.7 435.9,139.5 436.6,138.2 437.4,136.8 438.1,135.5 438.9,134.1 439.6,132.7 440.4,131.4 441.1,130.0 441.9,128.4 442.6,127.0 443.3,125.6 444.1,124.2 444.8,123.1 445.6,121.6 446.3,120.2 447.1,118.7 447.8,116.9 448.6,115.4 449.3,114.0 450.0,112.5 450.8,111.0 451.5,109.5 452.3,108.0 453.0,106.4 453.8,105.4 454.5,103.8 455.2,102.3 456.0,100.8 456.7,99.1 457.5,97.5 458.2,95.9 459.0,94.4 459.7,92.7 460.5,91.2 461.2,89.6 461.9,88.0 462.7,86.1 463.4,84.5 464.2,82.9 464.9,81.3 465.7,79.4 466.4,77.7 467.2,76.1 467.9,74.4 468.6,73.6 469.4,72.0 470.1,70.4 470.9,68.7 471.6,66.5 472.4,64.9 473.1,63.2 473.8,61.5 474.6,60.1 475.3,58.4 476.1,56.7 476.8,55.0 477.6,53.8 478.3,52.1 479.1,50.4 479.8,48.7 480.5,47.2 481.3,45.4 482.0,43.7 482.8,42.0 483.5,117.5 484.3,116.4 485.0,115.2 485.8,114.1 486.5,113.0 487.2,111.9 488.0,110.7 488.7,109.5 489.5,108.1 490.2,107.0 491.0,105.8 491.7,104.7 492.4,103.5 493.2,102.3 493.9,101.2 494.7,100.0 495.4,99.0 496.2,97.8 496.9,96.6 497.7,95.4 498.4,78.9 499.1,77.7 499.9,76.4 500.6,75.1 501.4,73.8 502.1,72.5 502.9,71.2 503.6,69.8 504.4,68.5 505.1,67.2 505.8,65.8 506.6,64.5 507.3,63.0 508.1,61.7 508.8,60.3 509.6,58.9 510.3,57.7 511.0,56.3 511.8,55.0 512.5,53.6 513.3,145.2 514.0,144.4 514.8,143.6 515.5,142.7 516.3,141.8 517.0,140.9 517.7,140.1 518.5,139.2 519.2,138.6 520.0,137.7 520.7,136.8 521.5,136.0 522.2,135.1 523.0,134.2 523.7,133.3 524.4,132.4 525.2,131.3 525.9,130.4 526.7,129.5 527.4,128.6 528.2,213.3 528.9,212.9 529.6,212.6 530.4,212.2 531.1,211.8 531.9,211.4 532.6,211.0 533.4,210.6 534.1,210.4 534.9,210.1 535.6,209.7 536.3,209.4 537.1,208.7 537.8,208.3 538.6,208.0 539.3,207.6 540.1,207.4 540.8,207.1 541.6,206.7 542.3,206.4 543.0,263.0 543.8,262.9 544.5,262.7 545.3,262.5 546.0,262.3 546.8,262.2 547.5,262.0 548.2,261.8 549.0,261.2 549.7,261.0 550.5,260.8 551.2,260.6 552.0,260.9 552.7,260.7 553.5,260.5 554.2,260.2 554.9,260.0 555.7,259.7 556.4,259.5 557.2,259.2 557.9,238.0 558.7,237.9 559.4,237.9 560.2,237.8 560.9,236.9 561.6,236.8 562.4,236.7 563.1,236.6 563.9,237.9 564.6,237.9 565.4,237.8 566.1,237.7 566.8,238.0 567.6,237.9 568.3,237.8 569.1,237.8 569.8,237.6 570.6,237.5 571.3,237.5 572.1,237.5 572.8,239.2 573.5,239.4 574.3,239.6 575.0,239.7 575.8,238.6 576.5,238.7 577.3,238.9 578.0,239.0 578.8,237.6 579.5,237.7 580.2,237.8 581.0,237.9 581.7,239.7 582.5,239.8 583.2,239.9 584.0,240.0 584.7,240.4 585.4,240.5 586.2,240.7 586.9,240.8 587.7,243.8 588.4,244.0 589.2,244.2 589.9,244.4 590.7,244.6 591.4,244.8 592.1,245.1 592.9,245.3 593.6,245.7 594.4,245.9 595.1,246.2 595.9,246.4 596.6,246.6 597.4,246.9 598.1,247.1 598.8,247.4 599.6,247.7 600.3,247.9 601.1,248.1 601.8,248.3 602.6,272.1 603.3,272.3 604.0,272.5 604.8,272.7 605.5,271.8 606.3,271.9 607.0,272.0 607.8,272.1 608.5,273.1 609.3,273.2 610.0,273.3 610.7,273.4 611.5,273.7 612.2,273.8 613.0,273.8 613.7,273.9 614.5,273.9 615.2,274.0 616.0,274.0 616.7,274.0 617.4,262.3 618.2,262.3 618.9,262.3 619.7,262.2 620.4,262.0 621.2,261.9 621.9,261.9 622.6,261.8 623.4,263.4 624.1,263.3 624.9,263.2 625.6,263.1 626.4,262.6 627.1,262.5 627.9,262.3 628.6,262.1 629.3,261.2 630.1,260.9 630.8,260.7 631.6,260.5 632.3,264.2 633.1,264.2 633.8,264.2 634.6,264.2 635.3,264.3 636.0,264.3 636.8,264.3 637.5,264.2 638.3,262.2 639.0,262.1 639.8,262.0 640.5,261.8 641.2,262.7 642.0,262.6 642.7,262.5 643.5,262.4 644.2,260.4 645.0,260.2 645.7,260.0 646.5,259.7 647.2,268.7 647.9,267.9 648.7,267.2 649.4,266.4 650.2,267.8 650.9,267.1 651.7,266.3 652.4,265.5 653.2,265.9 653.9,265.1 654.6,264.4 655.4,263.6 656.1,264.2 656.9,263.4 657.6,262.7 658.4,261.9 659.1,259.9 659.8,259.1 660.6,258.3 661.3,257.5 662.1,260.8 662.8,260.3 663.6,259.8 664.3,259.2 665.1,257.7 665.8,257.2 666.5,256.6 667.3,256.0 668.0,253.0 668.8,252.4 669.5,251.8 670.3,251.1 671.0,251.8 671.8,251.1 672.5,250.5 673.2,249.9 674.0,248.5 674.7,247.8 675.5,247.1 676.2,246.5 677.0,264.7 677.7,264.2 678.4,263.7 679.2,263.3 679.9,267.4 680.7,266.9 681.4,266.5 682.2,266.0 682.9,266.7 683.7,266.3 684.4,265.8 685.1,265.3 685.9,263.5 686.6,263.0 687.4,262.6 688.1,262.1 688.9,262.7 689.6,262.2 690.4,261.8 691.1,261.3 691.8,255.8 692.6,255.1 693.3,254.5 694.1,253.9 694.8,252.7 695.6,252.1 696.3,251.5 697.0,250.9 697.8,250.5 698.5,249.9 699.3,249.2 700.0,248.6 700.8,246.4 701.5,245.7 702.3,245.1 703.0,244.4 703.7,240.9 704.5,240.2 705.2,239.5 706.0,238.8 706.7,229.7 707.5,229.1 708.2,228.5 709.0,227.9 709.7,223.7 710.4,223.0 711.2,222.4 711.9,221.8 712.7,223.1 713.4,222.5 714.2,221.9 714.9,221.3 715.6,220.0 716.4,219.4 717.1,218.7 717.9,218.1 718.6,216.7 719.4,216.1 720.1,215.4 720.9,214.8 721.6,263.5 722.3,263.3 723.1,263.1 723.8,262.9 724.6,263.3 725.3,263.1 726.1,262.9 726.8,262.7 727.6,264.7 728.3,264.5 729.0,264.3 729.8,264.1 730.5,261.0 731.3,260.7 732.0,260.5 732.8,260.3 733.5,254.0 734.2,253.7 735.0,253.4 735.7,253.0 736.5,257.1 737.2,256.7 738.0,256.3 738.7,255.9 739.5,250.5 740.2,250.0 740.9,249.5 741.7,249.1 742.4,252.9 743.2,252.5 743.9,252.0 744.7,251.5 745.4,247.4 746.2,246.8 746.9,246.3 747.6,245.8 748.4,243.2 749.1,242.7 749.9,242.1 750.6,241.6 751.4,233.7 752.1,233.2 752.8,232.7 753.6,232.2 754.3,237.2 755.1,236.7 755.8,236.2 756.6,235.7 757.3,234.5 758.1,234.0 758.8,233.6 759.5,233.1 760.3,237.2 761.0,236.8 761.8,236.3 762.5,235.8 763.3,235.8 764.0,235.3 764.8,234.8 765.5,234.3 766.2,216.0 767.0,215.5 767.7,215.0 768.5,214.5 769.2,213.9 770.0,213.4 770.7,212.9 771.4,212.4 772.2,211.9 772.9,211.4 773.7,210.9 774.4,210.4 775.2,209.8 775.9,209.3 776.7,208.8 777.4,208.2 778.1,207.9 778.9,207.4 779.6,206.8 780.4,206.3 781.1,243.9 781.9,243.8 782.6,243.6 783.4,243.5 784.1,243.6 784.8,243.5 785.6,243.4 786.3,243.3 787.1,241.5 787.8,241.3 788.6,241.2 789.3,241.0 790.0,241.1 790.8,240.9 791.5,240.7 792.3,240.5 793.0,241.8 793.8,241.7 794.5,241.6 795.3,241.4 796.0,262.1"/>
<text x="640" y="56" font-family="Arial" font-size="12" fill="#0f766e">position error</text>
<polyline fill="none" stroke="#2563eb" stroke-width="2.3" points="52.0,44.4 52.7,44.4 53.5,44.4 54.2,44.3 55.0,47.4 55.7,47.3 56.5,47.2 57.2,47.1 58.0,48.2 58.7,48.0 59.4,47.9 60.2,47.7 60.9,48.2 61.7,47.9 62.4,47.7 63.2,47.4 63.9,47.5 64.6,47.2 65.4,46.8 66.1,46.4 66.9,117.2 67.6,117.1 68.4,117.0 69.1,116.8 69.9,116.9 70.6,116.8 71.3,116.5 72.1,116.3 72.8,116.3 73.6,116.1 74.3,115.7 75.1,115.4 75.8,115.3 76.6,114.9 77.3,114.4 78.0,113.9 78.8,113.8 79.5,113.2 80.3,112.5 81.0,111.8 81.8,149.1 82.5,148.9 83.2,148.7 84.0,148.5 84.7,148.4 85.5,148.1 86.2,147.8 87.0,147.5 87.7,147.4 88.5,147.0 89.2,146.6 89.9,146.1 90.7,146.0 91.4,145.5 92.2,144.9 92.9,144.3 93.7,144.1 94.4,143.5 95.2,142.8 95.9,142.0 96.6,167.8 97.4,167.6 98.1,167.2 98.9,166.9 99.6,166.9 100.4,166.5 101.1,166.1 101.8,165.7 102.6,165.6 103.3,165.1 104.1,164.7 104.8,164.2 105.6,164.0 106.3,163.4 107.1,162.9 107.8,162.3 108.5,162.0 109.3,161.4 110.0,160.7 110.8,159.9 111.5,180.1 112.3,179.8 113.0,179.4 113.8,179.0 114.5,178.9 115.2,178.5 116.0,178.1 116.7,177.7 117.5,177.5 118.2,177.0 119.0,176.5 119.7,176.0 120.4,175.8 121.2,175.2 121.9,174.7 122.7,174.0 123.4,173.8 124.2,173.1 124.9,172.5 125.7,171.7 126.4,188.7 127.1,188.3 127.9,187.9 128.6,187.5 129.4,187.4 130.1,187.0 130.9,186.5 131.6,186.0 132.4,185.9 133.1,185.4 133.8,184.8 134.6,184.3 135.3,184.1 136.1,183.5 136.8,182.9 137.6,182.3 138.3,182.0 139.0,181.4 139.8,180.7 140.5,180.0 141.3,195.0 142.0,194.6 142.8,194.1 143.5,193.7 144.3,193.5 145.0,193.1 145.7,192.6 146.5,192.1 147.2,191.9 148.0,191.4 148.7,190.9 149.5,190.3 150.2,190.1 151.0,189.5 151.7,188.9 152.4,188.3 153.2,188.0 153.9,187.4 154.7,186.7 155.4,186.1 156.2,199.6 156.9,199.2 157.6,198.8 158.4,198.3 159.1,198.1 159.9,197.7 160.6,197.2 161.4,196.7 162.1,196.5 162.9,196.0 163.6,195.4 164.3,194.9 165.1,194.6 165.8,194.0 166.6,193.4 167.3,192.8 168.1,192.5 168.8,191.9 169.6,191.3 170.3,190.6 171.0,203.2 171.8,202.7 172.5,202.3 173.3,201.8 174.0,201.6 174.8,201.2 175.5,200.7 176.2,200.2 177.0,199.9 177.7,199.4 178.5,198.9 179.2,198.3 180.0,198.0 180.7,197.5 181.5,196.9 182.2,196.3 182.9,196.0 183.7,195.3 184.4,194.7 185.2,194.0 185.9,205.9 186.7,205.5 187.4,205.0 188.2,204.5 188.9,204.3 189.6,203.8 190.4,203.3 191.1,202.8 191.9,202.6 192.6,202.1 193.4,201.5 194.1,201.0 194.8,200.7 195.6,200.1 196.3,199.5 197.1,198.9 197.8,198.6 198.6,198.0 199.3,197.4 200.1,196.7 200.8,208.0 201.5,207.6 202.3,207.1 203.0,206.6 203.8,206.4 204.5,205.9 205.3,205.4 206.0,204.9 206.8,204.6 207.5,204.1 208.2,203.6 209.0,203.0 209.7,202.7 210.5,202.2 211.2,201.6 212.0,201.0 212.7,200.7 213.4,200.1 214.2,199.4 214.9,198.8 215.7,209.7 216.4,209.2 217.2,208.8 217.9,208.3 218.7,208.0 219.4,207.6 220.1,207.1 220.9,206.5 221.6,206.3 222.4,205.7 223.1,205.2 223.9,204.7 224.6,204.4 225.4,203.8 226.1,203.2 226.8,202.6 227.6,202.3 228.3,201.7 229.1,201.1 229.8,200.5 230.6,211.0 231.3,210.5 232.0,210.1 232.8,209.6 233.5,209.3 234.3,208.8 235.0,208.3 235.8,207.8 236.5,207.5 237.3,207.0 238.0,206.5 238.7,206.0 239.5,205.6 240.2,205.1 241.0,204.5 241.7,203.9 242.5,203.6 243.2,203.0 244.0,202.4 244.7,201.8 245.4,212.0 246.2,211.6 246.9,211.1 247.7,210.6 248.4,210.3 249.2,209.9 249.9,209.4 250.6,208.9 251.4,208.6 252.1,208.0 252.9,207.5 253.6,207.0 254.4,206.7 255.1,206.1 255.9,205.6 256.6,205.0 257.3,204.6 258.1,204.1 258.8,203.5 259.6,202.9 260.3,212.8 261.1,212.4 261.8,211.9 262.6,211.4 263.3,211.2 264.0,210.7 264.8,210.2 265.5,209.7 266.3,209.4 267.0,208.9 267.8,208.3 268.5,207.8 269.2,207.5 270.0,206.9 270.7,206.4 271.5,205.8 272.2,205.5 273.0,204.9 273.7,204.3 274.5,203.8 275.2,213.5 275.9,213.0 276.7,212.6 277.4,212.1 278.2,211.8 278.9,211.3 279.7,210.8 280.4,210.3 281.2,210.0 281.9,209.5 282.6,209.0 283.4,208.5 284.1,208.2 284.9,207.6 285.6,207.1 286.4,206.5 287.1,206.2 287.8,205.6 288.6,205.1 289.3,204.5 290.1,214.0 290.8,213.5 291.6,213.1 292.3,212.6 293.1,212.3 293.8,211.8 294.5,211.4 295.3,210.9 296.0,210.6 296.8,210.1 297.5,209.6 298.3,209.0 299.0,208.7 299.8,208.2 300.5,207.6 301.2,207.1 302.0,206.8 302.7,206.2 303.5,205.6 304.2,205.1 305.0,214.4 305.7,214.0 306.4,213.5 307.2,213.0 307.9,212.7 308.7,212.3 309.4,211.8 310.2,211.3 310.9,211.0 311.7,210.5 312.4,210.0 313.1,209.5 313.9,209.2 314.6,208.6 315.4,208.1 316.1,207.6 316.9,207.2 317.6,206.7 318.4,206.1 319.1,205.6 319.8,214.7 320.6,214.3 321.3,213.8 322.1,213.4 322.8,213.1 323.6,212.6 324.3,212.1 325.0,211.7 325.8,211.4 326.5,210.9 327.3,210.4 328.0,209.9 328.8,209.5 329.5,209.0 330.3,208.5 331.0,208.0 331.7,207.6 332.5,207.1 333.2,206.5 334.0,206.0 334.7,215.0 335.5,214.6 336.2,214.1 337.0,213.7 337.7,213.4 338.4,212.9 339.2,212.4 339.9,212.0 340.7,211.7 341.4,211.2 342.2,210.7 342.9,210.2 343.6,209.9 344.4,209.4 345.1,208.8 345.9,208.3 346.6,208.0 347.4,207.4 348.1,206.9 348.9,206.4 349.6,215.3 350.3,214.8 351.1,214.4 351.8,213.9 352.6,213.6 353.3,213.2 354.1,212.7 354.8,212.2 355.6,211.9 356.3,211.4 357.0,211.0 357.8,210.5 358.5,210.1 359.3,209.6 360.0,209.1 360.8,208.6 361.5,208.3 362.2,207.7 363.0,207.2 363.7,206.7 364.5,215.4 365.2,215.0 366.0,214.6 366.7,214.1 367.5,213.8 368.2,213.4 368.9,212.9 369.7,212.4 370.4,212.1 371.2,211.7 371.9,211.2 372.7,210.7 373.4,210.4 374.2,209.9 374.9,209.4 375.6,208.9 376.4,208.5 377.1,208.0 377.9,207.5 378.6,207.0 379.4,206.5 380.1,205.9 380.8,205.3 381.6,204.7 382.3,204.2 383.1,203.6 383.8,202.9 384.6,202.3 385.3,201.8 386.1,201.1 386.8,200.5 387.5,199.8 388.3,199.3 389.0,198.6 389.8,197.9 390.5,197.2 391.3,196.7 392.0,196.0 392.8,195.3 393.5,194.5 394.2,194.0 395.0,193.3 395.7,192.5 396.5,191.8 397.2,191.2 398.0,190.4 398.7,189.7 399.4,188.9 400.2,188.3 400.9,187.5 401.7,186.7 402.4,185.9 403.2,185.3 403.9,184.5 404.7,183.7 405.4,182.8 406.1,182.2 406.9,181.4 407.6,180.5 408.4,179.7 409.1,179.0 409.9,178.1 410.6,177.3 411.4,176.4 412.1,175.7 412.8,174.8 413.6,173.9 414.3,173.0 415.1,172.3 415.8,171.3 416.6,170.4 417.3,169.5 418.0,168.7 418.8,167.8 419.5,166.9 420.3,165.9 421.0,165.1 421.8,164.2 422.5,163.2 423.3,162.2 424.0,161.4 424.7,160.4 425.5,159.4 426.2,158.4 427.0,157.5 427.7,156.5 428.5,155.5 429.2,154.5 430.0,153.6 430.7,152.6 431.4,151.5 432.2,150.5 432.9,149.6 433.7,148.5 434.4,147.4 435.2,146.3 435.9,145.4 436.6,144.3 437.4,143.2 438.1,142.1 438.9,141.1 439.6,140.0 440.4,138.9 441.1,137.7 441.9,136.8 442.6,135.6 443.3,134.5 444.1,133.3 444.8,132.3 445.6,131.1 446.3,129.9 447.1,128.7 447.8,127.7 448.6,126.5 449.3,125.3 450.0,124.1 450.8,123.0 451.5,121.7 452.3,120.5 453.0,119.3 453.8,118.2 454.5,116.9 455.2,115.6 456.0,114.4 456.7,113.2 457.5,112.0 458.2,110.7 459.0,109.4 459.7,108.2 460.5,106.9 461.2,105.6 461.9,104.3 462.7,103.0 463.4,101.7 464.2,100.4 464.9,99.0 465.7,97.8 466.4,96.4 467.2,95.1 467.9,93.7 468.6,92.4 469.4,91.2 470.1,90.0 470.9,88.7 471.6,87.6 472.4,86.3 473.1,85.1 473.8,83.8 474.6,82.7 475.3,81.4 476.1,80.2 476.8,78.9 477.6,77.7 478.3,76.4 479.1,75.1 479.8,73.8 480.5,72.6 481.3,71.3 482.0,70.0 482.8,68.7 483.5,148.3 484.3,147.6 485.0,146.8 485.8,146.1 486.5,145.4 487.2,144.7 488.0,143.9 488.7,143.1 489.5,142.5 490.2,141.7 491.0,140.9 491.7,140.1 492.4,139.4 493.2,138.7 493.9,137.8 494.7,137.0 495.4,136.4 496.2,135.5 496.9,134.7 497.7,133.9 498.4,169.4 499.1,168.9 499.9,168.3 500.6,167.7 501.4,167.3 502.1,166.7 502.9,166.1 503.6,165.5 504.4,165.0 505.1,164.4 505.8,163.8 506.6,163.2 507.3,162.7 508.1,162.1 508.8,161.5 509.6,160.8 510.3,160.3 511.0,159.7 511.8,159.1 512.5,158.4 513.3,181.4 514.0,180.9 514.8,180.5 515.5,180.0 516.3,179.6 517.0,179.1 517.7,178.6 518.5,178.1 519.2,177.7 520.0,177.2 520.7,176.7 521.5,176.2 522.2,175.8 523.0,175.3 523.7,174.7 524.4,174.2 525.2,173.8 525.9,173.3 526.7,172.7 527.4,172.2 528.2,189.4 528.9,189.0 529.6,188.6 530.4,188.1 531.1,187.8 531.9,187.4 532.6,187.0 533.4,186.5 534.1,186.2 534.9,185.7 535.6,185.3 536.3,184.8 537.1,184.5 537.8,184.0 538.6,183.5 539.3,183.0 540.1,182.7 540.8,182.2 541.6,181.7 542.3,181.2 543.0,195.3 543.8,194.9 544.5,194.5 545.3,194.1 546.0,193.8 546.8,193.4 547.5,193.0 548.2,192.6 549.0,192.3 549.7,191.9 550.5,191.4 551.2,191.0 552.0,190.7 552.7,190.2 553.5,189.8 554.2,189.3 554.9,189.0 555.7,188.6 556.4,188.1 557.2,187.7 557.9,199.7 558.7,199.4 559.4,199.0 560.2,198.6 560.9,198.4 561.6,198.0 562.4,197.6 563.1,197.2 563.9,196.9 564.6,196.5 565.4,196.1 566.1,195.7 566.8,195.4 567.6,195.0 568.3,194.5 569.1,194.1 569.8,193.8 570.6,193.4 571.3,192.9 572.1,192.5 572.8,203.3 573.5,202.9 574.3,202.5 575.0,202.1 575.8,201.9 576.5,201.5 577.3,201.1 578.0,200.7 578.8,200.5 579.5,200.1 580.2,199.7 581.0,199.3 581.7,199.0 582.5,198.6 583.2,198.2 584.0,197.8 584.7,197.5 585.4,197.1 586.2,196.6 586.9,196.2 587.7,195.9 588.4,195.5 589.2,195.0 589.9,194.6 590.7,194.3 591.4,193.8 592.1,193.3 592.9,192.9 593.6,192.5 594.4,192.1 595.1,191.6 595.9,191.1 596.6,190.8 597.4,190.3 598.1,189.8 598.8,189.3 599.6,188.9 600.3,188.4 601.1,187.9 601.8,187.4 602.6,200.1 603.3,199.7 604.0,199.3 604.8,198.9 605.5,198.6 606.3,198.2 607.0,197.7 607.8,197.3 608.5,197.0 609.3,196.6 610.0,196.1 610.7,195.7 611.5,195.4 612.2,194.9 613.0,194.4 613.7,194.0 614.5,193.6 615.2,193.2 616.0,192.7 616.7,192.2 617.4,203.4 618.2,203.0 618.9,202.6 619.7,202.2 620.4,202.0 621.2,201.6 621.9,201.2 622.6,200.7 623.4,200.5 624.1,200.1 624.9,199.6 625.6,199.2 626.4,198.9 627.1,198.5 627.9,198.0 628.6,197.6 629.3,197.3 630.1,196.8 630.8,196.3 631.6,195.9 632.3,206.1 633.1,205.7 633.8,205.3 634.6,204.9 635.3,204.7 636.0,204.3 636.8,203.9 637.5,203.5 638.3,203.2 639.0,202.8 639.8,202.4 640.5,202.0 641.2,201.7 642.0,201.3 642.7,200.8 643.5,200.4 644.2,200.1 645.0,199.7 645.7,199.2 646.5,198.8 647.2,208.3 647.9,207.9 648.7,207.5 649.4,207.1 650.2,206.9 650.9,206.5 651.7,206.1 652.4,205.7 653.2,205.4 653.9,205.0 654.6,204.6 655.4,204.2 656.1,203.9 656.9,203.5 657.6,203.1 658.4,202.7 659.1,202.4 659.8,202.0 660.6,201.5 661.3,201.1 662.1,210.0 662.8,209.6 663.6,209.3 664.3,208.9 665.1,208.6 665.8,208.3 666.5,207.9 667.3,207.5 668.0,207.2 668.8,206.8 669.5,206.4 670.3,206.0 671.0,205.8 671.8,205.3 672.5,204.9 673.2,204.5 674.0,204.2 674.7,203.8 675.5,203.3 676.2,202.9 677.0,211.4 677.7,211.1 678.4,210.7 679.2,210.3 679.9,210.1 680.7,209.7 681.4,209.3 682.2,208.9 682.9,208.7 683.7,208.3 684.4,207.9 685.1,207.5 685.9,207.2 686.6,206.8 687.4,206.4 688.1,206.0 688.9,205.7 689.6,205.3 690.4,204.8 691.1,204.4 691.8,212.6 692.6,212.2 693.3,211.9 694.1,211.5 694.8,211.3 695.6,210.9 696.3,210.5 697.0,210.1 697.8,209.9 698.5,209.5 699.3,209.1 700.0,208.7 700.8,208.4 701.5,208.0 702.3,207.6 703.0,207.1 703.7,206.9 704.5,206.4 705.2,206.0 706.0,205.6 706.7,213.6 707.5,213.2 708.2,212.8 709.0,212.5 709.7,212.2 710.4,211.8 711.2,211.5 711.9,211.1 712.7,210.8 713.4,210.4 714.2,210.0 714.9,209.6 715.6,209.4 716.4,208.9 717.1,208.5 717.9,208.1 718.6,207.8 719.4,207.4 720.1,207.0 720.9,206.5 721.6,214.4 722.3,214.0 723.1,213.6 723.8,213.2 724.6,213.0 725.3,212.6 726.1,212.2 726.8,211.8 727.6,211.6 728.3,211.2 729.0,210.8 729.8,210.4 730.5,210.1 731.3,209.7 732.0,209.3 732.8,208.9 733.5,208.6 734.2,208.2 735.0,207.7 735.7,207.3 736.5,215.0 737.2,214.6 738.0,214.3 738.7,213.9 739.5,213.7 740.2,213.3 740.9,212.9 741.7,212.5 742.4,212.2 743.2,211.8 743.9,211.4 744.7,211.0 745.4,210.8 746.2,210.4 746.9,209.9 747.6,209.5 748.4,209.2 749.1,208.8 749.9,208.4 750.6,207.9 751.4,215.5 752.1,215.2 752.8,214.8 753.6,214.4 754.3,214.2 755.1,213.8 755.8,213.4 756.6,213.0 757.3,212.8 758.1,212.4 758.8,211.9 759.5,211.5 760.3,211.3 761.0,210.9 761.8,210.4 762.5,210.0 763.3,209.7 764.0,209.3 764.8,208.9 765.5,208.4 766.2,216.0 767.0,215.6 767.7,215.2 768.5,214.8 769.2,214.6 770.0,214.2 770.7,213.8 771.4,213.4 772.2,213.2 772.9,212.8 773.7,212.4 774.4,211.9 775.2,211.7 775.9,211.3 776.7,210.8 777.4,210.4 778.1,210.2 778.9,209.7 779.6,209.3 780.4,208.8 781.1,216.3 781.9,215.9 782.6,215.5 783.4,215.2 784.1,214.9 784.8,214.5 785.6,214.1 786.3,213.7 787.1,213.5 787.8,213.1 788.6,212.7 789.3,212.3 790.0,212.0 790.8,211.6 791.5,211.2 792.3,210.8 793.0,210.5 793.8,210.0 794.5,209.6 795.3,209.2 796.0,216.6"/>
<text x="640" y="72" font-family="Arial" font-size="12" fill="#2563eb">sqrt trace Ppos</text>
</svg>