<svg xmlns="http://www.w3.org/2000/svg" width="820" height="320" viewBox="0 0 820 320">
<rect width="100%" height="100%" fill="white"/>
<text x="52" y="30" font-family="Arial" font-size="18" font-weight="700">ukf_nominal covariance bounds</text>
<line x1="52" y1="274" x2="796" y2="274" stroke="#263238"/>
<line x1="52" y1="42" x2="52" y2="274" stroke="#263238"/>
<text x="52" y="306" font-family="Arial" font-size="12">time (s)</text>
<text x="630" y="306" font-family="Arial" font-size="12">m</text>

<rect x="379.4" y="42" width="89.3" height="232" fill="#fef3c7" opacity="0.72"/>
<polyline fill="none" stroke="#0f766e" stroke-width="2.3" points="52.0,258.4 52.7,257.7 53.5,257.0 54.2,256.3 55.0,250.1 55.7,248.3 56.5,246.5 57.2,244.6 58.0,237.1 58.7,234.3 59.4,231.4 60.2,228.5 60.9,247.8 61.7,247.0 62.4,246.2 63.2,245.4 63.9,230.2 64.6,226.6 65.4,222.8 66.1,219.0 66.9,216.4 67.6,212.8 68.4,209.1 69.1,205.5 69.9,206.5 70.6,203.2 71.3,199.8 72.1,196.4 72.8,205.6 73.6,203.0 74.3,200.4 75.1,197.8 75.8,201.7 76.6,199.4 77.3,197.2 78.0,194.9 78.8,191.1 79.5,188.6 80.3,186.2 81.0,183.7 81.8,233.2 82.5,231.3 83.2,229.3 84.0,227.2 84.7,243.4 85.5,242.3 86.2,241.1 87.0,239.9 87.7,234.2 88.5,232.6 89.2,231.0 89.9,229.4 90.7,246.2 91.4,245.5 92.2,244.8 92.9,244.0 93.7,253.0 94.4,252.8 95.2,252.6 95.9,252.4 96.6,242.9 97.4,242.6 98.1,242.4 98.9,242.1 99.6,246.3 100.4,246.2 101.1,246.2 101.8,246.1 102.6,242.8 103.3,242.6 104.1,242.4 104.8,242.2 105.6,244.8 106.3,244.8 107.1,244.7 107.8,244.6 108.5,247.6 109.3,247.6 110.0,247.5 110.8,247.4 111.5,259.6 112.3,257.7 113.0,255.7 113.8,253.6 114.5,251.0 115.2,249.4 116.0,247.7 116.7,246.0 117.5,246.4 118.2,244.5 119.0,242.6 119.7,240.6 120.4,238.6 121.2,236.5 121.9,234.4 122.7,232.3 123.4,229.0 124.2,226.9 124.9,224.8 125.7,222.6 126.4,257.2 127.1,255.6 127.9,254.1 128.6,252.5 129.4,257.0 130.1,255.7 130.9,254.3 131.6,253.0 132.4,250.9 133.1,249.4 133.8,247.9 134.6,246.5 135.3,251.0 136.1,249.8 136.8,248.6 137.6,247.4 138.3,242.0 139.0,240.5 139.8,239.0 140.5,237.5 141.3,202.8 142.0,200.4 142.8,198.1 143.5,195.7 144.3,194.4 145.0,192.0 145.7,189.6 146.5,187.2 147.2,184.6 148.0,182.1 148.7,179.6 149.5,177.0 150.2,174.2 151.0,171.6 151.7,168.9 152.4,166.2 153.2,164.0 153.9,161.3 154.7,158.5 155.4,155.8 156.2,217.9 156.9,216.6 157.6,215.3 158.4,214.0 159.1,212.4 159.9,211.1 160.6,209.7 161.4,208.4 162.1,207.3 162.9,205.9 163.6,204.4 164.3,203.0 165.1,201.5 165.8,200.0 166.6,198.5 167.3,197.0 168.1,194.8 168.8,193.3 169.6,191.7 170.3,190.1 171.0,217.7 171.8,216.8 172.5,215.9 173.3,214.9 174.0,213.8 174.8,212.8 175.5,211.8 176.2,210.8 177.0,210.4 177.7,209.4 178.5,208.4 179.2,207.4 180.0,206.6 180.7,205.6 181.5,204.6 182.2,203.5 182.9,201.8 183.7,200.7 184.4,199.7 185.2,198.6 185.9,222.8 186.7,222.1 187.4,221.5 188.2,220.8 188.9,220.1 189.6,219.4 190.4,218.7 191.1,218.0 191.9,216.0 192.6,215.2 193.4,214.5 194.1,213.7 194.8,211.0 195.6,210.1 196.3,209.2 197.1,208.4 197.8,209.1 198.6,208.2 199.3,207.4 200.1,206.5 200.8,263.7 201.5,263.2 202.3,262.6 203.0,262.0 203.8,255.7 204.5,255.0 205.3,254.2 206.0,253.5 206.8,261.8 207.5,261.1 208.2,260.4 209.0,259.6 209.7,260.8 210.5,260.0 211.2,259.2 212.0,258.4 212.7,257.3 213.4,256.4 214.2,255.5 214.9,254.6 215.7,256.2 216.4,255.2 217.2,254.1 217.9,253.1 218.7,253.3 219.4,252.3 220.1,251.2 220.9,250.1 221.6,248.0 222.4,246.9 223.1,245.8 223.9,244.7 224.6,244.1 225.4,243.0 226.1,241.8 226.8,240.6 227.6,237.9 228.3,236.7 229.1,235.5 229.8,234.3 230.6,227.6 231.3,226.2 232.0,224.8 232.8,223.5 233.5,219.9 234.3,218.5 235.0,217.1 235.8,215.6 236.5,213.7 237.3,212.3 238.0,210.8 238.7,209.4 239.5,208.9 240.2,207.4 241.0,205.9 241.7,204.4 242.5,201.7 243.2,200.1 244.0,198.6 244.7,197.0 245.4,217.6 246.2,216.3 246.9,215.1 247.7,213.9 248.4,210.9 249.2,209.7 249.9,208.4 250.6,207.0 251.4,203.7 252.1,202.3 252.9,200.9 253.6,199.6 254.4,195.6 255.1,194.2 255.9,192.7 256.6,191.3 257.3,192.4 258.1,191.0 258.8,189.5 259.6,188.1 260.3,214.5 261.1,213.5 261.8,212.4 262.6,211.3 263.3,210.8 264.0,209.8 264.8,208.7 265.5,207.6 266.3,209.6 267.0,208.5 267.8,207.4 268.5,206.4 269.2,208.6 270.0,207.5 270.7,206.5 271.5,205.4 272.2,200.9 273.0,199.7 273.7,198.6 274.5,197.5 275.2,235.7 275.9,235.1 276.7,234.5 277.4,233.9 278.2,236.5 278.9,235.9 279.7,235.3 280.4,234.7 281.2,234.9 281.9,234.3 282.6,233.7 283.4,233.1 284.1,231.1 284.9,230.4 285.6,229.8 286.4,229.1 287.1,229.3 287.8,228.6 288.6,227.9 289.3,227.3 290.1,249.1 290.8,248.7 291.6,248.3 292.3,247.9 293.1,254.8 293.8,254.5 294.5,254.2 295.3,253.8 296.0,253.2 296.8,252.8 297.5,252.5 298.3,252.1 299.0,251.2 299.8,250.9 300.5,250.5 301.2,250.2 302.0,248.9 302.7,248.5 303.5,248.1 304.2,247.8 305.0,216.4 305.7,215.6 306.4,214.8 307.2,214.0 307.9,215.3 308.7,214.6 309.4,213.8 310.2,213.0 310.9,213.3 311.7,212.5 312.4,211.6 313.1,210.8 313.9,211.3 314.6,210.5 315.4,209.6 316.1,208.8 316.9,208.5 317.6,207.7 318.4,206.8 319.1,206.0 319.8,229.2 320.6,228.7 321.3,228.2 322.1,227.6 322.8,226.8 323.6,226.3 324.3,225.8 325.0,225.2 325.8,227.4 326.5,226.8 327.3,226.3 328.0,225.7 328.8,226.0 329.5,225.5 330.3,224.9 331.0,224.4 331.7,222.8 332.5,222.2 333.2,221.6 334.0,221.1 334.7,228.4 335.5,227.9 336.2,227.4 337.0,226.9 337.7,227.0 338.4,226.5 339.2,225.9 339.9,225.4 340.7,224.2 341.4,223.7 342.2,223.1 342.9,222.6 343.6,221.2 344.4,220.7 345.1,220.1 345.9,219.5 346.6,221.2 347.4,220.7 348.1,220.1 348.9,219.5 349.6,238.4 350.3,238.1 351.1,237.7 351.8,237.4 352.6,237.7 353.3,237.3 354.1,236.9 354.8,236.6 355.6,237.0 356.3,236.6 357.0,236.3 357.8,235.9 358.5,235.1 359.3,234.8 360.0,234.4 360.8,234.0 361.5,234.5 362.2,234.2 363.0,233.8 363.7,233.4 364.5,250.7 365.2,250.5 366.0,250.3 366.7,250.1 367.5,249.8 368.2,249.6 368.9,249.4 369.7,249.2 370.4,248.4 371.2,248.2 371.9,248.0 372.7,247.8 373.4,248.2 374.2,248.0 374.9,247.8 375.6,247.6 376.4,247.0 377.1,246.8 377.9,246.6 378.6,246.3 379.4,266.2 380.1,265.9 380.8,265.7 381.6,265.4 382.3,265.4 383.1,265.1 383.8,264.8 384.6,264.6 385.3,262.6 386.1,262.2 386.8,261.9 387.5,261.5 388.3,264.9 389.0,264.6 389.8,264.3 390.5,264.1 391.3,264.8 392.0,264.6 392.8,264.3 393.5,264.0 394.2,263.9 395.0,263.7 395.7,263.4 396.5,263.1 397.2,264.5 398.0,264.3 398.7,264.0 399.4,263.7 400.2,264.4 400.9,264.1 401.7,263.9 402.4,263.6 403.2,264.1 403.9,263.8 404.7,263.6 405.4,263.3 406.1,258.9 406.9,258.5 407.6,258.2 408.4,257.8 409.1,263.0 409.9,262.6 410.6,262.3 411.4,261.9 412.1,266.5 412.8,266.2 413.6,265.9 414.3,265.6 415.1,272.4 415.8,272.1 416.6,271.9 417.3,271.7 418.0,274.0 418.8,273.8 419.5,273.6 420.3,273.4 421.0,271.7 421.8,271.5 422.5,271.3 423.3,271.0 424.0,253.3 424.7,252.9 425.5,252.5 426.2,252.1 427.0,251.0 427.7,250.5 428.5,250.1 429.2,249.6 430.0,250.8 430.7,250.4 431.4,249.9 432.2,249.5 432.9,249.0 433.7,248.5 434.4,248.0 435.2,247.6 435.9,247.7 436.6,247.2 437.4,246.8 438.1,246.3 438.9,250.8 439.6,250.5 440.4,250.3 441.1,250.0 441.9,249.1 442.6,248.8 443.3,248.6 444.1,248.3 444.8,249.0 445.6,248.8 446.3,248.5 447.1,248.3 447.8,247.3 448.6,247.0 449.3,246.8 450.0,246.5 450.8,246.5 451.5,246.2 452.3,246.0 453.0,245.7 453.8,268.1 454.5,268.1 455.2,268.1 456.0,268.1 456.7,267.0 457.5,267.0 458.2,266.9 459.0,266.9 459.7,266.5 460.5,266.4 461.2,266.3 461.9,266.3 462.7,264.9 463.4,264.7 464.2,264.6 464.9,264.5 465.7,263.1 466.4,262.9 467.2,262.8 467.9,262.6 468.6,267.0 469.4,267.0 470.1,266.9 470.9,266.9 471.6,264.0 472.4,263.9 473.1,263.8 473.8,263.7 474.6,265.1 475.3,265.0 476.1,264.9 476.8,264.8 477.6,267.7 478.3,267.7 479.1,267.7 479.8,267.7 480.5,269.1 481.3,269.2 482.0,269.2 482.8,269.2 483.5,266.4 484.3,266.4 485.0,266.4 485.8,266.4 486.5,266.4 487.2,266.4 488.0,266.4 488.7,266.4 489.5,266.2 490.2,266.2 491.0,266.2 491.7,266.2 492.4,266.2 493.2,266.2 493.9,266.2 494.7,266.2 495.4,266.6 496.2,266.7 496.9,266.7 497.7,266.7 498.4,251.2 499.1,250.9 499.9,250.6 500.6,250.4 501.4,250.2 502.1,249.9 502.9,249.6 503.6,249.3 504.4,249.6 505.1,249.3 505.8,249.0 506.6,248.7 507.3,248.9 508.1,248.6 508.8,248.3 509.6,248.0 510.3,247.5 511.0,247.2 511.8,246.9 512.5,246.6 513.3,225.9 514.0,225.4 514.8,225.0 515.5,224.6 516.3,224.2 517.0,223.7 517.7,223.3 518.5,222.9 519.2,222.4 520.0,221.9 520.7,221.5 521.5,221.1 522.2,220.7 523.0,220.3 523.7,219.9 524.4,219.4 525.2,219.0 525.9,218.6 526.7,218.2 527.4,217.7 528.2,240.7 528.9,240.6 529.6,240.4 530.4,240.2 531.1,240.1 531.9,239.9 532.6,239.7 533.4,239.6 534.1,239.3 534.9,239.2 535.6,239.0 536.3,238.8 537.1,237.8 537.8,237.6 538.6,237.4 539.3,237.3 540.1,237.5 540.8,237.4 541.6,237.2 542.3,237.1 543.0,258.2 543.8,258.1 544.5,258.1 545.3,258.1 546.0,257.4 546.8,257.3 547.5,257.3 548.2,257.2 549.0,256.4 549.7,256.3 550.5,256.2 551.2,256.1 552.0,258.0 552.7,258.0 553.5,258.0 554.2,257.9 554.9,257.3 555.7,257.3 556.4,257.2 557.2,257.1 557.9,236.8 558.7,236.4 559.4,236.0 560.2,235.6 560.9,234.6 561.6,234.2 562.4,233.8 563.1,233.4 563.9,234.3 564.6,233.9 565.4,233.5 566.1,233.2 566.8,233.1 567.6,232.7 568.3,232.3 569.1,232.0 569.8,231.5 570.6,231.1 571.3,230.7 572.1,230.2 572.8,244.7 573.5,244.5 574.3,244.1 575.0,243.8 575.8,242.3 576.5,242.0 577.3,241.6 578.0,241.3 578.8,239.7 579.5,239.4 580.2,239.0 581.0,238.7 581.7,239.7 582.5,239.4 583.2,239.0 584.0,238.7 584.7,238.6 585.4,238.3 586.2,237.9 586.9,237.6 587.7,259.1 588.4,259.0 589.2,259.0 589.9,258.9 590.7,258.8 591.4,258.8 592.1,258.7 592.9,258.7 593.6,258.8 594.4,258.7 595.1,258.7 595.9,258.7 596.6,258.6 597.4,258.5 598.1,258.5 598.8,258.4 599.6,258.4 600.3,258.3 601.1,258.2 601.8,258.1 602.6,251.9 603.3,251.7 604.0,251.4 604.8,251.1 605.5,251.7 606.3,251.5 607.0,251.2 607.8,250.9 608.5,249.1 609.3,248.8 610.0,248.5 610.7,248.1 611.5,248.5 612.2,248.2 613.0,247.9 613.7,247.6 614.5,247.4 615.2,247.1 616.0,246.7 616.7,246.4 617.4,237.6 618.2,237.2 618.9,236.8 619.7,236.4 620.4,236.0 621.2,235.6 621.9,235.2 622.6,234.8 623.4,235.2 624.1,234.8 624.9,234.4 625.6,234.0 626.4,233.4 627.1,233.0 627.9,232.6 628.6,232.2 629.3,231.5 630.1,231.1 630.8,230.7 631.6,230.3 632.3,245.4 633.1,245.1 633.8,244.8 634.6,244.5 635.3,244.2 636.0,243.9 636.8,243.6 637.5,243.3 638.3,242.1 639.0,241.8 639.8,241.5 640.5,241.1 641.2,241.1 642.0,240.8 642.7,240.5 643.5,240.1 644.2,239.0 645.0,238.7 645.7,238.3 646.5,238.0 647.2,230.8 647.9,230.4 648.7,229.9 649.4,229.4 650.2,229.7 650.9,229.2 651.7,228.7 652.4,228.2 653.2,228.2 653.9,227.7 654.6,227.2 655.4,226.7 656.1,226.7 656.9,226.1 657.6,225.6 658.4,225.1 659.1,224.2 659.8,223.7 660.6,223.1 661.3,222.6 662.1,235.5 662.8,235.1 663.6,234.6 664.3,234.1 665.1,233.3 665.8,232.9 666.5,232.4 667.3,231.9 668.0,230.3 668.8,229.8 669.5,229.3 670.3,228.8 671.0,229.2 671.8,228.7 672.5,228.2 673.2,227.7 674.0,227.0 674.7,226.5 675.5,226.0 676.2,225.4 677.0,230.6 677.7,230.2 678.4,229.7 679.2,229.3 679.9,232.0 680.7,231.6 681.4,231.2 682.2,230.8 682.9,231.5 683.7,231.1 684.4,230.7 685.1,230.3 685.9,229.0 686.6,228.6 687.4,228.1 688.1,227.7 688.9,228.2 689.6,227.7 690.4,227.3 691.1,226.9 691.8,233.7 692.6,233.3 693.3,232.8 694.1,232.3 694.8,230.7 695.6,230.2 696.3,229.7 697.0,229.2 697.8,229.1 698.5,228.6 699.3,228.1 700.0,227.6 700.8,225.7 701.5,225.2 702.3,224.7 703.0,224.1 703.7,221.7 704.5,221.1 705.2,220.6 706.0,220.0 706.7,233.0 707.5,232.5 708.2,232.0 709.0,231.5 709.7,227.7 710.4,227.2 711.2,226.6 711.9,226.1 712.7,227.8 713.4,227.3 714.2,226.8 714.9,226.3 715.6,225.5 716.4,224.9 717.1,224.4 717.9,223.8 718.6,223.0 719.4,222.5 720.1,222.0 720.9,221.5 721.6,248.5 722.3,248.3 723.1,248.0 723.8,247.7 724.6,248.4 725.3,248.2 726.1,247.9 726.8,247.7 727.6,249.9 728.3,249.6 729.0,249.4 729.8,249.2 730.5,246.8 731.3,246.6 732.0,246.3 732.8,246.1 733.5,241.6 734.2,241.3 735.0,241.0 735.7,240.7 736.5,246.2 737.2,246.0 738.0,245.7 738.7,245.5 739.5,242.0 740.2,241.7 740.9,241.4 741.7,241.1 742.4,244.5 743.2,244.3 743.9,244.0 744.7,243.7 745.4,241.2 746.2,240.9 746.9,240.6 747.6,240.3 748.4,239.0 749.1,238.7 749.9,238.3 750.6,238.0 751.4,243.3 752.1,243.1 752.8,242.8 753.6,242.6 754.3,248.5 755.1,248.3 755.8,248.2 756.6,248.0 757.3,247.2 758.1,247.1 758.8,246.9 759.5,246.7 760.3,252.3 761.0,252.2 761.8,252.0 762.5,251.9 763.3,252.6 764.0,252.4 764.8,252.3 765.5,252.1 766.2,234.4 767.0,234.1 767.7,233.8 768.5,233.4 769.2,233.1 770.0,232.8 770.7,232.5 771.4,232.2 772.2,231.6 772.9,231.3 773.7,230.9 774.4,230.6 775.2,230.3 775.9,229.9 776.7,229.6 777.4,229.2 778.1,229.3 778.9,229.0 779.6,228.7 780.4,228.3 781.1,218.4 781.9,218.0 782.6,217.6 783.4,217.1 784.1,216.9 784.8,216.5 785.6,216.1 786.3,215.7 787.1,214.4 787.8,214.0 788.6,213.6 789.3,213.2 790.0,213.0 790.8,212.6 791.5,212.1 792.3,211.7 793.0,212.1 793.8,211.7 794.5,211.3 795.3,210.9 796.0,225.6"/>
<text x="640" y="56" font-family="Arial" font-size="12" fill="#0f766e">position error</text>
<polyline fill="none" stroke="#2563eb" stroke-width="2.3" points="52.0,212.1 52.7,210.6 53.5,206.1 54.2,199.3 55.0,199.2 55.7,190.3 56.5,180.1 57.2,169.2 58.0,164.3 58.7,153.3 59.4,141.9 60.2,130.2 60.9,122.4 61.7,110.8 62.4,99.1 63.2,87.3 63.9,77.6 64.6,65.8 65.4,53.9 66.1,42.0 66.9,220.8 67.6,217.6 68.4,214.2 69.1,210.7 69.9,210.2 70.6,206.7 71.3,203.1 72.1,199.3 72.8,197.7 73.6,194.0 74.3,190.1 75.1,186.2 75.8,183.8 76.6,179.9 77.3,175.9 78.0,171.8 78.8,168.9 79.5,164.8 80.3,160.6 81.0,156.4 81.8,226.6 82.5,224.6 83.2,222.6 84.0,220.5 84.7,219.9 85.5,217.8 86.2,215.5 87.0,213.2 87.7,212.2 88.5,209.8 89.2,207.3 89.9,204.8 90.7,203.3 91.4,200.7 92.2,198.0 92.9,195.3 93.7,193.5 94.4,190.6 95.2,187.7 95.9,184.7 96.6,230.0 97.4,228.2 98.1,226.4 98.9,224.5 99.6,224.0 100.4,222.0 101.1,219.9 101.8,217.8 102.6,216.9 103.3,214.6 104.1,212.3 104.8,209.9 105.6,208.6 106.3,206.1 107.1,203.5 107.8,200.8 108.5,199.2 109.3,196.4 110.0,193.6 110.8,190.6 111.5,231.1 112.3,229.4 113.0,227.6 113.8,225.7 114.5,225.1 115.2,223.1 116.0,221.1 116.7,218.9 117.5,218.0 118.2,215.7 119.0,213.4 119.7,211.1 120.4,209.7 121.2,207.2 121.9,204.7 122.7,202.1 123.4,200.4 124.2,197.7 124.9,194.9 125.7,192.1 126.4,231.7 127.1,230.1 127.9,228.4 128.6,226.6 129.4,225.9 130.1,224.1 130.9,222.2 131.6,220.2 132.4,219.2 133.1,217.2 133.8,215.1 134.6,212.9 135.3,211.6 136.1,209.4 136.8,207.1 137.6,204.8 138.3,203.1 139.0,200.7 139.8,198.3 140.5,195.8 141.3,232.7 142.0,231.3 142.8,229.7 143.5,228.2 144.3,227.5 145.0,225.9 145.7,224.2 146.5,222.5 147.2,221.5 148.0,219.8 148.7,218.0 149.5,216.1 150.2,214.9 151.0,213.0 151.7,211.1 152.4,209.1 153.2,207.7 153.9,205.7 154.7,203.6 155.4,201.5 156.2,234.0 156.9,232.7 157.6,231.4 158.4,230.0 159.1,229.3 159.9,228.0 160.6,226.5 161.4,225.1 162.1,224.2 162.9,222.7 163.6,221.2 164.3,219.6 165.1,218.6 165.8,217.0 166.6,215.4 167.3,213.7 168.1,212.5 168.8,210.8 169.6,209.1 170.3,207.3 171.0,235.2 171.8,234.1 172.5,232.9 173.3,231.8 174.0,231.2 174.8,230.0 175.5,228.7 176.2,227.5 177.0,226.7 177.7,225.4 178.5,224.1 179.2,222.8 180.0,221.9 180.7,220.6 181.5,219.2 182.2,217.8 182.9,216.8 183.7,215.3 184.4,213.9 185.2,212.4 185.9,236.3 186.7,235.3 187.4,234.3 188.2,233.3 188.9,232.7 189.6,231.7 190.4,230.6 191.1,229.5 191.9,228.9 192.6,227.7 193.4,226.6 194.1,225.5 194.8,224.7 195.6,223.5 196.3,222.3 197.1,221.1 197.8,220.3 198.6,219.0 199.3,217.8 200.1,216.5 200.8,237.3 201.5,236.4 202.3,235.5 203.0,234.6 203.8,234.1 204.5,233.2 205.3,232.2 206.0,231.3 206.8,230.7 207.5,229.7 208.2,228.7 209.0,227.7 209.7,227.0 210.5,226.0 211.2,225.0 212.0,223.9 212.7,223.2 213.4,222.1 214.2,221.0 214.9,219.9 215.7,238.2 216.4,237.4 217.2,236.6 217.9,235.8 218.7,235.3 219.4,234.5 220.1,233.6 220.9,232.8 221.6,232.3 222.4,231.4 223.1,230.5 223.9,229.6 224.6,229.0 225.4,228.1 226.1,227.2 226.8,226.3 227.6,225.6 228.3,224.7 229.1,223.7 229.8,222.7 230.6,239.1 231.3,238.4 232.0,237.7 232.8,237.0 233.5,236.5 234.3,235.8 235.0,235.0 235.8,234.3 236.5,233.8 237.3,233.0 238.0,232.2 238.7,231.4 239.5,230.9 240.2,230.1 241.0,229.3 241.7,228.4 242.5,227.9 243.2,227.0 244.0,226.2 244.7,225.3 245.4,240.2 246.2,239.6 246.9,238.9 247.7,238.3 248.4,237.9 249.2,237.2 249.9,236.5 250.6,235.8 251.4,235.4 252.1,234.7 252.9,234.0 253.6,233.3 254.4,232.8 255.1,232.1 255.9,231.3 256.6,230.6 257.3,230.1 258.1,229.3 258.8,228.6 259.6,227.8 260.3,241.5 261.1,240.9 261.8,240.3 262.6,239.7 263.3,239.4 264.0,238.7 264.8,238.1 265.5,237.5 266.3,237.1 267.0,236.5 267.8,235.8 268.5,235.2 269.2,234.8 270.0,234.1 270.7,233.4 271.5,232.8 272.2,232.3 273.0,231.6 273.7,230.9 274.5,230.2 275.2,242.8 275.9,242.3 276.7,241.7 277.4,241.2 278.2,240.9 278.9,240.3 279.7,239.8 280.4,239.2 281.2,238.9 281.9,238.3 282.6,237.7 283.4,237.1 284.1,236.7 284.9,236.1 285.6,235.5 286.4,234.9 287.1,234.5 287.8,233.9 288.6,233.2 289.3,232.6 290.1,244.1 290.8,243.6 291.6,243.1 292.3,242.6 293.1,242.4 293.8,241.8 294.5,241.3 295.3,240.8 296.0,240.5 296.8,239.9 297.5,239.4 298.3,238.8 299.0,238.5 299.8,238.0 300.5,237.4 301.2,236.8 302.0,236.5 302.7,235.9 303.5,235.3 304.2,234.7 305.0,245.2 305.7,244.8 306.4,244.3 307.2,243.8 307.9,243.6 308.7,243.1 309.4,242.6 310.2,242.1 310.9,241.8 311.7,241.3 312.4,240.8 313.1,240.3 313.9,240.0 314.6,239.5 315.4,239.0 316.1,238.4 316.9,238.1 317.6,237.6 318.4,237.0 319.1,236.5 319.8,246.1 320.6,245.7 321.3,245.2 322.1,244.7 322.8,244.5 323.6,244.1 324.3,243.6 325.0,243.1 325.8,242.9 326.5,242.4 327.3,241.9 328.0,241.5 328.8,241.2 329.5,240.7 330.3,240.2 331.0,239.7 331.7,239.4 332.5,238.9 333.2,238.4 334.0,237.9 334.7,246.7 335.5,246.3 336.2,245.8 337.0,245.4 337.7,245.2 338.4,244.8 339.2,244.3 339.9,243.9 340.7,243.7 341.4,243.2 342.2,242.7 342.9,242.3 343.6,242.0 344.4,241.6 345.1,241.1 345.9,240.6 346.6,240.3 347.4,239.8 348.1,239.4 348.9,238.9 349.6,247.0 350.3,246.6 351.1,246.2 351.8,245.8 352.6,245.6 353.3,245.2 354.1,244.8 354.8,244.3 355.6,244.1 356.3,243.7 357.0,243.2 357.8,242.8 358.5,242.6 359.3,242.1 360.0,241.7 360.8,241.2 361.5,240.9 362.2,240.5 363.0,240.0 363.7,239.5 364.5,247.2 365.2,246.8 366.0,246.4 366.7,246.0 367.5,245.8 368.2,245.4 368.9,245.0 369.7,244.6 370.4,244.4 371.2,243.9 371.9,243.5 372.7,243.1 373.4,242.9 374.2,242.4 374.9,242.0 375.6,241.5 376.4,241.3 377.1,240.8 377.9,240.4 378.6,239.9 379.4,246.4 380.1,246.0 380.8,245.6 381.6,245.1 382.3,244.9 383.1,244.5 383.8,244.0 384.6,243.6 385.3,243.4 386.1,242.9 386.8,242.5 387.5,242.0 388.3,241.8 389.0,241.3 389.8,240.8 390.5,240.3 391.3,240.1 392.0,239.6 392.8,239.1 393.5,238.6 394.2,245.3 395.0,244.9 395.7,244.4 396.5,244.0 397.2,243.8 398.0,243.4 398.7,242.9 399.4,242.5 400.2,242.2 400.9,241.8 401.7,241.3 402.4,240.9 403.2,240.6 403.9,240.2 404.7,239.7 405.4,239.2 406.1,238.9 406.9,238.5 407.6,238.0 408.4,237.5 409.1,244.2 409.9,243.8 410.6,243.4 411.4,243.0 412.1,242.8 412.8,242.3 413.6,241.9 414.3,241.4 415.1,241.2 415.8,240.8 416.6,240.3 417.3,239.8 418.0,239.6 418.8,239.1 419.5,238.7 420.3,238.2 421.0,237.9 421.8,237.4 422.5,237.0 423.3,236.5 424.0,243.2 424.7,242.8 425.5,242.4 426.2,241.9 427.0,241.7 427.7,241.3 428.5,240.9 429.2,240.4 430.0,240.2 430.7,239.7 431.4,239.3 432.2,238.8 432.9,238.6 433.7,238.1 434.4,237.7 435.2,237.2 435.9,236.9 436.6,236.4 437.4,236.0 438.1,235.5 438.9,242.2 439.6,241.8 440.4,241.3 441.1,240.9 441.9,240.7 442.6,240.3 443.3,239.8 444.1,239.4 444.8,239.2 445.6,238.7 446.3,238.3 447.1,237.8 447.8,237.6 448.6,237.1 449.3,236.6 450.0,236.2 450.8,235.9 451.5,235.4 452.3,234.9 453.0,234.5 453.8,241.1 454.5,240.7 455.2,240.3 456.0,239.8 456.7,239.6 457.5,239.2 458.2,238.8 459.0,238.3 459.7,238.1 460.5,237.6 461.2,237.2 461.9,236.7 462.7,236.5 463.4,236.0 464.2,235.6 464.9,235.1 465.7,234.8 466.4,234.4 467.2,233.9 467.9,233.4 468.6,240.0 469.4,239.6 470.1,239.2 470.9,238.9 471.6,238.7 472.4,238.3 473.1,237.9 473.8,237.5 474.6,237.3 475.3,236.8 476.1,236.4 476.8,236.0 477.6,235.8 478.3,235.4 479.1,235.0 479.8,234.5 480.5,234.3 481.3,233.9 482.0,233.4 482.8,233.0 483.5,240.9 484.3,240.6 485.0,240.2 485.8,239.8 486.5,239.6 487.2,239.3 488.0,238.9 488.7,238.5 489.5,238.3 490.2,237.9 491.0,237.5 491.7,237.1 492.4,236.9 493.2,236.5 493.9,236.1 494.7,235.7 495.4,235.5 496.2,235.0 496.9,234.6 497.7,234.2 498.4,241.4 499.1,241.0 499.9,240.7 500.6,240.3 501.4,240.1 502.1,239.7 502.9,239.4 503.6,239.0 504.4,238.8 505.1,238.4 505.8,238.0 506.6,237.6 507.3,237.4 508.1,237.0 508.8,236.6 509.6,236.2 510.3,236.0 511.0,235.6 511.8,235.2 512.5,234.8 513.3,241.5 514.0,241.1 514.8,240.8 515.5,240.4 516.3,240.3 517.0,239.9 517.7,239.5 518.5,239.1 519.2,239.0 520.0,238.6 520.7,238.2 521.5,237.8 522.2,237.6 523.0,237.2 523.7,236.8 524.4,236.4 525.2,236.2 525.9,235.8 526.7,235.4 527.4,235.0 528.2,241.4 528.9,241.0 529.6,240.7 530.4,240.3 531.1,240.2 531.9,239.8 532.6,239.4 533.4,239.1 534.1,238.9 534.9,238.5 535.6,238.1 536.3,237.7 537.1,237.5 537.8,237.1 538.6,236.8 539.3,236.4 540.1,236.2 540.8,235.8 541.6,235.4 542.3,235.0 543.0,241.2 543.8,240.8 544.5,240.4 545.3,240.1 546.0,239.9 546.8,239.6 547.5,239.2 548.2,238.8 549.0,238.6 549.7,238.3 550.5,237.9 551.2,237.5 552.0,237.3 552.7,236.9 553.5,236.5 554.2,236.1 554.9,235.9 555.7,235.5 556.4,235.1 557.2,234.7 557.9,240.8 558.7,240.5 559.4,240.1 560.2,239.7 560.9,239.6 561.6,239.2 562.4,238.8 563.1,238.5 563.9,238.3 564.6,237.9 565.4,237.5 566.1,237.2 566.8,237.0 567.6,236.6 568.3,236.2 569.1,235.8 569.8,235.6 570.6,235.2 571.3,234.8 572.1,234.4 572.8,240.4 573.5,240.1 574.3,239.7 575.0,239.3 575.8,239.2 576.5,238.8 577.3,238.4 578.0,238.1 578.8,237.9 579.5,237.5 580.2,237.1 581.0,236.8 581.7,236.6 582.5,236.2 583.2,235.8 584.0,235.4 584.7,235.2 585.4,234.8 586.2,234.4 586.9,234.0 587.7,238.1 588.4,237.8 589.2,237.4 589.9,237.0 590.7,236.8 591.4,236.5 592.1,236.1 592.9,235.7 593.6,235.5 594.4,235.1 595.1,234.7 595.9,234.3 596.6,234.1 597.4,233.7 598.1,233.3 598.8,232.9 599.6,232.7 600.3,232.3 601.1,231.9 601.8,231.5 602.6,238.1 603.3,237.7 604.0,237.4 604.8,237.0 605.5,236.8 606.3,236.5 607.0,236.1 607.8,235.7 608.5,235.5 609.3,235.1 610.0,234.8 610.7,234.4 611.5,234.2 612.2,233.8 613.0,233.4 613.7,233.0 614.5,232.8 615.2,232.4 616.0,232.0 616.7,231.6 617.4,238.0 618.2,237.6 618.9,237.3 619.7,236.9 620.4,236.7 621.2,236.4 621.9,236.0 622.6,235.6 623.4,235.4 624.1,235.1 624.9,234.7 625.6,234.3 626.4,234.1 627.1,233.7 627.9,233.3 628.6,232.9 629.3,232.7 630.1,232.3 630.8,231.9 631.6,231.5 632.3,237.8 633.1,237.5 633.8,237.1 634.6,236.8 635.3,236.6 636.0,236.2 636.8,235.8 637.5,235.5 638.3,235.3 639.0,234.9 639.8,234.5 640.5,234.2 641.2,233.9 642.0,233.6 642.7,233.2 643.5,232.8 644.2,232.6 645.0,232.2 645.7,231.8 646.5,231.4 647.2,237.6 647.9,237.2 648.7,236.9 649.4,236.5 650.2,236.3 650.9,236.0 651.7,235.6 652.4,235.3 653.2,235.1 653.9,234.7 654.6,234.3 655.4,233.9 656.1,233.7 656.9,233.3 657.6,233.0 658.4,232.6 659.1,232.4 659.8,232.0 660.6,231.6 661.3,231.2 662.1,237.3 662.8,237.0 663.6,236.6 664.3,236.3 665.1,236.1 665.8,235.7 666.5,235.4 667.3,235.0 668.0,234.8 668.8,234.4 669.5,234.1 670.3,233.7 671.0,233.5 671.8,233.1 672.5,232.7 673.2,232.3 674.0,232.1 674.7,231.7 675.5,231.3 676.2,230.9 677.0,237.0 677.7,236.7 678.4,236.3 679.2,236.0 679.9,235.8 680.7,235.4 681.4,235.1 682.2,234.7 682.9,234.5 683.7,234.1 684.4,233.8 685.1,233.4 685.9,233.2 686.6,232.8 687.4,232.4 688.1,232.0 688.9,231.8 689.6,231.4 690.4,231.0 691.1,230.7 691.8,236.7 692.6,236.4 693.3,236.0 694.1,235.7 694.8,235.5 695.6,235.1 696.3,234.8 697.0,234.4 697.8,234.2 698.5,233.8 699.3,233.5 700.0,233.1 700.8,232.9 701.5,232.5 702.3,232.1 703.0,231.7 703.7,231.5 704.5,231.1 705.2,230.7 706.0,230.3 706.7,236.4 707.5,236.0 708.2,235.7 709.0,235.3 709.7,235.1 710.4,234.8 711.2,234.4 711.9,234.1 712.7,233.9 713.4,233.5 714.2,233.1 714.9,232.8 715.6,232.5 716.4,232.2 717.1,231.8 717.9,231.4 718.6,231.2 719.4,230.8 720.1,230.4 720.9,230.0 721.6,236.1 722.3,235.7 723.1,235.4 723.8,235.0 724.6,234.8 725.3,234.5 726.1,234.1 726.8,233.7 727.6,233.5 728.3,233.2 729.0,232.8 729.8,232.4 730.5,232.2 731.3,231.8 732.0,231.5 732.8,231.1 733.5,230.9 734.2,230.5 735.0,230.1 735.7,229.7 736.5,235.7 737.2,235.4 738.0,235.0 738.7,234.7 739.5,234.5 740.2,234.1 740.9,233.8 741.7,233.4 742.4,233.2 743.2,232.9 743.9,232.5 744.7,232.1 745.4,231.9 746.2,231.5 746.9,231.2 747.6,230.8 748.4,230.5 749.1,230.2 749.9,229.8 750.6,229.4 751.4,235.4 752.1,235.1 752.8,234.7 753.6,234.4 754.3,234.2 755.1,233.8 755.8,233.5 756.6,233.1 757.3,232.9 758.1,232.5 758.8,232.2 759.5,231.8 760.3,231.6 761.0,231.2 761.8,230.8 762.5,230.5 763.3,230.2 764.0,229.8 764.8,229.5 765.5,229.1 766.2,235.1 767.0,234.8 767.7,234.4 768.5,234.1 769.2,233.9 770.0,233.5 770.7,233.2 771.4,232.8 772.2,232.6 772.9,232.2 773.7,231.9 774.4,231.5 775.2,231.3 775.9,230.9 776.7,230.5 777.4,230.2 778.1,229.9 778.9,229.5 779.6,229.2 780.4,228.8 781.1,234.8 781.9,234.5 782.6,234.1 783.4,233.8 784.1,233.6 784.8,233.2 785.6,232.9 786.3,232.5 787.1,232.3 787.8,231.9 788.6,231.6 789.3,231.2 790.0,231.0 790.8,230.6 791.5,230.2 792.3,229.9 793.0,229.6 793.8,229.2 794.5,228.9 795.3,228.5 796.0,234.5"/>
<text x="640" y="72" font-family="Arial" font-size="12" fill="#2563eb">sqrt trace Ppos</text>
</svg>