<svg xmlns="http://www.w3.org/2000/svg" width="820" height="320" viewBox="0 0 820 320">
<rect width="100%" height="100%" fill="white"/>
<text x="52" y="30" font-family="Arial" font-size="18" font-weight="700">ekf_nominal covariance bounds</text>
<line x1="52" y1="274" x2="796" y2="274" stroke="#263238"/>
<line x1="52" y1="42" x2="52" y2="274" stroke="#263238"/>
<text x="52" y="306" font-family="Arial" font-size="12">time (s)</text>
<text x="630" y="306" font-family="Arial" font-size="12">m</text>

<rect x="379.4" y="42" width="89.3" height="232" fill="#fef3c7" opacity="0.72"/>
<polyline fill="none" stroke="#0f766e" stroke-width="2.3" points="52.0,257.6 52.7,256.5 53.5,255.4 54.2,254.3 55.0,248.4 55.7,246.4 56.5,244.3 57.2,242.3 58.0,235.0 58.7,232.0 59.4,229.1 60.2,226.1 60.9,243.4 61.7,242.5 62.4,241.4 63.2,240.4 63.9,226.6 64.6,222.9 65.4,219.2 66.1,215.4 66.9,219.7 67.6,215.4 68.4,211.1 69.1,206.7 69.9,207.2 70.6,203.2 71.3,199.1 72.1,195.0 72.8,203.4 73.6,200.0 74.3,196.7 75.1,193.3 75.8,196.1 76.6,193.1 77.3,190.0 78.0,186.9 78.8,182.5 79.5,179.2 80.3,176.0 81.0,172.7 81.8,233.3 82.5,231.1 83.2,228.9 84.0,226.6 84.7,241.8 85.5,240.4 86.2,239.0 87.0,237.5 87.7,231.9 88.5,230.1 89.2,228.4 89.9,226.6 90.7,241.5 91.4,240.6 92.2,239.6 92.9,238.7 93.7,245.7 94.4,245.2 95.2,244.7 95.9,244.2 96.6,241.9 97.4,241.4 98.1,241.0 98.9,240.5 99.6,244.2 100.4,243.9 101.1,243.6 101.8,243.4 102.6,240.1 103.3,239.8 104.1,239.4 104.8,239.1 105.6,241.3 106.3,241.1 107.1,240.8 107.8,240.6 108.5,243.0 109.3,242.8 110.0,242.6 110.8,242.4 111.5,263.8 112.3,261.8 113.0,259.7 113.8,257.6 114.5,254.8 115.2,253.2 116.0,251.5 116.7,249.7 117.5,250.2 118.2,248.2 119.0,246.2 119.7,244.1 120.4,242.0 121.2,239.8 121.9,237.5 122.7,235.3 123.4,231.7 124.2,229.5 124.9,227.2 125.7,224.9 126.4,259.0 127.1,257.3 127.9,255.6 128.6,253.9 129.4,258.1 130.1,256.6 130.9,255.1 131.6,253.5 132.4,251.2 133.1,249.6 133.8,247.9 134.6,246.2 135.3,250.2 136.1,248.7 136.8,247.2 137.6,245.8 138.3,240.3 139.0,238.6 139.8,236.8 140.5,235.0 141.3,204.1 142.0,201.8 142.8,199.4 143.5,197.0 144.3,195.8 145.0,193.4 145.7,191.0 146.5,188.6 147.2,186.0 148.0,183.5 148.7,181.0 149.5,178.4 150.2,175.6 151.0,173.0 151.7,170.3 152.4,167.6 153.2,165.4 153.9,162.6 154.7,159.9 155.4,157.1 156.2,220.6 156.9,219.5 157.6,218.3 158.4,217.2 159.1,215.7 159.9,214.5 160.6,213.3 161.4,212.1 162.1,211.2 162.9,209.9 163.6,208.6 164.3,207.4 165.1,206.1 165.8,204.7 166.6,203.4 167.3,202.1 168.1,200.1 168.8,198.7 169.6,197.3 170.3,195.9 171.0,219.6 171.8,218.7 172.5,217.7 173.3,216.8 174.0,215.7 174.8,214.7 175.5,213.8 176.2,212.8 177.0,212.4 177.7,211.4 178.5,210.5 179.2,209.5 180.0,208.6 180.7,207.7 181.5,206.7 182.2,205.7 182.9,203.9 183.7,202.9 184.4,201.8 185.2,200.8 185.9,226.0 186.7,225.5 187.4,224.9 188.2,224.4 188.9,223.8 189.6,223.2 190.4,222.7 191.1,222.1 191.9,220.2 192.6,219.6 193.4,218.9 194.1,218.3 194.8,215.6 195.6,214.9 196.3,214.2 197.1,213.5 197.8,214.4 198.6,213.7 199.3,213.1 200.1,212.4 200.8,267.5 201.5,267.0 202.3,266.4 203.0,265.8 203.8,259.1 204.5,258.4 205.3,257.6 206.0,256.8 206.8,266.0 207.5,265.3 208.2,264.5 209.0,263.7 209.7,265.1 210.5,264.3 211.2,263.5 212.0,262.6 212.7,261.4 213.4,260.5 214.2,259.6 214.9,258.7 215.7,257.9 216.4,256.8 217.2,255.7 217.9,254.6 218.7,254.7 219.4,253.6 220.1,252.5 220.9,251.3 221.6,249.2 222.4,248.0 223.1,246.8 223.9,245.6 224.6,245.0 225.4,243.8 226.1,242.6 226.8,241.3 227.6,238.5 228.3,237.2 229.1,236.0 229.8,234.7 230.6,228.0 231.3,226.6 232.0,225.1 232.8,223.7 233.5,220.0 234.3,218.5 235.0,217.0 235.8,215.5 236.5,213.5 237.3,212.0 238.0,210.4 238.7,208.9 239.5,208.3 240.2,206.7 241.0,205.1 241.7,203.5 242.5,200.7 243.2,199.1 244.0,197.4 244.7,195.8 245.4,217.4 246.2,216.1 246.9,214.8 247.7,213.4 248.4,210.4 249.2,209.1 249.9,207.7 250.6,206.2 251.4,202.8 252.1,201.4 252.9,199.9 253.6,198.4 254.4,194.4 255.1,192.8 255.9,191.3 256.6,189.7 257.3,190.8 258.1,189.2 258.8,187.7 259.6,186.1 260.3,214.8 261.1,213.6 261.8,212.5 262.6,211.4 263.3,210.8 264.0,209.7 264.8,208.5 265.5,207.4 266.3,209.2 267.0,208.1 267.8,207.0 268.5,205.8 269.2,207.9 270.0,206.8 270.7,205.7 271.5,204.5 272.2,199.9 273.0,198.7 273.7,197.5 274.5,196.3 275.2,236.7 275.9,236.1 276.7,235.4 277.4,234.8 278.2,237.4 278.9,236.8 279.7,236.1 280.4,235.5 281.2,235.6 281.9,235.0 282.6,234.3 283.4,233.7 284.1,231.6 284.9,230.9 285.6,230.2 286.4,229.5 287.1,229.7 287.8,228.9 288.6,228.2 289.3,227.5 290.1,252.2 290.8,251.9 291.6,251.5 292.3,251.2 293.1,258.7 293.8,258.4 294.5,258.2 295.3,257.9 296.0,257.3 296.8,257.0 297.5,256.7 298.3,256.4 299.0,255.5 299.8,255.2 300.5,254.9 301.2,254.6 302.0,253.3 302.7,253.0 303.5,252.7 304.2,252.4 305.0,218.7 305.7,218.0 306.4,217.2 307.2,216.4 307.9,217.8 308.7,217.0 309.4,216.2 310.2,215.5 310.9,215.8 311.7,215.0 312.4,214.2 313.1,213.4 313.9,213.9 314.6,213.1 315.4,212.3 316.1,211.5 316.9,211.3 317.6,210.4 318.4,209.6 319.1,208.7 319.8,231.4 320.6,230.9 321.3,230.3 322.1,229.8 322.8,229.0 323.6,228.5 324.3,227.9 325.0,227.4 325.8,229.6 326.5,229.1 327.3,228.5 328.0,228.0 328.8,228.3 329.5,227.8 330.3,227.2 331.0,226.7 331.7,225.1 332.5,224.5 333.2,223.9 334.0,223.3 334.7,231.9 335.5,231.4 336.2,231.0 337.0,230.5 337.7,230.7 338.4,230.2 339.2,229.7 339.9,229.2 340.7,228.0 341.4,227.5 342.2,227.0 342.9,226.5 343.6,225.2 344.4,224.6 345.1,224.1 345.9,223.6 346.6,225.5 347.4,225.0 348.1,224.4 348.9,223.9 349.6,240.8 350.3,240.5 351.1,240.2 351.8,239.8 352.6,240.1 353.3,239.8 354.1,239.4 354.8,239.1 355.6,239.5 356.3,239.2 357.0,238.8 357.8,238.5 358.5,237.7 359.3,237.3 360.0,237.0 360.8,236.6 361.5,237.1 362.2,236.8 363.0,236.4 363.7,236.1 364.5,252.3 365.2,252.0 366.0,251.8 366.7,251.6 367.5,251.3 368.2,251.1 368.9,250.9 369.7,250.7 370.4,249.8 371.2,249.6 371.9,249.4 372.7,249.2 373.4,249.5 374.2,249.3 374.9,249.1 375.6,248.9 376.4,248.3 377.1,248.1 377.9,247.8 378.6,247.5 379.4,266.2 380.1,265.9 380.8,265.6 381.6,265.3 382.3,265.2 383.1,264.9 383.8,264.6 384.6,264.3 385.3,262.4 386.1,262.0 386.8,261.6 387.5,261.3 388.3,264.2 389.0,263.9 389.8,263.6 390.5,263.3 391.3,263.9 392.0,263.6 392.8,263.3 393.5,263.0 394.2,263.9 395.0,263.6 395.7,263.3 396.5,263.0 397.2,264.2 398.0,263.9 398.7,263.6 399.4,263.3 400.2,263.8 400.9,263.5 401.7,263.2 402.4,262.9 403.2,263.3 403.9,263.0 404.7,262.7 405.4,262.4 406.1,258.4 406.9,258.0 407.6,257.6 408.4,257.2 409.1,264.4 409.9,264.0 410.6,263.6 411.4,263.2 412.1,267.6 412.8,267.3 413.6,267.0 414.3,266.6 415.1,272.9 415.8,272.6 416.6,272.3 417.3,272.1 418.0,274.0 418.8,273.8 419.5,273.6 420.3,273.3 421.0,271.9 421.8,271.7 422.5,271.5 423.3,271.2 424.0,253.5 424.7,253.1 425.5,252.7 426.2,252.2 427.0,251.1 427.7,250.7 428.5,250.2 429.2,249.7 430.0,250.8 430.7,250.4 431.4,249.9 432.2,249.4 432.9,248.9 433.7,248.4 434.4,247.9 435.2,247.4 435.9,247.5 436.6,247.0 437.4,246.5 438.1,246.1 438.9,250.0 439.6,249.7 440.4,249.4 441.1,249.1 441.9,248.2 442.6,247.9 443.3,247.6 444.1,247.2 444.8,247.8 445.6,247.5 446.3,247.3 447.1,247.0 447.8,246.0 448.6,245.7 449.3,245.4 450.0,245.1 450.8,245.0 451.5,244.7 452.3,244.4 453.0,244.1 453.8,268.2 454.5,268.2 455.2,268.1 456.0,268.1 456.7,267.1 457.5,267.1 458.2,267.0 459.0,266.9 459.7,266.5 460.5,266.5 461.2,266.4 461.9,266.3 462.7,265.0 463.4,264.9 464.2,264.7 464.9,264.6 465.7,263.3 466.4,263.1 467.2,262.9 467.9,262.8 468.6,266.8 469.4,266.7 470.1,266.7 470.9,266.6 471.6,264.0 472.4,263.9 473.1,263.8 473.8,263.6 474.6,264.9 475.3,264.8 476.1,264.7 476.8,264.5 477.6,267.1 478.3,267.0 479.1,267.0 479.8,266.9 480.5,268.1 481.3,268.1 482.0,268.1 482.8,268.1 483.5,266.5 484.3,266.5 485.0,266.5 485.8,266.5 486.5,266.4 487.2,266.4 488.0,266.4 488.7,266.4 489.5,266.1 490.2,266.1 491.0,266.1 491.7,266.1 492.4,266.0 493.2,266.0 493.9,266.0 494.7,265.9 495.4,266.3 496.2,266.3 496.9,266.3 497.7,266.3 498.4,253.9 499.1,253.6 499.9,253.4 500.6,253.1 501.4,253.0 502.1,252.7 502.9,252.4 503.6,252.2 504.4,252.4 505.1,252.2 505.8,251.9 506.6,251.6 507.3,251.9 508.1,251.6 508.8,251.3 509.6,251.0 510.3,250.5 511.0,250.3 511.8,250.0 512.5,249.7 513.3,226.7 514.0,226.2 514.8,225.8 515.5,225.4 516.3,224.9 517.0,224.5 517.7,224.0 518.5,223.6 519.2,223.1 520.0,222.6 520.7,222.2 521.5,221.8 522.2,221.4 523.0,220.9 523.7,220.5 524.4,220.1 525.2,219.7 525.9,219.2 526.7,218.8 527.4,218.3 528.2,241.6 528.9,241.4 529.6,241.2 530.4,241.1 531.1,240.9 531.9,240.7 532.6,240.5 533.4,240.3 534.1,240.1 534.9,239.9 535.6,239.7 536.3,239.6 537.1,238.5 537.8,238.3 538.6,238.1 539.3,238.0 540.1,238.2 540.8,238.1 541.6,237.9 542.3,237.7 543.0,260.8 543.8,260.8 544.5,260.8 545.3,260.8 546.0,260.0 546.8,260.0 547.5,260.0 548.2,260.0 549.0,259.1 549.7,259.1 550.5,259.0 551.2,259.0 552.0,261.0 552.7,261.0 553.5,261.0 554.2,261.0 554.9,260.4 555.7,260.4 556.4,260.3 557.2,260.3 557.9,240.6 558.7,240.2 559.4,239.9 560.2,239.5 560.9,238.4 561.6,238.0 562.4,237.6 563.1,237.3 563.9,238.3 564.6,238.0 565.4,237.6 566.1,237.3 566.8,237.3 567.6,236.9 568.3,236.5 569.1,236.2 569.8,235.7 570.6,235.3 571.3,235.0 572.1,234.6 572.8,248.7 573.5,248.4 574.3,248.1 575.0,247.9 575.8,246.3 576.5,245.9 577.3,245.6 578.0,245.3 578.8,243.7 579.5,243.4 580.2,243.0 581.0,242.7 581.7,243.9 582.5,243.6 583.2,243.2 584.0,242.9 584.7,242.9 585.4,242.6 586.2,242.2 586.9,241.9 587.7,263.1 588.4,263.1 589.2,263.1 589.9,263.1 590.7,263.0 591.4,263.0 592.1,263.0 592.9,263.0 593.6,263.1 594.4,263.1 595.1,263.1 595.9,263.1 596.6,263.1 597.4,263.0 598.1,263.0 598.8,263.0 599.6,263.0 600.3,263.0 601.1,262.9 601.8,262.9 602.6,256.1 603.3,255.8 604.0,255.6 604.8,255.3 605.5,256.0 606.3,255.8 607.0,255.6 607.8,255.3 608.5,253.3 609.3,253.0 610.0,252.7 610.7,252.4 611.5,252.9 612.2,252.6 613.0,252.3 613.7,252.0 614.5,251.9 615.2,251.5 616.0,251.2 616.7,250.9 617.4,241.4 618.2,241.0 618.9,240.6 619.7,240.2 620.4,239.8 621.2,239.4 621.9,239.1 622.6,238.7 623.4,239.1 624.1,238.8 624.9,238.4 625.6,238.0 626.4,237.5 627.1,237.1 627.9,236.7 628.6,236.3 629.3,235.6 630.1,235.2 630.8,234.8 631.6,234.4 632.3,249.2 633.1,248.9 633.8,248.7 634.6,248.4 635.3,248.0 636.0,247.8 636.8,247.5 637.5,247.2 638.3,246.0 639.0,245.7 639.8,245.3 640.5,245.0 641.2,245.1 642.0,244.8 642.7,244.4 643.5,244.1 644.2,243.0 645.0,242.6 645.7,242.3 646.5,242.0 647.2,234.1 647.9,233.6 648.7,233.1 649.4,232.7 650.2,233.0 650.9,232.6 651.7,232.1 652.4,231.6 653.2,231.6 653.9,231.1 654.6,230.6 655.4,230.1 656.1,230.1 656.9,229.6 657.6,229.1 658.4,228.6 659.1,227.6 659.8,227.1 660.6,226.6 661.3,226.1 662.1,238.7 662.8,238.2 663.6,237.8 664.3,237.3 665.1,236.5 665.8,236.0 666.5,235.5 667.3,235.1 668.0,233.4 668.8,232.9 669.5,232.4 670.3,231.9 671.0,232.4 671.8,231.9 672.5,231.4 673.2,230.9 674.0,230.2 674.7,229.7 675.5,229.1 676.2,228.6 677.0,233.7 677.7,233.2 678.4,232.8 679.2,232.3 679.9,235.2 680.7,234.8 681.4,234.4 682.2,234.0 682.9,234.8 683.7,234.4 684.4,234.0 685.1,233.6 685.9,232.3 686.6,231.9 687.4,231.5 688.1,231.0 688.9,231.6 689.6,231.1 690.4,230.7 691.1,230.2 691.8,236.5 692.6,236.0 693.3,235.5 694.1,235.1 694.8,233.5 695.6,233.0 696.3,232.5 697.0,232.0 697.8,231.8 698.5,231.3 699.3,230.8 700.0,230.3 700.8,228.4 701.5,227.9 702.3,227.3 703.0,226.8 703.7,224.3 704.5,223.7 705.2,223.2 706.0,222.6 706.7,235.3 707.5,234.8 708.2,234.3 709.0,233.8 709.7,229.9 710.4,229.3 711.2,228.8 711.9,228.2 712.7,230.0 713.4,229.5 714.2,229.0 714.9,228.5 715.6,227.6 716.4,227.1 717.1,226.6 717.9,226.0 718.6,225.2 719.4,224.7 720.1,224.1 720.9,223.6 721.6,250.9 722.3,250.6 723.1,250.3 723.8,250.1 724.6,250.8 725.3,250.6 726.1,250.3 726.8,250.1 727.6,252.3 728.3,252.1 729.0,251.9 729.8,251.6 730.5,249.2 731.3,248.9 732.0,248.7 732.8,248.4 733.5,243.9 734.2,243.6 735.0,243.3 735.7,243.0 736.5,248.3 737.2,248.1 738.0,247.8 738.7,247.5 739.5,244.0 740.2,243.7 740.9,243.4 741.7,243.0 742.4,246.6 743.2,246.3 743.9,246.0 744.7,245.8 745.4,243.2 746.2,242.9 746.9,242.6 747.6,242.3 748.4,240.9 749.1,240.6 749.9,240.3 750.6,239.9 751.4,244.4 752.1,244.1 752.8,243.9 753.6,243.6 754.3,249.5 755.1,249.3 755.8,249.1 756.6,248.9 757.3,248.2 758.1,248.0 758.8,247.8 759.5,247.6 760.3,253.1 761.0,252.9 761.8,252.8 762.5,252.6 763.3,253.3 764.0,253.1 764.8,253.0 765.5,252.8 766.2,235.0 767.0,234.7 767.7,234.3 768.5,234.0 769.2,233.7 770.0,233.3 770.7,233.0 771.4,232.7 772.2,232.1 772.9,231.7 773.7,231.4 774.4,231.0 775.2,230.7 775.9,230.3 776.7,229.9 777.4,229.6 778.1,229.6 778.9,229.3 779.6,229.0 780.4,228.6 781.1,218.8 781.9,218.3 782.6,217.9 783.4,217.5 784.1,217.2 784.8,216.8 785.6,216.4 786.3,216.0 787.1,214.7 787.8,214.2 788.6,213.8 789.3,213.4 790.0,213.1 790.8,212.7 791.5,212.3 792.3,211.8 793.0,212.2 793.8,211.8 794.5,211.4 795.3,210.9 796.0,226.1"/>
<text x="640" y="56" font-family="Arial" font-size="12" fill="#0f766e">position error</text>
<polyline fill="none" stroke="#2563eb" stroke-width="2.3" points="52.0,219.3 52.7,217.6 53.5,212.8 54.2,205.3 55.0,205.3 55.7,195.6 56.5,184.9 57.2,173.3 58.0,168.2 58.7,156.7 59.4,144.9 60.2,132.7 60.9,124.7 61.7,112.7 62.4,100.6 63.2,88.4 63.9,78.5 64.6,66.4 65.4,54.2 66.1,42.0 66.9,222.4 67.6,219.2 68.4,215.7 69.1,212.2 69.9,211.8 70.6,208.3 71.3,204.6 72.1,200.9 72.8,199.4 73.6,195.7 74.3,191.9 75.1,188.1 75.8,185.8 76.6,181.9 77.3,178.0 78.0,174.0 78.8,171.2 79.5,167.2 80.3,163.1 81.0,159.0 81.8,228.3 82.5,226.4 83.2,224.4 84.0,222.3 84.7,221.8 85.5,219.6 86.2,217.4 87.0,215.1 87.7,214.1 88.5,211.8 89.2,209.3 89.9,206.8 90.7,205.4 91.4,202.9 92.2,200.2 92.9,197.4 93.7,195.7 94.4,192.9 95.2,190.0 95.9,187.0 96.6,231.8 97.4,230.0 98.1,228.2 98.9,226.3 99.6,225.8 100.4,223.8 101.1,221.7 101.8,219.5 102.6,218.6 103.3,216.4 104.1,214.0 104.8,211.5 105.6,210.3 106.3,207.7 107.1,205.1 107.8,202.4 108.5,200.7 109.3,197.9 110.0,195.0 110.8,192.0 111.5,232.9 112.3,231.1 113.0,229.2 113.8,227.3 114.5,226.7 115.2,224.7 116.0,222.6 116.7,220.4 117.5,219.4 118.2,217.2 119.0,214.8 119.7,212.4 120.4,211.0 121.2,208.5 121.9,205.9 122.7,203.3 123.4,201.5 124.2,198.8 124.9,196.0 125.7,193.1 126.4,233.4 127.1,231.7 127.9,230.0 128.6,228.2 129.4,227.5 130.1,225.6 130.9,223.7 131.6,221.7 132.4,220.7 133.1,218.6 133.8,216.5 134.6,214.3 135.3,213.0 136.1,210.7 136.8,208.4 137.6,206.1 138.3,204.4 139.0,202.0 139.8,199.5 140.5,197.0 141.3,234.4 142.0,232.9 142.8,231.4 143.5,229.8 144.3,229.1 145.0,227.5 145.7,225.8 146.5,224.1 147.2,223.1 148.0,221.4 148.7,219.5 149.5,217.7 150.2,216.5 151.0,214.6 151.7,212.6 152.4,210.6 153.2,209.2 153.9,207.2 154.7,205.1 155.4,203.0 156.2,235.7 156.9,234.4 157.6,233.1 158.4,231.7 159.1,231.1 159.9,229.7 160.6,228.2 161.4,226.8 162.1,225.9 162.9,224.4 163.6,222.9 164.3,221.3 165.1,220.3 165.8,218.7 166.6,217.0 167.3,215.3 168.1,214.2 168.8,212.4 169.6,210.7 170.3,208.9 171.0,237.0 171.8,235.9 172.5,234.7 173.3,233.5 174.0,232.9 174.8,231.7 175.5,230.5 176.2,229.2 177.0,228.5 177.7,227.2 178.5,225.9 179.2,224.5 180.0,223.7 180.7,222.3 181.5,220.9 182.2,219.5 182.9,218.5 183.7,217.0 184.4,215.6 185.2,214.1 185.9,238.1 186.7,237.1 187.4,236.1 188.2,235.1 188.9,234.5 189.6,233.5 190.4,232.4 191.1,231.3 191.9,230.6 192.6,229.5 193.4,228.4 194.1,227.2 194.8,226.5 195.6,225.3 196.3,224.1 197.1,222.9 197.8,222.0 198.6,220.8 199.3,219.5 200.1,218.3 200.8,239.1 201.5,238.2 202.3,237.3 203.0,236.4 203.8,235.9 204.5,235.0 205.3,234.0 206.0,233.1 206.8,232.5 207.5,231.5 208.2,230.5 209.0,229.5 209.7,228.8 210.5,227.8 211.2,226.8 212.0,225.7 212.7,225.0 213.4,223.9 214.2,222.8 214.9,221.7 215.7,240.0 216.4,239.2 217.2,238.4 217.9,237.6 218.7,237.2 219.4,236.3 220.1,235.5 220.9,234.6 221.6,234.1 222.4,233.2 223.1,232.3 223.9,231.4 224.6,230.9 225.4,229.9 226.1,229.0 226.8,228.1 227.6,227.4 228.3,226.5 229.1,225.5 229.8,224.5 230.6,241.0 231.3,240.3 232.0,239.6 232.8,238.8 233.5,238.4 234.3,237.7 235.0,236.9 235.8,236.1 236.5,235.7 237.3,234.9 238.0,234.1 238.7,233.3 239.5,232.8 240.2,231.9 241.0,231.1 241.7,230.3 242.5,229.7 243.2,228.8 244.0,228.0 244.7,227.1 245.4,242.1 246.2,241.5 246.9,240.8 247.7,240.1 248.4,239.8 249.2,239.1 249.9,238.4 250.6,237.7 251.4,237.3 252.1,236.6 252.9,235.9 253.6,235.1 254.4,234.7 255.1,233.9 255.9,233.2 256.6,232.4 257.3,231.9 258.1,231.2 258.8,230.4 259.6,229.6 260.3,243.4 261.1,242.8 261.8,242.2 262.6,241.6 263.3,241.3 264.0,240.7 264.8,240.0 265.5,239.4 266.3,239.0 267.0,238.4 267.8,237.7 268.5,237.1 269.2,236.7 270.0,236.0 270.7,235.3 271.5,234.6 272.2,234.2 273.0,233.5 273.7,232.8 274.5,232.1 275.2,244.8 275.9,244.2 276.7,243.7 277.4,243.1 278.2,242.8 278.9,242.3 279.7,241.7 280.4,241.1 281.2,240.8 281.9,240.2 282.6,239.6 283.4,239.0 284.1,238.6 284.9,238.0 285.6,237.4 286.4,236.8 287.1,236.4 287.8,235.7 288.6,235.1 289.3,234.5 290.1,246.1 290.8,245.6 291.6,245.1 292.3,244.6 293.1,244.3 293.8,243.8 294.5,243.3 295.3,242.7 296.0,242.4 296.8,241.9 297.5,241.3 298.3,240.8 299.0,240.5 299.8,239.9 300.5,239.3 301.2,238.7 302.0,238.4 302.7,237.8 303.5,237.2 304.2,236.6 305.0,247.2 305.7,246.8 306.4,246.3 307.2,245.8 307.9,245.6 308.7,245.1 309.4,244.6 310.2,244.1 310.9,243.8 311.7,243.3 312.4,242.8 313.1,242.3 313.9,242.0 314.6,241.5 315.4,240.9 316.1,240.4 316.9,240.1 317.6,239.5 318.4,239.0 319.1,238.4 319.8,248.1 320.6,247.7 321.3,247.2 322.1,246.8 322.8,246.6 323.6,246.1 324.3,245.6 325.0,245.1 325.8,244.9 326.5,244.4 327.3,243.9 328.0,243.4 328.8,243.2 329.5,242.7 330.3,242.2 331.0,241.7 331.7,241.4 332.5,240.9 333.2,240.3 334.0,239.8 334.7,248.7 335.5,248.3 336.2,247.9 337.0,247.4 337.7,247.2 338.4,246.8 339.2,246.3 339.9,245.9 340.7,245.7 341.4,245.2 342.2,244.7 342.9,244.3 343.6,244.0 344.4,243.6 345.1,243.1 345.9,242.6 346.6,242.3 347.4,241.8 348.1,241.3 348.9,240.8 349.6,249.1 350.3,248.7 351.1,248.3 351.8,247.8 352.6,247.7 353.3,247.2 354.1,246.8 354.8,246.4 355.6,246.1 356.3,245.7 357.0,245.3 357.8,244.8 358.5,244.6 359.3,244.1 360.0,243.7 360.8,243.2 361.5,242.9 362.2,242.5 363.0,242.0 363.7,241.5 364.5,249.2 365.2,248.8 366.0,248.4 366.7,248.0 367.5,247.8 368.2,247.4 368.9,247.0 369.7,246.6 370.4,246.4 371.2,246.0 371.9,245.5 372.7,245.1 373.4,244.9 374.2,244.4 374.9,244.0 375.6,243.5 376.4,243.3 377.1,242.8 377.9,242.4 378.6,241.9 379.4,248.5 380.1,248.0 380.8,247.6 381.6,247.2 382.3,247.0 383.1,246.5 383.8,246.1 384.6,245.6 385.3,245.4 386.1,244.9 386.8,244.5 387.5,244.0 388.3,243.7 389.0,243.3 389.8,242.8 390.5,242.3 391.3,242.0 392.0,241.6 392.8,241.1 393.5,240.6 394.2,247.3 395.0,246.9 395.7,246.5 396.5,246.0 397.2,245.8 398.0,245.4 398.7,244.9 399.4,244.5 400.2,244.2 400.9,243.8 401.7,243.3 402.4,242.9 403.2,242.6 403.9,242.1 404.7,241.7 405.4,241.2 406.1,240.9 406.9,240.4 407.6,239.9 408.4,239.4 409.1,246.2 409.9,245.8 410.6,245.4 411.4,245.0 412.1,244.7 412.8,244.3 413.6,243.9 414.3,243.4 415.1,243.2 415.8,242.7 416.6,242.3 417.3,241.8 418.0,241.6 418.8,241.1 419.5,240.6 420.3,240.1 421.0,239.9 421.8,239.4 422.5,238.9 423.3,238.4 424.0,245.2 424.7,244.8 425.5,244.3 426.2,243.9 427.0,243.7 427.7,243.3 428.5,242.8 429.2,242.4 430.0,242.1 430.7,241.7 431.4,241.2 432.2,240.8 432.9,240.5 433.7,240.1 434.4,239.6 435.2,239.1 435.9,238.8 436.6,238.4 437.4,237.9 438.1,237.4 438.9,244.1 439.6,243.7 440.4,243.3 441.1,242.9 441.9,242.7 442.6,242.2 443.3,241.8 444.1,241.3 444.8,241.1 445.6,240.6 446.3,240.2 447.1,239.7 447.8,239.5 448.6,239.0 449.3,238.5 450.0,238.1 450.8,237.8 451.5,237.3 452.3,236.8 453.0,236.3 453.8,243.1 454.5,242.6 455.2,242.2 456.0,241.8 456.7,241.6 457.5,241.1 458.2,240.7 459.0,240.2 459.7,240.0 460.5,239.6 461.2,239.1 461.9,238.6 462.7,238.4 463.4,237.9 464.2,237.5 464.9,237.0 465.7,236.7 466.4,236.2 467.2,235.7 467.9,235.3 468.6,241.9 469.4,241.6 470.1,241.2 470.9,240.8 471.6,240.6 472.4,240.2 473.1,239.8 473.8,239.4 474.6,239.1 475.3,238.7 476.1,238.3 476.8,237.9 477.6,237.7 478.3,237.3 479.1,236.8 479.8,236.4 480.5,236.1 481.3,235.7 482.0,235.3 482.8,234.8 483.5,242.9 484.3,242.5 485.0,242.1 485.8,241.7 486.5,241.6 487.2,241.2 488.0,240.8 488.7,240.4 489.5,240.2 490.2,239.8 491.0,239.4 491.7,239.0 492.4,238.8 493.2,238.4 493.9,238.0 494.7,237.5 495.4,237.3 496.2,236.9 496.9,236.5 497.7,236.0 498.4,243.3 499.1,242.9 499.9,242.6 500.6,242.2 501.4,242.0 502.1,241.6 502.9,241.3 503.6,240.9 504.4,240.7 505.1,240.3 505.8,239.9 506.6,239.5 507.3,239.3 508.1,238.9 508.8,238.5 509.6,238.1 510.3,237.9 511.0,237.5 511.8,237.1 512.5,236.6 513.3,243.4 514.0,243.1 514.8,242.7 515.5,242.3 516.3,242.2 517.0,241.8 517.7,241.4 518.5,241.0 519.2,240.8 520.0,240.5 520.7,240.1 521.5,239.7 522.2,239.5 523.0,239.1 523.7,238.7 524.4,238.3 525.2,238.1 525.9,237.7 526.7,237.3 527.4,236.8 528.2,243.3 528.9,243.0 529.6,242.6 530.4,242.2 531.1,242.0 531.9,241.7 532.6,241.3 533.4,240.9 534.1,240.7 534.9,240.4 535.6,240.0 536.3,239.6 537.1,239.4 537.8,239.0 538.6,238.6 539.3,238.2 540.1,238.0 540.8,237.6 541.6,237.2 542.3,236.8 543.0,243.1 543.8,242.7 544.5,242.3 545.3,242.0 546.0,241.8 546.8,241.4 547.5,241.1 548.2,240.7 549.0,240.5 549.7,240.1 550.5,239.7 551.2,239.4 552.0,239.1 552.7,238.8 553.5,238.4 554.2,238.0 554.9,237.7 555.7,237.4 556.4,237.0 557.2,236.5 557.9,242.7 558.7,242.3 559.4,242.0 560.2,241.6 560.9,241.4 561.6,241.1 562.4,240.7 563.1,240.3 563.9,240.1 564.6,239.8 565.4,239.4 566.1,239.0 566.8,238.8 567.6,238.4 568.3,238.0 569.1,237.6 569.8,237.4 570.6,237.0 571.3,236.6 572.1,236.2 572.8,242.3 573.5,241.9 574.3,241.6 575.0,241.2 575.8,241.0 576.5,240.7 577.3,240.3 578.0,239.9 578.8,239.7 579.5,239.4 580.2,239.0 581.0,238.6 581.7,238.4 582.5,238.0 583.2,237.6 584.0,237.2 584.7,237.0 585.4,236.6 586.2,236.2 586.9,235.8 587.7,240.0 588.4,239.6 589.2,239.2 589.9,238.9 590.7,238.7 591.4,238.3 592.1,237.9 592.9,237.5 593.6,237.3 594.4,236.9 595.1,236.5 595.9,236.1 596.6,235.9 597.4,235.5 598.1,235.1 598.8,234.7 599.6,234.5 600.3,234.1 601.1,233.6 601.8,233.2 602.6,239.9 603.3,239.6 604.0,239.2 604.8,238.8 605.5,238.6 606.3,238.3 607.0,237.9 607.8,237.5 608.5,237.3 609.3,236.9 610.0,236.6 610.7,236.2 611.5,235.9 612.2,235.5 613.0,235.2 613.7,234.8 614.5,234.5 615.2,234.1 616.0,233.7 616.7,233.3 617.4,239.8 618.2,239.5 618.9,239.1 619.7,238.7 620.4,238.5 621.2,238.2 621.9,237.8 622.6,237.4 623.4,237.2 624.1,236.9 624.9,236.5 625.6,236.1 626.4,235.9 627.1,235.5 627.9,235.1 628.6,234.7 629.3,234.5 630.1,234.1 630.8,233.7 631.6,233.3 632.3,239.6 633.1,239.3 633.8,238.9 634.6,238.6 635.3,238.4 636.0,238.0 636.8,237.6 637.5,237.3 638.3,237.1 639.0,236.7 639.8,236.3 640.5,235.9 641.2,235.7 642.0,235.3 642.7,234.9 643.5,234.5 644.2,234.3 645.0,233.9 645.7,233.5 646.5,233.1 647.2,239.4 647.9,239.0 648.7,238.7 649.4,238.3 650.2,238.1 650.9,237.8 651.7,237.4 652.4,237.0 653.2,236.8 653.9,236.5 654.6,236.1 655.4,235.7 656.1,235.5 656.9,235.1 657.6,234.7 658.4,234.3 659.1,234.1 659.8,233.7 660.6,233.3 661.3,232.9 662.1,239.1 662.8,238.8 663.6,238.4 664.3,238.1 665.1,237.9 665.8,237.5 666.5,237.1 667.3,236.8 668.0,236.6 668.8,236.2 669.5,235.8 670.3,235.4 671.0,235.2 671.8,234.8 672.5,234.4 673.2,234.1 674.0,233.8 674.7,233.4 675.5,233.0 676.2,232.6 677.0,238.8 677.7,238.5 678.4,238.1 679.2,237.8 679.9,237.6 680.7,237.2 681.4,236.8 682.2,236.5 682.9,236.3 683.7,235.9 684.4,235.5 685.1,235.1 685.9,234.9 686.6,234.5 687.4,234.2 688.1,233.8 688.9,233.5 689.6,233.1 690.4,232.8 691.1,232.4 691.8,238.5 692.6,238.1 693.3,237.8 694.1,237.4 694.8,237.2 695.6,236.9 696.3,236.5 697.0,236.1 697.8,235.9 698.5,235.6 699.3,235.2 700.0,234.8 700.8,234.6 701.5,234.2 702.3,233.8 703.0,233.5 703.7,233.2 704.5,232.8 705.2,232.4 706.0,232.0 706.7,238.2 707.5,237.8 708.2,237.5 709.0,237.1 709.7,236.9 710.4,236.5 711.2,236.2 711.9,235.8 712.7,235.6 713.4,235.2 714.2,234.9 714.9,234.5 715.6,234.3 716.4,233.9 717.1,233.5 717.9,233.1 718.6,232.9 719.4,232.5 720.1,232.1 720.9,231.7 721.6,237.8 722.3,237.5 723.1,237.1 723.8,236.8 724.6,236.6 725.3,236.2 726.1,235.9 726.8,235.5 727.6,235.3 728.3,234.9 729.0,234.5 729.8,234.2 730.5,233.9 731.3,233.6 732.0,233.2 732.8,232.8 733.5,232.6 734.2,232.2 735.0,231.8 735.7,231.4 736.5,237.5 737.2,237.2 738.0,236.8 738.7,236.5 739.5,236.2 740.2,235.9 740.9,235.5 741.7,235.2 742.4,234.9 743.2,234.6 743.9,234.2 744.7,233.8 745.4,233.6 746.2,233.2 746.9,232.9 747.6,232.5 748.4,232.2 749.1,231.8 749.9,231.5 750.6,231.1 751.4,237.2 752.1,236.8 752.8,236.5 753.6,236.1 754.3,235.9 755.1,235.6 755.8,235.2 756.6,234.8 757.3,234.6 758.1,234.3 758.8,233.9 759.5,233.5 760.3,233.3 761.0,232.9 761.8,232.5 762.5,232.1 763.3,231.9 764.0,231.5 764.8,231.1 765.5,230.7 766.2,236.9 767.0,236.5 767.7,236.2 768.5,235.8 769.2,235.6 770.0,235.3 770.7,234.9 771.4,234.5 772.2,234.3 772.9,233.9 773.7,233.6 774.4,233.2 775.2,233.0 775.9,232.6 776.7,232.2 777.4,231.8 778.1,231.6 778.9,231.2 779.6,230.8 780.4,230.4 781.1,236.6 781.9,236.2 782.6,235.9 783.4,235.5 784.1,235.3 784.8,234.9 785.6,234.6 786.3,234.2 787.1,234.0 787.8,233.6 788.6,233.3 789.3,232.9 790.0,232.7 790.8,232.3 791.5,231.9 792.3,231.5 793.0,231.3 793.8,230.9 794.5,230.5 795.3,230.1 796.0,236.3"/>
<text x="640" y="72" font-family="Arial" font-size="12" fill="#2563eb">sqrt trace Ppos</text>
</svg>