<svg xmlns="http://www.w3.org/2000/svg" width="820" height="320" viewBox="0 0 820 320">
<rect width="100%" height="100%" fill="white"/>
<text x="52" y="30" font-family="Arial" font-size="18" font-weight="700">linear_nominal NEES proxy</text>
<line x1="52" y1="274" x2="796" y2="274" stroke="#263238"/>
<line x1="52" y1="42" x2="52" y2="274" stroke="#263238"/>
<text x="52" y="306" font-family="Arial" font-size="12">time (s)</text>
<text x="630" y="306" font-family="Arial" font-size="12">value</text>

<rect x="379.4" y="42" width="89.3" height="232" fill="#fef3c7" opacity="0.72"/>
<polyline fill="none" stroke="#0f766e" stroke-width="2.3" points="52.0,243.3 52.7,243.4 53.5,243.5 54.2,243.6 55.0,238.0 55.7,237.8 56.5,237.7 57.2,237.6 58.0,223.0 58.7,222.7 59.4,222.4 60.2,222.1 60.9,233.6 61.7,233.5 62.4,233.5 63.2,233.6 63.9,245.2 64.6,245.4 65.4,245.5 66.1,245.7 66.9,248.2 67.6,248.2 68.4,248.2 69.1,248.2 69.9,243.8 70.6,244.1 71.3,244.2 72.1,244.4 72.8,246.2 73.6,246.2 74.3,246.1 75.1,246.0 75.8,244.5 76.6,243.8 77.3,243.2 78.0,242.5 78.8,228.5 79.5,227.4 80.3,226.4 81.0,225.6 81.8,198.4 82.5,196.6 83.2,194.9 84.0,193.3 84.7,206.6 85.5,205.4 86.2,204.3 87.0,203.4 87.7,175.3 88.5,174.6 89.2,174.1 89.9,173.8 90.7,195.4 91.4,195.3 92.2,195.2 92.9,195.2 93.7,205.7 94.4,205.7 95.2,205.7 95.9,205.7 96.6,230.7 97.4,231.1 98.1,231.6 98.9,231.9 99.6,235.7 100.4,235.7 101.1,235.7 101.8,235.6 102.6,227.5 103.3,227.8 104.1,227.9 104.8,228.0 105.6,228.8 106.3,228.8 107.1,228.6 107.8,228.4 108.5,231.5 109.3,230.7 110.0,229.8 110.8,228.9 111.5,251.2 112.3,250.2 113.0,249.2 113.8,248.1 114.5,245.5 115.2,245.3 116.0,245.1 116.7,244.8 117.5,245.5 118.2,244.7 119.0,243.8 119.7,242.9 120.4,241.9 121.2,240.8 121.9,239.7 122.7,238.5 123.4,238.0 124.2,237.4 124.9,236.8 125.7,236.1 126.4,207.1 127.1,204.8 127.9,202.5 128.6,200.1 129.4,209.0 130.1,207.0 130.9,205.0 131.6,203.1 132.4,196.0 133.1,193.9 133.8,191.7 134.6,189.6 135.3,212.9 136.1,211.5 136.8,210.1 137.6,208.7 138.3,183.3 139.0,181.3 139.8,179.4 140.5,177.5 141.3,186.9 142.0,184.1 142.8,181.3 143.5,178.5 144.3,212.7 145.0,210.9 145.7,209.0 146.5,207.2 147.2,197.4 148.0,195.3 148.7,193.3 149.5,191.3 150.2,187.2 151.0,185.1 151.7,183.0 152.4,181.0 153.2,207.6 153.9,206.1 154.7,204.7 155.4,203.2 156.2,142.7 156.9,139.1 157.6,135.6 158.4,132.2 159.1,165.7 159.9,162.9 160.6,160.2 161.4,157.6 162.1,133.3 162.9,130.3 163.6,127.3 164.3,124.4 165.1,128.7 165.8,125.9 166.6,123.2 167.3,120.5 168.1,175.7 168.8,173.9 169.6,172.2 170.3,170.5 171.0,210.5 171.8,209.2 172.5,208.0 173.3,206.7 174.0,201.8 174.8,200.5 175.5,199.3 176.2,198.1 177.0,205.8 177.7,204.6 178.5,203.5 179.2,202.4 180.0,205.8 180.7,204.7 181.5,203.7 182.2,202.7 182.9,187.8 183.7,186.7 184.4,185.6 185.2,184.6 185.9,199.7 186.7,198.0 187.4,196.3 188.2,194.5 188.9,194.0 189.6,192.3 190.4,190.6 191.1,188.9 191.9,169.1 192.6,167.2 193.4,165.4 194.1,163.6 194.8,140.7 195.6,138.9 196.3,137.0 197.1,135.2 197.8,141.8 198.6,139.9 199.3,138.2 200.1,136.4 200.8,189.5 201.5,188.0 202.3,186.5 203.0,184.9 203.8,156.8 204.5,155.3 205.3,153.7 206.0,152.1 206.8,188.3 207.5,186.9 208.2,185.5 209.0,184.1 209.7,196.8 210.5,195.5 211.2,194.2 212.0,192.9 212.7,188.9 213.4,187.6 214.2,186.4 214.9,185.2 215.7,223.9 216.4,223.3 217.2,222.6 217.9,221.9 218.7,230.3 219.4,229.6 220.1,228.9 220.9,228.3 221.6,218.3 222.4,217.7 223.1,217.1 223.9,216.5 224.6,219.5 225.4,218.9 226.1,218.3 226.8,217.7 227.6,203.4 228.3,202.8 229.1,202.2 229.8,201.6 230.6,219.2 231.3,218.6 232.0,218.1 232.8,217.6 233.5,200.3 234.3,199.9 235.0,199.5 235.8,199.2 236.5,190.7 237.3,190.5 238.0,190.2 238.7,190.0 239.5,193.9 240.2,193.6 241.0,193.3 241.7,193.1 242.5,175.9 243.2,175.7 244.0,175.6 244.7,175.5 245.4,165.0 246.2,164.8 246.9,164.5 247.7,164.4 248.4,135.9 249.2,135.9 249.9,135.8 250.6,135.7 251.4,96.7 252.1,96.7 252.9,96.7 253.6,96.8 254.4,42.0 255.1,42.2 255.9,42.4 256.6,42.7 257.3,62.9 258.1,63.2 258.8,63.5 259.6,63.9 260.3,103.8 261.1,104.5 261.8,105.2 262.6,106.0 263.3,94.4 264.0,95.5 264.8,96.5 265.5,97.6 266.3,118.4 267.0,119.5 267.8,120.7 268.5,121.8 269.2,152.1 270.0,153.2 270.7,154.4 271.5,155.5 272.2,93.5 273.0,95.1 273.7,96.6 274.5,98.0 275.2,154.8 275.9,156.1 276.7,157.5 277.4,158.8 278.2,179.8 278.9,181.1 279.7,182.3 280.4,183.5 281.2,184.4 281.9,185.6 282.6,186.8 283.4,188.0 284.1,166.8 284.9,168.2 285.6,169.6 286.4,170.9 287.1,171.4 287.8,172.8 288.6,174.0 289.3,175.3 290.1,192.2 290.8,193.9 291.6,195.5 292.3,197.2 293.1,229.6 293.8,231.0 294.5,232.3 295.3,233.5 296.0,228.3 296.8,229.5 297.5,230.7 298.3,231.9 299.0,224.8 299.8,226.0 300.5,227.3 301.2,228.5 302.0,218.5 302.7,219.9 303.5,221.3 304.2,222.6 305.0,183.7 305.7,185.6 306.4,187.5 307.2,189.4 307.9,206.2 308.7,208.0 309.4,209.7 310.2,211.4 310.9,219.0 311.7,220.7 312.4,222.3 313.1,223.8 313.9,236.2 314.6,237.6 315.4,239.0 316.1,240.3 316.9,245.1 317.6,246.3 318.4,247.4 319.1,248.5 319.8,182.5 320.6,184.0 321.3,185.5 322.1,187.0 322.8,178.0 323.6,179.7 324.3,181.3 325.0,182.9 325.8,211.4 326.5,212.6 327.3,213.9 328.0,215.1 328.8,223.7 329.5,224.8 330.3,225.9 331.0,226.9 331.7,211.0 332.5,212.2 333.2,213.5 334.0,214.6 334.7,192.8 335.5,193.6 336.2,194.5 337.0,195.4 337.7,198.7 338.4,199.6 339.2,200.4 339.9,201.2 340.7,187.3 341.4,188.2 342.2,189.1 342.9,190.0 343.6,172.3 344.4,173.4 345.1,174.4 345.9,175.4 346.6,204.1 347.4,204.8 348.1,205.6 348.9,206.3 349.6,208.4 350.3,209.1 351.1,209.7 351.8,210.4 352.6,216.7 353.3,217.2 354.1,217.7 354.8,218.2 355.6,228.1 356.3,228.5 357.0,229.0 357.8,229.5 358.5,222.0 359.3,222.6 360.0,223.2 360.8,223.7 361.5,236.8 362.2,237.2 363.0,237.6 363.7,237.9 364.5,249.4 365.2,249.5 366.0,249.6 366.7,249.7 367.5,247.3 368.2,247.5 368.9,247.6 369.7,247.7 370.4,231.8 371.2,232.2 371.9,232.5 372.7,232.8 373.4,248.1 374.2,248.2 374.9,248.3 375.6,248.3 376.4,255.7 377.1,255.5 377.9,255.3 378.6,255.2 379.4,256.5 380.1,256.2 380.8,255.8 381.6,255.5 382.3,254.9 383.1,254.4 383.8,254.0 384.6,253.6 385.3,249.7 386.1,249.2 386.8,248.6 387.5,248.1 388.3,251.9 389.0,251.5 389.8,251.1 390.5,250.7 391.3,250.7 392.0,250.4 392.8,250.0 393.5,249.6 394.2,247.0 395.0,246.6 395.7,246.2 396.5,245.8 397.2,247.0 398.0,246.6 398.7,246.3 399.4,245.9 400.2,246.0 400.9,245.7 401.7,245.3 402.4,245.0 403.2,245.0 403.9,244.6 404.7,244.3 405.4,244.0 406.1,230.3 406.9,229.9 407.6,229.5 408.4,229.1 409.1,224.7 409.9,224.3 410.6,223.9 411.4,223.5 412.1,233.3 412.8,233.0 413.6,232.6 414.3,232.3 415.1,242.9 415.8,242.7 416.6,242.5 417.3,242.2 418.0,243.6 418.8,243.4 419.5,243.2 420.3,243.1 421.0,241.5 421.8,241.3 422.5,241.1 423.3,240.9 424.0,239.5 424.7,239.3 425.5,239.1 426.2,238.9 427.0,234.5 427.7,234.3 428.5,234.1 429.2,233.9 430.0,240.1 430.7,240.0 431.4,239.8 432.2,239.7 432.9,238.7 433.7,238.5 434.4,238.3 435.2,238.2 435.9,240.0 436.6,239.9 437.4,239.8 438.1,239.6 438.9,239.1 439.6,239.0 440.4,238.9 441.1,238.8 441.9,234.8 442.6,234.6 443.3,234.4 444.1,234.2 444.8,238.3 445.6,238.2 446.3,238.1 447.1,237.9 447.8,232.6 448.6,232.5 449.3,232.3 450.0,232.2 450.8,231.9 451.5,231.7 452.3,231.6 453.0,231.4 453.8,238.2 454.5,238.1 455.2,238.0 456.0,237.9 456.7,235.4 457.5,235.2 458.2,235.1 459.0,234.9 459.7,233.2 460.5,233.1 461.2,232.9 461.9,232.8 462.7,227.2 463.4,227.0 464.2,226.8 464.9,226.7 465.7,219.7 466.4,219.5 467.2,219.3 467.9,219.1 468.6,232.8 469.4,232.6 470.1,232.4 470.9,232.2 471.6,221.1 472.4,220.9 473.1,220.6 473.8,220.4 474.6,224.0 475.3,223.8 476.1,223.6 476.8,223.4 477.6,232.2 478.3,232.0 479.1,231.8 479.8,231.7 480.5,235.2 481.3,235.1 482.0,235.0 482.8,234.9 483.5,227.3 484.3,227.2 485.0,227.0 485.8,226.9 486.5,227.1 487.2,226.9 488.0,226.8 488.7,226.7 489.5,222.3 490.2,222.2 491.0,222.1 491.7,222.1 492.4,221.4 493.2,221.3 493.9,221.2 494.7,221.1 495.4,224.7 496.2,224.6 496.9,224.5 497.7,224.4 498.4,182.6 499.1,182.4 499.9,182.1 500.6,181.8 501.4,181.4 502.1,181.1 502.9,180.9 503.6,180.6 504.4,180.8 505.1,180.5 505.8,180.2 506.6,179.9 507.3,176.9 508.1,176.6 508.8,176.3 509.6,176.0 510.3,178.4 511.0,178.1 511.8,177.9 512.5,177.6 513.3,218.2 514.0,217.9 514.8,217.7 515.5,217.5 516.3,215.6 517.0,215.4 517.7,215.2 518.5,215.0 519.2,218.5 520.0,218.3 520.7,218.1 521.5,217.9 522.2,217.3 523.0,217.2 523.7,217.0 524.4,216.8 525.2,213.4 525.9,213.2 526.7,213.0 527.4,212.8 528.2,253.8 528.9,253.8 529.6,253.8 530.4,253.7 531.1,253.3 531.9,253.3 532.6,253.3 533.4,253.2 534.1,254.8 534.9,254.8 535.6,254.8 536.3,254.8 537.1,251.6 537.8,251.5 538.6,251.5 539.3,251.5 540.1,253.2 540.8,253.1 541.6,253.1 542.3,253.1 543.0,271.4 543.8,271.4 544.5,271.4 545.3,271.4 546.0,271.2 546.8,271.2 547.5,271.2 548.2,271.2 549.0,269.0 549.7,269.0 550.5,269.0 551.2,269.0 552.0,271.4 552.7,271.4 553.5,271.4 554.2,271.4 554.9,271.1 555.7,271.1 556.4,271.1 557.2,271.1 557.9,255.4 558.7,255.5 559.4,255.5 560.2,255.6 560.9,249.1 561.6,249.2 562.4,249.3 563.1,249.4 563.9,258.4 564.6,258.5 565.4,258.6 566.1,258.7 566.8,260.5 567.6,260.6 568.3,260.6 569.1,260.7 569.8,259.3 570.6,259.3 571.3,259.4 572.1,259.5 572.8,257.5 573.5,257.7 574.3,257.9 575.0,258.0 575.8,248.3 576.5,248.5 577.3,248.6 578.0,248.8 578.8,236.7 579.5,236.9 580.2,237.1 581.0,237.3 581.7,246.8 582.5,247.0 583.2,247.2 584.0,247.4 584.7,247.6 585.4,247.8 586.2,248.1 586.9,248.3 587.7,265.3 588.4,265.5 589.2,265.7 589.9,265.8 590.7,265.8 591.4,266.0 592.1,266.1 592.9,266.3 593.6,267.0 594.4,267.2 595.1,267.3 595.9,267.5 596.6,267.3 597.4,267.4 598.1,267.6 598.8,267.7 599.6,268.2 600.3,268.4 601.1,268.5 601.8,268.7 602.6,273.3 603.3,273.3 604.0,273.4 604.8,273.5 605.5,269.8 606.3,269.8 607.0,269.8 607.8,269.8 608.5,272.6 609.3,272.7 610.0,272.8 610.7,272.9 611.5,273.7 612.2,273.8 613.0,273.8 613.7,273.8 614.5,273.9 615.2,273.9 616.0,274.0 616.7,274.0 617.4,264.5 618.2,264.4 618.9,264.4 619.7,264.4 620.4,263.0 621.2,263.0 621.9,262.9 622.6,262.9 623.4,269.6 624.1,269.6 624.9,269.6 625.6,269.6 626.4,267.7 627.1,267.7 627.9,267.7 628.6,267.7 629.3,263.7 630.1,263.7 630.8,263.7 631.6,263.7 632.3,258.6 633.1,258.6 633.8,258.5 634.6,258.5 635.3,257.2 636.0,257.2 636.8,257.2 637.5,257.2 638.3,246.8 639.0,246.7 639.8,246.7 640.5,246.6 641.2,248.8 642.0,248.8 642.7,248.8 643.5,248.7 644.2,238.0 645.0,237.9 645.7,237.9 646.5,237.8 647.2,251.8 647.9,251.7 648.7,251.6 649.4,251.4 650.2,258.4 650.9,258.2 651.7,258.1 652.4,258.0 653.2,261.5 653.9,261.4 654.6,261.3 655.4,261.1 656.1,266.0 656.9,265.9 657.6,265.7 658.4,265.6 659.1,259.4 659.8,259.2 660.6,259.1 661.3,258.9 662.1,250.7 662.8,250.7 663.6,250.7 664.3,250.7 665.1,244.3 665.8,244.4 666.5,244.4 667.3,244.5 668.0,229.1 668.8,229.2 669.5,229.4 670.3,229.5 671.0,233.2 671.8,233.3 672.5,233.4 673.2,233.5 674.0,225.8 674.7,226.0 675.5,226.2 676.2,226.4 677.0,244.8 677.7,245.2 678.4,245.5 679.2,245.8 679.9,264.2 680.7,264.4 681.4,264.5 682.2,264.7 682.9,269.4 683.7,269.4 684.4,269.4 685.1,269.4 685.9,263.6 686.6,263.7 687.4,263.8 688.1,263.9 688.9,268.1 689.6,268.2 690.4,268.2 691.1,268.2 691.8,266.6 692.6,266.4 693.3,266.2 694.1,266.0 694.8,262.6 695.6,262.6 696.3,262.6 697.0,262.5 697.8,263.3 698.5,263.3 699.3,263.2 700.0,263.1 700.8,253.1 701.5,253.2 702.3,253.3 703.0,253.4 703.7,233.2 704.5,233.4 705.2,233.7 706.0,233.9 706.7,234.4 707.5,234.6 708.2,234.7 709.0,234.8 709.7,201.8 710.4,202.2 711.2,202.5 711.9,202.9 712.7,216.0 713.4,216.3 714.2,216.6 714.9,216.9 715.6,207.8 716.4,208.1 717.1,208.4 717.9,208.8 718.6,198.4 719.4,198.8 720.1,199.2 720.9,199.6 721.6,246.5 722.3,246.9 723.1,247.4 723.8,247.8 724.6,248.8 725.3,249.3 726.1,249.7 726.8,250.1 727.6,258.9 728.3,259.3 729.0,259.6 729.8,260.0 730.5,246.0 731.3,246.5 732.0,247.1 732.8,247.5 733.5,215.0 734.2,215.8 735.0,216.7 735.7,217.6 736.5,204.8 737.2,205.7 738.0,206.6 738.7,207.4 739.5,173.9 740.2,175.0 740.9,176.1 741.7,177.2 742.4,195.0 743.2,196.0 743.9,197.0 744.7,197.9 745.4,169.9 746.2,171.1 746.9,172.4 747.6,173.6 748.4,152.0 749.1,153.3 749.9,154.7 750.6,156.0 751.4,183.1 752.1,184.4 752.8,185.6 753.6,186.8 754.3,222.8 755.1,223.7 755.8,224.5 756.6,225.4 757.3,217.0 758.1,218.0 758.8,219.0 759.5,219.9 760.3,251.4 761.0,251.7 761.8,252.1 762.5,252.4 763.3,256.0 764.0,256.1 764.8,256.2 765.5,256.3 766.2,241.1 767.0,241.1 767.7,241.1 768.5,241.1 769.2,241.0 770.0,241.0 770.7,241.0 771.4,241.0 772.2,240.4 772.9,240.2 773.7,240.0 774.4,239.8 775.2,239.5 775.9,239.2 776.7,238.9 777.4,238.7 778.1,240.5 778.9,240.4 779.6,240.4 780.4,240.3 781.1,257.0 781.9,256.8 782.6,256.7 783.4,256.6 784.1,257.6 784.8,257.5 785.6,257.4 786.3,257.3 787.1,245.6 787.8,245.3 788.6,245.0 789.3,244.8 790.0,244.7 790.8,244.5 791.5,244.3 792.3,244.0 793.0,252.2 793.8,252.1 794.5,252.0 795.3,251.9 796.0,267.6"/>
<text x="640" y="56" font-family="Arial" font-size="12" fill="#0f766e">linear_nominal NEES proxy</text>
</svg>