<svg xmlns="http://www.w3.org/2000/svg" width="820" height="320" viewBox="0 0 820 320">
<rect width="100%" height="100%" fill="white"/>
<text x="52" y="30" font-family="Arial" font-size="18" font-weight="700">ukf_nominal NEES proxy</text>
<line x1="52" y1="274" x2="796" y2="274" stroke="#263238"/>
<line x1="52" y1="42" x2="52" y2="274" stroke="#263238"/>
<text x="52" y="306" font-family="Arial" font-size="12">time (s)</text>
<text x="630" y="306" font-family="Arial" font-size="12">value</text>

<rect x="379.4" y="42" width="89.3" height="232" fill="#fef3c7" opacity="0.72"/>
<polyline fill="none" stroke="#0f766e" stroke-width="2.3" points="52.0,270.4 52.7,270.3 53.5,270.6 54.2,271.1 55.0,265.6 55.7,266.5 56.5,267.5 57.2,268.4 58.0,252.5 58.7,254.3 59.4,256.0 60.2,257.5 60.9,272.6 61.7,273.2 62.4,273.7 63.2,274.0 63.9,246.2 64.6,244.7 65.4,243.5 66.1,242.5 66.9,217.1 67.6,216.4 68.4,216.1 69.1,215.9 69.9,205.2 70.6,205.3 71.3,205.6 72.1,206.0 72.8,233.3 73.6,233.9 74.3,234.5 75.1,235.2 75.8,257.0 76.6,257.4 77.3,257.7 78.0,258.1 78.8,249.9 79.5,249.8 80.3,249.8 81.0,249.7 81.8,203.0 82.5,202.6 83.2,202.4 84.0,202.4 84.7,234.1 85.5,234.4 86.2,234.7 87.0,235.1 87.7,203.2 88.5,204.0 89.2,204.9 89.9,206.0 90.7,240.2 91.4,241.2 92.2,242.2 92.9,243.3 93.7,256.1 94.4,257.0 95.2,258.0 95.9,258.9 96.6,246.3 97.4,247.9 98.1,249.4 98.9,250.9 99.6,259.4 100.4,260.6 101.1,261.7 101.8,262.7 102.6,252.2 103.3,253.7 104.1,255.1 104.8,256.4 105.6,260.7 106.3,261.8 107.1,262.9 107.8,263.9 108.5,270.6 109.3,271.0 110.0,271.3 110.8,271.6 111.5,267.8 112.3,266.8 113.0,265.8 113.8,264.9 114.5,260.5 115.2,260.7 116.0,260.9 116.7,261.0 117.5,265.7 118.2,265.5 119.0,265.2 119.7,264.9 120.4,264.6 121.2,264.3 121.9,264.0 122.7,263.7 123.4,257.8 124.2,258.1 124.9,258.3 125.7,258.6 126.4,258.0 127.1,257.0 127.9,256.1 128.6,255.2 129.4,263.9 130.1,263.4 130.9,262.8 131.6,262.3 132.4,257.1 133.1,256.5 133.8,255.8 134.6,255.2 135.3,268.2 136.1,268.1 136.8,267.9 137.6,267.7 138.3,252.7 139.0,252.1 139.8,251.6 140.5,251.1 141.3,173.3 142.0,173.0 142.8,172.8 143.5,172.8 144.3,179.6 145.0,180.1 145.7,180.5 146.5,181.0 147.2,180.9 148.0,181.4 148.7,181.8 149.5,182.3 150.2,180.8 151.0,181.2 151.7,181.7 152.4,182.1 153.2,186.4 153.9,187.1 154.7,187.7 155.4,188.4 156.2,221.1 156.9,221.8 157.6,222.4 158.4,223.1 159.1,221.1 159.9,221.9 160.6,222.7 161.4,223.5 162.1,226.0 162.9,226.6 163.6,227.1 164.3,227.7 165.1,227.9 165.8,228.4 166.6,228.9 167.3,229.3 168.1,223.2 168.8,223.9 169.6,224.6 170.3,225.3 171.0,212.6 171.8,213.6 172.5,214.6 173.3,215.6 174.0,214.4 174.8,215.3 175.5,216.2 176.2,217.0 177.0,221.2 177.7,222.1 178.5,223.0 179.2,223.8 180.0,225.4 180.7,226.2 181.5,227.0 182.2,227.8 182.9,221.9 183.7,222.5 184.4,223.1 185.2,223.7 185.9,227.6 186.7,228.5 187.4,229.4 188.2,230.3 188.9,230.6 189.6,231.4 190.4,232.2 191.1,233.0 191.9,221.8 192.6,222.4 193.4,223.0 194.1,223.5 194.8,202.7 195.6,203.2 196.3,203.6 197.1,204.1 197.8,213.9 198.6,214.3 199.3,214.7 200.1,215.2 200.8,259.2 201.5,259.1 202.3,258.9 203.0,258.7 203.8,236.3 204.5,236.0 205.3,235.8 206.0,235.5 206.8,263.7 207.5,263.5 208.2,263.3 209.0,263.1 209.7,268.9 210.5,268.7 211.2,268.5 212.0,268.3 212.7,266.9 213.4,266.7 214.2,266.5 214.9,266.3 215.7,261.2 216.4,260.8 217.2,260.3 217.9,259.9 218.7,264.7 219.4,264.3 220.1,263.9 220.9,263.5 221.6,257.3 222.4,257.0 223.1,256.6 223.9,256.2 224.6,258.5 225.4,258.2 226.1,257.8 226.8,257.4 227.6,245.2 228.3,244.8 229.1,244.5 229.8,244.1 230.6,229.5 231.3,228.7 232.0,228.0 232.8,227.3 233.5,203.7 234.3,203.0 235.0,202.4 235.8,201.9 236.5,191.9 237.3,191.4 238.0,191.0 238.7,190.6 239.5,196.9 240.2,196.5 241.0,196.1 241.7,195.7 242.5,175.1 243.2,174.8 244.0,174.5 244.7,174.3 245.4,158.7 246.2,158.5 246.9,158.3 247.7,158.2 248.4,131.8 249.2,131.8 249.9,131.8 250.6,131.8 251.4,94.6 252.1,94.8 252.9,94.9 253.6,95.2 254.4,42.0 255.1,42.4 255.9,42.8 256.6,43.3 257.3,64.0 258.1,64.5 258.8,65.0 259.6,65.6 260.3,84.6 261.1,85.2 261.8,85.8 262.6,86.5 263.3,76.0 264.0,77.0 264.8,78.0 265.5,79.0 266.3,101.6 267.0,102.6 267.8,103.7 268.5,104.7 269.2,135.5 270.0,136.5 270.7,137.4 271.5,138.4 272.2,77.1 273.0,78.5 273.7,79.9 274.5,81.2 275.2,166.1 275.9,167.2 276.7,168.2 277.4,169.3 278.2,189.2 278.9,190.1 279.7,191.1 280.4,192.0 281.2,192.4 281.9,193.3 282.6,194.2 283.4,195.1 284.1,175.0 284.9,176.0 285.6,177.1 286.4,178.1 287.1,178.3 287.8,179.4 288.6,180.4 289.3,181.4 290.1,186.9 290.8,187.9 291.6,188.9 292.3,190.0 293.1,227.3 293.8,228.2 294.5,229.0 295.3,229.7 296.0,223.9 296.8,224.7 297.5,225.4 298.3,226.1 299.0,218.4 299.8,219.2 300.5,220.1 301.2,220.9 302.0,210.1 302.7,211.1 303.5,212.1 304.2,213.1 305.0,91.7 305.7,93.0 306.4,94.4 307.2,95.7 307.9,115.6 308.7,116.8 309.4,118.1 310.2,119.2 310.9,128.4 311.7,129.6 312.4,130.7 313.1,131.9 313.9,146.0 314.6,147.0 315.4,148.0 316.1,149.0 316.9,154.5 317.6,155.4 318.4,156.3 319.1,157.2 319.8,154.4 320.6,155.7 321.3,157.0 322.1,158.3 322.8,149.7 323.6,151.1 324.3,152.6 325.0,154.0 325.8,180.7 326.5,181.8 327.3,182.9 328.0,183.9 328.8,191.3 329.5,192.2 330.3,193.1 331.0,194.0 331.7,179.5 332.5,180.5 333.2,181.6 334.0,182.6 334.7,148.8 335.5,150.1 336.2,151.3 337.0,152.6 337.7,155.6 338.4,156.8 339.2,158.0 339.9,159.2 340.7,146.9 341.4,148.2 342.2,149.4 342.9,150.7 343.6,135.0 344.4,136.5 345.1,137.9 345.9,139.3 346.6,164.7 347.4,165.9 348.1,167.0 348.9,168.1 349.6,191.2 350.3,192.2 351.1,193.3 351.8,194.3 352.6,198.6 353.3,199.6 354.1,200.5 354.8,201.4 355.6,208.0 356.3,208.8 357.0,209.6 357.8,210.4 358.5,205.2 359.3,206.1 360.0,207.0 360.8,208.0 361.5,216.3 362.2,217.1 363.0,217.8 363.7,218.5 364.5,240.8 365.2,241.2 366.0,241.5 366.7,241.9 367.5,241.9 368.2,242.3 368.9,242.6 369.7,243.0 370.4,238.1 371.2,238.8 371.9,239.5 372.7,240.1 373.4,244.6 374.2,245.0 374.9,245.3 375.6,245.7 376.4,243.8 377.1,243.9 377.9,243.9 378.6,244.0 379.4,261.8 380.1,261.4 380.8,261.0 381.6,260.6 382.3,259.9 383.1,259.5 383.8,259.1 384.6,258.7 385.3,249.5 386.1,248.9 386.8,248.4 387.5,247.9 388.3,260.4 389.0,260.1 389.8,259.7 390.5,259.4 391.3,261.7 392.0,261.4 392.8,261.1 393.5,260.8 394.2,255.2 395.0,254.9 395.7,254.6 396.5,254.4 397.2,258.9 398.0,258.6 398.7,258.4 399.4,258.2 400.2,259.9 400.9,259.7 401.7,259.4 402.4,259.2 403.2,260.5 403.9,260.3 404.7,260.0 405.4,259.8 406.1,238.8 406.9,238.5 407.6,238.2 408.4,237.9 409.1,236.5 409.9,236.2 410.6,235.9 411.4,235.6 412.1,250.6 412.8,250.3 413.6,250.1 414.3,249.9 415.1,268.0 415.8,267.8 416.6,267.7 417.3,267.6 418.0,272.2 418.8,272.1 419.5,272.0 420.3,271.9 421.0,268.3 421.8,268.2 422.5,268.1 423.3,268.0 424.0,242.1 424.7,241.8 425.5,241.6 426.2,241.3 427.0,235.3 427.7,235.0 428.5,234.8 429.2,234.5 430.0,244.3 430.7,244.1 431.4,243.9 432.2,243.6 432.9,242.2 433.7,241.9 434.4,241.7 435.2,241.4 435.9,244.9 436.6,244.8 437.4,244.6 438.1,244.4 438.9,258.5 439.6,258.5 440.4,258.5 441.1,258.5 441.9,253.2 442.6,253.2 443.3,253.2 444.1,253.1 444.8,259.1 445.6,259.1 446.3,259.1 447.1,259.1 447.8,252.7 448.6,252.7 449.3,252.7 450.0,252.7 450.8,252.8 451.5,252.8 452.3,252.9 453.0,252.9 453.8,269.7 454.5,269.8 455.2,269.9 456.0,270.0 456.7,266.7 457.5,266.7 458.2,266.7 459.0,266.8 459.7,265.1 460.5,265.2 461.2,265.2 461.9,265.2 462.7,259.6 463.4,259.5 464.2,259.5 464.9,259.5 465.7,252.7 466.4,252.6 467.2,252.6 467.9,252.6 468.6,267.4 469.4,267.5 470.1,267.5 470.9,267.5 471.6,256.4 472.4,256.4 473.1,256.4 473.8,256.4 474.6,260.2 475.3,260.3 476.1,260.3 476.8,260.2 477.6,269.4 478.3,269.4 479.1,269.4 479.8,269.4 480.5,273.4 481.3,273.5 482.0,273.5 482.8,273.6 483.5,269.0 484.3,269.2 485.0,269.3 485.8,269.4 486.5,269.5 487.2,269.6 488.0,269.7 488.7,269.8 489.5,268.8 490.2,268.9 491.0,269.1 491.7,269.2 492.4,268.9 493.2,269.1 493.9,269.2 494.7,269.3 495.4,270.8 496.2,271.0 496.9,271.1 497.7,271.2 498.4,226.3 499.1,226.6 499.9,226.8 500.6,227.1 501.4,227.5 502.1,227.7 502.9,228.0 503.6,228.3 504.4,231.6 505.1,231.9 505.8,232.1 506.6,232.4 507.3,235.7 508.1,235.9 508.8,236.1 509.6,236.3 510.3,235.2 511.0,235.4 511.8,235.7 512.5,235.9 513.3,126.7 514.0,127.3 514.8,128.0 515.5,128.7 516.3,129.2 517.0,130.0 517.7,130.7 518.5,131.5 519.2,131.7 520.0,132.5 520.7,133.3 521.5,134.1 522.2,135.5 523.0,136.4 523.7,137.3 524.4,138.1 525.2,138.8 525.9,139.6 526.7,140.5 527.4,141.3 528.2,197.5 528.9,198.3 529.6,199.2 530.4,200.0 531.1,200.9 531.9,201.7 532.6,202.6 533.4,203.4 534.1,203.8 534.9,204.6 535.6,205.5 536.3,206.4 537.1,198.5 537.8,199.4 538.6,200.2 539.3,201.1 540.1,205.2 540.8,206.0 541.6,206.8 542.3,207.6 543.0,244.3 543.8,244.9 544.5,245.5 545.3,246.2 546.0,242.7 546.8,243.3 547.5,243.9 548.2,244.5 549.0,239.7 549.7,240.3 550.5,240.8 551.2,241.4 552.0,251.8 552.7,252.4 553.5,252.9 554.2,253.4 554.9,250.7 555.7,251.2 556.4,251.6 557.2,252.1 557.9,221.4 558.7,221.8 559.4,222.3 560.2,222.7 560.9,215.1 561.6,215.5 562.4,216.0 563.1,216.5 563.9,229.3 564.6,229.7 565.4,230.2 566.1,230.6 566.8,233.7 567.6,234.1 568.3,234.5 569.1,234.9 569.8,233.5 570.6,233.9 571.3,234.3 572.1,234.6 572.8,245.3 573.5,245.7 574.3,246.1 575.0,246.5 575.8,235.3 576.5,235.6 577.3,235.9 578.0,236.3 578.8,223.0 579.5,223.4 580.2,223.7 581.0,224.1 581.7,235.3 582.5,235.6 583.2,235.9 584.0,236.2 584.7,236.8 585.4,237.1 586.2,237.4 586.9,237.7 587.7,261.9 588.4,262.4 589.2,262.8 589.9,263.2 590.7,263.4 591.4,263.8 592.1,264.2 592.9,264.6 593.6,265.7 594.4,266.0 595.1,266.3 595.9,266.7 596.6,266.6 597.4,266.9 598.1,267.2 598.8,267.4 599.6,268.0 600.3,268.3 601.1,268.5 601.8,268.7 602.6,260.5 603.3,260.5 604.0,260.4 604.8,260.3 605.5,266.3 606.3,266.3 607.0,266.3 607.8,266.3 608.5,254.1 609.3,254.0 610.0,253.9 610.7,253.8 611.5,258.0 612.2,257.9 613.0,257.8 613.7,257.7 614.5,258.3 615.2,258.2 616.0,258.0 616.7,257.9 617.4,246.9 618.2,246.9 618.9,246.9 619.7,246.8 620.4,245.4 621.2,245.3 621.9,245.2 622.6,245.2 623.4,253.1 624.1,253.1 624.9,253.0 625.6,253.0 626.4,250.8 627.1,250.7 627.9,250.7 628.6,250.6 629.3,246.3 630.1,246.2 630.8,246.1 631.6,246.1 632.3,254.4 633.1,254.5 633.8,254.6 634.6,254.6 635.3,253.5 636.0,253.6 636.8,253.7 637.5,253.7 638.3,245.1 639.0,245.1 639.8,245.2 640.5,245.2 641.2,246.9 642.0,246.9 642.7,247.0 643.5,247.0 644.2,237.8 645.0,237.8 645.7,237.8 646.5,237.9 647.2,211.9 647.9,211.6 648.7,211.2 649.4,210.8 650.2,218.3 650.9,217.9 651.7,217.5 652.4,217.2 653.2,220.9 653.9,220.6 654.6,220.3 655.4,219.9 656.1,225.0 656.9,224.7 657.6,224.4 658.4,224.1 659.1,217.6 659.8,217.3 660.6,217.1 661.3,216.8 662.1,205.7 662.8,205.4 663.6,205.2 664.3,204.9 665.1,197.2 665.8,197.0 666.5,196.8 667.3,196.6 668.0,178.2 668.8,178.1 669.5,178.0 670.3,177.9 671.0,183.6 671.8,183.5 672.5,183.4 673.2,183.4 674.0,175.0 674.7,175.0 675.5,175.0 676.2,175.0 677.0,184.8 677.7,184.8 678.4,184.9 679.2,185.0 679.9,217.1 680.7,217.2 681.4,217.2 682.2,217.3 682.9,228.7 683.7,228.7 684.4,228.7 685.1,228.7 685.9,216.8 686.6,216.9 687.4,216.9 688.1,217.0 688.9,226.7 689.6,226.7 690.4,226.7 691.1,226.8 691.8,191.4 692.6,191.3 693.3,191.2 694.1,191.1 694.8,177.8 695.6,177.9 696.3,177.9 697.0,178.0 697.8,181.0 698.5,181.0 699.3,181.1 700.0,181.2 700.8,162.5 701.5,162.7 702.3,162.9 703.0,163.1 703.7,134.0 704.5,134.4 705.2,134.7 706.0,135.1 706.7,134.9 707.5,135.1 708.2,135.3 709.0,135.6 709.7,90.4 710.4,90.9 711.2,91.5 711.9,92.1 712.7,112.6 713.4,113.2 714.2,113.8 714.9,114.4 715.6,104.4 716.4,105.1 717.1,105.7 717.9,106.4 718.6,95.4 719.4,96.2 720.1,97.1 720.9,97.9 721.6,188.9 722.3,189.6 723.1,190.3 723.8,191.0 724.6,194.4 725.3,195.2 726.1,195.9 726.8,196.6 727.6,211.7 728.3,212.4 729.0,213.1 729.8,213.8 730.5,194.4 731.3,195.2 732.0,196.0 732.8,196.9 733.5,155.3 734.2,156.5 735.0,157.8 735.7,159.0 736.5,155.2 737.2,156.6 738.0,157.9 738.7,159.2 739.5,121.7 740.2,123.3 740.9,124.9 741.7,126.4 742.4,149.9 743.2,151.3 743.9,152.8 744.7,154.2 745.4,124.2 746.2,125.9 746.9,127.7 747.6,129.4 748.4,107.5 749.1,109.3 749.9,111.2 750.6,113.0 751.4,166.1 752.1,167.7 752.8,169.3 753.6,170.9 754.3,216.0 755.1,217.2 755.8,218.4 756.6,219.6 757.3,210.8 758.1,212.2 758.8,213.5 759.5,214.7 760.3,254.5 761.0,255.2 761.8,255.8 762.5,256.4 763.3,261.9 764.0,262.4 764.8,262.8 765.5,263.2 766.2,247.9 767.0,248.0 767.7,248.0 768.5,248.1 769.2,248.2 770.0,248.2 770.7,248.3 771.4,248.4 772.2,245.4 772.9,245.2 773.7,245.0 774.4,244.7 775.2,244.6 775.9,244.3 776.7,244.1 777.4,243.8 778.1,248.9 778.9,248.9 779.6,248.9 780.4,248.9 781.1,234.6 781.9,234.2 782.6,233.9 783.4,233.6 784.1,235.2 784.8,234.9 785.6,234.6 786.3,234.4 787.1,219.0 787.8,218.5 788.6,218.1 789.3,217.6 790.0,218.1 790.8,217.6 791.5,217.2 792.3,216.8 793.0,227.4 793.8,227.2 794.5,226.9 795.3,226.7 796.0,238.5"/>
<text x="640" y="56" font-family="Arial" font-size="12" fill="#0f766e">ukf_nominal NEES proxy</text>
</svg>