<svg xmlns="http://www.w3.org/2000/svg" width="820" height="320" viewBox="0 0 820 320">
<rect width="100%" height="100%" fill="white"/>
<text x="52" y="30" font-family="Arial" font-size="18" font-weight="700">ekf_nominal NEES proxy</text>
<line x1="52" y1="274" x2="796" y2="274" stroke="#263238"/>
<line x1="52" y1="42" x2="52" y2="274" stroke="#263238"/>
<text x="52" y="306" font-family="Arial" font-size="12">time (s)</text>
<text x="630" y="306" font-family="Arial" font-size="12">value</text>

<rect x="379.4" y="42" width="89.3" height="232" fill="#fef3c7" opacity="0.72"/>
<polyline fill="none" stroke="#0f766e" stroke-width="2.3" points="52.0,268.2 52.7,268.0 53.5,268.5 54.2,269.4 55.0,264.4 55.7,265.6 56.5,266.8 57.2,267.9 58.0,252.6 58.7,254.5 59.4,256.2 60.2,257.8 60.9,272.5 61.7,273.1 62.4,273.6 63.2,274.0 63.9,247.1 64.6,245.6 65.4,244.5 66.1,243.6 66.9,221.1 67.6,219.9 68.4,218.9 69.1,218.2 69.9,207.4 70.6,207.0 71.3,206.8 72.1,206.8 72.8,232.9 73.6,233.1 74.3,233.3 75.1,233.7 75.8,254.6 76.6,254.7 77.3,254.8 78.0,254.9 78.8,246.7 79.5,246.5 80.3,246.2 81.0,246.0 81.8,204.3 82.5,203.7 83.2,203.4 84.0,203.2 84.7,233.9 85.5,234.0 86.2,234.3 87.0,234.6 87.7,203.7 88.5,204.4 89.2,205.2 89.9,206.2 90.7,239.4 91.4,240.4 92.2,241.4 92.9,242.4 93.7,254.8 94.4,255.8 95.2,256.8 95.9,257.7 96.6,245.0 97.4,246.5 98.1,248.0 98.9,249.4 99.6,257.6 100.4,258.8 101.1,259.9 101.8,260.9 102.6,250.8 103.3,252.3 104.1,253.7 104.8,255.0 105.6,259.3 106.3,260.4 107.1,261.5 107.8,262.6 108.5,269.1 109.3,269.6 110.0,270.0 110.8,270.3 111.5,269.4 112.3,268.5 113.0,267.6 113.8,266.7 114.5,262.4 115.2,262.6 116.0,262.7 116.7,262.7 117.5,267.4 118.2,267.1 119.0,266.7 119.7,266.4 120.4,266.1 121.2,265.7 121.9,265.4 122.7,265.0 123.4,259.2 124.2,259.4 124.9,259.6 125.7,259.8 126.4,258.7 127.1,257.7 127.9,256.7 128.6,255.8 129.4,264.2 130.1,263.5 130.9,262.9 131.6,262.3 132.4,257.3 133.1,256.5 133.8,255.8 134.6,255.2 135.3,267.7 136.1,267.5 136.8,267.2 137.6,267.0 138.3,252.4 139.0,251.7 139.8,251.1 140.5,250.6 141.3,176.6 142.0,176.3 142.8,176.2 143.5,176.1 144.3,182.7 145.0,183.1 145.7,183.6 146.5,184.1 147.2,184.0 148.0,184.4 148.7,184.9 149.5,185.3 150.2,183.9 151.0,184.3 151.7,184.7 152.4,185.2 153.2,189.3 153.9,189.9 154.7,190.6 155.4,191.2 156.2,225.0 156.9,225.8 157.6,226.5 158.4,227.3 159.1,225.5 159.9,226.4 160.6,227.3 161.4,228.2 162.1,230.7 162.9,231.4 163.6,232.0 164.3,232.6 165.1,232.9 165.8,233.5 166.6,234.1 167.3,234.6 168.1,228.7 168.8,229.5 169.6,230.2 170.3,230.9 171.0,214.9 171.8,215.8 172.5,216.8 173.3,217.7 174.0,216.5 174.8,217.4 175.5,218.3 176.2,219.1 177.0,223.1 177.7,224.0 178.5,224.8 179.2,225.6 180.0,227.2 180.7,228.0 181.5,228.7 182.2,229.5 182.9,223.7 183.7,224.3 184.4,224.9 185.2,225.5 185.9,232.2 186.7,233.2 187.4,234.2 188.2,235.1 188.9,235.5 189.6,236.5 190.4,237.4 191.1,238.2 191.9,227.4 192.6,228.1 193.4,228.7 194.1,229.4 194.8,209.3 195.6,209.8 196.3,210.3 197.1,210.8 197.8,220.3 198.6,220.8 199.3,221.3 200.1,221.8 200.8,261.5 201.5,261.4 202.3,261.2 203.0,261.1 203.8,239.3 204.5,239.1 205.3,238.9 206.0,238.7 206.8,266.0 207.5,265.8 208.2,265.7 209.0,265.5 209.7,271.1 210.5,270.9 211.2,270.7 212.0,270.6 212.7,269.2 213.4,269.0 214.2,268.9 214.9,268.7 215.7,262.1 216.4,261.7 217.2,261.3 217.9,260.9 218.7,265.5 219.4,265.0 220.1,264.6 220.9,264.2 221.6,258.2 222.4,257.8 223.1,257.5 223.9,257.1 224.6,259.3 225.4,258.9 226.1,258.5 226.8,258.2 227.6,246.3 228.3,245.9 229.1,245.6 229.8,245.2 230.6,228.9 231.3,228.1 232.0,227.3 232.8,226.6 233.5,203.6 234.3,202.8 235.0,202.2 235.8,201.6 236.5,191.8 237.3,191.2 238.0,190.8 238.7,190.3 239.5,196.3 240.2,195.8 241.0,195.4 241.7,194.9 242.5,174.9 243.2,174.5 244.0,174.2 244.7,173.9 245.4,157.1 246.2,156.7 246.9,156.3 247.7,156.0 248.4,130.2 249.2,130.1 249.9,130.0 250.6,129.8 251.4,93.6 252.1,93.6 252.9,93.6 253.6,93.7 254.4,42.0 255.1,42.3 255.9,42.5 256.6,42.8 257.3,62.8 258.1,63.1 258.8,63.5 259.6,63.9 260.3,86.8 261.1,87.3 261.8,87.8 262.6,88.4 263.3,78.1 264.0,78.9 264.8,79.8 265.5,80.7 266.3,102.6 267.0,103.5 267.8,104.4 268.5,105.3 269.2,135.1 270.0,135.9 270.7,136.8 271.5,137.6 272.2,78.2 273.0,79.5 273.7,80.7 274.5,81.9 275.2,168.4 275.9,169.3 276.7,170.3 277.4,171.3 278.2,190.6 278.9,191.5 279.7,192.4 280.4,193.2 281.2,193.6 281.9,194.5 282.6,195.4 283.4,196.2 284.1,176.7 284.9,177.7 285.6,178.7 286.4,179.6 287.1,179.9 287.8,180.8 288.6,181.8 289.3,182.7 290.1,192.4 290.8,193.5 291.6,194.5 292.3,195.6 293.1,231.8 293.8,232.7 294.5,233.5 295.3,234.2 296.0,228.7 296.8,229.5 297.5,230.2 298.3,231.0 299.0,223.5 299.8,224.4 300.5,225.2 301.2,226.1 302.0,215.6 302.7,216.6 303.5,217.6 304.2,218.6 305.0,101.6 305.7,103.0 306.4,104.3 307.2,105.6 307.9,124.9 308.7,126.2 309.4,127.4 310.2,128.6 310.9,137.6 311.7,138.7 312.4,139.9 313.1,141.1 313.9,154.8 314.6,155.8 315.4,156.8 316.1,157.8 316.9,163.2 317.6,164.1 318.4,165.0 319.1,165.8 319.8,160.5 320.6,161.8 321.3,163.1 322.1,164.4 322.8,156.0 323.6,157.4 324.3,158.8 325.0,160.2 325.8,186.1 326.5,187.2 327.3,188.2 328.0,189.2 328.8,196.4 329.5,197.4 330.3,198.2 331.0,199.1 331.7,185.0 332.5,186.1 333.2,187.1 334.0,188.1 334.7,158.5 335.5,159.7 336.2,161.0 337.0,162.2 337.7,165.2 338.4,166.4 339.2,167.6 339.9,168.8 340.7,156.9 341.4,158.2 342.2,159.5 342.9,160.8 343.6,145.6 344.4,147.1 345.1,148.5 345.9,149.9 346.6,174.6 347.4,175.7 348.1,176.8 348.9,177.9 349.6,195.9 350.3,197.0 351.1,198.0 351.8,199.0 352.6,203.2 353.3,204.1 354.1,205.0 354.8,205.9 355.6,212.3 356.3,213.1 357.0,213.9 357.8,214.7 358.5,209.6 359.3,210.5 360.0,211.4 360.8,212.3 361.5,220.4 362.2,221.1 363.0,221.9 363.7,222.5 364.5,241.9 365.2,242.3 366.0,242.6 366.7,243.0 367.5,242.9 368.2,243.3 368.9,243.7 369.7,244.0 370.4,239.3 371.2,239.9 371.9,240.6 372.7,241.2 373.4,245.5 374.2,245.9 374.9,246.2 375.6,246.5 376.4,244.7 377.1,244.7 377.9,244.8 378.6,244.9 379.4,260.9 380.1,260.5 380.8,260.1 381.6,259.7 382.3,259.0 383.1,258.6 383.8,258.2 384.6,257.8 385.3,248.9 386.1,248.3 386.8,247.8 387.5,247.3 388.3,259.4 389.0,259.1 389.8,258.8 390.5,258.4 391.3,260.6 392.0,260.3 392.8,260.1 393.5,259.8 394.2,254.5 395.0,254.3 395.7,254.0 396.5,253.7 397.2,258.1 398.0,257.8 398.7,257.6 399.4,257.4 400.2,259.0 400.9,258.8 401.7,258.6 402.4,258.3 403.2,259.6 403.9,259.3 404.7,259.1 405.4,258.9 406.1,238.5 406.9,238.2 407.6,237.9 408.4,237.6 409.1,237.5 409.9,237.2 410.6,236.9 411.4,236.7 412.1,251.1 412.8,250.9 413.6,250.7 414.3,250.5 415.1,268.0 415.8,267.8 416.6,267.7 417.3,267.6 418.0,272.0 418.8,271.9 419.5,271.8 420.3,271.7 421.0,268.3 421.8,268.2 422.5,268.1 423.3,268.0 424.0,241.7 424.7,241.4 425.5,241.2 426.2,240.9 427.0,235.1 427.7,234.8 428.5,234.5 429.2,234.3 430.0,243.8 430.7,243.6 431.4,243.3 432.2,243.1 432.9,241.7 433.7,241.4 434.4,241.2 435.2,241.0 435.9,244.4 436.6,244.2 437.4,244.0 438.1,243.8 438.9,256.7 439.6,256.7 440.4,256.7 441.1,256.7 441.9,251.6 442.6,251.5 443.3,251.5 444.1,251.5 444.8,257.2 445.6,257.2 446.3,257.2 447.1,257.2 447.8,251.0 448.6,251.0 449.3,251.0 450.0,251.0 450.8,251.1 451.5,251.2 452.3,251.2 453.0,251.2 453.8,269.5 454.5,269.6 455.2,269.7 456.0,269.8 456.7,266.6 457.5,266.6 458.2,266.6 459.0,266.7 459.7,265.1 460.5,265.1 461.2,265.1 461.9,265.1 462.7,259.7 463.4,259.7 464.2,259.7 464.9,259.7 465.7,253.1 466.4,253.0 467.2,253.0 467.9,253.0 468.6,267.2 469.4,267.2 470.1,267.2 470.9,267.3 471.6,256.5 472.4,256.5 473.1,256.4 473.8,256.4 474.6,260.2 475.3,260.2 476.1,260.2 476.8,260.2 477.6,269.1 478.3,269.1 479.1,269.1 479.8,269.1 480.5,273.0 481.3,273.1 482.0,273.1 482.8,273.2 483.5,268.8 484.3,269.0 485.0,269.1 485.8,269.2 486.5,269.3 487.2,269.4 488.0,269.5 488.7,269.6 489.5,268.6 490.2,268.7 491.0,268.9 491.7,269.1 492.4,268.7 493.2,268.9 493.9,269.0 494.7,269.1 495.4,270.6 496.2,270.7 496.9,270.8 497.7,270.9 498.4,229.0 499.1,229.2 499.9,229.5 500.6,229.8 501.4,230.2 502.1,230.4 502.9,230.7 503.6,231.0 504.4,234.2 505.1,234.5 505.8,234.7 506.6,235.0 507.3,238.2 508.1,238.4 508.8,238.7 509.6,238.9 510.3,237.8 511.0,238.0 511.8,238.3 512.5,238.5 513.3,131.0 514.0,131.6 514.8,132.2 515.5,132.9 516.3,133.4 517.0,134.1 517.7,134.8 518.5,135.6 519.2,135.8 520.0,136.6 520.7,137.4 521.5,138.2 522.2,139.5 523.0,140.3 523.7,141.2 524.4,142.0 525.2,142.7 525.9,143.5 526.7,144.3 527.4,145.1 528.2,199.6 528.9,200.4 529.6,201.2 530.4,202.0 531.1,202.8 531.9,203.7 532.6,204.5 533.4,205.3 534.1,205.6 534.9,206.5 535.6,207.3 536.3,208.2 537.1,200.6 537.8,201.4 538.6,202.2 539.3,203.0 540.1,207.0 540.8,207.8 541.6,208.6 542.3,209.3 543.0,246.1 543.8,246.7 544.5,247.3 545.3,247.9 546.0,244.6 546.8,245.2 547.5,245.7 548.2,246.3 549.0,241.7 549.7,242.3 550.5,242.8 551.2,243.3 552.0,253.5 552.7,254.0 553.5,254.5 554.2,255.0 554.9,252.4 555.7,252.9 556.4,253.4 557.2,253.8 557.9,225.6 558.7,226.1 559.4,226.5 560.2,227.0 560.9,219.6 561.6,220.0 562.4,220.5 563.1,221.0 563.9,233.4 564.6,233.8 565.4,234.3 566.1,234.7 566.8,237.7 567.6,238.1 568.3,238.5 569.1,238.9 569.8,237.5 570.6,237.9 571.3,238.3 572.1,238.7 572.8,248.3 573.5,248.7 574.3,249.2 575.0,249.5 575.8,238.7 576.5,239.0 577.3,239.4 578.0,239.7 578.8,226.9 579.5,227.2 580.2,227.6 581.0,227.9 581.7,238.8 582.5,239.1 583.2,239.4 584.0,239.6 584.7,240.3 585.4,240.6 586.2,240.9 586.9,241.2 587.7,263.7 588.4,264.1 589.2,264.6 589.9,265.0 590.7,265.1 591.4,265.5 592.1,265.9 592.9,266.3 593.6,267.3 594.4,267.7 595.1,268.0 595.9,268.3 596.6,268.3 597.4,268.5 598.1,268.8 598.8,269.0 599.6,269.6 600.3,269.9 601.1,270.1 601.8,270.3 602.6,262.6 603.3,262.6 604.0,262.5 604.8,262.5 605.5,268.3 606.3,268.3 607.0,268.3 607.8,268.2 608.5,256.5 609.3,256.4 610.0,256.3 610.7,256.1 611.5,260.3 612.2,260.2 613.0,260.1 613.7,260.0 614.5,260.6 615.2,260.4 616.0,260.3 616.7,260.2 617.4,250.0 618.2,249.9 618.9,249.9 619.7,249.8 620.4,248.5 621.2,248.4 621.9,248.3 622.6,248.3 623.4,256.0 624.1,256.0 624.9,255.9 625.6,255.9 626.4,253.8 627.1,253.7 627.9,253.7 628.6,253.6 629.3,249.4 630.1,249.4 630.8,249.3 631.6,249.3 632.3,256.8 633.1,256.9 633.8,256.9 634.6,257.0 635.3,256.0 636.0,256.0 636.8,256.1 637.5,256.1 638.3,247.8 639.0,247.8 639.8,247.9 640.5,247.9 641.2,249.5 642.0,249.6 642.7,249.7 643.5,249.7 644.2,240.7 645.0,240.8 645.7,240.8 646.5,240.9 647.2,215.8 647.9,215.4 648.7,215.0 649.4,214.7 650.2,221.9 650.9,221.6 651.7,221.2 652.4,220.9 653.2,224.5 653.9,224.2 654.6,223.9 655.4,223.6 656.1,228.5 656.9,228.2 657.6,227.9 658.4,227.6 659.1,221.3 659.8,221.1 660.6,220.9 661.3,220.6 662.1,209.4 662.8,209.2 663.6,208.9 664.3,208.6 665.1,201.2 665.8,201.0 666.5,200.8 667.3,200.6 668.0,182.7 668.8,182.7 669.5,182.6 670.3,182.5 671.0,188.0 671.8,187.9 672.5,187.9 673.2,187.8 674.0,179.7 674.7,179.7 675.5,179.7 676.2,179.8 677.0,189.2 677.7,189.3 678.4,189.3 679.2,189.4 679.9,220.6 680.7,220.6 681.4,220.7 682.2,220.8 682.9,231.8 683.7,231.8 684.4,231.8 685.1,231.8 685.9,220.3 686.6,220.4 687.4,220.4 688.1,220.5 688.9,229.9 689.6,229.9 690.4,230.0 691.1,230.0 691.8,195.2 692.6,195.0 693.3,194.9 694.1,194.8 694.8,182.0 695.6,182.0 696.3,182.1 697.0,182.1 697.8,185.1 698.5,185.2 699.3,185.2 700.0,185.3 700.8,167.2 701.5,167.4 702.3,167.6 703.0,167.8 703.7,139.6 704.5,139.9 705.2,140.3 706.0,140.6 706.7,139.9 707.5,140.1 708.2,140.3 709.0,140.6 709.7,96.8 710.4,97.3 711.2,97.8 711.9,98.4 712.7,118.3 713.4,118.9 714.2,119.5 714.9,120.1 715.6,110.4 716.4,111.0 717.1,111.7 717.9,112.3 718.6,101.7 719.4,102.5 720.1,103.3 720.9,104.2 721.6,192.1 722.3,192.8 723.1,193.4 723.8,194.1 724.6,197.4 725.3,198.1 726.1,198.9 726.8,199.6 727.6,214.2 728.3,214.9 729.0,215.5 729.8,216.2 730.5,197.4 731.3,198.2 732.0,199.0 732.8,199.8 733.5,159.5 734.2,160.7 735.0,161.9 735.7,163.1 736.5,159.3 737.2,160.6 738.0,161.9 738.7,163.2 739.5,126.8 740.2,128.4 740.9,129.9 741.7,131.4 742.4,154.2 743.2,155.5 743.9,156.9 744.7,158.3 745.4,129.2 746.2,130.9 746.9,132.6 747.6,134.3 748.4,113.0 749.1,114.8 749.9,116.6 750.6,118.4 751.4,169.3 752.1,170.8 752.8,172.4 753.6,174.0 754.3,217.7 755.1,218.8 755.8,220.0 756.6,221.1 757.3,212.7 758.1,213.9 758.8,215.2 759.5,216.4 760.3,255.0 761.0,255.6 761.8,256.2 762.5,256.8 763.3,262.2 764.0,262.6 764.8,263.0 765.5,263.4 766.2,248.2 767.0,248.3 767.7,248.3 768.5,248.4 769.2,248.5 770.0,248.5 770.7,248.6 771.4,248.6 772.2,245.7 772.9,245.5 773.7,245.3 774.4,245.1 775.2,245.0 775.9,244.7 776.7,244.5 777.4,244.2 778.1,249.2 778.9,249.2 779.6,249.1 780.4,249.1 781.1,235.1 781.9,234.8 782.6,234.5 783.4,234.2 784.1,235.7 784.8,235.4 785.6,235.1 786.3,234.9 787.1,220.0 787.8,219.6 788.6,219.1 789.3,218.7 790.0,219.1 790.8,218.7 791.5,218.3 792.3,217.9 793.0,228.1 793.8,227.9 794.5,227.7 795.3,227.4 796.0,239.0"/>
<text x="640" y="56" font-family="Arial" font-size="12" fill="#0f766e">ekf_nominal NEES proxy</text>
</svg>