<svg xmlns="http://www.w3.org/2000/svg" width="820" height="320" viewBox="0 0 820 320">
<rect width="100%" height="100%" fill="white"/>
<text x="52" y="30" font-family="Arial" font-size="18" font-weight="700">linear_nominal NIS</text>
<line x1="52" y1="274" x2="796" y2="274" stroke="#263238"/>
<line x1="52" y1="42" x2="52" y2="274" stroke="#263238"/>
<text x="52" y="306" font-family="Arial" font-size="12">time (s)</text>
<text x="630" y="306" font-family="Arial" font-size="12">value</text>

<polyline fill="none" stroke="#0f766e" stroke-width="2.3" points="52.0,273.6 52.0,273.6 52.0,274.0 52.0,274.0 52.0,274.0 55.0,273.8 58.0,273.8 60.9,273.3 63.9,269.9 66.9,271.6 66.9,273.6 66.9,274.0 66.9,274.0 66.9,274.0 69.9,273.5 72.8,273.9 75.8,272.7 78.8,272.9 81.8,271.7 81.8,271.6 81.8,274.0 81.8,274.0 81.8,274.0 84.7,273.1 87.7,273.5 90.7,272.6 93.7,273.4 96.6,268.7 96.6,274.0 96.6,274.0 96.6,274.0 96.6,274.0 99.6,273.8 102.6,273.5 105.6,274.0 108.5,273.4 111.5,271.5 111.5,273.4 111.5,274.0 111.5,274.0 111.5,274.0 114.5,270.4 117.5,273.6 120.4,274.0 123.4,272.5 126.4,265.4 126.4,269.3 126.4,274.0 126.4,274.0 126.4,274.0 129.4,273.2 132.4,274.0 135.3,271.2 138.3,273.1 141.3,270.6 141.3,272.8 141.3,274.0 141.3,274.0 141.3,274.0 144.3,269.7 147.2,274.0 150.2,274.0 153.2,271.4 156.2,270.9 156.2,273.7 156.2,274.0 156.2,274.0 156.2,274.0 159.1,270.6 162.1,273.7 165.1,273.6 168.1,266.1 171.0,261.3 171.0,271.0 171.0,274.0 171.0,274.0 171.0,274.0 174.0,274.0 177.0,273.2 180.0,273.7 182.9,273.1 185.9,269.0 185.9,270.5 185.9,274.0 185.9,274.0 185.9,274.0 188.9,273.8 191.9,269.3 194.8,272.9 197.8,273.5 200.8,267.6 200.8,273.2 200.8,274.0 200.8,274.0 200.8,274.0 203.8,272.9 206.8,268.9 209.7,272.2 212.7,274.0 215.7,269.0 215.7,274.0 215.7,274.0 215.7,274.0 215.7,274.0 218.7,272.1 221.6,272.5 224.6,273.7 227.6,272.7 230.6,268.9 230.6,273.0 230.6,274.0 230.6,274.0 230.6,274.0 233.5,269.8 236.5,273.8 239.5,273.8 242.5,273.2 245.4,267.8 245.4,273.2 245.4,274.0 245.4,274.0 245.4,274.0 248.4,273.3 251.4,273.2 254.4,272.9 257.3,272.9 260.3,270.1 260.3,274.0 260.3,274.0 260.3,274.0 260.3,274.0 263.3,274.0 266.3,272.9 269.2,272.1 272.2,271.5 275.2,261.5 275.2,272.5 275.2,274.0 275.2,274.0 275.2,274.0 278.2,272.8 281.2,273.9 284.1,273.7 287.1,273.9 290.1,269.3 290.1,273.9 290.1,274.0 290.1,274.0 290.1,274.0 293.1,270.5 296.0,274.0 299.0,273.9 302.0,273.9 305.0,273.1 305.0,270.7 305.0,274.0 305.0,274.0 305.0,274.0 307.9,273.1 310.9,273.7 313.9,273.3 316.9,273.8 319.8,269.4 319.8,271.5 319.8,274.0 319.8,274.0 319.8,274.0 322.8,274.0 325.8,271.5 328.8,273.5 331.7,273.4 334.7,265.2 334.7,273.6 334.7,274.0 334.7,274.0 334.7,274.0 337.7,273.8 340.7,273.9 343.6,273.8 346.6,271.7 349.6,272.1 349.6,273.8 349.6,274.0 349.6,274.0 349.6,274.0 352.6,273.7 355.6,273.4 358.5,273.9 361.5,272.9 364.5,271.7 364.5,270.2 364.5,274.0 364.5,274.0 364.5,274.0 367.5,274.0 370.4,272.6 373.4,271.8 376.4,272.4 379.4,272.7 379.4,274.0 379.4,274.0 379.4,274.0 382.3,274.0 385.3,273.4 388.3,272.9 391.3,274.0 394.2,273.7 394.2,274.0 394.2,274.0 394.2,274.0 397.2,273.8 400.2,274.0 403.2,274.0 406.1,271.6 409.1,274.0 409.1,274.0 409.1,274.0 409.1,274.0 412.1,272.9 415.1,271.0 418.0,273.4 421.0,273.6 424.0,274.0 424.0,274.0 424.0,274.0 424.0,274.0 427.0,273.7 430.0,272.4 432.9,274.0 435.9,273.5 438.9,274.0 438.9,274.0 438.9,274.0 438.9,274.0 441.9,273.4 444.8,273.1 447.8,273.1 450.8,274.0 453.8,271.1 453.8,274.0 453.8,274.0 453.8,274.0 456.7,273.3 459.7,274.0 462.7,273.7 465.7,273.8 468.6,271.3 468.6,274.0 468.6,274.0 468.6,274.0 471.6,272.7 474.6,273.8 477.6,272.4 480.5,272.7 483.5,270.4 483.5,273.7 483.5,274.0 483.5,274.0 483.5,274.0 486.5,274.0 489.5,273.2 492.4,274.0 495.4,273.4 498.4,271.6 498.4,268.3 498.4,274.0 498.4,274.0 498.4,274.0 501.4,274.0 504.4,273.8 507.3,272.5 510.3,273.0 513.3,269.9 513.3,273.4 513.3,274.0 513.3,274.0 513.3,274.0 516.3,273.9 519.2,272.8 522.2,274.0 525.2,273.5 528.2,263.0 528.2,273.9 528.2,274.0 528.2,274.0 528.2,274.0 531.1,274.0 534.1,273.5 537.1,271.0 540.1,273.8 543.0,266.1 543.0,273.5 543.0,274.0 543.0,274.0 543.0,274.0 546.0,273.3 549.0,273.5 552.0,271.8 554.9,273.5 557.9,270.9 557.9,273.3 557.9,274.0 557.9,274.0 557.9,274.0 560.9,273.6 563.9,272.4 566.8,273.9 569.8,274.0 572.8,270.7 572.8,274.0 572.8,274.0 572.8,274.0 572.8,274.0 575.8,272.7 578.8,273.2 581.7,273.2 584.7,274.0 587.7,42.0 587.7,266.7 587.7,274.0 587.7,274.0 587.7,274.0 590.7,274.0 593.6,273.7 596.6,273.9 599.6,273.7 602.6,265.1 602.6,271.2 602.6,274.0 602.6,274.0 602.6,274.0 605.5,272.1 608.5,268.6 611.5,273.8 614.5,274.0 617.4,266.1 617.4,273.9 617.4,274.0 617.4,274.0 617.4,274.0 620.4,274.0 623.4,272.3 626.4,273.8 629.3,273.7 632.3,270.6 632.3,273.9 632.3,274.0 632.3,274.0 632.3,274.0 635.3,274.0 638.3,273.5 641.2,273.9 644.2,273.7 647.2,266.8 647.2,273.5 647.2,274.0 647.2,274.0 647.2,274.0 650.2,273.4 653.2,273.7 656.1,273.4 659.1,273.5 662.1,270.7 662.1,272.3 662.1,274.0 662.1,274.0 662.1,274.0 665.1,273.9 668.0,273.3 671.0,273.8 674.0,273.9 677.0,264.9 677.0,273.9 677.0,274.0 677.0,274.0 677.0,274.0 679.9,270.2 682.9,273.0 685.9,272.8 688.9,273.3 691.8,272.6 691.8,272.7 691.8,274.0 691.8,274.0 691.8,274.0 694.8,270.9 697.8,273.9 700.8,271.5 703.7,271.4 706.7,271.7 706.7,273.3 706.7,274.0 706.7,274.0 706.7,274.0 709.7,269.9 712.7,273.0 715.6,273.9 718.6,273.9 721.6,268.7 721.6,271.4 721.6,274.0 721.6,274.0 721.6,274.0 724.6,274.0 727.6,273.1 730.5,272.6 733.5,270.6 736.5,271.7 736.5,274.0 736.5,274.0 736.5,274.0 736.5,274.0 739.5,272.6 742.4,272.9 745.4,273.2 748.4,273.8 751.4,271.4 751.4,271.6 751.4,274.0 751.4,274.0 751.4,274.0 754.3,269.6 757.3,273.9 760.3,266.2 763.3,273.5 766.2,269.3 766.2,273.0 766.2,274.0 766.2,274.0 766.2,274.0 769.2,274.0 772.2,272.8 775.2,274.0 778.1,272.3 781.1,270.2 781.1,272.7 781.1,274.0 781.1,274.0 781.1,274.0 784.1,273.9 787.1,271.9 790.0,274.0 793.0,273.0 796.0,266.0 796.0,273.9 796.0,274.0 796.0,274.0 796.0,274.0"/>
<text x="640" y="56" font-family="Arial" font-size="12" fill="#0f766e">linear_nominal NIS</text>
</svg>