<svg xmlns="http://www.w3.org/2000/svg" width="820" height="320" viewBox="0 0 820 320">
<rect width="100%" height="100%" fill="white"/>
<text x="52" y="30" font-family="Arial" font-size="18" font-weight="700">ukf_nominal NIS</text>
<line x1="52" y1="274" x2="796" y2="274" stroke="#263238"/>
<line x1="52" y1="42" x2="52" y2="274" stroke="#263238"/>
<text x="52" y="306" font-family="Arial" font-size="12">time (s)</text>
<text x="630" y="306" font-family="Arial" font-size="12">value</text>

<polyline fill="none" stroke="#0f766e" stroke-width="2.3" points="52.0,273.7 52.0,273.6 52.0,272.2 52.0,273.9 52.0,273.8 55.0,273.9 58.0,274.0 60.9,273.1 63.9,272.2 66.9,273.8 66.9,273.8 66.9,273.2 66.9,274.0 66.9,274.0 69.9,273.9 72.8,272.5 75.8,271.5 78.8,272.7 81.8,273.1 81.8,272.8 81.8,273.8 81.8,274.0 81.8,273.1 84.7,272.2 87.7,273.9 90.7,272.0 93.7,273.3 96.6,271.9 96.6,274.0 96.6,272.9 96.6,271.8 96.6,273.4 99.6,273.6 102.6,273.7 105.6,273.8 108.5,273.3 111.5,273.5 111.5,273.5 111.5,273.7 111.5,274.0 111.5,273.0 114.5,270.6 117.5,273.4 120.4,274.0 123.4,272.9 126.4,271.4 126.4,268.8 126.4,273.5 126.4,273.7 126.4,272.1 129.4,273.3 132.4,274.0 135.3,271.9 138.3,272.7 141.3,273.6 141.3,273.3 141.3,273.1 141.3,274.0 141.3,272.6 144.3,271.4 147.2,273.6 150.2,273.9 153.2,272.8 156.2,273.5 156.2,274.0 156.2,268.8 156.2,273.7 156.2,273.9 159.1,272.8 162.1,272.5 165.1,274.0 168.1,269.8 171.0,273.2 171.0,270.0 171.0,273.7 171.0,271.0 171.0,273.5 174.0,273.9 177.0,273.5 180.0,273.9 182.9,272.8 185.9,272.6 185.9,270.9 185.9,272.2 185.9,274.0 185.9,274.0 188.9,273.9 191.9,269.3 194.8,273.0 197.8,273.4 200.8,270.8 200.8,273.4 200.8,273.4 200.8,273.9 200.8,272.3 203.8,272.8 206.8,269.5 209.7,272.7 212.7,273.9 215.7,272.6 215.7,274.0 215.7,274.0 215.7,272.4 215.7,272.7 218.7,272.3 221.6,272.4 224.6,273.8 227.6,272.7 230.6,271.6 230.6,272.9 230.6,274.0 230.6,273.9 230.6,273.0 233.5,270.4 236.5,273.9 239.5,273.6 242.5,273.4 245.4,273.2 245.4,273.2 245.4,272.2 245.4,274.0 245.4,273.7 248.4,273.3 251.4,273.2 254.4,273.0 257.3,272.9 260.3,272.3 260.3,273.9 260.3,273.8 260.3,273.8 260.3,272.5 263.3,274.0 266.3,272.8 269.2,272.0 272.2,271.7 275.2,267.9 275.2,272.5 275.2,273.5 275.2,273.2 275.2,271.6 278.2,272.8 281.2,273.9 284.1,273.7 287.1,273.9 290.1,272.7 290.1,274.0 290.1,273.4 290.1,271.4 290.1,273.3 293.1,270.3 296.0,274.0 299.0,274.0 302.0,273.9 305.0,273.8 305.0,271.2 305.0,271.8 305.0,273.5 305.0,273.5 307.9,272.9 310.9,273.6 313.9,273.2 316.9,273.7 319.8,271.2 319.8,271.6 319.8,273.8 319.8,273.8 319.8,273.4 322.8,274.0 325.8,271.6 328.8,273.6 331.7,273.4 334.7,270.3 334.7,273.6 334.7,268.9 334.7,273.9 334.7,273.1 337.7,273.9 340.7,273.9 343.6,273.8 346.6,271.9 349.6,273.0 349.6,273.9 349.6,273.9 349.6,273.8 349.6,270.3 352.6,273.8 355.6,273.6 358.5,273.9 361.5,273.2 364.5,273.8 364.5,271.2 364.5,273.6 364.5,273.9 364.5,272.1 367.5,273.9 370.4,272.1 373.4,272.5 376.4,273.0 379.4,273.2 379.4,273.1 379.4,273.1 379.4,271.2 382.3,274.0 385.3,273.7 388.3,272.5 391.3,273.8 394.2,273.9 394.2,273.8 394.2,273.9 394.2,274.0 397.2,273.7 400.2,273.9 403.2,273.9 406.1,272.2 409.1,274.0 409.1,273.8 409.1,274.0 409.1,273.3 412.1,272.7 415.1,270.7 418.0,273.3 421.0,273.7 424.0,274.0 424.0,273.1 424.0,274.0 424.0,273.6 427.0,273.8 430.0,272.3 432.9,274.0 435.9,273.5 438.9,274.0 438.9,270.7 438.9,273.3 438.9,274.0 441.9,273.5 444.8,273.0 447.8,273.3 450.8,274.0 453.8,271.1 453.8,273.6 453.8,273.8 453.8,272.2 456.7,273.4 459.7,274.0 462.7,273.7 465.7,273.8 468.6,271.4 468.6,273.9 468.6,274.0 468.6,273.9 471.6,272.8 474.6,273.7 477.6,272.5 480.5,272.7 483.5,271.5 483.5,273.6 483.5,273.9 483.5,272.2 483.5,274.0 486.5,274.0 489.5,273.0 492.4,274.0 495.4,273.5 498.4,270.8 498.4,269.2 498.4,272.8 498.4,273.5 498.4,273.6 501.4,274.0 504.4,273.6 507.3,272.3 510.3,273.3 513.3,273.3 513.3,273.2 513.3,273.6 513.3,270.0 513.3,273.8 516.3,273.8 519.2,273.1 522.2,273.9 525.2,273.3 528.2,271.2 528.2,273.9 528.2,270.4 528.2,271.7 528.2,274.0 531.1,274.0 534.1,273.6 537.1,271.5 540.1,273.7 543.0,273.0 543.0,273.4 543.0,272.2 543.0,273.2 543.0,273.7 546.0,273.5 549.0,273.7 552.0,271.4 554.9,273.7 557.9,272.0 557.9,273.5 557.9,274.0 557.9,272.3 557.9,273.9 560.9,273.7 563.9,272.3 566.8,273.8 569.8,274.0 572.8,273.5 572.8,274.0 572.8,273.5 572.8,273.7 572.8,272.4 575.8,272.9 578.8,273.4 581.7,273.1 584.7,274.0 587.7,42.0 587.7,266.9 587.7,273.8 587.7,271.5 587.7,273.9 590.7,274.0 593.6,273.7 596.6,273.9 599.6,273.7 602.6,273.5 602.6,271.9 602.6,273.9 602.6,273.5 602.6,274.0 605.5,271.7 608.5,269.7 611.5,273.6 614.5,274.0 617.4,272.4 617.4,273.9 617.4,273.5 617.4,273.9 617.4,274.0 620.4,274.0 623.4,272.3 626.4,273.9 629.3,273.7 632.3,273.6 632.3,273.9 632.3,273.8 632.3,273.9 632.3,274.0 635.3,274.0 638.3,273.4 641.2,273.9 644.2,273.7 647.2,271.8 647.2,273.4 647.2,274.0 647.2,270.3 647.2,273.5 650.2,273.3 653.2,273.7 656.1,273.4 659.1,273.5 662.1,272.2 662.1,272.7 662.1,274.0 662.1,273.9 662.1,274.0 665.1,273.9 668.0,273.5 671.0,273.7 674.0,274.0 677.0,271.9 677.0,273.7 677.0,273.9 677.0,271.9 677.0,272.2 679.9,269.6 682.9,272.7 685.9,273.2 688.9,273.0 691.8,273.7 691.8,272.4 691.8,273.9 691.8,273.8 691.8,272.7 694.8,271.6 697.8,273.8 700.8,272.2 703.7,272.1 706.7,271.1 706.7,272.9 706.7,273.3 706.7,274.0 706.7,271.7 709.7,270.9 712.7,272.7 715.6,274.0 718.6,274.0 721.6,270.1 721.6,270.8 721.6,272.1 721.6,273.4 721.6,274.0 724.6,273.8 727.6,272.8 730.5,273.0 733.5,271.3 736.5,273.2 736.5,274.0 736.5,273.9 736.5,272.6 736.5,273.9 739.5,273.0 742.4,272.6 745.4,273.5 748.4,273.9 751.4,272.3 751.4,271.1 751.4,274.0 751.4,267.8 751.4,272.9 754.3,269.2 757.3,273.9 760.3,266.0 763.3,273.4 766.2,272.0 766.2,273.1 766.2,273.9 766.2,274.0 766.2,274.0 769.2,274.0 772.2,273.0 775.2,274.0 778.1,272.2 781.1,273.2 781.1,272.9 781.1,267.4 781.1,274.0 781.1,272.1 784.1,273.9 787.1,272.2 790.0,273.9 793.0,272.9 796.0,271.3 796.0,273.7 796.0,273.9 796.0,273.5 796.0,273.4"/>
<text x="640" y="56" font-family="Arial" font-size="12" fill="#0f766e">ukf_nominal NIS</text>
</svg>