<svg xmlns="http://www.w3.org/2000/svg" width="820" height="320" viewBox="0 0 820 320">
<rect width="100%" height="100%" fill="white"/>
<text x="52" y="30" font-family="Arial" font-size="18" font-weight="700">nominal position error</text>
<line x1="52" y1="274" x2="796" y2="274" stroke="#263238"/>
<line x1="52" y1="42" x2="52" y2="274" stroke="#263238"/>
<text x="52" y="306" font-family="Arial" font-size="12">time (s)</text>
<text x="630" y="306" font-family="Arial" font-size="12">m</text>

<rect x="379.4" y="42" width="89.3" height="232" fill="#fef3c7" opacity="0.72"/>
<polyline fill="none" stroke="#0f766e" stroke-width="2.3" points="52.0,241.5 52.7,239.3 53.5,237.1 54.2,234.8 55.0,223.1 55.7,219.1 56.5,215.1 57.2,211.0 58.0,196.5 58.7,190.7 59.4,184.8 60.2,178.9 60.9,213.3 61.7,211.4 62.4,209.4 63.2,207.4 63.9,179.8 64.6,172.6 65.4,165.2 66.1,157.7 66.9,166.3 67.6,157.7 68.4,149.1 69.1,140.4 69.9,141.5 70.6,133.4 71.3,125.4 72.1,117.3 72.8,133.9 73.6,127.2 74.3,120.6 75.1,113.9 75.8,119.4 76.6,113.4 77.3,107.3 78.0,101.2 78.8,92.3 79.5,85.9 80.3,79.5 81.0,73.0 81.8,193.1 82.5,188.8 83.2,184.4 84.0,179.9 84.7,210.2 85.5,207.4 86.2,204.5 87.0,201.6 87.7,190.4 88.5,186.9 89.2,183.4 89.9,179.8 90.7,209.6 91.4,207.7 92.2,205.8 92.9,203.9 93.7,217.9 94.4,216.9 95.2,215.8 95.9,214.8 96.6,210.3 97.4,209.3 98.1,208.4 98.9,207.5 99.6,214.8 100.4,214.3 101.1,213.7 101.8,213.2 102.6,206.8 103.3,206.1 104.1,205.4 104.8,204.7 105.6,209.0 106.3,208.6 107.1,208.2 107.8,207.7 108.5,212.6 109.3,212.1 110.0,211.7 110.8,211.3 111.5,253.7 112.3,249.7 113.0,245.7 113.8,241.5 114.5,236.0 115.2,232.7 116.0,229.3 116.7,225.8 117.5,226.8 118.2,222.8 119.0,218.8 119.7,214.6 120.4,210.4 121.2,206.1 121.9,201.6 122.7,197.1 123.4,190.1 124.2,185.6 124.9,181.1 125.7,176.5 126.4,244.2 127.1,240.9 127.9,237.5 128.6,234.0 129.4,242.5 130.1,239.5 130.9,236.4 131.6,233.3 132.4,228.8 133.1,225.5 133.8,222.1 134.6,218.8 135.3,226.7 136.1,223.8 136.8,220.9 137.6,217.9 138.3,207.1 139.0,203.7 139.8,200.2 140.5,196.6 141.3,135.3 142.0,130.6 142.8,125.9 143.5,121.2 144.3,118.7 145.0,114.0 145.7,109.3 146.5,104.5 147.2,99.4 148.0,94.4 148.7,89.3 149.5,84.2 150.2,78.7 151.0,73.4 151.7,68.1 152.4,62.8 153.2,58.4 153.9,53.0 154.7,47.5 155.4,42.0 156.2,168.1 156.9,165.8 157.6,163.5 158.4,161.2 159.1,158.2 159.9,155.9 160.6,153.5 161.4,151.1 162.1,149.3 162.9,146.8 163.6,144.3 164.3,141.7 165.1,139.1 165.8,136.5 166.6,133.9 167.3,131.2 168.1,127.3 168.8,124.5 169.6,121.8 170.3,119.0 171.0,165.9 171.8,164.1 172.5,162.3 173.3,160.5 174.0,158.2 174.8,156.3 175.5,154.4 176.2,152.5 177.0,151.7 177.7,149.8 178.5,147.9 179.2,146.0 180.0,144.3 180.7,142.3 181.5,140.4 182.2,138.4 182.9,134.9 183.7,132.9 184.4,130.8 185.2,128.7 185.9,178.7 186.7,177.7 187.4,176.6 188.2,175.5 188.9,174.3 189.6,173.3 190.4,172.2 191.1,171.1 191.9,167.2 192.6,165.9 193.4,164.7 194.1,163.5 194.8,158.1 195.6,156.7 196.3,155.3 197.1,153.8 197.8,155.7 198.6,154.4 199.3,153.0 200.1,151.7 200.8,261.0 201.5,260.0 202.3,258.9 203.0,257.8 203.8,244.4 204.5,243.0 205.3,241.5 206.0,239.9 206.8,258.1 207.5,256.7 208.2,255.2 209.0,253.6 209.7,256.4 210.5,254.8 211.2,253.1 212.0,251.4 212.7,249.0 213.4,247.2 214.2,245.4 214.9,243.6 215.7,242.0 216.4,239.8 217.2,237.7 217.9,235.5 218.7,235.8 219.4,233.5 220.1,231.3 220.9,229.0 221.6,224.7 222.4,222.4 223.1,220.0 223.9,217.7 224.6,216.4 225.4,214.0 226.1,211.6 226.8,209.1 227.6,203.6 228.3,201.0 229.1,198.5 229.8,195.9 230.6,182.7 231.3,179.8 232.0,177.0 232.8,174.1 233.5,166.8 234.3,163.8 235.0,160.8 235.8,157.9 236.5,153.9 237.3,150.9 238.0,147.8 238.7,144.7 239.5,143.5 240.2,140.4 241.0,137.3 241.7,134.1 242.5,128.6 243.2,125.3 244.0,122.1 244.7,118.8 245.4,161.7 246.2,159.1 246.9,156.4 247.7,153.8 248.4,147.8 249.2,145.1 249.9,142.3 250.6,139.5 251.4,132.7 252.1,129.8 252.9,126.9 253.6,123.9 254.4,116.0 255.1,112.9 255.9,109.8 256.6,106.7 257.3,108.8 258.1,105.7 258.8,102.7 259.6,99.6 260.3,156.4 261.1,154.2 261.8,151.9 262.6,149.7 263.3,148.6 264.0,146.3 264.8,144.0 265.5,141.8 266.3,145.4 267.0,143.2 267.8,141.0 268.5,138.7 269.2,142.8 270.0,140.6 270.7,138.4 271.5,136.1 272.2,127.0 273.0,124.6 273.7,122.2 274.5,119.8 275.2,200.0 275.9,198.7 276.7,197.4 277.4,196.1 278.2,201.4 278.9,200.1 279.7,198.8 280.4,197.5 281.2,197.9 281.9,196.6 282.6,195.3 283.4,194.0 284.1,189.9 284.9,188.5 285.6,187.1 286.4,185.7 287.1,186.0 287.8,184.6 288.6,183.1 289.3,181.7 290.1,230.8 290.8,230.1 291.6,229.4 292.3,228.7 293.1,243.6 293.8,243.1 294.5,242.6 295.3,242.0 296.0,240.8 296.8,240.2 297.5,239.6 298.3,239.0 299.0,237.3 299.8,236.7 300.5,236.1 301.2,235.5 302.0,232.9 302.7,232.3 303.5,231.7 304.2,231.1 305.0,164.3 305.7,162.8 306.4,161.2 307.2,159.7 307.9,162.5 308.7,160.9 309.4,159.4 310.2,157.8 310.9,158.5 311.7,156.9 312.4,155.3 313.1,153.7 313.9,154.8 314.6,153.2 315.4,151.5 316.1,149.9 316.9,149.5 317.6,147.8 318.4,146.1 319.1,144.5 319.8,189.4 320.6,188.4 321.3,187.3 322.1,186.3 322.8,184.7 323.6,183.6 324.3,182.5 325.0,181.4 325.8,185.9 326.5,184.8 327.3,183.8 328.0,182.7 328.8,183.3 329.5,182.2 330.3,181.1 331.0,180.0 331.7,176.9 332.5,175.7 333.2,174.6 334.0,173.4 334.7,190.5 335.5,189.5 336.2,188.6 337.0,187.6 337.7,188.0 338.4,187.0 339.2,186.1 339.9,185.1 340.7,182.8 341.4,181.7 342.2,180.7 342.9,179.7 343.6,177.1 344.4,176.0 345.1,175.0 345.9,173.9 346.6,177.7 347.4,176.7 348.1,175.6 348.9,174.6 349.6,208.2 350.3,207.5 351.1,206.8 351.8,206.1 352.6,206.8 353.3,206.1 354.1,205.4 354.8,204.7 355.6,205.6 356.3,204.9 357.0,204.2 357.8,203.5 358.5,201.9 359.3,201.2 360.0,200.5 360.8,199.8 361.5,200.8 362.2,200.1 363.0,199.4 363.7,198.7 364.5,230.9 365.2,230.4 366.0,230.0 366.7,229.5 367.5,229.0 368.2,228.6 368.9,228.1 369.7,227.7 370.4,225.9 371.2,225.5 371.9,225.2 372.7,224.8 373.4,225.4 374.2,225.0 374.9,224.5 375.6,224.1 376.4,223.0 377.1,222.5 377.9,222.0 378.6,221.5 379.4,258.5 380.1,257.9 380.8,257.3 381.6,256.7 382.3,256.6 383.1,255.9 383.8,255.3 384.6,254.7 385.3,251.0 386.1,250.2 386.8,249.5 387.5,248.7 388.3,254.6 389.0,254.0 389.8,253.4 390.5,252.8 391.3,254.0 392.0,253.4 392.8,252.8 393.5,252.2 394.2,254.0 395.0,253.4 395.7,252.8 396.5,252.2 397.2,254.5 398.0,254.0 398.7,253.4 399.4,252.8 400.2,253.8 400.9,253.2 401.7,252.6 402.4,252.0 403.2,252.8 403.9,252.2 404.7,251.6 405.4,250.9 406.1,243.0 406.9,242.2 407.6,241.4 408.4,240.6 409.1,254.9 409.9,254.1 410.6,253.3 411.4,252.6 412.1,261.4 412.8,260.7 413.6,260.1 414.3,259.4 415.1,271.7 415.8,271.2 416.6,270.7 417.3,270.2 418.0,274.0 418.8,273.6 419.5,273.1 420.3,272.7 421.0,269.9 421.8,269.5 422.5,269.0 423.3,268.5 424.0,233.4 424.7,232.5 425.5,231.7 426.2,230.8 427.0,228.6 427.7,227.7 428.5,226.8 429.2,225.8 430.0,228.0 430.7,227.1 431.4,226.2 432.2,225.2 432.9,224.1 433.7,223.2 434.4,222.2 435.2,221.3 435.9,221.4 436.6,220.4 437.4,219.5 438.1,218.5 438.9,226.3 439.6,225.7 440.4,225.1 441.1,224.6 441.9,222.7 442.6,222.1 443.3,221.5 444.1,220.9 444.8,222.0 445.6,221.5 446.3,220.9 447.1,220.4 447.8,218.4 448.6,217.8 449.3,217.2 450.0,216.6 450.8,216.4 451.5,215.8 452.3,215.2 453.0,214.7 453.8,262.5 454.5,262.4 455.2,262.4 456.0,262.3 456.7,260.4 457.5,260.3 458.2,260.1 459.0,260.0 459.7,259.2 460.5,259.0 461.2,258.8 461.9,258.7 462.7,256.1 463.4,255.9 464.2,255.6 464.9,255.3 465.7,252.7 466.4,252.4 467.2,252.0 467.9,251.7 468.6,259.7 469.4,259.6 470.1,259.5 470.9,259.4 471.6,254.2 472.4,253.9 473.1,253.7 473.8,253.4 474.6,255.8 475.3,255.7 476.1,255.5 476.8,255.2 477.6,260.2 478.3,260.1 479.1,260.0 479.8,259.9 480.5,262.2 481.3,262.2 482.0,262.2 482.8,262.2 483.5,259.2 484.3,259.1 485.0,259.1 485.8,259.1 486.5,259.0 487.2,259.0 488.0,258.9 488.7,258.9 489.5,258.3 490.2,258.3 491.0,258.3 491.7,258.3 492.4,258.1 493.2,258.1 493.9,258.0 494.7,258.0 495.4,258.7 496.2,258.7 496.9,258.7 497.7,258.8 498.4,234.1 499.1,233.6 499.9,233.1 500.6,232.5 501.4,232.3 502.1,231.7 502.9,231.2 503.6,230.6 504.4,231.2 505.1,230.7 505.8,230.1 506.6,229.6 507.3,230.1 508.1,229.6 508.8,229.0 509.6,228.4 510.3,227.4 511.0,226.9 511.8,226.3 512.5,225.7 513.3,180.1 514.0,179.2 514.8,178.3 515.5,177.4 516.3,176.6 517.0,175.7 517.7,174.8 518.5,173.9 519.2,172.9 520.0,172.1 520.7,171.2 521.5,170.3 522.2,169.6 523.0,168.7 523.7,167.8 524.4,167.0 525.2,166.1 525.9,165.2 526.7,164.4 527.4,163.5 528.2,209.7 528.9,209.3 529.6,209.0 530.4,208.6 531.1,208.3 531.9,207.9 532.6,207.5 533.4,207.2 534.1,206.7 534.9,206.3 535.6,206.0 536.3,205.7 537.1,203.6 537.8,203.2 538.6,202.8 539.3,202.5 540.1,203.0 540.8,202.6 541.6,202.3 542.3,202.0 543.0,247.8 543.8,247.8 544.5,247.8 545.3,247.8 546.0,246.3 546.8,246.3 547.5,246.2 548.2,246.2 549.0,244.5 549.7,244.3 550.5,244.2 551.2,244.1 552.0,248.2 552.7,248.2 553.5,248.2 554.2,248.1 554.9,247.0 555.7,246.9 556.4,246.9 557.2,246.8 557.9,207.7 558.7,207.0 559.4,206.2 560.2,205.5 560.9,203.4 561.6,202.6 562.4,201.8 563.1,201.1 563.9,203.2 564.6,202.5 565.4,201.8 566.1,201.1 566.8,201.1 567.6,200.4 568.3,199.6 569.1,198.9 569.8,198.0 570.6,197.3 571.3,196.5 572.1,195.7 572.8,223.7 573.5,223.2 574.3,222.7 575.0,222.1 575.8,218.9 576.5,218.3 577.3,217.7 578.0,217.0 578.8,213.9 579.5,213.2 580.2,212.5 581.0,211.8 581.7,214.2 582.5,213.6 583.2,212.9 584.0,212.3 584.7,212.2 585.4,211.6 586.2,211.0 586.9,210.4 587.7,252.4 588.4,252.4 589.2,252.4 589.9,252.3 590.7,252.2 591.4,252.1 592.1,252.1 592.9,252.1 593.6,252.4 594.4,252.4 595.1,252.4 595.9,252.4 596.6,252.3 597.4,252.2 598.1,252.2 598.8,252.1 599.6,252.2 600.3,252.1 601.1,252.0 601.8,251.9 602.6,238.4 603.3,237.9 604.0,237.4 604.8,236.9 605.5,238.4 606.3,237.9 607.0,237.4 607.8,236.9 608.5,233.0 609.3,232.4 610.0,231.8 610.7,231.1 611.5,232.1 612.2,231.5 613.0,230.9 613.7,230.3 614.5,230.1 615.2,229.4 616.0,228.8 616.7,228.1 617.4,209.2 618.2,208.5 618.9,207.7 619.7,207.0 620.4,206.2 621.2,205.4 621.9,204.6 622.6,203.9 623.4,204.8 624.1,204.1 624.9,203.4 625.6,202.6 626.4,201.5 627.1,200.8 627.9,200.0 628.6,199.2 629.3,197.8 630.1,197.0 630.8,196.2 631.6,195.4 632.3,224.8 633.1,224.2 633.8,223.7 634.6,223.1 635.3,222.5 636.0,221.9 636.8,221.3 637.5,220.7 638.3,218.4 639.0,217.7 639.8,217.1 640.5,216.5 641.2,216.6 642.0,216.0 642.7,215.3 643.5,214.7 644.2,212.4 645.0,211.8 645.7,211.1 646.5,210.4 647.2,194.8 647.9,193.9 648.7,192.9 649.4,191.9 650.2,192.7 650.9,191.7 651.7,190.8 652.4,189.8 653.2,189.8 653.9,188.8 654.6,187.8 655.4,186.8 656.1,186.8 656.9,185.8 657.6,184.8 658.4,183.8 659.1,182.0 659.8,180.9 660.6,179.9 661.3,178.9 662.1,203.9 662.8,203.0 663.6,202.1 664.3,201.2 665.1,199.5 665.8,198.6 666.5,197.7 667.3,196.7 668.0,193.4 668.8,192.4 669.5,191.4 670.3,190.4 671.0,191.4 671.8,190.5 672.5,189.5 673.2,188.5 674.0,187.0 674.7,186.0 675.5,185.0 676.2,183.9 677.0,194.0 677.7,193.1 678.4,192.2 679.2,191.3 679.9,197.0 680.7,196.2 681.4,195.4 682.2,194.7 682.9,196.3 683.7,195.5 684.4,194.7 685.1,193.9 685.9,191.3 686.6,190.4 687.4,189.5 688.1,188.7 688.9,189.8 689.6,188.9 690.4,188.0 691.1,187.2 691.8,199.5 692.6,198.6 693.3,197.7 694.1,196.7 694.8,193.5 695.6,192.5 696.3,191.5 697.0,190.5 697.8,190.3 698.5,189.3 699.3,188.3 700.0,187.3 700.8,183.5 701.5,182.4 702.3,181.4 703.0,180.3 703.7,175.3 704.5,174.2 705.2,173.1 706.0,172.0 706.7,197.2 707.5,196.2 708.2,195.2 709.0,194.2 709.7,186.4 710.4,185.3 711.2,184.3 711.9,183.2 712.7,186.7 713.4,185.7 714.2,184.6 714.9,183.6 715.6,182.0 716.4,180.9 717.1,179.8 717.9,178.8 718.6,177.2 719.4,176.1 720.1,175.0 720.9,174.0 721.6,228.1 722.3,227.6 723.1,227.0 723.8,226.5 724.6,228.0 725.3,227.5 726.1,227.0 726.8,226.5 727.6,230.9 728.3,230.5 729.0,230.0 729.8,229.6 730.5,224.8 731.3,224.3 732.0,223.8 732.8,223.2 733.5,214.2 734.2,213.6 735.0,213.0 735.7,212.4 736.5,223.0 737.2,222.5 738.0,222.0 738.7,221.5 739.5,214.4 740.2,213.8 740.9,213.2 741.7,212.6 742.4,219.6 743.2,219.0 743.9,218.5 744.7,218.0 745.4,212.8 746.2,212.2 746.9,211.7 747.6,211.1 748.4,208.3 749.1,207.7 749.9,207.0 750.6,206.4 751.4,215.2 752.1,214.7 752.8,214.2 753.6,213.7 754.3,225.4 755.1,225.0 755.8,224.6 756.6,224.2 757.3,222.7 758.1,222.4 758.8,222.0 759.5,221.6 760.3,232.5 761.0,232.2 761.8,231.8 762.5,231.5 763.3,232.9 764.0,232.6 764.8,232.2 765.5,231.9 766.2,196.6 767.0,196.0 767.7,195.3 768.5,194.6 769.2,193.9 770.0,193.3 770.7,192.6 771.4,192.0 772.2,190.8 772.9,190.1 773.7,189.4 774.4,188.7 775.2,188.0 775.9,187.3 776.7,186.6 777.4,185.8 778.1,185.9 778.9,185.3 779.6,184.6 780.4,183.9 781.1,164.3 781.9,163.5 782.6,162.6 783.4,161.8 784.1,161.3 784.8,160.5 785.6,159.6 786.3,158.8 787.1,156.3 787.8,155.4 788.6,154.5 789.3,153.6 790.0,153.2 790.8,152.3 791.5,151.5 792.3,150.6 793.0,151.4 793.8,150.5 794.5,149.7 795.3,148.8 796.0,178.9"/>
<text x="640" y="56" font-family="Arial" font-size="12" fill="#0f766e">nominal position error</text>
</svg>