<svg xmlns="http://www.w3.org/2000/svg" width="820" height="320" viewBox="0 0 820 320">
<rect width="100%" height="100%" fill="white"/>
<text x="52" y="30" font-family="Arial" font-size="18" font-weight="700">nominal covariance trace</text>
<line x1="52" y1="274" x2="796" y2="274" stroke="#263238"/>
<line x1="52" y1="42" x2="52" y2="274" stroke="#263238"/>
<text x="52" y="306" font-family="Arial" font-size="12">time (s)</text>
<text x="630" y="306" font-family="Arial" font-size="12">sqrt trace P</text>

<polyline fill="none" stroke="#0f766e" stroke-width="2.3" points="52.0,240.5 52.7,238.6 53.5,233.2 54.2,224.8 55.0,224.8 55.7,214.0 56.5,201.9 57.2,189.0 58.0,183.3 58.7,170.4 59.4,157.1 60.2,143.6 60.9,134.6 61.7,121.2 62.4,107.6 63.2,94.0 63.9,82.9 64.6,69.3 65.4,55.7 66.1,42.0 66.9,244.0 67.6,240.3 68.4,236.5 69.1,232.5 69.9,232.1 70.6,228.1 71.3,224.1 72.1,219.9 72.8,218.2 73.6,214.1 74.3,209.9 75.1,205.5 75.8,203.0 76.6,198.7 77.3,194.3 78.0,189.8 78.8,186.7 79.5,182.2 80.3,177.6 81.0,173.0 81.8,250.6 82.5,248.5 83.2,246.2 84.0,243.9 84.7,243.3 85.5,240.9 86.2,238.4 87.0,235.8 87.7,234.7 88.5,232.1 89.2,229.3 89.9,226.5 90.7,225.0 91.4,222.1 92.2,219.1 92.9,216.0 93.7,214.1 94.4,210.9 95.2,207.7 95.9,204.4 96.6,254.5 97.4,252.5 98.1,250.5 98.9,248.3 99.6,247.8 100.4,245.5 101.1,243.2 101.8,240.7 102.6,239.8 103.3,237.2 104.1,234.6 104.8,231.8 105.6,230.4 106.3,227.5 107.1,224.6 107.8,221.6 108.5,219.7 109.3,216.5 110.0,213.3 110.8,210.0 111.5,255.7 112.3,253.7 113.0,251.6 113.8,249.5 114.5,248.8 115.2,246.5 116.0,244.2 116.7,241.8 117.5,240.6 118.2,238.1 119.0,235.5 119.7,232.8 120.4,231.2 121.2,228.4 121.9,225.5 122.7,222.6 123.4,220.6 124.2,217.5 124.9,214.4 125.7,211.2 126.4,256.3 127.1,254.4 127.9,252.5 128.6,250.5 129.4,249.7 130.1,247.6 130.9,245.4 131.6,243.2 132.4,242.0 133.1,239.7 133.8,237.3 134.6,234.9 135.3,233.4 136.1,230.9 136.8,228.3 137.6,225.7 138.3,223.8 139.0,221.1 139.8,218.3 140.5,215.5 141.3,257.4 142.0,255.8 142.8,254.0 143.5,252.3 144.3,251.5 145.0,249.7 145.7,247.8 146.5,245.9 147.2,244.8 148.0,242.8 148.7,240.8 149.5,238.7 150.2,237.3 151.0,235.2 151.7,233.0 152.4,230.8 153.2,229.2 153.9,226.9 154.7,224.6 155.4,222.2 156.2,258.9 156.9,257.4 157.6,255.9 158.4,254.4 159.1,253.7 159.9,252.1 160.6,250.5 161.4,248.8 162.1,247.9 162.9,246.2 163.6,244.5 164.3,242.7 165.1,241.6 165.8,239.8 166.6,237.9 167.3,236.1 168.1,234.7 168.8,232.8 169.6,230.9 170.3,228.9 171.0,260.3 171.8,259.0 172.5,257.8 173.3,256.4 174.0,255.8 174.8,254.4 175.5,253.0 176.2,251.6 177.0,250.8 177.7,249.3 178.5,247.9 179.2,246.4 180.0,245.4 180.7,243.8 181.5,242.3 182.2,240.7 182.9,239.6 183.7,238.0 184.4,236.3 185.2,234.7 185.9,261.6 186.7,260.4 187.4,259.3 188.2,258.1 188.9,257.5 189.6,256.4 190.4,255.1 191.1,253.9 191.9,253.2 192.6,251.9 193.4,250.7 194.1,249.4 194.8,248.5 195.6,247.2 196.3,245.9 197.1,244.5 197.8,243.5 198.6,242.1 199.3,240.7 200.1,239.3 200.8,262.7 201.5,261.7 202.3,260.7 203.0,259.7 203.8,259.1 204.5,258.1 205.3,257.0 206.0,255.9 206.8,255.3 207.5,254.2 208.2,253.0 209.0,251.9 209.7,251.2 210.5,250.0 211.2,248.8 212.0,247.6 212.7,246.8 213.4,245.6 214.2,244.4 214.9,243.1 215.7,263.7 216.4,262.8 217.2,261.9 217.9,261.0 218.7,260.5 219.4,259.6 220.1,258.6 220.9,257.6 221.6,257.1 222.4,256.1 223.1,255.1 223.9,254.1 224.6,253.4 225.4,252.4 226.1,251.4 226.8,250.3 227.6,249.6 228.3,248.5 229.1,247.4 229.8,246.3 230.6,264.8 231.3,264.0 232.0,263.2 232.8,262.3 233.5,261.9 234.3,261.0 235.0,260.2 235.8,259.3 236.5,258.8 237.3,257.9 238.0,257.0 238.7,256.1 239.5,255.6 240.2,254.6 241.0,253.7 241.7,252.8 242.5,252.1 243.2,251.2 244.0,250.2 244.7,249.2 245.4,266.0 246.2,265.3 246.9,264.6 247.7,263.8 248.4,263.4 249.2,262.6 249.9,261.9 250.6,261.1 251.4,260.6 252.1,259.8 252.9,259.0 253.6,258.2 254.4,257.7 255.1,256.9 255.9,256.0 256.6,255.2 257.3,254.6 258.1,253.8 258.8,252.9 259.6,252.0 260.3,267.5 261.1,266.8 261.8,266.1 262.6,265.5 263.3,265.1 264.0,264.4 264.8,263.7 265.5,263.0 266.3,262.6 267.0,261.9 267.8,261.1 268.5,260.4 269.2,259.9 270.0,259.2 270.7,258.4 271.5,257.6 272.2,257.1 273.0,256.4 273.7,255.6 274.5,254.8 275.2,269.0 275.9,268.4 276.7,267.8 277.4,267.2 278.2,266.9 278.9,266.2 279.7,265.6 280.4,264.9 281.2,264.6 281.9,263.9 282.6,263.2 283.4,262.5 284.1,262.1 284.9,261.5 285.6,260.8 286.4,260.1 287.1,259.6 287.8,258.9 288.6,258.2 289.3,257.5 290.1,270.5 290.8,269.9 291.6,269.4 292.3,268.8 293.1,268.5 293.8,267.9 294.5,267.3 295.3,266.7 296.0,266.4 296.8,265.8 297.5,265.2 298.3,264.5 299.0,264.2 299.8,263.5 300.5,262.9 301.2,262.3 302.0,261.9 302.7,261.2 303.5,260.5 304.2,259.9 305.0,271.8 305.7,271.2 306.4,270.7 307.2,270.2 307.9,269.9 308.7,269.4 309.4,268.8 310.2,268.2 310.9,267.9 311.7,267.4 312.4,266.8 313.1,266.2 313.9,265.9 314.6,265.3 315.4,264.7 316.1,264.1 316.9,263.7 317.6,263.1 318.4,262.5 319.1,261.9 319.8,272.8 320.6,272.3 321.3,271.7 322.1,271.2 322.8,271.0 323.6,270.5 324.3,270.0 325.0,269.4 325.8,269.2 326.5,268.6 327.3,268.1 328.0,267.5 328.8,267.2 329.5,266.7 330.3,266.1 331.0,265.5 331.7,265.2 332.5,264.6 333.2,264.0 334.0,263.5 334.7,273.4 335.5,273.0 336.2,272.5 337.0,272.0 337.7,271.8 338.4,271.3 339.2,270.8 339.9,270.3 340.7,270.0 341.4,269.5 342.2,269.0 342.9,268.4 343.6,268.2 344.4,267.6 345.1,267.1 345.9,266.6 346.6,266.3 347.4,265.7 348.1,265.2 348.9,264.6 349.6,273.8 350.3,273.4 351.1,272.9 351.8,272.4 352.6,272.2 353.3,271.8 354.1,271.3 354.8,270.8 355.6,270.5 356.3,270.1 357.0,269.6 357.8,269.0 358.5,268.8 359.3,268.3 360.0,267.8 360.8,267.2 361.5,267.0 362.2,266.4 363.0,265.9 363.7,265.4 364.5,274.0 365.2,273.6 366.0,273.1 366.7,272.6 367.5,272.4 368.2,272.0 368.9,271.5 369.7,271.0 370.4,270.8 371.2,270.3 371.9,269.8 372.7,269.4 373.4,269.1 374.2,268.6 374.9,268.1 375.6,267.6 376.4,267.3 377.1,266.8 377.9,266.3 378.6,265.8 379.4,273.1 380.1,272.6 380.8,272.2 381.6,271.7 382.3,271.4 383.1,271.0 383.8,270.5 384.6,269.9 385.3,269.7 386.1,269.2 386.8,268.7 387.5,268.1 388.3,267.9 389.0,267.3 389.8,266.8 390.5,266.3 391.3,266.0 392.0,265.4 392.8,264.9 393.5,264.3 394.2,271.8 395.0,271.4 395.7,270.9 396.5,270.4 397.2,270.2 398.0,269.7 398.7,269.2 399.4,268.7 400.2,268.4 400.9,267.9 401.7,267.4 402.4,266.9 403.2,266.6 403.9,266.1 404.7,265.5 405.4,265.0 406.1,264.7 406.9,264.1 407.6,263.6 408.4,263.0 409.1,270.7 409.9,270.2 410.6,269.7 411.4,269.2 412.1,269.0 412.8,268.5 413.6,268.0 414.3,267.5 415.1,267.2 415.8,266.7 416.6,266.2 417.3,265.7 418.0,265.4 418.8,264.9 419.5,264.4 420.3,263.8 421.0,263.5 421.8,263.0 422.5,262.4 423.3,261.9 424.0,269.5 424.7,269.0 425.5,268.5 426.2,268.0 427.0,267.8 427.7,267.3 428.5,266.8 429.2,266.3 430.0,266.1 430.7,265.6 431.4,265.0 432.2,264.5 432.9,264.2 433.7,263.7 434.4,263.2 435.2,262.7 435.9,262.4 436.6,261.8 437.4,261.3 438.1,260.7 438.9,268.3 439.6,267.8 440.4,267.4 441.1,266.9 441.9,266.6 442.6,266.1 443.3,265.6 444.1,265.2 444.8,264.9 445.6,264.4 446.3,263.9 447.1,263.4 447.8,263.1 448.6,262.6 449.3,262.0 450.0,261.5 450.8,261.2 451.5,260.7 452.3,260.1 453.0,259.6 453.8,267.1 454.5,266.6 455.2,266.1 456.0,265.7 456.7,265.4 457.5,264.9 458.2,264.4 459.0,263.9 459.7,263.7 460.5,263.2 461.2,262.7 461.9,262.1 462.7,261.9 463.4,261.3 464.2,260.8 464.9,260.3 465.7,260.0 466.4,259.4 467.2,258.9 467.9,258.4 468.6,265.8 469.4,265.4 470.1,265.0 470.9,264.5 471.6,264.3 472.4,263.9 473.1,263.4 473.8,262.9 474.6,262.7 475.3,262.2 476.1,261.8 476.8,261.3 477.6,261.1 478.3,260.6 479.1,260.1 479.8,259.6 480.5,259.4 481.3,258.9 482.0,258.4 482.8,257.9 483.5,266.9 484.3,266.5 485.0,266.0 485.8,265.6 486.5,265.4 487.2,265.0 488.0,264.5 488.7,264.1 489.5,263.9 490.2,263.4 491.0,263.0 491.7,262.5 492.4,262.3 493.2,261.8 493.9,261.4 494.7,260.9 495.4,260.7 496.2,260.2 496.9,259.7 497.7,259.2 498.4,267.4 499.1,267.0 499.9,266.5 500.6,266.1 501.4,265.9 502.1,265.5 502.9,265.1 503.6,264.6 504.4,264.4 505.1,264.0 505.8,263.6 506.6,263.1 507.3,262.9 508.1,262.4 508.8,262.0 509.6,261.5 510.3,261.3 511.0,260.8 511.8,260.4 512.5,259.9 513.3,267.5 514.0,267.1 514.8,266.7 515.5,266.3 516.3,266.1 517.0,265.7 517.7,265.2 518.5,264.8 519.2,264.6 520.0,264.2 520.7,263.7 521.5,263.3 522.2,263.1 523.0,262.6 523.7,262.2 524.4,261.7 525.2,261.5 525.9,261.0 526.7,260.6 527.4,260.1 528.2,267.4 528.9,267.0 529.6,266.6 530.4,266.2 531.1,266.0 531.9,265.5 532.6,265.1 533.4,264.7 534.1,264.5 534.9,264.1 535.6,263.6 536.3,263.2 537.1,263.0 537.8,262.5 538.6,262.1 539.3,261.7 540.1,261.4 540.8,261.0 541.6,260.5 542.3,260.1 543.0,267.1 543.8,266.7 544.5,266.3 545.3,265.9 546.0,265.7 546.8,265.3 547.5,264.8 548.2,264.4 549.0,264.2 549.7,263.8 550.5,263.4 551.2,262.9 552.0,262.7 552.7,262.3 553.5,261.8 554.2,261.4 554.9,261.1 555.7,260.7 556.4,260.3 557.2,259.8 557.9,266.7 558.7,266.3 559.4,265.9 560.2,265.5 560.9,265.3 561.6,264.9 562.4,264.5 563.1,264.0 563.9,263.8 564.6,263.4 565.4,263.0 566.1,262.5 566.8,262.3 567.6,261.9 568.3,261.4 569.1,261.0 569.8,260.8 570.6,260.3 571.3,259.9 572.1,259.4 572.8,266.2 573.5,265.8 574.3,265.4 575.0,265.0 575.8,264.8 576.5,264.4 577.3,264.0 578.0,263.6 578.8,263.4 579.5,262.9 580.2,262.5 581.0,262.1 581.7,261.9 582.5,261.4 583.2,261.0 584.0,260.5 584.7,260.3 585.4,259.9 586.2,259.4 586.9,259.0 587.7,263.6 588.4,263.2 589.2,262.8 589.9,262.4 590.7,262.2 591.4,261.7 592.1,261.3 592.9,260.9 593.6,260.6 594.4,260.2 595.1,259.8 595.9,259.3 596.6,259.1 597.4,258.6 598.1,258.2 598.8,257.7 599.6,257.5 600.3,257.0 601.1,256.5 601.8,256.1 602.6,263.6 603.3,263.2 604.0,262.8 604.8,262.4 605.5,262.2 606.3,261.7 607.0,261.3 607.8,260.9 608.5,260.7 609.3,260.2 610.0,259.8 610.7,259.4 611.5,259.1 612.2,258.7 613.0,258.2 613.7,257.8 614.5,257.5 615.2,257.1 616.0,256.6 616.7,256.2 617.4,263.5 618.2,263.1 618.9,262.7 619.7,262.3 620.4,262.0 621.2,261.6 621.9,261.2 622.6,260.8 623.4,260.6 624.1,260.1 624.9,259.7 625.6,259.3 626.4,259.0 627.1,258.6 627.9,258.2 628.6,257.7 629.3,257.5 630.1,257.0 630.8,256.6 631.6,256.1 632.3,263.3 633.1,262.9 633.8,262.5 634.6,262.1 635.3,261.8 636.0,261.4 636.8,261.0 637.5,260.6 638.3,260.4 639.0,260.0 639.8,259.5 640.5,259.1 641.2,258.9 642.0,258.4 642.7,258.0 643.5,257.6 644.2,257.3 645.0,256.9 645.7,256.4 646.5,256.0 647.2,263.0 647.9,262.6 648.7,262.2 649.4,261.8 650.2,261.6 650.9,261.2 651.7,260.8 652.4,260.3 653.2,260.1 653.9,259.7 654.6,259.3 655.4,258.9 656.1,258.6 656.9,258.2 657.6,257.7 658.4,257.3 659.1,257.0 659.8,256.6 660.6,256.2 661.3,255.7 662.1,262.7 662.8,262.3 663.6,261.9 664.3,261.5 665.1,261.3 665.8,260.9 666.5,260.5 667.3,260.0 668.0,259.8 668.8,259.4 669.5,259.0 670.3,258.6 671.0,258.3 671.8,257.9 672.5,257.5 673.2,257.0 674.0,256.8 674.7,256.3 675.5,255.9 676.2,255.4 677.0,262.3 677.7,262.0 678.4,261.6 679.2,261.2 679.9,260.9 680.7,260.5 681.4,260.1 682.2,259.7 682.9,259.5 683.7,259.1 684.4,258.6 685.1,258.2 685.9,258.0 686.6,257.5 687.4,257.1 688.1,256.7 688.9,256.4 689.6,256.0 690.4,255.6 691.1,255.1 691.8,262.0 692.6,261.6 693.3,261.2 694.1,260.8 694.8,260.6 695.6,260.2 696.3,259.8 697.0,259.4 697.8,259.1 698.5,258.7 699.3,258.3 700.0,257.9 700.8,257.6 701.5,257.2 702.3,256.8 703.0,256.3 703.7,256.1 704.5,255.6 705.2,255.2 706.0,254.8 706.7,261.6 707.5,261.2 708.2,260.8 709.0,260.4 709.7,260.2 710.4,259.8 711.2,259.4 711.9,259.0 712.7,258.7 713.4,258.3 714.2,257.9 714.9,257.5 715.6,257.2 716.4,256.8 717.1,256.4 717.9,256.0 718.6,255.7 719.4,255.3 720.1,254.8 720.9,254.4 721.6,261.2 722.3,260.9 723.1,260.5 723.8,260.1 724.6,259.8 725.3,259.4 726.1,259.0 726.8,258.6 727.6,258.4 728.3,258.0 729.0,257.5 729.8,257.1 730.5,256.9 731.3,256.5 732.0,256.0 732.8,255.6 733.5,255.3 734.2,254.9 735.0,254.5 735.7,254.0 736.5,260.9 737.2,260.5 738.0,260.1 738.7,259.7 739.5,259.5 740.2,259.1 740.9,258.7 741.7,258.2 742.4,258.0 743.2,257.6 743.9,257.2 744.7,256.8 745.4,256.5 746.2,256.1 746.9,255.7 747.6,255.2 748.4,255.0 749.1,254.5 749.9,254.1 750.6,253.7 751.4,260.5 752.1,260.1 752.8,259.7 753.6,259.3 754.3,259.1 755.1,258.7 755.8,258.3 756.6,257.9 757.3,257.7 758.1,257.2 758.8,256.8 759.5,256.4 760.3,256.2 761.0,255.7 761.8,255.3 762.5,254.9 763.3,254.6 764.0,254.2 764.8,253.7 765.5,253.3 766.2,260.2 767.0,259.8 767.7,259.4 768.5,259.0 769.2,258.8 770.0,258.3 770.7,257.9 771.4,257.5 772.2,257.3 772.9,256.9 773.7,256.5 774.4,256.0 775.2,255.8 775.9,255.4 776.7,254.9 777.4,254.5 778.1,254.3 778.9,253.8 779.6,253.4 780.4,252.9 781.1,259.8 781.9,259.4 782.6,259.0 783.4,258.6 784.1,258.4 784.8,258.0 785.6,257.6 786.3,257.2 787.1,257.0 787.8,256.5 788.6,256.1 789.3,255.7 790.0,255.5 790.8,255.0 791.5,254.6 792.3,254.2 793.0,253.9 793.8,253.5 794.5,253.0 795.3,252.6 796.0,259.5"/>
<text x="640" y="56" font-family="Arial" font-size="12" fill="#0f766e">nominal covariance trace</text>
</svg>