<svg xmlns="http://www.w3.org/2000/svg" width="820" height="320" viewBox="0 0 820 320">
<rect width="100%" height="100%" fill="white"/>
<text x="52" y="30" font-family="Arial" font-size="18" font-weight="700">ukf_nominal position error</text>
<line x1="52" y1="274" x2="796" y2="274" stroke="#263238"/>
<line x1="52" y1="42" x2="52" y2="274" stroke="#263238"/>
<text x="52" y="306" font-family="Arial" font-size="12">time (s)</text>
<text x="630" y="306" font-family="Arial" font-size="12">m</text>

<rect x="379.4" y="42" width="89.3" height="232" fill="#fef3c7" opacity="0.72"/>
<polyline fill="none" stroke="#0f766e" stroke-width="2.3" points="52.0,243.4 52.7,242.1 53.5,240.7 54.2,239.2 55.0,227.2 55.7,223.7 56.5,220.1 57.2,216.3 58.0,201.6 58.7,196.0 59.4,190.4 60.2,184.7 60.9,222.5 61.7,221.1 62.4,219.5 63.2,217.9 63.9,188.1 64.6,181.0 65.4,173.6 66.1,166.2 66.9,161.1 67.6,153.9 68.4,146.7 69.1,139.5 69.9,141.7 70.6,135.0 71.3,128.4 72.1,121.7 72.8,139.8 73.6,134.7 74.3,129.6 75.1,124.5 75.8,132.1 76.6,127.7 77.3,123.3 78.0,118.8 78.8,111.4 79.5,106.5 80.3,101.7 81.0,96.9 81.8,193.9 82.5,190.2 83.2,186.3 84.0,182.3 84.7,214.0 85.5,211.8 86.2,209.5 87.0,207.1 87.7,195.8 88.5,192.8 89.2,189.7 89.9,186.5 90.7,219.5 91.4,218.1 92.2,216.7 92.9,215.2 93.7,232.8 94.4,232.4 95.2,232.0 95.9,231.6 96.6,213.0 97.4,212.5 98.1,211.9 98.9,211.4 99.6,219.6 100.4,219.5 101.1,219.4 101.8,219.3 102.6,212.7 103.3,212.4 104.1,212.0 104.8,211.6 105.6,216.8 106.3,216.7 107.1,216.5 107.8,216.4 108.5,222.3 109.3,222.2 110.0,222.1 110.8,221.9 111.5,245.8 112.3,242.0 113.0,238.0 113.8,234.0 114.5,228.9 115.2,225.7 116.0,222.4 116.7,219.1 117.5,219.9 118.2,216.2 119.0,212.4 119.7,208.5 120.4,204.5 121.2,200.5 121.9,196.4 122.7,192.2 123.4,185.7 124.2,181.6 124.9,177.4 125.7,173.2 126.4,241.0 127.1,238.0 127.9,234.9 128.6,231.8 129.4,240.6 130.1,238.0 130.9,235.4 131.6,232.8 132.4,228.6 133.1,225.8 133.8,222.9 134.6,220.0 135.3,228.8 136.1,226.5 136.8,224.2 137.6,221.8 138.3,211.1 139.0,208.2 139.8,205.3 140.5,202.3 141.3,134.3 142.0,129.7 142.8,125.0 143.5,120.3 144.3,117.8 145.0,113.2 145.7,108.5 146.5,103.7 147.2,98.7 148.0,93.8 148.7,88.8 149.5,83.7 150.2,78.3 151.0,73.1 151.7,67.9 152.4,62.6 153.2,58.2 153.9,52.8 154.7,47.4 155.4,42.0 156.2,163.9 156.9,161.4 157.6,158.9 158.4,156.4 159.1,153.2 159.9,150.6 160.6,147.9 161.4,145.3 162.1,143.1 162.9,140.3 163.6,137.5 164.3,134.7 165.1,131.8 165.8,128.9 166.6,125.9 167.3,122.9 168.1,118.7 168.8,115.6 169.6,112.5 170.3,109.4 171.0,163.6 171.8,161.8 172.5,160.0 173.3,158.1 174.0,155.8 174.8,153.9 175.5,152.0 176.2,150.1 177.0,149.2 177.7,147.3 178.5,145.3 179.2,143.4 180.0,141.7 180.7,139.7 181.5,137.7 182.2,135.8 182.9,132.4 183.7,130.3 184.4,128.2 185.2,126.1 185.9,173.6 186.7,172.3 187.4,171.0 188.2,169.7 188.9,168.2 189.6,166.9 190.4,165.5 191.1,164.1 191.9,160.2 192.6,158.7 193.4,157.2 194.1,155.6 194.8,150.3 195.6,148.7 196.3,146.9 197.1,145.2 197.8,146.6 198.6,144.9 199.3,143.3 200.1,141.6 200.8,253.8 201.5,252.8 202.3,251.6 203.0,250.5 203.8,238.2 204.5,236.7 205.3,235.2 206.0,233.7 206.8,250.1 207.5,248.7 208.2,247.3 209.0,245.8 209.7,248.1 210.5,246.6 211.2,245.0 212.0,243.3 212.7,241.1 213.4,239.5 214.2,237.7 214.9,236.0 215.7,239.1 216.4,237.1 217.2,235.1 217.9,233.0 218.7,233.4 219.4,231.3 220.1,229.2 220.9,227.1 221.6,223.0 222.4,220.8 223.1,218.6 223.9,216.4 224.6,215.4 225.4,213.1 226.1,210.8 226.8,208.5 227.6,203.2 228.3,200.8 229.1,198.4 229.8,196.0 230.6,182.9 231.3,180.2 232.0,177.5 232.8,174.8 233.5,167.8 234.3,165.1 235.0,162.3 235.8,159.5 236.5,155.8 237.3,152.9 238.0,150.1 238.7,147.2 239.5,146.2 240.2,143.3 241.0,140.3 241.7,137.4 242.5,132.1 243.2,129.1 244.0,126.0 244.7,123.0 245.4,163.3 246.2,160.9 246.9,158.5 247.7,156.0 248.4,150.3 249.2,147.8 249.9,145.2 250.6,142.6 251.4,136.0 252.1,133.4 252.9,130.7 253.6,127.9 254.4,120.2 255.1,117.4 255.9,114.5 256.6,111.7 257.3,114.0 258.1,111.1 258.8,108.3 259.6,105.4 260.3,157.4 261.1,155.3 261.8,153.2 262.6,151.1 263.3,150.1 264.0,148.0 264.8,145.9 265.5,143.8 266.3,147.6 267.0,145.5 267.8,143.4 268.5,141.3 269.2,145.6 270.0,143.6 270.7,141.5 271.5,139.4 272.2,130.5 273.0,128.3 273.7,126.1 274.5,123.8 275.2,198.9 275.9,197.7 276.7,196.5 277.4,195.3 278.2,200.5 278.9,199.3 279.7,198.1 280.4,197.0 281.2,197.4 281.9,196.2 282.6,195.0 283.4,193.7 284.1,189.8 284.9,188.5 285.6,187.2 286.4,185.9 287.1,186.3 287.8,184.9 288.6,183.6 289.3,182.3 290.1,225.1 290.8,224.3 291.6,223.5 292.3,222.7 293.1,236.3 293.8,235.7 294.5,235.1 295.3,234.4 296.0,233.2 296.8,232.5 297.5,231.8 298.3,231.1 299.0,229.3 299.8,228.6 300.5,227.9 301.2,227.2 302.0,224.7 302.7,224.0 303.5,223.3 304.2,222.5 305.0,161.0 305.7,159.5 306.4,157.9 307.2,156.3 307.9,158.9 308.7,157.4 309.4,155.8 310.2,154.2 310.9,154.9 311.7,153.3 312.4,151.7 313.1,150.0 313.9,151.0 314.6,149.3 315.4,147.7 316.1,146.0 316.9,145.5 317.6,143.9 318.4,142.2 319.1,140.5 319.8,186.1 320.6,185.1 321.3,184.1 322.1,183.0 322.8,181.5 323.6,180.4 324.3,179.3 325.0,178.3 325.8,182.5 326.5,181.4 327.3,180.4 328.0,179.3 328.8,179.9 329.5,178.8 330.3,177.7 331.0,176.6 331.7,173.5 332.5,172.4 333.2,171.3 334.0,170.1 334.7,184.5 335.5,183.5 336.2,182.5 337.0,181.5 337.7,181.7 338.4,180.7 339.2,179.7 339.9,178.6 340.7,176.3 341.4,175.2 342.2,174.2 342.9,173.1 343.6,170.5 344.4,169.4 345.1,168.2 345.9,167.1 346.6,170.5 347.4,169.4 348.1,168.3 348.9,167.1 349.6,204.2 350.3,203.5 351.1,202.8 351.8,202.1 352.6,202.7 353.3,202.0 354.1,201.3 354.8,200.6 355.6,201.4 356.3,200.7 357.0,200.0 357.8,199.3 358.5,197.7 359.3,197.0 360.0,196.3 360.8,195.6 361.5,196.6 362.2,195.8 363.0,195.1 363.7,194.4 364.5,228.2 365.2,227.8 366.0,227.4 366.7,227.0 367.5,226.6 368.2,226.2 368.9,225.8 369.7,225.4 370.4,223.7 371.2,223.3 371.9,223.0 372.7,222.7 373.4,223.3 374.2,222.9 374.9,222.5 375.6,222.1 376.4,221.1 377.1,220.6 377.9,220.2 378.6,219.7 379.4,258.8 380.1,258.2 380.8,257.7 381.6,257.1 382.3,257.1 383.1,256.6 383.8,256.0 384.6,255.5 385.3,251.6 386.1,250.9 386.8,250.2 387.5,249.5 388.3,256.1 389.0,255.6 389.8,255.0 390.5,254.5 391.3,256.0 392.0,255.5 392.8,255.0 393.5,254.5 394.2,254.3 395.0,253.7 395.7,253.2 396.5,252.6 397.2,255.4 398.0,254.9 398.7,254.4 399.4,253.9 400.2,255.1 400.9,254.6 401.7,254.1 402.4,253.6 403.2,254.6 403.9,254.1 404.7,253.5 405.4,253.0 406.1,244.3 406.9,243.6 407.6,242.9 408.4,242.2 409.1,252.4 409.9,251.7 410.6,251.0 411.4,250.2 412.1,259.3 412.8,258.7 413.6,258.1 414.3,257.4 415.1,270.8 415.8,270.4 416.6,269.9 417.3,269.4 418.0,274.0 418.8,273.6 419.5,273.2 420.3,272.7 421.0,269.5 421.8,269.1 422.5,268.6 423.3,268.2 424.0,233.4 424.7,232.6 425.5,231.8 426.2,231.0 427.0,228.8 427.7,227.9 428.5,227.1 429.2,226.2 430.0,228.5 430.7,227.6 431.4,226.8 432.2,225.9 432.9,224.9 433.7,224.0 434.4,223.1 435.2,222.2 435.9,222.3 436.6,221.4 437.4,220.6 438.1,219.7 438.9,228.5 439.6,228.0 440.4,227.5 441.1,227.0 441.9,225.2 442.6,224.7 443.3,224.1 444.1,223.6 444.8,224.9 445.6,224.5 446.3,224.0 447.1,223.6 447.8,221.6 448.6,221.1 449.3,220.6 450.0,220.1 450.8,220.0 451.5,219.5 452.3,219.0 453.0,218.6 453.8,262.5 454.5,262.4 455.2,262.4 456.0,262.4 456.7,260.3 457.5,260.2 458.2,260.1 459.0,260.0 459.7,259.2 460.5,259.1 461.2,259.0 461.9,258.8 462.7,256.1 463.4,255.8 464.2,255.6 464.9,255.4 465.7,252.6 466.4,252.3 467.2,252.0 467.9,251.7 468.6,260.2 469.4,260.2 470.1,260.1 470.9,260.1 471.6,254.4 472.4,254.2 473.1,254.0 473.8,253.8 474.6,256.5 475.3,256.3 476.1,256.2 476.8,256.0 477.6,261.7 478.3,261.7 479.1,261.7 479.8,261.6 480.5,264.4 481.3,264.5 482.0,264.6 482.8,264.7 483.5,259.1 484.3,259.1 485.0,259.1 485.8,259.1 486.5,259.1 487.2,259.1 488.0,259.2 488.7,259.2 489.5,258.6 490.2,258.7 491.0,258.7 491.7,258.8 492.4,258.6 493.2,258.6 493.9,258.6 494.7,258.7 495.4,259.5 496.2,259.6 496.9,259.7 497.7,259.7 498.4,229.2 499.1,228.7 499.9,228.2 500.6,227.6 501.4,227.3 502.1,226.7 502.9,226.2 503.6,225.6 504.4,226.1 505.1,225.5 505.8,224.9 506.6,224.4 507.3,224.8 508.1,224.2 508.8,223.6 509.6,223.0 510.3,222.0 511.0,221.4 511.8,220.8 512.5,220.2 513.3,179.6 514.0,178.7 514.8,177.9 515.5,177.0 516.3,176.2 517.0,175.4 517.7,174.5 518.5,173.7 519.2,172.7 520.0,171.9 520.7,171.0 521.5,170.2 522.2,169.4 523.0,168.6 523.7,167.8 524.4,166.9 525.2,166.1 525.9,165.3 526.7,164.4 527.4,163.6 528.2,208.8 528.9,208.4 529.6,208.1 530.4,207.8 531.1,207.4 531.9,207.1 532.6,206.8 533.4,206.4 534.1,206.0 534.9,205.6 535.6,205.3 536.3,205.0 537.1,202.9 537.8,202.6 538.6,202.3 539.3,201.9 540.1,202.4 540.8,202.1 541.6,201.8 542.3,201.5 543.0,243.0 543.8,242.9 544.5,242.8 545.3,242.8 546.0,241.4 546.8,241.3 547.5,241.2 548.2,241.1 549.0,239.4 549.7,239.2 550.5,239.1 551.2,238.9 552.0,242.7 552.7,242.6 553.5,242.5 554.2,242.4 554.9,241.3 555.7,241.2 556.4,241.1 557.2,240.9 557.9,201.1 558.7,200.3 559.4,199.5 560.2,198.7 560.9,196.7 561.6,195.9 562.4,195.1 563.1,194.3 563.9,196.1 564.6,195.4 565.4,194.6 566.1,193.9 566.8,193.8 567.6,193.0 568.3,192.3 569.1,191.5 569.8,190.5 570.6,189.8 571.3,189.0 572.1,188.2 572.8,216.6 573.5,216.0 574.3,215.4 575.0,214.8 575.8,211.8 576.5,211.2 577.3,210.5 578.0,209.8 578.8,206.8 579.5,206.1 580.2,205.4 581.0,204.7 581.7,206.8 582.5,206.1 583.2,205.4 584.0,204.7 584.7,204.6 585.4,203.9 586.2,203.3 586.9,202.6 587.7,244.8 588.4,244.7 589.2,244.5 589.9,244.4 590.7,244.2 591.4,244.1 592.1,244.0 592.9,243.9 593.6,244.1 594.4,244.1 595.1,244.0 595.9,243.9 596.6,243.7 597.4,243.6 598.1,243.5 598.8,243.4 599.6,243.4 600.3,243.2 601.1,243.0 601.8,242.8 602.6,230.7 603.3,230.2 604.0,229.6 604.8,229.1 605.5,230.3 606.3,229.8 607.0,229.3 607.8,228.8 608.5,225.1 609.3,224.5 610.0,223.9 610.7,223.2 611.5,224.0 612.2,223.4 613.0,222.8 613.7,222.1 614.5,221.9 615.2,221.2 616.0,220.5 616.7,219.8 617.4,202.5 618.2,201.8 618.9,201.0 619.7,200.2 620.4,199.4 621.2,198.6 621.9,197.8 622.6,197.0 623.4,197.8 624.1,197.1 624.9,196.3 625.6,195.5 626.4,194.4 627.1,193.7 627.9,192.9 628.6,192.1 629.3,190.7 630.1,189.8 630.8,189.0 631.6,188.2 632.3,217.9 633.1,217.3 633.8,216.8 634.6,216.2 635.3,215.5 636.0,214.9 636.8,214.3 637.5,213.7 638.3,211.4 639.0,210.8 639.8,210.2 640.5,209.5 641.2,209.5 642.0,208.9 642.7,208.2 643.5,207.6 644.2,205.4 645.0,204.7 645.7,204.0 646.5,203.3 647.2,189.3 647.9,188.4 648.7,187.4 649.4,186.4 650.2,187.1 650.9,186.1 651.7,185.2 652.4,184.2 653.2,184.1 653.9,183.1 654.6,182.1 655.4,181.1 656.1,181.1 656.9,180.1 657.6,179.1 658.4,178.1 659.1,176.3 659.8,175.3 660.6,174.2 661.3,173.2 662.1,198.5 662.8,197.6 663.6,196.7 664.3,195.8 665.1,194.2 665.8,193.3 666.5,192.3 667.3,191.4 668.0,188.2 668.8,187.2 669.5,186.2 670.3,185.3 671.0,186.2 671.8,185.2 672.5,184.2 673.2,183.2 674.0,181.8 674.7,180.8 675.5,179.7 676.2,178.7 677.0,188.9 677.7,188.0 678.4,187.1 679.2,186.3 679.9,191.5 680.7,190.8 681.4,190.0 682.2,189.2 682.9,190.7 683.7,189.9 684.4,189.1 685.1,188.3 685.9,185.8 686.6,184.9 687.4,184.0 688.1,183.2 688.9,184.1 689.6,183.3 690.4,182.4 691.1,181.5 691.8,195.0 692.6,194.1 693.3,193.1 694.1,192.2 694.8,189.1 695.6,188.2 696.3,187.2 697.0,186.2 697.8,185.9 698.5,185.0 699.3,184.0 700.0,183.0 700.8,179.3 701.5,178.2 702.3,177.2 703.0,176.1 703.7,171.4 704.5,170.3 705.2,169.2 706.0,168.1 706.7,193.6 707.5,192.7 708.2,191.7 709.0,190.7 709.7,183.2 710.4,182.1 711.2,181.1 711.9,180.0 712.7,183.4 713.4,182.4 714.2,181.3 714.9,180.3 715.6,178.8 716.4,177.7 717.1,176.6 717.9,175.6 718.6,174.0 719.4,173.0 720.1,172.0 720.9,170.9 721.6,224.0 722.3,223.5 723.1,223.0 723.8,222.4 724.6,223.9 725.3,223.4 726.1,222.9 726.8,222.4 727.6,226.7 728.3,226.2 729.0,225.8 729.8,225.3 730.5,220.7 731.3,220.2 732.0,219.7 732.8,219.2 733.5,210.5 734.2,209.9 735.0,209.3 735.7,208.7 736.5,219.6 737.2,219.0 738.0,218.5 738.7,218.0 739.5,211.2 740.2,210.6 740.9,210.0 741.7,209.4 742.4,216.2 743.2,215.6 743.9,215.1 744.7,214.6 745.4,209.6 746.2,209.1 746.9,208.5 747.6,207.9 748.4,205.3 749.1,204.7 749.9,204.0 750.6,203.4 751.4,213.8 752.1,213.3 752.8,212.8 753.6,212.3 754.3,224.0 755.1,223.7 755.8,223.3 756.6,223.0 757.3,221.5 758.1,221.1 758.8,220.8 759.5,220.5 760.3,231.4 761.0,231.1 761.8,230.9 762.5,230.6 763.3,232.0 764.0,231.7 764.8,231.4 765.5,231.1 766.2,196.3 767.0,195.7 767.7,195.0 768.5,194.4 769.2,193.8 770.0,193.2 770.7,192.6 771.4,191.9 772.2,190.8 772.9,190.2 773.7,189.5 774.4,188.8 775.2,188.2 775.9,187.5 776.7,186.8 777.4,186.1 778.1,186.3 778.9,185.7 779.6,185.0 780.4,184.4 781.1,164.9 781.9,164.1 782.6,163.3 783.4,162.4 784.1,162.0 784.8,161.2 785.6,160.4 786.3,159.7 787.1,157.2 787.8,156.3 788.6,155.5 789.3,154.7 790.0,154.3 790.8,153.5 791.5,152.6 792.3,151.8 793.0,152.6 793.8,151.8 794.5,151.0 795.3,150.2 796.0,179.0"/>
<text x="640" y="56" font-family="Arial" font-size="12" fill="#0f766e">ukf_nominal position error</text>
</svg>