<svg xmlns="http://www.w3.org/2000/svg" width="820" height="320" viewBox="0 0 820 320">
<rect width="100%" height="100%" fill="white"/>
<text x="52" y="30" font-family="Arial" font-size="18" font-weight="700">linear_nominal position error</text>
<line x1="52" y1="274" x2="796" y2="274" stroke="#263238"/>
<line x1="52" y1="42" x2="52" y2="274" stroke="#263238"/>
<text x="52" y="306" font-family="Arial" font-size="12">time (s)</text>
<text x="630" y="306" font-family="Arial" font-size="12">m</text>

<rect x="379.4" y="42" width="89.3" height="232" fill="#fef3c7" opacity="0.72"/>
<polyline fill="none" stroke="#0f766e" stroke-width="2.3" points="52.0,51.2 52.7,51.7 53.5,52.2 54.2,52.6 55.0,52.0 55.7,52.4 56.5,52.8 57.2,53.2 58.0,52.0 58.7,52.3 59.4,52.6 60.2,53.0 60.9,55.5 61.7,55.9 62.4,56.3 63.2,56.6 63.9,58.5 64.6,58.9 65.4,59.3 66.1,59.7 66.9,137.1 67.6,136.4 68.4,135.6 69.1,134.8 69.9,133.5 70.6,132.7 71.3,131.8 72.1,130.8 72.8,130.1 73.6,129.0 74.3,127.9 75.1,126.8 75.8,125.4 76.6,124.1 77.3,122.7 78.0,121.2 78.8,118.4 79.5,116.7 80.3,115.0 81.0,113.2 81.8,168.9 82.5,166.9 83.2,164.8 84.0,162.6 84.7,162.9 85.5,160.7 86.2,158.4 87.0,156.1 87.7,151.7 88.5,149.2 89.2,146.6 89.9,144.0 90.7,145.0 91.4,142.4 92.2,139.7 92.9,136.9 93.7,136.3 94.4,133.6 95.2,130.7 95.9,127.8 96.6,174.9 97.4,173.1 98.1,171.2 98.9,169.3 99.6,167.9 100.4,165.9 101.1,163.9 101.8,161.8 102.6,158.9 103.3,156.8 104.1,154.6 104.8,152.4 105.6,150.4 106.3,148.1 107.1,145.8 107.8,143.4 108.5,141.5 109.3,139.1 110.0,136.6 110.8,134.1 111.5,198.1 112.3,196.4 113.0,194.6 113.8,192.7 114.5,190.7 115.2,189.0 116.0,187.2 116.7,185.4 117.5,183.7 118.2,181.8 119.0,179.8 119.7,177.8 120.4,175.7 121.2,173.6 121.9,171.5 122.7,169.3 123.4,167.3 124.2,165.1 124.9,163.0 125.7,160.8 126.4,168.5 127.1,167.5 127.9,166.4 128.6,165.4 129.4,166.0 130.1,165.0 130.9,164.1 131.6,163.1 132.4,162.0 133.1,161.0 133.8,159.9 134.6,158.8 135.3,161.1 136.1,160.2 136.8,159.3 137.6,158.4 138.3,155.2 139.0,154.1 139.8,153.0 140.5,151.8 141.3,185.2 142.0,184.1 142.8,183.0 143.5,181.9 144.3,185.9 145.0,185.0 145.7,184.1 146.5,183.1 147.2,181.7 148.0,180.6 148.7,179.5 149.5,178.4 150.2,177.8 151.0,176.6 151.7,175.4 152.4,174.1 153.2,177.3 153.9,176.2 154.7,175.1 155.4,174.0 156.2,155.2 156.9,153.4 157.6,151.6 158.4,149.8 159.1,152.2 159.9,150.5 160.6,148.9 161.4,147.2 162.1,144.3 162.9,142.5 163.6,140.6 164.3,138.8 165.1,138.6 165.8,136.7 166.6,134.8 167.3,132.9 168.1,137.0 168.8,135.3 169.6,133.6 170.3,131.9 171.0,178.3 171.8,176.7 172.5,175.1 173.3,173.5 174.0,171.7 174.8,170.0 175.5,168.3 176.2,166.6 177.0,166.1 177.7,164.4 178.5,162.7 179.2,161.1 180.0,159.9 180.7,158.2 181.5,156.5 182.2,154.8 182.9,151.9 183.7,150.1 184.4,148.3 185.2,146.5 185.9,158.1 186.7,155.9 187.4,153.6 188.2,151.4 188.9,149.2 189.6,147.0 190.4,144.7 191.1,142.4 191.9,138.6 192.6,136.3 193.4,133.9 194.1,131.5 194.8,127.7 195.6,125.2 196.3,122.6 197.1,120.1 197.8,118.6 198.6,116.0 199.3,113.5 200.1,110.9 200.8,179.3 201.5,177.3 202.3,175.3 203.0,173.3 203.8,169.2 204.5,167.1 205.3,165.1 206.0,163.0 206.8,164.9 207.5,162.8 208.2,160.8 209.0,158.7 209.7,158.1 210.5,156.1 211.2,154.1 212.0,152.0 212.7,149.8 213.4,147.8 214.2,145.7 214.9,143.6 215.7,199.6 216.4,198.2 217.2,196.8 217.9,195.4 218.7,195.1 219.4,193.8 220.1,192.4 220.9,191.0 221.6,188.7 222.4,187.3 223.1,185.8 223.9,184.4 224.6,183.5 225.4,182.0 226.1,180.6 226.8,179.2 227.6,176.5 228.3,175.0 229.1,173.6 229.8,172.1 230.6,185.1 231.3,183.9 232.0,182.7 232.8,181.6 233.5,178.9 234.3,177.7 235.0,176.5 235.8,175.3 236.5,173.5 237.3,172.3 238.0,171.0 238.7,169.8 239.5,169.2 240.2,167.9 241.0,166.7 241.7,165.4 242.5,162.9 243.2,161.6 244.0,160.3 244.7,159.0 245.4,187.7 246.2,186.8 246.9,185.8 247.7,184.8 248.4,181.9 249.2,180.9 249.9,180.0 250.6,179.0 251.4,175.4 252.1,174.3 252.9,173.3 253.6,172.2 254.4,167.7 255.1,166.5 255.9,165.3 256.6,164.1 257.3,166.3 258.1,165.2 258.8,164.0 259.6,162.9 260.3,208.0 261.1,207.2 261.8,206.3 262.6,205.5 263.3,205.1 264.0,204.3 264.8,203.4 265.5,202.6 266.3,205.7 267.0,205.0 267.8,204.2 268.5,203.4 269.2,207.4 270.0,206.7 270.7,206.0 271.5,205.3 272.2,198.9 273.0,198.1 273.7,197.3 274.5,196.5 275.2,230.4 275.9,230.1 276.7,229.7 277.4,229.4 278.2,233.4 278.9,233.1 279.7,232.9 280.4,232.6 281.2,233.5 281.9,233.2 282.6,232.9 283.4,232.6 284.1,230.2 284.9,229.9 285.6,229.5 286.4,229.2 287.1,230.2 287.8,229.8 288.6,229.4 289.3,229.0 290.1,238.0 290.8,238.2 291.6,238.3 292.3,238.5 293.1,244.8 293.8,245.1 294.5,245.3 295.3,245.6 296.0,245.3 296.8,245.5 297.5,245.8 298.3,246.0 299.0,245.4 299.8,245.6 300.5,245.8 301.2,245.9 302.0,244.9 302.7,245.0 303.5,245.2 304.2,245.3 305.0,252.2 305.7,252.4 306.4,252.5 307.2,252.7 307.9,257.7 308.7,258.0 309.4,258.2 310.2,258.5 310.9,261.6 311.7,261.9 312.4,262.2 313.1,262.6 313.9,266.9 314.6,267.4 315.4,267.8 316.1,268.2 316.9,270.6 317.6,271.0 318.4,271.4 319.1,271.7 319.8,225.0 320.6,224.9 321.3,224.7 322.1,224.6 322.8,224.0 323.6,223.9 324.3,223.8 325.0,223.7 325.8,227.9 326.5,227.9 327.3,227.8 328.0,227.7 328.8,229.2 329.5,229.1 330.3,229.1 331.0,229.0 331.7,227.1 332.5,227.0 333.2,226.9 334.0,226.8 334.7,246.3 335.5,245.5 336.2,244.6 337.0,243.8 337.7,244.4 338.4,243.6 339.2,242.7 339.9,241.8 340.7,239.6 341.4,238.7 342.2,237.8 342.9,236.8 343.6,234.3 344.4,233.3 345.1,232.2 345.9,231.2 346.6,235.4 347.4,234.4 348.1,233.3 348.9,232.3 349.6,247.3 350.3,246.5 351.1,245.7 351.8,244.8 352.6,245.8 353.3,244.9 354.1,244.1 354.8,243.2 355.6,244.5 356.3,243.6 357.0,242.7 357.8,241.8 358.5,240.2 359.3,239.2 360.0,238.3 360.8,237.4 361.5,239.0 362.2,238.0 363.0,237.1 363.7,236.1 364.5,247.7 365.2,246.8 366.0,245.9 366.7,244.9 367.5,243.8 368.2,242.9 368.9,242.0 369.7,241.1 370.4,238.0 371.2,237.0 371.9,236.1 372.7,235.2 373.4,236.7 374.2,235.8 374.9,234.8 375.6,233.9 376.4,234.0 377.1,233.0 377.9,232.0 378.6,231.0 379.4,230.2 380.1,229.2 380.8,228.1 381.6,227.0 382.3,225.9 383.1,224.7 383.8,223.6 384.6,222.5 385.3,221.0 386.1,219.8 386.8,218.6 387.5,217.5 388.3,216.9 389.0,215.7 389.8,214.6 390.5,213.5 391.3,212.4 392.0,211.2 392.8,210.1 393.5,208.9 394.2,207.5 395.0,206.3 395.7,205.2 396.5,204.0 397.2,203.1 398.0,201.9 398.7,200.7 399.4,199.6 400.2,198.5 400.9,197.3 401.7,196.2 402.4,195.0 403.2,193.9 403.9,192.7 404.7,191.5 405.4,190.4 406.1,188.0 406.9,186.8 407.6,185.5 408.4,184.3 409.1,182.9 409.9,181.7 410.6,180.5 411.4,179.3 412.1,179.2 412.8,178.0 413.6,176.7 414.3,175.5 415.1,175.3 415.8,174.1 416.6,172.9 417.3,171.7 418.0,170.6 418.8,169.4 419.5,168.1 420.3,166.9 421.0,165.5 421.8,164.2 422.5,162.9 423.3,161.6 424.0,160.3 424.7,159.0 425.5,157.7 426.2,156.4 427.0,154.8 427.7,153.5 428.5,152.2 429.2,150.8 430.0,150.0 430.7,148.7 431.4,147.4 432.2,146.1 432.9,144.7 433.7,143.4 434.4,142.0 435.2,140.7 435.9,139.5 436.6,138.2 437.4,136.8 438.1,135.5 438.9,134.1 439.6,132.7 440.4,131.4 441.1,130.0 441.9,128.4 442.6,127.0 443.3,125.6 444.1,124.2 444.8,123.1 445.6,121.6 446.3,120.2 447.1,118.7 447.8,116.9 448.6,115.4 449.3,114.0 450.0,112.5 450.8,111.0 451.5,109.5 452.3,108.0 453.0,106.4 453.8,105.4 454.5,103.8 455.2,102.3 456.0,100.8 456.7,99.1 457.5,97.5 458.2,95.9 459.0,94.4 459.7,92.7 460.5,91.2 461.2,89.6 461.9,88.0 462.7,86.1 463.4,84.5 464.2,82.9 464.9,81.3 465.7,79.4 466.4,77.7 467.2,76.1 467.9,74.4 468.6,73.6 469.4,72.0 470.1,70.4 470.9,68.7 471.6,66.5 472.4,64.9 473.1,63.2 473.8,61.5 474.6,60.1 475.3,58.4 476.1,56.7 476.8,55.0 477.6,53.8 478.3,52.1 479.1,50.4 479.8,48.7 480.5,47.2 481.3,45.4 482.0,43.7 482.8,42.0 483.5,117.5 484.3,116.4 485.0,115.2 485.8,114.1 486.5,113.0 487.2,111.9 488.0,110.7 488.7,109.5 489.5,108.1 490.2,107.0 491.0,105.8 491.7,104.7 492.4,103.5 493.2,102.3 493.9,101.2 494.7,100.0 495.4,99.0 496.2,97.8 496.9,96.6 497.7,95.4 498.4,78.9 499.1,77.7 499.9,76.4 500.6,75.1 501.4,73.8 502.1,72.5 502.9,71.2 503.6,69.8 504.4,68.5 505.1,67.2 505.8,65.8 506.6,64.5 507.3,63.0 508.1,61.7 508.8,60.3 509.6,58.9 510.3,57.7 511.0,56.3 511.8,55.0 512.5,53.6 513.3,145.2 514.0,144.4 514.8,143.6 515.5,142.7 516.3,141.8 517.0,140.9 517.7,140.1 518.5,139.2 519.2,138.6 520.0,137.7 520.7,136.8 521.5,136.0 522.2,135.1 523.0,134.2 523.7,133.3 524.4,132.4 525.2,131.3 525.9,130.4 526.7,129.5 527.4,128.6 528.2,213.3 528.9,212.9 529.6,212.6 530.4,212.2 531.1,211.8 531.9,211.4 532.6,211.0 533.4,210.6 534.1,210.4 534.9,210.1 535.6,209.7 536.3,209.4 537.1,208.7 537.8,208.3 538.6,208.0 539.3,207.6 540.1,207.4 540.8,207.1 541.6,206.7 542.3,206.4 543.0,263.0 543.8,262.9 544.5,262.7 545.3,262.5 546.0,262.3 546.8,262.2 547.5,262.0 548.2,261.8 549.0,261.2 549.7,261.0 550.5,260.8 551.2,260.6 552.0,260.9 552.7,260.7 553.5,260.5 554.2,260.2 554.9,260.0 555.7,259.7 556.4,259.5 557.2,259.2 557.9,238.0 558.7,237.9 559.4,237.9 560.2,237.8 560.9,236.9 561.6,236.8 562.4,236.7 563.1,236.6 563.9,237.9 564.6,237.9 565.4,237.8 566.1,237.7 566.8,238.0 567.6,237.9 568.3,237.8 569.1,237.8 569.8,237.6 570.6,237.5 571.3,237.5 572.1,237.5 572.8,239.2 573.5,239.4 574.3,239.6 575.0,239.7 575.8,238.6 576.5,238.7 577.3,238.9 578.0,239.0 578.8,237.6 579.5,237.7 580.2,237.8 581.0,237.9 581.7,239.7 582.5,239.8 583.2,239.9 584.0,240.0 584.7,240.4 585.4,240.5 586.2,240.7 586.9,240.8 587.7,243.8 588.4,244.0 589.2,244.2 589.9,244.4 590.7,244.6 591.4,244.8 592.1,245.1 592.9,245.3 593.6,245.7 594.4,245.9 595.1,246.2 595.9,246.4 596.6,246.6 597.4,246.9 598.1,247.1 598.8,247.4 599.6,247.7 600.3,247.9 601.1,248.1 601.8,248.3 602.6,272.1 603.3,272.3 604.0,272.5 604.8,272.7 605.5,271.8 606.3,271.9 607.0,272.0 607.8,272.1 608.5,273.1 609.3,273.2 610.0,273.3 610.7,273.4 611.5,273.7 612.2,273.8 613.0,273.8 613.7,273.9 614.5,273.9 615.2,274.0 616.0,274.0 616.7,274.0 617.4,262.3 618.2,262.3 618.9,262.3 619.7,262.2 620.4,262.0 621.2,261.9 621.9,261.9 622.6,261.8 623.4,263.4 624.1,263.3 624.9,263.2 625.6,263.1 626.4,262.6 627.1,262.5 627.9,262.3 628.6,262.1 629.3,261.2 630.1,260.9 630.8,260.7 631.6,260.5 632.3,264.2 633.1,264.2 633.8,264.2 634.6,264.2 635.3,264.3 636.0,264.3 636.8,264.3 637.5,264.2 638.3,262.2 639.0,262.1 639.8,262.0 640.5,261.8 641.2,262.7 642.0,262.6 642.7,262.5 643.5,262.4 644.2,260.4 645.0,260.2 645.7,260.0 646.5,259.7 647.2,268.7 647.9,267.9 648.7,267.2 649.4,266.4 650.2,267.8 650.9,267.1 651.7,266.3 652.4,265.5 653.2,265.9 653.9,265.1 654.6,264.4 655.4,263.6 656.1,264.2 656.9,263.4 657.6,262.7 658.4,261.9 659.1,259.9 659.8,259.1 660.6,258.3 661.3,257.5 662.1,260.8 662.8,260.3 663.6,259.8 664.3,259.2 665.1,257.7 665.8,257.2 666.5,256.6 667.3,256.0 668.0,253.0 668.8,252.4 669.5,251.8 670.3,251.1 671.0,251.8 671.8,251.1 672.5,250.5 673.2,249.9 674.0,248.5 674.7,247.8 675.5,247.1 676.2,246.5 677.0,264.7 677.7,264.2 678.4,263.7 679.2,263.3 679.9,267.4 680.7,266.9 681.4,266.5 682.2,266.0 682.9,266.7 683.7,266.3 684.4,265.8 685.1,265.3 685.9,263.5 686.6,263.0 687.4,262.6 688.1,262.1 688.9,262.7 689.6,262.2 690.4,261.8 691.1,261.3 691.8,255.8 692.6,255.1 693.3,254.5 694.1,253.9 694.8,252.7 695.6,252.1 696.3,251.5 697.0,250.9 697.8,250.5 698.5,249.9 699.3,249.2 700.0,248.6 700.8,246.4 701.5,245.7 702.3,245.1 703.0,244.4 703.7,240.9 704.5,240.2 705.2,239.5 706.0,238.8 706.7,229.7 707.5,229.1 708.2,228.5 709.0,227.9 709.7,223.7 710.4,223.0 711.2,222.4 711.9,221.8 712.7,223.1 713.4,222.5 714.2,221.9 714.9,221.3 715.6,220.0 716.4,219.4 717.1,218.7 717.9,218.1 718.6,216.7 719.4,216.1 720.1,215.4 720.9,214.8 721.6,263.5 722.3,263.3 723.1,263.1 723.8,262.9 724.6,263.3 725.3,263.1 726.1,262.9 726.8,262.7 727.6,264.7 728.3,264.5 729.0,264.3 729.8,264.1 730.5,261.0 731.3,260.7 732.0,260.5 732.8,260.3 733.5,254.0 734.2,253.7 735.0,253.4 735.7,253.0 736.5,257.1 737.2,256.7 738.0,256.3 738.7,255.9 739.5,250.5 740.2,250.0 740.9,249.5 741.7,249.1 742.4,252.9 743.2,252.5 743.9,252.0 744.7,251.5 745.4,247.4 746.2,246.8 746.9,246.3 747.6,245.8 748.4,243.2 749.1,242.7 749.9,242.1 750.6,241.6 751.4,233.7 752.1,233.2 752.8,232.7 753.6,232.2 754.3,237.2 755.1,236.7 755.8,236.2 756.6,235.7 757.3,234.5 758.1,234.0 758.8,233.6 759.5,233.1 760.3,237.2 761.0,236.8 761.8,236.3 762.5,235.8 763.3,235.8 764.0,235.3 764.8,234.8 765.5,234.3 766.2,216.0 767.0,215.5 767.7,215.0 768.5,214.5 769.2,213.9 770.0,213.4 770.7,212.9 771.4,212.4 772.2,211.9 772.9,211.4 773.7,210.9 774.4,210.4 775.2,209.8 775.9,209.3 776.7,208.8 777.4,208.2 778.1,207.9 778.9,207.4 779.6,206.8 780.4,206.3 781.1,243.9 781.9,243.8 782.6,243.6 783.4,243.5 784.1,243.6 784.8,243.5 785.6,243.4 786.3,243.3 787.1,241.5 787.8,241.3 788.6,241.2 789.3,241.0 790.0,241.1 790.8,240.9 791.5,240.7 792.3,240.5 793.0,241.8 793.8,241.7 794.5,241.6 795.3,241.4 796.0,262.1"/>
<text x="640" y="56" font-family="Arial" font-size="12" fill="#0f766e">linear_nominal position error</text>
</svg>