<svg xmlns="http://www.w3.org/2000/svg" width="820" height="320" viewBox="0 0 820 320">
<rect width="100%" height="100%" fill="white"/>
<text x="52" y="30" font-family="Arial" font-size="18" font-weight="700">ukf_nominal residuals</text>
<line x1="52" y1="274" x2="796" y2="274" stroke="#263238"/>
<line x1="52" y1="42" x2="52" y2="274" stroke="#263238"/>
<text x="52" y="306" font-family="Arial" font-size="12">time (s)</text>
<text x="630" y="306" font-family="Arial" font-size="12">norm</text>

<polyline fill="none" stroke="#0f766e" stroke-width="2.3" points="52.0,251.7 52.0,265.0 52.0,252.4 52.0,270.3 52.0,267.3 55.0,271.4 58.0,272.6 60.9,267.2 63.9,264.8 66.9,263.9 66.9,271.0 66.9,262.1 66.9,272.2 66.9,273.8 69.9,271.9 72.8,266.7 75.8,265.0 78.8,267.6 81.8,259.3 81.8,267.9 81.8,269.3 81.8,273.0 81.8,264.5 84.7,266.5 87.7,272.1 90.7,266.3 93.7,269.5 96.6,249.3 96.6,273.7 96.6,264.7 96.6,262.1 96.6,266.9 99.6,270.4 102.6,271.2 105.6,271.7 108.5,269.4 111.5,262.5 111.5,270.4 111.5,268.8 111.5,272.4 111.5,265.0 114.5,264.1 117.5,269.8 120.4,273.9 123.4,268.3 126.4,247.8 126.4,261.8 126.4,267.6 126.4,269.6 126.4,261.7 129.4,269.5 132.4,273.4 135.3,266.3 138.3,267.9 141.3,264.9 141.3,269.7 141.3,265.5 141.3,272.7 141.3,263.6 144.3,265.7 147.2,270.7 150.2,272.8 153.2,268.4 156.2,262.3 156.2,273.2 156.2,254.6 156.2,269.7 156.2,271.3 159.1,268.4 162.1,267.8 165.1,273.9 168.1,263.6 171.0,259.3 171.0,263.9 171.0,269.7 171.0,260.3 171.0,268.5 174.0,272.5 177.0,270.5 180.0,272.2 182.9,268.5 185.9,255.7 185.9,265.2 185.9,263.0 185.9,272.8 185.9,272.6 188.9,272.7 191.9,263.1 194.8,269.1 197.8,270.3 200.8,246.7 200.8,270.1 200.8,267.8 200.8,271.2 200.8,264.3 203.8,268.5 206.8,263.5 209.7,268.4 212.7,272.5 215.7,256.5 215.7,273.4 215.7,273.8 215.7,264.5 215.7,265.7 218.7,267.7 221.6,267.8 224.6,271.7 227.6,268.5 230.6,250.8 230.6,268.9 230.6,273.3 230.6,271.7 230.6,266.8 233.5,264.7 236.5,272.6 239.5,271.0 242.5,270.3 245.4,260.7 245.4,269.7 245.4,263.4 245.4,273.8 245.4,270.2 248.4,270.0 251.4,269.7 254.4,269.1 257.3,268.8 260.3,254.2 260.3,272.6 260.3,271.0 260.3,271.1 260.3,265.5 263.3,273.1 266.3,268.6 269.2,267.2 272.2,266.7 275.2,237.7 275.2,268.1 275.2,268.5 275.2,267.5 275.2,263.5 278.2,268.7 281.2,272.5 284.1,271.5 287.1,272.4 290.1,256.6 290.1,273.2 290.1,268.2 290.1,262.5 290.1,268.4 293.1,264.6 296.0,273.5 299.0,273.2 302.0,272.7 305.0,267.1 305.0,266.0 305.0,263.2 305.0,268.8 305.0,269.1 307.9,268.9 310.9,270.8 313.9,269.6 316.9,271.6 319.8,249.1 319.8,266.5 319.8,270.7 319.8,271.2 319.8,268.7 322.8,273.4 325.8,266.5 328.8,271.0 331.7,270.2 334.7,245.1 334.7,270.8 334.7,258.0 334.7,272.4 334.7,267.4 337.7,272.2 340.7,272.2 343.6,271.9 346.6,267.0 349.6,259.5 349.6,272.4 349.6,271.3 349.6,271.2 349.6,260.7 352.6,271.9 355.6,270.9 358.5,272.2 361.5,269.8 364.5,267.6 364.5,265.9 364.5,269.5 364.5,271.6 364.5,264.6 367.5,272.3 370.4,267.4 373.4,268.1 376.4,269.1 379.4,269.8 379.4,267.6 379.4,267.5 379.4,262.4 382.3,273.5 385.3,271.3 388.3,268.0 391.3,272.1 394.2,272.5 394.2,270.8 394.2,271.9 394.2,272.5 397.2,271.2 400.2,272.4 403.2,272.6 406.1,267.5 409.1,274.0 409.1,270.6 409.1,273.4 409.1,268.1 412.1,268.4 415.1,265.3 418.0,269.9 421.0,271.5 424.0,273.5 424.0,267.5 424.0,272.5 424.0,269.5 427.0,271.7 430.0,267.7 432.9,273.5 435.9,270.5 438.9,273.7 438.9,261.7 438.9,268.1 438.9,273.7 441.9,270.7 444.8,269.2 447.8,269.9 450.8,273.4 453.8,265.7 453.8,269.6 453.8,271.3 453.8,264.8 456.7,270.2 459.7,273.2 462.7,271.4 465.7,271.9 468.6,266.2 468.6,272.2 468.6,273.9 468.6,272.3 471.6,268.8 474.6,271.6 477.6,268.0 480.5,268.6 483.5,250.3 483.5,271.0 483.5,272.4 483.5,264.7 483.5,273.2 486.5,273.8 489.5,269.3 492.4,273.5 495.4,270.7 498.4,246.8 498.4,263.4 498.4,266.6 498.4,269.0 498.4,269.7 501.4,273.5 504.4,271.1 507.3,267.7 510.3,269.9 513.3,262.0 513.3,269.7 513.3,270.0 513.3,260.5 513.3,271.3 516.3,272.0 519.2,269.4 522.2,272.6 525.2,270.1 528.2,249.0 528.2,272.6 528.2,261.5 528.2,263.8 528.2,273.3 531.1,273.3 534.1,271.1 537.1,266.4 540.1,271.5 543.0,259.4 543.0,270.1 543.0,265.1 543.0,268.1 543.0,270.2 546.0,270.7 549.0,271.5 552.0,266.3 554.9,271.2 557.9,253.0 557.9,270.5 557.9,273.3 557.9,265.3 557.9,272.0 560.9,271.4 563.9,267.8 566.8,271.9 569.8,273.3 572.8,263.8 572.8,273.6 572.8,269.5 572.8,270.2 572.8,265.7 575.8,268.9 578.8,270.2 581.7,269.4 584.7,273.0 587.7,42.0 587.7,261.2 587.7,270.7 587.7,263.4 587.7,271.9 590.7,273.7 593.6,271.2 596.6,272.3 599.6,271.5 602.6,263.6 602.6,267.0 602.6,272.3 602.6,269.4 602.6,273.5 605.5,266.7 608.5,264.1 611.5,271.1 614.5,273.0 617.4,255.4 617.4,272.2 617.4,269.5 617.4,272.1 617.4,273.5 620.4,273.8 623.4,267.8 626.4,272.3 629.3,271.6 632.3,263.9 632.3,272.6 632.3,271.2 632.3,271.5 632.3,273.7 635.3,273.8 638.3,270.4 641.2,272.6 644.2,271.2 647.2,252.0 647.2,270.4 647.2,273.7 647.2,261.2 647.2,269.2 650.2,270.1 653.2,271.4 656.1,270.2 659.1,270.7 662.1,253.9 662.1,268.5 662.1,272.8 662.1,272.4 662.1,273.0 665.1,272.9 668.0,270.7 671.0,271.3 674.0,273.4 677.0,252.4 677.0,271.4 677.0,272.4 677.0,264.5 677.0,265.1 679.9,263.9 682.9,268.5 685.9,269.7 688.9,269.2 691.8,266.2 691.8,267.9 691.8,271.8 691.8,271.3 691.8,266.4 694.8,266.6 697.8,271.9 700.8,267.5 703.7,267.4 706.7,247.5 706.7,269.0 706.7,268.7 706.7,273.1 706.7,264.0 709.7,265.5 712.7,268.4 715.6,273.3 718.6,273.3 721.6,244.9 721.6,265.4 721.6,264.9 721.6,268.7 721.6,273.6 724.6,272.1 727.6,268.7 730.5,269.3 733.5,266.2 736.5,260.5 736.5,273.4 736.5,272.3 736.5,266.2 736.5,271.9 739.5,269.2 742.4,268.4 745.4,270.6 748.4,272.5 751.4,254.4 751.4,265.9 751.4,272.8 751.4,257.7 751.4,267.2 754.3,263.5 757.3,272.9 760.3,260.4 763.3,270.3 766.2,252.4 766.2,269.5 766.2,272.1 766.2,273.5 766.2,273.5 769.2,273.8 772.2,269.2 775.2,273.6 778.1,267.5 781.1,260.8 781.1,268.9 781.1,257.1 781.1,273.7 781.1,265.0 784.1,272.3 787.1,267.6 790.0,272.8 793.0,268.9 796.0,248.5 796.0,271.4 796.0,272.5 796.0,269.1 796.0,268.8"/>
<text x="640" y="56" font-family="Arial" font-size="12" fill="#0f766e">ukf_nominal residuals</text>
</svg>