<svg xmlns="http://www.w3.org/2000/svg" width="820" height="320" viewBox="0 0 820 320">
<rect width="100%" height="100%" fill="white"/>
<text x="52" y="30" font-family="Arial" font-size="18" font-weight="700">linear_nominal residuals</text>
<line x1="52" y1="274" x2="796" y2="274" stroke="#263238"/>
<line x1="52" y1="42" x2="52" y2="274" stroke="#263238"/>
<text x="52" y="306" font-family="Arial" font-size="12">time (s)</text>
<text x="630" y="306" font-family="Arial" font-size="12">norm</text>

<polyline fill="none" stroke="#0f766e" stroke-width="2.3" points="52.0,251.3 52.0,265.0 52.0,274.0 52.0,274.0 52.0,274.0 55.0,271.5 58.0,271.5 60.9,269.5 63.9,263.6 66.9,252.7 66.9,271.1 66.9,274.0 66.9,274.0 66.9,274.0 69.9,270.5 72.8,272.1 75.8,268.5 78.8,268.9 81.8,252.2 81.8,266.6 81.8,274.0 81.8,274.0 81.8,274.0 84.7,269.4 87.7,270.6 90.7,268.3 93.7,270.2 96.6,246.4 96.6,273.1 96.6,274.0 96.6,274.0 96.6,274.0 99.6,271.7 102.6,270.6 105.6,272.9 108.5,270.2 111.5,254.7 111.5,270.3 111.5,274.0 111.5,274.0 111.5,274.0 114.5,264.8 117.5,270.9 120.4,273.8 123.4,268.0 126.4,250.5 126.4,263.6 126.4,274.0 126.4,274.0 126.4,274.0 129.4,269.7 132.4,273.8 135.3,265.9 138.3,269.3 141.3,258.6 141.3,268.7 141.3,274.0 141.3,274.0 141.3,274.0 144.3,264.1 147.2,273.3 150.2,272.9 153.2,266.3 156.2,255.0 156.2,271.6 156.2,274.0 156.2,274.0 156.2,274.0 159.1,265.2 162.1,271.5 165.1,270.9 168.1,260.5 171.0,240.7 171.0,265.7 171.0,274.0 171.0,274.0 171.0,274.0 174.0,273.4 177.0,269.7 180.0,271.2 182.9,269.5 185.9,246.0 185.9,265.1 185.9,274.0 185.9,274.0 185.9,274.0 188.9,272.0 191.9,263.7 194.8,269.0 197.8,270.6 200.8,238.8 200.8,269.8 200.8,274.0 200.8,274.0 200.8,274.0 203.8,268.9 206.8,263.3 209.7,267.7 212.7,273.4 215.7,248.8 215.7,273.7 215.7,274.0 215.7,274.0 215.7,274.0 218.7,267.4 221.6,268.2 224.6,271.5 227.6,268.7 230.6,249.5 230.6,269.4 230.6,274.0 230.6,274.0 230.6,274.0 233.5,264.3 236.5,272.0 239.5,271.7 242.5,269.7 245.4,255.9 245.4,269.7 245.4,274.0 245.4,274.0 245.4,274.0 248.4,270.1 251.4,269.6 254.4,268.9 257.3,269.1 260.3,248.8 260.3,273.1 260.3,274.0 260.3,274.0 260.3,274.0 263.3,273.5 266.3,269.1 269.2,267.5 272.2,266.5 275.2,239.2 275.2,268.3 275.2,274.0 275.2,274.0 275.2,274.0 278.2,268.8 281.2,272.5 284.1,271.5 287.1,272.4 290.1,258.5 290.1,272.6 290.1,274.0 290.1,274.0 290.1,274.0 293.1,265.2 296.0,273.1 299.0,272.8 302.0,272.3 305.0,266.9 305.0,265.4 305.0,274.0 305.0,274.0 305.0,274.0 307.9,269.5 310.9,271.3 313.9,270.0 316.9,271.9 319.8,257.8 319.8,266.5 319.8,274.0 319.8,274.0 319.8,274.0 322.8,273.3 325.8,266.5 328.8,270.8 331.7,270.3 334.7,233.7 334.7,271.0 334.7,274.0 334.7,274.0 334.7,274.0 337.7,272.1 340.7,272.4 343.6,272.0 346.6,266.9 349.6,259.2 349.6,271.9 349.6,274.0 349.6,274.0 349.6,274.0 352.6,271.4 355.6,270.3 358.5,272.8 361.5,269.2 364.5,265.1 364.5,264.9 364.5,274.0 364.5,274.0 364.5,274.0 367.5,273.4 370.4,268.4 373.4,267.1 376.4,268.1 379.4,268.7 379.4,274.0 379.4,274.0 379.4,274.0 382.3,273.4 385.3,270.2 388.3,269.1 391.3,273.1 394.2,271.6 394.2,274.0 394.2,274.0 394.2,274.0 397.2,272.1 400.2,273.2 403.2,273.4 406.1,266.7 409.1,273.3 409.1,274.0 409.1,274.0 409.1,274.0 412.1,269.1 415.1,265.8 418.0,270.4 421.0,271.0 424.0,273.0 424.0,274.0 424.0,274.0 424.0,274.0 427.0,271.3 430.0,268.1 432.9,273.1 435.9,270.8 438.9,273.4 438.9,274.0 438.9,274.0 438.9,274.0 441.9,270.4 444.8,269.4 447.8,269.6 450.8,273.6 453.8,265.9 453.8,274.0 453.8,274.0 453.8,274.0 456.7,270.0 459.7,273.0 462.7,271.3 465.7,271.7 468.6,266.3 468.6,274.0 468.6,274.0 468.6,274.0 471.6,268.6 474.6,271.7 477.6,268.1 480.5,268.6 483.5,255.6 483.5,271.4 483.5,274.0 483.5,274.0 483.5,274.0 486.5,273.4 489.5,269.7 492.4,273.9 495.4,270.3 498.4,258.7 498.4,262.8 498.4,274.0 498.4,274.0 498.4,274.0 501.4,273.9 504.4,271.8 507.3,268.3 510.3,269.3 513.3,250.4 513.3,270.3 513.3,274.0 513.3,274.0 513.3,274.0 516.3,272.5 519.2,268.9 522.2,273.2 525.2,270.6 528.2,236.7 528.2,272.2 528.2,274.0 528.2,274.0 528.2,274.0 531.1,273.7 534.1,270.7 537.1,265.9 540.1,271.9 543.0,258.4 543.0,270.8 543.0,274.0 543.0,274.0 543.0,274.0 546.0,270.1 549.0,270.8 552.0,267.0 554.9,270.6 557.9,251.3 557.9,270.1 557.9,274.0 557.9,274.0 557.9,274.0 560.9,271.0 563.9,268.2 566.8,272.2 569.8,273.0 572.8,267.3 572.8,273.9 572.8,274.0 572.8,274.0 572.8,274.0 575.8,268.6 578.8,269.9 581.7,269.7 584.7,273.3 587.7,42.0 587.7,261.3 587.7,274.0 587.7,274.0 587.7,274.0 590.7,273.6 593.6,271.2 596.6,272.3 599.6,271.5 602.6,262.1 602.6,266.1 602.6,274.0 602.6,274.0 602.6,274.0 605.5,267.5 608.5,263.1 611.5,272.0 614.5,274.0 617.4,252.7 617.4,272.4 617.4,274.0 617.4,274.0 617.4,274.0 620.4,273.6 623.4,268.0 626.4,272.2 629.3,271.4 632.3,269.5 632.3,272.4 632.3,274.0 632.3,274.0 632.3,274.0 635.3,274.0 638.3,270.6 641.2,272.4 644.2,271.4 647.2,252.4 647.2,270.6 647.2,274.0 647.2,274.0 647.2,274.0 650.2,270.3 653.2,271.5 656.1,270.3 659.1,270.6 662.1,257.8 662.1,267.9 662.1,274.0 662.1,274.0 662.1,274.0 665.1,272.3 668.0,270.0 671.0,271.9 674.0,272.8 677.0,248.3 677.0,272.4 677.0,274.0 677.0,274.0 677.0,274.0 679.9,264.9 682.9,269.4 685.9,268.9 688.9,270.0 691.8,271.7 691.8,268.7 691.8,274.0 691.8,274.0 691.8,274.0 694.8,265.7 697.8,272.8 700.8,266.7 703.7,266.5 706.7,252.6 706.7,270.0 706.7,274.0 706.7,274.0 706.7,274.0 709.7,264.5 712.7,269.4 715.6,272.4 718.6,272.4 721.6,245.7 721.6,266.4 721.6,274.0 721.6,274.0 721.6,274.0 724.6,273.0 727.6,269.6 730.5,268.5 733.5,265.3 736.5,258.9 736.5,273.8 736.5,274.0 736.5,274.0 736.5,274.0 739.5,268.5 742.4,269.2 745.4,269.9 748.4,271.8 751.4,255.1 751.4,266.7 751.4,274.0 751.4,274.0 751.4,274.0 754.3,264.1 757.3,272.3 760.3,260.9 763.3,270.7 766.2,252.3 766.2,269.3 766.2,274.0 766.2,274.0 766.2,274.0 769.2,274.0 772.2,268.9 775.2,273.9 778.1,267.9 781.1,257.1 781.1,268.6 781.1,274.0 781.1,274.0 781.1,274.0 784.1,272.6 787.1,267.2 790.0,273.2 793.0,269.3 796.0,253.0 796.0,272.3 796.0,274.0 796.0,274.0 796.0,274.0"/>
<text x="640" y="56" font-family="Arial" font-size="12" fill="#0f766e">linear_nominal residuals</text>
</svg>