<svg xmlns="http://www.w3.org/2000/svg" width="820" height="320" viewBox="0 0 820 320">
<rect width="100%" height="100%" fill="white"/>
<text x="52" y="30" font-family="Arial" font-size="18" font-weight="700">ekf_nominal residuals</text>
<line x1="52" y1="274" x2="796" y2="274" stroke="#263238"/>
<line x1="52" y1="42" x2="52" y2="274" stroke="#263238"/>
<text x="52" y="306" font-family="Arial" font-size="12">time (s)</text>
<text x="630" y="306" font-family="Arial" font-size="12">norm</text>

<polyline fill="none" stroke="#0f766e" stroke-width="2.3" points="52.0,235.3 52.0,258.1 52.0,243.4 52.0,268.3 52.0,259.2 55.0,269.4 58.0,271.5 60.9,261.9 63.9,257.6 66.9,263.1 66.9,268.7 66.9,253.3 66.9,269.0 66.9,273.9 69.9,270.3 72.8,261.0 75.8,257.9 78.8,262.7 81.8,248.7 81.8,263.1 81.8,265.3 81.8,271.6 81.8,255.3 84.7,260.7 87.7,270.7 90.7,260.3 93.7,266.1 96.6,258.5 96.6,273.5 96.6,257.3 96.6,253.7 96.6,263.1 99.6,267.6 102.6,269.0 105.6,270.0 108.5,265.8 111.5,254.6 111.5,267.5 111.5,264.7 111.5,270.7 111.5,257.0 114.5,256.4 117.5,266.6 120.4,273.8 123.4,263.9 126.4,233.6 126.4,252.3 126.4,262.6 126.4,265.9 126.4,252.0 129.4,266.0 132.4,272.9 135.3,260.3 138.3,263.2 141.3,259.8 141.3,266.3 141.3,259.1 141.3,271.2 141.3,254.9 144.3,259.2 147.2,268.2 150.2,271.9 153.2,264.0 156.2,260.0 156.2,272.5 156.2,239.3 156.2,265.4 156.2,268.4 159.1,264.1 162.1,262.9 165.1,273.9 168.1,255.6 171.0,272.9 171.0,256.1 171.0,266.1 171.0,250.9 171.0,265.0 174.0,271.4 177.0,267.8 180.0,270.8 182.9,264.2 185.9,264.7 185.9,258.3 185.9,254.2 185.9,273.0 185.9,270.6 188.9,271.6 191.9,254.7 194.8,265.2 197.8,267.4 200.8,225.4 200.8,267.1 200.8,262.7 200.8,270.2 200.8,257.5 203.8,264.2 206.8,255.3 209.7,264.0 212.7,271.3 215.7,245.6 215.7,273.0 215.7,273.8 215.7,258.2 215.7,258.7 218.7,262.7 221.6,263.0 224.6,269.8 227.6,264.2 230.6,239.8 230.6,264.9 230.6,273.0 230.6,269.0 230.6,261.9 233.5,257.5 236.5,271.6 239.5,268.6 242.5,267.5 245.4,252.6 245.4,266.3 245.4,255.4 245.4,273.5 245.4,267.8 248.4,266.9 251.4,266.3 254.4,265.3 257.3,264.8 260.3,257.6 260.3,271.4 260.3,268.8 260.3,268.0 260.3,258.3 263.3,272.3 266.3,264.5 269.2,261.9 272.2,260.9 275.2,210.6 275.2,263.4 275.2,264.3 275.2,261.7 275.2,254.6 278.2,264.6 281.2,271.4 284.1,269.6 287.1,271.2 290.1,250.1 290.1,272.5 290.1,263.8 290.1,252.7 290.1,263.3 293.1,257.4 296.0,273.2 299.0,272.6 302.0,271.7 305.0,261.9 305.0,259.7 305.0,254.6 305.0,265.6 305.0,264.5 307.9,264.9 310.9,268.3 313.9,266.1 316.9,269.7 319.8,229.8 319.8,260.7 319.8,268.3 319.8,269.8 319.8,265.3 322.8,272.9 325.8,260.7 328.8,268.6 331.7,267.2 334.7,227.3 334.7,268.3 334.7,245.7 334.7,270.4 334.7,261.6 337.7,270.9 340.7,270.8 343.6,270.2 346.6,261.6 349.6,249.7 349.6,271.2 349.6,269.1 349.6,269.8 349.6,251.0 352.6,270.3 355.6,268.5 358.5,270.8 361.5,266.5 364.5,270.0 364.5,259.7 364.5,266.0 364.5,270.3 364.5,257.9 367.5,271.0 370.4,262.2 373.4,263.4 376.4,265.4 379.4,266.6 379.4,262.6 379.4,261.8 379.4,253.9 382.3,273.1 385.3,269.3 388.3,263.4 391.3,270.6 394.2,271.4 394.2,268.3 394.2,269.8 394.2,271.8 397.2,269.1 400.2,271.2 403.2,271.5 406.1,262.4 409.1,274.0 409.1,268.0 409.1,272.5 409.1,263.0 412.1,264.1 415.1,258.5 418.0,266.7 421.0,269.6 424.0,273.2 424.0,262.4 424.0,271.7 424.0,266.4 427.0,270.0 430.0,262.8 432.9,273.2 435.9,267.7 438.9,273.5 438.9,252.2 438.9,263.9 438.9,273.1 441.9,268.1 444.8,265.5 447.8,266.7 450.8,272.9 453.8,259.3 453.8,266.2 453.8,268.7 453.8,257.2 456.7,267.3 459.7,272.6 462.7,269.4 465.7,270.2 468.6,260.1 468.6,270.8 468.6,273.5 468.6,271.4 471.6,264.7 474.6,269.7 477.6,263.4 480.5,264.4 483.5,246.1 483.5,268.6 483.5,271.2 483.5,257.7 483.5,272.2 486.5,273.6 489.5,265.7 492.4,273.2 495.4,268.1 498.4,250.1 498.4,255.2 498.4,260.9 498.4,265.4 498.4,266.1 501.4,273.0 504.4,268.9 507.3,262.9 510.3,266.7 513.3,253.7 513.3,266.3 513.3,266.9 513.3,250.3 513.3,269.4 516.3,270.4 519.2,265.9 522.2,271.6 525.2,267.0 528.2,240.8 528.2,271.6 528.2,251.7 528.2,255.7 528.2,273.0 531.1,272.7 534.1,268.9 537.1,260.5 540.1,269.5 543.0,251.7 543.0,267.1 543.0,258.1 543.0,263.3 543.0,267.0 546.0,268.2 549.0,269.5 552.0,260.4 554.9,269.1 557.9,243.7 557.9,267.8 557.9,272.8 557.9,258.3 557.9,270.2 560.9,269.4 563.9,262.9 566.8,270.2 569.8,272.7 572.8,261.2 572.8,273.3 572.8,266.0 572.8,267.0 572.8,259.4 575.8,264.9 578.8,267.3 581.7,265.8 584.7,272.3 587.7,42.0 587.7,251.2 587.7,268.2 587.7,255.3 587.7,270.5 590.7,273.4 593.6,269.0 596.6,271.0 599.6,269.5 602.6,255.8 602.6,261.6 602.6,271.0 602.6,265.6 602.6,272.9 605.5,260.9 608.5,256.3 611.5,268.8 614.5,272.3 617.4,242.2 617.4,270.7 617.4,265.9 617.4,270.4 617.4,273.3 620.4,273.7 623.4,263.0 626.4,271.0 629.3,269.7 632.3,272.9 632.3,271.5 632.3,269.1 632.3,269.6 632.3,273.6 635.3,273.7 638.3,267.6 641.2,271.5 644.2,269.0 647.2,237.4 647.2,267.6 647.2,273.4 647.2,251.1 647.2,265.6 650.2,267.0 653.2,269.3 656.1,267.2 659.1,268.2 662.1,245.2 662.1,264.2 662.1,271.9 662.1,271.3 662.1,272.1 665.1,272.1 668.0,268.1 671.0,269.2 674.0,272.9 677.0,235.7 677.0,269.3 677.0,271.1 677.0,257.2 677.0,258.0 679.9,256.1 682.9,264.3 685.9,266.4 688.9,265.5 691.8,273.6 691.8,263.1 691.8,270.0 691.8,269.0 691.8,260.5 694.8,260.8 697.8,270.3 700.8,262.5 703.7,262.2 706.7,267.0 706.7,265.2 706.7,264.6 706.7,272.5 706.7,256.0 709.7,258.9 712.7,264.1 715.6,272.8 718.6,272.8 721.6,223.3 721.6,258.7 721.6,257.9 721.6,264.7 721.6,273.2 724.6,270.6 727.6,264.6 730.5,265.6 733.5,260.1 736.5,253.6 736.5,272.9 736.5,271.0 736.5,260.3 736.5,270.4 739.5,265.5 742.4,264.1 745.4,268.0 748.4,271.3 751.4,248.2 751.4,259.6 751.4,271.9 751.4,245.0 751.4,261.8 754.3,255.3 757.3,272.0 760.3,249.9 763.3,267.5 766.2,247.0 766.2,266.0 766.2,270.6 766.2,273.1 766.2,273.0 769.2,273.6 772.2,265.4 775.2,273.2 778.1,262.5 781.1,250.8 781.1,264.9 781.1,244.0 781.1,273.6 781.1,258.1 784.1,270.9 787.1,262.7 790.0,271.9 793.0,264.9 796.0,252.8 796.0,269.3 796.0,271.4 796.0,265.4 796.0,264.8"/>
<text x="640" y="56" font-family="Arial" font-size="12" fill="#0f766e">ekf_nominal residuals</text>
</svg>