<svg xmlns="http://www.w3.org/2000/svg" width="820" height="320" viewBox="0 0 820 320">
<rect width="100%" height="100%" fill="white"/>
<text x="52" y="30" font-family="Arial" font-size="18" font-weight="700">ekf_nominal velocity error</text>
<line x1="52" y1="274" x2="796" y2="274" stroke="#263238"/>
<line x1="52" y1="42" x2="52" y2="274" stroke="#263238"/>
<text x="52" y="306" font-family="Arial" font-size="12">time (s)</text>
<text x="630" y="306" font-family="Arial" font-size="12">m/s</text>

<rect x="379.4" y="42" width="89.3" height="232" fill="#fef3c7" opacity="0.72"/>
<polyline fill="none" stroke="#0f766e" stroke-width="2.3" points="52.0,215.3 52.7,214.9 53.5,214.2 54.2,213.9 55.0,155.3 55.7,155.5 56.5,155.0 57.2,154.8 58.0,109.1 58.7,108.9 59.4,108.7 60.2,108.2 60.9,206.8 61.7,206.7 62.4,206.8 63.2,206.8 63.9,50.7 64.6,50.6 65.4,50.8 66.1,50.5 66.9,42.0 67.6,42.8 68.4,43.2 69.1,43.3 69.9,60.1 70.6,59.8 71.3,60.0 72.1,60.3 72.8,97.7 73.6,98.0 74.3,98.6 75.1,99.4 75.8,113.3 76.6,113.8 77.3,113.7 78.0,113.3 78.8,103.3 79.5,103.4 80.3,103.3 81.0,102.9 81.8,155.7 82.5,153.8 83.2,151.6 84.0,149.6 84.7,193.9 85.5,192.6 86.2,191.7 87.0,190.6 87.7,178.1 88.5,176.8 89.2,175.4 89.9,174.0 90.7,219.7 91.4,218.7 92.2,218.0 92.9,217.5 93.7,242.9 94.4,243.6 95.2,243.9 95.9,244.3 96.6,246.8 97.4,247.2 98.1,247.5 98.9,247.4 99.6,254.2 100.4,254.4 101.1,253.2 101.8,252.8 102.6,249.9 103.3,250.3 104.1,250.1 104.8,250.1 105.6,253.5 106.3,253.1 107.1,252.4 107.8,252.2 108.5,235.4 109.3,234.4 110.0,233.5 110.8,232.3 111.5,171.1 112.3,168.6 113.0,165.9 113.8,163.6 114.5,178.7 115.2,177.0 116.0,175.3 116.7,173.5 117.5,167.6 118.2,165.6 119.0,163.6 119.7,161.2 120.4,158.9 121.2,157.2 121.9,155.0 122.7,153.2 123.4,155.7 124.2,154.4 124.9,152.4 125.7,150.5 126.4,188.8 127.1,187.1 127.9,185.1 128.6,183.7 129.4,196.2 130.1,195.0 130.9,193.7 131.6,192.3 132.4,189.0 133.1,187.8 133.8,186.4 134.6,185.2 135.3,198.6 136.1,197.2 136.8,196.1 137.6,195.6 138.3,184.1 139.0,183.2 139.8,182.2 140.5,181.2 141.3,153.3 142.0,151.6 142.8,150.0 143.5,148.7 144.3,152.6 145.0,151.3 145.7,149.5 146.5,147.7 147.2,145.1 148.0,143.6 148.7,142.1 149.5,140.3 150.2,138.0 151.0,136.7 151.7,135.5 152.4,134.1 153.2,134.8 153.9,133.6 154.7,132.0 155.4,130.5 156.2,214.8 156.9,214.0 157.6,213.9 158.4,213.1 159.1,213.5 159.9,213.0 160.6,212.4 161.4,211.7 162.1,209.2 162.9,209.0 163.6,207.7 164.3,207.0 165.1,206.3 165.8,205.8 166.6,204.6 167.3,203.4 168.1,204.1 168.8,203.3 169.6,202.6 170.3,201.8 171.0,225.8 171.8,225.8 172.5,225.7 173.3,225.2 174.0,223.7 174.8,223.2 175.5,223.1 176.2,222.9 177.0,224.1 177.7,223.6 178.5,223.6 179.2,222.7 180.0,222.9 180.7,222.5 181.5,222.1 182.2,221.9 182.9,219.3 183.7,218.4 184.4,218.1 185.2,217.7 185.9,244.2 186.7,244.3 187.4,244.2 188.2,244.1 188.9,243.9 189.6,243.5 190.4,243.6 191.1,243.7 191.9,237.8 192.6,237.7 193.4,238.0 194.1,237.6 194.8,232.2 195.6,232.0 196.3,231.7 197.1,231.2 197.8,234.6 198.6,235.0 199.3,234.5 200.1,234.3 200.8,228.6 201.5,228.1 202.3,227.4 203.0,227.0 203.8,223.1 204.5,221.7 205.3,220.9 206.0,220.5 206.8,225.6 207.5,225.5 208.2,224.9 209.0,224.2 209.7,224.4 210.5,224.1 211.2,223.8 212.0,223.4 212.7,223.1 213.4,222.4 214.2,221.6 214.9,221.2 215.7,218.0 216.4,217.4 217.2,217.1 217.9,216.9 218.7,216.5 219.4,215.8 220.1,215.4 220.9,214.9 221.6,213.8 222.4,213.5 223.1,213.3 223.9,212.7 224.6,212.0 225.4,211.5 226.1,210.6 226.8,210.1 227.6,208.6 228.3,208.2 229.1,207.6 229.8,207.1 230.6,201.2 231.3,200.2 232.0,199.7 232.8,199.4 233.5,197.4 234.3,197.0 235.0,196.8 235.8,196.8 236.5,196.0 237.3,195.4 238.0,194.7 238.7,193.9 239.5,193.7 240.2,193.1 241.0,192.3 241.7,191.6 242.5,190.5 243.2,189.7 244.0,189.2 244.7,188.6 245.4,206.0 246.2,205.7 246.9,204.8 247.7,204.6 248.4,203.3 249.2,202.4 249.9,201.5 250.6,201.0 251.4,199.1 252.1,198.3 252.9,198.1 253.6,197.5 254.4,195.3 255.1,194.6 255.9,194.1 256.6,193.6 257.3,194.7 258.1,194.2 258.8,194.2 259.6,194.6 260.3,215.6 261.1,215.5 261.8,215.1 262.6,215.4 263.3,215.5 264.0,215.2 264.8,214.9 265.5,214.9 266.3,216.4 267.0,215.7 267.8,215.4 268.5,215.0 269.2,216.4 270.0,215.6 270.7,214.9 271.5,214.3 272.2,212.0 273.0,211.9 273.7,211.1 274.5,210.9 275.2,239.5 275.9,239.4 276.7,239.2 277.4,238.8 278.2,240.2 278.9,240.1 279.7,239.8 280.4,239.1 281.2,239.7 281.9,239.4 282.6,238.8 283.4,238.4 284.1,236.9 284.9,237.0 285.6,236.8 286.4,236.5 287.1,236.5 287.8,236.4 288.6,236.2 289.3,236.4 290.1,253.9 290.8,253.7 291.6,253.7 292.3,254.5 293.1,257.7 293.8,257.3 294.5,257.4 295.3,256.8 296.0,256.6 296.8,256.9 297.5,256.7 298.3,256.5 299.0,256.4 299.8,256.4 300.5,256.9 301.2,256.3 302.0,255.6 302.7,256.1 303.5,256.1 304.2,256.6 305.0,234.1 305.7,233.5 306.4,233.0 307.2,232.5 307.9,233.0 308.7,232.9 309.4,233.0 310.2,232.3 310.9,232.1 311.7,231.3 312.4,231.0 313.1,231.1 313.9,230.8 314.6,230.5 315.4,230.2 316.1,230.2 316.9,229.9 317.6,229.9 318.4,230.0 319.1,230.1 319.8,245.9 320.6,245.9 321.3,245.9 322.1,245.9 322.8,245.6 323.6,245.1 324.3,244.9 325.0,245.0 325.8,245.1 326.5,245.5 327.3,244.9 328.0,244.7 328.8,244.4 329.5,244.2 330.3,244.3 331.0,243.8 331.7,243.4 332.5,243.8 333.2,243.3 334.0,243.4 334.7,249.4 335.5,249.2 336.2,248.5 337.0,248.7 337.7,248.8 338.4,248.6 339.2,248.1 339.9,247.7 340.7,247.2 341.4,247.5 342.2,247.5 342.9,247.6 343.6,247.2 344.4,246.9 345.1,246.4 345.9,246.1 346.6,246.6 347.4,246.3 348.1,246.3 348.9,246.3 349.6,255.8 350.3,254.9 351.1,255.1 351.8,254.8 352.6,254.7 353.3,254.3 354.1,254.8 354.8,255.1 355.6,254.9 356.3,254.2 357.0,253.7 357.8,254.0 358.5,254.4 359.3,254.4 360.0,254.1 360.8,254.0 361.5,253.5 362.2,253.5 363.0,253.6 363.7,253.5 364.5,257.1 365.2,257.3 366.0,257.6 366.7,257.0 367.5,257.1 368.2,257.2 368.9,256.9 369.7,256.7 370.4,259.8 371.2,260.1 371.9,260.1 372.7,259.9 373.4,257.1 374.2,257.2 374.9,257.3 375.6,257.6 376.4,255.0 377.1,255.0 377.9,255.0 378.6,255.1 379.4,252.4 380.1,252.4 380.8,252.6 381.6,252.4 382.3,252.4 383.1,252.6 383.8,252.2 384.6,251.9 385.3,250.3 386.1,250.4 386.8,250.3 387.5,250.7 388.3,254.2 389.0,253.8 389.8,254.0 390.5,253.9 391.3,254.8 392.0,254.9 392.8,254.9 393.5,255.0 394.2,254.9 395.0,255.0 395.7,254.3 396.5,254.5 397.2,255.9 398.0,255.5 398.7,255.0 399.4,255.0 400.2,255.4 400.9,255.2 401.7,254.7 402.4,254.8 403.2,255.1 403.9,254.3 404.7,254.6 405.4,254.1 406.1,251.0 406.9,250.9 407.6,250.9 408.4,250.7 409.1,252.9 409.9,252.4 410.6,252.6 411.4,252.8 412.1,256.0 412.8,256.0 413.6,255.8 414.3,255.4 415.1,259.6 415.8,259.4 416.6,259.6 417.3,259.6 418.0,261.1 418.8,261.2 419.5,261.5 420.3,261.3 421.0,260.7 421.8,260.7 422.5,260.1 423.3,260.2 424.0,251.2 424.7,251.4 425.5,250.7 426.2,250.4 427.0,249.5 427.7,249.3 428.5,249.1 429.2,249.1 430.0,250.0 430.7,249.7 431.4,249.4 432.2,249.1 432.9,248.8 433.7,248.3 434.4,248.3 435.2,248.6 435.9,249.1 436.6,249.0 437.4,248.9 438.1,249.0 438.9,257.5 439.6,257.1 440.4,257.4 441.1,257.0 441.9,256.1 442.6,255.8 443.3,256.4 444.1,256.9 444.8,258.1 445.6,258.5 446.3,258.8 447.1,259.1 447.8,257.9 448.6,257.5 449.3,257.8 450.0,258.2 450.8,258.5 451.5,258.1 452.3,258.1 453.0,257.9 453.8,270.1 454.5,269.8 455.2,269.7 456.0,269.3 456.7,266.3 457.5,266.9 458.2,266.9 459.0,267.0 459.7,266.1 460.5,265.9 461.2,265.4 461.9,265.3 462.7,263.5 463.4,263.7 464.2,263.6 464.9,263.3 465.7,261.8 466.4,262.4 467.2,262.1 467.9,262.1 468.6,266.5 469.4,266.9 470.1,266.7 470.9,266.6 471.6,262.8 472.4,263.2 473.1,263.0 473.8,263.3 474.6,264.6 475.3,264.7 476.1,263.9 476.8,263.3 477.6,266.8 478.3,267.0 479.1,266.9 479.8,267.0 480.5,270.1 481.3,270.4 482.0,270.4 482.8,270.1 483.5,272.1 484.3,272.3 485.0,272.2 485.8,272.0 486.5,271.9 487.2,272.1 488.0,272.0 488.7,271.8 489.5,274.0 490.2,273.6 491.0,273.3 491.7,273.4 492.4,273.3 493.2,272.9 493.9,272.7 494.7,272.8 495.4,273.5 496.2,273.4 496.9,273.9 497.7,273.5 498.4,259.1 499.1,258.9 499.9,259.0 500.6,258.8 501.4,258.7 502.1,258.5 502.9,258.0 503.6,257.8 504.4,258.2 505.1,258.4 505.8,258.3 506.6,258.6 507.3,258.5 508.1,258.0 508.8,257.9 509.6,258.3 510.3,258.2 511.0,258.1 511.8,257.5 512.5,257.2 513.3,250.2 514.0,250.1 514.8,250.5 515.5,250.4 516.3,250.5 517.0,250.4 517.7,250.4 518.5,250.3 519.2,250.2 520.0,250.4 520.7,250.2 521.5,250.6 522.2,251.1 523.0,250.6 523.7,250.5 524.4,250.5 525.2,250.0 525.9,250.2 526.7,249.9 527.4,249.6 528.2,263.2 528.9,263.9 529.6,264.1 530.4,264.3 531.1,264.2 531.9,263.9 532.6,263.8 533.4,264.4 534.1,264.6 534.9,264.5 535.6,264.9 536.3,265.1 537.1,263.0 537.8,263.1 538.6,262.7 539.3,262.8 540.1,263.6 540.8,263.4 541.6,263.2 542.3,263.5 543.0,263.8 543.8,263.7 544.5,263.7 545.3,263.3 546.0,261.9 546.8,261.6 547.5,261.7 548.2,261.1 549.0,260.3 549.7,260.6 550.5,260.7 551.2,260.8 552.0,262.9 552.7,262.5 553.5,262.7 554.2,262.4 554.9,261.9 555.7,262.1 556.4,262.1 557.2,262.3 557.9,250.4 558.7,250.3 559.4,249.6 560.2,250.0 560.9,249.5 561.6,249.7 562.4,249.9 563.1,250.3 563.9,251.3 564.6,251.4 565.4,251.3 566.1,251.2 566.8,250.9 567.6,250.5 568.3,250.6 569.1,250.3 569.8,249.8 570.6,249.2 571.3,248.4 572.1,248.8 572.8,252.2 573.5,251.6 574.3,251.5 575.0,251.2 575.8,250.3 576.5,250.2 577.3,250.2 578.0,250.7 578.8,249.8 579.5,249.7 580.2,250.2 581.0,250.4 581.7,251.1 582.5,251.4 583.2,251.1 584.0,251.5 584.7,251.7 585.4,251.6 586.2,252.1 586.9,252.2 587.7,261.0 588.4,261.0 589.2,261.3 589.9,261.5 590.7,261.1 591.4,261.1 592.1,261.0 592.9,260.8 593.6,260.5 594.4,260.4 595.1,260.6 595.9,260.8 596.6,260.5 597.4,260.4 598.1,259.9 598.8,260.0 599.6,259.9 600.3,260.1 601.1,260.1 601.8,259.7 602.6,253.5 603.3,253.3 604.0,252.9 604.8,253.3 605.5,254.4 606.3,254.5 607.0,254.4 607.8,254.0 608.5,252.2 609.3,252.3 610.0,252.3 610.7,252.6 611.5,253.0 612.2,252.6 613.0,252.7 613.7,252.0 614.5,252.0 615.2,251.8 616.0,251.8 616.7,251.9 617.4,251.4 618.2,250.9 618.9,250.2 619.7,250.2 620.4,249.9 621.2,249.7 621.9,249.5 622.6,249.7 623.4,250.8 624.1,250.5 624.9,250.5 625.6,250.6 626.4,250.1 627.1,250.0 627.9,250.2 628.6,250.2 629.3,250.1 630.1,249.3 630.8,249.1 631.6,249.6 632.3,255.8 633.1,255.7 633.8,255.7 634.6,255.4 635.3,255.1 636.0,254.9 636.8,254.9 637.5,254.7 638.3,254.4 639.0,254.6 639.8,254.9 640.5,254.7 641.2,254.5 642.0,254.5 642.7,254.4 643.5,254.6 644.2,253.7 645.0,253.7 645.7,253.6 646.5,254.0 647.2,246.6 647.9,246.6 648.7,246.8 649.4,246.7 650.2,247.0 650.9,246.5 651.7,246.7 652.4,246.5 653.2,246.9 653.9,246.2 654.6,246.4 655.4,246.2 656.1,246.4 656.9,246.3 657.6,246.6 658.4,246.8 659.1,245.9 659.8,246.0 660.6,245.8 661.3,245.7 662.1,249.4 662.8,249.0 663.6,248.6 664.3,248.9 665.1,248.5 665.8,248.3 666.5,248.0 667.3,248.3 668.0,247.5 668.8,247.4 669.5,247.5 670.3,247.1 671.0,247.4 671.8,247.4 672.5,247.4 673.2,246.5 674.0,246.0 674.7,245.9 675.5,245.4 676.2,245.2 677.0,249.7 677.7,249.7 678.4,250.0 679.2,250.6 679.9,253.1 680.7,253.1 681.4,252.6 682.2,252.2 682.9,252.8 683.7,252.5 684.4,252.2 685.1,251.7 685.9,251.3 686.6,250.9 687.4,250.7 688.1,250.5 688.9,251.0 689.6,250.6 690.4,251.0 691.1,251.4 691.8,249.6 692.6,249.6 693.3,249.3 694.1,249.0 694.8,248.6 695.6,248.2 696.3,248.0 697.0,247.5 697.8,248.0 698.5,247.8 699.3,247.6 700.0,247.0 700.8,246.3 701.5,246.6 702.3,246.5 703.0,246.1 703.7,245.0 704.5,244.8 705.2,244.7 706.0,244.0 706.7,248.6 707.5,248.1 708.2,247.8 709.0,247.8 709.7,245.5 710.4,245.8 711.2,245.9 711.9,246.0 712.7,247.3 713.4,247.2 714.2,247.2 714.9,246.9 715.6,246.1 716.4,246.1 717.1,246.3 717.9,246.6 718.6,246.8 719.4,246.8 720.1,246.7 720.9,246.6 721.6,260.6 722.3,260.1 723.1,260.0 723.8,260.3 724.6,261.1 725.3,261.4 726.1,260.9 726.8,260.7 727.6,261.9 728.3,262.0 729.0,262.3 729.8,262.3 730.5,260.7 731.3,260.4 732.0,261.0 732.8,260.9 733.5,258.8 734.2,258.3 735.0,258.4 735.7,258.4 736.5,260.7 737.2,261.0 738.0,260.9 738.7,261.1 739.5,258.6 740.2,258.2 740.9,258.0 741.7,257.6 742.4,260.0 743.2,259.9 743.9,260.3 744.7,260.0 745.4,258.7 746.2,259.4 746.9,259.1 747.6,258.7 748.4,257.9 749.1,257.6 749.9,257.3 750.6,257.2 751.4,260.4 752.1,260.5 752.8,260.5 753.6,260.4 754.3,263.2 755.1,263.0 755.8,262.9 756.6,263.6 757.3,263.4 758.1,263.6 758.8,263.8 759.5,263.6 760.3,262.0 761.0,261.6 761.8,261.5 762.5,261.4 763.3,260.4 764.0,260.4 764.8,260.3 765.5,259.5 766.2,252.7 767.0,252.6 767.7,252.3 768.5,252.6 769.2,252.6 770.0,253.1 770.7,253.1 771.4,253.0 772.2,251.1 772.9,250.9 773.7,250.6 774.4,250.6 775.2,250.3 775.9,250.1 776.7,250.2 777.4,250.1 778.1,252.9 778.9,253.2 779.6,253.2 780.4,253.7 781.1,248.5 781.9,248.7 782.6,248.7 783.4,248.5 784.1,249.3 784.8,249.5 785.6,249.7 786.3,250.1 787.1,248.1 787.8,247.5 788.6,247.7 789.3,247.9 790.0,248.2 790.8,248.0 791.5,247.8 792.3,248.0 793.0,250.3 793.8,250.3 794.5,249.7 795.3,249.6 796.0,254.8"/>
<text x="640" y="56" font-family="Arial" font-size="12" fill="#0f766e">ekf_nominal velocity error</text>
</svg>