<svg xmlns="http://www.w3.org/2000/svg" width="820" height="320" viewBox="0 0 820 320">
<rect width="100%" height="100%" fill="white"/>
<text x="52" y="30" font-family="Arial" font-size="18" font-weight="700">linear_nominal velocity error</text>
<line x1="52" y1="274" x2="796" y2="274" stroke="#263238"/>
<line x1="52" y1="42" x2="52" y2="274" stroke="#263238"/>
<text x="52" y="306" font-family="Arial" font-size="12">time (s)</text>
<text x="630" y="306" font-family="Arial" font-size="12">m/s</text>

<rect x="379.4" y="42" width="89.3" height="232" fill="#fef3c7" opacity="0.72"/>
<polyline fill="none" stroke="#0f766e" stroke-width="2.3" points="52.0,218.5 52.7,218.3 53.5,219.2 54.2,219.6 55.0,218.5 55.7,219.8 56.5,218.7 57.2,217.7 58.0,214.4 58.7,213.8 59.4,212.9 60.2,212.3 60.9,220.2 61.7,220.1 62.4,219.9 63.2,219.2 63.9,232.4 64.6,232.1 65.4,233.7 66.1,233.0 66.9,209.1 67.6,203.9 68.4,199.3 69.1,195.9 69.9,195.6 70.6,192.2 71.3,187.7 72.1,183.2 72.8,177.0 73.6,173.0 74.3,168.2 75.1,163.2 75.8,145.4 76.6,140.8 77.3,137.0 78.0,133.7 78.8,110.4 79.5,105.5 80.3,100.8 81.0,96.8 81.8,102.0 82.5,97.4 83.2,92.7 84.0,90.0 84.7,93.5 85.5,88.8 86.2,85.3 87.0,81.5 87.7,72.1 88.5,66.7 89.2,61.9 89.9,57.8 90.7,65.8 91.4,62.5 92.2,57.8 92.9,54.0 93.7,56.4 94.4,50.9 95.2,46.3 95.9,42.0 96.6,138.9 97.4,136.3 98.1,133.7 98.9,130.7 99.6,126.2 100.4,123.4 101.1,121.3 101.8,117.2 102.6,118.3 103.3,114.7 104.1,111.6 104.8,108.8 105.6,105.3 106.3,102.3 107.1,100.8 107.8,98.3 108.5,89.1 109.3,86.3 110.0,83.1 110.8,80.7 111.5,131.0 112.3,128.1 113.0,124.3 113.8,121.9 114.5,133.3 115.2,131.1 116.0,129.2 116.7,127.0 117.5,118.3 118.2,116.1 119.0,113.5 119.7,110.1 120.4,108.1 121.2,106.4 121.9,103.0 122.7,101.2 123.4,109.6 124.2,108.7 124.9,106.0 125.7,104.4 126.4,153.9 127.1,151.2 127.9,148.2 128.6,147.1 129.4,158.9 130.1,157.1 130.9,155.4 131.6,153.8 132.4,150.2 133.1,149.2 133.8,147.3 134.6,145.2 135.3,169.0 136.1,166.0 136.8,164.4 137.6,163.5 138.3,146.4 139.0,145.2 139.8,144.1 140.5,142.4 141.3,124.4 142.0,122.3 142.8,119.7 143.5,118.2 144.3,138.1 145.0,137.2 145.7,134.9 146.5,133.5 147.2,130.1 148.0,128.6 148.7,126.8 149.5,124.1 150.2,125.0 151.0,123.2 151.7,121.8 152.4,120.5 153.2,136.7 153.9,135.5 154.7,134.1 155.4,132.6 156.2,116.3 156.9,113.8 157.6,113.9 158.4,111.8 159.1,126.8 159.9,125.1 160.6,123.8 161.4,122.5 162.1,116.1 162.9,114.3 163.6,112.4 164.3,110.1 165.1,114.6 165.8,112.3 166.6,110.6 167.3,107.4 168.1,129.4 168.8,128.4 169.6,127.9 170.3,127.4 171.0,160.3 171.8,160.3 172.5,160.5 173.3,159.4 174.0,157.4 174.8,156.5 175.5,156.7 176.2,156.4 177.0,158.3 177.7,156.8 178.5,156.8 179.2,155.3 180.0,156.0 180.7,155.1 181.5,154.1 182.2,153.9 182.9,149.9 183.7,148.2 184.4,147.6 185.2,146.5 185.9,126.3 186.7,125.7 187.4,124.1 188.2,123.5 188.9,122.8 189.6,121.4 190.4,120.1 191.1,119.6 191.9,114.8 192.6,114.2 193.4,113.4 194.1,111.2 194.8,107.2 195.6,105.6 196.3,103.8 197.1,102.3 197.8,103.4 198.6,102.8 199.3,101.9 200.1,100.4 200.8,141.3 201.5,140.8 202.3,140.3 203.0,140.1 203.8,136.1 204.5,136.6 205.3,135.9 206.0,134.2 206.8,139.8 207.5,138.4 208.2,138.2 209.0,137.7 209.7,140.9 210.5,139.9 211.2,138.2 212.0,137.7 212.7,136.6 213.4,136.2 214.2,135.9 214.9,134.8 215.7,184.2 216.4,184.2 217.2,183.0 217.9,182.2 218.7,184.7 219.4,185.0 220.1,184.3 220.9,184.1 221.6,182.8 222.4,181.2 223.1,181.0 223.9,180.4 224.6,181.3 225.4,181.5 226.1,181.4 226.8,181.2 227.6,178.8 228.3,178.1 229.1,177.6 229.8,176.6 230.6,199.8 231.3,199.8 232.0,199.8 232.8,199.6 233.5,198.1 234.3,197.7 235.0,198.0 235.8,196.9 236.5,195.8 237.3,195.7 238.0,195.2 238.7,194.4 239.5,195.1 240.2,195.1 241.0,195.5 241.7,195.0 242.5,191.4 243.2,191.1 244.0,191.0 244.7,191.1 245.4,207.9 246.2,207.5 246.9,207.2 247.7,207.3 248.4,204.3 249.2,204.5 249.9,205.0 250.6,203.9 251.4,199.6 252.1,198.9 252.9,197.5 253.6,197.8 254.4,191.3 255.1,190.7 255.9,189.8 256.6,188.7 257.3,193.9 258.1,194.6 258.8,193.8 259.6,192.9 260.3,216.4 261.1,216.4 261.8,217.0 262.6,217.0 263.3,216.8 264.0,217.3 264.8,216.3 265.5,215.7 266.3,220.2 267.0,220.6 267.8,220.6 268.5,220.6 269.2,225.8 270.0,227.4 270.7,228.2 271.5,228.7 272.2,221.6 273.0,221.3 273.7,220.4 274.5,219.1 275.2,222.6 275.9,222.2 276.7,222.5 277.4,222.0 278.2,224.6 278.9,224.3 279.7,223.6 280.4,223.6 281.2,223.3 281.9,223.4 282.6,223.7 283.4,223.5 284.1,222.5 284.9,221.8 285.6,221.1 286.4,220.7 287.1,221.8 287.8,221.3 288.6,220.8 289.3,218.7 290.1,236.8 290.8,236.4 291.6,236.4 292.3,237.0 293.1,239.0 293.8,238.7 294.5,238.6 295.3,237.8 296.0,236.9 296.8,237.6 297.5,236.1 298.3,236.1 299.0,236.0 299.8,236.0 300.5,236.2 301.2,236.3 302.0,234.3 302.7,234.2 303.5,233.9 304.2,233.7 305.0,234.0 305.7,233.8 306.4,232.6 307.2,232.5 307.9,233.7 308.7,233.6 309.4,233.6 310.2,233.0 310.9,232.0 311.7,231.1 312.4,231.2 313.1,230.8 313.9,229.2 314.6,227.8 315.4,227.9 316.1,228.3 316.9,227.7 317.6,227.7 318.4,227.1 319.1,227.6 319.8,246.7 320.6,246.2 321.3,246.3 322.1,245.8 322.8,245.5 323.6,246.2 324.3,245.0 325.0,244.9 325.8,245.8 326.5,246.0 327.3,246.3 328.0,245.8 328.8,245.6 329.5,244.8 330.3,244.7 331.0,245.1 331.7,245.3 332.5,246.0 333.2,246.1 334.0,246.0 334.7,210.3 335.5,209.9 336.2,209.1 337.0,209.4 337.7,209.0 338.4,208.9 339.2,208.5 339.9,207.1 340.7,206.4 341.4,205.9 342.2,204.7 342.9,204.3 343.6,202.7 344.4,201.9 345.1,201.3 345.9,201.3 346.6,202.2 347.4,201.6 348.1,200.9 348.9,200.4 349.6,214.2 350.3,213.8 351.1,213.0 351.8,212.5 352.6,213.1 353.3,212.1 354.1,211.3 354.8,210.9 355.6,211.9 356.3,210.6 357.0,209.0 357.8,209.7 358.5,211.0 359.3,210.9 360.0,211.0 360.8,210.6 361.5,211.2 362.2,209.3 363.0,208.7 363.7,208.1 364.5,217.8 365.2,217.7 366.0,216.3 366.7,216.7 367.5,216.6 368.2,216.4 368.9,216.0 369.7,215.6 370.4,215.3 371.2,214.8 371.9,215.6 372.7,215.6 373.4,214.4 374.2,213.9 374.9,213.3 375.6,212.1 376.4,211.1 377.1,211.0 377.9,210.9 378.6,210.7 379.4,208.7 380.1,207.3 380.8,206.6 381.6,204.9 382.3,203.7 383.1,204.2 383.8,204.0 384.6,203.6 385.3,201.4 386.1,201.3 386.8,200.2 387.5,199.8 388.3,202.8 389.0,202.8 389.8,202.7 390.5,202.5 391.3,202.2 392.0,202.4 392.8,201.8 393.5,201.6 394.2,201.5 395.0,202.1 395.7,202.9 396.5,201.9 397.2,201.0 398.0,202.5 398.7,202.0 399.4,202.4 400.2,202.3 400.9,202.4 401.7,201.9 402.4,200.8 403.2,202.0 403.9,202.5 404.7,201.5 405.4,202.7 406.1,199.9 406.9,199.0 407.6,198.8 408.4,199.2 409.1,199.1 409.9,198.6 410.6,197.5 411.4,195.8 412.1,198.4 412.8,197.2 413.6,196.8 414.3,195.9 415.1,199.1 415.8,198.7 416.6,198.3 417.3,198.9 418.0,198.8 418.8,197.3 419.5,197.4 420.3,197.3 421.0,195.1 421.8,193.8 422.5,194.6 423.3,193.3 424.0,193.9 424.7,193.4 425.5,194.4 426.2,194.3 427.0,193.0 427.7,191.6 428.5,191.0 429.2,190.0 430.0,191.4 430.7,190.9 431.4,192.1 432.2,192.8 432.9,191.7 433.7,190.9 434.4,191.4 435.2,190.4 435.9,191.4 436.6,190.6 437.4,189.3 438.1,188.9 438.9,189.0 439.6,189.5 440.4,188.4 441.1,188.7 441.9,187.3 442.6,186.7 443.3,184.9 444.1,183.8 444.8,184.3 445.6,183.3 446.3,182.4 447.1,181.5 447.8,180.4 448.6,180.7 449.3,179.7 450.0,178.8 450.8,177.6 451.5,177.6 452.3,177.2 453.0,176.1 453.8,178.0 454.5,176.5 455.2,176.6 456.0,175.3 456.7,174.2 457.5,173.8 458.2,173.8 459.0,174.0 459.7,174.3 460.5,173.6 461.2,172.9 461.9,172.1 462.7,170.5 463.4,170.2 464.2,169.6 464.9,169.2 465.7,168.2 466.4,168.7 467.2,167.9 467.9,168.0 468.6,170.2 469.4,169.0 470.1,169.4 470.9,168.6 471.6,166.1 472.4,166.3 473.1,165.0 473.8,164.8 474.6,165.1 475.3,165.1 476.1,164.4 476.8,163.7 477.6,166.0 478.3,164.8 479.1,164.9 479.8,163.6 480.5,164.3 481.3,163.8 482.0,162.8 482.8,164.1 483.5,205.3 484.3,205.5 485.0,205.7 485.8,205.1 486.5,204.9 487.2,204.4 488.0,203.4 488.7,202.6 489.5,202.8 490.2,203.3 491.0,203.7 491.7,203.4 492.4,202.7 493.2,202.4 493.9,202.5 494.7,202.2 495.4,201.2 496.2,199.7 496.9,199.8 497.7,199.3 498.4,194.5 499.1,193.6 499.9,193.4 500.6,192.8 501.4,191.6 502.1,190.6 502.9,189.6 503.6,188.8 504.4,188.3 505.1,188.8 505.8,187.9 506.6,188.9 507.3,187.0 508.1,186.0 508.8,186.0 509.6,186.5 510.3,187.0 511.0,186.7 511.8,184.9 512.5,184.6 513.3,223.6 514.0,223.5 514.8,224.3 515.5,223.4 516.3,223.8 517.0,223.0 517.7,222.6 518.5,221.9 519.2,221.7 520.0,222.0 520.7,222.0 521.5,222.5 522.2,223.3 523.0,222.0 523.7,221.1 524.4,219.3 525.2,218.8 525.9,219.4 526.7,218.9 527.4,219.6 528.2,251.2 528.9,252.8 529.6,253.1 530.4,253.2 531.1,252.9 531.9,252.5 532.6,252.1 533.4,253.3 534.1,254.3 534.9,254.2 535.6,255.1 536.3,255.6 537.1,254.8 537.8,255.2 538.6,254.3 539.3,254.9 540.1,255.6 540.8,255.3 541.6,254.9 542.3,255.4 543.0,242.8 543.8,243.0 544.5,242.7 545.3,243.1 546.0,243.1 546.8,243.9 547.5,243.9 548.2,246.1 549.0,245.0 549.7,245.0 550.5,245.0 551.2,244.9 552.0,244.6 552.7,245.1 553.5,244.4 554.2,244.9 554.9,245.2 555.7,244.4 556.4,244.0 557.2,243.7 557.9,242.0 558.7,242.1 559.4,243.6 560.2,242.3 560.9,240.5 561.6,240.5 562.4,240.1 563.1,239.4 563.9,240.9 564.6,240.3 565.4,240.5 566.1,240.1 566.8,240.8 567.6,241.7 568.3,241.1 569.1,241.1 569.8,241.3 570.6,242.2 571.3,243.1 572.1,242.7 572.8,264.4 573.5,264.9 574.3,264.8 575.0,264.4 575.8,260.8 576.5,261.2 577.3,261.0 578.0,260.7 578.8,256.9 579.5,257.7 580.2,257.6 581.0,258.0 581.7,262.1 582.5,260.5 583.2,260.7 584.0,259.2 584.7,259.0 585.4,259.4 586.2,259.4 586.9,258.5 587.7,261.1 588.4,262.1 589.2,262.1 589.9,261.4 590.7,260.7 591.4,259.3 592.1,258.8 592.9,257.5 593.6,256.4 594.4,256.0 595.1,254.9 595.9,254.6 596.6,254.6 597.4,254.4 598.1,254.4 598.8,255.1 599.6,257.2 600.3,258.3 601.1,258.4 601.8,258.5 602.6,235.5 603.3,236.6 604.0,236.4 604.8,236.3 605.5,235.5 606.3,236.0 607.0,235.8 607.8,236.0 608.5,237.0 609.3,237.3 610.0,237.3 610.7,237.3 611.5,237.2 612.2,236.6 613.0,237.2 613.7,237.6 614.5,238.4 615.2,237.8 616.0,237.2 616.7,238.4 617.4,228.2 618.2,227.6 618.9,227.6 619.7,227.2 620.4,226.5 621.2,225.9 621.9,225.8 622.6,225.1 623.4,226.9 624.1,226.7 624.9,226.3 625.6,226.8 626.4,226.4 627.1,226.4 627.9,226.1 628.6,225.7 629.3,225.2 630.1,226.1 630.8,226.2 631.6,226.7 632.3,244.8 633.1,244.6 633.8,244.5 634.6,244.8 635.3,245.1 636.0,244.7 636.8,245.3 637.5,245.2 638.3,242.4 639.0,242.9 639.8,243.1 640.5,243.5 641.2,244.3 642.0,244.2 642.7,243.7 643.5,242.6 644.2,240.6 645.0,241.5 645.7,241.1 646.5,239.9 647.2,222.8 647.9,223.1 648.7,223.6 649.4,221.9 650.2,223.2 650.9,221.8 651.7,221.4 652.4,221.8 653.2,223.0 653.9,223.2 654.6,223.7 655.4,223.1 656.1,225.4 656.9,224.7 657.6,225.0 658.4,225.1 659.1,223.5 659.8,223.0 660.6,223.7 661.3,222.9 662.1,232.1 662.8,232.1 663.6,231.3 664.3,231.4 665.1,230.4 665.8,230.2 666.5,230.4 667.3,231.3 668.0,230.3 668.8,230.0 669.5,229.4 670.3,228.9 671.0,230.0 671.8,229.4 672.5,228.8 673.2,227.4 674.0,226.1 674.7,226.3 675.5,225.6 676.2,226.2 677.0,249.7 677.7,249.8 678.4,249.7 679.2,250.1 679.9,249.3 680.7,249.3 681.4,248.6 682.2,248.4 682.9,248.0 683.7,247.7 684.4,247.5 685.1,248.1 685.9,249.9 686.6,249.6 687.4,250.3 688.1,250.5 688.9,250.2 689.6,250.0 690.4,250.7 691.1,251.6 691.8,239.5 692.6,238.7 693.3,238.5 694.1,237.8 694.8,240.7 695.6,239.7 696.3,239.1 697.0,238.1 697.8,238.2 698.5,238.3 699.3,238.2 700.0,236.9 700.8,237.5 701.5,238.1 702.3,237.5 703.0,236.7 703.7,235.8 704.5,235.4 705.2,235.3 706.0,233.3 706.7,238.4 707.5,237.8 708.2,236.9 709.0,236.7 709.7,234.4 710.4,235.3 711.2,236.3 711.9,236.2 712.7,237.2 713.4,237.0 714.2,237.4 714.9,236.2 715.6,234.1 716.4,234.4 717.1,234.9 717.9,235.5 718.6,236.0 719.4,236.0 720.1,235.7 720.9,235.1 721.6,253.7 722.3,252.2 723.1,252.2 723.8,253.0 724.6,253.5 725.3,253.4 726.1,252.3 726.8,251.7 727.6,251.3 728.3,251.3 729.0,251.5 729.8,251.9 730.5,250.6 731.3,249.9 732.0,251.4 732.8,251.0 733.5,249.6 734.2,248.7 735.0,248.5 735.7,248.6 736.5,245.5 737.2,246.1 738.0,246.1 738.7,246.7 739.5,243.3 740.2,242.1 740.9,241.9 741.7,241.1 742.4,242.8 743.2,242.9 743.9,244.0 744.7,243.2 745.4,241.7 746.2,243.1 746.9,242.8 747.6,241.7 748.4,240.3 749.1,239.4 749.9,238.5 750.6,238.1 751.4,242.4 752.1,242.2 752.8,242.5 753.6,241.5 754.3,241.4 755.1,241.6 755.8,241.3 756.6,242.1 757.3,242.8 758.1,242.5 758.8,242.1 759.5,241.7 760.3,238.2 761.0,237.9 761.8,237.8 762.5,237.5 763.3,236.2 764.0,235.7 764.8,235.4 765.5,234.6 766.2,239.3 767.0,239.0 767.7,238.9 768.5,238.7 769.2,239.0 770.0,239.5 770.7,240.8 771.4,240.7 772.2,238.2 772.9,238.1 773.7,237.7 774.4,237.9 775.2,237.2 775.9,236.3 776.7,236.2 777.4,236.3 778.1,240.0 778.9,239.6 779.6,239.1 780.4,239.6 781.1,255.4 781.9,255.5 782.6,255.7 783.4,255.2 784.1,256.8 784.8,255.6 785.6,255.1 786.3,256.2 787.1,250.1 787.8,249.6 788.6,249.3 789.3,248.4 790.0,249.4 790.8,249.4 791.5,249.5 792.3,250.1 793.0,256.0 793.8,256.7 794.5,256.0 795.3,255.3 796.0,274.0"/>
<text x="640" y="56" font-family="Arial" font-size="12" fill="#0f766e">linear_nominal velocity error</text>
</svg>