<svg xmlns="http://www.w3.org/2000/svg" width="820" height="320" viewBox="0 0 820 320">
<rect width="100%" height="100%" fill="white"/>
<text x="52" y="30" font-family="Arial" font-size="18" font-weight="700">ukf_nominal velocity error</text>
<line x1="52" y1="274" x2="796" y2="274" stroke="#263238"/>
<line x1="52" y1="42" x2="52" y2="274" stroke="#263238"/>
<text x="52" y="306" font-family="Arial" font-size="12">time (s)</text>
<text x="630" y="306" font-family="Arial" font-size="12">m/s</text>

<rect x="379.4" y="42" width="89.3" height="232" fill="#fef3c7" opacity="0.72"/>
<polyline fill="none" stroke="#0f766e" stroke-width="2.3" points="52.0,213.6 52.7,213.3 53.5,212.4 54.2,212.2 55.0,150.7 55.7,150.9 56.5,150.4 57.2,150.2 58.0,102.5 58.7,102.3 59.4,102.1 60.2,101.6 60.9,204.9 61.7,204.8 62.4,204.9 63.2,204.9 63.9,42.2 64.6,42.1 65.4,42.4 66.1,42.0 66.9,58.6 67.6,59.5 68.4,59.9 69.1,60.0 69.9,79.7 70.6,79.4 71.3,79.5 72.1,79.8 72.8,125.9 73.6,126.2 74.3,126.9 75.1,127.9 75.8,146.2 76.6,146.7 77.3,146.7 78.0,146.3 78.8,133.2 79.5,133.2 80.3,133.0 81.0,132.5 81.8,153.5 82.5,151.4 83.2,148.9 84.0,146.7 84.7,193.4 85.5,191.8 86.2,190.8 87.0,189.5 87.7,176.3 88.5,174.5 89.2,172.8 89.9,171.1 90.7,218.8 91.4,217.8 92.2,216.6 92.9,216.0 93.7,241.8 94.4,241.2 95.2,240.8 95.9,240.3 96.6,251.2 97.4,251.4 98.1,251.5 98.9,251.0 99.6,259.0 100.4,258.8 101.1,257.2 101.8,255.9 102.6,252.4 103.3,252.3 104.1,251.8 104.8,251.6 105.6,255.1 106.3,254.4 107.1,253.7 107.8,253.3 108.5,235.0 109.3,233.8 110.0,232.8 110.8,231.4 111.5,167.7 112.3,165.4 113.0,162.8 113.8,160.8 114.5,177.2 115.2,175.8 116.0,174.4 116.7,172.9 117.5,167.0 118.2,165.3 119.0,163.6 119.7,161.4 120.4,159.4 121.2,158.0 121.9,156.1 122.7,154.6 123.4,157.8 124.2,156.8 124.9,155.1 125.7,153.6 126.4,192.0 127.1,190.4 127.9,188.5 128.6,187.3 129.4,201.8 130.1,200.8 130.9,199.7 131.6,198.6 132.4,195.3 133.1,194.3 133.8,193.1 134.6,192.1 135.3,208.7 136.1,207.5 136.8,206.8 137.6,206.6 138.3,193.1 139.0,192.4 139.8,191.6 140.5,190.8 141.3,147.4 142.0,145.7 142.8,144.0 143.5,142.5 144.3,146.5 145.0,145.1 145.7,143.3 146.5,141.4 147.2,138.7 148.0,137.0 148.7,135.5 149.5,133.5 150.2,131.2 151.0,129.8 151.7,128.5 152.4,127.0 153.2,127.6 153.9,126.3 154.7,124.5 155.4,122.9 156.2,204.0 156.9,203.0 157.6,202.6 158.4,201.6 159.1,201.4 159.9,200.7 160.6,200.0 161.4,198.9 162.1,196.4 162.9,195.9 163.6,194.4 164.3,193.6 165.1,192.6 165.8,191.9 166.6,190.5 167.3,189.2 168.1,189.4 168.8,188.4 169.6,187.4 170.3,186.2 171.0,223.9 171.8,223.9 172.5,223.6 173.3,223.2 174.0,221.7 174.8,221.2 175.5,220.9 176.2,220.7 177.0,221.9 177.7,221.4 178.5,221.3 179.2,220.3 180.0,220.6 180.7,220.2 181.5,219.7 182.2,219.6 182.9,216.9 183.7,216.0 184.4,215.7 185.2,215.3 185.9,234.3 186.7,234.2 187.4,234.0 188.2,233.7 188.9,233.3 189.6,232.7 190.4,232.7 191.1,232.5 191.9,227.7 192.6,227.5 193.4,227.6 194.1,227.1 194.8,222.4 195.6,222.1 196.3,221.7 197.1,221.1 197.8,223.8 198.6,224.1 199.3,223.4 200.1,223.1 200.8,228.6 201.5,228.0 202.3,227.3 203.0,226.8 203.8,222.6 204.5,221.3 205.3,220.4 206.0,220.0 206.8,225.5 207.5,225.3 208.2,224.7 209.0,224.0 209.7,224.2 210.5,223.8 211.2,223.6 212.0,223.2 212.7,222.8 213.4,222.1 214.2,221.3 214.9,221.0 215.7,218.9 216.4,218.3 217.2,218.1 217.9,217.8 218.7,217.5 219.4,216.7 220.1,216.3 220.9,215.8 221.6,214.6 222.4,214.5 223.1,214.2 223.9,213.7 224.6,213.0 225.4,212.4 226.1,211.5 226.8,211.0 227.6,209.4 228.3,209.1 229.1,208.5 229.8,208.0 230.6,201.9 231.3,201.0 232.0,200.4 232.8,200.2 233.5,198.0 234.3,197.6 235.0,197.5 235.8,197.5 236.5,196.7 237.3,196.1 238.0,195.5 238.7,194.7 239.5,194.5 240.2,193.9 241.0,193.1 241.7,192.4 242.5,191.3 243.2,190.5 244.0,190.0 244.7,189.5 245.4,207.4 246.2,207.2 246.9,206.3 247.7,206.1 248.4,204.8 249.2,203.8 249.9,202.9 250.6,202.4 251.4,200.4 252.1,199.7 252.9,199.5 253.6,198.9 254.4,196.5 255.1,195.8 255.9,195.3 256.6,194.8 257.3,196.2 258.1,195.6 258.8,195.7 259.6,196.1 260.3,216.4 261.1,216.2 261.8,215.8 262.6,216.2 263.3,216.4 264.0,216.1 264.8,215.9 265.5,215.8 266.3,217.5 267.0,216.8 267.8,216.5 268.5,216.2 269.2,217.8 270.0,217.0 270.7,216.2 271.5,215.7 272.2,213.2 273.0,213.1 273.7,212.3 274.5,212.1 275.2,240.1 275.9,240.0 276.7,239.8 277.4,239.4 278.2,241.0 278.9,240.8 279.7,240.5 280.4,239.8 281.2,240.4 281.9,240.2 282.6,239.6 283.4,239.1 284.1,237.6 284.9,237.7 285.6,237.4 286.4,237.2 287.1,237.2 287.8,237.1 288.6,236.9 289.3,237.1 290.1,250.9 290.8,250.7 291.6,250.7 292.3,251.4 293.1,254.4 293.8,254.0 294.5,254.0 295.3,253.4 296.0,253.1 296.8,253.5 297.5,253.1 298.3,252.9 299.0,252.8 299.8,252.8 300.5,253.2 301.2,252.7 302.0,251.9 302.7,252.3 303.5,252.3 304.2,252.7 305.0,231.8 305.7,231.2 306.4,230.6 307.2,230.1 307.9,230.7 308.7,230.5 309.4,230.6 310.2,229.9 310.9,229.6 311.7,228.9 312.4,228.5 313.1,228.6 313.9,228.2 314.6,227.9 315.4,227.6 316.1,227.6 316.9,227.3 317.6,227.3 318.4,227.3 319.1,227.4 319.8,244.9 320.6,244.9 321.3,244.9 322.1,244.9 322.8,244.6 323.6,244.1 324.3,243.8 325.0,244.0 325.8,244.0 326.5,244.4 327.3,243.8 328.0,243.5 328.8,243.3 329.5,243.0 330.3,243.1 331.0,242.6 331.7,242.3 332.5,242.7 333.2,242.3 334.0,242.4 334.7,246.5 335.5,246.3 336.2,245.6 337.0,245.8 337.7,245.8 338.4,245.6 339.2,245.1 339.9,244.7 340.7,244.2 341.4,244.4 342.2,244.3 342.9,244.4 343.6,243.8 344.4,243.5 345.1,243.0 345.9,242.8 346.6,243.2 347.4,242.9 348.1,242.8 348.9,242.7 349.6,255.1 350.3,254.3 351.1,254.4 351.8,254.1 352.6,254.1 353.3,253.6 354.1,254.0 354.8,254.3 355.6,254.1 356.3,253.4 357.0,252.8 357.8,253.2 358.5,253.7 359.3,253.7 360.0,253.5 360.8,253.3 361.5,252.8 362.2,252.7 363.0,252.8 363.7,252.7 364.5,258.0 365.2,258.3 366.0,258.5 366.7,257.8 367.5,258.0 368.2,258.1 368.9,257.8 369.7,257.6 370.4,261.0 371.2,261.3 371.9,261.4 372.7,261.3 373.4,258.1 374.2,258.2 374.9,258.3 375.6,258.5 376.4,255.7 377.1,255.8 377.9,255.7 378.6,255.9 379.4,253.3 380.1,253.3 380.8,253.4 381.6,253.1 382.3,253.1 383.1,253.4 383.8,253.0 384.6,252.7 385.3,251.0 386.1,251.1 386.8,251.0 387.5,251.4 388.3,255.3 389.0,254.8 389.8,255.1 390.5,255.0 391.3,256.1 392.0,256.2 392.8,256.2 393.5,256.2 394.2,255.9 395.0,256.0 395.7,255.4 396.5,255.6 397.2,257.0 398.0,256.7 398.7,256.2 399.4,256.1 400.2,256.7 400.9,256.4 401.7,255.9 402.4,256.0 403.2,256.4 403.9,255.5 404.7,255.8 405.4,255.4 406.1,252.0 406.9,251.9 407.6,252.0 408.4,251.8 409.1,253.2 409.9,252.7 410.6,252.9 411.4,253.0 412.1,256.5 412.8,256.5 413.6,256.3 414.3,255.7 415.1,260.3 415.8,260.1 416.6,260.3 417.3,260.4 418.0,261.9 418.8,261.9 419.5,262.4 420.3,262.2 421.0,261.4 421.8,261.2 422.5,260.7 423.3,260.8 424.0,251.9 424.7,252.0 425.5,251.4 426.2,251.1 427.0,250.0 427.7,249.7 428.5,249.5 429.2,249.5 430.0,250.6 430.7,250.2 431.4,249.9 432.2,249.7 432.9,249.3 433.7,248.8 434.4,248.9 435.2,249.2 435.9,249.7 436.6,249.5 437.4,249.4 438.1,249.5 438.9,259.4 439.6,259.0 440.4,259.3 441.1,258.9 441.9,257.8 442.6,257.5 443.3,258.1 444.1,258.6 444.8,260.1 445.6,260.5 446.3,260.9 447.1,261.2 447.8,259.8 448.6,259.4 449.3,259.7 450.0,260.1 450.8,260.5 451.5,260.0 452.3,260.0 453.0,259.8 453.8,270.9 454.5,270.2 455.2,270.2 456.0,269.6 456.7,266.6 457.5,267.2 458.2,267.2 459.0,267.4 459.7,266.6 460.5,266.4 461.2,265.8 461.9,265.6 462.7,263.7 463.4,264.0 464.2,263.8 464.9,263.5 465.7,262.0 466.4,262.6 467.2,262.3 467.9,262.2 468.6,267.2 469.4,267.5 470.1,267.3 470.9,267.1 471.6,263.2 472.4,263.6 473.1,263.3 473.8,263.6 474.6,265.0 475.3,265.1 476.1,264.3 476.8,263.6 477.6,267.4 478.3,267.6 479.1,267.4 479.8,267.4 480.5,270.7 481.3,270.9 482.0,270.8 482.8,270.8 483.5,272.6 484.3,273.0 485.0,273.1 485.8,272.7 486.5,272.5 487.2,272.6 488.0,272.3 488.7,272.0 489.5,273.5 490.2,273.7 491.0,273.8 491.7,274.0 492.4,273.8 493.2,273.5 493.9,273.4 494.7,273.5 495.4,273.3 496.2,272.7 496.9,272.9 497.7,272.6 498.4,258.1 499.1,257.9 499.9,258.0 500.6,257.7 501.4,257.6 502.1,257.3 502.9,256.8 503.6,256.6 504.4,257.0 505.1,257.2 505.8,257.0 506.6,257.4 507.3,257.2 508.1,256.7 508.8,256.6 509.6,257.0 510.3,257.0 511.0,256.9 511.8,256.2 512.5,255.9 513.3,250.0 514.0,250.0 514.8,250.3 515.5,250.3 516.3,250.3 517.0,250.3 517.7,250.2 518.5,250.1 519.2,249.9 520.0,250.1 520.7,250.0 521.5,250.4 522.2,250.9 523.0,250.3 523.7,250.2 524.4,250.2 525.2,249.7 525.9,249.9 526.7,249.6 527.4,249.4 528.2,263.5 528.9,264.3 529.6,264.4 530.4,264.6 531.1,264.5 531.9,264.2 532.6,264.2 533.4,264.8 534.1,265.0 534.9,265.0 535.6,265.3 536.3,265.4 537.1,263.3 537.8,263.4 538.6,263.0 539.3,263.1 540.1,263.9 540.8,263.6 541.6,263.4 542.3,263.7 543.0,262.8 543.8,262.7 544.5,262.7 545.3,262.4 546.0,261.0 546.8,260.7 547.5,260.8 548.2,260.0 549.0,259.3 549.7,259.6 550.5,259.7 551.2,259.7 552.0,261.7 552.7,261.3 553.5,261.5 554.2,261.2 554.9,260.7 555.7,260.9 556.4,260.9 557.2,261.1 557.9,248.8 558.7,248.7 559.4,247.9 560.2,248.4 560.9,247.9 561.6,248.1 562.4,248.3 563.1,248.7 563.9,249.7 564.6,249.8 565.4,249.6 566.1,249.5 566.8,249.2 567.6,248.8 568.3,248.9 569.1,248.6 569.8,248.1 570.6,247.5 571.3,246.6 572.1,247.0 572.8,251.0 573.5,250.3 574.3,250.2 575.0,249.9 575.8,248.9 576.5,248.8 577.3,248.9 578.0,249.4 578.8,248.5 579.5,248.4 580.2,248.9 581.0,249.0 581.7,249.7 582.5,250.0 583.2,249.8 584.0,250.2 584.7,250.3 585.4,250.2 586.2,250.8 586.9,250.9 587.7,260.4 588.4,260.4 589.2,260.7 589.9,260.8 590.7,260.4 591.4,260.5 592.1,260.4 592.9,260.2 593.6,259.9 594.4,259.8 595.1,260.1 595.9,260.3 596.6,260.0 597.4,259.9 598.1,259.4 598.8,259.4 599.6,259.3 600.3,259.4 601.1,259.4 601.8,259.0 602.6,252.7 603.3,252.5 604.0,252.1 604.8,252.4 605.5,253.5 606.3,253.7 607.0,253.5 607.8,253.1 608.5,251.2 609.3,251.4 610.0,251.4 610.7,251.7 611.5,252.1 612.2,251.6 613.0,251.7 613.7,251.0 614.5,250.9 615.2,250.8 616.0,250.8 616.7,250.9 617.4,250.3 618.2,249.8 618.9,249.1 619.7,249.0 620.4,248.7 621.2,248.5 621.9,248.3 622.6,248.5 623.4,249.6 624.1,249.4 624.9,249.4 625.6,249.4 626.4,248.9 627.1,248.8 627.9,249.0 628.6,249.0 629.3,248.9 630.1,248.1 630.8,247.8 631.6,248.3 632.3,255.0 633.1,254.9 633.8,254.9 634.6,254.5 635.3,254.2 636.0,254.0 636.8,254.0 637.5,253.8 638.3,253.5 639.0,253.7 639.8,254.1 640.5,253.8 641.2,253.6 642.0,253.5 642.7,253.5 643.5,253.6 644.2,252.8 645.0,252.7 645.7,252.7 646.5,253.1 647.2,245.6 647.9,245.7 648.7,245.8 649.4,245.7 650.2,246.0 650.9,245.5 651.7,245.7 652.4,245.5 653.2,245.9 653.9,245.1 654.6,245.4 655.4,245.1 656.1,245.3 656.9,245.3 657.6,245.5 658.4,245.8 659.1,244.8 659.8,244.9 660.6,244.7 661.3,244.6 662.1,248.6 662.8,248.2 663.6,247.9 664.3,248.1 665.1,247.8 665.8,247.5 666.5,247.1 667.3,247.5 668.0,246.6 668.8,246.6 669.5,246.7 670.3,246.2 671.0,246.5 671.8,246.5 672.5,246.5 673.2,245.6 674.0,245.1 674.7,245.0 675.5,244.4 676.2,244.3 677.0,249.0 677.7,249.0 678.4,249.3 679.2,249.8 679.9,252.4 680.7,252.4 681.4,251.9 682.2,251.5 682.9,252.1 683.7,251.7 684.4,251.5 685.1,250.8 685.9,250.4 686.6,250.0 687.4,249.8 688.1,249.6 688.9,250.1 689.6,249.7 690.4,250.0 691.1,250.5 691.8,249.0 692.6,248.9 693.3,248.7 694.1,248.4 694.8,247.9 695.6,247.5 696.3,247.3 697.0,246.8 697.8,247.3 698.5,247.1 699.3,246.9 700.0,246.2 700.8,245.6 701.5,245.9 702.3,245.7 703.0,245.3 703.7,244.2 704.5,244.0 705.2,243.9 706.0,243.2 706.7,248.1 707.5,247.6 708.2,247.3 709.0,247.4 709.7,244.9 710.4,245.2 711.2,245.3 711.9,245.4 712.7,246.8 713.4,246.7 714.2,246.7 714.9,246.4 715.6,245.5 716.4,245.5 717.1,245.8 717.9,246.0 718.6,246.3 719.4,246.2 720.1,246.1 720.9,246.1 721.6,260.8 722.3,260.2 723.1,260.1 723.8,260.4 724.6,261.4 725.3,261.6 726.1,261.1 726.8,260.9 727.6,262.2 728.3,262.3 729.0,262.5 729.8,262.6 730.5,260.9 731.3,260.6 732.0,261.3 732.8,261.1 733.5,258.9 734.2,258.4 735.0,258.5 735.7,258.5 736.5,260.9 737.2,261.3 738.0,261.1 738.7,261.4 739.5,258.8 740.2,258.4 740.9,258.1 741.7,257.8 742.4,260.3 743.2,260.2 743.9,260.6 744.7,260.4 745.4,259.0 746.2,259.7 746.9,259.4 747.6,259.0 748.4,258.1 749.1,257.8 749.9,257.5 750.6,257.4 751.4,261.2 752.1,261.3 752.8,261.3 753.6,261.2 754.3,264.2 755.1,264.1 755.8,264.0 756.6,264.7 757.3,264.4 758.1,264.7 758.8,264.9 759.5,264.7 760.3,263.0 761.0,262.6 761.8,262.4 762.5,262.4 763.3,261.2 764.0,261.2 764.8,261.1 765.5,260.2 766.2,253.1 767.0,253.0 767.7,252.7 768.5,253.0 769.2,253.1 770.0,253.5 770.7,253.5 771.4,253.4 772.2,251.4 772.9,251.2 773.7,250.9 774.4,250.9 775.2,250.6 775.9,250.4 776.7,250.5 777.4,250.4 778.1,253.3 778.9,253.7 779.6,253.7 780.4,254.2 781.1,248.7 781.9,249.0 782.6,248.9 783.4,248.7 784.1,249.6 784.8,249.8 785.6,249.9 786.3,250.4 787.1,248.2 787.8,247.7 788.6,247.9 789.3,248.0 790.0,248.4 790.8,248.2 791.5,247.9 792.3,248.2 793.0,250.6 793.8,250.6 794.5,250.0 795.3,249.9 796.0,255.2"/>
<text x="640" y="56" font-family="Arial" font-size="12" fill="#0f766e">ukf_nominal velocity error</text>
</svg>