<svg xmlns="http://www.w3.org/2000/svg" width="760" height="280" viewBox="0 0 760 280">
<rect width="100%" height="100%" fill="white"/>
<text x="45" y="28" font-family="Arial" font-size="18" font-weight="700">Aggressive Covariance Trace</text>
<line x1="45" y1="235" x2="715" y2="235" stroke="#222"/>
<line x1="45" y1="45" x2="45" y2="235" stroke="#222"/>
<polyline fill="none" stroke="#0f766e" stroke-width="2.5" points="45.0,185.8 45.6,185.0 46.1,182.7 46.7,179.2 47.2,178.4 47.8,173.7 48.3,168.2 48.9,162.0 49.5,158.2 50.0,151.4 50.6,144.2 51.1,136.7 51.7,130.4 52.3,122.5 52.8,114.3 53.4,106.0 53.9,98.3 54.5,89.7 55.0,81.0 55.6,72.2 56.2,158.5 56.7,153.1 57.3,147.6 57.8,142.0 58.4,136.8 59.0,131.0 59.5,125.1 60.1,119.2 60.6,113.5 61.2,107.4 61.7,101.3 62.3,95.2 62.9,89.2 63.4,83.0 64.0,76.7 64.5,70.4 65.1,64.2 65.7,57.8 66.2,51.4 66.8,45.0 67.3,153.9 67.9,150.4 68.4,146.8 69.0,143.2 69.6,139.8 70.1,136.2 70.7,132.5 71.2,128.7 71.8,125.2 72.4,121.4 72.9,117.6 73.5,113.7 74.0,110.0 74.6,106.1 75.1,102.2 75.7,98.2 76.3,94.4 76.8,90.4 77.4,86.4 77.9,82.3 78.5,161.2 79.1,158.7 79.6,156.2 80.2,153.6 80.7,151.2 81.3,148.6 81.8,146.0 82.4,143.3 83.0,140.8 83.5,138.0 84.1,135.3 84.6,132.4 85.2,129.8 85.8,126.9 86.3,124.1 86.9,121.1 87.4,118.3 88.0,115.4 88.5,112.4 89.1,109.3 89.7,168.2 90.2,166.1 90.8,164.0 91.3,161.9 91.9,159.9 92.5,157.7 93.0,155.5 93.6,153.2 94.1,151.1 94.7,148.7 95.2,146.3 95.8,143.9 96.4,141.6 96.9,139.1 97.5,136.5 98.0,134.0 98.6,131.5 99.2,128.8 99.7,126.1 100.3,123.4 100.8,172.6 101.4,170.6 101.9,168.6 102.5,166.5 103.1,164.6 103.6,162.5 104.2,160.3 104.7,158.1 105.3,156.0 105.9,153.7 106.4,151.3 107.0,148.9 107.5,146.6 108.1,144.1 108.6,141.5 109.2,139.0 109.8,136.5 110.3,133.8 110.9,131.1 111.4,128.3 112.0,174.2 112.6,172.2 113.1,170.1 113.7,168.0 114.2,166.0 114.8,163.8 115.3,161.5 115.9,159.2 116.5,157.0 117.0,154.6 117.6,152.2 118.1,149.7 118.7,147.3 119.3,144.7 119.8,142.1 120.4,139.4 120.9,136.8 121.5,134.0 122.0,131.2 122.6,128.4 123.2,174.2 123.7,172.1 124.3,170.0 124.8,167.8 125.4,165.7 126.0,163.5 126.5,161.2 127.1,158.8 127.6,156.5 128.2,154.1 128.7,151.6 129.3,149.1 129.9,146.6 130.4,144.0 131.0,141.4 131.5,138.7 132.1,136.1 132.7,133.3 133.2,130.5 133.8,127.6 134.3,173.9 134.9,171.9 135.4,169.8 136.0,167.6 136.6,165.5 137.1,163.3 137.7,161.1 138.2,158.8 138.8,156.5 139.4,154.1 139.9,151.7 140.5,149.3 141.0,146.8 141.6,144.3 142.1,141.8 142.7,139.2 143.3,136.6 143.8,133.9 144.4,131.2 144.9,128.5 145.5,174.3 146.1,172.3 146.6,170.3 147.2,168.2 147.7,166.2 148.3,164.1 148.8,162.0 149.4,159.8 150.0,157.6 150.5,155.4 151.1,153.1 151.6,150.8 152.2,148.5 152.8,146.1 153.3,143.7 153.9,141.3 154.4,138.9 155.0,136.4 155.5,133.8 156.1,131.3 156.7,175.3 157.2,173.5 157.8,171.6 158.3,169.7 158.9,167.8 159.5,165.8 160.0,163.8 160.6,161.8 161.1,159.8 161.7,157.7 162.2,155.6 162.8,153.5 163.4,151.4 163.9,149.2 164.5,147.0 165.0,144.7 165.6,142.5 166.2,140.2 166.7,137.9 167.3,135.5 167.8,176.9 168.4,175.2 168.9,173.5 169.5,171.7 170.1,170.0 170.6,168.2 171.2,166.3 171.7,164.5 172.3,162.6 172.9,160.7 173.4,158.8 174.0,156.9 174.5,154.9 175.1,152.9 175.6,150.9 176.2,148.9 176.8,146.8 177.3,144.8 177.9,142.7 178.4,140.5 179.0,178.9 179.6,177.3 180.1,175.7 180.7,174.1 181.2,172.5 181.8,170.9 182.3,169.2 182.9,167.5 183.5,165.8 184.0,164.1 184.6,162.3 185.1,160.5 185.7,158.8 186.3,157.0 186.8,155.1 187.4,153.3 187.9,151.4 188.5,149.6 189.0,147.7 189.6,145.7 190.2,181.0 190.7,179.6 191.3,178.1 191.8,176.6 192.4,175.2 193.0,173.7 193.5,172.1 194.1,170.6 194.6,169.0 195.2,167.5 195.7,165.9 196.3,164.3 196.9,162.7 197.4,161.0 198.0,159.3 198.5,157.7 199.1,156.0 199.7,154.3 200.2,152.6 200.8,150.8 201.3,183.2 201.9,181.9 202.4,180.6 203.0,179.2 203.6,177.9 204.1,176.5 204.7,175.1 205.2,173.7 205.8,172.3 206.4,170.8 206.9,169.4 207.5,167.9 208.0,166.4 208.6,164.9 209.1,163.4 209.7,161.9 210.3,160.4 210.8,158.8 211.4,157.3 211.9,155.7 212.5,185.4 213.1,184.2 213.6,183.0 214.2,181.7 214.7,180.5 215.3,179.2 215.8,177.9 216.4,176.6 217.0,175.3 217.5,174.0 218.1,172.7 218.6,171.3 219.2,170.0 219.8,168.6 220.3,167.3 220.9,165.9 221.4,164.5 222.0,163.1 222.5,161.6 223.1,160.2 223.7,187.6 224.2,186.4 224.8,185.3 225.3,184.1 225.9,183.0 226.5,181.8 227.0,180.6 227.6,179.5 228.1,178.3 228.7,177.1 229.2,175.8 229.8,174.6 230.4,173.4 230.9,172.1 231.5,170.9 232.0,169.6 232.6,168.3 233.2,167.0 233.7,165.7 234.3,164.4 234.8,189.6 235.4,188.6 235.9,187.5 236.5,186.5 237.1,185.4 237.6,184.3 238.2,183.2 238.7,182.1 239.3,181.0 239.9,179.9 240.4,178.8 241.0,177.6 241.5,176.5 242.1,175.4 242.6,174.2 243.2,173.0 243.8,171.9 244.3,170.7 244.9,169.5 245.4,168.3 246.0,191.6 246.6,190.6 247.1,189.6 247.7,188.6 248.2,187.7 248.8,186.7 249.3,185.7 249.9,184.6 250.5,183.6 251.0,182.6 251.6,181.5 252.1,180.5 252.7,179.5 253.3,178.4 253.8,177.3 254.4,176.2 254.9,175.2 255.5,174.1 256.0,173.0 256.6,171.8 257.2,193.5 257.7,192.6 258.3,191.6 258.8,190.7 259.4,189.8 260.0,188.9 260.5,187.9 261.1,187.0 261.6,186.1 262.2,185.1 262.7,184.1 263.3,183.1 263.9,182.2 264.4,181.2 265.0,180.2 265.5,179.2 266.1,178.2 266.7,177.2 267.2,176.2 267.8,175.1 268.3,195.2 268.9,194.4 269.4,193.5 270.0,192.7 270.6,191.8 271.1,191.0 271.7,190.1 272.2,189.2 272.8,188.3 273.4,187.4 273.9,186.5 274.5,185.6 275.0,184.7 275.6,183.8 276.1,182.9 276.7,181.9 277.3,181.0 277.8,180.1 278.4,179.1 278.9,178.2 279.5,196.9 280.1,196.1 280.6,195.3 281.2,194.5 281.7,193.8 282.3,192.9 282.8,192.1 283.4,191.3 284.0,190.5 284.5,189.6 285.1,188.8 285.6,187.9 286.2,187.1 286.8,186.2 287.3,185.4 287.9,184.5 288.4,183.7 289.0,182.8 289.5,181.9 290.1,181.0 290.7,198.5 291.2,197.8 291.8,197.0 292.3,196.3 292.9,195.6 293.5,194.8 294.0,194.0 294.6,193.2 295.1,192.5 295.7,191.7 296.2,190.9 296.8,190.1 297.4,189.3 297.9,188.5 298.5,187.7 299.0,186.9 299.6,186.1 300.2,185.3 300.7,184.4 301.3,183.6 301.8,200.1 302.4,199.4 302.9,198.7 303.5,198.0 304.1,197.3 304.6,196.5 305.2,195.8 305.7,195.1 306.3,194.4 306.9,193.6 307.4,192.9 308.0,192.1 308.5,191.4 309.1,190.6 309.6,189.9 310.2,189.1 310.8,188.4 311.3,187.6 311.9,186.8 312.4,186.0 313.0,201.5 313.6,200.9 314.1,200.2 314.7,199.5 315.2,198.9 315.8,198.2 316.3,197.5 316.9,196.8 317.5,196.1 318.0,195.4 318.6,194.7 319.1,194.0 319.7,193.3 320.3,192.6 320.8,191.9 321.4,191.2 321.9,190.5 322.5,189.8 323.0,189.0 323.6,188.3 324.2,202.9 324.7,202.3 325.3,201.6 325.8,201.0 326.4,200.4 327.0,199.7 327.5,199.1 328.1,198.4 328.6,197.8 329.2,197.2 329.7,196.5 330.3,195.8 330.9,195.2 331.4,194.5 332.0,193.8 332.5,193.1 333.1,192.5 333.7,191.8 334.2,191.1 334.8,190.4 335.3,204.2 335.9,203.6 336.4,203.0 337.0,202.4 337.6,201.8 338.1,201.2 338.7,200.6 339.2,200.0 339.8,199.4 340.4,198.8 340.9,198.1 341.5,197.5 342.0,196.9 342.6,196.3 343.1,195.6 343.7,195.0 344.3,194.3 344.8,193.7 345.4,193.0 345.9,192.4 346.5,205.5 347.1,204.9 347.6,204.3 348.2,203.8 348.7,203.2 349.3,202.6 349.8,202.0 350.4,201.5 351.0,200.9 351.5,200.3 352.1,199.7 352.6,199.1 353.2,198.5 353.8,197.9 354.3,197.3 354.9,196.7 355.4,196.1 356.0,195.5 356.5,194.9 357.1,194.2 357.7,193.6 358.2,193.0 358.8,192.4 359.3,191.7 359.9,191.1 360.5,190.5 361.0,189.8 361.6,189.2 362.1,188.6 362.7,187.9 363.2,187.3 363.8,186.6 364.4,186.0 364.9,185.3 365.5,184.6 366.0,184.0 366.6,183.3 367.2,182.6 367.7,182.0 368.3,181.3 368.8,180.6 369.4,179.9 369.9,179.2 370.5,178.5 371.1,177.9 371.6,177.2 372.2,176.5 372.7,175.8 373.3,175.1 373.9,174.4 374.4,173.7 375.0,172.9 375.5,172.2 376.1,171.5 376.6,170.8 377.2,170.1 377.8,169.4 378.3,168.6 378.9,167.9 379.4,167.2 380.0,166.5 380.6,165.7 381.1,165.0 381.7,164.2 382.2,163.5 382.8,162.7 383.3,162.0 383.9,161.2 384.5,160.5 385.0,159.7 385.6,159.0 386.1,158.2 386.7,157.5 387.3,156.7 387.8,155.9 388.4,155.1 388.9,154.4 389.5,153.6 390.0,152.8 390.6,152.0 391.2,151.2 391.7,150.4 392.3,149.6 392.8,148.9 393.4,148.1 394.0,147.3 394.5,146.5 395.1,145.6 395.6,144.9 396.2,144.0 396.7,143.2 397.3,142.4 397.9,141.6 398.4,140.8 399.0,140.0 399.5,139.1 400.1,138.3 400.7,137.5 401.2,136.6 401.8,135.8 402.3,135.0 402.9,134.1 403.4,133.3 404.0,132.4 404.6,131.6 405.1,130.7 405.7,129.9 406.2,129.0 406.8,128.2 407.4,127.3 407.9,126.5 408.5,125.6 409.0,124.7 409.6,123.9 410.1,123.0 410.7,122.1 411.3,121.2 411.8,120.3 412.4,119.5 412.9,118.6 413.5,117.7 414.1,116.8 414.6,115.9 415.2,115.0 415.7,114.1 416.3,113.2 416.8,112.3 417.4,111.4 418.0,110.5 418.5,109.6 419.1,108.7 419.6,107.8 420.2,106.9 420.8,105.9 421.3,105.0 421.9,104.1 422.4,103.2 423.0,102.2 423.5,101.3 424.1,100.4 424.7,99.4 425.2,98.5 425.8,97.5 426.3,96.6 426.9,95.7 427.5,94.7 428.0,93.8 428.6,92.8 429.1,91.9 429.7,90.9 430.2,89.9 430.8,89.0 431.4,88.0 431.9,87.0 432.5,86.1 433.0,85.1 433.6,84.1 434.2,83.1 434.7,82.2 435.3,81.2 435.8,80.2 436.4,79.2 436.9,78.2 437.5,77.2 438.1,76.2 438.6,75.2 439.2,74.2 439.7,73.2 440.3,72.2 440.9,71.2 441.4,70.2 442.0,69.2 442.5,68.2 443.1,67.2 443.6,66.2 444.2,65.1 444.8,64.1 445.3,63.1 445.9,62.1 446.4,61.0 447.0,60.0 447.6,157.8 448.1,186.9 448.7,202.2 449.2,212.0 449.8,219.0 450.3,224.3 450.9,228.4 451.5,231.8 452.0,234.7 452.6,234.4 453.1,234.2 453.7,234.0 454.3,233.7 454.8,233.5 455.4,233.2 455.9,233.0 456.5,232.7 457.0,232.5 457.6,232.2 458.2,235.0 458.7,234.8 459.3,234.5 459.8,234.2 460.4,234.0 461.0,233.8 461.5,233.5 462.1,233.2 462.6,233.0 463.2,232.8 463.7,232.5 464.3,232.2 464.9,232.0 465.4,231.7 466.0,231.4 466.5,231.2 467.1,230.9 467.7,230.6 468.2,230.4 468.8,230.1 469.3,233.2 469.9,232.9 470.4,232.7 471.0,232.4 471.6,232.1 472.1,231.9 472.7,231.6 473.2,231.3 473.8,231.1 474.4,230.8 474.9,230.5 475.5,230.2 476.0,230.0 476.6,229.7 477.1,229.4 477.7,229.1 478.3,228.8 478.8,228.5 479.4,228.2 479.9,227.9 480.5,231.4 481.1,231.1 481.6,230.8 482.2,230.5 482.7,230.3 483.3,230.0 483.8,229.7 484.4,229.4 485.0,229.1 485.5,228.8 486.1,228.6 486.6,228.2 487.2,228.0 487.8,227.7 488.3,227.4 488.9,227.1 489.4,226.8 490.0,226.5 490.5,226.2 491.1,225.8 491.7,229.7 492.2,229.4 492.8,229.1 493.3,228.8 493.9,228.5 494.5,228.2 495.0,227.9 495.6,227.6 496.1,227.4 496.7,227.0 497.2,226.7 497.8,226.4 498.4,226.1 498.9,225.8 499.5,225.5 500.0,225.2 500.6,224.9 501.2,224.6 501.7,224.3 502.3,223.9 502.8,228.2 503.4,227.9 503.9,227.6 504.5,227.2 505.1,227.0 505.6,226.7 506.2,226.3 506.7,226.0 507.3,225.7 507.9,225.4 508.4,225.1 509.0,224.8 509.5,224.5 510.1,224.2 510.6,223.9 511.2,223.5 511.8,223.2 512.3,222.9 512.9,222.6 513.4,222.3 514.0,226.8 514.6,226.5 515.1,226.2 515.7,225.9 516.2,225.6 516.8,225.3 517.3,225.0 517.9,224.7 518.5,224.4 519.0,224.0 519.6,223.7 520.1,223.4 520.7,223.1 521.3,222.8 521.8,222.5 522.4,222.1 522.9,221.8 523.5,221.5 524.0,221.2 524.6,220.8 525.2,220.5 525.7,220.2 526.3,219.8 526.8,219.5 527.4,219.2 528.0,218.8 528.5,218.5 529.1,218.2 529.6,217.8 530.2,217.5 530.7,217.1 531.3,216.8 531.9,216.5 532.4,216.1 533.0,215.8 533.5,215.4 534.1,215.1 534.7,214.7 535.2,214.4 535.8,214.0 536.3,220.5 536.9,220.1 537.4,219.8 538.0,219.5 538.6,219.2 539.1,218.8 539.7,218.5 540.2,218.2 540.8,217.9 541.4,217.5 541.9,217.2 542.5,216.8 543.0,216.5 543.6,216.2 544.1,215.8 544.7,215.5 545.3,215.2 545.8,214.8 546.4,214.5 546.9,214.1 547.5,220.6 548.1,220.2 548.6,219.9 549.2,219.6 549.7,219.3 550.3,219.0 550.8,218.6 551.4,218.3 552.0,218.0 552.5,217.7 553.1,217.3 553.6,217.0 554.2,216.7 554.8,216.3 555.3,216.0 555.9,215.7 556.4,215.4 557.0,215.0 557.5,214.7 558.1,214.3 558.7,220.7 559.2,220.4 559.8,220.1 560.3,219.8 560.9,219.5 561.5,219.2 562.0,218.8 562.6,218.5 563.1,218.2 563.7,217.9 564.2,217.6 564.8,217.3 565.4,216.9 565.9,216.6 566.5,216.3 567.0,216.0 567.6,215.7 568.2,215.3 568.7,215.0 569.3,214.7 569.8,221.0 570.4,220.7 570.9,220.4 571.5,220.1 572.1,219.8 572.6,219.5 573.2,219.1 573.7,218.8 574.3,218.5 574.9,218.2 575.4,217.9 576.0,217.6 576.5,217.3 577.1,217.0 577.6,216.6 578.2,216.3 578.8,216.0 579.3,215.7 579.9,215.4 580.4,215.0 581.0,221.3 581.6,221.0 582.1,220.7 582.7,220.4 583.2,220.1 583.8,219.8 584.3,219.5 584.9,219.2 585.5,218.9 586.0,218.6 586.6,218.3 587.1,218.0 587.7,217.7 588.3,217.4 588.8,217.0 589.4,216.7 589.9,216.4 590.5,216.1 591.0,215.8 591.6,215.5 592.2,221.6 592.7,221.3 593.3,221.0 593.8,220.7 594.4,220.5 595.0,220.2 595.5,219.9 596.1,219.6 596.6,219.3 597.2,219.0 597.7,218.7 598.3,218.4 598.9,218.1 599.4,217.8 600.0,217.5 600.5,217.2 601.1,216.9 601.7,216.6 602.2,216.3 602.8,216.0 603.3,222.0 603.9,221.7 604.4,221.4 605.0,221.1 605.6,220.8 606.1,220.6 606.7,220.3 607.2,220.0 607.8,219.7 608.4,219.4 608.9,219.1 609.5,218.8 610.0,218.5 610.6,218.2 611.1,217.9 611.7,217.6 612.3,217.4 612.8,217.1 613.4,216.8 613.9,216.5 614.5,222.4 615.1,222.1 615.6,221.8 616.2,221.5 616.7,221.2 617.3,221.0 617.8,220.7 618.4,220.4 619.0,220.1 619.5,219.8 620.1,219.6 620.6,219.3 621.2,219.0 621.8,218.7 622.3,218.4 622.9,218.1 623.4,217.8 624.0,217.5 624.5,217.2 625.1,217.0 625.7,222.7 626.2,222.5 626.8,222.2 627.3,221.9 627.9,221.7 628.5,221.4 629.0,221.1 629.6,220.8 630.1,220.6 630.7,220.3 631.2,220.0 631.8,219.7 632.4,219.4 632.9,219.2 633.5,218.9 634.0,218.6 634.6,218.3 635.2,218.0 635.7,217.7 636.3,217.4 636.8,223.1 637.4,222.8 637.9,222.6 638.5,222.3 639.1,222.1 639.6,221.8 640.2,221.5 640.7,221.2 641.3,221.0 641.9,220.7 642.4,220.4 643.0,220.2 643.5,219.9 644.1,219.6 644.6,219.3 645.2,219.1 645.8,218.8 646.3,218.5 646.9,218.2 647.4,217.9 648.0,223.5 648.6,223.2 649.1,223.0 649.7,222.7 650.2,222.5 650.8,222.2 651.3,221.9 651.9,221.6 652.5,221.4 653.0,221.1 653.6,220.9 654.1,220.6 654.7,220.3 655.3,220.1 655.8,219.8 656.4,219.5 656.9,219.2 657.5,219.0 658.0,218.7 658.6,218.4 659.2,223.9 659.7,223.6 660.3,223.3 660.8,223.1 661.4,222.8 662.0,222.6 662.5,222.3 663.1,222.0 663.6,221.8 664.2,221.5 664.7,221.3 665.3,221.0 665.9,220.8 666.4,220.5 667.0,220.2 667.5,219.9 668.1,219.7 668.7,219.4 669.2,219.1 669.8,218.9 670.3,224.2 670.9,224.0 671.4,223.7 672.0,223.4 672.6,223.2 673.1,223.0 673.7,222.7 674.2,222.4 674.8,222.2 675.4,221.9 675.9,221.7 676.5,221.4 677.0,221.2 677.6,220.9 678.1,220.6 678.7,220.4 679.3,220.1 679.8,219.8 680.4,219.6 680.9,219.3 681.5,224.6 682.1,224.3 682.6,224.1 683.2,223.8 683.7,223.6 684.3,223.3 684.8,223.1 685.4,222.8 686.0,222.6 686.5,222.3 687.1,222.1 687.6,221.8 688.2,221.6 688.8,221.3 689.3,221.0 689.9,220.8 690.4,220.5 691.0,220.3 691.5,220.0 692.1,219.7 692.7,224.9 693.2,224.6 693.8,224.4 694.3,224.1 694.9,223.9 695.5,223.7 696.0,223.4 696.6,223.2 697.1,222.9 697.7,222.7 698.2,222.4 698.8,222.2 699.4,221.9 699.9,221.7 700.5,221.4 701.0,221.1 701.6,220.9 702.2,220.6 702.7,220.4 703.3,220.1 703.8,225.2 704.4,225.0 704.9,224.7 705.5,224.5 706.1,224.2 706.6,224.0 707.2,223.7 707.7,223.5 708.3,223.3 708.9,223.0 709.4,222.8 710.0,222.5 710.5,222.3 711.1,222.0 711.6,221.8 712.2,221.5 712.8,221.3 713.3,221.0 713.9,220.8 714.4,220.5 715.0,225.5"/>
<text x="45" y="268" font-family="Arial" font-size="12">time (s)</text>
<text x="575" y="268" font-family="Arial" font-size="12">sqrt(trace P)</text>
</svg>