<svg xmlns="http://www.w3.org/2000/svg" width="760" height="280" viewBox="0 0 760 280">
<rect width="100%" height="100%" fill="white"/>
<text x="45" y="28" font-family="Arial" font-size="18" font-weight="700">Aggressive Position Error</text>
<line x1="45" y1="235" x2="715" y2="235" stroke="#222"/>
<line x1="45" y1="45" x2="45" y2="235" stroke="#222"/>
<polyline fill="none" stroke="#0f766e" stroke-width="2.5" points="45.0,227.2 45.6,228.1 46.1,225.4 46.7,220.7 47.2,215.4 47.8,209.7 48.3,203.9 48.9,198.1 49.5,192.3 50.0,186.4 50.6,180.4 51.1,174.5 51.7,168.5 52.3,162.6 52.8,156.6 53.4,150.6 53.9,144.6 54.5,138.7 55.0,132.7 55.6,126.7 56.2,135.4 56.7,130.8 57.3,126.1 57.8,121.4 58.4,116.7 59.0,112.0 59.5,107.2 60.1,102.5 60.6,97.7 61.2,93.0 61.7,88.2 62.3,83.4 62.9,78.6 63.4,73.8 64.0,69.0 64.5,64.2 65.1,59.4 65.7,54.6 66.2,49.8 66.8,45.0 67.3,113.3 67.9,110.8 68.4,108.2 69.0,105.6 69.6,103.1 70.1,100.5 70.7,98.0 71.2,95.4 71.8,92.8 72.4,90.3 72.9,87.7 73.5,85.1 74.0,82.6 74.6,80.0 75.1,77.5 75.7,74.9 76.3,72.3 76.8,69.7 77.4,67.2 77.9,64.6 78.5,169.3 79.1,168.8 79.6,168.4 80.2,168.0 80.7,167.5 81.3,167.1 81.8,166.7 82.4,166.3 83.0,165.9 83.5,165.5 84.1,165.0 84.6,164.6 85.2,164.2 85.8,163.8 86.3,163.4 86.9,163.1 87.4,162.7 88.0,162.3 88.5,161.9 89.1,161.5 89.7,198.7 90.2,199.0 90.8,199.3 91.3,199.6 91.9,199.8 92.5,200.1 93.0,200.5 93.6,200.8 94.1,201.1 94.7,201.4 95.2,201.7 95.8,202.1 96.4,202.5 96.9,202.8 97.5,203.2 98.0,203.6 98.6,204.0 99.2,204.3 99.7,204.7 100.3,205.1 100.8,218.1 101.4,218.7 101.9,219.3 102.5,219.9 103.1,220.3 103.6,220.9 104.2,221.5 104.7,222.1 105.3,223.0 105.9,223.6 106.4,224.2 107.0,224.9 107.5,225.7 108.1,226.3 108.6,226.9 109.2,227.6 109.8,228.3 110.3,228.9 110.9,229.5 111.4,230.1 112.0,229.0 112.6,229.6 113.1,230.3 113.7,231.0 114.2,231.7 114.8,232.3 115.3,232.8 115.9,233.3 116.5,233.3 117.0,233.4 117.6,233.3 118.1,233.0 118.7,232.5 119.3,231.9 119.8,231.3 120.4,230.5 120.9,229.8 121.5,229.0 122.0,228.2 122.6,227.3 123.2,216.7 123.7,215.6 124.3,214.5 124.8,213.4 125.4,212.3 126.0,211.2 126.5,210.1 127.1,208.9 127.6,207.8 128.2,206.6 128.7,205.4 129.3,204.2 129.9,203.0 130.4,201.8 131.0,200.6 131.5,199.4 132.1,198.1 132.7,196.9 133.2,195.6 133.8,194.3 134.3,220.1 134.9,219.3 135.4,218.5 136.0,217.6 136.6,216.8 137.1,215.9 137.7,215.0 138.2,214.2 138.8,213.2 139.4,212.3 139.9,211.4 140.5,210.5 141.0,209.5 141.6,208.6 142.1,207.7 142.7,206.7 143.3,205.8 143.8,204.9 144.4,203.9 144.9,202.9 145.5,210.1 146.1,209.3 146.6,208.5 147.2,207.7 147.7,206.9 148.3,206.1 148.8,205.3 149.4,204.5 150.0,203.7 150.5,202.9 151.1,202.0 151.6,201.2 152.2,200.4 152.8,199.5 153.3,198.7 153.9,197.8 154.4,196.9 155.0,196.0 155.5,195.2 156.1,194.3 156.7,215.1 157.2,214.5 157.8,213.9 158.3,213.3 158.9,212.7 159.5,212.0 160.0,211.4 160.6,210.8 161.1,210.2 161.7,209.6 162.2,208.9 162.8,208.3 163.4,207.7 163.9,207.0 164.5,206.4 165.0,205.7 165.6,205.0 166.2,204.3 166.7,203.7 167.3,203.0 167.8,223.3 168.4,223.0 168.9,222.6 169.5,222.3 170.1,221.8 170.6,221.5 171.2,221.1 171.7,220.8 172.3,220.2 172.9,219.8 173.4,219.4 174.0,219.1 174.5,218.6 175.1,218.2 175.6,217.9 176.2,217.5 176.8,217.1 177.3,216.7 177.9,216.3 178.4,215.9 179.0,220.5 179.6,220.3 180.1,220.1 180.7,219.8 181.2,219.8 181.8,219.6 182.3,219.3 182.9,219.1 183.5,218.9 184.0,218.7 184.6,218.5 185.1,218.2 185.7,218.0 186.3,217.8 186.8,217.6 187.4,217.3 187.9,217.1 188.5,216.8 189.0,216.6 189.6,216.4 190.2,229.8 190.7,229.6 191.3,229.4 191.8,229.2 192.4,229.1 193.0,228.9 193.5,228.7 194.1,228.5 194.6,228.3 195.2,228.1 195.7,227.9 196.3,227.7 196.9,227.4 197.4,227.2 198.0,227.0 198.5,226.7 199.1,226.5 199.7,226.3 200.2,226.0 200.8,225.8 201.3,231.9 201.9,231.9 202.4,231.9 203.0,231.9 203.6,231.8 204.1,231.8 204.7,231.8 205.2,231.8 205.8,231.5 206.4,231.5 206.9,231.4 207.5,231.3 208.0,231.4 208.6,231.3 209.1,231.2 209.7,231.2 210.3,231.1 210.8,231.0 211.4,230.9 211.9,230.8 212.5,229.2 213.1,229.3 213.6,229.3 214.2,229.4 214.7,229.5 215.3,229.5 215.8,229.6 216.4,229.7 217.0,229.7 217.5,229.8 218.1,229.9 218.6,229.9 219.2,230.0 219.8,230.1 220.3,230.1 220.9,230.2 221.4,230.3 222.0,230.3 222.5,230.4 223.1,230.4 223.7,234.3 224.2,234.3 224.8,234.4 225.3,234.4 225.9,234.6 226.5,234.5 227.0,234.5 227.6,234.4 228.1,234.3 228.7,234.2 229.2,234.1 229.8,234.0 230.4,234.0 230.9,233.8 231.5,233.7 232.0,233.5 232.6,233.5 233.2,233.3 233.7,233.1 234.3,232.9 234.8,232.1 235.4,231.9 235.9,231.7 236.5,231.5 237.1,231.6 237.6,231.4 238.2,231.2 238.7,230.9 239.3,230.7 239.9,230.5 240.4,230.3 241.0,230.0 241.5,229.7 242.1,229.5 242.6,229.3 243.2,229.0 243.8,228.8 244.3,228.6 244.9,228.3 245.4,228.0 246.0,235.0 246.6,234.9 247.1,234.7 247.7,234.6 248.2,234.4 248.8,234.2 249.3,234.0 249.9,233.9 250.5,233.7 251.0,233.5 251.6,233.3 252.1,233.1 252.7,232.9 253.3,232.7 253.8,232.5 254.4,232.3 254.9,232.1 255.5,231.9 256.0,231.7 256.6,231.5 257.2,229.4 257.7,229.2 258.3,229.0 258.8,228.8 259.4,228.6 260.0,228.4 260.5,228.2 261.1,228.0 261.6,227.7 262.2,227.5 262.7,227.3 263.3,227.1 263.9,226.8 264.4,226.6 265.0,226.4 265.5,226.1 266.1,225.9 266.7,225.7 267.2,225.4 267.8,225.2 268.3,233.0 268.9,233.0 269.4,233.1 270.0,233.1 270.6,233.1 271.1,233.1 271.7,233.2 272.2,233.2 272.8,233.2 273.4,233.2 273.9,233.2 274.5,233.2 275.0,233.3 275.6,233.3 276.1,233.2 276.7,233.2 277.3,233.1 277.8,233.1 278.4,233.0 278.9,232.9 279.5,228.3 280.1,228.3 280.6,228.2 281.2,228.1 281.7,228.1 282.3,228.0 282.8,228.0 283.4,227.9 284.0,227.8 284.5,227.7 285.1,227.6 285.6,227.6 286.2,227.4 286.8,227.3 287.3,227.2 287.9,227.2 288.4,227.1 289.0,227.0 289.5,226.9 290.1,226.8 290.7,226.7 291.2,226.7 291.8,226.8 292.3,226.8 292.9,226.8 293.5,226.8 294.0,226.9 294.6,226.9 295.1,226.9 295.7,226.9 296.2,226.9 296.8,227.0 297.4,227.0 297.9,227.0 298.5,227.0 299.0,227.0 299.6,227.1 300.2,227.1 300.7,227.1 301.3,227.1 301.8,230.1 302.4,230.0 302.9,229.9 303.5,229.7 304.1,229.6 304.6,229.4 305.2,229.3 305.7,229.1 306.3,229.0 306.9,228.8 307.4,228.7 308.0,228.5 308.5,228.3 309.1,228.1 309.6,228.0 310.2,227.8 310.8,227.7 311.3,227.5 311.9,227.3 312.4,227.1 313.0,223.7 313.6,223.5 314.1,223.2 314.7,223.0 315.2,222.7 315.8,222.5 316.3,222.2 316.9,222.0 317.5,221.7 318.0,221.5 318.6,221.2 319.1,221.0 319.7,220.7 320.3,220.5 320.8,220.2 321.4,219.9 321.9,219.7 322.5,219.4 323.0,219.1 323.6,218.9 324.2,219.4 324.7,219.1 325.3,218.8 325.8,218.5 326.4,218.3 327.0,218.0 327.5,217.7 328.1,217.4 328.6,217.1 329.2,216.8 329.7,216.5 330.3,216.3 330.9,216.0 331.4,215.7 332.0,215.4 332.5,215.1 333.1,214.8 333.7,214.5 334.2,214.2 334.8,213.9 335.3,221.1 335.9,220.8 336.4,220.6 337.0,220.4 337.6,220.1 338.1,219.8 338.7,219.6 339.2,219.3 339.8,219.1 340.4,218.8 340.9,218.6 341.5,218.3 342.0,218.0 342.6,217.8 343.1,217.5 343.7,217.2 344.3,217.0 344.8,216.8 345.4,216.5 345.9,216.2 346.5,218.2 347.1,217.9 347.6,217.7 348.2,217.4 348.7,217.1 349.3,216.9 349.8,216.6 350.4,216.4 351.0,216.1 351.5,215.9 352.1,215.6 352.6,215.3 353.2,215.1 353.8,214.8 354.3,214.6 354.9,214.3 355.4,214.0 356.0,213.7 356.5,213.5 357.1,213.2 357.7,212.9 358.2,212.7 358.8,212.4 359.3,212.1 359.9,211.8 360.5,211.6 361.0,211.3 361.6,211.0 362.1,210.7 362.7,210.4 363.2,210.2 363.8,209.9 364.4,209.6 364.9,209.3 365.5,209.0 366.0,208.7 366.6,208.4 367.2,208.1 367.7,207.8 368.3,207.5 368.8,207.3 369.4,207.0 369.9,206.7 370.5,206.4 371.1,206.1 371.6,205.8 372.2,205.5 372.7,205.1 373.3,204.9 373.9,204.5 374.4,204.2 375.0,203.9 375.5,203.6 376.1,203.3 376.6,203.0 377.2,202.7 377.8,202.4 378.3,202.1 378.9,201.7 379.4,201.4 380.0,201.1 380.6,200.8 381.1,200.4 381.7,200.1 382.2,199.8 382.8,199.5 383.3,199.1 383.9,198.8 384.5,198.5 385.0,198.1 385.6,197.8 386.1,197.5 386.7,197.1 387.3,196.8 387.8,196.4 388.4,196.1 388.9,195.7 389.5,195.4 390.0,195.0 390.6,194.7 391.2,194.4 391.7,194.0 392.3,193.7 392.8,193.3 393.4,193.0 394.0,192.6 394.5,192.2 395.1,191.9 395.6,191.5 396.2,191.2 396.7,190.8 397.3,190.4 397.9,190.1 398.4,189.7 399.0,189.3 399.5,189.0 400.1,188.6 400.7,188.2 401.2,187.9 401.8,187.5 402.3,187.1 402.9,186.7 403.4,186.4 404.0,186.0 404.6,185.6 405.1,185.2 405.7,184.9 406.2,184.5 406.8,184.1 407.4,183.7 407.9,183.3 408.5,182.9 409.0,182.5 409.6,182.2 410.1,181.8 410.7,181.4 411.3,181.0 411.8,180.6 412.4,180.2 412.9,179.8 413.5,179.4 414.1,179.0 414.6,178.6 415.2,178.2 415.7,177.8 416.3,177.4 416.8,177.0 417.4,176.6 418.0,176.1 418.5,175.7 419.1,175.3 419.6,174.9 420.2,174.5 420.8,174.1 421.3,173.7 421.9,173.3 422.4,172.8 423.0,172.4 423.5,172.0 424.1,171.6 424.7,171.1 425.2,170.7 425.8,170.3 426.3,169.9 426.9,169.5 427.5,169.0 428.0,168.6 428.6,168.2 429.1,167.7 429.7,167.3 430.2,166.9 430.8,166.4 431.4,166.0 431.9,165.6 432.5,165.1 433.0,164.7 433.6,164.3 434.2,163.8 434.7,163.4 435.3,163.0 435.8,162.5 436.4,162.1 436.9,161.6 437.5,161.2 438.1,160.7 438.6,160.3 439.2,159.8 439.7,159.4 440.3,159.0 440.9,158.5 441.4,158.0 442.0,157.6 442.5,157.1 443.1,156.7 443.6,156.2 444.2,155.8 444.8,155.3 445.3,154.8 445.9,154.4 446.4,153.9 447.0,153.5 447.6,223.5 448.1,222.5 448.7,229.2 449.2,227.3 449.8,228.6 450.3,226.8 450.9,229.5 451.5,230.0 452.0,230.8 452.6,230.6 453.1,230.5 453.7,230.4 454.3,230.3 454.8,230.2 455.4,230.1 455.9,230.0 456.5,229.8 457.0,229.7 457.6,229.6 458.2,229.3 458.7,229.2 459.3,229.1 459.8,228.9 460.4,228.8 461.0,228.7 461.5,228.6 462.1,228.5 462.6,228.3 463.2,228.2 463.7,228.1 464.3,228.0 464.9,227.9 465.4,227.7 466.0,227.6 466.5,227.5 467.1,227.4 467.7,227.3 468.2,227.1 468.8,227.0 469.3,226.0 469.9,225.9 470.4,225.8 471.0,225.6 471.6,225.5 472.1,225.4 472.7,225.2 473.2,225.1 473.8,225.0 474.4,224.9 474.9,224.7 475.5,224.6 476.0,224.5 476.6,224.3 477.1,224.2 477.7,224.1 478.3,223.9 478.8,223.8 479.4,223.6 479.9,223.5 480.5,227.8 481.1,227.6 481.6,227.5 482.2,227.4 482.7,227.3 483.3,227.2 483.8,227.1 484.4,227.0 485.0,226.9 485.5,226.8 486.1,226.7 486.6,226.6 487.2,226.5 487.8,226.4 488.3,226.3 488.9,226.2 489.4,226.0 490.0,225.9 490.5,225.8 491.1,225.7 491.7,227.1 492.2,226.9 492.8,226.8 493.3,226.7 493.9,226.6 494.5,226.4 495.0,226.3 495.6,226.2 496.1,226.0 496.7,225.9 497.2,225.8 497.8,225.7 498.4,225.6 498.9,225.5 499.5,225.3 500.0,225.2 500.6,225.2 501.2,225.0 501.7,224.9 502.3,224.8 502.8,229.7 503.4,229.6 503.9,229.5 504.5,229.4 505.1,229.3 505.6,229.3 506.2,229.2 506.7,229.1 507.3,229.0 507.9,228.9 508.4,228.8 509.0,228.7 509.5,228.8 510.1,228.7 510.6,228.6 511.2,228.5 511.8,228.4 512.3,228.3 512.9,228.2 513.4,228.1 514.0,229.3 514.6,229.2 515.1,229.1 515.7,229.0 516.2,228.9 516.8,228.8 517.3,228.8 517.9,228.7 518.5,228.6 519.0,228.5 519.6,228.4 520.1,228.3 520.7,228.3 521.3,228.2 521.8,228.1 522.4,228.0 522.9,227.9 523.5,227.8 524.0,227.7 524.6,227.6 525.2,227.5 525.7,227.4 526.3,227.3 526.8,227.2 527.4,227.1 528.0,227.0 528.5,226.9 529.1,226.8 529.6,226.8 530.2,226.7 530.7,226.6 531.3,226.5 531.9,226.4 532.4,226.3 533.0,226.2 533.5,226.1 534.1,226.0 534.7,225.9 535.2,225.8 535.8,225.7 536.3,228.8 536.9,228.7 537.4,228.7 538.0,228.6 538.6,228.6 539.1,228.5 539.7,228.4 540.2,228.4 540.8,228.3 541.4,228.2 541.9,228.1 542.5,228.1 543.0,228.0 543.6,227.9 544.1,227.8 544.7,227.7 545.3,227.6 545.8,227.5 546.4,227.5 546.9,227.4 547.5,230.2 548.1,230.2 548.6,230.1 549.2,230.0 549.7,230.0 550.3,229.9 550.8,229.8 551.4,229.7 552.0,229.7 552.5,229.6 553.1,229.5 553.6,229.4 554.2,229.4 554.8,229.3 555.3,229.2 555.9,229.2 556.4,229.1 557.0,229.0 557.5,228.9 558.1,228.9 558.7,227.9 559.2,227.8 559.8,227.8 560.3,227.7 560.9,227.7 561.5,227.6 562.0,227.5 562.6,227.4 563.1,227.4 563.7,227.3 564.2,227.2 564.8,227.1 565.4,227.0 565.9,226.9 566.5,226.9 567.0,226.8 567.6,226.7 568.2,226.6 568.7,226.5 569.3,226.4 569.8,228.5 570.4,228.5 570.9,228.4 571.5,228.3 572.1,228.3 572.6,228.2 573.2,228.1 573.7,228.1 574.3,228.1 574.9,228.0 575.4,227.9 576.0,227.8 576.5,227.7 577.1,227.6 577.6,227.5 578.2,227.4 578.8,227.3 579.3,227.2 579.9,227.2 580.4,227.1 581.0,229.0 581.6,228.9 582.1,228.8 582.7,228.8 583.2,228.8 583.8,228.8 584.3,228.7 584.9,228.6 585.5,228.6 586.0,228.5 586.6,228.4 587.1,228.3 587.7,228.3 588.3,228.3 588.8,228.2 589.4,228.1 589.9,228.1 590.5,228.0 591.0,227.9 591.6,227.8 592.2,226.2 592.7,226.1 593.3,226.1 593.8,226.0 594.4,225.9 595.0,225.8 595.5,225.7 596.1,225.6 596.6,225.6 597.2,225.5 597.7,225.4 598.3,225.3 598.9,225.2 599.4,225.1 600.0,225.0 600.5,225.0 601.1,224.9 601.7,224.8 602.2,224.7 602.8,224.6 603.3,225.5 603.9,225.4 604.4,225.3 605.0,225.2 605.6,225.1 606.1,225.0 606.7,225.0 607.2,224.9 607.8,224.8 608.4,224.7 608.9,224.6 609.5,224.5 610.0,224.5 610.6,224.4 611.1,224.3 611.7,224.2 612.3,224.1 612.8,224.0 613.4,223.9 613.9,223.8 614.5,226.7 615.1,226.6 615.6,226.6 616.2,226.5 616.7,226.4 617.3,226.3 617.8,226.2 618.4,226.2 619.0,226.1 619.5,226.0 620.1,225.9 620.6,225.8 621.2,225.7 621.8,225.7 622.3,225.6 622.9,225.5 623.4,225.5 624.0,225.4 624.5,225.3 625.1,225.2 625.7,226.5 626.2,226.4 626.8,226.3 627.3,226.2 627.9,226.2 628.5,226.1 629.0,226.0 629.6,225.9 630.1,225.9 630.7,225.8 631.2,225.7 631.8,225.6 632.4,225.6 632.9,225.5 633.5,225.4 634.0,225.3 634.6,225.2 635.2,225.1 635.7,225.1 636.3,225.0 636.8,227.9 637.4,227.8 637.9,227.7 638.5,227.7 639.1,227.6 639.6,227.5 640.2,227.4 640.7,227.4 641.3,227.4 641.9,227.3 642.4,227.2 643.0,227.1 643.5,227.1 644.1,227.0 644.6,226.9 645.2,226.9 645.8,226.8 646.3,226.7 646.9,226.6 647.4,226.6 648.0,228.3 648.6,228.2 649.1,228.2 649.7,228.1 650.2,228.1 650.8,228.0 651.3,227.9 651.9,227.9 652.5,227.8 653.0,227.7 653.6,227.7 654.1,227.6 654.7,227.6 655.3,227.5 655.8,227.4 656.4,227.4 656.9,227.3 657.5,227.2 658.0,227.2 658.6,227.1 659.2,230.8 659.7,230.7 660.3,230.7 660.8,230.6 661.4,230.6 662.0,230.6 662.5,230.5 663.1,230.5 663.6,230.4 664.2,230.4 664.7,230.4 665.3,230.3 665.9,230.3 666.4,230.2 667.0,230.2 667.5,230.1 668.1,230.1 668.7,230.0 669.2,230.0 669.8,229.9 670.3,230.2 670.9,230.1 671.4,230.1 672.0,230.0 672.6,230.0 673.1,229.9 673.7,229.9 674.2,229.8 674.8,229.8 675.4,229.7 675.9,229.7 676.5,229.6 677.0,229.5 677.6,229.5 678.1,229.4 678.7,229.4 679.3,229.3 679.8,229.3 680.4,229.2 680.9,229.1 681.5,229.0 682.1,229.0 682.6,228.9 683.2,228.8 683.7,228.8 684.3,228.7 684.8,228.7 685.4,228.6 686.0,228.5 686.5,228.5 687.1,228.4 687.6,228.3 688.2,228.2 688.8,228.1 689.3,228.1 689.9,228.0 690.4,227.9 691.0,227.8 691.5,227.7 692.1,227.6 692.7,230.5 693.2,230.5 693.8,230.4 694.3,230.4 694.9,230.4 695.5,230.3 696.0,230.2 696.6,230.2 697.1,230.1 697.7,230.0 698.2,229.9 698.8,229.9 699.4,230.0 699.9,229.9 700.5,229.9 701.0,229.8 701.6,229.6 702.2,229.6 702.7,229.5 703.3,229.5 703.8,230.5 704.4,230.5 704.9,230.4 705.5,230.4 706.1,230.5 706.6,230.5 707.2,230.4 707.7,230.4 708.3,230.3 708.9,230.3 709.4,230.2 710.0,230.2 710.5,230.0 711.1,229.9 711.6,229.9 712.2,229.8 712.8,229.7 713.3,229.6 713.9,229.6 714.4,229.5 715.0,231.5"/>
<text x="45" y="268" font-family="Arial" font-size="12">time (s)</text>
<text x="575" y="268" font-family="Arial" font-size="12">m</text>
</svg>