<svg xmlns="http://www.w3.org/2000/svg" width="760" height="280" viewBox="0 0 760 280">
<rect width="100%" height="100%" fill="white"/>
<text x="45" y="28" font-family="Arial" font-size="18" font-weight="700">Conservative Covariance Trace</text>
<line x1="45" y1="235" x2="715" y2="235" stroke="#222"/>
<line x1="45" y1="45" x2="45" y2="235" stroke="#222"/>
<polyline fill="none" stroke="#0f766e" stroke-width="2.5" points="45.0,163.0 45.6,162.6 46.1,161.5 46.7,159.9 47.2,161.1 47.8,158.7 48.3,155.8 48.9,152.5 49.5,151.5 50.0,147.7 50.6,143.6 51.1,139.2 51.7,137.0 52.3,132.4 52.8,127.5 53.4,122.4 53.9,119.2 54.5,113.9 55.0,108.5 55.6,103.0 56.2,171.7 56.7,168.2 57.3,164.4 57.8,160.5 58.4,158.1 59.0,154.0 59.5,149.9 60.1,145.6 60.6,142.4 61.2,138.0 61.7,133.5 62.3,129.0 62.9,125.2 63.4,120.6 64.0,115.9 64.5,111.1 65.1,107.0 65.7,102.2 66.2,97.3 66.8,92.4 67.3,170.4 67.9,167.5 68.4,164.5 69.0,161.5 69.6,159.1 70.1,156.0 70.7,152.9 71.2,149.7 71.8,147.0 72.4,143.8 72.9,140.5 73.5,137.2 74.0,134.3 74.6,131.0 75.1,127.6 75.7,124.2 76.3,121.1 76.8,117.7 77.4,114.2 77.9,110.7 78.5,174.6 79.1,172.4 79.6,170.1 80.2,167.8 80.7,166.0 81.3,163.6 81.8,161.3 82.4,158.9 83.0,156.9 83.5,154.4 84.1,152.0 84.6,149.5 85.2,147.3 85.8,144.8 86.3,142.2 86.9,139.7 87.4,137.4 88.0,134.8 88.5,132.1 89.1,129.4 89.7,179.5 90.2,177.7 90.8,175.8 91.3,173.9 91.9,172.4 92.5,170.5 93.0,168.5 93.6,166.5 94.1,164.9 94.7,162.9 95.2,160.8 95.8,158.7 96.4,157.0 96.9,154.9 97.5,152.7 98.0,150.5 98.6,148.7 99.2,146.4 99.7,144.2 100.3,141.9 100.8,183.3 101.4,181.7 101.9,180.0 102.5,178.3 103.1,176.9 103.6,175.2 104.2,173.4 104.7,171.6 105.3,170.1 105.9,168.2 106.4,166.3 107.0,164.4 107.5,162.8 108.1,160.8 108.6,158.8 109.2,156.8 109.8,155.0 110.3,152.9 110.9,150.8 111.4,148.6 112.0,185.6 112.6,184.0 113.1,182.4 113.7,180.7 114.2,179.4 114.8,177.7 115.3,176.0 115.9,174.2 116.5,172.7 117.0,170.9 117.6,169.0 118.1,167.1 118.7,165.5 119.3,163.6 119.8,161.6 120.4,159.5 120.9,157.8 121.5,155.7 122.0,153.6 122.6,151.4 123.2,186.7 123.7,185.1 124.3,183.5 124.8,181.8 125.4,180.4 126.0,178.7 126.5,177.0 127.1,175.2 127.6,173.7 128.2,171.8 128.7,169.9 129.3,168.0 129.9,166.3 130.4,164.4 131.0,162.4 131.5,160.3 132.1,158.5 132.7,156.4 133.2,154.3 133.8,152.2 134.3,187.0 134.9,185.4 135.4,183.8 136.0,182.1 136.6,180.7 137.1,179.0 137.7,177.2 138.2,175.5 138.8,173.9 139.4,172.1 139.9,170.2 140.5,168.3 141.0,166.6 141.6,164.7 142.1,162.7 142.7,160.7 143.3,158.9 143.8,156.8 144.4,154.7 144.9,152.6 145.5,187.2 146.1,185.7 146.6,184.1 147.2,182.4 147.7,181.0 148.3,179.3 148.8,177.6 149.4,175.9 150.0,174.3 150.5,172.6 151.1,170.7 151.6,168.9 152.2,167.2 152.8,165.3 153.3,163.4 153.9,161.5 154.4,159.7 155.0,157.7 155.5,155.7 156.1,153.6 156.7,187.7 157.2,186.2 157.8,184.7 158.3,183.1 158.9,181.7 159.5,180.1 160.0,178.5 160.6,176.8 161.1,175.3 161.7,173.6 162.2,171.9 162.8,170.1 163.4,168.5 163.9,166.7 164.5,164.9 165.0,163.1 165.6,161.4 166.2,159.5 166.7,157.6 167.3,155.7 167.8,188.6 168.4,187.1 168.9,185.7 169.5,184.2 170.1,182.9 170.6,181.4 171.2,179.8 171.7,178.3 172.3,176.8 172.9,175.2 173.4,173.6 174.0,172.0 174.5,170.5 175.1,168.8 175.6,167.1 176.2,165.4 176.8,163.8 177.3,162.0 177.9,160.3 178.4,158.5 179.0,189.7 179.6,188.4 180.1,187.0 180.7,185.6 181.2,184.4 181.8,183.0 182.3,181.5 182.9,180.1 183.5,178.8 184.0,177.3 184.6,175.8 185.1,174.2 185.7,172.8 186.3,171.3 186.8,169.7 187.4,168.1 187.9,166.7 188.5,165.0 189.0,163.4 189.6,161.7 190.2,191.1 190.7,189.8 191.3,188.6 191.8,187.3 192.4,186.1 193.0,184.8 193.5,183.5 194.1,182.1 194.6,180.9 195.2,179.5 195.7,178.1 196.3,176.7 196.9,175.4 197.4,174.0 198.0,172.5 198.5,171.1 199.1,169.7 199.7,168.2 200.2,166.7 200.8,165.2 201.3,192.6 201.9,191.4 202.4,190.2 203.0,189.0 203.6,188.0 204.1,186.7 204.7,185.5 205.2,184.2 205.8,183.1 206.4,181.8 206.9,180.5 207.5,179.2 208.0,178.1 208.6,176.7 209.1,175.4 209.7,174.0 210.3,172.8 210.8,171.4 211.4,170.0 211.9,168.6 212.5,194.1 213.1,193.0 213.6,191.9 214.2,190.8 214.7,189.8 215.3,188.7 215.8,187.5 216.4,186.4 217.0,185.3 217.5,184.1 218.1,182.9 218.6,181.7 219.2,180.6 219.8,179.4 220.3,178.2 220.9,176.9 221.4,175.8 222.0,174.5 222.5,173.2 223.1,171.9 223.7,195.7 224.2,194.6 224.8,193.6 225.3,192.6 225.9,191.7 226.5,190.6 227.0,189.5 227.6,188.4 228.1,187.5 228.7,186.4 229.2,185.3 229.8,184.1 230.4,183.1 230.9,182.0 231.5,180.8 232.0,179.7 232.6,178.6 233.2,177.5 233.7,176.3 234.3,175.1 234.8,197.2 235.4,196.2 235.9,195.3 236.5,194.3 237.1,193.4 237.6,192.4 238.2,191.4 238.7,190.4 239.3,189.5 239.9,188.5 240.4,187.5 241.0,186.4 241.5,185.5 242.1,184.4 242.6,183.4 243.2,182.3 243.8,181.3 244.3,180.2 244.9,179.1 245.4,178.0 246.0,198.6 246.6,197.7 247.1,196.8 247.7,195.9 248.2,195.1 248.8,194.2 249.3,193.2 249.9,192.3 250.5,191.5 251.0,190.5 251.6,189.5 252.1,188.6 252.7,187.7 253.3,186.7 253.8,185.7 254.4,184.7 254.9,183.8 255.5,182.8 256.0,181.7 256.6,180.7 257.2,200.0 257.7,199.2 258.3,198.3 258.8,197.4 259.4,196.7 260.0,195.8 260.5,194.9 261.1,194.0 261.6,193.3 262.2,192.4 262.7,191.5 263.3,190.5 263.9,189.7 264.4,188.8 265.0,187.9 265.5,186.9 266.1,186.1 266.7,185.1 267.2,184.2 267.8,183.2 268.3,201.3 268.9,200.5 269.4,199.7 270.0,198.9 270.6,198.2 271.1,197.4 271.7,196.5 272.2,195.7 272.8,195.0 273.4,194.1 273.9,193.3 274.5,192.4 275.0,191.6 275.6,190.8 276.1,189.9 276.7,189.0 277.3,188.2 277.8,187.3 278.4,186.4 278.9,185.5 279.5,202.5 280.1,201.8 280.6,201.0 281.2,200.2 281.7,199.6 282.3,198.8 282.8,198.0 283.4,197.2 284.0,196.5 284.5,195.7 285.1,194.9 285.6,194.1 286.2,193.4 286.8,192.6 287.3,191.7 287.9,190.9 288.4,190.1 289.0,189.3 289.5,188.4 290.1,187.6 290.7,203.7 291.2,203.0 291.8,202.2 292.3,201.5 292.9,200.9 293.5,200.1 294.0,199.4 294.6,198.6 295.1,198.0 295.7,197.2 296.2,196.4 296.8,195.7 297.4,195.0 297.9,194.2 298.5,193.4 299.0,192.6 299.6,191.9 300.2,191.1 300.7,190.3 301.3,189.5 301.8,204.8 302.4,204.1 302.9,203.4 303.5,202.7 304.1,202.1 304.6,201.4 305.2,200.7 305.7,199.9 306.3,199.3 306.9,198.6 307.4,197.9 308.0,197.1 308.5,196.5 309.1,195.7 309.6,195.0 310.2,194.2 310.8,193.6 311.3,192.8 311.9,192.0 312.4,191.2 313.0,205.8 313.6,205.1 314.1,204.4 314.7,203.8 315.2,203.2 315.8,202.5 316.3,201.8 316.9,201.1 317.5,200.6 318.0,199.9 318.6,199.2 319.1,198.4 319.7,197.8 320.3,197.1 320.8,196.4 321.4,195.7 321.9,195.0 322.5,194.3 323.0,193.6 323.6,192.8 324.2,206.7 324.7,206.1 325.3,205.4 325.8,204.8 326.4,204.2 327.0,203.6 327.5,202.9 328.1,202.3 328.6,201.7 329.2,201.0 329.7,200.3 330.3,199.7 330.9,199.1 331.4,198.4 332.0,197.7 332.5,197.0 333.1,196.4 333.7,195.7 334.2,195.0 334.8,194.3 335.3,207.6 335.9,206.9 336.4,206.3 337.0,205.7 337.6,205.2 338.1,204.6 338.7,203.9 339.2,203.3 339.8,202.7 340.4,202.1 340.9,201.4 341.5,200.8 342.0,200.2 342.6,199.6 343.1,198.9 343.7,198.2 344.3,197.6 344.8,197.0 345.4,196.3 345.9,195.6 346.5,208.3 347.1,207.7 347.6,207.1 348.2,206.5 348.7,206.1 349.3,205.4 349.8,204.8 350.4,204.2 351.0,203.7 351.5,203.1 352.1,202.4 352.6,201.8 353.2,201.3 353.8,200.6 354.3,200.0 354.9,199.3 355.4,198.8 356.0,198.1 356.5,197.4 357.1,196.8 357.7,196.2 358.2,195.5 358.8,194.9 359.3,194.2 359.9,193.6 360.5,192.9 361.0,192.2 361.6,191.5 362.1,190.9 362.7,190.2 363.2,189.5 363.8,188.8 364.4,188.1 364.9,187.4 365.5,186.7 366.0,186.0 366.6,185.3 367.2,184.6 367.7,183.8 368.3,183.1 368.8,182.4 369.4,181.7 369.9,180.9 370.5,180.2 371.1,179.5 371.6,178.7 372.2,177.9 372.7,177.2 373.3,176.5 373.9,175.7 374.4,174.9 375.0,174.1 375.5,173.4 376.1,172.6 376.6,171.8 377.2,171.0 377.8,170.3 378.3,169.5 378.9,168.6 379.4,167.8 380.0,167.1 380.6,166.3 381.1,165.4 381.7,164.6 382.2,163.8 382.8,163.0 383.3,162.1 383.9,161.3 384.5,160.5 385.0,159.7 385.6,158.8 386.1,157.9 386.7,157.2 387.3,156.3 387.8,155.4 388.4,154.5 388.9,153.7 389.5,152.8 390.0,152.0 390.6,151.1 391.2,150.2 391.7,149.3 392.3,148.4 392.8,147.5 393.4,146.7 394.0,145.8 394.5,144.9 395.1,144.0 395.6,143.1 396.2,142.2 396.7,141.2 397.3,140.3 397.9,139.4 398.4,138.5 399.0,137.6 399.5,136.6 400.1,135.7 400.7,134.8 401.2,133.8 401.8,132.9 402.3,132.0 402.9,131.0 403.4,130.0 404.0,129.0 404.6,128.1 405.1,127.2 405.7,126.2 406.2,125.2 406.8,124.3 407.4,123.3 407.9,122.3 408.5,121.3 409.0,120.3 409.6,119.3 410.1,118.3 410.7,117.3 411.3,116.3 411.8,115.3 412.4,114.3 412.9,113.2 413.5,112.3 414.1,111.2 414.6,110.2 415.2,109.2 415.7,108.2 416.3,107.1 416.8,106.1 417.4,105.0 418.0,104.0 418.5,103.0 419.1,101.9 419.6,100.8 420.2,99.8 420.8,98.7 421.3,97.6 421.9,96.6 422.4,95.5 423.0,94.4 423.5,93.4 424.1,92.3 424.7,91.2 425.2,90.1 425.8,89.0 426.3,87.9 426.9,86.8 427.5,85.7 428.0,84.6 428.6,83.5 429.1,82.4 429.7,81.3 430.2,80.1 430.8,79.0 431.4,77.9 431.9,76.8 432.5,75.6 433.0,74.5 433.6,73.4 434.2,72.2 434.7,71.1 435.3,69.9 435.8,68.8 436.4,67.6 436.9,66.4 437.5,65.3 438.1,64.1 438.6,62.9 439.2,61.8 439.7,60.6 440.3,59.4 440.9,58.2 441.4,57.0 442.0,55.8 442.5,54.7 443.1,53.5 443.6,52.3 444.2,51.0 444.8,49.9 445.3,48.6 445.9,47.4 446.4,46.2 447.0,45.0 447.6,165.1 448.1,192.9 448.7,206.8 449.2,215.6 449.8,221.7 450.3,226.2 450.9,229.7 451.5,232.7 452.0,235.0 452.6,234.7 453.1,234.4 453.7,234.3 454.3,234.0 454.8,233.7 455.4,233.4 455.9,233.2 456.5,232.9 457.0,232.6 457.6,232.3 458.2,234.8 458.7,234.4 459.3,234.1 459.8,233.8 460.4,233.6 461.0,233.3 461.5,232.9 462.1,232.6 462.6,232.4 463.2,232.0 463.7,231.6 464.3,231.3 464.9,231.1 465.4,230.7 466.0,230.3 466.5,229.9 467.1,229.7 467.7,229.3 468.2,228.8 468.8,228.4 469.3,231.6 469.9,231.2 470.4,230.8 471.0,230.3 471.6,230.1 472.1,229.7 472.7,229.3 473.2,228.8 473.8,228.6 474.4,228.1 474.9,227.7 475.5,227.3 476.0,227.0 476.6,226.5 477.1,226.1 477.7,225.6 478.3,225.3 478.8,224.8 479.4,224.4 479.9,223.9 480.5,227.9 481.1,227.4 481.6,227.0 482.2,226.5 482.7,226.2 483.3,225.7 483.8,225.3 484.4,224.8 485.0,224.4 485.5,224.0 486.1,223.5 486.6,223.0 487.2,222.6 487.8,222.1 488.3,221.6 488.9,221.1 489.4,220.7 490.0,220.2 490.5,219.7 491.1,219.2 491.7,224.2 492.2,223.8 492.8,223.3 493.3,222.8 493.9,222.4 494.5,221.9 495.0,221.4 495.6,220.9 496.1,220.5 496.7,220.0 497.2,219.5 497.8,218.9 498.4,218.6 498.9,218.0 499.5,217.5 500.0,216.9 500.6,216.5 501.2,216.0 501.7,215.4 502.3,214.9 502.8,221.1 503.4,220.6 503.9,220.0 504.5,219.5 505.1,219.1 505.6,218.6 506.2,218.1 506.7,217.6 507.3,217.2 507.9,216.6 508.4,216.1 509.0,215.5 509.5,215.1 510.1,214.6 510.6,214.0 511.2,213.4 511.8,213.0 512.3,212.4 512.9,211.9 513.4,211.3 514.0,218.5 514.6,218.0 515.1,217.5 515.7,217.0 516.2,216.6 516.8,216.0 517.3,215.5 517.9,215.0 518.5,214.5 519.0,214.0 519.6,213.4 520.1,212.9 520.7,212.5 521.3,211.9 521.8,211.3 522.4,210.8 522.9,210.3 523.5,209.8 524.0,209.2 524.6,208.6 525.2,208.2 525.7,207.6 526.3,207.0 526.8,206.4 527.4,205.9 528.0,205.3 528.5,204.7 529.1,204.1 529.6,203.6 530.2,203.0 530.7,202.4 531.3,201.8 531.9,201.3 532.4,200.7 533.0,200.0 533.5,199.4 534.1,198.9 534.7,198.2 535.2,197.6 535.8,197.0 536.3,209.2 536.9,208.7 537.4,208.1 538.0,207.5 538.6,207.1 539.1,206.5 539.7,206.0 540.2,205.4 540.8,204.9 541.4,204.4 541.9,203.8 542.5,203.2 543.0,202.7 543.6,202.1 544.1,201.6 544.7,201.0 545.3,200.5 545.8,199.9 546.4,199.3 546.9,198.7 547.5,210.3 548.1,209.7 548.6,209.2 549.2,208.7 549.7,208.3 550.3,207.7 550.8,207.2 551.4,206.6 552.0,206.2 552.5,205.7 553.1,205.1 553.6,204.5 554.2,204.1 554.8,203.5 555.3,203.0 555.9,202.4 556.4,202.0 557.0,201.4 557.5,200.8 558.1,200.2 558.7,211.2 559.2,210.7 559.8,210.2 560.3,209.7 560.9,209.3 561.5,208.8 562.0,208.3 562.6,207.8 563.1,207.4 563.7,206.8 564.2,206.3 564.8,205.8 565.4,205.3 565.9,204.8 566.5,204.2 567.0,203.7 567.6,203.3 568.2,202.7 568.7,202.2 569.3,201.6 569.8,212.1 570.4,211.6 570.9,211.1 571.5,210.6 572.1,210.3 572.6,209.7 573.2,209.2 573.7,208.7 574.3,208.3 574.9,207.8 575.4,207.3 576.0,206.8 576.5,206.4 577.1,205.9 577.6,205.3 578.2,204.8 578.8,204.4 579.3,203.8 579.9,203.3 580.4,202.8 581.0,212.9 581.6,212.4 582.1,211.9 582.7,211.4 583.2,211.0 583.8,210.5 584.3,210.1 584.9,209.6 585.5,209.2 586.0,208.7 586.6,208.2 587.1,207.6 587.7,207.3 588.3,206.7 588.8,206.2 589.4,205.7 589.9,205.3 590.5,204.8 591.0,204.2 591.6,203.7 592.2,213.5 592.7,213.0 593.3,212.5 593.8,212.0 594.4,211.7 595.0,211.2 595.5,210.7 596.1,210.2 596.6,209.8 597.2,209.4 597.7,208.8 598.3,208.3 598.9,208.0 599.4,207.5 600.0,206.9 600.5,206.4 601.1,206.0 601.7,205.5 602.2,205.0 602.8,204.5 603.3,214.0 603.9,213.5 604.4,213.0 605.0,212.5 605.6,212.2 606.1,211.7 606.7,211.2 607.2,210.7 607.8,210.4 608.4,209.9 608.9,209.4 609.5,208.9 610.0,208.5 610.6,208.0 611.1,207.5 611.7,207.0 612.3,206.6 612.8,206.1 613.4,205.6 613.9,205.0 614.5,214.3 615.1,213.9 615.6,213.4 616.2,212.9 616.7,212.6 617.3,212.1 617.8,211.6 618.4,211.1 619.0,210.8 619.5,210.3 620.1,209.8 620.6,209.3 621.2,208.9 621.8,208.4 622.3,207.9 622.9,207.4 623.4,207.0 624.0,206.5 624.5,206.0 625.1,205.5 625.7,214.6 626.2,214.2 626.8,213.7 627.3,213.2 627.9,212.9 628.5,212.4 629.0,211.9 629.6,211.4 630.1,211.1 630.7,210.6 631.2,210.1 631.8,209.6 632.4,209.2 632.9,208.7 633.5,208.2 634.0,207.7 634.6,207.3 635.2,206.8 635.7,206.3 636.3,205.8 636.8,214.8 637.4,214.4 637.9,213.9 638.5,213.4 639.1,213.1 639.6,212.6 640.2,212.1 640.7,211.6 641.3,211.3 641.9,210.8 642.4,210.3 643.0,209.8 643.5,209.4 644.1,208.9 644.6,208.4 645.2,207.9 645.8,207.5 646.3,207.0 646.9,206.5 647.4,206.0 648.0,215.0 648.6,214.5 649.1,214.0 649.7,213.5 650.2,213.2 650.8,212.7 651.3,212.2 651.9,211.8 652.5,211.4 653.0,210.9 653.6,210.4 654.1,209.9 654.7,209.6 655.3,209.0 655.8,208.5 656.4,208.0 656.9,207.6 657.5,207.1 658.0,206.6 658.6,206.1 659.2,215.0 659.7,214.6 660.3,214.1 660.8,213.6 661.4,213.3 662.0,212.8 662.5,212.3 663.1,211.8 663.6,211.5 664.2,211.0 664.7,210.5 665.3,210.0 665.9,209.6 666.4,209.1 667.0,208.6 667.5,208.1 668.1,207.7 668.7,207.2 669.2,206.7 669.8,206.2 670.3,215.1 670.9,214.6 671.4,214.1 672.0,213.7 672.6,213.3 673.1,212.8 673.7,212.4 674.2,211.9 674.8,211.5 675.4,211.0 675.9,210.5 676.5,210.0 677.0,209.7 677.6,209.2 678.1,208.6 678.7,208.1 679.3,207.7 679.8,207.2 680.4,206.7 680.9,206.2 681.5,215.1 682.1,214.6 682.6,214.2 683.2,213.7 683.7,213.3 684.3,212.9 684.8,212.4 685.4,211.9 686.0,211.5 686.5,211.0 687.1,210.5 687.6,210.0 688.2,209.7 688.8,209.2 689.3,208.7 689.9,208.1 690.4,207.8 691.0,207.2 691.5,206.7 692.1,206.2 692.7,215.1 693.2,214.6 693.8,214.2 694.3,213.7 694.9,213.3 695.5,212.9 696.0,212.4 696.6,211.9 697.1,211.5 697.7,211.0 698.2,210.5 698.8,210.0 699.4,209.7 699.9,209.2 700.5,208.6 701.0,208.1 701.6,207.7 702.2,207.2 702.7,206.7 703.3,206.2 703.8,215.1 704.4,214.6 704.9,214.2 705.5,213.7 706.1,213.3 706.6,212.8 707.2,212.4 707.7,211.9 708.3,211.5 708.9,211.0 709.4,210.5 710.0,210.0 710.5,209.6 711.1,209.1 711.6,208.6 712.2,208.1 712.8,207.7 713.3,207.2 713.9,206.7 714.4,206.2 715.0,215.1"/>
<text x="45" y="268" font-family="Arial" font-size="12">time (s)</text>
<text x="575" y="268" font-family="Arial" font-size="12">sqrt(trace P)</text>
</svg>