<svg xmlns="http://www.w3.org/2000/svg" width="760" height="280" viewBox="0 0 760 280">
<rect width="100%" height="100%" fill="white"/>
<text x="45" y="28" font-family="Arial" font-size="18" font-weight="700">Conservative Position Error</text>
<line x1="45" y1="235" x2="715" y2="235" stroke="#222"/>
<line x1="45" y1="45" x2="45" y2="235" stroke="#222"/>
<polyline fill="none" stroke="#0f766e" stroke-width="2.5" points="45.0,222.1 45.6,231.5 46.1,230.9 46.7,221.4 47.2,211.9 47.8,202.3 48.3,192.7 48.9,183.1 49.5,173.5 50.0,163.9 50.6,154.3 51.1,144.8 51.7,135.2 52.3,125.6 52.8,116.0 53.4,106.4 53.9,96.8 54.5,87.2 55.0,77.6 55.6,68.1 56.2,165.5 56.7,159.1 57.3,152.7 57.8,146.4 58.4,140.1 59.0,133.7 59.5,127.4 60.1,121.0 60.6,114.7 61.2,108.3 61.7,102.0 62.3,95.6 62.9,89.3 63.4,83.0 64.0,76.7 64.5,70.3 65.1,64.0 65.7,57.7 66.2,51.3 66.8,45.0 67.3,173.5 67.9,170.6 68.4,167.8 69.0,164.9 69.6,162.0 70.1,159.2 70.7,156.3 71.2,153.5 71.8,150.6 72.4,147.8 72.9,145.0 73.5,142.2 74.0,139.3 74.6,136.5 75.1,133.7 75.7,130.9 76.3,128.0 76.8,125.2 77.4,122.4 77.9,119.6 78.5,179.4 79.1,177.9 79.6,176.4 80.2,174.9 80.7,173.5 81.3,172.0 81.8,170.5 82.4,169.0 83.0,167.5 83.5,166.1 84.1,164.6 84.6,163.2 85.2,161.7 85.8,160.2 86.3,158.8 86.9,157.4 87.4,156.0 88.0,154.5 88.5,153.1 89.1,151.7 89.7,195.4 90.2,194.7 90.8,194.1 91.3,193.5 91.9,192.7 92.5,192.1 93.0,191.5 93.6,190.9 94.1,190.4 94.7,189.8 95.2,189.2 95.8,188.7 96.4,188.2 96.9,187.7 97.5,187.1 98.0,186.6 98.6,186.1 99.2,185.6 99.7,185.1 100.3,184.6 100.8,206.5 101.4,206.3 101.9,206.2 102.5,206.1 103.1,205.8 103.6,205.6 104.2,205.5 104.7,205.4 105.3,205.6 105.9,205.5 106.4,205.4 107.0,205.3 107.5,205.4 108.1,205.4 108.6,205.4 109.2,205.3 109.8,205.4 110.3,205.4 110.9,205.4 111.4,205.4 112.0,218.3 112.6,218.3 113.1,218.3 113.7,218.3 114.2,218.3 114.8,218.3 115.3,218.3 115.9,218.2 116.5,218.1 117.0,218.0 117.6,217.9 118.1,217.9 118.7,217.7 119.3,217.6 119.8,217.4 120.4,217.3 120.9,217.1 121.5,216.9 122.0,216.7 122.6,216.5 123.2,220.9 123.7,220.8 124.3,220.6 124.8,220.4 125.4,220.2 126.0,220.0 126.5,219.7 127.1,219.4 127.6,219.1 128.2,218.7 128.7,218.4 129.3,217.9 129.9,217.6 130.4,217.2 131.0,216.7 131.5,216.2 132.1,215.7 132.7,215.2 133.2,214.6 133.8,214.0 134.3,228.0 134.9,227.3 135.4,226.5 136.0,225.7 136.6,225.0 137.1,224.2 137.7,223.4 138.2,222.5 138.8,221.4 139.4,220.6 139.9,219.7 140.5,218.9 141.0,217.8 141.6,216.9 142.1,216.0 142.7,215.1 143.3,214.4 143.8,213.4 144.4,212.5 144.9,211.5 145.5,216.2 146.1,215.7 146.6,215.2 147.2,214.7 147.7,214.2 148.3,213.6 148.8,213.1 149.4,212.5 150.0,211.9 150.5,211.3 151.1,210.7 151.6,210.1 152.2,209.5 152.8,208.8 153.3,208.1 153.9,207.4 154.4,206.7 155.0,206.0 155.5,205.3 156.1,204.5 156.7,213.6 157.2,212.8 157.8,212.0 158.3,211.2 158.9,210.2 159.5,209.4 160.0,208.5 160.6,207.7 161.1,207.0 161.7,206.1 162.2,205.2 162.8,204.3 163.4,203.4 163.9,202.5 164.5,201.6 165.0,200.6 165.6,199.6 166.2,198.7 166.7,197.7 167.3,196.7 167.8,223.0 168.4,222.4 168.9,221.8 169.5,221.3 170.1,220.5 170.6,219.9 171.2,219.3 171.7,218.7 172.3,217.6 172.9,217.0 173.4,216.3 174.0,215.7 174.5,214.9 175.1,214.3 175.6,213.6 176.2,212.9 176.8,212.3 177.3,211.6 177.9,211.0 178.4,210.3 179.0,222.3 179.6,222.1 180.1,221.9 180.7,221.7 181.2,221.8 181.8,221.6 182.3,221.4 182.9,221.1 183.5,221.0 184.0,220.7 184.6,220.4 185.1,220.1 185.7,219.8 186.3,219.5 186.8,219.2 187.4,218.9 187.9,218.6 188.5,218.2 189.0,217.9 189.6,217.5 190.2,227.4 190.7,226.9 191.3,226.5 191.8,226.1 192.4,225.7 193.0,225.2 193.5,224.8 194.1,224.3 194.6,223.9 195.2,223.4 195.7,223.0 196.3,222.5 196.9,222.0 197.4,221.6 198.0,221.1 198.5,220.6 199.1,220.1 199.7,219.6 200.2,219.1 200.8,218.6 201.3,233.4 201.9,233.2 202.4,233.0 203.0,232.8 203.6,232.7 204.1,232.5 204.7,232.2 205.2,232.0 205.8,231.3 206.4,231.1 206.9,230.8 207.5,230.6 208.0,230.6 208.6,230.3 209.1,230.0 209.7,229.7 210.3,229.5 210.8,229.1 211.4,228.8 211.9,228.5 212.5,226.8 213.1,226.9 213.6,226.9 214.2,227.0 214.7,227.0 215.3,227.0 215.8,227.0 216.4,227.1 217.0,227.1 217.5,227.1 218.1,227.1 218.6,227.1 219.2,227.2 219.8,227.2 220.3,227.2 220.9,227.2 221.4,227.2 222.0,227.1 222.5,227.1 223.1,227.1 223.7,232.4 224.2,232.4 224.8,232.3 225.3,232.2 225.9,232.7 226.5,232.6 227.0,232.5 227.6,232.4 228.1,232.1 228.7,231.9 229.2,231.8 229.8,231.6 230.4,231.7 230.9,231.6 231.5,231.4 232.0,231.2 232.6,231.2 233.2,231.0 233.7,230.8 234.3,230.6 234.8,229.0 235.4,228.7 235.9,228.4 236.5,228.2 237.1,228.8 237.6,228.5 238.2,228.2 238.7,227.9 239.3,227.7 239.9,227.4 240.4,227.1 241.0,226.9 241.5,226.6 242.1,226.3 242.6,226.0 243.2,225.7 243.8,225.4 244.3,225.1 244.9,224.8 245.4,224.5 246.0,232.4 246.6,232.3 247.1,232.3 247.7,232.2 248.2,232.1 248.8,232.0 249.3,231.9 249.9,231.7 250.5,231.5 251.0,231.4 251.6,231.3 252.1,231.1 252.7,231.0 253.3,230.9 253.8,230.7 254.4,230.5 254.9,230.5 255.5,230.3 256.0,230.1 256.6,230.0 257.2,228.5 257.7,228.4 258.3,228.4 258.8,228.3 259.4,228.3 260.0,228.2 260.5,228.1 261.1,228.0 261.6,227.9 262.2,227.8 262.7,227.7 263.3,227.6 263.9,227.5 264.4,227.4 265.0,227.3 265.5,227.2 266.1,227.1 266.7,226.9 267.2,226.8 267.8,226.7 268.3,226.4 268.9,226.5 269.4,226.5 270.0,226.5 270.6,226.6 271.1,226.6 271.7,226.7 272.2,226.7 272.8,226.8 273.4,226.8 273.9,226.9 274.5,226.9 275.0,227.2 275.6,227.2 276.1,227.3 276.7,227.3 277.3,227.4 277.8,227.4 278.4,227.5 278.9,227.5 279.5,221.8 280.1,221.8 280.6,221.8 281.2,221.8 281.7,221.8 282.3,221.8 282.8,221.8 283.4,221.8 284.0,221.8 284.5,221.8 285.1,221.8 285.6,221.8 286.2,221.8 286.8,221.8 287.3,221.8 287.9,221.8 288.4,221.8 289.0,221.8 289.5,221.8 290.1,221.8 290.7,214.9 291.2,214.8 291.8,214.8 292.3,214.7 292.9,214.7 293.5,214.6 294.0,214.5 294.6,214.5 295.1,214.4 295.7,214.4 296.2,214.3 296.8,214.3 297.4,214.2 297.9,214.1 298.5,214.0 299.0,214.0 299.6,213.9 300.2,213.9 300.7,213.8 301.3,213.8 301.8,230.4 302.4,230.5 302.9,230.6 303.5,230.7 304.1,230.7 304.6,230.7 305.2,230.8 305.7,230.9 306.3,231.1 306.9,231.2 307.4,231.3 308.0,231.3 308.5,231.3 309.1,231.3 309.6,231.4 310.2,231.5 310.8,231.7 311.3,231.7 311.9,231.8 312.4,231.8 313.0,224.1 313.6,223.8 314.1,223.6 314.7,223.4 315.2,223.2 315.8,223.0 316.3,222.8 316.9,222.6 317.5,222.3 318.0,222.1 318.6,221.9 319.1,221.7 319.7,221.5 320.3,221.3 320.8,221.1 321.4,220.8 321.9,220.6 322.5,220.4 323.0,220.2 323.6,219.9 324.2,216.6 324.7,216.4 325.3,216.1 325.8,215.8 326.4,215.5 327.0,215.2 327.5,215.0 328.1,214.7 328.6,214.3 329.2,214.1 329.7,213.8 330.3,213.5 330.9,213.3 331.4,213.0 332.0,212.7 332.5,212.4 333.1,212.2 333.7,211.9 334.2,211.6 334.8,211.3 335.3,219.9 335.9,219.7 336.4,219.5 337.0,219.2 337.6,219.0 338.1,218.8 338.7,218.5 339.2,218.3 339.8,218.1 340.4,217.8 340.9,217.6 341.5,217.4 342.0,217.1 342.6,216.8 343.1,216.6 343.7,216.3 344.3,216.2 344.8,215.9 345.4,215.7 345.9,215.5 346.5,212.8 347.1,212.6 347.6,212.3 348.2,212.0 348.7,211.7 349.3,211.4 349.8,211.1 350.4,210.9 351.0,210.6 351.5,210.3 352.1,210.0 352.6,209.7 353.2,209.4 353.8,209.2 354.3,208.9 354.9,208.6 355.4,208.3 356.0,208.0 356.5,207.7 357.1,207.4 357.7,207.1 358.2,206.8 358.8,206.5 359.3,206.2 359.9,205.9 360.5,205.6 361.0,205.3 361.6,205.0 362.1,204.7 362.7,204.4 363.2,204.1 363.8,203.8 364.4,203.5 364.9,203.2 365.5,202.9 366.0,202.5 366.6,202.2 367.2,201.9 367.7,201.6 368.3,201.3 368.8,201.0 369.4,200.7 369.9,200.3 370.5,200.0 371.1,199.7 371.6,199.3 372.2,199.0 372.7,198.7 373.3,198.4 373.9,198.1 374.4,197.7 375.0,197.4 375.5,197.1 376.1,196.8 376.6,196.5 377.2,196.1 377.8,195.8 378.3,195.4 378.9,195.1 379.4,194.8 380.0,194.4 380.6,194.1 381.1,193.7 381.7,193.4 382.2,193.0 382.8,192.7 383.3,192.3 383.9,192.0 384.5,191.6 385.0,191.3 385.6,190.9 386.1,190.6 386.7,190.2 387.3,189.9 387.8,189.5 388.4,189.1 388.9,188.8 389.5,188.4 390.0,188.0 390.6,187.7 391.2,187.3 391.7,186.9 392.3,186.6 392.8,186.2 393.4,185.8 394.0,185.5 394.5,185.1 395.1,184.7 395.6,184.3 396.2,184.0 396.7,183.6 397.3,183.2 397.9,182.8 398.4,182.4 399.0,182.0 399.5,181.7 400.1,181.3 400.7,180.9 401.2,180.5 401.8,180.1 402.3,179.7 402.9,179.3 403.4,178.9 404.0,178.6 404.6,178.2 405.1,177.8 405.7,177.4 406.2,177.0 406.8,176.6 407.4,176.2 407.9,175.8 408.5,175.4 409.0,175.0 409.6,174.6 410.1,174.2 410.7,173.8 411.3,173.4 411.8,173.0 412.4,172.6 412.9,172.2 413.5,171.7 414.1,171.3 414.6,170.9 415.2,170.5 415.7,170.1 416.3,169.7 416.8,169.3 417.4,168.8 418.0,168.4 418.5,168.0 419.1,167.6 419.6,167.1 420.2,166.7 420.8,166.3 421.3,165.9 421.9,165.5 422.4,165.0 423.0,164.6 423.5,164.2 424.1,163.8 424.7,163.3 425.2,162.9 425.8,162.5 426.3,162.0 426.9,161.6 427.5,161.2 428.0,160.8 428.6,160.3 429.1,159.9 429.7,159.5 430.2,159.0 430.8,158.6 431.4,158.2 431.9,157.7 432.5,157.3 433.0,156.9 433.6,156.4 434.2,156.0 434.7,155.6 435.3,155.1 435.8,154.7 436.4,154.2 436.9,153.8 437.5,153.3 438.1,152.9 438.6,152.5 439.2,152.0 439.7,151.6 440.3,151.1 440.9,150.7 441.4,150.2 442.0,149.7 442.5,149.3 443.1,148.8 443.6,148.4 444.2,147.9 444.8,147.5 445.3,147.0 445.9,146.5 446.4,146.1 447.0,145.6 447.6,230.8 448.1,225.4 448.7,234.1 449.2,228.8 449.8,229.6 450.3,225.7 450.9,229.5 451.5,229.5 452.0,230.5 452.6,230.5 453.1,230.4 453.7,230.4 454.3,230.4 454.8,230.4 455.4,230.3 455.9,230.2 456.5,230.1 457.0,230.1 457.6,230.1 458.2,229.3 458.7,229.3 459.3,229.2 459.8,229.2 460.4,229.1 461.0,229.0 461.5,229.0 462.1,228.9 462.6,228.8 463.2,228.8 463.7,228.7 464.3,228.7 464.9,228.8 465.4,228.7 466.0,228.7 466.5,228.6 467.1,228.7 467.7,228.7 468.2,228.7 468.8,228.6 469.3,225.9 469.9,225.9 470.4,225.8 471.0,225.8 471.6,225.7 472.1,225.7 472.7,225.6 473.2,225.6 473.8,225.5 474.4,225.4 474.9,225.4 475.5,225.3 476.0,225.2 476.6,225.2 477.1,225.1 477.7,225.0 478.3,225.1 478.8,225.0 479.4,224.9 479.9,224.9 480.5,231.5 481.1,231.5 481.6,231.4 482.2,231.4 482.7,231.4 483.3,231.4 483.8,231.4 484.4,231.3 485.0,231.7 485.5,231.7 486.1,231.6 486.6,231.6 487.2,231.9 487.8,231.9 488.3,231.9 488.9,231.9 489.4,231.6 490.0,231.6 490.5,231.6 491.1,231.6 491.7,231.4 492.2,231.4 492.8,231.3 493.3,231.3 493.9,230.9 494.5,230.9 495.0,230.9 495.6,230.8 496.1,230.3 496.7,230.2 497.2,230.2 497.8,230.1 498.4,230.1 498.9,230.1 499.5,230.0 500.0,230.0 500.6,230.3 501.2,230.2 501.7,230.2 502.3,230.1 502.8,229.8 503.4,229.7 503.9,229.6 504.5,229.5 505.1,229.7 505.6,229.6 506.2,229.5 506.7,229.4 507.3,229.4 507.9,229.3 508.4,229.3 509.0,229.2 509.5,230.0 510.1,229.9 510.6,229.8 511.2,229.7 511.8,229.4 512.3,229.3 512.9,229.2 513.4,229.1 514.0,230.2 514.6,230.1 515.1,230.1 515.7,230.0 516.2,230.0 516.8,230.0 517.3,229.9 517.9,229.8 518.5,229.9 519.0,229.8 519.6,229.8 520.1,229.7 520.7,229.7 521.3,229.7 521.8,229.6 522.4,229.5 522.9,229.5 523.5,229.4 524.0,229.4 524.6,229.3 525.2,228.9 525.7,228.8 526.3,228.8 526.8,228.7 527.4,228.5 528.0,228.5 528.5,228.4 529.1,228.3 529.6,228.5 530.2,228.4 530.7,228.3 531.3,228.3 531.9,228.3 532.4,228.2 533.0,228.1 533.5,228.1 534.1,227.9 534.7,227.8 535.2,227.8 535.8,227.7 536.3,222.2 536.9,222.1 537.4,222.0 538.0,221.9 538.6,221.9 539.1,221.8 539.7,221.7 540.2,221.6 540.8,221.5 541.4,221.4 541.9,221.3 542.5,221.2 543.0,221.0 543.6,220.8 544.1,220.7 544.7,220.6 545.3,220.5 545.8,220.4 546.4,220.2 546.9,220.1 547.5,223.9 548.1,223.8 548.6,223.7 549.2,223.6 549.7,223.5 550.3,223.4 550.8,223.3 551.4,223.2 552.0,223.1 552.5,223.0 553.1,222.9 553.6,222.8 554.2,222.8 554.8,222.7 555.3,222.6 555.9,222.5 556.4,222.4 557.0,222.3 557.5,222.2 558.1,222.1 558.7,226.4 559.2,226.4 559.8,226.3 560.3,226.2 560.9,226.4 561.5,226.3 562.0,226.2 562.6,226.2 563.1,226.1 563.7,226.1 564.2,226.0 564.8,225.9 565.4,225.7 565.9,225.7 566.5,225.6 567.0,225.5 567.6,225.3 568.2,225.3 568.7,225.2 569.3,225.1 569.8,226.7 570.4,226.6 570.9,226.6 571.5,226.5 572.1,226.6 572.6,226.5 573.2,226.5 573.7,226.4 574.3,226.6 574.9,226.6 575.4,226.5 576.0,226.5 576.5,226.2 577.1,226.2 577.6,226.1 578.2,226.1 578.8,225.9 579.3,225.8 579.9,225.8 580.4,225.7 581.0,231.2 581.6,231.2 582.1,231.2 582.7,231.1 583.2,231.9 583.8,231.8 584.3,231.8 584.9,231.8 585.5,231.8 586.0,231.8 586.6,231.8 587.1,231.8 587.7,232.1 588.3,232.0 588.8,232.0 589.4,232.0 589.9,232.1 590.5,232.1 591.0,232.1 591.6,232.1 592.2,232.4 592.7,232.3 593.3,232.3 593.8,232.3 594.4,232.0 595.0,231.9 595.5,231.8 596.1,231.8 596.6,232.0 597.2,231.9 597.7,231.9 598.3,231.8 598.9,231.8 599.4,231.8 600.0,231.7 600.5,231.7 601.1,231.4 601.7,231.4 602.2,231.3 602.8,231.2 603.3,228.1 603.9,228.1 604.4,228.0 605.0,227.9 605.6,227.9 606.1,227.8 606.7,227.7 607.2,227.7 607.8,227.8 608.4,227.7 608.9,227.6 609.5,227.5 610.0,227.6 610.6,227.5 611.1,227.4 611.7,227.4 612.3,227.1 612.8,227.0 613.4,227.0 613.9,226.9 614.5,231.2 615.1,231.2 615.6,231.1 616.2,231.1 616.7,230.8 617.3,230.8 617.8,230.7 618.4,230.7 619.0,230.6 619.5,230.5 620.1,230.5 620.6,230.4 621.2,230.3 621.8,230.2 622.3,230.1 622.9,230.1 623.4,230.6 624.0,230.5 624.5,230.5 625.1,230.5 625.7,229.4 626.2,229.3 626.8,229.2 627.3,229.2 627.9,229.4 628.5,229.3 629.0,229.3 629.6,229.2 630.1,229.3 630.7,229.3 631.2,229.2 631.8,229.2 632.4,229.2 632.9,229.1 633.5,229.1 634.0,229.0 634.6,228.8 635.2,228.8 635.7,228.7 636.3,228.7 636.8,233.0 637.4,233.0 637.9,233.0 638.5,232.9 639.1,232.9 639.6,232.9 640.2,232.8 640.7,232.8 641.3,233.3 641.9,233.2 642.4,233.2 643.0,233.2 643.5,233.1 644.1,233.1 644.6,233.1 645.2,233.0 645.8,233.0 646.3,233.0 646.9,232.9 647.4,232.9 648.0,230.6 648.6,230.6 649.1,230.6 649.7,230.5 650.2,230.5 650.8,230.5 651.3,230.5 651.9,230.4 652.5,230.4 653.0,230.3 653.6,230.3 654.1,230.2 654.7,230.2 655.3,230.2 655.8,230.1 656.4,230.1 656.9,230.1 657.5,230.0 658.0,230.0 658.6,229.9 659.2,228.1 659.7,228.0 660.3,228.0 660.8,227.9 661.4,227.9 662.0,227.8 662.5,227.7 663.1,227.7 663.6,227.5 664.2,227.5 664.7,227.4 665.3,227.3 665.9,227.4 666.4,227.3 667.0,227.3 667.5,227.2 668.1,227.1 668.7,227.1 669.2,227.0 669.8,227.0 670.3,235.0 670.9,235.0 671.4,235.0 672.0,235.0 672.6,235.0 673.1,235.0 673.7,235.0 674.2,235.0 674.8,234.9 675.4,234.9 675.9,234.9 676.5,234.9 677.0,234.9 677.6,234.9 678.1,234.9 678.7,234.9 679.3,235.0 679.8,235.0 680.4,235.0 680.9,235.0 681.5,233.1 682.1,233.1 682.6,233.0 683.2,233.0 683.7,233.1 684.3,233.1 684.8,233.0 685.4,233.0 686.0,232.9 686.5,232.9 687.1,232.8 687.6,232.8 688.2,232.2 688.8,232.1 689.3,232.1 689.9,232.1 690.4,231.5 691.0,231.4 691.5,231.4 692.1,231.3 692.7,228.4 693.2,228.4 693.8,228.3 694.3,228.2 694.9,228.3 695.5,228.3 696.0,228.2 696.6,228.1 697.1,227.8 697.7,227.8 698.2,227.7 698.8,227.6 699.4,228.1 699.9,228.0 700.5,228.0 701.0,227.9 701.6,227.5 702.2,227.5 702.7,227.4 703.3,227.3 703.8,229.8 704.4,229.7 704.9,229.7 705.5,229.6 706.1,230.5 706.6,230.4 707.2,230.4 707.7,230.3 708.3,230.3 708.9,230.2 709.4,230.2 710.0,230.2 710.5,229.7 711.1,229.6 711.6,229.6 712.2,229.5 712.8,229.3 713.3,229.2 713.9,229.2 714.4,229.1 715.0,231.4"/>
<text x="45" y="268" font-family="Arial" font-size="12">time (s)</text>
<text x="575" y="268" font-family="Arial" font-size="12">m</text>
</svg>