<svg xmlns="http://www.w3.org/2000/svg" width="760" height="280" viewBox="0 0 760 280">
<rect width="100%" height="100%" fill="white"/>
<text x="45" y="28" font-family="Arial" font-size="18" font-weight="700">Nominal Position Error</text>
<line x1="45" y1="235" x2="715" y2="235" stroke="#222"/>
<line x1="45" y1="45" x2="45" y2="235" stroke="#222"/>
<polyline fill="none" stroke="#0f766e" stroke-width="2.5" points="45.0,228.0 45.6,228.7 46.1,225.7 46.7,220.9 47.2,215.5 47.8,209.9 48.3,204.1 48.9,198.3 49.5,192.5 50.0,186.7 50.6,180.8 51.1,174.9 51.7,169.0 52.3,163.1 52.8,157.2 53.4,151.3 53.9,145.4 54.5,139.5 55.0,133.6 55.6,127.7 56.2,136.4 56.7,131.7 57.3,127.0 57.8,122.2 58.4,117.5 59.0,112.7 59.5,107.9 60.1,103.1 60.6,98.3 61.2,93.5 61.7,88.7 62.3,83.9 62.9,79.0 63.4,74.2 64.0,69.3 64.5,64.5 65.1,59.6 65.7,54.7 66.2,49.9 66.8,45.0 67.3,105.8 67.9,103.1 68.4,100.3 69.0,97.6 69.6,94.8 70.1,92.0 70.7,89.3 71.2,86.5 71.8,83.8 72.4,81.0 72.9,78.2 73.5,75.5 74.0,72.7 74.6,69.9 75.1,67.2 75.7,64.4 76.3,61.6 76.8,58.9 77.4,56.1 77.9,53.3 78.5,155.6 79.1,154.9 79.6,154.2 80.2,153.4 80.7,152.7 81.3,152.0 81.8,151.2 82.4,150.5 83.0,149.8 83.5,149.1 84.1,148.4 84.6,147.6 85.2,146.9 85.8,146.2 86.3,145.5 86.9,144.8 87.4,144.1 88.0,143.4 88.5,142.7 89.1,142.0 89.7,187.9 90.2,188.0 90.8,188.1 91.3,188.2 91.9,188.2 92.5,188.3 93.0,188.4 93.6,188.5 94.1,188.6 94.7,188.7 95.2,188.8 95.8,189.0 96.4,189.1 96.9,189.2 97.5,189.4 98.0,189.5 98.6,189.7 99.2,189.9 99.7,190.0 100.3,190.2 100.8,210.1 101.4,210.5 101.9,211.0 102.5,211.5 103.1,211.9 103.6,212.4 104.2,212.8 104.7,213.3 105.3,214.0 105.9,214.5 106.4,215.0 107.0,215.6 107.5,216.2 108.1,216.7 108.6,217.3 109.2,217.9 109.8,218.4 110.3,219.0 110.9,219.6 111.4,220.2 112.0,223.8 112.6,224.5 113.1,225.2 113.7,225.9 114.2,226.6 114.8,227.3 115.3,228.0 115.9,228.7 116.5,229.3 117.0,230.0 117.6,230.6 118.1,231.3 118.7,231.9 119.3,232.5 119.8,232.9 120.4,233.3 120.9,233.6 121.5,233.6 122.0,233.3 122.6,232.9 123.2,220.5 123.7,219.5 124.3,218.4 124.8,217.4 125.4,216.3 126.0,215.3 126.5,214.2 127.1,213.1 127.6,212.0 128.2,210.9 128.7,209.8 129.3,208.6 129.9,207.5 130.4,206.3 131.0,205.2 131.5,204.0 132.1,202.8 132.7,201.6 133.2,200.4 133.8,199.2 134.3,221.2 134.9,220.3 135.4,219.4 136.0,218.5 136.6,217.6 137.1,216.7 137.7,215.8 138.2,214.8 138.8,213.8 139.4,212.9 139.9,211.9 140.5,210.9 141.0,209.9 141.6,208.9 142.1,207.9 142.7,206.9 143.3,206.0 143.8,204.9 144.4,203.9 144.9,202.9 145.5,210.0 146.1,209.1 146.6,208.3 147.2,207.4 147.7,206.5 148.3,205.6 148.8,204.8 149.4,203.9 150.0,203.0 150.5,202.1 151.1,201.2 151.6,200.2 152.2,199.3 152.8,198.4 153.3,197.5 153.9,196.5 154.4,195.6 155.0,194.6 155.5,193.6 156.1,192.7 156.7,213.3 157.2,212.6 157.8,211.9 158.3,211.2 158.9,210.4 159.5,209.7 160.0,209.0 160.6,208.2 161.1,207.6 161.7,206.8 162.2,206.1 162.8,205.3 163.4,204.6 163.9,203.8 164.5,203.1 165.0,202.3 165.6,201.5 166.2,200.7 166.7,199.9 167.3,199.1 167.8,220.6 168.4,220.1 168.9,219.7 169.5,219.2 170.1,218.7 170.6,218.3 171.2,217.8 171.7,217.3 172.3,216.7 172.9,216.2 173.4,215.7 174.0,215.2 174.5,214.7 175.1,214.2 175.6,213.7 176.2,213.2 176.8,212.7 177.3,212.2 177.9,211.7 178.4,211.2 179.0,218.4 179.6,218.1 180.1,217.8 180.7,217.5 181.2,217.3 181.8,216.9 182.3,216.6 182.9,216.3 183.5,216.0 184.0,215.7 184.6,215.3 185.1,215.0 185.7,214.7 186.3,214.3 186.8,214.0 187.4,213.6 187.9,213.3 188.5,212.9 189.0,212.6 189.6,212.2 190.2,226.9 190.7,226.6 191.3,226.4 191.8,226.1 192.4,225.9 193.0,225.6 193.5,225.4 194.1,225.1 194.6,224.8 195.2,224.6 195.7,224.3 196.3,224.0 196.9,223.7 197.4,223.4 198.0,223.1 198.5,222.8 199.1,222.5 199.7,222.2 200.2,221.9 200.8,221.6 201.3,229.4 201.9,229.3 202.4,229.2 203.0,229.1 203.6,229.0 204.1,228.8 204.7,228.7 205.2,228.6 205.8,228.3 206.4,228.2 206.9,228.1 207.5,227.9 208.0,227.8 208.6,227.7 209.1,227.5 209.7,227.4 210.3,227.2 210.8,227.0 211.4,226.9 211.9,226.7 212.5,227.9 213.1,227.9 213.6,227.9 214.2,227.9 214.7,227.9 215.3,227.9 215.8,227.8 216.4,227.8 217.0,227.8 217.5,227.8 218.1,227.8 218.6,227.8 219.2,227.8 219.8,227.7 220.3,227.7 220.9,227.7 221.4,227.6 222.0,227.6 222.5,227.6 223.1,227.5 223.7,232.2 224.2,232.1 224.8,232.1 225.3,232.0 225.9,232.1 226.5,232.0 227.0,231.9 227.6,231.8 228.1,231.6 228.7,231.5 229.2,231.4 229.8,231.3 230.4,231.2 230.9,231.1 231.5,230.9 232.0,230.8 232.6,230.7 233.2,230.5 233.7,230.3 234.3,230.2 234.8,230.5 235.4,230.3 235.9,230.1 236.5,229.9 237.1,229.9 237.6,229.7 238.2,229.5 238.7,229.3 239.3,229.1 239.9,228.8 240.4,228.6 241.0,228.4 241.5,228.1 242.1,227.9 242.6,227.6 243.2,227.4 243.8,227.2 244.3,226.9 244.9,226.7 245.4,226.4 246.0,233.2 246.6,233.1 247.1,233.0 247.7,232.8 248.2,232.7 248.8,232.5 249.3,232.4 249.9,232.2 250.5,232.0 251.0,231.9 251.6,231.7 252.1,231.5 252.7,231.3 253.3,231.1 253.8,231.0 254.4,230.8 254.9,230.6 255.5,230.4 256.0,230.2 256.6,230.0 257.2,230.4 257.7,230.2 258.3,230.0 258.8,229.8 259.4,229.6 260.0,229.4 260.5,229.1 261.1,228.9 261.6,228.7 262.2,228.5 262.7,228.2 263.3,228.0 263.9,227.8 264.4,227.5 265.0,227.3 265.5,227.1 266.1,226.8 266.7,226.6 267.2,226.3 267.8,226.1 268.3,234.0 268.9,234.1 269.4,234.2 270.0,234.3 270.6,234.3 271.1,234.4 271.7,234.5 272.2,234.5 272.8,234.6 273.4,234.6 273.9,234.6 274.5,234.7 275.0,235.0 275.6,235.0 276.1,234.9 276.7,234.9 277.3,234.9 277.8,234.8 278.4,234.7 278.9,234.6 279.5,229.7 280.1,229.7 280.6,229.6 281.2,229.6 281.7,229.6 282.3,229.5 282.8,229.5 283.4,229.4 284.0,229.4 284.5,229.3 285.1,229.2 285.6,229.2 286.2,229.1 286.8,229.0 287.3,228.9 287.9,228.8 288.4,228.8 289.0,228.7 289.5,228.6 290.1,228.5 290.7,227.7 291.2,227.7 291.8,227.8 292.3,227.9 292.9,227.9 293.5,228.0 294.0,228.0 294.6,228.1 295.1,228.1 295.7,228.2 296.2,228.2 296.8,228.3 297.4,228.3 297.9,228.3 298.5,228.4 299.0,228.4 299.6,228.5 300.2,228.5 300.7,228.6 301.3,228.6 301.8,230.9 302.4,230.8 302.9,230.7 303.5,230.5 304.1,230.4 304.6,230.2 305.2,230.1 305.7,229.9 306.3,229.8 306.9,229.6 307.4,229.4 308.0,229.3 308.5,229.0 309.1,228.9 309.6,228.7 310.2,228.5 310.8,228.4 311.3,228.2 311.9,228.0 312.4,227.8 313.0,223.8 313.6,223.5 314.1,223.3 314.7,223.0 315.2,222.8 315.8,222.5 316.3,222.3 316.9,222.0 317.5,221.8 318.0,221.5 318.6,221.2 319.1,221.0 319.7,220.7 320.3,220.5 320.8,220.2 321.4,220.0 321.9,219.7 322.5,219.4 323.0,219.1 323.6,218.9 324.2,219.3 324.7,219.0 325.3,218.7 325.8,218.5 326.4,218.2 327.0,217.9 327.5,217.6 328.1,217.3 328.6,217.0 329.2,216.7 329.7,216.4 330.3,216.1 330.9,215.9 331.4,215.6 332.0,215.3 332.5,215.0 333.1,214.7 333.7,214.4 334.2,214.1 334.8,213.8 335.3,221.0 335.9,220.7 336.4,220.5 337.0,220.3 337.6,220.0 338.1,219.7 338.7,219.5 339.2,219.2 339.8,219.0 340.4,218.7 340.9,218.5 341.5,218.2 342.0,217.9 342.6,217.6 343.1,217.4 343.7,217.1 344.3,216.9 344.8,216.6 345.4,216.3 345.9,216.1 346.5,217.8 347.1,217.6 347.6,217.3 348.2,217.1 348.7,216.8 349.3,216.5 349.8,216.3 350.4,216.0 351.0,215.8 351.5,215.5 352.1,215.2 352.6,215.0 353.2,214.7 353.8,214.4 354.3,214.2 354.9,213.9 355.4,213.6 356.0,213.4 356.5,213.1 357.1,212.8 357.7,212.5 358.2,212.3 358.8,212.0 359.3,211.7 359.9,211.4 360.5,211.1 361.0,210.9 361.6,210.6 362.1,210.3 362.7,210.0 363.2,209.7 363.8,209.4 364.4,209.1 364.9,208.8 365.5,208.6 366.0,208.3 366.6,208.0 367.2,207.7 367.7,207.4 368.3,207.1 368.8,206.8 369.4,206.5 369.9,206.2 370.5,205.9 371.1,205.6 371.6,205.3 372.2,204.9 372.7,204.6 373.3,204.3 373.9,204.0 374.4,203.7 375.0,203.4 375.5,203.1 376.1,202.8 376.6,202.5 377.2,202.2 377.8,201.8 378.3,201.5 378.9,201.2 379.4,200.9 380.0,200.5 380.6,200.2 381.1,199.9 381.7,199.5 382.2,199.2 382.8,198.9 383.3,198.5 383.9,198.2 384.5,197.9 385.0,197.5 385.6,197.2 386.1,196.9 386.7,196.5 387.3,196.2 387.8,195.8 388.4,195.5 388.9,195.1 389.5,194.8 390.0,194.4 390.6,194.1 391.2,193.7 391.7,193.4 392.3,193.0 392.8,192.6 393.4,192.3 394.0,191.9 394.5,191.6 395.1,191.2 395.6,190.8 396.2,190.5 396.7,190.1 397.3,189.7 397.9,189.4 398.4,189.0 399.0,188.6 399.5,188.3 400.1,187.9 400.7,187.5 401.2,187.1 401.8,186.8 402.3,186.4 402.9,186.0 403.4,185.6 404.0,185.2 404.6,184.9 405.1,184.5 405.7,184.1 406.2,183.7 406.8,183.3 407.4,182.9 407.9,182.5 408.5,182.1 409.0,181.8 409.6,181.4 410.1,181.0 410.7,180.6 411.3,180.2 411.8,179.8 412.4,179.4 412.9,179.0 413.5,178.5 414.1,178.1 414.6,177.7 415.2,177.3 415.7,176.9 416.3,176.5 416.8,176.1 417.4,175.7 418.0,175.3 418.5,174.8 419.1,174.4 419.6,174.0 420.2,173.6 420.8,173.2 421.3,172.8 421.9,172.3 422.4,171.9 423.0,171.5 423.5,171.1 424.1,170.6 424.7,170.2 425.2,169.8 425.8,169.3 426.3,168.9 426.9,168.5 427.5,168.1 428.0,167.6 428.6,167.2 429.1,166.8 429.7,166.3 430.2,165.9 430.8,165.4 431.4,165.0 431.9,164.6 432.5,164.1 433.0,163.7 433.6,163.2 434.2,162.8 434.7,162.4 435.3,161.9 435.8,161.5 436.4,161.0 436.9,160.6 437.5,160.1 438.1,159.7 438.6,159.2 439.2,158.8 439.7,158.3 440.3,157.9 440.9,157.4 441.4,156.9 442.0,156.5 442.5,156.0 443.1,155.6 443.6,155.1 444.2,154.6 444.8,154.2 445.3,153.7 445.9,153.2 446.4,152.8 447.0,152.3 447.6,224.6 448.1,223.2 448.7,229.6 449.2,227.6 449.8,228.8 450.3,227.1 450.9,229.7 451.5,230.2 452.0,230.9 452.6,230.8 453.1,230.7 453.7,230.6 454.3,230.5 454.8,230.4 455.4,230.3 455.9,230.2 456.5,230.0 457.0,229.9 457.6,229.8 458.2,229.5 458.7,229.4 459.3,229.3 459.8,229.2 460.4,229.1 461.0,228.9 461.5,228.8 462.1,228.7 462.6,228.6 463.2,228.5 463.7,228.4 464.3,228.3 464.9,228.1 465.4,228.0 466.0,227.9 466.5,227.8 467.1,227.7 467.7,227.6 468.2,227.5 468.8,227.4 469.3,226.3 469.9,226.2 470.4,226.1 471.0,225.9 471.6,225.8 472.1,225.7 472.7,225.6 473.2,225.4 473.8,225.3 474.4,225.2 474.9,225.1 475.5,224.9 476.0,224.8 476.6,224.7 477.1,224.6 477.7,224.4 478.3,224.3 478.8,224.2 479.4,224.0 479.9,223.9 480.5,228.2 481.1,228.1 481.6,228.0 482.2,227.9 482.7,227.8 483.3,227.7 483.8,227.6 484.4,227.5 485.0,227.5 485.5,227.4 486.1,227.3 486.6,227.2 487.2,227.1 487.8,227.0 488.3,226.9 488.9,226.8 489.4,226.7 490.0,226.5 490.5,226.4 491.1,226.3 491.7,227.7 492.2,227.6 492.8,227.5 493.3,227.4 493.9,227.2 494.5,227.1 495.0,227.0 495.6,226.9 496.1,226.7 496.7,226.6 497.2,226.5 497.8,226.4 498.4,226.3 498.9,226.2 499.5,226.1 500.0,226.0 500.6,225.9 501.2,225.8 501.7,225.7 502.3,225.6 502.8,230.6 503.4,230.5 503.9,230.4 504.5,230.4 505.1,230.4 505.6,230.3 506.2,230.2 506.7,230.1 507.3,230.1 507.9,230.0 508.4,229.9 509.0,229.8 509.5,230.0 510.1,230.0 510.6,229.9 511.2,229.8 511.8,229.6 512.3,229.6 512.9,229.5 513.4,229.4 514.0,230.5 514.6,230.4 515.1,230.3 515.7,230.3 516.2,230.2 516.8,230.1 517.3,230.1 517.9,230.0 518.5,230.0 519.0,229.9 519.6,229.8 520.1,229.7 520.7,229.7 521.3,229.6 521.8,229.5 522.4,229.5 522.9,229.4 523.5,229.3 524.0,229.2 524.6,229.2 525.2,229.0 525.7,228.9 526.3,228.9 526.8,228.8 527.4,228.7 528.0,228.6 528.5,228.5 529.1,228.4 529.6,228.4 530.2,228.3 530.7,228.3 531.3,228.2 531.9,228.1 532.4,228.1 533.0,228.0 533.5,227.9 534.1,227.8 534.7,227.7 535.2,227.6 535.8,227.5 536.3,230.2 536.9,230.1 537.4,230.1 538.0,230.0 538.6,230.0 539.1,230.0 539.7,229.9 540.2,229.9 540.8,229.8 541.4,229.8 541.9,229.7 542.5,229.7 543.0,229.5 543.6,229.5 544.1,229.4 544.7,229.4 545.3,229.3 545.8,229.2 546.4,229.1 546.9,229.1 547.5,232.1 548.1,232.0 548.6,232.0 549.2,231.9 549.7,231.8 550.3,231.8 550.8,231.7 551.4,231.7 552.0,231.6 552.5,231.6 553.1,231.5 553.6,231.5 554.2,231.5 554.8,231.4 555.3,231.3 555.9,231.3 556.4,231.2 557.0,231.2 557.5,231.1 558.1,231.1 558.7,229.4 559.2,229.4 559.8,229.3 560.3,229.3 560.9,229.3 561.5,229.2 562.0,229.2 562.6,229.1 563.1,229.0 563.7,229.0 564.2,228.9 564.8,228.9 565.4,228.7 565.9,228.7 566.5,228.6 567.0,228.5 567.6,228.4 568.2,228.3 568.7,228.3 569.3,228.2 569.8,230.1 570.4,230.1 570.9,230.0 571.5,230.0 572.1,230.0 572.6,229.9 573.2,229.9 573.7,229.8 574.3,229.8 574.9,229.8 575.4,229.7 576.0,229.7 576.5,229.5 577.1,229.4 577.6,229.4 578.2,229.3 578.8,229.2 579.3,229.1 579.9,229.1 580.4,229.0 581.0,231.0 581.6,230.9 582.1,230.9 582.7,230.8 583.2,231.0 583.8,230.9 584.3,230.9 584.9,230.8 585.5,230.8 586.0,230.7 586.6,230.7 587.1,230.6 587.7,230.6 588.3,230.6 588.8,230.5 589.4,230.5 589.9,230.4 590.5,230.4 591.0,230.3 591.6,230.3 592.2,228.0 592.7,227.9 593.3,227.9 593.8,227.8 594.4,227.7 595.0,227.6 595.5,227.6 596.1,227.5 596.6,227.4 597.2,227.4 597.7,227.3 598.3,227.2 598.9,227.1 599.4,227.1 600.0,227.0 600.5,226.9 601.1,226.8 601.7,226.7 602.2,226.7 602.8,226.6 603.3,227.0 603.9,227.0 604.4,226.9 605.0,226.8 605.6,226.7 606.1,226.7 606.7,226.6 607.2,226.5 607.8,226.5 608.4,226.4 608.9,226.3 609.5,226.2 610.0,226.2 610.6,226.1 611.1,226.0 611.7,225.9 612.3,225.8 612.8,225.8 613.4,225.7 613.9,225.6 614.5,228.6 615.1,228.5 615.6,228.4 616.2,228.4 616.7,228.3 617.3,228.2 617.8,228.1 618.4,228.1 619.0,228.0 619.5,227.9 620.1,227.9 620.6,227.8 621.2,227.7 621.8,227.6 622.3,227.6 622.9,227.5 623.4,227.5 624.0,227.5 624.5,227.4 625.1,227.3 625.7,228.2 626.2,228.1 626.8,228.1 627.3,228.0 627.9,228.0 628.5,227.9 629.0,227.9 629.6,227.8 630.1,227.8 630.7,227.7 631.2,227.6 631.8,227.6 632.4,227.5 632.9,227.4 633.5,227.4 634.0,227.3 634.6,227.2 635.2,227.1 635.7,227.0 636.3,227.0 636.8,230.0 637.4,229.9 637.9,229.8 638.5,229.8 639.1,229.7 639.6,229.7 640.2,229.6 640.7,229.6 641.3,229.6 641.9,229.5 642.4,229.5 643.0,229.4 643.5,229.4 644.1,229.3 644.6,229.2 645.2,229.2 645.8,229.1 646.3,229.1 646.9,229.0 647.4,229.0 648.0,230.3 648.6,230.3 649.1,230.2 649.7,230.2 650.2,230.1 650.8,230.1 651.3,230.0 651.9,230.0 652.5,229.9 653.0,229.9 653.6,229.8 654.1,229.8 654.7,229.8 655.3,229.7 655.8,229.7 656.4,229.6 656.9,229.6 657.5,229.5 658.0,229.5 658.6,229.4 659.2,232.6 659.7,232.6 660.3,232.6 660.8,232.6 661.4,232.6 662.0,232.6 662.5,232.5 663.1,232.5 663.6,232.4 664.2,232.4 664.7,232.4 665.3,232.3 665.9,232.4 666.4,232.3 667.0,232.3 667.5,232.3 668.1,232.2 668.7,232.2 669.2,232.2 669.8,232.1 670.3,232.6 670.9,232.5 671.4,232.5 672.0,232.5 672.6,232.4 673.1,232.4 673.7,232.4 674.2,232.3 674.8,232.3 675.4,232.3 675.9,232.2 676.5,232.2 677.0,232.1 677.6,232.1 678.1,232.1 678.7,232.0 679.3,232.0 679.8,231.9 680.4,231.9 680.9,231.9 681.5,231.2 682.1,231.1 682.6,231.1 683.2,231.0 683.7,231.0 684.3,230.9 684.8,230.9 685.4,230.8 686.0,230.8 686.5,230.7 687.1,230.7 687.6,230.6 688.2,230.4 688.8,230.4 689.3,230.3 689.9,230.3 690.4,230.1 691.0,230.0 691.5,230.0 692.1,229.9 692.7,232.2 693.2,232.2 693.8,232.2 694.3,232.1 694.9,232.1 695.5,232.1 696.0,232.1 696.6,232.0 697.1,231.8 697.7,231.8 698.2,231.7 698.8,231.7 699.4,231.9 699.9,231.9 700.5,231.9 701.0,231.8 701.6,231.6 702.2,231.5 702.7,231.5 703.3,231.4 703.8,232.4 704.4,232.4 704.9,232.3 705.5,232.3 706.1,232.6 706.6,232.6 707.2,232.6 707.7,232.5 708.3,232.5 708.9,232.4 709.4,232.4 710.0,232.4 710.5,232.1 711.1,232.1 711.6,232.0 712.2,232.0 712.8,231.8 713.3,231.8 713.9,231.8 714.4,231.7 715.0,233.6"/>
<text x="45" y="268" font-family="Arial" font-size="12">time (s)</text>
<text x="575" y="268" font-family="Arial" font-size="12">m</text>
</svg>