<svg xmlns="http://www.w3.org/2000/svg" width="760" height="280" viewBox="0 0 760 280">
<rect width="100%" height="100%" fill="white"/>
<text x="45" y="28" font-family="Arial" font-size="18" font-weight="700">Nominal Covariance Trace</text>
<line x1="45" y1="235" x2="715" y2="235" stroke="#222"/>
<line x1="45" y1="45" x2="45" y2="235" stroke="#222"/>
<polyline fill="none" stroke="#0f766e" stroke-width="2.5" points="45.0,187.1 45.6,186.5 46.1,184.8 46.7,182.1 47.2,182.3 47.8,178.6 48.3,174.1 48.9,168.9 49.5,166.7 50.0,161.1 50.6,155.1 51.1,148.7 51.7,144.5 52.3,137.9 52.8,131.1 53.4,124.0 53.9,118.4 54.5,111.2 55.0,103.8 55.6,96.3 56.2,163.1 56.7,158.0 57.3,152.8 57.8,147.5 58.4,143.0 59.0,137.6 59.5,132.1 60.1,126.5 60.6,121.5 61.2,115.9 61.7,110.1 62.3,104.4 62.9,99.0 63.4,93.2 64.0,87.3 64.5,81.4 65.1,75.8 65.7,69.8 66.2,63.8 66.8,57.8 67.3,154.5 67.9,151.0 68.4,147.5 69.0,143.9 69.6,140.7 70.1,137.1 70.7,133.4 71.2,129.7 71.8,126.3 72.4,122.6 72.9,118.8 73.5,115.0 74.0,111.5 74.6,107.7 75.1,103.8 75.7,99.9 76.3,96.2 76.8,92.3 77.4,88.4 77.9,84.4 78.5,160.5 79.1,158.0 79.6,155.5 80.2,152.9 80.7,150.6 81.3,148.0 81.8,145.4 82.4,142.7 83.0,140.3 83.5,137.6 84.1,134.9 84.6,132.1 85.2,129.6 85.8,126.8 86.3,123.9 86.9,121.1 87.4,118.4 88.0,115.5 88.5,112.6 89.1,109.6 89.7,167.4 90.2,165.4 90.8,163.3 91.3,161.2 91.9,159.4 92.5,157.2 93.0,155.1 93.6,152.8 94.1,150.9 94.7,148.6 95.2,146.3 95.8,144.0 96.4,141.9 96.9,139.5 97.5,137.1 98.0,134.6 98.6,132.4 99.2,129.9 99.7,127.3 100.3,124.7 100.8,172.3 101.4,170.5 101.9,168.6 102.5,166.6 103.1,164.9 103.6,162.9 104.2,160.8 104.7,158.7 105.3,156.9 105.9,154.7 106.4,152.5 107.0,150.3 107.5,148.3 108.1,146.0 108.6,143.6 109.2,141.2 109.8,139.0 110.3,136.6 110.9,134.1 111.4,131.6 112.0,174.8 112.6,172.9 113.1,171.0 113.7,169.0 114.2,167.2 114.8,165.2 115.3,163.1 115.9,161.0 116.5,159.0 117.0,156.8 117.6,154.6 118.1,152.3 118.7,150.2 119.3,147.8 119.8,145.4 120.4,143.0 120.9,140.7 121.5,138.2 122.0,135.6 122.6,133.0 123.2,175.3 123.7,173.3 124.3,171.4 124.8,169.3 125.4,167.5 126.0,165.4 126.5,163.2 127.1,161.1 127.6,159.0 128.2,156.8 128.7,154.5 129.3,152.1 129.9,149.9 130.4,147.5 131.0,145.0 131.5,142.5 132.1,140.2 132.7,137.6 133.2,135.0 133.8,132.3 134.3,175.1 134.9,173.1 135.4,171.1 136.0,169.1 136.6,167.1 137.1,165.0 137.7,162.9 138.2,160.7 138.8,158.6 139.4,156.4 139.9,154.1 140.5,151.8 141.0,149.5 141.6,147.2 142.1,144.7 142.7,142.3 143.3,139.9 143.8,137.3 144.4,134.8 144.9,132.2 145.5,175.0 146.1,173.1 146.6,171.2 147.2,169.2 147.7,167.3 148.3,165.3 148.8,163.2 149.4,161.1 150.0,159.0 150.5,156.9 151.1,154.6 151.6,152.4 152.2,150.2 152.8,147.9 153.3,145.6 153.9,143.3 154.4,141.0 155.0,138.5 155.5,136.1 156.1,133.6 156.7,175.6 157.2,173.8 157.8,172.0 158.3,170.1 158.9,168.3 159.5,166.3 160.0,164.3 160.6,162.3 161.1,160.4 161.7,158.4 162.2,156.3 162.8,154.2 163.4,152.1 163.9,150.0 164.5,147.8 165.0,145.6 165.6,143.4 166.2,141.2 166.7,138.9 167.3,136.6 167.8,176.8 168.4,175.1 168.9,173.4 169.5,171.6 170.1,169.9 170.6,168.1 171.2,166.3 171.7,164.4 172.3,162.6 172.9,160.7 173.4,158.8 174.0,156.8 174.5,154.9 175.1,152.9 175.6,150.9 176.2,148.9 176.8,146.9 177.3,144.8 177.9,142.7 178.4,140.6 179.0,178.5 179.6,176.9 180.1,175.3 180.7,173.6 181.2,172.1 181.8,170.4 182.3,168.7 182.9,167.0 183.5,165.3 184.0,163.6 184.6,161.8 185.1,160.0 185.7,158.3 186.3,156.4 186.8,154.6 187.4,152.7 187.9,150.9 188.5,149.0 189.0,147.1 189.6,145.1 190.2,180.4 190.7,178.9 191.3,177.4 191.8,175.9 192.4,174.5 193.0,172.9 193.5,171.4 194.1,169.8 194.6,168.3 195.2,166.7 195.7,165.0 196.3,163.4 196.9,161.8 197.4,160.1 198.0,158.4 198.5,156.7 199.1,155.0 199.7,153.3 200.2,151.6 200.8,149.8 201.3,182.5 201.9,181.1 202.4,179.7 203.0,178.3 203.6,177.0 204.1,175.6 204.7,174.1 205.2,172.7 205.8,171.3 206.4,169.8 206.9,168.3 207.5,166.8 208.0,165.3 208.6,163.8 209.1,162.2 209.7,160.7 210.3,159.2 210.8,157.6 211.4,156.0 211.9,154.4 212.5,184.6 213.1,183.3 213.6,182.0 214.2,180.7 214.7,179.5 215.3,178.2 215.8,176.9 216.4,175.5 217.0,174.2 217.5,172.9 218.1,171.5 218.6,170.1 219.2,168.8 219.8,167.4 220.3,165.9 220.9,164.5 221.4,163.1 222.0,161.7 222.5,160.2 223.1,158.7 223.7,186.6 224.2,185.5 224.8,184.3 225.3,183.1 225.9,181.9 226.5,180.7 227.0,179.5 227.6,178.3 228.1,177.1 228.7,175.8 229.2,174.6 229.8,173.3 230.4,172.1 230.9,170.8 231.5,169.4 232.0,168.1 232.6,166.9 233.2,165.5 233.7,164.2 234.3,162.8 234.8,188.7 235.4,187.6 235.9,186.5 236.5,185.4 237.1,184.3 237.6,183.2 238.2,182.0 238.7,180.9 239.3,179.8 239.9,178.6 240.4,177.5 241.0,176.3 241.5,175.1 242.1,174.0 242.6,172.7 243.2,171.5 243.8,170.4 244.3,169.1 244.9,167.9 245.4,166.6 246.0,190.6 246.6,189.6 247.1,188.6 247.7,187.5 248.2,186.5 248.8,185.5 249.3,184.4 249.9,183.4 250.5,182.4 251.0,181.3 251.6,180.2 252.1,179.1 252.7,178.1 253.3,176.9 253.8,175.8 254.4,174.7 254.9,173.6 255.5,172.5 256.0,171.3 256.6,170.2 257.2,192.5 257.7,191.5 258.3,190.6 258.8,189.6 259.4,188.7 260.0,187.7 260.5,186.7 261.1,185.7 261.6,184.8 262.2,183.8 262.7,182.8 263.3,181.7 263.9,180.8 264.4,179.7 265.0,178.7 265.5,177.6 266.1,176.6 266.7,175.6 267.2,174.5 267.8,173.4 268.3,194.2 268.9,193.3 269.4,192.4 270.0,191.5 270.6,190.7 271.1,189.8 271.7,188.9 272.2,187.9 272.8,187.0 273.4,186.1 273.9,185.2 274.5,184.2 275.0,183.3 275.6,182.3 276.1,181.4 276.7,180.4 277.3,179.4 277.8,178.4 278.4,177.5 278.9,176.4 279.5,195.9 280.1,195.1 280.6,194.2 281.2,193.4 281.7,192.6 282.3,191.7 282.8,190.9 283.4,190.0 284.0,189.2 284.5,188.3 285.1,187.4 285.6,186.5 286.2,185.7 286.8,184.7 287.3,183.8 287.9,182.9 288.4,182.0 289.0,181.1 289.5,180.2 290.1,179.2 290.7,197.5 291.2,196.7 291.8,195.9 292.3,195.1 292.9,194.4 293.5,193.6 294.0,192.7 294.6,191.9 295.1,191.2 295.7,190.3 296.2,189.5 296.8,188.6 297.4,187.9 297.9,187.0 298.5,186.1 299.0,185.3 299.6,184.5 300.2,183.6 300.7,182.7 301.3,181.8 301.8,199.0 302.4,198.3 302.9,197.5 303.5,196.8 304.1,196.1 304.6,195.3 305.2,194.5 305.7,193.7 306.3,193.0 306.9,192.2 307.4,191.4 308.0,190.7 308.5,189.9 309.1,189.1 309.6,188.3 310.2,187.5 310.8,186.7 311.3,185.9 311.9,185.1 312.4,184.2 313.0,200.4 313.6,199.7 314.1,199.0 314.7,198.3 315.2,197.6 315.8,196.9 316.3,196.2 316.9,195.5 317.5,194.8 318.0,194.0 318.6,193.3 319.1,192.5 319.7,191.8 320.3,191.1 320.8,190.3 321.4,189.5 321.9,188.8 322.5,188.0 323.0,187.2 323.6,186.5 324.2,201.8 324.7,201.1 325.3,200.4 325.8,199.8 326.4,199.1 327.0,198.4 327.5,197.7 328.1,197.0 328.6,196.4 329.2,195.7 329.7,195.0 330.3,194.3 330.9,193.6 331.4,192.9 332.0,192.2 332.5,191.4 333.1,190.7 333.7,190.0 334.2,189.3 334.8,188.5 335.3,203.1 335.9,202.4 336.4,201.8 337.0,201.1 337.6,200.5 338.1,199.9 338.7,199.2 339.2,198.5 339.8,197.9 340.4,197.3 340.9,196.6 341.5,195.9 342.0,195.3 342.6,194.6 343.1,193.9 343.7,193.2 344.3,192.6 344.8,191.9 345.4,191.1 345.9,190.4 346.5,204.3 347.1,203.7 347.6,203.0 348.2,202.4 348.7,201.8 349.3,201.2 349.8,200.6 350.4,200.0 351.0,199.4 351.5,198.7 352.1,198.1 352.6,197.4 353.2,196.8 353.8,196.2 354.3,195.5 354.9,194.9 355.4,194.2 356.0,193.6 356.5,192.9 357.1,192.2 357.7,191.6 358.2,190.9 358.8,190.2 359.3,189.5 359.9,188.9 360.5,188.2 361.0,187.5 361.6,186.8 362.1,186.1 362.7,185.4 363.2,184.7 363.8,184.0 364.4,183.3 364.9,182.6 365.5,181.9 366.0,181.1 366.6,180.4 367.2,179.7 367.7,179.0 368.3,178.2 368.8,177.5 369.4,176.8 369.9,176.0 370.5,175.3 371.1,174.6 371.6,173.8 372.2,173.0 372.7,172.3 373.3,171.5 373.9,170.8 374.4,170.0 375.0,169.2 375.5,168.5 376.1,167.7 376.6,166.9 377.2,166.1 377.8,165.3 378.3,164.5 378.9,163.7 379.4,162.9 380.0,162.2 380.6,161.4 381.1,160.5 381.7,159.7 382.2,158.9 382.8,158.1 383.3,157.3 383.9,156.5 384.5,155.7 385.0,154.8 385.6,154.0 386.1,153.2 386.7,152.3 387.3,151.5 387.8,150.7 388.4,149.8 388.9,149.0 389.5,148.1 390.0,147.3 390.6,146.4 391.2,145.6 391.7,144.7 392.3,143.8 392.8,142.9 393.4,142.1 394.0,141.2 394.5,140.3 395.1,139.4 395.6,138.6 396.2,137.7 396.7,136.8 397.3,135.9 397.9,135.0 398.4,134.1 399.0,133.2 399.5,132.3 400.1,131.4 400.7,130.5 401.2,129.6 401.8,128.6 402.3,127.7 402.9,126.8 403.4,125.9 404.0,125.0 404.6,124.0 405.1,123.1 405.7,122.2 406.2,121.2 406.8,120.3 407.4,119.3 407.9,118.4 408.5,117.4 409.0,116.5 409.6,115.5 410.1,114.6 410.7,113.6 411.3,112.7 411.8,111.7 412.4,110.7 412.9,109.7 413.5,108.8 414.1,107.8 414.6,106.8 415.2,105.8 415.7,104.8 416.3,103.8 416.8,102.8 417.4,101.8 418.0,100.9 418.5,99.8 419.1,98.8 419.6,97.8 420.2,96.8 420.8,95.8 421.3,94.8 421.9,93.8 422.4,92.8 423.0,91.7 423.5,90.7 424.1,89.7 424.7,88.6 425.2,87.6 425.8,86.5 426.3,85.5 426.9,84.5 427.5,83.4 428.0,82.4 428.6,81.3 429.1,80.3 429.7,79.2 430.2,78.1 430.8,77.1 431.4,76.0 431.9,74.9 432.5,73.9 433.0,72.8 433.6,71.7 434.2,70.6 434.7,69.5 435.3,68.5 435.8,67.4 436.4,66.3 436.9,65.2 437.5,64.1 438.1,63.0 438.6,61.9 439.2,60.8 439.7,59.7 440.3,58.6 440.9,57.4 441.4,56.3 442.0,55.2 442.5,54.1 443.1,53.0 443.6,51.8 444.2,50.7 444.8,49.6 445.3,48.4 445.9,47.3 446.4,46.1 447.0,45.0 447.6,153.8 448.1,184.8 448.7,200.9 449.2,211.3 449.8,218.5 450.3,224.0 450.9,228.3 451.5,231.9 452.0,234.8 452.6,234.5 453.1,234.2 453.7,234.0 454.3,233.7 454.8,233.5 455.4,233.2 455.9,233.0 456.5,232.7 457.0,232.4 457.6,232.1 458.2,235.0 458.7,234.7 459.3,234.4 459.8,234.1 460.4,233.9 461.0,233.6 461.5,233.3 462.1,233.0 462.6,232.8 463.2,232.4 463.7,232.1 464.3,231.8 464.9,231.6 465.4,231.2 466.0,230.9 466.5,230.6 467.1,230.3 467.7,230.0 468.2,229.7 468.8,229.3 469.3,232.7 469.9,232.4 470.4,232.0 471.0,231.7 471.6,231.4 472.1,231.1 472.7,230.8 473.2,230.4 473.8,230.2 474.4,229.8 474.9,229.5 475.5,229.1 476.0,228.8 476.6,228.5 477.1,228.1 477.7,227.8 478.3,227.5 478.8,227.1 479.4,226.7 479.9,226.4 480.5,230.2 481.1,229.9 481.6,229.5 482.2,229.2 482.7,228.9 483.3,228.5 483.8,228.1 484.4,227.8 485.0,227.5 485.5,227.1 486.1,226.7 486.6,226.3 487.2,226.0 487.8,225.6 488.3,225.3 488.9,224.9 489.4,224.5 490.0,224.1 490.5,223.8 491.1,223.4 491.7,227.8 492.2,227.4 492.8,227.0 493.3,226.7 493.9,226.3 494.5,226.0 495.0,225.6 495.6,225.2 496.1,224.9 496.7,224.5 497.2,224.1 497.8,223.7 498.4,223.3 498.9,222.9 499.5,222.5 500.0,222.1 500.6,221.8 501.2,221.3 501.7,220.9 502.3,220.5 502.8,225.5 503.4,225.1 503.9,224.7 504.5,224.3 505.1,224.0 505.6,223.6 506.2,223.2 506.7,222.8 507.3,222.5 507.9,222.0 508.4,221.6 509.0,221.2 509.5,220.9 510.1,220.4 510.6,220.0 511.2,219.6 511.8,219.2 512.3,218.8 512.9,218.4 513.4,217.9 514.0,223.5 514.6,223.1 515.1,222.7 515.7,222.3 516.2,222.0 516.8,221.6 517.3,221.2 517.9,220.7 518.5,220.4 519.0,220.0 519.6,219.5 520.1,219.1 520.7,218.8 521.3,218.3 521.8,217.9 522.4,217.5 522.9,217.1 523.5,216.7 524.0,216.2 524.6,215.8 525.2,215.4 525.7,214.9 526.3,214.5 526.8,214.0 527.4,213.7 528.0,213.2 528.5,212.7 529.1,212.3 529.6,211.9 530.2,211.4 530.7,211.0 531.3,210.5 531.9,210.1 532.4,209.6 533.0,209.1 533.5,208.7 534.1,208.2 534.7,207.8 535.2,207.3 535.8,206.8 536.3,215.3 536.9,214.9 537.4,214.4 538.0,214.0 538.6,213.6 539.1,213.1 539.7,212.7 540.2,212.3 540.8,211.9 541.4,211.4 541.9,211.0 542.5,210.5 543.0,210.1 543.6,209.6 544.1,209.2 544.7,208.7 545.3,208.3 545.8,207.8 546.4,207.4 546.9,206.9 547.5,215.4 548.1,214.9 548.6,214.5 549.2,214.1 549.7,213.7 550.3,213.3 550.8,212.8 551.4,212.4 552.0,212.0 552.5,211.6 553.1,211.1 553.6,210.7 554.2,210.3 554.8,209.9 555.3,209.4 555.9,209.0 556.4,208.6 557.0,208.1 557.5,207.6 558.1,207.2 558.7,215.6 559.2,215.2 559.8,214.7 560.3,214.3 560.9,214.0 561.5,213.5 562.0,213.1 562.6,212.7 563.1,212.3 563.7,211.9 564.2,211.5 564.8,211.0 565.4,210.6 565.9,210.2 566.5,209.8 567.0,209.3 567.6,208.9 568.2,208.5 568.7,208.0 569.3,207.6 569.8,215.9 570.4,215.5 570.9,215.1 571.5,214.6 572.1,214.3 572.6,213.9 573.2,213.5 573.7,213.0 574.3,212.7 574.9,212.3 575.4,211.8 576.0,211.4 576.5,211.0 577.1,210.6 577.6,210.2 578.2,209.8 578.8,209.4 579.3,208.9 579.9,208.5 580.4,208.1 581.0,216.2 581.6,215.8 582.1,215.4 582.7,215.0 583.2,214.7 583.8,214.3 584.3,213.9 584.9,213.4 585.5,213.1 586.0,212.7 586.6,212.3 587.1,211.8 587.7,211.5 588.3,211.1 588.8,210.6 589.4,210.2 589.9,209.8 590.5,209.4 591.0,209.0 591.6,208.6 592.2,216.6 592.7,216.2 593.3,215.8 593.8,215.4 594.4,215.1 595.0,214.7 595.5,214.3 596.1,213.9 596.6,213.5 597.2,213.1 597.7,212.7 598.3,212.3 598.9,211.9 599.4,211.5 600.0,211.1 600.5,210.7 601.1,210.3 601.7,209.9 602.2,209.5 602.8,209.1 603.3,216.9 603.9,216.6 604.4,216.2 605.0,215.8 605.6,215.5 606.1,215.1 606.7,214.7 607.2,214.3 607.8,213.9 608.4,213.5 608.9,213.1 609.5,212.7 610.0,212.4 610.6,212.0 611.1,211.6 611.7,211.2 612.3,210.8 612.8,210.4 613.4,210.0 613.9,209.6 614.5,217.3 615.1,216.9 615.6,216.5 616.2,216.2 616.7,215.8 617.3,215.5 617.8,215.1 618.4,214.7 619.0,214.3 619.5,214.0 620.1,213.6 620.6,213.2 621.2,212.8 621.8,212.4 622.3,212.0 622.9,211.6 623.4,211.3 624.0,210.9 624.5,210.4 625.1,210.0 625.7,217.7 626.2,217.3 626.8,216.9 627.3,216.5 627.9,216.2 628.5,215.8 629.0,215.4 629.6,215.1 630.1,214.7 630.7,214.3 631.2,213.9 631.8,213.6 632.4,213.2 632.9,212.8 633.5,212.4 634.0,212.0 634.6,211.7 635.2,211.3 635.7,210.9 636.3,210.5 636.8,218.0 637.4,217.6 637.9,217.2 638.5,216.9 639.1,216.5 639.6,216.2 640.2,215.8 640.7,215.4 641.3,215.1 641.9,214.7 642.4,214.3 643.0,213.9 643.5,213.6 644.1,213.2 644.6,212.8 645.2,212.4 645.8,212.1 646.3,211.7 646.9,211.3 647.4,210.9 648.0,218.3 648.6,217.9 649.1,217.5 649.7,217.2 650.2,216.8 650.8,216.5 651.3,216.1 651.9,215.7 652.5,215.4 653.0,215.0 653.6,214.6 654.1,214.2 654.7,213.9 655.3,213.5 655.8,213.1 656.4,212.8 656.9,212.4 657.5,212.0 658.0,211.6 658.6,211.2 659.2,218.5 659.7,218.2 660.3,217.8 660.8,217.4 661.4,217.1 662.0,216.7 662.5,216.4 663.1,216.0 663.6,215.7 664.2,215.3 664.7,214.9 665.3,214.5 665.9,214.2 666.4,213.8 667.0,213.4 667.5,213.1 668.1,212.7 668.7,212.3 669.2,211.9 669.8,211.5 670.3,218.8 670.9,218.4 671.4,218.0 672.0,217.7 672.6,217.4 673.1,217.0 673.7,216.6 674.2,216.2 674.8,215.9 675.4,215.6 675.9,215.2 676.5,214.8 677.0,214.5 677.6,214.1 678.1,213.7 678.7,213.3 679.3,213.0 679.8,212.6 680.4,212.2 680.9,211.8 681.5,219.0 682.1,218.6 682.6,218.2 683.2,217.9 683.7,217.6 684.3,217.2 684.8,216.8 685.4,216.5 686.0,216.1 686.5,215.8 687.1,215.4 687.6,215.0 688.2,214.7 688.8,214.3 689.3,213.9 689.9,213.6 690.4,213.2 691.0,212.8 691.5,212.4 692.1,212.1 692.7,219.1 693.2,218.8 693.8,218.4 694.3,218.1 694.9,217.8 695.5,217.4 696.0,217.0 696.6,216.6 697.1,216.3 697.7,216.0 698.2,215.6 698.8,215.2 699.4,214.9 699.9,214.5 700.5,214.1 701.0,213.7 701.6,213.4 702.2,213.0 702.7,212.6 703.3,212.3 703.8,219.3 704.4,218.9 704.9,218.6 705.5,218.2 706.1,217.9 706.6,217.5 707.2,217.2 707.7,216.8 708.3,216.5 708.9,216.1 709.4,215.7 710.0,215.4 710.5,215.1 711.1,214.7 711.6,214.3 712.2,213.9 712.8,213.6 713.3,213.2 713.9,212.8 714.4,212.4 715.0,219.4"/>
<text x="45" y="268" font-family="Arial" font-size="12">time (s)</text>
<text x="575" y="268" font-family="Arial" font-size="12">sqrt(trace P)</text>
</svg>