<svg xmlns="http://www.w3.org/2000/svg" width="820" height="320" viewBox="0 0 820 320">
<rect width="100%" height="100%" fill="white"/>
<text x="52" y="30" font-family="Arial" font-size="18" font-weight="700">ekf_dropout_robust altitude</text>
<line x1="52" y1="274" x2="796" y2="274" stroke="#263238"/>
<line x1="52" y1="42" x2="52" y2="274" stroke="#263238"/>
<text x="52" y="306" font-family="Arial" font-size="12">time (s)</text>
<text x="630" y="306" font-family="Arial" font-size="12">m</text>

<rect x="349.6" y="42" width="148.8" height="232" fill="#fef3c7" opacity="0.72"/>
<polyline fill="none" stroke="#0f766e" stroke-width="2.3" points="52.0,206.7 52.8,206.5 53.7,206.4 54.5,206.3 55.3,206.1 56.1,206.0 57.0,205.8 57.8,205.7 58.6,205.5 59.4,205.4 60.3,205.3 61.1,205.1 61.9,205.0 62.7,204.8 63.6,204.7 64.4,204.6 65.2,204.4 66.1,204.3 66.9,204.2 67.7,204.0 68.5,203.9 69.4,203.7 70.2,203.6 71.0,203.4 71.8,203.3 72.7,203.2 73.5,203.0 74.3,202.9 75.1,202.7 76.0,202.6 76.8,202.4 77.6,202.3 78.5,202.1 79.3,201.9 80.1,201.8 80.9,201.6 81.8,201.5 82.6,201.3 83.4,201.1 84.2,201.0 85.1,200.8 85.9,200.6 86.7,200.4 87.5,200.2 88.4,200.0 89.2,199.9 90.0,199.7 90.9,199.5 91.7,199.3 92.5,199.1 93.3,198.9 94.2,198.6 95.0,198.4 95.8,198.2 96.6,198.0 97.5,197.8 98.3,197.5 99.1,197.3 99.9,197.1 100.8,196.8 101.6,196.6 102.4,196.3 103.3,196.1 104.1,195.8 104.9,195.5 105.7,195.3 106.6,195.0 107.4,194.7 108.2,194.4 109.0,194.1 109.9,193.9 110.7,193.6 111.5,193.2 112.3,192.9 113.2,192.6 114.0,192.3 114.8,192.0 115.7,191.6 116.5,191.3 117.3,191.0 118.1,190.6 119.0,190.3 119.8,189.9 120.6,189.5 121.4,189.2 122.3,188.8 123.1,188.4 123.9,188.0 124.7,187.6 125.6,187.2 126.4,186.8 127.2,186.4 128.1,186.0 128.9,185.6 129.7,185.2 130.5,184.7 131.4,184.3 132.2,183.9 133.0,183.4 133.8,182.9 134.7,182.5 135.5,182.0 136.3,181.5 137.1,181.1 138.0,180.6 138.8,180.1 139.6,179.6 140.5,179.1 141.3,178.6 142.1,178.1 142.9,177.5 143.8,177.0 144.6,176.5 145.4,175.9 146.2,175.4 147.1,174.8 147.9,174.3 148.7,173.7 149.5,173.1 150.4,172.6 151.2,172.0 152.0,171.4 152.9,170.8 153.7,170.2 154.5,169.6 155.3,169.0 156.2,168.4 157.0,167.8 157.8,167.2 158.6,166.5 159.5,165.9 160.3,165.2 161.1,164.6 161.9,164.0 162.8,163.3 163.6,162.6 164.4,162.0 165.3,161.3 166.1,160.6 166.9,159.9 167.7,159.3 168.6,158.6 169.4,157.9 170.2,157.2 171.0,156.5 171.9,155.8 172.7,155.1 173.5,154.3 174.3,153.6 175.2,152.9 176.0,152.2 176.8,151.4 177.7,150.7 178.5,150.0 179.3,149.2 180.1,148.5 181.0,147.7 181.8,147.0 182.6,146.2 183.4,145.4 184.3,144.7 185.1,143.9 185.9,143.1 186.7,142.4 187.6,141.6 188.4,140.8 189.2,140.0 190.1,139.2 190.9,138.5 191.7,137.7 192.5,136.9 193.4,136.1 194.2,135.3 195.0,134.5 195.8,133.7 196.7,132.9 197.5,132.1 198.3,131.3 199.1,130.5 200.0,129.7 200.8,128.9 201.6,128.1 202.5,127.2 203.3,126.4 204.1,125.6 204.9,124.8 205.8,124.0 206.6,123.2 207.4,122.4 208.2,121.6 209.1,120.7 209.9,119.9 210.7,119.1 211.5,118.3 212.4,117.5 213.2,116.7 214.0,115.9 214.9,115.0 215.7,114.2 216.5,113.4 217.3,112.6 218.2,111.8 219.0,111.0 219.8,110.2 220.6,109.4 221.5,108.6 222.3,107.8 223.1,107.0 223.9,106.2 224.8,105.4 225.6,104.6 226.4,103.8 227.3,103.0 228.1,102.2 228.9,101.4 229.7,100.7 230.6,99.9 231.4,99.1 232.2,98.3 233.0,97.6 233.9,96.8 234.7,96.0 235.5,95.3 236.3,94.5 237.2,93.8 238.0,93.0 238.8,92.3 239.7,91.5 240.5,90.8 241.3,90.1 242.1,89.3 243.0,88.6 243.8,87.9 244.6,87.2 245.4,86.5 246.3,85.8 247.1,85.1 247.9,84.4 248.7,83.7 249.6,83.0 250.4,82.3 251.2,81.7 252.1,81.0 252.9,80.3 253.7,79.7 254.5,79.0 255.4,78.4 256.2,77.8 257.0,77.1 257.8,76.5 258.7,75.9 259.5,75.3 260.3,74.7 261.1,74.1 262.0,73.5 262.8,72.9 263.6,72.3 264.5,71.7 265.3,71.2 266.1,70.6 266.9,70.1 267.8,69.5 268.6,69.0 269.4,68.5 270.2,67.9 271.1,67.4 271.9,66.9 272.7,66.4 273.5,65.9 274.4,65.5 275.2,65.0 276.0,64.5 276.9,64.1 277.7,63.6 278.5,63.2 279.3,62.7 280.2,62.3 281.0,61.9 281.8,61.5 282.6,61.1 283.5,60.7 284.3,60.3 285.1,59.9 285.9,59.5 286.8,59.2 287.6,58.8 288.4,58.5 289.3,58.1 290.1,57.8 290.9,57.5 291.7,57.2 292.6,56.9 293.4,56.6 294.2,56.3 295.0,56.1 295.9,55.8 296.7,55.5 297.5,55.3 298.3,55.0 299.2,54.8 300.0,54.6 300.8,54.4 301.7,54.2 302.5,54.0 303.3,53.8 304.1,53.6 305.0,53.5 305.8,53.3 306.6,53.2 307.4,53.0 308.3,52.9 309.1,52.8 309.9,52.7 310.7,52.5 311.6,52.5 312.4,52.4 313.2,52.3 314.1,52.2 314.9,52.2 315.7,52.1 316.5,52.1 317.4,52.0 318.2,52.0 319.0,52.0 319.8,52.0 320.7,52.0 321.5,52.0 322.3,52.0 323.1,52.0 324.0,52.1 324.8,52.1 325.6,52.2 326.5,52.2 327.3,52.3 328.1,52.4 328.9,52.4 329.8,52.5 330.6,52.6 331.4,52.7 332.2,52.9 333.1,53.0 333.9,53.1 334.7,53.3 335.5,53.4 336.4,53.6 337.2,53.7 338.0,53.9 338.9,54.1 339.7,54.3 340.5,54.4 341.3,54.6 342.2,54.8 343.0,55.1 343.8,55.3 344.6,55.5 345.5,55.7 346.3,56.0 347.1,56.2 347.9,56.5 348.8,56.7 349.6,57.0 350.4,57.3 351.3,57.6 352.1,57.9 352.9,58.1 353.7,58.4 354.6,58.7 355.4,59.1 356.2,59.4 357.0,59.7 357.9,60.0 358.7,60.3 359.5,60.7 360.3,61.0 361.2,61.4 362.0,61.7 362.8,62.1 363.7,62.4 364.5,62.8 365.3,63.2 366.1,63.6 367.0,63.9 367.8,64.3 368.6,64.7 369.4,65.1 370.3,65.5 371.1,65.9 371.9,66.3 372.7,66.7 373.6,67.1 374.4,67.5 375.2,68.0 376.1,68.4 376.9,68.8 377.7,69.2 378.5,69.7 379.4,70.1 380.2,70.5 381.0,71.0 381.8,71.4 382.7,71.9 383.5,72.3 384.3,72.7 385.1,73.2 386.0,73.6 386.8,74.1 387.6,74.5 388.5,75.0 389.3,75.5 390.1,75.9 390.9,76.4 391.8,76.8 392.6,77.3 393.4,77.8 394.2,78.2 395.1,78.7 395.9,79.1 396.7,79.6 397.5,80.1 398.4,80.5 399.2,81.0 400.0,81.5 400.9,81.9 401.7,82.4 402.5,82.9 403.3,83.3 404.2,83.8 405.0,84.2 405.8,84.7 406.6,85.2 407.5,85.6 408.3,86.1 409.1,86.5 409.9,87.0 410.8,87.4 411.6,87.9 412.4,88.3 413.3,88.8 414.1,89.2 414.9,89.7 415.7,90.1 416.6,90.6 417.4,91.0 418.2,91.4 419.0,91.9 419.9,92.3 420.7,92.7 421.5,93.1 422.3,93.5 423.2,94.0 424.0,94.4 424.8,94.8 425.7,95.2 426.5,95.6 427.3,96.0 428.1,96.4 429.0,96.8 429.8,97.2 430.6,97.6 431.4,97.9 432.3,98.3 433.1,98.7 433.9,99.1 434.7,99.4 435.6,99.8 436.4,100.2 437.2,100.5 438.1,100.9 438.9,101.2 439.7,101.5 440.5,101.9 441.4,102.2 442.2,102.5 443.0,102.8 443.8,103.2 444.7,103.5 445.5,103.8 446.3,104.1 447.1,104.4 448.0,104.7 448.8,104.9 449.6,105.2 450.5,105.5 451.3,105.8 452.1,106.0 452.9,106.3 453.8,106.5 454.6,106.8 455.4,107.0 456.2,107.3 457.1,107.5 457.9,107.7 458.7,107.9 459.5,108.1 460.4,108.3 461.2,108.5 462.0,108.7 462.9,108.9 463.7,109.1 464.5,109.3 465.3,109.5 466.2,109.6 467.0,109.8 467.8,109.9 468.6,110.1 469.5,110.2 470.3,110.4 471.1,110.5 471.9,110.6 472.8,110.7 473.6,110.8 474.4,111.0 475.3,111.1 476.1,111.1 476.9,111.2 477.7,111.3 478.6,111.4 479.4,111.5 480.2,111.5 481.0,111.6 481.9,111.6 482.7,111.7 483.5,111.7 484.3,111.8 485.2,111.8 486.0,111.8 486.8,111.8 487.7,111.9 488.5,111.9 489.3,111.9 490.1,111.9 491.0,111.9 491.8,111.8 492.6,111.8 493.4,111.8 494.3,111.8 495.1,111.7 495.9,111.7 496.7,111.6 497.6,111.6 498.4,111.5 499.2,111.5 500.1,111.4 500.9,111.3 501.7,111.3 502.5,111.2 503.4,111.1 504.2,111.0 505.0,110.9 505.8,110.8 506.7,110.7 507.5,110.6 508.3,110.5 509.1,110.4 510.0,110.2 510.8,110.1 511.6,110.0 512.5,109.9 513.3,109.7 514.1,109.6 514.9,109.4 515.8,109.3 516.6,109.1 517.4,109.0 518.2,108.8 519.1,108.7 519.9,108.5 520.7,108.3 521.5,108.2 522.4,108.0 523.2,107.8 524.0,107.6 524.9,107.5 525.7,107.3 526.5,107.1 527.3,106.9 528.2,106.7 529.0,106.5 529.8,106.3 530.6,106.1 531.5,105.9 532.3,105.7 533.1,105.5 533.9,105.3 534.8,105.1 535.6,104.9 536.4,104.7 537.3,104.5 538.1,104.3 538.9,104.1 539.7,103.9 540.6,103.7 541.4,103.4 542.2,103.2 543.0,103.0 543.9,102.8 544.7,102.6 545.5,102.4 546.3,102.2 547.2,102.0 548.0,101.8 548.8,101.5 549.7,101.3 550.5,101.1 551.3,100.9 552.1,100.7 553.0,100.5 553.8,100.3 554.6,100.1 555.4,99.9 556.3,99.7 557.1,99.5 557.9,99.3 558.7,99.1 559.6,98.9 560.4,98.7 561.2,98.5 562.1,98.3 562.9,98.1 563.7,98.0 564.5,97.8 565.4,97.6 566.2,97.4 567.0,97.3 567.8,97.1 568.7,96.9 569.5,96.8 570.3,96.6 571.1,96.4 572.0,96.3 572.8,96.2 573.6,96.0 574.5,95.9 575.3,95.7 576.1,95.6 576.9,95.5 577.8,95.4 578.6,95.2 579.4,95.1 580.2,95.0 581.1,94.9 581.9,94.8 582.7,94.7 583.5,94.6 584.4,94.6 585.2,94.5 586.0,94.4 586.9,94.3 587.7,94.3 588.5,94.2 589.3,94.2 590.2,94.1 591.0,94.1 591.8,94.1 592.6,94.0 593.5,94.0 594.3,94.0 595.1,94.0 595.9,94.0 596.8,94.0 597.6,94.0 598.4,94.1 599.3,94.1 600.1,94.1 600.9,94.2 601.7,94.2 602.6,94.3 603.4,94.3 604.2,94.4 605.0,94.5 605.9,94.6 606.7,94.7 607.5,94.8 608.3,94.9 609.2,95.0 610.0,95.1 610.8,95.2 611.7,95.4 612.5,95.5 613.3,95.7 614.1,95.8 615.0,96.0 615.8,96.2 616.6,96.4 617.4,96.6 618.3,96.8 619.1,97.0 619.9,97.2 620.7,97.5 621.6,97.7 622.4,97.9 623.2,98.2 624.1,98.5 624.9,98.7 625.7,99.0 626.5,99.3 627.4,99.6 628.2,99.9 629.0,100.2 629.8,100.6 630.7,100.9 631.5,101.2 632.3,101.6 633.1,102.0 634.0,102.3 634.8,102.7 635.6,103.1 636.5,103.5 637.3,103.9 638.1,104.3 638.9,104.7 639.8,105.2 640.6,105.6 641.4,106.1 642.2,106.5 643.1,107.0 643.9,107.5 644.7,107.9 645.5,108.4 646.4,108.9 647.2,109.5 648.0,110.0 648.9,110.5 649.7,111.0 650.5,111.6 651.3,112.1 652.2,112.7 653.0,113.3 653.8,113.9 654.6,114.5 655.5,115.1 656.3,115.7 657.1,116.3 657.9,116.9 658.8,117.5 659.6,118.2 660.4,118.8 661.3,119.5 662.1,120.2 662.9,120.8 663.7,121.5 664.6,122.2 665.4,122.9 666.2,123.6 667.0,124.3 667.9,125.1 668.7,125.8 669.5,126.5 670.3,127.3 671.2,128.0 672.0,128.8 672.8,129.6 673.7,130.3 674.5,131.1 675.3,131.9 676.1,132.7 677.0,133.5 677.8,134.3 678.6,135.1 679.4,136.0 680.3,136.8 681.1,137.6 681.9,138.5 682.7,139.3 683.6,140.2 684.4,141.1 685.2,141.9 686.1,142.8 686.9,143.7 687.7,144.6 688.5,145.5 689.4,146.4 690.2,147.3 691.0,148.2 691.8,149.2 692.7,150.1 693.5,151.0 694.3,151.9 695.1,152.9 696.0,153.8 696.8,154.8 697.6,155.7 698.5,156.7 699.3,157.7 700.1,158.7 700.9,159.6 701.8,160.6 702.6,161.6 703.4,162.6 704.2,163.6 705.1,164.6 705.9,165.6 706.7,166.6 707.5,167.6 708.4,168.6 709.2,169.6 710.0,170.6 710.9,171.7 711.7,172.7 712.5,173.7 713.3,174.7 714.2,175.8 715.0,176.8 715.8,177.9 716.6,178.9 717.5,179.9 718.3,181.0 719.1,182.0 719.9,183.1 720.8,184.1 721.6,185.2 722.4,186.2 723.3,187.3 724.1,188.4 724.9,189.4 725.7,190.5 726.6,191.5 727.4,192.6 728.2,193.7 729.0,194.7 729.9,195.8 730.7,196.9 731.5,197.9 732.3,199.0 733.2,200.1 734.0,201.1 734.8,202.2 735.7,203.3 736.5,204.3 737.3,205.4 738.1,206.5 739.0,207.5 739.8,208.6 740.6,209.6 741.4,210.7 742.3,211.8 743.1,212.8 743.9,213.9 744.7,214.9 745.6,216.0 746.4,217.1 747.2,218.1 748.1,219.2 748.9,220.2 749.7,221.2 750.5,222.3 751.4,223.3 752.2,224.4 753.0,225.4 753.8,226.4 754.7,227.5 755.5,228.5 756.3,229.5 757.1,230.6 758.0,231.6 758.8,232.6 759.6,233.6 760.5,234.6 761.3,235.6 762.1,236.6 762.9,237.6 763.8,238.6 764.6,239.6 765.4,240.6 766.2,241.6 767.1,242.6 767.9,243.6 768.7,244.5 769.5,245.5 770.4,246.5 771.2,247.4 772.0,248.4 772.9,249.3 773.7,250.3 774.5,251.2 775.3,252.2 776.2,253.1 777.0,254.0 777.8,254.9 778.6,255.9 779.5,256.8 780.3,257.7 781.1,258.6 781.9,259.5 782.8,260.4 783.6,261.3 784.4,262.2 785.3,263.0 786.1,263.9 786.9,264.8 787.7,265.6 788.6,266.5 789.4,267.3 790.2,268.2 791.0,269.0 791.9,269.9 792.7,270.7 793.5,271.5 794.3,272.3 795.2,273.1 796.0,273.9"/>
<text x="640" y="56" font-family="Arial" font-size="12" fill="#0f766e">truth</text>
<polyline fill="none" stroke="#2563eb" stroke-width="2.3" points="52.0,207.3 52.8,207.1 53.7,206.8 54.5,206.6 55.3,204.5 56.1,204.1 57.0,203.7 57.8,203.3 58.6,202.7 59.4,202.3 60.3,201.9 61.1,201.5 61.9,203.6 62.7,203.4 63.6,203.2 64.4,203.0 65.2,210.0 66.1,210.3 66.9,210.7 67.7,211.0 68.5,208.6 69.4,208.8 70.2,209.0 71.0,209.2 71.8,207.0 72.7,207.1 73.5,207.1 74.3,207.1 75.1,205.9 76.0,205.8 76.8,205.8 77.6,205.7 78.5,207.0 79.3,207.0 80.1,207.0 80.9,207.0 81.8,203.7 82.6,203.6 83.4,203.4 84.2,203.3 85.1,198.6 85.9,198.3 86.7,197.9 87.5,197.6 88.4,203.2 89.2,203.1 90.0,202.9 90.9,202.8 91.7,203.5 92.5,203.3 93.3,203.2 94.2,203.1 95.0,204.1 95.8,204.0 96.6,203.9 97.5,203.8 98.3,203.9 99.1,203.8 99.9,203.7 100.8,203.6 101.6,205.0 102.4,204.9 103.3,204.9 104.1,204.8 104.9,203.6 105.7,203.5 106.6,203.4 107.4,203.3 108.2,200.8 109.0,200.6 109.9,200.4 110.7,200.1 111.5,196.1 112.3,195.7 113.2,195.3 114.0,194.9 114.8,197.7 115.7,197.4 116.5,197.0 117.3,196.7 118.1,195.3 119.0,194.9 119.8,194.6 120.6,194.2 121.4,195.1 122.3,194.8 123.1,194.4 123.9,194.1 124.7,192.5 125.6,192.1 126.4,191.7 127.2,191.2 128.1,187.6 128.9,187.0 129.7,186.4 130.5,185.8 131.4,184.0 132.2,183.4 133.0,182.7 133.8,182.0 134.7,183.2 135.5,182.6 136.3,181.9 137.1,181.3 138.0,184.8 138.8,184.3 139.6,183.8 140.5,183.2 141.3,182.3 142.1,181.8 142.9,181.2 143.8,180.6 144.6,179.6 145.4,179.0 146.2,178.4 147.1,177.8 147.9,177.2 148.7,176.5 149.5,175.9 150.4,175.2 151.2,173.2 152.0,172.5 152.9,171.8 153.7,171.1 154.5,167.7 155.3,166.9 156.2,166.1 157.0,165.2 157.8,167.4 158.6,166.6 159.5,165.9 160.3,165.1 161.1,163.6 161.9,162.8 162.8,162.0 163.6,161.1 164.4,162.2 165.3,161.4 166.1,160.6 166.9,159.8 167.7,157.5 168.6,156.6 169.4,155.7 170.2,154.9 171.0,157.4 171.9,156.6 172.7,155.8 173.5,155.0 174.3,154.1 175.2,153.3 176.0,152.5 176.8,151.6 177.7,151.1 178.5,150.3 179.3,149.5 180.1,148.6 181.0,147.2 181.8,146.3 182.6,145.4 183.4,144.5 184.3,144.9 185.1,144.1 185.9,143.2 186.7,142.3 187.6,140.9 188.4,140.0 189.2,139.1 190.1,138.2 190.9,135.0 191.7,134.0 192.5,133.0 193.4,132.1 194.2,133.5 195.0,132.5 195.8,131.6 196.7,130.7 197.5,129.1 198.3,128.1 199.1,127.2 200.0,126.2 200.8,126.2 201.6,125.2 202.5,124.3 203.3,123.4 204.1,121.8 204.9,120.9 205.8,119.9 206.6,119.0 207.4,120.8 208.2,119.9 209.1,119.0 209.9,118.1 210.7,118.7 211.5,117.8 212.4,116.9 213.2,116.1 214.0,115.1 214.9,114.3 215.7,113.4 216.5,112.5 217.3,110.3 218.2,109.4 219.0,108.5 219.8,107.6 220.6,106.7 221.5,105.8 222.3,104.9 223.1,104.0 223.9,106.4 224.8,105.6 225.6,104.8 226.4,104.0 227.3,103.7 228.1,102.9 228.9,102.1 229.7,101.3 230.6,97.6 231.4,96.8 232.2,96.0 233.0,95.1 233.9,92.3 234.7,91.5 235.5,90.6 236.3,89.7 237.2,88.6 238.0,87.7 238.8,86.9 239.7,86.0 240.5,86.0 241.3,85.2 242.1,84.4 243.0,83.5 243.8,85.3 244.6,84.5 245.4,83.7 246.3,83.0 247.1,81.7 247.9,81.0 248.7,80.2 249.6,79.5 250.4,80.9 251.2,80.2 252.1,79.5 252.9,78.8 253.7,75.0 254.5,74.3 255.4,73.5 256.2,72.8 257.0,73.4 257.8,72.7 258.7,72.1 259.5,71.4 260.3,71.3 261.1,70.6 262.0,70.0 262.8,69.3 263.6,68.2 264.5,67.6 265.3,66.9 266.1,66.3 266.9,66.3 267.8,65.7 268.6,65.1 269.4,64.5 270.2,64.1 271.1,63.5 271.9,63.0 272.7,62.4 273.5,62.8 274.4,62.3 275.2,61.8 276.0,61.3 276.9,59.3 277.7,58.8 278.5,58.3 279.3,57.8 280.2,56.0 281.0,55.5 281.8,55.0 282.6,54.5 283.5,53.4 284.3,52.9 285.1,52.4 285.9,52.0 286.8,51.5 287.6,51.1 288.4,50.6 289.3,50.2 290.1,48.1 290.9,47.6 291.7,47.2 292.6,46.7 293.4,49.1 294.2,48.7 295.0,48.4 295.9,48.0 296.7,45.2 297.5,44.8 298.3,44.5 299.2,44.1 300.0,46.6 300.8,46.3 301.7,46.0 302.5,45.7 303.3,43.3 304.1,43.0 305.0,42.7 305.8,42.4 306.6,43.2 307.4,43.0 308.3,42.7 309.1,42.5 309.9,42.6 310.7,42.4 311.6,42.2 312.4,42.0 313.2,43.2 314.1,43.1 314.9,42.9 315.7,42.8 316.5,45.7 317.4,45.6 318.2,45.5 319.0,45.5 319.8,49.5 320.7,49.6 321.5,49.6 322.3,49.7 323.1,53.1 324.0,53.3 324.8,53.4 325.6,53.6 326.5,51.8 327.3,52.0 328.1,52.1 328.9,52.3 329.8,51.7 330.6,51.8 331.4,52.0 332.2,52.2 333.1,53.9 333.9,54.1 334.7,54.4 335.5,54.6 336.4,56.1 337.2,56.3 338.0,56.6 338.9,56.9 339.7,56.9 340.5,57.2 341.3,57.5 342.2,57.8 343.0,57.7 343.8,58.0 344.6,58.3 345.5,58.7 346.3,59.5 347.1,59.9 347.9,60.3 348.8,60.6 349.6,57.5 350.4,57.8 351.3,58.1 352.1,58.5 352.9,55.6 353.7,55.9 354.6,56.1 355.4,56.4 356.2,59.0 357.0,59.4 357.9,59.7 358.7,60.1 359.5,57.8 360.3,58.1 361.2,58.5 362.0,58.8 362.8,57.2 363.7,57.5 364.5,57.8 365.3,58.2 366.1,61.4 367.0,61.8 367.8,62.2 368.6,62.6 369.4,61.3 370.3,61.7 371.1,62.0 371.9,62.4 372.7,62.7 373.6,63.1 374.4,63.5 375.2,63.9 376.1,64.6 376.9,65.0 377.7,65.4 378.5,65.8 379.4,66.0 380.2,66.4 381.0,66.8 381.8,67.2 382.7,66.8 383.5,67.2 384.3,67.6 385.1,68.0 386.0,67.0 386.8,67.4 387.6,67.8 388.5,68.2 389.3,70.9 390.1,71.4 390.9,71.8 391.8,72.2 392.6,73.3 393.4,73.7 394.2,74.2 395.1,74.6 395.9,76.4 396.7,76.8 397.5,77.3 398.4,77.8 399.2,76.1 400.0,76.5 400.9,77.0 401.7,77.4 402.5,78.7 403.3,79.2 404.2,79.6 405.0,80.1 405.8,82.6 406.6,83.1 407.5,83.6 408.3,84.1 409.1,84.8 409.9,85.3 410.8,85.7 411.6,86.2 412.4,88.6 413.3,89.1 414.1,89.6 414.9,90.1 415.7,89.3 416.6,89.8 417.4,90.3 418.2,90.8 419.0,91.8 419.9,92.3 420.7,92.8 421.5,93.2 422.3,94.1 423.2,94.5 424.0,95.0 424.8,95.5 425.7,94.4 426.5,94.8 427.3,95.3 428.1,95.7 429.0,95.5 429.8,95.9 430.6,96.3 431.4,96.7 432.3,99.1 433.1,99.5 433.9,100.0 434.7,100.4 435.6,101.0 436.4,101.5 437.2,101.9 438.1,102.3 438.9,104.0 439.7,104.5 440.5,104.9 441.4,105.3 442.2,106.3 443.0,106.7 443.8,107.1 444.7,107.5 445.5,105.6 446.3,105.9 447.1,106.3 448.0,106.6 448.8,109.9 449.6,110.3 450.5,110.6 451.3,111.0 452.1,110.6 452.9,110.9 453.8,111.3 454.6,111.6 455.4,110.0 456.2,110.3 457.1,110.6 457.9,110.9 458.7,113.6 459.5,114.0 460.4,114.3 461.2,114.6 462.0,112.7 462.9,113.0 463.7,113.2 464.5,113.5 465.3,114.3 466.2,114.6 467.0,114.8 467.8,115.1 468.6,112.9 469.5,113.1 470.3,113.3 471.1,113.5 471.9,116.6 472.8,116.8 473.6,117.1 474.4,117.3 475.3,116.6 476.1,116.8 476.9,117.0 477.7,117.2 478.6,118.4 479.4,118.6 480.2,118.8 481.0,118.9 481.9,118.8 482.7,118.9 483.5,119.1 484.3,119.3 485.2,116.9 486.0,117.0 486.8,117.1 487.7,117.2 488.5,115.8 489.3,115.8 490.1,115.8 491.0,115.9 491.8,115.2 492.6,115.2 493.4,115.2 494.3,115.2 495.1,112.8 495.9,112.8 496.7,112.7 497.6,112.6 498.4,109.2 499.2,109.1 500.1,108.9 500.9,108.8 501.7,108.0 502.5,107.8 503.4,107.7 504.2,107.5 505.0,105.2 505.8,105.0 506.7,104.8 507.5,104.5 508.3,106.8 509.1,106.6 510.0,106.4 510.8,106.2 511.6,107.4 512.5,107.2 513.3,107.0 514.1,106.8 514.9,109.7 515.8,109.6 516.6,109.5 517.4,109.3 518.2,106.0 519.1,105.8 519.9,105.6 520.7,105.3 521.5,104.9 522.4,104.7 523.2,104.5 524.0,104.2 524.9,104.5 525.7,104.3 526.5,104.0 527.3,103.8 528.2,104.7 529.0,104.4 529.8,104.2 530.6,104.0 531.5,102.5 532.3,102.2 533.1,102.0 533.9,101.7 534.8,99.7 535.6,99.4 536.4,99.1 537.3,98.8 538.1,100.3 538.9,100.0 539.7,99.7 540.6,99.5 541.4,100.7 542.2,100.5 543.0,100.3 543.9,100.0 544.7,100.9 545.5,100.7 546.3,100.5 547.2,100.3 548.0,100.3 548.8,100.1 549.7,99.8 550.5,99.6 551.3,100.9 552.1,100.7 553.0,100.5 553.8,100.3 554.6,98.8 555.4,98.6 556.3,98.4 557.1,98.1 557.9,98.5 558.7,98.4 559.6,98.2 560.4,98.0 561.2,95.5 562.1,95.3 562.9,95.0 563.7,94.8 564.5,96.0 565.4,95.8 566.2,95.6 567.0,95.4 567.8,94.4 568.7,94.2 569.5,94.0 570.3,93.8 571.1,92.8 572.0,92.6 572.8,92.4 573.6,92.2 574.5,94.6 575.3,94.5 576.1,94.3 576.9,94.2 577.8,92.6 578.6,92.4 579.4,92.3 580.2,92.2 581.1,91.6 581.9,91.4 582.7,91.3 583.5,91.2 584.4,90.9 585.2,90.8 586.0,90.7 586.9,90.6 587.7,89.7 588.5,89.7 589.3,89.6 590.2,89.5 591.0,89.1 591.8,89.1 592.6,89.0 593.5,88.9 594.3,89.8 595.1,89.8 595.9,89.7 596.8,89.7 597.6,88.9 598.4,88.9 599.3,88.9 600.1,88.9 600.9,89.5 601.7,89.6 602.6,89.6 603.4,89.6 604.2,90.2 605.0,90.2 605.9,90.3 606.7,90.4 607.5,92.2 608.3,92.4 609.2,92.5 610.0,92.6 610.8,93.6 611.7,93.8 612.5,93.9 613.3,94.1 614.1,94.9 615.0,95.1 615.8,95.3 616.6,95.5 617.4,96.6 618.3,96.9 619.1,97.2 619.9,97.4 620.7,99.0 621.6,99.3 622.4,99.7 623.2,100.0 624.1,101.9 624.9,102.3 625.7,102.7 626.5,103.1 627.4,104.1 628.2,104.6 629.0,105.0 629.8,105.5 630.7,105.1 631.5,105.5 632.3,106.0 633.1,106.5 634.0,106.7 634.8,107.2 635.6,107.7 636.5,108.2 637.3,106.5 638.1,107.0 638.9,107.5 639.8,108.0 640.6,108.5 641.4,109.0 642.2,109.5 643.1,110.0 643.9,109.2 644.7,109.7 645.5,110.3 646.4,110.8 647.2,109.4 648.0,110.0 648.9,110.5 649.7,111.0 650.5,111.8 651.3,112.4 652.2,113.0 653.0,113.6 653.8,115.0 654.6,115.6 655.5,116.2 656.3,116.8 657.1,116.3 657.9,117.0 658.8,117.6 659.6,118.3 660.4,116.0 661.3,116.6 662.1,117.2 662.9,117.9 663.7,118.5 664.6,119.2 665.4,119.8 666.2,120.5 667.0,120.7 667.9,121.4 668.7,122.1 669.5,122.7 670.3,124.1 671.2,124.8 672.0,125.6 672.8,126.3 673.7,129.0 674.5,129.8 675.3,130.5 676.1,131.3 677.0,133.6 677.8,134.4 678.6,135.3 679.4,136.1 680.3,135.2 681.1,136.0 681.9,136.9 682.7,137.7 683.6,137.3 684.4,138.1 685.2,139.0 686.1,139.8 686.9,140.8 687.7,141.7 688.5,142.6 689.4,143.4 690.2,143.9 691.0,144.8 691.8,145.6 692.7,146.5 693.5,147.4 694.3,148.2 695.1,149.1 696.0,150.0 696.8,149.7 697.6,150.5 698.5,151.4 699.3,152.3 700.1,152.3 700.9,153.2 701.8,154.1 702.6,155.0 703.4,156.3 704.2,157.2 705.1,158.1 705.9,159.0 706.7,159.3 707.5,160.2 708.4,161.1 709.2,162.0 710.0,166.0 710.9,167.0 711.7,168.0 712.5,168.9 713.3,168.5 714.2,169.4 715.0,170.4 715.8,171.3 716.6,174.6 717.5,175.6 718.3,176.7 719.1,177.7 719.9,181.1 720.8,182.2 721.6,183.3 722.4,184.3 723.3,185.8 724.1,186.9 724.9,187.9 725.7,189.0 726.6,190.6 727.4,191.7 728.2,192.8 729.0,193.8 729.9,194.0 730.7,195.0 731.5,196.1 732.3,197.1 733.2,198.4 734.0,199.4 734.8,200.5 735.7,201.6 736.5,203.0 737.3,204.0 738.1,205.1 739.0,206.2 739.8,206.2 740.6,207.3 741.4,208.3 742.3,209.3 743.1,207.2 743.9,208.2 744.7,209.2 745.6,210.1 746.4,210.0 747.2,211.0 748.1,211.9 748.9,212.9 749.7,216.1 750.5,217.0 751.4,218.0 752.2,219.0 753.0,223.6 753.8,224.6 754.7,225.6 755.5,226.6 756.3,229.3 757.1,230.3 758.0,231.3 758.8,232.4 759.6,232.9 760.5,233.9 761.3,234.9 762.1,235.9 762.9,237.9 763.8,238.9 764.6,239.9 765.4,240.9 766.2,240.8 767.1,241.8 767.9,242.7 768.7,243.7 769.5,244.1 770.4,245.1 771.2,246.0 772.0,247.0 772.9,247.4 773.7,248.4 774.5,249.3 775.3,250.2 776.2,250.8 777.0,251.7 777.8,252.6 778.6,253.5 779.5,256.8 780.3,257.7 781.1,258.7 781.9,259.6 782.8,261.4 783.6,262.3 784.4,263.3 785.3,264.2 786.1,264.7 786.9,265.6 787.7,266.5 788.6,267.3 789.4,266.8 790.2,267.6 791.0,268.5 791.9,269.3 792.7,270.9 793.5,271.8 794.3,272.6 795.2,273.4 796.0,274.0"/>
<text x="640" y="72" font-family="Arial" font-size="12" fill="#2563eb">estimate</text>
</svg>