<svg xmlns="http://www.w3.org/2000/svg" width="820" height="320" viewBox="0 0 820 320">
<rect width="100%" height="100%" fill="white"/>
<text x="52" y="30" font-family="Arial" font-size="18" font-weight="700">ekf_nominal accelerometer bias estimates</text>
<line x1="52" y1="274" x2="796" y2="274" stroke="#263238"/>
<line x1="52" y1="42" x2="52" y2="274" stroke="#263238"/>
<text x="52" y="306" font-family="Arial" font-size="12">time (s)</text>
<text x="630" y="306" font-family="Arial" font-size="12">m/s^2</text>

<polyline fill="none" stroke="#0f766e" stroke-width="2.3" points="52.0,70.3 52.8,70.3 53.7,70.3 54.5,70.3 55.3,70.3 56.1,70.3 57.0,70.3 57.8,70.3 58.6,70.3 59.4,70.3 60.3,70.3 61.1,70.3 61.9,70.3 62.7,70.3 63.6,70.3 64.4,70.3 65.2,70.3 66.1,70.3 66.9,70.3 67.7,70.3 68.5,61.4 69.4,61.4 70.2,61.4 71.0,61.4 71.8,61.4 72.7,61.4 73.5,61.4 74.3,61.4 75.1,61.4 76.0,61.4 76.8,61.4 77.6,61.4 78.5,61.4 79.3,61.4 80.1,61.4 80.9,61.4 81.8,61.4 82.6,61.4 83.4,61.4 84.2,61.4 85.1,60.3 85.9,60.3 86.7,60.3 87.5,60.3 88.4,60.3 89.2,60.3 90.0,60.3 90.9,60.3 91.7,60.3 92.5,60.3 93.3,60.3 94.2,60.3 95.0,60.3 95.8,60.3 96.6,60.3 97.5,60.3 98.3,60.3 99.1,60.3 99.9,60.3 100.8,60.3 101.6,74.0 102.4,74.0 103.3,74.0 104.1,74.0 104.9,74.0 105.7,74.0 106.6,74.0 107.4,74.0 108.2,74.0 109.0,74.0 109.9,74.0 110.7,74.0 111.5,74.0 112.3,74.0 113.2,74.0 114.0,74.0 114.8,74.0 115.7,74.0 116.5,74.0 117.3,74.0 118.1,130.5 119.0,130.5 119.8,130.5 120.6,130.5 121.4,130.5 122.3,130.5 123.1,130.5 123.9,130.5 124.7,130.5 125.6,130.5 126.4,130.5 127.2,130.5 128.1,130.5 128.9,130.5 129.7,130.5 130.5,130.5 131.4,130.5 132.2,130.5 133.0,130.5 133.8,130.5 134.7,156.1 135.5,156.1 136.3,156.1 137.1,156.1 138.0,156.1 138.8,156.1 139.6,156.1 140.5,156.1 141.3,156.1 142.1,156.1 142.9,156.1 143.8,156.1 144.6,156.1 145.4,156.1 146.2,156.1 147.1,156.1 147.9,156.1 148.7,156.1 149.5,156.1 150.4,156.1 151.2,205.1 152.0,205.1 152.9,205.1 153.7,205.1 154.5,205.1 155.3,205.1 156.2,205.1 157.0,205.1 157.8,205.1 158.6,205.1 159.5,205.1 160.3,205.1 161.1,205.1 161.9,205.1 162.8,205.1 163.6,205.1 164.4,205.1 165.3,205.1 166.1,205.1 166.9,205.1 167.7,207.5 168.6,207.5 169.4,207.5 170.2,207.5 171.0,207.5 171.9,207.5 172.7,207.5 173.5,207.5 174.3,207.5 175.2,207.5 176.0,207.5 176.8,207.5 177.7,207.5 178.5,207.5 179.3,207.5 180.1,207.5 181.0,207.5 181.8,207.5 182.6,207.5 183.4,207.5 184.3,274.0 185.1,274.0 185.9,274.0 186.7,274.0 187.6,274.0 188.4,274.0 189.2,274.0 190.1,274.0 190.9,274.0 191.7,274.0 192.5,274.0 193.4,274.0 194.2,274.0 195.0,274.0 195.8,274.0 196.7,274.0 197.5,274.0 198.3,274.0 199.1,274.0 200.0,274.0 200.8,227.0 201.6,227.0 202.5,227.0 203.3,227.0 204.1,227.0 204.9,227.0 205.8,227.0 206.6,227.0 207.4,227.0 208.2,227.0 209.1,227.0 209.9,227.0 210.7,227.0 211.5,227.0 212.4,227.0 213.2,227.0 214.0,227.0 214.9,227.0 215.7,227.0 216.5,227.0 217.3,202.1 218.2,202.1 219.0,202.1 219.8,202.1 220.6,202.1 221.5,202.1 222.3,202.1 223.1,202.1 223.9,202.1 224.8,202.1 225.6,202.1 226.4,202.1 227.3,202.1 228.1,202.1 228.9,202.1 229.7,202.1 230.6,202.1 231.4,202.1 232.2,202.1 233.0,202.1 233.9,189.3 234.7,189.3 235.5,189.3 236.3,189.3 237.2,189.3 238.0,189.3 238.8,189.3 239.7,189.3 240.5,189.3 241.3,189.3 242.1,189.3 243.0,189.3 243.8,189.3 244.6,189.3 245.4,189.3 246.3,189.3 247.1,189.3 247.9,189.3 248.7,189.3 249.6,189.3 250.4,154.8 251.2,154.8 252.1,154.8 252.9,154.8 253.7,154.8 254.5,154.8 255.4,154.8 256.2,154.8 257.0,154.8 257.8,154.8 258.7,154.8 259.5,154.8 260.3,154.8 261.1,154.8 262.0,154.8 262.8,154.8 263.6,154.8 264.5,154.8 265.3,154.8 266.1,154.8 266.9,133.4 267.8,133.4 268.6,133.4 269.4,133.4 270.2,133.4 271.1,133.4 271.9,133.4 272.7,133.4 273.5,133.4 274.4,133.4 275.2,133.4 276.0,133.4 276.9,133.4 277.7,133.4 278.5,133.4 279.3,133.4 280.2,133.4 281.0,133.4 281.8,133.4 282.6,133.4 283.5,97.9 284.3,97.9 285.1,97.9 285.9,97.9 286.8,97.9 287.6,97.9 288.4,97.9 289.3,97.9 290.1,97.9 290.9,97.9 291.7,97.9 292.6,97.9 293.4,97.9 294.2,97.9 295.0,97.9 295.9,97.9 296.7,97.9 297.5,97.9 298.3,97.9 299.2,97.9 300.0,91.7 300.8,91.7 301.7,91.7 302.5,91.7 303.3,91.7 304.1,91.7 305.0,91.7 305.8,91.7 306.6,91.7 307.4,91.7 308.3,91.7 309.1,91.7 309.9,91.7 310.7,91.7 311.6,91.7 312.4,91.7 313.2,91.7 314.1,91.7 314.9,91.7 315.7,91.7 316.5,86.2 317.4,86.2 318.2,86.2 319.0,86.2 319.8,86.2 320.7,86.2 321.5,86.2 322.3,86.2 323.1,86.2 324.0,86.2 324.8,86.2 325.6,86.2 326.5,86.2 327.3,86.2 328.1,86.2 328.9,86.2 329.8,86.2 330.6,86.2 331.4,86.2 332.2,86.2 333.1,79.0 333.9,79.0 334.7,79.0 335.5,79.0 336.4,79.0 337.2,79.0 338.0,79.0 338.9,79.0 339.7,79.0 340.5,79.0 341.3,79.0 342.2,79.0 343.0,79.0 343.8,79.0 344.6,79.0 345.5,79.0 346.3,79.0 347.1,79.0 347.9,79.0 348.8,79.0 349.6,79.0 350.4,79.0 351.3,79.0 352.1,79.0 352.9,79.0 353.7,79.0 354.6,79.0 355.4,79.0 356.2,79.0 357.0,79.0 357.9,79.0 358.7,79.0 359.5,79.0 360.3,79.0 361.2,79.0 362.0,79.0 362.8,79.0 363.7,79.0 364.5,79.0 365.3,79.0 366.1,79.0 367.0,79.0 367.8,79.0 368.6,79.0 369.4,79.0 370.3,79.0 371.1,79.0 371.9,79.0 372.7,79.0 373.6,79.0 374.4,79.0 375.2,79.0 376.1,79.0 376.9,79.0 377.7,79.0 378.5,79.0 379.4,79.0 380.2,79.0 381.0,79.0 381.8,79.0 382.7,79.0 383.5,79.0 384.3,79.0 385.1,79.0 386.0,79.0 386.8,79.0 387.6,79.0 388.5,79.0 389.3,79.0 390.1,79.0 390.9,79.0 391.8,79.0 392.6,79.0 393.4,79.0 394.2,79.0 395.1,79.0 395.9,79.0 396.7,79.0 397.5,79.0 398.4,79.0 399.2,79.0 400.0,79.0 400.9,79.0 401.7,79.0 402.5,79.0 403.3,79.0 404.2,79.0 405.0,79.0 405.8,79.0 406.6,79.0 407.5,79.0 408.3,79.0 409.1,79.0 409.9,79.0 410.8,79.0 411.6,79.0 412.4,79.0 413.3,79.0 414.1,79.0 414.9,79.0 415.7,79.0 416.6,79.0 417.4,79.0 418.2,79.0 419.0,79.0 419.9,79.0 420.7,79.0 421.5,79.0 422.3,79.0 423.2,79.0 424.0,79.0 424.8,79.0 425.7,79.0 426.5,79.0 427.3,79.0 428.1,79.0 429.0,79.0 429.8,79.0 430.6,79.0 431.4,79.0 432.3,79.0 433.1,79.0 433.9,79.0 434.7,79.0 435.6,79.0 436.4,79.0 437.2,79.0 438.1,79.0 438.9,79.0 439.7,79.0 440.5,79.0 441.4,79.0 442.2,79.0 443.0,79.0 443.8,79.0 444.7,79.0 445.5,79.0 446.3,79.0 447.1,79.0 448.0,79.0 448.8,79.0 449.6,79.0 450.5,79.0 451.3,79.0 452.1,79.0 452.9,79.0 453.8,79.0 454.6,79.0 455.4,79.0 456.2,79.0 457.1,79.0 457.9,79.0 458.7,79.0 459.5,79.0 460.4,79.0 461.2,79.0 462.0,79.0 462.9,79.0 463.7,79.0 464.5,79.0 465.3,79.0 466.2,79.0 467.0,79.0 467.8,79.0 468.6,79.0 469.5,79.0 470.3,79.0 471.1,79.0 471.9,79.0 472.8,79.0 473.6,79.0 474.4,79.0 475.3,79.0 476.1,79.0 476.9,79.0 477.7,79.0 478.6,79.0 479.4,79.0 480.2,79.0 481.0,79.0 481.9,79.0 482.7,79.0 483.5,79.0 484.3,79.0 485.2,79.0 486.0,79.0 486.8,79.0 487.7,79.0 488.5,79.0 489.3,79.0 490.1,79.0 491.0,79.0 491.8,79.0 492.6,79.0 493.4,79.0 494.3,79.0 495.1,79.0 495.9,79.0 496.7,79.0 497.6,79.0 498.4,79.0 499.2,79.0 500.1,79.0 500.9,79.0 501.7,79.0 502.5,79.0 503.4,79.0 504.2,79.0 505.0,79.0 505.8,79.0 506.7,79.0 507.5,79.0 508.3,79.0 509.1,79.0 510.0,79.0 510.8,79.0 511.6,79.0 512.5,79.0 513.3,79.0 514.1,79.0 514.9,62.8 515.8,62.8 516.6,62.8 517.4,62.8 518.2,62.8 519.1,62.8 519.9,62.8 520.7,62.8 521.5,62.8 522.4,62.8 523.2,62.8 524.0,62.8 524.9,62.8 525.7,62.8 526.5,62.8 527.3,62.8 528.2,62.8 529.0,62.8 529.8,62.8 530.6,62.8 531.5,62.9 532.3,62.9 533.1,62.9 533.9,62.9 534.8,62.9 535.6,62.9 536.4,62.9 537.3,62.9 538.1,62.9 538.9,62.9 539.7,62.9 540.6,62.9 541.4,62.9 542.2,62.9 543.0,62.9 543.9,62.9 544.7,62.9 545.5,62.9 546.3,62.9 547.2,62.9 548.0,63.4 548.8,63.4 549.7,63.4 550.5,63.4 551.3,63.4 552.1,63.4 553.0,63.4 553.8,63.4 554.6,63.4 555.4,63.4 556.3,63.4 557.1,63.4 557.9,63.4 558.7,63.4 559.6,63.4 560.4,63.4 561.2,63.4 562.1,63.4 562.9,63.4 563.7,63.4 564.5,63.7 565.4,63.7 566.2,63.7 567.0,63.7 567.8,63.7 568.7,63.7 569.5,63.7 570.3,63.7 571.1,63.7 572.0,63.7 572.8,63.7 573.6,63.7 574.5,63.7 575.3,63.7 576.1,63.7 576.9,63.7 577.8,63.7 578.6,63.7 579.4,63.7 580.2,63.7 581.1,64.5 581.9,64.5 582.7,64.5 583.5,64.5 584.4,64.5 585.2,64.5 586.0,64.5 586.9,64.5 587.7,64.5 588.5,64.5 589.3,64.5 590.2,64.5 591.0,64.5 591.8,64.5 592.6,64.5 593.5,64.5 594.3,64.5 595.1,64.5 595.9,64.5 596.8,64.5 597.6,64.8 598.4,64.8 599.3,64.8 600.1,64.8 600.9,64.8 601.7,64.8 602.6,64.8 603.4,64.8 604.2,64.8 605.0,64.8 605.9,64.8 606.7,64.8 607.5,64.8 608.3,64.8 609.2,64.8 610.0,64.8 610.8,64.8 611.7,64.8 612.5,64.8 613.3,64.8 614.1,64.8 615.0,64.8 615.8,64.8 616.6,64.8 617.4,64.8 618.3,64.8 619.1,64.8 619.9,64.8 620.7,64.8 621.6,64.8 622.4,64.8 623.2,64.8 624.1,64.8 624.9,64.8 625.7,64.8 626.5,64.8 627.4,64.8 628.2,64.8 629.0,64.8 629.8,64.8 630.7,65.4 631.5,65.4 632.3,65.4 633.1,65.4 634.0,65.4 634.8,65.4 635.6,65.4 636.5,65.4 637.3,65.4 638.1,65.4 638.9,65.4 639.8,65.4 640.6,65.4 641.4,65.4 642.2,65.4 643.1,65.4 643.9,65.4 644.7,65.4 645.5,65.4 646.4,65.4 647.2,65.1 648.0,65.1 648.9,65.1 649.7,65.1 650.5,65.1 651.3,65.1 652.2,65.1 653.0,65.1 653.8,65.1 654.6,65.1 655.5,65.1 656.3,65.1 657.1,65.1 657.9,65.1 658.8,65.1 659.6,65.1 660.4,65.1 661.3,65.1 662.1,65.1 662.9,65.1 663.7,65.5 664.6,65.5 665.4,65.5 666.2,65.5 667.0,65.5 667.9,65.5 668.7,65.5 669.5,65.5 670.3,65.5 671.2,65.5 672.0,65.5 672.8,65.5 673.7,65.5 674.5,65.5 675.3,65.5 676.1,65.5 677.0,65.5 677.8,65.5 678.6,65.5 679.4,65.5 680.3,63.4 681.1,63.4 681.9,63.4 682.7,63.4 683.6,63.4 684.4,63.4 685.2,63.4 686.1,63.4 686.9,63.4 687.7,63.4 688.5,63.4 689.4,63.4 690.2,63.4 691.0,63.4 691.8,63.4 692.7,63.4 693.5,63.4 694.3,63.4 695.1,63.4 696.0,63.4 696.8,63.7 697.6,63.7 698.5,63.7 699.3,63.7 700.1,63.7 700.9,63.7 701.8,63.7 702.6,63.7 703.4,63.7 704.2,63.7 705.1,63.7 705.9,63.7 706.7,63.7 707.5,63.7 708.4,63.7 709.2,63.7 710.0,63.7 710.9,63.7 711.7,63.7 712.5,63.7 713.3,63.4 714.2,63.4 715.0,63.4 715.8,63.4 716.6,63.4 717.5,63.4 718.3,63.4 719.1,63.4 719.9,63.4 720.8,63.4 721.6,63.4 722.4,63.4 723.3,63.4 724.1,63.4 724.9,63.4 725.7,63.4 726.6,63.4 727.4,63.4 728.2,63.4 729.0,63.4 729.9,63.4 730.7,63.4 731.5,63.4 732.3,63.4 733.2,63.4 734.0,63.4 734.8,63.4 735.7,63.4 736.5,63.4 737.3,63.4 738.1,63.4 739.0,63.4 739.8,63.4 740.6,63.4 741.4,63.4 742.3,63.4 743.1,63.4 743.9,63.4 744.7,63.4 745.6,63.4 746.4,63.3 747.2,63.3 748.1,63.3 748.9,63.3 749.7,63.3 750.5,63.3 751.4,63.3 752.2,63.3 753.0,63.3 753.8,63.3 754.7,63.3 755.5,63.3 756.3,63.3 757.1,63.3 758.0,63.3 758.8,63.3 759.6,63.3 760.5,63.3 761.3,63.3 762.1,63.3 762.9,64.2 763.8,64.2 764.6,64.2 765.4,64.2 766.2,64.2 767.1,64.2 767.9,64.2 768.7,64.2 769.5,64.2 770.4,64.2 771.2,64.2 772.0,64.2 772.9,64.2 773.7,64.2 774.5,64.2 775.3,64.2 776.2,64.2 777.0,64.2 777.8,64.2 778.6,64.2 779.5,64.4 780.3,64.4 781.1,64.4 781.9,64.4 782.8,64.4 783.6,64.4 784.4,64.4 785.3,64.4 786.1,64.4 786.9,64.4 787.7,64.4 788.6,64.4 789.4,64.4 790.2,64.4 791.0,64.4 791.9,64.4 792.7,64.4 793.5,64.4 794.3,64.4 795.2,64.4 796.0,63.2"/>
<text x="640" y="56" font-family="Arial" font-size="12" fill="#0f766e">bax</text>
<polyline fill="none" stroke="#2563eb" stroke-width="2.3" points="52.0,70.3 52.8,70.3 53.7,70.3 54.5,70.3 55.3,70.3 56.1,70.3 57.0,70.3 57.8,70.3 58.6,70.3 59.4,70.3 60.3,70.3 61.1,70.3 61.9,70.3 62.7,70.3 63.6,70.3 64.4,70.3 65.2,70.3 66.1,70.3 66.9,70.3 67.7,70.3 68.5,59.1 69.4,59.1 70.2,59.1 71.0,59.1 71.8,59.1 72.7,59.1 73.5,59.1 74.3,59.1 75.1,59.1 76.0,59.1 76.8,59.1 77.6,59.1 78.5,59.1 79.3,59.1 80.1,59.1 80.9,59.1 81.8,59.1 82.6,59.1 83.4,59.1 84.2,59.1 85.1,84.0 85.9,84.0 86.7,84.0 87.5,84.0 88.4,84.0 89.2,84.0 90.0,84.0 90.9,84.0 91.7,84.0 92.5,84.0 93.3,84.0 94.2,84.0 95.0,84.0 95.8,84.0 96.6,84.0 97.5,84.0 98.3,84.0 99.1,84.0 99.9,84.0 100.8,84.0 101.6,98.5 102.4,98.5 103.3,98.5 104.1,98.5 104.9,98.5 105.7,98.5 106.6,98.5 107.4,98.5 108.2,98.5 109.0,98.5 109.9,98.5 110.7,98.5 111.5,98.5 112.3,98.5 113.2,98.5 114.0,98.5 114.8,98.5 115.7,98.5 116.5,98.5 117.3,98.5 118.1,110.8 119.0,110.8 119.8,110.8 120.6,110.8 121.4,110.8 122.3,110.8 123.1,110.8 123.9,110.8 124.7,110.8 125.6,110.8 126.4,110.8 127.2,110.8 128.1,110.8 128.9,110.8 129.7,110.8 130.5,110.8 131.4,110.8 132.2,110.8 133.0,110.8 133.8,110.8 134.7,188.3 135.5,188.3 136.3,188.3 137.1,188.3 138.0,188.3 138.8,188.3 139.6,188.3 140.5,188.3 141.3,188.3 142.1,188.3 142.9,188.3 143.8,188.3 144.6,188.3 145.4,188.3 146.2,188.3 147.1,188.3 147.9,188.3 148.7,188.3 149.5,188.3 150.4,188.3 151.2,148.2 152.0,148.2 152.9,148.2 153.7,148.2 154.5,148.2 155.3,148.2 156.2,148.2 157.0,148.2 157.8,148.2 158.6,148.2 159.5,148.2 160.3,148.2 161.1,148.2 161.9,148.2 162.8,148.2 163.6,148.2 164.4,148.2 165.3,148.2 166.1,148.2 166.9,148.2 167.7,135.7 168.6,135.7 169.4,135.7 170.2,135.7 171.0,135.7 171.9,135.7 172.7,135.7 173.5,135.7 174.3,135.7 175.2,135.7 176.0,135.7 176.8,135.7 177.7,135.7 178.5,135.7 179.3,135.7 180.1,135.7 181.0,135.7 181.8,135.7 182.6,135.7 183.4,135.7 184.3,146.8 185.1,146.8 185.9,146.8 186.7,146.8 187.6,146.8 188.4,146.8 189.2,146.8 190.1,146.8 190.9,146.8 191.7,146.8 192.5,146.8 193.4,146.8 194.2,146.8 195.0,146.8 195.8,146.8 196.7,146.8 197.5,146.8 198.3,146.8 199.1,146.8 200.0,146.8 200.8,163.3 201.6,163.3 202.5,163.3 203.3,163.3 204.1,163.3 204.9,163.3 205.8,163.3 206.6,163.3 207.4,163.3 208.2,163.3 209.1,163.3 209.9,163.3 210.7,163.3 211.5,163.3 212.4,163.3 213.2,163.3 214.0,163.3 214.9,163.3 215.7,163.3 216.5,163.3 217.3,159.7 218.2,159.7 219.0,159.7 219.8,159.7 220.6,159.7 221.5,159.7 222.3,159.7 223.1,159.7 223.9,159.7 224.8,159.7 225.6,159.7 226.4,159.7 227.3,159.7 228.1,159.7 228.9,159.7 229.7,159.7 230.6,159.7 231.4,159.7 232.2,159.7 233.0,159.7 233.9,149.6 234.7,149.6 235.5,149.6 236.3,149.6 237.2,149.6 238.0,149.6 238.8,149.6 239.7,149.6 240.5,149.6 241.3,149.6 242.1,149.6 243.0,149.6 243.8,149.6 244.6,149.6 245.4,149.6 246.3,149.6 247.1,149.6 247.9,149.6 248.7,149.6 249.6,149.6 250.4,138.9 251.2,138.9 252.1,138.9 252.9,138.9 253.7,138.9 254.5,138.9 255.4,138.9 256.2,138.9 257.0,138.9 257.8,138.9 258.7,138.9 259.5,138.9 260.3,138.9 261.1,138.9 262.0,138.9 262.8,138.9 263.6,138.9 264.5,138.9 265.3,138.9 266.1,138.9 266.9,130.4 267.8,130.4 268.6,130.4 269.4,130.4 270.2,130.4 271.1,130.4 271.9,130.4 272.7,130.4 273.5,130.4 274.4,130.4 275.2,130.4 276.0,130.4 276.9,130.4 277.7,130.4 278.5,130.4 279.3,130.4 280.2,130.4 281.0,130.4 281.8,130.4 282.6,130.4 283.5,105.1 284.3,105.1 285.1,105.1 285.9,105.1 286.8,105.1 287.6,105.1 288.4,105.1 289.3,105.1 290.1,105.1 290.9,105.1 291.7,105.1 292.6,105.1 293.4,105.1 294.2,105.1 295.0,105.1 295.9,105.1 296.7,105.1 297.5,105.1 298.3,105.1 299.2,105.1 300.0,99.7 300.8,99.7 301.7,99.7 302.5,99.7 303.3,99.7 304.1,99.7 305.0,99.7 305.8,99.7 306.6,99.7 307.4,99.7 308.3,99.7 309.1,99.7 309.9,99.7 310.7,99.7 311.6,99.7 312.4,99.7 313.2,99.7 314.1,99.7 314.9,99.7 315.7,99.7 316.5,97.9 317.4,97.9 318.2,97.9 319.0,97.9 319.8,97.9 320.7,97.9 321.5,97.9 322.3,97.9 323.1,97.9 324.0,97.9 324.8,97.9 325.6,97.9 326.5,97.9 327.3,97.9 328.1,97.9 328.9,97.9 329.8,97.9 330.6,97.9 331.4,97.9 332.2,97.9 333.1,87.4 333.9,87.4 334.7,87.4 335.5,87.4 336.4,87.4 337.2,87.4 338.0,87.4 338.9,87.4 339.7,87.4 340.5,87.4 341.3,87.4 342.2,87.4 343.0,87.4 343.8,87.4 344.6,87.4 345.5,87.4 346.3,87.4 347.1,87.4 347.9,87.4 348.8,87.4 349.6,87.4 350.4,87.4 351.3,87.4 352.1,87.4 352.9,87.4 353.7,87.4 354.6,87.4 355.4,87.4 356.2,87.4 357.0,87.4 357.9,87.4 358.7,87.4 359.5,87.4 360.3,87.4 361.2,87.4 362.0,87.4 362.8,87.4 363.7,87.4 364.5,87.4 365.3,87.4 366.1,87.4 367.0,87.4 367.8,87.4 368.6,87.4 369.4,87.4 370.3,87.4 371.1,87.4 371.9,87.4 372.7,87.4 373.6,87.4 374.4,87.4 375.2,87.4 376.1,87.4 376.9,87.4 377.7,87.4 378.5,87.4 379.4,87.4 380.2,87.4 381.0,87.4 381.8,87.4 382.7,87.4 383.5,87.4 384.3,87.4 385.1,87.4 386.0,87.4 386.8,87.4 387.6,87.4 388.5,87.4 389.3,87.4 390.1,87.4 390.9,87.4 391.8,87.4 392.6,87.4 393.4,87.4 394.2,87.4 395.1,87.4 395.9,87.4 396.7,87.4 397.5,87.4 398.4,87.4 399.2,87.4 400.0,87.4 400.9,87.4 401.7,87.4 402.5,87.4 403.3,87.4 404.2,87.4 405.0,87.4 405.8,87.4 406.6,87.4 407.5,87.4 408.3,87.4 409.1,87.4 409.9,87.4 410.8,87.4 411.6,87.4 412.4,87.4 413.3,87.4 414.1,87.4 414.9,87.4 415.7,87.4 416.6,87.4 417.4,87.4 418.2,87.4 419.0,87.4 419.9,87.4 420.7,87.4 421.5,87.4 422.3,87.4 423.2,87.4 424.0,87.4 424.8,87.4 425.7,87.4 426.5,87.4 427.3,87.4 428.1,87.4 429.0,87.4 429.8,87.4 430.6,87.4 431.4,87.4 432.3,87.4 433.1,87.4 433.9,87.4 434.7,87.4 435.6,87.4 436.4,87.4 437.2,87.4 438.1,87.4 438.9,87.4 439.7,87.4 440.5,87.4 441.4,87.4 442.2,87.4 443.0,87.4 443.8,87.4 444.7,87.4 445.5,87.4 446.3,87.4 447.1,87.4 448.0,87.4 448.8,87.4 449.6,87.4 450.5,87.4 451.3,87.4 452.1,87.4 452.9,87.4 453.8,87.4 454.6,87.4 455.4,87.4 456.2,87.4 457.1,87.4 457.9,87.4 458.7,87.4 459.5,87.4 460.4,87.4 461.2,87.4 462.0,87.4 462.9,87.4 463.7,87.4 464.5,87.4 465.3,87.4 466.2,87.4 467.0,87.4 467.8,87.4 468.6,87.4 469.5,87.4 470.3,87.4 471.1,87.4 471.9,87.4 472.8,87.4 473.6,87.4 474.4,87.4 475.3,87.4 476.1,87.4 476.9,87.4 477.7,87.4 478.6,87.4 479.4,87.4 480.2,87.4 481.0,87.4 481.9,87.4 482.7,87.4 483.5,87.4 484.3,87.4 485.2,87.4 486.0,87.4 486.8,87.4 487.7,87.4 488.5,87.4 489.3,87.4 490.1,87.4 491.0,87.4 491.8,87.4 492.6,87.4 493.4,87.4 494.3,87.4 495.1,87.4 495.9,87.4 496.7,87.4 497.6,87.4 498.4,87.4 499.2,87.4 500.1,87.4 500.9,87.4 501.7,87.4 502.5,87.4 503.4,87.4 504.2,87.4 505.0,87.4 505.8,87.4 506.7,87.4 507.5,87.4 508.3,87.4 509.1,87.4 510.0,87.4 510.8,87.4 511.6,87.4 512.5,87.4 513.3,87.4 514.1,87.4 514.9,81.2 515.8,81.2 516.6,81.2 517.4,81.2 518.2,81.2 519.1,81.2 519.9,81.2 520.7,81.2 521.5,81.2 522.4,81.2 523.2,81.2 524.0,81.2 524.9,81.2 525.7,81.2 526.5,81.2 527.3,81.2 528.2,81.2 529.0,81.2 529.8,81.2 530.6,81.2 531.5,83.0 532.3,83.0 533.1,83.0 533.9,83.0 534.8,83.0 535.6,83.0 536.4,83.0 537.3,83.0 538.1,83.0 538.9,83.0 539.7,83.0 540.6,83.0 541.4,83.0 542.2,83.0 543.0,83.0 543.9,83.0 544.7,83.0 545.5,83.0 546.3,83.0 547.2,83.0 548.0,83.5 548.8,83.5 549.7,83.5 550.5,83.5 551.3,83.5 552.1,83.5 553.0,83.5 553.8,83.5 554.6,83.5 555.4,83.5 556.3,83.5 557.1,83.5 557.9,83.5 558.7,83.5 559.6,83.5 560.4,83.5 561.2,83.5 562.1,83.5 562.9,83.5 563.7,83.5 564.5,85.5 565.4,85.5 566.2,85.5 567.0,85.5 567.8,85.5 568.7,85.5 569.5,85.5 570.3,85.5 571.1,85.5 572.0,85.5 572.8,85.5 573.6,85.5 574.5,85.5 575.3,85.5 576.1,85.5 576.9,85.5 577.8,85.5 578.6,85.5 579.4,85.5 580.2,85.5 581.1,83.8 581.9,83.8 582.7,83.8 583.5,83.8 584.4,83.8 585.2,83.8 586.0,83.8 586.9,83.8 587.7,83.8 588.5,83.8 589.3,83.8 590.2,83.8 591.0,83.8 591.8,83.8 592.6,83.8 593.5,83.8 594.3,83.8 595.1,83.8 595.9,83.8 596.8,83.8 597.6,82.8 598.4,82.8 599.3,82.8 600.1,82.8 600.9,82.8 601.7,82.8 602.6,82.8 603.4,82.8 604.2,82.8 605.0,82.8 605.9,82.8 606.7,82.8 607.5,82.8 608.3,82.8 609.2,82.8 610.0,82.8 610.8,82.8 611.7,82.8 612.5,82.8 613.3,82.8 614.1,82.1 615.0,82.1 615.8,82.1 616.6,82.1 617.4,82.1 618.3,82.1 619.1,82.1 619.9,82.1 620.7,82.1 621.6,82.1 622.4,82.1 623.2,82.1 624.1,82.1 624.9,82.1 625.7,82.1 626.5,82.1 627.4,82.1 628.2,82.1 629.0,82.1 629.8,82.1 630.7,81.0 631.5,81.0 632.3,81.0 633.1,81.0 634.0,81.0 634.8,81.0 635.6,81.0 636.5,81.0 637.3,81.0 638.1,81.0 638.9,81.0 639.8,81.0 640.6,81.0 641.4,81.0 642.2,81.0 643.1,81.0 643.9,81.0 644.7,81.0 645.5,81.0 646.4,81.0 647.2,81.1 648.0,81.1 648.9,81.1 649.7,81.1 650.5,81.1 651.3,81.1 652.2,81.1 653.0,81.1 653.8,81.1 654.6,81.1 655.5,81.1 656.3,81.1 657.1,81.1 657.9,81.1 658.8,81.1 659.6,81.1 660.4,81.1 661.3,81.1 662.1,81.1 662.9,81.1 663.7,79.3 664.6,79.3 665.4,79.3 666.2,79.3 667.0,79.3 667.9,79.3 668.7,79.3 669.5,79.3 670.3,79.3 671.2,79.3 672.0,79.3 672.8,79.3 673.7,79.3 674.5,79.3 675.3,79.3 676.1,79.3 677.0,79.3 677.8,79.3 678.6,79.3 679.4,79.3 680.3,80.1 681.1,80.1 681.9,80.1 682.7,80.1 683.6,80.1 684.4,80.1 685.2,80.1 686.1,80.1 686.9,80.1 687.7,80.1 688.5,80.1 689.4,80.1 690.2,80.1 691.0,80.1 691.8,80.1 692.7,80.1 693.5,80.1 694.3,80.1 695.1,80.1 696.0,80.1 696.8,80.5 697.6,80.5 698.5,80.5 699.3,80.5 700.1,80.5 700.9,80.5 701.8,80.5 702.6,80.5 703.4,80.5 704.2,80.5 705.1,80.5 705.9,80.5 706.7,80.5 707.5,80.5 708.4,80.5 709.2,80.5 710.0,80.5 710.9,80.5 711.7,80.5 712.5,80.5 713.3,80.8 714.2,80.8 715.0,80.8 715.8,80.8 716.6,80.8 717.5,80.8 718.3,80.8 719.1,80.8 719.9,80.8 720.8,80.8 721.6,80.8 722.4,80.8 723.3,80.8 724.1,80.8 724.9,80.8 725.7,80.8 726.6,80.8 727.4,80.8 728.2,80.8 729.0,80.8 729.9,80.3 730.7,80.3 731.5,80.3 732.3,80.3 733.2,80.3 734.0,80.3 734.8,80.3 735.7,80.3 736.5,80.3 737.3,80.3 738.1,80.3 739.0,80.3 739.8,80.3 740.6,80.3 741.4,80.3 742.3,80.3 743.1,80.3 743.9,80.3 744.7,80.3 745.6,80.3 746.4,80.3 747.2,80.3 748.1,80.3 748.9,80.3 749.7,80.3 750.5,80.3 751.4,80.3 752.2,80.3 753.0,80.3 753.8,80.3 754.7,80.3 755.5,80.3 756.3,80.3 757.1,80.3 758.0,80.3 758.8,80.3 759.6,80.3 760.5,80.3 761.3,80.3 762.1,80.3 762.9,78.9 763.8,78.9 764.6,78.9 765.4,78.9 766.2,78.9 767.1,78.9 767.9,78.9 768.7,78.9 769.5,78.9 770.4,78.9 771.2,78.9 772.0,78.9 772.9,78.9 773.7,78.9 774.5,78.9 775.3,78.9 776.2,78.9 777.0,78.9 777.8,78.9 778.6,78.9 779.5,79.4 780.3,79.4 781.1,79.4 781.9,79.4 782.8,79.4 783.6,79.4 784.4,79.4 785.3,79.4 786.1,79.4 786.9,79.4 787.7,79.4 788.6,79.4 789.4,79.4 790.2,79.4 791.0,79.4 791.9,79.4 792.7,79.4 793.5,79.4 794.3,79.4 795.2,79.4 796.0,79.6"/>
<text x="640" y="72" font-family="Arial" font-size="12" fill="#2563eb">bay</text>
<polyline fill="none" stroke="#b45309" stroke-width="2.3" points="52.0,70.3 52.8,70.3 53.7,70.3 54.5,70.3 55.3,70.5 56.1,70.5 57.0,70.5 57.8,70.5 58.6,70.4 59.4,70.4 60.3,70.4 61.1,70.4 61.9,69.4 62.7,69.4 63.6,69.4 64.4,69.4 65.2,65.4 66.1,65.4 66.9,65.4 67.7,65.4 68.5,68.3 69.4,68.3 70.2,68.3 71.0,68.3 71.8,71.5 72.7,71.5 73.5,71.5 74.3,71.5 75.1,74.0 76.0,74.0 76.8,74.0 77.6,74.0 78.5,70.2 79.3,70.2 80.1,70.2 80.9,70.2 81.8,82.0 82.6,82.0 83.4,82.0 84.2,82.0 85.1,101.7 85.9,101.7 86.7,101.7 87.5,101.7 88.4,67.6 89.2,67.6 90.0,67.6 90.9,67.6 91.7,62.6 92.5,62.6 93.3,62.6 94.2,62.6 95.0,54.7 95.8,54.7 96.6,54.7 97.5,54.7 98.3,54.3 99.1,54.3 99.9,54.3 100.8,54.3 101.6,42.0 102.4,42.0 103.3,42.0 104.1,42.0 104.9,53.1 105.7,53.1 106.6,53.1 107.4,53.1 108.2,73.5 109.0,73.5 109.9,73.5 110.7,73.5 111.5,103.0 112.3,103.0 113.2,103.0 114.0,103.0 114.8,78.5 115.7,78.5 116.5,78.5 117.3,78.5 118.1,85.6 119.0,85.6 119.8,85.6 120.6,85.6 121.4,76.3 122.3,76.3 123.1,76.3 123.9,76.3 124.7,83.2 125.6,83.2 126.4,83.2 127.2,83.2 128.1,101.1 128.9,101.1 129.7,101.1 130.5,101.1 131.4,106.3 132.2,106.3 133.0,106.3 133.8,106.3 134.7,95.9 135.5,95.9 136.3,95.9 137.1,95.9 138.0,76.3 138.8,76.3 139.6,76.3 140.5,76.3 141.3,77.8 142.1,77.8 142.9,77.8 143.8,77.8 144.6,79.2 145.4,79.2 146.2,79.2 147.1,79.2 147.9,79.1 148.7,79.1 149.5,79.1 150.4,79.1 151.2,83.3 152.0,83.3 152.9,83.3 153.7,83.3 154.5,91.8 155.3,91.8 156.2,91.8 157.0,91.8 157.8,82.5 158.6,82.5 159.5,82.5 160.3,82.5 161.1,84.6 161.9,84.6 162.8,84.6 163.6,84.6 164.4,79.5 165.3,79.5 166.1,79.5 166.9,79.5 167.7,83.2 168.6,83.2 169.4,83.2 170.2,83.2 171.0,75.1 171.9,75.1 172.7,75.1 173.5,75.1 174.3,75.3 175.2,75.3 176.0,75.3 176.8,75.3 177.7,74.6 178.5,74.6 179.3,74.6 180.1,74.6 181.0,75.8 181.8,75.8 182.6,75.8 183.4,75.8 184.3,73.4 185.1,73.4 185.9,73.4 186.7,73.4 187.6,74.6 188.4,74.6 189.2,74.6 190.1,74.6 190.9,78.7 191.7,78.7 192.5,78.7 193.4,78.7 194.2,74.7 195.0,74.7 195.8,74.7 196.7,74.7 197.5,75.8 198.3,75.8 199.1,75.8 200.0,75.8 200.8,74.3 201.6,74.3 202.5,74.3 203.3,74.3 204.1,75.2 204.9,75.2 205.8,75.2 206.6,75.2 207.4,71.2 208.2,71.2 209.1,71.2 209.9,71.2 210.7,69.3 211.5,69.3 212.4,69.3 213.2,69.3 214.0,69.3 214.9,69.3 215.7,69.3 216.5,69.3 217.3,70.9 218.2,70.9 219.0,70.9 219.8,70.9 220.6,71.0 221.5,71.0 222.3,71.0 223.1,71.0 223.9,67.2 224.8,67.2 225.6,67.2 226.4,67.2 227.3,66.6 228.1,66.6 228.9,66.6 229.7,66.6 230.6,69.6 231.4,69.6 232.2,69.6 233.0,69.6 233.9,71.3 234.7,71.3 235.5,71.3 236.3,71.3 237.2,71.6 238.0,71.6 238.8,71.6 239.7,71.6 240.5,70.8 241.3,70.8 242.1,70.8 243.0,70.8 243.8,68.5 244.6,68.5 245.4,68.5 246.3,68.5 247.1,68.9 247.9,68.9 248.7,68.9 249.6,68.9 250.4,67.2 251.2,67.2 252.1,67.2 252.9,67.2 253.7,69.7 254.5,69.7 255.4,69.7 256.2,69.7 257.0,68.6 257.8,68.6 258.7,68.6 259.5,68.6 260.3,68.2 261.1,68.2 262.0,68.2 262.8,68.2 263.6,68.5 264.5,68.5 265.3,68.5 266.1,68.5 266.9,68.2 267.8,68.2 268.6,68.2 269.4,68.2 270.2,68.0 271.1,68.0 271.9,68.0 272.7,68.0 273.5,67.3 274.4,67.3 275.2,67.3 276.0,67.3 276.9,68.2 277.7,68.2 278.5,68.2 279.3,68.2 280.2,69.0 281.0,69.0 281.8,69.0 282.6,69.0 283.5,69.3 284.3,69.3 285.1,69.3 285.9,69.3 286.8,69.3 287.6,69.3 288.4,69.3 289.3,69.3 290.1,70.2 290.9,70.2 291.7,70.2 292.6,70.2 293.4,68.7 294.2,68.7 295.0,68.7 295.9,68.7 296.7,70.0 297.5,70.0 298.3,70.0 299.2,70.0 300.0,68.5 300.8,68.5 301.7,68.5 302.5,68.5 303.3,69.6 304.1,69.6 305.0,69.6 305.8,69.6 306.6,69.0 307.4,69.0 308.3,69.0 309.1,69.0 309.9,68.9 310.7,68.9 311.6,68.9 312.4,68.9 313.2,68.2 314.1,68.2 314.9,68.2 315.7,68.2 316.5,66.8 317.4,66.8 318.2,66.8 319.0,66.8 319.8,65.0 320.7,65.0 321.5,65.0 322.3,65.0 323.1,63.4 324.0,63.4 324.8,63.4 325.6,63.4 326.5,64.2 327.3,64.2 328.1,64.2 328.9,64.2 329.8,64.4 330.6,64.4 331.4,64.4 332.2,64.4 333.1,63.7 333.9,63.7 334.7,63.7 335.5,63.7 336.4,63.2 337.2,63.2 338.0,63.2 338.9,63.2 339.7,63.2 340.5,63.2 341.3,63.2 342.2,63.2 343.0,63.3 343.8,63.3 344.6,63.3 345.5,63.3 346.3,63.0 347.1,63.0 347.9,63.0 348.8,63.0 349.6,64.2 350.4,64.2 351.3,64.2 352.1,64.2 352.9,65.2 353.7,65.2 354.6,65.2 355.4,65.2 356.2,64.5 357.0,64.5 357.9,64.5 358.7,64.5 359.5,65.3 360.3,65.3 361.2,65.3 362.0,65.3 362.8,65.9 363.7,65.9 364.5,65.9 365.3,65.9 366.1,65.0 367.0,65.0 367.8,65.0 368.6,65.0 369.4,65.5 370.3,65.5 371.1,65.5 371.9,65.5 372.7,65.5 373.6,65.5 374.4,65.5 375.2,65.5 376.1,65.5 376.9,65.5 377.7,65.5 378.5,65.5 379.4,65.5 380.2,65.5 381.0,65.5 381.8,65.5 382.7,65.8 383.5,65.8 384.3,65.8 385.1,65.8 386.0,66.2 386.8,66.2 387.6,66.2 388.5,66.2 389.3,65.6 390.1,65.6 390.9,65.6 391.8,65.6 392.6,65.4 393.4,65.4 394.2,65.4 395.1,65.4 395.9,65.1 396.7,65.1 397.5,65.1 398.4,65.1 399.2,65.6 400.0,65.6 400.9,65.6 401.7,65.6 402.5,65.4 403.3,65.4 404.2,65.4 405.0,65.4 405.8,64.9 406.6,64.9 407.5,64.9 408.3,64.9 409.1,64.9 409.9,64.9 410.8,64.9 411.6,64.9 412.4,64.4 413.3,64.4 414.1,64.4 414.9,64.4 415.7,64.7 416.6,64.7 417.4,64.7 418.2,64.7 419.0,64.5 419.9,64.5 420.7,64.5 421.5,64.5 422.3,64.4 423.2,64.4 424.0,64.4 424.8,64.4 425.7,64.7 426.5,64.7 427.3,64.7 428.1,64.7 429.0,64.9 429.8,64.9 430.6,64.9 431.4,64.9 432.3,64.4 433.1,64.4 433.9,64.4 434.7,64.4 435.6,64.4 436.4,64.4 437.2,64.4 438.1,64.4 438.9,64.0 439.7,64.0 440.5,64.0 441.4,64.0 442.2,63.9 443.0,63.9 443.8,63.9 444.7,63.9 445.5,64.3 446.3,64.3 447.1,64.3 448.0,64.3 448.8,63.7 449.6,63.7 450.5,63.7 451.3,63.7 452.1,63.8 452.9,63.8 453.8,63.8 454.6,63.8 455.4,64.2 456.2,64.2 457.1,64.2 457.9,64.2 458.7,63.7 459.5,63.7 460.4,63.7 461.2,63.7 462.0,64.1 462.9,64.1 463.7,64.1 464.5,64.1 465.3,63.9 466.2,63.9 467.0,63.9 467.8,63.9 468.6,64.4 469.5,64.4 470.3,64.4 471.1,64.4 471.9,63.8 472.8,63.8 473.6,63.8 474.4,63.8 475.3,64.0 476.1,64.0 476.9,64.0 477.7,64.0 478.6,63.7 479.4,63.7 480.2,63.7 481.0,63.7 481.9,63.8 482.7,63.8 483.5,63.8 484.3,63.8 485.2,64.2 486.0,64.2 486.8,64.2 487.7,64.2 488.5,64.5 489.3,64.5 490.1,64.5 491.0,64.5 491.8,64.7 492.6,64.7 493.4,64.7 494.3,64.7 495.1,65.2 495.9,65.2 496.7,65.2 497.6,65.2 498.4,65.9 499.2,65.9 500.1,65.9 500.9,65.9 501.7,66.1 502.5,66.1 503.4,66.1 504.2,66.1 505.0,66.6 505.8,66.6 506.7,66.6 507.5,66.6 508.3,66.2 509.1,66.2 510.0,66.2 510.8,66.2 511.6,66.1 512.5,66.1 513.3,66.1 514.1,66.1 514.9,65.5 515.8,65.5 516.6,65.5 517.4,65.5 518.2,66.2 519.1,66.2 519.9,66.2 520.7,66.2 521.5,66.3 522.4,66.3 523.2,66.3 524.0,66.3 524.9,66.3 525.7,66.3 526.5,66.3 527.3,66.3 528.2,66.2 529.0,66.2 529.8,66.2 530.6,66.2 531.5,66.5 532.3,66.5 533.1,66.5 533.9,66.5 534.8,66.9 535.6,66.9 536.4,66.9 537.3,66.9 538.1,66.6 538.9,66.6 539.7,66.6 540.6,66.6 541.4,66.4 542.2,66.4 543.0,66.4 543.9,66.4 544.7,66.2 545.5,66.2 546.3,66.2 547.2,66.2 548.0,66.2 548.8,66.2 549.7,66.2 550.5,66.2 551.3,66.0 552.1,66.0 553.0,66.0 553.8,66.0 554.6,66.3 555.4,66.3 556.3,66.3 557.1,66.3 557.9,66.2 558.7,66.2 559.6,66.2 560.4,66.2 561.2,66.6 562.1,66.6 562.9,66.6 563.7,66.6 564.5,66.4 565.4,66.4 566.2,66.4 567.0,66.4 567.8,66.6 568.7,66.6 569.5,66.6 570.3,66.6 571.1,66.8 572.0,66.8 572.8,66.8 573.6,66.8 574.5,66.3 575.3,66.3 576.1,66.3 576.9,66.3 577.8,66.6 578.6,66.6 579.4,66.6 580.2,66.6 581.1,66.8 581.9,66.8 582.7,66.8 583.5,66.8 584.4,66.9 585.2,66.9 586.0,66.9 586.9,66.9 587.7,67.0 588.5,67.0 589.3,67.0 590.2,67.0 591.0,67.1 591.8,67.1 592.6,67.1 593.5,67.1 594.3,67.0 595.1,67.0 595.9,67.0 596.8,67.0 597.6,67.2 598.4,67.2 599.3,67.2 600.1,67.2 600.9,67.1 601.7,67.1 602.6,67.1 603.4,67.1 604.2,67.0 605.0,67.0 605.9,67.0 606.7,67.0 607.5,66.7 608.3,66.7 609.2,66.7 610.0,66.7 610.8,66.5 611.7,66.5 612.5,66.5 613.3,66.5 614.1,66.4 615.0,66.4 615.8,66.4 616.6,66.4 617.4,66.2 618.3,66.2 619.1,66.2 619.9,66.2 620.7,66.0 621.6,66.0 622.4,66.0 623.2,66.0 624.1,65.7 624.9,65.7 625.7,65.7 626.5,65.7 627.4,65.5 628.2,65.5 629.0,65.5 629.8,65.5 630.7,65.6 631.5,65.6 632.3,65.6 633.1,65.6 634.0,65.6 634.8,65.6 635.6,65.6 636.5,65.6 637.3,66.0 638.1,66.0 638.9,66.0 639.8,66.0 640.6,66.0 641.4,66.0 642.2,66.0 643.1,66.0 643.9,66.2 644.7,66.2 645.5,66.2 646.4,66.2 647.2,66.6 648.0,66.6 648.9,66.6 649.7,66.6 650.5,66.5 651.3,66.5 652.2,66.5 653.0,66.5 653.8,66.4 654.6,66.4 655.5,66.4 656.3,66.4 657.1,66.6 657.9,66.6 658.8,66.6 659.6,66.6 660.4,67.1 661.3,67.1 662.1,67.1 662.9,67.1 663.7,67.2 664.6,67.2 665.4,67.2 666.2,67.2 667.0,67.3 667.9,67.3 668.7,67.3 669.5,67.3 670.3,67.2 671.2,67.2 672.0,67.2 672.8,67.2 673.7,66.9 674.5,66.9 675.3,66.9 676.1,66.9 677.0,66.6 677.8,66.6 678.6,66.6 679.4,66.6 680.3,66.9 681.1,66.9 681.9,66.9 682.7,66.9 683.6,67.2 684.4,67.2 685.2,67.2 686.1,67.2 686.9,67.1 687.7,67.1 688.5,67.1 689.4,67.1 690.2,67.2 691.0,67.2 691.8,67.2 692.7,67.2 693.5,67.3 694.3,67.3 695.1,67.3 696.0,67.3 696.8,67.5 697.6,67.5 698.5,67.5 699.3,67.5 700.1,67.7 700.9,67.7 701.8,67.7 702.6,67.7 703.4,67.6 704.2,67.6 705.1,67.6 705.9,67.6 706.7,67.8 707.5,67.8 708.4,67.8 709.2,67.8 710.0,67.3 710.9,67.3 711.7,67.3 712.5,67.3 713.3,67.5 714.2,67.5 715.0,67.5 715.8,67.5 716.6,67.2 717.5,67.2 718.3,67.2 719.1,67.2 719.9,66.8 720.8,66.8 721.6,66.8 722.4,66.8 723.3,66.7 724.1,66.7 724.9,66.7 725.7,66.7 726.6,66.6 727.4,66.6 728.2,66.6 729.0,66.6 729.9,66.8 730.7,66.8 731.5,66.8 732.3,66.8 733.2,66.7 734.0,66.7 734.8,66.7 735.7,66.7 736.5,66.7 737.3,66.7 738.1,66.7 739.0,66.7 739.8,66.8 740.6,66.8 741.4,66.8 742.3,66.8 743.1,67.3 743.9,67.3 744.7,67.3 745.6,67.3 746.4,67.5 747.2,67.5 748.1,67.5 748.9,67.5 749.7,67.1 750.5,67.1 751.4,67.1 752.2,67.1 753.0,66.6 753.8,66.6 754.7,66.6 755.5,66.6 756.3,66.3 757.1,66.3 758.0,66.3 758.8,66.3 759.6,66.4 760.5,66.4 761.3,66.4 762.1,66.4 762.9,66.2 763.8,66.2 764.6,66.2 765.4,66.2 766.2,66.4 767.1,66.4 767.9,66.4 768.7,66.4 769.5,66.4 770.4,66.4 771.2,66.4 772.0,66.4 772.9,66.5 773.7,66.5 774.5,66.5 775.3,66.5 776.2,66.5 777.0,66.5 777.8,66.5 778.6,66.5 779.5,66.1 780.3,66.1 781.1,66.1 781.9,66.1 782.8,66.0 783.6,66.0 784.4,66.0 785.3,66.0 786.1,66.0 786.9,66.0 787.7,66.0 788.6,66.0 789.4,66.2 790.2,66.2 791.0,66.2 791.9,66.2 792.7,66.0 793.5,66.0 794.3,66.0 795.2,66.0 796.0,66.1"/>
<text x="640" y="88" font-family="Arial" font-size="12" fill="#b45309">baz</text>
</svg>