<svg xmlns="http://www.w3.org/2000/svg" width="820" height="320" viewBox="0 0 820 320">
<rect width="100%" height="100%" fill="white"/>
<text x="52" y="30" font-family="Arial" font-size="18" font-weight="700">ekf_dropout_robust accelerometer bias estimates</text>
<line x1="52" y1="274" x2="796" y2="274" stroke="#263238"/>
<line x1="52" y1="42" x2="52" y2="274" stroke="#263238"/>
<text x="52" y="306" font-family="Arial" font-size="12">time (s)</text>
<text x="630" y="306" font-family="Arial" font-size="12">m/s^2</text>

<polyline fill="none" stroke="#0f766e" stroke-width="2.3" points="52.0,63.5 52.8,63.5 53.7,63.5 54.5,63.5 55.3,63.5 56.1,63.5 57.0,63.5 57.8,63.5 58.6,63.5 59.4,63.5 60.3,63.5 61.1,63.5 61.9,63.5 62.7,63.5 63.6,63.5 64.4,63.5 65.2,63.5 66.1,63.5 66.9,63.5 67.7,63.5 68.5,54.5 69.4,54.5 70.2,54.5 71.0,54.5 71.8,54.5 72.7,54.5 73.5,54.5 74.3,54.5 75.1,54.5 76.0,54.5 76.8,54.5 77.6,54.5 78.5,54.5 79.3,54.5 80.1,54.5 80.9,54.5 81.8,54.5 82.6,54.5 83.4,54.5 84.2,54.5 85.1,48.5 85.9,48.5 86.7,48.5 87.5,48.5 88.4,48.5 89.2,48.5 90.0,48.5 90.9,48.5 91.7,48.5 92.5,48.5 93.3,48.5 94.2,48.5 95.0,48.5 95.8,48.5 96.6,48.5 97.5,48.5 98.3,48.5 99.1,48.5 99.9,48.5 100.8,48.5 101.6,59.4 102.4,59.4 103.3,59.4 104.1,59.4 104.9,59.4 105.7,59.4 106.6,59.4 107.4,59.4 108.2,59.4 109.0,59.4 109.9,59.4 110.7,59.4 111.5,59.4 112.3,59.4 113.2,59.4 114.0,59.4 114.8,59.4 115.7,59.4 116.5,59.4 117.3,59.4 118.1,108.8 119.0,108.8 119.8,108.8 120.6,108.8 121.4,108.8 122.3,108.8 123.1,108.8 123.9,108.8 124.7,108.8 125.6,108.8 126.4,108.8 127.2,108.8 128.1,108.8 128.9,108.8 129.7,108.8 130.5,108.8 131.4,108.8 132.2,108.8 133.0,108.8 133.8,108.8 134.7,133.5 135.5,133.5 136.3,133.5 137.1,133.5 138.0,133.5 138.8,133.5 139.6,133.5 140.5,133.5 141.3,133.5 142.1,133.5 142.9,133.5 143.8,133.5 144.6,133.5 145.4,133.5 146.2,133.5 147.1,133.5 147.9,133.5 148.7,133.5 149.5,133.5 150.4,133.5 151.2,184.1 152.0,184.1 152.9,184.1 153.7,184.1 154.5,184.1 155.3,184.1 156.2,184.1 157.0,184.1 157.8,184.1 158.6,184.1 159.5,184.1 160.3,184.1 161.1,184.1 161.9,184.1 162.8,184.1 163.6,184.1 164.4,184.1 165.3,184.1 166.1,184.1 166.9,184.1 167.7,194.9 168.6,194.9 169.4,194.9 170.2,194.9 171.0,194.9 171.9,194.9 172.7,194.9 173.5,194.9 174.3,194.9 175.2,194.9 176.0,194.9 176.8,194.9 177.7,194.9 178.5,194.9 179.3,194.9 180.1,194.9 181.0,194.9 181.8,194.9 182.6,194.9 183.4,194.9 184.3,274.0 185.1,274.0 185.9,274.0 186.7,274.0 187.6,274.0 188.4,274.0 189.2,274.0 190.1,274.0 190.9,274.0 191.7,274.0 192.5,274.0 193.4,274.0 194.2,274.0 195.0,274.0 195.8,274.0 196.7,274.0 197.5,274.0 198.3,274.0 199.1,274.0 200.0,274.0 200.8,233.1 201.6,233.1 202.5,233.1 203.3,233.1 204.1,233.1 204.9,233.1 205.8,233.1 206.6,233.1 207.4,233.1 208.2,233.1 209.1,233.1 209.9,233.1 210.7,233.1 211.5,233.1 212.4,233.1 213.2,233.1 214.0,233.1 214.9,233.1 215.7,233.1 216.5,233.1 217.3,211.1 218.2,211.1 219.0,211.1 219.8,211.1 220.6,211.1 221.5,211.1 222.3,211.1 223.1,211.1 223.9,211.1 224.8,211.1 225.6,211.1 226.4,211.1 227.3,211.1 228.1,211.1 228.9,211.1 229.7,211.1 230.6,211.1 231.4,211.1 232.2,211.1 233.0,211.1 233.9,200.4 234.7,200.4 235.5,200.4 236.3,200.4 237.2,200.4 238.0,200.4 238.8,200.4 239.7,200.4 240.5,200.4 241.3,200.4 242.1,200.4 243.0,200.4 243.8,200.4 244.6,200.4 245.4,200.4 246.3,200.4 247.1,200.4 247.9,200.4 248.7,200.4 249.6,200.4 250.4,162.2 251.2,162.2 252.1,162.2 252.9,162.2 253.7,162.2 254.5,162.2 255.4,162.2 256.2,162.2 257.0,162.2 257.8,162.2 258.7,162.2 259.5,162.2 260.3,162.2 261.1,162.2 262.0,162.2 262.8,162.2 263.6,162.2 264.5,162.2 265.3,162.2 266.1,162.2 266.9,137.8 267.8,137.8 268.6,137.8 269.4,137.8 270.2,137.8 271.1,137.8 271.9,137.8 272.7,137.8 273.5,137.8 274.4,137.8 275.2,137.8 276.0,137.8 276.9,137.8 277.7,137.8 278.5,137.8 279.3,137.8 280.2,137.8 281.0,137.8 281.8,137.8 282.6,137.8 283.5,95.5 284.3,95.5 285.1,95.5 285.9,95.5 286.8,95.5 287.6,95.5 288.4,95.5 289.3,95.5 290.1,95.5 290.9,95.5 291.7,95.5 292.6,95.5 293.4,95.5 294.2,95.5 295.0,95.5 295.9,95.5 296.7,95.5 297.5,95.5 298.3,95.5 299.2,95.5 300.0,88.5 300.8,88.5 301.7,88.5 302.5,88.5 303.3,88.5 304.1,88.5 305.0,88.5 305.8,88.5 306.6,88.5 307.4,88.5 308.3,88.5 309.1,88.5 309.9,88.5 310.7,88.5 311.6,88.5 312.4,88.5 313.2,88.5 314.1,88.5 314.9,88.5 315.7,88.5 316.5,82.2 317.4,82.2 318.2,82.2 319.0,82.2 319.8,82.2 320.7,82.2 321.5,82.2 322.3,82.2 323.1,82.2 324.0,82.2 324.8,82.2 325.6,82.2 326.5,82.2 327.3,82.2 328.1,82.2 328.9,82.2 329.8,82.2 330.6,82.2 331.4,82.2 332.2,82.2 333.1,73.5 333.9,73.5 334.7,73.5 335.5,73.5 336.4,73.5 337.2,73.5 338.0,73.5 338.9,73.5 339.7,73.5 340.5,73.5 341.3,73.5 342.2,73.5 343.0,73.5 343.8,73.5 344.6,73.5 345.5,73.5 346.3,73.5 347.1,73.5 347.9,73.5 348.8,73.5 349.6,73.5 350.4,73.5 351.3,73.5 352.1,73.5 352.9,73.5 353.7,73.5 354.6,73.5 355.4,73.5 356.2,73.5 357.0,73.5 357.9,73.5 358.7,73.5 359.5,73.5 360.3,73.5 361.2,73.5 362.0,73.5 362.8,73.5 363.7,73.5 364.5,73.5 365.3,73.5 366.1,73.5 367.0,73.5 367.8,73.5 368.6,73.5 369.4,73.5 370.3,73.5 371.1,73.5 371.9,73.5 372.7,73.5 373.6,73.5 374.4,73.5 375.2,73.5 376.1,73.5 376.9,73.5 377.7,73.5 378.5,73.5 379.4,73.5 380.2,73.5 381.0,73.5 381.8,73.5 382.7,73.5 383.5,73.5 384.3,73.5 385.1,73.5 386.0,73.5 386.8,73.5 387.6,73.5 388.5,73.5 389.3,73.5 390.1,73.5 390.9,73.5 391.8,73.5 392.6,73.5 393.4,73.5 394.2,73.5 395.1,73.5 395.9,73.5 396.7,73.5 397.5,73.5 398.4,73.5 399.2,73.5 400.0,73.5 400.9,73.5 401.7,73.5 402.5,73.5 403.3,73.5 404.2,73.5 405.0,73.5 405.8,73.5 406.6,73.5 407.5,73.5 408.3,73.5 409.1,73.5 409.9,73.5 410.8,73.5 411.6,73.5 412.4,73.5 413.3,73.5 414.1,73.5 414.9,73.5 415.7,73.5 416.6,73.5 417.4,73.5 418.2,73.5 419.0,73.5 419.9,73.5 420.7,73.5 421.5,73.5 422.3,73.5 423.2,73.5 424.0,73.5 424.8,73.5 425.7,73.5 426.5,73.5 427.3,73.5 428.1,73.5 429.0,73.5 429.8,73.5 430.6,73.5 431.4,73.5 432.3,73.5 433.1,73.5 433.9,73.5 434.7,73.5 435.6,73.5 436.4,73.5 437.2,73.5 438.1,73.5 438.9,73.5 439.7,73.5 440.5,73.5 441.4,73.5 442.2,73.5 443.0,73.5 443.8,73.5 444.7,73.5 445.5,73.5 446.3,73.5 447.1,73.5 448.0,73.5 448.8,73.5 449.6,73.5 450.5,73.5 451.3,73.5 452.1,73.5 452.9,73.5 453.8,73.5 454.6,73.5 455.4,73.5 456.2,73.5 457.1,73.5 457.9,73.5 458.7,73.5 459.5,73.5 460.4,73.5 461.2,73.5 462.0,73.5 462.9,73.5 463.7,73.5 464.5,73.5 465.3,73.5 466.2,73.5 467.0,73.5 467.8,73.5 468.6,73.5 469.5,73.5 470.3,73.5 471.1,73.5 471.9,73.5 472.8,73.5 473.6,73.5 474.4,73.5 475.3,73.5 476.1,73.5 476.9,73.5 477.7,73.5 478.6,73.5 479.4,73.5 480.2,73.5 481.0,73.5 481.9,73.5 482.7,73.5 483.5,73.5 484.3,73.5 485.2,73.5 486.0,73.5 486.8,73.5 487.7,73.5 488.5,73.5 489.3,73.5 490.1,73.5 491.0,73.5 491.8,73.5 492.6,73.5 493.4,73.5 494.3,73.5 495.1,73.5 495.9,73.5 496.7,73.5 497.6,73.5 498.4,73.5 499.2,73.5 500.1,73.5 500.9,73.5 501.7,73.5 502.5,73.5 503.4,73.5 504.2,73.5 505.0,73.5 505.8,73.5 506.7,73.5 507.5,73.5 508.3,73.5 509.1,73.5 510.0,73.5 510.8,73.5 511.6,73.5 512.5,73.5 513.3,73.5 514.1,73.5 514.9,53.3 515.8,53.3 516.6,53.3 517.4,53.3 518.2,53.3 519.1,53.3 519.9,53.3 520.7,53.3 521.5,53.3 522.4,53.3 523.2,53.3 524.0,53.3 524.9,53.3 525.7,53.3 526.5,53.3 527.3,53.3 528.2,53.3 529.0,53.3 529.8,53.3 530.6,53.3 531.5,54.2 532.3,54.2 533.1,54.2 533.9,54.2 534.8,54.2 535.6,54.2 536.4,54.2 537.3,54.2 538.1,54.2 538.9,54.2 539.7,54.2 540.6,54.2 541.4,54.2 542.2,54.2 543.0,54.2 543.9,54.2 544.7,54.2 545.5,54.2 546.3,54.2 547.2,54.2 548.0,55.6 548.8,55.6 549.7,55.6 550.5,55.6 551.3,55.6 552.1,55.6 553.0,55.6 553.8,55.6 554.6,55.6 555.4,55.6 556.3,55.6 557.1,55.6 557.9,55.6 558.7,55.6 559.6,55.6 560.4,55.6 561.2,55.6 562.1,55.6 562.9,55.6 563.7,55.6 564.5,56.8 565.4,56.8 566.2,56.8 567.0,56.8 567.8,56.8 568.7,56.8 569.5,56.8 570.3,56.8 571.1,56.8 572.0,56.8 572.8,56.8 573.6,56.8 574.5,56.8 575.3,56.8 576.1,56.8 576.9,56.8 577.8,56.8 578.6,56.8 579.4,56.8 580.2,56.8 581.1,59.6 581.9,59.6 582.7,59.6 583.5,59.6 584.4,59.6 585.2,59.6 586.0,59.6 586.9,59.6 587.7,59.6 588.5,59.6 589.3,59.6 590.2,59.6 591.0,59.6 591.8,59.6 592.6,59.6 593.5,59.6 594.3,59.6 595.1,59.6 595.9,59.6 596.8,59.6 597.6,60.4 598.4,60.4 599.3,60.4 600.1,60.4 600.9,60.4 601.7,60.4 602.6,60.4 603.4,60.4 604.2,60.4 605.0,60.4 605.9,60.4 606.7,60.4 607.5,60.4 608.3,60.4 609.2,60.4 610.0,60.4 610.8,60.4 611.7,60.4 612.5,60.4 613.3,60.4 614.1,59.9 615.0,59.9 615.8,59.9 616.6,59.9 617.4,59.9 618.3,59.9 619.1,59.9 619.9,59.9 620.7,59.9 621.6,59.9 622.4,59.9 623.2,59.9 624.1,59.9 624.9,59.9 625.7,59.9 626.5,59.9 627.4,59.9 628.2,59.9 629.0,59.9 629.8,59.9 630.7,61.5 631.5,61.5 632.3,61.5 633.1,61.5 634.0,61.5 634.8,61.5 635.6,61.5 636.5,61.5 637.3,61.5 638.1,61.5 638.9,61.5 639.8,61.5 640.6,61.5 641.4,61.5 642.2,61.5 643.1,61.5 643.9,61.5 644.7,61.5 645.5,61.5 646.4,61.5 647.2,59.6 648.0,59.6 648.9,59.6 649.7,59.6 650.5,59.6 651.3,59.6 652.2,59.6 653.0,59.6 653.8,59.6 654.6,59.6 655.5,59.6 656.3,59.6 657.1,59.6 657.9,59.6 658.8,59.6 659.6,59.6 660.4,59.6 661.3,59.6 662.1,59.6 662.9,59.6 663.7,60.4 664.6,60.4 665.4,60.4 666.2,60.4 667.0,60.4 667.9,60.4 668.7,60.4 669.5,60.4 670.3,60.4 671.2,60.4 672.0,60.4 672.8,60.4 673.7,60.4 674.5,60.4 675.3,60.4 676.1,60.4 677.0,60.4 677.8,60.4 678.6,60.4 679.4,60.4 680.3,53.4 681.1,53.4 681.9,53.4 682.7,53.4 683.6,53.4 684.4,53.4 685.2,53.4 686.1,53.4 686.9,53.4 687.7,53.4 688.5,53.4 689.4,53.4 690.2,53.4 691.0,53.4 691.8,53.4 692.7,53.4 693.5,53.4 694.3,53.4 695.1,53.4 696.0,53.4 696.8,54.5 697.6,54.5 698.5,54.5 699.3,54.5 700.1,54.5 700.9,54.5 701.8,54.5 702.6,54.5 703.4,54.5 704.2,54.5 705.1,54.5 705.9,54.5 706.7,54.5 707.5,54.5 708.4,54.5 709.2,54.5 710.0,54.5 710.9,54.5 711.7,54.5 712.5,54.5 713.3,53.8 714.2,53.8 715.0,53.8 715.8,53.8 716.6,53.8 717.5,53.8 718.3,53.8 719.1,53.8 719.9,53.8 720.8,53.8 721.6,53.8 722.4,53.8 723.3,53.8 724.1,53.8 724.9,53.8 725.7,53.8 726.6,53.8 727.4,53.8 728.2,53.8 729.0,53.8 729.9,54.0 730.7,54.0 731.5,54.0 732.3,54.0 733.2,54.0 734.0,54.0 734.8,54.0 735.7,54.0 736.5,54.0 737.3,54.0 738.1,54.0 739.0,54.0 739.8,54.0 740.6,54.0 741.4,54.0 742.3,54.0 743.1,54.0 743.9,54.0 744.7,54.0 745.6,54.0 746.4,54.0 747.2,54.0 748.1,54.0 748.9,54.0 749.7,54.0 750.5,54.0 751.4,54.0 752.2,54.0 753.0,54.0 753.8,54.0 754.7,54.0 755.5,54.0 756.3,54.0 757.1,54.0 758.0,54.0 758.8,54.0 759.6,54.0 760.5,54.0 761.3,54.0 762.1,54.0 762.9,56.5 763.8,56.5 764.6,56.5 765.4,56.5 766.2,56.5 767.1,56.5 767.9,56.5 768.7,56.5 769.5,56.5 770.4,56.5 771.2,56.5 772.0,56.5 772.9,56.5 773.7,56.5 774.5,56.5 775.3,56.5 776.2,56.5 777.0,56.5 777.8,56.5 778.6,56.5 779.5,57.0 780.3,57.0 781.1,57.0 781.9,57.0 782.8,57.0 783.6,57.0 784.4,57.0 785.3,57.0 786.1,57.0 786.9,57.0 787.7,57.0 788.6,57.0 789.4,57.0 790.2,57.0 791.0,57.0 791.9,57.0 792.7,57.0 793.5,57.0 794.3,57.0 795.2,57.0 796.0,53.6"/>
<text x="640" y="56" font-family="Arial" font-size="12" fill="#0f766e">bax</text>
<polyline fill="none" stroke="#2563eb" stroke-width="2.3" points="52.0,63.5 52.8,63.5 53.7,63.5 54.5,63.5 55.3,63.5 56.1,63.5 57.0,63.5 57.8,63.5 58.6,63.5 59.4,63.5 60.3,63.5 61.1,63.5 61.9,63.5 62.7,63.5 63.6,63.5 64.4,63.5 65.2,63.5 66.1,63.5 66.9,63.5 67.7,63.5 68.5,53.3 69.4,53.3 70.2,53.3 71.0,53.3 71.8,53.3 72.7,53.3 73.5,53.3 74.3,53.3 75.1,53.3 76.0,53.3 76.8,53.3 77.6,53.3 78.5,53.3 79.3,53.3 80.1,53.3 80.9,53.3 81.8,53.3 82.6,53.3 83.4,53.3 84.2,53.3 85.1,71.7 85.9,71.7 86.7,71.7 87.5,71.7 88.4,71.7 89.2,71.7 90.0,71.7 90.9,71.7 91.7,71.7 92.5,71.7 93.3,71.7 94.2,71.7 95.0,71.7 95.8,71.7 96.6,71.7 97.5,71.7 98.3,71.7 99.1,71.7 99.9,71.7 100.8,71.7 101.6,80.9 102.4,80.9 103.3,80.9 104.1,80.9 104.9,80.9 105.7,80.9 106.6,80.9 107.4,80.9 108.2,80.9 109.0,80.9 109.9,80.9 110.7,80.9 111.5,80.9 112.3,80.9 113.2,80.9 114.0,80.9 114.8,80.9 115.7,80.9 116.5,80.9 117.3,80.9 118.1,89.0 119.0,89.0 119.8,89.0 120.6,89.0 121.4,89.0 122.3,89.0 123.1,89.0 123.9,89.0 124.7,89.0 125.6,89.0 126.4,89.0 127.2,89.0 128.1,89.0 128.9,89.0 129.7,89.0 130.5,89.0 131.4,89.0 132.2,89.0 133.0,89.0 133.8,89.0 134.7,158.2 135.5,158.2 136.3,158.2 137.1,158.2 138.0,158.2 138.8,158.2 139.6,158.2 140.5,158.2 141.3,158.2 142.1,158.2 142.9,158.2 143.8,158.2 144.6,158.2 145.4,158.2 146.2,158.2 147.1,158.2 147.9,158.2 148.7,158.2 149.5,158.2 150.4,158.2 151.2,125.8 152.0,125.8 152.9,125.8 153.7,125.8 154.5,125.8 155.3,125.8 156.2,125.8 157.0,125.8 157.8,125.8 158.6,125.8 159.5,125.8 160.3,125.8 161.1,125.8 161.9,125.8 162.8,125.8 163.6,125.8 164.4,125.8 165.3,125.8 166.1,125.8 166.9,125.8 167.7,118.7 168.6,118.7 169.4,118.7 170.2,118.7 171.0,118.7 171.9,118.7 172.7,118.7 173.5,118.7 174.3,118.7 175.2,118.7 176.0,118.7 176.8,118.7 177.7,118.7 178.5,118.7 179.3,118.7 180.1,118.7 181.0,118.7 181.8,118.7 182.6,118.7 183.4,118.7 184.3,135.6 185.1,135.6 185.9,135.6 186.7,135.6 187.6,135.6 188.4,135.6 189.2,135.6 190.1,135.6 190.9,135.6 191.7,135.6 192.5,135.6 193.4,135.6 194.2,135.6 195.0,135.6 195.8,135.6 196.7,135.6 197.5,135.6 198.3,135.6 199.1,135.6 200.0,135.6 200.8,159.6 201.6,159.6 202.5,159.6 203.3,159.6 204.1,159.6 204.9,159.6 205.8,159.6 206.6,159.6 207.4,159.6 208.2,159.6 209.1,159.6 209.9,159.6 210.7,159.6 211.5,159.6 212.4,159.6 213.2,159.6 214.0,159.6 214.9,159.6 215.7,159.6 216.5,159.6 217.3,160.7 218.2,160.7 219.0,160.7 219.8,160.7 220.6,160.7 221.5,160.7 222.3,160.7 223.1,160.7 223.9,160.7 224.8,160.7 225.6,160.7 226.4,160.7 227.3,160.7 228.1,160.7 228.9,160.7 229.7,160.7 230.6,160.7 231.4,160.7 232.2,160.7 233.0,160.7 233.9,152.9 234.7,152.9 235.5,152.9 236.3,152.9 237.2,152.9 238.0,152.9 238.8,152.9 239.7,152.9 240.5,152.9 241.3,152.9 242.1,152.9 243.0,152.9 243.8,152.9 244.6,152.9 245.4,152.9 246.3,152.9 247.1,152.9 247.9,152.9 248.7,152.9 249.6,152.9 250.4,142.8 251.2,142.8 252.1,142.8 252.9,142.8 253.7,142.8 254.5,142.8 255.4,142.8 256.2,142.8 257.0,142.8 257.8,142.8 258.7,142.8 259.5,142.8 260.3,142.8 261.1,142.8 262.0,142.8 262.8,142.8 263.6,142.8 264.5,142.8 265.3,142.8 266.1,142.8 266.9,134.2 267.8,134.2 268.6,134.2 269.4,134.2 270.2,134.2 271.1,134.2 271.9,134.2 272.7,134.2 273.5,134.2 274.4,134.2 275.2,134.2 276.0,134.2 276.9,134.2 277.7,134.2 278.5,134.2 279.3,134.2 280.2,134.2 281.0,134.2 281.8,134.2 282.6,134.2 283.5,104.6 284.3,104.6 285.1,104.6 285.9,104.6 286.8,104.6 287.6,104.6 288.4,104.6 289.3,104.6 290.1,104.6 290.9,104.6 291.7,104.6 292.6,104.6 293.4,104.6 294.2,104.6 295.0,104.6 295.9,104.6 296.7,104.6 297.5,104.6 298.3,104.6 299.2,104.6 300.0,98.6 300.8,98.6 301.7,98.6 302.5,98.6 303.3,98.6 304.1,98.6 305.0,98.6 305.8,98.6 306.6,98.6 307.4,98.6 308.3,98.6 309.1,98.6 309.9,98.6 310.7,98.6 311.6,98.6 312.4,98.6 313.2,98.6 314.1,98.6 314.9,98.6 315.7,98.6 316.5,96.8 317.4,96.8 318.2,96.8 319.0,96.8 319.8,96.8 320.7,96.8 321.5,96.8 322.3,96.8 323.1,96.8 324.0,96.8 324.8,96.8 325.6,96.8 326.5,96.8 327.3,96.8 328.1,96.8 328.9,96.8 329.8,96.8 330.6,96.8 331.4,96.8 332.2,96.8 333.1,84.1 333.9,84.1 334.7,84.1 335.5,84.1 336.4,84.1 337.2,84.1 338.0,84.1 338.9,84.1 339.7,84.1 340.5,84.1 341.3,84.1 342.2,84.1 343.0,84.1 343.8,84.1 344.6,84.1 345.5,84.1 346.3,84.1 347.1,84.1 347.9,84.1 348.8,84.1 349.6,84.1 350.4,84.1 351.3,84.1 352.1,84.1 352.9,84.1 353.7,84.1 354.6,84.1 355.4,84.1 356.2,84.1 357.0,84.1 357.9,84.1 358.7,84.1 359.5,84.1 360.3,84.1 361.2,84.1 362.0,84.1 362.8,84.1 363.7,84.1 364.5,84.1 365.3,84.1 366.1,84.1 367.0,84.1 367.8,84.1 368.6,84.1 369.4,84.1 370.3,84.1 371.1,84.1 371.9,84.1 372.7,84.1 373.6,84.1 374.4,84.1 375.2,84.1 376.1,84.1 376.9,84.1 377.7,84.1 378.5,84.1 379.4,84.1 380.2,84.1 381.0,84.1 381.8,84.1 382.7,84.1 383.5,84.1 384.3,84.1 385.1,84.1 386.0,84.1 386.8,84.1 387.6,84.1 388.5,84.1 389.3,84.1 390.1,84.1 390.9,84.1 391.8,84.1 392.6,84.1 393.4,84.1 394.2,84.1 395.1,84.1 395.9,84.1 396.7,84.1 397.5,84.1 398.4,84.1 399.2,84.1 400.0,84.1 400.9,84.1 401.7,84.1 402.5,84.1 403.3,84.1 404.2,84.1 405.0,84.1 405.8,84.1 406.6,84.1 407.5,84.1 408.3,84.1 409.1,84.1 409.9,84.1 410.8,84.1 411.6,84.1 412.4,84.1 413.3,84.1 414.1,84.1 414.9,84.1 415.7,84.1 416.6,84.1 417.4,84.1 418.2,84.1 419.0,84.1 419.9,84.1 420.7,84.1 421.5,84.1 422.3,84.1 423.2,84.1 424.0,84.1 424.8,84.1 425.7,84.1 426.5,84.1 427.3,84.1 428.1,84.1 429.0,84.1 429.8,84.1 430.6,84.1 431.4,84.1 432.3,84.1 433.1,84.1 433.9,84.1 434.7,84.1 435.6,84.1 436.4,84.1 437.2,84.1 438.1,84.1 438.9,84.1 439.7,84.1 440.5,84.1 441.4,84.1 442.2,84.1 443.0,84.1 443.8,84.1 444.7,84.1 445.5,84.1 446.3,84.1 447.1,84.1 448.0,84.1 448.8,84.1 449.6,84.1 450.5,84.1 451.3,84.1 452.1,84.1 452.9,84.1 453.8,84.1 454.6,84.1 455.4,84.1 456.2,84.1 457.1,84.1 457.9,84.1 458.7,84.1 459.5,84.1 460.4,84.1 461.2,84.1 462.0,84.1 462.9,84.1 463.7,84.1 464.5,84.1 465.3,84.1 466.2,84.1 467.0,84.1 467.8,84.1 468.6,84.1 469.5,84.1 470.3,84.1 471.1,84.1 471.9,84.1 472.8,84.1 473.6,84.1 474.4,84.1 475.3,84.1 476.1,84.1 476.9,84.1 477.7,84.1 478.6,84.1 479.4,84.1 480.2,84.1 481.0,84.1 481.9,84.1 482.7,84.1 483.5,84.1 484.3,84.1 485.2,84.1 486.0,84.1 486.8,84.1 487.7,84.1 488.5,84.1 489.3,84.1 490.1,84.1 491.0,84.1 491.8,84.1 492.6,84.1 493.4,84.1 494.3,84.1 495.1,84.1 495.9,84.1 496.7,84.1 497.6,84.1 498.4,84.1 499.2,84.1 500.1,84.1 500.9,84.1 501.7,84.1 502.5,84.1 503.4,84.1 504.2,84.1 505.0,84.1 505.8,84.1 506.7,84.1 507.5,84.1 508.3,84.1 509.1,84.1 510.0,84.1 510.8,84.1 511.6,84.1 512.5,84.1 513.3,84.1 514.1,84.1 514.9,77.2 515.8,77.2 516.6,77.2 517.4,77.2 518.2,77.2 519.1,77.2 519.9,77.2 520.7,77.2 521.5,77.2 522.4,77.2 523.2,77.2 524.0,77.2 524.9,77.2 525.7,77.2 526.5,77.2 527.3,77.2 528.2,77.2 529.0,77.2 529.8,77.2 530.6,77.2 531.5,80.4 532.3,80.4 533.1,80.4 533.9,80.4 534.8,80.4 535.6,80.4 536.4,80.4 537.3,80.4 538.1,80.4 538.9,80.4 539.7,80.4 540.6,80.4 541.4,80.4 542.2,80.4 543.0,80.4 543.9,80.4 544.7,80.4 545.5,80.4 546.3,80.4 547.2,80.4 548.0,81.9 548.8,81.9 549.7,81.9 550.5,81.9 551.3,81.9 552.1,81.9 553.0,81.9 553.8,81.9 554.6,81.9 555.4,81.9 556.3,81.9 557.1,81.9 557.9,81.9 558.7,81.9 559.6,81.9 560.4,81.9 561.2,81.9 562.1,81.9 562.9,81.9 563.7,81.9 564.5,87.4 565.4,87.4 566.2,87.4 567.0,87.4 567.8,87.4 568.7,87.4 569.5,87.4 570.3,87.4 571.1,87.4 572.0,87.4 572.8,87.4 573.6,87.4 574.5,87.4 575.3,87.4 576.1,87.4 576.9,87.4 577.8,87.4 578.6,87.4 579.4,87.4 580.2,87.4 581.1,81.4 581.9,81.4 582.7,81.4 583.5,81.4 584.4,81.4 585.2,81.4 586.0,81.4 586.9,81.4 587.7,81.4 588.5,81.4 589.3,81.4 590.2,81.4 591.0,81.4 591.8,81.4 592.6,81.4 593.5,81.4 594.3,81.4 595.1,81.4 595.9,81.4 596.8,81.4 597.6,77.5 598.4,77.5 599.3,77.5 600.1,77.5 600.9,77.5 601.7,77.5 602.6,77.5 603.4,77.5 604.2,77.5 605.0,77.5 605.9,77.5 606.7,77.5 607.5,77.5 608.3,77.5 609.2,77.5 610.0,77.5 610.8,77.5 611.7,77.5 612.5,77.5 613.3,77.5 614.1,75.4 615.0,75.4 615.8,75.4 616.6,75.4 617.4,75.4 618.3,75.4 619.1,75.4 619.9,75.4 620.7,75.4 621.6,75.4 622.4,75.4 623.2,75.4 624.1,75.4 624.9,75.4 625.7,75.4 626.5,75.4 627.4,75.4 628.2,75.4 629.0,75.4 629.8,75.4 630.7,72.3 631.5,72.3 632.3,72.3 633.1,72.3 634.0,72.3 634.8,72.3 635.6,72.3 636.5,72.3 637.3,72.3 638.1,72.3 638.9,72.3 639.8,72.3 640.6,72.3 641.4,72.3 642.2,72.3 643.1,72.3 643.9,72.3 644.7,72.3 645.5,72.3 646.4,72.3 647.2,73.4 648.0,73.4 648.9,73.4 649.7,73.4 650.5,73.4 651.3,73.4 652.2,73.4 653.0,73.4 653.8,73.4 654.6,73.4 655.5,73.4 656.3,73.4 657.1,73.4 657.9,73.4 658.8,73.4 659.6,73.4 660.4,73.4 661.3,73.4 662.1,73.4 662.9,73.4 663.7,68.4 664.6,68.4 665.4,68.4 666.2,68.4 667.0,68.4 667.9,68.4 668.7,68.4 669.5,68.4 670.3,68.4 671.2,68.4 672.0,68.4 672.8,68.4 673.7,68.4 674.5,68.4 675.3,68.4 676.1,68.4 677.0,68.4 677.8,68.4 678.6,68.4 679.4,68.4 680.3,72.2 681.1,72.2 681.9,72.2 682.7,72.2 683.6,72.2 684.4,72.2 685.2,72.2 686.1,72.2 686.9,72.2 687.7,72.2 688.5,72.2 689.4,72.2 690.2,72.2 691.0,72.2 691.8,72.2 692.7,72.2 693.5,72.2 694.3,72.2 695.1,72.2 696.0,72.2 696.8,74.1 697.6,74.1 698.5,74.1 699.3,74.1 700.1,74.1 700.9,74.1 701.8,74.1 702.6,74.1 703.4,74.1 704.2,74.1 705.1,74.1 705.9,74.1 706.7,74.1 707.5,74.1 708.4,74.1 709.2,74.1 710.0,74.1 710.9,74.1 711.7,74.1 712.5,74.1 713.3,75.7 714.2,75.7 715.0,75.7 715.8,75.7 716.6,75.7 717.5,75.7 718.3,75.7 719.1,75.7 719.9,75.7 720.8,75.7 721.6,75.7 722.4,75.7 723.3,75.7 724.1,75.7 724.9,75.7 725.7,75.7 726.6,75.7 727.4,75.7 728.2,75.7 729.0,75.7 729.9,74.5 730.7,74.5 731.5,74.5 732.3,74.5 733.2,74.5 734.0,74.5 734.8,74.5 735.7,74.5 736.5,74.5 737.3,74.5 738.1,74.5 739.0,74.5 739.8,74.5 740.6,74.5 741.4,74.5 742.3,74.5 743.1,74.5 743.9,74.5 744.7,74.5 745.6,74.5 746.4,74.8 747.2,74.8 748.1,74.8 748.9,74.8 749.7,74.8 750.5,74.8 751.4,74.8 752.2,74.8 753.0,74.8 753.8,74.8 754.7,74.8 755.5,74.8 756.3,74.8 757.1,74.8 758.0,74.8 758.8,74.8 759.6,74.8 760.5,74.8 761.3,74.8 762.1,74.8 762.9,71.3 763.8,71.3 764.6,71.3 765.4,71.3 766.2,71.3 767.1,71.3 767.9,71.3 768.7,71.3 769.5,71.3 770.4,71.3 771.2,71.3 772.0,71.3 772.9,71.3 773.7,71.3 774.5,71.3 775.3,71.3 776.2,71.3 777.0,71.3 777.8,71.3 778.6,71.3 779.5,73.3 780.3,73.3 781.1,73.3 781.9,73.3 782.8,73.3 783.6,73.3 784.4,73.3 785.3,73.3 786.1,73.3 786.9,73.3 787.7,73.3 788.6,73.3 789.4,73.3 790.2,73.3 791.0,73.3 791.9,73.3 792.7,73.3 793.5,73.3 794.3,73.3 795.2,73.3 796.0,74.1"/>
<text x="640" y="72" font-family="Arial" font-size="12" fill="#2563eb">bay</text>
<polyline fill="none" stroke="#b45309" stroke-width="2.3" points="52.0,63.5 52.8,63.5 53.7,63.5 54.5,63.5 55.3,63.6 56.1,63.6 57.0,63.6 57.8,63.6 58.6,63.6 59.4,63.6 60.3,63.6 61.1,63.6 61.9,62.9 62.7,62.9 63.6,62.9 64.4,62.9 65.2,59.7 66.1,59.7 66.9,59.7 67.7,59.7 68.5,61.6 69.4,61.6 70.2,61.6 71.0,61.6 71.8,63.9 72.7,63.9 73.5,63.9 74.3,63.9 75.1,65.7 76.0,65.7 76.8,65.7 77.6,65.7 78.5,63.2 79.3,63.2 80.1,63.2 80.9,63.2 81.8,71.4 82.6,71.4 83.4,71.4 84.2,71.4 85.1,85.6 85.9,85.6 86.7,85.6 87.5,85.6 88.4,62.1 89.2,62.1 90.0,62.1 90.9,62.1 91.7,58.4 92.5,58.4 93.3,58.4 94.2,58.4 95.0,52.3 95.8,52.3 96.6,52.3 97.5,52.3 98.3,51.5 99.1,51.5 99.9,51.5 100.8,51.5 101.6,42.0 102.4,42.0 103.3,42.0 104.1,42.0 104.9,49.9 105.7,49.9 106.6,49.9 107.4,49.9 108.2,66.6 109.0,66.6 109.9,66.6 110.7,66.6 111.5,93.1 112.3,93.1 113.2,93.1 114.0,93.1 114.8,71.1 115.7,71.1 116.5,71.1 117.3,71.1 118.1,78.6 119.0,78.6 119.8,78.6 120.6,78.6 121.4,69.5 122.3,69.5 123.1,69.5 123.9,69.5 124.7,76.8 125.6,76.8 126.4,76.8 127.2,76.8 128.1,96.1 128.9,96.1 129.7,96.1 130.5,96.1 131.4,102.5 132.2,102.5 133.0,102.5 133.8,102.5 134.7,92.1 135.5,92.1 136.3,92.1 137.1,92.1 138.0,70.3 138.8,70.3 139.6,70.3 140.5,70.3 141.3,72.0 142.1,72.0 142.9,72.0 143.8,72.0 144.6,73.7 145.4,73.7 146.2,73.7 147.1,73.7 147.9,73.6 148.7,73.6 149.5,73.6 150.4,73.6 151.2,79.0 152.0,79.0 152.9,79.0 153.7,79.0 154.5,89.1 155.3,89.1 156.2,89.1 157.0,89.1 157.8,78.0 158.6,78.0 159.5,78.0 160.3,78.0 161.1,80.6 161.9,80.6 162.8,80.6 163.6,80.6 164.4,74.5 165.3,74.5 166.1,74.5 166.9,74.5 167.7,79.3 168.6,79.3 169.4,79.3 170.2,79.3 171.0,69.3 171.9,69.3 172.7,69.3 173.5,69.3 174.3,69.5 175.2,69.5 176.0,69.5 176.8,69.5 177.7,68.7 178.5,68.7 179.3,68.7 180.1,68.7 181.0,70.2 181.8,70.2 182.6,70.2 183.4,70.2 184.3,67.2 185.1,67.2 185.9,67.2 186.7,67.2 187.6,68.6 188.4,68.6 189.2,68.6 190.1,68.6 190.9,73.8 191.7,73.8 192.5,73.8 193.4,73.8 194.2,68.8 195.0,68.8 195.8,68.8 196.7,68.8 197.5,70.2 198.3,70.2 199.1,70.2 200.0,70.2 200.8,68.4 201.6,68.4 202.5,68.4 203.3,68.4 204.1,69.5 204.9,69.5 205.8,69.5 206.6,69.5 207.4,64.4 208.2,64.4 209.1,64.4 209.9,64.4 210.7,61.9 211.5,61.9 212.4,61.9 213.2,61.9 214.0,62.0 214.9,62.0 215.7,62.0 216.5,62.0 217.3,64.3 218.2,64.3 219.0,64.3 219.8,64.3 220.6,64.4 221.5,64.4 222.3,64.4 223.1,64.4 223.9,59.4 224.8,59.4 225.6,59.4 226.4,59.4 227.3,58.6 228.1,58.6 228.9,58.6 229.7,58.6 230.6,62.7 231.4,62.7 232.2,62.7 233.0,62.7 233.9,65.3 234.7,65.3 235.5,65.3 236.3,65.3 237.2,65.6 238.0,65.6 238.8,65.6 239.7,65.6 240.5,64.5 241.3,64.5 242.1,64.5 243.0,64.5 243.8,61.3 244.6,61.3 245.4,61.3 246.3,61.3 247.1,61.9 247.9,61.9 248.7,61.9 249.6,61.9 250.4,59.4 251.2,59.4 252.1,59.4 252.9,59.4 253.7,62.9 254.5,62.9 255.4,62.9 256.2,62.9 257.0,61.5 257.8,61.5 258.7,61.5 259.5,61.5 260.3,60.9 261.1,60.9 262.0,60.9 262.8,60.9 263.6,61.3 264.5,61.3 265.3,61.3 266.1,61.3 266.9,60.8 267.8,60.8 268.6,60.8 269.4,60.8 270.2,60.6 271.1,60.6 271.9,60.6 272.7,60.6 273.5,59.6 274.4,59.6 275.2,59.6 276.0,59.6 276.9,61.0 277.7,61.0 278.5,61.0 279.3,61.0 280.2,62.2 281.0,62.2 281.8,62.2 282.6,62.2 283.5,62.7 284.3,62.7 285.1,62.7 285.9,62.7 286.8,62.7 287.6,62.7 288.4,62.7 289.3,62.7 290.1,64.1 290.9,64.1 291.7,64.1 292.6,64.1 293.4,61.7 294.2,61.7 295.0,61.7 295.9,61.7 296.7,63.7 297.5,63.7 298.3,63.7 299.2,63.7 300.0,61.4 300.8,61.4 301.7,61.4 302.5,61.4 303.3,63.1 304.1,63.1 305.0,63.1 305.8,63.1 306.6,62.2 307.4,62.2 308.3,62.2 309.1,62.2 309.9,61.9 310.7,61.9 311.6,61.9 312.4,61.9 313.2,60.9 314.1,60.9 314.9,60.9 315.7,60.9 316.5,58.6 317.4,58.6 318.2,58.6 319.0,58.6 319.8,55.6 320.7,55.6 321.5,55.6 322.3,55.6 323.1,53.1 324.0,53.1 324.8,53.1 325.6,53.1 326.5,54.5 327.3,54.5 328.1,54.5 328.9,54.5 329.8,55.1 330.6,55.1 331.4,55.1 332.2,55.1 333.1,54.0 333.9,54.0 334.7,54.0 335.5,54.0 336.4,53.2 337.2,53.2 338.0,53.2 338.9,53.2 339.7,53.4 340.5,53.4 341.3,53.4 342.2,53.4 343.0,53.7 343.8,53.7 344.6,53.7 345.5,53.7 346.3,53.4 347.1,53.4 347.9,53.4 348.8,53.4 349.6,55.7 350.4,55.7 351.3,55.7 352.1,55.7 352.9,57.8 353.7,57.8 354.6,57.8 355.4,57.8 356.2,56.3 357.0,56.3 357.9,56.3 358.7,56.3 359.5,58.0 360.3,58.0 361.2,58.0 362.0,58.0 362.8,59.3 363.7,59.3 364.5,59.3 365.3,59.3 366.1,57.4 367.0,57.4 367.8,57.4 368.6,57.4 369.4,58.5 370.3,58.5 371.1,58.5 371.9,58.5 372.7,58.5 373.6,58.5 374.4,58.5 375.2,58.5 376.1,58.3 376.9,58.3 377.7,58.3 378.5,58.3 379.4,58.4 380.2,58.4 381.0,58.4 381.8,58.4 382.7,59.0 383.5,59.0 384.3,59.0 385.1,59.0 386.0,59.8 386.8,59.8 387.6,59.8 388.5,59.8 389.3,58.4 390.1,58.4 390.9,58.4 391.8,58.4 392.6,58.0 393.4,58.0 394.2,58.0 395.1,58.0 395.9,57.2 396.7,57.2 397.5,57.2 398.4,57.2 399.2,58.5 400.0,58.5 400.9,58.5 401.7,58.5 402.5,58.0 403.3,58.0 404.2,58.0 405.0,58.0 405.8,56.6 406.6,56.6 407.5,56.6 408.3,56.6 409.1,56.5 409.9,56.5 410.8,56.5 411.6,56.5 412.4,55.3 413.3,55.3 414.1,55.3 414.9,55.3 415.7,56.2 416.6,56.2 417.4,56.2 418.2,56.2 419.0,55.8 419.9,55.8 420.7,55.8 421.5,55.8 422.3,55.6 423.2,55.6 424.0,55.6 424.8,55.6 425.7,56.7 426.5,56.7 427.3,56.7 428.1,56.7 429.0,57.1 429.8,57.1 430.6,57.1 431.4,57.1 432.3,55.7 433.1,55.7 433.9,55.7 434.7,55.7 435.6,55.5 436.4,55.5 437.2,55.5 438.1,55.5 438.9,54.6 439.7,54.6 440.5,54.6 441.4,54.6 442.2,54.2 443.0,54.2 443.8,54.2 444.7,54.2 445.5,55.9 446.3,55.9 447.1,55.9 448.0,55.9 448.8,53.8 449.6,53.8 450.5,53.8 451.3,53.8 452.1,54.4 452.9,54.4 453.8,54.4 454.6,54.4 455.4,55.9 456.2,55.9 457.1,55.9 457.9,55.9 458.7,54.0 459.5,54.0 460.4,54.0 461.2,54.0 462.0,55.7 462.9,55.7 463.7,55.7 464.5,55.7 465.3,55.3 466.2,55.3 467.0,55.3 467.8,55.3 468.6,57.2 469.5,57.2 470.3,57.2 471.1,57.2 471.9,54.8 472.8,54.8 473.6,54.8 474.4,54.8 475.3,55.5 476.1,55.5 476.9,55.5 477.7,55.5 478.6,54.6 479.4,54.6 480.2,54.6 481.0,54.6 481.9,54.9 482.7,54.9 483.5,54.9 484.3,54.9 485.2,57.0 486.0,57.0 486.8,57.0 487.7,57.0 488.5,58.3 489.3,58.3 490.1,58.3 491.0,58.3 491.8,58.9 492.6,58.9 493.4,58.9 494.3,58.9 495.1,60.9 495.9,60.9 496.7,60.9 497.6,60.9 498.4,63.9 499.2,63.9 500.1,63.9 500.9,63.9 501.7,64.4 502.5,64.4 503.4,64.4 504.2,64.4 505.0,66.3 505.8,66.3 506.7,66.3 507.5,66.3 508.3,64.0 509.1,64.0 510.0,64.0 510.8,64.0 511.6,62.6 512.5,62.6 513.3,62.6 514.1,62.6 514.9,59.7 515.8,59.7 516.6,59.7 517.4,59.7 518.2,62.6 519.1,62.6 519.9,62.6 520.7,62.6 521.5,62.8 522.4,62.8 523.2,62.8 524.0,62.8 524.9,62.3 525.7,62.3 526.5,62.3 527.3,62.3 528.2,61.2 529.0,61.2 529.8,61.2 530.6,61.2 531.5,62.4 532.3,62.4 533.1,62.4 533.9,62.4 534.8,64.0 535.6,64.0 536.4,64.0 537.3,64.0 538.1,62.4 538.9,62.4 539.7,62.4 540.6,62.4 541.4,61.0 542.2,61.0 543.0,61.0 543.9,61.0 544.7,59.9 545.5,59.9 546.3,59.9 547.2,59.9 548.0,59.7 548.8,59.7 549.7,59.7 550.5,59.7 551.3,58.4 552.1,58.4 553.0,58.4 553.8,58.4 554.6,59.6 555.4,59.6 556.3,59.6 557.1,59.6 557.9,59.1 558.7,59.1 559.6,59.1 560.4,59.1 561.2,61.1 562.1,61.1 562.9,61.1 563.7,61.1 564.5,59.9 565.4,59.9 566.2,59.9 567.0,59.9 567.8,60.7 568.7,60.7 569.5,60.7 570.3,60.7 571.1,61.4 572.0,61.4 572.8,61.4 573.6,61.4 574.5,59.2 575.3,59.2 576.1,59.2 576.9,59.2 577.8,60.4 578.6,60.4 579.4,60.4 580.2,60.4 581.1,60.8 581.9,60.8 582.7,60.8 583.5,60.8 584.4,61.0 585.2,61.0 586.0,61.0 586.9,61.0 587.7,61.6 588.5,61.6 589.3,61.6 590.2,61.6 591.0,61.8 591.8,61.8 592.6,61.8 593.5,61.8 594.3,61.1 595.1,61.1 595.9,61.1 596.8,61.1 597.6,61.7 598.4,61.7 599.3,61.7 600.1,61.7 600.9,61.2 601.7,61.2 602.6,61.2 603.4,61.2 604.2,60.8 605.0,60.8 605.9,60.8 606.7,60.8 607.5,59.5 608.3,59.5 609.2,59.5 610.0,59.5 610.8,58.9 611.7,58.9 612.5,58.9 613.3,58.9 614.1,58.5 615.0,58.5 615.8,58.5 616.6,58.5 617.4,57.9 618.3,57.9 619.1,57.9 619.9,57.9 620.7,56.9 621.6,56.9 622.4,56.9 623.2,56.9 624.1,55.8 624.9,55.8 625.7,55.8 626.5,55.8 627.4,55.4 628.2,55.4 629.0,55.4 629.8,55.4 630.7,56.0 631.5,56.0 632.3,56.0 633.1,56.0 634.0,56.2 634.8,56.2 635.6,56.2 636.5,56.2 637.3,57.7 638.1,57.7 638.9,57.7 639.8,57.7 640.6,57.7 641.4,57.7 642.2,57.7 643.1,57.7 643.9,58.6 644.7,58.6 645.5,58.6 646.4,58.6 647.2,59.9 648.0,59.9 648.9,59.9 649.7,59.9 650.5,59.7 651.3,59.7 652.2,59.7 653.0,59.7 653.8,59.2 654.6,59.2 655.5,59.2 656.3,59.2 657.1,59.9 657.9,59.9 658.8,59.9 659.6,59.9 660.4,61.7 661.3,61.7 662.1,61.7 662.9,61.7 663.7,61.7 664.6,61.7 665.4,61.7 666.2,61.7 667.0,62.0 667.9,62.0 668.7,62.0 669.5,62.0 670.3,61.6 671.2,61.6 672.0,61.6 672.8,61.6 673.7,60.4 674.5,60.4 675.3,60.4 676.1,60.4 677.0,59.6 677.8,59.6 678.6,59.6 679.4,59.6 680.3,60.6 681.1,60.6 681.9,60.6 682.7,60.6 683.6,61.3 684.4,61.3 685.2,61.3 686.1,61.3 686.9,61.2 687.7,61.2 688.5,61.2 689.4,61.2 690.2,61.4 691.0,61.4 691.8,61.4 692.7,61.4 693.5,61.4 694.3,61.4 695.1,61.4 696.0,61.4 696.8,62.1 697.6,62.1 698.5,62.1 699.3,62.1 700.1,62.6 700.9,62.6 701.8,62.6 702.6,62.6 703.4,62.4 704.2,62.4 705.1,62.4 705.9,62.4 706.7,62.7 707.5,62.7 708.4,62.7 709.2,62.7 710.0,61.0 710.9,61.0 711.7,61.0 712.5,61.0 713.3,61.8 714.2,61.8 715.0,61.8 715.8,61.8 716.6,60.5 717.5,60.5 718.3,60.5 719.1,60.5 719.9,59.2 720.8,59.2 721.6,59.2 722.4,59.2 723.3,58.9 724.1,58.9 724.9,58.9 725.7,58.9 726.6,58.7 727.4,58.7 728.2,58.7 729.0,58.7 729.9,59.2 730.7,59.2 731.5,59.2 732.3,59.2 733.2,59.1 734.0,59.1 734.8,59.1 735.7,59.1 736.5,58.9 737.3,58.9 738.1,58.9 739.0,58.9 739.8,59.4 740.6,59.4 741.4,59.4 742.3,59.4 743.1,61.1 743.9,61.1 744.7,61.1 745.6,61.1 746.4,61.6 747.2,61.6 748.1,61.6 748.9,61.6 749.7,60.4 750.5,60.4 751.4,60.4 752.2,60.4 753.0,58.6 753.8,58.6 754.7,58.6 755.5,58.6 756.3,57.8 757.1,57.8 758.0,57.8 758.8,57.8 759.6,58.0 760.5,58.0 761.3,58.0 762.1,58.0 762.9,57.5 763.8,57.5 764.6,57.5 765.4,57.5 766.2,58.1 767.1,58.1 767.9,58.1 768.7,58.1 769.5,58.3 770.4,58.3 771.2,58.3 772.0,58.3 772.9,58.5 773.7,58.5 774.5,58.5 775.3,58.5 776.2,58.7 777.0,58.7 777.8,58.7 778.6,58.7 779.5,57.5 780.3,57.5 781.1,57.5 781.9,57.5 782.8,57.0 783.6,57.0 784.4,57.0 785.3,57.0 786.1,57.2 786.9,57.2 787.7,57.2 788.6,57.2 789.4,57.9 790.2,57.9 791.0,57.9 791.9,57.9 792.7,57.5 793.5,57.5 794.3,57.5 795.2,57.5 796.0,57.6"/>
<text x="640" y="88" font-family="Arial" font-size="12" fill="#b45309">baz</text>
</svg>