<svg xmlns="http://www.w3.org/2000/svg" width="820" height="320" viewBox="0 0 820 320">
<rect width="100%" height="100%" fill="white"/>
<text x="52" y="30" font-family="Arial" font-size="18" font-weight="700">ekf_dropout_robust covariance bounds</text>
<line x1="52" y1="274" x2="796" y2="274" stroke="#263238"/>
<line x1="52" y1="42" x2="52" y2="274" stroke="#263238"/>
<text x="52" y="306" font-family="Arial" font-size="12">time (s)</text>
<text x="630" y="306" font-family="Arial" font-size="12">m</text>

<rect x="349.6" y="42" width="148.8" height="232" fill="#fef3c7" opacity="0.72"/>
<polyline fill="none" stroke="#0f766e" stroke-width="2.3" points="52.0,188.9 52.8,188.8 53.7,188.7 54.5,188.6 55.3,188.6 56.1,188.5 57.0,188.4 57.8,188.3 58.6,188.2 59.4,188.1 60.3,188.0 61.1,187.9 61.9,187.8 62.7,187.7 63.6,187.7 64.4,187.6 65.2,187.4 66.1,187.3 66.9,187.2 67.7,187.1 68.5,250.7 69.4,251.9 70.2,253.0 71.0,254.0 71.8,254.8 72.7,255.4 73.5,255.8 74.3,256.0 75.1,256.0 76.0,255.7 76.8,255.2 77.6,254.5 78.5,253.6 79.3,252.6 80.1,251.4 80.9,250.1 81.8,248.8 82.6,247.3 83.4,245.7 84.2,244.1 85.1,266.8 85.9,265.3 86.7,263.7 87.5,262.1 88.4,260.5 89.2,258.8 90.0,257.1 90.9,255.4 91.7,253.7 92.5,252.0 93.3,250.3 94.2,248.6 95.0,246.8 95.8,245.0 96.6,243.3 97.5,241.6 98.3,239.8 99.1,238.1 99.9,236.3 100.8,234.6 101.6,245.9 102.4,244.5 103.3,243.1 104.1,241.6 104.9,240.3 105.7,238.8 106.6,237.4 107.4,236.0 108.2,234.6 109.0,233.2 109.9,231.7 110.7,230.3 111.5,229.0 112.3,227.5 113.2,226.1 114.0,224.6 114.8,223.1 115.7,221.7 116.5,220.2 117.3,218.8 118.1,246.8 119.0,245.9 119.8,245.0 120.6,244.1 121.4,243.1 122.3,242.2 123.1,241.3 123.9,240.4 124.7,239.6 125.6,238.7 126.4,237.8 127.2,236.9 128.1,236.1 128.9,235.2 129.7,234.3 130.5,233.4 131.4,232.6 132.2,231.7 133.0,230.8 133.8,229.9 134.7,246.3 135.5,245.8 136.3,245.3 137.1,244.8 138.0,244.2 138.8,243.8 139.6,243.3 140.5,242.8 141.3,242.4 142.1,241.9 142.9,241.4 143.8,241.0 144.6,240.6 145.4,240.1 146.2,239.7 147.1,239.2 147.9,238.8 148.7,238.4 149.5,237.9 150.4,237.5 151.2,253.9 152.0,253.8 152.9,253.7 153.7,253.6 154.5,253.5 155.3,253.4 156.2,253.3 157.0,253.2 157.8,253.2 158.6,253.1 159.5,253.1 160.3,253.0 161.1,253.0 161.9,252.9 162.8,252.9 163.6,252.9 164.4,252.9 165.3,252.9 166.1,252.9 166.9,252.9 167.7,255.2 168.6,255.2 169.4,255.3 170.2,255.4 171.0,255.5 171.9,255.5 172.7,255.6 173.5,255.7 174.3,255.8 175.2,255.9 176.0,256.0 176.8,256.1 177.7,256.2 178.5,256.4 179.3,256.5 180.1,256.6 181.0,256.8 181.8,256.9 182.6,257.1 183.4,257.2 184.3,265.0 185.1,264.4 185.9,263.8 186.7,263.1 187.6,262.4 188.4,261.7 189.2,261.0 190.1,260.2 190.9,259.4 191.7,258.6 192.5,257.9 193.4,257.1 194.2,256.3 195.0,255.5 195.8,254.6 196.7,253.8 197.5,252.9 198.3,252.0 199.1,251.1 200.0,250.2 200.8,263.9 201.6,263.2 202.5,262.4 203.3,261.7 204.1,260.9 204.9,260.1 205.8,259.3 206.6,258.5 207.4,257.7 208.2,256.9 209.1,256.1 209.9,255.2 210.7,254.4 211.5,253.5 212.4,252.7 213.2,251.8 214.0,250.9 214.9,250.0 215.7,249.0 216.5,248.1 217.3,255.2 218.2,254.4 219.0,253.6 219.8,252.7 220.6,251.9 221.5,251.0 222.3,250.2 223.1,249.3 223.9,248.5 224.8,247.6 225.6,246.7 226.4,245.8 227.3,244.9 228.1,243.9 228.9,243.0 229.7,242.1 230.6,241.1 231.4,240.1 232.2,239.2 233.0,238.2 233.9,243.1 234.7,242.2 235.5,241.3 236.3,240.4 237.2,239.5 238.0,238.6 238.8,237.6 239.7,236.7 240.5,235.7 241.3,234.8 242.1,233.8 243.0,232.8 243.8,231.9 244.6,230.9 245.4,229.9 246.3,228.9 247.1,227.8 247.9,226.8 248.7,225.7 249.6,224.7 250.4,244.0 251.2,243.2 252.1,242.4 252.9,241.7 253.7,240.8 254.5,240.0 255.4,239.3 256.2,238.5 257.0,237.7 257.8,236.9 258.7,236.1 259.5,235.2 260.3,234.4 261.1,233.6 262.0,232.7 262.8,231.9 263.6,231.0 264.5,230.2 265.3,229.3 266.1,228.4 266.9,242.6 267.8,241.9 268.6,241.2 269.4,240.5 270.2,239.9 271.1,239.2 271.9,238.5 272.7,237.8 273.5,237.1 274.4,236.3 275.2,235.6 276.0,234.9 276.9,234.1 277.7,233.4 278.5,232.6 279.3,231.9 280.2,231.1 281.0,230.3 281.8,229.6 282.6,228.8 283.5,262.7 284.3,262.4 285.1,262.1 285.9,261.8 286.8,261.4 287.6,261.1 288.4,260.8 289.3,260.5 290.1,259.9 290.9,259.6 291.7,259.2 292.6,258.9 293.4,258.9 294.2,258.5 295.0,258.2 295.9,257.9 296.7,257.2 297.5,256.9 298.3,256.5 299.2,256.2 300.0,262.8 300.8,262.5 301.7,262.3 302.5,262.0 303.3,261.4 304.1,261.1 305.0,260.8 305.8,260.5 306.6,260.4 307.4,260.1 308.3,259.8 309.1,259.5 309.9,259.2 310.7,258.9 311.6,258.6 312.4,258.3 313.2,258.2 314.1,257.8 314.9,257.5 315.7,257.2 316.5,262.5 317.4,262.3 318.2,262.0 319.0,261.8 319.8,261.8 320.7,261.5 321.5,261.3 322.3,261.0 323.1,260.8 324.0,260.5 324.8,260.2 325.6,260.0 326.5,259.7 327.3,259.4 328.1,259.2 328.9,258.9 329.8,258.6 330.6,258.3 331.4,258.0 332.2,257.7 333.1,268.7 333.9,268.6 334.7,268.4 335.5,268.3 336.4,268.1 337.2,267.9 338.0,267.8 338.9,267.6 339.7,267.5 340.5,267.4 341.3,267.2 342.2,267.1 343.0,266.9 343.8,266.8 344.6,266.6 345.5,266.5 346.3,266.3 347.1,266.1 347.9,265.9 348.8,265.8 349.6,265.8 350.4,265.6 351.3,265.5 352.1,265.3 352.9,265.1 353.7,264.9 354.6,264.7 355.4,264.6 356.2,264.5 357.0,264.3 357.9,264.2 358.7,264.0 359.5,263.7 360.3,263.6 361.2,263.4 362.0,263.2 362.8,262.9 363.7,262.7 364.5,262.6 365.3,262.4 366.1,262.4 367.0,262.2 367.8,262.0 368.6,261.8 369.4,261.6 370.3,261.4 371.1,261.2 371.9,261.0 372.7,260.8 373.6,260.6 374.4,260.4 375.2,260.2 376.1,260.0 376.9,259.8 377.7,259.6 378.5,259.4 379.4,259.2 380.2,259.0 381.0,258.8 381.8,258.6 382.7,258.4 383.5,258.2 384.3,258.0 385.1,257.8 386.0,257.4 386.8,257.2 387.6,257.0 388.5,256.8 389.3,256.7 390.1,256.5 390.9,256.3 391.8,256.1 392.6,255.9 393.4,255.7 394.2,255.4 395.1,255.2 395.9,255.1 396.7,254.8 397.5,254.6 398.4,254.4 399.2,254.1 400.0,253.8 400.9,253.6 401.7,253.4 402.5,253.2 403.3,252.9 404.2,252.7 405.0,252.5 405.8,252.3 406.6,252.1 407.5,251.8 408.3,251.6 409.1,251.4 409.9,251.1 410.8,250.9 411.6,250.6 412.4,250.4 413.3,250.2 414.1,249.9 414.9,249.7 415.7,249.4 416.6,249.2 417.4,248.9 418.2,248.7 419.0,248.4 419.9,248.2 420.7,247.9 421.5,247.6 422.3,247.4 423.2,247.1 424.0,246.9 424.8,246.6 425.7,246.3 426.5,246.1 427.3,245.8 428.1,245.5 429.0,245.3 429.8,245.0 430.6,244.7 431.4,244.4 432.3,244.2 433.1,243.9 433.9,243.6 434.7,243.3 435.6,243.1 436.4,242.8 437.2,242.5 438.1,242.2 438.9,241.9 439.7,241.6 440.5,241.4 441.4,241.1 442.2,240.8 443.0,240.5 443.8,240.2 444.7,239.9 445.5,239.6 446.3,239.3 447.1,239.0 448.0,238.7 448.8,238.4 449.6,238.1 450.5,237.8 451.3,237.5 452.1,237.2 452.9,236.9 453.8,236.6 454.6,236.3 455.4,236.0 456.2,235.7 457.1,235.4 457.9,235.0 458.7,234.7 459.5,234.3 460.4,234.0 461.2,233.7 462.0,233.4 462.9,233.1 463.7,232.8 464.5,232.5 465.3,232.1 466.2,231.8 467.0,231.5 467.8,231.2 468.6,230.9 469.5,230.5 470.3,230.2 471.1,229.9 471.9,229.5 472.8,229.1 473.6,228.8 474.4,228.5 475.3,228.2 476.1,227.8 476.9,227.5 477.7,227.1 478.6,226.7 479.4,226.4 480.2,226.1 481.0,225.7 481.9,225.4 482.7,225.0 483.5,224.7 484.3,224.3 485.2,224.0 486.0,223.7 486.8,223.3 487.7,223.0 488.5,222.7 489.3,222.3 490.1,222.0 491.0,221.6 491.8,221.3 492.6,220.9 493.4,220.5 494.3,220.2 495.1,219.8 495.9,219.5 496.7,219.1 497.6,218.7 498.4,218.4 499.2,218.0 500.1,217.6 500.9,217.2 501.7,216.9 502.5,216.5 503.4,216.1 504.2,215.7 505.0,215.3 505.8,214.9 506.7,214.6 507.5,214.2 508.3,213.8 509.1,213.4 510.0,213.0 510.8,212.7 511.6,212.3 512.5,211.9 513.3,211.5 514.1,211.1 514.9,261.1 515.8,261.1 516.6,261.1 517.4,261.0 518.2,261.0 519.1,260.9 519.9,260.9 520.7,260.9 521.5,260.8 522.4,260.8 523.2,260.8 524.0,260.7 524.9,260.7 525.7,260.7 526.5,260.7 527.3,260.6 528.2,260.6 529.0,260.6 529.8,260.6 530.6,260.6 531.5,266.5 532.3,266.4 533.1,266.4 533.9,266.4 534.8,266.2 535.6,266.2 536.4,266.1 537.3,266.1 538.1,266.2 538.9,266.2 539.7,266.2 540.6,266.2 541.4,266.2 542.2,266.2 543.0,266.2 543.9,266.2 544.7,266.2 545.5,266.1 546.3,266.1 547.2,266.1 548.0,268.3 548.8,268.3 549.7,268.2 550.5,268.2 551.3,268.2 552.1,268.1 553.0,268.1 553.8,268.0 554.6,267.9 555.4,267.9 556.3,267.8 557.1,267.8 557.9,267.8 558.7,267.7 559.6,267.7 560.4,267.6 561.2,267.4 562.1,267.4 562.9,267.3 563.7,267.3 564.5,260.3 565.4,260.1 566.2,260.0 567.0,259.8 567.8,259.6 568.7,259.4 569.5,259.2 570.3,259.1 571.1,258.8 572.0,258.7 572.8,258.5 573.6,258.3 574.5,258.2 575.3,258.0 576.1,257.9 576.9,257.7 577.8,257.4 578.6,257.3 579.4,257.1 580.2,256.9 581.1,266.6 581.9,266.5 582.7,266.3 583.5,266.2 584.4,266.1 585.2,266.0 586.0,265.9 586.9,265.7 587.7,265.6 588.5,265.4 589.3,265.3 590.2,265.2 591.0,265.0 591.8,264.9 592.6,264.8 593.5,264.6 594.3,264.6 595.1,264.5 595.9,264.3 596.8,264.2 597.6,269.1 598.4,269.0 599.3,268.9 600.1,268.8 600.9,268.8 601.7,268.7 602.6,268.6 603.4,268.5 604.2,268.4 605.0,268.3 605.9,268.2 606.7,268.1 607.5,268.1 608.3,268.0 609.2,267.9 610.0,267.8 610.8,267.7 611.7,267.6 612.5,267.5 613.3,267.4 614.1,270.3 615.0,270.2 615.8,270.1 616.6,270.0 617.4,269.9 618.3,269.8 619.1,269.7 619.9,269.6 620.7,269.5 621.6,269.4 622.4,269.3 623.2,269.2 624.1,268.9 624.9,268.8 625.7,268.7 626.5,268.6 627.4,268.4 628.2,268.3 629.0,268.1 629.8,268.0 630.7,267.6 631.5,267.4 632.3,267.3 633.1,267.1 634.0,267.0 634.8,266.8 635.6,266.7 636.5,266.5 637.3,266.6 638.1,266.4 638.9,266.3 639.8,266.1 640.6,266.0 641.4,265.8 642.2,265.7 643.1,265.5 643.9,265.4 644.7,265.3 645.5,265.1 646.4,265.0 647.2,267.7 648.0,267.5 648.9,267.4 649.7,267.3 650.5,267.2 651.3,267.1 652.2,266.9 653.0,266.8 653.8,266.7 654.6,266.5 655.5,266.4 656.3,266.3 657.1,266.2 657.9,266.1 658.8,265.9 659.6,265.8 660.4,265.6 661.3,265.5 662.1,265.3 662.9,265.2 663.7,262.4 664.6,262.3 665.4,262.1 666.2,261.9 667.0,261.7 667.9,261.5 668.7,261.4 669.5,261.2 670.3,261.0 671.2,260.9 672.0,260.7 672.8,260.5 673.7,260.4 674.5,260.2 675.3,260.0 676.1,259.9 677.0,259.7 677.8,259.5 678.6,259.3 679.4,259.2 680.3,274.0 681.1,274.0 681.9,273.9 682.7,273.9 683.6,273.6 684.4,273.6 685.2,273.5 686.1,273.5 686.9,273.5 687.7,273.4 688.5,273.4 689.4,273.4 690.2,273.2 691.0,273.2 691.8,273.1 692.7,273.1 693.5,273.0 694.3,273.0 695.1,272.9 696.0,272.9 696.8,270.7 697.6,270.6 698.5,270.6 699.3,270.5 700.1,270.3 700.9,270.2 701.8,270.1 702.6,270.1 703.4,270.1 704.2,270.0 705.1,270.0 705.9,269.9 706.7,269.7 707.5,269.7 708.4,269.6 709.2,269.5 710.0,270.1 710.9,270.0 711.7,270.0 712.5,269.9 713.3,269.1 714.2,269.1 715.0,269.0 715.8,269.0 716.6,269.3 717.5,269.3 718.3,269.2 719.1,269.2 719.9,269.4 720.8,269.3 721.6,269.3 722.4,269.3 723.3,269.2 724.1,269.2 724.9,269.2 725.7,269.1 726.6,269.1 727.4,269.1 728.2,269.0 729.0,269.0 729.9,269.9 730.7,269.9 731.5,269.9 732.3,269.8 733.2,269.8 734.0,269.8 734.8,269.7 735.7,269.7 736.5,269.7 737.3,269.6 738.1,269.6 739.0,269.6 739.8,269.5 740.6,269.4 741.4,269.4 742.3,269.4 743.1,268.9 743.9,268.9 744.7,268.8 745.6,268.8 746.4,268.5 747.2,268.4 748.1,268.3 748.9,268.3 749.7,268.6 750.5,268.6 751.4,268.6 752.2,268.5 753.0,268.8 753.8,268.8 754.7,268.8 755.5,268.7 756.3,268.7 757.1,268.7 758.0,268.7 758.8,268.6 759.6,268.6 760.5,268.5 761.3,268.5 762.1,268.5 762.9,262.5 763.8,262.4 764.6,262.3 765.4,262.2 766.2,262.1 767.1,262.0 767.9,261.9 768.7,261.8 769.5,261.7 770.4,261.6 771.2,261.5 772.0,261.4 772.9,261.2 773.7,261.1 774.5,261.0 775.3,260.9 776.2,260.8 777.0,260.7 777.8,260.6 778.6,260.5 779.5,260.2 780.3,260.1 781.1,260.0 781.9,259.9 782.8,259.8 783.6,259.7 784.4,259.6 785.3,259.5 786.1,259.4 786.9,259.3 787.7,259.2 788.6,259.1 789.4,259.0 790.2,258.9 791.0,258.8 791.9,258.7 792.7,258.6 793.5,258.5 794.3,258.4 795.2,258.3 796.0,266.8"/>
<text x="640" y="56" font-family="Arial" font-size="12" fill="#0f766e">position error</text>
<polyline fill="none" stroke="#2563eb" stroke-width="2.3" points="52.0,248.5 52.8,248.5 53.7,248.2 54.5,247.8 55.3,248.0 56.1,247.3 57.0,246.6 57.8,245.7 58.6,245.4 59.4,244.4 60.3,243.4 61.1,242.2 61.9,241.6 62.7,240.4 63.6,239.1 64.4,237.8 65.2,236.8 66.1,235.5 66.9,234.1 67.7,232.6 68.5,251.0 69.4,250.1 70.2,249.2 71.0,248.2 71.8,247.5 72.7,246.5 73.5,245.5 74.3,244.4 75.1,243.5 76.0,242.4 76.8,241.2 77.6,240.1 78.5,239.1 79.3,237.9 80.1,236.7 80.9,235.5 81.8,234.4 82.6,233.1 83.4,231.9 84.2,230.6 85.1,250.8 85.9,250.1 86.7,249.4 87.5,248.6 88.4,248.0 89.2,247.2 90.0,246.4 90.9,245.6 91.7,244.9 92.5,244.1 93.3,243.3 94.2,242.5 95.0,241.7 95.8,240.9 96.6,240.0 97.5,239.1 98.3,238.4 99.1,237.5 99.9,236.6 100.8,235.7 101.6,251.9 102.4,251.3 103.3,250.7 104.1,250.2 104.9,249.7 105.7,249.1 106.6,248.5 107.4,247.9 108.2,247.3 109.0,246.7 109.9,246.1 110.7,245.4 111.5,244.9 112.3,244.2 113.2,243.5 114.0,242.9 114.8,242.3 115.7,241.6 116.5,240.9 117.3,240.2 118.1,252.9 119.0,252.5 119.8,252.0 120.6,251.5 121.4,251.1 122.3,250.6 123.1,250.1 123.9,249.5 124.7,249.1 125.6,248.5 126.4,248.0 127.2,247.4 128.1,246.9 128.9,246.4 129.7,245.8 130.5,245.2 131.4,244.6 132.2,244.0 133.0,243.4 133.8,242.8 134.7,253.7 135.5,253.2 136.3,252.8 137.1,252.3 138.0,251.9 138.8,251.5 139.6,251.0 140.5,250.4 141.3,250.0 142.1,249.5 142.9,249.0 143.8,248.4 144.6,247.9 145.4,247.4 146.2,246.8 147.1,246.2 147.9,245.7 148.7,245.1 149.5,244.5 150.4,243.9 151.2,254.0 152.0,253.6 152.9,253.1 153.7,252.7 154.5,252.3 155.3,251.8 156.2,251.3 157.0,250.8 157.8,250.3 158.6,249.8 159.5,249.3 160.3,248.7 161.1,248.2 161.9,247.7 162.8,247.1 163.6,246.5 164.4,246.0 165.3,245.4 166.1,244.8 166.9,244.1 167.7,254.1 168.6,253.7 169.4,253.2 170.2,252.8 171.0,252.4 171.9,251.9 172.7,251.4 173.5,250.9 174.3,250.4 175.2,249.9 176.0,249.4 176.8,248.8 177.7,248.3 178.5,247.8 179.3,247.2 180.1,246.6 181.0,246.1 181.8,245.5 182.6,244.9 183.4,244.3 184.3,254.2 185.1,253.8 185.9,253.3 186.7,252.9 187.6,252.5 188.4,252.0 189.2,251.5 190.1,251.0 190.9,250.6 191.7,250.1 192.5,249.6 193.4,249.0 194.2,248.5 195.0,248.0 195.8,247.5 196.7,246.9 197.5,246.4 198.3,245.8 199.1,245.2 200.0,244.6 200.8,254.3 201.6,253.9 202.5,253.5 203.3,253.1 204.1,252.7 204.9,252.2 205.8,251.8 206.6,251.3 207.4,250.9 208.2,250.4 209.1,249.9 209.9,249.4 210.7,249.0 211.5,248.5 212.4,248.0 213.2,247.4 214.0,247.0 214.9,246.4 215.7,245.9 216.5,245.3 217.3,254.6 218.2,254.2 219.0,253.8 219.8,253.4 220.6,253.0 221.5,252.6 222.3,252.2 223.1,251.8 223.9,251.4 224.8,250.9 225.6,250.5 226.4,250.0 227.3,249.6 228.1,249.1 228.9,248.7 229.7,248.2 230.6,247.7 231.4,247.2 232.2,246.7 233.0,246.2 233.9,254.9 234.7,254.6 235.5,254.2 236.3,253.8 237.2,253.5 238.0,253.1 238.8,252.7 239.7,252.3 240.5,251.9 241.3,251.5 242.1,251.1 243.0,250.7 243.8,250.3 244.6,249.9 245.4,249.5 246.3,249.0 247.1,248.6 247.9,248.2 248.7,247.7 249.6,247.3 250.4,255.3 251.2,255.0 252.1,254.6 252.9,254.3 253.7,254.0 254.5,253.6 255.4,253.3 256.2,252.9 257.0,252.6 257.8,252.2 258.7,251.8 259.5,251.4 260.3,251.1 261.1,250.7 262.0,250.3 262.8,249.9 263.6,249.5 264.5,249.1 265.3,248.7 266.1,248.3 266.9,255.7 267.8,255.4 268.6,255.1 269.4,254.8 270.2,254.5 271.1,254.2 271.9,253.8 272.7,253.5 273.5,253.2 274.4,252.9 275.2,252.5 276.0,252.2 276.9,251.8 277.7,251.5 278.5,251.1 279.3,250.8 280.2,250.4 281.0,250.1 281.8,249.7 282.6,249.3 283.5,256.1 284.3,255.9 285.1,255.6 285.9,255.3 286.8,255.0 287.6,254.7 288.4,254.4 289.3,254.1 290.1,253.8 290.9,253.5 291.7,253.2 292.6,252.9 293.4,252.6 294.2,252.2 295.0,251.9 295.9,251.6 296.7,251.3 297.5,250.9 298.3,250.6 299.2,250.2 300.0,256.6 300.8,256.3 301.7,256.0 302.5,255.7 303.3,255.5 304.1,255.2 305.0,254.9 305.8,254.7 306.6,254.4 307.4,254.1 308.3,253.8 309.1,253.5 309.9,253.3 310.7,253.0 311.6,252.6 312.4,252.3 313.2,252.1 314.1,251.7 314.9,251.4 315.7,251.1 316.5,257.0 317.4,256.7 318.2,256.5 319.0,256.2 319.8,256.0 320.7,255.7 321.5,255.5 322.3,255.2 323.1,254.9 324.0,254.7 324.8,254.4 325.6,254.1 326.5,253.9 327.3,253.6 328.1,253.3 328.9,253.0 329.8,252.8 330.6,252.5 331.4,252.2 332.2,251.9 333.1,257.3 333.9,257.1 334.7,256.9 335.5,256.6 336.4,256.4 337.2,256.2 338.0,255.9 338.9,255.7 339.7,255.5 340.5,255.2 341.3,255.0 342.2,254.7 343.0,254.5 343.8,254.2 344.6,254.0 345.5,253.7 346.3,253.4 347.1,253.2 347.9,252.9 348.8,252.6 349.6,252.3 350.4,251.9 351.3,251.5 352.1,251.1 352.9,250.8 353.7,250.4 354.6,250.0 355.4,249.6 356.2,249.2 357.0,248.8 357.9,248.4 358.7,247.9 359.5,247.5 360.3,247.1 361.2,246.6 362.0,246.2 362.8,245.8 363.7,245.3 364.5,244.9 365.3,244.4 366.1,243.9 367.0,243.5 367.8,243.0 368.6,242.5 369.4,242.0 370.3,241.5 371.1,241.0 371.9,240.5 372.7,240.0 373.6,239.5 374.4,239.0 375.2,238.4 376.1,237.9 376.9,237.4 377.7,236.8 378.5,236.3 379.4,235.7 380.2,235.2 381.0,234.6 381.8,234.0 382.7,233.4 383.5,232.9 384.3,232.3 385.1,231.7 386.0,231.1 386.8,230.4 387.6,229.8 388.5,229.2 389.3,228.6 390.1,227.9 390.9,227.3 391.8,226.6 392.6,226.0 393.4,225.3 394.2,224.7 395.1,224.0 395.9,223.3 396.7,222.6 397.5,221.9 398.4,221.2 399.2,220.5 400.0,219.8 400.9,219.0 401.7,218.3 402.5,217.6 403.3,216.8 404.2,216.1 405.0,215.3 405.8,214.5 406.6,213.8 407.5,213.0 408.3,212.2 409.1,211.4 409.9,210.6 410.8,209.8 411.6,208.9 412.4,208.1 413.3,207.3 414.1,206.4 414.9,205.6 415.7,204.7 416.6,203.8 417.4,202.9 418.2,202.1 419.0,201.2 419.9,200.3 420.7,199.3 421.5,198.4 422.3,197.5 423.2,196.6 424.0,195.6 424.8,194.6 425.7,193.7 426.5,192.7 427.3,191.7 428.1,190.7 429.0,189.7 429.8,188.7 430.6,187.7 431.4,186.7 432.3,185.6 433.1,184.6 433.9,183.5 434.7,182.5 435.6,181.4 436.4,180.3 437.2,179.2 438.1,178.1 438.9,177.0 439.7,175.9 440.5,174.7 441.4,173.6 442.2,172.4 443.0,171.3 443.8,170.1 444.7,168.9 445.5,167.7 446.3,166.5 447.1,165.3 448.0,164.0 448.8,162.8 449.6,161.5 450.5,160.3 451.3,159.0 452.1,157.7 452.9,156.4 453.8,155.1 454.6,153.8 455.4,152.5 456.2,151.1 457.1,149.8 457.9,148.4 458.7,147.1 459.5,145.7 460.4,144.3 461.2,142.9 462.0,141.4 462.9,140.0 463.7,138.6 464.5,137.1 465.3,135.6 466.2,134.1 467.0,132.6 467.8,131.1 468.6,129.6 469.5,128.1 470.3,126.5 471.1,125.0 471.9,123.4 472.8,121.8 473.6,120.2 474.4,118.6 475.3,117.0 476.1,115.3 476.9,113.7 477.7,112.0 478.6,110.3 479.4,108.6 480.2,106.9 481.0,105.2 481.9,103.5 482.7,101.7 483.5,99.9 484.3,98.2 485.2,96.4 486.0,94.6 486.8,92.7 487.7,90.9 488.5,89.0 489.3,87.2 490.1,85.3 491.0,83.4 491.8,81.5 492.6,79.5 493.4,77.6 494.3,75.6 495.1,73.6 495.9,71.7 496.7,69.6 497.6,67.6 498.4,65.6 499.2,64.4 500.1,63.1 500.9,61.9 501.7,60.7 502.5,59.5 503.4,58.3 504.2,57.0 505.0,55.8 505.8,54.6 506.7,53.3 507.5,52.1 508.3,50.8 509.1,49.6 510.0,48.3 510.8,47.1 511.6,45.8 512.5,44.5 513.3,43.3 514.1,42.0 514.9,246.2 515.8,246.0 516.6,245.9 517.4,245.7 518.2,245.5 519.1,245.3 519.9,245.2 520.7,245.0 521.5,244.8 522.4,244.6 523.2,244.4 524.0,244.2 524.9,244.0 525.7,243.8 526.5,243.6 527.3,243.4 528.2,243.2 529.0,243.0 529.8,242.8 530.6,242.6 531.5,253.9 532.3,253.7 533.1,253.6 533.9,253.4 534.8,253.3 535.6,253.1 536.4,252.9 537.3,252.8 538.1,252.6 538.9,252.4 539.7,252.3 540.6,252.1 541.4,251.9 542.2,251.7 543.0,251.6 543.9,251.4 544.7,251.2 545.5,251.0 546.3,250.8 547.2,250.6 548.0,256.8 548.8,256.6 549.7,256.4 550.5,256.3 551.3,256.1 552.1,255.9 553.0,255.8 553.8,255.6 554.6,255.4 555.4,255.2 556.3,255.1 557.1,254.9 557.9,254.7 558.7,254.5 559.6,254.3 560.4,254.1 561.2,253.9 562.1,253.7 562.9,253.5 563.7,253.3 564.5,258.0 565.4,257.8 566.2,257.6 567.0,257.5 567.8,257.3 568.7,257.1 569.5,256.9 570.3,256.7 571.1,256.5 572.0,256.3 572.8,256.1 573.6,255.9 574.5,255.7 575.3,255.5 576.1,255.3 576.9,255.1 577.8,254.9 578.6,254.7 579.4,254.4 580.2,254.2 581.1,258.5 581.9,258.3 582.7,258.1 583.5,257.9 584.4,257.7 585.2,257.5 586.0,257.3 586.9,257.1 587.7,256.9 588.5,256.7 589.3,256.5 590.2,256.3 591.0,256.1 591.8,255.8 592.6,255.6 593.5,255.4 594.3,255.2 595.1,254.9 595.9,254.7 596.8,254.5 597.6,258.6 598.4,258.4 599.3,258.2 600.1,258.0 600.9,257.8 601.7,257.6 602.6,257.4 603.4,257.2 604.2,257.0 605.0,256.8 605.9,256.6 606.7,256.3 607.5,256.1 608.3,255.9 609.2,255.7 610.0,255.4 610.8,255.2 611.7,255.0 612.5,254.8 613.3,254.5 614.1,258.6 615.0,258.4 615.8,258.2 616.6,258.0 617.4,257.9 618.3,257.6 619.1,257.4 619.9,257.2 620.7,257.0 621.6,256.8 622.4,256.6 623.2,256.4 624.1,256.2 624.9,256.0 625.7,255.7 626.5,255.5 627.4,255.3 628.2,255.1 629.0,254.8 629.8,254.6 630.7,258.7 631.5,258.5 632.3,258.3 633.1,258.1 634.0,257.9 634.8,257.7 635.6,257.5 636.5,257.3 637.3,257.1 638.1,256.9 638.9,256.7 639.8,256.5 640.6,256.3 641.4,256.1 642.2,255.9 643.1,255.6 643.9,255.4 644.7,255.2 645.5,255.0 646.4,254.8 647.2,258.8 648.0,258.6 648.9,258.4 649.7,258.2 650.5,258.0 651.3,257.8 652.2,257.6 653.0,257.4 653.8,257.3 654.6,257.1 655.5,256.9 656.3,256.7 657.1,256.5 657.9,256.3 658.8,256.1 659.6,255.9 660.4,255.7 661.3,255.5 662.1,255.2 662.9,255.0 663.7,258.9 664.6,258.7 665.4,258.6 666.2,258.4 667.0,258.2 667.9,258.0 668.7,257.8 669.5,257.6 670.3,257.5 671.2,257.3 672.0,257.1 672.8,256.9 673.7,256.7 674.5,256.5 675.3,256.3 676.1,256.1 677.0,256.0 677.8,255.8 678.6,255.5 679.4,255.3 680.3,259.1 681.1,258.9 681.9,258.7 682.7,258.6 683.6,258.4 684.4,258.2 685.2,258.1 686.1,257.9 686.9,257.7 687.7,257.5 688.5,257.4 689.4,257.2 690.2,257.0 691.0,256.8 691.8,256.6 692.7,256.4 693.5,256.3 694.3,256.1 695.1,255.9 696.0,255.7 696.8,259.3 697.6,259.1 698.5,259.0 699.3,258.8 700.1,258.6 700.9,258.5 701.8,258.3 702.6,258.1 703.4,258.0 704.2,257.8 705.1,257.6 705.9,257.4 706.7,257.3 707.5,257.1 708.4,256.9 709.2,256.7 710.0,256.6 710.9,256.4 711.7,256.2 712.5,256.0 713.3,259.5 714.2,259.3 715.0,259.2 715.8,259.0 716.6,258.9 717.5,258.7 718.3,258.5 719.1,258.4 719.9,258.2 720.8,258.1 721.6,257.9 722.4,257.7 723.3,257.6 724.1,257.4 724.9,257.2 725.7,257.0 726.6,256.9 727.4,256.7 728.2,256.5 729.0,256.4 729.9,259.7 730.7,259.5 731.5,259.4 732.3,259.2 733.2,259.1 734.0,258.9 734.8,258.8 735.7,258.6 736.5,258.5 737.3,258.3 738.1,258.1 739.0,258.0 739.8,257.8 740.6,257.7 741.4,257.5 742.3,257.3 743.1,257.2 743.9,257.0 744.7,256.8 745.6,256.7 746.4,259.9 747.2,259.7 748.1,259.6 748.9,259.4 749.7,259.3 750.5,259.1 751.4,259.0 752.2,258.8 753.0,258.7 753.8,258.5 754.7,258.4 755.5,258.2 756.3,258.1 757.1,257.9 758.0,257.7 758.8,257.6 759.6,257.4 760.5,257.3 761.3,257.1 762.1,256.9 762.9,260.0 763.8,259.9 764.6,259.7 765.4,259.6 766.2,259.5 767.1,259.3 767.9,259.2 768.7,259.0 769.5,258.9 770.4,258.7 771.2,258.6 772.0,258.4 772.9,258.3 773.7,258.1 774.5,258.0 775.3,257.8 776.2,257.7 777.0,257.5 777.8,257.3 778.6,257.2 779.5,260.2 780.3,260.0 781.1,259.9 781.9,259.7 782.8,259.6 783.6,259.5 784.4,259.3 785.3,259.2 786.1,259.1 786.9,258.9 787.7,258.8 788.6,258.6 789.4,258.5 790.2,258.3 791.0,258.2 791.9,258.0 792.7,257.9 793.5,257.7 794.3,257.6 795.2,257.4 796.0,260.3"/>
<text x="640" y="72" font-family="Arial" font-size="12" fill="#2563eb">sqrt trace Ppos</text>
</svg>