<svg xmlns="http://www.w3.org/2000/svg" width="820" height="320" viewBox="0 0 820 320">
<rect width="100%" height="100%" fill="white"/>
<text x="52" y="30" font-family="Arial" font-size="18" font-weight="700">ekf_nominal covariance bounds</text>
<line x1="52" y1="274" x2="796" y2="274" stroke="#263238"/>
<line x1="52" y1="42" x2="52" y2="274" stroke="#263238"/>
<text x="52" y="306" font-family="Arial" font-size="12">time (s)</text>
<text x="630" y="306" font-family="Arial" font-size="12">m</text>

<rect x="349.6" y="42" width="148.8" height="232" fill="#fef3c7" opacity="0.72"/>
<polyline fill="none" stroke="#0f766e" stroke-width="2.3" points="52.0,58.5 52.8,58.3 53.7,58.1 54.5,57.9 55.3,57.7 56.1,57.5 57.0,57.3 57.8,57.1 58.6,56.8 59.4,56.6 60.3,56.4 61.1,56.2 61.9,56.1 62.7,55.9 63.6,55.7 64.4,55.4 65.2,55.1 66.1,54.9 66.9,54.7 67.7,54.4 68.5,225.6 69.4,227.9 70.2,229.4 71.0,230.1 71.8,230.2 72.7,229.1 73.5,227.3 74.3,224.7 75.1,221.5 76.0,217.7 76.8,213.4 77.6,208.7 78.5,203.5 79.3,198.2 80.1,192.7 80.9,187.0 81.8,181.3 82.6,175.3 83.4,169.2 84.2,163.0 85.1,259.7 85.9,255.2 86.7,250.6 87.5,246.0 88.4,241.4 89.2,236.7 90.0,232.1 90.9,227.4 91.7,222.7 92.5,218.0 93.3,213.3 94.2,208.6 95.0,203.8 95.8,199.2 96.6,194.5 97.5,189.8 98.3,185.1 99.1,180.4 99.9,175.7 100.8,171.0 101.6,208.4 102.4,204.7 103.3,201.0 104.1,197.4 104.9,193.9 105.7,190.3 106.6,186.6 107.4,182.9 108.2,179.6 109.0,175.9 109.9,172.2 110.7,168.6 111.5,165.1 112.3,161.5 113.2,157.8 114.0,154.2 114.8,150.4 115.7,146.7 116.5,143.1 117.3,139.5 118.1,211.7 119.0,209.5 119.8,207.4 120.6,205.3 121.4,203.0 122.3,200.9 123.1,198.8 123.9,196.7 124.7,194.7 125.6,192.7 126.4,190.6 127.2,188.6 128.1,186.7 128.9,184.7 129.7,182.7 130.5,180.7 131.4,178.7 132.2,176.7 133.0,174.7 133.8,172.8 134.7,213.2 135.5,212.1 136.3,211.0 137.1,210.0 138.0,208.8 138.8,207.8 139.6,206.8 140.5,205.8 141.3,204.8 142.1,203.8 142.9,202.9 143.8,201.9 144.6,201.0 145.4,200.1 146.2,199.2 147.1,198.2 147.9,197.3 148.7,196.5 149.5,195.6 150.4,194.7 151.2,235.0 152.0,235.0 152.9,235.2 153.7,235.3 154.5,235.4 155.3,235.6 156.2,235.8 157.0,236.0 157.8,236.3 158.6,236.6 159.5,236.9 160.3,237.2 161.1,237.5 161.9,237.9 162.8,238.3 163.6,238.7 164.4,239.2 165.3,239.6 166.1,240.1 166.9,240.6 167.7,239.2 168.6,239.6 169.4,240.1 170.2,240.7 171.0,241.3 171.9,241.9 172.7,242.5 173.5,243.1 174.3,243.7 175.2,244.4 176.0,245.1 176.8,245.8 177.7,246.5 178.5,247.2 179.3,248.0 180.1,248.7 181.0,249.5 181.8,250.3 182.6,251.1 183.4,252.0 184.3,250.0 185.1,248.0 185.9,245.9 186.7,243.8 187.6,241.7 188.4,239.5 189.2,237.2 190.1,234.9 190.9,232.5 191.7,230.1 192.5,227.7 193.4,225.2 194.2,222.9 195.0,220.4 195.8,217.8 196.7,215.2 197.5,212.5 198.3,209.8 199.1,207.1 200.0,204.3 200.8,245.9 201.6,243.8 202.5,241.7 203.3,239.5 204.1,237.2 204.9,235.0 205.8,232.7 206.6,230.4 207.4,228.3 208.2,226.0 209.1,223.6 209.9,221.2 210.7,218.8 211.5,216.3 212.4,213.9 213.2,211.4 214.0,208.8 214.9,206.2 215.7,203.6 216.5,201.0 217.3,226.0 218.2,223.8 219.0,221.6 219.8,219.4 220.6,217.1 221.5,214.8 222.3,212.5 223.1,210.1 223.9,207.8 224.8,205.4 225.6,203.0 226.4,200.6 227.3,198.1 228.1,195.6 228.9,193.1 229.7,190.5 230.6,187.9 231.4,185.3 232.2,182.7 233.0,180.0 233.9,198.3 234.7,196.0 235.5,193.6 236.3,191.2 237.2,188.8 238.0,186.3 238.8,183.9 239.7,181.4 240.5,179.0 241.3,176.4 242.1,173.9 243.0,171.3 243.8,168.8 244.6,166.2 245.4,163.6 246.3,161.0 247.1,158.3 247.9,155.6 248.7,152.8 249.6,150.1 250.4,201.6 251.2,199.7 252.1,197.7 252.9,195.7 253.7,193.6 254.5,191.6 255.4,189.5 256.2,187.5 257.0,185.5 257.8,183.4 258.7,181.3 259.5,179.1 260.3,177.0 261.1,174.9 262.0,172.7 262.8,170.5 263.6,168.3 264.5,166.1 265.3,163.8 266.1,161.6 266.9,199.1 267.8,197.4 268.6,195.7 269.4,193.9 270.2,192.2 271.1,190.4 271.9,188.6 272.7,186.8 273.5,185.0 274.4,183.2 275.2,181.3 276.0,179.5 276.9,177.5 277.7,175.6 278.5,173.7 279.3,171.8 280.2,169.8 281.0,167.9 281.8,165.9 282.6,163.9 283.5,248.5 284.3,247.7 285.1,246.8 285.9,246.0 286.8,245.2 287.6,244.3 288.4,243.5 289.3,242.6 290.1,241.3 290.9,240.4 291.7,239.6 292.6,238.7 293.4,238.4 294.2,237.5 295.0,236.6 295.9,235.7 296.7,234.2 297.5,233.3 298.3,232.4 299.2,231.4 300.0,249.0 300.8,248.2 301.7,247.5 302.5,246.8 303.3,245.4 304.1,244.7 305.0,243.9 305.8,243.1 306.6,242.7 307.4,241.9 308.3,241.1 309.1,240.3 309.9,239.6 310.7,238.8 311.6,238.0 312.4,237.2 313.2,236.8 314.1,236.0 314.9,235.1 315.7,234.3 316.5,248.2 317.4,247.5 318.2,246.8 319.0,246.2 319.8,246.2 320.7,245.5 321.5,244.9 322.3,244.2 323.1,243.7 324.0,243.0 324.8,242.3 325.6,241.6 326.5,240.8 327.3,240.1 328.1,239.4 328.9,238.7 329.8,237.9 330.6,237.2 331.4,236.5 332.2,235.7 333.1,263.9 333.9,263.6 334.7,263.2 335.5,262.8 336.4,262.5 337.2,262.1 338.0,261.7 338.9,261.3 339.7,260.9 340.5,260.5 341.3,260.1 342.2,259.7 343.0,259.3 343.8,258.9 344.6,258.5 345.5,258.1 346.3,257.6 347.1,257.2 347.9,256.8 348.8,256.4 349.6,256.0 350.4,255.6 351.3,255.2 352.1,254.8 352.9,254.1 353.7,253.7 354.6,253.3 355.4,252.8 356.2,252.6 357.0,252.1 357.9,251.7 358.7,251.2 359.5,250.6 360.3,250.2 361.2,249.7 362.0,249.3 362.8,248.6 363.7,248.1 364.5,247.6 365.3,247.1 366.1,246.9 367.0,246.5 367.8,246.0 368.6,245.5 369.4,244.8 370.3,244.3 371.1,243.8 371.9,243.3 372.7,242.8 373.6,242.3 374.4,241.8 375.2,241.2 376.1,240.8 376.9,240.2 377.7,239.7 378.5,239.2 379.4,238.6 380.2,238.1 381.0,237.6 381.8,237.0 382.7,236.4 383.5,235.9 384.3,235.4 385.1,234.8 386.0,234.1 386.8,233.5 387.6,233.0 388.5,232.4 389.3,232.0 390.1,231.5 390.9,230.9 391.8,230.3 392.6,229.8 393.4,229.2 394.2,228.6 395.1,228.0 395.9,227.5 396.7,226.9 397.5,226.3 398.4,225.7 399.2,225.0 400.0,224.4 400.9,223.8 401.7,223.2 402.5,222.6 403.3,222.0 404.2,221.4 405.0,220.7 405.8,220.2 406.6,219.6 407.5,219.0 408.3,218.3 409.1,217.7 409.9,217.1 410.8,216.4 411.6,215.8 412.4,215.2 413.3,214.6 414.1,213.9 414.9,213.3 415.7,212.6 416.6,211.9 417.4,211.3 418.2,210.6 419.0,210.0 419.9,209.3 420.7,208.6 421.5,207.9 422.3,207.2 423.2,206.6 424.0,205.9 424.8,205.2 425.7,204.5 426.5,203.8 427.3,203.1 428.1,202.4 429.0,201.7 429.8,200.9 430.6,200.2 431.4,199.5 432.3,198.8 433.1,198.1 433.9,197.4 434.7,196.6 435.6,195.9 436.4,195.2 437.2,194.4 438.1,193.7 438.9,192.9 439.7,192.2 440.5,191.4 441.4,190.7 442.2,189.9 443.0,189.2 443.8,188.4 444.7,187.6 445.5,186.9 446.3,186.1 447.1,185.3 448.0,184.6 448.8,183.7 449.6,182.9 450.5,182.1 451.3,181.3 452.1,180.5 452.9,179.7 453.8,178.9 454.6,178.1 455.4,177.3 456.2,176.5 457.1,175.7 457.9,174.9 458.7,173.9 459.5,173.1 460.4,172.3 461.2,171.4 462.0,170.7 462.9,169.8 463.7,169.0 464.5,168.1 465.3,167.3 466.2,166.4 467.0,165.6 467.8,164.7 468.6,163.9 469.5,163.1 470.3,162.2 471.1,161.3 471.9,160.4 472.8,159.5 473.6,158.6 474.4,157.7 475.3,156.9 476.1,156.0 476.9,155.1 477.7,154.2 478.6,153.2 479.4,152.3 480.2,151.4 481.0,150.5 481.9,149.6 482.7,148.7 483.5,147.8 484.3,146.9 485.2,146.1 486.0,145.2 486.8,144.2 487.7,143.3 488.5,142.5 489.3,141.5 490.1,140.6 491.0,139.7 491.8,138.8 492.6,137.8 493.4,136.9 494.3,135.9 495.1,135.0 495.9,134.1 496.7,133.1 497.6,132.2 498.4,131.3 499.2,130.3 500.1,129.4 500.9,128.4 501.7,127.4 502.5,126.4 503.4,125.5 504.2,124.5 505.0,123.5 505.8,122.5 506.7,121.5 507.5,120.5 508.3,119.5 509.1,118.5 510.0,117.5 510.8,116.5 511.6,115.5 512.5,114.4 513.3,113.4 514.1,112.4 514.9,254.8 515.8,254.8 516.6,254.7 517.4,254.7 518.2,254.8 519.1,254.8 519.9,254.8 520.7,254.7 521.5,254.7 522.4,254.7 523.2,254.7 524.0,254.7 524.9,254.7 525.7,254.7 526.5,254.7 527.3,254.7 528.2,254.7 529.0,254.7 529.8,254.7 530.6,254.7 531.5,264.0 532.3,264.0 533.1,264.0 533.9,263.9 534.8,263.7 535.6,263.7 536.4,263.6 537.3,263.6 538.1,263.7 538.9,263.6 539.7,263.6 540.6,263.6 541.4,263.6 542.2,263.5 543.0,263.5 543.9,263.4 544.7,263.4 545.5,263.4 546.3,263.3 547.2,263.3 548.0,266.2 548.8,266.1 549.7,266.0 550.5,265.9 551.3,265.8 552.1,265.7 553.0,265.6 553.8,265.4 554.6,265.3 555.4,265.2 556.3,265.1 557.1,265.0 557.9,264.9 558.7,264.8 559.6,264.7 560.4,264.6 561.2,264.4 562.1,264.3 562.9,264.1 563.7,264.0 564.5,248.1 565.4,247.8 566.2,247.5 567.0,247.2 567.8,246.9 568.7,246.6 569.5,246.3 570.3,246.0 571.1,245.6 572.0,245.3 572.8,245.0 573.6,244.7 574.5,244.5 575.3,244.2 576.1,243.9 576.9,243.6 577.8,243.2 578.6,242.9 579.4,242.6 580.2,242.3 581.1,260.4 581.9,260.1 582.7,259.9 583.5,259.6 584.4,259.4 585.2,259.1 586.0,258.9 586.9,258.6 587.7,258.3 588.5,258.0 589.3,257.7 590.2,257.5 591.0,257.2 591.8,256.9 592.6,256.6 593.5,256.3 594.3,256.2 595.1,255.9 595.9,255.6 596.8,255.4 597.6,265.0 598.4,264.8 599.3,264.5 600.1,264.3 600.9,264.2 601.7,263.9 602.6,263.7 603.4,263.4 604.2,263.3 605.0,263.0 605.9,262.8 606.7,262.5 607.5,262.5 608.3,262.2 609.2,262.0 610.0,261.7 610.8,261.6 611.7,261.3 612.5,261.0 613.3,260.8 614.1,266.9 615.0,266.7 615.8,266.5 616.6,266.2 617.4,266.1 618.3,265.8 619.1,265.6 619.9,265.4 620.7,265.1 621.6,264.9 622.4,264.6 623.2,264.4 624.1,264.0 624.9,263.8 625.7,263.5 626.5,263.3 627.4,262.9 628.2,262.7 629.0,262.4 629.8,262.2 630.7,265.6 631.5,265.3 632.3,265.0 633.1,264.8 634.0,264.5 634.8,264.2 635.6,264.0 636.5,263.7 637.3,263.7 638.1,263.5 638.9,263.2 639.8,262.9 640.6,262.7 641.4,262.4 642.2,262.1 643.1,261.9 643.9,261.7 644.7,261.4 645.5,261.2 646.4,260.9 647.2,263.3 648.0,263.0 648.9,262.8 649.7,262.5 650.5,262.3 651.3,262.0 652.2,261.8 653.0,261.5 653.8,261.2 654.6,261.0 655.5,260.7 656.3,260.5 657.1,260.2 657.9,260.0 658.8,259.7 659.6,259.5 660.4,259.1 661.3,258.8 662.1,258.6 662.9,258.3 663.7,259.0 664.6,258.7 665.4,258.5 666.2,258.2 667.0,257.9 667.9,257.7 668.7,257.4 669.5,257.1 670.3,256.9 671.2,256.7 672.0,256.4 672.8,256.1 673.7,256.0 674.5,255.7 675.3,255.5 676.1,255.2 677.0,255.0 677.8,254.7 678.6,254.4 679.4,254.2 680.3,274.0 681.1,273.9 681.9,273.7 682.7,273.6 683.6,273.3 684.4,273.2 685.2,273.0 686.1,272.9 686.9,272.8 687.7,272.6 688.5,272.5 689.4,272.4 690.2,272.1 691.0,272.0 691.8,271.8 692.7,271.7 693.5,271.5 694.3,271.4 695.1,271.2 696.0,271.1 696.8,266.0 697.6,265.8 698.5,265.7 699.3,265.5 700.1,265.1 700.9,264.9 701.8,264.7 702.6,264.5 703.4,264.4 704.2,264.3 705.1,264.1 705.9,263.9 706.7,263.5 707.5,263.3 708.4,263.2 709.2,263.0 710.0,263.5 710.9,263.4 711.7,263.2 712.5,263.0 713.3,262.0 714.2,261.9 715.0,261.7 715.8,261.5 716.6,261.8 717.5,261.7 718.3,261.5 719.1,261.3 719.9,261.5 720.8,261.3 721.6,261.2 722.4,261.0 723.3,260.9 724.1,260.8 724.9,260.6 725.7,260.4 726.6,260.3 727.4,260.2 728.2,260.0 729.0,259.9 729.9,263.4 730.7,263.3 731.5,263.2 732.3,263.0 733.2,262.9 734.0,262.8 734.8,262.6 735.7,262.5 736.5,262.4 737.3,262.3 738.1,262.1 739.0,262.0 739.8,261.8 740.6,261.6 741.4,261.5 742.3,261.3 743.1,260.7 743.9,260.5 744.7,260.4 745.6,260.2 746.4,260.8 747.2,260.6 748.1,260.5 748.9,260.3 749.7,260.7 750.5,260.5 751.4,260.4 752.2,260.2 753.0,260.6 753.8,260.5 754.7,260.4 755.5,260.2 756.3,260.2 757.1,260.1 758.0,259.9 758.8,259.8 759.6,259.6 760.5,259.5 761.3,259.3 762.1,259.2 762.9,253.0 763.8,252.8 764.6,252.7 765.4,252.5 766.2,252.2 767.1,252.0 767.9,251.8 768.7,251.7 769.5,251.4 770.4,251.2 771.2,251.0 772.0,250.9 772.9,250.6 773.7,250.4 774.5,250.2 775.3,250.0 776.2,249.8 777.0,249.6 777.8,249.4 778.6,249.2 779.5,246.4 780.3,246.2 781.1,246.0 781.9,245.8 782.8,245.6 783.6,245.4 784.4,245.2 785.3,244.9 786.1,244.7 786.9,244.5 787.7,244.3 788.6,244.1 789.4,243.8 790.2,243.6 791.0,243.4 791.9,243.2 792.7,243.0 793.5,242.8 794.3,242.6 795.2,242.4 796.0,257.4"/>
<text x="640" y="56" font-family="Arial" font-size="12" fill="#0f766e">position error</text>
<polyline fill="none" stroke="#2563eb" stroke-width="2.3" points="52.0,228.7 52.8,228.5 53.7,227.7 54.5,226.5 55.3,226.5 56.1,224.9 57.0,222.8 57.8,220.5 58.6,219.4 59.4,216.8 60.3,214.0 61.1,211.0 61.9,209.0 62.7,205.9 63.6,202.6 64.4,199.2 65.2,196.4 66.1,193.0 66.9,189.4 67.7,185.8 68.5,233.0 69.4,231.1 70.2,229.0 71.0,226.8 71.8,225.1 72.7,222.8 73.5,220.5 74.3,218.1 75.1,216.0 76.0,213.5 76.8,211.0 77.6,208.4 78.5,206.1 79.3,203.4 80.1,200.8 80.9,198.1 81.8,195.6 82.6,192.8 83.4,190.1 84.2,187.3 85.1,233.5 85.9,232.1 86.7,230.6 87.5,229.0 88.4,227.7 89.2,226.1 90.0,224.5 90.9,222.8 91.7,221.3 92.5,219.6 93.3,217.9 94.2,216.2 95.0,214.6 95.8,212.8 96.6,211.1 97.5,209.2 98.3,207.6 99.1,205.7 99.9,203.9 100.8,202.0 101.6,236.1 102.4,234.9 103.3,233.8 104.1,232.6 104.9,231.6 105.7,230.4 106.6,229.1 107.4,227.9 108.2,226.8 109.0,225.5 109.9,224.2 110.7,222.8 111.5,221.7 112.3,220.3 113.2,218.9 114.0,217.5 114.8,216.2 115.7,214.7 116.5,213.3 117.3,211.8 118.1,238.3 119.0,237.3 119.8,236.3 120.6,235.2 121.4,234.4 122.3,233.3 123.1,232.2 123.9,231.1 124.7,230.1 125.6,229.0 126.4,227.8 127.2,226.6 128.1,225.5 128.9,224.3 129.7,223.0 130.5,221.7 131.4,220.5 132.2,219.2 133.0,217.8 133.8,216.4 134.7,239.5 135.5,238.6 136.3,237.6 137.1,236.6 138.0,235.7 138.8,234.7 139.6,233.6 140.5,232.5 141.3,231.5 142.1,230.4 142.9,229.2 143.8,228.0 144.6,226.9 145.4,225.7 146.2,224.4 147.1,223.1 147.9,222.0 148.7,220.6 149.5,219.3 150.4,217.9 151.2,239.9 152.0,239.0 152.9,238.0 153.7,237.0 154.5,236.1 155.3,235.0 156.2,234.0 157.0,232.9 157.8,231.9 158.6,230.7 159.5,229.5 160.3,228.3 161.1,227.2 161.9,226.0 162.8,224.7 163.6,223.4 164.4,222.2 165.3,220.9 166.1,219.5 166.9,218.1 167.7,240.1 168.6,239.1 169.4,238.1 170.2,237.1 171.0,236.2 171.9,235.2 172.7,234.1 173.5,233.1 174.3,232.0 175.2,230.9 176.0,229.8 176.8,228.6 177.7,227.5 178.5,226.3 179.3,225.1 180.1,223.9 181.0,222.7 181.8,221.4 182.6,220.1 183.4,218.8 184.3,240.3 185.1,239.4 185.9,238.4 186.7,237.5 187.6,236.6 188.4,235.6 189.2,234.6 190.1,233.6 190.9,232.6 191.7,231.6 192.5,230.5 193.4,229.4 194.2,228.4 195.0,227.2 195.8,226.1 196.7,224.9 197.5,223.8 198.3,222.6 199.1,221.4 200.0,220.2 200.8,240.7 201.6,239.9 202.5,239.0 203.3,238.1 204.1,237.3 204.9,236.4 205.8,235.5 206.6,234.5 207.4,233.6 208.2,232.7 209.1,231.7 209.9,230.7 210.7,229.7 211.5,228.7 212.4,227.6 213.2,226.6 214.0,225.5 214.9,224.4 215.7,223.3 216.5,222.2 217.3,241.4 218.2,240.6 219.0,239.8 219.8,239.0 220.6,238.3 221.5,237.4 222.3,236.6 223.1,235.7 223.9,234.9 224.8,234.0 225.6,233.1 226.4,232.2 227.3,231.3 228.1,230.4 228.9,229.5 229.7,228.5 230.6,227.6 231.4,226.6 232.2,225.6 233.0,224.6 233.9,242.3 234.7,241.5 235.5,240.8 236.3,240.1 237.2,239.4 238.0,238.6 238.8,237.8 239.7,237.1 240.5,236.3 241.3,235.5 242.1,234.7 243.0,233.9 243.8,233.1 244.6,232.2 245.4,231.4 246.3,230.5 247.1,229.7 247.9,228.8 248.7,227.9 249.6,227.0 250.4,243.1 251.2,242.5 252.1,241.8 252.9,241.2 253.7,240.5 254.5,239.8 255.4,239.1 256.2,238.4 257.0,237.7 257.8,237.0 258.7,236.3 259.5,235.5 260.3,234.8 261.1,234.1 262.0,233.3 262.8,232.5 263.6,231.8 264.5,231.0 265.3,230.2 266.1,229.4 266.9,244.1 267.8,243.5 268.6,242.9 269.4,242.2 270.2,241.7 271.1,241.0 271.9,240.4 272.7,239.7 273.5,239.1 274.4,238.5 275.2,237.8 276.0,237.1 276.9,236.5 277.7,235.8 278.5,235.1 279.3,234.4 280.2,233.7 281.0,233.0 281.8,232.3 282.6,231.6 283.5,245.0 284.3,244.4 285.1,243.8 285.9,243.3 286.8,242.8 287.6,242.2 288.4,241.6 289.3,241.0 290.1,240.4 290.9,239.8 291.7,239.2 292.6,238.6 293.4,238.0 294.2,237.4 295.0,236.8 295.9,236.2 296.7,235.5 297.5,234.9 298.3,234.2 299.2,233.6 300.0,245.8 300.8,245.3 301.7,244.8 302.5,244.3 303.3,243.8 304.1,243.3 305.0,242.7 305.8,242.2 306.6,241.7 307.4,241.1 308.3,240.6 309.1,240.0 309.9,239.5 310.7,238.9 311.6,238.3 312.4,237.8 313.2,237.2 314.1,236.6 314.9,236.0 315.7,235.4 316.5,246.7 317.4,246.2 318.2,245.7 319.0,245.2 319.8,244.8 320.7,244.3 321.5,243.8 322.3,243.3 323.1,242.8 324.0,242.3 324.8,241.8 325.6,241.3 326.5,240.8 327.3,240.3 328.1,239.8 328.9,239.2 329.8,238.7 330.6,238.2 331.4,237.6 332.2,237.1 333.1,247.4 333.9,247.0 334.7,246.6 335.5,246.1 336.4,245.7 337.2,245.3 338.0,244.8 338.9,244.3 339.7,243.9 340.5,243.4 341.3,243.0 342.2,242.5 343.0,242.1 343.8,241.6 344.6,241.1 345.5,240.6 346.3,240.1 347.1,239.6 347.9,239.1 348.8,238.6 349.6,238.1 350.4,237.6 351.3,237.0 352.1,236.4 352.9,235.9 353.7,235.3 354.6,234.8 355.4,234.2 356.2,233.6 357.0,233.1 357.9,232.5 358.7,231.9 359.5,231.3 360.3,230.7 361.2,230.1 362.0,229.5 362.8,228.9 363.7,228.3 364.5,227.6 365.3,227.0 366.1,226.4 367.0,225.8 367.8,225.1 368.6,224.5 369.4,223.8 370.3,223.2 371.1,222.5 371.9,221.9 372.7,221.2 373.6,220.5 374.4,219.9 375.2,219.2 376.1,218.5 376.9,217.8 377.7,217.1 378.5,216.4 379.4,215.7 380.2,215.0 381.0,214.3 381.8,213.6 382.7,212.9 383.5,212.2 384.3,211.4 385.1,210.7 386.0,210.0 386.8,209.2 387.6,208.5 388.5,207.7 389.3,207.0 390.1,206.2 390.9,205.5 391.8,204.7 392.6,203.9 393.4,203.1 394.2,202.4 395.1,201.6 395.9,200.8 396.7,200.0 397.5,199.2 398.4,198.4 399.2,197.6 400.0,196.8 400.9,196.0 401.7,195.1 402.5,194.3 403.3,193.5 404.2,192.6 405.0,191.8 405.8,191.0 406.6,190.1 407.5,189.3 408.3,188.4 409.1,187.5 409.9,186.7 410.8,185.8 411.6,184.9 412.4,184.0 413.3,183.2 414.1,182.3 414.9,181.4 415.7,180.5 416.6,179.6 417.4,178.7 418.2,177.7 419.0,176.8 419.9,175.9 420.7,175.0 421.5,174.1 422.3,173.1 423.2,172.2 424.0,171.2 424.8,170.3 425.7,169.3 426.5,168.4 427.3,167.4 428.1,166.4 429.0,165.5 429.8,164.5 430.6,163.5 431.4,162.5 432.3,161.5 433.1,160.5 433.9,159.5 434.7,158.5 435.6,157.5 436.4,156.5 437.2,155.5 438.1,154.4 438.9,153.4 439.7,152.4 440.5,151.3 441.4,150.3 442.2,149.2 443.0,148.2 443.8,147.1 444.7,146.1 445.5,145.0 446.3,143.9 447.1,142.8 448.0,141.7 448.8,140.7 449.6,139.6 450.5,138.5 451.3,137.4 452.1,136.3 452.9,135.1 453.8,134.0 454.6,132.9 455.4,131.8 456.2,130.6 457.1,129.5 457.9,128.4 458.7,127.2 459.5,126.1 460.4,124.9 461.2,123.7 462.0,122.6 462.9,121.4 463.7,120.2 464.5,119.0 465.3,117.9 466.2,116.7 467.0,115.5 467.8,114.3 468.6,113.0 469.5,111.8 470.3,110.6 471.1,109.4 471.9,108.2 472.8,106.9 473.6,105.7 474.4,104.4 475.3,103.2 476.1,101.9 476.9,100.7 477.7,99.4 478.6,98.1 479.4,96.9 480.2,95.6 481.0,94.3 481.9,93.0 482.7,91.7 483.5,90.4 484.3,89.1 485.2,87.8 486.0,86.5 486.8,85.2 487.7,83.8 488.5,82.5 489.3,81.2 490.1,79.8 491.0,78.5 491.8,77.1 492.6,75.8 493.4,74.4 494.3,73.0 495.1,71.6 495.9,70.3 496.7,68.9 497.6,67.5 498.4,66.1 499.2,64.9 500.1,63.6 500.9,62.4 501.7,61.1 502.5,59.9 503.4,58.6 504.2,57.4 505.0,56.1 505.8,54.8 506.7,53.6 507.5,52.3 508.3,51.0 509.1,49.7 510.0,48.5 510.8,47.2 511.6,45.9 512.5,44.6 513.3,43.3 514.1,42.0 514.9,227.3 515.8,227.0 516.6,226.6 517.4,226.3 518.2,226.0 519.1,225.7 519.9,225.4 520.7,225.1 521.5,224.7 522.4,224.4 523.2,224.1 524.0,223.8 524.9,223.5 525.7,223.1 526.5,222.8 527.3,222.4 528.2,222.1 529.0,221.8 529.8,221.4 530.6,221.1 531.5,241.4 532.3,241.2 533.1,240.9 533.9,240.7 534.8,240.5 535.6,240.2 536.4,240.0 537.3,239.7 538.1,239.5 538.9,239.2 539.7,239.0 540.6,238.7 541.4,238.5 542.2,238.3 543.0,238.0 543.9,237.7 544.7,237.5 545.5,237.2 546.3,237.0 547.2,236.7 548.0,247.4 548.8,247.2 549.7,247.0 550.5,246.8 551.3,246.6 552.1,246.4 553.0,246.1 553.8,245.9 554.6,245.7 555.4,245.5 556.3,245.3 557.1,245.0 557.9,244.8 558.7,244.6 559.6,244.4 560.4,244.1 561.2,243.9 562.1,243.7 562.9,243.4 563.7,243.2 564.5,250.7 565.4,250.5 566.2,250.3 567.0,250.1 567.8,249.9 568.7,249.7 569.5,249.5 570.3,249.2 571.1,249.1 572.0,248.8 572.8,248.6 573.6,248.4 574.5,248.2 575.3,248.0 576.1,247.8 576.9,247.5 577.8,247.3 578.6,247.1 579.4,246.9 580.2,246.6 581.1,252.6 581.9,252.4 582.7,252.2 583.5,252.0 584.4,251.8 585.2,251.6 586.0,251.4 586.9,251.2 587.7,251.0 588.5,250.8 589.3,250.6 590.2,250.4 591.0,250.2 591.8,250.0 592.6,249.7 593.5,249.5 594.3,249.3 595.1,249.1 595.9,248.8 596.8,248.6 597.6,253.8 598.4,253.6 599.3,253.4 600.1,253.2 600.9,253.0 601.7,252.8 602.6,252.6 603.4,252.4 604.2,252.2 605.0,252.0 605.9,251.8 606.7,251.6 607.5,251.4 608.3,251.1 609.2,250.9 610.0,250.7 610.8,250.5 611.7,250.2 612.5,250.0 613.3,249.8 614.1,254.6 615.0,254.4 615.8,254.1 616.6,253.9 617.4,253.8 618.3,253.5 619.1,253.3 619.9,253.1 620.7,252.9 621.6,252.7 622.4,252.5 623.2,252.3 624.1,252.1 624.9,251.8 625.7,251.6 626.5,251.4 627.4,251.2 628.2,251.0 629.0,250.7 629.8,250.5 630.7,255.0 631.5,254.8 632.3,254.6 633.1,254.4 634.0,254.2 634.8,254.0 635.6,253.8 636.5,253.5 637.3,253.4 638.1,253.1 638.9,252.9 639.8,252.7 640.6,252.5 641.4,252.3 642.2,252.0 643.1,251.8 643.9,251.6 644.7,251.4 645.5,251.1 646.4,250.9 647.2,255.3 648.0,255.1 648.9,254.9 649.7,254.7 650.5,254.5 651.3,254.3 652.2,254.0 653.0,253.8 653.8,253.6 654.6,253.4 655.5,253.2 656.3,253.0 657.1,252.8 657.9,252.5 658.8,252.3 659.6,252.1 660.4,251.9 661.3,251.7 662.1,251.4 662.9,251.2 663.7,255.5 664.6,255.3 665.4,255.0 666.2,254.8 667.0,254.7 667.9,254.4 668.7,254.2 669.5,254.0 670.3,253.8 671.2,253.6 672.0,253.4 672.8,253.2 673.7,253.0 674.5,252.7 675.3,252.5 676.1,252.3 677.0,252.1 677.8,251.9 678.6,251.6 679.4,251.4 680.3,255.6 681.1,255.4 681.9,255.2 682.7,255.0 683.6,254.8 684.4,254.6 685.2,254.4 686.1,254.2 686.9,254.0 687.7,253.8 688.5,253.5 689.4,253.3 690.2,253.1 691.0,252.9 691.8,252.7 692.7,252.5 693.5,252.3 694.3,252.0 695.1,251.8 696.0,251.6 696.8,255.7 697.6,255.5 698.5,255.3 699.3,255.1 700.1,254.9 700.9,254.7 701.8,254.5 702.6,254.3 703.4,254.1 704.2,253.9 705.1,253.7 705.9,253.5 706.7,253.3 707.5,253.1 708.4,252.8 709.2,252.6 710.0,252.4 710.9,252.2 711.7,252.0 712.5,251.8 713.3,255.8 714.2,255.6 715.0,255.4 715.8,255.2 716.6,255.1 717.5,254.9 718.3,254.7 719.1,254.4 719.9,254.3 720.8,254.1 721.6,253.8 722.4,253.6 723.3,253.5 724.1,253.2 724.9,253.0 725.7,252.8 726.6,252.6 727.4,252.4 728.2,252.2 729.0,252.0 729.9,256.0 730.7,255.8 731.5,255.6 732.3,255.4 733.2,255.2 734.0,255.0 734.8,254.8 735.7,254.6 736.5,254.4 737.3,254.2 738.1,254.0 739.0,253.8 739.8,253.6 740.6,253.4 741.4,253.2 742.3,253.0 743.1,252.8 743.9,252.6 744.7,252.4 745.6,252.2 746.4,256.1 747.2,255.9 748.1,255.7 748.9,255.5 749.7,255.4 750.5,255.2 751.4,255.0 752.2,254.8 753.0,254.6 753.8,254.4 754.7,254.2 755.5,254.0 756.3,253.8 757.1,253.6 758.0,253.4 758.8,253.2 759.6,253.0 760.5,252.8 761.3,252.6 762.1,252.4 762.9,256.3 763.8,256.1 764.6,255.9 765.4,255.7 766.2,255.6 767.1,255.4 767.9,255.2 768.7,255.0 769.5,254.8 770.4,254.6 771.2,254.4 772.0,254.2 772.9,254.0 773.7,253.8 774.5,253.6 775.3,253.4 776.2,253.3 777.0,253.1 777.8,252.9 778.6,252.6 779.5,256.5 780.3,256.3 781.1,256.1 781.9,255.9 782.8,255.7 783.6,255.5 784.4,255.4 785.3,255.2 786.1,255.0 786.9,254.8 787.7,254.6 788.6,254.4 789.4,254.3 790.2,254.1 791.0,253.9 791.9,253.7 792.7,253.5 793.5,253.3 794.3,253.1 795.2,252.9 796.0,256.6"/>
<text x="640" y="72" font-family="Arial" font-size="12" fill="#2563eb">sqrt trace Ppos</text>
</svg>