<svg xmlns="http://www.w3.org/2000/svg" width="820" height="320" viewBox="0 0 820 320">
<rect width="100%" height="100%" fill="white"/>
<text x="52" y="30" font-family="Arial" font-size="18" font-weight="700">dropout_robust position error</text>
<line x1="52" y1="274" x2="796" y2="274" stroke="#263238"/>
<line x1="52" y1="42" x2="52" y2="274" stroke="#263238"/>
<text x="52" y="306" font-family="Arial" font-size="12">time (s)</text>
<text x="630" y="306" font-family="Arial" font-size="12">m</text>

<rect x="349.6" y="42" width="148.8" height="232" fill="#fef3c7" opacity="0.72"/>
<polyline fill="none" stroke="#0f766e" stroke-width="2.3" points="52.0,46.8 52.8,46.5 53.7,46.3 54.5,46.1 55.3,45.8 56.1,45.6 57.0,45.3 57.8,45.1 58.6,44.8 59.4,44.6 60.3,44.4 61.1,44.1 61.9,43.9 62.7,43.7 63.6,43.4 64.4,43.2 65.2,42.8 66.1,42.6 66.9,42.3 67.7,42.0 68.5,211.8 69.4,215.1 70.2,218.0 71.0,220.5 71.8,222.8 72.7,224.4 73.5,225.4 74.3,225.9 75.1,225.9 76.0,225.1 76.8,223.8 77.6,222.0 78.5,219.5 79.3,216.8 80.1,213.6 80.9,210.2 81.8,206.7 82.6,202.7 83.4,198.5 84.2,194.0 85.1,254.7 85.9,250.7 86.7,246.6 87.5,242.3 88.4,237.9 89.2,233.4 90.0,228.9 90.9,224.4 91.7,219.8 92.5,215.2 93.3,210.6 94.2,206.0 95.0,201.3 95.8,196.7 96.6,192.0 97.5,187.4 98.3,182.7 99.1,178.0 99.9,173.4 100.8,168.7 101.6,199.0 102.4,195.2 103.3,191.4 104.1,187.6 104.9,183.9 105.7,180.1 106.6,176.3 107.4,172.4 108.2,168.9 109.0,165.0 109.9,161.2 110.7,157.3 111.5,153.7 112.3,149.8 113.2,146.0 114.0,142.1 114.8,138.1 115.7,134.3 116.5,130.4 117.3,126.6 118.1,201.3 119.0,198.9 119.8,196.5 120.6,194.1 121.4,191.5 122.3,189.1 123.1,186.7 123.9,184.3 124.7,182.0 125.6,179.6 126.4,177.3 127.2,174.9 128.1,172.7 128.9,170.3 129.7,168.0 130.5,165.6 131.4,163.3 132.2,161.0 133.0,158.7 133.8,156.4 134.7,199.9 135.5,198.6 136.3,197.3 137.1,196.0 138.0,194.5 138.8,193.3 139.6,192.0 140.5,190.8 141.3,189.5 142.1,188.3 142.9,187.1 143.8,185.9 144.6,184.7 145.4,183.5 146.2,182.3 147.1,181.1 147.9,180.0 148.7,178.8 149.5,177.7 150.4,176.6 151.2,220.3 152.0,220.0 152.9,219.7 153.7,219.4 154.5,219.1 155.3,218.9 156.2,218.7 157.0,218.5 157.8,218.4 158.6,218.2 159.5,218.1 160.3,218.0 161.1,217.9 161.9,217.8 162.8,217.7 163.6,217.6 164.4,217.7 165.3,217.6 166.1,217.7 166.9,217.7 167.7,223.8 168.6,223.9 169.4,224.0 170.2,224.2 171.0,224.5 171.9,224.7 172.7,224.9 173.5,225.1 174.3,225.4 175.2,225.7 176.0,226.0 176.8,226.3 177.7,226.6 178.5,226.9 179.3,227.3 180.1,227.6 181.0,228.0 181.8,228.4 182.6,228.8 183.4,229.2 184.3,250.0 185.1,248.4 185.9,246.7 186.7,244.9 187.6,243.0 188.4,241.2 189.2,239.2 190.1,237.3 190.9,235.1 191.7,233.0 192.5,230.9 193.4,228.7 194.2,226.8 195.0,224.6 195.8,222.3 196.7,220.0 197.5,217.6 198.3,215.2 199.1,212.8 200.0,210.4 200.8,247.2 201.6,245.2 202.5,243.1 203.3,241.1 204.1,238.9 204.9,236.8 205.8,234.7 206.6,232.5 207.4,230.6 208.2,228.4 209.1,226.2 209.9,223.9 210.7,221.6 211.5,219.3 212.4,217.0 213.2,214.6 214.0,212.2 214.9,209.8 215.7,207.4 216.5,204.9 217.3,223.8 218.2,221.6 219.0,219.4 219.8,217.2 220.6,215.0 221.5,212.7 222.3,210.4 223.1,208.1 223.9,205.8 224.8,203.5 225.6,201.1 226.4,198.6 227.3,196.2 228.1,193.7 228.9,191.2 229.7,188.7 230.6,186.1 231.4,183.6 232.2,181.0 233.0,178.4 233.9,191.6 234.7,189.2 235.5,186.8 236.3,184.3 237.2,181.8 238.0,179.3 238.8,176.8 239.7,174.3 240.5,171.8 241.3,169.2 242.1,166.6 243.0,164.0 243.8,161.5 244.6,158.8 245.4,156.1 246.3,153.4 247.1,150.7 247.9,147.9 248.7,145.1 249.6,142.3 250.4,193.8 251.2,191.8 252.1,189.7 252.9,187.7 253.7,185.4 254.5,183.3 255.4,181.2 256.2,179.1 257.0,177.0 257.8,174.9 258.7,172.7 259.5,170.5 260.3,168.3 261.1,166.1 262.0,163.8 262.8,161.5 263.6,159.2 264.5,156.9 265.3,154.6 266.1,152.3 266.9,190.1 267.8,188.3 268.6,186.5 269.4,184.7 270.2,182.8 271.1,181.0 271.9,179.1 272.7,177.2 273.5,175.3 274.4,173.4 275.2,171.5 276.0,169.5 276.9,167.5 277.7,165.5 278.5,163.5 279.3,161.5 280.2,159.4 281.0,157.4 281.8,155.3 282.6,153.3 283.5,243.8 284.3,243.0 285.1,242.2 285.9,241.3 286.8,240.5 287.6,239.6 288.4,238.7 289.3,237.9 290.1,236.4 290.9,235.5 291.7,234.6 292.6,233.7 293.4,233.7 294.2,232.7 295.0,231.8 295.9,230.9 296.7,229.2 297.5,228.3 298.3,227.3 299.2,226.3 300.0,244.2 300.8,243.4 301.7,242.7 302.5,241.9 303.3,240.3 304.1,239.5 305.0,238.8 305.8,238.0 306.6,237.6 307.4,236.8 308.3,236.0 309.1,235.2 309.9,234.5 310.7,233.7 311.6,232.9 312.4,232.1 313.2,231.7 314.1,230.9 314.9,230.0 315.7,229.2 316.5,243.4 317.4,242.7 318.2,242.0 319.0,241.3 319.8,241.4 320.7,240.7 321.5,240.0 322.3,239.3 323.1,238.7 324.0,238.0 324.8,237.3 325.6,236.5 326.5,235.8 327.3,235.1 328.1,234.3 328.9,233.6 329.8,232.8 330.6,232.1 331.4,231.3 332.2,230.6 333.1,259.9 333.9,259.5 334.7,259.1 335.5,258.7 336.4,258.2 337.2,257.8 338.0,257.4 338.9,257.0 339.7,256.7 340.5,256.3 341.3,255.9 342.2,255.4 343.0,255.1 343.8,254.7 344.6,254.3 345.5,253.9 346.3,253.3 347.1,252.9 347.9,252.5 348.8,252.0 349.6,252.0 350.4,251.6 351.3,251.2 352.1,250.7 352.9,250.1 353.7,249.7 354.6,249.3 355.4,248.8 356.2,248.6 357.0,248.1 357.9,247.7 358.7,247.3 359.5,246.6 360.3,246.2 361.2,245.7 362.0,245.2 362.8,244.4 363.7,244.0 364.5,243.5 365.3,243.0 366.1,243.0 367.0,242.5 367.8,242.0 368.6,241.5 369.4,240.8 370.3,240.3 371.1,239.7 371.9,239.2 372.7,238.7 373.6,238.2 374.4,237.7 375.2,237.1 376.1,236.7 376.9,236.2 377.7,235.6 378.5,235.1 379.4,234.5 380.2,234.0 381.0,233.5 381.8,232.9 382.7,232.3 383.5,231.7 384.3,231.2 385.1,230.6 386.0,229.8 386.8,229.2 387.6,228.6 388.5,228.1 389.3,227.9 390.1,227.3 390.9,226.7 391.8,226.2 392.6,225.6 393.4,225.0 394.2,224.5 395.1,223.9 395.9,223.4 396.7,222.8 397.5,222.2 398.4,221.6 399.2,220.8 400.0,220.1 400.9,219.5 401.7,218.9 402.5,218.4 403.3,217.8 404.2,217.1 405.0,216.5 405.8,216.1 406.6,215.4 407.5,214.8 408.3,214.2 409.1,213.5 409.9,212.9 410.8,212.2 411.6,211.6 412.4,211.0 413.3,210.3 414.1,209.7 414.9,209.0 415.7,208.3 416.6,207.7 417.4,207.0 418.2,206.3 419.0,205.7 419.9,205.0 420.7,204.3 421.5,203.6 422.3,202.9 423.2,202.2 424.0,201.5 424.8,200.8 425.7,200.1 426.5,199.4 427.3,198.7 428.1,198.0 429.0,197.3 429.8,196.5 430.6,195.8 431.4,195.1 432.3,194.4 433.1,193.6 433.9,192.9 434.7,192.1 435.6,191.4 436.4,190.7 437.2,189.9 438.1,189.1 438.9,188.3 439.7,187.6 440.5,186.8 441.4,186.0 442.2,185.2 443.0,184.5 443.8,183.7 444.7,182.9 445.5,182.2 446.3,181.5 447.1,180.7 448.0,179.9 448.8,178.9 449.6,178.1 450.5,177.3 451.3,176.4 452.1,175.7 452.9,174.9 453.8,174.0 454.6,173.2 455.4,172.5 456.2,171.6 457.1,170.8 457.9,170.0 458.7,168.9 459.5,168.1 460.4,167.2 461.2,166.4 462.0,165.7 462.9,164.8 463.7,164.0 464.5,163.1 465.3,162.2 466.2,161.3 467.0,160.4 467.8,159.6 468.6,158.8 469.5,157.9 470.3,157.1 471.1,156.2 471.9,155.1 472.8,154.2 473.6,153.3 474.4,152.4 475.3,151.6 476.1,150.7 476.9,149.7 477.7,148.8 478.6,147.8 479.4,146.9 480.2,146.0 481.0,145.0 481.9,144.1 482.7,143.2 483.5,142.3 484.3,141.3 485.2,140.6 486.0,139.6 486.8,138.7 487.7,137.8 488.5,136.9 489.3,136.0 490.1,135.0 491.0,134.1 491.8,133.1 492.6,132.2 493.4,131.2 494.3,130.2 495.1,129.3 495.9,128.4 496.7,127.4 497.6,126.4 498.4,125.4 499.2,124.4 500.1,123.4 500.9,122.4 501.7,121.4 502.5,120.4 503.4,119.4 504.2,118.4 505.0,117.3 505.8,116.3 506.7,115.2 507.5,114.2 508.3,113.3 509.1,112.3 510.0,111.2 510.8,110.2 511.6,109.2 512.5,108.1 513.3,107.1 514.1,106.0 514.9,239.7 515.8,239.6 516.6,239.5 517.4,239.4 518.2,239.2 519.1,239.1 519.9,239.0 520.7,238.9 521.5,238.8 522.4,238.7 523.2,238.6 524.0,238.5 524.9,238.5 525.7,238.5 526.5,238.4 527.3,238.3 528.2,238.3 529.0,238.3 529.8,238.2 530.6,238.1 531.5,253.9 532.3,253.8 533.1,253.7 533.9,253.7 534.8,253.1 535.6,253.0 536.4,253.0 537.3,252.9 538.1,253.3 538.9,253.2 539.7,253.1 540.6,253.1 541.4,253.3 542.2,253.2 543.0,253.1 543.9,253.0 544.7,253.1 545.5,253.0 546.3,253.0 547.2,252.9 548.0,258.8 548.8,258.7 549.7,258.6 550.5,258.5 551.3,258.4 552.1,258.3 553.0,258.1 553.8,258.0 554.6,257.8 555.4,257.7 556.3,257.6 557.1,257.4 557.9,257.3 558.7,257.2 559.6,257.1 560.4,256.9 561.2,256.5 562.1,256.4 562.9,256.2 563.7,256.1 564.5,237.4 565.4,237.0 566.2,236.5 567.0,236.0 567.8,235.5 568.7,235.0 569.5,234.6 570.3,234.1 571.1,233.5 572.0,233.1 572.8,232.6 573.6,232.1 574.5,231.8 575.3,231.4 576.1,230.9 576.9,230.4 577.8,229.8 578.6,229.3 579.4,228.8 580.2,228.3 581.1,254.2 581.9,253.9 582.7,253.6 583.5,253.3 584.4,252.9 585.2,252.6 586.0,252.3 586.9,252.0 587.7,251.5 588.5,251.1 589.3,250.8 590.2,250.5 591.0,250.0 591.8,249.7 592.6,249.3 593.5,249.0 594.3,248.9 595.1,248.5 595.9,248.1 596.8,247.8 597.6,261.0 598.4,260.7 599.3,260.4 600.1,260.1 600.9,260.1 601.7,259.8 602.6,259.5 603.4,259.2 604.2,259.1 605.0,258.8 605.9,258.5 606.7,258.2 607.5,258.3 608.3,258.0 609.2,257.7 610.0,257.4 610.8,257.2 611.7,256.9 612.5,256.6 613.3,256.3 614.1,264.2 615.0,263.9 615.8,263.7 616.6,263.4 617.4,263.2 618.3,262.9 619.1,262.6 619.9,262.3 620.7,262.0 621.6,261.7 622.4,261.4 623.2,261.1 624.1,260.5 624.9,260.2 625.7,259.8 626.5,259.5 627.4,259.0 628.2,258.7 629.0,258.4 629.8,258.0 630.7,256.9 631.5,256.5 632.3,256.1 633.1,255.6 634.0,255.3 634.8,254.9 635.6,254.5 636.5,254.1 637.3,254.1 638.1,253.7 638.9,253.3 639.8,252.9 640.6,252.5 641.4,252.1 642.2,251.7 643.1,251.3 643.9,251.1 644.7,250.7 645.5,250.3 646.4,249.9 647.2,257.1 648.0,256.8 648.9,256.4 649.7,256.1 650.5,255.8 651.3,255.5 652.2,255.1 653.0,254.8 653.8,254.4 654.6,254.1 655.5,253.8 656.3,253.4 657.1,253.1 657.9,252.8 658.8,252.4 659.6,252.1 660.4,251.5 661.3,251.2 662.1,250.8 662.9,250.5 663.7,243.1 664.6,242.7 665.4,242.2 666.2,241.7 667.0,241.2 667.9,240.7 668.7,240.3 669.5,239.8 670.3,239.4 671.2,238.9 672.0,238.5 672.8,238.0 673.7,237.7 674.5,237.2 675.3,236.7 676.1,236.3 677.0,235.8 677.8,235.3 678.6,234.9 679.4,234.4 680.3,274.0 681.1,273.9 681.9,273.8 682.7,273.7 683.6,273.0 684.4,272.9 685.2,272.8 686.1,272.7 686.9,272.7 687.7,272.5 688.5,272.4 689.4,272.3 690.2,271.9 691.0,271.8 691.8,271.7 692.7,271.5 693.5,271.4 694.3,271.2 695.1,271.1 696.0,271.0 696.8,265.1 697.6,264.9 698.5,264.8 699.3,264.6 700.1,264.0 700.9,263.8 701.8,263.7 702.6,263.5 703.4,263.6 704.2,263.4 705.1,263.3 705.9,263.1 706.7,262.6 707.5,262.4 708.4,262.2 709.2,262.1 710.0,263.6 710.9,263.4 711.7,263.3 712.5,263.2 713.3,261.0 714.2,260.9 715.0,260.8 715.8,260.6 716.6,261.5 717.5,261.4 718.3,261.3 719.1,261.2 719.9,261.7 720.8,261.6 721.6,261.5 722.4,261.4 723.3,261.3 724.1,261.2 724.9,261.1 725.7,261.0 726.6,260.9 727.4,260.8 728.2,260.7 729.0,260.6 729.9,263.1 730.7,263.0 731.5,262.9 732.3,262.8 733.2,262.8 734.0,262.7 734.8,262.6 735.7,262.5 736.5,262.5 737.3,262.4 738.1,262.3 739.0,262.2 739.8,261.9 740.6,261.8 741.4,261.7 742.3,261.6 743.1,260.5 743.9,260.4 744.7,260.2 745.6,260.1 746.4,259.2 747.2,259.0 748.1,258.9 748.9,258.8 749.7,259.7 750.5,259.6 751.4,259.4 752.2,259.3 753.0,260.2 753.8,260.1 754.7,260.0 755.5,259.9 756.3,260.0 757.1,259.9 758.0,259.7 758.8,259.6 759.6,259.5 760.5,259.4 761.3,259.3 762.1,259.2 762.9,243.3 763.8,243.0 764.6,242.8 765.4,242.5 766.2,242.2 767.1,241.9 767.9,241.7 768.7,241.4 769.5,241.1 770.4,240.8 771.2,240.5 772.0,240.2 772.9,239.9 773.7,239.6 774.5,239.4 775.3,239.1 776.2,238.8 777.0,238.5 777.8,238.2 778.6,237.9 779.5,237.2 780.3,237.0 781.1,236.7 781.9,236.4 782.8,236.1 783.6,235.9 784.4,235.6 785.3,235.3 786.1,235.1 786.9,234.8 787.7,234.5 788.6,234.2 789.4,234.0 790.2,233.7 791.0,233.4 791.9,233.1 792.7,232.9 793.5,232.6 794.3,232.3 795.2,232.0 796.0,254.9"/>
<text x="640" y="56" font-family="Arial" font-size="12" fill="#0f766e">dropout_robust position error</text>
</svg>