<svg xmlns="http://www.w3.org/2000/svg" width="820" height="320" viewBox="0 0 820 320">
<rect width="100%" height="100%" fill="white"/>
<text x="52" y="30" font-family="Arial" font-size="18" font-weight="700">dropout_robust covariance trace</text>
<line x1="52" y1="274" x2="796" y2="274" stroke="#263238"/>
<line x1="52" y1="42" x2="52" y2="274" stroke="#263238"/>
<text x="52" y="306" font-family="Arial" font-size="12">time (s)</text>
<text x="630" y="306" font-family="Arial" font-size="12">sqrt trace P</text>

<polyline fill="none" stroke="#0f766e" stroke-width="2.3" points="52.0,261.5 52.8,261.4 53.7,261.1 54.5,260.7 55.3,260.9 56.1,260.2 57.0,259.4 57.8,258.5 58.6,258.2 59.4,257.1 60.3,256.0 61.1,254.8 61.9,254.1 62.7,252.8 63.6,251.5 64.4,250.1 65.2,249.1 66.1,247.6 66.9,246.1 67.7,244.6 68.5,264.1 69.4,263.2 70.2,262.2 71.0,261.2 71.8,260.4 72.7,259.3 73.5,258.2 74.3,257.1 75.1,256.1 76.0,255.0 76.8,253.8 77.6,252.5 78.5,251.4 79.3,250.2 80.1,248.9 80.9,247.6 81.8,246.5 82.6,245.1 83.4,243.8 84.2,242.5 85.1,263.9 85.9,263.2 86.7,262.4 87.5,261.6 88.4,260.9 89.2,260.1 90.0,259.3 90.9,258.4 91.7,257.7 92.5,256.8 93.3,255.9 94.2,255.1 95.0,254.3 95.8,253.4 96.6,252.4 97.5,251.5 98.3,250.7 99.1,249.7 99.9,248.8 100.8,247.8 101.6,265.0 102.4,264.4 103.3,263.8 104.1,263.2 104.9,262.7 105.7,262.1 106.6,261.4 107.4,260.8 108.2,260.2 109.0,259.6 109.9,258.9 110.7,258.2 111.5,257.6 112.3,256.9 113.2,256.2 114.0,255.5 114.8,254.8 115.7,254.1 116.5,253.4 117.3,252.6 118.1,266.2 119.0,265.7 119.8,265.2 120.6,264.6 121.4,264.2 122.3,263.7 123.1,263.1 123.9,262.6 124.7,262.1 125.6,261.5 126.4,260.9 127.2,260.3 128.1,259.8 128.9,259.2 129.7,258.6 130.5,257.9 131.4,257.4 132.2,256.7 133.0,256.0 133.8,255.4 134.7,267.0 135.5,266.5 136.3,266.0 137.1,265.5 138.0,265.1 138.8,264.6 139.6,264.1 140.5,263.5 141.3,263.1 142.1,262.5 142.9,261.9 143.8,261.4 144.6,260.9 145.4,260.3 146.2,259.7 147.1,259.0 147.9,258.5 148.7,257.8 149.5,257.2 150.4,256.5 151.2,267.3 152.0,266.9 152.9,266.4 153.7,265.9 154.5,265.5 155.3,265.0 156.2,264.4 157.0,263.9 157.8,263.4 158.6,262.9 159.5,262.3 160.3,261.7 161.1,261.2 161.9,260.6 162.8,260.0 163.6,259.4 164.4,258.8 165.3,258.1 166.1,257.5 166.9,256.8 167.7,267.5 168.6,267.0 169.4,266.5 170.2,266.0 171.0,265.6 171.9,265.1 172.7,264.5 173.5,264.0 174.3,263.5 175.2,263.0 176.0,262.4 176.8,261.8 177.7,261.3 178.5,260.7 179.3,260.1 180.1,259.5 181.0,258.9 181.8,258.3 182.6,257.6 183.4,257.0 184.3,267.5 185.1,267.1 185.9,266.6 186.7,266.1 187.6,265.7 188.4,265.2 189.2,264.7 190.1,264.1 190.9,263.7 191.7,263.1 192.5,262.6 193.4,262.0 194.2,261.5 195.0,260.9 195.8,260.4 196.7,259.8 197.5,259.2 198.3,258.6 199.1,258.0 200.0,257.4 200.8,267.7 201.6,267.2 202.5,266.8 203.3,266.3 204.1,265.9 204.9,265.4 205.8,264.9 206.6,264.4 207.4,264.0 208.2,263.5 209.1,263.0 209.9,262.5 210.7,262.0 211.5,261.4 212.4,260.9 213.2,260.3 214.0,259.8 214.9,259.2 215.7,258.7 216.5,258.1 217.3,267.9 218.2,267.5 219.0,267.1 219.8,266.7 220.6,266.3 221.5,265.8 222.3,265.4 223.1,264.9 223.9,264.5 224.8,264.0 225.6,263.6 226.4,263.1 227.3,262.6 228.1,262.1 228.9,261.6 229.7,261.1 230.6,260.6 231.4,260.1 232.2,259.6 233.0,259.1 233.9,268.3 234.7,267.9 235.5,267.5 236.3,267.1 237.2,266.7 238.0,266.3 238.8,265.9 239.7,265.5 240.5,265.1 241.3,264.7 242.1,264.2 243.0,263.8 243.8,263.4 244.6,262.9 245.4,262.5 246.3,262.0 247.1,261.6 247.9,261.1 248.7,260.6 249.6,260.1 250.4,268.7 251.2,268.3 252.1,268.0 252.9,267.6 253.7,267.3 254.5,266.9 255.4,266.5 256.2,266.1 257.0,265.8 257.8,265.4 258.7,265.0 259.5,264.6 260.3,264.2 261.1,263.8 262.0,263.4 262.8,262.9 263.6,262.6 264.5,262.1 265.3,261.7 266.1,261.2 266.9,269.1 267.8,268.8 268.6,268.5 269.4,268.1 270.2,267.8 271.1,267.5 271.9,267.1 272.7,266.8 273.5,266.5 274.4,266.1 275.2,265.7 276.0,265.4 276.9,265.0 277.7,264.6 278.5,264.2 279.3,263.9 280.2,263.5 281.0,263.1 281.8,262.7 282.6,262.3 283.5,269.6 284.3,269.3 285.1,269.0 285.9,268.7 286.8,268.4 287.6,268.1 288.4,267.7 289.3,267.4 290.1,267.1 290.9,266.8 291.7,266.4 292.6,266.1 293.4,265.8 294.2,265.4 295.0,265.1 295.9,264.7 296.7,264.4 297.5,264.0 298.3,263.7 299.2,263.3 300.0,270.0 300.8,269.7 301.7,269.4 302.5,269.2 303.3,268.9 304.1,268.6 305.0,268.3 305.8,268.0 306.6,267.7 307.4,267.4 308.3,267.1 309.1,266.8 309.9,266.5 310.7,266.2 311.6,265.9 312.4,265.5 313.2,265.2 314.1,264.9 314.9,264.6 315.7,264.2 316.5,270.4 317.4,270.2 318.2,269.9 319.0,269.6 319.8,269.4 320.7,269.1 321.5,268.8 322.3,268.6 323.1,268.3 324.0,268.0 324.8,267.7 325.6,267.4 326.5,267.2 327.3,266.9 328.1,266.6 328.9,266.3 329.8,266.0 330.6,265.7 331.4,265.4 332.2,265.1 333.1,270.8 333.9,270.6 334.7,270.3 335.5,270.1 336.4,269.9 337.2,269.6 338.0,269.3 338.9,269.1 339.7,268.9 340.5,268.6 341.3,268.3 342.2,268.0 343.0,267.8 343.8,267.5 344.6,267.3 345.5,267.0 346.3,266.7 347.1,266.4 347.9,266.1 348.8,265.9 349.6,265.5 350.4,265.1 351.3,264.7 352.1,264.3 352.9,263.9 353.7,263.5 354.6,263.0 355.4,262.6 356.2,262.2 357.0,261.7 357.9,261.3 358.7,260.8 359.5,260.4 360.3,260.0 361.2,259.5 362.0,259.0 362.8,258.6 363.7,258.1 364.5,257.6 365.3,257.1 366.1,256.6 367.0,256.1 367.8,255.6 368.6,255.1 369.4,254.6 370.3,254.0 371.1,253.5 371.9,253.0 372.7,252.4 373.6,251.9 374.4,251.3 375.2,250.8 376.1,250.2 376.9,249.6 377.7,249.1 378.5,248.5 379.4,247.9 380.2,247.3 381.0,246.7 381.8,246.1 382.7,245.5 383.5,244.8 384.3,244.2 385.1,243.6 386.0,242.9 386.8,242.3 387.6,241.6 388.5,240.9 389.3,240.3 390.1,239.6 390.9,238.9 391.8,238.2 392.6,237.5 393.4,236.8 394.2,236.1 395.1,235.4 395.9,234.7 396.7,233.9 397.5,233.2 398.4,232.4 399.2,231.7 400.0,230.9 400.9,230.1 401.7,229.4 402.5,228.6 403.3,227.8 404.2,227.0 405.0,226.2 405.8,225.4 406.6,224.5 407.5,223.7 408.3,222.9 409.1,222.0 409.9,221.1 410.8,220.3 411.6,219.4 412.4,218.5 413.3,217.6 414.1,216.7 414.9,215.8 415.7,214.9 416.6,214.0 417.4,213.0 418.2,212.1 419.0,211.2 419.9,210.2 420.7,209.2 421.5,208.2 422.3,207.2 423.2,206.2 424.0,205.2 424.8,204.2 425.7,203.2 426.5,202.2 427.3,201.1 428.1,200.1 429.0,199.0 429.8,197.9 430.6,196.8 431.4,195.7 432.3,194.6 433.1,193.5 433.9,192.4 434.7,191.3 435.6,190.1 436.4,189.0 437.2,187.8 438.1,186.6 438.9,185.5 439.7,184.3 440.5,183.0 441.4,181.8 442.2,180.6 443.0,179.4 443.8,178.1 444.7,176.8 445.5,175.6 446.3,174.3 447.1,173.0 448.0,171.7 448.8,170.4 449.6,169.1 450.5,167.7 451.3,166.4 452.1,165.0 452.9,163.6 453.8,162.2 454.6,160.8 455.4,159.4 456.2,158.0 457.1,156.6 457.9,155.1 458.7,153.7 459.5,152.2 460.4,150.7 461.2,149.2 462.0,147.7 462.9,146.2 463.7,144.6 464.5,143.1 465.3,141.5 466.2,139.9 467.0,138.3 467.8,136.7 468.6,135.1 469.5,133.5 470.3,131.8 471.1,130.2 471.9,128.5 472.8,126.8 473.6,125.1 474.4,123.4 475.3,121.7 476.1,119.9 476.9,118.2 477.7,116.4 478.6,114.6 479.4,112.8 480.2,111.0 481.0,109.2 481.9,107.3 482.7,105.5 483.5,103.6 484.3,101.7 485.2,99.8 486.0,97.9 486.8,95.9 487.7,94.0 488.5,92.0 489.3,90.0 490.1,88.0 491.0,86.0 491.8,83.9 492.6,81.9 493.4,79.8 494.3,77.7 495.1,75.6 495.9,73.5 496.7,71.4 497.6,69.2 498.4,67.1 499.2,65.8 500.1,64.5 500.9,63.2 501.7,61.9 502.5,60.6 503.4,59.3 504.2,58.0 505.0,56.7 505.8,55.3 506.7,54.0 507.5,52.7 508.3,51.4 509.1,50.1 510.0,48.7 510.8,47.4 511.6,46.0 512.5,44.7 513.3,43.4 514.1,42.0 514.9,259.0 515.8,258.8 516.6,258.7 517.4,258.5 518.2,258.3 519.1,258.1 519.9,257.9 520.7,257.7 521.5,257.5 522.4,257.3 523.2,257.1 524.0,256.9 524.9,256.7 525.7,256.5 526.5,256.3 527.3,256.1 528.2,255.9 529.0,255.6 529.8,255.4 530.6,255.2 531.5,267.2 532.3,267.0 533.1,266.8 533.9,266.7 534.8,266.5 535.6,266.3 536.4,266.2 537.3,266.0 538.1,265.8 538.9,265.7 539.7,265.5 540.6,265.3 541.4,265.1 542.2,264.9 543.0,264.7 543.9,264.5 544.7,264.3 545.5,264.1 546.3,263.9 547.2,263.7 548.0,270.2 548.8,270.1 549.7,269.9 550.5,269.7 551.3,269.6 552.1,269.4 553.0,269.2 553.8,269.0 554.6,268.8 555.4,268.6 556.3,268.4 557.1,268.2 557.9,268.0 558.7,267.8 559.6,267.6 560.4,267.4 561.2,267.2 562.1,267.0 562.9,266.7 563.7,266.5 564.5,271.6 565.4,271.4 566.2,271.2 567.0,271.0 567.8,270.8 568.7,270.6 569.5,270.4 570.3,270.2 571.1,270.0 572.0,269.8 572.8,269.6 573.6,269.3 574.5,269.1 575.3,268.9 576.1,268.7 576.9,268.4 577.8,268.2 578.6,268.0 579.4,267.8 580.2,267.5 581.1,272.1 581.9,271.8 582.7,271.6 583.5,271.4 584.4,271.2 585.2,271.0 586.0,270.8 586.9,270.6 587.7,270.4 588.5,270.2 589.3,269.9 590.2,269.7 591.0,269.5 591.8,269.3 592.6,269.0 593.5,268.8 594.3,268.5 595.1,268.3 595.9,268.0 596.8,267.8 597.6,272.2 598.4,272.0 599.3,271.8 600.1,271.5 600.9,271.4 601.7,271.1 602.6,270.9 603.4,270.7 604.2,270.5 605.0,270.3 605.9,270.0 606.7,269.8 607.5,269.6 608.3,269.3 609.2,269.1 610.0,268.8 610.8,268.6 611.7,268.4 612.5,268.1 613.3,267.9 614.1,272.2 615.0,272.0 615.8,271.8 616.6,271.6 617.4,271.4 618.3,271.2 619.1,271.0 619.9,270.7 620.7,270.5 621.6,270.3 622.4,270.1 623.2,269.8 624.1,269.6 624.9,269.4 625.7,269.1 626.5,268.9 627.4,268.7 628.2,268.4 629.0,268.2 629.8,267.9 630.7,272.3 631.5,272.1 632.3,271.9 633.1,271.6 634.0,271.5 634.8,271.3 635.6,271.0 636.5,270.8 637.3,270.6 638.1,270.4 638.9,270.2 639.8,269.9 640.6,269.7 641.4,269.5 642.2,269.3 643.1,269.0 643.9,268.8 644.7,268.6 645.5,268.4 646.4,268.1 647.2,272.4 648.0,272.2 648.9,272.0 649.7,271.8 650.5,271.6 651.3,271.4 652.2,271.2 653.0,271.0 653.8,270.8 654.6,270.6 655.5,270.4 656.3,270.1 657.1,269.9 657.9,269.7 658.8,269.5 659.6,269.3 660.4,269.1 661.3,268.9 662.1,268.6 662.9,268.4 663.7,272.5 664.6,272.3 665.4,272.1 666.2,271.9 667.0,271.8 667.9,271.6 668.7,271.4 669.5,271.2 670.3,271.0 671.2,270.8 672.0,270.6 672.8,270.4 673.7,270.2 674.5,270.0 675.3,269.8 676.1,269.6 677.0,269.4 677.8,269.2 678.6,268.9 679.4,268.7 680.3,272.7 681.1,272.5 681.9,272.3 682.7,272.2 683.6,272.0 684.4,271.8 685.2,271.6 686.1,271.4 686.9,271.3 687.7,271.1 688.5,270.9 689.4,270.7 690.2,270.5 691.0,270.3 691.8,270.1 692.7,269.9 693.5,269.7 694.3,269.5 695.1,269.3 696.0,269.1 696.8,272.9 697.6,272.7 698.5,272.6 699.3,272.4 700.1,272.2 700.9,272.1 701.8,271.9 702.6,271.7 703.4,271.5 704.2,271.3 705.1,271.2 705.9,271.0 706.7,270.8 707.5,270.6 708.4,270.4 709.2,270.2 710.0,270.1 710.9,269.9 711.7,269.7 712.5,269.5 713.3,273.1 714.2,273.0 715.0,272.8 715.8,272.6 716.6,272.5 717.5,272.3 718.3,272.1 719.1,271.9 719.9,271.8 720.8,271.6 721.6,271.4 722.4,271.3 723.3,271.1 724.1,270.9 724.9,270.7 725.7,270.5 726.6,270.4 727.4,270.2 728.2,270.0 729.0,269.8 729.9,273.3 730.7,273.2 731.5,273.0 732.3,272.8 733.2,272.7 734.0,272.5 734.8,272.4 735.7,272.2 736.5,272.1 737.3,271.9 738.1,271.7 739.0,271.5 739.8,271.4 740.6,271.2 741.4,271.0 742.3,270.8 743.1,270.7 743.9,270.5 744.7,270.3 745.6,270.1 746.4,273.5 747.2,273.4 748.1,273.2 748.9,273.0 749.7,272.9 750.5,272.8 751.4,272.6 752.2,272.4 753.0,272.3 753.8,272.1 754.7,271.9 755.5,271.8 756.3,271.6 757.1,271.5 758.0,271.3 758.8,271.1 759.6,271.0 760.5,270.8 761.3,270.6 762.1,270.4 762.9,273.7 763.8,273.6 764.6,273.4 765.4,273.2 766.2,273.1 767.1,273.0 767.9,272.8 768.7,272.6 769.5,272.5 770.4,272.3 771.2,272.2 772.0,272.0 772.9,271.9 773.7,271.7 774.5,271.5 775.3,271.3 776.2,271.2 777.0,271.0 777.8,270.9 778.6,270.7 779.5,273.9 780.3,273.7 781.1,273.6 781.9,273.4 782.8,273.3 783.6,273.1 784.4,273.0 785.3,272.8 786.1,272.7 786.9,272.5 787.7,272.4 788.6,272.2 789.4,272.1 790.2,271.9 791.0,271.7 791.9,271.6 792.7,271.4 793.5,271.3 794.3,271.1 795.2,270.9 796.0,274.0"/>
<text x="640" y="56" font-family="Arial" font-size="12" fill="#0f766e">dropout_robust covariance trace</text>
</svg>