<svg xmlns="http://www.w3.org/2000/svg" width="820" height="320" viewBox="0 0 820 320">
<rect width="100%" height="100%" fill="white"/>
<text x="52" y="30" font-family="Arial" font-size="18" font-weight="700">ekf_dropout_robust NEES proxy</text>
<line x1="52" y1="274" x2="796" y2="274" stroke="#263238"/>
<line x1="52" y1="42" x2="52" y2="274" stroke="#263238"/>
<text x="52" y="306" font-family="Arial" font-size="12">time (s)</text>
<text x="630" y="306" font-family="Arial" font-size="12">value</text>

<rect x="349.6" y="42" width="148.8" height="232" fill="#fef3c7" opacity="0.72"/>
<polyline fill="none" stroke="#0f766e" stroke-width="2.3" points="52.0,42.0 52.8,42.5 53.7,45.0 54.5,49.2 55.3,54.7 56.1,61.8 57.0,70.0 57.8,78.9 58.6,87.8 59.4,97.4 60.3,107.1 61.1,116.6 61.9,126.3 62.7,135.2 63.6,143.7 64.4,151.7 65.2,156.6 66.1,163.6 66.9,170.2 67.7,176.3 68.5,248.9 69.4,252.5 70.2,255.4 71.0,257.9 71.8,260.7 72.7,262.2 73.5,263.4 74.3,264.3 75.1,265.1 76.0,265.5 76.8,265.7 77.6,265.8 78.5,263.6 79.3,263.5 80.1,263.3 80.9,262.9 81.8,264.6 82.6,264.2 83.4,263.7 84.2,263.2 85.1,271.3 85.9,270.3 86.7,269.3 87.5,268.2 88.4,266.4 89.2,265.3 90.0,264.2 90.9,263.1 91.7,260.4 92.5,259.3 93.3,258.2 94.2,257.2 95.0,253.2 95.8,252.2 96.6,251.3 97.5,250.4 98.3,247.3 99.1,246.5 99.9,245.7 100.8,245.0 101.6,227.8 102.4,226.4 103.3,225.2 104.1,223.9 104.9,222.2 105.7,221.2 106.6,220.2 107.4,219.2 108.2,221.0 109.0,220.2 109.9,219.4 110.7,218.6 111.5,222.0 112.3,221.2 113.2,220.4 114.0,219.6 114.8,214.1 115.7,213.7 116.5,213.3 117.3,212.9 118.1,234.7 119.0,234.2 119.8,233.7 120.6,233.3 121.4,229.3 122.3,229.2 123.1,229.0 123.9,228.9 124.7,229.3 125.6,229.3 126.4,229.3 127.2,229.3 128.1,231.8 128.9,231.7 129.7,231.6 130.5,231.5 131.4,231.6 132.2,231.5 133.0,231.4 133.8,231.3 134.7,234.4 135.5,234.7 136.3,235.0 137.1,235.3 138.0,232.2 138.8,232.8 139.6,233.4 140.5,234.0 141.3,234.4 142.1,235.1 142.9,235.7 143.8,236.4 144.6,236.9 145.4,237.6 146.2,238.3 147.1,239.0 147.9,239.3 148.7,240.0 149.5,240.6 150.4,241.3 151.2,251.3 152.0,252.0 152.9,252.8 153.7,253.5 154.5,253.5 155.3,254.0 156.2,254.5 157.0,255.0 157.8,256.8 158.6,257.4 159.5,258.0 160.3,258.6 161.1,259.0 161.9,259.5 162.8,260.0 163.6,260.5 164.4,261.4 165.3,262.0 166.1,262.5 166.9,263.0 167.7,253.4 168.6,254.2 169.4,255.0 170.2,255.7 171.0,257.4 171.9,258.2 172.7,259.0 173.5,259.8 174.3,260.6 175.2,261.3 176.0,262.0 176.8,262.6 177.7,263.2 178.5,263.8 179.3,264.4 180.1,265.0 181.0,265.5 181.8,266.0 182.6,266.4 183.4,266.9 184.3,269.0 185.1,268.6 185.9,268.1 186.7,267.7 187.6,267.1 188.4,266.6 189.2,266.0 190.1,265.5 190.9,262.2 191.7,261.5 192.5,260.9 193.4,260.2 194.2,262.4 195.0,261.8 195.8,261.2 196.7,260.6 197.5,258.8 198.3,258.1 199.1,257.5 200.0,256.9 200.8,265.9 201.6,265.2 202.5,264.5 203.3,263.8 204.1,261.5 204.9,260.8 205.8,260.0 206.6,259.3 207.4,262.2 208.2,261.5 209.1,260.9 209.9,260.2 210.7,260.3 211.5,259.7 212.4,259.1 213.2,258.4 214.0,257.8 214.9,257.2 215.7,256.6 216.5,256.0 217.3,251.8 218.2,250.9 219.0,250.0 219.8,249.1 220.6,247.8 221.5,247.0 222.3,246.1 223.1,245.2 223.9,246.6 224.8,245.8 225.6,245.1 226.4,244.3 227.3,243.4 228.1,242.7 228.9,241.9 229.7,241.2 230.6,239.2 231.4,238.4 232.2,237.7 233.0,237.0 233.9,214.8 234.7,213.7 235.5,212.6 236.3,211.5 237.2,208.5 238.0,207.5 238.8,206.5 239.7,205.5 240.5,205.8 241.3,204.9 242.1,204.0 243.0,203.1 243.8,207.1 244.6,206.3 245.4,205.5 246.3,204.7 247.1,202.6 247.9,201.8 248.7,201.1 249.6,200.4 250.4,220.7 251.2,219.9 252.1,219.2 252.9,218.4 253.7,211.4 254.5,210.7 255.4,210.0 256.2,209.3 257.0,211.2 257.8,210.5 258.7,209.9 259.5,209.3 260.3,209.3 261.1,208.7 262.0,208.2 262.8,207.6 263.6,205.4 264.5,204.9 265.3,204.4 266.1,203.9 266.9,209.9 267.8,209.3 268.6,208.8 269.4,208.2 270.2,207.5 271.1,206.9 271.9,206.4 272.7,206.0 273.5,207.0 274.4,206.5 275.2,206.1 276.0,205.7 276.9,201.0 277.7,200.6 278.5,200.2 279.3,199.9 280.2,193.5 281.0,193.2 281.8,192.9 282.6,192.7 283.5,247.4 284.3,247.4 285.1,247.3 285.9,247.3 286.8,244.7 287.6,244.7 288.4,244.7 289.3,244.7 290.1,231.7 290.9,231.8 291.7,231.9 292.6,232.0 293.4,244.3 294.2,244.4 295.0,244.5 295.9,244.6 296.7,226.7 297.5,226.9 298.3,227.1 299.2,227.3 300.0,242.7 300.8,242.9 301.7,243.0 302.5,243.2 303.3,226.2 304.1,226.6 305.0,226.9 305.8,227.2 306.6,229.9 307.4,230.2 308.3,230.6 309.1,230.9 309.9,228.7 310.7,229.0 311.6,229.5 312.4,229.9 313.2,234.6 314.1,235.0 314.9,235.4 315.7,235.8 316.5,249.4 317.4,249.7 318.2,249.9 319.0,250.2 319.8,261.2 320.7,261.2 321.5,261.3 322.3,261.3 323.1,262.4 324.0,262.3 324.8,262.1 325.6,261.9 326.5,262.4 327.3,262.3 328.1,262.2 328.9,262.1 329.8,261.7 330.6,261.7 331.4,261.7 332.2,261.6 333.1,271.0 333.9,270.9 334.7,270.8 335.5,270.7 336.4,269.0 337.2,268.8 338.0,268.6 338.9,268.5 339.7,268.5 340.5,268.4 341.3,268.2 342.2,268.1 343.0,268.5 343.8,268.3 344.6,268.2 345.5,268.1 346.3,266.3 347.1,266.2 347.9,266.0 348.8,265.9 349.6,270.6 350.4,270.6 351.3,270.6 352.1,270.6 352.9,268.5 353.7,268.6 354.6,268.6 355.4,268.7 356.2,270.8 357.0,270.8 357.9,270.8 358.7,270.8 359.5,268.2 360.3,268.3 361.2,268.4 362.0,268.5 362.8,263.3 363.7,263.5 364.5,263.7 365.3,263.9 366.1,269.5 367.0,269.6 367.8,269.7 368.6,269.8 369.4,266.5 370.3,266.7 371.1,266.8 371.9,267.0 372.7,266.1 373.6,266.3 374.4,266.5 375.2,266.6 376.1,266.8 376.9,267.0 377.7,267.1 378.5,267.2 379.4,266.2 380.2,266.4 381.0,266.5 381.8,266.7 382.7,263.6 383.5,263.8 384.3,264.0 385.1,264.3 386.0,258.2 386.8,258.6 387.6,258.9 388.5,259.2 389.3,265.4 390.1,265.6 390.9,265.8 391.8,266.0 392.6,266.7 393.4,266.9 394.2,267.1 395.1,267.3 395.9,269.4 396.7,269.5 397.5,269.6 398.4,269.8 399.2,264.6 400.0,264.8 400.9,265.1 401.7,265.3 402.5,266.8 403.3,267.0 404.2,267.2 405.0,267.4 405.8,270.7 406.6,270.8 407.5,270.9 408.3,271.0 409.1,271.1 409.9,271.2 410.8,271.3 411.6,271.4 412.4,272.1 413.3,272.1 414.1,272.1 414.9,272.1 415.7,272.0 416.6,272.1 417.4,272.1 418.2,272.2 419.0,272.3 419.9,272.3 420.7,272.3 421.5,272.3 422.3,272.3 423.2,272.3 424.0,272.3 424.8,272.3 425.7,272.3 426.5,272.3 427.3,272.3 428.1,272.4 429.0,272.0 429.8,272.1 430.6,272.2 431.4,272.2 432.3,272.4 433.1,272.4 433.9,272.4 434.7,272.4 435.6,272.2 436.4,272.2 437.2,272.2 438.1,272.2 438.9,270.4 439.7,270.4 440.5,270.3 441.4,270.3 442.2,268.8 443.0,268.8 443.8,268.8 444.7,268.8 445.5,272.0 446.3,272.0 447.1,272.0 448.0,272.0 448.8,266.0 449.6,266.0 450.5,266.0 451.3,266.0 452.1,267.1 452.9,267.1 453.8,267.1 454.6,267.2 455.4,270.6 456.2,270.6 457.1,270.6 457.9,270.7 458.7,263.8 459.5,263.9 460.4,264.0 461.2,264.0 462.0,268.7 462.9,268.8 463.7,268.8 464.5,268.9 465.3,266.5 466.2,266.6 467.0,266.7 467.8,266.8 468.6,271.1 469.5,271.1 470.3,271.2 471.1,271.2 471.9,263.2 472.8,263.3 473.6,263.5 474.4,263.6 475.3,264.7 476.1,264.8 476.9,264.9 477.7,265.1 478.6,259.7 479.4,259.9 480.2,260.1 481.0,260.3 481.9,259.2 482.7,259.4 483.5,259.6 484.3,259.9 485.2,266.2 486.0,266.4 486.8,266.5 487.7,266.7 488.5,269.4 489.3,269.5 490.1,269.7 491.0,269.8 491.8,270.6 492.6,270.7 493.4,270.8 494.3,270.9 495.1,273.4 495.9,273.5 496.7,273.5 497.6,273.6 498.4,272.4 499.2,272.3 500.1,272.2 500.9,272.2 501.7,270.8 502.5,270.7 503.4,270.7 504.2,270.6 505.0,264.4 505.8,264.3 506.7,264.2 507.5,264.2 508.3,269.7 509.1,269.7 510.0,269.6 510.8,269.6 511.6,271.8 512.5,271.8 513.3,271.8 514.1,271.7 514.9,269.3 515.8,269.4 516.6,269.4 517.4,269.5 518.2,267.0 519.1,267.1 519.9,267.1 520.7,267.2 521.5,266.4 522.4,266.4 523.2,266.5 524.0,266.6 524.9,267.1 525.7,267.2 526.5,267.2 527.3,267.3 528.2,268.8 529.0,268.8 529.8,268.9 530.6,268.9 531.5,266.9 532.3,267.0 533.1,267.0 533.9,267.1 534.8,261.4 535.6,261.5 536.4,261.6 537.3,261.7 538.1,265.8 538.9,265.9 539.7,266.0 540.6,266.1 541.4,268.9 542.2,268.9 543.0,269.0 543.9,269.1 544.7,270.5 545.5,270.6 546.3,270.7 547.2,270.7 548.0,270.5 548.8,270.5 549.7,270.6 550.5,270.6 551.3,271.3 552.1,271.3 553.0,271.3 553.8,271.3 554.6,270.8 555.4,270.8 556.3,270.9 557.1,270.9 557.9,271.3 558.7,271.3 559.6,271.4 560.4,271.4 561.2,268.5 562.1,268.6 562.9,268.7 563.7,268.7 564.5,256.3 565.4,256.3 566.2,256.3 567.0,256.3 567.8,254.7 568.7,254.8 569.5,254.8 570.3,254.8 571.1,252.7 572.0,252.8 572.8,252.8 573.6,252.9 574.5,256.7 575.3,256.7 576.1,256.8 576.9,256.8 577.8,254.7 578.6,254.8 579.4,254.9 580.2,254.9 581.1,264.4 581.9,264.4 582.7,264.5 583.5,264.5 584.4,263.5 585.2,263.6 586.0,263.7 586.9,263.8 587.7,261.1 588.5,261.2 589.3,261.4 590.2,261.5 591.0,259.7 591.8,259.8 592.6,260.0 593.5,260.2 594.3,262.0 595.1,262.2 595.9,262.3 596.8,262.5 597.6,262.5 598.4,262.7 599.3,262.9 600.1,263.1 600.9,264.1 601.7,264.3 602.6,264.4 603.4,264.6 604.2,265.3 605.0,265.4 605.9,265.6 606.7,265.7 607.5,269.1 608.3,269.2 609.2,269.3 610.0,269.4 610.8,270.3 611.7,270.4 612.5,270.4 613.3,270.4 614.1,272.1 615.0,272.1 615.8,272.1 616.6,272.1 617.4,272.3 618.3,272.3 619.1,272.2 619.9,272.2 620.7,271.3 621.6,271.3 622.4,271.2 623.2,271.1 624.1,268.0 624.9,267.9 625.7,267.7 626.5,267.6 627.4,264.8 628.2,264.7 629.0,264.5 629.8,264.4 630.7,263.4 631.5,263.2 632.3,263.0 633.1,262.9 634.0,262.5 634.8,262.4 635.6,262.2 636.5,262.1 637.3,266.7 638.1,266.6 638.9,266.5 639.8,266.4 640.6,266.0 641.4,266.0 642.2,265.9 643.1,265.8 643.9,267.7 644.7,267.6 645.5,267.6 646.4,267.5 647.2,269.3 648.0,269.2 648.9,269.2 649.7,269.2 650.5,269.1 651.3,269.1 652.2,269.1 653.0,269.1 653.8,268.6 654.6,268.6 655.5,268.6 656.3,268.5 657.1,269.0 657.9,268.9 658.8,268.9 659.6,268.9 660.4,266.0 661.3,266.0 662.1,266.0 662.9,266.0 663.7,257.1 664.6,257.1 665.4,257.1 666.2,257.1 667.0,255.4 667.9,255.4 668.7,255.4 669.5,255.3 670.3,256.4 671.2,256.4 672.0,256.4 672.8,256.4 673.7,259.1 674.5,259.1 675.3,259.1 676.1,259.1 677.0,259.7 677.8,259.6 678.6,259.6 679.4,259.6 680.3,274.0 681.1,274.0 681.9,274.0 682.7,274.0 683.6,271.9 684.4,271.9 685.2,271.9 686.1,271.9 686.9,271.9 687.7,271.9 688.5,271.9 689.4,271.9 690.2,270.7 691.0,270.7 691.8,270.7 692.7,270.7 693.5,270.0 694.3,270.0 695.1,270.1 696.0,270.1 696.8,263.3 697.6,263.4 698.5,263.4 699.3,263.5 700.1,258.3 700.9,258.4 701.8,258.5 702.6,258.6 703.4,258.6 704.2,258.8 705.1,258.9 705.9,259.0 706.7,253.8 707.5,254.0 708.4,254.1 709.2,254.2 710.0,265.4 710.9,265.5 711.7,265.6 712.5,265.7 713.3,256.9 714.2,257.1 715.0,257.2 715.8,257.4 716.6,264.9 717.5,265.1 718.3,265.2 719.1,265.3 719.9,270.3 720.8,270.4 721.6,270.4 722.4,270.5 723.3,271.0 724.1,271.0 724.9,271.1 725.7,271.1 726.6,271.6 727.4,271.6 728.2,271.7 729.0,271.7 729.9,270.3 730.7,270.4 731.5,270.5 732.3,270.5 733.2,270.6 734.0,270.7 734.8,270.8 735.7,270.8 736.5,271.1 737.3,271.2 738.1,271.3 739.0,271.3 739.8,269.9 740.6,269.9 741.4,270.0 742.3,270.0 743.1,260.5 743.9,260.6 744.7,260.7 745.6,260.8 746.4,252.3 747.2,252.4 748.1,252.6 748.9,252.7 749.7,260.8 750.5,260.9 751.4,261.0 752.2,261.2 753.0,269.6 753.8,269.7 754.7,269.7 755.5,269.8 756.3,271.0 757.1,271.0 758.0,271.0 758.8,271.1 759.6,270.9 760.5,271.0 761.3,271.0 762.1,271.0 762.9,258.3 763.8,258.3 764.6,258.3 765.4,258.4 766.2,258.2 767.1,258.3 767.9,258.3 768.7,258.4 769.5,258.0 770.4,258.0 771.2,258.1 772.0,258.2 772.9,257.6 773.7,257.6 774.5,257.7 775.3,257.7 776.2,257.2 777.0,257.2 777.8,257.3 778.6,257.4 779.5,252.1 780.3,252.2 781.1,252.3 781.9,252.4 782.8,252.1 783.6,252.2 784.4,252.3 785.3,252.4 786.1,252.7 786.9,252.8 787.7,252.9 788.6,253.0 789.4,253.2 790.2,253.4 791.0,253.5 791.9,253.6 792.7,253.7 793.5,253.8 794.3,253.9 795.2,254.1 796.0,266.7"/>
<text x="640" y="56" font-family="Arial" font-size="12" fill="#0f766e">ekf_dropout_robust NEES proxy</text>
</svg>