<svg xmlns="http://www.w3.org/2000/svg" width="820" height="320" viewBox="0 0 820 320">
<rect width="100%" height="100%" fill="white"/>
<text x="52" y="30" font-family="Arial" font-size="18" font-weight="700">ekf_nominal NEES proxy</text>
<line x1="52" y1="274" x2="796" y2="274" stroke="#263238"/>
<line x1="52" y1="42" x2="52" y2="274" stroke="#263238"/>
<text x="52" y="306" font-family="Arial" font-size="12">time (s)</text>
<text x="630" y="306" font-family="Arial" font-size="12">value</text>

<rect x="349.6" y="42" width="148.8" height="232" fill="#fef3c7" opacity="0.72"/>
<polyline fill="none" stroke="#0f766e" stroke-width="2.3" points="52.0,42.0 52.8,43.0 53.7,46.8 54.5,53.0 55.3,61.1 56.1,70.9 57.0,81.8 57.8,93.3 58.6,104.5 59.4,116.1 60.3,127.3 61.1,138.0 61.9,148.7 62.7,158.0 63.6,166.7 64.4,174.8 65.2,178.6 66.1,185.3 66.9,191.4 67.7,197.0 68.5,255.4 69.4,258.0 70.2,259.9 71.0,261.3 71.8,263.0 72.7,263.5 73.5,263.6 74.3,263.5 75.1,263.4 76.0,262.9 76.8,262.2 77.6,261.4 78.5,258.2 79.3,257.4 80.1,256.5 80.9,255.6 81.8,257.0 82.6,256.1 83.4,255.1 84.2,254.2 85.1,272.2 85.9,271.0 86.7,269.8 87.5,268.5 88.4,266.6 89.2,265.4 90.0,264.1 90.9,262.9 91.7,259.8 92.5,258.7 93.3,257.5 94.2,256.4 95.0,251.8 95.8,250.8 96.6,249.8 97.5,248.9 98.3,245.5 99.1,244.7 99.9,244.0 100.8,243.3 101.6,227.6 102.4,226.4 103.3,225.3 104.1,224.2 104.9,222.8 105.7,221.9 106.6,221.1 107.4,220.4 108.2,223.1 109.0,222.4 109.9,221.8 110.7,221.2 111.5,225.3 112.3,224.6 113.2,223.9 114.0,223.2 114.8,217.3 115.7,217.1 116.5,216.9 117.3,216.7 118.1,237.9 119.0,237.7 119.8,237.5 120.6,237.3 121.4,233.0 122.3,233.1 123.1,233.3 123.9,233.5 124.7,234.2 125.6,234.5 126.4,234.7 127.2,235.0 128.1,238.0 128.9,238.1 129.7,238.2 130.5,238.3 131.4,238.4 132.2,238.4 133.0,238.5 133.8,238.6 134.7,241.2 135.5,241.7 136.3,242.1 137.1,242.5 138.0,239.1 138.8,239.9 139.6,240.7 140.5,241.5 141.3,242.0 142.1,242.8 142.9,243.6 143.8,244.5 144.6,245.1 145.4,245.9 146.2,246.7 147.1,247.5 147.9,247.7 148.7,248.5 149.5,249.3 150.4,250.0 151.2,258.7 152.0,259.6 152.9,260.4 153.7,261.2 154.5,261.1 155.3,261.7 156.2,262.2 157.0,262.7 157.8,264.7 158.6,265.3 159.5,265.9 160.3,266.5 161.1,266.8 161.9,267.2 162.8,267.7 163.6,268.1 164.4,269.1 165.3,269.5 166.1,269.9 166.9,270.3 167.7,261.1 168.6,261.8 169.4,262.6 170.2,263.3 171.0,265.0 171.9,265.8 172.7,266.5 173.5,267.2 174.3,267.9 175.2,268.5 176.0,269.1 176.8,269.7 177.7,270.2 178.5,270.7 179.3,271.1 180.1,271.6 181.0,271.9 181.8,272.3 182.6,272.6 183.4,272.9 184.3,267.8 185.1,267.2 185.9,266.6 186.7,265.9 187.6,265.1 188.4,264.4 189.2,263.6 190.1,262.9 190.9,258.8 191.7,257.9 192.5,257.0 193.4,256.2 194.2,258.6 195.0,257.8 195.8,257.1 196.7,256.3 197.5,254.0 198.3,253.2 199.1,252.4 200.0,251.6 200.8,263.2 201.6,262.3 202.5,261.5 203.3,260.6 204.1,257.8 204.9,256.9 205.8,256.0 206.6,255.1 207.4,258.6 208.2,257.8 209.1,257.0 209.9,256.2 210.7,256.4 211.5,255.6 212.4,254.9 213.2,254.1 214.0,253.3 214.9,252.6 215.7,251.9 216.5,251.2 217.3,248.9 218.2,247.9 219.0,246.9 219.8,245.8 220.6,244.3 221.5,243.3 222.3,242.4 223.1,241.4 223.9,243.4 224.8,242.5 225.6,241.6 226.4,240.8 227.3,239.8 228.1,239.0 228.9,238.2 229.7,237.4 230.6,234.7 231.4,233.9 232.2,233.1 233.0,232.3 233.9,212.4 234.7,211.1 235.5,209.9 236.3,208.7 237.2,205.4 238.0,204.2 238.8,203.1 239.7,202.0 240.5,202.4 241.3,201.4 242.1,200.4 243.0,199.4 243.8,204.2 244.6,203.3 245.4,202.4 246.3,201.6 247.1,199.1 247.9,198.3 248.7,197.5 249.6,196.7 250.4,220.0 251.2,219.1 252.1,218.3 252.9,217.5 253.7,208.9 254.5,208.1 255.4,207.3 256.2,206.5 257.0,208.9 257.8,208.2 258.7,207.5 259.5,206.8 260.3,206.9 261.1,206.3 262.0,205.7 262.8,205.1 263.6,202.3 264.5,201.8 265.3,201.2 266.1,200.7 266.9,208.1 267.8,207.5 268.6,206.9 269.4,206.2 270.2,205.4 271.1,204.8 271.9,204.3 272.7,203.7 273.5,205.2 274.4,204.7 275.2,204.2 276.0,203.7 276.9,197.8 277.7,197.4 278.5,196.9 279.3,196.5 280.2,188.8 281.0,188.4 281.8,188.1 282.6,187.7 283.5,242.3 284.3,242.1 285.1,242.0 285.9,241.9 286.8,238.8 287.6,238.7 288.4,238.7 289.3,238.6 290.1,223.2 290.9,223.2 291.7,223.2 292.6,223.3 293.4,237.5 294.2,237.5 295.0,237.5 295.9,237.5 296.7,216.4 297.5,216.5 298.3,216.6 299.2,216.7 300.0,234.6 300.8,234.7 301.7,234.8 302.5,234.9 303.3,214.6 304.1,214.8 305.0,215.0 305.8,215.3 306.6,218.2 307.4,218.4 308.3,218.7 309.1,219.0 309.9,216.1 310.7,216.4 311.6,216.7 312.4,217.0 313.2,222.6 314.1,222.9 314.9,223.2 315.7,223.5 316.5,240.2 317.4,240.4 318.2,240.7 319.0,240.9 319.8,257.2 320.7,257.2 321.5,257.3 322.3,257.4 323.1,262.9 324.0,262.8 324.8,262.7 325.6,262.6 326.5,261.0 327.3,261.0 328.1,260.9 328.9,260.9 329.8,259.8 330.6,259.8 331.4,259.8 332.2,259.8 333.1,271.9 333.9,271.8 334.7,271.8 335.5,271.8 336.4,271.6 337.2,271.5 338.0,271.4 338.9,271.3 339.7,271.2 340.5,271.1 341.3,271.0 342.2,270.9 343.0,271.0 343.8,270.9 344.6,270.8 345.5,270.7 346.3,269.5 347.1,269.4 347.9,269.3 348.8,269.1 349.6,271.0 350.4,271.0 351.3,271.0 352.1,271.0 352.9,266.7 353.7,266.8 354.6,266.9 355.4,267.0 356.2,270.3 357.0,270.4 357.9,270.4 358.7,270.4 359.5,266.3 360.3,266.5 361.2,266.6 362.0,266.6 362.8,260.7 363.7,260.8 364.5,261.0 365.3,261.1 366.1,267.7 367.0,267.8 367.8,267.8 368.6,267.9 369.4,264.0 370.3,264.1 371.1,264.3 371.9,264.4 372.7,263.4 373.6,263.5 374.4,263.6 375.2,263.8 376.1,263.9 376.9,264.0 377.7,264.2 378.5,264.3 379.4,263.0 380.2,263.2 381.0,263.3 381.8,263.5 382.7,260.0 383.5,260.2 384.3,260.4 385.1,260.6 386.0,254.1 386.8,254.4 387.6,254.6 388.5,254.9 389.3,261.1 390.1,261.3 390.9,261.5 391.8,261.6 392.6,262.4 393.4,262.6 394.2,262.8 395.1,262.9 395.9,265.4 396.7,265.6 397.5,265.7 398.4,265.8 399.2,259.8 400.0,260.0 400.9,260.2 401.7,260.4 402.5,261.9 403.3,262.1 404.2,262.3 405.0,262.5 405.8,266.7 406.6,266.8 407.5,266.9 408.3,267.1 409.1,267.3 409.9,267.4 410.8,267.5 411.6,267.6 412.4,269.6 413.3,269.6 414.1,269.6 414.9,269.7 415.7,268.8 416.6,268.9 417.4,269.0 418.2,269.0 419.0,269.5 419.9,269.5 420.7,269.6 421.5,269.6 422.3,269.8 423.2,269.8 424.0,269.8 424.8,269.8 425.7,269.2 426.5,269.2 427.3,269.3 428.1,269.3 429.0,268.8 429.8,268.9 430.6,268.9 431.4,269.0 432.3,269.8 433.1,269.8 433.9,269.8 434.7,269.7 435.6,269.6 436.4,269.6 437.2,269.6 438.1,269.6 438.9,268.3 439.7,268.2 440.5,268.2 441.4,268.1 442.2,266.7 443.0,266.6 443.8,266.6 444.7,266.5 445.5,268.9 446.3,268.8 447.1,268.8 448.0,268.8 448.8,263.5 449.6,263.4 450.5,263.3 451.3,263.2 452.1,263.7 452.9,263.6 453.8,263.5 454.6,263.4 455.4,266.4 456.2,266.3 457.1,266.3 457.9,266.2 458.7,259.3 459.5,259.2 460.4,259.1 461.2,259.0 462.0,263.3 462.9,263.2 463.7,263.2 464.5,263.1 465.3,260.4 466.2,260.3 467.0,260.2 467.8,260.2 468.6,264.9 469.5,264.8 470.3,264.8 471.1,264.7 471.9,255.6 472.8,255.5 473.6,255.5 474.4,255.4 475.3,256.2 476.1,256.1 476.9,256.0 477.7,256.0 478.6,249.8 479.4,249.7 480.2,249.6 481.0,249.6 481.9,247.9 482.7,247.8 483.5,247.8 484.3,247.8 485.2,254.8 486.0,254.8 486.8,254.8 487.7,254.8 488.5,258.4 489.3,258.4 490.1,258.4 491.0,258.4 491.8,259.7 492.6,259.7 493.4,259.8 494.3,259.8 495.1,265.1 495.9,265.1 496.7,265.2 497.6,265.2 498.4,269.4 499.2,269.4 500.1,269.4 500.9,269.4 501.7,269.7 502.5,269.7 503.4,269.7 504.2,269.6 505.0,268.1 505.8,268.1 506.7,268.1 507.5,268.1 508.3,269.4 509.1,269.4 510.0,269.4 510.8,269.4 511.6,269.6 512.5,269.6 513.3,269.6 514.1,269.5 514.9,270.8 515.8,270.9 516.6,270.9 517.4,270.9 518.2,272.8 519.1,272.8 519.9,272.9 520.7,272.9 521.5,272.7 522.4,272.7 523.2,272.8 524.0,272.8 524.9,272.9 525.7,273.0 526.5,273.0 527.3,273.0 528.2,273.3 529.0,273.3 529.8,273.4 530.6,273.4 531.5,272.5 532.3,272.5 533.1,272.6 533.9,272.6 534.8,269.4 535.6,269.4 536.4,269.5 537.3,269.5 538.1,271.6 538.9,271.6 539.7,271.7 540.6,271.8 541.4,273.0 542.2,273.0 543.0,273.0 543.9,273.1 544.7,273.6 545.5,273.6 546.3,273.6 547.2,273.6 548.0,272.9 548.8,272.9 549.7,272.9 550.5,272.9 551.3,272.8 552.1,272.8 553.0,272.7 553.8,272.7 554.6,272.9 555.4,272.9 556.3,272.9 557.1,272.9 557.9,273.0 558.7,273.0 559.6,273.0 560.4,273.0 561.2,271.4 562.1,271.4 562.9,271.5 563.7,271.5 564.5,259.8 565.4,259.8 566.2,259.7 567.0,259.7 567.8,258.5 568.7,258.5 569.5,258.4 570.3,258.4 571.1,256.6 572.0,256.6 572.8,256.6 573.6,256.5 574.5,259.2 575.3,259.2 576.1,259.2 576.9,259.1 577.8,257.4 578.6,257.4 579.4,257.4 580.2,257.3 581.1,265.0 581.9,265.0 582.7,265.0 583.5,265.0 584.4,263.9 585.2,263.9 586.0,263.9 586.9,264.0 587.7,261.3 588.5,261.4 589.3,261.4 590.2,261.5 591.0,259.5 591.8,259.6 592.6,259.7 593.5,259.8 594.3,261.2 595.1,261.3 595.9,261.4 596.8,261.5 597.6,261.1 598.4,261.2 599.3,261.3 600.1,261.4 600.9,262.2 601.7,262.3 602.6,262.5 603.4,262.6 604.2,263.1 605.0,263.2 605.9,263.3 606.7,263.4 607.5,267.0 608.3,267.1 609.2,267.1 610.0,267.1 610.8,268.3 611.7,268.3 612.5,268.3 613.3,268.3 614.1,270.5 615.0,270.5 615.8,270.5 616.6,270.5 617.4,271.1 618.3,271.1 619.1,271.1 619.9,271.0 620.7,270.8 621.6,270.8 622.4,270.7 623.2,270.6 624.1,268.4 624.9,268.3 625.7,268.1 626.5,268.0 627.4,265.6 628.2,265.4 629.0,265.3 629.8,265.1 630.7,265.9 631.5,265.7 632.3,265.6 633.1,265.4 634.0,264.8 634.8,264.6 635.6,264.4 636.5,264.3 637.3,268.0 638.1,267.9 638.9,267.8 639.8,267.6 640.6,267.2 641.4,267.1 642.2,266.9 643.1,266.8 643.9,268.5 644.7,268.4 645.5,268.3 646.4,268.2 647.2,268.9 648.0,268.8 648.9,268.8 649.7,268.7 650.5,268.5 651.3,268.5 652.2,268.4 653.0,268.3 653.8,267.7 654.6,267.6 655.5,267.5 656.3,267.5 657.1,268.1 657.9,268.0 658.8,268.0 659.6,267.9 660.4,266.1 661.3,266.1 662.1,266.1 662.9,266.1 663.7,263.4 664.6,263.4 665.4,263.4 666.2,263.4 667.0,261.9 667.9,261.9 668.7,261.9 669.5,261.9 670.3,262.6 671.2,262.6 672.0,262.6 672.8,262.6 673.7,264.6 674.5,264.6 675.3,264.5 676.1,264.5 677.0,264.7 677.8,264.7 678.6,264.6 679.4,264.6 680.3,274.0 681.1,274.0 681.9,274.0 682.7,274.0 683.6,272.2 684.4,272.2 685.2,272.2 686.1,272.2 686.9,272.1 687.7,272.1 688.5,272.1 689.4,272.1 690.2,270.9 691.0,270.9 691.8,270.9 692.7,271.0 693.5,270.2 694.3,270.2 695.1,270.2 696.0,270.2 696.8,262.6 697.6,262.6 698.5,262.6 699.3,262.7 700.1,257.7 700.9,257.7 701.8,257.8 702.6,257.8 703.4,257.4 704.2,257.4 705.1,257.5 705.9,257.5 706.7,252.2 707.5,252.3 708.4,252.3 709.2,252.4 710.0,262.6 710.9,262.6 711.7,262.7 712.5,262.7 713.3,253.2 714.2,253.3 715.0,253.4 715.8,253.5 716.6,260.6 717.5,260.7 718.3,260.8 719.1,260.9 719.9,266.1 720.8,266.2 721.6,266.2 722.4,266.3 723.3,266.8 724.1,266.8 724.9,266.8 725.7,266.9 726.6,267.4 727.4,267.5 728.2,267.5 729.0,267.5 729.9,266.6 730.7,266.6 731.5,266.7 732.3,266.7 733.2,266.8 734.0,266.8 734.8,266.9 735.7,266.9 736.5,267.3 737.3,267.3 738.1,267.4 739.0,267.4 739.8,265.5 740.6,265.5 741.4,265.6 742.3,265.6 743.1,255.0 743.9,255.0 744.7,255.0 745.6,255.0 746.4,246.9 747.2,247.0 748.1,247.0 748.9,247.0 749.7,255.1 750.5,255.1 751.4,255.1 752.2,255.1 753.0,264.8 753.8,264.8 754.7,264.9 755.5,264.9 756.3,267.0 757.1,267.0 758.0,267.0 758.8,267.0 759.6,266.6 760.5,266.6 761.3,266.6 762.1,266.6 762.9,258.8 763.8,258.8 764.6,258.8 765.4,258.8 766.2,257.7 767.1,257.7 767.9,257.7 768.7,257.8 769.5,257.0 770.4,257.0 771.2,257.0 772.0,257.0 772.9,256.0 773.7,256.0 774.5,256.0 775.3,256.0 776.2,255.1 777.0,255.1 777.8,255.1 778.6,255.1 779.5,250.2 780.3,250.2 781.1,250.3 781.9,250.3 782.8,250.9 783.6,251.0 784.4,251.0 785.3,251.1 786.1,251.1 786.9,251.1 787.7,251.2 788.6,251.2 789.4,250.3 790.2,250.3 791.0,250.4 791.9,250.4 792.7,251.2 793.5,251.3 794.3,251.4 795.2,251.4 796.0,262.8"/>
<text x="640" y="56" font-family="Arial" font-size="12" fill="#0f766e">ekf_nominal NEES proxy</text>
</svg>