<svg xmlns="http://www.w3.org/2000/svg" width="820" height="320" viewBox="0 0 820 320">
<rect width="100%" height="100%" fill="white"/>
<text x="52" y="30" font-family="Arial" font-size="18" font-weight="700">ekf_nominal NIS</text>
<line x1="52" y1="274" x2="796" y2="274" stroke="#263238"/>
<line x1="52" y1="42" x2="52" y2="274" stroke="#263238"/>
<text x="52" y="306" font-family="Arial" font-size="12">time (s)</text>
<text x="630" y="306" font-family="Arial" font-size="12">value</text>

<polyline fill="none" stroke="#0f766e" stroke-width="2.3" points="52.0,163.2 52.0,272.6 55.3,273.2 58.6,274.0 61.9,272.3 65.2,260.7 68.5,70.0 68.5,266.3 71.8,271.3 75.1,273.0 78.5,272.6 81.8,264.6 85.1,191.0 85.1,259.0 88.4,228.5 91.7,273.3 95.0,272.4 98.3,274.0 101.6,248.6 101.6,265.5 104.9,271.1 108.2,264.2 111.5,252.2 114.8,257.4 118.1,200.7 118.1,273.2 121.4,270.7 124.7,271.9 128.1,257.7 131.4,272.3 134.7,185.0 134.7,262.5 138.0,239.3 141.3,273.8 144.6,273.7 147.9,274.0 151.2,228.1 151.2,272.9 154.5,258.2 157.8,251.7 161.1,272.7 164.4,265.0 167.7,266.6 167.7,271.6 171.0,241.3 174.3,274.0 177.7,273.7 181.0,272.9 184.3,217.9 184.3,270.0 187.6,272.7 190.9,254.0 194.2,252.9 197.5,272.2 200.8,232.7 200.8,270.2 204.1,272.5 207.4,238.9 210.7,264.5 214.0,274.0 217.3,253.8 217.3,269.6 220.6,274.0 223.9,217.5 227.3,272.2 230.6,230.8 233.9,227.7 233.9,269.9 237.2,273.6 240.5,269.9 243.8,236.1 247.1,272.5 250.4,189.8 250.4,257.9 253.7,213.8 257.0,262.5 260.3,271.8 263.6,272.8 266.9,208.0 266.9,273.9 270.2,273.5 273.5,267.3 276.9,261.1 280.2,262.8 283.5,42.0 283.5,273.1 286.8,274.0 290.1,254.2 293.4,216.6 296.7,231.0 300.0,261.2 300.0,220.3 303.3,240.7 306.6,264.8 309.9,273.1 313.2,258.7 316.5,252.0 316.5,225.0 319.8,136.2 323.1,176.3 326.5,252.3 329.8,271.2 333.1,198.8 333.1,263.2 336.4,257.5 339.7,274.0 343.0,273.6 346.3,269.2 349.6,189.0 352.9,201.2 356.2,234.7 359.5,229.1 362.8,249.2 366.1,221.2 369.4,257.3 372.7,273.9 376.1,273.4 379.4,273.7 382.7,269.1 386.0,261.3 389.3,246.1 392.6,272.2 395.9,264.3 399.2,248.4 402.5,270.0 405.8,248.8 409.1,273.6 412.4,252.0 415.7,266.3 419.0,271.6 422.3,272.8 425.7,262.8 429.0,272.3 432.3,252.1 435.6,273.3 438.9,262.3 442.2,271.2 445.5,249.9 448.8,226.5 452.1,272.2 455.4,256.5 458.7,239.1 462.0,253.1 465.3,271.7 468.6,246.6 471.9,229.1 475.3,271.3 478.6,267.5 481.9,273.8 485.2,245.7 488.5,261.7 491.8,270.4 495.1,240.6 498.4,207.1 501.7,266.5 505.0,235.5 508.3,254.8 511.6,268.7 514.9,242.4 514.9,238.8 518.2,200.8 521.5,271.6 524.9,273.9 528.2,270.3 531.5,263.2 531.5,262.1 534.8,244.3 538.1,261.6 541.4,264.3 544.7,268.5 548.0,268.6 548.0,273.7 551.3,261.9 554.6,258.2 557.9,272.5 561.2,231.5 564.5,242.6 564.5,263.2 567.8,265.9 571.1,267.0 574.5,232.6 577.8,255.9 581.1,213.9 581.1,259.5 584.4,273.0 587.7,268.5 591.0,272.6 594.3,269.5 597.6,207.6 597.6,243.3 600.9,272.0 604.2,272.6 607.5,251.9 610.8,268.9 614.1,265.4 614.1,272.9 617.4,267.1 620.7,258.4 624.1,251.6 627.4,268.2 630.7,244.0 630.7,273.8 634.0,274.0 637.3,240.5 640.6,274.0 643.9,259.8 647.2,269.6 647.2,251.0 650.5,273.6 653.8,268.9 657.1,263.0 660.4,200.3 663.7,224.8 663.7,273.2 667.0,270.6 670.3,271.6 673.7,246.5 677.0,257.8 680.3,195.3 680.3,248.7 683.6,259.3 686.9,274.0 690.2,271.9 693.5,273.7 696.8,256.7 696.8,267.1 700.1,264.0 703.4,273.6 706.7,268.2 710.0,202.3 713.3,270.2 713.3,252.8 716.6,231.3 719.9,224.3 723.3,272.3 726.6,271.4 729.9,268.6 729.9,267.5 733.2,273.7 736.5,272.8 739.8,265.8 743.1,188.6 746.4,225.8 746.4,273.6 749.7,233.6 753.0,162.6 756.3,248.9 759.6,272.7 762.9,183.7 762.9,271.6 766.2,265.4 769.5,272.6 772.9,272.8 776.2,273.6 779.5,247.9 779.5,238.7 782.8,263.2 786.1,273.6 789.4,260.0 792.7,266.9 796.0,230.2 796.0,274.0"/>
<text x="640" y="56" font-family="Arial" font-size="12" fill="#0f766e">ekf_nominal NIS</text>
</svg>