<svg xmlns="http://www.w3.org/2000/svg" width="820" height="320" viewBox="0 0 820 320">
<rect width="100%" height="100%" fill="white"/>
<text x="52" y="30" font-family="Arial" font-size="18" font-weight="700">ekf_dropout_robust NIS</text>
<line x1="52" y1="274" x2="796" y2="274" stroke="#263238"/>
<line x1="52" y1="42" x2="52" y2="274" stroke="#263238"/>
<text x="52" y="306" font-family="Arial" font-size="12">time (s)</text>
<text x="630" y="306" font-family="Arial" font-size="12">value</text>

<polyline fill="none" stroke="#0f766e" stroke-width="2.3" points="52.0,107.7 52.0,272.1 55.3,273.4 58.6,274.0 61.9,272.7 65.2,262.2 68.5,42.0 68.5,267.9 71.8,271.7 75.1,273.1 78.5,272.9 81.8,266.0 85.1,211.6 85.1,261.1 88.4,236.9 91.7,273.3 95.0,272.5 98.3,274.0 101.6,255.0 101.6,266.0 104.9,272.2 108.2,266.4 111.5,255.3 114.8,261.0 118.1,200.3 118.1,273.3 121.4,271.4 124.7,272.2 128.1,259.8 131.4,272.2 134.7,179.1 134.7,265.1 138.0,245.7 141.3,273.8 144.6,273.8 147.9,274.0 151.2,223.8 151.2,273.1 154.5,260.9 157.8,255.7 161.1,272.9 164.4,266.7 167.7,266.2 167.7,272.1 171.0,246.7 174.3,274.0 177.7,273.8 181.0,273.1 184.3,194.8 184.3,270.7 187.6,272.9 190.9,257.3 194.2,256.7 197.5,272.4 200.8,240.7 200.8,270.9 204.1,272.7 207.4,245.4 210.7,266.4 214.0,274.0 217.3,259.3 217.3,270.2 220.6,274.0 223.9,227.9 227.3,272.7 230.6,237.5 233.9,231.0 233.9,270.8 237.2,273.7 240.5,270.4 243.8,242.4 247.1,272.7 250.4,197.2 250.4,261.2 253.7,223.3 257.0,264.7 260.3,272.4 263.6,272.9 266.9,212.2 266.9,273.8 270.2,273.7 273.5,269.1 276.9,262.6 280.2,264.3 283.5,45.3 283.5,273.3 286.8,274.0 290.1,258.0 293.4,226.2 296.7,238.7 300.0,262.8 300.0,229.5 303.3,246.4 306.6,266.3 309.9,273.2 313.2,261.7 316.5,252.9 316.5,236.1 319.8,167.9 323.1,203.2 326.5,250.5 329.8,269.8 333.1,201.7 333.1,268.3 336.4,264.7 339.7,273.4 343.0,272.5 346.3,272.1 349.6,195.0 352.9,209.7 356.2,243.9 359.5,234.8 362.8,253.9 366.1,230.1 369.4,260.0 372.7,274.0 376.1,273.4 379.4,273.8 382.7,270.5 386.0,265.2 389.3,248.8 392.6,272.3 395.9,266.1 399.2,253.1 402.5,270.4 405.8,253.8 409.1,273.8 412.4,258.4 415.7,265.8 419.0,272.7 422.3,273.5 425.7,263.3 429.0,272.4 432.3,257.2 435.6,273.8 438.9,266.5 442.2,272.9 445.5,251.0 448.8,239.2 452.1,271.1 455.4,257.3 458.7,248.3 462.0,254.1 465.3,272.6 468.6,250.8 471.9,237.9 475.3,271.1 478.6,269.6 481.9,273.6 485.2,250.1 488.5,265.2 491.8,272.2 495.1,252.2 498.4,232.2 501.7,272.4 505.0,256.1 508.3,245.4 511.6,263.7 514.9,262.2 514.9,235.9 518.2,225.0 521.5,273.8 524.9,272.6 528.2,267.4 531.5,262.0 531.5,268.6 534.8,257.9 538.1,257.0 541.4,261.4 544.7,266.7 548.0,266.9 548.0,274.0 551.3,261.8 554.6,263.0 557.9,271.9 561.2,243.4 564.5,243.7 564.5,262.4 567.8,269.1 571.1,270.2 574.5,235.7 577.8,261.0 581.1,208.0 581.1,263.8 584.4,273.7 587.7,270.9 591.0,273.6 594.3,268.8 597.6,205.3 597.6,250.9 600.9,271.5 604.2,272.3 607.5,254.8 610.8,269.9 614.1,267.0 614.1,273.3 617.4,269.2 620.7,263.2 624.1,259.1 627.4,271.3 630.7,249.3 630.7,273.2 634.0,273.6 637.3,242.4 640.6,274.0 643.9,261.0 647.2,265.9 647.2,255.1 650.5,273.5 653.8,269.6 657.1,265.3 660.4,217.0 663.7,240.4 663.7,273.8 667.0,272.4 670.3,270.7 673.7,248.3 677.0,259.5 680.3,178.7 680.3,254.6 683.6,263.8 686.9,273.7 690.2,273.1 693.5,274.0 696.8,252.6 696.8,270.3 700.1,268.5 703.4,272.7 706.7,271.4 710.0,207.7 713.3,268.0 713.3,259.4 716.6,234.9 719.9,231.7 723.3,272.7 726.6,272.1 729.9,270.6 729.9,268.2 733.2,273.8 736.5,273.1 739.8,266.8 743.1,205.1 746.4,225.5 746.4,274.0 749.7,237.3 753.0,181.4 756.3,255.1 759.6,272.3 762.9,192.3 762.9,272.9 766.2,265.0 769.5,272.2 772.9,272.5 776.2,273.4 779.5,241.9 779.5,248.3 782.8,267.6 786.1,272.9 789.4,259.6 792.7,269.7 796.0,227.1 796.0,273.8"/>
<text x="640" y="56" font-family="Arial" font-size="12" fill="#0f766e">ekf_dropout_robust NIS</text>
</svg>