<svg xmlns="http://www.w3.org/2000/svg" width="820" height="320" viewBox="0 0 820 320">
<rect width="100%" height="100%" fill="white"/>
<text x="52" y="30" font-family="Arial" font-size="18" font-weight="700">nominal covariance trace</text>
<line x1="52" y1="274" x2="796" y2="274" stroke="#263238"/>
<line x1="52" y1="42" x2="52" y2="274" stroke="#263238"/>
<text x="52" y="306" font-family="Arial" font-size="12">time (s)</text>
<text x="630" y="306" font-family="Arial" font-size="12">sqrt trace P</text>

<polyline fill="none" stroke="#0f766e" stroke-width="2.3" points="52.0,243.8 52.8,243.6 53.7,242.8 54.5,241.5 55.3,241.5 56.1,239.7 57.0,237.5 57.8,234.9 58.6,233.7 59.4,231.0 60.3,227.9 61.1,224.7 61.9,222.5 62.7,219.1 63.6,215.6 64.4,212.0 65.2,208.9 66.1,205.2 66.9,201.3 67.7,197.4 68.5,248.5 69.4,246.4 70.2,244.1 71.0,241.8 71.8,239.9 72.7,237.5 73.5,235.0 74.3,232.4 75.1,230.1 76.0,227.4 76.8,224.7 77.6,221.9 78.5,219.3 79.3,216.5 80.1,213.6 80.9,210.7 81.8,208.0 82.6,205.0 83.4,202.1 84.2,199.1 85.1,249.1 85.9,247.5 86.7,245.8 87.5,244.2 88.4,242.7 89.2,241.0 90.0,239.2 90.9,237.5 91.7,235.8 92.5,234.0 93.3,232.2 94.2,230.3 95.0,228.6 95.8,226.7 96.6,224.7 97.5,222.8 98.3,221.0 99.1,219.0 99.9,217.0 100.8,214.9 101.6,251.8 102.4,250.6 103.3,249.3 104.1,248.0 104.9,247.0 105.7,245.6 106.6,244.3 107.4,242.9 108.2,241.8 109.0,240.4 109.9,238.9 110.7,237.5 111.5,236.2 112.3,234.7 113.2,233.2 114.0,231.7 114.8,230.3 115.7,228.7 116.5,227.1 117.3,225.5 118.1,254.1 119.0,253.1 119.8,252.0 120.6,250.9 121.4,250.0 122.3,248.8 123.1,247.6 123.9,246.4 124.7,245.4 125.6,244.1 126.4,242.8 127.2,241.5 128.1,240.4 128.9,239.0 129.7,237.7 130.5,236.2 131.4,235.0 132.2,233.5 133.0,232.1 133.8,230.6 134.7,255.5 135.5,254.5 136.3,253.4 137.1,252.3 138.0,251.4 138.8,250.3 139.6,249.1 140.5,247.9 141.3,246.9 142.1,245.6 142.9,244.4 143.8,243.1 144.6,241.9 145.4,240.6 146.2,239.2 147.1,237.8 147.9,236.5 148.7,235.1 149.5,233.6 150.4,232.1 151.2,256.0 152.0,254.9 152.9,253.9 153.7,252.8 154.5,251.8 155.3,250.7 156.2,249.5 157.0,248.3 157.8,247.2 158.6,246.0 159.5,244.7 160.3,243.4 161.1,242.2 161.9,240.9 162.8,239.5 163.6,238.1 164.4,236.8 165.3,235.4 166.1,233.9 166.9,232.4 167.7,256.1 168.6,255.1 169.4,254.0 170.2,252.9 171.0,252.0 171.9,250.8 172.7,249.7 173.5,248.5 174.3,247.4 175.2,246.2 176.0,245.0 176.8,243.7 177.7,242.5 178.5,241.2 179.3,239.9 180.1,238.6 181.0,237.3 181.8,235.9 182.6,234.5 183.4,233.1 184.3,256.3 185.1,255.3 185.9,254.3 186.7,253.3 187.6,252.4 188.4,251.3 189.2,250.2 190.1,249.1 190.9,248.1 191.7,246.9 192.5,245.8 193.4,244.6 194.2,243.4 195.0,242.2 195.8,241.0 196.7,239.7 197.5,238.5 198.3,237.2 199.1,235.9 200.0,234.6 200.8,256.8 201.6,255.9 202.5,255.0 203.3,254.0 204.1,253.1 204.9,252.1 205.8,251.1 206.6,250.1 207.4,249.1 208.2,248.1 209.1,247.0 209.9,245.9 210.7,244.9 211.5,243.8 212.4,242.7 213.2,241.5 214.0,240.4 214.9,239.2 215.7,238.0 216.5,236.8 217.3,257.6 218.2,256.7 219.0,255.9 219.8,255.0 220.6,254.2 221.5,253.3 222.3,252.3 223.1,251.4 223.9,250.5 224.8,249.6 225.6,248.6 226.4,247.6 227.3,246.7 228.1,245.7 228.9,244.6 229.7,243.6 230.6,242.6 231.4,241.5 232.2,240.5 233.0,239.4 233.9,258.5 234.7,257.7 235.5,256.9 236.3,256.1 237.2,255.3 238.0,254.5 238.8,253.7 239.7,252.9 240.5,252.0 241.3,251.2 242.1,250.3 243.0,249.4 243.8,248.6 244.6,247.7 245.4,246.7 246.3,245.8 247.1,244.9 247.9,244.0 248.7,243.0 249.6,242.0 250.4,259.4 251.2,258.7 252.1,258.0 252.9,257.3 253.7,256.6 254.5,255.8 255.4,255.1 256.2,254.3 257.0,253.6 257.8,252.8 258.7,252.0 259.5,251.2 260.3,250.4 261.1,249.6 262.0,248.8 262.8,247.9 263.6,247.1 264.5,246.3 265.3,245.4 266.1,244.6 266.9,260.4 267.8,259.8 268.6,259.1 269.4,258.4 270.2,257.8 271.1,257.1 271.9,256.4 272.7,255.8 273.5,255.1 274.4,254.4 275.2,253.7 276.0,252.9 276.9,252.2 277.7,251.5 278.5,250.7 279.3,250.0 280.2,249.3 281.0,248.5 281.8,247.7 282.6,246.9 283.5,261.4 284.3,260.8 285.1,260.2 285.9,259.6 286.8,259.0 287.6,258.4 288.4,257.8 289.3,257.1 290.1,256.5 290.9,255.9 291.7,255.2 292.6,254.5 293.4,253.9 294.2,253.2 295.0,252.6 295.9,251.9 296.7,251.2 297.5,250.5 298.3,249.8 299.2,249.1 300.0,262.3 300.8,261.8 301.7,261.2 302.5,260.7 303.3,260.1 304.1,259.6 305.0,259.0 305.8,258.4 306.6,257.9 307.4,257.3 308.3,256.7 309.1,256.1 309.9,255.5 310.7,254.9 311.6,254.2 312.4,253.6 313.2,253.0 314.1,252.4 314.9,251.7 315.7,251.1 316.5,263.2 317.4,262.7 318.2,262.2 319.0,261.7 319.8,261.2 320.7,260.7 321.5,260.1 322.3,259.6 323.1,259.1 324.0,258.6 324.8,258.0 325.6,257.4 326.5,256.9 327.3,256.4 328.1,255.8 328.9,255.2 329.8,254.7 330.6,254.1 331.4,253.5 332.2,252.9 333.1,264.1 333.9,263.6 334.7,263.1 335.5,262.7 336.4,262.2 337.2,261.7 338.0,261.2 338.9,260.7 339.7,260.3 340.5,259.8 341.3,259.3 342.2,258.7 343.0,258.3 343.8,257.7 344.6,257.2 345.5,256.7 346.3,256.2 347.1,255.6 347.9,255.1 348.8,254.5 349.6,254.0 350.4,253.4 351.3,252.8 352.1,252.2 352.9,251.6 353.7,251.0 354.6,250.4 355.4,249.8 356.2,249.2 357.0,248.5 357.9,247.9 358.7,247.2 359.5,246.6 360.3,246.0 361.2,245.3 362.0,244.7 362.8,244.0 363.7,243.3 364.5,242.7 365.3,242.0 366.1,241.3 367.0,240.6 367.8,239.9 368.6,239.2 369.4,238.6 370.3,237.8 371.1,237.1 371.9,236.4 372.7,235.7 373.6,235.0 374.4,234.3 375.2,233.5 376.1,232.8 376.9,232.0 377.7,231.3 378.5,230.5 379.4,229.8 380.2,229.0 381.0,228.3 381.8,227.5 382.7,226.7 383.5,225.9 384.3,225.1 385.1,224.4 386.0,223.6 386.8,222.8 387.6,222.0 388.5,221.1 389.3,220.3 390.1,219.5 390.9,218.7 391.8,217.9 392.6,217.0 393.4,216.2 394.2,215.3 395.1,214.5 395.9,213.6 396.7,212.8 397.5,211.9 398.4,211.0 399.2,210.2 400.0,209.3 400.9,208.4 401.7,207.5 402.5,206.6 403.3,205.7 404.2,204.8 405.0,203.9 405.8,203.0 406.6,202.1 407.5,201.2 408.3,200.3 409.1,199.3 409.9,198.4 410.8,197.4 411.6,196.5 412.4,195.6 413.3,194.6 414.1,193.6 414.9,192.7 415.7,191.7 416.6,190.7 417.4,189.7 418.2,188.7 419.0,187.8 419.9,186.8 420.7,185.8 421.5,184.7 422.3,183.7 423.2,182.7 424.0,181.7 424.8,180.7 425.7,179.6 426.5,178.6 427.3,177.6 428.1,176.5 429.0,175.5 429.8,174.4 430.6,173.3 431.4,172.3 432.3,171.2 433.1,170.1 433.9,169.0 434.7,167.9 435.6,166.9 436.4,165.8 437.2,164.7 438.1,163.5 438.9,162.4 439.7,161.3 440.5,160.2 441.4,159.1 442.2,157.9 443.0,156.8 443.8,155.6 444.7,154.5 445.5,153.3 446.3,152.2 447.1,151.0 448.0,149.8 448.8,148.7 449.6,147.5 450.5,146.3 451.3,145.1 452.1,143.9 452.9,142.7 453.8,141.5 454.6,140.3 455.4,139.0 456.2,137.8 457.1,136.6 457.9,135.4 458.7,134.1 459.5,132.9 460.4,131.6 461.2,130.4 462.0,129.1 462.9,127.8 463.7,126.6 464.5,125.3 465.3,124.0 466.2,122.7 467.0,121.4 467.8,120.1 468.6,118.8 469.5,117.5 470.3,116.2 471.1,114.8 471.9,113.5 472.8,112.2 473.6,110.8 474.4,109.5 475.3,108.2 476.1,106.8 476.9,105.4 477.7,104.1 478.6,102.7 479.4,101.3 480.2,99.9 481.0,98.5 481.9,97.1 482.7,95.7 483.5,94.3 484.3,92.9 485.2,91.5 486.0,90.1 486.8,88.7 487.7,87.2 488.5,85.8 489.3,84.3 490.1,82.9 491.0,81.4 491.8,80.0 492.6,78.5 493.4,77.0 494.3,75.5 495.1,74.0 495.9,72.6 496.7,71.1 497.6,69.5 498.4,68.0 499.2,66.7 500.1,65.4 500.9,64.0 501.7,62.7 502.5,61.3 503.4,60.0 504.2,58.6 505.0,57.2 505.8,55.9 506.7,54.5 507.5,53.1 508.3,51.8 509.1,50.4 510.0,49.0 510.8,47.6 511.6,46.2 512.5,44.8 513.3,43.4 514.1,42.0 514.9,242.3 515.8,241.9 516.6,241.6 517.4,241.2 518.2,240.9 519.1,240.6 519.9,240.2 520.7,239.9 521.5,239.5 522.4,239.2 523.2,238.8 524.0,238.5 524.9,238.1 525.7,237.8 526.5,237.4 527.3,237.1 528.2,236.7 529.0,236.3 529.8,236.0 530.6,235.6 531.5,257.5 532.3,257.3 533.1,257.0 533.9,256.8 534.8,256.5 535.6,256.3 536.4,256.0 537.3,255.7 538.1,255.5 538.9,255.2 539.7,254.9 540.6,254.7 541.4,254.4 542.2,254.1 543.0,253.9 543.9,253.6 544.7,253.3 545.5,253.0 546.3,252.7 547.2,252.5 548.0,264.0 548.8,263.8 549.7,263.6 550.5,263.3 551.3,263.1 552.1,262.9 553.0,262.7 553.8,262.4 554.6,262.2 555.4,262.0 556.3,261.7 557.1,261.5 557.9,261.2 558.7,261.0 559.6,260.7 560.4,260.5 561.2,260.3 562.1,260.0 562.9,259.7 563.7,259.5 564.5,267.6 565.4,267.4 566.2,267.1 567.0,266.9 567.8,266.7 568.7,266.5 569.5,266.3 570.3,266.0 571.1,265.8 572.0,265.6 572.8,265.4 573.6,265.1 574.5,264.9 575.3,264.7 576.1,264.4 576.9,264.2 577.8,263.9 578.6,263.7 579.4,263.4 580.2,263.2 581.1,269.7 581.9,269.5 582.7,269.2 583.5,269.0 584.4,268.8 585.2,268.6 586.0,268.4 586.9,268.1 587.7,267.9 588.5,267.7 589.3,267.5 590.2,267.2 591.0,267.0 591.8,266.8 592.6,266.5 593.5,266.3 594.3,266.1 595.1,265.8 595.9,265.6 596.8,265.3 597.6,271.0 598.4,270.8 599.3,270.5 600.1,270.3 600.9,270.1 601.7,269.9 602.6,269.7 603.4,269.4 604.2,269.2 605.0,269.0 605.9,268.8 606.7,268.5 607.5,268.3 608.3,268.1 609.2,267.8 610.0,267.6 610.8,267.4 611.7,267.1 612.5,266.9 613.3,266.6 614.1,271.8 615.0,271.5 615.8,271.3 616.6,271.1 617.4,270.9 618.3,270.7 619.1,270.4 619.9,270.2 620.7,270.0 621.6,269.8 622.4,269.5 623.2,269.3 624.1,269.1 624.9,268.8 625.7,268.6 626.5,268.3 627.4,268.1 628.2,267.9 629.0,267.6 629.8,267.4 630.7,272.3 631.5,272.0 632.3,271.8 633.1,271.6 634.0,271.4 634.8,271.1 635.6,270.9 636.5,270.7 637.3,270.5 638.1,270.2 638.9,270.0 639.8,269.8 640.6,269.5 641.4,269.3 642.2,269.1 643.1,268.8 643.9,268.6 644.7,268.3 645.5,268.1 646.4,267.8 647.2,272.6 648.0,272.3 648.9,272.1 649.7,271.9 650.5,271.7 651.3,271.4 652.2,271.2 653.0,271.0 653.8,270.8 654.6,270.5 655.5,270.3 656.3,270.1 657.1,269.8 657.9,269.6 658.8,269.4 659.6,269.1 660.4,268.9 661.3,268.6 662.1,268.4 662.9,268.1 663.7,272.7 664.6,272.5 665.4,272.3 666.2,272.1 667.0,271.9 667.9,271.6 668.7,271.4 669.5,271.2 670.3,271.0 671.2,270.7 672.0,270.5 672.8,270.3 673.7,270.0 674.5,269.8 675.3,269.6 676.1,269.3 677.0,269.1 677.8,268.9 678.6,268.6 679.4,268.3 680.3,272.9 681.1,272.7 681.9,272.4 682.7,272.2 683.6,272.0 684.4,271.8 685.2,271.6 686.1,271.3 686.9,271.1 687.7,270.9 688.5,270.7 689.4,270.4 690.2,270.2 691.0,270.0 691.8,269.7 692.7,269.5 693.5,269.3 694.3,269.0 695.1,268.8 696.0,268.5 696.8,273.0 697.6,272.8 698.5,272.6 699.3,272.4 700.1,272.2 700.9,271.9 701.8,271.7 702.6,271.5 703.4,271.3 704.2,271.1 705.1,270.8 705.9,270.6 706.7,270.4 707.5,270.2 708.4,269.9 709.2,269.7 710.0,269.5 710.9,269.2 711.7,269.0 712.5,268.7 713.3,273.2 714.2,272.9 715.0,272.7 715.8,272.5 716.6,272.3 717.5,272.1 718.3,271.9 719.1,271.7 719.9,271.5 720.8,271.2 721.6,271.0 722.4,270.8 723.3,270.6 724.1,270.3 724.9,270.1 725.7,269.9 726.6,269.7 727.4,269.4 728.2,269.2 729.0,269.0 729.9,273.3 730.7,273.1 731.5,272.9 732.3,272.7 733.2,272.5 734.0,272.3 734.8,272.0 735.7,271.8 736.5,271.6 737.3,271.4 738.1,271.2 739.0,271.0 739.8,270.8 740.6,270.5 741.4,270.3 742.3,270.1 743.1,269.9 743.9,269.7 744.7,269.4 745.6,269.2 746.4,273.5 747.2,273.3 748.1,273.0 748.9,272.8 749.7,272.7 750.5,272.4 751.4,272.2 752.2,272.0 753.0,271.8 753.8,271.6 754.7,271.4 755.5,271.2 756.3,271.0 757.1,270.8 758.0,270.5 758.8,270.3 759.6,270.1 760.5,269.9 761.3,269.7 762.1,269.4 762.9,273.6 763.8,273.4 764.6,273.2 765.4,273.0 766.2,272.8 767.1,272.6 767.9,272.4 768.7,272.2 769.5,272.0 770.4,271.8 771.2,271.6 772.0,271.4 772.9,271.2 773.7,271.0 774.5,270.8 775.3,270.6 776.2,270.4 777.0,270.2 777.8,269.9 778.6,269.7 779.5,273.8 780.3,273.6 781.1,273.4 781.9,273.2 782.8,273.0 783.6,272.8 784.4,272.6 785.3,272.4 786.1,272.3 786.9,272.0 787.7,271.8 788.6,271.6 789.4,271.4 790.2,271.2 791.0,271.0 791.9,270.8 792.7,270.6 793.5,270.4 794.3,270.2 795.2,270.0 796.0,274.0"/>
<text x="640" y="56" font-family="Arial" font-size="12" fill="#0f766e">nominal covariance trace</text>
</svg>