<svg xmlns="http://www.w3.org/2000/svg" width="820" height="320" viewBox="0 0 820 320">
<rect width="100%" height="100%" fill="white"/>
<text x="52" y="30" font-family="Arial" font-size="18" font-weight="700">ekf_nominal position error</text>
<line x1="52" y1="274" x2="796" y2="274" stroke="#263238"/>
<line x1="52" y1="42" x2="52" y2="274" stroke="#263238"/>
<text x="52" y="306" font-family="Arial" font-size="12">time (s)</text>
<text x="630" y="306" font-family="Arial" font-size="12">m</text>

<rect x="349.6" y="42" width="148.8" height="232" fill="#fef3c7" opacity="0.72"/>
<polyline fill="none" stroke="#0f766e" stroke-width="2.3" points="52.0,46.2 52.8,46.0 53.7,45.8 54.5,45.6 55.3,45.4 56.1,45.2 57.0,45.0 57.8,44.8 58.6,44.5 59.4,44.3 60.3,44.1 61.1,43.9 61.9,43.7 62.7,43.5 63.6,43.3 64.4,43.1 65.2,42.7 66.1,42.5 66.9,42.3 67.7,42.0 68.5,222.9 69.4,225.3 70.2,226.9 71.0,227.6 71.8,227.7 72.7,226.6 73.5,224.6 74.3,221.9 75.1,218.5 76.0,214.5 76.8,209.9 77.6,205.0 78.5,199.5 79.3,193.9 80.1,188.1 80.9,182.1 81.8,176.0 82.6,169.7 83.4,163.2 84.2,156.7 85.1,258.9 85.9,254.1 86.7,249.3 87.5,244.4 88.4,239.5 89.2,234.6 90.0,229.7 90.9,224.8 91.7,219.8 92.5,214.8 93.3,209.9 94.2,204.9 95.0,199.9 95.8,194.9 96.6,190.0 97.5,185.0 98.3,180.0 99.1,175.1 99.9,170.1 100.8,165.1 101.6,204.6 102.4,200.8 103.3,196.9 104.1,193.0 104.9,189.4 105.7,185.5 106.6,181.6 107.4,177.8 108.2,174.2 109.0,170.3 109.9,166.5 110.7,162.6 111.5,159.0 112.3,155.1 113.2,151.3 114.0,147.4 114.8,143.4 115.7,139.5 116.5,135.7 117.3,131.8 118.1,208.2 119.0,205.9 119.8,203.6 120.6,201.4 121.4,199.0 122.3,196.8 123.1,194.5 123.9,192.3 124.7,190.3 125.6,188.1 126.4,185.9 127.2,183.8 128.1,181.8 128.9,179.6 129.7,177.5 130.5,175.4 131.4,173.3 132.2,171.2 133.0,169.1 133.8,167.0 134.7,209.7 135.5,208.6 136.3,207.5 137.1,206.4 138.0,205.1 138.8,204.0 139.6,203.0 140.5,201.9 141.3,200.9 142.1,199.9 142.9,198.8 143.8,197.8 144.6,196.9 145.4,195.9 146.2,194.9 147.1,194.0 147.9,193.0 148.7,192.1 149.5,191.1 150.4,190.2 151.2,232.7 152.0,232.8 152.9,233.0 153.7,233.1 154.5,233.2 155.3,233.4 156.2,233.6 157.0,233.8 157.8,234.2 158.6,234.5 159.5,234.8 160.3,235.1 161.1,235.5 161.9,235.8 162.8,236.3 163.6,236.7 164.4,237.2 165.3,237.7 166.1,238.2 166.9,238.8 167.7,237.2 168.6,237.7 169.4,238.2 170.2,238.8 171.0,239.4 171.9,240.0 172.7,240.7 173.5,241.3 174.3,242.0 175.2,242.7 176.0,243.4 176.8,244.2 177.7,244.9 178.5,245.7 179.3,246.5 180.1,247.3 181.0,248.1 181.8,249.0 182.6,249.9 183.4,250.7 184.3,248.6 185.1,246.5 185.9,244.3 186.7,242.1 187.6,239.8 188.4,237.5 189.2,235.1 190.1,232.7 190.9,230.1 191.7,227.6 192.5,225.1 193.4,222.5 194.2,220.0 195.0,217.3 195.8,214.6 196.7,211.9 197.5,209.0 198.3,206.2 199.1,203.3 200.0,200.4 200.8,244.4 201.6,242.1 202.5,239.8 203.3,237.5 204.1,235.1 204.9,232.8 205.8,230.4 206.6,228.0 207.4,225.7 208.2,223.2 209.1,220.7 209.9,218.2 210.7,215.7 211.5,213.1 212.4,210.5 213.2,207.8 214.0,205.1 214.9,202.4 215.7,199.7 216.5,196.9 217.3,223.3 218.2,221.0 219.0,218.6 219.8,216.3 220.6,213.9 221.5,211.4 222.3,209.0 223.1,206.5 223.9,204.1 224.8,201.5 225.6,199.0 226.4,196.4 227.3,193.8 228.1,191.1 228.9,188.5 229.7,185.8 230.6,183.0 231.4,180.3 232.2,177.5 233.0,174.7 233.9,194.0 234.7,191.5 235.5,189.0 236.3,186.5 237.2,183.9 238.0,181.4 238.8,178.8 239.7,176.2 240.5,173.6 241.3,170.9 242.1,168.2 243.0,165.5 243.8,162.9 244.6,160.1 245.4,157.3 246.3,154.5 247.1,151.7 247.9,148.9 248.7,146.0 249.6,143.1 250.4,197.5 251.2,195.4 252.1,193.4 252.9,191.3 253.7,189.0 254.5,186.9 255.4,184.7 256.2,182.6 257.0,180.4 257.8,178.2 258.7,176.0 259.5,173.8 260.3,171.5 261.1,169.3 262.0,167.0 262.8,164.6 263.6,162.3 264.5,159.9 265.3,157.6 266.1,155.2 266.9,194.9 267.8,193.0 268.6,191.2 269.4,189.4 270.2,187.5 271.1,185.6 271.9,183.7 272.7,181.8 273.5,180.0 274.4,178.0 275.2,176.1 276.0,174.1 276.9,172.0 277.7,170.1 278.5,168.0 279.3,166.0 280.2,163.9 281.0,161.8 281.8,159.8 282.6,157.7 283.5,247.0 284.3,246.2 285.1,245.3 285.9,244.4 286.8,243.5 287.6,242.6 288.4,241.7 289.3,240.8 290.1,239.5 290.9,238.5 291.7,237.6 292.6,236.7 293.4,236.4 294.2,235.4 295.0,234.5 295.9,233.5 296.7,232.0 297.5,231.0 298.3,230.0 299.2,229.0 300.0,247.5 300.8,246.8 301.7,246.0 302.5,245.2 303.3,243.8 304.1,243.0 305.0,242.2 305.8,241.4 306.6,240.9 307.4,240.1 308.3,239.3 309.1,238.4 309.9,237.7 310.7,236.9 311.6,236.0 312.4,235.2 313.2,234.7 314.1,233.8 314.9,232.9 315.7,232.1 316.5,246.7 317.4,246.0 318.2,245.3 319.0,244.6 319.8,244.6 320.7,243.9 321.5,243.2 322.3,242.5 323.1,242.0 324.0,241.3 324.8,240.5 325.6,239.8 326.5,239.0 327.3,238.2 328.1,237.4 328.9,236.7 329.8,235.9 330.6,235.1 331.4,234.3 332.2,233.6 333.1,263.4 333.9,263.0 334.7,262.6 335.5,262.2 336.4,261.8 337.2,261.4 338.0,261.0 338.9,260.6 339.7,260.2 340.5,259.8 341.3,259.3 342.2,258.9 343.0,258.5 343.8,258.1 344.6,257.6 345.5,257.2 346.3,256.7 347.1,256.3 347.9,255.8 348.8,255.4 349.6,255.0 350.4,254.6 351.3,254.1 352.1,253.7 352.9,253.0 353.7,252.6 354.6,252.1 355.4,251.6 356.2,251.3 357.0,250.9 357.9,250.4 358.7,249.9 359.5,249.3 360.3,248.8 361.2,248.3 362.0,247.9 362.8,247.1 363.7,246.6 364.5,246.1 365.3,245.6 366.1,245.4 367.0,244.9 367.8,244.4 368.6,243.8 369.4,243.2 370.3,242.6 371.1,242.1 371.9,241.6 372.7,241.0 373.6,240.5 374.4,239.9 375.2,239.4 376.1,238.9 376.9,238.3 377.7,237.8 378.5,237.2 379.4,236.6 380.2,236.1 381.0,235.5 381.8,235.0 382.7,234.3 383.5,233.7 384.3,233.2 385.1,232.6 386.0,231.8 386.8,231.2 387.6,230.7 388.5,230.1 389.3,229.7 390.1,229.1 390.9,228.5 391.8,227.8 392.6,227.3 393.4,226.7 394.2,226.0 395.1,225.4 395.9,224.9 396.7,224.2 397.5,223.6 398.4,223.0 399.2,222.2 400.0,221.6 400.9,220.9 401.7,220.3 402.5,219.7 403.3,219.0 404.2,218.4 405.0,217.7 405.8,217.2 406.6,216.5 407.5,215.9 408.3,215.2 409.1,214.5 409.9,213.8 410.8,213.2 411.6,212.5 412.4,211.9 413.3,211.2 414.1,210.5 414.9,209.8 415.7,209.1 416.6,208.4 417.4,207.7 418.2,207.0 419.0,206.3 419.9,205.6 420.7,204.9 421.5,204.2 422.3,203.5 423.2,202.7 424.0,202.0 424.8,201.3 425.7,200.5 426.5,199.8 427.3,199.1 428.1,198.3 429.0,197.6 429.8,196.8 430.6,196.1 431.4,195.3 432.3,194.5 433.1,193.8 433.9,193.0 434.7,192.2 435.6,191.5 436.4,190.7 437.2,189.9 438.1,189.1 438.9,188.3 439.7,187.5 440.5,186.7 441.4,186.0 442.2,185.1 443.0,184.3 443.8,183.5 444.7,182.7 445.5,182.0 446.3,181.1 447.1,180.3 448.0,179.5 448.8,178.6 449.6,177.7 450.5,176.9 451.3,176.1 452.1,175.2 452.9,174.4 453.8,173.5 454.6,172.7 455.4,171.8 456.2,171.0 457.1,170.1 457.9,169.2 458.7,168.3 459.5,167.4 460.4,166.5 461.2,165.6 462.0,164.8 462.9,163.9 463.7,163.0 464.5,162.1 465.3,161.2 466.2,160.3 467.0,159.4 467.8,158.5 468.6,157.7 469.5,156.8 470.3,155.9 471.1,154.9 471.9,153.9 472.8,153.0 473.6,152.1 474.4,151.1 475.3,150.2 476.1,149.3 476.9,148.3 477.7,147.4 478.6,146.4 479.4,145.4 480.2,144.5 481.0,143.5 481.9,142.6 482.7,141.6 483.5,140.7 484.3,139.7 485.2,138.8 486.0,137.9 486.8,136.9 487.7,135.9 488.5,135.0 489.3,134.0 490.1,133.0 491.0,132.1 491.8,131.1 492.6,130.1 493.4,129.1 494.3,128.1 495.1,127.2 495.9,126.2 496.7,125.2 497.6,124.2 498.4,123.2 499.2,122.2 500.1,121.2 500.9,120.1 501.7,119.1 502.5,118.1 503.4,117.0 504.2,116.0 505.0,114.9 505.8,113.9 506.7,112.8 507.5,111.8 508.3,110.7 509.1,109.7 510.0,108.6 510.8,107.5 511.6,106.5 512.5,105.4 513.3,104.3 514.1,103.2 514.9,253.7 515.8,253.7 516.6,253.7 517.4,253.6 518.2,253.7 519.1,253.7 519.9,253.7 520.7,253.7 521.5,253.6 522.4,253.6 523.2,253.6 524.0,253.6 524.9,253.6 525.7,253.6 526.5,253.6 527.3,253.6 528.2,253.6 529.0,253.6 529.8,253.6 530.6,253.6 531.5,263.4 532.3,263.4 533.1,263.4 533.9,263.4 534.8,263.1 535.6,263.1 536.4,263.0 537.3,263.0 538.1,263.1 538.9,263.1 539.7,263.0 540.6,263.0 541.4,263.0 542.2,262.9 543.0,262.9 543.9,262.8 544.7,262.8 545.5,262.8 546.3,262.7 547.2,262.6 548.0,265.8 548.8,265.7 549.7,265.6 550.5,265.4 551.3,265.3 552.1,265.2 553.0,265.1 553.8,265.0 554.6,264.8 555.4,264.7 556.3,264.6 557.1,264.5 557.9,264.4 558.7,264.3 559.6,264.2 560.4,264.0 561.2,263.8 562.1,263.7 562.9,263.6 563.7,263.5 564.5,246.6 565.4,246.3 566.2,246.0 567.0,245.7 567.8,245.3 568.7,245.0 569.5,244.7 570.3,244.4 571.1,244.0 572.0,243.7 572.8,243.4 573.6,243.0 574.5,242.8 575.3,242.5 576.1,242.2 576.9,241.9 577.8,241.5 578.6,241.1 579.4,240.8 580.2,240.5 581.1,259.6 581.9,259.4 582.7,259.1 583.5,258.8 584.4,258.5 585.2,258.3 586.0,258.0 586.9,257.7 587.7,257.4 588.5,257.1 589.3,256.8 590.2,256.5 591.0,256.2 591.8,255.9 592.6,255.6 593.5,255.3 594.3,255.2 595.1,254.9 595.9,254.6 596.8,254.3 597.6,264.5 598.4,264.2 599.3,264.0 600.1,263.7 600.9,263.6 601.7,263.3 602.6,263.1 603.4,262.8 604.2,262.7 605.0,262.4 605.9,262.1 606.7,261.9 607.5,261.8 608.3,261.6 609.2,261.3 610.0,261.0 610.8,260.8 611.7,260.6 612.5,260.3 613.3,260.0 614.1,266.5 615.0,266.3 615.8,266.0 616.6,265.8 617.4,265.6 618.3,265.4 619.1,265.1 619.9,264.9 620.7,264.6 621.6,264.4 622.4,264.1 623.2,263.9 624.1,263.5 624.9,263.2 625.7,262.9 626.5,262.7 627.4,262.3 628.2,262.0 629.0,261.8 629.8,261.5 630.7,265.1 631.5,264.8 632.3,264.5 633.1,264.2 634.0,264.0 634.8,263.7 635.6,263.4 636.5,263.1 637.3,263.1 638.1,262.9 638.9,262.6 639.8,262.3 640.6,262.0 641.4,261.7 642.2,261.4 643.1,261.2 643.9,261.0 644.7,260.7 645.5,260.4 646.4,260.2 647.2,262.7 648.0,262.4 648.9,262.1 649.7,261.9 650.5,261.6 651.3,261.3 652.2,261.1 653.0,260.8 653.8,260.5 654.6,260.2 655.5,260.0 656.3,259.7 657.1,259.5 657.9,259.2 658.8,258.9 659.6,258.6 660.4,258.3 661.3,258.0 662.1,257.7 662.9,257.4 663.7,258.1 664.6,257.9 665.4,257.6 666.2,257.3 667.0,257.0 667.9,256.7 668.7,256.5 669.5,256.2 670.3,256.0 671.2,255.7 672.0,255.4 672.8,255.1 673.7,255.0 674.5,254.7 675.3,254.4 676.1,254.1 677.0,253.9 677.8,253.6 678.6,253.3 679.4,253.0 680.3,274.0 681.1,273.9 681.9,273.7 682.7,273.6 683.6,273.3 684.4,273.1 685.2,273.0 686.1,272.8 686.9,272.7 687.7,272.6 688.5,272.4 689.4,272.3 690.2,272.0 691.0,271.9 691.8,271.7 692.7,271.6 693.5,271.4 694.3,271.2 695.1,271.1 696.0,270.9 696.8,265.5 697.6,265.4 698.5,265.2 699.3,265.0 700.1,264.6 700.9,264.4 701.8,264.2 702.6,264.0 703.4,263.9 704.2,263.7 705.1,263.5 705.9,263.3 706.7,262.9 707.5,262.7 708.4,262.6 709.2,262.4 710.0,262.9 710.9,262.8 711.7,262.6 712.5,262.4 713.3,261.3 714.2,261.2 715.0,261.0 715.8,260.8 716.6,261.1 717.5,261.0 718.3,260.8 719.1,260.6 719.9,260.8 720.8,260.6 721.6,260.5 722.4,260.3 723.3,260.2 724.1,260.0 724.9,259.8 725.7,259.7 726.6,259.6 727.4,259.4 728.2,259.2 729.0,259.1 729.9,262.8 730.7,262.7 731.5,262.5 732.3,262.4 733.2,262.3 734.0,262.1 734.8,262.0 735.7,261.9 736.5,261.8 737.3,261.6 738.1,261.5 739.0,261.3 739.8,261.1 740.6,260.9 741.4,260.8 742.3,260.6 743.1,259.9 743.9,259.8 744.7,259.6 745.6,259.4 746.4,260.0 747.2,259.9 748.1,259.7 748.9,259.5 749.7,259.9 750.5,259.8 751.4,259.6 752.2,259.5 753.0,259.9 753.8,259.7 754.7,259.6 755.5,259.4 756.3,259.4 757.1,259.3 758.0,259.1 758.8,259.0 759.6,258.8 760.5,258.6 761.3,258.5 762.1,258.3 762.9,251.9 763.8,251.7 764.6,251.4 765.4,251.2 766.2,251.0 767.1,250.8 767.9,250.6 768.7,250.4 769.5,250.2 770.4,250.0 771.2,249.7 772.0,249.5 772.9,249.3 773.7,249.1 774.5,248.9 775.3,248.7 776.2,248.4 777.0,248.2 777.8,248.0 778.6,247.8 779.5,244.8 780.3,244.6 781.1,244.4 781.9,244.2 782.8,244.0 783.6,243.7 784.4,243.5 785.3,243.3 786.1,243.1 786.9,242.8 787.7,242.6 788.6,242.4 789.4,242.1 790.2,241.9 791.0,241.7 791.9,241.4 792.7,241.2 793.5,241.0 794.3,240.8 795.2,240.6 796.0,256.5"/>
<text x="640" y="56" font-family="Arial" font-size="12" fill="#0f766e">ekf_nominal position error</text>
</svg>