<svg xmlns="http://www.w3.org/2000/svg" width="820" height="320" viewBox="0 0 820 320">
<rect width="100%" height="100%" fill="white"/>
<text x="52" y="30" font-family="Arial" font-size="18" font-weight="700">ekf_nominal residuals</text>
<line x1="52" y1="274" x2="796" y2="274" stroke="#263238"/>
<line x1="52" y1="42" x2="52" y2="274" stroke="#263238"/>
<text x="52" y="306" font-family="Arial" font-size="12">time (s)</text>
<text x="630" y="306" font-family="Arial" font-size="12">norm</text>

<polyline fill="none" stroke="#0f766e" stroke-width="2.3" points="52.0,200.1 52.0,263.0 55.3,269.7 58.6,273.8 61.9,267.8 65.2,257.5 68.5,42.0 68.5,262.5 71.8,267.5 75.1,270.3 78.5,269.5 81.8,262.5 85.1,243.8 85.1,259.8 88.4,249.3 91.7,271.0 95.0,269.5 98.3,273.9 101.6,215.1 101.6,263.6 104.9,268.0 108.2,262.8 111.5,257.2 114.8,259.3 118.1,142.5 118.1,270.9 121.4,267.6 124.7,268.9 128.1,259.6 131.4,269.5 134.7,216.8 134.7,262.1 138.0,253.3 141.3,272.4 144.6,272.4 147.9,274.0 151.2,206.6 151.2,270.5 154.5,260.3 157.8,257.8 161.1,270.2 164.4,263.8 167.7,250.6 167.7,268.9 171.0,254.6 174.3,273.6 177.7,272.3 181.0,270.6 184.3,164.5 184.3,267.4 187.6,270.3 190.9,259.1 194.2,258.7 197.5,269.6 200.8,191.3 200.8,267.6 204.1,270.1 207.4,254.4 210.7,263.9 214.0,273.8 217.3,214.2 217.3,267.2 220.6,273.8 223.9,249.3 227.3,269.7 230.6,252.4 233.9,203.8 233.9,267.5 237.2,272.0 240.5,267.5 243.8,253.9 247.1,270.1 250.4,154.5 250.4,261.0 253.7,248.7 257.0,263.0 260.3,269.3 263.6,270.6 266.9,176.1 266.9,272.9 270.2,271.9 273.5,265.7 276.9,262.5 280.2,263.2 283.5,95.3 283.5,271.1 286.8,273.8 290.1,259.7 293.4,249.5 296.7,252.9 300.0,235.7 300.0,250.4 303.3,255.4 306.6,264.3 309.9,271.0 313.2,261.5 316.5,223.1 316.5,251.5 319.8,236.2 323.1,242.2 326.5,259.1 329.8,268.7 333.1,197.9 333.1,263.5 336.4,261.0 339.7,273.7 343.0,272.0 346.3,267.1 349.6,244.4 352.9,246.6 356.2,253.9 359.5,252.5 362.8,258.1 366.1,250.7 369.4,261.0 372.7,273.1 376.1,271.7 379.4,272.3 382.7,267.0 386.0,262.6 389.3,257.1 392.6,269.8 395.9,264.1 399.2,257.8 402.5,267.7 405.8,258.0 409.1,272.0 412.4,259.0 415.7,265.2 419.0,269.2 422.3,270.6 425.7,263.4 429.0,269.9 432.3,259.1 435.6,271.5 438.9,263.1 442.2,268.7 445.5,258.3 448.8,251.9 452.1,269.9 455.4,260.7 458.7,255.1 462.0,259.4 465.3,269.3 468.6,257.3 471.9,252.6 475.3,268.9 478.6,265.9 481.9,272.7 485.2,257.0 488.5,262.9 491.8,268.0 495.1,255.5 498.4,247.8 501.7,265.3 505.0,254.2 508.3,260.1 511.6,266.7 514.9,60.3 514.9,255.1 518.2,246.7 521.5,269.2 524.9,273.2 528.2,268.0 531.5,256.2 531.5,263.1 534.8,256.7 538.1,262.9 541.4,264.2 544.7,266.6 548.0,253.0 548.0,272.3 551.3,263.0 554.6,261.4 557.9,270.2 561.2,253.2 564.5,257.3 564.5,263.6 567.8,265.0 571.1,265.7 574.5,253.5 577.8,260.5 581.1,218.0 581.1,261.9 584.4,271.0 587.7,266.6 591.0,270.4 594.3,267.4 597.6,202.4 597.6,256.4 600.9,269.6 604.2,270.4 607.5,259.1 610.8,266.9 614.1,257.1 614.1,270.8 617.4,265.8 620.7,261.5 624.1,259.0 627.4,266.4 630.7,235.0 630.7,272.7 634.0,273.6 637.3,255.6 640.6,273.8 643.9,262.1 647.2,252.7 647.2,258.8 650.5,272.0 653.8,266.9 657.1,263.5 660.4,246.6 663.7,259.0 663.7,271.3 667.0,268.2 670.3,269.2 673.7,257.3 677.0,261.3 680.3,184.0 680.3,258.0 683.6,261.9 686.9,273.4 690.2,269.5 693.5,272.5 696.8,235.7 696.8,265.7 700.1,264.0 703.4,272.0 706.7,266.5 710.0,247.0 713.3,262.1 713.3,259.4 716.6,253.2 719.9,251.6 723.3,270.0 726.6,269.0 729.9,270.4 729.9,266.0 733.2,272.4 736.5,270.6 739.8,265.0 743.1,244.5 746.4,206.3 746.4,272.1 749.7,253.8 753.0,240.3 756.3,258.1 759.6,270.6 762.9,211.8 762.9,269.2 766.2,264.8 769.5,270.4 772.9,270.6 776.2,272.1 779.5,231.4 779.5,255.1 782.8,263.6 786.1,272.1 789.4,262.2 792.7,265.6 796.0,202.6 796.0,273.7"/>
<text x="640" y="56" font-family="Arial" font-size="12" fill="#0f766e">ekf_nominal residuals</text>
</svg>