<svg xmlns="http://www.w3.org/2000/svg" width="820" height="320" viewBox="0 0 820 320">
<rect width="100%" height="100%" fill="white"/>
<text x="52" y="30" font-family="Arial" font-size="18" font-weight="700">ekf_dropout_robust residuals</text>
<line x1="52" y1="274" x2="796" y2="274" stroke="#263238"/>
<line x1="52" y1="42" x2="52" y2="274" stroke="#263238"/>
<text x="52" y="306" font-family="Arial" font-size="12">time (s)</text>
<text x="630" y="306" font-family="Arial" font-size="12">norm</text>

<polyline fill="none" stroke="#0f766e" stroke-width="2.3" points="52.0,195.9 52.0,260.9 55.3,269.9 58.6,273.7 61.9,268.1 65.2,256.5 68.5,42.0 68.5,262.3 71.8,267.0 75.1,269.8 78.5,269.4 81.8,261.8 85.1,222.9 85.1,258.8 88.4,248.4 91.7,270.6 95.0,269.0 98.3,273.4 101.6,219.1 101.6,262.4 104.9,268.5 108.2,262.7 111.5,256.2 114.8,259.1 118.1,139.7 118.1,270.5 121.4,267.4 124.7,268.5 128.1,258.6 131.4,268.6 134.7,210.9 134.7,261.9 138.0,252.4 141.3,272.3 144.6,272.2 147.9,274.0 151.2,195.1 151.2,270.3 154.5,259.5 157.8,256.9 161.1,269.8 164.4,263.3 167.7,244.8 167.7,268.6 171.0,253.4 174.3,273.5 177.7,272.1 181.0,270.3 184.3,143.4 184.3,267.0 187.6,270.0 190.9,258.1 194.2,257.8 197.5,269.2 200.8,207.4 200.8,267.3 204.1,269.7 207.4,253.3 210.7,263.4 214.0,273.5 217.3,224.4 217.3,266.6 220.6,273.7 223.9,247.9 227.3,269.7 230.6,250.8 233.9,205.2 233.9,267.3 237.2,272.1 240.5,266.8 243.8,252.5 247.1,269.8 250.4,156.7 250.4,260.4 253.7,246.9 257.0,262.4 260.3,269.2 263.6,270.0 266.9,176.3 266.9,272.3 270.2,272.2 273.5,265.6 276.9,261.2 280.2,262.2 283.5,90.2 283.5,270.9 286.8,273.7 290.1,258.9 293.4,247.8 296.7,251.5 300.0,236.6 300.0,248.8 303.3,254.2 306.6,263.5 309.9,270.8 313.2,260.8 316.5,222.5 316.5,250.8 319.8,235.1 323.1,242.2 326.5,255.7 329.8,266.3 333.1,196.9 333.1,265.0 336.4,262.6 339.7,271.1 343.0,269.4 346.3,268.9 349.6,240.4 352.9,243.6 356.2,253.2 359.5,250.2 362.8,257.0 366.1,248.8 369.4,259.8 372.7,273.3 376.1,271.2 379.4,272.4 382.7,266.9 386.0,262.7 389.3,254.8 392.6,269.1 395.9,263.3 399.2,256.5 402.5,266.8 405.8,256.8 409.1,272.5 412.4,258.9 415.7,263.1 419.0,269.8 422.3,271.5 425.7,261.5 429.0,269.1 432.3,258.3 435.6,272.3 438.9,263.5 442.2,270.0 445.5,255.6 448.8,251.3 452.1,267.6 455.4,258.3 458.7,254.5 462.0,256.9 465.3,269.5 468.6,255.5 471.9,250.9 475.3,267.5 478.6,266.0 481.9,271.6 485.2,255.2 488.5,262.6 491.8,268.9 495.1,256.1 498.4,249.1 501.7,269.3 505.0,257.8 508.3,253.5 511.6,261.8 514.9,62.3 514.9,250.5 518.2,247.3 521.5,272.4 524.9,269.6 528.2,264.3 531.5,251.8 531.5,265.2 534.8,258.8 538.1,258.4 541.4,260.5 544.7,263.8 548.0,246.8 548.0,273.7 551.3,260.8 554.6,261.5 557.9,268.6 561.2,253.0 564.5,254.0 564.5,261.2 567.8,265.7 571.1,266.6 574.5,250.6 577.8,260.4 581.1,213.9 581.1,262.0 584.4,271.9 587.7,267.4 591.0,271.6 594.3,265.4 597.6,197.6 597.6,255.9 600.9,268.1 604.2,269.2 607.5,257.5 610.8,266.4 614.1,255.0 614.1,270.9 617.4,265.8 620.7,261.6 624.1,259.5 627.4,267.9 630.7,233.5 630.7,270.7 634.0,271.7 637.3,252.8 640.6,273.5 643.9,260.4 647.2,245.2 647.2,257.6 650.5,271.5 653.8,266.2 657.1,262.9 660.4,245.5 663.7,260.6 663.7,272.5 667.0,269.3 670.3,267.2 673.7,254.9 677.0,259.7 680.3,172.2 680.3,257.4 683.6,262.0 686.9,272.0 690.2,270.5 693.5,273.7 696.8,232.7 696.8,266.8 700.1,265.3 703.4,269.7 706.7,268.0 710.0,243.3 713.3,264.3 713.3,259.6 716.6,250.5 719.9,249.5 723.3,269.8 726.6,268.9 729.9,268.7 729.9,265.0 733.2,272.4 736.5,270.6 739.8,264.0 743.1,242.7 746.4,203.5 746.4,273.3 749.7,251.2 753.0,237.8 756.3,257.7 759.6,269.2 762.9,206.6 762.9,270.2 766.2,262.8 769.5,269.0 772.9,269.4 776.2,271.2 779.5,229.9 779.5,255.0 782.8,264.5 786.1,270.1 789.4,259.8 792.7,266.3 796.0,196.3 796.0,272.3"/>
<text x="640" y="56" font-family="Arial" font-size="12" fill="#0f766e">ekf_dropout_robust residuals</text>
</svg>