<svg xmlns="http://www.w3.org/2000/svg" width="820" height="320" viewBox="0 0 820 320">
<rect width="100%" height="100%" fill="white"/>
<text x="52" y="30" font-family="Arial" font-size="18" font-weight="700">ekf_dropout_robust velocity error</text>
<line x1="52" y1="274" x2="796" y2="274" stroke="#263238"/>
<line x1="52" y1="42" x2="52" y2="274" stroke="#263238"/>
<text x="52" y="306" font-family="Arial" font-size="12">time (s)</text>
<text x="630" y="306" font-family="Arial" font-size="12">m/s</text>

<rect x="349.6" y="42" width="148.8" height="232" fill="#fef3c7" opacity="0.72"/>
<polyline fill="none" stroke="#0f766e" stroke-width="2.3" points="52.0,255.0 52.8,255.0 53.7,254.8 54.5,254.8 55.3,251.5 56.1,251.6 57.0,251.6 57.8,251.5 58.6,251.0 59.4,250.8 60.3,250.3 61.1,250.2 61.9,254.4 62.7,254.2 63.6,254.0 64.4,254.1 65.2,242.4 66.1,242.3 66.9,242.2 67.7,241.9 68.5,42.9 69.4,42.9 70.2,42.8 71.0,42.7 71.8,42.9 72.7,42.8 73.5,42.7 74.3,42.6 75.1,42.7 76.0,42.7 76.8,42.6 77.6,42.5 78.5,42.3 79.3,42.3 80.1,42.2 80.9,42.2 81.8,42.3 82.6,42.1 83.4,42.1 84.2,42.0 85.1,86.7 85.9,86.6 86.7,86.6 87.5,86.6 88.4,86.5 89.2,86.6 90.0,86.7 90.9,86.8 91.7,86.7 92.5,86.6 93.3,86.5 94.2,86.4 95.0,86.3 95.8,86.4 96.6,86.4 97.5,86.3 98.3,86.4 99.1,86.4 99.9,86.3 100.8,86.3 101.6,118.6 102.4,118.7 103.3,118.8 104.1,118.8 104.9,119.2 105.7,119.3 106.6,119.3 107.4,119.3 108.2,119.3 109.0,119.4 109.9,119.4 110.7,119.4 111.5,119.7 112.3,119.7 113.2,119.8 114.0,119.8 114.8,119.9 115.7,119.9 116.5,119.9 117.3,120.1 118.1,177.6 119.0,178.0 119.8,178.3 120.6,178.6 121.4,179.1 122.3,179.4 123.1,179.9 123.9,180.0 124.7,180.4 125.6,180.7 126.4,180.9 127.2,181.1 128.1,181.0 128.9,181.2 129.7,181.5 130.5,182.0 131.4,182.2 132.2,182.5 133.0,182.7 133.8,182.9 134.7,223.4 135.5,223.7 136.3,224.2 137.1,224.6 138.0,225.8 138.8,226.1 139.6,226.6 140.5,227.0 141.3,227.3 142.1,227.8 142.9,228.3 143.8,228.8 144.6,229.1 145.4,229.5 146.2,229.9 147.1,230.4 147.9,230.7 148.7,231.1 149.5,231.5 150.4,231.9 151.2,260.8 152.0,261.4 152.9,261.9 153.7,262.4 154.5,260.4 155.3,260.8 156.2,261.0 157.0,261.4 157.8,264.8 158.6,265.3 159.5,265.7 160.3,266.0 161.1,265.4 161.9,265.6 162.8,265.7 163.6,265.6 164.4,267.4 165.3,267.6 166.1,267.6 166.9,267.5 167.7,259.0 168.6,258.8 169.4,258.3 170.2,257.7 171.0,258.9 171.9,258.3 172.7,257.8 173.5,257.2 174.3,256.6 175.2,256.2 176.0,255.5 176.8,254.9 177.7,254.4 178.5,253.7 179.3,252.9 180.1,252.3 181.0,251.5 181.8,250.9 182.6,250.2 183.4,249.3 184.3,197.3 185.1,196.1 185.9,194.7 186.7,193.4 187.6,192.1 188.4,190.9 189.2,189.8 190.1,188.6 190.9,187.2 191.7,186.0 192.5,184.8 193.4,183.6 194.2,182.5 195.0,181.2 195.8,180.1 196.7,178.7 197.5,177.4 198.3,176.2 199.1,175.0 200.0,173.9 200.8,197.2 201.6,196.2 202.5,195.0 203.3,193.8 204.1,192.9 204.9,191.8 205.8,190.8 206.6,189.7 207.4,188.7 208.2,187.7 209.1,186.7 209.9,185.6 210.7,184.6 211.5,183.5 212.4,182.5 213.2,181.5 214.0,180.3 214.9,179.1 215.7,178.0 216.5,176.8 217.3,190.5 218.2,189.5 219.0,188.5 219.8,187.6 220.6,186.4 221.5,185.3 222.3,184.3 223.1,183.3 223.9,182.4 224.8,181.4 225.6,180.5 226.4,179.4 227.3,178.3 228.1,177.4 228.9,176.5 229.7,175.5 230.6,174.4 231.4,173.4 232.2,172.4 233.0,171.5 233.9,180.9 234.7,180.3 235.5,179.3 236.3,178.4 237.2,177.4 238.0,176.6 238.8,175.6 239.7,174.6 240.5,173.9 241.3,173.0 242.1,171.9 243.0,171.0 243.8,170.3 244.6,169.4 245.4,168.4 246.3,167.6 247.1,166.6 247.9,165.8 248.7,164.9 249.6,163.9 250.4,196.6 251.2,195.9 252.1,195.2 252.9,194.4 253.7,193.6 254.5,192.7 255.4,191.8 256.2,191.1 257.0,190.5 257.8,189.8 258.7,189.2 259.5,188.5 260.3,187.8 261.1,187.1 262.0,186.4 262.8,185.8 263.6,185.0 264.5,184.3 265.3,183.6 266.1,182.9 266.9,205.4 267.8,204.8 268.6,204.1 269.4,203.4 270.2,202.8 271.1,202.2 271.9,201.5 272.7,200.9 273.5,200.4 274.4,199.8 275.2,199.3 276.0,198.7 276.9,198.3 277.7,197.7 278.5,197.0 279.3,196.5 280.2,195.8 281.0,195.1 281.8,194.5 282.6,193.8 283.5,244.0 284.3,243.8 285.1,243.5 285.9,243.3 286.8,243.1 287.6,242.9 288.4,242.5 289.3,242.2 290.1,241.6 290.9,241.2 291.7,240.9 292.6,240.6 293.4,240.9 294.2,240.7 295.0,240.4 295.9,240.0 296.7,239.5 297.5,239.1 298.3,238.8 299.2,238.5 300.0,247.9 300.8,247.6 301.7,247.3 302.5,247.1 303.3,246.6 304.1,246.3 305.0,245.9 305.8,245.7 306.6,245.7 307.4,245.4 308.3,245.2 309.1,244.9 309.9,244.7 310.7,244.6 311.6,244.4 312.4,244.1 313.2,244.1 314.1,243.8 314.9,243.6 315.7,243.3 316.5,250.6 317.4,250.4 318.2,250.2 319.0,250.0 319.8,249.9 320.7,249.8 321.5,249.5 322.3,249.3 323.1,248.5 324.0,248.1 324.8,248.0 325.6,247.8 326.5,247.8 327.3,247.6 328.1,247.5 328.9,247.3 329.8,247.3 330.6,247.1 331.4,247.0 332.2,246.7 333.1,261.6 333.9,261.4 334.7,261.4 335.5,261.4 336.4,260.9 337.2,260.7 338.0,260.5 338.9,260.5 339.7,260.4 340.5,260.3 341.3,260.2 342.2,260.1 343.0,260.1 343.8,260.1 344.6,260.0 345.5,260.0 346.3,259.6 347.1,259.4 347.9,259.3 348.8,259.2 349.6,259.9 350.4,259.8 351.3,259.7 352.1,259.6 352.9,259.7 353.7,259.9 354.6,259.9 355.4,259.6 356.2,259.5 357.0,259.4 357.9,259.4 358.7,259.3 359.5,259.2 360.3,258.9 361.2,258.8 362.0,258.6 362.8,258.2 363.7,258.0 364.5,257.8 365.3,257.6 366.1,257.6 367.0,257.5 367.8,257.3 368.6,257.1 369.4,256.9 370.3,256.8 371.1,256.8 371.9,256.7 372.7,256.6 373.6,256.5 374.4,256.3 375.2,256.3 376.1,256.3 376.9,256.3 377.7,256.2 378.5,256.0 379.4,255.9 380.2,255.7 381.0,255.8 381.8,255.8 382.7,255.6 383.5,255.4 384.3,255.2 385.1,254.9 386.0,254.5 386.8,254.5 387.6,254.3 388.5,254.1 389.3,254.2 390.1,254.2 390.9,253.9 391.8,253.6 392.6,253.4 393.4,253.5 394.2,253.5 395.1,253.4 395.9,253.4 396.7,253.2 397.5,253.2 398.4,253.0 399.2,252.7 400.0,252.6 400.9,252.5 401.7,252.4 402.5,252.4 403.3,252.3 404.2,252.1 405.0,252.1 405.8,252.1 406.6,251.8 407.5,251.6 408.3,251.5 409.1,251.3 409.9,251.4 410.8,251.3 411.6,251.1 412.4,251.0 413.3,251.0 414.1,250.9 414.9,250.6 415.7,250.5 416.6,250.4 417.4,250.3 418.2,250.1 419.0,249.8 419.9,249.6 420.7,249.5 421.5,249.6 422.3,249.4 423.2,249.4 424.0,249.1 424.8,248.9 425.7,248.8 426.5,248.7 427.3,248.6 428.1,248.4 429.0,248.3 429.8,248.2 430.6,248.1 431.4,248.1 432.3,247.7 433.1,247.6 433.9,247.6 434.7,247.4 435.6,247.3 436.4,247.1 437.2,246.8 438.1,246.9 438.9,246.6 439.7,246.5 440.5,246.4 441.4,246.4 442.2,246.2 443.0,245.9 443.8,245.8 444.7,245.7 445.5,245.6 446.3,245.4 447.1,245.2 448.0,245.1 448.8,244.5 449.6,244.3 450.5,244.3 451.3,244.1 452.1,244.1 452.9,244.0 453.8,243.8 454.6,243.6 455.4,243.8 456.2,243.5 457.1,243.5 457.9,243.4 458.7,242.9 459.5,242.9 460.4,242.7 461.2,242.7 462.0,242.8 462.9,242.6 463.7,242.6 464.5,242.4 465.3,242.2 466.2,242.2 467.0,242.1 467.8,242.0 468.6,242.0 469.5,241.9 470.3,241.8 471.1,241.8 471.9,241.4 472.8,241.2 473.6,241.0 474.4,240.9 475.3,240.6 476.1,240.3 476.9,240.3 477.7,240.4 478.6,240.1 479.4,239.9 480.2,240.0 481.0,239.8 481.9,239.8 482.7,239.7 483.5,239.7 484.3,239.6 485.2,239.6 486.0,239.6 486.8,239.6 487.7,239.5 488.5,239.4 489.3,239.5 490.1,239.3 491.0,239.1 491.8,238.9 492.6,238.7 493.4,238.5 494.3,238.5 495.1,238.4 495.9,238.2 496.7,238.2 497.6,238.1 498.4,237.7 499.2,237.6 500.1,237.3 500.9,237.2 501.7,236.9 502.5,236.7 503.4,236.5 504.2,236.4 505.0,236.0 505.8,235.9 506.7,235.6 507.5,235.5 508.3,235.6 509.1,235.4 510.0,235.3 510.8,235.1 511.6,235.2 512.5,235.1 513.3,234.9 514.1,234.9 514.9,273.3 515.8,273.2 516.6,273.5 517.4,273.5 518.2,272.5 519.1,272.6 519.9,272.5 520.7,272.6 521.5,272.6 522.4,272.8 523.2,272.8 524.0,272.8 524.9,273.1 525.7,273.2 526.5,273.2 527.3,273.0 528.2,273.5 529.0,273.5 529.8,273.5 530.6,273.4 531.5,269.8 532.3,269.7 533.1,269.6 533.9,269.6 534.8,268.5 535.6,268.5 536.4,268.6 537.3,268.5 538.1,269.2 538.9,269.0 539.7,269.1 540.6,269.2 541.4,269.4 542.2,269.3 543.0,269.2 543.9,269.2 544.7,269.1 545.5,269.0 546.3,269.1 547.2,269.1 548.0,266.8 548.8,266.6 549.7,266.5 550.5,266.5 551.3,266.3 552.1,266.3 553.0,266.3 553.8,266.4 554.6,266.5 555.4,266.5 556.3,266.6 557.1,266.6 557.9,266.5 558.7,266.7 559.6,266.7 560.4,266.8 561.2,266.6 562.1,266.5 562.9,266.5 563.7,266.5 564.5,256.8 565.4,256.8 566.2,256.7 567.0,256.5 567.8,256.4 568.7,256.4 569.5,256.3 570.3,256.3 571.1,256.2 572.0,256.1 572.8,256.0 573.6,255.9 574.5,255.7 575.3,255.6 576.1,255.5 576.9,255.4 577.8,255.2 578.6,255.2 579.4,255.1 580.2,254.8 581.1,261.9 581.9,262.0 582.7,262.0 583.5,262.1 584.4,261.9 585.2,261.8 586.0,261.8 586.9,261.7 587.7,261.3 588.5,261.2 589.3,261.2 590.2,261.0 591.0,260.9 591.8,261.0 592.6,260.9 593.5,260.9 594.3,260.9 595.1,260.9 595.9,260.9 596.8,260.7 597.6,263.8 598.4,263.8 599.3,263.6 600.1,263.5 600.9,263.6 601.7,263.5 602.6,263.4 603.4,263.2 604.2,263.1 605.0,263.0 605.9,262.8 606.7,262.8 607.5,262.9 608.3,262.9 609.2,263.0 610.0,263.0 610.8,262.9 611.7,262.8 612.5,262.9 613.3,262.8 614.1,265.0 615.0,264.8 615.8,264.6 616.6,264.7 617.4,264.6 618.3,264.6 619.1,264.6 619.9,264.5 620.7,264.2 621.6,264.1 622.4,264.1 623.2,264.1 624.1,263.5 624.9,263.6 625.7,263.5 626.5,263.5 627.4,263.2 628.2,263.1 629.0,263.0 629.8,262.9 630.7,261.0 631.5,260.9 632.3,260.9 633.1,260.9 634.0,260.8 634.8,260.7 635.6,260.8 636.5,260.8 637.3,261.2 638.1,261.2 638.9,261.3 639.8,261.3 640.6,261.2 641.4,261.2 642.2,261.2 643.1,261.1 643.9,261.2 644.7,261.3 645.5,261.2 646.4,261.3 647.2,264.7 648.0,264.6 648.9,264.6 649.7,264.4 650.5,264.4 651.3,264.3 652.2,264.2 653.0,264.1 653.8,264.0 654.6,264.0 655.5,263.9 656.3,263.9 657.1,263.9 657.9,263.9 658.8,263.9 659.6,263.8 660.4,263.7 661.3,263.6 662.1,263.5 662.9,263.5 663.7,259.3 664.6,259.3 665.4,259.1 666.2,259.0 667.0,258.9 667.9,258.8 668.7,258.8 669.5,258.7 670.3,258.7 671.2,258.7 672.0,258.7 672.8,258.7 673.7,258.7 674.5,258.7 675.3,258.7 676.1,258.6 677.0,258.6 677.8,258.4 678.6,258.3 679.4,258.2 680.3,273.3 681.1,273.3 681.9,273.2 682.7,273.3 683.6,272.8 684.4,272.7 685.2,272.6 686.1,272.7 686.9,272.7 687.7,272.6 688.5,272.5 689.4,272.5 690.2,272.4 691.0,272.3 691.8,272.3 692.7,272.4 693.5,272.3 694.3,272.3 695.1,272.2 696.0,272.5 696.8,271.3 697.6,271.3 698.5,271.2 699.3,271.4 700.1,271.0 700.9,270.7 701.8,270.7 702.6,270.6 703.4,270.9 704.2,270.9 705.1,270.9 705.9,270.9 706.7,270.5 707.5,270.4 708.4,270.3 709.2,270.3 710.0,272.1 710.9,272.1 711.7,272.0 712.5,272.0 713.3,271.8 714.2,271.7 715.0,271.8 715.8,271.9 716.6,273.1 717.5,273.2 718.3,273.3 719.1,273.3 719.9,273.4 720.8,273.5 721.6,273.5 722.4,273.4 723.3,273.5 724.1,273.5 724.9,273.5 725.7,273.6 726.6,273.6 727.4,273.7 728.2,273.7 729.0,273.7 729.9,273.6 730.7,273.5 731.5,273.7 732.3,273.7 733.2,273.7 734.0,273.7 734.8,273.7 735.7,273.8 736.5,273.7 737.3,273.6 738.1,273.6 739.0,273.7 739.8,273.7 740.6,273.7 741.4,273.6 742.3,273.6 743.1,271.9 743.9,271.9 744.7,271.8 745.6,271.8 746.4,271.1 747.2,271.1 748.1,271.0 748.9,271.1 749.7,272.7 750.5,272.6 751.4,272.5 752.2,272.5 753.0,273.9 753.8,273.9 754.7,273.9 755.5,273.8 756.3,273.7 757.1,273.7 758.0,273.8 758.8,273.8 759.6,273.8 760.5,273.7 761.3,273.6 762.1,273.6 762.9,266.3 763.8,266.2 764.6,266.2 765.4,266.3 766.2,266.5 767.1,266.5 767.9,266.6 768.7,266.6 769.5,266.4 770.4,266.4 771.2,266.4 772.0,266.3 772.9,266.2 773.7,266.0 774.5,266.1 775.3,266.1 776.2,266.0 777.0,266.1 777.8,266.2 778.6,266.4 779.5,267.2 780.3,267.1 781.1,267.0 781.9,267.0 782.8,267.0 783.6,266.9 784.4,266.9 785.3,266.7 786.1,266.7 786.9,266.6 787.7,266.7 788.6,266.5 789.4,266.6 790.2,266.5 791.0,266.5 791.9,266.5 792.7,266.5 793.5,266.4 794.3,266.5 795.2,266.5 796.0,274.0"/>
<text x="640" y="56" font-family="Arial" font-size="12" fill="#0f766e">ekf_dropout_robust velocity error</text>
</svg>