<svg xmlns="http://www.w3.org/2000/svg" width="820" height="320" viewBox="0 0 820 320">
<rect width="100%" height="100%" fill="white"/>
<text x="52" y="30" font-family="Arial" font-size="18" font-weight="700">ekf_nominal velocity error</text>
<line x1="52" y1="274" x2="796" y2="274" stroke="#263238"/>
<line x1="52" y1="42" x2="52" y2="274" stroke="#263238"/>
<text x="52" y="306" font-family="Arial" font-size="12">time (s)</text>
<text x="630" y="306" font-family="Arial" font-size="12">m/s</text>

<rect x="349.6" y="42" width="148.8" height="232" fill="#fef3c7" opacity="0.72"/>
<polyline fill="none" stroke="#0f766e" stroke-width="2.3" points="52.0,258.5 52.8,258.4 53.7,258.3 54.5,258.3 55.3,252.7 56.1,252.8 57.0,252.8 57.8,252.7 58.6,253.3 59.4,253.2 60.3,252.8 61.1,252.7 61.9,258.0 62.7,257.8 63.6,257.7 64.4,257.7 65.2,247.8 66.1,247.7 66.9,247.6 67.7,247.4 68.5,43.1 69.4,43.1 70.2,43.0 71.0,42.9 71.8,43.0 72.7,42.9 73.5,42.8 74.3,42.7 75.1,42.8 76.0,42.7 76.8,42.6 77.6,42.5 78.5,42.4 79.3,42.3 80.1,42.3 80.9,42.3 81.8,42.3 82.6,42.1 83.4,42.1 84.2,42.0 85.1,117.8 85.9,117.7 86.7,117.7 87.5,117.8 88.4,117.8 89.2,117.9 90.0,118.0 90.9,118.1 91.7,118.0 92.5,118.0 93.3,117.9 94.2,117.9 95.0,117.8 95.8,117.9 96.6,118.0 97.5,117.9 98.3,118.0 99.1,118.0 99.9,118.0 100.8,118.0 101.6,150.7 102.4,150.9 103.3,151.0 104.1,151.1 104.9,151.5 105.7,151.7 106.6,151.7 107.4,151.8 108.2,151.9 109.0,152.0 109.9,152.1 110.7,152.2 111.5,152.4 112.3,152.4 113.2,152.6 114.0,152.7 114.8,152.8 115.7,153.0 116.5,153.0 117.3,153.2 118.1,202.6 119.0,203.0 119.8,203.4 120.6,203.8 121.4,204.4 122.3,204.8 123.1,205.3 123.9,205.5 124.7,206.0 125.6,206.3 126.4,206.6 127.2,206.9 128.1,206.9 128.9,207.2 129.7,207.6 130.5,208.1 131.4,208.4 132.2,208.7 133.0,209.0 133.8,209.4 134.7,238.7 135.5,238.9 136.3,239.2 137.1,239.5 138.0,240.6 138.8,240.8 139.6,241.0 140.5,241.2 141.3,241.3 142.1,241.6 142.9,241.9 143.8,242.1 144.6,242.2 145.4,242.3 146.2,242.5 147.1,242.7 147.9,242.8 148.7,242.8 149.5,242.9 150.4,243.0 151.2,269.4 152.0,268.9 152.9,268.5 153.7,268.0 154.5,265.0 155.3,264.4 156.2,263.9 157.0,263.5 157.8,265.3 158.6,264.5 159.5,263.9 160.3,263.1 161.1,262.0 161.9,261.2 162.8,260.4 163.6,259.6 164.4,259.5 165.3,258.8 166.1,258.0 166.9,257.2 167.7,255.3 168.6,254.7 169.4,253.9 170.2,253.2 171.0,253.2 171.9,252.5 172.7,251.8 173.5,251.0 174.3,250.2 175.2,249.5 176.0,248.8 176.8,248.0 177.7,247.3 178.5,246.5 179.3,245.7 180.1,244.9 181.0,244.1 181.8,243.4 182.6,242.6 183.4,241.7 184.3,201.9 185.1,200.8 185.9,199.5 186.7,198.3 187.6,197.2 188.4,196.1 189.2,195.0 190.1,194.0 190.9,192.8 191.7,191.6 192.5,190.6 193.4,189.5 194.2,188.4 195.0,187.3 195.8,186.2 196.7,185.0 197.5,183.8 198.3,182.8 199.1,181.6 200.0,180.6 200.8,204.9 201.6,204.0 202.5,203.0 203.3,202.0 204.1,201.2 204.9,200.2 205.8,199.3 206.6,198.4 207.4,197.5 208.2,196.6 209.1,195.7 209.9,194.8 210.7,193.9 211.5,193.0 212.4,192.1 213.2,191.2 214.0,190.2 214.9,189.1 215.7,188.2 216.5,187.2 217.3,202.5 218.2,201.7 219.0,200.8 219.8,200.1 220.6,199.1 221.5,198.2 222.3,197.4 223.1,196.5 223.9,195.8 224.8,194.9 225.6,194.2 226.4,193.3 227.3,192.4 228.1,191.6 228.9,190.8 229.7,190.0 230.6,189.1 231.4,188.2 232.2,187.4 233.0,186.7 233.9,197.4 234.7,196.8 235.5,196.1 236.3,195.3 237.2,194.5 238.0,193.9 238.8,193.0 239.7,192.3 240.5,191.7 241.3,190.9 242.1,190.1 243.0,189.3 243.8,188.7 244.6,188.0 245.4,187.2 246.3,186.5 247.1,185.7 247.9,185.1 248.7,184.3 249.6,183.5 250.4,210.8 251.2,210.3 252.1,209.7 252.9,209.0 253.7,208.4 254.5,207.7 255.4,207.0 256.2,206.5 257.0,205.9 257.8,205.4 258.7,204.9 259.5,204.3 260.3,203.8 261.1,203.2 262.0,202.7 262.8,202.1 263.6,201.5 264.5,201.0 265.3,200.4 266.1,199.8 266.9,218.4 267.8,217.9 268.6,217.3 269.4,216.8 270.2,216.3 271.1,215.8 271.9,215.3 272.7,214.8 273.5,214.4 274.4,214.0 275.2,213.6 276.0,213.1 276.9,212.7 277.7,212.3 278.5,211.7 279.3,211.3 280.2,210.8 281.0,210.3 281.8,209.8 282.6,209.3 283.5,248.0 284.3,247.8 285.1,247.6 285.9,247.4 286.8,247.2 287.6,247.1 288.4,246.8 289.3,246.5 290.1,246.1 290.9,245.9 291.7,245.6 292.6,245.4 293.4,245.4 294.2,245.3 295.0,245.1 295.9,244.8 296.7,244.4 297.5,244.1 298.3,243.9 299.2,243.7 300.0,251.2 300.8,251.0 301.7,250.7 302.5,250.6 303.3,250.3 304.1,250.1 305.0,249.8 305.8,249.6 306.6,249.5 307.4,249.3 308.3,249.2 309.1,248.9 309.9,248.7 310.7,248.6 311.6,248.5 312.4,248.2 313.2,248.2 314.1,248.0 314.9,247.9 315.7,247.6 316.5,253.4 317.4,253.2 318.2,253.1 319.0,253.0 319.8,253.0 320.7,252.9 321.5,252.7 322.3,252.5 323.1,252.2 324.0,252.0 324.8,251.8 325.6,251.7 326.5,251.5 327.3,251.4 328.1,251.3 328.9,251.1 329.8,251.0 330.6,250.9 331.4,250.8 332.2,250.6 333.1,262.4 333.9,262.3 334.7,262.3 335.5,262.2 336.4,262.0 337.2,261.8 338.0,261.7 338.9,261.7 339.7,261.5 340.5,261.4 341.3,261.3 342.2,261.3 343.0,261.2 343.8,261.2 344.6,261.1 345.5,261.0 346.3,260.8 347.1,260.7 347.9,260.6 348.8,260.5 349.6,260.7 350.4,260.6 351.3,260.5 352.1,260.4 352.9,260.4 353.7,260.5 354.6,260.5 355.4,260.3 356.2,260.2 357.0,260.2 357.9,260.2 358.7,260.1 359.5,260.0 360.3,259.8 361.2,259.7 362.0,259.6 362.8,259.3 363.7,259.1 364.5,259.0 365.3,258.9 366.1,258.8 367.0,258.7 367.8,258.5 368.6,258.4 369.4,258.2 370.3,258.2 371.1,258.1 371.9,258.1 372.7,258.0 373.6,257.9 374.4,257.8 375.2,257.8 376.1,257.8 376.9,257.7 377.7,257.7 378.5,257.5 379.4,257.4 380.2,257.3 381.0,257.4 381.8,257.4 382.7,257.2 383.5,257.0 384.3,256.9 385.1,256.7 386.0,256.5 386.8,256.5 387.6,256.3 388.5,256.2 389.3,256.1 390.1,256.1 390.9,255.9 391.8,255.6 392.6,255.5 393.4,255.6 394.2,255.5 395.1,255.4 395.9,255.4 396.7,255.3 397.5,255.3 398.4,255.1 399.2,254.9 400.0,254.8 400.9,254.8 401.7,254.7 402.5,254.7 403.3,254.6 404.2,254.4 405.0,254.4 405.8,254.4 406.6,254.2 407.5,254.1 408.3,254.0 409.1,253.9 409.9,253.9 410.8,253.8 411.6,253.7 412.4,253.7 413.3,253.7 414.1,253.6 414.9,253.4 415.7,253.2 416.6,253.1 417.4,253.0 418.2,252.9 419.0,252.7 419.9,252.6 420.7,252.5 421.5,252.5 422.3,252.4 423.2,252.4 424.0,252.1 424.8,252.0 425.7,251.8 426.5,251.7 427.3,251.6 428.1,251.5 429.0,251.4 429.8,251.4 430.6,251.3 431.4,251.2 432.3,251.0 433.1,251.0 433.9,250.9 434.7,250.8 435.6,250.7 436.4,250.5 437.2,250.4 438.1,250.4 438.9,250.3 439.7,250.2 440.5,250.1 441.4,250.1 442.2,250.0 443.0,249.8 443.8,249.7 444.7,249.6 445.5,249.4 446.3,249.2 447.1,249.1 448.0,248.9 448.8,248.8 449.6,248.6 450.5,248.6 451.3,248.4 452.1,248.4 452.9,248.3 453.8,248.1 454.6,248.0 455.4,247.9 456.2,247.8 457.1,247.7 457.9,247.6 458.7,247.4 459.5,247.4 460.4,247.3 461.2,247.3 462.0,247.1 462.9,247.0 463.7,247.0 464.5,246.8 465.3,246.7 466.2,246.7 467.0,246.7 467.8,246.6 468.6,246.5 469.5,246.4 470.3,246.3 471.1,246.3 471.9,246.1 472.8,246.0 473.6,245.8 474.4,245.7 475.3,245.5 476.1,245.3 476.9,245.3 477.7,245.3 478.6,245.1 479.4,245.0 480.2,245.0 481.0,245.0 481.9,244.9 482.7,244.8 483.5,244.8 484.3,244.7 485.2,244.6 486.0,244.6 486.8,244.6 487.7,244.4 488.5,244.4 489.3,244.4 490.1,244.3 491.0,244.2 491.8,244.0 492.6,243.9 493.4,243.7 494.3,243.7 495.1,243.7 495.9,243.5 496.7,243.5 497.6,243.4 498.4,243.4 499.2,243.2 500.1,243.0 500.9,242.9 501.7,242.7 502.5,242.6 503.4,242.5 504.2,242.4 505.0,242.3 505.8,242.2 506.7,242.0 507.5,241.9 508.3,241.7 509.1,241.6 510.0,241.5 510.8,241.4 511.6,241.2 512.5,241.2 513.3,241.1 514.1,241.1 514.9,273.2 515.8,273.1 516.6,273.2 517.4,273.3 518.2,273.7 519.1,273.8 519.9,273.8 520.7,273.8 521.5,273.9 522.4,273.9 523.2,274.0 524.0,274.0 524.9,273.9 525.7,274.0 526.5,274.0 527.3,273.9 528.2,273.8 529.0,273.9 529.8,273.8 530.6,273.8 531.5,270.6 532.3,270.5 533.1,270.5 533.9,270.5 534.8,270.2 535.6,270.2 536.4,270.2 537.3,270.2 538.1,270.1 538.9,269.9 539.7,270.0 540.6,270.0 541.4,269.9 542.2,269.8 543.0,269.8 543.9,269.8 544.7,269.7 545.5,269.6 546.3,269.6 547.2,269.7 548.0,268.5 548.8,268.3 549.7,268.3 550.5,268.2 551.3,268.1 552.1,268.2 553.0,268.1 553.8,268.2 554.6,268.3 555.4,268.3 556.3,268.4 557.1,268.4 557.9,268.4 558.7,268.5 559.6,268.5 560.4,268.6 561.2,268.6 562.1,268.5 562.9,268.5 563.7,268.5 564.5,264.4 565.4,264.4 566.2,264.3 567.0,264.2 567.8,264.2 568.7,264.2 569.5,264.2 570.3,264.2 571.1,264.1 572.0,264.1 572.8,264.1 573.6,264.0 574.5,263.8 575.3,263.8 576.1,263.7 576.9,263.6 577.8,263.5 578.6,263.5 579.4,263.5 580.2,263.3 581.1,265.8 581.9,265.9 582.7,265.9 583.5,265.9 584.4,265.8 585.2,265.8 586.0,265.8 586.9,265.7 587.7,265.5 588.5,265.4 589.3,265.4 590.2,265.3 591.0,265.2 591.8,265.3 592.6,265.2 593.5,265.3 594.3,265.2 595.1,265.2 595.9,265.2 596.8,265.1 597.6,266.6 598.4,266.6 599.3,266.5 600.1,266.4 600.9,266.4 601.7,266.4 602.6,266.3 603.4,266.2 604.2,266.1 605.0,266.1 605.9,265.9 606.7,265.9 607.5,266.0 608.3,266.1 609.2,266.1 610.0,266.2 610.8,266.1 611.7,266.1 612.5,266.2 613.3,266.1 614.1,267.1 615.0,267.1 615.8,266.9 616.6,267.0 617.4,267.0 618.3,267.0 619.1,267.0 619.9,266.9 620.7,266.8 621.6,266.8 622.4,266.8 623.2,266.8 624.1,266.6 624.9,266.7 625.7,266.6 626.5,266.6 627.4,266.5 628.2,266.4 629.0,266.3 629.8,266.2 630.7,266.6 631.5,266.6 632.3,266.6 633.1,266.5 634.0,266.5 634.8,266.5 635.6,266.5 636.5,266.5 637.3,266.6 638.1,266.5 638.9,266.6 639.8,266.5 640.6,266.6 641.4,266.5 642.2,266.6 643.1,266.4 643.9,266.5 644.7,266.6 645.5,266.6 646.4,266.7 647.2,267.2 648.0,267.2 648.9,267.2 649.7,267.1 650.5,267.1 651.3,267.1 652.2,267.0 653.0,266.9 653.8,266.8 654.6,266.8 655.5,266.7 656.3,266.7 657.1,266.7 657.9,266.7 658.8,266.8 659.6,266.7 660.4,266.8 661.3,266.8 662.1,266.7 662.9,266.8 663.7,267.0 664.6,267.0 665.4,266.9 666.2,266.9 667.0,266.8 667.9,266.8 668.7,266.8 669.5,266.7 670.3,266.7 671.2,266.7 672.0,266.8 672.8,266.8 673.7,266.7 674.5,266.7 675.3,266.7 676.1,266.7 677.0,266.7 677.8,266.6 678.6,266.6 679.4,266.5 680.3,271.1 681.1,271.1 681.9,271.2 682.7,271.3 683.6,271.0 684.4,270.9 685.2,270.8 686.1,270.8 686.9,270.9 687.7,270.7 688.5,270.7 689.4,270.8 690.2,270.7 691.0,270.7 691.8,270.6 692.7,270.5 693.5,270.6 694.3,270.6 695.1,270.6 696.0,270.7 696.8,269.7 697.6,269.8 698.5,269.7 699.3,269.9 700.1,269.8 700.9,269.6 701.8,269.7 702.6,269.6 703.4,269.7 704.2,269.7 705.1,269.7 705.9,269.7 706.7,269.6 707.5,269.6 708.4,269.6 709.2,269.6 710.0,270.0 710.9,270.1 711.7,270.0 712.5,269.9 713.3,269.9 714.2,269.8 715.0,269.8 715.8,269.9 716.6,270.2 717.5,270.2 718.3,270.3 719.1,270.2 719.9,270.2 720.8,270.2 721.6,270.2 722.4,270.2 723.3,270.2 724.1,270.2 724.9,270.3 725.7,270.3 726.6,270.4 727.4,270.4 728.2,270.4 729.0,270.4 729.9,270.9 730.7,270.8 731.5,270.9 732.3,270.9 733.2,270.9 734.0,270.9 734.8,270.9 735.7,271.0 736.5,270.9 737.3,270.7 738.1,270.7 739.0,270.7 739.8,270.7 740.6,270.8 741.4,270.7 742.3,270.7 743.1,270.2 743.9,270.2 744.7,270.2 745.6,270.2 746.4,270.0 747.2,270.0 748.1,270.0 748.9,270.1 749.7,270.6 750.5,270.5 751.4,270.4 752.2,270.4 753.0,270.8 753.8,270.8 754.7,270.8 755.5,270.7 756.3,270.8 757.1,270.7 758.0,270.7 758.8,270.7 759.6,270.6 760.5,270.5 761.3,270.4 762.1,270.4 762.9,268.9 763.8,268.9 764.6,268.9 765.4,268.9 766.2,269.0 767.1,269.0 767.9,269.0 768.7,269.0 769.5,268.9 770.4,268.8 771.2,268.9 772.0,268.8 772.9,268.8 773.7,268.7 774.5,268.7 775.3,268.8 776.2,268.8 777.0,268.8 777.8,268.7 778.6,268.9 779.5,268.6 780.3,268.5 781.1,268.5 781.9,268.5 782.8,268.6 783.6,268.5 784.4,268.6 785.3,268.4 786.1,268.4 786.9,268.3 787.7,268.4 788.6,268.2 789.4,268.2 790.2,268.2 791.0,268.2 791.9,268.3 792.7,268.3 793.5,268.3 794.3,268.4 795.2,268.4 796.0,271.5"/>
<text x="640" y="56" font-family="Arial" font-size="12" fill="#0f766e">ekf_nominal velocity error</text>
</svg>