<svg xmlns="http://www.w3.org/2000/svg" width="820" height="320" viewBox="0 0 820 320">
<rect width="100%" height="100%" fill="white"/>
<text x="52" y="30" font-family="Arial" font-size="18" font-weight="700">Truth altitude</text>
<line x1="52" y1="274" x2="796" y2="274" stroke="#263238"/>
<line x1="52" y1="42" x2="52" y2="274" stroke="#263238"/>
<text x="52" y="306" font-family="Arial" font-size="12">time (s)</text>
<text x="630" y="306" font-family="Arial" font-size="12">m</text>

<polyline fill="none" stroke="#0f766e" stroke-width="2.3" points="52.0,274.0 53.0,273.9 54.1,273.7 55.1,273.6 56.1,273.5 57.2,273.4 58.2,273.3 59.2,273.1 60.3,273.0 61.3,272.9 62.3,272.8 63.4,272.7 64.4,272.6 65.4,272.4 66.5,272.3 67.5,272.2 68.5,272.1 69.6,272.0 70.6,271.9 71.6,271.8 72.7,271.6 73.7,271.5 74.7,271.4 75.8,271.3 76.8,271.2 77.8,271.0 78.9,270.9 79.9,270.8 80.9,270.6 82.0,270.5 83.0,270.4 84.0,270.2 85.1,270.1 86.1,269.9 87.1,269.8 88.2,269.6 89.2,269.5 90.2,269.3 91.3,269.1 92.3,269.0 93.3,268.8 94.4,268.6 95.4,268.4 96.4,268.2 97.5,268.0 98.5,267.8 99.5,267.6 100.6,267.4 101.6,267.2 102.6,266.9 103.7,266.7 104.7,266.5 105.7,266.2 106.8,266.0 107.8,265.7 108.8,265.4 109.9,265.2 110.9,264.9 111.9,264.6 113.0,264.3 114.0,264.0 115.0,263.7 116.1,263.3 117.1,263.0 118.1,262.7 119.2,262.3 120.2,262.0 121.2,261.6 122.3,261.2 123.3,260.9 124.3,260.5 125.4,260.1 126.4,259.7 127.4,259.2 128.5,258.8 129.5,258.4 130.5,257.9 131.6,257.5 132.6,257.0 133.6,256.5 134.7,256.1 135.7,255.6 136.7,255.1 137.8,254.6 138.8,254.0 139.8,253.5 140.9,253.0 141.9,252.4 142.9,251.8 144.0,251.3 145.0,250.7 146.0,250.1 147.1,249.5 148.1,248.9 149.1,248.2 150.2,247.6 151.2,247.0 152.2,246.3 153.3,245.6 154.3,245.0 155.3,244.3 156.4,243.6 157.4,242.9 158.4,242.1 159.5,241.4 160.5,240.7 161.5,239.9 162.6,239.2 163.6,238.4 164.6,237.6 165.7,236.8 166.7,236.0 167.7,235.2 168.8,234.4 169.8,233.5 170.8,232.7 171.9,231.8 172.9,231.0 173.9,230.1 175.0,229.2 176.0,228.3 177.0,227.4 178.1,226.5 179.1,225.6 180.1,224.6 181.2,223.7 182.2,222.7 183.2,221.8 184.3,220.8 185.3,219.8 186.3,218.8 187.4,217.8 188.4,216.8 189.4,215.8 190.5,214.8 191.5,213.7 192.5,212.7 193.6,211.6 194.6,210.5 195.6,209.5 196.7,208.4 197.7,207.3 198.7,206.2 199.8,205.1 200.8,204.0 201.8,202.9 202.9,201.7 203.9,200.6 204.9,199.4 206.0,198.3 207.0,197.1 208.0,196.0 209.1,194.8 210.1,193.6 211.1,192.4 212.2,191.2 213.2,190.0 214.2,188.8 215.3,187.6 216.3,186.4 217.3,185.2 218.4,184.0 219.4,182.7 220.4,181.5 221.5,180.2 222.5,179.0 223.5,177.7 224.6,176.5 225.6,175.2 226.6,173.9 227.7,172.7 228.7,171.4 229.7,170.1 230.8,168.8 231.8,167.6 232.8,166.3 233.9,165.0 234.9,163.7 235.9,162.4 237.0,161.1 238.0,159.8 239.0,158.5 240.1,157.2 241.1,155.9 242.1,154.6 243.2,153.3 244.2,151.9 245.2,150.6 246.3,149.3 247.3,148.0 248.3,146.7 249.4,145.4 250.4,144.1 251.4,142.8 252.5,141.5 253.5,140.1 254.5,138.8 255.6,137.5 256.6,136.2 257.6,134.9 258.7,133.6 259.7,132.3 260.7,131.0 261.8,129.7 262.8,128.4 263.8,127.1 264.9,125.8 265.9,124.6 266.9,123.3 268.0,122.0 269.0,120.7 270.0,119.5 271.1,118.2 272.1,116.9 273.1,115.7 274.2,114.4 275.2,113.2 276.2,111.9 277.3,110.7 278.3,109.5 279.3,108.2 280.4,107.0 281.4,105.8 282.4,104.6 283.5,103.4 284.5,102.2 285.5,101.0 286.6,99.8 287.6,98.7 288.6,97.5 289.7,96.3 290.7,95.2 291.7,94.1 292.8,92.9 293.8,91.8 294.8,90.7 295.9,89.6 296.9,88.5 297.9,87.4 299.0,86.3 300.0,85.2 301.0,84.2 302.1,83.1 303.1,82.1 304.1,81.1 305.2,80.1 306.2,79.0 307.2,78.1 308.3,77.1 309.3,76.1 310.3,75.1 311.4,74.2 312.4,73.2 313.4,72.3 314.5,71.4 315.5,70.5 316.5,69.6 317.6,68.7 318.6,67.8 319.6,67.0 320.7,66.1 321.7,65.3 322.7,64.5 323.8,63.7 324.8,62.9 325.8,62.1 326.9,61.4 327.9,60.6 328.9,59.9 330.0,59.1 331.0,58.4 332.0,57.7 333.1,57.1 334.1,56.4 335.1,55.7 336.2,55.1 337.2,54.5 338.2,53.9 339.3,53.3 340.3,52.7 341.3,52.1 342.4,51.6 343.4,51.0 344.4,50.5 345.5,50.0 346.5,49.5 347.5,49.0 348.6,48.6 349.6,48.1 350.6,47.7 351.7,47.3 352.7,46.9 353.7,46.5 354.8,46.1 355.8,45.8 356.8,45.4 357.9,45.1 358.9,44.8 359.9,44.5 361.0,44.2 362.0,44.0 363.0,43.7 364.1,43.5 365.1,43.3 366.1,43.1 367.2,42.9 368.2,42.8 369.2,42.6 370.3,42.5 371.3,42.4 372.3,42.3 373.4,42.2 374.4,42.1 375.4,42.1 376.5,42.0 377.5,42.0 378.5,42.0 379.6,42.0 380.6,42.0 381.6,42.1 382.7,42.1 383.7,42.2 384.7,42.3 385.8,42.4 386.8,42.5 387.8,42.6 388.9,42.8 389.9,42.9 390.9,43.1 392.0,43.3 393.0,43.5 394.0,43.7 395.1,44.0 396.1,44.2 397.1,44.5 398.2,44.8 399.2,45.1 400.2,45.4 401.3,45.7 402.3,46.0 403.3,46.4 404.4,46.8 405.4,47.1 406.4,47.5 407.5,47.9 408.5,48.4 409.5,48.8 410.6,49.2 411.6,49.7 412.6,50.2 413.7,50.6 414.7,51.1 415.7,51.7 416.8,52.2 417.8,52.7 418.8,53.3 419.9,53.8 420.9,54.4 421.9,55.0 423.0,55.6 424.0,56.2 425.0,56.8 426.1,57.4 427.1,58.0 428.1,58.7 429.2,59.4 430.2,60.0 431.2,60.7 432.3,61.4 433.3,62.1 434.3,62.8 435.4,63.5 436.4,64.3 437.4,65.0 438.5,65.7 439.5,66.5 440.5,67.3 441.6,68.0 442.6,68.8 443.6,69.6 444.7,70.4 445.7,71.2 446.7,72.0 447.8,72.8 448.8,73.7 449.8,74.5 450.9,75.3 451.9,76.2 452.9,77.0 454.0,77.9 455.0,78.8 456.0,79.6 457.1,80.5 458.1,81.4 459.1,82.3 460.2,83.2 461.2,84.1 462.2,85.0 463.3,85.9 464.3,86.8 465.3,87.7 466.4,88.6 467.4,89.6 468.4,90.5 469.5,91.4 470.5,92.4 471.5,93.3 472.6,94.2 473.6,95.2 474.6,96.1 475.7,97.1 476.7,98.0 477.7,99.0 478.8,99.9 479.8,100.9 480.8,101.8 481.9,102.8 482.9,103.7 483.9,104.7 485.0,105.6 486.0,106.6 487.0,107.5 488.1,108.5 489.1,109.4 490.1,110.4 491.2,111.3 492.2,112.3 493.2,113.2 494.3,114.2 495.3,115.1 496.3,116.1 497.4,117.0 498.4,117.9 499.4,118.9 500.5,119.8 501.5,120.7 502.5,121.7 503.6,122.6 504.6,123.5 505.6,124.4 506.7,125.3 507.7,126.3 508.7,127.2 509.8,128.1 510.8,129.0 511.8,129.8 512.9,130.7 513.9,131.6 514.9,132.5 516.0,133.4 517.0,134.2 518.0,135.1 519.1,135.9 520.1,136.8 521.1,137.6 522.2,138.5 523.2,139.3 524.2,140.1 525.3,140.9 526.3,141.7 527.3,142.5 528.4,143.3 529.4,144.1 530.4,144.9 531.5,145.7 532.5,146.4 533.5,147.2 534.6,147.9 535.6,148.7 536.6,149.4 537.7,150.1 538.7,150.8 539.7,151.6 540.8,152.2 541.8,152.9 542.8,153.6 543.9,154.3 544.9,155.0 545.9,155.6 547.0,156.3 548.0,156.9 549.0,157.5 550.1,158.1 551.1,158.7 552.1,159.3 553.2,159.9 554.2,160.5 555.2,161.1 556.3,161.6 557.3,162.2 558.3,162.7 559.4,163.2 560.4,163.8 561.4,164.3 562.5,164.8 563.5,165.2 564.5,165.7 565.6,166.2 566.6,166.6 567.6,167.1 568.7,167.5 569.7,168.0 570.7,168.4 571.8,168.8 572.8,169.2 573.8,169.5 574.9,169.9 575.9,170.3 576.9,170.6 578.0,171.0 579.0,171.3 580.0,171.6 581.1,171.9 582.1,172.2 583.1,172.5 584.2,172.8 585.2,173.1 586.2,173.3 587.3,173.6 588.3,173.8 589.3,174.0 590.4,174.2 591.4,174.5 592.4,174.6 593.5,174.8 594.5,175.0 595.5,175.2 596.6,175.3 597.6,175.5 598.6,175.6 599.7,175.7 600.7,175.9 601.7,176.0 602.8,176.1 603.8,176.1 604.8,176.2 605.9,176.3 606.9,176.3 607.9,176.4 609.0,176.4 610.0,176.5 611.0,176.5 612.1,176.5 613.1,176.5 614.1,176.5 615.2,176.5 616.2,176.5 617.2,176.4 618.3,176.4 619.3,176.4 620.3,176.3 621.4,176.3 622.4,176.2 623.4,176.1 624.5,176.0 625.5,175.9 626.5,175.8 627.6,175.7 628.6,175.6 629.6,175.5 630.7,175.4 631.7,175.3 632.7,175.1 633.8,175.0 634.8,174.8 635.8,174.7 636.9,174.5 637.9,174.4 638.9,174.2 640.0,174.0 641.0,173.8 642.0,173.7 643.1,173.5 644.1,173.3 645.1,173.1 646.2,172.9 647.2,172.7 648.2,172.5 649.3,172.2 650.3,172.0 651.3,171.8 652.4,171.6 653.4,171.4 654.4,171.1 655.5,170.9 656.5,170.7 657.5,170.4 658.6,170.2 659.6,170.0 660.6,169.7 661.7,169.5 662.7,169.2 663.7,169.0 664.8,168.7 665.8,168.5 666.8,168.3 667.9,168.0 668.9,167.8 669.9,167.5 671.0,167.3 672.0,167.0 673.0,166.8 674.1,166.5 675.1,166.3 676.1,166.1 677.2,165.8 678.2,165.6 679.2,165.4 680.3,165.1 681.3,164.9 682.3,164.7 683.4,164.5 684.4,164.2 685.4,164.0 686.5,163.8 687.5,163.6 688.5,163.4 689.6,163.2 690.6,163.0 691.6,162.8 692.7,162.6 693.7,162.4 694.7,162.3 695.8,162.1 696.8,161.9 697.8,161.8 698.9,161.6 699.9,161.5 700.9,161.3 702.0,161.2 703.0,161.1 704.0,160.9 705.1,160.8 706.1,160.7 707.1,160.6 708.2,160.5 709.2,160.4 710.2,160.4 711.3,160.3 712.3,160.2 713.3,160.2 714.4,160.1 715.4,160.1 716.4,160.1 717.5,160.1 718.5,160.1 719.5,160.1 720.6,160.1 721.6,160.1 722.6,160.1 723.7,160.2 724.7,160.2 725.7,160.3 726.8,160.4 727.8,160.5 728.8,160.6 729.9,160.7 730.9,160.8 731.9,160.9 733.0,161.1 734.0,161.2 735.0,161.4 736.1,161.6 737.1,161.8 738.1,162.0 739.2,162.2 740.2,162.4 741.2,162.7 742.3,163.0 743.3,163.2 744.3,163.5 745.4,163.8 746.4,164.1 747.4,164.4 748.5,164.8 749.5,165.1 750.5,165.5 751.6,165.9 752.6,166.3 753.6,166.7 754.7,167.1 755.7,167.5 756.7,168.0 757.8,168.5 758.8,168.9 759.8,169.4 760.9,169.9 761.9,170.5 762.9,171.0 764.0,171.6 765.0,172.1 766.0,172.7 767.1,173.3 768.1,173.9 769.1,174.6 770.2,175.2 771.2,175.9 772.2,176.6 773.3,177.2 774.3,178.0 775.3,178.7 776.4,179.4 777.4,180.2 778.4,180.9 779.5,181.7 780.5,182.5 781.5,183.4 782.6,184.2 783.6,185.0 784.6,185.9 785.7,186.8 786.7,187.7 787.7,188.6 788.8,189.5 789.8,190.5 790.8,191.4 791.9,192.4 792.9,193.4 793.9,194.4 795.0,195.4 796.0,196.5"/>
<text x="640" y="56" font-family="Arial" font-size="12" fill="#0f766e">Truth altitude</text>
</svg>