<svg xmlns="http://www.w3.org/2000/svg" width="820" height="320" viewBox="0 0 820 320">
<rect width="100%" height="100%" fill="white"/>
<text x="52" y="30" font-family="Arial" font-size="18" font-weight="700">ekf_nominal altitude</text>
<line x1="52" y1="274" x2="796" y2="274" stroke="#263238"/>
<line x1="52" y1="42" x2="52" y2="274" stroke="#263238"/>
<text x="52" y="306" font-family="Arial" font-size="12">time (s)</text>
<text x="630" y="306" font-family="Arial" font-size="12">m</text>

<rect x="630.7" y="42" width="165.3" height="232" fill="#fef3c7" opacity="0.72"/>
<polyline fill="none" stroke="#0f766e" stroke-width="2.3" points="52.0,259.5 53.0,259.4 54.1,259.3 55.1,259.1 56.1,259.0 57.2,258.9 58.2,258.8 59.2,258.7 60.3,258.6 61.3,258.5 62.3,258.4 63.4,258.3 64.4,258.2 65.4,258.1 66.5,258.0 67.5,257.8 68.5,257.7 69.6,257.6 70.6,257.5 71.6,257.4 72.7,257.3 73.7,257.2 74.7,257.1 75.8,257.0 76.8,256.9 77.8,256.8 78.9,256.6 79.9,256.5 80.9,256.4 82.0,256.3 83.0,256.1 84.0,256.0 85.1,255.9 86.1,255.7 87.1,255.6 88.2,255.5 89.2,255.3 90.2,255.2 91.3,255.0 92.3,254.8 93.3,254.7 94.4,254.5 95.4,254.3 96.4,254.2 97.5,254.0 98.5,253.8 99.5,253.6 100.6,253.4 101.6,253.2 102.6,253.0 103.7,252.8 104.7,252.5 105.7,252.3 106.8,252.1 107.8,251.8 108.8,251.6 109.9,251.3 110.9,251.1 111.9,250.8 113.0,250.5 114.0,250.3 115.0,250.0 116.1,249.7 117.1,249.4 118.1,249.1 119.2,248.7 120.2,248.4 121.2,248.1 122.3,247.7 123.3,247.4 124.3,247.0 125.4,246.7 126.4,246.3 127.4,245.9 128.5,245.5 129.5,245.1 130.5,244.7 131.6,244.3 132.6,243.8 133.6,243.4 134.7,243.0 135.7,242.5 136.7,242.0 137.8,241.6 138.8,241.1 139.8,240.6 140.9,240.1 141.9,239.6 142.9,239.1 144.0,238.5 145.0,238.0 146.0,237.5 147.1,236.9 148.1,236.3 149.1,235.8 150.2,235.2 151.2,234.6 152.2,234.0 153.3,233.4 154.3,232.7 155.3,232.1 156.4,231.5 157.4,230.8 158.4,230.1 159.5,229.5 160.5,228.8 161.5,228.1 162.6,227.4 163.6,226.7 164.6,226.0 165.7,225.2 166.7,224.5 167.7,223.7 168.8,223.0 169.8,222.2 170.8,221.4 171.9,220.6 172.9,219.8 173.9,219.0 175.0,218.2 176.0,217.4 177.0,216.6 178.1,215.7 179.1,214.9 180.1,214.0 181.2,213.1 182.2,212.2 183.2,211.4 184.3,210.5 185.3,209.6 186.3,208.6 187.4,207.7 188.4,206.8 189.4,205.8 190.5,204.9 191.5,203.9 192.5,203.0 193.6,202.0 194.6,201.0 195.6,200.0 196.7,199.0 197.7,198.0 198.7,197.0 199.8,196.0 200.8,195.0 201.8,193.9 202.9,192.9 203.9,191.9 204.9,190.8 206.0,189.7 207.0,188.7 208.0,187.6 209.1,186.5 210.1,185.4 211.1,184.3 212.2,183.2 213.2,182.1 214.2,181.0 215.3,179.9 216.3,178.8 217.3,177.7 218.4,176.5 219.4,175.4 220.4,174.2 221.5,173.1 222.5,171.9 223.5,170.8 224.6,169.6 225.6,168.5 226.6,167.3 227.7,166.1 228.7,165.0 229.7,163.8 230.8,162.6 231.8,161.4 232.8,160.2 233.9,159.0 234.9,157.8 235.9,156.7 237.0,155.5 238.0,154.3 239.0,153.1 240.1,151.9 241.1,150.7 242.1,149.4 243.2,148.2 244.2,147.0 245.2,145.8 246.3,144.6 247.3,143.4 248.3,142.2 249.4,141.0 250.4,139.8 251.4,138.6 252.5,137.4 253.5,136.2 254.5,135.0 255.6,133.7 256.6,132.5 257.6,131.3 258.7,130.1 259.7,128.9 260.7,127.7 261.8,126.5 262.8,125.4 263.8,124.2 264.9,123.0 265.9,121.8 266.9,120.6 268.0,119.4 269.0,118.3 270.0,117.1 271.1,115.9 272.1,114.8 273.1,113.6 274.2,112.4 275.2,111.3 276.2,110.2 277.3,109.0 278.3,107.9 279.3,106.8 280.4,105.6 281.4,104.5 282.4,103.4 283.5,102.3 284.5,101.2 285.5,100.1 286.6,99.0 287.6,97.9 288.6,96.9 289.7,95.8 290.7,94.7 291.7,93.7 292.8,92.6 293.8,91.6 294.8,90.6 295.9,89.6 296.9,88.6 297.9,87.6 299.0,86.6 300.0,85.6 301.0,84.6 302.1,83.6 303.1,82.7 304.1,81.7 305.2,80.8 306.2,79.9 307.2,78.9 308.3,78.0 309.3,77.1 310.3,76.2 311.4,75.4 312.4,74.5 313.4,73.6 314.5,72.8 315.5,72.0 316.5,71.1 317.6,70.3 318.6,69.5 319.6,68.7 320.7,68.0 321.7,67.2 322.7,66.4 323.8,65.7 324.8,65.0 325.8,64.3 326.9,63.6 327.9,62.9 328.9,62.2 330.0,61.5 331.0,60.9 332.0,60.2 333.1,59.6 334.1,59.0 335.1,58.4 336.2,57.8 337.2,57.2 338.2,56.6 339.3,56.1 340.3,55.6 341.3,55.0 342.4,54.5 343.4,54.0 344.4,53.6 345.5,53.1 346.5,52.6 347.5,52.2 348.6,51.8 349.6,51.4 350.6,51.0 351.7,50.6 352.7,50.2 353.7,49.9 354.8,49.5 355.8,49.2 356.8,48.9 357.9,48.6 358.9,48.3 359.9,48.0 361.0,47.8 362.0,47.6 363.0,47.3 364.1,47.1 365.1,46.9 366.1,46.8 367.2,46.6 368.2,46.4 369.2,46.3 370.3,46.2 371.3,46.1 372.3,46.0 373.4,45.9 374.4,45.8 375.4,45.8 376.5,45.7 377.5,45.7 378.5,45.7 379.6,45.7 380.6,45.8 381.6,45.8 382.7,45.8 383.7,45.9 384.7,46.0 385.8,46.1 386.8,46.2 387.8,46.3 388.9,46.4 389.9,46.6 390.9,46.8 392.0,46.9 393.0,47.1 394.0,47.3 395.1,47.6 396.1,47.8 397.1,48.0 398.2,48.3 399.2,48.6 400.2,48.8 401.3,49.1 402.3,49.4 403.3,49.8 404.4,50.1 405.4,50.5 406.4,50.8 407.5,51.2 408.5,51.6 409.5,52.0 410.6,52.4 411.6,52.8 412.6,53.2 413.7,53.7 414.7,54.2 415.7,54.6 416.8,55.1 417.8,55.6 418.8,56.1 419.9,56.6 420.9,57.1 421.9,57.7 423.0,58.2 424.0,58.8 425.0,59.3 426.1,59.9 427.1,60.5 428.1,61.1 429.2,61.7 430.2,62.3 431.2,63.0 432.3,63.6 433.3,64.2 434.3,64.9 435.4,65.6 436.4,66.2 437.4,66.9 438.5,67.6 439.5,68.3 440.5,69.0 441.6,69.7 442.6,70.4 443.6,71.2 444.7,71.9 445.7,72.6 446.7,73.4 447.8,74.1 448.8,74.9 449.8,75.7 450.9,76.4 451.9,77.2 452.9,78.0 454.0,78.8 455.0,79.6 456.0,80.4 457.1,81.2 458.1,82.0 459.1,82.9 460.2,83.7 461.2,84.5 462.2,85.3 463.3,86.2 464.3,87.0 465.3,87.9 466.4,88.7 467.4,89.6 468.4,90.4 469.5,91.3 470.5,92.1 471.5,93.0 472.6,93.9 473.6,94.7 474.6,95.6 475.7,96.5 476.7,97.3 477.7,98.2 478.8,99.1 479.8,100.0 480.8,100.8 481.9,101.7 482.9,102.6 483.9,103.5 485.0,104.3 486.0,105.2 487.0,106.1 488.1,107.0 489.1,107.9 490.1,108.7 491.2,109.6 492.2,110.5 493.2,111.4 494.3,112.2 495.3,113.1 496.3,114.0 497.4,114.8 498.4,115.7 499.4,116.6 500.5,117.4 501.5,118.3 502.5,119.1 503.6,120.0 504.6,120.8 505.6,121.7 506.7,122.5 507.7,123.4 508.7,124.2 509.8,125.0 510.8,125.8 511.8,126.7 512.9,127.5 513.9,128.3 514.9,129.1 516.0,129.9 517.0,130.7 518.0,131.5 519.1,132.3 520.1,133.1 521.1,133.8 522.2,134.6 523.2,135.4 524.2,136.1 525.3,136.9 526.3,137.6 527.3,138.4 528.4,139.1 529.4,139.8 530.4,140.5 531.5,141.2 532.5,141.9 533.5,142.6 534.6,143.3 535.6,144.0 536.6,144.7 537.7,145.4 538.7,146.0 539.7,146.7 540.8,147.3 541.8,147.9 542.8,148.6 543.9,149.2 544.9,149.8 545.9,150.4 547.0,151.0 548.0,151.6 549.0,152.2 550.1,152.7 551.1,153.3 552.1,153.8 553.2,154.4 554.2,154.9 555.2,155.4 556.3,155.9 557.3,156.5 558.3,156.9 559.4,157.4 560.4,157.9 561.4,158.4 562.5,158.8 563.5,159.3 564.5,159.7 565.6,160.2 566.6,160.6 567.6,161.0 568.7,161.4 569.7,161.8 570.7,162.2 571.8,162.5 572.8,162.9 573.8,163.2 574.9,163.6 575.9,163.9 576.9,164.2 578.0,164.6 579.0,164.9 580.0,165.2 581.1,165.4 582.1,165.7 583.1,166.0 584.2,166.2 585.2,166.5 586.2,166.7 587.3,167.0 588.3,167.2 589.3,167.4 590.4,167.6 591.4,167.8 592.4,167.9 593.5,168.1 594.5,168.3 595.5,168.4 596.6,168.6 597.6,168.7 598.6,168.8 599.7,168.9 600.7,169.1 601.7,169.2 602.8,169.2 603.8,169.3 604.8,169.4 605.9,169.5 606.9,169.5 607.9,169.6 609.0,169.6 610.0,169.6 611.0,169.6 612.1,169.7 613.1,169.7 614.1,169.7 615.2,169.7 616.2,169.6 617.2,169.6 618.3,169.6 619.3,169.5 620.3,169.5 621.4,169.4 622.4,169.4 623.4,169.3 624.5,169.2 625.5,169.1 626.5,169.1 627.6,169.0 628.6,168.9 629.6,168.7 630.7,168.6 631.7,168.5 632.7,168.4 633.8,168.3 634.8,168.1 635.8,168.0 636.9,167.8 637.9,167.7 638.9,167.5 640.0,167.4 641.0,167.2 642.0,167.0 643.1,166.9 644.1,166.7 645.1,166.5 646.2,166.3 647.2,166.1 648.2,165.9 649.3,165.7 650.3,165.5 651.3,165.3 652.4,165.1 653.4,164.9 654.4,164.7 655.5,164.5 656.5,164.3 657.5,164.1 658.6,163.8 659.6,163.6 660.6,163.4 661.7,163.2 662.7,163.0 663.7,162.7 664.8,162.5 665.8,162.3 666.8,162.1 667.9,161.8 668.9,161.6 669.9,161.4 671.0,161.2 672.0,160.9 673.0,160.7 674.1,160.5 675.1,160.3 676.1,160.0 677.2,159.8 678.2,159.6 679.2,159.4 680.3,159.2 681.3,159.0 682.3,158.8 683.4,158.6 684.4,158.4 685.4,158.2 686.5,158.0 687.5,157.8 688.5,157.6 689.6,157.4 690.6,157.2 691.6,157.0 692.7,156.9 693.7,156.7 694.7,156.5 695.8,156.4 696.8,156.2 697.8,156.1 698.9,155.9 699.9,155.8 700.9,155.7 702.0,155.5 703.0,155.4 704.0,155.3 705.1,155.2 706.1,155.1 707.1,155.0 708.2,154.9 709.2,154.9 710.2,154.8 711.3,154.7 712.3,154.7 713.3,154.6 714.4,154.6 715.4,154.6 716.4,154.5 717.5,154.5 718.5,154.5 719.5,154.5 720.6,154.5 721.6,154.6 722.6,154.6 723.7,154.6 724.7,154.7 725.7,154.7 726.8,154.8 727.8,154.9 728.8,155.0 729.9,155.1 730.9,155.2 731.9,155.3 733.0,155.5 734.0,155.6 735.0,155.8 736.1,155.9 737.1,156.1 738.1,156.3 739.2,156.5 740.2,156.7 741.2,156.9 742.3,157.2 743.3,157.4 744.3,157.7 745.4,158.0 746.4,158.2 747.4,158.5 748.5,158.9 749.5,159.2 750.5,159.5 751.6,159.9 752.6,160.2 753.6,160.6 754.7,161.0 755.7,161.4 756.7,161.8 757.8,162.2 758.8,162.7 759.8,163.1 760.9,163.6 761.9,164.1 762.9,164.6 764.0,165.1 765.0,165.6 766.0,166.2 767.1,166.7 768.1,167.3 769.1,167.9 770.2,168.5 771.2,169.1 772.2,169.7 773.3,170.3 774.3,171.0 775.3,171.7 776.4,172.3 777.4,173.0 778.4,173.8 779.5,174.5 780.5,175.2 781.5,176.0 782.6,176.7 783.6,177.5 784.6,178.3 785.7,179.1 786.7,180.0 787.7,180.8 788.8,181.7 789.8,182.5 790.8,183.4 791.9,184.3 792.9,185.2 793.9,186.2 795.0,187.1 796.0,188.1"/>
<text x="640" y="56" font-family="Arial" font-size="12" fill="#0f766e">truth</text>
<polyline fill="none" stroke="#2563eb" stroke-width="2.3" points="52.0,257.5 53.0,257.5 54.1,257.5 55.1,257.5 56.1,257.4 57.2,273.6 58.2,273.6 59.2,273.9 60.3,273.9 61.3,274.0 62.3,268.6 63.4,268.7 64.4,268.7 65.4,268.8 66.5,269.0 67.5,259.6 68.5,259.7 69.6,259.8 70.6,259.8 71.6,259.9 72.7,262.1 73.7,261.9 74.7,261.8 75.8,261.7 76.8,261.5 77.8,262.7 78.9,262.6 79.9,261.3 80.9,261.0 82.0,260.6 83.0,261.7 84.0,261.3 85.1,260.9 86.1,260.5 87.1,262.4 88.2,263.9 89.2,263.7 90.2,263.5 91.3,263.2 92.3,263.0 93.3,259.3 94.4,257.4 95.4,256.9 96.4,256.3 97.5,255.8 98.5,258.2 99.5,257.6 100.6,259.0 101.6,258.5 102.6,258.0 103.7,257.3 104.7,256.8 105.7,256.2 106.8,255.7 107.8,258.0 108.8,260.3 109.9,260.0 110.9,259.6 111.9,259.2 113.0,258.8 114.0,259.3 115.0,258.9 116.1,258.5 117.1,258.1 118.1,257.7 119.2,254.8 120.2,254.4 121.2,255.6 122.3,255.2 123.3,254.8 124.3,254.5 125.4,254.1 126.4,253.7 127.4,253.3 128.5,254.2 129.5,253.1 130.5,252.7 131.6,252.3 132.6,251.9 133.6,251.6 134.7,246.4 135.7,245.3 136.7,244.7 137.8,244.1 138.8,243.5 139.8,243.2 140.9,242.5 141.9,241.9 142.9,241.2 144.0,240.6 145.0,241.6 146.0,240.9 147.1,240.2 148.1,239.5 149.1,241.0 150.2,239.4 151.2,238.8 152.2,238.1 153.3,237.5 154.3,236.8 155.3,236.8 156.4,236.5 157.4,235.8 158.4,235.2 159.5,234.5 160.5,233.4 161.5,232.7 162.6,231.0 163.6,230.3 164.6,229.5 165.7,230.7 166.7,230.0 167.7,229.2 168.8,228.5 169.8,227.4 170.8,226.5 171.9,225.7 172.9,224.9 173.9,224.0 175.0,223.2 176.0,223.3 177.0,222.5 178.1,221.7 179.1,220.8 180.1,220.0 181.2,219.2 182.2,218.3 183.2,217.9 184.3,217.1 185.3,216.2 186.3,212.8 187.4,211.9 188.4,211.0 189.4,210.1 190.5,209.0 191.5,205.9 192.5,204.9 193.6,204.0 194.6,203.0 195.6,202.0 196.7,200.2 197.7,199.2 198.7,198.2 199.8,197.1 200.8,196.1 201.8,194.5 202.9,193.4 203.9,192.8 204.9,191.8 206.0,190.7 207.0,189.5 208.0,188.4 209.1,187.3 210.1,186.2 211.1,184.4 212.2,183.7 213.2,182.6 214.2,181.5 215.3,180.3 216.3,179.2 217.3,178.6 218.4,177.4 219.4,176.3 220.4,175.2 221.5,174.1 222.5,173.7 223.5,172.6 224.6,170.9 225.6,169.8 226.6,168.6 227.7,165.7 228.7,164.6 229.7,163.4 230.8,162.2 231.8,162.1 232.8,159.9 233.9,158.7 234.9,157.6 235.9,156.5 237.0,155.3 238.0,155.5 239.0,154.5 240.1,153.4 241.1,152.3 242.1,151.2 243.2,148.4 244.2,147.3 245.2,147.3 246.3,146.2 247.3,145.2 248.3,143.9 249.4,142.8 250.4,141.8 251.4,140.7 252.5,138.3 253.5,134.1 254.5,133.0 255.6,131.9 256.6,130.8 257.6,129.6 258.7,128.9 259.7,127.8 260.7,126.7 261.8,125.5 262.8,124.4 263.8,123.2 264.9,122.1 265.9,120.5 266.9,119.4 268.0,118.3 269.0,117.8 270.0,116.7 271.1,115.6 272.1,114.6 273.1,112.0 274.2,109.1 275.2,107.9 276.2,106.8 277.3,105.7 278.3,104.6 279.3,103.6 280.4,102.8 281.4,101.8 282.4,100.7 283.5,99.6 284.5,97.4 285.5,96.3 286.6,95.9 287.6,94.8 288.6,93.8 289.7,93.4 290.7,92.4 291.7,91.4 292.8,90.4 293.8,87.9 294.8,87.1 295.9,86.1 296.9,85.1 297.9,84.1 299.0,83.1 300.0,82.8 301.0,81.9 302.1,81.0 303.1,80.0 304.1,79.1 305.2,78.2 306.2,77.3 307.2,75.3 308.3,74.4 309.3,73.5 310.3,71.2 311.4,70.3 312.4,69.4 313.4,68.6 314.5,68.5 315.5,67.9 316.5,67.0 317.6,66.2 318.6,65.4 319.6,64.6 320.7,63.4 321.7,62.6 322.7,61.8 323.8,61.0 324.8,60.3 325.8,59.9 326.9,59.2 327.9,59.1 328.9,58.4 330.0,57.7 331.0,55.5 332.0,54.8 333.1,54.2 334.1,53.5 335.1,51.4 336.2,50.6 337.2,49.9 338.2,49.3 339.3,48.6 340.3,48.0 341.3,48.0 342.4,47.9 343.4,47.3 344.4,46.7 345.5,46.2 346.5,46.6 347.5,46.1 348.6,47.2 349.6,46.7 350.6,46.3 351.7,47.5 352.7,47.2 353.7,46.8 354.8,46.5 355.8,45.0 356.8,43.3 357.9,43.0 358.9,42.6 359.9,42.3 361.0,42.0 362.0,44.5 363.0,44.3 364.1,44.0 365.1,43.8 366.1,43.6 367.2,44.7 368.2,44.6 369.2,44.3 370.3,44.2 371.3,44.1 372.3,45.4 373.4,45.3 374.4,45.3 375.4,45.2 376.5,44.7 377.5,43.5 378.5,43.5 379.6,43.5 380.6,43.5 381.6,43.6 382.7,45.1 383.7,45.2 384.7,45.3 385.8,45.3 386.8,45.5 387.8,45.8 388.9,45.9 389.9,46.1 390.9,46.2 392.0,46.4 393.0,47.1 394.0,47.3 395.1,47.5 396.1,47.8 397.1,48.5 398.2,50.3 399.2,50.6 400.2,51.0 401.3,51.3 402.3,51.7 403.3,51.7 404.4,52.1 405.4,52.5 406.4,52.9 407.5,53.3 408.5,53.8 409.5,54.3 410.6,54.6 411.6,55.1 412.6,55.6 413.7,57.3 414.7,57.8 415.7,58.3 416.8,58.9 417.8,58.5 418.8,59.4 419.9,60.0 420.9,60.5 421.9,61.1 423.0,61.7 424.0,61.9 425.0,62.6 426.1,63.2 427.1,63.8 428.1,64.5 429.2,64.3 430.2,64.9 431.2,65.9 432.3,66.6 433.3,67.3 434.3,67.2 435.4,67.9 436.4,68.6 437.4,69.3 438.5,69.3 439.5,70.1 440.5,70.9 441.6,71.6 442.6,72.4 443.6,73.1 444.7,72.6 445.7,73.3 446.7,74.0 447.8,74.8 448.8,75.5 449.8,76.6 450.9,77.4 451.9,79.2 452.9,80.0 454.0,80.8 455.0,82.6 456.0,83.4 457.1,84.2 458.1,85.1 459.1,85.3 460.2,88.0 461.2,88.8 462.2,89.7 463.3,90.6 464.3,91.4 465.3,92.4 466.4,93.2 467.4,94.1 468.4,95.0 469.5,95.9 470.5,97.0 471.5,97.9 472.6,98.0 473.6,98.9 474.6,99.8 475.7,99.8 476.7,100.7 477.7,101.6 478.8,102.4 479.8,104.4 480.8,104.2 481.9,105.1 482.9,106.0 483.9,106.9 485.0,107.8 486.0,107.7 487.0,108.8 488.1,109.7 489.1,110.6 490.1,111.5 491.2,111.2 492.2,112.1 493.2,112.0 494.3,112.8 495.3,113.6 496.3,113.2 497.4,114.0 498.4,114.8 499.4,115.6 500.5,116.8 501.5,117.1 502.5,118.0 503.6,118.8 504.6,119.6 505.6,120.4 506.7,121.7 507.7,122.5 508.7,123.3 509.8,124.2 510.8,125.0 511.8,127.5 512.9,128.3 513.9,128.7 514.9,129.5 516.0,130.3 517.0,131.0 518.0,131.8 519.1,132.6 520.1,133.3 521.1,133.4 522.2,137.5 523.2,138.3 524.2,139.0 525.3,139.8 526.3,140.5 527.3,140.6 528.4,141.3 529.4,142.0 530.4,142.7 531.5,143.4 532.5,145.1 533.5,145.8 534.6,147.4 535.6,148.1 536.6,148.8 537.7,148.3 538.7,149.0 539.7,149.7 540.8,150.3 541.8,150.1 542.8,148.8 543.9,149.3 544.9,149.9 545.9,150.5 547.0,151.0 548.0,150.1 549.0,150.6 550.1,151.1 551.1,151.6 552.1,152.0 553.2,152.9 554.2,153.3 555.2,153.9 556.3,154.3 557.3,154.8 558.3,155.3 559.4,155.7 560.4,156.1 561.4,156.5 562.5,157.2 563.5,158.3 564.5,158.7 565.6,159.0 566.6,159.4 567.6,159.8 568.7,160.8 569.7,161.8 570.7,162.1 571.8,162.4 572.8,162.8 573.8,162.9 574.9,163.2 575.9,164.3 576.9,164.6 578.0,164.9 579.0,164.8 580.0,165.1 581.1,165.4 582.1,165.6 583.1,166.0 584.2,165.8 585.2,166.1 586.2,166.3 587.3,166.5 588.3,166.7 589.3,168.4 590.4,168.4 591.4,168.6 592.4,168.8 593.5,169.0 594.5,170.0 595.5,170.2 596.6,171.1 597.6,171.2 598.6,171.4 599.7,169.7 600.7,169.8 601.7,169.9 602.8,170.0 603.8,169.3 604.8,167.9 605.9,167.9 606.9,168.0 607.9,168.0 609.0,168.0 610.0,166.9 611.0,166.9 612.1,166.9 613.1,166.9 614.1,166.9 615.2,168.7 616.2,168.7 617.2,168.7 618.3,168.7 619.3,168.7 620.3,169.4 621.4,169.4 622.4,169.4 623.4,169.4 624.5,169.0 625.5,167.9 626.5,167.8 627.6,167.8 628.6,167.7 629.6,167.6 630.7,170.4 631.7,170.3 632.7,170.2 633.8,170.1 634.8,170.0 635.8,170.1 636.9,170.1 637.9,169.1 638.9,169.0 640.0,168.8 641.0,168.3 642.0,168.1 643.1,168.0 644.1,167.8 645.1,168.0 646.2,169.3 647.2,169.2 648.2,169.0 649.3,168.9 650.3,168.8 651.3,169.9 652.4,170.5 653.4,170.4 654.4,170.3 655.5,170.2 656.5,168.7 657.5,168.6 658.6,167.7 659.6,167.6 660.6,167.4 661.7,167.4 662.7,167.2 663.7,167.1 664.8,166.9 665.8,167.1 666.8,169.2 667.9,169.0 668.9,168.9 669.9,168.8 671.0,168.7 672.0,169.1 673.0,168.7 674.1,168.6 675.1,168.5 676.1,168.3 677.2,169.0 678.2,168.9 679.2,168.5 680.3,168.4 681.3,168.3 682.3,167.4 683.4,167.3 684.4,167.2 685.4,167.1 686.5,167.1 687.5,165.8 688.5,165.8 689.6,165.7 690.6,165.6 691.6,165.5 692.7,165.0 693.7,164.9 694.7,164.8 695.8,164.7 696.8,164.6 697.8,163.5 698.9,163.4 699.9,162.7 700.9,162.6 702.0,162.5 703.0,161.0 704.0,160.9 705.1,160.8 706.1,160.7 707.1,160.8 708.2,161.3 709.2,161.3 710.2,161.3 711.3,161.2 712.3,161.2 713.3,162.9 714.4,163.0 715.4,163.0 716.4,163.1 717.5,163.1 718.5,162.9 719.5,163.0 720.6,162.8 721.6,162.9 722.6,163.0 723.7,164.1 724.7,164.2 725.7,164.3 726.8,164.5 727.8,166.1 728.8,165.0 729.9,165.2 730.9,165.4 731.9,165.6 733.0,165.8 734.0,164.5 735.0,163.7 736.1,163.9 737.1,164.1 738.1,164.3 739.2,164.3 740.2,164.5 741.2,165.9 742.3,166.2 743.3,166.6 744.3,166.4 745.4,166.8 746.4,167.2 747.4,167.5 748.5,167.7 749.5,165.1 750.5,165.5 751.6,165.9 752.6,166.3 753.6,166.7 754.7,169.2 755.7,169.5 756.7,170.0 757.8,170.5 758.8,171.1 759.8,172.3 760.9,172.8 761.9,173.1 762.9,173.7 764.0,174.2 765.0,175.0 766.0,175.6 767.1,176.2 768.1,176.9 769.1,177.8 770.2,178.6 771.2,179.3 772.2,180.0 773.3,180.8 774.3,181.5 775.3,180.5 776.4,181.4 777.4,182.2 778.4,183.0 779.5,183.8 780.5,183.0 781.5,183.8 782.6,183.8 783.6,184.6 784.6,185.5 785.7,187.7 786.7,188.6 787.7,189.5 788.8,190.4 789.8,190.7 790.8,191.3 791.9,192.2 792.9,193.2 793.9,194.2 795.0,195.1 796.0,197.0"/>
<text x="640" y="72" font-family="Arial" font-size="12" fill="#2563eb">estimate</text>
</svg>