<svg xmlns="http://www.w3.org/2000/svg" width="820" height="320" viewBox="0 0 820 320">
<rect width="100%" height="100%" fill="white"/>
<text x="52" y="30" font-family="Arial" font-size="18" font-weight="700">ekf_dropout_robust altitude</text>
<line x1="52" y1="274" x2="796" y2="274" stroke="#263238"/>
<line x1="52" y1="42" x2="52" y2="274" stroke="#263238"/>
<text x="52" y="306" font-family="Arial" font-size="12">time (s)</text>
<text x="630" y="306" font-family="Arial" font-size="12">m</text>

<rect x="630.7" y="42" width="165.3" height="232" fill="#fef3c7" opacity="0.72"/>
<polyline fill="none" stroke="#0f766e" stroke-width="2.3" points="52.0,261.3 53.0,261.2 54.1,261.1 55.1,261.0 56.1,260.8 57.2,260.7 58.2,260.6 59.2,260.5 60.3,260.4 61.3,260.3 62.3,260.2 63.4,260.1 64.4,260.0 65.4,259.9 66.5,259.8 67.5,259.7 68.5,259.5 69.6,259.4 70.6,259.3 71.6,259.2 72.7,259.1 73.7,259.0 74.7,258.9 75.8,258.8 76.8,258.7 77.8,258.6 78.9,258.4 79.9,258.3 80.9,258.2 82.0,258.1 83.0,257.9 84.0,257.8 85.1,257.7 86.1,257.5 87.1,257.4 88.2,257.2 89.2,257.1 90.2,256.9 91.3,256.8 92.3,256.6 93.3,256.5 94.4,256.3 95.4,256.1 96.4,255.9 97.5,255.8 98.5,255.6 99.5,255.4 100.6,255.2 101.6,255.0 102.6,254.7 103.7,254.5 104.7,254.3 105.7,254.1 106.8,253.8 107.8,253.6 108.8,253.3 109.9,253.1 110.9,252.8 111.9,252.6 113.0,252.3 114.0,252.0 115.0,251.7 116.1,251.4 117.1,251.1 118.1,250.8 119.2,250.5 120.2,250.1 121.2,249.8 122.3,249.4 123.3,249.1 124.3,248.7 125.4,248.4 126.4,248.0 127.4,247.6 128.5,247.2 129.5,246.8 130.5,246.4 131.6,246.0 132.6,245.5 133.6,245.1 134.7,244.6 135.7,244.2 136.7,243.7 137.8,243.2 138.8,242.7 139.8,242.2 140.9,241.7 141.9,241.2 142.9,240.7 144.0,240.2 145.0,239.6 146.0,239.1 147.1,238.5 148.1,237.9 149.1,237.4 150.2,236.8 151.2,236.2 152.2,235.6 153.3,234.9 154.3,234.3 155.3,233.7 156.4,233.0 157.4,232.4 158.4,231.7 159.5,231.0 160.5,230.3 161.5,229.6 162.6,228.9 163.6,228.2 164.6,227.5 165.7,226.7 166.7,226.0 167.7,225.2 168.8,224.5 169.8,223.7 170.8,222.9 171.9,222.1 172.9,221.3 173.9,220.5 175.0,219.7 176.0,218.8 177.0,218.0 178.1,217.1 179.1,216.3 180.1,215.4 181.2,214.5 182.2,213.6 183.2,212.7 184.3,211.8 185.3,210.9 186.3,210.0 187.4,209.1 188.4,208.1 189.4,207.2 190.5,206.2 191.5,205.3 192.5,204.3 193.6,203.3 194.6,202.3 195.6,201.3 196.7,200.3 197.7,199.3 198.7,198.3 199.8,197.3 200.8,196.2 201.8,195.2 202.9,194.1 203.9,193.1 204.9,192.0 206.0,190.9 207.0,189.9 208.0,188.8 209.1,187.7 210.1,186.6 211.1,185.5 212.2,184.4 213.2,183.3 214.2,182.1 215.3,181.0 216.3,179.9 217.3,178.7 218.4,177.6 219.4,176.5 220.4,175.3 221.5,174.1 222.5,173.0 223.5,171.8 224.6,170.6 225.6,169.5 226.6,168.3 227.7,167.1 228.7,165.9 229.7,164.7 230.8,163.6 231.8,162.4 232.8,161.2 233.9,160.0 234.9,158.8 235.9,157.6 237.0,156.3 238.0,155.1 239.0,153.9 240.1,152.7 241.1,151.5 242.1,150.3 243.2,149.1 244.2,147.8 245.2,146.6 246.3,145.4 247.3,144.2 248.3,143.0 249.4,141.7 250.4,140.5 251.4,139.3 252.5,138.1 253.5,136.9 254.5,135.7 255.6,134.4 256.6,133.2 257.6,132.0 258.7,130.8 259.7,129.6 260.7,128.4 261.8,127.2 262.8,126.0 263.8,124.8 264.9,123.6 265.9,122.4 266.9,121.2 268.0,120.0 269.0,118.8 270.0,117.6 271.1,116.5 272.1,115.3 273.1,114.1 274.2,112.9 275.2,111.8 276.2,110.6 277.3,109.5 278.3,108.3 279.3,107.2 280.4,106.1 281.4,104.9 282.4,103.8 283.5,102.7 284.5,101.6 285.5,100.5 286.6,99.4 287.6,98.3 288.6,97.2 289.7,96.2 290.7,95.1 291.7,94.0 292.8,93.0 293.8,91.9 294.8,90.9 295.9,89.9 296.9,88.8 297.9,87.8 299.0,86.8 300.0,85.8 301.0,84.9 302.1,83.9 303.1,82.9 304.1,82.0 305.2,81.0 306.2,80.1 307.2,79.1 308.3,78.2 309.3,77.3 310.3,76.4 311.4,75.5 312.4,74.7 313.4,73.8 314.5,73.0 315.5,72.1 316.5,71.3 317.6,70.5 318.6,69.7 319.6,68.9 320.7,68.1 321.7,67.3 322.7,66.5 323.8,65.8 324.8,65.1 325.8,64.3 326.9,63.6 327.9,62.9 328.9,62.2 330.0,61.6 331.0,60.9 332.0,60.3 333.1,59.6 334.1,59.0 335.1,58.4 336.2,57.8 337.2,57.2 338.2,56.7 339.3,56.1 340.3,55.6 341.3,55.0 342.4,54.5 343.4,54.0 344.4,53.5 345.5,53.1 346.5,52.6 347.5,52.2 348.6,51.7 349.6,51.3 350.6,50.9 351.7,50.5 352.7,50.2 353.7,49.8 354.8,49.5 355.8,49.1 356.8,48.8 357.9,48.5 358.9,48.2 359.9,48.0 361.0,47.7 362.0,47.5 363.0,47.3 364.1,47.0 365.1,46.8 366.1,46.7 367.2,46.5 368.2,46.3 369.2,46.2 370.3,46.1 371.3,46.0 372.3,45.9 373.4,45.8 374.4,45.7 375.4,45.7 376.5,45.7 377.5,45.6 378.5,45.6 379.6,45.6 380.6,45.7 381.6,45.7 382.7,45.7 383.7,45.8 384.7,45.9 385.8,46.0 386.8,46.1 387.8,46.2 388.9,46.4 389.9,46.5 390.9,46.7 392.0,46.9 393.0,47.0 394.0,47.3 395.1,47.5 396.1,47.7 397.1,48.0 398.2,48.2 399.2,48.5 400.2,48.8 401.3,49.1 402.3,49.4 403.3,49.7 404.4,50.1 405.4,50.4 406.4,50.8 407.5,51.1 408.5,51.5 409.5,51.9 410.6,52.4 411.6,52.8 412.6,53.2 413.7,53.7 414.7,54.1 415.7,54.6 416.8,55.1 417.8,55.6 418.8,56.1 419.9,56.6 420.9,57.1 421.9,57.7 423.0,58.2 424.0,58.8 425.0,59.4 426.1,60.0 427.1,60.5 428.1,61.2 429.2,61.8 430.2,62.4 431.2,63.0 432.3,63.7 433.3,64.3 434.3,65.0 435.4,65.6 436.4,66.3 437.4,67.0 438.5,67.7 439.5,68.4 440.5,69.1 441.6,69.8 442.6,70.6 443.6,71.3 444.7,72.0 445.7,72.8 446.7,73.5 447.8,74.3 448.8,75.1 449.8,75.8 450.9,76.6 451.9,77.4 452.9,78.2 454.0,79.0 455.0,79.8 456.0,80.6 457.1,81.4 458.1,82.3 459.1,83.1 460.2,83.9 461.2,84.8 462.2,85.6 463.3,86.4 464.3,87.3 465.3,88.1 466.4,89.0 467.4,89.9 468.4,90.7 469.5,91.6 470.5,92.4 471.5,93.3 472.6,94.2 473.6,95.1 474.6,95.9 475.7,96.8 476.7,97.7 477.7,98.6 478.8,99.5 479.8,100.3 480.8,101.2 481.9,102.1 482.9,103.0 483.9,103.9 485.0,104.8 486.0,105.7 487.0,106.5 488.1,107.4 489.1,108.3 490.1,109.2 491.2,110.1 492.2,111.0 493.2,111.9 494.3,112.7 495.3,113.6 496.3,114.5 497.4,115.4 498.4,116.2 499.4,117.1 500.5,118.0 501.5,118.8 502.5,119.7 503.6,120.6 504.6,121.4 505.6,122.3 506.7,123.1 507.7,124.0 508.7,124.8 509.8,125.6 510.8,126.5 511.8,127.3 512.9,128.1 513.9,128.9 514.9,129.8 516.0,130.6 517.0,131.4 518.0,132.2 519.1,133.0 520.1,133.7 521.1,134.5 522.2,135.3 523.2,136.1 524.2,136.8 525.3,137.6 526.3,138.3 527.3,139.1 528.4,139.8 529.4,140.6 530.4,141.3 531.5,142.0 532.5,142.7 533.5,143.4 534.6,144.1 535.6,144.8 536.6,145.5 537.7,146.2 538.7,146.8 539.7,147.5 540.8,148.1 541.8,148.8 542.8,149.4 543.9,150.0 544.9,150.6 545.9,151.2 547.0,151.8 548.0,152.4 549.0,153.0 550.1,153.6 551.1,154.2 552.1,154.7 553.2,155.3 554.2,155.8 555.2,156.3 556.3,156.8 557.3,157.3 558.3,157.8 559.4,158.3 560.4,158.8 561.4,159.3 562.5,159.8 563.5,160.2 564.5,160.7 565.6,161.1 566.6,161.5 567.6,161.9 568.7,162.3 569.7,162.7 570.7,163.1 571.8,163.5 572.8,163.8 573.8,164.2 574.9,164.6 575.9,164.9 576.9,165.2 578.0,165.5 579.0,165.8 580.0,166.1 581.1,166.4 582.1,166.7 583.1,167.0 584.2,167.2 585.2,167.5 586.2,167.7 587.3,167.9 588.3,168.2 589.3,168.4 590.4,168.6 591.4,168.8 592.4,168.9 593.5,169.1 594.5,169.3 595.5,169.4 596.6,169.6 597.6,169.7 598.6,169.8 599.7,170.0 600.7,170.1 601.7,170.2 602.8,170.3 603.8,170.3 604.8,170.4 605.9,170.5 606.9,170.5 607.9,170.6 609.0,170.6 610.0,170.6 611.0,170.7 612.1,170.7 613.1,170.7 614.1,170.7 615.2,170.7 616.2,170.6 617.2,170.6 618.3,170.6 619.3,170.5 620.3,170.5 621.4,170.4 622.4,170.4 623.4,170.3 624.5,170.2 625.5,170.2 626.5,170.1 627.6,170.0 628.6,169.9 629.6,169.8 630.7,169.6 631.7,169.5 632.7,169.4 633.8,169.3 634.8,169.1 635.8,169.0 636.9,168.8 637.9,168.7 638.9,168.5 640.0,168.4 641.0,168.2 642.0,168.0 643.1,167.8 644.1,167.7 645.1,167.5 646.2,167.3 647.2,167.1 648.2,166.9 649.3,166.7 650.3,166.5 651.3,166.3 652.4,166.1 653.4,165.9 654.4,165.7 655.5,165.5 656.5,165.2 657.5,165.0 658.6,164.8 659.6,164.6 660.6,164.4 661.7,164.1 662.7,163.9 663.7,163.7 664.8,163.5 665.8,163.2 666.8,163.0 667.9,162.8 668.9,162.5 669.9,162.3 671.0,162.1 672.0,161.9 673.0,161.6 674.1,161.4 675.1,161.2 676.1,161.0 677.2,160.7 678.2,160.5 679.2,160.3 680.3,160.1 681.3,159.9 682.3,159.7 683.4,159.5 684.4,159.3 685.4,159.1 686.5,158.9 687.5,158.7 688.5,158.5 689.6,158.3 690.6,158.1 691.6,157.9 692.7,157.8 693.7,157.6 694.7,157.4 695.8,157.3 696.8,157.1 697.8,157.0 698.9,156.8 699.9,156.7 700.9,156.6 702.0,156.4 703.0,156.3 704.0,156.2 705.1,156.1 706.1,156.0 707.1,155.9 708.2,155.8 709.2,155.7 710.2,155.7 711.3,155.6 712.3,155.5 713.3,155.5 714.4,155.5 715.4,155.4 716.4,155.4 717.5,155.4 718.5,155.4 719.5,155.4 720.6,155.4 721.6,155.4 722.6,155.5 723.7,155.5 724.7,155.6 725.7,155.6 726.8,155.7 727.8,155.8 728.8,155.9 729.9,156.0 730.9,156.1 731.9,156.2 733.0,156.3 734.0,156.5 735.0,156.6 736.1,156.8 737.1,157.0 738.1,157.2 739.2,157.4 740.2,157.6 741.2,157.8 742.3,158.1 743.3,158.3 744.3,158.6 745.4,158.9 746.4,159.2 747.4,159.5 748.5,159.8 749.5,160.1 750.5,160.4 751.6,160.8 752.6,161.2 753.6,161.5 754.7,161.9 755.7,162.3 756.7,162.8 757.8,163.2 758.8,163.6 759.8,164.1 760.9,164.6 761.9,165.1 762.9,165.6 764.0,166.1 765.0,166.6 766.0,167.2 767.1,167.7 768.1,168.3 769.1,168.9 770.2,169.5 771.2,170.1 772.2,170.7 773.3,171.4 774.3,172.0 775.3,172.7 776.4,173.4 777.4,174.1 778.4,174.8 779.5,175.5 780.5,176.3 781.5,177.0 782.6,177.8 783.6,178.6 784.6,179.4 785.7,180.2 786.7,181.1 787.7,181.9 788.8,182.8 789.8,183.7 790.8,184.6 791.9,185.5 792.9,186.4 793.9,187.3 795.0,188.3 796.0,189.2"/>
<text x="640" y="56" font-family="Arial" font-size="12" fill="#0f766e">truth</text>
<polyline fill="none" stroke="#2563eb" stroke-width="2.3" points="52.0,259.1 53.0,259.1 54.1,259.1 55.1,259.1 56.1,259.0 57.2,273.6 58.2,273.6 59.2,273.9 60.3,273.9 61.3,274.0 62.3,269.6 63.4,269.6 64.4,269.7 65.4,269.8 66.5,270.0 67.5,261.3 68.5,261.4 69.6,261.5 70.6,261.6 71.6,261.7 72.7,263.4 73.7,263.2 74.7,263.1 75.8,263.0 76.8,262.8 77.8,264.0 78.9,263.8 79.9,262.5 80.9,262.2 82.0,261.9 83.0,262.8 84.0,262.4 85.1,262.0 86.1,261.6 87.1,263.6 88.2,265.0 89.2,264.8 90.2,264.6 91.3,264.3 92.3,264.1 93.3,260.6 94.4,257.6 95.4,257.1 96.4,256.5 97.5,255.9 98.5,258.1 99.5,257.5 100.6,258.9 101.6,258.5 102.6,258.0 103.7,257.4 104.7,256.9 105.7,256.4 106.8,255.9 107.8,258.1 108.8,260.3 109.9,259.9 110.9,259.6 111.9,259.2 113.0,258.9 114.0,259.0 115.0,258.7 116.1,258.3 117.1,257.9 118.1,257.5 119.2,255.2 120.2,254.7 121.2,255.8 122.3,255.4 123.3,255.1 124.3,254.9 125.4,254.5 126.4,254.1 127.4,253.8 128.5,254.5 129.5,253.6 130.5,253.3 131.6,253.0 132.6,252.6 133.6,252.3 134.7,247.4 135.7,246.0 136.7,245.5 137.8,244.9 138.8,244.3 139.8,243.9 140.9,243.3 141.9,242.6 142.9,242.0 144.0,241.3 145.0,242.0 146.0,241.3 147.1,240.6 148.1,239.9 149.1,241.4 150.2,240.1 151.2,239.5 152.2,238.9 153.3,238.3 154.3,237.6 155.3,237.6 156.4,237.5 157.4,236.8 158.4,236.2 159.5,235.6 160.5,234.6 161.5,233.9 162.6,232.1 163.6,231.3 164.6,230.6 165.7,231.4 166.7,230.7 167.7,229.9 168.8,229.1 169.8,228.1 170.8,227.2 171.9,226.4 172.9,225.6 173.9,224.7 175.0,223.9 176.0,225.1 177.0,224.3 178.1,223.5 179.1,222.7 180.1,221.9 181.2,221.1 182.2,220.3 183.2,219.7 184.3,218.9 185.3,218.0 186.3,215.2 187.4,214.4 188.4,213.5 189.4,212.6 190.5,211.3 191.5,208.7 192.5,207.8 193.6,206.8 194.6,205.9 195.6,204.9 196.7,202.8 197.7,201.8 198.7,200.8 199.8,199.7 200.8,198.7 201.8,197.2 202.9,196.1 203.9,195.5 204.9,194.4 206.0,193.3 207.0,192.1 208.0,191.0 209.1,189.9 210.1,188.9 211.1,186.9 212.2,186.1 213.2,184.9 214.2,183.8 215.3,182.6 216.3,181.4 217.3,181.4 218.4,180.1 219.4,179.0 220.4,178.0 221.5,176.9 222.5,176.3 223.5,175.2 224.6,173.3 225.6,172.2 226.6,171.0 227.7,168.5 228.7,167.4 229.7,166.3 230.8,165.1 231.8,164.9 232.8,162.9 233.9,161.8 234.9,160.7 235.9,159.6 237.0,158.5 238.0,158.6 239.0,157.6 240.1,156.6 241.1,155.5 242.1,154.5 243.2,152.1 244.2,151.1 245.2,150.8 246.3,149.8 247.3,148.8 248.3,147.6 249.4,146.6 250.4,145.6 251.4,144.6 252.5,141.7 253.5,138.3 254.5,137.2 255.6,136.1 256.6,135.0 257.6,133.9 258.7,132.5 259.7,131.4 260.7,130.2 261.8,129.1 262.8,127.9 263.8,126.6 264.9,125.4 265.9,123.9 266.9,122.7 268.0,121.6 269.0,120.8 270.0,119.7 271.1,118.5 272.1,117.4 273.1,114.8 274.2,112.2 275.2,111.0 276.2,109.8 277.3,108.6 278.3,107.4 279.3,106.7 280.4,105.9 281.4,104.8 282.4,103.7 283.5,102.5 284.5,100.5 285.5,99.3 286.6,99.1 287.6,98.0 288.6,97.0 289.7,96.3 290.7,95.3 291.7,94.2 292.8,93.2 293.8,90.6 294.8,89.5 295.9,88.5 296.9,87.4 297.9,86.3 299.0,85.3 300.0,85.2 301.0,84.2 302.1,83.3 303.1,82.3 304.1,81.3 305.2,80.3 306.2,79.4 307.2,77.4 308.3,76.4 309.3,75.4 310.3,73.4 311.4,72.4 312.4,71.5 313.4,70.5 314.5,70.8 315.5,70.0 316.5,69.1 317.6,68.3 318.6,67.5 319.6,66.6 320.7,65.2 321.7,64.4 322.7,63.5 323.8,62.7 324.8,61.9 325.8,61.3 326.9,60.5 327.9,60.7 328.9,60.0 330.0,59.3 331.0,57.4 332.0,56.7 333.1,56.0 334.1,55.4 335.1,53.0 336.2,52.1 337.2,51.4 338.2,50.7 339.3,50.0 340.3,49.3 341.3,48.8 342.4,48.7 343.4,48.0 344.4,47.4 345.5,46.7 346.5,46.8 347.5,46.1 348.6,47.8 349.6,47.4 350.6,46.9 351.7,47.7 352.7,47.3 353.7,46.9 354.8,46.5 355.8,44.9 356.8,43.6 357.9,43.2 358.9,42.8 359.9,42.4 361.0,42.0 362.0,44.5 363.0,44.2 364.1,44.0 365.1,43.8 366.1,43.6 367.2,44.3 368.2,44.2 369.2,43.9 370.3,43.8 371.3,43.7 372.3,44.6 373.4,44.5 374.4,44.4 375.4,44.4 376.5,43.8 377.5,43.0 378.5,42.9 379.6,42.9 380.6,42.9 381.6,42.9 382.7,44.1 383.7,44.1 384.7,44.1 385.8,44.2 386.8,44.3 387.8,44.5 388.9,44.6 389.9,45.0 390.9,45.1 392.0,45.3 393.0,45.8 394.0,46.0 395.1,46.2 396.1,46.4 397.1,47.4 398.2,48.9 399.2,49.2 400.2,49.5 401.3,49.8 402.3,50.2 403.3,50.2 404.4,50.5 405.4,50.9 406.4,51.2 407.5,51.6 408.5,52.2 409.5,52.6 410.6,53.1 411.6,53.5 412.6,54.0 413.7,55.4 414.7,55.9 415.7,56.4 416.8,56.9 417.8,56.5 418.8,57.4 419.9,57.9 420.9,58.4 421.9,58.9 423.0,59.4 424.0,60.6 425.0,61.2 426.1,61.8 427.1,62.5 428.1,63.2 429.2,63.2 430.2,63.9 431.2,64.9 432.3,65.6 433.3,66.4 434.3,66.5 435.4,67.2 436.4,68.0 437.4,68.7 438.5,68.5 439.5,69.4 440.5,70.1 441.6,70.8 442.6,71.6 443.6,72.3 444.7,71.8 445.7,72.5 446.7,73.3 447.8,74.0 448.8,74.7 449.8,75.7 450.9,76.5 451.9,78.6 452.9,79.4 454.0,80.3 455.0,81.8 456.0,82.7 457.1,83.5 458.1,84.4 459.1,84.5 460.2,86.8 461.2,87.6 462.2,88.4 463.3,89.3 464.3,90.1 465.3,91.0 466.4,91.9 467.4,92.7 468.4,93.6 469.5,94.4 470.5,95.5 471.5,96.4 472.6,96.6 473.6,97.4 474.6,98.2 475.7,98.5 476.7,99.4 477.7,100.2 478.8,101.0 479.8,103.4 480.8,103.6 481.9,104.5 482.9,105.4 483.9,106.3 485.0,107.2 486.0,107.5 487.0,108.8 488.1,109.7 489.1,110.7 490.1,111.6 491.2,111.7 492.2,112.6 493.2,112.1 494.3,112.9 495.3,113.7 496.3,113.6 497.4,114.4 498.4,115.2 499.4,116.0 500.5,117.4 501.5,117.8 502.5,118.7 503.6,119.5 504.6,120.3 505.6,121.1 506.7,122.4 507.7,123.3 508.7,124.1 509.8,124.9 510.8,125.8 511.8,127.9 512.9,128.8 513.9,128.9 514.9,129.7 516.0,130.5 517.0,131.3 518.0,132.1 519.1,132.9 520.1,133.7 521.1,133.5 522.2,136.8 523.2,137.6 524.2,138.3 525.3,139.0 526.3,139.7 527.3,140.0 528.4,140.6 529.4,141.3 530.4,141.9 531.5,142.5 532.5,144.0 533.5,144.6 534.6,146.7 535.6,147.4 536.6,148.1 537.7,148.0 538.7,148.6 539.7,149.3 540.8,149.9 541.8,149.6 542.8,148.8 543.9,149.3 544.9,149.9 545.9,150.4 547.0,150.9 548.0,150.3 549.0,150.7 550.1,151.2 551.1,151.6 552.1,152.0 553.2,152.8 554.2,153.2 555.2,154.0 556.3,154.4 557.3,154.8 558.3,155.3 559.4,155.7 560.4,156.1 561.4,156.4 562.5,157.3 563.5,158.2 564.5,158.6 565.6,159.0 566.6,159.3 567.6,159.7 568.7,160.4 569.7,161.7 570.7,162.0 571.8,162.3 572.8,162.6 573.8,162.8 574.9,163.0 575.9,164.5 576.9,164.8 578.0,165.1 579.0,165.2 580.0,165.5 581.1,165.7 582.1,166.0 583.1,166.4 584.2,166.4 585.2,166.6 586.2,166.8 587.3,167.0 588.3,167.3 589.3,168.9 590.4,168.9 591.4,169.2 592.4,169.4 593.5,169.6 594.5,170.4 595.5,170.6 596.6,171.6 597.6,171.8 598.6,172.0 599.7,170.8 600.7,171.0 601.7,171.2 602.8,171.4 603.8,170.2 604.8,169.2 605.9,169.3 606.9,169.3 607.9,169.4 609.0,169.4 610.0,168.8 611.0,168.9 612.1,168.9 613.1,169.0 614.1,169.0 615.2,170.4 616.2,170.4 617.2,170.2 618.3,170.3 619.3,170.3 620.3,170.8 621.4,170.8 622.4,170.8 623.4,170.8 624.5,170.3 625.5,169.5 626.5,169.4 627.6,169.4 628.6,169.3 629.6,169.2 630.7,171.2 631.7,171.0 632.7,170.9 633.8,170.8 634.8,170.7 635.8,170.8 636.9,170.7 637.9,169.5 638.9,169.4 640.0,169.2 641.0,168.7 642.0,168.5 643.1,168.3 644.1,168.1 645.1,168.5 646.2,169.6 647.2,169.5 648.2,169.3 649.3,169.1 650.3,169.0 651.3,170.7 652.4,171.8 653.4,171.7 654.4,171.7 655.5,171.6 656.5,170.4 657.5,170.3 658.6,169.0 659.6,168.8 660.6,168.7 661.7,168.6 662.7,168.5 663.7,168.3 664.8,168.1 665.8,168.4 666.8,170.2 667.9,170.1 668.9,170.0 669.9,169.9 671.0,169.8 672.0,170.1 673.0,169.5 674.1,169.4 675.1,169.3 676.1,169.1 677.2,169.7 678.2,169.6 679.2,169.2 680.3,169.1 681.3,169.0 682.3,168.1 683.4,168.0 684.4,167.9 685.4,167.8 686.5,167.9 687.5,166.7 688.5,166.6 689.6,166.6 690.6,166.5 691.6,166.4 692.7,165.7 693.7,165.5 694.7,165.4 695.8,165.2 696.8,165.1 697.8,163.9 698.9,163.8 699.9,163.2 700.9,163.1 702.0,162.9 703.0,161.4 704.0,161.2 705.1,161.1 706.1,160.9 707.1,161.3 708.2,161.8 709.2,161.8 710.2,161.7 711.3,161.6 712.3,161.6 713.3,164.0 714.4,164.0 715.4,164.0 716.4,164.1 717.5,164.1 718.5,164.0 719.5,164.0 720.6,163.8 721.6,163.8 722.6,163.9 723.7,165.0 724.7,165.1 725.7,165.2 726.8,165.3 727.8,167.5 728.8,166.4 729.9,166.6 730.9,166.9 731.9,167.2 733.0,167.4 734.0,165.5 735.0,163.8 736.1,164.0 737.1,164.2 738.1,164.4 739.2,164.4 740.2,164.6 741.2,166.4 742.3,166.7 743.3,167.1 744.3,167.1 745.4,167.5 746.4,167.9 747.4,168.3 748.5,168.1 749.5,165.7 750.5,166.1 751.6,166.5 752.6,166.9 753.6,167.4 754.7,170.2 755.7,170.5 756.7,171.1 757.8,171.7 758.8,172.3 759.8,173.6 760.9,174.3 761.9,174.0 762.9,174.7 764.0,175.3 765.0,176.1 766.0,176.8 767.1,177.5 768.1,178.2 769.1,179.0 770.2,179.8 771.2,180.6 772.2,181.4 773.3,182.1 774.3,183.0 775.3,181.9 776.4,182.9 777.4,183.8 778.4,184.7 779.5,185.6 780.5,184.7 781.5,185.7 782.6,185.1 783.6,185.9 784.6,186.8 785.7,189.0 786.7,190.0 787.7,190.9 788.8,191.8 789.8,191.8 790.8,192.4 791.9,193.4 792.9,194.3 793.9,195.2 795.0,196.2 796.0,198.6"/>
<text x="640" y="72" font-family="Arial" font-size="12" fill="#2563eb">estimate</text>
</svg>