<svg xmlns="http://www.w3.org/2000/svg" width="820" height="320" viewBox="0 0 820 320">
<rect width="100%" height="100%" fill="white"/>
<text x="52" y="30" font-family="Arial" font-size="18" font-weight="700">adaptive_dropout_robust altitude</text>
<line x1="52" y1="274" x2="796" y2="274" stroke="#263238"/>
<line x1="52" y1="42" x2="52" y2="274" stroke="#263238"/>
<text x="52" y="306" font-family="Arial" font-size="12">time (s)</text>
<text x="630" y="306" font-family="Arial" font-size="12">m</text>

<rect x="630.7" y="42" width="165.3" height="232" fill="#fef3c7" opacity="0.72"/>
<polyline fill="none" stroke="#0f766e" stroke-width="2.3" points="52.0,261.3 53.0,261.2 54.1,261.1 55.1,261.0 56.1,260.8 57.2,260.7 58.2,260.6 59.2,260.5 60.3,260.4 61.3,260.3 62.3,260.2 63.4,260.1 64.4,260.0 65.4,259.9 66.5,259.8 67.5,259.7 68.5,259.6 69.6,259.4 70.6,259.3 71.6,259.2 72.7,259.1 73.7,259.0 74.7,258.9 75.8,258.8 76.8,258.7 77.8,258.6 78.9,258.4 79.9,258.3 80.9,258.2 82.0,258.1 83.0,257.9 84.0,257.8 85.1,257.7 86.1,257.5 87.1,257.4 88.2,257.3 89.2,257.1 90.2,257.0 91.3,256.8 92.3,256.6 93.3,256.5 94.4,256.3 95.4,256.1 96.4,255.9 97.5,255.8 98.5,255.6 99.5,255.4 100.6,255.2 101.6,255.0 102.6,254.8 103.7,254.5 104.7,254.3 105.7,254.1 106.8,253.8 107.8,253.6 108.8,253.4 109.9,253.1 110.9,252.8 111.9,252.6 113.0,252.3 114.0,252.0 115.0,251.7 116.1,251.4 117.1,251.1 118.1,250.8 119.2,250.5 120.2,250.1 121.2,249.8 122.3,249.5 123.3,249.1 124.3,248.7 125.4,248.4 126.4,248.0 127.4,247.6 128.5,247.2 129.5,246.8 130.5,246.4 131.6,246.0 132.6,245.5 133.6,245.1 134.7,244.6 135.7,244.2 136.7,243.7 137.8,243.2 138.8,242.8 139.8,242.3 140.9,241.8 141.9,241.2 142.9,240.7 144.0,240.2 145.0,239.6 146.0,239.1 147.1,238.5 148.1,238.0 149.1,237.4 150.2,236.8 151.2,236.2 152.2,235.6 153.3,235.0 154.3,234.3 155.3,233.7 156.4,233.0 157.4,232.4 158.4,231.7 159.5,231.0 160.5,230.3 161.5,229.6 162.6,228.9 163.6,228.2 164.6,227.5 165.7,226.8 166.7,226.0 167.7,225.3 168.8,224.5 169.8,223.7 170.8,222.9 171.9,222.1 172.9,221.3 173.9,220.5 175.0,219.7 176.0,218.9 177.0,218.0 178.1,217.2 179.1,216.3 180.1,215.4 181.2,214.6 182.2,213.7 183.2,212.8 184.3,211.9 185.3,211.0 186.3,210.0 187.4,209.1 188.4,208.2 189.4,207.2 190.5,206.3 191.5,205.3 192.5,204.3 193.6,203.3 194.6,202.3 195.6,201.4 196.7,200.3 197.7,199.3 198.7,198.3 199.8,197.3 200.8,196.3 201.8,195.2 202.9,194.2 203.9,193.1 204.9,192.0 206.0,191.0 207.0,189.9 208.0,188.8 209.1,187.7 210.1,186.6 211.1,185.5 212.2,184.4 213.2,183.3 214.2,182.2 215.3,181.1 216.3,179.9 217.3,178.8 218.4,177.6 219.4,176.5 220.4,175.3 221.5,174.2 222.5,173.0 223.5,171.9 224.6,170.7 225.6,169.5 226.6,168.3 227.7,167.2 228.7,166.0 229.7,164.8 230.8,163.6 231.8,162.4 232.8,161.2 233.9,160.0 234.9,158.8 235.9,157.6 237.0,156.4 238.0,155.2 239.0,154.0 240.1,152.8 241.1,151.6 242.1,150.3 243.2,149.1 244.2,147.9 245.2,146.7 246.3,145.5 247.3,144.2 248.3,143.0 249.4,141.8 250.4,140.6 251.4,139.4 252.5,138.2 253.5,136.9 254.5,135.7 255.6,134.5 256.6,133.3 257.6,132.1 258.7,130.9 259.7,129.7 260.7,128.4 261.8,127.2 262.8,126.0 263.8,124.8 264.9,123.6 265.9,122.4 266.9,121.3 268.0,120.1 269.0,118.9 270.0,117.7 271.1,116.5 272.1,115.4 273.1,114.2 274.2,113.0 275.2,111.9 276.2,110.7 277.3,109.6 278.3,108.4 279.3,107.3 280.4,106.1 281.4,105.0 282.4,103.9 283.5,102.8 284.5,101.7 285.5,100.6 286.6,99.5 287.6,98.4 288.6,97.3 289.7,96.2 290.7,95.2 291.7,94.1 292.8,93.1 293.8,92.0 294.8,91.0 295.9,89.9 296.9,88.9 297.9,87.9 299.0,86.9 300.0,85.9 301.0,84.9 302.1,84.0 303.1,83.0 304.1,82.0 305.2,81.1 306.2,80.2 307.2,79.2 308.3,78.3 309.3,77.4 310.3,76.5 311.4,75.6 312.4,74.8 313.4,73.9 314.5,73.0 315.5,72.2 316.5,71.4 317.6,70.6 318.6,69.7 319.6,68.9 320.7,68.2 321.7,67.4 322.7,66.6 323.8,65.9 324.8,65.2 325.8,64.4 326.9,63.7 327.9,63.0 328.9,62.3 330.0,61.7 331.0,61.0 332.0,60.4 333.1,59.7 334.1,59.1 335.1,58.5 336.2,57.9 337.2,57.3 338.2,56.8 339.3,56.2 340.3,55.7 341.3,55.1 342.4,54.6 343.4,54.1 344.4,53.6 345.5,53.2 346.5,52.7 347.5,52.3 348.6,51.8 349.6,51.4 350.6,51.0 351.7,50.6 352.7,50.3 353.7,49.9 354.8,49.6 355.8,49.2 356.8,48.9 357.9,48.6 358.9,48.3 359.9,48.1 361.0,47.8 362.0,47.6 363.0,47.4 364.1,47.1 365.1,46.9 366.1,46.8 367.2,46.6 368.2,46.4 369.2,46.3 370.3,46.2 371.3,46.1 372.3,46.0 373.4,45.9 374.4,45.8 375.4,45.8 376.5,45.8 377.5,45.7 378.5,45.7 379.6,45.7 380.6,45.8 381.6,45.8 382.7,45.9 383.7,45.9 384.7,46.0 385.8,46.1 386.8,46.2 387.8,46.3 388.9,46.5 389.9,46.6 390.9,46.8 392.0,47.0 393.0,47.1 394.0,47.4 395.1,47.6 396.1,47.8 397.1,48.1 398.2,48.3 399.2,48.6 400.2,48.9 401.3,49.2 402.3,49.5 403.3,49.8 404.4,50.2 405.4,50.5 406.4,50.9 407.5,51.2 408.5,51.6 409.5,52.0 410.6,52.5 411.6,52.9 412.6,53.3 413.7,53.8 414.7,54.2 415.7,54.7 416.8,55.2 417.8,55.7 418.8,56.2 419.9,56.7 420.9,57.2 421.9,57.8 423.0,58.3 424.0,58.9 425.0,59.5 426.1,60.1 427.1,60.6 428.1,61.2 429.2,61.9 430.2,62.5 431.2,63.1 432.3,63.8 433.3,64.4 434.3,65.1 435.4,65.7 436.4,66.4 437.4,67.1 438.5,67.8 439.5,68.5 440.5,69.2 441.6,69.9 442.6,70.6 443.6,71.4 444.7,72.1 445.7,72.9 446.7,73.6 447.8,74.4 448.8,75.2 449.8,75.9 450.9,76.7 451.9,77.5 452.9,78.3 454.0,79.1 455.0,79.9 456.0,80.7 457.1,81.5 458.1,82.3 459.1,83.2 460.2,84.0 461.2,84.8 462.2,85.7 463.3,86.5 464.3,87.4 465.3,88.2 466.4,89.1 467.4,89.9 468.4,90.8 469.5,91.7 470.5,92.5 471.5,93.4 472.6,94.3 473.6,95.1 474.6,96.0 475.7,96.9 476.7,97.8 477.7,98.7 478.8,99.5 479.8,100.4 480.8,101.3 481.9,102.2 482.9,103.1 483.9,104.0 485.0,104.9 486.0,105.7 487.0,106.6 488.1,107.5 489.1,108.4 490.1,109.3 491.2,110.2 492.2,111.0 493.2,111.9 494.3,112.8 495.3,113.7 496.3,114.6 497.4,115.4 498.4,116.3 499.4,117.2 500.5,118.0 501.5,118.9 502.5,119.8 503.6,120.6 504.6,121.5 505.6,122.3 506.7,123.2 507.7,124.0 508.7,124.9 509.8,125.7 510.8,126.5 511.8,127.4 512.9,128.2 513.9,129.0 514.9,129.8 516.0,130.6 517.0,131.4 518.0,132.2 519.1,133.0 520.1,133.8 521.1,134.6 522.2,135.4 523.2,136.1 524.2,136.9 525.3,137.7 526.3,138.4 527.3,139.2 528.4,139.9 529.4,140.6 530.4,141.3 531.5,142.1 532.5,142.8 533.5,143.5 534.6,144.2 535.6,144.9 536.6,145.5 537.7,146.2 538.7,146.9 539.7,147.5 540.8,148.2 541.8,148.8 542.8,149.5 543.9,150.1 544.9,150.7 545.9,151.3 547.0,151.9 548.0,152.5 549.0,153.1 550.1,153.6 551.1,154.2 552.1,154.8 553.2,155.3 554.2,155.8 555.2,156.4 556.3,156.9 557.3,157.4 558.3,157.9 559.4,158.4 560.4,158.9 561.4,159.3 562.5,159.8 563.5,160.3 564.5,160.7 565.6,161.1 566.6,161.6 567.6,162.0 568.7,162.4 569.7,162.8 570.7,163.2 571.8,163.5 572.8,163.9 573.8,164.3 574.9,164.6 575.9,164.9 576.9,165.3 578.0,165.6 579.0,165.9 580.0,166.2 581.1,166.5 582.1,166.7 583.1,167.0 584.2,167.3 585.2,167.5 586.2,167.8 587.3,168.0 588.3,168.2 589.3,168.4 590.4,168.6 591.4,168.8 592.4,169.0 593.5,169.2 594.5,169.3 595.5,169.5 596.6,169.6 597.6,169.8 598.6,169.9 599.7,170.0 600.7,170.1 601.7,170.2 602.8,170.3 603.8,170.4 604.8,170.5 605.9,170.5 606.9,170.6 607.9,170.6 609.0,170.7 610.0,170.7 611.0,170.7 612.1,170.7 613.1,170.7 614.1,170.7 615.2,170.7 616.2,170.7 617.2,170.7 618.3,170.6 619.3,170.6 620.3,170.5 621.4,170.5 622.4,170.4 623.4,170.4 624.5,170.3 625.5,170.2 626.5,170.1 627.6,170.0 628.6,169.9 629.6,169.8 630.7,169.7 631.7,169.6 632.7,169.4 633.8,169.3 634.8,169.2 635.8,169.0 636.9,168.9 637.9,168.7 638.9,168.6 640.0,168.4 641.0,168.2 642.0,168.1 643.1,167.9 644.1,167.7 645.1,167.5 646.2,167.3 647.2,167.2 648.2,167.0 649.3,166.8 650.3,166.6 651.3,166.4 652.4,166.1 653.4,165.9 654.4,165.7 655.5,165.5 656.5,165.3 657.5,165.1 658.6,164.9 659.6,164.6 660.6,164.4 661.7,164.2 662.7,164.0 663.7,163.7 664.8,163.5 665.8,163.3 666.8,163.1 667.9,162.8 668.9,162.6 669.9,162.4 671.0,162.1 672.0,161.9 673.0,161.7 674.1,161.5 675.1,161.2 676.1,161.0 677.2,160.8 678.2,160.6 679.2,160.4 680.3,160.2 681.3,159.9 682.3,159.7 683.4,159.5 684.4,159.3 685.4,159.1 686.5,158.9 687.5,158.7 688.5,158.5 689.6,158.4 690.6,158.2 691.6,158.0 692.7,157.8 693.7,157.6 694.7,157.5 695.8,157.3 696.8,157.2 697.8,157.0 698.9,156.9 699.9,156.7 700.9,156.6 702.0,156.5 703.0,156.4 704.0,156.3 705.1,156.1 706.1,156.0 707.1,156.0 708.2,155.9 709.2,155.8 710.2,155.7 711.3,155.7 712.3,155.6 713.3,155.6 714.4,155.5 715.4,155.5 716.4,155.5 717.5,155.4 718.5,155.4 719.5,155.4 720.6,155.5 721.6,155.5 722.6,155.5 723.7,155.6 724.7,155.6 725.7,155.7 726.8,155.7 727.8,155.8 728.8,155.9 729.9,156.0 730.9,156.1 731.9,156.3 733.0,156.4 734.0,156.5 735.0,156.7 736.1,156.9 737.1,157.0 738.1,157.2 739.2,157.4 740.2,157.7 741.2,157.9 742.3,158.1 743.3,158.4 744.3,158.6 745.4,158.9 746.4,159.2 747.4,159.5 748.5,159.8 749.5,160.1 750.5,160.5 751.6,160.8 752.6,161.2 753.6,161.6 754.7,162.0 755.7,162.4 756.7,162.8 757.8,163.2 758.8,163.7 759.8,164.1 760.9,164.6 761.9,165.1 762.9,165.6 764.0,166.1 765.0,166.7 766.0,167.2 767.1,167.8 768.1,168.3 769.1,168.9 770.2,169.5 771.2,170.1 772.2,170.8 773.3,171.4 774.3,172.1 775.3,172.7 776.4,173.4 777.4,174.1 778.4,174.8 779.5,175.6 780.5,176.3 781.5,177.1 782.6,177.9 783.6,178.7 784.6,179.5 785.7,180.3 786.7,181.1 787.7,182.0 788.8,182.8 789.8,183.7 790.8,184.6 791.9,185.5 792.9,186.4 793.9,187.4 795.0,188.3 796.0,189.3"/>
<text x="640" y="56" font-family="Arial" font-size="12" fill="#0f766e">truth</text>
<polyline fill="none" stroke="#2563eb" stroke-width="2.3" points="52.0,259.1 53.0,259.1 54.1,259.1 55.1,259.1 56.1,259.0 57.2,273.6 58.2,273.6 59.2,273.9 60.3,273.9 61.3,274.0 62.3,269.6 63.4,269.6 64.4,269.7 65.4,269.8 66.5,270.0 67.5,261.3 68.5,261.4 69.6,261.5 70.6,261.6 71.6,261.7 72.7,263.9 73.7,263.8 74.7,263.6 75.8,263.4 76.8,263.3 77.8,264.5 78.9,264.3 79.9,263.2 80.9,262.8 82.0,262.5 83.0,263.5 84.0,263.1 85.1,262.7 86.1,262.2 87.1,264.2 88.2,265.7 89.2,265.5 90.2,265.3 91.3,265.1 92.3,264.8 93.3,261.2 94.4,258.0 95.4,257.5 96.4,256.9 97.5,256.3 98.5,258.7 99.5,258.0 100.6,259.4 101.6,259.0 102.6,258.5 103.7,257.9 104.7,257.4 105.7,256.9 106.8,256.3 107.8,258.5 108.8,260.8 109.9,260.4 110.9,260.1 111.9,259.7 113.0,259.4 114.0,259.4 115.0,259.1 116.1,258.7 117.1,258.4 118.1,258.0 119.2,255.5 120.2,255.1 121.2,256.0 122.3,255.7 123.3,255.4 124.3,255.2 125.4,254.8 126.4,254.5 127.4,254.1 128.5,254.8 129.5,253.9 130.5,253.6 131.6,253.2 132.6,252.9 133.6,252.6 134.7,247.6 135.7,246.3 136.7,245.7 137.8,245.1 138.8,244.5 139.8,244.2 140.9,243.5 141.9,242.8 142.9,242.2 144.0,241.5 145.0,242.2 146.0,241.6 147.1,240.9 148.1,240.1 149.1,241.6 150.2,240.3 151.2,239.7 152.2,239.1 153.3,238.5 154.3,237.9 155.3,237.7 156.4,237.6 157.4,237.0 158.4,236.4 159.5,235.8 160.5,234.8 161.5,234.1 162.6,232.3 163.6,231.5 164.6,230.8 165.7,231.6 166.7,230.9 167.7,230.1 168.8,229.3 169.8,228.3 170.8,227.4 171.9,226.6 172.9,225.8 173.9,224.9 175.0,224.1 176.0,225.2 177.0,224.5 178.1,223.7 179.1,222.9 180.1,222.1 181.2,221.3 182.2,220.5 183.2,219.9 184.3,219.0 185.3,218.2 186.3,215.4 187.4,214.5 188.4,213.7 189.4,212.8 190.5,211.5 191.5,208.9 192.5,207.9 193.6,207.0 194.6,206.0 195.6,205.1 196.7,203.0 197.7,201.9 198.7,200.9 199.8,199.9 200.8,198.8 201.8,197.3 202.9,196.2 203.9,195.6 204.9,194.5 206.0,193.5 207.0,192.2 208.0,191.2 209.1,190.1 210.1,189.0 211.1,187.0 212.2,186.2 213.2,185.0 214.2,183.9 215.3,182.7 216.3,181.6 217.3,181.5 218.4,180.1 219.4,179.1 220.4,178.1 221.5,177.0 222.5,176.4 223.5,175.4 224.6,173.4 225.6,172.3 226.6,171.2 227.7,168.6 228.7,167.5 229.7,166.4 230.8,165.2 231.8,165.0 232.8,163.0 233.9,161.9 234.9,160.8 235.9,159.7 237.0,158.6 238.0,158.7 239.0,157.7 240.1,156.7 241.1,155.7 242.1,154.7 243.2,152.3 244.2,151.3 245.2,150.9 246.3,149.9 247.3,149.0 248.3,147.7 249.4,146.7 250.4,145.8 251.4,144.8 252.5,141.8 253.5,138.4 254.5,137.3 255.6,136.2 256.6,135.1 257.6,134.0 258.7,132.6 259.7,131.5 260.7,130.3 261.8,129.2 262.8,128.0 263.8,126.7 264.9,125.5 265.9,124.0 266.9,122.8 268.0,121.7 269.0,120.9 270.0,119.8 271.1,118.6 272.1,117.5 273.1,115.0 274.2,112.3 275.2,111.1 276.2,109.9 277.3,108.7 278.3,107.5 279.3,106.8 280.4,106.1 281.4,104.9 282.4,103.8 283.5,102.7 284.5,100.5 285.5,99.4 286.6,99.2 287.6,98.1 288.6,97.1 289.7,96.4 290.7,95.4 291.7,94.4 292.8,93.4 293.8,90.7 294.8,89.7 295.9,88.6 296.9,87.5 297.9,86.4 299.0,85.4 300.0,85.3 301.0,84.3 302.1,83.4 303.1,82.4 304.1,81.5 305.2,80.4 306.2,79.5 307.2,77.5 308.3,76.5 309.3,75.5 310.3,73.4 311.4,72.5 312.4,71.5 313.4,70.6 314.5,70.8 315.5,70.0 316.5,69.2 317.6,68.4 318.6,67.5 319.6,66.7 320.7,65.2 321.7,64.3 322.7,63.5 323.8,62.6 324.8,61.8 325.8,61.3 326.9,60.5 327.9,60.8 328.9,60.1 330.0,59.4 331.0,57.2 332.0,56.5 333.1,55.8 334.1,55.2 335.1,52.6 336.2,51.6 337.2,50.9 338.2,50.1 339.3,49.4 340.3,48.7 341.3,48.8 342.4,48.9 343.4,48.1 344.4,47.4 345.5,46.7 346.5,46.8 347.5,46.2 348.6,47.7 349.6,47.2 350.6,46.7 351.7,47.4 352.7,47.0 353.7,46.6 354.8,46.2 355.8,44.9 356.8,43.7 357.9,43.3 358.9,42.9 359.9,42.5 361.0,42.1 362.0,43.9 363.0,43.6 364.1,43.4 365.1,43.2 366.1,42.9 367.2,43.4 368.2,43.2 369.2,43.0 370.3,42.9 371.3,42.8 372.3,43.4 373.4,43.3 374.4,43.2 375.4,43.2 376.5,42.7 377.5,42.1 378.5,42.1 379.6,42.0 380.6,42.0 381.6,42.0 382.7,42.9 383.7,43.0 384.7,43.0 385.8,43.0 386.8,43.1 387.8,43.4 388.9,43.4 389.9,43.8 390.9,43.9 392.0,44.1 393.0,44.6 394.0,44.8 395.1,45.0 396.1,45.2 397.1,46.2 398.2,47.5 399.2,47.8 400.2,48.1 401.3,48.5 402.3,48.8 403.3,48.8 404.4,49.1 405.4,49.5 406.4,49.9 407.5,50.2 408.5,50.9 409.5,51.3 410.6,51.8 411.6,52.2 412.6,52.7 413.7,54.3 414.7,54.8 415.7,55.3 416.8,55.8 417.8,55.2 418.8,56.2 419.9,56.7 420.9,57.2 421.9,57.7 423.0,58.2 424.0,59.6 425.0,60.2 426.1,60.9 427.1,61.5 428.1,62.2 429.2,62.2 430.2,62.9 431.2,63.9 432.3,64.6 433.3,65.4 434.3,65.4 435.4,66.1 436.4,66.9 437.4,67.7 438.5,67.3 439.5,68.2 440.5,68.9 441.6,69.7 442.6,70.4 443.6,71.1 444.7,70.5 445.7,71.2 446.7,71.9 447.8,72.6 448.8,73.3 449.8,74.5 450.9,75.3 451.9,77.5 452.9,78.4 454.0,79.2 455.0,81.1 456.0,82.0 457.1,82.8 458.1,83.7 459.1,83.7 460.2,86.5 461.2,87.3 462.2,88.1 463.3,89.0 464.3,89.8 465.3,90.9 466.4,91.7 467.4,92.6 468.4,93.4 469.5,94.3 470.5,95.4 471.5,96.3 472.6,96.5 473.6,97.3 474.6,98.1 475.7,98.3 476.7,99.1 477.7,99.9 478.8,100.8 479.8,103.1 480.8,103.2 481.9,104.1 482.9,105.1 483.9,106.0 485.0,106.9 486.0,107.0 487.0,108.4 488.1,109.3 489.1,110.3 490.1,111.2 491.2,111.2 492.2,112.1 493.2,111.7 494.3,112.5 495.3,113.3 496.3,113.0 497.4,113.8 498.4,114.6 499.4,115.4 500.5,116.8 501.5,117.3 502.5,118.1 503.6,118.9 504.6,119.7 505.6,120.5 506.7,121.8 507.7,122.7 508.7,123.5 509.8,124.4 510.8,125.3 511.8,127.6 512.9,128.4 513.9,128.6 514.9,129.4 516.0,130.2 517.0,131.0 518.0,131.7 519.1,132.5 520.1,133.3 521.1,133.2 522.2,136.7 523.2,137.4 524.2,138.1 525.3,138.8 526.3,139.5 527.3,139.9 528.4,140.5 529.4,141.2 530.4,141.8 531.5,142.4 532.5,143.8 533.5,144.4 534.6,146.4 535.6,147.1 536.6,147.7 537.7,147.7 538.7,148.4 539.7,149.0 540.8,149.7 541.8,149.4 542.8,148.7 543.9,149.3 544.9,149.8 545.9,150.3 547.0,150.8 548.0,150.3 549.0,150.7 550.1,151.2 551.1,151.6 552.1,152.0 553.2,152.7 554.2,153.2 555.2,153.9 556.3,154.3 557.3,154.7 558.3,155.2 559.4,155.6 560.4,156.0 561.4,156.4 562.5,157.3 563.5,158.2 564.5,158.6 565.6,159.0 566.6,159.3 567.6,159.7 568.7,160.4 569.7,161.8 570.7,162.1 571.8,162.4 572.8,162.7 573.8,162.8 574.9,163.1 575.9,164.7 576.9,165.0 578.0,165.4 579.0,165.4 580.0,165.7 581.1,166.0 582.1,166.3 583.1,166.6 584.2,166.5 585.2,166.8 586.2,167.0 587.3,167.3 588.3,167.5 589.3,169.2 590.4,169.2 591.4,169.4 592.4,169.7 593.5,169.9 594.5,171.0 595.5,171.2 596.6,172.1 597.6,172.4 598.6,172.6 599.7,170.9 600.7,171.1 601.7,171.3 602.8,171.5 603.8,170.1 604.8,168.7 605.9,168.7 606.9,168.8 607.9,168.8 609.0,168.8 610.0,167.9 611.0,167.9 612.1,168.0 613.1,168.1 614.1,168.1 615.2,169.4 616.2,169.5 617.2,169.3 618.3,169.3 619.3,169.3 620.3,169.8 621.4,169.8 622.4,169.8 623.4,169.8 624.5,169.5 625.5,168.9 626.5,168.8 627.6,168.8 628.6,168.7 629.6,168.6 630.7,169.9 631.7,169.7 632.7,169.7 633.8,169.6 634.8,169.5 635.8,169.5 636.9,169.4 637.9,168.6 638.9,168.5 640.0,168.3 641.0,168.0 642.0,167.9 643.1,167.7 644.1,167.5 645.1,167.7 646.2,168.2 647.2,168.0 648.2,167.9 649.3,167.7 650.3,167.6 651.3,169.1 652.4,169.8 653.4,169.7 654.4,169.6 655.5,169.6 656.5,168.8 657.5,168.7 658.6,167.4 659.6,167.2 660.6,167.1 661.7,167.0 662.7,166.9 663.7,166.7 664.8,166.6 665.8,166.9 666.8,168.2 667.9,168.1 668.9,168.0 669.9,167.9 671.0,167.8 672.0,168.1 673.0,167.6 674.1,167.5 675.1,167.3 676.1,167.2 677.2,167.8 678.2,167.7 679.2,167.3 680.3,167.2 681.3,167.1 682.3,166.3 683.4,166.2 684.4,166.1 685.4,166.0 686.5,166.1 687.5,165.0 688.5,164.9 689.6,164.9 690.6,164.8 691.6,164.7 692.7,163.9 693.7,163.8 694.7,163.6 695.8,163.4 696.8,163.2 697.8,162.0 698.9,161.9 699.9,161.4 700.9,161.2 702.0,161.0 703.0,159.4 704.0,159.2 705.1,159.0 706.1,158.9 707.1,159.4 708.2,160.1 709.2,160.1 710.2,160.0 711.3,159.9 712.3,159.8 713.3,162.7 714.4,162.7 715.4,162.8 716.4,162.8 717.5,162.9 718.5,162.7 719.5,162.8 720.6,162.5 721.6,162.6 722.6,162.7 723.7,163.9 724.7,164.0 725.7,164.1 726.8,164.3 727.8,166.4 728.8,165.3 729.9,165.6 730.9,165.8 731.9,166.1 733.0,166.4 734.0,164.5 735.0,162.7 736.1,162.9 737.1,163.0 738.1,163.3 739.2,163.3 740.2,163.5 741.2,165.3 742.3,165.7 743.3,166.0 744.3,166.1 745.4,166.5 746.4,166.9 747.4,167.3 748.5,167.1 749.5,164.6 750.5,165.0 751.6,165.4 752.6,165.8 753.6,166.3 754.7,169.1 755.7,169.4 756.7,170.1 757.8,170.7 758.8,171.4 759.8,172.7 760.9,173.4 761.9,173.1 762.9,173.8 764.0,174.4 765.0,175.3 766.0,175.9 767.1,176.6 768.1,177.4 769.1,178.1 770.2,179.0 771.2,179.8 772.2,180.6 773.3,181.4 774.3,182.2 775.3,181.2 776.4,182.2 777.4,183.1 778.4,184.0 779.5,184.9 780.5,184.2 781.5,185.1 782.6,184.5 783.6,185.3 784.6,186.2 785.7,188.5 786.7,189.4 787.7,190.3 788.8,191.3 789.8,191.3 790.8,191.9 791.9,192.8 792.9,193.8 793.9,194.7 795.0,195.7 796.0,198.2"/>
<text x="640" y="72" font-family="Arial" font-size="12" fill="#2563eb">estimate</text>
</svg>