<svg xmlns="http://www.w3.org/2000/svg" width="820" height="320" viewBox="0 0 820 320">
<rect width="100%" height="100%" fill="white"/>
<text x="52" y="30" font-family="Arial" font-size="18" font-weight="700">robust_nominal altitude</text>
<line x1="52" y1="274" x2="796" y2="274" stroke="#263238"/>
<line x1="52" y1="42" x2="52" y2="274" stroke="#263238"/>
<text x="52" y="306" font-family="Arial" font-size="12">time (s)</text>
<text x="630" y="306" font-family="Arial" font-size="12">m</text>

<rect x="630.7" y="42" width="165.3" height="232" fill="#fef3c7" opacity="0.72"/>
<polyline fill="none" stroke="#0f766e" stroke-width="2.3" points="52.0,260.5 53.0,260.4 54.1,260.3 55.1,260.2 56.1,260.1 57.2,260.0 58.2,259.8 59.2,259.7 60.3,259.6 61.3,259.5 62.3,259.4 63.4,259.3 64.4,259.2 65.4,259.1 66.5,259.0 67.5,258.9 68.5,258.8 69.6,258.7 70.6,258.6 71.6,258.5 72.7,258.4 73.7,258.2 74.7,258.1 75.8,258.0 76.8,257.9 77.8,257.8 78.9,257.7 79.9,257.6 80.9,257.4 82.0,257.3 83.0,257.2 84.0,257.0 85.1,256.9 86.1,256.8 87.1,256.6 88.2,256.5 89.2,256.3 90.2,256.2 91.3,256.0 92.3,255.9 93.3,255.7 94.4,255.5 95.4,255.4 96.4,255.2 97.5,255.0 98.5,254.8 99.5,254.6 100.6,254.4 101.6,254.2 102.6,254.0 103.7,253.8 104.7,253.6 105.7,253.3 106.8,253.1 107.8,252.9 108.8,252.6 109.9,252.3 110.9,252.1 111.9,251.8 113.0,251.5 114.0,251.3 115.0,251.0 116.1,250.7 117.1,250.4 118.1,250.0 119.2,249.7 120.2,249.4 121.2,249.1 122.3,248.7 123.3,248.4 124.3,248.0 125.4,247.6 126.4,247.3 127.4,246.9 128.5,246.5 129.5,246.1 130.5,245.7 131.6,245.2 132.6,244.8 133.6,244.4 134.7,243.9 135.7,243.5 136.7,243.0 137.8,242.5 138.8,242.0 139.8,241.6 140.9,241.1 141.9,240.5 142.9,240.0 144.0,239.5 145.0,238.9 146.0,238.4 147.1,237.8 148.1,237.3 149.1,236.7 150.2,236.1 151.2,235.5 152.2,234.9 153.3,234.3 154.3,233.6 155.3,233.0 156.4,232.4 157.4,231.7 158.4,231.0 159.5,230.4 160.5,229.7 161.5,229.0 162.6,228.3 163.6,227.6 164.6,226.8 165.7,226.1 166.7,225.4 167.7,224.6 168.8,223.8 169.8,223.1 170.8,222.3 171.9,221.5 172.9,220.7 173.9,219.9 175.0,219.1 176.0,218.2 177.0,217.4 178.1,216.6 179.1,215.7 180.1,214.8 181.2,214.0 182.2,213.1 183.2,212.2 184.3,211.3 185.3,210.4 186.3,209.4 187.4,208.5 188.4,207.6 189.4,206.6 190.5,205.7 191.5,204.7 192.5,203.8 193.6,202.8 194.6,201.8 195.6,200.8 196.7,199.8 197.7,198.8 198.7,197.8 199.8,196.7 200.8,195.7 201.8,194.7 202.9,193.6 203.9,192.6 204.9,191.5 206.0,190.4 207.0,189.4 208.0,188.3 209.1,187.2 210.1,186.1 211.1,185.0 212.2,183.9 213.2,182.8 214.2,181.7 215.3,180.6 216.3,179.4 217.3,178.3 218.4,177.2 219.4,176.0 220.4,174.9 221.5,173.7 222.5,172.6 223.5,171.4 224.6,170.3 225.6,169.1 226.6,167.9 227.7,166.7 228.7,165.6 229.7,164.4 230.8,163.2 231.8,162.0 232.8,160.8 233.9,159.6 234.9,158.4 235.9,157.2 237.0,156.0 238.0,154.8 239.0,153.6 240.1,152.4 241.1,151.2 242.1,150.0 243.2,148.8 244.2,147.5 245.2,146.3 246.3,145.1 247.3,143.9 248.3,142.7 249.4,141.5 250.4,140.3 251.4,139.0 252.5,137.8 253.5,136.6 254.5,135.4 255.6,134.2 256.6,133.0 257.6,131.8 258.7,130.6 259.7,129.4 260.7,128.2 261.8,127.0 262.8,125.8 263.8,124.6 264.9,123.4 265.9,122.2 266.9,121.0 268.0,119.8 269.0,118.6 270.0,117.5 271.1,116.3 272.1,115.1 273.1,114.0 274.2,112.8 275.2,111.6 276.2,110.5 277.3,109.3 278.3,108.2 279.3,107.1 280.4,105.9 281.4,104.8 282.4,103.7 283.5,102.6 284.5,101.5 285.5,100.4 286.6,99.3 287.6,98.2 288.6,97.1 289.7,96.1 290.7,95.0 291.7,93.9 292.8,92.9 293.8,91.9 294.8,90.8 295.9,89.8 296.9,88.8 297.9,87.8 299.0,86.8 300.0,85.8 301.0,84.8 302.1,83.8 303.1,82.9 304.1,81.9 305.2,81.0 306.2,80.1 307.2,79.1 308.3,78.2 309.3,77.3 310.3,76.4 311.4,75.5 312.4,74.7 313.4,73.8 314.5,73.0 315.5,72.1 316.5,71.3 317.6,70.5 318.6,69.7 319.6,68.9 320.7,68.1 321.7,67.3 322.7,66.6 323.8,65.8 324.8,65.1 325.8,64.4 326.9,63.7 327.9,63.0 328.9,62.3 330.0,61.6 331.0,61.0 332.0,60.3 333.1,59.7 334.1,59.1 335.1,58.5 336.2,57.9 337.2,57.3 338.2,56.7 339.3,56.2 340.3,55.6 341.3,55.1 342.4,54.6 343.4,54.1 344.4,53.6 345.5,53.2 346.5,52.7 347.5,52.3 348.6,51.8 349.6,51.4 350.6,51.0 351.7,50.6 352.7,50.3 353.7,49.9 354.8,49.6 355.8,49.3 356.8,48.9 357.9,48.6 358.9,48.4 359.9,48.1 361.0,47.8 362.0,47.6 363.0,47.4 364.1,47.2 365.1,47.0 366.1,46.8 367.2,46.6 368.2,46.5 369.2,46.3 370.3,46.2 371.3,46.1 372.3,46.0 373.4,45.9 374.4,45.9 375.4,45.8 376.5,45.8 377.5,45.8 378.5,45.8 379.6,45.8 380.6,45.8 381.6,45.8 382.7,45.9 383.7,45.9 384.7,46.0 385.8,46.1 386.8,46.2 387.8,46.3 388.9,46.5 389.9,46.6 390.9,46.8 392.0,47.0 393.0,47.2 394.0,47.4 395.1,47.6 396.1,47.8 397.1,48.1 398.2,48.3 399.2,48.6 400.2,48.9 401.3,49.2 402.3,49.5 403.3,49.8 404.4,50.2 405.4,50.5 406.4,50.9 407.5,51.3 408.5,51.6 409.5,52.0 410.6,52.5 411.6,52.9 412.6,53.3 413.7,53.8 414.7,54.2 415.7,54.7 416.8,55.2 417.8,55.7 418.8,56.2 419.9,56.7 420.9,57.2 421.9,57.8 423.0,58.3 424.0,58.9 425.0,59.4 426.1,60.0 427.1,60.6 428.1,61.2 429.2,61.8 430.2,62.4 431.2,63.1 432.3,63.7 433.3,64.4 434.3,65.0 435.4,65.7 436.4,66.4 437.4,67.0 438.5,67.7 439.5,68.4 440.5,69.1 441.6,69.9 442.6,70.6 443.6,71.3 444.7,72.0 445.7,72.8 446.7,73.5 447.8,74.3 448.8,75.1 449.8,75.8 450.9,76.6 451.9,77.4 452.9,78.2 454.0,79.0 455.0,79.8 456.0,80.6 457.1,81.4 458.1,82.2 459.1,83.1 460.2,83.9 461.2,84.7 462.2,85.6 463.3,86.4 464.3,87.2 465.3,88.1 466.4,88.9 467.4,89.8 468.4,90.6 469.5,91.5 470.5,92.4 471.5,93.2 472.6,94.1 473.6,95.0 474.6,95.9 475.7,96.7 476.7,97.6 477.7,98.5 478.8,99.4 479.8,100.2 480.8,101.1 481.9,102.0 482.9,102.9 483.9,103.8 485.0,104.7 486.0,105.5 487.0,106.4 488.1,107.3 489.1,108.2 490.1,109.1 491.2,109.9 492.2,110.8 493.2,111.7 494.3,112.6 495.3,113.5 496.3,114.3 497.4,115.2 498.4,116.1 499.4,116.9 500.5,117.8 501.5,118.7 502.5,119.5 503.6,120.4 504.6,121.2 505.6,122.1 506.7,122.9 507.7,123.8 508.7,124.6 509.8,125.4 510.8,126.3 511.8,127.1 512.9,127.9 513.9,128.7 514.9,129.5 516.0,130.3 517.0,131.1 518.0,131.9 519.1,132.7 520.1,133.5 521.1,134.3 522.2,135.1 523.2,135.8 524.2,136.6 525.3,137.3 526.3,138.1 527.3,138.8 528.4,139.6 529.4,140.3 530.4,141.0 531.5,141.7 532.5,142.4 533.5,143.1 534.6,143.8 535.6,144.5 536.6,145.2 537.7,145.9 538.7,146.5 539.7,147.2 540.8,147.8 541.8,148.5 542.8,149.1 543.9,149.7 544.9,150.3 545.9,150.9 547.0,151.5 548.0,152.1 549.0,152.7 550.1,153.3 551.1,153.8 552.1,154.4 553.2,154.9 554.2,155.5 555.2,156.0 556.3,156.5 557.3,157.0 558.3,157.5 559.4,158.0 560.4,158.5 561.4,158.9 562.5,159.4 563.5,159.9 564.5,160.3 565.6,160.7 566.6,161.2 567.6,161.6 568.7,162.0 569.7,162.4 570.7,162.7 571.8,163.1 572.8,163.5 573.8,163.8 574.9,164.2 575.9,164.5 576.9,164.8 578.0,165.2 579.0,165.5 580.0,165.8 581.1,166.0 582.1,166.3 583.1,166.6 584.2,166.8 585.2,167.1 586.2,167.3 587.3,167.6 588.3,167.8 589.3,168.0 590.4,168.2 591.4,168.4 592.4,168.6 593.5,168.7 594.5,168.9 595.5,169.0 596.6,169.2 597.6,169.3 598.6,169.4 599.7,169.6 600.7,169.7 601.7,169.8 602.8,169.9 603.8,169.9 604.8,170.0 605.9,170.1 606.9,170.1 607.9,170.2 609.0,170.2 610.0,170.2 611.0,170.3 612.1,170.3 613.1,170.3 614.1,170.3 615.2,170.3 616.2,170.3 617.2,170.2 618.3,170.2 619.3,170.2 620.3,170.1 621.4,170.0 622.4,170.0 623.4,169.9 624.5,169.8 625.5,169.8 626.5,169.7 627.6,169.6 628.6,169.5 629.6,169.4 630.7,169.2 631.7,169.1 632.7,169.0 633.8,168.9 634.8,168.7 635.8,168.6 636.9,168.4 637.9,168.3 638.9,168.1 640.0,168.0 641.0,167.8 642.0,167.6 643.1,167.5 644.1,167.3 645.1,167.1 646.2,166.9 647.2,166.7 648.2,166.5 649.3,166.3 650.3,166.1 651.3,165.9 652.4,165.7 653.4,165.5 654.4,165.3 655.5,165.1 656.5,164.9 657.5,164.7 658.6,164.4 659.6,164.2 660.6,164.0 661.7,163.8 662.7,163.5 663.7,163.3 664.8,163.1 665.8,162.9 666.8,162.6 667.9,162.4 668.9,162.2 669.9,162.0 671.0,161.7 672.0,161.5 673.0,161.3 674.1,161.1 675.1,160.8 676.1,160.6 677.2,160.4 678.2,160.2 679.2,160.0 680.3,159.7 681.3,159.5 682.3,159.3 683.4,159.1 684.4,158.9 685.4,158.7 686.5,158.5 687.5,158.3 688.5,158.1 689.6,158.0 690.6,157.8 691.6,157.6 692.7,157.4 693.7,157.3 694.7,157.1 695.8,156.9 696.8,156.8 697.8,156.6 698.9,156.5 699.9,156.3 700.9,156.2 702.0,156.1 703.0,156.0 704.0,155.9 705.1,155.8 706.1,155.7 707.1,155.6 708.2,155.5 709.2,155.4 710.2,155.3 711.3,155.3 712.3,155.2 713.3,155.2 714.4,155.1 715.4,155.1 716.4,155.1 717.5,155.1 718.5,155.1 719.5,155.1 720.6,155.1 721.6,155.1 722.6,155.1 723.7,155.2 724.7,155.2 725.7,155.3 726.8,155.4 727.8,155.4 728.8,155.5 729.9,155.6 730.9,155.7 731.9,155.9 733.0,156.0 734.0,156.2 735.0,156.3 736.1,156.5 737.1,156.7 738.1,156.8 739.2,157.0 740.2,157.3 741.2,157.5 742.3,157.7 743.3,158.0 744.3,158.2 745.4,158.5 746.4,158.8 747.4,159.1 748.5,159.4 749.5,159.7 750.5,160.1 751.6,160.4 752.6,160.8 753.6,161.2 754.7,161.6 755.7,162.0 756.7,162.4 757.8,162.8 758.8,163.3 759.8,163.7 760.9,164.2 761.9,164.7 762.9,165.2 764.0,165.7 765.0,166.2 766.0,166.8 767.1,167.3 768.1,167.9 769.1,168.5 770.2,169.1 771.2,169.7 772.2,170.3 773.3,171.0 774.3,171.6 775.3,172.3 776.4,173.0 777.4,173.7 778.4,174.4 779.5,175.1 780.5,175.9 781.5,176.6 782.6,177.4 783.6,178.2 784.6,179.0 785.7,179.8 786.7,180.6 787.7,181.5 788.8,182.3 789.8,183.2 790.8,184.1 791.9,185.0 792.9,185.9 793.9,186.9 795.0,187.8 796.0,188.8"/>
<text x="640" y="56" font-family="Arial" font-size="12" fill="#0f766e">truth</text>
<polyline fill="none" stroke="#2563eb" stroke-width="2.3" points="52.0,258.8 53.0,258.7 54.1,258.7 55.1,258.7 56.1,258.6 57.2,273.6 58.2,273.6 59.2,273.9 60.3,273.9 61.3,274.0 62.3,268.3 63.4,268.4 64.4,268.4 65.4,268.5 66.5,268.7 67.5,261.1 68.5,261.2 69.6,261.3 70.6,261.4 71.6,261.5 72.7,264.1 73.7,264.0 74.7,263.9 75.8,263.7 76.8,263.6 77.8,264.8 78.9,264.7 79.9,263.3 80.9,263.0 82.0,262.6 83.0,263.7 84.0,263.3 85.1,262.9 86.1,262.5 87.1,264.0 88.2,265.5 89.2,265.3 90.2,265.0 91.3,264.7 92.3,264.4 93.3,261.1 94.4,259.1 95.4,258.6 96.4,258.0 97.5,257.5 98.5,260.1 99.5,259.5 100.6,261.1 101.6,260.7 102.6,260.3 103.7,259.4 104.7,258.9 105.7,258.4 106.8,257.9 107.8,259.6 108.8,262.0 109.9,261.7 110.9,261.3 111.9,260.9 113.0,260.5 114.0,261.0 115.0,260.6 116.1,260.3 117.1,259.9 118.1,259.4 119.2,256.3 120.2,255.8 121.2,257.3 122.3,256.9 123.3,256.5 124.3,256.2 125.4,255.8 126.4,255.3 127.4,254.9 128.5,255.9 129.5,254.8 130.5,254.4 131.6,254.0 132.6,253.6 133.6,253.2 134.7,248.0 135.7,247.2 136.7,246.6 137.8,246.0 138.8,245.4 139.8,245.0 140.9,244.4 141.9,243.7 142.9,243.1 144.0,242.4 145.0,243.4 146.0,242.7 147.1,242.0 148.1,241.3 149.1,242.9 150.2,241.2 151.2,240.6 152.2,239.9 153.3,239.3 154.3,238.6 155.3,238.6 156.4,238.3 157.4,237.6 158.4,237.0 159.5,236.3 160.5,235.1 161.5,234.4 162.6,232.7 163.6,231.9 164.6,231.2 165.7,232.4 166.7,231.6 167.7,230.9 168.8,230.1 169.8,229.0 170.8,228.1 171.9,227.3 172.9,226.5 173.9,225.6 175.0,224.8 176.0,224.8 177.0,224.0 178.1,223.2 179.1,222.3 180.1,221.5 181.2,220.6 182.2,219.8 183.2,219.4 184.3,218.5 185.3,217.6 186.3,214.9 187.4,214.0 188.4,213.1 189.4,212.2 190.5,211.0 191.5,207.9 192.5,207.0 193.6,206.0 194.6,205.0 195.6,204.0 196.7,202.1 197.7,201.1 198.7,200.0 199.8,199.0 200.8,197.9 201.8,196.2 202.9,195.1 203.9,194.6 204.9,193.5 206.0,192.4 207.0,191.2 208.0,190.1 209.1,189.0 210.1,187.9 211.1,186.0 212.2,185.3 213.2,184.2 214.2,183.0 215.3,181.9 216.3,180.7 217.3,179.4 218.4,178.1 219.4,176.9 220.4,175.8 221.5,174.7 222.5,174.3 223.5,173.2 224.6,171.5 225.6,170.4 226.6,169.2 227.7,166.2 228.7,165.0 229.7,163.8 230.8,162.6 231.8,162.7 232.8,160.4 233.9,159.2 234.9,158.0 235.9,156.9 237.0,155.7 238.0,156.0 239.0,155.0 240.1,153.9 241.1,152.8 242.1,151.7 243.2,148.8 244.2,147.7 245.2,147.7 246.3,146.7 247.3,145.6 248.3,144.3 249.4,143.2 250.4,142.1 251.4,141.0 252.5,138.6 253.5,136.0 254.5,134.9 255.6,133.7 256.6,132.6 257.6,131.5 258.7,130.7 259.7,129.5 260.7,128.4 261.8,127.3 262.8,126.1 263.8,124.8 264.9,123.7 265.9,122.1 266.9,121.0 268.0,119.9 269.0,119.4 270.0,118.2 271.1,117.1 272.1,116.1 273.1,113.5 274.2,110.4 275.2,109.2 276.2,108.1 277.3,107.0 278.3,105.8 279.3,104.9 280.4,104.1 281.4,103.0 282.4,101.9 283.5,100.8 284.5,98.5 285.5,97.4 286.6,97.0 287.6,95.9 288.6,94.9 289.7,94.4 290.7,93.4 291.7,92.4 292.8,91.4 293.8,88.9 294.8,88.0 295.9,87.0 296.9,86.0 297.9,85.0 299.0,84.0 300.0,83.7 301.0,82.8 302.1,81.8 303.1,80.9 304.1,79.9 305.2,79.0 306.2,78.1 307.2,76.1 308.3,75.2 309.3,74.3 310.3,71.9 311.4,71.0 312.4,70.1 313.4,69.2 314.5,69.2 315.5,68.5 316.5,67.7 317.6,66.8 318.6,66.0 319.6,65.2 320.7,64.0 321.7,63.2 322.7,62.4 323.8,61.6 324.8,60.8 325.8,60.4 326.9,59.7 327.9,59.6 328.9,58.9 330.0,58.2 331.0,56.0 332.0,55.3 333.1,54.6 334.1,54.0 335.1,51.8 336.2,51.0 337.2,50.3 338.2,49.7 339.3,49.0 340.3,48.4 341.3,48.4 342.4,48.0 343.4,47.4 344.4,46.8 345.5,46.2 346.5,46.7 347.5,46.1 348.6,47.2 349.6,46.8 350.6,46.3 351.7,47.6 352.7,47.2 353.7,46.9 354.8,46.5 355.8,45.0 356.8,43.4 357.9,43.0 358.9,42.7 359.9,42.3 361.0,42.0 362.0,44.5 363.0,44.3 364.1,44.1 365.1,43.9 366.1,43.7 367.2,44.8 368.2,44.6 369.2,44.3 370.3,44.2 371.3,44.1 372.3,45.4 373.4,45.3 374.4,45.3 375.4,45.3 376.5,44.7 377.5,43.6 378.5,43.5 379.6,43.5 380.6,43.5 381.6,43.6 382.7,45.1 383.7,45.2 384.7,45.3 385.8,45.4 386.8,45.5 387.8,45.8 388.9,45.9 389.9,46.1 390.9,46.3 392.0,46.4 393.0,47.1 394.0,47.3 395.1,47.5 396.1,47.8 397.1,48.5 398.2,50.4 399.2,50.7 400.2,51.0 401.3,51.3 402.3,51.7 403.3,51.8 404.4,52.1 405.4,52.5 406.4,52.9 407.5,53.3 408.5,53.9 409.5,54.3 410.6,54.7 411.6,55.1 412.6,55.6 413.7,57.4 414.7,57.9 415.7,58.4 416.8,58.9 417.8,58.6 418.8,59.5 419.9,60.0 420.9,60.6 421.9,61.1 423.0,61.7 424.0,62.0 425.0,62.6 426.1,63.3 427.1,63.9 428.1,64.6 429.2,64.3 430.2,65.0 431.2,66.0 432.3,66.7 433.3,67.4 434.3,67.3 435.4,68.0 436.4,68.7 437.4,69.4 438.5,69.4 439.5,70.2 440.5,71.0 441.6,71.7 442.6,72.5 443.6,73.2 444.7,72.7 445.7,73.4 446.7,74.2 447.8,74.9 448.8,75.7 449.8,76.8 450.9,77.5 451.9,79.3 452.9,80.1 454.0,81.0 455.0,82.7 456.0,83.6 457.1,84.4 458.1,85.2 459.1,85.5 460.2,88.2 461.2,89.0 462.2,89.9 463.3,90.7 464.3,91.6 465.3,92.6 466.4,93.5 467.4,94.3 468.4,95.2 469.5,96.1 470.5,97.2 471.5,98.1 472.6,98.3 473.6,99.1 474.6,100.0 475.7,100.1 476.7,100.9 477.7,101.8 478.8,102.7 479.8,104.6 480.8,104.5 481.9,105.4 482.9,106.3 483.9,107.2 485.0,108.1 486.0,108.0 487.0,109.1 488.1,110.0 489.1,110.9 490.1,111.8 491.2,111.5 492.2,112.4 493.2,112.3 494.3,113.1 495.3,113.9 496.3,113.5 497.4,114.3 498.4,115.1 499.4,115.9 500.5,117.1 501.5,117.5 502.5,118.3 503.6,119.1 504.6,119.9 505.6,120.7 506.7,122.2 507.7,123.0 508.7,123.8 509.8,124.6 510.8,125.4 511.8,128.0 512.9,128.8 513.9,129.2 514.9,130.0 516.0,130.8 517.0,131.5 518.0,132.3 519.1,133.1 520.1,133.9 521.1,133.9 522.2,135.8 523.2,136.6 524.2,137.3 525.3,138.1 526.3,138.8 527.3,139.1 528.4,139.8 529.4,140.5 530.4,141.2 531.5,141.8 532.5,143.7 533.5,144.4 534.6,146.1 535.6,146.8 536.6,147.5 537.7,147.0 538.7,147.7 539.7,148.3 540.8,149.0 541.8,148.8 542.8,147.5 543.9,148.1 544.9,148.6 545.9,149.2 547.0,149.7 548.0,148.9 549.0,149.4 550.1,149.9 551.1,150.4 552.1,150.9 553.2,151.8 554.2,152.3 555.2,152.8 556.3,153.3 557.3,153.7 558.3,154.3 559.4,154.8 560.4,155.2 561.4,155.6 562.5,156.3 563.5,157.4 564.5,157.8 565.6,158.2 566.6,158.6 567.6,158.9 568.7,160.1 569.7,161.1 570.7,161.4 571.8,161.7 572.8,162.1 573.8,162.2 574.9,162.5 575.9,163.7 576.9,164.0 578.0,164.3 579.0,164.3 580.0,164.6 581.1,164.8 582.1,165.1 583.1,165.5 584.2,165.4 585.2,165.6 586.2,165.8 587.3,166.0 588.3,166.2 589.3,168.0 590.4,168.1 591.4,168.3 592.4,168.5 593.5,168.6 594.5,169.7 595.5,169.9 596.6,170.8 597.6,170.9 598.6,171.1 599.7,169.4 600.7,169.5 601.7,169.7 602.8,169.8 603.8,169.1 604.8,167.7 605.9,167.7 606.9,167.7 607.9,167.8 609.0,167.8 610.0,166.7 611.0,166.8 612.1,166.8 613.1,166.8 614.1,166.8 615.2,168.7 616.2,168.7 617.2,168.6 618.3,168.6 619.3,168.6 620.3,169.4 621.4,169.4 622.4,169.4 623.4,169.4 624.5,169.0 625.5,167.9 626.5,167.9 627.6,167.8 628.6,167.7 629.6,167.6 630.7,168.7 631.7,168.6 632.7,168.5 633.8,168.4 634.8,168.3 635.8,168.5 636.9,168.4 637.9,167.5 638.9,167.4 640.0,167.2 641.0,166.8 642.0,166.6 643.1,166.5 644.1,166.3 645.1,166.5 646.2,168.0 647.2,167.9 648.2,167.7 649.3,167.6 650.3,167.4 651.3,168.7 652.4,169.3 653.4,169.2 654.4,169.1 655.5,169.0 656.5,167.6 657.5,167.5 658.6,166.6 659.6,166.5 660.6,166.3 661.7,166.4 662.7,166.2 663.7,166.1 664.8,165.9 665.8,166.1 666.8,167.8 667.9,167.7 668.9,167.6 669.9,167.4 671.0,167.3 672.0,167.9 673.0,167.5 674.1,167.4 675.1,167.3 676.1,167.2 677.2,167.9 678.2,167.8 679.2,167.5 680.3,167.4 681.3,167.3 682.3,166.4 683.4,166.3 684.4,166.2 685.4,166.1 686.5,166.1 687.5,164.9 688.5,164.9 689.6,164.8 690.6,164.7 691.6,164.6 692.7,164.3 693.7,164.2 694.7,164.1 695.8,164.0 696.8,164.0 697.8,162.9 698.9,162.8 699.9,162.1 700.9,162.0 702.0,161.9 703.0,160.4 704.0,160.3 705.1,160.3 706.1,160.2 707.1,160.2 708.2,160.9 709.2,160.8 710.2,160.8 711.3,160.8 712.3,160.8 713.3,162.6 714.4,162.6 715.4,162.7 716.4,162.7 717.5,162.8 718.5,162.7 719.5,162.8 720.6,162.5 721.6,162.6 722.6,162.7 723.7,163.9 724.7,164.0 725.7,164.2 726.8,164.3 727.8,165.9 728.8,164.9 729.9,165.1 730.9,165.3 731.9,165.5 733.0,165.7 734.0,164.4 735.0,163.8 736.1,164.0 737.1,164.2 738.1,164.5 739.2,164.4 740.2,164.7 741.2,166.1 742.3,166.4 743.3,166.8 744.3,166.7 745.4,167.0 746.4,167.4 747.4,167.8 748.5,167.9 749.5,166.7 750.5,167.1 751.6,167.5 752.6,167.9 753.6,168.4 754.7,170.6 755.7,171.0 756.7,171.6 757.8,172.1 758.8,172.6 759.8,173.8 760.9,174.4 761.9,174.6 762.9,175.2 764.0,175.8 765.0,176.4 766.0,177.1 767.1,177.7 768.1,178.4 769.1,179.3 770.2,180.1 771.2,180.8 772.2,181.5 773.3,182.3 774.3,183.0 775.3,182.4 776.4,183.3 777.4,184.1 778.4,184.9 779.5,185.8 780.5,184.8 781.5,185.6 782.6,185.5 783.6,186.4 784.6,187.2 785.7,189.5 786.7,190.4 787.7,191.3 788.8,192.2 789.8,192.4 790.8,193.0 791.9,193.9 792.9,194.9 793.9,195.9 795.0,196.9 796.0,198.7"/>
<text x="640" y="72" font-family="Arial" font-size="12" fill="#2563eb">estimate</text>
</svg>