<svg xmlns="http://www.w3.org/2000/svg" width="820" height="320" viewBox="0 0 820 320">
<rect width="100%" height="100%" fill="white"/>
<text x="52" y="30" font-family="Arial" font-size="18" font-weight="700">adaptive_nominal altitude</text>
<line x1="52" y1="274" x2="796" y2="274" stroke="#263238"/>
<line x1="52" y1="42" x2="52" y2="274" stroke="#263238"/>
<text x="52" y="306" font-family="Arial" font-size="12">time (s)</text>
<text x="630" y="306" font-family="Arial" font-size="12">m</text>

<rect x="630.7" y="42" width="165.3" height="232" fill="#fef3c7" opacity="0.72"/>
<polyline fill="none" stroke="#0f766e" stroke-width="2.3" points="52.0,259.5 53.0,259.4 54.1,259.3 55.1,259.1 56.1,259.0 57.2,258.9 58.2,258.8 59.2,258.7 60.3,258.6 61.3,258.5 62.3,258.4 63.4,258.3 64.4,258.2 65.4,258.1 66.5,258.0 67.5,257.9 68.5,257.8 69.6,257.6 70.6,257.5 71.6,257.4 72.7,257.3 73.7,257.2 74.7,257.1 75.8,257.0 76.8,256.9 77.8,256.8 78.9,256.6 79.9,256.5 80.9,256.4 82.0,256.3 83.0,256.2 84.0,256.0 85.1,255.9 86.1,255.8 87.1,255.6 88.2,255.5 89.2,255.3 90.2,255.2 91.3,255.0 92.3,254.9 93.3,254.7 94.4,254.5 95.4,254.4 96.4,254.2 97.5,254.0 98.5,253.8 99.5,253.6 100.6,253.4 101.6,253.2 102.6,253.0 103.7,252.8 104.7,252.6 105.7,252.3 106.8,252.1 107.8,251.9 108.8,251.6 109.9,251.3 110.9,251.1 111.9,250.8 113.0,250.5 114.0,250.3 115.0,250.0 116.1,249.7 117.1,249.4 118.1,249.1 119.2,248.7 120.2,248.4 121.2,248.1 122.3,247.7 123.3,247.4 124.3,247.0 125.4,246.7 126.4,246.3 127.4,245.9 128.5,245.5 129.5,245.1 130.5,244.7 131.6,244.3 132.6,243.9 133.6,243.4 134.7,243.0 135.7,242.5 136.7,242.1 137.8,241.6 138.8,241.1 139.8,240.6 140.9,240.1 141.9,239.6 142.9,239.1 144.0,238.6 145.0,238.0 146.0,237.5 147.1,236.9 148.1,236.3 149.1,235.8 150.2,235.2 151.2,234.6 152.2,234.0 153.3,233.4 154.3,232.7 155.3,232.1 156.4,231.5 157.4,230.8 158.4,230.2 159.5,229.5 160.5,228.8 161.5,228.1 162.6,227.4 163.6,226.7 164.6,226.0 165.7,225.2 166.7,224.5 167.7,223.8 168.8,223.0 169.8,222.2 170.8,221.4 171.9,220.7 172.9,219.9 173.9,219.1 175.0,218.2 176.0,217.4 177.0,216.6 178.1,215.7 179.1,214.9 180.1,214.0 181.2,213.2 182.2,212.3 183.2,211.4 184.3,210.5 185.3,209.6 186.3,208.7 187.4,207.7 188.4,206.8 189.4,205.9 190.5,204.9 191.5,204.0 192.5,203.0 193.6,202.0 194.6,201.0 195.6,200.1 196.7,199.1 197.7,198.1 198.7,197.0 199.8,196.0 200.8,195.0 201.8,194.0 202.9,192.9 203.9,191.9 204.9,190.8 206.0,189.8 207.0,188.7 208.0,187.6 209.1,186.5 210.1,185.5 211.1,184.4 212.2,183.3 213.2,182.2 214.2,181.1 215.3,179.9 216.3,178.8 217.3,177.7 218.4,176.6 219.4,175.4 220.4,174.3 221.5,173.1 222.5,172.0 223.5,170.8 224.6,169.7 225.6,168.5 226.6,167.3 227.7,166.2 228.7,165.0 229.7,163.8 230.8,162.6 231.8,161.5 232.8,160.3 233.9,159.1 234.9,157.9 235.9,156.7 237.0,155.5 238.0,154.3 239.0,153.1 240.1,151.9 241.1,150.7 242.1,149.5 243.2,148.3 244.2,147.1 245.2,145.9 246.3,144.7 247.3,143.5 248.3,142.2 249.4,141.0 250.4,139.8 251.4,138.6 252.5,137.4 253.5,136.2 254.5,135.0 255.6,133.8 256.6,132.6 257.6,131.4 258.7,130.2 259.7,129.0 260.7,127.8 261.8,126.6 262.8,125.4 263.8,124.2 264.9,123.0 265.9,121.8 266.9,120.7 268.0,119.5 269.0,118.3 270.0,117.1 271.1,116.0 272.1,114.8 273.1,113.7 274.2,112.5 275.2,111.4 276.2,110.2 277.3,109.1 278.3,107.9 279.3,106.8 280.4,105.7 281.4,104.6 282.4,103.5 283.5,102.4 284.5,101.3 285.5,100.2 286.6,99.1 287.6,98.0 288.6,96.9 289.7,95.9 290.7,94.8 291.7,93.8 292.8,92.7 293.8,91.7 294.8,90.6 295.9,89.6 296.9,88.6 297.9,87.6 299.0,86.6 300.0,85.6 301.0,84.7 302.1,83.7 303.1,82.7 304.1,81.8 305.2,80.9 306.2,79.9 307.2,79.0 308.3,78.1 309.3,77.2 310.3,76.3 311.4,75.4 312.4,74.6 313.4,73.7 314.5,72.9 315.5,72.0 316.5,71.2 317.6,70.4 318.6,69.6 319.6,68.8 320.7,68.0 321.7,67.3 322.7,66.5 323.8,65.8 324.8,65.1 325.8,64.3 326.9,63.6 327.9,62.9 328.9,62.3 330.0,61.6 331.0,60.9 332.0,60.3 333.1,59.7 334.1,59.1 335.1,58.5 336.2,57.9 337.2,57.3 338.2,56.7 339.3,56.2 340.3,55.6 341.3,55.1 342.4,54.6 343.4,54.1 344.4,53.6 345.5,53.2 346.5,52.7 347.5,52.3 348.6,51.9 349.6,51.4 350.6,51.1 351.7,50.7 352.7,50.3 353.7,49.9 354.8,49.6 355.8,49.3 356.8,49.0 357.9,48.7 358.9,48.4 359.9,48.1 361.0,47.9 362.0,47.6 363.0,47.4 364.1,47.2 365.1,47.0 366.1,46.8 367.2,46.7 368.2,46.5 369.2,46.4 370.3,46.3 371.3,46.2 372.3,46.1 373.4,46.0 374.4,45.9 375.4,45.9 376.5,45.8 377.5,45.8 378.5,45.8 379.6,45.8 380.6,45.8 381.6,45.9 382.7,45.9 383.7,46.0 384.7,46.1 385.8,46.2 386.8,46.3 387.8,46.4 388.9,46.5 389.9,46.7 390.9,46.8 392.0,47.0 393.0,47.2 394.0,47.4 395.1,47.6 396.1,47.9 397.1,48.1 398.2,48.4 399.2,48.6 400.2,48.9 401.3,49.2 402.3,49.5 403.3,49.9 404.4,50.2 405.4,50.5 406.4,50.9 407.5,51.3 408.5,51.7 409.5,52.1 410.6,52.5 411.6,52.9 412.6,53.3 413.7,53.8 414.7,54.2 415.7,54.7 416.8,55.2 417.8,55.7 418.8,56.2 419.9,56.7 420.9,57.2 421.9,57.8 423.0,58.3 424.0,58.9 425.0,59.4 426.1,60.0 427.1,60.6 428.1,61.2 429.2,61.8 430.2,62.4 431.2,63.0 432.3,63.7 433.3,64.3 434.3,65.0 435.4,65.6 436.4,66.3 437.4,67.0 438.5,67.7 439.5,68.4 440.5,69.1 441.6,69.8 442.6,70.5 443.6,71.2 444.7,72.0 445.7,72.7 446.7,73.5 447.8,74.2 448.8,75.0 449.8,75.7 450.9,76.5 451.9,77.3 452.9,78.1 454.0,78.9 455.0,79.7 456.0,80.5 457.1,81.3 458.1,82.1 459.1,82.9 460.2,83.7 461.2,84.6 462.2,85.4 463.3,86.2 464.3,87.1 465.3,87.9 466.4,88.8 467.4,89.6 468.4,90.5 469.5,91.3 470.5,92.2 471.5,93.1 472.6,93.9 473.6,94.8 474.6,95.7 475.7,96.5 476.7,97.4 477.7,98.3 478.8,99.1 479.8,100.0 480.8,100.9 481.9,101.8 482.9,102.7 483.9,103.5 485.0,104.4 486.0,105.3 487.0,106.2 488.1,107.0 489.1,107.9 490.1,108.8 491.2,109.7 492.2,110.5 493.2,111.4 494.3,112.3 495.3,113.2 496.3,114.0 497.4,114.9 498.4,115.8 499.4,116.6 500.5,117.5 501.5,118.3 502.5,119.2 503.6,120.0 504.6,120.9 505.6,121.7 506.7,122.6 507.7,123.4 508.7,124.2 509.8,125.1 510.8,125.9 511.8,126.7 512.9,127.5 513.9,128.3 514.9,129.2 516.0,130.0 517.0,130.8 518.0,131.5 519.1,132.3 520.1,133.1 521.1,133.9 522.2,134.7 523.2,135.4 524.2,136.2 525.3,136.9 526.3,137.7 527.3,138.4 528.4,139.1 529.4,139.9 530.4,140.6 531.5,141.3 532.5,142.0 533.5,142.7 534.6,143.4 535.6,144.1 536.6,144.7 537.7,145.4 538.7,146.1 539.7,146.7 540.8,147.4 541.8,148.0 542.8,148.6 543.9,149.2 544.9,149.8 545.9,150.4 547.0,151.0 548.0,151.6 549.0,152.2 550.1,152.8 551.1,153.3 552.1,153.9 553.2,154.4 554.2,155.0 555.2,155.5 556.3,156.0 557.3,156.5 558.3,157.0 559.4,157.5 560.4,158.0 561.4,158.4 562.5,158.9 563.5,159.3 564.5,159.8 565.6,160.2 566.6,160.6 567.6,161.0 568.7,161.4 569.7,161.8 570.7,162.2 571.8,162.6 572.8,162.9 573.8,163.3 574.9,163.6 575.9,164.0 576.9,164.3 578.0,164.6 579.0,164.9 580.0,165.2 581.1,165.5 582.1,165.8 583.1,166.0 584.2,166.3 585.2,166.5 586.2,166.8 587.3,167.0 588.3,167.2 589.3,167.4 590.4,167.6 591.4,167.8 592.4,168.0 593.5,168.2 594.5,168.3 595.5,168.5 596.6,168.6 597.6,168.7 598.6,168.9 599.7,169.0 600.7,169.1 601.7,169.2 602.8,169.3 603.8,169.4 604.8,169.4 605.9,169.5 606.9,169.5 607.9,169.6 609.0,169.6 610.0,169.7 611.0,169.7 612.1,169.7 613.1,169.7 614.1,169.7 615.2,169.7 616.2,169.7 617.2,169.6 618.3,169.6 619.3,169.6 620.3,169.5 621.4,169.5 622.4,169.4 623.4,169.3 624.5,169.3 625.5,169.2 626.5,169.1 627.6,169.0 628.6,168.9 629.6,168.8 630.7,168.7 631.7,168.6 632.7,168.4 633.8,168.3 634.8,168.2 635.8,168.0 636.9,167.9 637.9,167.7 638.9,167.6 640.0,167.4 641.0,167.2 642.0,167.1 643.1,166.9 644.1,166.7 645.1,166.5 646.2,166.3 647.2,166.2 648.2,166.0 649.3,165.8 650.3,165.6 651.3,165.4 652.4,165.2 653.4,165.0 654.4,164.7 655.5,164.5 656.5,164.3 657.5,164.1 658.6,163.9 659.6,163.7 660.6,163.4 661.7,163.2 662.7,163.0 663.7,162.8 664.8,162.5 665.8,162.3 666.8,162.1 667.9,161.9 668.9,161.6 669.9,161.4 671.0,161.2 672.0,161.0 673.0,160.7 674.1,160.5 675.1,160.3 676.1,160.1 677.2,159.9 678.2,159.6 679.2,159.4 680.3,159.2 681.3,159.0 682.3,158.8 683.4,158.6 684.4,158.4 685.4,158.2 686.5,158.0 687.5,157.8 688.5,157.6 689.6,157.4 690.6,157.3 691.6,157.1 692.7,156.9 693.7,156.7 694.7,156.6 695.8,156.4 696.8,156.3 697.8,156.1 698.9,156.0 699.9,155.8 700.9,155.7 702.0,155.6 703.0,155.5 704.0,155.4 705.1,155.2 706.1,155.1 707.1,155.1 708.2,155.0 709.2,154.9 710.2,154.8 711.3,154.8 712.3,154.7 713.3,154.7 714.4,154.6 715.4,154.6 716.4,154.6 717.5,154.6 718.5,154.6 719.5,154.6 720.6,154.6 721.6,154.6 722.6,154.6 723.7,154.7 724.7,154.7 725.7,154.8 726.8,154.9 727.8,154.9 728.8,155.0 729.9,155.1 730.9,155.2 731.9,155.4 733.0,155.5 734.0,155.6 735.0,155.8 736.1,156.0 737.1,156.1 738.1,156.3 739.2,156.5 740.2,156.7 741.2,157.0 742.3,157.2 743.3,157.5 744.3,157.7 745.4,158.0 746.4,158.3 747.4,158.6 748.5,158.9 749.5,159.2 750.5,159.6 751.6,159.9 752.6,160.3 753.6,160.6 754.7,161.0 755.7,161.4 756.7,161.9 757.8,162.3 758.8,162.7 759.8,163.2 760.9,163.7 761.9,164.1 762.9,164.6 764.0,165.1 765.0,165.7 766.0,166.2 767.1,166.8 768.1,167.3 769.1,167.9 770.2,168.5 771.2,169.1 772.2,169.7 773.3,170.4 774.3,171.0 775.3,171.7 776.4,172.4 777.4,173.1 778.4,173.8 779.5,174.5 780.5,175.3 781.5,176.0 782.6,176.8 783.6,177.6 784.6,178.4 785.7,179.2 786.7,180.0 787.7,180.8 788.8,181.7 789.8,182.6 790.8,183.4 791.9,184.3 792.9,185.3 793.9,186.2 795.0,187.1 796.0,188.1"/>
<text x="640" y="56" font-family="Arial" font-size="12" fill="#0f766e">truth</text>
<polyline fill="none" stroke="#2563eb" stroke-width="2.3" points="52.0,257.6 53.0,257.5 54.1,257.5 55.1,257.5 56.1,257.4 57.2,273.6 58.2,273.6 59.2,273.9 60.3,273.9 61.3,274.0 62.3,268.6 63.4,268.7 64.4,268.7 65.4,268.8 66.5,269.0 67.5,259.6 68.5,259.7 69.6,259.8 70.6,259.9 71.6,259.9 72.7,262.1 73.7,261.9 74.7,261.8 75.8,261.7 76.8,261.5 77.8,262.7 78.9,262.6 79.9,261.3 80.9,261.0 82.0,260.6 83.0,261.7 84.0,261.3 85.1,260.9 86.1,260.5 87.1,262.4 88.2,263.9 89.2,263.7 90.2,263.5 91.3,263.2 92.3,263.0 93.3,259.3 94.4,257.4 95.4,256.9 96.4,256.3 97.5,255.8 98.5,258.2 99.5,257.6 100.6,259.0 101.6,258.5 102.6,258.0 103.7,257.3 104.7,256.8 105.7,256.3 106.8,255.7 107.8,258.0 108.8,260.3 109.9,260.0 110.9,259.6 111.9,259.2 113.0,258.8 114.0,259.3 115.0,258.9 116.1,258.5 117.1,258.1 118.1,257.7 119.2,254.8 120.2,254.4 121.2,255.6 122.3,255.2 123.3,254.8 124.3,254.5 125.4,254.1 126.4,253.7 127.4,253.3 128.5,254.2 129.5,253.1 130.5,252.7 131.6,252.3 132.6,252.0 133.6,251.6 134.7,246.4 135.7,245.3 136.7,244.7 137.8,244.1 138.8,243.5 139.8,243.2 140.9,242.6 141.9,241.9 142.9,241.2 144.0,240.6 145.0,241.6 146.0,240.9 147.1,240.2 148.1,239.5 149.1,241.0 150.2,239.4 151.2,238.8 152.2,238.1 153.3,237.5 154.3,236.8 155.3,236.8 156.4,236.5 157.4,235.9 158.4,235.2 159.5,234.5 160.5,233.4 161.5,232.7 162.6,231.0 163.6,230.3 164.6,229.5 165.7,230.7 166.7,230.0 167.7,229.2 168.8,228.5 169.8,227.4 170.8,226.5 171.9,225.7 172.9,224.9 173.9,224.1 175.0,223.2 176.0,223.3 177.0,222.5 178.1,221.7 179.1,220.9 180.1,220.0 181.2,219.2 182.2,218.3 183.2,217.9 184.3,217.1 185.3,216.2 186.3,212.8 187.4,211.9 188.4,211.0 189.4,210.1 190.5,209.0 191.5,205.9 192.5,205.0 193.6,204.0 194.6,203.0 195.6,202.0 196.7,200.3 197.7,199.2 198.7,198.2 199.8,197.1 200.8,196.1 201.8,194.5 202.9,193.4 203.9,192.9 204.9,191.8 206.0,190.7 207.0,189.5 208.0,188.4 209.1,187.3 210.1,186.2 211.1,184.4 212.2,183.8 213.2,182.6 214.2,181.5 215.3,180.3 216.3,179.2 217.3,178.7 218.4,177.4 219.4,176.3 220.4,175.2 221.5,174.1 222.5,173.7 223.5,172.6 224.6,170.9 225.6,169.8 226.6,168.7 227.7,165.8 228.7,164.6 229.7,163.5 230.8,162.3 231.8,162.2 232.8,159.9 233.9,158.8 234.9,157.6 235.9,156.5 237.0,155.4 238.0,155.5 239.0,154.5 240.1,153.4 241.1,152.3 242.1,151.3 243.2,148.5 244.2,147.4 245.2,147.3 246.3,146.3 247.3,145.2 248.3,143.9 249.4,142.9 250.4,141.8 251.4,140.8 252.5,138.3 253.5,134.2 254.5,133.1 255.6,131.9 256.6,130.8 257.6,129.7 258.7,129.0 259.7,127.9 260.7,126.7 261.8,125.6 262.8,124.5 263.8,123.2 264.9,122.1 265.9,120.6 266.9,119.5 268.0,118.3 269.0,117.9 270.0,116.8 271.1,115.7 272.1,114.6 273.1,112.1 274.2,109.1 275.2,108.0 276.2,106.9 277.3,105.7 278.3,104.6 279.3,103.7 280.4,102.9 281.4,101.8 282.4,100.7 283.5,99.7 284.5,97.4 285.5,96.4 286.6,95.9 287.6,94.9 288.6,93.8 289.7,93.5 290.7,92.5 291.7,91.5 292.8,90.5 293.8,88.0 294.8,87.2 295.9,86.1 296.9,85.1 297.9,84.1 299.0,83.2 300.0,82.9 301.0,82.0 302.1,81.0 303.1,80.1 304.1,79.2 305.2,78.3 306.2,77.4 307.2,75.3 308.3,74.4 309.3,73.5 310.3,71.2 311.4,70.3 312.4,69.4 313.4,68.5 314.5,68.5 315.5,67.9 316.5,67.1 317.6,66.2 318.6,65.4 319.6,64.6 320.7,63.3 321.7,62.5 322.7,61.7 323.8,60.9 324.8,60.1 325.8,59.9 326.9,59.2 327.9,59.3 328.9,58.6 330.0,57.9 331.0,55.2 332.0,54.5 333.1,53.9 334.1,53.2 335.1,50.7 336.2,49.9 337.2,49.2 338.2,48.5 339.3,47.9 340.3,47.3 341.3,47.7 342.4,47.7 343.4,47.1 344.4,46.5 345.5,45.9 346.5,46.4 347.5,45.9 348.6,46.9 349.6,46.4 350.6,46.0 351.7,47.1 352.7,46.8 353.7,46.4 354.8,46.0 355.8,44.8 356.8,43.4 357.9,43.0 358.9,42.7 359.9,42.3 361.0,42.0 362.0,43.8 363.0,43.5 364.1,43.3 365.1,43.1 366.1,42.9 367.2,43.6 368.2,43.5 369.2,43.3 370.3,43.1 371.3,43.0 372.3,44.0 373.4,43.9 374.4,43.9 375.4,43.8 376.5,43.4 377.5,42.6 378.5,42.5 379.6,42.5 380.6,42.5 381.6,42.5 382.7,43.8 383.7,43.9 384.7,44.0 385.8,44.0 386.8,44.1 387.8,44.4 388.9,44.6 389.9,44.8 390.9,44.9 392.0,45.1 393.0,45.7 394.0,45.9 395.1,46.2 396.1,46.4 397.1,47.1 398.2,48.8 399.2,49.1 400.2,49.4 401.3,49.7 402.3,50.0 403.3,50.2 404.4,50.6 405.4,50.9 406.4,51.3 407.5,51.7 408.5,52.4 409.5,52.8 410.6,53.2 411.6,53.6 412.6,54.1 413.7,55.9 414.7,56.4 415.7,56.9 416.8,57.4 417.8,57.0 418.8,58.0 419.9,58.6 420.9,59.1 421.9,59.7 423.0,60.3 424.0,60.7 425.0,61.3 426.1,62.0 427.1,62.6 428.1,63.3 429.2,63.0 430.2,63.7 431.2,64.7 432.3,65.4 433.3,66.1 434.3,65.9 435.4,66.6 436.4,67.3 437.4,68.1 438.5,68.0 439.5,68.9 440.5,69.6 441.6,70.4 442.6,71.1 443.6,71.9 444.7,71.2 445.7,72.0 446.7,72.7 447.8,73.4 448.8,74.2 449.8,75.4 450.9,76.2 451.9,78.1 452.9,78.9 454.0,79.7 455.0,81.6 456.0,82.5 457.1,83.3 458.1,84.2 459.1,84.3 460.2,87.3 461.2,88.1 462.2,89.0 463.3,89.8 464.3,90.7 465.3,91.7 466.4,92.6 467.4,93.5 468.4,94.4 469.5,95.2 470.5,96.4 471.5,97.3 472.6,97.4 473.6,98.3 474.6,99.2 475.7,99.2 476.7,100.1 477.7,100.9 478.8,101.8 479.8,103.8 480.8,103.6 481.9,104.5 482.9,105.4 483.9,106.3 485.0,107.2 486.0,107.0 487.0,108.3 488.1,109.2 489.1,110.1 490.1,110.9 491.2,110.5 492.2,111.4 493.2,111.0 494.3,111.9 495.3,112.7 496.3,112.1 497.4,112.9 498.4,113.7 499.4,114.5 500.5,115.7 501.5,116.1 502.5,116.9 503.6,117.7 504.6,118.5 505.6,119.3 506.7,120.8 507.7,121.6 508.7,122.4 509.8,123.2 510.8,124.1 511.8,126.9 512.9,127.7 513.9,128.0 514.9,128.8 516.0,129.6 517.0,130.4 518.0,131.2 519.1,132.0 520.1,132.7 521.1,132.7 522.2,137.2 523.2,138.0 524.2,138.8 525.3,139.5 526.3,140.3 527.3,140.4 528.4,141.1 529.4,141.8 530.4,142.5 531.5,143.2 532.5,144.9 533.5,145.5 534.6,147.1 535.6,147.8 536.6,148.5 537.7,148.1 538.7,148.8 539.7,149.4 540.8,150.1 541.8,149.9 542.8,148.8 543.9,149.4 544.9,149.9 545.9,150.5 547.0,151.0 548.0,150.2 549.0,150.7 550.1,151.2 551.1,151.7 552.1,152.2 553.2,153.0 554.2,153.5 555.2,154.0 556.3,154.4 557.3,154.9 558.3,155.4 559.4,155.8 560.4,156.2 561.4,156.6 562.5,157.3 563.5,158.3 564.5,158.7 565.6,159.1 566.6,159.5 567.6,159.9 568.7,160.8 569.7,161.9 570.7,162.2 571.8,162.6 572.8,162.9 573.8,163.0 574.9,163.3 575.9,164.5 576.9,164.9 578.0,165.2 579.0,165.0 580.0,165.3 581.1,165.6 582.1,165.8 583.1,166.2 584.2,166.0 585.2,166.2 586.2,166.4 587.3,166.7 588.3,166.9 589.3,168.8 590.4,168.7 591.4,169.0 592.4,169.1 593.5,169.3 594.5,170.7 595.5,170.8 596.6,172.0 597.6,172.2 598.6,172.3 599.7,169.7 600.7,169.8 601.7,169.9 602.8,170.1 603.8,169.0 604.8,167.0 605.9,167.0 606.9,167.0 607.9,167.1 609.0,167.1 610.0,165.5 611.0,165.5 612.1,165.6 613.1,165.6 614.1,165.6 615.2,167.3 616.2,167.3 617.2,167.3 618.3,167.3 619.3,167.3 620.3,168.0 621.4,167.9 622.4,167.9 623.4,167.9 624.5,167.6 625.5,166.9 626.5,166.8 627.6,166.8 628.6,166.7 629.6,166.6 630.7,168.6 631.7,168.4 632.7,168.3 633.8,168.3 634.8,168.2 635.8,168.2 636.9,168.1 637.9,167.6 638.9,167.5 640.0,167.4 641.0,167.1 642.0,166.9 643.1,166.8 644.1,166.7 645.1,166.7 646.2,167.3 647.2,167.2 648.2,167.1 649.3,166.9 650.3,166.8 651.3,167.6 652.4,167.9 653.4,167.8 654.4,167.7 655.5,167.6 656.5,166.6 657.5,166.4 658.6,165.7 659.6,165.5 660.6,165.4 661.7,165.4 662.7,165.2 663.7,165.1 664.8,164.9 665.8,165.1 666.8,166.8 667.9,166.7 668.9,166.5 669.9,166.4 671.0,166.3 672.0,166.7 673.0,166.4 674.1,166.3 675.1,166.2 676.1,166.0 677.2,166.6 678.2,166.5 679.2,166.3 680.3,166.1 681.3,166.0 682.3,165.3 683.4,165.2 684.4,165.1 685.4,165.0 686.5,165.0 687.5,164.0 688.5,163.9 689.6,163.9 690.6,163.8 691.6,163.7 692.7,163.0 693.7,162.9 694.7,162.8 695.8,162.7 696.8,162.6 697.8,161.5 698.9,161.4 699.9,160.6 700.9,160.5 702.0,160.4 703.0,158.8 704.0,158.7 705.1,158.6 706.1,158.5 707.1,158.6 708.2,159.4 709.2,159.4 710.2,159.3 711.3,159.3 712.3,159.3 713.3,161.4 714.4,161.4 715.4,161.5 716.4,161.5 717.5,161.6 718.5,161.5 719.5,161.6 720.6,161.3 721.6,161.4 722.6,161.5 723.7,162.8 724.7,162.9 725.7,163.1 726.8,163.2 727.8,164.9 728.8,163.8 729.9,164.0 730.9,164.2 731.9,164.4 733.0,164.6 734.0,163.3 735.0,162.5 736.1,162.7 737.1,162.9 738.1,163.1 739.2,163.1 740.2,163.4 741.2,164.8 742.3,165.1 743.3,165.4 744.3,165.4 745.4,165.7 746.4,166.1 747.4,166.5 748.5,166.6 749.5,164.0 750.5,164.4 751.6,164.8 752.6,165.2 753.6,165.6 754.7,168.1 755.7,168.5 756.7,169.0 757.8,169.6 758.8,170.1 759.8,171.4 760.9,171.9 761.9,172.2 762.9,172.8 764.0,173.4 765.0,174.1 766.0,174.8 767.1,175.4 768.1,176.1 769.1,177.0 770.2,177.9 771.2,178.6 772.2,179.3 773.3,180.0 774.3,180.8 775.3,179.8 776.4,180.7 777.4,181.5 778.4,182.3 779.5,183.1 780.5,182.3 781.5,183.1 782.6,183.0 783.6,183.9 784.6,184.7 785.7,187.1 786.7,188.0 787.7,188.9 788.8,189.8 789.8,190.0 790.8,190.7 791.9,191.6 792.9,192.6 793.9,193.6 795.0,194.6 796.0,196.5"/>
<text x="640" y="72" font-family="Arial" font-size="12" fill="#2563eb">estimate</text>
</svg>