<svg xmlns="http://www.w3.org/2000/svg" width="820" height="320" viewBox="0 0 820 320">
<rect width="100%" height="100%" fill="white"/>
<text x="52" y="30" font-family="Arial" font-size="18" font-weight="700">robust_dropout_robust altitude</text>
<line x1="52" y1="274" x2="796" y2="274" stroke="#263238"/>
<line x1="52" y1="42" x2="52" y2="274" stroke="#263238"/>
<text x="52" y="306" font-family="Arial" font-size="12">time (s)</text>
<text x="630" y="306" font-family="Arial" font-size="12">m</text>

<rect x="630.7" y="42" width="165.3" height="232" fill="#fef3c7" opacity="0.72"/>
<polyline fill="none" stroke="#0f766e" stroke-width="2.3" points="52.0,260.9 53.0,260.8 54.1,260.7 55.1,260.5 56.1,260.4 57.2,260.3 58.2,260.2 59.2,260.1 60.3,260.0 61.3,259.9 62.3,259.8 63.4,259.7 64.4,259.6 65.4,259.5 66.5,259.4 67.5,259.3 68.5,259.1 69.6,259.0 70.6,258.9 71.6,258.8 72.7,258.7 73.7,258.6 74.7,258.5 75.8,258.4 76.8,258.3 77.8,258.2 78.9,258.0 79.9,257.9 80.9,257.8 82.0,257.7 83.0,257.5 84.0,257.4 85.1,257.3 86.1,257.1 87.1,257.0 88.2,256.9 89.2,256.7 90.2,256.6 91.3,256.4 92.3,256.2 93.3,256.1 94.4,255.9 95.4,255.7 96.4,255.6 97.5,255.4 98.5,255.2 99.5,255.0 100.6,254.8 101.6,254.6 102.6,254.4 103.7,254.2 104.7,253.9 105.7,253.7 106.8,253.5 107.8,253.2 108.8,253.0 109.9,252.7 110.9,252.5 111.9,252.2 113.0,251.9 114.0,251.6 115.0,251.4 116.1,251.1 117.1,250.7 118.1,250.4 119.2,250.1 120.2,249.8 121.2,249.5 122.3,249.1 123.3,248.8 124.3,248.4 125.4,248.0 126.4,247.7 127.4,247.3 128.5,246.9 129.5,246.5 130.5,246.1 131.6,245.6 132.6,245.2 133.6,244.8 134.7,244.3 135.7,243.9 136.7,243.4 137.8,242.9 138.8,242.5 139.8,242.0 140.9,241.5 141.9,240.9 142.9,240.4 144.0,239.9 145.0,239.4 146.0,238.8 147.1,238.2 148.1,237.7 149.1,237.1 150.2,236.5 151.2,235.9 152.2,235.3 153.3,234.7 154.3,234.1 155.3,233.4 156.4,232.8 157.4,232.1 158.4,231.5 159.5,230.8 160.5,230.1 161.5,229.4 162.6,228.7 163.6,228.0 164.6,227.3 165.7,226.5 166.7,225.8 167.7,225.1 168.8,224.3 169.8,223.5 170.8,222.7 171.9,221.9 172.9,221.2 173.9,220.3 175.0,219.5 176.0,218.7 177.0,217.9 178.1,217.0 179.1,216.2 180.1,215.3 181.2,214.4 182.2,213.5 183.2,212.6 184.3,211.7 185.3,210.8 186.3,209.9 187.4,209.0 188.4,208.1 189.4,207.1 190.5,206.2 191.5,205.2 192.5,204.2 193.6,203.3 194.6,202.3 195.6,201.3 196.7,200.3 197.7,199.3 198.7,198.3 199.8,197.3 200.8,196.2 201.8,195.2 202.9,194.1 203.9,193.1 204.9,192.0 206.0,191.0 207.0,189.9 208.0,188.8 209.1,187.7 210.1,186.6 211.1,185.6 212.2,184.5 213.2,183.3 214.2,182.2 215.3,181.1 216.3,180.0 217.3,178.9 218.4,177.7 219.4,176.6 220.4,175.4 221.5,174.3 222.5,173.1 223.5,172.0 224.6,170.8 225.6,169.7 226.6,168.5 227.7,167.3 228.7,166.1 229.7,164.9 230.8,163.8 231.8,162.6 232.8,161.4 233.9,160.2 234.9,159.0 235.9,157.8 237.0,156.6 238.0,155.4 239.0,154.2 240.1,153.0 241.1,151.8 242.1,150.6 243.2,149.4 244.2,148.2 245.2,146.9 246.3,145.7 247.3,144.5 248.3,143.3 249.4,142.1 250.4,140.9 251.4,139.7 252.5,138.5 253.5,137.3 254.5,136.0 255.6,134.8 256.6,133.6 257.6,132.4 258.7,131.2 259.7,130.0 260.7,128.8 261.8,127.6 262.8,126.4 263.8,125.2 264.9,124.0 265.9,122.9 266.9,121.7 268.0,120.5 269.0,119.3 270.0,118.1 271.1,117.0 272.1,115.8 273.1,114.6 274.2,113.5 275.2,112.3 276.2,111.2 277.3,110.0 278.3,108.9 279.3,107.8 280.4,106.7 281.4,105.5 282.4,104.4 283.5,103.3 284.5,102.2 285.5,101.1 286.6,100.0 287.6,98.9 288.6,97.9 289.7,96.8 290.7,95.7 291.7,94.7 292.8,93.6 293.8,92.6 294.8,91.6 295.9,90.5 296.9,89.5 297.9,88.5 299.0,87.5 300.0,86.5 301.0,85.6 302.1,84.6 303.1,83.6 304.1,82.7 305.2,81.8 306.2,80.8 307.2,79.9 308.3,79.0 309.3,78.1 310.3,77.2 311.4,76.3 312.4,75.5 313.4,74.6 314.5,73.7 315.5,72.9 316.5,72.1 317.6,71.3 318.6,70.5 319.6,69.7 320.7,68.9 321.7,68.1 322.7,67.4 323.8,66.6 324.8,65.9 325.8,65.2 326.9,64.5 327.9,63.8 328.9,63.1 330.0,62.4 331.0,61.8 332.0,61.1 333.1,60.5 334.1,59.9 335.1,59.3 336.2,58.7 337.2,58.1 338.2,57.6 339.3,57.0 340.3,56.5 341.3,55.9 342.4,55.4 343.4,54.9 344.4,54.5 345.5,54.0 346.5,53.5 347.5,53.1 348.6,52.7 349.6,52.3 350.6,51.9 351.7,51.5 352.7,51.1 353.7,50.8 354.8,50.4 355.8,50.1 356.8,49.8 357.9,49.5 358.9,49.2 359.9,48.9 361.0,48.7 362.0,48.4 363.0,48.2 364.1,48.0 365.1,47.8 366.1,47.6 367.2,47.5 368.2,47.3 369.2,47.2 370.3,47.1 371.3,46.9 372.3,46.9 373.4,46.8 374.4,46.7 375.4,46.7 376.5,46.6 377.5,46.6 378.5,46.6 379.6,46.6 380.6,46.6 381.6,46.7 382.7,46.7 383.7,46.8 384.7,46.9 385.8,47.0 386.8,47.1 387.8,47.2 388.9,47.3 389.9,47.5 390.9,47.6 392.0,47.8 393.0,48.0 394.0,48.2 395.1,48.4 396.1,48.7 397.1,48.9 398.2,49.2 399.2,49.4 400.2,49.7 401.3,50.0 402.3,50.3 403.3,50.7 404.4,51.0 405.4,51.3 406.4,51.7 407.5,52.1 408.5,52.5 409.5,52.9 410.6,53.3 411.6,53.7 412.6,54.1 413.7,54.6 414.7,55.0 415.7,55.5 416.8,56.0 417.8,56.5 418.8,57.0 419.9,57.5 420.9,58.0 421.9,58.6 423.0,59.1 424.0,59.7 425.0,60.3 426.1,60.8 427.1,61.4 428.1,62.0 429.2,62.6 430.2,63.2 431.2,63.9 432.3,64.5 433.3,65.2 434.3,65.8 435.4,66.5 436.4,67.2 437.4,67.8 438.5,68.5 439.5,69.2 440.5,69.9 441.6,70.6 442.6,71.4 443.6,72.1 444.7,72.8 445.7,73.6 446.7,74.3 447.8,75.1 448.8,75.8 449.8,76.6 450.9,77.4 451.9,78.2 452.9,79.0 454.0,79.8 455.0,80.6 456.0,81.4 457.1,82.2 458.1,83.0 459.1,83.8 460.2,84.6 461.2,85.5 462.2,86.3 463.3,87.1 464.3,88.0 465.3,88.8 466.4,89.7 467.4,90.5 468.4,91.4 469.5,92.3 470.5,93.1 471.5,94.0 472.6,94.8 473.6,95.7 474.6,96.6 475.7,97.5 476.7,98.3 477.7,99.2 478.8,100.1 479.8,101.0 480.8,101.8 481.9,102.7 482.9,103.6 483.9,104.5 485.0,105.4 486.0,106.2 487.0,107.1 488.1,108.0 489.1,108.9 490.1,109.8 491.2,110.6 492.2,111.5 493.2,112.4 494.3,113.3 495.3,114.1 496.3,115.0 497.4,115.9 498.4,116.8 499.4,117.6 500.5,118.5 501.5,119.3 502.5,120.2 503.6,121.0 504.6,121.9 505.6,122.7 506.7,123.6 507.7,124.4 508.7,125.3 509.8,126.1 510.8,126.9 511.8,127.7 512.9,128.6 513.9,129.4 514.9,130.2 516.0,131.0 517.0,131.8 518.0,132.6 519.1,133.4 520.1,134.2 521.1,134.9 522.2,135.7 523.2,136.5 524.2,137.2 525.3,138.0 526.3,138.7 527.3,139.5 528.4,140.2 529.4,140.9 530.4,141.6 531.5,142.4 532.5,143.1 533.5,143.8 534.6,144.5 535.6,145.1 536.6,145.8 537.7,146.5 538.7,147.1 539.7,147.8 540.8,148.4 541.8,149.1 542.8,149.7 543.9,150.3 544.9,150.9 545.9,151.5 547.0,152.1 548.0,152.7 549.0,153.3 550.1,153.9 551.1,154.4 552.1,155.0 553.2,155.5 554.2,156.1 555.2,156.6 556.3,157.1 557.3,157.6 558.3,158.1 559.4,158.6 560.4,159.1 561.4,159.5 562.5,160.0 563.5,160.4 564.5,160.9 565.6,161.3 566.6,161.7 567.6,162.1 568.7,162.6 569.7,162.9 570.7,163.3 571.8,163.7 572.8,164.1 573.8,164.4 574.9,164.8 575.9,165.1 576.9,165.4 578.0,165.7 579.0,166.0 580.0,166.3 581.1,166.6 582.1,166.9 583.1,167.2 584.2,167.4 585.2,167.7 586.2,167.9 587.3,168.1 588.3,168.3 589.3,168.6 590.4,168.8 591.4,168.9 592.4,169.1 593.5,169.3 594.5,169.5 595.5,169.6 596.6,169.8 597.6,169.9 598.6,170.0 599.7,170.1 600.7,170.2 601.7,170.3 602.8,170.4 603.8,170.5 604.8,170.6 605.9,170.6 606.9,170.7 607.9,170.7 609.0,170.8 610.0,170.8 611.0,170.8 612.1,170.8 613.1,170.8 614.1,170.8 615.2,170.8 616.2,170.8 617.2,170.8 618.3,170.8 619.3,170.7 620.3,170.7 621.4,170.6 622.4,170.6 623.4,170.5 624.5,170.4 625.5,170.3 626.5,170.2 627.6,170.1 628.6,170.0 629.6,169.9 630.7,169.8 631.7,169.7 632.7,169.6 633.8,169.4 634.8,169.3 635.8,169.2 636.9,169.0 637.9,168.9 638.9,168.7 640.0,168.5 641.0,168.4 642.0,168.2 643.1,168.0 644.1,167.9 645.1,167.7 646.2,167.5 647.2,167.3 648.2,167.1 649.3,166.9 650.3,166.7 651.3,166.5 652.4,166.3 653.4,166.1 654.4,165.9 655.5,165.7 656.5,165.4 657.5,165.2 658.6,165.0 659.6,164.8 660.6,164.6 661.7,164.3 662.7,164.1 663.7,163.9 664.8,163.7 665.8,163.4 666.8,163.2 667.9,163.0 668.9,162.8 669.9,162.5 671.0,162.3 672.0,162.1 673.0,161.9 674.1,161.6 675.1,161.4 676.1,161.2 677.2,161.0 678.2,160.8 679.2,160.5 680.3,160.3 681.3,160.1 682.3,159.9 683.4,159.7 684.4,159.5 685.4,159.3 686.5,159.1 687.5,158.9 688.5,158.7 689.6,158.5 690.6,158.4 691.6,158.2 692.7,158.0 693.7,157.8 694.7,157.7 695.8,157.5 696.8,157.4 697.8,157.2 698.9,157.1 699.9,156.9 700.9,156.8 702.0,156.7 703.0,156.6 704.0,156.5 705.1,156.4 706.1,156.3 707.1,156.2 708.2,156.1 709.2,156.0 710.2,155.9 711.3,155.9 712.3,155.8 713.3,155.8 714.4,155.7 715.4,155.7 716.4,155.7 717.5,155.7 718.5,155.7 719.5,155.7 720.6,155.7 721.6,155.7 722.6,155.7 723.7,155.8 724.7,155.8 725.7,155.9 726.8,156.0 727.8,156.0 728.8,156.1 729.9,156.2 730.9,156.3 731.9,156.5 733.0,156.6 734.0,156.7 735.0,156.9 736.1,157.1 737.1,157.3 738.1,157.4 739.2,157.6 740.2,157.9 741.2,158.1 742.3,158.3 743.3,158.6 744.3,158.8 745.4,159.1 746.4,159.4 747.4,159.7 748.5,160.0 749.5,160.3 750.5,160.7 751.6,161.0 752.6,161.4 753.6,161.8 754.7,162.2 755.7,162.6 756.7,163.0 757.8,163.4 758.8,163.9 759.8,164.3 760.9,164.8 761.9,165.3 762.9,165.8 764.0,166.3 765.0,166.8 766.0,167.3 767.1,167.9 768.1,168.5 769.1,169.1 770.2,169.6 771.2,170.3 772.2,170.9 773.3,171.5 774.3,172.2 775.3,172.9 776.4,173.5 777.4,174.2 778.4,174.9 779.5,175.7 780.5,176.4 781.5,177.2 782.6,177.9 783.6,178.7 784.6,179.5 785.7,180.3 786.7,181.2 787.7,182.0 788.8,182.9 789.8,183.7 790.8,184.6 791.9,185.5 792.9,186.5 793.9,187.4 795.0,188.3 796.0,189.3"/>
<text x="640" y="56" font-family="Arial" font-size="12" fill="#0f766e">truth</text>
<polyline fill="none" stroke="#2563eb" stroke-width="2.3" points="52.0,259.0 53.0,259.0 54.1,259.0 55.1,259.0 56.1,258.9 57.2,273.6 58.2,273.6 59.2,273.9 60.3,273.9 61.3,274.0 62.3,269.4 63.4,269.4 64.4,269.5 65.4,269.6 66.5,269.8 67.5,261.0 68.5,261.1 69.6,261.2 70.6,261.3 71.6,261.4 72.7,263.3 73.7,263.2 74.7,263.1 75.8,262.9 76.8,262.8 77.8,263.9 78.9,263.7 79.9,262.4 80.9,262.1 82.0,261.7 83.0,262.7 84.0,262.3 85.1,261.9 86.1,261.5 87.1,263.0 88.2,264.4 89.2,264.2 90.2,263.9 91.3,263.6 92.3,263.3 93.3,260.3 94.4,257.4 95.4,256.8 96.4,256.2 97.5,255.7 98.5,257.9 99.5,257.3 100.6,259.0 101.6,258.6 102.6,258.1 103.7,257.5 104.7,257.1 105.7,256.6 106.8,256.1 107.8,257.8 108.8,260.0 109.9,259.6 110.9,259.2 111.9,258.9 113.0,258.5 114.0,258.8 115.0,258.5 116.1,258.1 117.1,257.7 118.1,257.3 119.2,254.9 120.2,254.4 121.2,255.7 122.3,255.4 123.3,255.0 124.3,254.8 125.4,254.5 126.4,254.1 127.4,253.7 128.5,254.5 129.5,253.7 130.5,253.3 131.6,253.0 132.6,252.7 133.6,252.3 134.7,247.9 135.7,247.0 136.7,246.5 137.8,245.9 138.8,245.4 139.8,245.0 140.9,244.4 141.9,243.5 142.9,242.9 144.0,242.2 145.0,243.0 146.0,242.3 147.1,241.6 148.1,241.0 149.1,242.5 150.2,241.1 151.2,240.6 152.2,240.0 153.3,239.4 154.3,238.8 155.3,238.6 156.4,238.5 157.4,237.9 158.4,237.3 159.5,236.7 160.5,235.6 161.5,235.0 162.6,233.0 163.6,232.3 164.6,231.6 165.7,232.4 166.7,231.6 167.7,230.9 168.8,230.1 169.8,229.0 170.8,228.1 171.9,227.3 172.9,226.5 173.9,225.6 175.0,224.8 176.0,225.9 177.0,225.1 178.1,224.4 179.1,223.6 180.1,222.8 181.2,221.9 182.2,221.1 183.2,220.5 184.3,219.7 185.3,218.9 186.3,216.0 187.4,215.1 188.4,214.3 189.4,213.4 190.5,212.1 191.5,209.5 192.5,208.5 193.6,207.6 194.6,206.7 195.6,205.7 196.7,203.6 197.7,202.5 198.7,201.5 199.8,200.5 200.8,199.4 201.8,197.9 202.9,196.8 203.9,196.2 204.9,195.1 206.0,194.1 207.0,192.8 208.0,191.8 209.1,190.7 210.1,189.6 211.1,187.7 212.2,186.8 213.2,185.6 214.2,184.5 215.3,183.3 216.3,182.2 217.3,181.4 218.4,180.0 219.4,179.0 220.4,177.9 221.5,176.8 222.5,176.2 223.5,175.1 224.6,173.2 225.6,172.1 226.6,171.0 227.7,168.4 228.7,167.2 229.7,166.1 230.8,164.9 231.8,164.9 232.8,162.9 233.9,161.8 234.9,160.7 235.9,159.6 237.0,158.4 238.0,158.7 239.0,157.7 240.1,156.6 241.1,155.6 242.1,154.6 243.2,152.2 244.2,151.2 245.2,150.9 246.3,149.9 247.3,149.0 248.3,147.7 249.4,146.7 250.4,145.7 251.4,144.7 252.5,141.8 253.5,138.8 254.5,137.7 255.6,136.6 256.6,135.5 257.6,134.4 258.7,133.0 259.7,131.9 260.7,130.8 261.8,129.6 262.8,128.5 263.8,127.1 264.9,126.0 265.9,124.4 266.9,123.3 268.0,122.2 269.0,121.4 270.0,120.3 271.1,119.1 272.1,118.0 273.1,115.5 274.2,112.8 275.2,111.6 276.2,110.4 277.3,109.2 278.3,108.1 279.3,107.3 280.4,106.5 281.4,105.4 282.4,104.3 283.5,103.2 284.5,101.1 285.5,100.0 286.6,99.8 287.6,98.7 288.6,97.7 289.7,97.0 290.7,95.9 291.7,94.9 292.8,93.9 293.8,91.3 294.8,90.3 295.9,89.2 296.9,88.1 297.9,87.1 299.0,86.0 300.0,86.0 301.0,85.0 302.1,84.0 303.1,83.1 304.1,82.1 305.2,81.1 306.2,80.1 307.2,78.2 308.3,77.2 309.3,76.2 310.3,74.2 311.4,73.2 312.4,72.3 313.4,71.4 314.5,71.6 315.5,70.8 316.5,70.0 317.6,69.1 318.6,68.3 319.6,67.5 320.7,66.1 321.7,65.2 322.7,64.4 323.8,63.6 324.8,62.7 325.8,62.2 326.9,61.4 327.9,61.6 328.9,60.9 330.0,60.2 331.0,58.3 332.0,57.6 333.1,56.9 334.1,56.3 335.1,53.9 336.2,53.0 337.2,52.3 338.2,51.6 339.3,50.9 340.3,50.3 341.3,49.8 342.4,49.3 343.4,48.6 344.4,47.9 345.5,47.3 346.5,47.4 347.5,46.7 348.6,47.9 349.6,47.4 350.6,47.0 351.7,47.8 352.7,47.3 353.7,46.9 354.8,46.5 355.8,45.0 356.8,43.7 357.9,43.2 358.9,42.8 359.9,42.4 361.0,42.0 362.0,44.7 363.0,44.4 364.1,44.2 365.1,44.0 366.1,43.8 367.2,44.5 368.2,44.4 369.2,44.1 370.3,44.0 371.3,43.9 372.3,44.8 373.4,44.8 374.4,44.7 375.4,44.6 376.5,44.1 377.5,43.3 378.5,43.2 379.6,43.2 380.6,43.2 381.6,43.1 382.7,44.4 383.7,44.4 384.7,44.5 385.8,44.5 386.8,44.6 387.8,44.9 388.9,45.0 389.9,45.3 390.9,45.5 392.0,45.6 393.0,46.2 394.0,46.4 395.1,46.6 396.1,46.8 397.1,47.8 398.2,49.3 399.2,49.6 400.2,49.9 401.3,50.2 402.3,50.5 403.3,50.6 404.4,50.9 405.4,51.3 406.4,51.6 407.5,52.0 408.5,52.6 409.5,53.0 410.6,53.5 411.6,53.9 412.6,54.4 413.7,55.9 414.7,56.4 415.7,56.9 416.8,57.4 417.8,57.0 418.8,57.8 419.9,58.3 420.9,58.8 421.9,59.3 423.0,59.9 424.0,61.0 425.0,61.6 426.1,62.3 427.1,62.9 428.1,63.6 429.2,63.7 430.2,64.3 431.2,65.4 432.3,66.1 433.3,66.8 434.3,66.9 435.4,67.7 436.4,68.4 437.4,69.1 438.5,69.0 439.5,69.8 440.5,70.5 441.6,71.3 442.6,72.0 443.6,72.7 444.7,72.3 445.7,73.0 446.7,73.7 447.8,74.4 448.8,75.1 449.8,76.2 450.9,76.9 451.9,79.0 452.9,79.8 454.0,80.7 455.0,82.3 456.0,83.1 457.1,83.9 458.1,84.8 459.1,84.9 460.2,87.2 461.2,88.0 462.2,88.8 463.3,89.7 464.3,90.5 465.3,91.4 466.4,92.3 467.4,93.1 468.4,94.0 469.5,94.8 470.5,95.9 471.5,96.8 472.6,97.0 473.6,97.8 474.6,98.6 475.7,98.9 476.7,99.7 477.7,100.6 478.8,101.4 479.8,103.7 480.8,103.9 481.9,104.8 482.9,105.7 483.9,106.7 485.0,107.6 486.0,107.9 487.0,109.2 488.1,110.1 489.1,111.0 490.1,111.9 491.2,112.0 492.2,112.9 493.2,112.4 494.3,113.2 495.3,114.1 496.3,113.9 497.4,114.7 498.4,115.5 499.4,116.3 500.5,117.7 501.5,118.1 502.5,119.0 503.6,119.8 504.6,120.6 505.6,121.4 506.7,122.9 507.7,123.7 508.7,124.5 509.8,125.4 510.8,126.2 511.8,128.4 512.9,129.2 513.9,129.4 514.9,130.1 516.0,130.9 517.0,131.7 518.0,132.5 519.1,133.3 520.1,134.1 521.1,133.9 522.2,136.4 523.2,137.1 524.2,137.8 525.3,138.5 526.3,139.2 527.3,139.5 528.4,140.2 529.4,140.8 530.4,141.5 531.5,142.1 532.5,143.6 533.5,144.2 534.6,146.3 535.6,147.0 536.6,147.7 537.7,147.6 538.7,148.2 539.7,148.9 540.8,149.5 541.8,149.2 542.8,148.4 543.9,148.9 544.9,149.4 545.9,150.0 547.0,150.5 548.0,149.9 549.0,150.4 550.1,150.8 551.1,151.2 552.1,151.7 553.2,152.4 554.2,152.9 555.2,153.6 556.3,154.0 557.3,154.4 558.3,155.0 559.4,155.3 560.4,155.7 561.4,156.1 562.5,157.0 563.5,157.9 564.5,158.3 565.6,158.6 566.6,159.0 567.6,159.3 568.7,160.1 569.7,161.4 570.7,161.7 571.8,162.0 572.8,162.3 573.8,162.5 574.9,162.7 575.9,164.2 576.9,164.5 578.0,164.8 579.0,164.9 580.0,165.2 581.1,165.5 582.1,165.7 583.1,166.1 584.2,166.1 585.2,166.3 586.2,166.6 587.3,166.8 588.3,167.0 589.3,168.7 590.4,168.7 591.4,168.9 592.4,169.1 593.5,169.4 594.5,170.2 595.5,170.4 596.6,171.3 597.6,171.6 598.6,171.8 599.7,170.6 600.7,170.8 601.7,171.0 602.8,171.1 603.8,170.0 604.8,169.0 605.9,169.1 606.9,169.1 607.9,169.2 609.0,169.2 610.0,168.6 611.0,168.8 612.1,168.9 613.1,168.9 614.1,169.0 615.2,170.3 616.2,170.4 617.2,170.2 618.3,170.2 619.3,170.2 620.3,170.8 621.4,170.8 622.4,170.8 623.4,170.8 624.5,170.3 625.5,169.4 626.5,169.4 627.6,169.3 628.6,169.2 629.6,169.2 630.7,170.8 631.7,170.5 632.7,170.5 633.8,170.4 634.8,170.3 635.8,170.4 636.9,170.3 637.9,169.1 638.9,169.0 640.0,168.8 641.0,168.3 642.0,168.2 643.1,168.0 644.1,167.8 645.1,168.2 646.2,169.3 647.2,169.1 648.2,169.0 649.3,168.8 650.3,168.6 651.3,170.4 652.4,171.4 653.4,171.4 654.4,171.3 655.5,171.3 656.5,170.1 657.5,170.0 658.6,168.7 659.6,168.5 660.6,168.4 661.7,168.3 662.7,168.2 663.7,168.0 664.8,167.9 665.8,168.2 666.8,170.0 667.9,169.9 668.9,169.8 669.9,169.7 671.0,169.5 672.0,169.9 673.0,169.3 674.1,169.2 675.1,169.1 676.1,168.9 677.2,169.5 678.2,169.4 679.2,169.0 680.3,168.9 681.3,168.8 682.3,168.0 683.4,167.8 684.4,167.7 685.4,167.6 686.5,167.7 687.5,166.6 688.5,166.5 689.6,166.4 690.6,166.4 691.6,166.3 692.7,165.8 693.7,165.6 694.7,165.5 695.8,165.3 696.8,165.2 697.8,164.1 698.9,163.9 699.9,163.3 700.9,163.2 702.0,163.0 703.0,161.5 704.0,161.4 705.1,161.2 706.1,161.1 707.1,161.5 708.2,162.0 709.2,161.9 710.2,161.8 711.3,161.8 712.3,161.7 713.3,164.1 714.4,164.2 715.4,164.2 716.4,164.2 717.5,164.3 718.5,164.1 719.5,164.2 720.6,163.9 721.6,164.0 722.6,164.1 723.7,165.1 724.7,165.2 725.7,165.3 726.8,165.5 727.8,167.6 728.8,166.6 729.9,166.8 730.9,167.0 731.9,167.3 733.0,167.6 734.0,165.7 735.0,164.4 736.1,164.5 737.1,164.7 738.1,165.0 739.2,164.9 740.2,165.2 741.2,166.9 742.3,167.3 743.3,167.7 744.3,167.6 745.4,168.0 746.4,168.4 747.4,168.8 748.5,168.7 749.5,166.2 750.5,166.6 751.6,167.0 752.6,167.4 753.6,167.9 754.7,170.6 755.7,171.0 756.7,171.6 757.8,172.2 758.8,172.8 759.8,174.0 760.9,174.7 761.9,174.5 762.9,175.1 764.0,175.7 765.0,176.5 766.0,177.1 767.1,177.8 768.1,178.5 769.1,179.3 770.2,180.2 771.2,180.9 772.2,181.7 773.3,182.5 774.3,183.3 775.3,182.2 776.4,183.2 777.4,184.1 778.4,184.9 779.5,185.8 780.5,185.0 781.5,185.9 782.6,185.3 783.6,186.1 784.6,187.0 785.7,189.2 786.7,190.2 787.7,191.1 788.8,192.0 789.8,192.0 790.8,192.6 791.9,193.5 792.9,194.5 793.9,195.4 795.0,196.3 796.0,198.8"/>
<text x="640" y="72" font-family="Arial" font-size="12" fill="#2563eb">estimate</text>
</svg>