<svg xmlns="http://www.w3.org/2000/svg" width="820" height="320" viewBox="0 0 820 320">
<rect width="100%" height="100%" fill="white"/>
<text x="52" y="30" font-family="Arial" font-size="18" font-weight="700">ekf_dropout_robust accelerometer bias estimates</text>
<line x1="52" y1="274" x2="796" y2="274" stroke="#263238"/>
<line x1="52" y1="42" x2="52" y2="274" stroke="#263238"/>
<text x="52" y="306" font-family="Arial" font-size="12">time (s)</text>
<text x="630" y="306" font-family="Arial" font-size="12">m/s^2</text>

<polyline fill="none" stroke="#0f766e" stroke-width="2.3" points="52.0,131.3 53.0,131.3 54.1,131.3 55.1,131.3 56.1,131.3 57.2,131.3 58.2,131.3 59.2,109.3 60.3,109.3 61.3,109.3 62.3,109.3 63.4,109.3 64.4,109.3 65.4,109.3 66.5,208.6 67.5,208.6 68.5,208.6 69.6,208.6 70.6,208.6 71.6,208.6 72.7,123.9 73.7,123.9 74.7,123.9 75.8,123.9 76.8,123.9 77.8,123.9 78.9,123.9 79.9,57.9 80.9,57.9 82.0,57.9 83.0,57.9 84.0,57.9 85.1,57.9 86.1,57.9 87.1,167.8 88.2,167.8 89.2,167.8 90.2,167.8 91.3,167.8 92.3,167.8 93.3,133.3 94.4,133.9 95.4,133.9 96.4,133.9 97.5,133.9 98.5,133.9 99.5,133.9 100.6,133.6 101.6,133.6 102.6,133.6 103.7,133.6 104.7,133.6 105.7,133.6 106.8,133.6 107.8,123.7 108.8,123.7 109.9,123.7 110.9,123.7 111.9,123.7 113.0,123.7 114.0,109.4 115.0,109.4 116.1,109.4 117.1,109.4 118.1,109.4 119.2,109.4 120.2,109.4 121.2,62.2 122.3,62.2 123.3,62.2 124.3,62.2 125.4,62.2 126.4,62.2 127.4,62.2 128.5,104.6 129.5,104.6 130.5,104.6 131.6,104.6 132.6,104.6 133.6,104.6 134.7,93.0 135.7,92.1 136.7,92.1 137.8,92.1 138.8,92.1 139.8,92.1 140.9,92.1 141.9,92.7 142.9,92.7 144.0,92.7 145.0,92.7 146.0,92.7 147.1,92.7 148.1,92.7 149.1,81.8 150.2,81.8 151.2,81.8 152.2,81.8 153.3,81.8 154.3,81.8 155.3,87.9 156.4,86.7 157.4,86.7 158.4,86.7 159.5,86.7 160.5,86.7 161.5,86.7 162.6,86.3 163.6,86.3 164.6,86.3 165.7,86.3 166.7,86.3 167.7,86.3 168.8,86.3 169.8,106.8 170.8,106.8 171.9,106.8 172.9,106.8 173.9,106.8 175.0,106.8 176.0,110.7 177.0,110.7 178.1,110.7 179.1,110.7 180.1,110.7 181.2,110.7 182.2,110.7 183.2,100.0 184.3,100.0 185.3,100.0 186.3,100.0 187.4,100.0 188.4,100.0 189.4,100.0 190.5,102.4 191.5,102.4 192.5,102.4 193.6,102.4 194.6,102.4 195.6,102.4 196.7,114.8 197.7,114.8 198.7,114.8 199.8,114.8 200.8,114.8 201.8,114.8 202.9,114.8 203.9,110.3 204.9,110.3 206.0,110.3 207.0,110.3 208.0,110.3 209.1,110.3 210.1,110.3 211.1,103.8 212.2,103.8 213.2,103.8 214.2,103.8 215.3,103.8 216.3,103.8 217.3,100.4 218.4,99.7 219.4,99.7 220.4,99.7 221.5,99.7 222.5,99.7 223.5,99.7 224.6,100.1 225.6,100.1 226.6,100.1 227.7,100.1 228.7,100.1 229.7,100.1 230.8,100.1 231.8,102.5 232.8,102.5 233.9,102.5 234.9,102.5 235.9,102.5 237.0,102.5 238.0,105.0 239.0,105.2 240.1,105.2 241.1,105.2 242.1,105.2 243.2,105.2 244.2,105.2 245.2,115.0 246.3,115.0 247.3,115.0 248.3,115.0 249.4,115.0 250.4,115.0 251.4,115.0 252.5,118.7 253.5,118.7 254.5,118.7 255.6,118.7 256.6,118.7 257.6,118.7 258.7,117.3 259.7,117.3 260.7,117.3 261.8,117.3 262.8,117.3 263.8,117.3 264.9,117.3 265.9,117.7 266.9,117.7 268.0,117.7 269.0,117.7 270.0,117.7 271.1,117.7 272.1,117.7 273.1,117.8 274.2,117.8 275.2,117.8 276.2,117.8 277.3,117.8 278.3,117.8 279.3,116.7 280.4,116.4 281.4,116.4 282.4,116.4 283.5,116.4 284.5,116.4 285.5,116.4 286.6,113.1 287.6,113.1 288.6,113.1 289.7,113.1 290.7,113.1 291.7,113.1 292.8,113.1 293.8,114.0 294.8,114.0 295.9,114.0 296.9,114.0 297.9,114.0 299.0,114.0 300.0,113.4 301.0,113.4 302.1,113.4 303.1,113.4 304.1,113.4 305.2,113.4 306.2,113.4 307.2,109.5 308.3,109.5 309.3,109.5 310.3,109.5 311.4,109.5 312.4,109.5 313.4,109.5 314.5,107.2 315.5,107.2 316.5,107.2 317.6,107.2 318.6,107.2 319.6,107.2 320.7,110.4 321.7,110.4 322.7,110.4 323.8,110.4 324.8,110.4 325.8,110.4 326.9,110.4 327.9,109.0 328.9,109.0 330.0,109.0 331.0,109.0 332.0,109.0 333.1,109.0 334.1,109.0 335.1,109.9 336.2,109.9 337.2,109.9 338.2,109.9 339.3,109.9 340.3,109.9 341.3,108.0 342.4,107.0 343.4,107.0 344.4,107.0 345.5,107.0 346.5,107.0 347.5,107.0 348.6,109.3 349.6,109.3 350.6,109.3 351.7,109.3 352.7,109.3 353.7,109.3 354.8,109.3 355.8,111.7 356.8,111.7 357.9,111.7 358.9,111.7 359.9,111.7 361.0,111.7 362.0,112.4 363.0,112.4 364.1,112.4 365.1,112.4 366.1,112.4 367.2,112.4 368.2,112.4 369.2,109.4 370.3,109.4 371.3,109.4 372.3,109.4 373.4,109.4 374.4,109.4 375.4,109.4 376.5,109.5 377.5,109.5 378.5,109.5 379.6,109.5 380.6,109.5 381.6,109.5 382.7,109.3 383.7,109.3 384.7,109.3 385.8,109.3 386.8,109.3 387.8,109.3 388.9,109.3 389.9,109.1 390.9,109.1 392.0,109.1 393.0,109.1 394.0,109.1 395.1,109.1 396.1,109.1 397.1,111.1 398.2,111.1 399.2,111.1 400.2,111.1 401.3,111.1 402.3,111.1 403.3,111.1 404.4,111.1 405.4,111.1 406.4,111.1 407.5,111.1 408.5,111.1 409.5,111.1 410.6,111.0 411.6,111.0 412.6,111.0 413.7,111.0 414.7,111.0 415.7,111.0 416.8,111.0 417.8,110.2 418.8,110.2 419.9,110.2 420.9,110.2 421.9,110.2 423.0,110.2 424.0,110.6 425.0,110.6 426.1,110.6 427.1,110.6 428.1,110.6 429.2,110.6 430.2,110.6 431.2,109.4 432.3,109.4 433.3,109.4 434.3,109.4 435.4,109.4 436.4,109.4 437.4,109.4 438.5,104.7 439.5,104.7 440.5,104.7 441.6,104.7 442.6,104.7 443.6,104.7 444.7,107.5 445.7,107.5 446.7,107.5 447.8,107.5 448.8,107.5 449.8,107.5 450.9,107.5 451.9,110.1 452.9,110.1 454.0,110.1 455.0,110.1 456.0,110.1 457.1,110.1 458.1,110.1 459.1,109.3 460.2,109.3 461.2,109.3 462.2,109.3 463.3,109.3 464.3,109.3 465.3,112.1 466.4,112.1 467.4,112.1 468.4,112.1 469.5,112.1 470.5,112.1 471.5,112.1 472.6,111.9 473.6,111.9 474.6,111.9 475.7,111.9 476.7,111.9 477.7,111.9 478.8,111.9 479.8,108.9 480.8,108.9 481.9,108.9 482.9,108.9 483.9,108.9 485.0,108.9 486.0,109.4 487.0,109.4 488.1,109.4 489.1,109.4 490.1,109.4 491.2,109.4 492.2,109.4 493.2,112.4 494.3,112.4 495.3,112.4 496.3,112.4 497.4,112.4 498.4,112.4 499.4,112.4 500.5,111.7 501.5,111.7 502.5,111.7 503.6,111.7 504.6,111.7 505.6,111.7 506.7,112.5 507.7,112.5 508.7,112.5 509.8,112.5 510.8,112.5 511.8,112.5 512.9,112.5 513.9,111.0 514.9,111.0 516.0,111.0 517.0,111.0 518.0,111.0 519.1,111.0 520.1,111.0 521.1,108.4 522.2,108.4 523.2,108.4 524.2,108.4 525.3,108.4 526.3,108.4 527.3,108.7 528.4,108.7 529.4,108.7 530.4,108.7 531.5,108.7 532.5,108.7 533.5,108.7 534.6,109.3 535.6,109.3 536.6,109.3 537.7,109.3 538.7,109.3 539.7,109.3 540.8,109.3 541.8,111.9 542.8,111.9 543.9,111.9 544.9,111.9 545.9,111.9 547.0,111.9 548.0,111.8 549.0,111.8 550.1,111.8 551.1,111.8 552.1,111.8 553.2,111.8 554.2,111.8 555.2,109.6 556.3,109.6 557.3,109.6 558.3,109.6 559.4,109.6 560.4,109.6 561.4,109.6 562.5,110.5 563.5,110.5 564.5,110.5 565.6,110.5 566.6,110.5 567.6,110.5 568.7,112.4 569.7,112.3 570.7,112.3 571.8,112.3 572.8,112.3 573.8,112.3 574.9,112.3 575.9,111.8 576.9,111.8 578.0,111.8 579.0,111.8 580.0,111.8 581.1,111.8 582.1,111.8 583.1,113.7 584.2,113.7 585.2,113.7 586.2,113.7 587.3,113.7 588.3,113.7 589.3,114.1 590.4,114.0 591.4,114.0 592.4,114.0 593.5,114.0 594.5,114.0 595.5,114.0 596.6,112.6 597.6,112.6 598.6,112.6 599.7,112.6 600.7,112.6 601.7,112.6 602.8,112.6 603.8,109.9 604.8,109.9 605.9,109.9 606.9,109.9 607.9,109.9 609.0,109.9 610.0,109.6 611.0,109.6 612.1,109.6 613.1,109.6 614.1,109.6 615.2,109.6 616.2,109.6 617.2,104.7 618.3,104.7 619.3,104.7 620.3,104.7 621.4,104.7 622.4,104.7 623.4,104.7 624.5,105.3 625.5,105.3 626.5,105.3 627.6,105.3 628.6,105.3 629.6,105.3 630.7,106.2 631.7,106.2 632.7,106.2 633.8,106.2 634.8,106.2 635.8,106.2 636.9,106.2 637.9,106.1 638.9,106.1 640.0,106.1 641.0,106.1 642.0,106.1 643.1,106.1 644.1,106.1 645.1,108.2 646.2,108.2 647.2,108.2 648.2,108.2 649.3,108.2 650.3,108.2 651.3,107.6 652.4,107.4 653.4,107.4 654.4,107.4 655.5,107.4 656.5,107.4 657.5,107.4 658.6,110.8 659.6,110.8 660.6,110.8 661.7,110.8 662.7,110.8 663.7,110.8 664.8,110.8 665.8,111.6 666.8,111.6 667.9,111.6 668.9,111.6 669.9,111.6 671.0,111.6 672.0,107.4 673.0,107.3 674.1,107.3 675.1,107.3 676.1,107.3 677.2,107.3 678.2,107.3 679.2,110.5 680.3,110.5 681.3,110.5 682.3,110.5 683.4,110.5 684.4,110.5 685.4,110.5 686.5,110.2 687.5,110.2 688.5,110.2 689.6,110.2 690.6,110.2 691.6,110.2 692.7,106.1 693.7,106.1 694.7,106.1 695.8,106.1 696.8,106.1 697.8,106.1 698.9,106.1 699.9,105.9 700.9,105.9 702.0,105.9 703.0,105.9 704.0,105.9 705.1,105.9 706.1,105.9 707.1,109.7 708.2,109.7 709.2,109.7 710.2,109.7 711.3,109.7 712.3,109.7 713.3,112.4 714.4,112.4 715.4,112.4 716.4,112.4 717.5,112.4 718.5,112.4 719.5,112.4 720.6,115.2 721.6,115.2 722.6,115.2 723.7,115.2 724.7,115.2 725.7,115.2 726.8,115.2 727.8,111.8 728.8,111.8 729.9,111.8 730.9,111.8 731.9,111.8 733.0,111.8 734.0,112.8 735.0,112.6 736.1,112.6 737.1,112.6 738.1,112.6 739.2,112.6 740.2,112.6 741.2,119.6 742.3,119.6 743.3,119.6 744.3,119.6 745.4,119.6 746.4,119.6 747.4,119.6 748.5,115.1 749.5,115.1 750.5,115.1 751.6,115.1 752.6,115.1 753.6,115.1 754.7,116.4 755.7,116.3 756.7,116.3 757.8,116.3 758.8,116.3 759.8,116.3 760.9,116.3 761.9,107.9 762.9,107.9 764.0,107.9 765.0,107.9 766.0,107.9 767.1,107.9 768.1,107.9 769.1,107.3 770.2,107.3 771.2,107.3 772.2,107.3 773.3,107.3 774.3,107.3 775.3,110.9 776.4,110.9 777.4,110.9 778.4,110.9 779.5,110.9 780.5,110.9 781.5,110.9 782.6,107.6 783.6,107.6 784.6,107.6 785.7,107.6 786.7,107.6 787.7,107.6 788.8,107.6 789.8,103.6 790.8,103.6 791.9,103.6 792.9,103.6 793.9,103.6 795.0,103.6 796.0,103.6"/>
<text x="640" y="56" font-family="Arial" font-size="12" fill="#0f766e">bax</text>
<polyline fill="none" stroke="#2563eb" stroke-width="2.3" points="52.0,131.3 53.0,131.3 54.1,131.3 55.1,131.3 56.1,131.3 57.2,131.3 58.2,131.3 59.2,140.2 60.3,140.2 61.3,140.2 62.3,140.2 63.4,140.2 64.4,140.2 65.4,140.2 66.5,42.0 67.5,42.0 68.5,42.0 69.6,42.0 70.6,42.0 71.6,42.0 72.7,123.0 73.7,123.0 74.7,123.0 75.8,123.0 76.8,123.0 77.8,123.0 78.9,123.0 79.9,181.4 80.9,181.4 82.0,181.4 83.0,181.4 84.0,181.4 85.1,181.4 86.1,181.4 87.1,129.3 88.2,129.3 89.2,129.3 90.2,129.3 91.3,129.3 92.3,129.3 93.3,131.4 94.4,131.6 95.4,131.6 96.4,131.6 97.5,131.6 98.5,131.6 99.5,131.6 100.6,125.8 101.6,125.8 102.6,125.8 103.7,125.8 104.7,125.8 105.7,125.8 106.8,125.8 107.8,112.5 108.8,112.5 109.9,112.5 110.9,112.5 111.9,112.5 113.0,112.5 114.0,144.9 115.0,144.9 116.1,144.9 117.1,144.9 118.1,144.9 119.2,144.9 120.2,144.9 121.2,175.5 122.3,175.5 123.3,175.5 124.3,175.5 125.4,175.5 126.4,175.5 127.4,175.5 128.5,161.0 129.5,161.0 130.5,161.0 131.6,161.0 132.6,161.0 133.6,161.0 134.7,151.3 135.7,149.9 136.7,149.9 137.8,149.9 138.8,149.9 139.8,149.9 140.9,149.9 141.9,135.2 142.9,135.2 144.0,135.2 145.0,135.2 146.0,135.2 147.1,135.2 148.1,135.2 149.1,148.9 150.2,148.9 151.2,148.9 152.2,148.9 153.3,148.9 154.3,148.9 155.3,142.9 156.4,144.0 157.4,144.0 158.4,144.0 159.5,144.0 160.5,144.0 161.5,144.0 162.6,149.4 163.6,149.4 164.6,149.4 165.7,149.4 166.7,149.4 167.7,149.4 168.8,149.4 169.8,153.2 170.8,153.2 171.9,153.2 172.9,153.2 173.9,153.2 175.0,153.2 176.0,152.0 177.0,152.0 178.1,152.0 179.1,152.0 180.1,152.0 181.2,152.0 182.2,152.0 183.2,136.2 184.3,136.2 185.3,136.2 186.3,136.2 187.4,136.2 188.4,136.2 189.4,136.2 190.5,136.6 191.5,136.6 192.5,136.6 193.6,136.6 194.6,136.6 195.6,136.6 196.7,149.4 197.7,149.4 198.7,149.4 199.8,149.4 200.8,149.4 201.8,149.4 202.9,149.4 203.9,150.1 204.9,150.1 206.0,150.1 207.0,150.1 208.0,150.1 209.1,150.1 210.1,150.1 211.1,151.5 212.2,151.5 213.2,151.5 214.2,151.5 215.3,151.5 216.3,151.5 217.3,156.3 218.4,156.2 219.4,156.2 220.4,156.2 221.5,156.2 222.5,156.2 223.5,156.2 224.6,148.5 225.6,148.5 226.6,148.5 227.7,148.5 228.7,148.5 229.7,148.5 230.8,148.5 231.8,143.4 232.8,143.4 233.9,143.4 234.9,143.4 235.9,143.4 237.0,143.4 238.0,148.4 239.0,148.5 240.1,148.5 241.1,148.5 242.1,148.5 243.2,148.5 244.2,148.5 245.2,149.3 246.3,149.3 247.3,149.3 248.3,149.3 249.4,149.3 250.4,149.3 251.4,149.3 252.5,150.1 253.5,150.1 254.5,150.1 255.6,150.1 256.6,150.1 257.6,150.1 258.7,153.9 259.7,153.9 260.7,153.9 261.8,153.9 262.8,153.9 263.8,153.9 264.9,153.9 265.9,147.2 266.9,147.2 268.0,147.2 269.0,147.2 270.0,147.2 271.1,147.2 272.1,147.2 273.1,144.2 274.2,144.2 275.2,144.2 276.2,144.2 277.3,144.2 278.3,144.2 279.3,149.9 280.4,149.6 281.4,149.6 282.4,149.6 283.5,149.6 284.5,149.6 285.5,149.6 286.6,148.5 287.6,148.5 288.6,148.5 289.7,148.5 290.7,148.5 291.7,148.5 292.8,148.5 293.8,149.1 294.8,149.1 295.9,149.1 296.9,149.1 297.9,149.1 299.0,149.1 300.0,148.8 301.0,148.8 302.1,148.8 303.1,148.8 304.1,148.8 305.2,148.8 306.2,148.8 307.2,150.5 308.3,150.5 309.3,150.5 310.3,150.5 311.4,150.5 312.4,150.5 313.4,150.5 314.5,153.4 315.5,153.4 316.5,153.4 317.6,153.4 318.6,153.4 319.6,153.4 320.7,150.2 321.7,150.2 322.7,150.2 323.8,150.2 324.8,150.2 325.8,150.2 326.9,150.2 327.9,151.3 328.9,151.3 330.0,151.3 331.0,151.3 332.0,151.3 333.1,151.3 334.1,151.3 335.1,155.2 336.2,155.2 337.2,155.2 338.2,155.2 339.3,155.2 340.3,155.2 341.3,154.5 342.4,154.5 343.4,154.5 344.4,154.5 345.5,154.5 346.5,154.5 347.5,154.5 348.6,151.4 349.6,151.4 350.6,151.4 351.7,151.4 352.7,151.4 353.7,151.4 354.8,151.4 355.8,147.6 356.8,147.6 357.9,147.6 358.9,147.6 359.9,147.6 361.0,147.6 362.0,146.5 363.0,146.5 364.1,146.5 365.1,146.5 366.1,146.5 367.2,146.5 368.2,146.5 369.2,148.6 370.3,148.6 371.3,148.6 372.3,148.6 373.4,148.6 374.4,148.6 375.4,148.6 376.5,148.2 377.5,148.2 378.5,148.2 379.6,148.2 380.6,148.2 381.6,148.2 382.7,146.8 383.7,146.8 384.7,146.8 385.8,146.8 386.8,146.8 387.8,146.8 388.9,146.8 389.9,147.6 390.9,147.6 392.0,147.6 393.0,147.6 394.0,147.6 395.1,147.6 396.1,147.6 397.1,148.3 398.2,148.3 399.2,148.3 400.2,148.3 401.3,148.3 402.3,148.3 403.3,146.6 404.4,146.6 405.4,146.6 406.4,146.6 407.5,146.6 408.5,146.6 409.5,146.6 410.6,147.1 411.6,147.1 412.6,147.1 413.7,147.1 414.7,147.1 415.7,147.1 416.8,147.1 417.8,145.0 418.8,145.0 419.9,145.0 420.9,145.0 421.9,145.0 423.0,145.0 424.0,145.4 425.0,145.4 426.1,145.4 427.1,145.4 428.1,145.4 429.2,145.4 430.2,145.4 431.2,145.5 432.3,145.5 433.3,145.5 434.3,145.5 435.4,145.5 436.4,145.5 437.4,145.5 438.5,144.0 439.5,144.0 440.5,144.0 441.6,144.0 442.6,144.0 443.6,144.0 444.7,146.7 445.7,146.7 446.7,146.7 447.8,146.7 448.8,146.7 449.8,146.7 450.9,146.7 451.9,144.4 452.9,144.4 454.0,144.4 455.0,144.4 456.0,144.4 457.1,144.4 458.1,144.4 459.1,150.1 460.2,150.1 461.2,150.1 462.2,150.1 463.3,150.1 464.3,150.1 465.3,151.5 466.4,151.5 467.4,151.5 468.4,151.5 469.5,151.5 470.5,151.5 471.5,151.5 472.6,150.5 473.6,150.5 474.6,150.5 475.7,150.5 476.7,150.5 477.7,150.5 478.8,150.5 479.8,151.9 480.8,151.9 481.9,151.9 482.9,151.9 483.9,151.9 485.0,151.9 486.0,150.3 487.0,150.4 488.1,150.4 489.1,150.4 490.1,150.4 491.2,150.4 492.2,150.4 493.2,148.8 494.3,148.8 495.3,148.8 496.3,148.8 497.4,148.8 498.4,148.8 499.4,148.8 500.5,148.8 501.5,148.8 502.5,148.8 503.6,148.8 504.6,148.8 505.6,148.8 506.7,150.1 507.7,150.1 508.7,150.1 509.8,150.1 510.8,150.1 511.8,150.1 512.9,150.1 513.9,149.2 514.9,149.2 516.0,149.2 517.0,149.2 518.0,149.2 519.1,149.2 520.1,149.2 521.1,150.0 522.2,150.0 523.2,150.0 524.2,150.0 525.3,150.0 526.3,150.0 527.3,148.7 528.4,148.7 529.4,148.7 530.4,148.7 531.5,148.7 532.5,148.7 533.5,148.7 534.6,145.7 535.6,145.7 536.6,145.7 537.7,145.7 538.7,145.7 539.7,145.7 540.8,145.7 541.8,147.4 542.8,147.4 543.9,147.4 544.9,147.4 545.9,147.4 547.0,147.4 548.0,148.7 549.0,148.7 550.1,148.7 551.1,148.7 552.1,148.7 553.2,148.7 554.2,148.7 555.2,150.3 556.3,150.3 557.3,150.3 558.3,150.3 559.4,150.3 560.4,150.3 561.4,150.3 562.5,150.7 563.5,150.7 564.5,150.7 565.6,150.7 566.6,150.7 567.6,150.7 568.7,148.3 569.7,148.2 570.7,148.2 571.8,148.2 572.8,148.2 573.8,148.2 574.9,148.2 575.9,149.0 576.9,149.0 578.0,149.0 579.0,149.0 580.0,149.0 581.1,149.0 582.1,149.0 583.1,149.6 584.2,149.6 585.2,149.6 586.2,149.6 587.3,149.6 588.3,149.6 589.3,148.9 590.4,148.8 591.4,148.8 592.4,148.8 593.5,148.8 594.5,148.8 595.5,148.8 596.6,148.9 597.6,148.9 598.6,148.9 599.7,148.9 600.7,148.9 601.7,148.9 602.8,148.9 603.8,148.7 604.8,148.7 605.9,148.7 606.9,148.7 607.9,148.7 609.0,148.7 610.0,149.7 611.0,149.7 612.1,149.7 613.1,149.7 614.1,149.7 615.2,149.7 616.2,149.7 617.2,148.0 618.3,148.0 619.3,148.0 620.3,148.0 621.4,148.0 622.4,148.0 623.4,148.0 624.5,147.9 625.5,147.9 626.5,147.9 627.6,147.9 628.6,147.9 629.6,147.9 630.7,145.2 631.7,145.4 632.7,145.4 633.8,145.4 634.8,145.4 635.8,145.4 636.9,145.4 637.9,143.4 638.9,143.4 640.0,143.4 641.0,143.4 642.0,143.4 643.1,143.4 644.1,143.4 645.1,144.1 646.2,144.1 647.2,144.1 648.2,144.1 649.3,144.1 650.3,144.1 651.3,142.4 652.4,142.5 653.4,142.5 654.4,142.5 655.5,142.5 656.5,142.6 657.5,142.6 658.6,144.4 659.6,144.4 660.6,144.4 661.7,144.4 662.7,144.4 663.7,144.4 664.8,144.4 665.8,144.7 666.8,144.7 667.9,144.7 668.9,144.7 669.9,144.7 671.0,144.7 672.0,143.8 673.0,143.7 674.1,143.7 675.1,143.7 676.1,143.7 677.2,143.7 678.2,143.7 679.2,147.0 680.3,147.0 681.3,147.0 682.3,147.0 683.4,147.0 684.4,147.0 685.4,147.0 686.5,146.1 687.5,146.1 688.5,146.1 689.6,146.1 690.6,146.1 691.6,146.1 692.7,147.1 693.7,147.1 694.7,147.1 695.8,147.1 696.8,147.1 697.8,147.1 698.9,147.1 699.9,149.6 700.9,149.6 702.0,149.6 703.0,149.6 704.0,149.6 705.1,149.6 706.1,149.6 707.1,145.7 708.2,145.7 709.2,145.7 710.2,145.7 711.3,145.7 712.3,145.7 713.3,149.2 714.4,149.2 715.4,149.2 716.4,149.2 717.5,149.2 718.5,149.2 719.5,149.2 720.6,145.1 721.6,145.1 722.6,145.1 723.7,145.1 724.7,145.1 725.7,145.1 726.8,145.1 727.8,142.6 728.8,142.6 729.9,142.6 730.9,142.6 731.9,142.6 733.0,142.6 734.0,144.0 735.0,144.1 736.1,144.1 737.1,144.1 738.1,144.1 739.2,144.1 740.2,144.1 741.2,138.3 742.3,138.3 743.3,138.3 744.3,138.3 745.4,138.3 746.4,138.3 747.4,138.3 748.5,137.2 749.5,137.2 750.5,137.2 751.6,137.2 752.6,137.2 753.6,137.2 754.7,144.2 755.7,144.3 756.7,144.3 757.8,144.3 758.8,144.3 759.8,144.3 760.9,144.3 761.9,136.9 762.9,136.9 764.0,136.9 765.0,136.9 766.0,136.9 767.1,136.9 768.1,136.9 769.1,142.4 770.2,142.4 771.2,142.4 772.2,142.4 773.3,142.4 774.3,142.4 775.3,146.6 776.4,146.5 777.4,146.5 778.4,146.5 779.5,146.5 780.5,146.5 781.5,146.5 782.6,142.7 783.6,142.7 784.6,142.7 785.7,142.7 786.7,142.7 787.7,142.7 788.8,142.7 789.8,145.0 790.8,145.0 791.9,145.0 792.9,145.0 793.9,145.0 795.0,145.0 796.0,151.9"/>
<text x="640" y="72" font-family="Arial" font-size="12" fill="#2563eb">bay</text>
<polyline fill="none" stroke="#b45309" stroke-width="2.3" points="52.0,131.3 53.0,131.3 54.1,131.3 55.1,131.3 56.1,131.3 57.2,128.7 58.2,128.7 59.2,87.8 60.3,87.8 61.3,87.8 62.3,89.2 63.4,89.2 64.4,89.2 65.4,89.2 66.5,77.3 67.5,79.7 68.5,79.7 69.6,79.7 70.6,79.7 71.6,79.7 72.7,210.6 73.7,210.6 74.7,210.6 75.8,210.6 76.8,210.6 77.8,209.0 78.9,209.0 79.9,274.0 80.9,274.0 82.0,274.0 83.0,272.8 84.0,272.8 85.1,272.8 86.1,272.8 87.1,174.1 88.2,172.9 89.2,172.9 90.2,172.9 91.3,172.9 92.3,172.9 93.3,260.0 94.4,261.6 95.4,261.6 96.4,261.6 97.5,261.6 98.5,258.1 99.5,258.1 100.6,204.2 101.6,204.2 102.6,204.2 103.7,204.3 104.7,204.3 105.7,204.3 106.8,204.3 107.8,147.7 108.8,145.6 109.9,145.6 110.9,145.6 111.9,145.6 113.0,145.6 114.0,139.1 115.0,139.1 116.1,139.1 117.1,139.1 118.1,139.1 119.2,141.4 120.2,141.4 121.2,119.1 122.3,119.1 123.3,119.1 124.3,119.0 125.4,119.0 126.4,119.0 127.4,119.0 128.5,105.3 129.5,105.7 130.5,105.7 131.6,105.7 132.6,105.7 133.6,105.7 134.7,136.1 135.7,137.1 136.7,137.1 137.8,137.1 138.8,137.1 139.8,136.8 140.9,136.8 141.9,137.3 142.9,137.3 144.0,137.3 145.0,136.0 146.0,136.0 147.1,136.0 148.1,136.0 149.1,116.7 150.2,117.3 151.2,117.3 152.2,117.3 153.3,117.3 154.3,117.3 155.3,111.8 156.4,111.3 157.4,111.3 158.4,111.3 159.5,111.3 160.5,111.7 161.5,111.7 162.6,120.4 163.6,120.4 164.6,120.4 165.7,119.1 166.7,119.1 167.7,119.1 168.8,119.1 169.8,120.9 170.8,120.9 171.9,120.9 172.9,120.9 173.9,120.9 175.0,120.9 176.0,110.3 177.0,110.3 178.1,110.3 179.1,110.3 180.1,110.3 181.2,110.3 182.2,110.3 183.2,108.8 184.3,108.8 185.3,108.8 186.3,110.3 187.4,110.3 188.4,110.3 189.4,110.3 190.5,112.5 191.5,113.6 192.5,113.6 193.6,113.6 194.6,113.6 195.6,113.6 196.7,118.0 197.7,118.0 198.7,118.0 199.8,118.0 200.8,118.0 201.8,118.4 202.9,118.4 203.9,116.0 204.9,116.0 206.0,116.0 207.0,116.1 208.0,116.1 209.1,116.1 210.1,116.1 211.1,119.9 212.2,119.7 213.2,119.7 214.2,119.7 215.3,119.7 216.3,119.7 217.3,109.8 218.4,110.0 219.4,110.0 220.4,110.0 221.5,110.0 222.5,109.7 223.5,109.7 224.6,113.7 225.6,113.7 226.6,113.7 227.7,114.5 228.7,114.5 229.7,114.5 230.8,114.5 231.8,110.7 232.8,111.2 233.9,111.2 234.9,111.2 235.9,111.2 237.0,111.2 238.0,105.4 239.0,105.3 240.1,105.3 241.1,105.3 242.1,105.3 243.2,106.2 244.2,106.2 245.2,103.6 246.3,103.6 247.3,103.6 248.3,103.7 249.4,103.7 250.4,103.7 251.4,103.7 252.5,110.7 253.5,111.9 254.5,111.9 255.6,111.9 256.6,111.9 257.6,111.9 258.7,115.8 259.7,115.8 260.7,115.8 261.8,115.8 262.8,115.8 263.8,115.9 264.9,115.9 265.9,117.4 266.9,117.4 268.0,117.4 269.0,117.2 270.0,117.2 271.1,117.2 272.1,117.2 273.1,121.8 274.2,122.5 275.2,122.5 276.2,122.5 277.3,122.5 278.3,122.5 279.3,120.9 280.4,120.7 281.4,120.7 282.4,120.7 283.5,120.7 284.5,121.3 285.5,121.3 286.6,118.6 287.6,118.6 288.6,118.6 289.7,118.5 290.7,118.5 291.7,118.5 292.8,118.5 293.8,123.2 294.8,123.2 295.9,123.2 296.9,123.2 297.9,123.2 299.0,123.2 300.0,120.3 301.0,120.3 302.1,120.3 303.1,120.3 304.1,120.3 305.2,120.3 306.2,120.3 307.2,123.5 308.3,123.5 309.3,123.5 310.3,124.0 311.4,124.0 312.4,124.0 313.4,124.0 314.5,120.8 315.5,120.8 316.5,120.8 317.6,120.8 318.6,120.8 319.6,120.8 320.7,123.3 321.7,123.3 322.7,123.3 323.8,123.3 324.8,123.3 325.8,123.2 326.9,123.2 327.9,120.6 328.9,120.6 330.0,120.6 331.0,121.1 332.0,121.1 333.1,121.1 334.1,121.1 335.1,125.5 336.2,125.6 337.2,125.6 338.2,125.6 339.3,125.6 340.3,125.6 341.3,128.1 342.4,127.9 343.4,127.9 344.4,127.9 345.5,127.9 346.5,127.6 347.5,127.6 348.6,121.8 349.6,121.8 350.6,121.8 351.7,121.4 352.7,121.4 353.7,121.4 354.8,121.4 355.8,124.3 356.8,124.6 357.9,124.6 358.9,124.6 359.9,124.6 361.0,124.6 362.0,120.1 363.0,120.1 364.1,120.1 365.1,120.1 366.1,120.1 367.2,119.8 368.2,119.8 369.2,120.1 370.3,120.1 371.3,120.1 372.3,119.7 373.4,119.7 374.4,119.7 375.4,119.7 376.5,120.9 377.5,121.2 378.5,121.2 379.6,121.2 380.6,121.2 381.6,121.2 382.7,121.1 383.7,121.1 384.7,121.1 385.8,121.1 386.8,121.1 387.8,121.0 388.9,121.0 389.9,120.5 390.9,120.5 392.0,120.5 393.0,120.3 394.0,120.3 395.1,120.3 396.1,120.3 397.1,118.8 398.2,118.4 399.2,118.4 400.2,118.4 401.3,118.4 402.3,118.4 403.3,119.7 404.4,119.7 405.4,119.7 406.4,119.7 407.5,119.7 408.5,119.6 409.5,119.6 410.6,119.5 411.6,119.5 412.6,119.5 413.7,119.2 414.7,119.2 415.7,119.2 416.8,119.2 417.8,121.2 418.8,121.1 419.9,121.1 420.9,121.1 421.9,121.1 423.0,121.1 424.0,118.1 425.0,118.1 426.1,118.1 427.1,118.1 428.1,118.1 429.2,118.3 430.2,118.3 431.2,117.6 432.3,117.6 433.3,117.6 434.3,117.7 435.4,117.7 436.4,117.7 437.4,117.7 438.5,119.7 439.5,119.7 440.5,119.7 441.6,119.7 442.6,119.7 443.6,119.7 444.7,121.6 445.7,121.6 446.7,121.6 447.8,121.6 448.8,121.6 449.8,121.5 450.9,121.5 451.9,118.7 452.9,118.7 454.0,118.7 455.0,118.5 456.0,118.5 457.1,118.5 458.1,118.5 459.1,120.0 460.2,119.6 461.2,119.6 462.2,119.6 463.3,119.6 464.3,119.6 465.3,119.9 466.4,119.9 467.4,119.9 468.4,119.9 469.5,119.9 470.5,119.9 471.5,119.9 472.6,121.3 473.6,121.3 474.6,121.3 475.7,121.4 476.7,121.4 477.7,121.4 478.8,121.4 479.8,118.4 480.8,118.6 481.9,118.6 482.9,118.6 483.9,118.6 485.0,118.6 486.0,118.2 487.0,118.1 488.1,118.1 489.1,118.1 490.1,118.1 491.2,118.4 492.2,118.4 493.2,121.1 494.3,121.1 495.3,121.1 496.3,121.4 497.4,121.4 498.4,121.4 499.4,121.4 500.5,120.3 501.5,120.4 502.5,120.4 503.6,120.4 504.6,120.4 505.6,120.4 506.7,118.8 507.7,118.8 508.7,118.8 509.8,118.8 510.8,118.8 511.8,118.4 512.9,118.4 513.9,119.7 514.9,119.7 516.0,119.7 517.0,119.7 518.0,119.7 519.1,119.7 520.1,119.7 521.1,121.5 522.2,120.8 523.2,120.8 524.2,120.8 525.3,120.8 526.3,120.8 527.3,122.4 528.4,122.4 529.4,122.4 530.4,122.4 531.5,122.4 532.5,122.1 533.5,122.1 534.6,119.3 535.6,119.3 536.6,119.3 537.7,119.5 538.7,119.5 539.7,119.5 540.8,119.5 541.8,121.4 542.8,121.7 543.9,121.7 544.9,121.7 545.9,121.7 547.0,121.7 548.0,123.2 549.0,123.2 550.1,123.2 551.1,123.2 552.1,123.2 553.2,123.1 554.2,123.1 555.2,122.5 556.3,122.5 557.3,122.5 558.3,122.5 559.4,122.5 560.4,122.5 561.4,122.5 562.5,121.5 563.5,121.4 564.5,121.4 565.6,121.4 566.6,121.4 567.6,121.4 568.7,122.2 569.7,121.9 570.7,121.9 571.8,121.9 572.8,121.9 573.8,122.0 574.9,122.0 575.9,119.8 576.9,119.8 578.0,119.8 579.0,119.8 580.0,119.8 581.1,119.8 582.1,119.8 583.1,119.6 584.2,119.6 585.2,119.6 586.2,119.6 587.3,119.6 588.3,119.6 589.3,117.9 590.4,117.9 591.4,117.9 592.4,117.9 593.5,117.9 594.5,117.8 595.5,117.8 596.6,116.4 597.6,116.4 598.6,116.4 599.7,116.8 600.7,116.8 601.7,116.8 602.8,116.8 603.8,119.0 604.8,119.3 605.9,119.3 606.9,119.3 607.9,119.3 609.0,119.3 610.0,118.2 611.0,118.2 612.1,118.2 613.1,118.2 614.1,118.2 615.2,117.9 616.2,117.9 617.2,118.3 618.3,118.3 619.3,118.3 620.3,118.2 621.4,118.2 622.4,118.2 623.4,118.2 624.5,119.0 625.5,119.2 626.5,119.2 627.6,119.2 628.6,119.2 629.6,119.2 630.7,119.1 631.7,119.1 632.7,119.1 633.8,119.1 634.8,119.1 635.8,119.1 636.9,119.1 637.9,120.9 638.9,120.9 640.0,120.9 641.0,121.0 642.0,121.0 643.1,121.0 644.1,121.0 645.1,120.0 646.2,119.7 647.2,119.7 648.2,119.7 649.3,119.7 650.3,119.7 651.3,116.0 652.4,115.8 653.4,115.8 654.4,115.8 655.5,115.8 656.5,116.1 657.5,116.1 658.6,118.4 659.6,118.4 660.6,118.4 661.7,118.4 662.7,118.4 663.7,118.4 664.8,118.4 665.8,117.5 666.8,117.1 667.9,117.1 668.9,117.1 669.9,117.1 671.0,117.1 672.0,117.3 673.0,117.4 674.1,117.4 675.1,117.4 676.1,117.4 677.2,117.2 678.2,117.2 679.2,117.8 680.3,117.8 681.3,117.8 682.3,117.9 683.4,117.9 684.4,117.9 685.4,117.9 686.5,117.6 687.5,117.8 688.5,117.8 689.6,117.8 690.6,117.8 691.6,117.8 692.7,122.3 693.7,122.3 694.7,122.3 695.8,122.3 696.8,122.3 697.8,122.5 698.9,122.5 699.9,123.4 700.9,123.4 702.0,123.4 703.0,123.7 704.0,123.7 705.1,123.7 706.1,123.7 707.1,122.5 708.2,122.4 709.2,122.4 710.2,122.4 711.3,122.4 712.3,122.4 713.3,119.6 714.4,119.6 715.4,119.6 716.4,119.6 717.5,119.6 718.5,119.7 719.5,119.7 720.6,120.6 721.6,120.6 722.6,120.6 723.7,120.4 724.7,120.4 725.7,120.4 726.8,120.4 727.8,115.0 728.8,115.2 729.9,115.2 730.9,115.2 731.9,115.2 733.0,115.2 734.0,120.4 735.0,120.7 736.1,120.7 737.1,120.7 738.1,120.7 739.2,120.7 740.2,120.7 741.2,116.1 742.3,116.1 743.3,116.1 744.3,116.2 745.4,116.2 746.4,116.2 747.4,116.2 748.5,117.9 749.5,118.4 750.5,118.4 751.6,118.4 752.6,118.4 753.6,118.4 754.7,111.9 755.7,111.9 756.7,111.9 757.8,111.9 758.8,111.9 759.8,111.8 760.9,111.8 761.9,114.7 762.9,114.7 764.0,114.7 765.0,114.7 766.0,114.7 767.1,114.7 768.1,114.7 769.1,114.5 770.2,114.5 771.2,114.5 772.2,114.5 773.3,114.5 774.3,114.5 775.3,113.3 776.4,113.3 777.4,113.3 778.4,113.3 779.5,113.3 780.5,113.7 781.5,113.7 782.6,119.0 783.6,119.0 784.6,119.0 785.7,118.7 786.7,118.7 787.7,118.7 788.8,118.7 789.8,121.9 790.8,122.0 791.9,122.0 792.9,122.0 793.9,122.0 795.0,122.0 796.0,118.2"/>
<text x="640" y="88" font-family="Arial" font-size="12" fill="#b45309">baz</text>
</svg>