<svg xmlns="http://www.w3.org/2000/svg" width="820" height="320" viewBox="0 0 820 320">
<rect width="100%" height="100%" fill="white"/>
<text x="52" y="30" font-family="Arial" font-size="18" font-weight="700">robust_dropout_robust accelerometer bias estimates</text>
<line x1="52" y1="274" x2="796" y2="274" stroke="#263238"/>
<line x1="52" y1="42" x2="52" y2="274" stroke="#263238"/>
<text x="52" y="306" font-family="Arial" font-size="12">time (s)</text>
<text x="630" y="306" font-family="Arial" font-size="12">m/s^2</text>

<polyline fill="none" stroke="#0f766e" stroke-width="2.3" points="52.0,131.9 53.0,131.9 54.1,131.9 55.1,131.9 56.1,131.9 57.2,131.9 58.2,131.9 59.2,115.1 60.3,115.1 61.3,115.1 62.3,115.1 63.4,115.1 64.4,115.1 65.4,115.1 66.5,211.8 67.5,211.8 68.5,211.8 69.6,211.8 70.6,211.8 71.6,211.8 72.7,121.9 73.7,121.9 74.7,121.9 75.8,121.9 76.8,121.9 77.8,121.9 78.9,121.9 79.9,50.6 80.9,50.6 82.0,50.6 83.0,50.6 84.0,50.6 85.1,50.6 86.1,50.6 87.1,134.6 88.2,134.6 89.2,134.6 90.2,134.6 91.3,134.6 92.3,134.6 93.3,113.2 94.4,113.9 95.4,113.9 96.4,113.9 97.5,113.9 98.5,113.9 99.5,113.9 100.6,125.3 101.6,125.3 102.6,125.3 103.7,125.3 104.7,125.3 105.7,125.3 106.8,125.3 107.8,119.9 108.8,119.9 109.9,119.9 110.9,119.9 111.9,119.9 113.0,119.9 114.0,107.4 115.0,107.4 116.1,107.4 117.1,107.4 118.1,107.4 119.2,107.3 120.2,107.3 121.2,79.9 122.3,79.9 123.3,79.9 124.3,79.9 125.4,79.9 126.4,79.9 127.4,79.9 128.5,108.9 129.5,108.9 130.5,108.9 131.6,108.9 132.6,108.9 133.6,108.9 134.7,93.1 135.7,92.3 136.7,92.3 137.8,92.3 138.8,92.3 139.8,92.3 140.9,92.3 141.9,93.4 142.9,93.4 144.0,93.4 145.0,93.4 146.0,93.4 147.1,93.4 148.1,93.4 149.1,81.5 150.2,81.5 151.2,81.5 152.2,81.5 153.3,81.5 154.3,81.5 155.3,88.3 156.4,87.0 157.4,87.0 158.4,87.0 159.5,87.0 160.5,87.0 161.5,87.0 162.6,86.8 163.6,86.8 164.6,86.8 165.7,86.8 166.7,86.8 167.7,86.8 168.8,86.8 169.8,99.3 170.8,99.3 171.9,99.3 172.9,99.3 173.9,99.3 175.0,99.3 176.0,106.8 177.0,106.8 178.1,106.8 179.1,106.8 180.1,106.8 181.2,106.8 182.2,106.8 183.2,96.9 184.3,96.9 185.3,96.9 186.3,96.9 187.4,96.9 188.4,96.9 189.4,96.9 190.5,100.8 191.5,100.8 192.5,100.8 193.6,100.8 194.6,100.8 195.6,100.8 196.7,112.1 197.7,112.1 198.7,112.1 199.8,112.1 200.8,112.1 201.8,112.1 202.9,112.1 203.9,108.5 204.9,108.5 206.0,108.5 207.0,108.5 208.0,108.5 209.1,108.5 210.1,108.5 211.1,102.7 212.2,102.7 213.2,102.7 214.2,102.7 215.3,102.7 216.3,102.7 217.3,99.8 218.4,99.1 219.4,99.1 220.4,99.1 221.5,99.1 222.5,99.1 223.5,99.1 224.6,100.0 225.6,100.0 226.6,100.0 227.7,100.0 228.7,100.0 229.7,100.0 230.8,100.0 231.8,102.7 232.8,102.7 233.9,102.7 234.9,102.7 235.9,102.7 237.0,102.7 238.0,105.6 239.0,105.8 240.1,105.8 241.1,105.8 242.1,105.8 243.2,105.8 244.2,105.8 245.2,112.6 246.3,112.6 247.3,112.6 248.3,112.6 249.4,112.6 250.4,112.6 251.4,112.6 252.5,117.9 253.5,117.9 254.5,117.9 255.6,117.9 256.6,117.9 257.6,117.9 258.7,117.0 259.7,117.0 260.7,117.0 261.8,117.0 262.8,117.0 263.8,117.0 264.9,117.0 265.9,117.9 266.9,117.9 268.0,117.9 269.0,117.9 270.0,117.9 271.1,117.9 272.1,117.9 273.1,118.3 274.2,118.3 275.2,118.3 276.2,118.3 277.3,118.3 278.3,118.3 279.3,117.4 280.4,117.1 281.4,117.1 282.4,117.1 283.5,117.1 284.5,117.1 285.5,117.1 286.6,113.9 287.6,113.9 288.6,113.9 289.7,113.9 290.7,113.9 291.7,113.9 292.8,113.9 293.8,114.9 294.8,114.9 295.9,114.9 296.9,114.9 297.9,114.9 299.0,114.9 300.0,114.4 301.0,114.4 302.1,114.4 303.1,114.4 304.1,114.4 305.2,114.4 306.2,114.4 307.2,110.5 308.3,110.5 309.3,110.5 310.3,110.5 311.4,110.5 312.4,110.5 313.4,110.5 314.5,108.1 315.5,108.1 316.5,108.1 317.6,108.1 318.6,108.1 319.6,108.1 320.7,111.4 321.7,111.4 322.7,111.4 323.8,111.4 324.8,111.4 325.8,111.4 326.9,111.4 327.9,110.0 328.9,110.0 330.0,110.0 331.0,110.0 332.0,110.0 333.1,110.0 334.1,110.0 335.1,110.9 336.2,110.9 337.2,110.9 338.2,110.9 339.3,110.9 340.3,110.9 341.3,108.9 342.4,108.1 343.4,108.1 344.4,108.1 345.5,108.1 346.5,108.1 347.5,108.1 348.6,110.4 349.6,110.4 350.6,110.4 351.7,110.4 352.7,110.4 353.7,110.4 354.8,110.4 355.8,112.7 356.8,112.7 357.9,112.7 358.9,112.7 359.9,112.7 361.0,112.7 362.0,113.4 363.0,113.4 364.1,113.4 365.1,113.4 366.1,113.4 367.2,113.4 368.2,113.4 369.2,110.3 370.3,110.3 371.3,110.3 372.3,110.3 373.4,110.3 374.4,110.3 375.4,110.3 376.5,110.4 377.5,110.4 378.5,110.4 379.6,110.4 380.6,110.4 381.6,110.4 382.7,110.2 383.7,110.2 384.7,110.2 385.8,110.2 386.8,110.2 387.8,110.2 388.9,110.2 389.9,110.0 390.9,110.0 392.0,110.0 393.0,110.0 394.0,110.0 395.1,110.0 396.1,110.0 397.1,112.0 398.2,112.0 399.2,112.0 400.2,112.0 401.3,112.0 402.3,112.0 403.3,112.0 404.4,112.0 405.4,112.0 406.4,112.0 407.5,112.0 408.5,112.0 409.5,112.0 410.6,111.9 411.6,111.9 412.6,111.9 413.7,111.9 414.7,111.9 415.7,111.9 416.8,111.9 417.8,111.1 418.8,111.1 419.9,111.1 420.9,111.1 421.9,111.1 423.0,111.1 424.0,111.4 425.0,111.4 426.1,111.4 427.1,111.4 428.1,111.4 429.2,111.4 430.2,111.4 431.2,110.2 432.3,110.2 433.3,110.2 434.3,110.2 435.4,110.2 436.4,110.2 437.4,110.2 438.5,106.2 439.5,106.2 440.5,106.2 441.6,106.2 442.6,106.2 443.6,106.2 444.7,108.9 445.7,108.9 446.7,108.9 447.8,108.9 448.8,108.9 449.8,108.9 450.9,108.9 451.9,111.4 452.9,111.4 454.0,111.4 455.0,111.4 456.0,111.4 457.1,111.4 458.1,111.4 459.1,110.4 460.2,110.4 461.2,110.4 462.2,110.4 463.3,110.4 464.3,110.4 465.3,113.1 466.4,113.1 467.4,113.1 468.4,113.1 469.5,113.1 470.5,113.1 471.5,113.1 472.6,112.9 473.6,112.9 474.6,112.9 475.7,112.9 476.7,112.9 477.7,112.9 478.8,112.9 479.8,109.7 480.8,109.7 481.9,109.7 482.9,109.7 483.9,109.7 485.0,109.7 486.0,110.2 487.0,110.3 488.1,110.3 489.1,110.3 490.1,110.3 491.2,110.3 492.2,110.3 493.2,113.2 494.3,113.2 495.3,113.2 496.3,113.2 497.4,113.2 498.4,113.2 499.4,113.2 500.5,112.5 501.5,112.5 502.5,112.5 503.6,112.5 504.6,112.5 505.6,112.5 506.7,113.2 507.7,113.2 508.7,113.2 509.8,113.2 510.8,113.2 511.8,113.2 512.9,113.2 513.9,111.7 514.9,111.7 516.0,111.7 517.0,111.7 518.0,111.7 519.1,111.7 520.1,111.7 521.1,109.0 522.2,109.0 523.2,109.0 524.2,109.0 525.3,109.0 526.3,109.0 527.3,109.3 528.4,109.3 529.4,109.3 530.4,109.3 531.5,109.3 532.5,109.3 533.5,109.3 534.6,110.0 535.6,110.0 536.6,110.0 537.7,110.0 538.7,110.0 539.7,110.0 540.8,110.0 541.8,112.6 542.8,112.6 543.9,112.6 544.9,112.6 545.9,112.6 547.0,112.6 548.0,112.5 549.0,112.5 550.1,112.5 551.1,112.5 552.1,112.5 553.2,112.5 554.2,112.5 555.2,110.2 556.3,110.2 557.3,110.2 558.3,110.2 559.4,110.2 560.4,110.2 561.4,110.2 562.5,111.2 563.5,111.2 564.5,111.2 565.6,111.2 566.6,111.2 567.6,111.2 568.7,113.1 569.7,113.0 570.7,113.0 571.8,113.0 572.8,113.0 573.8,113.0 574.9,113.0 575.9,112.5 576.9,112.5 578.0,112.5 579.0,112.5 580.0,112.5 581.1,112.5 582.1,112.5 583.1,114.4 584.2,114.4 585.2,114.4 586.2,114.4 587.3,114.4 588.3,114.4 589.3,114.8 590.4,114.7 591.4,114.7 592.4,114.7 593.5,114.7 594.5,114.7 595.5,114.7 596.6,113.3 597.6,113.3 598.6,113.3 599.7,113.3 600.7,113.3 601.7,113.3 602.8,113.3 603.8,110.5 604.8,110.5 605.9,110.5 606.9,110.5 607.9,110.5 609.0,110.5 610.0,110.3 611.0,110.3 612.1,110.3 613.1,110.3 614.1,110.3 615.2,110.3 616.2,110.3 617.2,107.4 618.3,107.4 619.3,107.4 620.3,107.4 621.4,107.4 622.4,107.4 623.4,107.4 624.5,107.5 625.5,107.5 626.5,107.5 627.6,107.5 628.6,107.5 629.6,107.5 630.7,107.9 631.7,107.9 632.7,107.9 633.8,107.9 634.8,107.9 635.8,107.9 636.9,107.9 637.9,107.5 638.9,107.5 640.0,107.5 641.0,107.5 642.0,107.5 643.1,107.5 644.1,107.5 645.1,109.4 646.2,109.4 647.2,109.4 648.2,109.4 649.3,109.4 650.3,109.4 651.3,108.6 652.4,108.3 653.4,108.3 654.4,108.3 655.5,108.3 656.5,108.3 657.5,108.3 658.6,111.6 659.6,111.6 660.6,111.6 661.7,111.6 662.7,111.6 663.7,111.6 664.8,111.6 665.8,112.3 666.8,112.3 667.9,112.3 668.9,112.3 669.9,112.3 671.0,112.3 672.0,108.1 673.0,108.1 674.1,108.1 675.1,108.1 676.1,108.1 677.2,108.1 678.2,108.1 679.2,111.2 680.3,111.2 681.3,111.2 682.3,111.2 683.4,111.2 684.4,111.2 685.4,111.2 686.5,110.8 687.5,110.8 688.5,110.8 689.6,110.8 690.6,110.8 691.6,110.8 692.7,106.6 693.7,106.6 694.7,106.6 695.8,106.6 696.8,106.6 697.8,106.6 698.9,106.6 699.9,106.4 700.9,106.4 702.0,106.4 703.0,106.4 704.0,106.4 705.1,106.4 706.1,106.4 707.1,110.1 708.2,110.2 709.2,110.2 710.2,110.2 711.3,110.2 712.3,110.2 713.3,112.8 714.4,112.8 715.4,112.8 716.4,112.8 717.5,112.8 718.5,112.8 719.5,112.8 720.6,115.6 721.6,115.6 722.6,115.6 723.7,115.6 724.7,115.6 725.7,115.6 726.8,115.6 727.8,112.2 728.8,112.2 729.9,112.2 730.9,112.2 731.9,112.2 733.0,112.2 734.0,113.2 735.0,113.1 736.1,113.1 737.1,113.1 738.1,113.1 739.2,113.1 740.2,113.1 741.2,118.7 742.3,118.7 743.3,118.7 744.3,118.7 745.4,118.7 746.4,118.7 747.4,118.7 748.5,114.5 749.5,114.5 750.5,114.5 751.6,114.5 752.6,114.5 753.6,114.5 754.7,116.1 755.7,116.1 756.7,116.1 757.8,116.1 758.8,116.1 759.8,116.1 760.9,116.1 761.9,110.2 762.9,110.2 764.0,110.2 765.0,110.2 766.0,110.2 767.1,110.2 768.1,110.2 769.1,108.9 770.2,108.9 771.2,108.9 772.2,108.9 773.3,108.9 774.3,108.9 775.3,112.2 776.4,112.2 777.4,112.2 778.4,112.2 779.5,112.2 780.5,112.2 781.5,112.2 782.6,108.5 783.6,108.5 784.6,108.5 785.7,108.5 786.7,108.5 787.7,108.5 788.8,108.5 789.8,104.3 790.8,104.3 791.9,104.3 792.9,104.3 793.9,104.3 795.0,104.3 796.0,104.1"/>
<text x="640" y="56" font-family="Arial" font-size="12" fill="#0f766e">bax</text>
<polyline fill="none" stroke="#2563eb" stroke-width="2.3" points="52.0,131.9 53.0,131.9 54.1,131.9 55.1,131.9 56.1,131.9 57.2,131.9 58.2,131.9 59.2,140.9 60.3,140.9 61.3,140.9 62.3,140.9 63.4,140.9 64.4,140.9 65.4,140.9 66.5,42.0 67.5,42.0 68.5,42.0 69.6,42.0 70.6,42.0 71.6,42.0 72.7,123.6 73.7,123.6 74.7,123.6 75.8,123.6 76.8,123.6 77.8,123.6 78.9,123.6 79.9,182.2 80.9,182.2 82.0,182.2 83.0,182.2 84.0,182.2 85.1,182.2 86.1,182.2 87.1,129.8 88.2,129.8 89.2,129.8 90.2,129.8 91.3,129.8 92.3,129.8 93.3,131.9 94.4,132.2 95.4,132.2 96.4,132.2 97.5,132.2 98.5,132.2 99.5,132.2 100.6,126.2 101.6,126.2 102.6,126.2 103.7,126.2 104.7,126.2 105.7,126.2 106.8,126.2 107.8,112.8 108.8,112.8 109.9,112.8 110.9,112.8 111.9,112.8 113.0,112.8 114.0,145.5 115.0,145.5 116.1,145.5 117.1,145.5 118.1,145.5 119.2,145.5 120.2,145.5 121.2,175.8 122.3,175.8 123.3,175.8 124.3,175.8 125.4,175.8 126.4,175.8 127.4,175.8 128.5,161.3 129.5,161.3 130.5,161.3 131.6,161.3 132.6,161.3 133.6,161.3 134.7,151.7 135.7,150.3 136.7,150.3 137.8,150.3 138.8,150.3 139.8,150.3 140.9,150.3 141.9,135.6 142.9,135.6 144.0,135.6 145.0,135.6 146.0,135.6 147.1,135.6 148.1,135.6 149.1,149.4 150.2,149.4 151.2,149.4 152.2,149.4 153.3,149.4 154.3,149.4 155.3,143.4 156.4,144.5 157.4,144.5 158.4,144.5 159.5,144.5 160.5,144.5 161.5,144.5 162.6,149.9 163.6,149.9 164.6,149.9 165.7,149.9 166.7,149.9 167.7,149.9 168.8,149.9 169.8,153.8 170.8,153.8 171.9,153.8 172.9,153.8 173.9,153.8 175.0,153.8 176.0,152.7 177.0,152.7 178.1,152.7 179.1,152.7 180.1,152.7 181.2,152.7 182.2,152.7 183.2,141.9 184.3,141.9 185.3,141.9 186.3,141.9 187.4,141.9 188.4,141.9 189.4,141.9 190.5,140.6 191.5,140.6 192.5,140.6 193.6,140.6 194.6,140.6 195.6,140.6 196.7,152.4 197.7,152.4 198.7,152.4 199.8,152.4 200.8,152.4 201.8,152.4 202.9,152.4 203.9,152.3 204.9,152.3 206.0,152.3 207.0,152.3 208.0,152.3 209.1,152.3 210.1,152.3 211.1,153.3 212.2,153.3 213.2,153.3 214.2,153.3 215.3,153.3 216.3,153.3 217.3,157.8 218.4,157.7 219.4,157.7 220.4,157.7 221.5,157.7 222.5,157.7 223.5,157.7 224.6,149.7 225.6,149.7 226.6,149.7 227.7,149.7 228.7,149.7 229.7,149.7 230.8,149.7 231.8,144.4 232.8,144.4 233.9,144.4 234.9,144.4 235.9,144.4 237.0,144.4 238.0,149.3 239.0,149.4 240.1,149.4 241.1,149.4 242.1,149.4 243.2,149.4 244.2,149.4 245.2,150.1 246.3,150.1 247.3,150.1 248.3,150.1 249.4,150.1 250.4,150.1 251.4,150.1 252.5,150.8 253.5,150.8 254.5,150.8 255.6,150.8 256.6,150.8 257.6,150.8 258.7,154.7 259.7,154.7 260.7,154.7 261.8,154.7 262.8,154.7 263.8,154.7 264.9,154.7 265.9,147.9 266.9,147.9 268.0,147.9 269.0,147.9 270.0,147.9 271.1,147.9 272.1,147.9 273.1,144.8 274.2,144.8 275.2,144.8 276.2,144.8 277.3,144.8 278.3,144.8 279.3,150.6 280.4,150.3 281.4,150.3 282.4,150.3 283.5,150.3 284.5,150.3 285.5,150.3 286.6,149.2 287.6,149.2 288.6,149.2 289.7,149.2 290.7,149.2 291.7,149.2 292.8,149.2 293.8,149.8 294.8,149.8 295.9,149.8 296.9,149.8 297.9,149.8 299.0,149.8 300.0,149.4 301.0,149.4 302.1,149.4 303.1,149.4 304.1,149.4 305.2,149.4 306.2,149.4 307.2,151.1 308.3,151.1 309.3,151.1 310.3,151.1 311.4,151.1 312.4,151.1 313.4,151.1 314.5,154.1 315.5,154.1 316.5,154.1 317.6,154.1 318.6,154.1 319.6,154.1 320.7,150.9 321.7,150.9 322.7,150.9 323.8,150.9 324.8,150.9 325.8,150.9 326.9,150.9 327.9,152.0 328.9,152.0 330.0,152.0 331.0,152.0 332.0,152.0 333.1,152.0 334.1,152.0 335.1,155.9 336.2,155.9 337.2,155.9 338.2,155.9 339.3,155.9 340.3,155.9 341.3,155.2 342.4,155.3 343.4,155.3 344.4,155.3 345.5,155.3 346.5,155.3 347.5,155.3 348.6,152.2 349.6,152.2 350.6,152.2 351.7,152.2 352.7,152.2 353.7,152.2 354.8,152.2 355.8,148.3 356.8,148.3 357.9,148.3 358.9,148.3 359.9,148.3 361.0,148.3 362.0,147.2 363.0,147.2 364.1,147.2 365.1,147.2 366.1,147.2 367.2,147.2 368.2,147.2 369.2,149.3 370.3,149.3 371.3,149.3 372.3,149.3 373.4,149.3 374.4,149.3 375.4,149.3 376.5,148.9 377.5,148.9 378.5,148.9 379.6,148.9 380.6,148.9 381.6,148.9 382.7,147.5 383.7,147.5 384.7,147.5 385.8,147.5 386.8,147.5 387.8,147.5 388.9,147.5 389.9,148.3 390.9,148.3 392.0,148.3 393.0,148.3 394.0,148.3 395.1,148.3 396.1,148.3 397.1,149.0 398.2,149.0 399.2,149.0 400.2,149.0 401.3,149.0 402.3,149.0 403.3,147.2 404.4,147.2 405.4,147.2 406.4,147.2 407.5,147.2 408.5,147.2 409.5,147.2 410.6,147.7 411.6,147.7 412.6,147.7 413.7,147.7 414.7,147.7 415.7,147.7 416.8,147.7 417.8,145.6 418.8,145.6 419.9,145.6 420.9,145.6 421.9,145.6 423.0,145.6 424.0,146.0 425.0,146.0 426.1,146.0 427.1,146.0 428.1,146.0 429.2,146.0 430.2,146.0 431.2,146.1 432.3,146.1 433.3,146.1 434.3,146.1 435.4,146.1 436.4,146.1 437.4,146.1 438.5,144.6 439.5,144.6 440.5,144.6 441.6,144.6 442.6,144.6 443.6,144.6 444.7,147.3 445.7,147.3 446.7,147.3 447.8,147.3 448.8,147.3 449.8,147.3 450.9,147.3 451.9,145.0 452.9,145.0 454.0,145.0 455.0,145.0 456.0,145.0 457.1,145.0 458.1,145.0 459.1,148.4 460.2,148.4 461.2,148.4 462.2,148.4 463.3,148.4 464.3,148.4 465.3,150.7 466.4,150.7 467.4,150.7 468.4,150.7 469.5,150.7 470.5,150.7 471.5,150.7 472.6,150.0 473.6,150.0 474.6,150.0 475.7,150.0 476.7,150.0 477.7,150.0 478.8,150.0 479.8,151.8 480.8,151.8 481.9,151.8 482.9,151.8 483.9,151.8 485.0,151.8 486.0,150.5 487.0,150.5 488.1,150.5 489.1,150.5 490.1,150.5 491.2,150.5 492.2,150.5 493.2,149.1 494.3,149.1 495.3,149.1 496.3,149.1 497.4,149.1 498.4,149.1 499.4,149.1 500.5,149.2 501.5,149.2 502.5,149.2 503.6,149.2 504.6,149.2 505.6,149.2 506.7,150.7 507.7,150.7 508.7,150.7 509.8,150.7 510.8,150.7 511.8,150.7 512.9,150.7 513.9,149.8 514.9,149.8 516.0,149.8 517.0,149.8 518.0,149.8 519.1,149.8 520.1,149.8 521.1,150.6 522.2,150.6 523.2,150.6 524.2,150.6 525.3,150.6 526.3,150.6 527.3,149.4 528.4,149.4 529.4,149.4 530.4,149.4 531.5,149.4 532.5,149.4 533.5,149.4 534.6,146.4 535.6,146.4 536.6,146.4 537.7,146.4 538.7,146.4 539.7,146.4 540.8,146.4 541.8,148.2 542.8,148.2 543.9,148.2 544.9,148.2 545.9,148.2 547.0,148.2 548.0,149.4 549.0,149.4 550.1,149.4 551.1,149.4 552.1,149.4 553.2,149.4 554.2,149.4 555.2,151.0 556.3,151.0 557.3,151.0 558.3,151.0 559.4,151.0 560.4,151.0 561.4,151.0 562.5,151.5 563.5,151.5 564.5,151.5 565.6,151.5 566.6,151.5 567.6,151.5 568.7,149.0 569.7,148.9 570.7,148.9 571.8,148.9 572.8,148.9 573.8,148.9 574.9,148.9 575.9,149.7 576.9,149.7 578.0,149.7 579.0,149.7 580.0,149.7 581.1,149.7 582.1,149.7 583.1,150.4 584.2,150.4 585.2,150.4 586.2,150.4 587.3,150.4 588.3,150.4 589.3,149.7 590.4,149.6 591.4,149.6 592.4,149.6 593.5,149.6 594.5,149.6 595.5,149.6 596.6,149.7 597.6,149.7 598.6,149.7 599.7,149.7 600.7,149.7 601.7,149.7 602.8,149.7 603.8,149.5 604.8,149.5 605.9,149.5 606.9,149.5 607.9,149.5 609.0,149.5 610.0,150.5 611.0,150.5 612.1,150.5 613.1,150.5 614.1,150.5 615.2,150.5 616.2,150.5 617.2,148.7 618.3,148.7 619.3,148.7 620.3,148.7 621.4,148.7 622.4,148.7 623.4,148.7 624.5,148.7 625.5,148.7 626.5,148.7 627.6,148.7 628.6,148.7 629.6,148.7 630.7,146.0 631.7,146.2 632.7,146.2 633.8,146.2 634.8,146.2 635.8,146.2 636.9,146.2 637.9,144.2 638.9,144.2 640.0,144.2 641.0,144.2 642.0,144.2 643.1,144.2 644.1,144.2 645.1,144.8 646.2,144.8 647.2,144.8 648.2,144.8 649.3,144.8 650.3,144.8 651.3,143.1 652.4,143.3 653.4,143.3 654.4,143.3 655.5,143.3 656.5,143.3 657.5,143.3 658.6,145.1 659.6,145.1 660.6,145.1 661.7,145.1 662.7,145.1 663.7,145.1 664.8,145.1 665.8,145.5 666.8,145.5 667.9,145.5 668.9,145.5 669.9,145.5 671.0,145.5 672.0,144.6 673.0,144.5 674.1,144.5 675.1,144.5 676.1,144.5 677.2,144.5 678.2,144.5 679.2,147.8 680.3,147.8 681.3,147.8 682.3,147.8 683.4,147.8 684.4,147.8 685.4,147.8 686.5,146.8 687.5,146.8 688.5,146.8 689.6,146.8 690.6,146.8 691.6,146.8 692.7,147.8 693.7,147.8 694.7,147.8 695.8,147.8 696.8,147.8 697.8,147.8 698.9,147.8 699.9,150.4 700.9,150.4 702.0,150.4 703.0,150.4 704.0,150.4 705.1,150.4 706.1,150.4 707.1,146.5 708.2,146.5 709.2,146.5 710.2,146.5 711.3,146.5 712.3,146.5 713.3,150.0 714.4,150.0 715.4,150.0 716.4,150.0 717.5,150.0 718.5,150.0 719.5,150.0 720.6,145.8 721.6,145.8 722.6,145.8 723.7,145.8 724.7,145.8 725.7,145.8 726.8,145.8 727.8,143.3 728.8,143.3 729.9,143.3 730.9,143.3 731.9,143.3 733.0,143.3 734.0,144.7 735.0,144.9 736.1,144.9 737.1,144.9 738.1,144.9 739.2,144.9 740.2,144.9 741.2,139.0 742.3,139.0 743.3,139.0 744.3,139.0 745.4,139.0 746.4,139.0 747.4,139.0 748.5,137.9 749.5,137.9 750.5,137.9 751.6,137.9 752.6,137.9 753.6,137.9 754.7,143.8 755.7,143.9 756.7,143.9 757.8,143.9 758.8,143.9 759.8,143.9 760.9,143.9 761.9,137.4 762.9,137.4 764.0,137.4 765.0,137.4 766.0,137.4 767.1,137.4 768.1,137.4 769.1,143.2 770.2,143.2 771.2,143.2 772.2,143.2 773.3,143.2 774.3,143.2 775.3,147.5 776.4,147.4 777.4,147.4 778.4,147.4 779.5,147.4 780.5,147.4 781.5,147.4 782.6,143.5 783.6,143.5 784.6,143.5 785.7,143.5 786.7,143.5 787.7,143.5 788.8,143.5 789.8,145.8 790.8,145.8 791.9,145.8 792.9,145.8 793.9,145.8 795.0,145.8 796.0,152.8"/>
<text x="640" y="72" font-family="Arial" font-size="12" fill="#2563eb">bay</text>
<polyline fill="none" stroke="#b45309" stroke-width="2.3" points="52.0,131.9 53.0,131.9 54.1,131.9 55.1,131.9 56.1,131.9 57.2,129.4 58.2,129.4 59.2,88.1 60.3,88.1 61.3,88.1 62.3,89.5 63.4,89.5 64.4,89.5 65.4,89.5 66.5,77.5 67.5,80.0 68.5,80.0 69.6,80.0 70.6,80.0 71.6,80.0 72.7,204.1 73.7,204.1 74.7,204.1 75.8,204.1 76.8,204.1 77.8,202.5 78.9,202.5 79.9,274.0 80.9,274.0 82.0,274.0 83.0,272.7 84.0,272.7 85.1,272.7 86.1,272.7 87.1,193.6 88.2,192.0 89.2,192.0 90.2,192.0 91.3,192.0 92.3,192.0 93.3,258.9 94.4,261.4 95.4,261.4 96.4,261.4 97.5,261.4 98.5,256.3 99.5,256.3 100.6,199.3 101.6,199.3 102.6,199.3 103.7,199.4 104.7,199.4 105.7,199.4 106.8,199.4 107.8,156.6 108.8,153.5 109.9,153.5 110.9,153.5 111.9,153.5 113.0,153.5 114.0,143.3 115.0,143.3 116.1,143.3 117.1,143.3 118.1,143.3 119.2,146.0 120.2,146.0 121.2,121.2 122.3,121.2 123.3,121.2 124.3,121.0 125.4,121.0 126.4,121.0 127.4,121.0 128.5,106.7 129.5,107.2 130.5,107.2 131.6,107.2 132.6,107.2 133.6,107.2 134.7,130.9 135.7,131.7 136.7,131.7 137.8,131.7 138.8,131.7 139.8,131.4 140.9,131.4 141.9,134.5 142.9,134.5 144.0,134.5 145.0,133.1 146.0,133.1 147.1,133.1 148.1,133.1 149.1,114.6 150.2,115.2 151.2,115.2 152.2,115.2 153.3,115.2 154.3,115.2 155.3,110.7 156.4,110.3 157.4,110.3 158.4,110.3 159.5,110.3 160.5,110.7 161.5,110.7 162.6,120.3 163.6,120.3 164.6,120.3 165.7,119.0 166.7,119.0 167.7,119.0 168.8,119.0 169.8,121.3 170.8,121.3 171.9,121.3 172.9,121.3 173.9,121.3 175.0,121.3 176.0,111.0 177.0,111.0 178.1,111.0 179.1,111.0 180.1,111.0 181.2,111.0 182.2,111.0 183.2,109.6 184.3,109.6 185.3,109.6 186.3,111.1 187.4,111.1 188.4,111.1 189.4,111.1 190.5,113.4 191.5,114.5 192.5,114.5 193.6,114.5 194.6,114.5 195.6,114.5 196.7,119.0 197.7,119.0 198.7,119.0 199.8,119.0 200.8,119.0 201.8,119.4 202.9,119.4 203.9,117.1 204.9,117.1 206.0,117.1 207.0,117.2 208.0,117.2 209.1,117.2 210.1,117.2 211.1,120.9 212.2,120.8 213.2,120.8 214.2,120.8 215.3,120.8 216.3,120.8 217.3,113.8 218.4,114.1 219.4,114.1 220.4,114.1 221.5,114.1 222.5,113.7 223.5,113.7 224.6,117.0 225.6,117.0 226.6,117.0 227.7,117.9 228.7,117.9 229.7,117.9 230.8,117.9 231.8,113.1 232.8,113.7 233.9,113.7 234.9,113.7 235.9,113.7 237.0,113.7 238.0,107.2 239.0,107.1 240.1,107.1 241.1,107.1 242.1,107.1 243.2,108.0 244.2,108.0 245.2,105.0 246.3,105.0 247.3,105.0 248.3,105.2 249.4,105.2 250.4,105.2 251.4,105.2 252.5,112.0 253.5,113.0 254.5,113.0 255.6,113.0 256.6,113.0 257.6,113.0 258.7,116.8 259.7,116.8 260.7,116.8 261.8,116.8 262.8,116.8 263.8,116.9 264.9,116.9 265.9,118.3 266.9,118.3 268.0,118.3 269.0,118.1 270.0,118.1 271.1,118.1 272.1,118.1 273.1,122.8 274.2,123.5 275.2,123.5 276.2,123.5 277.3,123.5 278.3,123.5 279.3,121.8 280.4,121.6 281.4,121.6 282.4,121.6 283.5,121.6 284.5,122.1 285.5,122.1 286.6,119.5 287.6,119.5 288.6,119.5 289.7,119.3 290.7,119.3 291.7,119.3 292.8,119.3 293.8,124.0 294.8,124.0 295.9,124.0 296.9,124.0 297.9,124.0 299.0,124.0 300.0,121.1 301.0,121.1 302.1,121.1 303.1,121.1 304.1,121.1 305.2,121.1 306.2,121.1 307.2,124.2 308.3,124.2 309.3,124.2 310.3,124.7 311.4,124.7 312.4,124.7 313.4,124.7 314.5,121.5 315.5,121.5 316.5,121.5 317.6,121.5 318.6,121.5 319.6,121.5 320.7,124.1 321.7,124.1 322.7,124.1 323.8,124.1 324.8,124.1 325.8,124.0 326.9,124.0 327.9,121.4 328.9,121.4 330.0,121.4 331.0,121.9 332.0,121.9 333.1,121.9 334.1,121.9 335.1,126.2 336.2,126.3 337.2,126.3 338.2,126.3 339.3,126.3 340.3,126.3 341.3,128.9 342.4,128.8 343.4,128.8 344.4,128.8 345.5,128.8 346.5,128.5 347.5,128.5 348.6,123.9 349.6,123.9 350.6,123.9 351.7,123.4 352.7,123.4 353.7,123.4 354.8,123.4 355.8,126.0 356.8,126.4 357.9,126.4 358.9,126.4 359.9,126.4 361.0,126.4 362.0,121.4 363.0,121.4 364.1,121.4 365.1,121.4 366.1,121.4 367.2,121.0 368.2,121.0 369.2,121.2 370.3,121.2 371.3,121.2 372.3,120.8 373.4,120.8 374.4,120.8 375.4,120.8 376.5,121.9 377.5,122.2 378.5,122.2 379.6,122.2 380.6,122.2 381.6,122.2 382.7,121.9 383.7,121.9 384.7,121.9 385.8,121.9 386.8,121.9 387.8,121.9 388.9,121.9 389.9,121.2 390.9,121.2 392.0,121.2 393.0,121.1 394.0,121.1 395.1,121.1 396.1,121.1 397.1,119.5 398.2,119.1 399.2,119.1 400.2,119.1 401.3,119.1 402.3,119.1 403.3,120.4 404.4,120.4 405.4,120.4 406.4,120.4 407.5,120.4 408.5,120.3 409.5,120.3 410.6,120.1 411.6,120.1 412.6,120.1 413.7,119.8 414.7,119.8 415.7,119.8 416.8,119.8 417.8,121.8 418.8,121.7 419.9,121.7 420.9,121.7 421.9,121.7 423.0,121.7 424.0,118.7 425.0,118.7 426.1,118.7 427.1,118.7 428.1,118.7 429.2,118.9 430.2,118.9 431.2,118.1 432.3,118.1 433.3,118.1 434.3,118.3 435.4,118.3 436.4,118.3 437.4,118.3 438.5,120.3 439.5,120.3 440.5,120.3 441.6,120.3 442.6,120.3 443.6,120.3 444.7,122.2 445.7,122.2 446.7,122.2 447.8,122.2 448.8,122.2 449.8,122.1 450.9,122.1 451.9,119.3 452.9,119.3 454.0,119.3 455.0,119.0 456.0,119.0 457.1,119.0 458.1,119.0 459.1,120.6 460.2,120.2 461.2,120.2 462.2,120.2 463.3,120.2 464.3,120.2 465.3,120.5 466.4,120.5 467.4,120.5 468.4,120.5 469.5,120.5 470.5,120.5 471.5,120.5 472.6,121.9 473.6,121.9 474.6,121.9 475.7,122.0 476.7,122.0 477.7,122.0 478.8,122.0 479.8,119.0 480.8,119.2 481.9,119.2 482.9,119.2 483.9,119.2 485.0,119.2 486.0,118.8 487.0,118.7 488.1,118.7 489.1,118.7 490.1,118.7 491.2,118.9 492.2,118.9 493.2,121.7 494.3,121.7 495.3,121.7 496.3,122.0 497.4,122.0 498.4,122.0 499.4,122.0 500.5,120.9 501.5,121.0 502.5,121.0 503.6,121.0 504.6,121.0 505.6,121.0 506.7,119.3 507.7,119.3 508.7,119.3 509.8,119.3 510.8,119.3 511.8,118.9 512.9,118.9 513.9,120.3 514.9,120.3 516.0,120.3 517.0,120.3 518.0,120.3 519.1,120.3 520.1,120.3 521.1,122.0 522.2,121.6 523.2,121.6 524.2,121.6 525.3,121.6 526.3,121.6 527.3,123.1 528.4,123.1 529.4,123.1 530.4,123.1 531.5,123.1 532.5,122.8 533.5,122.8 534.6,120.0 535.6,120.0 536.6,120.0 537.7,120.2 538.7,120.2 539.7,120.2 540.8,120.2 541.8,122.0 542.8,122.4 543.9,122.4 544.9,122.4 545.9,122.4 547.0,122.4 548.0,123.8 549.0,123.8 550.1,123.8 551.1,123.8 552.1,123.8 553.2,123.7 554.2,123.7 555.2,123.1 556.3,123.1 557.3,123.1 558.3,123.1 559.4,123.1 560.4,123.1 561.4,123.1 562.5,122.1 563.5,122.0 564.5,122.0 565.6,122.0 566.6,122.0 567.6,122.0 568.7,122.7 569.7,122.5 570.7,122.5 571.8,122.5 572.8,122.5 573.8,122.5 574.9,122.5 575.9,120.3 576.9,120.3 578.0,120.3 579.0,120.4 580.0,120.4 581.1,120.4 582.1,120.4 583.1,120.1 584.2,120.2 585.2,120.2 586.2,120.2 587.3,120.2 588.3,120.2 589.3,118.4 590.4,118.5 591.4,118.5 592.4,118.5 593.5,118.5 594.5,118.3 595.5,118.3 596.6,116.9 597.6,116.9 598.6,116.9 599.7,117.3 600.7,117.3 601.7,117.3 602.8,117.3 603.8,119.6 604.8,119.9 605.9,119.9 606.9,119.9 607.9,119.9 609.0,119.9 610.0,118.8 611.0,118.7 612.1,118.7 613.1,118.7 614.1,118.7 615.2,118.4 616.2,118.4 617.2,118.8 618.3,118.8 619.3,118.8 620.3,118.7 621.4,118.7 622.4,118.7 623.4,118.7 624.5,119.6 625.5,119.7 626.5,119.7 627.6,119.7 628.6,119.7 629.6,119.7 630.7,119.7 631.7,119.7 632.7,119.7 633.8,119.7 634.8,119.7 635.8,119.7 636.9,119.7 637.9,121.5 638.9,121.5 640.0,121.5 641.0,121.6 642.0,121.6 643.1,121.6 644.1,121.6 645.1,120.6 646.2,120.3 647.2,120.3 648.2,120.3 649.3,120.3 650.3,120.3 651.3,116.6 652.4,116.4 653.4,116.4 654.4,116.4 655.5,116.4 656.5,116.7 657.5,116.7 658.6,119.0 659.6,119.0 660.6,119.0 661.7,119.0 662.7,119.0 663.7,119.0 664.8,119.0 665.8,118.1 666.8,117.7 667.9,117.7 668.9,117.7 669.9,117.7 671.0,117.7 672.0,117.8 673.0,117.9 674.1,117.9 675.1,117.9 676.1,117.9 677.2,117.8 678.2,117.8 679.2,118.3 680.3,118.3 681.3,118.3 682.3,118.5 683.4,118.5 684.4,118.5 685.4,118.5 686.5,118.1 687.5,118.3 688.5,118.3 689.6,118.3 690.6,118.3 691.6,118.3 692.7,122.5 693.7,122.5 694.7,122.5 695.8,122.5 696.8,122.5 697.8,122.7 698.9,122.7 699.9,123.8 700.9,123.8 702.0,123.8 703.0,124.1 704.0,124.1 705.1,124.1 706.1,124.1 707.1,122.9 708.2,122.8 709.2,122.8 710.2,122.8 711.3,122.8 712.3,122.8 713.3,120.1 714.4,120.1 715.4,120.1 716.4,120.1 717.5,120.1 718.5,120.1 719.5,120.1 720.6,121.1 721.6,121.1 722.6,121.1 723.7,120.9 724.7,120.9 725.7,120.9 726.8,120.9 727.8,115.5 728.8,115.7 729.9,115.7 730.9,115.7 731.9,115.7 733.0,115.7 734.0,120.9 735.0,121.2 736.1,121.2 737.1,121.2 738.1,121.2 739.2,121.2 740.2,121.2 741.2,116.7 742.3,116.7 743.3,116.7 744.3,116.8 745.4,116.8 746.4,116.8 747.4,116.8 748.5,118.5 749.5,119.0 750.5,119.0 751.6,119.0 752.6,119.0 753.6,119.0 754.7,112.8 755.7,112.8 756.7,112.8 757.8,112.8 758.8,112.8 759.8,112.7 760.9,112.7 761.9,115.6 762.9,115.6 764.0,115.6 765.0,115.6 766.0,115.6 767.1,115.6 768.1,115.6 769.1,115.3 770.2,115.3 771.2,115.3 772.2,115.3 773.3,115.3 774.3,115.3 775.3,114.1 776.4,114.0 777.4,114.0 778.4,114.0 779.5,114.0 780.5,114.5 781.5,114.5 782.6,119.8 783.6,119.8 784.6,119.8 785.7,119.5 786.7,119.5 787.7,119.5 788.8,119.5 789.8,122.6 790.8,122.7 791.9,122.7 792.9,122.7 793.9,122.7 795.0,122.7 796.0,118.9"/>
<text x="640" y="88" font-family="Arial" font-size="12" fill="#b45309">baz</text>
</svg>