<svg xmlns="http://www.w3.org/2000/svg" width="820" height="320" viewBox="0 0 820 320">
<rect width="100%" height="100%" fill="white"/>
<text x="52" y="30" font-family="Arial" font-size="18" font-weight="700">ekf_nominal accelerometer bias estimates</text>
<line x1="52" y1="274" x2="796" y2="274" stroke="#263238"/>
<line x1="52" y1="42" x2="52" y2="274" stroke="#263238"/>
<text x="52" y="306" font-family="Arial" font-size="12">time (s)</text>
<text x="630" y="306" font-family="Arial" font-size="12">m/s^2</text>

<polyline fill="none" stroke="#0f766e" stroke-width="2.3" points="52.0,132.0 53.0,132.0 54.1,132.0 55.1,132.0 56.1,132.0 57.2,132.0 58.2,132.0 59.2,109.9 60.3,109.9 61.3,109.9 62.3,109.9 63.4,109.9 64.4,109.9 65.4,109.9 66.5,209.8 67.5,209.8 68.5,209.8 69.6,209.8 70.6,209.8 71.6,209.8 72.7,125.3 73.7,125.3 74.7,125.3 75.8,125.3 76.8,125.3 77.8,125.3 78.9,125.3 79.9,58.8 80.9,58.8 82.0,58.8 83.0,58.8 84.0,58.8 85.1,58.8 86.1,58.8 87.1,166.0 88.2,166.0 89.2,166.0 90.2,166.0 91.3,166.0 92.3,166.0 93.3,134.2 94.4,134.8 95.4,134.8 96.4,134.8 97.5,134.8 98.5,134.8 99.5,134.8 100.6,134.5 101.6,134.5 102.6,134.5 103.7,134.5 104.7,134.5 105.7,134.5 106.8,134.5 107.8,125.0 108.8,125.0 109.9,125.0 110.9,125.0 111.9,125.0 113.0,125.0 114.0,111.3 115.0,111.3 116.1,111.3 117.1,111.3 118.1,111.3 119.2,111.3 120.2,111.3 121.2,67.4 122.3,67.4 123.3,67.4 124.3,67.4 125.4,67.4 126.4,67.4 127.4,67.4 128.5,102.8 129.5,102.8 130.5,102.8 131.6,102.8 132.6,102.8 133.6,102.8 134.7,93.1 135.7,92.2 136.7,92.2 137.8,92.2 138.8,92.2 139.8,92.2 140.9,92.2 141.9,92.6 142.9,92.6 144.0,92.6 145.0,92.6 146.0,92.6 147.1,92.6 148.1,92.6 149.1,83.4 150.2,83.4 151.2,83.4 152.2,83.4 153.3,83.4 154.3,83.4 155.3,87.8 156.4,86.6 157.4,86.6 158.4,86.6 159.5,86.6 160.5,86.6 161.5,86.6 162.6,86.3 163.6,86.3 164.6,86.3 165.7,86.3 166.7,86.3 167.7,86.3 168.8,86.3 169.8,102.6 170.8,102.6 171.9,102.6 172.9,102.6 173.9,102.6 175.0,102.6 176.0,107.1 177.0,107.1 178.1,107.1 179.1,107.1 180.1,107.1 181.2,107.1 182.2,107.1 183.2,100.3 184.3,100.3 185.3,100.3 186.3,100.3 187.4,100.3 188.4,100.3 189.4,100.3 190.5,102.3 191.5,102.3 192.5,102.3 193.6,102.3 194.6,102.3 195.6,102.3 196.7,112.0 197.7,112.0 198.7,112.0 199.8,112.0 200.8,112.0 201.8,112.0 202.9,112.0 203.9,110.0 204.9,110.0 206.0,110.0 207.0,110.0 208.0,110.0 209.1,110.0 210.1,110.0 211.1,106.0 212.2,106.0 213.2,106.0 214.2,106.0 215.3,106.0 216.3,106.0 217.3,103.5 218.4,102.9 219.4,102.9 220.4,102.9 221.5,102.9 222.5,102.9 223.5,102.9 224.6,102.8 225.6,102.8 226.6,102.8 227.7,102.8 228.7,102.8 229.7,102.8 230.8,102.8 231.8,104.2 232.8,104.2 233.9,104.2 234.9,104.2 235.9,104.2 237.0,104.2 238.0,105.9 239.0,106.1 240.1,106.1 241.1,106.1 242.1,106.1 243.2,106.1 244.2,106.1 245.2,112.6 246.3,112.6 247.3,112.6 248.3,112.6 249.4,112.6 250.4,112.6 251.4,112.6 252.5,115.8 253.5,115.8 254.5,115.8 255.6,115.8 256.6,115.8 257.6,115.8 258.7,116.0 259.7,116.0 260.7,116.0 261.8,116.0 262.8,116.0 263.8,116.0 264.9,116.0 265.9,116.9 266.9,116.9 268.0,116.9 269.0,116.9 270.0,116.9 271.1,116.9 272.1,116.9 273.1,117.6 274.2,117.6 275.2,117.6 276.2,117.6 277.3,117.6 278.3,117.6 279.3,117.4 280.4,117.1 281.4,117.1 282.4,117.1 283.5,117.1 284.5,117.1 285.5,117.1 286.6,115.5 287.6,115.5 288.6,115.5 289.7,115.5 290.7,115.5 291.7,115.5 292.8,115.5 293.8,116.0 294.8,116.0 295.9,116.0 296.9,116.0 297.9,116.0 299.0,116.0 300.0,115.8 301.0,115.8 302.1,115.8 303.1,115.8 304.1,115.8 305.2,115.8 306.2,115.8 307.2,113.6 308.3,113.6 309.3,113.6 310.3,113.6 311.4,113.6 312.4,113.6 313.4,113.6 314.5,112.0 315.5,112.0 316.5,112.0 317.6,112.0 318.6,112.0 319.6,112.0 320.7,113.4 321.7,113.4 322.7,113.4 323.8,113.4 324.8,113.4 325.8,113.4 326.9,113.4 327.9,112.5 328.9,112.5 330.0,112.5 331.0,112.5 332.0,112.5 333.1,112.5 334.1,112.5 335.1,112.8 336.2,112.8 337.2,112.8 338.2,112.8 339.3,112.8 340.3,112.8 341.3,111.6 342.4,110.7 343.4,110.7 344.4,110.7 345.5,110.7 346.5,110.7 347.5,110.7 348.6,111.7 349.6,111.7 350.6,111.7 351.7,111.7 352.7,111.7 353.7,111.7 354.8,111.7 355.8,112.8 356.8,112.8 357.9,112.8 358.9,112.8 359.9,112.8 361.0,112.8 362.0,113.3 363.0,113.3 364.1,113.3 365.1,113.3 366.1,113.3 367.2,113.3 368.2,113.3 369.2,111.9 370.3,111.9 371.3,111.9 372.3,111.9 373.4,111.9 374.4,111.9 375.4,111.9 376.5,111.9 377.5,111.9 378.5,111.9 379.6,111.9 380.6,111.9 381.6,111.9 382.7,111.8 383.7,111.8 384.7,111.8 385.8,111.8 386.8,111.8 387.8,111.8 388.9,111.8 389.9,111.6 390.9,111.6 392.0,111.6 393.0,111.6 394.0,111.6 395.1,111.6 396.1,111.6 397.1,112.5 398.2,112.5 399.2,112.5 400.2,112.5 401.3,112.5 402.3,112.5 403.3,112.5 404.4,112.5 405.4,112.5 406.4,112.5 407.5,112.5 408.5,112.5 409.5,112.5 410.6,112.5 411.6,112.5 412.6,112.5 413.7,112.5 414.7,112.5 415.7,112.5 416.8,112.5 417.8,112.2 418.8,112.2 419.9,112.2 420.9,112.2 421.9,112.2 423.0,112.2 424.0,112.4 425.0,112.4 426.1,112.4 427.1,112.4 428.1,112.4 429.2,112.4 430.2,112.4 431.2,111.8 432.3,111.8 433.3,111.8 434.3,111.8 435.4,111.8 436.4,111.8 437.4,111.8 438.5,109.6 439.5,109.6 440.5,109.6 441.6,109.6 442.6,109.6 443.6,109.6 444.7,110.5 445.7,110.5 446.7,110.5 447.8,110.5 448.8,110.5 449.8,110.5 450.9,110.5 451.9,111.6 452.9,111.6 454.0,111.6 455.0,111.6 456.0,111.6 457.1,111.6 458.1,111.6 459.1,111.3 460.2,111.3 461.2,111.3 462.2,111.3 463.3,111.3 464.3,111.3 465.3,112.4 466.4,112.4 467.4,112.4 468.4,112.4 469.5,112.4 470.5,112.4 471.5,112.4 472.6,112.5 473.6,112.5 474.6,112.5 475.7,112.5 476.7,112.5 477.7,112.5 478.8,112.5 479.8,111.3 480.8,111.3 481.9,111.3 482.9,111.3 483.9,111.3 485.0,111.3 486.0,111.5 487.0,111.5 488.1,111.5 489.1,111.5 490.1,111.5 491.2,111.5 492.2,111.5 493.2,112.7 494.3,112.7 495.3,112.7 496.3,112.7 497.4,112.7 498.4,112.7 499.4,112.7 500.5,112.6 501.5,112.6 502.5,112.6 503.6,112.6 504.6,112.6 505.6,112.6 506.7,113.1 507.7,113.1 508.7,113.1 509.8,113.1 510.8,113.1 511.8,113.1 512.9,113.1 513.9,112.6 514.9,112.6 516.0,112.6 517.0,112.6 518.0,112.6 519.1,112.6 520.1,112.6 521.1,111.5 522.2,111.5 523.2,111.5 524.2,111.5 525.3,111.5 526.3,111.5 527.3,111.6 528.4,111.6 529.4,111.6 530.4,111.6 531.5,111.6 532.5,111.6 533.5,111.6 534.6,111.7 535.6,111.7 536.6,111.7 537.7,111.7 538.7,111.7 539.7,111.7 540.8,111.7 541.8,112.7 542.8,112.7 543.9,112.7 544.9,112.7 545.9,112.7 547.0,112.7 548.0,112.7 549.0,112.7 550.1,112.7 551.1,112.7 552.1,112.7 553.2,112.7 554.2,112.7 555.2,111.9 556.3,111.9 557.3,111.9 558.3,111.9 559.4,111.9 560.4,111.9 561.4,111.9 562.5,112.2 563.5,112.2 564.5,112.2 565.6,112.2 566.6,112.2 567.6,112.2 568.7,112.9 569.7,112.9 570.7,112.9 571.8,112.9 572.8,112.9 573.8,112.9 574.9,112.9 575.9,112.7 576.9,112.7 578.0,112.7 579.0,112.7 580.0,112.7 581.1,112.7 582.1,112.7 583.1,113.5 584.2,113.5 585.2,113.5 586.2,113.5 587.3,113.5 588.3,113.5 589.3,113.8 590.4,113.8 591.4,113.8 592.4,113.8 593.5,113.8 594.5,113.8 595.5,113.8 596.6,113.4 597.6,113.4 598.6,113.4 599.7,113.4 600.7,113.4 601.7,113.4 602.8,113.4 603.8,112.4 604.8,112.4 605.9,112.4 606.9,112.4 607.9,112.4 609.0,112.4 610.0,112.2 611.0,112.2 612.1,112.2 613.1,112.2 614.1,112.2 615.2,112.2 616.2,112.2 617.2,110.2 618.3,110.2 619.3,110.2 620.3,110.2 621.4,110.2 622.4,110.2 623.4,110.2 624.5,110.1 625.5,110.1 626.5,110.1 627.6,110.1 628.6,110.1 629.6,110.1 630.7,110.2 631.7,110.1 632.7,110.1 633.8,110.1 634.8,110.1 635.8,110.1 636.9,110.1 637.9,109.9 638.9,109.9 640.0,109.9 641.0,109.9 642.0,109.9 643.1,109.9 644.1,109.9 645.1,110.5 646.2,110.5 647.2,110.5 648.2,110.5 649.3,110.5 650.3,110.5 651.3,110.2 652.4,110.0 653.4,110.0 654.4,110.0 655.5,110.0 656.5,110.0 657.5,110.0 658.6,111.1 659.6,111.1 660.6,111.1 661.7,111.1 662.7,111.1 663.7,111.1 664.8,111.1 665.8,111.4 666.8,111.4 667.9,111.4 668.9,111.4 669.9,111.4 671.0,111.4 672.0,110.3 673.0,110.2 674.1,110.2 675.1,110.2 676.1,110.2 677.2,110.2 678.2,110.2 679.2,111.0 680.3,111.0 681.3,111.0 682.3,111.0 683.4,111.0 684.4,111.0 685.4,111.0 686.5,111.0 687.5,111.0 688.5,111.0 689.6,111.0 690.6,111.0 691.6,111.0 692.7,110.0 693.7,110.0 694.7,110.0 695.8,110.0 696.8,110.0 697.8,110.0 698.9,110.0 699.9,109.9 700.9,109.9 702.0,109.9 703.0,109.9 704.0,109.9 705.1,109.9 706.1,109.9 707.1,110.7 708.2,110.7 709.2,110.7 710.2,110.7 711.3,110.7 712.3,110.7 713.3,111.6 714.4,111.6 715.4,111.6 716.4,111.6 717.5,111.6 718.5,111.6 719.5,111.6 720.6,112.4 721.6,112.4 722.6,112.4 723.7,112.4 724.7,112.4 725.7,112.4 726.8,112.4 727.8,111.8 728.8,111.8 729.9,111.8 730.9,111.8 731.9,111.8 733.0,111.8 734.0,112.1 735.0,111.9 736.1,111.9 737.1,111.9 738.1,111.9 739.2,111.9 740.2,111.9 741.2,113.5 742.3,113.5 743.3,113.5 744.3,113.5 745.4,113.5 746.4,113.5 747.4,113.5 748.5,113.0 749.5,113.0 750.5,113.0 751.6,113.0 752.6,113.0 753.6,113.0 754.7,113.4 755.7,113.3 756.7,113.3 757.8,113.3 758.8,113.3 759.8,113.3 760.9,113.3 761.9,111.8 762.9,111.8 764.0,111.8 765.0,111.8 766.0,111.8 767.1,111.8 768.1,111.8 769.1,111.5 770.2,111.5 771.2,111.5 772.2,111.5 773.3,111.5 774.3,111.5 775.3,112.1 776.4,112.1 777.4,112.1 778.4,112.1 779.5,112.1 780.5,112.1 781.5,112.1 782.6,111.5 783.6,111.5 784.6,111.5 785.7,111.5 786.7,111.5 787.7,111.5 788.8,111.5 789.8,110.7 790.8,110.7 791.9,110.7 792.9,110.7 793.9,110.7 795.0,110.7 796.0,110.4"/>
<text x="640" y="56" font-family="Arial" font-size="12" fill="#0f766e">bax</text>
<polyline fill="none" stroke="#2563eb" stroke-width="2.3" points="52.0,132.0 53.0,132.0 54.1,132.0 55.1,132.0 56.1,132.0 57.2,132.0 58.2,132.0 59.2,140.8 60.3,140.8 61.3,140.8 62.3,140.8 63.4,140.8 64.4,140.8 65.4,140.8 66.5,42.0 67.5,42.0 68.5,42.0 69.6,42.0 70.6,42.0 71.6,42.0 72.7,122.9 73.7,122.9 74.7,122.9 75.8,122.9 76.8,122.9 77.8,122.9 78.9,122.9 79.9,181.8 80.9,181.8 82.0,181.8 83.0,181.8 84.0,181.8 85.1,181.8 86.1,181.8 87.1,131.5 88.2,131.5 89.2,131.5 90.2,131.5 91.3,131.5 92.3,131.5 93.3,132.9 94.4,133.1 95.4,133.1 96.4,133.1 97.5,133.1 98.5,133.1 99.5,133.1 100.6,127.1 101.6,127.1 102.6,127.1 103.7,127.1 104.7,127.1 105.7,127.1 106.8,127.1 107.8,114.2 108.8,114.2 109.9,114.2 110.9,114.2 111.9,114.2 113.0,114.2 114.0,143.8 115.0,143.8 116.1,143.8 117.1,143.8 118.1,143.8 119.2,143.8 120.2,143.8 121.2,172.7 122.3,172.7 123.3,172.7 124.3,172.7 125.4,172.7 126.4,172.7 127.4,172.7 128.5,161.7 129.5,161.7 130.5,161.7 131.6,161.7 132.6,161.7 133.6,161.7 134.7,153.5 135.7,152.2 136.7,152.2 137.8,152.2 138.8,152.2 139.8,152.2 140.9,152.2 141.9,139.2 142.9,139.2 144.0,139.2 145.0,139.2 146.0,139.2 147.1,139.2 148.1,139.2 149.1,149.7 150.2,149.7 151.2,149.7 152.2,149.7 153.3,149.7 154.3,149.7 155.3,144.8 156.4,145.8 157.4,145.8 158.4,145.8 159.5,145.8 160.5,145.8 161.5,145.8 162.6,149.9 163.6,149.9 164.6,149.9 165.7,149.9 166.7,149.9 167.7,149.9 168.8,149.9 169.8,153.0 170.8,153.0 171.9,153.0 172.9,153.0 173.9,153.0 175.0,153.0 176.0,152.5 177.0,152.5 178.1,152.5 179.1,152.5 180.1,152.5 181.2,152.5 182.2,152.5 183.2,140.5 184.3,140.5 185.3,140.5 186.3,140.5 187.4,140.5 188.4,140.5 189.4,140.5 190.5,139.7 191.5,139.7 192.5,139.7 193.6,139.7 194.6,139.7 195.6,139.7 196.7,148.6 197.7,148.6 198.7,148.6 199.8,148.6 200.8,148.6 201.8,148.6 202.9,148.6 203.9,149.3 204.9,149.3 206.0,149.3 207.0,149.3 208.0,149.3 209.1,149.3 210.1,149.3 211.1,150.6 212.2,150.6 213.2,150.6 214.2,150.6 215.3,150.6 216.3,150.6 217.3,154.3 218.4,154.2 219.4,154.2 220.4,154.2 221.5,154.2 222.5,154.1 223.5,154.1 224.6,149.5 225.6,149.5 226.6,149.5 227.7,149.5 228.7,149.5 229.7,149.5 230.8,149.5 231.8,146.0 232.8,146.0 233.9,146.0 234.9,146.0 235.9,146.0 237.0,146.0 238.0,148.8 239.0,149.0 240.1,149.0 241.1,149.0 242.1,149.0 243.2,149.0 244.2,149.0 245.2,149.5 246.3,149.5 247.3,149.5 248.3,149.5 249.4,149.5 250.4,149.5 251.4,149.5 252.5,150.0 253.5,150.0 254.5,150.0 255.6,150.0 256.6,150.0 257.6,150.0 258.7,152.5 259.7,152.5 260.7,152.5 261.8,152.5 262.8,152.5 263.8,152.5 264.9,152.5 265.9,148.7 266.9,148.7 268.0,148.7 269.0,148.7 270.0,148.7 271.1,148.7 272.1,148.7 273.1,146.7 274.2,146.7 275.2,146.7 276.2,146.7 277.3,146.7 278.3,146.7 279.3,149.8 280.4,149.5 281.4,149.5 282.4,149.5 283.5,149.5 284.5,149.5 285.5,149.5 286.6,148.9 287.6,148.9 288.6,148.9 289.7,148.9 290.7,148.9 291.7,148.9 292.8,148.9 293.8,149.3 294.8,149.3 295.9,149.3 296.9,149.3 297.9,149.3 299.0,149.3 300.0,149.1 301.0,149.1 302.1,149.1 303.1,149.1 304.1,149.1 305.2,149.1 306.2,149.1 307.2,150.1 308.3,150.1 309.3,150.1 310.3,150.1 311.4,150.1 312.4,150.1 313.4,150.1 314.5,151.8 315.5,151.8 316.5,151.8 317.6,151.8 318.6,151.8 319.6,151.8 320.7,150.4 321.7,150.4 322.7,150.4 323.8,150.4 324.8,150.4 325.8,150.4 326.9,150.4 327.9,151.0 328.9,151.0 330.0,151.0 331.0,151.0 332.0,151.0 333.1,151.0 334.1,151.0 335.1,153.2 336.2,153.2 337.2,153.2 338.2,153.2 339.3,153.2 340.3,153.2 341.3,153.2 342.4,153.2 343.4,153.2 344.4,153.2 345.5,153.2 346.5,153.2 347.5,153.2 348.6,151.8 349.6,151.8 350.6,151.8 351.7,151.8 352.7,151.8 353.7,151.8 354.8,151.8 355.8,149.9 356.8,149.9 357.9,149.9 358.9,149.9 359.9,149.9 361.0,149.9 362.0,149.0 363.0,149.0 364.1,149.0 365.1,149.0 366.1,149.0 367.2,149.0 368.2,149.0 369.2,149.8 370.3,149.8 371.3,149.8 372.3,149.8 373.4,149.8 374.4,149.8 375.4,149.8 376.5,149.5 377.5,149.5 378.5,149.5 379.6,149.5 380.6,149.5 381.6,149.5 382.7,148.7 383.7,148.7 384.7,148.7 385.8,148.7 386.8,148.7 387.8,148.7 388.9,148.7 389.9,148.9 390.9,148.9 392.0,148.9 393.0,148.9 394.0,148.9 395.1,148.9 396.1,148.9 397.1,149.1 398.2,149.1 399.2,149.1 400.2,149.1 401.3,149.1 402.3,149.1 403.3,148.2 404.4,148.2 405.4,148.2 406.4,148.2 407.5,148.2 408.5,148.2 409.5,148.2 410.6,148.3 411.6,148.3 412.6,148.3 413.7,148.3 414.7,148.3 415.7,148.3 416.8,148.3 417.8,147.2 418.8,147.2 419.9,147.2 420.9,147.2 421.9,147.2 423.0,147.2 424.0,147.2 425.0,147.2 426.1,147.2 427.1,147.2 428.1,147.2 429.2,147.2 430.2,147.2 431.2,147.0 432.3,147.0 433.3,147.0 434.3,147.0 435.4,147.0 436.4,147.0 437.4,147.0 438.5,146.2 439.5,146.2 440.5,146.2 441.6,146.2 442.6,146.2 443.6,146.2 444.7,147.2 445.7,147.2 446.7,147.2 447.8,147.2 448.8,147.2 449.8,147.2 450.9,147.2 451.9,146.2 452.9,146.2 454.0,146.2 455.0,146.2 456.0,146.2 457.1,146.2 458.1,146.2 459.1,148.6 460.2,148.6 461.2,148.6 462.2,148.6 463.3,148.6 464.3,148.6 465.3,149.3 466.4,149.3 467.4,149.3 468.4,149.3 469.5,149.3 470.5,149.3 471.5,149.3 472.6,149.2 473.6,149.2 474.6,149.2 475.7,149.2 476.7,149.2 477.7,149.2 478.8,149.2 479.8,150.0 480.8,150.0 481.9,150.0 482.9,150.0 483.9,150.0 485.0,150.0 486.0,149.5 487.0,149.6 488.1,149.6 489.1,149.6 490.1,149.6 491.2,149.6 492.2,149.6 493.2,149.0 494.3,149.0 495.3,149.0 496.3,149.0 497.4,149.0 498.4,149.0 499.4,149.0 500.5,149.0 501.5,149.0 502.5,149.0 503.6,149.0 504.6,149.0 505.6,149.0 506.7,149.4 507.7,149.4 508.7,149.4 509.8,149.4 510.8,149.4 511.8,149.4 512.9,149.4 513.9,149.1 514.9,149.1 516.0,149.1 517.0,149.1 518.0,149.1 519.1,149.1 520.1,149.1 521.1,149.5 522.2,149.5 523.2,149.5 524.2,149.5 525.3,149.5 526.3,149.5 527.3,149.0 528.4,149.0 529.4,149.0 530.4,149.0 531.5,149.0 532.5,149.0 533.5,149.0 534.6,147.8 535.6,147.8 536.6,147.8 537.7,147.8 538.7,147.8 539.7,147.8 540.8,147.8 541.8,148.3 542.8,148.3 543.9,148.3 544.9,148.3 545.9,148.3 547.0,148.3 548.0,148.8 549.0,148.8 550.1,148.8 551.1,148.8 552.1,148.8 553.2,148.8 554.2,148.8 555.2,149.4 556.3,149.4 557.3,149.4 558.3,149.4 559.4,149.4 560.4,149.4 561.4,149.4 562.5,149.7 563.5,149.7 564.5,149.7 565.6,149.7 566.6,149.7 567.6,149.7 568.7,148.9 569.7,148.8 570.7,148.8 571.8,148.8 572.8,148.8 573.8,148.8 574.9,148.8 575.9,149.1 576.9,149.1 578.0,149.1 579.0,149.1 580.0,149.1 581.1,149.1 582.1,149.1 583.1,149.3 584.2,149.3 585.2,149.3 586.2,149.3 587.3,149.3 588.3,149.3 589.3,149.1 590.4,149.0 591.4,149.0 592.4,149.0 593.5,149.0 594.5,149.0 595.5,149.0 596.6,149.1 597.6,149.1 598.6,149.1 599.7,149.1 600.7,149.1 601.7,149.1 602.8,149.1 603.8,149.0 604.8,149.0 605.9,149.0 606.9,149.0 607.9,149.0 609.0,149.0 610.0,149.4 611.0,149.4 612.1,149.4 613.1,149.4 614.1,149.4 615.2,149.4 616.2,149.4 617.2,148.8 618.3,148.8 619.3,148.8 620.3,148.8 621.4,148.8 622.4,148.8 623.4,148.8 624.5,148.7 625.5,148.7 626.5,148.7 627.6,148.7 628.6,148.7 629.6,148.7 630.7,147.7 631.7,147.8 632.7,147.8 633.8,147.8 634.8,147.8 635.8,147.8 636.9,147.8 637.9,146.9 638.9,146.9 640.0,146.9 641.0,146.9 642.0,146.9 643.1,146.9 644.1,146.9 645.1,146.8 646.2,146.8 647.2,146.8 648.2,146.8 649.3,146.8 650.3,146.8 651.3,146.0 652.4,146.2 653.4,146.2 654.4,146.2 655.5,146.2 656.5,146.2 657.5,146.2 658.6,146.5 659.6,146.5 660.6,146.5 661.7,146.5 662.7,146.5 663.7,146.5 664.8,146.5 665.8,146.5 666.8,146.5 667.9,146.5 668.9,146.5 669.9,146.5 671.0,146.5 672.0,146.1 673.0,146.0 674.1,146.0 675.1,146.0 676.1,146.0 677.2,146.0 678.2,146.0 679.2,146.8 680.3,146.8 681.3,146.8 682.3,146.8 683.4,146.8 684.4,146.8 685.4,146.8 686.5,146.6 687.5,146.6 688.5,146.6 689.6,146.6 690.6,146.6 691.6,146.6 692.7,146.9 693.7,146.9 694.7,146.9 695.8,146.9 696.8,146.9 697.8,146.9 698.9,146.9 699.9,147.6 700.9,147.6 702.0,147.6 703.0,147.6 704.0,147.6 705.1,147.6 706.1,147.6 707.1,146.8 708.2,146.8 709.2,146.8 710.2,146.8 711.3,146.8 712.3,146.8 713.3,147.6 714.4,147.6 715.4,147.6 716.4,147.6 717.5,147.6 718.5,147.6 719.5,147.6 720.6,146.7 721.6,146.7 722.6,146.7 723.7,146.7 724.7,146.7 725.7,146.7 726.8,146.7 727.8,146.1 728.8,146.1 729.9,146.1 730.9,146.1 731.9,146.1 733.0,146.1 734.0,146.2 735.0,146.4 736.1,146.4 737.1,146.4 738.1,146.4 739.2,146.4 740.2,146.4 741.2,145.0 742.3,145.0 743.3,145.0 744.3,145.0 745.4,145.0 746.4,145.0 747.4,145.0 748.5,144.5 749.5,144.5 750.5,144.5 751.6,144.5 752.6,144.5 753.6,144.5 754.7,145.7 755.7,145.8 756.7,145.8 757.8,145.8 758.8,145.8 759.8,145.8 760.9,145.8 761.9,144.3 762.9,144.3 764.0,144.3 765.0,144.3 766.0,144.3 767.1,144.3 768.1,144.3 769.1,145.1 770.2,145.1 771.2,145.1 772.2,145.1 773.3,145.1 774.3,145.1 775.3,145.8 776.4,145.7 777.4,145.7 778.4,145.7 779.5,145.7 780.5,145.7 781.5,145.7 782.6,145.0 783.6,145.0 784.6,145.0 785.7,145.0 786.7,145.0 787.7,145.0 788.8,145.0 789.8,145.4 790.8,145.4 791.9,145.4 792.9,145.4 793.9,145.4 795.0,145.4 796.0,146.7"/>
<text x="640" y="72" font-family="Arial" font-size="12" fill="#2563eb">bay</text>
<polyline fill="none" stroke="#b45309" stroke-width="2.3" points="52.0,132.0 53.0,132.0 54.1,132.0 55.1,132.0 56.1,132.0 57.2,127.5 58.2,127.5 59.2,89.1 60.3,89.1 61.3,89.1 62.3,91.9 63.4,91.9 64.4,91.9 65.4,91.9 66.5,78.7 67.5,83.8 68.5,83.8 69.6,83.8 70.6,83.8 71.6,83.8 72.7,210.2 73.7,210.2 74.7,210.2 75.8,210.2 76.8,210.2 77.8,207.4 78.9,207.4 79.9,274.0 80.9,274.0 82.0,274.0 83.0,271.7 84.0,271.7 85.1,271.7 86.1,271.7 87.1,176.7 88.2,174.5 89.2,174.5 90.2,174.5 91.3,174.5 92.3,174.5 93.3,259.0 94.4,260.7 95.4,260.7 96.4,260.7 97.5,260.7 98.5,254.5 99.5,254.5 100.6,205.9 101.6,205.9 102.6,205.9 103.7,206.3 104.7,206.3 105.7,206.3 106.8,206.3 107.8,152.2 108.8,148.6 109.9,148.6 110.9,148.6 111.9,148.6 113.0,148.6 114.0,140.4 115.0,140.4 116.1,140.4 117.1,140.4 118.1,140.4 119.2,144.8 120.2,144.8 121.2,122.5 122.3,122.5 123.3,122.5 124.3,122.3 125.4,122.3 126.4,122.3 127.4,122.3 128.5,107.7 129.5,108.7 130.5,108.7 131.6,108.7 132.6,108.7 133.6,108.7 134.7,134.4 135.7,135.4 136.7,135.4 137.8,135.4 138.8,135.4 139.8,134.9 140.9,134.9 141.9,135.0 142.9,135.0 144.0,135.0 145.0,132.8 146.0,132.8 147.1,132.8 148.1,132.8 149.1,116.9 150.2,118.1 151.2,118.1 152.2,118.1 153.3,118.1 154.3,118.1 155.3,112.4 156.4,112.0 157.4,112.0 158.4,112.0 159.5,112.0 160.5,112.6 161.5,112.6 162.6,118.3 163.6,118.3 164.6,118.3 165.7,116.0 166.7,116.0 167.7,116.0 168.8,116.0 169.8,117.4 170.8,117.5 171.9,117.5 172.9,117.5 173.9,117.5 175.0,117.5 176.0,110.4 177.0,110.4 178.1,110.4 179.1,110.4 180.1,110.4 181.2,110.4 182.2,110.4 183.2,108.4 184.3,108.4 185.3,108.4 186.3,111.0 187.4,111.0 188.4,111.0 189.4,111.0 190.5,111.7 191.5,113.7 192.5,113.7 193.6,113.7 194.6,113.7 195.6,113.7 196.7,116.1 197.7,116.1 198.7,116.1 199.8,116.1 200.8,116.1 201.8,116.6 202.9,116.6 203.9,114.7 204.9,114.7 206.0,114.7 207.0,114.8 208.0,114.8 209.1,114.8 210.1,114.8 211.1,117.0 212.2,116.7 213.2,116.7 214.2,116.7 215.3,116.7 216.3,116.7 217.3,110.9 218.4,111.1 219.4,111.1 220.4,111.1 221.5,111.1 222.5,110.5 223.5,110.5 224.6,112.3 225.6,112.3 226.6,112.3 227.7,113.7 228.7,113.7 229.7,113.7 230.8,113.7 231.8,110.9 232.8,111.7 233.9,111.7 234.9,111.7 235.9,111.7 237.0,111.7 238.0,107.6 239.0,107.5 240.1,107.5 241.1,107.5 242.1,107.5 243.2,108.8 244.2,108.8 245.2,106.1 246.3,106.1 247.3,106.1 248.3,106.3 249.4,106.3 250.4,106.3 251.4,106.3 252.5,109.4 253.5,111.4 254.5,111.4 255.6,111.4 256.6,111.4 257.6,111.4 258.7,112.7 259.7,112.7 260.7,112.7 261.8,112.7 262.8,112.7 263.8,112.8 264.9,112.8 265.9,113.7 266.9,113.7 268.0,113.7 269.0,113.3 270.0,113.3 271.1,113.3 272.1,113.3 273.1,116.2 274.2,117.3 275.2,117.3 276.2,117.3 277.3,117.3 278.3,117.3 279.3,116.8 280.4,116.7 281.4,116.7 282.4,116.7 283.5,116.7 284.5,117.4 285.5,117.4 286.6,116.2 287.6,116.2 288.6,116.2 289.7,115.9 290.7,115.9 291.7,115.9 292.8,115.9 293.8,118.5 294.8,118.4 295.9,118.4 296.9,118.4 297.9,118.4 299.0,118.4 300.0,117.3 301.0,117.3 302.1,117.3 303.1,117.3 304.1,117.3 305.2,117.3 306.2,117.3 307.2,119.1 308.3,119.1 309.3,119.1 310.3,119.8 311.4,119.8 312.4,119.8 313.4,119.8 314.5,118.6 315.5,118.5 316.5,118.5 317.6,118.5 318.6,118.5 319.6,118.5 320.7,119.7 321.7,119.7 322.7,119.7 323.8,119.7 324.8,119.7 325.8,119.5 326.9,119.5 327.9,118.6 328.9,118.6 330.0,118.6 331.0,119.3 332.0,119.3 333.1,119.3 334.1,119.3 335.1,121.5 336.2,121.6 337.2,121.6 338.2,121.6 339.3,121.6 340.3,121.6 341.3,122.6 342.4,122.5 343.4,122.5 344.4,122.5 345.5,122.5 346.5,122.0 347.5,122.0 348.6,119.8 349.6,119.8 350.6,119.8 351.7,119.1 352.7,119.1 353.7,119.1 354.8,119.1 355.8,120.7 356.8,121.2 357.9,121.2 358.9,121.2 359.9,121.2 361.0,121.2 362.0,119.0 363.0,119.0 364.1,119.0 365.1,119.0 366.1,119.0 367.2,118.4 368.2,118.4 369.2,118.7 370.3,118.7 371.3,118.7 372.3,118.1 373.4,118.1 374.4,118.1 375.4,118.1 376.5,118.8 377.5,119.2 378.5,119.2 379.6,119.2 380.6,119.2 381.6,119.2 382.7,118.9 383.7,118.9 384.7,118.9 385.8,118.9 386.8,118.9 387.8,118.8 388.9,118.8 389.9,118.8 390.9,118.8 392.0,118.8 393.0,118.6 394.0,118.6 395.1,118.6 396.1,118.6 397.1,118.1 398.2,117.5 399.2,117.5 400.2,117.5 401.3,117.5 402.3,117.5 403.3,118.1 404.4,118.1 405.4,118.1 406.4,118.1 407.5,118.1 408.5,118.1 409.5,118.1 410.6,118.2 411.6,118.2 412.6,118.2 413.7,117.7 414.7,117.7 415.7,117.7 416.8,117.7 417.8,118.7 418.8,118.6 419.9,118.6 420.9,118.6 421.9,118.6 423.0,118.6 424.0,117.9 425.0,117.9 426.1,117.9 427.1,117.9 428.1,117.9 429.2,118.2 430.2,118.2 431.2,117.9 432.3,117.9 433.3,117.9 434.3,118.2 435.4,118.2 436.4,118.2 437.4,118.2 438.5,118.9 439.5,118.9 440.5,118.9 441.6,118.9 442.6,118.9 443.6,118.9 444.7,119.9 445.7,119.9 446.7,119.9 447.8,119.9 448.8,119.9 449.8,119.8 450.9,119.8 451.9,118.8 452.9,118.8 454.0,118.8 455.0,118.5 456.0,118.5 457.1,118.5 458.1,118.5 459.1,119.1 460.2,118.6 461.2,118.6 462.2,118.6 463.3,118.6 464.3,118.6 465.3,118.8 466.4,118.8 467.4,118.8 468.4,118.8 469.5,118.8 470.5,118.7 471.5,118.7 472.6,119.4 473.6,119.4 474.6,119.4 475.7,119.6 476.7,119.6 477.7,119.6 478.8,119.6 479.8,118.6 480.8,118.9 481.9,118.9 482.9,118.9 483.9,118.9 485.0,118.9 486.0,119.0 487.0,118.9 488.1,118.9 489.1,118.9 490.1,118.9 491.2,119.2 492.2,119.2 493.2,120.2 494.3,120.2 495.3,120.2 496.3,120.6 497.4,120.6 498.4,120.6 499.4,120.6 500.5,120.2 501.5,120.4 502.5,120.4 503.6,120.4 504.6,120.4 505.6,120.4 506.7,119.7 507.7,119.7 508.7,119.7 509.8,119.7 510.8,119.7 511.8,119.2 512.9,119.2 513.9,119.7 514.9,119.7 516.0,119.7 517.0,119.7 518.0,119.7 519.1,119.7 520.1,119.7 521.1,120.3 522.2,119.5 523.2,119.5 524.2,119.5 525.3,119.5 526.3,119.5 527.3,120.2 528.4,120.2 529.4,120.2 530.4,120.2 531.5,120.2 532.5,119.9 533.5,119.9 534.6,119.1 535.6,119.1 536.6,119.1 537.7,119.4 538.7,119.4 539.7,119.4 540.8,119.4 541.8,120.1 542.8,120.6 543.9,120.6 544.9,120.6 545.9,120.6 547.0,120.6 548.0,121.4 549.0,121.4 550.1,121.4 551.1,121.4 552.1,121.4 553.2,121.3 554.2,121.3 555.2,121.2 556.3,121.2 557.3,121.2 558.3,121.2 559.4,121.2 560.4,121.2 561.4,121.2 562.5,121.0 563.5,120.8 564.5,120.8 565.6,120.8 566.6,120.8 567.6,120.8 568.7,120.9 569.7,120.8 570.7,120.8 571.8,120.8 572.8,120.8 573.8,120.9 574.9,120.9 575.9,120.2 576.9,120.2 578.0,120.2 579.0,120.2 580.0,120.2 581.1,120.2 582.1,120.2 583.1,120.1 584.2,120.2 585.2,120.2 586.2,120.2 587.3,120.2 588.3,120.2 589.3,119.4 590.4,119.5 591.4,119.5 592.4,119.5 593.5,119.5 594.5,119.3 595.5,119.3 596.6,118.7 597.6,118.7 598.6,118.7 599.7,119.1 600.7,119.1 601.7,119.1 602.8,119.1 603.8,119.7 604.8,120.1 605.9,120.1 606.9,120.1 607.9,120.1 609.0,120.1 610.0,119.9 611.0,119.9 612.1,119.9 613.1,119.9 614.1,119.9 615.2,119.5 616.2,119.5 617.2,119.6 618.3,119.6 619.3,119.6 620.3,119.4 621.4,119.4 622.4,119.4 623.4,119.4 624.5,119.6 625.5,119.8 626.5,119.8 627.6,119.8 628.6,119.8 629.6,119.8 630.7,119.3 631.7,119.3 632.7,119.3 633.8,119.3 634.8,119.3 635.8,119.3 636.9,119.3 637.9,119.9 638.9,119.9 640.0,119.9 641.0,120.0 642.0,120.0 643.1,120.0 644.1,120.0 645.1,119.8 646.2,119.5 647.2,119.5 648.2,119.5 649.3,119.5 650.3,119.5 651.3,118.4 652.4,118.3 653.4,118.3 654.4,118.3 655.5,118.3 656.5,118.6 657.5,118.6 658.6,119.1 659.6,119.1 660.6,119.1 661.7,119.1 662.7,119.1 663.7,119.1 664.8,119.1 665.8,118.8 666.8,118.4 667.9,118.4 668.9,118.4 669.9,118.4 671.0,118.4 672.0,118.3 673.0,118.3 674.1,118.3 675.1,118.3 676.1,118.3 677.2,118.2 678.2,118.2 679.2,118.3 680.3,118.3 681.3,118.3 682.3,118.5 683.4,118.5 684.4,118.5 685.4,118.5 686.5,118.4 687.5,118.7 688.5,118.7 689.6,118.7 690.6,118.7 691.6,118.7 692.7,119.6 693.7,119.6 694.7,119.6 695.8,119.6 696.8,119.6 697.8,119.9 698.9,119.9 699.9,120.3 700.9,120.3 702.0,120.3 703.0,120.6 704.0,120.6 705.1,120.6 706.1,120.6 707.1,120.5 708.2,120.4 709.2,120.4 710.2,120.4 711.3,120.4 712.3,120.4 713.3,119.7 714.4,119.7 715.4,119.7 716.4,119.7 717.5,119.7 718.5,119.8 719.5,119.8 720.6,120.0 721.6,120.0 722.6,120.0 723.7,119.8 724.7,119.8 725.7,119.8 726.8,119.8 727.8,118.7 728.8,118.9 729.9,118.9 730.9,118.9 731.9,118.9 733.0,118.9 734.0,119.9 735.0,120.1 736.1,120.1 737.1,120.1 738.1,120.1 739.2,120.2 740.2,120.2 741.2,119.3 742.3,119.3 743.3,119.3 744.3,119.4 745.4,119.4 746.4,119.4 747.4,119.4 748.5,119.6 749.5,120.2 750.5,120.2 751.6,120.2 752.6,120.2 753.6,120.2 754.7,118.8 755.7,118.8 756.7,118.8 757.8,118.8 758.8,118.8 759.8,118.7 760.9,118.7 761.9,118.9 762.9,118.9 764.0,118.9 765.0,118.9 766.0,118.9 767.1,118.9 768.1,118.9 769.1,118.7 770.2,118.7 771.2,118.7 772.2,118.7 773.3,118.7 774.3,118.7 775.3,118.7 776.4,118.7 777.4,118.7 778.4,118.7 779.5,118.7 780.5,119.0 781.5,119.0 782.6,119.7 783.6,119.7 784.6,119.7 785.7,119.5 786.7,119.5 787.7,119.5 788.8,119.5 789.8,120.0 790.8,120.0 791.9,120.0 792.9,120.0 793.9,120.0 795.0,120.0 796.0,119.5"/>
<text x="640" y="88" font-family="Arial" font-size="12" fill="#b45309">baz</text>
</svg>