<svg xmlns="http://www.w3.org/2000/svg" width="820" height="320" viewBox="0 0 820 320">
<rect width="100%" height="100%" fill="white"/>
<text x="52" y="30" font-family="Arial" font-size="18" font-weight="700">robust_nominal accelerometer bias estimates</text>
<line x1="52" y1="274" x2="796" y2="274" stroke="#263238"/>
<line x1="52" y1="42" x2="52" y2="274" stroke="#263238"/>
<text x="52" y="306" font-family="Arial" font-size="12">time (s)</text>
<text x="630" y="306" font-family="Arial" font-size="12">m/s^2</text>

<polyline fill="none" stroke="#0f766e" stroke-width="2.3" points="52.0,132.3 53.0,132.3 54.1,132.3 55.1,132.3 56.1,132.3 57.2,132.3 58.2,132.3 59.2,115.6 60.3,115.6 61.3,115.6 62.3,115.6 63.4,115.6 64.4,115.6 65.4,115.6 66.5,212.5 67.5,212.5 68.5,212.5 69.6,212.5 70.6,212.5 71.6,212.5 72.7,122.9 73.7,122.9 74.7,122.9 75.8,122.9 76.8,122.9 77.8,122.9 78.9,122.9 79.9,50.9 80.9,50.9 82.0,50.9 83.0,50.9 84.0,50.9 85.1,50.9 86.1,50.9 87.1,132.9 88.2,132.9 89.2,132.9 90.2,132.9 91.3,132.9 92.3,132.9 93.3,113.4 94.4,114.0 95.4,114.0 96.4,114.0 97.5,114.0 98.5,114.0 99.5,114.0 100.6,125.4 101.6,125.4 102.6,125.4 103.7,125.4 104.7,125.4 105.7,125.4 106.8,125.4 107.8,120.6 108.8,120.6 109.9,120.6 110.9,120.6 111.9,120.6 113.0,120.6 114.0,108.8 115.0,108.8 116.1,108.8 117.1,108.8 118.1,108.8 119.2,108.8 120.2,108.8 121.2,84.7 122.3,84.7 123.3,84.7 124.3,84.7 125.4,84.7 126.4,84.7 127.4,84.7 128.5,110.7 129.5,110.7 130.5,110.7 131.6,110.7 132.6,110.7 133.6,110.7 134.7,96.3 135.7,95.5 136.7,95.5 137.8,95.5 138.8,95.5 139.8,95.5 140.9,95.5 141.9,95.4 142.9,95.4 144.0,95.4 145.0,95.4 146.0,95.4 147.1,95.4 148.1,95.4 149.1,84.5 150.2,84.5 151.2,84.5 152.2,84.5 153.3,84.5 154.3,84.5 155.3,89.3 156.4,88.0 157.4,88.0 158.4,88.0 159.5,88.0 160.5,88.0 161.5,88.0 162.6,87.6 163.6,87.6 164.6,87.6 165.7,87.6 166.7,87.6 167.7,87.6 168.8,87.6 169.8,97.2 170.8,97.2 171.9,97.2 172.9,97.2 173.9,97.2 175.0,97.2 176.0,104.0 177.0,104.0 178.1,104.0 179.1,104.0 180.1,104.0 181.2,104.0 182.2,104.0 183.2,97.5 184.3,97.5 185.3,97.5 186.3,97.5 187.4,97.5 188.4,97.5 189.4,97.5 190.5,100.6 191.5,100.6 192.5,100.6 193.6,100.6 194.6,100.6 195.6,100.6 196.7,108.9 197.7,108.9 198.7,108.9 199.8,108.9 200.8,108.9 201.8,108.9 202.9,108.9 203.9,107.6 204.9,107.6 206.0,107.6 207.0,107.6 208.0,107.6 209.1,107.6 210.1,107.6 211.1,104.0 212.2,104.0 213.2,104.0 214.2,104.0 215.3,104.0 216.3,104.0 217.3,102.0 218.4,101.3 219.4,101.3 220.4,101.3 221.5,101.3 222.5,101.3 223.5,101.3 224.6,101.8 225.6,101.8 226.6,101.8 227.7,101.8 228.7,101.8 229.7,101.8 230.8,101.8 231.8,103.6 232.8,103.6 233.9,103.6 234.9,103.6 235.9,103.6 237.0,103.6 238.0,105.7 239.0,105.9 240.1,105.9 241.1,105.9 242.1,105.9 243.2,105.9 244.2,105.9 245.2,110.0 246.3,110.0 247.3,110.0 248.3,110.0 249.4,110.0 250.4,110.0 251.4,110.0 252.5,114.4 253.5,114.4 254.5,114.4 255.6,114.4 256.6,114.4 257.6,114.4 258.7,115.1 259.7,115.1 260.7,115.1 261.8,115.1 262.8,115.1 263.8,115.1 264.9,115.1 265.9,116.5 266.9,116.5 268.0,116.5 269.0,116.5 270.0,116.5 271.1,116.5 272.1,116.5 273.1,117.4 274.2,117.4 275.2,117.4 276.2,117.4 277.3,117.4 278.3,117.4 279.3,117.5 280.4,117.2 281.4,117.2 282.4,117.2 283.5,117.2 284.5,117.2 285.5,117.2 286.6,115.7 287.6,115.7 288.6,115.7 289.7,115.7 290.7,115.7 291.7,115.7 292.8,115.7 293.8,116.4 294.8,116.4 295.9,116.4 296.9,116.4 297.9,116.4 299.0,116.4 300.0,116.3 301.0,116.3 302.1,116.3 303.1,116.3 304.1,116.3 305.2,116.3 306.2,116.3 307.2,114.2 308.3,114.2 309.3,114.2 310.3,114.2 311.4,114.2 312.4,114.2 313.4,114.2 314.5,112.6 315.5,112.6 316.5,112.6 317.6,112.6 318.6,112.6 319.6,112.6 320.7,114.1 321.7,114.1 322.7,114.1 323.8,114.1 324.8,114.1 325.8,114.1 326.9,114.1 327.9,113.2 328.9,113.2 330.0,113.2 331.0,113.2 332.0,113.2 333.1,113.2 334.1,113.2 335.1,113.5 336.2,113.5 337.2,113.5 338.2,113.5 339.3,113.5 340.3,113.5 341.3,112.3 342.4,111.6 343.4,111.6 344.4,111.6 345.5,111.6 346.5,111.6 347.5,111.6 348.6,112.6 349.6,112.6 350.6,112.6 351.7,112.6 352.7,112.6 353.7,112.6 354.8,112.6 355.8,113.8 356.8,113.8 357.9,113.8 358.9,113.8 359.9,113.8 361.0,113.8 362.0,114.3 363.0,114.3 364.1,114.3 365.1,114.3 366.1,114.3 367.2,114.3 368.2,114.3 369.2,112.8 370.3,112.8 371.3,112.8 372.3,112.8 373.4,112.8 374.4,112.8 375.4,112.8 376.5,112.8 377.5,112.8 378.5,112.8 379.6,112.8 380.6,112.8 381.6,112.8 382.7,112.6 383.7,112.6 384.7,112.6 385.8,112.6 386.8,112.6 387.8,112.6 388.9,112.6 389.9,112.4 390.9,112.4 392.0,112.4 393.0,112.4 394.0,112.4 395.1,112.4 396.1,112.4 397.1,113.4 398.2,113.4 399.2,113.4 400.2,113.4 401.3,113.4 402.3,113.4 403.3,113.4 404.4,113.4 405.4,113.4 406.4,113.4 407.5,113.4 408.5,113.4 409.5,113.4 410.6,113.4 411.6,113.4 412.6,113.4 413.7,113.4 414.7,113.4 415.7,113.4 416.8,113.4 417.8,113.0 418.8,113.0 419.9,113.0 420.9,113.0 421.9,113.0 423.0,113.0 424.0,113.2 425.0,113.2 426.1,113.2 427.1,113.2 428.1,113.2 429.2,113.2 430.2,113.2 431.2,112.6 432.3,112.6 433.3,112.6 434.3,112.6 435.4,112.6 436.4,112.6 437.4,112.6 438.5,110.8 439.5,110.8 440.5,110.8 441.6,110.8 442.6,110.8 443.6,110.8 444.7,111.7 445.7,111.7 446.7,111.7 447.8,111.7 448.8,111.7 449.8,111.7 450.9,111.7 451.9,112.7 452.9,112.7 454.0,112.7 455.0,112.7 456.0,112.7 457.1,112.7 458.1,112.7 459.1,112.4 460.2,112.4 461.2,112.4 462.2,112.4 463.3,112.4 464.3,112.4 465.3,113.4 466.4,113.4 467.4,113.4 468.4,113.4 469.5,113.4 470.5,113.4 471.5,113.4 472.6,113.5 473.6,113.5 474.6,113.5 475.7,113.5 476.7,113.5 477.7,113.5 478.8,113.5 479.8,112.2 480.8,112.2 481.9,112.2 482.9,112.2 483.9,112.2 485.0,112.2 486.0,112.3 487.0,112.4 488.1,112.4 489.1,112.4 490.1,112.4 491.2,112.4 492.2,112.4 493.2,113.6 494.3,113.6 495.3,113.6 496.3,113.6 497.4,113.6 498.4,113.6 499.4,113.6 500.5,113.4 501.5,113.4 502.5,113.4 503.6,113.4 504.6,113.4 505.6,113.4 506.7,113.9 507.7,113.9 508.7,113.9 509.8,113.9 510.8,113.9 511.8,113.9 512.9,113.9 513.9,113.3 514.9,113.3 516.0,113.3 517.0,113.3 518.0,113.3 519.1,113.3 520.1,113.3 521.1,112.2 522.2,112.2 523.2,112.2 524.2,112.2 525.3,112.2 526.3,112.2 527.3,112.3 528.4,112.3 529.4,112.3 530.4,112.3 531.5,112.3 532.5,112.3 533.5,112.3 534.6,112.4 535.6,112.4 536.6,112.4 537.7,112.4 538.7,112.4 539.7,112.4 540.8,112.4 541.8,113.4 542.8,113.4 543.9,113.4 544.9,113.4 545.9,113.4 547.0,113.4 548.0,113.4 549.0,113.4 550.1,113.4 551.1,113.4 552.1,113.4 553.2,113.4 554.2,113.4 555.2,112.5 556.3,112.5 557.3,112.5 558.3,112.5 559.4,112.5 560.4,112.5 561.4,112.5 562.5,112.8 563.5,112.8 564.5,112.8 565.6,112.8 566.6,112.8 567.6,112.8 568.7,113.6 569.7,113.5 570.7,113.5 571.8,113.5 572.8,113.5 573.8,113.5 574.9,113.5 575.9,113.4 576.9,113.4 578.0,113.4 579.0,113.4 580.0,113.4 581.1,113.4 582.1,113.4 583.1,114.2 584.2,114.2 585.2,114.2 586.2,114.2 587.3,114.2 588.3,114.2 589.3,114.4 590.4,114.4 591.4,114.4 592.4,114.4 593.5,114.4 594.5,114.4 595.5,114.4 596.6,114.0 597.6,114.0 598.6,114.0 599.7,114.0 600.7,114.0 601.7,114.0 602.8,114.0 603.8,113.0 604.8,113.0 605.9,113.0 606.9,113.0 607.9,113.0 609.0,113.0 610.0,112.8 611.0,112.8 612.1,112.8 613.1,112.8 614.1,112.8 615.2,112.8 616.2,112.8 617.2,111.8 618.3,111.8 619.3,111.8 620.3,111.8 621.4,111.8 622.4,111.8 623.4,111.8 624.5,111.6 625.5,111.6 626.5,111.6 627.6,111.6 628.6,111.6 629.6,111.6 630.7,111.5 631.7,111.5 632.7,111.5 633.8,111.5 634.8,111.5 635.8,111.5 636.9,111.5 637.9,111.1 638.9,111.1 640.0,111.1 641.0,111.1 642.0,111.1 643.1,111.1 644.1,111.1 645.1,111.6 646.2,111.6 647.2,111.6 648.2,111.6 649.3,111.6 650.3,111.6 651.3,111.2 652.4,111.0 653.4,111.0 654.4,111.0 655.5,111.0 656.5,111.0 657.5,111.0 658.6,112.0 659.6,112.0 660.6,112.0 661.7,112.0 662.7,112.0 663.7,112.0 664.8,112.0 665.8,112.3 666.8,112.3 667.9,112.3 668.9,112.3 669.9,112.3 671.0,112.3 672.0,111.1 673.0,111.0 674.1,111.0 675.1,111.0 676.1,111.0 677.2,111.0 678.2,111.0 679.2,111.8 680.3,111.8 681.3,111.8 682.3,111.8 683.4,111.8 684.4,111.8 685.4,111.8 686.5,111.8 687.5,111.8 688.5,111.8 689.6,111.8 690.6,111.8 691.6,111.8 692.7,110.7 693.7,110.7 694.7,110.7 695.8,110.7 696.8,110.7 697.8,110.7 698.9,110.7 699.9,110.5 700.9,110.5 702.0,110.5 703.0,110.5 704.0,110.5 705.1,110.5 706.1,110.5 707.1,111.3 708.2,111.3 709.2,111.3 710.2,111.3 711.3,111.3 712.3,111.3 713.3,112.1 714.4,112.1 715.4,112.1 716.4,112.1 717.5,112.1 718.5,112.1 719.5,112.1 720.6,112.9 721.6,112.9 722.6,112.9 723.7,112.9 724.7,112.9 725.7,112.9 726.8,112.9 727.8,112.4 728.8,112.4 729.9,112.4 730.9,112.4 731.9,112.4 733.0,112.4 734.0,112.7 735.0,112.5 736.1,112.5 737.1,112.5 738.1,112.5 739.2,112.5 740.2,112.5 741.2,113.6 742.3,113.6 743.3,113.6 744.3,113.6 745.4,113.6 746.4,113.6 747.4,113.6 748.5,113.1 749.5,113.1 750.5,113.1 751.6,113.1 752.6,113.1 753.6,113.1 754.7,113.5 755.7,113.4 756.7,113.4 757.8,113.4 758.8,113.4 759.8,113.4 760.9,113.4 761.9,112.2 762.9,112.2 764.0,112.2 765.0,112.2 766.0,112.2 767.1,112.2 768.1,112.2 769.1,112.0 770.2,112.0 771.2,112.0 772.2,112.0 773.3,112.0 774.3,112.0 775.3,112.5 776.4,112.6 777.4,112.6 778.4,112.6 779.5,112.6 780.5,112.6 781.5,112.6 782.6,111.9 783.6,111.9 784.6,111.9 785.7,111.9 786.7,111.9 787.7,111.9 788.8,111.9 789.8,111.1 790.8,111.1 791.9,111.1 792.9,111.1 793.9,111.1 795.0,111.1 796.0,110.8"/>
<text x="640" y="56" font-family="Arial" font-size="12" fill="#0f766e">bax</text>
<polyline fill="none" stroke="#2563eb" stroke-width="2.3" points="52.0,132.3 53.0,132.3 54.1,132.3 55.1,132.3 56.1,132.3 57.2,132.3 58.2,132.3 59.2,141.2 60.3,141.2 61.3,141.2 62.3,141.2 63.4,141.2 64.4,141.2 65.4,141.2 66.5,42.0 67.5,42.0 68.5,42.0 69.6,42.0 70.6,42.0 71.6,42.0 72.7,123.2 73.7,123.2 74.7,123.2 75.8,123.2 76.8,123.2 77.8,123.2 78.9,123.2 79.9,182.3 80.9,182.3 82.0,182.3 83.0,182.3 84.0,182.3 85.1,182.3 86.1,182.3 87.1,131.8 88.2,131.8 89.2,131.8 90.2,131.8 91.3,131.8 92.3,131.8 93.3,133.2 94.4,133.4 95.4,133.4 96.4,133.4 97.5,133.4 98.5,133.4 99.5,133.4 100.6,127.4 101.6,127.4 102.6,127.4 103.7,127.4 104.7,127.4 105.7,127.4 106.8,127.4 107.8,114.4 108.8,114.4 109.9,114.4 110.9,114.4 111.9,114.4 113.0,114.4 114.0,144.1 115.0,144.1 116.1,144.1 117.1,144.1 118.1,144.1 119.2,144.1 120.2,144.1 121.2,171.3 122.3,171.3 123.3,171.3 124.3,171.3 125.4,171.3 126.4,171.3 127.4,171.3 128.5,160.6 129.5,160.6 130.5,160.6 131.6,160.6 132.6,160.6 133.6,160.6 134.7,152.8 135.7,151.5 136.7,151.5 137.8,151.5 138.8,151.5 139.8,151.5 140.9,151.5 141.9,138.7 142.9,138.7 144.0,138.7 145.0,138.7 146.0,138.7 147.1,138.7 148.1,138.7 149.1,149.5 150.2,149.5 151.2,149.5 152.2,149.5 153.3,149.5 154.3,149.5 155.3,144.7 156.4,145.8 157.4,145.8 158.4,145.8 159.5,145.8 160.5,145.8 161.5,145.8 162.6,150.0 163.6,150.0 164.6,150.0 165.7,150.0 166.7,150.0 167.7,150.0 168.8,150.0 169.8,153.2 170.8,153.2 171.9,153.2 172.9,153.2 173.9,153.2 175.0,153.2 176.0,152.8 177.0,152.8 178.1,152.8 179.1,152.8 180.1,152.8 181.2,152.8 182.2,152.8 183.2,144.8 184.3,144.8 185.3,144.8 186.3,144.8 187.4,144.8 188.4,144.8 189.4,144.8 190.5,143.1 191.5,143.1 192.5,143.1 193.6,143.1 194.6,143.1 195.6,143.1 196.7,151.7 197.7,151.7 198.7,151.7 199.8,151.7 200.8,151.7 201.8,151.7 202.9,151.7 203.9,152.0 204.9,152.0 206.0,152.0 207.0,152.0 208.0,152.0 209.1,152.0 210.1,152.0 211.1,152.8 212.2,152.8 213.2,152.8 214.2,152.8 215.3,152.8 216.3,152.8 217.3,156.2 218.4,156.1 219.4,156.1 220.4,156.1 221.5,156.1 222.5,156.1 223.5,156.1 224.6,151.1 225.6,151.1 226.6,151.1 227.7,151.1 228.7,151.1 229.7,151.1 230.8,151.1 231.8,147.3 232.8,147.3 233.9,147.3 234.9,147.3 235.9,147.3 237.0,147.3 238.0,150.0 239.0,150.1 240.1,150.1 241.1,150.1 242.1,150.1 243.2,150.1 244.2,150.1 245.2,150.5 246.3,150.5 247.3,150.5 248.3,150.5 249.4,150.5 250.4,150.5 251.4,150.5 252.5,150.9 253.5,150.9 254.5,150.9 255.6,150.9 256.6,150.9 257.6,150.9 258.7,153.3 259.7,153.3 260.7,153.3 261.8,153.3 262.8,153.3 263.8,153.3 264.9,153.3 265.9,149.4 266.9,149.4 268.0,149.4 269.0,149.4 270.0,149.4 271.1,149.4 272.1,149.4 273.1,147.3 274.2,147.3 275.2,147.3 276.2,147.3 277.3,147.3 278.3,147.3 279.3,150.4 280.4,150.1 281.4,150.1 282.4,150.1 283.5,150.1 284.5,150.1 285.5,150.1 286.6,149.5 287.6,149.5 288.6,149.5 289.7,149.5 290.7,149.5 291.7,149.5 292.8,149.5 293.8,149.8 294.8,149.8 295.9,149.8 296.9,149.8 297.9,149.8 299.0,149.8 300.0,149.6 301.0,149.6 302.1,149.6 303.1,149.6 304.1,149.6 305.2,149.6 306.2,149.6 307.2,150.6 308.3,150.6 309.3,150.6 310.3,150.6 311.4,150.6 312.4,150.6 313.4,150.6 314.5,152.3 315.5,152.3 316.5,152.3 317.6,152.3 318.6,152.3 319.6,152.3 320.7,150.8 321.7,150.8 322.7,150.8 323.8,150.8 324.8,150.8 325.8,150.8 326.9,150.8 327.9,151.4 328.9,151.4 330.0,151.4 331.0,151.4 332.0,151.4 333.1,151.4 334.1,151.4 335.1,153.6 336.2,153.6 337.2,153.6 338.2,153.6 339.3,153.6 340.3,153.6 341.3,153.6 342.4,153.7 343.4,153.7 344.4,153.7 345.5,153.7 346.5,153.7 347.5,153.7 348.6,152.3 349.6,152.3 350.6,152.3 351.7,152.3 352.7,152.3 353.7,152.3 354.8,152.3 355.8,150.3 356.8,150.3 357.9,150.3 358.9,150.3 359.9,150.3 361.0,150.3 362.0,149.5 363.0,149.5 364.1,149.5 365.1,149.5 366.1,149.5 367.2,149.5 368.2,149.5 369.2,150.3 370.3,150.3 371.3,150.3 372.3,150.3 373.4,150.3 374.4,150.3 375.4,150.3 376.5,149.9 377.5,149.9 378.5,149.9 379.6,149.9 380.6,149.9 381.6,149.9 382.7,149.1 383.7,149.1 384.7,149.1 385.8,149.1 386.8,149.1 387.8,149.1 388.9,149.1 389.9,149.3 390.9,149.3 392.0,149.3 393.0,149.3 394.0,149.3 395.1,149.3 396.1,149.3 397.1,149.5 398.2,149.5 399.2,149.5 400.2,149.5 401.3,149.5 402.3,149.5 403.3,148.6 404.4,148.6 405.4,148.6 406.4,148.6 407.5,148.6 408.5,148.6 409.5,148.6 410.6,148.7 411.6,148.7 412.6,148.7 413.7,148.7 414.7,148.7 415.7,148.7 416.8,148.7 417.8,147.6 418.8,147.6 419.9,147.6 420.9,147.6 421.9,147.6 423.0,147.6 424.0,147.5 425.0,147.5 426.1,147.5 427.1,147.5 428.1,147.5 429.2,147.5 430.2,147.5 431.2,147.4 432.3,147.4 433.3,147.4 434.3,147.4 435.4,147.4 436.4,147.4 437.4,147.4 438.5,146.6 439.5,146.6 440.5,146.6 441.6,146.6 442.6,146.6 443.6,146.6 444.7,147.6 445.7,147.6 446.7,147.6 447.8,147.6 448.8,147.6 449.8,147.6 450.9,147.6 451.9,146.6 452.9,146.6 454.0,146.6 455.0,146.6 456.0,146.6 457.1,146.6 458.1,146.6 459.1,148.0 460.2,148.0 461.2,148.0 462.2,148.0 463.3,148.0 464.3,148.0 465.3,149.0 466.4,149.0 467.4,149.0 468.4,149.0 469.5,149.0 470.5,149.0 471.5,149.0 472.6,148.9 473.6,148.9 474.6,148.9 475.7,148.9 476.7,148.9 477.7,148.9 478.8,148.9 479.8,149.8 480.8,149.8 481.9,149.8 482.9,149.8 483.9,149.8 485.0,149.8 486.0,149.4 487.0,149.5 488.1,149.5 489.1,149.5 490.1,149.5 491.2,149.5 492.2,149.5 493.2,149.0 494.3,149.0 495.3,149.0 496.3,149.0 497.4,149.0 498.4,149.0 499.4,149.0 500.5,149.0 501.5,149.0 502.5,149.0 503.6,149.0 504.6,149.0 505.6,149.0 506.7,149.5 507.7,149.5 508.7,149.5 509.8,149.5 510.8,149.5 511.8,149.5 512.9,149.5 513.9,149.3 514.9,149.3 516.0,149.3 517.0,149.3 518.0,149.3 519.1,149.3 520.1,149.3 521.1,149.7 522.2,149.7 523.2,149.7 524.2,149.7 525.3,149.7 526.3,149.7 527.3,149.2 528.4,149.2 529.4,149.2 530.4,149.2 531.5,149.2 532.5,149.2 533.5,149.2 534.6,148.0 535.6,148.0 536.6,148.0 537.7,148.0 538.7,148.0 539.7,148.0 540.8,148.0 541.8,148.6 542.8,148.6 543.9,148.6 544.9,148.6 545.9,148.6 547.0,148.6 548.0,149.1 549.0,149.1 550.1,149.1 551.1,149.1 552.1,149.1 553.2,149.1 554.2,149.1 555.2,149.8 556.3,149.8 557.3,149.8 558.3,149.8 559.4,149.8 560.4,149.8 561.4,149.8 562.5,150.1 563.5,150.1 564.5,150.1 565.6,150.1 566.6,150.1 567.6,150.1 568.7,149.2 569.7,149.1 570.7,149.1 571.8,149.1 572.8,149.1 573.8,149.1 574.9,149.1 575.9,149.4 576.9,149.4 578.0,149.4 579.0,149.4 580.0,149.4 581.1,149.4 582.1,149.4 583.1,149.7 584.2,149.7 585.2,149.7 586.2,149.7 587.3,149.7 588.3,149.7 589.3,149.5 590.4,149.4 591.4,149.4 592.4,149.4 593.5,149.4 594.5,149.4 595.5,149.4 596.6,149.5 597.6,149.5 598.6,149.5 599.7,149.5 600.7,149.5 601.7,149.5 602.8,149.5 603.8,149.4 604.8,149.4 605.9,149.4 606.9,149.4 607.9,149.4 609.0,149.4 610.0,149.8 611.0,149.8 612.1,149.8 613.1,149.8 614.1,149.8 615.2,149.8 616.2,149.8 617.2,149.2 618.3,149.2 619.3,149.2 620.3,149.2 621.4,149.2 622.4,149.2 623.4,149.2 624.5,149.1 625.5,149.1 626.5,149.1 627.6,149.1 628.6,149.1 629.6,149.1 630.7,148.0 631.7,148.2 632.7,148.2 633.8,148.2 634.8,148.2 635.8,148.2 636.9,148.2 637.9,147.3 638.9,147.3 640.0,147.3 641.0,147.3 642.0,147.3 643.1,147.3 644.1,147.3 645.1,147.2 646.2,147.2 647.2,147.2 648.2,147.2 649.3,147.2 650.3,147.2 651.3,146.4 652.4,146.6 653.4,146.6 654.4,146.6 655.5,146.6 656.5,146.6 657.5,146.6 658.6,146.9 659.6,146.9 660.6,146.9 661.7,146.9 662.7,146.9 663.7,146.9 664.8,146.9 665.8,146.9 666.8,146.9 667.9,146.9 668.9,146.9 669.9,146.9 671.0,146.9 672.0,146.5 673.0,146.4 674.1,146.4 675.1,146.4 676.1,146.4 677.2,146.4 678.2,146.4 679.2,147.2 680.3,147.2 681.3,147.2 682.3,147.2 683.4,147.2 684.4,147.2 685.4,147.2 686.5,147.0 687.5,147.0 688.5,147.0 689.6,147.0 690.6,147.0 691.6,147.0 692.7,147.3 693.7,147.3 694.7,147.3 695.8,147.3 696.8,147.3 697.8,147.3 698.9,147.3 699.9,148.0 700.9,148.0 702.0,148.0 703.0,148.0 704.0,148.0 705.1,148.0 706.1,148.0 707.1,147.2 708.2,147.2 709.2,147.2 710.2,147.2 711.3,147.2 712.3,147.2 713.3,148.0 714.4,148.0 715.4,148.0 716.4,148.0 717.5,148.0 718.5,148.0 719.5,148.0 720.6,147.2 721.6,147.2 722.6,147.2 723.7,147.1 724.7,147.1 725.7,147.1 726.8,147.1 727.8,146.5 728.8,146.5 729.9,146.5 730.9,146.5 731.9,146.5 733.0,146.5 734.0,146.7 735.0,146.8 736.1,146.8 737.1,146.8 738.1,146.8 739.2,146.8 740.2,146.8 741.2,145.6 742.3,145.6 743.3,145.6 744.3,145.6 745.4,145.6 746.4,145.6 747.4,145.6 748.5,145.0 749.5,145.0 750.5,145.0 751.6,145.0 752.6,145.0 753.6,145.0 754.7,146.2 755.7,146.3 756.7,146.3 757.8,146.3 758.8,146.3 759.8,146.3 760.9,146.3 761.9,145.1 762.9,145.1 764.0,145.1 765.0,145.1 766.0,145.1 767.1,145.1 768.1,145.1 769.1,145.9 770.2,145.9 771.2,145.9 772.2,145.9 773.3,145.9 774.3,145.9 775.3,146.6 776.4,146.4 777.4,146.4 778.4,146.4 779.5,146.4 780.5,146.4 781.5,146.4 782.6,145.7 783.6,145.7 784.6,145.7 785.7,145.7 786.7,145.7 787.7,145.7 788.8,145.7 789.8,146.0 790.8,146.0 791.9,146.0 792.9,146.0 793.9,146.0 795.0,146.0 796.0,147.3"/>
<text x="640" y="72" font-family="Arial" font-size="12" fill="#2563eb">bay</text>
<polyline fill="none" stroke="#b45309" stroke-width="2.3" points="52.0,132.3 53.0,132.3 54.1,132.3 55.1,132.3 56.1,132.3 57.2,128.6 58.2,128.6 59.2,89.0 60.3,89.0 61.3,89.0 62.3,91.5 63.4,91.5 64.4,91.5 65.4,91.5 66.5,78.2 67.5,81.9 68.5,81.9 69.6,81.9 70.6,81.9 71.6,81.9 72.7,202.2 73.7,202.2 74.7,202.2 75.8,202.2 76.8,202.2 77.8,199.6 78.9,199.6 79.9,274.0 80.9,274.0 82.0,274.0 83.0,271.9 84.0,271.9 85.1,271.9 86.1,271.9 87.1,194.6 88.2,191.9 89.2,191.9 90.2,191.9 91.3,191.9 92.3,191.9 93.3,257.4 94.4,259.8 95.4,259.8 96.4,259.8 97.5,259.8 98.5,251.3 99.5,251.3 100.6,197.9 101.6,197.9 102.6,197.9 103.7,198.6 104.7,198.6 105.7,198.6 106.8,198.6 107.8,159.7 108.8,154.5 109.9,154.5 110.9,154.5 111.9,154.5 113.0,154.5 114.0,144.0 115.0,144.0 116.1,144.0 117.1,144.0 118.1,144.0 119.2,149.3 120.2,149.3 121.2,124.6 122.3,124.6 123.3,124.6 124.3,124.5 125.4,124.5 126.4,124.5 127.4,124.5 128.5,109.4 129.5,110.5 130.5,110.5 131.6,110.5 132.6,110.5 133.6,110.5 134.7,134.7 135.7,135.3 136.7,135.3 137.8,135.3 138.8,135.3 139.8,135.0 140.9,135.0 141.9,135.5 142.9,135.5 144.0,135.5 145.0,133.3 146.0,133.3 147.1,133.3 148.1,133.3 149.1,117.4 150.2,118.7 151.2,118.7 152.2,118.7 153.3,118.7 154.3,118.7 155.3,113.2 156.4,112.8 157.4,112.8 158.4,112.8 159.5,112.8 160.5,113.5 161.5,113.5 162.6,119.4 163.6,119.4 164.6,119.4 165.7,117.1 166.7,117.1 167.7,117.1 168.8,117.1 169.8,118.6 170.8,118.8 171.9,118.8 172.9,118.8 173.9,118.8 175.0,118.8 176.0,111.7 177.0,111.7 178.1,111.7 179.1,111.7 180.1,111.7 181.2,111.7 182.2,111.7 183.2,109.7 184.3,109.7 185.3,109.7 186.3,111.6 187.4,111.6 188.4,111.6 189.4,111.6 190.5,112.4 191.5,114.3 192.5,114.3 193.6,114.3 194.6,114.3 195.6,114.3 196.7,117.0 197.7,117.0 198.7,117.0 199.8,117.0 200.8,117.0 201.8,117.6 202.9,117.6 203.9,115.7 204.9,115.7 206.0,115.7 207.0,115.9 208.0,115.9 209.1,115.9 210.1,115.9 211.1,118.1 212.2,117.8 213.2,117.8 214.2,117.8 215.3,117.8 216.3,117.8 217.3,114.2 218.4,114.5 219.4,114.5 220.4,114.5 221.5,114.5 222.5,113.8 223.5,113.8 224.6,115.3 225.6,115.3 226.6,115.3 227.7,116.8 228.7,116.8 229.7,116.8 230.8,116.8 231.8,113.4 232.8,114.3 233.9,114.3 234.9,114.3 235.9,114.3 237.0,114.3 238.0,109.6 239.0,109.6 240.1,109.6 241.1,109.6 242.1,109.6 243.2,110.9 244.2,110.9 245.2,107.9 246.3,107.9 247.3,107.9 248.3,108.1 249.4,108.1 250.4,108.1 251.4,108.1 252.5,111.1 253.5,112.1 254.5,112.1 255.6,112.1 256.6,112.1 257.6,112.1 258.7,113.5 259.7,113.5 260.7,113.5 261.8,113.5 262.8,113.5 263.8,113.7 264.9,113.7 265.9,114.6 266.9,114.6 268.0,114.6 269.0,114.2 270.0,114.2 271.1,114.2 272.1,114.2 273.1,117.2 274.2,118.3 275.2,118.3 276.2,118.3 277.3,118.3 278.3,118.3 279.3,117.8 280.4,117.7 281.4,117.7 282.4,117.7 283.5,117.7 284.5,118.4 285.5,118.4 286.6,117.2 287.6,117.2 288.6,117.2 289.7,116.9 290.7,116.9 291.7,116.9 292.8,116.9 293.8,119.5 294.8,119.5 295.9,119.5 296.9,119.5 297.9,119.5 299.0,119.5 300.0,118.3 301.0,118.3 302.1,118.3 303.1,118.3 304.1,118.3 305.2,118.3 306.2,118.3 307.2,120.1 308.3,120.1 309.3,120.1 310.3,120.9 311.4,120.9 312.4,120.9 313.4,120.9 314.5,119.5 315.5,119.4 316.5,119.4 317.6,119.4 318.6,119.4 319.6,119.4 320.7,120.7 321.7,120.7 322.7,120.7 323.8,120.7 324.8,120.7 325.8,120.5 326.9,120.5 327.9,119.5 328.9,119.5 330.0,119.5 331.0,120.2 332.0,120.2 333.1,120.2 334.1,120.2 335.1,122.5 336.2,122.5 337.2,122.5 338.2,122.5 339.3,122.5 340.3,122.5 341.3,123.6 342.4,123.5 343.4,123.5 344.4,123.5 345.5,123.5 346.5,123.1 347.5,123.1 348.6,120.8 349.6,120.8 350.6,120.8 351.7,120.1 352.7,120.1 353.7,120.1 354.8,120.1 355.8,121.6 356.8,122.1 357.9,122.1 358.9,122.1 359.9,122.1 361.0,122.1 362.0,119.8 363.0,119.8 364.1,119.8 365.1,119.8 366.1,119.8 367.2,119.3 368.2,119.3 369.2,119.5 370.3,119.5 371.3,119.5 372.3,119.0 373.4,119.0 374.4,119.0 375.4,119.0 376.5,119.6 377.5,120.0 378.5,120.0 379.6,120.0 380.6,120.0 381.6,120.0 382.7,119.7 383.7,119.7 384.7,119.7 385.8,119.7 386.8,119.7 387.8,119.6 388.9,119.6 389.9,119.5 390.9,119.5 392.0,119.5 393.0,119.4 394.0,119.4 395.1,119.4 396.1,119.4 397.1,118.8 398.2,118.2 399.2,118.2 400.2,118.2 401.3,118.2 402.3,118.2 403.3,118.8 404.4,118.8 405.4,118.8 406.4,118.8 407.5,118.8 408.5,118.7 409.5,118.7 410.6,118.8 411.6,118.8 412.6,118.8 413.7,118.4 414.7,118.4 415.7,118.4 416.8,118.4 417.8,119.4 418.8,119.3 419.9,119.3 420.9,119.3 421.9,119.3 423.0,119.3 424.0,118.5 425.0,118.5 426.1,118.5 427.1,118.5 428.1,118.5 429.2,118.9 430.2,118.9 431.2,118.5 432.3,118.5 433.3,118.5 434.3,118.8 435.4,118.8 436.4,118.8 437.4,118.8 438.5,119.6 439.5,119.5 440.5,119.5 441.6,119.5 442.6,119.5 443.6,119.5 444.7,120.5 445.7,120.5 446.7,120.5 447.8,120.5 448.8,120.5 449.8,120.4 450.9,120.4 451.9,119.4 452.9,119.4 454.0,119.4 455.0,119.1 456.0,119.1 457.1,119.1 458.1,119.1 459.1,119.7 460.2,119.2 461.2,119.2 462.2,119.2 463.3,119.2 464.3,119.2 465.3,119.3 466.4,119.3 467.4,119.3 468.4,119.3 469.5,119.3 470.5,119.3 471.5,119.3 472.6,120.0 473.6,120.0 474.6,120.0 475.7,120.2 476.7,120.2 477.7,120.2 478.8,120.2 479.8,119.2 480.8,119.5 481.9,119.5 482.9,119.5 483.9,119.5 485.0,119.5 486.0,119.5 487.0,119.5 488.1,119.5 489.1,119.5 490.1,119.5 491.2,119.8 492.2,119.8 493.2,120.8 494.3,120.8 495.3,120.8 496.3,121.1 497.4,121.1 498.4,121.1 499.4,121.1 500.5,120.8 501.5,120.9 502.5,120.9 503.6,120.9 504.6,120.9 505.6,120.9 506.7,120.2 507.7,120.2 508.7,120.2 509.8,120.2 510.8,120.2 511.8,119.7 512.9,119.7 513.9,120.2 514.9,120.2 516.0,120.2 517.0,120.2 518.0,120.2 519.1,120.2 520.1,120.2 521.1,120.8 522.2,120.5 523.2,120.5 524.2,120.5 525.3,120.5 526.3,120.5 527.3,121.1 528.4,121.1 529.4,121.1 530.4,121.1 531.5,121.1 532.5,120.8 533.5,120.8 534.6,119.9 535.6,119.9 536.6,119.9 537.7,120.2 538.7,120.2 539.7,120.2 540.8,120.2 541.8,120.9 542.8,121.3 543.9,121.3 544.9,121.3 545.9,121.3 547.0,121.3 548.0,122.1 549.0,122.1 550.1,122.1 551.1,122.1 552.1,122.1 553.2,122.0 554.2,122.0 555.2,121.9 556.3,121.9 557.3,121.9 558.3,121.8 559.4,121.8 560.4,121.8 561.4,121.8 562.5,121.6 563.5,121.4 564.5,121.4 565.6,121.4 566.6,121.4 567.6,121.4 568.7,121.5 569.7,121.3 570.7,121.3 571.8,121.3 572.8,121.3 573.8,121.4 574.9,121.4 575.9,120.7 576.9,120.7 578.0,120.7 579.0,120.7 580.0,120.7 581.1,120.7 582.1,120.7 583.1,120.6 584.2,120.7 585.2,120.7 586.2,120.7 587.3,120.7 588.3,120.7 589.3,119.9 590.4,119.9 591.4,119.9 592.4,119.9 593.5,119.9 594.5,119.7 595.5,119.7 596.6,119.1 597.6,119.1 598.6,119.1 599.7,119.5 600.7,119.5 601.7,119.5 602.8,119.5 603.8,120.2 604.8,120.5 605.9,120.5 606.9,120.5 607.9,120.5 609.0,120.5 610.0,120.3 611.0,120.3 612.1,120.3 613.1,120.3 614.1,120.3 615.2,119.9 616.2,119.9 617.2,119.9 618.3,119.9 619.3,119.9 620.3,119.7 621.4,119.7 622.4,119.7 623.4,119.7 624.5,120.0 625.5,120.2 626.5,120.2 627.6,120.2 628.6,120.2 629.6,120.2 630.7,120.0 631.7,120.0 632.7,120.0 633.8,120.0 634.8,120.0 635.8,120.0 636.9,120.0 637.9,120.6 638.9,120.6 640.0,120.6 641.0,120.6 642.0,120.6 643.1,120.6 644.1,120.6 645.1,120.4 646.2,120.1 647.2,120.1 648.2,120.1 649.3,120.1 650.3,120.1 651.3,118.9 652.4,118.8 653.4,118.8 654.4,118.8 655.5,118.8 656.5,119.1 657.5,119.1 658.6,119.6 659.6,119.6 660.6,119.6 661.7,119.5 662.7,119.5 663.7,119.5 664.8,119.5 665.8,119.3 666.8,118.9 667.9,118.9 668.9,118.9 669.9,118.9 671.0,118.9 672.0,118.8 673.0,118.8 674.1,118.8 675.1,118.8 676.1,118.8 677.2,118.6 678.2,118.6 679.2,118.8 680.3,118.8 681.3,118.8 682.3,118.9 683.4,118.9 684.4,118.9 685.4,118.9 686.5,118.8 687.5,119.1 688.5,119.1 689.6,119.1 690.6,119.1 691.6,119.1 692.7,119.9 693.7,119.9 694.7,119.9 695.8,119.9 696.8,119.9 697.8,120.1 698.9,120.1 699.9,120.6 700.9,120.6 702.0,120.6 703.0,120.9 704.0,120.9 705.1,120.9 706.1,120.9 707.1,120.8 708.2,120.6 709.2,120.6 710.2,120.6 711.3,120.6 712.3,120.6 713.3,120.0 714.4,120.0 715.4,120.0 716.4,120.0 717.5,120.0 718.5,120.0 719.5,120.0 720.6,120.3 721.6,120.3 722.6,120.3 723.7,120.0 724.7,120.0 725.7,120.0 726.8,120.0 727.8,119.0 728.8,119.2 729.9,119.2 730.9,119.2 731.9,119.2 733.0,119.2 734.0,120.2 735.0,120.3 736.1,120.3 737.1,120.3 738.1,120.3 739.2,120.4 740.2,120.4 741.2,119.6 742.3,119.6 743.3,119.6 744.3,119.6 745.4,119.6 746.4,119.6 747.4,119.6 748.5,119.9 749.5,120.2 750.5,120.2 751.6,120.2 752.6,120.2 753.6,120.2 754.7,119.0 755.7,119.0 756.7,119.0 757.8,119.0 758.8,119.0 759.8,118.9 760.9,118.9 761.9,119.2 762.9,119.2 764.0,119.2 765.0,119.1 766.0,119.1 767.1,119.1 768.1,119.1 769.1,119.0 770.2,119.0 771.2,119.0 772.2,119.0 773.3,119.0 774.3,119.0 775.3,118.9 776.4,118.9 777.4,118.9 778.4,118.9 779.5,118.9 780.5,119.3 781.5,119.3 782.6,120.0 783.6,120.0 784.6,120.0 785.7,119.7 786.7,119.7 787.7,119.7 788.8,119.7 789.8,120.3 790.8,120.4 791.9,120.4 792.9,120.4 793.9,120.4 795.0,120.4 796.0,119.8"/>
<text x="640" y="88" font-family="Arial" font-size="12" fill="#b45309">baz</text>
</svg>