<svg xmlns="http://www.w3.org/2000/svg" width="820" height="320" viewBox="0 0 820 320">
<rect width="100%" height="100%" fill="white"/>
<text x="52" y="30" font-family="Arial" font-size="18" font-weight="700">adaptive_dropout_robust accelerometer bias estimates</text>
<line x1="52" y1="274" x2="796" y2="274" stroke="#263238"/>
<line x1="52" y1="42" x2="52" y2="274" stroke="#263238"/>
<text x="52" y="306" font-family="Arial" font-size="12">time (s)</text>
<text x="630" y="306" font-family="Arial" font-size="12">m/s^2</text>

<polyline fill="none" stroke="#0f766e" stroke-width="2.3" points="52.0,128.4 53.0,128.4 54.1,128.4 55.1,128.4 56.1,128.4 57.2,128.4 58.2,128.4 59.2,107.1 60.3,107.1 61.3,107.1 62.3,107.1 63.4,107.1 64.4,107.1 65.4,107.1 66.5,203.2 67.5,203.2 68.5,203.2 69.6,203.2 70.6,203.2 71.6,203.2 72.7,114.1 73.7,114.1 74.7,114.1 75.8,114.1 76.8,114.1 77.8,114.1 78.9,114.1 79.9,51.3 80.9,51.3 82.0,51.3 83.0,51.3 84.0,51.3 85.1,51.3 86.1,51.3 87.1,167.0 88.2,167.0 89.2,167.0 90.2,167.0 91.3,167.0 92.3,167.0 93.3,131.3 94.4,131.8 95.4,131.8 96.4,131.8 97.5,131.8 98.5,131.8 99.5,131.8 100.6,131.7 101.6,131.7 102.6,131.7 103.7,131.7 104.7,131.7 105.7,131.7 106.8,131.7 107.8,121.5 108.8,121.5 109.9,121.5 110.9,121.5 111.9,121.5 113.0,121.5 114.0,107.0 115.0,107.0 116.1,107.0 117.1,107.0 118.1,107.0 119.2,107.0 120.2,107.0 121.2,59.1 122.3,59.1 123.3,59.1 124.3,59.1 125.4,59.1 126.4,59.1 127.4,59.1 128.5,103.5 129.5,103.5 130.5,103.5 131.6,103.5 132.6,103.5 133.6,103.5 134.7,91.5 135.7,90.5 136.7,90.5 137.8,90.5 138.8,90.5 139.8,90.5 140.9,90.5 141.9,91.3 142.9,91.3 144.0,91.3 145.0,91.3 146.0,91.3 147.1,91.3 148.1,91.3 149.1,80.1 150.2,80.1 151.2,80.1 152.2,80.1 153.3,80.1 154.3,80.1 155.3,86.5 156.4,85.4 157.4,85.4 158.4,85.4 159.5,85.4 160.5,85.4 161.5,85.4 162.6,85.0 163.6,85.0 164.6,85.0 165.7,85.0 166.7,85.0 167.7,85.0 168.8,85.0 169.8,106.1 170.8,106.1 171.9,106.1 172.9,106.1 173.9,106.1 175.0,106.1 176.0,109.7 177.0,109.7 178.1,109.7 179.1,109.7 180.1,109.7 181.2,109.7 182.2,109.7 183.2,98.3 184.3,98.3 185.3,98.3 186.3,98.3 187.4,98.3 188.4,98.3 189.4,98.3 190.5,100.7 191.5,100.7 192.5,100.7 193.6,100.7 194.6,100.7 195.6,100.7 196.7,113.4 197.7,113.4 198.7,113.4 199.8,113.4 200.8,113.4 201.8,113.4 202.9,113.4 203.9,108.5 204.9,108.5 206.0,108.5 207.0,108.5 208.0,108.5 209.1,108.5 210.1,108.5 211.1,101.7 212.2,101.7 213.2,101.7 214.2,101.7 215.3,101.7 216.3,101.7 217.3,98.2 218.4,97.6 219.4,97.6 220.4,97.6 221.5,97.6 222.5,97.6 223.5,97.6 224.6,98.1 225.6,98.1 226.6,98.1 227.7,98.1 228.7,98.1 229.7,98.1 230.8,98.1 231.8,100.6 232.8,100.6 233.9,100.6 234.9,100.6 235.9,100.6 237.0,100.6 238.0,103.2 239.0,103.4 240.1,103.4 241.1,103.4 242.1,103.4 243.2,103.4 244.2,103.4 245.2,113.6 246.3,113.6 247.3,113.6 248.3,113.6 249.4,113.6 250.4,113.6 251.4,113.6 252.5,117.2 253.5,117.2 254.5,117.2 255.6,117.2 256.6,117.2 257.6,117.2 258.7,115.4 259.7,115.4 260.7,115.4 261.8,115.4 262.8,115.4 263.8,115.4 264.9,115.4 265.9,115.7 266.9,115.7 268.0,115.7 269.0,115.7 270.0,115.7 271.1,115.7 272.1,115.7 273.1,115.7 274.2,115.7 275.2,115.7 276.2,115.7 277.3,115.7 278.3,115.7 279.3,114.4 280.4,114.1 281.4,114.1 282.4,114.1 283.5,114.1 284.5,114.1 285.5,114.1 286.6,110.5 287.6,110.5 288.6,110.5 289.7,110.5 290.7,110.5 291.7,110.5 292.8,110.5 293.8,111.6 294.8,111.6 295.9,111.6 296.9,111.6 297.9,111.6 299.0,111.6 300.0,110.9 301.0,110.9 302.1,110.9 303.1,110.9 304.1,110.9 305.2,110.9 306.2,110.9 307.2,106.8 308.3,106.8 309.3,106.8 310.3,106.8 311.4,106.8 312.4,106.8 313.4,106.8 314.5,104.4 315.5,104.4 316.5,104.4 317.6,104.4 318.6,104.4 319.6,104.4 320.7,108.7 321.7,108.7 322.7,108.7 323.8,108.7 324.8,108.7 325.8,108.7 326.9,108.7 327.9,106.7 328.9,106.7 330.0,106.7 331.0,106.7 332.0,106.7 333.1,106.7 334.1,106.7 335.1,108.0 336.2,108.0 337.2,108.0 338.2,108.0 339.3,108.0 340.3,108.0 341.3,105.4 342.4,104.5 343.4,104.5 344.4,104.5 345.5,104.5 346.5,104.5 347.5,104.5 348.6,107.1 349.6,107.1 350.6,107.1 351.7,107.1 352.7,107.1 353.7,107.1 354.8,107.1 355.8,109.5 356.8,109.5 357.9,109.5 358.9,109.5 359.9,109.5 361.0,109.5 362.0,110.1 363.0,110.1 364.1,110.1 365.1,110.1 366.1,110.1 367.2,110.1 368.2,110.1 369.2,107.5 370.3,107.5 371.3,107.5 372.3,107.5 373.4,107.5 374.4,107.5 375.4,107.5 376.5,107.5 377.5,107.5 378.5,107.5 379.6,107.5 380.6,107.5 381.6,107.5 382.7,107.3 383.7,107.3 384.7,107.3 385.8,107.3 386.8,107.3 387.8,107.3 388.9,107.3 389.9,107.1 390.9,107.1 392.0,107.1 393.0,107.1 394.0,107.1 395.1,107.1 396.1,107.1 397.1,109.0 398.2,109.0 399.2,109.0 400.2,109.0 401.3,109.0 402.3,109.0 403.3,108.9 404.4,108.9 405.4,108.9 406.4,108.9 407.5,108.9 408.5,108.9 409.5,108.9 410.6,108.8 411.6,108.8 412.6,108.8 413.7,108.8 414.7,108.8 415.7,108.8 416.8,108.8 417.8,107.9 418.8,107.9 419.9,107.9 420.9,107.9 421.9,107.9 423.0,107.9 424.0,108.4 425.0,108.4 426.1,108.4 427.1,108.4 428.1,108.4 429.2,108.4 430.2,108.4 431.2,106.9 432.3,106.9 433.3,106.9 434.3,106.9 435.4,106.9 436.4,106.9 437.4,106.9 438.5,101.1 439.5,101.1 440.5,101.1 441.6,101.1 442.6,101.1 443.6,101.1 444.7,105.3 445.7,105.3 446.7,105.3 447.8,105.3 448.8,105.3 449.8,105.3 450.9,105.3 451.9,108.7 452.9,108.7 454.0,108.7 455.0,108.7 456.0,108.7 457.1,108.7 458.1,108.7 459.1,107.5 460.2,107.5 461.2,107.5 462.2,107.5 463.3,107.5 464.3,107.5 465.3,110.8 466.4,110.8 467.4,110.8 468.4,110.8 469.5,110.8 470.5,110.8 471.5,110.8 472.6,110.3 473.6,110.3 474.6,110.3 475.7,110.3 476.7,110.3 477.7,110.3 478.8,110.3 479.8,106.2 480.8,106.2 481.9,106.2 482.9,106.2 483.9,106.2 485.0,106.2 486.0,107.1 487.0,107.1 488.1,107.1 489.1,107.1 490.1,107.1 491.2,107.1 492.2,107.1 493.2,110.9 494.3,110.9 495.3,110.9 496.3,110.9 497.4,110.9 498.4,110.9 499.4,110.9 500.5,109.7 501.5,109.7 502.5,109.7 503.6,109.7 504.6,109.7 505.6,109.7 506.7,110.6 507.7,110.6 508.7,110.6 509.8,110.6 510.8,110.6 511.8,110.6 512.9,110.6 513.9,108.5 514.9,108.5 516.0,108.5 517.0,108.5 518.0,108.5 519.1,108.5 520.1,108.5 521.1,105.3 522.2,105.3 523.2,105.3 524.2,105.3 525.3,105.3 526.3,105.3 527.3,105.9 528.4,105.9 529.4,105.9 530.4,105.9 531.5,105.9 532.5,105.9 533.5,105.9 534.6,106.8 535.6,106.8 536.6,106.8 537.7,106.8 538.7,106.8 539.7,106.8 540.8,106.8 541.8,109.9 542.8,109.9 543.9,109.9 544.9,109.9 545.9,109.9 547.0,109.9 548.0,109.7 549.0,109.7 550.1,109.7 551.1,109.7 552.1,109.7 553.2,109.7 554.2,109.7 555.2,107.1 556.3,107.1 557.3,107.1 558.3,107.1 559.4,107.1 560.4,107.1 561.4,107.1 562.5,108.3 563.5,108.3 564.5,108.3 565.6,108.3 566.6,108.3 567.6,108.3 568.7,110.8 569.7,110.7 570.7,110.7 571.8,110.7 572.8,110.7 573.8,110.7 574.9,110.7 575.9,109.8 576.9,109.8 578.0,109.8 579.0,109.8 580.0,109.8 581.1,109.8 582.1,109.8 583.1,112.2 584.2,112.2 585.2,112.2 586.2,112.2 587.3,112.2 588.3,112.2 589.3,112.4 590.4,112.4 591.4,112.4 592.4,112.4 593.5,112.4 594.5,112.4 595.5,112.4 596.6,110.0 597.6,110.0 598.6,110.0 599.7,110.0 600.7,110.0 601.7,110.0 602.8,110.0 603.8,106.1 604.8,106.1 605.9,106.1 606.9,106.1 607.9,106.1 609.0,106.1 610.0,106.4 611.0,106.4 612.1,106.4 613.1,106.4 614.1,106.4 615.2,106.4 616.2,106.4 617.2,101.5 618.3,101.5 619.3,101.5 620.3,101.5 621.4,101.5 622.4,101.5 623.4,101.5 624.5,102.5 625.5,102.5 626.5,102.5 627.6,102.5 628.6,102.5 629.6,102.5 630.7,103.4 631.7,103.4 632.7,103.4 633.8,103.4 634.8,103.4 635.8,103.4 636.9,103.4 637.9,103.5 638.9,103.5 640.0,103.5 641.0,103.5 642.0,103.5 643.1,103.5 644.1,103.5 645.1,105.3 646.2,105.3 647.2,105.3 648.2,105.3 649.3,105.3 650.3,105.3 651.3,105.0 652.4,104.8 653.4,104.8 654.4,104.8 655.5,104.8 656.5,104.8 657.5,104.8 658.6,108.2 659.6,108.2 660.6,108.2 661.7,108.2 662.7,108.2 663.7,108.2 664.8,108.2 665.8,109.1 666.8,109.1 667.9,109.1 668.9,109.1 669.9,109.1 671.0,109.1 672.0,105.2 673.0,105.1 674.1,105.1 675.1,105.1 676.1,105.1 677.2,105.1 678.2,105.1 679.2,108.5 680.3,108.5 681.3,108.5 682.3,108.5 683.4,108.5 684.4,108.5 685.4,108.5 686.5,108.1 687.5,108.1 688.5,108.1 689.6,108.1 690.6,108.1 691.6,108.1 692.7,103.2 693.7,103.2 694.7,103.2 695.8,103.2 696.8,103.2 697.8,103.2 698.9,103.2 699.9,103.3 700.9,103.3 702.0,103.3 703.0,103.3 704.0,103.3 705.1,103.3 706.1,103.3 707.1,107.9 708.2,107.9 709.2,107.9 710.2,107.9 711.3,107.9 712.3,107.9 713.3,110.8 714.4,110.8 715.4,110.8 716.4,110.8 717.5,110.8 718.5,110.8 719.5,110.8 720.6,113.8 721.6,113.8 722.6,113.8 723.7,113.8 724.7,113.8 725.7,113.8 726.8,113.8 727.8,109.6 728.8,109.6 729.9,109.6 730.9,109.6 731.9,109.6 733.0,109.6 734.0,110.8 735.0,110.6 736.1,110.6 737.1,110.6 738.1,110.6 739.2,110.6 740.2,110.6 741.2,118.5 742.3,118.5 743.3,118.5 744.3,118.5 745.4,118.5 746.4,118.5 747.4,118.5 748.5,113.0 749.5,113.0 750.5,113.0 751.6,113.0 752.6,113.0 753.6,113.0 754.7,114.4 755.7,114.3 756.7,114.3 757.8,114.3 758.8,114.3 759.8,114.3 760.9,114.3 761.9,105.1 762.9,105.1 764.0,105.1 765.0,105.1 766.0,105.1 767.1,105.1 768.1,105.1 769.1,104.7 770.2,104.7 771.2,104.7 772.2,104.7 773.3,104.7 774.3,104.7 775.3,108.7 776.4,108.7 777.4,108.7 778.4,108.7 779.5,108.7 780.5,108.7 781.5,108.7 782.6,105.1 783.6,105.1 784.6,105.1 785.7,105.1 786.7,105.1 787.7,105.1 788.8,105.1 789.8,100.9 790.8,100.9 791.9,100.9 792.9,100.9 793.9,100.9 795.0,100.9 796.0,101.1"/>
<text x="640" y="56" font-family="Arial" font-size="12" fill="#0f766e">bax</text>
<polyline fill="none" stroke="#2563eb" stroke-width="2.3" points="52.0,128.4 53.0,128.4 54.1,128.4 55.1,128.4 56.1,128.4 57.2,128.4 58.2,128.4 59.2,137.0 60.3,137.0 61.3,137.0 62.3,137.0 63.4,137.0 64.4,137.0 65.4,137.0 66.5,42.0 67.5,42.0 68.5,42.0 69.6,42.0 70.6,42.0 71.6,42.0 72.7,127.3 73.7,127.3 74.7,127.3 75.8,127.3 76.8,127.3 77.8,127.3 78.9,127.3 79.9,182.5 80.9,182.5 82.0,182.5 83.0,182.5 84.0,182.5 85.1,182.5 86.1,182.5 87.1,126.0 88.2,126.0 89.2,126.0 90.2,126.0 91.3,126.0 92.3,126.0 93.3,127.8 94.4,128.0 95.4,128.0 96.4,128.0 97.5,128.0 98.5,128.0 99.5,128.0 100.6,121.9 101.6,121.9 102.6,121.9 103.7,121.9 104.7,121.9 105.7,121.9 106.8,121.9 107.8,108.4 108.8,108.4 109.9,108.4 110.9,108.4 111.9,108.4 113.0,108.4 114.0,141.8 115.0,141.8 116.1,141.8 117.1,141.8 118.1,141.8 119.2,141.8 120.2,141.8 121.2,172.8 122.3,172.8 123.3,172.8 124.3,172.8 125.4,172.8 126.4,172.8 127.4,172.8 128.5,157.2 129.5,157.2 130.5,157.2 131.6,157.2 132.6,157.2 133.6,157.2 134.7,147.2 135.7,145.8 136.7,145.8 137.8,145.8 138.8,145.8 139.8,145.8 140.9,145.8 141.9,130.8 142.9,130.8 144.0,130.8 145.0,130.8 146.0,130.8 147.1,130.8 148.1,130.8 149.1,145.2 150.2,145.2 151.2,145.2 152.2,145.2 153.3,145.2 154.3,145.2 155.3,139.0 156.4,140.1 157.4,140.1 158.4,140.1 159.5,140.1 160.5,140.1 161.5,140.1 162.6,145.7 163.6,145.7 164.6,145.7 165.7,145.7 166.7,145.7 167.7,145.7 168.8,145.7 169.8,149.6 170.8,149.6 171.9,149.6 172.9,149.6 173.9,149.6 175.0,149.6 176.0,148.3 177.0,148.3 178.1,148.3 179.1,148.3 180.1,148.3 181.2,148.3 182.2,148.3 183.2,132.0 184.3,132.0 185.3,132.0 186.3,132.0 187.4,132.0 188.4,132.0 189.4,132.0 190.5,132.7 191.5,132.7 192.5,132.7 193.6,132.7 194.6,132.7 195.6,132.7 196.7,146.1 197.7,146.1 198.7,146.1 199.8,146.1 200.8,146.1 201.8,146.1 202.9,146.1 203.9,146.7 204.9,146.7 206.0,146.7 207.0,146.7 208.0,146.7 209.1,146.7 210.1,146.7 211.1,148.0 212.2,148.0 213.2,148.0 214.2,148.0 215.3,148.0 216.3,148.0 217.3,152.9 218.4,152.8 219.4,152.8 220.4,152.8 221.5,152.8 222.5,152.8 223.5,152.8 224.6,144.7 225.6,144.7 226.6,144.7 227.7,144.7 228.7,144.7 229.7,144.7 230.8,144.7 231.8,139.5 232.8,139.5 233.9,139.5 234.9,139.5 235.9,139.5 237.0,139.5 238.0,144.8 239.0,144.9 240.1,144.9 241.1,144.9 242.1,144.9 243.2,144.9 244.2,144.9 245.2,145.7 246.3,145.7 247.3,145.7 248.3,145.7 249.4,145.7 250.4,145.7 251.4,145.7 252.5,146.5 253.5,146.5 254.5,146.5 255.6,146.5 256.6,146.5 257.6,146.5 258.7,150.5 259.7,150.5 260.7,150.5 261.8,150.5 262.8,150.5 263.8,150.5 264.9,150.5 265.9,143.4 266.9,143.4 268.0,143.4 269.0,143.4 270.0,143.4 271.1,143.4 272.1,143.4 273.1,140.3 274.2,140.3 275.2,140.3 276.2,140.3 277.3,140.3 278.3,140.3 279.3,146.8 280.4,146.5 281.4,146.5 282.4,146.5 283.5,146.5 284.5,146.5 285.5,146.5 286.6,145.1 287.6,145.1 288.6,145.1 289.7,145.1 290.7,145.1 291.7,145.1 292.8,145.1 293.8,145.8 294.8,145.8 295.9,145.8 296.9,145.8 297.9,145.8 299.0,145.8 300.0,145.3 301.0,145.3 302.1,145.3 303.1,145.3 304.1,145.3 305.2,145.3 306.2,145.3 307.2,147.1 308.3,147.1 309.3,147.1 310.3,147.1 311.4,147.1 312.4,147.1 313.4,147.1 314.5,150.1 315.5,150.1 316.5,150.1 317.6,150.1 318.6,150.1 319.6,150.1 320.7,146.1 321.7,146.1 322.7,146.1 323.8,146.1 324.8,146.1 325.8,146.1 326.9,146.1 327.9,147.7 328.9,147.7 330.0,147.7 331.0,147.7 332.0,147.7 333.1,147.7 334.1,147.7 335.1,152.7 336.2,152.7 337.2,152.7 338.2,152.7 339.3,152.7 340.3,152.7 341.3,151.4 342.4,151.4 343.4,151.4 344.4,151.4 345.5,151.4 346.5,151.4 347.5,151.4 348.6,147.9 349.6,147.9 350.6,147.9 351.7,147.9 352.7,147.9 353.7,147.9 354.8,147.9 355.8,144.1 356.8,144.1 357.9,144.1 358.9,144.1 359.9,144.1 361.0,144.1 362.0,143.1 363.0,143.1 364.1,143.1 365.1,143.1 366.1,143.1 367.2,143.1 368.2,143.1 369.2,144.9 370.3,144.9 371.3,144.9 372.3,144.9 373.4,144.9 374.4,144.9 375.4,144.9 376.5,144.6 377.5,144.6 378.5,144.6 379.6,144.6 380.6,144.6 381.6,144.6 382.7,143.3 383.7,143.3 384.7,143.3 385.8,143.3 386.8,143.3 387.8,143.3 388.9,143.3 389.9,144.1 390.9,144.1 392.0,144.1 393.0,144.1 394.0,144.1 395.1,144.1 396.1,144.1 397.1,144.7 398.2,144.7 399.2,144.7 400.2,144.7 401.3,144.7 402.3,144.7 403.3,142.9 404.4,142.9 405.4,142.9 406.4,142.9 407.5,142.9 408.5,142.9 409.5,142.9 410.6,143.5 411.6,143.5 412.6,143.5 413.7,143.5 414.7,143.5 415.7,143.5 416.8,143.5 417.8,141.1 418.8,141.1 419.9,141.1 420.9,141.1 421.9,141.1 423.0,141.1 424.0,141.8 425.0,141.8 426.1,141.8 427.1,141.8 428.1,141.8 429.2,141.8 430.2,141.8 431.2,142.0 432.3,142.0 433.3,142.0 434.3,142.0 435.4,142.0 436.4,142.0 437.4,142.0 438.5,140.1 439.5,140.1 440.5,140.1 441.6,140.1 442.6,140.1 443.6,140.1 444.7,143.8 445.7,143.8 446.7,143.8 447.8,143.8 448.8,143.8 449.8,143.8 450.9,143.8 451.9,140.6 452.9,140.6 454.0,140.6 455.0,140.6 456.0,140.6 457.1,140.6 458.1,140.6 459.1,148.0 460.2,148.0 461.2,148.0 462.2,148.0 463.3,148.0 464.3,148.0 465.3,149.3 466.4,149.3 467.4,149.3 468.4,149.3 469.5,149.3 470.5,149.3 471.5,149.3 472.6,147.5 473.6,147.5 474.6,147.5 475.7,147.5 476.7,147.5 477.7,147.5 478.8,147.5 479.8,149.1 480.8,149.1 481.9,149.1 482.9,149.1 483.9,149.1 485.0,149.1 486.0,146.8 487.0,146.9 488.1,146.9 489.1,146.9 490.1,146.9 491.2,146.9 492.2,146.9 493.2,144.8 494.3,144.8 495.3,144.8 496.3,144.8 497.4,144.8 498.4,144.8 499.4,144.8 500.5,144.9 501.5,144.9 502.5,144.9 503.6,144.9 504.6,144.9 505.6,144.9 506.7,146.8 507.7,146.8 508.7,146.8 509.8,146.8 510.8,146.8 511.8,146.8 512.9,146.8 513.9,145.5 514.9,145.5 516.0,145.5 517.0,145.5 518.0,145.5 519.1,145.5 520.1,145.5 521.1,146.5 522.2,146.5 523.2,146.5 524.2,146.5 525.3,146.5 526.3,146.5 527.3,145.1 528.4,145.1 529.4,145.1 530.4,145.1 531.5,145.1 532.5,145.1 533.5,145.1 534.6,141.7 535.6,141.7 536.6,141.7 537.7,141.7 538.7,141.7 539.7,141.7 540.8,141.7 541.8,143.9 542.8,143.9 543.9,143.9 544.9,143.9 545.9,143.9 547.0,143.9 548.0,145.3 549.0,145.3 550.1,145.3 551.1,145.3 552.1,145.3 553.2,145.3 554.2,145.3 555.2,147.1 556.3,147.1 557.3,147.1 558.3,147.1 559.4,147.1 560.4,147.1 561.4,147.1 562.5,147.5 563.5,147.5 564.5,147.5 565.6,147.5 566.6,147.5 567.6,147.5 568.7,144.2 569.7,144.1 570.7,144.1 571.8,144.1 572.8,144.1 573.8,144.1 574.9,144.1 575.9,145.3 576.9,145.3 578.0,145.3 579.0,145.3 580.0,145.3 581.1,145.3 582.1,145.3 583.1,146.2 584.2,146.2 585.2,146.2 586.2,146.2 587.3,146.2 588.3,146.2 589.3,145.2 590.4,145.2 591.4,145.2 592.4,145.2 593.5,145.2 594.5,145.2 595.5,145.2 596.6,145.3 597.6,145.3 598.6,145.3 599.7,145.3 600.7,145.3 601.7,145.3 602.8,145.3 603.8,145.0 604.8,145.0 605.9,145.0 606.9,145.0 607.9,145.0 609.0,145.0 610.0,146.5 611.0,146.5 612.1,146.5 613.1,146.5 614.1,146.5 615.2,146.5 616.2,146.5 617.2,144.6 618.3,144.6 619.3,144.6 620.3,144.6 621.4,144.6 622.4,144.6 623.4,144.6 624.5,144.4 625.5,144.4 626.5,144.4 627.6,144.4 628.6,144.4 629.6,144.4 630.7,142.0 631.7,142.1 632.7,142.1 633.8,142.1 634.8,142.1 635.8,142.1 636.9,142.1 637.9,140.7 638.9,140.7 640.0,140.7 641.0,140.7 642.0,140.7 643.1,140.7 644.1,140.7 645.1,141.0 646.2,141.0 647.2,141.0 648.2,141.0 649.3,141.0 650.3,141.0 651.3,139.5 652.4,139.7 653.4,139.7 654.4,139.7 655.5,139.7 656.5,139.7 657.5,139.7 658.6,141.3 659.6,141.3 660.6,141.3 661.7,141.3 662.7,141.3 663.7,141.3 664.8,141.3 665.8,141.5 666.8,141.5 667.9,141.5 668.9,141.5 669.9,141.5 671.0,141.5 672.0,140.6 673.0,140.4 674.1,140.4 675.1,140.4 676.1,140.4 677.2,140.4 678.2,140.4 679.2,143.8 680.3,143.8 681.3,143.8 682.3,143.8 683.4,143.8 684.4,143.8 685.4,143.8 686.5,142.6 687.5,142.6 688.5,142.6 689.6,142.6 690.6,142.6 691.6,142.6 692.7,143.8 693.7,143.8 694.7,143.8 695.8,143.8 696.8,143.8 697.8,143.8 698.9,143.8 699.9,146.6 700.9,146.6 702.0,146.6 703.0,146.6 704.0,146.6 705.1,146.6 706.1,146.6 707.1,141.8 708.2,141.8 709.2,141.8 710.2,141.8 711.3,141.8 712.3,141.8 713.3,145.9 714.4,145.9 715.4,145.9 716.4,145.9 717.5,145.9 718.5,145.9 719.5,145.9 720.6,141.0 721.6,141.0 722.6,141.0 723.7,141.0 724.7,141.0 725.7,141.0 726.8,141.0 727.8,138.3 728.8,138.3 729.9,138.3 730.9,138.3 731.9,138.3 733.0,138.3 734.0,140.1 735.0,140.2 736.1,140.2 737.1,140.2 738.1,140.2 739.2,140.2 740.2,140.2 741.2,133.6 742.3,133.6 743.3,133.6 744.3,133.6 745.4,133.6 746.4,133.6 747.4,133.6 748.5,132.8 749.5,132.8 750.5,132.8 751.6,132.8 752.6,132.8 753.6,132.8 754.7,141.0 755.7,141.0 756.7,141.0 757.8,141.0 758.8,141.0 759.8,141.0 760.9,141.0 761.9,133.0 762.9,133.0 764.0,133.0 765.0,133.0 766.0,133.0 767.1,133.0 768.1,133.0 769.1,139.1 770.2,139.1 771.2,139.1 772.2,139.1 773.3,139.1 774.3,139.1 775.3,143.6 776.4,143.5 777.4,143.5 778.4,143.5 779.5,143.5 780.5,143.5 781.5,143.5 782.6,139.1 783.6,139.1 784.6,139.1 785.7,139.1 786.7,139.1 787.7,139.1 788.8,139.1 789.8,141.6 790.8,141.6 791.9,141.6 792.9,141.6 793.9,141.6 795.0,141.6 796.0,149.8"/>
<text x="640" y="72" font-family="Arial" font-size="12" fill="#2563eb">bay</text>
<polyline fill="none" stroke="#b45309" stroke-width="2.3" points="52.0,128.4 53.0,128.4 54.1,128.4 55.1,128.4 56.1,128.4 57.2,125.9 58.2,125.9 59.2,86.4 60.3,86.4 61.3,86.4 62.3,87.7 63.4,87.7 64.4,87.7 65.4,87.7 66.5,76.1 67.5,78.5 68.5,78.5 69.6,78.5 70.6,78.5 71.6,78.5 72.7,216.2 73.7,216.2 74.7,216.2 75.8,216.2 76.8,216.2 77.8,214.8 78.9,214.8 79.9,274.0 80.9,274.0 82.0,274.0 83.0,272.9 84.0,272.9 85.1,272.9 86.1,272.9 87.1,167.6 88.2,166.6 89.2,166.6 90.2,166.6 91.3,166.6 92.3,166.6 93.3,255.1 94.4,256.6 95.4,256.6 96.4,256.6 97.5,256.6 98.5,253.3 99.5,253.3 100.6,196.9 101.6,196.9 102.6,196.9 103.7,197.0 104.7,197.0 105.7,197.0 106.8,197.0 107.8,139.5 108.8,137.6 109.9,137.6 110.9,137.6 111.9,137.6 113.0,137.6 114.0,132.1 115.0,132.1 116.1,132.1 117.1,132.1 118.1,132.1 119.2,134.3 120.2,134.3 121.2,112.5 122.3,112.5 123.3,112.5 124.3,112.3 125.4,112.3 126.4,112.3 127.4,112.3 128.5,99.3 129.5,99.7 130.5,99.7 131.6,99.7 132.6,99.7 133.6,99.7 134.7,131.6 135.7,132.5 136.7,132.5 137.8,132.5 138.8,132.5 139.8,132.3 140.9,132.3 141.9,132.8 142.9,132.8 144.0,132.8 145.0,131.6 146.0,131.6 147.1,131.6 148.1,131.6 149.1,111.9 150.2,112.5 151.2,112.5 152.2,112.5 153.3,112.5 154.3,112.5 155.3,107.3 156.4,106.8 157.4,106.8 158.4,106.8 159.5,106.8 160.5,107.2 161.5,107.2 162.6,116.6 163.6,116.6 164.6,116.6 165.7,115.3 166.7,115.3 167.7,115.3 168.8,115.3 169.8,117.3 170.8,117.3 171.9,117.3 172.9,117.3 173.9,117.3 175.0,117.3 176.0,106.5 177.0,106.5 178.1,106.5 179.1,106.5 180.1,106.5 181.2,106.5 182.2,106.5 183.2,105.1 184.3,105.1 185.3,105.1 186.3,106.6 187.4,106.6 188.4,106.6 189.4,106.6 190.5,109.2 191.5,110.3 192.5,110.3 193.6,110.3 194.6,110.3 195.6,110.3 196.7,114.9 197.7,114.9 198.7,114.9 199.8,114.9 200.8,114.9 201.8,115.3 202.9,115.3 203.9,112.9 204.9,112.9 206.0,112.9 207.0,113.0 208.0,113.0 209.1,113.0 210.1,113.0 211.1,116.9 212.2,116.7 213.2,116.7 214.2,116.7 215.3,116.7 216.3,116.7 217.3,106.4 218.4,106.6 219.4,106.6 220.4,106.6 221.5,106.6 222.5,106.3 223.5,106.3 224.6,110.6 225.6,110.6 226.6,110.6 227.7,111.5 228.7,111.5 229.7,111.5 230.8,111.5 231.8,107.6 232.8,108.1 233.9,108.1 234.9,108.1 235.9,108.1 237.0,108.1 238.0,102.1 239.0,102.1 240.1,102.1 241.1,102.1 242.1,102.1 243.2,103.0 244.2,103.0 245.2,100.4 246.3,100.4 247.3,100.4 248.3,100.6 249.4,100.6 250.4,100.6 251.4,100.6 252.5,108.1 253.5,109.3 254.5,109.3 255.6,109.3 256.6,109.3 257.6,109.3 258.7,113.3 259.7,113.3 260.7,113.3 261.8,113.3 262.8,113.3 263.8,113.5 264.9,113.5 265.9,114.9 266.9,114.9 268.0,114.9 269.0,114.7 270.0,114.7 271.1,114.7 272.1,114.7 273.1,119.5 274.2,120.2 275.2,120.2 276.2,120.2 277.3,120.2 278.3,120.2 279.3,118.2 280.4,118.0 281.4,118.0 282.4,118.0 283.5,118.0 284.5,118.6 285.5,118.6 286.6,115.7 287.6,115.7 288.6,115.7 289.7,115.5 290.7,115.5 291.7,115.5 292.8,115.5 293.8,120.7 294.8,120.7 295.9,120.7 296.9,120.7 297.9,120.7 299.0,120.7 300.0,117.4 301.0,117.4 302.1,117.4 303.1,117.4 304.1,117.4 305.2,117.5 306.2,117.5 307.2,120.9 308.3,120.9 309.3,120.9 310.3,121.4 311.4,121.4 312.4,121.4 313.4,121.4 314.5,117.8 315.5,117.8 316.5,117.8 317.6,117.8 318.6,117.8 319.6,117.8 320.7,121.1 321.7,121.1 322.7,121.1 323.8,121.1 324.8,121.1 325.8,121.0 326.9,121.0 327.9,117.4 328.9,117.4 330.0,117.4 331.0,118.0 332.0,118.0 333.1,118.0 334.1,118.0 335.1,123.8 336.2,123.9 337.2,123.9 338.2,123.9 339.3,123.9 340.3,123.9 341.3,126.8 342.4,126.6 343.4,126.6 344.4,126.6 345.5,126.6 346.5,126.3 347.5,126.3 348.6,119.5 349.6,119.5 350.6,119.5 351.7,119.1 352.7,119.1 353.7,119.1 354.8,119.1 355.8,121.8 356.8,122.1 357.9,122.1 358.9,122.1 359.9,122.1 361.0,122.1 362.0,118.1 363.0,118.1 364.1,118.1 365.1,118.1 366.1,118.1 367.2,117.8 368.2,117.8 369.2,117.9 370.3,117.9 371.3,117.9 372.3,117.6 373.4,117.6 374.4,117.6 375.4,117.6 376.5,118.5 377.5,118.7 378.5,118.7 379.6,118.7 380.6,118.7 381.6,118.7 382.7,118.5 383.7,118.5 384.7,118.5 385.8,118.5 386.8,118.5 387.8,118.4 388.9,118.4 389.9,117.8 390.9,117.8 392.0,117.8 393.0,117.7 394.0,117.7 395.1,117.7 396.1,117.7 397.1,116.1 398.2,115.7 399.2,115.7 400.2,115.7 401.3,115.7 402.3,115.7 403.3,117.0 404.4,117.0 405.4,117.0 406.4,117.0 407.5,117.0 408.5,116.9 409.5,116.9 410.6,116.7 411.6,116.7 412.6,116.7 413.7,116.3 414.7,116.3 415.7,116.3 416.8,116.3 417.8,118.6 418.8,118.4 419.9,118.4 420.9,118.4 421.9,118.4 423.0,118.4 424.0,114.7 425.0,114.7 426.1,114.7 427.1,114.7 428.1,114.7 429.2,115.0 430.2,115.0 431.2,114.3 432.3,114.3 433.3,114.3 434.3,114.5 435.4,114.5 436.4,114.5 437.4,114.5 438.5,117.1 439.5,117.1 440.5,117.1 441.6,117.1 442.6,117.1 443.6,117.1 444.7,119.5 445.7,119.5 446.7,119.5 447.8,119.5 448.8,119.5 449.8,119.3 450.9,119.3 451.9,115.5 452.9,115.5 454.0,115.5 455.0,115.2 456.0,115.2 457.1,115.2 458.1,115.2 459.1,117.3 460.2,116.9 461.2,116.9 462.2,116.9 463.3,116.9 464.3,116.9 465.3,117.4 466.4,117.4 467.4,117.4 468.4,117.4 469.5,117.4 470.5,117.3 471.5,117.3 472.6,119.0 473.6,119.0 474.6,119.0 475.7,119.1 476.7,119.1 477.7,119.1 478.8,119.1 479.8,115.2 480.8,115.4 481.9,115.4 482.9,115.4 483.9,115.4 485.0,115.4 486.0,114.9 487.0,114.8 488.1,114.8 489.1,114.8 490.1,114.8 491.2,115.1 492.2,115.1 493.2,118.8 494.3,118.8 495.3,118.8 496.3,119.0 497.4,119.0 498.4,119.0 499.4,119.0 500.5,117.5 501.5,117.6 502.5,117.6 503.6,117.6 504.6,117.6 505.6,117.6 506.7,115.6 507.7,115.6 508.7,115.6 509.8,115.6 510.8,115.6 511.8,115.1 512.9,115.1 513.9,117.0 514.9,117.0 516.0,117.0 517.0,117.0 518.0,117.0 519.1,117.0 520.1,117.0 521.1,119.2 522.2,118.5 523.2,118.5 524.2,118.5 525.3,118.5 526.3,118.5 527.3,120.1 528.4,120.1 529.4,120.1 530.4,120.1 531.5,120.1 532.5,119.9 533.5,119.9 534.6,116.5 535.6,116.5 536.6,116.5 537.7,116.8 538.7,116.8 539.7,116.8 540.8,116.8 541.8,118.8 542.8,119.2 543.9,119.2 544.9,119.2 545.9,119.2 547.0,119.2 548.0,120.8 549.0,120.8 550.1,120.8 551.1,120.8 552.1,120.8 553.2,120.7 554.2,120.7 555.2,119.9 556.3,119.9 557.3,119.9 558.3,119.8 559.4,119.8 560.4,119.8 561.4,119.8 562.5,118.7 563.5,118.5 564.5,118.5 565.6,118.5 566.6,118.5 567.6,118.5 568.7,119.6 569.7,119.3 570.7,119.3 571.8,119.3 572.8,119.3 573.8,119.3 574.9,119.3 575.9,116.4 576.9,116.4 578.0,116.4 579.0,116.4 580.0,116.4 581.1,116.4 582.1,116.4 583.1,116.3 584.2,116.4 585.2,116.4 586.2,116.4 587.3,116.4 588.3,116.4 589.3,114.4 590.4,114.5 591.4,114.5 592.4,114.5 593.5,114.5 594.5,114.2 595.5,114.2 596.6,112.6 597.6,112.6 598.6,112.6 599.7,113.0 600.7,113.0 601.7,113.0 602.8,113.0 603.8,116.8 604.8,117.1 605.9,117.1 606.9,117.1 607.9,117.1 609.0,117.1 610.0,115.3 611.0,115.3 612.1,115.3 613.1,115.3 614.1,115.3 615.2,115.0 616.2,115.0 617.2,115.5 618.3,115.5 619.3,115.5 620.3,115.4 621.4,115.4 622.4,115.4 623.4,115.4 624.5,116.3 625.5,116.5 626.5,116.5 627.6,116.5 628.6,116.5 629.6,116.5 630.7,116.4 631.7,116.4 632.7,116.4 633.8,116.4 634.8,116.4 635.8,116.4 636.9,116.4 637.9,117.7 638.9,117.7 640.0,117.7 641.0,117.8 642.0,117.8 643.1,117.8 644.1,117.8 645.1,117.1 646.2,116.9 647.2,116.9 648.2,116.9 649.3,116.9 650.3,116.9 651.3,113.8 652.4,113.5 653.4,113.5 654.4,113.5 655.5,113.5 656.5,113.8 657.5,113.8 658.6,116.0 659.6,116.0 660.6,116.0 661.7,115.9 662.7,115.9 663.7,115.9 664.8,115.9 665.8,115.1 666.8,114.6 667.9,114.6 668.9,114.6 669.9,114.6 671.0,114.6 672.0,114.7 673.0,114.8 674.1,114.8 675.1,114.8 676.1,114.8 677.2,114.6 678.2,114.6 679.2,115.1 680.3,115.1 681.3,115.1 682.3,115.3 683.4,115.3 684.4,115.3 685.4,115.3 686.5,114.9 687.5,115.1 688.5,115.1 689.6,115.1 690.6,115.1 691.6,115.1 692.7,120.6 693.7,120.6 694.7,120.6 695.8,120.6 696.8,120.6 697.8,120.8 698.9,120.8 699.9,121.5 700.9,121.5 702.0,121.5 703.0,121.8 704.0,121.8 705.1,121.8 706.1,121.8 707.1,120.0 708.2,119.9 709.2,119.9 710.2,119.9 711.3,119.9 712.3,119.9 713.3,116.7 714.4,116.7 715.4,116.7 716.4,116.7 717.5,116.7 718.5,116.8 719.5,116.8 720.6,117.8 721.6,117.8 722.6,117.8 723.7,117.6 724.7,117.6 725.7,117.6 726.8,117.6 727.8,111.5 728.8,111.7 729.9,111.7 730.9,111.7 731.9,111.7 733.0,111.7 734.0,117.8 735.0,118.1 736.1,118.1 737.1,118.1 738.1,118.1 739.2,118.1 740.2,118.1 741.2,112.9 742.3,112.9 743.3,112.9 744.3,112.9 745.4,112.9 746.4,112.9 747.4,112.9 748.5,115.1 749.5,115.5 750.5,115.5 751.6,115.5 752.6,115.5 753.6,115.5 754.7,108.2 755.7,108.3 756.7,108.3 757.8,108.3 758.8,108.3 759.8,108.1 760.9,108.1 761.9,111.7 762.9,111.7 764.0,111.7 765.0,111.7 766.0,111.7 767.1,111.7 768.1,111.7 769.1,111.7 770.2,111.6 771.2,111.6 772.2,111.6 773.3,111.6 774.3,111.6 775.3,110.4 776.4,110.4 777.4,110.4 778.4,110.4 779.5,110.4 780.5,110.9 781.5,110.9 782.6,116.9 783.6,116.9 784.6,116.9 785.7,116.5 786.7,116.5 787.7,116.5 788.8,116.5 789.8,120.0 790.8,120.0 791.9,120.0 792.9,120.0 793.9,120.0 795.0,120.0 796.0,115.4"/>
<text x="640" y="88" font-family="Arial" font-size="12" fill="#b45309">baz</text>
</svg>