<svg xmlns="http://www.w3.org/2000/svg" width="820" height="320" viewBox="0 0 820 320">
<rect width="100%" height="100%" fill="white"/>
<text x="52" y="30" font-family="Arial" font-size="18" font-weight="700">ekf_dropout_robust covariance bounds</text>
<line x1="52" y1="274" x2="796" y2="274" stroke="#263238"/>
<line x1="52" y1="42" x2="52" y2="274" stroke="#263238"/>
<text x="52" y="306" font-family="Arial" font-size="12">time (s)</text>
<text x="630" y="306" font-family="Arial" font-size="12">m</text>

<rect x="630.7" y="42" width="165.3" height="232" fill="#fef3c7" opacity="0.72"/>
<polyline fill="none" stroke="#0f766e" stroke-width="2.3" points="52.0,174.3 53.0,174.1 54.1,173.8 55.1,173.6 56.1,173.3 57.2,168.9 58.2,168.4 59.2,166.0 60.3,165.2 61.3,164.4 62.3,170.2 63.4,169.5 64.4,168.8 65.4,168.0 66.5,175.8 67.5,179.9 68.5,180.8 69.6,181.8 70.6,182.9 71.6,184.1 72.7,257.4 73.7,257.7 74.7,258.0 75.8,258.3 76.8,258.7 77.8,257.6 78.9,258.0 79.9,252.8 80.9,252.4 82.0,251.9 83.0,250.3 84.0,249.9 85.1,249.5 86.1,249.1 87.1,259.0 88.2,256.4 89.2,257.2 90.2,258.1 91.3,259.0 92.3,260.0 93.3,264.7 94.4,258.4 95.4,259.0 96.4,259.5 97.5,260.1 98.5,263.0 99.5,263.9 100.6,263.7 101.6,264.7 102.6,265.7 103.7,266.6 104.7,267.5 105.7,268.5 106.8,269.3 107.8,269.9 108.8,267.5 109.9,268.5 110.9,269.6 111.9,270.7 113.0,271.9 114.0,264.7 115.0,265.1 116.1,265.6 117.1,266.1 118.1,266.6 119.2,270.1 120.2,270.6 121.2,253.0 122.3,252.1 123.3,251.1 124.3,249.9 125.4,248.8 126.4,247.7 127.4,246.5 128.5,255.0 129.5,255.4 130.5,254.9 131.6,254.4 132.6,253.9 133.6,253.3 134.7,263.5 135.7,265.3 136.7,264.9 137.8,264.6 138.8,264.2 139.8,263.4 140.9,263.1 141.9,260.1 142.9,259.6 144.0,259.0 145.0,256.2 146.0,255.6 147.1,255.1 148.1,254.6 149.1,248.5 150.2,249.2 151.2,248.4 152.2,247.5 153.3,246.7 154.3,245.8 155.3,247.1 156.4,201.5 157.4,200.8 158.4,200.2 159.5,199.5 160.5,199.3 161.5,198.6 162.6,197.7 163.6,197.0 164.6,196.2 165.7,193.7 166.7,192.9 167.7,192.2 168.8,191.4 169.8,207.7 170.8,207.9 171.9,208.2 172.9,208.4 173.9,208.7 175.0,208.9 176.0,193.3 177.0,193.7 178.1,194.0 179.1,194.4 180.1,194.8 181.2,195.2 182.2,195.6 183.2,191.5 184.3,191.6 185.3,191.7 186.3,194.8 187.4,194.9 188.4,195.0 189.4,195.1 190.5,198.1 191.5,200.2 192.5,200.5 193.6,200.8 194.6,201.0 195.6,201.2 196.7,216.5 197.7,217.2 198.7,218.0 199.8,218.7 200.8,219.5 201.8,220.4 202.9,221.1 203.9,217.1 204.9,217.6 206.0,218.0 207.0,218.5 208.0,219.0 209.1,219.4 210.1,219.9 211.1,213.0 212.2,213.0 213.2,213.0 214.2,213.0 215.3,213.0 216.3,213.1 217.3,204.0 218.4,185.8 219.4,185.3 220.4,184.7 221.5,184.2 222.5,183.3 223.5,182.7 224.6,188.6 225.6,188.3 226.6,188.0 227.7,188.2 228.7,187.9 229.7,187.6 230.8,187.3 231.8,193.4 232.8,193.7 233.9,193.7 234.9,193.6 235.9,193.5 237.0,193.4 238.0,192.7 239.0,195.4 240.1,195.3 241.1,195.2 242.1,195.0 243.2,195.9 244.2,195.8 245.2,206.9 246.3,207.4 247.3,207.8 248.3,208.5 249.4,208.9 250.4,209.2 251.4,209.5 252.5,216.2 253.5,218.0 254.5,218.7 255.6,219.5 256.6,220.3 257.6,221.0 258.7,230.8 259.7,231.3 260.7,231.7 261.8,232.1 262.8,232.5 263.8,233.0 264.9,233.4 265.9,242.9 266.9,243.8 268.0,244.8 269.0,245.5 270.0,246.4 271.1,247.2 272.1,248.1 273.1,253.6 274.2,254.4 275.2,255.5 276.2,256.6 277.3,257.7 278.3,258.8 279.3,250.3 280.4,252.2 281.4,253.0 282.4,253.7 283.5,254.4 284.5,254.8 285.5,255.6 286.6,252.1 287.6,252.6 288.6,253.1 289.7,253.7 290.7,254.2 291.7,254.7 292.8,255.2 293.8,256.4 294.8,256.9 295.9,257.4 296.9,257.9 297.9,258.4 299.0,258.8 300.0,271.7 301.0,272.1 302.1,272.5 303.1,272.9 304.1,273.3 305.2,273.6 306.2,274.0 307.2,265.1 308.3,265.0 309.3,264.9 310.3,263.5 311.4,263.3 312.4,263.2 313.4,263.0 314.5,255.9 315.5,255.4 316.5,254.9 317.6,254.4 318.6,253.8 319.6,253.2 320.7,265.9 321.7,265.8 322.7,265.7 323.8,265.7 324.8,265.6 325.8,265.9 326.9,265.8 327.9,262.9 328.9,262.7 330.0,262.5 331.0,260.8 332.0,260.6 333.1,260.3 334.1,260.1 335.1,252.3 336.2,251.1 337.2,250.4 338.2,249.7 339.3,248.9 340.3,248.1 341.3,245.9 342.4,212.0 343.4,211.0 344.4,210.0 345.5,209.0 346.5,209.1 347.5,208.1 348.6,218.3 349.6,218.0 350.6,217.6 351.7,218.4 352.7,218.0 353.7,217.7 354.8,217.3 355.8,225.5 356.8,224.2 357.9,224.1 358.9,224.0 359.9,224.0 361.0,223.9 362.0,230.2 363.0,230.5 364.1,230.7 365.1,231.0 366.1,231.2 367.2,232.1 368.2,232.4 369.2,222.6 370.3,222.4 371.3,222.2 372.3,222.4 373.4,222.2 374.4,222.0 375.4,221.8 376.5,222.1 377.5,221.4 378.5,221.2 379.6,220.9 380.6,220.7 381.6,220.5 382.7,222.1 383.7,221.9 384.7,221.7 385.8,221.5 386.8,221.3 387.8,221.2 388.9,220.9 389.9,219.3 390.9,218.9 392.0,218.6 393.0,218.3 394.0,218.0 395.1,217.6 396.1,217.2 397.1,221.9 398.2,221.8 399.2,221.7 400.2,221.6 401.3,221.5 402.3,221.3 403.3,223.1 404.4,223.1 405.4,223.0 406.4,223.0 407.5,223.0 408.5,222.9 409.5,222.9 410.6,222.0 411.6,221.9 412.6,221.9 413.7,221.4 414.7,221.4 415.7,221.4 416.8,221.3 417.8,221.2 418.8,221.1 419.9,221.0 420.9,220.9 421.9,220.8 423.0,220.8 424.0,221.3 425.0,221.2 426.1,221.1 427.1,221.0 428.1,220.9 429.2,221.1 430.2,221.0 431.2,217.0 432.3,216.8 433.3,216.5 434.3,216.6 435.4,216.3 436.4,216.0 437.4,215.7 438.5,201.4 439.5,200.4 440.5,199.4 441.6,198.4 442.6,197.4 443.6,196.4 444.7,203.5 445.7,202.9 446.7,202.3 447.8,201.8 448.8,201.2 449.8,200.7 450.9,200.1 451.9,208.8 452.9,208.7 454.0,208.5 455.0,207.9 456.0,207.7 457.1,207.5 458.1,207.3 459.1,202.7 460.2,201.6 461.2,201.3 462.2,201.0 463.3,200.7 464.3,200.4 465.3,199.7 466.4,199.8 467.4,199.9 468.4,200.0 469.5,200.1 470.5,199.9 471.5,200.0 472.6,200.5 473.6,200.6 474.6,200.7 475.7,201.0 476.7,201.1 477.7,201.1 478.8,201.2 479.8,190.1 480.8,190.1 481.9,189.7 482.9,189.2 483.9,188.7 485.0,188.1 486.0,190.4 487.0,193.3 488.1,192.9 489.1,192.5 490.1,192.2 491.2,192.3 492.2,191.9 493.2,201.6 494.3,201.7 495.3,201.9 496.3,202.0 497.4,202.1 498.4,202.2 499.4,202.4 500.5,200.5 501.5,200.5 502.5,200.5 503.6,200.5 504.6,200.5 505.6,200.5 506.7,224.9 507.7,225.2 508.7,225.5 509.8,225.8 510.8,226.1 511.8,226.1 512.9,226.4 513.9,221.7 514.9,221.7 516.0,221.7 517.0,221.8 518.0,221.8 519.1,221.8 520.1,221.8 521.1,213.4 522.2,212.3 523.2,212.0 524.2,211.6 525.3,211.2 526.3,210.8 527.3,236.6 528.4,236.3 529.4,236.0 530.4,235.6 531.5,235.3 532.5,234.6 533.5,234.3 534.6,233.5 535.6,233.2 536.6,232.9 537.7,233.4 538.7,233.1 539.7,232.8 540.8,232.5 541.8,242.5 542.8,243.1 543.9,243.3 544.9,243.4 545.9,243.6 547.0,243.8 548.0,243.1 549.0,243.2 550.1,243.3 551.1,243.3 552.1,243.4 553.2,243.6 554.2,243.7 555.2,237.0 556.3,236.8 557.3,236.5 558.3,236.4 559.4,236.1 560.4,235.8 561.4,235.5 562.5,238.8 563.5,239.0 564.5,238.9 565.6,238.9 566.6,238.9 567.6,238.9 568.7,245.7 569.7,238.0 570.7,238.4 571.8,238.8 572.8,239.2 573.8,239.6 574.9,240.0 575.9,239.3 576.9,239.7 578.0,240.0 579.0,240.3 580.0,240.6 581.1,241.0 582.1,241.3 583.1,248.3 584.2,249.0 585.2,249.6 586.2,250.3 587.3,250.9 588.3,251.6 589.3,253.2 590.4,251.7 591.4,252.4 592.4,253.1 593.5,253.9 594.5,254.3 595.5,255.0 596.6,250.6 597.6,251.0 598.6,251.5 599.7,253.2 600.7,253.7 601.7,254.3 602.8,254.8 603.8,246.0 604.8,246.1 605.9,246.2 606.9,246.3 607.9,246.4 609.0,246.5 610.0,246.4 611.0,246.6 612.1,246.7 613.1,246.9 614.1,247.0 615.2,247.3 616.2,247.4 617.2,228.6 618.3,227.7 619.3,226.8 620.3,225.8 621.4,224.9 622.4,224.0 623.4,223.1 624.5,224.7 625.5,224.1 626.5,223.3 627.6,222.5 628.6,221.7 629.6,221.0 630.7,220.8 631.7,222.4 632.7,221.7 633.8,221.1 634.8,220.4 635.8,219.7 636.9,219.0 637.9,217.6 638.9,216.9 640.0,216.2 641.0,215.6 642.0,214.9 643.1,214.2 644.1,213.5 645.1,220.6 646.2,219.4 647.2,219.1 648.2,218.7 649.3,218.4 650.3,218.0 651.3,212.4 652.4,194.1 653.4,193.5 654.4,192.9 655.5,192.3 656.5,193.4 657.5,192.8 658.6,205.3 659.6,205.3 660.6,205.4 661.7,205.3 662.7,205.3 663.7,205.3 664.8,205.3 665.8,207.5 666.8,204.2 667.9,204.1 668.9,204.1 669.9,204.0 671.0,203.9 672.0,189.4 673.0,178.8 674.1,178.0 675.1,177.3 676.1,176.5 677.2,174.4 678.2,173.6 679.2,184.4 680.3,184.2 681.3,184.0 682.3,185.5 683.4,185.4 684.4,185.2 685.4,185.1 686.5,183.1 687.5,185.1 688.5,184.9 689.6,184.6 690.6,184.4 691.6,184.2 692.7,190.2 693.7,189.6 694.7,189.1 695.8,188.6 696.8,188.1 697.8,189.4 698.9,188.8 699.9,189.2 700.9,188.7 702.0,188.1 703.0,189.6 704.0,189.0 705.1,188.4 706.1,187.9 707.1,195.8 708.2,194.7 709.2,194.5 710.2,194.3 711.3,194.1 712.3,193.9 713.3,236.2 714.4,236.2 715.4,236.2 716.4,236.2 717.5,236.2 718.5,236.9 719.5,236.9 720.6,243.6 721.6,244.0 722.6,244.3 723.7,241.5 724.7,241.8 725.7,242.1 726.8,242.5 727.8,228.9 728.8,233.2 729.9,232.9 730.9,232.5 731.9,232.2 733.0,231.9 734.0,240.7 735.0,211.6 736.1,211.8 737.1,211.9 738.1,212.1 739.2,212.7 740.2,212.9 741.2,225.5 742.3,226.2 743.3,226.9 744.3,228.7 745.4,229.4 746.4,230.1 747.4,230.7 748.5,224.3 749.5,231.0 750.5,231.5 751.6,231.9 752.6,232.4 753.6,232.9 754.7,229.2 755.7,206.9 756.7,207.2 757.8,207.4 758.8,207.6 759.8,206.5 760.9,206.6 761.9,198.8 762.9,198.5 764.0,198.3 765.0,197.8 766.0,197.5 767.1,197.2 768.1,196.9 769.1,192.9 770.2,192.2 771.2,191.7 772.2,191.2 773.3,190.6 774.3,190.1 775.3,197.7 776.4,208.6 777.4,208.2 778.4,207.9 779.5,207.5 780.5,211.5 781.5,211.3 782.6,209.5 783.6,209.2 784.6,208.9 785.7,205.6 786.7,205.3 787.7,205.0 788.8,204.7 789.8,199.1 790.8,199.1 791.9,198.5 792.9,197.9 793.9,197.3 795.0,196.6 796.0,183.0"/>
<text x="640" y="56" font-family="Arial" font-size="12" fill="#0f766e">position error</text>
<polyline fill="none" stroke="#2563eb" stroke-width="2.3" points="52.0,42.1 53.0,42.1 54.1,42.1 55.1,42.1 56.1,42.0 57.2,51.4 58.2,51.3 59.2,51.4 60.3,51.3 61.3,51.2 62.3,55.4 63.4,55.4 64.4,55.2 65.4,55.1 66.5,55.3 67.5,57.7 68.5,57.6 69.6,57.5 70.6,57.4 71.6,57.3 72.7,134.7 73.7,134.7 74.7,134.6 75.8,134.5 76.8,134.4 77.8,135.6 78.9,135.4 79.9,135.7 80.9,135.6 82.0,135.4 83.0,136.3 84.0,136.2 85.1,136.0 86.1,135.8 87.1,136.2 88.2,136.9 89.2,136.8 90.2,136.6 91.3,136.4 92.3,136.2 93.3,137.3 94.4,172.0 95.4,171.9 96.4,171.7 97.5,171.6 98.5,172.0 99.5,171.8 100.6,172.2 101.6,172.0 102.6,171.9 103.7,172.2 104.7,172.1 105.7,171.9 106.8,171.6 107.8,172.1 108.8,172.4 109.9,172.2 110.9,172.1 111.9,171.9 113.0,171.6 114.0,193.8 115.0,193.6 116.1,193.5 117.1,193.3 118.1,193.1 119.2,193.3 120.2,193.1 121.2,193.5 122.3,193.3 123.3,193.1 124.3,193.3 125.4,193.1 126.4,192.9 127.4,192.6 128.5,193.1 129.5,193.3 130.5,193.1 131.6,192.9 132.6,192.7 133.6,192.4 134.7,193.3 135.7,208.0 136.7,207.8 137.8,207.6 138.8,207.4 139.8,207.5 140.9,207.2 141.9,207.7 142.9,207.5 144.0,207.3 145.0,207.4 146.0,207.2 147.1,206.9 148.1,206.7 149.1,207.2 150.2,207.3 151.2,207.1 152.2,206.9 153.3,206.6 154.3,206.3 155.3,207.2 156.4,218.3 157.4,218.1 158.4,217.8 159.5,217.6 160.5,217.6 161.5,217.4 162.6,217.9 163.6,217.7 164.6,217.4 165.7,217.5 166.7,217.2 167.7,217.0 168.8,216.7 169.8,217.3 170.8,217.3 171.9,217.1 172.9,216.8 173.9,216.6 175.0,216.3 176.0,226.1 177.0,225.9 178.1,225.7 179.1,225.5 180.1,225.2 181.2,225.2 182.2,224.9 183.2,225.5 184.3,225.2 185.3,225.0 186.3,225.0 187.4,224.7 188.4,224.5 189.4,224.2 190.5,224.8 191.5,224.8 192.5,224.5 193.6,224.3 194.6,224.0 195.6,223.7 196.7,232.1 197.7,231.8 198.7,231.6 199.8,231.4 200.8,231.1 201.8,231.1 202.9,230.8 203.9,231.3 204.9,231.1 206.0,230.8 207.0,230.8 208.0,230.6 209.1,230.3 210.1,229.9 211.1,230.6 212.2,230.6 213.2,230.3 214.2,230.0 215.3,229.8 216.3,229.4 217.3,230.3 218.4,236.6 219.4,236.3 220.4,236.0 221.5,235.8 222.5,235.7 223.5,235.4 224.6,236.0 225.6,235.8 226.6,235.5 227.7,235.5 228.7,235.2 229.7,234.9 230.8,234.5 231.8,235.2 232.8,235.2 233.9,234.9 234.9,234.6 235.9,234.3 237.0,234.0 238.0,234.9 239.0,240.3 240.1,240.1 241.1,239.8 242.1,239.5 243.2,239.5 244.2,239.2 245.2,239.7 246.3,239.5 247.3,239.2 248.3,239.2 249.4,238.9 250.4,238.6 251.4,238.2 252.5,238.9 253.5,238.9 254.5,238.6 255.6,238.3 256.6,238.0 257.6,237.7 258.7,243.7 259.7,243.4 260.7,243.1 261.8,242.9 262.8,242.6 263.8,242.5 264.9,242.2 265.9,242.8 266.9,242.5 268.0,242.3 269.0,242.2 270.0,241.9 271.1,241.6 272.1,241.2 273.1,241.9 274.2,241.9 275.2,241.6 276.2,241.3 277.3,241.0 278.3,240.7 279.3,241.5 280.4,246.0 281.4,245.7 282.4,245.4 283.5,245.1 284.5,245.0 285.5,244.7 286.6,245.3 287.6,245.0 288.6,244.8 289.7,244.7 290.7,244.4 291.7,244.1 292.8,243.7 293.8,244.4 294.8,244.4 295.9,244.1 296.9,243.8 297.9,243.5 299.0,243.1 300.0,248.3 301.0,248.1 302.1,247.8 303.1,247.5 304.1,247.2 305.2,247.1 306.2,246.8 307.2,247.4 308.3,247.1 309.3,246.8 310.3,246.8 311.4,246.5 312.4,246.1 313.4,245.8 314.5,246.5 315.5,246.4 316.5,246.1 317.6,245.8 318.6,245.5 319.6,245.2 320.7,250.1 321.7,249.8 322.7,249.5 323.8,249.2 324.8,248.9 325.8,248.8 326.9,248.5 327.9,249.1 328.9,248.9 330.0,248.6 331.0,248.5 332.0,248.2 333.1,247.8 334.1,247.5 335.1,248.2 336.2,248.1 337.2,247.9 338.2,247.5 339.3,247.2 340.3,246.9 341.3,247.8 342.4,251.3 343.4,251.0 344.4,250.7 345.5,250.4 346.5,250.3 347.5,250.0 348.6,250.6 349.6,250.3 350.6,250.0 351.7,250.0 352.7,249.7 353.7,249.3 354.8,249.0 355.8,249.7 356.8,249.6 357.9,249.3 358.9,249.0 359.9,248.7 361.0,248.3 362.0,249.2 363.0,248.9 364.1,248.6 365.1,248.3 366.1,248.0 367.2,247.9 368.2,247.6 369.2,248.3 370.3,248.0 371.3,247.7 372.3,247.6 373.4,247.3 374.4,246.9 375.4,246.6 376.5,247.3 377.5,247.3 378.5,247.0 379.6,246.7 380.6,246.3 381.6,246.0 382.7,246.9 383.7,246.6 384.7,246.3 385.8,246.0 386.8,245.7 387.8,245.6 388.9,245.3 389.9,246.0 390.9,245.7 392.0,245.4 393.0,245.3 394.0,245.0 395.1,244.7 396.1,244.3 397.1,245.1 398.2,245.0 399.2,244.7 400.2,244.4 401.3,244.1 402.3,243.7 403.3,244.7 404.4,244.4 405.4,244.1 406.4,243.8 407.5,243.5 408.5,243.4 409.5,243.1 410.6,243.8 411.6,243.5 412.6,243.2 413.7,243.1 414.7,242.8 415.7,242.5 416.8,242.1 417.8,242.9 418.8,242.8 419.9,242.5 420.9,242.2 421.9,241.9 423.0,241.6 424.0,242.5 425.0,242.2 426.1,241.9 427.1,241.6 428.1,241.3 429.2,241.3 430.2,240.9 431.2,241.6 432.3,241.3 433.3,241.0 434.3,241.0 435.4,240.7 436.4,240.4 437.4,240.0 438.5,240.7 439.5,240.7 440.5,240.4 441.6,240.1 442.6,239.8 443.6,239.5 444.7,240.4 445.7,240.1 446.7,239.8 447.8,239.5 448.8,239.2 449.8,239.2 450.9,238.8 451.9,239.5 452.9,239.2 454.0,239.0 455.0,238.9 456.0,238.6 457.1,238.3 458.1,237.9 459.1,238.6 460.2,238.6 461.2,238.3 462.2,238.0 463.3,237.7 464.3,237.4 465.3,243.5 466.4,243.2 467.4,243.0 468.4,242.7 469.5,242.4 470.5,242.3 471.5,242.0 472.6,242.6 473.6,242.3 474.6,242.1 475.7,242.0 476.7,241.7 477.7,241.4 478.8,241.1 479.8,241.7 480.8,241.7 481.9,241.4 482.9,241.1 483.9,240.8 485.0,240.5 486.0,241.3 487.0,245.8 488.1,245.6 489.1,245.3 490.1,245.0 491.2,245.0 492.2,244.6 493.2,245.2 494.3,244.9 495.3,244.7 496.3,244.6 497.4,244.3 498.4,244.0 499.4,243.7 500.5,244.3 501.5,244.3 502.5,244.0 503.6,243.7 504.6,243.4 505.6,243.1 506.7,248.2 507.7,248.0 508.7,247.7 509.8,247.4 510.8,247.1 511.8,247.1 512.9,246.8 513.9,247.3 514.9,247.1 516.0,246.8 517.0,246.7 518.0,246.4 519.1,246.1 520.1,245.8 521.1,246.4 522.2,246.4 523.2,246.1 524.2,245.8 525.3,245.5 526.3,245.1 527.3,250.1 528.4,249.8 529.4,249.5 530.4,249.2 531.5,248.9 532.5,248.9 533.5,248.5 534.6,249.1 535.6,248.8 536.6,248.6 537.7,248.5 538.7,248.2 539.7,247.9 540.8,247.5 541.8,248.2 542.8,248.1 543.9,247.8 544.9,247.5 545.9,247.2 547.0,246.9 548.0,251.6 549.0,251.3 550.1,251.0 551.1,250.7 552.1,250.4 553.2,250.4 554.2,250.0 555.2,250.6 556.3,250.3 557.3,250.0 558.3,250.0 559.4,249.7 560.4,249.3 561.4,249.0 562.5,249.6 563.5,249.6 564.5,249.3 565.6,249.0 566.6,248.7 567.6,248.3 568.7,249.2 569.7,252.6 570.7,252.3 571.8,252.0 572.8,251.7 573.8,251.6 574.9,251.3 575.9,251.9 576.9,251.6 578.0,251.3 579.0,251.3 580.0,250.9 581.1,250.6 582.1,250.2 583.1,250.9 584.2,250.9 585.2,250.6 586.2,250.3 587.3,249.9 588.3,249.6 589.3,250.5 590.4,253.7 591.4,253.4 592.4,253.1 593.5,252.8 594.5,252.7 595.5,252.4 596.6,253.0 597.6,252.7 598.6,252.4 599.7,252.3 600.7,252.0 601.7,251.7 602.8,251.3 603.8,252.0 604.8,251.9 605.9,251.6 606.9,251.3 607.9,251.0 609.0,250.6 610.0,251.5 611.0,251.2 612.1,251.0 613.1,250.6 614.1,250.3 615.2,250.2 616.2,249.9 617.2,250.6 618.3,250.3 619.3,250.0 620.3,249.9 621.4,249.6 622.4,249.2 623.4,248.9 624.5,249.6 625.5,249.5 626.5,249.2 627.6,248.9 628.6,248.6 629.6,248.2 630.7,248.8 631.7,251.9 632.7,251.3 633.8,250.6 634.8,249.9 635.8,249.5 636.9,248.8 637.9,249.1 638.9,248.4 640.0,247.8 641.0,247.4 642.0,246.7 643.1,245.9 644.1,245.2 645.1,245.6 646.2,245.2 647.2,244.5 648.2,243.8 649.3,243.1 650.3,242.4 651.3,243.0 652.4,246.8 653.4,246.2 654.4,245.5 655.5,244.8 656.5,244.4 657.5,243.7 658.6,244.0 659.6,243.3 660.6,242.6 661.7,242.3 662.7,241.6 663.7,240.8 664.8,240.1 665.8,240.5 666.8,240.1 667.9,239.4 668.9,238.7 669.9,238.0 671.0,237.2 672.0,237.9 673.0,242.4 674.1,241.7 675.1,241.0 676.1,240.3 677.2,240.0 678.2,239.2 679.2,239.5 680.3,238.8 681.3,238.2 682.3,237.8 683.4,237.1 684.4,236.3 685.4,235.6 686.5,235.9 687.5,235.6 688.5,234.9 689.6,234.2 690.6,233.4 691.6,232.7 692.7,239.1 693.7,238.5 694.7,237.8 695.8,237.1 696.8,236.4 697.8,236.1 698.9,235.3 699.9,235.6 700.9,234.9 702.0,234.2 703.0,233.9 704.0,233.1 705.1,232.4 706.1,231.6 707.1,231.9 708.2,231.6 709.2,230.9 710.2,230.2 711.3,229.4 712.3,228.7 713.3,235.7 714.4,235.1 715.4,234.4 716.4,233.7 717.5,233.0 718.5,232.7 719.5,231.9 720.6,232.1 721.6,231.5 722.6,230.8 723.7,230.4 724.7,229.7 725.7,229.0 726.8,228.2 727.8,228.4 728.8,228.1 729.9,227.4 730.9,226.7 731.9,225.9 733.0,225.2 734.0,225.8 735.0,232.3 736.1,231.6 737.1,230.9 738.1,230.2 739.2,229.9 740.2,229.1 741.2,229.3 742.3,228.6 743.3,227.9 744.3,227.6 745.4,226.8 746.4,226.1 747.4,225.3 748.5,225.5 749.5,225.2 750.5,224.5 751.6,223.8 752.6,223.0 753.6,222.3 754.7,222.8 755.7,229.9 756.7,229.2 757.8,228.5 758.8,227.8 759.8,227.5 760.9,226.7 761.9,226.8 762.9,226.2 764.0,225.5 765.0,225.1 766.0,224.4 767.1,223.7 768.1,222.9 769.1,223.1 770.2,222.7 771.2,222.0 772.2,221.3 773.3,220.5 774.3,219.8 775.3,220.3 776.4,227.9 777.4,227.2 778.4,226.5 779.5,225.8 780.5,225.5 781.5,224.7 782.6,224.8 783.6,224.1 784.6,223.4 785.7,223.1 786.7,222.3 787.7,221.6 788.8,220.8 789.8,221.0 790.8,220.7 791.9,219.9 792.9,219.2 793.9,218.4 795.0,217.7 796.0,226.7"/>
<text x="640" y="72" font-family="Arial" font-size="12" fill="#2563eb">sqrt trace Ppos</text>
</svg>