<svg xmlns="http://www.w3.org/2000/svg" width="820" height="320" viewBox="0 0 820 320">
<rect width="100%" height="100%" fill="white"/>
<text x="52" y="30" font-family="Arial" font-size="18" font-weight="700">adaptive_dropout_robust covariance bounds</text>
<line x1="52" y1="274" x2="796" y2="274" stroke="#263238"/>
<line x1="52" y1="42" x2="52" y2="274" stroke="#263238"/>
<text x="52" y="306" font-family="Arial" font-size="12">time (s)</text>
<text x="630" y="306" font-family="Arial" font-size="12">m</text>

<rect x="630.7" y="42" width="165.3" height="232" fill="#fef3c7" opacity="0.72"/>
<polyline fill="none" stroke="#0f766e" stroke-width="2.3" points="52.0,173.7 53.0,173.4 54.1,173.2 55.1,172.9 56.1,172.7 57.2,168.3 58.2,167.8 59.2,165.4 60.3,164.6 61.3,163.8 62.3,169.6 63.4,168.9 64.4,168.1 65.4,167.4 66.5,175.2 67.5,179.2 68.5,180.1 69.6,181.1 70.6,182.2 71.6,183.4 72.7,264.1 73.7,264.3 74.7,264.5 75.8,264.7 76.8,265.0 77.8,263.0 78.9,263.3 79.9,258.8 80.9,258.4 82.0,257.9 83.0,255.5 84.0,255.1 85.1,254.7 86.1,254.2 87.1,263.9 88.2,260.1 89.2,260.9 90.2,261.8 91.3,262.7 92.3,263.7 93.3,270.0 94.4,262.7 95.4,263.3 96.4,263.9 97.5,264.5 98.5,267.2 99.5,268.2 100.6,267.5 101.6,268.5 102.6,269.5 103.7,270.6 104.7,271.6 105.7,272.5 106.8,273.4 107.8,273.2 108.8,269.9 109.9,270.9 110.9,271.9 111.9,272.9 113.0,274.0 114.0,266.8 115.0,267.2 116.1,267.6 117.1,268.0 118.1,268.5 119.2,272.7 120.2,273.2 121.2,256.5 122.3,255.5 123.3,254.4 124.3,253.1 125.4,251.9 126.4,250.7 127.4,249.5 128.5,257.7 129.5,258.3 130.5,257.7 131.6,257.1 132.6,256.5 133.6,255.9 134.7,266.9 135.7,260.6 136.7,260.2 137.8,259.9 138.8,259.5 139.8,258.7 140.9,258.3 141.9,254.9 142.9,254.3 144.0,253.7 145.0,250.5 146.0,249.9 147.1,249.4 148.1,248.8 149.1,243.8 150.2,244.6 151.2,243.8 152.2,242.9 153.3,242.1 154.3,241.2 155.3,242.2 156.4,198.7 157.4,198.0 158.4,197.3 159.5,196.6 160.5,196.4 161.5,195.7 162.6,195.0 163.6,194.2 164.6,193.5 165.7,190.8 166.7,190.1 167.7,189.3 168.8,188.6 169.8,204.7 170.8,205.0 171.9,205.3 172.9,205.6 173.9,205.9 175.0,206.3 176.0,190.6 177.0,191.0 178.1,191.4 179.1,191.8 180.1,192.3 181.2,192.8 182.2,193.2 183.2,188.6 184.3,188.7 185.3,188.8 186.3,191.9 187.4,192.0 188.4,192.1 189.4,192.2 190.5,195.1 191.5,197.3 192.5,197.6 193.6,197.9 194.6,198.1 195.6,198.3 196.7,215.0 197.7,215.8 198.7,216.6 199.8,217.4 200.8,218.1 201.8,219.1 202.9,219.9 203.9,215.7 204.9,216.2 206.0,216.7 207.0,217.2 208.0,217.7 209.1,218.1 210.1,218.6 211.1,211.7 212.2,211.7 213.2,211.7 214.2,211.7 215.3,211.7 216.3,211.7 217.3,203.0 218.4,184.1 219.4,183.5 220.4,182.9 221.5,182.3 222.5,181.4 223.5,180.7 224.6,186.6 225.6,186.3 226.6,186.0 227.7,186.3 228.7,185.9 229.7,185.6 230.8,185.3 231.8,191.2 232.8,191.6 233.9,191.5 234.9,191.5 235.9,191.4 237.0,191.3 238.0,190.6 239.0,193.7 240.1,193.6 241.1,193.4 242.1,193.3 243.2,194.2 244.2,194.1 245.2,205.1 246.3,205.6 247.3,206.0 248.3,206.8 249.4,207.2 250.4,207.6 251.4,208.0 252.5,214.4 253.5,216.3 254.5,217.1 255.6,217.9 256.6,218.8 257.6,219.6 258.7,229.5 259.7,230.0 260.7,230.4 261.8,230.9 262.8,231.3 263.8,231.8 264.9,232.2 265.9,241.4 266.9,242.4 268.0,243.4 269.0,244.2 270.0,245.1 271.1,246.0 272.1,246.9 273.1,252.0 274.2,252.9 275.2,254.1 276.2,255.2 277.3,256.3 278.3,257.5 279.3,248.5 280.4,250.0 281.4,250.7 282.4,251.4 283.5,252.2 284.5,252.6 285.5,253.3 286.6,249.7 287.6,250.2 288.6,250.6 289.7,251.1 290.7,251.6 291.7,252.1 292.8,252.5 293.8,254.0 294.8,254.5 295.9,255.0 296.9,255.4 297.9,255.9 299.0,256.3 300.0,270.8 301.0,271.2 302.1,271.5 303.1,271.9 304.1,272.3 305.2,272.6 306.2,272.9 307.2,264.3 308.3,264.1 309.3,263.9 310.3,262.4 311.4,262.1 312.4,261.9 313.4,261.7 314.5,255.1 315.5,254.5 316.5,253.9 317.6,253.3 318.6,252.7 319.6,252.0 320.7,266.6 321.7,266.6 322.7,266.6 323.8,266.5 324.8,266.5 325.8,267.0 326.9,267.0 327.9,263.4 328.9,263.2 330.0,263.1 331.0,260.7 332.0,260.5 333.1,260.2 334.1,260.0 335.1,251.2 336.2,249.8 337.2,248.9 338.2,248.0 339.3,247.0 340.3,246.1 341.3,245.6 342.4,194.9 343.4,193.9 344.4,192.9 345.5,191.8 346.5,191.7 347.5,190.7 348.6,199.2 349.6,198.9 350.6,198.5 351.7,199.1 352.7,198.8 353.7,198.4 354.8,198.0 355.8,204.2 356.8,203.4 357.9,203.3 358.9,203.2 359.9,203.2 361.0,203.1 362.0,207.4 363.0,207.6 364.1,207.8 365.1,208.0 366.1,208.2 367.2,209.0 368.2,209.2 369.2,202.2 370.3,202.0 371.3,201.8 372.3,202.1 373.4,201.9 374.4,201.7 375.4,201.5 376.5,201.4 377.5,200.8 378.5,200.6 379.6,200.4 380.6,200.2 381.6,200.0 382.7,201.1 383.7,200.9 384.7,200.7 385.8,200.5 386.8,200.3 387.8,200.2 388.9,199.9 389.9,198.5 390.9,198.1 392.0,197.8 393.0,197.6 394.0,197.2 395.1,196.9 396.1,196.5 397.1,201.3 398.2,201.5 399.2,201.4 400.2,201.3 401.3,201.2 402.3,201.1 403.3,202.5 404.4,202.4 405.4,202.4 406.4,202.4 407.5,202.4 408.5,202.4 409.5,202.3 410.6,201.4 411.6,201.3 412.6,201.2 413.7,201.1 414.7,201.1 415.7,201.0 416.8,201.0 417.8,200.1 418.8,200.0 419.9,199.9 420.9,199.8 421.9,199.7 423.0,199.6 424.0,200.5 425.0,200.4 426.1,200.3 427.1,200.2 428.1,200.1 429.2,200.2 430.2,200.1 431.2,195.5 432.3,195.2 433.3,195.0 434.3,194.8 435.4,194.5 436.4,194.2 437.4,193.8 438.5,177.1 439.5,175.9 440.5,174.6 441.6,173.4 442.6,172.1 443.6,170.9 444.7,180.3 445.7,179.6 446.7,179.0 447.8,178.4 448.8,177.8 449.8,177.3 450.9,176.7 451.9,186.5 452.9,186.5 454.0,186.4 455.0,186.1 456.0,186.0 457.1,185.9 458.1,185.8 459.1,180.7 460.2,179.6 461.2,179.3 462.2,179.0 463.3,178.7 464.3,178.4 465.3,176.9 466.4,177.1 467.4,177.4 468.4,177.7 469.5,177.9 470.5,177.9 471.5,178.2 472.6,177.8 473.6,178.0 474.6,178.1 475.7,178.6 476.7,178.8 477.7,178.9 478.8,179.1 479.8,168.5 480.8,168.5 481.9,167.9 482.9,167.4 483.9,166.8 485.0,166.3 486.0,168.5 487.0,175.9 488.1,175.6 489.1,175.2 490.1,174.8 491.2,174.9 492.2,174.5 493.2,183.3 494.3,183.6 495.3,183.9 496.3,184.1 497.4,184.3 498.4,184.5 499.4,184.8 500.5,182.5 501.5,182.5 502.5,182.6 503.6,182.7 504.6,182.7 505.6,182.8 506.7,211.6 507.7,212.0 508.7,212.4 509.8,212.8 510.8,213.2 511.8,213.4 512.9,213.8 513.9,208.8 514.9,208.9 516.0,208.9 517.0,208.9 518.0,208.9 519.1,208.9 520.1,208.9 521.1,201.4 522.2,200.1 523.2,199.6 524.2,199.1 525.3,198.7 526.3,198.2 527.3,225.4 528.4,225.0 529.4,224.6 530.4,224.2 531.5,223.8 532.5,223.0 533.5,222.6 534.6,221.8 535.6,221.4 536.6,221.0 537.7,221.2 538.7,220.8 539.7,220.4 540.8,220.0 541.8,229.4 542.8,230.0 543.9,230.2 544.9,230.4 545.9,230.6 547.0,230.7 548.0,231.8 549.0,232.0 550.1,232.1 551.1,232.2 552.1,232.3 553.2,232.5 554.2,232.6 555.2,226.8 556.3,226.6 557.3,226.3 558.3,226.1 559.4,225.8 560.4,225.5 561.4,225.3 562.5,228.8 563.5,229.1 564.5,229.1 565.6,229.1 566.6,229.1 567.6,229.2 568.7,235.4 569.7,226.1 570.7,226.6 571.8,227.1 572.8,227.5 573.8,228.0 574.9,228.4 575.9,227.6 576.9,227.9 578.0,228.3 579.0,228.7 580.0,229.1 581.1,229.5 582.1,229.8 583.1,237.1 584.2,237.9 585.2,238.6 586.2,239.4 587.3,240.3 588.3,241.1 589.3,241.7 590.4,239.5 591.4,240.3 592.4,241.1 593.5,241.9 594.5,242.0 595.5,242.8 596.6,237.4 597.6,237.7 598.6,238.1 599.7,240.5 600.7,240.9 601.7,241.4 602.8,241.9 603.8,232.8 604.8,232.7 605.9,232.5 606.9,232.3 607.9,232.2 609.0,232.1 610.0,233.5 611.0,233.6 612.1,233.6 613.1,233.6 614.1,233.7 615.2,234.0 616.2,233.9 617.2,220.7 618.3,219.7 619.3,218.6 620.3,217.6 621.4,216.5 622.4,215.4 623.4,214.4 624.5,215.8 625.5,214.9 626.5,214.0 627.6,213.1 628.6,212.2 629.6,211.3 630.7,211.2 631.7,212.7 632.7,211.9 633.8,211.1 634.8,210.4 635.8,209.5 636.9,208.8 637.9,207.4 638.9,206.6 640.0,205.8 641.0,205.0 642.0,204.2 643.1,203.4 644.1,202.6 645.1,207.4 646.2,206.7 647.2,206.2 648.2,205.7 649.3,205.2 650.3,204.6 651.3,201.0 652.4,192.7 653.4,192.0 654.4,191.3 655.5,190.6 656.5,190.7 657.5,190.0 658.6,202.5 659.6,202.5 660.6,202.4 661.7,202.2 662.7,202.1 663.7,202.0 664.8,202.0 665.8,204.6 666.8,202.7 667.9,202.6 668.9,202.5 669.9,202.4 671.0,202.3 672.0,188.0 673.0,179.7 674.1,179.0 675.1,178.2 676.1,177.4 677.2,175.6 678.2,174.8 679.2,188.0 680.3,187.9 681.3,187.8 682.3,188.8 683.4,188.7 684.4,188.7 685.4,188.6 686.5,185.9 687.5,187.4 688.5,187.3 689.6,187.1 690.6,186.9 691.6,186.7 692.7,191.9 693.7,191.3 694.7,190.6 695.8,190.1 696.8,189.5 697.8,190.3 698.9,189.7 699.9,190.9 700.9,190.3 702.0,189.7 703.0,190.7 704.0,190.0 705.1,189.4 706.1,188.7 707.1,197.6 708.2,196.6 709.2,196.4 710.2,196.3 711.3,196.1 712.3,196.0 713.3,242.0 714.4,242.1 715.4,242.2 716.4,242.3 717.5,242.4 718.5,243.0 719.5,243.0 720.6,249.1 721.6,249.5 722.6,250.0 723.7,246.9 724.7,247.3 725.7,247.7 726.8,248.2 727.8,234.2 728.8,238.4 729.9,238.0 730.9,237.7 731.9,237.3 733.0,236.9 734.0,245.5 735.0,215.3 736.1,215.5 737.1,215.7 738.1,215.8 739.2,216.4 740.2,216.6 741.2,229.0 742.3,229.8 743.3,230.6 744.3,232.3 745.4,233.2 746.4,234.0 747.4,234.7 748.5,227.7 749.5,234.0 750.5,234.5 751.6,234.9 752.6,235.4 753.6,235.9 754.7,233.2 755.7,209.2 756.7,209.5 757.8,209.7 758.8,210.0 759.8,208.8 760.9,209.0 761.9,201.6 762.9,201.2 764.0,200.9 765.0,200.3 766.0,200.0 767.1,199.6 768.1,199.3 769.1,195.9 770.2,195.0 771.2,194.5 772.2,194.0 773.3,193.4 774.3,192.8 775.3,200.3 776.4,210.2 777.4,209.9 778.4,209.5 779.5,209.2 780.5,212.8 781.5,212.5 782.6,210.7 783.6,210.4 784.6,210.1 785.7,206.9 786.7,206.6 787.7,206.2 788.8,205.9 789.8,200.5 790.8,200.4 791.9,199.8 792.9,199.1 793.9,198.4 795.0,197.7 796.0,184.4"/>
<text x="640" y="56" font-family="Arial" font-size="12" fill="#0f766e">position error</text>
<polyline fill="none" stroke="#2563eb" stroke-width="2.3" points="52.0,42.1 53.0,42.1 54.1,42.1 55.1,42.1 56.1,42.0 57.2,51.3 58.2,51.2 59.2,51.3 60.3,51.3 61.3,51.2 62.3,55.4 63.4,55.3 64.4,55.2 65.4,55.0 66.5,55.3 67.5,57.6 68.5,57.6 69.6,57.5 70.6,57.4 71.6,57.2 72.7,141.0 73.7,140.9 74.7,140.9 75.8,140.8 76.8,140.7 77.8,142.1 78.9,141.9 79.9,142.1 80.9,142.1 82.0,142.0 83.0,143.0 84.0,142.8 85.1,142.7 86.1,142.5 87.1,142.8 88.2,143.6 89.2,143.5 90.2,143.4 91.3,143.2 92.3,143.1 93.3,144.1 94.4,180.9 95.4,180.8 96.4,180.6 97.5,180.5 98.5,181.0 99.5,180.8 100.6,181.1 101.6,181.0 102.6,180.9 103.7,181.3 104.7,181.1 105.7,180.9 106.8,180.7 107.8,181.1 108.8,181.4 109.9,181.3 110.9,181.2 111.9,181.0 113.0,180.8 114.0,203.0 115.0,202.8 116.1,202.7 117.1,202.5 118.1,202.4 119.2,202.6 120.2,202.4 121.2,202.8 122.3,202.6 123.3,202.5 124.3,202.6 125.4,202.5 126.4,202.3 127.4,202.0 128.5,202.5 129.5,202.7 130.5,202.5 131.6,202.3 132.6,202.1 133.6,201.9 134.7,202.6 135.7,217.1 136.7,216.9 137.8,216.7 138.8,216.5 139.8,216.6 140.9,216.4 141.9,216.8 142.9,216.7 144.0,216.5 145.0,216.6 146.0,216.4 147.1,216.2 148.1,215.9 149.1,216.4 150.2,216.5 151.2,216.3 152.2,216.1 153.3,215.9 154.3,215.7 155.3,216.4 156.4,227.1 157.4,226.9 158.4,226.7 159.5,226.5 160.5,226.5 161.5,226.3 162.6,226.7 163.6,226.5 164.6,226.4 165.7,226.4 166.7,226.2 167.7,225.9 168.8,225.7 169.8,226.2 170.8,226.2 171.9,226.0 172.9,225.8 173.9,225.6 175.0,225.4 176.0,234.6 177.0,234.5 178.1,234.3 179.1,234.1 180.1,233.8 181.2,233.8 182.2,233.6 183.2,234.1 184.3,233.9 185.3,233.6 186.3,233.7 187.4,233.4 188.4,233.2 189.4,232.9 190.5,233.4 191.5,233.5 192.5,233.2 193.6,233.0 194.6,232.8 195.6,232.5 196.7,240.3 197.7,240.1 198.7,239.9 199.8,239.7 200.8,239.5 201.8,239.4 202.9,239.2 203.9,239.7 204.9,239.5 206.0,239.2 207.0,239.2 208.0,239.0 209.1,238.7 210.1,238.4 211.1,239.0 212.2,239.0 213.2,238.8 214.2,238.5 215.3,238.3 216.3,238.0 217.3,238.8 218.4,244.6 219.4,244.4 220.4,244.2 221.5,243.9 222.5,243.9 223.5,243.6 224.6,244.1 225.6,243.9 226.6,243.7 227.7,243.6 228.7,243.4 229.7,243.1 230.8,242.8 231.8,243.4 232.8,243.4 233.9,243.2 234.9,242.9 235.9,242.6 237.0,242.4 238.0,243.1 239.0,248.2 240.1,248.0 241.1,247.7 242.1,247.5 243.2,247.4 244.2,247.1 245.2,247.7 246.3,247.4 247.3,247.2 248.3,247.2 249.4,246.9 250.4,246.6 251.4,246.3 252.5,246.9 253.5,246.9 254.5,246.7 255.6,246.4 256.6,246.1 257.6,245.8 258.7,251.3 259.7,251.1 260.7,250.9 261.8,250.6 262.8,250.4 263.8,250.3 264.9,250.0 265.9,250.6 266.9,250.3 268.0,250.1 269.0,250.0 270.0,249.8 271.1,249.5 272.1,249.2 273.1,249.8 274.2,249.7 275.2,249.5 276.2,249.2 277.3,248.9 278.3,248.6 279.3,249.5 280.4,253.9 281.4,253.7 282.4,253.4 283.5,253.2 284.5,253.1 285.5,252.8 286.6,253.4 287.6,253.2 288.6,252.9 289.7,252.9 290.7,252.6 291.7,252.3 292.8,252.0 293.8,252.7 294.8,252.7 295.9,252.4 296.9,252.1 297.9,251.9 299.0,251.6 300.0,256.6 301.0,256.3 302.1,256.1 303.1,255.9 304.1,255.6 305.2,255.6 306.2,255.3 307.2,255.8 308.3,255.6 309.3,255.3 310.3,255.3 311.4,255.0 312.4,254.8 313.4,254.5 314.5,255.0 315.5,255.0 316.5,254.8 317.6,254.5 318.6,254.3 319.6,254.0 320.7,258.9 321.7,258.7 322.7,258.5 323.8,258.3 324.8,258.0 325.8,258.1 326.9,257.8 327.9,258.4 328.9,258.2 330.0,258.0 331.0,258.0 332.0,257.8 333.1,257.5 334.1,257.3 335.1,257.9 336.2,258.0 337.2,257.8 338.2,257.6 339.3,257.4 340.3,257.1 341.3,257.9 342.4,262.5 343.4,262.3 344.4,262.1 345.5,261.9 346.5,261.9 347.5,261.7 348.6,262.0 349.6,261.9 350.6,261.7 351.7,261.6 352.7,261.4 353.7,261.2 354.8,260.9 355.8,261.3 356.8,261.2 357.9,261.0 358.9,260.8 359.9,260.5 361.0,260.3 362.0,260.7 363.0,260.5 364.1,260.2 365.1,260.0 366.1,259.7 367.2,259.5 368.2,259.2 369.2,259.6 370.3,259.4 371.3,259.1 372.3,258.9 373.4,258.6 374.4,258.3 375.4,258.0 376.5,258.5 377.5,258.3 378.5,258.0 379.6,257.7 380.6,257.4 381.6,257.0 382.7,257.8 383.7,257.5 384.7,257.2 385.8,256.8 386.8,256.5 387.8,256.3 388.9,255.9 389.9,256.6 390.9,256.3 392.0,256.0 393.0,255.8 394.0,255.5 395.1,255.1 396.1,254.7 397.1,255.5 398.2,255.4 399.2,255.0 400.2,254.7 401.3,254.3 402.3,253.9 403.3,255.0 404.4,254.7 405.4,254.4 406.4,254.1 407.5,253.7 408.5,253.6 409.5,253.2 410.6,254.1 411.6,253.8 412.6,253.5 413.7,253.5 414.7,253.1 415.7,252.8 416.8,252.4 417.8,253.4 418.8,253.3 419.9,253.1 420.9,252.8 421.9,252.5 423.0,252.1 424.0,253.2 425.0,253.0 426.1,252.7 427.1,252.5 428.1,252.2 429.2,252.2 430.2,251.9 431.2,252.7 432.3,252.5 433.3,252.2 434.3,252.3 435.4,252.0 436.4,251.7 437.4,251.5 438.5,252.2 439.5,252.3 440.5,252.1 441.6,251.8 442.6,251.6 443.6,251.4 444.7,252.3 445.7,252.1 446.7,251.9 447.8,251.7 448.8,251.5 449.8,251.5 450.9,251.3 451.9,251.8 452.9,251.7 454.0,251.5 455.0,251.6 456.0,251.4 457.1,251.1 458.1,250.9 459.1,251.4 460.2,251.5 461.2,251.3 462.2,251.1 463.3,250.9 464.3,250.7 465.3,257.6 466.4,257.5 467.4,257.3 468.4,257.1 469.5,257.0 470.5,257.0 471.5,256.8 472.6,257.2 473.6,257.0 474.6,256.8 475.7,256.9 476.7,256.7 477.7,256.5 478.8,256.3 479.8,256.7 480.8,256.7 481.9,256.6 482.9,256.4 483.9,256.2 485.0,256.0 486.0,256.6 487.0,261.7 488.1,261.5 489.1,261.3 490.1,261.2 491.2,261.2 492.2,261.0 493.2,261.3 494.3,261.1 495.3,261.0 496.3,261.0 497.4,260.8 498.4,260.6 499.4,260.4 500.5,260.8 501.5,260.8 502.5,260.6 503.6,260.4 504.6,260.2 505.6,260.0 506.7,265.1 507.7,265.0 508.7,264.8 509.8,264.6 510.8,264.4 511.8,264.4 512.9,264.2 513.9,264.6 514.9,264.4 516.0,264.2 517.0,264.2 518.0,264.0 519.1,263.8 520.1,263.6 521.1,264.0 522.2,264.0 523.2,263.8 524.2,263.6 525.3,263.4 526.3,263.2 527.3,267.0 528.4,266.8 529.4,266.6 530.4,266.4 531.5,266.2 532.5,266.2 533.5,265.9 534.6,266.3 535.6,266.1 536.6,265.9 537.7,265.8 538.7,265.6 539.7,265.3 540.8,265.0 541.8,265.5 542.8,265.4 543.9,265.2 544.9,265.0 545.9,264.7 547.0,264.5 548.0,268.1 549.0,267.9 550.1,267.7 551.1,267.4 552.1,267.2 553.2,267.1 554.2,266.8 555.2,267.3 556.3,267.1 557.3,266.9 558.3,266.8 559.4,266.5 560.4,266.3 561.4,266.0 562.5,266.5 563.5,266.5 564.5,266.2 565.6,266.0 566.6,265.7 567.6,265.5 568.7,266.2 569.7,269.6 570.7,269.4 571.8,269.2 572.8,269.0 573.8,268.9 574.9,268.7 575.9,269.2 576.9,269.0 578.0,268.8 579.0,268.8 580.0,268.6 581.1,268.3 582.1,268.0 583.1,268.6 584.2,268.6 585.2,268.4 586.2,268.2 587.3,267.9 588.3,267.7 589.3,268.4 590.4,271.8 591.4,271.6 592.4,271.4 593.5,271.2 594.5,271.2 595.5,271.0 596.6,271.5 597.6,271.3 598.6,271.2 599.7,271.2 600.7,271.0 601.7,270.8 602.8,270.6 603.8,271.1 604.8,271.2 605.9,271.0 606.9,270.8 607.9,270.6 609.0,270.4 610.0,271.0 611.0,270.9 612.1,270.7 613.1,270.6 614.1,270.4 615.2,270.4 616.2,270.2 617.2,270.4 618.3,270.2 619.3,270.0 620.3,270.0 621.4,269.8 622.4,269.5 623.4,269.3 624.5,269.6 625.5,269.5 626.5,269.3 627.6,269.1 628.6,268.8 629.6,268.6 630.7,268.7 631.7,269.7 632.7,269.2 633.8,268.7 634.8,268.1 635.8,267.6 636.9,267.0 637.9,267.0 638.9,266.4 640.0,265.8 641.0,265.3 642.0,264.7 643.1,264.0 644.1,263.3 645.1,263.5 646.2,263.0 647.2,262.3 648.2,261.6 649.3,260.9 650.3,260.2 651.3,260.6 652.4,262.1 653.4,261.4 654.4,260.7 655.5,260.0 656.5,259.5 657.5,258.7 658.6,259.3 659.6,258.6 660.6,257.9 661.7,257.4 662.7,256.7 663.7,255.9 664.8,255.1 665.8,255.8 666.8,255.3 667.9,254.6 668.9,253.9 669.9,253.1 671.0,252.3 672.0,253.2 673.0,255.5 674.1,254.8 675.1,254.0 676.1,253.3 677.2,252.9 678.2,252.1 679.2,252.8 680.3,252.2 681.3,251.5 682.3,251.1 683.4,250.4 684.4,249.6 685.4,248.8 686.5,249.6 687.5,249.3 688.5,248.7 689.6,248.0 690.6,247.2 691.6,246.5 692.7,252.7 693.7,252.1 694.7,251.4 695.8,250.8 696.8,250.2 697.8,249.9 698.9,249.2 699.9,249.7 700.9,249.1 702.0,248.5 703.0,248.3 704.0,247.6 705.1,247.0 706.1,246.3 707.1,246.7 708.2,246.5 709.2,245.9 710.2,245.3 711.3,244.7 712.3,244.0 713.3,250.4 714.4,249.8 715.4,249.3 716.4,248.7 717.5,248.1 718.5,247.8 719.5,247.2 720.6,247.4 721.6,246.8 722.6,246.3 723.7,246.0 724.7,245.4 725.7,244.8 726.8,244.1 727.8,244.4 728.8,244.2 729.9,243.6 730.9,243.0 731.9,242.3 733.0,241.7 734.0,242.2 735.0,247.9 736.1,247.4 737.1,246.8 738.1,246.2 739.2,246.0 740.2,245.4 741.2,245.5 742.3,244.9 743.3,244.3 744.3,244.1 745.4,243.5 746.4,242.9 747.4,242.2 748.5,242.4 749.5,242.2 750.5,241.6 751.6,241.0 752.6,240.4 753.6,239.7 754.7,240.2 755.7,246.0 756.7,245.5 757.8,244.9 758.8,244.3 759.8,244.0 760.9,243.4 761.9,243.5 762.9,242.9 764.0,242.3 765.0,242.0 766.0,241.4 767.1,240.8 768.1,240.1 769.1,240.3 770.2,240.0 771.2,239.4 772.2,238.8 773.3,238.1 774.3,237.5 775.3,237.9 776.4,244.0 777.4,243.5 778.4,242.9 779.5,242.3 780.5,242.0 781.5,241.3 782.6,241.4 783.6,240.8 784.6,240.2 785.7,240.0 786.7,239.3 787.7,238.7 788.8,238.0 789.8,238.2 790.8,237.9 791.9,237.3 792.9,236.7 793.9,236.0 795.0,235.4 796.0,243.0"/>
<text x="640" y="72" font-family="Arial" font-size="12" fill="#2563eb">sqrt trace Ppos</text>
</svg>