<svg xmlns="http://www.w3.org/2000/svg" width="820" height="320" viewBox="0 0 820 320">
<rect width="100%" height="100%" fill="white"/>
<text x="52" y="30" font-family="Arial" font-size="18" font-weight="700">robust_nominal covariance bounds</text>
<line x1="52" y1="274" x2="796" y2="274" stroke="#263238"/>
<line x1="52" y1="42" x2="52" y2="274" stroke="#263238"/>
<text x="52" y="306" font-family="Arial" font-size="12">time (s)</text>
<text x="630" y="306" font-family="Arial" font-size="12">m</text>

<rect x="630.7" y="42" width="165.3" height="232" fill="#fef3c7" opacity="0.72"/>
<polyline fill="none" stroke="#0f766e" stroke-width="2.3" points="52.0,180.2 53.0,180.0 54.1,179.7 55.1,179.5 56.1,179.2 57.2,182.5 58.2,182.0 59.2,179.4 60.3,178.6 61.3,177.8 62.3,182.4 63.4,181.7 64.4,181.0 65.4,180.3 66.5,187.8 67.5,186.5 68.5,187.3 69.6,188.2 70.6,189.2 71.6,190.3 72.7,261.5 73.7,261.7 74.7,262.0 75.8,262.3 76.8,262.6 77.8,260.6 78.9,260.9 79.9,258.2 80.9,258.0 82.0,257.8 83.0,255.7 84.0,255.6 85.1,255.4 86.1,255.3 87.1,260.6 88.2,256.6 89.2,257.2 90.2,257.9 91.3,258.6 92.3,259.4 93.3,266.7 94.4,260.8 95.4,261.7 96.4,262.6 97.5,263.5 98.5,263.1 99.5,264.4 100.6,261.3 101.6,262.4 102.6,263.5 103.7,265.2 104.7,266.3 105.7,267.5 106.8,268.6 107.8,267.3 108.8,261.0 109.9,262.0 110.9,263.1 111.9,264.2 113.0,265.3 114.0,256.1 115.0,256.6 116.1,257.2 117.1,257.8 118.1,258.4 119.2,266.2 120.2,266.9 121.2,251.1 122.3,250.8 123.3,250.5 124.3,250.0 125.4,249.7 126.4,249.2 127.4,248.8 128.5,251.0 129.5,252.8 130.5,252.5 131.6,252.2 132.6,251.9 133.6,251.6 134.7,264.5 135.7,274.0 136.7,273.9 137.8,273.8 138.8,273.7 139.8,273.0 140.9,272.9 141.9,269.0 142.9,268.7 144.0,268.3 145.0,264.1 146.0,263.8 147.1,263.5 148.1,263.2 149.1,255.3 150.2,257.6 151.2,257.1 152.2,256.5 153.3,255.9 154.3,255.3 155.3,255.6 156.4,213.7 157.4,213.1 158.4,212.5 159.5,212.0 160.5,212.2 161.5,211.6 162.6,210.8 163.6,210.2 164.6,209.5 165.7,206.2 166.7,205.6 167.7,204.9 168.8,204.2 169.8,213.1 170.8,212.9 171.9,212.7 172.9,212.4 173.9,212.1 175.0,211.8 176.0,199.6 177.0,199.5 178.1,199.4 179.1,199.4 180.1,199.4 181.2,199.4 182.2,199.4 183.2,195.1 184.3,194.9 185.3,194.7 186.3,197.1 187.4,196.8 188.4,196.6 189.4,196.4 190.5,201.6 191.5,203.8 192.5,203.7 193.6,203.7 194.6,203.7 195.6,203.6 196.7,213.6 197.7,213.9 198.7,214.1 199.8,214.3 200.8,214.6 201.8,214.9 202.9,215.1 203.9,213.3 204.9,213.5 206.0,213.6 207.0,213.8 208.0,213.9 209.1,214.0 210.1,214.1 211.1,208.4 212.2,208.2 213.2,208.1 214.2,208.0 215.3,207.9 216.3,207.8 217.3,199.3 218.4,182.4 219.4,182.0 220.4,181.5 221.5,181.0 222.5,180.4 223.5,179.8 224.6,185.9 225.6,185.5 226.6,185.2 227.7,184.8 228.7,184.5 229.7,184.1 230.8,183.7 231.8,191.2 232.8,191.0 233.9,190.8 234.9,190.5 235.9,190.3 237.0,190.0 238.0,190.9 239.0,193.2 240.1,193.1 241.1,192.9 242.1,192.8 243.2,192.8 244.2,192.6 245.2,199.8 246.3,199.9 247.3,199.9 248.3,200.0 249.4,200.1 250.4,200.1 251.4,200.1 252.5,208.8 253.5,208.9 254.5,209.2 255.6,209.5 256.6,209.8 257.6,210.0 258.7,222.2 259.7,222.4 260.7,222.6 261.8,222.7 262.8,222.9 263.8,223.0 264.9,223.1 265.9,234.1 266.9,234.6 268.0,235.0 269.0,235.5 270.0,235.9 271.1,236.3 272.1,236.7 273.1,243.9 274.2,243.3 275.2,243.9 276.2,244.5 277.3,245.1 278.3,245.7 279.3,239.4 280.4,241.6 281.4,242.1 282.4,242.5 283.5,243.0 284.5,242.4 285.5,242.9 286.6,240.7 287.6,241.1 288.6,241.5 289.7,242.4 290.7,242.8 291.7,243.2 292.8,243.6 293.8,244.5 294.8,245.0 295.9,245.4 296.9,245.8 297.9,246.2 299.0,246.6 300.0,260.0 301.0,260.3 302.1,260.7 303.1,261.0 304.1,261.3 305.2,261.6 306.2,262.0 307.2,252.8 308.3,252.9 309.3,252.9 310.3,250.8 311.4,250.9 312.4,251.0 313.4,251.0 314.5,243.1 315.5,243.2 316.5,243.1 317.6,242.9 318.6,242.7 319.6,242.5 320.7,253.8 321.7,253.8 322.7,253.8 323.8,253.9 324.8,253.9 325.8,254.6 326.9,254.6 327.9,251.2 328.9,251.2 330.0,251.2 331.0,248.7 332.0,248.6 333.1,248.5 334.1,248.4 335.1,239.9 336.2,239.1 337.2,238.8 338.2,238.4 339.3,238.0 340.3,237.6 341.3,235.3 342.4,206.3 343.4,205.7 344.4,205.1 345.5,204.5 346.5,205.5 347.5,204.9 348.6,213.4 349.6,213.1 350.6,212.8 351.7,214.1 352.7,213.9 353.7,213.6 354.8,213.2 355.8,221.7 356.8,219.9 357.9,219.7 358.9,219.5 359.9,219.3 361.0,219.1 362.0,226.6 363.0,226.6 364.1,226.6 365.1,226.6 366.1,226.6 367.2,227.5 368.2,227.5 369.2,218.7 370.3,218.5 371.3,218.4 372.3,218.6 373.4,218.4 374.4,218.3 375.4,218.1 376.5,218.5 377.5,217.8 378.5,217.6 379.6,217.4 380.6,217.3 381.6,217.1 382.7,218.8 383.7,218.7 384.7,218.5 385.8,218.4 386.8,218.2 387.8,218.0 388.9,217.8 389.9,216.0 390.9,215.7 392.0,215.4 393.0,215.2 394.0,214.8 395.1,214.5 396.1,214.3 397.1,218.5 398.2,217.8 399.2,217.6 400.2,217.5 401.3,217.3 402.3,217.1 403.3,219.8 404.4,219.6 405.4,219.5 406.4,219.4 407.5,219.2 408.5,219.0 409.5,218.9 410.6,218.5 411.6,218.4 412.6,218.3 413.7,217.2 414.7,217.1 415.7,216.9 416.8,216.8 417.8,217.9 418.8,217.5 419.9,217.4 420.9,217.3 421.9,217.2 423.0,217.1 424.0,218.3 425.0,218.2 426.1,218.0 427.1,217.9 428.1,217.7 429.2,218.4 430.2,218.2 431.2,214.3 432.3,214.1 433.3,213.9 434.3,214.4 435.4,214.2 436.4,214.0 437.4,213.8 438.5,202.4 439.5,201.9 440.5,201.5 441.6,201.0 442.6,200.5 443.6,200.0 444.7,205.1 445.7,204.8 446.7,204.6 447.8,204.3 448.8,204.1 449.8,203.7 450.9,203.5 451.9,212.0 452.9,211.8 454.0,211.7 455.0,211.0 456.0,210.8 457.1,210.7 458.1,210.5 459.1,206.1 460.2,204.5 461.2,204.3 462.2,204.2 463.3,204.0 464.3,203.9 465.3,202.5 466.4,202.5 467.4,202.5 468.4,202.5 469.5,202.5 470.5,202.2 471.5,202.1 472.6,203.3 473.6,203.3 474.6,203.2 475.7,204.0 476.7,204.0 477.7,203.9 478.8,203.9 479.8,192.5 480.8,193.1 481.9,192.8 482.9,192.6 483.9,192.3 485.0,192.0 486.0,193.8 487.0,196.0 488.1,195.7 489.1,195.5 490.1,195.3 491.2,195.8 492.2,195.6 493.2,205.0 494.3,205.0 495.3,205.1 496.3,205.1 497.4,205.1 498.4,205.1 499.4,205.1 500.5,203.7 501.5,203.6 502.5,203.6 503.6,203.5 504.6,203.5 505.6,203.4 506.7,222.6 507.7,222.7 508.7,222.9 509.8,223.1 510.8,223.2 511.8,223.0 512.9,223.2 513.9,219.0 514.9,219.0 516.0,219.1 517.0,219.1 518.0,219.2 519.1,219.2 520.1,219.2 521.1,210.8 522.2,210.4 523.2,210.2 524.2,210.1 525.3,209.9 526.3,209.7 527.3,233.4 528.4,233.3 529.4,233.2 530.4,233.1 531.5,233.0 532.5,232.4 533.5,232.3 534.6,231.1 535.6,231.0 536.6,230.9 537.7,231.7 538.7,231.6 539.7,231.5 540.8,231.4 541.8,240.0 542.8,240.1 543.9,240.2 544.9,240.3 545.9,240.4 547.0,240.5 548.0,239.3 549.0,239.3 550.1,239.3 551.1,239.3 552.1,239.2 553.2,239.6 554.2,239.6 555.2,233.2 556.3,233.1 557.3,232.9 558.3,233.0 559.4,232.8 560.4,232.7 561.4,232.6 562.5,234.9 563.5,235.4 564.5,235.4 565.6,235.4 566.6,235.4 567.6,235.4 568.7,242.5 569.7,235.2 570.7,235.5 571.8,235.7 572.8,236.0 573.8,236.2 574.9,236.5 575.9,236.3 576.9,236.5 578.0,236.7 579.0,236.9 580.0,237.2 581.1,237.4 582.1,237.6 583.1,244.7 584.2,244.9 585.2,245.3 586.2,245.7 587.3,246.1 588.3,246.5 589.3,249.5 590.4,247.9 591.4,248.3 592.4,248.8 593.5,249.3 594.5,249.5 595.5,250.0 596.6,246.7 597.6,247.1 598.6,247.6 599.7,248.9 600.7,249.4 601.7,249.8 602.8,250.3 603.8,241.8 604.8,241.6 605.9,241.8 606.9,242.1 607.9,242.3 609.0,242.6 610.0,240.8 611.0,240.8 612.1,241.1 613.1,241.4 614.1,241.7 615.2,243.2 616.2,243.4 617.2,234.3 618.3,234.3 619.3,234.3 620.3,234.4 621.4,234.4 622.4,234.4 623.4,234.4 624.5,231.6 625.5,231.3 626.5,231.2 627.6,231.1 628.6,231.1 629.6,231.0 630.7,228.4 631.7,229.3 632.7,229.3 633.8,229.2 634.8,229.2 635.8,229.1 636.9,229.0 637.9,224.5 638.9,224.4 640.0,224.2 641.0,224.1 642.0,224.0 643.1,223.8 644.1,223.7 645.1,228.0 646.2,227.5 647.2,227.5 648.2,227.4 649.3,227.4 650.3,227.3 651.3,221.1 652.4,205.8 653.4,205.6 654.4,205.4 655.5,205.2 656.5,206.3 657.5,206.1 658.6,215.8 659.6,215.8 660.6,215.9 661.7,215.7 662.7,215.7 663.7,215.6 664.8,215.6 665.8,218.1 666.8,215.7 667.9,215.6 668.9,215.5 669.9,215.4 671.0,215.3 672.0,201.7 673.0,192.4 674.1,192.0 675.1,191.6 676.1,191.1 677.2,189.2 678.2,188.7 679.2,197.4 680.3,197.2 681.3,196.9 682.3,198.1 683.4,198.0 684.4,197.8 685.4,197.6 686.5,196.2 687.5,197.9 688.5,197.7 689.6,197.5 690.6,197.3 691.6,197.0 692.7,197.5 693.7,197.1 694.7,196.8 695.8,196.5 696.8,196.1 697.8,197.5 698.9,197.1 699.9,196.4 700.9,196.1 702.0,195.7 703.0,197.2 704.0,196.9 705.1,196.5 706.1,196.1 707.1,202.3 708.2,201.2 709.2,200.9 710.2,200.7 711.3,200.4 712.3,200.2 713.3,230.0 714.4,229.8 715.4,229.7 716.4,229.5 717.5,229.4 718.5,229.7 719.5,229.5 720.6,236.3 721.6,236.3 722.6,236.3 723.7,233.5 724.7,233.5 725.7,233.4 726.8,233.4 727.8,224.0 728.8,227.5 729.9,227.3 730.9,227.1 731.9,227.0 733.0,226.8 734.0,233.3 735.0,220.5 736.1,220.5 737.1,220.4 738.1,220.4 739.2,221.0 740.2,221.0 741.2,228.6 742.3,228.7 743.3,228.8 744.3,230.0 745.4,230.1 746.4,230.2 747.4,230.2 748.5,226.2 749.5,229.9 750.5,229.9 751.6,230.0 752.6,230.1 753.6,230.1 754.7,230.2 755.7,221.0 756.7,221.0 757.8,221.0 758.8,221.1 759.8,219.5 760.9,219.5 761.9,212.3 762.9,212.1 764.0,211.9 765.0,211.6 766.0,211.5 767.1,211.3 768.1,211.2 769.1,207.4 770.2,207.0 771.2,206.7 772.2,206.4 773.3,206.1 774.3,205.8 775.3,212.7 776.4,215.9 777.4,215.7 778.4,215.5 779.5,215.3 780.5,219.9 781.5,219.8 782.6,216.9 783.6,216.8 784.6,216.6 785.7,213.3 786.7,213.1 787.7,212.9 788.8,212.7 789.8,206.7 790.8,207.3 791.9,207.0 792.9,206.7 793.9,206.4 795.0,206.1 796.0,194.8"/>
<text x="640" y="56" font-family="Arial" font-size="12" fill="#0f766e">position error</text>
<polyline fill="none" stroke="#2563eb" stroke-width="2.3" points="52.0,42.2 53.0,42.1 54.1,42.1 55.1,42.1 56.1,42.0 57.2,48.5 58.2,48.4 59.2,48.5 60.3,48.5 61.3,48.4 62.3,51.7 63.4,51.7 64.4,51.6 65.4,51.4 66.5,51.6 67.5,52.9 68.5,52.8 69.6,52.7 70.6,52.6 71.6,52.5 72.7,134.6 73.7,134.6 74.7,134.5 75.8,134.4 76.8,134.3 77.8,135.2 78.9,135.0 79.9,135.2 80.9,135.1 82.0,135.0 83.0,135.6 84.0,135.5 85.1,135.3 86.1,135.1 87.1,135.4 88.2,135.8 89.2,135.7 90.2,135.5 91.3,135.4 92.3,135.1 93.3,136.0 94.4,171.1 95.4,171.0 96.4,170.8 97.5,170.6 98.5,170.9 99.5,170.7 100.6,171.1 101.6,171.0 102.6,170.8 103.7,171.1 104.7,170.9 105.7,170.7 106.8,170.4 107.8,170.9 108.8,171.1 109.9,170.9 110.9,170.7 111.9,170.5 113.0,170.3 114.0,192.1 115.0,192.0 116.1,191.8 117.1,191.7 118.1,191.5 119.2,191.6 120.2,191.4 121.2,191.7 122.3,191.5 123.3,191.3 124.3,191.4 125.4,191.2 126.4,190.9 127.4,190.7 128.5,191.2 129.5,191.2 130.5,191.0 131.6,190.8 132.6,190.6 133.6,190.3 134.7,191.2 135.7,205.0 136.7,204.8 137.8,204.5 138.8,204.3 139.8,204.4 140.9,204.1 141.9,204.6 142.9,204.4 144.0,204.2 145.0,204.3 146.0,204.0 147.1,203.8 148.1,203.5 149.1,204.1 150.2,204.2 151.2,203.9 152.2,203.7 153.3,203.5 154.3,203.2 155.3,204.0 156.4,214.7 157.4,214.5 158.4,214.3 159.5,214.1 160.5,214.1 161.5,213.8 162.6,214.3 163.6,214.1 164.6,213.9 165.7,213.9 166.7,213.7 167.7,213.4 168.8,213.2 169.8,213.6 170.8,213.6 171.9,213.4 172.9,213.1 173.9,212.9 175.0,212.6 176.0,222.4 177.0,222.2 178.1,222.0 179.1,221.7 180.1,221.5 181.2,221.5 182.2,221.2 183.2,221.6 184.3,221.4 185.3,221.2 186.3,221.1 187.4,220.8 188.4,220.5 189.4,220.3 190.5,220.9 191.5,220.9 192.5,220.6 193.6,220.4 194.6,220.1 195.6,219.8 196.7,228.0 197.7,227.8 198.7,227.6 199.8,227.3 200.8,227.1 201.8,227.0 202.9,226.7 203.9,227.3 204.9,227.1 206.0,226.8 207.0,226.8 208.0,226.5 209.1,226.3 210.1,226.0 211.1,226.6 212.2,226.6 213.2,226.3 214.2,226.1 215.3,225.8 216.3,225.5 217.3,226.3 218.4,232.4 219.4,232.2 220.4,231.9 221.5,231.7 222.5,231.6 223.5,231.3 224.6,231.9 225.6,231.7 226.6,231.4 227.7,231.4 228.7,231.1 229.7,230.8 230.8,230.5 231.8,231.2 232.8,231.1 233.9,230.9 234.9,230.6 235.9,230.3 237.0,230.0 238.0,230.9 239.0,236.2 240.1,236.0 241.1,235.7 242.1,235.4 243.2,235.4 244.2,235.1 245.2,235.5 246.3,235.3 247.3,235.0 248.3,235.0 249.4,234.7 250.4,234.4 251.4,234.1 252.5,234.8 253.5,234.6 254.5,234.3 255.6,234.1 256.6,233.8 257.6,233.5 258.7,239.3 259.7,239.1 260.7,238.8 261.8,238.5 262.8,238.3 263.8,238.2 264.9,237.9 265.9,238.5 266.9,238.3 268.0,238.0 269.0,238.0 270.0,237.7 271.1,237.4 272.1,237.1 273.1,237.7 274.2,237.7 275.2,237.4 276.2,237.1 277.3,236.8 278.3,236.5 279.3,237.4 280.4,241.7 281.4,241.4 282.4,241.1 283.5,240.9 284.5,240.8 285.5,240.5 286.6,241.1 287.6,240.8 288.6,240.6 289.7,240.5 290.7,240.3 291.7,240.0 292.8,239.7 293.8,240.3 294.8,240.2 295.9,240.0 296.9,239.7 297.9,239.4 299.0,239.1 300.0,244.1 301.0,243.8 302.1,243.6 303.1,243.3 304.1,243.0 305.2,243.0 306.2,242.7 307.2,243.2 308.3,243.0 309.3,242.7 310.3,242.6 311.4,242.4 312.4,242.1 313.4,241.8 314.5,242.4 315.5,242.3 316.5,242.1 317.6,241.8 318.6,241.5 319.6,241.2 320.7,245.9 321.7,245.6 322.7,245.3 323.8,245.1 324.8,244.8 325.8,244.8 326.9,244.5 327.9,245.0 328.9,244.7 330.0,244.5 331.0,244.4 332.0,244.1 333.1,243.8 334.1,243.5 335.1,244.1 336.2,244.1 337.2,243.8 338.2,243.5 339.3,243.2 340.3,242.9 341.3,243.7 342.4,246.9 343.4,246.7 344.4,246.4 345.5,246.1 346.5,246.1 347.5,245.8 348.6,246.3 349.6,246.0 350.6,245.8 351.7,245.7 352.7,245.4 353.7,245.1 354.8,244.8 355.8,245.4 356.8,245.4 357.9,245.1 358.9,244.8 359.9,244.5 361.0,244.2 362.0,245.0 363.0,244.8 364.1,244.5 365.1,244.2 366.1,243.9 367.2,243.9 368.2,243.5 369.2,244.2 370.3,243.9 371.3,243.6 372.3,243.5 373.4,243.2 374.4,242.9 375.4,242.6 376.5,243.3 377.5,243.2 378.5,242.9 379.6,242.7 380.6,242.4 381.6,242.1 382.7,242.9 383.7,242.6 384.7,242.4 385.8,242.1 386.8,241.8 387.8,241.7 388.9,241.4 389.9,242.1 390.9,241.8 392.0,241.5 393.0,241.4 394.0,241.1 395.1,240.8 396.1,240.5 397.1,241.2 398.2,241.1 399.2,240.9 400.2,240.6 401.3,240.3 402.3,240.0 403.3,240.8 404.4,240.6 405.4,240.3 406.4,240.0 407.5,239.7 408.5,239.6 409.5,239.3 410.6,240.0 411.6,239.7 412.6,239.4 413.7,239.4 414.7,239.1 415.7,238.8 416.8,238.5 417.8,239.2 418.8,239.1 419.9,238.8 420.9,238.5 421.9,238.3 423.0,238.0 424.0,238.8 425.0,238.6 426.1,238.3 427.1,238.0 428.1,237.7 429.2,237.6 430.2,237.3 431.2,238.0 432.3,237.7 433.3,237.5 434.3,237.4 435.4,237.1 436.4,236.8 437.4,236.5 438.5,237.1 439.5,237.0 440.5,236.8 441.6,236.5 442.6,236.2 443.6,235.9 444.7,236.8 445.7,236.5 446.7,236.2 447.8,235.9 448.8,235.7 449.8,235.6 450.9,235.3 451.9,236.0 452.9,235.7 454.0,235.4 455.0,235.3 456.0,235.1 457.1,234.8 458.1,234.5 459.1,235.0 460.2,234.9 461.2,234.7 462.2,234.4 463.3,234.1 464.3,233.8 465.3,239.7 466.4,239.4 467.4,239.2 468.4,238.9 469.5,238.6 470.5,238.5 471.5,238.3 472.6,238.8 473.6,238.6 474.6,238.3 475.7,238.3 476.7,238.0 477.7,237.7 478.8,237.4 479.8,238.0 480.8,238.0 481.9,237.7 482.9,237.4 483.9,237.2 485.0,236.9 486.0,237.7 487.0,242.0 488.1,241.7 489.1,241.5 490.1,241.2 491.2,241.1 492.2,240.9 493.2,241.4 494.3,241.1 495.3,240.9 496.3,240.8 497.4,240.5 498.4,240.3 499.4,240.0 500.5,240.5 501.5,240.5 502.5,240.2 503.6,240.0 504.6,239.7 505.6,239.4 506.7,244.1 507.7,243.9 508.7,243.6 509.8,243.3 510.8,243.1 511.8,243.0 512.9,242.8 513.9,243.2 514.9,243.0 516.0,242.7 517.0,242.7 518.0,242.4 519.1,242.2 520.1,241.9 521.1,242.4 522.2,242.2 523.2,241.9 524.2,241.7 525.3,241.4 526.3,241.1 527.3,245.8 528.4,245.5 529.4,245.3 530.4,245.0 531.5,244.8 532.5,244.7 533.5,244.4 534.6,244.9 535.6,244.7 536.6,244.4 537.7,244.4 538.7,244.1 539.7,243.8 540.8,243.5 541.8,244.1 542.8,244.0 543.9,243.8 544.9,243.5 545.9,243.2 547.0,242.9 548.0,247.3 549.0,247.1 550.1,246.8 551.1,246.6 552.1,246.3 553.2,246.3 554.2,246.0 555.2,246.5 556.3,246.2 557.3,246.0 558.3,245.9 559.4,245.7 560.4,245.4 561.4,245.1 562.5,245.6 563.5,245.6 564.5,245.3 565.6,245.0 566.6,244.8 567.6,244.5 568.7,245.2 569.7,248.4 570.7,248.2 571.8,247.9 572.8,247.7 573.8,247.6 574.9,247.3 575.9,247.8 576.9,247.5 578.0,247.3 579.0,247.2 580.0,247.0 581.1,246.7 582.1,246.4 583.1,246.9 584.2,246.9 585.2,246.6 586.2,246.3 587.3,246.1 588.3,245.8 589.3,246.5 590.4,249.6 591.4,249.3 592.4,249.0 593.5,248.8 594.5,248.7 595.5,248.5 596.6,248.9 597.6,248.7 598.6,248.4 599.7,248.4 600.7,248.1 601.7,247.8 602.8,247.5 603.8,248.0 604.8,248.0 605.9,247.7 606.9,247.4 607.9,247.2 609.0,246.9 610.0,247.6 611.0,247.3 612.1,247.1 613.1,246.8 614.1,246.5 615.2,246.5 616.2,246.2 617.2,246.5 618.3,246.2 619.3,246.0 620.3,245.9 621.4,245.6 622.4,245.3 623.4,245.0 624.5,245.6 625.5,245.6 626.5,245.3 627.6,245.0 628.6,244.7 629.6,244.4 630.7,245.0 631.7,248.2 632.7,247.9 633.8,247.5 634.8,247.2 635.8,247.1 636.9,246.7 637.9,247.2 638.9,246.9 640.0,246.5 641.0,246.5 642.0,246.1 643.1,245.7 644.1,245.4 645.1,245.9 646.2,245.8 647.2,245.5 648.2,245.1 649.3,244.8 650.3,244.4 651.3,245.2 652.4,248.3 653.4,248.0 654.4,247.7 655.5,247.3 656.5,247.2 657.5,246.9 658.6,247.3 659.6,247.0 660.6,246.7 661.7,246.6 662.7,246.2 663.7,245.9 664.8,245.5 665.8,246.0 666.8,245.9 667.9,245.5 668.9,245.2 669.9,244.8 671.0,244.5 672.0,245.2 673.0,248.4 674.1,248.0 675.1,247.7 676.1,247.4 677.2,247.3 678.2,246.9 679.2,247.4 680.3,247.1 681.3,246.7 682.3,246.6 683.4,246.3 684.4,245.9 685.4,245.6 686.5,246.1 687.5,246.0 688.5,245.7 689.6,245.3 690.6,245.0 691.6,244.6 692.7,248.8 693.7,248.4 694.7,248.1 695.8,247.8 696.8,247.4 697.8,247.4 698.9,247.0 699.9,247.5 700.9,247.1 702.0,246.8 703.0,246.7 704.0,246.4 705.1,246.0 706.1,245.7 707.1,246.1 708.2,246.1 709.2,245.7 710.2,245.4 711.3,245.0 712.3,244.7 713.3,248.8 714.4,248.5 715.4,248.2 716.4,247.9 717.5,247.5 718.5,247.4 719.5,247.1 720.6,247.5 721.6,247.2 722.6,246.9 723.7,246.8 724.7,246.4 725.7,246.1 726.8,245.7 727.8,246.2 728.8,246.1 729.9,245.8 730.9,245.5 731.9,245.1 733.0,244.7 734.0,245.5 735.0,248.4 736.1,248.1 737.1,247.8 738.1,247.4 739.2,247.4 740.2,247.0 741.2,247.3 742.3,247.0 743.3,246.7 744.3,246.6 745.4,246.2 746.4,245.9 747.4,245.5 748.5,246.0 749.5,245.8 750.5,245.5 751.6,245.1 752.6,244.8 753.6,244.4 754.7,245.2 755.7,248.2 756.7,247.8 757.8,247.5 758.8,247.2 759.8,247.1 760.9,246.7 761.9,247.0 762.9,246.7 764.0,246.4 765.0,246.3 766.0,245.9 767.1,245.6 768.1,245.2 769.1,245.7 770.2,245.7 771.2,245.3 772.2,245.0 773.3,244.6 774.3,244.2 775.3,245.0 776.4,248.1 777.4,247.8 778.4,247.5 779.5,247.1 780.5,247.0 781.5,246.7 782.6,247.2 783.6,246.8 784.6,246.5 785.7,246.4 786.7,246.1 787.7,245.7 788.8,245.3 789.8,245.9 790.8,245.8 791.9,245.4 792.9,245.1 793.9,244.7 795.0,244.4 796.0,248.6"/>
<text x="640" y="72" font-family="Arial" font-size="12" fill="#2563eb">sqrt trace Ppos</text>
</svg>