<svg xmlns="http://www.w3.org/2000/svg" width="820" height="320" viewBox="0 0 820 320">
<rect width="100%" height="100%" fill="white"/>
<text x="52" y="30" font-family="Arial" font-size="18" font-weight="700">ekf_nominal covariance bounds</text>
<line x1="52" y1="274" x2="796" y2="274" stroke="#263238"/>
<line x1="52" y1="42" x2="52" y2="274" stroke="#263238"/>
<text x="52" y="306" font-family="Arial" font-size="12">time (s)</text>
<text x="630" y="306" font-family="Arial" font-size="12">m</text>

<rect x="630.7" y="42" width="165.3" height="232" fill="#fef3c7" opacity="0.72"/>
<polyline fill="none" stroke="#0f766e" stroke-width="2.3" points="52.0,171.6 53.0,171.3 54.1,171.1 55.1,170.8 56.1,170.5 57.2,161.6 58.2,161.1 59.2,158.5 60.3,157.6 61.3,156.7 62.3,165.9 63.4,165.1 64.4,164.3 65.4,163.5 66.5,171.7 67.5,177.4 68.5,178.3 69.6,179.4 70.6,180.5 71.6,181.7 72.7,258.0 73.7,258.3 74.7,258.6 75.8,259.0 76.8,259.4 77.8,257.8 78.9,258.3 79.9,253.0 80.9,252.7 82.0,252.3 83.0,250.2 84.0,249.9 85.1,249.6 86.1,249.2 87.1,259.2 88.2,255.7 89.2,256.5 90.2,257.4 91.3,258.3 92.3,259.3 93.3,265.7 94.4,260.6 95.4,261.4 96.4,262.3 97.5,263.1 98.5,263.9 99.5,265.1 100.6,263.8 101.6,265.0 102.6,266.2 103.7,267.6 104.7,268.8 105.7,269.9 106.8,271.1 107.8,269.6 108.8,264.4 109.9,265.6 110.9,266.7 111.9,267.9 113.0,269.2 114.0,260.6 115.0,261.2 116.1,261.8 117.1,262.5 118.1,263.2 119.2,270.0 120.2,270.8 121.2,250.7 122.3,250.1 123.3,249.4 124.3,248.5 125.4,247.8 126.4,247.1 127.4,246.2 128.5,253.0 129.5,254.4 130.5,254.1 131.6,253.7 132.6,253.3 133.6,252.9 134.7,265.5 135.7,264.3 136.7,264.0 137.8,263.7 138.8,263.4 139.8,262.6 140.9,262.3 141.9,258.9 142.9,258.4 144.0,257.9 145.0,254.2 146.0,253.8 147.1,253.3 148.1,252.9 149.1,245.4 150.2,247.0 151.2,246.4 152.2,245.7 153.3,244.9 154.3,244.2 155.3,244.9 156.4,198.9 157.4,198.2 158.4,197.5 159.5,196.9 160.5,196.9 161.5,196.2 162.6,195.2 163.6,194.4 164.6,193.7 165.7,190.4 166.7,189.6 167.7,188.8 168.8,188.0 169.8,206.1 170.8,206.1 171.9,206.1 172.9,206.0 173.9,206.0 175.0,206.0 176.0,192.8 177.0,193.0 178.1,193.1 179.1,193.3 180.1,193.4 181.2,193.6 182.2,193.8 183.2,190.4 184.3,190.4 185.3,190.4 186.3,194.0 187.4,194.0 188.4,194.0 189.4,194.1 190.5,197.8 191.5,199.9 192.5,200.0 193.6,200.2 194.6,200.3 195.6,200.4 196.7,217.1 197.7,217.6 198.7,218.2 199.8,218.8 200.8,219.4 201.8,219.9 202.9,220.5 203.9,217.2 204.9,217.6 206.0,218.0 207.0,218.4 208.0,218.8 209.1,219.2 210.1,219.6 211.1,211.9 212.2,212.1 213.2,212.2 214.2,212.3 215.3,212.4 216.3,212.5 217.3,202.3 218.4,183.3 219.4,183.1 220.4,182.8 221.5,182.4 222.5,181.9 223.5,181.5 224.6,186.7 225.6,186.5 226.6,186.3 227.7,186.1 228.7,185.9 229.7,185.7 230.8,185.4 231.8,192.3 232.8,192.3 233.9,192.2 234.9,192.0 235.9,191.9 237.0,191.7 238.0,192.1 239.0,194.9 240.1,194.9 241.1,194.8 242.1,194.8 243.2,195.0 244.2,195.0 245.2,208.5 246.3,208.8 247.3,209.1 248.3,209.5 249.4,209.8 250.4,210.1 251.4,210.4 252.5,217.8 253.5,217.4 254.5,218.0 255.6,218.5 256.6,219.1 257.6,219.6 258.7,231.0 259.7,231.4 260.7,231.8 261.8,232.1 262.8,232.5 263.8,232.8 264.9,233.1 265.9,244.1 266.9,244.8 268.0,245.5 269.0,246.5 270.0,247.1 271.1,247.7 272.1,248.3 273.1,254.8 274.2,253.6 275.2,254.4 276.2,255.2 277.3,255.9 278.3,256.7 279.3,249.3 280.4,251.6 281.4,252.2 282.4,252.9 283.5,253.5 284.5,252.7 285.5,253.3 286.6,250.7 287.6,251.3 288.6,251.9 289.7,253.1 290.7,253.7 291.7,254.3 292.8,254.9 293.8,254.7 294.8,255.6 295.9,256.1 296.9,256.6 297.9,257.1 299.0,257.6 300.0,271.3 301.0,271.8 302.1,272.2 303.1,272.7 304.1,273.1 305.2,273.6 306.2,274.0 307.2,263.4 308.3,263.5 309.3,263.7 310.3,261.1 311.4,261.2 312.4,261.3 313.4,261.4 314.5,252.8 315.5,253.0 316.5,252.9 317.6,252.8 318.6,252.6 319.6,252.4 320.7,264.0 321.7,264.0 322.7,264.1 323.8,264.1 324.8,264.2 325.8,265.1 326.9,265.2 327.9,261.5 328.9,261.5 330.0,261.5 331.0,258.5 332.0,258.4 333.1,258.4 334.1,258.3 335.1,248.3 336.2,247.5 337.2,247.1 338.2,246.7 339.3,246.3 340.3,245.8 341.3,243.4 342.4,208.8 343.4,208.2 344.4,207.6 345.5,207.0 346.5,208.1 347.5,207.5 348.6,216.7 349.6,216.4 350.6,216.1 351.7,217.6 352.7,217.3 353.7,217.0 354.8,216.6 355.8,225.6 356.8,223.6 357.9,223.4 358.9,223.2 359.9,223.0 361.0,222.8 362.0,230.9 363.0,230.9 364.1,231.0 365.1,230.9 366.1,231.0 367.2,231.9 368.2,232.0 369.2,222.2 370.3,222.0 371.3,221.8 372.3,222.1 373.4,221.9 374.4,221.7 375.4,221.5 376.5,221.9 377.5,221.2 378.5,221.0 379.6,220.8 380.6,220.6 381.6,220.4 382.7,222.0 383.7,221.8 384.7,221.6 385.8,221.4 386.8,221.2 387.8,221.0 388.9,220.8 389.9,218.9 390.9,218.5 392.0,218.2 393.0,217.9 394.0,217.5 395.1,217.2 396.1,216.8 397.1,221.9 398.2,221.1 399.2,220.8 400.2,220.6 401.3,220.4 402.3,220.2 403.3,222.9 404.4,222.7 405.4,222.5 406.4,222.4 407.5,222.2 408.5,221.9 409.5,221.8 410.6,221.5 411.6,221.3 412.6,221.1 413.7,219.8 414.7,219.7 415.7,219.5 416.8,219.4 417.8,220.1 418.8,219.6 419.9,219.5 420.9,219.3 421.9,219.2 423.0,219.0 424.0,220.4 425.0,220.2 426.1,220.1 427.1,219.9 428.1,219.7 429.2,220.3 430.2,220.2 431.2,215.7 432.3,215.4 433.3,215.2 434.3,215.7 435.4,215.4 436.4,215.2 437.4,214.9 438.5,197.7 439.5,197.0 440.5,196.3 441.6,195.7 442.6,195.0 443.6,194.4 444.7,200.9 445.7,200.5 446.7,200.0 447.8,199.6 448.8,199.2 449.8,198.8 450.9,198.4 451.9,207.6 452.9,207.4 454.0,207.1 455.0,206.2 456.0,205.9 457.1,205.6 458.1,205.4 459.1,200.3 460.2,198.5 461.2,198.2 462.2,197.9 463.3,197.6 464.3,197.4 465.3,197.5 466.4,197.4 467.4,197.3 468.4,197.2 469.5,197.1 470.5,196.7 471.5,196.6 472.6,198.3 473.6,198.2 474.6,198.1 475.7,198.8 476.7,198.7 477.7,198.6 478.8,198.4 479.8,186.3 480.8,187.0 481.9,186.6 482.9,186.2 483.9,185.8 485.0,185.4 486.0,187.7 487.0,190.7 488.1,190.4 489.1,190.1 490.1,189.9 491.2,190.3 492.2,190.0 493.2,200.7 494.3,200.7 495.3,200.6 496.3,200.6 497.4,200.6 498.4,200.5 499.4,200.4 500.5,199.2 501.5,199.1 502.5,199.0 503.6,198.9 504.6,198.8 505.6,198.7 506.7,225.0 507.7,225.1 508.7,225.3 509.8,225.5 510.8,225.6 511.8,225.5 512.9,225.6 513.9,221.0 514.9,221.1 516.0,221.1 517.0,221.2 518.0,221.2 519.1,221.2 520.1,221.2 521.1,212.1 522.2,210.2 523.2,210.0 524.2,209.9 525.3,209.7 526.3,209.5 527.3,235.4 528.4,235.3 529.4,235.2 530.4,235.1 531.5,234.9 532.5,233.7 533.5,233.6 534.6,231.6 535.6,231.4 536.6,231.3 537.7,232.8 538.7,232.7 539.7,232.5 540.8,232.4 541.8,242.5 542.8,243.9 543.9,244.0 544.9,244.1 545.9,244.2 547.0,244.4 548.0,244.3 549.0,244.3 550.1,244.4 551.1,244.4 552.1,244.4 553.2,244.6 554.2,244.7 555.2,237.6 556.3,237.5 557.3,237.4 558.3,237.4 559.4,237.3 560.4,237.1 561.4,237.0 562.5,239.7 563.5,239.9 564.5,239.9 565.6,239.9 566.6,239.9 567.6,240.0 568.7,247.3 569.7,238.7 570.7,239.0 571.8,239.3 572.8,239.6 573.8,240.0 574.9,240.3 575.9,239.8 576.9,240.1 578.0,240.3 579.0,240.7 580.0,240.9 581.1,241.2 582.1,241.4 583.1,249.4 584.2,249.8 585.2,250.2 586.2,250.7 587.3,251.1 588.3,251.5 589.3,254.3 590.4,252.4 591.4,252.9 592.4,253.4 593.5,253.9 594.5,253.8 595.5,254.4 596.6,250.6 597.6,251.0 598.6,251.5 599.7,253.6 600.7,254.1 601.7,254.6 602.8,255.1 603.8,246.0 604.8,246.2 605.9,246.4 606.9,246.7 607.9,247.0 609.0,247.3 610.0,245.8 611.0,246.1 612.1,246.4 613.1,246.7 614.1,247.0 615.2,248.1 616.2,248.4 617.2,227.2 618.3,226.9 619.3,226.7 620.3,226.3 621.4,226.1 622.4,225.7 623.4,225.5 624.5,223.9 625.5,223.6 626.5,223.3 627.6,222.9 628.6,222.6 629.6,222.4 630.7,219.7 631.7,221.6 632.7,221.3 633.8,221.0 634.8,220.7 635.8,220.3 636.9,220.0 637.9,216.6 638.9,216.2 640.0,215.9 641.0,215.8 642.0,215.4 643.1,215.1 644.1,214.8 645.1,220.0 646.2,218.5 647.2,218.3 648.2,218.0 649.3,217.8 650.3,217.5 651.3,211.2 652.4,195.2 653.4,194.8 654.4,194.4 655.5,194.0 656.5,195.6 657.5,195.2 658.6,206.5 659.6,206.4 660.6,206.2 661.7,206.0 662.7,205.8 663.7,205.6 664.8,205.4 665.8,208.6 666.8,204.6 667.9,204.3 668.9,204.1 669.9,203.8 671.0,203.5 672.0,189.5 673.0,180.2 674.1,179.6 675.1,179.0 676.1,178.4 677.2,176.2 678.2,175.6 679.2,185.4 680.3,185.0 681.3,184.6 682.3,186.3 683.4,186.0 684.4,185.7 685.4,185.3 686.5,184.1 687.5,186.4 688.5,186.1 689.6,185.7 690.6,185.4 691.6,185.1 692.7,187.3 693.7,186.8 694.7,186.4 695.8,186.0 696.8,185.6 697.8,187.2 698.9,186.8 699.9,186.4 700.9,186.0 702.0,185.6 703.0,187.5 704.0,187.1 705.1,186.6 706.1,186.2 707.1,193.0 708.2,191.8 709.2,191.5 710.2,191.1 711.3,190.8 712.3,190.5 713.3,224.1 714.4,224.0 715.4,223.8 716.4,223.6 717.5,223.4 718.5,223.9 719.5,223.7 720.6,231.1 721.6,231.1 722.6,231.1 723.7,228.1 724.7,228.1 725.7,228.0 726.8,228.0 727.8,217.7 728.8,221.6 729.9,221.4 730.9,221.2 731.9,221.0 733.0,220.8 734.0,228.2 735.0,210.2 736.1,210.1 737.1,210.1 738.1,210.0 739.2,210.7 740.2,210.7 741.2,223.3 742.3,223.5 743.3,223.7 744.3,225.2 745.4,225.4 746.4,225.6 747.4,225.8 748.5,220.8 749.5,227.9 750.5,228.1 751.6,228.3 752.6,228.5 753.6,228.7 754.7,229.1 755.7,217.4 756.7,217.6 757.8,217.7 758.8,217.9 759.8,216.4 760.9,216.5 761.9,205.1 762.9,205.0 764.0,204.9 765.0,204.5 766.0,204.3 767.1,204.2 768.1,204.1 769.1,200.5 770.2,200.0 771.2,199.7 772.2,199.5 773.3,199.2 774.3,198.9 775.3,207.7 776.4,211.5 777.4,211.3 778.4,211.2 779.5,211.0 780.5,215.1 781.5,215.1 782.6,211.1 783.6,210.9 784.6,210.8 785.7,207.6 786.7,207.4 787.7,207.3 788.8,207.1 789.8,200.3 790.8,200.7 791.9,200.4 792.9,200.0 793.9,199.7 795.0,199.3 796.0,188.8"/>
<text x="640" y="56" font-family="Arial" font-size="12" fill="#0f766e">position error</text>
<polyline fill="none" stroke="#2563eb" stroke-width="2.3" points="52.0,42.1 53.0,42.1 54.1,42.1 55.1,42.1 56.1,42.0 57.2,49.1 58.2,49.0 59.2,49.1 60.3,49.0 61.3,48.9 62.3,51.7 63.4,51.6 64.4,51.5 65.4,51.4 66.5,51.6 67.5,53.1 68.5,53.0 69.6,52.9 70.6,52.8 71.6,52.7 72.7,134.0 73.7,133.9 74.7,133.8 75.8,133.7 76.8,133.6 77.8,134.3 78.9,134.1 79.9,134.4 80.9,134.3 82.0,134.2 83.0,134.7 84.0,134.6 85.1,134.4 86.1,134.2 87.1,134.6 88.2,135.0 89.2,134.8 90.2,134.7 91.3,134.5 92.3,134.3 93.3,135.2 94.4,171.9 95.4,171.7 96.4,171.6 97.5,171.4 98.5,171.7 99.5,171.5 100.6,171.8 101.6,171.7 102.6,171.5 103.7,171.7 104.7,171.5 105.7,171.3 106.8,171.1 107.8,171.6 108.8,171.7 109.9,171.6 110.9,171.4 111.9,171.2 113.0,170.9 114.0,194.2 115.0,194.0 116.1,193.9 117.1,193.7 118.1,193.5 119.2,193.6 120.2,193.3 121.2,193.8 122.3,193.6 123.3,193.4 124.3,193.5 125.4,193.3 126.4,193.0 127.4,192.8 128.5,193.3 129.5,193.4 130.5,193.2 131.6,192.9 132.6,192.7 133.6,192.5 134.7,193.3 135.7,208.8 136.7,208.6 137.8,208.4 138.8,208.2 139.8,208.2 140.9,208.0 141.9,208.4 142.9,208.2 144.0,208.0 145.0,208.0 146.0,207.8 147.1,207.5 148.1,207.3 149.1,207.8 150.2,207.9 151.2,207.6 152.2,207.4 153.3,207.1 154.3,206.9 155.3,207.7 156.4,219.4 157.4,219.2 158.4,218.9 159.5,218.7 160.5,218.7 161.5,218.4 162.6,218.9 163.6,218.7 164.6,218.5 165.7,218.5 166.7,218.2 167.7,217.9 168.8,217.7 169.8,218.3 170.8,218.2 171.9,218.0 172.9,217.7 173.9,217.5 175.0,217.2 176.0,227.5 177.0,227.3 178.1,227.1 179.1,226.8 180.1,226.6 181.2,226.5 182.2,226.3 183.2,226.8 184.3,226.6 185.3,226.3 186.3,226.3 187.4,226.0 188.4,225.7 189.4,225.4 190.5,226.0 191.5,226.0 192.5,225.8 193.6,225.5 194.6,225.2 195.6,224.9 196.7,233.7 197.7,233.4 198.7,233.2 199.8,232.9 200.8,232.7 201.8,232.6 202.9,232.3 203.9,232.9 204.9,232.6 206.0,232.4 207.0,232.3 208.0,232.1 209.1,231.8 210.1,231.5 211.1,232.1 212.2,232.1 213.2,231.8 214.2,231.5 215.3,231.2 216.3,230.9 217.3,231.8 218.4,238.3 219.4,238.1 220.4,237.8 221.5,237.5 222.5,237.5 223.5,237.2 224.6,237.8 225.6,237.5 226.6,237.2 227.7,237.2 228.7,236.9 229.7,236.6 230.8,236.3 231.8,236.9 232.8,236.9 233.9,236.6 234.9,236.3 235.9,236.0 237.0,235.7 238.0,236.6 239.0,242.3 240.1,242.0 241.1,241.8 242.1,241.5 243.2,241.4 244.2,241.1 245.2,241.7 246.3,241.4 247.3,241.1 248.3,241.1 249.4,240.8 250.4,240.5 251.4,240.2 252.5,240.8 253.5,240.8 254.5,240.5 255.6,240.2 256.6,239.9 257.6,239.6 258.7,245.8 259.7,245.5 260.7,245.2 261.8,245.0 262.8,244.7 263.8,244.6 264.9,244.3 265.9,244.9 266.9,244.6 268.0,244.3 269.0,244.3 270.0,244.0 271.1,243.7 272.1,243.3 273.1,244.0 274.2,243.9 275.2,243.6 276.2,243.3 277.3,243.0 278.3,242.7 279.3,243.6 280.4,248.2 281.4,247.9 282.4,247.6 283.5,247.3 284.5,247.3 285.5,247.0 286.6,247.6 287.6,247.3 288.6,247.0 289.7,246.9 290.7,246.6 291.7,246.3 292.8,246.0 293.8,246.6 294.8,246.6 295.9,246.3 296.9,246.0 297.9,245.6 299.0,245.3 300.0,250.7 301.0,250.4 302.1,250.2 303.1,249.9 304.1,249.5 305.2,249.5 306.2,249.2 307.2,249.8 308.3,249.5 309.3,249.2 310.3,249.1 311.4,248.8 312.4,248.5 313.4,248.2 314.5,248.8 315.5,248.8 316.5,248.5 317.6,248.1 318.6,247.8 319.6,247.5 320.7,252.6 321.7,252.3 322.7,252.0 323.8,251.7 324.8,251.4 325.8,251.4 326.9,251.0 327.9,251.6 328.9,251.3 330.0,251.0 331.0,251.0 332.0,250.7 333.1,250.3 334.1,250.0 335.1,250.6 336.2,250.6 337.2,250.3 338.2,250.0 339.3,249.6 340.3,249.3 341.3,250.2 342.4,253.9 343.4,253.6 344.4,253.3 345.5,253.0 346.5,252.9 347.5,252.6 348.6,253.2 349.6,252.9 350.6,252.6 351.7,252.6 352.7,252.2 353.7,251.9 354.8,251.6 355.8,252.2 356.8,252.2 357.9,251.9 358.9,251.5 359.9,251.2 361.0,250.9 362.0,251.8 363.0,251.5 364.1,251.2 365.1,250.8 366.1,250.5 367.2,250.5 368.2,250.1 369.2,250.8 370.3,250.5 371.3,250.2 372.3,250.1 373.4,249.8 374.4,249.4 375.4,249.1 376.5,249.8 377.5,249.8 378.5,249.4 379.6,249.1 380.6,248.8 381.6,248.4 382.7,249.4 383.7,249.1 384.7,248.8 385.8,248.4 386.8,248.1 387.8,248.0 388.9,247.7 389.9,248.4 390.9,248.1 392.0,247.8 393.0,247.7 394.0,247.4 395.1,247.1 396.1,246.7 397.1,247.5 398.2,247.4 399.2,247.1 400.2,246.8 401.3,246.4 402.3,246.1 403.3,247.1 404.4,246.8 405.4,246.5 406.4,246.1 407.5,245.8 408.5,245.7 409.5,245.4 410.6,246.1 411.6,245.8 412.6,245.5 413.7,245.4 414.7,245.1 415.7,244.8 416.8,244.4 417.8,245.2 418.8,245.1 419.9,244.8 420.9,244.5 421.9,244.2 423.0,243.8 424.0,244.8 425.0,244.5 426.1,244.2 427.1,243.9 428.1,243.6 429.2,243.5 430.2,243.2 431.2,243.9 432.3,243.6 433.3,243.3 434.3,243.2 435.4,242.9 436.4,242.6 437.4,242.2 438.5,243.0 439.5,242.9 440.5,242.6 441.6,242.3 442.6,242.0 443.6,241.6 444.7,242.6 445.7,242.3 446.7,242.0 447.8,241.7 448.8,241.4 449.8,241.3 450.9,241.0 451.9,241.7 452.9,241.4 454.0,241.1 455.0,241.0 456.0,240.7 457.1,240.4 458.1,240.1 459.1,240.8 460.2,240.7 461.2,240.4 462.2,240.1 463.3,239.8 464.3,239.5 465.3,245.9 466.4,245.6 467.4,245.3 468.4,245.0 469.5,244.7 470.5,244.6 471.5,244.3 472.6,244.9 473.6,244.6 474.6,244.4 475.7,244.3 476.7,244.0 477.7,243.7 478.8,243.4 479.8,244.0 480.8,244.0 481.9,243.7 482.9,243.4 483.9,243.1 485.0,242.7 486.0,243.6 487.0,248.3 488.1,248.0 489.1,247.7 490.1,247.4 491.2,247.4 492.2,247.1 493.2,247.6 494.3,247.3 495.3,247.1 496.3,247.0 497.4,246.7 498.4,246.4 499.4,246.1 500.5,246.7 501.5,246.6 502.5,246.3 503.6,246.1 504.6,245.7 505.6,245.4 506.7,250.8 507.7,250.5 508.7,250.3 509.8,250.0 510.8,249.7 511.8,249.6 512.9,249.3 513.9,249.8 514.9,249.6 516.0,249.3 517.0,249.2 518.0,248.9 519.1,248.6 520.1,248.3 521.1,248.9 522.2,248.8 523.2,248.6 524.2,248.3 525.3,248.0 526.3,247.6 527.3,252.7 528.4,252.4 529.4,252.1 530.4,251.9 531.5,251.6 532.5,251.5 533.5,251.2 534.6,251.7 535.6,251.4 536.6,251.2 537.7,251.1 538.7,250.8 539.7,250.5 540.8,250.2 541.8,250.7 542.8,250.7 543.9,250.4 544.9,250.1 545.9,249.8 547.0,249.5 548.0,254.3 549.0,254.0 550.1,253.7 551.1,253.4 552.1,253.2 553.2,253.1 554.2,252.8 555.2,253.3 556.3,253.0 557.3,252.7 558.3,252.7 559.4,252.4 560.4,252.1 561.4,251.8 562.5,252.3 563.5,252.3 564.5,252.0 565.6,251.7 566.6,251.4 567.6,251.1 568.7,251.9 569.7,255.4 570.7,255.1 571.8,254.8 572.8,254.5 573.8,254.5 574.9,254.2 575.9,254.7 576.9,254.4 578.0,254.1 579.0,254.0 580.0,253.7 581.1,253.4 582.1,253.1 583.1,253.7 584.2,253.6 585.2,253.3 586.2,253.0 587.3,252.7 588.3,252.4 589.3,253.2 590.4,256.6 591.4,256.3 592.4,256.0 593.5,255.7 594.5,255.6 595.5,255.3 596.6,255.8 597.6,255.5 598.6,255.2 599.7,255.2 600.7,254.9 601.7,254.6 602.8,254.3 603.8,254.8 604.8,254.8 605.9,254.5 606.9,254.2 607.9,253.9 609.0,253.5 610.0,254.3 611.0,254.1 612.1,253.8 613.1,253.4 614.1,253.1 615.2,253.1 616.2,252.8 617.2,253.3 618.3,253.0 619.3,252.7 620.3,252.7 621.4,252.4 622.4,252.0 623.4,251.7 624.5,252.3 625.5,252.3 626.5,252.0 627.6,251.7 628.6,251.4 629.6,251.0 630.7,251.8 631.7,255.3 632.7,254.9 633.8,254.6 634.8,254.2 635.8,254.1 636.9,253.7 637.9,254.2 638.9,253.8 640.0,253.4 641.0,253.3 642.0,252.9 643.1,252.5 644.1,252.1 645.1,252.7 646.2,252.6 647.2,252.2 648.2,251.8 649.3,251.4 650.3,251.0 651.3,251.8 652.4,255.3 653.4,254.9 654.4,254.6 655.5,254.2 656.5,254.1 657.5,253.7 658.6,254.2 659.6,253.8 660.6,253.4 661.7,253.3 662.7,252.9 663.7,252.6 664.8,252.2 665.8,252.7 666.8,252.6 667.9,252.2 668.9,251.8 669.9,251.4 671.0,251.0 672.0,251.9 673.0,255.3 674.1,254.9 675.1,254.6 676.1,254.2 677.2,254.1 678.2,253.7 679.2,254.2 680.3,253.8 681.3,253.5 682.3,253.4 683.4,253.0 684.4,252.6 685.4,252.2 686.5,252.7 687.5,252.6 688.5,252.2 689.6,251.9 690.6,251.5 691.6,251.1 692.7,255.7 693.7,255.3 694.7,254.9 695.8,254.6 696.8,254.2 697.8,254.1 698.9,253.7 699.9,254.2 700.9,253.8 702.0,253.5 703.0,253.4 704.0,253.0 705.1,252.6 706.1,252.2 707.1,252.7 708.2,252.6 709.2,252.3 710.2,251.9 711.3,251.5 712.3,251.1 713.3,255.7 714.4,255.3 715.4,254.9 716.4,254.6 717.5,254.2 718.5,254.1 719.5,253.7 720.6,254.2 721.6,253.8 722.6,253.5 723.7,253.4 724.7,253.0 725.7,252.6 726.8,252.2 727.8,252.7 728.8,252.6 729.9,252.3 730.9,251.9 731.9,251.5 733.0,251.1 734.0,251.9 735.0,255.3 736.1,255.0 737.1,254.6 738.1,254.2 739.2,254.1 740.2,253.7 741.2,254.2 742.3,253.9 743.3,253.5 744.3,253.4 745.4,253.0 746.4,252.6 747.4,252.2 748.5,252.8 749.5,252.7 750.5,252.3 751.6,251.9 752.6,251.5 753.6,251.1 754.7,252.0 755.7,255.4 756.7,255.0 757.8,254.6 758.8,254.3 759.8,254.2 760.9,253.8 761.9,254.3 762.9,253.9 764.0,253.5 765.0,253.4 766.0,253.1 767.1,252.7 768.1,252.3 769.1,252.8 770.2,252.7 771.2,252.3 772.2,252.0 773.3,251.6 774.3,251.2 775.3,252.0 776.4,255.4 777.4,255.0 778.4,254.7 779.5,254.3 780.5,254.2 781.5,253.8 782.6,254.3 783.6,253.9 784.6,253.6 785.7,253.5 786.7,253.1 787.7,252.7 788.8,252.3 789.8,252.8 790.8,252.8 791.9,252.4 792.9,252.0 793.9,251.6 795.0,251.2 796.0,255.8"/>
<text x="640" y="72" font-family="Arial" font-size="12" fill="#2563eb">sqrt trace Ppos</text>
</svg>