<svg xmlns="http://www.w3.org/2000/svg" width="820" height="320" viewBox="0 0 820 320">
<rect width="100%" height="100%" fill="white"/>
<text x="52" y="30" font-family="Arial" font-size="18" font-weight="700">robust_dropout_robust covariance bounds</text>
<line x1="52" y1="274" x2="796" y2="274" stroke="#263238"/>
<line x1="52" y1="42" x2="52" y2="274" stroke="#263238"/>
<text x="52" y="306" font-family="Arial" font-size="12">time (s)</text>
<text x="630" y="306" font-family="Arial" font-size="12">m</text>

<rect x="630.7" y="42" width="165.3" height="232" fill="#fef3c7" opacity="0.72"/>
<polyline fill="none" stroke="#0f766e" stroke-width="2.3" points="52.0,182.3 53.0,182.1 54.1,181.8 55.1,181.6 56.1,181.4 57.2,185.2 58.2,184.8 59.2,182.3 60.3,181.5 61.3,180.7 62.3,184.3 63.4,183.6 64.4,182.9 65.4,182.2 66.5,189.3 67.5,187.8 68.5,188.7 69.6,189.6 70.6,190.6 71.6,191.6 72.7,261.8 73.7,262.1 74.7,262.3 75.8,262.6 76.8,262.9 77.8,261.8 78.9,262.1 79.9,258.7 80.9,258.5 82.0,258.1 83.0,256.7 84.0,256.5 85.1,256.2 86.1,255.9 87.1,262.1 88.2,259.4 89.2,260.1 90.2,260.7 91.3,261.5 92.3,262.3 93.3,267.2 94.4,259.0 95.4,259.6 96.4,260.1 97.5,260.6 98.5,263.3 99.5,264.2 100.6,263.1 101.6,264.0 102.6,264.9 103.7,265.8 104.7,266.7 105.7,267.6 106.8,268.5 107.8,269.0 108.8,266.2 109.9,267.2 110.9,268.2 111.9,269.3 113.0,270.4 114.0,262.0 115.0,262.4 116.1,262.8 117.1,263.3 118.1,263.7 119.2,267.5 120.2,267.9 121.2,253.6 122.3,253.0 123.3,252.3 124.3,251.4 125.4,250.7 126.4,250.0 127.4,249.2 128.5,253.5 129.5,254.1 130.5,253.6 131.6,253.2 132.6,252.7 133.6,252.2 134.7,261.4 135.7,274.0 136.7,273.7 137.8,273.4 138.8,273.1 139.8,272.4 140.9,272.1 141.9,269.5 142.9,269.1 144.0,268.6 145.0,265.2 146.0,264.8 147.1,264.3 148.1,263.9 149.1,257.0 150.2,258.3 151.2,257.6 152.2,256.8 153.3,256.0 154.3,255.2 155.3,256.4 156.4,213.7 157.4,213.0 158.4,212.4 159.5,211.8 160.5,211.7 161.5,211.0 162.6,210.7 163.6,210.1 164.6,209.4 165.7,206.8 166.7,206.2 167.7,205.5 168.8,204.8 169.8,213.1 170.8,213.0 171.9,212.8 172.9,212.7 173.9,212.5 175.0,212.3 176.0,198.2 177.0,198.2 178.1,198.3 179.1,198.3 180.1,198.4 181.2,198.6 182.2,198.7 183.2,194.2 184.3,194.0 185.3,193.8 186.3,196.6 187.4,196.4 188.4,196.3 189.4,196.1 190.5,200.6 191.5,202.6 192.5,202.7 193.6,202.8 194.6,202.8 195.6,202.9 196.7,213.0 197.7,213.4 198.7,213.8 199.8,214.2 200.8,214.6 201.8,215.2 202.9,215.5 203.9,212.9 204.9,213.2 206.0,213.4 207.0,213.7 208.0,213.8 209.1,214.0 210.1,214.2 211.1,208.9 212.2,208.7 213.2,208.6 214.2,208.5 215.3,208.3 216.3,208.2 217.3,200.6 218.4,184.4 219.4,183.8 220.4,183.2 221.5,182.6 222.5,181.7 223.5,181.1 224.6,187.3 225.6,187.0 226.6,186.7 227.7,186.7 228.7,186.3 229.7,186.0 230.8,185.6 231.8,191.8 232.8,192.1 233.9,192.0 234.9,191.9 235.9,191.8 237.0,191.7 238.0,191.0 239.0,193.3 240.1,193.2 241.1,193.1 242.1,193.0 243.2,193.6 244.2,193.5 245.2,199.9 246.3,200.1 247.3,200.3 248.3,200.7 249.4,200.8 250.4,201.0 251.4,201.1 252.5,208.5 253.5,209.8 254.5,210.3 255.6,210.9 256.6,211.5 257.6,212.0 258.7,222.4 259.7,222.7 260.7,223.0 261.8,223.3 262.8,223.5 263.8,223.9 264.9,224.1 265.9,233.3 266.9,234.1 268.0,234.9 269.0,235.5 270.0,236.2 271.1,236.9 272.1,237.6 273.1,243.0 274.2,243.7 275.2,244.6 276.2,245.6 277.3,246.5 278.3,247.4 279.3,239.9 280.4,242.2 281.4,242.8 282.4,243.4 283.5,244.0 284.5,244.4 285.5,245.0 286.6,242.0 287.6,242.4 288.6,242.8 289.7,243.3 290.7,243.8 291.7,244.2 292.8,244.6 293.8,245.8 294.8,246.3 295.9,246.7 296.9,247.2 297.9,247.6 299.0,248.0 300.0,260.3 301.0,260.7 302.1,261.0 303.1,261.4 304.1,261.7 305.2,262.0 306.2,262.3 307.2,254.4 308.3,254.3 309.3,254.1 310.3,252.9 311.4,252.8 312.4,252.6 313.4,252.4 314.5,245.9 315.5,245.5 316.5,245.0 317.6,244.5 318.6,244.0 319.6,243.5 320.7,255.5 321.7,255.4 322.7,255.3 323.8,255.3 324.8,255.2 325.8,255.5 326.9,255.4 327.9,252.7 328.9,252.5 330.0,252.4 331.0,250.8 332.0,250.7 333.1,250.4 334.1,250.2 335.1,243.2 336.2,242.2 337.2,241.5 338.2,240.9 339.3,240.2 340.3,239.5 341.3,237.5 342.4,209.1 343.4,208.2 344.4,207.3 345.5,206.4 346.5,206.5 347.5,205.6 348.6,214.6 349.6,214.3 350.6,213.9 351.7,214.9 352.7,214.5 353.7,214.2 354.8,213.8 355.8,221.2 356.8,219.9 357.9,219.7 358.9,219.6 359.9,219.5 361.0,219.4 362.0,226.1 363.0,226.3 364.1,226.6 365.1,226.7 366.1,226.9 367.2,228.1 368.2,228.3 369.2,219.4 370.3,219.2 371.3,219.0 372.3,219.4 373.4,219.2 374.4,219.0 375.4,218.8 376.5,219.1 377.5,218.3 378.5,218.1 379.6,217.9 380.6,217.7 381.6,217.5 382.7,219.4 383.7,219.3 384.7,219.1 385.8,218.9 386.8,218.8 387.8,218.7 388.9,218.5 389.9,216.9 390.9,216.6 392.0,216.3 393.0,216.2 394.0,215.9 395.1,215.5 396.1,215.2 397.1,219.3 398.2,219.4 399.2,219.3 400.2,219.2 401.3,219.1 402.3,219.0 403.3,220.9 404.4,220.9 405.4,220.9 406.4,220.9 407.5,220.9 408.5,220.8 409.5,220.8 410.6,220.0 411.6,219.9 412.6,219.9 413.7,219.7 414.7,219.6 415.7,219.7 416.8,219.7 417.8,219.9 418.8,219.8 419.9,219.8 420.9,219.7 421.9,219.7 423.0,219.7 424.0,220.1 425.0,220.1 426.1,220.0 427.1,220.0 428.1,219.9 429.2,220.1 430.2,220.1 431.2,216.5 432.3,216.4 433.3,216.2 434.3,216.2 435.4,216.0 436.4,215.8 437.4,215.6 438.5,204.9 439.5,204.2 440.5,203.4 441.6,202.6 442.6,201.9 443.6,201.1 444.7,206.7 445.7,206.3 446.7,205.9 447.8,205.5 448.8,205.1 449.8,204.8 450.9,204.4 451.9,212.6 452.9,212.5 454.0,212.5 455.0,212.1 456.0,212.1 457.1,212.0 458.1,211.9 459.1,207.9 460.2,207.0 461.2,206.9 462.2,206.7 463.3,206.5 464.3,206.4 465.3,204.3 466.4,204.4 467.4,204.6 468.4,204.7 469.5,204.9 470.5,204.8 471.5,204.9 472.6,205.1 473.6,205.2 474.6,205.3 475.7,205.7 476.7,205.8 477.7,205.8 478.8,205.9 479.8,195.7 480.8,195.7 481.9,195.3 482.9,194.8 483.9,194.4 485.0,194.0 486.0,195.9 487.0,198.0 488.1,197.7 489.1,197.4 490.1,197.1 491.2,197.2 492.2,196.9 493.2,205.5 494.3,205.7 495.3,205.8 496.3,205.9 497.4,206.1 498.4,206.2 499.4,206.3 500.5,204.5 501.5,204.5 502.5,204.5 503.6,204.6 504.6,204.6 505.6,204.6 506.7,222.5 507.7,222.7 508.7,223.0 509.8,223.3 510.8,223.6 511.8,223.5 512.9,223.8 513.9,219.5 514.9,219.6 516.0,219.6 517.0,219.6 518.0,219.6 519.1,219.6 520.1,219.6 521.1,211.9 522.2,211.3 523.2,210.9 524.2,210.6 525.3,210.2 526.3,209.8 527.3,233.7 528.4,233.3 529.4,233.0 530.4,232.7 531.5,232.4 532.5,231.9 533.5,231.6 534.6,231.4 535.6,231.2 536.6,230.9 537.7,231.2 538.7,230.9 539.7,230.7 540.8,230.4 541.8,239.1 542.8,239.4 543.9,239.5 544.9,239.7 545.9,239.8 547.0,240.0 548.0,238.8 549.0,238.8 550.1,238.9 551.1,238.9 552.1,238.9 553.2,239.2 554.2,239.2 555.2,233.1 556.3,232.9 557.3,232.6 558.3,232.4 559.4,232.2 560.4,231.9 561.4,231.6 562.5,234.6 563.5,234.8 564.5,234.8 565.6,234.7 566.6,234.7 567.6,234.6 568.7,241.1 569.7,234.4 570.7,234.8 571.8,235.1 572.8,235.5 573.8,235.8 574.9,236.2 575.9,235.6 576.9,235.9 578.0,236.2 579.0,236.5 580.0,236.8 581.1,237.1 582.1,237.4 583.1,243.7 584.2,244.3 585.2,244.8 586.2,245.4 587.3,246.0 588.3,246.6 589.3,248.4 590.4,247.1 591.4,247.7 592.4,248.4 593.5,249.0 594.5,249.5 595.5,250.2 596.6,246.2 597.6,246.6 598.6,247.1 599.7,248.4 600.7,248.9 601.7,249.4 602.8,249.9 603.8,241.7 604.8,241.7 605.9,241.8 606.9,241.9 607.9,242.0 609.0,242.1 610.0,241.8 611.0,241.8 612.1,241.9 613.1,242.1 614.1,242.2 615.2,242.5 616.2,242.6 617.2,232.7 618.3,232.3 619.3,231.9 620.3,231.4 621.4,230.9 622.4,230.4 623.4,230.0 624.5,229.7 625.5,229.3 626.5,228.9 627.6,228.4 628.6,228.0 629.6,227.5 630.7,226.6 631.7,227.3 632.7,226.9 633.8,226.5 634.8,226.2 635.8,225.7 636.9,225.3 637.9,222.9 638.9,222.4 640.0,221.9 641.0,221.5 642.0,221.0 643.1,220.5 644.1,220.0 645.1,226.1 646.2,225.2 647.2,225.0 648.2,224.7 649.3,224.5 650.3,224.3 651.3,218.6 652.4,201.1 653.4,200.6 654.4,200.1 655.5,199.7 656.5,200.7 657.5,200.3 658.6,211.4 659.6,211.5 660.6,211.6 661.7,211.5 662.7,211.6 663.7,211.6 664.8,211.7 665.8,213.5 666.8,210.5 667.9,210.5 668.9,210.5 669.9,210.4 671.0,210.4 672.0,197.2 673.0,186.8 674.1,186.2 675.1,185.5 676.1,184.9 677.2,182.9 678.2,182.2 679.2,192.0 680.3,191.8 681.3,191.7 682.3,193.1 683.4,193.0 684.4,192.9 685.4,192.8 686.5,190.8 687.5,192.6 688.5,192.4 689.6,192.2 690.6,192.0 691.6,191.8 692.7,196.1 693.7,195.6 694.7,195.1 695.8,194.6 696.8,194.2 697.8,195.4 698.9,194.9 699.9,195.2 700.9,194.7 702.0,194.2 703.0,195.6 704.0,195.1 705.1,194.6 706.1,194.1 707.1,201.3 708.2,200.2 709.2,200.1 710.2,199.9 711.3,199.8 712.3,199.6 713.3,236.9 714.4,236.9 715.4,236.9 716.4,236.9 717.5,236.8 718.5,237.5 719.5,237.4 720.6,243.6 721.6,243.9 722.6,244.2 723.7,241.5 724.7,241.8 725.7,242.1 726.8,242.3 727.8,229.9 728.8,234.0 729.9,233.6 730.9,233.3 731.9,233.0 733.0,232.6 734.0,240.9 735.0,220.0 736.1,220.1 737.1,220.3 738.1,220.4 739.2,221.1 740.2,221.2 741.2,230.3 742.3,230.8 743.3,231.3 744.3,232.9 745.4,233.4 746.4,233.9 747.4,234.3 748.5,229.2 749.5,235.8 750.5,236.1 751.6,236.4 752.6,236.7 753.6,237.1 754.7,233.7 755.7,215.4 756.7,215.6 757.8,215.7 758.8,215.9 759.8,214.6 760.9,214.7 761.9,211.8 762.9,211.7 764.0,211.6 765.0,211.3 766.0,211.2 767.1,211.1 768.1,211.0 769.1,205.7 770.2,205.1 771.2,204.8 772.2,204.4 773.3,204.0 774.3,203.6 775.3,210.0 776.4,218.7 777.4,218.5 778.4,218.2 779.5,217.9 780.5,222.0 781.5,221.8 782.6,220.1 783.6,219.9 784.6,219.7 785.7,216.5 786.7,216.3 787.7,216.0 788.8,215.8 789.8,210.4 790.8,210.6 791.9,210.1 792.9,209.6 793.9,209.0 795.0,208.5 796.0,193.4"/>
<text x="640" y="56" font-family="Arial" font-size="12" fill="#0f766e">position error</text>
<polyline fill="none" stroke="#2563eb" stroke-width="2.3" points="52.0,42.1 53.0,42.1 54.1,42.1 55.1,42.1 56.1,42.0 57.2,50.9 58.2,50.8 59.2,50.9 60.3,50.9 61.3,50.8 62.3,54.8 63.4,54.7 64.4,54.6 65.4,54.5 66.5,54.7 67.5,56.9 68.5,56.8 69.6,56.7 70.6,56.6 71.6,56.5 72.7,135.4 73.7,135.4 74.7,135.3 75.8,135.2 76.8,135.1 77.8,136.2 78.9,136.0 79.9,136.3 80.9,136.2 82.0,136.1 83.0,136.9 84.0,136.8 85.1,136.6 86.1,136.4 87.1,136.7 88.2,137.3 89.2,137.2 90.2,137.0 91.3,136.8 92.3,136.6 93.3,137.7 94.4,171.2 95.4,171.0 96.4,170.9 97.5,170.7 98.5,171.1 99.5,170.9 100.6,171.3 101.6,171.2 102.6,171.0 103.7,171.4 104.7,171.2 105.7,171.0 106.8,170.8 107.8,171.2 108.8,171.5 109.9,171.3 110.9,171.1 111.9,170.9 113.0,170.7 114.0,191.7 115.0,191.6 116.1,191.4 117.1,191.3 118.1,191.1 119.2,191.3 120.2,191.1 121.2,191.4 122.3,191.2 123.3,191.1 124.3,191.2 125.4,191.0 126.4,190.8 127.4,190.5 128.5,191.0 129.5,191.1 130.5,190.9 131.6,190.7 132.6,190.4 133.6,190.2 134.7,191.1 135.7,204.3 136.7,204.1 137.8,203.9 138.8,203.7 139.8,203.7 140.9,203.5 141.9,204.0 142.9,203.8 144.0,203.6 145.0,203.7 146.0,203.5 147.1,203.3 148.1,203.0 149.1,203.6 150.2,203.7 151.2,203.5 152.2,203.2 153.3,203.0 154.3,202.8 155.3,203.6 156.4,213.8 157.4,213.7 158.4,213.5 159.5,213.2 160.5,213.3 161.5,213.0 162.6,213.5 163.6,213.3 164.6,213.1 165.7,213.2 166.7,212.9 167.7,212.7 168.8,212.4 169.8,212.8 170.8,212.9 171.9,212.6 172.9,212.4 173.9,212.2 175.0,211.9 176.0,221.3 177.0,221.1 178.1,220.9 179.1,220.7 180.1,220.4 181.2,220.4 182.2,220.2 183.2,220.6 184.3,220.4 185.3,220.2 186.3,220.2 187.4,219.9 188.4,219.6 189.4,219.3 190.5,220.0 191.5,220.0 192.5,219.8 193.6,219.5 194.6,219.3 195.6,219.0 196.7,226.8 197.7,226.6 198.7,226.4 199.8,226.2 200.8,225.9 201.8,225.9 202.9,225.6 203.9,226.2 204.9,226.0 206.0,225.7 207.0,225.7 208.0,225.4 209.1,225.2 210.1,224.9 211.1,225.5 212.2,225.5 213.2,225.2 214.2,225.0 215.3,224.7 216.3,224.4 217.3,225.2 218.4,231.1 219.4,230.8 220.4,230.6 221.5,230.3 222.5,230.3 223.5,230.0 224.6,230.6 225.6,230.4 226.6,230.1 227.7,230.1 228.7,229.8 229.7,229.5 230.8,229.2 231.8,229.9 232.8,229.8 233.9,229.6 234.9,229.3 235.9,229.1 237.0,228.8 238.0,229.6 239.0,234.7 240.1,234.5 241.1,234.2 242.1,234.0 243.2,233.9 244.2,233.6 245.2,234.1 246.3,233.8 247.3,233.6 248.3,233.5 249.4,233.3 250.4,233.0 251.4,232.7 252.5,233.3 253.5,233.3 254.5,233.0 255.6,232.7 256.6,232.4 257.6,232.1 258.7,237.8 259.7,237.5 260.7,237.3 261.8,237.0 262.8,236.8 263.8,236.7 264.9,236.4 265.9,237.0 266.9,236.7 268.0,236.5 269.0,236.4 270.0,236.2 271.1,235.9 272.1,235.6 273.1,236.2 274.2,236.2 275.2,235.9 276.2,235.6 277.3,235.4 278.3,235.1 279.3,235.9 280.4,240.0 281.4,239.8 282.4,239.5 283.5,239.2 284.5,239.2 285.5,238.9 286.6,239.4 287.6,239.2 288.6,238.9 289.7,238.9 290.7,238.6 291.7,238.3 292.8,238.0 293.8,238.6 294.8,238.6 295.9,238.3 296.9,238.0 297.9,237.8 299.0,237.5 300.0,242.3 301.0,242.0 302.1,241.8 303.1,241.5 304.1,241.2 305.2,241.2 306.2,240.9 307.2,241.4 308.3,241.2 309.3,240.9 310.3,240.9 311.4,240.6 312.4,240.3 313.4,240.0 314.5,240.6 315.5,240.6 316.5,240.3 317.6,240.0 318.6,239.7 319.6,239.4 320.7,244.0 321.7,243.7 322.7,243.5 323.8,243.2 324.8,242.9 325.8,242.8 326.9,242.5 327.9,243.1 328.9,242.9 330.0,242.6 331.0,242.5 332.0,242.3 333.1,241.9 334.1,241.6 335.1,242.3 336.2,242.2 337.2,242.0 338.2,241.7 339.3,241.4 340.3,241.1 341.3,241.9 342.4,244.9 343.4,244.7 344.4,244.4 345.5,244.1 346.5,244.1 347.5,243.7 348.6,244.3 349.6,244.0 350.6,243.7 351.7,243.7 352.7,243.4 353.7,243.1 354.8,242.7 355.8,243.4 356.8,243.4 357.9,243.1 358.9,242.8 359.9,242.5 361.0,242.2 362.0,243.0 363.0,242.8 364.1,242.5 365.1,242.2 366.1,241.9 367.2,241.8 368.2,241.5 369.2,242.2 370.3,241.9 371.3,241.6 372.3,241.6 373.4,241.3 374.4,241.0 375.4,240.6 376.5,241.3 377.5,241.3 378.5,241.0 379.6,240.7 380.6,240.4 381.6,240.1 382.7,241.0 383.7,240.7 384.7,240.4 385.8,240.2 386.8,239.9 387.8,239.8 388.9,239.5 389.9,240.1 390.9,239.9 392.0,239.6 393.0,239.5 394.0,239.2 395.1,238.9 396.1,238.6 397.1,239.3 398.2,239.3 399.2,239.0 400.2,238.7 401.3,238.4 402.3,238.1 403.3,238.9 404.4,238.7 405.4,238.4 406.4,238.2 407.5,237.9 408.5,237.8 409.5,237.5 410.6,238.1 411.6,237.9 412.6,237.6 413.7,237.6 414.7,237.3 415.7,237.0 416.8,236.7 417.8,237.3 418.8,237.3 419.9,237.0 420.9,236.8 421.9,236.5 423.0,236.2 424.0,237.0 425.0,236.7 426.1,236.5 427.1,236.2 428.1,235.9 429.2,235.9 430.2,235.6 431.2,236.2 432.3,236.0 433.3,235.7 434.3,235.6 435.4,235.4 436.4,235.1 437.4,234.8 438.5,235.4 439.5,235.3 440.5,235.1 441.6,234.8 442.6,234.5 443.6,234.2 444.7,235.0 445.7,234.8 446.7,234.5 447.8,234.3 448.8,234.0 449.8,233.9 450.9,233.6 451.9,234.3 452.9,234.0 454.0,233.8 455.0,233.7 456.0,233.4 457.1,233.1 458.1,232.8 459.1,233.3 460.2,233.3 461.2,233.0 462.2,232.7 463.3,232.4 464.3,232.1 465.3,237.8 466.4,237.6 467.4,237.4 468.4,237.1 469.5,236.8 470.5,236.8 471.5,236.5 472.6,237.0 473.6,236.8 474.6,236.5 475.7,236.5 476.7,236.2 477.7,235.9 478.8,235.6 479.8,236.2 480.8,236.2 481.9,236.0 482.9,235.7 483.9,235.4 485.0,235.1 486.0,235.9 487.0,240.1 488.1,239.8 489.1,239.6 490.1,239.3 491.2,239.3 492.2,239.0 493.2,239.5 494.3,239.2 495.3,239.0 496.3,239.0 497.4,238.7 498.4,238.4 499.4,238.1 500.5,238.7 501.5,238.6 502.5,238.4 503.6,238.1 504.6,237.8 505.6,237.5 506.7,242.1 507.7,241.9 508.7,241.7 509.8,241.4 510.8,241.1 511.8,241.1 512.9,240.8 513.9,241.3 514.9,241.1 516.0,240.8 517.0,240.8 518.0,240.5 519.1,240.2 520.1,239.9 521.1,240.5 522.2,240.4 523.2,240.1 524.2,239.8 525.3,239.6 526.3,239.3 527.3,243.8 528.4,243.6 529.4,243.3 530.4,243.1 531.5,242.8 532.5,242.7 533.5,242.4 534.6,243.0 535.6,242.7 536.6,242.5 537.7,242.4 538.7,242.1 539.7,241.8 540.8,241.5 541.8,242.1 542.8,242.1 543.9,241.8 544.9,241.6 545.9,241.3 547.0,241.0 548.0,245.3 549.0,245.0 550.1,244.8 551.1,244.5 552.1,244.2 553.2,244.2 554.2,243.9 555.2,244.4 556.3,244.2 557.3,243.9 558.3,243.9 559.4,243.6 560.4,243.3 561.4,243.0 562.5,243.6 563.5,243.5 564.5,243.3 565.6,243.0 566.6,242.7 567.6,242.4 568.7,243.2 569.7,246.3 570.7,246.0 571.8,245.8 572.8,245.5 573.8,245.4 574.9,245.1 575.9,245.7 576.9,245.4 578.0,245.1 579.0,245.1 580.0,244.8 581.1,244.5 582.1,244.2 583.1,244.8 584.2,244.8 585.2,244.5 586.2,244.2 587.3,243.9 588.3,243.6 589.3,244.4 590.4,247.4 591.4,247.1 592.4,246.8 593.5,246.5 594.5,246.5 595.5,246.2 596.6,246.7 597.6,246.5 598.6,246.2 599.7,246.1 600.7,245.8 601.7,245.5 602.8,245.2 603.8,245.8 604.8,245.8 605.9,245.5 606.9,245.2 607.9,244.9 609.0,244.6 610.0,245.4 611.0,245.2 612.1,244.9 613.1,244.6 614.1,244.3 615.2,244.2 616.2,243.9 617.2,244.4 618.3,244.1 619.3,243.8 620.3,243.8 621.4,243.4 622.4,243.1 623.4,242.8 624.5,243.5 625.5,243.5 626.5,243.2 627.6,242.9 628.6,242.6 629.6,242.2 630.7,242.8 631.7,245.6 632.7,245.0 633.8,244.4 634.8,243.8 635.8,243.4 636.9,242.7 637.9,243.1 638.9,242.5 640.0,241.9 641.0,241.5 642.0,240.8 643.1,240.2 644.1,239.5 645.1,239.9 646.2,239.6 647.2,238.9 648.2,238.3 649.3,237.6 650.3,236.9 651.3,237.6 652.4,241.1 653.4,240.5 654.4,239.8 655.5,239.2 656.5,238.8 657.5,238.2 658.6,238.5 659.6,237.9 660.6,237.3 661.7,236.9 662.7,236.3 663.7,235.6 664.8,234.9 665.8,235.3 666.8,235.0 667.9,234.3 668.9,233.7 669.9,233.0 671.0,232.3 672.0,232.9 673.0,237.1 674.1,236.5 675.1,235.8 676.1,235.2 677.2,234.9 678.2,234.2 679.2,234.5 680.3,233.9 681.3,233.2 682.3,232.9 683.4,232.3 684.4,231.6 685.4,230.9 686.5,231.2 687.5,230.9 688.5,230.3 689.6,229.6 690.6,228.9 691.6,228.2 692.7,234.1 693.7,233.5 694.7,232.9 695.8,232.3 696.8,231.7 697.8,231.3 698.9,230.7 699.9,230.9 700.9,230.3 702.0,229.6 703.0,229.4 704.0,228.7 705.1,228.0 706.1,227.3 707.1,227.6 708.2,227.3 709.2,226.7 710.2,226.0 711.3,225.3 712.3,224.6 713.3,231.1 714.4,230.5 715.4,229.9 716.4,229.3 717.5,228.6 718.5,228.3 719.5,227.7 720.6,227.8 721.6,227.2 722.6,226.6 723.7,226.3 724.7,225.6 725.7,225.0 726.8,224.3 727.8,224.5 728.8,224.2 729.9,223.6 730.9,222.9 731.9,222.2 733.0,221.5 734.0,222.1 735.0,227.7 736.1,227.1 737.1,226.5 738.1,225.8 739.2,225.5 740.2,224.8 741.2,224.9 742.3,224.3 743.3,223.7 744.3,223.4 745.4,222.7 746.4,222.0 747.4,221.3 748.5,221.5 749.5,221.2 750.5,220.6 751.6,219.9 752.6,219.2 753.6,218.5 754.7,219.0 755.7,225.3 756.7,224.7 757.8,224.0 758.8,223.4 759.8,223.1 760.9,222.4 761.9,222.4 762.9,221.8 764.0,221.1 765.0,220.8 766.0,220.1 767.1,219.4 768.1,218.7 769.1,219.0 770.2,218.7 771.2,218.0 772.2,217.3 773.3,216.6 774.3,215.9 775.3,216.4 776.4,223.5 777.4,222.9 778.4,222.2 779.5,221.6 780.5,221.3 781.5,220.6 782.6,220.7 783.6,220.1 784.6,219.4 785.7,219.1 786.7,218.4 787.7,217.7 788.8,217.0 789.8,217.2 790.8,216.9 791.9,216.2 792.9,215.6 793.9,214.9 795.0,214.2 796.0,222.6"/>
<text x="640" y="72" font-family="Arial" font-size="12" fill="#2563eb">sqrt trace Ppos</text>
</svg>