<svg xmlns="http://www.w3.org/2000/svg" width="820" height="320" viewBox="0 0 820 320">
<rect width="100%" height="100%" fill="white"/>
<text x="52" y="30" font-family="Arial" font-size="18" font-weight="700">adaptive_nominal covariance bounds</text>
<line x1="52" y1="274" x2="796" y2="274" stroke="#263238"/>
<line x1="52" y1="42" x2="52" y2="274" stroke="#263238"/>
<text x="52" y="306" font-family="Arial" font-size="12">time (s)</text>
<text x="630" y="306" font-family="Arial" font-size="12">m</text>

<rect x="630.7" y="42" width="165.3" height="232" fill="#fef3c7" opacity="0.72"/>
<polyline fill="none" stroke="#0f766e" stroke-width="2.3" points="52.0,171.6 53.0,171.3 54.1,171.1 55.1,170.8 56.1,170.5 57.2,161.6 58.2,161.1 59.2,158.5 60.3,157.6 61.3,156.7 62.3,165.9 63.4,165.1 64.4,164.3 65.4,163.5 66.5,171.7 67.5,177.4 68.5,178.3 69.6,179.4 70.6,180.5 71.6,181.7 72.7,258.0 73.7,258.3 74.7,258.6 75.8,259.0 76.8,259.4 77.8,257.8 78.9,258.3 79.9,253.0 80.9,252.7 82.0,252.3 83.0,250.2 84.0,249.9 85.1,249.6 86.1,249.2 87.1,259.2 88.2,255.7 89.2,256.5 90.2,257.4 91.3,258.3 92.3,259.3 93.3,265.7 94.4,260.6 95.4,261.4 96.4,262.3 97.5,263.1 98.5,263.9 99.5,265.1 100.6,263.8 101.6,265.0 102.6,266.2 103.7,267.6 104.7,268.8 105.7,269.9 106.8,271.1 107.8,269.6 108.8,264.4 109.9,265.6 110.9,266.7 111.9,267.9 113.0,269.2 114.0,260.6 115.0,261.2 116.1,261.8 117.1,262.5 118.1,263.2 119.2,270.0 120.2,270.8 121.2,250.7 122.3,250.1 123.3,249.4 124.3,248.5 125.4,247.8 126.4,247.1 127.4,246.2 128.5,253.0 129.5,254.4 130.5,254.1 131.6,253.7 132.6,253.3 133.6,252.9 134.7,265.5 135.7,264.3 136.7,264.0 137.8,263.7 138.8,263.4 139.8,262.6 140.9,262.3 141.9,258.9 142.9,258.4 144.0,257.9 145.0,254.2 146.0,253.8 147.1,253.3 148.1,252.9 149.1,245.4 150.2,247.0 151.2,246.4 152.2,245.7 153.3,244.9 154.3,244.2 155.3,244.9 156.4,198.9 157.4,198.2 158.4,197.5 159.5,196.9 160.5,196.9 161.5,196.2 162.6,195.2 163.6,194.4 164.6,193.7 165.7,190.4 166.7,189.6 167.7,188.8 168.8,188.0 169.8,206.1 170.8,206.1 171.9,206.1 172.9,206.0 173.9,206.0 175.0,206.0 176.0,192.8 177.0,193.0 178.1,193.1 179.1,193.3 180.1,193.4 181.2,193.6 182.2,193.8 183.2,190.4 184.3,190.4 185.3,190.4 186.3,194.0 187.4,194.0 188.4,194.0 189.4,194.1 190.5,197.8 191.5,199.9 192.5,200.0 193.6,200.2 194.6,200.3 195.6,200.4 196.7,217.1 197.7,217.6 198.7,218.2 199.8,218.8 200.8,219.4 201.8,219.9 202.9,220.5 203.9,217.2 204.9,217.6 206.0,218.0 207.0,218.4 208.0,218.8 209.1,219.2 210.1,219.6 211.1,211.9 212.2,212.1 213.2,212.2 214.2,212.3 215.3,212.4 216.3,212.5 217.3,202.3 218.4,183.3 219.4,183.1 220.4,182.8 221.5,182.4 222.5,181.9 223.5,181.5 224.6,186.7 225.6,186.5 226.6,186.3 227.7,186.1 228.7,185.9 229.7,185.7 230.8,185.4 231.8,192.3 232.8,192.3 233.9,192.2 234.9,192.0 235.9,191.9 237.0,191.7 238.0,192.1 239.0,194.9 240.1,194.9 241.1,194.8 242.1,194.8 243.2,195.0 244.2,195.0 245.2,208.5 246.3,208.8 247.3,209.1 248.3,209.5 249.4,209.8 250.4,210.1 251.4,210.4 252.5,217.8 253.5,217.4 254.5,218.0 255.6,218.5 256.6,219.1 257.6,219.6 258.7,231.0 259.7,231.4 260.7,231.8 261.8,232.1 262.8,232.5 263.8,232.8 264.9,233.1 265.9,244.1 266.9,244.8 268.0,245.5 269.0,246.5 270.0,247.1 271.1,247.7 272.1,248.3 273.1,254.8 274.2,253.6 275.2,254.4 276.2,255.2 277.3,255.9 278.3,256.7 279.3,249.3 280.4,251.6 281.4,252.2 282.4,252.9 283.5,253.5 284.5,252.7 285.5,253.3 286.6,250.7 287.6,251.3 288.6,251.9 289.7,253.1 290.7,253.7 291.7,254.3 292.8,254.9 293.8,254.7 294.8,255.6 295.9,256.1 296.9,256.6 297.9,257.1 299.0,257.6 300.0,271.3 301.0,271.8 302.1,272.2 303.1,272.7 304.1,273.1 305.2,273.6 306.2,274.0 307.2,263.0 308.3,263.1 309.3,263.2 310.3,260.5 311.4,260.6 312.4,260.7 313.4,260.8 314.5,252.0 315.5,252.3 316.5,252.1 317.6,252.0 318.6,251.8 319.6,251.6 320.7,265.2 321.7,265.3 322.7,265.3 323.8,265.4 324.8,265.5 325.8,266.8 326.9,266.9 327.9,262.0 328.9,262.1 330.0,262.1 331.0,257.8 332.0,257.8 333.1,257.7 334.1,257.6 335.1,244.7 336.2,243.8 337.2,243.3 338.2,242.8 339.3,242.3 340.3,241.7 341.3,240.4 342.4,190.9 343.4,190.2 344.4,189.5 345.5,188.8 346.5,189.7 347.5,189.1 348.6,197.8 349.6,197.4 350.6,197.0 351.7,198.3 352.7,197.9 353.7,197.5 354.8,197.1 355.8,204.6 356.8,203.1 357.9,202.8 358.9,202.5 359.9,202.2 361.0,202.0 362.0,207.7 363.0,207.6 364.1,207.5 365.1,207.4 366.1,207.3 367.2,208.0 368.2,207.9 369.2,201.3 370.3,201.0 371.3,200.8 372.3,201.2 373.4,200.9 374.4,200.7 375.4,200.4 376.5,200.7 377.5,199.9 378.5,199.6 379.6,199.3 380.6,199.1 381.6,198.8 382.7,200.5 383.7,200.3 384.7,200.0 385.8,199.8 386.8,199.5 387.8,199.3 388.9,199.1 389.9,197.7 390.9,197.3 392.0,196.9 393.0,196.7 394.0,196.3 395.1,195.9 396.1,195.6 397.1,200.1 398.2,199.9 399.2,199.7 400.2,199.5 401.3,199.2 402.3,199.0 403.3,201.2 404.4,201.0 405.4,200.9 406.4,200.7 407.5,200.5 408.5,200.2 409.5,200.0 410.6,199.9 411.6,199.7 412.6,199.5 413.7,198.9 414.7,198.7 415.7,198.5 416.8,198.4 417.8,198.9 418.8,198.5 419.9,198.4 420.9,198.2 421.9,198.0 423.0,197.9 424.0,199.4 425.0,199.2 426.1,199.0 427.1,198.8 428.1,198.7 429.2,198.9 430.2,198.8 431.2,194.0 432.3,193.8 433.3,193.6 434.3,193.7 435.4,193.4 436.4,193.2 437.4,192.9 438.5,173.1 439.5,172.4 440.5,171.7 441.6,171.0 442.6,170.3 443.6,169.6 444.7,176.8 445.7,176.4 446.7,175.9 447.8,175.5 448.8,175.0 449.8,174.6 450.9,174.2 451.9,185.3 452.9,185.0 454.0,184.8 455.0,184.1 456.0,183.8 457.1,183.5 458.1,183.3 459.1,177.3 460.2,175.8 461.2,175.5 462.2,175.2 463.3,174.9 464.3,174.7 465.3,178.1 466.4,178.0 467.4,177.9 468.4,177.8 469.5,177.6 470.5,177.3 471.5,177.1 472.6,178.8 473.6,178.7 474.6,178.6 475.7,179.1 476.7,179.0 477.7,178.9 478.8,178.8 479.8,166.2 480.8,166.6 481.9,166.2 482.9,165.8 483.9,165.4 485.0,165.0 486.0,167.4 487.0,174.4 488.1,174.0 489.1,173.8 490.1,173.5 491.2,173.8 492.2,173.5 493.2,185.8 494.3,185.8 495.3,185.8 496.3,185.5 497.4,185.5 498.4,185.5 499.4,185.4 500.5,183.9 501.5,183.6 502.5,183.6 503.6,183.5 504.6,183.4 505.6,183.4 506.7,216.3 507.7,216.5 508.7,216.7 509.8,216.9 510.8,217.1 511.8,217.3 512.9,217.5 513.9,212.2 514.9,212.3 516.0,212.4 517.0,212.4 518.0,212.5 519.1,212.5 520.1,212.6 521.1,202.7 522.2,201.0 523.2,200.8 524.2,200.6 525.3,200.4 526.3,200.2 527.3,226.7 528.4,226.6 529.4,226.4 530.4,226.3 531.5,226.2 532.5,225.2 533.5,225.1 534.6,223.4 535.6,223.3 536.6,223.2 537.7,224.3 538.7,224.2 539.7,224.0 540.8,223.9 541.8,232.9 542.8,234.0 543.9,234.1 544.9,234.2 545.9,234.3 547.0,234.4 548.0,235.3 549.0,235.4 550.1,235.4 551.1,235.5 552.1,235.5 553.2,235.6 554.2,235.7 555.2,229.3 556.3,229.2 557.3,229.1 558.3,229.0 559.4,228.9 560.4,228.8 561.4,228.7 562.5,231.3 563.5,231.4 564.5,231.4 565.6,231.4 566.6,231.5 567.6,231.5 568.7,239.0 569.7,229.8 570.7,230.1 571.8,230.4 572.8,230.7 573.8,231.1 574.9,231.4 575.9,230.8 576.9,231.0 578.0,231.3 579.0,231.7 580.0,232.0 581.1,232.2 582.1,232.5 583.1,241.4 584.2,241.9 585.2,242.4 586.2,242.9 587.3,243.3 588.3,243.8 589.3,246.4 590.4,243.8 591.4,244.4 592.4,244.9 593.5,245.5 594.5,244.9 595.5,245.5 596.6,239.7 597.6,240.1 598.6,240.5 599.7,244.0 600.7,244.4 601.7,244.9 602.8,245.4 603.8,233.1 604.8,232.9 605.9,233.1 606.9,233.2 607.9,233.4 609.0,233.6 610.0,232.1 611.0,232.2 612.1,232.5 613.1,232.7 614.1,232.8 615.2,234.4 616.2,234.6 617.2,217.6 618.3,217.3 619.3,217.0 620.3,216.8 621.4,216.5 622.4,216.1 623.4,215.8 624.5,214.7 625.5,214.2 626.5,213.8 627.6,213.4 628.6,213.0 629.6,212.7 630.7,211.9 631.7,213.3 632.7,213.0 633.8,212.7 634.8,212.3 635.8,212.0 636.9,211.6 637.9,209.7 638.9,209.3 640.0,209.0 641.0,208.7 642.0,208.4 643.1,208.1 644.1,207.7 645.1,210.5 646.2,209.9 647.2,209.7 648.2,209.4 649.3,209.2 650.3,208.9 651.3,205.8 652.4,197.1 653.4,196.7 654.4,196.4 655.5,196.1 656.5,196.5 657.5,196.2 658.6,205.1 659.6,204.9 660.6,204.8 661.7,204.5 662.7,204.3 663.7,204.1 664.8,203.9 665.8,206.9 666.8,204.6 667.9,204.4 668.9,204.2 669.9,203.9 671.0,203.6 672.0,191.7 673.0,185.0 674.1,184.5 675.1,183.9 676.1,183.4 677.2,181.7 678.2,181.1 679.2,189.8 680.3,189.4 681.3,189.0 682.3,189.8 683.4,189.5 684.4,189.3 685.4,189.0 686.5,188.1 687.5,189.3 688.5,189.0 689.6,188.7 690.6,188.4 691.6,188.1 692.7,187.3 693.7,186.8 694.7,186.3 695.8,185.8 696.8,185.4 697.8,186.5 698.9,186.1 699.9,185.6 700.9,185.1 702.0,184.6 703.0,185.8 704.0,185.3 705.1,184.7 706.1,184.2 707.1,193.1 708.2,191.8 709.2,191.5 710.2,191.2 711.3,190.8 712.3,190.5 713.3,227.4 714.4,227.2 715.4,227.1 716.4,226.9 717.5,226.7 718.5,226.9 719.5,226.7 720.6,235.4 721.6,235.4 722.6,235.5 723.7,232.3 724.7,232.3 725.7,232.3 726.8,232.3 727.8,221.4 728.8,225.1 729.9,224.9 730.9,224.7 731.9,224.5 733.0,224.3 734.0,231.6 735.0,212.2 736.1,212.1 737.1,212.0 738.1,212.0 739.2,212.4 740.2,212.4 741.2,226.9 742.3,227.1 743.3,227.3 744.3,228.6 745.4,228.8 746.4,229.0 747.4,229.2 748.5,223.8 749.5,230.1 750.5,230.3 751.6,230.5 752.6,230.7 753.6,231.0 754.7,232.1 755.7,219.6 756.7,219.8 757.8,220.0 758.8,220.2 759.8,218.6 760.9,218.8 761.9,206.7 762.9,206.6 764.0,206.4 765.0,205.9 766.0,205.8 767.1,205.7 768.1,205.6 769.1,201.9 770.2,201.3 771.2,201.1 772.2,200.8 773.3,200.5 774.3,200.2 775.3,209.0 776.4,213.1 777.4,212.9 778.4,212.7 779.5,212.6 780.5,216.4 781.5,216.3 782.6,212.1 783.6,211.9 784.6,211.8 785.7,208.6 786.7,208.5 787.7,208.3 788.8,208.1 789.8,201.0 790.8,201.3 791.9,201.0 792.9,200.6 793.9,200.3 795.0,199.9 796.0,189.0"/>
<text x="640" y="56" font-family="Arial" font-size="12" fill="#0f766e">position error</text>
<polyline fill="none" stroke="#2563eb" stroke-width="2.3" points="52.0,42.1 53.0,42.1 54.1,42.1 55.1,42.1 56.1,42.0 57.2,49.1 58.2,49.0 59.2,49.1 60.3,49.0 61.3,48.9 62.3,51.7 63.4,51.6 64.4,51.5 65.4,51.4 66.5,51.6 67.5,53.1 68.5,53.0 69.6,52.9 70.6,52.8 71.6,52.7 72.7,134.0 73.7,133.9 74.7,133.8 75.8,133.7 76.8,133.6 77.8,134.3 78.9,134.1 79.9,134.4 80.9,134.3 82.0,134.2 83.0,134.7 84.0,134.6 85.1,134.4 86.1,134.2 87.1,134.6 88.2,135.0 89.2,134.8 90.2,134.7 91.3,134.5 92.3,134.3 93.3,135.2 94.4,171.9 95.4,171.7 96.4,171.6 97.5,171.4 98.5,171.7 99.5,171.5 100.6,171.8 101.6,171.7 102.6,171.5 103.7,171.7 104.7,171.5 105.7,171.3 106.8,171.1 107.8,171.6 108.8,171.7 109.9,171.6 110.9,171.4 111.9,171.2 113.0,170.9 114.0,194.2 115.0,194.0 116.1,193.9 117.1,193.7 118.1,193.5 119.2,193.6 120.2,193.3 121.2,193.8 122.3,193.6 123.3,193.4 124.3,193.5 125.4,193.3 126.4,193.0 127.4,192.8 128.5,193.3 129.5,193.4 130.5,193.2 131.6,192.9 132.6,192.7 133.6,192.5 134.7,193.3 135.7,208.8 136.7,208.6 137.8,208.4 138.8,208.2 139.8,208.2 140.9,208.0 141.9,208.4 142.9,208.2 144.0,208.0 145.0,208.0 146.0,207.8 147.1,207.5 148.1,207.3 149.1,207.8 150.2,207.9 151.2,207.6 152.2,207.4 153.3,207.1 154.3,206.9 155.3,207.7 156.4,219.4 157.4,219.2 158.4,218.9 159.5,218.7 160.5,218.7 161.5,218.4 162.6,218.9 163.6,218.7 164.6,218.5 165.7,218.5 166.7,218.2 167.7,217.9 168.8,217.7 169.8,218.3 170.8,218.2 171.9,218.0 172.9,217.7 173.9,217.5 175.0,217.2 176.0,227.5 177.0,227.3 178.1,227.1 179.1,226.8 180.1,226.6 181.2,226.5 182.2,226.3 183.2,226.8 184.3,226.6 185.3,226.3 186.3,226.3 187.4,226.0 188.4,225.7 189.4,225.4 190.5,226.0 191.5,226.0 192.5,225.8 193.6,225.5 194.6,225.2 195.6,224.9 196.7,233.7 197.7,233.4 198.7,233.2 199.8,232.9 200.8,232.7 201.8,232.6 202.9,232.3 203.9,232.9 204.9,232.6 206.0,232.4 207.0,232.3 208.0,232.1 209.1,231.8 210.1,231.5 211.1,232.1 212.2,232.1 213.2,231.8 214.2,231.5 215.3,231.2 216.3,230.9 217.3,231.8 218.4,238.3 219.4,238.1 220.4,237.8 221.5,237.5 222.5,237.5 223.5,237.2 224.6,237.8 225.6,237.5 226.6,237.2 227.7,237.2 228.7,236.9 229.7,236.6 230.8,236.3 231.8,236.9 232.8,236.9 233.9,236.6 234.9,236.3 235.9,236.0 237.0,235.7 238.0,236.6 239.0,242.3 240.1,242.0 241.1,241.8 242.1,241.5 243.2,241.4 244.2,241.1 245.2,241.7 246.3,241.4 247.3,241.1 248.3,241.1 249.4,240.8 250.4,240.5 251.4,240.2 252.5,240.8 253.5,240.8 254.5,240.5 255.6,240.2 256.6,239.9 257.6,239.6 258.7,245.8 259.7,245.5 260.7,245.2 261.8,245.0 262.8,244.7 263.8,244.6 264.9,244.3 265.9,244.9 266.9,244.6 268.0,244.3 269.0,244.3 270.0,244.0 271.1,243.7 272.1,243.3 273.1,244.0 274.2,243.9 275.2,243.6 276.2,243.3 277.3,243.0 278.3,242.7 279.3,243.6 280.4,248.2 281.4,247.9 282.4,247.6 283.5,247.3 284.5,247.3 285.5,247.0 286.6,247.6 287.6,247.3 288.6,247.0 289.7,246.9 290.7,246.6 291.7,246.3 292.8,246.0 293.8,246.6 294.8,246.6 295.9,246.3 296.9,246.0 297.9,245.6 299.0,245.3 300.0,250.7 301.0,250.4 302.1,250.2 303.1,249.9 304.1,249.5 305.2,249.5 306.2,249.2 307.2,249.8 308.3,249.5 309.3,249.2 310.3,249.2 311.4,248.9 312.4,248.5 313.4,248.2 314.5,248.9 315.5,248.8 316.5,248.5 317.6,248.2 318.6,247.9 319.6,247.6 320.7,253.3 321.7,253.1 322.7,252.8 323.8,252.5 324.8,252.2 325.8,252.2 326.9,251.9 327.9,252.7 328.9,252.4 330.0,252.1 331.0,252.2 332.0,251.9 333.1,251.6 334.1,251.3 335.1,252.1 336.2,252.2 337.2,251.9 338.2,251.7 339.3,251.4 340.3,251.1 341.3,252.1 342.4,257.3 343.4,257.1 344.4,256.9 345.5,256.6 346.5,256.6 347.5,256.3 348.6,256.8 349.6,256.5 350.6,256.3 351.7,256.2 352.7,256.0 353.7,255.7 354.8,255.4 355.8,255.8 356.8,255.7 357.9,255.5 358.9,255.2 359.9,254.9 361.0,254.6 362.0,255.1 363.0,254.8 364.1,254.5 365.1,254.3 366.1,254.0 367.2,253.8 368.2,253.5 369.2,253.9 370.3,253.6 371.3,253.3 372.3,253.2 373.4,252.9 374.4,252.6 375.4,252.2 376.5,252.7 377.5,252.6 378.5,252.2 379.6,251.9 380.6,251.6 381.6,251.3 382.7,251.9 383.7,251.6 384.7,251.3 385.8,251.0 386.8,250.6 387.8,250.5 388.9,250.2 389.9,250.7 390.9,250.4 392.0,250.1 393.0,249.9 394.0,249.6 395.1,249.2 396.1,248.9 397.1,249.5 398.2,249.4 399.2,249.0 400.2,248.7 401.3,248.3 402.3,247.9 403.3,248.8 404.4,248.5 405.4,248.1 406.4,247.8 407.5,247.4 408.5,247.3 409.5,246.9 410.6,247.6 411.6,247.3 412.6,246.9 413.7,246.8 414.7,246.5 415.7,246.1 416.8,245.7 417.8,246.6 418.8,246.5 419.9,246.2 420.9,245.8 421.9,245.4 423.0,245.1 424.0,246.3 425.0,246.0 426.1,245.6 427.1,245.3 428.1,244.9 429.2,244.9 430.2,244.5 431.2,245.5 432.3,245.2 433.3,244.8 434.3,244.8 435.4,244.5 436.4,244.1 437.4,243.8 438.5,244.7 439.5,244.7 440.5,244.4 441.6,244.1 442.6,243.7 443.6,243.4 444.7,244.6 445.7,244.3 446.7,243.9 447.8,243.6 448.8,243.3 449.8,243.3 450.9,242.9 451.9,243.8 452.9,243.5 454.0,243.2 455.0,243.1 456.0,242.8 457.1,242.5 458.1,242.2 459.1,243.0 460.2,243.0 461.2,242.7 462.2,242.4 463.3,242.1 464.3,241.8 465.3,248.4 466.4,248.2 467.4,247.9 468.4,247.6 469.5,247.3 470.5,247.3 471.5,247.0 472.6,247.6 473.6,247.3 474.6,247.1 475.7,247.0 476.7,246.7 477.7,246.5 478.8,246.1 479.8,246.8 480.8,246.8 481.9,246.5 482.9,246.2 483.9,245.9 485.0,245.6 486.0,246.5 487.0,252.0 488.1,251.7 489.1,251.4 490.1,251.2 491.2,251.2 492.2,250.9 493.2,251.5 494.3,251.3 495.3,251.0 496.3,251.0 497.4,250.8 498.4,250.5 499.4,250.2 500.5,250.8 501.5,250.8 502.5,250.6 503.6,250.3 504.6,250.1 505.6,249.8 506.7,255.9 507.7,255.6 508.7,255.4 509.8,255.1 510.8,254.9 511.8,254.9 512.9,254.6 513.9,255.1 514.9,254.9 516.0,254.6 517.0,254.6 518.0,254.4 519.1,254.1 520.1,253.8 521.1,254.4 522.2,254.4 523.2,254.1 524.2,253.9 525.3,253.6 526.3,253.4 527.3,257.8 528.4,257.6 529.4,257.4 530.4,257.1 531.5,256.9 532.5,256.8 533.5,256.5 534.6,256.9 535.6,256.7 536.6,256.4 537.7,256.3 538.7,256.1 539.7,255.8 540.8,255.5 541.8,255.9 542.8,255.9 543.9,255.6 544.9,255.3 545.9,255.1 547.0,254.8 548.0,259.0 549.0,258.8 550.1,258.5 551.1,258.2 552.1,258.0 553.2,257.9 554.2,257.6 555.2,258.0 556.3,257.8 557.3,257.5 558.3,257.4 559.4,257.1 560.4,256.9 561.4,256.6 562.5,257.0 563.5,257.0 564.5,256.7 565.6,256.4 566.6,256.1 567.6,255.8 568.7,256.6 569.7,260.6 570.7,260.4 571.8,260.1 572.8,259.8 573.8,259.8 574.9,259.5 575.9,260.1 576.9,259.9 578.0,259.6 579.0,259.6 580.0,259.3 581.1,259.0 582.1,258.7 583.1,259.3 584.2,259.3 585.2,259.1 586.2,258.8 587.3,258.5 588.3,258.2 589.3,259.1 590.4,263.6 591.4,263.3 592.4,263.1 593.5,262.8 594.5,262.9 595.5,262.6 596.6,263.3 597.6,263.1 598.6,262.8 599.7,262.9 600.7,262.7 601.7,262.4 602.8,262.2 603.8,262.9 604.8,262.9 605.9,262.7 606.9,262.5 607.9,262.2 609.0,262.0 610.0,262.9 611.0,262.7 612.1,262.5 613.1,262.2 614.1,262.0 615.2,262.0 616.2,261.7 617.2,262.0 618.3,261.8 619.3,261.6 620.3,261.5 621.4,261.3 622.4,261.0 623.4,260.8 624.5,261.1 625.5,261.0 626.5,260.7 627.6,260.5 628.6,260.2 629.6,260.0 630.7,260.3 631.7,261.9 632.7,261.6 633.8,261.3 634.8,261.0 635.8,260.7 636.9,260.4 637.9,260.4 638.9,260.1 640.0,259.7 641.0,259.5 642.0,259.1 643.1,258.8 644.1,258.4 645.1,258.5 646.2,258.2 647.2,257.8 648.2,257.5 649.3,257.1 650.3,256.7 651.3,257.0 652.4,258.8 653.4,258.4 654.4,258.0 655.5,257.6 656.5,257.4 657.5,257.0 658.6,257.4 659.6,257.0 660.6,256.6 661.7,256.4 662.7,255.9 663.7,255.5 664.8,255.1 665.8,255.5 666.8,255.3 667.9,254.9 668.9,254.5 669.9,254.0 671.0,253.6 672.0,254.3 673.0,256.5 674.1,256.1 675.1,255.7 676.1,255.3 677.2,255.1 678.2,254.6 679.2,255.1 680.3,254.7 681.3,254.3 682.3,254.1 683.4,253.6 684.4,253.2 685.4,252.7 686.5,253.3 687.5,253.2 688.5,252.7 689.6,252.3 690.6,251.8 691.6,251.4 692.7,255.9 693.7,255.5 694.7,255.1 695.8,254.6 696.8,254.2 697.8,254.1 698.9,253.7 699.9,254.5 700.9,254.1 702.0,253.7 703.0,253.6 704.0,253.2 705.1,252.7 706.1,252.3 707.1,253.1 708.2,253.0 709.2,252.6 710.2,252.2 711.3,251.8 712.3,251.4 713.3,256.3 714.4,255.9 715.4,255.5 716.4,255.1 717.5,254.7 718.5,254.6 719.5,254.2 720.6,254.8 721.6,254.5 722.6,254.1 723.7,254.0 724.7,253.6 725.7,253.2 726.8,252.8 727.8,253.4 728.8,253.4 729.9,253.0 730.9,252.6 731.9,252.2 733.0,251.8 734.0,252.7 735.0,256.2 736.1,255.8 737.1,255.4 738.1,255.1 739.2,255.0 740.2,254.6 741.2,255.1 742.3,254.8 743.3,254.4 744.3,254.3 745.4,253.9 746.4,253.5 747.4,253.1 748.5,253.7 749.5,253.7 750.5,253.3 751.6,252.9 752.6,252.5 753.6,252.1 754.7,253.0 755.7,256.4 756.7,256.1 757.8,255.7 758.8,255.3 759.8,255.2 760.9,254.9 761.9,255.4 762.9,255.0 764.0,254.6 765.0,254.6 766.0,254.2 767.1,253.8 768.1,253.4 769.1,254.0 770.2,253.9 771.2,253.5 772.2,253.1 773.3,252.7 774.3,252.4 775.3,253.2 776.4,256.6 777.4,256.3 778.4,255.9 779.5,255.5 780.5,255.5 781.5,255.1 782.6,255.6 783.6,255.2 784.6,254.8 785.7,254.8 786.7,254.4 787.7,254.0 788.8,253.6 789.8,254.1 790.8,254.1 791.9,253.7 792.9,253.3 793.9,252.9 795.0,252.5 796.0,257.1"/>
<text x="640" y="72" font-family="Arial" font-size="12" fill="#2563eb">sqrt trace Ppos</text>
</svg>