<svg xmlns="http://www.w3.org/2000/svg" width="820" height="320" viewBox="0 0 820 320">
<rect width="100%" height="100%" fill="white"/>
<text x="52" y="30" font-family="Arial" font-size="18" font-weight="700">dropout_robust position error</text>
<line x1="52" y1="274" x2="796" y2="274" stroke="#263238"/>
<line x1="52" y1="42" x2="52" y2="274" stroke="#263238"/>
<text x="52" y="306" font-family="Arial" font-size="12">time (s)</text>
<text x="630" y="306" font-family="Arial" font-size="12">m</text>

<rect x="630.7" y="42" width="165.3" height="232" fill="#fef3c7" opacity="0.72"/>
<polyline fill="none" stroke="#0f766e" stroke-width="2.3" points="52.0,63.0 53.0,62.5 54.1,62.0 55.1,61.4 56.1,60.9 57.2,51.5 58.2,50.6 59.2,45.4 60.3,43.7 61.3,42.0 62.3,54.3 63.4,52.8 64.4,51.2 65.4,49.7 66.5,66.2 67.5,74.7 68.5,76.7 69.6,78.8 70.6,81.2 71.6,83.7 72.7,238.8 73.7,239.4 74.7,240.1 75.8,240.8 76.8,241.5 77.8,239.2 78.9,240.1 79.9,229.0 80.9,228.2 82.0,227.2 83.0,223.8 84.0,223.0 85.1,222.2 86.1,221.2 87.1,242.3 88.2,236.8 89.2,238.5 90.2,240.3 91.3,242.3 92.3,244.4 93.3,254.4 94.4,240.9 95.4,242.2 96.4,243.4 97.5,244.5 98.5,250.6 99.5,252.5 100.6,252.1 101.6,254.3 102.6,256.3 103.7,258.4 104.7,260.3 105.7,262.3 106.8,264.1 107.8,265.3 108.8,260.2 109.9,262.4 110.9,264.7 111.9,267.1 113.0,269.5 114.0,254.3 115.0,255.2 116.1,256.2 117.1,257.2 118.1,258.2 119.2,265.7 120.2,266.8 121.2,229.6 122.3,227.6 123.3,225.6 124.3,222.9 125.4,220.7 126.4,218.3 127.4,215.9 128.5,233.8 129.5,234.7 130.5,233.7 131.6,232.6 132.6,231.4 133.6,230.3 134.7,251.7 135.7,255.5 136.7,254.8 137.8,254.0 138.8,253.3 139.8,251.6 140.9,250.9 141.9,244.7 142.9,243.5 144.0,242.3 145.0,236.2 146.0,235.1 147.1,234.0 148.1,232.8 149.1,220.0 150.2,221.4 151.2,219.7 152.2,218.0 153.3,216.2 154.3,214.3 155.3,217.1 156.4,120.6 157.4,119.2 158.4,117.7 159.5,116.3 160.5,115.8 161.5,114.3 162.6,112.5 163.6,110.9 164.6,109.3 165.7,104.0 166.7,102.4 167.7,100.8 168.8,99.2 169.8,133.7 170.8,134.2 171.9,134.7 172.9,135.2 173.9,135.7 175.0,136.2 176.0,103.3 177.0,103.9 178.1,104.7 179.1,105.5 180.1,106.3 181.2,107.2 182.2,108.1 183.2,99.5 184.3,99.6 185.3,99.8 186.3,106.3 187.4,106.5 188.4,106.7 189.4,106.9 190.5,113.3 191.5,117.8 192.5,118.4 193.6,119.0 194.6,119.5 195.6,120.0 196.7,152.3 197.7,153.8 198.7,155.4 199.8,157.0 200.8,158.6 201.8,160.5 202.9,162.1 203.9,153.5 204.9,154.6 206.0,155.5 207.0,156.6 208.0,157.6 209.1,158.5 210.1,159.4 211.1,144.8 212.2,144.8 213.2,144.8 214.2,144.9 215.3,144.9 216.3,145.0 217.3,125.8 218.4,87.3 219.4,86.2 220.4,85.1 221.5,83.8 222.5,82.1 223.5,80.7 224.6,93.1 225.6,92.6 226.6,91.9 227.7,92.5 228.7,91.8 229.7,91.2 230.8,90.6 231.8,103.3 232.8,104.1 233.9,104.0 234.9,103.8 235.9,103.6 237.0,103.4 238.0,101.8 239.0,107.6 240.1,107.3 241.1,107.1 242.1,106.9 243.2,108.7 244.2,108.5 245.2,132.0 246.3,133.0 247.3,133.8 248.3,135.3 249.4,136.1 250.4,136.9 251.4,137.6 252.5,151.6 253.5,155.4 254.5,157.0 255.6,158.7 256.6,160.3 257.6,161.9 258.7,182.6 259.7,183.5 260.7,184.4 261.8,185.3 262.8,186.1 263.8,187.1 264.9,188.0 265.9,208.2 266.9,210.2 268.0,212.1 269.0,213.7 270.0,215.5 271.1,217.3 272.1,219.1 273.1,230.8 274.2,232.6 275.2,234.9 276.2,237.2 277.3,239.5 278.3,241.8 279.3,223.9 280.4,227.9 281.4,229.5 282.4,231.0 283.5,232.5 284.5,233.4 285.5,235.0 286.6,227.6 287.6,228.7 288.6,229.8 289.7,231.0 290.7,232.1 291.7,233.2 292.8,234.2 293.8,236.6 294.8,237.8 295.9,238.8 296.9,239.9 297.9,240.9 299.0,241.9 300.0,269.2 301.0,270.0 302.1,270.9 303.1,271.7 304.1,272.5 305.2,273.2 306.2,274.0 307.2,255.2 308.3,255.0 309.3,254.7 310.3,251.7 311.4,251.4 312.4,251.1 313.4,250.7 314.5,235.6 315.5,234.7 316.5,233.5 317.6,232.4 318.6,231.2 319.6,230.1 320.7,256.9 321.7,256.7 322.7,256.5 323.8,256.3 324.8,256.2 325.8,256.8 326.9,256.6 327.9,250.4 328.9,250.1 330.0,249.7 331.0,246.0 332.0,245.6 333.1,245.1 334.1,244.6 335.1,228.0 336.2,225.6 337.2,224.1 338.2,222.5 339.3,220.9 340.3,219.2 341.3,214.6 342.4,142.7 343.4,140.7 344.4,138.6 345.5,136.5 346.5,136.6 347.5,134.6 348.6,156.1 349.6,155.4 350.6,154.7 351.7,156.3 352.7,155.5 353.7,154.8 354.8,154.0 355.8,171.3 356.8,168.6 357.9,168.4 358.9,168.2 359.9,168.1 361.0,167.9 362.0,181.4 363.0,181.9 364.1,182.4 365.1,182.9 366.1,183.4 367.2,185.4 368.2,185.9 369.2,165.2 370.3,164.8 371.3,164.3 372.3,164.8 373.4,164.3 374.4,163.9 375.4,163.4 376.5,164.2 377.5,162.7 378.5,162.2 379.6,161.7 380.6,161.2 381.6,160.7 382.7,164.1 383.7,163.7 384.7,163.3 385.8,162.9 386.8,162.5 387.8,162.2 388.9,161.7 389.9,158.2 390.9,157.4 392.0,156.7 393.0,156.2 394.0,155.4 395.1,154.6 396.1,153.9 397.1,163.8 398.2,163.5 399.2,163.2 400.2,163.0 401.3,162.8 402.3,162.6 403.3,166.3 404.4,166.2 405.4,166.1 406.4,166.1 407.5,166.0 408.5,165.9 409.5,165.8 410.6,164.0 411.6,163.8 412.6,163.7 413.7,162.7 414.7,162.6 415.7,162.6 416.8,162.6 417.8,162.3 418.8,161.9 419.9,161.8 420.9,161.6 421.9,161.5 423.0,161.3 424.0,162.4 425.0,162.2 426.1,162.0 427.1,161.8 428.1,161.5 429.2,162.0 430.2,161.8 431.2,153.4 432.3,152.9 433.3,152.3 434.3,152.5 435.4,151.9 436.4,151.3 437.4,150.7 438.5,120.4 439.5,118.3 440.5,116.1 441.6,114.0 442.6,111.9 443.6,109.7 444.7,124.7 445.7,123.4 446.7,122.2 447.8,121.1 448.8,119.9 449.8,118.8 450.9,117.6 451.9,136.1 452.9,135.7 454.0,135.3 455.0,134.2 456.0,133.7 457.1,133.3 458.1,132.9 459.1,123.2 460.2,120.8 461.2,120.2 462.2,119.5 463.3,118.9 464.3,118.2 465.3,116.7 466.4,116.9 467.4,117.1 468.4,117.3 469.5,117.5 470.5,117.2 471.5,117.4 472.6,118.4 473.6,118.6 474.6,118.7 475.7,119.5 476.7,119.6 477.7,119.7 478.8,119.8 479.8,96.5 480.8,96.5 481.9,95.5 482.9,94.4 483.9,93.3 485.0,92.3 486.0,97.0 487.0,103.1 488.1,102.3 489.1,101.5 490.1,100.8 491.2,101.0 492.2,100.2 493.2,120.7 494.3,121.0 495.3,121.3 496.3,121.7 497.4,121.9 498.4,122.1 499.4,122.4 500.5,118.4 501.5,118.4 502.5,118.4 503.6,118.4 504.6,118.5 505.6,118.5 506.7,170.0 507.7,170.6 508.7,171.3 509.8,172.0 510.8,172.6 511.8,172.7 512.9,173.3 513.9,163.2 514.9,163.3 516.0,163.4 517.0,163.5 518.0,163.5 519.1,163.5 520.1,163.5 521.1,145.8 522.2,143.5 523.2,142.7 524.2,141.9 525.3,141.1 526.3,140.3 527.3,194.8 528.4,194.1 529.4,193.5 530.4,192.8 531.5,192.1 532.5,190.5 533.5,189.9 534.6,188.3 535.6,187.7 536.6,187.0 537.7,188.1 538.7,187.5 539.7,186.9 540.8,186.2 541.8,207.2 542.8,208.5 543.9,208.9 544.9,209.3 545.9,209.7 547.0,210.1 548.0,208.6 549.0,208.8 550.1,208.9 551.1,209.1 552.1,209.2 553.2,209.7 554.2,209.8 555.2,195.8 556.3,195.2 557.3,194.7 558.3,194.3 559.4,193.8 560.4,193.2 561.4,192.6 562.5,199.5 563.5,199.9 564.5,199.8 565.6,199.7 566.6,199.7 567.6,199.6 568.7,214.2 569.7,197.9 570.7,198.7 571.8,199.5 572.8,200.4 573.8,201.2 574.9,202.0 575.9,200.6 576.9,201.3 578.0,202.0 579.0,202.7 580.0,203.4 581.1,204.1 582.1,204.8 583.1,219.7 584.2,221.0 585.2,222.4 586.2,223.7 587.3,225.1 588.3,226.5 589.3,230.1 590.4,226.8 591.4,228.4 592.4,229.9 593.5,231.4 594.5,232.2 595.5,233.8 596.6,224.4 597.6,225.4 598.6,226.4 599.7,229.9 600.7,231.1 601.7,232.2 602.8,233.4 603.8,214.6 604.8,214.9 605.9,215.1 606.9,215.3 607.9,215.6 609.0,215.9 610.0,215.6 611.0,215.9 612.1,216.3 613.1,216.6 614.1,216.9 615.2,217.4 616.2,217.6 617.2,177.8 618.3,176.0 619.3,174.1 620.3,172.0 621.4,170.1 622.4,168.2 623.4,166.3 624.5,169.7 625.5,168.3 626.5,166.6 627.6,164.9 628.6,163.3 629.6,161.7 630.7,161.5 631.7,164.7 632.7,163.3 633.8,162.0 634.8,160.6 635.8,159.0 636.9,157.6 637.9,154.6 638.9,153.1 640.0,151.6 641.0,150.4 642.0,148.9 643.1,147.4 644.1,145.9 645.1,161.0 646.2,158.4 647.2,157.7 648.2,157.0 649.3,156.2 650.3,155.4 651.3,143.5 652.4,104.9 653.4,103.6 654.4,102.3 655.5,101.0 656.5,103.5 657.5,102.2 658.6,128.6 659.6,128.7 660.6,128.7 661.7,128.6 662.7,128.5 663.7,128.5 664.8,128.5 665.8,133.2 666.8,126.2 667.9,126.1 668.9,126.0 669.9,125.8 671.0,125.6 672.0,94.8 673.0,72.4 674.1,70.9 675.1,69.3 676.1,67.7 677.2,63.2 678.2,61.5 679.2,84.4 680.3,84.0 681.3,83.5 682.3,86.7 683.4,86.4 684.4,86.1 685.4,85.8 686.5,81.6 687.5,85.8 688.5,85.4 689.6,84.9 690.6,84.3 691.6,83.9 692.7,96.6 693.7,95.4 694.7,94.3 695.8,93.2 696.8,92.1 697.8,94.8 698.9,93.7 699.9,94.4 700.9,93.3 702.0,92.2 703.0,95.4 704.0,94.1 705.1,92.9 706.1,91.6 707.1,108.4 708.2,106.0 709.2,105.7 710.2,105.3 711.3,104.9 712.3,104.5 713.3,193.9 714.4,194.0 715.4,194.0 716.4,194.0 717.5,193.9 718.5,195.4 719.5,195.4 720.6,209.6 721.6,210.4 722.6,211.1 723.7,205.2 724.7,205.9 725.7,206.6 726.8,207.2 727.8,178.6 728.8,187.6 729.9,186.9 730.9,186.2 731.9,185.5 733.0,184.8 734.0,203.5 735.0,141.9 736.1,142.2 737.1,142.6 738.1,142.9 739.2,144.3 740.2,144.7 741.2,171.2 742.3,172.8 743.3,174.2 744.3,178.0 745.4,179.5 746.4,181.0 747.4,182.4 748.5,168.8 749.5,183.0 750.5,184.0 751.6,184.9 752.6,185.9 753.6,186.9 754.7,179.2 755.7,132.0 756.7,132.6 757.8,133.0 758.8,133.5 759.8,131.0 760.9,131.4 761.9,114.9 762.9,114.3 764.0,113.7 765.0,112.7 766.0,112.1 767.1,111.5 768.1,110.9 769.1,102.3 770.2,100.8 771.2,99.8 772.2,98.7 773.3,97.6 774.3,96.5 775.3,112.5 776.4,135.5 777.4,134.8 778.4,134.1 779.5,133.3 780.5,141.8 781.5,141.2 782.6,137.4 783.6,136.8 784.6,136.2 785.7,129.3 786.7,128.6 787.7,127.9 788.8,127.3 789.8,115.4 790.8,115.5 791.9,114.2 792.9,112.9 793.9,111.6 795.0,110.2 796.0,81.4"/>
<text x="640" y="56" font-family="Arial" font-size="12" fill="#0f766e">dropout_robust position error</text>
</svg>