<svg xmlns="http://www.w3.org/2000/svg" width="820" height="320" viewBox="0 0 820 320">
<rect width="100%" height="100%" fill="white"/>
<text x="52" y="30" font-family="Arial" font-size="18" font-weight="700">dropout_robust covariance trace</text>
<line x1="52" y1="274" x2="796" y2="274" stroke="#263238"/>
<line x1="52" y1="42" x2="52" y2="274" stroke="#263238"/>
<text x="52" y="306" font-family="Arial" font-size="12">time (s)</text>
<text x="630" y="306" font-family="Arial" font-size="12">sqrt trace P</text>

<polyline fill="none" stroke="#0f766e" stroke-width="2.3" points="52.0,42.1 53.0,42.1 54.1,42.1 55.1,42.1 56.1,42.0 57.2,52.3 58.2,52.1 59.2,52.3 60.3,52.2 61.3,52.1 62.3,56.7 63.4,56.6 64.4,56.5 65.4,56.4 66.5,56.6 67.5,59.2 68.5,59.1 69.6,59.0 70.6,58.9 71.6,58.8 72.7,143.6 73.7,143.6 74.7,143.5 75.8,143.4 76.8,143.2 77.8,144.5 78.9,144.4 79.9,144.6 80.9,144.5 82.0,144.4 83.0,145.4 84.0,145.2 85.1,145.0 86.1,144.8 87.1,145.2 88.2,146.0 89.2,145.8 90.2,145.7 91.3,145.5 92.3,145.3 93.3,146.4 94.4,184.5 95.4,184.3 96.4,184.2 97.5,184.0 98.5,184.5 99.5,184.3 100.6,184.7 101.6,184.5 102.6,184.3 103.7,184.7 104.7,184.5 105.7,184.3 106.8,184.1 107.8,184.6 108.8,184.9 109.9,184.7 110.9,184.5 111.9,184.3 113.0,184.1 114.0,208.3 115.0,208.2 116.1,208.0 117.1,207.8 118.1,207.6 119.2,207.8 120.2,207.6 121.2,208.0 122.3,207.8 123.3,207.6 124.3,207.8 125.4,207.6 126.4,207.4 127.4,207.1 128.5,207.7 129.5,207.8 130.5,207.6 131.6,207.4 132.6,207.1 133.6,206.9 134.7,207.8 135.7,223.9 136.7,223.7 137.8,223.5 138.8,223.3 139.8,223.4 140.9,223.1 141.9,223.6 142.9,223.4 144.0,223.2 145.0,223.3 146.0,223.0 147.1,222.7 148.1,222.5 149.1,223.1 150.2,223.2 151.2,222.9 152.2,222.7 153.3,222.4 154.3,222.1 155.3,223.0 156.4,235.2 157.4,235.0 158.4,234.7 159.5,234.5 160.5,234.5 161.5,234.2 162.6,234.7 163.6,234.5 164.6,234.3 165.7,234.3 166.7,234.0 167.7,233.8 168.8,233.4 169.8,234.1 170.8,234.1 171.9,233.9 172.9,233.6 173.9,233.3 175.0,233.0 176.0,243.8 177.0,243.6 178.1,243.3 179.1,243.1 180.1,242.8 181.2,242.8 182.2,242.5 183.2,243.1 184.3,242.8 185.3,242.6 186.3,242.6 187.4,242.3 188.4,242.0 189.4,241.6 190.5,242.3 191.5,242.3 192.5,242.1 193.6,241.8 194.6,241.5 195.6,241.1 196.7,250.3 197.7,250.1 198.7,249.8 199.8,249.5 200.8,249.2 201.8,249.2 202.9,248.9 203.9,249.5 204.9,249.2 206.0,249.0 207.0,248.9 208.0,248.6 209.1,248.3 210.1,248.0 211.1,248.7 212.2,248.7 213.2,248.4 214.2,248.1 215.3,247.8 216.3,247.4 217.3,248.4 218.4,255.2 219.4,254.9 220.4,254.7 221.5,254.4 222.5,254.3 223.5,254.0 224.6,254.6 225.6,254.3 226.6,254.1 227.7,254.0 228.7,253.7 229.7,253.4 230.8,253.0 231.8,253.7 232.8,253.7 233.9,253.4 234.9,253.1 235.9,252.8 237.0,252.4 238.0,253.4 239.0,259.4 240.1,259.1 241.1,258.8 242.1,258.5 243.2,258.4 244.2,258.1 245.2,258.7 246.3,258.4 247.3,258.1 248.3,258.1 249.4,257.8 250.4,257.4 251.4,257.1 252.5,257.8 253.5,257.8 254.5,257.5 255.6,257.1 256.6,256.8 257.6,256.5 258.7,263.0 259.7,262.7 260.7,262.4 261.8,262.1 262.8,261.8 263.8,261.7 264.9,261.4 265.9,262.1 266.9,261.8 268.0,261.5 269.0,261.4 270.0,261.1 271.1,260.7 272.1,260.3 273.1,261.1 274.2,261.1 275.2,260.7 276.2,260.4 277.3,260.1 278.3,259.7 279.3,260.7 280.4,265.5 281.4,265.2 282.4,264.9 283.5,264.6 284.5,264.5 285.5,264.1 286.6,264.8 287.6,264.5 288.6,264.2 289.7,264.2 290.7,263.8 291.7,263.5 292.8,263.1 293.8,263.8 294.8,263.8 295.9,263.5 296.9,263.1 297.9,262.8 299.0,262.4 300.0,268.1 301.0,267.8 302.1,267.5 303.1,267.2 304.1,266.9 305.2,266.8 306.2,266.4 307.2,267.1 308.3,266.8 309.3,266.5 310.3,266.4 311.4,266.1 312.4,265.7 313.4,265.3 314.5,266.1 315.5,266.0 316.5,265.7 317.6,265.4 318.6,265.0 319.6,264.6 320.7,270.0 321.7,269.8 322.7,269.4 323.8,269.1 324.8,268.8 325.8,268.7 326.9,268.3 327.9,269.0 328.9,268.7 330.0,268.4 331.0,268.3 332.0,268.0 333.1,267.6 334.1,267.2 335.1,268.0 336.2,267.9 337.2,267.6 338.2,267.3 339.3,266.9 340.3,266.5 341.3,267.5 342.4,271.4 343.4,271.1 344.4,270.8 345.5,270.4 346.5,270.3 347.5,269.9 348.6,270.6 349.6,270.3 350.6,270.0 351.7,269.9 352.7,269.6 353.7,269.2 354.8,268.8 355.8,269.6 356.8,269.5 357.9,269.2 358.9,268.9 359.9,268.5 361.0,268.1 362.0,269.1 363.0,268.8 364.1,268.5 365.1,268.1 366.1,267.8 367.2,267.7 368.2,267.3 369.2,268.1 370.3,267.7 371.3,267.4 372.3,267.3 373.4,267.0 374.4,266.6 375.4,266.2 376.5,267.0 377.5,267.0 378.5,266.6 379.6,266.3 380.6,265.9 381.6,265.5 382.7,266.6 383.7,266.3 384.7,265.9 385.8,265.6 386.8,265.2 387.8,265.2 388.9,264.8 389.9,265.6 390.9,265.2 392.0,264.9 393.0,264.8 394.0,264.5 395.1,264.1 396.1,263.7 397.1,264.5 398.2,264.5 399.2,264.2 400.2,263.8 401.3,263.5 402.3,263.1 403.3,264.1 404.4,263.8 405.4,263.5 406.4,263.2 407.5,262.8 408.5,262.7 409.5,262.3 410.6,263.1 411.6,262.8 412.6,262.5 413.7,262.4 414.7,262.1 415.7,261.7 416.8,261.3 417.8,262.1 418.8,262.1 419.9,261.8 420.9,261.4 421.9,261.1 423.0,260.7 424.0,261.7 425.0,261.4 426.1,261.1 427.1,260.8 428.1,260.4 429.2,260.4 430.2,260.0 431.2,260.8 432.3,260.5 433.3,260.1 434.3,260.1 435.4,259.7 436.4,259.4 437.4,259.0 438.5,259.8 439.5,259.8 440.5,259.4 441.6,259.1 442.6,258.8 443.6,258.4 444.7,259.4 445.7,259.1 446.7,258.8 447.8,258.5 448.8,258.1 449.8,258.1 450.9,257.7 451.9,258.4 452.9,258.2 454.0,257.8 455.0,257.8 456.0,257.5 457.1,257.1 458.1,256.7 459.1,257.5 460.2,257.5 461.2,257.2 462.2,256.8 463.3,256.5 464.3,256.2 465.3,262.8 466.4,262.5 467.4,262.2 468.4,261.9 469.5,261.6 470.5,261.6 471.5,261.2 472.6,261.8 473.6,261.6 474.6,261.3 475.7,261.2 476.7,260.9 477.7,260.5 478.8,260.2 479.8,260.9 480.8,260.9 481.9,260.6 482.9,260.2 483.9,259.9 485.0,259.6 486.0,260.5 487.0,265.4 488.1,265.1 489.1,264.8 490.1,264.5 491.2,264.4 492.2,264.1 493.2,264.7 494.3,264.4 495.3,264.1 496.3,264.1 497.4,263.7 498.4,263.4 499.4,263.0 500.5,263.7 501.5,263.7 502.5,263.4 503.6,263.0 504.6,262.7 505.6,262.4 506.7,268.0 507.7,267.8 508.7,267.5 509.8,267.2 510.8,266.8 511.8,266.8 512.9,266.4 513.9,267.0 514.9,266.7 516.0,266.4 517.0,266.4 518.0,266.0 519.1,265.7 520.1,265.3 521.1,266.0 522.2,266.0 523.2,265.7 524.2,265.3 525.3,265.0 526.3,264.6 527.3,270.0 528.4,269.7 529.4,269.4 530.4,269.1 531.5,268.8 532.5,268.7 533.5,268.3 534.6,269.0 535.6,268.7 536.6,268.4 537.7,268.3 538.7,268.0 539.7,267.6 540.8,267.2 541.8,267.9 542.8,267.9 543.9,267.6 544.9,267.3 545.9,266.9 547.0,266.5 548.0,271.7 549.0,271.4 550.1,271.1 551.1,270.8 552.1,270.4 553.2,270.3 554.2,270.0 555.2,270.6 556.3,270.3 557.3,270.0 558.3,269.9 559.4,269.6 560.4,269.2 561.4,268.8 562.5,269.6 563.5,269.5 564.5,269.2 565.6,268.9 566.6,268.5 567.6,268.1 568.7,269.1 569.7,272.8 570.7,272.5 571.8,272.2 572.8,271.8 573.8,271.7 574.9,271.4 575.9,272.0 576.9,271.7 578.0,271.4 579.0,271.3 580.0,271.0 581.1,270.6 582.1,270.2 583.1,271.0 584.2,270.9 585.2,270.6 586.2,270.2 587.3,269.9 588.3,269.5 589.3,270.5 590.4,274.0 591.4,273.7 592.4,273.4 593.5,273.0 594.5,272.9 595.5,272.5 596.6,273.2 597.6,272.9 598.6,272.6 599.7,272.5 600.7,272.2 601.7,271.8 602.8,271.4 603.8,272.1 604.8,272.1 605.9,271.8 606.9,271.4 607.9,271.0 609.0,270.7 610.0,271.6 611.0,271.3 612.1,271.0 613.1,270.7 614.1,270.3 615.2,270.2 616.2,269.8 617.2,270.6 618.3,270.2 619.3,269.9 620.3,269.8 621.4,269.5 622.4,269.1 623.4,268.7 624.5,269.5 625.5,269.5 626.5,269.1 627.6,268.8 628.6,268.4 629.6,268.0 630.7,268.6 631.7,272.0 632.7,271.3 633.8,270.6 634.8,269.9 635.8,269.4 636.9,268.6 637.9,269.0 638.9,268.2 640.0,267.5 641.0,267.1 642.0,266.3 643.1,265.5 644.1,264.7 645.1,265.1 646.2,264.7 647.2,264.0 648.2,263.2 649.3,262.4 650.3,261.6 651.3,262.3 652.4,266.5 653.4,265.8 654.4,265.0 655.5,264.2 656.5,263.8 657.5,263.0 658.6,263.4 659.6,262.6 660.6,261.9 661.7,261.5 662.7,260.7 663.7,259.9 664.8,259.1 665.8,259.5 666.8,259.1 667.9,258.3 668.9,257.6 669.9,256.8 671.0,255.9 672.0,256.7 673.0,261.6 674.1,260.9 675.1,260.1 676.1,259.3 677.2,259.0 678.2,258.1 679.2,258.5 680.3,257.7 681.3,257.0 682.3,256.6 683.4,255.8 684.4,255.0 685.4,254.1 686.5,254.5 687.5,254.2 688.5,253.4 689.6,252.6 690.6,251.8 691.6,251.0 692.7,258.0 693.7,257.3 694.7,256.6 695.8,255.8 696.8,255.0 697.8,254.7 698.9,253.9 699.9,254.1 700.9,253.4 702.0,252.6 703.0,252.3 704.0,251.5 705.1,250.6 706.1,249.8 707.1,250.1 708.2,249.8 709.2,249.0 710.2,248.2 711.3,247.4 712.3,246.6 713.3,254.3 714.4,253.6 715.4,252.9 716.4,252.1 717.5,251.3 718.5,251.0 719.5,250.2 720.6,250.4 721.6,249.6 722.6,248.9 723.7,248.5 724.7,247.7 725.7,246.9 726.8,246.1 727.8,246.3 728.8,246.0 729.9,245.2 730.9,244.4 731.9,243.6 733.0,242.8 734.0,243.4 735.0,250.5 736.1,249.8 737.1,249.0 738.1,248.2 739.2,247.9 740.2,247.1 741.2,247.2 742.3,246.5 743.3,245.7 744.3,245.4 745.4,244.6 746.4,243.8 747.4,242.9 748.5,243.1 749.5,242.8 750.5,242.0 751.6,241.2 752.6,240.4 753.6,239.6 754.7,240.2 755.7,247.9 756.7,247.2 757.8,246.4 758.8,245.6 759.8,245.3 760.9,244.5 761.9,244.6 762.9,243.8 764.0,243.1 765.0,242.7 766.0,241.9 767.1,241.1 768.1,240.2 769.1,240.4 770.2,240.1 771.2,239.3 772.2,238.5 773.3,237.7 774.3,236.8 775.3,237.4 776.4,245.7 777.4,245.0 778.4,244.2 779.5,243.4 780.5,243.1 781.5,242.2 782.6,242.3 783.6,241.6 784.6,240.8 785.7,240.5 786.7,239.6 787.7,238.8 788.8,238.0 789.8,238.1 790.8,237.8 791.9,237.0 792.9,236.2 793.9,235.4 795.0,234.5 796.0,244.5"/>
<text x="640" y="56" font-family="Arial" font-size="12" fill="#0f766e">dropout_robust covariance trace</text>
</svg>