<svg xmlns="http://www.w3.org/2000/svg" width="760" height="340" viewBox="0 0 760 340">
<rect width="100%" height="100%" fill="white"/><text x="52" y="30" font-family="Arial" font-size="18" font-weight="700">Filter comparison</text>
<line x1="52" y1="280" x2="736" y2="280" stroke="#263238"/><line x1="52" y1="42" x2="52" y2="280" stroke="#263238"/>
<text x="585" y="324" font-family="Arial" font-size="12">position RMSE (m)</text>
<rect x="62.0" y="67.1" width="71.5" height="212.9" fill="#0f766e"/>
<text x="62.0" y="300" font-family="Arial" font-size="11" transform="rotate(25 62.0,300)">ekf_nominal</text>
<rect x="170.3" y="67.2" width="71.5" height="212.8" fill="#2563eb"/>
<text x="170.3" y="300" font-family="Arial" font-size="11" transform="rotate(25 170.3,300)">ekf_dropout_robust</text>
<rect x="278.7" y="75.4" width="71.5" height="204.6" fill="#b45309"/>
<text x="278.7" y="300" font-family="Arial" font-size="11" transform="rotate(25 278.7,300)">robust_nominal</text>
<rect x="387.0" y="74.9" width="71.5" height="205.1" fill="#be123c"/>
<text x="387.0" y="300" font-family="Arial" font-size="11" transform="rotate(25 387.0,300)">robust_dropout_robust</text>
<rect x="495.3" y="56.4" width="71.5" height="223.6" fill="#4f46e5"/>
<text x="495.3" y="300" font-family="Arial" font-size="11" transform="rotate(25 495.3,300)">adaptive_nominal</text>
<rect x="603.7" y="56.0" width="71.5" height="224.0" fill="#15803d"/>
<text x="603.7" y="300" font-family="Arial" font-size="11" transform="rotate(25 603.7,300)">adaptive_dropout_robust</text>
</svg>