<svg xmlns="http://www.w3.org/2000/svg" width="820" height="320" viewBox="0 0 820 320">
<rect width="100%" height="100%" fill="white"/>
<text x="52" y="30" font-family="Arial" font-size="18" font-weight="700">ekf_dropout_robust NEES proxy</text>
<line x1="52" y1="274" x2="796" y2="274" stroke="#263238"/>
<line x1="52" y1="42" x2="52" y2="274" stroke="#263238"/>
<text x="52" y="306" font-family="Arial" font-size="12">time (s)</text>
<text x="630" y="306" font-family="Arial" font-size="12">value</text>

<rect x="630.7" y="42" width="165.3" height="232" fill="#fef3c7" opacity="0.72"/>
<polyline fill="none" stroke="#0f766e" stroke-width="2.3" points="52.0,264.6 53.0,264.5 54.1,264.4 55.1,264.3 56.1,264.3 57.2,244.8 58.2,244.5 59.2,242.7 60.3,242.0 61.3,241.4 62.3,249.0 63.4,248.4 64.4,247.7 65.4,247.1 66.5,248.4 67.5,265.0 68.5,265.0 69.6,265.1 70.6,265.2 71.6,265.4 72.7,270.7 73.7,270.8 74.7,271.0 75.8,271.2 76.8,271.4 77.8,266.8 78.9,267.2 79.9,268.6 80.9,269.0 82.0,269.4 83.0,265.1 84.0,265.8 85.1,266.5 86.1,267.2 87.1,263.3 88.2,253.0 89.2,253.8 90.2,254.6 91.3,255.4 92.3,256.4 93.3,270.0 94.4,271.8 95.4,272.5 96.4,273.2 97.5,273.6 98.5,270.7 99.5,272.1 100.6,267.2 101.6,268.5 102.6,269.7 103.7,270.7 104.7,271.9 105.7,273.0 106.8,274.0 107.8,265.6 108.8,249.6 109.9,250.8 110.9,252.1 111.9,253.4 113.0,254.7 114.0,241.5 115.0,242.6 116.1,243.7 117.1,244.8 118.1,246.0 119.2,259.3 120.2,260.4 121.2,242.8 122.3,242.5 123.3,242.3 124.3,238.9 125.4,238.7 126.4,238.4 127.4,238.2 128.5,233.4 129.5,235.6 130.5,235.1 131.6,234.6 132.6,234.2 133.6,233.8 134.7,264.3 135.7,260.8 136.7,260.8 137.8,260.8 138.8,260.8 139.8,260.0 140.9,260.1 141.9,259.1 142.9,259.0 144.0,258.8 145.0,255.0 146.0,255.1 147.1,255.2 148.1,255.3 149.1,242.5 150.2,245.6 151.2,245.1 152.2,244.7 153.3,244.3 154.3,243.9 155.3,242.0 156.4,171.0 157.4,170.3 158.4,169.6 159.5,169.0 160.5,169.9 161.5,169.2 162.6,172.0 163.6,171.4 164.6,170.7 165.7,159.3 166.7,158.8 167.7,158.4 168.8,158.1 169.8,182.3 170.8,182.4 171.9,183.4 172.9,184.5 173.9,185.6 175.0,186.7 176.0,128.8 177.0,129.7 178.1,130.8 179.1,131.9 180.1,133.1 181.2,132.5 182.2,133.9 183.2,120.4 184.3,120.9 185.3,121.3 186.3,141.6 187.4,142.1 188.4,142.7 189.4,143.4 190.5,148.8 191.5,161.7 192.5,162.5 193.6,163.4 194.6,164.3 195.6,165.1 196.7,184.8 197.7,186.5 198.7,188.2 199.8,189.9 200.8,191.6 201.8,195.0 202.9,196.8 203.9,187.7 204.9,188.9 206.0,190.1 207.0,191.7 208.0,192.9 209.1,194.0 210.1,195.2 211.1,185.3 212.2,184.9 213.2,185.4 214.2,186.0 215.3,186.6 216.3,187.3 217.3,168.7 218.4,111.0 219.4,110.3 220.4,109.7 221.5,108.9 222.5,105.2 223.5,104.4 224.6,116.9 225.6,116.8 226.6,116.6 227.7,121.8 228.7,121.8 229.7,121.8 230.8,121.9 231.8,128.8 232.8,132.6 233.9,132.9 234.9,133.1 235.9,133.3 237.0,133.6 238.0,126.1 239.0,115.0 240.1,114.5 241.1,114.1 242.1,113.6 243.2,122.4 244.2,122.3 245.2,140.5 246.3,140.7 247.3,140.9 248.3,142.8 249.4,142.9 250.4,142.9 251.4,142.9 252.5,165.5 253.5,178.1 254.5,179.9 255.6,181.6 256.6,183.3 257.6,185.0 258.7,189.5 259.7,190.7 260.7,191.9 261.8,193.1 262.8,194.2 263.8,196.1 264.9,197.3 265.9,210.6 266.9,212.4 268.0,214.1 269.0,214.3 270.0,215.9 271.1,217.5 272.1,219.0 273.1,228.1 274.2,229.8 275.2,231.5 276.2,233.1 277.3,234.7 278.3,236.3 279.3,226.6 280.4,218.5 281.4,220.0 282.4,221.4 283.5,222.9 284.5,223.1 285.5,224.6 286.6,218.8 287.6,219.9 288.6,221.1 289.7,222.3 290.7,223.4 291.7,224.5 292.8,225.6 293.8,225.5 294.8,226.5 295.9,227.4 296.9,228.4 297.9,229.3 299.0,230.2 300.0,244.3 301.0,245.0 302.1,245.7 303.1,246.4 304.1,247.1 305.2,247.7 306.2,248.4 307.2,234.8 308.3,234.8 309.3,234.8 310.3,229.1 311.4,229.1 312.4,229.1 313.4,229.0 314.5,222.7 315.5,222.4 316.5,222.0 317.6,221.6 318.6,221.2 319.6,220.8 320.7,229.3 321.7,229.2 322.7,229.1 323.8,229.1 324.8,229.1 325.8,230.1 326.9,230.2 327.9,228.6 328.9,228.7 330.0,228.7 331.0,221.6 332.0,221.6 333.1,221.7 334.1,221.8 335.1,200.1 336.2,195.5 337.2,194.3 338.2,193.1 339.3,191.9 340.3,190.7 341.3,182.5 342.4,99.0 343.4,96.6 344.4,94.2 345.5,91.9 346.5,96.5 347.5,94.4 348.6,130.3 349.6,130.3 350.6,130.4 351.7,138.0 352.7,138.2 353.7,138.4 354.8,138.6 355.8,147.4 356.8,137.9 357.9,138.0 358.9,138.2 359.9,138.4 361.0,138.7 362.0,165.1 363.0,166.3 364.1,167.5 365.1,168.7 366.1,169.9 367.2,175.7 368.2,177.0 369.2,154.7 370.3,155.0 371.3,155.3 372.3,159.1 373.4,159.5 374.4,159.9 375.4,160.4 376.5,157.8 377.5,154.2 378.5,154.4 379.6,154.6 380.6,154.9 381.6,155.3 382.7,159.5 383.7,159.7 384.7,160.0 385.8,160.2 386.8,160.5 387.8,161.2 388.9,161.5 389.9,156.8 390.9,156.7 392.0,156.6 393.0,157.6 394.0,157.6 395.1,157.7 396.1,157.8 397.1,166.8 398.2,167.1 399.2,167.6 400.2,168.0 401.3,168.5 402.3,169.0 403.3,170.6 404.4,171.1 405.4,171.6 406.4,172.2 407.5,172.8 408.5,173.2 409.5,173.8 410.6,170.6 411.6,171.0 412.6,171.4 413.7,169.5 414.7,170.0 415.7,170.6 416.8,171.3 417.8,170.6 418.8,170.3 419.9,170.8 420.9,171.3 421.9,171.9 423.0,172.5 424.0,170.8 425.0,171.1 426.1,171.3 427.1,171.6 428.1,171.9 429.2,174.1 430.2,174.5 431.2,164.4 432.3,164.4 433.3,164.4 434.3,166.3 435.4,166.4 436.4,166.4 437.4,166.5 438.5,137.2 439.5,135.6 440.5,134.2 441.6,132.9 442.6,131.6 443.6,130.3 444.7,143.8 445.7,143.2 446.7,142.8 447.8,142.3 448.8,142.0 449.8,141.8 450.9,141.4 451.9,156.6 452.9,156.8 454.0,157.1 455.0,154.9 456.0,155.2 457.1,155.5 458.1,155.8 459.1,146.4 460.2,140.5 461.2,140.6 462.2,140.8 463.3,141.1 464.3,141.3 465.3,119.3 466.4,120.4 467.4,121.5 468.4,122.6 469.5,123.8 470.5,123.1 471.5,124.4 472.6,126.2 473.6,127.3 474.6,128.4 475.7,131.4 476.7,132.5 477.7,133.5 478.8,134.7 479.8,103.3 480.8,106.4 481.9,106.1 482.9,105.8 483.9,105.6 485.0,105.4 486.0,110.0 487.0,96.0 488.1,95.9 489.1,95.9 490.1,96.0 491.2,99.2 492.2,99.3 493.2,122.3 494.3,123.5 495.3,124.6 496.3,125.0 497.4,126.0 498.4,127.1 499.4,128.2 500.5,122.6 501.5,122.9 502.5,123.7 503.6,124.5 504.6,125.4 505.6,126.3 506.7,165.0 507.7,166.1 508.7,167.3 509.8,168.6 510.8,169.9 511.8,171.2 512.9,172.5 513.9,161.6 514.9,162.3 516.0,163.0 517.0,163.7 518.0,164.4 519.1,165.1 520.1,165.8 521.1,145.1 522.2,143.5 523.2,143.5 524.2,143.5 525.3,143.5 526.3,143.6 527.3,184.5 528.4,184.5 529.4,184.4 530.4,184.4 531.5,184.4 532.5,182.8 533.5,183.1 534.6,178.4 535.6,178.5 536.6,178.6 537.7,182.2 538.7,182.3 539.7,182.5 540.8,182.7 541.8,200.4 542.8,201.4 543.9,202.1 544.9,202.8 545.9,203.5 547.0,204.3 548.0,188.7 549.0,189.1 550.1,189.3 551.1,189.6 552.1,189.9 553.2,191.5 554.2,191.9 555.2,178.2 556.3,177.9 557.3,177.7 558.3,177.8 559.4,177.6 560.4,177.5 561.4,177.3 562.5,183.6 563.5,186.1 564.5,186.4 565.6,186.7 566.6,187.2 567.6,187.7 568.7,200.1 569.7,179.8 570.7,181.1 571.8,182.3 572.8,183.6 573.8,184.6 574.9,186.0 575.9,185.1 576.9,186.3 578.0,187.5 579.0,188.4 580.0,189.6 581.1,190.9 582.1,192.1 583.1,203.9 584.2,205.0 585.2,206.6 586.2,208.2 587.3,209.8 588.3,211.4 589.3,214.3 590.4,205.7 591.4,207.4 592.4,209.2 593.5,210.9 594.5,211.7 595.5,213.4 596.6,203.1 597.6,204.2 598.6,205.4 599.7,210.7 600.7,212.1 601.7,213.5 602.8,214.8 603.8,198.3 604.8,197.5 605.9,198.2 606.9,198.9 607.9,199.8 609.0,200.7 610.0,197.1 611.0,198.0 612.1,199.0 613.1,200.0 614.1,201.0 615.2,204.2 616.2,204.9 617.2,167.4 618.3,166.2 619.3,165.2 620.3,164.0 621.4,162.9 622.4,161.8 623.4,160.7 624.5,162.4 625.5,161.0 626.5,160.1 627.6,159.2 628.6,158.4 629.6,157.7 630.7,157.5 631.7,148.0 632.7,148.4 633.8,148.8 634.8,149.3 635.8,149.1 636.9,149.7 637.9,147.9 638.9,148.3 640.0,148.7 641.0,149.6 642.0,150.1 643.1,150.6 644.1,151.2 645.1,164.8 646.2,161.9 647.2,163.0 648.2,164.1 649.3,165.1 650.3,166.2 651.3,147.4 652.4,80.7 653.4,81.3 654.4,81.9 655.5,82.6 656.5,93.3 657.5,94.2 658.6,126.6 659.6,128.6 660.6,130.7 661.7,131.2 662.7,133.2 663.7,135.2 664.8,137.2 665.8,137.9 666.8,118.1 667.9,119.7 668.9,121.4 669.9,123.1 671.0,124.8 672.0,85.9 673.0,50.7 674.1,51.6 675.1,52.5 676.1,53.5 677.2,42.0 678.2,43.1 679.2,66.3 680.3,68.2 681.3,70.1 682.3,79.2 683.4,81.3 684.4,83.3 685.4,85.5 686.5,77.2 687.5,89.6 688.5,91.2 689.6,92.7 690.6,94.3 691.6,96.0 692.7,85.9 693.7,87.5 694.7,89.2 695.8,91.0 696.8,92.8 697.8,102.6 698.9,104.4 699.9,105.6 700.9,107.2 702.0,108.7 703.0,120.4 704.0,121.6 705.1,122.9 706.1,124.2 707.1,137.3 708.2,132.4 709.2,134.2 710.2,136.0 711.3,137.8 712.3,139.7 713.3,172.0 714.4,173.2 715.4,174.4 716.4,175.7 717.5,176.9 718.5,177.9 719.5,179.2 720.6,189.9 721.6,191.6 722.6,193.2 723.7,178.4 724.7,180.3 725.7,182.3 726.8,184.2 727.8,144.1 728.8,159.6 729.9,159.8 730.9,160.2 731.9,160.6 733.0,161.2 734.0,186.2 735.0,149.7 736.1,151.8 737.1,153.9 738.1,156.0 739.2,158.2 740.2,160.3 741.2,166.5 742.3,168.4 743.3,170.2 744.3,173.8 745.4,175.5 746.4,177.3 747.4,179.1 748.5,173.6 749.5,201.2 750.5,202.6 751.6,204.1 752.6,205.5 753.6,207.0 754.7,181.3 755.7,138.6 756.7,139.6 757.8,140.6 758.8,141.7 759.8,130.9 760.9,131.9 761.9,124.6 762.9,125.2 764.0,126.0 765.0,121.4 766.0,122.3 767.1,123.2 768.1,124.1 769.1,113.9 770.2,107.7 771.2,108.1 772.2,108.5 773.3,109.0 774.3,109.5 775.3,133.5 776.4,132.9 777.4,133.0 778.4,133.2 779.5,133.4 780.5,152.3 781.5,152.7 782.6,160.5 783.6,161.4 784.6,162.3 785.7,144.6 786.7,145.7 787.7,146.8 788.8,148.0 789.8,145.5 790.8,147.0 791.9,147.9 792.9,148.9 793.9,149.9 795.0,150.9 796.0,90.0"/>
<text x="640" y="56" font-family="Arial" font-size="12" fill="#0f766e">ekf_dropout_robust NEES proxy</text>
</svg>