<svg xmlns="http://www.w3.org/2000/svg" width="820" height="320" viewBox="0 0 820 320">
<rect width="100%" height="100%" fill="white"/>
<text x="52" y="30" font-family="Arial" font-size="18" font-weight="700">ekf_nominal NEES proxy</text>
<line x1="52" y1="274" x2="796" y2="274" stroke="#263238"/>
<line x1="52" y1="42" x2="52" y2="274" stroke="#263238"/>
<text x="52" y="306" font-family="Arial" font-size="12">time (s)</text>
<text x="630" y="306" font-family="Arial" font-size="12">value</text>

<rect x="630.7" y="42" width="165.3" height="232" fill="#fef3c7" opacity="0.72"/>
<polyline fill="none" stroke="#0f766e" stroke-width="2.3" points="52.0,269.1 53.0,269.0 54.1,269.0 55.1,269.0 56.1,268.9 57.2,236.3 58.2,236.0 59.2,233.8 60.3,233.0 61.3,232.2 62.3,245.7 63.4,245.0 64.4,244.2 65.4,243.5 66.5,243.6 67.5,269.0 68.5,269.0 69.6,269.0 70.6,269.0 71.6,269.0 72.7,269.1 73.7,269.3 74.7,269.4 75.8,269.7 76.8,270.0 77.8,262.9 78.9,263.4 79.9,266.7 80.9,267.5 82.0,268.2 83.0,261.6 84.0,262.8 85.1,264.1 86.1,265.3 87.1,256.8 88.2,241.0 89.2,242.1 90.2,243.4 91.3,244.7 92.3,246.1 93.3,266.1 94.4,270.1 95.4,271.5 96.4,272.9 97.5,274.0 98.5,264.0 99.5,266.5 100.6,256.8 101.6,259.1 102.6,261.2 103.7,263.4 104.7,265.5 105.7,267.5 106.8,269.4 107.8,252.7 108.8,223.9 109.9,226.3 110.9,228.8 111.9,231.3 113.0,233.7 114.0,212.1 115.0,214.4 116.1,216.8 117.1,219.3 118.1,221.8 119.2,247.3 120.2,249.4 121.2,226.1 122.3,227.1 123.3,228.1 124.3,224.4 125.4,225.5 126.4,226.6 127.4,227.6 128.5,213.0 129.5,218.7 130.5,219.3 131.6,219.9 132.6,220.5 133.6,221.2 134.7,262.9 135.7,261.1 136.7,261.6 137.8,262.1 138.8,262.5 139.8,261.3 140.9,261.9 141.9,261.1 142.9,261.5 144.0,261.8 145.0,253.7 146.0,254.5 147.1,255.3 148.1,255.9 149.1,237.7 150.2,244.7 151.2,245.0 152.2,245.3 153.3,245.5 154.3,245.8 155.3,240.1 156.4,189.2 157.4,189.2 158.4,189.2 159.5,189.3 160.5,191.8 161.5,191.8 162.6,195.6 163.6,195.5 164.6,195.4 165.7,177.4 166.7,177.6 167.7,177.8 168.8,178.0 169.8,197.0 170.8,196.7 171.9,197.7 172.9,198.6 173.9,199.6 175.0,200.6 176.0,162.9 177.0,163.8 178.1,164.8 179.1,165.8 180.1,166.9 181.2,165.4 182.2,166.6 183.2,154.4 184.3,155.1 185.3,155.8 186.3,180.9 187.4,181.5 188.4,182.1 189.4,182.7 190.5,186.4 191.5,198.8 192.5,199.4 193.6,199.9 194.6,200.5 195.6,201.0 196.7,215.7 197.7,216.6 198.7,217.6 199.8,218.5 200.8,219.5 201.8,221.2 202.9,222.1 203.9,217.2 204.9,218.0 206.0,218.7 207.0,219.6 208.0,220.3 209.1,221.0 210.1,221.7 211.1,213.1 212.2,213.3 213.2,213.7 214.2,214.1 215.3,214.6 216.3,215.0 217.3,203.0 218.4,160.9 219.4,160.9 220.4,161.0 221.5,161.0 222.5,158.9 223.5,158.8 224.6,165.2 225.6,165.3 226.6,165.4 227.7,167.1 228.7,167.3 229.7,167.5 230.8,167.7 231.8,175.2 232.8,175.9 233.9,176.2 234.9,176.5 235.9,176.8 237.0,177.1 238.0,176.2 239.0,169.0 240.1,169.1 241.1,169.3 242.1,169.4 243.2,172.9 244.2,173.4 245.2,191.5 246.3,192.0 247.3,192.5 248.3,193.6 249.4,194.0 250.4,194.4 251.4,194.8 252.5,207.4 253.5,205.0 254.5,206.4 255.6,207.8 256.6,209.2 257.6,210.5 258.7,216.4 259.7,217.4 260.7,218.3 261.8,219.3 262.8,220.2 263.8,220.8 264.9,221.7 265.9,231.1 266.9,232.3 268.0,233.4 269.0,235.5 270.0,236.4 271.1,237.4 272.1,238.3 273.1,241.4 274.2,232.8 275.2,234.1 276.2,235.3 277.3,236.6 278.3,237.8 279.3,232.0 280.4,227.7 281.4,229.0 282.4,230.2 283.5,231.5 284.5,224.6 285.5,226.0 286.6,225.4 287.6,226.7 288.6,227.9 289.7,232.3 290.7,233.4 291.7,234.6 292.8,235.7 293.8,228.0 294.8,229.7 295.9,230.8 296.9,231.8 297.9,232.9 299.0,233.9 300.0,246.4 301.0,247.3 302.1,248.1 303.1,249.0 304.1,249.8 305.2,250.1 306.2,250.9 307.2,235.3 308.3,235.9 309.3,236.5 310.3,223.6 311.4,224.4 312.4,225.1 313.4,225.8 314.5,222.1 315.5,223.3 316.5,223.8 317.6,224.3 318.6,224.7 319.6,225.1 320.7,226.8 321.7,227.1 322.7,227.5 323.8,227.9 324.8,228.4 325.8,231.3 326.9,231.8 327.9,231.2 328.9,231.7 330.0,232.2 331.0,216.9 332.0,217.5 333.1,218.1 334.1,218.7 335.1,192.4 336.2,186.9 337.2,187.1 338.2,187.2 339.3,187.2 340.3,187.4 341.3,184.8 342.4,126.3 343.4,125.9 344.4,125.6 345.5,125.3 346.5,135.5 347.5,135.3 348.6,160.9 349.6,161.2 350.6,161.7 351.7,174.3 352.7,174.6 353.7,175.0 354.8,175.4 355.8,179.9 356.8,165.8 357.9,166.1 358.9,166.5 359.9,166.9 361.0,167.3 362.0,195.1 363.0,195.8 364.1,196.5 365.1,197.1 366.1,197.8 367.2,204.4 368.2,205.1 369.2,189.4 370.3,189.8 371.3,190.2 372.3,194.0 373.4,194.3 374.4,194.7 375.4,195.0 376.5,193.3 377.5,189.6 378.5,189.9 379.6,190.3 380.6,190.6 381.6,191.0 382.7,194.9 383.7,195.2 384.7,195.4 385.8,195.7 386.8,196.0 387.8,196.5 388.9,196.7 389.9,192.6 390.9,192.7 392.0,192.8 393.0,193.1 394.0,193.2 395.1,193.3 396.1,193.4 397.1,199.1 398.2,195.2 399.2,195.3 400.2,195.5 401.3,195.7 402.3,195.8 403.3,198.3 404.4,198.5 405.4,198.8 406.4,199.0 407.5,199.2 408.5,198.5 409.5,198.7 410.6,197.1 411.6,197.3 412.6,197.5 413.7,189.7 414.7,189.8 415.7,190.1 416.8,190.3 417.8,194.0 418.8,191.3 419.9,191.6 420.9,191.9 421.9,192.2 423.0,192.6 424.0,193.8 425.0,193.9 426.1,194.0 427.1,194.0 428.1,194.1 429.2,199.1 430.2,199.3 431.2,190.3 432.3,190.3 433.3,190.4 434.3,194.6 435.4,194.8 436.4,194.9 437.4,195.0 438.5,171.4 439.5,170.5 440.5,170.2 441.6,169.8 442.6,169.4 443.6,169.1 444.7,179.6 445.7,179.5 446.7,179.5 447.8,179.5 448.8,179.6 449.8,179.1 450.9,179.1 451.9,188.3 452.9,188.4 454.0,188.5 455.0,183.6 456.0,183.8 457.1,183.9 458.1,184.1 459.1,178.1 460.2,165.0 461.2,165.3 462.2,165.6 463.3,165.9 464.3,166.2 465.3,149.4 466.4,150.0 467.4,150.7 468.4,151.4 469.5,152.0 470.5,149.2 471.5,149.9 472.6,155.9 473.6,156.7 474.6,157.4 475.7,163.6 476.7,164.3 477.7,164.9 478.8,165.7 479.8,138.0 480.8,145.6 481.9,145.8 482.9,146.0 483.9,146.2 485.0,146.4 486.0,152.5 487.0,142.3 488.1,142.6 489.1,142.9 490.1,143.2 491.2,148.4 492.2,148.7 493.2,167.0 494.3,167.6 495.3,168.1 496.3,168.2 497.4,168.7 498.4,169.1 499.4,169.6 500.5,166.8 501.5,166.3 502.5,166.7 503.6,167.1 504.6,167.5 505.6,167.9 506.7,197.4 507.7,198.0 508.7,198.7 509.8,199.3 510.8,200.0 511.8,200.7 512.9,201.4 513.9,194.5 514.9,195.0 516.0,195.5 517.0,196.0 518.0,196.5 519.1,197.0 520.1,197.6 521.1,182.5 522.2,174.0 523.2,174.4 524.2,174.7 525.3,175.2 526.3,175.6 527.3,205.7 528.4,206.1 529.4,206.5 530.4,206.9 531.5,207.3 532.5,201.4 533.5,201.9 534.6,193.6 535.6,194.0 536.6,194.4 537.7,202.9 538.7,203.3 539.7,203.7 540.8,204.1 541.8,219.0 542.8,224.2 543.9,224.7 544.9,225.1 545.9,225.6 547.0,226.1 548.0,216.0 549.0,216.2 550.1,216.5 551.1,216.7 552.1,216.9 553.2,218.4 554.2,218.6 555.2,208.3 556.3,208.4 557.3,208.5 558.3,208.8 559.4,208.9 560.4,209.1 561.4,209.2 562.5,212.4 563.5,214.5 564.5,214.8 565.6,215.1 566.6,215.5 567.6,215.9 568.7,225.5 569.7,209.4 570.7,210.2 571.8,211.0 572.8,211.8 573.8,212.6 574.9,213.4 575.9,212.0 576.9,212.8 578.0,213.5 579.0,214.4 580.0,215.1 581.1,215.9 582.1,216.6 583.1,225.8 584.2,226.5 585.2,227.3 586.2,228.1 587.3,229.0 588.3,229.8 589.3,232.0 590.4,225.8 591.4,226.7 592.4,227.7 593.5,228.7 594.5,227.3 595.5,228.3 596.6,220.5 597.6,221.3 598.6,222.2 599.7,229.3 600.7,230.2 601.7,231.2 602.8,232.1 603.8,220.3 604.8,218.5 605.9,219.2 606.9,220.0 607.9,220.8 609.0,221.6 610.0,213.6 611.0,214.4 612.1,215.4 613.1,216.3 614.1,217.2 615.2,224.7 616.2,225.4 617.2,196.2 618.3,196.4 619.3,196.6 620.3,197.5 621.4,197.6 622.4,197.7 623.4,197.8 624.5,194.3 625.5,192.8 626.5,192.9 627.6,193.1 628.6,193.3 629.6,193.5 630.7,188.5 631.7,181.7 632.7,181.9 633.8,182.1 634.8,182.3 635.8,181.3 636.9,181.5 637.9,177.9 638.9,178.1 640.0,178.3 641.0,179.6 642.0,179.9 643.1,180.2 644.1,180.5 645.1,187.1 646.2,180.1 647.2,180.4 648.2,180.7 649.3,181.0 650.3,181.3 651.3,162.1 652.4,114.5 653.4,114.4 654.4,114.4 655.5,114.4 656.5,127.0 657.5,127.1 658.6,150.1 659.6,150.6 660.6,151.2 661.7,149.7 662.7,150.3 663.7,150.9 664.8,151.5 665.8,152.3 666.8,123.2 667.9,123.6 668.9,123.9 669.9,124.2 671.0,124.6 672.0,85.1 673.0,59.6 674.1,59.7 675.1,59.8 676.1,59.9 677.2,42.0 678.2,42.1 679.2,59.0 680.3,59.4 681.3,59.8 682.3,70.9 683.4,71.5 684.4,72.1 685.4,72.7 686.5,64.5 687.5,80.6 688.5,81.0 689.6,81.4 690.6,81.9 691.6,82.4 692.7,68.2 693.7,68.8 694.7,69.5 695.8,70.2 696.8,71.0 697.8,84.3 698.9,85.2 699.9,86.4 700.9,87.2 702.0,88.0 703.0,104.8 704.0,105.4 705.1,106.0 706.1,106.7 707.1,117.3 708.2,108.2 709.2,109.0 710.2,109.8 711.3,110.7 712.3,111.6 713.3,131.7 714.4,132.4 715.4,133.1 716.4,133.9 717.5,134.6 718.5,134.9 719.5,135.7 720.6,148.4 721.6,149.5 722.6,150.5 723.7,128.2 724.7,129.5 725.7,130.8 726.8,132.2 727.8,90.2 728.8,111.4 729.9,112.2 730.9,113.1 731.9,114.0 733.0,115.1 734.0,138.5 735.0,113.9 736.1,115.4 737.1,117.0 738.1,118.5 739.2,120.8 740.2,122.4 741.2,126.6 742.3,128.0 743.3,129.4 744.3,133.6 745.4,135.0 746.4,136.3 747.4,137.7 748.5,131.0 749.5,171.8 750.5,173.0 751.6,174.3 752.6,175.5 753.6,176.9 754.7,148.6 755.7,123.4 756.7,124.6 757.8,125.8 758.8,127.1 759.8,112.0 760.9,113.4 761.9,95.1 762.9,96.1 764.0,97.1 765.0,90.7 766.0,91.8 767.1,93.1 768.1,94.3 769.1,79.3 770.2,70.9 771.2,71.8 772.2,72.7 773.3,73.6 774.3,74.6 775.3,104.9 776.4,101.3 777.4,102.0 778.4,102.7 779.5,103.4 780.5,128.4 781.5,129.2 782.6,130.1 783.6,131.0 784.6,132.0 785.7,107.2 786.7,108.3 787.7,109.4 788.8,110.6 789.8,103.6 790.8,105.4 791.9,106.4 792.9,107.4 793.9,108.5 795.0,109.6 796.0,55.1"/>
<text x="640" y="56" font-family="Arial" font-size="12" fill="#0f766e">ekf_nominal NEES proxy</text>
</svg>