<svg xmlns="http://www.w3.org/2000/svg" width="820" height="320" viewBox="0 0 820 320">
<rect width="100%" height="100%" fill="white"/>
<text x="52" y="30" font-family="Arial" font-size="18" font-weight="700">robust_nominal NEES proxy</text>
<line x1="52" y1="274" x2="796" y2="274" stroke="#263238"/>
<line x1="52" y1="42" x2="52" y2="274" stroke="#263238"/>
<text x="52" y="306" font-family="Arial" font-size="12">time (s)</text>
<text x="630" y="306" font-family="Arial" font-size="12">value</text>

<rect x="630.7" y="42" width="165.3" height="232" fill="#fef3c7" opacity="0.72"/>
<polyline fill="none" stroke="#0f766e" stroke-width="2.3" points="52.0,272.5 53.0,272.4 54.1,272.4 55.1,272.4 56.1,272.3 57.2,247.0 58.2,246.7 59.2,244.7 60.3,244.0 61.3,243.3 62.3,255.4 63.4,254.7 64.4,254.0 65.4,253.4 66.5,253.5 67.5,271.6 68.5,271.5 69.6,271.4 70.6,271.3 71.6,271.2 72.7,268.3 73.7,268.4 74.7,268.5 75.8,268.7 76.8,269.0 77.8,260.2 78.9,260.6 79.9,265.6 80.9,266.5 82.0,267.4 83.0,259.3 84.0,260.8 85.1,262.3 86.1,263.8 87.1,255.6 88.2,237.9 89.2,239.5 90.2,241.2 91.3,243.0 92.3,244.9 93.3,263.5 94.4,269.1 95.4,270.9 96.4,272.5 97.5,274.0 98.5,260.5 99.5,263.5 100.6,249.0 101.6,251.5 102.6,254.0 103.7,257.0 104.7,259.5 105.7,261.8 106.8,264.1 107.8,249.8 108.8,216.8 109.9,219.8 110.9,222.9 111.9,226.0 113.0,229.0 114.0,202.0 115.0,204.8 116.1,207.7 117.1,210.7 118.1,213.7 119.2,243.8 120.2,246.3 121.2,219.2 122.3,220.6 123.3,222.0 124.3,218.2 125.4,219.8 126.4,221.3 127.4,222.9 128.5,202.1 129.5,209.4 130.5,210.2 131.6,211.0 132.6,211.8 133.6,212.7 134.7,260.4 135.7,264.0 136.7,264.8 137.8,265.6 138.8,266.4 139.8,265.0 140.9,265.9 141.9,265.3 142.9,266.0 144.0,266.7 145.0,255.6 146.0,256.8 147.1,257.9 148.1,259.0 149.1,236.4 150.2,245.9 151.2,246.5 152.2,247.0 153.3,247.5 154.3,248.1 155.3,240.4 156.4,195.3 157.4,195.5 158.4,195.7 159.5,196.0 160.5,199.8 161.5,200.0 162.6,205.8 163.6,206.0 164.6,206.1 165.7,184.0 166.7,184.5 167.7,185.0 168.8,185.5 169.8,196.0 170.8,195.8 171.9,196.7 172.9,197.7 173.9,198.6 175.0,199.6 176.0,160.2 177.0,161.1 178.1,162.0 179.1,162.9 180.1,164.0 181.2,162.1 182.2,163.3 183.2,148.3 184.3,148.9 185.3,149.4 186.3,171.9 187.4,172.3 188.4,172.8 189.4,173.3 190.5,179.2 191.5,197.3 192.5,197.7 193.6,198.2 194.6,198.7 195.6,199.2 196.7,209.6 197.7,210.4 198.7,211.1 199.8,211.9 200.8,212.7 201.8,215.6 202.9,216.4 203.9,211.5 204.9,212.1 206.0,212.7 207.0,213.7 208.0,214.3 209.1,214.9 210.1,215.4 211.1,208.9 212.2,208.0 213.2,208.3 214.2,208.6 215.3,208.9 216.3,209.2 217.3,198.6 218.4,153.9 219.4,153.6 220.4,153.4 221.5,153.1 222.5,150.7 223.5,150.3 224.6,159.1 225.6,159.0 226.6,158.9 227.7,160.2 228.7,160.1 229.7,160.0 230.8,160.0 231.8,170.0 232.8,170.4 233.9,170.5 234.9,170.6 235.9,170.7 237.0,170.9 238.0,170.8 239.0,162.4 240.1,162.4 241.1,162.5 242.1,162.5 243.2,165.7 244.2,166.0 245.2,176.9 246.3,177.2 247.3,177.4 248.3,178.3 249.4,178.5 250.4,178.7 251.4,178.9 252.5,195.4 253.5,196.5 254.5,197.4 255.6,198.4 256.6,199.3 257.6,200.2 258.7,207.6 259.7,208.3 260.7,208.9 261.8,209.5 262.8,210.1 263.8,210.8 264.9,211.5 265.9,224.3 266.9,225.2 268.0,226.1 269.0,226.4 270.0,227.2 271.1,227.9 272.1,228.6 273.1,236.5 274.2,231.3 275.2,232.4 276.2,233.4 277.3,234.5 278.3,235.6 279.3,229.4 280.4,223.9 281.4,225.0 282.4,226.0 283.5,227.1 284.5,221.5 285.5,222.8 286.6,221.5 287.6,222.6 288.6,223.7 289.7,227.0 290.7,228.1 291.7,229.1 292.8,230.0 293.8,225.0 294.8,226.4 295.9,227.4 296.9,228.3 297.9,229.2 299.0,230.1 300.0,244.0 301.0,244.7 302.1,245.5 303.1,246.2 304.1,246.9 305.2,247.1 306.2,247.8 307.2,232.5 308.3,232.9 309.3,233.4 310.3,221.1 311.4,221.7 312.4,222.3 313.4,222.8 314.5,218.0 315.5,219.0 316.5,219.3 317.6,219.7 318.6,219.9 319.6,220.2 320.7,223.7 321.7,224.0 322.7,224.3 323.8,224.6 324.8,225.0 325.8,227.6 326.9,228.0 327.9,227.0 328.9,227.4 330.0,227.8 331.0,212.6 332.0,213.0 333.1,213.5 334.1,214.0 335.1,187.5 336.2,181.5 337.2,181.5 338.2,181.4 339.3,181.4 340.3,181.3 341.3,178.7 342.4,117.3 343.4,116.7 344.4,116.1 345.5,115.6 346.5,126.4 347.5,125.9 348.6,153.9 349.6,154.2 350.6,154.5 351.7,167.9 352.7,168.2 353.7,168.5 354.8,168.8 355.8,174.3 356.8,159.1 357.9,159.3 358.9,159.6 359.9,159.9 361.0,160.2 362.0,190.5 363.0,191.2 364.1,191.9 365.1,192.5 366.1,193.2 367.2,200.2 368.2,200.9 369.2,184.3 370.3,184.7 371.3,185.1 372.3,189.1 373.4,189.5 374.4,189.8 375.4,190.1 376.5,188.4 377.5,184.5 378.5,184.7 379.6,185.1 380.6,185.4 381.6,185.8 382.7,190.5 383.7,190.8 384.7,191.1 385.8,191.4 386.8,191.6 387.8,192.1 388.9,192.4 389.9,188.0 390.9,188.1 392.0,188.1 393.0,188.5 394.0,188.6 395.1,188.7 396.1,188.8 397.1,194.6 398.2,190.4 399.2,190.6 400.2,190.8 401.3,191.0 402.3,191.2 403.3,194.2 404.4,194.4 405.4,194.7 406.4,195.0 407.5,195.2 408.5,194.5 409.5,194.8 410.6,192.9 411.6,193.2 412.6,193.4 413.7,185.1 414.7,185.3 415.7,185.6 416.8,185.8 417.8,190.4 418.8,187.5 419.9,187.9 420.9,188.2 421.9,188.6 423.0,189.0 424.0,190.2 425.0,190.3 426.1,190.5 427.1,190.6 428.1,190.7 429.2,196.0 430.2,196.3 431.2,186.8 432.3,186.9 433.3,187.1 434.3,191.6 435.4,191.8 436.4,191.9 437.4,192.1 438.5,174.9 439.5,174.2 440.5,174.0 441.6,173.8 442.6,173.6 443.6,173.4 444.7,182.9 445.7,183.0 446.7,183.1 447.8,183.3 448.8,183.5 449.8,183.1 450.9,183.3 451.9,192.5 452.9,192.8 454.0,193.1 455.0,188.0 456.0,188.3 457.1,188.6 458.1,188.9 459.1,183.3 460.2,169.5 461.2,169.9 462.2,170.3 463.3,170.8 464.3,171.2 465.3,152.2 466.4,152.9 467.4,153.7 468.4,154.6 469.5,155.4 470.5,152.4 471.5,153.3 472.6,158.9 473.6,159.8 474.6,160.7 475.7,167.3 476.7,168.1 477.7,168.9 478.8,169.7 479.8,140.4 480.8,148.5 481.9,148.8 482.9,149.1 483.9,149.4 485.0,149.7 486.0,155.7 487.0,144.5 488.1,144.9 489.1,145.2 490.1,145.6 491.2,151.2 492.2,151.6 493.2,170.0 494.3,170.6 495.3,171.2 496.3,171.2 497.4,171.7 498.4,172.2 499.4,172.7 500.5,169.5 501.5,169.0 502.5,169.4 503.6,169.8 504.6,170.3 505.6,170.8 506.7,194.2 507.7,194.8 508.7,195.5 509.8,196.2 510.8,196.9 511.8,197.4 512.9,198.2 513.9,190.8 514.9,191.4 516.0,192.0 517.0,192.6 518.0,193.1 519.1,193.6 520.1,194.2 521.1,178.1 522.2,177.9 523.2,178.2 524.2,178.5 525.3,178.8 526.3,179.1 527.3,208.8 528.4,209.0 529.4,209.3 530.4,209.5 531.5,209.7 532.5,208.1 533.5,208.5 534.6,203.9 535.6,204.2 536.6,204.6 537.7,208.9 538.7,209.3 539.7,209.6 540.8,209.9 541.8,222.1 542.8,219.8 543.9,220.2 544.9,220.5 545.9,220.9 547.0,221.3 548.0,204.5 549.0,204.6 550.1,204.7 551.1,204.8 552.1,204.9 553.2,207.9 554.2,208.0 555.2,196.8 556.3,196.8 557.3,196.8 558.3,197.6 559.4,197.7 560.4,197.7 561.4,197.7 562.5,201.6 563.5,206.1 564.5,206.4 565.6,206.7 566.6,207.0 567.6,207.4 568.7,219.7 569.7,204.6 570.7,205.4 571.8,206.1 572.8,206.9 573.8,207.2 574.9,208.0 575.9,208.6 576.9,209.4 578.0,210.1 579.0,210.2 580.0,211.0 581.1,211.7 582.1,212.5 583.1,222.3 584.2,222.1 585.2,222.9 586.2,223.8 587.3,224.7 588.3,225.5 589.3,231.5 590.4,224.6 591.4,225.6 592.4,226.6 593.5,227.6 594.5,228.0 595.5,229.0 596.6,222.3 597.6,223.2 598.6,224.1 599.7,228.1 600.7,229.1 601.7,230.1 602.8,231.0 603.8,217.1 604.8,212.3 605.9,213.1 606.9,213.9 607.9,214.8 609.0,215.7 610.0,204.7 611.0,205.9 612.1,207.0 613.1,208.1 614.1,209.2 615.2,220.2 616.2,221.1 617.2,207.4 618.3,208.0 619.3,208.7 620.3,211.1 621.4,211.6 622.4,212.2 623.4,212.7 624.5,206.8 625.5,204.1 626.5,204.6 627.6,205.1 628.6,205.7 629.6,206.3 630.7,204.6 631.7,197.0 632.7,197.7 633.8,198.3 634.8,199.0 635.8,199.8 636.9,200.4 637.9,191.5 638.9,192.0 640.0,192.6 641.0,192.5 642.0,193.1 643.1,193.7 644.1,194.3 645.1,201.0 646.2,200.8 647.2,201.3 648.2,201.8 649.3,202.4 650.3,202.9 651.3,187.5 652.4,141.8 653.4,142.0 654.4,142.3 655.5,142.6 656.5,151.3 657.5,151.7 658.6,171.9 659.6,172.7 660.6,173.4 661.7,172.5 662.7,173.2 663.7,173.8 664.8,174.5 665.8,175.8 666.8,158.3 667.9,158.7 668.9,159.1 669.9,159.4 671.0,159.7 672.0,121.6 673.0,94.1 674.1,94.1 675.1,94.2 676.1,94.2 677.2,77.8 678.2,77.8 679.2,94.4 680.3,94.7 681.3,94.9 682.3,103.9 683.4,104.3 684.4,104.8 685.4,105.2 686.5,97.3 687.5,110.7 688.5,111.0 689.6,111.3 690.6,111.6 691.6,112.0 692.7,93.7 693.7,94.1 694.7,94.5 695.8,95.0 696.8,95.6 697.8,107.0 698.9,107.7 699.9,108.0 700.9,108.6 702.0,109.1 703.0,123.4 704.0,123.8 705.1,124.3 706.1,124.7 707.1,135.8 708.2,127.2 709.2,127.9 710.2,128.5 711.3,129.2 712.3,129.9 713.3,150.9 714.4,151.4 715.4,151.8 716.4,152.3 717.5,152.8 718.5,152.3 719.5,152.9 720.6,165.7 721.6,166.6 722.6,167.4 723.7,144.7 724.7,145.8 725.7,146.8 726.8,147.8 727.8,106.8 728.8,127.2 729.9,127.7 730.9,128.3 731.9,128.9 733.0,129.6 734.0,152.8 735.0,133.0 736.1,134.3 737.1,135.7 738.1,136.9 739.2,138.7 740.2,140.0 741.2,137.1 742.3,138.2 743.3,139.2 744.3,142.9 745.4,143.9 746.4,144.9 747.4,146.0 748.5,140.5 749.5,164.7 750.5,165.7 751.6,166.8 752.6,167.9 753.6,169.0 754.7,137.7 755.7,115.0 756.7,115.9 757.8,116.8 758.8,117.9 759.8,100.1 760.9,101.2 761.9,89.7 762.9,90.6 764.0,91.6 765.0,84.3 766.0,85.4 767.1,86.6 768.1,87.8 769.1,71.0 770.2,61.6 771.2,62.4 772.2,63.2 773.3,64.1 774.3,65.0 775.3,90.0 776.4,86.6 777.4,87.1 778.4,87.7 779.5,88.3 780.5,119.4 781.5,120.2 782.6,124.6 783.6,125.5 784.6,126.5 785.7,96.6 786.7,97.7 787.7,98.9 788.8,100.1 789.8,95.0 790.8,97.7 791.9,98.8 792.9,99.9 793.9,101.1 795.0,102.4 796.0,42.0"/>
<text x="640" y="56" font-family="Arial" font-size="12" fill="#0f766e">robust_nominal NEES proxy</text>
</svg>