<svg xmlns="http://www.w3.org/2000/svg" width="820" height="320" viewBox="0 0 820 320">
<rect width="100%" height="100%" fill="white"/>
<text x="52" y="30" font-family="Arial" font-size="18" font-weight="700">robust_dropout_robust NEES proxy</text>
<line x1="52" y1="274" x2="796" y2="274" stroke="#263238"/>
<line x1="52" y1="42" x2="52" y2="274" stroke="#263238"/>
<text x="52" y="306" font-family="Arial" font-size="12">time (s)</text>
<text x="630" y="306" font-family="Arial" font-size="12">value</text>

<rect x="630.7" y="42" width="165.3" height="232" fill="#fef3c7" opacity="0.72"/>
<polyline fill="none" stroke="#0f766e" stroke-width="2.3" points="52.0,267.4 53.0,267.3 54.1,267.3 55.1,267.2 56.1,267.1 57.2,244.3 58.2,243.9 59.2,241.9 60.3,241.1 61.3,240.4 62.3,249.4 63.4,248.7 64.4,248.0 65.4,247.3 66.5,248.1 67.5,267.0 68.5,267.0 69.6,267.0 70.6,267.0 71.6,267.0 72.7,270.8 73.7,270.9 74.7,271.0 75.8,271.2 76.8,271.4 77.8,266.0 78.9,266.3 79.9,269.2 80.9,269.7 82.0,270.3 83.0,265.4 84.0,266.3 85.1,267.2 86.1,268.1 87.1,263.7 88.2,252.7 89.2,253.8 90.2,254.9 91.3,256.1 92.3,257.3 93.3,269.9 94.4,271.9 95.4,272.8 96.4,273.5 97.5,274.0 98.5,270.3 99.5,271.9 100.6,264.7 101.6,266.1 102.6,267.5 103.7,268.6 104.7,270.0 105.7,271.3 106.8,272.5 107.8,264.7 108.8,247.0 109.9,248.6 110.9,250.2 111.9,251.9 113.0,253.6 114.0,237.0 115.0,238.4 116.1,239.8 117.1,241.2 118.1,242.7 119.2,257.9 120.2,259.1 121.2,239.5 122.3,239.5 123.3,239.6 124.3,236.1 125.4,236.2 126.4,236.3 127.4,236.4 128.5,226.4 129.5,229.2 130.5,228.8 131.6,228.3 132.6,227.9 133.6,227.5 134.7,260.1 135.7,264.8 136.7,265.0 137.8,265.2 138.8,265.5 139.8,264.3 140.9,264.6 141.9,264.9 142.9,265.0 144.0,265.2 145.0,258.4 146.0,258.8 147.1,259.3 148.1,259.7 149.1,241.5 150.2,246.6 151.2,246.3 152.2,245.9 153.3,245.6 154.3,245.2 155.3,241.8 156.4,175.3 157.4,174.4 158.4,173.6 159.5,172.9 160.5,174.8 161.5,174.1 162.6,181.0 163.6,180.5 164.6,180.0 165.7,164.2 166.7,163.9 167.7,163.6 168.8,163.4 169.8,177.9 170.8,177.7 171.9,178.3 172.9,179.1 173.9,179.8 175.0,180.6 176.0,116.6 177.0,117.1 178.1,117.6 179.1,118.4 180.1,119.2 181.2,118.1 182.2,119.1 183.2,102.5 184.3,102.4 185.3,102.3 186.3,128.1 187.4,128.1 188.4,128.2 189.4,128.5 190.5,137.7 191.5,154.4 192.5,155.0 193.6,155.7 194.6,156.3 195.6,157.0 196.7,172.5 197.7,173.9 198.7,175.3 199.8,176.8 200.8,178.3 201.8,182.3 202.9,183.8 203.9,175.0 204.9,176.0 206.0,176.9 207.0,178.6 208.0,179.5 209.1,180.5 210.1,181.5 211.1,173.3 212.2,172.3 213.2,172.8 214.2,173.2 215.3,173.7 216.3,174.2 217.3,157.5 218.4,94.9 219.4,94.1 220.4,93.3 221.5,92.4 222.5,88.5 223.5,87.5 224.6,102.4 225.6,102.2 226.6,102.1 227.7,106.9 228.7,106.8 229.7,106.7 230.8,106.7 231.8,115.5 232.8,119.3 233.9,119.5 234.9,119.8 235.9,120.0 237.0,120.3 238.0,111.9 239.0,99.0 240.1,98.5 241.1,98.0 242.1,97.6 243.2,106.7 244.2,106.7 245.2,117.1 246.3,117.1 247.3,117.0 248.3,118.6 249.4,118.5 250.4,118.3 251.4,118.1 252.5,145.8 253.5,157.4 254.5,159.1 255.6,160.7 256.6,162.4 257.6,164.0 258.7,171.1 259.7,172.3 260.7,173.5 261.8,174.6 262.8,175.7 263.8,177.7 264.9,178.9 265.9,195.1 266.9,196.9 268.0,198.7 269.0,198.9 270.0,200.6 271.1,202.3 272.1,203.9 273.1,215.0 274.2,217.1 275.2,218.9 276.2,220.7 277.3,222.5 278.3,224.3 279.3,213.3 280.4,204.4 281.4,206.0 282.4,207.6 283.5,209.2 284.5,209.5 285.5,211.1 286.6,204.7 287.6,205.9 288.6,207.1 289.7,208.4 290.7,209.7 291.7,210.9 292.8,212.1 293.8,212.4 294.8,213.5 295.9,214.6 296.9,215.6 297.9,216.7 299.0,217.7 300.0,234.2 301.0,235.1 302.1,235.9 303.1,236.6 304.1,237.4 305.2,238.1 306.2,238.9 307.2,223.6 308.3,223.6 309.3,223.6 310.3,217.4 311.4,217.4 312.4,217.3 313.4,217.3 314.5,209.7 315.5,209.4 316.5,209.0 317.6,208.5 318.6,208.1 319.6,207.6 320.7,217.9 321.7,217.7 322.7,217.7 323.8,217.7 324.8,217.7 325.8,218.8 326.9,218.9 327.9,216.9 328.9,217.0 330.0,217.0 331.0,209.1 332.0,209.2 333.1,209.3 334.1,209.4 335.1,185.3 336.2,180.2 337.2,178.8 338.2,177.5 339.3,176.2 340.3,174.9 341.3,165.8 342.4,78.1 343.4,75.4 344.4,72.6 345.5,69.8 346.5,75.4 347.5,73.0 348.6,109.4 349.6,109.1 350.6,108.9 351.7,119.5 352.7,119.5 353.7,119.5 354.8,119.6 355.8,127.6 356.8,114.8 357.9,114.7 358.9,114.5 359.9,114.5 361.0,114.5 362.0,150.1 363.0,151.4 364.1,152.6 365.1,153.9 366.1,155.2 367.2,163.1 368.2,164.5 369.2,140.2 370.3,140.5 371.3,140.9 372.3,146.7 373.4,147.1 374.4,147.6 375.4,148.1 376.5,144.6 377.5,139.4 378.5,139.6 379.6,139.8 380.6,140.1 381.6,140.4 382.7,147.4 383.7,147.6 384.7,147.9 385.8,148.1 386.8,148.4 387.8,149.5 388.9,149.8 389.9,144.8 390.9,144.7 392.0,144.6 393.0,146.2 394.0,146.3 395.1,146.3 396.1,146.4 397.1,156.5 398.2,158.3 399.2,158.8 400.2,159.4 401.3,159.9 402.3,160.5 403.3,162.5 404.4,163.0 405.4,163.7 406.4,164.3 407.5,165.0 408.5,165.6 409.5,166.3 410.6,162.8 411.6,163.3 412.6,163.8 413.7,162.6 414.7,163.3 415.7,164.0 416.8,164.7 417.8,164.0 418.8,164.0 419.9,164.6 420.9,165.2 421.9,165.8 423.0,166.5 424.0,165.1 425.0,165.4 426.1,165.8 427.1,166.1 428.1,166.5 429.2,168.5 430.2,169.1 431.2,158.8 432.3,158.8 433.3,158.9 434.3,160.5 435.4,160.7 436.4,160.8 437.4,160.9 438.5,135.5 439.5,134.2 440.5,133.1 441.6,132.0 442.6,131.0 443.6,130.0 444.7,141.7 445.7,141.3 446.7,141.0 447.8,140.8 448.8,140.6 449.8,140.9 450.9,140.8 451.9,157.5 452.9,158.0 454.0,158.5 455.0,156.8 456.0,157.3 457.1,157.8 458.1,158.4 459.1,149.0 460.2,143.6 461.2,143.9 462.2,144.3 463.3,144.8 464.3,145.2 465.3,119.7 466.4,120.9 467.4,122.2 468.4,123.5 469.5,124.7 470.5,124.2 471.5,125.6 472.6,126.7 473.6,127.9 474.6,129.1 475.7,132.0 476.7,133.2 477.7,134.4 478.8,135.6 479.8,102.5 480.8,105.7 481.9,105.4 482.9,105.1 483.9,105.0 485.0,104.8 486.0,109.2 487.0,93.7 488.1,93.6 489.1,93.6 490.1,93.7 491.2,96.9 492.2,97.1 493.2,120.5 494.3,121.6 495.3,122.8 496.3,122.7 497.4,123.8 498.4,124.9 499.4,126.1 500.5,120.3 501.5,120.3 502.5,121.1 503.6,122.0 504.6,122.9 505.6,123.9 506.7,155.2 507.7,156.4 508.7,157.7 509.8,159.0 510.8,160.4 511.8,161.9 512.9,163.2 513.9,151.5 514.9,152.2 516.0,152.9 517.0,153.7 518.0,154.4 519.1,155.1 520.1,155.9 521.1,133.2 522.2,133.6 523.2,133.4 524.2,133.3 525.3,133.2 526.3,133.2 527.3,177.5 528.4,177.3 529.4,177.1 530.4,176.9 531.5,176.7 532.5,176.3 533.5,176.4 534.6,174.1 535.6,174.1 536.6,174.2 537.7,176.8 538.7,176.9 539.7,177.0 540.8,177.2 541.8,194.6 542.8,193.4 543.9,194.1 544.9,194.8 545.9,195.4 547.0,196.1 548.0,176.8 549.0,176.9 550.1,177.1 551.1,177.3 552.1,177.4 553.2,179.6 554.2,179.9 555.2,165.0 556.3,164.7 557.3,164.3 558.3,164.5 559.4,164.2 560.4,163.9 561.4,163.7 562.5,170.9 563.5,174.3 564.5,174.5 565.6,174.9 566.6,175.3 567.6,175.8 568.7,189.9 569.7,169.1 570.7,170.4 571.8,171.7 572.8,173.1 573.8,174.0 574.9,175.4 575.9,175.6 576.9,176.9 578.0,178.2 579.0,178.9 580.0,180.3 581.1,181.6 582.1,183.0 583.1,195.7 584.2,196.7 585.2,198.4 586.2,200.1 587.3,201.9 588.3,203.6 589.3,208.3 590.4,198.8 591.4,200.7 592.4,202.7 593.5,204.6 594.5,206.0 595.5,207.9 596.6,197.4 597.6,198.7 598.6,200.0 599.7,204.7 600.7,206.3 601.7,207.8 602.8,209.3 603.8,190.4 604.8,188.4 605.9,189.2 606.9,190.1 607.9,191.0 609.0,192.0 610.0,187.4 611.0,188.4 612.1,189.5 613.1,190.6 614.1,191.7 615.2,196.0 616.2,196.9 617.2,174.6 618.3,174.4 619.3,174.3 620.3,174.3 621.4,174.1 622.4,173.8 623.4,173.7 624.5,170.8 625.5,169.5 626.5,169.3 627.6,169.1 628.6,168.9 629.6,168.9 630.7,167.3 631.7,156.7 632.7,157.6 633.8,158.5 634.8,159.4 635.8,159.7 636.9,160.7 637.9,155.2 638.9,155.8 640.0,156.5 641.0,157.3 642.0,158.0 643.1,158.8 644.1,159.6 645.1,172.7 646.2,170.8 647.2,171.9 648.2,173.1 649.3,174.3 650.3,175.4 651.3,156.0 652.4,86.1 653.4,86.8 654.4,87.5 655.5,88.3 656.5,99.1 657.5,100.0 658.6,132.6 659.6,134.7 660.6,136.8 661.7,137.3 662.7,139.4 663.7,141.4 664.8,143.5 665.8,143.6 666.8,123.1 667.9,124.7 668.9,126.4 669.9,128.0 671.0,129.7 672.0,89.8 673.0,51.7 674.1,52.5 675.1,53.4 676.1,54.4 677.2,42.0 678.2,43.1 679.2,67.1 680.3,68.9 681.3,70.8 682.3,80.3 683.4,82.3 684.4,84.4 685.4,86.5 686.5,77.4 687.5,90.3 688.5,91.8 689.6,93.3 690.6,94.9 691.6,96.5 692.7,82.5 693.7,84.0 694.7,85.6 695.8,87.3 696.8,89.1 697.8,99.6 698.9,101.3 699.9,103.0 700.9,104.6 702.0,106.0 703.0,118.5 704.0,119.7 705.1,121.0 706.1,122.2 707.1,136.0 708.2,130.4 709.2,132.2 710.2,134.0 711.3,135.8 712.3,137.6 713.3,168.9 714.4,170.1 715.4,171.3 716.4,172.4 717.5,173.6 718.5,174.5 719.5,175.8 720.6,187.2 721.6,188.8 722.6,190.5 723.7,174.0 724.7,175.9 725.7,177.9 726.8,179.8 727.8,136.5 728.8,153.4 729.9,153.5 730.9,153.8 731.9,154.1 733.0,154.6 734.0,182.0 735.0,152.8 736.1,154.8 737.1,156.9 738.1,158.9 739.2,161.3 740.2,163.4 741.2,163.3 742.3,164.9 743.3,166.5 744.3,170.1 745.4,171.6 746.4,173.2 747.4,174.7 748.5,170.7 749.5,202.3 750.5,203.6 751.6,204.8 752.6,206.1 753.6,207.5 754.7,179.5 755.7,140.5 756.7,141.2 757.8,141.9 758.8,142.7 759.8,130.2 760.9,131.0 761.9,132.4 762.9,133.2 764.0,134.1 765.0,129.2 766.0,130.2 767.1,131.3 768.1,132.4 769.1,118.7 770.2,111.8 771.2,112.2 772.2,112.6 773.3,113.2 774.3,113.8 775.3,138.3 776.4,136.9 777.4,136.9 778.4,137.0 779.5,137.1 780.5,158.4 781.5,158.7 782.6,167.9 783.6,168.8 784.6,169.7 785.7,149.7 786.7,150.8 787.7,151.9 788.8,153.1 789.8,151.3 790.8,152.9 791.9,153.9 792.9,155.0 793.9,156.1 795.0,157.2 796.0,90.4"/>
<text x="640" y="56" font-family="Arial" font-size="12" fill="#0f766e">robust_dropout_robust NEES proxy</text>
</svg>