<svg xmlns="http://www.w3.org/2000/svg" width="820" height="320" viewBox="0 0 820 320">
<rect width="100%" height="100%" fill="white"/>
<text x="52" y="30" font-family="Arial" font-size="18" font-weight="700">adaptive_dropout_robust NEES proxy</text>
<line x1="52" y1="274" x2="796" y2="274" stroke="#263238"/>
<line x1="52" y1="42" x2="52" y2="274" stroke="#263238"/>
<text x="52" y="306" font-family="Arial" font-size="12">time (s)</text>
<text x="630" y="306" font-family="Arial" font-size="12">value</text>

<rect x="630.7" y="42" width="165.3" height="232" fill="#fef3c7" opacity="0.72"/>
<polyline fill="none" stroke="#0f766e" stroke-width="2.3" points="52.0,267.7 53.0,267.7 54.1,267.6 55.1,267.6 56.1,267.5 57.2,254.0 58.2,253.8 59.2,252.6 60.3,252.1 61.3,251.7 62.3,257.0 63.4,256.5 64.4,256.1 65.4,255.6 66.5,256.5 67.5,268.0 68.5,268.0 69.6,268.1 70.6,268.2 71.6,268.3 72.7,271.8 73.7,271.9 74.7,272.0 75.8,272.2 76.8,272.4 77.8,268.2 78.9,268.5 79.9,269.8 80.9,270.1 82.0,270.5 83.0,266.5 84.0,267.2 85.1,267.9 86.1,268.5 87.1,264.6 88.2,255.2 89.2,255.8 90.2,256.4 91.3,257.1 92.3,257.9 93.3,269.7 94.4,272.3 95.4,272.9 96.4,273.5 97.5,274.0 98.5,270.6 99.5,271.9 100.6,267.4 101.6,268.5 102.6,269.6 103.7,270.4 104.7,271.5 105.7,272.4 106.8,273.3 107.8,266.0 108.8,251.3 109.9,252.3 110.9,253.3 111.9,254.2 113.0,255.3 114.0,245.0 115.0,245.8 116.1,246.7 117.1,247.6 118.1,248.5 119.2,260.5 120.2,261.3 121.2,247.9 122.3,247.6 123.3,247.3 124.3,244.4 125.4,244.1 126.4,243.8 127.4,243.6 128.5,239.4 129.5,241.3 130.5,240.8 131.6,240.3 132.6,239.8 133.6,239.3 134.7,266.0 135.7,260.6 136.7,260.6 137.8,260.6 138.8,260.7 139.8,259.9 140.9,260.0 141.9,258.9 142.9,258.8 144.0,258.7 145.0,255.1 146.0,255.2 147.1,255.3 148.1,255.4 149.1,245.0 150.2,247.7 151.2,247.3 152.2,247.0 153.3,246.6 154.3,246.2 155.3,244.5 156.4,185.7 157.4,185.0 158.4,184.3 159.5,183.7 160.5,184.5 161.5,183.9 162.6,186.7 163.6,186.2 164.6,185.6 165.7,175.5 166.7,175.1 167.7,174.8 168.8,174.5 169.8,194.5 170.8,194.6 171.9,195.6 172.9,196.5 173.9,197.5 175.0,198.5 176.0,149.1 177.0,149.8 178.1,150.7 179.1,151.7 180.1,152.7 181.2,152.2 182.2,153.3 183.2,141.8 184.3,142.0 185.3,142.3 186.3,159.9 187.4,160.3 188.4,160.7 189.4,161.2 190.5,165.8 191.5,176.9 192.5,177.6 193.6,178.4 194.6,179.1 195.6,179.8 196.7,197.5 197.7,199.0 198.7,200.5 199.8,201.9 200.8,203.4 201.8,206.4 202.9,207.9 203.9,200.2 204.9,201.2 206.0,202.2 207.0,203.5 208.0,204.5 209.1,205.5 210.1,206.5 211.1,198.4 212.2,198.0 213.2,198.4 214.2,198.9 215.3,199.3 216.3,199.9 217.3,184.8 218.4,135.1 219.4,134.4 220.4,133.7 221.5,133.0 222.5,129.6 223.5,128.8 224.6,139.6 225.6,139.4 226.6,139.3 227.7,143.7 228.7,143.7 229.7,143.7 230.8,143.7 231.8,149.3 232.8,152.6 233.9,152.8 234.9,152.9 235.9,153.1 237.0,153.3 238.0,147.1 239.0,138.0 240.1,137.5 241.1,137.0 242.1,136.5 243.2,144.1 244.2,143.9 245.2,159.1 246.3,159.3 247.3,159.5 248.3,161.1 249.4,161.1 250.4,161.1 251.4,161.1 252.5,180.1 253.5,191.1 254.5,192.7 255.6,194.2 256.6,195.7 257.6,197.2 258.7,201.0 259.7,202.1 260.7,203.1 261.8,204.1 262.8,205.2 263.8,206.8 264.9,207.9 265.9,218.6 266.9,220.2 268.0,221.7 269.0,221.9 270.0,223.3 271.1,224.7 272.1,226.1 273.1,233.3 274.2,234.9 275.2,236.4 276.2,237.8 277.3,239.2 278.3,240.5 279.3,231.9 280.4,223.5 281.4,224.8 282.4,226.0 283.5,227.3 284.5,227.5 285.5,228.7 286.6,223.6 287.6,224.5 288.6,225.4 289.7,226.3 290.7,227.2 291.7,228.1 292.8,229.0 293.8,229.3 294.8,230.1 295.9,230.9 296.9,231.6 297.9,232.4 299.0,233.1 300.0,246.8 301.0,247.4 302.1,248.0 303.1,248.6 304.1,249.1 305.2,249.6 306.2,250.2 307.2,238.6 308.3,238.5 309.3,238.4 310.3,233.1 311.4,232.9 312.4,232.7 313.4,232.6 314.5,228.0 315.5,227.7 316.5,227.2 317.6,226.8 318.6,226.3 319.6,225.8 320.7,234.4 321.7,234.2 322.7,234.1 323.8,234.0 324.8,233.9 325.8,235.1 326.9,235.1 327.9,234.0 328.9,234.0 330.0,234.0 331.0,224.3 332.0,224.4 333.1,224.4 334.1,224.5 335.1,200.4 336.2,193.9 337.2,192.1 338.2,190.3 339.3,188.5 340.3,186.8 341.3,185.7 342.4,62.2 343.4,58.9 344.4,55.5 345.5,52.1 346.5,56.8 347.5,53.8 348.6,88.4 349.6,88.1 350.6,88.0 351.7,96.0 352.7,96.1 353.7,96.1 354.8,96.2 355.8,103.5 356.8,95.3 357.9,95.4 358.9,95.5 359.9,95.8 361.0,96.1 362.0,117.8 363.0,119.1 364.1,120.5 365.1,121.8 366.1,123.3 367.2,128.8 368.2,130.4 369.2,112.7 370.3,113.3 371.3,113.9 372.3,118.5 373.4,119.2 374.4,120.0 375.4,120.9 376.5,117.0 377.5,114.0 378.5,114.5 379.6,115.1 380.6,115.8 381.6,116.6 382.7,119.7 383.7,120.2 384.7,120.8 385.8,121.4 386.8,122.1 387.8,123.4 388.9,124.1 389.9,119.2 390.9,119.5 392.0,119.8 393.0,121.6 394.0,122.0 395.1,122.5 396.1,123.1 397.1,132.7 398.2,135.9 399.2,136.8 400.2,137.8 401.3,138.7 402.3,139.7 403.3,138.9 404.4,139.8 405.4,140.7 406.4,141.6 407.5,142.5 408.5,143.8 409.5,144.8 410.6,140.2 411.6,140.9 412.6,141.7 413.7,142.6 414.7,143.4 415.7,144.4 416.8,145.4 417.8,140.2 418.8,141.0 419.9,141.6 420.9,142.2 421.9,142.9 423.0,143.6 424.0,142.9 425.0,143.3 426.1,143.8 427.1,144.2 428.1,144.8 429.2,146.1 430.2,146.8 431.2,134.9 432.3,134.9 433.3,134.9 434.3,135.8 435.4,135.9 436.4,136.1 437.4,136.2 438.5,97.4 439.5,95.5 440.5,93.5 441.6,91.6 442.6,89.7 443.6,87.8 444.7,104.3 445.7,103.5 446.7,102.7 447.8,102.0 448.8,101.3 449.8,102.0 450.9,101.5 451.9,122.5 452.9,123.0 454.0,123.5 455.0,122.5 456.0,122.9 457.1,123.4 458.1,123.9 459.1,111.8 460.2,106.0 461.2,106.0 462.2,106.0 463.3,106.2 464.3,106.3 465.3,68.1 466.4,69.5 467.4,70.9 468.4,72.4 469.5,73.9 470.5,73.2 471.5,74.9 472.6,74.8 473.6,76.1 474.6,77.5 475.7,81.0 476.7,82.3 477.7,83.7 478.8,85.1 479.8,51.9 480.8,54.9 481.9,54.1 482.9,53.4 483.9,52.7 485.0,52.1 486.0,58.3 487.0,42.9 488.1,42.5 489.1,42.2 490.1,42.0 491.2,44.9 492.2,44.9 493.2,68.3 494.3,69.8 495.3,71.2 496.3,70.1 497.4,71.5 498.4,72.8 499.4,74.2 500.5,67.7 501.5,67.3 502.5,68.2 503.6,69.2 504.6,70.2 505.6,71.3 506.7,124.1 507.7,125.6 508.7,127.2 509.8,128.9 510.8,130.7 511.8,134.2 512.9,135.8 513.9,122.3 514.9,122.9 516.0,123.5 517.0,124.2 518.0,124.8 519.1,125.5 520.1,126.3 521.1,103.2 522.2,102.7 523.2,102.2 524.2,101.8 525.3,101.4 526.3,101.1 527.3,152.0 528.4,151.6 529.4,151.2 530.4,150.9 531.5,150.5 532.5,149.1 533.5,149.1 534.6,145.1 535.6,144.9 536.6,144.8 537.7,147.7 538.7,147.7 539.7,147.6 540.8,147.7 541.8,167.1 542.8,167.9 543.9,168.7 544.9,169.6 545.9,170.6 547.0,171.5 548.0,155.6 549.0,156.0 550.1,156.3 551.1,156.7 552.1,157.1 553.2,159.0 554.2,159.5 555.2,145.1 556.3,144.8 557.3,144.5 558.3,144.6 559.4,144.4 560.4,144.2 561.4,144.1 562.5,152.2 563.5,155.2 564.5,155.7 565.6,156.3 566.6,157.0 567.6,157.8 568.7,171.2 569.7,140.8 570.7,142.5 571.8,144.3 572.8,146.1 573.8,147.5 574.9,149.3 575.9,147.4 576.9,148.9 578.0,150.5 579.0,151.8 580.0,153.5 581.1,155.1 582.1,156.8 583.1,171.3 584.2,173.0 585.2,175.3 586.2,177.5 587.3,179.8 588.3,182.1 589.3,183.3 590.4,167.6 591.4,170.0 592.4,172.4 593.5,174.8 594.5,174.7 595.5,177.0 596.6,160.4 597.6,161.3 598.6,162.3 599.7,172.3 600.7,173.9 601.7,175.4 602.8,176.8 603.8,154.1 604.8,150.0 605.9,150.1 606.9,150.3 607.9,150.6 609.0,151.0 610.0,146.4 611.0,147.4 612.1,148.5 613.1,149.6 614.1,150.7 615.2,157.6 616.2,158.4 617.2,124.4 618.3,122.6 619.3,120.8 620.3,120.2 621.4,118.3 622.4,116.5 623.4,114.7 624.5,116.7 625.5,113.7 626.5,112.3 627.6,111.0 628.6,109.7 629.6,108.6 630.7,112.3 631.7,107.6 632.7,107.9 633.8,108.3 634.8,108.8 635.8,109.3 636.9,109.9 637.9,107.4 638.9,107.9 640.0,108.6 641.0,109.2 642.0,110.0 643.1,110.9 644.1,111.9 645.1,123.7 646.2,124.5 647.2,125.9 648.2,127.3 649.3,128.8 650.3,130.3 651.3,118.9 652.4,84.6 653.4,85.7 654.4,86.9 655.5,88.2 656.5,93.6 657.5,95.1 658.6,124.8 659.6,127.1 660.6,129.5 661.7,131.1 662.7,133.5 663.7,135.8 664.8,138.2 665.8,140.0 666.8,132.1 667.9,134.1 668.9,136.1 669.9,138.1 671.0,140.2 672.0,105.3 673.0,79.5 674.1,80.8 675.1,82.0 676.1,83.3 677.2,77.2 678.2,78.7 679.2,103.6 680.3,105.7 681.3,107.8 682.3,113.9 683.4,116.2 684.4,118.5 685.4,120.8 686.5,111.0 687.5,119.6 688.5,121.3 689.6,123.0 690.6,124.7 691.6,126.4 692.7,113.7 693.7,114.9 694.7,116.1 695.8,117.4 696.8,118.8 697.8,125.6 698.9,127.0 699.9,127.8 700.9,128.9 702.0,129.9 703.0,137.2 704.0,138.0 705.1,138.9 706.1,139.8 707.1,154.7 708.2,151.3 709.2,152.8 710.2,154.3 711.3,155.8 712.3,157.4 713.3,195.9 714.4,196.9 715.4,197.8 716.4,198.8 717.5,199.7 718.5,200.0 719.5,201.0 720.6,209.9 721.6,211.3 722.6,212.6 723.7,199.1 724.7,200.7 725.7,202.2 726.8,203.8 727.8,169.8 728.8,182.9 729.9,182.7 730.9,182.6 731.9,182.5 733.0,182.6 734.0,203.8 735.0,166.6 736.1,168.3 737.1,170.1 738.1,171.9 739.2,173.5 740.2,175.3 741.2,183.2 742.3,184.8 743.3,186.5 744.3,189.2 745.4,190.8 746.4,192.3 747.4,193.8 748.5,188.2 749.5,211.2 750.5,212.4 751.6,213.7 752.6,214.9 753.6,216.2 754.7,196.5 755.7,153.6 756.7,154.3 757.8,155.1 758.8,155.9 759.8,146.5 760.9,147.2 761.9,140.7 762.9,141.0 764.0,141.4 765.0,137.1 766.0,137.6 767.1,138.1 768.1,138.8 769.1,131.0 770.2,125.2 771.2,125.3 772.2,125.3 773.3,125.5 774.3,125.8 775.3,147.5 776.4,146.3 777.4,146.2 778.4,146.3 779.5,146.3 780.5,162.4 781.5,162.7 782.6,169.2 783.6,169.9 784.6,170.7 785.7,155.3 786.7,156.2 787.7,157.2 788.8,158.2 789.8,155.6 790.8,156.6 791.9,157.4 792.9,158.2 793.9,159.0 795.0,159.9 796.0,102.9"/>
<text x="640" y="56" font-family="Arial" font-size="12" fill="#0f766e">adaptive_dropout_robust NEES proxy</text>
</svg>