<svg xmlns="http://www.w3.org/2000/svg" width="820" height="320" viewBox="0 0 820 320">
<rect width="100%" height="100%" fill="white"/>
<text x="52" y="30" font-family="Arial" font-size="18" font-weight="700">adaptive_nominal NEES proxy</text>
<line x1="52" y1="274" x2="796" y2="274" stroke="#263238"/>
<line x1="52" y1="42" x2="52" y2="274" stroke="#263238"/>
<text x="52" y="306" font-family="Arial" font-size="12">time (s)</text>
<text x="630" y="306" font-family="Arial" font-size="12">value</text>

<rect x="630.7" y="42" width="165.3" height="232" fill="#fef3c7" opacity="0.72"/>
<polyline fill="none" stroke="#0f766e" stroke-width="2.3" points="52.0,268.8 53.0,268.7 54.1,268.7 55.1,268.6 56.1,268.6 57.2,233.7 58.2,233.3 59.2,231.0 60.3,230.2 61.3,229.3 62.3,243.8 63.4,243.0 64.4,242.2 65.4,241.4 66.5,241.5 67.5,268.7 68.5,268.7 69.6,268.7 70.6,268.6 71.6,268.6 72.7,268.8 73.7,268.9 74.7,269.1 75.8,269.4 76.8,269.7 77.8,262.1 78.9,262.6 79.9,266.2 80.9,267.0 82.0,267.8 83.0,260.7 84.0,262.0 85.1,263.4 86.1,264.7 87.1,255.6 88.2,238.7 89.2,239.9 90.2,241.3 91.3,242.7 92.3,244.2 93.3,265.6 94.4,269.8 95.4,271.4 96.4,272.8 97.5,274.0 98.5,263.3 99.5,266.0 100.6,255.6 101.6,258.0 102.6,260.4 103.7,262.6 104.7,264.9 105.7,267.0 106.8,269.0 107.8,251.2 108.8,220.5 109.9,223.0 110.9,225.7 111.9,228.3 113.0,231.0 114.0,207.8 115.0,210.3 116.1,212.8 117.1,215.5 118.1,218.2 119.2,245.5 120.2,247.7 121.2,222.8 122.3,223.9 123.3,224.9 124.3,220.9 125.4,222.1 126.4,223.3 127.4,224.4 128.5,208.8 129.5,214.9 130.5,215.5 131.6,216.2 132.6,216.8 133.6,217.5 134.7,262.2 135.7,260.2 136.7,260.8 137.8,261.3 138.8,261.7 139.8,260.5 140.9,261.0 141.9,260.3 142.9,260.7 144.0,261.0 145.0,252.3 146.0,253.2 147.1,254.0 148.1,254.7 149.1,235.2 150.2,242.7 151.2,243.0 152.2,243.3 153.3,243.6 154.3,243.8 155.3,237.7 156.4,183.3 157.4,183.3 158.4,183.3 159.5,183.4 160.5,186.1 161.5,186.1 162.6,190.2 163.6,190.1 164.6,190.0 165.7,170.8 166.7,170.9 167.7,171.1 168.8,171.4 169.8,191.6 170.8,191.4 171.9,192.4 172.9,193.4 173.9,194.5 175.0,195.5 176.0,155.3 177.0,156.2 178.1,157.3 179.1,158.4 180.1,159.5 181.2,157.9 182.2,159.1 183.2,146.2 184.3,146.9 185.3,147.6 186.3,174.5 187.4,175.1 188.4,175.7 189.4,176.4 190.5,180.3 191.5,193.6 192.5,194.2 193.6,194.8 194.6,195.4 195.6,196.0 196.7,211.6 197.7,212.7 198.7,213.7 199.8,214.7 200.8,215.7 201.8,217.5 202.9,218.5 203.9,213.3 204.9,214.1 206.0,214.9 207.0,215.8 208.0,216.6 209.1,217.3 210.1,218.1 211.1,208.9 212.2,209.1 213.2,209.5 214.2,210.0 215.3,210.4 216.3,210.9 217.3,198.0 218.4,153.0 219.4,153.1 220.4,153.2 221.5,153.2 222.5,150.9 223.5,150.8 224.6,157.7 225.6,157.8 226.6,157.9 227.7,159.7 228.7,159.9 229.7,160.1 230.8,160.3 231.8,168.4 232.8,169.1 233.9,169.4 234.9,169.7 235.9,170.1 237.0,170.4 238.0,169.4 239.0,161.7 240.1,161.9 241.1,162.0 242.1,162.2 243.2,165.9 244.2,166.4 245.2,185.7 246.3,186.3 247.3,186.8 248.3,188.0 249.4,188.5 250.4,188.9 251.4,189.4 252.5,202.8 253.5,200.3 254.5,201.8 255.6,203.2 256.6,204.7 257.6,206.1 258.7,212.4 259.7,213.4 260.7,214.5 261.8,215.5 262.8,216.4 263.8,217.1 264.9,218.1 265.9,228.2 266.9,229.4 268.0,230.6 269.0,232.8 270.0,233.8 271.1,234.8 272.1,235.8 273.1,239.2 274.2,230.0 275.2,231.3 276.2,232.7 277.3,234.0 278.3,235.3 279.3,229.1 280.4,224.5 281.4,225.9 282.4,227.2 283.5,228.5 284.5,221.1 285.5,222.6 286.6,222.0 287.6,223.4 288.6,224.7 289.7,229.4 290.7,230.6 291.7,231.9 292.8,233.0 293.8,224.8 294.8,226.7 295.9,227.8 296.9,228.9 297.9,230.0 299.0,231.1 300.0,244.5 301.0,245.4 302.1,246.3 303.1,247.2 304.1,248.1 305.2,248.4 306.2,249.3 307.2,231.9 308.3,232.5 309.3,233.1 310.3,218.6 311.4,219.4 312.4,220.1 313.4,220.8 314.5,216.9 315.5,218.3 316.5,218.8 317.6,219.3 318.6,219.8 319.6,220.1 320.7,222.0 321.7,222.3 322.7,222.7 323.8,223.1 324.8,223.6 325.8,227.6 326.9,228.1 327.9,227.6 328.9,228.1 330.0,228.5 331.0,203.9 332.0,204.6 333.1,205.2 334.1,205.9 335.1,164.5 336.2,155.0 337.2,154.7 338.2,154.4 339.3,154.1 340.3,153.9 341.3,157.4 342.4,52.4 343.4,51.3 344.4,50.2 345.5,49.1 346.5,63.5 347.5,62.6 348.6,96.2 349.6,96.4 350.6,96.6 351.7,112.9 352.7,113.2 353.7,113.4 354.8,113.7 355.8,119.0 356.8,104.1 357.9,104.3 358.9,104.4 359.9,104.7 361.0,104.9 362.0,133.6 363.0,134.3 364.1,135.0 365.1,135.7 366.1,136.5 367.2,144.7 368.2,145.5 369.2,130.9 370.3,131.4 371.3,131.9 372.3,138.7 373.4,139.2 374.4,139.8 375.4,140.3 376.5,137.6 377.5,132.3 378.5,132.8 379.6,133.3 380.6,133.8 381.6,134.4 382.7,141.2 383.7,141.6 384.7,142.1 385.8,142.5 386.8,143.0 387.8,144.2 388.9,144.6 389.9,140.5 390.9,140.7 392.0,141.0 393.0,142.8 394.0,143.0 395.1,143.3 396.1,143.6 397.1,151.5 398.2,152.8 399.2,153.2 400.2,153.7 401.3,154.1 402.3,154.5 403.3,156.4 404.4,156.9 405.4,157.4 406.4,157.9 407.5,158.4 408.5,158.6 409.5,159.1 410.6,157.0 411.6,157.5 412.6,157.9 413.7,154.6 414.7,155.1 415.7,155.6 416.8,156.1 417.8,156.6 418.8,155.4 419.9,155.9 420.9,156.4 421.9,157.0 423.0,157.5 424.0,157.6 425.0,158.0 426.1,158.3 427.1,158.7 428.1,159.0 429.2,162.4 430.2,162.9 431.2,151.2 432.3,151.5 433.3,151.8 434.3,154.4 435.4,154.8 436.4,155.2 437.4,155.5 438.5,117.3 439.5,116.7 440.5,116.3 441.6,115.9 442.6,115.6 443.6,115.2 444.7,125.8 445.7,125.8 446.7,125.8 447.8,125.9 448.8,126.0 449.8,126.6 450.9,126.8 451.9,144.0 452.9,144.3 454.0,144.6 455.0,141.3 456.0,141.6 457.1,141.9 458.1,142.2 459.1,130.9 460.2,119.2 461.2,119.5 462.2,119.9 463.3,120.3 464.3,120.7 465.3,101.2 466.4,102.0 467.4,102.8 468.4,103.6 469.5,104.4 470.5,101.4 471.5,102.3 472.6,108.1 473.6,109.0 474.6,109.9 475.7,116.0 476.7,116.8 477.7,117.7 478.8,118.6 479.8,84.2 480.8,91.7 481.9,91.9 482.9,92.1 483.9,92.3 485.0,92.6 486.0,98.9 487.0,88.6 488.1,88.9 489.1,89.3 490.1,89.6 491.2,94.6 492.2,95.0 493.2,119.1 494.3,119.9 495.3,120.7 496.3,116.8 497.4,117.4 498.4,118.0 499.4,118.7 500.5,114.9 501.5,112.7 502.5,113.2 503.6,113.8 504.6,114.3 505.6,115.0 506.7,162.5 507.7,163.4 508.7,164.3 509.8,165.3 510.8,166.3 511.8,171.5 512.9,172.5 513.9,161.4 514.9,162.1 516.0,162.8 517.0,163.5 518.0,164.1 519.1,164.8 520.1,165.5 521.1,143.3 522.2,136.2 523.2,136.6 524.2,137.0 525.3,137.5 526.3,137.9 527.3,176.7 528.4,177.1 529.4,177.5 530.4,178.0 531.5,178.4 532.5,172.4 533.5,173.1 534.6,164.8 535.6,165.3 536.6,165.8 537.7,174.4 538.7,174.9 539.7,175.3 540.8,175.8 541.8,192.6 542.8,198.0 543.9,198.7 544.9,199.3 545.9,199.9 547.0,200.5 548.0,189.3 549.0,189.7 550.1,190.1 551.1,190.4 552.1,190.8 553.2,192.4 554.2,192.8 555.2,180.5 556.3,180.7 557.3,180.9 558.3,181.4 559.4,181.6 560.4,181.8 561.4,182.0 562.5,185.9 563.5,188.3 564.5,188.8 565.6,189.3 566.6,189.8 567.6,190.4 568.7,202.8 569.7,178.7 570.7,179.8 571.8,181.0 572.8,182.1 573.8,183.2 574.9,184.3 575.9,181.7 576.9,182.8 578.0,183.8 579.0,185.2 580.0,186.2 581.1,187.2 582.1,188.3 583.1,201.6 584.2,202.7 585.2,203.9 586.2,205.1 587.3,206.2 588.3,207.4 589.3,209.2 590.4,196.9 591.4,198.3 592.4,199.7 593.5,201.1 594.5,196.5 595.5,197.9 596.6,180.2 597.6,181.2 598.6,182.2 599.7,199.7 600.7,201.0 601.7,202.2 602.8,203.5 603.8,180.1 604.8,171.2 605.9,172.0 606.9,172.9 607.9,173.9 609.0,174.9 610.0,153.0 611.0,154.4 612.1,155.8 613.1,157.2 614.1,158.7 615.2,177.0 616.2,178.1 617.2,144.6 618.3,144.8 619.3,145.2 620.3,149.3 621.4,149.5 622.4,149.6 623.4,149.9 624.5,146.1 625.5,141.8 626.5,142.1 627.6,142.3 628.6,142.6 629.6,142.9 630.7,148.2 631.7,143.3 632.7,143.6 633.8,143.9 634.8,144.3 635.8,144.6 636.9,144.9 637.9,141.1 638.9,141.5 640.0,141.9 641.0,142.3 642.0,142.7 643.1,143.2 644.1,143.7 645.1,149.2 646.2,148.5 647.2,149.1 648.2,149.6 649.3,150.1 650.3,150.6 651.3,141.8 652.4,111.7 653.4,112.0 654.4,112.4 655.5,112.8 656.5,118.2 657.5,118.7 658.6,138.0 659.6,138.8 660.6,139.6 661.7,139.3 662.7,140.0 663.7,140.8 664.8,141.6 665.8,144.7 666.8,130.0 667.9,130.5 668.9,131.0 669.9,131.5 671.0,132.1 672.0,99.4 673.0,77.9 674.1,78.2 675.1,78.5 676.1,78.7 677.2,67.6 678.2,67.8 679.2,84.0 680.3,84.5 681.3,85.1 682.3,91.6 683.4,92.2 684.4,92.9 685.4,93.7 686.5,87.2 687.5,97.2 688.5,97.8 689.6,98.4 690.6,98.9 691.6,99.6 692.7,80.5 693.7,81.0 694.7,81.5 695.8,82.1 696.8,82.8 697.8,92.9 698.9,93.6 699.9,92.2 700.9,92.8 702.0,93.4 703.0,104.8 704.0,105.3 705.1,105.7 706.1,106.2 707.1,121.8 708.2,114.6 709.2,115.3 710.2,116.0 711.3,116.7 712.3,117.4 713.3,149.6 714.4,150.2 715.4,150.7 716.4,151.2 717.5,151.8 718.5,151.1 719.5,151.7 720.6,166.7 721.6,167.5 722.6,168.4 723.7,146.5 724.7,147.5 725.7,148.5 726.8,149.6 727.8,107.5 728.8,127.4 729.9,127.9 730.9,128.5 731.9,129.1 733.0,129.8 734.0,152.5 735.0,121.4 736.1,122.7 737.1,124.1 738.1,125.3 739.2,126.7 740.2,128.1 741.2,138.2 742.3,139.5 743.3,140.7 744.3,144.0 745.4,145.1 746.4,146.3 747.4,147.5 748.5,139.7 749.5,177.5 750.5,178.6 751.6,179.8 752.6,180.9 753.6,182.1 754.7,157.1 755.7,128.4 756.7,129.4 757.8,130.5 758.8,131.6 759.8,115.9 760.9,117.1 761.9,96.2 762.9,97.0 764.0,97.8 765.0,90.5 766.0,91.5 767.1,92.5 768.1,93.5 769.1,78.2 770.2,68.9 771.2,69.5 772.2,70.1 773.3,70.8 774.3,71.5 775.3,103.7 776.4,99.7 777.4,100.2 778.4,100.7 779.5,101.2 780.5,126.0 781.5,126.8 782.6,126.6 783.6,127.4 784.6,128.2 785.7,102.5 786.7,103.4 787.7,104.3 788.8,105.3 789.8,97.0 790.8,98.3 791.9,99.2 792.9,100.0 793.9,101.0 795.0,101.9 796.0,42.0"/>
<text x="640" y="56" font-family="Arial" font-size="12" fill="#0f766e">adaptive_nominal NEES proxy</text>
</svg>