<svg xmlns="http://www.w3.org/2000/svg" width="820" height="320" viewBox="0 0 820 320">
<rect width="100%" height="100%" fill="white"/>
<text x="52" y="30" font-family="Arial" font-size="18" font-weight="700">robust_dropout_robust NIS</text>
<line x1="52" y1="274" x2="796" y2="274" stroke="#263238"/>
<line x1="52" y1="42" x2="52" y2="274" stroke="#263238"/>
<text x="52" y="306" font-family="Arial" font-size="12">time (s)</text>
<text x="630" y="306" font-family="Arial" font-size="12">value</text>

<polyline fill="none" stroke="#0f766e" stroke-width="2.3" points="52.0,271.8 52.0,273.1 52.0,264.4 52.0,247.0 52.0,272.8 52.0,273.1 52.0,240.8 57.2,223.5 59.2,267.7 62.3,262.3 66.5,231.7 67.5,200.1 72.7,268.0 72.7,273.0 72.7,274.0 72.7,259.8 72.7,229.4 72.7,255.4 72.7,166.7 77.8,270.0 79.9,207.0 83.0,268.5 87.1,94.0 88.2,262.9 93.3,271.2 93.3,192.8 94.4,239.4 94.4,247.8 94.4,232.0 94.4,271.9 94.4,274.0 98.5,224.5 100.6,205.7 103.7,273.9 107.8,182.2 108.8,223.1 114.0,270.4 114.0,269.0 114.0,271.3 114.0,215.9 114.0,267.2 114.0,266.1 114.0,194.0 119.2,233.2 121.2,50.4 124.3,273.7 128.5,138.6 129.5,270.2 134.7,218.1 134.7,144.2 135.7,256.4 135.7,256.3 135.7,264.3 135.7,152.6 135.7,235.3 139.8,273.3 141.9,230.5 145.0,245.2 149.1,125.8 150.2,263.4 155.3,273.5 155.3,243.9 156.4,248.9 156.4,156.9 156.4,226.6 156.4,273.2 156.4,255.5 160.5,270.8 162.6,230.3 165.7,229.6 169.8,162.7 170.8,273.9 176.0,187.6 176.0,272.0 176.0,242.7 176.0,259.4 176.0,238.3 176.0,221.7 176.0,195.9 181.2,273.9 183.2,126.2 186.3,182.4 190.5,260.8 191.5,206.9 196.7,205.3 196.7,269.6 196.7,266.1 196.7,266.7 196.7,249.5 196.7,273.2 196.7,73.6 201.8,268.1 203.9,260.3 207.0,273.2 211.1,231.1 212.2,272.5 217.3,231.3 217.3,143.1 218.4,245.6 218.4,202.4 218.4,270.6 218.4,273.8 218.4,250.9 222.5,269.0 224.6,189.0 227.7,227.0 231.8,203.1 232.8,252.8 238.0,270.5 238.0,162.5 239.0,262.6 239.0,273.8 239.0,271.9 239.0,255.6 239.0,273.4 243.2,225.8 245.2,157.1 248.3,271.8 252.5,161.4 253.5,151.8 258.7,267.4 258.7,271.9 258.7,256.8 258.7,258.7 258.7,270.7 258.7,263.1 258.7,202.2 263.8,272.5 265.9,180.2 269.0,270.6 273.1,211.9 274.2,216.2 279.3,273.5 279.3,189.8 280.4,265.0 280.4,272.6 280.4,253.7 280.4,265.7 280.4,171.4 284.5,249.7 286.6,231.0 289.7,270.8 293.8,215.5 294.8,273.9 300.0,204.6 300.0,196.1 300.0,245.7 300.0,272.8 300.0,273.8 300.0,273.9 300.0,246.9 305.2,273.7 307.2,198.5 310.3,241.2 314.5,204.8 315.5,273.9 320.7,273.9 320.7,272.4 320.7,272.8 320.7,262.6 320.7,264.9 320.7,273.3 320.7,187.4 325.8,272.6 327.9,241.6 331.0,235.0 335.1,158.8 336.2,273.1 341.3,224.1 341.3,220.5 342.4,149.5 342.4,255.8 342.4,236.7 342.4,150.9 342.4,270.5 346.5,259.4 348.6,121.4 351.7,232.7 355.8,177.4 356.8,251.7 362.0,232.0 362.0,193.3 367.2,249.2 369.2,217.8 372.3,244.0 376.5,268.3 377.5,258.3 382.7,222.9 382.7,264.2 387.8,272.7 389.9,269.1 393.0,269.0 397.1,242.2 398.2,234.4 403.3,271.7 403.3,249.4 408.5,272.8 410.6,272.7 413.7,246.8 417.8,229.9 418.8,269.9 424.0,252.5 424.0,211.1 429.2,265.0 431.2,263.8 434.3,265.6 438.5,145.3 439.5,273.6 444.7,270.8 444.7,178.0 449.8,271.7 451.9,167.0 455.0,260.0 459.1,149.7 460.2,220.4 465.3,254.7 465.3,272.3 465.3,260.5 465.3,265.0 465.3,267.8 465.3,266.9 465.3,195.2 470.5,272.3 472.6,259.7 475.7,267.0 479.8,145.1 480.8,260.9 486.0,250.8 486.0,257.1 487.0,273.3 487.0,266.3 487.0,273.9 487.0,232.8 487.0,273.7 491.2,255.5 493.2,161.6 496.3,250.1 500.5,263.6 501.5,270.7 506.7,272.1 506.7,245.1 506.7,151.4 506.7,273.5 506.7,243.0 506.7,273.2 506.7,226.6 511.8,227.9 513.9,241.2 517.0,274.0 521.1,206.8 522.2,150.7 527.3,260.9 527.3,257.1 527.3,267.9 527.3,197.8 527.3,273.1 527.3,273.7 527.3,242.5 532.5,251.4 534.6,154.9 537.7,256.9 541.8,184.4 542.8,222.7 548.0,270.0 548.0,272.1 548.0,252.5 548.0,273.7 548.0,273.2 548.0,265.1 548.0,250.5 553.2,270.4 555.2,217.8 558.3,273.3 562.5,260.2 563.5,264.6 568.7,248.7 568.7,192.5 569.7,241.3 569.7,257.1 569.7,249.5 569.7,266.9 569.7,252.9 573.8,273.9 575.9,231.1 579.0,272.9 583.1,245.3 584.2,272.2 589.3,263.0 589.3,249.8 590.4,273.9 590.4,267.5 590.4,273.7 590.4,253.7 590.4,274.0 594.5,262.4 596.6,244.5 599.7,222.0 603.8,178.8 604.8,238.8 610.0,217.5 610.0,246.7 611.0,146.8 611.0,146.8 611.0,146.8 611.0,146.8 611.0,146.8 615.2,227.8 617.2,142.3 620.3,265.6 624.5,268.3 625.5,256.3 630.7,151.9 630.7,214.4 631.7,262.7 631.7,261.6 631.7,266.5 631.7,273.3 631.7,268.5 635.8,272.9 637.9,221.4 641.0,272.1 645.1,243.2 646.2,237.5 651.3,273.8 651.3,159.3 652.4,233.9 652.4,231.7 652.4,215.4 652.4,250.2 652.4,272.8 656.5,247.0 658.6,162.9 661.7,273.8 665.8,267.0 666.8,202.0 672.0,268.0 672.0,178.0 673.0,266.0 673.0,271.1 673.0,256.2 673.0,267.7 673.0,263.3 677.2,265.6 679.2,179.8 682.3,264.1 686.5,269.0 687.5,255.1 692.7,273.0 692.7,267.2 692.7,269.6 692.7,160.2 692.7,272.9 692.7,268.4 692.7,99.7 697.8,259.9 699.9,246.2 703.0,245.0 707.1,172.3 708.2,268.2 713.3,236.0 713.3,199.1 713.3,270.3 713.3,225.8 713.3,266.3 713.3,266.6 713.3,202.8 718.5,273.1 720.6,197.1 723.7,259.5 727.8,146.2 728.8,249.0 734.0,271.8 734.0,193.2 735.0,239.9 735.0,220.0 735.0,255.5 735.0,151.2 735.0,250.1 739.2,273.0 741.2,42.0 744.3,271.2 748.5,228.2 749.5,156.2 754.7,272.4 754.7,81.7 755.7,264.7 755.7,154.5 755.7,267.8 755.7,268.6 755.7,264.3 759.8,268.9 761.9,66.0 765.0,273.9 769.1,211.8 770.2,273.9 775.3,197.4 775.3,212.5 776.4,274.0 776.4,213.6 776.4,270.9 776.4,260.5 776.4,261.2 780.5,231.6 782.6,173.0 785.7,248.5 789.8,219.8 790.8,272.6 796.0,273.8 796.0,273.6 796.0,248.5 796.0,273.7 796.0,273.3 796.0,274.0 796.0,166.8"/>
<text x="640" y="56" font-family="Arial" font-size="12" fill="#0f766e">robust_dropout_robust NIS</text>
</svg>