<svg xmlns="http://www.w3.org/2000/svg" width="820" height="320" viewBox="0 0 820 320">
<rect width="100%" height="100%" fill="white"/>
<text x="52" y="30" font-family="Arial" font-size="18" font-weight="700">robust_nominal NIS</text>
<line x1="52" y1="274" x2="796" y2="274" stroke="#263238"/>
<line x1="52" y1="42" x2="52" y2="274" stroke="#263238"/>
<text x="52" y="306" font-family="Arial" font-size="12">time (s)</text>
<text x="630" y="306" font-family="Arial" font-size="12">value</text>

<polyline fill="none" stroke="#0f766e" stroke-width="2.3" points="52.0,272.1 52.0,273.3 52.0,266.1 52.0,251.6 52.0,273.2 52.0,273.1 52.0,246.8 57.2,211.4 59.2,268.9 62.3,255.9 66.5,238.0 67.5,189.7 72.7,268.8 72.7,273.3 72.7,274.0 72.7,262.5 72.7,237.1 72.7,246.8 72.7,182.7 77.8,269.4 79.9,213.4 83.0,267.4 87.1,122.1 88.2,259.5 93.3,267.6 93.3,204.2 94.4,243.8 94.4,251.1 94.4,237.9 94.4,272.7 94.4,274.0 98.5,206.6 100.6,218.0 103.7,272.8 107.8,192.8 108.8,204.2 114.0,270.1 114.0,270.5 114.0,272.2 114.0,223.3 114.0,268.8 114.0,266.3 114.0,204.8 119.2,196.7 121.2,66.5 124.3,274.0 128.5,154.5 129.5,265.0 134.7,177.9 134.7,163.5 135.7,259.8 135.7,259.8 135.7,266.2 135.7,173.7 135.7,242.2 139.8,273.2 141.9,235.5 145.0,230.3 149.1,132.9 150.2,255.3 155.3,273.1 155.3,242.6 156.4,253.6 156.4,177.1 156.4,234.6 156.4,273.3 156.4,258.6 160.5,268.8 162.6,246.8 165.7,203.4 169.8,175.2 170.8,273.7 176.0,203.3 176.0,272.4 176.0,247.9 176.0,261.8 176.0,244.1 176.0,192.2 176.0,189.9 181.2,274.0 183.2,148.7 186.3,174.1 190.5,261.3 191.5,175.8 196.7,218.9 196.7,270.2 196.7,267.1 196.7,267.5 196.7,253.0 196.7,273.3 196.7,99.9 201.8,266.5 203.9,265.9 207.0,273.4 211.1,243.4 212.2,270.5 217.3,210.7 217.3,150.6 218.4,249.1 218.4,216.6 218.4,271.5 218.4,273.9 218.4,255.7 222.5,263.0 224.6,209.7 227.7,205.5 231.8,196.5 232.8,246.0 238.0,271.1 238.0,154.8 239.0,265.8 239.0,273.9 239.0,271.9 239.0,257.3 239.0,273.7 243.2,209.8 245.2,145.2 248.3,273.0 252.5,175.0 253.5,172.3 258.7,267.7 258.7,271.7 258.7,260.7 258.7,259.5 258.7,271.8 258.7,250.4 258.7,213.3 263.8,272.9 265.9,187.5 269.0,266.2 273.1,195.1 274.2,189.3 279.3,273.8 279.3,216.5 280.4,265.7 280.4,272.5 280.4,256.3 280.4,266.2 280.4,191.5 284.5,241.4 286.6,246.8 289.7,265.7 293.8,212.7 294.8,273.4 300.0,218.0 300.0,208.3 300.0,250.1 300.0,272.7 300.0,273.9 300.0,274.0 300.0,259.7 305.2,273.9 307.2,196.1 310.3,226.7 314.5,207.6 315.5,273.1 320.7,274.0 320.7,272.5 320.7,272.7 320.7,263.7 320.7,267.1 320.7,271.7 320.7,207.1 325.8,270.6 327.9,249.0 331.0,217.2 335.1,154.9 336.2,273.3 341.3,189.5 341.3,200.1 342.4,171.1 342.4,259.5 342.4,243.0 342.4,172.3 342.4,271.0 346.5,250.4 348.6,159.1 351.7,209.6 355.8,165.6 356.8,235.1 362.0,211.8 362.0,216.0 367.2,237.5 369.2,233.9 372.3,230.8 376.5,264.0 377.5,244.4 382.7,199.8 382.7,258.3 387.8,273.2 389.9,272.5 393.0,268.7 397.1,251.1 398.2,218.5 403.3,272.3 403.3,246.1 408.5,273.5 410.6,273.7 413.7,238.6 417.8,219.4 418.8,270.8 424.0,229.6 424.0,230.0 429.2,255.4 431.2,263.0 434.3,257.3 438.5,147.9 439.5,273.8 444.7,266.9 444.7,208.5 449.8,271.7 451.9,185.5 455.0,254.6 459.1,162.3 460.2,196.1 465.3,259.4 465.3,272.3 465.3,262.1 465.3,265.6 465.3,268.4 465.3,266.2 465.3,193.9 470.5,272.9 472.6,256.6 475.7,258.0 479.8,163.2 480.8,248.4 486.0,232.5 486.0,263.9 487.0,273.5 487.0,267.5 487.0,274.0 487.0,240.8 487.0,273.7 491.2,242.6 493.2,180.6 496.3,233.7 500.5,267.3 501.5,268.5 506.7,272.4 506.7,250.0 506.7,172.7 506.7,273.6 506.7,248.3 506.7,272.8 506.7,225.1 511.8,200.0 513.9,251.8 517.0,273.9 521.1,204.6 522.2,171.3 527.3,263.1 527.3,260.3 527.3,268.9 527.3,211.7 527.3,273.2 527.3,273.6 527.3,238.8 532.5,239.7 534.6,177.6 537.7,245.5 541.8,202.4 542.8,191.0 548.0,270.8 548.0,272.4 548.0,256.3 548.0,273.8 548.0,273.3 548.0,260.2 548.0,248.7 553.2,268.0 555.2,222.8 558.3,272.9 562.5,263.3 563.5,258.8 568.7,234.5 568.7,204.1 569.7,247.4 569.7,260.2 569.7,253.9 569.7,268.3 569.7,256.3 573.8,273.7 575.9,241.9 579.0,272.2 583.1,241.5 584.2,271.2 589.3,255.9 589.3,246.2 590.4,273.9 590.4,268.6 590.4,273.7 590.4,257.2 590.4,274.0 594.5,255.1 596.6,245.0 599.7,192.2 603.8,200.3 604.8,219.9 610.0,189.0 610.0,240.7 611.0,169.0 611.0,169.0 611.0,169.0 611.0,169.0 611.0,169.0 615.2,191.9 617.2,157.0 620.3,258.2 624.5,267.1 625.5,248.0 630.7,171.8 630.7,212.6 631.7,265.7 631.7,264.1 631.7,267.2 631.7,273.3 631.7,269.2 635.8,270.9 637.9,201.4 641.0,272.0 645.1,259.6 646.2,210.6 651.3,273.8 651.3,147.1 652.4,238.9 652.4,239.4 652.4,223.2 652.4,254.0 652.4,272.8 656.5,237.5 658.6,199.3 661.7,272.9 665.8,264.6 666.8,174.3 672.0,261.0 672.0,185.2 673.0,266.3 673.0,271.5 673.0,260.6 673.0,268.9 673.0,265.1 677.2,257.8 679.2,201.8 682.3,260.4 686.5,270.4 687.5,247.0 692.7,273.5 692.7,268.3 692.7,269.7 692.7,179.1 692.7,273.3 692.7,262.2 692.7,104.5 697.8,252.9 699.9,233.6 703.0,229.0 707.1,202.4 708.2,263.5 713.3,242.6 713.3,211.1 713.3,271.2 713.3,231.8 713.3,266.6 713.3,260.7 713.3,211.5 718.5,273.2 720.6,196.0 723.7,248.5 727.8,163.7 728.8,237.9 734.0,271.8 734.0,212.9 735.0,244.0 735.0,230.7 735.0,258.1 735.0,171.4 735.0,251.6 739.2,272.3 741.2,42.0 744.3,269.9 748.5,240.5 749.5,172.6 754.7,272.4 754.7,100.9 755.7,267.3 755.7,172.8 755.7,270.2 755.7,269.6 755.7,263.9 759.8,266.3 761.9,81.4 765.0,274.0 769.1,242.7 770.2,273.9 775.3,174.6 775.3,219.7 776.4,273.8 776.4,226.4 776.4,271.3 776.4,263.7 776.4,264.6 780.5,203.7 782.6,193.8 785.7,235.7 789.8,214.6 790.8,270.7 796.0,274.0 796.0,273.8 796.0,252.1 796.0,273.8 796.0,273.6 796.0,273.7 796.0,171.9"/>
<text x="640" y="56" font-family="Arial" font-size="12" fill="#0f766e">robust_nominal NIS</text>
</svg>