<svg xmlns="http://www.w3.org/2000/svg" width="820" height="320" viewBox="0 0 820 320">
<rect width="100%" height="100%" fill="white"/>
<text x="52" y="30" font-family="Arial" font-size="18" font-weight="700">ekf_dropout_robust NIS</text>
<line x1="52" y1="274" x2="796" y2="274" stroke="#263238"/>
<line x1="52" y1="42" x2="52" y2="274" stroke="#263238"/>
<text x="52" y="306" font-family="Arial" font-size="12">time (s)</text>
<text x="630" y="306" font-family="Arial" font-size="12">value</text>

<polyline fill="none" stroke="#0f766e" stroke-width="2.3" points="52.0,274.0 52.0,274.0 52.0,274.0 52.0,273.9 52.0,274.0 52.0,274.0 52.0,273.9 57.2,273.9 59.2,274.0 62.3,274.0 66.5,273.9 67.5,273.8 72.7,274.0 72.7,274.0 72.7,274.0 72.7,274.0 72.7,273.9 72.7,273.9 72.7,273.7 77.8,274.0 79.9,273.8 83.0,274.0 87.1,273.4 88.2,274.0 93.3,274.0 93.3,273.6 94.4,273.9 94.4,273.9 94.4,273.9 94.4,274.0 94.4,274.0 98.5,273.9 100.6,273.8 103.7,274.0 107.8,273.6 108.8,273.9 114.0,274.0 114.0,274.0 114.0,274.0 114.0,273.8 114.0,274.0 114.0,274.0 114.0,273.8 119.2,273.9 121.2,273.2 124.3,274.0 128.5,273.3 129.5,274.0 134.7,273.9 134.7,273.6 135.7,274.0 135.7,273.9 135.7,274.0 135.7,273.5 135.7,273.9 139.8,274.0 141.9,273.9 145.0,273.9 149.1,273.6 150.2,274.0 155.3,274.0 155.3,273.9 156.4,273.9 156.4,273.7 156.4,273.9 156.4,274.0 156.4,273.9 160.5,274.0 162.6,273.9 165.7,273.9 169.8,273.5 170.8,274.0 176.0,273.8 176.0,274.0 176.0,273.9 176.0,274.0 176.0,273.9 176.0,273.9 176.0,273.8 181.2,274.0 183.2,273.4 186.3,273.8 190.5,274.0 191.5,273.8 196.7,273.8 196.7,274.0 196.7,274.0 196.7,274.0 196.7,273.9 196.7,274.0 196.7,273.4 201.8,274.0 203.9,273.9 207.0,274.0 211.1,273.9 212.2,274.0 217.3,273.9 217.3,273.5 218.4,273.9 218.4,273.8 218.4,274.0 218.4,274.0 218.4,273.9 222.5,274.0 224.6,273.8 227.7,273.9 231.8,273.8 232.8,273.9 238.0,274.0 238.0,273.7 239.0,274.0 239.0,274.0 239.0,274.0 239.0,274.0 239.0,274.0 243.2,273.9 245.2,273.6 248.3,274.0 252.5,273.7 253.5,273.6 258.7,274.0 258.7,274.0 258.7,274.0 258.7,274.0 258.7,274.0 258.7,274.0 258.7,273.8 263.8,274.0 265.9,273.8 269.0,274.0 273.1,273.8 274.2,273.8 279.3,274.0 279.3,273.8 280.4,274.0 280.4,274.0 280.4,273.9 280.4,274.0 280.4,273.7 284.5,273.9 286.6,273.9 289.7,274.0 293.8,273.8 294.8,274.0 300.0,273.8 300.0,273.8 300.0,273.9 300.0,274.0 300.0,274.0 300.0,274.0 300.0,273.9 305.2,274.0 307.2,273.8 310.3,273.9 314.5,273.8 315.5,274.0 320.7,274.0 320.7,274.0 320.7,274.0 320.7,274.0 320.7,274.0 320.7,274.0 320.7,273.8 325.8,274.0 327.9,273.9 331.0,273.9 335.1,273.7 336.2,274.0 341.3,273.9 341.3,273.9 342.4,273.5 342.4,274.0 342.4,273.9 342.4,273.7 342.4,274.0 346.5,274.0 348.6,273.5 351.7,273.9 355.8,273.7 356.8,273.9 362.0,273.9 362.0,273.8 367.2,273.9 369.2,273.9 372.3,273.9 376.5,274.0 377.5,274.0 382.7,273.9 382.7,274.0 387.8,274.0 389.9,274.0 393.0,274.0 397.1,273.9 398.2,273.9 403.3,274.0 403.3,273.9 408.5,274.0 410.6,274.0 413.7,273.9 417.8,273.9 418.8,274.0 424.0,273.9 424.0,273.8 429.2,274.0 431.2,274.0 434.3,274.0 438.5,273.6 439.5,274.0 444.7,274.0 444.7,273.7 449.8,274.0 451.9,273.7 455.0,274.0 459.1,273.5 460.2,273.9 465.3,274.0 465.3,274.0 465.3,274.0 465.3,274.0 465.3,274.0 465.3,274.0 465.3,273.8 470.5,274.0 472.6,274.0 475.7,274.0 479.8,273.7 480.8,274.0 486.0,273.9 486.0,273.9 487.0,274.0 487.0,274.0 487.0,274.0 487.0,273.9 487.0,274.0 491.2,273.9 493.2,273.7 496.3,273.9 500.5,274.0 501.5,274.0 506.7,274.0 506.7,273.9 506.7,273.6 506.7,274.0 506.7,273.9 506.7,274.0 506.7,273.9 511.8,273.9 513.9,273.9 517.0,274.0 521.1,273.8 522.2,273.5 527.3,274.0 527.3,274.0 527.3,274.0 527.3,273.8 527.3,274.0 527.3,274.0 527.3,273.9 532.5,273.9 534.6,273.7 537.7,274.0 541.8,273.8 542.8,273.9 548.0,274.0 548.0,274.0 548.0,273.9 548.0,274.0 548.0,274.0 548.0,274.0 548.0,273.9 553.2,274.0 555.2,273.9 558.3,274.0 562.5,274.0 563.5,274.0 568.7,273.9 568.7,273.8 569.7,273.9 569.7,274.0 569.7,273.9 569.7,274.0 569.7,273.9 573.8,274.0 575.9,273.9 579.0,274.0 583.1,273.9 584.2,274.0 589.3,274.0 589.3,273.9 590.4,274.0 590.4,274.0 590.4,274.0 590.4,273.9 590.4,274.0 594.5,274.0 596.6,273.9 599.7,273.9 603.8,273.8 604.8,273.9 610.0,273.8 610.0,273.9 611.0,47.2 611.0,53.2 611.0,55.3 611.0,42.0 611.0,58.1 615.2,273.9 617.2,273.4 620.3,274.0 624.5,274.0 625.5,274.0 630.7,273.6 630.7,273.8 631.7,274.0 631.7,274.0 631.7,274.0 631.7,274.0 631.7,274.0 635.8,274.0 637.9,273.9 641.0,274.0 645.1,273.9 646.2,273.9 651.3,274.0 651.3,273.7 652.4,273.9 652.4,273.9 652.4,273.9 652.4,273.9 652.4,274.0 656.5,273.9 658.6,273.7 661.7,274.0 665.8,274.0 666.8,273.8 672.0,274.0 672.0,273.7 673.0,274.0 673.0,274.0 673.0,274.0 673.0,274.0 673.0,274.0 677.2,274.0 679.2,273.7 682.3,274.0 686.5,274.0 687.5,273.9 692.7,274.0 692.7,274.0 692.7,274.0 692.7,273.7 692.7,274.0 692.7,274.0 692.7,273.5 697.8,274.0 699.9,273.9 703.0,273.9 707.1,273.7 708.2,274.0 713.3,273.9 713.3,273.8 713.3,274.0 713.3,273.9 713.3,274.0 713.3,274.0 713.3,273.8 718.5,274.0 720.6,273.8 723.7,274.0 727.8,273.7 728.8,273.9 734.0,274.0 734.0,273.8 735.0,273.9 735.0,273.9 735.0,274.0 735.0,273.5 735.0,273.9 739.2,274.0 741.2,273.3 744.3,274.0 748.5,273.9 749.5,273.7 754.7,274.0 754.7,273.4 755.7,274.0 755.7,273.6 755.7,274.0 755.7,274.0 755.7,274.0 759.8,274.0 761.9,273.3 765.0,274.0 769.1,273.8 770.2,274.0 775.3,273.8 775.3,273.8 776.4,274.0 776.4,273.8 776.4,274.0 776.4,274.0 776.4,274.0 780.5,273.9 782.6,273.7 785.7,273.9 789.8,273.9 790.8,274.0 796.0,274.0 796.0,274.0 796.0,273.9 796.0,274.0 796.0,274.0 796.0,274.0 796.0,273.7"/>
<text x="640" y="56" font-family="Arial" font-size="12" fill="#0f766e">ekf_dropout_robust NIS</text>
</svg>