<svg xmlns="http://www.w3.org/2000/svg" width="820" height="320" viewBox="0 0 820 320">
<rect width="100%" height="100%" fill="white"/>
<text x="52" y="30" font-family="Arial" font-size="18" font-weight="700">adaptive_nominal NIS</text>
<line x1="52" y1="274" x2="796" y2="274" stroke="#263238"/>
<line x1="52" y1="42" x2="52" y2="274" stroke="#263238"/>
<text x="52" y="306" font-family="Arial" font-size="12">time (s)</text>
<text x="630" y="306" font-family="Arial" font-size="12">value</text>

<polyline fill="none" stroke="#0f766e" stroke-width="2.3" points="52.0,274.0 52.0,274.0 52.0,274.0 52.0,274.0 52.0,274.0 52.0,274.0 52.0,274.0 57.2,273.9 59.2,274.0 62.3,274.0 66.5,273.9 67.5,273.8 72.7,274.0 72.7,274.0 72.7,274.0 72.7,274.0 72.7,273.9 72.7,273.9 72.7,273.8 77.8,274.0 79.9,273.9 83.0,274.0 87.1,273.7 88.2,274.0 93.3,274.0 93.3,273.8 94.4,274.0 94.4,274.0 94.4,273.9 94.4,274.0 94.4,274.0 98.5,273.9 100.6,273.9 103.7,274.0 107.8,273.8 108.8,273.9 114.0,274.0 114.0,274.0 114.0,274.0 114.0,273.9 114.0,274.0 114.0,274.0 114.0,273.9 119.2,273.9 121.2,273.5 124.3,274.0 128.5,273.7 129.5,274.0 134.7,273.8 134.7,273.8 135.7,274.0 135.7,274.0 135.7,274.0 135.7,273.7 135.7,274.0 139.8,274.0 141.9,273.9 145.0,273.9 149.1,273.8 150.2,274.0 155.3,274.0 155.3,273.9 156.4,274.0 156.4,273.8 156.4,273.9 156.4,274.0 156.4,274.0 160.5,274.0 162.6,274.0 165.7,273.9 169.8,273.7 170.8,274.0 176.0,273.9 176.0,274.0 176.0,274.0 176.0,274.0 176.0,273.9 176.0,273.9 176.0,273.9 181.2,274.0 183.2,273.7 186.3,273.8 190.5,274.0 191.5,273.8 196.7,273.9 196.7,274.0 196.7,274.0 196.7,274.0 196.7,274.0 196.7,274.0 196.7,273.6 201.8,274.0 203.9,274.0 207.0,274.0 211.1,273.9 212.2,274.0 217.3,273.9 217.3,273.7 218.4,274.0 218.4,273.9 218.4,274.0 218.4,274.0 218.4,274.0 222.5,274.0 224.6,273.9 227.7,273.9 231.8,273.9 232.8,274.0 238.0,274.0 238.0,273.8 239.0,274.0 239.0,274.0 239.0,274.0 239.0,274.0 239.0,274.0 243.2,273.9 245.2,273.7 248.3,274.0 252.5,273.9 253.5,273.6 258.7,274.0 258.7,274.0 258.7,274.0 258.7,274.0 258.7,274.0 258.7,274.0 258.7,273.9 263.8,274.0 265.9,273.9 269.0,274.0 273.1,273.9 274.2,273.9 279.3,274.0 279.3,273.9 280.4,274.0 280.4,274.0 280.4,274.0 280.4,274.0 280.4,273.9 284.5,273.9 286.6,273.9 289.7,274.0 293.8,273.9 294.8,274.0 300.0,273.9 300.0,273.9 300.0,274.0 300.0,274.0 300.0,274.0 300.0,274.0 300.0,274.0 305.2,274.0 307.2,273.9 310.3,273.9 314.5,273.9 315.5,274.0 320.7,274.0 320.7,274.0 320.7,274.0 320.7,274.0 320.7,274.0 320.7,274.0 320.7,273.9 325.8,274.0 327.9,273.9 331.0,273.9 335.1,273.7 336.2,274.0 341.3,273.8 341.3,273.8 342.4,273.6 342.4,274.0 342.4,273.9 342.4,273.7 342.4,274.0 346.5,273.9 348.6,273.7 351.7,273.9 355.8,273.8 356.8,273.9 362.0,273.9 362.0,273.9 367.2,273.9 369.2,274.0 372.3,273.9 376.5,274.0 377.5,274.0 382.7,273.9 382.7,274.0 387.8,274.0 389.9,274.0 393.0,274.0 397.1,274.0 398.2,273.9 403.3,274.0 403.3,274.0 408.5,274.0 410.6,274.0 413.7,273.9 417.8,273.9 418.8,274.0 424.0,273.9 424.0,273.9 429.2,274.0 431.2,274.0 434.3,274.0 438.5,273.7 439.5,274.0 444.7,274.0 444.7,273.9 449.8,274.0 451.9,273.8 455.0,274.0 459.1,273.7 460.2,273.8 465.3,274.0 465.3,274.0 465.3,274.0 465.3,274.0 465.3,274.0 465.3,274.0 465.3,273.9 470.5,274.0 472.6,274.0 475.7,274.0 479.8,273.8 480.8,274.0 486.0,273.9 486.0,274.0 487.0,274.0 487.0,274.0 487.0,274.0 487.0,273.9 487.0,274.0 491.2,273.9 493.2,273.8 496.3,273.9 500.5,274.0 501.5,274.0 506.7,274.0 506.7,273.9 506.7,273.7 506.7,274.0 506.7,273.9 506.7,274.0 506.7,273.9 511.8,273.8 513.9,273.9 517.0,274.0 521.1,273.8 522.2,273.3 527.3,274.0 527.3,274.0 527.3,274.0 527.3,273.9 527.3,274.0 527.3,274.0 527.3,273.9 532.5,273.9 534.6,273.8 537.7,273.9 541.8,273.9 542.8,273.8 548.0,274.0 548.0,274.0 548.0,274.0 548.0,274.0 548.0,274.0 548.0,274.0 548.0,274.0 553.2,274.0 555.2,273.9 558.3,274.0 562.5,274.0 563.5,274.0 568.7,273.9 568.7,273.9 569.7,274.0 569.7,274.0 569.7,274.0 569.7,274.0 569.7,274.0 573.8,274.0 575.9,273.9 579.0,274.0 583.1,273.9 584.2,274.0 589.3,274.0 589.3,273.9 590.4,274.0 590.4,274.0 590.4,274.0 590.4,274.0 590.4,274.0 594.5,274.0 596.6,273.9 599.7,273.7 603.8,273.8 604.8,273.8 610.0,273.7 610.0,273.9 611.0,42.0 611.0,65.6 611.0,82.4 611.0,83.8 611.0,111.3 615.2,273.8 617.2,273.6 620.3,274.0 624.5,274.0 625.5,274.0 630.7,273.6 630.7,273.9 631.7,274.0 631.7,274.0 631.7,274.0 631.7,274.0 631.7,274.0 635.8,274.0 637.9,273.9 641.0,274.0 645.1,274.0 646.2,273.9 651.3,274.0 651.3,273.9 652.4,274.0 652.4,274.0 652.4,273.9 652.4,274.0 652.4,274.0 656.5,274.0 658.6,273.9 661.7,274.0 665.8,274.0 666.8,273.8 672.0,274.0 672.0,273.9 673.0,274.0 673.0,274.0 673.0,274.0 673.0,274.0 673.0,274.0 677.2,274.0 679.2,273.9 682.3,274.0 686.5,274.0 687.5,274.0 692.7,274.0 692.7,274.0 692.7,274.0 692.7,273.8 692.7,274.0 692.7,274.0 692.7,273.7 697.8,274.0 699.9,273.9 703.0,273.9 707.1,273.9 708.2,274.0 713.3,273.9 713.3,273.9 713.3,274.0 713.3,273.9 713.3,274.0 713.3,274.0 713.3,273.9 718.5,274.0 720.6,273.9 723.7,274.0 727.8,273.8 728.8,273.9 734.0,274.0 734.0,273.9 735.0,273.9 735.0,273.9 735.0,274.0 735.0,273.7 735.0,274.0 739.2,274.0 741.2,273.5 744.3,274.0 748.5,273.9 749.5,273.7 754.7,274.0 754.7,273.7 755.7,274.0 755.7,273.8 755.7,274.0 755.7,274.0 755.7,274.0 759.8,274.0 761.9,273.6 765.0,274.0 769.1,273.9 770.2,274.0 775.3,273.8 775.3,273.9 776.4,274.0 776.4,273.9 776.4,274.0 776.4,274.0 776.4,274.0 780.5,273.9 782.6,273.9 785.7,273.9 789.8,273.9 790.8,274.0 796.0,274.0 796.0,274.0 796.0,274.0 796.0,274.0 796.0,274.0 796.0,274.0 796.0,273.8"/>
<text x="640" y="56" font-family="Arial" font-size="12" fill="#0f766e">adaptive_nominal NIS</text>
</svg>