<svg xmlns="http://www.w3.org/2000/svg" width="820" height="320" viewBox="0 0 820 320">
<rect width="100%" height="100%" fill="white"/>
<text x="52" y="30" font-family="Arial" font-size="18" font-weight="700">nominal covariance trace</text>
<line x1="52" y1="274" x2="796" y2="274" stroke="#263238"/>
<line x1="52" y1="42" x2="52" y2="274" stroke="#263238"/>
<text x="52" y="306" font-family="Arial" font-size="12">time (s)</text>
<text x="630" y="306" font-family="Arial" font-size="12">sqrt trace P</text>

<polyline fill="none" stroke="#0f766e" stroke-width="2.3" points="52.0,42.2 53.0,42.1 54.1,42.1 55.1,42.1 56.1,42.0 57.2,49.6 58.2,49.5 59.2,49.6 60.3,49.6 61.3,49.5 62.3,52.5 63.4,52.4 64.4,52.3 65.4,52.1 66.5,52.4 67.5,54.0 68.5,53.9 69.6,53.8 70.6,53.7 71.6,53.5 72.7,141.4 73.7,141.4 74.7,141.3 75.8,141.1 76.8,141.0 77.8,141.8 78.9,141.6 79.9,141.9 80.9,141.8 82.0,141.7 83.0,142.2 84.0,142.1 85.1,141.9 86.1,141.7 87.1,142.1 88.2,142.5 89.2,142.4 90.2,142.2 91.3,142.0 92.3,141.8 93.3,142.7 94.4,182.4 95.4,182.3 96.4,182.1 97.5,181.9 98.5,182.2 99.5,182.0 100.6,182.4 101.6,182.2 102.6,182.0 103.7,182.3 104.7,182.1 105.7,181.8 106.8,181.6 107.8,182.1 108.8,182.3 109.9,182.1 110.9,181.9 111.9,181.6 113.0,181.4 114.0,206.6 115.0,206.4 116.1,206.2 117.1,206.0 118.1,205.8 119.2,205.9 120.2,205.6 121.2,206.1 122.3,205.9 123.3,205.7 124.3,205.8 125.4,205.5 126.4,205.3 127.4,205.0 128.5,205.6 129.5,205.7 130.5,205.5 131.6,205.2 132.6,205.0 133.6,204.7 134.7,205.5 135.7,222.4 136.7,222.1 137.8,221.9 138.8,221.7 139.8,221.7 140.9,221.4 141.9,222.0 142.9,221.7 144.0,221.5 145.0,221.5 146.0,221.3 147.1,221.0 148.1,220.7 149.1,221.3 150.2,221.3 151.2,221.1 152.2,220.8 153.3,220.6 154.3,220.3 155.3,221.1 156.4,233.8 157.4,233.6 158.4,233.3 159.5,233.0 160.5,233.0 161.5,232.8 162.6,233.3 163.6,233.1 164.6,232.8 165.7,232.8 166.7,232.5 167.7,232.2 168.8,231.9 169.8,232.6 170.8,232.6 171.9,232.3 172.9,232.0 173.9,231.7 175.0,231.4 176.0,242.6 177.0,242.4 178.1,242.1 179.1,241.8 180.1,241.6 181.2,241.5 182.2,241.2 183.2,241.8 184.3,241.5 185.3,241.3 186.3,241.3 187.4,241.0 188.4,240.7 189.4,240.3 190.5,241.0 191.5,241.0 192.5,240.7 193.6,240.4 194.6,240.1 195.6,239.8 196.7,249.3 197.7,249.0 198.7,248.7 199.8,248.4 200.8,248.1 201.8,248.1 202.9,247.8 203.9,248.4 204.9,248.1 206.0,247.8 207.0,247.8 208.0,247.5 209.1,247.2 210.1,246.9 211.1,247.5 212.2,247.5 213.2,247.2 214.2,246.9 215.3,246.6 216.3,246.3 217.3,247.2 218.4,254.3 219.4,254.0 220.4,253.7 221.5,253.4 222.5,253.4 223.5,253.0 224.6,253.7 225.6,253.4 226.6,253.1 227.7,253.0 228.7,252.7 229.7,252.4 230.8,252.1 231.8,252.7 232.8,252.7 233.9,252.4 234.9,252.1 235.9,251.8 237.0,251.4 238.0,252.4 239.0,258.6 240.1,258.3 241.1,258.0 242.1,257.7 243.2,257.6 244.2,257.3 245.2,257.9 246.3,257.6 247.3,257.3 248.3,257.3 249.4,256.9 250.4,256.6 251.4,256.3 252.5,257.0 253.5,256.9 254.5,256.6 255.6,256.3 256.6,255.9 257.6,255.6 258.7,262.4 259.7,262.1 260.7,261.8 261.8,261.5 262.8,261.1 263.8,261.1 264.9,260.7 265.9,261.4 266.9,261.1 268.0,260.8 269.0,260.7 270.0,260.4 271.1,260.0 272.1,259.7 273.1,260.4 274.2,260.3 275.2,260.0 276.2,259.7 277.3,259.4 278.3,259.0 279.3,260.0 280.4,265.0 281.4,264.7 282.4,264.3 283.5,264.0 284.5,264.0 285.5,263.6 286.6,264.3 287.6,263.9 288.6,263.6 289.7,263.6 290.7,263.2 291.7,262.9 292.8,262.5 293.8,263.2 294.8,263.2 295.9,262.9 296.9,262.5 297.9,262.2 299.0,261.8 300.0,267.7 301.0,267.4 302.1,267.1 303.1,266.7 304.1,266.4 305.2,266.4 306.2,266.0 307.2,266.6 308.3,266.3 309.3,266.0 310.3,266.0 311.4,265.6 312.4,265.3 313.4,264.9 314.5,265.6 315.5,265.6 316.5,265.2 317.6,264.9 318.6,264.5 319.6,264.2 320.7,269.7 321.7,269.4 322.7,269.1 323.8,268.8 324.8,268.4 325.8,268.4 326.9,268.0 327.9,268.7 328.9,268.3 330.0,268.0 331.0,267.9 332.0,267.6 333.1,267.3 334.1,266.9 335.1,267.6 336.2,267.5 337.2,267.2 338.2,266.9 339.3,266.5 340.3,266.2 341.3,267.1 342.4,271.1 343.4,270.8 344.4,270.5 345.5,270.1 346.5,270.1 347.5,269.7 348.6,270.4 349.6,270.0 350.6,269.7 351.7,269.7 352.7,269.3 353.7,269.0 354.8,268.6 355.8,269.3 356.8,269.2 357.9,268.9 358.9,268.6 359.9,268.2 361.0,267.8 362.0,268.8 363.0,268.5 364.1,268.2 365.1,267.8 366.1,267.5 367.2,267.4 368.2,267.0 369.2,267.8 370.3,267.4 371.3,267.1 372.3,267.0 373.4,266.7 374.4,266.3 375.4,265.9 376.5,266.7 377.5,266.6 378.5,266.3 379.6,265.9 380.6,265.6 381.6,265.2 382.7,266.2 383.7,265.9 384.7,265.6 385.8,265.2 386.8,264.9 387.8,264.8 388.9,264.4 389.9,265.2 390.9,264.9 392.0,264.5 393.0,264.4 394.0,264.1 395.1,263.7 396.1,263.4 397.1,264.2 398.2,264.1 399.2,263.8 400.2,263.4 401.3,263.0 402.3,262.7 403.3,263.7 404.4,263.4 405.4,263.1 406.4,262.7 407.5,262.4 408.5,262.3 409.5,261.9 410.6,262.7 411.6,262.4 412.6,262.0 413.7,262.0 414.7,261.6 415.7,261.3 416.8,260.9 417.8,261.7 418.8,261.6 419.9,261.3 420.9,260.9 421.9,260.6 423.0,260.2 424.0,261.3 425.0,261.0 426.1,260.6 427.1,260.3 428.1,259.9 429.2,259.9 430.2,259.5 431.2,260.3 432.3,260.0 433.3,259.6 434.3,259.6 435.4,259.2 436.4,258.9 437.4,258.5 438.5,259.3 439.5,259.2 440.5,258.9 441.6,258.6 442.6,258.2 443.6,257.9 444.7,258.9 445.7,258.6 446.7,258.3 447.8,257.9 448.8,257.6 449.8,257.5 450.9,257.1 451.9,257.9 452.9,257.6 454.0,257.3 455.0,257.2 456.0,256.9 457.1,256.5 458.1,256.2 459.1,257.0 460.2,256.9 461.2,256.6 462.2,256.2 463.3,255.9 464.3,255.5 465.3,262.4 466.4,262.1 467.4,261.8 468.4,261.5 469.5,261.2 470.5,261.1 471.5,260.8 472.6,261.4 473.6,261.1 474.6,260.8 475.7,260.7 476.7,260.4 477.7,260.1 478.8,259.7 479.8,260.4 480.8,260.4 481.9,260.1 482.9,259.7 483.9,259.4 485.0,259.1 486.0,260.0 487.0,265.0 488.1,264.7 489.1,264.4 490.1,264.1 491.2,264.1 492.2,263.7 493.2,264.3 494.3,264.0 495.3,263.7 496.3,263.7 497.4,263.3 498.4,263.0 499.4,262.7 500.5,263.3 501.5,263.3 502.5,262.9 503.6,262.6 504.6,262.3 505.6,262.0 506.7,267.8 507.7,267.5 508.7,267.2 509.8,266.9 510.8,266.6 511.8,266.5 512.9,266.2 513.9,266.7 514.9,266.4 516.0,266.1 517.0,266.1 518.0,265.8 519.1,265.4 520.1,265.1 521.1,265.7 522.2,265.7 523.2,265.3 524.2,265.0 525.3,264.7 526.3,264.4 527.3,269.8 528.4,269.5 529.4,269.2 530.4,268.9 531.5,268.6 532.5,268.5 533.5,268.2 534.6,268.8 535.6,268.5 536.6,268.1 537.7,268.1 538.7,267.8 539.7,267.4 540.8,267.1 541.8,267.7 542.8,267.7 543.9,267.3 544.9,267.0 545.9,266.7 547.0,266.4 548.0,271.5 549.0,271.2 550.1,270.9 551.1,270.6 552.1,270.3 553.2,270.3 554.2,269.9 555.2,270.5 556.3,270.2 557.3,269.9 558.3,269.8 559.4,269.5 560.4,269.1 561.4,268.8 562.5,269.4 563.5,269.4 564.5,269.0 565.6,268.7 566.6,268.4 567.6,268.0 568.7,268.9 569.7,272.7 570.7,272.4 571.8,272.1 572.8,271.8 573.8,271.7 574.9,271.4 575.9,272.0 576.9,271.6 578.0,271.3 579.0,271.3 580.0,270.9 581.1,270.6 582.1,270.3 583.1,270.9 584.2,270.8 585.2,270.5 586.2,270.2 587.3,269.8 588.3,269.5 589.3,270.4 590.4,274.0 591.4,273.7 592.4,273.4 593.5,273.0 594.5,273.0 595.5,272.7 596.6,273.2 597.6,272.9 598.6,272.6 599.7,272.5 600.7,272.2 601.7,271.9 602.8,271.5 603.8,272.1 604.8,272.1 605.9,271.7 606.9,271.4 607.9,271.1 609.0,270.7 610.0,271.6 611.0,271.3 612.1,271.0 613.1,270.6 614.1,270.3 615.2,270.2 616.2,269.9 617.2,270.5 618.3,270.2 619.3,269.9 620.3,269.8 621.4,269.5 622.4,269.1 623.4,268.8 624.5,269.4 625.5,269.4 626.5,269.0 627.6,268.7 628.6,268.4 629.6,268.0 630.7,268.9 631.7,272.6 632.7,272.2 633.8,271.8 634.8,271.4 635.8,271.3 636.9,270.9 637.9,271.4 638.9,271.0 640.0,270.6 641.0,270.5 642.0,270.1 643.1,269.6 644.1,269.2 645.1,269.8 646.2,269.7 647.2,269.3 648.2,268.9 649.3,268.4 650.3,268.0 651.3,268.9 652.4,272.6 653.4,272.2 654.4,271.8 655.5,271.4 656.5,271.3 657.5,270.9 658.6,271.4 659.6,271.0 660.6,270.6 661.7,270.5 662.7,270.1 663.7,269.7 664.8,269.2 665.8,269.8 666.8,269.7 667.9,269.3 668.9,268.9 669.9,268.5 671.0,268.0 672.0,268.9 673.0,272.6 674.1,272.2 675.1,271.8 676.1,271.4 677.2,271.3 678.2,270.9 679.2,271.4 680.3,271.0 681.3,270.6 682.3,270.5 683.4,270.1 684.4,269.7 685.4,269.3 686.5,269.8 687.5,269.7 688.5,269.3 689.6,268.9 690.6,268.5 691.6,268.1 692.7,273.0 693.7,272.6 694.7,272.2 695.8,271.8 696.8,271.4 697.8,271.3 698.9,270.9 699.9,271.4 700.9,271.0 702.0,270.6 703.0,270.5 704.0,270.1 705.1,269.7 706.1,269.3 707.1,269.8 708.2,269.7 709.2,269.3 710.2,268.9 711.3,268.5 712.3,268.1 713.3,273.0 714.4,272.6 715.4,272.2 716.4,271.8 717.5,271.4 718.5,271.3 719.5,270.9 720.6,271.4 721.6,271.1 722.6,270.6 723.7,270.5 724.7,270.1 725.7,269.7 726.8,269.3 727.8,269.9 728.8,269.8 729.9,269.4 730.9,268.9 731.9,268.5 733.0,268.1 734.0,269.0 735.0,272.7 736.1,272.3 737.1,271.9 738.1,271.5 739.2,271.4 740.2,271.0 741.2,271.5 742.3,271.1 743.3,270.7 744.3,270.6 745.4,270.2 746.4,269.8 747.4,269.3 748.5,269.9 749.5,269.8 750.5,269.4 751.6,269.0 752.6,268.6 753.6,268.1 754.7,269.0 755.7,272.7 756.7,272.3 757.8,271.9 758.8,271.5 759.8,271.4 760.9,271.0 761.9,271.5 762.9,271.1 764.0,270.7 765.0,270.6 766.0,270.2 767.1,269.8 768.1,269.4 769.1,269.9 770.2,269.8 771.2,269.4 772.2,269.0 773.3,268.6 774.3,268.2 775.3,269.0 776.4,272.7 777.4,272.4 778.4,272.0 779.5,271.6 780.5,271.5 781.5,271.0 782.6,271.6 783.6,271.2 784.6,270.8 785.7,270.7 786.7,270.2 787.7,269.8 788.8,269.4 789.8,270.0 790.8,269.9 791.9,269.5 792.9,269.1 793.9,268.6 795.0,268.2 796.0,273.1"/>
<text x="640" y="56" font-family="Arial" font-size="12" fill="#0f766e">nominal covariance trace</text>
</svg>