<svg xmlns="http://www.w3.org/2000/svg" width="820" height="320" viewBox="0 0 820 320">
<rect width="100%" height="100%" fill="white"/>
<text x="52" y="30" font-family="Arial" font-size="18" font-weight="700">nominal position error</text>
<line x1="52" y1="274" x2="796" y2="274" stroke="#263238"/>
<line x1="52" y1="42" x2="52" y2="274" stroke="#263238"/>
<text x="52" y="306" font-family="Arial" font-size="12">time (s)</text>
<text x="630" y="306" font-family="Arial" font-size="12">m</text>

<rect x="630.7" y="42" width="165.3" height="232" fill="#fef3c7" opacity="0.72"/>
<polyline fill="none" stroke="#0f766e" stroke-width="2.3" points="52.0,71.4 53.0,70.9 54.1,70.3 55.1,69.8 56.1,69.2 57.2,51.7 58.2,50.6 59.2,45.6 60.3,43.8 61.3,42.0 62.3,60.0 63.4,58.5 64.4,57.0 65.4,55.4 66.5,71.5 67.5,82.8 68.5,84.6 69.6,86.7 70.6,89.0 71.6,91.4 72.7,242.3 73.7,242.9 74.7,243.6 75.8,244.3 76.8,245.1 77.8,242.0 78.9,242.8 79.9,232.4 80.9,231.8 82.0,231.0 83.0,227.0 84.0,226.4 85.1,225.7 86.1,225.0 87.1,244.6 88.2,237.9 89.2,239.5 90.2,241.2 91.3,243.0 92.3,245.0 93.3,257.5 94.4,247.4 95.4,249.1 96.4,250.8 97.5,252.4 98.5,254.0 99.5,256.4 100.6,253.8 101.6,256.2 102.6,258.6 103.7,261.4 104.7,263.7 105.7,266.0 106.8,268.2 107.8,265.2 108.8,255.0 109.9,257.3 110.9,259.6 111.9,262.0 113.0,264.4 114.0,247.5 115.0,248.7 116.1,249.9 117.1,251.2 118.1,252.6 119.2,266.2 120.2,267.7 121.2,227.8 122.3,226.6 123.3,225.4 124.3,223.6 125.4,222.2 126.4,220.7 127.4,219.1 128.5,232.5 129.5,235.3 130.5,234.6 131.6,233.8 132.6,233.0 133.6,232.2 134.7,257.2 135.7,254.8 136.7,254.2 137.8,253.7 138.8,253.1 139.8,251.4 140.9,250.9 141.9,244.1 142.9,243.2 144.0,242.2 145.0,234.8 146.0,233.9 147.1,233.1 148.1,232.2 149.1,217.4 150.2,220.7 151.2,219.3 152.2,217.9 153.3,216.5 154.3,215.0 155.3,216.4 156.4,125.4 157.4,124.0 158.4,122.7 159.5,121.4 160.5,121.4 161.5,120.0 162.6,118.1 163.6,116.6 164.6,115.1 165.7,108.5 166.7,107.0 167.7,105.4 168.8,103.9 169.8,139.6 170.8,139.7 171.9,139.6 172.9,139.5 173.9,139.5 175.0,139.4 176.0,113.4 177.0,113.6 178.1,113.9 179.1,114.3 180.1,114.6 181.2,114.9 182.2,115.3 183.2,108.6 184.3,108.6 185.3,108.6 186.3,115.7 187.4,115.7 188.4,115.7 189.4,115.8 190.5,123.3 191.5,127.3 192.5,127.6 193.6,127.9 194.6,128.1 195.6,128.3 196.7,161.3 197.7,162.5 198.7,163.6 199.8,164.7 200.8,165.9 201.8,167.0 202.9,168.2 203.9,161.5 204.9,162.4 206.0,163.2 207.0,164.1 208.0,164.8 209.1,165.6 210.1,166.4 211.1,151.2 212.2,151.5 213.2,151.7 214.2,151.9 215.3,152.1 216.3,152.4 217.3,132.2 218.4,94.6 219.4,94.1 220.4,93.5 221.5,92.8 222.5,91.8 223.5,91.0 224.6,101.3 225.6,100.8 226.6,100.4 227.7,100.2 228.7,99.7 229.7,99.2 230.8,98.7 231.8,112.4 232.8,112.3 233.9,112.0 234.9,111.8 235.9,111.5 237.0,111.2 238.0,111.9 239.0,117.6 240.1,117.4 241.1,117.3 242.1,117.2 243.2,117.6 244.2,117.6 245.2,144.3 246.3,145.0 247.3,145.6 248.3,146.4 249.4,147.0 250.4,147.6 251.4,148.2 252.5,162.8 253.5,162.0 254.5,163.1 255.6,164.2 256.6,165.3 257.6,166.4 258.7,188.9 259.7,189.7 260.7,190.4 261.8,191.1 262.8,191.8 263.8,192.4 264.9,193.1 265.9,214.8 266.9,216.2 268.0,217.6 269.0,219.5 270.0,220.7 271.1,222.0 272.1,223.2 273.1,236.1 274.2,233.6 275.2,235.2 276.2,236.7 277.3,238.3 278.3,239.8 279.3,225.2 280.4,229.7 281.4,231.0 282.4,232.2 283.5,233.5 284.5,231.8 285.5,233.1 286.6,228.0 287.6,229.1 288.6,230.2 289.7,232.7 290.7,233.9 291.7,235.1 292.8,236.1 293.8,235.9 294.8,237.5 295.9,238.6 296.9,239.6 297.9,240.6 299.0,241.5 300.0,268.7 301.0,269.6 302.1,270.5 303.1,271.4 304.1,272.3 305.2,273.1 306.2,274.0 307.2,253.0 308.3,253.3 309.3,253.5 310.3,248.4 311.4,248.6 312.4,248.9 313.4,249.0 314.5,232.0 315.5,232.5 316.5,232.3 317.6,232.0 318.6,231.6 319.6,231.3 320.7,254.2 321.7,254.3 322.7,254.3 323.8,254.5 324.8,254.6 325.8,256.5 326.9,256.6 327.9,249.3 328.9,249.3 330.0,249.4 331.0,243.2 332.0,243.2 333.1,243.1 334.1,243.0 335.1,223.1 336.2,221.6 337.2,220.8 338.2,220.0 339.3,219.2 340.3,218.3 341.3,213.5 342.4,145.1 343.4,143.9 344.4,142.7 345.5,141.4 346.5,143.6 347.5,142.4 348.6,160.6 349.6,160.0 350.6,159.4 351.7,162.4 352.7,161.8 353.7,161.1 354.8,160.5 355.8,178.3 356.8,174.3 357.9,173.9 358.9,173.5 359.9,173.1 361.0,172.7 362.0,188.7 363.0,188.8 364.1,188.8 365.1,188.8 366.1,188.8 367.2,190.8 368.2,190.8 369.2,171.6 370.3,171.2 371.3,170.8 372.3,171.4 373.4,171.0 374.4,170.6 375.4,170.2 376.5,170.9 377.5,169.5 378.5,169.1 379.6,168.6 380.6,168.2 381.6,167.8 382.7,171.1 383.7,170.7 384.7,170.4 385.8,170.0 386.8,169.6 387.8,169.2 388.9,168.7 389.9,164.9 390.9,164.3 392.0,163.6 393.0,163.0 394.0,162.3 395.1,161.6 396.1,160.9 397.1,170.8 398.2,169.2 399.2,168.8 400.2,168.4 401.3,168.0 402.3,167.5 403.3,172.8 404.4,172.5 405.4,172.2 406.4,171.8 407.5,171.5 408.5,171.0 409.5,170.6 410.6,170.0 411.6,169.7 412.6,169.3 413.7,166.8 414.7,166.5 415.7,166.2 416.8,165.9 417.8,167.4 418.8,166.5 419.9,166.1 420.9,165.8 421.9,165.5 423.0,165.2 424.0,168.0 425.0,167.6 426.1,167.3 427.1,166.9 428.1,166.5 429.2,167.8 430.2,167.5 431.2,158.5 432.3,158.1 433.3,157.7 434.3,158.6 435.4,158.1 436.4,157.7 437.4,157.1 438.5,123.0 439.5,121.6 440.5,120.3 441.6,119.0 442.6,117.7 443.6,116.4 444.7,129.4 445.7,128.5 446.7,127.6 447.8,126.9 448.8,126.1 449.8,125.1 450.9,124.3 451.9,142.7 452.9,142.2 454.0,141.7 455.0,139.9 456.0,139.3 457.1,138.7 458.1,138.2 459.1,128.2 460.2,124.6 461.2,124.0 462.2,123.4 463.3,122.9 464.3,122.4 465.3,122.7 466.4,122.4 467.4,122.2 468.4,122.0 469.5,121.8 470.5,121.0 471.5,120.8 472.6,124.2 473.6,124.0 474.6,123.8 475.7,125.2 476.7,125.0 477.7,124.7 478.8,124.5 479.8,100.6 480.8,101.8 481.9,101.1 482.9,100.3 483.9,99.6 485.0,98.8 486.0,103.3 487.0,109.3 488.1,108.7 489.1,108.1 490.1,107.5 491.2,108.3 492.2,107.8 493.2,129.0 494.3,128.9 495.3,128.8 496.3,128.9 497.4,128.7 498.4,128.5 499.4,128.4 500.5,126.0 501.5,125.8 502.5,125.6 503.6,125.3 504.6,125.1 505.6,124.9 506.7,177.1 507.7,177.3 508.7,177.6 509.8,178.0 510.8,178.3 511.8,177.9 512.9,178.3 513.9,169.2 514.9,169.3 516.0,169.4 517.0,169.5 518.0,169.5 519.1,169.5 520.1,169.5 521.1,151.5 522.2,147.8 523.2,147.4 524.2,147.1 525.3,146.7 526.3,146.3 527.3,197.7 528.4,197.4 529.4,197.2 530.4,197.0 531.5,196.7 532.5,194.2 533.5,194.1 534.6,190.0 535.6,189.7 536.6,189.5 537.7,192.4 538.7,192.2 539.7,192.0 540.8,191.7 541.8,211.7 542.8,214.4 543.9,214.7 544.9,214.9 545.9,215.1 547.0,215.3 548.0,215.2 549.0,215.3 550.1,215.4 551.1,215.5 552.1,215.5 553.2,215.8 554.2,215.9 555.2,202.0 556.3,201.9 557.3,201.7 558.3,201.5 559.4,201.3 560.4,201.1 561.4,200.9 562.5,206.1 563.5,206.5 564.5,206.5 565.6,206.5 566.6,206.6 567.6,206.7 568.7,221.2 569.7,204.2 570.7,204.8 571.8,205.4 572.8,206.0 573.8,206.7 574.9,207.3 575.9,206.3 576.9,206.9 578.0,207.4 579.0,208.1 580.0,208.6 581.1,209.1 582.1,209.6 583.1,225.3 584.2,226.2 585.2,227.0 586.2,227.8 587.3,228.7 588.3,229.5 589.3,234.9 590.4,231.3 591.4,232.3 592.4,233.3 593.5,234.3 594.5,234.1 595.5,235.2 596.6,227.7 597.6,228.6 598.6,229.4 599.7,233.6 600.7,234.6 601.7,235.6 602.8,236.6 603.8,218.6 604.8,219.0 605.9,219.5 606.9,220.0 607.9,220.6 609.0,221.3 610.0,218.1 611.0,218.7 612.1,219.4 613.1,220.0 614.1,220.5 615.2,222.8 616.2,223.3 617.2,181.4 618.3,180.9 619.3,180.3 620.3,179.7 621.4,179.1 622.4,178.5 623.4,178.0 624.5,174.9 625.5,174.3 626.5,173.6 627.6,173.0 628.6,172.4 629.6,171.8 630.7,166.5 631.7,170.4 632.7,169.8 633.8,169.2 634.8,168.6 635.8,167.7 636.9,167.1 637.9,160.4 638.9,159.6 640.0,159.0 641.0,158.8 642.0,158.1 643.1,157.5 644.1,156.8 645.1,167.1 646.2,164.2 647.2,163.7 648.2,163.3 649.3,162.8 650.3,162.3 651.3,149.7 652.4,118.1 653.4,117.3 654.4,116.5 655.5,115.7 656.5,118.8 657.5,118.1 658.6,140.5 659.6,140.2 660.6,139.9 661.7,139.4 662.7,139.0 663.7,138.7 664.8,138.3 665.8,144.6 666.8,136.6 667.9,136.1 668.9,135.6 669.9,135.1 671.0,134.5 672.0,106.7 673.0,88.3 674.1,87.2 675.1,86.0 676.1,84.8 677.2,80.5 678.2,79.3 679.2,98.7 680.3,97.9 681.3,97.2 682.3,100.4 683.4,99.8 684.4,99.2 685.4,98.6 686.5,96.2 687.5,100.6 688.5,100.0 689.6,99.3 690.6,98.7 691.6,98.0 692.7,102.4 693.7,101.5 694.7,100.6 695.8,99.8 696.8,99.0 697.8,102.3 698.9,101.5 699.9,100.7 700.9,99.9 702.0,99.0 703.0,102.9 704.0,102.0 705.1,101.1 706.1,100.2 707.1,113.8 708.2,111.3 709.2,110.7 710.2,110.1 711.3,109.4 712.3,108.8 713.3,175.3 714.4,175.0 715.4,174.6 716.4,174.2 717.5,173.8 718.5,174.8 719.5,174.4 720.6,189.1 721.6,189.2 722.6,189.2 723.7,183.2 724.7,183.1 725.7,183.1 726.8,183.0 727.8,162.5 728.8,170.4 729.9,170.0 730.9,169.6 731.9,169.1 733.0,168.7 734.0,183.3 735.0,147.8 736.1,147.6 737.1,147.5 738.1,147.4 739.2,148.7 740.2,148.7 741.2,173.8 742.3,174.2 743.3,174.5 744.3,177.4 745.4,177.9 746.4,178.2 747.4,178.6 748.5,168.8 749.5,182.8 750.5,183.1 751.6,183.5 752.6,183.9 753.6,184.3 754.7,185.2 755.7,162.0 756.7,162.3 757.8,162.7 758.8,163.0 759.8,160.1 760.9,160.3 761.9,137.8 762.9,137.5 764.0,137.2 765.0,136.4 766.0,136.2 767.1,135.9 768.1,135.7 769.1,128.6 770.2,127.5 771.2,127.1 772.2,126.6 773.3,126.0 774.3,125.5 775.3,142.9 776.4,150.3 777.4,150.0 778.4,149.7 779.5,149.4 780.5,157.5 781.5,157.4 782.6,149.5 783.6,149.2 784.6,149.0 785.7,142.6 786.7,142.3 787.7,142.0 788.8,141.6 789.8,128.2 790.8,128.9 791.9,128.3 792.9,127.6 793.9,127.0 795.0,126.3 796.0,105.4"/>
<text x="640" y="56" font-family="Arial" font-size="12" fill="#0f766e">nominal position error</text>
</svg>