<svg xmlns="http://www.w3.org/2000/svg" width="820" height="320" viewBox="0 0 820 320">
<rect width="100%" height="100%" fill="white"/>
<text x="52" y="30" font-family="Arial" font-size="18" font-weight="700">robust_dropout_robust position error</text>
<line x1="52" y1="274" x2="796" y2="274" stroke="#263238"/>
<line x1="52" y1="42" x2="52" y2="274" stroke="#263238"/>
<text x="52" y="306" font-family="Arial" font-size="12">time (s)</text>
<text x="630" y="306" font-family="Arial" font-size="12">m</text>

<rect x="630.7" y="42" width="165.3" height="232" fill="#fef3c7" opacity="0.72"/>
<polyline fill="none" stroke="#0f766e" stroke-width="2.3" points="52.0,46.0 53.0,45.4 54.1,44.9 55.1,44.3 56.1,43.7 57.2,53.2 58.2,52.1 59.2,45.9 60.3,43.9 61.3,42.0 62.3,51.0 63.4,49.3 64.4,47.6 65.4,45.8 66.5,63.3 67.5,59.8 68.5,61.8 69.6,64.1 70.6,66.6 71.6,69.2 72.7,243.7 73.7,244.3 74.7,245.0 75.8,245.7 76.8,246.4 77.8,243.6 78.9,244.5 79.9,236.0 80.9,235.4 82.0,234.6 83.0,231.1 84.0,230.5 85.1,229.8 86.1,229.0 87.1,244.5 88.2,237.8 89.2,239.3 90.2,241.0 91.3,242.9 92.3,244.8 93.3,257.0 94.4,236.6 95.4,238.1 96.4,239.5 97.5,240.7 98.5,247.5 99.5,249.7 100.6,246.8 101.6,249.1 102.6,251.4 103.7,253.7 104.7,256.0 105.7,258.2 106.8,260.3 107.8,261.6 108.8,254.6 109.9,257.1 110.9,259.7 111.9,262.3 113.0,265.1 114.0,244.1 115.0,245.1 116.1,246.2 117.1,247.3 118.1,248.5 119.2,257.7 120.2,259.0 121.2,223.3 122.3,221.8 123.3,220.2 124.3,217.9 125.4,216.2 126.4,214.3 127.4,212.4 128.5,223.0 129.5,224.5 130.5,223.3 131.6,222.2 132.6,221.0 133.6,219.7 134.7,242.8 135.7,274.0 136.7,273.3 137.8,272.6 138.8,271.8 139.8,270.0 140.9,269.3 141.9,262.9 142.9,261.7 144.0,260.5 145.0,252.2 146.0,251.0 147.1,249.9 148.1,248.8 149.1,231.8 150.2,235.1 151.2,233.2 152.2,231.2 153.3,229.2 154.3,227.2 155.3,230.2 156.4,124.1 157.4,122.5 158.4,120.9 159.5,119.3 160.5,119.2 161.5,117.5 162.6,116.7 163.6,115.1 164.6,113.4 165.7,107.1 166.7,105.4 167.7,103.6 168.8,101.9 169.8,122.7 170.8,122.4 171.9,122.0 172.9,121.5 173.9,121.1 175.0,120.7 176.0,85.5 177.0,85.5 178.1,85.7 179.1,85.9 180.1,86.2 181.2,86.6 182.2,86.9 183.2,75.7 184.3,75.2 185.3,74.7 186.3,81.6 187.4,81.2 188.4,80.7 189.4,80.3 190.5,91.5 191.5,96.5 192.5,96.7 193.6,96.9 194.6,97.0 195.6,97.1 196.7,122.4 197.7,123.3 198.7,124.3 199.8,125.3 200.8,126.3 201.8,127.7 202.9,128.7 203.9,122.2 204.9,122.8 206.0,123.3 207.0,124.0 208.0,124.5 209.1,124.9 210.1,125.3 211.1,112.2 212.2,111.8 213.2,111.4 214.2,111.1 215.3,110.8 216.3,110.5 217.3,91.5 218.4,51.1 219.4,49.7 220.4,48.2 221.5,46.7 222.5,44.7 223.5,43.0 224.6,58.4 225.6,57.7 226.6,56.9 227.7,56.9 228.7,56.0 229.7,55.2 230.8,54.4 231.8,69.7 232.8,70.3 233.9,70.1 234.9,69.9 235.9,69.6 237.0,69.3 238.0,67.5 239.0,73.4 240.1,73.1 241.1,72.8 242.1,72.5 243.2,74.1 244.2,73.9 245.2,89.8 246.3,90.3 247.3,90.8 248.3,91.7 249.4,92.1 250.4,92.5 251.4,92.8 252.5,111.3 253.5,114.3 254.5,115.7 255.6,117.2 256.6,118.6 257.6,119.9 258.7,145.7 259.7,146.5 260.7,147.2 261.8,147.9 262.8,148.5 263.8,149.3 264.9,150.0 265.9,172.9 266.9,174.8 268.0,176.7 269.0,178.3 270.0,180.0 271.1,181.7 272.1,183.5 273.1,196.9 274.2,198.7 275.2,201.0 276.2,203.3 277.3,205.6 278.3,208.0 279.3,189.2 280.4,194.9 281.4,196.5 282.4,198.0 283.5,199.5 284.5,200.3 285.5,201.8 286.6,194.4 287.6,195.5 288.6,196.6 289.7,197.7 290.7,198.8 291.7,199.9 292.8,201.0 293.8,204.0 294.8,205.1 295.9,206.2 296.9,207.3 297.9,208.3 299.0,209.3 300.0,240.0 301.0,240.9 302.1,241.8 303.1,242.6 304.1,243.4 305.2,244.2 306.2,245.0 307.2,225.2 308.3,224.9 309.3,224.6 310.3,221.5 311.4,221.2 312.4,220.8 313.4,220.4 314.5,204.2 315.5,203.1 316.5,201.9 317.6,200.7 318.6,199.5 319.6,198.2 320.7,228.0 321.7,227.8 322.7,227.6 323.8,227.5 324.8,227.3 325.8,227.9 326.9,227.8 327.9,221.0 328.9,220.6 330.0,220.3 331.0,216.4 332.0,216.0 333.1,215.5 334.1,214.9 335.1,197.4 336.2,194.9 337.2,193.3 338.2,191.6 339.3,189.9 340.3,188.1 341.3,183.2 342.4,112.8 343.4,110.5 344.4,108.2 345.5,105.9 346.5,106.3 347.5,104.0 348.6,126.4 349.6,125.5 350.6,124.6 351.7,127.0 352.7,126.2 353.7,125.3 354.8,124.4 355.8,142.8 356.8,139.4 357.9,139.1 358.9,138.8 359.9,138.5 361.0,138.2 362.0,155.0 363.0,155.5 364.1,156.0 365.1,156.5 366.1,157.0 367.2,159.8 368.2,160.4 369.2,138.2 370.3,137.7 371.3,137.2 372.3,138.3 373.4,137.8 374.4,137.4 375.4,136.9 376.5,137.5 377.5,135.6 378.5,135.1 379.6,134.5 380.6,134.0 381.6,133.5 382.7,138.3 383.7,137.9 384.7,137.5 385.8,137.1 386.8,136.7 387.8,136.6 388.9,136.1 389.9,132.1 390.9,131.3 392.0,130.5 393.0,130.3 394.0,129.5 395.1,128.7 396.1,127.9 397.1,138.0 398.2,138.2 399.2,138.0 400.2,137.8 401.3,137.6 402.3,137.3 403.3,141.9 404.4,141.9 405.4,141.9 406.4,141.9 407.5,141.9 408.5,141.9 409.5,141.8 410.6,139.7 411.6,139.6 412.6,139.5 413.7,138.9 414.7,138.9 415.7,138.9 416.8,138.9 417.8,139.5 418.8,139.3 419.9,139.2 420.9,139.1 421.9,139.0 423.0,139.0 424.0,140.1 425.0,140.0 426.1,139.8 427.1,139.7 428.1,139.6 429.2,140.0 430.2,139.9 431.2,131.1 432.3,130.7 433.3,130.2 434.3,130.3 435.4,129.8 436.4,129.3 437.4,128.7 438.5,102.3 439.5,100.4 440.5,98.5 441.6,96.6 442.6,94.7 443.6,92.7 444.7,106.8 445.7,105.7 446.7,104.7 447.8,103.8 448.8,102.8 449.8,101.9 450.9,100.9 451.9,121.3 452.9,121.2 454.0,121.1 455.0,120.2 456.0,120.0 457.1,119.8 458.1,119.7 459.1,109.6 460.2,107.5 461.2,107.1 462.2,106.7 463.3,106.3 464.3,105.9 465.3,100.7 466.4,101.1 467.4,101.4 468.4,101.8 469.5,102.1 470.5,102.0 471.5,102.3 472.6,102.7 473.6,103.0 474.6,103.2 475.7,104.1 476.7,104.4 477.7,104.6 478.8,104.8 479.8,79.2 480.8,79.3 481.9,78.3 482.9,77.2 483.9,76.2 485.0,75.1 486.0,79.8 487.0,85.0 488.1,84.2 489.1,83.5 490.1,82.8 491.2,83.0 492.2,82.3 493.2,103.8 494.3,104.2 495.3,104.5 496.3,104.8 497.4,105.1 498.4,105.4 499.4,105.7 500.5,101.2 501.5,101.2 502.5,101.3 503.6,101.4 504.6,101.4 505.6,101.6 506.7,145.9 507.7,146.5 508.7,147.2 509.8,147.9 510.8,148.6 511.8,148.6 512.9,149.2 513.9,138.6 514.9,138.7 516.0,138.8 517.0,138.8 518.0,138.8 519.1,138.8 520.1,138.8 521.1,119.7 522.2,118.1 523.2,117.2 524.2,116.3 525.3,115.4 526.3,114.5 527.3,173.7 528.4,172.9 529.4,172.2 530.4,171.4 531.5,170.6 532.5,169.3 533.5,168.6 534.6,168.2 535.6,167.5 536.6,166.9 537.7,167.6 538.7,167.0 539.7,166.3 540.8,165.7 541.8,187.3 542.8,188.0 543.9,188.4 544.9,188.7 545.9,189.1 547.0,189.5 548.0,186.4 549.0,186.5 550.1,186.6 551.1,186.7 552.1,186.7 553.2,187.4 554.2,187.5 555.2,172.3 556.3,171.7 557.3,171.1 558.3,170.7 559.4,170.0 560.4,169.3 561.4,168.7 562.5,176.0 563.5,176.6 564.5,176.5 565.6,176.3 566.6,176.2 567.6,176.1 568.7,192.3 569.7,175.6 570.7,176.5 571.8,177.4 572.8,178.2 573.8,179.1 574.9,179.9 575.9,178.6 576.9,179.4 578.0,180.1 579.0,180.8 580.0,181.5 581.1,182.3 582.1,183.0 583.1,198.8 584.2,200.1 585.2,201.5 586.2,202.9 587.3,204.4 588.3,205.9 589.3,210.3 590.4,207.0 591.4,208.7 592.4,210.3 593.5,212.0 594.5,213.0 595.5,214.7 596.6,204.9 597.6,206.0 598.6,207.1 599.7,210.4 600.7,211.7 601.7,212.9 602.8,214.2 603.8,193.8 604.8,193.7 605.9,193.9 606.9,194.2 607.9,194.5 609.0,194.8 610.0,194.0 611.0,193.8 612.1,194.2 613.1,194.6 614.1,194.9 615.2,195.8 616.2,196.0 617.2,171.4 618.3,170.4 619.3,169.3 620.3,168.0 621.4,166.8 622.4,165.7 623.4,164.5 624.5,163.9 625.5,162.9 626.5,161.8 627.6,160.6 628.6,159.5 629.6,158.5 630.7,156.1 631.7,157.9 632.7,157.0 633.8,156.0 634.8,155.1 635.8,153.8 636.9,152.8 637.9,147.0 638.9,145.7 640.0,144.5 641.0,143.4 642.0,142.2 643.1,140.9 644.1,139.7 645.1,154.8 646.2,152.6 647.2,152.1 648.2,151.6 649.3,151.0 650.3,150.4 651.3,136.4 652.4,92.7 653.4,91.5 654.4,90.4 655.5,89.2 656.5,91.9 657.5,90.7 658.6,118.4 659.6,118.6 660.6,118.8 661.7,118.7 662.7,118.9 663.7,119.0 664.8,119.1 665.8,123.6 666.8,116.1 667.9,116.1 668.9,116.1 669.9,116.0 671.0,115.9 672.0,83.2 673.0,57.2 674.1,55.6 675.1,54.0 676.1,52.4 677.2,47.5 678.2,45.9 679.2,70.2 680.3,69.8 681.3,69.4 682.3,72.8 683.4,72.5 684.4,72.3 685.4,72.0 686.5,67.1 687.5,71.7 688.5,71.2 689.6,70.7 690.6,70.2 691.6,69.8 692.7,80.3 693.7,79.1 694.7,77.9 695.8,76.7 696.8,75.6 697.8,78.6 698.9,77.4 699.9,78.1 700.9,76.9 702.0,75.7 703.0,79.2 704.0,77.9 705.1,76.6 706.1,75.3 707.1,93.2 708.2,90.6 709.2,90.2 710.2,89.8 711.3,89.4 712.3,89.0 713.3,181.8 714.4,181.8 715.4,181.8 716.4,181.7 717.5,181.6 718.5,183.2 719.5,183.1 720.6,198.5 721.6,199.3 722.6,200.0 723.7,193.2 724.7,193.9 725.7,194.6 726.8,195.2 727.8,164.5 728.8,174.4 729.9,173.6 730.9,172.8 731.9,172.0 733.0,171.2 734.0,191.7 735.0,139.8 736.1,140.1 737.1,140.4 738.1,140.8 739.2,142.4 740.2,142.8 741.2,165.3 742.3,166.6 743.3,167.8 744.3,171.9 745.4,173.1 746.4,174.3 747.4,175.4 748.5,162.6 749.5,178.9 750.5,179.7 751.6,180.6 752.6,181.4 753.6,182.2 754.7,173.8 755.7,128.4 756.7,128.8 757.8,129.1 758.8,129.5 759.8,126.4 760.9,126.6 761.9,119.3 762.9,119.0 764.0,118.8 765.0,118.1 766.0,117.9 767.1,117.6 768.1,117.4 769.1,104.2 770.2,102.8 771.2,101.9 772.2,101.0 773.3,100.0 774.3,99.0 775.3,115.0 776.4,136.6 777.4,135.9 778.4,135.2 779.5,134.5 780.5,144.7 781.5,144.2 782.6,140.0 783.6,139.5 784.6,139.0 785.7,131.0 786.7,130.5 787.7,129.9 788.8,129.3 789.8,115.9 790.8,116.3 791.9,115.1 792.9,113.8 793.9,112.5 795.0,111.2 796.0,73.6"/>
<text x="640" y="56" font-family="Arial" font-size="12" fill="#0f766e">robust_dropout_robust position error</text>
</svg>