<svg xmlns="http://www.w3.org/2000/svg" width="820" height="320" viewBox="0 0 820 320">
<rect width="100%" height="100%" fill="white"/>
<text x="52" y="30" font-family="Arial" font-size="18" font-weight="700">adaptive_dropout_robust position error</text>
<line x1="52" y1="274" x2="796" y2="274" stroke="#263238"/>
<line x1="52" y1="42" x2="52" y2="274" stroke="#263238"/>
<text x="52" y="306" font-family="Arial" font-size="12">time (s)</text>
<text x="630" y="306" font-family="Arial" font-size="12">m</text>

<rect x="630.7" y="42" width="165.3" height="232" fill="#fef3c7" opacity="0.72"/>
<polyline fill="none" stroke="#0f766e" stroke-width="2.3" points="52.0,62.8 53.0,62.3 54.1,61.8 55.1,61.2 56.1,60.7 57.2,51.4 58.2,50.5 59.2,45.4 60.3,43.7 61.3,42.0 62.3,54.2 63.4,52.7 64.4,51.1 65.4,49.6 66.5,66.0 67.5,74.4 68.5,76.3 69.6,78.5 70.6,80.8 71.6,83.2 72.7,253.1 73.7,253.5 74.7,254.0 75.8,254.5 76.8,255.1 77.8,250.9 78.9,251.5 79.9,241.9 80.9,241.1 82.0,240.1 83.0,235.1 84.0,234.3 85.1,233.4 86.1,232.4 87.1,252.7 88.2,244.8 89.2,246.5 90.2,248.3 91.3,250.3 92.3,252.4 93.3,265.5 94.4,250.1 95.4,251.5 96.4,252.8 97.5,254.0 98.5,259.7 99.5,261.8 100.6,260.3 101.6,262.5 102.6,264.6 103.7,266.8 104.7,268.8 105.7,270.9 106.8,272.8 107.8,272.4 108.8,265.3 109.9,267.4 110.9,269.5 111.9,271.7 113.0,274.0 114.0,258.8 115.0,259.6 116.1,260.5 117.1,261.4 118.1,262.4 119.2,271.3 120.2,272.4 121.2,237.1 122.3,235.0 123.3,232.8 124.3,230.0 125.4,227.5 126.4,225.0 127.4,222.4 128.5,239.7 129.5,240.9 130.5,239.7 131.6,238.5 132.6,237.2 133.6,235.9 134.7,259.1 135.7,245.7 136.7,245.0 137.8,244.3 138.8,243.5 139.8,241.7 140.9,241.0 141.9,233.7 142.9,232.5 144.0,231.2 145.0,224.6 146.0,223.4 147.1,222.2 148.1,220.9 149.1,210.4 150.2,212.1 151.2,210.4 152.2,208.6 153.3,206.8 154.3,204.9 155.3,207.1 156.4,115.4 157.4,114.0 158.4,112.5 159.5,111.1 160.5,110.6 161.5,109.1 162.6,107.6 163.6,106.1 164.6,104.5 165.7,98.9 166.7,97.3 167.7,95.7 168.8,94.1 169.8,128.2 170.8,128.8 171.9,129.4 172.9,130.1 173.9,130.7 175.0,131.4 176.0,98.5 177.0,99.3 178.1,100.1 179.1,101.0 180.1,102.0 181.2,102.9 182.2,103.9 183.2,94.3 184.3,94.4 185.3,94.6 186.3,101.2 187.4,101.4 188.4,101.6 189.4,101.8 190.5,107.9 191.5,112.6 192.5,113.2 193.6,113.7 194.6,114.2 195.6,114.7 196.7,149.9 197.7,151.5 198.7,153.1 199.8,154.7 200.8,156.4 201.8,158.4 202.9,160.0 203.9,151.4 204.9,152.4 206.0,153.4 207.0,154.5 208.0,155.4 209.1,156.4 210.1,157.3 211.1,142.9 212.2,142.8 213.2,142.8 214.2,142.8 215.3,142.8 216.3,142.9 217.3,124.5 218.4,84.7 219.4,83.5 220.4,82.3 221.5,81.0 222.5,79.1 223.5,77.7 224.6,90.0 225.6,89.4 226.6,88.7 227.7,89.3 228.7,88.6 229.7,88.0 230.8,87.3 231.8,99.6 232.8,100.5 233.9,100.4 234.9,100.2 235.9,100.1 237.0,99.8 238.0,98.4 239.0,104.9 240.1,104.6 241.1,104.4 242.1,104.1 243.2,106.0 244.2,105.9 245.2,129.0 246.3,130.0 247.3,130.9 248.3,132.5 249.4,133.4 250.4,134.2 251.4,135.0 252.5,148.5 253.5,152.4 254.5,154.2 255.6,156.0 256.6,157.7 257.6,159.4 258.7,180.4 259.7,181.4 260.7,182.3 261.8,183.2 262.8,184.1 263.8,185.1 264.9,186.0 265.9,205.4 266.9,207.5 268.0,209.5 269.0,211.2 270.0,213.1 271.1,215.0 272.1,216.8 273.1,227.7 274.2,229.7 275.2,232.1 276.2,234.4 277.3,236.8 278.3,239.2 279.3,220.4 280.4,223.5 281.4,225.0 282.4,226.5 283.5,228.0 284.5,228.9 285.5,230.4 286.6,222.8 287.6,223.8 288.6,224.8 289.7,225.8 290.7,226.8 291.7,227.8 292.8,228.7 293.8,231.8 294.8,232.9 295.9,233.9 296.9,234.9 297.9,235.9 299.0,236.7 300.0,267.3 301.0,268.1 302.1,268.8 303.1,269.6 304.1,270.3 305.2,271.0 306.2,271.8 307.2,253.5 308.3,253.1 309.3,252.7 310.3,249.5 311.4,249.0 312.4,248.5 313.4,248.0 314.5,234.1 315.5,233.0 316.5,231.7 317.6,230.4 318.6,229.1 319.6,227.7 320.7,258.5 321.7,258.4 322.7,258.3 323.8,258.3 324.8,258.2 325.8,259.2 326.9,259.2 327.9,251.7 328.9,251.3 330.0,251.0 331.0,245.9 332.0,245.5 333.1,245.0 334.1,244.5 335.1,225.9 336.2,223.0 337.2,221.2 338.2,219.2 339.3,217.3 340.3,215.2 341.3,214.2 342.4,107.5 343.4,105.4 344.4,103.2 345.5,100.9 346.5,100.8 347.5,98.6 348.6,116.6 349.6,115.8 350.6,115.1 351.7,116.3 352.7,115.6 353.7,114.8 354.8,114.0 355.8,127.2 356.8,125.3 357.9,125.2 358.9,125.0 359.9,124.9 361.0,124.7 362.0,133.9 363.0,134.3 364.1,134.7 365.1,135.1 366.1,135.5 367.2,137.1 368.2,137.5 369.2,122.8 370.3,122.4 371.3,122.0 372.3,122.6 373.4,122.1 374.4,121.7 375.4,121.4 376.5,121.2 377.5,120.0 378.5,119.5 379.6,119.0 380.6,118.6 381.6,118.2 382.7,120.4 383.7,120.1 384.7,119.7 385.8,119.2 386.8,118.8 387.8,118.6 388.9,118.0 389.9,115.0 390.9,114.3 392.0,113.5 393.0,113.2 394.0,112.4 395.1,111.6 396.1,110.9 397.1,120.9 398.2,121.3 399.2,121.1 400.2,120.9 401.3,120.8 402.3,120.5 403.3,123.4 404.4,123.3 405.4,123.3 406.4,123.2 407.5,123.2 408.5,123.2 409.5,123.1 410.6,121.1 411.6,120.9 412.6,120.8 413.7,120.5 414.7,120.4 415.7,120.4 416.8,120.4 417.8,118.5 418.8,118.2 419.9,118.0 420.9,117.7 421.9,117.5 423.0,117.3 424.0,119.3 425.0,119.1 426.1,118.9 427.1,118.6 428.1,118.4 429.2,118.6 430.2,118.4 431.2,108.8 432.3,108.2 433.3,107.6 434.3,107.3 435.4,106.6 436.4,106.0 437.4,105.2 438.5,70.1 439.5,67.5 440.5,64.8 441.6,62.2 442.6,59.5 443.6,56.9 444.7,76.6 445.7,75.3 446.7,74.0 447.8,72.7 448.8,71.5 449.8,70.5 450.9,69.2 451.9,89.8 452.9,89.7 454.0,89.6 455.0,88.9 456.0,88.7 457.1,88.5 458.1,88.3 459.1,77.5 460.2,75.3 461.2,74.7 462.2,74.0 463.3,73.4 464.3,72.8 465.3,69.5 466.4,70.0 467.4,70.6 468.4,71.2 469.5,71.7 470.5,71.7 471.5,72.2 472.6,71.4 473.6,71.8 474.6,72.2 475.7,73.2 476.7,73.5 477.7,73.9 478.8,74.2 479.8,52.0 480.8,51.9 481.9,50.7 482.9,49.5 483.9,48.4 485.0,47.2 486.0,52.0 487.0,67.6 488.1,66.7 489.1,66.0 490.1,65.2 491.2,65.3 492.2,64.5 493.2,83.1 494.3,83.7 495.3,84.2 496.3,84.6 497.4,85.1 498.4,85.6 499.4,86.1 500.5,81.3 501.5,81.4 502.5,81.6 503.6,81.7 504.6,81.8 505.6,82.0 506.7,142.6 507.7,143.4 508.7,144.3 509.8,145.2 510.8,146.1 511.8,146.4 512.9,147.2 513.9,136.8 514.9,136.8 516.0,136.9 517.0,136.9 518.0,136.9 519.1,136.9 520.1,136.9 521.1,121.1 522.2,118.4 523.2,117.4 524.2,116.4 525.3,115.4 526.3,114.3 527.3,171.7 528.4,170.8 529.4,170.0 530.4,169.1 531.5,168.2 532.5,166.6 533.5,165.8 534.6,164.1 535.6,163.3 536.6,162.4 537.7,162.9 538.7,162.1 539.7,161.2 540.8,160.4 541.8,180.1 542.8,181.3 543.9,181.7 544.9,182.1 545.9,182.5 547.0,182.9 548.0,185.2 549.0,185.5 550.1,185.8 551.1,186.0 552.1,186.1 553.2,186.6 554.2,186.8 555.2,174.6 556.3,174.1 557.3,173.6 558.3,173.2 559.4,172.6 560.4,172.0 561.4,171.4 562.5,178.9 563.5,179.4 564.5,179.4 565.6,179.4 566.6,179.5 567.6,179.6 568.7,192.7 569.7,173.2 570.7,174.2 571.8,175.2 572.8,176.1 573.8,177.1 574.9,178.1 575.9,176.3 576.9,177.0 578.0,177.8 579.0,178.7 580.0,179.4 581.1,180.2 582.1,181.0 583.1,196.2 584.2,197.9 585.2,199.6 586.2,201.3 587.3,203.0 588.3,204.6 589.3,206.0 590.4,201.3 591.4,203.0 592.4,204.6 593.5,206.3 594.5,206.6 595.5,208.3 596.6,196.9 597.6,197.7 598.6,198.4 599.7,203.4 600.7,204.4 601.7,205.3 602.8,206.3 603.8,187.2 604.8,187.0 605.9,186.6 606.9,186.3 607.9,186.0 609.0,185.7 610.0,188.8 611.0,188.9 612.1,189.0 613.1,189.0 614.1,189.1 615.2,189.7 616.2,189.7 617.2,161.7 618.3,159.6 619.3,157.4 620.3,155.2 621.4,152.9 622.4,150.7 623.4,148.5 624.5,151.4 625.5,149.5 626.5,147.6 627.6,145.7 628.6,143.8 629.6,142.0 630.7,141.9 631.7,144.9 632.7,143.3 633.8,141.7 634.8,140.0 635.8,138.3 636.9,136.6 637.9,133.8 638.9,132.0 640.0,130.4 641.0,128.7 642.0,127.0 643.1,125.3 644.1,123.6 645.1,133.8 646.2,132.3 647.2,131.2 648.2,130.2 649.3,129.1 650.3,128.0 651.3,120.2 652.4,102.9 653.4,101.4 654.4,99.9 655.5,98.5 656.5,98.7 657.5,97.2 658.6,123.5 659.6,123.4 660.6,123.3 661.7,122.9 662.7,122.7 663.7,122.5 664.8,122.3 665.8,127.9 666.8,123.9 667.9,123.7 668.9,123.5 669.9,123.3 671.0,123.0 672.0,92.9 673.0,75.5 674.1,73.9 675.1,72.3 676.1,70.7 677.2,66.8 678.2,65.1 679.2,93.0 680.3,92.7 681.3,92.5 682.3,94.6 683.4,94.5 684.4,94.4 685.4,94.2 686.5,88.6 687.5,91.8 688.5,91.4 689.6,91.0 690.6,90.6 691.6,90.3 692.7,101.1 693.7,99.8 694.7,98.5 695.8,97.3 696.8,96.0 697.8,97.8 698.9,96.5 699.9,99.0 700.9,97.8 702.0,96.6 703.0,98.5 704.0,97.2 705.1,95.8 706.1,94.4 707.1,113.3 708.2,111.0 709.2,110.7 710.2,110.3 711.3,110.0 712.3,109.7 713.3,206.6 714.4,206.8 715.4,207.0 716.4,207.2 717.5,207.4 718.5,208.6 719.5,208.8 720.6,221.5 721.6,222.5 722.6,223.5 723.7,217.0 724.7,217.8 725.7,218.7 726.8,219.6 727.8,190.3 728.8,199.1 729.9,198.3 730.9,197.5 731.9,196.7 733.0,195.9 734.0,214.0 735.0,150.4 736.1,150.8 737.1,151.2 738.1,151.6 739.2,152.7 740.2,153.1 741.2,179.2 742.3,181.0 743.3,182.7 744.3,186.3 745.4,188.0 746.4,189.7 747.4,191.3 748.5,176.6 749.5,189.7 750.5,190.7 751.6,191.7 752.6,192.7 753.6,193.7 754.7,188.2 755.7,137.6 756.7,138.2 757.8,138.7 758.8,139.2 759.8,136.8 760.9,137.2 761.9,121.5 762.9,120.8 764.0,120.2 765.0,118.8 766.0,118.2 767.1,117.5 768.1,116.8 769.1,109.6 770.2,107.8 771.2,106.7 772.2,105.5 773.3,104.3 774.3,103.1 775.3,118.8 776.4,139.7 777.4,139.0 778.4,138.3 779.5,137.6 780.5,145.1 781.5,144.6 782.6,140.7 783.6,140.1 784.6,139.4 785.7,132.7 786.7,132.1 787.7,131.4 788.8,130.7 789.8,119.4 790.8,119.1 791.9,117.8 792.9,116.4 793.9,114.9 795.0,113.5 796.0,85.4"/>
<text x="640" y="56" font-family="Arial" font-size="12" fill="#0f766e">adaptive_dropout_robust position error</text>
</svg>