<svg xmlns="http://www.w3.org/2000/svg" width="820" height="320" viewBox="0 0 820 320">
<rect width="100%" height="100%" fill="white"/>
<text x="52" y="30" font-family="Arial" font-size="18" font-weight="700">robust_nominal position error</text>
<line x1="52" y1="274" x2="796" y2="274" stroke="#263238"/>
<line x1="52" y1="42" x2="52" y2="274" stroke="#263238"/>
<text x="52" y="306" font-family="Arial" font-size="12">time (s)</text>
<text x="630" y="306" font-family="Arial" font-size="12">m</text>

<rect x="630.7" y="42" width="165.3" height="232" fill="#fef3c7" opacity="0.72"/>
<polyline fill="none" stroke="#0f766e" stroke-width="2.3" points="52.0,47.9 53.0,47.3 54.1,46.7 55.1,46.1 56.1,45.5 57.2,53.4 58.2,52.3 59.2,46.0 60.3,44.0 61.3,42.0 62.3,53.1 63.4,51.5 64.4,49.8 65.4,48.1 66.5,66.2 67.5,62.9 68.5,64.9 69.6,67.1 70.6,69.6 71.6,72.1 72.7,243.8 73.7,244.4 74.7,245.0 75.8,245.7 76.8,246.5 77.8,241.6 78.9,242.4 79.9,235.8 80.9,235.4 82.0,235.0 83.0,229.8 84.0,229.5 85.1,229.2 86.1,228.8 87.1,241.6 88.2,232.0 89.2,233.5 90.2,235.1 91.3,236.9 92.3,238.8 93.3,256.4 94.4,242.2 95.4,244.4 96.4,246.5 97.5,248.6 98.5,247.8 99.5,250.8 100.6,243.3 101.6,246.0 102.6,248.7 103.7,252.8 104.7,255.5 105.7,258.2 106.8,260.9 107.8,257.7 108.8,242.6 109.9,245.1 110.9,247.7 111.9,250.4 113.0,253.1 114.0,230.8 115.0,232.1 116.1,233.5 117.1,234.9 118.1,236.4 119.2,255.1 120.2,256.9 121.2,218.8 122.3,218.1 123.3,217.3 124.3,216.2 125.4,215.3 126.4,214.3 127.4,213.3 128.5,218.4 129.5,222.9 130.5,222.2 131.6,221.5 132.6,220.7 133.6,220.0 134.7,251.0 135.7,274.0 136.7,273.7 137.8,273.5 138.8,273.2 139.8,271.6 140.9,271.4 141.9,262.0 142.9,261.2 144.0,260.3 145.0,250.1 146.0,249.4 147.1,248.7 148.1,248.0 149.1,228.8 150.2,234.6 151.2,233.2 152.2,231.8 153.3,230.3 154.3,228.8 155.3,229.6 156.4,128.5 157.4,127.2 158.4,125.8 159.5,124.4 160.5,124.9 161.5,123.5 162.6,121.7 163.6,120.1 164.6,118.5 165.7,110.6 166.7,109.0 167.7,107.4 168.8,105.8 169.8,127.1 170.8,126.8 171.9,126.1 172.9,125.4 173.9,124.7 175.0,124.0 176.0,94.5 177.0,94.3 178.1,94.2 179.1,94.1 180.1,94.1 181.2,94.1 182.2,94.1 183.2,83.8 184.3,83.3 185.3,82.8 186.3,88.5 187.4,88.0 188.4,87.5 189.4,87.0 190.5,99.5 191.5,104.6 192.5,104.6 193.6,104.5 194.6,104.4 195.6,104.2 196.7,128.4 197.7,129.0 198.7,129.6 199.8,130.1 200.8,130.7 201.8,131.5 202.9,132.1 203.9,127.7 204.9,128.1 206.0,128.4 207.0,128.8 208.0,129.1 209.1,129.3 210.1,129.5 211.1,115.8 212.2,115.5 213.2,115.2 214.2,114.9 215.3,114.6 216.3,114.4 217.3,94.0 218.4,53.1 219.4,52.1 220.4,51.0 221.5,49.8 222.5,48.3 223.5,47.0 224.6,61.5 225.6,60.7 226.6,59.9 227.7,59.0 228.7,58.1 229.7,57.2 230.8,56.2 231.8,74.4 232.8,73.8 233.9,73.3 234.9,72.7 235.9,72.1 237.0,71.5 238.0,73.6 239.0,79.2 240.1,78.9 241.1,78.5 242.1,78.2 243.2,78.1 244.2,77.8 245.2,95.2 246.3,95.3 247.3,95.4 248.3,95.7 249.4,95.8 250.4,95.8 251.4,95.8 252.5,116.8 253.5,117.0 254.5,117.7 255.6,118.4 256.6,119.1 257.6,119.8 258.7,149.2 259.7,149.6 260.7,150.0 261.8,150.4 262.8,150.7 263.8,151.0 264.9,151.4 265.9,177.7 266.9,178.9 268.0,180.1 269.0,181.2 270.0,182.2 271.1,183.1 272.1,184.1 273.1,201.4 274.2,200.0 275.2,201.4 276.2,202.9 277.3,204.3 278.3,205.7 279.3,190.5 280.4,195.8 281.4,197.0 282.4,198.1 283.5,199.3 284.5,197.9 285.5,199.0 286.6,193.8 287.6,194.7 288.6,195.7 289.7,197.8 290.7,198.8 291.7,199.8 292.8,200.7 293.8,202.8 294.8,204.1 295.9,205.1 296.9,206.1 297.9,207.0 299.0,207.9 300.0,240.2 301.0,241.0 302.1,241.8 303.1,242.6 304.1,243.4 305.2,244.1 306.2,245.0 307.2,222.8 308.3,223.0 309.3,223.2 310.3,218.2 311.4,218.3 312.4,218.4 313.4,218.5 314.5,199.5 315.5,199.8 316.5,199.4 317.6,198.9 318.6,198.5 319.6,198.0 320.7,225.3 321.7,225.3 322.7,225.4 323.8,225.4 324.8,225.5 325.8,227.2 326.9,227.3 327.9,219.1 328.9,219.1 330.0,219.1 331.0,212.9 332.0,212.8 333.1,212.6 334.1,212.4 335.1,191.7 336.2,189.9 337.2,189.0 338.2,188.1 339.3,187.1 340.3,186.1 341.3,180.7 342.4,110.7 343.4,109.4 344.4,107.9 345.5,106.5 346.5,108.8 347.5,107.4 348.6,127.9 349.6,127.2 350.6,126.5 351.7,129.7 352.7,129.0 353.7,128.3 354.8,127.5 355.8,148.0 356.8,143.6 357.9,143.1 358.9,142.6 359.9,142.2 361.0,141.7 362.0,159.7 363.0,159.8 364.1,159.8 365.1,159.8 366.1,159.8 367.2,161.9 368.2,162.0 369.2,140.7 370.3,140.3 371.3,139.9 372.3,140.5 373.4,140.0 374.4,139.6 375.4,139.2 376.5,140.2 377.5,138.6 378.5,138.1 379.6,137.6 380.6,137.2 381.6,136.8 382.7,141.0 383.7,140.6 384.7,140.3 385.8,139.9 386.8,139.4 387.8,139.1 388.9,138.6 389.9,134.2 390.9,133.5 392.0,132.8 393.0,132.1 394.0,131.4 395.1,130.6 396.1,129.9 397.1,140.2 398.2,138.5 399.2,138.1 400.2,137.7 401.3,137.2 402.3,136.7 403.3,143.2 404.4,142.9 405.4,142.6 406.4,142.3 407.5,142.0 408.5,141.4 409.5,141.1 410.6,140.3 411.6,140.0 412.6,139.6 413.7,137.0 414.7,136.7 415.7,136.4 416.8,136.2 417.8,138.8 418.8,137.8 419.9,137.5 420.9,137.3 421.9,137.0 423.0,136.8 424.0,139.7 425.0,139.4 426.1,139.0 427.1,138.7 428.1,138.4 429.2,139.8 430.2,139.6 431.2,129.9 432.3,129.6 433.3,129.2 434.3,130.2 435.4,129.8 436.4,129.3 437.4,128.8 438.5,101.4 439.5,100.2 440.5,99.1 441.6,97.9 442.6,96.8 443.6,95.7 444.7,108.0 445.7,107.2 446.7,106.6 447.8,106.0 448.8,105.4 449.8,104.6 450.9,104.0 451.9,124.4 452.9,124.1 454.0,123.8 455.0,122.1 456.0,121.7 457.1,121.3 458.1,121.0 459.1,110.3 460.2,106.4 461.2,106.0 462.2,105.6 463.3,105.3 464.3,104.9 465.3,101.7 466.4,101.7 467.4,101.6 468.4,101.6 469.5,101.5 470.5,100.8 471.5,100.7 472.6,103.5 473.6,103.5 474.6,103.4 475.7,105.2 476.7,105.1 477.7,105.0 478.8,104.9 479.8,77.4 480.8,79.0 481.9,78.3 482.9,77.7 483.9,77.0 485.0,76.3 486.0,80.5 487.0,85.8 488.1,85.3 489.1,84.8 490.1,84.3 491.2,85.4 492.2,84.9 493.2,107.7 494.3,107.7 495.3,107.8 496.3,107.9 497.4,107.8 498.4,107.8 499.4,107.7 500.5,104.5 501.5,104.3 502.5,104.2 503.6,104.1 504.6,103.9 505.6,103.9 506.7,150.1 507.7,150.4 508.7,150.8 509.8,151.2 510.8,151.6 511.8,151.0 512.9,151.4 513.9,141.4 514.9,141.5 516.0,141.6 517.0,141.7 518.0,141.8 519.1,141.8 520.1,141.9 521.1,121.6 522.2,120.5 523.2,120.2 524.2,119.8 525.3,119.4 526.3,119.0 527.3,176.2 528.4,175.9 529.4,175.6 530.4,175.4 531.5,175.1 532.5,173.6 533.5,173.4 534.6,170.6 535.6,170.4 536.6,170.2 537.7,172.0 538.7,171.7 539.7,171.5 540.8,171.3 541.8,192.0 542.8,192.3 543.9,192.5 544.9,192.7 545.9,192.9 547.0,193.1 548.0,190.2 549.0,190.3 550.1,190.3 551.1,190.2 552.1,190.2 553.2,191.2 554.2,191.2 555.2,175.6 556.3,175.3 557.3,175.0 558.3,175.1 559.4,174.8 560.4,174.4 561.4,174.1 562.5,179.7 563.5,180.9 564.5,180.9 565.6,180.9 566.6,180.9 567.6,181.0 568.7,198.0 569.7,180.5 570.7,181.1 571.8,181.8 572.8,182.4 573.8,183.0 574.9,183.6 575.9,183.0 576.9,183.6 578.0,184.2 579.0,184.6 580.0,185.2 581.1,185.8 582.1,186.3 583.1,203.3 584.2,204.0 585.2,204.8 586.2,205.8 587.3,206.7 588.3,207.6 589.3,214.9 590.4,211.0 591.4,212.1 592.4,213.3 593.5,214.4 594.5,214.8 595.5,216.0 596.6,208.2 597.6,209.2 598.6,210.2 599.7,213.5 600.7,214.6 601.7,215.7 602.8,216.9 603.8,196.4 604.8,195.8 605.9,196.4 606.9,197.0 607.9,197.7 609.0,198.3 610.0,193.9 611.0,194.1 612.1,194.8 613.1,195.4 614.1,196.1 615.2,199.7 616.2,200.3 617.2,178.3 618.3,178.3 619.3,178.3 620.3,178.6 621.4,178.6 622.4,178.5 623.4,178.5 624.5,171.7 625.5,171.0 626.5,170.8 627.6,170.6 628.6,170.5 629.6,170.4 630.7,164.1 631.7,166.3 632.7,166.2 633.8,166.0 634.8,165.9 635.8,165.7 636.9,165.5 637.9,154.7 638.9,154.4 640.0,154.0 641.0,153.7 642.0,153.3 643.1,153.0 644.1,152.7 645.1,163.1 646.2,161.9 647.2,161.8 648.2,161.7 649.3,161.5 650.3,161.4 651.3,146.5 652.4,109.5 653.4,109.0 654.4,108.5 655.5,108.0 656.5,110.6 657.5,110.2 658.6,133.7 659.6,133.8 660.6,133.8 661.7,133.4 662.7,133.3 663.7,133.2 664.8,133.2 665.8,139.3 666.8,133.5 667.9,133.3 668.9,133.0 669.9,132.7 671.0,132.4 672.0,99.7 673.0,77.3 674.1,76.3 675.1,75.3 676.1,74.2 677.2,69.5 678.2,68.3 679.2,89.3 680.3,88.7 681.3,88.1 682.3,91.1 683.4,90.6 684.4,90.2 685.4,89.7 686.5,86.3 687.5,90.5 688.5,90.0 689.6,89.5 690.6,89.0 691.6,88.4 692.7,89.6 693.7,88.7 694.7,87.8 695.8,87.0 696.8,86.3 697.8,89.5 698.9,88.7 699.9,86.9 700.9,86.1 702.0,85.3 703.0,88.9 704.0,88.0 705.1,87.1 706.1,86.2 707.1,101.1 708.2,98.4 709.2,97.8 710.2,97.2 711.3,96.6 712.3,96.0 713.3,167.9 714.4,167.5 715.4,167.2 716.4,166.8 717.5,166.4 718.5,167.1 719.5,166.7 720.6,183.1 721.6,183.1 722.6,183.2 723.7,176.3 724.7,176.2 725.7,176.2 726.8,176.1 727.8,153.5 728.8,161.9 729.9,161.5 730.9,161.0 731.9,160.6 733.0,160.1 734.0,175.8 735.0,145.1 736.1,145.0 737.1,144.9 738.1,144.8 739.2,146.1 740.2,146.1 741.2,164.6 742.3,164.8 743.3,165.0 744.3,167.9 745.4,168.1 746.4,168.3 747.4,168.5 748.5,158.8 749.5,167.6 750.5,167.7 751.6,167.9 752.6,168.1 753.6,168.3 754.7,168.3 755.7,146.1 756.7,146.2 757.8,146.3 758.8,146.4 759.8,142.6 760.9,142.6 761.9,125.2 762.9,124.7 764.0,124.3 765.0,123.7 766.0,123.3 767.1,122.9 768.1,122.6 769.1,113.4 770.2,112.3 771.2,111.7 772.2,111.0 773.3,110.3 774.3,109.6 775.3,126.3 776.4,134.0 777.4,133.5 778.4,132.9 779.5,132.4 780.5,143.6 781.5,143.3 782.6,136.3 783.6,136.0 784.6,135.7 785.7,127.6 786.7,127.2 787.7,126.7 788.8,126.3 789.8,111.8 790.8,113.2 791.9,112.5 792.9,111.8 793.9,111.0 795.0,110.2 796.0,83.1"/>
<text x="640" y="56" font-family="Arial" font-size="12" fill="#0f766e">robust_nominal position error</text>
</svg>