<svg xmlns="http://www.w3.org/2000/svg" width="820" height="320" viewBox="0 0 820 320">
<rect width="100%" height="100%" fill="white"/>
<text x="52" y="30" font-family="Arial" font-size="18" font-weight="700">adaptive_nominal position error</text>
<line x1="52" y1="274" x2="796" y2="274" stroke="#263238"/>
<line x1="52" y1="42" x2="52" y2="274" stroke="#263238"/>
<text x="52" y="306" font-family="Arial" font-size="12">time (s)</text>
<text x="630" y="306" font-family="Arial" font-size="12">m</text>

<rect x="630.7" y="42" width="165.3" height="232" fill="#fef3c7" opacity="0.72"/>
<polyline fill="none" stroke="#0f766e" stroke-width="2.3" points="52.0,71.4 53.0,70.9 54.1,70.3 55.1,69.8 56.1,69.2 57.2,51.7 58.2,50.6 59.2,45.6 60.3,43.8 61.3,42.0 62.3,60.0 63.4,58.5 64.4,57.0 65.4,55.4 66.5,71.5 67.5,82.8 68.5,84.6 69.6,86.7 70.6,89.0 71.6,91.4 72.7,242.3 73.7,242.9 74.7,243.6 75.8,244.3 76.8,245.1 77.8,242.0 78.9,242.8 79.9,232.4 80.9,231.8 82.0,231.0 83.0,227.0 84.0,226.4 85.1,225.7 86.1,225.0 87.1,244.6 88.2,237.9 89.2,239.5 90.2,241.2 91.3,243.0 92.3,245.0 93.3,257.5 94.4,247.4 95.4,249.1 96.4,250.8 97.5,252.4 98.5,254.0 99.5,256.4 100.6,253.8 101.6,256.2 102.6,258.6 103.7,261.4 104.7,263.7 105.7,266.0 106.8,268.2 107.8,265.2 108.8,255.0 109.9,257.3 110.9,259.6 111.9,262.0 113.0,264.4 114.0,247.5 115.0,248.7 116.1,249.9 117.1,251.2 118.1,252.6 119.2,266.2 120.2,267.7 121.2,227.8 122.3,226.6 123.3,225.4 124.3,223.6 125.4,222.2 126.4,220.7 127.4,219.1 128.5,232.5 129.5,235.3 130.5,234.6 131.6,233.8 132.6,233.0 133.6,232.2 134.7,257.2 135.7,254.8 136.7,254.2 137.8,253.7 138.8,253.1 139.8,251.4 140.9,250.9 141.9,244.1 142.9,243.2 144.0,242.2 145.0,234.8 146.0,233.9 147.1,233.1 148.1,232.2 149.1,217.4 150.2,220.7 151.2,219.3 152.2,217.9 153.3,216.5 154.3,215.0 155.3,216.4 156.4,125.4 157.4,124.0 158.4,122.7 159.5,121.4 160.5,121.4 161.5,120.0 162.6,118.1 163.6,116.6 164.6,115.1 165.7,108.5 166.7,107.0 167.7,105.4 168.8,103.9 169.8,139.6 170.8,139.7 171.9,139.6 172.9,139.5 173.9,139.5 175.0,139.4 176.0,113.4 177.0,113.6 178.1,113.9 179.1,114.3 180.1,114.6 181.2,114.9 182.2,115.3 183.2,108.6 184.3,108.6 185.3,108.6 186.3,115.7 187.4,115.7 188.4,115.7 189.4,115.8 190.5,123.3 191.5,127.3 192.5,127.6 193.6,127.9 194.6,128.1 195.6,128.3 196.7,161.3 197.7,162.5 198.7,163.6 199.8,164.7 200.8,165.9 201.8,167.0 202.9,168.2 203.9,161.5 204.9,162.4 206.0,163.2 207.0,164.1 208.0,164.8 209.1,165.6 210.1,166.4 211.1,151.2 212.2,151.5 213.2,151.7 214.2,151.9 215.3,152.1 216.3,152.4 217.3,132.2 218.4,94.6 219.4,94.1 220.4,93.5 221.5,92.8 222.5,91.8 223.5,91.0 224.6,101.3 225.6,100.8 226.6,100.4 227.7,100.2 228.7,99.7 229.7,99.2 230.8,98.7 231.8,112.4 232.8,112.3 233.9,112.0 234.9,111.8 235.9,111.5 237.0,111.2 238.0,111.9 239.0,117.6 240.1,117.4 241.1,117.3 242.1,117.2 243.2,117.6 244.2,117.6 245.2,144.3 246.3,145.0 247.3,145.6 248.3,146.4 249.4,147.0 250.4,147.6 251.4,148.2 252.5,162.8 253.5,162.0 254.5,163.1 255.6,164.2 256.6,165.3 257.6,166.4 258.7,188.9 259.7,189.7 260.7,190.4 261.8,191.1 262.8,191.8 263.8,192.4 264.9,193.1 265.9,214.8 266.9,216.2 268.0,217.6 269.0,219.5 270.0,220.7 271.1,222.0 272.1,223.2 273.1,236.1 274.2,233.6 275.2,235.2 276.2,236.7 277.3,238.3 278.3,239.8 279.3,225.2 280.4,229.7 281.4,231.0 282.4,232.2 283.5,233.5 284.5,231.8 285.5,233.1 286.6,228.0 287.6,229.1 288.6,230.2 289.7,232.7 290.7,233.9 291.7,235.1 292.8,236.1 293.8,235.9 294.8,237.5 295.9,238.6 296.9,239.6 297.9,240.6 299.0,241.5 300.0,268.7 301.0,269.6 302.1,270.5 303.1,271.4 304.1,272.3 305.2,273.1 306.2,274.0 307.2,252.2 308.3,252.5 309.3,252.7 310.3,247.3 311.4,247.5 312.4,247.7 313.4,247.9 314.5,230.5 315.5,231.1 316.5,230.8 317.6,230.4 318.6,230.1 319.6,229.7 320.7,256.7 321.7,256.8 322.7,256.9 323.8,257.0 324.8,257.2 325.8,259.7 326.9,259.9 327.9,250.3 328.9,250.4 330.0,250.4 331.0,242.0 332.0,241.9 333.1,241.8 334.1,241.6 335.1,216.1 336.2,214.3 337.2,213.3 338.2,212.3 339.3,211.2 340.3,210.1 341.3,207.5 342.4,109.5 343.4,108.2 344.4,106.8 345.5,105.3 346.5,107.3 347.5,105.9 348.6,123.2 349.6,122.5 350.6,121.7 351.7,124.1 352.7,123.4 353.7,122.6 354.8,121.8 355.8,136.7 356.8,133.7 357.9,133.1 358.9,132.6 359.9,132.0 361.0,131.4 362.0,142.8 363.0,142.7 364.1,142.5 365.1,142.2 366.1,142.0 367.2,143.4 368.2,143.3 369.2,130.1 370.3,129.6 371.3,129.1 372.3,129.9 373.4,129.3 374.4,128.9 375.4,128.4 376.5,128.9 377.5,127.3 378.5,126.8 379.6,126.3 380.6,125.7 381.6,125.2 382.7,128.5 383.7,128.1 384.7,127.6 385.8,127.1 386.8,126.6 387.8,126.3 388.9,125.7 389.9,123.0 390.9,122.2 392.0,121.5 393.0,121.1 394.0,120.3 395.1,119.5 396.1,118.8 397.1,127.8 398.2,127.4 399.2,127.0 400.2,126.5 401.3,126.0 402.3,125.5 403.3,130.0 404.4,129.7 405.4,129.3 406.4,128.9 407.5,128.5 408.5,128.0 409.5,127.6 410.6,127.5 411.6,127.1 412.6,126.7 413.7,125.3 414.7,125.0 415.7,124.7 416.8,124.4 417.8,125.4 418.8,124.7 419.9,124.3 420.9,124.0 421.9,123.7 423.0,123.4 424.0,126.3 425.0,126.0 426.1,125.6 427.1,125.3 428.1,124.9 429.2,125.4 430.2,125.1 431.2,115.7 432.3,115.3 433.3,114.9 434.3,115.0 435.4,114.6 436.4,114.1 437.4,113.6 438.5,74.4 439.5,73.0 440.5,71.6 441.6,70.2 442.6,68.8 443.6,67.3 444.7,81.8 445.7,80.8 446.7,79.9 447.8,79.0 448.8,78.1 449.8,77.3 450.9,76.4 451.9,98.5 452.9,98.0 454.0,97.5 455.0,96.1 456.0,95.6 457.1,95.0 458.1,94.5 459.1,82.7 460.2,79.8 461.2,79.2 462.2,78.6 463.3,78.0 464.3,77.4 465.3,84.2 466.4,84.0 467.4,83.8 468.4,83.6 469.5,83.4 470.5,82.6 471.5,82.3 472.6,85.6 473.6,85.4 474.6,85.2 475.7,86.2 476.7,86.0 477.7,85.8 478.8,85.6 479.8,60.7 480.8,61.5 481.9,60.7 482.9,59.9 483.9,59.2 485.0,58.4 486.0,63.1 487.0,76.8 488.1,76.2 489.1,75.6 490.1,75.1 491.2,75.6 492.2,75.1 493.2,99.5 494.3,99.5 495.3,99.5 496.3,99.0 497.4,98.9 498.4,98.8 499.4,98.7 500.5,95.7 501.5,95.2 502.5,95.1 503.6,94.9 504.6,94.8 505.6,94.6 506.7,159.8 507.7,160.2 508.7,160.6 509.8,161.0 510.8,161.5 511.8,161.8 512.9,162.3 513.9,151.7 514.9,151.9 516.0,152.0 517.0,152.1 518.0,152.2 519.1,152.3 520.1,152.4 521.1,132.8 522.2,129.5 523.2,129.1 524.2,128.8 525.3,128.4 526.3,128.0 527.3,180.4 528.4,180.2 529.4,179.9 530.4,179.7 531.5,179.4 532.5,177.4 533.5,177.2 534.6,173.9 535.6,173.7 536.6,173.4 537.7,175.6 538.7,175.4 539.7,175.2 540.8,174.9 541.8,192.6 542.8,194.9 543.9,195.1 544.9,195.3 545.9,195.5 547.0,195.7 548.0,197.5 549.0,197.6 550.1,197.7 551.1,197.8 552.1,197.8 553.2,198.1 554.2,198.2 555.2,185.5 556.3,185.3 557.3,185.1 558.3,185.0 559.4,184.8 560.4,184.6 561.4,184.3 562.5,189.4 563.5,189.7 564.5,189.7 565.6,189.7 566.6,189.8 567.6,189.9 568.7,204.8 569.7,186.5 570.7,187.1 571.8,187.7 572.8,188.3 573.8,189.0 574.9,189.7 575.9,188.5 576.9,189.0 578.0,189.5 579.0,190.3 580.0,190.9 581.1,191.4 582.1,191.9 583.1,209.4 584.2,210.5 585.2,211.5 586.2,212.4 587.3,213.3 588.3,214.3 589.3,219.4 590.4,214.3 591.4,215.4 592.4,216.4 593.5,217.5 594.5,216.4 595.5,217.6 596.6,206.1 597.6,206.9 598.6,207.7 599.7,214.5 600.7,215.5 601.7,216.5 602.8,217.5 603.8,193.0 604.8,192.7 605.9,193.0 606.9,193.3 607.9,193.7 609.0,194.0 610.0,191.0 611.0,191.4 612.1,191.8 613.1,192.2 614.1,192.6 615.2,195.6 616.2,196.0 617.2,162.4 618.3,161.8 619.3,161.1 620.3,160.9 621.4,160.1 622.4,159.4 623.4,158.8 624.5,156.7 625.5,155.6 626.5,154.9 627.6,154.1 628.6,153.4 629.6,152.7 630.7,151.1 631.7,153.9 632.7,153.3 633.8,152.6 634.8,152.0 635.8,151.2 636.9,150.6 637.9,146.7 638.9,146.1 640.0,145.4 641.0,144.8 642.0,144.2 643.1,143.5 644.1,142.9 645.1,148.3 646.2,147.2 647.2,146.7 648.2,146.3 649.3,145.7 650.3,145.2 651.3,139.1 652.4,121.8 653.4,121.1 654.4,120.5 655.5,119.8 656.5,120.7 657.5,120.0 658.6,137.7 659.6,137.4 660.6,137.1 661.7,136.5 662.7,136.1 663.7,135.7 664.8,135.4 665.8,141.3 666.8,136.8 667.9,136.3 668.9,135.8 669.9,135.3 671.0,134.8 672.0,111.3 673.0,97.9 674.1,96.9 675.1,95.8 676.1,94.7 677.2,91.3 678.2,90.1 679.2,107.3 680.3,106.6 681.3,105.9 682.3,107.5 683.4,106.9 684.4,106.3 685.4,105.7 686.5,103.9 687.5,106.5 688.5,105.9 689.6,105.3 690.6,104.7 691.6,104.1 692.7,102.4 693.7,101.4 694.7,100.5 695.8,99.5 696.8,98.6 697.8,101.0 698.9,100.1 699.9,99.0 700.9,98.1 702.0,97.1 703.0,99.4 704.0,98.4 705.1,97.4 706.1,96.4 707.1,113.8 708.2,111.4 709.2,110.7 710.2,110.1 711.3,109.4 712.3,108.8 713.3,181.8 714.4,181.5 715.4,181.1 716.4,180.7 717.5,180.4 718.5,180.7 719.5,180.3 720.6,197.6 721.6,197.7 722.6,197.8 723.7,191.5 724.7,191.5 725.7,191.5 726.8,191.4 727.8,169.9 728.8,177.2 729.9,176.8 730.9,176.4 731.9,176.0 733.0,175.6 734.0,190.1 735.0,151.6 736.1,151.5 737.1,151.4 738.1,151.2 739.2,152.1 740.2,152.0 741.2,180.7 742.3,181.2 743.3,181.6 744.3,184.1 745.4,184.5 746.4,185.0 747.4,185.3 748.5,174.6 749.5,187.2 750.5,187.5 751.6,187.9 752.6,188.4 753.6,188.8 754.7,191.1 755.7,166.4 756.7,166.8 757.8,167.1 758.8,167.5 759.8,164.4 760.9,164.7 761.9,140.9 762.9,140.6 764.0,140.3 765.0,139.3 766.0,139.1 767.1,138.8 768.1,138.6 769.1,131.4 770.2,130.1 771.2,129.7 772.2,129.1 773.3,128.6 774.3,128.0 775.3,145.4 776.4,153.4 777.4,153.1 778.4,152.8 779.5,152.5 780.5,160.0 781.5,159.9 782.6,151.4 783.6,151.2 784.6,150.9 785.7,144.6 786.7,144.3 787.7,144.0 788.8,143.6 789.8,129.7 790.8,130.1 791.9,129.5 792.9,128.8 793.9,128.1 795.0,127.4 796.0,105.9"/>
<text x="640" y="56" font-family="Arial" font-size="12" fill="#0f766e">adaptive_nominal position error</text>
</svg>