<svg xmlns="http://www.w3.org/2000/svg" width="820" height="320" viewBox="0 0 820 320">
<rect width="100%" height="100%" fill="white"/>
<text x="52" y="30" font-family="Arial" font-size="18" font-weight="700">adaptive_nominal residuals</text>
<line x1="52" y1="274" x2="796" y2="274" stroke="#263238"/>
<line x1="52" y1="42" x2="52" y2="274" stroke="#263238"/>
<text x="52" y="306" font-family="Arial" font-size="12">time (s)</text>
<text x="630" y="306" font-family="Arial" font-size="12">norm</text>

<polyline fill="none" stroke="#0f766e" stroke-width="2.3" points="52.0,270.2 52.0,272.6 52.0,268.3 52.0,262.3 52.0,273.8 52.0,273.0 52.0,267.6 57.2,269.9 59.2,273.7 62.3,272.0 66.5,273.2 67.5,269.6 72.7,271.8 72.7,272.9 72.7,273.7 72.7,270.7 72.7,267.9 72.7,271.9 72.7,272.8 77.8,273.1 79.9,273.1 83.0,272.9 87.1,272.3 88.2,272.5 93.3,273.1 93.3,272.7 94.4,269.1 94.4,269.7 94.4,268.4 94.4,272.9 94.4,274.0 98.5,270.9 100.6,273.1 103.7,273.7 107.8,272.8 108.8,270.9 114.0,272.3 114.0,272.1 114.0,272.9 114.0,267.7 114.0,272.0 114.0,272.9 114.0,273.1 119.2,270.8 121.2,272.2 124.3,273.9 128.5,272.5 129.5,273.0 134.7,270.5 134.7,272.9 135.7,270.7 135.7,270.5 135.7,271.4 135.7,262.9 135.7,269.2 139.8,273.6 141.9,273.4 145.0,271.5 149.1,272.8 150.2,272.5 155.3,273.8 155.3,273.4 156.4,270.3 156.4,265.0 156.4,268.7 156.4,273.0 156.4,270.3 160.5,273.3 162.6,273.5 165.7,270.9 169.8,272.7 170.8,273.9 176.0,266.7 176.0,272.7 176.0,269.6 176.0,270.8 176.0,269.1 176.0,270.8 176.0,273.2 181.2,274.0 183.2,272.7 186.3,269.8 190.5,273.8 191.5,270.5 196.7,267.6 196.7,272.2 196.7,271.7 196.7,271.6 196.7,269.8 196.7,273.8 196.7,272.6 201.8,273.1 203.9,273.7 207.0,273.8 211.1,273.4 212.2,273.2 217.3,271.2 217.3,272.8 218.4,269.8 218.4,267.4 218.4,272.7 218.4,273.9 218.4,270.4 222.5,272.8 224.6,273.3 227.7,271.0 231.8,273.3 232.8,272.1 238.0,273.4 238.0,273.0 239.0,271.5 239.0,273.7 239.0,272.7 239.0,270.4 239.0,273.6 243.2,271.1 245.2,272.8 248.3,273.6 252.5,273.1 253.5,268.8 258.7,271.7 258.7,272.7 258.7,271.0 258.7,270.7 258.7,272.8 258.7,272.1 258.7,273.3 263.8,273.8 265.9,273.2 269.0,272.9 273.1,273.2 274.2,270.8 279.3,274.0 279.3,273.3 280.4,271.4 280.4,273.0 280.4,270.2 280.4,271.6 280.4,266.2 284.5,272.0 286.6,273.5 289.7,272.9 293.8,273.3 294.8,273.6 300.0,267.7 300.0,267.0 300.0,269.7 300.0,273.0 300.0,273.8 300.0,274.0 300.0,273.7 305.2,274.0 307.2,273.2 310.3,271.6 314.5,273.2 315.5,273.6 320.7,274.0 320.7,273.0 320.7,272.9 320.7,271.2 320.7,271.7 320.7,273.4 320.7,273.3 325.8,273.3 327.9,273.5 331.0,271.3 335.1,273.0 336.2,273.8 341.3,270.5 341.3,273.2 342.4,262.9 342.4,270.8 342.4,269.3 342.4,265.3 342.4,272.2 346.5,272.2 348.6,273.0 351.7,271.0 355.8,273.0 356.8,271.8 362.0,271.1 362.0,273.3 367.2,271.7 369.2,273.5 372.3,271.5 376.5,273.7 377.5,272.2 382.7,270.7 382.7,273.6 387.8,273.5 389.9,273.9 393.0,273.0 397.1,273.6 398.2,271.1 403.3,273.3 403.3,273.5 408.5,273.6 410.6,274.0 413.7,271.7 417.8,273.3 418.8,273.2 424.0,271.7 424.0,273.4 429.2,272.6 431.2,273.7 434.3,272.7 438.5,272.9 439.5,273.7 444.7,273.2 444.7,273.2 449.8,273.3 451.9,273.1 455.0,272.3 459.1,272.8 460.2,270.7 465.3,270.9 465.3,273.4 465.3,270.6 465.3,271.9 465.3,272.1 465.3,272.9 465.3,273.2 470.5,273.6 472.6,273.6 475.7,272.6 479.8,273.1 480.8,272.2 486.0,271.7 486.0,273.7 487.0,273.6 487.0,272.2 487.0,273.8 487.0,268.7 487.0,273.6 491.2,272.0 493.2,273.1 496.3,271.8 500.5,273.8 501.5,273.3 506.7,273.0 506.7,269.4 506.7,263.8 506.7,273.2 506.7,269.8 506.7,273.5 506.7,273.4 511.8,270.8 513.9,273.6 517.0,274.0 521.1,273.2 522.2,267.8 527.3,270.9 527.3,270.8 527.3,271.9 527.3,267.2 527.3,273.3 527.3,274.0 527.3,273.4 532.5,272.1 534.6,273.1 537.7,271.9 541.8,273.2 542.8,270.5 548.0,272.2 548.0,272.9 548.0,270.6 548.0,273.6 548.0,273.3 548.0,272.5 548.0,273.5 553.2,273.3 555.2,273.4 558.3,273.8 562.5,273.7 563.5,272.8 568.7,271.9 568.7,273.2 569.7,269.8 569.7,270.8 569.7,270.3 569.7,271.9 569.7,270.4 573.8,273.6 575.9,273.5 579.0,273.4 583.1,273.5 584.2,273.3 589.3,272.6 589.3,273.5 590.4,273.5 590.4,272.0 590.4,273.5 590.4,270.5 590.4,273.8 594.5,272.6 596.6,273.5 599.7,270.5 603.8,273.2 604.8,271.3 610.0,270.7 610.0,273.5 611.0,45.1 611.0,46.8 611.0,48.2 611.0,42.0 611.0,49.1 615.2,270.6 617.2,272.7 620.3,272.5 624.5,273.8 625.5,272.2 630.7,268.3 630.7,273.3 631.7,271.3 631.7,271.6 631.7,272.0 631.7,273.1 631.7,271.9 635.8,273.4 637.9,273.2 641.0,273.4 645.1,273.6 646.2,271.2 651.3,273.9 651.3,273.0 652.4,269.1 652.4,269.2 652.4,268.0 652.4,270.0 652.4,272.9 656.5,271.9 658.6,273.2 661.7,273.6 665.8,273.7 666.8,269.9 672.0,272.6 672.0,273.2 673.0,271.7 673.0,272.8 673.0,270.8 673.0,272.3 673.0,271.5 677.2,272.5 679.2,273.2 682.3,272.7 686.5,273.8 687.5,272.2 692.7,273.3 692.7,272.1 692.7,272.3 692.7,265.5 692.7,273.4 692.7,272.7 692.7,272.8 697.8,272.4 699.9,273.5 703.0,271.7 707.1,273.2 708.2,272.7 713.3,269.1 713.3,266.9 713.3,272.6 713.3,268.2 713.3,271.5 713.3,272.6 713.3,273.3 718.5,273.7 720.6,273.2 723.7,272.1 727.8,273.0 728.8,271.9 734.0,273.5 734.0,273.3 735.0,269.3 735.0,268.5 735.0,270.6 735.0,263.6 735.0,269.7 739.2,273.6 741.2,272.5 744.3,273.4 748.5,273.5 749.5,269.1 754.7,273.3 754.7,272.8 755.7,271.7 755.7,264.6 755.7,272.3 755.7,271.9 755.7,271.0 759.8,272.8 761.9,272.6 765.0,273.7 769.1,273.5 770.2,273.7 775.3,270.1 775.3,273.3 776.4,273.6 776.4,267.8 776.4,272.6 776.4,271.6 776.4,271.6 780.5,271.2 782.6,273.2 785.7,271.6 789.8,273.3 790.8,273.5 796.0,273.8 796.0,273.5 796.0,270.0 796.0,273.3 796.0,273.7 796.0,274.0 796.0,273.1"/>
<text x="640" y="56" font-family="Arial" font-size="12" fill="#0f766e">adaptive_nominal residuals</text>
</svg>