<svg xmlns="http://www.w3.org/2000/svg" width="820" height="320" viewBox="0 0 820 320">
<rect width="100%" height="100%" fill="white"/>
<text x="52" y="30" font-family="Arial" font-size="18" font-weight="700">robust_dropout_robust residuals</text>
<line x1="52" y1="274" x2="796" y2="274" stroke="#263238"/>
<line x1="52" y1="42" x2="52" y2="274" stroke="#263238"/>
<text x="52" y="306" font-family="Arial" font-size="12">time (s)</text>
<text x="630" y="306" font-family="Arial" font-size="12">norm</text>

<polyline fill="none" stroke="#0f766e" stroke-width="2.3" points="52.0,270.2 52.0,272.7 52.0,268.3 52.0,262.2 52.0,272.7 52.0,272.9 52.0,267.4 57.2,269.9 59.2,273.7 62.3,272.2 66.5,273.2 67.5,269.7 72.7,271.9 72.7,273.1 72.7,273.9 72.7,270.8 72.7,268.0 72.7,271.9 72.7,272.8 77.8,273.1 79.9,273.1 83.0,272.9 87.1,272.3 88.2,272.4 93.3,273.2 93.3,272.9 94.4,269.2 94.4,269.7 94.4,268.6 94.4,272.8 94.4,273.9 98.5,270.7 100.6,273.1 103.7,273.9 107.8,272.9 108.8,270.7 114.0,272.5 114.0,272.2 114.0,272.7 114.0,267.9 114.0,271.9 114.0,272.7 114.0,273.1 119.2,271.1 121.2,272.3 124.3,273.8 128.5,272.7 129.5,273.1 134.7,270.6 134.7,272.8 135.7,270.7 135.7,270.6 135.7,271.5 135.7,262.8 135.7,268.9 139.8,273.7 141.9,273.4 145.0,271.6 149.1,272.9 150.2,272.5 155.3,273.7 155.3,273.5 156.4,270.1 156.4,264.7 156.4,268.5 156.4,273.3 156.4,270.6 160.5,273.2 162.6,273.4 165.7,271.0 169.8,272.8 170.8,273.9 176.0,266.7 176.0,272.9 176.0,269.6 176.0,271.0 176.0,269.2 176.0,270.7 176.0,273.2 181.2,273.9 183.2,272.7 186.3,269.6 190.5,273.7 191.5,270.3 196.7,267.5 196.7,272.4 196.7,271.8 196.7,271.9 196.7,270.1 196.7,273.6 196.7,272.6 201.8,272.9 203.9,273.7 207.0,273.6 211.1,273.4 212.2,273.5 217.3,271.0 217.3,272.8 218.4,269.8 218.4,267.3 218.4,272.6 218.4,273.7 218.4,270.2 222.5,273.0 224.6,273.2 227.7,270.9 231.8,273.3 232.8,271.9 238.0,273.2 238.0,273.1 239.0,271.4 239.0,273.7 239.0,272.9 239.0,270.7 239.0,273.4 243.2,270.8 245.2,272.9 248.3,273.3 252.5,273.1 253.5,268.5 258.7,272.0 258.7,272.9 258.7,270.8 258.7,271.0 258.7,272.6 258.7,272.5 258.7,273.3 263.8,273.5 265.9,273.2 269.0,273.2 273.1,273.3 274.2,270.5 279.3,273.7 279.3,273.2 280.4,271.7 280.4,273.1 280.4,270.5 280.4,271.8 280.4,266.0 284.5,271.8 286.6,273.4 289.7,273.2 293.8,273.3 294.8,273.9 300.0,267.5 300.0,267.1 300.0,269.8 300.0,273.2 300.0,273.7 300.0,273.9 300.0,273.6 305.2,273.8 307.2,273.2 310.3,271.4 314.5,273.3 315.5,273.9 320.7,273.9 320.7,273.1 320.7,273.2 320.7,271.4 320.7,271.7 320.7,273.6 320.7,273.2 325.8,273.5 327.9,273.5 331.0,271.2 335.1,273.1 336.2,273.6 341.3,270.8 341.3,273.4 342.4,263.1 342.4,270.7 342.4,269.2 342.4,265.0 342.4,272.6 346.5,272.3 348.6,272.8 351.7,271.1 355.8,273.1 356.8,271.9 362.0,271.1 362.0,273.2 367.2,271.8 369.2,273.4 372.3,271.5 376.5,273.8 377.5,272.2 382.7,270.8 382.7,273.8 387.8,273.5 389.9,273.8 393.0,273.0 397.1,273.5 398.2,271.1 403.3,273.3 403.3,273.6 408.5,273.5 410.6,273.9 413.7,271.6 417.8,273.4 418.8,273.1 424.0,271.9 424.0,273.3 429.2,272.7 431.2,273.7 434.3,272.7 438.5,272.9 439.5,273.8 444.7,273.2 444.7,273.2 449.8,273.3 451.9,273.1 455.0,272.3 459.1,272.8 460.2,270.7 465.3,270.6 465.3,273.0 465.3,271.1 465.3,271.7 465.3,272.1 465.3,272.8 465.3,273.2 470.5,273.4 472.6,273.7 475.7,272.8 479.8,273.0 480.8,272.4 486.0,271.8 486.0,273.7 487.0,273.4 487.0,271.9 487.0,273.8 487.0,269.0 487.0,273.6 491.2,272.1 493.2,273.1 496.3,271.8 500.5,273.7 501.5,273.2 506.7,273.0 506.7,269.8 506.7,264.0 506.7,273.5 506.7,269.6 506.7,273.6 506.7,273.4 511.8,270.9 513.9,273.5 517.0,274.0 521.1,273.3 522.2,267.8 527.3,271.2 527.3,270.8 527.3,272.1 527.3,267.2 527.3,273.3 527.3,273.8 527.3,273.5 532.5,271.9 534.6,273.1 537.7,272.1 541.8,273.2 542.8,270.8 548.0,272.5 548.0,273.0 548.0,270.4 548.0,273.6 548.0,273.3 548.0,272.7 548.0,273.6 553.2,273.2 555.2,273.4 558.3,273.7 562.5,273.7 563.5,272.6 568.7,271.7 568.7,273.2 569.7,269.6 569.7,270.8 569.7,270.1 569.7,272.0 569.7,270.4 573.8,273.9 575.9,273.4 579.0,273.6 583.1,273.6 584.2,273.4 589.3,272.5 589.3,273.6 590.4,273.8 590.4,272.0 590.4,273.6 590.4,270.5 590.4,274.0 594.5,272.5 596.6,273.5 599.7,270.7 603.8,273.2 604.8,271.3 610.0,270.6 610.0,273.6 611.0,44.8 611.0,46.7 611.0,47.8 611.0,42.0 611.0,48.4 615.2,270.9 617.2,272.7 620.3,272.7 624.5,273.8 625.5,272.1 630.7,268.5 630.7,273.3 631.7,271.4 631.7,271.3 631.7,271.9 631.7,273.4 631.7,272.2 635.8,273.6 637.9,273.4 641.0,273.4 645.1,273.5 646.2,271.3 651.3,273.8 651.3,273.1 652.4,269.1 652.4,268.9 652.4,268.0 652.4,270.2 652.4,273.2 656.5,271.6 658.6,273.1 661.7,273.8 665.8,273.8 666.8,270.1 672.0,272.9 672.0,273.1 673.0,271.8 673.0,272.7 673.0,270.7 673.0,272.1 673.0,271.4 677.2,272.7 679.2,273.1 682.3,272.6 686.5,273.8 687.5,272.0 692.7,273.3 692.7,272.0 692.7,272.4 692.7,265.6 692.7,273.2 692.7,272.9 692.7,272.8 697.8,272.3 699.9,273.6 703.0,271.5 707.1,273.1 708.2,272.9 713.3,269.2 713.3,267.2 713.3,272.5 713.3,268.6 713.3,271.8 713.3,272.8 713.3,273.3 718.5,273.6 720.6,273.2 723.7,272.3 727.8,273.0 728.8,271.7 734.0,273.4 734.0,273.2 735.0,269.4 735.0,268.2 735.0,270.6 735.0,263.3 735.0,270.1 739.2,273.6 741.2,272.6 744.3,273.3 748.5,273.4 749.5,269.0 754.7,273.5 754.7,272.7 755.7,271.6 755.7,264.6 755.7,272.1 755.7,272.2 755.7,271.5 759.8,273.0 761.9,272.5 765.0,273.9 769.1,273.3 770.2,273.9 775.3,270.0 775.3,273.3 776.4,273.9 776.4,267.8 776.4,272.6 776.4,271.1 776.4,271.2 780.5,271.0 782.6,273.1 785.7,271.7 789.8,273.4 790.8,273.5 796.0,273.7 796.0,273.5 796.0,270.0 796.0,273.6 796.0,273.4 796.0,273.9 796.0,273.1"/>
<text x="640" y="56" font-family="Arial" font-size="12" fill="#0f766e">robust_dropout_robust residuals</text>
</svg>