<svg xmlns="http://www.w3.org/2000/svg" width="820" height="320" viewBox="0 0 820 320">
<rect width="100%" height="100%" fill="white"/>
<text x="52" y="30" font-family="Arial" font-size="18" font-weight="700">robust_nominal residuals</text>
<line x1="52" y1="274" x2="796" y2="274" stroke="#263238"/>
<line x1="52" y1="42" x2="52" y2="274" stroke="#263238"/>
<text x="52" y="306" font-family="Arial" font-size="12">time (s)</text>
<text x="630" y="306" font-family="Arial" font-size="12">norm</text>

<polyline fill="none" stroke="#0f766e" stroke-width="2.3" points="52.0,270.2 52.0,272.6 52.0,268.3 52.0,262.3 52.0,272.8 52.0,272.8 52.0,267.4 57.2,269.9 59.2,273.7 62.3,272.2 66.5,273.2 67.5,269.7 72.7,271.9 72.7,273.1 72.7,273.9 72.7,270.8 72.7,268.0 72.7,272.0 72.7,272.8 77.8,273.2 79.9,273.1 83.0,273.0 87.1,272.3 88.2,272.6 93.3,273.1 93.3,272.9 94.4,269.1 94.4,269.5 94.4,268.5 94.4,273.0 94.4,273.9 98.5,271.0 100.6,273.2 103.7,273.6 107.8,272.9 108.8,270.9 114.0,272.3 114.0,272.3 114.0,272.8 114.0,267.7 114.0,271.9 114.0,273.0 114.0,273.2 119.2,270.8 121.2,272.3 124.3,274.0 128.5,272.7 129.5,272.9 134.7,270.4 134.7,272.9 135.7,270.7 135.7,270.7 135.7,271.5 135.7,262.8 135.7,268.9 139.8,273.7 141.9,273.4 145.0,271.6 149.1,272.9 150.2,272.4 155.3,273.7 155.3,273.5 156.4,270.1 156.4,264.7 156.4,268.5 156.4,273.3 156.4,270.5 160.5,273.2 162.6,273.5 165.7,271.0 169.8,272.8 170.8,273.8 176.0,266.7 176.0,272.9 176.0,269.5 176.0,271.0 176.0,269.2 176.0,270.7 176.0,273.2 181.2,274.0 183.2,272.8 186.3,269.7 190.5,273.7 191.5,270.3 196.7,267.6 196.7,272.3 196.7,271.7 196.7,271.8 196.7,270.0 196.7,273.7 196.7,272.7 201.8,273.0 203.9,273.8 207.0,273.8 211.1,273.5 212.2,273.3 217.3,271.1 217.3,272.8 218.4,269.7 218.4,267.4 218.4,272.7 218.4,273.8 218.4,270.3 222.5,272.8 224.6,273.3 227.7,271.0 231.8,273.2 232.8,272.1 238.0,273.4 238.0,273.0 239.0,271.6 239.0,273.8 239.0,272.8 239.0,270.5 239.0,273.5 243.2,271.1 245.2,272.7 248.3,273.7 252.5,273.1 253.5,268.8 258.7,271.9 258.7,272.7 258.7,270.9 258.7,270.7 258.7,272.7 258.7,272.3 258.7,273.3 263.8,273.6 265.9,273.2 269.0,273.0 273.1,273.2 274.2,270.7 279.3,273.9 279.3,273.3 280.4,271.5 280.4,273.0 280.4,270.4 280.4,271.6 280.4,266.1 284.5,272.0 286.6,273.6 289.7,273.0 293.8,273.3 294.8,273.7 300.0,267.6 300.0,267.0 300.0,269.8 300.0,273.1 300.0,273.8 300.0,274.0 300.0,273.7 305.2,273.9 307.2,273.2 310.3,271.5 314.5,273.3 315.5,273.7 320.7,274.0 320.7,273.0 320.7,273.1 320.7,271.3 320.7,271.7 320.7,273.5 320.7,273.3 325.8,273.4 327.9,273.6 331.0,271.3 335.1,273.0 336.2,273.7 341.3,270.7 341.3,273.2 342.4,263.0 342.4,270.7 342.4,269.2 342.4,265.1 342.4,272.5 346.5,272.3 348.6,273.1 351.7,271.1 355.8,273.1 356.8,271.8 362.0,271.2 362.0,273.3 367.2,271.8 369.2,273.5 372.3,271.6 376.5,273.7 377.5,272.1 382.7,270.9 382.7,273.7 387.8,273.7 389.9,273.9 393.0,273.2 397.1,273.6 398.2,271.3 403.3,273.6 403.3,273.5 408.5,273.8 410.6,274.0 413.7,271.9 417.8,273.4 418.8,273.4 424.0,271.6 424.0,273.4 429.2,272.5 431.2,273.7 434.3,272.5 438.5,272.9 439.5,273.9 444.7,273.1 444.7,273.3 449.8,273.5 451.9,273.2 455.0,272.4 459.1,272.8 460.2,270.8 465.3,270.7 465.3,272.9 465.3,271.0 465.3,271.5 465.3,272.0 465.3,273.0 465.3,273.2 470.5,273.7 472.6,273.7 475.7,272.6 479.8,273.1 480.8,272.2 486.0,271.7 486.0,273.7 487.0,273.4 487.0,271.8 487.0,273.9 487.0,269.1 487.0,273.6 491.2,272.0 493.2,273.2 496.3,271.7 500.5,273.8 501.5,273.2 506.7,273.0 506.7,269.8 506.7,264.0 506.7,273.5 506.7,269.6 506.7,273.6 506.7,273.4 511.8,270.9 513.9,273.6 517.0,273.9 521.1,273.3 522.2,267.9 527.3,271.2 527.3,270.8 527.3,272.1 527.3,267.2 527.3,273.3 527.3,273.8 527.3,273.5 532.5,271.9 534.6,273.1 537.7,272.1 541.8,273.3 542.8,270.7 548.0,272.5 548.0,272.9 548.0,270.4 548.0,273.6 548.0,273.3 548.0,272.7 548.0,273.6 553.2,273.1 555.2,273.4 558.3,273.6 562.5,273.7 563.5,272.6 568.7,271.7 568.7,273.3 569.7,269.6 569.7,270.8 569.7,270.2 569.7,272.0 569.7,270.4 573.8,273.8 575.9,273.5 579.0,273.5 583.1,273.5 584.2,273.4 589.3,272.5 589.3,273.6 590.4,273.8 590.4,272.0 590.4,273.6 590.4,270.5 590.4,274.0 594.5,272.5 596.6,273.5 599.7,270.7 603.8,273.3 604.8,271.4 610.0,270.7 610.0,273.5 611.0,44.8 611.0,46.7 611.0,47.9 611.0,42.0 611.0,48.6 615.2,270.7 617.2,272.7 620.3,272.6 624.5,273.8 625.5,272.2 630.7,268.4 630.7,273.3 631.7,271.6 631.7,271.3 631.7,271.8 631.7,273.3 631.7,272.1 635.8,273.4 637.9,273.3 641.0,273.5 645.1,273.7 646.2,271.1 651.3,273.9 651.3,273.0 652.4,268.9 652.4,268.9 652.4,267.9 652.4,270.2 652.4,273.1 656.5,271.8 658.6,273.2 661.7,273.6 665.8,273.8 666.8,270.0 672.0,272.7 672.0,273.2 673.0,271.7 673.0,272.7 673.0,270.9 673.0,272.1 673.0,271.4 677.2,272.6 679.2,273.3 682.3,272.7 686.5,273.9 687.5,272.1 692.7,273.4 692.7,272.0 692.7,272.2 692.7,265.7 692.7,273.3 692.7,272.8 692.7,272.8 697.8,272.4 699.9,273.5 703.0,271.6 707.1,273.3 708.2,272.8 713.3,269.2 713.3,267.2 713.3,272.6 713.3,268.4 713.3,271.7 713.3,272.7 713.3,273.3 718.5,273.7 720.6,273.2 723.7,272.2 727.8,273.1 728.8,271.8 734.0,273.5 734.0,273.3 735.0,269.3 735.0,268.3 735.0,270.6 735.0,263.5 735.0,269.9 739.2,273.6 741.2,272.5 744.3,273.3 748.5,273.5 749.5,269.0 754.7,273.6 754.7,272.8 755.7,271.8 755.7,264.5 755.7,272.3 755.7,272.2 755.7,271.3 759.8,273.0 761.9,272.6 765.0,274.0 769.1,273.5 770.2,273.9 775.3,269.9 775.3,273.4 776.4,273.7 776.4,268.1 776.4,272.6 776.4,271.3 776.4,271.4 780.5,271.0 782.6,273.2 785.7,271.8 789.8,273.3 790.8,273.4 796.0,273.8 796.0,273.7 796.0,270.0 796.0,273.7 796.0,273.5 796.0,273.8 796.0,273.1"/>
<text x="640" y="56" font-family="Arial" font-size="12" fill="#0f766e">robust_nominal residuals</text>
</svg>