<svg xmlns="http://www.w3.org/2000/svg" width="820" height="320" viewBox="0 0 820 320">
<rect width="100%" height="100%" fill="white"/>
<text x="52" y="30" font-family="Arial" font-size="18" font-weight="700">ekf_dropout_robust residuals</text>
<line x1="52" y1="274" x2="796" y2="274" stroke="#263238"/>
<line x1="52" y1="42" x2="52" y2="274" stroke="#263238"/>
<text x="52" y="306" font-family="Arial" font-size="12">time (s)</text>
<text x="630" y="306" font-family="Arial" font-size="12">norm</text>

<polyline fill="none" stroke="#0f766e" stroke-width="2.3" points="52.0,270.2 52.0,272.6 52.0,268.3 52.0,262.2 52.0,273.6 52.0,273.1 52.0,267.5 57.2,269.9 59.2,273.7 62.3,272.3 66.5,273.2 67.5,269.7 72.7,271.8 72.7,272.9 72.7,273.8 72.7,270.7 72.7,267.9 72.7,271.9 72.7,272.8 77.8,273.0 79.9,273.1 83.0,272.9 87.1,272.3 88.2,272.4 93.3,273.2 93.3,272.7 94.4,269.2 94.4,269.8 94.4,268.5 94.4,272.8 94.4,274.0 98.5,270.7 100.6,273.1 103.7,273.9 107.8,272.8 108.8,270.7 114.0,272.5 114.0,272.0 114.0,272.8 114.0,267.8 114.0,271.9 114.0,272.7 114.0,273.1 119.2,271.1 121.2,272.3 124.3,273.7 128.5,272.5 129.5,273.1 134.7,270.6 134.7,272.8 135.7,270.6 135.7,270.4 135.7,271.4 135.7,262.9 135.7,269.2 139.8,273.5 141.9,273.4 145.0,271.4 149.1,272.8 150.2,272.7 155.3,273.8 155.3,273.5 156.4,270.2 156.4,265.0 156.4,268.7 156.4,272.9 156.4,270.3 160.5,273.3 162.6,273.4 165.7,270.8 169.8,272.7 170.8,274.0 176.0,266.6 176.0,272.7 176.0,269.6 176.0,270.8 176.0,269.1 176.0,270.8 176.0,273.3 181.2,274.0 183.2,272.7 186.3,269.7 190.5,273.8 191.5,270.3 196.7,267.4 196.7,272.3 196.7,271.7 196.7,271.7 196.7,269.8 196.7,273.7 196.7,272.6 201.8,273.0 203.9,273.6 207.0,273.7 211.1,273.3 212.2,273.4 217.3,271.1 217.3,272.8 218.4,269.9 218.4,267.3 218.4,272.6 218.4,273.7 218.4,270.3 222.5,273.0 224.6,273.2 227.7,270.8 231.8,273.3 232.8,271.9 238.0,273.1 238.0,273.1 239.0,271.3 239.0,273.6 239.0,272.8 239.0,270.6 239.0,273.5 243.2,270.8 245.2,272.9 248.3,273.3 252.5,273.1 253.5,268.5 258.7,272.0 258.7,273.0 258.7,270.9 258.7,271.0 258.7,272.6 258.7,272.5 258.7,273.2 263.8,273.5 265.9,273.1 269.0,273.2 273.1,273.3 274.2,270.5 279.3,273.7 279.3,273.2 280.4,271.6 280.4,273.2 280.4,270.4 280.4,271.8 280.4,266.0 284.5,271.8 286.6,273.4 289.7,273.2 293.8,273.3 294.8,273.9 300.0,267.5 300.0,267.1 300.0,269.8 300.0,273.2 300.0,273.7 300.0,273.8 300.0,273.5 305.2,273.8 307.2,273.2 310.3,271.4 314.5,273.3 315.5,273.9 320.7,273.8 320.7,273.1 320.7,273.1 320.7,271.4 320.7,271.7 320.7,273.6 320.7,273.2 325.8,273.5 327.9,273.5 331.0,271.1 335.1,273.0 336.2,273.6 341.3,270.8 341.3,273.4 342.4,263.0 342.4,270.6 342.4,269.2 342.4,265.1 342.4,272.4 346.5,272.3 348.6,272.8 351.7,271.2 355.8,273.1 356.8,271.7 362.0,271.1 362.0,273.2 367.2,271.8 369.2,273.3 372.3,271.6 376.5,273.8 377.5,272.1 382.7,270.8 382.7,273.7 387.8,273.6 389.9,273.8 393.0,273.1 397.1,273.5 398.2,271.2 403.3,273.4 403.3,273.6 408.5,273.6 410.6,273.9 413.7,271.7 417.8,273.4 418.8,273.1 424.0,271.8 424.0,273.3 429.2,272.6 431.2,273.7 434.3,272.6 438.5,272.9 439.5,273.8 444.7,273.1 444.7,273.1 449.8,273.4 451.9,273.1 455.0,272.3 459.1,272.7 460.2,270.7 465.3,270.7 465.3,273.1 465.3,271.0 465.3,271.7 465.3,272.0 465.3,272.8 465.3,273.3 470.5,273.4 472.6,273.6 475.7,272.8 479.8,273.0 480.8,272.3 486.0,271.8 486.0,273.6 487.0,273.4 487.0,271.9 487.0,273.9 487.0,268.9 487.0,273.6 491.2,272.0 493.2,273.0 496.3,271.7 500.5,273.7 501.5,273.1 506.7,273.0 506.7,269.7 506.7,263.9 506.7,273.4 506.7,269.7 506.7,273.6 506.7,273.4 511.8,270.9 513.9,273.5 517.0,274.0 521.1,273.3 522.2,267.8 527.3,271.1 527.3,270.8 527.3,272.0 527.3,267.2 527.3,273.3 527.3,273.9 527.3,273.5 532.5,271.9 534.6,273.0 537.7,272.0 541.8,273.2 542.8,270.6 548.0,272.4 548.0,273.0 548.0,270.4 548.0,273.6 548.0,273.3 548.0,272.6 548.0,273.6 553.2,273.2 555.2,273.3 558.3,273.7 562.5,273.7 563.5,272.7 568.7,271.8 568.7,273.2 569.7,269.6 569.7,270.8 569.7,270.1 569.7,271.9 569.7,270.4 573.8,273.8 575.9,273.4 579.0,273.5 583.1,273.5 584.2,273.3 589.3,272.5 589.3,273.6 590.4,273.7 590.4,272.1 590.4,273.6 590.4,270.5 590.4,273.9 594.5,272.5 596.6,273.5 599.7,270.7 603.8,273.1 604.8,271.3 610.0,270.5 610.0,273.5 611.0,44.9 611.0,46.7 611.0,47.8 611.0,42.0 611.0,48.5 615.2,270.9 617.2,272.7 620.3,272.7 624.5,273.7 625.5,272.1 630.7,268.5 630.7,273.3 631.7,271.2 631.7,271.3 631.7,272.0 631.7,273.3 631.7,272.1 635.8,273.6 637.9,273.4 641.0,273.3 645.1,273.5 646.2,271.3 651.3,273.7 651.3,273.0 652.4,269.2 652.4,269.0 652.4,268.1 652.4,270.1 652.4,273.1 656.5,271.6 658.6,273.0 661.7,273.8 665.8,273.8 666.8,270.1 672.0,272.9 672.0,273.1 673.0,271.9 673.0,272.7 673.0,270.6 673.0,272.1 673.0,271.5 677.2,272.7 679.2,273.1 682.3,272.5 686.5,273.8 687.5,272.0 692.7,273.1 692.7,272.0 692.7,272.4 692.7,265.5 692.7,273.2 692.7,273.0 692.7,272.8 697.8,272.3 699.9,273.5 703.0,271.5 707.1,273.1 708.2,272.9 713.3,269.1 713.3,267.1 713.3,272.6 713.3,268.4 713.3,271.7 713.3,272.8 713.3,273.2 718.5,273.6 720.6,273.2 723.7,272.3 727.8,273.0 728.8,271.7 734.0,273.3 734.0,273.2 735.0,269.3 735.0,268.2 735.0,270.7 735.0,263.4 735.0,269.9 739.2,273.6 741.2,272.5 744.3,273.3 748.5,273.3 749.5,269.0 754.7,273.4 754.7,272.7 755.7,271.7 755.7,264.7 755.7,271.9 755.7,272.0 755.7,271.4 759.8,272.9 761.9,272.5 765.0,273.8 769.1,273.3 770.2,273.8 775.3,270.0 775.3,273.3 776.4,273.7 776.4,267.6 776.4,272.8 776.4,271.4 776.4,271.3 780.5,271.0 782.6,273.1 785.7,271.7 789.8,273.3 790.8,273.5 796.0,273.9 796.0,273.3 796.0,270.2 796.0,273.4 796.0,273.5 796.0,273.9 796.0,273.1"/>
<text x="640" y="56" font-family="Arial" font-size="12" fill="#0f766e">ekf_dropout_robust residuals</text>
</svg>