<svg xmlns="http://www.w3.org/2000/svg" width="820" height="320" viewBox="0 0 820 320">
<rect width="100%" height="100%" fill="white"/>
<text x="52" y="30" font-family="Arial" font-size="18" font-weight="700">adaptive_dropout_robust residuals</text>
<line x1="52" y1="274" x2="796" y2="274" stroke="#263238"/>
<line x1="52" y1="42" x2="52" y2="274" stroke="#263238"/>
<text x="52" y="306" font-family="Arial" font-size="12">time (s)</text>
<text x="630" y="306" font-family="Arial" font-size="12">norm</text>

<polyline fill="none" stroke="#0f766e" stroke-width="2.3" points="52.0,270.2 52.0,272.6 52.0,268.3 52.0,262.2 52.0,273.6 52.0,273.1 52.0,267.5 57.2,269.9 59.2,273.7 62.3,272.3 66.5,273.2 67.5,269.7 72.7,271.8 72.7,272.9 72.7,273.8 72.7,270.7 72.7,267.8 72.7,271.9 72.7,272.8 77.8,273.0 79.9,273.2 83.0,272.9 87.1,272.2 88.2,272.5 93.3,273.1 93.3,272.7 94.4,269.1 94.4,269.7 94.4,268.5 94.4,272.8 94.4,273.9 98.5,270.7 100.6,273.1 103.7,273.9 107.8,272.8 108.8,270.7 114.0,272.5 114.0,272.2 114.0,272.7 114.0,267.8 114.0,271.9 114.0,272.8 114.0,273.1 119.2,271.0 121.2,272.3 124.3,273.8 128.5,272.4 129.5,273.1 134.7,270.6 134.7,272.8 135.7,270.6 135.7,270.5 135.7,271.5 135.7,262.9 135.7,269.3 139.8,273.5 141.9,273.4 145.0,271.4 149.1,272.8 150.2,272.6 155.3,273.8 155.3,273.5 156.4,270.2 156.4,264.9 156.4,268.7 156.4,272.9 156.4,270.2 160.5,273.3 162.6,273.4 165.7,270.8 169.8,272.7 170.8,274.0 176.0,266.7 176.0,272.7 176.0,269.6 176.0,270.8 176.0,269.0 176.0,270.8 176.0,273.3 181.2,274.0 183.2,272.6 186.3,269.7 190.5,273.7 191.5,270.3 196.7,267.4 196.7,272.3 196.7,271.8 196.7,271.7 196.7,269.8 196.7,273.7 196.7,272.6 201.8,273.0 203.9,273.6 207.0,273.7 211.1,273.3 212.2,273.4 217.3,271.1 217.3,272.8 218.4,269.9 218.4,267.3 218.4,272.6 218.4,273.8 218.4,270.3 222.5,273.0 224.6,273.1 227.7,270.8 231.8,273.3 232.8,271.9 238.0,273.1 238.0,273.1 239.0,271.3 239.0,273.6 239.0,272.9 239.0,270.6 239.0,273.5 243.2,270.8 245.2,272.9 248.3,273.3 252.5,273.1 253.5,268.5 258.7,272.0 258.7,273.0 258.7,270.8 258.7,271.0 258.7,272.6 258.7,272.5 258.7,273.2 263.8,273.5 265.9,273.1 269.0,273.2 273.1,273.3 274.2,270.5 279.3,273.7 279.3,273.2 280.4,271.7 280.4,273.1 280.4,270.4 280.4,271.8 280.4,266.0 284.5,271.7 286.6,273.4 289.7,273.2 293.8,273.3 294.8,273.9 300.0,267.5 300.0,267.1 300.0,269.7 300.0,273.1 300.0,273.7 300.0,273.8 300.0,273.5 305.2,273.8 307.2,273.2 310.3,271.4 314.5,273.3 315.5,273.8 320.7,273.8 320.7,273.1 320.7,273.1 320.7,271.4 320.7,271.7 320.7,273.6 320.7,273.1 325.8,273.4 327.9,273.5 331.0,271.1 335.1,273.0 336.2,273.6 341.3,270.7 341.3,273.4 342.4,263.0 342.4,270.7 342.4,269.3 342.4,265.3 342.4,272.2 346.5,272.3 348.6,272.7 351.7,271.1 355.8,273.1 356.8,271.8 362.0,271.1 362.0,273.2 367.2,271.7 369.2,273.3 372.3,271.5 376.5,273.8 377.5,272.2 382.7,270.7 382.7,273.7 387.8,273.4 389.9,273.8 393.0,272.9 397.1,273.5 398.2,271.0 403.3,273.2 403.3,273.6 408.5,273.4 410.6,273.9 413.7,271.5 417.8,273.4 418.8,273.0 424.0,272.0 424.0,273.3 429.2,272.7 431.2,273.7 434.3,272.7 438.5,272.9 439.5,273.6 444.7,273.3 444.7,273.0 449.8,273.2 451.9,273.0 455.0,272.2 459.1,272.7 460.2,270.6 465.3,270.9 465.3,273.4 465.3,270.7 465.3,272.0 465.3,272.3 465.3,272.8 465.3,273.3 470.5,273.4 472.6,273.6 475.7,272.8 479.8,273.0 480.8,272.4 486.0,271.8 486.0,273.6 487.0,273.7 487.0,272.2 487.0,273.9 487.0,268.6 487.0,273.8 491.2,272.1 493.2,273.0 496.3,271.8 500.5,273.7 501.5,273.2 506.7,273.2 506.7,269.5 506.7,263.8 506.7,273.2 506.7,269.9 506.7,273.5 506.7,273.4 511.8,270.8 513.9,273.4 517.0,274.0 521.1,273.3 522.2,267.8 527.3,270.9 527.3,270.8 527.3,272.1 527.3,267.0 527.3,273.6 527.3,273.8 527.3,273.5 532.5,271.9 534.6,273.0 537.7,272.1 541.8,273.1 542.8,270.7 548.0,272.2 548.0,273.0 548.0,270.4 548.0,273.5 548.0,273.6 548.0,272.6 548.0,273.6 553.2,273.2 555.2,273.3 558.3,273.7 562.5,273.7 563.5,272.7 568.7,271.8 568.7,273.2 569.7,269.8 569.7,270.8 569.7,270.1 569.7,271.8 569.7,270.6 573.8,273.8 575.9,273.4 579.0,273.5 583.1,273.5 584.2,273.3 589.3,272.6 589.3,273.6 590.4,273.5 590.4,272.1 590.4,273.6 590.4,270.6 590.4,273.7 594.5,272.5 596.6,273.5 599.7,270.6 603.8,273.1 604.8,271.3 610.0,270.6 610.0,273.5 611.0,45.2 611.0,46.9 611.0,48.0 611.0,42.0 611.0,49.0 615.2,270.8 617.2,272.8 620.3,272.6 624.5,273.7 625.5,272.2 630.7,268.4 630.7,273.3 631.7,271.2 631.7,271.5 631.7,271.9 631.7,273.1 631.7,271.8 635.8,273.5 637.9,273.3 641.0,273.4 645.1,273.4 646.2,271.2 651.3,273.9 651.3,273.0 652.4,269.2 652.4,269.1 652.4,267.9 652.4,269.9 652.4,272.7 656.5,271.8 658.6,273.0 661.7,273.7 665.8,273.7 666.8,270.0 672.0,272.7 672.0,273.1 673.0,271.9 673.0,272.7 673.0,270.9 673.0,272.3 673.0,271.8 677.2,272.5 679.2,273.1 682.3,272.7 686.5,273.8 687.5,272.2 692.7,273.2 692.7,272.0 692.7,272.2 692.7,265.4 692.7,273.4 692.7,272.8 692.7,272.8 697.8,272.5 699.9,273.6 703.0,271.7 707.1,273.0 708.2,272.7 713.3,269.2 713.3,267.1 713.3,272.3 713.3,268.3 713.3,271.6 713.3,272.6 713.3,273.2 718.5,273.7 720.6,273.2 723.7,272.1 727.8,273.0 728.8,271.8 734.0,273.4 734.0,273.1 735.0,269.4 735.0,268.2 735.0,270.5 735.0,263.4 735.0,269.8 739.2,273.7 741.2,272.5 744.3,273.4 748.5,273.3 749.5,269.1 754.7,273.3 754.7,272.7 755.7,271.6 755.7,264.7 755.7,272.0 755.7,271.9 755.7,271.3 759.8,272.8 761.9,272.4 765.0,273.7 769.1,273.3 770.2,273.7 775.3,270.1 775.3,273.3 776.4,273.7 776.4,267.6 776.4,272.7 776.4,271.4 776.4,271.4 780.5,271.1 782.6,273.1 785.7,271.6 789.8,273.4 790.8,273.5 796.0,273.8 796.0,273.3 796.0,270.1 796.0,273.3 796.0,273.5 796.0,274.0 796.0,273.1"/>
<text x="640" y="56" font-family="Arial" font-size="12" fill="#0f766e">adaptive_dropout_robust residuals</text>
</svg>