<svg xmlns="http://www.w3.org/2000/svg" width="820" height="320" viewBox="0 0 820 320">
<rect width="100%" height="100%" fill="white"/>
<text x="52" y="30" font-family="Arial" font-size="18" font-weight="700">adaptive_nominal velocity error</text>
<line x1="52" y1="274" x2="796" y2="274" stroke="#263238"/>
<line x1="52" y1="42" x2="52" y2="274" stroke="#263238"/>
<text x="52" y="306" font-family="Arial" font-size="12">time (s)</text>
<text x="630" y="306" font-family="Arial" font-size="12">m/s</text>

<rect x="630.7" y="42" width="165.3" height="232" fill="#fef3c7" opacity="0.72"/>
<polyline fill="none" stroke="#0f766e" stroke-width="2.3" points="52.0,216.3 53.0,219.1 54.1,221.5 55.1,223.0 56.1,224.8 57.2,219.1 58.2,223.0 59.2,173.7 60.3,171.4 61.3,171.9 62.3,172.2 63.4,167.7 64.4,167.1 65.4,169.3 66.5,141.9 67.5,141.9 68.5,130.5 69.6,123.3 70.6,115.8 71.6,106.7 72.7,242.4 73.7,238.2 74.7,236.9 75.8,234.4 76.8,231.0 77.8,230.1 78.9,227.1 79.9,137.7 80.9,128.9 82.0,120.6 83.0,114.8 84.0,106.0 85.1,97.2 86.1,85.4 87.1,207.7 88.2,204.5 89.2,196.4 90.2,189.6 91.3,184.1 92.3,177.8 93.3,76.7 94.4,67.9 95.4,59.3 96.4,53.8 97.5,45.2 98.5,50.2 99.5,42.0 100.6,117.3 101.6,111.6 102.6,107.8 103.7,102.3 104.7,95.0 105.7,89.1 106.8,80.8 107.8,161.7 108.8,164.1 109.9,161.0 110.9,155.7 111.9,152.7 113.0,151.4 114.0,220.3 115.0,222.7 116.1,215.8 117.1,213.9 118.1,210.6 119.2,193.8 120.2,191.2 121.2,176.1 122.3,172.9 123.3,169.3 124.3,166.5 125.4,161.8 126.4,159.2 127.4,154.8 128.5,247.6 129.5,250.1 130.5,245.3 131.6,243.5 132.6,242.3 133.6,243.2 134.7,210.6 135.7,202.3 136.7,199.5 137.8,199.9 138.8,195.8 139.8,193.6 140.9,192.8 141.9,179.8 142.9,175.8 144.0,175.2 145.0,181.9 146.0,182.7 147.1,181.7 148.1,179.4 149.1,205.0 150.2,202.8 151.2,201.9 152.2,200.3 153.3,196.7 154.3,196.1 155.3,208.8 156.4,205.0 157.4,205.3 158.4,205.4 159.5,207.7 160.5,204.6 161.5,202.8 162.6,201.4 163.6,197.1 164.6,196.8 165.7,201.4 166.7,202.2 167.7,200.5 168.8,201.4 169.8,261.0 170.8,262.7 171.9,263.6 172.9,262.3 173.9,263.7 175.0,265.1 176.0,257.3 177.0,255.2 178.1,255.7 179.1,255.0 180.1,254.9 181.2,254.9 182.2,254.6 183.2,204.7 184.3,204.3 185.3,203.8 186.3,208.0 187.4,208.2 188.4,206.7 189.4,207.0 190.5,203.9 191.5,200.8 192.5,199.4 193.6,197.7 194.6,197.4 195.6,197.5 196.7,226.6 197.7,224.5 198.7,226.1 199.8,225.6 200.8,224.4 201.8,222.1 202.9,222.2 203.9,240.3 204.9,239.2 206.0,242.4 207.0,240.9 208.0,243.5 209.1,244.0 210.1,244.5 211.1,258.0 212.2,263.6 213.2,263.7 214.2,263.6 215.3,264.6 216.3,264.8 217.3,250.4 218.4,247.4 219.4,247.1 220.4,242.7 221.5,238.7 222.5,234.1 223.5,230.5 224.6,235.3 225.6,234.8 226.6,236.1 227.7,239.2 228.7,237.7 229.7,238.2 230.8,236.0 231.8,218.3 232.8,219.5 233.9,217.3 234.9,215.4 235.9,214.1 237.0,212.6 238.0,207.6 239.0,210.1 240.1,207.9 241.1,205.4 242.1,204.7 243.2,215.1 244.2,212.5 245.2,187.6 246.3,189.8 247.3,191.1 248.3,188.8 249.4,186.4 250.4,187.0 251.4,187.2 252.5,200.0 253.5,212.0 254.5,212.7 255.6,211.9 256.6,210.8 257.6,211.5 258.7,216.2 259.7,215.4 260.7,215.5 261.8,218.4 262.8,216.6 263.8,214.4 264.9,215.0 265.9,205.6 266.9,204.0 268.0,204.4 269.0,206.9 270.0,207.0 271.1,206.4 272.1,204.7 273.1,201.8 274.2,204.4 275.2,205.1 276.2,208.3 277.3,205.1 278.3,204.7 279.3,214.4 280.4,215.4 281.4,219.4 282.4,219.3 283.5,217.7 284.5,220.4 285.5,218.3 286.6,226.0 287.6,228.5 288.6,225.1 289.7,223.1 290.7,221.3 291.7,226.0 292.8,226.8 293.8,230.0 294.8,229.7 295.9,231.0 296.9,230.5 297.9,233.3 299.0,236.4 300.0,233.7 301.0,234.3 302.1,235.5 303.1,237.0 304.1,234.3 305.2,234.5 306.2,235.6 307.2,265.6 308.3,268.3 309.3,268.2 310.3,263.1 311.4,261.4 312.4,260.8 313.4,260.8 314.5,263.7 315.5,262.9 316.5,258.5 317.6,259.6 318.6,258.9 319.6,260.5 320.7,246.8 321.7,247.7 322.7,248.0 323.8,248.2 324.8,248.5 325.8,249.5 326.9,251.3 327.9,270.7 328.9,270.9 330.0,268.1 331.0,259.1 332.0,260.3 333.1,262.2 334.1,263.6 335.1,212.3 336.2,212.8 337.2,212.4 338.2,207.9 339.3,205.7 340.3,207.5 341.3,195.0 342.4,194.1 343.4,192.1 344.4,191.4 345.5,189.6 346.5,194.5 347.5,195.4 348.6,230.9 349.6,234.6 350.6,236.4 351.7,238.0 352.7,236.2 353.7,235.8 354.8,234.7 355.8,246.2 356.8,238.9 357.9,234.7 358.9,235.0 359.9,234.3 361.0,232.7 362.0,260.5 363.0,260.2 364.1,257.8 365.1,257.3 366.1,259.9 367.2,263.7 368.2,264.9 369.2,254.0 370.3,253.9 371.3,254.9 372.3,252.3 373.4,253.9 374.4,256.5 375.4,255.0 376.5,254.2 377.5,249.4 378.5,251.5 379.6,250.6 380.6,252.5 381.6,251.3 382.7,260.0 383.7,257.7 384.7,257.7 385.8,256.7 386.8,256.6 387.8,253.3 388.9,253.0 389.9,247.1 390.9,244.3 392.0,246.5 393.0,245.7 394.0,245.1 395.1,245.6 396.1,248.4 397.1,257.6 398.2,254.6 399.2,255.1 400.2,256.3 401.3,252.6 402.3,253.2 403.3,258.2 404.4,258.4 405.4,257.7 406.4,256.5 407.5,255.3 408.5,255.4 409.5,253.3 410.6,251.3 411.6,251.1 412.6,250.7 413.7,244.7 414.7,244.6 415.7,245.9 416.8,245.4 417.8,243.3 418.8,244.5 419.9,243.3 420.9,245.5 421.9,246.1 423.0,242.7 424.0,237.2 425.0,233.8 426.1,230.6 427.1,229.7 428.1,229.6 429.2,231.3 430.2,235.3 431.2,227.4 432.3,229.6 433.3,229.7 434.3,234.7 435.4,234.8 436.4,232.1 437.4,228.9 438.5,193.4 439.5,192.7 440.5,191.6 441.6,190.4 442.6,191.1 443.6,190.5 444.7,219.9 445.7,220.8 446.7,222.0 447.8,221.6 448.8,224.0 449.8,223.1 450.9,222.7 451.9,216.6 452.9,218.9 454.0,217.7 455.0,213.4 456.0,215.0 457.1,215.3 458.1,215.2 459.1,247.0 460.2,245.7 461.2,247.3 462.2,247.3 463.3,248.3 464.3,246.8 465.3,265.0 466.4,265.3 467.4,265.6 468.4,266.5 469.5,264.5 470.5,264.0 471.5,264.7 472.6,274.0 473.6,272.8 474.6,271.7 475.7,270.3 476.7,270.7 477.7,268.6 478.8,271.1 479.8,240.3 480.8,239.4 481.9,235.8 482.9,236.0 483.9,235.2 485.0,235.2 486.0,244.7 487.0,245.6 488.1,249.8 489.1,250.0 490.1,249.5 491.2,251.1 492.2,248.8 493.2,258.0 494.3,258.8 495.3,259.4 496.3,246.8 497.4,248.2 498.4,247.7 499.4,247.6 500.5,256.9 501.5,253.1 502.5,250.9 503.6,249.9 504.6,249.6 505.6,252.5 506.7,253.9 507.7,250.7 508.7,248.3 509.8,245.9 510.8,247.3 511.8,248.4 512.9,249.9 513.9,259.6 514.9,260.6 516.0,260.9 517.0,263.2 518.0,262.4 519.1,261.3 520.1,262.7 521.1,243.5 522.2,249.7 523.2,249.7 524.2,249.9 525.3,250.2 526.3,248.9 527.3,257.8 528.4,256.7 529.4,258.2 530.4,256.6 531.5,256.8 532.5,260.8 533.5,261.7 534.6,264.9 535.6,264.6 536.6,265.1 537.7,269.4 538.7,268.8 539.7,269.7 540.8,271.7 541.8,264.7 542.8,256.5 543.9,256.5 544.9,258.2 545.9,257.3 547.0,258.8 548.0,241.0 549.0,240.9 550.1,236.5 551.1,238.5 552.1,236.4 553.2,239.5 554.2,238.6 555.2,233.3 556.3,234.0 557.3,233.5 558.3,233.7 559.4,234.5 560.4,234.0 561.4,233.7 562.5,234.7 563.5,240.4 564.5,239.2 565.6,238.6 566.6,239.0 567.6,240.4 568.7,242.3 569.7,246.1 570.7,245.4 571.8,244.3 572.8,245.2 573.8,241.6 574.9,244.4 575.9,253.1 576.9,255.5 578.0,255.5 579.0,254.9 580.0,253.4 581.1,254.5 582.1,255.6 583.1,236.2 584.2,236.2 585.2,234.9 586.2,233.6 587.3,233.1 588.3,234.3 589.3,228.0 590.4,226.9 591.4,228.2 592.4,228.5 593.5,224.7 594.5,221.1 595.5,222.4 596.6,226.3 597.6,225.7 598.6,224.8 599.7,230.4 600.7,230.7 601.7,230.3 602.8,227.4 603.8,262.7 604.8,260.2 605.9,261.1 606.9,259.1 607.9,257.8 609.0,257.4 610.0,251.6 611.0,252.8 612.1,251.5 613.1,254.3 614.1,252.8 615.2,251.3 616.2,254.0 617.2,243.1 618.3,242.1 619.3,243.9 620.3,242.1 621.4,238.1 622.4,239.3 623.4,239.6 624.5,240.5 625.5,242.1 626.5,239.6 627.6,239.6 628.6,243.5 629.6,246.5 630.7,239.9 631.7,238.9 632.7,238.7 633.8,238.5 634.8,239.9 635.8,238.4 636.9,238.2 637.9,239.2 638.9,240.1 640.0,239.9 641.0,240.4 642.0,240.3 643.1,241.4 644.1,239.4 645.1,240.5 646.2,238.8 647.2,241.4 648.2,240.5 649.3,235.6 650.3,235.9 651.3,214.4 652.4,214.9 653.4,214.3 654.4,215.2 655.5,215.9 656.5,222.2 657.5,221.5 658.6,240.9 659.6,241.7 660.6,241.3 661.7,241.1 662.7,240.9 663.7,240.5 664.8,243.0 665.8,237.8 666.8,224.5 667.9,224.7 668.9,225.6 669.9,223.7 671.0,225.0 672.0,214.1 673.0,215.6 674.1,216.4 675.1,214.7 676.1,213.3 677.2,207.7 678.2,208.4 679.2,219.4 680.3,216.6 681.3,216.7 682.3,219.4 683.4,220.9 684.4,217.4 685.4,218.8 686.5,216.0 687.5,221.6 688.5,221.0 689.6,217.3 690.6,219.3 691.6,220.3 692.7,226.8 693.7,226.3 694.7,227.4 695.8,227.8 696.8,227.8 697.8,230.6 698.9,231.2 699.9,223.8 700.9,220.7 702.0,219.6 703.0,219.3 704.0,218.7 705.1,216.6 706.1,215.2 707.1,243.4 708.2,239.7 709.2,238.6 710.2,240.6 711.3,240.9 712.3,240.6 713.3,226.4 714.4,224.3 715.4,224.9 716.4,222.1 717.5,221.9 718.5,223.5 719.5,223.3 720.6,240.1 721.6,237.0 722.6,236.0 723.7,232.1 724.7,231.3 725.7,229.9 726.8,228.7 727.8,213.6 728.8,225.3 729.9,225.3 730.9,227.8 731.9,227.7 733.0,230.7 734.0,249.7 735.0,250.0 736.1,250.9 737.1,250.3 738.1,248.3 739.2,247.6 740.2,247.6 741.2,218.6 742.3,218.9 743.3,218.5 744.3,216.3 745.4,215.2 746.4,217.1 747.4,220.4 748.5,229.5 749.5,240.5 750.5,241.9 751.6,242.2 752.6,244.2 753.6,240.1 754.7,208.5 755.7,210.4 756.7,210.5 757.8,211.3 758.8,212.7 759.8,208.9 760.9,210.4 761.9,227.8 762.9,228.7 764.0,230.4 765.0,227.8 766.0,228.4 767.1,228.2 768.1,225.9 769.1,223.2 770.2,223.5 771.2,222.1 772.2,220.6 773.3,223.5 774.3,222.8 775.3,221.4 776.4,219.4 777.4,219.5 778.4,217.1 779.5,215.9 780.5,226.8 781.5,228.4 782.6,248.1 783.6,246.9 784.6,246.3 785.7,234.6 786.7,235.0 787.7,235.4 788.8,234.6 789.8,243.4 790.8,243.9 791.9,243.4 792.9,244.2 793.9,243.4 795.0,244.2 796.0,221.7"/>
<text x="640" y="56" font-family="Arial" font-size="12" fill="#0f766e">adaptive_nominal velocity error</text>
</svg>