<svg xmlns="http://www.w3.org/2000/svg" width="820" height="320" viewBox="0 0 820 320">
<rect width="100%" height="100%" fill="white"/>
<text x="52" y="30" font-family="Arial" font-size="18" font-weight="700">ekf_nominal velocity error</text>
<line x1="52" y1="274" x2="796" y2="274" stroke="#263238"/>
<line x1="52" y1="42" x2="52" y2="274" stroke="#263238"/>
<text x="52" y="306" font-family="Arial" font-size="12">time (s)</text>
<text x="630" y="306" font-family="Arial" font-size="12">m/s</text>

<rect x="630.7" y="42" width="165.3" height="232" fill="#fef3c7" opacity="0.72"/>
<polyline fill="none" stroke="#0f766e" stroke-width="2.3" points="52.0,215.7 53.0,218.5 54.1,220.9 55.1,222.3 56.1,224.1 57.2,218.5 58.2,222.4 59.2,173.3 60.3,171.0 61.3,171.5 62.3,171.8 63.4,167.3 64.4,166.7 65.4,168.9 66.5,141.6 67.5,141.6 68.5,130.2 69.6,123.0 70.6,115.5 71.6,106.4 72.7,241.7 73.7,237.5 74.7,236.3 75.8,233.8 76.8,230.3 77.8,229.5 78.9,226.5 79.9,137.4 80.9,128.6 82.0,120.4 83.0,114.5 84.0,105.8 85.1,97.1 86.1,85.3 87.1,207.1 88.2,204.0 89.2,195.9 90.2,189.1 91.3,183.6 92.3,177.3 93.3,76.6 94.4,67.8 95.4,59.2 96.4,53.8 97.5,45.2 98.5,50.2 99.5,42.0 100.6,117.1 101.6,111.3 102.6,107.6 103.7,102.1 104.7,94.8 105.7,89.0 106.8,80.6 107.8,161.3 108.8,163.7 109.9,160.6 110.9,155.3 111.9,152.3 113.0,151.1 114.0,219.7 115.0,222.1 116.1,215.2 117.1,213.4 118.1,210.1 119.2,193.3 120.2,190.7 121.2,175.6 122.3,172.4 123.3,168.8 124.3,166.0 125.4,161.4 126.4,158.8 127.4,154.5 128.5,246.9 129.5,249.4 130.5,244.6 131.6,242.9 132.6,241.6 133.6,242.5 134.7,210.0 135.7,201.7 136.7,199.0 137.8,199.3 138.8,195.3 139.8,193.0 140.9,192.3 141.9,179.3 142.9,175.4 144.0,174.7 145.0,181.4 146.0,182.2 147.1,181.2 148.1,179.0 149.1,204.4 150.2,202.2 151.2,201.3 152.2,199.7 153.3,196.2 154.3,195.5 155.3,208.2 156.4,204.5 157.4,204.8 158.4,204.8 159.5,207.2 160.5,204.1 161.5,202.2 162.6,200.9 163.6,196.6 164.6,196.2 165.7,200.9 166.7,201.7 167.7,200.0 168.8,200.8 169.8,260.2 170.8,262.0 171.9,262.9 172.9,261.6 173.9,263.0 175.0,264.4 176.0,256.5 177.0,254.5 178.1,255.0 179.1,254.3 180.1,254.2 181.2,254.2 182.2,253.9 183.2,204.1 184.3,203.8 185.3,203.3 186.3,207.5 187.4,207.6 188.4,206.2 189.4,206.4 190.5,203.3 191.5,200.2 192.5,198.9 193.6,197.2 194.6,196.9 195.6,197.0 196.7,226.0 197.7,223.9 198.7,225.5 199.8,225.0 200.8,223.8 201.8,221.5 202.9,221.6 203.9,239.6 204.9,238.6 206.0,241.7 207.0,240.3 208.0,242.8 209.1,243.4 210.1,243.8 211.1,257.3 212.2,262.9 213.2,262.9 214.2,262.9 215.3,263.8 216.3,264.0 217.3,249.7 218.4,246.7 219.4,246.4 220.4,242.0 221.5,238.1 222.5,233.4 223.5,229.8 224.6,234.6 225.6,234.2 226.6,235.4 227.7,238.5 228.7,237.0 229.7,237.6 230.8,235.3 231.8,217.7 232.8,218.9 233.9,216.7 234.9,214.8 235.9,213.5 237.0,212.0 238.0,207.0 239.0,209.5 240.1,207.4 241.1,204.8 242.1,204.2 243.2,214.5 244.2,211.9 245.2,187.1 246.3,189.3 247.3,190.6 248.3,188.3 249.4,185.9 250.4,186.5 251.4,186.7 252.5,199.5 253.5,211.4 254.5,212.1 255.6,211.3 256.6,210.2 257.6,211.0 258.7,215.6 259.7,214.9 260.7,214.9 261.8,217.8 262.8,216.0 263.8,213.8 264.9,214.4 265.9,205.0 266.9,203.5 268.0,203.9 269.0,206.3 270.0,206.5 271.1,205.9 272.1,204.2 273.1,201.3 274.2,203.9 275.2,204.5 276.2,207.7 277.3,204.6 278.3,204.2 279.3,213.8 280.4,214.8 281.4,218.8 282.4,218.7 283.5,217.1 284.5,219.8 285.5,217.7 286.6,225.4 287.6,227.8 288.6,224.5 289.7,222.5 290.7,220.7 291.7,225.4 292.8,226.1 293.8,229.4 294.8,229.1 295.9,230.3 296.9,229.9 297.9,232.6 299.0,235.7 300.0,233.0 301.0,233.6 302.1,234.8 303.1,236.3 304.1,233.7 305.2,233.8 306.2,235.0 307.2,264.1 308.3,266.6 309.3,266.4 310.3,262.1 311.4,260.4 312.4,260.0 313.4,260.0 314.5,263.9 315.5,263.1 316.5,258.7 317.6,259.9 318.6,259.3 319.6,260.9 320.7,250.5 321.7,251.4 322.7,252.0 323.8,252.2 324.8,252.3 325.8,252.9 326.9,254.6 327.9,268.9 328.9,269.1 330.0,266.2 331.0,259.5 332.0,260.7 333.1,262.5 334.1,264.0 335.1,224.6 336.2,225.0 337.2,224.6 338.2,220.2 339.3,218.1 340.3,219.8 341.3,208.8 342.4,208.4 343.4,206.5 344.4,205.8 345.5,204.1 346.5,208.8 347.5,209.8 348.6,241.6 349.6,244.9 350.6,246.5 351.7,245.8 352.7,245.1 353.7,244.5 354.8,243.3 355.8,257.5 356.8,248.3 357.9,243.7 358.9,244.0 359.9,243.2 361.0,241.9 362.0,274.0 363.0,273.1 364.1,271.8 365.1,272.5 366.1,272.6 367.2,270.4 368.2,271.4 369.2,259.7 370.3,258.9 371.3,259.2 372.3,254.3 373.4,256.8 374.4,258.7 375.4,257.1 376.5,261.2 377.5,258.0 378.5,260.1 379.6,259.5 380.6,261.5 381.6,260.4 382.7,266.3 383.7,264.0 384.7,262.1 385.8,261.7 386.8,261.4 387.8,257.9 388.9,258.0 389.9,250.4 390.9,247.5 392.0,249.0 393.0,247.3 394.0,246.2 395.1,246.5 396.1,249.1 397.1,257.5 398.2,250.5 399.2,251.1 400.2,252.2 401.3,249.1 402.3,249.4 403.3,254.8 404.4,253.9 405.4,252.8 406.4,251.6 407.5,250.0 408.5,251.1 409.5,247.9 410.6,246.5 411.6,246.5 412.6,245.9 413.7,239.2 414.7,238.7 415.7,240.1 416.8,239.4 417.8,238.2 418.8,239.8 419.9,238.7 420.9,240.6 421.9,241.1 423.0,237.8 424.0,233.7 425.0,230.2 426.1,227.1 427.1,226.0 428.1,225.9 429.2,227.2 430.2,231.1 431.2,225.2 432.3,227.2 433.3,227.5 434.3,232.4 435.4,232.6 436.4,229.9 437.4,227.0 438.5,197.3 439.5,196.8 440.5,195.6 441.6,194.4 442.6,195.0 443.6,194.5 444.7,221.2 445.7,222.0 446.7,223.2 447.8,222.4 448.8,225.1 449.8,224.0 450.9,223.6 451.9,216.1 452.9,218.3 454.0,217.2 455.0,213.2 456.0,214.8 457.1,215.0 458.1,214.9 459.1,246.4 460.2,245.6 461.2,247.1 462.2,247.1 463.3,248.2 464.3,246.9 465.3,265.2 466.4,266.0 467.4,266.7 468.4,267.3 469.5,265.4 470.5,264.3 471.5,265.7 472.6,273.5 473.6,271.9 474.6,271.0 475.7,269.9 476.7,270.3 477.7,268.2 478.8,271.4 479.8,243.0 480.8,242.2 481.9,238.6 482.9,239.0 483.9,238.1 485.0,238.0 486.0,246.1 487.0,246.6 488.1,250.8 489.1,251.0 490.1,250.7 491.2,251.8 492.2,249.4 493.2,259.9 494.3,260.6 495.3,260.9 496.3,249.1 497.4,250.7 498.4,249.9 499.4,250.4 500.5,257.1 501.5,253.4 502.5,250.9 503.6,249.9 504.6,250.0 505.6,252.9 506.7,256.1 507.7,253.4 508.7,251.0 509.8,249.0 510.8,250.1 511.8,251.8 512.9,253.5 513.9,259.5 514.9,260.6 516.0,260.9 517.0,263.0 518.0,261.9 519.1,260.9 520.1,262.7 521.1,244.7 522.2,250.6 523.2,250.5 524.2,250.8 525.3,251.1 526.3,249.7 527.3,258.3 528.4,257.3 529.4,258.9 530.4,257.2 531.5,257.4 532.5,261.9 533.5,262.8 534.6,262.4 535.6,261.8 536.6,262.3 537.7,266.9 538.7,266.7 539.7,268.1 540.8,269.7 541.8,263.2 542.8,254.2 543.9,254.2 544.9,255.9 545.9,254.9 547.0,256.2 548.0,239.0 549.0,239.1 550.1,234.6 551.1,236.6 552.1,234.6 553.2,238.0 554.2,237.2 555.2,232.6 556.3,233.2 557.3,232.7 558.3,232.9 559.4,233.7 560.4,233.2 561.4,233.0 562.5,234.0 563.5,239.8 564.5,238.6 565.6,238.0 566.6,238.5 567.6,239.9 568.7,242.1 569.7,245.8 570.7,245.3 571.8,244.2 572.8,245.1 573.8,241.7 574.9,244.6 575.9,252.0 576.9,254.2 578.0,254.0 579.0,253.3 580.0,252.0 581.1,252.9 582.1,253.9 583.1,238.7 584.2,238.8 585.2,237.7 586.2,236.5 587.3,235.8 588.3,236.9 589.3,232.9 590.4,231.9 591.4,233.1 592.4,233.4 593.5,229.6 594.5,226.9 595.5,228.3 596.6,231.9 597.6,231.3 598.6,230.5 599.7,231.6 600.7,231.6 601.7,231.6 602.8,228.8 603.8,253.5 604.8,252.3 605.9,252.4 606.9,249.4 607.9,247.8 609.0,247.7 610.0,245.2 611.0,246.8 612.1,244.8 613.1,248.6 614.1,247.6 615.2,246.9 616.2,249.2 617.2,250.1 618.3,249.3 619.3,250.6 620.3,248.3 621.4,244.8 622.4,245.6 623.4,245.7 624.5,246.2 625.5,248.9 626.5,246.6 627.6,246.6 628.6,250.5 629.6,253.3 630.7,237.8 631.7,238.7 632.7,238.1 633.8,238.6 634.8,240.0 635.8,238.3 636.9,237.8 637.9,232.2 638.9,232.3 640.0,231.6 641.0,233.1 642.0,233.6 643.1,235.1 644.1,232.9 645.1,233.7 646.2,231.9 647.2,233.8 648.2,232.5 649.3,228.2 650.3,228.5 651.3,196.7 652.4,198.1 653.4,197.8 654.4,198.5 655.5,198.8 656.5,206.4 657.5,206.6 658.6,228.6 659.6,228.9 660.6,228.5 661.7,229.7 662.7,229.9 663.7,229.8 664.8,232.1 665.8,226.0 666.8,214.4 667.9,214.3 668.9,216.6 669.9,215.4 671.0,216.7 672.0,207.3 673.0,209.0 674.1,210.0 675.1,208.8 676.1,207.7 677.2,203.2 678.2,203.8 679.2,219.7 680.3,217.1 681.3,217.3 682.3,221.0 683.4,222.3 684.4,218.2 685.4,219.0 686.5,214.7 687.5,221.6 688.5,221.2 689.6,217.8 690.6,219.7 691.6,220.3 692.7,231.1 693.7,231.2 694.7,232.4 695.8,233.1 696.8,233.7 697.8,237.1 698.9,238.0 699.9,234.1 700.9,230.7 702.0,229.4 703.0,229.6 704.0,228.9 705.1,227.3 706.1,225.9 707.1,248.4 708.2,244.5 709.2,243.3 710.2,245.0 711.3,245.1 712.3,244.6 713.3,231.4 714.4,229.4 715.4,229.9 716.4,227.2 717.5,227.2 718.5,229.1 719.5,229.3 720.6,242.7 721.6,239.5 722.6,238.9 723.7,235.7 724.7,235.3 725.7,233.9 726.8,232.7 727.8,216.3 728.8,228.3 729.9,228.3 730.9,230.6 731.9,230.6 733.0,233.6 734.0,252.3 735.0,253.6 736.1,254.5 737.1,253.8 738.1,251.7 739.2,251.1 740.2,251.3 741.2,219.9 742.3,220.2 743.3,219.8 744.3,218.0 745.4,216.8 746.4,218.8 747.4,222.0 748.5,230.1 749.5,240.5 750.5,241.8 751.6,242.2 752.6,244.3 753.6,240.2 754.7,211.0 755.7,213.2 756.7,213.2 757.8,214.0 758.8,215.4 759.8,212.0 760.9,213.6 761.9,229.7 762.9,230.6 764.0,232.3 765.0,230.1 766.0,230.7 767.1,230.5 768.1,228.2 769.1,225.8 770.2,226.4 771.2,225.0 772.2,223.7 773.3,226.4 774.3,225.8 775.3,224.5 776.4,222.5 777.4,222.7 778.4,220.2 779.5,219.0 780.5,230.1 781.5,231.7 782.6,250.2 783.6,248.8 784.6,248.1 785.7,236.7 786.7,237.1 787.7,237.4 788.8,236.6 789.8,244.9 790.8,245.4 791.9,245.0 792.9,245.7 793.9,244.8 795.0,245.9 796.0,225.2"/>
<text x="640" y="56" font-family="Arial" font-size="12" fill="#0f766e">ekf_nominal velocity error</text>
</svg>