<svg xmlns="http://www.w3.org/2000/svg" width="820" height="320" viewBox="0 0 820 320">
<rect width="100%" height="100%" fill="white"/>
<text x="52" y="30" font-family="Arial" font-size="18" font-weight="700">adaptive_dropout_robust velocity error</text>
<line x1="52" y1="274" x2="796" y2="274" stroke="#263238"/>
<line x1="52" y1="42" x2="52" y2="274" stroke="#263238"/>
<text x="52" y="306" font-family="Arial" font-size="12">time (s)</text>
<text x="630" y="306" font-family="Arial" font-size="12">m/s</text>

<rect x="630.7" y="42" width="165.3" height="232" fill="#fef3c7" opacity="0.72"/>
<polyline fill="none" stroke="#0f766e" stroke-width="2.3" points="52.0,224.3 53.0,226.9 54.1,229.1 55.1,230.5 56.1,232.2 57.2,230.3 58.2,234.1 59.2,184.7 60.3,182.5 61.3,183.0 62.3,181.2 63.4,177.0 64.4,176.4 65.4,178.5 66.5,152.1 67.5,148.3 68.5,137.7 69.6,131.1 70.6,124.2 71.6,115.8 72.7,248.0 73.7,243.7 74.7,240.0 75.8,236.5 76.8,232.4 77.8,230.6 78.9,226.5 79.9,130.4 80.9,121.8 82.0,113.5 83.0,106.0 84.0,97.5 85.1,88.8 86.1,77.3 87.1,212.2 88.2,207.8 89.2,200.1 90.2,193.5 91.3,188.3 92.3,182.3 93.3,81.3 94.4,73.2 95.4,65.1 96.4,59.9 97.5,51.8 98.5,50.0 99.5,42.0 100.6,132.5 101.6,127.3 102.6,124.0 103.7,119.8 104.7,113.2 105.7,107.9 106.8,100.3 107.8,179.9 108.8,178.8 109.9,175.9 110.9,171.1 111.9,168.5 113.0,166.9 114.0,245.7 115.0,248.3 116.1,242.1 117.1,240.5 118.1,237.7 119.2,228.1 120.2,226.1 121.2,150.9 122.3,147.1 123.3,143.4 124.3,140.3 125.4,135.5 126.4,132.4 127.4,128.0 128.5,227.4 129.5,228.6 130.5,223.1 131.6,220.9 132.6,220.3 133.6,220.0 134.7,221.8 135.7,213.9 136.7,211.4 137.8,211.6 138.8,208.0 139.8,205.4 140.9,204.7 141.9,181.9 142.9,178.3 144.0,177.6 145.0,180.0 146.0,180.3 147.1,179.5 148.1,176.9 149.1,203.4 150.2,203.4 151.2,201.9 152.2,200.3 153.3,197.1 154.3,196.8 155.3,208.6 156.4,204.7 157.4,204.8 158.4,206.0 159.5,207.2 160.5,204.1 161.5,203.6 162.6,211.4 163.6,207.3 164.6,206.9 165.7,210.1 166.7,210.9 167.7,209.4 168.8,210.3 169.8,249.0 170.8,246.1 171.9,246.0 172.9,245.4 173.9,247.1 175.0,246.2 176.0,220.2 177.0,217.7 178.1,217.7 179.1,216.9 180.1,216.7 181.2,216.8 182.2,216.5 183.2,177.6 184.3,177.0 185.3,175.9 186.3,178.9 187.4,178.5 188.4,176.5 189.4,176.5 190.5,185.1 191.5,183.2 192.5,182.3 193.6,180.8 194.6,181.1 195.6,180.7 196.7,204.9 197.7,202.6 198.7,205.0 199.8,203.1 200.8,202.3 201.8,200.8 202.9,201.4 203.9,236.3 204.9,234.5 206.0,236.8 207.0,234.0 208.0,237.2 209.1,236.5 210.1,237.1 211.1,263.8 212.2,267.7 213.2,268.1 214.2,268.6 215.3,269.5 216.3,270.1 217.3,211.0 218.4,209.2 219.4,209.0 220.4,204.9 221.5,201.5 222.5,198.8 223.5,195.6 224.6,225.8 225.6,225.5 226.6,226.7 227.7,229.3 228.7,228.2 229.7,228.7 230.8,226.6 231.8,194.2 232.8,195.1 233.9,192.9 234.9,190.5 235.9,189.3 237.0,187.3 238.0,170.4 239.0,172.2 240.1,169.9 241.1,167.3 242.1,166.0 243.2,172.6 244.2,170.0 245.2,127.6 246.3,129.5 247.3,130.7 248.3,129.1 249.4,127.0 250.4,127.5 251.4,127.5 252.5,159.1 253.5,164.4 254.5,164.7 255.6,163.7 256.6,162.7 257.6,163.6 258.7,188.9 259.7,188.7 260.7,189.1 261.8,190.9 262.8,189.9 263.8,188.2 264.9,189.0 265.9,184.3 266.9,182.9 268.0,183.1 269.0,187.9 270.0,187.9 271.1,187.8 272.1,187.0 273.1,173.7 274.2,173.1 275.2,173.2 276.2,175.4 277.3,173.3 278.3,172.1 279.3,207.0 280.4,209.7 281.4,213.1 282.4,214.1 283.5,212.8 284.5,212.7 285.5,211.3 286.6,237.1 287.6,239.6 288.6,236.5 289.7,235.7 290.7,234.1 291.7,238.7 292.8,239.5 293.8,226.2 294.8,227.4 295.9,227.8 296.9,226.7 297.9,230.2 299.0,232.7 300.0,247.3 301.0,247.5 302.1,249.4 303.1,250.5 304.1,248.2 305.2,248.7 306.2,250.4 307.2,249.6 308.3,251.0 309.3,251.1 310.3,244.4 311.4,243.3 312.4,240.7 313.4,240.1 314.5,229.6 315.5,227.6 316.5,225.2 317.6,225.1 318.6,222.9 319.6,224.7 320.7,229.8 321.7,229.5 322.7,230.4 323.8,231.1 324.8,231.7 325.8,232.0 326.9,232.7 327.9,267.4 328.9,266.9 330.0,266.6 331.0,260.9 332.0,261.3 333.1,260.1 334.1,259.8 335.1,170.3 336.2,170.5 337.2,169.7 338.2,165.5 339.3,162.9 340.3,164.4 341.3,140.2 342.4,139.3 343.4,137.1 344.4,136.3 345.5,134.5 346.5,137.2 347.5,137.5 348.6,234.0 349.6,238.2 350.6,240.1 351.7,242.2 352.7,239.5 353.7,239.4 354.8,238.6 355.8,226.2 356.8,220.1 357.9,214.8 358.9,215.0 359.9,213.7 361.0,213.7 362.0,252.1 363.0,252.1 364.1,256.7 365.1,256.3 366.1,256.4 367.2,257.3 368.2,258.8 369.2,265.5 370.3,265.2 371.3,267.0 372.3,266.2 373.4,266.7 374.4,267.0 375.4,266.6 376.5,257.8 377.5,253.6 378.5,255.3 379.6,253.6 380.6,255.9 381.6,253.5 382.7,250.0 383.7,247.7 384.7,248.8 385.8,246.1 386.8,246.5 387.8,245.5 388.9,245.3 389.9,248.0 390.9,245.4 392.0,246.4 393.0,246.7 394.0,246.1 395.1,245.9 396.1,248.3 397.1,274.0 398.2,268.5 399.2,269.3 400.2,269.9 401.3,267.6 402.3,267.7 403.3,258.9 404.4,256.3 405.4,256.2 406.4,255.8 407.5,254.2 408.5,253.2 409.5,250.0 410.6,253.1 411.6,252.9 412.6,253.4 413.7,250.6 414.7,250.8 415.7,252.6 416.8,251.5 417.8,218.3 418.8,221.1 419.9,222.0 420.9,222.8 421.9,222.6 423.0,221.1 424.0,221.9 425.0,218.4 426.1,215.7 427.1,214.3 428.1,213.9 429.2,214.0 430.2,217.4 431.2,207.7 432.3,209.6 433.3,209.8 434.3,213.4 435.4,213.6 436.4,210.9 437.4,208.1 438.5,138.8 439.5,138.0 440.5,136.6 441.6,135.3 442.6,135.7 443.6,134.4 444.7,210.3 445.7,211.1 446.7,211.6 447.8,211.6 448.8,213.2 449.8,213.4 450.9,212.9 451.9,204.2 452.9,205.9 454.0,205.5 455.0,202.2 456.0,203.1 457.1,203.1 458.1,202.3 459.1,244.3 460.2,244.2 461.2,244.7 462.2,244.3 463.3,244.4 464.3,242.9 465.3,225.1 466.4,222.9 467.4,221.3 468.4,222.2 469.5,222.0 470.5,224.9 471.5,222.0 472.6,236.4 473.6,238.5 474.6,238.4 475.7,235.0 476.7,235.9 477.7,234.6 478.8,232.7 479.8,206.9 480.8,205.1 481.9,201.1 482.9,200.8 483.9,200.0 485.0,200.2 486.0,231.1 487.0,230.7 488.1,234.7 489.1,234.7 490.1,233.9 491.2,236.7 492.2,234.8 493.2,241.6 494.3,242.1 495.3,242.9 496.3,235.9 497.4,236.5 498.4,236.9 499.4,235.0 500.5,265.4 501.5,262.5 502.5,261.5 503.6,260.7 504.6,259.4 505.6,261.7 506.7,238.1 507.7,234.4 508.7,232.8 509.8,230.1 510.8,230.1 511.8,228.2 512.9,228.1 513.9,261.2 514.9,262.2 516.0,262.4 517.0,264.0 518.0,262.8 519.1,262.0 520.1,263.8 521.1,209.3 522.2,216.0 523.2,216.6 524.2,216.7 525.3,214.9 526.3,213.9 527.3,215.3 528.4,214.9 529.4,215.9 530.4,214.1 531.5,214.3 532.5,218.0 533.5,218.3 534.6,233.9 535.6,233.4 536.6,234.3 537.7,236.5 538.7,236.8 539.7,237.8 540.8,238.3 541.8,241.3 542.8,236.1 543.9,236.0 544.9,237.6 545.9,236.2 547.0,237.0 548.0,212.3 549.0,212.4 550.1,208.0 551.1,209.7 552.1,207.7 553.2,210.6 554.2,209.7 555.2,207.2 556.3,207.9 557.3,207.0 558.3,207.3 559.4,207.6 560.4,207.4 561.4,206.6 562.5,219.6 563.5,223.8 564.5,222.5 565.6,221.8 566.6,222.2 567.6,223.5 568.7,218.5 569.7,221.3 570.7,220.4 571.8,218.9 572.8,219.3 573.8,216.1 574.9,218.7 575.9,248.9 576.9,251.5 578.0,251.8 579.0,251.9 580.0,250.3 581.1,251.6 582.1,253.0 583.1,211.7 584.2,211.8 585.2,209.7 586.2,208.6 587.3,208.3 588.3,209.7 589.3,200.1 590.4,198.7 591.4,199.8 592.4,200.0 593.5,196.6 594.5,192.7 595.5,193.7 596.6,205.1 597.6,204.7 598.6,203.8 599.7,209.1 600.7,210.5 601.7,209.1 602.8,206.4 603.8,260.6 604.8,261.4 605.9,262.5 606.9,264.7 607.9,265.8 609.0,264.7 610.0,241.1 611.0,240.0 612.1,238.6 613.1,237.9 614.1,236.0 615.2,232.2 616.2,233.2 617.2,179.3 618.3,178.3 619.3,179.1 620.3,177.9 621.4,174.3 622.4,175.4 623.4,175.9 624.5,196.0 625.5,196.4 626.5,194.2 627.6,194.3 628.6,197.4 629.6,200.0 630.7,201.3 631.7,201.6 632.7,202.5 633.8,202.7 634.8,203.7 635.8,202.4 636.9,201.5 637.9,193.0 638.9,193.5 640.0,192.5 641.0,194.1 642.0,193.8 643.1,195.2 644.1,194.3 645.1,214.1 646.2,214.9 647.2,216.0 648.2,214.3 649.3,210.9 650.3,211.4 651.3,163.9 652.4,164.6 653.4,164.5 654.4,165.2 655.5,165.1 656.5,170.0 657.5,169.9 658.6,223.5 659.6,223.4 660.6,222.9 661.7,224.6 662.7,225.0 663.7,225.1 664.8,227.0 665.8,216.7 666.8,209.7 667.9,209.4 668.9,212.5 669.9,212.0 671.0,212.9 672.0,198.1 673.0,199.4 674.1,199.8 675.1,198.6 676.1,197.8 677.2,194.2 678.2,194.9 679.2,232.9 680.3,230.9 681.3,229.3 682.3,231.2 683.4,232.2 684.4,229.0 685.4,229.4 686.5,222.5 687.5,228.1 688.5,227.8 689.6,224.6 690.6,226.6 691.6,226.6 692.7,219.4 693.7,215.7 694.7,218.3 695.8,219.4 696.8,216.6 697.8,214.3 698.9,212.8 699.9,194.6 700.9,192.2 702.0,192.7 703.0,190.2 704.0,189.4 705.1,186.5 706.1,185.7 707.1,267.1 708.2,269.7 709.2,268.1 710.2,269.6 711.3,269.1 712.3,268.3 713.3,219.3 714.4,217.6 715.4,219.0 716.4,216.2 717.5,215.6 718.5,217.2 719.5,217.0 720.6,221.9 721.6,220.2 722.6,222.0 723.7,219.8 724.7,221.2 725.7,220.4 726.8,219.2 727.8,187.5 728.8,197.4 729.9,197.2 730.9,197.8 731.9,197.8 733.0,199.5 734.0,255.1 735.0,265.5 736.1,264.7 737.1,264.0 738.1,261.7 739.2,257.5 740.2,259.9 741.2,140.3 742.3,139.7 743.3,139.7 744.3,137.2 745.4,134.8 746.4,136.4 747.4,138.6 748.5,180.4 749.5,184.1 750.5,184.7 751.6,184.8 752.6,187.5 753.6,184.6 754.7,151.9 755.7,154.1 756.7,153.3 757.8,153.9 758.8,155.1 759.8,151.8 760.9,152.7 761.9,179.7 762.9,180.3 764.0,181.7 765.0,180.9 766.0,180.1 767.1,180.3 768.1,178.2 769.1,200.3 770.2,200.6 771.2,197.7 772.2,196.3 773.3,198.0 774.3,197.5 775.3,189.2 776.4,187.4 777.4,187.3 778.4,185.0 779.5,183.5 780.5,191.5 781.5,192.9 782.6,242.4 783.6,241.3 784.6,240.7 785.7,233.2 786.7,233.6 787.7,232.9 788.8,231.8 789.8,223.4 790.8,221.1 791.9,221.0 792.9,218.4 793.9,215.4 795.0,217.9 796.0,175.3"/>
<text x="640" y="56" font-family="Arial" font-size="12" fill="#0f766e">adaptive_dropout_robust velocity error</text>
</svg>