<svg xmlns="http://www.w3.org/2000/svg" width="820" height="320" viewBox="0 0 820 320">
<rect width="100%" height="100%" fill="white"/>
<text x="52" y="30" font-family="Arial" font-size="18" font-weight="700">ekf_dropout_robust velocity error</text>
<line x1="52" y1="274" x2="796" y2="274" stroke="#263238"/>
<line x1="52" y1="42" x2="52" y2="274" stroke="#263238"/>
<text x="52" y="306" font-family="Arial" font-size="12">time (s)</text>
<text x="630" y="306" font-family="Arial" font-size="12">m/s</text>

<rect x="630.7" y="42" width="165.3" height="232" fill="#fef3c7" opacity="0.72"/>
<polyline fill="none" stroke="#0f766e" stroke-width="2.3" points="52.0,224.6 53.0,227.3 54.1,229.6 55.1,231.0 56.1,232.8 57.2,230.9 58.2,234.8 59.2,183.7 60.3,181.5 61.3,182.0 62.3,180.2 63.4,175.8 64.4,175.1 65.4,177.3 66.5,150.1 67.5,146.1 68.5,135.2 69.6,128.4 70.6,121.3 71.6,112.6 72.7,250.4 73.7,246.3 74.7,244.7 75.8,242.1 76.8,238.6 77.8,236.9 78.9,233.7 79.9,141.5 80.9,133.2 82.0,125.3 83.0,118.3 84.0,109.9 85.1,101.5 86.1,90.2 87.1,212.4 88.2,208.1 89.2,200.2 90.2,193.5 91.3,188.3 92.3,182.2 93.3,81.7 94.4,73.4 95.4,65.2 96.4,59.9 97.5,51.6 98.5,50.1 99.5,42.0 100.6,129.2 101.6,123.8 102.6,120.3 103.7,116.0 104.7,109.1 105.7,103.6 106.8,95.7 107.8,177.3 108.8,176.4 109.9,173.4 110.9,168.4 111.9,165.7 113.0,164.1 114.0,241.2 115.0,243.7 116.1,237.1 117.1,235.3 118.1,232.2 119.2,222.2 120.2,219.8 121.2,157.9 122.3,154.3 123.3,150.6 124.3,147.6 125.4,142.8 126.4,139.8 127.4,135.4 128.5,234.5 129.5,235.8 130.5,230.4 131.6,228.4 132.6,227.8 133.6,227.9 134.7,222.3 135.7,214.0 136.7,211.3 137.8,211.5 138.8,207.7 139.8,205.0 140.9,204.2 141.9,182.8 142.9,179.0 144.0,178.3 145.0,180.8 146.0,181.1 147.1,180.3 148.1,177.6 149.1,205.8 150.2,205.5 151.2,204.1 152.2,202.5 153.3,199.1 154.3,198.8 155.3,210.8 156.4,206.8 157.4,207.0 158.4,208.0 159.5,209.5 160.5,206.4 161.5,205.7 162.6,211.2 163.6,207.0 164.6,206.5 165.7,210.0 166.7,210.8 167.7,209.2 168.8,210.1 169.8,255.1 170.8,252.5 171.9,252.4 172.9,251.8 173.9,253.6 175.0,252.8 176.0,227.8 177.0,225.3 178.1,225.5 179.1,224.7 180.1,224.6 181.2,224.8 182.2,224.5 183.2,183.1 184.3,182.5 185.3,181.6 186.3,184.7 187.4,184.4 188.4,182.4 189.4,182.4 190.5,188.5 191.5,186.5 192.5,185.6 193.6,184.1 194.6,184.4 195.6,184.0 196.7,209.7 197.7,207.4 198.7,209.8 199.8,208.0 200.8,207.2 201.8,205.7 202.9,206.3 203.9,238.4 204.9,236.7 206.0,239.2 207.0,236.5 208.0,239.7 209.1,239.2 210.1,239.7 211.1,266.4 212.2,270.7 213.2,271.0 214.2,271.4 215.3,272.0 216.3,272.4 217.3,217.8 218.4,216.1 219.4,216.0 220.4,211.8 221.5,208.3 222.5,205.6 223.5,202.3 224.6,228.9 225.6,228.6 226.6,229.9 227.7,232.6 228.7,231.4 229.7,232.0 230.8,229.9 231.8,198.6 232.8,199.5 233.9,197.2 234.9,194.8 235.9,193.6 237.0,191.7 238.0,175.0 239.0,177.0 240.1,174.7 241.1,172.1 242.1,170.8 243.2,177.6 244.2,174.9 245.2,133.9 246.3,135.9 247.3,137.2 248.3,135.6 249.4,133.4 250.4,134.0 251.4,134.1 252.5,163.5 253.5,169.3 254.5,169.7 255.6,168.7 256.6,167.7 257.6,168.5 258.7,192.0 259.7,191.8 260.7,192.1 261.8,194.2 262.8,193.1 263.8,191.3 264.9,192.2 265.9,186.8 266.9,185.4 268.0,185.5 269.0,190.4 270.0,190.5 271.1,190.3 272.1,189.4 273.1,177.7 274.2,177.4 275.2,177.6 276.2,180.0 277.3,177.7 278.3,176.6 279.3,207.0 280.4,209.2 281.4,212.9 282.4,213.7 283.5,212.2 284.5,212.4 285.5,210.9 286.6,234.6 287.6,236.9 288.6,233.8 289.7,233.2 290.7,231.6 291.7,236.1 292.8,237.0 293.8,226.9 294.8,228.0 295.9,228.6 296.9,227.5 297.9,231.1 299.0,233.9 300.0,245.8 301.0,246.0 302.1,248.0 303.1,249.1 304.1,246.7 305.2,247.3 306.2,249.0 307.2,256.0 308.3,258.0 309.3,258.0 310.3,250.6 311.4,249.3 312.4,246.7 313.4,246.2 314.5,239.0 315.5,237.0 316.5,234.2 317.6,234.2 318.6,231.8 319.6,233.5 320.7,238.4 321.7,238.0 322.7,239.3 323.8,240.2 324.8,240.5 325.8,240.8 326.9,241.4 327.9,267.1 328.9,266.2 330.0,265.6 331.0,259.9 332.0,260.4 333.1,259.6 334.1,259.6 335.1,190.6 336.2,190.9 337.2,190.1 338.2,186.0 339.3,183.3 340.3,185.0 341.3,160.3 342.4,159.3 343.4,157.1 344.4,156.3 345.5,154.4 346.5,157.5 347.5,157.9 348.6,240.6 349.6,244.7 350.6,246.5 351.7,248.2 352.7,245.8 353.7,245.6 354.8,244.7 355.8,233.2 356.8,225.9 357.9,220.5 358.9,220.7 359.9,219.4 361.0,219.5 362.0,256.9 363.0,256.9 364.1,262.0 365.1,261.9 366.1,260.9 367.2,260.5 368.2,261.7 369.2,266.8 370.3,265.9 371.3,267.4 372.3,265.6 373.4,267.2 374.4,267.7 375.4,267.0 376.5,261.8 377.5,257.1 378.5,259.0 379.6,257.4 380.6,260.0 381.6,257.4 382.7,253.0 383.7,250.5 384.7,251.2 385.8,248.6 386.8,248.9 387.8,247.5 388.9,247.4 389.9,249.0 390.9,246.3 392.0,247.2 393.0,247.1 394.0,246.5 395.1,246.2 396.1,248.7 397.1,273.8 398.2,268.5 399.2,269.4 400.2,270.0 401.3,267.6 402.3,267.7 403.3,262.3 404.4,259.7 405.4,259.6 406.4,259.0 407.5,257.3 408.5,256.5 409.5,253.2 410.6,254.7 411.6,254.6 412.6,255.0 413.7,252.5 414.7,252.9 415.7,254.7 416.8,253.6 417.8,225.4 418.8,228.1 419.9,229.0 420.9,229.9 421.9,229.7 423.0,228.1 424.0,228.8 425.0,225.2 426.1,222.6 427.1,221.1 428.1,220.8 429.2,220.4 430.2,223.9 431.2,215.3 432.3,217.3 433.3,217.6 434.3,221.0 435.4,221.2 436.4,218.5 437.4,215.8 438.5,160.4 439.5,159.7 440.5,158.3 441.6,157.0 442.6,157.4 443.6,156.3 444.7,211.9 445.7,212.6 446.7,213.3 447.8,212.9 448.8,215.0 449.8,214.5 450.9,214.0 451.9,208.4 452.9,210.4 454.0,209.6 455.0,206.3 456.0,207.3 457.1,207.4 458.1,207.0 459.1,255.3 460.2,256.3 461.2,257.8 462.2,257.6 463.3,259.0 464.3,256.9 465.3,251.9 466.4,249.6 467.4,248.0 468.4,249.0 469.5,248.5 470.5,251.9 471.5,248.9 472.6,251.9 473.6,254.0 474.6,253.9 475.7,250.2 476.7,251.2 477.7,249.6 478.8,248.2 479.8,223.2 480.8,221.2 481.9,217.0 482.9,216.9 483.9,215.9 485.0,216.2 486.0,238.3 487.0,237.9 488.1,242.0 489.1,242.0 490.1,241.3 491.2,243.4 492.2,241.3 493.2,253.9 494.3,254.7 495.3,255.7 496.3,247.4 497.4,248.2 498.4,248.1 499.4,246.8 500.5,266.6 501.5,263.5 502.5,261.5 503.6,260.5 504.6,259.7 505.6,262.3 506.7,248.0 507.7,244.2 508.7,242.3 509.8,239.6 510.8,240.0 511.8,238.9 512.9,239.4 513.9,262.1 514.9,263.1 516.0,263.3 517.0,265.3 518.0,264.2 519.1,263.2 520.1,264.9 521.1,224.9 522.2,231.7 523.2,232.2 524.2,232.4 525.3,230.8 526.3,229.9 527.3,229.3 528.4,228.9 529.4,229.9 530.4,228.2 531.5,228.4 532.5,232.5 533.5,232.9 534.6,243.5 535.6,243.1 536.6,244.0 537.7,246.3 538.7,246.8 539.7,247.9 540.8,248.3 541.8,247.5 542.8,241.7 543.9,241.7 544.9,243.3 545.9,241.8 547.0,242.7 548.0,219.8 549.0,220.0 550.1,215.4 551.1,217.2 552.1,215.2 553.2,218.2 554.2,217.3 555.2,214.8 556.3,215.4 557.3,214.6 558.3,214.7 559.4,215.2 560.4,214.8 561.4,214.2 562.5,223.7 563.5,228.2 564.5,226.9 565.6,226.3 566.6,226.8 567.6,228.1 568.7,227.4 569.7,231.0 570.7,230.3 571.8,228.8 572.8,229.5 573.8,226.4 574.9,229.2 575.9,252.6 576.9,255.0 578.0,255.0 579.0,254.8 580.0,253.3 581.1,254.4 582.1,255.6 583.1,223.9 584.2,224.1 585.2,222.3 586.2,221.1 587.3,220.7 588.3,222.0 589.3,214.0 590.4,212.7 591.4,213.9 592.4,214.1 593.5,210.6 594.5,207.3 595.5,208.5 596.6,216.9 597.6,216.3 598.6,215.4 599.7,218.1 600.7,219.0 601.7,218.2 602.8,215.4 603.8,271.9 604.8,274.0 605.9,273.3 606.9,270.4 607.9,269.3 609.0,268.9 610.0,249.8 611.0,249.5 612.1,247.0 613.1,248.1 614.1,246.3 615.2,241.9 616.2,243.1 617.2,197.5 618.3,196.6 619.3,197.3 620.3,195.8 621.4,192.4 622.4,193.4 623.4,193.9 624.5,209.0 625.5,209.8 626.5,207.7 627.6,207.8 628.6,211.0 629.6,213.6 630.7,206.5 631.7,208.2 632.7,208.8 633.8,209.5 634.8,210.5 635.8,209.1 636.9,208.1 637.9,188.5 638.9,188.6 640.0,187.3 641.0,189.1 642.0,189.1 643.1,190.5 644.1,189.5 645.1,212.9 646.2,214.2 647.2,214.9 648.2,213.1 649.3,210.0 650.3,210.5 651.3,154.2 652.4,155.3 653.4,155.2 654.4,155.7 655.5,155.6 656.5,161.0 657.5,161.3 658.6,215.1 659.6,214.9 660.6,214.3 661.7,216.5 662.7,217.1 663.7,217.1 664.8,219.0 665.8,210.5 666.8,204.2 667.9,203.8 668.9,207.3 669.9,206.9 671.0,207.8 672.0,196.2 673.0,197.6 674.1,198.2 675.1,197.0 676.1,196.3 677.2,193.5 678.2,194.2 679.2,234.1 680.3,231.9 681.3,230.8 682.3,232.9 683.4,234.0 684.4,230.3 685.4,230.6 686.5,222.7 687.5,228.0 688.5,227.8 689.6,224.6 690.6,226.5 691.6,226.6 692.7,233.9 693.7,230.7 694.7,233.4 695.8,234.7 696.8,232.4 697.8,231.0 698.9,229.8 699.9,210.6 700.9,207.9 702.0,208.3 703.0,205.9 704.0,205.2 705.1,202.3 706.1,201.5 707.1,269.0 708.2,270.0 709.2,268.2 710.2,270.0 711.3,269.6 712.3,268.8 713.3,227.4 714.4,225.6 715.4,226.9 716.4,224.1 717.5,223.5 718.5,225.3 719.5,225.1 720.6,231.0 721.6,229.1 722.6,230.8 723.7,228.6 724.7,229.8 725.7,228.9 726.8,227.8 727.8,197.5 728.8,208.0 729.9,207.9 730.9,208.8 731.9,208.8 733.0,210.8 734.0,257.9 735.0,268.2 736.1,267.6 737.1,267.0 738.1,264.5 739.2,260.4 740.2,262.8 741.2,155.6 742.3,155.1 743.3,155.2 744.3,152.8 745.4,150.5 746.4,152.3 747.4,154.7 748.5,187.8 749.5,192.0 750.5,192.7 751.6,192.8 752.6,195.6 753.6,192.5 754.7,161.3 755.7,163.9 756.7,163.0 757.8,163.8 758.8,165.0 759.8,161.8 760.9,163.0 761.9,186.3 762.9,187.0 764.0,188.4 765.0,187.8 766.0,187.0 767.1,187.2 768.1,185.0 769.1,204.6 770.2,205.0 771.2,202.3 772.2,201.0 773.3,202.7 774.3,202.3 775.3,195.1 776.4,193.1 777.4,193.0 778.4,190.6 779.5,189.2 780.5,197.7 781.5,199.2 782.6,243.3 783.6,242.2 784.6,241.5 785.7,233.5 786.7,233.9 787.7,233.3 788.8,232.2 789.8,228.7 790.8,226.5 791.9,226.4 792.9,224.1 793.9,221.3 795.0,223.7 796.0,187.6"/>
<text x="640" y="56" font-family="Arial" font-size="12" fill="#0f766e">ekf_dropout_robust velocity error</text>
</svg>