<svg xmlns="http://www.w3.org/2000/svg" width="820" height="320" viewBox="0 0 820 320">
<rect width="100%" height="100%" fill="white"/>
<text x="52" y="30" font-family="Arial" font-size="18" font-weight="700">robust_nominal velocity error</text>
<line x1="52" y1="274" x2="796" y2="274" stroke="#263238"/>
<line x1="52" y1="42" x2="52" y2="274" stroke="#263238"/>
<text x="52" y="306" font-family="Arial" font-size="12">time (s)</text>
<text x="630" y="306" font-family="Arial" font-size="12">m/s</text>

<rect x="630.7" y="42" width="165.3" height="232" fill="#fef3c7" opacity="0.72"/>
<polyline fill="none" stroke="#0f766e" stroke-width="2.3" points="52.0,215.1 53.0,218.1 54.1,220.5 55.1,222.1 56.1,223.9 57.2,219.6 58.2,223.7 59.2,169.3 60.3,166.9 61.3,167.7 62.3,167.6 63.4,163.1 64.4,162.6 65.4,165.1 66.5,137.6 67.5,134.9 68.5,123.1 69.6,115.6 70.6,107.7 71.6,98.2 72.7,242.2 73.7,238.7 74.7,239.3 75.8,237.7 76.8,235.1 77.8,233.9 78.9,232.0 79.9,134.0 80.9,124.7 82.0,116.0 83.0,109.4 84.0,100.1 85.1,91.0 86.1,78.5 87.1,211.1 88.2,211.4 89.2,204.5 90.2,198.2 91.3,192.0 92.3,186.6 93.3,74.6 94.4,64.6 95.4,56.2 96.4,50.6 97.5,42.0 98.5,53.2 99.5,44.6 100.6,134.7 101.6,129.7 102.6,126.5 103.7,120.5 104.7,113.9 105.7,109.0 106.8,101.2 107.8,157.5 108.8,162.7 109.9,159.5 110.9,154.3 111.9,150.7 113.0,149.1 114.0,219.7 115.0,222.8 116.1,215.6 117.1,213.0 118.1,209.8 119.2,187.9 120.2,185.2 121.2,211.2 122.3,208.8 123.3,206.0 124.3,203.8 125.4,199.4 126.4,197.7 127.4,193.5 128.5,249.2 129.5,252.3 130.5,245.9 131.6,243.6 132.6,242.8 133.6,243.2 134.7,215.5 135.7,208.4 136.7,205.7 137.8,206.0 138.8,201.9 139.8,199.2 140.9,198.4 141.9,180.4 142.9,176.5 144.0,175.8 145.0,182.9 146.0,183.6 147.1,182.8 148.1,180.2 149.1,204.0 150.2,202.0 151.2,201.0 152.2,199.3 153.3,195.7 154.3,195.1 155.3,207.8 156.4,203.3 157.4,203.7 158.4,204.0 159.5,206.4 160.5,203.3 161.5,201.6 162.6,200.9 163.6,196.4 164.6,195.9 165.7,200.7 166.7,201.6 167.7,199.9 168.8,200.9 169.8,238.8 170.8,242.5 171.9,243.2 172.9,241.8 173.9,241.0 175.0,242.7 176.0,265.1 177.0,265.8 178.1,267.2 179.1,267.5 180.1,267.5 181.2,266.4 182.2,266.9 183.2,212.9 184.3,212.4 185.3,211.6 186.3,214.1 187.4,214.9 188.4,214.6 189.4,215.1 190.5,214.0 191.5,211.8 192.5,210.1 193.6,208.1 194.6,207.4 195.6,207.4 196.7,255.4 197.7,253.7 198.7,254.9 199.8,255.1 200.8,253.7 201.8,249.8 202.9,249.1 203.9,264.6 204.9,264.1 206.0,267.3 207.0,266.1 208.0,268.3 209.1,269.4 210.1,270.4 211.1,254.7 212.2,257.5 213.2,258.5 214.2,258.4 215.3,262.8 216.3,265.0 217.3,240.3 218.4,235.1 219.4,233.3 220.4,229.2 221.5,225.2 222.5,222.2 223.5,219.1 224.6,230.9 225.6,229.4 226.6,229.4 227.7,227.1 228.7,225.5 229.7,225.7 230.8,223.7 231.8,218.9 232.8,218.3 233.9,216.2 234.9,215.0 235.9,213.5 237.0,212.6 238.0,213.0 239.0,215.8 240.1,214.2 241.1,211.6 242.1,211.6 243.2,221.7 244.2,219.6 245.2,202.0 246.3,203.3 247.3,204.7 248.3,201.9 249.4,198.7 250.4,199.0 251.4,199.2 252.5,219.7 253.5,226.5 254.5,227.4 255.6,226.5 256.6,224.8 257.6,225.1 258.7,228.8 259.7,228.1 260.7,227.4 261.8,230.7 262.8,228.8 263.8,227.2 264.9,227.4 265.9,217.9 266.9,216.3 268.0,217.0 269.0,219.0 270.0,219.2 271.1,218.5 272.1,216.4 273.1,212.2 274.2,215.2 275.2,215.8 276.2,219.1 277.3,215.9 278.3,215.7 279.3,224.7 280.4,225.8 281.4,229.9 282.4,229.8 283.5,228.1 284.5,231.0 285.5,229.0 286.6,234.7 287.6,237.3 288.6,233.9 289.7,231.9 290.7,229.9 291.7,235.0 292.8,235.8 293.8,237.3 294.8,237.1 295.9,238.4 296.9,238.0 297.9,240.9 299.0,244.3 300.0,240.4 301.0,241.0 302.1,242.3 303.1,243.9 304.1,241.1 305.2,241.4 306.2,242.6 307.2,270.2 308.3,273.5 309.3,273.3 310.3,265.2 311.4,263.4 312.4,262.3 313.4,262.3 314.5,263.2 315.5,262.0 316.5,257.6 317.6,258.4 318.6,256.8 319.6,258.2 320.7,250.0 321.7,250.5 322.7,251.5 323.8,252.0 324.8,252.2 325.8,253.1 326.9,254.6 327.9,270.0 328.9,269.5 330.0,267.0 331.0,258.3 332.0,259.6 333.1,261.1 334.1,262.4 335.1,221.4 336.2,221.8 337.2,221.3 338.2,216.7 339.3,214.5 340.3,216.4 341.3,204.3 342.4,202.6 343.4,200.6 344.4,199.9 345.5,198.2 346.5,203.1 347.5,204.1 348.6,238.4 349.6,242.1 350.6,244.1 351.7,244.8 352.7,243.6 353.7,243.2 354.8,242.1 355.8,254.3 356.8,244.6 357.9,239.7 358.9,239.9 359.9,239.0 361.0,237.6 362.0,271.9 363.0,271.2 364.1,270.3 365.1,270.6 366.1,271.5 367.2,271.9 368.2,274.0 369.2,261.1 370.3,260.4 371.3,261.0 372.3,256.4 373.4,258.9 374.4,261.2 375.4,259.5 376.5,262.3 377.5,258.0 378.5,260.2 379.6,259.4 380.6,261.5 381.6,260.3 382.7,267.4 383.7,264.9 384.7,263.7 385.8,262.9 386.8,262.8 387.8,259.3 388.9,259.3 389.9,251.5 390.9,248.5 392.0,250.3 393.0,248.8 394.0,247.8 395.1,248.2 396.1,251.0 397.1,260.3 398.2,253.5 399.2,254.1 400.2,255.3 401.3,252.1 402.3,252.4 403.3,257.7 404.4,256.8 405.4,255.7 406.4,254.5 407.5,252.8 408.5,254.0 409.5,250.6 410.6,248.8 411.6,248.8 412.6,248.3 413.7,241.4 414.7,240.9 415.7,242.5 416.8,241.7 417.8,239.6 418.8,241.3 419.9,240.3 420.9,242.3 421.9,242.8 423.0,239.4 424.0,235.2 425.0,231.5 426.1,228.4 427.1,227.2 428.1,227.0 429.2,228.4 430.2,232.5 431.2,226.1 432.3,228.2 433.3,228.7 434.3,233.6 435.4,233.9 436.4,231.2 437.4,228.2 438.5,203.5 439.5,203.2 440.5,201.9 441.6,200.5 442.6,201.1 443.6,200.7 444.7,227.9 445.7,228.4 446.7,229.5 447.8,228.3 448.8,231.3 449.8,230.4 450.9,230.1 451.9,218.7 452.9,221.0 454.0,220.1 455.0,216.1 456.0,217.5 457.1,217.7 458.1,217.3 459.1,241.0 460.2,241.1 461.2,242.4 462.2,242.5 463.3,243.6 464.3,243.0 465.3,263.1 466.4,265.4 467.4,267.2 468.4,266.7 469.5,267.0 470.5,262.6 471.5,265.8 472.6,270.8 473.6,269.6 474.6,270.0 475.7,270.0 476.7,270.3 477.7,269.4 478.8,271.8 479.8,252.5 480.8,252.2 481.9,249.2 482.9,249.8 483.9,249.0 485.0,248.6 486.0,254.7 487.0,255.5 488.1,259.8 489.1,260.4 490.1,260.2 491.2,261.5 492.2,259.0 493.2,261.1 494.3,261.4 495.3,260.8 496.3,249.1 497.4,250.9 498.4,250.8 499.4,250.7 500.5,259.5 501.5,255.6 502.5,254.1 503.6,253.1 504.6,252.6 505.6,255.6 506.7,259.8 507.7,256.8 508.7,254.2 509.8,251.9 510.8,253.8 511.8,255.8 512.9,257.7 513.9,264.5 514.9,265.6 516.0,266.2 517.0,268.7 518.0,267.7 519.1,266.6 520.1,268.3 521.1,248.8 522.2,253.7 523.2,254.4 524.2,254.9 525.3,253.4 526.3,252.9 527.3,254.4 528.4,253.8 529.4,255.0 530.4,253.5 531.5,253.7 532.5,259.9 533.5,260.7 534.6,263.0 535.6,262.4 536.6,263.4 537.7,265.7 538.7,266.8 539.7,267.9 540.8,267.3 541.8,257.6 542.8,248.0 543.9,248.1 544.9,249.7 545.9,248.5 547.0,249.7 548.0,234.0 549.0,234.3 550.1,229.5 551.1,231.5 552.1,229.5 553.2,233.9 554.2,233.2 555.2,230.3 556.3,230.8 557.3,230.2 558.3,230.8 559.4,231.8 560.4,231.1 561.4,231.1 562.5,232.6 563.5,239.2 564.5,238.0 565.6,237.4 566.6,238.0 567.6,239.2 568.7,240.5 569.7,244.2 570.7,243.6 571.8,242.3 572.8,243.2 573.8,239.8 574.9,242.9 575.9,251.5 576.9,254.0 578.0,253.7 579.0,253.0 580.0,251.5 581.1,252.4 582.1,253.5 583.1,237.9 584.2,238.0 585.2,236.9 586.2,235.7 587.3,234.9 588.3,236.0 589.3,231.8 590.4,230.6 591.4,231.9 592.4,232.1 593.5,228.1 594.5,225.3 595.5,226.7 596.6,230.6 597.6,229.9 598.6,229.1 599.7,230.3 600.7,230.3 601.7,230.4 602.8,227.5 603.8,253.9 604.8,252.7 605.9,252.7 606.9,249.5 607.9,247.8 609.0,247.7 610.0,245.2 611.0,247.1 612.1,244.8 613.1,248.7 614.1,247.7 615.2,246.4 616.2,248.5 617.2,265.0 618.3,264.9 619.3,264.7 620.3,261.3 621.4,260.0 622.4,258.4 623.4,257.2 624.5,261.6 625.5,267.5 626.5,265.9 627.6,264.5 628.6,269.1 629.6,269.1 630.7,250.1 631.7,252.9 632.7,251.1 633.8,252.8 634.8,254.0 635.8,251.8 636.9,251.1 637.9,241.1 638.9,240.1 640.0,239.1 641.0,240.3 642.0,241.6 643.1,243.1 644.1,240.2 645.1,236.4 646.2,235.3 647.2,236.5 648.2,235.3 649.3,231.5 650.3,231.7 651.3,198.4 652.4,200.6 653.4,200.2 654.4,200.7 655.5,201.0 656.5,208.8 657.5,209.8 658.6,228.6 659.6,228.9 660.6,228.3 661.7,229.8 662.7,230.4 663.7,230.2 664.8,232.7 665.8,224.9 666.8,215.4 667.9,215.2 668.9,218.2 669.9,217.3 671.0,218.5 672.0,211.0 673.0,212.8 674.1,214.2 675.1,213.1 676.1,212.2 677.2,206.8 678.2,207.3 679.2,221.8 680.3,219.3 681.3,218.8 682.3,222.1 683.4,223.4 684.4,219.1 685.4,219.5 686.5,214.8 687.5,221.9 688.5,221.5 689.6,218.0 690.6,220.1 691.6,220.4 692.7,231.9 693.7,232.6 694.7,233.5 695.8,234.0 696.8,235.0 697.8,238.9 698.9,240.2 699.9,236.8 700.9,233.5 702.0,231.9 703.0,232.4 704.0,231.7 705.1,230.1 706.1,228.5 707.1,250.6 708.2,245.6 709.2,244.5 710.2,246.2 711.3,246.4 712.3,246.0 713.3,228.5 714.4,226.4 715.4,227.0 716.4,224.2 717.5,224.2 718.5,226.1 719.5,226.6 720.6,238.8 721.6,235.6 722.6,235.2 723.7,231.5 724.7,231.4 725.7,230.0 726.8,228.6 727.8,212.1 728.8,224.4 729.9,224.4 730.9,226.8 731.9,226.8 733.0,229.9 734.0,249.4 735.0,250.5 736.1,251.3 737.1,250.4 738.1,247.8 739.2,246.7 740.2,247.3 741.2,222.1 742.3,222.2 743.3,221.6 744.3,219.6 745.4,218.6 746.4,220.3 747.4,223.7 748.5,231.6 749.5,239.1 750.5,241.0 751.6,241.3 752.6,243.8 753.6,239.8 754.7,207.9 755.7,209.4 756.7,209.4 757.8,210.3 758.8,212.0 759.8,208.4 760.9,209.6 761.9,226.7 762.9,227.5 764.0,229.1 765.0,226.6 766.0,227.5 767.1,227.1 768.1,224.8 769.1,219.5 770.2,220.6 771.2,219.2 772.2,217.4 773.3,220.9 774.3,219.9 775.3,214.7 776.4,213.6 777.4,213.9 778.4,211.4 779.5,210.0 780.5,222.0 781.5,223.7 782.6,247.5 783.6,246.7 784.6,246.2 785.7,234.6 786.7,235.3 787.7,235.9 788.8,235.5 789.8,243.9 790.8,245.2 791.9,244.6 792.9,245.5 793.9,244.5 795.0,245.2 796.0,219.8"/>
<text x="640" y="56" font-family="Arial" font-size="12" fill="#0f766e">robust_nominal velocity error</text>
</svg>