<svg xmlns="http://www.w3.org/2000/svg" width="820" height="320" viewBox="0 0 820 320">
<rect width="100%" height="100%" fill="white"/>
<text x="52" y="30" font-family="Arial" font-size="18" font-weight="700">robust_dropout_robust velocity error</text>
<line x1="52" y1="274" x2="796" y2="274" stroke="#263238"/>
<line x1="52" y1="42" x2="52" y2="274" stroke="#263238"/>
<text x="52" y="306" font-family="Arial" font-size="12">time (s)</text>
<text x="630" y="306" font-family="Arial" font-size="12">m/s</text>

<rect x="630.7" y="42" width="165.3" height="232" fill="#fef3c7" opacity="0.72"/>
<polyline fill="none" stroke="#0f766e" stroke-width="2.3" points="52.0,222.3 53.0,225.1 54.1,227.5 55.1,229.0 56.1,230.8 57.2,228.9 58.2,232.9 59.2,178.1 60.3,175.8 61.3,176.6 62.3,174.9 63.4,170.5 64.4,170.0 65.4,172.4 66.5,145.2 67.5,141.1 68.5,129.8 69.6,122.8 70.6,115.4 71.6,106.4 72.7,249.7 73.7,246.0 74.7,245.7 75.8,243.8 76.8,241.0 77.8,239.3 78.9,236.9 79.9,136.8 80.9,128.1 82.0,119.9 83.0,112.5 84.0,103.8 85.1,95.1 86.1,83.3 87.1,216.8 88.2,214.9 89.2,208.1 90.2,202.0 91.3,195.9 92.3,190.6 93.3,78.8 94.4,69.1 95.4,61.1 96.4,55.8 97.5,47.6 98.5,50.3 99.5,42.0 100.6,140.0 101.6,135.1 102.6,132.0 103.7,127.8 104.7,121.5 105.7,116.8 106.8,109.3 107.8,169.9 108.8,170.6 109.9,167.5 110.9,162.5 111.9,159.1 113.0,157.5 114.0,235.4 115.0,238.5 116.1,231.6 117.1,229.1 118.1,226.1 119.2,213.0 120.2,210.6 121.2,195.3 122.3,192.4 123.3,189.4 124.3,187.0 125.4,182.3 126.4,180.1 127.4,175.8 128.5,232.5 129.5,234.0 130.5,228.0 131.6,225.9 132.6,225.4 133.6,225.4 134.7,233.9 135.7,227.2 136.7,225.1 137.8,225.5 138.8,222.4 139.8,220.7 140.9,220.2 141.9,188.8 142.9,185.3 144.0,184.7 145.0,187.4 146.0,187.7 147.1,187.2 148.1,184.6 149.1,197.9 150.2,198.3 151.2,196.6 152.2,194.8 153.3,191.5 154.3,191.2 155.3,203.1 156.4,197.8 157.4,197.9 158.4,199.2 159.5,200.4 160.5,197.3 161.5,196.8 162.6,207.8 163.6,203.3 164.6,202.6 165.7,205.5 166.7,206.4 167.7,204.9 168.8,206.0 169.8,254.5 170.8,257.6 171.9,259.0 172.9,257.8 173.9,258.0 175.0,260.0 176.0,242.1 177.0,240.8 178.1,241.8 179.1,241.7 180.1,242.1 181.2,242.2 182.2,242.6 183.2,198.3 184.3,197.6 185.3,196.2 186.3,199.8 187.4,200.1 188.4,199.2 189.4,199.6 190.5,203.5 191.5,202.2 192.5,201.1 193.6,199.4 194.6,199.6 195.6,199.2 196.7,235.6 197.7,233.5 198.7,236.4 199.8,234.5 200.8,233.7 201.8,231.9 202.9,232.5 203.9,259.3 204.9,257.4 206.0,259.7 207.0,256.5 208.0,260.3 209.1,259.4 210.1,260.2 211.1,259.4 212.2,261.4 213.2,262.2 214.2,262.3 215.3,265.3 216.3,266.9 217.3,221.5 218.4,218.5 219.4,217.5 220.4,213.2 221.5,209.5 222.5,206.9 223.5,203.9 224.6,231.2 225.6,230.1 226.6,230.6 227.7,229.8 228.7,228.2 229.7,228.6 230.8,226.4 231.8,202.3 232.8,202.8 233.9,200.5 234.9,198.4 235.9,197.2 237.0,195.5 238.0,179.4 239.0,181.6 240.1,179.4 241.1,176.7 242.1,175.7 243.2,182.8 244.2,180.2 245.2,147.3 246.3,149.1 247.3,150.6 248.3,148.6 249.4,146.0 250.4,146.5 251.4,146.6 252.5,177.6 253.5,183.1 254.5,183.6 255.6,182.6 256.6,181.5 257.6,182.4 258.7,202.0 259.7,201.9 260.7,202.1 261.8,204.3 262.8,203.2 263.8,201.6 264.9,202.4 265.9,192.8 266.9,191.4 268.0,191.7 269.0,196.7 270.0,196.8 271.1,196.7 272.1,195.8 273.1,179.3 274.2,178.9 275.2,179.0 276.2,181.4 277.3,179.1 278.3,178.0 279.3,209.0 280.4,211.3 281.4,214.9 282.4,215.9 283.5,214.2 284.5,214.3 285.5,212.9 286.6,235.8 287.6,238.1 288.6,234.9 289.7,234.4 290.7,232.7 291.7,237.4 292.8,238.3 293.8,226.1 294.8,227.3 295.9,227.8 296.9,226.7 297.9,230.3 299.0,233.1 300.0,245.4 301.0,245.6 302.1,247.6 303.1,248.8 304.1,246.3 305.2,246.8 306.2,248.6 307.2,253.6 308.3,255.5 309.3,255.5 310.3,248.0 311.4,246.6 312.4,244.0 313.4,243.5 314.5,236.3 315.5,234.3 316.5,231.4 317.6,231.4 318.6,228.9 319.6,230.6 320.7,235.8 321.7,235.3 322.7,236.6 323.8,237.6 324.8,237.9 325.8,238.2 326.9,238.8 327.9,265.5 328.9,264.6 330.0,264.0 331.0,258.1 332.0,258.6 333.1,257.8 334.1,257.8 335.1,186.7 336.2,187.0 337.2,186.2 338.2,181.9 339.3,179.2 340.3,180.9 341.3,155.4 342.4,153.2 343.4,151.0 344.4,150.2 345.5,148.3 346.5,151.6 347.5,152.0 348.6,225.5 349.6,230.4 350.6,232.7 351.7,237.2 352.7,234.0 353.7,234.1 354.8,233.6 355.8,217.2 356.8,209.6 357.9,204.0 358.9,204.0 359.9,202.6 361.0,202.4 362.0,251.0 363.0,251.0 364.1,255.9 365.1,255.6 366.1,255.3 367.2,256.4 368.2,258.0 369.2,264.4 370.3,264.0 371.3,265.7 372.3,264.7 373.4,265.7 374.4,266.4 375.4,265.7 376.5,257.7 377.5,252.8 378.5,254.7 379.6,252.9 380.6,255.4 381.6,252.8 382.7,249.6 383.7,247.0 384.7,248.0 385.8,245.3 386.8,245.7 387.8,244.5 388.9,244.3 389.9,246.8 390.9,244.0 392.0,245.1 393.0,245.2 394.0,244.7 395.1,244.4 396.1,247.0 397.1,274.0 398.2,268.6 399.2,269.6 400.2,270.2 401.3,267.8 402.3,267.8 403.3,261.0 404.4,258.4 405.4,258.3 406.4,257.8 407.5,256.0 408.5,255.1 409.5,251.7 410.6,253.3 411.6,253.2 412.6,253.7 413.7,251.1 414.7,251.4 415.7,253.4 416.8,252.2 417.8,222.8 418.8,225.7 419.9,226.6 420.9,227.5 421.9,227.3 423.0,225.7 424.0,226.4 425.0,222.7 426.1,220.0 427.1,218.6 428.1,218.2 429.2,217.8 430.2,221.4 431.2,212.5 432.3,214.5 433.3,214.9 434.3,218.4 435.4,218.6 436.4,215.9 437.4,213.1 438.5,164.6 439.5,164.0 440.5,162.5 441.6,161.1 442.6,161.6 443.6,160.5 444.7,216.7 445.7,217.2 446.7,217.8 447.8,217.2 448.8,219.5 449.8,219.3 450.9,218.8 451.9,207.0 452.9,208.9 454.0,208.4 455.0,205.0 456.0,205.9 457.1,206.0 458.1,205.4 459.1,250.0 460.2,252.7 461.2,254.5 462.2,254.7 463.3,257.2 464.3,255.9 465.3,268.2 466.4,266.6 467.4,265.3 468.4,266.1 469.5,267.3 470.5,269.3 471.5,266.8 472.6,257.2 473.6,259.6 474.6,260.0 475.7,256.3 476.7,257.4 477.7,256.0 478.8,254.5 479.8,231.8 480.8,230.0 481.9,225.9 482.9,226.0 483.9,225.1 485.0,225.2 486.0,243.2 487.0,242.8 488.1,247.1 489.1,247.3 490.1,246.7 491.2,249.4 492.2,247.2 493.2,252.3 494.3,252.8 495.3,253.3 496.3,245.3 497.4,246.2 498.4,246.5 499.4,245.0 500.5,266.8 501.5,263.6 502.5,262.4 503.6,261.5 504.6,260.3 505.6,262.9 506.7,248.9 507.7,244.9 508.7,243.0 509.8,240.2 510.8,240.6 511.8,239.3 512.9,239.7 513.9,263.1 514.9,264.2 516.0,264.4 517.0,266.4 518.0,265.3 519.1,264.3 520.1,266.1 521.1,223.5 522.2,228.9 523.2,229.6 524.2,229.8 525.3,227.9 526.3,227.1 527.3,225.2 528.4,224.8 529.4,225.8 530.4,224.0 531.5,224.2 532.5,228.6 533.5,229.0 534.6,240.6 535.6,240.1 536.6,241.1 537.7,243.4 538.7,243.9 539.7,245.1 540.8,245.3 541.8,244.4 542.8,238.6 543.9,238.6 544.9,240.2 545.9,238.7 547.0,239.6 548.0,216.6 549.0,216.8 550.1,212.0 551.1,213.9 552.1,211.8 553.2,215.1 554.2,214.2 555.2,211.9 556.3,212.5 557.3,211.6 558.3,211.9 559.4,212.4 560.4,212.0 561.4,211.4 562.5,221.1 563.5,225.9 564.5,224.6 565.6,223.9 566.6,224.4 567.6,225.7 568.7,224.9 569.7,228.5 570.7,227.8 571.8,226.2 572.8,227.0 573.8,223.8 574.9,226.7 575.9,250.7 576.9,253.2 578.0,253.2 579.0,253.1 580.0,251.5 581.1,252.6 582.1,253.9 583.1,221.1 584.2,221.3 585.2,219.4 586.2,218.2 587.3,217.8 588.3,219.1 589.3,210.8 590.4,209.4 591.4,210.6 592.4,210.8 593.5,207.1 594.5,203.7 595.5,204.9 596.6,213.6 597.6,213.0 598.6,212.1 599.7,214.8 600.7,215.8 601.7,214.9 602.8,212.0 603.8,270.6 604.8,272.8 605.9,272.0 606.9,268.9 607.9,267.8 609.0,267.4 610.0,247.6 611.0,247.3 612.1,244.6 613.1,245.7 614.1,243.8 615.2,239.2 616.2,240.3 617.2,228.8 618.3,228.2 619.3,228.5 620.3,226.9 621.4,223.9 622.4,224.4 623.4,224.5 624.5,232.8 625.5,234.4 626.5,232.6 627.6,232.4 628.6,236.1 629.6,238.4 630.7,217.1 631.7,219.7 632.7,219.8 633.8,221.2 634.8,222.2 635.8,220.8 636.9,219.7 637.9,192.9 638.9,192.6 640.0,191.2 641.0,193.0 642.0,193.3 643.1,194.8 644.1,193.5 645.1,211.7 646.2,213.5 647.2,213.9 648.2,212.1 649.3,209.1 650.3,209.6 651.3,151.6 652.4,152.9 653.4,152.8 654.4,153.2 655.5,153.1 656.5,158.8 657.5,159.4 658.6,211.0 659.6,210.8 660.6,210.1 661.7,212.5 662.7,213.3 663.7,213.2 664.8,215.2 665.8,206.3 666.8,199.9 667.9,199.5 668.9,203.2 669.9,203.0 671.0,203.8 672.0,195.2 673.0,196.7 674.1,197.4 675.1,196.3 676.1,195.7 677.2,192.7 678.2,193.3 679.2,231.8 680.3,229.7 681.3,228.2 682.3,230.2 683.4,231.2 684.4,227.4 685.4,227.6 686.5,219.8 687.5,225.4 688.5,225.2 689.6,221.9 690.6,223.9 691.6,223.9 692.7,232.7 693.7,229.7 694.7,232.4 695.8,233.7 696.8,231.7 697.8,230.6 698.9,229.7 699.9,209.5 700.9,206.6 702.0,206.9 703.0,204.6 704.0,203.8 705.1,200.9 706.1,199.9 707.1,269.3 708.2,269.6 709.2,267.8 710.2,269.7 711.3,269.3 712.3,268.5 713.3,223.3 714.4,221.5 715.4,222.8 716.4,219.9 717.5,219.3 718.5,221.2 719.5,221.1 720.6,227.6 721.6,225.6 722.6,227.3 723.7,225.1 724.7,226.4 725.7,225.4 726.8,224.2 727.8,192.7 728.8,203.6 729.9,203.5 730.9,204.4 731.9,204.4 733.0,206.5 734.0,255.7 735.0,264.2 736.1,263.5 737.1,262.8 738.1,260.2 739.2,256.1 740.2,258.5 741.2,160.2 742.3,159.7 743.3,159.7 744.3,157.5 745.4,155.1 746.4,156.9 747.4,159.5 748.5,189.3 749.5,194.1 750.5,195.0 751.6,195.2 752.6,198.3 753.6,195.6 754.7,163.7 755.7,166.1 756.7,165.1 757.8,166.0 758.8,167.4 759.8,164.2 760.9,165.4 761.9,183.4 762.9,184.2 764.0,185.5 765.0,184.2 766.0,183.7 767.1,183.8 768.1,181.1 769.1,205.0 770.2,205.4 771.2,203.4 772.2,202.2 773.3,204.1 774.3,203.6 775.3,190.6 776.4,189.0 777.4,189.0 778.4,186.3 779.5,184.7 780.5,193.6 781.5,194.9 782.6,245.2 783.6,243.7 784.6,243.0 785.7,234.3 786.7,234.5 787.7,234.1 788.8,233.0 789.8,230.5 790.8,228.3 791.9,228.2 792.9,225.8 793.9,222.9 795.0,225.5 796.0,185.5"/>
<text x="640" y="56" font-family="Arial" font-size="12" fill="#0f766e">robust_dropout_robust velocity error</text>
</svg>