<svg xmlns="http://www.w3.org/2000/svg" width="820" height="320" viewBox="0 0 820 320">
<rect width="100%" height="100%" fill="white"/>
<text x="52" y="30" font-family="Arial" font-size="18" font-weight="700">ekf_dropout_robust covariance bounds</text>
<line x1="52" y1="274" x2="796" y2="274" stroke="#263238"/>
<line x1="52" y1="42" x2="52" y2="274" stroke="#263238"/>
<text x="52" y="306" font-family="Arial" font-size="12">time (s)</text>
<text x="630" y="306" font-family="Arial" font-size="12">m</text>

<polyline fill="none" stroke="#0f766e" stroke-width="2.3" points="52.0,46.8 52.8,46.5 53.7,46.3 54.5,46.1 55.3,45.8 56.1,45.6 57.0,45.3 57.8,45.1 58.6,44.8 59.4,44.6 60.3,44.4 61.1,44.1 61.9,43.9 62.7,43.7 63.6,43.4 64.4,43.2 65.2,42.8 66.1,42.6 66.9,42.3 67.7,42.0 68.5,211.8 69.4,215.0 70.2,217.9 71.0,220.4 71.8,222.8 72.7,224.4 73.5,225.4 74.3,225.8 75.1,225.8 76.0,225.1 76.8,223.8 77.6,222.0 78.5,219.5 79.3,216.8 80.1,213.6 80.9,210.1 81.8,206.7 82.6,202.7 83.4,198.4 84.2,194.0 85.1,254.7 85.9,250.7 86.7,246.6 87.5,242.3 88.4,237.8 89.2,233.4 90.0,228.9 90.9,224.4 91.7,219.8 92.5,215.2 93.3,210.6 94.2,206.0 95.0,201.3 95.8,196.6 96.6,192.0 97.5,187.4 98.3,182.7 99.1,178.0 99.9,173.4 100.8,168.7 101.6,199.0 102.4,195.2 103.3,191.4 104.1,187.6 104.9,183.9 105.7,180.1 106.6,176.2 107.4,172.4 108.2,168.8 109.0,165.0 109.9,161.1 110.7,157.3 111.5,153.7 112.3,149.8 113.2,146.0 114.0,142.1 114.8,138.1 115.7,134.3 116.5,130.4 117.3,126.6 118.1,201.3 119.0,198.9 119.8,196.5 120.6,194.0 121.4,191.5 122.3,189.1 123.1,186.7 123.9,184.3 124.7,182.0 125.6,179.6 126.4,177.3 127.2,174.9 128.1,172.7 128.9,170.3 129.7,168.0 130.5,165.6 131.4,163.3 132.2,161.0 133.0,158.7 133.8,156.3 134.7,199.9 135.5,198.6 136.3,197.3 137.1,196.0 138.0,194.5 138.8,193.3 139.6,192.0 140.5,190.7 141.3,189.5 142.1,188.3 142.9,187.1 143.8,185.8 144.6,184.7 145.4,183.5 146.2,182.3 147.1,181.1 147.9,180.0 148.7,178.8 149.5,177.7 150.4,176.5 151.2,220.2 152.0,219.9 152.9,219.7 153.7,219.4 154.5,219.1 155.3,218.9 156.2,218.7 157.0,218.5 157.8,218.4 158.6,218.2 159.5,218.1 160.3,217.9 161.1,217.8 161.9,217.7 162.8,217.7 163.6,217.6 164.4,217.6 165.3,217.6 166.1,217.6 166.9,217.7 167.7,223.7 168.6,223.9 169.4,224.0 170.2,224.2 171.0,224.4 171.9,224.7 172.7,224.9 173.5,225.1 174.3,225.4 175.2,225.7 176.0,225.9 176.8,226.2 177.7,226.6 178.5,226.9 179.3,227.2 180.1,227.6 181.0,228.0 181.8,228.4 182.6,228.8 183.4,229.2 184.3,250.0 185.1,248.3 185.9,246.6 186.7,244.9 187.6,243.0 188.4,241.1 189.2,239.2 190.1,237.2 190.9,235.0 191.7,233.0 192.5,230.9 193.4,228.7 194.2,226.8 195.0,224.5 195.8,222.3 196.7,220.0 197.5,217.6 198.3,215.2 199.1,212.8 200.0,210.4 200.8,247.1 201.6,245.1 202.5,243.1 203.3,241.1 204.1,238.9 204.9,236.8 205.8,234.6 206.6,232.5 207.4,230.6 208.2,228.4 209.1,226.1 209.9,223.9 210.7,221.6 211.5,219.3 212.4,217.0 213.2,214.6 214.0,212.2 214.9,209.8 215.7,207.3 216.5,204.9 217.3,223.8 218.2,221.6 219.0,219.4 219.8,217.2 220.6,214.9 221.5,212.7 222.3,210.4 223.1,208.0 223.9,205.8 224.8,203.4 225.6,201.0 226.4,198.6 227.3,196.2 228.1,193.7 228.9,191.2 229.7,188.7 230.6,186.1 231.4,183.6 232.2,181.0 233.0,178.4 233.9,191.6 234.7,189.2 235.5,186.7 236.3,184.3 237.2,181.8 238.0,179.3 238.8,176.8 239.7,174.3 240.5,171.8 241.3,169.2 242.1,166.6 243.0,164.0 243.8,161.5 244.6,158.8 245.4,156.1 246.3,153.4 247.1,150.7 247.9,147.9 248.7,145.1 249.6,142.3 250.4,193.7 251.2,191.7 252.1,189.7 252.9,187.7 253.7,185.4 254.5,183.3 255.4,181.2 256.2,179.1 257.0,177.0 257.8,174.8 258.7,172.7 259.5,170.5 260.3,168.3 261.1,166.0 262.0,163.8 262.8,161.5 263.6,159.2 264.5,156.9 265.3,154.6 266.1,152.3 266.9,190.1 267.8,188.3 268.6,186.5 269.4,184.6 270.2,182.8 271.1,180.9 271.9,179.1 272.7,177.2 273.5,175.3 274.4,173.4 275.2,171.5 276.0,169.5 276.9,167.5 277.7,165.5 278.5,163.5 279.3,161.5 280.2,159.4 281.0,157.4 281.8,155.3 282.6,153.2 283.5,243.8 284.3,243.0 285.1,242.1 285.9,241.3 286.8,240.4 287.6,239.6 288.4,238.7 289.3,237.8 290.1,236.4 290.9,235.5 291.7,234.6 292.6,233.7 293.4,233.6 294.2,232.7 295.0,231.8 295.9,230.9 296.7,229.2 297.5,228.2 298.3,227.3 299.2,226.3 300.0,244.1 300.8,243.4 301.7,242.6 302.5,241.9 303.3,240.3 304.1,239.5 305.0,238.7 305.8,237.9 306.6,237.6 307.4,236.8 308.3,236.0 309.1,235.2 309.9,234.5 310.7,233.7 311.6,232.9 312.4,232.0 313.2,231.7 314.1,230.8 314.9,230.0 315.7,229.2 316.5,243.3 317.4,242.7 318.2,242.0 319.0,241.3 319.8,241.4 320.7,240.7 321.5,240.0 322.3,239.3 323.1,238.7 324.0,238.0 324.8,237.2 325.6,236.5 326.5,235.8 327.3,235.1 328.1,234.3 328.9,233.6 329.8,232.8 330.6,232.1 331.4,231.3 332.2,230.5 333.1,259.9 333.9,259.5 334.7,259.1 335.5,258.7 336.4,258.2 337.2,257.8 338.0,257.4 338.9,257.0 339.7,256.6 340.5,256.2 341.3,255.8 342.2,255.4 343.0,255.1 343.8,254.7 344.6,254.3 345.5,253.8 346.3,253.3 347.1,252.9 347.9,252.4 348.8,252.0 349.6,265.5 350.4,265.4 351.3,265.2 352.1,265.1 352.9,264.5 353.7,264.4 354.6,264.2 355.4,264.1 356.2,264.3 357.0,264.1 357.9,263.9 358.7,263.8 359.5,263.2 360.3,263.1 361.2,262.9 362.0,262.7 362.8,262.0 363.7,261.8 364.5,261.6 365.3,261.4 366.1,261.2 367.0,261.1 367.8,261.1 368.6,261.0 369.4,260.6 370.3,260.5 371.1,260.5 371.9,260.4 372.7,260.3 373.6,260.2 374.4,260.1 375.2,260.1 376.1,260.1 376.9,260.0 377.7,259.9 378.5,259.9 379.4,259.7 380.2,259.7 381.0,259.6 381.8,259.5 382.7,262.6 383.5,262.6 384.3,262.5 385.1,262.5 386.0,261.9 386.8,261.9 387.6,261.8 388.5,261.8 389.3,262.6 390.1,262.6 390.9,262.6 391.8,262.6 392.6,262.8 393.4,262.8 394.2,262.8 395.1,262.8 395.9,263.1 396.7,263.1 397.5,263.1 398.4,263.1 399.2,267.8 400.0,267.7 400.9,267.6 401.7,267.6 402.5,267.8 403.3,267.7 404.2,267.6 405.0,267.5 405.8,268.1 406.6,268.0 407.5,267.9 408.3,267.8 409.1,267.8 409.9,267.7 410.8,267.6 411.6,267.5 412.4,267.6 413.3,267.5 414.1,267.4 414.9,267.3 415.7,267.2 416.6,267.0 417.4,266.8 418.2,266.5 419.0,266.3 419.9,266.1 420.7,265.9 421.5,265.7 422.3,265.4 423.2,265.2 424.0,265.0 424.8,264.7 425.7,264.5 426.5,264.2 427.3,263.9 428.1,263.7 429.0,263.4 429.8,263.1 430.6,262.9 431.4,262.6 432.3,251.7 433.1,251.3 433.9,251.0 434.7,250.6 435.6,250.2 436.4,249.8 437.2,249.4 438.1,249.0 438.9,248.5 439.7,248.1 440.5,247.7 441.4,247.3 442.2,246.9 443.0,246.5 443.8,246.0 444.7,245.6 445.5,245.5 446.3,245.0 447.1,244.6 448.0,244.2 448.8,244.9 449.6,244.5 450.5,244.1 451.3,243.8 452.1,243.5 452.9,243.1 453.8,242.7 454.6,242.3 455.4,242.2 456.2,241.8 457.1,241.4 457.9,241.0 458.7,240.3 459.5,239.9 460.4,239.5 461.2,239.1 462.0,239.0 462.9,238.6 463.7,238.2 464.5,237.8 465.3,237.3 466.2,236.8 467.0,236.2 467.8,235.7 468.6,235.5 469.5,235.0 470.3,234.5 471.1,234.0 471.9,233.1 472.8,232.5 473.6,232.0 474.4,231.5 475.3,231.1 476.1,230.5 476.9,230.0 477.7,229.4 478.6,228.7 479.4,228.1 480.2,227.6 481.0,227.0 481.9,246.9 482.7,246.5 483.5,246.1 484.3,245.8 485.2,246.0 486.0,245.6 486.8,245.3 487.7,244.9 488.5,244.9 489.3,244.5 490.1,244.1 491.0,243.8 491.8,243.5 492.6,243.2 493.4,242.8 494.3,242.4 495.1,242.4 495.9,242.0 496.7,241.6 497.6,241.2 498.4,238.7 499.2,238.3 500.1,237.8 500.9,237.4 501.7,237.0 502.5,236.6 503.4,236.1 504.2,235.7 505.0,235.1 505.8,234.7 506.7,234.3 507.5,233.8 508.3,233.5 509.1,233.1 510.0,232.6 510.8,232.2 511.6,231.8 512.5,231.3 513.3,230.8 514.1,230.4 514.9,229.9 515.8,229.5 516.6,229.0 517.4,228.5 518.2,228.0 519.1,227.6 519.9,227.1 520.7,226.6 521.5,226.1 522.4,225.6 523.2,225.1 524.0,224.6 524.9,224.2 525.7,223.7 526.5,223.2 527.3,222.6 528.2,222.2 529.0,221.7 529.8,221.2 530.6,220.6 531.5,220.1 532.3,219.6 533.1,219.0 533.9,218.5 534.8,217.8 535.6,217.3 536.4,216.8 537.3,216.3 538.1,215.9 538.9,215.3 539.7,214.8 540.6,214.3 541.4,213.8 542.2,213.3 543.0,212.8 543.9,212.2 544.7,211.7 545.5,211.2 546.3,210.6 547.2,210.1 548.0,240.1 548.8,239.8 549.7,239.4 550.5,239.1 551.3,238.7 552.1,238.3 553.0,238.0 553.8,237.6 554.6,237.2 555.4,236.8 556.3,236.4 557.1,236.1 557.9,235.7 558.7,235.3 559.6,234.9 560.4,234.5 561.2,234.0 562.1,233.7 562.9,233.3 563.7,232.9 564.5,225.5 565.4,225.0 566.2,224.6 567.0,224.1 567.8,223.5 568.7,223.0 569.5,222.6 570.3,222.1 571.1,221.5 572.0,221.0 572.8,220.5 573.6,220.0 574.5,219.7 575.3,219.2 576.1,218.6 576.9,218.1 577.8,217.5 578.6,217.0 579.4,216.5 580.2,216.0 581.1,240.0 581.9,239.6 582.7,239.3 583.5,238.9 584.4,238.6 585.2,238.2 586.0,237.9 586.9,237.5 587.7,237.1 588.5,236.7 589.3,236.4 590.2,236.0 591.0,235.6 591.8,235.2 592.6,234.8 593.5,234.5 594.3,234.2 595.1,233.9 595.9,233.5 596.8,233.1 597.6,247.6 598.4,247.3 599.3,247.1 600.1,246.8 600.9,246.7 601.7,246.4 602.6,246.2 603.4,245.9 604.2,245.7 605.0,245.4 605.9,245.2 606.7,244.9 607.5,244.9 608.3,244.6 609.2,244.3 610.0,244.1 610.8,243.9 611.7,243.6 612.5,243.3 613.3,243.1 614.1,253.4 615.0,253.2 615.8,253.0 616.6,252.8 617.4,252.6 618.3,252.4 619.1,252.2 619.9,252.0 620.7,251.8 621.6,251.6 622.4,251.4 623.2,251.2 624.1,250.8 624.9,250.6 625.7,250.4 626.5,250.2 627.4,249.9 628.2,249.6 629.0,249.4 629.8,249.2 630.7,253.0 631.5,252.8 632.3,252.6 633.1,252.5 634.0,252.3 634.8,252.1 635.6,252.0 636.5,251.8 637.3,252.0 638.1,251.8 638.9,251.6 639.8,251.5 640.6,251.3 641.4,251.1 642.2,250.9 643.1,250.8 643.9,250.7 644.7,250.6 645.5,250.4 646.4,250.2 647.2,255.0 648.0,254.9 648.9,254.7 649.7,254.6 650.5,254.4 651.3,254.3 652.2,254.2 653.0,254.0 653.8,253.8 654.6,253.7 655.5,253.5 656.3,253.4 657.1,253.3 657.9,253.1 658.8,253.0 659.6,252.8 660.4,252.5 661.3,252.3 662.1,252.2 662.9,252.0 663.7,250.9 664.6,250.7 665.4,250.5 666.2,250.4 667.0,250.1 667.9,249.9 668.7,249.7 669.5,249.6 670.3,249.5 671.2,249.3 672.0,249.1 672.8,249.0 673.7,249.0 674.5,248.8 675.3,248.6 676.1,248.5 677.0,248.3 677.8,248.2 678.6,248.0 679.4,247.8 680.3,273.9 681.1,273.9 681.9,274.0 682.7,274.0 683.6,273.5 684.4,273.5 685.2,273.5 686.1,273.5 686.9,273.6 687.7,273.7 688.5,273.7 689.4,273.7 690.2,273.4 691.0,273.4 691.8,273.4 692.7,273.4 693.5,273.4 694.3,273.4 695.1,273.4 696.0,273.4 696.8,265.4 697.6,265.4 698.5,265.3 699.3,265.3 700.1,264.7 700.9,264.6 701.8,264.6 702.6,264.5 703.4,264.6 704.2,264.6 705.1,264.5 705.9,264.4 706.7,264.0 707.5,263.9 708.4,263.8 709.2,263.7 710.0,265.4 710.9,265.3 711.7,265.3 712.5,265.2 713.3,261.2 714.2,261.1 715.0,261.0 715.8,260.9 716.6,261.8 717.5,261.8 718.3,261.7 719.1,261.6 719.9,262.2 720.8,262.1 721.6,262.1 722.4,262.0 723.3,262.0 724.1,262.0 724.9,261.9 725.7,261.9 726.6,261.9 727.4,261.8 728.2,261.8 729.0,261.7 729.9,265.1 730.7,265.0 731.5,265.0 732.3,265.0 733.2,265.0 734.0,265.0 734.8,265.0 735.7,265.0 736.5,265.0 737.3,265.0 738.1,265.0 739.0,265.0 739.8,264.8 740.6,264.8 741.4,264.8 742.3,264.8 743.1,263.6 743.9,263.5 744.7,263.5 745.6,263.4 746.4,261.5 747.2,261.5 748.1,261.4 748.9,261.3 749.7,262.4 750.5,262.3 751.4,262.3 752.2,262.2 753.0,263.3 753.8,263.2 754.7,263.2 755.5,263.2 756.3,263.3 757.1,263.3 758.0,263.2 758.8,263.2 759.6,263.1 760.5,263.1 761.3,263.1 762.1,263.0 762.9,251.2 763.8,251.1 764.6,250.9 765.4,250.8 766.2,250.6 767.1,250.5 767.9,250.3 768.7,250.2 769.5,250.0 770.4,249.8 771.2,249.7 772.0,249.5 772.9,249.4 773.7,249.2 774.5,249.0 775.3,248.9 776.2,248.7 777.0,248.6 777.8,248.4 778.6,248.2 779.5,244.3 780.3,244.1 781.1,244.0 781.9,243.8 782.8,243.6 783.6,243.5 784.4,243.3 785.3,243.1 786.1,243.0 786.9,242.8 787.7,242.6 788.6,242.5 789.4,242.3 790.2,242.1 791.0,241.9 791.9,241.8 792.7,241.6 793.5,241.4 794.3,241.3 795.2,241.1 796.0,259.4"/>
<text x="640" y="56" font-family="Arial" font-size="12" fill="#0f766e">position error</text>
<polyline fill="none" stroke="#2563eb" stroke-width="2.3" points="52.0,206.0 52.8,205.8 53.7,205.1 54.5,204.0 55.3,204.4 56.1,202.8 57.0,200.8 57.8,198.5 58.6,197.7 59.4,195.1 60.3,192.2 61.1,189.1 61.9,187.4 62.7,184.2 63.6,180.8 64.4,177.3 65.2,174.8 66.1,171.1 66.9,167.4 67.7,163.5 68.5,212.6 69.4,210.2 70.2,207.7 71.0,205.2 71.8,203.3 72.7,200.6 73.5,197.8 74.3,194.9 75.1,192.5 76.0,189.6 76.8,186.5 77.6,183.4 78.5,180.7 79.3,177.6 80.1,174.4 80.9,171.1 81.8,168.2 82.6,164.9 83.4,161.6 84.2,158.2 85.1,212.1 85.9,210.2 86.7,208.2 87.5,206.2 88.4,204.5 89.2,202.5 90.0,200.4 90.9,198.3 91.7,196.4 92.5,194.2 93.3,192.0 94.2,189.8 95.0,187.8 95.8,185.5 96.6,183.2 97.5,180.9 98.3,178.8 99.1,176.4 99.9,174.1 100.8,171.7 101.6,214.8 102.4,213.3 103.3,211.8 104.1,210.3 104.9,209.0 105.7,207.4 106.6,205.8 107.4,204.2 108.2,202.8 109.0,201.1 109.9,199.4 110.7,197.7 111.5,196.2 112.3,194.4 113.2,192.7 114.0,190.9 114.8,189.3 115.7,187.4 116.5,185.5 117.3,183.7 118.1,217.7 119.0,216.5 119.8,215.2 120.6,213.9 121.4,212.8 122.3,211.4 123.1,210.1 123.9,208.6 124.7,207.5 125.6,206.0 126.4,204.5 127.2,203.0 128.1,201.7 128.9,200.2 129.7,198.6 130.5,197.0 131.4,195.6 132.2,193.9 133.0,192.3 133.8,190.6 134.7,219.7 135.5,218.5 136.3,217.3 137.1,216.1 138.0,215.1 138.8,213.8 139.6,212.4 140.5,211.1 141.3,209.9 142.1,208.5 142.9,207.1 143.8,205.7 144.6,204.4 145.4,202.9 146.2,201.3 147.1,199.8 147.9,198.4 148.7,196.8 149.5,195.1 150.4,193.5 151.2,220.7 152.0,219.5 152.9,218.3 153.7,217.0 154.5,216.0 155.3,214.7 156.2,213.4 157.0,212.0 157.8,210.8 158.6,209.4 159.5,208.0 160.3,206.5 161.1,205.2 161.9,203.7 162.8,202.2 163.6,200.6 164.4,199.2 165.3,197.6 166.1,195.9 166.9,194.2 167.7,221.0 168.6,219.8 169.4,218.6 170.2,217.3 171.0,216.2 171.9,214.9 172.7,213.6 173.5,212.3 174.3,211.0 175.2,209.6 176.0,208.2 176.8,206.8 177.7,205.4 178.5,204.0 179.3,202.4 180.1,200.9 181.0,199.5 181.8,197.9 182.6,196.2 183.4,194.6 184.3,221.1 185.1,220.0 185.9,218.8 186.7,217.6 187.6,216.5 188.4,215.2 189.2,213.9 190.1,212.6 190.9,211.4 191.7,210.1 192.5,208.7 193.4,207.3 194.2,206.0 195.0,204.6 195.8,203.1 196.7,201.6 197.5,200.2 198.3,198.7 199.1,197.2 200.0,195.6 200.8,221.5 201.6,220.4 202.5,219.2 203.3,218.1 204.1,217.0 204.9,215.8 205.8,214.6 206.6,213.4 207.4,212.3 208.2,211.0 209.1,209.7 209.9,208.4 210.7,207.2 211.5,205.8 212.4,204.4 213.2,203.1 214.0,201.7 214.9,200.3 215.7,198.9 216.5,197.4 217.3,222.2 218.2,221.1 219.0,220.1 219.8,219.0 220.6,218.0 221.5,216.9 222.3,215.7 223.1,214.6 223.9,213.5 224.8,212.3 225.6,211.2 226.4,209.9 227.3,208.8 228.1,207.6 228.9,206.3 229.7,205.0 230.6,203.8 231.4,202.5 232.2,201.2 233.0,199.9 233.9,223.1 234.7,222.1 235.5,221.1 236.3,220.1 237.2,219.2 238.0,218.2 238.8,217.1 239.7,216.1 240.5,215.1 241.3,214.0 242.1,212.9 243.0,211.8 243.8,210.7 244.6,209.6 245.4,208.5 246.3,207.3 247.1,206.2 247.9,205.0 248.7,203.8 249.6,202.6 250.4,224.1 251.2,223.2 252.1,222.3 252.9,221.4 253.7,220.5 254.5,219.6 255.4,218.6 256.2,217.6 257.0,216.7 257.8,215.8 258.7,214.7 259.5,213.7 260.3,212.8 261.1,211.7 262.0,210.7 262.8,209.6 263.6,208.6 264.5,207.6 265.3,206.5 266.1,205.4 266.9,225.2 267.8,224.4 268.6,223.5 269.4,222.7 270.2,221.9 271.1,221.0 271.9,220.1 272.7,219.3 273.5,218.4 274.4,217.5 275.2,216.6 276.0,215.7 276.9,214.8 277.7,213.9 278.5,212.9 279.3,211.9 280.2,211.0 281.0,210.0 281.8,209.0 282.6,208.0 283.5,226.3 284.3,225.5 285.1,224.8 285.9,224.0 286.8,223.3 287.6,222.5 288.4,221.6 289.3,220.8 290.1,220.1 290.9,219.2 291.7,218.4 292.6,217.5 293.4,216.7 294.2,215.9 295.0,215.0 295.9,214.1 296.7,213.3 297.5,212.4 298.3,211.5 299.2,210.5 300.0,227.4 300.8,226.7 301.7,226.0 302.5,225.2 303.3,224.6 304.1,223.8 305.0,223.1 305.8,222.3 306.6,221.6 307.4,220.9 308.3,220.1 309.1,219.3 309.9,218.6 310.7,217.8 311.6,217.0 312.4,216.1 313.2,215.4 314.1,214.6 314.9,213.7 315.7,212.9 316.5,228.4 317.4,227.8 318.2,227.1 319.0,226.4 319.8,225.8 320.7,225.1 321.5,224.4 322.3,223.7 323.1,223.1 324.0,222.4 324.8,221.7 325.6,220.9 326.5,220.3 327.3,219.5 328.1,218.8 328.9,218.0 329.8,217.3 330.6,216.6 331.4,215.8 332.2,215.0 333.1,229.4 333.9,228.8 334.7,228.2 335.5,227.6 336.4,227.0 337.2,226.4 338.0,225.7 338.9,225.1 339.7,224.5 340.5,223.8 341.3,223.1 342.2,222.4 343.0,221.8 343.8,221.1 344.6,220.4 345.5,219.7 346.3,219.1 347.1,218.4 347.9,217.7 348.8,216.9 349.6,230.4 350.4,229.8 351.3,229.2 352.1,228.6 352.9,228.1 353.7,227.5 354.6,226.9 355.4,226.3 356.2,225.7 357.0,225.1 357.9,224.5 358.7,223.8 359.5,223.3 360.3,222.6 361.2,222.0 362.0,221.3 362.8,220.7 363.7,220.0 364.5,219.4 365.3,218.7 366.1,231.3 367.0,230.7 367.8,230.2 368.6,229.6 369.4,229.1 370.3,228.6 371.1,228.0 371.9,227.4 372.7,226.9 373.6,226.3 374.4,225.7 375.2,225.1 376.1,224.6 376.9,224.0 377.7,223.4 378.5,222.7 379.4,222.2 380.2,221.6 381.0,220.9 381.8,220.3 382.7,232.1 383.5,231.6 384.3,231.1 385.1,230.5 386.0,230.1 386.8,229.5 387.6,229.0 388.5,228.4 389.3,228.0 390.1,227.4 390.9,226.8 391.8,226.3 392.6,225.8 393.4,225.2 394.2,224.6 395.1,224.0 395.9,223.5 396.7,222.9 397.5,222.3 398.4,221.7 399.2,232.9 400.0,232.4 400.9,231.9 401.7,231.4 402.5,230.9 403.3,230.4 404.2,229.9 405.0,229.4 405.8,228.9 406.6,228.4 407.5,227.9 408.3,227.3 409.1,226.9 409.9,226.3 410.8,225.8 411.6,225.2 412.4,224.7 413.3,224.2 414.1,223.6 414.9,223.0 415.7,233.6 416.6,233.1 417.4,232.6 418.2,232.1 419.0,231.7 419.9,231.2 420.7,230.7 421.5,230.2 422.3,229.8 423.2,229.3 424.0,228.8 424.8,228.3 425.7,227.9 426.5,227.3 427.3,226.8 428.1,226.3 429.0,225.8 429.8,225.3 430.6,224.7 431.4,224.2 432.3,234.2 433.1,233.8 433.9,233.3 434.7,232.8 435.6,232.5 436.4,232.0 437.2,231.5 438.1,231.0 438.9,230.6 439.7,230.2 440.5,229.7 441.4,229.2 442.2,228.8 443.0,228.3 443.8,227.8 444.7,227.2 445.5,226.8 446.3,226.3 447.1,225.8 448.0,225.3 448.8,234.8 449.6,234.4 450.5,233.9 451.3,233.5 452.1,233.1 452.9,232.7 453.8,232.2 454.6,231.8 455.4,231.4 456.2,230.9 457.1,230.4 457.9,230.0 458.7,229.6 459.5,229.1 460.4,228.6 461.2,228.1 462.0,227.7 462.9,227.2 463.7,226.7 464.5,226.2 465.3,235.4 466.2,234.9 467.0,234.5 467.8,234.1 468.6,233.7 469.5,233.3 470.3,232.8 471.1,232.4 471.9,232.0 472.8,231.6 473.6,231.1 474.4,230.7 475.3,230.3 476.1,229.8 476.9,229.4 477.7,228.9 478.6,228.5 479.4,228.0 480.2,227.5 481.0,227.1 481.9,235.9 482.7,235.4 483.5,235.0 484.3,234.6 485.2,234.3 486.0,233.8 486.8,233.4 487.7,233.0 488.5,232.6 489.3,232.2 490.1,231.8 491.0,231.3 491.8,230.9 492.6,230.5 493.4,230.0 494.3,229.6 495.1,229.2 495.9,228.7 496.7,228.3 497.6,227.8 498.4,236.3 499.2,235.9 500.1,235.5 500.9,235.1 501.7,234.8 502.5,234.4 503.4,233.9 504.2,233.5 505.0,233.2 505.8,232.7 506.7,232.3 507.5,231.9 508.3,231.5 509.1,231.1 510.0,230.7 510.8,230.2 511.6,229.8 512.5,229.4 513.3,228.9 514.1,228.5 514.9,228.1 515.8,227.6 516.6,227.2 517.4,226.7 518.2,226.3 519.1,225.8 519.9,225.4 520.7,224.9 521.5,224.5 522.4,224.0 523.2,223.5 524.0,223.0 524.9,222.6 525.7,222.1 526.5,221.6 527.3,221.1 528.2,220.7 529.0,220.2 529.8,219.7 530.6,219.1 531.5,218.7 532.3,218.2 533.1,217.7 533.9,217.1 534.8,216.7 535.6,216.1 536.4,215.6 537.3,215.1 538.1,214.6 538.9,214.1 539.7,213.5 540.6,213.0 541.4,212.5 542.2,211.9 543.0,211.4 543.9,210.8 544.7,210.3 545.5,209.8 546.3,209.2 547.2,208.7 548.0,226.8 548.8,226.3 549.7,225.9 550.5,225.5 551.3,225.1 552.1,224.7 553.0,224.2 553.8,223.8 554.6,223.4 555.4,222.9 556.3,222.5 557.1,222.0 557.9,221.6 558.7,221.2 559.6,220.7 560.4,220.2 561.2,219.8 562.1,219.3 562.9,218.9 563.7,218.4 564.5,231.2 565.4,230.8 566.2,230.4 567.0,230.1 567.8,229.7 568.7,229.3 569.5,228.9 570.3,228.5 571.1,228.2 572.0,227.8 572.8,227.4 573.6,226.9 574.5,226.6 575.3,226.2 576.1,225.8 576.9,225.3 577.8,225.0 578.6,224.5 579.4,224.1 580.2,223.7 581.1,234.0 581.9,233.6 582.7,233.3 583.5,232.9 584.4,232.6 585.2,232.2 586.0,231.8 586.9,231.4 587.7,231.1 588.5,230.8 589.3,230.4 590.2,230.0 591.0,229.6 591.8,229.2 592.6,228.8 593.5,228.4 594.3,228.1 595.1,227.7 595.9,227.3 596.8,226.9 597.6,235.8 598.4,235.4 599.3,235.1 600.1,234.7 600.9,234.4 601.7,234.1 602.6,233.7 603.4,233.3 604.2,233.0 605.0,232.7 605.9,232.3 606.7,231.9 607.5,231.6 608.3,231.2 609.2,230.8 610.0,230.4 610.8,230.1 611.7,229.7 612.5,229.3 613.3,228.9 614.1,237.0 615.0,236.6 615.8,236.3 616.6,235.9 617.4,235.7 618.3,235.3 619.1,234.9 619.9,234.6 620.7,234.3 621.6,233.9 622.4,233.6 623.2,233.2 624.1,232.9 624.9,232.5 625.7,232.1 626.5,231.7 627.4,231.4 628.2,231.0 629.0,230.6 629.8,230.2 630.7,237.8 631.5,237.4 632.3,237.1 633.1,236.7 634.0,236.5 634.8,236.1 635.6,235.8 636.5,235.4 637.3,235.1 638.1,234.7 638.9,234.4 639.8,234.0 640.6,233.7 641.4,233.3 642.2,232.9 643.1,232.6 643.9,232.3 644.7,231.9 645.5,231.5 646.4,231.1 647.2,238.3 648.0,238.0 648.9,237.6 649.7,237.3 650.5,237.0 651.3,236.6 652.2,236.3 653.0,235.9 653.8,235.6 654.6,235.3 655.5,234.9 656.3,234.5 657.1,234.2 657.9,233.9 658.8,233.5 659.6,233.1 660.4,232.8 661.3,232.4 662.1,232.0 662.9,231.6 663.7,238.6 664.6,238.3 665.4,237.9 666.2,237.6 667.0,237.3 667.9,237.0 668.7,236.6 669.5,236.2 670.3,236.0 671.2,235.6 672.0,235.2 672.8,234.8 673.7,234.6 674.5,234.2 675.3,233.8 676.1,233.4 677.0,233.1 677.8,232.7 678.6,232.3 679.4,231.9 680.3,238.8 681.1,238.5 681.9,238.1 682.7,237.8 683.6,237.5 684.4,237.2 685.2,236.8 686.1,236.4 686.9,236.2 687.7,235.8 688.5,235.4 689.4,235.0 690.2,234.7 691.0,234.4 691.8,234.0 692.7,233.6 693.5,233.3 694.3,232.9 695.1,232.5 696.0,232.1 696.8,239.0 697.6,238.6 698.5,238.3 699.3,237.9 700.1,237.6 700.9,237.3 701.8,236.9 702.6,236.6 703.4,236.3 704.2,235.9 705.1,235.5 705.9,235.2 706.7,234.9 707.5,234.5 708.4,234.1 709.2,233.7 710.0,233.4 710.9,233.0 711.7,232.6 712.5,232.2 713.3,239.0 714.2,238.7 715.0,238.3 715.8,238.0 716.6,237.7 717.5,237.3 718.3,237.0 719.1,236.6 719.9,236.3 720.8,236.0 721.6,235.6 722.4,235.2 723.3,234.9 724.1,234.6 724.9,234.2 725.7,233.8 726.6,233.5 727.4,233.1 728.2,232.7 729.0,232.3 729.9,239.1 730.7,238.7 731.5,238.4 732.3,238.0 733.2,237.7 734.0,237.4 734.8,237.0 735.7,236.7 736.5,236.4 737.3,236.0 738.1,235.6 739.0,235.3 739.8,235.0 740.6,234.6 741.4,234.2 742.3,233.8 743.1,233.5 743.9,233.1 744.7,232.8 745.6,232.4 746.4,239.1 747.2,238.8 748.1,238.4 748.9,238.1 749.7,237.8 750.5,237.4 751.4,237.1 752.2,236.7 753.0,236.4 753.8,236.1 754.7,235.7 755.5,235.3 756.3,235.0 757.1,234.6 758.0,234.3 758.8,233.9 759.6,233.6 760.5,233.2 761.3,232.8 762.1,232.4 762.9,239.1 763.8,238.8 764.6,238.4 765.4,238.1 766.2,237.8 767.1,237.5 767.9,237.1 768.7,236.7 769.5,236.5 770.4,236.1 771.2,235.7 772.0,235.3 772.9,235.1 773.7,234.7 774.5,234.3 775.3,233.9 776.2,233.6 777.0,233.2 777.8,232.8 778.6,232.4 779.5,239.2 780.3,238.8 781.1,238.5 781.9,238.1 782.8,237.8 783.6,237.5 784.4,237.1 785.3,236.8 786.1,236.5 786.9,236.1 787.7,235.8 788.6,235.4 789.4,235.1 790.2,234.7 791.0,234.3 791.9,234.0 792.7,233.6 793.5,233.3 794.3,232.9 795.2,232.5 796.0,239.2"/>
<text x="640" y="72" font-family="Arial" font-size="12" fill="#2563eb">sqrt trace Ppos</text>
</svg>