<svg xmlns="http://www.w3.org/2000/svg" width="820" height="320" viewBox="0 0 820 320">
<rect width="100%" height="100%" fill="white"/>
<text x="52" y="30" font-family="Arial" font-size="18" font-weight="700">dropout_robust covariance trace</text>
<line x1="52" y1="274" x2="796" y2="274" stroke="#263238"/>
<line x1="52" y1="42" x2="52" y2="274" stroke="#263238"/>
<text x="52" y="306" font-family="Arial" font-size="12">time (s)</text>
<text x="630" y="306" font-family="Arial" font-size="12">sqrt trace P</text>

<polyline fill="none" stroke="#0f766e" stroke-width="2.3" points="52.0,178.9 52.8,178.3 53.7,176.4 54.5,173.2 55.3,174.5 56.1,169.8 57.0,164.1 57.8,157.4 58.6,155.0 59.4,147.6 60.3,139.5 61.1,130.7 61.9,125.7 62.7,116.5 63.6,106.8 64.4,96.7 65.2,89.4 66.1,79.0 66.9,68.2 67.7,57.2 68.5,197.8 69.4,191.1 70.2,184.0 71.0,176.5 71.8,171.2 72.7,163.4 73.5,155.4 74.3,147.1 75.1,140.4 76.0,131.8 76.8,123.1 77.6,114.3 78.5,106.6 79.3,97.5 80.1,88.3 80.9,79.0 81.8,70.6 82.6,61.2 83.4,51.6 84.2,42.0 85.1,196.3 85.9,190.9 86.7,185.2 87.5,179.5 88.4,174.7 89.2,168.8 90.0,162.8 90.9,156.7 91.7,151.4 92.5,145.2 93.3,138.9 94.2,132.5 95.0,126.8 95.8,120.3 96.6,113.7 97.5,107.1 98.3,101.0 99.1,94.3 99.9,87.4 100.8,80.6 101.6,204.2 102.4,200.0 103.3,195.7 104.1,191.2 104.9,187.6 105.7,183.0 106.6,178.4 107.4,173.7 108.2,169.8 109.0,165.0 109.9,160.1 110.7,155.2 111.5,150.9 112.3,145.8 113.2,140.7 114.0,135.5 114.8,131.0 115.7,125.7 116.5,120.3 117.3,114.9 118.1,212.6 119.0,209.0 119.8,205.3 120.6,201.5 121.4,198.4 122.3,194.5 123.1,190.6 123.9,186.5 124.7,183.1 125.6,179.0 126.4,174.7 127.2,170.4 128.1,166.7 128.9,162.2 129.7,157.7 130.5,153.1 131.4,149.1 132.2,144.4 133.0,139.6 133.8,134.7 134.7,218.3 135.5,214.9 136.3,211.4 137.1,207.8 138.0,204.9 138.8,201.2 139.6,197.4 140.5,193.5 141.3,190.2 142.1,186.2 142.9,182.1 143.8,178.0 144.6,174.3 145.4,170.0 146.2,165.6 147.1,161.1 147.9,157.2 148.7,152.5 149.5,147.9 150.4,143.1 151.2,221.0 152.0,217.6 152.9,214.1 153.7,210.5 154.5,207.5 155.3,203.8 156.2,200.0 157.0,196.1 157.8,192.7 158.6,188.7 159.5,184.6 160.3,180.4 161.1,176.7 161.9,172.4 162.8,168.0 163.6,163.5 164.4,159.4 165.3,154.7 166.1,150.0 166.9,145.3 167.7,221.8 168.6,218.4 169.4,214.9 170.2,211.3 171.0,208.2 171.9,204.5 172.7,200.7 173.5,196.9 174.3,193.4 175.2,189.4 176.0,185.3 176.8,181.2 177.7,177.4 178.5,173.1 179.3,168.7 180.1,164.3 181.0,160.2 181.8,155.6 182.6,151.0 183.4,146.3 184.3,222.3 185.1,218.9 185.9,215.5 186.7,212.0 187.6,208.9 188.4,205.3 189.2,201.6 190.1,197.9 190.9,194.5 191.7,190.6 192.5,186.7 193.4,182.7 194.2,178.9 195.0,174.8 195.8,170.6 196.7,166.4 197.5,162.4 198.3,158.1 199.1,153.6 200.0,149.1 200.8,223.3 201.6,220.2 202.5,216.9 203.3,213.6 204.1,210.6 204.9,207.1 205.8,203.7 206.6,200.1 207.4,196.9 208.2,193.2 209.1,189.5 209.9,185.8 210.7,182.2 211.5,178.4 212.4,174.5 213.2,170.5 214.0,166.8 214.9,162.7 215.7,158.6 216.5,154.4 217.3,225.2 218.2,222.3 219.0,219.2 219.8,216.1 220.6,213.3 221.5,210.1 222.3,206.8 223.1,203.6 223.9,200.5 224.8,197.1 225.6,193.7 226.4,190.2 227.3,187.0 228.1,183.4 228.9,179.8 229.7,176.2 230.6,172.7 231.4,169.0 232.2,165.2 233.0,161.4 233.9,227.8 234.7,225.0 235.5,222.2 236.3,219.3 237.2,216.7 238.0,213.8 238.8,210.8 239.7,207.7 240.5,204.9 241.3,201.8 242.1,198.7 243.0,195.5 243.8,192.5 244.6,189.3 245.4,186.0 246.3,182.6 247.1,179.5 247.9,176.1 248.7,172.6 249.6,169.2 250.4,230.8 251.2,228.2 252.1,225.6 252.9,223.0 253.7,220.5 254.5,217.8 255.4,215.1 256.2,212.3 257.0,209.7 257.8,206.9 258.7,204.0 259.5,201.1 260.3,198.4 261.1,195.4 262.0,192.4 262.8,189.3 263.6,186.5 264.5,183.4 265.3,180.3 266.1,177.1 266.9,233.9 267.8,231.6 268.6,229.1 269.4,226.7 270.2,224.5 271.1,222.0 271.9,219.5 272.7,216.9 273.5,214.6 274.4,212.0 275.2,209.3 276.0,206.7 276.9,204.2 277.7,201.5 278.5,198.7 279.3,195.9 280.2,193.3 281.0,190.5 281.8,187.6 282.6,184.8 283.5,237.1 284.3,234.9 285.1,232.7 285.9,230.4 286.8,228.4 287.6,226.1 288.4,223.8 289.3,221.4 290.1,219.3 290.9,216.9 291.7,214.4 292.6,212.0 293.4,209.7 294.2,207.2 295.0,204.7 295.9,202.2 296.7,199.8 297.5,197.2 298.3,194.6 299.2,192.0 300.0,240.2 300.8,238.2 301.7,236.1 302.5,234.1 303.3,232.2 304.1,230.0 305.0,227.9 305.8,225.7 306.6,223.7 307.4,221.5 308.3,219.3 309.1,217.0 309.9,215.0 310.7,212.7 311.6,210.3 312.4,208.0 313.2,205.8 314.1,203.5 314.9,201.1 315.7,198.6 316.5,243.3 317.4,241.4 318.2,239.4 319.0,237.5 319.8,235.8 320.7,233.8 321.5,231.8 322.3,229.8 323.1,227.9 324.0,225.9 324.8,223.8 325.6,221.7 326.5,219.8 327.3,217.7 328.1,215.5 328.9,213.4 329.8,211.4 330.6,209.2 331.4,207.0 332.2,204.7 333.1,246.1 333.9,244.3 334.7,242.6 335.5,240.7 336.4,239.1 337.2,237.3 338.0,235.4 338.9,233.5 339.7,231.8 340.5,229.9 341.3,228.0 342.2,226.1 343.0,224.3 343.8,222.3 344.6,220.3 345.5,218.3 346.3,216.5 347.1,214.4 347.9,212.4 348.8,210.3 349.6,248.8 350.4,247.2 351.3,245.5 352.1,243.8 352.9,242.3 353.7,240.5 354.6,238.8 355.4,237.0 356.2,235.5 357.0,233.7 357.9,231.9 358.7,230.0 359.5,228.4 360.3,226.5 361.2,224.7 362.0,222.8 362.8,221.1 363.7,219.2 364.5,217.3 365.3,215.3 366.1,251.4 367.0,249.8 367.8,248.2 368.6,246.6 369.4,245.2 370.3,243.6 371.1,241.9 371.9,240.2 372.7,238.8 373.6,237.1 374.4,235.4 375.2,233.7 376.1,232.2 376.9,230.4 377.7,228.7 378.5,226.9 379.4,225.3 380.2,223.5 381.0,221.7 381.8,219.9 382.7,253.7 383.5,252.2 384.3,250.7 385.1,249.2 386.0,247.9 386.8,246.3 387.6,244.8 388.5,243.2 389.3,241.8 390.1,240.2 390.9,238.6 391.8,237.0 392.6,235.6 393.4,233.9 394.2,232.3 395.1,230.6 395.9,229.1 396.7,227.4 397.5,225.7 398.4,224.0 399.2,255.9 400.0,254.5 400.9,253.1 401.7,251.6 402.5,250.4 403.3,248.9 404.2,247.4 405.0,245.9 405.8,244.6 406.6,243.1 407.5,241.6 408.3,240.1 409.1,238.7 409.9,237.2 410.8,235.6 411.6,234.0 412.4,232.6 413.3,231.0 414.1,229.4 414.9,227.7 415.7,257.9 416.6,256.6 417.4,255.2 418.2,253.8 419.0,252.7 419.9,251.3 420.7,249.8 421.5,248.4 422.3,247.2 423.2,245.7 424.0,244.3 424.8,242.8 425.7,241.6 426.5,240.1 427.3,238.6 428.1,237.0 429.0,235.7 429.8,234.2 430.6,232.7 431.4,231.1 432.3,259.8 433.1,258.5 433.9,257.2 434.7,255.9 435.6,254.7 436.4,253.4 437.2,252.0 438.1,250.7 438.9,249.5 439.7,248.1 440.5,246.7 441.4,245.3 442.2,244.1 443.0,242.7 443.8,241.3 444.7,239.8 445.5,238.6 446.3,237.1 447.1,235.6 448.0,234.1 448.8,261.5 449.6,260.3 450.5,259.0 451.3,257.7 452.1,256.6 452.9,255.4 453.8,254.0 454.6,252.7 455.4,251.6 456.2,250.3 457.1,248.9 457.9,247.6 458.7,246.4 459.5,245.1 460.4,243.7 461.2,242.3 462.0,241.1 462.9,239.7 463.7,238.3 464.5,236.8 465.3,263.1 466.2,261.9 467.0,260.6 467.8,259.4 468.6,258.4 469.5,257.1 470.3,255.9 471.1,254.6 471.9,253.5 472.8,252.2 473.6,250.9 474.4,249.6 475.3,248.5 476.1,247.2 476.9,245.9 477.7,244.5 478.6,243.4 479.4,242.0 480.2,240.7 481.0,239.3 481.9,264.5 482.7,263.3 483.5,262.1 484.3,260.9 485.2,259.9 486.0,258.7 486.8,257.5 487.7,256.3 488.5,255.3 489.3,254.0 490.1,252.7 491.0,251.5 491.8,250.4 492.6,249.1 493.4,247.8 494.3,246.5 495.1,245.4 495.9,244.1 496.7,242.8 497.6,241.4 498.4,265.8 499.2,264.6 500.1,263.5 500.9,262.3 501.7,261.4 502.5,260.2 503.4,259.0 504.2,257.8 505.0,256.8 505.8,255.6 506.7,254.4 507.5,253.1 508.3,252.1 509.1,250.8 510.0,249.6 510.8,248.3 511.6,247.3 512.5,246.0 513.3,244.7 514.1,243.4 514.9,242.3 515.8,240.9 516.6,239.6 517.4,238.3 518.2,237.1 519.1,235.8 519.9,234.4 520.7,233.1 521.5,231.9 522.4,230.5 523.2,229.1 524.0,227.7 524.9,226.5 525.7,225.1 526.5,223.7 527.3,222.2 528.2,221.0 529.0,219.5 529.8,218.1 530.6,216.6 531.5,215.3 532.3,213.8 533.1,212.3 533.9,210.8 534.8,209.5 535.6,208.0 536.4,206.5 537.3,205.0 538.1,203.6 538.9,202.1 539.7,200.5 540.6,198.9 541.4,197.5 542.2,196.0 543.0,194.4 543.9,192.8 544.7,191.4 545.5,189.8 546.3,188.2 547.2,186.5 548.0,238.5 548.8,237.2 549.7,236.0 550.5,234.7 551.3,233.7 552.1,232.4 553.0,231.1 553.8,229.8 554.6,228.7 555.4,227.4 556.3,226.1 557.1,224.8 557.9,223.7 558.7,222.4 559.6,221.0 560.4,219.7 561.2,218.5 562.1,217.1 562.9,215.8 563.7,214.4 564.5,251.2 565.4,250.1 566.2,249.0 567.0,247.8 567.8,246.9 568.7,245.8 569.5,244.6 570.3,243.5 571.1,242.5 572.0,241.3 572.8,240.1 573.6,239.0 574.5,238.0 575.3,236.7 576.1,235.5 576.9,234.3 577.8,233.3 578.6,232.0 579.4,230.8 580.2,229.6 581.1,259.1 581.9,258.1 582.7,257.0 583.5,256.0 584.4,255.1 585.2,254.0 586.0,252.9 586.9,251.9 587.7,251.0 588.5,249.9 589.3,248.7 590.2,247.6 591.0,246.7 591.8,245.5 592.6,244.4 593.5,243.2 594.3,242.3 595.1,241.1 595.9,239.9 596.8,238.8 597.6,264.3 598.4,263.3 599.3,262.3 600.1,261.2 600.9,260.4 601.7,259.4 602.6,258.3 603.4,257.3 604.2,256.4 605.0,255.4 605.9,254.3 606.7,253.2 607.5,252.3 608.3,251.2 609.2,250.1 610.0,249.0 610.8,248.0 611.7,246.9 612.5,245.8 613.3,244.6 614.1,267.7 615.0,266.7 615.8,265.7 616.6,264.7 617.4,263.9 618.3,262.9 619.1,261.9 619.9,260.8 620.7,260.0 621.6,259.0 622.4,257.9 623.2,256.8 624.1,256.0 624.9,254.9 625.7,253.8 626.5,252.7 627.4,251.8 628.2,250.6 629.0,249.5 629.8,248.4 630.7,270.0 631.5,269.0 632.3,268.0 633.1,267.0 634.0,266.2 634.8,265.2 635.6,264.2 636.5,263.2 637.3,262.3 638.1,261.3 638.9,260.2 639.8,259.2 640.6,258.3 641.4,257.2 642.2,256.1 643.1,255.0 643.9,254.2 644.7,253.0 645.5,251.9 646.4,250.8 647.2,271.5 648.0,270.5 648.9,269.5 649.7,268.5 650.5,267.7 651.3,266.7 652.2,265.7 653.0,264.7 653.8,263.8 654.6,262.8 655.5,261.7 656.3,260.7 657.1,259.8 657.9,258.7 658.8,257.6 659.6,256.6 660.4,255.7 661.3,254.6 662.1,253.4 662.9,252.3 663.7,272.4 664.6,271.4 665.4,270.4 666.2,269.4 667.0,268.7 667.9,267.6 668.7,266.6 669.5,265.6 670.3,264.8 671.2,263.7 672.0,262.7 672.8,261.6 673.7,260.7 674.5,259.7 675.3,258.6 676.1,257.5 677.0,256.6 677.8,255.5 678.6,254.4 679.4,253.2 680.3,273.0 681.1,272.0 681.9,271.0 682.7,270.0 683.6,269.2 684.4,268.2 685.2,267.2 686.1,266.1 686.9,265.3 687.7,264.3 688.5,263.2 689.4,262.2 690.2,261.3 691.0,260.2 691.8,259.1 692.7,258.0 693.5,257.1 694.3,256.0 695.1,254.9 696.0,253.8 696.8,273.3 697.6,272.4 698.5,271.4 699.3,270.3 700.1,269.6 700.9,268.6 701.8,267.5 702.6,266.5 703.4,265.7 704.2,264.6 705.1,263.6 705.9,262.5 706.7,261.6 707.5,260.6 708.4,259.5 709.2,258.4 710.0,257.5 710.9,256.4 711.7,255.2 712.5,254.1 713.3,273.6 714.2,272.6 715.0,271.6 715.8,270.5 716.6,269.8 717.5,268.8 718.3,267.7 719.1,266.7 719.9,265.9 720.8,264.8 721.6,263.8 722.4,262.7 723.3,261.8 724.1,260.8 724.9,259.7 725.7,258.6 726.6,257.7 727.4,256.6 728.2,255.4 729.0,254.3 729.9,273.7 730.7,272.7 731.5,271.7 732.3,270.7 733.2,269.9 734.0,268.9 734.8,267.8 735.7,266.8 736.5,266.0 737.3,264.9 738.1,263.9 739.0,262.8 739.8,262.0 740.6,260.9 741.4,259.8 742.3,258.7 743.1,257.8 743.9,256.7 744.7,255.6 745.6,254.5 746.4,273.8 747.2,272.8 748.1,271.8 748.9,270.8 749.7,270.0 750.5,269.0 751.4,267.9 752.2,266.9 753.0,266.1 753.8,265.0 754.7,264.0 755.5,262.9 756.3,262.1 757.1,261.0 758.0,259.9 758.8,258.8 759.6,257.9 760.5,256.8 761.3,255.7 762.1,254.6 762.9,273.8 763.8,272.9 764.6,271.9 765.4,270.9 766.2,270.1 767.1,269.1 767.9,268.0 768.7,267.0 769.5,266.2 770.4,265.1 771.2,264.1 772.0,263.0 772.9,262.2 773.7,261.1 774.5,260.0 775.3,258.9 776.2,258.0 777.0,256.9 777.8,255.8 778.6,254.7 779.5,273.9 780.3,272.9 781.1,271.9 781.9,270.9 782.8,270.2 783.6,269.1 784.4,268.1 785.3,267.1 786.1,266.3 786.9,265.2 787.7,264.2 788.6,263.1 789.4,262.3 790.2,261.2 791.0,260.1 791.9,259.0 792.7,258.2 793.5,257.0 794.3,255.9 795.2,254.8 796.0,274.0"/>
<text x="640" y="56" font-family="Arial" font-size="12" fill="#0f766e">dropout_robust covariance trace</text>
</svg>