<svg xmlns="http://www.w3.org/2000/svg" width="820" height="320" viewBox="0 0 820 320">
<rect width="100%" height="100%" fill="white"/>
<text x="52" y="30" font-family="Arial" font-size="18" font-weight="700">ekf_nominal NEES proxy</text>
<line x1="52" y1="274" x2="796" y2="274" stroke="#263238"/>
<line x1="52" y1="42" x2="52" y2="274" stroke="#263238"/>
<text x="52" y="306" font-family="Arial" font-size="12">time (s)</text>
<text x="630" y="306" font-family="Arial" font-size="12">value</text>

<polyline fill="none" stroke="#0f766e" stroke-width="2.3" points="52.0,42.0 52.8,43.0 53.7,46.8 54.5,53.0 55.3,61.0 56.1,70.8 57.0,81.6 57.8,93.1 58.6,104.3 59.4,115.8 60.3,127.0 61.1,137.7 61.9,148.3 62.7,157.6 63.6,166.3 64.4,174.2 65.2,178.1 66.1,184.8 66.9,190.9 67.7,196.4 68.5,254.5 69.4,257.2 70.2,259.1 71.0,260.4 71.8,262.2 72.7,262.7 73.5,262.8 74.3,262.6 75.1,262.5 76.0,262.0 76.8,261.4 77.6,260.6 78.5,257.4 79.3,256.6 80.1,255.7 80.9,254.8 81.8,256.2 82.6,255.3 83.4,254.3 84.2,253.4 85.1,271.3 85.9,270.2 86.7,268.9 87.5,267.6 88.4,265.7 89.2,264.5 90.0,263.3 90.9,262.1 91.7,259.0 92.5,257.8 93.3,256.7 94.2,255.6 95.0,251.0 95.8,250.0 96.6,249.0 97.5,248.1 98.3,244.7 99.1,244.0 99.9,243.2 100.8,242.5 101.6,226.9 102.4,225.7 103.3,224.6 104.1,223.5 104.9,222.1 105.7,221.2 106.6,220.5 107.4,219.7 108.2,222.4 109.0,221.7 109.9,221.1 110.7,220.5 111.5,224.6 112.3,223.9 113.2,223.2 114.0,222.6 114.8,216.6 115.7,216.4 116.5,216.2 117.3,216.0 118.1,237.2 119.0,237.0 119.8,236.8 120.6,236.6 121.4,232.3 122.3,232.4 123.1,232.6 123.9,232.7 124.7,233.5 125.6,233.7 126.4,234.0 127.2,234.3 128.1,237.2 128.9,237.3 129.7,237.4 130.5,237.5 131.4,237.6 132.2,237.7 133.0,237.8 133.8,237.9 134.7,240.5 135.5,240.9 136.3,241.3 137.1,241.8 138.0,238.3 138.8,239.2 139.6,240.0 140.5,240.8 141.3,241.2 142.1,242.1 142.9,242.9 143.8,243.7 144.6,244.3 145.4,245.1 146.2,245.9 147.1,246.7 147.9,246.9 148.7,247.7 149.5,248.5 150.4,249.2 151.2,257.9 152.0,258.8 152.9,259.6 153.7,260.4 154.5,260.3 155.3,260.8 156.2,261.4 157.0,261.9 157.8,263.9 158.6,264.5 159.5,265.1 160.3,265.6 161.1,265.9 161.9,266.4 162.8,266.8 163.6,267.2 164.4,268.2 165.3,268.6 166.1,269.1 166.9,269.5 167.7,260.2 168.6,261.0 169.4,261.8 170.2,262.5 171.0,264.1 171.9,264.9 172.7,265.7 173.5,266.4 174.3,267.1 175.2,267.7 176.0,268.3 176.8,268.8 177.7,269.3 178.5,269.8 179.3,270.3 180.1,270.7 181.0,271.0 181.8,271.4 182.6,271.7 183.4,272.0 184.3,267.0 185.1,266.4 185.9,265.7 186.7,265.1 187.6,264.2 188.4,263.5 189.2,262.8 190.1,262.0 190.9,258.0 191.7,257.1 192.5,256.2 193.4,255.4 194.2,257.8 195.0,257.0 195.8,256.2 196.7,255.5 197.5,253.2 198.3,252.4 199.1,251.6 200.0,250.8 200.8,262.4 201.6,261.5 202.5,260.6 203.3,259.7 204.1,257.0 204.9,256.1 205.8,255.2 206.6,254.3 207.4,257.8 208.2,256.9 209.1,256.1 209.9,255.3 210.7,255.6 211.5,254.8 212.4,254.1 213.2,253.3 214.0,252.5 214.9,251.8 215.7,251.1 216.5,250.4 217.3,248.1 218.2,247.1 219.0,246.1 219.8,245.1 220.6,243.6 221.5,242.6 222.3,241.6 223.1,240.6 223.9,242.6 224.8,241.7 225.6,240.9 226.4,240.0 227.3,239.1 228.1,238.3 228.9,237.5 229.7,236.7 230.6,234.0 231.4,233.2 232.2,232.4 233.0,231.6 233.9,211.7 234.7,210.5 235.5,209.3 236.3,208.1 237.2,204.8 238.0,203.6 238.8,202.5 239.7,201.4 240.5,201.8 241.3,200.8 242.1,199.8 243.0,198.8 243.8,203.6 244.6,202.7 245.4,201.8 246.3,200.9 247.1,198.5 247.9,197.7 248.7,196.9 249.6,196.2 250.4,219.3 251.2,218.4 252.1,217.6 252.9,216.8 253.7,208.2 254.5,207.4 255.4,206.7 256.2,205.9 257.0,208.3 257.8,207.5 258.7,206.9 259.5,206.2 260.3,206.3 261.1,205.7 262.0,205.0 262.8,204.4 263.6,201.7 264.5,201.2 265.3,200.6 266.1,200.1 266.9,207.5 267.8,206.9 268.6,206.2 269.4,205.6 270.2,204.8 271.1,204.2 271.9,203.6 272.7,203.1 273.5,204.5 274.4,204.0 275.2,203.5 276.0,203.1 276.9,197.2 277.7,196.8 278.5,196.4 279.3,196.0 280.2,188.2 281.0,187.8 281.8,187.5 282.6,187.2 283.5,241.5 284.3,241.4 285.1,241.3 285.9,241.2 286.8,238.1 287.6,238.0 288.4,237.9 289.3,237.8 290.1,222.5 290.9,222.5 291.7,222.5 292.6,222.6 293.4,236.7 294.2,236.7 295.0,236.7 295.9,236.8 296.7,215.7 297.5,215.8 298.3,215.9 299.2,216.0 300.0,233.9 300.8,234.0 301.7,234.0 302.5,234.1 303.3,214.0 304.1,214.2 305.0,214.4 305.8,214.6 306.6,217.5 307.4,217.8 308.3,218.0 309.1,218.3 309.9,215.4 310.7,215.7 311.6,216.0 312.4,216.3 313.2,221.9 314.1,222.2 314.9,222.5 315.7,222.9 316.5,239.5 317.4,239.7 318.2,239.9 319.0,240.1 319.8,256.3 320.7,256.4 321.5,256.5 322.3,256.5 323.1,262.1 324.0,262.0 324.8,261.9 325.6,261.8 326.5,260.1 327.3,260.1 328.1,260.1 328.9,260.1 329.8,258.9 330.6,259.0 331.4,259.0 332.2,259.0 333.1,271.0 333.9,271.0 334.7,271.0 335.5,270.9 336.4,270.7 337.2,270.6 338.0,270.6 338.9,270.5 339.7,270.4 340.5,270.3 341.3,270.2 342.2,270.1 343.0,270.1 343.8,270.0 344.6,269.9 345.5,269.8 346.3,268.6 347.1,268.5 347.9,268.4 348.8,268.3 349.6,273.2 350.4,273.3 351.3,273.3 352.1,273.3 352.9,268.5 353.7,268.6 354.6,268.8 355.4,268.9 356.2,272.7 357.0,272.8 357.9,272.8 358.7,272.9 359.5,268.5 360.3,268.6 361.2,268.7 362.0,268.9 362.8,262.7 363.7,262.9 364.5,263.0 365.3,263.2 366.1,269.2 367.0,269.4 367.8,269.6 368.6,269.7 369.4,265.8 370.3,266.0 371.1,266.2 371.9,266.4 372.7,265.5 373.6,265.7 374.4,265.9 375.2,266.1 376.1,266.3 376.9,266.5 377.7,266.7 378.5,266.9 379.4,265.6 380.2,265.8 381.0,266.1 381.8,266.3 382.7,262.9 383.5,263.1 384.3,263.4 385.1,263.6 386.0,257.4 386.8,257.7 387.6,258.0 388.5,258.4 389.3,264.4 390.1,264.6 390.9,264.9 391.8,265.1 392.6,265.9 393.4,266.2 394.2,266.4 395.1,266.6 395.9,269.1 396.7,269.3 397.5,269.5 398.4,269.7 399.2,264.0 400.0,264.3 400.9,264.5 401.7,264.7 402.5,266.2 403.3,266.4 404.2,266.6 405.0,266.8 405.8,270.9 406.6,271.0 407.5,271.1 408.3,271.3 409.1,271.5 409.9,271.6 410.8,271.8 411.6,271.9 412.4,273.9 413.3,273.9 414.1,274.0 414.9,274.0 415.7,272.6 416.6,272.6 417.4,272.7 418.2,272.7 419.0,273.1 419.9,273.1 420.7,273.1 421.5,273.1 422.3,273.2 423.2,273.2 424.0,273.1 424.8,273.1 425.7,272.6 426.5,272.6 427.3,272.6 428.1,272.7 429.0,272.2 429.8,272.2 430.6,272.3 431.4,272.3 432.3,266.3 433.1,266.2 433.9,266.2 434.7,266.1 435.6,265.8 436.4,265.7 437.2,265.6 438.1,265.6 438.9,264.0 439.7,263.8 440.5,263.7 441.4,263.6 442.2,262.0 443.0,261.9 443.8,261.7 444.7,261.6 445.5,264.3 446.3,264.2 447.1,264.0 448.0,263.9 448.8,255.9 449.6,255.8 450.5,255.7 451.3,255.5 452.1,255.9 452.9,255.8 453.8,255.6 454.6,255.5 455.4,258.4 456.2,258.3 457.1,258.2 457.9,258.1 458.7,251.4 459.5,251.3 460.4,251.1 461.2,251.0 462.0,255.0 462.9,254.9 463.7,254.8 464.5,254.7 465.3,243.5 466.2,243.3 467.0,243.1 467.8,242.9 468.6,247.9 469.5,247.8 470.3,247.6 471.1,247.4 471.9,237.7 472.8,237.5 473.6,237.3 474.4,237.1 475.3,237.9 476.1,237.7 476.9,237.5 477.7,237.3 478.6,230.8 479.4,230.6 480.2,230.5 481.0,230.3 481.9,237.5 482.7,237.4 483.5,237.2 484.3,237.1 485.2,244.4 486.0,244.3 486.8,244.2 487.7,244.2 488.5,248.0 489.3,248.0 490.1,247.9 491.0,247.9 491.8,249.3 492.6,249.2 493.4,249.2 494.3,249.1 495.1,255.1 495.9,255.1 496.7,255.0 497.6,255.0 498.4,253.0 499.2,252.9 500.1,252.9 500.9,252.8 501.7,253.5 502.5,253.4 503.4,253.3 504.2,253.2 505.0,252.7 505.8,252.6 506.7,252.5 507.5,252.5 508.3,253.1 509.1,253.0 510.0,252.9 510.8,252.9 511.6,252.7 512.5,252.6 513.3,252.5 514.1,252.5 514.9,250.1 515.8,250.0 516.6,250.0 517.4,249.9 518.2,252.3 519.1,252.2 519.9,252.2 520.7,252.1 521.5,251.9 522.4,251.9 523.2,251.8 524.0,251.8 524.9,251.7 525.7,251.7 526.5,251.6 527.3,251.6 528.2,251.6 529.0,251.5 529.8,251.5 530.6,251.4 531.5,251.0 532.3,250.9 533.1,250.9 533.9,250.8 534.8,248.1 535.6,248.1 536.4,248.1 537.3,248.0 538.1,249.6 538.9,249.6 539.7,249.6 540.6,249.6 541.4,250.5 542.2,250.4 543.0,250.4 543.9,250.4 544.7,250.6 545.5,250.6 546.3,250.5 547.2,250.5 548.0,259.8 548.8,259.7 549.7,259.7 550.5,259.6 551.3,259.2 552.1,259.1 553.0,259.0 553.8,259.0 554.6,259.3 555.4,259.2 556.3,259.2 557.1,259.1 557.9,259.1 558.7,259.0 559.6,258.9 560.4,258.9 561.2,257.6 562.1,257.5 562.9,257.5 563.7,257.5 564.5,245.5 565.4,245.4 566.2,245.3 567.0,245.2 567.8,244.2 568.7,244.1 569.5,244.0 570.3,243.9 571.1,242.2 572.0,242.2 572.8,242.1 573.6,242.0 574.5,244.4 575.3,244.3 576.1,244.2 576.9,244.2 577.8,242.6 578.6,242.5 579.4,242.4 580.2,242.3 581.1,251.9 581.9,251.9 582.7,251.8 583.5,251.8 584.4,250.7 585.2,250.7 586.0,250.7 586.9,250.7 587.7,248.1 588.5,248.1 589.3,248.1 590.2,248.2 591.0,246.2 591.8,246.3 592.6,246.3 593.5,246.4 594.3,247.8 595.1,247.9 595.9,247.9 596.8,248.0 597.6,249.8 598.4,249.9 599.3,250.1 600.1,250.2 600.9,250.9 601.7,251.0 602.6,251.1 603.4,251.2 604.2,251.7 605.0,251.8 605.9,251.9 606.7,252.0 607.5,255.5 608.3,255.5 609.2,255.6 610.0,255.6 610.8,256.7 611.7,256.7 612.5,256.7 613.3,256.8 614.1,261.1 615.0,261.1 615.8,261.1 616.6,261.1 617.4,261.7 618.3,261.7 619.1,261.7 619.9,261.6 620.7,261.5 621.6,261.4 622.4,261.4 623.2,261.3 624.1,259.2 624.9,259.1 625.7,258.9 626.5,258.8 627.4,256.5 628.2,256.3 629.0,256.2 629.8,256.0 630.7,256.6 631.5,256.5 632.3,256.3 633.1,256.2 634.0,255.7 634.8,255.5 635.6,255.4 636.5,255.3 637.3,259.1 638.1,259.0 638.9,258.9 639.8,258.8 640.6,258.4 641.4,258.3 642.2,258.3 643.1,258.2 643.9,259.9 644.7,259.9 645.5,259.8 646.4,259.8 647.2,261.6 648.0,261.5 648.9,261.5 649.7,261.5 650.5,261.4 651.3,261.4 652.2,261.4 653.0,261.4 653.8,260.8 654.6,260.8 655.5,260.7 656.3,260.7 657.1,261.4 657.9,261.3 658.8,261.3 659.6,261.3 660.4,259.7 661.3,259.7 662.1,259.7 662.9,259.8 663.7,258.1 664.6,258.1 665.4,258.2 666.2,258.3 667.0,256.9 667.9,257.0 668.7,257.0 669.5,257.1 670.3,257.8 671.2,257.9 672.0,257.9 672.8,258.0 673.7,260.0 674.5,260.0 675.3,260.1 676.1,260.1 677.0,260.4 677.8,260.4 678.6,260.4 679.4,260.4 680.3,271.3 681.1,271.3 681.9,271.3 682.7,271.4 683.6,269.7 684.4,269.7 685.2,269.8 686.1,269.8 686.9,269.7 687.7,269.7 688.5,269.8 689.4,269.8 690.2,268.6 691.0,268.7 691.8,268.7 692.7,268.7 693.5,268.0 694.3,268.0 695.1,268.0 696.0,268.1 696.8,260.3 697.6,260.4 698.5,260.4 699.3,260.5 700.1,255.6 700.9,255.7 701.8,255.8 702.6,255.8 703.4,255.4 704.2,255.5 705.1,255.6 705.9,255.7 706.7,250.5 707.5,250.6 708.4,250.7 709.2,250.8 710.0,260.8 710.9,260.9 711.7,261.0 712.5,261.0 713.3,251.6 714.2,251.7 715.0,251.8 715.8,251.9 716.6,259.0 717.5,259.1 718.3,259.2 719.1,259.3 719.9,264.5 720.8,264.6 721.6,264.6 722.4,264.7 723.3,265.2 724.1,265.3 724.9,265.4 725.7,265.4 726.6,266.0 727.4,266.1 728.2,266.1 729.0,266.2 729.9,265.4 730.7,265.5 731.5,265.6 732.3,265.6 733.2,265.8 734.0,265.8 734.8,265.9 735.7,266.0 736.5,266.4 737.3,266.5 738.1,266.5 739.0,266.6 739.8,264.8 740.6,264.8 741.4,264.9 742.3,264.9 743.1,254.6 743.9,254.6 744.7,254.7 745.6,254.7 746.4,246.7 747.2,246.7 748.1,246.8 748.9,246.9 749.7,254.8 750.5,254.9 751.4,254.9 752.2,255.0 753.0,264.5 753.8,264.6 754.7,264.6 755.5,264.6 756.3,266.7 757.1,266.8 758.0,266.8 758.8,266.8 759.6,266.4 760.5,266.4 761.3,266.5 762.1,266.5 762.9,260.7 763.8,260.7 764.6,260.8 765.4,260.8 766.2,259.9 767.1,259.9 767.9,260.0 768.7,260.0 769.5,259.3 770.4,259.3 771.2,259.4 772.0,259.4 772.9,258.5 773.7,258.5 774.5,258.6 775.3,258.6 776.2,257.8 777.0,257.9 777.8,257.9 778.6,258.0 779.5,253.1 780.3,253.2 781.1,253.3 781.9,253.4 782.8,254.1 783.6,254.2 784.4,254.3 785.3,254.4 786.1,254.4 786.9,254.5 787.7,254.6 788.6,254.7 789.4,253.8 790.2,253.9 791.0,254.0 791.9,254.1 792.7,254.9 793.5,255.0 794.3,255.1 795.2,255.2 796.0,264.2"/>
<text x="640" y="56" font-family="Arial" font-size="12" fill="#0f766e">ekf_nominal NEES proxy</text>
</svg>