<svg xmlns="http://www.w3.org/2000/svg" width="820" height="320" viewBox="0 0 820 320">
<rect width="100%" height="100%" fill="white"/>
<text x="52" y="30" font-family="Arial" font-size="18" font-weight="700">ekf_dropout_robust NEES proxy</text>
<line x1="52" y1="274" x2="796" y2="274" stroke="#263238"/>
<line x1="52" y1="42" x2="52" y2="274" stroke="#263238"/>
<text x="52" y="306" font-family="Arial" font-size="12">time (s)</text>
<text x="630" y="306" font-family="Arial" font-size="12">value</text>

<polyline fill="none" stroke="#0f766e" stroke-width="2.3" points="52.0,42.0 52.8,42.5 53.7,45.0 54.5,49.2 55.3,54.7 56.1,61.8 57.0,70.0 57.8,78.8 58.6,87.8 59.4,97.4 60.3,107.1 61.1,116.6 61.9,126.3 62.7,135.2 63.6,143.6 64.4,151.7 65.2,156.6 66.1,163.6 66.9,170.1 67.7,176.3 68.5,248.8 69.4,252.4 70.2,255.4 71.0,257.9 71.8,260.6 72.7,262.2 73.5,263.4 74.3,264.2 75.1,265.1 76.0,265.5 76.8,265.7 77.6,265.7 78.5,263.6 79.3,263.5 80.1,263.2 80.9,262.9 81.8,264.6 82.6,264.2 83.4,263.7 84.2,263.2 85.1,271.2 85.9,270.3 86.7,269.3 87.5,268.2 88.4,266.3 89.2,265.3 90.0,264.1 90.9,263.0 91.7,260.4 92.5,259.3 93.3,258.2 94.2,257.1 95.0,253.2 95.8,252.2 96.6,251.2 97.5,250.3 98.3,247.3 99.1,246.5 99.9,245.7 100.8,245.0 101.6,227.7 102.4,226.4 103.3,225.1 104.1,223.9 104.9,222.2 105.7,221.1 106.6,220.2 107.4,219.2 108.2,221.0 109.0,220.1 109.9,219.3 110.7,218.6 111.5,222.0 112.3,221.2 113.2,220.4 114.0,219.6 114.8,214.1 115.7,213.7 116.5,213.3 117.3,212.9 118.1,234.6 119.0,234.1 119.8,233.7 120.6,233.3 121.4,229.3 122.3,229.1 123.1,229.0 123.9,228.9 124.7,229.3 125.6,229.3 126.4,229.3 127.2,229.3 128.1,231.8 128.9,231.7 129.7,231.6 130.5,231.5 131.4,231.5 132.2,231.4 133.0,231.3 133.8,231.3 134.7,234.4 135.5,234.7 136.3,234.9 137.1,235.2 138.0,232.1 138.8,232.7 139.6,233.4 140.5,234.0 141.3,234.3 142.1,235.0 142.9,235.7 143.8,236.4 144.6,236.9 145.4,237.6 146.2,238.3 147.1,239.0 147.9,239.2 148.7,239.9 149.5,240.6 150.4,241.3 151.2,251.3 152.0,252.0 152.9,252.7 153.7,253.4 154.5,253.4 155.3,254.0 156.2,254.5 157.0,255.0 157.8,256.7 158.6,257.4 159.5,258.0 160.3,258.6 161.1,258.9 161.9,259.5 162.8,260.0 163.6,260.5 164.4,261.4 165.3,261.9 166.1,262.4 166.9,262.9 167.7,253.3 168.6,254.1 169.4,254.9 170.2,255.7 171.0,257.3 171.9,258.2 172.7,259.0 173.5,259.8 174.3,260.5 175.2,261.2 176.0,261.9 176.8,262.6 177.7,263.2 178.5,263.8 179.3,264.4 180.1,265.0 181.0,265.4 181.8,265.9 182.6,266.4 183.4,266.8 184.3,268.9 185.1,268.5 185.9,268.1 186.7,267.6 187.6,267.0 188.4,266.5 189.2,266.0 190.1,265.5 190.9,262.1 191.7,261.5 192.5,260.8 193.4,260.2 194.2,262.3 195.0,261.7 195.8,261.1 196.7,260.5 197.5,258.7 198.3,258.1 199.1,257.5 200.0,256.9 200.8,265.8 201.6,265.1 202.5,264.4 203.3,263.7 204.1,261.4 204.9,260.7 205.8,260.0 206.6,259.3 207.4,262.1 208.2,261.5 209.1,260.8 209.9,260.2 210.7,260.3 211.5,259.6 212.4,259.0 213.2,258.4 214.0,257.8 214.9,257.1 215.7,256.5 216.5,256.0 217.3,251.8 218.2,250.9 219.0,250.0 219.8,249.1 220.6,247.8 221.5,246.9 222.3,246.0 223.1,245.2 223.9,246.6 224.8,245.8 225.6,245.0 226.4,244.3 227.3,243.4 228.1,242.6 228.9,241.9 229.7,241.2 230.6,239.1 231.4,238.4 232.2,237.7 233.0,237.0 233.9,214.8 234.7,213.6 235.5,212.5 236.3,211.4 237.2,208.5 238.0,207.4 238.8,206.4 239.7,205.4 240.5,205.7 241.3,204.8 242.1,203.9 243.0,203.0 243.8,207.1 244.6,206.3 245.4,205.5 246.3,204.7 247.1,202.6 247.9,201.8 248.7,201.1 249.6,200.4 250.4,220.7 251.2,219.9 252.1,219.1 252.9,218.4 253.7,211.4 254.5,210.6 255.4,209.9 256.2,209.3 257.0,211.1 257.8,210.5 258.7,209.9 259.5,209.3 260.3,209.3 261.1,208.7 262.0,208.1 262.8,207.6 263.6,205.3 264.5,204.8 265.3,204.4 266.1,203.9 266.9,209.9 267.8,209.3 268.6,208.7 269.4,208.2 270.2,207.4 271.1,206.9 271.9,206.4 272.7,205.9 273.5,206.9 274.4,206.5 275.2,206.0 276.0,205.6 276.9,200.9 277.7,200.6 278.5,200.2 279.3,199.9 280.2,193.4 281.0,193.2 281.8,192.9 282.6,192.7 283.5,247.4 284.3,247.3 285.1,247.3 285.9,247.3 286.8,244.7 287.6,244.7 288.4,244.7 289.3,244.7 290.1,231.7 290.9,231.8 291.7,231.9 292.6,232.0 293.4,244.2 294.2,244.3 295.0,244.4 295.9,244.5 296.7,226.7 297.5,226.9 298.3,227.1 299.2,227.3 300.0,242.7 300.8,242.9 301.7,243.0 302.5,243.2 303.3,226.2 304.1,226.5 305.0,226.9 305.8,227.2 306.6,229.8 307.4,230.2 308.3,230.6 309.1,230.9 309.9,228.6 310.7,229.0 311.6,229.4 312.4,229.8 313.2,234.6 314.1,235.0 314.9,235.4 315.7,235.8 316.5,249.4 317.4,249.6 318.2,249.9 319.0,250.1 319.8,261.2 320.7,261.2 321.5,261.2 322.3,261.3 323.1,262.4 324.0,262.2 324.8,262.0 325.6,261.9 326.5,262.3 327.3,262.2 328.1,262.2 328.9,262.1 329.8,261.7 330.6,261.7 331.4,261.6 332.2,261.6 333.1,271.0 333.9,270.9 334.7,270.8 335.5,270.7 336.4,268.9 337.2,268.8 338.0,268.6 338.9,268.4 339.7,268.5 340.5,268.4 341.3,268.2 342.2,268.1 343.0,268.4 343.8,268.3 344.6,268.2 345.5,268.1 346.3,266.3 347.1,266.1 347.9,266.0 348.8,265.8 349.6,273.0 350.4,273.1 351.3,273.1 352.1,273.1 352.9,270.2 353.7,270.3 354.6,270.4 355.4,270.5 356.2,273.0 357.0,273.0 357.9,273.0 358.7,273.0 359.5,270.0 360.3,270.0 361.2,270.1 362.0,270.2 362.8,265.0 363.7,265.1 364.5,265.3 365.3,265.4 366.1,269.7 367.0,269.8 367.8,269.9 368.6,270.1 369.4,266.9 370.3,267.0 371.1,267.2 371.9,267.3 372.7,266.5 373.6,266.7 374.4,266.9 375.2,267.0 376.1,267.2 376.9,267.4 377.7,267.5 378.5,267.7 379.4,266.7 380.2,266.8 381.0,267.0 381.8,267.2 382.7,264.3 383.5,264.5 384.3,264.8 385.1,265.0 386.0,259.4 386.8,259.7 387.6,259.9 388.5,260.2 389.3,265.8 390.1,266.0 390.9,266.2 391.8,266.4 392.6,267.2 393.4,267.4 394.2,267.6 395.1,267.8 395.9,269.9 396.7,270.1 397.5,270.3 398.4,270.4 399.2,266.0 400.0,266.2 400.9,266.4 401.7,266.6 402.5,267.9 403.3,268.1 404.2,268.3 405.0,268.5 405.8,271.9 406.6,272.0 407.5,272.1 408.3,272.2 409.1,272.4 409.9,272.5 410.8,272.6 411.6,272.7 412.4,273.9 413.3,274.0 414.1,274.0 414.9,274.0 415.7,273.0 416.6,273.0 417.4,273.0 418.2,273.0 419.0,273.2 419.9,273.1 420.7,273.1 421.5,273.1 422.3,273.0 423.2,273.0 424.0,273.0 424.8,272.9 425.7,272.8 426.5,272.8 427.3,272.8 428.1,272.8 429.0,272.5 429.8,272.5 430.6,272.5 431.4,272.5 432.3,265.6 433.1,265.5 433.9,265.4 434.7,265.3 435.6,265.0 436.4,264.9 437.2,264.8 438.1,264.8 438.9,262.9 439.7,262.7 440.5,262.6 441.4,262.5 442.2,260.9 443.0,260.8 443.8,260.7 444.7,260.6 445.5,263.7 446.3,263.6 447.1,263.5 448.0,263.5 448.8,255.1 449.6,255.0 450.5,254.9 451.3,254.9 452.1,255.5 452.9,255.4 453.8,255.3 454.6,255.3 455.4,258.2 456.2,258.1 457.1,258.1 457.9,258.1 458.7,251.8 459.5,251.7 460.4,251.7 461.2,251.7 462.0,255.7 462.9,255.7 463.7,255.7 464.5,255.7 465.3,244.4 466.2,244.3 467.0,244.2 467.8,244.1 468.6,248.9 469.5,248.8 470.3,248.8 471.1,248.7 471.9,239.8 472.8,239.8 473.6,239.7 474.4,239.7 475.3,240.7 476.1,240.6 476.9,240.6 477.7,240.5 478.6,234.9 479.4,234.9 480.2,234.8 481.0,234.8 481.9,243.0 482.7,243.0 483.5,243.1 484.3,243.2 485.2,249.9 486.0,250.0 486.8,250.1 487.7,250.2 488.5,253.5 489.3,253.6 490.1,253.7 491.0,253.8 491.8,255.0 492.6,255.0 493.4,255.1 494.3,255.2 495.1,259.6 495.9,259.6 496.7,259.7 497.6,259.7 498.4,254.3 499.2,254.2 500.1,254.2 500.9,254.1 501.7,253.8 502.5,253.7 503.4,253.7 504.2,253.6 505.0,250.5 505.8,250.4 506.7,250.3 507.5,250.3 508.3,252.8 509.1,252.7 510.0,252.7 510.8,252.6 511.6,253.4 512.5,253.4 513.3,253.3 514.1,253.3 514.9,253.2 515.8,253.2 516.6,253.2 517.4,253.2 518.2,252.6 519.1,252.5 519.9,252.5 520.7,252.5 521.5,251.8 522.4,251.8 523.2,251.8 524.0,251.8 524.9,252.0 525.7,251.9 526.5,251.9 527.3,251.9 528.2,252.7 529.0,252.7 529.8,252.7 530.6,252.7 531.5,251.1 532.3,251.1 533.1,251.1 533.9,251.1 534.8,246.6 535.6,246.6 536.4,246.6 537.3,246.6 538.1,249.6 538.9,249.6 539.7,249.6 540.6,249.7 541.4,251.6 542.2,251.6 543.0,251.7 543.9,251.7 544.7,252.6 545.5,252.6 546.3,252.7 547.2,252.7 548.0,261.6 548.8,261.6 549.7,261.6 550.5,261.6 551.3,261.9 552.1,261.9 553.0,261.8 553.8,261.8 554.6,261.4 555.4,261.4 556.3,261.4 557.1,261.4 557.9,261.6 558.7,261.6 559.6,261.6 560.4,261.6 561.2,259.1 562.1,259.1 562.9,259.1 563.7,259.1 564.5,245.6 565.4,245.6 566.2,245.5 567.0,245.5 567.8,244.0 568.7,244.0 569.5,244.0 570.3,244.0 571.1,242.0 572.0,242.0 572.8,242.0 573.6,242.0 574.5,245.4 575.3,245.3 576.1,245.3 576.9,245.3 577.8,243.3 578.6,243.3 579.4,243.3 580.2,243.3 581.1,253.9 581.9,253.9 582.7,253.9 583.5,254.0 584.4,252.9 585.2,253.0 586.0,253.1 586.9,253.1 587.7,250.6 588.5,250.7 589.3,250.8 590.2,250.9 591.0,249.1 591.8,249.2 592.6,249.3 593.5,249.5 594.3,251.2 595.1,251.3 595.9,251.5 596.8,251.6 597.6,253.8 598.4,254.0 599.3,254.2 600.1,254.4 600.9,255.4 601.7,255.5 602.6,255.7 603.4,255.9 604.2,256.5 605.0,256.7 605.9,256.9 606.7,257.0 607.5,260.4 608.3,260.5 609.2,260.6 610.0,260.7 610.8,261.7 611.7,261.8 612.5,261.9 613.3,261.9 614.1,265.4 615.0,265.5 615.8,265.5 616.6,265.6 617.4,265.9 618.3,266.0 619.1,266.0 619.9,266.0 620.7,265.4 621.6,265.3 622.4,265.3 623.2,265.3 624.1,262.5 624.9,262.4 625.7,262.3 626.5,262.2 627.4,259.7 628.2,259.6 629.0,259.5 629.8,259.4 630.7,259.9 631.5,259.8 632.3,259.8 633.1,259.7 634.0,259.4 634.8,259.4 635.6,259.3 636.5,259.3 637.3,263.6 638.1,263.6 638.9,263.6 639.8,263.6 640.6,263.3 641.4,263.3 642.2,263.3 643.1,263.3 643.9,265.2 644.7,265.2 645.5,265.2 646.4,265.2 647.2,266.4 648.0,266.4 648.9,266.5 649.7,266.5 650.5,266.5 651.3,266.6 652.2,266.6 653.0,266.7 653.8,266.3 654.6,266.3 655.5,266.4 656.3,266.4 657.1,266.9 657.9,266.9 658.8,267.0 659.6,267.0 660.4,264.4 661.3,264.5 662.1,264.6 662.9,264.6 663.7,260.4 664.6,260.5 665.4,260.6 666.2,260.7 667.0,259.2 667.9,259.3 668.7,259.3 669.5,259.4 670.3,260.5 671.2,260.6 672.0,260.7 672.8,260.8 673.7,263.5 674.5,263.5 675.3,263.6 676.1,263.7 677.0,264.3 677.8,264.3 678.6,264.4 679.4,264.4 680.3,273.9 681.1,273.9 681.9,273.9 682.7,273.9 683.6,271.9 684.4,272.0 685.2,272.0 686.1,272.0 686.9,272.1 687.7,272.1 688.5,272.1 689.4,272.2 690.2,271.0 691.0,271.0 691.8,271.0 692.7,271.1 693.5,270.4 694.3,270.4 695.1,270.5 696.0,270.5 696.8,263.3 697.6,263.4 698.5,263.4 699.3,263.5 700.1,258.6 700.9,258.7 701.8,258.8 702.6,258.9 703.4,258.9 704.2,259.1 705.1,259.2 705.9,259.3 706.7,254.3 707.5,254.5 708.4,254.6 709.2,254.8 710.0,265.6 710.9,265.7 711.7,265.9 712.5,266.0 713.3,256.6 714.2,256.8 715.0,257.0 715.8,257.2 716.6,264.4 717.5,264.6 718.3,264.8 719.1,264.9 719.9,269.7 720.8,269.8 721.6,269.9 722.4,270.0 723.3,270.4 724.1,270.5 724.9,270.6 725.7,270.7 726.6,271.1 727.4,271.2 728.2,271.2 729.0,271.3 729.9,270.6 730.7,270.7 731.5,270.8 732.3,270.9 733.2,271.0 734.0,271.1 734.8,271.2 735.7,271.2 736.5,271.6 737.3,271.6 738.1,271.7 739.0,271.8 739.8,270.4 740.6,270.5 741.4,270.6 742.3,270.6 743.1,261.4 743.9,261.5 744.7,261.6 745.6,261.7 746.4,253.3 747.2,253.5 748.1,253.6 748.9,253.8 749.7,261.6 750.5,261.8 751.4,261.9 752.2,262.0 753.0,270.3 753.8,270.4 754.7,270.4 755.5,270.5 756.3,271.7 757.1,271.7 758.0,271.8 758.8,271.8 759.6,271.7 760.5,271.7 761.3,271.8 762.1,271.8 762.9,263.2 763.8,263.3 764.6,263.3 765.4,263.4 766.2,263.3 767.1,263.4 767.9,263.4 768.7,263.5 769.5,263.2 770.4,263.2 771.2,263.3 772.0,263.4 772.9,262.8 773.7,262.9 774.5,263.0 775.3,263.1 776.2,262.5 777.0,262.6 777.8,262.7 778.6,262.8 779.5,257.1 780.3,257.2 781.1,257.4 781.9,257.5 782.8,257.2 783.6,257.3 784.4,257.4 785.3,257.5 786.1,257.9 786.9,258.0 787.7,258.1 788.6,258.2 789.4,258.5 790.2,258.6 791.0,258.7 791.9,258.8 792.7,259.0 793.5,259.1 794.3,259.2 795.2,259.3 796.0,268.8"/>
<text x="640" y="56" font-family="Arial" font-size="12" fill="#0f766e">ekf_dropout_robust NEES proxy</text>
</svg>