<svg xmlns="http://www.w3.org/2000/svg" width="820" height="320" viewBox="0 0 820 320">
<rect width="100%" height="100%" fill="white"/>
<text x="52" y="30" font-family="Arial" font-size="18" font-weight="700">ekf_nominal NIS</text>
<line x1="52" y1="274" x2="796" y2="274" stroke="#263238"/>
<line x1="52" y1="42" x2="52" y2="274" stroke="#263238"/>
<text x="52" y="306" font-family="Arial" font-size="12">time (s)</text>
<text x="630" y="306" font-family="Arial" font-size="12">value</text>

<polyline fill="none" stroke="#0f766e" stroke-width="2.3" points="52.0,271.3 52.0,274.0 55.3,274.0 58.6,274.0 61.9,274.0 65.2,273.7 68.5,269.0 68.5,273.8 71.8,273.9 75.1,274.0 78.5,274.0 81.8,273.8 85.1,272.0 85.1,273.6 88.4,272.9 91.7,274.0 95.0,274.0 98.3,274.0 101.6,273.4 101.6,273.8 104.9,273.9 108.2,273.8 111.5,273.5 114.8,273.6 118.1,272.2 118.1,274.0 121.4,273.9 124.7,273.9 128.1,273.6 131.4,274.0 134.7,271.8 134.7,273.7 138.0,273.2 141.3,274.0 144.6,274.0 147.9,274.0 151.2,272.9 151.2,274.0 154.5,273.6 157.8,273.5 161.1,274.0 164.4,273.8 167.7,273.8 167.7,273.9 171.0,273.2 174.3,274.0 177.7,274.0 181.0,274.0 184.3,272.6 184.3,273.9 187.6,274.0 190.9,273.5 194.2,273.5 197.5,274.0 200.8,273.0 200.8,273.9 204.1,274.0 207.4,273.1 210.7,273.8 214.0,274.0 217.3,273.5 217.3,273.9 220.6,274.0 223.9,272.6 227.3,274.0 230.6,272.9 233.9,272.9 233.9,273.9 237.2,274.0 240.5,273.9 243.8,273.1 247.1,274.0 250.4,272.0 250.4,273.6 253.7,272.5 257.0,273.7 260.3,273.9 263.6,274.0 266.9,272.4 266.9,274.0 270.2,274.0 273.5,273.8 276.9,273.7 280.2,273.7 283.5,268.4 283.5,274.0 286.8,274.0 290.1,273.5 293.4,272.6 296.7,273.0 300.0,273.7 300.0,272.7 303.3,273.2 306.6,273.8 309.9,274.0 313.2,273.6 316.5,273.5 316.5,272.8 319.8,270.7 323.1,271.6 326.5,273.5 329.8,273.9 333.1,272.2 333.1,273.7 336.4,273.6 339.7,274.0 343.0,274.0 346.3,273.9 349.6,271.6 349.6,272.0 352.9,272.3 356.2,273.0 359.5,272.9 362.8,273.4 366.1,273.6 366.1,272.7 369.4,273.6 372.7,274.0 376.1,274.0 379.4,274.0 382.7,273.9 382.7,273.9 386.0,273.7 389.3,273.3 392.6,274.0 395.9,273.8 399.2,273.5 399.2,273.4 402.5,273.9 405.8,273.4 409.1,274.0 412.4,273.5 415.7,273.8 415.7,273.8 419.0,273.9 422.3,274.0 425.7,273.7 429.0,274.0 432.3,273.6 432.3,273.5 435.6,274.0 438.9,273.7 442.2,273.9 445.5,273.4 448.8,273.4 448.8,272.8 452.1,274.0 455.4,273.6 458.7,273.1 462.0,273.5 465.3,272.1 465.3,274.0 468.6,273.3 471.9,272.9 475.3,273.9 478.6,273.9 481.9,273.2 481.9,274.0 485.2,273.3 488.5,273.7 491.8,273.9 495.1,273.1 498.4,273.9 498.4,272.3 501.7,273.8 505.0,273.0 508.3,273.6 511.6,273.9 514.9,42.0 514.9,273.2 518.2,272.2 521.5,273.9 524.9,274.0 528.2,273.9 531.5,60.6 531.5,273.7 534.8,273.2 538.1,273.7 541.4,273.8 544.7,273.9 548.0,273.2 548.0,274.0 551.3,273.7 554.6,273.6 557.9,274.0 561.2,272.9 564.5,273.2 564.5,273.7 567.8,273.8 571.1,273.8 574.5,273.0 577.8,273.6 581.1,272.4 581.1,273.6 584.4,274.0 587.7,273.9 591.0,274.0 594.3,273.9 597.6,272.2 597.6,273.2 600.9,274.0 604.2,274.0 607.5,273.5 610.8,273.9 614.1,273.6 614.1,274.0 617.4,273.8 620.7,273.6 624.1,273.5 627.4,273.9 630.7,273.3 630.7,274.0 634.0,274.0 637.3,273.2 640.6,274.0 643.9,273.7 647.2,273.8 647.2,273.4 650.5,274.0 653.8,273.9 657.1,273.7 660.4,272.2 663.7,272.7 663.7,274.0 667.0,273.9 670.3,273.9 673.7,273.3 677.0,273.6 680.3,272.0 680.3,273.4 683.6,273.6 686.9,274.0 690.2,273.9 693.5,274.0 696.8,273.6 696.8,273.8 700.1,273.8 703.4,274.0 706.7,273.9 710.0,272.3 713.3,273.9 713.3,273.5 716.6,273.0 719.9,272.8 723.3,274.0 726.6,273.9 729.9,273.9 729.9,273.8 733.2,274.0 736.5,274.0 739.8,273.8 743.1,271.9 746.4,272.8 746.4,274.0 749.7,273.0 753.0,271.3 756.3,273.4 759.6,274.0 762.9,271.7 762.9,273.9 766.2,273.8 769.5,274.0 772.9,274.0 776.2,274.0 779.5,273.4 779.5,273.1 782.8,273.7 786.1,274.0 789.4,273.7 792.7,273.8 796.0,273.1 796.0,274.0"/>
<text x="640" y="56" font-family="Arial" font-size="12" fill="#0f766e">ekf_nominal NIS</text>
</svg>