<svg xmlns="http://www.w3.org/2000/svg" width="820" height="320" viewBox="0 0 820 320">
<rect width="100%" height="100%" fill="white"/>
<text x="52" y="30" font-family="Arial" font-size="18" font-weight="700">nominal covariance trace</text>
<line x1="52" y1="274" x2="796" y2="274" stroke="#263238"/>
<line x1="52" y1="42" x2="52" y2="274" stroke="#263238"/>
<text x="52" y="306" font-family="Arial" font-size="12">time (s)</text>
<text x="630" y="306" font-family="Arial" font-size="12">sqrt trace P</text>

<polyline fill="none" stroke="#0f766e" stroke-width="2.3" points="52.0,180.6 52.8,179.8 53.7,177.5 54.5,173.6 55.3,173.6 56.1,168.2 57.0,161.6 57.8,154.0 58.6,150.5 59.4,142.2 60.3,133.2 61.1,123.6 61.9,116.9 62.7,106.8 63.6,96.3 64.4,85.5 65.2,76.4 66.1,65.2 66.9,53.7 67.7,42.0 68.5,194.6 69.4,188.2 70.2,181.6 71.0,174.6 71.8,169.0 72.7,161.6 73.5,154.1 74.3,146.3 75.1,139.5 76.0,131.5 76.8,123.4 77.6,115.1 78.5,107.5 79.3,99.0 80.1,90.5 80.9,81.8 81.8,73.6 82.6,64.8 83.4,55.9 84.2,46.9 85.1,196.2 85.9,191.4 86.7,186.6 87.5,181.6 88.4,177.2 89.2,172.1 90.0,166.9 90.9,161.6 91.7,156.8 92.5,151.3 93.3,145.8 94.2,140.2 95.0,135.1 95.8,129.4 96.6,123.6 97.5,117.8 98.3,112.4 99.1,106.4 99.9,100.4 100.8,94.3 101.6,204.3 102.4,200.7 103.3,196.9 104.1,193.1 104.9,189.9 105.7,186.0 106.6,182.0 107.4,177.9 108.2,174.4 109.0,170.2 109.9,166.0 110.7,161.7 111.5,157.8 112.3,153.4 113.2,148.9 114.0,144.3 114.8,140.2 115.7,135.5 116.5,130.8 117.3,126.0 118.1,211.4 119.0,208.2 119.8,205.0 120.6,201.7 121.4,198.9 122.3,195.4 123.1,191.9 123.9,188.3 124.7,185.2 125.6,181.5 126.4,177.6 127.2,173.7 128.1,170.3 128.9,166.3 129.7,162.2 130.5,158.0 131.4,154.2 132.2,149.9 133.0,145.5 133.8,141.0 134.7,215.5 135.5,212.4 136.3,209.2 137.1,206.0 138.0,203.2 138.8,199.9 139.6,196.4 140.5,192.9 141.3,189.7 142.1,186.0 142.9,182.3 143.8,178.4 144.6,174.9 145.4,170.9 146.2,166.8 147.1,162.6 147.9,158.8 148.7,154.5 149.5,150.1 150.4,145.6 151.2,216.8 152.0,213.8 152.9,210.6 153.7,207.4 154.5,204.4 155.3,201.1 156.2,197.6 157.0,194.0 157.8,190.8 158.6,187.0 159.5,183.3 160.3,179.4 161.1,175.8 161.9,171.8 162.8,167.7 163.6,163.6 164.4,159.6 165.3,155.3 166.1,151.0 166.9,146.5 167.7,217.2 168.6,214.2 169.4,211.0 170.2,207.8 171.0,204.9 171.9,201.5 172.7,198.1 173.5,194.6 174.3,191.4 175.2,187.8 176.0,184.1 176.8,180.3 177.7,176.8 178.5,172.9 179.3,168.9 180.1,164.9 181.0,161.1 181.8,156.9 182.6,152.7 183.4,148.5 184.3,217.9 185.1,215.0 185.9,212.0 186.7,208.9 187.6,206.1 188.4,202.9 189.2,199.6 190.1,196.4 190.9,193.2 191.7,189.8 192.5,186.4 193.4,182.8 194.2,179.4 195.0,175.8 195.8,172.1 196.7,168.4 197.5,164.8 198.3,160.9 199.1,157.0 200.0,153.0 200.8,219.4 201.6,216.7 202.5,213.9 203.3,211.0 204.1,208.3 204.9,205.4 205.8,202.4 206.6,199.4 207.4,196.5 208.2,193.3 209.1,190.1 209.9,186.9 210.7,183.8 211.5,180.5 212.4,177.1 213.2,173.7 214.0,170.4 214.9,166.8 215.7,163.3 216.5,159.7 217.3,221.7 218.2,219.1 219.0,216.5 219.8,213.9 220.6,211.5 221.5,208.8 222.3,206.0 223.1,203.2 223.9,200.6 224.8,197.7 225.6,194.8 226.4,191.9 227.3,189.1 228.1,186.1 228.9,183.0 229.7,179.9 230.6,176.9 231.4,173.8 232.2,170.6 233.0,167.4 233.9,224.3 234.7,222.0 235.5,219.7 236.3,217.3 237.2,215.0 238.0,212.5 238.8,210.1 239.7,207.5 240.5,205.1 241.3,202.5 242.1,199.9 243.0,197.3 243.8,194.7 244.6,192.0 245.4,189.3 246.3,186.5 247.1,183.8 247.9,181.0 248.7,178.1 249.6,175.2 250.4,227.2 251.2,225.1 252.1,222.9 252.9,220.8 253.7,218.7 254.5,216.5 255.4,214.2 256.2,211.9 257.0,209.7 257.8,207.4 258.7,205.0 259.5,202.6 260.3,200.3 261.1,197.9 262.0,195.4 262.8,192.9 263.6,190.5 264.5,187.9 265.3,185.4 266.1,182.8 266.9,230.1 267.8,228.2 268.6,226.2 269.4,224.3 270.2,222.4 271.1,220.3 271.9,218.3 272.7,216.2 273.5,214.2 274.4,212.1 275.2,209.9 276.0,207.8 276.9,205.7 277.7,203.5 278.5,201.2 279.3,199.0 280.2,196.8 281.0,194.5 281.8,192.2 282.6,189.8 283.5,233.0 284.3,231.3 285.1,229.5 285.9,227.6 286.8,225.9 287.6,224.1 288.4,222.2 289.3,220.3 290.1,218.5 290.9,216.5 291.7,214.6 292.6,212.6 293.4,210.7 294.2,208.7 295.0,206.7 295.9,204.6 296.7,202.6 297.5,200.6 298.3,198.4 299.2,196.3 300.0,235.8 300.8,234.2 301.7,232.5 302.5,230.9 303.3,229.3 304.1,227.6 305.0,225.9 305.8,224.1 306.6,222.5 307.4,220.7 308.3,218.9 309.1,217.1 309.9,215.4 310.7,213.5 311.6,211.7 312.4,209.8 313.2,208.0 314.1,206.1 314.9,204.2 315.7,202.3 316.5,238.5 317.4,237.0 318.2,235.5 319.0,233.9 319.8,232.5 320.7,230.9 321.5,229.3 322.3,227.7 323.1,226.2 324.0,224.6 324.8,222.9 325.6,221.3 326.5,219.7 327.3,218.0 328.1,216.3 328.9,214.6 329.8,212.9 330.6,211.2 331.4,209.4 332.2,207.7 333.1,241.1 333.9,239.7 334.7,238.3 335.5,236.8 336.4,235.5 337.2,234.0 338.0,232.6 338.9,231.1 339.7,229.7 340.5,228.2 341.3,226.7 342.2,225.1 343.0,223.7 343.8,222.1 344.6,220.5 345.5,219.0 346.3,217.5 347.1,215.8 347.9,214.2 348.8,212.6 349.6,243.5 350.4,242.2 351.3,240.9 352.1,239.5 352.9,238.3 353.7,236.9 354.6,235.6 355.4,234.2 356.2,232.9 357.0,231.5 357.9,230.1 358.7,228.7 359.5,227.3 360.3,225.9 361.2,224.4 362.0,223.0 362.8,221.6 363.7,220.1 364.5,218.6 365.3,217.1 366.1,245.8 367.0,244.6 367.8,243.3 368.6,242.1 369.4,240.9 370.3,239.7 371.1,238.4 371.9,237.1 372.7,235.9 373.6,234.6 374.4,233.3 375.2,232.0 376.1,230.7 376.9,229.4 377.7,228.0 378.5,226.7 379.4,225.4 380.2,224.0 381.0,222.6 381.8,221.2 382.7,247.9 383.5,246.8 384.3,245.6 385.1,244.5 386.0,243.4 386.8,242.2 387.6,241.0 388.5,239.8 389.3,238.7 390.1,237.5 390.9,236.2 391.8,235.0 392.6,233.9 393.4,232.6 394.2,231.3 395.1,230.1 395.9,228.9 396.7,227.6 397.5,226.3 398.4,225.0 399.2,250.0 400.0,248.9 400.9,247.8 401.7,246.7 402.5,245.7 403.3,244.6 404.2,243.5 405.0,242.3 405.8,241.3 406.6,240.1 407.5,239.0 408.3,237.8 409.1,236.7 409.9,235.6 410.8,234.4 411.6,233.2 412.4,232.1 413.3,230.9 414.1,229.7 414.9,228.4 415.7,251.9 416.6,250.8 417.4,249.8 418.2,248.8 419.0,247.8 419.9,246.8 420.7,245.7 421.5,244.7 422.3,243.7 423.2,242.6 424.0,241.5 424.8,240.4 425.7,239.4 426.5,238.3 427.3,237.2 428.1,236.1 429.0,235.0 429.8,233.9 430.6,232.8 431.4,231.6 432.3,253.7 433.1,252.7 433.9,251.7 434.7,250.8 435.6,249.9 436.4,248.9 437.2,247.9 438.1,246.9 438.9,245.9 439.7,244.9 440.5,243.9 441.4,242.9 442.2,241.9 443.0,240.9 443.8,239.8 444.7,238.8 445.5,237.8 446.3,236.7 447.1,235.6 448.0,234.5 448.8,255.4 449.6,254.4 450.5,253.5 451.3,252.6 452.1,251.8 452.9,250.8 453.8,249.9 454.6,248.9 455.4,248.0 456.2,247.1 457.1,246.1 457.9,245.1 458.7,244.2 459.5,243.2 460.4,242.2 461.2,241.2 462.0,240.3 462.9,239.3 463.7,238.3 464.5,237.3 465.3,257.0 466.2,256.1 467.0,255.2 467.8,254.3 468.6,253.5 469.5,252.6 470.3,251.7 471.1,250.8 471.9,250.0 472.8,249.1 473.6,248.2 474.4,247.2 475.3,246.4 476.1,245.4 476.9,244.5 477.7,243.5 478.6,242.7 479.4,241.7 480.2,240.7 481.0,239.8 481.9,258.5 482.7,257.6 483.5,256.8 484.3,255.9 485.2,255.2 486.0,254.3 486.8,253.5 487.7,252.6 488.5,251.8 489.3,251.0 490.1,250.1 491.0,249.2 491.8,248.4 492.6,247.5 493.4,246.6 494.3,245.7 495.1,244.8 495.9,243.9 496.7,243.0 497.6,242.1 498.4,259.9 499.2,259.1 500.1,258.3 500.9,257.5 501.7,256.7 502.5,255.9 503.4,255.1 504.2,254.3 505.0,253.5 505.8,252.7 506.7,251.8 507.5,251.0 508.3,250.2 509.1,249.4 510.0,248.5 510.8,247.6 511.6,246.9 512.5,246.0 513.3,245.1 514.1,244.2 514.9,243.4 515.8,242.5 516.6,241.6 517.4,240.7 518.2,239.9 519.1,239.0 519.9,238.0 520.7,237.1 521.5,236.3 522.4,235.3 523.2,234.4 524.0,233.4 524.9,232.6 525.7,231.6 526.5,230.7 527.3,229.7 528.2,228.8 529.0,227.9 529.8,226.9 530.6,225.9 531.5,225.0 532.3,224.0 533.1,223.0 533.9,222.0 534.8,221.1 535.6,220.1 536.4,219.1 537.3,218.0 538.1,217.1 538.9,216.1 539.7,215.0 540.6,214.0 541.4,213.0 542.2,212.0 543.0,211.0 543.9,209.9 544.7,208.9 545.5,207.9 546.3,206.8 547.2,205.7 548.0,240.6 548.8,239.7 549.7,238.9 550.5,238.0 551.3,237.3 552.1,236.4 553.0,235.5 553.8,234.7 554.6,233.9 555.4,233.0 556.3,232.2 557.1,231.3 557.9,230.5 558.7,229.6 559.6,228.7 560.4,227.8 561.2,227.0 562.1,226.1 562.9,225.2 563.7,224.3 564.5,249.8 565.4,249.1 566.2,248.3 567.0,247.5 567.8,246.9 568.7,246.1 569.5,245.3 570.3,244.6 571.1,243.9 572.0,243.1 572.8,242.3 573.6,241.5 574.5,240.8 575.3,240.0 576.1,239.2 576.9,238.4 577.8,237.7 578.6,236.9 579.4,236.0 580.2,235.2 581.1,255.9 581.9,255.2 582.7,254.5 583.5,253.8 584.4,253.2 585.2,252.5 586.0,251.8 586.9,251.1 587.7,250.4 588.5,249.7 589.3,249.0 590.2,248.3 591.0,247.6 591.8,246.9 592.6,246.1 593.5,245.4 594.3,244.7 595.1,244.0 595.9,243.2 596.8,242.5 597.6,260.2 598.4,259.6 599.3,258.9 600.1,258.2 600.9,257.7 601.7,257.0 602.6,256.3 603.4,255.7 604.2,255.1 605.0,254.4 605.9,253.7 606.7,253.0 607.5,252.4 608.3,251.7 609.2,251.0 610.0,250.3 610.8,249.7 611.7,249.0 612.5,248.3 613.3,247.5 614.1,263.4 615.0,262.8 615.8,262.1 616.6,261.5 617.4,260.9 618.3,260.3 619.1,259.7 619.9,259.0 620.7,258.5 621.6,257.8 622.4,257.1 623.2,256.5 624.1,255.9 624.9,255.2 625.7,254.6 626.5,253.9 627.4,253.3 628.2,252.6 629.0,251.9 629.8,251.2 630.7,265.8 631.5,265.1 632.3,264.5 633.1,263.9 634.0,263.4 634.8,262.8 635.6,262.2 636.5,261.5 637.3,261.0 638.1,260.4 638.9,259.7 639.8,259.1 640.6,258.5 641.4,257.9 642.2,257.2 643.1,256.6 643.9,256.0 644.7,255.3 645.5,254.7 646.4,254.0 647.2,267.6 648.0,267.0 648.9,266.4 649.7,265.8 650.5,265.3 651.3,264.7 652.2,264.1 653.0,263.5 653.8,262.9 654.6,262.3 655.5,261.7 656.3,261.1 657.1,260.5 657.9,259.9 658.8,259.3 659.6,258.6 660.4,258.1 661.3,257.4 662.1,256.8 662.9,256.1 663.7,269.0 664.6,268.4 665.4,267.8 666.2,267.2 667.0,266.7 667.9,266.2 668.7,265.6 669.5,265.0 670.3,264.4 671.2,263.8 672.0,263.2 672.8,262.6 673.7,262.1 674.5,261.5 675.3,260.9 676.1,260.2 677.0,259.7 677.8,259.1 678.6,258.4 679.4,257.8 680.3,270.1 681.1,269.5 681.9,269.0 682.7,268.4 683.6,267.9 684.4,267.3 685.2,266.7 686.1,266.1 686.9,265.6 687.7,265.1 688.5,264.5 689.4,263.8 690.2,263.3 691.0,262.7 691.8,262.1 692.7,261.5 693.5,261.0 694.3,260.4 695.1,259.7 696.0,259.1 696.8,271.0 697.6,270.4 698.5,269.9 699.3,269.3 700.1,268.8 700.9,268.3 701.8,267.7 702.6,267.1 703.4,266.6 704.2,266.0 705.1,265.4 705.9,264.8 706.7,264.3 707.5,263.7 708.4,263.1 709.2,262.5 710.0,262.0 710.9,261.4 711.7,260.8 712.5,260.2 713.3,271.7 714.2,271.2 715.0,270.6 715.8,270.0 716.6,269.6 717.5,269.0 718.3,268.4 719.1,267.9 719.9,267.4 720.8,266.8 721.6,266.2 722.4,265.6 723.3,265.2 724.1,264.6 724.9,264.0 725.7,263.4 726.6,262.9 727.4,262.3 728.2,261.6 729.0,261.0 729.9,272.3 730.7,271.8 731.5,271.2 732.3,270.7 733.2,270.2 734.0,269.7 734.8,269.1 735.7,268.5 736.5,268.0 737.3,267.5 738.1,266.9 739.0,266.3 739.8,265.8 740.6,265.2 741.4,264.7 742.3,264.1 743.1,263.6 743.9,263.0 744.7,262.4 745.6,261.8 746.4,272.8 747.2,272.3 748.1,271.7 748.9,271.2 749.7,270.7 750.5,270.2 751.4,269.6 752.2,269.1 753.0,268.6 753.8,268.0 754.7,267.5 755.5,266.9 756.3,266.4 757.1,265.8 758.0,265.2 758.8,264.7 759.6,264.2 760.5,263.6 761.3,263.0 762.1,262.4 762.9,273.3 763.8,272.7 764.6,272.2 765.4,271.6 766.2,271.2 767.1,270.7 767.9,270.1 768.7,269.5 769.5,269.1 770.4,268.5 771.2,268.0 772.0,267.4 772.9,266.9 773.7,266.3 774.5,265.8 775.3,265.2 776.2,264.7 777.0,264.1 777.8,263.5 778.6,262.9 779.5,273.7 780.3,273.1 781.1,272.6 781.9,272.0 782.8,271.6 783.6,271.1 784.4,270.5 785.3,270.0 786.1,269.5 786.9,268.9 787.7,268.4 788.6,267.8 789.4,267.4 790.2,266.8 791.0,266.2 791.9,265.6 792.7,265.2 793.5,264.6 794.3,264.0 795.2,263.4 796.0,274.0"/>
<text x="640" y="56" font-family="Arial" font-size="12" fill="#0f766e">nominal covariance trace</text>
</svg>