<svg xmlns="http://www.w3.org/2000/svg" width="820" height="320" viewBox="0 0 820 320">
<rect width="100%" height="100%" fill="white"/>
<text x="52" y="30" font-family="Arial" font-size="18" font-weight="700">ekf_dropout_robust position error</text>
<line x1="52" y1="274" x2="796" y2="274" stroke="#263238"/>
<line x1="52" y1="42" x2="52" y2="274" stroke="#263238"/>
<text x="52" y="306" font-family="Arial" font-size="12">time (s)</text>
<text x="630" y="306" font-family="Arial" font-size="12">m</text>

<polyline fill="none" stroke="#0f766e" stroke-width="2.3" points="52.0,46.8 52.8,46.5 53.7,46.3 54.5,46.1 55.3,45.8 56.1,45.6 57.0,45.3 57.8,45.1 58.6,44.8 59.4,44.6 60.3,44.4 61.1,44.1 61.9,43.9 62.7,43.7 63.6,43.4 64.4,43.2 65.2,42.8 66.1,42.6 66.9,42.3 67.7,42.0 68.5,211.8 69.4,215.0 70.2,217.9 71.0,220.4 71.8,222.8 72.7,224.4 73.5,225.4 74.3,225.8 75.1,225.8 76.0,225.1 76.8,223.8 77.6,222.0 78.5,219.5 79.3,216.8 80.1,213.6 80.9,210.1 81.8,206.7 82.6,202.7 83.4,198.4 84.2,194.0 85.1,254.7 85.9,250.7 86.7,246.6 87.5,242.3 88.4,237.8 89.2,233.4 90.0,228.9 90.9,224.4 91.7,219.8 92.5,215.2 93.3,210.6 94.2,206.0 95.0,201.3 95.8,196.6 96.6,192.0 97.5,187.4 98.3,182.7 99.1,178.0 99.9,173.4 100.8,168.7 101.6,199.0 102.4,195.2 103.3,191.4 104.1,187.6 104.9,183.9 105.7,180.1 106.6,176.2 107.4,172.4 108.2,168.8 109.0,165.0 109.9,161.1 110.7,157.3 111.5,153.7 112.3,149.8 113.2,146.0 114.0,142.1 114.8,138.1 115.7,134.3 116.5,130.4 117.3,126.6 118.1,201.3 119.0,198.9 119.8,196.5 120.6,194.0 121.4,191.5 122.3,189.1 123.1,186.7 123.9,184.3 124.7,182.0 125.6,179.6 126.4,177.3 127.2,174.9 128.1,172.7 128.9,170.3 129.7,168.0 130.5,165.6 131.4,163.3 132.2,161.0 133.0,158.7 133.8,156.3 134.7,199.9 135.5,198.6 136.3,197.3 137.1,196.0 138.0,194.5 138.8,193.3 139.6,192.0 140.5,190.7 141.3,189.5 142.1,188.3 142.9,187.1 143.8,185.8 144.6,184.7 145.4,183.5 146.2,182.3 147.1,181.1 147.9,180.0 148.7,178.8 149.5,177.7 150.4,176.5 151.2,220.2 152.0,219.9 152.9,219.7 153.7,219.4 154.5,219.1 155.3,218.9 156.2,218.7 157.0,218.5 157.8,218.4 158.6,218.2 159.5,218.1 160.3,217.9 161.1,217.8 161.9,217.7 162.8,217.7 163.6,217.6 164.4,217.6 165.3,217.6 166.1,217.6 166.9,217.7 167.7,223.7 168.6,223.9 169.4,224.0 170.2,224.2 171.0,224.4 171.9,224.7 172.7,224.9 173.5,225.1 174.3,225.4 175.2,225.7 176.0,225.9 176.8,226.2 177.7,226.6 178.5,226.9 179.3,227.2 180.1,227.6 181.0,228.0 181.8,228.4 182.6,228.8 183.4,229.2 184.3,250.0 185.1,248.3 185.9,246.6 186.7,244.9 187.6,243.0 188.4,241.1 189.2,239.2 190.1,237.2 190.9,235.0 191.7,233.0 192.5,230.9 193.4,228.7 194.2,226.8 195.0,224.5 195.8,222.3 196.7,220.0 197.5,217.6 198.3,215.2 199.1,212.8 200.0,210.4 200.8,247.1 201.6,245.1 202.5,243.1 203.3,241.1 204.1,238.9 204.9,236.8 205.8,234.6 206.6,232.5 207.4,230.6 208.2,228.4 209.1,226.1 209.9,223.9 210.7,221.6 211.5,219.3 212.4,217.0 213.2,214.6 214.0,212.2 214.9,209.8 215.7,207.3 216.5,204.9 217.3,223.8 218.2,221.6 219.0,219.4 219.8,217.2 220.6,214.9 221.5,212.7 222.3,210.4 223.1,208.0 223.9,205.8 224.8,203.4 225.6,201.0 226.4,198.6 227.3,196.2 228.1,193.7 228.9,191.2 229.7,188.7 230.6,186.1 231.4,183.6 232.2,181.0 233.0,178.4 233.9,191.6 234.7,189.2 235.5,186.7 236.3,184.3 237.2,181.8 238.0,179.3 238.8,176.8 239.7,174.3 240.5,171.8 241.3,169.2 242.1,166.6 243.0,164.0 243.8,161.5 244.6,158.8 245.4,156.1 246.3,153.4 247.1,150.7 247.9,147.9 248.7,145.1 249.6,142.3 250.4,193.7 251.2,191.7 252.1,189.7 252.9,187.7 253.7,185.4 254.5,183.3 255.4,181.2 256.2,179.1 257.0,177.0 257.8,174.8 258.7,172.7 259.5,170.5 260.3,168.3 261.1,166.0 262.0,163.8 262.8,161.5 263.6,159.2 264.5,156.9 265.3,154.6 266.1,152.3 266.9,190.1 267.8,188.3 268.6,186.5 269.4,184.6 270.2,182.8 271.1,180.9 271.9,179.1 272.7,177.2 273.5,175.3 274.4,173.4 275.2,171.5 276.0,169.5 276.9,167.5 277.7,165.5 278.5,163.5 279.3,161.5 280.2,159.4 281.0,157.4 281.8,155.3 282.6,153.2 283.5,243.8 284.3,243.0 285.1,242.1 285.9,241.3 286.8,240.4 287.6,239.6 288.4,238.7 289.3,237.8 290.1,236.4 290.9,235.5 291.7,234.6 292.6,233.7 293.4,233.6 294.2,232.7 295.0,231.8 295.9,230.9 296.7,229.2 297.5,228.2 298.3,227.3 299.2,226.3 300.0,244.1 300.8,243.4 301.7,242.6 302.5,241.9 303.3,240.3 304.1,239.5 305.0,238.7 305.8,237.9 306.6,237.6 307.4,236.8 308.3,236.0 309.1,235.2 309.9,234.5 310.7,233.7 311.6,232.9 312.4,232.0 313.2,231.7 314.1,230.8 314.9,230.0 315.7,229.2 316.5,243.3 317.4,242.7 318.2,242.0 319.0,241.3 319.8,241.4 320.7,240.7 321.5,240.0 322.3,239.3 323.1,238.7 324.0,238.0 324.8,237.2 325.6,236.5 326.5,235.8 327.3,235.1 328.1,234.3 328.9,233.6 329.8,232.8 330.6,232.1 331.4,231.3 332.2,230.5 333.1,259.9 333.9,259.5 334.7,259.1 335.5,258.7 336.4,258.2 337.2,257.8 338.0,257.4 338.9,257.0 339.7,256.6 340.5,256.2 341.3,255.8 342.2,255.4 343.0,255.1 343.8,254.7 344.6,254.3 345.5,253.8 346.3,253.3 347.1,252.9 347.9,252.4 348.8,252.0 349.6,265.5 350.4,265.4 351.3,265.2 352.1,265.1 352.9,264.5 353.7,264.4 354.6,264.2 355.4,264.1 356.2,264.3 357.0,264.1 357.9,263.9 358.7,263.8 359.5,263.2 360.3,263.1 361.2,262.9 362.0,262.7 362.8,262.0 363.7,261.8 364.5,261.6 365.3,261.4 366.1,261.2 367.0,261.1 367.8,261.1 368.6,261.0 369.4,260.6 370.3,260.5 371.1,260.5 371.9,260.4 372.7,260.3 373.6,260.2 374.4,260.1 375.2,260.1 376.1,260.1 376.9,260.0 377.7,259.9 378.5,259.9 379.4,259.7 380.2,259.7 381.0,259.6 381.8,259.5 382.7,262.6 383.5,262.6 384.3,262.5 385.1,262.5 386.0,261.9 386.8,261.9 387.6,261.8 388.5,261.8 389.3,262.6 390.1,262.6 390.9,262.6 391.8,262.6 392.6,262.8 393.4,262.8 394.2,262.8 395.1,262.8 395.9,263.1 396.7,263.1 397.5,263.1 398.4,263.1 399.2,267.8 400.0,267.7 400.9,267.6 401.7,267.6 402.5,267.8 403.3,267.7 404.2,267.6 405.0,267.5 405.8,268.1 406.6,268.0 407.5,267.9 408.3,267.8 409.1,267.8 409.9,267.7 410.8,267.6 411.6,267.5 412.4,267.6 413.3,267.5 414.1,267.4 414.9,267.3 415.7,267.2 416.6,267.0 417.4,266.8 418.2,266.5 419.0,266.3 419.9,266.1 420.7,265.9 421.5,265.7 422.3,265.4 423.2,265.2 424.0,265.0 424.8,264.7 425.7,264.5 426.5,264.2 427.3,263.9 428.1,263.7 429.0,263.4 429.8,263.1 430.6,262.9 431.4,262.6 432.3,251.7 433.1,251.3 433.9,251.0 434.7,250.6 435.6,250.2 436.4,249.8 437.2,249.4 438.1,249.0 438.9,248.5 439.7,248.1 440.5,247.7 441.4,247.3 442.2,246.9 443.0,246.5 443.8,246.0 444.7,245.6 445.5,245.5 446.3,245.0 447.1,244.6 448.0,244.2 448.8,244.9 449.6,244.5 450.5,244.1 451.3,243.8 452.1,243.5 452.9,243.1 453.8,242.7 454.6,242.3 455.4,242.2 456.2,241.8 457.1,241.4 457.9,241.0 458.7,240.3 459.5,239.9 460.4,239.5 461.2,239.1 462.0,239.0 462.9,238.6 463.7,238.2 464.5,237.8 465.3,237.3 466.2,236.8 467.0,236.2 467.8,235.7 468.6,235.5 469.5,235.0 470.3,234.5 471.1,234.0 471.9,233.1 472.8,232.5 473.6,232.0 474.4,231.5 475.3,231.1 476.1,230.5 476.9,230.0 477.7,229.4 478.6,228.7 479.4,228.1 480.2,227.6 481.0,227.0 481.9,246.9 482.7,246.5 483.5,246.1 484.3,245.8 485.2,246.0 486.0,245.6 486.8,245.3 487.7,244.9 488.5,244.9 489.3,244.5 490.1,244.1 491.0,243.8 491.8,243.5 492.6,243.2 493.4,242.8 494.3,242.4 495.1,242.4 495.9,242.0 496.7,241.6 497.6,241.2 498.4,238.7 499.2,238.3 500.1,237.8 500.9,237.4 501.7,237.0 502.5,236.6 503.4,236.1 504.2,235.7 505.0,235.1 505.8,234.7 506.7,234.3 507.5,233.8 508.3,233.5 509.1,233.1 510.0,232.6 510.8,232.2 511.6,231.8 512.5,231.3 513.3,230.8 514.1,230.4 514.9,229.9 515.8,229.5 516.6,229.0 517.4,228.5 518.2,228.0 519.1,227.6 519.9,227.1 520.7,226.6 521.5,226.1 522.4,225.6 523.2,225.1 524.0,224.6 524.9,224.2 525.7,223.7 526.5,223.2 527.3,222.6 528.2,222.2 529.0,221.7 529.8,221.2 530.6,220.6 531.5,220.1 532.3,219.6 533.1,219.0 533.9,218.5 534.8,217.8 535.6,217.3 536.4,216.8 537.3,216.3 538.1,215.9 538.9,215.3 539.7,214.8 540.6,214.3 541.4,213.8 542.2,213.3 543.0,212.8 543.9,212.2 544.7,211.7 545.5,211.2 546.3,210.6 547.2,210.1 548.0,240.1 548.8,239.8 549.7,239.4 550.5,239.1 551.3,238.7 552.1,238.3 553.0,238.0 553.8,237.6 554.6,237.2 555.4,236.8 556.3,236.4 557.1,236.1 557.9,235.7 558.7,235.3 559.6,234.9 560.4,234.5 561.2,234.0 562.1,233.7 562.9,233.3 563.7,232.9 564.5,225.5 565.4,225.0 566.2,224.6 567.0,224.1 567.8,223.5 568.7,223.0 569.5,222.6 570.3,222.1 571.1,221.5 572.0,221.0 572.8,220.5 573.6,220.0 574.5,219.7 575.3,219.2 576.1,218.6 576.9,218.1 577.8,217.5 578.6,217.0 579.4,216.5 580.2,216.0 581.1,240.0 581.9,239.6 582.7,239.3 583.5,238.9 584.4,238.6 585.2,238.2 586.0,237.9 586.9,237.5 587.7,237.1 588.5,236.7 589.3,236.4 590.2,236.0 591.0,235.6 591.8,235.2 592.6,234.8 593.5,234.5 594.3,234.2 595.1,233.9 595.9,233.5 596.8,233.1 597.6,247.6 598.4,247.3 599.3,247.1 600.1,246.8 600.9,246.7 601.7,246.4 602.6,246.2 603.4,245.9 604.2,245.7 605.0,245.4 605.9,245.2 606.7,244.9 607.5,244.9 608.3,244.6 609.2,244.3 610.0,244.1 610.8,243.9 611.7,243.6 612.5,243.3 613.3,243.1 614.1,253.4 615.0,253.2 615.8,253.0 616.6,252.8 617.4,252.6 618.3,252.4 619.1,252.2 619.9,252.0 620.7,251.8 621.6,251.6 622.4,251.4 623.2,251.2 624.1,250.8 624.9,250.6 625.7,250.4 626.5,250.2 627.4,249.9 628.2,249.6 629.0,249.4 629.8,249.2 630.7,253.0 631.5,252.8 632.3,252.6 633.1,252.5 634.0,252.3 634.8,252.1 635.6,252.0 636.5,251.8 637.3,252.0 638.1,251.8 638.9,251.6 639.8,251.5 640.6,251.3 641.4,251.1 642.2,250.9 643.1,250.8 643.9,250.7 644.7,250.6 645.5,250.4 646.4,250.2 647.2,255.0 648.0,254.9 648.9,254.7 649.7,254.6 650.5,254.4 651.3,254.3 652.2,254.2 653.0,254.0 653.8,253.8 654.6,253.7 655.5,253.5 656.3,253.4 657.1,253.3 657.9,253.1 658.8,253.0 659.6,252.8 660.4,252.5 661.3,252.3 662.1,252.2 662.9,252.0 663.7,250.9 664.6,250.7 665.4,250.5 666.2,250.4 667.0,250.1 667.9,249.9 668.7,249.7 669.5,249.6 670.3,249.5 671.2,249.3 672.0,249.1 672.8,249.0 673.7,249.0 674.5,248.8 675.3,248.6 676.1,248.5 677.0,248.3 677.8,248.2 678.6,248.0 679.4,247.8 680.3,273.9 681.1,273.9 681.9,274.0 682.7,274.0 683.6,273.5 684.4,273.5 685.2,273.5 686.1,273.5 686.9,273.6 687.7,273.7 688.5,273.7 689.4,273.7 690.2,273.4 691.0,273.4 691.8,273.4 692.7,273.4 693.5,273.4 694.3,273.4 695.1,273.4 696.0,273.4 696.8,265.4 697.6,265.4 698.5,265.3 699.3,265.3 700.1,264.7 700.9,264.6 701.8,264.6 702.6,264.5 703.4,264.6 704.2,264.6 705.1,264.5 705.9,264.4 706.7,264.0 707.5,263.9 708.4,263.8 709.2,263.7 710.0,265.4 710.9,265.3 711.7,265.3 712.5,265.2 713.3,261.2 714.2,261.1 715.0,261.0 715.8,260.9 716.6,261.8 717.5,261.8 718.3,261.7 719.1,261.6 719.9,262.2 720.8,262.1 721.6,262.1 722.4,262.0 723.3,262.0 724.1,262.0 724.9,261.9 725.7,261.9 726.6,261.9 727.4,261.8 728.2,261.8 729.0,261.7 729.9,265.1 730.7,265.0 731.5,265.0 732.3,265.0 733.2,265.0 734.0,265.0 734.8,265.0 735.7,265.0 736.5,265.0 737.3,265.0 738.1,265.0 739.0,265.0 739.8,264.8 740.6,264.8 741.4,264.8 742.3,264.8 743.1,263.6 743.9,263.5 744.7,263.5 745.6,263.4 746.4,261.5 747.2,261.5 748.1,261.4 748.9,261.3 749.7,262.4 750.5,262.3 751.4,262.3 752.2,262.2 753.0,263.3 753.8,263.2 754.7,263.2 755.5,263.2 756.3,263.3 757.1,263.3 758.0,263.2 758.8,263.2 759.6,263.1 760.5,263.1 761.3,263.1 762.1,263.0 762.9,251.2 763.8,251.1 764.6,250.9 765.4,250.8 766.2,250.6 767.1,250.5 767.9,250.3 768.7,250.2 769.5,250.0 770.4,249.8 771.2,249.7 772.0,249.5 772.9,249.4 773.7,249.2 774.5,249.0 775.3,248.9 776.2,248.7 777.0,248.6 777.8,248.4 778.6,248.2 779.5,244.3 780.3,244.1 781.1,244.0 781.9,243.8 782.8,243.6 783.6,243.5 784.4,243.3 785.3,243.1 786.1,243.0 786.9,242.8 787.7,242.6 788.6,242.5 789.4,242.3 790.2,242.1 791.0,241.9 791.9,241.8 792.7,241.6 793.5,241.4 794.3,241.3 795.2,241.1 796.0,259.4"/>
<text x="640" y="56" font-family="Arial" font-size="12" fill="#0f766e">ekf_dropout_robust position error</text>
</svg>