<svg xmlns="http://www.w3.org/2000/svg" width="820" height="320" viewBox="0 0 820 320">
<rect width="100%" height="100%" fill="white"/>
<text x="52" y="30" font-family="Arial" font-size="18" font-weight="700">ekf_nominal residuals</text>
<line x1="52" y1="274" x2="796" y2="274" stroke="#263238"/>
<line x1="52" y1="42" x2="52" y2="274" stroke="#263238"/>
<text x="52" y="306" font-family="Arial" font-size="12">time (s)</text>
<text x="630" y="306" font-family="Arial" font-size="12">norm</text>

<polyline fill="none" stroke="#0f766e" stroke-width="2.3" points="52.0,254.3 52.0,271.1 55.3,272.8 58.6,273.9 61.9,272.3 65.2,269.6 68.5,212.0 68.5,270.9 71.8,272.3 75.1,273.0 78.5,272.8 81.8,270.9 85.1,265.9 85.1,270.2 88.4,267.4 91.7,273.2 95.0,272.8 98.3,274.0 101.6,258.3 101.6,271.2 104.9,272.4 108.2,271.0 111.5,269.5 114.8,270.1 118.1,238.9 118.1,273.2 121.4,272.3 124.7,272.6 128.1,270.2 131.4,272.8 134.7,258.7 134.7,270.8 138.0,268.5 141.3,273.6 144.6,273.6 147.9,274.0 151.2,256.0 151.2,273.1 154.5,270.4 157.8,269.7 161.1,273.0 164.4,271.3 167.7,267.7 167.7,272.6 171.0,268.8 174.3,273.9 177.7,273.6 181.0,273.1 184.3,244.7 184.3,272.2 187.6,273.0 190.9,270.0 194.2,269.9 197.5,272.8 200.8,251.9 200.8,272.3 204.1,273.0 207.4,268.8 210.7,271.3 214.0,273.9 217.3,258.0 217.3,272.2 220.6,274.0 223.9,267.4 227.3,272.9 230.6,268.2 233.9,255.3 233.9,272.3 237.2,273.5 240.5,272.3 243.8,268.6 247.1,273.0 250.4,242.1 250.4,270.5 253.7,267.3 257.0,271.1 260.3,272.7 263.6,273.1 266.9,247.9 266.9,273.7 270.2,273.4 273.5,271.8 276.9,270.9 280.2,271.1 283.5,226.3 283.5,273.2 286.8,273.9 290.1,270.2 293.4,267.5 296.7,268.4 300.0,263.8 300.0,267.7 303.3,269.0 306.6,271.4 309.9,273.2 313.2,270.7 316.5,260.4 316.5,268.0 319.8,263.9 323.1,265.5 326.5,270.0 329.8,272.6 333.1,253.7 333.1,271.2 336.4,270.5 339.7,273.9 343.0,273.5 346.3,272.2 349.6,243.1 349.6,266.2 352.9,266.8 356.2,268.6 359.5,268.4 362.8,269.8 366.1,268.9 366.1,267.8 369.4,270.6 372.7,273.8 376.1,273.4 379.4,273.6 382.7,269.1 382.7,272.1 386.0,270.9 389.3,269.5 392.6,272.9 395.9,271.4 399.2,260.3 399.2,269.7 402.5,272.4 405.8,269.8 409.1,273.5 412.4,270.0 415.7,266.2 415.7,271.6 419.0,272.8 422.3,273.2 425.7,271.1 429.0,272.8 432.3,262.6 432.3,270.2 435.6,273.4 438.9,271.2 442.2,272.7 445.5,269.8 448.8,263.2 448.8,268.1 452.1,273.0 455.4,270.5 458.7,268.9 462.0,270.2 465.3,260.5 465.3,272.9 468.6,269.4 471.9,268.4 475.3,272.6 478.6,271.9 481.9,258.1 481.9,273.6 485.2,269.4 488.5,270.9 491.8,272.3 495.1,268.9 498.4,270.6 498.4,266.9 501.7,271.5 505.0,268.5 508.3,270.5 511.6,272.2 514.9,47.3 514.9,269.1 518.2,266.6 521.5,272.6 524.9,273.9 528.2,272.5 531.5,42.0 531.5,271.0 534.8,269.2 538.1,271.2 541.4,271.5 544.7,272.1 548.0,254.5 548.0,273.5 551.3,271.1 554.6,270.6 557.9,273.1 561.2,268.4 564.5,263.2 564.5,271.3 567.8,271.6 571.1,271.7 574.5,268.6 577.8,270.4 581.1,260.1 581.1,270.7 584.4,273.1 587.7,272.0 591.0,273.0 594.3,272.3 597.6,254.3 597.6,269.3 600.9,272.9 604.2,273.1 607.5,270.0 610.8,272.1 614.1,266.3 614.1,273.2 617.4,271.8 620.7,270.7 624.1,270.0 627.4,272.0 630.7,265.1 630.7,273.7 634.0,273.9 637.3,269.1 640.6,274.0 643.9,270.8 647.2,266.2 647.2,269.9 650.5,273.5 653.8,272.1 657.1,271.2 660.4,266.7 663.7,271.1 663.7,273.3 667.0,272.4 670.3,272.7 673.7,269.6 677.0,270.6 680.3,249.1 680.3,269.7 683.6,270.7 686.9,273.9 690.2,272.8 693.5,273.6 696.8,263.9 696.8,271.8 700.1,271.3 703.4,273.5 706.7,272.0 710.0,266.8 713.3,270.9 713.3,270.1 716.6,268.5 719.9,268.0 723.3,272.9 726.6,272.7 729.9,273.0 729.9,271.9 733.2,273.6 736.5,273.1 739.8,271.6 743.1,266.1 746.4,255.9 746.4,273.5 749.7,268.6 753.0,265.0 756.3,269.8 759.6,273.1 762.9,256.7 762.9,272.7 766.2,271.5 769.5,273.0 772.9,273.1 776.2,273.5 779.5,262.1 779.5,269.0 782.8,271.2 786.1,273.5 789.4,270.8 792.7,271.8 796.0,256.6 796.0,273.9"/>
<text x="640" y="56" font-family="Arial" font-size="12" fill="#0f766e">ekf_nominal residuals</text>
</svg>