<svg xmlns="http://www.w3.org/2000/svg" width="820" height="320" viewBox="0 0 820 320">
<rect width="100%" height="100%" fill="white"/>
<text x="52" y="30" font-family="Arial" font-size="18" font-weight="700">ekf_dropout_robust residuals</text>
<line x1="52" y1="274" x2="796" y2="274" stroke="#263238"/>
<line x1="52" y1="42" x2="52" y2="274" stroke="#263238"/>
<text x="52" y="306" font-family="Arial" font-size="12">time (s)</text>
<text x="630" y="306" font-family="Arial" font-size="12">norm</text>

<polyline fill="none" stroke="#0f766e" stroke-width="2.3" points="52.0,254.2 52.0,270.7 55.3,273.0 58.6,273.9 61.9,272.5 65.2,269.6 68.5,215.3 68.5,271.0 71.8,272.2 75.1,272.9 78.5,272.8 81.8,270.9 85.1,261.1 85.1,270.2 88.4,267.5 91.7,273.1 95.0,272.7 98.3,273.9 101.6,260.1 101.6,271.1 104.9,272.6 108.2,271.1 111.5,269.5 114.8,270.2 118.1,240.0 118.1,273.1 121.4,272.3 124.7,272.6 128.1,270.1 131.4,272.6 134.7,258.0 134.7,270.9 138.0,268.5 141.3,273.6 144.6,273.5 147.9,274.0 151.2,254.0 151.2,273.1 154.5,270.3 157.8,269.7 161.1,272.9 164.4,271.3 167.7,266.6 167.7,272.6 171.0,268.8 174.3,273.9 177.7,273.5 181.0,273.1 184.3,240.9 184.3,272.2 187.6,273.0 190.9,270.0 194.2,269.9 197.5,272.8 200.8,257.2 200.8,272.3 204.1,272.9 207.4,268.8 210.7,271.3 214.0,273.9 217.3,261.5 217.3,272.1 220.6,273.9 223.9,267.4 227.3,272.9 230.6,268.1 233.9,256.6 233.9,272.3 237.2,273.5 240.5,272.2 243.8,268.6 247.1,272.9 250.4,244.3 250.4,270.6 253.7,267.1 257.0,271.1 260.3,272.8 263.6,273.0 266.9,249.3 266.9,273.6 270.2,273.5 273.5,271.9 276.9,270.8 280.2,271.0 283.5,227.5 283.5,273.2 286.8,273.9 290.1,270.2 293.4,267.4 296.7,268.3 300.0,264.5 300.0,267.6 303.3,269.0 306.6,271.3 309.9,273.2 313.2,270.7 316.5,261.0 316.5,268.1 319.8,264.1 323.1,265.9 326.5,269.4 329.8,272.0 333.1,254.5 333.1,271.7 336.4,271.1 339.7,273.3 343.0,272.8 346.3,272.7 349.6,243.5 349.6,265.7 352.9,266.5 356.2,268.7 359.5,268.1 362.8,269.7 366.1,269.4 366.1,267.7 369.4,270.4 372.7,273.8 376.1,273.3 379.4,273.6 382.7,268.5 382.7,272.1 386.0,271.0 389.3,269.4 392.6,272.8 395.9,271.3 399.2,259.8 399.2,269.6 402.5,272.3 405.8,269.7 409.1,273.5 412.4,270.1 415.7,266.2 415.7,271.3 419.0,272.9 422.3,273.3 425.7,270.9 429.0,272.7 432.3,262.5 432.3,270.3 435.6,273.6 438.9,271.4 442.2,272.9 445.5,269.4 448.8,263.0 448.8,268.2 452.1,272.7 455.4,270.3 458.7,269.0 462.0,269.9 465.3,260.6 465.3,273.0 468.6,269.2 471.9,268.4 475.3,272.3 478.6,272.1 481.9,258.1 481.9,273.4 485.2,269.2 488.5,270.9 491.8,272.3 495.1,269.0 498.4,270.7 498.4,267.2 501.7,272.0 505.0,269.1 508.3,269.8 511.6,271.6 514.9,47.3 514.9,268.5 518.2,267.0 521.5,273.2 524.9,273.3 528.2,271.9 531.5,42.0 531.5,271.4 534.8,269.8 538.1,270.5 541.4,270.9 544.7,271.7 548.0,254.6 548.0,273.8 551.3,270.8 554.6,270.8 557.9,272.7 561.2,268.6 564.5,264.4 564.5,270.9 567.8,271.8 571.1,272.0 574.5,268.2 577.8,270.5 581.1,260.1 581.1,270.9 584.4,273.4 587.7,272.3 591.0,273.3 594.3,271.9 597.6,254.3 597.6,269.4 600.9,272.6 604.2,272.8 607.5,269.9 610.8,272.1 614.1,267.4 614.1,273.2 617.4,271.9 620.7,270.8 624.1,270.2 627.4,272.3 630.7,264.3 630.7,273.3 634.0,273.5 637.3,268.7 640.6,273.9 643.9,270.6 647.2,267.2 647.2,269.9 650.5,273.4 653.8,272.0 657.1,271.2 660.4,266.8 663.7,270.0 663.7,273.6 667.0,272.8 670.3,272.4 673.7,269.2 677.0,270.4 680.3,250.3 680.3,269.8 683.6,270.9 686.9,273.6 690.2,273.1 693.5,273.9 696.8,263.3 696.8,272.1 700.1,271.7 703.4,273.0 706.7,272.4 710.0,266.3 713.3,272.8 713.3,270.3 716.6,268.1 719.9,267.8 723.3,273.0 726.6,272.7 729.9,271.5 729.9,271.7 733.2,273.6 736.5,273.2 739.8,271.4 743.1,266.1 746.4,256.1 746.4,273.8 749.7,268.3 753.0,264.9 756.3,269.9 759.6,272.8 762.9,255.7 762.9,273.0 766.2,271.2 769.5,272.7 772.9,272.8 776.2,273.3 779.5,262.0 779.5,269.2 782.8,271.6 786.1,273.0 789.4,270.4 792.7,272.1 796.0,256.5 796.0,273.6"/>
<text x="640" y="56" font-family="Arial" font-size="12" fill="#0f766e">ekf_dropout_robust residuals</text>
</svg>