<svg xmlns="http://www.w3.org/2000/svg" width="820" height="320" viewBox="0 0 820 320">
<rect width="100%" height="100%" fill="white"/>
<text x="52" y="30" font-family="Arial" font-size="18" font-weight="700">ekf_nominal velocity error</text>
<line x1="52" y1="274" x2="796" y2="274" stroke="#263238"/>
<line x1="52" y1="42" x2="52" y2="274" stroke="#263238"/>
<text x="52" y="306" font-family="Arial" font-size="12">time (s)</text>
<text x="630" y="306" font-family="Arial" font-size="12">m/s</text>

<polyline fill="none" stroke="#0f766e" stroke-width="2.3" points="52.0,258.0 52.8,257.9 53.7,257.8 54.5,257.8 55.3,252.2 56.1,252.3 57.0,252.3 57.8,252.3 58.6,252.9 59.4,252.7 60.3,252.4 61.1,252.3 61.9,257.5 62.7,257.3 63.6,257.2 64.4,257.2 65.2,247.3 66.1,247.2 66.9,247.1 67.7,246.9 68.5,43.1 69.4,43.1 70.2,43.0 71.0,42.9 71.8,43.0 72.7,42.9 73.5,42.8 74.3,42.7 75.1,42.8 76.0,42.7 76.8,42.6 77.6,42.5 78.5,42.4 79.3,42.3 80.1,42.3 80.9,42.3 81.8,42.3 82.6,42.1 83.4,42.1 84.2,42.0 85.1,117.6 85.9,117.6 86.7,117.6 87.5,117.6 88.4,117.7 89.2,117.8 90.0,117.9 90.9,117.9 91.7,117.9 92.5,117.8 93.3,117.8 94.2,117.7 95.0,117.7 95.8,117.8 96.6,117.8 97.5,117.8 98.3,117.8 99.1,117.9 99.9,117.8 100.8,117.9 101.6,150.5 102.4,150.6 103.3,150.7 104.1,150.8 104.9,151.2 105.7,151.4 106.6,151.4 107.4,151.5 108.2,151.7 109.0,151.8 109.9,151.8 110.7,152.0 111.5,152.1 112.3,152.2 113.2,152.4 114.0,152.4 114.8,152.6 115.7,152.7 116.5,152.8 117.3,153.0 118.1,202.2 119.0,202.7 119.8,203.1 120.6,203.5 121.4,204.0 122.3,204.4 123.1,204.9 123.9,205.1 124.7,205.6 125.6,205.9 126.4,206.2 127.2,206.5 128.1,206.5 128.9,206.8 129.7,207.2 130.5,207.7 131.4,208.0 132.2,208.4 133.0,208.7 133.8,209.0 134.7,238.3 135.5,238.5 136.3,238.8 137.1,239.1 138.0,240.1 138.8,240.3 139.6,240.5 140.5,240.8 141.3,240.9 142.1,241.2 142.9,241.4 143.8,241.7 144.6,241.7 145.4,241.9 146.2,242.1 147.1,242.2 147.9,242.3 148.7,242.4 149.5,242.5 150.4,242.6 151.2,268.8 152.0,268.4 152.9,268.0 153.7,267.5 154.5,264.5 155.3,263.9 156.2,263.4 157.0,263.0 157.8,264.7 158.6,264.0 159.5,263.4 160.3,262.6 161.1,261.5 161.9,260.7 162.8,259.9 163.6,259.1 164.4,259.0 165.3,258.3 166.1,257.5 166.9,256.7 167.7,254.8 168.6,254.2 169.4,253.4 170.2,252.7 171.0,252.8 171.9,252.0 172.7,251.3 173.5,250.5 174.3,249.8 175.2,249.1 176.0,248.3 176.8,247.5 177.7,246.8 178.5,246.0 179.3,245.2 180.1,244.5 181.0,243.7 181.8,242.9 182.6,242.1 183.4,241.2 184.3,201.5 185.1,200.4 185.9,199.2 186.7,198.0 187.6,196.9 188.4,195.7 189.2,194.7 190.1,193.6 190.9,192.4 191.7,191.3 192.5,190.2 193.4,189.2 194.2,188.1 195.0,186.9 195.8,185.9 196.7,184.7 197.5,183.5 198.3,182.4 199.1,181.3 200.0,180.3 200.8,204.5 201.6,203.7 202.5,202.6 203.3,201.7 204.1,200.8 204.9,199.9 205.8,199.0 206.6,198.0 207.4,197.2 208.2,196.3 209.1,195.4 209.9,194.4 210.7,193.5 211.5,192.6 212.4,191.7 213.2,190.8 214.0,189.8 214.9,188.8 215.7,187.9 216.5,186.8 217.3,202.1 218.2,201.3 219.0,200.5 219.8,199.7 220.6,198.7 221.5,197.8 222.3,197.0 223.1,196.2 223.9,195.4 224.8,194.6 225.6,193.8 226.4,192.9 227.3,192.0 228.1,191.2 228.9,190.5 229.7,189.6 230.6,188.8 231.4,187.9 232.2,187.1 233.0,186.4 233.9,197.1 234.7,196.5 235.5,195.8 236.3,195.0 237.2,194.2 238.0,193.6 238.8,192.7 239.7,191.9 240.5,191.3 241.3,190.6 242.1,189.8 243.0,189.0 243.8,188.4 244.6,187.6 245.4,186.9 246.3,186.2 247.1,185.4 247.9,184.8 248.7,184.0 249.6,183.2 250.4,210.4 251.2,209.9 252.1,209.3 252.9,208.7 253.7,208.0 254.5,207.3 255.4,206.6 256.2,206.1 257.0,205.5 257.8,205.0 258.7,204.5 259.5,203.9 260.3,203.4 261.1,202.9 262.0,202.3 262.8,201.8 263.6,201.2 264.5,200.6 265.3,200.0 266.1,199.5 266.9,218.0 267.8,217.5 268.6,216.9 269.4,216.4 270.2,215.9 271.1,215.4 271.9,214.9 272.7,214.4 273.5,214.1 274.4,213.6 275.2,213.2 276.0,212.7 276.9,212.3 277.7,211.9 278.5,211.3 279.3,210.9 280.2,210.4 281.0,209.9 281.8,209.4 282.6,208.9 283.5,247.5 284.3,247.3 285.1,247.1 285.9,246.9 286.8,246.8 287.6,246.6 288.4,246.3 289.3,246.0 290.1,245.7 290.9,245.4 291.7,245.2 292.6,244.9 293.4,245.0 294.2,244.9 295.0,244.6 295.9,244.3 296.7,244.0 297.5,243.7 298.3,243.4 299.2,243.2 300.0,250.7 300.8,250.5 301.7,250.3 302.5,250.1 303.3,249.8 304.1,249.6 305.0,249.3 305.8,249.1 306.6,249.1 307.4,248.8 308.3,248.7 309.1,248.4 309.9,248.3 310.7,248.2 311.6,248.0 312.4,247.8 313.2,247.8 314.1,247.5 314.9,247.4 315.7,247.1 316.5,252.9 317.4,252.8 318.2,252.6 319.0,252.5 319.8,252.5 320.7,252.4 321.5,252.2 322.3,252.1 323.1,251.7 324.0,251.5 324.8,251.3 325.6,251.2 326.5,251.0 327.3,250.9 328.1,250.8 328.9,250.6 329.8,250.5 330.6,250.4 331.4,250.3 332.2,250.1 333.1,261.9 333.9,261.8 334.7,261.8 335.5,261.7 336.4,261.5 337.2,261.3 338.0,261.2 338.9,261.2 339.7,261.0 340.5,260.9 341.3,260.8 342.2,260.8 343.0,260.7 343.8,260.7 344.6,260.6 345.5,260.6 346.3,260.3 347.1,260.2 347.9,260.1 348.8,260.0 349.6,268.2 350.4,268.2 351.3,268.1 352.1,268.2 352.9,268.1 353.7,268.0 354.6,268.1 355.4,267.9 356.2,267.9 357.0,267.9 357.9,268.0 358.7,268.0 359.5,267.9 360.3,267.8 361.2,267.8 362.0,267.7 362.8,267.5 363.7,267.4 364.5,267.4 365.3,267.4 366.1,272.8 367.0,272.9 367.8,272.9 368.6,272.9 369.4,272.9 370.3,272.8 371.1,272.8 371.9,272.8 372.7,272.8 373.6,272.8 374.4,272.8 375.2,272.7 376.1,272.6 376.9,272.5 377.7,272.5 378.5,272.6 379.4,272.4 380.2,272.6 381.0,272.6 381.8,272.5 382.7,274.0 383.5,273.9 384.3,274.0 385.1,273.9 386.0,273.4 386.8,273.5 387.6,273.4 388.5,273.3 389.3,273.8 390.1,273.8 390.9,273.7 391.8,273.5 392.6,273.5 393.4,273.6 394.2,273.6 395.1,273.6 395.9,273.7 396.7,273.6 397.5,273.7 398.4,273.6 399.2,268.5 400.0,268.4 400.9,268.4 401.7,268.4 402.5,268.4 403.3,268.4 404.2,268.3 405.0,268.3 405.8,268.3 406.6,268.2 407.5,268.1 408.3,268.1 409.1,268.0 409.9,268.1 410.8,268.0 411.6,268.0 412.4,267.9 413.3,268.0 414.1,267.9 414.9,267.8 415.7,266.4 416.6,266.3 417.4,266.2 418.2,266.2 419.0,266.0 419.9,265.9 420.7,265.9 421.5,265.9 422.3,265.8 423.2,265.8 424.0,265.6 424.8,265.6 425.7,265.5 426.5,265.5 427.3,265.4 428.1,265.4 429.0,265.3 429.8,265.3 430.6,265.3 431.4,265.3 432.3,262.8 433.1,262.8 433.9,262.8 434.7,262.8 435.6,262.7 436.4,262.5 437.2,262.4 438.1,262.5 438.9,262.3 439.7,262.3 440.5,262.2 441.4,262.3 442.2,262.2 443.0,262.0 443.8,262.0 444.7,261.9 445.5,261.8 446.3,261.6 447.1,261.6 448.0,261.4 448.8,262.9 449.6,262.8 450.5,262.8 451.3,262.7 452.1,262.7 452.9,262.6 453.8,262.5 454.6,262.4 455.4,262.5 456.2,262.4 457.1,262.4 457.9,262.3 458.7,262.1 459.5,262.1 460.4,262.0 461.2,262.1 462.0,262.1 462.9,262.1 463.7,262.1 464.5,262.0 465.3,259.5 466.2,259.5 467.0,259.5 467.8,259.4 468.6,259.5 469.5,259.5 470.3,259.4 471.1,259.4 471.9,259.2 472.8,259.1 473.6,259.0 474.4,258.9 475.3,258.7 476.1,258.5 476.9,258.5 477.7,258.6 478.6,258.4 479.4,258.3 480.2,258.4 481.0,258.3 481.9,262.9 482.7,262.9 483.5,263.0 484.3,262.9 485.2,263.0 486.0,263.0 486.8,263.1 487.7,263.0 488.5,263.1 489.3,263.2 490.1,263.1 491.0,263.0 491.8,263.0 492.6,262.9 493.4,262.8 494.3,262.8 495.1,262.9 495.9,262.8 496.7,262.9 497.6,262.8 498.4,262.2 499.2,262.1 500.1,262.0 500.9,261.9 501.7,261.8 502.5,261.7 503.4,261.6 504.2,261.6 505.0,261.5 505.8,261.5 506.7,261.3 507.5,261.2 508.3,261.1 509.1,261.0 510.0,260.9 510.8,260.8 511.6,260.8 512.5,260.8 513.3,260.7 514.1,260.8 514.9,260.6 515.8,260.6 516.6,260.4 517.4,260.3 518.2,260.4 519.1,260.3 519.9,260.3 520.7,260.2 521.5,260.1 522.4,259.9 523.2,259.8 524.0,259.7 524.9,259.7 525.7,259.5 526.5,259.4 527.3,259.4 528.2,259.4 529.0,259.3 529.8,259.3 530.6,259.2 531.5,259.1 532.3,259.1 533.1,259.1 533.9,259.1 534.8,258.9 535.6,259.0 536.4,258.9 537.3,258.8 538.1,258.7 538.9,258.7 539.7,258.7 540.6,258.6 541.4,258.7 542.2,258.6 543.0,258.6 543.9,258.5 544.7,258.5 545.5,258.2 546.3,258.2 547.2,258.2 548.0,263.0 548.8,262.8 549.7,262.7 550.5,262.7 551.3,262.6 552.1,262.5 553.0,262.4 553.8,262.4 554.6,262.4 555.4,262.4 556.3,262.4 557.1,262.4 557.9,262.2 558.7,262.3 559.6,262.3 560.4,262.3 561.2,262.3 562.1,262.2 562.9,262.2 563.7,262.1 564.5,260.8 565.4,260.8 566.2,260.8 567.0,260.6 567.8,260.6 568.7,260.6 569.5,260.5 570.3,260.5 571.1,260.4 572.0,260.3 572.8,260.3 573.6,260.2 574.5,260.0 575.3,259.9 576.1,259.9 576.9,259.8 577.8,259.7 578.6,259.7 579.4,259.6 580.2,259.4 581.1,263.5 581.9,263.6 582.7,263.6 583.5,263.6 584.4,263.5 585.2,263.5 586.0,263.5 586.9,263.4 587.7,263.2 588.5,263.1 589.3,263.1 590.2,263.0 591.0,262.9 591.8,263.0 592.6,262.9 593.5,262.9 594.3,262.9 595.1,262.9 595.9,262.9 596.8,262.8 597.6,265.6 598.4,265.5 599.3,265.4 600.1,265.3 600.9,265.3 601.7,265.3 602.6,265.2 603.4,265.1 604.2,265.0 605.0,265.0 605.9,264.9 606.7,264.8 607.5,264.9 608.3,265.0 609.2,265.1 610.0,265.1 610.8,265.0 611.7,265.0 612.5,265.1 613.3,265.0 614.1,267.0 615.0,267.0 615.8,266.8 616.6,266.8 617.4,266.9 618.3,266.9 619.1,266.9 619.9,266.7 620.7,266.6 621.6,266.7 622.4,266.7 623.2,266.7 624.1,266.5 624.9,266.5 625.7,266.5 626.5,266.5 627.4,266.4 628.2,266.3 629.0,266.1 629.8,266.0 630.7,267.3 631.5,267.3 632.3,267.3 633.1,267.3 634.0,267.2 634.8,267.2 635.6,267.2 636.5,267.3 637.3,267.4 638.1,267.3 638.9,267.4 639.8,267.3 640.6,267.4 641.4,267.3 642.2,267.4 643.1,267.2 643.9,267.3 644.7,267.4 645.5,267.5 646.4,267.5 647.2,268.4 648.0,268.4 648.9,268.4 649.7,268.3 650.5,268.3 651.3,268.3 652.2,268.3 653.0,268.2 653.8,268.1 654.6,268.1 655.5,268.0 656.3,267.9 657.1,268.0 657.9,268.0 658.8,268.1 659.6,268.0 660.4,268.1 661.3,268.1 662.1,268.1 662.9,268.1 663.7,269.2 664.6,269.2 665.4,269.2 666.2,269.1 667.0,269.1 667.9,269.0 668.7,269.0 669.5,269.0 670.3,269.0 671.2,269.0 672.0,269.0 672.8,269.0 673.7,269.0 674.5,269.0 675.3,269.0 676.1,269.0 677.0,269.0 677.8,268.9 678.6,269.0 679.4,268.9 680.3,272.2 681.1,272.3 681.9,272.3 682.7,272.4 683.6,272.2 684.4,272.1 685.2,272.0 686.1,271.9 686.9,272.0 687.7,272.0 688.5,271.9 689.4,272.0 690.2,271.9 691.0,271.9 691.8,271.7 692.7,271.7 693.5,271.7 694.3,271.7 695.1,271.7 696.0,271.7 696.8,271.0 697.6,271.1 698.5,271.0 699.3,271.1 700.1,271.0 700.9,270.9 701.8,270.9 702.6,270.9 703.4,270.9 704.2,271.0 705.1,271.0 705.9,270.9 706.7,270.7 707.5,270.7 708.4,270.8 709.2,270.8 710.0,271.5 710.9,271.5 711.7,271.5 712.5,271.4 713.3,270.9 714.2,270.9 715.0,270.8 715.8,270.9 716.6,271.3 717.5,271.4 718.3,271.5 719.1,271.4 719.9,271.5 720.8,271.5 721.6,271.5 722.4,271.5 723.3,271.6 724.1,271.6 724.9,271.7 725.7,271.7 726.6,271.8 727.4,271.8 728.2,271.7 729.0,271.7 729.9,272.5 730.7,272.5 731.5,272.5 732.3,272.6 733.2,272.5 734.0,272.5 734.8,272.5 735.7,272.6 736.5,272.5 737.3,272.3 738.1,272.3 739.0,272.3 739.8,272.2 740.6,272.3 741.4,272.2 742.3,272.1 743.1,271.4 743.9,271.4 744.7,271.4 745.6,271.4 746.4,271.0 747.2,271.0 748.1,270.9 748.9,271.0 749.7,271.6 750.5,271.5 751.4,271.5 752.2,271.5 753.0,272.2 753.8,272.1 754.7,272.1 755.5,272.1 756.3,272.2 757.1,272.2 758.0,272.1 758.8,272.0 759.6,271.8 760.5,271.9 761.3,271.8 762.1,271.7 762.9,271.3 763.8,271.3 764.6,271.2 765.4,271.3 766.2,271.3 767.1,271.3 767.9,271.4 768.7,271.4 769.5,271.2 770.4,271.2 771.2,271.2 772.0,271.1 772.9,271.1 773.7,271.1 774.5,271.1 775.3,271.1 776.2,271.1 777.0,271.1 777.8,271.1 778.6,271.2 779.5,270.8 780.3,270.8 781.1,270.7 781.9,270.8 782.8,270.9 783.6,270.8 784.4,270.9 785.3,270.7 786.1,270.7 786.9,270.6 787.7,270.7 788.6,270.6 789.4,270.6 790.2,270.5 791.0,270.5 791.9,270.7 792.7,270.7 793.5,270.7 794.3,270.8 795.2,270.8 796.0,273.1"/>
<text x="640" y="56" font-family="Arial" font-size="12" fill="#0f766e">ekf_nominal velocity error</text>
</svg>