<svg xmlns="http://www.w3.org/2000/svg" width="820" height="320" viewBox="0 0 820 320">
<rect width="100%" height="100%" fill="white"/>
<text x="52" y="30" font-family="Arial" font-size="18" font-weight="700">ekf_nominal altitude</text>
<line x1="52" y1="274" x2="796" y2="274" stroke="#263238"/>
<line x1="52" y1="42" x2="52" y2="274" stroke="#263238"/>
<text x="52" y="306" font-family="Arial" font-size="12">time (s)</text>
<text x="630" y="306" font-family="Arial" font-size="12">m</text>

<rect x="314.6" y="42" width="153.2" height="232" fill="#fef3c7" opacity="0.72"/>
<polyline fill="none" stroke="#0f766e" stroke-width="2.3" points="52.0,261.9 53.1,261.7 54.2,261.5 55.3,261.3 56.4,261.1 57.5,260.8 58.6,260.6 59.7,260.4 60.8,260.2 61.8,259.9 62.9,259.7 64.0,259.4 65.1,259.2 66.2,258.9 67.3,258.7 68.4,258.4 69.5,258.2 70.6,257.9 71.7,257.6 72.8,257.3 73.9,257.1 75.0,256.8 76.1,256.5 77.2,256.2 78.3,255.9 79.4,255.6 80.4,255.3 81.5,255.0 82.6,254.6 83.7,254.3 84.8,254.0 85.9,253.7 87.0,253.3 88.1,253.0 89.2,252.6 90.3,252.3 91.4,251.9 92.5,251.6 93.6,251.2 94.7,250.9 95.8,250.5 96.9,250.1 98.0,249.7 99.0,249.3 100.1,249.0 101.2,248.6 102.3,248.2 103.4,247.8 104.5,247.4 105.6,246.9 106.7,246.5 107.8,246.1 108.9,245.7 110.0,245.3 111.1,244.8 112.2,244.4 113.3,243.9 114.4,243.5 115.5,243.0 116.6,242.6 117.6,242.1 118.7,241.7 119.8,241.2 120.9,240.7 122.0,240.3 123.1,239.8 124.2,239.3 125.3,238.8 126.4,238.3 127.5,237.8 128.6,237.3 129.7,236.8 130.8,236.3 131.9,235.8 133.0,235.2 134.1,234.7 135.2,234.2 136.2,233.6 137.3,233.1 138.4,232.6 139.5,232.0 140.6,231.5 141.7,230.9 142.8,230.3 143.9,229.8 145.0,229.2 146.1,228.6 147.2,228.1 148.3,227.5 149.4,226.9 150.5,226.3 151.6,225.7 152.7,225.1 153.8,224.5 154.8,223.9 155.9,223.3 157.0,222.7 158.1,222.0 159.2,221.4 160.3,220.8 161.4,220.1 162.5,219.5 163.6,218.8 164.7,218.2 165.8,217.5 166.9,216.9 168.0,216.2 169.1,215.6 170.2,214.9 171.3,214.2 172.4,213.5 173.4,212.8 174.5,212.2 175.6,211.5 176.7,210.8 177.8,210.1 178.9,209.4 180.0,208.6 181.1,207.9 182.2,207.2 183.3,206.5 184.4,205.8 185.5,205.0 186.6,204.3 187.7,203.5 188.8,202.8 189.9,202.0 191.0,201.3 192.0,200.5 193.1,199.8 194.2,199.0 195.3,198.2 196.4,197.4 197.5,196.7 198.6,195.9 199.7,195.1 200.8,194.3 201.9,193.5 203.0,192.7 204.1,191.9 205.2,191.1 206.3,190.2 207.4,189.4 208.5,188.6 209.6,187.8 210.6,186.9 211.7,186.1 212.8,185.2 213.9,184.4 215.0,183.5 216.1,182.7 217.2,181.8 218.3,181.0 219.4,180.1 220.5,179.2 221.6,178.3 222.7,177.5 223.8,176.6 224.9,175.7 226.0,174.8 227.1,173.9 228.2,173.0 229.2,172.1 230.3,171.1 231.4,170.2 232.5,169.3 233.6,168.4 234.7,167.4 235.8,166.5 236.9,165.6 238.0,164.6 239.1,163.7 240.2,162.7 241.3,161.8 242.4,160.8 243.5,159.8 244.6,158.9 245.7,157.9 246.8,156.9 247.8,155.9 248.9,154.9 250.0,153.9 251.1,152.9 252.2,151.9 253.3,150.9 254.4,149.9 255.5,148.9 256.6,147.9 257.7,146.8 258.8,145.8 259.9,144.8 261.0,143.7 262.1,142.7 263.2,141.7 264.3,140.6 265.4,139.6 266.4,138.6 267.5,137.6 268.6,136.6 269.7,135.6 270.8,134.6 271.9,133.6 273.0,132.6 274.1,131.6 275.2,130.7 276.3,129.7 277.4,128.7 278.5,127.8 279.6,126.8 280.7,125.9 281.8,124.9 282.9,124.0 284.0,123.1 285.0,122.2 286.1,121.2 287.2,120.3 288.3,119.4 289.4,118.5 290.5,117.6 291.6,116.7 292.7,115.8 293.8,115.0 294.9,114.1 296.0,113.2 297.1,112.3 298.2,111.5 299.3,110.6 300.4,109.8 301.5,108.9 302.6,108.1 303.6,107.3 304.7,106.4 305.8,105.6 306.9,104.8 308.0,104.0 309.1,103.2 310.2,102.4 311.3,101.6 312.4,100.8 313.5,100.0 314.6,99.2 315.7,98.5 316.8,97.7 317.9,96.9 319.0,96.2 320.1,95.4 321.2,94.7 322.2,93.9 323.3,93.2 324.4,92.5 325.5,91.8 326.6,91.0 327.7,90.3 328.8,89.6 329.9,88.9 331.0,88.2 332.1,87.5 333.2,86.8 334.3,86.2 335.4,85.5 336.5,84.8 337.6,84.1 338.7,83.5 339.8,82.8 340.8,82.2 341.9,81.5 343.0,80.9 344.1,80.3 345.2,79.6 346.3,79.0 347.4,78.4 348.5,77.8 349.6,77.2 350.7,76.6 351.8,76.0 352.9,75.4 354.0,74.8 355.1,74.2 356.2,73.7 357.3,73.1 358.4,72.5 359.4,72.0 360.5,71.4 361.6,70.9 362.7,70.3 363.8,69.8 364.9,69.3 366.0,68.7 367.1,68.2 368.2,67.7 369.3,67.2 370.4,66.7 371.5,66.2 372.6,65.7 373.7,65.2 374.8,64.7 375.9,64.3 377.0,63.8 378.0,63.3 379.1,62.9 380.2,62.4 381.3,62.0 382.4,61.5 383.5,61.1 384.6,60.7 385.7,60.2 386.8,59.8 387.9,59.4 389.0,59.0 390.1,58.6 391.2,58.2 392.3,57.8 393.4,57.4 394.5,57.0 395.6,56.6 396.6,56.2 397.7,55.9 398.8,55.5 399.9,55.2 401.0,54.8 402.1,54.5 403.2,54.1 404.3,53.8 405.4,53.5 406.5,53.1 407.6,52.8 408.7,52.5 409.8,52.2 410.9,51.9 412.0,51.6 413.1,51.3 414.2,51.0 415.2,50.7 416.3,50.4 417.4,50.2 418.5,49.9 419.6,49.7 420.7,49.4 421.8,49.1 422.9,48.9 424.0,48.7 425.1,48.4 426.2,48.2 427.3,48.0 428.4,47.8 429.5,47.6 430.6,47.3 431.7,47.1 432.8,47.0 433.8,46.8 434.9,46.6 436.0,46.4 437.1,46.2 438.2,46.1 439.3,45.9 440.4,45.7 441.5,45.6 442.6,45.4 443.7,45.3 444.8,45.2 445.9,45.0 447.0,44.9 448.1,44.8 449.2,44.7 450.3,44.6 451.4,44.5 452.4,44.4 453.5,44.3 454.6,44.2 455.7,44.1 456.8,44.0 457.9,44.0 459.0,43.9 460.1,43.8 461.2,43.8 462.3,43.7 463.4,43.7 464.5,43.6 465.6,43.6 466.7,43.6 467.8,43.6 468.9,43.5 470.0,43.5 471.0,43.5 472.1,43.5 473.2,43.5 474.3,43.5 475.4,43.6 476.5,43.6 477.6,43.6 478.7,43.6 479.8,43.7 480.9,43.7 482.0,43.8 483.1,43.8 484.2,43.9 485.3,43.9 486.4,44.0 487.5,44.1 488.6,44.2 489.6,44.2 490.7,44.3 491.8,44.4 492.9,44.5 494.0,44.6 495.1,44.8 496.2,44.9 497.3,45.0 498.4,45.1 499.5,45.3 500.6,45.4 501.7,45.5 502.8,45.7 503.9,45.9 505.0,46.0 506.1,46.2 507.2,46.4 508.2,46.5 509.3,46.7 510.4,46.9 511.5,47.1 512.6,47.3 513.7,47.5 514.8,47.7 515.9,47.9 517.0,48.1 518.1,48.3 519.2,48.5 520.3,48.7 521.4,48.9 522.5,49.1 523.6,49.3 524.7,49.5 525.8,49.7 526.8,49.9 527.9,50.1 529.0,50.3 530.1,50.4 531.2,50.6 532.3,50.8 533.4,51.0 534.5,51.2 535.6,51.3 536.7,51.5 537.8,51.7 538.9,51.9 540.0,52.0 541.1,52.2 542.2,52.4 543.3,52.6 544.4,52.7 545.4,52.9 546.5,53.1 547.6,53.2 548.7,53.4 549.8,53.5 550.9,53.7 552.0,53.8 553.1,54.0 554.2,54.2 555.3,54.3 556.4,54.5 557.5,54.6 558.6,54.8 559.7,54.9 560.8,55.0 561.9,55.2 563.0,55.3 564.0,55.5 565.1,55.6 566.2,55.7 567.3,55.9 568.4,56.0 569.5,56.2 570.6,56.3 571.7,56.4 572.8,56.5 573.9,56.7 575.0,56.8 576.1,56.9 577.2,57.0 578.3,57.2 579.4,57.3 580.5,57.4 581.6,57.5 582.6,57.6 583.7,57.7 584.8,57.9 585.9,58.0 587.0,58.1 588.1,58.2 589.2,58.3 590.3,58.4 591.4,58.5 592.5,58.6 593.6,58.7 594.7,58.8 595.8,58.9 596.9,59.0 598.0,59.1 599.1,59.2 600.2,59.3 601.2,59.4 602.3,59.4 603.4,59.5 604.5,59.6 605.6,59.7 606.7,59.8 607.8,59.9 608.9,60.0 610.0,60.0 611.1,60.1 612.2,60.2 613.3,60.3 614.4,60.3 615.5,60.4 616.6,60.5 617.7,60.5 618.8,60.6 619.8,60.7 620.9,60.7 622.0,60.8 623.1,60.9 624.2,60.9 625.3,61.0 626.4,61.0 627.5,61.1 628.6,61.1 629.7,61.2 630.8,61.2 631.9,61.3 633.0,61.3 634.1,61.4 635.2,61.4 636.3,61.5 637.4,61.5 638.4,61.5 639.5,61.6 640.6,61.6 641.7,61.7 642.8,61.7 643.9,61.7 645.0,61.8 646.1,61.8 647.2,61.8 648.3,61.8 649.4,61.9 650.5,61.9 651.6,61.9 652.7,61.9 653.8,62.0 654.9,62.0 656.0,62.0 657.0,62.0 658.1,62.0 659.2,62.0 660.3,62.0 661.4,62.0 662.5,62.1 663.6,62.1 664.7,62.1 665.8,62.1 666.9,62.1 668.0,62.1 669.1,62.1 670.2,62.1 671.3,62.1 672.4,62.1 673.5,62.1 674.6,62.0 675.6,62.0 676.7,62.0 677.8,62.0 678.9,62.0 680.0,62.0 681.1,62.0 682.2,61.9 683.3,61.9 684.4,61.9 685.5,61.9 686.6,61.9 687.7,61.8 688.8,61.8 689.9,61.8 691.0,61.7 692.1,61.7 693.2,61.7 694.2,61.6 695.3,61.6 696.4,61.6 697.5,61.5 698.6,61.5 699.7,61.4 700.8,61.4 701.9,61.3 703.0,61.3 704.1,61.3 705.2,61.2 706.3,61.2 707.4,61.1 708.5,61.0 709.6,61.0 710.7,60.9 711.8,60.9 712.8,60.8 713.9,60.8 715.0,60.7 716.1,60.6 717.2,60.6 718.3,60.5 719.4,60.4 720.5,60.4 721.6,60.3 722.7,60.2 723.8,60.1 724.9,60.1 726.0,60.0 727.1,59.9 728.2,59.8 729.3,59.7 730.4,59.7 731.4,59.6 732.5,59.5 733.6,59.4 734.7,59.3 735.8,59.2 736.9,59.1 738.0,59.0 739.1,58.9 740.2,58.8 741.3,58.7 742.4,58.6 743.5,58.5 744.6,58.4 745.7,58.3 746.8,58.2 747.9,58.1 749.0,58.0 750.0,57.9 751.1,57.8 752.2,57.7 753.3,57.6 754.4,57.4 755.5,57.3 756.6,57.2 757.7,57.1 758.8,57.0 759.9,56.8 761.0,56.7 762.1,56.6 763.2,56.5 764.3,56.3 765.4,56.2 766.5,56.1 767.6,55.9 768.6,55.8 769.7,55.7 770.8,55.5 771.9,55.4 773.0,55.2 774.1,55.1 775.2,54.9 776.3,54.8 777.4,54.7 778.5,54.5 779.6,54.4 780.7,54.2 781.8,54.1 782.9,53.9 784.0,53.7 785.1,53.6 786.2,53.4 787.2,53.3 788.3,53.1 789.4,52.9 790.5,52.8 791.6,52.6 792.7,52.4 793.8,52.3 794.9,52.1 796.0,51.9"/>
<text x="640" y="56" font-family="Arial" font-size="12" fill="#0f766e">truth</text>
<polyline fill="none" stroke="#2563eb" stroke-width="2.3" points="52.0,274.0 53.1,273.8 54.2,273.5 55.3,273.2 56.4,273.0 57.5,272.7 58.6,272.4 59.7,272.2 60.8,271.9 61.8,271.6 62.9,264.2 64.0,263.3 65.1,262.4 66.2,266.4 67.3,266.1 68.4,265.8 69.5,265.5 70.6,265.1 71.7,264.8 72.8,264.5 73.9,263.3 75.0,261.0 76.1,260.6 77.2,257.7 78.3,257.4 79.4,256.6 80.4,256.3 81.5,256.0 82.6,254.8 83.7,254.4 84.8,254.4 85.9,254.0 87.0,253.8 88.1,253.4 89.2,253.0 90.3,252.7 91.4,252.7 92.5,252.4 93.6,251.7 94.7,251.4 95.8,250.1 96.9,250.1 98.0,249.7 99.0,249.3 100.1,248.6 101.2,248.2 102.3,247.9 103.4,247.5 104.5,247.1 105.6,246.8 106.7,246.2 107.8,245.9 108.9,245.1 110.0,244.9 111.1,244.5 112.2,244.1 113.3,243.6 114.4,243.0 115.5,242.6 116.6,242.1 117.6,241.5 118.7,241.0 119.8,240.5 120.9,239.6 122.0,239.1 123.1,238.8 124.2,238.2 125.3,237.7 126.4,237.0 127.5,236.4 128.6,235.4 129.7,234.9 130.8,234.3 131.9,233.6 133.0,233.0 134.1,232.4 135.2,232.0 136.2,231.8 137.3,231.4 138.4,230.8 139.5,230.3 140.6,230.1 141.7,229.5 142.8,228.7 143.9,228.2 145.0,227.5 146.1,226.9 147.2,226.3 148.3,226.0 149.4,225.6 150.5,225.1 151.6,224.5 152.7,223.9 153.8,223.0 154.8,222.4 155.9,221.8 157.0,221.4 158.1,221.0 159.2,220.4 160.3,219.8 161.4,219.7 162.5,218.9 163.6,218.3 164.7,217.8 165.8,217.2 166.9,216.3 168.0,215.6 169.1,215.0 170.2,214.2 171.3,213.5 172.4,213.4 173.4,212.7 174.5,212.0 175.6,211.3 176.7,210.6 177.8,209.9 178.9,209.3 180.0,208.4 181.1,207.7 182.2,207.0 183.3,206.5 184.4,205.6 185.5,204.9 186.6,204.2 187.7,203.5 188.8,202.9 189.9,202.0 191.0,201.3 192.0,200.2 193.1,199.4 194.2,198.2 195.3,197.2 196.4,196.5 197.5,195.9 198.6,195.1 199.7,194.3 200.8,193.4 201.9,192.7 203.0,191.9 204.1,191.0 205.2,190.4 206.3,189.5 207.4,188.7 208.5,187.9 209.6,187.0 210.6,186.2 211.7,185.7 212.8,184.8 213.9,184.0 215.0,183.1 216.1,182.6 217.2,181.7 218.3,181.0 219.4,180.2 220.5,179.3 221.6,178.3 222.7,177.5 223.8,176.5 224.9,175.7 226.0,174.8 227.1,173.9 228.2,173.0 229.2,172.1 230.3,171.2 231.4,170.2 232.5,169.0 233.6,168.1 234.7,167.2 235.8,166.3 236.9,165.0 238.0,164.0 239.1,162.9 240.2,162.0 241.3,160.9 242.4,159.9 243.5,158.9 244.6,157.9 245.7,156.9 246.8,156.0 247.8,155.0 248.9,154.2 250.0,153.2 251.1,152.2 252.2,151.4 253.3,150.4 254.4,149.3 255.5,148.4 256.6,147.4 257.7,146.1 258.8,145.0 259.9,143.9 261.0,142.8 262.1,141.8 263.2,140.7 264.3,139.6 265.4,138.6 266.4,137.6 267.5,136.6 268.6,135.8 269.7,134.8 270.8,134.1 271.9,133.1 273.0,132.1 274.1,131.4 275.2,130.4 276.3,129.3 277.4,128.4 278.5,127.4 279.6,126.5 280.7,125.5 281.8,124.8 282.9,123.8 284.0,122.9 285.0,122.2 286.1,121.2 287.2,120.3 288.3,119.7 289.4,118.9 290.5,118.0 291.6,117.1 292.7,115.7 293.8,114.8 294.9,113.9 296.0,113.0 297.1,112.1 298.2,111.3 299.3,110.5 300.4,109.7 301.5,109.1 302.6,108.0 303.6,107.3 304.7,106.7 305.8,106.0 306.9,105.2 308.0,104.2 309.1,103.4 310.2,102.7 311.3,101.9 312.4,101.1 313.5,100.3 314.6,99.2 315.7,98.5 316.8,97.7 317.9,97.0 319.0,96.2 320.1,95.4 321.2,94.7 322.2,93.9 323.3,93.2 324.4,92.5 325.5,92.0 326.6,91.3 327.7,90.5 328.8,89.8 329.9,89.1 331.0,88.3 332.1,87.4 333.2,86.7 334.3,86.3 335.4,85.7 336.5,84.3 337.6,83.8 338.7,83.1 339.8,82.6 340.8,81.8 341.9,80.6 343.0,80.0 344.1,79.3 345.2,78.7 346.3,78.1 347.4,77.3 348.5,76.7 349.6,76.3 350.7,75.6 351.8,75.0 352.9,74.4 354.0,73.7 355.1,73.1 356.2,72.7 357.3,72.1 358.4,71.5 359.4,70.9 360.5,70.3 361.6,69.7 362.7,69.1 363.8,68.7 364.9,68.2 366.0,67.6 367.1,67.2 368.2,66.7 369.3,66.2 370.4,65.6 371.5,65.1 372.6,64.4 373.7,63.8 374.8,63.6 375.9,62.8 377.0,62.3 378.0,61.8 379.1,61.3 380.2,60.8 381.3,60.4 382.4,59.9 383.5,59.5 384.6,59.0 385.7,58.7 386.8,58.8 387.9,58.4 389.0,58.2 390.1,57.7 391.2,57.2 392.3,56.8 393.4,56.6 394.5,56.3 395.6,55.9 396.6,55.5 397.7,55.2 398.8,54.8 399.9,54.6 401.0,54.3 402.1,53.9 403.2,53.7 404.3,53.4 405.4,53.3 406.5,53.0 407.6,52.5 408.7,52.2 409.8,51.9 410.9,51.6 412.0,51.3 413.1,51.2 414.2,51.0 415.2,50.5 416.3,50.0 417.4,49.7 418.5,49.6 419.6,49.3 420.7,49.0 421.8,48.7 422.9,48.5 424.0,48.4 425.1,48.2 426.2,48.0 427.3,47.5 428.4,47.0 429.5,46.8 430.6,46.6 431.7,46.4 432.8,46.3 433.8,46.1 434.9,45.5 436.0,45.5 437.1,45.5 438.2,45.5 439.3,45.4 440.4,45.2 441.5,45.0 442.6,44.9 443.7,44.8 444.8,44.7 445.9,44.2 447.0,43.9 448.1,43.8 449.2,43.7 450.3,43.4 451.4,43.3 452.4,43.2 453.5,43.1 454.6,43.1 455.7,43.0 456.8,42.7 457.9,42.7 459.0,42.6 460.1,42.7 461.2,42.6 462.3,42.5 463.4,42.6 464.5,42.6 465.6,42.4 466.7,42.3 467.8,42.1 468.9,42.1 470.0,42.0 471.0,42.0 472.1,42.0 473.2,42.0 474.3,42.0 475.4,42.0 476.5,42.3 477.6,42.4 478.7,42.2 479.8,42.2 480.9,42.2 482.0,42.5 483.1,42.5 484.2,42.4 485.3,42.5 486.4,42.6 487.5,42.7 488.6,42.7 489.6,43.0 490.7,43.1 491.8,43.2 492.9,43.3 494.0,43.5 495.1,43.6 496.2,43.8 497.3,43.9 498.4,44.1 499.5,44.2 500.6,44.1 501.7,44.3 502.8,44.5 503.9,44.5 505.0,44.7 506.1,44.8 507.2,45.3 508.2,45.2 509.3,45.4 510.4,45.5 511.5,46.3 512.6,46.5 513.7,46.7 514.8,46.7 515.9,47.1 517.0,47.2 518.1,47.4 519.2,47.6 520.3,47.7 521.4,48.1 522.5,48.7 523.6,48.8 524.7,49.2 525.8,49.4 526.8,49.6 527.9,49.8 529.0,50.3 530.1,50.5 531.2,50.6 532.3,50.8 533.4,51.0 534.5,51.2 535.6,51.3 536.7,51.3 537.8,51.5 538.9,51.9 540.0,52.1 541.1,52.3 542.2,52.6 543.3,53.0 544.4,53.0 545.4,53.1 546.5,53.5 547.6,53.4 548.7,53.6 549.8,53.8 550.9,53.7 552.0,53.9 553.1,54.3 554.2,54.4 555.3,54.2 556.4,54.3 557.5,54.5 558.6,54.7 559.7,55.1 560.8,55.1 561.9,55.3 563.0,55.8 564.0,56.0 565.1,56.1 566.2,56.5 567.3,56.7 568.4,56.9 569.5,56.8 570.6,57.0 571.7,57.0 572.8,57.2 573.9,57.3 575.0,57.2 576.1,57.4 577.2,57.7 578.3,57.8 579.4,57.9 580.5,58.1 581.6,58.2 582.6,58.1 583.7,58.3 584.8,58.5 585.9,58.6 587.0,58.5 588.1,57.9 589.2,58.0 590.3,58.1 591.4,57.7 592.5,57.8 593.6,57.9 594.7,58.0 595.8,58.3 596.9,58.5 598.0,58.6 599.1,58.6 600.2,58.9 601.2,59.0 602.3,59.3 603.4,59.4 604.5,59.7 605.6,59.9 606.7,60.0 607.8,60.3 608.9,60.4 610.0,60.2 611.1,60.3 612.2,60.3 613.3,60.4 614.4,60.5 615.5,60.2 616.6,60.2 617.7,60.3 618.8,60.4 619.8,60.4 620.9,60.6 622.0,60.7 623.1,60.7 624.2,60.6 625.3,60.6 626.4,60.7 627.5,60.8 628.6,60.9 629.7,60.9 630.8,61.2 631.9,61.4 633.0,61.5 634.1,61.5 635.2,62.0 636.3,62.1 637.4,62.1 638.4,62.1 639.5,62.2 640.6,62.3 641.7,62.3 642.8,62.7 643.9,62.8 645.0,62.9 646.1,62.9 647.2,63.2 648.3,62.8 649.4,62.9 650.5,62.9 651.6,63.2 652.7,63.3 653.8,63.6 654.9,63.5 656.0,63.6 657.0,63.8 658.1,63.9 659.2,63.9 660.3,64.0 661.4,64.0 662.5,63.9 663.6,63.9 664.7,64.1 665.8,64.0 666.9,64.0 668.0,64.0 669.1,64.2 670.2,64.6 671.3,64.6 672.4,64.6 673.5,64.9 674.6,64.9 675.6,64.8 676.7,64.8 677.8,64.8 678.9,64.4 680.0,64.4 681.1,64.3 682.2,64.3 683.3,64.1 684.4,64.2 685.5,64.2 686.6,64.0 687.7,64.0 688.8,64.0 689.9,63.9 691.0,63.9 692.1,63.9 693.2,63.6 694.2,63.6 695.3,63.4 696.4,63.4 697.5,63.3 698.6,63.0 699.7,63.0 700.8,62.9 701.9,62.8 703.0,62.7 704.1,62.7 705.2,62.7 706.3,62.5 707.4,62.5 708.5,62.3 709.6,62.2 710.7,62.1 711.8,61.9 712.8,61.8 713.9,61.8 715.0,61.7 716.1,61.7 717.2,61.5 718.3,61.5 719.4,61.4 720.5,61.4 721.6,61.3 722.7,60.8 723.8,60.7 724.9,60.2 726.0,60.2 727.1,60.1 728.2,59.8 729.3,59.7 730.4,59.9 731.4,59.9 732.5,59.8 733.6,59.8 734.7,59.6 735.8,59.6 736.9,59.5 738.0,59.4 739.1,59.4 740.2,59.2 741.3,58.9 742.4,58.8 743.5,58.7 744.6,58.5 745.7,58.4 746.8,58.3 747.9,58.4 749.0,58.3 750.0,58.2 751.1,58.1 752.2,58.1 753.3,57.9 754.4,57.8 755.5,57.6 756.6,57.6 757.7,57.6 758.8,57.4 759.9,57.3 761.0,57.3 762.1,57.2 763.2,56.9 764.3,56.9 765.4,56.9 766.5,56.8 767.6,56.6 768.6,56.5 769.7,56.5 770.8,56.2 771.9,55.9 773.0,55.8 774.1,55.9 775.2,55.7 776.3,55.6 777.4,55.5 778.5,55.2 779.6,55.2 780.7,55.1 781.8,54.9 782.9,54.4 784.0,54.3 785.1,53.9 786.2,53.7 787.2,53.5 788.3,53.3 789.4,53.1 790.5,52.9 791.6,52.7 792.7,52.5 793.8,52.4 794.9,52.2 796.0,52.3"/>
<text x="640" y="72" font-family="Arial" font-size="12" fill="#2563eb">estimate</text>
</svg>