<svg xmlns="http://www.w3.org/2000/svg" width="820" height="320" viewBox="0 0 820 320">
<rect width="100%" height="100%" fill="white"/>
<text x="52" y="30" font-family="Arial" font-size="18" font-weight="700">robust_dropout_robust altitude</text>
<line x1="52" y1="274" x2="796" y2="274" stroke="#263238"/>
<line x1="52" y1="42" x2="52" y2="274" stroke="#263238"/>
<text x="52" y="306" font-family="Arial" font-size="12">time (s)</text>
<text x="630" y="306" font-family="Arial" font-size="12">m</text>

<rect x="314.6" y="42" width="153.2" height="232" fill="#fef3c7" opacity="0.72"/>
<polyline fill="none" stroke="#0f766e" stroke-width="2.3" points="52.0,262.3 53.1,262.1 54.2,261.8 55.3,261.6 56.4,261.4 57.5,261.2 58.6,261.0 59.7,260.8 60.8,260.5 61.8,260.3 62.9,260.1 64.0,259.8 65.1,259.6 66.2,259.3 67.3,259.1 68.4,258.8 69.5,258.5 70.6,258.3 71.7,258.0 72.8,257.7 73.9,257.4 75.0,257.1 76.1,256.8 77.2,256.6 78.3,256.2 79.4,255.9 80.4,255.6 81.5,255.3 82.6,255.0 83.7,254.7 84.8,254.4 85.9,254.0 87.0,253.7 88.1,253.3 89.2,253.0 90.3,252.6 91.4,252.3 92.5,251.9 93.6,251.6 94.7,251.2 95.8,250.8 96.9,250.5 98.0,250.1 99.0,249.7 100.1,249.3 101.2,248.9 102.3,248.5 103.4,248.1 104.5,247.7 105.6,247.3 106.7,246.9 107.8,246.4 108.9,246.0 110.0,245.6 111.1,245.2 112.2,244.7 113.3,244.3 114.4,243.8 115.5,243.4 116.6,242.9 117.6,242.5 118.7,242.0 119.8,241.5 120.9,241.1 122.0,240.6 123.1,240.1 124.2,239.6 125.3,239.1 126.4,238.6 127.5,238.1 128.6,237.6 129.7,237.1 130.8,236.6 131.9,236.1 133.0,235.6 134.1,235.0 135.2,234.5 136.2,234.0 137.3,233.4 138.4,232.9 139.5,232.3 140.6,231.8 141.7,231.2 142.8,230.6 143.9,230.1 145.0,229.5 146.1,228.9 147.2,228.4 148.3,227.8 149.4,227.2 150.5,226.6 151.6,226.0 152.7,225.4 153.8,224.8 154.8,224.2 155.9,223.6 157.0,222.9 158.1,222.3 159.2,221.7 160.3,221.0 161.4,220.4 162.5,219.8 163.6,219.1 164.7,218.5 165.8,217.8 166.9,217.2 168.0,216.5 169.1,215.8 170.2,215.1 171.3,214.5 172.4,213.8 173.4,213.1 174.5,212.4 175.6,211.7 176.7,211.0 177.8,210.3 178.9,209.6 180.0,208.9 181.1,208.2 182.2,207.5 183.3,206.7 184.4,206.0 185.5,205.3 186.6,204.5 187.7,203.8 188.8,203.0 189.9,202.3 191.0,201.5 192.0,200.8 193.1,200.0 194.2,199.2 195.3,198.4 196.4,197.7 197.5,196.9 198.6,196.1 199.7,195.3 200.8,194.5 201.9,193.7 203.0,192.9 204.1,192.1 205.2,191.3 206.3,190.5 207.4,189.6 208.5,188.8 209.6,188.0 210.6,187.1 211.7,186.3 212.8,185.4 213.9,184.6 215.0,183.7 216.1,182.9 217.2,182.0 218.3,181.1 219.4,180.3 220.5,179.4 221.6,178.5 222.7,177.6 223.8,176.7 224.9,175.8 226.0,174.9 227.1,174.0 228.2,173.1 229.2,172.2 230.3,171.3 231.4,170.4 232.5,169.5 233.6,168.5 234.7,167.6 235.8,166.7 236.9,165.7 238.0,164.8 239.1,163.8 240.2,162.9 241.3,161.9 242.4,160.9 243.5,160.0 244.6,159.0 245.7,158.0 246.8,157.0 247.8,156.0 248.9,155.0 250.0,154.0 251.1,153.0 252.2,152.0 253.3,151.0 254.4,150.0 255.5,149.0 256.6,148.0 257.7,146.9 258.8,145.9 259.9,144.9 261.0,143.8 262.1,142.8 263.2,141.8 264.3,140.7 265.4,139.7 266.4,138.7 267.5,137.7 268.6,136.7 269.7,135.7 270.8,134.7 271.9,133.7 273.0,132.7 274.1,131.7 275.2,130.7 276.3,129.8 277.4,128.8 278.5,127.8 279.6,126.9 280.7,125.9 281.8,125.0 282.9,124.1 284.0,123.1 285.0,122.2 286.1,121.3 287.2,120.4 288.3,119.5 289.4,118.5 290.5,117.6 291.6,116.8 292.7,115.9 293.8,115.0 294.9,114.1 296.0,113.2 297.1,112.4 298.2,111.5 299.3,110.6 300.4,109.8 301.5,108.9 302.6,108.1 303.6,107.3 304.7,106.4 305.8,105.6 306.9,104.8 308.0,104.0 309.1,103.2 310.2,102.4 311.3,101.6 312.4,100.8 313.5,100.0 314.6,99.2 315.7,98.5 316.8,97.7 317.9,96.9 319.0,96.2 320.1,95.4 321.2,94.7 322.2,93.9 323.3,93.2 324.4,92.4 325.5,91.7 326.6,91.0 327.7,90.3 328.8,89.6 329.9,88.9 331.0,88.2 332.1,87.5 333.2,86.8 334.3,86.1 335.4,85.4 336.5,84.8 337.6,84.1 338.7,83.4 339.8,82.8 340.8,82.1 341.9,81.5 343.0,80.8 344.1,80.2 345.2,79.6 346.3,78.9 347.4,78.3 348.5,77.7 349.6,77.1 350.7,76.5 351.8,75.9 352.9,75.3 354.0,74.7 355.1,74.2 356.2,73.6 357.3,73.0 358.4,72.4 359.4,71.9 360.5,71.3 361.6,70.8 362.7,70.2 363.8,69.7 364.9,69.2 366.0,68.7 367.1,68.1 368.2,67.6 369.3,67.1 370.4,66.6 371.5,66.1 372.6,65.6 373.7,65.1 374.8,64.6 375.9,64.2 377.0,63.7 378.0,63.2 379.1,62.8 380.2,62.3 381.3,61.9 382.4,61.4 383.5,61.0 384.6,60.5 385.7,60.1 386.8,59.7 387.9,59.3 389.0,58.9 390.1,58.5 391.2,58.1 392.3,57.7 393.4,57.3 394.5,56.9 395.6,56.5 396.6,56.1 397.7,55.8 398.8,55.4 399.9,55.0 401.0,54.7 402.1,54.3 403.2,54.0 404.3,53.7 405.4,53.3 406.5,53.0 407.6,52.7 408.7,52.4 409.8,52.1 410.9,51.8 412.0,51.5 413.1,51.2 414.2,50.9 415.2,50.6 416.3,50.3 417.4,50.0 418.5,49.8 419.6,49.5 420.7,49.3 421.8,49.0 422.9,48.8 424.0,48.5 425.1,48.3 426.2,48.1 427.3,47.8 428.4,47.6 429.5,47.4 430.6,47.2 431.7,47.0 432.8,46.8 433.8,46.6 434.9,46.4 436.0,46.3 437.1,46.1 438.2,45.9 439.3,45.7 440.4,45.6 441.5,45.4 442.6,45.3 443.7,45.2 444.8,45.0 445.9,44.9 447.0,44.8 448.1,44.6 449.2,44.5 450.3,44.4 451.4,44.3 452.4,44.2 453.5,44.1 454.6,44.0 455.7,44.0 456.8,43.9 457.9,43.8 459.0,43.7 460.1,43.7 461.2,43.6 462.3,43.6 463.4,43.5 464.5,43.5 465.6,43.5 466.7,43.4 467.8,43.4 468.9,43.4 470.0,43.4 471.0,43.4 472.1,43.4 473.2,43.4 474.3,43.4 475.4,43.4 476.5,43.4 477.6,43.4 478.7,43.5 479.8,43.5 480.9,43.6 482.0,43.6 483.1,43.7 484.2,43.7 485.3,43.8 486.4,43.9 487.5,43.9 488.6,44.0 489.6,44.1 490.7,44.2 491.8,44.3 492.9,44.4 494.0,44.5 495.1,44.6 496.2,44.7 497.3,44.8 498.4,45.0 499.5,45.1 500.6,45.3 501.7,45.4 502.8,45.5 503.9,45.7 505.0,45.9 506.1,46.0 507.2,46.2 508.2,46.4 509.3,46.6 510.4,46.8 511.5,47.0 512.6,47.2 513.7,47.4 514.8,47.6 515.9,47.8 517.0,48.0 518.1,48.2 519.2,48.4 520.3,48.6 521.4,48.8 522.5,49.0 523.6,49.2 524.7,49.4 525.8,49.6 526.8,49.7 527.9,49.9 529.0,50.1 530.1,50.3 531.2,50.5 532.3,50.7 533.4,50.9 534.5,51.0 535.6,51.2 536.7,51.4 537.8,51.6 538.9,51.7 540.0,51.9 541.1,52.1 542.2,52.3 543.3,52.4 544.4,52.6 545.4,52.8 546.5,52.9 547.6,53.1 548.7,53.2 549.8,53.4 550.9,53.6 552.0,53.7 553.1,53.9 554.2,54.0 555.3,54.2 556.4,54.3 557.5,54.5 558.6,54.6 559.7,54.8 560.8,54.9 561.9,55.1 563.0,55.2 564.0,55.3 565.1,55.5 566.2,55.6 567.3,55.8 568.4,55.9 569.5,56.0 570.6,56.2 571.7,56.3 572.8,56.4 573.9,56.5 575.0,56.7 576.1,56.8 577.2,56.9 578.3,57.0 579.4,57.2 580.5,57.3 581.6,57.4 582.6,57.5 583.7,57.6 584.8,57.7 585.9,57.8 587.0,58.0 588.1,58.1 589.2,58.2 590.3,58.3 591.4,58.4 592.5,58.5 593.6,58.6 594.7,58.7 595.8,58.8 596.9,58.9 598.0,59.0 599.1,59.1 600.2,59.2 601.2,59.2 602.3,59.3 603.4,59.4 604.5,59.5 605.6,59.6 606.7,59.7 607.8,59.8 608.9,59.8 610.0,59.9 611.1,60.0 612.2,60.1 613.3,60.1 614.4,60.2 615.5,60.3 616.6,60.4 617.7,60.4 618.8,60.5 619.8,60.6 620.9,60.6 622.0,60.7 623.1,60.7 624.2,60.8 625.3,60.9 626.4,60.9 627.5,61.0 628.6,61.0 629.7,61.1 630.8,61.1 631.9,61.2 633.0,61.2 634.1,61.3 635.2,61.3 636.3,61.4 637.4,61.4 638.4,61.4 639.5,61.5 640.6,61.5 641.7,61.6 642.8,61.6 643.9,61.6 645.0,61.7 646.1,61.7 647.2,61.7 648.3,61.7 649.4,61.8 650.5,61.8 651.6,61.8 652.7,61.8 653.8,61.8 654.9,61.9 656.0,61.9 657.0,61.9 658.1,61.9 659.2,61.9 660.3,61.9 661.4,61.9 662.5,61.9 663.6,62.0 664.7,62.0 665.8,62.0 666.9,62.0 668.0,62.0 669.1,62.0 670.2,62.0 671.3,62.0 672.4,62.0 673.5,61.9 674.6,61.9 675.6,61.9 676.7,61.9 677.8,61.9 678.9,61.9 680.0,61.9 681.1,61.9 682.2,61.8 683.3,61.8 684.4,61.8 685.5,61.8 686.6,61.7 687.7,61.7 688.8,61.7 689.9,61.7 691.0,61.6 692.1,61.6 693.2,61.6 694.2,61.5 695.3,61.5 696.4,61.5 697.5,61.4 698.6,61.4 699.7,61.3 700.8,61.3 701.9,61.2 703.0,61.2 704.1,61.1 705.2,61.1 706.3,61.0 707.4,61.0 708.5,60.9 709.6,60.9 710.7,60.8 711.8,60.8 712.8,60.7 713.9,60.6 715.0,60.6 716.1,60.5 717.2,60.4 718.3,60.4 719.4,60.3 720.5,60.2 721.6,60.2 722.7,60.1 723.8,60.0 724.9,59.9 726.0,59.9 727.1,59.8 728.2,59.7 729.3,59.6 730.4,59.5 731.4,59.5 732.5,59.4 733.6,59.3 734.7,59.2 735.8,59.1 736.9,59.0 738.0,58.9 739.1,58.8 740.2,58.7 741.3,58.6 742.4,58.5 743.5,58.4 744.6,58.3 745.7,58.2 746.8,58.1 747.9,58.0 749.0,57.9 750.0,57.8 751.1,57.7 752.2,57.6 753.3,57.4 754.4,57.3 755.5,57.2 756.6,57.1 757.7,57.0 758.8,56.8 759.9,56.7 761.0,56.6 762.1,56.5 763.2,56.3 764.3,56.2 765.4,56.1 766.5,55.9 767.6,55.8 768.6,55.7 769.7,55.5 770.8,55.4 771.9,55.3 773.0,55.1 774.1,55.0 775.2,54.8 776.3,54.7 777.4,54.5 778.5,54.4 779.6,54.2 780.7,54.1 781.8,53.9 782.9,53.8 784.0,53.6 785.1,53.5 786.2,53.3 787.2,53.1 788.3,53.0 789.4,52.8 790.5,52.6 791.6,52.5 792.7,52.3 793.8,52.1 794.9,52.0 796.0,51.8"/>
<text x="640" y="56" font-family="Arial" font-size="12" fill="#0f766e">truth</text>
<polyline fill="none" stroke="#2563eb" stroke-width="2.3" points="52.0,274.0 53.1,273.8 54.2,273.5 55.3,273.2 56.4,273.0 57.5,272.7 58.6,272.4 59.7,272.1 60.8,271.9 61.8,271.6 62.9,265.1 64.0,264.4 65.1,263.6 66.2,266.5 67.3,266.2 68.4,265.8 69.5,265.5 70.6,265.1 71.7,264.8 72.8,264.4 73.9,263.3 75.0,260.4 76.1,260.0 77.2,256.6 78.3,256.4 79.4,255.8 80.4,255.5 81.5,255.1 82.6,254.0 83.7,253.6 84.8,254.3 85.9,253.9 87.0,253.7 88.1,253.3 89.2,252.9 90.3,252.6 91.4,252.7 92.5,252.4 93.6,251.6 94.7,251.3 95.8,250.5 96.9,250.4 98.0,250.1 99.0,249.7 100.1,249.0 101.2,248.6 102.3,248.3 103.4,247.9 104.5,247.5 105.6,247.2 106.7,246.7 107.8,246.4 108.9,245.6 110.0,245.4 111.1,245.0 112.2,244.5 113.3,244.0 114.4,243.5 115.5,243.0 116.6,242.5 117.6,241.8 118.7,241.4 119.8,240.9 120.9,239.9 122.0,239.4 123.1,239.1 124.2,238.6 125.3,238.0 126.4,237.3 127.5,236.7 128.6,235.8 129.7,235.2 130.8,234.6 131.9,233.9 133.0,233.3 134.1,232.8 135.2,232.3 136.2,232.1 137.3,231.7 138.4,231.1 139.5,230.7 140.6,230.5 141.7,230.0 142.8,229.2 143.9,228.6 145.0,228.0 146.1,227.3 147.2,226.7 148.3,226.4 149.4,226.0 150.5,225.5 151.6,224.9 152.7,224.3 153.8,223.3 154.8,222.7 155.9,222.1 157.0,221.8 158.1,221.4 159.2,220.8 160.3,220.1 161.4,220.0 162.5,219.2 163.6,218.5 164.7,218.1 165.8,217.4 166.9,216.6 168.0,215.9 169.1,215.2 170.2,214.4 171.3,213.8 172.4,213.3 173.4,212.6 174.5,212.0 175.6,211.2 176.7,210.5 177.8,209.9 178.9,209.2 180.0,208.4 181.1,207.7 182.2,206.9 183.3,206.3 184.4,205.5 185.5,204.7 186.6,204.1 187.7,203.3 188.8,202.7 189.9,201.9 191.0,201.1 192.0,200.0 193.1,199.3 194.2,198.2 195.3,197.3 196.4,196.6 197.5,196.0 198.6,195.2 199.7,194.4 200.8,193.5 201.9,192.8 203.0,191.9 204.1,191.1 205.2,190.3 206.3,189.5 207.4,188.7 208.5,187.9 209.6,187.1 210.6,186.2 211.7,185.7 212.8,184.8 213.9,184.1 215.0,183.1 216.1,182.5 217.2,181.6 218.3,180.8 219.4,180.1 220.5,179.2 221.6,178.2 222.7,177.3 223.8,176.4 224.9,175.6 226.0,174.7 227.1,173.8 228.2,172.9 229.2,172.0 230.3,171.1 231.4,170.1 232.5,168.9 233.6,168.0 234.7,167.1 235.8,166.2 236.9,164.9 238.0,163.9 239.1,162.8 240.2,161.8 241.3,160.8 242.4,159.8 243.5,158.8 244.6,157.8 245.7,156.8 246.8,155.9 247.8,154.9 248.9,153.9 250.0,153.0 251.1,152.0 252.2,151.1 253.3,150.1 254.4,149.1 255.5,148.2 256.6,147.2 257.7,145.8 258.8,144.8 259.9,143.7 261.0,142.6 262.1,141.5 263.2,140.5 264.3,139.4 265.4,138.4 266.4,137.4 267.5,136.4 268.6,135.5 269.7,134.5 270.8,133.9 271.9,132.9 273.0,131.9 274.1,131.2 275.2,130.2 276.3,129.1 277.4,128.2 278.5,127.2 279.6,126.3 280.7,125.3 281.8,124.6 282.9,123.6 284.0,122.7 285.0,122.0 286.1,121.1 287.2,120.2 288.3,119.5 289.4,118.8 290.5,117.9 291.6,117.0 292.7,115.8 293.8,114.9 294.9,114.0 296.0,113.1 297.1,112.2 298.2,111.4 299.3,110.6 300.4,109.8 301.5,109.2 302.6,108.1 303.6,107.3 304.7,106.8 305.8,106.0 306.9,105.2 308.0,104.2 309.1,103.4 310.2,102.7 311.3,101.9 312.4,101.1 313.5,100.3 314.6,99.4 315.7,98.6 316.8,97.8 317.9,97.1 319.0,96.4 320.1,95.5 321.2,94.7 322.2,94.0 323.3,93.3 324.4,92.6 325.5,92.0 326.6,91.3 327.7,90.5 328.8,89.8 329.9,89.1 331.0,88.2 332.1,87.3 333.2,86.6 334.3,86.3 335.4,85.6 336.5,84.4 337.6,83.9 338.7,83.2 339.8,82.8 340.8,81.9 341.9,80.8 343.0,80.2 344.1,79.5 345.2,78.9 346.3,78.3 347.4,77.5 348.5,76.9 349.6,76.5 350.7,75.8 351.8,75.2 352.9,74.6 354.0,73.9 355.1,73.3 356.2,72.9 357.3,72.3 358.4,71.5 359.4,70.9 360.5,70.3 361.6,69.7 362.7,69.1 363.8,68.8 364.9,68.2 366.0,67.6 367.1,67.2 368.2,66.7 369.3,66.2 370.4,65.6 371.5,65.1 372.6,64.3 373.7,63.8 374.8,63.6 375.9,62.8 377.0,62.2 378.0,61.7 379.1,61.2 380.2,60.6 381.3,60.3 382.4,59.9 383.5,59.4 384.6,58.9 385.7,58.7 386.8,58.8 387.9,58.4 389.0,58.2 390.1,57.7 391.2,57.2 392.3,56.8 393.4,56.6 394.5,56.3 395.6,56.0 396.6,55.6 397.7,55.2 398.8,54.8 399.9,54.7 401.0,54.4 402.1,54.0 403.2,53.8 404.3,53.5 405.4,53.5 406.5,53.2 407.6,52.5 408.7,52.2 409.8,51.9 410.9,51.7 412.0,51.4 413.1,51.2 414.2,51.0 415.2,50.5 416.3,49.9 417.4,49.6 418.5,49.5 419.6,49.2 420.7,48.9 421.8,48.6 422.9,48.3 424.0,48.3 425.1,48.1 426.2,47.8 427.3,47.2 428.4,46.7 429.5,46.5 430.6,46.3 431.7,46.1 432.8,46.1 433.8,45.9 434.9,45.4 436.0,45.4 437.1,45.6 438.2,45.6 439.3,45.4 440.4,45.3 441.5,45.0 442.6,44.9 443.7,44.9 444.8,44.8 445.9,44.2 447.0,43.8 448.1,43.7 449.2,43.6 450.3,43.4 451.4,43.2 452.4,43.1 453.5,43.0 454.6,43.0 455.7,42.9 456.8,42.6 457.9,42.7 459.0,42.6 460.1,42.7 461.2,42.6 462.3,42.5 463.4,42.6 464.5,42.6 465.6,42.4 466.7,42.3 467.8,42.1 468.9,42.1 470.0,42.1 471.0,42.0 472.1,42.0 473.2,42.1 474.3,42.0 475.4,42.0 476.5,42.4 477.6,42.4 478.7,42.3 479.8,42.3 480.9,42.3 482.0,42.6 483.1,42.7 484.2,42.5 485.3,42.6 486.4,42.7 487.5,42.8 488.6,42.9 489.6,43.1 490.7,43.2 491.8,43.3 492.9,43.3 494.0,43.5 495.1,43.6 496.2,43.9 497.3,44.0 498.4,44.1 499.5,44.3 500.6,44.2 501.7,44.3 502.8,44.5 503.9,44.6 505.0,44.7 506.1,44.9 507.2,45.4 508.2,45.3 509.3,45.4 510.4,45.5 511.5,46.0 512.6,46.2 513.7,46.4 514.8,46.5 515.9,46.8 517.0,47.0 518.1,47.2 519.2,47.3 520.3,47.5 521.4,47.9 522.5,48.3 523.6,48.4 524.7,48.9 525.8,49.1 526.8,49.4 527.9,49.6 529.0,50.1 530.1,50.3 531.2,50.4 532.3,50.7 533.4,50.7 534.5,50.9 535.6,51.1 536.7,51.1 537.8,51.3 538.9,51.7 540.0,52.0 541.1,52.2 542.2,52.5 543.3,52.8 544.4,53.0 545.4,53.1 546.5,53.5 547.6,53.4 548.7,53.7 549.8,53.9 550.9,53.8 552.0,53.9 553.1,54.3 554.2,54.5 555.3,54.4 556.4,54.6 557.5,54.8 558.6,55.0 559.7,55.4 560.8,55.4 561.9,55.6 563.0,56.2 564.0,56.3 565.1,56.4 566.2,56.7 567.3,56.9 568.4,57.1 569.5,57.0 570.6,57.2 571.7,57.1 572.8,57.3 573.9,57.4 575.0,57.3 576.1,57.5 577.2,57.6 578.3,57.8 579.4,57.9 580.5,58.0 581.6,58.2 582.6,57.9 583.7,58.0 584.8,58.2 585.9,58.3 587.0,58.2 588.1,58.0 589.2,58.1 590.3,58.2 591.4,57.7 592.5,57.7 593.6,57.8 594.7,57.8 595.8,58.3 596.9,58.5 598.0,58.6 599.1,58.6 600.2,59.0 601.2,59.1 602.3,59.5 603.4,59.5 604.5,59.9 605.6,60.1 606.7,60.2 607.8,60.5 608.9,60.6 610.0,60.5 611.1,60.6 612.2,60.7 613.3,60.7 614.4,60.8 615.5,60.5 616.6,60.5 617.7,60.6 618.8,60.6 619.8,60.7 620.9,61.0 622.0,60.6 623.1,60.6 624.2,60.5 625.3,60.5 626.4,60.2 627.5,60.3 628.6,60.4 629.7,60.4 630.8,60.8 631.9,61.0 633.0,61.0 634.1,61.0 635.2,61.6 636.3,61.6 637.4,61.6 638.4,61.7 639.5,61.8 640.6,61.8 641.7,61.9 642.8,62.3 643.9,62.3 645.0,62.4 646.1,62.4 647.2,62.8 648.3,62.4 649.4,62.5 650.5,62.5 651.6,62.8 652.7,62.9 653.8,63.1 654.9,63.1 656.0,63.2 657.0,63.4 658.1,63.5 659.2,63.6 660.3,63.6 661.4,63.6 662.5,63.5 663.6,63.6 664.7,63.5 665.8,63.4 666.9,63.4 668.0,63.4 669.1,63.6 670.2,64.0 671.3,64.1 672.4,64.1 673.5,64.4 674.6,64.4 675.6,64.3 676.7,64.3 677.8,64.3 678.9,63.8 680.0,63.8 681.1,63.7 682.2,63.7 683.3,63.5 684.4,63.6 685.5,63.6 686.6,63.5 687.7,63.5 688.8,63.5 689.9,63.4 691.0,63.4 692.1,63.4 693.2,63.1 694.2,63.1 695.3,62.8 696.4,62.8 697.5,62.7 698.6,62.5 699.7,62.5 700.8,62.3 701.9,62.3 703.0,62.1 704.1,62.1 705.2,62.2 706.3,62.0 707.4,62.0 708.5,61.8 709.6,61.7 710.7,61.6 711.8,61.3 712.8,61.3 713.9,61.3 715.0,61.2 716.1,61.2 717.2,61.0 718.3,61.0 719.4,60.9 720.5,60.9 721.6,60.9 722.7,60.3 723.8,60.2 724.9,59.7 726.0,59.7 727.1,59.6 728.2,59.3 729.3,59.2 730.4,59.4 731.4,59.4 732.5,59.3 733.6,59.3 734.7,59.1 735.8,59.1 736.9,59.0 738.0,58.9 739.1,58.9 740.2,58.7 741.3,58.5 742.4,58.4 743.5,58.3 744.6,58.1 745.7,58.0 746.8,57.9 747.9,58.0 749.0,57.9 750.0,57.9 751.1,57.8 752.2,57.7 753.3,57.5 754.4,57.3 755.5,57.2 756.6,57.3 757.7,57.2 758.8,57.1 759.9,57.0 761.0,57.0 762.1,56.9 763.2,56.7 764.3,56.7 765.4,56.7 766.5,56.5 767.6,56.4 768.6,56.3 769.7,56.3 770.8,55.9 771.9,55.7 773.0,55.5 774.1,55.7 775.2,55.6 776.3,55.5 777.4,55.4 778.5,55.1 779.6,55.1 780.7,54.9 781.8,54.8 782.9,54.2 784.0,54.1 785.1,53.7 786.2,53.6 787.2,53.3 788.3,53.1 789.4,53.0 790.5,52.7 791.6,52.6 792.7,52.4 793.8,52.2 794.9,52.0 796.0,52.1"/>
<text x="640" y="72" font-family="Arial" font-size="12" fill="#2563eb">estimate</text>
</svg>