<svg xmlns="http://www.w3.org/2000/svg" width="820" height="320" viewBox="0 0 820 320">
<rect width="100%" height="100%" fill="white"/>
<text x="52" y="30" font-family="Arial" font-size="18" font-weight="700">robust_nominal altitude</text>
<line x1="52" y1="274" x2="796" y2="274" stroke="#263238"/>
<line x1="52" y1="42" x2="52" y2="274" stroke="#263238"/>
<text x="52" y="306" font-family="Arial" font-size="12">time (s)</text>
<text x="630" y="306" font-family="Arial" font-size="12">m</text>

<rect x="314.6" y="42" width="153.2" height="232" fill="#fef3c7" opacity="0.72"/>
<polyline fill="none" stroke="#0f766e" stroke-width="2.3" points="52.0,261.9 53.1,261.7 54.2,261.5 55.3,261.3 56.4,261.0 57.5,260.8 58.6,260.6 59.7,260.4 60.8,260.2 61.8,259.9 62.9,259.7 64.0,259.4 65.1,259.2 66.2,258.9 67.3,258.7 68.4,258.4 69.5,258.2 70.6,257.9 71.7,257.6 72.8,257.3 73.9,257.1 75.0,256.8 76.1,256.5 77.2,256.2 78.3,255.9 79.4,255.6 80.4,255.3 81.5,255.0 82.6,254.6 83.7,254.3 84.8,254.0 85.9,253.7 87.0,253.3 88.1,253.0 89.2,252.6 90.3,252.3 91.4,251.9 92.5,251.6 93.6,251.2 94.7,250.8 95.8,250.5 96.9,250.1 98.0,249.7 99.0,249.3 100.1,248.9 101.2,248.5 102.3,248.2 103.4,247.7 104.5,247.3 105.6,246.9 106.7,246.5 107.8,246.1 108.9,245.7 110.0,245.2 111.1,244.8 112.2,244.4 113.3,243.9 114.4,243.5 115.5,243.0 116.6,242.6 117.6,242.1 118.7,241.7 119.8,241.2 120.9,240.7 122.0,240.2 123.1,239.8 124.2,239.3 125.3,238.8 126.4,238.3 127.5,237.8 128.6,237.3 129.7,236.8 130.8,236.3 131.9,235.7 133.0,235.2 134.1,234.7 135.2,234.2 136.2,233.6 137.3,233.1 138.4,232.5 139.5,232.0 140.6,231.4 141.7,230.9 142.8,230.3 143.9,229.8 145.0,229.2 146.1,228.6 147.2,228.0 148.3,227.5 149.4,226.9 150.5,226.3 151.6,225.7 152.7,225.1 153.8,224.5 154.8,223.9 155.9,223.3 157.0,222.6 158.1,222.0 159.2,221.4 160.3,220.7 161.4,220.1 162.5,219.5 163.6,218.8 164.7,218.2 165.8,217.5 166.9,216.9 168.0,216.2 169.1,215.5 170.2,214.9 171.3,214.2 172.4,213.5 173.4,212.8 174.5,212.1 175.6,211.4 176.7,210.7 177.8,210.0 178.9,209.3 180.0,208.6 181.1,207.9 182.2,207.2 183.3,206.5 184.4,205.7 185.5,205.0 186.6,204.3 187.7,203.5 188.8,202.8 189.9,202.0 191.0,201.3 192.0,200.5 193.1,199.7 194.2,199.0 195.3,198.2 196.4,197.4 197.5,196.6 198.6,195.8 199.7,195.1 200.8,194.3 201.9,193.5 203.0,192.7 204.1,191.8 205.2,191.0 206.3,190.2 207.4,189.4 208.5,188.6 209.6,187.7 210.6,186.9 211.7,186.1 212.8,185.2 213.9,184.4 215.0,183.5 216.1,182.7 217.2,181.8 218.3,180.9 219.4,180.1 220.5,179.2 221.6,178.3 222.7,177.4 223.8,176.5 224.9,175.6 226.0,174.7 227.1,173.8 228.2,172.9 229.2,172.0 230.3,171.1 231.4,170.2 232.5,169.3 233.6,168.3 234.7,167.4 235.8,166.5 236.9,165.5 238.0,164.6 239.1,163.6 240.2,162.7 241.3,161.7 242.4,160.8 243.5,159.8 244.6,158.8 245.7,157.8 246.8,156.9 247.8,155.9 248.9,154.9 250.0,153.9 251.1,152.9 252.2,151.9 253.3,150.9 254.4,149.9 255.5,148.8 256.6,147.8 257.7,146.8 258.8,145.8 259.9,144.7 261.0,143.7 262.1,142.7 263.2,141.6 264.3,140.6 265.4,139.6 266.4,138.6 267.5,137.5 268.6,136.5 269.7,135.5 270.8,134.5 271.9,133.6 273.0,132.6 274.1,131.6 275.2,130.6 276.3,129.7 277.4,128.7 278.5,127.7 279.6,126.8 280.7,125.8 281.8,124.9 282.9,124.0 284.0,123.0 285.0,122.1 286.1,121.2 287.2,120.3 288.3,119.4 289.4,118.5 290.5,117.6 291.6,116.7 292.7,115.8 293.8,114.9 294.9,114.0 296.0,113.2 297.1,112.3 298.2,111.4 299.3,110.6 300.4,109.7 301.5,108.9 302.6,108.0 303.6,107.2 304.7,106.4 305.8,105.6 306.9,104.7 308.0,103.9 309.1,103.1 310.2,102.3 311.3,101.5 312.4,100.7 313.5,100.0 314.6,99.2 315.7,98.4 316.8,97.6 317.9,96.9 319.0,96.1 320.1,95.4 321.2,94.6 322.2,93.9 323.3,93.1 324.4,92.4 325.5,91.7 326.6,91.0 327.7,90.3 328.8,89.5 329.9,88.8 331.0,88.1 332.1,87.4 333.2,86.8 334.3,86.1 335.4,85.4 336.5,84.7 337.6,84.1 338.7,83.4 339.8,82.8 340.8,82.1 341.9,81.5 343.0,80.8 344.1,80.2 345.2,79.6 346.3,78.9 347.4,78.3 348.5,77.7 349.6,77.1 350.7,76.5 351.8,75.9 352.9,75.3 354.0,74.7 355.1,74.2 356.2,73.6 357.3,73.0 358.4,72.5 359.4,71.9 360.5,71.3 361.6,70.8 362.7,70.3 363.8,69.7 364.9,69.2 366.0,68.7 367.1,68.1 368.2,67.6 369.3,67.1 370.4,66.6 371.5,66.1 372.6,65.6 373.7,65.1 374.8,64.7 375.9,64.2 377.0,63.7 378.0,63.2 379.1,62.8 380.2,62.3 381.3,61.9 382.4,61.4 383.5,61.0 384.6,60.6 385.7,60.1 386.8,59.7 387.9,59.3 389.0,58.9 390.1,58.5 391.2,58.1 392.3,57.7 393.4,57.3 394.5,56.9 395.6,56.5 396.6,56.2 397.7,55.8 398.8,55.4 399.9,55.1 401.0,54.7 402.1,54.4 403.2,54.0 404.3,53.7 405.4,53.4 406.5,53.0 407.6,52.7 408.7,52.4 409.8,52.1 410.9,51.8 412.0,51.5 413.1,51.2 414.2,50.9 415.2,50.6 416.3,50.4 417.4,50.1 418.5,49.8 419.6,49.6 420.7,49.3 421.8,49.1 422.9,48.8 424.0,48.6 425.1,48.3 426.2,48.1 427.3,47.9 428.4,47.7 429.5,47.5 430.6,47.3 431.7,47.1 432.8,46.9 433.8,46.7 434.9,46.5 436.0,46.3 437.1,46.1 438.2,46.0 439.3,45.8 440.4,45.6 441.5,45.5 442.6,45.4 443.7,45.2 444.8,45.1 445.9,44.9 447.0,44.8 448.1,44.7 449.2,44.6 450.3,44.5 451.4,44.4 452.4,44.3 453.5,44.2 454.6,44.1 455.7,44.0 456.8,43.9 457.9,43.9 459.0,43.8 460.1,43.7 461.2,43.7 462.3,43.6 463.4,43.6 464.5,43.6 465.6,43.5 466.7,43.5 467.8,43.5 468.9,43.5 470.0,43.4 471.0,43.4 472.1,43.4 473.2,43.4 474.3,43.4 475.4,43.5 476.5,43.5 477.6,43.5 478.7,43.5 479.8,43.6 480.9,43.6 482.0,43.7 483.1,43.7 484.2,43.8 485.3,43.8 486.4,43.9 487.5,44.0 488.6,44.1 489.6,44.2 490.7,44.2 491.8,44.3 492.9,44.4 494.0,44.6 495.1,44.7 496.2,44.8 497.3,44.9 498.4,45.0 499.5,45.2 500.6,45.3 501.7,45.5 502.8,45.6 503.9,45.8 505.0,45.9 506.1,46.1 507.2,46.3 508.2,46.4 509.3,46.6 510.4,46.8 511.5,47.0 512.6,47.2 513.7,47.4 514.8,47.6 515.9,47.8 517.0,48.0 518.1,48.2 519.2,48.4 520.3,48.6 521.4,48.8 522.5,49.0 523.6,49.2 524.7,49.4 525.8,49.6 526.8,49.8 527.9,50.0 529.0,50.2 530.1,50.4 531.2,50.5 532.3,50.7 533.4,50.9 534.5,51.1 535.6,51.3 536.7,51.4 537.8,51.6 538.9,51.8 540.0,52.0 541.1,52.1 542.2,52.3 543.3,52.5 544.4,52.6 545.4,52.8 546.5,53.0 547.6,53.1 548.7,53.3 549.8,53.4 550.9,53.6 552.0,53.8 553.1,53.9 554.2,54.1 555.3,54.2 556.4,54.4 557.5,54.5 558.6,54.7 559.7,54.8 560.8,55.0 561.9,55.1 563.0,55.2 564.0,55.4 565.1,55.5 566.2,55.7 567.3,55.8 568.4,55.9 569.5,56.1 570.6,56.2 571.7,56.3 572.8,56.5 573.9,56.6 575.0,56.7 576.1,56.8 577.2,57.0 578.3,57.1 579.4,57.2 580.5,57.3 581.6,57.4 582.6,57.5 583.7,57.7 584.8,57.8 585.9,57.9 587.0,58.0 588.1,58.1 589.2,58.2 590.3,58.3 591.4,58.4 592.5,58.5 593.6,58.6 594.7,58.7 595.8,58.8 596.9,58.9 598.0,59.0 599.1,59.1 600.2,59.2 601.2,59.3 602.3,59.4 603.4,59.5 604.5,59.5 605.6,59.6 606.7,59.7 607.8,59.8 608.9,59.9 610.0,59.9 611.1,60.0 612.2,60.1 613.3,60.2 614.4,60.2 615.5,60.3 616.6,60.4 617.7,60.5 618.8,60.5 619.8,60.6 620.9,60.6 622.0,60.7 623.1,60.8 624.2,60.8 625.3,60.9 626.4,60.9 627.5,61.0 628.6,61.1 629.7,61.1 630.8,61.2 631.9,61.2 633.0,61.3 634.1,61.3 635.2,61.3 636.3,61.4 637.4,61.4 638.4,61.5 639.5,61.5 640.6,61.5 641.7,61.6 642.8,61.6 643.9,61.6 645.0,61.7 646.1,61.7 647.2,61.7 648.3,61.8 649.4,61.8 650.5,61.8 651.6,61.8 652.7,61.9 653.8,61.9 654.9,61.9 656.0,61.9 657.0,61.9 658.1,61.9 659.2,61.9 660.3,62.0 661.4,62.0 662.5,62.0 663.6,62.0 664.7,62.0 665.8,62.0 666.9,62.0 668.0,62.0 669.1,62.0 670.2,62.0 671.3,62.0 672.4,62.0 673.5,62.0 674.6,62.0 675.6,62.0 676.7,61.9 677.8,61.9 678.9,61.9 680.0,61.9 681.1,61.9 682.2,61.9 683.3,61.8 684.4,61.8 685.5,61.8 686.6,61.8 687.7,61.7 688.8,61.7 689.9,61.7 691.0,61.7 692.1,61.6 693.2,61.6 694.2,61.6 695.3,61.5 696.4,61.5 697.5,61.4 698.6,61.4 699.7,61.4 700.8,61.3 701.9,61.3 703.0,61.2 704.1,61.2 705.2,61.1 706.3,61.1 707.4,61.0 708.5,61.0 709.6,60.9 710.7,60.8 711.8,60.8 712.8,60.7 713.9,60.7 715.0,60.6 716.1,60.5 717.2,60.5 718.3,60.4 719.4,60.3 720.5,60.3 721.6,60.2 722.7,60.1 723.8,60.0 724.9,60.0 726.0,59.9 727.1,59.8 728.2,59.7 729.3,59.7 730.4,59.6 731.4,59.5 732.5,59.4 733.6,59.3 734.7,59.2 735.8,59.1 736.9,59.0 738.0,58.9 739.1,58.8 740.2,58.7 741.3,58.6 742.4,58.5 743.5,58.4 744.6,58.3 745.7,58.2 746.8,58.1 747.9,58.0 749.0,57.9 750.0,57.8 751.1,57.7 752.2,57.6 753.3,57.5 754.4,57.4 755.5,57.2 756.6,57.1 757.7,57.0 758.8,56.9 759.9,56.7 761.0,56.6 762.1,56.5 763.2,56.4 764.3,56.2 765.4,56.1 766.5,56.0 767.6,55.8 768.6,55.7 769.7,55.6 770.8,55.4 771.9,55.3 773.0,55.2 774.1,55.0 775.2,54.9 776.3,54.7 777.4,54.6 778.5,54.4 779.6,54.3 780.7,54.1 781.8,54.0 782.9,53.8 784.0,53.7 785.1,53.5 786.2,53.3 787.2,53.2 788.3,53.0 789.4,52.9 790.5,52.7 791.6,52.5 792.7,52.4 793.8,52.2 794.9,52.0 796.0,51.8"/>
<text x="640" y="56" font-family="Arial" font-size="12" fill="#0f766e">truth</text>
<polyline fill="none" stroke="#2563eb" stroke-width="2.3" points="52.0,274.0 53.1,273.8 54.2,273.5 55.3,273.2 56.4,273.0 57.5,272.7 58.6,272.4 59.7,272.1 60.8,271.9 61.8,271.6 62.9,264.2 64.0,263.3 65.1,262.4 66.2,265.8 67.3,265.4 68.4,265.0 69.5,264.6 70.6,264.2 71.7,263.8 72.8,263.4 73.9,262.4 75.0,260.9 76.1,260.5 77.2,257.6 78.3,257.4 79.4,256.5 80.4,256.2 81.5,255.9 82.6,254.7 83.7,254.3 84.8,254.3 85.9,254.0 87.0,253.7 88.1,253.3 89.2,253.0 90.3,252.6 91.4,252.6 92.5,252.4 93.6,251.6 94.7,251.3 95.8,250.1 96.9,250.0 98.0,249.7 99.0,249.3 100.1,248.6 101.2,248.2 102.3,247.9 103.4,247.5 104.5,247.1 105.6,246.8 106.7,246.2 107.8,245.9 108.9,245.2 110.0,245.0 111.1,244.5 112.2,244.1 113.3,243.6 114.4,243.1 115.5,242.6 116.6,242.1 117.6,241.5 118.7,241.0 119.8,240.5 120.9,239.6 122.0,239.1 123.1,238.8 124.2,238.2 125.3,237.7 126.4,237.0 127.5,236.4 128.6,235.4 129.7,234.9 130.8,234.3 131.9,233.6 133.0,233.0 134.1,232.4 135.2,232.0 136.2,231.8 137.3,231.3 138.4,230.8 139.5,230.3 140.6,230.1 141.7,229.5 142.8,228.7 143.9,228.2 145.0,227.5 146.1,226.8 147.2,226.3 148.3,226.0 149.4,225.6 150.5,225.1 151.6,224.5 152.7,223.9 153.8,222.9 154.8,222.3 155.9,221.7 157.0,221.4 158.1,221.0 159.2,220.4 160.3,219.7 161.4,219.7 162.5,218.9 163.6,218.3 164.7,217.8 165.8,217.1 166.9,216.3 168.0,215.6 169.1,215.0 170.2,214.2 171.3,213.5 172.4,213.0 173.4,212.4 174.5,211.7 175.6,211.0 176.7,210.3 177.8,209.6 178.9,208.9 180.0,208.1 181.1,207.4 182.2,206.7 183.3,206.2 184.4,205.3 185.5,204.6 186.6,203.9 187.7,203.2 188.8,202.6 189.9,201.7 191.0,201.0 192.0,199.9 193.1,199.1 194.2,198.0 195.3,197.1 196.4,196.4 197.5,195.8 198.6,195.0 199.7,194.2 200.8,193.3 201.9,192.6 203.0,191.7 204.1,190.9 205.2,190.2 206.3,189.4 207.4,188.6 208.5,187.8 209.6,186.9 210.6,186.1 211.7,185.6 212.8,184.7 213.9,183.9 215.0,183.0 216.1,182.5 217.2,181.6 218.3,180.8 219.4,180.1 220.5,179.2 221.6,178.2 222.7,177.3 223.8,176.3 224.9,175.5 226.0,174.6 227.1,173.7 228.2,172.9 229.2,172.0 230.3,171.1 231.4,170.0 232.5,168.9 233.6,168.0 234.7,167.1 235.8,166.1 236.9,164.9 238.0,163.8 239.1,162.8 240.2,161.8 241.3,160.7 242.4,159.8 243.5,158.8 244.6,157.8 245.7,156.8 246.8,155.9 247.8,154.9 248.9,154.0 250.0,153.1 251.1,152.1 252.2,151.3 253.3,150.2 254.4,149.2 255.5,148.3 256.6,147.3 257.7,145.9 258.8,144.9 259.9,143.8 261.0,142.7 262.1,141.7 263.2,140.6 264.3,139.5 265.4,138.5 266.4,137.5 267.5,136.5 268.6,135.7 269.7,134.7 270.8,134.0 271.9,133.0 273.0,132.0 274.1,131.2 275.2,130.3 276.3,129.1 277.4,128.2 278.5,127.3 279.6,126.3 280.7,125.4 281.8,124.6 282.9,123.7 284.0,122.7 285.0,122.0 286.1,121.1 287.2,120.2 288.3,119.6 289.4,118.8 290.5,117.9 291.6,117.0 292.7,115.8 293.8,114.9 294.9,114.0 296.0,113.1 297.1,112.2 298.2,111.4 299.3,110.6 300.4,109.8 301.5,109.2 302.6,108.1 303.6,107.3 304.7,106.8 305.8,106.0 306.9,105.2 308.0,104.3 309.1,103.5 310.2,102.7 311.3,102.0 312.4,101.1 313.5,100.4 314.6,99.3 315.7,98.5 316.8,97.7 317.9,97.0 319.0,96.3 320.1,95.4 321.2,94.7 322.2,93.9 323.3,93.2 324.4,92.5 325.5,92.0 326.6,91.3 327.7,90.5 328.8,89.8 329.9,89.1 331.0,88.3 332.1,87.4 333.2,86.7 334.3,86.3 335.4,85.7 336.5,84.5 337.6,84.0 338.7,83.3 339.8,82.9 340.8,82.0 341.9,81.0 343.0,80.4 344.1,79.7 345.2,79.1 346.3,78.4 347.4,77.7 348.5,77.0 349.6,76.6 350.7,75.9 351.8,75.3 352.9,74.7 354.0,74.0 355.1,73.4 356.2,73.0 357.3,72.4 358.4,71.7 359.4,71.2 360.5,70.6 361.6,69.9 362.7,69.4 363.8,69.0 364.9,68.4 366.0,67.9 367.1,67.4 368.2,66.9 369.3,66.4 370.4,65.8 371.5,65.3 372.6,64.5 373.7,64.0 374.8,63.8 375.9,63.0 377.0,62.5 378.0,61.9 379.1,61.4 380.2,60.9 381.3,60.6 382.4,60.1 383.5,59.6 384.6,59.2 385.7,58.9 386.8,58.9 387.9,58.5 389.0,58.2 390.1,57.8 391.2,57.3 392.3,56.9 393.4,56.6 394.5,56.3 395.6,55.9 396.6,55.6 397.7,55.2 398.8,54.8 399.9,54.6 401.0,54.3 402.1,54.0 403.2,53.8 404.3,53.4 405.4,53.4 406.5,53.0 407.6,52.5 408.7,52.2 409.8,51.9 410.9,51.6 412.0,51.3 413.1,51.2 414.2,51.0 415.2,50.5 416.3,50.0 417.4,49.7 418.5,49.6 419.6,49.3 420.7,49.0 421.8,48.7 422.9,48.4 424.0,48.4 425.1,48.2 426.2,48.0 427.3,47.5 428.4,47.0 429.5,46.8 430.6,46.6 431.7,46.4 432.8,46.3 433.8,46.1 434.9,45.6 436.0,45.6 437.1,45.6 438.2,45.6 439.3,45.5 440.4,45.3 441.5,45.0 442.6,45.0 443.7,44.9 444.8,44.8 445.9,44.2 447.0,44.0 448.1,43.8 449.2,43.7 450.3,43.5 451.4,43.4 452.4,43.3 453.5,43.1 454.6,43.1 455.7,43.0 456.8,42.7 457.9,42.7 459.0,42.6 460.1,42.7 461.2,42.6 462.3,42.6 463.4,42.6 464.5,42.6 465.6,42.4 466.7,42.3 467.8,42.1 468.9,42.1 470.0,42.1 471.0,42.0 472.1,42.0 473.2,42.0 474.3,42.0 475.4,42.0 476.5,42.3 477.6,42.4 478.7,42.2 479.8,42.2 480.9,42.2 482.0,42.5 483.1,42.5 484.2,42.4 485.3,42.5 486.4,42.5 487.5,42.6 488.6,42.7 489.6,43.0 490.7,43.1 491.8,43.2 492.9,43.3 494.0,43.5 495.1,43.6 496.2,43.8 497.3,43.9 498.4,44.1 499.5,44.2 500.6,44.1 501.7,44.2 502.8,44.4 503.9,44.5 505.0,44.6 506.1,44.8 507.2,45.2 508.2,45.2 509.3,45.3 510.4,45.5 511.5,45.9 512.6,46.1 513.7,46.3 514.8,46.4 515.9,46.7 517.0,46.9 518.1,47.0 519.2,47.2 520.3,47.4 521.4,47.8 522.5,48.3 523.6,48.4 524.7,48.8 525.8,49.1 526.8,49.3 527.9,49.4 529.0,49.9 530.1,50.1 531.2,50.3 532.3,50.5 533.4,50.7 534.5,50.8 535.6,51.0 536.7,51.0 537.8,51.2 538.9,51.6 540.0,51.8 541.1,52.0 542.2,52.3 543.3,52.7 544.4,52.7 545.4,52.8 546.5,53.2 547.6,53.2 548.7,53.4 549.8,53.6 550.9,53.4 552.0,53.7 553.1,54.0 554.2,54.2 555.3,54.1 556.4,54.3 557.5,54.4 558.6,54.7 559.7,55.0 560.8,55.0 561.9,55.2 563.0,55.7 564.0,55.9 565.1,56.1 566.2,56.5 567.3,56.6 568.4,56.8 569.5,56.8 570.6,56.9 571.7,56.9 572.8,57.1 573.9,57.2 575.0,57.2 576.1,57.3 577.2,57.5 578.3,57.7 579.4,57.8 580.5,57.9 581.6,58.0 582.6,57.9 583.7,58.0 584.8,58.2 585.9,58.3 587.0,58.2 588.1,58.1 589.2,58.2 590.3,58.3 591.4,57.9 592.5,58.0 593.6,58.0 594.7,58.1 595.8,58.4 596.9,58.7 598.0,58.8 599.1,58.7 600.2,59.1 601.2,59.2 602.3,59.5 603.4,59.6 604.5,59.9 605.6,60.1 606.7,60.2 607.8,60.4 608.9,60.5 610.0,60.3 611.1,60.4 612.2,60.5 613.3,60.5 614.4,60.6 615.5,60.3 616.6,60.3 617.7,60.4 618.8,60.5 619.8,60.5 620.9,60.7 622.0,60.4 623.1,60.5 624.2,60.3 625.3,60.4 626.4,60.2 627.5,60.3 628.6,60.3 629.7,60.4 630.8,60.7 631.9,60.9 633.0,60.9 634.1,60.9 635.2,61.4 636.3,61.5 637.4,61.5 638.4,61.6 639.5,61.6 640.6,61.7 641.7,61.7 642.8,62.2 643.9,62.2 645.0,62.3 646.1,62.3 647.2,62.6 648.3,62.3 649.4,62.3 650.5,62.3 651.6,62.7 652.7,62.7 653.8,63.0 654.9,63.0 656.0,63.0 657.0,63.3 658.1,63.3 659.2,63.4 660.3,63.4 661.4,63.4 662.5,63.4 663.6,63.4 664.7,63.5 665.8,63.4 666.9,63.4 668.0,63.4 669.1,63.6 670.2,64.0 671.3,64.0 672.4,64.0 673.5,64.3 674.6,64.3 675.6,64.2 676.7,64.2 677.8,64.3 678.9,63.8 680.0,63.8 681.1,63.8 682.2,63.8 683.3,63.6 684.4,63.7 685.5,63.7 686.6,63.5 687.7,63.5 688.8,63.5 689.9,63.4 691.0,63.4 692.1,63.4 693.2,63.2 694.2,63.2 695.3,62.9 696.4,62.9 697.5,62.8 698.6,62.6 699.7,62.6 700.8,62.5 701.9,62.4 703.0,62.3 704.1,62.3 705.2,62.3 706.3,62.1 707.4,62.1 708.5,61.9 709.6,61.8 710.7,61.8 711.8,61.5 712.8,61.5 713.9,61.4 715.0,61.4 716.1,61.4 717.2,61.1 718.3,61.2 719.4,61.1 720.5,61.0 721.6,61.0 722.7,60.5 723.8,60.4 724.9,59.9 726.0,59.9 727.1,59.8 728.2,59.5 729.3,59.5 730.4,59.7 731.4,59.6 732.5,59.5 733.6,59.6 734.7,59.4 735.8,59.3 736.9,59.2 738.0,59.1 739.1,59.1 740.2,58.9 741.3,58.6 742.4,58.6 743.5,58.5 744.6,58.3 745.7,58.2 746.8,58.1 747.9,58.2 749.0,58.1 750.0,58.0 751.1,57.9 752.2,57.9 753.3,57.7 754.4,57.5 755.5,57.4 756.6,57.4 757.7,57.4 758.8,57.2 759.9,57.1 761.0,57.1 762.1,57.0 763.2,56.7 764.3,56.8 765.4,56.7 766.5,56.6 767.6,56.5 768.6,56.3 769.7,56.3 770.8,56.0 771.9,55.8 773.0,55.6 774.1,55.7 775.2,55.6 776.3,55.4 777.4,55.3 778.5,55.1 779.6,55.0 780.7,54.9 781.8,54.8 782.9,54.3 784.0,54.1 785.1,53.7 786.2,53.6 787.2,53.3 788.3,53.1 789.4,53.0 790.5,52.8 791.6,52.6 792.7,52.4 793.8,52.2 794.9,52.1 796.0,52.1"/>
<text x="640" y="72" font-family="Arial" font-size="12" fill="#2563eb">estimate</text>
</svg>