<svg xmlns="http://www.w3.org/2000/svg" width="820" height="320" viewBox="0 0 820 320">
<rect width="100%" height="100%" fill="white"/>
<text x="52" y="30" font-family="Arial" font-size="18" font-weight="700">adaptive_dropout_robust altitude</text>
<line x1="52" y1="274" x2="796" y2="274" stroke="#263238"/>
<line x1="52" y1="42" x2="52" y2="274" stroke="#263238"/>
<text x="52" y="306" font-family="Arial" font-size="12">time (s)</text>
<text x="630" y="306" font-family="Arial" font-size="12">m</text>

<rect x="314.6" y="42" width="153.2" height="232" fill="#fef3c7" opacity="0.72"/>
<polyline fill="none" stroke="#0f766e" stroke-width="2.3" points="52.0,262.3 53.1,262.1 54.2,261.8 55.3,261.6 56.4,261.4 57.5,261.2 58.6,261.0 59.7,260.8 60.8,260.5 61.8,260.3 62.9,260.1 64.0,259.8 65.1,259.6 66.2,259.3 67.3,259.1 68.4,258.8 69.5,258.5 70.6,258.3 71.7,258.0 72.8,257.7 73.9,257.4 75.0,257.1 76.1,256.8 77.2,256.6 78.3,256.3 79.4,255.9 80.4,255.6 81.5,255.3 82.6,255.0 83.7,254.7 84.8,254.4 85.9,254.0 87.0,253.7 88.1,253.3 89.2,253.0 90.3,252.6 91.4,252.3 92.5,251.9 93.6,251.6 94.7,251.2 95.8,250.8 96.9,250.5 98.0,250.1 99.0,249.7 100.1,249.3 101.2,248.9 102.3,248.5 103.4,248.1 104.5,247.7 105.6,247.3 106.7,246.9 107.8,246.4 108.9,246.0 110.0,245.6 111.1,245.2 112.2,244.7 113.3,244.3 114.4,243.8 115.5,243.4 116.6,242.9 117.6,242.5 118.7,242.0 119.8,241.5 120.9,241.1 122.0,240.6 123.1,240.1 124.2,239.6 125.3,239.1 126.4,238.6 127.5,238.1 128.6,237.6 129.7,237.1 130.8,236.6 131.9,236.1 133.0,235.6 134.1,235.0 135.2,234.5 136.2,234.0 137.3,233.4 138.4,232.9 139.5,232.3 140.6,231.8 141.7,231.2 142.8,230.7 143.9,230.1 145.0,229.5 146.1,228.9 147.2,228.4 148.3,227.8 149.4,227.2 150.5,226.6 151.6,226.0 152.7,225.4 153.8,224.8 154.8,224.2 155.9,223.6 157.0,222.9 158.1,222.3 159.2,221.7 160.3,221.1 161.4,220.4 162.5,219.8 163.6,219.1 164.7,218.5 165.8,217.8 166.9,217.2 168.0,216.5 169.1,215.8 170.2,215.2 171.3,214.5 172.4,213.8 173.4,213.1 174.5,212.4 175.6,211.7 176.7,211.0 177.8,210.3 178.9,209.6 180.0,208.9 181.1,208.2 182.2,207.5 183.3,206.7 184.4,206.0 185.5,205.3 186.6,204.5 187.7,203.8 188.8,203.0 189.9,202.3 191.0,201.5 192.0,200.8 193.1,200.0 194.2,199.2 195.3,198.5 196.4,197.7 197.5,196.9 198.6,196.1 199.7,195.3 200.8,194.5 201.9,193.7 203.0,192.9 204.1,192.1 205.2,191.3 206.3,190.5 207.4,189.6 208.5,188.8 209.6,188.0 210.6,187.1 211.7,186.3 212.8,185.4 213.9,184.6 215.0,183.7 216.1,182.9 217.2,182.0 218.3,181.2 219.4,180.3 220.5,179.4 221.6,178.5 222.7,177.6 223.8,176.7 224.9,175.9 226.0,175.0 227.1,174.0 228.2,173.1 229.2,172.2 230.3,171.3 231.4,170.4 232.5,169.5 233.6,168.5 234.7,167.6 235.8,166.7 236.9,165.7 238.0,164.8 239.1,163.8 240.2,162.9 241.3,161.9 242.4,160.9 243.5,160.0 244.6,159.0 245.7,158.0 246.8,157.0 247.8,156.0 248.9,155.1 250.0,154.1 251.1,153.1 252.2,152.0 253.3,151.0 254.4,150.0 255.5,149.0 256.6,148.0 257.7,147.0 258.8,145.9 259.9,144.9 261.0,143.8 262.1,142.8 263.2,141.8 264.3,140.7 265.4,139.7 266.4,138.7 267.5,137.7 268.6,136.7 269.7,135.7 270.8,134.7 271.9,133.7 273.0,132.7 274.1,131.7 275.2,130.7 276.3,129.8 277.4,128.8 278.5,127.9 279.6,126.9 280.7,126.0 281.8,125.0 282.9,124.1 284.0,123.1 285.0,122.2 286.1,121.3 287.2,120.4 288.3,119.5 289.4,118.6 290.5,117.7 291.6,116.8 292.7,115.9 293.8,115.0 294.9,114.1 296.0,113.2 297.1,112.4 298.2,111.5 299.3,110.7 300.4,109.8 301.5,109.0 302.6,108.1 303.6,107.3 304.7,106.5 305.8,105.6 306.9,104.8 308.0,104.0 309.1,103.2 310.2,102.4 311.3,101.6 312.4,100.8 313.5,100.0 314.6,99.2 315.7,98.5 316.8,97.7 317.9,96.9 319.0,96.2 320.1,95.4 321.2,94.7 322.2,93.9 323.3,93.2 324.4,92.5 325.5,91.7 326.6,91.0 327.7,90.3 328.8,89.6 329.9,88.9 331.0,88.2 332.1,87.5 333.2,86.8 334.3,86.1 335.4,85.4 336.5,84.8 337.6,84.1 338.7,83.4 339.8,82.8 340.8,82.1 341.9,81.5 343.0,80.9 344.1,80.2 345.2,79.6 346.3,79.0 347.4,78.3 348.5,77.7 349.6,77.1 350.7,76.5 351.8,75.9 352.9,75.3 354.0,74.8 355.1,74.2 356.2,73.6 357.3,73.0 358.4,72.5 359.4,71.9 360.5,71.4 361.6,70.8 362.7,70.3 363.8,69.7 364.9,69.2 366.0,68.7 367.1,68.1 368.2,67.6 369.3,67.1 370.4,66.6 371.5,66.1 372.6,65.6 373.7,65.1 374.8,64.7 375.9,64.2 377.0,63.7 378.0,63.2 379.1,62.8 380.2,62.3 381.3,61.9 382.4,61.4 383.5,61.0 384.6,60.6 385.7,60.1 386.8,59.7 387.9,59.3 389.0,58.9 390.1,58.5 391.2,58.1 392.3,57.7 393.4,57.3 394.5,56.9 395.6,56.5 396.6,56.1 397.7,55.8 398.8,55.4 399.9,55.1 401.0,54.7 402.1,54.4 403.2,54.0 404.3,53.7 405.4,53.3 406.5,53.0 407.6,52.7 408.7,52.4 409.8,52.1 410.9,51.8 412.0,51.5 413.1,51.2 414.2,50.9 415.2,50.6 416.3,50.3 417.4,50.1 418.5,49.8 419.6,49.5 420.7,49.3 421.8,49.0 422.9,48.8 424.0,48.5 425.1,48.3 426.2,48.1 427.3,47.9 428.4,47.6 429.5,47.4 430.6,47.2 431.7,47.0 432.8,46.8 433.8,46.6 434.9,46.5 436.0,46.3 437.1,46.1 438.2,45.9 439.3,45.8 440.4,45.6 441.5,45.5 442.6,45.3 443.7,45.2 444.8,45.0 445.9,44.9 447.0,44.8 448.1,44.7 449.2,44.5 450.3,44.4 451.4,44.3 452.4,44.2 453.5,44.1 454.6,44.1 455.7,44.0 456.8,43.9 457.9,43.8 459.0,43.8 460.1,43.7 461.2,43.6 462.3,43.6 463.4,43.5 464.5,43.5 465.6,43.5 466.7,43.4 467.8,43.4 468.9,43.4 470.0,43.4 471.0,43.4 472.1,43.4 473.2,43.4 474.3,43.4 475.4,43.4 476.5,43.4 477.6,43.5 478.7,43.5 479.8,43.5 480.9,43.6 482.0,43.6 483.1,43.7 484.2,43.7 485.3,43.8 486.4,43.9 487.5,43.9 488.6,44.0 489.6,44.1 490.7,44.2 491.8,44.3 492.9,44.4 494.0,44.5 495.1,44.6 496.2,44.7 497.3,44.9 498.4,45.0 499.5,45.1 500.6,45.3 501.7,45.4 502.8,45.6 503.9,45.7 505.0,45.9 506.1,46.1 507.2,46.2 508.2,46.4 509.3,46.6 510.4,46.8 511.5,47.0 512.6,47.2 513.7,47.4 514.8,47.6 515.9,47.8 517.0,48.0 518.1,48.2 519.2,48.4 520.3,48.6 521.4,48.8 522.5,49.0 523.6,49.2 524.7,49.4 525.8,49.6 526.8,49.8 527.9,49.9 529.0,50.1 530.1,50.3 531.2,50.5 532.3,50.7 533.4,50.9 534.5,51.1 535.6,51.2 536.7,51.4 537.8,51.6 538.9,51.8 540.0,51.9 541.1,52.1 542.2,52.3 543.3,52.4 544.4,52.6 545.4,52.8 546.5,52.9 547.6,53.1 548.7,53.3 549.8,53.4 550.9,53.6 552.0,53.7 553.1,53.9 554.2,54.0 555.3,54.2 556.4,54.4 557.5,54.5 558.6,54.6 559.7,54.8 560.8,54.9 561.9,55.1 563.0,55.2 564.0,55.4 565.1,55.5 566.2,55.6 567.3,55.8 568.4,55.9 569.5,56.0 570.6,56.2 571.7,56.3 572.8,56.4 573.9,56.6 575.0,56.7 576.1,56.8 577.2,56.9 578.3,57.1 579.4,57.2 580.5,57.3 581.6,57.4 582.6,57.5 583.7,57.6 584.8,57.8 585.9,57.9 587.0,58.0 588.1,58.1 589.2,58.2 590.3,58.3 591.4,58.4 592.5,58.5 593.6,58.6 594.7,58.7 595.8,58.8 596.9,58.9 598.0,59.0 599.1,59.1 600.2,59.2 601.2,59.3 602.3,59.4 603.4,59.4 604.5,59.5 605.6,59.6 606.7,59.7 607.8,59.8 608.9,59.9 610.0,59.9 611.1,60.0 612.2,60.1 613.3,60.2 614.4,60.2 615.5,60.3 616.6,60.4 617.7,60.4 618.8,60.5 619.8,60.6 620.9,60.6 622.0,60.7 623.1,60.8 624.2,60.8 625.3,60.9 626.4,60.9 627.5,61.0 628.6,61.0 629.7,61.1 630.8,61.1 631.9,61.2 633.0,61.2 634.1,61.3 635.2,61.3 636.3,61.4 637.4,61.4 638.4,61.5 639.5,61.5 640.6,61.5 641.7,61.6 642.8,61.6 643.9,61.6 645.0,61.7 646.1,61.7 647.2,61.7 648.3,61.8 649.4,61.8 650.5,61.8 651.6,61.8 652.7,61.8 653.8,61.9 654.9,61.9 656.0,61.9 657.0,61.9 658.1,61.9 659.2,61.9 660.3,62.0 661.4,62.0 662.5,62.0 663.6,62.0 664.7,62.0 665.8,62.0 666.9,62.0 668.0,62.0 669.1,62.0 670.2,62.0 671.3,62.0 672.4,62.0 673.5,62.0 674.6,62.0 675.6,61.9 676.7,61.9 677.8,61.9 678.9,61.9 680.0,61.9 681.1,61.9 682.2,61.9 683.3,61.8 684.4,61.8 685.5,61.8 686.6,61.8 687.7,61.7 688.8,61.7 689.9,61.7 691.0,61.6 692.1,61.6 693.2,61.6 694.2,61.5 695.3,61.5 696.4,61.5 697.5,61.4 698.6,61.4 699.7,61.3 700.8,61.3 701.9,61.3 703.0,61.2 704.1,61.2 705.2,61.1 706.3,61.1 707.4,61.0 708.5,61.0 709.6,60.9 710.7,60.8 711.8,60.8 712.8,60.7 713.9,60.7 715.0,60.6 716.1,60.5 717.2,60.5 718.3,60.4 719.4,60.3 720.5,60.3 721.6,60.2 722.7,60.1 723.8,60.0 724.9,60.0 726.0,59.9 727.1,59.8 728.2,59.7 729.3,59.6 730.4,59.6 731.4,59.5 732.5,59.4 733.6,59.3 734.7,59.2 735.8,59.1 736.9,59.0 738.0,58.9 739.1,58.8 740.2,58.7 741.3,58.6 742.4,58.5 743.5,58.4 744.6,58.3 745.7,58.2 746.8,58.1 747.9,58.0 749.0,57.9 750.0,57.8 751.1,57.7 752.2,57.6 753.3,57.5 754.4,57.3 755.5,57.2 756.6,57.1 757.7,57.0 758.8,56.9 759.9,56.7 761.0,56.6 762.1,56.5 763.2,56.4 764.3,56.2 765.4,56.1 766.5,56.0 767.6,55.8 768.6,55.7 769.7,55.6 770.8,55.4 771.9,55.3 773.0,55.1 774.1,55.0 775.2,54.8 776.3,54.7 777.4,54.6 778.5,54.4 779.6,54.3 780.7,54.1 781.8,53.9 782.9,53.8 784.0,53.6 785.1,53.5 786.2,53.3 787.2,53.2 788.3,53.0 789.4,52.8 790.5,52.7 791.6,52.5 792.7,52.3 793.8,52.2 794.9,52.0 796.0,51.8"/>
<text x="640" y="56" font-family="Arial" font-size="12" fill="#0f766e">truth</text>
<polyline fill="none" stroke="#2563eb" stroke-width="2.3" points="52.0,274.0 53.1,273.8 54.2,273.5 55.3,273.2 56.4,273.0 57.5,272.7 58.6,272.4 59.7,272.1 60.8,271.9 61.8,271.6 62.9,265.1 64.0,264.4 65.1,263.6 66.2,266.7 67.3,266.4 68.4,266.1 69.5,265.7 70.6,265.4 71.7,265.1 72.8,264.7 73.9,263.6 75.0,260.4 76.1,260.0 77.2,256.7 78.3,256.4 79.4,255.8 80.4,255.5 81.5,255.1 82.6,254.0 83.7,253.6 84.8,254.3 85.9,253.9 87.0,253.7 88.1,253.3 89.2,253.0 90.3,252.6 91.4,252.8 92.5,252.5 93.6,251.6 94.7,251.3 95.8,250.4 96.9,250.4 98.0,250.1 99.0,249.6 100.1,248.9 101.2,248.5 102.3,248.2 103.4,247.8 104.5,247.4 105.6,247.1 106.7,246.6 107.8,246.3 108.9,245.5 110.0,245.4 111.1,244.9 112.2,244.5 113.3,244.0 114.4,243.5 115.5,243.0 116.6,242.5 117.6,241.8 118.7,241.4 119.8,240.9 120.9,239.8 122.0,239.3 123.1,239.1 124.2,238.5 125.3,238.0 126.4,237.3 127.5,236.6 128.6,235.6 129.7,235.1 130.8,234.5 131.9,233.7 133.0,233.2 134.1,232.6 135.2,232.2 136.2,232.0 137.3,231.6 138.4,231.0 139.5,230.6 140.6,230.5 141.7,229.9 142.8,229.1 143.9,228.6 145.0,227.9 146.1,227.2 147.2,226.6 148.3,226.4 149.4,226.0 150.5,225.4 151.6,224.9 152.7,224.3 153.8,223.2 154.8,222.6 155.9,222.0 157.0,221.7 158.1,221.3 159.2,220.7 160.3,220.1 161.4,220.0 162.5,219.2 163.6,218.6 164.7,218.1 165.8,217.4 166.9,216.6 168.0,215.9 169.1,215.3 170.2,214.5 171.3,213.8 172.4,213.4 173.4,212.7 174.5,212.0 175.6,211.3 176.7,210.6 177.8,210.0 178.9,209.2 180.0,208.5 181.1,207.7 182.2,207.0 183.3,206.4 184.4,205.6 185.5,204.8 186.6,204.1 187.7,203.4 188.8,202.8 189.9,202.0 191.0,201.2 192.0,200.1 193.1,199.3 194.2,198.2 195.3,197.2 196.4,196.5 197.5,196.0 198.6,195.2 199.7,194.4 200.8,193.5 201.9,192.8 203.0,192.0 204.1,191.1 205.2,190.4 206.3,189.6 207.4,188.7 208.5,187.9 209.6,187.1 210.6,186.2 211.7,185.7 212.8,184.9 213.9,184.1 215.0,183.2 216.1,182.6 217.2,181.6 218.3,180.9 219.4,180.2 220.5,179.3 221.6,178.3 222.7,177.4 223.8,176.4 224.9,175.6 226.0,174.7 227.1,173.8 228.2,173.0 229.2,172.1 230.3,171.2 231.4,170.1 232.5,169.0 233.6,168.0 234.7,167.2 235.8,166.2 236.9,164.9 238.0,163.9 239.1,162.8 240.2,161.8 241.3,160.8 242.4,159.7 243.5,158.8 244.6,157.7 245.7,156.8 246.8,155.9 247.8,154.9 248.9,153.9 250.0,153.1 251.1,152.0 252.2,151.3 253.3,150.2 254.4,149.2 255.5,148.4 256.6,147.4 257.7,146.0 258.8,144.9 259.9,143.8 261.0,142.7 262.1,141.6 263.2,140.6 264.3,139.5 265.4,138.5 266.4,137.5 267.5,136.5 268.6,135.7 269.7,134.7 270.8,134.2 271.9,133.2 273.0,132.2 274.1,131.5 275.2,130.5 276.3,129.3 277.4,128.4 278.5,127.4 279.6,126.5 280.7,125.6 281.8,124.8 282.9,123.9 284.0,122.9 285.0,122.3 286.1,121.4 287.2,120.4 288.3,119.8 289.4,119.0 290.5,118.1 291.6,117.3 292.7,116.0 293.8,115.1 294.9,114.3 296.0,113.3 297.1,112.5 298.2,111.6 299.3,110.8 300.4,110.0 301.5,109.4 302.6,108.3 303.6,107.5 304.7,107.0 305.8,106.2 306.9,105.4 308.0,104.4 309.1,103.6 310.2,102.9 311.3,102.1 312.4,101.3 313.5,100.5 314.6,99.5 315.7,98.8 316.8,98.0 317.9,97.2 319.0,96.5 320.1,95.6 321.2,94.9 322.2,94.1 323.3,93.4 324.4,92.7 325.5,92.1 326.6,91.4 327.7,90.6 328.8,89.9 329.9,89.2 331.0,88.4 332.1,87.5 333.2,86.7 334.3,86.4 335.4,85.7 336.5,84.5 337.6,84.0 338.7,83.3 339.8,82.9 340.8,82.0 341.9,80.7 343.0,80.1 344.1,79.4 345.2,78.7 346.3,78.1 347.4,77.4 348.5,76.8 349.6,76.3 350.7,75.7 351.8,75.0 352.9,74.4 354.0,73.8 355.1,73.2 356.2,72.7 357.3,72.1 358.4,71.4 359.4,70.8 360.5,70.2 361.6,69.6 362.7,69.0 363.8,68.6 364.9,68.1 366.0,67.5 367.1,67.1 368.2,66.5 369.3,66.0 370.4,65.5 371.5,65.0 372.6,64.2 373.7,63.7 374.8,63.5 375.9,62.6 377.0,62.1 378.0,61.5 379.1,61.0 380.2,60.5 381.3,60.2 382.4,59.7 383.5,59.3 384.6,58.8 385.7,58.6 386.8,58.8 387.9,58.4 389.0,58.2 390.1,57.7 391.2,57.2 392.3,56.8 393.4,56.6 394.5,56.3 395.6,56.0 396.6,55.6 397.7,55.2 398.8,54.8 399.9,54.7 401.0,54.4 402.1,54.0 403.2,53.8 404.3,53.5 405.4,53.4 406.5,53.1 407.6,52.5 408.7,52.2 409.8,51.9 410.9,51.7 412.0,51.3 413.1,51.1 414.2,50.9 415.2,50.5 416.3,49.8 417.4,49.5 418.5,49.5 419.6,49.2 420.7,48.9 421.8,48.5 422.9,48.3 424.0,48.3 425.1,48.0 426.2,47.8 427.3,47.2 428.4,46.7 429.5,46.4 430.6,46.3 431.7,46.1 432.8,46.1 433.8,45.9 434.9,45.3 436.0,45.3 437.1,45.5 438.2,45.6 439.3,45.4 440.4,45.2 441.5,45.0 442.6,44.9 443.7,44.9 444.8,44.7 445.9,44.2 447.0,43.8 448.1,43.7 449.2,43.6 450.3,43.3 451.4,43.2 452.4,43.1 453.5,42.9 454.6,43.0 455.7,42.8 456.8,42.6 457.9,42.6 459.0,42.5 460.1,42.7 461.2,42.6 462.3,42.5 463.4,42.6 464.5,42.6 465.6,42.4 466.7,42.3 467.8,42.1 468.9,42.1 470.0,42.1 471.0,42.0 472.1,42.0 473.2,42.1 474.3,42.1 475.4,42.0 476.5,42.5 477.6,42.5 478.7,42.4 479.8,42.3 480.9,42.3 482.0,42.7 483.1,42.8 484.2,42.6 485.3,42.6 486.4,42.7 487.5,42.8 488.6,42.9 489.6,43.2 490.7,43.3 491.8,43.4 492.9,43.4 494.0,43.6 495.1,43.7 496.2,44.0 497.3,44.1 498.4,44.3 499.5,44.4 500.6,44.3 501.7,44.4 502.8,44.6 503.9,44.6 505.0,44.8 506.1,44.9 507.2,45.5 508.2,45.4 509.3,45.4 510.4,45.6 511.5,46.2 512.6,46.4 513.7,46.6 514.8,46.6 515.9,46.9 517.0,47.1 518.1,47.3 519.2,47.5 520.3,47.6 521.4,48.0 522.5,48.5 523.6,48.6 524.7,49.0 525.8,49.3 526.8,49.5 527.9,49.7 529.0,50.2 530.1,50.4 531.2,50.6 532.3,50.8 533.4,50.9 534.5,51.0 535.6,51.3 536.7,51.2 537.8,51.4 538.9,51.8 540.0,52.1 541.1,52.3 542.2,52.7 543.3,53.0 544.4,53.1 545.4,53.2 546.5,53.6 547.6,53.6 548.7,53.8 549.8,54.1 550.9,53.9 552.0,54.0 553.1,54.4 554.2,54.7 555.3,54.5 556.4,54.7 557.5,54.9 558.6,55.1 559.7,55.5 560.8,55.5 561.9,55.7 563.0,56.2 564.0,56.3 565.1,56.5 566.2,56.8 567.3,57.0 568.4,57.2 569.5,57.1 570.6,57.3 571.7,57.3 572.8,57.5 573.9,57.6 575.0,57.6 576.1,57.7 577.2,57.9 578.3,58.1 579.4,58.2 580.5,58.3 581.6,58.5 582.6,58.4 583.7,58.5 584.8,58.6 585.9,58.8 587.0,58.7 588.1,58.6 589.2,58.7 590.3,58.8 591.4,58.5 592.5,58.5 593.6,58.6 594.7,58.6 595.8,58.9 596.9,59.1 598.0,59.1 599.1,59.2 600.2,59.4 601.2,59.5 602.3,59.6 603.4,59.7 604.5,60.0 605.6,60.1 606.7,60.2 607.8,60.4 608.9,60.5 610.0,60.5 611.1,60.6 612.2,60.7 613.3,60.8 614.4,60.9 615.5,60.7 616.6,60.8 617.7,60.9 618.8,60.9 619.8,61.0 620.9,61.1 622.0,61.2 623.1,61.3 624.2,61.1 625.3,61.2 626.4,61.2 627.5,61.3 628.6,61.4 629.7,61.4 630.8,61.7 631.9,61.8 633.0,61.9 634.1,61.9 635.2,62.3 636.3,62.3 637.4,62.4 638.4,62.4 639.5,62.5 640.6,62.5 641.7,62.6 642.8,62.8 643.9,62.8 645.0,62.9 646.1,62.9 647.2,63.2 648.3,63.0 649.4,63.0 650.5,63.1 651.6,63.4 652.7,63.4 653.8,63.6 654.9,63.6 656.0,63.6 657.0,63.9 658.1,63.9 659.2,64.0 660.3,64.0 661.4,63.9 662.5,63.9 663.6,63.9 664.7,63.7 665.8,63.6 666.9,63.6 668.0,63.6 669.1,63.9 670.2,64.5 671.3,64.5 672.4,64.5 673.5,64.8 674.6,64.8 675.6,64.6 676.7,64.6 677.8,64.7 678.9,63.9 680.0,63.9 681.1,63.8 682.2,63.8 683.3,63.5 684.4,63.7 685.5,63.6 686.6,63.6 687.7,63.5 688.8,63.5 689.9,63.4 691.0,63.3 692.1,63.4 693.2,63.0 694.2,62.9 695.3,62.6 696.4,62.6 697.5,62.5 698.6,62.1 699.7,62.1 700.8,61.9 701.9,61.9 703.0,61.7 704.1,61.6 705.2,61.8 706.3,61.5 707.4,61.5 708.5,61.2 709.6,61.1 710.7,61.1 711.8,60.6 712.8,60.6 713.9,60.6 715.0,60.6 716.1,60.6 717.2,60.3 718.3,60.3 719.4,60.2 720.5,60.3 721.6,60.3 722.7,59.4 723.8,59.3 724.9,58.5 726.0,58.5 727.1,58.4 728.2,58.0 729.3,57.9 730.4,58.2 731.4,58.3 732.5,58.3 733.6,58.5 734.7,58.3 735.8,58.3 736.9,58.2 738.0,58.1 739.1,58.2 740.2,58.0 741.3,57.8 742.4,57.8 743.5,57.7 744.6,57.5 745.7,57.4 746.8,57.3 747.9,57.5 749.0,57.4 750.0,57.4 751.1,57.3 752.2,57.3 753.3,57.1 754.4,56.9 755.5,56.8 756.6,56.9 757.7,56.9 758.8,56.8 759.9,56.6 761.0,56.7 762.1,56.5 763.2,56.4 764.3,56.4 765.4,56.4 766.5,56.3 767.6,56.2 768.6,56.1 769.7,56.1 770.8,55.7 771.9,55.4 773.0,55.3 774.1,55.5 775.2,55.4 776.3,55.3 777.4,55.2 778.5,54.9 779.6,54.9 780.7,54.8 781.8,54.6 782.9,54.1 784.0,53.9 785.1,53.5 786.2,53.4 787.2,53.1 788.3,53.0 789.4,52.8 790.5,52.5 791.6,52.4 792.7,52.2 793.8,52.0 794.9,51.8 796.0,51.9"/>
<text x="640" y="72" font-family="Arial" font-size="12" fill="#2563eb">estimate</text>
</svg>