<svg xmlns="http://www.w3.org/2000/svg" width="820" height="320" viewBox="0 0 820 320">
<rect width="100%" height="100%" fill="white"/>
<text x="52" y="30" font-family="Arial" font-size="18" font-weight="700">Truth altitude</text>
<line x1="52" y1="274" x2="796" y2="274" stroke="#263238"/>
<line x1="52" y1="42" x2="52" y2="274" stroke="#263238"/>
<text x="52" y="306" font-family="Arial" font-size="12">time (s)</text>
<text x="630" y="306" font-family="Arial" font-size="12">m</text>

<polyline fill="none" stroke="#0f766e" stroke-width="2.3" points="52.0,274.0 53.1,273.8 54.2,273.6 55.3,273.4 56.4,273.1 57.5,272.9 58.6,272.7 59.7,272.4 60.8,272.2 61.8,271.9 62.9,271.7 64.0,271.4 65.1,271.2 66.2,270.9 67.3,270.6 68.4,270.3 69.5,270.1 70.6,269.8 71.7,269.5 72.8,269.2 73.9,268.9 75.0,268.6 76.1,268.3 77.2,268.0 78.3,267.6 79.4,267.3 80.4,267.0 81.5,266.7 82.6,266.3 83.7,266.0 84.8,265.6 85.9,265.3 87.0,264.9 88.1,264.6 89.2,264.2 90.3,263.8 91.4,263.4 92.5,263.1 93.6,262.7 94.7,262.3 95.8,261.9 96.9,261.5 98.0,261.1 99.0,260.7 100.1,260.3 101.2,259.9 102.3,259.4 103.4,259.0 104.5,258.6 105.6,258.1 106.7,257.7 107.8,257.2 108.9,256.8 110.0,256.3 111.1,255.9 112.2,255.4 113.3,255.0 114.4,254.5 115.5,254.0 116.6,253.5 117.6,253.0 118.7,252.5 119.8,252.0 120.9,251.5 122.0,251.0 123.1,250.5 124.2,250.0 125.3,249.5 126.4,249.0 127.5,248.4 128.6,247.9 129.7,247.3 130.8,246.8 131.9,246.3 133.0,245.7 134.1,245.1 135.2,244.6 136.2,244.0 137.3,243.4 138.4,242.9 139.5,242.3 140.6,241.7 141.7,241.1 142.8,240.5 143.9,239.9 145.0,239.3 146.1,238.7 147.2,238.1 148.3,237.5 149.4,236.8 150.5,236.2 151.6,235.6 152.7,234.9 153.8,234.3 154.8,233.6 155.9,233.0 157.0,232.3 158.1,231.7 159.2,231.0 160.3,230.3 161.4,229.7 162.5,229.0 163.6,228.3 164.7,227.6 165.8,226.9 166.9,226.2 168.0,225.5 169.1,224.8 170.2,224.1 171.3,223.4 172.4,222.6 173.4,221.9 174.5,221.2 175.6,220.4 176.7,219.7 177.8,218.9 178.9,218.2 180.0,217.4 181.1,216.7 182.2,215.9 183.3,215.1 184.4,214.4 185.5,213.6 186.6,212.8 187.7,212.0 188.8,211.2 189.9,210.4 191.0,209.6 192.0,208.8 193.1,208.0 194.2,207.2 195.3,206.4 196.4,205.5 197.5,204.7 198.6,203.9 199.7,203.0 200.8,202.2 201.9,201.3 203.0,200.5 204.1,199.6 205.2,198.8 206.3,197.9 207.4,197.0 208.5,196.1 209.6,195.3 210.6,194.4 211.7,193.5 212.8,192.6 213.9,191.7 215.0,190.8 216.1,189.9 217.2,189.0 218.3,188.0 219.4,187.1 220.5,186.2 221.6,185.2 222.7,184.3 223.8,183.4 224.9,182.4 226.0,181.5 227.1,180.5 228.2,179.5 229.2,178.6 230.3,177.6 231.4,176.6 232.5,175.6 233.6,174.7 234.7,173.7 235.8,172.7 236.9,171.7 238.0,170.7 239.1,169.7 240.2,168.6 241.3,167.6 242.4,166.6 243.5,165.6 244.6,164.5 245.7,163.5 246.8,162.5 247.8,161.4 248.9,160.4 250.0,159.3 251.1,158.2 252.2,157.2 253.3,156.1 254.4,155.0 255.5,154.0 256.6,152.9 257.7,151.8 258.8,150.7 259.9,149.6 261.0,148.5 262.1,147.4 263.2,146.3 264.3,145.2 265.4,144.1 266.4,143.0 267.5,142.0 268.6,140.9 269.7,139.8 270.8,138.8 271.9,137.7 273.0,136.7 274.1,135.6 275.2,134.6 276.3,133.6 277.4,132.5 278.5,131.5 279.6,130.5 280.7,129.5 281.8,128.5 282.9,127.5 284.0,126.5 285.0,125.6 286.1,124.6 287.2,123.6 288.3,122.6 289.4,121.7 290.5,120.7 291.6,119.8 292.7,118.8 293.8,117.9 294.9,117.0 296.0,116.0 297.1,115.1 298.2,114.2 299.3,113.3 300.4,112.4 301.5,111.5 302.6,110.6 303.6,109.7 304.7,108.9 305.8,108.0 306.9,107.1 308.0,106.3 309.1,105.4 310.2,104.5 311.3,103.7 312.4,102.9 313.5,102.0 314.6,101.2 315.7,100.4 316.8,99.6 317.9,98.8 319.0,98.0 320.1,97.2 321.2,96.4 322.2,95.6 323.3,94.8 324.4,94.0 325.5,93.2 326.6,92.5 327.7,91.7 328.8,91.0 329.9,90.2 331.0,89.5 332.1,88.7 333.2,88.0 334.3,87.3 335.4,86.6 336.5,85.9 337.6,85.2 338.7,84.5 339.8,83.8 340.8,83.1 341.9,82.4 343.0,81.7 344.1,81.0 345.2,80.4 346.3,79.7 347.4,79.1 348.5,78.4 349.6,77.8 350.7,77.1 351.8,76.5 352.9,75.9 354.0,75.2 355.1,74.6 356.2,74.0 357.3,73.4 358.4,72.8 359.4,72.2 360.5,71.6 361.6,71.1 362.7,70.5 363.8,69.9 364.9,69.4 366.0,68.8 367.1,68.2 368.2,67.7 369.3,67.2 370.4,66.6 371.5,66.1 372.6,65.6 373.7,65.1 374.8,64.5 375.9,64.0 377.0,63.5 378.0,63.0 379.1,62.6 380.2,62.1 381.3,61.6 382.4,61.1 383.5,60.7 384.6,60.2 385.7,59.7 386.8,59.3 387.9,58.9 389.0,58.4 390.1,58.0 391.2,57.6 392.3,57.1 393.4,56.7 394.5,56.3 395.6,55.9 396.6,55.5 397.7,55.1 398.8,54.7 399.9,54.4 401.0,54.0 402.1,53.6 403.2,53.3 404.3,52.9 405.4,52.6 406.5,52.2 407.6,51.9 408.7,51.5 409.8,51.2 410.9,50.9 412.0,50.6 413.1,50.3 414.2,50.0 415.2,49.7 416.3,49.4 417.4,49.1 418.5,48.8 419.6,48.5 420.7,48.2 421.8,48.0 422.9,47.7 424.0,47.5 425.1,47.2 426.2,47.0 427.3,46.7 428.4,46.5 429.5,46.3 430.6,46.1 431.7,45.9 432.8,45.6 433.8,45.4 434.9,45.2 436.0,45.1 437.1,44.9 438.2,44.7 439.3,44.5 440.4,44.4 441.5,44.2 442.6,44.0 443.7,43.9 444.8,43.7 445.9,43.6 447.0,43.5 448.1,43.3 449.2,43.2 450.3,43.1 451.4,43.0 452.4,42.9 453.5,42.8 454.6,42.7 455.7,42.6 456.8,42.5 457.9,42.5 459.0,42.4 460.1,42.3 461.2,42.3 462.3,42.2 463.4,42.2 464.5,42.1 465.6,42.1 466.7,42.1 467.8,42.0 468.9,42.0 470.0,42.0 471.0,42.0 472.1,42.0 473.2,42.0 474.3,42.0 475.4,42.0 476.5,42.1 477.6,42.1 478.7,42.1 479.8,42.2 480.9,42.2 482.0,42.3 483.1,42.3 484.2,42.4 485.3,42.4 486.4,42.5 487.5,42.6 488.6,42.7 489.6,42.8 490.7,42.9 491.8,43.0 492.9,43.1 494.0,43.2 495.1,43.3 496.2,43.4 497.3,43.6 498.4,43.7 499.5,43.8 500.6,44.0 501.7,44.1 502.8,44.3 503.9,44.5 505.0,44.6 506.1,44.8 507.2,45.0 508.2,45.2 509.3,45.4 510.4,45.6 511.5,45.8 512.6,46.0 513.7,46.2 514.8,46.4 515.9,46.7 517.0,46.9 518.1,47.1 519.2,47.3 520.3,47.5 521.4,47.7 522.5,47.9 523.6,48.1 524.7,48.3 525.8,48.6 526.8,48.8 527.9,49.0 529.0,49.2 530.1,49.3 531.2,49.5 532.3,49.7 533.4,49.9 534.5,50.1 535.6,50.3 536.7,50.5 537.8,50.7 538.9,50.9 540.0,51.1 541.1,51.2 542.2,51.4 543.3,51.6 544.4,51.8 545.4,51.9 546.5,52.1 547.6,52.3 548.7,52.5 549.8,52.6 550.9,52.8 552.0,53.0 553.1,53.1 554.2,53.3 555.3,53.5 556.4,53.6 557.5,53.8 558.6,53.9 559.7,54.1 560.8,54.2 561.9,54.4 563.0,54.5 564.0,54.7 565.1,54.8 566.2,55.0 567.3,55.1 568.4,55.3 569.5,55.4 570.6,55.6 571.7,55.7 572.8,55.8 573.9,56.0 575.0,56.1 576.1,56.2 577.2,56.4 578.3,56.5 579.4,56.6 580.5,56.7 581.6,56.9 582.6,57.0 583.7,57.1 584.8,57.2 585.9,57.3 587.0,57.5 588.1,57.6 589.2,57.7 590.3,57.8 591.4,57.9 592.5,58.0 593.6,58.1 594.7,58.2 595.8,58.3 596.9,58.4 598.0,58.5 599.1,58.6 600.2,58.7 601.2,58.8 602.3,58.9 603.4,59.0 604.5,59.1 605.6,59.2 606.7,59.3 607.8,59.4 608.9,59.5 610.0,59.5 611.1,59.6 612.2,59.7 613.3,59.8 614.4,59.9 615.5,59.9 616.6,60.0 617.7,60.1 618.8,60.1 619.8,60.2 620.9,60.3 622.0,60.4 623.1,60.4 624.2,60.5 625.3,60.5 626.4,60.6 627.5,60.7 628.6,60.7 629.7,60.8 630.8,60.8 631.9,60.9 633.0,60.9 634.1,61.0 635.2,61.0 636.3,61.1 637.4,61.1 638.4,61.2 639.5,61.2 640.6,61.2 641.7,61.3 642.8,61.3 643.9,61.3 645.0,61.4 646.1,61.4 647.2,61.4 648.3,61.5 649.4,61.5 650.5,61.5 651.6,61.5 652.7,61.6 653.8,61.6 654.9,61.6 656.0,61.6 657.0,61.6 658.1,61.6 659.2,61.7 660.3,61.7 661.4,61.7 662.5,61.7 663.6,61.7 664.7,61.7 665.8,61.7 666.9,61.7 668.0,61.7 669.1,61.7 670.2,61.7 671.3,61.7 672.4,61.7 673.5,61.7 674.6,61.7 675.6,61.7 676.7,61.7 677.8,61.6 678.9,61.6 680.0,61.6 681.1,61.6 682.2,61.6 683.3,61.5 684.4,61.5 685.5,61.5 686.6,61.5 687.7,61.4 688.8,61.4 689.9,61.4 691.0,61.4 692.1,61.3 693.2,61.3 694.2,61.2 695.3,61.2 696.4,61.2 697.5,61.1 698.6,61.1 699.7,61.0 700.8,61.0 701.9,60.9 703.0,60.9 704.1,60.8 705.2,60.8 706.3,60.7 707.4,60.7 708.5,60.6 709.6,60.6 710.7,60.5 711.8,60.4 712.8,60.4 713.9,60.3 715.0,60.2 716.1,60.2 717.2,60.1 718.3,60.0 719.4,60.0 720.5,59.9 721.6,59.8 722.7,59.7 723.8,59.6 724.9,59.6 726.0,59.5 727.1,59.4 728.2,59.3 729.3,59.2 730.4,59.1 731.4,59.0 732.5,59.0 733.6,58.9 734.7,58.8 735.8,58.7 736.9,58.6 738.0,58.5 739.1,58.4 740.2,58.3 741.3,58.2 742.4,58.1 743.5,57.9 744.6,57.8 745.7,57.7 746.8,57.6 747.9,57.5 749.0,57.4 750.0,57.3 751.1,57.1 752.2,57.0 753.3,56.9 754.4,56.8 755.5,56.7 756.6,56.5 757.7,56.4 758.8,56.3 759.9,56.1 761.0,56.0 762.1,55.9 763.2,55.7 764.3,55.6 765.4,55.5 766.5,55.3 767.6,55.2 768.6,55.0 769.7,54.9 770.8,54.7 771.9,54.6 773.0,54.4 774.1,54.3 775.2,54.1 776.3,54.0 777.4,53.8 778.5,53.7 779.6,53.5 780.7,53.4 781.8,53.2 782.9,53.0 784.0,52.9 785.1,52.7 786.2,52.5 787.2,52.4 788.3,52.2 789.4,52.0 790.5,51.8 791.6,51.7 792.7,51.5 793.8,51.3 794.9,51.1 796.0,50.9"/>
<text x="640" y="56" font-family="Arial" font-size="12" fill="#0f766e">Truth altitude</text>
</svg>