<svg xmlns="http://www.w3.org/2000/svg" width="820" height="320" viewBox="0 0 820 320">
<rect width="100%" height="100%" fill="white"/>
<text x="52" y="30" font-family="Arial" font-size="18" font-weight="700">robust_dropout_robust accelerometer bias estimates</text>
<line x1="52" y1="274" x2="796" y2="274" stroke="#263238"/>
<line x1="52" y1="42" x2="52" y2="274" stroke="#263238"/>
<text x="52" y="306" font-family="Arial" font-size="12">time (s)</text>
<text x="630" y="306" font-family="Arial" font-size="12">m/s^2</text>

<polyline fill="none" stroke="#0f766e" stroke-width="2.3" points="52.0,206.0 53.1,206.0 54.2,206.0 55.3,206.0 56.4,206.0 57.5,206.0 58.6,206.0 59.7,206.0 60.8,206.0 61.8,206.0 62.9,206.0 64.0,206.0 65.1,206.0 66.2,204.2 67.3,204.2 68.4,204.2 69.5,204.2 70.6,204.2 71.7,204.2 72.8,204.2 73.9,204.2 75.0,137.2 76.1,137.2 77.2,137.2 78.3,134.1 79.4,134.1 80.4,134.1 81.5,134.1 82.6,134.1 83.7,95.9 84.8,95.9 85.9,95.9 87.0,155.2 88.1,155.2 89.2,155.2 90.3,155.2 91.4,155.2 92.5,263.0 93.6,263.0 94.7,263.0 95.8,211.0 96.9,211.0 98.0,211.0 99.0,211.0 100.1,219.1 101.2,219.1 102.3,219.1 103.4,219.1 104.5,219.1 105.6,180.1 106.7,180.1 107.8,180.1 108.9,171.7 110.0,171.7 111.1,171.7 112.2,171.7 113.3,171.7 114.4,190.2 115.5,190.2 116.6,190.2 117.6,190.2 118.7,208.1 119.8,208.1 120.9,208.1 122.0,193.6 123.1,193.6 124.2,193.6 125.3,193.6 126.4,193.6 127.5,193.4 128.6,193.4 129.7,193.4 130.8,193.4 131.9,194.1 133.0,194.1 134.1,194.1 135.2,194.1 136.2,176.0 137.3,176.0 138.4,176.0 139.5,197.5 140.6,197.5 141.7,197.5 142.8,197.5 143.9,197.5 145.0,189.2 146.1,189.2 147.2,189.2 148.3,189.2 149.4,188.6 150.5,188.6 151.6,188.6 152.7,188.6 153.8,183.8 154.8,183.8 155.9,183.8 157.0,183.8 158.1,183.9 159.2,183.9 160.3,183.9 161.4,183.9 162.5,181.8 163.6,181.8 164.7,181.8 165.8,181.8 166.9,184.8 168.0,184.8 169.1,184.8 170.2,181.1 171.3,181.1 172.4,181.1 173.4,181.1 174.5,181.1 175.6,176.4 176.7,176.4 177.8,176.4 178.9,176.4 180.0,177.2 181.1,177.2 182.2,177.2 183.3,177.1 184.4,174.5 185.5,174.5 186.6,174.5 187.7,174.5 188.8,172.4 189.9,172.4 191.0,172.4 192.0,176.8 193.1,176.8 194.2,176.8 195.3,176.8 196.4,179.3 197.5,179.3 198.6,179.3 199.7,179.3 200.8,176.9 201.9,176.9 203.0,176.9 204.1,176.9 205.2,176.9 206.3,181.9 207.4,181.9 208.5,181.9 209.6,179.6 210.6,179.6 211.7,179.6 212.8,179.6 213.9,179.6 215.0,181.4 216.1,181.4 217.2,181.4 218.3,181.7 219.4,181.7 220.5,181.7 221.6,181.7 222.7,181.7 223.8,183.6 224.9,183.6 226.0,183.6 227.1,183.5 228.2,186.8 229.2,186.8 230.3,186.8 231.4,186.8 232.5,186.8 233.6,186.8 234.7,186.8 235.8,186.8 236.9,182.2 238.0,182.2 239.1,182.2 240.2,182.2 241.3,180.6 242.4,180.6 243.5,180.6 244.6,180.6 245.7,183.0 246.8,183.0 247.8,183.0 248.9,183.0 250.0,183.5 251.1,183.5 252.2,183.5 253.3,183.5 254.4,183.5 255.5,183.5 256.6,183.5 257.7,180.6 258.8,180.6 259.9,180.6 261.0,180.6 262.1,180.6 263.2,180.9 264.3,180.9 265.4,180.9 266.4,180.9 267.5,180.9 268.6,180.9 269.7,180.9 270.8,180.9 271.9,180.9 273.0,180.9 274.1,180.9 275.2,180.9 276.3,182.3 277.4,182.3 278.5,182.3 279.6,181.0 280.7,181.0 281.8,181.0 282.9,181.0 284.0,180.7 285.0,180.7 286.1,180.7 287.2,180.7 288.3,180.7 289.4,180.3 290.5,180.3 291.6,180.3 292.7,185.4 293.8,185.4 294.9,185.4 296.0,185.4 297.1,185.4 298.2,188.9 299.3,188.9 300.4,188.9 301.5,188.9 302.6,187.1 303.6,187.1 304.7,187.1 305.8,187.1 306.9,187.1 308.0,187.1 309.1,187.1 310.2,185.9 311.3,185.9 312.4,185.9 313.5,185.9 314.6,182.7 315.7,182.7 316.8,182.7 317.9,182.7 319.0,187.6 320.1,187.6 321.2,187.6 322.2,187.6 323.3,182.8 324.4,182.8 325.5,182.8 326.6,182.8 327.7,183.2 328.8,183.2 329.9,183.2 331.0,183.2 332.1,186.1 333.2,186.1 334.3,186.1 335.4,186.1 336.5,186.1 337.6,186.0 338.7,186.0 339.8,186.0 340.8,185.1 341.9,185.1 343.0,185.1 344.1,185.1 345.2,185.1 346.3,187.2 347.4,187.2 348.5,187.2 349.6,182.6 350.7,182.6 351.8,182.6 352.9,182.6 354.0,186.5 355.1,186.5 356.2,186.5 357.3,186.5 358.4,180.7 359.4,180.7 360.5,180.7 361.6,180.7 362.7,180.7 363.8,183.7 364.9,183.7 366.0,183.7 367.1,184.5 368.2,184.5 369.3,184.5 370.4,184.5 371.5,187.2 372.6,187.2 373.7,187.2 374.8,187.2 375.9,189.5 377.0,189.5 378.0,189.5 379.1,189.5 380.2,189.5 381.3,187.6 382.4,187.6 383.5,187.6 384.6,187.6 385.7,188.1 386.8,188.1 387.9,188.1 389.0,188.1 390.1,186.6 391.2,186.6 392.3,186.6 393.4,189.6 394.5,189.6 395.6,189.6 396.6,189.6 397.7,189.6 398.8,189.2 399.9,189.2 401.0,189.2 402.1,188.4 403.2,188.4 404.3,188.4 405.4,188.4 406.5,188.4 407.6,183.3 408.7,183.3 409.8,183.3 410.9,185.5 412.0,185.5 413.1,185.5 414.2,185.5 415.2,185.2 416.3,185.2 417.4,185.2 418.5,185.2 419.6,183.3 420.7,183.3 421.8,183.3 422.9,183.3 424.0,183.0 425.1,183.0 426.2,183.0 427.3,183.0 428.4,182.2 429.5,182.2 430.6,182.2 431.7,182.2 432.8,186.0 433.8,186.0 434.9,186.0 436.0,186.0 437.1,184.4 438.2,184.4 439.3,184.4 440.4,184.4 441.5,184.4 442.6,183.2 443.7,183.2 444.8,183.2 445.9,189.0 447.0,189.0 448.1,189.0 449.2,189.0 450.3,193.8 451.4,193.8 452.4,193.8 453.5,193.8 454.6,191.2 455.7,191.2 456.8,191.2 457.9,191.2 459.0,191.2 460.1,190.3 461.2,190.3 462.3,190.3 463.4,190.3 464.5,190.7 465.6,190.7 466.7,190.7 467.8,190.7 468.9,193.1 470.0,193.1 471.0,193.1 472.1,193.1 473.2,193.7 474.3,193.7 475.4,193.7 476.5,189.8 477.6,189.8 478.7,189.8 479.8,189.8 480.9,187.0 482.0,187.0 483.1,187.0 484.2,187.0 485.3,187.0 486.4,187.0 487.5,187.0 488.6,187.0 489.6,187.0 490.7,185.0 491.8,185.0 492.9,185.0 494.0,187.5 495.1,187.5 496.2,187.5 497.3,187.5 498.4,185.5 499.5,185.5 500.6,185.5 501.7,185.5 502.8,185.6 503.9,185.6 505.0,185.6 506.1,185.6 507.2,185.6 508.2,186.6 509.3,186.6 510.4,186.6 511.5,186.9 512.6,186.9 513.7,186.9 514.8,186.9 515.9,189.3 517.0,189.3 518.1,189.3 519.2,189.3 520.3,189.3 521.4,185.5 522.5,185.5 523.6,185.5 524.7,185.8 525.8,185.8 526.8,185.8 527.9,185.8 529.0,184.0 530.1,184.0 531.2,184.0 532.3,184.0 533.4,183.5 534.5,183.5 535.6,183.5 536.7,183.5 537.8,183.5 538.9,182.5 540.0,182.5 541.1,182.5 542.2,182.5 543.3,183.2 544.4,183.2 545.4,183.2 546.5,182.8 547.6,182.8 548.7,182.8 549.8,182.8 550.9,182.8 552.0,188.0 553.1,188.0 554.2,188.0 555.3,188.1 556.4,188.1 557.5,188.1 558.6,188.1 559.7,188.5 560.8,188.5 561.9,188.5 563.0,188.5 564.0,188.6 565.1,188.6 566.2,188.6 567.3,188.6 568.4,188.6 569.5,188.6 570.6,188.6 571.7,188.6 572.8,188.6 573.9,187.8 575.0,187.8 576.1,187.8 577.2,187.7 578.3,187.7 579.4,187.7 580.5,187.7 581.6,187.7 582.6,185.5 583.7,185.5 584.8,185.5 585.9,185.5 587.0,186.3 588.1,186.3 589.2,186.3 590.3,186.3 591.4,187.3 592.5,187.3 593.6,187.3 594.7,187.3 595.8,187.1 596.9,187.1 598.0,187.1 599.1,187.1 600.2,188.6 601.2,188.6 602.3,188.6 603.4,188.6 604.5,188.5 605.6,188.5 606.7,188.5 607.8,188.3 608.9,188.3 610.0,188.3 611.1,188.3 612.2,188.3 613.3,186.6 614.4,186.6 615.5,186.6 616.6,186.3 617.7,186.3 618.8,186.3 619.8,186.3 620.9,186.3 622.0,187.1 623.1,187.1 624.2,187.1 625.3,187.1 626.4,187.9 627.5,187.9 628.6,187.9 629.7,187.9 630.8,187.6 631.9,187.6 633.0,187.6 634.1,187.6 635.2,187.6 636.3,187.6 637.4,187.6 638.4,189.7 639.5,189.7 640.6,189.7 641.7,189.7 642.8,187.2 643.9,187.2 645.0,187.2 646.1,187.2 647.2,186.7 648.3,186.7 649.4,186.7 650.5,186.7 651.6,187.5 652.7,187.5 653.8,187.5 654.9,187.5 656.0,187.5 657.0,188.4 658.1,188.4 659.2,188.4 660.3,188.4 661.4,188.2 662.5,188.2 663.6,188.2 664.7,185.7 665.8,185.7 666.9,185.7 668.0,185.7 669.1,186.7 670.2,186.7 671.3,186.7 672.4,186.7 673.5,187.4 674.6,187.4 675.6,187.4 676.7,187.4 677.8,187.4 678.9,188.0 680.0,188.0 681.1,188.0 682.2,188.0 683.3,186.2 684.4,186.2 685.5,186.2 686.6,186.3 687.7,186.3 688.8,186.3 689.9,186.3 691.0,186.3 692.1,188.1 693.2,188.1 694.2,188.1 695.3,187.0 696.4,187.0 697.5,187.0 698.6,187.0 699.7,186.9 700.8,186.9 701.9,186.9 703.0,186.9 704.1,186.9 705.2,187.2 706.3,187.2 707.4,187.2 708.5,185.1 709.6,185.1 710.7,185.1 711.8,185.1 712.8,186.2 713.9,186.2 715.0,186.2 716.1,186.2 717.2,186.2 718.3,185.6 719.4,185.6 720.5,185.6 721.6,185.6 722.7,185.9 723.8,185.9 724.9,185.9 726.0,184.1 727.1,184.1 728.2,184.1 729.3,184.1 730.4,185.6 731.4,185.6 732.5,185.6 733.6,185.6 734.7,186.1 735.8,186.1 736.9,186.1 738.0,186.1 739.1,186.1 740.2,185.0 741.3,185.0 742.4,185.0 743.5,185.0 744.6,186.7 745.7,186.7 746.8,186.7 747.9,183.6 749.0,183.6 750.0,183.6 751.1,183.6 752.2,183.6 753.3,183.9 754.4,183.9 755.5,183.9 756.6,182.0 757.7,182.0 758.8,182.0 759.9,182.0 761.0,182.0 762.1,180.6 763.2,180.6 764.3,180.6 765.4,182.7 766.5,182.7 767.6,182.7 768.6,182.7 769.7,182.7 770.8,185.2 771.9,185.2 773.0,185.2 774.1,185.8 775.2,185.8 776.3,185.8 777.4,185.8 778.5,183.4 779.6,183.4 780.7,183.4 781.8,183.4 782.9,184.9 784.0,184.9 785.1,184.9 786.2,184.9 787.2,187.3 788.3,187.3 789.4,187.3 790.5,187.3 791.6,187.3 792.7,186.1 793.8,186.1 794.9,186.1 796.0,186.5"/>
<text x="640" y="56" font-family="Arial" font-size="12" fill="#0f766e">bax</text>
<polyline fill="none" stroke="#2563eb" stroke-width="2.3" points="52.0,206.0 53.1,206.0 54.2,206.0 55.3,206.0 56.4,206.0 57.5,206.0 58.6,206.0 59.7,206.0 60.8,206.0 61.8,206.0 62.9,206.0 64.0,206.0 65.1,206.0 66.2,207.3 67.3,207.3 68.4,207.3 69.5,207.3 70.6,207.3 71.7,207.3 72.8,207.3 73.9,207.3 75.0,274.0 76.1,274.0 77.2,274.0 78.3,219.0 79.4,219.0 80.4,219.0 81.5,219.0 82.6,219.0 83.7,244.0 84.8,244.0 85.9,244.0 87.0,190.9 88.1,190.9 89.2,190.9 90.3,190.9 91.4,190.9 92.5,247.2 93.6,247.2 94.7,247.2 95.8,214.3 96.9,214.3 98.0,214.3 99.0,214.3 100.1,201.9 101.2,201.9 102.3,201.9 103.4,201.9 104.5,201.9 105.6,265.7 106.7,265.7 107.8,265.7 108.9,252.9 110.0,252.9 111.1,252.9 112.2,252.9 113.3,252.9 114.4,254.9 115.5,254.9 116.6,254.9 117.6,254.9 118.7,253.2 119.8,253.2 120.9,253.2 122.0,240.0 123.1,240.0 124.2,240.0 125.3,240.0 126.4,240.0 127.5,236.6 128.6,236.6 129.7,236.6 130.8,236.6 131.9,236.4 133.0,236.4 134.1,236.4 135.2,236.4 136.2,238.2 137.3,238.2 138.4,238.2 139.5,248.0 140.6,248.0 141.7,248.0 142.8,248.0 143.9,248.0 145.0,239.2 146.1,239.2 147.2,239.2 148.3,239.2 149.4,245.5 150.5,245.5 151.6,245.5 152.7,245.5 153.8,241.7 154.8,241.7 155.9,241.7 157.0,241.7 158.1,238.6 159.2,238.6 160.3,238.6 161.4,238.6 162.5,248.6 163.6,248.6 164.7,248.6 165.8,248.6 166.9,246.1 168.0,246.1 169.1,246.1 170.2,239.4 171.3,239.4 172.4,239.4 173.4,239.4 174.5,239.4 175.6,232.0 176.7,232.0 177.8,232.0 178.9,232.0 180.0,236.1 181.1,236.1 182.2,236.1 183.3,235.9 184.4,227.9 185.5,227.9 186.6,227.9 187.7,227.9 188.8,228.9 189.9,228.9 191.0,228.9 192.0,228.0 193.1,228.0 194.2,228.0 195.3,228.0 196.4,230.0 197.5,230.0 198.6,230.0 199.7,230.0 200.8,225.8 201.9,225.8 203.0,225.8 204.1,225.8 205.2,225.8 206.3,224.7 207.4,224.7 208.5,224.7 209.6,223.7 210.6,223.7 211.7,223.7 212.8,223.7 213.9,223.7 215.0,218.0 216.1,218.0 217.2,218.0 218.3,222.2 219.4,222.2 220.5,222.2 221.6,222.2 222.7,222.2 223.8,223.9 224.9,223.9 226.0,223.9 227.1,224.0 228.2,223.4 229.2,223.4 230.3,223.4 231.4,220.8 232.5,220.8 233.6,220.8 234.7,220.8 235.8,220.8 236.9,222.0 238.0,222.0 239.1,222.0 240.2,222.0 241.3,221.7 242.4,221.7 243.5,221.7 244.6,221.7 245.7,226.6 246.8,226.6 247.8,226.6 248.9,226.6 250.0,221.4 251.1,221.4 252.2,221.4 253.3,221.4 254.4,222.6 255.5,222.6 256.6,222.6 257.7,224.3 258.8,224.3 259.9,224.3 261.0,224.3 262.1,224.3 263.2,224.0 264.3,224.0 265.4,224.0 266.4,224.0 267.5,224.0 268.6,224.0 269.7,224.0 270.8,223.8 271.9,223.8 273.0,223.8 274.1,223.8 275.2,223.8 276.3,227.4 277.4,227.4 278.5,227.4 279.6,227.0 280.7,227.0 281.8,227.0 282.9,227.0 284.0,221.3 285.0,221.3 286.1,221.3 287.2,221.3 288.3,221.3 289.4,221.6 290.5,221.6 291.6,221.6 292.7,221.6 293.8,221.6 294.9,221.6 296.0,221.6 297.1,221.6 298.2,221.1 299.3,221.1 300.4,221.1 301.5,221.1 302.6,223.4 303.6,223.4 304.7,223.4 305.8,224.2 306.9,224.2 308.0,224.2 309.1,224.2 310.2,223.9 311.3,223.9 312.4,223.9 313.5,223.9 314.6,223.7 315.7,223.7 316.8,223.7 317.9,223.7 319.0,222.1 320.1,222.1 321.2,222.1 322.2,222.1 323.3,220.7 324.4,220.7 325.5,220.7 326.6,220.7 327.7,222.4 328.8,222.4 329.9,222.4 331.0,222.4 332.1,223.8 333.2,223.8 334.3,223.8 335.4,223.8 336.5,223.8 337.6,221.5 338.7,221.5 339.8,221.5 340.8,225.7 341.9,225.7 343.0,225.7 344.1,225.7 345.2,225.7 346.3,223.2 347.4,223.2 348.5,223.2 349.6,224.0 350.7,224.0 351.8,224.0 352.9,224.0 354.0,222.9 355.1,222.9 356.2,222.9 357.3,222.9 358.4,222.2 359.4,222.2 360.5,222.2 361.6,222.2 362.7,222.2 363.8,220.0 364.9,220.0 366.0,220.0 367.1,220.5 368.2,220.5 369.3,220.5 370.4,220.5 371.5,223.2 372.6,223.2 373.7,223.2 374.8,223.2 375.9,218.2 377.0,218.2 378.0,218.2 379.1,218.2 380.2,218.2 381.3,224.2 382.4,224.2 383.5,224.2 384.6,224.2 385.7,227.0 386.8,227.0 387.9,227.0 389.0,227.0 390.1,221.2 391.2,221.2 392.3,221.2 393.4,217.9 394.5,217.9 395.6,217.9 396.6,217.9 397.7,217.9 398.8,221.1 399.9,221.1 401.0,221.1 402.1,219.5 403.2,219.5 404.3,219.5 405.4,219.5 406.5,219.5 407.6,223.2 408.7,223.2 409.8,223.2 410.9,223.1 412.0,223.1 413.1,223.1 414.2,223.1 415.2,223.2 416.3,223.2 417.4,223.2 418.5,223.2 419.6,223.4 420.7,223.4 421.8,223.4 422.9,223.4 424.0,223.0 425.1,223.0 426.2,223.0 427.3,223.0 428.4,225.3 429.5,225.3 430.6,225.3 431.7,225.3 432.8,225.6 433.8,225.6 434.9,225.6 436.0,225.6 437.1,227.2 438.2,227.2 439.3,227.2 440.4,227.2 441.5,227.2 442.6,224.2 443.7,224.2 444.8,224.2 445.9,230.5 447.0,230.5 448.1,230.5 449.2,230.5 450.3,224.4 451.4,224.4 452.4,224.4 453.5,224.4 454.6,222.5 455.7,222.5 456.8,222.5 457.9,222.5 459.0,222.5 460.1,215.9 461.2,215.9 462.3,215.9 463.4,215.9 464.5,221.2 465.6,221.2 466.7,221.2 467.8,221.2 468.9,219.9 470.0,219.9 471.0,219.9 472.1,219.9 473.2,221.3 474.3,221.3 475.4,221.3 476.5,220.1 477.6,220.1 478.7,220.1 479.8,220.1 480.9,221.8 482.0,221.8 483.1,221.8 484.2,221.8 485.3,224.2 486.4,224.2 487.5,224.2 488.6,224.2 489.6,224.2 490.7,223.6 491.8,223.6 492.9,223.6 494.0,225.5 495.1,225.5 496.2,225.5 497.3,225.5 498.4,227.0 499.5,227.0 500.6,227.0 501.7,227.0 502.8,228.1 503.9,228.1 505.0,228.1 506.1,228.1 507.2,228.1 508.2,229.9 509.3,229.9 510.4,229.9 511.5,229.3 512.6,229.3 513.7,229.3 514.8,229.3 515.9,229.0 517.0,229.0 518.1,229.0 519.2,229.0 520.3,229.0 521.4,232.3 522.5,232.3 523.6,232.3 524.7,230.0 525.8,230.0 526.8,230.0 527.9,230.0 529.0,227.4 530.1,227.4 531.2,227.4 532.3,227.4 533.4,226.3 534.5,226.3 535.6,226.3 536.7,226.3 537.8,226.3 538.9,220.9 540.0,220.9 541.1,220.9 542.2,220.9 543.3,223.3 544.4,223.3 545.4,223.3 546.5,224.9 547.6,224.9 548.7,224.9 549.8,224.9 550.9,224.9 552.0,226.0 553.1,226.0 554.2,226.0 555.3,226.6 556.4,226.6 557.5,226.6 558.6,226.6 559.7,226.4 560.8,226.4 561.9,226.4 563.0,226.4 564.0,227.1 565.1,227.1 566.2,227.1 567.3,227.1 568.4,227.1 569.5,227.1 570.6,227.1 571.7,227.1 572.8,227.1 573.9,225.8 575.0,225.8 576.1,225.8 577.2,225.8 578.3,225.8 579.4,225.8 580.5,225.8 581.6,225.8 582.6,224.6 583.7,224.6 584.8,224.6 585.9,224.6 587.0,227.4 588.1,227.4 589.2,227.4 590.3,227.4 591.4,227.1 592.5,227.1 593.6,227.1 594.7,227.1 595.8,229.5 596.9,229.5 598.0,229.5 599.1,229.5 600.2,227.8 601.2,227.8 602.3,227.8 603.4,227.8 604.5,223.9 605.6,223.9 606.7,223.9 607.8,223.9 608.9,223.9 610.0,223.9 611.1,223.9 612.2,223.9 613.3,223.6 614.4,223.6 615.5,223.6 616.6,224.3 617.7,224.3 618.8,224.3 619.8,224.3 620.9,224.3 622.0,223.1 623.1,223.1 624.2,223.1 625.3,223.1 626.4,221.3 627.5,221.3 628.6,221.3 629.7,221.3 630.8,219.7 631.9,219.7 633.0,219.7 634.1,219.7 635.2,219.7 636.3,219.7 637.4,219.7 638.4,222.8 639.5,222.8 640.6,222.8 641.7,222.8 642.8,221.6 643.9,221.6 645.0,221.6 646.1,221.6 647.2,225.4 648.3,225.4 649.4,225.4 650.5,225.4 651.6,226.0 652.7,226.0 653.8,226.0 654.9,226.0 656.0,226.0 657.0,228.1 658.1,228.1 659.2,228.1 660.3,228.1 661.4,224.2 662.5,224.2 663.6,224.2 664.7,225.1 665.8,225.1 666.9,225.1 668.0,225.1 669.1,224.0 670.2,224.0 671.3,224.0 672.4,224.0 673.5,223.2 674.6,223.2 675.6,223.2 676.7,223.2 677.8,223.2 678.9,223.6 680.0,223.6 681.1,223.6 682.2,223.6 683.3,221.8 684.4,221.8 685.5,221.8 686.6,221.0 687.7,221.0 688.8,221.0 689.9,221.0 691.0,221.0 692.1,220.3 693.2,220.3 694.2,220.3 695.3,221.5 696.4,221.5 697.5,221.5 698.6,221.5 699.7,222.4 700.8,222.4 701.9,222.4 703.0,222.4 704.1,222.4 705.2,222.3 706.3,222.3 707.4,222.3 708.5,223.0 709.6,223.0 710.7,223.0 711.8,223.0 712.8,224.3 713.9,224.3 715.0,224.3 716.1,224.3 717.2,224.3 718.3,222.8 719.4,222.8 720.5,222.8 721.6,222.8 722.7,223.9 723.8,223.9 724.9,223.9 726.0,225.6 727.1,225.6 728.2,225.6 729.3,225.6 730.4,224.4 731.4,224.4 732.5,224.4 733.6,224.4 734.7,223.7 735.8,223.7 736.9,223.7 738.0,223.7 739.1,223.7 740.2,221.3 741.3,221.3 742.4,221.3 743.5,221.3 744.6,221.9 745.7,221.9 746.8,221.9 747.9,222.3 749.0,222.3 750.0,222.3 751.1,222.3 752.2,222.2 753.3,222.5 754.4,222.5 755.5,222.5 756.6,221.7 757.7,221.7 758.8,221.7 759.9,221.7 761.0,221.7 762.1,222.3 763.2,222.3 764.3,222.3 765.4,225.4 766.5,225.4 767.6,225.4 768.6,225.4 769.7,225.4 770.8,224.5 771.9,224.5 773.0,224.5 774.1,223.3 775.2,223.3 776.3,223.3 777.4,223.3 778.5,225.9 779.6,225.9 780.7,225.9 781.8,225.9 782.9,227.5 784.0,227.5 785.1,227.5 786.2,227.5 787.2,227.8 788.3,227.8 789.4,227.8 790.5,227.8 791.6,227.8 792.7,226.4 793.8,226.4 794.9,226.4 796.0,226.1"/>
<text x="640" y="72" font-family="Arial" font-size="12" fill="#2563eb">bay</text>
<polyline fill="none" stroke="#b45309" stroke-width="2.3" points="52.0,206.0 53.1,206.0 54.2,206.0 55.3,206.0 56.4,206.0 57.5,206.0 58.6,206.0 59.7,206.0 60.8,206.0 61.8,206.0 62.9,208.1 64.0,208.1 65.1,208.1 66.2,198.4 67.3,198.4 68.4,198.4 69.5,198.4 70.6,198.4 71.7,198.4 72.8,198.4 73.9,198.0 75.0,162.6 76.1,162.6 77.2,146.7 78.3,113.0 79.4,111.4 80.4,111.4 81.5,111.4 82.6,109.7 83.7,140.1 84.8,143.0 85.9,143.0 87.0,76.1 88.1,76.0 89.2,76.0 90.3,76.0 91.4,74.2 92.5,42.0 93.6,43.1 94.7,43.1 95.8,67.0 96.9,66.2 98.0,66.2 99.0,66.9 100.1,153.9 101.2,153.9 102.3,153.4 103.4,153.4 104.5,153.4 105.6,139.6 106.7,140.2 107.8,139.7 108.9,192.6 110.0,191.2 111.1,191.2 112.2,191.2 113.3,191.7 114.4,223.2 115.5,223.2 116.6,223.2 117.6,224.7 118.7,213.1 119.8,213.1 120.9,216.6 122.0,215.9 123.1,214.4 124.2,214.4 125.3,214.4 126.4,215.7 127.5,220.4 128.6,222.7 129.7,222.7 130.8,222.7 131.9,218.1 133.0,218.1 134.1,218.1 135.2,217.0 136.2,193.1 137.3,192.2 138.4,192.2 139.5,179.9 140.6,177.6 141.7,177.6 142.8,179.4 143.9,179.4 145.0,183.8 146.1,184.5 147.2,184.5 148.3,182.3 149.4,172.7 150.5,172.7 151.6,172.7 152.7,172.7 153.8,180.6 154.8,180.6 155.9,180.6 157.0,178.7 158.1,171.3 159.2,171.3 160.3,171.6 161.4,168.4 162.5,176.0 163.6,176.0 164.7,175.3 165.8,175.3 166.9,181.2 168.0,181.2 169.1,181.2 170.2,185.6 171.3,185.6 172.4,184.3 173.4,184.3 174.5,184.3 175.6,186.2 176.7,186.2 177.8,186.0 178.9,186.0 180.0,187.6 181.1,187.6 182.2,187.6 183.3,186.9 184.4,189.6 185.5,189.6 186.6,189.2 187.7,189.2 188.8,184.7 189.9,185.0 191.0,185.0 192.0,189.2 193.1,189.2 194.2,190.3 195.3,191.1 196.4,189.0 197.5,188.0 198.6,188.0 199.7,188.0 200.8,190.8 201.9,190.5 203.0,190.5 204.1,190.5 205.2,190.1 206.3,187.5 207.4,187.5 208.5,187.4 209.6,187.1 210.6,187.1 211.7,185.6 212.8,185.6 213.9,185.2 215.0,186.6 216.1,185.7 217.2,186.0 218.3,183.3 219.4,182.8 220.5,182.8 221.6,183.3 222.7,183.3 223.8,185.2 224.9,184.7 226.0,184.7 227.1,184.7 228.2,183.4 229.2,183.4 230.3,183.4 231.4,185.1 232.5,186.0 233.6,186.0 234.7,185.6 235.8,185.6 236.9,191.3 238.0,191.4 239.1,191.7 240.2,191.7 241.3,192.8 242.4,192.8 243.5,192.7 244.6,192.7 245.7,192.1 246.8,191.7 247.8,191.7 248.9,191.5 250.0,189.4 251.1,189.4 252.2,188.7 253.3,188.7 254.4,188.5 255.5,188.0 256.6,188.0 257.7,192.5 258.8,192.5 259.9,192.6 261.0,192.6 262.1,192.6 263.2,191.6 264.3,191.6 265.4,191.6 266.4,191.4 267.5,191.4 268.6,190.7 269.7,190.7 270.8,189.1 271.9,189.1 273.0,189.1 274.1,188.1 275.2,188.1 276.3,190.4 277.4,190.2 278.5,190.2 279.6,188.0 280.7,188.0 281.8,187.4 282.9,187.4 284.0,187.7 285.0,187.0 286.1,187.0 287.2,187.0 288.3,186.1 289.4,184.6 290.5,184.6 291.6,184.6 292.7,186.2 293.8,186.2 294.9,186.2 296.0,186.4 297.1,186.4 298.2,186.2 299.3,186.0 300.4,186.0 301.5,185.4 302.6,188.6 303.6,188.5 304.7,187.7 305.8,186.8 306.9,186.8 308.0,187.2 309.1,187.2 310.2,188.5 311.3,188.5 312.4,188.6 313.5,188.6 314.6,189.6 315.7,189.6 316.8,189.6 317.9,189.6 319.0,188.9 320.1,189.2 321.2,189.2 322.2,189.2 323.3,188.1 324.4,188.1 325.5,187.8 326.6,187.8 327.7,188.5 328.8,188.5 329.9,188.5 331.0,188.9 332.1,191.4 333.2,191.4 334.3,190.6 335.4,190.6 336.5,191.8 337.6,189.8 338.7,189.8 339.8,189.3 340.8,191.6 341.9,192.4 343.0,192.4 344.1,192.4 345.2,192.4 346.3,192.1 347.4,192.4 348.5,192.4 349.6,189.7 350.7,189.8 351.8,189.8 352.9,189.8 354.0,191.6 355.1,191.6 356.2,191.2 357.3,191.2 358.4,193.3 359.4,193.3 360.5,193.3 361.6,193.5 362.7,193.5 363.8,191.7 364.9,191.7 366.0,191.7 367.1,191.0 368.2,191.0 369.3,191.0 370.4,191.1 371.5,190.8 372.6,191.3 373.7,191.3 374.8,190.7 375.9,194.9 377.0,194.9 378.0,195.1 379.1,195.1 380.2,195.1 381.3,192.8 382.4,192.8 383.5,192.8 384.6,192.9 385.7,189.9 386.8,188.9 387.9,188.9 389.0,188.4 390.1,189.4 391.2,189.5 392.3,189.5 393.4,187.5 394.5,187.3 395.6,187.3 396.6,187.3 397.7,187.3 398.8,188.1 399.9,187.7 401.0,187.7 402.1,188.9 403.2,188.6 404.3,188.6 405.4,188.0 406.5,188.0 407.6,188.9 408.7,188.9 409.8,188.9 410.9,192.7 412.0,192.7 413.1,192.5 414.2,192.3 415.2,194.3 416.3,195.0 417.4,195.0 418.5,194.5 419.6,194.8 420.7,194.8 421.8,194.9 422.9,194.9 424.0,192.3 425.1,192.3 426.2,192.3 427.3,193.0 428.4,197.0 429.5,197.0 430.6,196.8 431.7,196.8 432.8,198.4 433.8,198.4 434.9,199.0 436.0,198.5 437.1,192.7 438.2,192.3 439.3,192.3 440.4,192.3 441.5,192.6 442.6,191.0 443.7,190.8 444.8,190.8 445.9,197.2 447.0,197.5 448.1,197.5 449.2,197.4 450.3,198.8 451.4,198.7 452.4,198.7 453.5,198.7 454.6,196.3 455.7,196.3 456.8,196.6 457.9,196.3 459.0,196.3 460.1,195.4 461.2,195.4 462.3,195.4 463.4,195.2 464.5,193.6 465.6,193.9 466.7,193.9 467.8,194.2 468.9,194.3 470.0,194.3 471.0,194.3 472.1,194.3 473.2,193.4 474.3,193.4 475.4,193.4 476.5,189.8 477.6,189.8 478.7,190.0 479.8,190.2 480.9,190.0 482.0,189.5 483.1,189.5 484.2,190.0 485.3,189.5 486.4,189.5 487.5,189.4 488.6,189.4 489.6,189.1 490.7,189.4 491.8,189.4 492.9,189.4 494.0,188.4 495.1,188.4 496.2,188.2 497.3,188.2 498.4,189.4 499.5,189.4 500.6,189.9 501.7,189.9 502.8,189.2 503.9,189.5 505.0,189.5 506.1,189.5 507.2,188.8 508.2,192.3 509.3,192.4 510.4,192.4 511.5,190.6 512.6,190.6 513.7,190.6 514.8,191.0 515.9,188.4 517.0,188.6 518.1,188.6 519.2,188.6 520.3,188.7 521.4,185.7 522.5,185.3 523.6,185.5 524.7,182.8 525.8,182.7 526.8,182.7 527.9,182.7 529.0,180.2 530.1,180.2 531.2,180.4 532.3,180.4 533.4,182.9 534.5,183.0 535.6,183.0 536.7,183.5 537.8,183.5 538.9,181.2 540.0,181.1 541.1,181.1 542.2,180.8 543.3,179.2 544.4,179.4 545.4,179.7 546.5,177.0 547.6,177.6 548.7,177.6 549.8,177.6 550.9,178.5 552.0,179.1 553.1,178.7 554.2,178.7 555.3,179.2 556.4,179.2 557.5,179.2 558.6,179.1 559.7,177.5 560.8,177.9 561.9,177.9 563.0,177.0 564.0,178.4 565.1,178.4 566.2,178.2 567.3,178.2 568.4,178.2 569.5,181.9 570.6,181.9 571.7,182.3 572.8,182.3 573.9,182.8 575.0,183.3 576.1,183.3 577.2,183.3 578.3,183.3 579.4,183.3 580.5,183.5 581.6,183.5 582.6,186.7 583.7,186.7 584.8,186.5 585.9,186.5 587.0,189.2 588.1,189.8 589.2,189.8 590.3,189.8 591.4,193.6 592.5,193.6 593.6,193.5 594.7,193.5 595.8,190.0 596.9,189.7 598.0,189.7 599.1,189.9 600.2,187.5 601.2,187.5 602.3,187.0 603.4,187.0 604.5,184.8 605.6,184.5 606.7,184.5 607.8,182.8 608.9,182.8 610.0,183.1 611.1,183.1 612.2,183.1 613.3,181.9 614.4,181.9 615.5,182.8 616.6,183.4 617.7,183.4 618.8,183.5 619.8,183.5 620.9,183.2 622.0,187.4 623.1,187.4 624.2,187.8 625.3,187.8 626.4,190.7 627.5,190.5 628.6,190.5 629.7,190.5 630.8,187.9 631.9,187.6 633.0,187.6 634.1,187.6 635.2,186.5 636.3,186.5 637.4,186.5 638.4,185.4 639.5,185.4 640.6,185.4 641.7,185.4 642.8,184.4 643.9,184.4 645.0,184.4 646.1,184.4 647.2,181.6 648.3,182.4 649.4,182.4 650.5,182.4 651.6,180.3 652.7,180.3 653.8,180.1 654.9,180.2 656.0,180.2 657.0,180.2 658.1,180.2 659.2,180.2 660.3,180.2 661.4,181.4 662.5,181.5 663.6,181.5 664.7,184.4 665.8,184.6 666.9,184.6 668.0,184.6 669.1,182.7 670.2,182.0 671.3,182.0 672.4,182.0 673.5,181.8 674.6,181.8 675.6,182.1 676.7,182.1 677.8,182.1 678.9,185.3 680.0,185.3 681.1,185.5 682.2,185.5 683.3,186.9 684.4,186.8 685.5,186.8 686.6,186.3 687.7,186.3 688.8,186.3 689.9,186.4 691.0,186.4 692.1,185.9 693.2,186.3 694.2,186.3 695.3,188.1 696.4,188.1 697.5,188.2 698.6,188.6 699.7,188.0 700.8,188.2 701.9,188.2 703.0,188.3 704.1,188.3 705.2,187.2 706.3,187.5 707.4,187.5 708.5,188.3 709.6,188.4 710.7,188.4 711.8,188.7 712.8,188.5 713.9,188.5 715.0,188.4 716.1,188.4 717.2,188.7 718.3,187.9 719.4,187.9 720.5,187.8 721.6,187.8 722.7,189.8 723.8,189.8 724.9,190.5 726.0,190.1 727.1,190.1 728.2,190.4 729.3,190.4 730.4,188.6 731.4,188.5 732.5,188.5 733.6,188.3 734.7,189.2 735.8,189.2 736.9,189.2 738.0,189.2 739.1,189.0 740.2,190.0 741.3,190.2 742.4,190.1 743.5,190.1 744.6,190.8 745.7,190.8 746.8,190.8 747.9,189.3 749.0,189.3 750.0,189.1 751.1,189.1 752.2,189.1 753.3,190.1 754.4,190.1 755.5,190.2 756.6,188.7 757.7,188.6 758.8,188.6 759.9,188.6 761.0,188.5 762.1,188.4 763.2,188.5 764.3,188.2 765.4,187.5 766.5,187.5 767.6,187.5 768.6,187.5 769.7,187.4 770.8,189.3 771.9,189.4 773.0,189.4 774.1,187.5 775.2,187.5 776.3,187.5 777.4,187.5 778.5,188.7 779.6,188.5 780.7,188.5 781.8,188.5 782.9,189.9 784.0,189.9 785.1,190.1 786.2,190.1 787.2,190.8 788.3,190.8 789.4,190.8 790.5,190.9 791.6,190.9 792.7,190.9 793.8,190.9 794.9,190.9 796.0,189.6"/>
<text x="640" y="88" font-family="Arial" font-size="12" fill="#b45309">baz</text>
</svg>