<svg xmlns="http://www.w3.org/2000/svg" width="820" height="320" viewBox="0 0 820 320">
<rect width="100%" height="100%" fill="white"/>
<text x="52" y="30" font-family="Arial" font-size="18" font-weight="700">adaptive_dropout_robust accelerometer bias estimates</text>
<line x1="52" y1="274" x2="796" y2="274" stroke="#263238"/>
<line x1="52" y1="42" x2="52" y2="274" stroke="#263238"/>
<text x="52" y="306" font-family="Arial" font-size="12">time (s)</text>
<text x="630" y="306" font-family="Arial" font-size="12">m/s^2</text>

<polyline fill="none" stroke="#0f766e" stroke-width="2.3" points="52.0,194.0 53.1,194.0 54.2,194.0 55.3,194.0 56.4,194.0 57.5,194.0 58.6,194.0 59.7,194.0 60.8,194.0 61.8,194.0 62.9,194.0 64.0,194.0 65.1,194.0 66.2,192.3 67.3,192.3 68.4,192.3 69.5,192.3 70.6,192.3 71.7,192.3 72.8,192.3 73.9,192.3 75.0,126.5 76.1,126.5 77.2,126.5 78.3,123.5 79.4,123.5 80.4,123.5 81.5,123.5 82.6,123.5 83.7,86.0 84.8,86.0 85.9,86.0 87.0,148.2 88.1,148.2 89.2,148.2 90.3,148.2 91.4,148.2 92.5,273.2 93.6,273.2 94.7,273.2 95.8,209.7 96.9,209.7 98.0,209.7 99.0,209.7 100.1,212.9 101.2,212.9 102.3,212.9 103.4,212.9 104.5,212.9 105.6,167.9 106.7,167.9 107.8,167.9 108.9,158.3 110.0,158.3 111.1,158.3 112.2,158.3 113.3,158.3 114.4,177.7 115.5,177.7 116.6,177.7 117.6,177.7 118.7,197.8 119.8,197.8 120.9,197.8 122.0,179.9 123.1,179.9 124.2,179.9 125.3,179.9 126.4,179.9 127.5,179.8 128.6,179.8 129.7,179.8 130.8,179.8 131.9,180.8 133.0,180.8 134.1,180.8 135.2,180.8 136.2,159.8 137.3,159.8 138.4,159.8 139.5,185.7 140.6,185.7 141.7,185.7 142.8,185.7 143.9,185.7 145.0,175.7 146.1,175.7 147.2,175.7 148.3,175.7 149.4,175.2 150.5,175.2 151.6,175.2 152.7,175.2 153.8,169.8 154.8,169.8 155.9,169.8 157.0,169.8 158.1,170.4 159.2,170.4 160.3,170.4 161.4,170.4 162.5,168.3 163.6,168.3 164.7,168.3 165.8,168.3 166.9,172.1 168.0,172.1 169.1,172.1 170.2,167.9 171.3,167.9 172.4,167.9 173.4,167.9 174.5,167.9 175.6,162.7 176.7,162.7 177.8,162.7 178.9,162.7 180.0,164.1 181.1,164.1 182.2,164.1 183.3,164.0 184.4,161.3 185.5,161.3 186.6,161.3 187.7,161.3 188.8,159.1 189.9,159.1 191.0,159.1 192.0,165.0 193.1,165.0 194.2,165.0 195.3,165.0 196.4,168.1 197.5,168.1 198.6,168.1 199.7,168.1 200.8,164.8 201.9,164.8 203.0,164.8 204.1,164.8 205.2,164.8 206.3,171.2 207.4,171.2 208.5,171.2 209.6,168.0 210.6,168.0 211.7,168.0 212.8,168.0 213.9,168.0 215.0,170.1 216.1,170.1 217.2,170.1 218.3,170.2 219.4,170.2 220.5,170.2 221.6,170.2 222.7,170.2 223.8,172.5 224.9,172.5 226.0,172.5 227.1,172.4 228.2,176.2 229.2,176.2 230.3,176.2 231.4,175.8 232.5,175.8 233.6,175.8 234.7,175.8 235.8,175.8 236.9,169.2 238.0,169.2 239.1,169.2 240.2,169.2 241.3,167.2 242.4,167.2 243.5,167.2 244.6,167.2 245.7,171.4 246.8,171.4 247.8,171.4 248.9,171.4 250.0,172.0 251.1,172.0 252.2,172.0 253.3,172.0 254.4,171.9 255.5,171.9 256.6,171.9 257.7,167.4 258.8,167.4 259.9,167.4 261.0,167.4 262.1,167.4 263.2,168.4 264.3,168.4 265.4,168.4 266.4,168.4 267.5,168.4 268.6,168.4 269.7,168.4 270.8,168.4 271.9,168.4 273.0,168.4 274.1,168.4 275.2,168.4 276.3,170.8 277.4,170.8 278.5,170.8 279.6,168.8 280.7,168.8 281.8,168.8 282.9,168.8 284.0,168.5 285.0,168.5 286.1,168.5 287.2,168.5 288.3,168.5 289.4,168.0 290.5,168.0 291.6,168.0 292.7,175.5 293.8,175.5 294.9,175.5 296.0,175.5 297.1,175.5 298.2,180.1 299.3,180.1 300.4,180.1 301.5,180.1 302.6,176.3 303.6,176.3 304.7,176.3 305.8,176.0 306.9,176.0 308.0,176.0 309.1,176.0 310.2,173.8 311.3,173.8 312.4,173.8 313.5,173.8 314.6,169.1 315.7,169.1 316.8,169.1 317.9,169.1 319.0,177.1 320.1,177.1 321.2,177.1 322.2,177.1 323.3,169.3 324.4,169.3 325.5,169.3 326.6,169.3 327.7,170.4 328.8,170.4 329.9,170.4 331.0,170.4 332.1,175.3 333.2,175.3 334.3,175.3 335.4,175.3 336.5,175.3 337.6,174.8 338.7,174.8 339.8,174.8 340.8,173.1 341.9,173.1 343.0,173.1 344.1,173.1 345.2,173.1 346.3,176.1 347.4,176.1 348.5,176.1 349.6,170.5 350.7,170.5 351.8,170.5 352.9,170.5 354.0,174.6 355.1,174.6 356.2,174.6 357.3,174.6 358.4,168.1 359.4,168.1 360.5,168.1 361.6,168.1 362.7,168.1 363.8,171.8 364.9,171.8 366.0,171.8 367.1,172.8 368.2,172.8 369.3,172.8 370.4,172.8 371.5,176.3 372.6,176.3 373.7,176.3 374.8,176.3 375.9,179.1 377.0,179.1 378.0,179.1 379.1,179.1 380.2,179.1 381.3,176.1 382.4,176.1 383.5,176.1 384.6,176.1 385.7,176.7 386.8,176.7 387.9,176.7 389.0,176.7 390.1,174.6 391.2,174.6 392.3,174.6 393.4,178.5 394.5,178.5 395.6,178.5 396.6,178.5 397.7,178.5 398.8,177.7 399.9,177.7 401.0,177.7 402.1,176.5 403.2,176.5 404.3,176.5 405.4,176.5 406.5,176.5 407.6,169.8 408.7,169.8 409.8,169.8 410.9,173.1 412.0,173.1 413.1,173.1 414.2,173.1 415.2,172.9 416.3,172.9 417.4,172.9 418.5,172.9 419.6,170.5 420.7,170.5 421.8,170.5 422.9,170.5 424.0,170.5 425.1,170.5 426.2,170.5 427.3,170.5 428.4,169.6 429.5,169.6 430.6,169.6 431.7,169.6 432.8,174.8 433.8,174.8 434.9,174.8 436.0,174.8 437.1,172.5 438.2,172.5 439.3,172.5 440.4,172.5 441.5,172.5 442.6,170.9 443.7,170.9 444.8,170.9 445.9,178.7 447.0,178.7 448.1,178.7 449.2,178.7 450.3,184.5 451.4,184.5 452.4,184.5 453.5,184.5 454.6,180.4 455.7,180.4 456.8,180.4 457.9,180.4 459.0,180.4 460.1,178.9 461.2,178.9 462.3,178.9 463.4,178.9 464.5,179.2 465.6,179.2 466.7,179.2 467.8,179.2 468.9,182.2 470.0,182.2 471.0,182.2 472.1,182.2 473.2,182.8 474.3,182.8 475.4,182.8 476.5,176.8 477.6,176.8 478.7,176.8 479.8,176.8 480.9,172.8 482.0,172.8 483.1,172.8 484.2,172.8 485.3,173.6 486.4,173.6 487.5,173.6 488.6,173.6 489.6,173.5 490.7,171.0 491.8,171.0 492.9,171.0 494.0,175.5 495.1,175.5 496.2,175.5 497.3,175.5 498.4,172.5 499.5,172.5 500.6,172.5 501.7,172.5 502.8,173.1 503.9,173.1 505.0,173.1 506.1,173.1 507.2,173.1 508.2,174.9 509.3,174.9 510.4,174.9 511.5,175.3 512.6,175.3 513.7,175.3 514.8,175.3 515.9,178.9 517.0,178.9 518.1,178.9 519.2,178.9 520.3,178.9 521.4,172.5 522.5,172.5 523.6,172.5 524.7,173.3 525.8,173.3 526.8,173.3 527.9,173.3 529.0,170.9 530.1,170.9 531.2,170.9 532.3,170.9 533.4,170.5 534.5,170.5 535.6,170.5 536.7,170.5 537.8,170.5 538.9,169.5 540.0,169.5 541.1,169.5 542.2,169.5 543.3,171.0 544.4,171.0 545.4,171.0 546.5,170.5 547.6,170.5 548.7,170.5 549.8,170.5 550.9,170.5 552.0,178.4 553.1,178.4 554.2,178.4 555.3,177.9 556.4,177.9 557.5,177.9 558.6,177.9 559.7,177.9 560.8,177.9 561.9,177.9 563.0,177.9 564.0,177.7 565.1,177.7 566.2,177.7 567.3,177.7 568.4,177.7 569.5,177.4 570.6,177.4 571.7,177.4 572.8,177.4 573.9,176.3 575.0,176.3 576.1,176.3 577.2,176.2 578.3,176.2 579.4,176.2 580.5,176.2 581.6,176.2 582.6,173.9 583.7,173.9 584.8,173.9 585.9,173.9 587.0,174.5 588.1,174.5 589.2,174.5 590.3,174.5 591.4,175.3 592.5,175.3 593.6,175.3 594.7,175.3 595.8,175.2 596.9,175.2 598.0,175.2 599.1,175.2 600.2,176.1 601.2,176.1 602.3,176.1 603.4,176.1 604.5,176.1 605.6,176.1 606.7,176.1 607.8,176.0 608.9,176.0 610.0,176.0 611.1,176.0 612.2,176.0 613.3,174.9 614.4,174.9 615.5,174.9 616.6,174.6 617.7,174.6 618.8,174.6 619.8,174.6 620.9,174.6 622.0,174.6 623.1,174.6 624.2,174.6 625.3,174.6 626.4,174.6 627.5,174.6 628.6,174.6 629.7,174.6 630.8,174.6 631.9,174.6 633.0,174.6 634.1,174.6 635.2,174.6 636.3,174.6 637.4,174.6 638.4,175.9 639.5,175.9 640.6,175.9 641.7,175.9 642.8,175.0 643.9,175.0 645.0,175.0 646.1,175.0 647.2,174.7 648.3,174.7 649.4,174.7 650.5,174.7 651.6,175.2 652.7,175.2 653.8,175.2 654.9,175.2 656.0,175.2 657.0,175.9 658.1,175.9 659.2,175.9 660.3,175.9 661.4,175.9 662.5,175.9 663.6,175.9 664.7,174.1 665.8,174.1 666.9,174.1 668.0,174.1 669.1,174.9 670.2,174.9 671.3,174.9 672.4,174.9 673.5,175.5 674.6,175.5 675.6,175.5 676.7,175.5 677.8,175.5 678.9,176.1 680.0,176.1 681.1,176.1 682.2,176.1 683.3,174.4 684.4,174.4 685.5,174.4 686.6,174.5 687.7,174.5 688.8,174.5 689.9,174.5 691.0,174.5 692.1,176.4 693.2,176.4 694.2,176.4 695.3,175.2 696.4,175.2 697.5,175.2 698.6,175.2 699.7,175.1 700.8,175.1 701.9,175.1 703.0,175.1 704.1,175.1 705.2,175.4 706.3,175.4 707.4,175.4 708.5,172.8 709.6,172.8 710.7,172.8 711.8,172.8 712.8,174.5 713.9,174.5 715.0,174.5 716.1,174.5 717.2,174.5 718.3,173.6 719.4,173.6 720.5,173.6 721.6,173.6 722.7,174.2 723.8,174.2 724.9,174.2 726.0,171.6 727.1,171.6 728.2,171.6 729.3,171.6 730.4,173.9 731.4,173.9 732.5,173.9 733.6,173.9 734.7,174.6 735.8,174.6 736.9,174.6 738.0,174.6 739.1,174.6 740.2,172.9 741.3,172.9 742.4,172.9 743.5,172.9 744.6,175.5 745.7,175.5 746.8,175.5 747.9,171.0 749.0,171.0 750.0,171.0 751.1,171.0 752.2,171.0 753.3,171.7 754.4,171.7 755.5,171.7 756.6,169.2 757.7,169.2 758.8,169.2 759.9,169.2 761.0,169.2 762.1,167.5 763.2,167.5 764.3,167.5 765.4,171.0 766.5,171.0 767.6,171.0 768.6,171.0 769.7,171.0 770.8,174.7 771.9,174.7 773.0,174.7 774.1,175.3 775.2,175.3 776.3,175.3 777.4,175.3 778.5,171.4 779.6,171.4 780.7,171.4 781.8,171.4 782.9,173.7 784.0,173.7 785.1,173.7 786.2,173.7 787.2,177.1 788.3,177.1 789.4,177.1 790.5,177.1 791.6,177.1 792.7,174.8 793.8,174.8 794.9,174.8 796.0,175.3"/>
<text x="640" y="56" font-family="Arial" font-size="12" fill="#0f766e">bax</text>
<polyline fill="none" stroke="#2563eb" stroke-width="2.3" points="52.0,194.0 53.1,194.0 54.2,194.0 55.3,194.0 56.4,194.0 57.5,194.0 58.6,194.0 59.7,194.0 60.8,194.0 61.8,194.0 62.9,194.0 64.0,194.0 65.1,194.0 66.2,195.3 67.3,195.3 68.4,195.3 69.5,195.3 70.6,195.3 71.7,195.3 72.8,195.3 73.9,195.3 75.0,260.7 76.1,260.7 77.2,260.7 78.3,206.7 79.4,206.7 80.4,206.7 81.5,206.7 82.6,206.7 83.7,231.2 84.8,231.2 85.9,231.2 87.0,175.5 88.1,175.5 89.2,175.5 90.3,175.5 91.4,175.5 92.5,239.1 93.6,239.1 94.7,239.1 95.8,203.3 96.9,203.3 98.0,203.3 99.0,203.3 100.1,189.8 101.2,189.8 102.3,189.8 103.4,189.8 104.5,189.8 105.6,274.0 106.7,274.0 107.8,274.0 108.9,253.7 110.0,253.7 111.1,253.7 112.2,253.7 113.3,253.7 114.4,250.6 115.5,250.6 116.6,250.6 117.6,250.6 118.7,245.3 119.8,245.3 120.9,245.3 122.0,228.5 123.1,228.5 124.2,228.5 125.3,228.5 126.4,228.5 127.5,223.9 128.6,223.9 129.7,223.9 130.8,223.9 131.9,223.6 133.0,223.6 134.1,223.6 135.2,223.6 136.2,225.7 137.3,225.7 138.4,225.7 139.5,237.0 140.6,237.0 141.7,237.0 142.8,237.0 143.9,237.0 145.0,226.1 146.1,226.1 147.2,226.1 148.3,226.1 149.4,233.5 150.5,233.5 151.6,233.5 152.7,233.5 153.8,228.9 154.8,228.9 155.9,228.9 157.0,228.9 158.1,225.3 159.2,225.3 160.3,225.3 161.4,225.3 162.5,237.0 163.6,237.0 164.7,237.0 165.8,237.0 166.9,233.8 168.0,233.8 169.1,233.8 170.2,225.8 171.3,225.8 172.4,225.8 173.4,225.8 174.5,225.8 175.6,217.3 176.7,217.3 177.8,217.3 178.9,217.3 180.0,222.8 181.1,222.8 182.2,222.8 183.3,222.7 184.4,213.5 185.5,213.5 186.6,213.5 187.7,213.5 188.8,215.3 189.9,215.3 191.0,215.3 192.0,214.5 193.1,214.5 194.2,214.5 195.3,214.5 196.4,217.4 197.5,217.4 198.6,217.4 199.7,217.4 200.8,212.0 201.9,212.0 203.0,212.0 204.1,212.0 205.2,212.0 206.3,211.1 207.4,211.1 208.5,211.1 209.6,210.3 210.6,210.3 211.7,210.3 212.8,210.3 213.9,210.3 215.0,203.5 216.1,203.5 217.2,203.5 218.3,209.3 219.4,209.3 220.5,209.3 221.6,209.3 222.7,209.3 223.8,211.7 224.9,211.7 226.0,211.7 227.1,211.7 228.2,211.0 229.2,211.0 230.3,211.0 231.4,207.7 232.5,207.7 233.6,207.7 234.7,207.7 235.8,207.7 236.9,209.7 238.0,209.7 239.1,209.7 240.2,209.7 241.3,209.3 242.4,209.3 243.5,209.3 244.6,209.3 245.7,216.8 246.8,216.8 247.8,216.8 248.9,216.8 250.0,207.7 251.1,207.7 252.2,207.7 253.3,207.7 254.4,210.0 255.5,210.0 256.6,210.0 257.7,212.6 258.8,212.6 259.9,212.6 261.0,212.6 262.1,212.6 263.2,211.9 264.3,211.9 265.4,211.9 266.4,211.9 267.5,211.9 268.6,211.9 269.7,211.9 270.8,211.7 271.9,211.7 273.0,211.7 274.1,211.7 275.2,211.7 276.3,217.2 277.4,217.2 278.5,217.2 279.6,215.7 280.7,215.7 281.8,215.7 282.9,215.7 284.0,207.2 285.0,207.2 286.1,207.2 287.2,207.2 288.3,207.2 289.4,208.2 290.5,208.2 291.6,208.2 292.7,208.7 293.8,208.7 294.9,208.7 296.0,208.7 297.1,208.7 298.2,208.1 299.3,208.1 300.4,208.1 301.5,208.1 302.6,211.8 303.6,211.8 304.7,211.8 305.8,212.7 306.9,212.7 308.0,212.7 309.1,212.7 310.2,212.0 311.3,212.0 312.4,212.0 313.5,212.0 314.6,211.6 315.7,211.6 316.8,211.6 317.9,211.6 319.0,209.0 320.1,209.0 321.2,209.0 322.2,209.0 323.3,207.2 324.4,207.2 325.5,207.2 326.6,207.2 327.7,210.2 328.8,210.2 329.9,210.2 331.0,210.2 332.1,212.4 333.2,212.4 334.3,212.4 335.4,212.4 336.5,212.4 337.6,208.4 338.7,208.4 339.8,208.4 340.8,215.1 341.9,215.1 343.0,215.1 344.1,215.1 345.2,215.1 346.3,210.9 347.4,210.9 348.5,210.9 349.6,211.8 350.7,211.8 351.8,211.8 352.9,211.8 354.0,210.7 355.1,210.7 356.2,210.7 357.3,210.7 358.4,209.8 359.4,209.8 360.5,209.8 361.6,209.8 362.7,209.8 363.8,207.2 364.9,207.2 366.0,207.2 367.1,207.9 368.2,207.9 369.3,207.9 370.4,207.9 371.5,211.5 372.6,211.5 373.7,211.5 374.8,211.5 375.9,204.5 377.0,204.5 378.0,204.5 379.1,204.5 380.2,204.5 381.3,213.0 382.4,213.0 383.5,213.0 384.6,213.0 385.7,216.3 386.8,216.3 387.9,216.3 389.0,216.3 390.1,208.2 391.2,208.2 392.3,208.2 393.4,204.0 394.5,204.0 395.6,204.0 396.6,204.0 397.7,204.0 398.8,208.7 399.9,208.7 401.0,208.7 402.1,206.6 403.2,206.6 404.3,206.6 405.4,206.6 406.5,206.6 407.6,211.6 408.7,211.6 409.8,211.6 410.9,211.3 412.0,211.3 413.1,211.3 414.2,211.3 415.2,211.3 416.3,211.3 417.4,211.3 418.5,211.3 419.6,211.4 420.7,211.4 421.8,211.4 422.9,211.4 424.0,210.8 425.1,210.8 426.2,210.8 427.3,210.8 428.4,213.7 429.5,213.7 430.6,213.7 431.7,213.7 432.8,213.9 433.8,213.9 434.9,213.9 436.0,213.9 437.1,215.8 438.2,215.8 439.3,215.8 440.4,215.8 441.5,215.8 442.6,211.5 443.7,211.5 444.8,211.5 445.9,219.7 447.0,219.7 448.1,219.7 449.2,219.7 450.3,211.2 451.4,211.2 452.4,211.2 453.5,211.2 454.6,209.0 455.7,209.0 456.8,209.0 457.9,209.0 459.0,209.0 460.1,200.6 461.2,200.6 462.3,200.6 463.4,200.6 464.5,208.5 465.6,208.5 466.7,208.5 467.8,208.5 468.9,206.8 470.0,206.8 471.0,206.8 472.1,206.8 473.2,209.1 474.3,209.1 475.4,209.1 476.5,207.3 477.6,207.3 478.7,207.3 479.8,207.3 480.9,210.1 482.0,210.1 483.1,210.1 484.2,210.1 485.3,213.7 486.4,213.7 487.5,213.7 488.6,213.7 489.6,213.7 490.7,212.1 491.8,212.1 492.9,212.1 494.0,214.6 495.1,214.6 496.2,214.6 497.3,214.6 498.4,216.4 499.5,216.4 500.6,216.4 501.7,216.4 502.8,217.3 503.9,217.3 505.0,217.3 506.1,217.3 507.2,217.3 508.2,219.6 509.3,219.6 510.4,219.6 511.5,218.0 512.6,218.0 513.7,218.0 514.8,218.0 515.9,217.2 517.0,217.2 518.1,217.2 519.2,217.2 520.3,217.2 521.4,222.0 522.5,222.0 523.6,222.0 524.7,218.0 525.8,218.0 526.8,218.0 527.9,218.0 529.0,214.2 530.1,214.2 531.2,214.2 532.3,214.2 533.4,212.8 534.5,212.8 535.6,212.8 536.7,212.8 537.8,212.8 538.9,205.2 540.0,205.2 541.1,205.2 542.2,205.2 543.3,209.9 544.4,209.9 545.4,209.9 546.5,212.5 547.6,212.5 548.7,212.5 549.8,212.5 550.9,212.5 552.0,214.2 553.1,214.2 554.2,214.2 555.3,214.9 556.4,214.9 557.5,214.9 558.6,214.9 559.7,214.4 560.8,214.4 561.9,214.4 563.0,214.4 564.0,215.2 565.1,215.2 566.2,215.2 567.3,215.2 568.4,215.2 569.5,215.1 570.6,215.1 571.7,215.1 572.8,215.1 573.9,213.4 575.0,213.4 576.1,213.4 577.2,213.4 578.3,213.4 579.4,213.4 580.5,213.4 581.6,213.4 582.6,212.3 583.7,212.3 584.8,212.3 585.9,212.3 587.0,214.6 588.1,214.6 589.2,214.6 590.3,214.6 591.4,214.4 592.5,214.4 593.6,214.4 594.7,214.4 595.8,216.2 596.9,216.2 598.0,216.2 599.1,216.2 600.2,215.4 601.2,215.4 602.3,215.4 603.4,215.4 604.5,213.1 605.6,213.1 606.7,213.1 607.8,212.9 608.9,212.9 610.0,212.9 611.1,212.9 612.2,212.9 613.3,212.5 614.4,212.5 615.5,212.5 616.6,212.8 617.7,212.8 618.8,212.8 619.8,212.8 620.9,212.8 622.0,212.8 623.1,212.8 624.2,212.8 625.3,212.8 626.4,212.8 627.5,212.8 628.6,212.8 629.7,212.8 630.8,210.9 631.9,210.9 633.0,210.9 634.1,210.9 635.2,210.9 636.3,210.9 637.4,210.9 638.4,212.0 639.5,212.0 640.6,212.0 641.7,212.0 642.8,211.2 643.9,211.2 645.0,211.2 646.1,211.2 647.2,212.8 648.3,212.8 649.4,212.8 650.5,212.8 651.6,213.2 652.7,213.2 653.8,213.2 654.9,213.2 656.0,213.2 657.0,214.5 658.1,214.5 659.2,214.5 660.3,214.5 661.4,212.0 662.5,212.0 663.6,212.0 664.7,212.7 665.8,212.7 666.9,212.7 668.0,212.7 669.1,211.7 670.2,211.7 671.3,211.7 672.4,211.7 673.5,210.9 674.6,210.9 675.6,210.9 676.7,210.9 677.8,210.9 678.9,211.3 680.0,211.3 681.1,211.3 682.2,211.3 683.3,209.5 684.4,209.5 685.5,209.5 686.6,208.7 687.7,208.7 688.8,208.7 689.9,208.7 691.0,208.7 692.1,207.9 693.2,207.9 694.2,207.9 695.3,209.3 696.4,209.3 697.5,209.3 698.6,209.3 699.7,210.4 700.8,210.4 701.9,210.4 703.0,210.4 704.1,210.4 705.2,210.1 706.3,210.1 707.4,210.1 708.5,210.9 709.6,210.9 710.7,210.9 711.8,210.9 712.8,212.7 713.9,212.7 715.0,212.7 716.1,212.7 717.2,212.7 718.3,210.3 719.4,210.3 720.5,210.3 721.6,210.3 722.7,212.0 723.8,212.0 724.9,212.0 726.0,214.3 727.1,214.3 728.2,214.3 729.3,214.3 730.4,212.2 731.4,212.2 732.5,212.2 733.6,212.2 734.7,211.1 735.8,211.1 736.9,211.1 738.0,211.1 739.1,211.1 740.2,207.7 741.3,207.7 742.4,207.7 743.5,207.7 744.6,209.0 745.7,209.0 746.8,209.0 747.9,209.7 749.0,209.7 750.0,209.7 751.1,209.7 752.2,209.6 753.3,210.1 754.4,210.1 755.5,210.1 756.6,209.0 757.7,209.0 758.8,209.0 759.9,209.0 761.0,209.0 762.1,210.0 763.2,210.0 764.3,210.0 765.4,215.6 766.5,215.6 767.6,215.6 768.6,215.6 769.7,215.6 770.8,213.4 771.9,213.4 773.0,213.4 774.1,211.3 775.2,211.3 776.3,211.3 777.4,211.3 778.5,215.0 779.6,215.0 780.7,215.0 781.8,215.0 782.9,216.8 784.0,216.8 785.1,216.8 786.2,216.8 787.2,216.7 788.3,216.7 789.4,216.7 790.5,216.7 791.6,216.7 792.7,214.1 793.8,214.1 794.9,214.1 796.0,213.7"/>
<text x="640" y="72" font-family="Arial" font-size="12" fill="#2563eb">bay</text>
<polyline fill="none" stroke="#b45309" stroke-width="2.3" points="52.0,194.0 53.1,194.0 54.2,194.0 55.3,194.0 56.4,194.0 57.5,194.0 58.6,194.0 59.7,194.0 60.8,194.0 61.8,194.0 62.9,196.1 64.0,196.1 65.1,196.1 66.2,186.1 67.3,186.1 68.4,186.1 69.5,186.1 70.6,186.1 71.7,186.1 72.8,186.1 73.9,185.3 75.0,153.2 76.1,153.2 77.2,147.9 78.3,103.1 79.4,102.7 80.4,102.7 81.5,102.7 82.6,104.1 83.7,131.7 84.8,130.8 85.9,130.8 87.0,71.8 88.1,71.9 89.2,71.9 90.3,71.9 91.4,69.2 92.5,42.0 93.6,44.0 94.7,44.0 95.8,64.9 96.9,63.7 98.0,63.7 99.0,64.5 100.1,139.0 101.2,139.0 102.3,138.4 103.4,138.4 104.5,138.4 105.6,126.2 106.7,126.8 107.8,126.3 108.9,172.8 110.0,171.3 111.1,171.3 112.2,171.3 113.3,171.8 114.4,200.3 115.5,200.3 116.6,200.3 117.6,201.8 118.7,191.1 119.8,191.1 120.9,194.8 122.0,194.9 123.1,193.3 124.2,193.3 125.3,193.3 126.4,194.6 127.5,200.3 128.6,202.7 129.7,202.7 130.8,202.7 131.9,198.3 133.0,198.3 134.1,198.3 135.2,197.1 136.2,173.1 137.3,172.2 138.4,172.2 139.5,160.9 140.6,158.6 141.7,158.6 142.8,160.4 143.9,160.4 145.0,166.8 146.1,167.4 147.2,167.4 148.3,165.3 149.4,156.1 150.5,156.0 151.6,156.0 152.7,156.0 153.8,165.4 154.8,165.4 155.9,165.4 157.0,163.5 158.1,156.1 159.2,156.1 160.3,156.4 161.4,153.3 162.5,162.3 163.6,162.3 164.7,161.6 165.8,161.6 166.9,168.2 168.0,168.2 169.1,168.2 170.2,172.9 171.3,172.9 172.4,171.3 173.4,171.3 174.5,171.3 175.6,173.4 176.7,173.4 177.8,173.1 178.9,173.1 180.0,174.7 181.1,174.7 182.2,174.7 183.3,174.0 184.4,176.8 185.5,176.8 186.6,176.4 187.7,176.4 188.8,171.0 189.9,171.4 191.0,171.4 192.0,176.3 193.1,176.3 194.2,177.5 195.3,178.4 196.4,175.6 197.5,174.5 198.6,174.5 199.7,174.5 200.8,178.0 201.9,177.6 203.0,177.6 204.1,177.6 205.2,177.2 206.3,173.8 207.4,173.8 208.5,173.7 209.6,173.4 210.6,173.4 211.7,171.9 212.8,171.9 213.9,171.5 215.0,173.4 216.1,172.4 217.2,172.7 218.3,169.6 219.4,169.1 220.5,169.1 221.6,169.6 222.7,169.6 223.8,172.1 224.9,171.6 226.0,171.6 227.1,171.6 228.2,170.0 229.2,170.0 230.3,170.0 231.4,172.2 232.5,173.1 233.6,173.1 234.7,172.7 235.8,172.7 236.9,180.4 238.0,180.5 239.1,180.8 240.2,180.8 241.3,181.6 242.4,181.6 243.5,181.5 244.6,181.5 245.7,179.8 246.8,179.3 247.8,179.3 248.9,179.1 250.0,175.5 251.1,175.5 252.2,174.8 253.3,174.8 254.4,174.7 255.5,174.1 256.6,174.1 257.7,181.0 258.8,181.0 259.9,181.2 261.0,181.2 262.1,181.2 263.2,179.0 264.3,179.0 265.4,179.0 266.4,178.7 267.5,178.7 268.6,177.9 269.7,177.9 270.8,175.6 271.9,175.6 273.0,175.6 274.1,174.2 275.2,174.2 276.3,178.1 277.4,177.9 278.5,177.9 279.6,174.3 280.7,174.3 281.8,173.6 282.9,173.6 284.0,174.3 285.0,173.5 286.1,173.5 287.2,173.5 288.3,172.5 289.4,170.4 290.5,170.5 291.6,170.5 292.7,172.8 293.8,172.8 294.9,172.8 296.0,173.1 297.1,173.1 298.2,172.8 299.3,172.7 300.4,172.7 301.5,172.0 302.6,176.9 303.6,176.8 304.7,176.0 305.8,174.1 306.9,174.1 308.0,174.6 309.1,174.6 310.2,176.6 311.3,176.6 312.4,176.8 313.5,176.8 314.6,177.8 315.7,177.8 316.8,177.8 317.9,177.8 319.0,176.3 320.1,176.6 321.2,176.6 322.2,176.6 323.3,174.7 324.4,174.7 325.5,174.4 326.6,174.4 327.7,175.6 328.8,175.6 329.9,175.6 331.0,176.1 332.1,179.8 333.2,179.8 334.3,178.9 335.4,178.9 336.5,180.5 337.6,176.7 338.7,176.7 339.8,176.1 340.8,179.6 341.9,181.0 343.0,181.0 344.1,181.0 345.2,181.0 346.3,180.1 347.4,180.3 348.5,180.3 349.6,176.9 350.7,177.0 351.8,177.0 352.9,177.0 354.0,178.9 355.1,178.9 356.2,178.6 357.3,178.6 358.4,180.8 359.4,180.8 360.5,180.8 361.6,181.0 362.7,181.0 363.8,178.8 364.9,178.8 366.0,178.8 367.1,178.0 368.2,178.0 369.3,178.0 370.4,178.1 371.5,177.8 372.6,178.4 373.7,178.4 374.8,177.6 375.9,183.4 377.0,183.4 378.0,183.6 379.1,183.6 380.2,183.6 381.3,180.2 382.4,180.2 383.5,180.2 384.6,180.2 385.7,176.3 386.8,174.8 387.9,174.8 389.0,174.2 390.1,175.9 391.2,176.1 392.3,176.1 393.4,173.7 394.5,173.5 395.6,173.5 396.6,173.5 397.7,173.5 398.8,174.8 399.9,174.4 401.0,174.4 402.1,176.1 403.2,175.8 404.3,175.8 405.4,175.1 406.5,175.1 407.6,176.2 408.7,176.2 409.8,176.2 410.9,181.2 412.0,181.2 413.1,181.0 414.2,180.8 415.2,183.1 416.3,183.8 417.4,183.8 418.5,183.2 419.6,183.2 420.7,183.2 421.8,183.3 422.9,183.3 424.0,179.6 425.1,179.6 426.2,179.6 427.3,180.4 428.4,185.6 429.5,185.6 430.6,185.4 431.7,185.4 432.8,187.2 433.8,187.2 434.9,187.8 436.0,187.3 437.1,179.3 438.2,178.8 439.3,178.8 440.4,178.8 441.5,179.1 442.6,177.2 443.7,177.0 444.8,177.0 445.9,185.6 447.0,185.9 448.1,185.9 449.2,185.7 450.3,187.3 451.4,187.2 452.4,187.2 453.5,187.2 454.6,183.7 455.7,183.7 456.8,184.0 457.9,183.7 459.0,183.7 460.1,182.5 461.2,182.5 462.3,182.5 463.4,182.2 464.5,180.2 465.6,180.6 466.7,180.6 467.8,180.9 468.9,181.3 470.0,181.3 471.0,181.3 472.1,181.3 473.2,180.2 474.3,180.2 475.4,180.2 476.5,175.2 477.6,175.2 478.7,175.5 479.8,175.7 480.9,176.1 482.0,175.5 483.1,175.5 484.2,176.1 485.3,175.8 486.4,175.8 487.5,175.7 488.6,175.7 489.6,175.2 490.7,176.2 491.8,176.2 492.9,176.3 494.0,175.0 495.1,175.0 496.2,174.8 497.3,174.8 498.4,177.0 499.5,177.0 500.6,177.5 501.7,177.5 502.8,176.6 503.9,176.9 505.0,176.9 506.1,176.9 507.2,175.9 508.2,181.5 509.3,181.8 510.4,181.8 511.5,178.6 512.6,178.6 513.7,178.6 514.8,179.1 515.9,174.9 517.0,175.1 518.1,175.1 519.2,175.1 520.3,175.3 521.4,171.1 522.5,170.6 523.6,170.9 524.7,167.8 525.8,167.6 526.8,167.6 527.9,167.6 529.0,165.1 530.1,165.1 531.2,165.3 532.3,165.3 533.4,170.0 534.5,170.1 535.6,170.1 536.7,170.7 537.8,170.7 538.9,167.6 540.0,167.4 541.1,167.4 542.2,167.1 543.3,165.3 544.4,165.5 545.4,165.9 546.5,162.5 547.6,163.2 548.7,163.2 549.8,163.2 550.9,164.4 552.0,166.1 553.1,165.7 554.2,165.7 555.3,166.5 556.4,166.5 557.5,166.5 558.6,166.4 559.7,164.6 560.8,165.1 561.9,165.1 563.0,164.2 564.0,166.2 565.1,166.2 566.2,166.0 567.3,166.0 568.4,166.0 569.5,170.4 570.6,170.4 571.7,170.8 572.8,170.8 573.9,171.4 575.0,171.9 576.1,171.9 577.2,171.8 578.3,171.8 579.4,171.8 580.5,171.8 581.6,171.8 582.6,174.8 583.7,174.8 584.8,174.8 585.9,174.8 587.0,177.1 588.1,177.7 589.2,177.7 590.3,177.7 591.4,180.8 592.5,180.8 593.6,180.9 594.7,180.9 595.8,178.6 596.9,178.4 598.0,178.4 599.1,178.5 600.2,177.1 601.2,177.1 602.3,176.8 603.4,176.8 604.5,175.3 605.6,175.2 606.7,175.2 607.8,173.7 608.9,173.7 610.0,174.0 611.1,174.0 612.2,174.0 613.3,172.8 614.4,172.8 615.5,173.7 616.6,173.7 617.7,173.7 618.8,173.8 619.8,173.8 620.9,173.6 622.0,173.6 623.1,173.6 624.2,174.2 625.3,174.2 626.4,174.2 627.5,174.1 628.6,174.1 629.7,174.1 630.8,173.0 631.9,172.8 633.0,172.8 634.1,172.8 635.2,172.0 636.3,172.0 637.4,172.0 638.4,171.9 639.5,171.9 640.6,172.0 641.7,172.0 642.8,171.7 643.9,171.7 645.0,171.7 646.1,171.7 647.2,170.5 648.3,171.1 649.4,171.1 650.5,171.1 651.6,169.9 652.7,169.9 653.8,169.7 654.9,169.9 656.0,169.9 657.0,169.6 658.1,169.6 659.2,169.6 660.3,169.6 661.4,170.3 662.5,170.5 663.6,170.5 664.7,172.3 665.8,172.6 666.9,172.6 668.0,172.7 669.1,171.1 670.2,170.3 671.3,170.3 672.4,170.3 673.5,170.1 674.6,170.1 675.6,170.5 676.7,170.5 677.8,170.5 678.9,173.5 680.0,173.5 681.1,173.8 682.2,173.8 683.3,175.2 684.4,175.0 685.5,175.0 686.6,174.6 687.7,174.6 688.8,174.6 689.9,174.8 691.0,174.8 692.1,174.2 693.2,174.7 694.2,174.7 695.3,176.7 696.4,176.7 697.5,176.7 698.6,177.2 699.7,176.5 700.8,176.6 701.9,176.6 703.0,176.8 704.1,176.8 705.2,175.3 706.3,175.6 707.4,175.6 708.5,176.6 709.6,176.7 710.7,176.7 711.8,177.1 712.8,176.7 713.9,176.7 715.0,176.5 716.1,176.5 717.2,176.8 718.3,175.7 719.4,175.7 720.5,175.5 721.6,175.5 722.7,178.5 723.8,178.5 724.9,179.2 726.0,178.5 727.1,178.5 728.2,178.7 729.3,178.7 730.4,176.0 731.4,175.8 732.5,175.8 733.6,175.5 734.7,177.2 735.8,177.1 736.9,177.1 738.0,177.1 739.1,176.8 740.2,178.5 741.3,178.6 742.4,178.4 743.5,178.4 744.6,179.4 745.7,179.4 746.8,179.4 747.9,177.2 749.0,177.2 750.0,177.0 751.1,177.0 752.2,176.9 753.3,178.6 754.4,178.6 755.5,178.6 756.6,176.4 757.7,176.3 758.8,176.3 759.9,176.3 761.0,176.1 762.1,176.1 763.2,176.2 764.3,175.9 765.4,175.0 766.5,175.0 767.6,175.0 768.6,175.0 769.7,174.8 770.8,177.9 771.9,178.0 773.0,178.0 774.1,175.2 775.2,175.2 776.3,175.2 777.4,175.2 778.5,177.1 779.6,176.9 780.7,176.9 781.8,176.9 782.9,178.6 784.0,178.6 785.1,178.9 786.2,178.9 787.2,179.7 788.3,179.7 789.4,179.7 790.5,179.8 791.6,179.8 792.7,179.6 793.8,179.6 794.9,179.6 796.0,177.6"/>
<text x="640" y="88" font-family="Arial" font-size="12" fill="#b45309">baz</text>
</svg>