<svg xmlns="http://www.w3.org/2000/svg" width="820" height="320" viewBox="0 0 820 320">
<rect width="100%" height="100%" fill="white"/>
<text x="52" y="30" font-family="Arial" font-size="18" font-weight="700">ekf_dropout_robust accelerometer bias estimates</text>
<line x1="52" y1="274" x2="796" y2="274" stroke="#263238"/>
<line x1="52" y1="42" x2="52" y2="274" stroke="#263238"/>
<text x="52" y="306" font-family="Arial" font-size="12">time (s)</text>
<text x="630" y="306" font-family="Arial" font-size="12">m/s^2</text>

<polyline fill="none" stroke="#0f766e" stroke-width="2.3" points="52.0,196.9 53.1,196.9 54.2,196.9 55.3,196.9 56.4,196.9 57.5,196.9 58.6,196.9 59.7,196.9 60.8,196.9 61.8,196.9 62.9,196.9 64.0,196.9 65.1,196.9 66.2,195.1 67.3,195.1 68.4,195.1 69.5,195.1 70.6,195.1 71.7,195.1 72.8,195.1 73.9,195.1 75.0,126.0 76.1,126.0 77.2,126.0 78.3,122.8 79.4,122.8 80.4,122.8 81.5,122.8 82.6,122.8 83.7,83.4 84.8,83.4 85.9,83.4 87.0,144.5 88.1,144.5 89.2,144.5 90.3,144.5 91.4,144.5 92.5,264.8 93.6,264.8 94.7,264.8 95.8,209.3 96.9,209.3 98.0,209.3 99.0,209.3 100.1,214.4 101.2,214.4 102.3,214.4 103.4,214.4 104.5,214.4 105.6,172.4 106.7,172.4 107.8,172.4 108.9,162.7 110.0,162.7 111.1,162.7 112.2,162.7 113.3,162.7 114.4,180.9 115.5,180.9 116.6,180.9 117.6,180.9 118.7,199.0 119.8,199.0 120.9,199.0 122.0,183.8 123.1,183.8 124.2,183.8 125.3,183.8 126.4,183.8 127.5,183.4 128.6,183.4 129.7,183.4 130.8,183.4 131.9,184.1 133.0,184.1 134.1,184.1 135.2,184.1 136.2,165.4 137.3,165.4 138.4,165.4 139.5,187.6 140.6,187.6 141.7,187.6 142.8,187.6 143.9,187.6 145.0,179.1 146.1,179.1 147.2,179.1 148.3,179.1 149.4,178.4 150.5,178.4 151.6,178.4 152.7,178.4 153.8,173.5 154.8,173.5 155.9,173.5 157.0,173.5 158.1,173.6 159.2,173.6 160.3,173.6 161.4,173.6 162.5,171.5 163.6,171.5 164.7,171.5 165.8,171.5 166.9,174.6 168.0,174.6 169.1,174.6 170.2,170.8 171.3,170.8 172.4,170.8 173.4,170.8 174.5,170.8 175.6,166.0 176.7,166.0 177.8,166.0 178.9,166.0 180.0,166.9 181.1,166.9 182.2,166.9 183.3,166.7 184.4,164.1 185.5,164.1 186.6,164.1 187.7,164.1 188.8,161.9 189.9,161.9 191.0,161.9 192.0,166.5 193.1,166.5 194.2,166.5 195.3,166.5 196.4,169.1 197.5,169.1 198.6,169.1 199.7,169.1 200.8,166.6 201.9,166.6 203.0,166.6 204.1,166.6 205.2,166.6 206.3,171.8 207.4,171.8 208.5,171.8 209.6,169.4 210.6,169.4 211.7,169.4 212.8,169.4 213.9,169.4 215.0,171.3 216.1,171.3 217.2,171.3 218.3,171.6 219.4,171.6 220.5,171.6 221.6,171.6 222.7,171.6 223.8,173.6 224.9,173.6 226.0,173.6 227.1,173.5 228.2,176.9 229.2,176.9 230.3,176.9 231.4,176.9 232.5,176.9 233.6,176.9 234.7,176.9 235.8,176.9 236.9,172.2 238.0,172.2 239.1,172.2 240.2,172.2 241.3,170.5 242.4,170.5 243.5,170.5 244.6,170.5 245.7,173.0 246.8,173.0 247.8,173.0 248.9,173.0 250.0,173.5 251.1,173.5 252.2,173.5 253.3,173.5 254.4,173.5 255.5,173.5 256.6,173.5 257.7,170.5 258.8,170.5 259.9,170.5 261.0,170.5 262.1,170.5 263.2,170.8 264.3,170.8 265.4,170.8 266.4,170.8 267.5,170.8 268.6,170.8 269.7,170.8 270.8,170.9 271.9,170.9 273.0,170.9 274.1,170.9 275.2,170.9 276.3,172.3 277.4,172.3 278.5,172.3 279.6,171.0 280.7,171.0 281.8,171.0 282.9,171.0 284.0,170.6 285.0,170.6 286.1,170.6 287.2,170.6 288.3,170.6 289.4,170.2 290.5,170.2 291.6,170.2 292.7,175.5 293.8,175.5 294.9,175.5 296.0,175.5 297.1,175.5 298.2,179.1 299.3,179.1 300.4,179.1 301.5,179.1 302.6,177.3 303.6,177.3 304.7,177.3 305.8,177.3 306.9,177.3 308.0,177.3 309.1,177.3 310.2,176.0 311.3,176.0 312.4,176.0 313.5,176.0 314.6,172.8 315.7,172.8 316.8,172.8 317.9,172.8 319.0,177.8 320.1,177.8 321.2,177.8 322.2,177.8 323.3,172.8 324.4,172.8 325.5,172.8 326.6,172.8 327.7,173.2 328.8,173.2 329.9,173.2 331.0,173.2 332.1,176.3 333.2,176.3 334.3,176.3 335.4,176.3 336.5,176.3 337.6,176.2 338.7,176.2 339.8,176.2 340.8,175.2 341.9,175.2 343.0,175.2 344.1,175.2 345.2,175.2 346.3,177.3 347.4,177.3 348.5,177.3 349.6,172.7 350.7,172.7 351.8,172.7 352.9,172.7 354.0,176.6 355.1,176.6 356.2,176.6 357.3,176.6 358.4,170.7 359.4,170.7 360.5,170.7 361.6,170.7 362.7,170.7 363.8,173.8 364.9,173.8 366.0,173.8 367.1,174.6 368.2,174.6 369.3,174.6 370.4,174.6 371.5,177.4 372.6,177.4 373.7,177.4 374.8,177.4 375.9,179.8 377.0,179.8 378.0,179.8 379.1,179.8 380.2,179.8 381.3,177.9 382.4,177.9 383.5,177.9 384.6,177.9 385.7,178.4 386.8,178.4 387.9,178.4 389.0,178.4 390.1,176.8 391.2,176.8 392.3,176.8 393.4,179.9 394.5,179.9 395.6,179.9 396.6,179.9 397.7,179.9 398.8,179.5 399.9,179.5 401.0,179.5 402.1,178.6 403.2,178.6 404.3,178.6 405.4,178.6 406.5,178.6 407.6,173.4 408.7,173.4 409.8,173.4 410.9,175.7 412.0,175.7 413.1,175.7 414.2,175.7 415.2,175.4 416.3,175.4 417.4,175.4 418.5,175.4 419.6,173.4 420.7,173.4 421.8,173.4 422.9,173.4 424.0,173.1 425.1,173.1 426.2,173.1 427.3,173.1 428.4,172.3 429.5,172.3 430.6,172.3 431.7,172.3 432.8,176.2 433.8,176.2 434.9,176.2 436.0,176.2 437.1,174.5 438.2,174.5 439.3,174.5 440.4,174.5 441.5,174.5 442.6,173.3 443.7,173.3 444.8,173.3 445.9,179.3 447.0,179.3 448.1,179.3 449.2,179.3 450.3,184.2 451.4,184.2 452.4,184.2 453.5,184.2 454.6,181.6 455.7,181.6 456.8,181.6 457.9,181.6 459.0,181.6 460.1,180.7 461.2,180.7 462.3,180.7 463.4,180.7 464.5,181.0 465.6,181.0 466.7,181.0 467.8,181.0 468.9,183.5 470.0,183.5 471.0,183.5 472.1,183.5 473.2,184.2 474.3,184.2 475.4,184.2 476.5,180.2 477.6,180.2 478.7,180.2 479.8,180.2 480.9,177.3 482.0,177.3 483.1,177.3 484.2,177.3 485.3,177.2 486.4,177.2 487.5,177.2 488.6,177.2 489.6,177.2 490.7,175.2 491.8,175.2 492.9,175.2 494.0,177.8 495.1,177.8 496.2,177.8 497.3,177.8 498.4,175.7 499.5,175.7 500.6,175.7 501.7,175.7 502.8,175.8 503.9,175.8 505.0,175.8 506.1,175.8 507.2,175.8 508.2,176.9 509.3,176.9 510.4,176.9 511.5,177.2 512.6,177.2 513.7,177.2 514.8,177.2 515.9,179.7 517.0,179.7 518.1,179.7 519.2,179.7 520.3,179.7 521.4,175.7 522.5,175.7 523.6,175.7 524.7,176.1 525.8,176.1 526.8,176.1 527.9,176.1 529.0,174.1 530.1,174.1 531.2,174.1 532.3,174.1 533.4,173.6 534.5,173.6 535.6,173.6 536.7,173.6 537.8,173.6 538.9,172.6 540.0,172.6 541.1,172.6 542.2,172.6 543.3,173.4 544.4,173.4 545.4,173.4 546.5,172.9 547.6,172.9 548.7,172.9 549.8,172.9 550.9,172.9 552.0,178.3 553.1,178.3 554.2,178.3 555.3,178.5 556.4,178.5 557.5,178.5 558.6,178.5 559.7,178.8 560.8,178.8 561.9,178.8 563.0,178.8 564.0,179.0 565.1,179.0 566.2,179.0 567.3,179.0 568.4,179.0 569.5,178.9 570.6,178.9 571.7,178.9 572.8,178.9 573.9,178.1 575.0,178.1 576.1,178.1 577.2,178.1 578.3,178.1 579.4,178.1 580.5,178.1 581.6,178.1 582.6,175.8 583.7,175.8 584.8,175.8 585.9,175.8 587.0,176.5 588.1,176.5 589.2,176.5 590.3,176.5 591.4,177.6 592.5,177.6 593.6,177.6 594.7,177.6 595.8,177.4 596.9,177.4 598.0,177.4 599.1,177.4 600.2,179.0 601.2,179.0 602.3,179.0 603.4,179.0 604.5,178.8 605.6,178.8 606.7,178.8 607.8,178.6 608.9,178.6 610.0,178.6 611.1,178.6 612.2,178.6 613.3,176.9 614.4,176.9 615.5,176.9 616.6,176.6 617.7,176.6 618.8,176.6 619.8,176.6 620.9,176.6 622.0,176.6 623.1,176.6 624.2,176.6 625.3,176.6 626.4,176.6 627.5,176.6 628.6,176.6 629.7,176.6 630.8,176.7 631.9,176.7 633.0,176.7 634.1,176.7 635.2,176.7 636.3,176.7 637.4,176.7 638.4,179.3 639.5,179.3 640.6,179.3 641.7,179.3 642.8,176.9 643.9,176.9 645.0,176.9 646.1,176.9 647.2,176.5 648.3,176.5 649.4,176.5 650.5,176.5 651.6,177.5 652.7,177.5 653.8,177.5 654.9,177.5 656.0,177.5 657.0,178.5 658.1,178.5 659.2,178.5 660.3,178.5 661.4,178.4 662.5,178.4 663.6,178.4 664.7,175.9 665.8,175.9 666.9,175.9 668.0,175.9 669.1,176.9 670.2,176.9 671.3,176.9 672.4,176.9 673.5,177.6 674.6,177.6 675.6,177.6 676.7,177.6 677.8,177.6 678.9,178.3 680.0,178.3 681.1,178.3 682.2,178.3 683.3,176.5 684.4,176.5 685.5,176.5 686.6,176.6 687.7,176.6 688.8,176.6 689.9,176.6 691.0,176.6 692.1,178.4 693.2,178.4 694.2,178.4 695.3,177.3 696.4,177.3 697.5,177.3 698.6,177.3 699.7,177.2 700.8,177.2 701.9,177.2 703.0,177.2 704.1,177.2 705.2,177.5 706.3,177.5 707.4,177.5 708.5,175.3 709.6,175.3 710.7,175.3 711.8,175.3 712.8,176.5 713.9,176.5 715.0,176.5 716.1,176.5 717.2,176.5 718.3,175.9 719.4,175.9 720.5,175.9 721.6,175.9 722.7,176.2 723.8,176.2 724.9,176.2 726.0,174.4 727.1,174.4 728.2,174.4 729.3,174.4 730.4,175.9 731.4,175.9 732.5,175.9 733.6,175.9 734.7,176.4 735.8,176.4 736.9,176.4 738.0,176.4 739.1,176.4 740.2,175.2 741.3,175.2 742.4,175.2 743.5,175.2 744.6,177.0 745.7,177.0 746.8,177.0 747.9,173.9 749.0,173.9 750.0,173.9 751.1,173.9 752.2,173.8 753.3,174.1 754.4,174.1 755.5,174.1 756.6,172.2 757.7,172.2 758.8,172.2 759.9,172.2 761.0,172.2 762.1,170.7 763.2,170.7 764.3,170.7 765.4,172.9 766.5,172.9 767.6,172.9 768.6,172.9 769.7,172.9 770.8,175.4 771.9,175.4 773.0,175.4 774.1,176.1 775.2,176.1 776.3,176.1 777.4,176.1 778.5,173.6 779.6,173.6 780.7,173.6 781.8,173.6 782.9,175.1 784.0,175.1 785.1,175.1 786.2,175.1 787.2,177.7 788.3,177.7 789.4,177.7 790.5,177.7 791.6,177.7 792.7,176.4 793.8,176.4 794.9,176.4 796.0,176.8"/>
<text x="640" y="56" font-family="Arial" font-size="12" fill="#0f766e">bax</text>
<polyline fill="none" stroke="#2563eb" stroke-width="2.3" points="52.0,196.9 53.1,196.9 54.2,196.9 55.3,196.9 56.4,196.9 57.5,196.9 58.6,196.9 59.7,196.9 60.8,196.9 61.8,196.9 62.9,196.9 64.0,196.9 65.1,196.9 66.2,198.2 67.3,198.2 68.4,198.2 69.5,198.2 70.6,198.2 71.7,198.2 72.8,198.2 73.9,198.2 75.0,267.0 76.1,267.0 77.2,267.0 78.3,210.2 79.4,210.2 80.4,210.2 81.5,210.2 82.6,210.2 83.7,236.0 84.8,236.0 85.9,236.0 87.0,181.3 88.1,181.3 89.2,181.3 90.3,181.3 91.4,181.3 92.5,239.4 93.6,239.4 94.7,239.4 95.8,206.1 96.9,206.1 98.0,206.1 99.0,206.1 100.1,193.2 101.2,193.2 102.3,193.2 103.4,193.2 104.5,193.2 105.6,274.0 106.7,274.0 107.8,274.0 108.9,256.1 110.0,256.1 111.1,256.1 112.2,256.1 113.3,256.1 114.4,254.1 115.5,254.1 116.6,254.1 117.6,254.1 118.7,249.9 119.8,249.9 120.9,249.9 122.0,235.0 123.1,235.0 124.2,235.0 125.3,235.0 126.4,235.0 127.5,230.3 128.6,230.3 129.7,230.3 130.8,230.3 131.9,229.4 133.0,229.4 134.1,229.4 135.2,229.4 136.2,230.7 137.3,230.7 138.4,230.7 139.5,240.6 140.6,240.6 141.7,240.6 142.8,240.6 143.9,240.6 145.0,231.2 146.1,231.2 147.2,231.2 148.3,231.2 149.4,237.6 150.5,237.6 151.6,237.6 152.7,237.6 153.8,233.7 154.8,233.7 155.9,233.7 157.0,233.7 158.1,230.4 159.2,230.4 160.3,230.4 161.4,230.4 162.5,240.6 163.6,240.6 164.7,240.6 165.8,240.6 166.9,238.0 168.0,238.0 169.1,238.0 170.2,231.1 171.3,231.1 172.4,231.1 173.4,231.1 174.5,231.1 175.6,223.4 176.7,223.4 177.8,223.4 178.9,223.4 180.0,227.6 181.1,227.6 182.2,227.6 183.3,227.5 184.4,219.3 185.5,219.3 186.6,219.3 187.7,219.3 188.8,220.4 189.9,220.4 191.0,220.4 192.0,219.4 193.1,219.4 194.2,219.4 195.3,219.4 196.4,221.5 197.5,221.5 198.6,221.5 199.7,221.5 200.8,217.1 201.9,217.1 203.0,217.1 204.1,217.1 205.2,217.1 206.3,216.0 207.4,216.0 208.5,216.0 209.6,215.0 210.6,215.0 211.7,215.0 212.8,215.0 213.9,215.0 215.0,209.2 216.1,209.2 217.2,209.2 218.3,213.4 219.4,213.4 220.5,213.4 221.6,213.4 222.7,213.4 223.8,215.3 224.9,215.3 226.0,215.3 227.1,215.3 228.2,214.7 229.2,214.7 230.3,214.7 231.4,212.0 232.5,212.0 233.6,212.0 234.7,212.0 235.8,212.0 236.9,213.3 238.0,213.3 239.1,213.3 240.2,213.3 241.3,213.0 242.4,213.0 243.5,213.0 244.6,213.0 245.7,218.1 246.8,218.1 247.8,218.1 248.9,218.1 250.0,212.7 251.1,212.7 252.2,212.7 253.3,212.7 254.4,213.9 255.5,213.9 256.6,213.9 257.7,215.6 258.8,215.6 259.9,215.6 261.0,215.6 262.1,215.6 263.2,215.3 264.3,215.3 265.4,215.3 266.4,215.3 267.5,215.3 268.6,215.3 269.7,215.3 270.8,215.2 271.9,215.2 273.0,215.2 274.1,215.2 275.2,215.2 276.3,218.8 277.4,218.8 278.5,218.8 279.6,218.4 280.7,218.4 281.8,218.4 282.9,218.4 284.0,212.6 285.0,212.6 286.1,212.6 287.2,212.6 288.3,212.6 289.4,212.8 290.5,212.8 291.6,212.8 292.7,212.9 293.8,212.9 294.9,212.9 296.0,212.9 297.1,212.9 298.2,212.4 299.3,212.4 300.4,212.4 301.5,212.4 302.6,214.7 303.6,214.7 304.7,214.7 305.8,215.6 306.9,215.6 308.0,215.6 309.1,215.6 310.2,215.3 311.3,215.3 312.4,215.3 313.5,215.3 314.6,215.1 315.7,215.1 316.8,215.1 317.9,215.1 319.0,213.4 320.1,213.4 321.2,213.4 322.2,213.4 323.3,212.0 324.4,212.0 325.5,212.0 326.6,212.0 327.7,213.7 328.8,213.7 329.9,213.7 331.0,213.7 332.1,215.2 333.2,215.2 334.3,215.2 335.4,215.2 336.5,215.2 337.6,212.8 338.7,212.8 339.8,212.8 340.8,217.2 341.9,217.2 343.0,217.2 344.1,217.2 345.2,217.2 346.3,214.5 347.4,214.5 348.5,214.5 349.6,215.3 350.7,215.3 351.8,215.3 352.9,215.3 354.0,214.3 355.1,214.3 356.2,214.3 357.3,214.3 358.4,213.5 359.4,213.5 360.5,213.5 361.6,213.5 362.7,213.5 363.8,211.3 364.9,211.3 366.0,211.3 367.1,211.8 368.2,211.8 369.3,211.8 370.4,211.8 371.5,214.6 372.6,214.6 373.7,214.6 374.8,214.6 375.9,209.5 377.0,209.5 378.0,209.5 379.1,209.5 380.2,209.5 381.3,215.6 382.4,215.6 383.5,215.6 384.6,215.6 385.7,218.5 386.8,218.5 387.9,218.5 389.0,218.5 390.1,212.6 391.2,212.6 392.3,212.6 393.4,209.1 394.5,209.1 395.6,209.1 396.6,209.1 397.7,209.1 398.8,212.4 399.9,212.4 401.0,212.4 402.1,210.7 403.2,210.7 404.3,210.7 405.4,210.7 406.5,210.7 407.6,214.5 408.7,214.5 409.8,214.5 410.9,214.5 412.0,214.5 413.1,214.5 414.2,214.5 415.2,214.6 416.3,214.6 417.4,214.6 418.5,214.6 419.6,214.8 420.7,214.8 421.8,214.8 422.9,214.8 424.0,214.4 425.1,214.4 426.2,214.4 427.3,214.4 428.4,216.7 429.5,216.7 430.6,216.7 431.7,216.7 432.8,217.1 433.8,217.1 434.9,217.1 436.0,217.1 437.1,218.8 438.2,218.8 439.3,218.8 440.4,218.8 441.5,218.8 442.6,215.6 443.7,215.6 444.8,215.6 445.9,222.1 447.0,222.1 448.1,222.1 449.2,222.1 450.3,215.8 451.4,215.8 452.4,215.8 453.5,215.8 454.6,213.9 455.7,213.9 456.8,213.9 457.9,213.9 459.0,213.9 460.1,207.0 461.2,207.0 462.3,207.0 463.4,207.0 464.5,212.5 465.6,212.5 466.7,212.5 467.8,212.5 468.9,211.2 470.0,211.2 471.0,211.2 472.1,211.2 473.2,212.7 474.3,212.7 475.4,212.7 476.5,211.4 477.6,211.4 478.7,211.4 479.8,211.4 480.9,213.2 482.0,213.2 483.1,213.2 484.2,213.2 485.3,215.7 486.4,215.7 487.5,215.7 488.6,215.7 489.6,215.7 490.7,215.1 491.8,215.1 492.9,215.1 494.0,217.0 495.1,217.0 496.2,217.0 497.3,217.0 498.4,218.6 499.5,218.6 500.6,218.6 501.7,218.6 502.8,219.6 503.9,219.6 505.0,219.6 506.1,219.6 507.2,219.6 508.2,221.5 509.3,221.5 510.4,221.5 511.5,220.9 512.6,220.9 513.7,220.9 514.8,220.9 515.9,220.6 517.0,220.6 518.1,220.6 519.2,220.6 520.3,220.6 521.4,224.0 522.5,224.0 523.6,224.0 524.7,221.6 525.8,221.6 526.8,221.6 527.9,221.6 529.0,219.0 530.1,219.0 531.2,219.0 532.3,219.0 533.4,217.8 534.5,217.8 535.6,217.8 536.7,217.8 537.8,217.8 538.9,212.3 540.0,212.3 541.1,212.3 542.2,212.3 543.3,214.8 544.4,214.8 545.4,214.8 546.5,216.4 547.6,216.4 548.7,216.4 549.8,216.4 550.9,216.4 552.0,217.5 553.1,217.5 554.2,217.5 555.3,218.2 556.4,218.2 557.5,218.2 558.6,218.2 559.7,218.0 560.8,218.0 561.9,218.0 563.0,218.0 564.0,218.7 565.1,218.7 566.2,218.7 567.3,218.7 568.4,218.7 569.5,218.7 570.6,218.7 571.7,218.7 572.8,218.7 573.9,217.3 575.0,217.3 576.1,217.3 577.2,217.3 578.3,217.3 579.4,217.3 580.5,217.3 581.6,217.3 582.6,216.1 583.7,216.1 584.8,216.1 585.9,216.1 587.0,219.0 588.1,219.0 589.2,219.0 590.3,219.0 591.4,218.6 592.5,218.6 593.6,218.6 594.7,218.6 595.8,221.1 596.9,221.1 598.0,221.1 599.1,221.1 600.2,219.4 601.2,219.4 602.3,219.4 603.4,219.4 604.5,215.3 605.6,215.3 606.7,215.3 607.8,215.3 608.9,215.3 610.0,215.3 611.1,215.3 612.2,215.3 613.3,215.1 614.4,215.1 615.5,215.1 616.6,215.7 617.7,215.7 618.8,215.7 619.8,215.7 620.9,215.8 622.0,215.8 623.1,215.8 624.2,215.8 625.3,215.8 626.4,215.8 627.5,215.8 628.6,215.8 629.7,215.8 630.8,213.1 631.9,213.1 633.0,213.1 634.1,213.1 635.2,213.1 636.3,213.1 637.4,213.1 638.4,215.7 639.5,215.7 640.6,215.7 641.7,215.7 642.8,214.1 643.9,214.1 645.0,214.1 646.1,214.1 647.2,217.7 648.3,217.7 649.4,217.7 650.5,217.7 651.6,218.2 652.7,218.2 653.8,218.2 654.9,218.2 656.0,218.2 657.0,220.1 658.1,220.1 659.2,220.1 660.3,220.1 661.4,216.0 662.5,216.0 663.6,216.0 664.7,216.9 665.8,216.9 666.9,216.9 668.0,216.9 669.1,215.6 670.2,215.6 671.3,215.6 672.4,215.6 673.5,214.7 674.6,214.7 675.6,214.7 676.7,214.7 677.8,214.7 678.9,215.1 680.0,215.1 681.1,215.1 682.2,215.1 683.3,213.2 684.4,213.2 685.5,213.2 686.6,212.4 687.7,212.4 688.8,212.4 689.9,212.4 691.0,212.4 692.1,211.7 693.2,211.7 694.2,211.7 695.3,212.9 696.4,212.9 697.5,212.9 698.6,212.9 699.7,213.8 700.8,213.8 701.9,213.8 703.0,213.8 704.1,213.8 705.2,213.6 706.3,213.6 707.4,213.6 708.5,214.3 709.6,214.3 710.7,214.3 711.8,214.3 712.8,215.7 713.9,215.7 715.0,215.7 716.1,215.7 717.2,215.7 718.3,214.2 719.4,214.2 720.5,214.2 721.6,214.2 722.7,215.3 723.8,215.3 724.9,215.3 726.0,217.0 727.1,217.0 728.2,217.0 729.3,217.0 730.4,215.8 731.4,215.8 732.5,215.8 733.6,215.8 734.7,215.1 735.8,215.1 736.9,215.1 738.0,215.1 739.1,215.1 740.2,212.6 741.3,212.6 742.4,212.6 743.5,212.6 744.6,213.2 745.7,213.2 746.8,213.2 747.9,213.6 749.0,213.6 750.0,213.6 751.1,213.6 752.2,213.5 753.3,213.8 754.4,213.8 755.5,213.8 756.6,213.0 757.7,213.0 758.8,213.0 759.9,213.0 761.0,213.0 762.1,213.7 763.2,213.7 764.3,213.7 765.4,217.6 766.5,217.6 767.6,217.6 768.6,217.6 769.7,217.6 770.8,216.5 771.9,216.5 773.0,216.5 774.1,215.2 775.2,215.2 776.3,215.2 777.4,215.2 778.5,217.7 779.6,217.7 780.7,217.7 781.8,217.7 782.9,219.3 784.0,219.3 785.1,219.3 786.2,219.3 787.2,219.5 788.3,219.5 789.4,219.5 790.5,219.5 791.6,219.5 792.7,218.0 793.8,218.0 794.9,218.0 796.0,217.7"/>
<text x="640" y="72" font-family="Arial" font-size="12" fill="#2563eb">bay</text>
<polyline fill="none" stroke="#b45309" stroke-width="2.3" points="52.0,196.9 53.1,196.9 54.2,196.9 55.3,196.9 56.4,196.9 57.5,196.9 58.6,196.9 59.7,196.9 60.8,196.9 61.8,196.9 62.9,199.1 64.0,199.1 65.1,199.1 66.2,188.6 67.3,188.6 68.4,188.6 69.5,188.6 70.6,188.6 71.7,188.6 72.8,188.6 73.9,187.7 75.0,154.0 76.1,154.0 77.2,148.4 78.3,101.4 79.4,100.9 80.4,100.9 81.5,100.9 82.6,102.3 83.7,131.4 84.8,130.5 85.9,130.5 87.0,72.4 88.1,72.6 89.2,72.6 90.3,72.6 91.4,69.9 92.5,42.0 93.6,44.2 94.7,44.2 95.8,62.6 96.9,61.3 98.0,61.3 99.0,62.2 100.1,132.4 101.2,132.4 102.3,131.8 103.4,131.8 104.5,131.8 105.6,122.2 106.7,122.8 107.8,122.3 108.9,168.3 110.0,166.7 111.1,166.7 112.2,166.7 113.3,167.2 114.4,196.3 115.5,196.3 116.6,196.3 117.6,197.8 118.7,190.1 119.8,190.1 120.9,193.7 122.0,194.6 123.1,193.0 124.2,193.0 125.3,193.0 126.4,194.2 127.5,200.0 128.6,202.4 129.7,202.4 130.8,202.4 131.9,199.6 133.0,199.6 134.1,199.6 135.2,198.5 136.2,177.5 137.3,176.6 138.4,176.6 139.5,165.7 140.6,163.3 141.7,163.3 142.8,165.2 143.9,165.2 145.0,169.7 146.1,170.3 147.2,170.3 148.3,168.2 149.4,159.5 150.5,159.4 151.6,159.4 152.7,159.4 153.8,167.3 154.8,167.3 155.9,167.3 157.0,165.3 158.1,158.5 159.2,158.5 160.3,158.9 161.4,155.7 162.5,163.1 163.6,163.1 164.7,162.4 165.8,162.4 166.9,168.3 168.0,168.3 169.1,168.3 170.2,172.7 171.3,172.7 172.4,171.1 173.4,171.1 174.5,171.1 175.6,173.3 176.7,173.3 177.8,173.0 178.9,173.0 180.0,174.8 181.1,174.8 182.2,174.8 183.3,174.1 184.4,177.0 185.5,177.0 186.6,176.5 187.7,176.5 188.8,172.3 189.9,172.7 191.0,172.7 192.0,176.9 193.1,176.9 194.2,178.0 195.3,178.8 196.4,176.9 197.5,175.9 198.6,175.9 199.7,175.9 200.8,178.7 201.9,178.4 203.0,178.4 204.1,178.4 205.2,178.0 206.3,175.6 207.4,175.6 208.5,175.5 209.6,175.3 210.6,175.3 211.7,173.8 212.8,173.8 213.9,173.4 215.0,174.9 216.1,174.0 217.2,174.2 218.3,171.7 219.4,171.2 220.5,171.2 221.6,171.7 222.7,171.7 223.8,173.6 224.9,173.1 226.0,173.1 227.1,173.1 228.2,171.8 229.2,171.9 230.3,171.9 231.4,173.7 232.5,174.5 233.6,174.5 234.7,174.2 235.8,174.2 236.9,179.9 238.0,180.0 239.1,180.3 240.2,180.3 241.3,181.5 242.4,181.5 243.5,181.4 244.6,181.4 245.7,180.8 246.8,180.4 247.8,180.4 248.9,180.2 250.0,178.1 251.1,178.1 252.2,177.5 253.3,177.5 254.4,177.3 255.5,176.8 256.6,176.8 257.7,181.4 258.8,181.4 259.9,181.5 261.0,181.5 262.1,181.5 263.2,180.5 264.3,180.5 265.4,180.5 266.4,180.3 267.5,180.3 268.6,179.6 269.7,179.6 270.8,177.8 271.9,177.8 273.0,177.8 274.1,176.8 275.2,176.8 276.3,179.3 277.4,179.0 278.5,179.0 279.6,176.9 280.7,176.9 281.8,176.3 282.9,176.3 284.0,176.7 285.0,175.9 286.1,175.9 287.2,175.9 288.3,175.1 289.4,173.6 290.5,173.7 291.6,173.7 292.7,175.3 293.8,175.3 294.9,175.3 296.0,175.5 297.1,175.5 298.2,175.3 299.3,175.1 300.4,175.1 301.5,174.5 302.6,177.8 303.6,177.7 304.7,176.9 305.8,176.0 306.9,176.0 308.0,176.4 309.1,176.4 310.2,177.7 311.3,177.7 312.4,177.8 313.5,177.8 314.6,178.9 315.7,178.9 316.8,178.9 317.9,178.8 319.0,178.2 320.1,178.5 321.2,178.5 322.2,178.5 323.3,177.3 324.4,177.3 325.5,177.1 326.6,177.1 327.7,177.8 328.8,177.8 329.9,177.8 331.0,178.2 332.1,180.7 333.2,180.7 334.3,180.0 335.4,180.0 336.5,181.2 337.6,179.2 338.7,179.2 339.8,178.7 340.8,181.0 341.9,182.3 343.0,182.3 344.1,182.3 345.2,182.2 346.3,181.9 347.4,182.1 348.5,182.1 349.6,179.3 350.7,179.5 351.8,179.5 352.9,179.5 354.0,181.2 355.1,181.2 356.2,180.8 357.3,180.8 358.4,182.9 359.4,182.9 360.5,182.9 361.6,183.0 362.7,183.0 363.8,181.3 364.9,181.3 366.0,181.3 367.1,180.6 368.2,180.6 369.3,180.5 370.4,180.6 371.5,180.3 372.6,180.9 373.7,180.9 374.8,180.2 375.9,184.5 377.0,184.5 378.0,184.7 379.1,184.7 380.2,184.7 381.3,182.4 382.4,182.4 383.5,182.4 384.6,182.5 385.7,179.5 386.8,178.3 387.9,178.3 389.0,177.7 390.1,178.8 391.2,179.0 392.3,179.0 393.4,177.0 394.5,176.8 395.6,176.8 396.6,176.8 397.7,176.8 398.8,177.6 399.9,177.3 401.0,177.3 402.1,178.5 403.2,178.2 404.3,178.2 405.4,177.6 406.5,177.6 407.6,178.5 408.7,178.5 409.8,178.5 410.9,182.4 412.0,182.4 413.1,182.2 414.2,182.0 415.2,184.2 416.3,184.8 417.4,184.8 418.5,184.3 419.6,184.7 420.7,184.7 421.8,184.8 422.9,184.8 424.0,182.1 425.1,182.1 426.2,182.1 427.3,182.9 428.4,187.0 429.5,187.0 430.6,186.8 431.7,186.8 432.8,188.5 433.8,188.5 434.9,189.0 436.0,188.5 437.1,182.7 438.2,182.3 439.3,182.3 440.4,182.3 441.5,182.5 442.6,180.9 443.7,180.7 444.8,180.7 445.9,187.2 447.0,187.6 448.1,187.6 449.2,187.4 450.3,188.9 451.4,188.9 452.4,188.9 453.5,188.9 454.6,186.4 455.7,186.4 456.8,186.7 457.9,186.4 459.0,186.4 460.1,185.5 461.2,185.5 462.3,185.5 463.4,185.2 464.5,183.6 465.6,183.9 466.7,183.9 467.8,184.2 468.9,184.4 470.0,184.4 471.0,184.4 472.1,184.4 473.2,183.5 474.3,183.5 475.4,183.5 476.5,179.8 477.6,179.8 478.7,180.0 479.8,180.2 480.9,180.0 482.0,179.5 483.1,179.5 484.2,180.0 485.3,179.5 486.4,179.5 487.5,179.4 488.6,179.4 489.6,179.0 490.7,179.4 491.8,179.4 492.9,179.4 494.0,178.4 495.1,178.4 496.2,178.2 497.3,178.2 498.4,179.4 499.5,179.4 500.6,179.9 501.7,179.9 502.8,179.3 503.9,179.5 505.0,179.5 506.1,179.5 507.2,178.8 508.2,182.4 509.3,182.6 510.4,182.6 511.5,180.6 512.6,180.6 513.7,180.6 514.8,181.1 515.9,178.4 517.0,178.6 518.1,178.6 519.2,178.6 520.3,178.7 521.4,175.7 522.5,175.2 523.6,175.5 524.7,172.7 525.8,172.5 526.8,172.5 527.9,172.5 529.0,170.1 530.1,170.1 531.2,170.2 532.3,170.2 533.4,172.8 534.5,172.9 535.6,172.9 536.7,173.4 537.8,173.4 538.9,171.1 540.0,171.0 541.1,171.0 542.2,170.7 543.3,169.0 544.4,169.3 545.4,169.5 546.5,166.7 547.6,167.4 548.7,167.4 549.8,167.4 550.9,168.3 552.0,168.9 553.1,168.6 554.2,168.6 555.3,169.0 556.4,169.0 557.5,169.0 558.6,168.9 559.7,167.3 560.8,167.8 561.9,167.8 563.0,166.8 564.0,168.2 565.1,168.2 566.2,168.0 567.3,168.0 568.4,168.0 569.5,171.8 570.6,171.8 571.7,172.2 572.8,172.2 573.9,172.8 575.0,173.3 576.1,173.3 577.2,173.2 578.3,173.2 579.4,173.2 580.5,173.2 581.6,173.2 582.6,176.4 583.7,176.4 584.8,176.2 585.9,176.2 587.0,179.1 588.1,180.0 589.2,180.0 590.3,180.0 591.4,183.8 592.5,183.8 593.6,183.8 594.7,183.8 595.8,180.2 596.9,179.9 598.0,179.9 599.1,180.1 600.2,177.7 601.2,177.7 602.3,177.2 603.4,177.2 604.5,174.8 605.6,174.6 606.7,174.6 607.8,172.8 608.9,172.8 610.0,173.1 611.1,173.1 612.2,173.1 613.3,171.9 614.4,171.9 615.5,172.8 616.6,173.5 617.7,173.5 618.8,173.5 619.8,173.5 620.9,173.2 622.0,173.2 623.1,173.2 624.2,173.8 625.3,173.8 626.4,173.8 627.5,173.7 628.6,173.7 629.7,173.7 630.8,172.7 631.9,172.5 633.0,172.5 634.1,172.5 635.2,171.2 636.3,171.2 637.4,171.2 638.4,171.6 639.5,171.6 640.6,171.7 641.7,171.7 642.8,171.7 643.9,171.7 645.0,171.7 646.1,171.8 647.2,169.5 648.3,170.5 649.4,170.5 650.5,170.5 651.6,168.8 652.7,168.8 653.8,168.6 654.9,168.8 656.0,168.8 657.0,169.3 658.1,169.3 659.2,169.3 660.3,169.3 661.4,170.8 662.5,171.0 663.6,171.0 664.7,174.1 665.8,174.3 666.9,174.3 668.0,174.4 669.1,172.5 670.2,171.9 671.3,171.9 672.4,171.9 673.5,171.8 674.6,171.8 675.6,172.2 676.7,172.2 677.8,172.2 678.9,175.5 680.0,175.5 681.1,175.7 682.2,175.7 683.3,177.3 684.4,177.1 685.5,177.1 686.6,176.7 687.7,176.7 688.8,176.7 689.9,176.9 691.0,176.9 692.1,176.3 693.2,176.7 694.2,176.7 695.3,178.6 696.4,178.6 697.5,178.7 698.6,179.1 699.7,178.5 700.8,178.7 701.9,178.7 703.0,178.9 704.1,178.9 705.2,177.7 706.3,178.0 707.4,178.0 708.5,178.8 709.6,178.9 710.7,178.9 711.8,179.3 712.8,179.0 713.9,179.0 715.0,179.0 716.1,179.0 717.2,179.3 718.3,178.4 719.4,178.4 720.5,178.4 721.6,178.4 722.7,180.4 723.8,180.4 724.9,181.1 726.0,180.7 727.1,180.7 728.2,181.0 729.3,181.0 730.4,179.1 731.4,179.0 732.5,179.0 733.6,178.8 734.7,179.8 735.8,179.7 736.9,179.7 738.0,179.7 739.1,179.5 740.2,180.5 741.3,180.7 742.4,180.6 743.5,180.6 744.6,181.3 745.7,181.3 746.8,181.3 747.9,179.8 749.0,179.8 750.0,179.7 751.1,179.7 752.2,179.6 753.3,180.7 754.4,180.7 755.5,180.7 756.6,179.2 757.7,179.1 758.8,179.1 759.9,179.1 761.0,179.0 762.1,178.8 763.2,178.9 764.3,178.7 765.4,177.9 766.5,178.0 767.6,178.0 768.6,178.0 769.7,177.8 770.8,179.7 771.9,179.9 773.0,179.9 774.1,178.0 775.2,178.0 776.3,178.0 777.4,177.9 778.5,179.1 779.6,179.0 780.7,179.0 781.8,179.0 782.9,180.3 784.0,180.3 785.1,180.6 786.2,180.6 787.2,181.3 788.3,181.3 789.4,181.3 790.5,181.4 791.6,181.4 792.7,181.4 793.8,181.4 794.9,181.4 796.0,180.1"/>
<text x="640" y="88" font-family="Arial" font-size="12" fill="#b45309">baz</text>
</svg>