<svg xmlns="http://www.w3.org/2000/svg" width="820" height="320" viewBox="0 0 820 320">
<rect width="100%" height="100%" fill="white"/>
<text x="52" y="30" font-family="Arial" font-size="18" font-weight="700">adaptive_nominal accelerometer bias estimates</text>
<line x1="52" y1="274" x2="796" y2="274" stroke="#263238"/>
<line x1="52" y1="42" x2="52" y2="274" stroke="#263238"/>
<text x="52" y="306" font-family="Arial" font-size="12">time (s)</text>
<text x="630" y="306" font-family="Arial" font-size="12">m/s^2</text>

<polyline fill="none" stroke="#0f766e" stroke-width="2.3" points="52.0,201.3 53.1,201.3 54.2,201.3 55.3,201.3 56.4,201.3 57.5,201.3 58.6,201.3 59.7,201.3 60.8,201.3 61.8,201.3 62.9,201.3 64.0,201.3 65.1,201.3 66.2,199.7 67.3,199.7 68.4,199.7 69.5,199.7 70.6,199.7 71.7,199.7 72.8,199.7 73.9,199.7 75.0,135.6 76.1,135.6 77.2,135.6 78.3,132.1 79.4,132.1 80.4,132.1 81.5,132.1 82.6,132.1 83.7,95.7 84.8,95.7 85.9,95.7 87.0,154.9 88.1,154.9 89.2,154.9 90.3,154.9 91.4,154.9 92.5,268.7 93.6,268.7 94.7,268.7 95.8,218.2 96.9,218.2 98.0,218.2 99.0,218.2 100.1,222.1 101.2,222.1 102.3,222.1 103.4,222.1 104.5,222.1 105.6,182.0 106.7,182.0 107.8,182.0 108.9,171.8 110.0,171.8 111.1,171.8 112.2,171.8 113.3,171.8 114.4,187.3 115.5,187.3 116.6,187.3 117.6,187.3 118.7,204.9 119.8,204.9 120.9,204.9 122.0,190.0 123.1,190.0 124.2,190.0 125.3,190.0 126.4,190.0 127.5,189.5 128.6,189.5 129.7,189.5 130.8,189.5 131.9,190.1 133.0,190.1 134.1,190.1 135.2,190.1 136.2,171.7 137.3,171.7 138.4,171.7 139.5,192.7 140.6,192.7 141.7,192.7 142.8,192.7 143.9,192.7 145.0,185.2 146.1,185.2 147.2,185.2 148.3,185.2 149.4,184.5 150.5,184.5 151.6,184.5 152.7,184.5 153.8,180.0 154.8,180.0 155.9,180.0 157.0,180.0 158.1,179.9 159.2,179.9 160.3,179.9 161.4,179.9 162.5,178.0 163.6,178.0 164.7,178.0 165.8,178.0 166.9,180.4 168.0,180.4 169.1,180.4 170.2,177.2 171.3,177.2 172.4,177.2 173.4,177.2 174.5,177.2 175.6,173.1 176.7,173.1 177.8,173.1 178.9,173.1 180.0,173.5 181.1,173.5 182.2,173.5 183.3,173.3 184.4,171.1 185.5,171.1 186.6,171.1 187.7,171.1 188.8,169.1 189.9,169.1 191.0,169.1 192.0,172.4 193.1,172.4 194.2,172.4 195.3,172.4 196.4,174.4 197.5,174.4 198.6,174.4 199.7,174.4 200.8,172.7 201.9,172.7 203.0,172.7 204.1,172.7 205.2,172.7 206.3,176.5 207.4,176.5 208.5,176.5 209.6,175.0 210.6,175.0 211.7,175.0 212.8,175.0 213.9,175.0 215.0,176.5 216.1,176.5 217.2,176.5 218.3,176.9 219.4,176.9 220.5,176.9 221.6,176.9 222.7,176.9 223.8,178.5 224.9,178.5 226.0,178.5 227.1,178.4 228.2,181.1 229.2,181.1 230.3,181.1 231.4,181.5 232.5,181.5 233.6,181.5 234.7,181.5 235.8,181.5 236.9,178.3 238.0,178.3 239.1,178.3 240.2,178.3 241.3,177.0 242.4,177.0 243.5,177.0 244.6,177.0 245.7,179.2 246.8,179.2 247.8,179.2 248.9,179.2 250.0,179.7 251.1,179.7 252.2,179.7 253.3,179.7 254.4,179.9 255.5,179.9 256.6,179.9 257.7,177.3 258.8,177.3 259.9,177.3 261.0,177.3 262.1,177.3 263.2,177.6 264.3,177.6 265.4,177.6 266.4,177.6 267.5,177.6 268.6,177.6 269.7,177.6 270.8,177.6 271.9,177.6 273.0,177.6 274.1,177.6 275.2,177.6 276.3,178.6 277.4,178.6 278.5,178.6 279.6,177.7 280.7,177.7 281.8,177.7 282.9,177.7 284.0,177.4 285.0,177.4 286.1,177.4 287.2,177.4 288.3,177.4 289.4,177.1 290.5,177.1 291.6,177.1 292.7,181.1 293.8,181.1 294.9,181.1 296.0,181.1 297.1,181.1 298.2,183.8 299.3,183.8 300.4,183.8 301.5,183.8 302.6,182.9 303.6,182.9 304.7,182.9 305.8,183.1 306.9,183.1 308.0,183.1 309.1,183.1 310.2,182.4 311.3,182.4 312.4,182.4 313.5,182.4 314.6,180.7 315.7,180.7 316.8,180.7 317.9,180.7 319.0,183.3 320.1,183.3 321.2,183.3 322.2,183.3 323.3,180.7 324.4,180.7 325.5,180.7 326.6,180.7 327.7,180.8 328.8,180.8 329.9,180.8 331.0,180.8 332.1,182.3 333.2,182.3 334.3,182.3 335.4,182.3 336.5,182.3 337.6,182.3 338.7,182.3 339.8,182.3 340.8,181.8 341.9,181.8 343.0,181.8 344.1,181.8 345.2,181.8 346.3,182.7 347.4,182.7 348.5,182.7 349.6,181.2 350.7,181.2 351.8,181.2 352.9,181.2 354.0,182.3 355.1,182.3 356.2,182.3 357.3,182.3 358.4,180.4 359.4,180.4 360.5,180.4 361.6,180.4 362.7,180.4 363.8,181.2 364.9,181.2 366.0,181.2 367.1,181.5 368.2,181.5 369.3,181.5 370.4,181.5 371.5,182.7 372.6,182.7 373.7,182.7 374.8,182.7 375.9,183.9 377.0,183.9 378.0,183.9 379.1,183.9 380.2,183.9 381.3,183.2 382.4,183.2 383.5,183.2 384.6,183.2 385.7,183.5 386.8,183.5 387.9,183.5 389.0,183.5 390.1,182.9 391.2,182.9 392.3,182.9 393.4,184.2 394.5,184.2 395.6,184.2 396.6,184.2 397.7,184.2 398.8,184.2 399.9,184.2 401.0,184.2 402.1,183.9 403.2,183.9 404.3,183.9 405.4,183.9 406.5,183.9 407.6,182.1 408.7,182.1 409.8,182.1 410.9,182.8 412.0,182.8 413.1,182.8 414.2,182.8 415.2,182.6 416.3,182.6 417.4,182.6 418.5,182.6 419.6,181.9 420.7,181.9 421.8,181.9 422.9,181.9 424.0,181.7 425.1,181.7 426.2,181.7 427.3,181.7 428.4,181.3 429.5,181.3 430.6,181.3 431.7,181.3 432.8,182.4 433.8,182.4 434.9,182.4 436.0,182.4 437.1,181.9 438.2,181.9 439.3,181.9 440.4,181.9 441.5,181.9 442.6,181.5 443.7,181.5 444.8,181.5 445.9,183.3 447.0,183.3 448.1,183.3 449.2,183.3 450.3,184.9 451.4,184.9 452.4,184.9 453.5,184.9 454.6,184.4 455.7,184.4 456.8,184.4 457.9,184.4 459.0,184.4 460.1,184.3 461.2,184.3 462.3,184.3 463.4,184.3 464.5,184.5 465.6,184.5 466.7,184.5 467.8,184.5 468.9,185.3 470.0,185.3 471.0,185.3 472.1,185.3 473.2,185.7 474.3,185.7 475.4,185.7 476.5,184.5 477.6,184.5 478.7,184.5 479.8,184.5 480.9,183.5 482.0,183.5 483.1,183.5 484.2,183.5 485.3,183.5 486.4,183.5 487.5,183.5 488.6,183.5 489.6,183.4 490.7,182.7 491.8,182.7 492.9,182.7 494.0,183.6 495.1,183.6 496.2,183.6 497.3,183.6 498.4,182.9 499.5,182.9 500.6,182.9 501.7,182.9 502.8,182.9 503.9,182.9 505.0,182.9 506.1,182.9 507.2,182.9 508.2,183.3 509.3,183.3 510.4,183.3 511.5,183.4 512.6,183.4 513.7,183.4 514.8,183.4 515.9,184.3 517.0,184.3 518.1,184.3 519.2,184.3 520.3,184.3 521.4,183.1 522.5,183.1 523.6,183.1 524.7,183.1 525.8,183.1 526.8,183.1 527.9,183.1 529.0,182.7 530.1,182.7 531.2,182.7 532.3,182.7 533.4,182.4 534.5,182.4 535.6,182.4 536.7,182.4 537.8,182.4 538.9,182.1 540.0,182.1 541.1,182.1 542.2,182.1 543.3,182.1 544.4,182.1 545.4,182.1 546.5,181.9 547.6,181.9 548.7,181.9 549.8,181.9 550.9,181.9 552.0,183.3 553.1,183.3 554.2,183.3 555.3,183.4 556.4,183.4 557.5,183.4 558.6,183.4 559.7,183.6 560.8,183.6 561.9,183.6 563.0,183.6 564.0,183.7 565.1,183.7 566.2,183.7 567.3,183.7 568.4,183.7 569.5,183.8 570.6,183.8 571.7,183.8 572.8,183.8 573.9,183.7 575.0,183.7 576.1,183.7 577.2,183.5 578.3,183.5 579.4,183.5 580.5,183.5 581.6,183.5 582.6,183.1 583.7,183.1 584.8,183.1 585.9,183.1 587.0,183.2 588.1,183.2 589.2,183.2 590.3,183.2 591.4,183.4 592.5,183.4 593.6,183.4 594.7,183.4 595.8,183.4 596.9,183.4 598.0,183.4 599.1,183.4 600.2,183.6 601.2,183.6 602.3,183.6 603.4,183.6 604.5,183.6 605.6,183.6 606.7,183.6 607.8,183.6 608.9,183.6 610.0,183.6 611.1,183.6 612.2,183.6 613.3,183.4 614.4,183.4 615.5,183.4 616.6,183.4 617.7,183.4 618.8,183.4 619.8,183.4 620.9,183.3 622.0,183.3 623.1,183.3 624.2,183.3 625.3,183.3 626.4,183.3 627.5,183.3 628.6,183.3 629.7,183.3 630.8,183.3 631.9,183.3 633.0,183.3 634.1,183.3 635.2,183.3 636.3,183.3 637.4,183.3 638.4,183.6 639.5,183.6 640.6,183.6 641.7,183.6 642.8,183.4 643.9,183.4 645.0,183.4 646.1,183.4 647.2,183.4 648.3,183.4 649.4,183.4 650.5,183.4 651.6,183.5 652.7,183.5 653.8,183.5 654.9,183.5 656.0,183.5 657.0,183.6 658.1,183.6 659.2,183.6 660.3,183.6 661.4,183.6 662.5,183.6 663.6,183.6 664.7,183.2 665.8,183.2 666.9,183.2 668.0,183.2 669.1,183.4 670.2,183.4 671.3,183.4 672.4,183.4 673.5,183.5 674.6,183.5 675.6,183.5 676.7,183.5 677.8,183.5 678.9,183.7 680.0,183.7 681.1,183.7 682.2,183.7 683.3,183.3 684.4,183.3 685.5,183.3 686.6,183.3 687.7,183.3 688.8,183.3 689.9,183.3 691.0,183.3 692.1,183.9 693.2,183.9 694.2,183.9 695.3,183.5 696.4,183.5 697.5,183.5 698.6,183.5 699.7,183.5 700.8,183.5 701.9,183.5 703.0,183.5 704.1,183.5 705.2,183.7 706.3,183.7 707.4,183.7 708.5,182.7 709.6,182.7 710.7,182.7 711.8,182.7 712.8,183.2 713.9,183.2 715.0,183.2 716.1,183.2 717.2,183.2 718.3,182.9 719.4,182.9 720.5,182.9 721.6,182.9 722.7,183.0 723.8,183.0 724.9,183.0 726.0,182.1 727.1,182.1 728.2,182.1 729.3,182.1 730.4,182.8 731.4,182.8 732.5,182.8 733.6,182.8 734.7,183.0 735.8,183.0 736.9,183.0 738.0,183.0 739.1,183.0 740.2,182.5 741.3,182.5 742.4,182.5 743.5,182.5 744.6,183.2 745.7,183.2 746.8,183.2 747.9,182.0 749.0,182.0 750.0,182.0 751.1,182.0 752.2,181.9 753.3,182.0 754.4,182.0 755.5,182.0 756.6,181.2 757.7,181.2 758.8,181.2 759.9,181.2 761.0,181.2 762.1,180.5 763.2,180.5 764.3,180.5 765.4,181.2 766.5,181.2 767.6,181.2 768.6,181.2 769.7,181.2 770.8,182.2 771.9,182.2 773.0,182.2 774.1,182.5 775.2,182.5 776.3,182.5 777.4,182.5 778.5,181.6 779.6,181.6 780.7,181.6 781.8,181.6 782.9,182.2 784.0,182.2 785.1,182.2 786.2,182.2 787.2,183.2 788.3,183.2 789.4,183.2 790.5,183.2 791.6,183.2 792.7,182.8 793.8,182.8 794.9,182.8 796.0,182.9"/>
<text x="640" y="56" font-family="Arial" font-size="12" fill="#0f766e">bax</text>
<polyline fill="none" stroke="#2563eb" stroke-width="2.3" points="52.0,201.3 53.1,201.3 54.2,201.3 55.3,201.3 56.4,201.3 57.5,201.3 58.6,201.3 59.7,201.3 60.8,201.3 61.8,201.3 62.9,201.3 64.0,201.3 65.1,201.3 66.2,202.5 67.3,202.5 68.4,202.5 69.5,202.5 70.6,202.5 71.7,202.5 72.8,202.5 73.9,202.5 75.0,266.3 76.1,266.3 77.2,266.3 78.3,214.1 79.4,214.1 80.4,214.1 81.5,214.1 82.6,214.1 83.7,237.5 84.8,237.5 85.9,237.5 87.0,184.4 88.1,184.4 89.2,184.4 90.3,184.4 91.4,184.4 92.5,240.2 93.6,240.2 94.7,240.2 95.8,211.4 96.9,211.4 98.0,211.4 99.0,211.4 100.1,198.9 101.2,198.9 102.3,198.9 103.4,198.9 104.5,198.9 105.6,274.0 106.7,274.0 107.8,274.0 108.9,258.5 110.0,258.5 111.1,258.5 112.2,258.5 113.3,258.5 114.4,256.8 115.5,256.8 116.6,256.8 117.6,256.8 118.7,252.4 119.8,252.4 120.9,252.4 122.0,237.6 123.1,237.6 124.2,237.6 125.3,237.6 126.4,237.6 127.5,232.4 128.6,232.4 129.7,232.4 130.8,232.4 131.9,231.2 133.0,231.2 134.1,231.2 135.2,231.2 136.2,232.4 137.3,232.4 138.4,232.4 139.5,241.9 140.6,241.9 141.7,241.9 142.8,241.9 143.9,241.9 145.0,233.4 146.1,233.4 147.2,233.4 148.3,233.4 149.4,239.0 150.5,239.0 151.6,239.0 152.7,239.0 153.8,235.5 154.8,235.5 155.9,235.5 157.0,235.5 158.1,232.5 159.2,232.5 160.3,232.5 161.4,232.5 162.5,241.0 163.6,241.0 164.7,241.0 165.8,241.0 166.9,239.1 168.0,239.1 169.1,239.1 170.2,233.2 171.3,233.2 172.4,233.2 173.4,233.2 174.5,233.2 175.6,226.8 176.7,226.8 177.8,226.8 178.9,226.8 180.0,229.6 181.1,229.6 182.2,229.6 183.3,229.5 184.4,222.7 185.5,222.7 186.6,222.7 187.7,222.7 188.8,222.9 189.9,222.9 191.0,222.9 192.0,221.8 193.1,221.8 194.2,221.8 195.3,221.8 196.4,223.1 197.5,223.1 198.6,223.1 199.7,223.1 200.8,219.6 201.9,219.6 203.0,219.6 204.1,219.6 205.2,219.6 206.3,218.4 207.4,218.4 208.5,218.4 209.6,217.3 210.6,217.3 211.7,217.3 212.8,217.3 213.9,217.3 215.0,212.8 216.1,212.8 217.2,212.8 218.3,215.4 219.4,215.4 220.5,215.4 221.6,215.4 222.7,215.4 223.8,216.4 224.9,216.4 226.0,216.4 227.1,216.5 228.2,216.0 229.2,216.0 230.3,216.0 231.4,213.9 232.5,213.9 233.6,213.9 234.7,213.9 235.8,213.9 236.9,214.7 238.0,214.7 239.1,214.7 240.2,214.7 241.3,214.3 242.4,214.3 243.5,214.3 244.6,214.3 245.7,218.7 246.8,218.7 247.8,218.7 248.9,218.7 250.0,213.8 251.1,213.8 252.2,213.8 253.3,213.8 254.4,214.8 255.5,214.8 256.6,214.8 257.7,216.3 258.8,216.3 259.9,216.3 261.0,216.3 262.1,216.3 263.2,216.1 264.3,216.1 265.4,216.1 266.4,216.1 267.5,216.1 268.6,216.1 269.7,216.1 270.8,216.0 271.9,216.0 273.0,216.0 274.1,216.0 275.2,216.0 276.3,218.9 277.4,218.9 278.5,218.9 279.6,218.8 280.7,218.8 281.8,218.8 282.9,218.8 284.0,214.5 285.0,214.5 286.1,214.5 287.2,214.5 288.3,214.5 289.4,214.5 290.5,214.5 291.6,214.5 292.7,214.6 293.8,214.6 294.9,214.6 296.0,214.6 297.1,214.6 298.2,214.1 299.3,214.1 300.4,214.1 301.5,214.1 302.6,215.6 303.6,215.6 304.7,215.6 305.8,216.1 306.9,216.1 308.0,216.1 309.1,216.1 310.2,216.0 311.3,216.0 312.4,216.0 313.5,216.0 314.6,216.0 315.7,216.0 316.8,216.0 317.9,216.0 319.0,215.2 320.1,215.2 321.2,215.2 322.2,215.2 323.3,214.4 324.4,214.4 325.5,214.4 326.6,214.4 327.7,215.3 328.8,215.3 329.9,215.3 331.0,215.3 332.1,216.0 333.2,216.0 334.3,216.0 335.4,216.0 336.5,216.0 337.6,214.9 338.7,214.9 339.8,214.9 340.8,217.1 341.9,217.1 343.0,217.1 344.1,217.1 345.2,217.1 346.3,216.2 347.4,216.2 348.5,216.2 349.6,216.5 350.7,216.5 351.8,216.5 352.9,216.5 354.0,216.1 355.1,216.1 356.2,216.1 357.3,216.1 358.4,215.9 359.4,215.9 360.5,215.9 361.6,215.9 362.7,215.9 363.8,215.1 364.9,215.1 366.0,215.1 367.1,215.1 368.2,215.1 369.3,215.1 370.4,215.1 371.5,216.2 372.6,216.2 373.7,216.2 374.8,216.2 375.9,213.8 377.0,213.8 378.0,213.8 379.1,213.8 380.2,213.8 381.3,216.3 382.4,216.3 383.5,216.3 384.6,216.3 385.7,217.6 386.8,217.6 387.9,217.6 389.0,217.6 390.1,215.4 391.2,215.4 392.3,215.4 393.4,213.9 394.5,213.9 395.6,213.9 396.6,213.9 397.7,213.9 398.8,215.0 399.9,215.0 401.0,215.0 402.1,214.3 403.2,214.3 404.3,214.3 405.4,214.3 406.5,214.3 407.6,215.6 408.7,215.6 409.8,215.6 410.9,215.6 412.0,215.6 413.1,215.6 414.2,215.6 415.2,215.7 416.3,215.7 417.4,215.7 418.5,215.7 419.6,215.8 420.7,215.8 421.8,215.8 422.9,215.8 424.0,215.8 425.1,215.8 426.2,215.8 427.3,215.8 428.4,216.6 429.5,216.6 430.6,216.6 431.7,216.6 432.8,216.8 433.8,216.8 434.9,216.8 436.0,216.8 437.1,217.4 438.2,217.4 439.3,217.4 440.4,217.4 441.5,217.4 442.6,216.7 443.7,216.7 444.8,216.7 445.9,218.7 447.0,218.7 448.1,218.7 449.2,218.7 450.3,217.0 451.4,217.0 452.4,217.0 453.5,217.0 454.6,216.5 455.7,216.5 456.8,216.5 457.9,216.5 459.0,216.5 460.1,214.5 461.2,214.5 462.3,214.5 463.4,214.5 464.5,215.8 465.6,215.8 466.7,215.8 467.8,215.8 468.9,215.4 470.0,215.4 471.0,215.4 472.1,215.4 473.2,215.7 474.3,215.7 475.4,215.7 476.5,215.3 477.6,215.3 478.7,215.3 479.8,215.3 480.9,215.8 482.0,215.8 483.1,215.8 484.2,215.8 485.3,216.7 486.4,216.7 487.5,216.7 488.6,216.7 489.6,216.7 490.7,216.5 491.8,216.5 492.9,216.5 494.0,217.3 495.1,217.3 496.2,217.3 497.3,217.3 498.4,217.9 499.5,217.9 500.6,217.9 501.7,217.9 502.8,218.3 503.9,218.3 505.0,218.3 506.1,218.3 507.2,218.3 508.2,219.1 509.3,219.1 510.4,219.1 511.5,219.1 512.6,219.1 513.7,219.1 514.8,219.1 515.9,219.1 517.0,219.1 518.1,219.1 519.2,219.1 520.3,219.1 521.4,220.3 522.5,220.3 523.6,220.3 524.7,219.7 525.8,219.7 526.8,219.7 527.9,219.7 529.0,219.2 530.1,219.2 531.2,219.2 532.3,219.2 533.4,218.9 534.5,218.9 535.6,218.9 536.7,218.9 537.8,218.9 538.9,217.5 540.0,217.5 541.1,217.5 542.2,217.5 543.3,217.9 544.4,217.9 545.4,217.9 546.5,218.2 547.6,218.2 548.7,218.2 549.8,218.2 550.9,218.2 552.0,218.4 553.1,218.4 554.2,218.4 555.3,218.6 556.4,218.6 557.5,218.6 558.6,218.6 559.7,218.5 560.8,218.5 561.9,218.5 563.0,218.5 564.0,218.7 565.1,218.7 566.2,218.7 567.3,218.7 568.4,218.7 569.5,218.8 570.6,218.8 571.7,218.8 572.8,218.8 573.9,218.4 575.0,218.4 576.1,218.4 577.2,218.4 578.3,218.4 579.4,218.4 580.5,218.4 581.6,218.4 582.6,218.1 583.7,218.1 584.8,218.1 585.9,218.1 587.0,218.6 588.1,218.6 589.2,218.6 590.3,218.6 591.4,218.6 592.5,218.6 593.6,218.6 594.7,218.6 595.8,219.0 596.9,219.0 598.0,219.0 599.1,219.0 600.2,218.9 601.2,218.9 602.3,218.9 603.4,218.9 604.5,218.4 605.6,218.4 606.7,218.4 607.8,218.4 608.9,218.4 610.0,218.4 611.1,218.4 612.2,218.4 613.3,218.3 614.4,218.3 615.5,218.3 616.6,218.3 617.7,218.3 618.8,218.3 619.8,218.3 620.9,218.3 622.0,218.3 623.1,218.3 624.2,218.3 625.3,218.3 626.4,218.3 627.5,218.3 628.6,218.3 629.7,218.3 630.8,217.9 631.9,217.9 633.0,217.9 634.1,217.9 635.2,217.9 636.3,217.9 637.4,217.9 638.4,218.1 639.5,218.1 640.6,218.1 641.7,218.1 642.8,217.9 643.9,217.9 645.0,217.9 646.1,217.9 647.2,218.2 648.3,218.2 649.4,218.2 650.5,218.2 651.6,218.3 652.7,218.3 653.8,218.3 654.9,218.3 656.0,218.3 657.0,218.6 658.1,218.6 659.2,218.6 660.3,218.6 661.4,218.0 662.5,218.0 663.6,218.0 664.7,218.2 665.8,218.2 666.9,218.2 668.0,218.2 669.1,217.9 670.2,217.9 671.3,217.9 672.4,217.9 673.5,217.7 674.6,217.7 675.6,217.7 676.7,217.7 677.8,217.7 678.9,217.7 680.0,217.7 681.1,217.7 682.2,217.7 683.3,217.1 684.4,217.1 685.5,217.1 686.6,216.7 687.7,216.7 688.8,216.7 689.9,216.7 691.0,216.7 692.1,216.4 693.2,216.4 694.2,216.4 695.3,216.6 696.4,216.6 697.5,216.6 698.6,216.6 699.7,216.9 700.8,216.9 701.9,216.9 703.0,216.9 704.1,216.9 705.2,216.7 706.3,216.7 707.4,216.7 708.5,216.9 709.6,216.9 710.7,216.9 711.8,216.9 712.8,217.5 713.9,217.5 715.0,217.5 716.1,217.5 717.2,217.5 718.3,216.8 719.4,216.8 720.5,216.8 721.6,216.8 722.7,217.3 723.8,217.3 724.9,217.3 726.0,218.1 727.1,218.1 728.2,218.1 729.3,218.1 730.4,217.6 731.4,217.6 732.5,217.6 733.6,217.6 734.7,217.3 735.8,217.3 736.9,217.3 738.0,217.3 739.1,217.3 740.2,216.3 741.3,216.3 742.4,216.3 743.5,216.3 744.6,216.4 745.7,216.4 746.8,216.4 747.9,216.5 749.0,216.5 750.0,216.5 751.1,216.5 752.2,216.4 753.3,216.5 754.4,216.5 755.5,216.5 756.6,216.2 757.7,216.2 758.8,216.2 759.9,216.2 761.0,216.2 762.1,216.4 763.2,216.4 764.3,216.4 765.4,218.0 766.5,218.0 767.6,218.0 768.6,218.0 769.7,218.0 770.8,217.7 771.9,217.7 773.0,217.7 774.1,217.2 775.2,217.2 776.3,217.2 777.4,217.2 778.5,218.3 779.6,218.3 780.7,218.3 781.8,218.3 782.9,219.0 784.0,219.0 785.1,219.0 786.2,219.0 787.2,219.2 788.3,219.2 789.4,219.2 790.5,219.2 791.6,219.2 792.7,218.7 793.8,218.7 794.9,218.7 796.0,218.6"/>
<text x="640" y="72" font-family="Arial" font-size="12" fill="#2563eb">bay</text>
<polyline fill="none" stroke="#b45309" stroke-width="2.3" points="52.0,201.3 53.1,201.3 54.2,201.3 55.3,201.3 56.4,201.3 57.5,201.3 58.6,201.3 59.7,201.3 60.8,201.3 61.8,201.3 62.9,203.9 64.0,203.9 65.1,203.9 66.2,186.2 67.3,186.2 68.4,186.2 69.5,186.2 70.6,186.2 71.7,186.2 72.8,186.2 73.9,184.7 75.0,149.2 76.1,149.2 77.2,140.5 78.3,95.0 79.4,93.1 80.4,93.1 81.5,93.1 82.6,93.5 83.7,121.3 84.8,121.5 85.9,121.5 87.0,66.7 88.1,66.7 89.2,66.7 90.3,66.7 91.4,65.1 92.5,42.0 93.6,43.5 94.7,43.5 95.8,63.4 96.9,62.4 98.0,62.4 99.0,63.1 100.1,131.3 101.2,131.3 102.3,130.8 103.4,130.8 104.5,130.8 105.6,124.3 106.7,125.3 107.8,124.8 108.9,168.4 110.0,167.1 111.1,167.1 112.2,167.1 113.3,167.4 114.4,195.9 115.5,195.9 116.6,195.9 117.6,196.5 118.7,191.8 119.8,191.8 120.9,195.1 122.0,197.4 123.1,196.0 124.2,196.0 125.3,196.0 126.4,197.2 127.5,204.1 128.6,207.0 129.7,207.0 130.8,207.0 131.9,204.2 133.0,204.2 134.1,204.2 135.2,203.1 136.2,182.7 137.3,181.9 138.4,181.9 139.5,171.6 140.6,169.7 141.7,169.7 142.8,171.1 143.9,171.1 145.0,174.8 146.1,175.3 147.2,175.3 148.3,173.5 149.4,165.6 150.5,165.2 151.6,165.2 152.7,165.2 153.8,171.7 154.8,171.7 155.9,171.7 157.0,170.1 158.1,164.4 159.2,164.4 160.3,164.6 161.4,161.5 162.5,167.7 163.6,167.7 164.7,167.1 165.8,167.1 166.9,172.4 168.0,172.4 169.1,172.4 170.2,176.6 171.3,176.6 172.4,174.0 173.4,174.0 174.5,174.0 175.6,176.7 176.7,176.7 177.8,176.6 178.9,176.6 180.0,178.8 181.1,178.9 182.2,178.9 183.3,178.0 184.4,181.0 185.5,181.0 186.6,180.7 187.7,180.7 188.8,178.2 189.9,178.6 191.0,178.6 192.0,182.3 193.1,182.3 194.2,184.3 195.3,185.0 196.4,183.8 197.5,182.9 198.6,182.9 199.7,182.9 200.8,185.1 201.9,184.8 203.0,184.8 204.1,184.8 205.2,184.2 206.3,182.9 207.4,182.9 208.5,182.8 209.6,182.7 210.6,182.7 211.7,181.5 212.8,181.5 213.9,181.2 215.0,182.2 216.1,180.7 217.2,181.0 218.3,179.4 219.4,179.0 220.5,179.0 221.6,179.5 222.7,179.5 223.8,180.8 224.9,180.4 226.0,180.4 227.1,180.4 228.2,179.7 229.2,179.8 230.3,179.8 231.4,180.9 232.5,181.7 233.6,181.7 234.7,181.5 235.8,181.5 236.9,185.7 238.0,185.9 239.1,186.3 240.2,186.3 241.3,187.5 242.4,187.5 243.5,187.4 244.6,187.4 245.7,187.3 246.8,186.9 247.8,186.9 248.9,186.1 250.0,184.6 251.1,184.6 252.2,184.0 253.3,184.0 254.4,184.1 255.5,183.6 256.6,183.6 257.7,187.6 258.8,187.6 259.9,187.9 261.0,187.9 262.1,187.9 263.2,187.5 264.3,187.5 265.4,187.5 266.4,187.3 267.5,187.3 268.6,186.8 269.7,186.8 270.8,185.6 271.9,185.6 273.0,185.6 274.1,184.9 275.2,184.9 276.3,186.6 277.4,186.4 278.5,186.4 279.6,185.0 280.7,185.0 281.8,184.5 282.9,184.5 284.0,184.7 285.0,184.1 286.1,184.1 287.2,184.1 288.3,183.5 289.4,182.3 290.5,182.4 291.6,182.4 292.7,184.1 293.8,184.1 294.9,184.1 296.0,184.3 297.1,184.3 298.2,184.0 299.3,183.9 300.4,183.9 301.5,183.4 302.6,185.2 303.6,185.1 304.7,184.6 305.8,184.1 306.9,184.1 308.0,184.4 309.1,184.4 310.2,184.9 311.3,184.9 312.4,185.0 313.5,185.0 314.6,185.9 315.7,185.9 316.8,185.9 317.9,185.8 319.0,185.6 320.1,185.8 321.2,185.8 322.2,185.8 323.3,185.2 324.4,185.2 325.5,184.8 326.6,184.8 327.7,185.2 328.8,185.2 329.9,185.2 331.0,185.5 332.1,186.7 333.2,186.7 334.3,186.2 335.4,186.2 336.5,187.5 337.6,186.7 338.7,186.7 339.8,186.3 340.8,187.4 341.9,188.3 343.0,188.3 344.1,188.3 345.2,188.3 346.3,188.3 347.4,188.4 348.5,188.4 349.6,187.6 350.7,187.6 351.8,187.6 352.9,187.6 354.0,188.1 355.1,188.1 356.2,187.9 357.3,187.9 358.4,188.4 359.4,188.4 360.5,188.4 361.6,188.5 362.7,188.5 363.8,188.0 364.9,188.0 366.0,188.0 367.1,187.7 368.2,187.7 369.3,187.6 370.4,187.7 371.5,187.6 372.6,188.0 373.7,188.0 374.8,187.5 375.9,189.3 377.0,189.3 378.0,189.5 379.1,189.5 380.2,189.5 381.3,188.7 382.4,188.7 383.5,188.7 384.6,188.8 385.7,187.6 386.8,186.7 387.9,186.7 389.0,186.4 390.1,186.7 391.2,186.8 392.3,186.8 393.4,186.0 394.5,185.9 395.6,185.9 396.6,185.9 397.7,185.9 398.8,186.1 399.9,185.8 401.0,185.8 402.1,186.0 403.2,185.8 404.3,185.8 405.4,185.4 406.5,185.4 407.6,185.9 408.7,185.9 409.8,185.9 410.9,187.0 412.0,187.0 413.1,186.7 414.2,186.6 415.2,187.4 416.3,187.8 417.4,187.8 418.5,187.6 419.6,187.9 420.7,187.9 421.8,188.0 422.9,188.0 424.0,187.2 425.1,187.2 426.2,187.2 427.3,187.6 428.4,189.0 429.5,189.0 430.6,188.9 431.7,188.9 432.8,189.4 433.8,189.4 434.9,190.0 436.0,189.7 437.1,188.3 438.2,188.0 439.3,188.0 440.4,188.0 441.5,188.1 442.6,187.7 443.7,187.6 444.8,187.6 445.9,189.5 447.0,189.6 448.1,189.6 449.2,189.6 450.3,190.2 451.4,190.1 452.4,190.1 453.5,190.1 454.6,189.7 455.7,189.7 456.8,189.9 457.9,189.8 459.0,189.8 460.1,189.5 461.2,189.5 462.3,189.5 463.4,189.4 464.5,189.0 465.6,189.2 466.7,189.2 467.8,189.4 468.9,189.4 470.0,189.4 471.0,189.4 472.1,189.4 473.2,189.1 474.3,189.1 475.4,189.1 476.5,187.8 477.6,187.8 478.7,188.1 479.8,188.2 480.9,188.0 482.0,187.7 483.1,187.7 484.2,188.0 485.3,187.7 486.4,187.7 487.5,187.6 488.6,187.6 489.6,187.2 490.7,187.3 491.8,187.3 492.9,187.3 494.0,186.9 495.1,186.9 496.2,186.8 497.3,186.8 498.4,187.1 499.5,187.1 500.6,187.4 501.7,187.4 502.8,187.1 503.9,187.3 505.0,187.3 506.1,187.3 507.2,186.9 508.2,188.1 509.3,188.2 510.4,188.2 511.5,187.1 512.6,187.1 513.7,187.1 514.8,187.4 515.9,186.5 517.0,186.6 518.1,186.6 519.2,186.6 520.3,186.6 521.4,185.7 522.5,185.3 523.6,185.4 524.7,184.6 525.8,184.5 526.8,184.5 527.9,184.5 529.0,183.8 530.1,183.8 531.2,183.8 532.3,183.8 533.4,184.2 534.5,184.2 535.6,184.2 536.7,184.4 537.8,184.4 538.9,183.8 540.0,183.7 541.1,183.7 542.2,183.6 543.3,183.1 544.4,183.2 545.4,183.3 546.5,182.4 547.6,182.7 548.7,182.7 549.8,182.7 550.9,183.0 552.0,182.9 553.1,182.8 554.2,182.8 555.3,183.0 556.4,183.0 557.5,183.0 558.6,183.0 559.7,182.3 560.8,182.5 561.9,182.5 563.0,182.1 564.0,182.3 565.1,182.3 566.2,182.0 567.3,182.0 568.4,182.0 569.5,182.8 570.6,182.8 571.7,183.0 572.8,183.0 573.9,183.1 575.0,183.4 576.1,183.4 577.2,183.2 578.3,183.2 579.4,183.2 580.5,183.2 581.6,183.2 582.6,183.9 583.7,183.9 584.8,183.8 585.9,183.8 587.0,184.4 588.1,184.9 589.2,184.9 590.3,184.9 591.4,185.7 592.5,185.7 593.6,185.7 594.7,185.7 595.8,185.4 596.9,185.3 598.0,185.3 599.1,185.4 600.2,185.2 601.2,185.2 602.3,185.1 603.4,185.1 604.5,184.8 605.6,184.8 606.7,184.8 607.8,184.5 608.9,184.5 610.0,184.7 611.1,184.7 612.2,184.7 613.3,184.5 614.4,184.5 615.5,184.7 616.6,184.7 617.7,184.7 618.8,184.7 619.8,184.7 620.9,184.7 622.0,184.7 623.1,184.7 624.2,184.9 625.3,184.9 626.4,184.9 627.5,184.8 628.6,184.8 629.7,184.8 630.8,184.6 631.9,184.5 633.0,184.5 634.1,184.5 635.2,184.2 636.3,184.2 637.4,184.2 638.4,184.2 639.5,184.2 640.6,184.2 641.7,184.2 642.8,184.0 643.9,184.0 645.0,184.0 646.1,184.0 647.2,183.7 648.3,183.9 649.4,183.9 650.5,183.9 651.6,183.6 652.7,183.6 653.8,183.4 654.9,183.5 656.0,183.5 657.0,183.3 658.1,183.3 659.2,183.3 660.3,183.2 661.4,183.3 662.5,183.3 663.6,183.3 664.7,183.4 665.8,183.5 666.9,183.5 668.0,183.5 669.1,183.1 670.2,182.7 671.3,182.7 672.4,182.7 673.5,182.5 674.6,182.5 675.6,182.6 676.7,182.6 677.8,182.6 678.9,183.3 680.0,183.3 681.1,183.4 682.2,183.4 683.3,183.8 684.4,183.7 685.5,183.7 686.6,183.8 687.7,183.8 688.8,183.8 689.9,183.8 691.0,183.8 692.1,183.7 693.2,184.0 694.2,184.0 695.3,184.5 696.4,184.5 697.5,184.6 698.6,184.8 699.7,184.7 700.8,184.8 701.9,184.8 703.0,184.9 704.1,184.9 705.2,184.6 706.3,184.7 707.4,184.7 708.5,185.1 709.6,185.1 710.7,185.1 711.8,185.4 712.8,185.3 713.9,185.3 715.0,185.2 716.1,185.2 717.2,185.4 718.3,185.1 719.4,185.1 720.5,185.0 721.6,185.0 722.7,186.0 723.8,186.0 724.9,186.4 726.0,186.3 727.1,186.3 728.2,186.5 729.3,186.5 730.4,185.6 731.4,185.5 732.5,185.5 733.6,185.3 734.7,185.8 735.8,185.7 736.9,185.7 738.0,185.7 739.1,185.6 740.2,186.0 741.3,186.2 742.4,186.1 743.5,186.1 744.6,186.4 745.7,186.4 746.8,186.4 747.9,185.9 749.0,185.9 750.0,185.8 751.1,185.8 752.2,185.7 753.3,186.1 754.4,186.1 755.5,186.1 756.6,185.6 757.7,185.6 758.8,185.6 759.9,185.6 761.0,185.5 762.1,185.4 763.2,185.5 764.3,185.4 765.4,185.1 766.5,185.1 767.6,185.1 768.6,185.1 769.7,185.0 770.8,185.7 771.9,185.8 773.0,185.8 774.1,185.1 775.2,185.1 776.3,185.1 777.4,185.1 778.5,185.5 779.6,185.4 780.7,185.4 781.8,185.4 782.9,186.0 784.0,186.0 785.1,186.2 786.2,186.2 787.2,186.5 788.3,186.5 789.4,186.5 790.5,186.5 791.6,186.5 792.7,186.6 793.8,186.6 794.9,186.6 796.0,186.1"/>
<text x="640" y="88" font-family="Arial" font-size="12" fill="#b45309">baz</text>
</svg>