<svg xmlns="http://www.w3.org/2000/svg" width="820" height="320" viewBox="0 0 820 320">
<rect width="100%" height="100%" fill="white"/>
<text x="52" y="30" font-family="Arial" font-size="18" font-weight="700">robust_nominal accelerometer bias estimates</text>
<line x1="52" y1="274" x2="796" y2="274" stroke="#263238"/>
<line x1="52" y1="42" x2="52" y2="274" stroke="#263238"/>
<text x="52" y="306" font-family="Arial" font-size="12">time (s)</text>
<text x="630" y="306" font-family="Arial" font-size="12">m/s^2</text>

<polyline fill="none" stroke="#0f766e" stroke-width="2.3" points="52.0,213.8 53.1,213.8 54.2,213.8 55.3,213.8 56.4,213.8 57.5,213.8 58.6,213.8 59.7,213.8 60.8,213.8 61.8,213.8 62.9,213.8 64.0,213.8 65.1,213.8 66.2,212.2 67.3,212.2 68.4,212.2 69.5,212.2 70.6,212.2 71.7,212.2 72.8,212.2 73.9,212.2 75.0,152.9 76.1,152.9 77.2,152.9 78.3,149.7 79.4,149.7 80.4,149.7 81.5,149.7 82.6,149.7 83.7,115.9 84.8,115.9 85.9,115.9 87.0,168.3 88.1,168.3 89.2,168.3 90.3,168.3 91.4,168.3 92.5,262.6 93.6,262.6 94.7,262.6 95.8,219.8 96.9,219.8 98.0,219.8 99.0,219.8 100.1,227.3 101.2,227.3 102.3,227.3 103.4,227.3 104.5,227.3 105.6,194.0 106.7,194.0 107.8,194.0 108.9,186.0 110.0,186.0 111.1,186.0 112.2,186.0 113.3,186.0 114.4,200.6 115.5,200.6 116.6,200.6 117.6,200.6 118.7,215.6 119.8,215.6 120.9,215.6 122.0,204.1 123.1,204.1 124.2,204.1 125.3,204.1 126.4,204.1 127.5,203.9 128.6,203.9 129.7,203.9 130.8,203.9 131.9,204.3 133.0,204.3 134.1,204.3 135.2,204.3 136.2,190.0 137.3,190.0 138.4,190.0 139.5,206.1 140.6,206.1 141.7,206.1 142.8,206.1 143.9,206.1 145.0,200.2 146.1,200.2 147.2,200.2 148.3,200.2 149.4,199.5 150.5,199.5 151.6,199.5 152.7,199.5 153.8,195.8 154.8,195.8 155.9,195.8 157.0,195.8 158.1,195.5 159.2,195.5 160.3,195.5 161.4,195.5 162.5,193.8 163.6,193.8 164.7,193.8 165.8,193.8 166.9,195.6 168.0,195.6 169.1,195.6 170.2,192.8 171.3,192.8 172.4,192.8 173.4,192.8 174.5,192.8 175.6,189.4 176.7,189.4 177.8,189.4 178.9,189.4 180.0,189.5 181.1,189.5 182.2,189.5 183.3,189.3 184.4,187.3 185.5,187.3 186.6,187.3 187.7,187.3 188.8,185.5 189.9,185.5 191.0,185.5 192.0,188.1 193.1,188.1 194.2,188.1 195.3,188.1 196.4,189.6 197.5,189.6 198.6,189.6 199.7,189.6 200.8,188.1 201.9,188.1 203.0,188.1 204.1,188.1 205.2,188.1 206.3,191.1 207.4,191.1 208.5,191.1 209.6,189.9 210.6,189.9 211.7,189.9 212.8,189.9 213.9,189.9 215.0,191.0 216.1,191.0 217.2,191.0 218.3,191.4 219.4,191.4 220.5,191.4 221.6,191.4 222.7,191.4 223.8,192.6 224.9,192.6 226.0,192.6 227.1,192.5 228.2,194.7 229.2,194.7 230.3,194.7 231.4,195.1 232.5,195.1 233.6,195.1 234.7,195.1 235.8,195.1 236.9,192.8 238.0,192.8 239.1,192.8 240.2,192.8 241.3,192.0 242.4,192.0 243.5,192.0 244.6,192.0 245.7,193.2 246.8,193.2 247.8,193.2 248.9,193.2 250.0,193.6 251.1,193.6 252.2,193.6 253.3,193.6 254.4,193.7 255.5,193.7 256.6,193.7 257.7,192.2 258.8,192.2 259.9,192.2 261.0,192.2 262.1,192.2 263.2,192.3 264.3,192.3 265.4,192.3 266.4,192.3 267.5,192.3 268.6,192.3 269.7,192.3 270.8,192.3 271.9,192.3 273.0,192.3 274.1,192.3 275.2,192.3 276.3,192.9 277.4,192.9 278.5,192.9 279.6,192.3 280.7,192.3 281.8,192.3 282.9,192.3 284.0,192.1 285.0,192.1 286.1,192.1 287.2,192.1 288.3,192.1 289.4,191.8 290.5,191.8 291.6,191.8 292.7,194.4 293.8,194.4 294.9,194.4 296.0,194.4 297.1,194.4 298.2,196.4 299.3,196.4 300.4,196.4 301.5,196.4 302.6,195.9 303.6,195.9 304.7,195.9 305.8,196.1 306.9,196.1 308.0,196.1 309.1,196.1 310.2,195.7 311.3,195.7 312.4,195.7 313.5,195.7 314.6,194.3 315.7,194.3 316.8,194.3 317.9,194.3 319.0,196.5 320.1,196.5 321.2,196.5 322.2,196.5 323.3,194.5 324.4,194.5 325.5,194.5 326.6,194.5 327.7,194.6 328.8,194.6 329.9,194.6 331.0,194.6 332.1,195.8 333.2,195.8 334.3,195.8 335.4,195.8 336.5,195.8 337.6,195.9 338.7,195.9 339.8,195.9 340.8,195.5 341.9,195.5 343.0,195.5 344.1,195.5 345.2,195.5 346.3,196.4 347.4,196.4 348.5,196.4 349.6,194.7 350.7,194.7 351.8,194.7 352.9,194.7 354.0,196.1 355.1,196.1 356.2,196.1 357.3,196.1 358.4,194.1 359.4,194.1 360.5,194.1 361.6,194.1 362.7,194.1 363.8,194.9 364.9,194.9 366.0,194.9 367.1,195.2 368.2,195.2 369.3,195.2 370.4,195.2 371.5,196.1 372.6,196.1 373.7,196.1 374.8,196.1 375.9,197.0 377.0,197.0 378.0,197.0 379.1,197.0 380.2,197.0 381.3,196.6 382.4,196.6 383.5,196.6 384.6,196.6 385.7,196.9 386.8,196.9 387.9,196.9 389.0,196.9 390.1,196.5 391.2,196.5 392.3,196.5 393.4,197.5 394.5,197.5 395.6,197.5 396.6,197.5 397.7,197.5 398.8,197.5 399.9,197.5 401.0,197.5 402.1,197.4 403.2,197.4 404.3,197.4 405.4,197.4 406.5,197.4 407.6,196.1 408.7,196.1 409.8,196.1 410.9,196.6 412.0,196.6 413.1,196.6 414.2,196.6 415.2,196.5 416.3,196.5 417.4,196.5 418.5,196.5 419.6,196.0 420.7,196.0 421.8,196.0 422.9,196.0 424.0,195.8 425.1,195.8 426.2,195.8 427.3,195.8 428.4,195.5 429.5,195.5 430.6,195.5 431.7,195.5 432.8,196.3 433.8,196.3 434.9,196.3 436.0,196.3 437.1,195.9 438.2,195.9 439.3,195.9 440.4,195.9 441.5,195.9 442.6,195.6 443.7,195.6 444.8,195.6 445.9,197.0 447.0,197.0 448.1,197.0 449.2,197.0 450.3,198.2 451.4,198.2 452.4,198.2 453.5,198.2 454.6,197.9 455.7,197.9 456.8,197.9 457.9,197.9 459.0,197.9 460.1,197.8 461.2,197.8 462.3,197.8 463.4,197.8 464.5,198.0 465.6,198.0 466.7,198.0 467.8,198.0 468.9,198.6 470.0,198.6 471.0,198.6 472.1,198.6 473.2,199.0 474.3,199.0 475.4,199.0 476.5,198.3 477.6,198.3 478.7,198.3 479.8,198.3 480.9,197.7 482.0,197.7 483.1,197.7 484.2,197.7 485.3,197.6 486.4,197.6 487.5,197.6 488.6,197.6 489.6,197.6 490.7,197.1 491.8,197.1 492.9,197.1 494.0,197.6 495.1,197.6 496.2,197.6 497.3,197.6 498.4,197.1 499.5,197.1 500.6,197.1 501.7,197.1 502.8,197.1 503.9,197.1 505.0,197.1 506.1,197.1 507.2,197.1 508.2,197.3 509.3,197.3 510.4,197.3 511.5,197.4 512.6,197.4 513.7,197.4 514.8,197.4 515.9,197.9 517.0,197.9 518.1,197.9 519.2,197.9 520.3,197.9 521.4,197.1 522.5,197.1 523.6,197.1 524.7,197.1 525.8,197.1 526.8,197.1 527.9,197.1 529.0,196.7 530.1,196.7 531.2,196.7 532.3,196.7 533.4,196.4 534.5,196.4 535.6,196.4 536.7,196.4 537.8,196.4 538.9,196.1 540.0,196.1 541.1,196.1 542.2,196.1 543.3,196.1 544.4,196.1 545.4,196.1 546.5,196.0 547.6,196.0 548.7,196.0 549.8,196.0 550.9,196.0 552.0,197.1 553.1,197.1 554.2,197.1 555.3,197.3 556.4,197.3 557.5,197.3 558.6,197.3 559.7,197.4 560.8,197.4 561.9,197.4 563.0,197.4 564.0,197.5 565.1,197.5 566.2,197.5 567.3,197.5 568.4,197.5 569.5,197.6 570.6,197.6 571.7,197.6 572.8,197.6 573.9,197.5 575.0,197.5 576.1,197.5 577.2,197.4 578.3,197.4 579.4,197.4 580.5,197.4 581.6,197.4 582.6,196.9 583.7,196.9 584.8,196.9 585.9,196.9 587.0,197.1 588.1,197.1 589.2,197.1 590.3,197.1 591.4,197.3 592.5,197.3 593.6,197.3 594.7,197.3 595.8,197.3 596.9,197.3 598.0,197.3 599.1,197.3 600.2,197.7 601.2,197.7 602.3,197.7 603.4,197.7 604.5,197.7 605.6,197.7 606.7,197.7 607.8,197.7 608.9,197.7 610.0,197.7 611.1,197.7 612.2,197.7 613.3,197.3 614.4,197.3 615.5,197.3 616.6,197.2 617.7,197.2 618.8,197.2 619.8,197.2 620.9,197.2 622.0,197.4 623.1,197.4 624.2,197.4 625.3,197.4 626.4,197.5 627.5,197.5 628.6,197.5 629.7,197.5 630.8,197.5 631.9,197.5 633.0,197.5 634.1,197.5 635.2,197.5 636.3,197.5 637.4,197.5 638.4,198.1 639.5,198.1 640.6,198.1 641.7,198.1 642.8,197.5 643.9,197.5 645.0,197.5 646.1,197.5 647.2,197.4 648.3,197.4 649.4,197.4 650.5,197.4 651.6,197.6 652.7,197.6 653.8,197.6 654.9,197.6 656.0,197.6 657.0,197.9 658.1,197.9 659.2,197.9 660.3,197.9 661.4,197.9 662.5,197.9 663.6,197.9 664.7,197.1 665.8,197.1 666.9,197.1 668.0,197.1 669.1,197.4 670.2,197.4 671.3,197.4 672.4,197.4 673.5,197.6 674.6,197.6 675.6,197.6 676.7,197.6 677.8,197.6 678.9,197.7 680.0,197.7 681.1,197.7 682.2,197.7 683.3,197.3 684.4,197.3 685.5,197.3 686.6,197.3 687.7,197.3 688.8,197.3 689.9,197.3 691.0,197.3 692.1,197.7 693.2,197.7 694.2,197.7 695.3,197.5 696.4,197.5 697.5,197.5 698.6,197.5 699.7,197.4 700.8,197.4 701.9,197.4 703.0,197.4 704.1,197.4 705.2,197.5 706.3,197.5 707.4,197.5 708.5,196.9 709.6,196.9 710.7,196.9 711.8,196.9 712.8,197.2 713.9,197.2 715.0,197.2 716.1,197.2 717.2,197.2 718.3,197.0 719.4,197.0 720.5,197.0 721.6,197.0 722.7,197.0 723.8,197.0 724.9,197.0 726.0,196.5 727.1,196.5 728.2,196.5 729.3,196.5 730.4,196.8 731.4,196.8 732.5,196.8 733.6,196.8 734.7,197.0 735.8,197.0 736.9,197.0 738.0,197.0 739.1,197.0 740.2,196.7 741.3,196.7 742.4,196.7 743.5,196.7 744.6,197.1 745.7,197.1 746.8,197.1 747.9,196.2 749.0,196.2 750.0,196.2 751.1,196.2 752.2,196.2 753.3,196.2 754.4,196.2 755.5,196.2 756.6,195.6 757.7,195.6 758.8,195.6 759.9,195.6 761.0,195.6 762.1,195.1 763.2,195.1 764.3,195.1 765.4,195.5 766.5,195.5 767.6,195.5 768.6,195.5 769.7,195.5 770.8,196.2 771.9,196.2 773.0,196.2 774.1,196.4 775.2,196.4 776.3,196.4 777.4,196.4 778.5,195.7 779.6,195.7 780.7,195.7 781.8,195.7 782.9,196.1 784.0,196.1 785.1,196.1 786.2,196.1 787.2,196.8 788.3,196.8 789.4,196.8 790.5,196.8 791.6,196.8 792.7,196.5 793.8,196.5 794.9,196.5 796.0,196.6"/>
<text x="640" y="56" font-family="Arial" font-size="12" fill="#0f766e">bax</text>
<polyline fill="none" stroke="#2563eb" stroke-width="2.3" points="52.0,213.8 53.1,213.8 54.2,213.8 55.3,213.8 56.4,213.8 57.5,213.8 58.6,213.8 59.7,213.8 60.8,213.8 61.8,213.8 62.9,213.8 64.0,213.8 65.1,213.8 66.2,214.9 67.3,214.9 68.4,214.9 69.5,214.9 70.6,214.9 71.7,214.9 72.8,214.9 73.9,214.9 75.0,274.0 76.1,274.0 77.2,274.0 78.3,225.6 79.4,225.6 80.4,225.6 81.5,225.6 82.6,225.6 83.7,247.4 84.8,247.4 85.9,247.4 87.0,200.3 88.1,200.3 89.2,200.3 90.3,200.3 91.4,200.3 92.5,249.3 93.6,249.3 94.7,249.3 95.8,221.2 96.9,221.2 98.0,221.2 99.0,221.2 100.1,210.2 101.2,210.2 102.3,210.2 103.4,210.2 104.5,210.2 105.6,264.4 106.7,264.4 107.8,264.4 108.9,254.8 110.0,254.8 111.1,254.8 112.2,254.8 113.3,254.8 114.4,257.0 115.5,257.0 116.6,257.0 117.6,257.0 118.7,255.8 119.8,255.8 120.9,255.8 122.0,244.9 123.1,244.9 124.2,244.9 125.3,244.9 126.4,244.9 127.5,241.7 128.6,241.7 129.7,241.7 130.8,241.7 131.9,241.2 133.0,241.2 134.1,241.2 135.2,241.2 136.2,242.2 137.3,242.2 138.4,242.2 139.5,249.7 140.6,249.7 141.7,249.7 142.8,249.7 143.9,249.7 145.0,243.3 146.1,243.3 147.2,243.3 148.3,243.3 149.4,247.8 150.5,247.8 151.6,247.8 152.7,247.8 153.8,245.2 154.8,245.2 155.9,245.2 157.0,245.2 158.1,242.8 159.2,242.8 160.3,242.8 161.4,242.8 162.5,249.7 163.6,249.7 164.7,249.7 165.8,249.7 166.9,248.3 168.0,248.3 169.1,248.3 170.2,243.7 171.3,243.7 172.4,243.7 173.4,243.7 174.5,243.7 175.6,238.4 176.7,238.4 177.8,238.4 178.9,238.4 180.0,240.6 181.1,240.6 182.2,240.6 183.3,240.3 184.4,234.8 185.5,234.8 186.6,234.8 187.7,234.8 188.8,234.8 189.9,234.8 191.0,234.8 192.0,233.8 193.1,233.8 194.2,233.8 195.3,233.8 196.4,234.7 197.5,234.7 198.6,234.7 199.7,234.7 200.8,231.8 201.9,231.8 203.0,231.8 204.1,231.8 205.2,231.8 206.3,230.7 207.4,230.7 208.5,230.7 209.6,229.7 210.6,229.7 211.7,229.7 212.8,229.7 213.9,229.7 215.0,226.0 216.1,226.0 217.2,226.0 218.3,227.8 219.4,227.8 220.5,227.8 221.6,227.8 222.7,227.8 223.8,228.6 224.9,228.6 226.0,228.6 227.1,228.7 228.2,228.2 229.2,228.2 230.3,228.2 231.4,226.5 232.5,226.5 233.6,226.5 234.7,226.5 235.8,226.5 236.9,226.9 238.0,226.9 239.1,226.9 240.2,226.9 241.3,226.6 242.4,226.6 243.5,226.6 244.6,226.6 245.7,229.2 246.8,229.2 247.8,229.2 248.9,229.2 250.0,226.5 251.1,226.5 252.2,226.5 253.3,226.5 254.4,226.9 255.5,226.9 256.6,226.9 257.7,227.8 258.8,227.8 259.9,227.8 261.0,227.8 262.1,227.8 263.2,227.7 264.3,227.7 265.4,227.7 266.4,227.7 267.5,227.7 268.6,227.7 269.7,227.7 270.8,227.5 271.9,227.5 273.0,227.5 274.1,227.5 275.2,227.5 276.3,229.3 277.4,229.3 278.5,229.3 279.6,229.3 280.7,229.3 281.8,229.3 282.9,229.3 284.0,226.6 285.0,226.6 286.1,226.6 287.2,226.6 288.3,226.6 289.4,226.6 290.5,226.6 291.6,226.6 292.7,226.5 293.8,226.5 294.9,226.5 296.0,226.5 297.1,226.5 298.2,226.2 299.3,226.2 300.4,226.2 301.5,226.2 302.6,227.3 303.6,227.3 304.7,227.3 305.8,227.7 306.9,227.7 308.0,227.7 309.1,227.7 310.2,227.7 311.3,227.7 312.4,227.7 313.5,227.7 314.6,227.6 315.7,227.6 316.8,227.6 317.9,227.6 319.0,226.9 320.1,226.9 321.2,226.9 322.2,226.9 323.3,226.2 324.4,226.2 325.5,226.2 326.6,226.2 327.7,226.9 328.8,226.9 329.9,226.9 331.0,226.9 332.1,227.5 333.2,227.5 334.3,227.5 335.4,227.5 336.5,227.5 337.6,226.6 338.7,226.6 339.8,226.6 340.8,228.3 341.9,228.3 343.0,228.3 344.1,228.3 345.2,228.3 346.3,227.5 347.4,227.5 348.5,227.5 349.6,227.8 350.7,227.8 351.8,227.8 352.9,227.8 354.0,227.5 355.1,227.5 356.2,227.5 357.3,227.5 358.4,227.2 359.4,227.2 360.5,227.2 361.6,227.2 362.7,227.2 363.8,226.4 364.9,226.4 366.0,226.4 367.1,226.5 368.2,226.5 369.3,226.5 370.4,226.5 371.5,227.3 372.6,227.3 373.7,227.3 374.8,227.3 375.9,225.7 377.0,225.7 378.0,225.7 379.1,225.7 380.2,225.7 381.3,227.4 382.4,227.4 383.5,227.4 384.6,227.4 385.7,228.4 386.8,228.4 387.9,228.4 389.0,228.4 390.1,226.8 391.2,226.8 392.3,226.8 393.4,225.7 394.5,225.7 395.6,225.7 396.6,225.7 397.7,225.7 398.8,226.5 399.9,226.5 401.0,226.5 402.1,226.0 403.2,226.0 404.3,226.0 405.4,226.0 406.5,226.0 407.6,226.9 408.7,226.9 409.8,226.9 410.9,227.0 412.0,227.0 413.1,227.0 414.2,227.0 415.2,227.1 416.3,227.1 417.4,227.1 418.5,227.1 419.6,227.2 420.7,227.2 421.8,227.2 422.9,227.2 424.0,227.1 425.1,227.1 426.2,227.1 427.3,227.1 428.4,227.7 429.5,227.7 430.6,227.7 431.7,227.7 432.8,227.9 433.8,227.9 434.9,227.9 436.0,227.9 437.1,228.4 438.2,228.4 439.3,228.4 440.4,228.4 441.5,228.4 442.6,227.9 443.7,227.9 444.8,227.9 445.9,229.4 447.0,229.4 448.1,229.4 449.2,229.4 450.3,228.2 451.4,228.2 452.4,228.2 453.5,228.2 454.6,227.8 455.7,227.8 456.8,227.8 457.9,227.8 459.0,227.8 460.1,226.4 461.2,226.4 462.3,226.4 463.4,226.4 464.5,227.3 465.6,227.3 466.7,227.3 467.8,227.3 468.9,227.0 470.0,227.0 471.0,227.0 472.1,227.0 473.2,227.2 474.3,227.2 475.4,227.2 476.5,226.9 477.6,226.9 478.7,226.9 479.8,226.9 480.9,227.2 482.0,227.2 483.1,227.2 484.2,227.2 485.3,227.8 486.4,227.8 487.5,227.8 488.6,227.8 489.6,227.7 490.7,227.7 491.8,227.7 492.9,227.7 494.0,228.1 495.1,228.1 496.2,228.1 497.3,228.1 498.4,228.6 499.5,228.6 500.6,228.6 501.7,228.6 502.8,228.9 503.9,228.9 505.0,228.9 506.1,228.9 507.2,228.9 508.2,229.5 509.3,229.5 510.4,229.5 511.5,229.5 512.6,229.5 513.7,229.5 514.8,229.5 515.9,229.6 517.0,229.6 518.1,229.6 519.2,229.6 520.3,229.6 521.4,230.5 522.5,230.5 523.6,230.5 524.7,230.1 525.8,230.1 526.8,230.1 527.9,230.1 529.0,229.7 530.1,229.7 531.2,229.7 532.3,229.7 533.4,229.4 534.5,229.4 535.6,229.4 536.7,229.4 537.8,229.4 538.9,228.2 540.0,228.2 541.1,228.2 542.2,228.2 543.3,228.6 544.4,228.6 545.4,228.6 546.5,228.9 547.6,228.9 548.7,228.9 549.8,228.9 550.9,228.9 552.0,229.2 553.1,229.2 554.2,229.2 555.3,229.4 556.4,229.4 557.5,229.4 558.6,229.4 559.7,229.4 560.8,229.4 561.9,229.4 563.0,229.4 564.0,229.6 565.1,229.6 566.2,229.6 567.3,229.6 568.4,229.6 569.5,229.7 570.6,229.7 571.7,229.7 572.8,229.7 573.9,229.4 575.0,229.4 576.1,229.4 577.2,229.4 578.3,229.4 579.4,229.4 580.5,229.4 581.6,229.4 582.6,229.1 583.7,229.1 584.8,229.1 585.9,229.1 587.0,229.8 588.1,229.8 589.2,229.8 590.3,229.8 591.4,229.8 592.5,229.8 593.6,229.8 594.7,229.8 595.8,230.5 596.9,230.5 598.0,230.5 599.1,230.5 600.2,230.1 601.2,230.1 602.3,230.1 603.4,230.1 604.5,229.1 605.6,229.1 606.7,229.1 607.8,229.1 608.9,229.1 610.0,229.1 611.1,229.1 612.2,229.1 613.3,228.9 614.4,228.9 615.5,228.9 616.6,229.1 617.7,229.1 618.8,229.1 619.8,229.1 620.9,229.1 622.0,228.8 623.1,228.8 624.2,228.8 625.3,228.8 626.4,228.4 627.5,228.4 628.6,228.4 629.7,228.4 630.8,227.9 631.9,227.9 633.0,227.9 634.1,227.9 635.2,227.9 636.3,227.9 637.4,227.9 638.4,228.4 639.5,228.4 640.6,228.4 641.7,228.4 642.8,228.0 643.9,228.0 645.0,228.0 646.1,228.0 647.2,229.0 648.3,229.0 649.4,229.0 650.5,229.0 651.6,229.2 652.7,229.2 653.8,229.2 654.9,229.2 656.0,229.2 657.0,229.9 658.1,229.9 659.2,229.9 660.3,229.9 661.4,228.9 662.5,228.9 663.6,228.9 664.7,229.2 665.8,229.2 666.9,229.2 668.0,229.2 669.1,228.9 670.2,228.9 671.3,228.9 672.4,228.9 673.5,228.6 674.6,228.6 675.6,228.6 676.7,228.6 677.8,228.6 678.9,228.7 680.0,228.7 681.1,228.7 682.2,228.7 683.3,228.1 684.4,228.1 685.5,228.1 686.6,227.8 687.7,227.8 688.8,227.8 689.9,227.8 691.0,227.8 692.1,227.5 693.2,227.5 694.2,227.5 695.3,227.8 696.4,227.8 697.5,227.8 698.6,227.8 699.7,228.0 700.8,228.0 701.9,228.0 703.0,228.0 704.1,228.0 705.2,227.9 706.3,227.9 707.4,227.9 708.5,228.1 709.6,228.1 710.7,228.1 711.8,228.1 712.8,228.4 713.9,228.4 715.0,228.4 716.1,228.4 717.2,228.4 718.3,228.1 719.4,228.1 720.5,228.1 721.6,228.1 722.7,228.4 723.8,228.4 724.9,228.4 726.0,228.9 727.1,228.9 728.2,228.9 729.3,228.9 730.4,228.6 731.4,228.6 732.5,228.6 733.6,228.6 734.7,228.4 735.8,228.4 736.9,228.4 738.0,228.4 739.1,228.4 740.2,227.8 741.3,227.8 742.4,227.8 743.5,227.8 744.6,227.9 745.7,227.9 746.8,227.9 747.9,227.9 749.0,227.9 750.0,227.9 751.1,227.9 752.2,227.9 753.3,227.9 754.4,227.9 755.5,227.9 756.6,227.7 757.7,227.7 758.8,227.7 759.9,227.7 761.0,227.7 762.1,227.8 763.2,227.8 764.3,227.8 765.4,228.7 766.5,228.7 767.6,228.7 768.6,228.7 769.7,228.7 770.8,228.5 771.9,228.5 773.0,228.5 774.1,228.2 775.2,228.2 776.3,228.2 777.4,228.2 778.5,229.0 779.6,229.0 780.7,229.0 781.8,229.0 782.9,229.5 784.0,229.5 785.1,229.5 786.2,229.5 787.2,229.8 788.3,229.8 789.4,229.8 790.5,229.8 791.6,229.8 792.7,229.5 793.8,229.5 794.9,229.5 796.0,229.5"/>
<text x="640" y="72" font-family="Arial" font-size="12" fill="#2563eb">bay</text>
<polyline fill="none" stroke="#b45309" stroke-width="2.3" points="52.0,213.8 53.1,213.8 54.2,213.8 55.3,213.8 56.4,213.8 57.5,213.8 58.6,213.8 59.7,213.8 60.8,213.8 61.8,213.8 62.9,216.1 64.0,216.1 65.1,216.1 66.2,201.7 67.3,201.7 68.4,201.7 69.5,201.7 70.6,201.7 71.7,201.7 72.8,201.7 73.9,201.6 75.0,155.1 76.1,155.1 77.2,132.2 78.3,100.0 79.4,95.0 80.4,95.0 81.5,95.0 82.6,89.7 83.7,118.7 84.8,121.3 85.9,121.3 87.0,65.4 88.1,64.7 89.2,64.7 90.3,64.7 91.4,64.3 92.5,42.1 93.6,42.0 94.7,42.0 95.8,66.6 96.9,66.5 98.0,66.5 99.0,66.9 100.1,147.5 101.2,147.5 102.3,147.2 103.4,147.2 104.5,147.2 105.6,140.5 106.7,141.3 107.8,140.9 108.9,189.4 110.0,188.4 111.1,188.4 112.2,188.4 113.3,188.8 114.4,219.0 115.5,219.0 116.6,219.0 117.6,219.6 118.7,213.4 119.8,213.4 120.9,216.2 122.0,217.4 123.1,216.2 124.2,216.2 125.3,216.2 126.4,217.2 127.5,222.5 128.6,224.9 129.7,224.9 130.8,224.9 131.9,222.1 133.0,222.1 134.1,222.1 135.2,221.2 136.2,202.7 137.3,202.0 138.4,202.0 139.5,192.1 140.6,190.2 141.7,190.2 142.8,191.6 143.9,191.6 145.0,193.9 146.1,194.4 147.2,194.4 148.3,192.6 149.4,184.9 150.5,184.5 151.6,184.5 152.7,184.5 153.8,189.8 154.8,189.8 155.9,189.8 157.0,188.2 158.1,182.6 159.2,182.6 160.3,182.9 161.4,179.8 162.5,184.8 163.6,184.8 164.7,184.2 165.8,184.2 166.9,188.5 168.0,188.5 169.1,188.5 170.2,192.0 171.3,192.0 172.4,191.0 173.4,191.0 174.5,191.0 175.6,192.8 176.7,192.8 177.8,192.6 178.9,192.6 180.0,194.3 181.1,194.3 182.2,194.3 183.3,193.3 184.4,195.7 185.5,195.7 186.6,195.4 187.7,195.4 188.8,193.2 189.9,193.5 191.0,193.5 192.0,196.6 193.1,196.6 194.2,197.9 195.3,198.5 196.4,197.6 197.5,196.7 198.6,196.7 199.7,196.7 200.8,198.6 201.9,198.3 203.0,198.3 204.1,198.3 205.2,197.8 206.3,196.8 207.4,196.8 208.5,196.7 209.6,196.7 210.6,196.7 211.7,195.6 212.8,195.6 213.9,195.3 215.0,196.2 216.1,195.0 217.2,195.3 218.3,193.9 219.4,193.5 220.5,193.5 221.6,194.0 222.7,194.0 223.8,195.0 224.9,194.7 226.0,194.7 227.1,194.7 228.2,194.0 229.2,194.1 230.3,194.1 231.4,195.1 232.5,195.8 233.6,195.8 234.7,195.5 235.8,195.5 236.9,198.7 238.0,198.9 239.1,199.1 240.2,199.1 241.3,200.1 242.4,200.1 243.5,200.0 244.6,200.0 245.7,200.1 246.8,199.8 247.8,199.8 248.9,199.3 250.0,198.6 251.1,198.6 252.2,198.1 253.3,198.1 254.4,198.2 255.5,197.8 256.6,197.8 257.7,200.3 258.8,200.3 259.9,200.5 261.0,200.5 262.1,200.5 263.2,200.4 264.3,200.4 265.4,200.4 266.4,200.3 267.5,200.3 268.6,199.8 269.7,199.8 270.8,198.9 271.9,198.9 273.0,198.9 274.1,198.4 275.2,198.4 276.3,199.5 277.4,199.3 278.5,199.3 279.6,198.7 280.7,198.7 281.8,198.2 282.9,198.2 284.0,198.4 285.0,197.9 286.1,197.9 287.2,197.9 288.3,197.3 289.4,196.6 290.5,196.6 291.6,196.6 292.7,197.6 293.8,197.6 294.9,197.6 296.0,197.8 297.1,197.8 298.2,197.6 299.3,197.5 300.4,197.5 301.5,197.1 302.6,198.5 303.6,198.3 304.7,197.8 305.8,197.5 306.9,197.5 308.0,197.8 309.1,197.8 310.2,198.2 311.3,198.2 312.4,198.3 313.5,198.3 314.6,199.3 315.7,199.3 316.8,199.3 317.9,199.2 319.0,199.1 320.1,199.2 321.2,199.2 322.2,199.2 323.3,198.9 324.4,198.9 325.5,198.5 326.6,198.5 327.7,198.8 328.8,198.8 329.9,198.8 331.0,199.1 332.1,200.1 333.2,200.1 334.3,199.6 335.4,199.6 336.5,200.4 337.6,199.9 338.7,199.9 339.8,199.5 340.8,200.4 341.9,201.0 343.0,201.0 344.1,201.0 345.2,201.1 346.3,201.1 347.4,201.4 348.5,201.4 349.6,200.5 350.7,200.6 351.8,200.6 352.9,200.6 354.0,201.2 355.1,201.2 356.2,201.0 357.3,201.0 358.4,201.7 359.4,201.7 360.5,201.7 361.6,201.8 362.7,201.8 363.8,201.3 364.9,201.3 366.0,201.3 367.1,201.1 368.2,201.1 369.3,201.1 370.4,201.2 371.5,201.1 372.6,201.5 373.7,201.5 374.8,201.1 375.9,202.4 377.0,202.4 378.0,202.5 379.1,202.5 380.2,202.6 381.3,202.1 382.4,202.1 383.5,202.1 384.6,202.1 385.7,201.4 386.8,200.8 387.9,200.8 389.0,200.5 390.1,200.7 391.2,200.8 392.3,200.8 393.4,200.2 394.5,200.1 395.6,200.1 396.6,200.1 397.7,200.1 398.8,200.2 399.9,200.0 401.0,200.0 402.1,200.1 403.2,200.0 404.3,200.0 405.4,199.6 406.5,199.6 407.6,200.0 408.7,200.0 409.8,200.0 410.9,200.7 412.0,200.7 413.1,200.5 414.2,200.4 415.2,201.0 416.3,201.4 417.4,201.4 418.5,201.1 419.6,201.4 420.7,201.4 421.8,201.4 422.9,201.4 424.0,200.9 425.1,200.9 426.2,200.9 427.3,201.2 428.4,202.3 429.5,202.3 430.6,202.2 431.7,202.2 432.8,202.5 433.8,202.5 434.9,202.9 436.0,202.7 437.1,201.7 438.2,201.5 439.3,201.5 440.4,201.5 441.5,201.6 442.6,201.3 443.7,201.2 444.8,201.2 445.9,202.6 447.0,202.8 448.1,202.8 449.2,202.7 450.3,203.2 451.4,203.2 452.4,203.2 453.5,203.2 454.6,202.9 455.7,202.9 456.8,203.1 457.9,203.0 459.0,203.0 460.1,202.8 461.2,202.8 462.3,202.8 463.4,202.7 464.5,202.5 465.6,202.6 466.7,202.6 467.8,202.8 468.9,202.9 470.0,202.9 471.0,202.9 472.1,202.9 473.2,202.7 474.3,202.7 475.4,202.7 476.5,201.9 477.6,201.9 478.7,202.0 479.8,202.1 480.9,202.0 482.0,201.7 483.1,201.7 484.2,201.9 485.3,201.8 486.4,201.8 487.5,201.7 488.6,201.7 489.6,201.4 490.7,201.4 491.8,201.4 492.9,201.4 494.0,201.2 495.1,201.2 496.2,201.1 497.3,201.1 498.4,201.2 499.5,201.2 500.6,201.4 501.7,201.4 502.8,201.2 503.9,201.3 505.0,201.3 506.1,201.3 507.2,201.0 508.2,201.7 509.3,201.8 510.4,201.8 511.5,201.3 512.6,201.3 513.7,201.3 514.8,201.5 515.9,200.9 517.0,200.9 518.1,200.9 519.2,200.9 520.3,201.0 521.4,200.3 522.5,199.9 523.6,200.0 524.7,199.3 525.8,199.2 526.8,199.2 527.9,199.2 529.0,198.4 530.1,198.4 531.2,198.5 532.3,198.5 533.4,198.7 534.5,198.7 535.6,198.7 536.7,198.9 537.8,198.9 538.9,198.3 540.0,198.2 541.1,198.2 542.2,198.1 543.3,197.6 544.4,197.7 545.4,197.8 546.5,197.0 547.6,197.2 548.7,197.2 549.8,197.2 550.9,197.6 552.0,197.4 553.1,197.2 554.2,197.2 555.3,197.3 556.4,197.3 557.5,197.3 558.6,197.2 559.7,196.7 560.8,196.8 561.9,196.8 563.0,196.4 564.0,196.5 565.1,196.5 566.2,196.3 567.3,196.3 568.4,196.3 569.5,196.9 570.6,196.9 571.7,197.1 572.8,197.1 573.9,197.2 575.0,197.4 576.1,197.4 577.2,197.3 578.3,197.3 579.4,197.3 580.5,197.4 581.6,197.4 582.6,198.1 583.7,198.1 584.8,198.0 585.9,198.0 587.0,198.7 588.1,199.0 589.2,199.0 590.3,199.0 591.4,200.1 592.5,200.1 593.6,200.1 594.7,200.1 595.8,199.5 596.9,199.3 598.0,199.3 599.1,199.5 600.2,199.0 601.2,199.0 602.3,198.7 603.4,198.7 604.5,198.2 605.6,198.1 606.7,198.1 607.8,197.6 608.9,197.6 610.0,197.9 611.1,197.9 612.2,197.9 613.3,197.5 614.4,197.5 615.5,197.9 616.6,197.9 617.7,197.9 618.8,197.9 619.8,197.9 620.9,197.9 622.0,198.8 623.1,198.8 624.2,199.0 625.3,199.0 626.4,199.6 627.5,199.6 628.6,199.6 629.7,199.6 630.8,199.0 631.9,198.9 633.0,198.9 634.1,198.9 635.2,198.5 636.3,198.5 637.4,198.5 638.4,198.2 639.5,198.2 640.6,198.2 641.7,198.2 642.8,197.7 643.9,197.7 645.0,197.7 646.1,197.7 647.2,197.0 648.3,197.3 649.4,197.3 650.5,197.3 651.6,196.6 652.7,196.6 653.8,196.4 654.9,196.5 656.0,196.5 657.0,196.2 658.1,196.2 659.2,196.2 660.3,196.2 661.4,196.4 662.5,196.4 663.6,196.4 664.7,196.9 665.8,197.0 666.9,197.0 668.0,197.0 669.1,196.6 670.2,196.2 671.3,196.2 672.4,196.2 673.5,196.1 674.6,196.1 675.6,196.2 676.7,196.2 677.8,196.2 678.9,197.0 680.0,197.0 681.1,197.1 682.2,197.1 683.3,197.5 684.4,197.4 685.5,197.4 686.6,197.5 687.7,197.5 688.8,197.5 689.9,197.5 691.0,197.5 692.1,197.4 693.2,197.6 694.2,197.6 695.3,198.2 696.4,198.2 697.5,198.2 698.6,198.4 699.7,198.3 700.8,198.4 701.9,198.4 703.0,198.5 704.1,198.5 705.2,198.3 706.3,198.4 707.4,198.4 708.5,198.7 709.6,198.7 710.7,198.7 711.8,198.9 712.8,198.9 713.9,198.9 715.0,198.8 716.1,198.8 717.2,199.0 718.3,198.8 719.4,198.8 720.5,198.8 721.6,198.8 722.7,199.4 723.8,199.4 724.9,199.7 726.0,199.7 727.1,199.7 728.2,199.8 729.3,199.8 730.4,199.3 731.4,199.3 732.5,199.3 733.6,199.2 734.7,199.5 735.8,199.4 736.9,199.4 738.0,199.4 739.1,199.4 740.2,199.7 741.3,199.8 742.4,199.8 743.5,199.8 744.6,200.0 745.7,200.0 746.8,200.0 747.9,199.6 749.0,199.6 750.0,199.6 751.1,199.6 752.2,199.5 753.3,199.8 754.4,199.8 755.5,199.8 756.6,199.5 757.7,199.4 758.8,199.4 759.9,199.4 761.0,199.4 762.1,199.3 763.2,199.4 764.3,199.3 765.4,199.1 766.5,199.1 767.6,199.1 768.6,199.1 769.7,199.1 770.8,199.5 771.9,199.6 773.0,199.6 774.1,199.1 775.2,199.1 776.3,199.1 777.4,199.1 778.5,199.4 779.6,199.3 780.7,199.3 781.8,199.3 782.9,199.7 784.0,199.7 785.1,199.9 786.2,199.9 787.2,200.1 788.3,200.1 789.4,200.1 790.5,200.1 791.6,200.1 792.7,200.2 793.8,200.2 794.9,200.2 796.0,199.8"/>
<text x="640" y="88" font-family="Arial" font-size="12" fill="#b45309">baz</text>
</svg>