<svg xmlns="http://www.w3.org/2000/svg" width="820" height="320" viewBox="0 0 820 320">
<rect width="100%" height="100%" fill="white"/>
<text x="52" y="30" font-family="Arial" font-size="18" font-weight="700">ekf_nominal accelerometer bias estimates</text>
<line x1="52" y1="274" x2="796" y2="274" stroke="#263238"/>
<line x1="52" y1="42" x2="52" y2="274" stroke="#263238"/>
<text x="52" y="306" font-family="Arial" font-size="12">time (s)</text>
<text x="630" y="306" font-family="Arial" font-size="12">m/s^2</text>

<polyline fill="none" stroke="#0f766e" stroke-width="2.3" points="52.0,202.7 53.1,202.7 54.2,202.7 55.3,202.7 56.4,202.7 57.5,202.7 58.6,202.7 59.7,202.7 60.8,202.7 61.8,202.7 62.9,202.7 64.0,202.7 65.1,202.7 66.2,201.0 67.3,201.0 68.4,201.0 69.5,201.0 70.6,201.0 71.7,201.0 72.8,201.0 73.9,201.0 75.0,135.6 76.1,135.6 77.2,135.6 78.3,132.0 79.4,132.0 80.4,132.0 81.5,132.0 82.6,132.0 83.7,94.8 84.8,94.8 85.9,94.8 87.0,152.6 88.1,152.6 89.2,152.6 90.3,152.6 91.4,152.6 92.5,266.6 93.6,266.6 94.7,266.6 95.8,218.1 96.9,218.1 98.0,218.1 99.0,218.1 100.1,222.7 101.2,222.7 102.3,222.7 103.4,222.7 104.5,222.7 105.6,184.1 106.7,184.1 107.8,184.1 108.9,173.9 110.0,173.9 111.1,173.9 112.2,173.9 113.3,173.9 114.4,189.1 115.5,189.1 116.6,189.1 117.6,189.1 118.7,205.0 119.8,205.0 120.9,205.0 122.0,192.0 123.1,192.0 124.2,192.0 125.3,192.0 126.4,192.0 127.5,191.5 128.6,191.5 129.7,191.5 130.8,191.5 131.9,191.9 133.0,191.9 134.1,191.9 135.2,191.9 136.2,176.0 137.3,176.0 138.4,176.0 139.5,193.8 140.6,193.8 141.7,193.8 142.8,193.8 143.9,193.8 145.0,187.2 146.1,187.2 147.2,187.2 148.3,187.2 149.4,186.4 150.5,186.4 151.6,186.4 152.7,186.4 153.8,182.3 154.8,182.3 155.9,182.3 157.0,182.3 158.1,182.0 159.2,182.0 160.3,182.0 161.4,182.0 162.5,180.1 163.6,180.1 164.7,180.1 165.8,180.1 166.9,182.1 168.0,182.1 169.1,182.1 170.2,179.1 171.3,179.1 172.4,179.1 173.4,179.1 174.5,179.1 175.6,175.4 176.7,175.4 177.8,175.4 178.9,175.4 180.0,175.6 181.1,175.6 182.2,175.6 183.3,175.3 184.4,173.1 185.5,173.1 186.6,173.1 187.7,173.1 188.8,171.2 189.9,171.2 191.0,171.2 192.0,174.0 193.1,174.0 194.2,174.0 195.3,174.0 196.4,175.7 197.5,175.7 198.6,175.7 199.7,175.7 200.8,174.1 201.9,174.1 203.0,174.1 204.1,174.1 205.2,174.1 206.3,177.4 207.4,177.4 208.5,177.4 209.6,176.2 210.6,176.2 211.7,176.2 212.8,176.2 213.9,176.2 215.0,177.4 216.1,177.4 217.2,177.4 218.3,177.8 219.4,177.8 220.5,177.8 221.6,177.8 222.7,177.8 223.8,179.2 224.9,179.2 226.0,179.2 227.1,179.1 228.2,181.5 229.2,181.5 230.3,181.5 231.4,181.9 232.5,181.9 233.6,181.9 234.7,181.9 235.8,181.9 236.9,179.5 238.0,179.5 239.1,179.5 240.2,179.5 241.3,178.5 242.4,178.5 243.5,178.5 244.6,178.5 245.7,179.9 246.8,179.9 247.8,179.9 248.9,179.9 250.0,180.3 251.1,180.3 252.2,180.3 253.3,180.3 254.4,180.5 255.5,180.5 256.6,180.5 257.7,178.8 258.8,178.8 259.9,178.8 261.0,178.8 262.1,178.8 263.2,178.9 264.3,178.9 265.4,178.9 266.4,178.9 267.5,178.9 268.6,178.9 269.7,178.9 270.8,178.9 271.9,178.9 273.0,178.9 274.1,178.9 275.2,178.9 276.3,179.6 277.4,179.6 278.5,179.6 279.6,178.9 280.7,178.9 281.8,178.9 282.9,178.9 284.0,178.7 285.0,178.7 286.1,178.7 287.2,178.7 288.3,178.7 289.4,178.4 290.5,178.4 291.6,178.4 292.7,181.3 293.8,181.3 294.9,181.3 296.0,181.3 297.1,181.3 298.2,183.5 299.3,183.5 300.4,183.5 301.5,183.5 302.6,182.9 303.6,182.9 304.7,182.9 305.8,183.2 306.9,183.2 308.0,183.2 309.1,183.2 310.2,182.7 311.3,182.7 312.4,182.7 313.5,182.7 314.6,181.1 315.7,181.1 316.8,181.1 317.9,181.1 319.0,183.6 320.1,183.6 321.2,183.6 322.2,183.6 323.3,181.4 324.4,181.4 325.5,181.4 326.6,181.4 327.7,181.5 328.8,181.5 329.9,181.5 331.0,181.5 332.1,182.8 333.2,182.8 334.3,182.8 335.4,182.8 336.5,182.8 337.6,182.9 338.7,182.9 339.8,182.9 340.8,182.6 341.9,182.6 343.0,182.6 344.1,182.6 345.2,182.6 346.3,183.5 347.4,183.5 348.5,183.5 349.6,181.7 350.7,181.7 351.8,181.7 352.9,181.7 354.0,183.2 355.1,183.2 356.2,183.2 357.3,183.2 358.4,180.9 359.4,180.9 360.5,180.9 361.6,180.9 362.7,180.9 363.8,181.9 364.9,181.9 366.0,181.9 367.1,182.2 368.2,182.2 369.3,182.2 370.4,182.2 371.5,183.2 372.6,183.2 373.7,183.2 374.8,183.2 375.9,184.2 377.0,184.2 378.0,184.2 379.1,184.2 380.2,184.2 381.3,183.8 382.4,183.8 383.5,183.8 384.6,183.8 385.7,184.0 386.8,184.0 387.9,184.0 389.0,184.0 390.1,183.7 391.2,183.7 392.3,183.7 393.4,184.7 394.5,184.7 395.6,184.7 396.6,184.7 397.7,184.7 398.8,184.8 399.9,184.8 401.0,184.8 402.1,184.6 403.2,184.6 404.3,184.6 405.4,184.6 406.5,184.6 407.6,183.2 408.7,183.2 409.8,183.2 410.9,183.7 412.0,183.7 413.1,183.7 414.2,183.7 415.2,183.6 416.3,183.6 417.4,183.6 418.5,183.6 419.6,183.0 420.7,183.0 421.8,183.0 422.9,183.0 424.0,182.9 425.1,182.9 426.2,182.9 427.3,182.9 428.4,182.5 429.5,182.5 430.6,182.5 431.7,182.5 432.8,183.4 433.8,183.4 434.9,183.4 436.0,183.4 437.1,183.0 438.2,183.0 439.3,183.0 440.4,183.0 441.5,183.0 442.6,182.7 443.7,182.7 444.8,182.7 445.9,184.1 447.0,184.1 448.1,184.1 449.2,184.1 450.3,185.5 451.4,185.5 452.4,185.5 453.5,185.5 454.6,185.1 455.7,185.1 456.8,185.1 457.9,185.1 459.0,185.1 460.1,185.1 461.2,185.1 462.3,185.1 463.4,185.1 464.5,185.3 465.6,185.3 466.7,185.3 467.8,185.3 468.9,186.0 470.0,186.0 471.0,186.0 472.1,186.0 473.2,186.3 474.3,186.3 475.4,186.3 476.5,185.6 477.6,185.6 478.7,185.6 479.8,185.6 480.9,184.9 482.0,184.9 483.1,184.9 484.2,184.9 485.3,184.9 486.4,184.9 487.5,184.9 488.6,184.9 489.6,184.8 490.7,184.3 491.8,184.3 492.9,184.3 494.0,184.8 495.1,184.8 496.2,184.8 497.3,184.8 498.4,184.3 499.5,184.3 500.6,184.3 501.7,184.3 502.8,184.3 503.9,184.3 505.0,184.3 506.1,184.3 507.2,184.3 508.2,184.5 509.3,184.5 510.4,184.5 511.5,184.6 512.6,184.6 513.7,184.6 514.8,184.6 515.9,185.2 517.0,185.2 518.1,185.2 519.2,185.2 520.3,185.2 521.4,184.3 522.5,184.3 523.6,184.3 524.7,184.4 525.8,184.4 526.8,184.4 527.9,184.4 529.0,183.8 530.1,183.8 531.2,183.8 532.3,183.8 533.4,183.5 534.5,183.5 535.6,183.5 536.7,183.5 537.8,183.5 538.9,183.1 540.0,183.1 541.1,183.1 542.2,183.1 543.3,183.2 544.4,183.2 545.4,183.2 546.5,183.0 547.6,183.0 548.7,183.0 549.8,183.0 550.9,183.0 552.0,184.3 553.1,184.3 554.2,184.3 555.3,184.5 556.4,184.5 557.5,184.5 558.6,184.5 559.7,184.7 560.8,184.7 561.9,184.7 563.0,184.7 564.0,184.8 565.1,184.8 566.2,184.8 567.3,184.8 568.4,184.8 569.5,184.9 570.6,184.9 571.7,184.9 572.8,184.9 573.9,184.8 575.0,184.8 576.1,184.8 577.2,184.6 578.3,184.6 579.4,184.6 580.5,184.6 581.6,184.6 582.6,184.1 583.7,184.1 584.8,184.1 585.9,184.1 587.0,184.3 588.1,184.3 589.2,184.3 590.3,184.3 591.4,184.6 592.5,184.6 593.6,184.6 594.7,184.6 595.8,184.6 596.9,184.6 598.0,184.6 599.1,184.6 600.2,185.0 601.2,185.0 602.3,185.0 603.4,185.0 604.5,185.1 605.6,185.1 606.7,185.1 607.8,185.1 608.9,185.1 610.0,185.1 611.1,185.1 612.2,185.1 613.3,184.6 614.4,184.6 615.5,184.6 616.6,184.5 617.7,184.5 618.8,184.5 619.8,184.5 620.9,184.5 622.0,184.5 623.1,184.5 624.2,184.5 625.3,184.5 626.4,184.5 627.5,184.5 628.6,184.5 629.7,184.5 630.8,184.5 631.9,184.5 633.0,184.5 634.1,184.5 635.2,184.5 636.3,184.5 637.4,184.5 638.4,185.2 639.5,185.2 640.6,185.2 641.7,185.2 642.8,184.6 643.9,184.6 645.0,184.6 646.1,184.6 647.2,184.5 648.3,184.5 649.4,184.5 650.5,184.5 651.6,184.7 652.7,184.7 653.8,184.7 654.9,184.7 656.0,184.7 657.0,185.0 658.1,185.0 659.2,185.0 660.3,185.0 661.4,185.1 662.5,185.1 663.6,185.1 664.7,184.3 665.8,184.3 666.9,184.3 668.0,184.3 669.1,184.6 670.2,184.6 671.3,184.6 672.4,184.6 673.5,184.8 674.6,184.8 675.6,184.8 676.7,184.8 677.8,184.8 678.9,185.0 680.0,185.0 681.1,185.0 682.2,185.0 683.3,184.5 684.4,184.5 685.5,184.5 686.6,184.5 687.7,184.5 688.8,184.5 689.9,184.5 691.0,184.5 692.1,185.0 693.2,185.0 694.2,185.0 695.3,184.7 696.4,184.7 697.5,184.7 698.6,184.7 699.7,184.7 700.8,184.7 701.9,184.7 703.0,184.7 704.1,184.7 705.2,184.8 706.3,184.8 707.4,184.8 708.5,184.1 709.6,184.1 710.7,184.1 711.8,184.1 712.8,184.4 713.9,184.4 715.0,184.4 716.1,184.4 717.2,184.4 718.3,184.2 719.4,184.2 720.5,184.2 721.6,184.2 722.7,184.3 723.8,184.3 724.9,184.3 726.0,183.7 727.1,183.7 728.2,183.7 729.3,183.7 730.4,184.1 731.4,184.1 732.5,184.1 733.6,184.1 734.7,184.2 735.8,184.2 736.9,184.2 738.0,184.2 739.1,184.2 740.2,183.9 741.3,183.9 742.4,183.9 743.5,183.9 744.6,184.4 745.7,184.4 746.8,184.4 747.9,183.4 749.0,183.4 750.0,183.4 751.1,183.4 752.2,183.4 753.3,183.4 754.4,183.4 755.5,183.4 756.6,182.7 757.7,182.7 758.8,182.7 759.9,182.7 761.0,182.7 762.1,182.2 763.2,182.2 764.3,182.2 765.4,182.6 766.5,182.6 767.6,182.6 768.6,182.6 769.7,182.6 770.8,183.3 771.9,183.3 773.0,183.3 774.1,183.6 775.2,183.6 776.3,183.6 777.4,183.6 778.5,182.8 779.6,182.8 780.7,182.8 781.8,182.8 782.9,183.2 784.0,183.2 785.1,183.2 786.2,183.2 787.2,184.0 788.3,184.0 789.4,184.0 790.5,184.0 791.6,184.0 792.7,183.7 793.8,183.7 794.9,183.7 796.0,183.8"/>
<text x="640" y="56" font-family="Arial" font-size="12" fill="#0f766e">bax</text>
<polyline fill="none" stroke="#2563eb" stroke-width="2.3" points="52.0,202.7 53.1,202.7 54.2,202.7 55.3,202.7 56.4,202.7 57.5,202.7 58.6,202.7 59.7,202.7 60.8,202.7 61.8,202.7 62.9,202.7 64.0,202.7 65.1,202.7 66.2,203.9 67.3,203.9 68.4,203.9 69.5,203.9 70.6,203.9 71.7,203.9 72.8,203.9 73.9,203.9 75.0,269.1 76.1,269.1 77.2,269.1 78.3,215.7 79.4,215.7 80.4,215.7 81.5,215.7 82.6,215.7 83.7,239.7 84.8,239.7 85.9,239.7 87.0,187.9 88.1,187.9 89.2,187.9 90.3,187.9 91.4,187.9 92.5,241.8 93.6,241.8 94.7,241.8 95.8,213.0 96.9,213.0 98.0,213.0 99.0,213.0 100.1,200.7 101.2,200.7 102.3,200.7 103.4,200.7 104.5,200.7 105.6,274.0 106.7,274.0 107.8,274.0 108.9,259.3 110.0,259.3 111.1,259.3 112.2,259.3 113.3,259.3 114.4,258.0 115.5,258.0 116.6,258.0 117.6,258.0 118.7,254.3 119.8,254.3 120.9,254.3 122.0,241.0 123.1,241.0 124.2,241.0 125.3,241.0 126.4,241.0 127.5,236.2 128.6,236.2 129.7,236.2 130.8,236.2 131.9,234.7 133.0,234.7 134.1,234.7 135.2,234.7 136.2,235.3 137.3,235.3 138.4,235.3 139.5,243.3 140.6,243.3 141.7,243.3 142.8,243.3 143.9,243.3 145.0,235.9 146.1,235.9 147.2,235.9 148.3,235.9 149.4,240.7 150.5,240.7 151.6,240.7 152.7,240.7 153.8,237.6 154.8,237.6 155.9,237.6 157.0,237.6 158.1,234.9 159.2,234.9 160.3,234.9 161.4,234.9 162.5,242.4 163.6,242.4 164.7,242.4 165.8,242.4 166.9,240.8 168.0,240.8 169.1,240.8 170.2,235.6 171.3,235.6 172.4,235.6 173.4,235.6 174.5,235.6 175.6,229.8 176.7,229.8 177.8,229.8 178.9,229.8 180.0,232.1 181.1,232.1 182.2,232.1 183.3,231.9 184.4,225.8 185.5,225.8 186.6,225.8 187.7,225.8 188.8,225.8 189.9,225.8 191.0,225.8 192.0,224.7 193.1,224.7 194.2,224.7 195.3,224.7 196.4,225.7 197.5,225.7 198.6,225.7 199.7,225.7 200.8,222.5 201.9,222.5 203.0,222.5 204.1,222.5 205.2,222.5 206.3,221.3 207.4,221.3 208.5,221.3 209.6,220.2 210.6,220.2 211.7,220.2 212.8,220.2 213.9,220.2 215.0,216.1 216.1,216.1 217.2,216.1 218.3,218.2 219.4,218.2 220.5,218.2 221.6,218.2 222.7,218.2 223.8,218.9 224.9,218.9 226.0,218.9 227.1,219.0 228.2,218.5 229.2,218.5 230.3,218.5 231.4,216.6 232.5,216.6 233.6,216.6 234.7,216.6 235.8,216.6 236.9,217.1 238.0,217.1 239.1,217.1 240.2,217.1 241.3,216.8 242.4,216.8 243.5,216.8 244.6,216.8 245.7,219.6 246.8,219.6 247.8,219.6 248.9,219.6 250.0,216.6 251.1,216.6 252.2,216.6 253.3,216.6 254.4,217.2 255.5,217.2 256.6,217.2 257.7,218.1 258.8,218.1 259.9,218.1 261.0,218.1 262.1,218.1 263.2,218.0 264.3,218.0 265.4,218.0 266.4,218.0 267.5,218.0 268.6,218.0 269.7,218.0 270.8,217.8 271.9,217.8 273.0,217.8 274.1,217.8 275.2,217.8 276.3,219.7 277.4,219.7 278.5,219.7 279.6,219.8 280.7,219.8 281.8,219.8 282.9,219.8 284.0,216.9 285.0,216.9 286.1,216.9 287.2,216.9 288.3,216.9 289.4,216.8 290.5,216.8 291.6,216.8 292.7,216.8 293.8,216.8 294.9,216.8 296.0,216.8 297.1,216.8 298.2,216.4 299.3,216.4 300.4,216.4 301.5,216.4 302.6,217.6 303.6,217.6 304.7,217.6 305.8,218.1 306.9,218.1 308.0,218.1 309.1,218.1 310.2,218.0 311.3,218.0 312.4,218.0 313.5,218.0 314.6,218.0 315.7,218.0 316.8,218.0 317.9,218.0 319.0,217.2 320.1,217.2 321.2,217.2 322.2,217.2 323.3,216.5 324.4,216.5 325.5,216.5 326.6,216.5 327.7,217.2 328.8,217.2 329.9,217.2 331.0,217.2 332.1,217.8 333.2,217.8 334.3,217.8 335.4,217.8 336.5,217.8 337.6,216.9 338.7,216.9 339.8,216.9 340.8,218.8 341.9,218.8 343.0,218.8 344.1,218.8 345.2,218.8 346.3,217.8 347.4,217.8 348.5,217.8 349.6,218.2 350.7,218.2 351.8,218.2 352.9,218.2 354.0,217.8 355.1,217.8 356.2,217.8 357.3,217.8 358.4,217.5 359.4,217.5 360.5,217.5 361.6,217.5 362.7,217.5 363.8,216.7 364.9,216.7 366.0,216.7 367.1,216.7 368.2,216.7 369.3,216.7 370.4,216.7 371.5,217.6 372.6,217.6 373.7,217.6 374.8,217.6 375.9,215.9 377.0,215.9 378.0,215.9 379.1,215.9 380.2,215.9 381.3,217.8 382.4,217.8 383.5,217.8 384.6,217.8 385.7,218.8 386.8,218.8 387.9,218.8 389.0,218.8 390.1,217.1 391.2,217.1 392.3,217.1 393.4,215.9 394.5,215.9 395.6,215.9 396.6,215.9 397.7,215.9 398.8,216.7 399.9,216.7 401.0,216.7 402.1,216.2 403.2,216.2 404.3,216.2 405.4,216.2 406.5,216.2 407.6,217.2 408.7,217.2 409.8,217.2 410.9,217.3 412.0,217.3 413.1,217.3 414.2,217.3 415.2,217.4 416.3,217.4 417.4,217.4 418.5,217.4 419.6,217.5 420.7,217.5 421.8,217.5 422.9,217.5 424.0,217.4 425.1,217.4 426.2,217.4 427.3,217.4 428.4,218.1 429.5,218.1 430.6,218.1 431.7,218.1 432.8,218.3 433.8,218.3 434.9,218.3 436.0,218.3 437.1,218.9 438.2,218.9 439.3,218.9 440.4,218.9 441.5,218.9 442.6,218.3 443.7,218.3 444.8,218.3 445.9,220.0 447.0,220.0 448.1,220.0 449.2,220.0 450.3,218.7 451.4,218.7 452.4,218.7 453.5,218.7 454.6,218.2 455.7,218.2 456.8,218.2 457.9,218.2 459.0,218.2 460.1,216.6 461.2,216.6 462.3,216.6 463.4,216.6 464.5,217.6 465.6,217.6 466.7,217.6 467.8,217.6 468.9,217.3 470.0,217.3 471.0,217.3 472.1,217.3 473.2,217.5 474.3,217.5 475.4,217.5 476.5,217.2 477.6,217.2 478.7,217.2 479.8,217.2 480.9,217.5 482.0,217.5 483.1,217.5 484.2,217.5 485.3,218.1 486.4,218.1 487.5,218.1 488.6,218.1 489.6,218.1 490.7,218.0 491.8,218.0 492.9,218.0 494.0,218.5 495.1,218.5 496.2,218.5 497.3,218.5 498.4,219.0 499.5,219.0 500.6,219.0 501.7,219.0 502.8,219.4 503.9,219.4 505.0,219.4 506.1,219.4 507.2,219.4 508.2,220.0 509.3,220.0 510.4,220.0 511.5,220.1 512.6,220.1 513.7,220.1 514.8,220.1 515.9,220.2 517.0,220.2 518.1,220.2 519.2,220.2 520.3,220.2 521.4,221.1 522.5,221.1 523.6,221.1 524.7,220.8 525.8,220.8 526.8,220.8 527.9,220.8 529.0,220.2 530.1,220.2 531.2,220.2 532.3,220.2 533.4,220.0 534.5,220.0 535.6,220.0 536.7,220.0 537.8,220.0 538.9,218.6 540.0,218.6 541.1,218.6 542.2,218.6 543.3,219.1 544.4,219.1 545.4,219.1 546.5,219.4 547.6,219.4 548.7,219.4 549.8,219.4 550.9,219.4 552.0,219.7 553.1,219.7 554.2,219.7 555.3,220.0 556.4,220.0 557.5,220.0 558.6,220.0 559.7,219.9 560.8,219.9 561.9,219.9 563.0,219.9 564.0,220.2 565.1,220.2 566.2,220.2 567.3,220.2 568.4,220.2 569.5,220.3 570.6,220.3 571.7,220.3 572.8,220.3 573.9,219.9 575.0,219.9 576.1,219.9 577.2,219.9 578.3,219.9 579.4,219.9 580.5,219.9 581.6,219.9 582.6,219.6 583.7,219.6 584.8,219.6 585.9,219.6 587.0,220.4 588.1,220.4 589.2,220.4 590.3,220.4 591.4,220.4 592.5,220.4 593.6,220.4 594.7,220.4 595.8,221.1 596.9,221.1 598.0,221.1 599.1,221.1 600.2,220.8 601.2,220.8 602.3,220.8 603.4,220.8 604.5,219.7 605.6,219.7 606.7,219.7 607.8,219.6 608.9,219.6 610.0,219.6 611.1,219.6 612.2,219.6 613.3,219.5 614.4,219.5 615.5,219.5 616.6,219.6 617.7,219.6 618.8,219.6 619.8,219.6 620.9,219.6 622.0,219.6 623.1,219.6 624.2,219.6 625.3,219.6 626.4,219.6 627.5,219.6 628.6,219.6 629.7,219.6 630.8,218.9 631.9,218.9 633.0,218.9 634.1,218.9 635.2,218.9 636.3,218.9 637.4,218.9 638.4,219.4 639.5,219.4 640.6,219.4 641.7,219.4 642.8,218.9 643.9,218.9 645.0,218.9 646.1,218.9 647.2,219.9 648.3,219.9 649.4,219.9 650.5,219.9 651.6,220.2 652.7,220.2 653.8,220.2 654.9,220.2 656.0,220.2 657.0,220.8 658.1,220.8 659.2,220.8 660.3,220.8 661.4,219.7 662.5,219.7 663.6,219.7 664.7,220.0 665.8,220.0 666.9,220.0 668.0,220.0 669.1,219.6 670.2,219.6 671.3,219.6 672.4,219.6 673.5,219.3 674.6,219.3 675.6,219.3 676.7,219.3 677.8,219.3 678.9,219.3 680.0,219.3 681.1,219.3 682.2,219.3 683.3,218.7 684.4,218.7 685.5,218.7 686.6,218.4 687.7,218.4 688.8,218.4 689.9,218.4 691.0,218.4 692.1,218.0 693.2,218.0 694.2,218.0 695.3,218.3 696.4,218.3 697.5,218.3 698.6,218.3 699.7,218.5 700.8,218.5 701.9,218.5 703.0,218.5 704.1,218.5 705.2,218.4 706.3,218.4 707.4,218.4 708.5,218.6 709.6,218.6 710.7,218.6 711.8,218.6 712.8,219.0 713.9,219.0 715.0,219.0 716.1,219.0 717.2,219.0 718.3,218.6 719.4,218.6 720.5,218.6 721.6,218.6 722.7,218.9 723.8,218.9 724.9,218.9 726.0,219.4 727.1,219.4 728.2,219.4 729.3,219.4 730.4,219.1 731.4,219.1 732.5,219.1 733.6,219.1 734.7,218.9 735.8,218.9 736.9,218.9 738.0,218.9 739.1,218.9 740.2,218.2 741.3,218.2 742.4,218.2 743.5,218.2 744.6,218.3 745.7,218.3 746.8,218.3 747.9,218.4 749.0,218.4 750.0,218.4 751.1,218.4 752.2,218.3 753.3,218.4 754.4,218.4 755.5,218.4 756.6,218.1 757.7,218.1 758.8,218.1 759.9,218.1 761.0,218.1 762.1,218.3 763.2,218.3 764.3,218.3 765.4,219.4 766.5,219.4 767.6,219.4 768.6,219.4 769.7,219.4 770.8,219.2 771.9,219.2 773.0,219.2 774.1,218.9 775.2,218.9 776.3,218.9 777.4,218.9 778.5,219.7 779.6,219.7 780.7,219.7 781.8,219.7 782.9,220.3 784.0,220.3 785.1,220.3 786.2,220.3 787.2,220.5 788.3,220.5 789.4,220.5 790.5,220.5 791.6,220.5 792.7,220.2 793.8,220.2 794.9,220.2 796.0,220.1"/>
<text x="640" y="72" font-family="Arial" font-size="12" fill="#2563eb">bay</text>
<polyline fill="none" stroke="#b45309" stroke-width="2.3" points="52.0,202.7 53.1,202.7 54.2,202.7 55.3,202.7 56.4,202.7 57.5,202.7 58.6,202.7 59.7,202.7 60.8,202.7 61.8,202.7 62.9,205.3 64.0,205.3 65.1,205.3 66.2,187.3 67.3,187.3 68.4,187.3 69.5,187.3 70.6,187.3 71.7,187.3 72.8,187.3 73.9,185.8 75.0,149.5 76.1,149.5 77.2,140.6 78.3,94.1 79.4,92.2 80.4,92.2 81.5,92.2 82.6,92.6 83.7,121.0 84.8,121.2 85.9,121.2 87.0,67.7 88.1,67.8 89.2,67.8 90.3,67.8 91.4,66.1 92.5,42.0 93.6,43.6 94.7,43.6 95.8,62.7 96.9,61.7 98.0,61.7 99.0,62.4 100.1,128.2 101.2,128.2 102.3,127.8 103.4,127.8 104.5,127.8 105.6,122.2 106.7,123.3 107.8,122.8 108.9,166.1 110.0,164.8 111.1,164.8 112.2,164.8 113.3,165.2 114.4,193.8 115.5,193.8 116.6,193.8 117.6,194.5 118.7,190.9 119.8,190.9 120.9,194.0 122.0,196.6 123.1,195.2 124.2,195.2 125.3,195.2 126.4,196.3 127.5,202.6 128.6,205.4 129.7,205.4 130.8,205.4 131.9,204.0 133.0,204.0 134.1,204.0 135.2,203.1 136.2,186.1 137.3,185.2 138.4,185.2 139.5,176.2 140.6,174.0 141.7,174.0 142.8,175.6 143.9,175.6 145.0,178.1 146.1,178.6 147.2,178.6 148.3,176.7 149.4,169.3 150.5,169.0 151.6,169.0 152.7,169.0 153.8,174.4 154.8,174.4 155.9,174.4 157.0,172.8 158.1,167.3 159.2,167.3 160.3,167.6 161.4,164.3 162.5,169.4 163.6,169.4 164.7,168.8 165.8,168.8 166.9,173.3 168.0,173.3 169.1,173.3 170.2,176.9 171.3,176.9 172.4,174.2 173.4,174.2 174.5,174.2 175.6,176.6 176.7,176.6 177.8,176.5 178.9,176.5 180.0,178.6 181.1,178.7 182.2,178.7 183.3,177.7 184.4,180.4 185.5,180.4 186.6,180.1 187.7,180.1 188.8,178.1 189.9,178.5 191.0,178.5 192.0,182.0 193.1,182.0 194.2,184.0 195.3,184.7 196.4,183.8 197.5,182.9 198.6,182.9 199.7,182.9 200.8,184.9 201.9,184.6 203.0,184.6 204.1,184.6 205.2,184.0 206.3,183.1 207.4,183.1 208.5,183.0 209.6,183.0 210.6,183.0 211.7,181.8 212.8,181.8 213.9,181.5 215.0,182.4 216.1,180.9 217.2,181.2 218.3,179.9 219.4,179.5 220.5,179.5 221.6,179.9 222.7,179.9 223.8,181.1 224.9,180.7 226.0,180.7 227.1,180.8 228.2,180.2 229.2,180.2 230.3,180.2 231.4,181.3 232.5,182.1 233.6,182.1 234.7,181.8 235.8,181.8 236.9,185.2 238.0,185.4 239.1,185.6 240.2,185.6 241.3,186.7 242.4,186.7 243.5,186.7 244.6,186.7 245.7,186.8 246.8,186.5 247.8,186.5 248.9,186.0 250.0,185.2 251.1,185.2 252.2,184.7 253.3,184.7 254.4,184.8 255.5,184.4 256.6,184.4 257.7,187.1 258.8,187.1 259.9,187.3 261.0,187.3 262.1,187.3 263.2,187.2 264.3,187.2 265.4,187.2 266.4,187.1 267.5,187.1 268.6,186.6 269.7,186.6 270.8,185.6 271.9,185.6 273.0,185.6 274.1,185.0 275.2,185.0 276.3,186.2 277.4,186.1 278.5,186.1 279.6,185.4 280.7,185.4 281.8,184.9 282.9,184.9 284.0,185.1 285.0,184.6 286.1,184.6 287.2,184.6 288.3,184.0 289.4,183.2 290.5,183.3 291.6,183.3 292.7,184.8 293.8,184.8 294.9,184.8 296.0,185.0 297.1,185.0 298.2,184.8 299.3,184.6 300.4,184.6 301.5,184.2 302.6,185.6 303.6,185.5 304.7,184.9 305.8,184.5 306.9,184.5 308.0,184.8 309.1,184.8 310.2,185.3 311.3,185.3 312.4,185.4 313.5,185.4 314.6,186.3 315.7,186.3 316.8,186.3 317.9,186.3 319.0,186.1 320.1,186.3 321.2,186.3 322.2,186.3 323.3,185.9 324.4,185.9 325.5,185.5 326.6,185.5 327.7,185.8 328.8,185.8 329.9,185.8 331.0,186.1 332.1,187.2 333.2,187.2 334.3,186.7 335.4,186.7 336.5,188.0 337.6,187.3 338.7,187.3 339.8,186.9 340.8,187.9 341.9,188.8 343.0,188.8 344.1,188.8 345.2,188.8 346.3,188.8 347.4,189.0 348.5,189.0 349.6,188.1 350.7,188.1 351.8,188.1 352.9,188.1 354.0,188.7 355.1,188.7 356.2,188.4 357.3,188.4 358.4,189.1 359.4,189.1 360.5,189.1 361.6,189.2 362.7,189.2 363.8,188.7 364.9,188.7 366.0,188.7 367.1,188.4 368.2,188.4 369.3,188.4 370.4,188.4 371.5,188.4 372.6,188.8 373.7,188.8 374.8,188.4 375.9,189.7 377.0,189.7 378.0,189.8 379.1,189.8 380.2,189.9 381.3,189.4 382.4,189.4 383.5,189.4 384.6,189.4 385.7,188.6 386.8,187.8 387.9,187.8 389.0,187.5 390.1,187.7 391.2,187.9 392.3,187.9 393.4,187.2 394.5,187.1 395.6,187.1 396.6,187.1 397.7,187.1 398.8,187.2 399.9,187.0 401.0,187.0 402.1,187.2 403.2,187.0 404.3,187.0 405.4,186.6 406.5,186.6 407.6,187.0 408.7,187.0 409.8,187.0 410.9,187.8 412.0,187.8 413.1,187.6 414.2,187.4 415.2,188.1 416.3,188.5 417.4,188.5 418.5,188.3 419.6,188.6 420.7,188.6 421.8,188.6 422.9,188.6 424.0,188.0 425.1,188.0 426.2,188.0 427.3,188.4 428.4,189.5 429.5,189.5 430.6,189.4 431.7,189.4 432.8,189.8 433.8,189.8 434.9,190.4 436.0,190.2 437.1,189.1 438.2,188.8 439.3,188.8 440.4,188.8 441.5,188.9 442.6,188.6 443.7,188.5 444.8,188.5 445.9,190.1 447.0,190.2 448.1,190.2 449.2,190.2 450.3,190.7 451.4,190.7 452.4,190.7 453.5,190.7 454.6,190.4 455.7,190.4 456.8,190.6 457.9,190.5 459.0,190.5 460.1,190.3 461.2,190.3 462.3,190.3 463.4,190.1 464.5,189.9 465.6,190.0 466.7,190.0 467.8,190.2 468.9,190.3 470.0,190.3 471.0,190.3 472.1,190.3 473.2,190.1 474.3,190.1 475.4,190.1 476.5,189.2 477.6,189.2 478.7,189.4 479.8,189.5 480.9,189.4 482.0,189.1 483.1,189.1 484.2,189.3 485.3,189.1 486.4,189.1 487.5,189.1 488.6,189.1 489.6,188.8 490.7,188.8 491.8,188.8 492.9,188.8 494.0,188.5 495.1,188.5 496.2,188.4 497.3,188.4 498.4,188.5 499.5,188.5 500.6,188.7 501.7,188.7 502.8,188.6 503.9,188.7 505.0,188.7 506.1,188.7 507.2,188.3 508.2,189.1 509.3,189.2 510.4,189.2 511.5,188.3 512.6,188.3 513.7,188.3 514.8,188.5 515.9,187.9 517.0,188.0 518.1,188.0 519.2,188.0 520.3,188.1 521.4,187.3 522.5,186.9 523.6,187.0 524.7,186.3 525.8,186.2 526.8,186.2 527.9,186.2 529.0,185.4 530.1,185.4 531.2,185.5 532.3,185.5 533.4,185.7 534.5,185.8 535.6,185.8 536.7,186.0 537.8,186.0 538.9,185.3 540.0,185.3 541.1,185.3 542.2,185.1 543.3,184.5 544.4,184.7 545.4,184.8 546.5,183.9 547.6,184.2 548.7,184.2 549.8,184.2 550.9,184.6 552.0,184.4 553.1,184.3 554.2,184.3 555.3,184.5 556.4,184.5 557.5,184.5 558.6,184.5 559.7,183.8 560.8,184.0 561.9,184.0 563.0,183.6 564.0,183.6 565.1,183.6 566.2,183.4 567.3,183.4 568.4,183.4 569.5,184.1 570.6,184.1 571.7,184.3 572.8,184.3 573.9,184.3 575.0,184.6 576.1,184.6 577.2,184.4 578.3,184.4 579.4,184.4 580.5,184.4 581.6,184.4 582.6,185.1 583.7,185.1 584.8,185.1 585.9,185.1 587.0,185.9 588.1,186.6 589.2,186.6 590.3,186.6 591.4,187.8 592.5,187.8 593.6,187.8 594.7,187.8 595.8,187.1 596.9,186.9 598.0,186.9 599.1,187.0 600.2,186.4 601.2,186.4 602.3,186.2 603.4,186.2 604.5,185.6 605.6,185.4 606.7,185.4 607.8,184.9 608.9,184.9 610.0,185.2 611.1,185.2 612.2,185.2 613.3,184.8 614.4,184.8 615.5,185.2 616.6,185.2 617.7,185.2 618.8,185.2 619.8,185.2 620.9,185.1 622.0,185.1 623.1,185.1 624.2,185.3 625.3,185.3 626.4,185.3 627.5,185.2 628.6,185.2 629.7,185.2 630.8,184.8 631.9,184.6 633.0,184.6 634.1,184.6 635.2,184.2 636.3,184.2 637.4,184.2 638.4,184.1 639.5,184.1 640.6,184.1 641.7,184.1 642.8,183.7 643.9,183.7 645.0,183.7 646.1,183.7 647.2,183.0 648.3,183.4 649.4,183.4 650.5,183.4 651.6,182.8 652.7,182.8 653.8,182.6 654.9,182.6 656.0,182.6 657.0,182.5 658.1,182.5 659.2,182.5 660.3,182.5 661.4,182.7 662.5,182.8 663.6,182.8 664.7,183.3 665.8,183.5 666.9,183.5 668.0,183.5 669.1,183.0 670.2,182.7 671.3,182.7 672.4,182.7 673.5,182.6 674.6,182.6 675.6,182.7 676.7,182.7 677.8,182.7 678.9,183.7 680.0,183.7 681.1,183.8 682.2,183.8 683.3,184.3 684.4,184.2 685.5,184.2 686.6,184.3 687.7,184.3 688.8,184.3 689.9,184.4 691.0,184.4 692.1,184.4 693.2,184.6 694.2,184.6 695.3,185.2 696.4,185.2 697.5,185.2 698.6,185.4 699.7,185.4 700.8,185.5 701.9,185.5 703.0,185.6 704.1,185.6 705.2,185.4 706.3,185.5 707.4,185.5 708.5,185.9 709.6,185.9 710.7,185.9 711.8,186.1 712.8,186.1 713.9,186.1 715.0,186.1 716.1,186.1 717.2,186.2 718.3,186.1 719.4,186.1 720.5,186.1 721.6,186.1 722.7,186.8 723.8,186.8 724.9,187.1 726.0,187.1 727.1,187.1 728.2,187.2 729.3,187.2 730.4,186.7 731.4,186.7 732.5,186.7 733.6,186.6 734.7,186.9 735.8,186.8 736.9,186.8 738.0,186.8 739.1,186.8 740.2,187.1 741.3,187.2 742.4,187.2 743.5,187.2 744.6,187.4 745.7,187.4 746.8,187.4 747.9,187.1 749.0,187.1 750.0,187.0 751.1,187.0 752.2,187.0 753.3,187.3 754.4,187.3 755.5,187.3 756.6,186.9 757.7,186.9 758.8,186.9 759.9,186.9 761.0,186.8 762.1,186.8 763.2,186.9 764.3,186.8 765.4,186.5 766.5,186.6 767.6,186.6 768.6,186.6 769.7,186.5 770.8,187.0 771.9,187.0 773.0,187.0 774.1,186.5 775.2,186.5 776.3,186.5 777.4,186.5 778.5,186.8 779.6,186.7 780.7,186.7 781.8,186.7 782.9,187.2 784.0,187.2 785.1,187.4 786.2,187.4 787.2,187.6 788.3,187.6 789.4,187.6 790.5,187.6 791.6,187.6 792.7,187.7 793.8,187.7 794.9,187.7 796.0,187.3"/>
<text x="640" y="88" font-family="Arial" font-size="12" fill="#b45309">baz</text>
</svg>