<svg xmlns="http://www.w3.org/2000/svg" width="820" height="320" viewBox="0 0 820 320">
<rect width="100%" height="100%" fill="white"/>
<text x="52" y="30" font-family="Arial" font-size="18" font-weight="700">adaptive_nominal covariance bounds</text>
<line x1="52" y1="274" x2="796" y2="274" stroke="#263238"/>
<line x1="52" y1="42" x2="52" y2="274" stroke="#263238"/>
<text x="52" y="306" font-family="Arial" font-size="12">time (s)</text>
<text x="630" y="306" font-family="Arial" font-size="12">m</text>

<rect x="314.6" y="42" width="153.2" height="232" fill="#fef3c7" opacity="0.72"/>
<polyline fill="none" stroke="#0f766e" stroke-width="2.3" points="52.0,48.1 53.1,47.5 54.2,46.9 55.3,46.4 56.4,45.8 57.5,45.2 58.6,44.6 59.7,44.0 60.8,43.4 61.8,42.8 62.9,45.5 64.0,45.0 65.1,44.5 66.2,46.4 67.3,46.1 68.4,45.7 69.5,45.4 70.6,45.1 71.7,44.8 72.8,44.5 73.9,44.4 75.0,45.2 76.1,44.9 77.2,45.0 78.3,45.1 79.4,44.9 80.4,44.6 81.5,44.4 82.6,44.2 83.7,44.0 84.8,43.8 85.9,43.7 87.0,43.5 88.1,43.3 89.2,43.2 90.3,43.0 91.4,42.8 92.5,43.0 93.6,42.5 94.7,42.0 95.8,150.7 96.9,150.3 98.0,149.9 99.0,149.5 100.1,149.1 101.2,148.7 102.3,148.3 103.4,147.9 104.5,147.4 105.6,147.1 106.7,146.7 107.8,146.3 108.9,146.2 110.0,145.8 111.1,145.5 112.2,145.1 113.3,144.7 114.4,144.0 115.5,143.5 116.6,143.1 117.6,142.6 118.7,141.7 119.8,141.1 120.9,140.6 122.0,140.9 123.1,140.5 124.2,140.0 125.3,139.6 126.4,139.1 127.5,138.8 128.6,138.2 129.7,137.8 130.8,137.4 131.9,136.9 133.0,136.4 134.1,136.0 135.2,135.6 136.2,136.4 137.3,136.1 138.4,135.8 139.5,158.7 140.6,158.3 141.7,157.8 142.8,157.3 143.9,156.8 145.0,156.9 146.1,156.5 147.2,156.1 148.3,155.7 149.4,155.3 150.5,154.9 151.6,154.4 152.7,154.0 153.8,154.0 154.8,153.6 155.9,153.3 157.0,152.9 158.1,152.6 159.2,152.3 160.3,151.9 161.4,151.5 162.5,151.2 163.6,150.8 164.7,150.4 165.8,150.0 166.9,149.4 168.0,148.9 169.1,148.5 170.2,148.8 171.3,148.4 172.4,148.1 173.4,147.7 174.5,147.3 175.6,147.9 176.7,147.6 177.8,147.3 178.9,147.0 180.0,146.5 181.1,146.1 182.2,145.8 183.3,206.9 184.4,207.0 185.5,206.8 186.6,206.6 187.7,206.4 188.8,206.5 189.9,206.4 191.0,206.2 192.0,205.4 193.1,205.2 194.2,205.0 195.3,204.8 196.4,204.2 197.5,204.0 198.6,203.8 199.7,203.6 200.8,203.8 201.9,203.6 203.0,203.4 204.1,203.3 205.2,203.1 206.3,201.9 207.4,201.7 208.5,201.5 209.6,201.7 210.6,201.5 211.7,201.3 212.8,201.1 213.9,200.9 215.0,200.2 216.1,200.0 217.2,199.8 218.3,199.4 219.4,199.2 220.5,199.0 221.6,198.7 222.7,198.5 223.8,197.7 224.9,197.4 226.0,197.2 227.1,214.1 228.2,213.1 229.2,212.7 230.3,212.4 231.4,212.1 232.5,211.8 233.6,211.5 234.7,211.1 235.8,210.8 236.9,211.5 238.0,211.3 239.1,211.0 240.2,210.7 241.3,211.0 242.4,210.7 243.5,210.5 244.6,210.3 245.7,208.8 246.8,208.5 247.8,208.3 248.9,208.0 250.0,207.9 251.1,207.7 252.2,207.4 253.3,207.1 254.4,206.7 255.5,206.5 256.6,206.2 257.7,206.9 258.8,206.7 259.9,206.5 261.0,206.2 262.1,206.0 263.2,205.7 264.3,205.5 265.4,205.3 266.4,205.0 267.5,204.8 268.6,204.6 269.7,204.4 270.8,199.5 271.9,199.3 273.0,199.1 274.1,198.9 275.2,198.7 276.3,198.1 277.4,197.9 278.5,197.7 279.6,198.0 280.7,197.8 281.8,197.6 282.9,197.4 284.0,197.3 285.0,197.1 286.1,197.0 287.2,196.8 288.3,196.6 289.4,196.6 290.5,196.4 291.6,196.3 292.7,194.1 293.8,193.8 294.9,193.6 296.0,193.3 297.1,193.1 298.2,191.3 299.3,191.0 300.4,190.7 301.5,190.4 302.6,190.6 303.6,190.4 304.7,190.1 305.8,189.8 306.9,189.5 308.0,189.2 309.1,188.9 310.2,189.0 311.3,188.8 312.4,188.5 313.5,188.3 314.6,189.1 315.7,188.9 316.8,188.7 317.9,188.5 319.0,186.6 320.1,186.3 321.2,186.1 322.2,185.8 323.3,187.2 324.4,187.0 325.5,186.8 326.6,186.6 327.7,186.4 328.8,186.2 329.9,186.0 331.0,185.8 332.1,184.5 333.2,184.2 334.3,184.0 335.4,183.7 336.5,183.5 337.6,183.2 338.7,183.0 339.8,182.7 340.8,182.7 341.9,182.4 343.0,182.2 344.1,181.9 345.2,181.6 346.3,180.7 347.4,180.4 348.5,180.1 349.6,181.1 350.7,180.8 351.8,180.5 352.9,180.3 354.0,179.0 355.1,178.7 356.2,178.4 357.3,178.1 358.4,179.4 359.4,179.2 360.5,178.9 361.6,178.6 362.7,178.4 363.8,177.4 364.9,177.1 366.0,176.9 367.1,176.4 368.2,176.1 369.3,175.8 370.4,175.6 371.5,174.1 372.6,173.7 373.7,173.4 374.8,173.1 375.9,171.7 377.0,171.4 378.0,171.0 379.1,170.7 380.2,170.3 381.3,170.5 382.4,170.2 383.5,169.8 384.6,169.5 385.7,168.8 386.8,168.5 387.9,168.2 389.0,167.9 390.1,168.3 391.2,168.0 392.3,167.6 393.4,166.1 394.5,165.8 395.6,165.5 396.6,165.1 397.7,164.8 398.8,164.4 399.9,164.0 401.0,163.7 402.1,163.6 403.2,163.3 404.3,163.0 405.4,162.6 406.5,162.3 407.6,163.8 408.7,163.6 409.8,163.3 410.9,162.3 412.0,162.0 413.1,161.7 414.2,161.4 415.2,161.3 416.3,161.0 417.4,160.7 418.5,160.4 419.6,160.9 420.7,160.7 421.8,160.4 422.9,160.2 424.0,160.2 425.1,159.9 426.2,159.7 427.3,159.4 428.4,159.5 429.5,159.3 430.6,159.1 431.7,158.9 432.8,157.4 433.8,157.1 434.9,156.8 436.0,156.6 437.1,156.9 438.2,156.6 439.3,156.4 440.4,156.1 441.5,155.9 442.6,156.2 443.7,156.0 444.8,155.8 445.9,153.3 447.0,153.0 448.1,152.8 449.2,152.5 450.3,150.5 451.4,150.2 452.4,149.9 453.5,149.5 454.6,149.8 455.7,149.5 456.8,149.2 457.9,148.9 459.0,148.5 460.1,148.6 461.2,148.2 462.3,147.9 463.4,147.6 464.5,146.9 465.6,146.5 466.7,146.2 467.8,145.8 468.9,144.6 470.0,144.3 471.0,143.9 472.1,143.6 473.2,142.7 474.3,142.4 475.4,142.0 476.5,143.1 477.6,142.8 478.7,142.5 479.8,142.2 480.9,143.0 482.0,142.8 483.1,142.5 484.2,142.3 485.3,141.9 486.4,141.7 487.5,141.4 488.6,141.2 489.6,183.8 490.7,184.2 491.8,184.0 492.9,183.8 494.0,182.7 495.1,182.4 496.2,182.2 497.3,181.9 498.4,182.3 499.5,182.0 500.6,181.7 501.7,181.4 502.8,181.1 503.9,180.8 505.0,180.6 506.1,180.3 507.2,180.1 508.2,179.4 509.3,179.1 510.4,178.8 511.5,178.5 512.6,178.2 513.7,177.9 514.8,177.6 515.9,176.3 517.0,176.0 518.1,175.7 519.2,175.3 520.3,175.0 521.4,175.8 522.5,175.5 523.6,175.2 524.7,175.0 525.8,174.7 526.8,174.4 527.9,174.1 529.0,174.3 530.1,174.1 531.2,173.8 532.3,173.6 533.4,202.2 534.5,202.0 535.6,201.7 536.7,201.5 537.8,201.2 538.9,201.5 540.0,201.3 541.1,201.0 542.2,200.8 543.3,200.4 544.4,200.2 545.4,200.0 546.5,199.9 547.6,199.7 548.7,199.4 549.8,199.2 550.9,199.0 552.0,197.2 553.1,196.9 554.2,196.6 555.3,196.1 556.4,195.8 557.5,195.6 558.6,195.3 559.7,194.8 560.8,194.5 561.9,194.2 563.0,193.9 564.0,193.4 565.1,193.1 566.2,192.8 567.3,192.5 568.4,192.2 569.5,191.8 570.6,191.5 571.7,191.2 572.8,190.9 573.9,190.9 575.0,190.6 576.1,190.4 577.2,209.1 578.3,208.8 579.4,208.5 580.5,208.2 581.6,208.0 582.6,208.4 583.7,208.1 584.8,207.9 585.9,207.6 587.0,207.1 588.1,206.9 589.2,206.6 590.3,206.4 591.4,205.9 592.5,205.6 593.6,205.3 594.7,205.1 595.8,204.7 596.9,204.4 598.0,204.2 599.1,203.9 600.2,203.4 601.2,203.1 602.3,202.8 603.4,202.6 604.5,202.4 605.6,202.1 606.7,201.8 607.8,201.6 608.9,201.3 610.0,201.0 611.1,200.8 612.2,200.5 613.3,200.6 614.4,200.3 615.5,200.1 616.6,199.9 617.7,199.7 618.8,199.4 619.8,199.1 620.9,202.1 622.0,201.9 623.1,201.6 624.2,201.3 625.3,201.0 626.4,200.8 627.5,200.5 628.6,200.2 629.7,199.9 630.8,199.8 631.9,199.5 633.0,199.2 634.1,198.9 635.2,198.7 636.3,198.4 637.4,198.1 638.4,197.2 639.5,196.9 640.6,196.6 641.7,196.3 642.8,196.5 643.9,196.2 645.0,195.9 646.1,195.6 647.2,195.2 648.3,195.0 649.4,194.7 650.5,194.4 651.6,193.7 652.7,193.4 653.8,193.1 654.9,192.8 656.0,192.5 657.0,191.6 658.1,191.3 659.2,190.9 660.3,190.6 661.4,190.5 662.5,190.2 663.6,189.9 664.7,191.7 665.8,191.4 666.9,191.1 668.0,190.8 669.1,190.1 670.2,189.7 671.3,189.3 672.4,189.0 673.5,188.2 674.6,187.9 675.6,187.6 676.7,187.2 677.8,186.8 678.9,186.0 680.0,185.6 681.1,185.3 682.2,184.9 683.3,186.3 684.4,185.9 685.5,185.5 686.6,185.4 687.7,185.0 688.8,184.7 689.9,184.3 691.0,183.9 692.1,182.0 693.2,181.7 694.2,181.3 695.3,181.8 696.4,181.5 697.5,181.1 698.6,180.8 699.7,180.3 700.8,180.0 701.9,179.6 703.0,179.3 704.1,178.9 705.2,178.2 706.3,177.9 707.4,177.5 708.5,186.5 709.6,186.2 710.7,185.9 711.8,185.6 712.8,183.6 713.9,183.3 715.0,182.9 716.1,182.6 717.2,182.3 718.3,183.1 719.4,182.8 720.5,182.5 721.6,182.2 722.7,181.1 723.8,180.8 724.9,180.4 726.0,182.1 727.1,181.9 728.2,181.5 729.3,181.3 730.4,179.7 731.4,179.4 732.5,179.1 733.6,178.9 734.7,178.1 735.8,177.8 736.9,177.5 738.0,177.2 739.1,176.9 740.2,178.3 741.3,178.0 742.4,177.7 743.5,177.5 744.6,175.4 745.7,175.1 746.8,174.7 747.9,177.5 749.0,177.2 750.0,177.0 751.1,176.7 752.2,191.0 753.3,190.6 754.4,190.4 755.5,190.1 756.6,191.6 757.7,191.4 758.8,191.2 759.9,191.0 761.0,190.8 762.1,192.0 763.2,191.8 764.3,191.7 765.4,189.7 766.5,189.5 767.6,189.3 768.6,189.1 769.7,188.9 770.8,186.8 771.9,186.5 773.0,186.3 774.1,185.5 775.2,185.2 776.3,184.9 777.4,184.6 778.5,186.0 779.6,185.7 780.7,185.5 781.8,185.2 782.9,183.8 784.0,183.5 785.1,183.2 786.2,183.0 787.2,180.7 788.3,180.4 789.4,180.1 790.5,179.7 791.6,179.4 792.7,179.9 793.8,179.6 794.9,179.3 796.0,203.8"/>
<text x="640" y="56" font-family="Arial" font-size="12" fill="#0f766e">position error</text>
<polyline fill="none" stroke="#2563eb" stroke-width="2.3" points="52.0,183.4 53.1,182.8 54.2,181.3 55.3,178.7 56.4,175.1 57.5,170.7 58.6,165.5 59.7,159.5 60.8,153.0 61.8,145.8 62.9,151.9 64.0,145.6 65.1,139.0 66.2,184.5 67.3,184.5 68.4,184.4 69.5,184.4 70.6,184.4 71.7,184.3 72.8,184.3 73.9,184.8 75.0,185.3 76.1,185.3 77.2,185.5 78.3,185.5 79.4,185.6 80.4,185.6 81.5,185.6 82.6,185.6 83.7,185.6 84.8,185.7 85.9,185.7 87.0,185.7 88.1,185.8 89.2,185.8 90.3,185.8 91.4,185.8 92.5,185.8 93.6,185.8 94.7,185.8 95.8,220.6 96.9,220.6 98.0,220.6 99.0,220.6 100.1,220.6 101.2,220.6 102.3,220.6 103.4,220.6 104.5,220.6 105.6,220.6 106.7,220.6 107.8,220.6 108.9,220.6 110.0,220.7 111.1,220.6 112.2,220.6 113.3,220.6 114.4,220.7 115.5,220.6 116.6,220.6 117.6,220.6 118.7,220.6 119.8,220.6 120.9,220.6 122.0,220.6 123.1,220.6 124.2,220.6 125.3,220.6 126.4,220.6 127.5,220.6 128.6,220.6 129.7,220.6 130.8,220.6 131.9,220.6 133.0,220.6 134.1,220.6 135.2,220.6 136.2,220.6 137.3,220.6 138.4,220.6 139.5,240.9 140.6,240.9 141.7,240.9 142.8,240.9 143.9,240.9 145.0,240.9 146.1,240.9 147.2,240.9 148.3,240.9 149.4,240.9 150.5,240.9 151.6,240.9 152.7,240.9 153.8,240.9 154.8,240.9 155.9,240.9 157.0,240.9 158.1,240.9 159.2,240.9 160.3,240.9 161.4,240.9 162.5,240.9 163.6,240.9 164.7,240.9 165.8,240.8 166.9,240.9 168.0,240.8 169.1,240.8 170.2,240.9 171.3,240.8 172.4,240.8 173.4,240.8 174.5,240.8 175.6,240.8 176.7,240.8 177.8,240.8 178.9,240.8 180.0,240.8 181.1,240.8 182.2,240.8 183.3,251.3 184.4,251.3 185.5,251.3 186.6,251.3 187.7,251.3 188.8,251.3 189.9,251.3 191.0,251.3 192.0,251.3 193.1,251.3 194.2,251.3 195.3,251.3 196.4,251.3 197.5,251.3 198.6,251.3 199.7,251.3 200.8,251.3 201.9,251.3 203.0,251.3 204.1,251.2 205.2,251.2 206.3,251.2 207.4,251.2 208.5,251.2 209.6,251.2 210.6,251.2 211.7,251.2 212.8,251.2 213.9,251.2 215.0,251.2 216.1,251.2 217.2,251.2 218.3,251.2 219.4,251.2 220.5,251.2 221.6,251.2 222.7,251.1 223.8,251.2 224.9,251.2 226.0,251.1 227.1,257.9 228.2,257.9 229.2,257.9 230.3,257.9 231.4,257.9 232.5,257.9 233.6,257.9 234.7,257.9 235.8,257.8 236.9,257.9 238.0,257.8 239.1,257.8 240.2,257.8 241.3,257.8 242.4,257.8 243.5,257.8 244.6,257.8 245.7,257.8 246.8,257.8 247.8,257.8 248.9,257.8 250.0,257.8 251.1,257.8 252.2,257.8 253.3,257.8 254.4,257.8 255.5,257.8 256.6,257.8 257.7,257.8 258.8,257.8 259.9,257.8 261.0,257.8 262.1,257.8 263.2,257.8 264.3,257.8 265.4,257.8 266.4,257.8 267.5,257.8 268.6,257.7 269.7,257.7 270.8,264.9 271.9,264.9 273.0,264.9 274.1,264.9 275.2,264.9 276.3,264.9 277.4,264.9 278.5,264.9 279.6,264.9 280.7,264.9 281.8,264.9 282.9,264.9 284.0,264.9 285.0,264.9 286.1,264.9 287.2,264.9 288.3,264.9 289.4,264.9 290.5,264.9 291.6,264.8 292.7,264.9 293.8,264.9 294.9,264.8 296.0,264.8 297.1,264.8 298.2,264.8 299.3,264.8 300.4,264.8 301.5,264.8 302.6,264.8 303.6,264.8 304.7,264.8 305.8,264.8 306.9,264.8 308.0,264.8 309.1,264.8 310.2,264.8 311.3,264.8 312.4,264.7 313.5,264.7 314.6,264.7 315.7,264.7 316.8,264.6 317.9,264.6 319.0,264.6 320.1,264.5 321.2,264.5 322.2,264.4 323.3,264.4 324.4,264.4 325.5,264.3 326.6,264.3 327.7,264.2 328.8,264.2 329.9,264.2 331.0,264.1 332.1,264.1 333.2,264.0 334.3,264.0 335.4,263.9 336.5,263.9 337.6,263.9 338.7,263.8 339.8,263.8 340.8,263.8 341.9,263.7 343.0,263.7 344.1,263.6 345.2,263.6 346.3,263.6 347.4,263.5 348.5,263.5 349.6,263.4 350.7,263.4 351.8,263.3 352.9,263.3 354.0,263.3 355.1,263.2 356.2,263.2 357.3,263.1 358.4,263.1 359.4,263.1 360.5,263.0 361.6,262.9 362.7,262.9 363.8,262.9 364.9,262.8 366.0,262.8 367.1,262.8 368.2,262.7 369.3,262.7 370.4,262.6 371.5,262.6 372.6,262.6 373.7,262.5 374.8,262.5 375.9,262.4 377.0,262.4 378.0,262.3 379.1,262.3 380.2,262.2 381.3,262.2 382.4,262.2 383.5,262.1 384.6,262.1 385.7,262.1 386.8,262.0 387.9,262.0 389.0,261.9 390.1,261.9 391.2,261.9 392.3,261.8 393.4,261.8 394.5,261.8 395.6,261.7 396.6,261.7 397.7,261.6 398.8,261.6 399.9,261.6 401.0,261.5 402.1,261.5 403.2,261.4 404.3,261.4 405.4,261.4 406.5,261.3 407.6,261.3 408.7,261.2 409.8,261.2 410.9,261.2 412.0,261.1 413.1,261.1 414.2,261.0 415.2,261.0 416.3,261.0 417.4,260.9 418.5,260.9 419.6,260.9 420.7,260.8 421.8,260.8 422.9,260.7 424.0,260.7 425.1,260.6 426.2,260.6 427.3,260.6 428.4,260.5 429.5,260.5 430.6,260.4 431.7,260.4 432.8,260.4 433.8,260.3 434.9,260.3 436.0,260.2 437.1,260.2 438.2,260.2 439.3,260.1 440.4,260.1 441.5,260.0 442.6,260.0 443.7,260.0 444.8,259.9 445.9,259.9 447.0,259.8 448.1,259.8 449.2,259.7 450.3,259.7 451.4,259.7 452.4,259.6 453.5,259.6 454.6,259.6 455.7,259.5 456.8,259.5 457.9,259.4 459.0,259.4 460.1,259.3 461.2,259.3 462.3,259.2 463.4,259.2 464.5,259.2 465.6,259.1 466.7,259.1 467.8,259.0 468.9,259.1 470.0,259.0 471.0,259.0 472.1,259.0 473.2,259.0 474.3,259.0 475.4,259.0 476.5,259.0 477.6,259.0 478.7,259.0 479.8,259.0 480.9,259.0 482.0,259.0 483.1,259.0 484.2,259.0 485.3,259.0 486.4,259.0 487.5,259.0 488.6,259.0 489.6,265.1 490.7,265.2 491.8,265.1 492.9,265.1 494.0,265.2 495.1,265.1 496.2,265.1 497.3,265.1 498.4,265.1 499.5,265.1 500.6,265.1 501.7,265.1 502.8,265.1 503.9,265.1 505.0,265.1 506.1,265.1 507.2,265.1 508.2,265.1 509.3,265.1 510.4,265.1 511.5,265.1 512.6,265.1 513.7,265.1 514.8,265.1 515.9,265.1 517.0,265.1 518.1,265.1 519.2,265.0 520.3,265.0 521.4,265.0 522.5,265.0 523.6,265.0 524.7,265.0 525.8,265.0 526.8,265.0 527.9,265.0 529.0,265.0 530.1,265.0 531.2,265.0 532.3,265.0 533.4,267.5 534.5,267.5 535.6,267.4 536.7,267.4 537.8,267.4 538.9,267.4 540.0,267.4 541.1,267.4 542.2,267.4 543.3,267.4 544.4,267.4 545.4,267.4 546.5,267.4 547.6,267.4 548.7,267.3 549.8,267.3 550.9,267.3 552.0,267.3 553.1,267.3 554.2,267.3 555.3,267.3 556.4,267.3 557.5,267.3 558.6,267.2 559.7,267.2 560.8,267.2 561.9,267.2 563.0,267.2 564.0,267.2 565.1,267.2 566.2,267.2 567.3,267.2 568.4,267.1 569.5,267.2 570.6,267.1 571.7,267.1 572.8,267.1 573.9,267.1 575.0,267.1 576.1,267.1 577.2,269.1 578.3,269.0 579.4,269.0 580.5,269.0 581.6,269.0 582.6,269.0 583.7,268.9 584.8,268.9 585.9,268.9 587.0,268.9 588.1,268.9 589.2,268.8 590.3,268.8 591.4,268.8 592.5,268.8 593.6,268.8 594.7,268.7 595.8,268.7 596.9,268.7 598.0,268.7 599.1,268.6 600.2,268.6 601.2,268.6 602.3,268.6 603.4,268.5 604.5,268.5 605.6,268.5 606.7,268.5 607.8,268.5 608.9,268.4 610.0,268.4 611.1,268.3 612.2,268.3 613.3,268.3 614.4,268.3 615.5,268.2 616.6,268.2 617.7,268.2 618.8,268.1 619.8,268.1 620.9,268.9 622.0,268.8 623.1,268.8 624.2,268.7 625.3,268.7 626.4,268.6 627.5,268.6 628.6,268.5 629.7,268.5 630.8,268.5 631.9,268.5 633.0,268.4 634.1,268.4 635.2,268.3 636.3,268.2 637.4,268.2 638.4,268.2 639.5,268.1 640.6,268.1 641.7,268.0 642.8,268.0 643.9,267.9 645.0,267.9 646.1,267.8 647.2,267.8 648.3,267.7 649.4,267.6 650.5,267.6 651.6,267.6 652.7,267.5 653.8,267.4 654.9,267.4 656.0,267.3 657.0,267.3 658.1,267.3 659.2,267.2 660.3,267.1 661.4,267.1 662.5,267.1 663.6,267.0 664.7,267.6 665.8,267.6 666.9,267.5 668.0,267.4 669.1,267.5 670.2,267.4 671.3,267.4 672.4,267.3 673.5,267.4 674.6,267.3 675.6,267.3 676.7,267.2 677.8,267.1 678.9,267.3 680.0,267.2 681.1,267.2 682.2,267.1 683.3,267.2 684.4,267.2 685.5,267.1 686.6,267.3 687.7,267.2 688.8,267.1 689.9,267.1 691.0,267.0 692.1,267.2 693.2,267.2 694.2,267.1 695.3,267.3 696.4,267.2 697.5,267.2 698.6,267.1 699.7,267.3 700.8,267.3 701.9,267.2 703.0,267.2 704.1,267.1 705.2,267.3 706.3,267.3 707.4,267.2 708.5,269.2 709.6,269.2 710.7,269.2 711.8,269.2 712.8,269.3 713.9,269.2 715.0,269.2 716.1,269.2 717.2,269.2 718.3,269.3 719.4,269.3 720.5,269.3 721.6,269.2 722.7,269.4 723.8,269.3 724.9,269.3 726.0,269.4 727.1,269.4 728.2,269.4 729.3,269.3 730.4,269.4 731.4,269.4 732.5,269.4 733.6,269.4 734.7,269.5 735.8,269.4 736.9,269.4 738.0,269.4 739.1,269.4 740.2,269.4 741.3,269.4 742.4,269.4 743.5,269.4 744.6,269.4 745.7,269.4 746.8,269.4 747.9,269.4 749.0,269.4 750.0,269.4 751.1,269.4 752.2,271.9 753.3,272.0 754.4,272.0 755.5,272.0 756.6,272.0 757.7,272.0 758.8,271.9 759.9,271.9 761.0,271.9 762.1,271.9 763.2,271.9 764.3,271.9 765.4,271.9 766.5,271.9 767.6,271.9 768.6,271.9 769.7,271.9 770.8,271.9 771.9,271.9 773.0,271.9 774.1,271.9 775.2,271.9 776.3,271.9 777.4,271.8 778.5,271.9 779.6,271.9 780.7,271.8 781.8,271.8 782.9,271.8 784.0,271.8 785.1,271.8 786.2,271.8 787.2,271.8 788.3,271.8 789.4,271.8 790.5,271.8 791.6,271.8 792.7,271.8 793.8,271.8 794.9,271.7 796.0,274.0"/>
<text x="640" y="72" font-family="Arial" font-size="12" fill="#2563eb">sqrt trace Ppos</text>
</svg>