<svg xmlns="http://www.w3.org/2000/svg" width="820" height="320" viewBox="0 0 820 320">
<rect width="100%" height="100%" fill="white"/>
<text x="52" y="30" font-family="Arial" font-size="18" font-weight="700">ekf_dropout_robust covariance bounds</text>
<line x1="52" y1="274" x2="796" y2="274" stroke="#263238"/>
<line x1="52" y1="42" x2="52" y2="274" stroke="#263238"/>
<text x="52" y="306" font-family="Arial" font-size="12">time (s)</text>
<text x="630" y="306" font-family="Arial" font-size="12">m</text>

<rect x="314.6" y="42" width="153.2" height="232" fill="#fef3c7" opacity="0.72"/>
<polyline fill="none" stroke="#0f766e" stroke-width="2.3" points="52.0,49.4 53.1,48.7 54.2,48.0 55.3,47.3 56.4,46.6 57.5,45.9 58.6,45.2 59.7,44.5 60.8,43.8 61.8,43.1 62.9,45.7 64.0,45.1 65.1,44.4 66.2,47.2 67.3,46.8 68.4,46.4 69.5,46.1 70.6,45.7 71.7,45.3 72.8,44.9 73.9,44.9 75.0,46.1 76.1,45.8 77.2,45.7 78.3,45.8 79.4,45.5 80.4,45.2 81.5,45.0 82.6,44.7 83.7,44.5 84.8,44.3 85.9,44.1 87.0,44.0 88.1,43.8 89.2,43.5 90.3,43.3 91.4,43.1 92.5,43.2 93.6,42.6 94.7,42.0 95.8,146.8 96.9,146.4 98.0,146.0 99.0,145.5 100.1,145.0 101.2,144.6 102.3,144.1 103.4,143.7 104.5,143.2 105.6,142.9 106.7,142.4 107.8,142.0 108.9,141.8 110.0,141.4 111.1,141.0 112.2,140.7 113.3,140.3 114.4,139.4 115.5,138.9 116.6,138.4 117.6,137.9 118.7,136.8 119.8,136.2 120.9,135.6 122.0,135.8 123.1,135.4 124.2,134.9 125.3,134.4 126.4,133.9 127.5,133.5 128.6,132.9 129.7,132.5 130.8,132.0 131.9,131.4 133.0,130.9 134.1,130.4 135.2,130.0 136.2,130.8 137.3,130.4 138.4,130.1 139.5,151.2 140.6,150.7 141.7,150.2 142.8,149.6 143.9,149.1 145.0,149.3 146.1,148.8 147.2,148.3 148.3,147.9 149.4,147.3 150.5,146.9 151.6,146.4 152.7,145.9 153.8,145.9 154.8,145.5 155.9,145.1 157.0,144.7 158.1,144.4 159.2,143.9 160.3,143.5 161.4,143.1 162.5,142.6 163.6,142.2 164.7,141.7 165.8,141.3 166.9,140.5 168.0,140.1 169.1,139.6 170.2,139.9 171.3,139.5 172.4,139.1 173.4,138.7 174.5,138.3 175.6,138.9 176.7,138.6 177.8,138.2 178.9,137.9 180.0,137.2 181.1,136.9 182.2,136.5 183.3,196.3 184.4,196.5 185.5,196.3 186.6,196.0 187.7,195.8 188.8,195.9 189.9,195.7 191.0,195.5 192.0,194.5 193.1,194.3 194.2,194.0 195.3,193.8 196.4,193.0 197.5,192.7 198.6,192.5 199.7,192.2 200.8,192.5 201.9,192.3 203.0,192.1 204.1,191.9 205.2,191.7 206.3,190.3 207.4,190.0 208.5,189.7 209.6,190.0 210.6,189.7 211.7,189.5 212.8,189.3 213.9,189.0 215.0,188.5 216.1,188.2 217.2,188.0 218.3,187.5 219.4,187.2 220.5,186.9 221.6,186.6 222.7,186.3 223.8,185.4 224.9,185.0 226.0,184.7 227.1,203.5 228.2,202.4 229.2,202.0 230.3,201.6 231.4,201.4 232.5,201.0 233.6,200.6 234.7,200.2 235.8,199.8 236.9,200.5 238.0,200.2 239.1,199.9 240.2,199.6 241.3,199.8 242.4,199.5 243.5,199.3 244.6,199.0 245.7,197.6 246.8,197.3 247.8,196.9 248.9,196.6 250.0,196.6 251.1,196.2 252.2,196.0 253.3,195.7 254.4,195.2 255.5,194.9 256.6,194.6 257.7,195.1 258.8,194.9 259.9,194.6 261.0,194.4 262.1,194.1 263.2,193.8 264.3,193.5 265.4,193.3 266.4,193.0 267.5,192.8 268.6,192.5 269.7,192.3 270.8,194.4 271.9,194.1 273.0,193.9 274.1,193.7 275.2,193.4 276.3,192.5 277.4,192.2 278.5,192.0 279.6,192.2 280.7,192.0 281.8,191.8 282.9,191.5 284.0,191.7 285.0,191.5 286.1,191.3 287.2,191.1 288.3,190.9 289.4,190.9 290.5,190.7 291.6,190.5 292.7,188.0 293.8,187.7 294.9,187.4 296.0,187.1 297.1,186.8 298.2,184.8 299.3,184.4 300.4,184.0 301.5,183.6 302.6,183.9 303.6,183.6 304.7,183.2 305.8,182.8 306.9,182.4 308.0,182.1 309.1,181.7 310.2,182.0 311.3,181.7 312.4,181.4 313.5,181.1 314.6,182.3 315.7,182.1 316.8,181.8 317.9,181.6 319.0,179.1 320.1,178.8 321.2,178.4 322.2,178.1 323.3,180.2 324.4,180.0 325.5,179.8 326.6,179.6 327.7,179.1 328.8,178.8 329.9,178.6 331.0,178.4 332.1,176.6 333.2,176.3 334.3,175.9 335.4,175.6 336.5,175.3 337.6,175.2 338.7,174.9 339.8,174.6 340.8,174.4 341.9,174.0 343.0,173.7 344.1,173.4 345.2,173.0 346.3,171.9 347.4,171.5 348.5,171.1 349.6,172.9 350.7,172.6 351.8,172.4 352.9,172.1 354.0,170.1 355.1,169.7 356.2,169.3 357.3,168.9 358.4,171.3 359.4,171.0 360.5,170.8 361.6,170.5 362.7,170.3 363.8,168.9 364.9,168.6 366.0,168.3 367.1,167.7 368.2,167.4 369.3,167.1 370.4,166.8 371.5,165.0 372.6,164.5 373.7,164.1 374.8,163.8 375.9,162.8 377.0,162.3 378.0,161.9 379.1,161.5 380.2,161.0 381.3,160.9 382.4,160.5 383.5,160.1 384.6,159.7 385.7,158.9 386.8,158.5 387.9,158.1 389.0,157.7 390.1,158.4 391.2,158.1 392.3,157.7 393.4,156.3 394.5,155.9 395.6,155.5 396.6,155.1 397.7,154.7 398.8,154.2 399.9,153.8 401.0,153.4 402.1,153.4 403.2,153.0 404.3,152.6 405.4,152.3 406.5,151.9 407.6,153.3 408.7,153.0 409.8,152.7 410.9,151.6 412.0,151.3 413.1,151.0 414.2,150.6 415.2,150.4 416.3,150.1 417.4,149.8 418.5,149.5 419.6,149.9 420.7,149.7 421.8,149.4 422.9,149.1 424.0,149.0 425.1,148.8 426.2,148.5 427.3,148.3 428.4,148.2 429.5,147.9 430.6,147.7 431.7,147.5 432.8,145.9 433.8,145.6 434.9,145.2 436.0,144.9 437.1,145.1 438.2,144.9 439.3,144.6 440.4,144.3 441.5,144.0 442.6,144.5 443.7,144.2 444.8,144.0 445.9,141.1 447.0,140.7 448.1,140.4 449.2,140.0 450.3,138.3 451.4,137.9 452.4,137.4 453.5,136.9 454.6,137.5 455.7,137.1 456.8,136.7 457.9,136.3 459.0,135.9 460.1,136.3 461.2,136.0 462.3,135.6 463.4,135.2 464.5,134.3 465.6,133.9 466.7,133.5 467.8,133.1 468.9,132.0 470.0,131.5 471.0,131.1 472.1,130.7 473.2,129.9 474.3,129.5 475.4,129.0 476.5,130.0 477.6,129.7 478.7,129.3 479.8,129.0 480.9,129.5 482.0,129.2 483.1,129.0 484.2,128.7 485.3,128.2 486.4,128.0 487.5,127.7 488.6,127.4 489.6,199.9 490.7,200.1 491.8,199.9 492.9,199.7 494.0,198.7 495.1,198.4 496.2,198.1 497.3,197.8 498.4,198.0 499.5,197.7 500.6,197.3 501.7,197.1 502.8,196.7 503.9,196.3 505.0,196.1 506.1,195.8 507.2,195.5 508.2,194.7 509.3,194.4 510.4,194.1 511.5,193.7 512.6,193.4 513.7,193.0 514.8,192.6 515.9,191.5 517.0,191.0 518.1,190.6 519.2,190.2 520.3,189.8 521.4,190.6 522.5,190.3 523.6,190.0 524.7,189.7 525.8,189.4 526.8,189.1 527.9,188.7 529.0,189.3 530.1,189.1 531.2,188.8 532.3,188.5 533.4,255.4 534.5,255.2 535.6,254.9 536.7,254.7 537.8,254.5 538.9,255.0 540.0,254.9 541.1,254.7 542.2,254.5 543.3,253.8 544.4,253.6 545.4,253.4 546.5,253.1 547.6,252.9 548.7,252.7 549.8,252.5 550.9,252.3 552.0,249.9 553.1,249.5 554.2,249.1 555.3,248.6 556.4,248.3 557.5,247.9 558.6,247.5 559.7,247.0 560.8,246.7 561.9,246.3 563.0,245.8 564.0,245.3 565.1,244.9 566.2,244.5 567.3,244.1 568.4,243.8 569.5,243.5 570.6,243.1 571.7,242.7 572.8,242.4 573.9,242.5 575.0,242.2 576.1,241.9 577.2,274.0 578.3,273.7 579.4,273.3 580.5,273.0 581.6,272.7 582.6,273.6 583.7,273.3 584.8,273.1 585.9,272.8 587.0,271.7 588.1,271.4 589.2,271.1 590.3,270.8 591.4,270.0 592.5,269.6 593.6,269.3 594.7,268.9 595.8,268.2 596.9,267.8 598.0,267.4 599.1,267.1 600.2,266.4 601.2,266.0 602.3,265.7 603.4,265.3 604.5,265.9 605.6,265.6 606.7,265.2 607.8,265.0 608.9,264.6 610.0,264.4 611.1,264.0 612.2,263.7 613.3,264.3 614.4,264.0 615.5,263.8 616.6,263.5 617.7,263.3 618.8,263.0 619.8,262.8 620.9,264.5 622.0,264.2 623.1,263.9 624.2,263.7 625.3,263.4 626.4,263.1 627.5,262.8 628.6,262.6 629.7,262.3 630.8,262.8 631.9,262.5 633.0,262.3 634.1,262.0 635.2,261.7 636.3,261.4 637.4,261.2 638.4,258.7 639.5,258.3 640.6,257.9 641.7,257.6 642.8,259.0 643.9,258.7 645.0,258.4 646.1,258.2 647.2,256.7 648.3,256.5 649.4,256.2 650.5,255.8 651.6,254.7 652.7,254.2 653.8,253.8 654.9,253.4 656.0,253.0 657.0,251.3 658.1,250.8 659.2,250.3 660.3,249.8 661.4,251.0 662.5,250.7 663.6,250.3 664.7,247.9 665.8,247.7 666.9,247.4 668.0,247.1 669.1,246.6 670.2,246.1 671.3,245.7 672.4,245.4 673.5,244.8 674.6,244.4 675.6,244.2 676.7,243.8 677.8,243.4 678.9,242.9 680.0,242.5 681.1,242.2 682.2,241.8 683.3,243.0 684.4,242.7 685.5,242.4 686.6,242.3 687.7,242.0 688.8,241.6 689.9,241.4 691.0,241.1 692.1,239.9 693.2,239.7 694.2,239.3 695.3,239.3 696.4,239.0 697.5,238.6 698.6,238.4 699.7,237.7 700.8,237.4 701.9,237.1 703.0,236.8 704.1,236.4 705.2,235.9 706.3,235.6 707.4,235.3 708.5,240.5 709.6,240.2 710.7,239.9 711.8,239.7 712.8,238.4 713.9,238.1 715.0,237.7 716.1,237.3 717.2,237.0 718.3,237.3 719.4,237.0 720.5,236.7 721.6,236.3 722.7,235.6 723.8,235.2 724.9,234.9 726.0,235.2 727.1,234.9 728.2,234.6 729.3,234.3 730.4,233.5 731.4,233.2 732.5,232.9 733.6,232.6 734.7,232.1 735.8,231.8 736.9,231.5 738.0,231.1 739.1,230.8 740.2,231.8 741.3,231.6 742.4,231.3 743.5,231.1 744.6,229.5 745.7,229.2 746.8,228.8 747.9,230.4 749.0,230.2 750.0,230.0 751.1,229.8 752.2,240.3 753.3,239.9 754.4,239.6 755.5,239.4 756.6,240.5 757.7,240.3 758.8,240.2 759.9,240.0 761.0,239.9 762.1,240.6 763.2,240.5 764.3,240.4 765.4,238.1 766.5,237.9 767.6,237.7 768.6,237.5 769.7,237.2 770.8,235.5 771.9,235.2 773.0,234.9 774.1,234.3 775.2,234.0 776.3,233.6 777.4,233.3 778.5,234.2 779.6,233.9 780.7,233.7 781.8,233.4 782.9,231.8 784.0,231.5 785.1,231.2 786.2,230.8 787.2,228.7 788.3,228.3 789.4,227.8 790.5,227.4 791.6,227.0 792.7,227.7 793.8,227.4 794.9,227.0 796.0,246.9"/>
<text x="640" y="56" font-family="Arial" font-size="12" fill="#0f766e">position error</text>
<polyline fill="none" stroke="#2563eb" stroke-width="2.3" points="52.0,161.1 53.1,160.6 54.2,159.2 55.3,156.7 56.4,153.4 57.5,149.2 58.6,144.2 59.7,138.4 60.8,132.0 61.8,124.9 62.9,131.3 64.0,124.8 65.1,117.9 66.2,163.3 67.3,163.3 68.4,163.3 69.5,163.2 70.6,163.2 71.7,163.2 72.8,163.1 73.9,164.0 75.0,165.1 76.1,165.1 77.2,165.4 78.3,165.4 79.4,165.6 80.4,165.6 81.5,165.6 82.6,165.7 83.7,165.7 84.8,165.8 85.9,165.8 87.0,165.8 88.1,165.8 89.2,165.8 90.3,165.8 91.4,165.8 92.5,165.8 93.6,165.9 94.7,165.9 95.8,207.3 96.9,207.3 98.0,207.3 99.0,207.3 100.1,207.3 101.2,207.3 102.3,207.3 103.4,207.3 104.5,207.3 105.6,207.3 106.7,207.3 107.8,207.3 108.9,207.3 110.0,207.3 111.1,207.3 112.2,207.3 113.3,207.3 114.4,207.4 115.5,207.3 116.6,207.3 117.6,207.3 118.7,207.3 119.8,207.3 120.9,207.3 122.0,207.3 123.1,207.3 124.2,207.3 125.3,207.3 126.4,207.3 127.5,207.3 128.6,207.3 129.7,207.3 130.8,207.3 131.9,207.3 133.0,207.3 134.1,207.3 135.2,207.3 136.2,207.3 137.3,207.3 138.4,207.3 139.5,227.7 140.6,227.7 141.7,227.7 142.8,227.7 143.9,227.7 145.0,227.7 146.1,227.7 147.2,227.7 148.3,227.7 149.4,227.7 150.5,227.7 151.6,227.7 152.7,227.7 153.8,227.7 154.8,227.7 155.9,227.6 157.0,227.6 158.1,227.6 159.2,227.6 160.3,227.6 161.4,227.6 162.5,227.6 163.6,227.6 164.7,227.6 165.8,227.6 166.9,227.6 168.0,227.6 169.1,227.6 170.2,227.6 171.3,227.6 172.4,227.6 173.4,227.6 174.5,227.5 175.6,227.6 176.7,227.6 177.8,227.5 178.9,227.5 180.0,227.5 181.1,227.5 182.2,227.5 183.3,240.3 184.4,240.3 185.5,240.3 186.6,240.3 187.7,240.2 188.8,240.3 189.9,240.3 191.0,240.2 192.0,240.3 193.1,240.2 194.2,240.2 195.3,240.2 196.4,240.2 197.5,240.2 198.6,240.2 199.7,240.2 200.8,240.2 201.9,240.2 203.0,240.2 204.1,240.2 205.2,240.1 206.3,240.2 207.4,240.1 208.5,240.1 209.6,240.1 210.6,240.1 211.7,240.1 212.8,240.1 213.9,240.1 215.0,240.1 216.1,240.1 217.2,240.1 218.3,240.1 219.4,240.1 220.5,240.1 221.6,240.1 222.7,240.0 223.8,240.1 224.9,240.0 226.0,240.0 227.1,249.0 228.2,249.0 229.2,249.0 230.3,249.0 231.4,249.0 232.5,249.0 233.6,249.0 234.7,248.9 235.8,248.9 236.9,248.9 238.0,248.9 239.1,248.9 240.2,248.9 241.3,248.9 242.4,248.9 243.5,248.9 244.6,248.9 245.7,248.9 246.8,248.9 247.8,248.9 248.9,248.8 250.0,248.9 251.1,248.8 252.2,248.8 253.3,248.8 254.4,248.8 255.5,248.8 256.6,248.8 257.7,248.8 258.8,248.8 259.9,248.8 261.0,248.8 262.1,248.7 263.2,248.8 264.3,248.8 265.4,248.7 266.4,248.7 267.5,248.7 268.6,248.7 269.7,248.7 270.8,255.4 271.9,255.4 273.0,255.4 274.1,255.3 275.2,255.3 276.3,255.4 277.4,255.3 278.5,255.3 279.6,255.4 280.7,255.3 281.8,255.3 282.9,255.3 284.0,255.3 285.0,255.3 286.1,255.3 287.2,255.3 288.3,255.2 289.4,255.3 290.5,255.3 291.6,255.2 292.7,255.3 293.8,255.2 294.9,255.2 296.0,255.2 297.1,255.2 298.2,255.2 299.3,255.2 300.4,255.2 301.5,255.1 302.6,255.2 303.6,255.2 304.7,255.1 305.8,255.2 306.9,255.1 308.0,255.1 309.1,255.1 310.2,255.1 311.3,255.1 312.4,255.1 313.5,255.1 314.6,254.8 315.7,254.5 316.8,254.2 317.9,253.9 319.0,253.6 320.1,253.3 321.2,252.9 322.2,252.6 323.3,252.3 324.4,252.0 325.5,251.7 326.6,251.4 327.7,251.1 328.8,250.8 329.9,250.4 331.0,250.1 332.1,249.8 333.2,249.5 334.3,249.1 335.4,248.8 336.5,248.5 337.6,248.2 338.7,247.8 339.8,247.5 340.8,247.2 341.9,246.8 343.0,246.5 344.1,246.1 345.2,245.8 346.3,245.5 347.4,245.1 348.5,244.8 349.6,244.5 350.7,244.1 351.8,243.8 352.9,243.4 354.0,243.1 355.1,242.7 356.2,242.4 357.3,242.0 358.4,241.7 359.4,241.3 360.5,241.0 361.6,240.6 362.7,240.2 363.8,239.9 364.9,239.5 366.0,239.1 367.1,238.8 368.2,238.4 369.3,238.1 370.4,237.7 371.5,237.3 372.6,237.0 373.7,236.6 374.8,236.2 375.9,235.8 377.0,235.5 378.0,235.1 379.1,234.7 380.2,234.3 381.3,233.9 382.4,233.5 383.5,233.1 384.6,232.7 385.7,232.4 386.8,232.0 387.9,231.6 389.0,231.2 390.1,230.8 391.2,230.4 392.3,230.0 393.4,229.6 394.5,229.2 395.6,228.8 396.6,228.4 397.7,228.0 398.8,227.6 399.9,227.2 401.0,226.7 402.1,226.4 403.2,225.9 404.3,225.5 405.4,225.1 406.5,224.7 407.6,224.3 408.7,223.8 409.8,223.4 410.9,223.0 412.0,222.6 413.1,222.1 414.2,221.7 415.2,221.3 416.3,220.8 417.4,220.4 418.5,219.9 419.6,219.5 420.7,219.1 421.8,218.6 422.9,218.2 424.0,217.7 425.1,217.3 426.2,216.8 427.3,216.4 428.4,215.9 429.5,215.5 430.6,215.0 431.7,214.5 432.8,214.1 433.8,213.6 434.9,213.2 436.0,212.7 437.1,212.2 438.2,211.8 439.3,211.3 440.4,210.8 441.5,210.3 442.6,209.9 443.7,209.4 444.8,208.9 445.9,208.4 447.0,207.9 448.1,207.4 449.2,207.0 450.3,206.5 451.4,206.0 452.4,205.5 453.5,205.0 454.6,204.5 455.7,204.0 456.8,203.5 457.9,203.0 459.0,202.4 460.1,202.0 461.2,201.4 462.3,200.9 463.4,200.4 464.5,199.9 465.6,199.4 466.7,198.8 467.8,198.3 468.9,198.3 470.0,198.3 471.0,198.3 472.1,198.3 473.2,198.3 474.3,198.3 475.4,198.3 476.5,198.3 477.6,198.3 478.7,198.3 479.8,198.3 480.9,198.3 482.0,198.3 483.1,198.3 484.2,198.3 485.3,198.3 486.4,198.3 487.5,198.3 488.6,198.3 489.6,222.7 490.7,222.7 491.8,222.7 492.9,222.7 494.0,222.7 495.1,222.7 496.2,222.7 497.3,222.7 498.4,222.7 499.5,222.7 500.6,222.7 501.7,222.7 502.8,222.7 503.9,222.7 505.0,222.6 506.1,222.6 507.2,222.6 508.2,222.6 509.3,222.6 510.4,222.6 511.5,222.6 512.6,222.6 513.7,222.6 514.8,222.6 515.9,222.6 517.0,222.6 518.1,222.6 519.2,222.6 520.3,222.6 521.4,222.6 522.5,222.6 523.6,222.5 524.7,222.6 525.8,222.6 526.8,222.5 527.9,222.5 529.0,222.5 530.1,222.5 531.2,222.5 532.3,222.5 533.4,237.0 534.5,237.0 535.6,237.0 536.7,237.0 537.8,237.0 538.9,237.0 540.0,237.0 541.1,237.0 542.2,236.9 543.3,237.0 544.4,236.9 545.4,236.9 546.5,236.9 547.6,236.9 548.7,236.9 549.8,236.9 550.9,236.9 552.0,236.9 553.1,236.9 554.2,236.9 555.3,236.9 556.4,236.9 557.5,236.9 558.6,236.9 559.7,236.9 560.8,236.9 561.9,236.8 563.0,236.8 564.0,236.8 565.1,236.8 566.2,236.8 567.3,236.8 568.4,236.8 569.5,236.8 570.6,236.8 571.7,236.8 572.8,236.8 573.9,236.8 575.0,236.8 576.1,236.7 577.2,246.6 578.3,246.6 579.4,246.6 580.5,246.6 581.6,246.5 582.6,246.6 583.7,246.6 584.8,246.5 585.9,246.5 587.0,246.5 588.1,246.5 589.2,246.5 590.3,246.5 591.4,246.5 592.5,246.5 593.6,246.5 594.7,246.5 595.8,246.5 596.9,246.5 598.0,246.4 599.1,246.4 600.2,246.5 601.2,246.4 602.3,246.4 603.4,246.4 604.5,246.4 605.6,246.4 606.7,246.4 607.8,246.4 608.9,246.4 610.0,246.4 611.1,246.4 612.2,246.3 613.3,246.4 614.4,246.4 615.5,246.3 616.6,246.4 617.7,246.3 618.8,246.3 619.8,246.3 620.9,253.6 622.0,253.6 623.1,253.6 624.2,253.6 625.3,253.6 626.4,253.5 627.5,253.5 628.6,253.5 629.7,253.4 630.8,253.5 631.9,253.5 633.0,253.5 634.1,253.4 635.2,253.4 636.3,253.4 637.4,253.3 638.4,253.4 639.5,253.4 640.6,253.4 641.7,253.3 642.8,253.4 643.9,253.4 645.0,253.3 646.1,253.3 647.2,253.4 648.3,253.4 649.4,253.3 650.5,253.3 651.6,253.3 652.7,253.3 653.8,253.3 654.9,253.3 656.0,253.3 657.0,253.3 658.1,253.3 659.2,253.2 660.3,253.2 661.4,253.3 662.5,253.2 663.6,253.2 664.7,259.0 665.8,259.0 666.9,259.0 668.0,259.0 669.1,259.0 670.2,259.0 671.3,258.9 672.4,258.9 673.5,258.9 674.6,258.9 675.6,258.9 676.7,258.9 677.8,258.9 678.9,258.9 680.0,258.9 681.1,258.9 682.2,258.8 683.3,258.9 684.4,258.8 685.5,258.8 686.6,258.9 687.7,258.8 688.8,258.8 689.9,258.8 691.0,258.8 692.1,258.8 693.2,258.8 694.2,258.8 695.3,258.8 696.4,258.8 697.5,258.7 698.6,258.7 699.7,258.7 700.8,258.7 701.9,258.7 703.0,258.7 704.1,258.7 705.2,258.7 706.3,258.7 707.4,258.7 708.5,263.4 709.6,263.3 710.7,263.3 711.8,263.3 712.8,263.3 713.9,263.3 715.0,263.3 716.1,263.3 717.2,263.3 718.3,263.3 719.4,263.3 720.5,263.2 721.6,263.2 722.7,263.2 723.8,263.2 724.9,263.2 726.0,263.2 727.1,263.2 728.2,263.2 729.3,263.2 730.4,263.2 731.4,263.2 732.5,263.1 733.6,263.1 734.7,263.1 735.8,263.1 736.9,263.1 738.0,263.1 739.1,263.1 740.2,263.1 741.3,263.1 742.4,263.1 743.5,263.0 744.6,263.1 745.7,263.0 746.8,263.0 747.9,263.0 749.0,263.0 750.0,263.0 751.1,263.0 752.2,266.9 753.3,266.9 754.4,266.9 755.5,266.9 756.6,266.9 757.7,266.9 758.8,266.8 759.9,266.8 761.0,266.8 762.1,266.8 763.2,266.8 764.3,266.8 765.4,266.8 766.5,266.8 767.6,266.8 768.6,266.7 769.7,266.7 770.8,266.7 771.9,266.7 773.0,266.7 774.1,266.7 775.2,266.7 776.3,266.7 777.4,266.7 778.5,266.7 779.6,266.7 780.7,266.6 781.8,266.6 782.9,266.6 784.0,266.6 785.1,266.6 786.2,266.6 787.2,266.6 788.3,266.6 789.4,266.6 790.5,266.6 791.6,266.5 792.7,266.5 793.8,266.5 794.9,266.5 796.0,269.9"/>
<text x="640" y="72" font-family="Arial" font-size="12" fill="#2563eb">sqrt trace Ppos</text>
</svg>