<svg xmlns="http://www.w3.org/2000/svg" width="820" height="320" viewBox="0 0 820 320">
<rect width="100%" height="100%" fill="white"/>
<text x="52" y="30" font-family="Arial" font-size="18" font-weight="700">ekf_nominal covariance bounds</text>
<line x1="52" y1="274" x2="796" y2="274" stroke="#263238"/>
<line x1="52" y1="42" x2="52" y2="274" stroke="#263238"/>
<text x="52" y="306" font-family="Arial" font-size="12">time (s)</text>
<text x="630" y="306" font-family="Arial" font-size="12">m</text>

<rect x="314.6" y="42" width="153.2" height="232" fill="#fef3c7" opacity="0.72"/>
<polyline fill="none" stroke="#0f766e" stroke-width="2.3" points="52.0,48.3 53.1,47.7 54.2,47.1 55.3,46.5 56.4,45.9 57.5,45.3 58.6,44.7 59.7,44.1 60.8,43.5 61.8,42.9 62.9,45.6 64.0,45.1 65.1,44.6 66.2,46.5 67.3,46.2 68.4,45.9 69.5,45.5 70.6,45.2 71.7,44.9 72.8,44.6 73.9,44.5 75.0,45.3 76.1,45.0 77.2,45.1 78.3,45.2 79.4,45.0 80.4,44.7 81.5,44.5 82.6,44.3 83.7,44.1 84.8,43.9 85.9,43.7 87.0,43.6 88.1,43.4 89.2,43.2 90.3,43.0 91.4,42.8 92.5,43.1 93.6,42.5 94.7,42.0 95.8,146.9 96.9,146.5 98.0,146.1 99.0,145.7 100.1,145.3 101.2,144.9 102.3,144.4 103.4,144.0 104.5,143.6 105.6,143.3 106.7,142.9 107.8,142.4 108.9,142.3 110.0,141.9 111.1,141.6 112.2,141.2 113.3,140.8 114.4,140.0 115.5,139.6 116.6,139.1 117.6,138.7 118.7,137.7 119.8,137.2 120.9,136.6 122.0,136.8 123.1,136.4 124.2,135.9 125.3,135.5 126.4,135.0 127.5,134.7 128.6,134.1 129.7,133.7 130.8,133.2 131.9,132.7 133.0,132.3 134.1,131.8 135.2,131.4 136.2,132.2 137.3,131.8 138.4,131.5 139.5,151.9 140.6,151.4 141.7,150.9 142.8,150.4 143.9,149.9 145.0,150.1 146.1,149.6 147.2,149.2 148.3,148.8 149.4,148.3 150.5,147.9 151.6,147.4 152.7,147.0 153.8,147.0 154.8,146.6 155.9,146.2 157.0,145.8 158.1,145.6 159.2,145.2 160.3,144.8 161.4,144.4 162.5,143.9 163.6,143.5 164.7,143.1 165.8,142.7 166.9,142.0 168.0,141.6 169.1,141.2 170.2,141.5 171.3,141.1 172.4,140.7 173.4,140.3 174.5,139.9 175.6,140.6 176.7,140.3 177.8,139.9 178.9,139.6 180.0,139.1 181.1,138.7 182.2,138.4 183.3,194.4 184.4,194.7 185.5,194.4 186.6,194.1 187.7,193.9 188.8,194.1 189.9,193.9 191.0,193.6 192.0,192.8 193.1,192.6 194.2,192.3 195.3,192.0 196.4,191.3 197.5,191.1 198.6,190.9 199.7,190.6 200.8,190.9 201.9,190.7 203.0,190.5 204.1,190.3 205.2,190.1 206.3,188.9 207.4,188.6 208.5,188.4 209.6,188.6 210.6,188.4 211.7,188.2 212.8,187.9 213.9,187.7 215.0,187.2 216.1,187.0 217.2,186.7 218.3,186.2 219.4,186.0 220.5,185.7 221.6,185.5 222.7,185.2 223.8,184.3 224.9,184.0 226.0,183.7 227.1,200.8 228.2,199.7 229.2,199.4 230.3,199.1 231.4,198.8 232.5,198.5 233.6,198.1 234.7,197.8 235.8,197.5 236.9,198.1 238.0,197.8 239.1,197.6 240.2,197.3 241.3,197.5 242.4,197.2 243.5,197.0 244.6,196.7 245.7,195.4 246.8,195.1 247.8,194.8 248.9,194.6 250.0,194.5 251.1,194.2 252.2,194.0 253.3,193.7 254.4,193.3 255.5,193.0 256.6,192.7 257.7,193.2 258.8,193.0 259.9,192.7 261.0,192.5 262.1,192.2 263.2,191.9 264.3,191.7 265.4,191.5 266.4,191.2 267.5,191.0 268.6,190.8 269.7,190.5 270.8,192.3 271.9,192.1 273.0,191.9 274.1,191.6 275.2,191.4 276.3,190.6 277.4,190.4 278.5,190.2 279.6,190.4 280.7,190.1 281.8,189.9 282.9,189.7 284.0,189.9 285.0,189.7 286.1,189.5 287.2,189.3 288.3,189.1 289.4,189.1 290.5,188.9 291.6,188.8 292.7,186.4 293.8,186.1 294.9,185.9 296.0,185.6 297.1,185.4 298.2,183.4 299.3,183.1 300.4,182.9 301.5,182.6 302.6,182.6 303.6,182.4 304.7,182.1 305.8,181.5 306.9,181.2 308.0,181.0 309.1,180.7 310.2,180.9 311.3,180.6 312.4,180.3 313.5,180.1 314.6,181.3 315.7,181.0 316.8,180.8 317.9,180.6 319.0,178.2 320.1,177.9 321.2,177.6 322.2,177.3 323.3,179.3 324.4,179.1 325.5,178.9 326.6,178.7 327.7,178.3 328.8,178.1 329.9,177.9 331.0,177.6 332.1,175.9 333.2,175.7 334.3,175.4 335.4,175.1 336.5,174.8 337.6,174.7 338.7,174.4 339.8,174.2 340.8,173.9 341.9,173.6 343.0,173.3 344.1,173.0 345.2,172.7 346.3,171.6 347.4,171.3 348.5,171.0 349.6,172.6 350.7,172.3 351.8,172.1 352.9,171.8 354.0,169.9 355.1,169.6 356.2,169.3 357.3,168.9 358.4,171.2 359.4,170.9 360.5,170.6 361.6,170.4 362.7,170.1 363.8,169.0 364.9,168.7 366.0,168.4 367.1,167.8 368.2,167.6 369.3,167.3 370.4,167.0 371.5,165.3 372.6,164.9 373.7,164.6 374.8,164.3 375.9,163.2 377.0,162.9 378.0,162.5 379.1,162.2 380.2,161.8 381.3,161.6 382.4,161.2 383.5,160.9 384.6,160.6 385.7,159.6 386.8,159.4 387.9,159.0 389.0,158.7 390.1,159.3 391.2,158.9 392.3,158.6 393.4,157.3 394.5,156.9 395.6,156.6 396.6,156.3 397.7,155.9 398.8,155.3 399.9,155.0 401.0,154.6 402.1,154.6 403.2,154.3 404.3,153.9 405.4,153.6 406.5,153.3 407.6,154.6 408.7,154.3 409.8,154.0 410.9,153.0 412.0,152.7 413.1,152.4 414.2,152.1 415.2,151.9 416.3,151.6 417.4,151.4 418.5,151.1 419.6,151.6 420.7,151.3 421.8,151.0 422.9,150.8 424.0,150.8 425.1,150.5 426.2,150.3 427.3,150.0 428.4,150.0 429.5,149.8 430.6,149.5 431.7,149.3 432.8,147.8 433.8,147.5 434.9,147.2 436.0,147.0 437.1,147.1 438.2,146.9 439.3,146.6 440.4,146.4 441.5,146.1 442.6,146.6 443.7,146.3 444.8,146.1 445.9,143.3 447.0,143.0 448.1,142.7 449.2,142.4 450.3,140.6 451.4,140.3 452.4,140.0 453.5,139.6 454.6,140.0 455.7,139.7 456.8,139.3 457.9,139.0 459.0,138.7 460.1,138.9 461.2,138.6 462.3,138.3 463.4,138.0 464.5,137.1 465.6,136.7 466.7,136.4 467.8,136.1 468.9,134.8 470.0,134.5 471.0,134.1 472.1,133.8 473.2,132.9 474.3,132.5 475.4,132.2 476.5,133.1 477.6,132.8 478.7,132.5 479.8,132.2 480.9,132.8 482.0,132.5 483.1,132.3 484.2,132.0 485.3,131.6 486.4,131.3 487.5,131.1 488.6,130.8 489.6,165.4 490.7,165.8 491.8,165.5 492.9,165.3 494.0,164.2 495.1,163.9 496.2,163.6 497.3,163.4 498.4,163.6 499.5,163.4 500.6,163.1 501.7,162.8 502.8,162.4 503.9,162.1 505.0,161.9 506.1,161.6 507.2,161.3 508.2,160.6 509.3,160.3 510.4,160.0 511.5,159.6 512.6,159.3 513.7,159.0 514.8,158.7 515.9,157.5 517.0,157.2 518.1,156.8 519.2,156.5 520.3,156.1 521.4,156.9 522.5,156.6 523.6,156.3 524.7,156.0 525.8,155.7 526.8,155.4 527.9,155.1 529.0,155.8 530.1,155.5 531.2,155.2 532.3,155.0 533.4,196.6 534.5,196.3 535.6,196.1 536.7,195.8 537.8,195.6 538.9,196.2 540.0,196.0 541.1,195.8 542.2,195.6 543.3,195.0 544.4,194.8 545.4,194.6 546.5,194.5 547.6,194.2 548.7,194.0 549.8,193.8 550.9,193.6 552.0,191.3 553.1,191.0 554.2,190.7 555.3,190.1 556.4,189.8 557.5,189.5 558.6,189.3 559.7,188.7 560.8,188.4 561.9,188.1 563.0,187.8 564.0,187.2 565.1,186.9 566.2,186.6 567.3,186.3 568.4,186.0 569.5,185.6 570.6,185.3 571.7,185.0 572.8,184.7 573.9,184.7 575.0,184.4 576.1,184.1 577.2,210.9 578.3,210.7 579.4,210.4 580.5,210.1 581.6,209.8 582.6,210.5 583.7,210.2 584.8,210.0 585.9,209.7 587.0,208.9 588.1,208.6 589.2,208.4 590.3,208.1 591.4,207.3 592.5,207.0 593.6,206.8 594.7,206.5 595.8,205.9 596.9,205.6 598.0,205.3 599.1,205.0 600.2,204.1 601.2,203.8 602.3,203.5 603.4,203.2 604.5,203.5 605.6,203.2 606.7,202.9 607.8,202.6 608.9,202.3 610.0,202.1 611.1,201.8 612.2,201.5 613.3,202.0 614.4,201.8 615.5,201.5 616.6,201.4 617.7,201.1 618.8,200.8 619.8,200.6 620.9,209.3 622.0,209.1 623.1,208.8 624.2,208.5 625.3,208.2 626.4,207.9 627.5,207.7 628.6,207.4 629.7,207.1 630.8,207.2 631.9,207.0 633.0,206.7 634.1,206.4 635.2,206.1 636.3,205.9 637.4,205.6 638.4,203.7 639.5,203.4 640.6,203.1 641.7,202.8 642.8,203.8 643.9,203.5 645.0,203.2 646.1,203.0 647.2,202.1 648.3,201.9 649.4,201.6 650.5,201.3 651.6,200.2 652.7,199.9 653.8,199.5 654.9,199.2 656.0,198.8 657.0,197.3 658.1,196.9 659.2,196.6 660.3,196.2 661.4,196.7 662.5,196.3 663.6,196.0 664.7,200.4 665.8,200.1 666.9,199.8 668.0,199.5 669.1,198.9 670.2,198.5 671.3,198.1 672.4,197.8 673.5,197.2 674.6,196.8 675.6,196.5 676.7,196.1 677.8,195.8 678.9,195.1 680.0,194.7 681.1,194.4 682.2,194.0 683.3,195.1 684.4,194.7 685.5,194.3 686.6,194.3 687.7,193.9 688.8,193.5 689.9,193.2 691.0,192.9 692.1,191.7 693.2,191.4 694.2,191.0 695.3,191.1 696.4,190.7 697.5,190.4 698.6,190.1 699.7,189.6 700.8,189.3 701.9,188.9 703.0,188.6 704.1,188.2 705.2,187.7 706.3,187.4 707.4,187.1 708.5,195.0 709.6,194.7 710.7,194.4 711.8,194.1 712.8,193.0 713.9,192.6 715.0,192.3 716.1,191.9 717.2,191.6 718.3,191.9 719.4,191.6 720.5,191.2 721.6,190.9 722.7,190.3 723.8,190.0 724.9,189.6 726.0,190.1 727.1,189.8 728.2,189.6 729.3,189.3 730.4,188.4 731.4,188.1 732.5,187.8 733.6,187.5 734.7,187.1 735.8,186.7 736.9,186.4 738.0,186.1 739.1,185.8 740.2,186.7 741.3,186.4 742.4,186.1 743.5,185.8 744.6,184.4 745.7,184.1 746.8,183.8 747.9,185.5 749.0,185.2 750.0,184.9 751.1,184.7 752.2,195.4 753.3,195.1 754.4,194.8 755.5,194.6 756.6,195.8 757.7,195.5 758.8,195.3 759.9,195.1 761.0,194.9 762.1,195.8 763.2,195.6 764.3,195.4 765.4,193.6 766.5,193.3 767.6,193.1 768.6,192.9 769.7,192.6 770.8,191.0 771.9,190.8 773.0,190.5 774.1,189.9 775.2,189.6 776.3,189.3 777.4,189.0 778.5,189.9 779.6,189.7 780.7,189.4 781.8,189.2 782.9,187.7 784.0,187.4 785.1,187.2 786.2,186.9 787.2,184.8 788.3,184.4 789.4,184.1 790.5,183.8 791.6,183.5 792.7,184.0 793.8,183.7 794.9,183.4 796.0,201.4"/>
<text x="640" y="56" font-family="Arial" font-size="12" fill="#0f766e">position error</text>
<polyline fill="none" stroke="#2563eb" stroke-width="2.3" points="52.0,187.1 53.1,186.5 54.2,184.9 55.3,182.3 56.4,178.6 57.5,174.1 58.6,168.7 59.7,162.6 60.8,155.9 61.8,148.6 62.9,154.8 64.0,148.4 65.1,141.6 66.2,188.3 67.3,188.2 68.4,188.2 69.5,188.2 70.6,188.1 71.7,188.1 72.8,188.0 73.9,188.6 75.0,189.1 76.1,189.0 77.2,189.2 78.3,189.2 79.4,189.3 80.4,189.3 81.5,189.3 82.6,189.4 83.7,189.4 84.8,189.5 85.9,189.5 87.0,189.5 88.1,189.5 89.2,189.5 90.3,189.5 91.4,189.5 92.5,189.6 93.6,189.6 94.7,189.6 95.8,222.6 96.9,222.7 98.0,222.7 99.0,222.7 100.1,222.7 101.2,222.7 102.3,222.7 103.4,222.7 104.5,222.7 105.6,222.7 106.7,222.7 107.8,222.7 108.9,222.7 110.0,222.7 111.1,222.7 112.2,222.7 113.3,222.7 114.4,222.7 115.5,222.7 116.6,222.7 117.6,222.7 118.7,222.7 119.8,222.7 120.9,222.7 122.0,222.7 123.1,222.7 124.2,222.7 125.3,222.7 126.4,222.7 127.5,222.7 128.6,222.7 129.7,222.7 130.8,222.6 131.9,222.7 133.0,222.6 134.1,222.6 135.2,222.6 136.2,222.6 137.3,222.6 138.4,222.6 139.5,238.4 140.6,238.4 141.7,238.4 142.8,238.4 143.9,238.4 145.0,238.4 146.1,238.4 147.2,238.3 148.3,238.3 149.4,238.3 150.5,238.3 151.6,238.3 152.7,238.3 153.8,238.3 154.8,238.3 155.9,238.3 157.0,238.3 158.1,238.3 159.2,238.3 160.3,238.3 161.4,238.3 162.5,238.3 163.6,238.3 164.7,238.3 165.8,238.2 166.9,238.3 168.0,238.2 169.1,238.2 170.2,238.2 171.3,238.2 172.4,238.2 173.4,238.2 174.5,238.2 175.6,238.2 176.7,238.2 177.8,238.2 178.9,238.2 180.0,238.2 181.1,238.2 182.2,238.1 183.3,247.9 184.4,247.9 185.5,247.9 186.6,247.9 187.7,247.8 188.8,247.8 189.9,247.8 191.0,247.8 192.0,247.8 193.1,247.8 194.2,247.8 195.3,247.8 196.4,247.8 197.5,247.8 198.6,247.8 199.7,247.8 200.8,247.8 201.9,247.8 203.0,247.8 204.1,247.7 205.2,247.7 206.3,247.7 207.4,247.7 208.5,247.7 209.6,247.7 210.6,247.7 211.7,247.7 212.8,247.7 213.9,247.7 215.0,247.7 216.1,247.7 217.2,247.6 218.3,247.7 219.4,247.7 220.5,247.6 221.6,247.6 222.7,247.6 223.8,247.6 224.9,247.6 226.0,247.6 227.1,254.4 228.2,254.4 229.2,254.4 230.3,254.4 231.4,254.4 232.5,254.4 233.6,254.3 234.7,254.3 235.8,254.3 236.9,254.3 238.0,254.3 239.1,254.3 240.2,254.3 241.3,254.3 242.4,254.3 243.5,254.3 244.6,254.2 245.7,254.3 246.8,254.2 247.8,254.2 248.9,254.2 250.0,254.2 251.1,254.2 252.2,254.2 253.3,254.2 254.4,254.2 255.5,254.2 256.6,254.2 257.7,254.2 258.8,254.2 259.9,254.1 261.0,254.1 262.1,254.1 263.2,254.1 264.3,254.1 265.4,254.1 266.4,254.1 267.5,254.0 268.6,254.0 269.7,254.0 270.8,259.1 271.9,259.1 273.0,259.1 274.1,259.1 275.2,259.0 276.3,259.1 277.4,259.0 278.5,259.0 279.6,259.1 280.7,259.0 281.8,259.0 282.9,259.0 284.0,259.0 285.0,259.0 286.1,259.0 287.2,258.9 288.3,258.9 289.4,259.0 290.5,258.9 291.6,258.9 292.7,258.9 293.8,258.9 294.9,258.9 296.0,258.9 297.1,258.8 298.2,258.9 299.3,258.9 300.4,258.8 301.5,258.8 302.6,258.8 303.6,258.8 304.7,258.8 305.8,258.8 306.9,258.8 308.0,258.8 309.1,258.8 310.2,258.8 311.3,258.8 312.4,258.8 313.5,258.7 314.6,258.7 315.7,258.7 316.8,258.6 317.9,258.5 319.0,258.5 320.1,258.5 321.2,258.4 322.2,258.3 323.3,258.3 324.4,258.3 325.5,258.2 326.6,258.1 327.7,258.1 328.8,258.1 329.9,258.0 331.0,257.9 332.1,257.9 333.2,257.9 334.3,257.8 335.4,257.7 336.5,257.7 337.6,257.7 338.7,257.6 339.8,257.5 340.8,257.5 341.9,257.5 343.0,257.4 344.1,257.3 345.2,257.3 346.3,257.3 347.4,257.2 348.5,257.1 349.6,257.1 350.7,257.1 351.8,257.0 352.9,256.9 354.0,256.9 355.1,256.9 356.2,256.8 357.3,256.7 358.4,256.7 359.4,256.7 360.5,256.6 361.6,256.5 362.7,256.5 363.8,256.5 364.9,256.4 366.0,256.3 367.1,256.3 368.2,256.2 369.3,256.2 370.4,256.1 371.5,256.1 372.6,256.0 373.7,256.0 374.8,255.9 375.9,255.9 377.0,255.8 378.0,255.8 379.1,255.7 380.2,255.6 381.3,255.6 382.4,255.6 383.5,255.5 384.6,255.4 385.7,255.4 386.8,255.4 387.9,255.3 389.0,255.2 390.1,255.2 391.2,255.2 392.3,255.1 393.4,255.1 394.5,255.0 395.6,254.9 396.6,254.9 397.7,254.8 398.8,254.8 399.9,254.7 401.0,254.7 402.1,254.6 403.2,254.6 404.3,254.5 405.4,254.5 406.5,254.4 407.6,254.4 408.7,254.3 409.8,254.2 410.9,254.2 412.0,254.2 413.1,254.1 414.2,254.0 415.2,254.0 416.3,254.0 417.4,253.9 418.5,253.8 419.6,253.8 420.7,253.7 421.8,253.7 422.9,253.6 424.0,253.6 425.1,253.5 426.2,253.5 427.3,253.4 428.4,253.4 429.5,253.3 430.6,253.3 431.7,253.2 432.8,253.2 433.8,253.1 434.9,253.0 436.0,253.0 437.1,253.0 438.2,252.9 439.3,252.8 440.4,252.8 441.5,252.7 442.6,252.7 443.7,252.6 444.8,252.6 445.9,252.5 447.0,252.5 448.1,252.4 449.2,252.3 450.3,252.3 451.4,252.3 452.4,252.2 453.5,252.1 454.6,252.1 455.7,252.0 456.8,252.0 457.9,251.9 459.0,251.8 460.1,251.8 461.2,251.8 462.3,251.7 463.4,251.6 464.5,251.6 465.6,251.5 466.7,251.5 467.8,251.4 468.9,251.4 470.0,251.4 471.0,251.4 472.1,251.4 473.2,251.4 474.3,251.4 475.4,251.4 476.5,251.4 477.6,251.4 478.7,251.4 479.8,251.3 480.9,251.4 482.0,251.4 483.1,251.3 484.2,251.3 485.3,251.3 486.4,251.3 487.5,251.3 488.6,251.3 489.6,257.1 490.7,257.1 491.8,257.1 492.9,257.1 494.0,257.1 495.1,257.0 496.2,257.0 497.3,257.0 498.4,257.0 499.5,257.0 500.6,257.0 501.7,257.0 502.8,257.0 503.9,257.0 505.0,257.0 506.1,256.9 507.2,256.9 508.2,257.0 509.3,256.9 510.4,256.9 511.5,256.9 512.6,256.9 513.7,256.9 514.8,256.9 515.9,256.9 517.0,256.9 518.1,256.9 519.2,256.8 520.3,256.8 521.4,256.8 522.5,256.8 523.6,256.8 524.7,256.8 525.8,256.8 526.8,256.8 527.9,256.8 529.0,256.8 530.1,256.8 531.2,256.8 532.3,256.7 533.4,261.3 534.5,261.3 535.6,261.2 536.7,261.2 537.8,261.2 538.9,261.2 540.0,261.2 541.1,261.2 542.2,261.2 543.3,261.2 544.4,261.2 545.4,261.1 546.5,261.2 547.6,261.1 548.7,261.1 549.8,261.1 550.9,261.1 552.0,261.1 553.1,261.1 554.2,261.1 555.3,261.1 556.4,261.1 557.5,261.1 558.6,261.0 559.7,261.1 560.8,261.0 561.9,261.0 563.0,261.0 564.0,261.0 565.1,261.0 566.2,261.0 567.3,261.0 568.4,260.9 569.5,261.0 570.6,260.9 571.7,260.9 572.8,260.9 573.9,260.9 575.0,260.9 576.1,260.9 577.2,264.5 578.3,264.5 579.4,264.5 580.5,264.4 581.6,264.4 582.6,264.4 583.7,264.4 584.8,264.4 585.9,264.4 587.0,264.4 588.1,264.4 589.2,264.3 590.3,264.3 591.4,264.3 592.5,264.3 593.6,264.3 594.7,264.3 595.8,264.3 596.9,264.3 598.0,264.3 599.1,264.2 600.2,264.3 601.2,264.2 602.3,264.2 603.4,264.2 604.5,264.2 605.6,264.2 606.7,264.2 607.8,264.2 608.9,264.2 610.0,264.2 611.1,264.1 612.2,264.1 613.3,264.1 614.4,264.1 615.5,264.1 616.6,264.1 617.7,264.1 618.8,264.1 619.8,264.1 620.9,267.1 622.0,267.1 623.1,267.0 624.2,267.0 625.3,267.0 626.4,267.0 627.5,267.0 628.6,266.9 629.7,266.9 630.8,266.9 631.9,266.9 633.0,266.9 634.1,266.9 635.2,266.8 636.3,266.8 637.4,266.8 638.4,266.8 639.5,266.8 640.6,266.8 641.7,266.7 642.8,266.8 643.9,266.8 645.0,266.7 646.1,266.7 647.2,266.7 648.3,266.7 649.4,266.7 650.5,266.7 651.6,266.7 652.7,266.7 653.8,266.7 654.9,266.6 656.0,266.6 657.0,266.7 658.1,266.6 659.2,266.6 660.3,266.6 661.4,266.6 662.5,266.6 663.6,266.6 664.7,269.2 665.8,269.2 666.9,269.2 668.0,269.2 669.1,269.2 670.2,269.2 671.3,269.1 672.4,269.1 673.5,269.1 674.6,269.1 675.6,269.1 676.7,269.1 677.8,269.0 678.9,269.1 680.0,269.0 681.1,269.0 682.2,269.0 683.3,269.0 684.4,269.0 685.5,269.0 686.6,269.0 687.7,269.0 688.8,269.0 689.9,268.9 691.0,268.9 692.1,268.9 693.2,268.9 694.2,268.9 695.3,268.9 696.4,268.9 697.5,268.9 698.6,268.9 699.7,268.9 700.8,268.9 701.9,268.8 703.0,268.8 704.1,268.8 705.2,268.8 706.3,268.8 707.4,268.8 708.5,271.1 709.6,271.1 710.7,271.0 711.8,271.0 712.8,271.0 713.9,271.0 715.0,271.0 716.1,271.0 717.2,270.9 718.3,271.0 719.4,270.9 720.5,270.9 721.6,270.9 722.7,270.9 723.8,270.9 724.9,270.9 726.0,270.9 727.1,270.9 728.2,270.9 729.3,270.8 730.4,270.9 731.4,270.8 732.5,270.8 733.6,270.8 734.7,270.8 735.8,270.8 736.9,270.8 738.0,270.7 739.1,270.7 740.2,270.7 741.3,270.7 742.4,270.7 743.5,270.7 744.6,270.7 745.7,270.7 746.8,270.6 747.9,270.7 749.0,270.6 750.0,270.6 751.1,270.6 752.2,272.6 753.3,272.6 754.4,272.6 755.5,272.6 756.6,272.6 757.7,272.6 758.8,272.6 759.9,272.5 761.0,272.5 762.1,272.5 763.2,272.5 764.3,272.5 765.4,272.5 766.5,272.5 767.6,272.5 768.6,272.4 769.7,272.4 770.8,272.4 771.9,272.4 773.0,272.4 774.1,272.4 775.2,272.4 776.3,272.4 777.4,272.3 778.5,272.4 779.6,272.3 780.7,272.3 781.8,272.3 782.9,272.3 784.0,272.3 785.1,272.3 786.2,272.2 787.2,272.3 788.3,272.3 789.4,272.2 790.5,272.2 791.6,272.2 792.7,272.2 793.8,272.2 794.9,272.1 796.0,274.0"/>
<text x="640" y="72" font-family="Arial" font-size="12" fill="#2563eb">sqrt trace Ppos</text>
</svg>