<svg xmlns="http://www.w3.org/2000/svg" width="820" height="320" viewBox="0 0 820 320">
<rect width="100%" height="100%" fill="white"/>
<text x="52" y="30" font-family="Arial" font-size="18" font-weight="700">robust_nominal covariance bounds</text>
<line x1="52" y1="274" x2="796" y2="274" stroke="#263238"/>
<line x1="52" y1="42" x2="52" y2="274" stroke="#263238"/>
<text x="52" y="306" font-family="Arial" font-size="12">time (s)</text>
<text x="630" y="306" font-family="Arial" font-size="12">m</text>

<rect x="314.6" y="42" width="153.2" height="232" fill="#fef3c7" opacity="0.72"/>
<polyline fill="none" stroke="#0f766e" stroke-width="2.3" points="52.0,48.8 53.1,48.1 54.2,47.4 55.3,46.6 56.4,45.9 57.5,45.2 58.6,44.4 59.7,43.7 60.8,42.9 61.8,42.2 62.9,45.6 64.0,44.9 65.1,44.3 66.2,47.2 67.3,46.9 68.4,46.5 69.5,46.2 70.6,45.8 71.7,45.5 72.8,45.1 73.9,45.0 75.0,45.8 76.1,45.4 77.2,45.6 78.3,45.6 79.4,45.4 80.4,45.1 81.5,44.8 82.6,44.6 83.7,44.4 84.8,44.2 85.9,44.0 87.0,43.8 88.1,43.6 89.2,43.4 90.3,43.2 91.4,42.9 92.5,43.1 93.6,42.6 94.7,42.0 95.8,160.4 96.9,160.0 98.0,159.6 99.0,159.1 100.1,158.7 101.2,158.2 102.3,157.7 103.4,157.3 104.5,156.8 105.6,156.6 106.7,156.2 107.8,155.8 108.9,155.6 110.0,155.3 111.1,154.9 112.2,154.6 113.3,154.2 114.4,153.3 115.5,152.8 116.6,152.4 117.6,151.9 118.7,150.7 119.8,150.2 120.9,149.6 122.0,149.9 123.1,149.4 124.2,148.9 125.3,148.5 126.4,148.0 127.5,147.5 128.6,147.0 129.7,146.5 130.8,146.0 131.9,145.4 133.0,145.0 134.1,144.5 135.2,144.0 136.2,145.0 137.3,144.6 138.4,144.3 139.5,158.1 140.6,157.6 141.7,157.1 142.8,156.6 143.9,156.1 145.0,156.2 146.1,155.7 147.2,155.3 148.3,154.9 149.4,154.4 150.5,154.0 151.6,153.5 152.7,153.0 153.8,153.1 154.8,152.7 155.9,152.3 157.0,151.9 158.1,151.6 159.2,151.2 160.3,150.7 161.4,150.4 162.5,150.1 163.6,149.7 164.7,149.3 165.8,148.8 166.9,148.1 168.0,147.6 169.1,147.2 170.2,147.5 171.3,147.1 172.4,146.7 173.4,146.3 174.5,145.9 175.6,146.6 176.7,146.2 177.8,145.9 178.9,145.5 180.0,145.1 181.1,144.7 182.2,144.4 183.3,187.5 184.4,187.6 185.5,187.3 186.6,187.1 187.7,186.9 188.8,187.2 189.9,187.0 191.0,186.8 192.0,185.8 193.1,185.6 194.2,185.4 195.3,185.1 196.4,184.5 197.5,184.3 198.6,184.1 199.7,183.8 200.8,184.1 201.9,183.9 203.0,183.7 204.1,183.5 205.2,183.4 206.3,181.9 207.4,181.7 208.5,181.5 209.6,181.7 210.6,181.5 211.7,181.3 212.8,181.1 213.9,180.9 215.0,180.0 216.1,179.8 217.2,179.5 218.3,179.2 219.4,178.9 220.5,178.7 221.6,178.4 222.7,178.2 223.8,177.2 224.9,177.0 226.0,176.7 227.1,199.6 228.2,198.3 229.2,198.0 230.3,197.6 231.4,197.2 232.5,196.8 233.6,196.5 234.7,196.2 235.8,195.8 236.9,196.6 238.0,196.3 239.1,196.0 240.2,195.7 241.3,195.9 242.4,195.6 243.5,195.4 244.6,195.1 245.7,193.9 246.8,193.6 247.8,193.3 248.9,193.0 250.0,192.7 251.1,192.4 252.2,192.1 253.3,191.9 254.4,191.4 255.5,191.2 256.6,190.9 257.7,191.6 258.8,191.3 259.9,191.1 261.0,190.8 262.1,190.6 263.2,190.2 264.3,190.0 265.4,189.8 266.4,189.5 267.5,189.3 268.6,189.1 269.7,188.8 270.8,187.7 271.9,187.5 273.0,187.2 274.1,187.0 275.2,186.8 276.3,186.1 277.4,185.9 278.5,185.7 279.6,185.9 280.7,185.7 281.8,185.5 282.9,185.2 284.0,185.2 285.0,185.0 286.1,184.8 287.2,184.6 288.3,184.3 289.4,184.4 290.5,184.2 291.6,184.0 292.7,181.4 293.8,181.1 294.9,180.9 296.0,180.6 297.1,180.3 298.2,178.1 299.3,177.8 300.4,177.5 301.5,177.2 302.6,177.4 303.6,177.1 304.7,176.8 305.8,176.3 306.9,176.0 308.0,175.7 309.1,175.4 310.2,175.6 311.3,175.4 312.4,175.1 313.5,174.8 314.6,176.2 315.7,176.0 316.8,175.7 317.9,175.5 319.0,172.7 320.1,172.4 321.2,172.1 322.2,171.8 323.3,174.0 324.4,173.7 325.5,173.5 326.6,173.3 327.7,173.0 328.8,172.7 329.9,172.5 331.0,172.3 332.1,170.5 333.2,170.2 334.3,169.9 335.4,169.6 336.5,169.4 337.6,169.1 338.7,168.8 339.8,168.5 340.8,168.5 341.9,168.2 343.0,167.9 344.1,167.6 345.2,167.3 346.3,165.9 347.4,165.6 348.5,165.3 349.6,167.2 350.7,166.9 351.8,166.6 352.9,166.3 354.0,164.2 355.1,163.8 356.2,163.5 357.3,163.1 358.4,165.6 359.4,165.3 360.5,165.1 361.6,164.8 362.7,164.5 363.8,163.1 364.9,162.8 366.0,162.5 367.1,161.8 368.2,161.5 369.3,161.2 370.4,160.9 371.5,159.1 372.6,158.7 373.7,158.4 374.8,158.1 375.9,156.6 377.0,156.2 378.0,155.8 379.1,155.4 380.2,155.1 381.3,155.1 382.4,154.7 383.5,154.3 384.6,154.0 385.7,153.1 386.8,152.8 387.9,152.4 389.0,152.1 390.1,152.5 391.2,152.1 392.3,151.8 393.4,150.0 394.5,149.7 395.6,149.3 396.6,148.9 397.7,148.5 398.8,148.0 399.9,147.6 401.0,147.2 402.1,147.1 403.2,146.8 404.3,146.4 405.4,146.0 406.5,145.6 407.6,147.3 408.7,147.0 409.8,146.7 410.9,145.6 412.0,145.2 413.1,144.9 414.2,144.6 415.2,144.4 416.3,144.1 417.4,143.7 418.5,143.4 419.6,144.0 420.7,143.7 421.8,143.4 422.9,143.1 424.0,143.1 425.1,142.8 426.2,142.5 427.3,142.3 428.4,142.4 429.5,142.1 430.6,141.9 431.7,141.6 432.8,139.9 433.8,139.6 434.9,139.3 436.0,139.0 437.1,139.3 438.2,139.0 439.3,138.7 440.4,138.5 441.5,138.2 442.6,138.6 443.7,138.3 444.8,138.1 445.9,135.2 447.0,134.8 448.1,134.5 449.2,134.2 450.3,132.0 451.4,131.6 452.4,131.2 453.5,130.9 454.6,131.2 455.7,130.8 456.8,130.4 457.9,130.1 459.0,129.7 460.1,129.8 461.2,129.4 462.3,129.0 463.4,128.7 464.5,127.8 465.6,127.4 466.7,127.0 467.8,126.6 468.9,125.2 470.0,124.8 471.0,124.4 472.1,124.0 473.2,123.0 474.3,122.6 475.4,122.2 476.5,123.2 477.6,122.9 478.7,122.5 479.8,122.2 480.9,122.9 482.0,122.6 483.1,122.3 484.2,122.0 485.3,121.6 486.4,121.3 487.5,121.0 488.6,120.7 489.6,154.2 490.7,154.6 491.8,154.3 492.9,154.1 494.0,152.9 495.1,152.6 496.2,152.3 497.3,152.0 498.4,152.4 499.5,152.0 500.6,151.7 501.7,151.4 502.8,151.0 503.9,150.7 505.0,150.4 506.1,150.1 507.2,149.8 508.2,149.1 509.3,148.7 510.4,148.4 511.5,148.0 512.6,147.6 513.7,147.3 514.8,146.9 515.9,145.6 517.0,145.2 518.1,144.8 519.2,144.4 520.3,144.0 521.4,145.0 522.5,144.7 523.6,144.4 524.7,144.1 525.8,143.7 526.8,143.4 527.9,143.0 529.0,143.7 530.1,143.4 531.2,143.1 532.3,142.8 533.4,164.8 534.5,164.5 535.6,164.3 536.7,164.0 537.8,163.7 538.9,164.3 540.0,164.0 541.1,163.7 542.2,163.5 543.3,163.0 544.4,162.7 545.4,162.5 546.5,162.5 547.6,162.2 548.7,161.9 549.8,161.7 550.9,161.4 552.0,158.7 553.1,158.4 554.2,158.1 555.3,157.5 556.4,157.2 557.5,156.8 558.6,156.5 559.7,155.9 560.8,155.6 561.9,155.2 563.0,154.9 564.0,154.3 565.1,153.9 566.2,153.6 567.3,153.2 568.4,152.9 569.5,152.4 570.6,152.1 571.7,151.8 572.8,151.4 573.9,151.4 575.0,151.1 576.1,150.8 577.2,174.1 578.3,173.8 579.4,173.5 580.5,173.2 581.6,172.8 582.6,173.6 583.7,173.3 584.8,173.1 585.9,172.8 587.0,172.0 588.1,171.7 589.2,171.4 590.3,171.1 591.4,170.2 592.5,169.9 593.6,169.6 594.7,169.3 595.8,168.8 596.9,168.5 598.0,168.2 599.1,167.9 600.2,166.8 601.2,166.4 602.3,166.1 603.4,165.8 604.5,165.8 605.6,165.5 606.7,165.1 607.8,164.8 608.9,164.5 610.0,164.2 611.1,163.9 612.2,163.6 613.3,164.2 614.4,163.9 615.5,163.6 616.6,163.5 617.7,163.2 618.8,162.9 619.8,162.6 620.9,180.8 622.0,180.2 623.1,179.9 624.2,179.6 625.3,179.3 626.4,178.7 627.5,178.4 628.6,178.0 629.7,177.7 630.8,177.7 631.9,177.4 633.0,177.1 634.1,176.8 635.2,176.5 636.3,176.2 637.4,175.8 638.4,173.9 639.5,173.5 640.6,173.1 641.7,172.8 642.8,173.9 643.9,173.6 645.0,173.2 646.1,172.9 647.2,172.4 648.3,172.0 649.4,171.7 650.5,171.3 651.6,170.3 652.7,169.9 653.8,169.5 654.9,169.1 656.0,168.7 657.0,167.2 658.1,166.8 659.2,166.4 660.3,166.0 661.4,166.2 662.5,165.8 663.6,165.4 664.7,175.2 665.8,174.9 666.9,174.5 668.0,174.1 669.1,173.4 670.2,172.9 671.3,172.5 672.4,172.1 673.5,171.4 674.6,171.0 675.6,170.6 676.7,170.2 677.8,169.7 678.9,168.9 680.0,168.5 681.1,168.1 682.2,167.6 683.3,168.7 684.4,168.3 685.5,167.9 686.6,167.7 687.7,167.3 688.8,166.8 689.9,166.4 691.0,166.0 692.1,164.6 693.2,164.2 694.2,163.8 695.3,163.9 696.4,163.5 697.5,163.1 698.6,162.7 699.7,162.2 700.8,161.8 701.9,161.4 703.0,161.0 704.1,160.6 705.2,160.0 706.3,159.7 707.4,159.2 708.5,171.7 709.6,171.3 710.7,171.0 711.8,170.6 712.8,169.4 713.9,169.0 715.0,168.6 716.1,168.2 717.2,167.8 718.3,168.1 719.4,167.7 720.5,167.3 721.6,167.0 722.7,166.3 723.8,165.9 724.9,165.6 726.0,166.2 727.1,165.9 728.2,165.6 729.3,165.2 730.4,164.2 731.4,163.9 732.5,163.5 733.6,163.2 734.7,162.6 735.8,162.3 736.9,161.9 738.0,161.6 739.1,161.2 740.2,162.0 741.3,161.7 742.4,161.4 743.5,161.1 744.6,159.5 745.7,159.1 746.8,158.8 747.9,160.7 749.0,160.4 750.0,160.1 751.1,159.8 752.2,174.4 753.3,174.1 754.4,173.8 755.5,173.5 756.6,174.8 757.7,174.6 758.8,174.3 759.9,174.1 761.0,173.8 762.1,174.8 763.2,174.6 764.3,174.4 765.4,172.6 766.5,172.4 767.6,172.1 768.6,171.9 769.7,171.6 770.8,169.8 771.9,169.5 773.0,169.2 774.1,168.4 775.2,168.1 776.3,167.7 777.4,167.4 778.5,168.5 779.6,168.3 780.7,168.0 781.8,167.7 782.9,166.2 784.0,165.9 785.1,165.5 786.2,165.2 787.2,162.9 788.3,162.5 789.4,162.2 790.5,161.8 791.6,161.5 792.7,161.9 793.8,161.6 794.9,161.3 796.0,176.0"/>
<text x="640" y="56" font-family="Arial" font-size="12" fill="#0f766e">position error</text>
<polyline fill="none" stroke="#2563eb" stroke-width="2.3" points="52.0,153.2 53.1,152.7 54.2,151.1 55.3,148.6 56.4,145.1 57.5,140.7 58.6,135.5 59.7,129.5 60.8,122.8 61.8,115.4 62.9,121.7 64.0,115.2 65.1,108.4 66.2,153.9 67.3,153.8 68.4,153.7 69.5,153.5 70.6,153.4 71.7,153.2 72.8,153.0 73.9,154.2 75.0,155.0 76.1,155.0 77.2,155.2 78.3,155.2 79.4,155.3 80.4,155.3 81.5,155.3 82.6,155.4 83.7,155.4 84.8,155.5 85.9,155.5 87.0,155.5 88.1,155.5 89.2,155.5 90.3,155.5 91.4,155.5 92.5,155.5 93.6,155.6 94.7,155.6 95.8,209.5 96.9,209.5 98.0,209.5 99.0,209.5 100.1,209.5 101.2,209.5 102.3,209.5 103.4,209.5 104.5,209.5 105.6,209.5 106.7,209.5 107.8,209.5 108.9,209.5 110.0,209.5 111.1,209.5 112.2,209.5 113.3,209.5 114.4,209.5 115.5,209.5 116.6,209.5 117.6,209.5 118.7,209.5 119.8,209.5 120.9,209.5 122.0,209.5 123.1,209.5 124.2,209.5 125.3,209.5 126.4,209.5 127.5,209.5 128.6,209.5 129.7,209.5 130.8,209.5 131.9,209.5 133.0,209.5 134.1,209.4 135.2,209.4 136.2,209.5 137.3,209.4 138.4,209.4 139.5,231.5 140.6,231.5 141.7,231.5 142.8,231.4 143.9,231.4 145.0,231.4 146.1,231.4 147.2,231.4 148.3,231.4 149.4,231.4 150.5,231.4 151.6,231.4 152.7,231.4 153.8,231.4 154.8,231.4 155.9,231.4 157.0,231.4 158.1,231.4 159.2,231.4 160.3,231.3 161.4,231.3 162.5,231.4 163.6,231.3 164.7,231.3 165.8,231.3 166.9,231.3 168.0,231.3 169.1,231.3 170.2,231.3 171.3,231.3 172.4,231.3 173.4,231.3 174.5,231.2 175.6,231.3 176.7,231.3 177.8,231.2 178.9,231.2 180.0,231.2 181.1,231.2 182.2,231.2 183.3,242.3 184.4,242.3 185.5,242.2 186.6,242.2 187.7,242.2 188.8,242.2 189.9,242.2 191.0,242.2 192.0,242.2 193.1,242.2 194.2,242.2 195.3,242.2 196.4,242.2 197.5,242.2 198.6,242.2 199.7,242.1 200.8,242.2 201.9,242.1 203.0,242.1 204.1,242.1 205.2,242.1 206.3,242.1 207.4,242.1 208.5,242.1 209.6,242.1 210.6,242.1 211.7,242.1 212.8,242.0 213.9,242.0 215.0,242.0 216.1,242.0 217.2,242.0 218.3,242.0 219.4,242.0 220.5,242.0 221.6,242.0 222.7,242.0 223.8,242.0 224.9,242.0 226.0,241.9 227.1,250.9 228.2,250.9 229.2,250.9 230.3,250.9 231.4,250.9 232.5,250.9 233.6,250.9 234.7,250.9 235.8,250.8 236.9,250.9 238.0,250.8 239.1,250.8 240.2,250.8 241.3,250.8 242.4,250.8 243.5,250.8 244.6,250.8 245.7,250.8 246.8,250.8 247.8,250.7 248.9,250.7 250.0,250.8 251.1,250.7 252.2,250.7 253.3,250.7 254.4,250.7 255.5,250.7 256.6,250.7 257.7,250.7 258.8,250.7 259.9,250.7 261.0,250.6 262.1,250.6 263.2,250.7 264.3,250.6 265.4,250.6 266.4,250.6 267.5,250.6 268.6,250.5 269.7,250.5 270.8,257.0 271.9,257.0 273.0,257.0 274.1,257.0 275.2,256.9 276.3,257.0 277.4,257.0 278.5,256.9 279.6,257.0 280.7,256.9 281.8,256.9 282.9,256.9 284.0,256.9 285.0,256.9 286.1,256.9 287.2,256.9 288.3,256.8 289.4,256.9 290.5,256.8 291.6,256.8 292.7,256.9 293.8,256.8 294.9,256.8 296.0,256.8 297.1,256.7 298.2,256.8 299.3,256.8 300.4,256.7 301.5,256.7 302.6,256.7 303.6,256.7 304.7,256.7 305.8,256.7 306.9,256.7 308.0,256.7 309.1,256.7 310.2,256.7 311.3,256.7 312.4,256.7 313.5,256.6 314.6,256.6 315.7,256.5 316.8,256.5 317.9,256.4 319.0,256.4 320.1,256.3 321.2,256.2 322.2,256.2 323.3,256.2 324.4,256.1 325.5,256.0 326.6,255.9 327.7,255.9 328.8,255.9 329.9,255.8 331.0,255.7 332.1,255.7 333.2,255.6 334.3,255.6 335.4,255.5 336.5,255.4 337.6,255.4 338.7,255.3 339.8,255.3 340.8,255.2 341.9,255.2 343.0,255.1 344.1,255.0 345.2,254.9 346.3,254.9 347.4,254.9 348.5,254.8 349.6,254.8 350.7,254.7 351.8,254.6 352.9,254.5 354.0,254.5 355.1,254.5 356.2,254.4 357.3,254.3 358.4,254.3 359.4,254.2 360.5,254.2 361.6,254.1 362.7,254.0 363.8,254.0 364.9,253.9 366.0,253.9 367.1,253.8 368.2,253.8 369.3,253.7 370.4,253.6 371.5,253.6 372.6,253.5 373.7,253.5 374.8,253.4 375.9,253.4 377.0,253.3 378.0,253.2 379.1,253.1 380.2,253.1 381.3,253.1 382.4,253.0 383.5,252.9 384.6,252.8 385.7,252.8 386.8,252.7 387.9,252.7 389.0,252.6 390.1,252.6 391.2,252.5 392.3,252.4 393.4,252.4 394.5,252.3 395.6,252.3 396.6,252.2 397.7,252.1 398.8,252.1 399.9,252.0 401.0,251.9 402.1,251.9 403.2,251.9 404.3,251.8 405.4,251.7 406.5,251.6 407.6,251.6 408.7,251.5 409.8,251.5 410.9,251.5 412.0,251.4 413.1,251.3 414.2,251.2 415.2,251.2 416.3,251.1 417.4,251.1 418.5,251.0 419.6,251.0 420.7,250.9 421.8,250.8 422.9,250.7 424.0,250.7 425.1,250.7 426.2,250.6 427.3,250.5 428.4,250.5 429.5,250.4 430.6,250.3 431.7,250.3 432.8,250.2 433.8,250.2 434.9,250.1 436.0,250.0 437.1,250.0 438.2,249.9 439.3,249.8 440.4,249.8 441.5,249.7 442.6,249.7 443.7,249.6 444.8,249.5 445.9,249.5 447.0,249.4 448.1,249.4 449.2,249.3 450.3,249.3 451.4,249.2 452.4,249.1 453.5,249.0 454.6,249.0 455.7,248.9 456.8,248.9 457.9,248.8 459.0,248.7 460.1,248.7 461.2,248.6 462.3,248.5 463.4,248.5 464.5,248.4 465.6,248.4 466.7,248.3 467.8,248.2 468.9,248.3 470.0,248.2 471.0,248.2 472.1,248.2 473.2,248.2 474.3,248.2 475.4,248.2 476.5,248.2 477.6,248.2 478.7,248.2 479.8,248.1 480.9,248.2 482.0,248.2 483.1,248.1 484.2,248.1 485.3,248.1 486.4,248.1 487.5,248.1 488.6,248.1 489.6,254.6 490.7,254.6 491.8,254.6 492.9,254.6 494.0,254.6 495.1,254.6 496.2,254.6 497.3,254.5 498.4,254.6 499.5,254.5 500.6,254.5 501.7,254.5 502.8,254.5 503.9,254.5 505.0,254.5 506.1,254.5 507.2,254.4 508.2,254.5 509.3,254.5 510.4,254.4 511.5,254.5 512.6,254.4 513.7,254.4 514.8,254.4 515.9,254.4 517.0,254.4 518.1,254.4 519.2,254.4 520.3,254.3 521.4,254.4 522.5,254.3 523.6,254.3 524.7,254.3 525.8,254.3 526.8,254.3 527.9,254.3 529.0,254.3 530.1,254.3 531.2,254.3 532.3,254.2 533.4,258.2 534.5,258.1 535.6,258.1 536.7,258.1 537.8,258.1 538.9,258.1 540.0,258.1 541.1,258.1 542.2,258.0 543.3,258.1 544.4,258.0 545.4,258.0 546.5,258.0 547.6,258.0 548.7,258.0 549.8,258.0 550.9,258.0 552.0,258.0 553.1,258.0 554.2,257.9 555.3,258.0 556.4,257.9 557.5,257.9 558.6,257.9 559.7,257.9 560.8,257.9 561.9,257.9 563.0,257.9 564.0,257.9 565.1,257.9 566.2,257.8 567.3,257.8 568.4,257.8 569.5,257.8 570.6,257.8 571.7,257.8 572.8,257.8 573.9,257.8 575.0,257.8 576.1,257.7 577.2,261.4 578.3,261.4 579.4,261.3 580.5,261.3 581.6,261.3 582.6,261.3 583.7,261.3 584.8,261.3 585.9,261.2 587.0,261.3 588.1,261.2 589.2,261.2 590.3,261.2 591.4,261.2 592.5,261.2 593.6,261.2 594.7,261.1 595.8,261.2 596.9,261.1 598.0,261.1 599.1,261.1 600.2,261.1 601.2,261.1 602.3,261.1 603.4,261.1 604.5,261.1 605.6,261.1 606.7,261.0 607.8,261.1 608.9,261.1 610.0,261.0 611.1,261.0 612.2,261.0 613.3,261.0 614.4,261.0 615.5,261.0 616.6,261.0 617.7,261.0 618.8,261.0 619.8,260.9 620.9,265.1 622.0,265.1 623.1,265.1 624.2,265.1 625.3,265.0 626.4,265.0 627.5,265.0 628.6,264.9 629.7,264.9 630.8,265.0 631.9,264.9 633.0,264.9 634.1,264.9 635.2,264.9 636.3,264.8 637.4,264.8 638.4,264.8 639.5,264.8 640.6,264.8 641.7,264.7 642.8,264.8 643.9,264.8 645.0,264.7 646.1,264.7 647.2,264.8 648.3,264.7 649.4,264.7 650.5,264.7 651.6,264.7 652.7,264.7 653.8,264.7 654.9,264.6 656.0,264.6 657.0,264.7 658.1,264.6 659.2,264.6 660.3,264.6 661.4,264.6 662.5,264.6 663.6,264.5 664.7,268.1 665.8,268.1 666.9,268.0 668.0,268.0 669.1,268.0 670.2,268.0 671.3,268.0 672.4,268.0 673.5,268.0 674.6,268.0 675.6,268.0 676.7,267.9 677.8,267.9 678.9,267.9 680.0,267.9 681.1,267.9 682.2,267.9 683.3,267.9 684.4,267.9 685.5,267.8 686.6,267.9 687.7,267.8 688.8,267.8 689.9,267.8 691.0,267.8 692.1,267.8 693.2,267.8 694.2,267.7 695.3,267.8 696.4,267.7 697.5,267.7 698.6,267.7 699.7,267.7 700.8,267.7 701.9,267.7 703.0,267.7 704.1,267.6 705.2,267.6 706.3,267.6 707.4,267.6 708.5,270.6 709.6,270.6 710.7,270.6 711.8,270.5 712.8,270.6 713.9,270.5 715.0,270.5 716.1,270.5 717.2,270.5 718.3,270.5 719.4,270.5 720.5,270.4 721.6,270.4 722.7,270.4 723.8,270.4 724.9,270.4 726.0,270.4 727.1,270.4 728.2,270.4 729.3,270.3 730.4,270.4 731.4,270.3 732.5,270.3 733.6,270.3 734.7,270.3 735.8,270.3 736.9,270.3 738.0,270.2 739.1,270.2 740.2,270.2 741.3,270.2 742.4,270.2 743.5,270.2 744.6,270.2 745.7,270.2 746.8,270.1 747.9,270.2 749.0,270.1 750.0,270.1 751.1,270.1 752.2,272.7 753.3,272.7 754.4,272.7 755.5,272.6 756.6,272.7 757.7,272.6 758.8,272.6 759.9,272.6 761.0,272.6 762.1,272.6 763.2,272.6 764.3,272.5 765.4,272.6 766.5,272.5 767.6,272.5 768.6,272.5 769.7,272.4 770.8,272.5 771.9,272.5 773.0,272.4 774.1,272.5 775.2,272.4 776.3,272.4 777.4,272.4 778.5,272.4 779.6,272.4 780.7,272.3 781.8,272.3 782.9,272.4 784.0,272.3 785.1,272.3 786.2,272.3 787.2,272.3 788.3,272.3 789.4,272.2 790.5,272.2 791.6,272.2 792.7,272.2 793.8,272.2 794.9,272.2 796.0,274.0"/>
<text x="640" y="72" font-family="Arial" font-size="12" fill="#2563eb">sqrt trace Ppos</text>
</svg>