<svg xmlns="http://www.w3.org/2000/svg" width="820" height="320" viewBox="0 0 820 320">
<rect width="100%" height="100%" fill="white"/>
<text x="52" y="30" font-family="Arial" font-size="18" font-weight="700">robust_dropout_robust covariance bounds</text>
<line x1="52" y1="274" x2="796" y2="274" stroke="#263238"/>
<line x1="52" y1="42" x2="52" y2="274" stroke="#263238"/>
<text x="52" y="306" font-family="Arial" font-size="12">time (s)</text>
<text x="630" y="306" font-family="Arial" font-size="12">m</text>

<rect x="314.6" y="42" width="153.2" height="232" fill="#fef3c7" opacity="0.72"/>
<polyline fill="none" stroke="#0f766e" stroke-width="2.3" points="52.0,49.7 53.1,49.0 54.2,48.2 55.3,47.4 56.4,46.7 57.5,45.9 58.6,45.1 59.7,44.3 60.8,43.5 61.8,42.7 62.9,45.6 64.0,44.9 65.1,44.2 66.2,47.5 67.3,47.1 68.4,46.7 69.5,46.3 70.6,45.9 71.7,45.5 72.8,45.1 73.9,45.1 75.0,46.4 76.1,46.0 77.2,46.0 78.3,46.0 79.4,45.7 80.4,45.4 81.5,45.1 82.6,44.8 83.7,44.6 84.8,44.5 85.9,44.3 87.0,44.1 88.1,43.9 89.2,43.6 90.3,43.4 91.4,43.1 92.5,43.2 93.6,42.6 94.7,42.0 95.8,155.9 96.9,155.5 98.0,155.0 99.0,154.6 100.1,154.1 101.2,153.6 102.3,153.1 103.4,152.6 104.5,152.1 105.6,151.9 106.7,151.5 107.8,151.1 108.9,150.9 110.0,150.5 111.1,150.2 112.2,149.8 113.3,149.4 114.4,148.4 115.5,147.9 116.6,147.4 117.6,146.9 118.7,145.7 119.8,145.1 120.9,144.5 122.0,144.7 123.1,144.3 124.2,143.8 125.3,143.3 126.4,142.7 127.5,142.3 128.6,141.7 129.7,141.2 130.8,140.7 131.9,140.1 133.0,139.6 134.1,139.1 135.2,138.6 136.2,139.5 137.3,139.1 138.4,138.8 139.5,156.7 140.6,156.2 141.7,155.7 142.8,155.0 143.9,154.5 145.0,154.7 146.1,154.2 147.2,153.7 148.3,153.2 149.4,152.7 150.5,152.2 151.6,151.7 152.7,151.2 153.8,151.3 154.8,150.8 155.9,150.4 157.0,150.0 158.1,149.6 159.2,149.2 160.3,148.8 161.4,148.4 162.5,147.9 163.6,147.5 164.7,147.0 165.8,146.6 166.9,145.8 168.0,145.3 169.1,144.8 170.2,145.1 171.3,144.7 172.4,144.3 173.4,143.9 174.5,143.4 175.6,144.1 176.7,143.8 177.8,143.4 178.9,143.1 180.0,142.4 181.1,142.1 182.2,141.7 183.3,202.2 184.4,202.3 185.5,202.1 186.6,201.9 187.7,201.6 188.8,201.8 189.9,201.6 191.0,201.4 192.0,200.4 193.1,200.1 194.2,199.9 195.3,199.6 196.4,198.9 197.5,198.6 198.6,198.4 199.7,198.1 200.8,198.4 201.9,198.2 203.0,198.0 204.1,197.8 205.2,197.6 206.3,196.1 207.4,195.8 208.5,195.5 209.6,195.8 210.6,195.6 211.7,195.3 212.8,195.1 213.9,194.8 215.0,194.1 216.1,193.9 217.2,193.6 218.3,193.2 219.4,192.9 220.5,192.6 221.6,192.2 222.7,191.9 223.8,191.0 224.9,190.7 226.0,190.3 227.1,209.9 228.2,208.7 229.2,208.3 230.3,207.8 231.4,207.5 232.5,207.1 233.6,206.7 234.7,206.3 235.8,205.9 236.9,206.7 238.0,206.4 239.1,206.0 240.2,205.7 241.3,205.9 242.4,205.6 243.5,205.4 244.6,205.1 245.7,203.7 246.8,203.4 247.8,203.0 248.9,202.7 250.0,202.5 251.1,202.2 252.2,201.9 253.3,201.6 254.4,201.2 255.5,200.9 256.6,200.5 257.7,201.1 258.8,200.9 259.9,200.6 261.0,200.4 262.1,200.1 263.2,199.7 264.3,199.5 265.4,199.2 266.4,199.0 267.5,198.7 268.6,198.5 269.7,198.2 270.8,198.1 271.9,197.9 273.0,197.6 274.1,197.4 275.2,197.2 276.3,196.3 277.4,196.0 278.5,195.8 279.6,196.1 280.7,195.8 281.8,195.6 282.9,195.3 284.0,195.4 285.0,195.2 286.1,195.0 287.2,194.8 288.3,194.6 289.4,194.6 290.5,194.4 291.6,194.2 292.7,191.5 293.8,191.2 294.9,190.8 296.0,190.5 297.1,190.2 298.2,188.1 299.3,187.7 300.4,187.3 301.5,186.9 302.6,187.3 303.6,186.9 304.7,186.5 305.8,186.1 306.9,185.7 308.0,185.4 309.1,185.0 310.2,185.3 311.3,185.0 312.4,184.7 313.5,184.4 314.6,185.7 315.7,185.4 316.8,185.2 317.9,185.0 319.0,182.3 320.1,181.9 321.2,181.5 322.2,181.2 323.3,183.4 324.4,183.2 325.5,183.0 326.6,182.8 327.7,182.3 328.8,182.1 329.9,181.8 331.0,181.6 332.1,179.7 333.2,179.4 334.3,179.1 335.4,178.7 336.5,178.4 337.6,178.2 338.7,177.9 339.8,177.6 340.8,177.5 341.9,177.1 343.0,176.8 344.1,176.5 345.2,176.1 346.3,174.9 347.4,174.5 348.5,174.1 349.6,176.0 350.7,175.7 351.8,175.4 352.9,175.2 354.0,173.0 355.1,172.6 356.2,172.2 357.3,171.7 358.4,174.3 359.4,174.0 360.5,173.8 361.6,173.5 362.7,173.3 363.8,171.7 364.9,171.4 366.0,171.1 367.1,170.4 368.2,170.1 369.3,169.8 370.4,169.5 371.5,167.6 372.6,167.1 373.7,166.7 374.8,166.4 375.9,165.1 377.0,164.7 378.0,164.2 379.1,163.7 380.2,163.3 381.3,163.3 382.4,162.9 383.5,162.5 384.6,162.1 385.7,161.3 386.8,160.9 387.9,160.4 389.0,160.0 390.1,160.7 391.2,160.3 392.3,159.9 393.4,158.4 394.5,157.9 395.6,157.5 396.6,157.0 397.7,156.6 398.8,156.1 399.9,155.7 401.0,155.3 402.1,155.3 403.2,154.9 404.3,154.4 405.4,154.0 406.5,153.6 407.6,155.2 408.7,154.9 409.8,154.7 410.9,153.4 412.0,153.1 413.1,152.8 414.2,152.4 415.2,152.2 416.3,151.8 417.4,151.5 418.5,151.2 419.6,151.7 420.7,151.4 421.8,151.1 422.9,150.9 424.0,150.7 425.1,150.5 426.2,150.2 427.3,149.9 428.4,149.9 429.5,149.6 430.6,149.4 431.7,149.2 432.8,147.4 433.8,147.1 434.9,146.7 436.0,146.4 437.1,146.7 438.2,146.4 439.3,146.1 440.4,145.8 441.5,145.5 442.6,145.9 443.7,145.7 444.8,145.5 445.9,142.5 447.0,142.1 448.1,141.7 449.2,141.3 450.3,139.4 451.4,138.9 452.4,138.4 453.5,137.9 454.6,138.6 455.7,138.1 456.8,137.7 457.9,137.3 459.0,136.8 460.1,137.1 461.2,136.7 462.3,136.3 463.4,135.9 464.5,135.1 465.6,134.6 466.7,134.2 467.8,133.8 468.9,132.5 470.0,132.0 471.0,131.6 472.1,131.1 473.2,130.3 474.3,129.8 475.4,129.3 476.5,130.4 477.6,130.0 478.7,129.7 479.8,129.3 480.9,129.9 482.0,129.6 483.1,129.3 484.2,129.0 485.3,128.5 486.4,128.2 487.5,127.9 488.6,127.6 489.6,202.9 490.7,203.1 491.8,202.9 492.9,202.6 494.0,201.6 495.1,201.3 496.2,201.0 497.3,200.6 498.4,200.9 499.5,200.5 500.6,200.2 501.7,199.9 502.8,199.5 503.9,199.2 505.0,198.8 506.1,198.5 507.2,198.3 508.2,197.5 509.3,197.1 510.4,196.8 511.5,196.4 512.6,196.0 513.7,195.6 514.8,195.2 515.9,194.0 517.0,193.5 518.1,193.1 519.2,192.7 520.3,192.2 521.4,193.2 522.5,192.9 523.6,192.5 524.7,192.2 525.8,191.8 526.8,191.5 527.9,191.2 529.0,191.8 530.1,191.5 531.2,191.2 532.3,190.9 533.4,249.8 534.5,249.6 535.6,249.3 536.7,249.1 537.8,248.8 538.9,249.3 540.0,249.1 541.1,248.9 542.2,248.7 543.3,248.0 544.4,247.8 545.4,247.5 546.5,247.3 547.6,247.1 548.7,246.9 549.8,246.6 550.9,246.4 552.0,243.8 553.1,243.4 554.2,243.0 555.3,242.5 556.4,242.1 557.5,241.8 558.6,241.4 559.7,240.8 560.8,240.4 561.9,240.0 563.0,239.6 564.0,239.1 565.1,238.7 566.2,238.2 567.3,237.8 568.4,237.4 569.5,237.1 570.6,236.7 571.7,236.3 572.8,235.9 573.9,236.1 575.0,235.7 576.1,235.4 577.2,274.0 578.3,273.6 579.4,273.3 580.5,273.0 581.6,272.6 582.6,273.5 583.7,273.2 584.8,273.0 585.9,272.7 587.0,271.6 588.1,271.3 589.2,270.9 590.3,270.6 591.4,269.7 592.5,269.4 593.6,269.0 594.7,268.6 595.8,267.9 596.9,267.6 598.0,267.2 599.1,266.8 600.2,266.0 601.2,265.6 602.3,265.2 603.4,264.8 604.5,265.3 605.6,264.9 606.7,264.6 607.8,264.3 608.9,263.9 610.0,263.6 611.1,263.3 612.2,262.9 613.3,263.6 614.4,263.3 615.5,263.0 616.6,262.8 617.7,262.5 618.8,262.2 619.8,261.9 620.9,265.3 622.0,265.1 623.1,264.8 624.2,264.4 625.3,264.1 626.4,263.8 627.5,263.5 628.6,263.2 629.7,262.9 630.8,263.3 631.9,263.1 633.0,262.8 634.1,262.5 635.2,262.3 636.3,262.0 637.4,261.7 638.4,259.1 639.5,258.7 640.6,258.3 641.7,257.9 642.8,259.4 643.9,259.1 645.0,258.8 646.1,258.5 647.2,257.2 648.3,257.0 649.4,256.6 650.5,256.2 651.6,255.0 652.7,254.6 653.8,254.1 654.9,253.7 656.0,253.3 657.0,251.5 658.1,251.0 659.2,250.5 660.3,250.0 661.4,251.0 662.5,250.6 663.6,250.2 664.7,248.3 665.8,248.0 666.9,247.7 668.0,247.3 669.1,246.7 670.2,246.2 671.3,245.8 672.4,245.4 673.5,244.8 674.6,244.4 675.6,244.1 676.7,243.7 677.8,243.2 678.9,242.6 680.0,242.1 681.1,241.7 682.2,241.3 683.3,242.6 684.4,242.2 685.5,241.9 686.6,241.7 687.7,241.3 688.8,241.0 689.9,240.7 691.0,240.3 692.1,239.0 693.2,238.7 694.2,238.3 695.3,238.3 696.4,237.9 697.5,237.5 698.6,237.2 699.7,236.6 700.8,236.2 701.9,235.8 703.0,235.5 704.1,235.1 705.2,234.6 706.3,234.2 707.4,233.8 708.5,239.7 709.6,239.3 710.7,239.0 711.8,238.7 712.8,237.4 713.9,237.0 715.0,236.6 716.1,236.2 717.2,235.8 718.3,236.1 719.4,235.8 720.5,235.4 721.6,235.1 722.7,234.3 723.8,233.9 724.9,233.6 726.0,233.9 727.1,233.6 728.2,233.3 729.3,233.0 730.4,232.1 731.4,231.7 732.5,231.4 733.6,231.1 734.7,230.6 735.8,230.2 736.9,229.9 738.0,229.5 739.1,229.1 740.2,230.2 741.3,229.9 742.4,229.6 743.5,229.3 744.6,227.6 745.7,227.3 746.8,226.9 747.9,228.6 749.0,228.4 750.0,228.2 751.1,227.9 752.2,239.1 753.3,238.6 754.4,238.4 755.5,238.1 756.6,239.2 757.7,239.1 758.8,238.9 759.9,238.8 761.0,238.6 762.1,239.4 763.2,239.3 764.3,239.1 765.4,237.0 766.5,236.7 767.6,236.5 768.6,236.3 769.7,236.0 770.8,234.2 771.9,233.9 773.0,233.5 774.1,232.8 775.2,232.5 776.3,232.1 777.4,231.8 778.5,232.8 779.6,232.5 780.7,232.2 781.8,232.0 782.9,230.3 784.0,230.0 785.1,229.6 786.2,229.3 787.2,227.0 788.3,226.5 789.4,226.1 790.5,225.6 791.6,225.1 792.7,225.9 793.8,225.5 794.9,225.1 796.0,246.7"/>
<text x="640" y="56" font-family="Arial" font-size="12" fill="#0f766e">position error</text>
<polyline fill="none" stroke="#2563eb" stroke-width="2.3" points="52.0,146.0 53.1,145.6 54.2,144.1 55.3,141.6 56.4,138.3 57.5,134.0 58.6,128.9 59.7,123.1 60.8,116.5 61.8,109.3 62.9,115.8 64.0,109.2 65.1,102.2 66.2,148.0 67.3,147.9 68.4,147.8 69.5,147.7 70.6,147.6 71.7,147.5 72.8,147.4 73.9,148.6 75.0,150.0 76.1,150.0 77.2,150.3 78.3,150.3 79.4,150.5 80.4,150.5 81.5,150.5 82.6,150.6 83.7,150.6 84.8,150.7 85.9,150.7 87.0,150.7 88.1,150.7 89.2,150.7 90.3,150.7 91.4,150.8 92.5,150.8 93.6,150.8 94.7,150.8 95.8,201.7 96.9,201.8 98.0,201.8 99.0,201.8 100.1,201.8 101.2,201.8 102.3,201.8 103.4,201.8 104.5,201.8 105.6,201.8 106.7,201.8 107.8,201.8 108.9,201.8 110.0,201.8 111.1,201.8 112.2,201.8 113.3,201.8 114.4,201.8 115.5,201.8 116.6,201.8 117.6,201.8 118.7,201.8 119.8,201.8 120.9,201.8 122.0,201.8 123.1,201.8 124.2,201.8 125.3,201.8 126.4,201.8 127.5,201.8 128.6,201.8 129.7,201.8 130.8,201.8 131.9,201.8 133.0,201.8 134.1,201.7 135.2,201.7 136.2,201.8 137.3,201.7 138.4,201.7 139.5,225.3 140.6,225.3 141.7,225.3 142.8,225.3 143.9,225.3 145.0,225.3 146.1,225.3 147.2,225.3 148.3,225.3 149.4,225.3 150.5,225.3 151.6,225.3 152.7,225.3 153.8,225.3 154.8,225.3 155.9,225.2 157.0,225.2 158.1,225.3 159.2,225.2 160.3,225.2 161.4,225.2 162.5,225.2 163.6,225.2 164.7,225.2 165.8,225.2 166.9,225.2 168.0,225.2 169.1,225.2 170.2,225.2 171.3,225.2 172.4,225.2 173.4,225.2 174.5,225.1 175.6,225.2 176.7,225.2 177.8,225.1 178.9,225.1 180.0,225.1 181.1,225.1 182.2,225.1 183.3,239.5 184.4,239.5 185.5,239.5 186.6,239.5 187.7,239.5 188.8,239.5 189.9,239.5 191.0,239.4 192.0,239.5 193.1,239.4 194.2,239.4 195.3,239.4 196.4,239.4 197.5,239.4 198.6,239.4 199.7,239.4 200.8,239.4 201.9,239.4 203.0,239.4 204.1,239.4 205.2,239.3 206.3,239.4 207.4,239.4 208.5,239.3 209.6,239.4 210.6,239.3 211.7,239.3 212.8,239.3 213.9,239.3 215.0,239.3 216.1,239.3 217.2,239.3 218.3,239.3 219.4,239.3 220.5,239.3 221.6,239.3 222.7,239.2 223.8,239.3 224.9,239.2 226.0,239.2 227.1,249.2 228.2,249.2 229.2,249.2 230.3,249.2 231.4,249.2 232.5,249.2 233.6,249.2 234.7,249.1 235.8,249.1 236.9,249.1 238.0,249.1 239.1,249.1 240.2,249.1 241.3,249.1 242.4,249.1 243.5,249.1 244.6,249.1 245.7,249.1 246.8,249.1 247.8,249.0 248.9,249.0 250.0,249.1 251.1,249.0 252.2,249.0 253.3,249.0 254.4,249.0 255.5,249.0 256.6,249.0 257.7,249.0 258.8,249.0 259.9,249.0 261.0,249.0 262.1,248.9 263.2,249.0 264.3,248.9 265.4,248.9 266.4,248.9 267.5,248.9 268.6,248.9 269.7,248.8 270.8,256.3 271.9,256.3 273.0,256.2 274.1,256.2 275.2,256.2 276.3,256.2 277.4,256.2 278.5,256.2 279.6,256.2 280.7,256.2 281.8,256.2 282.9,256.2 284.0,256.2 285.0,256.2 286.1,256.1 287.2,256.1 288.3,256.1 289.4,256.1 290.5,256.1 291.6,256.1 292.7,256.1 293.8,256.1 294.9,256.1 296.0,256.1 297.1,256.0 298.2,256.1 299.3,256.0 300.4,256.0 301.5,256.0 302.6,256.0 303.6,256.0 304.7,256.0 305.8,256.0 306.9,256.0 308.0,256.0 309.1,256.0 310.2,256.0 311.3,256.0 312.4,256.0 313.5,255.9 314.6,255.6 315.7,255.3 316.8,255.0 317.9,254.6 319.0,254.3 320.1,254.0 321.2,253.6 322.2,253.3 323.3,253.0 324.4,252.6 325.5,252.3 326.6,251.9 327.7,251.6 328.8,251.3 329.9,250.9 331.0,250.6 332.1,250.3 333.2,249.9 334.3,249.5 335.4,249.2 336.5,248.8 337.6,248.5 338.7,248.1 339.8,247.8 340.8,247.4 341.9,247.1 343.0,246.7 344.1,246.3 345.2,246.0 346.3,245.6 347.4,245.3 348.5,244.9 349.6,244.5 350.7,244.2 351.8,243.8 352.9,243.4 354.0,243.1 355.1,242.7 356.2,242.3 357.3,241.9 358.4,241.6 359.4,241.2 360.5,240.8 361.6,240.4 362.7,240.0 363.8,239.6 364.9,239.2 366.0,238.8 367.1,238.5 368.2,238.1 369.3,237.6 370.4,237.2 371.5,236.9 372.6,236.5 373.7,236.1 374.8,235.6 375.9,235.3 377.0,234.9 378.0,234.4 379.1,234.0 380.2,233.6 381.3,233.2 382.4,232.8 383.5,232.4 384.6,231.9 385.7,231.5 386.8,231.1 387.9,230.7 389.0,230.3 390.1,229.9 391.2,229.4 392.3,229.0 393.4,228.6 394.5,228.1 395.6,227.7 396.6,227.2 397.7,226.8 398.8,226.4 399.9,225.9 401.0,225.5 402.1,225.1 403.2,224.6 404.3,224.2 405.4,223.7 406.5,223.2 407.6,222.8 408.7,222.4 409.8,221.9 410.9,221.5 412.0,221.0 413.1,220.5 414.2,220.1 415.2,219.6 416.3,219.1 417.4,218.7 418.5,218.2 419.6,217.7 420.7,217.2 421.8,216.8 422.9,216.3 424.0,215.8 425.1,215.3 426.2,214.8 427.3,214.3 428.4,213.9 429.5,213.4 430.6,212.9 431.7,212.4 432.8,211.9 433.8,211.4 434.9,210.9 436.0,210.4 437.1,209.9 438.2,209.4 439.3,208.9 440.4,208.4 441.5,207.8 442.6,207.4 443.7,206.8 444.8,206.3 445.9,205.8 447.0,205.3 448.1,204.8 449.2,204.2 450.3,203.7 451.4,203.2 452.4,202.6 453.5,202.1 454.6,201.6 455.7,201.0 456.8,200.5 457.9,199.9 459.0,199.4 460.1,198.9 461.2,198.3 462.3,197.7 463.4,197.2 464.5,196.6 465.6,196.1 466.7,195.5 467.8,194.9 468.9,195.0 470.0,195.0 471.0,194.9 472.1,194.9 473.2,195.0 474.3,194.9 475.4,194.9 476.5,194.9 477.6,194.9 478.7,194.9 479.8,194.9 480.9,194.9 482.0,194.9 483.1,194.9 484.2,194.9 485.3,194.9 486.4,194.9 487.5,194.9 488.6,194.9 489.6,221.6 490.7,221.6 491.8,221.5 492.9,221.5 494.0,221.5 495.1,221.5 496.2,221.5 497.3,221.5 498.4,221.5 499.5,221.5 500.6,221.5 501.7,221.5 502.8,221.5 503.9,221.5 505.0,221.5 506.1,221.5 507.2,221.5 508.2,221.5 509.3,221.5 510.4,221.5 511.5,221.5 512.6,221.5 513.7,221.4 514.8,221.4 515.9,221.4 517.0,221.4 518.1,221.4 519.2,221.4 520.3,221.4 521.4,221.4 522.5,221.4 523.6,221.4 524.7,221.4 525.8,221.4 526.8,221.4 527.9,221.4 529.0,221.4 530.1,221.4 531.2,221.4 532.3,221.3 533.4,235.7 534.5,235.7 535.6,235.6 536.7,235.6 537.8,235.6 538.9,235.6 540.0,235.6 541.1,235.6 542.2,235.6 543.3,235.6 544.4,235.6 545.4,235.6 546.5,235.6 547.6,235.6 548.7,235.6 549.8,235.6 550.9,235.5 552.0,235.6 553.1,235.5 554.2,235.5 555.3,235.6 556.4,235.5 557.5,235.5 558.6,235.5 559.7,235.5 560.8,235.5 561.9,235.5 563.0,235.5 564.0,235.5 565.1,235.5 566.2,235.5 567.3,235.5 568.4,235.4 569.5,235.5 570.6,235.4 571.7,235.4 572.8,235.4 573.9,235.4 575.0,235.4 576.1,235.4 577.2,246.5 578.3,246.4 579.4,246.4 580.5,246.4 581.6,246.4 582.6,246.4 583.7,246.4 584.8,246.4 585.9,246.3 587.0,246.4 588.1,246.3 589.2,246.3 590.3,246.3 591.4,246.3 592.5,246.3 593.6,246.3 594.7,246.3 595.8,246.3 596.9,246.3 598.0,246.3 599.1,246.2 600.2,246.3 601.2,246.3 602.3,246.2 603.4,246.2 604.5,246.2 605.6,246.2 606.7,246.2 607.8,246.2 608.9,246.2 610.0,246.2 611.1,246.2 612.2,246.2 613.3,246.2 614.4,246.2 615.5,246.2 616.6,246.2 617.7,246.2 618.8,246.1 619.8,246.1 620.9,254.3 622.0,254.2 623.1,254.2 624.2,254.2 625.3,254.2 626.4,254.2 627.5,254.1 628.6,254.1 629.7,254.1 630.8,254.1 631.9,254.1 633.0,254.1 634.1,254.1 635.2,254.0 636.3,254.0 637.4,254.0 638.4,254.0 639.5,254.0 640.6,254.0 641.7,254.0 642.8,254.0 643.9,254.0 645.0,254.0 646.1,253.9 647.2,254.0 648.3,254.0 649.4,253.9 650.5,253.9 651.6,253.9 652.7,253.9 653.8,253.9 654.9,253.9 656.0,253.9 657.0,253.9 658.1,253.9 659.2,253.8 660.3,253.8 661.4,253.9 662.5,253.8 663.6,253.8 664.7,260.2 665.8,260.2 666.9,260.1 668.0,260.1 669.1,260.1 670.2,260.1 671.3,260.1 672.4,260.1 673.5,260.1 674.6,260.1 675.6,260.1 676.7,260.1 677.8,260.0 678.9,260.1 680.0,260.0 681.1,260.0 682.2,260.0 683.3,260.0 684.4,260.0 685.5,260.0 686.6,260.0 687.7,260.0 688.8,260.0 689.9,260.0 691.0,259.9 692.1,260.0 693.2,259.9 694.2,259.9 695.3,259.9 696.4,259.9 697.5,259.9 698.6,259.9 699.7,259.9 700.8,259.9 701.9,259.9 703.0,259.9 704.1,259.8 705.2,259.8 706.3,259.8 707.4,259.8 708.5,265.0 709.6,264.9 710.7,264.9 711.8,264.9 712.8,264.9 713.9,264.9 715.0,264.9 716.1,264.9 717.2,264.8 718.3,264.9 719.4,264.8 720.5,264.8 721.6,264.8 722.7,264.8 723.8,264.8 724.9,264.8 726.0,264.8 727.1,264.8 728.2,264.8 729.3,264.7 730.4,264.8 731.4,264.8 732.5,264.7 733.6,264.7 734.7,264.7 735.8,264.7 736.9,264.7 738.0,264.7 739.1,264.6 740.2,264.7 741.3,264.6 742.4,264.6 743.5,264.6 744.6,264.6 745.7,264.6 746.8,264.6 747.9,264.6 749.0,264.6 750.0,264.6 751.1,264.6 752.2,268.8 753.3,268.8 754.4,268.8 755.5,268.8 756.6,268.8 757.7,268.8 758.8,268.8 759.9,268.7 761.0,268.7 762.1,268.7 763.2,268.7 764.3,268.7 765.4,268.7 766.5,268.7 767.6,268.7 768.6,268.6 769.7,268.6 770.8,268.7 771.9,268.6 773.0,268.6 774.1,268.6 775.2,268.6 776.3,268.6 777.4,268.6 778.5,268.6 779.6,268.6 780.7,268.6 781.8,268.5 782.9,268.6 784.0,268.5 785.1,268.5 786.2,268.5 787.2,268.5 788.3,268.5 789.4,268.5 790.5,268.5 791.6,268.4 792.7,268.4 793.8,268.4 794.9,268.4 796.0,272.1"/>
<text x="640" y="72" font-family="Arial" font-size="12" fill="#2563eb">sqrt trace Ppos</text>
</svg>