<svg xmlns="http://www.w3.org/2000/svg" width="820" height="320" viewBox="0 0 820 320">
<rect width="100%" height="100%" fill="white"/>
<text x="52" y="30" font-family="Arial" font-size="18" font-weight="700">dropout_robust covariance trace</text>
<line x1="52" y1="274" x2="796" y2="274" stroke="#263238"/>
<line x1="52" y1="42" x2="52" y2="274" stroke="#263238"/>
<text x="52" y="306" font-family="Arial" font-size="12">time (s)</text>
<text x="630" y="306" font-family="Arial" font-size="12">sqrt trace P</text>

<polyline fill="none" stroke="#0f766e" stroke-width="2.3" points="52.0,108.0 53.1,107.2 54.2,105.0 55.3,101.3 56.4,96.2 57.5,89.7 58.6,82.1 59.7,73.3 60.8,63.5 61.8,52.7 62.9,62.4 64.0,52.5 65.1,42.0 66.2,111.3 67.3,111.3 68.4,111.2 69.5,111.2 70.6,111.1 71.7,111.1 72.8,111.0 73.9,112.4 75.0,114.0 76.1,114.0 77.2,114.5 78.3,114.5 79.4,114.8 80.4,114.8 81.5,114.8 82.6,114.9 83.7,114.9 84.8,115.0 85.9,115.0 87.0,115.0 88.1,115.1 89.2,115.1 90.3,115.1 91.4,115.2 92.5,115.2 93.6,115.2 94.7,115.2 95.8,178.4 96.9,178.5 98.0,178.5 99.0,178.5 100.1,178.5 101.2,178.5 102.3,178.5 103.4,178.5 104.5,178.5 105.6,178.5 106.7,178.5 107.8,178.5 108.9,178.5 110.0,178.5 111.1,178.5 112.2,178.5 113.3,178.5 114.4,178.5 115.5,178.5 116.6,178.5 117.6,178.5 118.7,178.5 119.8,178.5 120.9,178.5 122.0,178.5 123.1,178.5 124.2,178.5 125.3,178.5 126.4,178.5 127.5,178.5 128.6,178.5 129.7,178.5 130.8,178.5 131.9,178.5 133.0,178.5 134.1,178.4 135.2,178.4 136.2,178.5 137.3,178.5 138.4,178.4 139.5,209.6 140.6,209.6 141.7,209.6 142.8,209.6 143.9,209.6 145.0,209.6 146.1,209.6 147.2,209.6 148.3,209.6 149.4,209.6 150.5,209.6 151.6,209.6 152.7,209.5 153.8,209.6 154.8,209.5 155.9,209.5 157.0,209.5 158.1,209.5 159.2,209.5 160.3,209.5 161.4,209.5 162.5,209.5 163.6,209.5 164.7,209.5 165.8,209.4 166.9,209.5 168.0,209.5 169.1,209.4 170.2,209.5 171.3,209.4 172.4,209.4 173.4,209.4 174.5,209.4 175.6,209.4 176.7,209.4 177.8,209.4 178.9,209.3 180.0,209.4 181.1,209.4 182.2,209.3 183.3,228.8 184.4,228.8 185.5,228.8 186.6,228.8 187.7,228.8 188.8,228.8 189.9,228.8 191.0,228.8 192.0,228.8 193.1,228.8 194.2,228.7 195.3,228.7 196.4,228.7 197.5,228.7 198.6,228.7 199.7,228.7 200.8,228.7 201.9,228.7 203.0,228.7 204.1,228.6 205.2,228.6 206.3,228.6 207.4,228.6 208.5,228.6 209.6,228.6 210.6,228.6 211.7,228.6 212.8,228.5 213.9,228.5 215.0,228.6 216.1,228.5 217.2,228.5 218.3,228.5 219.4,228.5 220.5,228.5 221.6,228.5 222.7,228.4 223.8,228.5 224.9,228.5 226.0,228.4 227.1,242.1 228.2,242.1 229.2,242.1 230.3,242.1 231.4,242.1 232.5,242.1 233.6,242.1 234.7,242.1 235.8,242.0 236.9,242.0 238.0,242.0 239.1,242.0 240.2,242.0 241.3,242.0 242.4,242.0 243.5,242.0 244.6,241.9 245.7,242.0 246.8,241.9 247.8,241.9 248.9,241.9 250.0,241.9 251.1,241.9 252.2,241.9 253.3,241.8 254.4,241.9 255.5,241.9 256.6,241.8 257.7,241.9 258.8,241.8 259.9,241.8 261.0,241.8 262.1,241.7 263.2,241.8 264.3,241.8 265.4,241.7 266.4,241.7 267.5,241.7 268.6,241.6 269.7,241.6 270.8,251.9 271.9,251.9 273.0,251.8 274.1,251.8 275.2,251.8 276.3,251.8 277.4,251.8 278.5,251.8 279.6,251.8 280.7,251.8 281.8,251.8 282.9,251.7 284.0,251.8 285.0,251.8 286.1,251.7 287.2,251.7 288.3,251.7 289.4,251.7 290.5,251.7 291.6,251.6 292.7,251.7 293.8,251.7 294.9,251.6 296.0,251.6 297.1,251.6 298.2,251.6 299.3,251.6 300.4,251.5 301.5,251.5 302.6,251.6 303.6,251.5 304.7,251.5 305.8,251.5 306.9,251.5 308.0,251.5 309.1,251.5 310.2,251.5 311.3,251.5 312.4,251.4 313.5,251.4 314.6,251.0 315.7,250.5 316.8,250.0 317.9,249.6 319.0,249.1 320.1,248.7 321.2,248.2 322.2,247.7 323.3,247.2 324.4,246.7 325.5,246.3 326.6,245.7 327.7,245.3 328.8,244.8 329.9,244.3 331.0,243.8 332.1,243.4 333.2,242.8 334.3,242.3 335.4,241.8 336.5,241.3 337.6,240.9 338.7,240.3 339.8,239.8 340.8,239.4 341.9,238.8 343.0,238.3 344.1,237.8 345.2,237.2 346.3,236.8 347.4,236.3 348.5,235.7 349.6,235.2 350.7,234.7 351.8,234.1 352.9,233.6 354.0,233.1 355.1,232.6 356.2,232.0 357.3,231.5 358.4,231.0 359.4,230.4 360.5,229.9 361.6,229.3 362.7,228.7 363.8,228.2 364.9,227.7 366.0,227.1 367.1,226.6 368.2,226.0 369.3,225.4 370.4,224.9 371.5,224.3 372.6,223.8 373.7,223.2 374.8,222.6 375.9,222.1 377.0,221.5 378.0,220.9 379.1,220.3 380.2,219.7 381.3,219.1 382.4,218.5 383.5,217.9 384.6,217.3 385.7,216.8 386.8,216.2 387.9,215.5 389.0,214.9 390.1,214.4 391.2,213.8 392.3,213.1 393.4,212.5 394.5,211.9 395.6,211.3 396.6,210.7 397.7,210.0 398.8,209.4 399.9,208.8 401.0,208.1 402.1,207.6 403.2,206.9 404.3,206.3 405.4,205.6 406.5,205.0 407.6,204.4 408.7,203.7 409.8,203.0 410.9,202.4 412.0,201.8 413.1,201.1 414.2,200.4 415.2,199.8 416.3,199.1 417.4,198.5 418.5,197.8 419.6,197.1 420.7,196.4 421.8,195.8 422.9,195.1 424.0,194.4 425.1,193.7 426.2,193.0 427.3,192.3 428.4,191.7 429.5,190.9 430.6,190.2 431.7,189.5 432.8,188.9 433.8,188.1 434.9,187.4 436.0,186.7 437.1,186.0 438.2,185.3 439.3,184.6 440.4,183.8 441.5,183.1 442.6,182.4 443.7,181.6 444.8,180.9 445.9,180.2 447.0,179.4 448.1,178.7 449.2,177.9 450.3,177.2 451.4,176.5 452.4,175.7 453.5,174.9 454.6,174.2 455.7,173.4 456.8,172.6 457.9,171.8 459.0,171.0 460.1,170.3 461.2,169.5 462.3,168.7 463.4,167.9 464.5,167.2 465.6,166.4 466.7,165.6 467.8,164.8 468.9,164.8 470.0,164.8 471.0,164.7 472.1,164.7 473.2,164.8 474.3,164.7 475.4,164.7 476.5,164.7 477.6,164.7 478.7,164.7 479.8,164.7 480.9,164.7 482.0,164.7 483.1,164.7 484.2,164.7 485.3,164.7 486.4,164.7 487.5,164.7 488.6,164.7 489.6,202.0 490.7,202.0 491.8,202.0 492.9,202.0 494.0,202.0 495.1,201.9 496.2,201.9 497.3,201.9 498.4,201.9 499.5,201.9 500.6,201.9 501.7,201.9 502.8,201.9 503.9,201.9 505.0,201.9 506.1,201.9 507.2,201.9 508.2,201.9 509.3,201.9 510.4,201.8 511.5,201.9 512.6,201.8 513.7,201.8 514.8,201.8 515.9,201.8 517.0,201.8 518.1,201.8 519.2,201.8 520.3,201.8 521.4,201.8 522.5,201.8 523.6,201.7 524.7,201.8 525.8,201.7 526.8,201.7 527.9,201.7 529.0,201.7 530.1,201.7 531.2,201.7 532.3,201.7 533.4,223.8 534.5,223.8 535.6,223.8 536.7,223.8 537.8,223.8 538.9,223.8 540.0,223.8 541.1,223.7 542.2,223.7 543.3,223.7 544.4,223.7 545.4,223.7 546.5,223.7 547.6,223.7 548.7,223.7 549.8,223.7 550.9,223.6 552.0,223.7 553.1,223.7 554.2,223.6 555.3,223.7 556.4,223.6 557.5,223.6 558.6,223.6 559.7,223.6 560.8,223.6 561.9,223.6 563.0,223.6 564.0,223.6 565.1,223.6 566.2,223.5 567.3,223.5 568.4,223.5 569.5,223.5 570.6,223.5 571.7,223.5 572.8,223.4 573.9,223.5 575.0,223.5 576.1,223.4 577.2,238.5 578.3,238.5 579.4,238.5 580.5,238.4 581.6,238.4 582.6,238.4 583.7,238.4 584.8,238.4 585.9,238.3 587.0,238.4 588.1,238.4 589.2,238.3 590.3,238.3 591.4,238.3 592.5,238.3 593.6,238.3 594.7,238.3 595.8,238.3 596.9,238.3 598.0,238.2 599.1,238.2 600.2,238.3 601.2,238.2 602.3,238.2 603.4,238.2 604.5,238.2 605.6,238.2 606.7,238.2 607.8,238.2 608.9,238.2 610.0,238.1 611.1,238.1 612.2,238.1 613.3,238.1 614.4,238.1 615.5,238.1 616.6,238.1 617.7,238.1 618.8,238.1 619.8,238.0 620.9,249.2 622.0,249.2 623.1,249.2 624.2,249.1 625.3,249.1 626.4,249.1 627.5,249.0 628.6,249.0 629.7,248.9 630.8,249.0 631.9,249.0 633.0,249.0 634.1,248.9 635.2,248.9 636.3,248.8 637.4,248.8 638.4,248.9 639.5,248.8 640.6,248.8 641.7,248.8 642.8,248.9 643.9,248.8 645.0,248.8 646.1,248.7 647.2,248.8 648.3,248.8 649.4,248.7 650.5,248.7 651.6,248.8 652.7,248.7 653.8,248.7 654.9,248.7 656.0,248.6 657.0,248.7 658.1,248.7 659.2,248.6 660.3,248.6 661.4,248.6 662.5,248.6 663.6,248.6 664.7,257.4 665.8,257.4 666.9,257.4 668.0,257.3 669.1,257.4 670.2,257.4 671.3,257.3 672.4,257.3 673.5,257.3 674.6,257.3 675.6,257.3 676.7,257.2 677.8,257.2 678.9,257.3 680.0,257.2 681.1,257.2 682.2,257.2 683.3,257.2 684.4,257.2 685.5,257.1 686.6,257.2 687.7,257.2 688.8,257.1 689.9,257.1 691.0,257.1 692.1,257.1 693.2,257.1 694.2,257.0 695.3,257.1 696.4,257.0 697.5,257.0 698.6,257.0 699.7,257.0 700.8,257.0 701.9,257.0 703.0,256.9 704.1,256.9 705.2,256.9 706.3,256.9 707.4,256.9 708.5,264.1 709.6,264.0 710.7,264.0 711.8,264.0 712.8,264.0 713.9,264.0 715.0,264.0 716.1,263.9 717.2,263.9 718.3,263.9 719.4,263.9 720.5,263.9 721.6,263.8 722.7,263.9 723.8,263.8 724.9,263.8 726.0,263.8 727.1,263.8 728.2,263.8 729.3,263.8 730.4,263.8 731.4,263.8 732.5,263.7 733.6,263.7 734.7,263.7 735.8,263.7 736.9,263.7 738.0,263.6 739.1,263.6 740.2,263.7 741.3,263.6 742.4,263.6 743.5,263.6 744.6,263.6 745.7,263.6 746.8,263.5 747.9,263.6 749.0,263.5 750.0,263.5 751.1,263.5 752.2,269.4 753.3,269.5 754.4,269.4 755.5,269.4 756.6,269.4 757.7,269.4 758.8,269.4 759.9,269.3 761.0,269.3 762.1,269.3 763.2,269.3 764.3,269.3 765.4,269.3 766.5,269.3 767.6,269.3 768.6,269.2 769.7,269.2 770.8,269.2 771.9,269.2 773.0,269.2 774.1,269.2 775.2,269.2 776.3,269.1 777.4,269.1 778.5,269.1 779.6,269.1 780.7,269.1 781.8,269.0 782.9,269.1 784.0,269.0 785.1,269.0 786.2,269.0 787.2,269.0 788.3,269.0 789.4,269.0 790.5,268.9 791.6,268.9 792.7,268.9 793.8,268.9 794.9,268.9 796.0,274.0"/>
<text x="640" y="56" font-family="Arial" font-size="12" fill="#0f766e">dropout_robust covariance trace</text>
</svg>