<svg xmlns="http://www.w3.org/2000/svg" width="820" height="320" viewBox="0 0 820 320">
<rect width="100%" height="100%" fill="white"/>
<text x="52" y="30" font-family="Arial" font-size="18" font-weight="700">dropout_robust position error</text>
<line x1="52" y1="274" x2="796" y2="274" stroke="#263238"/>
<line x1="52" y1="42" x2="52" y2="274" stroke="#263238"/>
<text x="52" y="306" font-family="Arial" font-size="12">time (s)</text>
<text x="630" y="306" font-family="Arial" font-size="12">m</text>

<rect x="314.6" y="42" width="153.2" height="232" fill="#fef3c7" opacity="0.72"/>
<polyline fill="none" stroke="#0f766e" stroke-width="2.3" points="52.0,49.4 53.1,48.7 54.2,48.0 55.3,47.3 56.4,46.6 57.5,45.9 58.6,45.2 59.7,44.5 60.8,43.8 61.8,43.1 62.9,45.7 64.0,45.1 65.1,44.4 66.2,47.2 67.3,46.8 68.4,46.4 69.5,46.1 70.6,45.7 71.7,45.3 72.8,44.9 73.9,44.9 75.0,46.1 76.1,45.8 77.2,45.7 78.3,45.8 79.4,45.5 80.4,45.2 81.5,45.0 82.6,44.7 83.7,44.5 84.8,44.3 85.9,44.1 87.0,44.0 88.1,43.8 89.2,43.5 90.3,43.3 91.4,43.1 92.5,43.2 93.6,42.6 94.7,42.0 95.8,146.8 96.9,146.4 98.0,146.0 99.0,145.5 100.1,145.0 101.2,144.6 102.3,144.1 103.4,143.7 104.5,143.2 105.6,142.9 106.7,142.4 107.8,142.0 108.9,141.8 110.0,141.4 111.1,141.0 112.2,140.7 113.3,140.3 114.4,139.4 115.5,138.9 116.6,138.4 117.6,137.9 118.7,136.8 119.8,136.2 120.9,135.6 122.0,135.8 123.1,135.4 124.2,134.9 125.3,134.4 126.4,133.9 127.5,133.5 128.6,132.9 129.7,132.5 130.8,132.0 131.9,131.4 133.0,130.9 134.1,130.4 135.2,130.0 136.2,130.8 137.3,130.4 138.4,130.1 139.5,151.2 140.6,150.7 141.7,150.2 142.8,149.6 143.9,149.1 145.0,149.3 146.1,148.8 147.2,148.3 148.3,147.9 149.4,147.3 150.5,146.9 151.6,146.4 152.7,145.9 153.8,145.9 154.8,145.5 155.9,145.1 157.0,144.7 158.1,144.4 159.2,143.9 160.3,143.5 161.4,143.1 162.5,142.6 163.6,142.2 164.7,141.7 165.8,141.3 166.9,140.5 168.0,140.1 169.1,139.6 170.2,139.9 171.3,139.5 172.4,139.1 173.4,138.7 174.5,138.3 175.6,138.9 176.7,138.6 177.8,138.2 178.9,137.9 180.0,137.2 181.1,136.9 182.2,136.5 183.3,196.3 184.4,196.5 185.5,196.3 186.6,196.0 187.7,195.8 188.8,195.9 189.9,195.7 191.0,195.5 192.0,194.5 193.1,194.3 194.2,194.0 195.3,193.8 196.4,193.0 197.5,192.7 198.6,192.5 199.7,192.2 200.8,192.5 201.9,192.3 203.0,192.1 204.1,191.9 205.2,191.7 206.3,190.3 207.4,190.0 208.5,189.7 209.6,190.0 210.6,189.7 211.7,189.5 212.8,189.3 213.9,189.0 215.0,188.5 216.1,188.2 217.2,188.0 218.3,187.5 219.4,187.2 220.5,186.9 221.6,186.6 222.7,186.3 223.8,185.4 224.9,185.0 226.0,184.7 227.1,203.5 228.2,202.4 229.2,202.0 230.3,201.6 231.4,201.4 232.5,201.0 233.6,200.6 234.7,200.2 235.8,199.8 236.9,200.5 238.0,200.2 239.1,199.9 240.2,199.6 241.3,199.8 242.4,199.5 243.5,199.3 244.6,199.0 245.7,197.6 246.8,197.3 247.8,196.9 248.9,196.6 250.0,196.6 251.1,196.2 252.2,196.0 253.3,195.7 254.4,195.2 255.5,194.9 256.6,194.6 257.7,195.1 258.8,194.9 259.9,194.6 261.0,194.4 262.1,194.1 263.2,193.8 264.3,193.5 265.4,193.3 266.4,193.0 267.5,192.8 268.6,192.5 269.7,192.3 270.8,194.4 271.9,194.1 273.0,193.9 274.1,193.7 275.2,193.4 276.3,192.5 277.4,192.2 278.5,192.0 279.6,192.2 280.7,192.0 281.8,191.8 282.9,191.5 284.0,191.7 285.0,191.5 286.1,191.3 287.2,191.1 288.3,190.9 289.4,190.9 290.5,190.7 291.6,190.5 292.7,188.0 293.8,187.7 294.9,187.4 296.0,187.1 297.1,186.8 298.2,184.8 299.3,184.4 300.4,184.0 301.5,183.6 302.6,183.9 303.6,183.6 304.7,183.2 305.8,182.8 306.9,182.4 308.0,182.1 309.1,181.7 310.2,182.0 311.3,181.7 312.4,181.4 313.5,181.1 314.6,182.3 315.7,182.1 316.8,181.8 317.9,181.6 319.0,179.1 320.1,178.8 321.2,178.4 322.2,178.1 323.3,180.2 324.4,180.0 325.5,179.8 326.6,179.6 327.7,179.1 328.8,178.8 329.9,178.6 331.0,178.4 332.1,176.6 333.2,176.3 334.3,175.9 335.4,175.6 336.5,175.3 337.6,175.2 338.7,174.9 339.8,174.6 340.8,174.4 341.9,174.0 343.0,173.7 344.1,173.4 345.2,173.0 346.3,171.9 347.4,171.5 348.5,171.1 349.6,172.9 350.7,172.6 351.8,172.4 352.9,172.1 354.0,170.1 355.1,169.7 356.2,169.3 357.3,168.9 358.4,171.3 359.4,171.0 360.5,170.8 361.6,170.5 362.7,170.3 363.8,168.9 364.9,168.6 366.0,168.3 367.1,167.7 368.2,167.4 369.3,167.1 370.4,166.8 371.5,165.0 372.6,164.5 373.7,164.1 374.8,163.8 375.9,162.8 377.0,162.3 378.0,161.9 379.1,161.5 380.2,161.0 381.3,160.9 382.4,160.5 383.5,160.1 384.6,159.7 385.7,158.9 386.8,158.5 387.9,158.1 389.0,157.7 390.1,158.4 391.2,158.1 392.3,157.7 393.4,156.3 394.5,155.9 395.6,155.5 396.6,155.1 397.7,154.7 398.8,154.2 399.9,153.8 401.0,153.4 402.1,153.4 403.2,153.0 404.3,152.6 405.4,152.3 406.5,151.9 407.6,153.3 408.7,153.0 409.8,152.7 410.9,151.6 412.0,151.3 413.1,151.0 414.2,150.6 415.2,150.4 416.3,150.1 417.4,149.8 418.5,149.5 419.6,149.9 420.7,149.7 421.8,149.4 422.9,149.1 424.0,149.0 425.1,148.8 426.2,148.5 427.3,148.3 428.4,148.2 429.5,147.9 430.6,147.7 431.7,147.5 432.8,145.9 433.8,145.6 434.9,145.2 436.0,144.9 437.1,145.1 438.2,144.9 439.3,144.6 440.4,144.3 441.5,144.0 442.6,144.5 443.7,144.2 444.8,144.0 445.9,141.1 447.0,140.7 448.1,140.4 449.2,140.0 450.3,138.3 451.4,137.9 452.4,137.4 453.5,136.9 454.6,137.5 455.7,137.1 456.8,136.7 457.9,136.3 459.0,135.9 460.1,136.3 461.2,136.0 462.3,135.6 463.4,135.2 464.5,134.3 465.6,133.9 466.7,133.5 467.8,133.1 468.9,132.0 470.0,131.5 471.0,131.1 472.1,130.7 473.2,129.9 474.3,129.5 475.4,129.0 476.5,130.0 477.6,129.7 478.7,129.3 479.8,129.0 480.9,129.5 482.0,129.2 483.1,129.0 484.2,128.7 485.3,128.2 486.4,128.0 487.5,127.7 488.6,127.4 489.6,199.9 490.7,200.1 491.8,199.9 492.9,199.7 494.0,198.7 495.1,198.4 496.2,198.1 497.3,197.8 498.4,198.0 499.5,197.7 500.6,197.3 501.7,197.1 502.8,196.7 503.9,196.3 505.0,196.1 506.1,195.8 507.2,195.5 508.2,194.7 509.3,194.4 510.4,194.1 511.5,193.7 512.6,193.4 513.7,193.0 514.8,192.6 515.9,191.5 517.0,191.0 518.1,190.6 519.2,190.2 520.3,189.8 521.4,190.6 522.5,190.3 523.6,190.0 524.7,189.7 525.8,189.4 526.8,189.1 527.9,188.7 529.0,189.3 530.1,189.1 531.2,188.8 532.3,188.5 533.4,255.4 534.5,255.2 535.6,254.9 536.7,254.7 537.8,254.5 538.9,255.0 540.0,254.9 541.1,254.7 542.2,254.5 543.3,253.8 544.4,253.6 545.4,253.4 546.5,253.1 547.6,252.9 548.7,252.7 549.8,252.5 550.9,252.3 552.0,249.9 553.1,249.5 554.2,249.1 555.3,248.6 556.4,248.3 557.5,247.9 558.6,247.5 559.7,247.0 560.8,246.7 561.9,246.3 563.0,245.8 564.0,245.3 565.1,244.9 566.2,244.5 567.3,244.1 568.4,243.8 569.5,243.5 570.6,243.1 571.7,242.7 572.8,242.4 573.9,242.5 575.0,242.2 576.1,241.9 577.2,274.0 578.3,273.7 579.4,273.3 580.5,273.0 581.6,272.7 582.6,273.6 583.7,273.3 584.8,273.1 585.9,272.8 587.0,271.7 588.1,271.4 589.2,271.1 590.3,270.8 591.4,270.0 592.5,269.6 593.6,269.3 594.7,268.9 595.8,268.2 596.9,267.8 598.0,267.4 599.1,267.1 600.2,266.4 601.2,266.0 602.3,265.7 603.4,265.3 604.5,265.9 605.6,265.6 606.7,265.2 607.8,265.0 608.9,264.6 610.0,264.4 611.1,264.0 612.2,263.7 613.3,264.3 614.4,264.0 615.5,263.8 616.6,263.5 617.7,263.3 618.8,263.0 619.8,262.8 620.9,264.5 622.0,264.2 623.1,263.9 624.2,263.7 625.3,263.4 626.4,263.1 627.5,262.8 628.6,262.6 629.7,262.3 630.8,262.8 631.9,262.5 633.0,262.3 634.1,262.0 635.2,261.7 636.3,261.4 637.4,261.2 638.4,258.7 639.5,258.3 640.6,257.9 641.7,257.6 642.8,259.0 643.9,258.7 645.0,258.4 646.1,258.2 647.2,256.7 648.3,256.5 649.4,256.2 650.5,255.8 651.6,254.7 652.7,254.2 653.8,253.8 654.9,253.4 656.0,253.0 657.0,251.3 658.1,250.8 659.2,250.3 660.3,249.8 661.4,251.0 662.5,250.7 663.6,250.3 664.7,247.9 665.8,247.7 666.9,247.4 668.0,247.1 669.1,246.6 670.2,246.1 671.3,245.7 672.4,245.4 673.5,244.8 674.6,244.4 675.6,244.2 676.7,243.8 677.8,243.4 678.9,242.9 680.0,242.5 681.1,242.2 682.2,241.8 683.3,243.0 684.4,242.7 685.5,242.4 686.6,242.3 687.7,242.0 688.8,241.6 689.9,241.4 691.0,241.1 692.1,239.9 693.2,239.7 694.2,239.3 695.3,239.3 696.4,239.0 697.5,238.6 698.6,238.4 699.7,237.7 700.8,237.4 701.9,237.1 703.0,236.8 704.1,236.4 705.2,235.9 706.3,235.6 707.4,235.3 708.5,240.5 709.6,240.2 710.7,239.9 711.8,239.7 712.8,238.4 713.9,238.1 715.0,237.7 716.1,237.3 717.2,237.0 718.3,237.3 719.4,237.0 720.5,236.7 721.6,236.3 722.7,235.6 723.8,235.2 724.9,234.9 726.0,235.2 727.1,234.9 728.2,234.6 729.3,234.3 730.4,233.5 731.4,233.2 732.5,232.9 733.6,232.6 734.7,232.1 735.8,231.8 736.9,231.5 738.0,231.1 739.1,230.8 740.2,231.8 741.3,231.6 742.4,231.3 743.5,231.1 744.6,229.5 745.7,229.2 746.8,228.8 747.9,230.4 749.0,230.2 750.0,230.0 751.1,229.8 752.2,240.3 753.3,239.9 754.4,239.6 755.5,239.4 756.6,240.5 757.7,240.3 758.8,240.2 759.9,240.0 761.0,239.9 762.1,240.6 763.2,240.5 764.3,240.4 765.4,238.1 766.5,237.9 767.6,237.7 768.6,237.5 769.7,237.2 770.8,235.5 771.9,235.2 773.0,234.9 774.1,234.3 775.2,234.0 776.3,233.6 777.4,233.3 778.5,234.2 779.6,233.9 780.7,233.7 781.8,233.4 782.9,231.8 784.0,231.5 785.1,231.2 786.2,230.8 787.2,228.7 788.3,228.3 789.4,227.8 790.5,227.4 791.6,227.0 792.7,227.7 793.8,227.4 794.9,227.0 796.0,246.9"/>
<text x="640" y="56" font-family="Arial" font-size="12" fill="#0f766e">dropout_robust position error</text>
</svg>