<svg xmlns="http://www.w3.org/2000/svg" width="820" height="320" viewBox="0 0 820 320">
<rect width="100%" height="100%" fill="white"/>
<text x="52" y="30" font-family="Arial" font-size="18" font-weight="700">robust_nominal NEES proxy</text>
<line x1="52" y1="274" x2="796" y2="274" stroke="#263238"/>
<line x1="52" y1="42" x2="52" y2="274" stroke="#263238"/>
<text x="52" y="306" font-family="Arial" font-size="12">time (s)</text>
<text x="630" y="306" font-family="Arial" font-size="12">value</text>

<rect x="314.6" y="42" width="153.2" height="232" fill="#fef3c7" opacity="0.72"/>
<polyline fill="none" stroke="#0f766e" stroke-width="2.3" points="52.0,209.5 53.1,211.9 54.2,218.2 55.3,225.8 56.4,233.3 57.5,240.0 58.6,245.9 59.7,251.3 60.8,256.1 61.8,260.6 62.9,264.3 64.0,269.6 65.1,274.0 66.2,227.6 67.3,229.1 68.4,230.5 69.5,231.7 70.6,232.9 71.7,233.9 72.8,234.9 73.9,230.6 75.0,227.3 76.1,227.7 77.2,242.8 78.3,242.2 79.4,243.6 80.4,243.5 81.5,243.4 82.6,244.9 83.7,244.8 84.8,244.3 85.9,244.3 87.0,244.0 88.1,244.0 89.2,243.8 90.3,243.6 91.4,242.2 92.5,241.7 93.6,243.1 94.7,242.5 95.8,263.8 96.9,264.1 98.0,263.8 99.0,263.4 100.1,262.6 101.2,262.3 102.3,262.1 103.4,261.8 104.5,261.4 105.6,261.5 106.7,260.9 107.8,260.8 108.9,259.5 110.0,260.2 111.1,259.9 112.2,259.6 113.3,259.1 114.4,258.0 115.5,257.5 116.6,257.0 117.6,255.6 118.7,254.9 119.8,254.3 120.9,248.5 122.0,247.6 123.1,249.7 124.2,248.9 125.3,248.2 126.4,244.7 127.5,241.7 128.6,229.1 129.7,227.9 130.8,226.7 131.9,218.3 133.0,217.1 134.1,216.0 135.2,217.1 136.2,227.5 137.3,229.5 138.4,229.2 139.5,206.4 140.6,214.2 141.7,214.0 142.8,207.7 143.9,207.7 145.0,205.6 146.1,201.9 147.2,202.0 148.3,208.2 149.4,212.5 150.5,213.0 151.6,213.1 152.7,213.3 153.8,204.2 154.8,204.5 155.9,204.8 157.0,210.2 158.1,213.6 159.2,213.8 160.3,212.9 161.4,219.3 162.5,217.6 163.6,217.6 164.7,218.3 165.8,218.1 166.9,215.2 168.0,215.0 169.1,214.8 170.2,213.3 171.3,213.1 172.4,215.0 173.4,214.7 174.5,214.4 175.6,214.7 176.7,214.5 177.8,214.5 178.9,214.2 180.0,213.0 181.1,212.6 182.2,212.3 183.3,243.6 184.4,242.9 185.5,242.7 186.6,242.9 187.7,242.7 188.8,243.7 189.9,243.2 191.0,243.1 192.0,239.1 193.1,238.9 194.2,234.5 195.3,231.1 196.4,231.1 197.5,234.3 198.6,234.2 199.7,234.1 200.8,232.4 201.9,233.1 203.0,232.9 204.1,232.8 205.2,234.6 206.3,232.2 207.4,232.0 208.5,231.9 209.6,232.0 210.6,231.9 211.7,235.3 212.8,235.1 213.9,235.5 215.0,233.6 216.1,235.3 217.2,234.8 218.3,234.8 219.4,234.6 220.5,234.4 221.6,234.0 222.7,233.7 223.8,232.3 224.9,232.3 226.0,232.0 227.1,242.2 228.2,240.5 229.2,240.1 230.3,239.7 231.4,238.8 232.5,237.2 233.6,236.8 234.7,236.8 235.8,236.4 236.9,234.5 238.0,233.2 239.1,231.4 240.2,231.0 241.3,228.8 242.4,228.3 243.5,227.8 244.6,227.4 245.7,225.1 246.8,226.2 247.8,225.7 248.9,227.5 250.0,227.9 251.1,227.4 252.2,229.0 253.3,228.6 254.4,227.7 255.5,228.7 256.6,228.4 257.7,225.0 258.8,224.6 259.9,222.4 261.0,222.1 262.1,222.0 263.2,219.7 264.3,219.5 265.4,219.3 266.4,219.8 267.5,219.6 268.6,222.0 269.7,221.8 270.8,201.5 271.9,201.2 273.0,201.0 274.1,202.3 275.2,202.0 276.3,199.7 277.4,199.7 278.5,199.5 279.6,199.7 280.7,199.5 281.8,200.3 282.9,200.0 284.0,199.5 285.0,199.9 286.1,199.6 287.2,199.3 288.3,198.7 289.4,198.1 290.5,197.9 291.6,197.6 292.7,193.6 293.8,193.2 294.9,192.8 296.0,192.3 297.1,192.0 298.2,187.6 299.3,187.1 300.4,186.6 301.5,185.5 302.6,186.6 303.6,186.0 304.7,184.3 305.8,182.6 306.9,182.1 308.0,182.7 309.1,182.2 310.2,182.0 311.3,181.5 312.4,181.4 313.5,180.9 314.6,184.9 315.7,184.8 316.8,184.7 317.9,184.5 319.0,179.0 320.1,179.0 321.2,178.7 322.2,178.4 323.3,182.6 324.4,182.5 325.5,181.6 326.6,181.5 327.7,181.2 328.8,181.1 329.9,180.9 331.0,181.4 332.1,178.2 333.2,178.0 334.3,177.2 335.4,177.0 336.5,177.1 337.6,176.8 338.7,176.5 339.8,176.2 340.8,176.6 341.9,174.6 343.0,174.4 344.1,174.2 345.2,173.8 346.3,171.0 347.4,168.9 348.5,168.5 349.6,174.0 350.7,173.0 351.8,172.8 352.9,172.6 354.0,167.0 355.1,166.6 356.2,167.8 357.3,167.4 358.4,170.7 359.4,170.3 360.5,170.0 361.6,168.4 362.7,168.0 363.8,166.7 364.9,166.3 366.0,165.9 367.1,165.5 368.2,165.2 369.3,165.1 370.4,163.8 371.5,160.3 372.6,155.0 373.7,154.5 374.8,158.0 375.9,149.4 377.0,148.8 378.0,146.0 379.1,145.5 380.2,143.8 381.3,145.8 382.4,145.3 383.5,144.9 384.6,143.2 385.7,145.0 386.8,152.2 387.9,151.9 389.0,153.8 390.1,153.9 391.2,152.0 392.3,151.7 393.4,150.0 394.5,150.5 395.6,150.2 396.6,149.9 397.7,149.7 398.8,148.6 399.9,149.7 401.0,149.3 402.1,149.3 403.2,149.7 404.3,149.3 405.4,149.5 406.5,149.2 407.6,152.2 408.7,152.0 409.8,151.8 410.9,149.8 412.0,149.5 413.1,149.5 414.2,149.2 415.2,149.0 416.3,147.3 417.4,147.0 418.5,147.7 419.6,148.7 420.7,148.4 421.8,147.9 422.9,147.6 424.0,148.8 425.1,148.6 426.2,148.4 427.3,146.8 428.4,144.6 429.5,144.4 430.6,144.8 431.7,144.7 432.8,142.6 433.8,142.3 434.9,137.8 436.0,139.8 437.1,143.1 438.2,144.2 439.3,144.0 440.4,143.8 441.5,143.0 442.6,144.3 443.7,144.7 444.8,144.6 445.9,135.6 447.0,133.1 448.1,132.8 449.2,132.8 450.3,126.0 451.4,125.3 452.4,124.8 453.5,124.4 454.6,126.0 455.7,125.5 456.8,120.8 457.9,122.1 459.0,121.7 460.1,123.6 461.2,123.0 462.3,122.5 463.4,123.2 464.5,122.4 465.6,119.1 466.7,118.6 467.8,113.7 468.9,109.6 470.0,108.8 471.0,107.3 472.1,106.5 473.2,104.4 474.3,103.6 475.4,102.8 476.5,110.7 477.6,110.1 478.7,105.3 479.8,102.5 480.9,104.2 482.0,108.4 483.1,108.0 484.2,102.5 485.3,102.6 486.4,102.2 487.5,102.1 488.6,101.7 489.6,142.8 490.7,143.5 491.8,143.1 492.9,142.1 494.0,140.9 495.1,140.5 496.2,141.3 497.3,140.9 498.4,142.1 499.5,141.7 500.6,136.1 501.7,135.7 502.8,135.8 503.9,132.7 505.0,132.3 506.1,131.9 507.2,136.4 508.2,130.9 509.3,128.0 510.4,127.6 511.5,131.6 512.6,131.1 513.7,130.6 514.8,126.4 515.9,126.4 517.0,123.9 518.1,123.3 519.2,122.6 520.3,120.7 521.4,126.8 522.5,131.7 523.6,129.6 524.7,131.5 525.8,131.5 526.8,131.0 527.9,130.5 529.0,133.8 530.1,133.3 531.2,132.6 532.3,132.1 533.4,165.4 534.5,164.8 535.6,164.4 536.7,162.7 537.8,162.3 538.9,164.4 540.0,164.2 541.1,163.8 542.2,163.5 543.3,162.1 544.4,162.0 545.4,161.6 546.5,160.8 547.6,161.0 548.7,160.5 549.8,160.0 550.9,159.4 552.0,154.0 553.1,153.4 554.2,152.8 555.3,151.4 556.4,150.9 557.5,150.3 558.6,149.8 559.7,148.0 560.8,147.7 561.9,147.1 563.0,144.2 564.0,142.7 565.1,141.8 566.2,137.6 567.3,136.6 568.4,135.5 569.5,136.7 570.6,135.8 571.7,136.8 572.8,136.0 573.9,135.7 575.0,137.0 576.1,136.3 577.2,168.8 578.3,168.1 579.4,167.4 580.5,167.3 581.6,166.6 582.6,170.3 583.7,169.7 584.8,168.7 585.9,168.2 587.0,167.7 588.1,167.6 589.2,167.1 590.3,166.6 591.4,162.2 592.5,161.6 593.6,160.9 594.7,160.3 595.8,160.7 596.9,160.9 598.0,160.3 599.1,159.1 600.2,157.5 601.2,156.9 602.3,156.3 603.4,155.7 604.5,154.9 605.6,153.4 606.7,152.7 607.8,150.3 608.9,149.7 610.0,151.6 611.1,150.9 612.2,150.3 613.3,151.7 614.4,151.1 615.5,151.6 616.6,151.3 617.7,150.7 618.8,150.2 619.8,149.6 620.9,163.7 622.0,161.9 623.1,161.2 624.2,159.1 625.3,158.4 626.4,154.7 627.5,154.7 628.6,153.9 629.7,153.2 630.8,155.6 631.9,156.1 633.0,155.5 634.1,154.8 635.2,155.2 636.3,154.6 637.4,154.0 638.4,149.1 639.5,148.4 640.6,147.6 641.7,146.9 642.8,146.5 643.9,145.9 645.0,145.3 646.1,144.4 647.2,139.0 648.3,143.2 649.4,142.5 650.5,141.7 651.6,135.2 652.7,134.2 653.8,128.8 654.9,128.4 656.0,127.4 657.0,116.7 658.1,115.7 659.2,114.6 660.3,112.1 661.4,113.1 662.5,113.1 663.6,112.2 664.7,108.2 665.8,109.8 666.9,109.1 668.0,108.2 669.1,100.6 670.2,85.0 671.3,84.0 672.4,83.1 673.5,68.1 674.6,67.0 675.6,68.3 676.7,67.2 677.8,66.1 678.9,77.0 680.0,76.2 681.1,77.0 682.2,76.3 683.3,84.0 684.4,78.9 685.5,78.3 686.6,79.0 687.7,78.2 688.8,77.5 689.9,77.6 691.0,76.8 692.1,70.8 693.2,76.3 694.2,75.4 695.3,80.0 696.4,79.1 697.5,78.9 698.6,82.8 699.7,80.5 700.8,81.1 701.9,80.1 703.0,80.8 704.1,79.7 705.2,75.7 706.3,77.1 707.4,76.0 708.5,86.9 709.6,86.5 710.7,85.5 711.8,87.5 712.8,83.4 713.9,82.2 715.0,80.5 716.1,79.4 717.2,80.2 718.3,79.8 719.4,79.1 720.5,77.3 721.6,76.3 722.7,78.7 723.8,77.7 724.9,77.9 726.0,79.9 727.1,79.0 728.2,77.8 729.3,77.0 730.4,73.8 731.4,72.9 732.5,72.0 733.6,70.7 734.7,69.1 735.8,68.0 736.9,67.1 738.0,66.1 739.1,64.8 740.2,67.8 741.3,67.3 742.4,66.5 743.5,65.7 744.6,60.3 745.7,59.4 746.8,58.4 747.9,64.2 749.0,63.5 750.0,62.5 751.1,61.8 752.2,81.3 753.3,80.4 754.4,79.6 755.5,79.0 756.6,82.4 757.7,81.3 758.8,80.7 759.9,80.1 761.0,78.8 762.1,81.8 763.2,82.3 764.3,80.4 765.4,73.5 766.5,72.9 767.6,72.3 768.6,71.6 769.7,69.5 770.8,65.2 771.9,65.4 773.0,64.6 774.1,58.9 775.2,58.0 776.3,57.1 777.4,55.8 778.5,60.8 779.6,58.4 780.7,57.7 781.8,57.0 782.9,55.2 784.0,54.3 785.1,55.2 786.2,54.4 787.2,46.2 788.3,45.2 789.4,44.3 790.5,43.4 791.6,42.4 792.7,43.8 793.8,42.9 794.9,42.0 796.0,75.2"/>
<text x="640" y="56" font-family="Arial" font-size="12" fill="#0f766e">robust_nominal NEES proxy</text>
</svg>