<svg xmlns="http://www.w3.org/2000/svg" width="820" height="320" viewBox="0 0 820 320">
<rect width="100%" height="100%" fill="white"/>
<text x="52" y="30" font-family="Arial" font-size="18" font-weight="700">robust_dropout_robust NEES proxy</text>
<line x1="52" y1="274" x2="796" y2="274" stroke="#263238"/>
<line x1="52" y1="42" x2="52" y2="274" stroke="#263238"/>
<text x="52" y="306" font-family="Arial" font-size="12">time (s)</text>
<text x="630" y="306" font-family="Arial" font-size="12">value</text>

<rect x="314.6" y="42" width="153.2" height="232" fill="#fef3c7" opacity="0.72"/>
<polyline fill="none" stroke="#0f766e" stroke-width="2.3" points="52.0,88.8 53.1,90.4 54.2,96.0 55.3,104.1 56.4,113.5 57.5,123.2 58.6,132.9 59.7,142.4 60.8,151.5 61.8,160.2 62.9,169.3 64.0,179.1 65.1,187.8 66.2,101.7 67.3,102.6 68.4,103.5 69.5,104.5 70.6,105.4 71.7,106.3 72.8,107.1 73.9,101.5 75.0,112.0 76.1,112.3 77.2,132.6 78.3,132.5 79.4,132.1 80.4,131.7 81.5,131.3 82.6,126.3 83.7,125.3 84.8,130.5 85.9,130.3 87.0,130.2 88.1,129.8 89.2,129.5 90.3,129.2 91.4,127.7 92.5,126.9 93.6,128.2 94.7,127.3 95.8,175.7 96.9,176.3 98.0,175.6 99.0,174.9 100.1,173.1 101.2,172.4 102.3,172.1 103.4,171.4 104.5,170.7 105.6,170.8 106.7,169.9 107.8,169.6 108.9,167.1 110.0,168.4 111.1,167.8 112.2,167.1 113.3,166.0 114.4,164.0 115.5,162.7 116.6,161.4 117.6,156.6 118.7,155.8 119.8,154.1 120.9,138.1 122.0,136.5 123.1,142.2 124.2,140.2 125.3,138.1 126.4,128.6 127.5,121.8 128.6,95.0 129.7,91.8 130.8,88.6 131.9,67.3 133.0,64.0 134.1,60.9 135.2,63.9 136.2,89.3 137.3,94.7 138.4,94.4 139.5,64.4 140.6,84.0 141.7,83.9 142.8,68.6 143.9,69.0 145.0,63.2 146.1,54.1 147.2,54.5 148.3,70.1 149.4,79.3 150.5,78.9 151.6,79.7 152.7,80.4 153.8,56.8 154.8,57.7 155.9,58.7 157.0,72.7 158.1,80.6 159.2,81.4 160.3,79.3 161.4,93.0 162.5,88.2 163.6,88.2 164.7,90.5 165.8,90.1 166.9,83.2 168.0,82.7 169.1,82.2 170.2,78.7 171.3,78.1 172.4,83.2 173.4,82.5 174.5,81.9 175.6,82.6 176.7,82.0 177.8,82.1 178.9,81.5 180.0,78.6 181.1,77.5 182.2,76.7 183.3,163.8 184.4,161.8 185.5,161.1 186.6,162.0 187.7,161.4 188.8,164.4 189.9,162.8 191.0,162.6 192.0,151.6 193.1,151.0 194.2,140.6 195.3,130.9 196.4,132.0 197.5,141.2 198.6,140.7 199.7,140.2 200.8,136.2 201.9,137.9 203.0,137.2 204.1,136.5 205.2,139.0 206.3,134.6 207.4,134.1 208.5,133.9 209.6,134.4 210.6,134.1 211.7,144.8 212.8,144.4 213.9,145.7 215.0,142.0 216.1,146.1 217.2,144.2 218.3,145.5 219.4,146.4 220.5,145.9 221.6,144.0 222.7,143.4 223.8,139.7 224.9,140.7 226.0,139.9 227.1,152.8 228.2,150.6 229.2,149.4 230.3,148.4 231.4,146.4 232.5,140.5 233.6,139.4 234.7,140.2 235.8,139.2 236.9,130.6 238.0,127.6 239.1,121.7 240.2,120.3 241.3,114.4 242.4,112.7 243.5,111.1 244.6,109.5 245.7,105.4 246.8,108.8 247.8,107.1 248.9,105.9 250.0,110.1 251.1,108.9 252.2,115.5 253.3,114.5 254.4,112.8 255.5,117.6 256.6,116.8 257.7,102.9 258.8,101.3 259.9,96.0 261.0,94.9 262.1,94.2 263.2,89.1 264.3,88.4 265.4,87.8 266.4,89.7 267.5,89.3 268.6,98.1 269.7,97.8 270.8,76.1 271.9,75.8 273.0,75.5 274.1,80.9 275.2,80.6 276.3,72.3 277.4,73.0 278.5,72.3 279.6,73.9 280.7,73.5 281.8,76.8 282.9,76.3 284.0,75.7 285.0,78.4 286.1,77.9 287.2,77.4 288.3,77.4 289.4,76.2 290.5,75.7 291.6,75.1 292.7,67.0 293.8,66.1 294.9,65.1 296.0,63.8 297.1,62.9 298.2,55.7 299.3,54.6 300.4,53.2 301.5,50.8 302.6,53.2 303.6,52.1 304.7,49.0 305.8,46.0 306.9,44.8 308.0,45.8 309.1,44.7 310.2,44.4 311.3,43.4 312.4,43.0 313.5,42.0 314.6,50.0 315.7,51.4 316.8,52.9 317.9,54.2 319.0,46.4 320.1,48.1 321.2,49.0 322.2,49.9 323.3,59.1 324.4,60.5 325.5,60.9 326.6,62.3 327.7,63.1 328.8,64.4 329.9,65.8 331.0,68.0 332.1,63.6 333.2,64.5 334.3,65.4 335.4,66.6 336.5,65.3 337.6,68.5 338.7,69.5 339.8,71.4 340.8,72.4 341.9,65.6 343.0,66.4 344.1,67.2 345.2,67.7 346.3,65.6 347.4,61.3 348.5,61.9 349.6,75.3 350.7,74.0 351.8,75.3 352.9,76.6 354.0,67.3 355.1,67.8 356.2,74.0 357.3,74.6 358.4,75.6 359.4,76.1 360.5,76.7 361.6,73.0 362.7,73.6 363.8,77.2 364.9,77.8 366.0,78.5 367.1,81.6 368.2,82.3 369.3,83.5 370.4,81.3 371.5,78.1 372.6,63.1 373.7,63.6 374.8,77.2 375.9,59.0 377.0,58.6 378.0,51.5 379.1,51.3 380.2,49.4 381.3,58.6 382.4,59.2 383.5,59.9 384.6,56.8 385.7,67.2 386.8,90.3 387.9,91.4 389.0,98.6 390.1,99.8 391.2,97.4 392.3,98.5 393.4,100.5 394.5,103.5 395.6,104.6 396.6,105.7 397.7,106.7 398.8,106.4 399.9,110.5 401.0,111.3 402.1,112.5 403.2,114.7 404.3,115.5 405.4,116.3 406.5,117.0 407.6,121.9 408.7,122.9 409.8,123.9 410.9,123.1 412.0,123.9 413.1,124.9 414.2,125.5 415.2,126.6 416.3,123.5 417.4,124.0 418.5,127.8 419.6,129.6 420.7,130.3 421.8,130.0 422.9,130.6 424.0,134.6 425.1,135.5 426.2,136.4 427.3,131.6 428.4,124.8 429.5,125.1 430.6,127.7 431.7,128.1 432.8,132.1 433.8,132.1 434.9,122.1 436.0,129.6 437.1,139.8 438.2,143.8 439.3,144.6 440.4,145.4 441.5,144.3 442.6,147.7 443.7,149.7 444.8,150.7 445.9,138.9 447.0,132.9 448.1,132.8 449.2,133.9 450.3,127.0 451.4,126.2 452.4,125.7 453.5,125.2 454.6,131.8 455.7,131.7 456.8,125.6 457.9,130.5 459.0,130.5 460.1,138.5 461.2,138.5 462.3,138.6 463.4,141.6 464.5,143.9 465.6,137.0 466.7,137.3 467.8,130.4 468.9,126.3 470.0,125.1 471.0,122.1 472.1,121.1 473.2,120.1 474.3,119.1 475.4,118.1 476.5,133.8 477.6,133.6 478.7,128.4 479.8,122.9 480.9,123.8 482.0,134.1 483.1,134.0 484.2,122.5 485.3,123.0 486.4,123.1 487.5,123.7 488.6,123.9 489.6,191.8 490.7,191.0 491.8,191.1 492.9,189.4 494.0,190.3 495.1,190.5 496.2,193.2 497.3,193.4 498.4,193.8 499.5,193.8 500.6,183.8 501.7,183.9 502.8,184.6 503.9,178.1 505.0,178.3 506.1,178.5 507.2,189.7 508.2,178.1 509.3,171.8 510.4,171.3 511.5,182.9 512.6,182.6 513.7,182.2 514.8,173.1 515.9,178.6 517.0,174.0 518.1,173.7 519.2,173.6 520.3,170.3 521.4,180.8 522.5,187.9 523.6,184.3 524.7,189.6 525.8,190.9 526.8,191.0 527.9,191.0 529.0,194.7 530.1,194.3 531.2,193.9 532.3,193.5 533.4,258.6 534.5,258.2 535.6,258.1 536.7,256.0 537.8,256.1 538.9,258.2 540.0,257.9 541.1,257.6 542.2,256.2 543.3,252.6 544.4,253.2 545.4,253.9 546.5,247.7 547.6,252.5 548.7,251.0 549.8,249.4 550.9,254.0 552.0,250.4 553.1,246.6 554.2,245.1 555.3,248.8 556.4,247.8 557.5,246.6 558.6,244.7 559.7,239.5 560.8,242.3 561.9,240.6 563.0,224.3 564.0,225.6 565.1,223.0 566.2,214.2 567.3,211.3 568.4,208.4 569.5,220.6 570.6,218.9 571.7,224.6 572.8,223.2 573.9,223.6 575.0,230.4 576.1,229.3 577.2,265.6 578.3,264.7 579.4,263.9 580.5,265.2 581.6,264.5 582.6,273.6 583.7,273.3 584.8,271.7 585.9,271.4 587.0,273.8 588.1,274.0 589.2,273.6 590.3,273.2 591.4,262.4 592.5,260.9 593.6,259.3 594.7,257.8 595.8,265.4 596.9,267.5 598.0,266.9 599.1,264.9 600.2,267.5 601.2,267.0 602.3,266.6 603.4,266.1 604.5,264.5 605.6,261.1 606.7,260.5 607.8,255.2 608.9,254.2 610.0,257.9 611.1,257.0 612.2,256.1 613.3,257.8 614.4,256.8 615.5,263.5 616.6,263.4 617.7,263.0 618.8,262.7 619.8,262.2 620.9,255.3 622.0,257.0 623.1,256.5 624.2,253.8 625.3,253.2 626.4,245.8 627.5,246.5 628.6,245.3 629.7,244.1 630.8,252.0 631.9,253.2 633.0,252.7 634.1,252.2 635.2,251.8 636.3,251.5 637.4,251.3 638.4,246.3 639.5,245.6 640.6,244.7 641.7,244.1 642.8,237.8 643.9,237.3 645.0,236.9 646.1,235.6 647.2,219.4 648.3,234.9 649.4,233.8 650.5,232.6 651.6,217.6 652.7,215.3 653.8,205.7 654.9,205.3 656.0,202.9 657.0,181.7 658.1,179.1 659.2,176.5 660.3,170.0 661.4,177.2 662.5,178.5 663.6,176.9 664.7,164.3 665.8,170.3 666.9,170.3 668.0,169.6 669.1,151.6 670.2,109.5 671.3,108.3 672.4,107.3 673.5,70.5 674.6,69.1 675.6,79.3 676.7,78.1 677.8,77.1 678.9,115.8 680.0,116.4 681.1,121.3 682.2,122.2 683.3,137.6 684.4,127.4 685.5,129.0 686.6,124.8 687.7,125.7 688.8,126.6 689.9,129.8 691.0,130.7 692.1,120.4 693.2,137.4 694.2,137.4 695.3,148.7 696.4,149.2 697.5,150.4 698.6,162.5 699.7,157.6 700.8,161.0 701.9,160.9 703.0,164.3 704.1,163.8 705.2,155.4 706.3,160.4 707.4,159.5 708.5,161.2 709.6,161.8 710.7,161.2 711.8,167.4 712.8,162.4 713.9,161.3 715.0,158.8 716.1,157.8 717.2,161.0 718.3,159.0 719.4,158.4 720.5,155.5 721.6,154.6 722.7,161.9 723.8,161.0 724.9,159.3 726.0,160.6 727.1,159.7 728.2,155.8 729.3,154.9 730.4,155.8 731.4,155.3 732.5,154.3 733.6,153.5 734.7,151.9 735.8,151.0 736.9,150.0 738.0,148.9 739.1,147.7 740.2,151.0 741.3,149.6 742.4,149.2 743.5,148.4 744.6,142.6 745.7,141.4 746.8,140.1 747.9,146.6 749.0,146.0 750.0,145.1 751.1,144.5 752.2,159.2 753.3,158.0 754.4,157.3 755.5,156.6 756.6,159.4 757.7,158.1 758.8,157.6 759.9,157.2 761.0,155.2 762.1,157.1 763.2,157.9 764.3,154.3 765.4,144.5 766.5,144.0 767.6,143.1 768.6,142.2 769.7,137.1 770.8,137.7 771.9,139.3 773.0,138.4 774.1,125.9 775.2,124.5 776.3,123.1 777.4,120.7 778.5,128.7 779.6,123.0 780.7,122.3 781.8,121.6 782.9,126.6 784.0,125.7 785.1,128.0 786.2,127.0 787.2,120.1 788.3,118.6 789.4,117.2 790.5,116.0 791.6,114.5 792.7,117.2 793.8,116.0 794.9,114.8 796.0,167.0"/>
<text x="640" y="56" font-family="Arial" font-size="12" fill="#0f766e">robust_dropout_robust NEES proxy</text>
</svg>