<svg xmlns="http://www.w3.org/2000/svg" width="820" height="320" viewBox="0 0 820 320">
<rect width="100%" height="100%" fill="white"/>
<text x="52" y="30" font-family="Arial" font-size="18" font-weight="700">ekf_dropout_robust NEES proxy</text>
<line x1="52" y1="274" x2="796" y2="274" stroke="#263238"/>
<line x1="52" y1="42" x2="52" y2="274" stroke="#263238"/>
<text x="52" y="306" font-family="Arial" font-size="12">time (s)</text>
<text x="630" y="306" font-family="Arial" font-size="12">value</text>

<rect x="314.6" y="42" width="153.2" height="232" fill="#fef3c7" opacity="0.72"/>
<polyline fill="none" stroke="#0f766e" stroke-width="2.3" points="52.0,78.2 53.1,79.8 54.2,85.2 55.3,93.2 56.4,102.6 57.5,112.6 58.6,122.7 59.7,132.6 60.8,142.4 61.8,151.8 62.9,161.4 64.0,171.5 65.1,180.7 66.2,84.9 67.3,85.0 68.4,85.2 69.5,85.3 70.6,85.4 71.7,85.6 72.8,85.7 73.9,80.6 75.0,96.9 76.1,97.0 77.2,114.8 78.3,114.8 79.4,114.4 80.4,114.1 81.5,113.7 82.6,109.3 83.7,108.4 84.8,112.9 85.9,112.6 87.0,112.5 88.1,112.2 89.2,111.9 90.3,111.6 91.4,110.1 92.5,109.4 93.6,110.6 94.7,109.6 95.8,162.4 96.9,162.7 98.0,162.0 99.0,161.3 100.1,159.6 101.2,158.9 102.3,158.7 103.4,158.0 104.5,157.3 105.6,157.1 106.7,156.1 107.8,155.7 108.9,153.3 110.0,154.5 111.1,153.8 112.2,153.2 113.3,152.1 114.4,150.1 115.5,148.9 116.6,147.7 117.6,143.6 118.7,142.4 119.8,141.0 120.9,127.1 122.0,125.3 123.1,130.3 124.2,128.6 125.3,126.9 126.4,118.8 127.5,112.3 128.6,89.3 129.7,86.7 130.8,84.2 131.9,64.9 133.0,62.3 134.1,59.8 135.2,62.6 136.2,83.7 137.3,88.4 138.4,88.3 139.5,66.9 140.6,83.7 141.7,83.6 142.8,70.4 143.9,70.7 145.0,65.6 146.1,57.7 147.2,58.1 148.3,71.4 149.4,78.9 150.5,78.4 151.6,79.0 152.7,79.6 153.8,59.1 154.8,59.9 155.9,60.7 157.0,72.7 158.1,79.2 159.2,79.9 160.3,78.0 161.4,89.6 162.5,85.1 163.6,84.9 164.7,86.7 165.8,86.3 166.9,80.2 168.0,79.7 169.1,79.1 170.2,76.2 171.3,75.6 172.4,80.6 173.4,79.9 174.5,79.2 175.6,80.1 176.7,79.5 177.8,79.4 178.9,78.8 180.0,76.1 181.1,75.0 182.2,74.2 183.3,161.6 184.4,160.2 185.5,159.5 186.6,160.1 187.7,159.5 188.8,161.7 189.9,160.4 191.0,160.1 192.0,151.0 193.1,150.4 194.2,141.8 195.3,133.7 196.4,134.2 197.5,141.6 198.6,141.1 199.7,140.7 200.8,137.5 201.9,138.7 203.0,138.1 204.1,137.5 205.2,139.5 206.3,135.4 207.4,134.9 208.5,134.6 209.6,135.0 210.6,134.7 211.7,143.4 212.8,143.0 213.9,144.0 215.0,141.1 216.1,144.4 217.2,142.8 218.3,143.3 219.4,143.9 220.5,143.4 221.6,141.8 222.7,141.3 223.8,137.9 224.9,138.5 226.0,137.8 227.1,148.5 228.2,146.3 229.2,145.2 230.3,144.3 231.4,142.7 232.5,137.7 233.6,136.8 234.7,137.3 235.8,136.4 236.9,129.2 238.0,126.7 239.1,121.6 240.2,120.4 241.3,115.3 242.4,113.8 243.5,112.4 244.6,111.0 245.7,106.8 246.8,109.5 247.8,108.1 248.9,106.9 250.0,110.7 251.1,109.7 252.2,115.1 253.3,114.2 254.4,112.6 255.5,116.5 256.6,115.8 257.7,103.9 258.8,102.5 259.9,97.9 261.0,96.9 262.1,96.2 263.2,91.7 264.3,91.1 265.4,90.5 266.4,92.0 267.5,91.7 268.6,99.0 269.7,98.8 270.8,84.7 271.9,84.4 273.0,84.1 274.1,88.2 275.2,87.8 276.3,80.4 277.4,80.8 278.5,80.1 279.6,81.3 280.7,80.9 281.8,83.3 282.9,82.7 284.0,82.8 285.0,84.7 286.1,84.2 287.2,83.7 288.3,83.2 289.4,81.8 290.5,81.4 291.6,80.8 292.7,74.0 293.8,73.1 294.9,72.1 296.0,71.0 297.1,70.2 298.2,63.7 299.3,62.6 300.4,61.3 301.5,58.8 302.6,61.0 303.6,59.9 304.7,56.7 305.8,53.8 306.9,52.7 308.0,53.7 309.1,52.6 310.2,52.2 311.3,51.3 312.4,50.9 313.5,50.0 314.6,57.4 315.7,58.7 316.8,60.1 317.9,61.3 319.0,54.5 320.1,56.2 321.2,57.1 322.2,58.0 323.3,66.4 324.4,67.7 325.5,68.0 326.6,69.4 327.7,70.1 328.8,71.3 329.9,72.6 331.0,74.8 332.1,70.8 333.2,71.7 334.3,72.4 335.4,73.4 336.5,72.9 337.6,75.8 338.7,76.8 339.8,78.3 340.8,79.0 341.9,68.5 343.0,69.2 344.1,70.0 345.2,70.6 346.3,69.1 347.4,64.7 348.5,65.3 349.6,78.2 350.7,76.9 351.8,78.2 352.9,79.5 354.0,70.9 355.1,71.5 356.2,77.8 357.3,78.5 358.4,78.8 359.4,79.4 360.5,80.0 361.6,76.6 362.7,77.3 363.8,81.2 364.9,81.9 366.0,82.6 367.1,85.7 368.2,86.5 369.3,87.8 370.4,85.9 371.5,82.8 372.6,69.0 373.7,69.6 374.8,82.4 375.9,65.9 377.0,65.7 378.0,59.5 379.1,59.5 380.2,58.1 381.3,65.9 382.4,66.6 383.5,67.4 384.6,64.8 385.7,74.1 386.8,98.5 387.9,99.6 389.0,105.6 390.1,107.1 391.2,105.2 392.3,106.3 393.4,108.0 394.5,110.6 395.6,111.7 396.6,112.7 397.7,113.7 398.8,113.3 399.9,116.7 401.0,117.5 402.1,118.7 403.2,120.6 404.3,121.4 405.4,122.0 406.5,122.7 407.6,127.1 408.7,128.0 409.8,128.9 410.9,128.2 412.0,129.0 413.1,129.9 414.2,130.5 415.2,131.6 416.3,129.2 417.4,129.7 418.5,133.0 419.6,134.6 420.7,135.3 421.8,135.2 422.9,135.8 424.0,139.2 425.1,140.1 426.2,140.9 427.3,137.1 428.4,131.3 429.5,131.6 430.6,133.9 431.7,134.3 432.8,137.7 433.8,137.7 434.9,129.3 436.0,135.7 437.1,144.4 438.2,147.9 439.3,148.7 440.4,149.4 441.5,148.6 442.6,151.7 443.7,153.6 444.8,154.5 445.9,144.0 447.0,139.0 448.1,139.0 449.2,139.9 450.3,134.2 451.4,133.6 452.4,133.3 453.5,132.9 454.6,138.7 455.7,138.7 456.8,133.5 457.9,137.9 459.0,137.9 460.1,145.0 461.2,145.2 462.3,145.3 463.4,148.0 464.5,149.8 465.6,143.9 466.7,144.3 467.8,138.4 468.9,134.9 470.0,133.9 471.0,131.3 472.1,130.3 473.2,129.4 474.3,128.5 475.4,127.7 476.5,141.2 477.6,141.1 478.7,136.6 479.8,131.9 480.9,132.5 482.0,141.4 483.1,141.4 484.2,131.5 485.3,131.7 486.4,131.8 487.5,132.3 488.6,132.5 489.6,194.8 490.7,194.1 491.8,194.3 492.9,192.7 494.0,193.4 495.1,193.6 496.2,195.8 497.3,196.0 498.4,196.3 499.5,196.3 500.6,187.6 501.7,187.7 502.8,188.3 503.9,182.7 505.0,182.8 506.1,183.0 507.2,192.6 508.2,182.5 509.3,177.0 510.4,176.6 511.5,188.1 512.6,187.8 513.7,187.4 514.8,179.7 515.9,184.1 517.0,180.2 518.1,180.0 519.2,179.8 520.3,177.0 521.4,185.6 522.5,191.3 523.6,188.4 524.7,192.7 525.8,193.6 526.8,193.6 527.9,193.5 529.0,196.4 530.1,196.0 531.2,195.6 532.3,195.2 533.4,264.4 534.5,264.1 535.6,263.9 536.7,262.4 537.8,262.4 538.9,264.1 540.0,263.8 541.1,263.4 542.2,262.1 543.3,258.7 544.4,259.3 545.4,260.0 546.5,254.3 547.6,258.7 548.7,257.4 549.8,256.0 550.9,260.2 552.0,257.3 553.1,253.8 554.2,252.4 555.3,255.9 556.4,254.9 557.5,253.9 558.6,252.2 559.7,247.6 560.8,250.1 561.9,248.6 563.0,234.2 564.0,235.3 565.1,233.1 566.2,225.4 567.3,222.8 568.4,220.3 569.5,231.1 570.6,229.6 571.7,234.7 572.8,233.4 573.9,233.8 575.0,239.9 576.1,239.0 577.2,264.3 578.3,263.5 579.4,262.7 580.5,262.0 581.6,261.3 582.6,269.7 583.7,269.5 584.8,267.6 585.9,267.4 587.0,271.5 588.1,274.0 589.2,273.7 590.3,273.3 591.4,265.8 592.5,264.6 593.6,263.2 594.7,261.9 595.8,267.6 596.9,268.9 598.0,268.4 599.1,266.9 600.2,268.5 601.2,268.0 602.3,267.1 603.4,266.7 604.5,264.9 605.6,261.7 606.7,261.2 607.8,256.2 608.9,255.3 610.0,258.9 611.1,258.1 612.2,257.3 613.3,258.8 614.4,257.9 615.5,264.6 616.6,264.6 617.7,264.1 618.8,264.0 619.8,263.5 620.9,255.9 622.0,255.3 623.1,254.7 624.2,256.9 625.3,256.4 626.4,255.9 627.5,255.0 628.6,254.5 629.7,254.0 630.8,251.6 631.9,248.6 633.0,247.9 634.1,247.3 635.2,229.5 636.3,228.7 637.4,227.9 638.4,226.5 639.5,225.3 640.6,224.2 641.7,223.1 642.8,209.2 643.9,208.2 645.0,207.3 646.1,206.3 647.2,182.9 648.3,210.0 649.4,208.2 650.5,206.4 651.6,186.4 652.7,183.3 653.8,170.6 654.9,171.8 656.0,168.9 657.0,145.6 658.1,142.7 659.2,140.0 660.3,134.1 661.4,143.7 662.5,147.1 663.6,145.7 664.7,136.9 665.8,145.8 666.9,146.3 668.0,147.0 669.1,126.7 670.2,81.2 671.3,80.5 672.4,80.1 673.5,42.8 674.6,42.0 675.6,55.3 676.7,54.9 677.8,54.7 678.9,96.6 680.0,97.9 681.1,104.9 682.2,106.6 683.3,122.4 684.4,112.9 685.5,115.2 686.6,111.9 687.7,113.5 688.8,115.0 689.9,119.9 691.0,121.5 692.1,111.2 693.2,130.6 694.2,131.2 695.3,143.4 696.4,144.5 697.5,146.6 698.6,161.0 699.7,155.6 700.8,160.5 701.9,160.8 703.0,165.6 704.1,165.6 705.2,156.5 706.3,162.8 707.4,162.3 708.5,165.2 709.6,166.6 710.7,166.3 711.8,174.4 712.8,169.4 713.9,168.7 715.0,166.4 716.1,165.7 717.2,170.2 718.3,167.5 719.4,167.3 720.5,164.6 721.6,163.9 722.7,174.3 723.8,173.6 724.9,175.5 726.0,176.3 727.1,175.6 728.2,173.6 729.3,172.8 730.4,171.8 731.4,170.8 732.5,170.0 733.6,168.4 734.7,167.9 735.8,166.7 736.9,165.9 738.0,165.0 739.1,163.4 740.2,167.2 741.3,166.8 742.4,166.1 743.5,165.5 744.6,160.9 745.7,159.9 746.8,159.0 747.9,163.2 749.0,162.7 750.0,161.5 751.1,161.0 752.2,174.6 753.3,174.1 754.4,173.5 755.5,173.1 756.6,174.8 757.7,173.4 758.8,173.0 759.9,172.6 761.0,170.7 762.1,172.1 763.2,173.0 764.3,169.4 765.4,159.8 766.5,159.5 767.6,158.7 768.6,157.9 769.7,153.1 770.8,154.6 771.9,156.3 773.0,155.6 774.1,143.8 775.2,142.6 776.3,141.5 777.4,139.4 778.5,146.4 779.6,141.3 780.7,140.6 781.8,140.1 782.9,145.2 784.0,144.5 785.1,147.0 786.2,146.2 787.2,140.4 788.3,139.1 789.4,138.0 790.5,137.0 791.6,135.8 792.7,138.3 793.8,137.2 794.9,136.2 796.0,180.8"/>
<text x="640" y="56" font-family="Arial" font-size="12" fill="#0f766e">ekf_dropout_robust NEES proxy</text>
</svg>