<svg xmlns="http://www.w3.org/2000/svg" width="820" height="320" viewBox="0 0 820 320">
<rect width="100%" height="100%" fill="white"/>
<text x="52" y="30" font-family="Arial" font-size="18" font-weight="700">ekf_nominal NEES proxy</text>
<line x1="52" y1="274" x2="796" y2="274" stroke="#263238"/>
<line x1="52" y1="42" x2="52" y2="274" stroke="#263238"/>
<text x="52" y="306" font-family="Arial" font-size="12">time (s)</text>
<text x="630" y="306" font-family="Arial" font-size="12">value</text>

<rect x="314.6" y="42" width="153.2" height="232" fill="#fef3c7" opacity="0.72"/>
<polyline fill="none" stroke="#0f766e" stroke-width="2.3" points="52.0,168.2 53.1,171.4 54.2,179.9 55.3,190.8 56.4,202.0 57.5,212.8 58.6,223.0 59.7,232.5 60.8,241.6 61.8,250.0 62.9,257.3 64.0,266.3 65.1,274.0 66.2,178.0 67.3,178.4 68.4,178.8 69.5,179.1 70.6,179.5 71.7,179.9 72.8,180.2 73.9,175.6 75.0,185.8 76.1,186.1 77.2,204.2 78.3,204.1 79.4,205.8 80.4,205.6 81.5,205.4 82.6,207.3 83.7,207.1 84.8,206.4 85.9,206.3 87.0,205.8 88.1,205.8 89.2,205.6 90.3,205.3 91.4,203.4 92.5,202.8 93.6,204.5 94.7,203.6 95.8,249.1 96.9,249.2 98.0,248.7 99.0,248.2 100.1,247.0 101.2,246.5 102.3,246.3 103.4,245.8 104.5,245.3 105.6,245.0 106.7,244.1 107.8,243.8 108.9,242.0 110.0,242.7 111.1,242.3 112.2,241.8 113.3,241.1 114.4,239.4 115.5,238.6 116.6,237.8 117.6,236.1 118.7,234.8 119.8,234.0 120.9,227.0 122.0,225.8 123.1,228.2 124.2,227.2 125.3,226.3 126.4,222.2 127.5,218.3 128.6,203.5 129.7,202.1 130.8,200.8 131.9,190.3 133.0,189.0 134.1,187.7 135.2,189.0 136.2,200.8 137.3,203.0 138.4,202.7 139.5,183.1 140.6,192.1 141.7,191.7 142.8,184.2 143.9,184.0 145.0,181.6 146.1,177.2 147.2,177.2 148.3,184.3 149.4,188.7 150.5,189.1 151.6,189.1 152.7,189.1 153.8,178.6 154.8,178.7 155.9,179.0 157.0,185.1 158.1,188.9 159.2,189.0 160.3,187.8 161.4,195.0 162.5,192.4 163.6,192.1 164.7,192.8 165.8,192.3 166.9,188.7 168.0,188.3 169.1,187.8 170.2,186.3 171.3,185.9 172.4,189.8 173.4,189.2 174.5,188.5 175.6,189.6 176.7,189.1 177.8,188.6 178.9,188.0 180.0,186.6 181.1,186.0 182.2,185.4 183.3,252.0 184.4,252.3 185.5,251.9 186.6,251.6 187.7,251.2 188.8,251.5 189.9,251.2 191.0,250.8 192.0,247.9 193.1,247.5 194.2,241.3 195.3,237.5 196.4,237.0 197.5,240.3 198.6,239.9 199.7,239.6 200.8,238.1 201.9,238.7 203.0,238.4 204.1,238.1 205.2,239.8 206.3,236.9 207.4,236.5 208.5,236.2 209.6,236.5 210.6,236.2 211.7,239.6 212.8,239.2 213.9,239.4 215.0,237.8 216.1,239.4 217.2,238.9 218.3,238.1 219.4,237.5 220.5,237.1 221.6,236.8 222.7,236.4 223.8,234.6 224.9,234.2 226.0,233.7 227.1,241.3 228.2,239.0 229.2,238.4 230.3,237.8 231.4,237.1 232.5,235.6 233.6,235.0 234.7,234.8 235.8,234.2 236.9,232.7 238.0,231.2 239.1,229.1 240.2,228.5 241.3,226.2 242.4,225.7 243.5,225.0 244.6,224.4 245.7,220.8 246.8,221.7 247.8,221.1 248.9,222.8 250.0,223.6 251.1,223.0 252.2,224.4 253.3,223.8 254.4,222.6 255.5,223.5 256.6,222.9 257.7,219.3 258.8,218.8 259.9,216.2 261.0,215.8 262.1,215.5 263.2,212.8 264.3,212.5 265.4,212.1 266.4,212.5 267.5,212.2 268.6,214.6 269.7,214.4 270.8,196.6 271.9,196.2 273.0,195.8 274.1,196.9 275.2,196.5 276.3,193.2 277.4,193.1 278.5,192.6 279.6,192.8 280.7,192.5 281.8,193.0 282.9,192.6 284.0,192.9 285.0,193.0 286.1,192.5 287.2,192.1 288.3,191.1 289.4,190.2 290.5,189.9 291.6,189.5 292.7,184.2 293.8,183.7 294.9,183.1 296.0,182.4 297.1,181.9 298.2,176.5 299.3,176.0 300.4,175.3 301.5,174.6 302.6,174.7 303.6,174.1 304.7,172.8 305.8,170.6 306.9,169.9 308.0,170.1 309.1,169.5 310.2,169.3 311.3,168.7 312.4,168.3 313.5,167.6 314.6,171.8 315.7,171.6 316.8,171.4 317.9,171.2 319.0,164.5 320.1,164.2 321.2,163.8 322.2,163.4 323.3,169.1 324.4,168.9 325.5,168.2 326.6,168.1 327.7,167.2 328.8,167.0 329.9,166.8 331.0,167.0 332.1,162.3 333.2,162.0 334.3,161.5 335.4,161.1 336.5,158.5 337.6,159.2 338.7,158.9 339.8,159.8 340.8,158.2 341.9,150.6 343.0,150.3 344.1,150.0 345.2,149.6 346.3,146.2 347.4,142.5 348.5,142.1 349.6,150.1 350.7,148.5 351.8,148.2 352.9,148.0 354.0,140.2 355.1,139.7 356.2,142.3 357.3,141.8 358.4,145.5 359.4,145.1 360.5,144.6 361.6,142.3 362.7,141.9 363.8,141.2 364.9,140.7 366.0,140.3 367.1,140.1 368.2,139.7 369.3,139.8 370.4,138.0 371.5,133.0 372.6,125.4 373.7,124.8 374.8,130.1 375.9,119.0 377.0,118.4 378.0,114.8 379.1,114.2 380.2,112.2 381.3,113.8 382.4,113.3 383.5,112.9 384.6,110.8 385.7,112.7 386.8,124.6 387.9,124.2 389.0,127.0 390.1,127.9 391.2,125.4 392.3,125.1 393.4,123.6 394.5,124.4 395.6,124.2 396.6,123.9 397.7,123.7 398.8,121.8 399.9,123.4 401.0,123.1 402.1,123.3 403.2,124.0 404.3,123.6 405.4,124.4 406.5,124.0 407.6,126.8 408.7,126.6 409.8,126.3 410.9,123.8 412.0,123.5 413.1,123.8 414.2,123.5 415.2,122.9 416.3,120.4 417.4,120.1 418.5,121.2 419.6,122.2 420.7,121.9 421.8,121.3 422.9,121.0 424.0,122.6 425.1,122.4 426.2,122.2 427.3,120.0 428.4,116.8 429.5,116.6 430.6,117.2 431.7,117.0 432.8,114.2 433.8,113.8 434.9,105.4 436.0,108.5 437.1,113.0 438.2,114.8 439.3,114.6 440.4,114.4 441.5,113.2 442.6,115.4 443.7,116.1 444.8,116.0 445.9,102.7 447.0,99.4 448.1,99.1 449.2,99.2 450.3,91.0 451.4,90.4 452.4,89.8 453.5,89.3 454.6,91.5 455.7,91.0 456.8,85.1 457.9,87.0 459.0,86.4 460.1,89.8 461.2,89.3 462.3,88.7 463.4,89.7 464.5,88.1 465.6,84.0 466.7,83.5 467.8,77.6 468.9,72.5 470.0,71.5 471.0,69.8 472.1,69.0 473.2,66.1 474.3,65.1 475.4,64.3 476.5,74.2 477.6,73.6 478.7,67.8 479.8,64.5 480.9,66.4 482.0,71.7 483.1,71.2 484.2,64.5 485.3,64.2 486.4,63.8 487.5,63.8 488.6,63.4 489.6,123.5 490.7,124.4 491.8,124.0 492.9,122.8 494.0,121.0 495.1,120.6 496.2,121.6 497.3,121.2 498.4,122.3 499.5,121.9 500.6,115.2 501.7,114.7 502.8,114.5 503.9,110.7 505.0,110.3 506.1,109.8 507.2,115.4 508.2,108.2 509.3,104.8 510.4,104.2 511.5,115.1 512.6,114.5 513.7,113.8 514.8,109.7 515.9,108.5 517.0,105.9 518.1,105.1 519.2,104.3 520.3,102.2 521.4,107.7 522.5,111.9 523.6,110.0 524.7,111.1 525.8,110.6 526.8,109.9 527.9,109.2 529.0,111.9 530.1,111.1 531.2,110.4 532.3,109.8 533.4,197.6 534.5,197.0 535.6,196.5 536.7,195.5 537.8,194.9 538.9,197.0 540.0,196.4 541.1,195.9 542.2,194.9 543.3,192.2 544.4,192.7 545.4,192.5 546.5,190.2 547.6,191.4 548.7,190.7 549.8,190.0 550.9,190.5 552.0,184.0 553.1,182.6 554.2,181.8 555.3,180.7 556.4,180.1 557.5,179.4 558.6,178.8 559.7,176.7 560.8,176.4 561.9,175.6 563.0,172.4 564.0,170.4 565.1,169.4 566.2,164.6 567.3,163.5 568.4,162.3 569.5,163.5 570.6,162.4 571.7,163.4 572.8,162.4 573.9,162.3 575.0,163.7 576.1,162.8 577.2,213.2 578.3,212.3 579.4,211.5 580.5,210.7 581.6,209.8 582.6,213.9 583.7,213.2 584.8,211.8 585.9,211.2 587.0,210.9 588.1,210.9 589.2,210.3 590.3,209.7 591.4,202.0 592.5,201.2 593.6,200.4 594.7,199.6 595.8,200.7 596.9,201.6 598.0,200.9 599.1,198.8 600.2,198.5 601.2,197.8 602.3,198.2 603.4,197.4 604.5,198.0 605.6,196.9 606.7,196.2 607.8,194.1 608.9,193.3 610.0,194.3 611.1,193.5 612.2,192.8 613.3,194.3 614.4,193.6 615.5,192.7 616.6,192.1 617.7,191.5 618.8,190.8 619.8,190.2 620.9,196.1 622.0,195.4 623.1,194.7 624.2,193.1 625.3,192.4 626.4,191.8 627.5,191.4 628.6,190.7 629.7,190.0 630.8,190.9 631.9,190.1 633.0,189.4 634.1,188.7 635.2,184.7 636.3,184.0 637.4,183.2 638.4,177.1 639.5,176.2 640.6,175.1 641.7,174.2 642.8,170.1 643.9,169.2 645.0,168.3 646.1,167.2 647.2,157.2 648.3,166.1 649.4,165.0 650.5,164.0 651.6,153.4 652.7,152.0 653.8,143.2 654.9,143.1 656.0,141.6 657.0,126.4 658.1,124.9 659.2,123.4 660.3,120.1 661.4,123.1 662.5,123.6 663.6,122.4 664.7,107.7 665.8,110.8 666.9,110.0 668.0,109.3 669.1,98.9 670.2,76.4 671.3,75.2 672.4,74.0 673.5,54.5 674.6,53.2 675.6,56.1 676.7,54.7 677.8,53.4 678.9,70.4 680.0,69.4 681.1,71.3 682.2,70.5 683.3,81.8 684.4,75.3 685.5,74.6 686.6,77.0 687.7,76.3 688.8,75.5 689.9,76.3 691.0,75.6 692.1,68.5 693.2,77.0 694.2,76.0 695.3,82.9 696.4,81.9 697.5,82.1 698.6,88.5 699.7,85.5 700.8,86.9 701.9,85.9 703.0,87.4 704.1,86.3 705.2,81.0 706.3,83.6 707.4,82.4 708.5,92.6 709.6,92.4 710.7,91.3 711.8,95.1 712.8,89.6 713.9,88.3 715.0,86.2 716.1,84.9 717.2,86.8 718.3,86.2 719.4,85.7 720.5,83.5 721.6,82.3 722.7,87.1 723.8,85.9 724.9,88.1 726.0,89.9 727.1,88.9 728.2,88.4 729.3,87.4 730.4,82.6 731.4,81.2 732.5,80.2 733.6,78.2 734.7,76.8 735.8,75.4 736.9,74.3 738.0,73.3 739.1,71.4 740.2,76.0 741.3,76.2 742.4,75.1 743.5,74.2 744.6,67.9 745.7,66.9 746.8,65.8 747.9,72.1 749.0,71.3 750.0,69.9 751.1,69.1 752.2,89.5 753.3,88.6 754.4,87.8 755.5,87.2 756.6,91.2 757.7,89.8 758.8,89.1 759.9,88.5 761.0,86.8 762.1,90.3 763.2,91.2 764.3,88.7 765.4,78.8 766.5,78.2 767.6,77.5 768.6,76.7 769.7,74.0 770.8,69.3 771.9,69.8 773.0,68.9 774.1,62.0 775.2,60.9 776.3,59.9 777.4,58.5 778.5,63.9 779.6,61.0 780.7,60.1 781.8,59.3 782.9,57.0 784.0,56.0 785.1,57.4 786.2,56.5 787.2,46.6 788.3,45.4 789.4,44.2 790.5,43.2 791.6,42.1 792.7,44.1 793.8,43.0 794.9,42.0 796.0,99.1"/>
<text x="640" y="56" font-family="Arial" font-size="12" fill="#0f766e">ekf_nominal NEES proxy</text>
</svg>