<svg xmlns="http://www.w3.org/2000/svg" width="820" height="320" viewBox="0 0 820 320">
<rect width="100%" height="100%" fill="white"/>
<text x="52" y="30" font-family="Arial" font-size="18" font-weight="700">adaptive_dropout_robust NEES proxy</text>
<line x1="52" y1="274" x2="796" y2="274" stroke="#263238"/>
<line x1="52" y1="42" x2="52" y2="274" stroke="#263238"/>
<text x="52" y="306" font-family="Arial" font-size="12">time (s)</text>
<text x="630" y="306" font-family="Arial" font-size="12">value</text>

<rect x="314.6" y="42" width="153.2" height="232" fill="#fef3c7" opacity="0.72"/>
<polyline fill="none" stroke="#0f766e" stroke-width="2.3" points="52.0,147.8 53.1,148.8 54.2,152.1 55.3,157.1 56.4,162.9 57.5,169.0 58.6,175.2 59.7,181.4 60.8,187.4 61.8,193.2 62.9,199.1 64.0,205.3 65.1,211.0 66.2,151.9 67.3,152.0 68.4,152.1 69.5,152.2 70.6,152.3 71.7,152.4 72.8,152.4 73.9,149.3 75.0,159.3 76.1,159.4 77.2,170.4 78.3,170.4 79.4,170.1 80.4,169.9 81.5,169.7 82.6,167.0 83.7,166.4 84.8,169.2 85.9,169.0 87.0,168.9 88.1,168.7 89.2,168.6 90.3,168.4 91.4,167.1 92.5,166.6 93.6,167.8 94.7,167.2 95.8,203.2 96.9,204.0 98.0,203.6 99.0,203.1 100.1,201.6 101.2,201.2 102.3,201.1 103.4,200.7 104.5,200.2 105.6,200.2 106.7,199.5 107.8,199.3 108.9,197.4 110.0,198.6 111.1,198.1 112.2,197.7 113.3,196.8 114.4,195.8 115.5,195.0 116.6,194.1 117.6,190.7 118.7,190.2 119.8,189.2 120.9,175.4 122.0,174.0 123.1,179.9 124.2,178.6 125.3,177.2 126.4,169.1 127.5,163.8 128.6,138.9 129.7,136.5 130.8,134.1 131.9,113.7 133.0,111.2 134.1,108.8 135.2,112.8 136.2,132.2 137.3,138.2 138.4,138.4 139.5,109.5 140.6,129.1 141.7,129.4 142.8,115.5 143.9,116.4 145.0,110.6 146.1,102.3 147.2,103.1 148.3,118.1 149.4,125.1 150.5,125.1 151.6,126.2 152.7,127.2 153.8,105.3 154.8,106.3 155.9,107.4 157.0,120.8 158.1,127.1 159.2,128.2 160.3,126.5 161.4,139.4 162.5,135.4 163.6,135.5 164.7,137.6 165.8,137.5 166.9,131.9 168.0,131.6 169.1,131.2 170.2,128.3 171.3,127.8 172.4,133.1 173.4,132.6 174.5,132.1 175.6,132.7 176.7,132.2 177.8,132.2 178.9,131.8 180.0,129.7 181.1,128.8 182.2,128.2 183.3,197.8 184.4,196.3 185.5,195.7 186.6,196.5 187.7,196.0 188.8,198.2 189.9,197.1 191.0,196.9 192.0,187.9 193.1,187.3 194.2,176.9 195.3,166.9 196.4,168.7 197.5,178.2 198.6,177.9 199.7,177.6 200.8,173.9 201.9,175.6 203.0,174.9 204.1,174.2 205.2,176.7 206.3,173.1 207.4,172.9 208.5,172.8 209.6,173.0 210.6,172.9 211.7,183.5 212.8,183.3 213.9,184.6 215.0,181.6 216.1,185.5 217.2,183.9 218.3,185.1 219.4,185.9 220.5,185.5 221.6,184.1 222.7,183.7 223.8,181.0 224.9,181.9 226.0,181.3 227.1,189.6 228.2,188.3 229.2,187.4 230.3,186.6 231.4,185.2 232.5,179.7 233.6,178.8 234.7,179.8 235.8,179.0 236.9,169.6 238.0,166.1 239.1,158.7 240.2,156.9 241.3,151.1 242.4,148.9 243.5,146.8 244.6,144.7 245.7,142.5 246.8,148.2 247.8,146.2 248.9,144.8 250.0,151.0 251.1,150.0 252.2,159.9 253.3,159.1 254.4,157.4 255.5,163.9 256.6,163.2 257.7,148.4 258.8,146.1 259.9,138.2 261.0,136.2 262.1,134.6 263.2,128.2 264.3,127.1 265.4,126.1 266.4,128.6 267.5,128.1 268.6,140.5 269.7,140.2 270.8,99.4 271.9,99.1 273.0,98.8 274.1,103.6 275.2,103.3 276.3,96.3 277.4,96.6 278.5,95.7 279.6,97.1 280.7,96.7 281.8,99.4 282.9,98.9 284.0,98.0 285.0,98.6 286.1,98.1 287.2,97.6 288.3,93.4 289.4,89.6 290.5,89.5 291.6,88.6 292.7,88.6 293.8,87.5 294.9,86.3 296.0,85.8 297.1,84.6 298.2,79.2 299.3,77.0 300.4,75.4 301.5,69.2 302.6,75.9 303.6,74.4 304.7,66.3 305.8,61.7 306.9,60.7 308.0,65.6 309.1,64.6 310.2,61.4 311.3,61.0 312.4,62.2 313.5,61.8 314.6,70.4 315.7,72.1 316.8,73.8 317.9,74.9 319.0,67.4 320.1,70.3 321.2,71.0 322.2,71.7 323.3,78.4 324.4,79.6 325.5,78.2 326.6,79.4 327.7,80.8 328.8,81.9 329.9,83.1 331.0,86.9 332.1,84.7 333.2,85.3 334.3,83.8 335.4,84.9 336.5,84.4 337.6,88.0 338.7,88.7 339.8,89.6 340.8,91.4 341.9,73.1 343.0,73.1 344.1,73.2 345.2,73.0 346.3,72.1 347.4,65.2 348.5,65.1 349.6,78.5 350.7,76.9 351.8,78.3 352.9,79.7 354.0,71.8 355.1,72.2 356.2,78.5 357.3,79.1 358.4,75.1 359.4,75.3 360.5,75.7 361.6,72.1 362.7,72.7 363.8,78.0 364.9,78.6 366.0,79.4 367.1,82.7 368.2,83.6 369.3,85.0 370.4,82.9 371.5,80.0 372.6,63.2 373.7,64.0 374.8,80.2 375.9,54.4 377.0,53.3 378.0,44.9 379.1,44.3 380.2,42.0 381.3,54.8 382.4,55.6 383.5,56.4 384.6,53.3 385.7,66.5 386.8,98.2 387.9,99.5 389.0,107.5 390.1,107.0 391.2,104.4 392.3,105.6 393.4,108.0 394.5,111.3 395.6,112.5 396.6,113.6 397.7,114.7 398.8,114.0 399.9,118.4 401.0,119.2 402.1,119.8 403.2,122.3 404.3,122.9 405.4,124.1 406.5,124.6 407.6,128.3 408.7,129.2 409.8,130.1 410.9,129.5 412.0,130.1 413.1,131.1 414.2,131.7 415.2,132.3 416.3,128.0 417.4,128.1 418.5,132.4 419.6,133.8 420.7,134.1 421.8,133.5 422.9,133.7 424.0,138.2 425.1,139.0 426.2,139.7 427.3,133.9 428.4,125.8 429.5,125.7 430.6,128.2 431.7,128.1 432.8,133.6 433.8,133.1 434.9,121.3 436.0,129.2 437.1,140.9 438.2,145.5 439.3,146.2 440.4,146.8 441.5,145.4 442.6,148.5 443.7,150.7 444.8,151.6 445.9,139.4 447.0,132.3 448.1,131.8 449.2,132.6 450.3,126.0 451.4,124.7 452.4,123.6 453.5,122.6 454.6,129.8 455.7,129.5 456.8,122.6 457.9,127.9 459.0,127.8 460.1,136.0 461.2,135.9 462.3,135.8 463.4,139.0 464.5,141.5 465.6,133.9 466.7,134.3 467.8,126.8 468.9,122.5 470.0,121.4 471.0,118.3 472.1,117.5 473.2,116.5 474.3,115.6 475.4,114.9 476.5,132.9 477.6,133.3 478.7,126.9 479.8,119.9 480.9,119.4 482.0,135.1 483.1,135.4 484.2,119.0 485.3,118.7 486.4,119.2 487.5,120.5 488.6,121.2 489.6,200.0 490.7,198.1 491.8,198.5 492.9,196.0 494.0,197.3 495.1,197.7 496.2,201.6 497.3,202.1 498.4,202.9 499.5,202.9 500.6,188.6 501.7,188.8 502.8,190.0 503.9,179.9 505.0,180.4 506.1,180.8 507.2,197.9 508.2,183.3 509.3,173.2 510.4,171.9 511.5,192.5 512.6,192.1 513.7,191.4 514.8,178.3 515.9,186.1 517.0,179.8 518.1,180.0 519.2,180.2 520.3,175.9 521.4,188.3 522.5,198.8 523.6,195.1 524.7,200.2 525.8,202.3 526.8,202.7 527.9,203.0 529.0,205.3 530.1,204.7 531.2,204.5 532.3,203.8 533.4,274.0 534.5,273.9 535.6,273.7 536.7,272.5 537.8,272.7 538.9,273.6 540.0,272.7 541.1,272.0 542.2,268.7 543.3,263.3 544.4,264.5 545.4,266.1 546.5,256.1 547.6,264.6 548.7,261.7 549.8,258.5 550.9,268.1 552.0,266.4 553.1,259.3 554.2,256.7 555.3,265.7 556.4,264.0 557.5,262.3 558.6,259.0 559.7,252.0 560.8,256.2 561.9,253.3 563.0,231.4 564.0,233.6 565.1,230.0 566.2,220.5 567.3,216.8 568.4,213.2 569.5,228.0 570.6,226.3 571.7,232.7 572.8,231.5 573.9,231.4 575.0,239.9 576.1,239.0 577.2,249.9 578.3,249.4 579.4,249.0 580.5,248.6 581.6,248.3 582.6,258.4 583.7,258.8 584.8,257.7 585.9,258.0 587.0,263.9 588.1,268.8 589.2,269.0 590.3,269.3 591.4,272.6 592.5,272.4 593.6,272.1 594.7,271.7 595.8,270.9 596.9,270.4 598.0,270.3 599.1,270.2 600.2,268.9 601.2,268.7 602.3,267.9 603.4,267.8 604.5,266.3 605.6,265.5 606.7,265.3 607.8,262.5 608.9,262.4 610.0,263.4 611.1,263.1 612.2,262.9 613.3,262.1 614.4,261.8 615.5,264.9 616.6,264.6 617.7,264.4 618.8,264.4 619.8,264.2 620.9,260.9 622.0,260.6 623.1,260.4 624.2,261.6 625.3,261.3 626.4,261.1 627.5,260.6 628.6,260.3 629.7,260.0 630.8,258.9 631.9,257.9 633.0,257.7 634.1,257.4 635.2,253.8 636.3,253.6 637.4,253.4 638.4,251.2 639.5,250.8 640.6,250.4 641.7,250.1 642.8,248.5 643.9,248.2 645.0,248.0 646.1,247.6 647.2,242.4 648.3,246.1 649.4,245.7 650.5,245.3 651.6,239.4 652.7,238.8 653.8,236.6 654.9,236.6 656.0,236.1 657.0,228.9 658.1,228.3 659.2,227.8 660.3,226.4 661.4,228.7 662.5,229.2 663.6,228.9 664.7,228.7 665.8,230.5 666.9,230.4 668.0,230.2 669.1,222.6 670.2,208.3 671.3,207.9 672.4,207.6 673.5,194.0 674.6,193.5 675.6,197.9 676.7,197.4 677.8,196.9 678.9,211.2 680.0,211.0 681.1,212.6 682.2,212.5 683.3,220.3 684.4,215.4 685.5,215.5 686.6,213.8 687.7,213.7 688.8,213.6 689.9,214.7 691.0,214.6 692.1,208.1 693.2,216.2 694.2,215.7 695.3,220.0 696.4,219.7 697.5,219.7 698.6,224.6 699.7,222.2 700.8,223.0 701.9,222.5 703.0,223.2 704.1,222.6 705.2,219.4 706.3,220.9 707.4,220.2 708.5,217.5 709.6,217.2 710.7,216.6 711.8,216.3 712.8,212.5 713.9,211.7 715.0,211.1 716.1,210.3 717.2,208.9 718.3,210.7 719.4,210.1 720.5,209.5 721.6,208.8 722.7,198.2 723.8,197.4 724.9,169.6 726.0,172.9 727.1,172.4 728.2,155.7 729.3,155.3 730.4,171.2 731.4,177.8 732.5,178.1 733.6,187.4 734.7,181.7 735.8,185.3 736.9,184.8 738.0,184.3 739.1,189.0 740.2,187.3 741.3,181.5 742.4,184.6 743.5,184.0 744.6,178.5 745.7,177.1 746.8,175.8 747.9,188.6 749.0,188.3 750.0,191.0 751.1,190.7 752.2,197.8 753.3,195.1 754.4,194.5 755.5,193.3 756.6,198.3 757.7,199.1 758.8,199.0 759.9,198.8 761.0,198.6 762.1,200.1 763.2,200.1 764.3,198.8 765.4,192.9 766.5,192.2 767.6,191.3 768.6,190.3 769.7,185.4 770.8,186.2 771.9,186.9 773.0,186.0 774.1,176.5 775.2,174.9 776.3,173.3 777.4,170.4 778.5,178.2 779.6,172.4 780.7,171.8 781.8,171.3 782.9,177.6 784.0,176.8 785.1,177.9 786.2,177.1 787.2,171.7 788.3,170.3 789.4,168.8 790.5,167.1 791.6,165.6 792.7,167.5 793.8,166.5 794.9,165.2 796.0,213.8"/>
<text x="640" y="56" font-family="Arial" font-size="12" fill="#0f766e">adaptive_dropout_robust NEES proxy</text>
</svg>