<svg xmlns="http://www.w3.org/2000/svg" width="820" height="320" viewBox="0 0 820 320">
<rect width="100%" height="100%" fill="white"/>
<text x="52" y="30" font-family="Arial" font-size="18" font-weight="700">adaptive_nominal NEES proxy</text>
<line x1="52" y1="274" x2="796" y2="274" stroke="#263238"/>
<line x1="52" y1="42" x2="52" y2="274" stroke="#263238"/>
<text x="52" y="306" font-family="Arial" font-size="12">time (s)</text>
<text x="630" y="306" font-family="Arial" font-size="12">value</text>

<rect x="314.6" y="42" width="153.2" height="232" fill="#fef3c7" opacity="0.72"/>
<polyline fill="none" stroke="#0f766e" stroke-width="2.3" points="52.0,201.8 53.1,204.0 54.2,209.9 55.3,217.3 56.4,224.9 57.5,232.3 58.6,239.2 59.7,245.7 60.8,251.9 61.8,257.6 62.9,262.6 64.0,268.7 65.1,274.0 66.2,208.6 67.3,208.8 68.4,209.1 69.5,209.3 70.6,209.6 71.7,209.8 72.8,210.1 73.9,206.9 75.0,213.9 76.1,214.1 77.2,226.4 78.3,226.3 79.4,227.5 80.4,227.4 81.5,227.3 82.6,228.5 83.7,228.4 84.8,227.9 85.9,227.9 87.0,227.5 88.1,227.6 89.2,227.4 90.3,227.2 91.4,225.8 92.5,225.4 93.6,226.7 94.7,226.1 95.8,258.4 96.9,258.7 98.0,258.4 99.0,258.0 100.1,257.0 101.2,256.6 102.3,256.5 103.4,256.2 104.5,255.8 105.6,255.7 106.7,254.9 107.8,254.8 108.9,253.3 110.0,254.1 111.1,253.7 112.2,253.4 113.3,252.8 114.4,251.7 115.5,251.1 116.6,250.6 117.6,249.2 118.7,248.4 119.8,247.7 120.9,241.2 122.0,240.3 123.1,242.9 124.2,242.2 125.3,241.4 126.4,237.5 127.5,234.0 128.6,217.0 129.7,215.8 130.8,214.6 131.9,202.8 133.0,201.5 134.1,200.3 135.2,202.6 136.2,214.5 137.3,217.6 138.4,217.4 139.5,191.8 140.6,202.9 141.7,202.7 142.8,194.3 143.9,194.4 145.0,191.5 146.1,186.7 147.2,186.8 148.3,195.4 149.4,199.9 150.5,200.6 151.6,200.9 152.7,201.2 153.8,189.1 154.8,189.6 155.9,190.0 157.0,197.4 158.1,201.1 159.2,201.5 160.3,200.3 161.4,208.7 162.5,206.4 163.6,206.3 164.7,207.2 165.8,207.0 166.9,203.6 168.0,203.3 169.1,203.0 170.2,201.4 171.3,201.1 172.4,205.1 173.4,204.6 174.5,204.1 175.6,204.9 176.7,204.4 177.8,204.0 178.9,203.6 180.0,202.6 181.1,202.0 182.2,201.6 183.3,259.9 184.4,260.0 185.5,259.7 186.6,259.5 187.7,259.2 188.8,259.3 189.9,259.2 191.0,259.0 192.0,256.6 193.1,256.4 194.2,249.9 195.3,245.9 196.4,246.0 197.5,249.6 198.6,249.3 199.7,249.1 200.8,247.3 201.9,248.0 203.0,247.7 204.1,247.4 205.2,249.4 206.3,247.0 207.4,246.7 208.5,246.5 209.6,246.7 210.6,246.5 211.7,250.2 212.8,250.0 213.9,250.3 215.0,248.6 216.1,250.4 217.2,250.0 218.3,249.5 219.4,249.0 220.5,248.6 221.6,248.5 222.7,248.2 223.8,246.9 224.9,246.6 226.0,246.2 227.1,252.2 228.2,250.4 229.2,250.0 230.3,249.5 231.4,248.9 232.5,247.5 233.6,247.0 234.7,246.8 235.8,246.3 236.9,243.9 238.0,242.1 239.1,239.3 240.2,238.7 241.3,235.4 242.4,234.7 243.5,233.9 244.6,233.2 245.7,229.9 246.8,232.1 247.8,231.3 248.9,235.1 250.0,236.7 251.1,236.1 252.2,238.6 253.3,238.0 254.4,237.0 255.5,238.2 256.6,237.8 257.7,233.1 258.8,232.4 259.9,228.3 261.0,227.7 262.1,227.2 263.2,223.6 264.3,223.1 265.4,222.6 266.4,223.3 267.5,223.0 268.6,227.4 269.7,227.0 270.8,185.7 271.9,185.3 273.0,184.9 274.1,186.3 275.2,185.9 276.3,182.9 277.4,182.9 278.5,182.3 279.6,182.8 280.7,182.4 281.8,183.1 282.9,182.7 284.0,182.3 285.0,181.7 286.1,181.3 287.2,180.9 288.3,178.2 289.4,176.0 290.5,176.0 291.6,175.5 292.7,173.7 293.8,173.1 294.9,172.5 296.0,171.6 297.1,171.1 298.2,166.2 299.3,165.6 300.4,164.8 301.5,163.4 302.6,164.6 303.6,163.8 304.7,162.0 305.8,160.4 306.9,159.7 308.0,159.9 309.1,159.2 310.2,159.0 311.3,158.3 312.4,157.9 313.5,157.2 314.6,160.9 315.7,160.7 316.8,160.4 317.9,160.1 319.0,154.9 320.1,154.5 321.2,154.1 322.2,153.6 323.3,157.9 324.4,157.7 325.5,156.7 326.6,156.5 327.7,156.3 328.8,156.0 329.9,155.8 331.0,156.0 332.1,152.5 333.2,152.1 334.3,151.5 335.4,151.2 336.5,148.4 337.6,149.1 338.7,148.8 339.8,149.5 340.8,148.6 341.9,140.7 343.0,140.3 344.1,139.9 345.2,139.4 346.3,136.5 347.4,133.3 348.5,132.7 349.6,138.7 350.7,137.4 351.8,137.1 352.9,136.7 354.0,131.2 355.1,130.6 356.2,132.2 357.3,131.6 358.4,133.4 359.4,132.9 360.5,132.4 361.6,130.5 362.7,130.0 363.8,129.6 364.9,129.1 366.0,128.6 367.1,128.6 368.2,128.1 369.3,128.1 370.4,126.4 371.5,121.9 372.6,113.8 373.7,113.2 374.8,119.2 375.9,104.6 377.0,103.7 378.0,99.5 379.1,98.7 380.2,96.3 381.3,100.2 382.4,99.6 383.5,99.1 384.6,96.7 385.7,100.6 386.8,114.0 387.9,113.7 389.0,116.7 390.1,116.9 391.2,114.2 392.3,113.9 393.4,112.0 394.5,112.8 395.6,112.5 396.6,112.1 397.7,111.8 398.8,110.3 399.9,111.9 401.0,111.5 402.1,111.6 403.2,112.2 404.3,111.7 405.4,112.2 406.5,111.6 407.6,115.5 408.7,115.2 409.8,114.9 410.9,112.3 412.0,111.9 413.1,112.0 414.2,111.6 415.2,111.2 416.3,108.7 417.4,108.2 418.5,109.3 419.6,110.5 420.7,110.1 421.8,109.3 422.9,109.0 424.0,110.7 425.1,110.4 426.2,110.2 427.3,107.8 428.4,104.5 429.5,104.2 430.6,104.7 431.7,104.5 432.8,101.9 433.8,101.4 434.9,91.6 436.0,95.1 437.1,100.7 438.2,102.8 439.3,102.5 440.4,102.2 441.5,100.7 442.6,102.9 443.7,103.7 444.8,103.6 445.9,90.1 447.0,86.2 448.1,85.6 449.2,85.7 450.3,76.5 451.4,75.6 452.4,74.8 453.5,74.0 454.6,76.7 455.7,76.0 456.8,68.9 457.9,71.0 459.0,70.3 460.1,73.7 461.2,72.9 462.3,72.2 463.4,73.3 464.5,72.5 465.6,67.7 466.7,67.0 467.8,60.1 468.9,54.7 470.0,53.6 471.0,51.6 472.1,50.6 473.2,48.0 474.3,46.9 475.4,45.9 476.5,59.3 477.6,58.7 478.7,50.6 479.8,46.0 480.9,48.7 482.0,57.5 483.1,57.0 484.2,46.9 485.3,46.9 486.4,46.5 487.5,46.9 488.6,46.6 489.6,126.1 490.7,126.7 491.8,126.5 492.9,124.8 494.0,123.2 495.1,122.8 496.2,124.4 497.3,124.0 498.4,125.5 499.5,125.0 500.6,115.3 501.7,115.0 502.8,115.0 503.9,109.5 505.0,109.2 506.1,108.8 507.2,117.2 508.2,107.8 509.3,102.9 510.4,102.2 511.5,118.3 512.6,117.6 513.7,116.8 514.8,111.3 515.9,110.9 517.0,107.7 518.1,106.8 519.2,105.9 520.3,103.4 521.4,110.3 522.5,114.9 523.6,113.0 524.7,113.7 525.8,113.2 526.8,112.4 527.9,111.6 529.0,112.8 530.1,112.0 531.2,111.3 532.3,110.5 533.4,176.8 534.5,176.2 535.6,175.5 536.7,174.9 537.8,174.3 538.9,174.9 540.0,174.1 541.1,173.4 542.2,172.2 543.3,169.6 544.4,170.0 545.4,169.8 546.5,166.8 547.6,168.2 548.7,167.2 549.8,166.3 550.9,167.7 552.0,161.8 553.1,159.7 554.2,158.6 555.3,159.7 556.4,158.8 557.5,157.9 558.6,156.9 559.7,153.5 560.8,153.9 561.9,152.9 563.0,147.8 564.0,146.0 565.1,144.7 566.2,139.3 567.3,137.9 568.4,136.6 569.5,138.9 570.6,137.6 571.7,139.0 572.8,137.9 573.9,137.6 575.0,139.6 576.1,138.6 577.2,177.4 578.3,176.5 579.4,175.6 580.5,174.8 581.6,173.9 582.6,177.5 583.7,176.7 584.8,175.5 585.9,174.8 587.0,175.3 588.1,177.8 589.2,177.2 590.3,176.6 591.4,176.0 592.5,175.3 593.6,174.7 594.7,174.1 595.8,172.9 596.9,172.2 598.0,171.5 599.1,171.1 600.2,169.3 601.2,168.7 602.3,167.8 603.4,167.2 604.5,166.4 605.6,165.6 606.7,165.0 607.8,163.6 608.9,163.0 610.0,163.2 611.1,162.6 612.2,162.0 613.3,162.3 614.4,161.8 615.5,161.9 616.6,161.3 617.7,160.8 618.8,160.4 619.8,159.8 620.9,162.4 622.0,161.8 623.1,161.3 624.2,160.9 625.3,160.4 626.4,159.8 627.5,159.2 628.6,158.7 629.7,158.2 630.8,157.6 631.9,156.9 633.0,156.5 634.1,156.0 635.2,154.9 636.3,154.5 637.4,154.1 638.4,151.2 639.5,150.7 640.6,150.2 641.7,149.8 642.8,149.7 643.9,149.3 645.0,148.9 646.1,148.4 647.2,146.6 648.3,146.9 649.4,146.5 650.5,146.1 651.6,143.3 652.7,142.8 653.8,141.6 654.9,141.2 656.0,140.8 657.0,136.4 658.1,136.0 659.2,135.5 660.3,134.8 661.4,134.3 662.5,134.0 663.6,133.6 664.7,132.4 665.8,132.6 666.9,132.3 668.0,131.9 669.1,127.4 670.2,122.5 671.3,122.0 672.4,121.6 673.5,114.2 674.6,113.7 675.6,113.9 676.7,113.3 677.8,112.8 678.9,113.4 680.0,112.9 681.1,112.9 682.2,112.3 683.3,117.4 684.4,115.1 685.5,114.6 686.6,113.3 687.7,112.7 688.8,112.1 689.9,111.9 691.0,111.4 692.1,102.4 693.2,104.6 694.2,103.9 695.3,105.7 696.4,105.0 697.5,104.6 698.6,105.8 699.7,102.2 700.8,102.0 701.9,101.2 703.0,101.0 704.1,100.3 705.2,95.5 706.3,95.5 707.4,94.8 708.5,104.1 709.6,103.4 710.7,102.8 711.8,102.1 712.8,93.0 713.9,92.2 715.0,91.4 716.1,90.6 717.2,89.5 718.3,91.3 719.4,90.5 720.5,89.8 721.6,89.0 722.7,80.0 723.8,79.3 724.9,67.5 726.0,73.4 727.1,72.9 728.2,65.7 729.3,65.2 730.4,67.7 731.4,69.3 732.5,68.7 733.6,71.3 734.7,66.0 735.8,66.6 736.9,65.8 738.0,65.0 739.1,65.9 740.2,69.3 741.3,64.6 742.4,65.5 743.5,64.8 744.6,54.8 745.7,53.7 746.8,52.7 747.9,66.6 749.0,66.0 750.0,66.6 751.1,66.0 752.2,88.8 753.3,86.3 754.4,85.6 755.5,84.7 756.6,91.3 757.7,91.2 758.8,90.7 759.9,90.1 761.0,89.6 762.1,93.9 763.2,93.5 764.3,92.9 765.4,84.0 766.5,83.3 767.6,82.6 768.6,81.9 769.7,79.8 770.8,72.4 771.9,72.0 773.0,71.1 774.1,65.3 775.2,64.1 776.3,63.0 777.4,61.4 778.5,68.2 779.6,65.5 780.7,64.6 781.8,63.8 782.9,60.5 784.0,59.5 785.1,59.0 786.2,58.0 787.2,47.6 788.3,46.4 789.4,45.1 790.5,43.7 791.6,42.4 792.7,44.2 793.8,43.2 794.9,42.0 796.0,115.4"/>
<text x="640" y="56" font-family="Arial" font-size="12" fill="#0f766e">adaptive_nominal NEES proxy</text>
</svg>