<svg xmlns="http://www.w3.org/2000/svg" width="820" height="320" viewBox="0 0 820 320">
<rect width="100%" height="100%" fill="white"/>
<text x="52" y="30" font-family="Arial" font-size="18" font-weight="700">robust_dropout_robust NIS</text>
<line x1="52" y1="274" x2="796" y2="274" stroke="#263238"/>
<line x1="52" y1="42" x2="52" y2="274" stroke="#263238"/>
<text x="52" y="306" font-family="Arial" font-size="12">time (s)</text>
<text x="630" y="306" font-family="Arial" font-size="12">value</text>

<polyline fill="none" stroke="#0f766e" stroke-width="2.3" points="52.0,249.8 52.0,271.2 62.9,270.9 66.2,269.4 73.9,273.4 75.0,261.6 75.0,260.8 77.2,235.2 78.3,262.4 79.4,273.4 82.6,266.0 83.7,268.5 84.8,239.2 84.8,265.3 87.0,243.3 88.1,273.8 91.4,267.7 92.5,213.9 93.6,261.7 95.8,246.0 95.8,230.8 95.8,235.8 96.9,267.9 99.0,272.8 100.1,231.1 102.3,273.4 105.6,202.0 106.7,271.2 107.8,273.5 108.9,236.4 110.0,266.2 113.3,273.6 114.4,250.5 114.4,263.6 117.6,265.2 117.6,271.0 118.7,261.5 120.9,239.4 122.0,257.6 123.1,262.8 126.4,270.2 127.5,272.6 128.6,262.8 128.6,266.0 131.9,272.2 131.9,263.5 135.2,269.9 136.2,211.8 137.3,269.7 139.5,201.6 139.5,263.3 139.5,264.0 140.6,236.1 142.8,257.8 145.0,256.1 146.1,271.3 148.3,252.5 149.4,258.0 150.5,273.7 150.5,272.0 153.8,262.4 153.8,253.7 157.0,253.1 158.1,263.2 160.3,273.3 161.4,234.6 161.4,264.4 162.5,241.1 164.7,269.3 166.9,263.6 166.9,272.3 170.2,274.0 170.2,250.8 172.4,273.9 172.4,194.7 175.6,250.3 175.6,272.9 177.8,273.3 180.0,267.3 181.1,274.0 183.3,274.0 183.3,172.2 183.3,267.6 184.4,245.0 186.6,271.7 188.8,263.4 189.9,272.1 192.0,260.4 192.0,259.0 194.2,214.3 195.3,265.7 196.4,266.3 197.5,255.3 200.8,272.3 200.8,254.9 201.9,272.1 205.2,268.1 206.3,269.3 206.3,253.8 208.5,273.8 209.6,269.8 211.7,235.6 213.9,271.7 215.0,249.7 216.1,223.9 217.2,272.8 218.3,255.0 219.4,267.7 221.6,269.3 223.8,266.3 224.9,268.7 227.1,273.8 227.1,237.7 227.1,272.8 228.2,263.5 229.2,273.9 231.4,264.3 232.5,254.5 234.7,271.5 236.9,223.2 238.0,273.2 239.1,271.9 241.3,270.0 241.3,273.9 243.5,273.8 245.7,241.9 246.8,268.9 248.9,268.9 248.9,244.8 250.0,237.6 252.2,261.9 254.4,272.3 255.5,264.8 257.7,274.0 257.7,228.3 259.9,274.0 259.9,273.2 263.2,271.8 263.2,271.4 266.4,272.3 268.6,261.9 270.8,197.2 270.8,258.0 270.8,270.1 274.1,258.6 276.3,258.5 277.4,272.6 279.6,268.2 279.6,262.9 281.8,266.5 281.8,273.3 284.0,231.5 285.0,255.8 288.3,254.6 289.4,270.3 290.5,273.8 292.7,228.1 292.7,203.9 296.0,272.2 298.2,252.5 299.3,272.9 301.5,261.7 302.6,239.0 303.6,272.2 304.7,249.0 305.8,270.7 308.0,265.6 310.2,256.7 310.2,261.6 312.4,273.3 314.6,250.7 314.6,271.8 314.6,246.9 317.9,273.8 319.0,216.9 320.1,270.1 323.3,272.9 323.3,218.1 325.5,274.0 325.5,261.6 327.7,267.0 328.8,274.0 331.0,267.2 332.1,239.1 334.3,241.8 336.5,262.7 336.5,197.3 337.6,256.4 339.8,259.1 340.8,224.3 341.9,196.5 345.2,274.0 346.3,254.7 347.4,271.5 347.4,273.2 349.6,217.8 350.7,272.6 354.0,273.7 354.0,237.6 356.2,264.6 358.4,271.0 358.4,206.3 358.4,266.4 361.6,272.7 363.8,249.2 363.8,271.8 367.1,271.3 367.1,272.1 369.3,273.7 370.4,273.3 371.5,248.6 372.6,250.5 374.8,251.4 375.9,195.6 378.0,272.7 380.2,273.9 381.3,211.1 384.6,273.9 385.7,249.4 386.8,197.4 389.0,261.7 390.1,221.5 391.2,273.3 391.2,273.3 393.4,234.9 394.5,271.8 398.8,259.2 399.9,265.0 402.1,266.8 402.1,272.1 403.2,268.5 405.4,253.9 407.6,223.3 407.6,253.6 410.9,242.4 410.9,236.0 413.1,266.5 414.2,271.4 415.2,267.8 416.3,242.2 418.5,261.0 419.6,268.8 421.8,273.5 424.0,265.6 424.0,268.3 427.3,249.0 428.4,246.1 430.6,272.0 432.8,237.1 432.8,248.3 434.9,218.2 436.0,261.2 437.1,226.7 438.2,262.8 441.5,271.1 442.6,259.5 443.7,271.6 445.9,133.4 445.9,273.5 447.0,267.3 449.2,273.2 450.3,200.4 451.4,273.8 454.6,255.8 456.8,262.9 457.9,269.3 460.1,228.1 460.1,265.3 463.4,271.6 464.5,241.3 465.6,267.6 467.8,273.7 467.8,268.8 468.9,266.0 471.0,274.0 473.2,270.2 473.2,273.9 476.5,267.8 476.5,238.5 478.7,264.5 479.8,272.2 480.9,260.0 482.0,255.7 484.2,259.5 485.3,266.0 487.5,273.6 489.6,230.0 489.6,261.4 490.7,268.6 492.9,273.9 494.0,258.2 496.2,271.9 498.4,270.4 498.4,261.6 500.6,265.6 500.6,272.0 502.8,271.8 503.9,269.9 507.2,250.1 508.2,250.4 509.3,271.7 511.5,273.7 511.5,270.1 511.5,194.7 514.8,265.4 515.9,252.2 517.0,272.1 520.3,273.4 521.4,220.1 522.5,230.7 523.6,270.2 524.7,249.9 525.8,272.5 529.0,270.0 529.0,246.6 531.2,272.2 533.4,257.6 533.4,208.0 533.4,267.5 534.5,273.6 536.7,257.7 538.9,211.0 540.0,272.5 542.2,269.8 543.3,256.5 544.4,263.8 545.4,269.2 546.5,250.6 547.6,241.9 550.9,227.0 552.0,215.7 553.1,264.0 555.3,268.0 555.3,272.6 555.3,201.7 558.6,273.5 559.7,267.4 560.8,258.6 563.0,220.1 564.0,268.1 566.2,273.4 566.2,253.8 569.5,242.4 569.5,273.9 571.7,261.2 573.9,267.4 575.0,253.4 577.2,193.7 577.2,234.1 577.2,267.4 580.5,193.7 582.6,245.3 582.6,193.7 584.8,272.8 587.0,240.1 588.1,194.6 591.4,241.3 591.4,266.6 593.6,273.9 595.8,224.5 596.9,265.8 599.1,269.6 600.2,270.6 600.2,246.9 602.3,256.0 604.5,211.9 605.6,268.6 607.8,273.8 607.8,262.2 610.0,247.1 613.3,257.6 613.3,255.6 615.5,213.5 616.6,270.8 618.8,273.5 620.9,262.6 620.9,259.7 620.9,267.6 622.0,51.3 624.2,259.3 626.4,42.0 627.5,272.0 630.8,268.9 630.8,253.6 631.9,270.1 631.9,273.1 635.2,200.6 638.4,271.2 638.4,241.4 640.6,273.9 642.8,255.1 642.8,255.9 642.8,264.9 646.1,274.0 647.2,203.4 648.3,207.7 651.6,273.6 651.6,254.2 653.8,258.6 654.9,272.5 657.0,257.6 657.0,255.3 660.3,273.9 661.4,215.0 662.5,271.9 664.7,197.6 664.7,271.9 664.7,219.3 665.8,268.8 668.0,273.8 669.1,247.7 670.2,209.3 673.5,250.8 673.5,268.9 675.6,260.0 675.6,273.2 678.9,236.4 678.9,264.1 681.1,271.1 683.3,238.2 684.4,270.1 686.6,273.9 686.6,269.7 686.6,268.5 689.9,272.4 692.1,257.1 693.2,251.2 695.3,244.8 695.3,274.0 697.5,273.5 698.6,254.8 699.7,268.4 700.8,270.8 703.0,270.3 705.2,267.9 706.3,266.6 708.5,246.9 708.5,269.2 708.5,272.3 709.6,273.1 711.8,255.3 712.8,259.1 715.0,273.6 717.2,264.7 718.3,259.7 719.4,273.6 720.5,273.2 722.7,257.1 722.7,233.9 724.9,212.1 726.0,242.4 728.2,261.2 730.4,239.2 730.4,268.1 731.4,272.6 733.6,267.7 734.7,265.0 735.8,272.7 739.1,270.2 740.2,236.7 741.3,261.7 742.4,272.6 744.6,254.7 744.6,273.6 747.9,270.7 747.9,210.8 750.0,270.9 752.2,248.0 752.2,271.8 753.3,266.5 753.3,273.3 755.5,273.6 756.6,237.8 757.7,271.9 761.0,271.1 762.1,261.1 763.2,268.8 764.3,265.4 765.4,179.0 766.5,273.7 769.7,269.6 770.8,217.7 771.9,269.0 774.1,244.8 774.1,263.2 774.1,268.7 777.4,274.0 778.5,191.9 779.6,269.2 782.9,250.7 782.9,242.2 785.1,270.2 785.1,264.0 787.2,236.7 788.3,274.0 790.5,273.4 792.7,254.9 793.8,274.0 796.0,264.4 796.0,206.7 796.0,269.9"/>
<text x="640" y="56" font-family="Arial" font-size="12" fill="#0f766e">robust_dropout_robust NIS</text>
</svg>