<svg xmlns="http://www.w3.org/2000/svg" width="820" height="320" viewBox="0 0 820 320">
<rect width="100%" height="100%" fill="white"/>
<text x="52" y="30" font-family="Arial" font-size="18" font-weight="700">ekf_nominal NIS</text>
<line x1="52" y1="274" x2="796" y2="274" stroke="#263238"/>
<line x1="52" y1="42" x2="52" y2="274" stroke="#263238"/>
<text x="52" y="306" font-family="Arial" font-size="12">time (s)</text>
<text x="630" y="306" font-family="Arial" font-size="12">value</text>

<polyline fill="none" stroke="#0f766e" stroke-width="2.3" points="52.0,272.9 52.0,273.9 62.9,273.8 66.2,273.5 73.9,273.9 75.0,273.5 75.0,273.3 77.2,271.9 78.3,273.5 79.4,273.9 82.6,273.4 83.7,273.8 84.8,273.0 84.8,273.2 87.0,272.8 88.1,274.0 91.4,273.8 92.5,271.4 93.6,273.4 95.8,272.8 95.8,270.6 95.8,271.0 96.9,273.8 99.0,274.0 100.1,272.2 102.3,274.0 105.6,270.6 106.7,273.8 107.8,274.0 108.9,272.1 110.0,273.7 113.3,274.0 114.4,272.8 114.4,273.6 117.6,273.7 117.6,273.8 118.7,273.6 120.9,272.6 122.0,273.2 123.1,273.6 126.4,273.8 127.5,273.8 128.6,273.6 128.6,273.4 131.9,274.0 131.9,273.6 135.2,273.8 136.2,271.6 137.3,273.8 139.5,271.2 139.5,273.0 139.5,273.3 140.6,272.5 142.8,273.4 145.0,273.3 146.1,273.9 148.3,273.1 149.4,273.3 150.5,274.0 150.5,273.8 153.8,273.5 153.8,273.2 157.0,273.2 158.1,273.5 160.3,274.0 161.4,272.4 161.4,273.3 162.5,272.7 164.7,273.8 166.9,273.6 166.9,273.9 170.2,274.0 170.2,272.9 172.4,274.0 172.4,267.0 175.6,272.7 175.6,274.0 177.8,274.0 180.0,273.7 181.1,274.0 183.3,274.0 183.3,267.3 183.3,273.6 184.4,272.5 186.6,273.9 188.8,273.7 189.9,273.9 192.0,273.4 192.0,273.3 194.2,269.3 195.3,273.7 196.4,273.8 197.5,273.3 200.8,273.9 200.8,273.0 201.9,273.9 205.2,273.6 206.3,273.8 206.3,273.2 208.5,274.0 209.6,273.8 211.7,272.6 213.9,273.9 215.0,272.7 216.1,270.3 217.2,273.9 218.3,273.5 219.4,273.8 221.6,273.8 223.8,273.7 224.9,273.8 227.1,274.0 227.1,271.8 227.1,273.9 228.2,273.4 229.2,274.0 231.4,273.5 232.5,273.2 234.7,273.9 236.9,271.9 238.0,273.9 239.1,273.9 241.3,273.7 241.3,274.0 243.5,274.0 245.7,272.7 246.8,273.8 248.9,273.8 248.9,271.9 250.0,272.7 252.2,273.6 254.4,274.0 255.5,273.7 257.7,274.0 257.7,271.9 259.9,274.0 259.9,273.9 263.2,274.0 263.2,273.9 266.4,274.0 268.6,273.6 270.8,270.9 270.8,272.8 270.8,273.7 274.1,273.5 276.3,273.2 277.4,274.0 279.6,273.7 279.6,273.7 281.8,273.7 281.8,274.0 284.0,272.4 285.0,273.4 288.3,273.3 289.4,273.8 290.5,274.0 292.7,272.1 292.7,268.6 296.0,273.9 298.2,272.8 299.3,274.0 301.5,273.5 302.6,272.8 303.6,273.9 304.7,273.0 305.8,273.8 308.0,273.7 310.2,273.3 310.2,273.5 312.4,274.0 314.6,273.1 314.6,273.9 314.6,272.0 317.9,274.0 319.0,271.7 320.1,273.9 323.3,274.0 323.3,271.9 325.5,274.0 325.5,273.0 327.7,273.8 328.8,274.0 331.0,273.7 332.1,272.4 334.3,272.8 336.5,273.6 336.5,268.2 337.6,273.4 339.8,273.4 340.8,271.9 341.9,269.8 345.2,274.0 346.3,273.3 347.4,273.9 347.4,274.0 349.6,271.8 350.7,274.0 354.0,274.0 354.0,272.6 356.2,273.6 358.4,273.9 358.4,271.1 358.4,273.4 361.6,274.0 363.8,273.1 363.8,273.9 367.1,273.9 367.1,274.0 369.3,274.0 370.4,274.0 371.5,272.9 372.6,273.1 374.8,273.1 375.9,270.4 378.0,273.9 380.2,274.0 381.3,271.8 384.6,274.0 385.7,272.8 386.8,270.4 389.0,273.5 390.1,272.2 391.2,274.0 391.2,274.0 393.4,272.1 394.5,273.9 398.8,273.6 399.9,273.6 402.1,273.7 402.1,273.8 403.2,273.8 405.4,273.2 407.6,272.0 407.6,273.3 410.9,272.7 410.9,272.4 413.1,273.4 414.2,273.9 415.2,273.5 416.3,272.8 418.5,273.5 419.6,273.6 421.8,274.0 424.0,273.8 424.0,273.6 427.3,273.0 428.4,272.4 430.6,273.9 432.8,272.6 432.8,272.7 434.9,269.7 436.0,273.5 437.1,272.4 438.2,273.5 441.5,273.9 442.6,273.5 443.7,273.9 445.9,267.7 445.9,274.0 447.0,273.8 449.2,274.0 450.3,270.8 451.4,274.0 454.6,273.6 456.8,273.2 457.9,273.8 460.1,271.9 460.1,273.6 463.4,273.9 464.5,273.0 465.6,273.8 467.8,274.0 467.8,273.6 468.9,273.5 471.0,274.0 473.2,273.8 473.2,274.0 476.5,273.7 476.5,272.7 478.7,273.3 479.8,274.0 480.9,273.5 482.0,273.2 484.2,273.5 485.3,273.6 487.5,274.0 489.6,270.5 489.6,273.0 490.7,273.8 492.9,274.0 494.0,273.3 496.2,273.9 498.4,273.8 498.4,273.4 500.6,273.7 500.6,273.9 502.8,273.8 503.9,273.9 507.2,273.0 508.2,272.9 509.3,273.9 511.5,274.0 511.5,273.9 511.5,266.9 514.8,273.6 515.9,273.1 517.0,273.9 520.3,274.0 521.4,271.4 522.5,270.8 523.6,273.8 524.7,273.0 525.8,274.0 529.0,273.9 529.0,272.6 531.2,273.9 533.4,273.6 533.4,267.0 533.4,273.5 534.5,274.0 536.7,273.3 538.9,270.9 540.0,273.9 542.2,273.8 543.3,273.2 544.4,273.2 545.4,273.8 546.5,272.4 547.6,272.8 550.9,272.3 552.0,271.7 553.1,273.6 555.3,273.8 555.3,273.7 555.3,268.7 558.6,274.0 559.7,273.2 560.8,273.5 563.0,271.7 564.0,273.9 566.2,274.0 566.2,272.3 569.5,273.2 569.5,274.0 571.7,273.6 573.9,273.8 575.0,273.3 577.2,104.5 577.2,269.9 577.2,273.5 580.5,100.6 582.6,272.8 582.6,104.4 584.8,274.0 587.0,272.3 588.1,265.1 591.4,272.1 591.4,273.7 593.6,274.0 595.8,272.3 596.9,273.7 599.1,273.7 600.2,273.8 600.2,273.1 602.3,273.2 604.5,271.5 605.6,273.7 607.8,274.0 607.8,273.3 610.0,272.1 613.3,273.0 613.3,273.4 615.5,271.9 616.6,274.0 618.8,274.0 620.9,273.5 620.9,272.5 620.9,273.6 622.0,68.8 624.2,273.4 626.4,42.0 627.5,274.0 630.8,273.9 630.8,273.2 631.9,273.9 631.9,274.0 635.2,271.4 638.4,273.8 638.4,273.0 640.6,274.0 642.8,273.3 642.8,273.4 642.8,273.4 646.1,274.0 647.2,271.5 648.3,271.3 651.6,274.0 651.6,273.0 653.8,272.9 654.9,273.9 657.0,273.2 657.0,273.4 660.3,274.0 661.4,271.8 662.5,273.9 664.7,271.0 664.7,273.7 664.7,270.1 665.8,273.7 668.0,274.0 669.1,273.1 670.2,271.7 673.5,273.2 673.5,273.7 675.6,273.4 675.6,274.0 678.9,272.3 678.9,273.5 681.1,273.8 683.3,272.1 684.4,273.9 686.6,274.0 686.6,273.8 686.6,273.5 689.9,273.9 692.1,273.2 693.2,273.0 695.3,272.7 695.3,274.0 697.5,273.9 698.6,273.1 699.7,273.9 700.8,273.8 703.0,273.8 705.2,273.9 706.3,273.6 708.5,272.8 708.5,273.3 708.5,273.8 709.6,273.9 711.8,273.2 712.8,273.5 715.0,274.0 717.2,273.6 718.3,273.5 719.4,274.0 720.5,274.0 722.7,273.2 722.7,272.3 724.9,271.4 726.0,272.5 728.2,273.4 730.4,272.9 730.4,273.6 731.4,274.0 733.6,273.8 734.7,273.7 735.8,274.0 739.1,273.9 740.2,272.3 741.3,273.0 742.4,274.0 744.6,273.2 744.6,274.0 747.9,273.9 747.9,271.5 750.0,273.9 752.2,271.7 752.2,273.9 753.3,273.7 753.3,274.0 755.5,274.0 756.6,272.3 757.7,273.9 761.0,273.9 762.1,273.1 763.2,273.6 764.3,273.7 765.4,269.6 766.5,274.0 769.7,273.8 770.8,272.0 771.9,273.8 774.1,272.8 774.1,273.6 774.1,273.6 777.4,274.0 778.5,270.7 779.6,273.8 782.9,273.1 782.9,272.5 785.1,273.8 785.1,273.2 787.2,272.2 788.3,274.0 790.5,274.0 792.7,273.5 793.8,274.0 796.0,273.6 796.0,268.4 796.0,273.7"/>
<text x="640" y="56" font-family="Arial" font-size="12" fill="#0f766e">ekf_nominal NIS</text>
</svg>