<svg xmlns="http://www.w3.org/2000/svg" width="820" height="320" viewBox="0 0 820 320">
<rect width="100%" height="100%" fill="white"/>
<text x="52" y="30" font-family="Arial" font-size="18" font-weight="700">robust_nominal NIS</text>
<line x1="52" y1="274" x2="796" y2="274" stroke="#263238"/>
<line x1="52" y1="42" x2="52" y2="274" stroke="#263238"/>
<text x="52" y="306" font-family="Arial" font-size="12">time (s)</text>
<text x="630" y="306" font-family="Arial" font-size="12">value</text>

<polyline fill="none" stroke="#0f766e" stroke-width="2.3" points="52.0,250.1 52.0,270.7 62.9,269.8 66.2,263.5 73.9,273.6 75.0,259.0 75.0,257.2 77.2,223.1 78.3,261.3 79.4,270.7 82.6,260.3 83.7,268.2 84.8,248.0 84.8,254.0 87.0,244.6 88.1,273.3 91.4,269.2 92.5,214.0 93.6,260.1 95.8,246.8 95.8,222.7 95.8,200.2 96.9,267.8 99.0,272.9 100.1,226.1 102.3,273.4 105.6,201.8 106.7,268.7 107.8,273.4 108.9,231.8 110.0,266.0 113.3,273.7 114.4,246.0 114.4,263.4 117.6,265.6 117.6,268.2 118.7,262.8 120.9,239.9 122.0,258.0 123.1,263.2 126.4,270.2 127.5,271.6 128.6,262.9 128.6,258.6 131.9,272.8 131.9,264.0 135.2,269.9 136.2,209.9 137.3,269.7 139.5,201.1 139.5,262.9 139.5,255.3 140.6,235.7 142.8,259.2 145.0,257.4 146.1,271.7 148.3,252.0 149.4,255.6 150.5,273.8 150.5,269.9 153.8,263.2 153.8,254.7 157.0,253.0 158.1,261.5 160.3,273.4 161.4,234.6 161.4,255.3 162.5,241.3 164.7,269.5 166.9,263.5 166.9,272.4 170.2,274.0 170.2,248.1 172.4,273.9 172.4,196.5 175.6,243.9 175.6,272.9 177.8,273.3 180.0,268.1 181.1,274.0 183.3,274.0 183.3,155.6 183.3,262.2 184.4,236.5 186.6,272.0 188.8,265.4 189.9,271.9 192.0,259.9 192.0,258.0 194.2,197.0 195.3,265.6 196.4,268.5 197.5,256.1 200.8,272.5 200.8,250.2 201.9,272.2 205.2,263.2 206.3,268.8 206.3,253.7 208.5,273.9 209.6,269.5 211.7,237.5 213.9,272.0 215.0,241.0 216.1,197.3 217.2,272.4 218.3,260.9 219.4,268.6 221.6,268.7 223.8,265.7 224.9,269.5 227.1,273.9 227.1,213.4 227.1,272.1 228.2,259.7 229.2,273.8 231.4,261.2 232.5,253.7 234.7,272.0 236.9,221.5 238.0,272.1 239.1,271.5 241.3,266.9 241.3,274.0 243.5,273.9 245.7,242.4 246.8,269.6 248.9,268.3 248.9,220.6 250.0,240.2 252.2,263.9 254.4,272.9 255.5,266.4 257.7,273.9 257.7,222.3 259.9,273.9 259.9,272.0 263.2,273.4 263.2,270.7 266.4,272.9 268.6,263.6 270.8,198.9 270.8,253.8 270.8,265.7 274.1,260.1 276.3,254.0 277.4,273.0 279.6,267.4 279.6,265.2 281.8,267.4 281.8,272.8 284.0,232.9 285.0,257.2 288.3,256.0 289.4,269.8 290.5,273.7 292.7,226.0 292.7,196.8 296.0,272.0 298.2,243.7 299.3,273.1 301.5,262.3 302.6,242.4 303.6,270.8 304.7,250.5 305.8,270.4 308.0,265.3 310.2,257.7 310.2,261.5 312.4,273.1 314.6,249.9 314.6,272.1 314.6,221.9 317.9,273.8 319.0,215.0 320.1,270.3 323.3,273.0 323.3,221.0 325.5,274.0 325.5,250.5 327.7,267.7 328.8,274.0 331.0,266.9 332.1,234.3 334.3,243.6 336.5,262.3 336.5,196.7 337.6,259.4 339.8,260.2 340.8,219.8 341.9,197.8 345.2,274.0 346.3,255.5 347.4,270.9 347.4,272.1 349.6,221.0 350.7,272.3 354.0,273.8 354.0,237.5 356.2,265.6 358.4,270.6 358.4,201.1 358.4,260.5 361.6,272.2 363.8,252.5 363.8,272.3 367.1,271.9 367.1,272.8 369.3,273.6 370.4,273.0 371.5,247.5 372.6,249.3 374.8,253.5 375.9,182.9 378.0,272.2 380.2,273.6 381.3,219.3 384.6,273.8 385.7,244.4 386.8,198.5 389.0,262.1 390.1,228.3 391.2,273.3 391.2,272.6 393.4,225.6 394.5,271.7 398.8,263.2 399.9,264.8 402.1,267.3 402.1,270.3 403.2,268.4 405.4,253.5 407.6,223.4 407.6,254.9 410.9,242.0 410.9,235.1 413.1,259.4 414.2,271.3 415.2,262.9 416.3,242.8 418.5,261.7 419.6,265.4 421.8,273.5 424.0,269.0 424.0,263.3 427.3,248.5 428.4,234.2 430.6,272.6 432.8,239.9 432.8,240.9 434.9,197.2 436.0,262.4 437.1,234.2 438.2,263.1 441.5,271.1 442.6,262.3 443.7,271.5 445.9,115.7 445.9,272.9 447.0,267.2 449.2,273.4 450.3,194.1 451.4,273.9 454.6,264.6 456.8,252.3 457.9,269.5 460.1,220.0 460.1,265.3 463.4,271.5 464.5,249.1 465.6,268.1 467.8,273.7 467.8,264.3 468.9,260.6 471.0,274.0 473.2,269.1 473.2,273.8 476.5,267.6 476.5,241.3 478.7,256.8 479.8,272.7 480.9,260.8 482.0,254.6 484.2,261.2 485.3,264.2 487.5,273.3 489.6,205.5 489.6,248.7 490.7,267.8 492.9,274.0 494.0,256.4 496.2,271.5 498.4,269.9 498.4,260.0 500.6,266.5 500.6,270.5 502.8,268.8 503.9,270.5 507.2,249.2 508.2,246.9 509.3,272.1 511.5,273.8 511.5,271.0 511.5,196.4 514.8,266.3 515.9,249.4 517.0,272.5 520.3,273.6 521.4,205.4 522.5,197.5 523.6,270.6 524.7,246.4 525.8,272.3 529.0,269.4 529.0,236.9 531.2,272.7 533.4,265.4 533.4,196.8 533.4,260.9 534.5,273.7 536.7,259.0 538.9,194.8 540.0,272.1 542.2,269.2 543.3,252.3 544.4,256.1 545.4,270.4 546.5,232.0 547.6,245.7 550.9,232.4 552.0,216.2 553.1,262.4 555.3,269.6 555.3,267.0 555.3,196.7 558.6,273.0 559.7,255.3 560.8,261.4 563.0,215.8 564.0,271.4 566.2,273.8 566.2,232.2 569.5,252.2 569.5,274.0 571.7,262.9 573.9,269.5 575.0,255.4 577.2,195.6 577.2,199.0 577.2,260.5 580.5,195.6 582.6,243.9 582.6,195.6 584.8,272.8 587.0,232.5 588.1,196.4 591.4,223.1 591.4,266.0 593.6,274.0 595.8,234.0 596.9,266.6 599.1,265.1 600.2,271.0 600.2,252.2 602.3,256.5 604.5,211.2 605.6,268.5 607.8,273.8 607.8,257.7 610.0,224.0 613.3,250.4 613.3,257.8 615.5,218.1 616.6,272.8 618.8,273.7 620.9,261.5 620.9,220.6 620.9,262.8 622.0,57.2 624.2,260.8 626.4,42.0 627.5,271.9 630.8,269.0 630.8,250.9 631.9,269.7 631.9,272.0 635.2,200.6 638.4,271.6 638.4,245.2 640.6,273.8 642.8,255.2 642.8,254.9 642.8,255.7 646.1,274.0 647.2,198.0 648.3,211.7 651.6,273.3 651.6,241.5 653.8,243.1 654.9,272.9 657.0,252.0 657.0,254.7 660.3,273.8 661.4,225.2 662.5,272.3 664.7,202.7 664.7,259.1 664.7,197.1 665.8,269.0 668.0,273.8 669.1,247.7 670.2,210.1 673.5,250.5 673.5,268.3 675.6,260.9 675.6,272.4 678.9,235.9 678.9,264.3 681.1,271.1 683.3,230.4 684.4,270.4 686.6,273.8 686.6,268.3 686.6,263.4 689.9,272.3 692.1,254.5 693.2,251.5 695.3,243.1 695.3,274.0 697.5,272.9 698.6,254.5 699.7,271.1 700.8,270.6 703.0,270.0 705.2,270.0 706.3,266.2 708.5,243.7 708.5,251.9 708.5,270.4 709.6,272.9 711.8,254.8 712.8,260.0 715.0,273.7 717.2,264.1 718.3,261.1 719.4,273.1 720.5,273.3 722.7,254.9 722.7,233.3 724.9,211.0 726.0,236.3 728.2,260.2 730.4,246.8 730.4,263.6 731.4,273.1 733.6,268.7 734.7,265.4 735.8,273.1 739.1,270.9 740.2,231.4 741.3,249.2 742.4,272.9 744.6,254.6 744.6,273.7 747.9,271.3 747.9,210.3 750.0,271.3 752.2,213.5 752.2,270.1 753.3,265.5 753.3,273.5 755.5,273.4 756.6,231.4 757.7,272.3 761.0,271.5 762.1,252.4 763.2,263.8 764.3,265.7 765.4,181.9 766.5,273.7 769.7,269.6 770.8,224.0 771.9,269.0 774.1,245.2 774.1,263.4 774.1,264.0 777.4,274.0 778.5,187.7 779.6,269.1 782.9,251.5 782.9,233.7 785.1,270.3 785.1,255.1 787.2,227.1 788.3,274.0 790.5,273.4 792.7,263.1 793.8,274.0 796.0,265.2 796.0,169.7 796.0,266.2"/>
<text x="640" y="56" font-family="Arial" font-size="12" fill="#0f766e">robust_nominal NIS</text>
</svg>