<svg xmlns="http://www.w3.org/2000/svg" width="820" height="320" viewBox="0 0 820 320">
<rect width="100%" height="100%" fill="white"/>
<text x="52" y="30" font-family="Arial" font-size="18" font-weight="700">adaptive_dropout_robust NIS</text>
<line x1="52" y1="274" x2="796" y2="274" stroke="#263238"/>
<line x1="52" y1="42" x2="52" y2="274" stroke="#263238"/>
<text x="52" y="306" font-family="Arial" font-size="12">time (s)</text>
<text x="630" y="306" font-family="Arial" font-size="12">value</text>

<polyline fill="none" stroke="#0f766e" stroke-width="2.3" points="52.0,273.2 52.0,273.9 62.9,273.9 66.2,273.9 73.9,274.0 75.0,273.6 75.0,273.6 77.2,272.8 78.3,273.7 79.4,274.0 82.6,273.8 83.7,273.8 84.8,272.9 84.8,273.7 87.0,273.0 88.1,274.0 91.4,273.8 92.5,271.8 93.6,273.5 95.8,272.7 95.8,272.2 95.8,272.5 96.9,273.7 99.0,274.0 100.1,272.4 102.3,274.0 105.6,270.7 106.7,273.9 107.8,274.0 108.9,272.4 110.0,273.7 113.3,274.0 114.4,273.1 114.4,273.6 117.6,273.6 117.6,273.9 118.7,273.5 120.9,272.4 122.0,273.1 123.1,273.4 126.4,273.8 127.5,273.9 128.6,273.5 128.6,273.6 131.9,273.9 131.9,273.5 135.2,273.8 136.2,271.2 137.3,273.8 139.5,270.5 139.5,273.5 139.5,273.5 140.6,272.0 142.8,273.2 145.0,273.0 146.1,273.9 148.3,272.9 149.4,273.3 150.5,274.0 150.5,273.9 153.8,273.3 153.8,273.0 157.0,272.9 158.1,273.5 160.3,274.0 161.4,272.0 161.4,273.5 162.5,272.3 164.7,273.8 166.9,273.4 166.9,273.9 170.2,274.0 170.2,272.9 172.4,274.0 172.4,269.3 175.6,273.0 175.6,274.0 177.8,274.0 180.0,273.6 181.1,274.0 183.3,274.0 183.3,269.2 183.3,273.7 184.4,272.7 186.6,273.9 188.8,273.5 189.9,273.9 192.0,273.3 192.0,273.2 194.2,270.6 195.3,273.5 196.4,273.6 197.5,272.9 200.8,273.9 200.8,273.0 201.9,273.9 205.2,273.7 206.3,273.7 206.3,272.9 208.5,274.0 209.6,273.7 211.7,271.8 213.9,273.9 215.0,272.8 216.1,271.2 217.2,273.9 218.3,272.8 219.4,273.7 221.6,273.7 223.8,273.6 224.9,273.7 227.1,274.0 227.1,272.1 227.1,273.9 228.2,273.5 229.2,274.0 231.4,273.5 232.5,272.8 234.7,273.9 236.9,271.0 238.0,273.9 239.1,273.9 241.3,273.9 241.3,274.0 243.5,274.0 245.7,271.6 246.8,273.6 248.9,273.5 248.9,271.4 250.0,270.7 252.2,273.0 254.4,273.8 255.5,273.2 257.7,274.0 257.7,270.3 259.9,274.0 259.9,273.9 263.2,273.7 263.2,273.7 266.4,273.9 268.6,273.0 270.8,266.7 270.8,272.7 270.8,273.6 274.1,272.8 276.3,272.9 277.4,273.9 279.6,273.4 279.6,272.9 281.8,273.4 281.8,273.9 284.0,270.4 285.0,272.5 288.3,272.4 289.4,273.7 290.5,274.0 292.7,270.3 292.7,267.5 296.0,273.8 298.2,272.8 299.3,273.9 301.5,273.0 302.6,270.7 303.6,273.9 304.7,271.9 305.8,273.7 308.0,273.2 310.2,272.6 310.2,273.0 312.4,273.9 314.6,272.3 314.6,273.8 314.6,271.5 317.9,274.0 319.0,268.9 320.1,273.6 323.3,273.9 323.3,269.3 325.5,274.0 325.5,272.9 327.7,273.2 328.8,274.0 331.0,273.3 332.1,271.2 334.3,271.2 336.5,273.0 336.5,267.1 337.6,272.3 339.8,272.7 340.8,269.9 341.9,264.0 345.2,274.0 346.3,272.4 347.4,273.8 347.4,274.0 349.6,270.5 350.7,273.9 354.0,274.0 354.0,272.2 356.2,273.5 358.4,273.9 358.4,270.8 358.4,273.6 361.6,273.9 363.8,272.8 363.8,273.9 367.1,273.8 367.1,273.9 369.3,274.0 370.4,274.0 371.5,272.7 372.6,272.7 374.8,272.6 375.9,269.7 378.0,273.9 380.2,274.0 381.3,270.1 384.6,274.0 385.7,272.8 386.8,268.4 389.0,273.3 390.1,270.7 391.2,274.0 391.2,274.0 393.4,272.0 394.5,273.9 398.8,273.0 399.9,273.5 402.1,273.6 402.1,273.9 403.2,273.7 405.4,272.8 407.6,271.2 407.6,272.8 410.9,272.1 410.9,271.8 413.1,273.5 414.2,273.8 415.2,273.8 416.3,272.1 418.5,273.2 419.6,273.8 421.8,274.0 424.0,273.4 424.0,273.7 427.3,272.5 428.4,272.5 430.6,273.9 432.8,271.8 432.8,272.6 434.9,270.7 436.0,273.2 437.1,271.2 438.2,273.3 441.5,273.8 442.6,273.2 443.7,273.8 445.9,266.0 445.9,274.0 447.0,273.6 449.2,273.9 450.3,269.9 451.4,274.0 454.6,272.8 456.8,273.3 457.9,273.7 460.1,271.7 460.1,273.5 463.4,273.9 464.5,271.8 465.6,273.6 467.8,274.0 467.8,273.7 468.9,273.6 471.0,274.0 473.2,273.8 473.2,274.0 476.5,273.6 476.5,271.7 478.7,273.3 479.8,273.9 480.9,273.1 482.0,272.5 484.2,272.7 485.3,273.5 487.5,274.0 489.6,271.2 489.6,272.9 490.7,273.6 492.9,274.0 494.0,272.7 496.2,273.8 498.4,273.7 498.4,273.1 500.6,273.2 500.6,273.8 502.8,273.9 503.9,273.6 507.2,271.9 508.2,272.3 509.3,273.8 511.5,274.0 511.5,273.5 511.5,265.8 514.8,273.2 515.9,272.3 517.0,273.8 520.3,273.9 521.4,270.0 522.5,270.2 523.6,273.7 524.7,272.2 525.8,273.9 529.0,273.7 529.0,272.4 531.2,273.8 533.4,272.4 533.4,269.1 533.4,273.5 534.5,274.0 536.7,272.6 538.9,270.1 540.0,273.9 542.2,273.7 543.3,272.2 544.4,273.1 545.4,273.6 546.5,272.5 547.6,271.3 550.9,270.0 552.0,269.6 553.1,273.2 555.3,273.5 555.3,273.9 555.3,268.0 558.6,274.0 559.7,273.7 560.8,272.9 563.0,270.5 564.0,273.6 566.2,274.0 566.2,273.0 569.5,272.3 569.5,274.0 571.7,273.3 573.9,273.6 575.0,272.9 577.2,42.0 577.2,272.8 577.2,273.7 580.5,84.9 582.6,272.9 582.6,114.8 584.8,274.0 587.0,272.9 588.1,270.5 591.4,273.1 591.4,273.7 593.6,274.0 595.8,273.0 596.9,273.9 599.1,273.9 600.2,274.0 600.2,273.5 602.3,273.8 604.5,273.0 605.6,273.9 607.8,274.0 607.8,273.7 610.0,273.6 613.3,273.6 613.3,273.7 615.5,272.9 616.6,274.0 618.8,274.0 620.9,273.8 620.9,273.7 620.9,273.9 622.0,171.1 624.2,273.6 626.4,173.5 627.5,274.0 630.8,274.0 630.8,273.7 631.9,274.0 631.9,274.0 635.2,273.3 638.4,273.9 638.4,273.7 640.6,274.0 642.8,273.8 642.8,273.9 642.8,273.9 646.1,274.0 647.2,273.5 648.3,273.4 651.6,274.0 651.6,273.8 653.8,273.9 654.9,274.0 657.0,273.8 657.0,273.8 660.3,274.0 661.4,273.4 662.5,274.0 664.7,273.0 664.7,273.9 664.7,273.3 665.8,273.9 668.0,274.0 669.1,273.6 670.2,273.0 673.5,273.7 673.5,273.9 675.6,273.7 675.6,274.0 678.9,273.2 678.9,273.8 681.1,273.9 683.3,273.2 684.4,273.9 686.6,274.0 686.6,273.9 686.6,273.9 689.9,274.0 692.1,273.5 693.2,273.3 695.3,273.1 695.3,274.0 697.5,274.0 698.6,273.4 699.7,273.8 700.8,273.9 703.0,273.9 705.2,273.7 706.3,273.8 708.5,272.9 708.5,273.9 708.5,273.9 709.6,274.0 711.8,273.2 712.8,273.2 715.0,273.9 717.2,273.6 718.3,273.1 719.4,274.0 720.5,273.9 722.7,272.8 722.7,271.6 724.9,270.4 726.0,272.0 728.2,273.5 730.4,271.3 730.4,273.3 731.4,273.7 733.6,273.2 734.7,273.2 735.8,273.7 739.1,273.5 740.2,271.6 741.3,273.3 742.4,273.8 744.6,272.6 744.6,273.9 747.9,273.6 747.9,269.5 750.0,273.6 752.2,272.6 752.2,273.8 753.3,273.4 753.3,273.9 755.5,274.0 756.6,271.7 757.7,273.8 761.0,273.7 762.1,273.4 763.2,273.7 764.3,273.2 765.4,266.1 766.5,274.0 769.7,273.6 770.8,269.6 771.9,273.7 774.1,271.7 774.1,273.1 774.1,273.6 777.4,274.0 778.5,268.0 779.6,273.6 782.9,272.3 782.9,272.2 785.1,273.8 785.1,273.3 787.2,271.8 788.3,274.0 790.5,274.0 792.7,272.1 793.8,274.0 796.0,273.3 796.0,269.9 796.0,273.7"/>
<text x="640" y="56" font-family="Arial" font-size="12" fill="#0f766e">adaptive_dropout_robust NIS</text>
</svg>