<svg xmlns="http://www.w3.org/2000/svg" width="820" height="320" viewBox="0 0 820 320">
<rect width="100%" height="100%" fill="white"/>
<text x="52" y="30" font-family="Arial" font-size="18" font-weight="700">adaptive_nominal NIS</text>
<line x1="52" y1="274" x2="796" y2="274" stroke="#263238"/>
<line x1="52" y1="42" x2="52" y2="274" stroke="#263238"/>
<text x="52" y="306" font-family="Arial" font-size="12">time (s)</text>
<text x="630" y="306" font-family="Arial" font-size="12">value</text>

<polyline fill="none" stroke="#0f766e" stroke-width="2.3" points="52.0,272.9 52.0,273.9 62.9,273.8 66.2,273.5 73.9,273.9 75.0,273.5 75.0,273.3 77.2,271.8 78.3,273.5 79.4,273.9 82.6,273.4 83.7,273.8 84.8,272.9 84.8,273.1 87.0,272.7 88.1,274.0 91.4,273.8 92.5,271.1 93.6,273.4 95.8,272.6 95.8,270.2 95.8,270.5 96.9,273.7 99.0,274.0 100.1,271.9 102.3,274.0 105.6,269.9 106.7,273.8 107.8,274.0 108.9,271.8 110.0,273.6 113.3,274.0 114.4,272.6 114.4,273.5 117.6,273.6 117.6,273.7 118.7,273.5 120.9,272.1 122.0,273.0 123.1,273.3 126.4,273.8 127.5,273.8 128.6,273.3 128.6,273.0 131.9,273.9 131.9,273.4 135.2,273.7 136.2,270.0 137.3,273.7 139.5,269.2 139.5,272.7 139.5,272.8 140.6,271.3 142.8,273.0 145.0,272.8 146.1,273.9 148.3,272.5 149.4,273.0 150.5,274.0 150.5,273.7 153.8,273.2 153.8,272.7 157.0,272.6 158.1,273.3 160.3,274.0 161.4,271.3 161.4,272.7 162.5,271.7 164.7,273.7 166.9,273.2 166.9,273.9 170.2,274.0 170.2,272.2 172.4,274.0 172.4,262.1 175.6,272.0 175.6,274.0 177.8,274.0 180.0,273.5 181.1,274.0 183.3,274.0 183.3,264.0 183.3,273.3 184.4,271.6 186.6,273.9 188.8,273.5 189.9,273.8 192.0,272.9 192.0,272.8 194.2,266.0 195.3,273.4 196.4,273.6 197.5,272.8 200.8,273.9 200.8,272.5 201.9,273.9 205.2,273.3 206.3,273.6 206.3,272.6 208.5,274.0 209.6,273.7 211.7,271.6 213.9,273.9 215.0,271.9 216.1,267.7 217.2,273.9 218.3,273.0 219.4,273.7 221.6,273.6 223.8,273.4 224.9,273.7 227.1,274.0 227.1,270.6 227.1,273.9 228.2,273.1 229.2,274.0 231.4,273.2 232.5,272.5 234.7,273.9 236.9,270.1 238.0,273.8 239.1,273.8 241.3,273.5 241.3,274.0 243.5,274.0 245.7,270.9 246.8,273.6 248.9,273.4 248.9,268.1 250.0,270.3 252.2,273.0 254.4,273.8 255.5,273.3 257.7,274.0 257.7,268.5 259.9,274.0 259.9,273.8 263.2,273.9 263.2,273.6 266.4,273.9 268.6,272.9 270.8,265.5 270.8,271.5 270.8,273.0 274.1,272.6 276.3,272.0 277.4,273.9 279.6,273.2 279.6,272.9 281.8,273.3 281.8,273.9 284.0,269.5 285.0,272.3 288.3,272.1 289.4,273.5 290.5,273.9 292.7,268.8 292.7,258.8 296.0,273.8 298.2,271.3 299.3,273.9 301.5,272.8 302.6,271.2 303.6,273.7 304.7,272.2 305.8,273.7 308.0,273.4 310.2,272.8 310.2,273.2 312.4,274.0 314.6,272.2 314.6,273.8 314.6,270.4 317.9,274.0 319.0,270.1 320.1,273.8 323.3,273.9 323.3,270.1 325.5,274.0 325.5,272.3 327.7,273.6 328.8,274.0 331.0,273.5 332.1,271.4 334.3,271.8 336.5,273.2 336.5,263.8 337.6,272.9 339.8,272.9 340.8,270.3 341.9,266.5 345.2,274.0 346.3,272.9 347.4,273.9 347.4,273.9 349.6,271.2 350.7,274.0 354.0,274.0 354.0,272.5 356.2,273.6 358.4,273.9 358.4,270.7 358.4,273.3 361.6,273.9 363.8,273.0 363.8,273.9 367.1,273.8 367.1,273.9 369.3,274.0 370.4,274.0 371.5,272.5 372.6,272.6 374.8,272.5 375.9,268.0 378.0,273.9 380.2,274.0 381.3,270.1 384.6,274.0 385.7,272.1 386.8,267.7 389.0,273.1 390.1,270.7 391.2,274.0 391.2,273.9 393.4,270.9 394.5,273.8 398.8,273.2 399.9,273.3 402.1,273.5 402.1,273.7 403.2,273.6 405.4,272.6 407.6,270.4 407.6,272.7 410.9,271.8 410.9,271.3 413.1,273.0 414.2,273.8 415.2,273.3 416.3,271.9 418.5,273.1 419.6,273.4 421.8,274.0 424.0,273.6 424.0,273.2 427.3,272.3 428.4,271.4 430.6,273.9 432.8,271.6 432.8,271.8 434.9,266.6 436.0,273.1 437.1,271.1 438.2,273.2 441.5,273.8 442.6,273.1 443.7,273.8 445.9,263.5 445.9,273.9 447.0,273.6 449.2,273.9 450.3,268.6 451.4,274.0 454.6,273.2 456.8,272.6 457.9,273.6 460.1,270.4 460.1,273.3 463.4,273.8 464.5,272.2 465.6,273.6 467.8,274.0 467.8,273.4 468.9,273.2 471.0,274.0 473.2,273.7 473.2,274.0 476.5,273.4 476.5,271.2 478.7,272.5 479.8,273.9 480.9,272.8 482.0,272.0 484.2,272.7 485.3,273.1 487.5,273.9 489.6,267.0 489.6,271.5 490.7,273.5 492.9,274.0 494.0,272.3 496.2,273.8 498.4,273.6 498.4,272.8 500.6,273.2 500.6,273.6 502.8,273.7 503.9,273.6 507.2,271.6 508.2,271.4 509.3,273.8 511.5,274.0 511.5,273.7 511.5,256.5 514.8,273.0 515.9,271.8 517.0,273.8 520.3,273.9 521.4,268.5 522.5,267.2 523.6,273.6 524.7,272.2 525.8,273.9 529.0,273.8 529.0,272.0 531.2,273.9 533.4,273.3 533.4,265.6 533.4,273.4 534.5,274.0 536.7,273.1 538.9,269.6 540.0,273.9 542.2,273.8 543.3,273.1 544.4,273.0 545.4,273.8 546.5,272.1 547.6,272.3 550.9,271.5 552.0,270.9 553.1,273.5 555.3,273.7 555.3,273.7 555.3,266.5 558.6,274.0 559.7,273.1 560.8,273.2 563.0,271.0 564.0,273.9 566.2,274.0 566.2,271.8 569.5,272.8 569.5,274.0 571.7,273.4 573.9,273.7 575.0,272.9 577.2,42.0 577.2,269.0 577.2,273.4 580.5,84.3 582.6,272.7 582.6,114.0 584.8,274.0 587.0,272.6 588.1,267.2 591.4,272.5 591.4,273.7 593.6,274.0 595.8,273.2 596.9,273.9 599.1,273.8 600.2,274.0 600.2,273.7 602.3,273.8 604.5,273.0 605.6,273.9 607.8,274.0 607.8,273.7 610.0,273.2 613.3,273.5 613.3,273.7 615.5,273.0 616.6,274.0 618.8,274.0 620.9,273.8 620.9,273.1 620.9,273.7 622.0,151.9 624.2,273.6 626.4,153.9 627.5,274.0 630.8,274.0 630.8,273.6 631.9,274.0 631.9,274.0 635.2,273.2 638.4,274.0 638.4,273.7 640.6,274.0 642.8,273.8 642.8,273.9 642.8,273.9 646.1,274.0 647.2,273.4 648.3,273.5 651.6,274.0 651.6,273.6 653.8,273.7 654.9,274.0 657.0,273.7 657.0,273.8 660.3,274.0 661.4,273.4 662.5,274.0 664.7,273.2 664.7,273.8 664.7,272.5 665.8,273.9 668.0,274.0 669.1,273.5 670.2,272.9 673.5,273.6 673.5,273.9 675.6,273.8 675.6,274.0 678.9,273.3 678.9,273.8 681.1,273.9 683.3,273.0 684.4,273.9 686.6,274.0 686.6,273.8 686.6,273.7 689.9,274.0 692.1,273.4 693.2,273.4 695.3,273.1 695.3,274.0 697.5,274.0 698.6,273.4 699.7,273.9 700.8,273.9 703.0,273.9 705.2,273.8 706.3,273.8 708.5,272.7 708.5,273.2 708.5,273.9 709.6,274.0 711.8,273.2 712.8,273.2 715.0,273.9 717.2,273.6 718.3,273.1 719.4,274.0 720.5,273.8 722.7,272.7 722.7,271.6 724.9,270.2 726.0,271.4 728.2,273.5 730.4,271.4 730.4,272.7 731.4,273.7 733.6,273.2 734.7,273.2 735.8,273.8 739.1,273.5 740.2,270.7 741.3,272.4 742.4,273.8 744.6,272.4 744.6,273.9 747.9,273.6 747.9,269.1 750.0,273.6 752.2,270.0 752.2,273.6 753.3,273.3 753.3,273.9 755.5,274.0 756.6,271.0 757.7,273.8 761.0,273.7 762.1,272.6 763.2,273.3 764.3,273.2 765.4,264.9 766.5,274.0 769.7,273.5 770.8,269.4 771.9,273.7 774.1,271.6 774.1,273.0 774.1,273.3 777.4,274.0 778.5,267.3 779.6,273.5 782.9,272.3 782.9,271.0 785.1,273.8 785.1,272.6 787.2,270.4 788.3,274.0 790.5,274.0 792.7,272.8 793.8,274.0 796.0,273.3 796.0,263.1 796.0,273.3"/>
<text x="640" y="56" font-family="Arial" font-size="12" fill="#0f766e">adaptive_nominal NIS</text>
</svg>