<svg xmlns="http://www.w3.org/2000/svg" width="820" height="320" viewBox="0 0 820 320">
<rect width="100%" height="100%" fill="white"/>
<text x="52" y="30" font-family="Arial" font-size="18" font-weight="700">ekf_dropout_robust NIS</text>
<line x1="52" y1="274" x2="796" y2="274" stroke="#263238"/>
<line x1="52" y1="42" x2="52" y2="274" stroke="#263238"/>
<text x="52" y="306" font-family="Arial" font-size="12">time (s)</text>
<text x="630" y="306" font-family="Arial" font-size="12">value</text>

<polyline fill="none" stroke="#0f766e" stroke-width="2.3" points="52.0,272.8 52.0,273.9 62.9,273.9 66.2,273.8 73.9,274.0 75.0,273.4 75.0,273.4 77.2,272.2 78.3,273.5 79.4,274.0 82.6,273.6 83.7,273.7 84.8,272.4 84.8,273.6 87.0,272.6 88.1,274.0 91.4,273.7 92.5,271.0 93.6,273.4 95.8,272.6 95.8,271.6 95.8,272.2 96.9,273.7 99.0,273.9 100.1,272.0 102.3,274.0 105.6,270.0 106.7,273.9 107.8,274.0 108.9,272.0 110.0,273.6 113.3,274.0 114.4,272.8 114.4,273.5 117.6,273.6 117.6,273.9 118.7,273.5 120.9,272.4 122.0,273.1 123.1,273.5 126.4,273.8 127.5,273.9 128.6,273.5 128.6,273.6 131.9,273.9 131.9,273.5 135.2,273.8 136.2,271.2 137.3,273.8 139.5,270.7 139.5,273.3 139.5,273.5 140.6,272.2 142.8,273.3 145.0,273.1 146.1,273.9 148.3,273.0 149.4,273.3 150.5,274.0 150.5,273.9 153.8,273.4 153.8,273.1 157.0,273.0 158.1,273.5 160.3,274.0 161.4,272.2 161.4,273.6 162.5,272.5 164.7,273.8 166.9,273.5 166.9,273.9 170.2,274.0 170.2,272.9 172.4,274.0 172.4,269.7 175.6,272.9 175.6,274.0 177.8,274.0 180.0,273.7 181.1,274.0 183.3,274.0 183.3,268.8 183.3,273.7 184.4,272.6 186.6,273.9 188.8,273.5 189.9,273.9 192.0,273.4 192.0,273.3 194.2,271.2 195.3,273.6 196.4,273.7 197.5,273.1 200.8,273.9 200.8,273.1 201.9,273.9 205.2,273.7 206.3,273.8 206.3,273.1 208.5,274.0 209.6,273.8 211.7,272.2 213.9,273.9 215.0,272.9 216.1,271.7 217.2,273.9 218.3,273.1 219.4,273.7 221.6,273.8 223.8,273.6 224.9,273.8 227.1,274.0 227.1,272.3 227.1,273.9 228.2,273.5 229.2,274.0 231.4,273.5 232.5,273.1 234.7,273.9 236.9,271.6 238.0,274.0 239.1,273.9 241.3,273.8 241.3,274.0 243.5,274.0 245.7,272.5 246.8,273.8 248.9,273.8 248.9,272.7 250.0,272.3 252.2,273.4 254.4,273.9 255.5,273.6 257.7,274.0 257.7,271.9 259.9,274.0 259.9,274.0 263.2,273.9 263.2,273.9 266.4,273.9 268.6,273.4 270.8,270.1 270.8,273.1 270.8,273.8 274.1,273.3 276.3,273.3 277.4,273.9 279.6,273.7 279.6,273.5 281.8,273.7 281.8,274.0 284.0,272.0 285.0,273.2 288.3,273.1 289.4,273.8 290.5,274.0 292.7,271.9 292.7,270.7 296.0,273.9 298.2,273.0 299.3,274.0 301.5,273.4 302.6,272.4 303.6,273.9 304.7,272.9 305.8,273.8 308.0,273.6 310.2,273.2 310.2,273.4 312.4,274.0 314.6,272.9 314.6,273.9 314.6,272.7 317.9,274.0 319.0,271.4 320.1,273.8 323.3,273.9 323.3,271.4 325.5,274.0 325.5,273.4 327.7,273.7 328.8,274.0 331.0,273.7 332.1,272.4 334.3,272.5 336.5,273.5 336.5,270.4 337.6,273.2 339.8,273.3 340.8,271.7 341.9,268.9 345.2,274.0 346.3,273.1 347.4,273.9 347.4,274.0 349.6,271.4 350.7,273.9 354.0,274.0 354.0,272.3 356.2,273.5 358.4,273.9 358.4,270.9 358.4,273.6 361.6,273.9 363.8,272.9 363.8,273.9 367.1,273.9 367.1,273.9 369.3,274.0 370.4,274.0 371.5,272.8 372.6,272.9 374.8,272.9 375.9,270.4 378.0,273.9 380.2,274.0 381.3,271.1 384.6,274.0 385.7,272.9 386.8,269.7 389.0,273.4 390.1,271.6 391.2,274.0 391.2,274.0 393.4,272.2 394.5,273.9 398.8,273.3 399.9,273.6 402.1,273.7 402.1,273.9 403.2,273.8 405.4,273.1 407.6,271.7 407.6,273.1 410.9,272.5 410.9,272.2 413.1,273.7 414.2,273.9 415.2,273.7 416.3,272.5 418.5,273.4 419.6,273.8 421.8,274.0 424.0,273.6 424.0,273.7 427.3,272.8 428.4,272.7 430.6,273.9 432.8,272.3 432.8,272.8 434.9,271.4 436.0,273.4 437.1,271.8 438.2,273.5 441.5,273.9 442.6,273.3 443.7,273.9 445.9,267.5 445.9,274.0 447.0,273.7 449.2,274.0 450.3,270.6 451.4,274.0 454.6,273.2 456.8,273.5 457.9,273.8 460.1,271.9 460.1,273.6 463.4,273.9 464.5,272.5 465.6,273.7 467.8,274.0 467.8,273.8 468.9,273.6 471.0,274.0 473.2,273.8 473.2,274.0 476.5,273.7 476.5,272.4 478.7,273.6 479.8,273.9 480.9,273.4 482.0,273.2 484.2,273.3 485.3,273.6 487.5,274.0 489.6,271.8 489.6,273.4 490.7,273.7 492.9,274.0 494.0,273.3 496.2,273.9 498.4,273.8 498.4,273.4 500.6,273.6 500.6,273.9 502.8,273.9 503.9,273.8 507.2,272.9 508.2,272.9 509.3,273.9 511.5,274.0 511.5,273.8 511.5,269.7 514.8,273.6 515.9,273.0 517.0,273.9 520.3,274.0 521.4,271.5 522.5,272.0 523.6,273.8 524.7,272.9 525.8,273.9 529.0,273.8 529.0,272.7 531.2,273.9 533.4,273.2 533.4,270.2 533.4,273.7 534.5,274.0 536.7,273.2 538.9,271.1 540.0,273.9 542.2,273.8 543.3,273.2 544.4,273.5 545.4,273.8 546.5,272.9 547.6,272.5 550.9,271.8 552.0,271.3 553.1,273.5 555.3,273.7 555.3,273.9 555.3,270.6 558.6,274.0 559.7,273.7 560.8,273.3 563.0,271.5 564.0,273.7 566.2,274.0 566.2,273.1 569.5,272.5 569.5,274.0 571.7,273.4 573.9,273.7 575.0,273.0 577.2,71.4 577.2,272.3 577.2,273.7 580.5,67.4 582.6,272.6 582.6,72.2 584.8,274.0 587.0,272.4 588.1,268.5 591.4,272.5 591.4,273.6 593.6,274.0 595.8,271.7 596.9,273.6 599.1,273.8 600.2,273.9 600.2,272.7 602.3,273.2 604.5,271.1 605.6,273.8 607.8,274.0 607.8,273.5 610.0,272.7 613.3,273.2 613.3,273.1 615.5,271.2 616.6,273.9 618.8,274.0 620.9,273.5 620.9,273.4 620.9,273.7 622.0,61.4 624.2,273.1 626.4,42.0 627.5,274.0 630.8,273.9 630.8,273.4 631.9,273.9 631.9,274.0 635.2,271.2 638.4,273.7 638.4,272.9 640.6,274.0 642.8,273.1 642.8,273.4 642.8,273.7 646.1,274.0 647.2,271.5 648.3,270.4 651.6,274.0 651.6,273.4 653.8,273.4 654.9,273.8 657.0,273.2 657.0,273.4 660.3,274.0 661.4,271.0 662.5,273.8 664.7,270.3 664.7,273.9 664.7,271.7 665.8,273.6 668.0,274.0 669.1,272.8 670.2,271.4 673.5,273.1 673.5,273.7 675.6,273.2 675.6,274.0 678.9,272.2 678.9,273.4 681.1,273.8 683.3,272.3 684.4,273.9 686.6,274.0 686.6,273.8 686.6,273.7 689.9,273.9 692.1,273.2 693.2,272.8 695.3,272.7 695.3,274.0 697.5,274.0 698.6,273.0 699.7,273.7 700.8,273.8 703.0,273.8 705.2,273.7 706.3,273.6 708.5,272.8 708.5,273.8 708.5,273.9 709.6,273.9 711.8,273.0 712.8,273.3 715.0,274.0 717.2,273.5 718.3,273.3 719.4,274.0 720.5,274.0 722.7,273.2 722.7,272.0 724.9,271.0 726.0,272.5 728.2,273.4 730.4,272.4 730.4,273.7 731.4,274.0 733.6,273.7 734.7,273.6 735.8,274.0 739.1,273.8 740.2,272.3 741.3,273.4 742.4,273.9 744.6,273.1 744.6,274.0 747.9,273.9 747.9,271.1 750.0,273.9 752.2,272.8 752.2,273.9 753.3,273.7 753.3,274.0 755.5,274.0 756.6,272.3 757.7,273.9 761.0,273.9 762.1,273.4 763.2,273.8 764.3,273.6 765.4,268.8 766.5,274.0 769.7,273.8 770.8,271.3 771.9,273.8 774.1,272.5 774.1,273.5 774.1,273.7 777.4,274.0 778.5,270.4 779.6,273.8 782.9,272.9 782.9,272.6 785.1,273.8 785.1,273.5 787.2,272.3 788.3,274.0 790.5,274.0 792.7,273.1 793.8,274.0 796.0,273.5 796.0,270.9 796.0,273.8"/>
<text x="640" y="56" font-family="Arial" font-size="12" fill="#0f766e">ekf_dropout_robust NIS</text>
</svg>