<svg xmlns="http://www.w3.org/2000/svg" width="820" height="320" viewBox="0 0 820 320">
<rect width="100%" height="100%" fill="white"/>
<text x="52" y="30" font-family="Arial" font-size="18" font-weight="700">nominal covariance trace</text>
<line x1="52" y1="274" x2="796" y2="274" stroke="#263238"/>
<line x1="52" y1="42" x2="52" y2="274" stroke="#263238"/>
<text x="52" y="306" font-family="Arial" font-size="12">time (s)</text>
<text x="630" y="306" font-family="Arial" font-size="12">sqrt trace P</text>

<polyline fill="none" stroke="#0f766e" stroke-width="2.3" points="52.0,121.7 53.1,120.8 54.2,117.9 55.3,113.3 56.4,106.9 57.5,98.9 58.6,89.5 59.7,78.9 60.8,67.1 61.8,54.3 62.9,65.2 64.0,53.9 65.1,42.0 66.2,123.8 67.3,123.7 68.4,123.7 69.5,123.6 70.6,123.5 71.7,123.5 72.8,123.4 73.9,124.4 75.0,125.2 76.1,125.2 77.2,125.5 78.3,125.5 79.4,125.7 80.4,125.7 81.5,125.7 82.6,125.8 83.7,125.8 84.8,125.9 85.9,125.9 87.0,125.9 88.1,126.0 89.2,126.0 90.3,126.0 91.4,126.1 92.5,126.1 93.6,126.1 94.7,126.1 95.8,184.0 96.9,184.1 98.0,184.1 99.0,184.1 100.1,184.1 101.2,184.1 102.3,184.1 103.4,184.1 104.5,184.1 105.6,184.1 106.7,184.1 107.8,184.1 108.9,184.1 110.0,184.1 111.1,184.1 112.2,184.1 113.3,184.1 114.4,184.1 115.5,184.1 116.6,184.1 117.6,184.1 118.7,184.1 119.8,184.1 120.9,184.1 122.0,184.1 123.1,184.1 124.2,184.1 125.3,184.1 126.4,184.0 127.5,184.1 128.6,184.1 129.7,184.0 130.8,184.0 131.9,184.1 133.0,184.0 134.1,184.0 135.2,184.0 136.2,184.0 137.3,184.0 138.4,184.0 139.5,211.6 140.6,211.6 141.7,211.6 142.8,211.6 143.9,211.5 145.0,211.6 146.1,211.6 147.2,211.5 148.3,211.5 149.4,211.5 150.5,211.5 151.6,211.5 152.7,211.5 153.8,211.5 154.8,211.5 155.9,211.4 157.0,211.4 158.1,211.5 159.2,211.4 160.3,211.4 161.4,211.4 162.5,211.4 163.6,211.4 164.7,211.4 165.8,211.3 166.9,211.4 168.0,211.4 169.1,211.3 170.2,211.4 171.3,211.3 172.4,211.3 173.4,211.3 174.5,211.3 175.6,211.3 176.7,211.3 177.8,211.2 178.9,211.2 180.0,211.2 181.1,211.2 182.2,211.2 183.3,228.2 184.4,228.2 185.5,228.2 186.6,228.2 187.7,228.2 188.8,228.2 189.9,228.2 191.0,228.1 192.0,228.2 193.1,228.1 194.2,228.1 195.3,228.1 196.4,228.1 197.5,228.1 198.6,228.1 199.7,228.0 200.8,228.1 201.9,228.1 203.0,228.0 204.1,228.0 205.2,228.0 206.3,228.0 207.4,228.0 208.5,227.9 209.6,228.0 210.6,227.9 211.7,227.9 212.8,227.9 213.9,227.9 215.0,227.9 216.1,227.9 217.2,227.8 218.3,227.9 219.4,227.8 220.5,227.8 221.6,227.8 222.7,227.7 223.8,227.8 224.9,227.8 226.0,227.7 227.1,239.6 228.2,239.6 229.2,239.6 230.3,239.6 231.4,239.6 232.5,239.6 233.6,239.6 234.7,239.5 235.8,239.5 236.9,239.5 238.0,239.5 239.1,239.5 240.2,239.4 241.3,239.5 242.4,239.4 243.5,239.4 244.6,239.4 245.7,239.4 246.8,239.4 247.8,239.3 248.9,239.3 250.0,239.4 251.1,239.3 252.2,239.3 253.3,239.3 254.4,239.3 255.5,239.3 256.6,239.2 257.7,239.3 258.8,239.2 259.9,239.2 261.0,239.2 262.1,239.1 263.2,239.2 264.3,239.2 265.4,239.1 266.4,239.1 267.5,239.0 268.6,239.0 269.7,239.0 270.8,247.9 271.9,247.9 273.0,247.9 274.1,247.8 275.2,247.8 276.3,247.8 277.4,247.8 278.5,247.7 279.6,247.8 280.7,247.8 281.8,247.7 282.9,247.7 284.0,247.8 285.0,247.7 286.1,247.7 287.2,247.6 288.3,247.6 289.4,247.6 290.5,247.6 291.6,247.6 292.7,247.6 293.8,247.6 294.9,247.5 296.0,247.5 297.1,247.5 298.2,247.5 299.3,247.5 300.4,247.4 301.5,247.4 302.6,247.5 303.6,247.4 304.7,247.4 305.8,247.4 306.9,247.4 308.0,247.4 309.1,247.3 310.2,247.4 311.3,247.3 312.4,247.3 313.5,247.3 314.6,247.3 315.7,247.1 316.8,247.0 317.9,246.9 319.0,246.9 320.1,246.8 321.2,246.7 322.2,246.6 323.3,246.6 324.4,246.4 325.5,246.3 326.6,246.2 327.7,246.2 328.8,246.1 329.9,246.0 331.0,245.9 332.1,245.8 333.2,245.7 334.3,245.6 335.4,245.5 336.5,245.4 337.6,245.4 338.7,245.3 339.8,245.2 340.8,245.1 341.9,245.0 343.0,244.9 344.1,244.8 345.2,244.7 346.3,244.7 347.4,244.6 348.5,244.5 349.6,244.4 350.7,244.3 351.8,244.2 352.9,244.1 354.0,244.1 355.1,244.0 356.2,243.9 357.3,243.7 358.4,243.7 359.4,243.6 360.5,243.5 361.6,243.4 362.7,243.3 363.8,243.3 364.9,243.1 366.0,243.0 367.1,243.0 368.2,242.9 369.3,242.8 370.4,242.7 371.5,242.7 372.6,242.5 373.7,242.4 374.8,242.3 375.9,242.3 377.0,242.2 378.0,242.1 379.1,241.9 380.2,241.8 381.3,241.8 382.4,241.7 383.5,241.6 384.6,241.5 385.7,241.4 386.8,241.3 387.9,241.2 389.0,241.1 390.1,241.1 391.2,241.0 392.3,240.9 393.4,240.8 394.5,240.7 395.6,240.6 396.6,240.5 397.7,240.4 398.8,240.3 399.9,240.2 401.0,240.1 402.1,240.1 403.2,240.0 404.3,239.9 405.4,239.8 406.5,239.6 407.6,239.6 408.7,239.5 409.8,239.4 410.9,239.4 412.0,239.2 413.1,239.1 414.2,239.0 415.2,239.0 416.3,238.9 417.4,238.8 418.5,238.7 419.6,238.6 420.7,238.5 421.8,238.4 422.9,238.3 424.0,238.3 425.1,238.1 426.2,238.0 427.3,237.9 428.4,237.9 429.5,237.8 430.6,237.7 431.7,237.5 432.8,237.5 433.8,237.4 434.9,237.3 436.0,237.2 437.1,237.1 438.2,237.0 439.3,236.9 440.4,236.8 441.5,236.7 442.6,236.7 443.7,236.5 444.8,236.4 445.9,236.4 447.0,236.3 448.1,236.2 449.2,236.1 450.3,236.0 451.4,235.9 452.4,235.8 453.5,235.7 454.6,235.6 455.7,235.5 456.8,235.4 457.9,235.3 459.0,235.2 460.1,235.2 461.2,235.0 462.3,234.9 463.4,234.8 464.5,234.8 465.6,234.7 466.7,234.5 467.8,234.4 468.9,234.5 470.0,234.4 471.0,234.4 472.1,234.4 473.2,234.4 474.3,234.4 475.4,234.4 476.5,234.4 477.6,234.4 478.7,234.3 479.8,234.3 480.9,234.3 482.0,234.3 483.1,234.3 484.2,234.3 485.3,234.3 486.4,234.3 487.5,234.2 488.6,234.2 489.6,244.3 490.7,244.4 491.8,244.3 492.9,244.3 494.0,244.3 495.1,244.3 496.2,244.3 497.3,244.2 498.4,244.3 499.5,244.2 500.6,244.2 501.7,244.2 502.8,244.2 503.9,244.2 505.0,244.2 506.1,244.1 507.2,244.1 508.2,244.1 509.3,244.1 510.4,244.1 511.5,244.1 512.6,244.1 513.7,244.0 514.8,244.0 515.9,244.0 517.0,244.0 518.1,244.0 519.2,243.9 520.3,243.9 521.4,244.0 522.5,243.9 523.6,243.9 524.7,243.9 525.8,243.9 526.8,243.9 527.9,243.8 529.0,243.9 530.1,243.8 531.2,243.8 532.3,243.8 533.4,251.7 534.5,251.7 535.6,251.6 536.7,251.6 537.8,251.6 538.9,251.6 540.0,251.6 541.1,251.5 542.2,251.5 543.3,251.5 544.4,251.5 545.4,251.5 546.5,251.5 547.6,251.5 548.7,251.4 549.8,251.4 550.9,251.4 552.0,251.4 553.1,251.4 554.2,251.3 555.3,251.4 556.4,251.4 557.5,251.3 558.6,251.3 559.7,251.3 560.8,251.3 561.9,251.3 563.0,251.2 564.0,251.3 565.1,251.2 566.2,251.2 567.3,251.2 568.4,251.1 569.5,251.2 570.6,251.1 571.7,251.1 572.8,251.0 573.9,251.1 575.0,251.1 576.1,251.0 577.2,257.4 578.3,257.3 579.4,257.3 580.5,257.2 581.6,257.2 582.6,257.2 583.7,257.2 584.8,257.2 585.9,257.1 587.0,257.1 588.1,257.1 589.2,257.1 590.3,257.0 591.4,257.1 592.5,257.0 593.6,257.0 594.7,257.0 595.8,257.0 596.9,257.0 598.0,256.9 599.1,256.9 600.2,257.0 601.2,256.9 602.3,256.9 603.4,256.8 604.5,256.9 605.6,256.8 606.7,256.8 607.8,256.9 608.9,256.8 610.0,256.8 611.1,256.7 612.2,256.7 613.3,256.7 614.4,256.7 615.5,256.7 616.6,256.7 617.7,256.7 618.8,256.6 619.8,256.6 620.9,261.9 622.0,261.9 623.1,261.8 624.2,261.8 625.3,261.7 626.4,261.7 627.5,261.7 628.6,261.6 629.7,261.5 630.8,261.6 631.9,261.6 633.0,261.6 634.1,261.5 635.2,261.5 636.3,261.4 637.4,261.3 638.4,261.4 639.5,261.4 640.6,261.3 641.7,261.3 642.8,261.4 643.9,261.3 645.0,261.3 646.1,261.2 647.2,261.3 648.3,261.3 649.4,261.2 650.5,261.1 651.6,261.2 652.7,261.2 653.8,261.1 654.9,261.1 656.0,261.0 657.0,261.1 658.1,261.1 659.2,261.0 660.3,261.0 661.4,261.0 662.5,261.0 663.6,261.0 664.7,265.6 665.8,265.6 666.9,265.5 668.0,265.5 669.1,265.6 670.2,265.5 671.3,265.5 672.4,265.4 673.5,265.5 674.6,265.4 675.6,265.4 676.7,265.4 677.8,265.3 678.9,265.4 680.0,265.3 681.1,265.3 682.2,265.2 683.3,265.3 684.4,265.2 685.5,265.2 686.6,265.3 687.7,265.2 688.8,265.2 689.9,265.1 691.0,265.1 692.1,265.1 693.2,265.1 694.2,265.0 695.3,265.1 696.4,265.1 697.5,265.0 698.6,265.0 699.7,265.0 700.8,265.0 701.9,264.9 703.0,264.9 704.1,264.9 705.2,264.9 706.3,264.9 707.4,264.8 708.5,268.9 709.6,268.9 710.7,268.8 711.8,268.8 712.8,268.8 713.9,268.8 715.0,268.7 716.1,268.7 717.2,268.6 718.3,268.7 719.4,268.6 720.5,268.6 721.6,268.6 722.7,268.6 723.8,268.6 724.9,268.5 726.0,268.6 727.1,268.5 728.2,268.5 729.3,268.4 730.4,268.5 731.4,268.5 732.5,268.4 733.6,268.4 734.7,268.4 735.8,268.4 736.9,268.3 738.0,268.3 739.1,268.2 740.2,268.3 741.3,268.2 742.4,268.2 743.5,268.2 744.6,268.2 745.7,268.2 746.8,268.1 747.9,268.2 749.0,268.1 750.0,268.1 751.1,268.0 752.2,271.6 753.3,271.6 754.4,271.6 755.5,271.5 756.6,271.6 757.7,271.5 758.8,271.5 759.9,271.4 761.0,271.4 762.1,271.4 763.2,271.4 764.3,271.4 765.4,271.4 766.5,271.4 767.6,271.3 768.6,271.3 769.7,271.2 770.8,271.3 771.9,271.2 773.0,271.2 774.1,271.2 775.2,271.2 776.3,271.1 777.4,271.1 778.5,271.1 779.6,271.1 780.7,271.1 781.8,271.0 782.9,271.1 784.0,271.0 785.1,271.0 786.2,270.9 787.2,271.0 788.3,270.9 789.4,270.9 790.5,270.8 791.6,270.8 792.7,270.8 793.8,270.8 794.9,270.7 796.0,274.0"/>
<text x="640" y="56" font-family="Arial" font-size="12" fill="#0f766e">nominal covariance trace</text>
</svg>