<svg xmlns="http://www.w3.org/2000/svg" width="820" height="320" viewBox="0 0 820 320">
<rect width="100%" height="100%" fill="white"/>
<text x="52" y="30" font-family="Arial" font-size="18" font-weight="700">ekf_nominal position error</text>
<line x1="52" y1="274" x2="796" y2="274" stroke="#263238"/>
<line x1="52" y1="42" x2="52" y2="274" stroke="#263238"/>
<text x="52" y="306" font-family="Arial" font-size="12">time (s)</text>
<text x="630" y="306" font-family="Arial" font-size="12">m</text>

<rect x="314.6" y="42" width="153.2" height="232" fill="#fef3c7" opacity="0.72"/>
<polyline fill="none" stroke="#0f766e" stroke-width="2.3" points="52.0,50.6 53.1,49.8 54.2,49.0 55.3,48.2 56.4,47.4 57.5,46.6 58.6,45.7 59.7,44.9 60.8,44.1 61.8,43.2 62.9,47.0 64.0,46.3 65.1,45.6 66.2,48.2 67.3,47.8 68.4,47.3 69.5,46.9 70.6,46.4 71.7,46.0 72.8,45.5 73.9,45.5 75.0,46.6 76.1,46.1 77.2,46.3 78.3,46.4 79.4,46.1 80.4,45.8 81.5,45.4 82.6,45.2 83.7,44.9 84.8,44.6 85.9,44.4 87.0,44.2 88.1,43.9 89.2,43.7 90.3,43.4 91.4,43.1 92.5,43.4 93.6,42.7 94.7,42.0 95.8,186.1 96.9,185.5 98.0,185.0 99.0,184.4 100.1,183.8 101.2,183.3 102.3,182.7 103.4,182.1 104.5,181.5 105.6,181.1 106.7,180.5 107.8,179.9 108.9,179.7 110.0,179.2 111.1,178.7 112.2,178.2 113.3,177.7 114.4,176.6 115.5,176.0 116.6,175.4 117.6,174.7 118.7,173.4 119.8,172.7 120.9,171.9 122.0,172.2 123.1,171.6 124.2,171.0 125.3,170.4 126.4,169.7 127.5,169.3 128.6,168.5 129.7,167.9 130.8,167.3 131.9,166.6 133.0,166.0 134.1,165.4 135.2,164.8 136.2,165.9 137.3,165.4 138.4,164.9 139.5,192.9 140.6,192.3 141.7,191.6 142.8,190.9 143.9,190.2 145.0,190.5 146.1,189.8 147.2,189.2 148.3,188.7 149.4,188.0 150.5,187.4 151.6,186.8 152.7,186.2 153.8,186.3 154.8,185.7 155.9,185.1 157.0,184.6 158.1,184.3 159.2,183.7 160.3,183.1 161.4,182.6 162.5,182.0 163.6,181.4 164.7,180.9 165.8,180.3 166.9,179.4 168.0,178.8 169.1,178.2 170.2,178.7 171.3,178.1 172.4,177.6 173.4,177.0 174.5,176.5 175.6,177.5 176.7,177.0 177.8,176.5 178.9,176.0 180.0,175.3 181.1,174.8 182.2,174.3 183.3,251.3 184.4,251.7 185.5,251.3 186.6,251.0 187.7,250.6 188.8,250.8 189.9,250.5 191.0,250.3 192.0,249.1 193.1,248.8 194.2,248.4 195.3,248.1 196.4,247.1 197.5,246.8 198.6,246.4 199.7,246.1 200.8,246.5 201.9,246.3 203.0,246.0 204.1,245.7 205.2,245.4 206.3,243.7 207.4,243.4 208.5,243.0 209.6,243.3 210.6,243.0 211.7,242.7 212.8,242.4 213.9,242.1 215.0,241.4 216.1,241.1 217.2,240.8 218.3,240.1 219.4,239.7 220.5,239.4 221.6,239.0 222.7,238.7 223.8,237.4 224.9,237.0 226.0,236.6 227.1,260.1 228.2,258.6 229.2,258.2 230.3,257.7 231.4,257.3 232.5,256.9 233.6,256.4 234.7,256.0 235.8,255.6 236.9,256.4 238.0,256.0 239.1,255.6 240.2,255.3 241.3,255.5 242.4,255.2 243.5,254.8 244.6,254.5 245.7,252.7 246.8,252.3 247.8,251.9 248.9,251.5 250.0,251.4 251.1,251.0 252.2,250.7 253.3,250.3 254.4,249.7 255.5,249.4 256.6,249.0 257.7,249.7 258.8,249.3 259.9,249.0 261.0,248.7 262.1,248.3 263.2,247.9 264.3,247.6 265.4,247.3 266.4,247.0 267.5,246.6 268.6,246.3 269.7,246.0 270.8,248.4 271.9,248.1 273.0,247.8 274.1,247.5 275.2,247.2 276.3,246.1 277.4,245.8 278.5,245.5 279.6,245.7 280.7,245.4 281.8,245.1 282.9,244.8 284.0,245.1 285.0,244.9 286.1,244.6 287.2,244.3 288.3,244.0 289.4,244.0 290.5,243.8 291.6,243.5 292.7,240.3 293.8,240.0 294.9,239.6 296.0,239.3 297.1,238.9 298.2,236.2 299.3,235.8 300.4,235.4 301.5,235.0 302.6,235.1 303.6,234.8 304.7,234.4 305.8,233.6 306.9,233.2 308.0,232.9 309.1,232.5 310.2,232.7 311.3,232.4 312.4,232.0 313.5,231.6 314.6,233.2 315.7,232.9 316.8,232.6 317.9,232.3 319.0,229.0 320.1,228.6 321.2,228.2 322.2,227.9 323.3,230.6 324.4,230.3 325.5,230.0 326.6,229.7 327.7,229.2 328.8,228.9 329.9,228.6 331.0,228.3 332.1,225.9 333.2,225.6 334.3,225.2 335.4,224.8 336.5,224.4 337.6,224.2 338.7,223.9 339.8,223.5 340.8,223.1 341.9,222.7 343.0,222.3 344.1,221.9 345.2,221.5 346.3,220.0 347.4,219.6 348.5,219.1 349.6,221.4 350.7,221.0 351.8,220.6 352.9,220.3 354.0,217.7 355.1,217.2 356.2,216.8 357.3,216.3 358.4,219.4 359.4,219.0 360.5,218.7 361.6,218.3 362.7,217.9 363.8,216.4 364.9,216.0 366.0,215.6 367.1,214.8 368.2,214.4 369.3,214.1 370.4,213.7 371.5,211.3 372.6,210.8 373.7,210.3 374.8,210.0 375.9,208.4 377.0,208.0 378.0,207.5 379.1,207.0 380.2,206.6 381.3,206.2 382.4,205.8 383.5,205.3 384.6,204.8 385.7,203.6 386.8,203.2 387.9,202.7 389.0,202.3 390.1,203.0 391.2,202.6 392.3,202.2 393.4,200.3 394.5,199.8 395.6,199.4 396.6,198.9 397.7,198.4 398.8,197.6 399.9,197.2 401.0,196.7 402.1,196.6 403.2,196.2 404.3,195.7 405.4,195.3 406.5,194.8 407.6,196.6 408.7,196.2 409.8,195.8 410.9,194.5 412.0,194.0 413.1,193.6 414.2,193.2 415.2,193.0 416.3,192.6 417.4,192.2 418.5,191.8 419.6,192.5 420.7,192.1 421.8,191.7 422.9,191.4 424.0,191.4 425.1,191.0 426.2,190.7 427.3,190.3 428.4,190.3 429.5,190.0 430.6,189.7 431.7,189.4 432.8,187.3 433.8,186.9 434.9,186.5 436.0,186.2 437.1,186.4 438.2,186.0 439.3,185.7 440.4,185.3 441.5,185.0 442.6,185.6 443.7,185.3 444.8,185.0 445.9,181.1 447.0,180.7 448.1,180.3 449.2,179.9 450.3,177.4 451.4,177.0 452.4,176.5 453.5,176.1 454.6,176.5 455.7,176.1 456.8,175.7 457.9,175.3 459.0,174.8 460.1,175.1 461.2,174.7 462.3,174.3 463.4,173.8 464.5,172.6 465.6,172.1 466.7,171.7 467.8,171.2 468.9,169.5 470.0,169.0 471.0,168.5 472.1,168.1 473.2,166.8 474.3,166.3 475.4,165.9 476.5,167.2 477.6,166.8 478.7,166.3 479.8,165.9 480.9,166.7 482.0,166.3 483.1,166.0 484.2,165.6 485.3,165.1 486.4,164.7 487.5,164.3 488.6,164.0 489.6,211.4 490.7,212.0 491.8,211.6 492.9,211.3 494.0,209.8 495.1,209.4 496.2,209.1 497.3,208.7 498.4,209.1 499.5,208.7 500.6,208.3 501.7,207.9 502.8,207.4 503.9,207.0 505.0,206.6 506.1,206.2 507.2,205.9 508.2,204.9 509.3,204.4 510.4,204.0 511.5,203.6 512.6,203.1 513.7,202.7 514.8,202.3 515.9,200.6 517.0,200.1 518.1,199.7 519.2,199.2 520.3,198.8 521.4,199.7 522.5,199.4 523.6,198.9 524.7,198.6 525.8,198.2 526.8,197.8 527.9,197.4 529.0,198.3 530.1,197.9 531.2,197.5 532.3,197.1 533.4,254.3 534.5,254.0 535.6,253.6 536.7,253.3 537.8,252.9 538.9,253.8 540.0,253.5 541.1,253.2 542.2,252.9 543.3,252.2 544.4,251.9 545.4,251.5 546.5,251.4 547.6,251.1 548.7,250.8 549.8,250.4 550.9,250.1 552.0,247.0 553.1,246.6 554.2,246.2 555.3,245.4 556.4,245.0 557.5,244.6 558.6,244.2 559.7,243.5 560.8,243.1 561.9,242.7 563.0,242.2 564.0,241.4 565.1,241.0 566.2,240.6 567.3,240.2 568.4,239.8 569.5,239.2 570.6,238.8 571.7,238.4 572.8,237.9 573.9,238.0 575.0,237.6 576.1,237.2 577.2,274.0 578.3,273.6 579.4,273.2 580.5,272.9 581.6,272.5 582.6,273.4 583.7,273.0 584.8,272.7 585.9,272.4 587.0,271.2 588.1,270.8 589.2,270.5 590.3,270.1 591.4,269.0 592.5,268.6 593.6,268.3 594.7,267.9 595.8,267.0 596.9,266.6 598.0,266.3 599.1,265.8 600.2,264.7 601.2,264.3 602.3,263.9 603.4,263.4 604.5,263.8 605.6,263.4 606.7,262.9 607.8,262.6 608.9,262.2 610.0,261.8 611.1,261.4 612.2,261.0 613.3,261.8 614.4,261.4 615.5,261.1 616.6,260.9 617.7,260.5 618.8,260.1 619.8,259.8 620.9,271.8 622.0,271.4 623.1,271.1 624.2,270.7 625.3,270.3 626.4,269.9 627.5,269.5 628.6,269.1 629.7,268.7 630.8,268.9 631.9,268.6 633.0,268.2 634.1,267.8 635.2,267.4 636.3,267.1 637.4,266.7 638.4,264.1 639.5,263.7 640.6,263.2 641.7,262.8 642.8,264.2 643.9,263.8 645.0,263.4 646.1,263.0 647.2,261.9 648.3,261.6 649.4,261.2 650.5,260.7 651.6,259.3 652.7,258.8 653.8,258.3 654.9,257.8 656.0,257.4 657.0,255.3 658.1,254.8 659.2,254.3 660.3,253.8 661.4,254.4 662.5,254.0 663.6,253.5 664.7,259.5 665.8,259.2 666.9,258.7 668.0,258.3 669.1,257.5 670.2,256.9 671.3,256.4 672.4,255.9 673.5,255.1 674.6,254.6 675.6,254.2 676.7,253.7 677.8,253.2 678.9,252.2 680.0,251.7 681.1,251.2 682.2,250.7 683.3,252.2 684.4,251.7 685.5,251.2 686.6,251.1 687.7,250.6 688.8,250.1 689.9,249.7 691.0,249.2 692.1,247.5 693.2,247.1 694.2,246.6 695.3,246.8 696.4,246.3 697.5,245.8 698.6,245.3 699.7,244.7 700.8,244.2 701.9,243.7 703.0,243.3 704.1,242.8 705.2,242.1 706.3,241.7 707.4,241.2 708.5,252.2 709.6,251.7 710.7,251.3 711.8,250.9 712.8,249.3 713.9,248.9 715.0,248.4 716.1,247.9 717.2,247.4 718.3,247.8 719.4,247.4 720.5,246.9 721.6,246.5 722.7,245.6 723.8,245.2 724.9,244.8 726.0,245.4 727.1,245.0 728.2,244.6 729.3,244.2 730.4,243.1 731.4,242.7 732.5,242.2 733.6,241.8 734.7,241.2 735.8,240.8 736.9,240.4 738.0,239.9 739.1,239.5 740.2,240.7 741.3,240.3 742.4,239.9 743.5,239.5 744.6,237.6 745.7,237.2 746.8,236.7 747.9,239.0 749.0,238.7 750.0,238.3 751.1,238.0 752.2,252.6 753.3,252.2 754.4,251.9 755.5,251.5 756.6,253.2 757.7,252.9 758.8,252.6 759.9,252.3 761.0,252.0 762.1,253.2 763.2,253.0 764.3,252.7 765.4,250.1 766.5,249.8 767.6,249.5 768.6,249.2 769.7,248.9 770.8,246.7 771.9,246.3 773.0,246.0 774.1,245.1 775.2,244.7 776.3,244.3 777.4,243.9 778.5,245.1 779.6,244.8 780.7,244.4 781.8,244.1 782.9,242.1 784.0,241.7 785.1,241.3 786.2,241.0 787.2,238.1 788.3,237.6 789.4,237.2 790.5,236.7 791.6,236.3 792.7,237.0 793.8,236.6 794.9,236.1 796.0,260.9"/>
<text x="640" y="56" font-family="Arial" font-size="12" fill="#0f766e">ekf_nominal position error</text>
</svg>