<svg xmlns="http://www.w3.org/2000/svg" width="820" height="320" viewBox="0 0 820 320">
<rect width="100%" height="100%" fill="white"/>
<text x="52" y="30" font-family="Arial" font-size="18" font-weight="700">adaptive_nominal position error</text>
<line x1="52" y1="274" x2="796" y2="274" stroke="#263238"/>
<line x1="52" y1="42" x2="52" y2="274" stroke="#263238"/>
<text x="52" y="306" font-family="Arial" font-size="12">time (s)</text>
<text x="630" y="306" font-family="Arial" font-size="12">m</text>

<rect x="314.6" y="42" width="153.2" height="232" fill="#fef3c7" opacity="0.72"/>
<polyline fill="none" stroke="#0f766e" stroke-width="2.3" points="52.0,50.2 53.1,49.4 54.2,48.7 55.3,47.9 56.4,47.1 57.5,46.3 58.6,45.5 59.7,44.7 60.8,43.9 61.8,43.1 62.9,46.7 64.0,46.1 65.1,45.4 66.2,47.9 67.3,47.5 68.4,47.0 69.5,46.6 70.6,46.2 71.7,45.7 72.8,45.3 73.9,45.3 75.0,46.3 76.1,45.9 77.2,46.1 78.3,46.1 79.4,45.9 80.4,45.6 81.5,45.2 82.6,45.0 83.7,44.7 84.8,44.5 85.9,44.3 87.0,44.1 88.1,43.8 89.2,43.6 90.3,43.3 91.4,43.0 92.5,43.4 93.6,42.7 94.7,42.0 95.8,188.6 96.9,188.1 98.0,187.5 99.0,187.0 100.1,186.4 101.2,185.8 102.3,185.3 103.4,184.7 104.5,184.1 105.6,183.7 106.7,183.2 107.8,182.7 108.9,182.5 110.0,182.0 111.1,181.5 112.2,181.0 113.3,180.5 114.4,179.5 115.5,178.9 116.6,178.3 117.6,177.7 118.7,176.4 119.8,175.7 120.9,174.9 122.0,175.3 123.1,174.7 124.2,174.2 125.3,173.6 126.4,172.9 127.5,172.5 128.6,171.8 129.7,171.2 130.8,170.6 131.9,169.9 133.0,169.3 134.1,168.7 135.2,168.2 136.2,169.3 137.3,168.9 138.4,168.5 139.5,199.3 140.6,198.8 141.7,198.1 142.8,197.4 143.9,196.8 145.0,196.9 146.1,196.4 147.2,195.8 148.3,195.3 149.4,194.7 150.5,194.2 151.6,193.6 152.7,193.0 153.8,193.0 154.8,192.5 155.9,192.0 157.0,191.6 158.1,191.2 159.2,190.7 160.3,190.2 161.4,189.7 162.5,189.2 163.6,188.7 164.7,188.2 165.8,187.7 166.9,186.8 168.0,186.2 169.1,185.6 170.2,186.0 171.3,185.5 172.4,185.0 173.4,184.5 174.5,184.0 175.6,184.8 176.7,184.4 177.8,183.9 178.9,183.5 180.0,182.8 181.1,182.4 182.2,182.0 183.3,264.4 184.4,264.5 185.5,264.2 186.6,263.9 187.7,263.6 188.8,263.9 189.9,263.6 191.0,263.4 192.0,262.3 193.1,262.1 194.2,261.8 195.3,261.5 196.4,260.7 197.5,260.4 198.6,260.1 199.7,259.9 200.8,260.1 201.9,259.9 203.0,259.7 204.1,259.4 205.2,259.2 206.3,257.6 207.4,257.3 208.5,257.0 209.6,257.3 210.6,257.0 211.7,256.8 212.8,256.5 213.9,256.2 215.0,255.4 216.1,255.1 217.2,254.8 218.3,254.3 219.4,254.0 220.5,253.6 221.6,253.3 222.7,253.0 223.8,251.9 224.9,251.6 226.0,251.2 227.1,274.0 228.2,272.6 229.2,272.2 230.3,271.8 231.4,271.3 232.5,270.9 233.6,270.5 234.7,270.1 235.8,269.6 236.9,270.6 238.0,270.2 239.1,269.9 240.2,269.5 241.3,269.8 242.4,269.5 243.5,269.2 244.6,268.9 245.7,266.9 246.8,266.6 247.8,266.2 248.9,265.8 250.0,265.7 251.1,265.4 252.2,265.0 253.3,264.7 254.4,264.1 255.5,263.8 256.6,263.4 257.7,264.3 258.8,264.0 259.9,263.7 261.0,263.4 262.1,263.1 263.2,262.7 264.3,262.4 265.4,262.1 266.4,261.8 267.5,261.5 268.6,261.3 269.7,261.0 270.8,254.3 271.9,254.1 273.0,253.8 274.1,253.6 275.2,253.3 276.3,252.5 277.4,252.3 278.5,252.0 279.6,252.3 280.7,252.0 281.8,251.8 282.9,251.5 284.0,251.4 285.0,251.2 286.1,250.9 287.2,250.7 288.3,250.5 289.4,250.5 290.5,250.2 291.6,250.0 292.7,247.0 293.8,246.7 294.9,246.4 296.0,246.0 297.1,245.7 298.2,243.3 299.3,242.9 300.4,242.5 301.5,242.1 302.6,242.4 303.6,242.0 304.7,241.7 305.8,241.2 306.9,240.8 308.0,240.5 309.1,240.1 310.2,240.3 311.3,239.9 312.4,239.6 313.5,239.2 314.6,240.4 315.7,240.1 316.8,239.8 317.9,239.5 319.0,237.0 320.1,236.6 321.2,236.2 322.2,235.9 323.3,237.8 324.4,237.5 325.5,237.3 326.6,237.0 327.7,236.7 328.8,236.4 329.9,236.1 331.0,235.9 332.1,234.1 333.2,233.8 334.3,233.4 335.4,233.1 336.5,232.7 337.6,232.4 338.7,232.1 339.8,231.7 340.8,231.7 341.9,231.3 343.0,231.0 344.1,230.6 345.2,230.3 346.3,229.0 347.4,228.6 348.5,228.2 349.6,229.5 350.7,229.2 351.8,228.8 352.9,228.4 354.0,226.8 355.1,226.3 356.2,225.9 357.3,225.5 358.4,227.3 359.4,226.9 360.5,226.6 361.6,226.2 362.7,225.9 363.8,224.6 364.9,224.2 366.0,223.8 367.1,223.2 368.2,222.8 369.3,222.5 370.4,222.1 371.5,220.1 372.6,219.6 373.7,219.1 374.8,218.8 375.9,216.9 377.0,216.4 378.0,216.0 379.1,215.5 380.2,215.0 381.3,215.2 382.4,214.8 383.5,214.3 384.6,213.9 385.7,213.0 386.8,212.6 387.9,212.2 389.0,211.7 390.1,212.3 391.2,211.8 392.3,211.4 393.4,209.4 394.5,208.9 395.6,208.5 396.6,208.0 397.7,207.5 398.8,207.0 399.9,206.5 401.0,206.1 402.1,206.0 403.2,205.5 404.3,205.1 405.4,204.6 406.5,204.2 407.6,206.3 408.7,205.9 409.8,205.5 410.9,204.2 412.0,203.8 413.1,203.4 414.2,203.0 415.2,202.8 416.3,202.4 417.4,202.1 418.5,201.7 419.6,202.4 420.7,202.0 421.8,201.7 422.9,201.3 424.0,201.3 425.1,201.0 426.2,200.7 427.3,200.3 428.4,200.5 429.5,200.2 430.6,199.9 431.7,199.6 432.8,197.6 433.8,197.2 434.9,196.8 436.0,196.5 437.1,196.9 438.2,196.5 439.3,196.2 440.4,195.9 441.5,195.6 442.6,196.0 443.7,195.7 444.8,195.5 445.9,192.1 447.0,191.7 448.1,191.3 449.2,191.0 450.3,188.3 451.4,187.9 452.4,187.4 453.5,187.0 454.6,187.4 455.7,187.0 456.8,186.5 457.9,186.1 459.0,185.6 460.1,185.7 461.2,185.2 462.3,184.8 463.4,184.4 464.5,183.4 465.6,182.9 466.7,182.5 467.8,182.0 468.9,180.4 470.0,179.9 471.0,179.4 472.1,178.9 473.2,177.8 474.3,177.3 475.4,176.8 476.5,178.3 477.6,177.9 478.7,177.5 479.8,177.1 480.9,178.2 482.0,177.9 483.1,177.6 484.2,177.2 485.3,176.7 486.4,176.4 487.5,176.1 488.6,175.7 489.6,233.2 490.7,233.8 491.8,233.5 492.9,233.2 494.0,231.7 495.1,231.3 496.2,231.0 497.3,230.6 498.4,231.1 499.5,230.7 500.6,230.3 501.7,230.0 502.8,229.5 503.9,229.2 505.0,228.8 506.1,228.5 507.2,228.2 508.2,227.2 509.3,226.8 510.4,226.4 511.5,226.0 512.6,225.6 513.7,225.2 514.8,224.8 515.9,223.1 517.0,222.7 518.1,222.2 519.2,221.7 520.3,221.3 521.4,222.4 522.5,222.0 523.6,221.6 524.7,221.3 525.8,220.9 526.8,220.5 527.9,220.1 529.0,220.4 530.1,220.1 531.2,219.7 532.3,219.4 533.4,258.0 534.5,257.7 535.6,257.4 536.7,257.0 537.8,256.7 538.9,257.0 540.0,256.7 541.1,256.4 542.2,256.1 543.3,255.6 544.4,255.3 545.4,255.0 546.5,254.9 547.6,254.6 548.7,254.2 549.8,253.9 550.9,253.6 552.0,251.2 553.1,250.8 554.2,250.4 555.3,249.8 556.4,249.4 557.5,249.0 558.6,248.7 559.7,248.0 560.8,247.6 561.9,247.2 563.0,246.8 564.0,246.1 565.1,245.7 566.2,245.3 567.3,244.9 568.4,244.5 569.5,244.0 570.6,243.6 571.7,243.2 572.8,242.8 573.9,242.8 575.0,242.4 576.1,242.0 577.2,267.2 578.3,266.9 579.4,266.5 580.5,266.1 581.6,265.8 582.6,266.3 583.7,266.0 584.8,265.6 585.9,265.3 587.0,264.6 588.1,264.3 589.2,264.0 590.3,263.6 591.4,262.9 592.5,262.6 593.6,262.2 594.7,261.9 595.8,261.4 596.9,261.0 598.0,260.7 599.1,260.3 600.2,259.6 601.2,259.2 602.3,258.9 603.4,258.5 604.5,258.3 605.6,257.9 606.7,257.5 607.8,257.1 608.9,256.8 610.0,256.4 611.1,256.1 612.2,255.7 613.3,255.8 614.4,255.5 615.5,255.2 616.6,254.9 617.7,254.6 618.8,254.2 619.8,253.9 620.9,257.9 622.0,257.6 623.1,257.2 624.2,256.8 625.3,256.4 626.4,256.1 627.5,255.7 628.6,255.3 629.7,254.9 630.8,254.7 631.9,254.4 633.0,254.0 634.1,253.6 635.2,253.2 636.3,252.9 637.4,252.5 638.4,251.3 639.5,250.9 640.6,250.5 641.7,250.1 642.8,250.3 643.9,249.9 645.0,249.5 646.1,249.1 647.2,248.6 648.3,248.2 649.4,247.8 650.5,247.4 651.6,246.6 652.7,246.2 653.8,245.7 654.9,245.3 656.0,244.9 657.0,243.7 658.1,243.2 659.2,242.8 660.3,242.3 661.4,242.2 662.5,241.8 663.6,241.4 664.7,243.8 665.8,243.4 666.9,243.0 668.0,242.6 669.1,241.7 670.2,241.1 671.3,240.6 672.4,240.2 673.5,239.2 674.6,238.7 675.6,238.3 676.7,237.8 677.8,237.3 678.9,236.2 680.0,235.7 681.1,235.2 682.2,234.7 683.3,236.5 684.4,236.0 685.5,235.5 686.6,235.3 687.7,234.8 688.8,234.3 689.9,233.9 691.0,233.4 692.1,230.8 693.2,230.3 694.2,229.8 695.3,230.6 696.4,230.1 697.5,229.6 698.6,229.1 699.7,228.5 700.8,228.0 701.9,227.5 703.0,227.1 704.1,226.6 705.2,225.7 706.3,225.2 707.4,224.8 708.5,236.9 709.6,236.5 710.7,236.1 711.8,235.7 712.8,233.0 713.9,232.5 715.0,232.0 716.1,231.6 717.2,231.1 718.3,232.2 719.4,231.8 720.5,231.4 721.6,231.0 722.7,229.6 723.8,229.1 724.9,228.6 726.0,230.9 727.1,230.6 728.2,230.2 729.3,229.8 730.4,227.6 731.4,227.3 732.5,226.9 733.6,226.5 734.7,225.6 735.8,225.2 736.9,224.8 738.0,224.3 739.1,223.9 740.2,225.8 741.3,225.4 742.4,225.0 743.5,224.7 744.6,221.8 745.7,221.4 746.8,221.0 747.9,224.6 749.0,224.3 750.0,224.0 751.1,223.7 752.2,242.9 753.3,242.4 754.4,242.0 755.5,241.7 756.6,243.7 757.7,243.4 758.8,243.2 759.9,242.9 761.0,242.7 762.1,244.2 763.2,244.0 764.3,243.8 765.4,241.1 766.5,240.9 767.6,240.6 768.6,240.3 769.7,240.0 770.8,237.3 771.9,236.9 773.0,236.5 774.1,235.5 775.2,235.1 776.3,234.7 777.4,234.3 778.5,236.1 779.6,235.8 780.7,235.4 781.8,235.1 782.9,233.2 784.0,232.8 785.1,232.4 786.2,232.0 787.2,229.1 788.3,228.6 789.4,228.2 790.5,227.7 791.6,227.3 792.7,227.9 793.8,227.5 794.9,227.1 796.0,260.1"/>
<text x="640" y="56" font-family="Arial" font-size="12" fill="#0f766e">adaptive_nominal position error</text>
</svg>