<svg xmlns="http://www.w3.org/2000/svg" width="820" height="320" viewBox="0 0 820 320">
<rect width="100%" height="100%" fill="white"/>
<text x="52" y="30" font-family="Arial" font-size="18" font-weight="700">robust_dropout_robust position error</text>
<line x1="52" y1="274" x2="796" y2="274" stroke="#263238"/>
<line x1="52" y1="42" x2="52" y2="274" stroke="#263238"/>
<text x="52" y="306" font-family="Arial" font-size="12">time (s)</text>
<text x="630" y="306" font-family="Arial" font-size="12">m</text>

<rect x="314.6" y="42" width="153.2" height="232" fill="#fef3c7" opacity="0.72"/>
<polyline fill="none" stroke="#0f766e" stroke-width="2.3" points="52.0,49.7 53.1,49.0 54.2,48.2 55.3,47.4 56.4,46.7 57.5,45.9 58.6,45.1 59.7,44.3 60.8,43.5 61.8,42.7 62.9,45.6 64.0,44.9 65.1,44.2 66.2,47.5 67.3,47.1 68.4,46.7 69.5,46.3 70.6,45.9 71.7,45.5 72.8,45.1 73.9,45.1 75.0,46.4 76.1,46.0 77.2,46.0 78.3,46.0 79.4,45.7 80.4,45.4 81.5,45.1 82.6,44.8 83.7,44.6 84.8,44.5 85.9,44.3 87.0,44.1 88.1,43.9 89.2,43.6 90.3,43.4 91.4,43.1 92.5,43.2 93.6,42.6 94.7,42.0 95.8,155.9 96.9,155.5 98.0,155.0 99.0,154.6 100.1,154.1 101.2,153.6 102.3,153.1 103.4,152.6 104.5,152.1 105.6,151.9 106.7,151.5 107.8,151.1 108.9,150.9 110.0,150.5 111.1,150.2 112.2,149.8 113.3,149.4 114.4,148.4 115.5,147.9 116.6,147.4 117.6,146.9 118.7,145.7 119.8,145.1 120.9,144.5 122.0,144.7 123.1,144.3 124.2,143.8 125.3,143.3 126.4,142.7 127.5,142.3 128.6,141.7 129.7,141.2 130.8,140.7 131.9,140.1 133.0,139.6 134.1,139.1 135.2,138.6 136.2,139.5 137.3,139.1 138.4,138.8 139.5,156.7 140.6,156.2 141.7,155.7 142.8,155.0 143.9,154.5 145.0,154.7 146.1,154.2 147.2,153.7 148.3,153.2 149.4,152.7 150.5,152.2 151.6,151.7 152.7,151.2 153.8,151.3 154.8,150.8 155.9,150.4 157.0,150.0 158.1,149.6 159.2,149.2 160.3,148.8 161.4,148.4 162.5,147.9 163.6,147.5 164.7,147.0 165.8,146.6 166.9,145.8 168.0,145.3 169.1,144.8 170.2,145.1 171.3,144.7 172.4,144.3 173.4,143.9 174.5,143.4 175.6,144.1 176.7,143.8 177.8,143.4 178.9,143.1 180.0,142.4 181.1,142.1 182.2,141.7 183.3,202.2 184.4,202.3 185.5,202.1 186.6,201.9 187.7,201.6 188.8,201.8 189.9,201.6 191.0,201.4 192.0,200.4 193.1,200.1 194.2,199.9 195.3,199.6 196.4,198.9 197.5,198.6 198.6,198.4 199.7,198.1 200.8,198.4 201.9,198.2 203.0,198.0 204.1,197.8 205.2,197.6 206.3,196.1 207.4,195.8 208.5,195.5 209.6,195.8 210.6,195.6 211.7,195.3 212.8,195.1 213.9,194.8 215.0,194.1 216.1,193.9 217.2,193.6 218.3,193.2 219.4,192.9 220.5,192.6 221.6,192.2 222.7,191.9 223.8,191.0 224.9,190.7 226.0,190.3 227.1,209.9 228.2,208.7 229.2,208.3 230.3,207.8 231.4,207.5 232.5,207.1 233.6,206.7 234.7,206.3 235.8,205.9 236.9,206.7 238.0,206.4 239.1,206.0 240.2,205.7 241.3,205.9 242.4,205.6 243.5,205.4 244.6,205.1 245.7,203.7 246.8,203.4 247.8,203.0 248.9,202.7 250.0,202.5 251.1,202.2 252.2,201.9 253.3,201.6 254.4,201.2 255.5,200.9 256.6,200.5 257.7,201.1 258.8,200.9 259.9,200.6 261.0,200.4 262.1,200.1 263.2,199.7 264.3,199.5 265.4,199.2 266.4,199.0 267.5,198.7 268.6,198.5 269.7,198.2 270.8,198.1 271.9,197.9 273.0,197.6 274.1,197.4 275.2,197.2 276.3,196.3 277.4,196.0 278.5,195.8 279.6,196.1 280.7,195.8 281.8,195.6 282.9,195.3 284.0,195.4 285.0,195.2 286.1,195.0 287.2,194.8 288.3,194.6 289.4,194.6 290.5,194.4 291.6,194.2 292.7,191.5 293.8,191.2 294.9,190.8 296.0,190.5 297.1,190.2 298.2,188.1 299.3,187.7 300.4,187.3 301.5,186.9 302.6,187.3 303.6,186.9 304.7,186.5 305.8,186.1 306.9,185.7 308.0,185.4 309.1,185.0 310.2,185.3 311.3,185.0 312.4,184.7 313.5,184.4 314.6,185.7 315.7,185.4 316.8,185.2 317.9,185.0 319.0,182.3 320.1,181.9 321.2,181.5 322.2,181.2 323.3,183.4 324.4,183.2 325.5,183.0 326.6,182.8 327.7,182.3 328.8,182.1 329.9,181.8 331.0,181.6 332.1,179.7 333.2,179.4 334.3,179.1 335.4,178.7 336.5,178.4 337.6,178.2 338.7,177.9 339.8,177.6 340.8,177.5 341.9,177.1 343.0,176.8 344.1,176.5 345.2,176.1 346.3,174.9 347.4,174.5 348.5,174.1 349.6,176.0 350.7,175.7 351.8,175.4 352.9,175.2 354.0,173.0 355.1,172.6 356.2,172.2 357.3,171.7 358.4,174.3 359.4,174.0 360.5,173.8 361.6,173.5 362.7,173.3 363.8,171.7 364.9,171.4 366.0,171.1 367.1,170.4 368.2,170.1 369.3,169.8 370.4,169.5 371.5,167.6 372.6,167.1 373.7,166.7 374.8,166.4 375.9,165.1 377.0,164.7 378.0,164.2 379.1,163.7 380.2,163.3 381.3,163.3 382.4,162.9 383.5,162.5 384.6,162.1 385.7,161.3 386.8,160.9 387.9,160.4 389.0,160.0 390.1,160.7 391.2,160.3 392.3,159.9 393.4,158.4 394.5,157.9 395.6,157.5 396.6,157.0 397.7,156.6 398.8,156.1 399.9,155.7 401.0,155.3 402.1,155.3 403.2,154.9 404.3,154.4 405.4,154.0 406.5,153.6 407.6,155.2 408.7,154.9 409.8,154.7 410.9,153.4 412.0,153.1 413.1,152.8 414.2,152.4 415.2,152.2 416.3,151.8 417.4,151.5 418.5,151.2 419.6,151.7 420.7,151.4 421.8,151.1 422.9,150.9 424.0,150.7 425.1,150.5 426.2,150.2 427.3,149.9 428.4,149.9 429.5,149.6 430.6,149.4 431.7,149.2 432.8,147.4 433.8,147.1 434.9,146.7 436.0,146.4 437.1,146.7 438.2,146.4 439.3,146.1 440.4,145.8 441.5,145.5 442.6,145.9 443.7,145.7 444.8,145.5 445.9,142.5 447.0,142.1 448.1,141.7 449.2,141.3 450.3,139.4 451.4,138.9 452.4,138.4 453.5,137.9 454.6,138.6 455.7,138.1 456.8,137.7 457.9,137.3 459.0,136.8 460.1,137.1 461.2,136.7 462.3,136.3 463.4,135.9 464.5,135.1 465.6,134.6 466.7,134.2 467.8,133.8 468.9,132.5 470.0,132.0 471.0,131.6 472.1,131.1 473.2,130.3 474.3,129.8 475.4,129.3 476.5,130.4 477.6,130.0 478.7,129.7 479.8,129.3 480.9,129.9 482.0,129.6 483.1,129.3 484.2,129.0 485.3,128.5 486.4,128.2 487.5,127.9 488.6,127.6 489.6,202.9 490.7,203.1 491.8,202.9 492.9,202.6 494.0,201.6 495.1,201.3 496.2,201.0 497.3,200.6 498.4,200.9 499.5,200.5 500.6,200.2 501.7,199.9 502.8,199.5 503.9,199.2 505.0,198.8 506.1,198.5 507.2,198.3 508.2,197.5 509.3,197.1 510.4,196.8 511.5,196.4 512.6,196.0 513.7,195.6 514.8,195.2 515.9,194.0 517.0,193.5 518.1,193.1 519.2,192.7 520.3,192.2 521.4,193.2 522.5,192.9 523.6,192.5 524.7,192.2 525.8,191.8 526.8,191.5 527.9,191.2 529.0,191.8 530.1,191.5 531.2,191.2 532.3,190.9 533.4,249.8 534.5,249.6 535.6,249.3 536.7,249.1 537.8,248.8 538.9,249.3 540.0,249.1 541.1,248.9 542.2,248.7 543.3,248.0 544.4,247.8 545.4,247.5 546.5,247.3 547.6,247.1 548.7,246.9 549.8,246.6 550.9,246.4 552.0,243.8 553.1,243.4 554.2,243.0 555.3,242.5 556.4,242.1 557.5,241.8 558.6,241.4 559.7,240.8 560.8,240.4 561.9,240.0 563.0,239.6 564.0,239.1 565.1,238.7 566.2,238.2 567.3,237.8 568.4,237.4 569.5,237.1 570.6,236.7 571.7,236.3 572.8,235.9 573.9,236.1 575.0,235.7 576.1,235.4 577.2,274.0 578.3,273.6 579.4,273.3 580.5,273.0 581.6,272.6 582.6,273.5 583.7,273.2 584.8,273.0 585.9,272.7 587.0,271.6 588.1,271.3 589.2,270.9 590.3,270.6 591.4,269.7 592.5,269.4 593.6,269.0 594.7,268.6 595.8,267.9 596.9,267.6 598.0,267.2 599.1,266.8 600.2,266.0 601.2,265.6 602.3,265.2 603.4,264.8 604.5,265.3 605.6,264.9 606.7,264.6 607.8,264.3 608.9,263.9 610.0,263.6 611.1,263.3 612.2,262.9 613.3,263.6 614.4,263.3 615.5,263.0 616.6,262.8 617.7,262.5 618.8,262.2 619.8,261.9 620.9,265.3 622.0,265.1 623.1,264.8 624.2,264.4 625.3,264.1 626.4,263.8 627.5,263.5 628.6,263.2 629.7,262.9 630.8,263.3 631.9,263.1 633.0,262.8 634.1,262.5 635.2,262.3 636.3,262.0 637.4,261.7 638.4,259.1 639.5,258.7 640.6,258.3 641.7,257.9 642.8,259.4 643.9,259.1 645.0,258.8 646.1,258.5 647.2,257.2 648.3,257.0 649.4,256.6 650.5,256.2 651.6,255.0 652.7,254.6 653.8,254.1 654.9,253.7 656.0,253.3 657.0,251.5 658.1,251.0 659.2,250.5 660.3,250.0 661.4,251.0 662.5,250.6 663.6,250.2 664.7,248.3 665.8,248.0 666.9,247.7 668.0,247.3 669.1,246.7 670.2,246.2 671.3,245.8 672.4,245.4 673.5,244.8 674.6,244.4 675.6,244.1 676.7,243.7 677.8,243.2 678.9,242.6 680.0,242.1 681.1,241.7 682.2,241.3 683.3,242.6 684.4,242.2 685.5,241.9 686.6,241.7 687.7,241.3 688.8,241.0 689.9,240.7 691.0,240.3 692.1,239.0 693.2,238.7 694.2,238.3 695.3,238.3 696.4,237.9 697.5,237.5 698.6,237.2 699.7,236.6 700.8,236.2 701.9,235.8 703.0,235.5 704.1,235.1 705.2,234.6 706.3,234.2 707.4,233.8 708.5,239.7 709.6,239.3 710.7,239.0 711.8,238.7 712.8,237.4 713.9,237.0 715.0,236.6 716.1,236.2 717.2,235.8 718.3,236.1 719.4,235.8 720.5,235.4 721.6,235.1 722.7,234.3 723.8,233.9 724.9,233.6 726.0,233.9 727.1,233.6 728.2,233.3 729.3,233.0 730.4,232.1 731.4,231.7 732.5,231.4 733.6,231.1 734.7,230.6 735.8,230.2 736.9,229.9 738.0,229.5 739.1,229.1 740.2,230.2 741.3,229.9 742.4,229.6 743.5,229.3 744.6,227.6 745.7,227.3 746.8,226.9 747.9,228.6 749.0,228.4 750.0,228.2 751.1,227.9 752.2,239.1 753.3,238.6 754.4,238.4 755.5,238.1 756.6,239.2 757.7,239.1 758.8,238.9 759.9,238.8 761.0,238.6 762.1,239.4 763.2,239.3 764.3,239.1 765.4,237.0 766.5,236.7 767.6,236.5 768.6,236.3 769.7,236.0 770.8,234.2 771.9,233.9 773.0,233.5 774.1,232.8 775.2,232.5 776.3,232.1 777.4,231.8 778.5,232.8 779.6,232.5 780.7,232.2 781.8,232.0 782.9,230.3 784.0,230.0 785.1,229.6 786.2,229.3 787.2,227.0 788.3,226.5 789.4,226.1 790.5,225.6 791.6,225.1 792.7,225.9 793.8,225.5 794.9,225.1 796.0,246.7"/>
<text x="640" y="56" font-family="Arial" font-size="12" fill="#0f766e">robust_dropout_robust position error</text>
</svg>