<svg xmlns="http://www.w3.org/2000/svg" width="820" height="320" viewBox="0 0 820 320">
<rect width="100%" height="100%" fill="white"/>
<text x="52" y="30" font-family="Arial" font-size="18" font-weight="700">adaptive_dropout_robust position error</text>
<line x1="52" y1="274" x2="796" y2="274" stroke="#263238"/>
<line x1="52" y1="42" x2="52" y2="274" stroke="#263238"/>
<text x="52" y="306" font-family="Arial" font-size="12">time (s)</text>
<text x="630" y="306" font-family="Arial" font-size="12">m</text>

<rect x="314.6" y="42" width="153.2" height="232" fill="#fef3c7" opacity="0.72"/>
<polyline fill="none" stroke="#0f766e" stroke-width="2.3" points="52.0,48.7 53.1,48.0 54.2,47.4 55.3,46.8 56.4,46.2 57.5,45.5 58.6,44.9 59.7,44.2 60.8,43.6 61.8,42.9 62.9,45.3 64.0,44.8 65.1,44.2 66.2,46.7 67.3,46.3 68.4,46.0 69.5,45.7 70.6,45.3 71.7,45.0 72.8,44.6 73.9,44.6 75.0,45.7 76.1,45.4 77.2,45.4 78.3,45.4 79.4,45.2 80.4,44.9 81.5,44.7 82.6,44.4 83.7,44.2 84.8,44.1 85.9,43.9 87.0,43.8 88.1,43.6 89.2,43.4 90.3,43.2 91.4,43.0 92.5,43.2 93.6,42.6 94.7,42.0 95.8,151.7 96.9,151.3 98.0,150.8 99.0,150.4 100.1,150.0 101.2,149.5 102.3,149.1 103.4,148.7 104.5,148.2 105.6,148.0 106.7,147.6 107.8,147.2 108.9,147.0 110.0,146.7 111.1,146.3 112.2,146.0 113.3,145.6 114.4,144.9 115.5,144.4 116.6,144.0 117.6,143.5 118.7,142.5 119.8,142.0 120.9,141.4 122.0,141.6 123.1,141.2 124.2,140.8 125.3,140.4 126.4,139.9 127.5,139.5 128.6,139.0 129.7,138.6 130.8,138.1 131.9,137.6 133.0,137.2 134.1,136.7 135.2,136.3 136.2,137.0 137.3,136.8 138.4,136.5 139.5,154.7 140.6,154.3 141.7,153.9 142.8,153.3 143.9,152.8 145.0,152.9 146.1,152.5 147.2,152.1 148.3,151.7 149.4,151.3 150.5,150.9 151.6,150.5 152.7,150.0 153.8,150.0 154.8,149.7 155.9,149.3 157.0,149.0 158.1,148.6 159.2,148.3 160.3,147.9 161.4,147.6 162.5,147.2 163.6,146.8 164.7,146.5 165.8,146.1 166.9,145.4 168.0,145.0 169.1,144.6 170.2,144.8 171.3,144.4 172.4,144.1 173.4,143.7 174.5,143.4 175.6,143.9 176.7,143.6 177.8,143.3 178.9,143.1 180.0,142.5 181.1,142.2 182.2,141.9 183.3,200.4 184.4,200.5 185.5,200.3 186.6,200.1 187.7,199.9 188.8,200.0 189.9,199.9 191.0,199.8 192.0,198.9 193.1,198.7 194.2,198.4 195.3,198.2 196.4,197.6 197.5,197.4 198.6,197.2 199.7,197.0 200.8,197.2 201.9,197.0 203.0,196.9 204.1,196.7 205.2,196.5 206.3,195.3 207.4,195.0 208.5,194.8 209.6,195.0 210.6,194.8 211.7,194.6 212.8,194.4 213.9,194.2 215.0,193.6 216.1,193.4 217.2,193.1 218.3,192.8 219.4,192.6 220.5,192.3 221.6,192.0 222.7,191.8 223.8,191.0 224.9,190.7 226.0,190.4 227.1,208.9 228.2,208.1 229.2,207.7 230.3,207.3 231.4,207.0 232.5,206.7 233.6,206.3 234.7,205.9 235.8,205.6 236.9,206.3 238.0,206.1 239.1,205.8 240.2,205.5 241.3,205.7 242.4,205.5 243.5,205.3 244.6,205.1 245.7,203.7 246.8,203.4 247.8,203.1 248.9,202.7 250.0,202.7 251.1,202.4 252.2,202.2 253.3,201.9 254.4,201.5 255.5,201.3 256.6,201.0 257.7,201.5 258.8,201.3 259.9,201.1 261.0,200.9 262.1,200.7 263.2,200.3 264.3,200.1 265.4,199.9 266.4,199.7 267.5,199.5 268.6,199.3 269.7,199.1 270.8,193.6 271.9,193.4 273.0,193.3 274.1,193.1 275.2,192.9 276.3,192.2 277.4,192.0 278.5,191.8 279.6,192.0 280.7,191.9 281.8,191.7 282.9,191.5 284.0,191.4 285.0,191.2 286.1,191.0 287.2,190.9 288.3,190.7 289.4,190.7 290.5,190.5 291.6,190.4 292.7,188.4 293.8,188.1 294.9,187.7 296.0,187.4 297.1,187.1 298.2,185.6 299.3,185.2 300.4,184.8 301.5,184.3 302.6,184.9 303.6,184.5 304.7,184.2 305.8,184.0 306.9,183.6 308.0,183.3 309.1,183.0 310.2,183.3 311.3,183.0 312.4,182.7 313.5,182.5 314.6,183.4 315.7,183.3 316.8,183.2 317.9,183.0 319.0,180.8 320.1,180.5 321.2,180.1 322.2,179.8 323.3,181.5 324.4,181.3 325.5,181.2 326.6,181.1 327.7,180.7 328.8,180.5 329.9,180.3 331.0,180.2 332.1,178.8 333.2,178.5 334.3,178.2 335.4,177.9 336.5,177.6 337.6,177.4 338.7,177.1 339.8,176.9 340.8,176.9 341.9,176.6 343.0,176.4 344.1,176.1 345.2,175.8 346.3,174.8 347.4,174.5 348.5,174.1 349.6,175.2 350.7,175.0 351.8,174.8 352.9,174.6 354.0,173.3 355.1,172.9 356.2,172.6 357.3,172.3 358.4,173.6 359.4,173.5 360.5,173.3 361.6,173.1 362.7,172.9 363.8,171.8 364.9,171.5 366.0,171.2 367.1,170.7 368.2,170.4 369.3,170.2 370.4,169.9 371.5,168.5 372.6,168.1 373.7,167.7 374.8,167.4 375.9,166.3 377.0,165.9 378.0,165.4 379.1,165.0 380.2,164.6 381.3,164.9 382.4,164.5 383.5,164.2 384.6,163.8 385.7,163.3 386.8,163.0 387.9,162.6 389.0,162.2 390.1,162.6 391.2,162.3 392.3,162.0 393.4,160.7 394.5,160.3 395.6,159.9 396.6,159.5 397.7,159.1 398.8,158.8 399.9,158.4 401.0,158.1 402.1,158.0 403.2,157.7 404.3,157.3 405.4,157.0 406.5,156.6 407.6,158.0 408.7,157.8 409.8,157.6 410.9,156.5 412.0,156.2 413.1,156.0 414.2,155.7 415.2,155.5 416.3,155.2 417.4,154.9 418.5,154.6 419.6,155.0 420.7,154.8 421.8,154.6 422.9,154.4 424.0,154.2 425.1,154.0 426.2,153.8 427.3,153.6 428.4,153.5 429.5,153.3 430.6,153.1 431.7,153.0 432.8,151.5 433.8,151.2 434.9,150.9 436.0,150.6 437.1,150.9 438.2,150.7 439.3,150.4 440.4,150.2 441.5,150.0 442.6,150.2 443.7,150.0 444.8,149.9 445.9,147.5 447.0,147.2 448.1,146.8 449.2,146.5 450.3,144.9 451.4,144.4 452.4,144.0 453.5,143.5 454.6,144.1 455.7,143.7 456.8,143.3 457.9,142.9 459.0,142.5 460.1,142.7 461.2,142.3 462.3,142.0 463.4,141.6 464.5,141.0 465.6,140.6 466.7,140.2 467.8,139.9 468.9,138.8 470.0,138.4 471.0,137.9 472.1,137.5 473.2,136.9 474.3,136.5 475.4,136.1 476.5,137.1 477.6,136.8 478.7,136.5 479.8,136.2 480.9,136.7 482.0,136.6 483.1,136.3 484.2,136.1 485.3,135.7 486.4,135.4 487.5,135.2 488.6,135.0 489.6,215.7 490.7,215.8 491.8,215.7 492.9,215.5 494.0,214.6 495.1,214.4 496.2,214.1 497.3,213.8 498.4,214.0 499.5,213.8 500.6,213.5 501.7,213.3 502.8,212.9 503.9,212.6 505.0,212.4 506.1,212.1 507.2,211.9 508.2,211.3 509.3,210.9 510.4,210.6 511.5,210.3 512.6,210.0 513.7,209.7 514.8,209.4 515.9,208.3 517.0,207.9 518.1,207.5 519.2,207.1 520.3,206.7 521.4,207.6 522.5,207.4 523.6,207.1 524.7,206.8 525.8,206.5 526.8,206.2 527.9,206.0 529.0,206.3 530.1,206.1 531.2,205.9 532.3,205.7 533.4,269.8 534.5,269.6 535.6,269.4 536.7,269.2 537.8,269.0 538.9,269.3 540.0,269.2 541.1,269.1 542.2,268.9 543.3,268.3 544.4,268.1 545.4,267.9 546.5,267.7 547.6,267.5 548.7,267.3 549.8,267.1 550.9,267.0 552.0,264.8 553.1,264.4 554.2,264.0 555.3,263.8 556.4,263.4 557.5,263.0 558.6,262.6 559.7,262.2 560.8,261.9 561.9,261.5 563.0,261.0 564.0,260.6 565.1,260.3 566.2,259.8 567.3,259.4 568.4,259.0 569.5,258.9 570.6,258.5 571.7,258.2 572.8,257.8 573.9,257.9 575.0,257.6 576.1,257.3 577.2,274.0 578.3,273.7 579.4,273.4 580.5,273.1 581.6,272.7 582.6,273.4 583.7,273.2 584.8,272.9 585.9,272.7 587.0,272.0 588.1,271.7 589.2,271.5 590.3,271.2 591.4,270.7 592.5,270.4 593.6,270.1 594.7,269.8 595.8,269.2 596.9,268.9 598.0,268.6 599.1,268.3 600.2,267.8 601.2,267.4 602.3,267.1 603.4,266.8 604.5,266.9 605.6,266.6 606.7,266.3 607.8,266.0 608.9,265.7 610.0,265.4 611.1,265.1 612.2,264.8 613.3,265.2 614.4,264.9 615.5,264.7 616.6,264.5 617.7,264.2 618.8,264.0 619.8,263.7 620.9,262.9 622.0,262.6 623.1,262.4 624.2,262.1 625.3,261.9 626.4,261.6 627.5,261.3 628.6,261.0 629.7,260.7 630.8,261.0 631.9,260.8 633.0,260.5 634.1,260.3 635.2,259.9 636.3,259.7 637.4,259.4 638.4,257.9 639.5,257.6 640.6,257.3 641.7,257.0 642.8,257.6 643.9,257.3 645.0,257.0 646.1,256.8 647.2,255.9 648.3,255.7 649.4,255.4 650.5,255.1 651.6,254.1 652.7,253.8 653.8,253.4 654.9,253.1 656.0,252.7 657.0,251.2 658.1,250.8 659.2,250.4 660.3,250.0 661.4,250.8 662.5,250.5 663.6,250.2 664.7,249.7 665.8,249.5 666.9,249.2 668.0,248.9 669.1,248.2 670.2,247.6 671.3,247.3 672.4,246.9 673.5,246.2 674.6,245.8 675.6,245.6 676.7,245.2 677.8,244.9 678.9,244.3 680.0,243.9 681.1,243.6 682.2,243.2 683.3,245.2 684.4,244.8 685.5,244.5 686.6,244.4 687.7,244.1 688.8,243.8 689.9,243.5 691.0,243.2 692.1,241.4 693.2,241.2 694.2,240.8 695.3,241.2 696.4,240.8 697.5,240.5 698.6,240.3 699.7,239.7 700.8,239.3 701.9,239.0 703.0,238.7 704.1,238.3 705.2,237.7 706.3,237.4 707.4,237.1 708.5,239.6 709.6,239.3 710.7,239.1 711.8,238.8 712.8,237.1 713.9,236.7 715.0,236.4 716.1,236.0 717.2,235.7 718.3,236.3 719.4,236.0 720.5,235.7 721.6,235.4 722.7,234.4 723.8,234.1 724.9,233.6 726.0,234.3 727.1,234.0 728.2,233.7 729.3,233.5 730.4,232.5 731.4,232.3 732.5,232.0 733.6,231.8 734.7,231.3 735.8,231.0 736.9,230.7 738.0,230.3 739.1,230.1 740.2,230.9 741.3,230.7 742.4,230.5 743.5,230.3 744.6,228.7 745.7,228.4 746.8,228.0 747.9,229.6 749.0,229.4 750.0,229.3 751.1,229.1 752.2,237.7 753.3,237.2 754.4,237.0 755.5,236.8 756.6,237.6 757.7,237.5 758.8,237.4 759.9,237.3 761.0,237.2 762.1,237.8 763.2,237.7 764.3,237.7 765.4,236.0 766.5,235.8 767.6,235.6 768.6,235.4 769.7,235.2 770.8,233.6 771.9,233.2 773.0,232.9 774.1,232.3 775.2,232.0 776.3,231.6 777.4,231.2 778.5,232.4 779.6,232.2 780.7,231.9 781.8,231.7 782.9,230.5 784.0,230.2 785.1,229.9 786.2,229.6 787.2,227.8 788.3,227.4 789.4,226.9 790.5,226.5 791.6,226.0 792.7,226.7 793.8,226.3 794.9,226.0 796.0,247.5"/>
<text x="640" y="56" font-family="Arial" font-size="12" fill="#0f766e">adaptive_dropout_robust position error</text>
</svg>