<svg xmlns="http://www.w3.org/2000/svg" width="820" height="320" viewBox="0 0 820 320">
<rect width="100%" height="100%" fill="white"/>
<text x="52" y="30" font-family="Arial" font-size="18" font-weight="700">robust_nominal position error</text>
<line x1="52" y1="274" x2="796" y2="274" stroke="#263238"/>
<line x1="52" y1="42" x2="52" y2="274" stroke="#263238"/>
<text x="52" y="306" font-family="Arial" font-size="12">time (s)</text>
<text x="630" y="306" font-family="Arial" font-size="12">m</text>

<rect x="314.6" y="42" width="153.2" height="232" fill="#fef3c7" opacity="0.72"/>
<polyline fill="none" stroke="#0f766e" stroke-width="2.3" points="52.0,52.0 53.1,50.9 54.2,49.9 55.3,48.8 56.4,47.8 57.5,46.7 58.6,45.6 59.7,44.5 60.8,43.4 61.8,42.3 62.9,47.2 64.0,46.3 65.1,45.4 66.2,49.7 67.3,49.2 68.4,48.7 69.5,48.2 70.6,47.6 71.7,47.1 72.8,46.6 73.9,46.4 75.0,47.5 76.1,47.0 77.2,47.3 78.3,47.3 79.4,46.9 80.4,46.5 81.5,46.1 82.6,45.8 83.7,45.5 84.8,45.2 85.9,44.9 87.0,44.7 88.1,44.4 89.2,44.0 90.3,43.7 91.4,43.4 92.5,43.7 93.6,42.9 94.7,42.0 95.8,216.4 96.9,215.8 98.0,215.1 99.0,214.5 100.1,213.8 101.2,213.1 102.3,212.4 103.4,211.7 104.5,211.0 105.6,210.7 106.7,210.1 107.8,209.5 108.9,209.3 110.0,208.8 111.1,208.3 112.2,207.7 113.3,207.2 114.4,205.8 115.5,205.2 116.6,204.5 117.6,203.8 118.7,202.1 119.8,201.3 120.9,200.4 122.0,200.8 123.1,200.2 124.2,199.5 125.3,198.8 126.4,198.0 127.5,197.4 128.6,196.6 129.7,195.8 130.8,195.1 131.9,194.3 133.0,193.6 134.1,192.9 135.2,192.2 136.2,193.7 137.3,193.1 138.4,192.6 139.5,212.9 140.6,212.3 141.7,211.5 142.8,210.7 143.9,210.0 145.0,210.2 146.1,209.5 147.2,208.8 148.3,208.2 149.4,207.6 150.5,206.9 151.6,206.2 152.7,205.5 153.8,205.6 154.8,205.0 155.9,204.4 157.0,203.8 158.1,203.4 159.2,202.7 160.3,202.1 161.4,201.6 162.5,201.1 163.6,200.5 164.7,199.9 165.8,199.3 166.9,198.2 168.0,197.5 169.1,196.9 170.2,197.4 171.3,196.8 172.4,196.2 173.4,195.6 174.5,195.0 175.6,196.0 176.7,195.5 177.8,195.0 178.9,194.4 180.0,193.7 181.1,193.2 182.2,192.7 183.3,256.2 184.4,256.4 185.5,256.0 186.6,255.7 187.7,255.3 188.8,255.8 189.9,255.5 191.0,255.2 192.0,253.8 193.1,253.5 194.2,253.1 195.3,252.8 196.4,251.8 197.5,251.5 198.6,251.2 199.7,250.8 200.8,251.2 201.9,250.9 203.0,250.7 204.1,250.4 205.2,250.1 206.3,248.0 207.4,247.7 208.5,247.3 209.6,247.7 210.6,247.4 211.7,247.1 212.8,246.8 213.9,246.5 215.0,245.2 216.1,244.9 217.2,244.5 218.3,244.0 219.4,243.6 220.5,243.2 221.6,242.9 222.7,242.5 223.8,241.1 224.9,240.7 226.0,240.3 227.1,274.0 228.2,272.2 229.2,271.7 230.3,271.2 231.4,270.5 232.5,270.0 233.6,269.5 234.7,269.0 235.8,268.5 236.9,269.6 238.0,269.2 239.1,268.7 240.2,268.3 241.3,268.6 242.4,268.2 243.5,267.8 244.6,267.4 245.7,265.7 246.8,265.2 247.8,264.8 248.9,264.4 250.0,263.9 251.1,263.5 252.2,263.1 253.3,262.6 254.4,262.0 255.5,261.6 256.6,261.2 257.7,262.2 258.8,261.9 259.9,261.5 261.0,261.1 262.1,260.8 263.2,260.3 264.3,259.9 265.4,259.6 266.4,259.2 267.5,258.9 268.6,258.5 269.7,258.2 270.8,256.5 271.9,256.2 273.0,255.8 274.1,255.5 275.2,255.2 276.3,254.2 277.4,253.9 278.5,253.5 279.6,253.9 280.7,253.6 281.8,253.2 282.9,252.9 284.0,252.8 285.0,252.5 286.1,252.2 287.2,251.9 288.3,251.6 289.4,251.6 290.5,251.3 291.6,251.1 292.7,247.2 293.8,246.8 294.9,246.5 296.0,246.1 297.1,245.7 298.2,242.4 299.3,241.9 300.4,241.5 301.5,241.0 302.6,241.4 303.6,241.0 304.7,240.5 305.8,239.7 306.9,239.3 308.0,238.9 309.1,238.5 310.2,238.8 311.3,238.4 312.4,238.0 313.5,237.6 314.6,239.6 315.7,239.2 316.8,238.9 317.9,238.6 319.0,234.5 320.1,234.0 321.2,233.6 322.2,233.1 323.3,236.3 324.4,236.0 325.5,235.7 326.6,235.3 327.7,234.8 328.8,234.5 329.9,234.2 331.0,233.9 332.1,231.2 333.2,230.8 334.3,230.4 335.4,229.9 336.5,229.5 337.6,229.1 338.7,228.7 339.8,228.2 340.8,228.2 341.9,227.8 343.0,227.4 344.1,226.9 345.2,226.5 346.3,224.5 347.4,224.0 348.5,223.5 349.6,226.3 350.7,225.9 351.8,225.5 352.9,225.1 354.0,221.9 355.1,221.4 356.2,220.8 357.3,220.3 358.4,224.0 359.4,223.6 360.5,223.2 361.6,222.8 362.7,222.3 363.8,220.3 364.9,219.8 366.0,219.4 367.1,218.4 368.2,218.0 369.3,217.5 370.4,217.1 371.5,214.4 372.6,213.9 373.7,213.3 374.8,212.9 375.9,210.7 377.0,210.1 378.0,209.6 379.1,209.0 380.2,208.5 381.3,208.5 382.4,207.9 383.5,207.4 384.6,206.9 385.7,205.6 386.8,205.1 387.9,204.6 389.0,204.1 390.1,204.6 391.2,204.1 392.3,203.6 393.4,201.1 394.5,200.5 395.6,200.0 396.6,199.4 397.7,198.9 398.8,198.1 399.9,197.5 401.0,197.0 402.1,196.8 403.2,196.2 404.3,195.7 405.4,195.2 406.5,194.6 407.6,197.1 408.7,196.6 409.8,196.1 410.9,194.5 412.0,194.0 413.1,193.5 414.2,193.0 415.2,192.8 416.3,192.3 417.4,191.8 418.5,191.3 419.6,192.2 420.7,191.7 421.8,191.3 422.9,190.9 424.0,190.9 425.1,190.5 426.2,190.0 427.3,189.6 428.4,189.8 429.5,189.4 430.6,189.0 431.7,188.7 432.8,186.2 433.8,185.7 434.9,185.3 436.0,184.9 437.1,185.3 438.2,184.8 439.3,184.4 440.4,184.0 441.5,183.6 442.6,184.2 443.7,183.9 444.8,183.5 445.9,179.2 447.0,178.7 448.1,178.3 449.2,177.8 450.3,174.5 451.4,173.9 452.4,173.4 453.5,172.8 454.6,173.3 455.7,172.8 456.8,172.2 457.9,171.7 459.0,171.2 460.1,171.2 461.2,170.7 462.3,170.1 463.4,169.6 464.5,168.3 465.6,167.7 466.7,167.2 467.8,166.6 468.9,164.5 470.0,163.9 471.0,163.3 472.1,162.8 473.2,161.3 474.3,160.7 475.4,160.1 476.5,161.6 477.6,161.1 478.7,160.6 479.8,160.1 480.9,161.1 482.0,160.7 483.1,160.2 484.2,159.7 485.3,159.2 486.4,158.8 487.5,158.4 488.6,157.9 489.6,207.1 490.7,207.8 491.8,207.4 492.9,207.0 494.0,205.3 495.1,204.8 496.2,204.4 497.3,203.9 498.4,204.5 499.5,204.0 500.6,203.5 501.7,203.0 502.8,202.5 503.9,202.1 505.0,201.6 506.1,201.1 507.2,200.7 508.2,199.6 509.3,199.1 510.4,198.6 511.5,198.0 512.6,197.5 513.7,197.0 514.8,196.5 515.9,194.5 517.0,193.9 518.1,193.3 519.2,192.8 520.3,192.2 521.4,193.7 522.5,193.2 523.6,192.7 524.7,192.3 525.8,191.8 526.8,191.3 527.9,190.8 529.0,191.8 530.1,191.3 531.2,190.9 532.3,190.5 533.4,222.9 534.5,222.4 535.6,222.0 536.7,221.6 537.8,221.2 538.9,222.0 540.0,221.6 541.1,221.3 542.2,220.9 543.3,220.2 544.4,219.8 545.4,219.4 546.5,219.4 547.6,219.0 548.7,218.6 549.8,218.2 550.9,217.8 552.0,213.9 553.1,213.4 554.2,213.0 555.3,212.1 556.4,211.6 557.5,211.1 558.6,210.6 559.7,209.7 560.8,209.2 561.9,208.7 563.0,208.2 564.0,207.3 565.1,206.8 566.2,206.3 567.3,205.8 568.4,205.3 569.5,204.6 570.6,204.1 571.7,203.6 572.8,203.1 573.9,203.1 575.0,202.7 576.1,202.2 577.2,236.5 578.3,236.0 579.4,235.6 580.5,235.1 581.6,234.7 582.6,235.8 583.7,235.4 584.8,235.0 585.9,234.6 587.0,233.4 588.1,233.0 589.2,232.5 590.3,232.1 591.4,230.8 592.5,230.4 593.6,229.9 594.7,229.5 595.8,228.7 596.9,228.3 598.0,227.8 599.1,227.3 600.2,225.7 601.2,225.2 602.3,224.8 603.4,224.3 604.5,224.3 605.6,223.8 606.7,223.3 607.8,222.9 608.9,222.4 610.0,222.0 611.1,221.5 612.2,221.0 613.3,222.0 614.4,221.5 615.5,221.1 616.6,220.9 617.7,220.5 618.8,220.1 619.8,219.6 620.9,246.3 622.0,245.5 623.1,245.1 624.2,244.6 625.3,244.1 626.4,243.3 627.5,242.8 628.6,242.3 629.7,241.8 630.8,241.9 631.9,241.4 633.0,240.9 634.1,240.5 635.2,240.0 636.3,239.5 637.4,239.1 638.4,236.2 639.5,235.6 640.6,235.1 641.7,234.6 642.8,236.2 643.9,235.7 645.0,235.3 646.1,234.8 647.2,233.9 648.3,233.5 649.4,232.9 650.5,232.4 651.6,230.9 652.7,230.3 653.8,229.7 654.9,229.1 656.0,228.6 657.0,226.4 658.1,225.8 659.2,225.2 660.3,224.6 661.4,224.8 662.5,224.3 663.6,223.7 664.7,238.1 665.8,237.6 666.9,237.1 668.0,236.6 669.1,235.5 670.2,234.8 671.3,234.2 672.4,233.6 673.5,232.5 674.6,231.9 675.6,231.4 676.7,230.7 677.8,230.1 678.9,228.9 680.0,228.3 681.1,227.7 682.2,227.0 683.3,228.6 684.4,227.9 685.5,227.3 686.6,227.1 687.7,226.4 688.8,225.8 689.9,225.2 691.0,224.6 692.1,222.5 693.2,221.9 694.2,221.3 695.3,221.5 696.4,220.9 697.5,220.3 698.6,219.7 699.7,219.0 700.8,218.4 701.9,217.8 703.0,217.2 704.1,216.6 705.2,215.8 706.3,215.2 707.4,214.6 708.5,233.0 709.6,232.4 710.7,231.9 711.8,231.4 712.8,229.6 713.9,229.0 715.0,228.4 716.1,227.8 717.2,227.3 718.3,227.6 719.4,227.1 720.5,226.5 721.6,226.0 722.7,225.0 723.8,224.5 724.9,223.9 726.0,224.9 727.1,224.4 728.2,223.9 729.3,223.4 730.4,222.0 731.4,221.5 732.5,221.0 733.6,220.4 734.7,219.6 735.8,219.1 736.9,218.6 738.0,218.1 739.1,217.5 740.2,218.8 741.3,218.3 742.4,217.8 743.5,217.3 744.6,215.0 745.7,214.5 746.8,213.9 747.9,216.7 749.0,216.3 750.0,215.9 751.1,215.4 752.2,237.0 753.3,236.5 754.4,236.1 755.5,235.7 756.6,237.5 757.7,237.2 758.8,236.8 759.9,236.4 761.0,236.1 762.1,237.6 763.2,237.3 764.3,236.9 765.4,234.3 766.5,234.0 767.6,233.6 768.6,233.2 769.7,232.8 770.8,230.1 771.9,229.7 773.0,229.2 774.1,228.1 775.2,227.6 776.3,227.1 777.4,226.7 778.5,228.3 779.6,227.9 780.7,227.5 781.8,227.1 782.9,224.8 784.0,224.4 785.1,223.9 786.2,223.5 787.2,220.0 788.3,219.5 789.4,219.0 790.5,218.4 791.6,217.9 792.7,218.6 793.8,218.1 794.9,217.6 796.0,239.2"/>
<text x="640" y="56" font-family="Arial" font-size="12" fill="#0f766e">robust_nominal position error</text>
</svg>