<svg xmlns="http://www.w3.org/2000/svg" width="820" height="320" viewBox="0 0 820 320">
<rect width="100%" height="100%" fill="white"/>
<text x="52" y="30" font-family="Arial" font-size="18" font-weight="700">ekf_dropout_robust residuals</text>
<line x1="52" y1="274" x2="796" y2="274" stroke="#263238"/>
<line x1="52" y1="42" x2="52" y2="274" stroke="#263238"/>
<text x="52" y="306" font-family="Arial" font-size="12">time (s)</text>
<text x="630" y="306" font-family="Arial" font-size="12">norm</text>

<polyline fill="none" stroke="#0f766e" stroke-width="2.3" points="52.0,197.9 52.0,246.7 62.9,251.7 66.2,245.3 73.9,267.4 75.0,268.1 75.0,256.7 77.2,248.1 78.3,269.3 79.4,270.9 82.6,263.3 83.7,270.7 84.8,252.2 84.8,256.1 87.0,266.5 88.1,272.3 91.4,265.0 92.5,263.0 93.6,261.4 95.8,266.8 95.8,137.3 95.8,236.7 96.9,265.2 99.0,270.2 100.1,265.6 102.3,271.2 105.6,262.0 106.7,263.9 107.8,271.5 108.9,265.8 110.0,264.2 113.3,271.9 114.4,267.6 114.4,262.7 117.6,263.6 117.6,263.7 118.7,269.9 120.9,253.5 122.0,268.8 123.1,262.3 126.4,267.2 127.5,272.1 128.6,262.4 128.6,257.1 131.9,272.8 131.9,262.8 135.2,267.1 136.2,264.7 137.3,266.9 139.5,264.0 139.5,226.0 139.5,255.2 140.6,252.7 142.8,260.1 145.0,268.9 146.1,268.4 148.3,257.9 149.4,269.4 150.5,272.1 150.5,265.6 153.8,269.9 153.8,258.4 157.0,258.2 158.1,270.3 160.3,271.1 161.4,252.3 161.4,255.5 162.5,267.2 164.7,266.6 166.9,270.2 166.9,269.5 170.2,273.8 170.2,268.4 172.4,273.0 172.4,216.5 175.6,268.3 175.6,270.6 177.8,271.2 180.0,271.0 181.1,273.5 183.3,273.9 183.3,97.9 183.3,259.1 184.4,267.7 186.6,268.9 188.8,270.4 189.9,269.1 192.0,261.1 192.0,269.5 194.2,227.8 195.3,264.0 196.4,270.9 197.5,259.2 200.8,269.7 200.8,268.9 201.9,269.3 205.2,259.7 206.3,266.4 206.3,268.8 208.5,272.6 209.6,271.7 211.7,252.7 213.9,268.9 215.0,268.3 216.1,231.9 217.2,270.2 218.3,269.1 219.4,265.5 221.6,266.5 223.8,270.8 224.9,266.1 227.1,272.7 227.1,174.9 227.1,267.7 228.2,270.3 229.2,273.0 231.4,270.4 232.5,258.7 234.7,268.7 236.9,265.7 238.0,268.6 239.1,269.0 241.3,271.7 241.3,273.3 243.5,272.4 245.7,267.5 246.8,266.3 248.9,266.2 248.9,241.9 250.0,267.1 252.2,262.1 254.4,272.6 255.5,263.6 257.7,273.6 257.7,266.3 259.9,273.6 259.9,268.7 263.2,272.4 263.2,268.4 266.4,269.6 268.6,262.0 270.8,242.3 270.8,260.7 270.8,262.0 274.1,260.6 276.3,269.2 277.4,270.1 279.6,265.5 279.6,270.2 281.8,264.7 281.8,269.1 284.0,266.4 285.0,259.4 288.3,258.9 289.4,271.9 290.5,272.4 292.7,266.2 292.7,223.9 296.0,269.2 298.2,268.7 299.3,270.6 301.5,262.0 302.6,267.2 303.6,266.1 304.7,256.8 305.8,272.0 308.0,263.9 310.2,259.7 310.2,270.0 312.4,271.0 314.6,268.5 314.6,269.0 314.6,242.9 317.9,272.6 319.0,265.3 320.1,267.2 323.3,270.4 323.3,265.4 325.5,273.8 325.5,253.1 327.7,271.0 328.8,273.8 331.0,264.9 332.1,267.2 334.3,254.4 336.5,262.3 336.5,221.7 337.6,269.2 339.8,260.7 340.8,265.9 341.9,237.5 345.2,273.1 346.3,268.9 347.4,269.0 347.4,269.1 349.6,265.3 350.7,270.4 354.0,271.6 354.0,267.1 356.2,263.0 358.4,268.4 358.4,264.5 358.4,257.3 361.6,270.4 363.8,268.2 363.8,268.5 367.1,268.0 367.1,272.5 369.3,270.5 370.4,271.4 371.5,268.2 372.6,257.5 374.8,257.2 375.9,263.8 378.0,270.3 380.2,272.2 381.3,264.8 384.6,273.4 385.7,268.3 386.8,240.5 389.0,261.9 390.1,265.6 391.2,271.0 391.2,268.8 393.4,266.9 394.5,268.9 398.8,269.5 399.9,263.7 402.1,270.9 402.1,265.9 403.2,266.0 405.4,258.5 407.6,265.7 407.6,258.3 410.9,254.5 410.9,266.9 413.1,257.7 414.2,268.4 415.2,271.1 416.3,254.4 418.5,261.6 419.6,271.4 421.8,271.6 424.0,270.7 424.0,259.8 427.3,256.6 428.4,267.9 430.6,269.2 432.8,252.9 432.8,268.1 434.9,229.3 436.0,261.6 437.1,266.1 438.2,262.4 441.5,268.1 442.6,269.6 443.7,268.6 445.9,260.3 445.9,269.6 447.0,265.0 449.2,271.0 450.3,264.1 451.4,272.7 454.6,269.1 456.8,254.1 457.9,266.5 460.1,266.1 460.1,263.8 463.4,268.7 464.5,267.4 465.6,265.3 467.8,272.1 467.8,260.4 468.9,270.7 471.0,274.0 473.2,271.8 473.2,272.8 476.5,265.4 476.5,267.2 478.7,255.6 479.8,269.4 480.9,269.7 482.0,259.2 484.2,260.8 485.3,270.8 487.5,271.8 489.6,133.1 489.6,252.9 490.7,271.3 492.9,272.9 494.0,269.5 496.2,269.0 498.4,267.5 498.4,270.0 500.6,264.0 500.6,265.5 502.8,272.4 503.9,267.0 507.2,257.1 508.2,268.4 509.3,268.8 511.5,272.1 511.5,271.8 511.5,216.6 514.8,263.8 515.9,268.7 517.0,269.2 520.3,271.3 521.4,265.6 522.5,234.9 523.6,267.2 524.7,268.4 525.8,270.0 529.0,267.2 529.0,268.0 531.2,269.3 533.4,269.4 533.4,98.3 533.4,258.9 534.5,271.7 536.7,260.0 538.9,264.9 540.0,269.9 542.2,267.1 543.3,269.2 544.4,254.9 545.4,266.4 546.5,268.5 547.6,254.4 550.9,250.2 552.0,265.2 553.1,263.2 555.3,265.5 555.3,272.7 555.3,223.3 558.6,271.8 559.7,271.1 560.8,260.4 563.0,248.7 564.0,271.3 566.2,271.4 566.2,247.3 569.5,267.6 569.5,273.1 571.7,261.6 573.9,271.1 575.0,258.3 577.2,44.7 577.2,160.7 577.2,258.9 580.5,42.0 582.6,267.6 582.6,44.7 584.8,270.9 587.0,267.1 588.1,208.8 591.4,267.4 591.4,264.3 593.6,273.3 595.8,265.9 596.9,264.3 599.1,261.3 600.2,267.8 600.2,268.1 602.3,259.5 604.5,265.0 605.6,266.2 607.8,272.3 607.8,270.1 610.0,242.9 613.3,269.4 613.3,259.0 615.5,246.9 616.6,272.0 618.8,271.4 620.9,262.4 620.9,220.6 620.9,258.8 622.0,195.7 624.2,259.1 626.4,190.2 627.5,271.9 630.8,269.3 630.8,269.7 631.9,269.8 631.9,270.8 635.2,247.1 638.4,265.0 638.4,268.2 640.6,272.3 642.8,268.8 642.8,261.7 642.8,258.4 646.1,271.8 647.2,265.6 648.3,243.4 651.6,274.0 651.6,269.8 653.8,252.8 654.9,267.6 657.0,269.3 657.0,261.1 660.3,272.9 661.4,264.7 662.5,267.1 664.7,263.8 664.7,263.8 664.7,231.7 665.8,264.4 668.0,270.9 669.1,268.3 670.2,247.8 673.5,259.0 673.5,271.3 675.6,259.5 675.6,270.2 678.9,266.9 678.9,261.7 681.1,266.8 683.3,267.1 684.4,268.5 686.6,271.6 686.6,271.6 686.6,258.9 689.9,268.5 692.1,269.3 693.2,256.4 695.3,267.9 695.3,273.1 697.5,268.7 698.6,257.9 699.7,271.3 700.8,267.0 703.0,266.5 705.2,271.1 706.3,263.8 708.5,268.1 708.5,242.8 708.5,265.4 709.6,269.9 711.8,258.4 712.8,269.6 715.0,272.5 717.2,262.8 718.3,269.7 719.4,269.8 720.5,271.5 722.7,269.4 722.7,251.5 724.9,246.2 726.0,267.6 728.2,261.1 730.4,267.3 730.4,260.0 731.4,270.5 733.6,265.9 734.7,270.7 735.8,270.6 739.1,267.7 740.2,267.0 741.3,252.7 742.4,270.3 744.6,269.0 744.6,272.2 747.9,268.2 747.9,264.9 750.0,268.3 752.2,225.5 752.2,265.5 753.3,271.0 753.3,271.5 755.5,271.6 756.6,267.2 757.7,269.4 761.0,268.5 762.1,269.9 763.2,260.2 764.3,264.2 765.4,262.0 766.5,271.8 769.7,267.0 770.8,265.3 771.9,266.1 774.1,267.7 774.1,262.9 774.1,260.1 777.4,273.8 778.5,263.9 779.6,266.7 782.9,257.1 782.9,267.7 785.1,267.1 785.1,255.0 787.2,267.1 788.3,274.0 790.5,271.1 792.7,268.9 793.8,273.6 796.0,270.5 796.0,140.9 796.0,262.1"/>
<text x="640" y="56" font-family="Arial" font-size="12" fill="#0f766e">ekf_dropout_robust residuals</text>
</svg>