<svg xmlns="http://www.w3.org/2000/svg" width="820" height="320" viewBox="0 0 820 320">
<rect width="100%" height="100%" fill="white"/>
<text x="52" y="30" font-family="Arial" font-size="18" font-weight="700">ekf_nominal residuals</text>
<line x1="52" y1="274" x2="796" y2="274" stroke="#263238"/>
<line x1="52" y1="42" x2="52" y2="274" stroke="#263238"/>
<text x="52" y="306" font-family="Arial" font-size="12">time (s)</text>
<text x="630" y="306" font-family="Arial" font-size="12">norm</text>

<polyline fill="none" stroke="#0f766e" stroke-width="2.3" points="52.0,197.7 52.0,249.7 62.9,250.4 66.2,237.5 73.9,267.1 75.0,268.0 75.0,256.5 77.2,245.2 78.3,269.2 79.4,266.8 82.6,259.8 83.7,270.6 84.8,255.2 84.8,253.8 87.0,266.5 88.1,270.8 91.4,266.2 92.5,262.9 93.6,260.4 95.8,266.9 95.8,133.9 95.8,235.6 96.9,265.2 99.0,270.3 100.1,265.4 102.3,271.1 105.6,262.0 106.7,263.9 107.8,271.2 108.9,265.5 110.0,263.9 113.3,272.1 114.4,267.1 114.4,262.4 117.6,263.8 117.6,263.5 118.7,270.1 120.9,253.4 122.0,268.8 123.1,262.4 126.4,267.1 127.5,271.6 128.6,262.3 128.6,256.9 131.9,273.0 131.9,262.9 135.2,266.9 136.2,264.8 137.3,266.7 139.5,264.2 139.5,226.3 139.5,255.1 140.6,252.2 142.8,260.4 145.0,269.1 146.1,268.7 148.3,257.5 149.4,269.2 150.5,272.4 150.5,265.2 153.8,270.1 153.8,258.6 157.0,257.9 158.1,270.0 160.3,271.3 161.4,251.9 161.4,255.2 162.5,267.5 164.7,266.5 166.9,270.2 166.9,269.5 170.2,273.7 170.2,268.2 172.4,272.9 172.4,216.3 175.6,267.6 175.6,271.3 177.8,272.0 180.0,271.1 181.1,272.7 183.3,273.0 183.3,98.5 183.3,259.9 184.4,267.0 186.6,269.9 188.8,271.0 189.9,268.2 192.0,260.1 192.0,269.4 194.2,226.7 195.3,263.6 196.4,271.4 197.5,259.4 200.8,269.9 200.8,268.6 201.9,269.5 205.2,259.9 206.3,265.8 206.3,269.0 208.5,273.0 209.6,271.7 211.7,253.0 213.9,269.2 215.0,267.6 216.1,232.1 217.2,269.2 218.3,270.1 219.4,266.2 221.6,265.6 223.8,270.7 224.9,266.9 227.1,273.5 227.1,175.1 227.1,268.3 228.2,269.8 229.2,272.3 231.4,270.0 232.5,257.9 234.7,269.3 236.9,266.0 238.0,267.8 239.1,268.2 241.3,271.0 241.3,274.0 243.5,273.1 245.7,267.8 246.8,266.9 248.9,265.4 248.9,242.4 250.0,267.6 252.2,263.1 254.4,272.8 255.5,264.5 257.7,272.6 257.7,266.1 259.9,272.6 259.9,267.7 263.2,273.2 263.2,267.5 266.4,270.4 268.6,262.9 270.8,243.1 270.8,260.0 270.8,261.2 274.1,261.1 276.3,269.0 277.4,270.7 279.6,264.8 279.6,270.8 281.8,265.1 281.8,269.4 284.0,266.9 285.0,259.8 288.3,259.3 289.4,271.8 290.5,272.1 292.7,266.3 292.7,223.5 296.0,269.6 298.2,267.9 299.3,270.2 301.5,261.6 302.6,267.9 303.6,265.8 304.7,256.6 305.8,271.9 308.0,264.1 310.2,259.4 310.2,270.2 312.4,271.1 314.6,268.7 314.6,268.8 314.6,242.9 317.9,272.1 319.0,265.6 320.1,267.6 323.3,270.7 323.3,266.0 325.5,273.3 325.5,252.6 327.7,271.3 328.8,273.7 331.0,264.9 332.1,267.1 334.3,254.4 336.5,262.2 336.5,221.4 337.6,269.7 339.8,260.1 340.8,266.0 341.9,237.9 345.2,272.9 346.3,269.3 347.4,269.1 347.4,269.1 349.6,266.0 350.7,270.7 354.0,271.3 354.0,267.5 356.2,262.7 358.4,268.6 358.4,264.7 358.4,257.0 361.6,270.2 363.8,268.9 363.8,268.5 367.1,268.0 367.1,272.8 369.3,270.3 370.4,271.4 371.5,268.4 372.6,257.4 374.8,257.3 375.9,263.6 378.0,270.0 380.2,271.8 381.3,265.9 384.6,273.1 385.7,268.1 386.8,240.4 389.0,261.4 390.1,266.6 391.2,271.4 391.2,269.2 393.4,266.5 394.5,268.3 398.8,270.4 399.9,263.0 402.1,271.1 402.1,265.2 403.2,265.4 405.4,257.8 407.6,266.2 407.6,259.0 410.9,253.8 410.9,267.1 413.1,257.1 414.2,268.0 415.2,270.3 416.3,254.6 418.5,261.5 419.6,270.8 421.8,271.7 424.0,271.7 424.0,259.5 427.3,256.5 428.4,267.1 430.6,269.7 432.8,253.3 432.8,267.7 434.9,228.9 436.0,261.5 437.1,267.1 438.2,261.9 441.5,268.6 442.6,270.3 443.7,268.0 445.9,260.3 445.9,270.0 447.0,265.3 449.2,270.8 450.3,264.2 451.4,272.5 454.6,270.7 456.8,254.1 457.9,266.2 460.1,266.0 460.1,263.3 463.4,268.2 464.5,268.6 465.6,265.8 467.8,272.5 467.8,260.7 468.9,270.0 471.0,273.6 473.2,271.6 473.2,272.2 476.5,264.9 476.5,267.8 478.7,256.2 479.8,270.2 480.9,270.1 482.0,258.3 484.2,261.7 485.3,270.6 487.5,270.9 489.6,133.6 489.6,251.9 490.7,271.3 492.9,273.4 494.0,269.4 496.2,268.3 498.4,266.7 498.4,269.9 500.6,264.5 500.6,266.0 502.8,271.5 503.9,267.6 507.2,256.4 508.2,268.3 509.3,269.3 511.5,272.5 511.5,272.2 511.5,216.0 514.8,263.5 515.9,268.8 517.0,269.0 520.3,271.1 521.4,265.1 522.5,234.7 523.6,266.8 524.7,268.5 525.8,270.2 529.0,267.3 529.0,267.5 531.2,269.3 533.4,270.7 533.4,76.6 533.4,258.9 534.5,271.4 536.7,259.8 538.9,264.4 540.0,269.9 542.2,266.9 543.3,269.0 544.4,255.0 545.4,266.8 546.5,267.1 547.6,254.8 550.9,250.9 552.0,265.6 553.1,262.6 555.3,266.1 555.3,271.2 555.3,223.6 558.6,270.4 559.7,269.2 560.8,261.6 563.0,247.2 564.0,272.2 566.2,272.7 566.2,245.8 569.5,269.0 569.5,273.9 571.7,262.4 573.9,271.7 575.0,259.0 577.2,44.9 577.2,124.8 577.2,258.1 580.5,42.0 582.6,268.0 582.6,44.4 584.8,270.6 587.0,266.9 588.1,208.6 591.4,266.5 591.4,264.9 593.6,272.9 595.8,267.0 596.9,263.7 599.1,261.8 600.2,267.2 600.2,268.8 602.3,258.6 604.5,265.3 605.6,265.1 607.8,273.3 607.8,269.5 610.0,243.8 613.3,268.7 613.3,260.5 615.5,248.3 616.6,272.8 618.8,272.7 620.9,261.0 620.9,194.0 620.9,260.0 622.0,195.6 624.2,260.7 626.4,190.1 627.5,270.2 630.8,267.6 630.8,269.1 631.9,268.1 631.9,269.2 635.2,245.4 638.4,267.0 638.4,268.6 640.6,274.0 642.8,269.3 642.8,260.1 642.8,256.8 646.1,273.3 647.2,265.4 648.3,244.9 651.6,272.6 651.6,268.6 653.8,251.2 654.9,268.9 657.0,269.1 657.0,259.9 660.3,273.9 661.4,266.0 662.5,268.2 664.7,264.5 664.7,242.7 664.7,230.7 665.8,264.6 668.0,271.1 669.1,268.7 670.2,247.4 673.5,258.5 673.5,271.1 675.6,259.9 675.6,269.8 678.9,266.9 678.9,261.8 681.1,266.7 683.3,266.6 684.4,268.6 686.6,271.3 686.6,271.3 686.6,258.7 689.9,268.3 692.1,269.1 693.2,256.2 695.3,267.9 695.3,272.9 697.5,268.3 698.6,257.5 699.7,272.3 700.8,266.6 703.0,266.0 705.2,271.9 706.3,263.3 708.5,268.0 708.5,220.0 708.5,264.9 709.6,269.5 711.8,257.9 712.8,270.0 715.0,273.0 717.2,262.2 718.3,270.1 719.4,269.3 720.5,271.9 722.7,269.3 722.7,251.0 724.9,245.5 726.0,267.4 728.2,260.4 730.4,268.3 730.4,260.6 731.4,271.2 733.6,266.5 734.7,270.8 735.8,271.2 739.1,268.4 740.2,266.9 741.3,251.8 742.4,270.8 744.6,269.2 744.6,272.7 747.9,268.7 747.9,265.3 750.0,268.7 752.2,198.8 752.2,265.8 753.3,270.9 753.3,272.0 755.5,271.0 756.6,266.9 757.7,269.7 761.0,268.8 762.1,268.9 763.2,259.8 764.3,264.2 765.4,262.6 766.5,271.7 769.7,266.9 770.8,266.3 771.9,265.9 774.1,268.1 774.1,262.9 774.1,260.0 777.4,273.5 778.5,264.1 779.6,266.5 782.9,257.2 782.9,267.3 785.1,267.0 785.1,254.9 787.2,266.6 788.3,273.9 790.5,271.1 792.7,270.3 793.8,273.5 796.0,270.8 796.0,115.8 796.0,262.0"/>
<text x="640" y="56" font-family="Arial" font-size="12" fill="#0f766e">ekf_nominal residuals</text>
</svg>