<svg xmlns="http://www.w3.org/2000/svg" width="820" height="320" viewBox="0 0 820 320">
<rect width="100%" height="100%" fill="white"/>
<text x="52" y="30" font-family="Arial" font-size="18" font-weight="700">adaptive_dropout_robust residuals</text>
<line x1="52" y1="274" x2="796" y2="274" stroke="#263238"/>
<line x1="52" y1="42" x2="52" y2="274" stroke="#263238"/>
<text x="52" y="306" font-family="Arial" font-size="12">time (s)</text>
<text x="630" y="306" font-family="Arial" font-size="12">norm</text>

<polyline fill="none" stroke="#0f766e" stroke-width="2.3" points="52.0,198.0 52.0,246.8 62.9,251.7 66.2,245.3 73.9,267.4 75.0,268.1 75.0,256.7 77.2,248.1 78.3,269.2 79.4,270.9 82.6,263.3 83.7,270.6 84.8,252.2 84.8,255.9 87.0,266.5 88.1,272.1 91.4,265.0 92.5,263.1 93.6,261.1 95.8,266.1 95.8,137.4 95.8,236.8 96.9,264.9 99.0,270.3 100.1,265.5 102.3,271.0 105.6,261.8 106.7,264.1 107.8,271.3 108.9,265.8 110.0,264.0 113.3,271.9 114.4,267.7 114.4,262.7 117.6,263.6 117.6,263.6 118.7,269.6 120.9,253.5 122.0,268.6 123.1,262.0 126.4,267.3 127.5,272.3 128.6,262.6 128.6,257.5 131.9,272.5 131.9,263.2 135.2,266.5 136.2,264.7 137.3,266.4 139.5,263.8 139.5,232.8 139.5,255.5 140.6,252.3 142.8,260.2 145.0,268.5 146.1,268.6 148.3,257.7 149.4,269.5 150.5,272.2 150.5,265.4 153.8,269.6 153.8,258.5 157.0,258.0 158.1,270.4 160.3,271.1 161.4,252.2 161.4,255.5 162.5,267.0 164.7,266.5 166.9,270.0 166.9,269.5 170.2,273.8 170.2,268.4 172.4,272.9 172.4,216.6 175.6,268.5 175.6,270.6 177.8,271.2 180.0,270.6 181.1,273.4 183.3,273.8 183.3,106.2 183.3,259.1 184.4,267.9 186.6,268.9 188.8,270.1 189.9,269.1 192.0,261.1 192.0,269.4 194.2,227.9 195.3,264.1 196.4,270.6 197.5,259.0 200.8,269.6 200.8,268.9 201.9,269.2 205.2,259.6 206.3,266.4 206.3,268.7 208.5,272.5 209.6,271.5 211.7,252.6 213.9,268.9 215.0,268.5 216.1,232.0 217.2,270.1 218.3,268.5 219.4,265.5 221.6,266.3 223.8,270.7 224.9,266.2 227.1,272.8 227.1,184.3 227.1,267.7 228.2,270.5 229.2,272.9 231.4,270.4 232.5,258.6 234.7,268.7 236.9,265.6 238.0,268.6 239.1,269.0 241.3,272.3 241.3,273.2 243.5,272.2 245.7,267.1 246.8,266.2 248.9,266.2 248.9,241.7 250.0,266.3 252.2,262.2 254.4,272.1 255.5,263.9 257.7,273.0 257.7,266.0 259.9,273.2 259.9,268.3 263.2,271.6 263.2,268.0 266.4,269.8 268.6,262.3 270.8,242.6 270.8,254.9 270.8,261.4 274.1,261.1 276.3,269.1 277.4,270.6 279.6,265.0 279.6,269.5 281.8,265.2 281.8,269.5 284.0,266.0 285.0,259.9 288.3,259.5 289.4,271.7 290.5,271.8 292.7,266.0 292.7,223.4 296.0,268.7 298.2,269.4 299.3,271.0 301.5,262.4 302.6,266.4 303.6,266.6 304.7,257.3 305.8,271.6 308.0,263.4 310.2,260.1 310.2,269.9 312.4,270.5 314.6,268.6 314.6,269.4 314.6,242.5 317.9,272.8 319.0,264.5 320.1,266.8 323.3,270.1 323.3,264.9 325.5,274.0 325.5,253.4 327.7,270.3 328.8,274.0 331.0,264.6 332.1,267.0 334.3,254.6 336.5,262.1 336.5,221.6 337.6,268.4 339.8,260.9 340.8,265.6 341.9,237.3 345.2,273.2 346.3,268.3 347.4,268.9 347.4,268.9 349.6,265.0 350.7,270.4 354.0,271.6 354.0,266.9 356.2,263.1 358.4,268.5 358.4,264.5 358.4,257.3 361.6,270.4 363.8,268.0 363.8,268.5 367.1,267.9 367.1,272.4 369.3,270.2 370.4,271.6 371.5,268.2 372.6,257.6 374.8,257.2 375.9,263.6 378.0,270.5 380.2,272.5 381.3,264.0 384.6,273.5 385.7,268.5 386.8,240.4 389.0,261.7 390.1,264.9 391.2,271.2 391.2,269.0 393.4,267.0 394.5,268.7 398.8,268.9 399.9,263.5 402.1,270.7 402.1,265.8 403.2,265.8 405.4,258.3 407.6,265.6 407.6,258.5 410.9,254.3 410.9,266.6 413.1,257.5 414.2,268.2 415.2,271.6 416.3,254.6 418.5,261.3 419.6,271.6 421.8,271.8 424.0,270.3 424.0,259.6 427.3,256.8 428.4,268.0 430.6,269.0 432.8,252.7 432.8,268.1 434.9,229.6 436.0,261.4 437.1,265.6 438.2,262.2 441.5,268.2 442.6,269.4 443.7,268.5 445.9,260.0 445.9,269.7 447.0,265.1 449.2,270.8 450.3,264.0 451.4,272.5 454.6,268.5 456.8,254.2 457.9,266.4 460.1,266.3 460.1,263.6 463.4,268.5 464.5,266.6 465.6,265.3 467.8,272.1 467.8,260.5 468.9,270.8 471.0,274.0 473.2,271.7 473.2,272.7 476.5,265.3 476.5,267.1 478.7,255.5 479.8,269.3 480.9,269.9 482.0,259.2 484.2,260.5 485.3,270.9 487.5,271.8 489.6,144.0 489.6,253.0 490.7,271.4 492.9,272.7 494.0,269.1 496.2,269.1 498.4,267.7 498.4,270.0 500.6,263.7 500.6,265.4 502.8,272.6 503.9,266.8 507.2,257.2 508.2,268.4 509.3,268.6 511.5,272.1 511.5,270.9 511.5,216.8 514.8,263.5 515.9,268.6 517.0,269.0 520.3,271.1 521.4,265.5 522.5,235.1 523.6,266.9 524.7,268.4 525.8,270.1 529.0,267.5 529.0,268.5 531.2,269.0 533.4,268.5 533.4,120.2 533.4,259.1 534.5,271.4 536.7,259.7 538.9,265.4 540.0,270.1 542.2,267.4 543.3,268.3 544.4,254.6 545.4,266.1 546.5,268.9 547.6,254.1 550.9,249.8 552.0,264.8 553.1,263.4 555.3,265.2 555.3,272.9 555.3,223.1 558.6,272.0 559.7,271.5 560.8,260.2 563.0,249.0 564.0,270.8 566.2,271.2 566.2,247.5 569.5,267.3 569.5,272.8 571.7,261.4 573.9,270.8 575.0,257.9 577.2,44.6 577.2,184.7 577.2,259.5 580.5,42.0 582.6,267.6 582.6,44.5 584.8,271.5 587.0,267.2 588.1,208.1 591.4,267.3 591.4,262.6 593.6,272.7 595.8,266.2 596.9,265.8 599.1,260.1 600.2,269.1 600.2,268.1 602.3,260.3 604.5,264.6 605.6,266.1 607.8,272.6 607.8,269.1 610.0,243.3 613.3,268.5 613.3,259.3 615.5,246.9 616.6,272.9 618.8,270.8 620.9,262.9 620.9,225.9 620.9,258.5 622.0,195.8 624.2,258.9 626.4,190.4 627.5,272.0 630.8,269.3 630.8,268.9 631.9,269.8 631.9,270.7 635.2,246.9 638.4,266.1 638.4,268.5 640.6,273.0 642.8,269.3 642.8,261.1 642.8,257.5 646.1,272.9 647.2,265.4 648.3,244.7 651.6,273.4 651.6,268.8 653.8,252.1 654.9,268.6 657.0,269.1 657.0,260.4 660.3,273.8 661.4,265.8 662.5,268.0 664.7,264.4 664.7,254.6 664.7,230.7 665.8,265.4 668.0,271.9 669.1,268.3 670.2,247.1 673.5,258.5 673.5,271.3 675.6,259.9 675.6,269.7 678.9,266.9 678.9,262.6 681.1,267.8 683.3,267.1 684.4,267.2 686.6,272.6 686.6,271.7 686.6,259.9 689.9,269.5 692.1,269.3 693.2,257.5 695.3,267.8 695.3,273.2 697.5,270.4 698.6,259.6 699.7,271.3 700.8,268.9 703.0,268.6 705.2,271.1 706.3,265.8 708.5,268.0 708.5,248.9 708.5,267.8 709.6,272.3 711.8,260.7 712.8,269.5 715.0,269.7 717.2,265.2 718.3,269.3 719.4,272.4 720.5,268.9 722.7,269.0 722.7,253.9 724.9,249.5 726.0,267.7 728.2,265.1 730.4,266.6 730.4,255.9 731.4,266.6 733.6,262.5 734.7,270.1 735.8,267.6 739.1,265.0 740.2,266.9 741.3,255.0 742.4,267.8 744.6,268.6 744.6,269.9 747.9,266.0 747.9,264.5 750.0,266.4 752.2,235.1 752.2,263.8 753.3,270.5 753.3,269.9 755.5,273.1 756.6,267.3 757.7,267.9 761.0,267.1 762.1,270.4 763.2,261.4 764.3,262.9 765.4,261.6 766.5,272.8 769.7,266.0 770.8,264.6 771.9,267.0 774.1,267.4 774.1,262.0 774.1,260.9 777.4,273.0 778.5,263.2 779.6,265.9 782.9,257.8 782.9,268.0 785.1,267.9 785.1,255.8 787.2,267.4 788.3,273.2 790.5,271.9 792.7,267.8 793.8,272.8 796.0,270.3 796.0,150.3 796.0,261.4"/>
<text x="640" y="56" font-family="Arial" font-size="12" fill="#0f766e">adaptive_dropout_robust residuals</text>
</svg>