<svg xmlns="http://www.w3.org/2000/svg" width="820" height="320" viewBox="0 0 820 320">
<rect width="100%" height="100%" fill="white"/>
<text x="52" y="30" font-family="Arial" font-size="18" font-weight="700">robust_dropout_robust residuals</text>
<line x1="52" y1="274" x2="796" y2="274" stroke="#263238"/>
<line x1="52" y1="42" x2="52" y2="274" stroke="#263238"/>
<text x="52" y="306" font-family="Arial" font-size="12">time (s)</text>
<text x="630" y="306" font-family="Arial" font-size="12">norm</text>

<polyline fill="none" stroke="#0f766e" stroke-width="2.3" points="52.0,197.8 52.0,246.7 62.9,251.7 66.2,245.3 73.9,268.3 75.0,267.4 75.0,256.5 77.2,248.1 78.3,269.1 79.4,270.9 82.6,263.3 83.7,270.6 84.8,252.1 84.8,256.0 87.0,266.5 88.1,272.3 91.4,264.9 92.5,263.0 93.6,261.4 95.8,267.0 95.8,142.1 95.8,236.7 96.9,265.2 99.0,270.2 100.1,265.3 102.3,271.2 105.6,262.0 106.7,263.9 107.8,271.5 108.9,266.2 110.0,264.2 113.3,271.9 114.4,267.8 114.4,262.7 117.6,263.6 117.6,263.7 118.7,269.6 120.9,253.4 122.0,269.1 123.1,262.3 126.4,267.3 127.5,272.6 128.6,262.4 128.6,257.1 131.9,272.4 131.9,262.8 135.2,267.0 136.2,264.5 137.3,266.8 139.5,263.9 139.5,231.1 139.5,255.1 140.6,252.6 142.8,260.0 145.0,268.9 146.1,268.4 148.3,257.9 149.4,269.3 150.5,272.1 150.5,265.6 153.8,270.0 153.8,258.4 157.0,258.1 158.1,270.1 160.3,271.1 161.4,252.2 161.4,255.5 162.5,267.3 164.7,266.5 166.9,270.2 166.9,269.5 170.2,273.8 170.2,268.4 172.4,273.0 172.4,216.4 175.6,268.3 175.6,270.4 177.8,271.1 180.0,271.0 181.1,273.6 183.3,274.0 183.3,102.5 183.3,258.9 184.4,267.7 186.6,268.8 188.8,270.2 189.9,269.2 192.0,261.2 192.0,269.5 194.2,227.9 195.3,264.1 196.4,270.8 197.5,259.0 200.8,269.6 200.8,269.0 201.9,269.2 205.2,259.6 206.3,266.5 206.3,268.8 208.5,272.5 209.6,271.7 211.7,252.5 213.9,268.8 215.0,268.3 216.1,231.7 217.2,270.2 218.3,269.0 219.4,265.4 221.6,266.5 223.8,270.8 224.9,266.0 227.1,272.6 227.1,178.4 227.1,267.6 228.2,270.3 229.2,273.1 231.4,270.4 232.5,258.7 234.7,268.6 236.9,265.8 238.0,268.6 239.1,269.0 241.3,271.7 241.3,273.3 243.5,272.3 245.7,267.5 246.8,266.2 248.9,266.2 248.9,241.7 250.0,267.0 252.2,262.0 254.4,272.5 255.5,263.6 257.7,273.6 257.7,266.3 259.9,273.7 259.9,268.7 263.2,272.3 263.2,268.4 266.4,269.5 268.6,262.0 270.8,242.2 270.8,260.6 270.8,262.2 274.1,260.4 276.3,269.2 277.4,269.9 279.6,265.7 279.6,270.1 281.8,264.5 281.8,268.9 284.0,266.4 285.0,259.2 288.3,258.7 289.4,271.8 290.5,272.5 292.7,266.2 292.7,224.0 296.0,269.4 298.2,268.6 299.3,270.4 301.5,261.8 302.6,267.2 303.6,266.0 304.7,256.7 305.8,271.9 308.0,264.0 310.2,259.6 310.2,270.0 312.4,271.1 314.6,268.5 314.6,268.9 314.6,242.9 317.9,272.5 319.0,265.3 320.1,267.2 323.3,270.4 323.3,265.4 325.5,273.7 325.5,253.0 327.7,271.0 328.8,273.7 331.0,264.9 332.1,267.2 334.3,254.3 336.5,262.4 336.5,221.7 337.6,269.1 339.8,260.6 340.8,265.9 341.9,237.5 345.2,273.6 346.3,268.9 347.4,268.5 347.4,268.6 349.6,265.4 350.7,269.9 354.0,272.0 354.0,267.0 356.2,263.3 358.4,268.0 358.4,264.5 358.4,257.6 361.6,270.0 363.8,268.2 363.8,268.9 367.1,268.3 367.1,272.5 369.3,270.7 370.4,271.1 371.5,268.2 372.6,257.1 374.8,257.5 375.9,263.7 378.0,270.0 380.2,272.0 381.3,264.7 384.6,273.1 385.7,268.2 386.8,240.7 389.0,261.8 390.1,265.6 391.2,271.1 391.2,268.9 393.4,266.8 394.5,268.8 398.8,269.5 399.9,263.6 402.1,270.9 402.1,265.9 403.2,265.9 405.4,258.4 407.6,265.7 407.6,258.3 410.9,254.4 410.9,266.9 413.1,257.7 414.2,268.4 415.2,271.2 416.3,254.4 418.5,261.5 419.6,271.4 421.8,271.6 424.0,270.7 424.0,259.7 427.3,256.6 428.4,267.9 430.6,269.2 432.8,252.8 432.8,268.1 434.9,229.3 436.0,261.6 437.1,266.0 438.2,262.4 441.5,268.1 442.6,269.6 443.7,268.6 445.9,260.2 445.9,269.6 447.0,265.0 449.2,270.9 450.3,264.0 451.4,272.7 454.6,269.1 456.8,254.0 457.9,266.5 460.1,266.1 460.1,263.7 463.4,268.6 464.5,267.3 465.6,265.2 467.8,272.1 467.8,260.4 468.9,270.7 471.0,274.0 473.2,271.8 473.2,272.8 476.5,265.4 476.5,267.2 478.7,255.6 479.8,269.4 480.9,269.7 482.0,259.2 484.2,260.8 485.3,270.8 487.5,271.8 489.6,136.6 489.6,252.8 490.7,271.3 492.9,272.9 494.0,269.5 496.2,269.0 498.4,267.4 498.4,270.0 500.6,264.0 500.6,265.5 502.8,272.3 503.9,267.0 507.2,257.0 508.2,268.4 509.3,268.8 511.5,272.1 511.5,271.8 511.5,216.6 514.8,263.9 515.9,268.7 517.0,269.3 520.3,271.4 521.4,265.5 522.5,234.7 523.6,267.3 524.7,268.4 525.8,269.8 529.0,267.1 529.0,268.0 531.2,269.4 533.4,269.4 533.4,100.9 533.4,258.8 534.5,271.8 536.7,260.0 538.9,264.8 540.0,269.8 542.2,267.0 543.3,269.2 544.4,255.0 545.4,266.4 546.5,268.5 547.6,254.4 550.9,250.2 552.0,265.2 553.1,263.1 555.3,265.5 555.3,272.7 555.3,223.3 558.6,271.7 559.7,271.1 560.8,260.4 563.0,248.6 564.0,271.3 566.2,271.4 566.2,247.2 569.5,267.5 569.5,273.1 571.7,261.6 573.9,271.1 575.0,258.3 577.2,44.6 577.2,155.6 577.2,258.7 580.5,42.0 582.6,267.7 582.6,44.9 584.8,270.3 587.0,267.2 588.1,209.3 591.4,267.4 591.4,264.6 593.6,273.1 595.8,265.9 596.9,264.0 599.1,261.5 600.2,267.6 600.2,268.0 602.3,259.3 604.5,264.9 605.6,266.0 607.8,272.5 607.8,270.1 610.0,243.0 613.3,269.4 613.3,259.1 615.5,247.0 616.6,272.0 618.8,271.5 620.9,262.3 620.9,219.0 620.9,258.9 622.0,195.6 624.2,260.7 626.4,191.1 627.5,269.1 630.8,266.2 630.8,268.7 631.9,267.2 631.9,268.3 635.2,244.3 638.4,268.2 638.4,267.2 640.6,273.1 642.8,268.9 642.8,259.2 642.8,256.0 646.1,273.7 647.2,264.2 648.3,245.8 651.6,271.8 651.6,268.9 653.8,250.6 654.9,269.9 657.0,269.3 657.0,259.0 660.3,273.2 661.4,265.1 662.5,269.0 664.7,264.0 664.7,263.2 664.7,229.8 665.8,266.1 668.0,272.6 669.1,268.2 670.2,246.2 673.5,257.3 673.5,271.4 675.6,261.1 675.6,268.7 678.9,267.0 678.9,263.1 681.1,268.2 683.3,267.1 684.4,267.2 686.6,272.8 686.6,271.7 686.6,260.1 689.9,269.6 692.1,269.3 693.2,257.5 695.3,267.9 695.3,273.9 697.5,269.7 698.6,258.9 699.7,271.3 700.8,267.9 703.0,267.4 705.2,271.2 706.3,264.6 708.5,268.1 708.5,242.2 708.5,266.2 709.6,270.7 711.8,259.1 712.8,269.6 715.0,271.8 717.2,263.4 718.3,269.7 719.4,270.4 720.5,270.9 722.7,269.3 722.7,252.1 724.9,246.8 726.0,267.6 728.2,261.6 730.4,267.3 730.4,259.5 731.4,270.0 733.6,265.4 734.7,270.6 735.8,270.1 739.1,267.2 740.2,267.0 741.3,253.1 742.4,269.9 744.6,269.0 744.6,271.8 747.9,267.8 747.9,264.9 750.0,267.9 752.2,223.8 752.2,265.1 753.3,270.9 753.3,271.2 755.5,271.9 756.6,267.2 757.7,269.1 761.0,268.2 762.1,269.9 763.2,260.4 764.3,263.9 765.4,262.0 766.5,272.0 769.7,266.7 770.8,265.4 771.9,266.3 774.1,267.9 774.1,262.7 774.1,260.3 777.4,273.6 778.5,263.6 779.6,266.4 782.9,257.3 782.9,267.6 785.1,267.3 785.1,255.2 787.2,267.0 788.3,273.8 790.5,271.3 792.7,269.0 793.8,273.4 796.0,270.5 796.0,139.3 796.0,261.9"/>
<text x="640" y="56" font-family="Arial" font-size="12" fill="#0f766e">robust_dropout_robust residuals</text>
</svg>