<svg xmlns="http://www.w3.org/2000/svg" width="820" height="320" viewBox="0 0 820 320">
<rect width="100%" height="100%" fill="white"/>
<text x="52" y="30" font-family="Arial" font-size="18" font-weight="700">robust_nominal residuals</text>
<line x1="52" y1="274" x2="796" y2="274" stroke="#263238"/>
<line x1="52" y1="42" x2="52" y2="274" stroke="#263238"/>
<text x="52" y="306" font-family="Arial" font-size="12">time (s)</text>
<text x="630" y="306" font-family="Arial" font-size="12">norm</text>

<polyline fill="none" stroke="#0f766e" stroke-width="2.3" points="52.0,197.7 52.0,249.7 62.9,250.5 66.2,237.5 73.9,270.3 75.0,265.2 75.0,256.6 77.2,245.5 78.3,268.9 79.4,267.0 82.6,260.1 83.7,270.6 84.8,255.1 84.8,253.9 87.0,266.7 88.1,271.1 91.4,266.1 92.5,263.0 93.6,260.6 95.8,267.2 95.8,144.5 95.8,235.8 96.9,265.2 99.0,270.4 100.1,264.9 102.3,271.2 105.6,262.2 106.7,264.0 107.8,271.3 108.9,265.8 110.0,264.0 113.3,272.1 114.4,267.4 114.4,262.5 117.6,263.8 117.6,263.6 118.7,270.0 120.9,253.4 122.0,269.3 123.1,262.5 126.4,267.2 127.5,272.2 128.6,262.3 128.6,256.9 131.9,272.8 131.9,262.9 135.2,267.0 136.2,264.6 137.3,266.8 139.5,264.1 139.5,235.5 139.5,255.2 140.6,252.3 142.8,260.5 145.0,269.3 146.1,268.8 148.3,257.5 149.4,269.1 150.5,272.5 150.5,265.3 153.8,270.3 153.8,258.6 157.0,258.0 158.1,270.0 160.3,271.3 161.4,252.0 161.4,255.2 162.5,267.5 164.7,266.6 166.9,270.4 166.9,269.6 170.2,273.8 170.2,268.3 172.4,273.0 172.4,216.3 175.6,267.9 175.6,270.5 177.8,271.1 180.0,271.3 181.1,273.6 183.3,273.9 183.3,107.2 183.3,259.1 184.4,267.2 186.6,269.2 188.8,270.8 189.9,269.0 192.0,260.9 192.0,269.6 194.2,227.5 195.3,263.9 196.4,271.5 197.5,259.2 200.8,269.8 200.8,268.6 201.9,269.4 205.2,259.8 206.3,266.1 206.3,269.0 208.5,272.9 209.6,271.7 211.7,252.9 213.9,269.1 215.0,267.7 216.1,231.9 217.2,269.7 218.3,270.1 219.4,265.9 221.6,266.0 223.8,270.9 224.9,266.6 227.1,273.2 227.1,176.6 227.1,268.1 228.2,269.9 229.2,272.7 231.4,270.1 232.5,258.3 234.7,269.1 236.9,266.1 238.0,268.1 239.1,268.5 241.3,271.1 241.3,273.8 243.5,272.9 245.7,267.9 246.8,266.7 248.9,265.7 248.9,242.3 250.0,267.7 252.2,262.9 254.4,272.9 255.5,264.4 257.7,272.9 257.7,266.2 259.9,272.9 259.9,268.0 263.2,273.3 263.2,267.7 266.4,270.3 268.6,262.8 270.8,242.9 270.8,260.0 270.8,261.5 274.1,261.0 276.3,269.1 277.4,270.5 279.6,265.1 279.6,270.8 281.8,265.0 281.8,269.3 284.0,267.0 285.0,259.7 288.3,259.1 289.4,271.8 290.5,272.3 292.7,266.4 292.7,223.6 296.0,269.2 298.2,268.0 299.3,270.7 301.5,262.1 302.6,267.9 303.6,266.2 304.7,257.1 305.8,272.0 308.0,263.7 310.2,259.9 310.2,270.2 312.4,270.8 314.6,268.7 314.6,269.2 314.6,242.6 317.9,272.4 319.0,265.6 320.1,267.3 323.3,270.5 323.3,266.1 325.5,273.7 325.5,253.0 327.7,271.3 328.8,274.0 331.0,264.8 332.1,267.2 334.3,254.7 336.5,262.0 336.5,221.2 337.6,269.9 339.8,261.0 340.8,266.0 341.9,237.1 345.2,273.8 346.3,269.3 347.4,267.9 347.4,268.0 349.6,266.1 350.7,269.5 354.0,272.5 354.0,267.5 356.2,263.9 358.4,267.6 358.4,264.7 358.4,258.1 361.6,269.3 363.8,269.0 363.8,269.6 367.1,269.0 367.1,272.9 369.3,271.3 370.4,270.6 371.5,268.4 372.6,256.6 374.8,258.2 375.9,263.6 378.0,269.3 380.2,271.2 381.3,266.0 384.6,272.5 385.7,268.1 386.8,241.1 389.0,261.9 390.1,266.7 391.2,271.1 391.2,268.9 393.4,266.5 394.5,268.8 398.8,270.5 399.9,263.4 402.1,271.3 402.1,265.7 403.2,265.8 405.4,258.1 407.6,266.3 407.6,258.7 410.9,254.2 410.9,267.3 413.1,257.4 414.2,268.3 415.2,270.5 416.3,254.5 418.5,261.8 419.6,270.9 421.8,271.5 424.0,271.7 424.0,259.8 427.3,256.3 428.4,267.2 430.6,269.9 432.8,253.5 432.8,267.8 434.9,228.7 436.0,262.1 437.1,267.2 438.2,262.5 441.5,268.1 442.6,270.3 443.7,268.6 445.9,260.3 445.9,269.6 447.0,264.9 449.2,271.3 450.3,264.3 451.4,273.0 454.6,270.7 456.8,253.8 457.9,266.6 460.1,266.0 460.1,263.7 463.4,268.5 464.5,268.6 465.6,265.5 467.8,272.3 467.8,260.5 468.9,270.1 471.0,273.9 473.2,271.7 473.2,272.6 476.5,265.2 476.5,267.9 478.7,256.0 479.8,270.1 480.9,270.1 482.0,258.6 484.2,261.5 485.3,270.7 487.5,271.2 489.6,136.1 489.6,252.2 490.7,271.4 492.9,273.3 494.0,269.5 496.2,268.6 498.4,266.9 498.4,270.0 500.6,264.4 500.6,265.9 502.8,271.6 503.9,267.5 507.2,256.6 508.2,268.4 509.3,269.2 511.5,272.5 511.5,272.2 511.5,216.1 514.8,264.4 515.9,268.7 517.0,269.8 520.3,271.9 521.4,265.0 522.5,234.0 523.6,267.6 524.7,268.4 525.8,269.5 529.0,266.6 529.0,267.5 531.2,270.1 533.4,270.9 533.4,76.0 533.4,258.3 534.5,272.2 536.7,260.5 538.9,264.4 540.0,269.3 542.2,266.4 543.3,269.0 544.4,255.7 545.4,267.4 546.5,267.1 547.6,255.4 550.9,251.4 552.0,265.8 553.1,262.1 555.3,266.7 555.3,271.2 555.3,224.1 558.6,270.6 559.7,269.4 560.8,261.6 563.0,247.3 564.0,272.3 566.2,272.7 566.2,246.0 569.5,269.0 569.5,273.9 571.7,262.4 573.9,271.8 575.0,259.0 577.2,44.7 577.2,108.2 577.2,258.1 580.5,42.0 582.6,268.1 582.6,44.6 584.8,270.2 587.0,267.0 588.1,209.1 591.4,266.3 591.4,264.1 593.6,273.8 595.8,267.2 596.9,264.5 599.1,261.1 600.2,267.9 600.2,269.0 602.3,259.4 604.5,265.4 605.6,265.8 607.8,272.7 607.8,269.7 610.0,243.3 613.3,268.8 613.3,259.9 615.5,247.8 616.6,272.9 618.8,272.2 620.9,261.6 620.9,176.4 620.9,259.5 622.0,195.6 624.2,261.3 626.4,190.5 627.5,268.9 630.8,266.2 630.8,268.8 631.9,266.8 631.9,268.0 635.2,244.0 638.4,268.7 638.4,268.2 640.6,272.6 642.8,269.3 642.8,258.7 642.8,255.5 646.1,273.4 647.2,264.5 648.3,246.3 651.6,271.2 651.6,267.9 653.8,249.8 654.9,270.4 657.0,268.9 657.0,258.6 660.3,272.6 661.4,266.4 662.5,269.6 664.7,264.9 664.7,226.0 664.7,229.5 665.8,266.2 668.0,272.7 669.1,268.5 670.2,246.0 673.5,257.1 673.5,271.5 675.6,261.4 675.6,268.5 678.9,267.4 678.9,263.1 681.1,268.1 683.3,266.9 684.4,267.4 686.6,272.6 686.6,271.5 686.6,259.9 689.9,269.6 692.1,269.3 693.2,257.4 695.3,268.1 695.3,274.0 697.5,269.4 698.6,258.6 699.7,272.2 700.8,267.6 703.0,267.0 705.2,271.9 706.3,264.3 708.5,268.1 708.5,207.7 708.5,265.9 709.6,270.4 711.8,258.7 712.8,270.0 715.0,272.3 717.2,263.0 718.3,270.2 719.4,270.1 720.5,271.2 722.7,269.3 722.7,251.7 724.9,246.2 726.0,267.4 728.2,261.1 730.4,268.4 730.4,260.0 731.4,270.7 733.6,266.0 734.7,270.9 735.8,270.8 739.1,267.9 740.2,267.0 741.3,252.4 742.4,270.4 744.6,269.3 744.6,272.3 747.9,268.3 747.9,265.4 750.0,268.3 752.2,187.6 752.2,265.4 753.3,270.9 753.3,271.7 755.5,271.5 756.6,267.0 757.7,269.5 761.0,268.5 762.1,269.0 763.2,260.2 764.3,264.0 765.4,262.7 766.5,272.1 769.7,266.7 770.8,266.4 771.9,266.2 774.1,268.3 774.1,262.7 774.1,260.4 777.4,273.4 778.5,264.0 779.6,266.3 782.9,257.5 782.9,267.2 785.1,267.3 785.1,255.2 787.2,266.6 788.3,273.7 790.5,271.4 792.7,270.5 793.8,273.4 796.0,270.9 796.0,106.8 796.0,261.9"/>
<text x="640" y="56" font-family="Arial" font-size="12" fill="#0f766e">robust_nominal residuals</text>
</svg>