<svg xmlns="http://www.w3.org/2000/svg" width="820" height="320" viewBox="0 0 820 320">
<rect width="100%" height="100%" fill="white"/>
<text x="52" y="30" font-family="Arial" font-size="18" font-weight="700">adaptive_nominal residuals</text>
<line x1="52" y1="274" x2="796" y2="274" stroke="#263238"/>
<line x1="52" y1="42" x2="52" y2="274" stroke="#263238"/>
<text x="52" y="306" font-family="Arial" font-size="12">time (s)</text>
<text x="630" y="306" font-family="Arial" font-size="12">norm</text>

<polyline fill="none" stroke="#0f766e" stroke-width="2.3" points="52.0,198.1 52.0,250.0 62.9,250.8 66.2,237.8 73.9,267.4 75.0,268.3 75.0,256.9 77.2,245.6 78.3,269.5 79.4,267.1 82.6,260.1 83.7,270.9 84.8,255.5 84.8,254.0 87.0,266.8 88.1,271.1 91.4,266.5 92.5,263.3 93.6,260.6 95.8,267.0 95.8,134.3 95.8,236.0 96.9,265.2 99.0,270.7 100.1,265.6 102.3,271.3 105.6,262.2 106.7,264.4 107.8,271.3 108.9,265.9 110.0,264.0 113.3,272.5 114.4,267.5 114.4,262.6 117.6,264.2 117.6,263.7 118.7,270.3 120.9,253.7 122.0,269.0 123.1,262.4 126.4,267.5 127.5,272.0 128.6,262.8 128.6,257.7 131.9,273.1 131.9,263.8 135.2,266.5 136.2,265.0 137.3,266.5 139.5,264.4 139.5,229.5 139.5,255.8 140.6,252.1 142.8,260.9 145.0,269.3 146.1,269.3 148.3,257.5 149.4,269.7 150.5,272.9 150.5,265.3 153.8,270.2 153.8,259.0 157.0,258.0 158.1,270.5 160.3,271.7 161.4,252.2 161.4,255.5 162.5,267.6 164.7,266.9 166.9,270.3 166.9,269.7 170.2,273.9 170.2,268.5 172.4,273.1 172.4,216.7 175.6,268.1 175.6,271.8 177.8,272.4 180.0,271.3 181.1,272.8 183.3,273.2 183.3,104.4 183.3,260.3 184.4,267.5 186.6,270.3 188.8,271.2 189.9,268.3 192.0,260.3 192.0,269.7 194.2,227.0 195.3,263.8 196.4,271.5 197.5,259.8 200.8,270.3 200.8,269.0 201.9,269.9 205.2,260.3 206.3,266.1 206.3,269.2 208.5,273.3 209.6,272.1 211.7,253.3 213.9,269.6 215.0,268.1 216.1,232.5 217.2,269.5 218.3,270.0 219.4,266.6 221.6,265.9 223.8,271.0 224.9,267.2 227.1,273.8 227.1,183.8 227.1,268.6 228.2,270.2 229.2,272.5 231.4,270.5 232.5,258.2 234.7,269.6 236.9,266.3 238.0,268.2 239.1,268.7 241.3,271.7 241.3,274.0 243.5,273.1 245.7,267.9 246.8,267.0 248.9,265.9 248.9,242.5 250.0,267.6 252.2,263.6 254.4,272.9 255.5,265.2 257.7,272.4 257.7,266.3 259.9,272.7 259.9,267.8 263.2,273.0 263.2,267.6 266.4,270.8 268.6,263.2 270.8,243.5 270.8,255.3 270.8,261.2 274.1,261.7 276.3,269.4 277.4,271.2 279.6,264.8 279.6,270.7 281.8,265.7 281.8,270.0 284.0,267.0 285.0,260.4 288.3,259.9 289.4,272.0 290.5,271.9 292.7,266.5 292.7,223.4 296.0,269.6 298.2,268.5 299.3,270.7 301.5,262.1 302.6,268.0 303.6,266.3 304.7,257.1 305.8,272.1 308.0,264.4 310.2,259.8 310.2,270.6 312.4,271.5 314.6,268.7 314.6,269.2 314.6,243.3 317.9,272.5 319.0,266.1 320.1,267.8 323.3,270.9 323.3,266.0 325.5,273.8 325.5,253.1 327.7,271.5 328.8,274.0 331.0,265.2 332.1,267.6 334.3,254.8 336.5,262.6 336.5,221.7 337.6,269.9 339.8,260.6 340.8,266.3 341.9,238.1 345.2,273.4 346.3,269.6 347.4,269.2 347.4,269.2 349.6,266.0 350.7,270.8 354.0,271.7 354.0,268.1 356.2,263.2 358.4,268.9 358.4,265.0 358.4,257.5 361.6,270.5 363.8,269.3 363.8,268.9 367.1,268.2 367.1,273.2 369.3,270.6 370.4,271.8 371.5,268.8 372.6,257.8 374.8,257.6 375.9,263.9 378.0,270.6 380.2,272.5 381.3,265.9 384.6,273.7 385.7,268.4 386.8,240.6 389.0,261.8 390.1,266.6 391.2,271.6 391.2,269.4 393.4,266.9 394.5,268.7 398.8,270.5 399.9,263.5 402.1,271.3 402.1,265.7 403.2,265.8 405.4,258.3 407.6,266.3 407.6,259.1 410.9,254.3 410.9,267.4 413.1,257.5 414.2,268.5 415.2,270.7 416.3,254.8 418.5,261.9 419.6,271.1 421.8,271.9 424.0,271.8 424.0,259.9 427.3,256.7 428.4,267.5 430.6,269.9 432.8,253.6 432.8,268.1 434.9,229.2 436.0,261.7 437.1,267.2 438.2,262.2 441.5,268.9 442.6,270.4 443.7,268.3 445.9,260.7 445.9,270.3 447.0,265.7 449.2,271.0 450.3,264.5 451.4,272.7 454.6,270.6 456.8,254.5 457.9,266.3 460.1,266.2 460.1,263.5 463.4,268.3 464.5,268.7 465.6,266.2 467.8,272.9 467.8,261.2 468.9,270.5 471.0,273.8 473.2,272.0 473.2,272.4 476.5,265.1 476.5,267.9 478.7,256.4 479.8,270.5 480.9,270.3 482.0,258.6 484.2,261.7 485.3,271.0 487.5,271.3 489.6,142.8 489.6,252.4 490.7,271.8 492.9,273.4 494.0,269.7 496.2,269.0 498.4,267.5 498.4,270.3 500.6,264.4 500.6,266.0 502.8,272.2 503.9,267.6 507.2,257.0 508.2,268.6 509.3,269.3 511.5,272.6 511.5,272.4 511.5,216.6 514.8,263.4 515.9,269.1 517.0,268.9 520.3,271.0 521.4,265.7 522.5,235.5 523.6,266.7 524.7,268.8 525.8,270.8 529.0,267.9 529.0,267.9 531.2,269.5 533.4,270.5 533.4,92.1 533.4,259.5 534.5,271.6 536.7,259.9 538.9,264.5 540.0,270.5 542.2,267.5 543.3,269.8 544.4,255.2 545.4,266.8 546.5,267.8 547.6,254.9 550.9,250.7 552.0,266.1 553.1,263.5 555.3,265.9 555.3,271.9 555.3,223.3 558.6,271.6 559.7,269.8 560.8,261.1 563.0,248.4 564.0,272.7 566.2,272.3 566.2,246.8 569.5,269.1 569.5,273.6 571.7,262.2 573.9,271.8 575.0,258.7 577.2,44.8 577.2,131.8 577.2,259.1 580.5,42.0 582.6,268.2 582.6,44.3 584.8,271.6 587.0,267.2 588.1,208.1 591.4,266.3 591.4,263.0 593.6,272.9 595.8,267.8 596.9,266.1 599.1,260.2 600.2,269.5 600.2,269.4 602.3,260.5 604.5,265.7 605.6,266.2 607.8,273.1 607.8,269.5 610.0,244.0 613.3,268.7 613.3,260.3 615.5,248.0 616.6,273.4 618.8,271.8 620.9,262.5 620.9,195.5 620.9,259.5 622.0,195.8 624.2,260.1 626.4,190.4 627.5,271.5 630.8,268.7 630.8,268.8 631.9,269.0 631.9,269.9 635.2,245.9 638.4,267.9 638.4,269.0 640.6,273.8 642.8,269.5 642.8,259.9 642.8,256.2 646.1,273.7 647.2,265.5 648.3,247.0 651.6,271.7 651.6,267.8 653.8,250.0 654.9,271.1 657.0,269.2 657.0,258.5 660.3,272.0 661.4,266.8 662.5,270.5 664.7,266.0 664.7,238.6 664.7,229.3 665.8,266.8 668.0,273.3 669.1,268.4 670.2,246.0 673.5,257.0 673.5,271.4 675.6,261.9 675.6,268.4 678.9,267.9 678.9,263.8 681.1,268.9 683.3,267.1 684.4,266.9 686.6,273.4 686.6,271.4 686.6,260.7 689.9,270.5 692.1,269.2 693.2,258.4 695.3,268.5 695.3,273.1 697.5,271.0 698.6,260.1 699.7,272.6 700.8,269.5 703.0,269.0 705.2,271.9 706.3,266.2 708.5,268.5 708.5,216.8 708.5,268.1 709.6,272.8 711.8,261.1 712.8,270.2 715.0,270.0 717.2,265.6 718.3,270.1 719.4,272.7 720.5,269.1 722.7,269.6 722.7,254.3 724.9,249.6 726.0,267.9 728.2,265.2 730.4,267.9 730.4,256.4 731.4,267.5 733.6,263.2 734.7,270.8 735.8,268.3 739.1,265.7 740.2,267.1 741.3,254.9 742.4,268.2 744.6,269.3 744.6,270.2 747.9,266.4 747.9,265.6 750.0,266.7 752.2,195.2 752.2,264.0 753.3,271.0 753.3,270.3 755.5,273.2 756.6,267.5 757.7,268.3 761.0,267.5 762.1,269.7 763.2,261.6 764.3,263.0 765.4,262.7 766.5,273.4 769.7,266.0 770.8,266.1 771.9,267.4 774.1,268.3 774.1,262.0 774.1,261.4 777.4,272.8 778.5,264.3 779.6,265.8 782.9,258.4 782.9,267.6 785.1,268.3 785.1,256.2 787.2,267.0 788.3,273.1 790.5,272.4 792.7,270.1 793.8,272.9 796.0,271.1 796.0,114.6 796.0,261.4"/>
<text x="640" y="56" font-family="Arial" font-size="12" fill="#0f766e">adaptive_nominal residuals</text>
</svg>