<svg xmlns="http://www.w3.org/2000/svg" width="560" height="460" viewBox="0 0 560 460">
<rect width="100%" height="100%" fill="white"/>
<text x="52" y="30" font-family="Arial" font-size="18" font-weight="700">Truth trajectory</text>
<line x1="52" y1="412" x2="536" y2="412" stroke="#263238"/>
<line x1="52" y1="42" x2="52" y2="412" stroke="#263238"/>
<polyline fill="none" stroke="#2563eb" stroke-width="2.2" points="52.0,412.0 52.7,411.6 53.3,411.2 54.0,410.8 54.6,410.4 55.3,410.0 56.0,409.6 56.6,409.2 57.3,408.7 57.9,408.3 58.6,407.9 59.2,407.5 59.9,407.1 60.6,406.7 61.2,406.2 61.9,405.8 62.5,405.4 63.2,405.0 63.9,404.5 64.5,404.1 65.2,403.7 65.8,403.2 66.5,402.8 67.2,402.4 67.8,401.9 68.5,401.5 69.1,401.0 69.8,400.6 70.5,400.1 71.1,399.7 71.8,399.3 72.4,398.8 73.1,398.4 73.8,397.9 74.4,397.4 75.1,397.0 75.7,396.5 76.4,396.1 77.1,395.6 77.7,395.2 78.4,394.7 79.0,394.2 79.7,393.8 80.4,393.3 81.0,392.8 81.7,392.3 82.3,391.9 83.0,391.4 83.7,390.9 84.3,390.4 85.0,390.0 85.6,389.5 86.3,389.0 87.0,388.5 87.6,388.0 88.3,387.5 89.0,387.1 89.6,386.6 90.3,386.1 90.9,385.6 91.6,385.1 92.3,384.6 92.9,384.1 93.6,383.6 94.3,383.1 94.9,382.6 95.6,382.1 96.2,381.6 96.9,381.1 97.6,380.6 98.2,380.1 98.9,379.5 99.6,379.0 100.2,378.5 100.9,378.0 101.5,377.5 102.2,377.0 102.9,376.5 103.5,375.9 104.2,375.4 104.9,374.9 105.5,374.4 106.2,373.8 106.9,373.3 107.5,372.8 108.2,372.2 108.9,371.7 109.5,371.2 110.2,370.6 110.9,370.1 111.5,369.6 112.2,369.0 112.9,368.5 113.5,367.9 114.2,367.4 114.9,366.8 115.5,366.3 116.2,365.7 116.9,365.2 117.5,364.6 118.2,364.1 118.9,363.5 119.5,363.0 120.2,362.4 120.9,361.9 121.5,361.3 122.2,360.8 122.9,360.2 123.5,359.6 124.2,359.1 124.9,358.5 125.5,357.9 126.2,357.4 126.9,356.8 127.6,356.2 128.2,355.6 128.9,355.1 129.6,354.5 130.2,353.9 130.9,353.3 131.6,352.8 132.3,352.2 132.9,351.6 133.6,351.0 134.3,350.4 134.9,349.8 135.6,349.3 136.3,348.7 137.0,348.1 137.6,347.5 138.3,346.9 139.0,346.3 139.7,345.7 140.3,345.1 141.0,344.5 141.7,343.9 142.3,343.3 143.0,342.7 143.7,342.1 144.4,341.5 145.0,340.9 145.7,340.3 146.4,339.7 147.1,339.1 147.8,338.5 148.4,337.9 149.1,337.3 149.8,336.7 150.5,336.1 151.1,335.4 151.8,334.8 152.5,334.2 153.2,333.6 153.9,333.0 154.5,332.4 155.2,331.7 155.9,331.1 156.6,330.5 157.2,329.9 157.9,329.2 158.6,328.6 159.3,328.0 160.0,327.4 160.6,326.7 161.3,326.1 162.0,325.5 162.7,324.8 163.4,324.2 164.1,323.6 164.7,322.9 165.4,322.3 166.1,321.7 166.8,321.0 167.5,320.4 168.2,319.8 168.8,319.1 169.5,318.5 170.2,317.8 170.9,317.2 171.6,316.5 172.3,315.9 172.9,315.3 173.6,314.6 174.3,314.0 175.0,313.3 175.7,312.7 176.4,312.0 177.1,311.4 177.8,310.7 178.4,310.1 179.1,309.4 179.8,308.8 180.5,308.1 181.2,307.4 181.9,306.8 182.6,306.1 183.3,305.5 184.0,304.8 184.6,304.2 185.3,303.5 186.0,302.8 186.7,302.2 187.4,301.5 188.1,300.9 188.8,300.2 189.5,299.5 190.2,298.9 190.9,298.2 191.6,297.5 192.2,296.9 192.9,296.2 193.6,295.5 194.3,294.9 195.0,294.2 195.7,293.5 196.4,292.8 197.1,292.2 197.8,291.5 198.5,290.8 199.2,290.2 199.9,289.5 200.6,288.8 201.3,288.1 202.0,287.5 202.7,286.8 203.4,286.1 204.1,285.4 204.8,284.7 205.5,284.1 206.2,283.4 206.9,282.7 207.6,282.0 208.3,281.4 209.0,280.7 209.7,280.0 210.4,279.3 211.1,278.6 211.8,277.9 212.5,277.3 213.2,276.6 213.9,275.9 214.6,275.2 215.3,274.5 216.0,273.8 216.7,273.2 217.4,272.5 218.1,271.8 218.8,271.1 219.5,270.4 220.2,269.7 220.9,269.0 221.6,268.4 222.3,267.7 223.0,267.0 223.7,266.3 224.4,265.6 225.1,264.9 225.8,264.2 226.5,263.5 227.3,262.8 228.0,262.2 228.7,261.5 229.4,260.8 230.1,260.1 230.8,259.4 231.5,258.7 232.2,258.0 232.9,257.3 233.6,256.6 234.3,255.9 235.0,255.2 235.8,254.5 236.5,253.9 237.2,253.2 237.9,252.5 238.6,251.8 239.3,251.1 240.0,250.4 240.7,249.7 241.5,249.0 242.2,248.3 242.9,247.6 243.6,246.9 244.3,246.2 245.0,245.5 245.7,244.8 246.4,244.2 247.2,243.5 247.9,242.8 248.6,242.1 249.3,241.4 250.0,240.7 250.7,240.0 251.5,239.3 252.2,238.6 252.9,237.9 253.6,237.2 254.3,236.5 255.0,235.8 255.8,235.1 256.5,234.5 257.2,233.8 257.9,233.1 258.6,232.4 259.4,231.7 260.1,231.0 260.8,230.3 261.5,229.6 262.2,228.9 263.0,228.2 263.7,227.5 264.4,226.8 265.1,226.2 265.8,225.5 266.6,224.8 267.3,224.1 268.0,223.4 268.7,222.7 269.5,222.0 270.2,221.3 270.9,220.6 271.6,220.0 272.3,219.3 273.1,218.6 273.8,217.9 274.5,217.2 275.2,216.5 276.0,215.8 276.7,215.1 277.4,214.5 278.1,213.8 278.9,213.1 279.6,212.4 280.3,211.7 281.0,211.0 281.8,210.4 282.5,209.7 283.2,209.0 284.0,208.3 284.7,207.6 285.4,207.0 286.1,206.3 286.9,205.6 287.6,204.9 288.3,204.2 289.1,203.6 289.8,202.9 290.5,202.2 291.2,201.5 292.0,200.8 292.7,200.2 293.4,199.5 294.2,198.8 294.9,198.1 295.6,197.5 296.4,196.8 297.1,196.1 297.8,195.5 298.6,194.8 299.3,194.1 300.0,193.4 300.8,192.8 301.5,192.1 302.2,191.4 303.0,190.8 303.7,190.1 304.4,189.4 305.2,188.8 305.9,188.1 306.6,187.4 307.4,186.8 308.1,186.1 308.8,185.5 309.6,184.8 310.3,184.1 311.0,183.5 311.8,182.8 312.5,182.2 313.2,181.5 314.0,180.9 314.7,180.2 315.4,179.5 316.2,178.9 316.9,178.2 317.7,177.6 318.4,176.9 319.1,176.3 319.9,175.6 320.6,175.0 321.3,174.3 322.1,173.7 322.8,173.0 323.6,172.4 324.3,171.7 325.0,171.1 325.8,170.5 326.5,169.8 327.3,169.2 328.0,168.5 328.7,167.9 329.5,167.3 330.2,166.6 331.0,166.0 331.7,165.4 332.4,164.7 333.2,164.1 333.9,163.5 334.7,162.8 335.4,162.2 336.1,161.6 336.9,160.9 337.6,160.3 338.4,159.7 339.1,159.1 339.8,158.4 340.6,157.8 341.3,157.2 342.1,156.6 342.8,155.9 343.5,155.3 344.3,154.7 345.0,154.1 345.8,153.5 346.5,152.9 347.3,152.2 348.0,151.6 348.7,151.0 349.5,150.4 350.2,149.8 351.0,149.2 351.7,148.6 352.5,148.0 353.2,147.4 353.9,146.8 354.7,146.2 355.4,145.6 356.2,145.0 356.9,144.4 357.7,143.8 358.4,143.2 359.2,142.6 359.9,142.0 360.6,141.4 361.4,140.8 362.1,140.2 362.9,139.6 363.6,139.0 364.4,138.4 365.1,137.9 365.9,137.3 366.6,136.7 367.3,136.1 368.1,135.5 368.8,134.9 369.6,134.4 370.3,133.8 371.1,133.2 371.8,132.6 372.6,132.1 373.3,131.5 374.0,130.9 374.8,130.4 375.5,129.8 376.3,129.2 377.0,128.7 377.8,128.1 378.5,127.5 379.3,127.0 380.0,126.4 380.8,125.9 381.5,125.3 382.2,124.7 383.0,124.2 383.7,123.6 384.5,123.1 385.2,122.5 386.0,122.0 386.7,121.4 387.5,120.9 388.2,120.3 389.0,119.8 389.7,119.3 390.5,118.7 391.2,118.2 391.9,117.6 392.7,117.1 393.4,116.6 394.2,116.0 394.9,115.5 395.7,115.0 396.4,114.4 397.2,113.9 397.9,113.4 398.7,112.9 399.4,112.3 400.1,111.8 400.9,111.3 401.6,110.8 402.4,110.3 403.1,109.8 403.9,109.2 404.6,108.7 405.4,108.2 406.1,107.7 406.9,107.2 407.6,106.7 408.3,106.2 409.1,105.7 409.8,105.2 410.6,104.7 411.3,104.2 412.1,103.7 412.8,103.2 413.6,102.7 414.3,102.2 415.1,101.7 415.8,101.2 416.5,100.7 417.3,100.2 418.0,99.7 418.8,99.3 419.5,98.8 420.3,98.3 421.0,97.8 421.8,97.3 422.5,96.9 423.2,96.4 424.0,95.9 424.7,95.4 425.5,95.0 426.2,94.5 427.0,94.0 427.7,93.6 428.5,93.1 429.2,92.6 429.9,92.2 430.7,91.7 431.4,91.3 432.2,90.8 432.9,90.4 433.7,89.9 434.4,89.5 435.1,89.0 435.9,88.6 436.6,88.1 437.4,87.7 438.1,87.2 438.9,86.8 439.6,86.3 440.3,85.9 441.1,85.5 441.8,85.0 442.6,84.6 443.3,84.2 444.0,83.7 444.8,83.3 445.5,82.9 446.3,82.4 447.0,82.0 447.8,81.6 448.5,81.2 449.2,80.8 450.0,80.3 450.7,79.9 451.5,79.5 452.2,79.1 452.9,78.7 453.7,78.3 454.4,77.9 455.2,77.5 455.9,77.1 456.6,76.7 457.4,76.2 458.1,75.8 458.8,75.5 459.6,75.1 460.3,74.7 461.1,74.3 461.8,73.9 462.5,73.5 463.3,73.1 464.0,72.7 464.8,72.3 465.5,71.9 466.2,71.6 467.0,71.2 467.7,70.8 468.4,70.4 469.2,70.0 469.9,69.7 470.6,69.3 471.4,68.9 472.1,68.5 472.9,68.2 473.6,67.8 474.3,67.4 475.1,67.1 475.8,66.7 476.5,66.4 477.3,66.0 478.0,65.6 478.7,65.3 479.5,64.9 480.2,64.6 480.9,64.2 481.7,63.9 482.4,63.5 483.1,63.2 483.9,62.8 484.6,62.5 485.3,62.2 486.1,61.8 486.8,61.5 487.5,61.1 488.3,60.8 489.0,60.5 489.7,60.1 490.4,59.8 491.2,59.5 491.9,59.2 492.6,58.8 493.4,58.5 494.1,58.2 494.8,57.9 495.6,57.5 496.3,57.2 497.0,56.9 497.7,56.6 498.5,56.3 499.2,56.0 499.9,55.7 500.7,55.3 501.4,55.0 502.1,54.7 502.8,54.4 503.6,54.1 504.3,53.8 505.0,53.5 505.7,53.2 506.5,52.9 507.2,52.6 507.9,52.3 508.6,52.0 509.4,51.8 510.1,51.5 510.8,51.2 511.5,50.9 512.3,50.6 513.0,50.3 513.7,50.0 514.4,49.8 515.2,49.5 515.9,49.2 516.6,48.9 517.3,48.7 518.0,48.4 518.8,48.1 519.5,47.8 520.2,47.6 520.9,47.3 521.6,47.0 522.4,46.8 523.1,46.5 523.8,46.2 524.5,46.0 525.2,45.7 526.0,45.5 526.7,45.2 527.4,45.0 528.1,44.7 528.8,44.4 529.6,44.2 530.3,43.9 531.0,43.7 531.7,43.5 532.4,43.2 533.1,43.0 533.9,42.7 534.6,42.5 535.3,42.2 536.0,42.0"/>
<text x="52" y="444" font-family="Arial" font-size="12">x (m)</text>
<text x="440" y="444" font-family="Arial" font-size="12">y (m)</text>
</svg>