<svg xmlns="http://www.w3.org/2000/svg" width="820" height="320" viewBox="0 0 820 320">
<rect width="100%" height="100%" fill="white"/>
<text x="52" y="30" font-family="Arial" font-size="18" font-weight="700">ekf_dropout_robust velocity error</text>
<line x1="52" y1="274" x2="796" y2="274" stroke="#263238"/>
<line x1="52" y1="42" x2="52" y2="274" stroke="#263238"/>
<text x="52" y="306" font-family="Arial" font-size="12">time (s)</text>
<text x="630" y="306" font-family="Arial" font-size="12">m/s</text>

<rect x="314.6" y="42" width="153.2" height="232" fill="#fef3c7" opacity="0.72"/>
<polyline fill="none" stroke="#0f766e" stroke-width="2.3" points="52.0,175.3 53.1,174.3 54.2,173.4 55.3,172.5 56.4,171.7 57.5,170.6 58.6,170.5 59.7,170.1 60.8,169.6 61.8,169.2 62.9,42.2 64.0,42.0 65.1,42.2 66.2,238.1 67.3,236.8 68.4,236.7 69.5,236.5 70.6,236.1 71.7,235.2 72.8,234.6 73.9,233.0 75.0,247.9 76.1,248.7 77.2,247.7 78.3,258.9 79.4,259.8 80.4,260.8 81.5,261.4 82.6,261.6 83.7,265.4 84.8,266.2 85.9,266.7 87.0,262.0 88.1,262.3 89.2,262.0 90.3,262.3 91.4,261.6 92.5,226.2 93.6,224.1 94.7,221.6 95.8,240.1 96.9,239.1 98.0,237.6 99.0,237.0 100.1,241.3 101.2,240.9 102.3,240.8 103.4,240.0 104.5,239.5 105.6,240.9 106.7,240.3 107.8,240.0 108.9,248.6 110.0,247.4 111.1,247.1 112.2,246.8 113.3,245.4 114.4,236.1 115.5,235.8 116.6,234.6 117.6,233.7 118.7,229.1 119.8,228.5 120.9,227.0 122.0,236.9 123.1,237.2 124.2,237.4 125.3,236.8 126.4,236.2 127.5,235.9 128.6,235.3 129.7,235.4 130.8,234.8 131.9,236.0 133.0,236.6 134.1,235.8 135.2,235.7 136.2,250.9 137.3,251.1 138.4,250.5 139.5,233.3 140.6,232.3 141.7,231.6 142.8,231.6 143.9,231.7 145.0,240.8 146.1,240.1 147.2,240.8 148.3,239.5 149.4,236.1 150.5,236.2 151.6,235.6 152.7,236.1 153.8,243.3 154.8,242.9 155.9,243.1 157.0,242.4 158.1,242.1 159.2,241.9 160.3,242.2 161.4,240.1 162.5,236.3 163.6,236.1 164.7,235.3 165.8,235.2 166.9,235.5 168.0,234.9 169.1,234.3 170.2,242.5 171.3,241.9 172.4,242.1 173.4,243.1 174.5,242.2 175.6,251.6 176.7,251.6 177.8,252.3 178.9,251.5 180.0,247.3 181.1,247.7 182.2,247.5 183.3,248.1 184.4,256.8 185.5,257.1 186.6,257.0 187.7,257.3 188.8,259.9 189.9,260.7 191.0,261.1 192.0,257.4 193.1,257.3 194.2,257.7 195.3,257.0 196.4,253.0 197.5,252.8 198.6,252.2 199.7,252.2 200.8,258.9 201.9,259.1 203.0,259.0 204.1,259.7 205.2,260.3 206.3,255.2 207.4,255.5 208.5,255.9 209.6,258.9 210.6,258.7 211.7,259.3 212.8,259.5 213.9,260.1 215.0,261.0 216.1,260.9 217.2,260.4 218.3,257.7 219.4,257.6 220.5,257.5 221.6,257.7 222.7,257.5 223.8,253.3 224.9,252.9 226.0,252.9 227.1,252.5 228.2,248.0 229.2,248.0 230.3,248.0 231.4,249.7 232.5,250.3 233.6,250.5 234.7,250.3 235.8,250.2 236.9,254.1 238.0,255.0 239.1,255.7 240.2,256.1 241.3,257.8 242.4,257.5 243.5,257.3 244.6,257.1 245.7,248.7 246.8,249.0 247.8,250.1 248.9,250.3 250.0,255.4 251.1,256.2 252.2,257.1 253.3,256.5 254.4,255.9 255.5,256.3 256.6,256.7 257.7,257.3 258.8,257.6 259.9,257.7 261.0,259.0 262.1,259.1 263.2,259.8 264.3,260.3 265.4,259.4 266.4,260.4 267.5,259.4 268.6,260.0 269.7,260.0 270.8,260.8 271.9,261.3 273.0,261.4 274.1,262.1 275.2,262.5 276.3,253.8 277.4,254.2 278.5,254.1 279.6,257.5 280.7,257.6 281.8,256.6 282.9,256.7 284.0,266.1 285.0,266.2 286.1,265.8 287.2,266.7 288.3,266.4 289.4,266.3 290.5,266.5 291.6,267.3 292.7,255.9 293.8,255.8 294.9,255.7 296.0,255.9 297.1,256.8 298.2,248.6 299.3,248.1 300.4,248.5 301.5,247.7 302.6,251.8 303.6,251.9 304.7,251.7 305.8,250.2 306.9,251.1 308.0,250.7 309.1,250.9 310.2,253.7 311.3,253.8 312.4,252.9 313.5,253.2 314.6,260.6 315.7,261.1 316.8,260.8 317.9,260.7 319.0,251.9 320.1,251.8 321.2,252.2 322.2,252.0 323.3,266.6 324.4,267.2 325.5,267.5 326.6,267.9 327.7,264.3 328.8,263.7 329.9,264.3 331.0,263.7 332.1,253.4 333.2,253.1 334.3,254.0 335.4,253.4 336.5,252.8 337.6,256.4 338.7,256.2 339.8,256.2 340.8,252.1 341.9,250.9 343.0,250.6 344.1,250.1 345.2,249.4 346.3,249.0 347.4,249.1 348.5,248.5 349.6,258.6 350.7,258.4 351.8,258.1 352.9,257.6 354.0,248.5 355.1,247.7 356.2,248.0 357.3,248.0 358.4,259.9 359.4,259.8 360.5,260.3 361.6,259.9 362.7,260.3 363.8,257.7 364.9,257.7 366.0,258.4 367.1,257.6 368.2,257.3 369.3,257.5 370.4,257.0 371.5,247.9 372.6,247.6 373.7,248.0 374.8,248.5 375.9,242.5 377.0,243.2 378.0,243.6 379.1,243.2 380.2,243.5 381.3,246.3 382.4,245.9 383.5,246.1 384.6,246.3 385.7,243.3 386.8,243.5 387.9,242.9 389.0,242.6 390.1,252.1 391.2,252.6 392.3,253.0 393.4,246.7 394.5,247.3 395.6,247.3 396.6,246.4 397.7,246.1 398.8,247.1 399.9,246.9 401.0,247.1 402.1,249.5 403.2,249.7 404.3,250.3 405.4,250.5 406.5,250.2 407.6,260.6 408.7,260.8 409.8,260.5 410.9,256.1 412.0,256.1 413.1,255.9 414.2,255.5 415.2,255.7 416.3,255.6 417.4,255.6 418.5,256.3 419.6,260.1 420.7,260.6 421.8,260.2 422.9,260.7 424.0,264.0 425.1,264.0 426.2,263.9 427.3,264.3 428.4,261.0 429.5,260.8 430.6,262.2 431.7,261.6 432.8,252.9 433.8,253.0 434.9,252.4 436.0,252.7 437.1,258.7 438.2,258.9 439.3,259.4 440.4,260.0 441.5,259.5 442.6,265.5 443.7,266.3 444.8,267.4 445.9,247.0 447.0,246.8 448.1,246.5 449.2,246.2 450.3,240.0 451.4,239.8 452.4,240.2 453.5,239.6 454.6,246.7 455.7,246.2 456.8,245.7 457.9,245.8 459.0,244.3 460.1,244.5 461.2,244.7 462.3,244.8 463.4,244.9 464.5,247.4 465.6,247.3 466.7,247.6 467.8,248.2 468.9,242.6 470.0,242.4 471.0,243.1 472.1,243.3 473.2,242.3 474.3,241.9 475.4,242.0 476.5,251.9 477.6,252.4 478.7,252.6 479.8,252.7 480.9,258.9 482.0,259.1 483.1,259.6 484.2,259.8 485.3,259.8 486.4,260.1 487.5,260.4 488.6,259.6 489.6,260.2 490.7,265.2 491.8,264.8 492.9,264.6 494.0,258.0 495.1,257.8 496.2,257.5 497.3,257.3 498.4,259.3 499.5,259.2 500.6,258.9 501.7,259.1 502.8,259.5 503.9,259.1 505.0,259.3 506.1,259.3 507.2,259.6 508.2,254.6 509.3,254.0 510.4,254.2 511.5,254.2 512.6,254.1 513.7,253.9 514.8,253.2 515.9,247.7 517.0,247.9 518.1,248.0 519.2,248.0 520.3,248.5 521.4,253.0 522.5,252.5 523.6,252.8 524.7,253.4 525.8,252.6 526.8,252.9 527.9,253.1 529.0,256.1 530.1,256.3 531.2,256.9 532.3,257.0 533.4,262.7 534.5,262.4 535.6,261.8 536.7,262.3 537.8,261.9 538.9,262.1 540.0,261.7 541.1,261.6 542.2,260.1 543.3,256.2 544.4,256.3 545.4,256.5 546.5,251.0 547.6,252.0 548.7,252.0 549.8,252.2 550.9,254.9 552.0,245.9 553.1,245.2 554.2,245.9 555.3,245.2 556.4,245.7 557.5,246.0 558.6,246.1 559.7,242.8 560.8,243.9 561.9,243.9 563.0,242.1 564.0,243.7 565.1,243.6 566.2,243.2 567.3,243.6 568.4,242.7 569.5,247.8 570.6,247.5 571.7,248.5 572.8,248.3 573.9,252.7 575.0,253.3 576.1,253.6 577.2,253.3 578.3,253.9 579.4,254.1 580.5,253.4 581.6,253.6 582.6,262.9 583.7,262.7 584.8,262.8 585.9,262.9 587.0,257.7 588.1,257.3 589.2,256.7 590.3,257.0 591.4,249.5 592.5,249.8 593.6,249.2 594.7,249.7 595.8,250.2 596.9,250.3 598.0,250.9 599.1,250.4 600.2,251.1 601.2,250.3 602.3,250.9 603.4,250.2 604.5,254.0 605.6,254.1 606.7,254.4 607.8,253.6 608.9,253.8 610.0,253.8 611.1,253.1 612.2,254.1 613.3,257.0 614.4,257.4 615.5,259.6 616.6,260.9 617.7,260.3 618.8,260.0 619.8,259.3 620.9,258.6 622.0,258.5 623.1,258.2 624.2,257.9 625.3,258.3 626.4,258.0 627.5,257.0 628.6,257.0 629.7,257.3 630.8,256.8 631.9,257.2 633.0,257.0 634.1,257.3 635.2,254.9 636.3,254.8 637.4,254.0 638.4,246.4 639.5,247.2 640.6,247.2 641.7,246.7 642.8,254.3 643.9,253.9 645.0,254.1 646.1,253.5 647.2,246.9 648.3,249.0 649.4,249.2 650.5,249.3 651.6,242.6 652.7,241.5 653.8,240.2 654.9,241.4 656.0,242.0 657.0,238.1 658.1,237.8 659.2,237.6 660.3,237.0 661.4,244.4 662.5,245.0 663.6,245.3 664.7,256.3 665.8,256.7 666.9,255.8 668.0,255.8 669.1,250.9 670.2,248.7 671.3,247.8 672.4,248.0 673.5,244.6 674.6,244.0 675.6,243.7 676.7,243.9 677.8,243.0 678.9,243.8 680.0,245.0 681.1,244.5 682.2,243.5 683.3,249.2 684.4,249.0 685.5,248.9 686.6,248.0 687.7,247.5 688.8,247.2 689.9,248.4 691.0,248.9 692.1,240.9 693.2,241.0 694.2,241.2 695.3,246.3 696.4,246.4 697.5,246.1 698.6,246.5 699.7,247.6 700.8,247.1 701.9,247.9 703.0,248.4 704.1,248.8 705.2,247.4 706.3,247.0 707.4,247.1 708.5,255.3 709.6,255.4 710.7,255.5 711.8,254.8 712.8,250.2 713.9,250.2 715.0,250.4 716.1,250.3 717.2,250.5 718.3,253.7 719.4,254.2 720.5,254.6 721.6,254.6 722.7,253.1 723.8,253.4 724.9,253.6 726.0,259.3 727.1,259.1 728.2,259.4 729.3,259.2 730.4,256.8 731.4,256.4 732.5,256.3 733.6,255.9 734.7,254.2 735.8,254.4 736.9,253.7 738.0,253.9 739.1,254.4 740.2,257.7 741.3,258.4 742.4,257.7 743.5,257.7 744.6,250.3 745.7,249.7 746.8,249.3 747.9,263.6 749.0,263.7 750.0,263.9 751.1,264.3 752.2,263.9 753.3,262.8 754.4,262.9 755.5,263.1 756.6,269.8 757.7,269.6 758.8,268.9 759.9,268.8 761.0,268.3 762.1,274.0 763.2,273.8 764.3,273.5 765.4,263.7 766.5,264.3 767.6,264.8 768.6,264.7 769.7,264.9 770.8,257.0 771.9,256.9 773.0,256.4 774.1,252.9 775.2,252.4 776.3,252.2 777.4,252.1 778.5,262.4 779.6,262.2 780.7,262.5 781.8,262.4 782.9,253.8 784.0,254.6 785.1,254.3 786.2,254.2 787.2,244.4 788.3,244.6 789.4,245.3 790.5,244.7 791.6,245.6 792.7,252.6 793.8,252.2 794.9,251.4 796.0,250.6"/>
<text x="640" y="56" font-family="Arial" font-size="12" fill="#0f766e">ekf_dropout_robust velocity error</text>
</svg>