<svg xmlns="http://www.w3.org/2000/svg" width="820" height="320" viewBox="0 0 820 320">
<rect width="100%" height="100%" fill="white"/>
<text x="52" y="30" font-family="Arial" font-size="18" font-weight="700">robust_nominal velocity error</text>
<line x1="52" y1="274" x2="796" y2="274" stroke="#263238"/>
<line x1="52" y1="42" x2="52" y2="274" stroke="#263238"/>
<text x="52" y="306" font-family="Arial" font-size="12">time (s)</text>
<text x="630" y="306" font-family="Arial" font-size="12">m/s</text>

<rect x="314.6" y="42" width="153.2" height="232" fill="#fef3c7" opacity="0.72"/>
<polyline fill="none" stroke="#0f766e" stroke-width="2.3" points="52.0,197.6 53.1,196.8 54.2,196.0 55.3,195.3 56.4,194.6 57.5,193.7 58.6,193.6 59.7,193.3 60.8,192.9 61.8,192.5 62.9,42.2 64.0,42.0 65.1,42.2 66.2,232.7 67.3,231.4 68.4,231.6 69.5,231.6 70.6,231.2 71.7,230.6 72.8,230.2 73.9,224.2 75.0,256.7 76.1,257.6 77.2,255.5 78.3,266.6 79.4,267.4 80.4,268.5 81.5,269.1 82.6,269.4 83.7,272.7 84.8,273.4 85.9,274.0 87.0,269.8 88.1,269.8 89.2,269.3 90.3,269.1 91.4,268.1 92.5,242.6 93.6,240.7 94.7,238.3 95.8,252.7 96.9,251.5 98.0,250.1 99.0,249.3 100.1,254.0 101.2,253.7 102.3,253.5 103.4,252.8 104.5,252.4 105.6,255.8 106.7,255.4 107.8,255.3 108.9,261.2 110.0,260.4 111.1,260.1 112.2,260.0 113.3,259.0 114.4,250.9 115.5,250.6 116.6,249.7 117.6,249.1 118.7,244.8 119.8,244.3 120.9,243.1 122.0,249.5 123.1,249.7 124.2,249.8 125.3,249.3 126.4,248.7 127.5,248.3 128.6,247.5 129.7,247.5 130.8,247.0 131.9,247.9 133.0,248.3 134.1,247.5 135.2,247.4 136.2,258.2 137.3,258.4 138.4,257.9 139.5,247.2 140.6,246.5 141.7,246.0 142.8,246.0 143.9,246.1 145.0,251.3 146.1,250.7 147.2,251.2 148.3,250.3 149.4,248.6 150.5,248.7 151.6,248.2 152.7,248.6 153.8,252.9 154.8,252.6 155.9,252.8 157.0,252.3 158.1,252.4 159.2,252.3 160.3,252.4 161.4,250.8 162.5,248.5 163.6,248.4 164.7,247.7 165.8,247.6 166.9,247.6 168.0,247.1 169.1,246.6 170.2,251.4 171.3,250.9 172.4,251.0 173.4,251.8 174.5,251.0 175.6,256.6 176.7,256.6 177.8,257.0 178.9,256.3 180.0,255.0 181.1,255.3 182.2,255.0 183.3,255.5 184.4,261.0 185.5,261.2 186.6,261.1 187.7,261.3 188.8,263.4 189.9,264.0 191.0,264.4 192.0,263.4 193.1,263.4 194.2,263.8 195.3,263.3 196.4,261.3 197.5,261.0 198.6,260.5 199.7,260.5 200.8,264.6 201.9,264.8 203.0,264.7 204.1,265.1 205.2,265.6 206.3,263.4 207.4,263.7 208.5,263.9 209.6,265.3 210.6,265.0 211.7,265.5 212.8,265.7 213.9,266.3 215.0,268.0 216.1,267.8 217.2,267.5 218.3,265.9 219.4,265.8 220.5,265.8 221.6,266.0 222.7,265.9 223.8,263.9 224.9,263.6 226.0,263.6 227.1,263.2 228.2,261.1 229.2,261.1 230.3,261.2 231.4,262.1 232.5,262.7 233.6,262.8 234.7,262.5 235.8,262.6 236.9,264.3 238.0,265.0 239.1,265.5 240.2,265.9 241.3,266.8 242.4,266.6 243.5,266.4 244.6,266.3 245.7,262.0 246.8,262.1 247.8,263.0 248.9,263.4 250.0,265.2 251.1,265.8 252.2,266.4 253.3,265.9 254.4,265.6 255.5,265.8 256.6,266.1 257.7,267.3 258.8,267.4 259.9,267.5 261.0,267.9 262.1,268.1 263.2,268.3 264.3,268.8 265.4,268.1 266.4,268.7 267.5,267.9 268.6,268.1 269.7,268.1 270.8,268.3 271.9,268.7 273.0,268.8 274.1,269.4 275.2,269.7 276.3,266.5 277.4,266.8 278.5,266.7 279.6,267.8 280.7,267.8 281.8,267.1 282.9,267.2 284.0,271.3 285.0,271.4 286.1,271.0 287.2,271.7 288.3,271.6 289.4,272.1 290.5,272.3 291.6,272.9 292.7,267.6 293.8,267.5 294.9,267.4 296.0,267.6 297.1,268.3 298.2,264.6 299.3,264.1 300.4,264.4 301.5,263.9 302.6,265.1 303.6,265.3 304.7,265.0 305.8,263.8 306.9,264.5 308.0,264.2 309.1,264.4 310.2,264.9 311.3,265.0 312.4,264.3 313.5,264.7 314.6,268.2 315.7,268.7 316.8,268.3 317.9,268.2 319.0,264.4 320.1,264.4 321.2,264.8 322.2,264.7 323.3,270.8 324.4,271.2 325.5,271.5 326.6,271.8 327.7,270.5 328.8,270.0 329.9,270.4 331.0,270.0 332.1,265.8 333.2,265.6 334.3,266.1 335.4,265.6 336.5,265.7 337.6,266.4 338.7,266.3 339.8,266.3 340.8,264.6 341.9,264.2 343.0,264.0 344.1,263.7 345.2,263.1 346.3,262.6 347.4,262.7 348.5,262.2 349.6,265.8 350.7,265.7 351.8,265.4 352.9,264.9 354.0,260.9 355.1,260.3 356.2,260.5 357.3,260.5 358.4,265.8 359.4,265.6 360.5,266.1 361.6,266.0 362.7,266.3 363.8,265.3 364.9,265.3 366.0,265.9 367.1,265.9 368.2,265.6 369.3,265.8 370.4,265.3 371.5,261.4 372.6,261.2 373.7,261.5 374.8,261.9 375.9,259.7 377.0,260.4 378.0,260.8 379.1,260.5 380.2,260.7 381.3,260.8 382.4,260.4 383.5,260.7 384.6,260.8 385.7,259.3 386.8,259.8 387.9,259.4 389.0,259.3 390.1,262.1 391.2,262.6 392.3,262.9 393.4,260.8 394.5,261.7 395.6,261.7 396.6,261.0 397.7,260.9 398.8,260.7 399.9,260.6 401.0,260.8 402.1,261.2 403.2,261.5 404.3,262.0 405.4,262.3 406.5,262.1 407.6,266.2 408.7,266.3 409.8,266.0 410.9,265.1 412.0,265.0 413.1,264.8 414.2,264.4 415.2,265.1 416.3,265.4 417.4,265.2 418.5,265.5 419.6,267.5 420.7,267.9 421.8,267.7 422.9,268.0 424.0,269.2 425.1,269.0 426.2,269.0 427.3,269.6 428.4,269.9 429.5,269.7 430.6,270.9 431.7,270.5 432.8,267.1 433.8,267.3 434.9,267.0 436.0,266.9 437.1,268.1 438.2,268.1 439.3,268.7 440.4,269.3 441.5,269.0 442.6,270.9 443.7,271.5 444.8,272.4 445.9,265.4 447.0,265.6 448.1,265.2 449.2,265.1 450.3,261.5 451.4,261.4 452.4,261.7 453.5,261.4 454.6,262.9 455.7,262.6 456.8,262.2 457.9,262.2 459.0,261.0 460.1,260.8 461.2,261.0 462.3,261.1 463.4,261.2 464.5,261.3 465.6,261.3 466.7,261.6 467.8,262.1 468.9,259.5 470.0,259.4 471.0,260.1 472.1,260.3 473.2,259.0 474.3,258.8 475.4,259.0 476.5,263.1 477.6,263.5 478.7,263.6 479.8,263.6 480.9,265.7 482.0,266.0 483.1,266.4 484.2,266.4 485.3,266.6 486.4,266.9 487.5,267.2 488.6,266.5 489.6,267.4 490.7,269.6 491.8,269.3 492.9,269.2 494.0,266.8 495.1,266.6 496.2,266.4 497.3,266.3 498.4,266.3 499.5,266.1 500.6,265.7 501.7,265.7 502.8,266.7 503.9,266.4 505.0,266.4 506.1,266.3 507.2,266.6 508.2,264.8 509.3,264.3 510.4,264.7 511.5,264.3 512.6,264.1 513.7,263.9 514.8,263.4 515.9,260.7 517.0,260.9 518.1,261.0 519.2,261.1 520.3,261.5 521.4,264.2 522.5,264.1 523.6,264.4 524.7,264.2 525.8,263.7 526.8,264.0 527.9,264.3 529.0,266.2 530.1,266.5 531.2,266.8 532.3,267.2 533.4,268.9 534.5,268.7 535.6,268.2 536.7,268.2 537.8,268.0 538.9,269.9 540.0,270.1 541.1,269.9 542.2,269.1 543.3,267.9 544.4,267.8 545.4,267.8 546.5,266.5 547.6,267.0 548.7,267.2 549.8,267.7 550.9,268.7 552.0,264.0 553.1,263.6 554.2,264.3 555.3,263.2 556.4,263.5 557.5,263.9 558.6,264.1 559.7,262.7 560.8,263.2 561.9,263.4 563.0,262.3 564.0,262.1 565.1,262.2 566.2,261.7 567.3,262.1 568.4,261.5 569.5,262.1 570.6,261.9 571.7,262.6 572.8,262.5 573.9,264.1 575.0,264.5 576.1,264.7 577.2,264.7 578.3,265.2 579.4,265.4 580.5,265.0 581.6,265.1 582.6,268.2 583.7,268.0 584.8,268.0 585.9,268.1 587.0,267.2 588.1,267.3 589.2,266.9 590.3,267.4 591.4,265.6 592.5,265.8 593.6,265.3 594.7,265.6 595.8,264.4 596.9,264.4 598.0,264.9 599.1,264.7 600.2,264.3 601.2,263.7 602.3,264.1 603.4,263.6 604.5,264.7 605.6,264.7 606.7,265.1 607.8,265.1 608.9,265.3 610.0,265.2 611.1,264.8 612.2,265.5 613.3,266.8 614.4,267.0 615.5,267.8 616.6,268.3 617.7,268.0 618.8,267.7 619.8,267.0 620.9,267.1 622.0,266.2 623.1,266.0 624.2,265.3 625.3,265.4 626.4,263.9 627.5,263.3 628.6,263.3 629.7,263.6 630.8,264.7 631.9,265.6 633.0,265.2 634.1,265.2 635.2,265.3 636.3,265.3 637.4,264.6 638.4,261.6 639.5,262.3 640.6,262.3 641.7,262.1 642.8,264.6 643.9,264.3 645.0,264.7 646.1,264.1 647.2,262.5 648.3,263.1 649.4,263.5 650.5,263.3 651.6,260.9 652.7,260.1 653.8,259.2 654.9,260.0 656.0,260.4 657.0,258.0 658.1,257.9 659.2,257.6 660.3,257.1 661.4,258.8 662.5,259.0 663.6,259.2 664.7,263.0 665.8,263.2 666.9,262.5 668.0,262.4 669.1,260.8 670.2,259.4 671.3,258.5 672.4,258.7 673.5,256.7 674.6,256.2 675.6,255.8 676.7,256.0 677.8,255.2 678.9,255.5 680.0,256.5 681.1,256.1 682.2,255.3 683.3,257.7 684.4,257.3 685.5,257.0 686.6,257.0 687.7,256.6 688.8,256.2 689.9,257.2 691.0,257.6 692.1,254.5 693.2,254.6 694.2,254.7 695.3,256.6 696.4,256.5 697.5,256.4 698.6,256.9 699.7,257.3 700.8,256.9 701.9,257.5 703.0,257.7 704.1,257.9 705.2,257.5 706.3,257.2 707.4,257.2 708.5,260.7 709.6,260.7 710.7,260.8 711.8,260.2 712.8,258.9 713.9,258.9 715.0,259.1 716.1,259.1 717.2,259.4 718.3,260.8 719.4,261.1 720.5,261.5 721.6,261.5 722.7,261.4 723.8,261.5 724.9,262.1 726.0,264.8 727.1,264.5 728.2,265.0 729.3,265.0 730.4,264.4 731.4,264.1 732.5,264.0 733.6,263.7 734.7,263.1 735.8,263.2 736.9,262.7 738.0,262.8 739.1,263.3 740.2,264.6 741.3,265.2 742.4,264.6 743.5,264.6 744.6,261.8 745.7,261.4 746.8,261.1 747.9,266.7 749.0,266.8 750.0,266.9 751.1,267.2 752.2,267.2 753.3,267.4 754.4,267.4 755.5,267.6 756.6,270.7 757.7,270.6 758.8,270.1 759.9,269.9 761.0,269.5 762.1,272.1 763.2,271.8 764.3,271.6 765.4,269.6 766.5,269.9 767.6,270.2 768.6,270.1 769.7,270.2 770.8,266.7 771.9,266.6 773.0,266.0 774.1,264.5 775.2,264.0 776.3,263.9 777.4,263.8 778.5,268.3 779.6,268.2 780.7,268.6 781.8,268.3 782.9,265.8 784.0,266.3 785.1,266.3 786.2,266.5 787.2,262.5 788.3,262.6 789.4,263.2 790.5,262.7 791.6,263.2 792.7,265.0 793.8,264.8 794.9,264.2 796.0,263.5"/>
<text x="640" y="56" font-family="Arial" font-size="12" fill="#0f766e">robust_nominal velocity error</text>
</svg>