<svg xmlns="http://www.w3.org/2000/svg" width="820" height="320" viewBox="0 0 820 320">
<rect width="100%" height="100%" fill="white"/>
<text x="52" y="30" font-family="Arial" font-size="18" font-weight="700">ekf_nominal velocity error</text>
<line x1="52" y1="274" x2="796" y2="274" stroke="#263238"/>
<line x1="52" y1="42" x2="52" y2="274" stroke="#263238"/>
<text x="52" y="306" font-family="Arial" font-size="12">time (s)</text>
<text x="630" y="306" font-family="Arial" font-size="12">m/s</text>

<rect x="314.6" y="42" width="153.2" height="232" fill="#fef3c7" opacity="0.72"/>
<polyline fill="none" stroke="#0f766e" stroke-width="2.3" points="52.0,197.8 53.1,197.0 54.2,196.2 55.3,195.5 56.4,194.8 57.5,193.9 58.6,193.8 59.7,193.5 60.8,193.1 61.8,192.7 62.9,42.2 64.0,42.0 65.1,42.2 66.2,249.6 67.3,248.5 68.4,248.5 69.5,248.4 70.6,248.1 71.7,247.4 72.8,247.0 73.9,245.4 75.0,257.8 76.1,258.6 77.2,257.6 78.3,267.1 79.4,267.9 80.4,268.9 81.5,269.4 82.6,269.6 83.7,272.9 84.8,273.4 85.9,274.0 87.0,270.4 88.1,270.5 89.2,270.3 90.3,270.4 91.4,269.7 92.5,241.5 93.6,239.7 94.7,237.5 95.8,251.9 96.9,250.8 98.0,249.5 99.0,248.8 100.1,252.6 101.2,252.3 102.3,252.0 103.4,251.3 104.5,250.8 105.6,252.3 106.7,251.8 107.8,251.5 108.9,258.6 110.0,257.6 111.1,257.2 112.2,257.0 113.3,255.8 114.4,249.7 115.5,249.5 116.6,248.4 117.6,247.9 118.7,243.9 119.8,243.3 120.9,242.2 122.0,249.1 123.1,249.3 124.2,249.5 125.3,249.0 126.4,248.5 127.5,248.4 128.6,247.7 129.7,247.8 130.8,247.4 131.9,248.2 133.0,248.7 134.1,248.0 135.2,247.9 136.2,258.0 137.3,258.2 138.4,257.7 139.5,247.0 140.6,246.3 141.7,245.8 142.8,245.8 143.9,245.9 145.0,251.2 146.1,250.6 147.2,251.2 148.3,250.2 149.4,248.5 150.5,248.6 151.6,248.1 152.7,248.5 153.8,252.9 154.8,252.6 155.9,252.8 157.0,252.2 158.1,252.4 159.2,252.3 160.3,252.4 161.4,250.8 162.5,248.5 163.6,248.3 164.7,247.6 165.8,247.6 166.9,247.7 168.0,247.2 169.1,246.7 170.2,251.6 171.3,251.0 172.4,250.9 173.4,251.6 174.5,250.8 175.6,256.5 176.7,256.6 177.8,257.0 178.9,256.2 180.0,255.1 181.1,255.4 182.2,255.2 183.3,255.9 184.4,261.6 185.5,261.8 186.6,261.6 187.7,261.8 188.8,263.7 189.9,264.4 191.0,264.7 192.0,263.9 193.1,263.9 194.2,264.3 195.3,263.8 196.4,261.8 197.5,261.5 198.6,261.0 199.7,260.9 200.8,265.0 201.9,265.3 203.0,265.2 204.1,265.6 205.2,266.1 206.3,263.8 207.4,264.2 208.5,264.4 209.6,265.7 210.6,265.5 211.7,265.9 212.8,266.1 213.9,266.7 215.0,268.4 216.1,268.2 217.2,268.0 218.3,266.3 219.4,266.2 220.5,266.2 221.6,266.4 222.7,266.3 223.8,264.3 224.9,264.0 226.0,264.0 227.1,263.7 228.2,261.6 229.2,261.5 230.3,261.7 231.4,262.5 232.5,263.2 233.6,263.3 234.7,263.0 235.8,263.1 236.9,264.8 238.0,265.5 239.1,266.1 240.2,266.4 241.3,267.3 242.4,267.1 243.5,267.0 244.6,266.8 245.7,262.4 246.8,262.6 247.8,263.5 248.9,263.8 250.0,265.7 251.1,266.2 252.2,266.9 253.3,266.4 254.4,266.0 255.5,266.3 256.6,266.6 257.7,267.7 258.8,267.9 259.9,268.0 261.0,268.3 262.1,268.5 263.2,268.7 264.3,269.2 265.4,268.6 266.4,269.1 267.5,268.3 268.6,268.5 269.7,268.5 270.8,268.8 271.9,269.2 273.0,269.3 274.1,269.8 275.2,270.2 276.3,266.9 277.4,267.2 278.5,267.1 279.6,268.3 280.7,268.2 281.8,267.5 282.9,267.6 284.0,271.7 285.0,271.8 286.1,271.4 287.2,272.1 288.3,271.9 289.4,272.4 290.5,272.6 291.6,273.2 292.7,268.1 293.8,267.9 294.9,267.9 296.0,268.1 297.1,268.8 298.2,265.0 299.3,264.6 300.4,264.9 301.5,264.4 302.6,265.6 303.6,265.7 304.7,265.4 305.8,264.2 306.9,265.0 308.0,264.6 309.1,264.9 310.2,265.3 311.3,265.4 312.4,264.7 313.5,265.0 314.6,268.5 315.7,269.0 316.8,268.6 317.9,268.6 319.0,264.8 320.1,264.8 321.2,265.2 322.2,265.1 323.3,271.1 324.4,271.6 325.5,271.8 326.6,272.2 327.7,270.8 328.8,270.3 329.9,270.8 331.0,270.3 332.1,266.1 333.2,265.9 334.3,266.4 335.4,266.0 336.5,265.9 337.6,266.8 338.7,266.6 339.8,266.6 340.8,264.9 341.9,264.4 343.0,264.2 344.1,263.8 345.2,263.3 346.3,262.7 347.4,262.8 348.5,262.4 349.6,266.1 350.7,265.9 351.8,265.6 352.9,265.1 354.0,261.1 355.1,260.5 356.2,260.7 357.3,260.7 358.4,266.0 359.4,265.8 360.5,266.3 361.6,266.1 362.7,266.5 363.8,265.6 364.9,265.5 366.0,266.1 367.1,266.1 368.2,265.9 369.3,266.1 370.4,265.6 371.5,261.7 372.6,261.5 373.7,261.8 374.8,262.2 375.9,260.1 377.0,260.7 378.0,261.2 379.1,260.9 380.2,261.1 381.3,261.1 382.4,260.7 383.5,261.0 384.6,261.2 385.7,259.7 386.8,260.1 387.9,259.7 389.0,259.6 390.1,262.5 391.2,262.9 392.3,263.3 393.4,261.1 394.5,262.0 395.6,262.0 396.6,261.3 397.7,261.2 398.8,261.0 399.9,260.9 401.0,261.0 402.1,261.5 403.2,261.8 404.3,262.3 405.4,262.6 406.5,262.3 407.6,266.5 408.7,266.6 409.8,266.2 410.9,265.4 412.0,265.4 413.1,265.1 414.2,264.7 415.2,265.5 416.3,265.7 417.4,265.6 418.5,265.9 419.6,267.8 420.7,268.3 421.8,268.1 422.9,268.4 424.0,269.6 425.1,269.4 426.2,269.3 427.3,270.0 428.4,270.3 429.5,270.2 430.6,271.3 431.7,270.9 432.8,267.5 433.8,267.8 434.9,267.3 436.0,267.2 437.1,268.4 438.2,268.4 439.3,269.0 440.4,269.6 441.5,269.3 442.6,271.2 443.7,271.9 444.8,272.7 445.9,265.8 447.0,266.0 448.1,265.6 449.2,265.4 450.3,261.9 451.4,261.7 452.4,262.1 453.5,261.7 454.6,263.2 455.7,263.0 456.8,262.6 457.9,262.5 459.0,261.4 460.1,261.2 461.2,261.4 462.3,261.5 463.4,261.6 464.5,261.7 465.6,261.7 466.7,262.0 467.8,262.5 468.9,259.9 470.0,259.8 471.0,260.5 472.1,260.7 473.2,259.4 474.3,259.2 475.4,259.3 476.5,263.4 477.6,263.8 478.7,263.9 479.8,263.9 480.9,266.1 482.0,266.4 483.1,266.8 484.2,266.8 485.3,267.0 486.4,267.3 487.5,267.6 488.6,266.9 489.6,267.9 490.7,270.1 491.8,269.8 492.9,269.7 494.0,267.3 495.1,267.1 496.2,266.9 497.3,266.7 498.4,266.7 499.5,266.5 500.6,266.2 501.7,266.2 502.8,267.1 503.9,266.9 505.0,266.8 506.1,266.8 507.2,267.0 508.2,265.3 509.3,264.8 510.4,265.1 511.5,264.8 512.6,264.6 513.7,264.5 514.8,264.1 515.9,261.2 517.0,261.5 518.1,261.5 519.2,261.6 520.3,262.0 521.4,264.6 522.5,264.5 523.6,264.8 524.7,264.6 525.8,264.0 526.8,264.4 527.9,264.6 529.0,266.4 530.1,266.7 531.2,267.0 532.3,267.4 533.4,269.7 534.5,269.5 535.6,269.0 536.7,269.1 537.8,268.8 538.9,270.6 540.0,270.8 541.1,270.6 542.2,269.8 543.3,268.5 544.4,268.4 545.4,268.4 546.5,267.0 547.6,267.5 548.7,267.7 549.8,268.2 550.9,269.2 552.0,264.6 553.1,264.2 554.2,264.8 555.3,264.0 556.4,264.4 557.5,264.7 558.6,264.9 559.7,263.5 560.8,264.0 561.9,264.1 563.0,263.1 564.0,262.8 565.1,262.9 566.2,262.4 567.3,262.9 568.4,262.2 569.5,262.8 570.6,262.5 571.7,263.2 572.8,263.2 573.9,264.7 575.0,265.1 576.1,265.4 577.2,265.5 578.3,266.1 579.4,266.2 580.5,265.7 581.6,265.9 582.6,268.8 583.7,268.6 584.8,268.7 585.9,268.7 587.0,267.8 588.1,268.1 589.2,267.7 590.3,268.1 591.4,265.9 592.5,266.2 593.6,265.7 594.7,266.0 595.8,264.9 596.9,264.9 598.0,265.4 599.1,265.2 600.2,264.8 601.2,264.2 602.3,264.7 603.4,264.2 604.5,265.3 605.6,265.4 606.7,265.7 607.8,265.7 608.9,266.0 610.0,265.8 611.1,265.4 612.2,266.1 613.3,267.3 614.4,267.6 615.5,268.3 616.6,268.8 617.7,268.5 618.8,268.2 619.8,267.5 620.9,267.4 622.0,267.2 623.1,267.0 624.2,266.4 625.3,266.6 626.4,266.4 627.5,265.7 628.6,265.7 629.7,266.0 630.8,266.8 631.9,267.3 633.0,267.1 634.1,267.2 635.2,266.6 636.3,266.6 637.4,265.9 638.4,262.3 639.5,263.1 640.6,263.0 641.7,262.7 642.8,264.9 643.9,264.7 645.0,265.0 646.1,264.3 647.2,261.6 648.3,262.6 649.4,262.9 650.5,263.0 651.6,260.1 652.7,259.3 653.8,258.2 654.9,259.1 656.0,259.6 657.0,257.2 658.1,257.0 659.2,256.8 660.3,256.3 661.4,258.5 662.5,258.9 663.6,259.1 664.7,262.8 665.8,263.1 666.9,262.4 668.0,262.3 669.1,260.6 670.2,259.0 671.3,258.2 672.4,258.3 673.5,256.4 674.6,255.9 675.6,255.6 676.7,255.7 677.8,255.0 678.9,255.6 680.0,256.5 681.1,256.3 682.2,255.6 683.3,258.1 684.4,257.7 685.5,257.3 686.6,257.3 687.7,256.9 688.8,256.5 689.9,257.5 691.0,257.9 692.1,254.9 693.2,255.0 694.2,255.0 695.3,257.0 696.4,256.9 697.5,256.9 698.6,257.4 699.7,257.7 700.8,257.4 701.9,257.9 703.0,258.1 704.1,258.3 705.2,257.9 706.3,257.6 707.4,257.6 708.5,261.0 709.6,261.0 710.7,261.1 711.8,260.6 712.8,259.2 713.9,259.2 715.0,259.4 716.1,259.4 717.2,259.7 718.3,261.1 719.4,261.4 720.5,261.8 721.6,261.8 722.7,261.7 723.8,261.9 724.9,262.4 726.0,265.1 727.1,264.8 728.2,265.4 729.3,265.3 730.4,264.7 731.4,264.4 732.5,264.3 733.6,264.0 734.7,263.5 735.8,263.5 736.9,263.0 738.0,263.2 739.1,263.6 740.2,265.0 741.3,265.5 742.4,265.0 743.5,265.0 744.6,262.1 745.7,261.7 746.8,261.4 747.9,267.0 749.0,267.1 750.0,267.2 751.1,267.5 752.2,267.5 753.3,267.7 754.4,267.7 755.5,267.9 756.6,271.0 757.7,270.9 758.8,270.4 759.9,270.2 761.0,269.8 762.1,272.4 763.2,272.2 764.3,272.0 765.4,269.9 766.5,270.2 767.6,270.5 768.6,270.4 769.7,270.5 770.8,267.1 771.9,266.9 773.0,266.4 774.1,264.9 775.2,264.5 776.3,264.3 777.4,264.3 778.5,268.6 779.6,268.5 780.7,268.9 781.8,268.6 782.9,265.9 784.0,266.4 785.1,266.5 786.2,266.6 787.2,262.6 788.3,262.7 789.4,263.3 790.5,262.8 791.6,263.4 792.7,265.2 793.8,265.0 794.9,264.4 796.0,264.1"/>
<text x="640" y="56" font-family="Arial" font-size="12" fill="#0f766e">ekf_nominal velocity error</text>
</svg>