<svg xmlns="http://www.w3.org/2000/svg" width="820" height="320" viewBox="0 0 820 320">
<rect width="100%" height="100%" fill="white"/>
<text x="52" y="30" font-family="Arial" font-size="18" font-weight="700">adaptive_nominal velocity error</text>
<line x1="52" y1="274" x2="796" y2="274" stroke="#263238"/>
<line x1="52" y1="42" x2="52" y2="274" stroke="#263238"/>
<text x="52" y="306" font-family="Arial" font-size="12">time (s)</text>
<text x="630" y="306" font-family="Arial" font-size="12">m/s</text>

<rect x="314.6" y="42" width="153.2" height="232" fill="#fef3c7" opacity="0.72"/>
<polyline fill="none" stroke="#0f766e" stroke-width="2.3" points="52.0,196.7 53.1,196.0 54.2,195.2 55.3,194.5 56.4,193.8 57.5,192.9 58.6,192.8 59.7,192.5 60.8,192.1 61.8,191.7 62.9,42.2 64.0,42.0 65.1,42.2 66.2,248.2 67.3,247.1 68.4,247.1 69.5,247.0 70.6,246.7 71.7,246.0 72.8,245.6 73.9,244.0 75.0,256.4 76.1,257.2 77.2,256.1 78.3,265.6 79.4,266.3 80.4,267.4 81.5,267.9 82.6,268.1 83.7,271.3 84.8,271.9 85.9,272.4 87.0,268.2 88.1,268.3 89.2,268.0 90.3,268.0 91.4,267.3 92.5,239.0 93.6,237.2 94.7,234.9 95.8,249.9 96.9,248.8 98.0,247.4 99.0,246.7 100.1,250.8 101.2,250.4 102.3,250.2 103.4,249.5 104.5,248.9 105.6,250.7 106.7,250.2 107.8,249.8 108.9,257.0 110.0,256.0 111.1,255.6 112.2,255.4 113.3,254.2 114.4,248.0 115.5,247.7 116.6,246.6 117.6,246.1 118.7,241.8 119.8,241.3 120.9,240.1 122.0,247.9 123.1,248.2 124.2,248.3 125.3,247.9 126.4,247.3 127.5,247.1 128.6,246.3 129.7,246.4 130.8,245.9 131.9,246.9 133.0,247.4 134.1,246.6 135.2,246.7 136.2,258.4 137.3,258.7 138.4,258.2 139.5,245.5 140.6,244.7 141.7,244.1 142.8,244.1 143.9,244.2 145.0,250.4 146.1,249.8 147.2,250.4 148.3,249.3 149.4,247.1 150.5,247.2 151.6,246.7 152.7,247.1 153.8,252.1 154.8,251.7 155.9,251.9 157.0,251.3 158.1,251.3 159.2,251.1 160.3,251.3 161.4,249.5 162.5,247.1 163.6,246.9 164.7,246.2 165.8,246.2 166.9,246.5 168.0,245.9 169.1,245.4 170.2,250.9 171.3,250.4 172.4,250.2 173.4,250.9 174.5,250.2 175.6,256.5 176.7,256.6 177.8,257.0 178.9,256.2 180.0,254.6 181.1,254.9 182.2,254.7 183.3,255.3 184.4,261.4 185.5,261.7 186.6,261.5 187.7,261.8 188.8,263.7 189.9,264.3 191.0,264.6 192.0,263.4 193.1,263.4 194.2,263.7 195.3,263.2 196.4,260.8 197.5,260.6 198.6,260.1 199.7,260.1 200.8,264.5 201.9,264.7 203.0,264.6 204.1,265.1 205.2,265.6 206.3,262.9 207.4,263.3 208.5,263.5 209.6,265.0 210.6,264.8 211.7,265.3 212.8,265.5 213.9,266.1 215.0,267.6 216.1,267.5 217.2,267.2 218.3,265.3 219.4,265.2 220.5,265.2 221.6,265.4 222.7,265.3 223.8,262.9 224.9,262.6 226.0,262.6 227.1,262.2 228.2,259.7 229.2,259.6 230.3,259.8 231.4,260.6 232.5,261.2 233.6,261.3 234.7,261.1 235.8,261.1 236.9,263.3 238.0,263.9 239.1,264.5 240.2,264.9 241.3,265.9 242.4,265.7 243.5,265.6 244.6,265.4 245.7,259.0 246.8,259.2 247.8,260.1 248.9,260.6 250.0,264.0 251.1,264.6 252.2,265.4 253.3,264.9 254.4,264.2 255.5,264.5 256.6,264.8 257.7,265.9 258.8,266.1 259.9,266.1 261.0,266.9 262.1,267.0 263.2,267.2 264.3,267.7 265.4,267.0 266.4,267.7 267.5,266.9 268.6,267.3 269.7,267.3 270.8,267.7 271.9,268.1 273.0,268.2 274.1,268.8 275.2,269.2 276.3,263.7 277.4,264.1 278.5,264.0 279.6,265.9 280.7,265.9 281.8,265.2 282.9,265.3 284.0,271.2 285.0,271.4 286.1,271.1 287.2,271.8 288.3,271.7 289.4,271.9 290.5,272.1 291.6,272.8 292.7,265.3 293.8,265.2 294.9,265.2 296.0,265.4 297.1,266.1 298.2,261.1 299.3,260.6 300.4,261.0 301.5,260.5 302.6,262.2 303.6,262.3 304.7,262.2 305.8,261.3 306.9,262.0 308.0,261.6 309.1,261.9 310.2,262.6 311.3,262.7 312.4,262.0 313.5,262.3 314.6,266.1 315.7,266.6 316.8,266.2 317.9,266.2 319.0,261.9 320.1,261.9 321.2,262.3 322.2,262.2 323.3,269.1 324.4,269.6 325.5,269.9 326.6,270.2 327.7,268.8 328.8,268.3 329.9,268.8 331.0,268.3 332.1,263.5 333.2,263.3 334.3,263.9 335.4,263.4 336.5,263.1 337.6,264.3 338.7,264.2 339.8,264.2 340.8,262.3 341.9,261.7 343.0,261.5 344.1,261.1 345.2,260.5 346.3,260.1 347.4,260.2 348.5,259.7 349.6,263.1 350.7,262.9 351.8,262.6 352.9,262.0 354.0,258.7 355.1,258.0 356.2,258.2 357.3,258.2 358.4,262.8 359.4,262.6 360.5,263.1 361.6,262.9 362.7,263.3 363.8,262.6 364.9,262.5 366.0,263.1 367.1,263.3 368.2,263.0 369.3,263.2 370.4,262.8 371.5,258.3 372.6,258.0 373.7,258.3 374.8,258.8 375.9,256.0 377.0,256.6 378.0,257.0 379.1,256.7 380.2,256.9 381.3,257.5 382.4,257.2 383.5,257.4 384.6,257.6 385.7,255.9 386.8,256.4 387.9,256.0 389.0,255.9 390.1,259.9 391.2,260.4 392.3,260.7 393.4,258.1 394.5,258.8 395.6,258.8 396.6,258.2 397.7,258.0 398.8,258.0 399.9,257.9 401.0,258.0 402.1,258.9 403.2,259.1 404.3,259.6 405.4,259.9 406.5,259.6 407.6,264.8 408.7,264.9 409.8,264.6 410.9,263.4 412.0,263.4 413.1,263.1 414.2,262.7 415.2,263.5 416.3,263.7 417.4,263.6 418.5,264.0 419.6,266.2 420.7,266.7 421.8,266.5 422.9,266.8 424.0,268.2 425.1,268.1 426.2,268.0 427.3,268.6 428.4,268.6 429.5,268.5 430.6,269.7 431.7,269.2 432.8,265.0 433.8,265.2 434.9,264.6 436.0,264.6 437.1,266.5 438.2,266.6 439.3,267.1 440.4,267.7 441.5,267.4 442.6,269.9 443.7,270.5 444.8,271.3 445.9,262.5 447.0,262.6 448.1,262.3 449.2,262.1 450.3,258.2 451.4,258.0 452.4,258.4 453.5,258.0 454.6,260.2 455.7,259.9 456.8,259.5 457.9,259.5 459.0,258.3 460.1,258.3 461.2,258.5 462.3,258.6 463.4,258.7 464.5,259.0 465.6,259.0 466.7,259.3 467.8,259.8 468.9,256.8 470.0,256.7 471.0,257.4 472.1,257.6 473.2,256.3 474.3,256.0 475.4,256.2 476.5,261.8 477.6,262.2 478.7,262.3 479.8,262.3 480.9,265.8 482.0,266.1 483.1,266.5 484.2,266.6 485.3,266.6 486.4,266.9 487.5,267.2 488.6,266.5 489.6,267.7 490.7,270.6 491.8,270.3 492.9,270.1 494.0,266.3 495.1,266.1 496.2,265.9 497.3,265.7 498.4,266.3 499.5,266.2 500.6,265.9 501.7,266.0 502.8,266.6 503.9,266.3 505.0,266.4 506.1,266.4 507.2,266.6 508.2,263.9 509.3,263.4 510.4,263.7 511.5,263.2 512.6,263.2 513.7,263.1 514.8,262.6 515.9,258.9 517.0,259.1 518.1,259.2 519.2,259.2 520.3,259.7 521.4,262.5 522.5,262.1 523.6,262.5 524.7,262.5 525.8,262.0 526.8,262.2 527.9,262.4 529.0,264.0 530.1,264.2 531.2,264.5 532.3,264.8 533.4,266.8 534.5,266.5 535.6,266.0 536.7,266.1 537.8,265.7 538.9,267.9 540.0,268.1 541.1,267.8 542.2,267.1 543.3,265.6 544.4,265.6 545.4,265.6 546.5,263.9 547.6,264.4 548.7,264.6 549.8,265.0 550.9,266.2 552.0,261.6 553.1,261.2 554.2,261.9 555.3,261.2 556.4,261.6 557.5,261.8 558.6,262.1 559.7,260.5 560.8,261.1 561.9,261.2 563.0,260.2 564.0,259.9 565.1,260.1 566.2,259.6 567.3,260.0 568.4,259.4 569.5,260.3 570.6,260.1 571.7,260.8 572.8,260.7 573.9,262.4 575.0,262.8 576.1,263.1 577.2,263.2 578.3,263.7 579.4,263.9 580.5,263.4 581.6,263.5 582.6,266.1 583.7,265.8 584.8,265.9 585.9,265.9 587.0,265.5 588.1,265.9 589.2,265.5 590.3,266.1 591.4,265.3 592.5,265.5 593.6,265.0 594.7,265.3 595.8,264.4 596.9,264.4 598.0,264.9 599.1,264.8 600.2,264.7 601.2,264.1 602.3,264.6 603.4,264.1 604.5,264.1 605.6,264.1 606.7,264.6 607.8,264.8 608.9,265.1 610.0,264.7 611.1,264.4 612.2,265.1 613.3,265.5 614.4,265.6 615.5,266.1 616.6,266.5 617.7,266.3 618.8,266.0 619.8,265.3 620.9,265.1 622.0,264.8 623.1,264.7 624.2,264.0 625.3,264.2 626.4,264.0 627.5,263.4 628.6,263.5 629.7,263.7 630.8,264.5 631.9,265.1 633.0,264.9 634.1,264.9 635.2,264.9 636.3,264.8 637.4,264.2 638.4,262.9 639.5,263.7 640.6,263.6 641.7,263.2 642.8,263.6 643.9,263.6 645.0,264.0 646.1,263.3 647.2,262.0 648.3,262.3 649.4,262.8 650.5,262.7 651.6,261.7 652.7,261.0 653.8,260.4 654.9,261.0 656.0,261.4 657.0,260.1 658.1,260.1 659.2,259.7 660.3,259.2 661.4,260.3 662.5,260.4 663.6,260.6 664.7,262.2 665.8,262.4 666.9,261.7 668.0,261.6 669.1,260.7 670.2,259.3 671.3,258.5 672.4,258.6 673.5,256.8 674.6,256.4 675.6,256.0 676.7,256.2 677.8,255.4 678.9,255.3 680.0,256.3 681.1,255.9 682.2,255.2 683.3,257.3 684.4,257.0 685.5,256.7 686.6,256.7 687.7,256.3 688.8,255.9 689.9,256.9 691.0,257.3 692.1,253.9 693.2,254.0 694.2,254.1 695.3,256.1 696.4,256.1 697.5,255.9 698.6,256.4 699.7,256.7 700.8,256.4 701.9,257.0 703.0,257.2 704.1,257.5 705.2,256.8 706.3,256.6 707.4,256.6 708.5,261.5 709.6,261.6 710.7,261.6 711.8,261.1 712.8,258.5 713.9,258.4 715.0,258.5 716.1,258.5 717.2,258.7 718.3,260.8 719.4,261.2 720.5,261.5 721.6,261.5 722.7,260.9 723.8,261.1 724.9,261.5 726.0,265.4 727.1,265.2 728.2,265.6 729.3,265.5 730.4,264.2 731.4,263.7 732.5,263.7 733.6,263.3 734.7,262.5 735.8,262.5 736.9,262.0 738.0,262.1 739.1,262.5 740.2,264.8 741.3,265.3 742.4,264.8 743.5,264.8 744.6,260.6 745.7,260.2 746.8,259.9 747.9,267.5 749.0,267.6 750.0,267.7 751.1,268.0 752.2,268.1 753.3,268.1 754.4,268.1 755.5,268.2 756.6,272.0 757.7,271.9 758.8,271.3 759.9,271.2 761.0,270.7 762.1,274.0 763.2,273.8 764.3,273.6 765.4,269.7 766.5,270.0 767.6,270.4 768.6,270.3 769.7,270.4 770.8,265.9 771.9,265.7 773.0,265.3 774.1,263.0 775.2,262.6 776.3,262.4 777.4,262.4 778.5,268.1 779.6,267.9 780.7,268.3 781.8,268.1 782.9,264.1 784.0,264.7 785.1,264.7 786.2,264.7 787.2,259.2 788.3,259.4 789.4,260.0 790.5,259.5 791.6,260.2 792.7,263.0 793.8,262.8 794.9,262.2 796.0,261.7"/>
<text x="640" y="56" font-family="Arial" font-size="12" fill="#0f766e">adaptive_nominal velocity error</text>
</svg>