<svg xmlns="http://www.w3.org/2000/svg" width="820" height="320" viewBox="0 0 820 320">
<rect width="100%" height="100%" fill="white"/>
<text x="52" y="30" font-family="Arial" font-size="18" font-weight="700">adaptive_dropout_robust velocity error</text>
<line x1="52" y1="274" x2="796" y2="274" stroke="#263238"/>
<line x1="52" y1="42" x2="52" y2="274" stroke="#263238"/>
<text x="52" y="306" font-family="Arial" font-size="12">time (s)</text>
<text x="630" y="306" font-family="Arial" font-size="12">m/s</text>

<rect x="314.6" y="42" width="153.2" height="232" fill="#fef3c7" opacity="0.72"/>
<polyline fill="none" stroke="#0f766e" stroke-width="2.3" points="52.0,173.2 53.1,172.3 54.2,171.3 55.3,170.5 56.4,169.6 57.5,168.6 58.6,168.5 59.7,168.1 60.8,167.7 61.8,167.2 62.9,42.2 64.0,42.0 65.1,42.2 66.2,235.0 67.3,233.8 68.4,233.6 69.5,233.5 70.6,233.0 71.7,232.2 72.8,231.6 73.9,230.0 75.0,244.7 76.1,245.5 77.2,244.5 78.3,255.5 79.4,256.4 80.4,257.4 81.5,258.0 82.6,258.1 83.7,261.9 84.8,262.7 85.9,263.2 87.0,257.4 88.1,257.5 89.2,257.2 90.3,257.4 91.4,256.5 92.5,218.8 93.6,216.6 94.7,213.9 95.8,235.5 96.9,234.3 98.0,232.9 99.0,232.2 100.1,237.1 101.2,236.6 102.3,236.6 103.4,235.8 104.5,235.3 105.6,236.9 106.7,236.2 107.8,235.9 108.9,244.8 110.0,243.7 111.1,243.3 112.2,243.1 113.3,241.7 114.4,231.8 115.5,231.4 116.6,230.1 117.6,229.2 118.7,224.7 119.8,224.0 120.9,222.4 122.0,234.2 123.1,234.6 124.2,234.8 125.3,234.2 126.4,233.5 127.5,233.0 128.6,232.3 129.7,232.4 130.8,231.8 131.9,233.3 133.0,233.9 134.1,233.0 135.2,233.0 136.2,250.2 137.3,250.5 138.4,250.0 139.5,229.1 140.6,227.9 141.7,227.1 142.8,227.2 143.9,227.3 145.0,238.6 146.1,237.9 147.2,238.6 148.3,237.2 149.4,232.6 150.5,232.8 151.6,232.2 152.7,232.7 153.8,241.2 154.8,240.8 155.9,241.0 157.0,240.3 158.1,239.4 159.2,239.2 160.3,239.6 161.4,237.3 162.5,233.0 163.6,232.7 164.7,231.9 165.8,231.8 166.9,232.4 168.0,231.8 169.1,231.2 170.2,240.7 171.3,240.2 172.4,240.5 173.4,241.5 174.5,240.6 175.6,251.2 176.7,251.3 177.8,252.0 178.9,251.3 180.0,245.3 181.1,245.6 182.2,245.5 183.3,246.1 184.4,255.6 185.5,255.9 186.6,255.9 187.7,256.2 188.8,258.8 189.9,259.5 191.0,260.0 192.0,254.4 193.1,254.3 194.2,254.5 195.3,253.7 196.4,248.8 197.5,248.6 198.6,248.1 199.7,248.0 200.8,256.4 201.9,256.6 203.0,256.4 204.1,257.2 205.2,257.8 206.3,250.9 207.4,251.3 208.5,251.7 209.6,255.9 210.6,255.8 211.7,256.5 212.8,256.6 213.9,257.2 215.0,256.9 216.1,256.9 217.2,256.3 218.3,253.7 219.4,253.6 220.5,253.4 221.6,253.6 222.7,253.4 223.8,248.4 224.9,248.0 226.0,248.0 227.1,247.5 228.2,242.2 229.2,242.1 230.3,242.2 231.4,244.7 232.5,245.3 233.6,245.5 234.7,245.3 235.8,245.2 236.9,250.1 238.0,250.8 239.1,251.5 240.2,251.8 241.3,254.0 242.4,253.7 243.5,253.5 244.6,253.2 245.7,240.8 246.8,241.0 247.8,242.1 248.9,242.4 250.0,252.3 251.1,253.0 252.2,254.1 253.3,253.4 254.4,252.3 255.5,252.7 256.6,253.1 257.7,252.4 258.8,252.7 259.9,252.8 261.0,254.7 262.1,254.7 263.2,256.5 264.3,257.0 265.4,256.1 266.4,257.1 267.5,256.2 268.6,256.9 269.7,257.0 270.8,258.0 271.9,258.6 273.0,258.6 274.1,259.3 275.2,259.7 276.3,245.3 277.4,245.8 278.5,245.7 279.6,252.3 280.7,252.4 281.8,251.5 282.9,251.6 284.0,264.8 285.0,265.2 286.1,264.7 287.2,265.7 288.3,265.4 289.4,263.8 290.5,264.0 291.6,264.8 292.7,248.0 293.8,247.9 294.9,247.8 296.0,248.1 297.1,248.9 298.2,237.8 299.3,237.3 300.4,237.8 301.5,236.9 302.6,244.8 303.6,244.8 304.7,244.9 305.8,244.2 306.9,245.0 308.0,244.5 309.1,244.7 310.2,249.8 311.3,249.9 312.4,249.0 313.5,249.3 314.6,259.2 315.7,259.5 316.8,259.5 317.9,259.4 319.0,245.6 320.1,245.5 321.2,245.8 322.2,245.6 323.3,268.4 324.4,268.9 325.5,269.2 326.6,269.6 327.7,262.6 328.8,262.0 329.9,262.6 331.0,262.0 332.1,245.8 333.2,245.5 334.3,246.6 335.4,245.9 336.5,244.9 337.6,252.3 338.7,252.1 339.8,252.0 340.8,245.5 341.9,244.1 343.0,243.8 344.1,243.2 345.2,242.6 346.3,243.5 347.4,243.6 348.5,243.0 349.6,255.2 350.7,255.0 351.8,254.8 352.9,254.3 354.0,245.1 355.1,244.4 356.2,244.6 357.3,244.6 358.4,257.2 359.4,257.1 360.5,257.6 361.6,257.2 362.7,257.6 363.8,254.6 364.9,254.6 366.0,255.2 367.1,254.2 368.2,253.8 369.3,254.1 370.4,253.5 371.5,242.1 372.6,241.8 373.7,242.1 374.8,242.7 375.9,234.8 377.0,235.5 378.0,235.8 379.1,235.4 380.2,235.6 381.3,241.1 382.4,240.6 383.5,240.8 384.6,241.0 385.7,237.2 386.8,237.1 387.9,236.5 389.0,236.1 390.1,249.6 391.2,250.1 392.3,250.5 393.4,241.5 394.5,242.0 395.6,241.9 396.6,241.0 397.7,240.6 398.8,242.9 399.9,242.7 401.0,242.9 402.1,246.2 403.2,246.4 404.3,247.0 405.4,247.2 406.5,246.9 407.6,259.4 408.7,259.7 409.8,259.4 410.9,252.5 412.0,252.6 413.1,252.4 414.2,252.2 415.2,251.6 416.3,251.4 417.4,251.4 418.5,252.3 419.6,256.9 420.7,257.2 421.8,256.8 422.9,257.5 424.0,261.9 425.1,261.9 426.2,261.8 427.3,262.1 428.4,256.3 429.5,256.1 430.6,257.5 431.7,256.8 432.8,246.3 433.8,246.2 434.9,245.6 436.0,246.0 437.1,254.6 438.2,254.8 439.3,255.3 440.4,255.8 441.5,255.3 442.6,262.9 443.7,263.7 444.8,264.8 445.9,238.9 447.0,238.7 448.1,238.4 449.2,238.1 450.3,231.5 451.4,231.2 452.4,231.5 453.5,230.9 454.6,241.5 455.7,241.0 456.8,240.5 457.9,240.6 459.0,239.1 460.1,238.7 461.2,239.0 462.3,239.0 463.4,239.1 464.5,243.7 465.6,243.6 466.7,243.9 467.8,244.5 468.9,237.6 470.0,237.4 471.0,238.1 472.1,238.2 473.2,237.6 474.3,237.2 475.4,237.2 476.5,250.7 477.6,251.2 478.7,251.4 479.8,251.7 480.9,260.7 482.0,260.7 483.1,261.3 484.2,261.6 485.3,259.0 486.4,259.3 487.5,259.5 488.6,259.0 489.6,259.4 490.7,266.1 491.8,265.7 492.9,265.5 494.0,253.9 495.1,253.8 496.2,253.5 497.3,253.4 498.4,257.1 499.5,257.0 500.6,256.7 501.7,257.0 502.8,256.3 503.9,255.9 505.0,256.2 506.1,256.2 507.2,256.4 508.2,248.1 509.3,247.4 510.4,247.6 511.5,249.4 512.6,249.3 513.7,249.0 514.8,248.2 515.9,240.8 517.0,241.1 518.1,241.2 519.2,241.1 520.3,241.5 521.4,247.5 522.5,246.6 523.6,247.0 524.7,248.1 525.8,247.3 526.8,247.6 527.9,247.8 529.0,250.7 530.1,250.7 531.2,251.5 532.3,251.4 533.4,261.3 534.5,261.2 535.6,260.6 536.7,261.3 537.8,261.0 538.9,254.8 540.0,254.1 541.1,254.1 542.2,252.5 543.3,249.6 544.4,249.7 545.4,250.1 546.5,242.5 547.6,243.6 548.7,243.5 549.8,243.5 550.9,246.8 552.0,235.4 553.1,234.7 554.2,235.3 555.3,236.4 556.4,236.8 557.5,237.1 558.6,237.1 559.7,234.5 560.8,235.5 561.9,235.5 563.0,233.8 564.0,237.1 565.1,237.1 566.2,236.7 567.3,237.1 568.4,236.2 569.5,242.9 570.6,242.6 571.7,243.4 572.8,243.2 573.9,248.8 575.0,249.3 576.1,249.6 577.2,249.2 578.3,249.8 579.4,250.0 580.5,249.4 581.6,249.5 582.6,258.7 583.7,258.5 584.8,258.7 585.9,258.9 587.0,254.6 588.1,254.4 589.2,253.9 590.3,254.2 591.4,248.3 592.5,248.6 593.6,247.9 594.7,248.4 595.8,248.6 596.9,248.6 598.0,249.1 599.1,248.6 600.2,249.4 601.2,248.5 602.3,249.1 603.4,248.4 604.5,251.3 605.6,251.4 606.7,251.9 607.8,252.3 608.9,252.6 610.0,252.2 611.1,251.8 612.2,252.6 613.3,255.2 614.4,255.5 615.5,256.6 616.6,257.3 617.7,257.0 618.8,256.6 619.8,255.8 620.9,255.3 622.0,255.0 623.1,254.8 624.2,254.1 625.3,254.4 626.4,254.2 627.5,253.3 628.6,253.4 629.7,253.7 630.8,254.8 631.9,255.5 633.0,255.3 634.1,255.5 635.2,254.5 636.3,254.5 637.4,253.7 638.4,248.8 639.5,249.7 640.6,249.7 641.7,249.2 642.8,252.2 643.9,252.0 645.0,252.3 646.1,251.5 647.2,248.3 648.3,249.4 649.4,249.8 650.5,249.8 651.6,245.7 652.7,244.7 653.8,243.6 654.9,244.7 656.0,245.2 657.0,241.5 658.1,241.3 659.2,241.1 660.3,240.4 661.4,244.2 662.5,244.7 663.6,244.9 664.7,252.3 665.8,252.7 666.9,251.9 668.0,251.8 669.1,247.7 670.2,245.3 671.3,244.4 672.4,244.5 673.5,241.1 674.6,240.5 675.6,240.4 676.7,240.5 677.8,239.7 678.9,240.5 680.0,241.7 681.1,241.2 682.2,240.3 683.3,246.0 684.4,245.9 685.5,245.8 686.6,244.7 687.7,244.3 688.8,243.9 689.9,245.1 691.0,245.6 692.1,236.8 693.2,236.9 694.2,237.1 695.3,243.1 696.4,243.2 697.5,242.9 698.6,243.2 699.7,244.5 700.8,244.1 701.9,244.9 703.0,245.3 704.1,245.7 705.2,243.8 706.3,243.5 707.4,243.5 708.5,254.2 709.6,254.3 710.7,254.4 711.8,253.8 712.8,246.1 713.9,246.0 715.0,246.0 716.1,245.9 717.2,246.1 718.3,251.0 719.4,251.4 720.5,251.7 721.6,251.7 722.7,249.3 723.8,249.6 724.9,249.7 726.0,257.0 727.1,256.8 728.2,257.1 729.3,256.8 730.4,252.7 731.4,252.1 732.5,252.1 733.6,251.4 734.7,249.9 735.8,250.0 736.9,249.4 738.0,249.6 739.1,250.1 740.2,254.2 741.3,255.0 742.4,254.1 743.5,254.1 744.6,244.2 745.7,243.6 746.8,243.3 747.9,263.7 749.0,263.8 750.0,264.0 751.1,264.4 752.2,263.9 753.3,261.1 754.4,261.3 755.5,261.5 756.6,269.0 757.7,268.7 758.8,267.9 759.9,267.8 761.0,267.1 762.1,274.0 763.2,273.8 764.3,273.2 765.4,255.3 766.5,255.9 767.6,256.3 768.6,256.3 769.7,256.4 770.8,248.1 771.9,248.0 773.0,247.5 774.1,244.3 775.2,243.8 776.3,243.6 777.4,243.4 778.5,258.6 779.6,258.4 780.7,258.4 781.8,258.5 782.9,245.6 784.0,246.4 785.1,245.9 786.2,245.7 787.2,233.3 788.3,233.4 789.4,234.1 790.5,233.5 791.6,234.3 792.7,247.3 793.8,246.8 794.9,246.1 796.0,245.3"/>
<text x="640" y="56" font-family="Arial" font-size="12" fill="#0f766e">adaptive_dropout_robust velocity error</text>
</svg>