<svg xmlns="http://www.w3.org/2000/svg" width="820" height="320" viewBox="0 0 820 320">
<rect width="100%" height="100%" fill="white"/>
<text x="52" y="30" font-family="Arial" font-size="18" font-weight="700">robust_dropout_robust velocity error</text>
<line x1="52" y1="274" x2="796" y2="274" stroke="#263238"/>
<line x1="52" y1="42" x2="52" y2="274" stroke="#263238"/>
<text x="52" y="306" font-family="Arial" font-size="12">time (s)</text>
<text x="630" y="306" font-family="Arial" font-size="12">m/s</text>

<rect x="314.6" y="42" width="153.2" height="232" fill="#fef3c7" opacity="0.72"/>
<polyline fill="none" stroke="#0f766e" stroke-width="2.3" points="52.0,175.3 53.1,174.4 54.2,173.4 55.3,172.5 56.4,171.7 57.5,170.6 58.6,170.5 59.7,170.2 60.8,169.7 61.8,169.2 62.9,42.2 64.0,42.0 65.1,42.2 66.2,233.3 67.3,231.9 68.4,231.8 69.5,231.7 70.6,231.2 71.7,230.4 72.8,229.8 73.9,225.7 75.0,247.8 76.1,248.7 77.2,246.9 78.3,259.0 79.4,259.8 80.4,260.9 81.5,261.5 82.6,261.6 83.7,265.4 84.8,266.2 85.9,266.7 87.0,262.0 88.1,262.2 89.2,261.9 90.3,262.1 91.4,261.3 92.5,228.1 93.6,226.0 94.7,223.5 95.8,241.9 96.9,240.8 98.0,239.4 99.0,238.7 100.1,243.0 101.2,242.6 102.3,242.6 103.4,241.9 104.5,241.5 105.6,245.8 106.7,245.4 107.8,245.3 108.9,251.7 110.0,250.8 111.1,250.5 112.2,250.3 113.3,249.1 114.4,237.3 115.5,236.9 116.6,235.7 117.6,234.8 118.7,230.1 119.8,229.4 120.9,227.8 122.0,237.3 123.1,237.6 124.2,237.7 125.3,237.0 126.4,236.3 127.5,235.7 128.6,235.0 129.7,235.0 130.8,234.3 131.9,235.8 133.0,236.3 134.1,235.3 135.2,235.2 136.2,251.2 137.3,251.4 138.4,250.8 139.5,233.7 140.6,232.7 141.7,232.0 142.8,232.0 143.9,232.2 145.0,241.1 146.1,240.3 147.2,241.0 148.3,239.8 149.4,236.4 150.5,236.5 151.6,236.0 152.7,236.5 153.8,243.5 154.8,243.1 155.9,243.3 157.0,242.7 158.1,242.3 159.2,242.2 160.3,242.5 161.4,240.4 162.5,236.6 163.6,236.3 164.7,235.5 165.8,235.5 166.9,235.7 168.0,235.0 169.1,234.4 170.2,242.5 171.3,242.0 172.4,242.2 173.4,243.2 174.5,242.3 175.6,251.6 176.7,251.6 177.8,252.3 178.9,251.5 180.0,247.3 181.1,247.6 182.2,247.4 183.3,248.1 184.4,256.6 185.5,256.9 186.6,256.8 187.7,257.1 188.8,259.9 189.9,260.6 191.0,261.1 192.0,257.3 193.1,257.2 194.2,257.5 195.3,256.7 196.4,252.9 197.5,252.7 198.6,252.1 199.7,252.1 200.8,258.8 201.9,259.0 203.0,258.8 204.1,259.5 205.2,260.1 206.3,255.1 207.4,255.5 208.5,255.8 209.6,258.8 210.6,258.6 211.7,259.3 212.8,259.4 213.9,260.1 215.0,260.9 216.1,260.8 217.2,260.3 218.3,257.7 219.4,257.6 220.5,257.5 221.6,257.7 222.7,257.5 223.8,253.3 224.9,252.9 226.0,252.9 227.1,252.4 228.2,248.0 229.2,247.9 230.3,248.0 231.4,249.7 232.5,250.3 233.6,250.5 234.7,250.3 235.8,250.1 236.9,254.0 238.0,254.8 239.1,255.5 240.2,255.9 241.3,257.6 242.4,257.3 243.5,257.1 244.6,256.8 245.7,248.6 246.8,248.8 247.8,249.9 248.9,250.1 250.0,255.3 251.1,256.1 252.2,257.1 253.3,256.4 254.4,255.8 255.5,256.2 256.6,256.7 257.7,257.2 258.8,257.5 259.9,257.6 261.0,258.9 262.1,259.0 263.2,259.8 264.3,260.2 265.4,259.3 266.4,260.3 267.5,259.3 268.6,259.9 269.7,259.9 270.8,260.7 271.9,261.2 273.0,261.3 274.1,262.0 275.2,262.4 276.3,253.6 277.4,254.1 278.5,254.0 279.6,257.5 280.7,257.6 281.8,256.6 282.9,256.7 284.0,266.1 285.0,266.3 286.1,265.8 287.2,266.7 288.3,266.5 289.4,266.4 290.5,266.6 291.6,267.4 292.7,256.0 293.8,255.9 294.9,255.7 296.0,256.0 297.1,256.8 298.2,248.7 299.3,248.2 300.4,248.6 301.5,247.8 302.6,251.8 303.6,251.9 304.7,251.7 305.8,250.3 306.9,251.2 308.0,250.7 309.1,251.0 310.2,253.7 311.3,253.8 312.4,252.9 313.5,253.3 314.6,260.6 315.7,261.1 316.8,260.8 317.9,260.8 319.0,251.9 320.1,251.8 321.2,252.2 322.2,252.0 323.3,266.6 324.4,267.2 325.5,267.6 326.6,268.0 327.7,264.4 328.8,263.7 329.9,264.3 331.0,263.7 332.1,253.4 333.2,253.1 334.3,254.0 335.4,253.4 336.5,252.8 337.6,256.5 338.7,256.3 339.8,256.3 340.8,252.1 341.9,251.1 343.0,250.9 344.1,250.3 345.2,249.7 346.3,249.2 347.4,249.3 348.5,248.7 349.6,258.7 350.7,258.4 351.8,258.2 352.9,257.6 354.0,248.6 355.1,247.8 356.2,248.1 357.3,248.0 358.4,260.0 359.4,259.8 360.5,260.4 361.6,260.0 362.7,260.3 363.8,257.7 364.9,257.8 366.0,258.4 367.1,257.6 368.2,257.3 369.3,257.5 370.4,257.0 371.5,247.9 372.6,247.6 373.7,247.9 374.8,248.5 375.9,242.4 377.0,243.2 378.0,243.6 379.1,243.1 380.2,243.4 381.3,246.3 382.4,245.9 383.5,246.1 384.6,246.3 385.7,243.3 386.8,243.5 387.9,243.0 389.0,242.7 390.1,252.1 391.2,252.7 392.3,253.0 393.4,246.8 394.5,247.5 395.6,247.4 396.6,246.5 397.7,246.2 398.8,247.2 399.9,247.0 401.0,247.2 402.1,249.5 403.2,249.8 404.3,250.4 405.4,250.6 406.5,250.3 407.6,260.7 408.7,260.9 409.8,260.6 410.9,256.1 412.0,256.1 413.1,255.9 414.2,255.5 415.2,255.6 416.3,255.6 417.4,255.5 418.5,256.2 419.6,260.1 420.7,260.5 421.8,260.1 422.9,260.7 424.0,264.0 425.1,264.0 426.2,263.9 427.3,264.3 428.4,261.0 429.5,260.8 430.6,262.2 431.7,261.5 432.8,252.9 433.8,252.9 434.9,252.3 436.0,252.7 437.1,258.7 438.2,258.9 439.3,259.5 440.4,260.0 441.5,259.6 442.6,265.5 443.7,266.3 444.8,267.4 445.9,247.0 447.0,246.8 448.1,246.5 449.2,246.2 450.3,240.0 451.4,239.8 452.4,240.2 453.5,239.6 454.6,246.7 455.7,246.2 456.8,245.7 457.9,245.8 459.0,244.3 460.1,244.5 461.2,244.7 462.3,244.8 463.4,244.9 464.5,247.4 465.6,247.3 466.7,247.6 467.8,248.2 468.9,242.7 470.0,242.4 471.0,243.1 472.1,243.3 473.2,242.3 474.3,241.9 475.4,242.0 476.5,252.0 477.6,252.4 478.7,252.6 479.8,252.7 480.9,259.0 482.0,259.1 483.1,259.7 484.2,259.8 485.3,259.8 486.4,260.2 487.5,260.5 488.6,259.7 489.6,260.3 490.7,265.3 491.8,264.9 492.9,264.7 494.0,258.0 495.1,257.9 496.2,257.5 497.3,257.4 498.4,259.4 499.5,259.3 500.6,258.9 501.7,259.1 502.8,259.5 503.9,259.2 505.0,259.4 506.1,259.3 507.2,259.6 508.2,254.7 509.3,254.0 510.4,254.3 511.5,254.2 512.6,254.2 513.7,253.9 514.8,253.2 515.9,247.8 517.0,248.0 518.1,248.0 519.2,248.0 520.3,248.5 521.4,253.1 522.5,252.6 523.6,252.9 524.7,253.5 525.8,252.7 526.8,253.0 527.9,253.2 529.0,256.2 530.1,256.4 531.2,257.0 532.3,257.1 533.4,262.7 534.5,262.4 535.6,261.8 536.7,262.3 537.8,261.9 538.9,262.1 540.0,261.7 541.1,261.7 542.2,260.1 543.3,256.2 544.4,256.3 545.4,256.5 546.5,251.0 547.6,252.0 548.7,252.0 549.8,252.2 550.9,254.9 552.0,245.9 553.1,245.2 554.2,245.9 555.3,245.3 556.4,245.7 557.5,246.1 558.6,246.1 559.7,242.9 560.8,244.0 561.9,243.9 563.0,242.1 564.0,243.7 565.1,243.7 566.2,243.2 567.3,243.6 568.4,242.8 569.5,247.8 570.6,247.6 571.7,248.5 572.8,248.3 573.9,252.7 575.0,253.3 576.1,253.6 577.2,253.5 578.3,254.2 579.4,254.3 580.5,253.9 581.6,254.0 582.6,263.1 583.7,262.9 584.8,263.1 585.9,263.2 587.0,257.6 588.1,257.3 589.2,256.8 590.3,257.0 591.4,249.6 592.5,249.8 593.6,249.2 594.7,249.7 595.8,250.2 596.9,250.4 598.0,250.9 599.1,250.5 600.2,251.2 601.2,250.4 602.3,250.9 603.4,250.3 604.5,254.1 605.6,254.1 606.7,254.5 607.8,253.7 608.9,253.8 610.0,253.8 611.1,253.1 612.2,254.1 613.3,257.1 614.4,257.5 615.5,259.6 616.6,260.9 617.7,260.4 618.8,260.0 619.8,259.4 620.9,258.7 622.0,257.6 623.1,257.5 624.2,256.5 625.3,256.6 626.4,250.1 627.5,249.5 628.6,249.3 629.7,249.8 630.8,252.8 631.9,254.0 633.0,253.3 634.1,253.2 635.2,253.5 636.3,253.6 637.4,252.7 638.4,246.9 639.5,247.7 640.6,247.8 641.7,247.5 642.8,255.3 643.9,254.9 645.0,255.1 646.1,254.5 647.2,250.6 648.3,252.0 649.4,252.4 650.5,252.4 651.6,245.4 652.7,244.4 653.8,243.2 654.9,244.2 656.0,244.8 657.0,240.0 658.1,239.8 659.2,239.5 660.3,238.8 661.4,245.2 662.5,245.6 663.6,245.8 664.7,256.4 665.8,256.7 666.9,255.9 668.0,255.8 669.1,251.0 670.2,248.9 671.3,248.0 672.4,248.2 673.5,244.6 674.6,244.0 675.6,243.7 676.7,243.8 677.8,243.0 678.9,243.7 680.0,244.8 681.1,244.3 682.2,243.3 683.3,248.9 684.4,248.8 685.5,248.7 686.6,247.8 687.7,247.3 688.8,247.0 689.9,248.2 691.0,248.7 692.1,240.8 693.2,240.8 694.2,241.0 695.3,246.2 696.4,246.3 697.5,246.1 698.6,246.4 699.7,247.6 700.8,247.1 701.9,247.9 703.0,248.3 704.1,248.7 705.2,247.3 706.3,246.9 707.4,247.0 708.5,255.3 709.6,255.4 710.7,255.5 711.8,254.8 712.8,250.2 713.9,250.2 715.0,250.4 716.1,250.3 717.2,250.5 718.3,253.7 719.4,254.1 720.5,254.6 721.6,254.6 722.7,253.2 723.8,253.4 724.9,253.8 726.0,259.4 727.1,259.2 728.2,259.6 729.3,259.3 730.4,256.9 731.4,256.4 732.5,256.3 733.6,255.9 734.7,254.3 735.8,254.5 736.9,253.8 738.0,254.0 739.1,254.5 740.2,257.8 741.3,258.6 742.4,257.8 743.5,257.9 744.6,250.4 745.7,249.8 746.8,249.5 747.9,263.7 749.0,263.7 750.0,264.0 751.1,264.4 752.2,264.0 753.3,262.9 754.4,263.0 755.5,263.2 756.6,269.8 757.7,269.6 758.8,268.9 759.9,268.8 761.0,268.3 762.1,274.0 763.2,273.8 764.3,273.5 765.4,264.8 766.5,265.3 767.6,265.8 768.6,265.7 769.7,265.8 770.8,257.3 771.9,257.2 773.0,256.6 774.1,252.7 775.2,252.2 776.3,252.0 777.4,251.9 778.5,262.8 779.6,262.7 780.7,263.0 781.8,262.8 782.9,254.4 784.0,255.2 785.1,254.9 786.2,254.8 787.2,244.9 788.3,245.0 789.4,245.8 790.5,245.1 791.6,246.0 792.7,252.9 793.8,252.4 794.9,251.7 796.0,250.7"/>
<text x="640" y="56" font-family="Arial" font-size="12" fill="#0f766e">robust_dropout_robust velocity error</text>
</svg>