<svg xmlns="http://www.w3.org/2000/svg" width="820" height="320" viewBox="0 0 820 320">
<rect width="100%" height="100%" fill="white"/>
<text x="52" y="30" font-family="Arial" font-size="18" font-weight="700">abg_nominal altitude</text>
<line x1="52" y1="274" x2="796" y2="274" stroke="#263238"/>
<line x1="52" y1="42" x2="52" y2="274" stroke="#263238"/>
<text x="52" y="306" font-family="Arial" font-size="12">time (s)</text>
<text x="630" y="306" font-family="Arial" font-size="12">m</text>

<rect x="998.9" y="42" width="270.5" height="232" fill="#fef3c7" opacity="0.72"/>
<polyline fill="none" stroke="#0f766e" stroke-width="2.3" points="52.0,163.7 55.4,163.7 58.8,163.7 62.1,163.7 65.5,163.7 68.9,163.7 72.3,163.7 75.7,163.7 79.1,163.7 82.4,163.7 85.8,163.7 89.2,163.7 92.6,163.7 96.0,163.7 99.3,163.7 102.7,163.7 106.1,163.7 109.5,163.7 112.9,163.7 116.3,163.7 119.6,163.7 123.0,163.7 126.4,163.7 129.8,163.7 133.2,163.7 136.5,163.7 139.9,163.7 143.3,163.7 146.7,163.7 150.1,163.7 153.5,163.7 156.8,163.7 160.2,163.7 163.6,163.7 167.0,163.7 170.4,163.7 173.7,163.7 177.1,163.7 180.5,163.7 183.9,163.7 187.3,163.7 190.7,163.7 194.0,163.7 197.4,163.7 200.8,163.7 204.2,163.7 207.6,163.7 210.9,163.7 214.3,163.7 217.7,163.7 221.1,163.7 224.5,163.7 227.9,163.7 231.2,163.7 234.6,163.7 238.0,163.7 241.4,163.7 244.8,163.7 248.1,163.7 251.5,163.7 254.9,163.7 258.3,163.7 261.7,163.7 265.1,163.7 268.4,163.7 271.8,163.7 275.2,163.7 278.6,163.7 282.0,163.7 285.3,163.7 288.7,163.7 292.1,163.7 295.5,163.7 298.9,163.7 302.3,163.7 305.6,163.7 309.0,163.7 312.4,163.7 315.8,163.7 319.2,163.7 322.5,163.7 325.9,163.7 329.3,163.7 332.7,163.7 336.1,163.7 339.5,163.7 342.8,163.7 346.2,163.7 349.6,163.7 353.0,163.7 356.4,163.7 359.7,163.7 363.1,163.7 366.5,163.7 369.9,163.7 373.3,163.7 376.7,163.7 380.0,163.7 383.4,163.7 386.8,163.7 390.2,163.7 393.6,163.7 396.9,163.7 400.3,163.7 403.7,163.7 407.1,163.7 410.5,163.7 413.9,163.7 417.2,163.7 420.6,163.7 424.0,163.7 427.4,163.7 430.8,163.7 434.1,163.7 437.5,163.7 440.9,163.7 444.3,163.7 447.7,163.7 451.1,163.7 454.4,163.7 457.8,163.7 461.2,163.7 464.6,163.7 468.0,163.7 471.3,163.7 474.7,163.7 478.1,163.7 481.5,163.7 484.9,163.7 488.3,163.7 491.6,163.7 495.0,163.7 498.4,163.7 501.8,163.7 505.2,163.7 508.5,163.7 511.9,163.7 515.3,163.7 518.7,163.7 522.1,163.7 525.5,163.7 528.8,163.7 532.2,163.7 535.6,163.7 539.0,163.7 542.4,163.7 545.7,163.7 549.1,163.7 552.5,163.7 555.9,163.7 559.3,163.7 562.7,163.7 566.0,163.7 569.4,163.7 572.8,163.7 576.2,163.7 579.6,163.7 582.9,163.7 586.3,163.7 589.7,163.7 593.1,163.7 596.5,163.7 599.9,163.7 603.2,163.7 606.6,163.7 610.0,163.7 613.4,163.7 616.8,163.7 620.1,163.7 623.5,163.7 626.9,163.7 630.3,163.7 633.7,163.7 637.1,163.7 640.4,163.7 643.8,163.7 647.2,163.7 650.6,163.7 654.0,163.7 657.3,163.7 660.7,163.7 664.1,163.7 667.5,163.7 670.9,163.7 674.3,163.7 677.6,163.7 681.0,163.7 684.4,163.7 687.8,163.7 691.2,163.7 694.5,163.7 697.9,163.7 701.3,163.7 704.7,163.7 708.1,163.7 711.5,163.7 714.8,163.7 718.2,163.7 721.6,163.7 725.0,163.7 728.4,163.7 731.7,163.7 735.1,163.7 738.5,163.7 741.9,163.7 745.3,163.7 748.7,163.7 752.0,163.7 755.4,163.7 758.8,163.7 762.2,163.7 765.6,163.7 768.9,163.7 772.3,163.7 775.7,163.7 779.1,163.7 782.5,163.7 785.9,163.7 789.2,163.7 792.6,163.7 796.0,163.7"/>
<text x="640" y="56" font-family="Arial" font-size="12" fill="#0f766e">truth</text>
<polyline fill="none" stroke="#2563eb" stroke-width="2.3" points="52.0,166.4 55.4,168.0 58.8,169.6 62.1,171.2 65.5,172.9 68.9,114.4 72.3,112.9 75.7,111.2 79.1,109.3 82.4,107.3 85.8,126.0 89.2,125.8 92.6,125.5 96.0,125.0 99.3,124.5 102.7,145.9 106.1,145.9 109.5,145.9 112.9,145.8 116.3,145.8 119.6,115.6 123.0,114.9 126.4,114.1 129.8,113.2 133.2,112.1 136.5,106.3 139.9,105.6 143.3,104.8 146.7,103.8 150.1,102.6 153.5,52.7 156.8,50.5 160.2,48.0 163.6,45.2 167.0,42.0 170.4,138.8 173.7,141.0 177.1,143.4 180.5,145.7 183.9,148.1 187.3,225.5 190.7,229.9 194.0,234.7 197.4,239.8 200.8,245.2 204.2,134.6 207.6,134.3 210.9,134.0 214.3,133.4 217.7,132.8 221.1,133.3 224.5,133.2 227.9,132.9 231.2,132.6 234.6,132.1 238.0,166.7 241.4,167.8 244.8,169.0 248.1,170.2 251.5,171.4 254.9,135.6 258.3,135.2 261.7,134.6 265.1,133.9 268.4,133.2 271.8,138.4 275.2,138.3 278.6,138.2 282.0,137.9 285.3,137.5 288.7,165.4 292.1,165.6 295.5,165.9 298.9,166.1 302.3,166.4 305.6,178.7 309.0,179.1 312.4,179.5 315.8,180.0 319.2,180.6 322.5,137.9 325.9,136.7 329.3,135.3 332.7,133.8 336.1,132.2 339.5,140.2 342.8,139.7 346.2,139.2 349.6,138.6 353.0,137.9 356.4,108.9 359.7,108.0 363.1,106.9 366.5,105.6 369.9,104.1 373.3,137.5 376.7,137.5 380.0,137.5 383.4,137.4 386.8,137.2 390.2,159.1 393.6,159.8 396.9,160.5 400.3,161.3 403.7,162.1 407.1,74.3 410.5,71.4 413.9,68.3 417.2,64.9 420.6,61.2 424.0,83.5 427.4,82.1 430.8,80.5 434.1,78.7 437.5,76.8 440.9,109.2 444.3,109.4 447.7,109.6 451.1,109.7 454.4,109.7 457.8,143.7 461.2,145.1 464.6,146.6 468.0,148.2 471.3,149.8 474.7,168.5 478.1,170.7 481.5,173.0 484.9,175.5 488.3,178.0 491.6,173.4 495.0,175.0 498.4,176.7 501.8,178.4 505.2,180.3 508.5,140.5 511.9,139.5 515.3,138.5 518.7,137.5 522.1,136.3 525.5,116.2 528.8,114.5 532.2,112.7 535.6,110.8 539.0,108.7 542.4,160.0 545.7,160.6 549.1,161.2 552.5,161.9 555.9,162.6 559.3,100.5 562.7,98.7 566.0,96.7 569.4,94.6 572.8,92.2 576.2,99.7 579.6,99.1 582.9,98.3 586.3,97.3 589.7,96.3 593.1,158.9 596.5,160.7 599.9,162.6 603.2,164.6 606.6,166.8 610.0,188.6 613.4,190.6 616.8,192.9 620.1,195.3 623.5,197.9 626.9,188.0 630.3,190.6 633.7,193.3 637.1,196.1 640.4,199.0 643.8,193.4 647.2,194.1 650.6,194.8 654.0,195.7 657.3,196.6 660.7,262.7 664.1,265.0 667.5,267.7 670.9,270.7 674.3,274.0 677.6,168.5 681.0,166.2 684.4,163.8 687.8,161.4 691.2,158.9 694.5,150.9 697.9,149.5 701.3,147.9 704.7,146.3 708.1,144.6 711.5,112.6 714.8,111.5 718.2,110.1 721.6,108.6 725.0,106.9 728.4,186.4 731.7,188.5 735.1,190.7 738.5,193.1 741.9,195.5 745.3,147.8 748.7,147.3 752.0,146.7 755.4,146.0 758.8,145.3 762.2,124.8 765.6,123.9 768.9,122.9 772.3,121.8 775.7,120.5 779.1,157.5 782.5,158.4 785.9,159.3 789.2,160.3 792.6,161.2 796.0,144.0"/>
<text x="640" y="72" font-family="Arial" font-size="12" fill="#2563eb">estimate</text>
</svg>