<svg xmlns="http://www.w3.org/2000/svg" width="820" height="320" viewBox="0 0 820 320">
<rect width="100%" height="100%" fill="white"/>
<text x="52" y="30" font-family="Arial" font-size="18" font-weight="700">linear_nominal altitude</text>
<line x1="52" y1="274" x2="796" y2="274" stroke="#263238"/>
<line x1="52" y1="42" x2="52" y2="274" stroke="#263238"/>
<text x="52" y="306" font-family="Arial" font-size="12">time (s)</text>
<text x="630" y="306" font-family="Arial" font-size="12">m</text>

<rect x="998.9" y="42" width="270.5" height="232" fill="#fef3c7" opacity="0.72"/>
<polyline fill="none" stroke="#0f766e" stroke-width="2.3" points="52.0,143.7 55.4,143.7 58.8,143.7 62.1,143.7 65.5,143.7 68.9,143.7 72.3,143.7 75.7,143.7 79.1,143.7 82.4,143.7 85.8,143.7 89.2,143.7 92.6,143.7 96.0,143.7 99.3,143.7 102.7,143.7 106.1,143.7 109.5,143.7 112.9,143.7 116.3,143.7 119.6,143.7 123.0,143.7 126.4,143.7 129.8,143.7 133.2,143.7 136.5,143.7 139.9,143.7 143.3,143.7 146.7,143.7 150.1,143.7 153.5,143.7 156.8,143.7 160.2,143.7 163.6,143.7 167.0,143.7 170.4,143.7 173.7,143.7 177.1,143.7 180.5,143.7 183.9,143.7 187.3,143.7 190.7,143.7 194.0,143.7 197.4,143.7 200.8,143.7 204.2,143.7 207.6,143.7 210.9,143.7 214.3,143.7 217.7,143.7 221.1,143.7 224.5,143.7 227.9,143.7 231.2,143.7 234.6,143.7 238.0,143.7 241.4,143.7 244.8,143.7 248.1,143.7 251.5,143.7 254.9,143.7 258.3,143.7 261.7,143.7 265.1,143.7 268.4,143.7 271.8,143.7 275.2,143.7 278.6,143.7 282.0,143.7 285.3,143.7 288.7,143.7 292.1,143.7 295.5,143.7 298.9,143.7 302.3,143.7 305.6,143.7 309.0,143.7 312.4,143.7 315.8,143.7 319.2,143.7 322.5,143.7 325.9,143.7 329.3,143.7 332.7,143.7 336.1,143.7 339.5,143.7 342.8,143.7 346.2,143.7 349.6,143.7 353.0,143.7 356.4,143.7 359.7,143.7 363.1,143.7 366.5,143.7 369.9,143.7 373.3,143.7 376.7,143.7 380.0,143.7 383.4,143.7 386.8,143.7 390.2,143.7 393.6,143.7 396.9,143.7 400.3,143.7 403.7,143.7 407.1,143.7 410.5,143.7 413.9,143.7 417.2,143.7 420.6,143.7 424.0,143.7 427.4,143.7 430.8,143.7 434.1,143.7 437.5,143.7 440.9,143.7 444.3,143.7 447.7,143.7 451.1,143.7 454.4,143.7 457.8,143.7 461.2,143.7 464.6,143.7 468.0,143.7 471.3,143.7 474.7,143.7 478.1,143.7 481.5,143.7 484.9,143.7 488.3,143.7 491.6,143.7 495.0,143.7 498.4,143.7 501.8,143.7 505.2,143.7 508.5,143.7 511.9,143.7 515.3,143.7 518.7,143.7 522.1,143.7 525.5,143.7 528.8,143.7 532.2,143.7 535.6,143.7 539.0,143.7 542.4,143.7 545.7,143.7 549.1,143.7 552.5,143.7 555.9,143.7 559.3,143.7 562.7,143.7 566.0,143.7 569.4,143.7 572.8,143.7 576.2,143.7 579.6,143.7 582.9,143.7 586.3,143.7 589.7,143.7 593.1,143.7 596.5,143.7 599.9,143.7 603.2,143.7 606.6,143.7 610.0,143.7 613.4,143.7 616.8,143.7 620.1,143.7 623.5,143.7 626.9,143.7 630.3,143.7 633.7,143.7 637.1,143.7 640.4,143.7 643.8,143.7 647.2,143.7 650.6,143.7 654.0,143.7 657.3,143.7 660.7,143.7 664.1,143.7 667.5,143.7 670.9,143.7 674.3,143.7 677.6,143.7 681.0,143.7 684.4,143.7 687.8,143.7 691.2,143.7 694.5,143.7 697.9,143.7 701.3,143.7 704.7,143.7 708.1,143.7 711.5,143.7 714.8,143.7 718.2,143.7 721.6,143.7 725.0,143.7 728.4,143.7 731.7,143.7 735.1,143.7 738.5,143.7 741.9,143.7 745.3,143.7 748.7,143.7 752.0,143.7 755.4,143.7 758.8,143.7 762.2,143.7 765.6,143.7 768.9,143.7 772.3,143.7 775.7,143.7 779.1,143.7 782.5,143.7 785.9,143.7 789.2,143.7 792.6,143.7 796.0,143.7"/>
<text x="640" y="56" font-family="Arial" font-size="12" fill="#0f766e">truth</text>
<polyline fill="none" stroke="#2563eb" stroke-width="2.3" points="52.0,245.5 55.4,252.9 58.8,260.1 62.1,267.1 65.5,274.0 68.9,183.5 72.3,181.1 75.7,178.1 79.1,174.5 82.4,170.4 85.8,160.0 89.2,158.9 92.6,157.6 96.0,156.0 99.3,154.3 102.7,146.6 106.1,140.9 109.5,134.9 112.9,128.4 116.3,121.5 119.6,142.9 123.0,140.5 126.4,137.7 129.8,134.7 133.2,131.5 136.5,123.2 139.9,121.0 143.3,118.7 146.7,116.5 150.1,114.3 153.5,96.4 156.8,94.6 160.2,92.8 163.6,90.9 167.0,88.9 170.4,132.2 173.7,132.4 177.1,132.6 180.5,132.9 183.9,133.2 187.3,163.3 190.7,164.5 194.0,165.7 197.4,166.9 200.8,168.0 204.2,170.4 207.6,172.3 210.9,174.2 214.3,176.0 217.7,177.9 221.1,159.4 224.5,161.3 227.9,163.2 231.2,165.0 234.6,167.0 238.0,158.6 241.4,161.0 244.8,163.5 248.1,165.9 251.5,168.3 254.9,160.2 258.3,161.9 261.7,163.5 265.1,165.2 268.4,166.8 271.8,163.7 275.2,165.0 278.6,166.2 282.0,167.5 285.3,168.9 288.7,148.7 292.1,148.1 295.5,147.6 298.9,147.1 302.3,146.7 305.6,139.8 309.0,139.1 312.4,138.3 315.8,137.4 319.2,136.5 322.5,126.5 325.9,125.5 329.3,124.5 332.7,123.4 336.1,122.2 339.5,135.0 342.8,134.3 346.2,133.4 349.6,132.6 353.0,131.9 356.4,140.6 359.7,140.7 363.1,141.0 366.5,141.3 369.9,141.7 373.3,122.3 376.7,121.4 380.0,120.6 383.4,119.8 386.8,118.9 390.2,112.5 393.6,111.9 396.9,111.4 400.3,111.0 403.7,110.6 407.1,71.6 410.5,70.2 413.9,68.8 417.2,67.3 420.6,65.7 424.0,48.7 427.4,47.0 430.8,45.3 434.1,43.6 437.5,42.0 440.9,57.3 444.3,56.0 447.7,54.6 451.1,53.4 454.4,52.1 457.8,60.4 461.2,59.6 464.6,59.0 468.0,58.4 471.3,57.8 474.7,87.0 478.1,87.5 481.5,88.0 484.9,88.5 488.3,89.0 491.6,116.2 495.0,117.1 498.4,117.9 501.8,118.7 505.2,119.5 508.5,74.0 511.9,73.5 515.3,73.1 518.7,72.7 522.1,72.3 525.5,67.3 528.8,66.1 532.2,64.9 535.6,63.7 539.0,62.6 542.4,66.8 545.7,65.9 549.1,64.9 552.5,63.7 555.9,62.5 559.3,48.1 562.7,46.7 566.0,45.2 569.4,43.8 572.8,42.4 576.2,49.0 579.6,48.2 582.9,47.4 586.3,46.6 589.7,45.8 593.1,60.8 596.5,60.3 599.9,59.8 603.2,59.1 606.6,58.4 610.0,86.4 613.4,85.9 616.8,85.4 620.1,84.9 623.5,84.3 626.9,145.5 630.3,147.4 633.7,149.2 637.1,150.9 640.4,152.7 643.8,126.9 647.2,127.1 650.6,127.3 654.0,127.5 657.3,127.7 660.7,150.7 664.1,150.6 667.5,150.5 670.9,150.4 674.3,150.3 677.6,134.5 681.0,133.9 684.4,133.3 687.8,132.7 691.2,132.0 694.5,127.1 697.9,127.2 701.3,127.4 704.7,127.7 708.1,128.0 711.5,150.9 714.8,152.4 718.2,153.9 721.6,155.5 725.0,157.1 728.4,148.4 731.7,150.3 735.1,152.2 738.5,154.1 741.9,156.0 745.3,128.2 748.7,129.4 752.0,130.6 755.4,131.8 758.8,132.9 762.2,140.2 765.6,141.7 768.9,143.1 772.3,144.5 775.7,145.9 779.1,167.7 782.5,169.3 785.9,170.9 789.2,172.6 792.6,174.3 796.0,176.5"/>
<text x="640" y="72" font-family="Arial" font-size="12" fill="#2563eb">estimate</text>
</svg>