<svg xmlns="http://www.w3.org/2000/svg" width="820" height="320" viewBox="0 0 820 320">
<rect width="100%" height="100%" fill="white"/>
<text x="52" y="30" font-family="Arial" font-size="18" font-weight="700">Truth altitude</text>
<line x1="52" y1="274" x2="796" y2="274" stroke="#263238"/>
<line x1="52" y1="42" x2="52" y2="274" stroke="#263238"/>
<text x="52" y="306" font-family="Arial" font-size="12">time (s)</text>
<text x="630" y="306" font-family="Arial" font-size="12">m</text>

<polyline fill="none" stroke="#0f766e" stroke-width="2.3" points="52.0,158.0 55.4,158.0 58.8,158.0 62.1,158.0 65.5,158.0 68.9,158.0 72.3,158.0 75.7,158.0 79.1,158.0 82.4,158.0 85.8,158.0 89.2,158.0 92.6,158.0 96.0,158.0 99.3,158.0 102.7,158.0 106.1,158.0 109.5,158.0 112.9,158.0 116.3,158.0 119.6,158.0 123.0,158.0 126.4,158.0 129.8,158.0 133.2,158.0 136.5,158.0 139.9,158.0 143.3,158.0 146.7,158.0 150.1,158.0 153.5,158.0 156.8,158.0 160.2,158.0 163.6,158.0 167.0,158.0 170.4,158.0 173.7,158.0 177.1,158.0 180.5,158.0 183.9,158.0 187.3,158.0 190.7,158.0 194.0,158.0 197.4,158.0 200.8,158.0 204.2,158.0 207.6,158.0 210.9,158.0 214.3,158.0 217.7,158.0 221.1,158.0 224.5,158.0 227.9,158.0 231.2,158.0 234.6,158.0 238.0,158.0 241.4,158.0 244.8,158.0 248.1,158.0 251.5,158.0 254.9,158.0 258.3,158.0 261.7,158.0 265.1,158.0 268.4,158.0 271.8,158.0 275.2,158.0 278.6,158.0 282.0,158.0 285.3,158.0 288.7,158.0 292.1,158.0 295.5,158.0 298.9,158.0 302.3,158.0 305.6,158.0 309.0,158.0 312.4,158.0 315.8,158.0 319.2,158.0 322.5,158.0 325.9,158.0 329.3,158.0 332.7,158.0 336.1,158.0 339.5,158.0 342.8,158.0 346.2,158.0 349.6,158.0 353.0,158.0 356.4,158.0 359.7,158.0 363.1,158.0 366.5,158.0 369.9,158.0 373.3,158.0 376.7,158.0 380.0,158.0 383.4,158.0 386.8,158.0 390.2,158.0 393.6,158.0 396.9,158.0 400.3,158.0 403.7,158.0 407.1,158.0 410.5,158.0 413.9,158.0 417.2,158.0 420.6,158.0 424.0,158.0 427.4,158.0 430.8,158.0 434.1,158.0 437.5,158.0 440.9,158.0 444.3,158.0 447.7,158.0 451.1,158.0 454.4,158.0 457.8,158.0 461.2,158.0 464.6,158.0 468.0,158.0 471.3,158.0 474.7,158.0 478.1,158.0 481.5,158.0 484.9,158.0 488.3,158.0 491.6,158.0 495.0,158.0 498.4,158.0 501.8,158.0 505.2,158.0 508.5,158.0 511.9,158.0 515.3,158.0 518.7,158.0 522.1,158.0 525.5,158.0 528.8,158.0 532.2,158.0 535.6,158.0 539.0,158.0 542.4,158.0 545.7,158.0 549.1,158.0 552.5,158.0 555.9,158.0 559.3,158.0 562.7,158.0 566.0,158.0 569.4,158.0 572.8,158.0 576.2,158.0 579.6,158.0 582.9,158.0 586.3,158.0 589.7,158.0 593.1,158.0 596.5,158.0 599.9,158.0 603.2,158.0 606.6,158.0 610.0,158.0 613.4,158.0 616.8,158.0 620.1,158.0 623.5,158.0 626.9,158.0 630.3,158.0 633.7,158.0 637.1,158.0 640.4,158.0 643.8,158.0 647.2,158.0 650.6,158.0 654.0,158.0 657.3,158.0 660.7,158.0 664.1,158.0 667.5,158.0 670.9,158.0 674.3,158.0 677.6,158.0 681.0,158.0 684.4,158.0 687.8,158.0 691.2,158.0 694.5,158.0 697.9,158.0 701.3,158.0 704.7,158.0 708.1,158.0 711.5,158.0 714.8,158.0 718.2,158.0 721.6,158.0 725.0,158.0 728.4,158.0 731.7,158.0 735.1,158.0 738.5,158.0 741.9,158.0 745.3,158.0 748.7,158.0 752.0,158.0 755.4,158.0 758.8,158.0 762.2,158.0 765.6,158.0 768.9,158.0 772.3,158.0 775.7,158.0 779.1,158.0 782.5,158.0 785.9,158.0 789.2,158.0 792.6,158.0 796.0,158.0"/>
<text x="640" y="56" font-family="Arial" font-size="12" fill="#0f766e">Truth altitude</text>
</svg>