<svg xmlns="http://www.w3.org/2000/svg" width="820" height="320" viewBox="0 0 820 320">
<rect width="100%" height="100%" fill="white"/>
<text x="52" y="30" font-family="Arial" font-size="18" font-weight="700">abg_nominal accelerometer bias estimates</text>
<line x1="52" y1="274" x2="796" y2="274" stroke="#263238"/>
<line x1="52" y1="42" x2="52" y2="274" stroke="#263238"/>
<text x="52" y="306" font-family="Arial" font-size="12">time (s)</text>
<text x="630" y="306" font-family="Arial" font-size="12">m/s^2</text>

<polyline fill="none" stroke="#0f766e" stroke-width="2.3" points="52.0,163.9 55.4,163.9 58.8,163.9 62.1,163.9 65.5,163.9 68.9,120.5 72.3,120.5 75.7,120.5 79.1,120.5 82.4,120.5 85.8,208.0 89.2,208.0 92.6,208.0 96.0,208.0 99.3,208.0 102.7,251.6 106.1,251.6 109.5,251.6 112.9,251.6 116.3,251.6 119.6,212.7 123.0,212.7 126.4,212.7 129.8,212.7 133.2,212.7 136.5,195.6 139.9,195.6 143.3,195.6 146.7,195.6 150.1,195.6 153.5,138.8 156.8,138.8 160.2,138.8 163.6,138.8 167.0,138.8 170.4,182.1 173.7,182.1 177.1,182.1 180.5,182.1 183.9,182.1 187.3,257.9 190.7,257.9 194.0,257.9 197.4,257.9 200.8,257.9 204.2,274.0 207.6,274.0 210.9,274.0 214.3,274.0 217.7,274.0 221.1,207.0 224.5,207.0 227.9,207.0 231.2,207.0 234.6,207.0 238.0,209.6 241.4,209.6 244.8,209.6 248.1,209.6 251.5,209.6 254.9,216.9 258.3,216.9 261.7,216.9 265.1,216.9 268.4,216.9 271.8,177.0 275.2,177.0 278.6,177.0 282.0,177.0 285.3,177.0 288.7,254.0 292.1,254.0 295.5,254.0 298.9,254.0 302.3,254.0 305.6,195.2 309.0,195.2 312.4,195.2 315.8,195.2 319.2,195.2 322.5,88.3 325.9,88.3 329.3,88.3 332.7,88.3 336.1,88.3 339.5,137.5 342.8,137.5 346.2,137.5 349.6,137.5 353.0,137.5 356.4,161.2 359.7,161.2 363.1,161.2 366.5,161.2 369.9,161.2 373.3,132.5 376.7,132.5 380.0,132.5 383.4,132.5 386.8,132.5 390.2,180.1 393.6,180.1 396.9,180.1 400.3,180.1 403.7,180.1 407.1,152.0 410.5,152.0 413.9,152.0 417.2,152.0 420.6,152.0 424.0,117.6 427.4,117.6 430.8,117.6 434.1,117.6 437.5,117.6 440.9,162.0 444.3,162.0 447.7,162.0 451.1,162.0 454.4,162.0 457.8,101.2 461.2,101.2 464.6,101.2 468.0,101.2 471.3,101.2 474.7,144.4 478.1,144.4 481.5,144.4 484.9,144.4 488.3,144.4 491.6,42.0 495.0,42.0 498.4,42.0 501.8,42.0 505.2,42.0 508.5,148.3 511.9,148.3 515.3,148.3 518.7,148.3 522.1,148.3 525.5,123.8 528.8,123.8 532.2,123.8 535.6,123.8 539.0,123.8 542.4,109.8 545.7,109.8 549.1,109.8 552.5,109.8 555.9,109.8 559.3,222.4 562.7,222.4 566.0,222.4 569.4,222.4 572.8,222.4 576.2,222.7 579.6,222.7 582.9,222.7 586.3,222.7 589.7,222.7 593.1,156.7 596.5,156.7 599.9,156.7 603.2,156.7 606.6,156.7 610.0,133.3 613.4,133.3 616.8,133.3 620.1,133.3 623.5,133.3 626.9,182.5 630.3,182.5 633.7,182.5 637.1,182.5 640.4,182.5 643.8,273.1 647.2,273.1 650.6,273.1 654.0,273.1 657.3,273.1 660.7,184.3 664.1,184.3 667.5,184.3 670.9,184.3 674.3,184.3 677.6,160.0 681.0,160.0 684.4,160.0 687.8,160.0 691.2,160.0 694.5,152.0 697.9,152.0 701.3,152.0 704.7,152.0 708.1,152.0 711.5,161.2 714.8,161.2 718.2,161.2 721.6,161.2 725.0,161.2 728.4,259.3 731.7,259.3 735.1,259.3 738.5,259.3 741.9,259.3 745.3,179.8 748.7,179.8 752.0,179.8 755.4,179.8 758.8,179.8 762.2,152.7 765.6,152.7 768.9,152.7 772.3,152.7 775.7,152.7 779.1,157.9 782.5,157.9 785.9,157.9 789.2,157.9 792.6,157.9 796.0,160.6"/>
<text x="640" y="56" font-family="Arial" font-size="12" fill="#0f766e">bax</text>
<polyline fill="none" stroke="#2563eb" stroke-width="2.3" points="52.0,131.1 55.4,131.1 58.8,131.1 62.1,131.1 65.5,131.1 68.9,199.0 72.3,199.0 75.7,199.0 79.1,199.0 82.4,199.0 85.8,253.5 89.2,253.5 92.6,253.5 96.0,253.5 99.3,253.5 102.7,202.9 106.1,202.9 109.5,202.9 112.9,202.9 116.3,202.9 119.6,224.4 123.0,224.4 126.4,224.4 129.8,224.4 133.2,224.4 136.5,229.0 139.9,229.0 143.3,229.0 146.7,229.0 150.1,229.0 153.5,234.7 156.8,234.7 160.2,234.7 163.6,234.7 167.0,234.7 170.4,168.7 173.7,168.7 177.1,168.7 180.5,168.7 183.9,168.7 187.3,133.6 190.7,133.6 194.0,133.6 197.4,133.6 200.8,133.6 204.2,110.6 207.6,110.6 210.9,110.6 214.3,110.6 217.7,110.6 221.1,66.9 224.5,66.9 227.9,66.9 231.2,66.9 234.6,66.9 238.0,212.3 241.4,212.3 244.8,212.3 248.1,212.3 251.5,212.3 254.9,93.0 258.3,93.0 261.7,93.0 265.1,93.0 268.4,93.0 271.8,187.7 275.2,187.7 278.6,187.7 282.0,187.7 285.3,187.7 288.7,203.7 292.1,203.7 295.5,203.7 298.9,203.7 302.3,203.7 305.6,235.0 309.0,235.0 312.4,235.0 315.8,235.0 319.2,235.0 322.5,176.1 325.9,176.1 329.3,176.1 332.7,176.1 336.1,176.1 339.5,198.9 342.8,198.9 346.2,198.9 349.6,198.9 353.0,198.9 356.4,157.0 359.7,157.0 363.1,157.0 366.5,157.0 369.9,157.0 373.3,80.0 376.7,80.0 380.0,80.0 383.4,80.0 386.8,80.0 390.2,61.6 393.6,61.6 396.9,61.6 400.3,61.6 403.7,61.6 407.1,193.9 410.5,193.9 413.9,193.9 417.2,193.9 420.6,193.9 424.0,187.3 427.4,187.3 430.8,187.3 434.1,187.3 437.5,187.3 440.9,205.3 444.3,205.3 447.7,205.3 451.1,205.3 454.4,205.3 457.8,128.5 461.2,128.5 464.6,128.5 468.0,128.5 471.3,128.5 474.7,134.5 478.1,134.5 481.5,134.5 484.9,134.5 488.3,134.5 491.6,198.8 495.0,198.8 498.4,198.8 501.8,198.8 505.2,198.8 508.5,166.8 511.9,166.8 515.3,166.8 518.7,166.8 522.1,166.8 525.5,153.2 528.8,153.2 532.2,153.2 535.6,153.2 539.0,153.2 542.4,133.3 545.7,133.3 549.1,133.3 552.5,133.3 555.9,133.3 559.3,206.7 562.7,206.7 566.0,206.7 569.4,206.7 572.8,206.7 576.2,241.1 579.6,241.1 582.9,241.1 586.3,241.1 589.7,241.1 593.1,204.3 596.5,204.3 599.9,204.3 603.2,204.3 606.6,204.3 610.0,165.9 613.4,165.9 616.8,165.9 620.1,165.9 623.5,165.9 626.9,155.7 630.3,155.7 633.7,155.7 637.1,155.7 640.4,155.7 643.8,182.9 647.2,182.9 650.6,182.9 654.0,182.9 657.3,182.9 660.7,204.3 664.1,204.3 667.5,204.3 670.9,204.3 674.3,204.3 677.6,248.3 681.0,248.3 684.4,248.3 687.8,248.3 691.2,248.3 694.5,126.3 697.9,126.3 701.3,126.3 704.7,126.3 708.1,126.3 711.5,216.2 714.8,216.2 718.2,216.2 721.6,216.2 725.0,216.2 728.4,181.3 731.7,181.3 735.1,181.3 738.5,181.3 741.9,181.3 745.3,81.8 748.7,81.8 752.0,81.8 755.4,81.8 758.8,81.8 762.2,151.5 765.6,151.5 768.9,151.5 772.3,151.5 775.7,151.5 779.1,202.6 782.5,202.6 785.9,202.6 789.2,202.6 792.6,202.6 796.0,267.9"/>
<text x="640" y="72" font-family="Arial" font-size="12" fill="#2563eb">bay</text>
<polyline fill="none" stroke="#b45309" stroke-width="2.3" points="52.0,172.0 55.4,172.0 58.8,172.0 62.1,172.0 65.5,172.0 68.9,111.1 72.3,111.1 75.7,111.1 79.1,111.1 82.4,111.1 85.8,132.3 89.2,132.3 92.6,132.3 96.0,132.3 99.3,132.3 102.7,154.6 106.1,154.6 109.5,154.6 112.9,154.6 116.3,154.6 119.6,124.1 123.0,124.1 126.4,124.1 129.8,124.1 133.2,124.1 136.5,119.6 139.9,119.6 143.3,119.6 146.7,119.6 150.1,119.6 153.5,70.4 156.8,70.4 160.2,70.4 163.6,70.4 167.0,70.4 170.4,171.8 173.7,171.8 177.1,171.8 180.5,171.8 183.9,171.8 187.3,247.5 190.7,247.5 194.0,247.5 197.4,247.5 200.8,247.5 204.2,130.0 207.6,130.0 210.9,130.0 214.3,130.0 217.7,130.0 221.1,131.2 224.5,131.2 227.9,131.2 231.2,131.2 234.6,131.2 238.0,166.8 241.4,166.8 244.8,166.8 248.1,166.8 251.5,166.8 254.9,129.3 258.3,129.3 261.7,129.3 265.1,129.3 268.4,129.3 271.8,135.5 275.2,135.5 278.6,135.5 282.0,135.5 285.3,135.5 288.7,164.1 292.1,164.1 295.5,164.1 298.9,164.1 302.3,164.1 305.6,176.2 309.0,176.2 312.4,176.2 315.8,176.2 319.2,176.2 322.5,132.5 325.9,132.5 329.3,132.5 332.7,132.5 336.1,132.5 339.5,142.2 342.8,142.2 346.2,142.2 349.6,142.2 353.0,142.2 356.4,113.7 359.7,113.7 363.1,113.7 366.5,113.7 369.9,113.7 373.3,149.1 376.7,149.1 380.0,149.1 383.4,149.1 386.8,149.1 390.2,171.4 393.6,171.4 396.9,171.4 400.3,171.4 403.7,171.4 407.1,81.8 410.5,81.8 413.9,81.8 417.2,81.8 420.6,81.8 424.0,108.4 427.4,108.4 430.8,108.4 434.1,108.4 437.5,108.4 440.9,143.3 444.3,143.3 447.7,143.3 451.1,143.3 454.4,143.3 457.8,177.7 461.2,177.7 464.6,177.7 468.0,177.7 471.3,177.7 474.7,194.9 478.1,194.9 481.5,194.9 484.9,194.9 488.3,194.9 491.6,187.6 495.0,187.6 498.4,187.6 501.8,187.6 505.2,187.6 508.5,145.3 511.9,145.3 515.3,145.3 518.7,145.3 522.1,145.3 525.5,126.2 528.8,126.2 532.2,126.2 535.6,126.2 539.0,126.2 542.4,180.4 545.7,180.4 549.1,180.4 552.5,180.4 555.9,180.4 559.3,116.8 562.7,116.8 566.0,116.8 569.4,116.8 572.8,116.8 576.2,126.8 579.6,126.8 582.9,126.8 586.3,126.8 589.7,126.8 593.1,191.3 596.5,191.3 599.9,191.3 603.2,191.3 606.6,191.3 610.0,211.1 613.4,211.1 616.8,211.1 620.1,211.1 623.5,211.1 626.9,198.4 630.3,198.4 633.7,198.4 637.1,198.4 640.4,198.4 643.8,189.6 647.2,189.6 650.6,189.6 654.0,189.6 657.3,189.6 660.7,255.3 664.1,255.3 667.5,255.3 670.9,255.3 674.3,255.3 677.6,144.9 681.0,144.9 684.4,144.9 687.8,144.9 691.2,144.9 694.5,139.5 697.9,139.5 701.3,139.5 704.7,139.5 708.1,139.5 711.5,108.9 714.8,108.9 718.2,108.9 721.6,108.9 725.0,108.9 728.4,191.2 731.7,191.2 735.1,191.2 738.5,191.2 741.9,191.2 745.3,140.5 748.7,140.5 752.0,140.5 755.4,140.5 758.8,140.5 762.2,120.6 765.6,120.6 768.9,120.6 772.3,120.6 775.7,120.6 779.1,159.3 782.5,159.3 785.9,159.3 789.2,159.3 792.6,159.3 796.0,141.1"/>
<text x="640" y="88" font-family="Arial" font-size="12" fill="#b45309">baz</text>
</svg>