<svg xmlns="http://www.w3.org/2000/svg" width="820" height="320" viewBox="0 0 820 320">
<rect width="100%" height="100%" fill="white"/>
<text x="52" y="30" font-family="Arial" font-size="18" font-weight="700">linear_nominal accelerometer bias estimates</text>
<line x1="52" y1="274" x2="796" y2="274" stroke="#263238"/>
<line x1="52" y1="42" x2="52" y2="274" stroke="#263238"/>
<text x="52" y="306" font-family="Arial" font-size="12">time (s)</text>
<text x="630" y="306" font-family="Arial" font-size="12">m/s^2</text>

<polyline fill="none" stroke="#0f766e" stroke-width="2.3" points="52.0,102.7 55.4,102.7 58.8,102.7 62.1,102.7 65.5,102.7 68.9,157.1 72.3,157.1 75.7,157.1 79.1,157.1 82.4,157.1 85.8,127.9 89.2,127.9 92.6,127.9 96.0,127.9 99.3,127.9 102.7,42.0 106.1,42.0 109.5,42.0 112.9,42.0 116.3,42.0 119.6,153.6 123.0,153.6 126.4,153.6 129.8,153.6 133.2,153.6 136.5,143.2 139.9,143.2 143.3,143.2 146.7,143.2 150.1,143.2 153.5,142.4 156.8,142.4 160.2,142.4 163.6,142.4 167.0,142.4 170.4,112.9 173.7,112.9 177.1,112.9 180.5,112.9 183.9,112.9 187.3,67.9 190.7,67.9 194.0,67.9 197.4,67.9 200.8,67.9 204.2,60.4 207.6,60.4 210.9,60.4 214.3,60.4 217.7,60.4 221.1,81.3 224.5,81.3 227.9,81.3 231.2,81.3 234.6,81.3 238.0,74.6 241.4,74.6 244.8,74.6 248.1,74.6 251.5,74.6 254.9,80.3 258.3,80.3 261.7,80.3 265.1,80.3 268.4,80.3 271.8,92.7 275.2,92.7 278.6,92.7 282.0,92.7 285.3,92.7 288.7,85.9 292.1,85.9 295.5,85.9 298.9,85.9 302.3,85.9 305.6,76.1 309.0,76.1 312.4,76.1 315.8,76.1 319.2,76.1 322.5,58.7 325.9,58.7 329.3,58.7 332.7,58.7 336.1,58.7 339.5,68.5 342.8,68.5 346.2,68.5 349.6,68.5 353.0,68.5 356.4,70.0 359.7,70.0 363.1,70.0 366.5,70.0 369.9,70.0 373.3,73.5 376.7,73.5 380.0,73.5 383.4,73.5 386.8,73.5 390.2,73.5 393.6,73.5 396.9,73.5 400.3,73.5 403.7,73.5 407.1,74.2 410.5,74.2 413.9,74.2 417.2,74.2 420.6,74.2 424.0,78.6 427.4,78.6 430.8,78.6 434.1,78.6 437.5,78.6 440.9,87.1 444.3,87.1 447.7,87.1 451.1,87.1 454.4,87.1 457.8,83.4 461.2,83.4 464.6,83.4 468.0,83.4 471.3,83.4 474.7,81.1 478.1,81.1 481.5,81.1 484.9,81.1 488.3,81.1 491.6,80.5 495.0,80.5 498.4,80.5 501.8,80.5 505.2,80.5 508.5,85.2 511.9,85.2 515.3,85.2 518.7,85.2 522.1,85.2 525.5,89.5 528.8,89.5 532.2,89.5 535.6,89.5 539.0,89.5 542.4,84.8 545.7,84.8 549.1,84.8 552.5,84.8 555.9,84.8 559.3,84.2 562.7,84.2 566.0,84.2 569.4,84.2 572.8,84.2 576.2,82.0 579.6,82.0 582.9,82.0 586.3,82.0 589.7,82.0 593.1,82.1 596.5,82.1 599.9,82.1 603.2,82.1 606.6,82.1 610.0,83.7 613.4,83.7 616.8,83.7 620.1,83.7 623.5,83.7 626.9,84.7 630.3,84.7 633.7,84.7 637.1,84.7 640.4,84.7 643.8,82.9 647.2,82.9 650.6,82.9 654.0,82.9 657.3,82.9 660.7,84.8 664.1,84.8 667.5,84.8 670.9,84.8 674.3,84.8 677.6,86.0 681.0,86.0 684.4,86.0 687.8,86.0 691.2,86.0 694.5,86.1 697.9,86.1 701.3,86.1 704.7,86.1 708.1,86.1 711.5,84.9 714.8,84.9 718.2,84.9 721.6,84.9 725.0,84.9 728.4,83.4 731.7,83.4 735.1,83.4 738.5,83.4 741.9,83.4 745.3,84.6 748.7,84.6 752.0,84.6 755.4,84.6 758.8,84.6 762.2,81.9 765.6,81.9 768.9,81.9 772.3,81.9 775.7,81.9 779.1,82.1 782.5,82.1 785.9,82.1 789.2,82.1 792.6,82.1 796.0,83.3"/>
<text x="640" y="56" font-family="Arial" font-size="12" fill="#0f766e">bax</text>
<polyline fill="none" stroke="#2563eb" stroke-width="2.3" points="52.0,102.7 55.4,102.7 58.8,102.7 62.1,102.7 65.5,102.7 68.9,142.0 72.3,142.0 75.7,142.0 79.1,142.0 82.4,142.0 85.8,95.9 89.2,95.9 92.6,95.9 96.0,95.9 99.3,95.9 102.7,67.1 106.1,67.1 109.5,67.1 112.9,67.1 116.3,67.1 119.6,92.0 123.0,92.0 126.4,92.0 129.8,92.0 133.2,92.0 136.5,100.1 139.9,100.1 143.3,100.1 146.7,100.1 150.1,100.1 153.5,159.3 156.8,159.3 160.2,159.3 163.6,159.3 167.0,159.3 170.4,192.6 173.7,192.6 177.1,192.6 180.5,192.6 183.9,192.6 187.3,131.8 190.7,131.8 194.0,131.8 197.4,131.8 200.8,131.8 204.2,120.7 207.6,120.7 210.9,120.7 214.3,120.7 217.7,120.7 221.1,130.4 224.5,130.4 227.9,130.4 231.2,130.4 234.6,130.4 238.0,136.6 241.4,136.6 244.8,136.6 248.1,136.6 251.5,136.6 254.9,146.8 258.3,146.8 261.7,146.8 265.1,146.8 268.4,146.8 271.8,130.5 275.2,130.5 278.6,130.5 282.0,130.5 285.3,130.5 288.7,135.5 292.1,135.5 295.5,135.5 298.9,135.5 302.3,135.5 305.6,123.9 309.0,123.9 312.4,123.9 315.8,123.9 319.2,123.9 322.5,126.0 325.9,126.0 329.3,126.0 332.7,126.0 336.1,126.0 339.5,130.0 342.8,130.0 346.2,130.0 349.6,130.0 353.0,130.0 356.4,132.0 359.7,132.0 363.1,132.0 366.5,132.0 369.9,132.0 373.3,137.8 376.7,137.8 380.0,137.8 383.4,137.8 386.8,137.8 390.2,134.1 393.6,134.1 396.9,134.1 400.3,134.1 403.7,134.1 407.1,140.4 410.5,140.4 413.9,140.4 417.2,140.4 420.6,140.4 424.0,130.9 427.4,130.9 430.8,130.9 434.1,130.9 437.5,130.9 440.9,129.8 444.3,129.8 447.7,129.8 451.1,129.8 454.4,129.8 457.8,127.5 461.2,127.5 464.6,127.5 468.0,127.5 471.3,127.5 474.7,129.6 478.1,129.6 481.5,129.6 484.9,129.6 488.3,129.6 491.6,128.6 495.0,128.6 498.4,128.6 501.8,128.6 505.2,128.6 508.5,131.5 511.9,131.5 515.3,131.5 518.7,131.5 522.1,131.5 525.5,131.5 528.8,131.5 532.2,131.5 535.6,131.5 539.0,131.5 542.4,137.1 545.7,137.1 549.1,137.1 552.5,137.1 555.9,137.1 559.3,131.3 562.7,131.3 566.0,131.3 569.4,131.3 572.8,131.3 576.2,135.9 579.6,135.9 582.9,135.9 586.3,135.9 589.7,135.9 593.1,133.2 596.5,133.2 599.9,133.2 603.2,133.2 606.6,133.2 610.0,132.8 613.4,132.8 616.8,132.8 620.1,132.8 623.5,132.8 626.9,131.9 630.3,131.9 633.7,131.9 637.1,131.9 640.4,131.9 643.8,132.3 647.2,132.3 650.6,132.3 654.0,132.3 657.3,132.3 660.7,128.2 664.1,128.2 667.5,128.2 670.9,128.2 674.3,128.2 677.6,126.6 681.0,126.6 684.4,126.6 687.8,126.6 691.2,126.6 694.5,129.1 697.9,129.1 701.3,129.1 704.7,129.1 708.1,129.1 711.5,127.1 714.8,127.1 718.2,127.1 721.6,127.1 725.0,127.1 728.4,127.7 731.7,127.7 735.1,127.7 738.5,127.7 741.9,127.7 745.3,125.7 748.7,125.7 752.0,125.7 755.4,125.7 758.8,125.7 762.2,124.1 765.6,124.1 768.9,124.1 772.3,124.1 775.7,124.1 779.1,123.5 782.5,123.5 785.9,123.5 789.2,123.5 792.6,123.5 796.0,123.4"/>
<text x="640" y="72" font-family="Arial" font-size="12" fill="#2563eb">bay</text>
<polyline fill="none" stroke="#b45309" stroke-width="2.3" points="52.0,102.7 55.4,102.7 58.8,102.7 62.1,102.7 65.5,102.7 68.9,274.0 72.3,274.0 75.7,274.0 79.1,274.0 82.4,274.0 85.8,162.7 89.2,162.7 92.6,162.7 96.0,162.7 99.3,162.7 102.7,242.6 106.1,242.6 109.5,242.6 112.9,242.6 116.3,242.6 119.6,141.3 123.0,141.3 126.4,141.3 129.8,141.3 133.2,141.3 136.5,117.5 139.9,117.5 143.3,117.5 146.7,117.5 150.1,117.5 153.5,104.8 156.8,104.8 160.2,104.8 163.6,104.8 167.0,104.8 170.4,82.6 173.7,82.6 177.1,82.6 180.5,82.6 183.9,82.6 187.3,78.4 190.7,78.4 194.0,78.4 197.4,78.4 200.8,78.4 204.2,73.5 207.6,73.5 210.9,73.5 214.3,73.5 217.7,73.5 221.1,70.7 224.5,70.7 227.9,70.7 231.2,70.7 234.6,70.7 238.0,66.9 241.4,66.9 244.8,66.9 248.1,66.9 251.5,66.9 254.9,73.8 258.3,73.8 261.7,73.8 265.1,73.8 268.4,73.8 271.8,75.9 275.2,75.9 278.6,75.9 282.0,75.9 285.3,75.9 288.7,89.6 292.1,89.6 295.5,89.6 298.9,89.6 302.3,89.6 305.6,90.9 309.0,90.9 312.4,90.9 315.8,90.9 319.2,90.9 322.5,91.4 325.9,91.4 329.3,91.4 332.7,91.4 336.1,91.4 339.5,89.3 342.8,89.3 346.2,89.3 349.6,89.3 353.0,89.3 356.4,86.3 359.7,86.3 363.1,86.3 366.5,86.3 369.9,86.3 373.3,91.6 376.7,91.6 380.0,91.6 383.4,91.6 386.8,91.6 390.2,91.0 393.6,91.0 396.9,91.0 400.3,91.0 403.7,91.0 407.1,94.3 410.5,94.3 413.9,94.3 417.2,94.3 420.6,94.3 424.0,95.1 427.4,95.1 430.8,95.1 434.1,95.1 437.5,95.1 440.9,94.3 444.3,94.3 447.7,94.3 451.1,94.3 454.4,94.3 457.8,93.1 461.2,93.1 464.6,93.1 468.0,93.1 471.3,93.1 474.7,89.4 478.1,89.4 481.5,89.4 484.9,89.4 488.3,89.4 491.6,88.8 495.0,88.8 498.4,88.8 501.8,88.8 505.2,88.8 508.5,92.7 511.9,92.7 515.3,92.7 518.7,92.7 522.1,92.7 525.5,94.8 528.8,94.8 532.2,94.8 535.6,94.8 539.0,94.8 542.4,94.3 545.7,94.3 549.1,94.3 552.5,94.3 555.9,94.3 559.3,95.0 562.7,95.0 566.0,95.0 569.4,95.0 572.8,95.0 576.2,93.5 579.6,93.5 582.9,93.5 586.3,93.5 589.7,93.5 593.1,92.4 596.5,92.4 599.9,92.4 603.2,92.4 606.6,92.4 610.0,91.9 613.4,91.9 616.8,91.9 620.1,91.9 623.5,91.9 626.9,86.4 630.3,86.4 633.7,86.4 637.1,86.4 640.4,86.4 643.8,89.8 647.2,89.8 650.6,89.8 654.0,89.8 657.3,89.8 660.7,90.5 664.1,90.5 667.5,90.5 670.9,90.5 674.3,90.5 677.6,91.9 681.0,91.9 684.4,91.9 687.8,91.9 691.2,91.9 694.5,90.4 697.9,90.4 701.3,90.4 704.7,90.4 708.1,90.4 711.5,87.9 714.8,87.9 718.2,87.9 721.6,87.9 725.0,87.9 728.4,87.1 731.7,87.1 735.1,87.1 738.5,87.1 741.9,87.1 745.3,88.5 748.7,88.5 752.0,88.5 755.4,88.5 758.8,88.5 762.2,88.3 765.6,88.3 768.9,88.3 772.3,88.3 775.7,88.3 779.1,87.8 782.5,87.8 785.9,87.8 789.2,87.8 792.6,87.8 796.0,87.3"/>
<text x="640" y="88" font-family="Arial" font-size="12" fill="#b45309">baz</text>
</svg>