<svg xmlns="http://www.w3.org/2000/svg" width="820" height="320" viewBox="0 0 820 320">
<rect width="100%" height="100%" fill="white"/>
<text x="52" y="30" font-family="Arial" font-size="18" font-weight="700">abg_nominal covariance bounds</text>
<line x1="52" y1="274" x2="796" y2="274" stroke="#263238"/>
<line x1="52" y1="42" x2="52" y2="274" stroke="#263238"/>
<text x="52" y="306" font-family="Arial" font-size="12">time (s)</text>
<text x="630" y="306" font-family="Arial" font-size="12">m</text>

<rect x="998.9" y="42" width="270.5" height="232" fill="#fef3c7" opacity="0.72"/>
<polyline fill="none" stroke="#0f766e" stroke-width="2.3" points="52.0,219.2 55.4,218.3 58.8,217.3 62.1,216.3 65.5,215.2 68.9,203.3 72.3,202.0 75.7,200.5 79.1,198.9 82.4,197.2 85.8,234.4 89.2,234.0 92.6,233.3 96.0,232.6 99.3,231.6 102.7,265.5 106.1,265.5 109.5,265.0 112.9,264.1 116.3,262.6 119.6,241.5 123.0,240.6 126.4,239.6 129.8,238.4 133.2,237.1 136.5,230.0 139.9,228.8 143.3,227.5 146.7,226.1 150.1,224.5 153.5,192.3 156.8,190.4 160.2,188.2 163.6,185.8 167.0,183.3 170.4,242.5 173.7,243.3 177.1,244.1 180.5,244.8 183.9,245.6 187.3,243.6 190.7,240.7 194.0,237.4 197.4,233.9 200.8,230.1 204.2,237.6 207.6,235.1 210.9,232.4 214.3,229.4 217.7,226.1 221.1,227.3 224.5,225.3 227.9,223.1 231.2,220.6 234.6,217.9 238.0,253.6 241.4,252.2 244.8,250.7 248.1,249.0 251.5,247.1 254.9,228.8 258.3,226.8 261.7,224.6 265.1,222.3 268.4,219.7 271.8,260.4 275.2,260.5 278.6,260.5 282.0,260.4 285.3,260.2 288.7,225.7 292.1,223.9 295.5,221.9 298.9,219.7 302.3,217.3 305.6,232.6 309.0,230.9 312.4,229.0 315.8,227.0 319.2,224.9 322.5,251.0 325.9,249.8 329.3,248.5 332.7,247.0 336.1,245.3 339.5,250.1 342.8,249.4 346.2,248.7 349.6,247.9 353.0,247.0 356.4,247.4 359.7,246.9 363.1,246.4 366.5,245.7 369.9,245.0 373.3,240.7 376.7,238.5 380.0,236.2 383.4,233.6 386.8,230.9 390.2,218.3 393.6,215.9 396.9,213.2 400.3,210.4 403.7,207.4 407.1,231.0 410.5,229.6 413.9,228.0 417.2,226.2 420.6,224.3 424.0,234.6 427.4,233.7 430.8,232.7 434.1,231.5 437.5,230.1 440.9,248.2 444.3,248.1 447.7,248.0 451.1,247.8 454.4,247.5 457.8,238.3 461.2,237.1 464.6,235.6 468.0,234.0 471.3,232.3 474.7,247.1 478.1,246.2 481.5,245.2 484.9,244.1 488.3,242.9 491.6,210.4 495.0,208.0 498.4,205.4 501.8,202.5 505.2,199.4 508.5,246.8 511.9,246.2 515.3,245.5 518.7,244.9 522.1,244.2 525.5,226.0 528.8,224.4 532.2,222.7 535.6,220.9 539.0,219.0 542.4,213.4 545.7,211.7 549.1,209.9 552.5,208.0 555.9,206.0 559.3,244.9 562.7,244.1 566.0,243.2 569.4,242.1 572.8,240.8 576.2,240.1 579.6,239.2 582.9,238.1 586.3,236.7 589.7,235.2 593.1,257.1 596.5,257.0 599.9,256.9 603.2,256.7 606.6,256.5 610.0,240.2 613.4,239.0 616.8,237.7 620.1,236.3 623.5,234.8 626.9,250.8 630.3,249.7 633.7,248.6 637.1,247.4 640.4,246.1 643.8,237.3 647.2,235.1 650.6,232.6 654.0,229.9 657.3,227.1 660.7,226.3 664.1,225.1 667.5,223.7 670.9,222.1 674.3,220.3 677.6,249.7 681.0,247.9 684.4,246.0 687.8,243.8 691.2,241.5 694.5,248.5 697.9,246.8 701.3,245.1 704.7,243.4 708.1,241.5 711.5,245.6 714.8,244.7 718.2,243.6 721.6,242.4 725.0,241.1 728.4,239.5 731.7,237.2 735.1,234.7 738.5,232.0 741.9,229.0 745.3,226.6 748.7,224.7 752.0,222.6 755.4,220.4 758.8,218.0 762.2,245.4 765.6,245.0 768.9,244.5 772.3,243.9 775.7,243.3 779.1,273.8 782.5,274.0 785.9,273.9 789.2,273.6 792.6,272.9 796.0,237.8"/>
<text x="640" y="56" font-family="Arial" font-size="12" fill="#0f766e">position error</text>
<polyline fill="none" stroke="#2563eb" stroke-width="2.3" points="52.0,43.9 55.4,43.4 58.8,43.0 62.1,42.5 65.5,42.0 68.9,66.5 72.3,66.0 75.7,65.5 79.1,65.0 82.4,64.5 85.8,86.2 89.2,85.7 92.6,85.1 96.0,84.6 99.3,84.1 102.7,103.3 106.1,102.8 109.5,102.2 112.9,101.7 116.3,101.1 119.6,118.3 123.0,117.7 126.4,117.2 129.8,116.6 133.2,116.0 136.5,131.5 139.9,130.9 143.3,130.3 146.7,129.7 150.1,129.1 153.5,143.0 156.8,142.4 160.2,141.8 163.6,141.2 167.0,140.6 170.4,153.3 173.7,152.7 177.1,152.0 180.5,151.4 183.9,150.8 187.3,162.4 190.7,161.7 194.0,161.1 197.4,160.4 200.8,159.8 204.2,170.4 207.6,169.8 210.9,169.1 214.3,168.5 217.7,167.8 221.1,177.6 224.5,177.0 227.9,176.3 231.2,175.6 234.6,175.0 238.0,184.1 241.4,183.4 244.8,182.7 248.1,182.0 251.5,181.4 254.9,189.9 258.3,189.2 261.7,188.5 265.1,187.8 268.4,187.1 271.8,195.0 275.2,194.3 278.6,193.6 282.0,193.0 285.3,192.3 288.7,199.7 292.1,199.0 295.5,198.3 298.9,197.6 302.3,196.9 305.6,203.9 309.0,203.2 312.4,202.5 315.8,201.8 319.2,201.1 322.5,207.8 325.9,207.1 329.3,206.4 332.7,205.7 336.1,205.0 339.5,211.3 342.8,210.5 346.2,209.8 349.6,209.1 353.0,208.4 356.4,214.4 359.7,213.7 363.1,213.0 366.5,212.3 369.9,211.6 373.3,217.3 376.7,216.6 380.0,215.9 383.4,215.2 386.8,214.5 390.2,220.0 393.6,219.3 396.9,218.6 400.3,217.9 403.7,217.2 407.1,222.4 410.5,221.7 413.9,221.0 417.2,220.3 420.6,219.6 424.0,224.6 427.4,223.9 430.8,223.2 434.1,222.6 437.5,221.9 440.9,226.7 444.3,226.0 447.7,225.3 451.1,224.7 454.4,224.0 457.8,228.6 461.2,227.9 464.6,227.3 468.0,226.6 471.3,225.9 474.7,230.4 478.1,229.7 481.5,229.0 484.9,228.4 488.3,227.7 491.6,232.0 495.0,231.4 498.4,230.7 501.8,230.1 505.2,229.4 508.5,233.6 511.9,232.9 515.3,232.3 518.7,231.7 522.1,231.0 525.5,235.0 528.8,234.4 532.2,233.8 535.6,233.1 539.0,232.5 542.4,236.4 545.7,235.8 549.1,235.1 552.5,234.5 555.9,233.9 559.3,237.7 562.7,237.1 566.0,236.4 569.4,235.8 572.8,235.2 576.2,238.9 579.6,238.3 582.9,237.7 586.3,237.1 589.7,236.5 593.1,240.0 596.5,239.4 599.9,238.9 603.2,238.3 606.6,237.7 610.0,241.1 613.4,240.5 616.8,240.0 620.1,239.4 623.5,238.8 626.9,242.2 630.3,241.6 633.7,241.0 637.1,240.5 640.4,239.9 643.8,243.2 647.2,242.6 650.6,242.0 654.0,241.5 657.3,240.9 660.7,244.1 664.1,243.6 667.5,243.0 670.9,242.5 674.3,241.9 677.6,245.0 681.0,244.5 684.4,243.9 687.8,243.4 691.2,242.9 694.5,245.9 697.9,245.4 701.3,244.8 704.7,244.3 708.1,243.8 711.5,246.7 714.8,246.2 718.2,245.7 721.6,245.2 725.0,244.7 728.4,247.5 731.7,247.0 735.1,246.5 738.5,246.0 741.9,245.5 745.3,248.3 748.7,247.8 752.0,247.3 755.4,246.8 758.8,246.3 762.2,249.0 765.6,248.5 768.9,248.1 772.3,247.6 775.7,247.1 779.1,249.7 782.5,249.3 785.9,248.8 789.2,248.3 792.6,247.9 796.0,250.4"/>
<text x="640" y="72" font-family="Arial" font-size="12" fill="#2563eb">sqrt trace Ppos</text>
</svg>