<svg xmlns="http://www.w3.org/2000/svg" width="820" height="320" viewBox="0 0 820 320">
<rect width="100%" height="100%" fill="white"/>
<text x="52" y="30" font-family="Arial" font-size="18" font-weight="700">linear_nominal covariance bounds</text>
<line x1="52" y1="274" x2="796" y2="274" stroke="#263238"/>
<line x1="52" y1="42" x2="52" y2="274" stroke="#263238"/>
<text x="52" y="306" font-family="Arial" font-size="12">time (s)</text>
<text x="630" y="306" font-family="Arial" font-size="12">m</text>

<rect x="998.9" y="42" width="270.5" height="232" fill="#fef3c7" opacity="0.72"/>
<polyline fill="none" stroke="#0f766e" stroke-width="2.3" points="52.0,69.5 55.4,69.7 58.8,69.8 62.1,70.0 65.5,70.2 68.9,87.1 72.3,86.7 75.7,86.3 79.1,85.7 82.4,85.1 85.8,151.1 89.2,150.8 92.6,150.4 96.0,150.0 99.3,149.5 102.7,191.7 106.1,192.5 109.5,193.3 112.9,194.1 116.3,194.9 119.6,188.7 123.0,187.4 126.4,186.1 129.8,184.6 133.2,183.0 136.5,185.6 139.9,183.9 143.3,182.1 146.7,180.2 150.1,178.2 153.5,164.5 156.8,162.8 160.2,161.0 163.6,159.2 167.0,157.3 170.4,175.8 173.7,174.8 177.1,173.8 180.5,172.8 183.9,171.7 187.3,204.6 190.7,204.7 194.0,204.8 197.4,204.9 200.8,205.0 204.2,227.0 207.6,227.3 210.9,227.6 214.3,227.8 217.7,228.1 221.1,226.0 224.5,225.7 227.9,225.5 231.2,225.2 234.6,224.9 238.0,238.1 241.4,238.2 244.8,238.3 248.1,238.4 251.5,238.5 254.9,240.6 258.3,239.9 261.7,239.1 265.1,238.3 268.4,237.4 271.8,238.5 275.2,237.7 278.6,236.7 282.0,235.8 285.3,234.9 288.7,258.8 292.1,258.3 295.5,257.8 298.9,257.2 302.3,256.7 305.6,268.3 309.0,268.4 312.4,268.6 315.8,268.7 319.2,268.8 322.5,271.8 325.9,271.0 329.3,270.0 332.7,268.8 336.1,267.4 339.5,274.0 342.8,273.9 346.2,273.6 349.6,273.1 353.0,272.4 356.4,273.1 359.7,272.0 363.1,270.9 366.5,269.8 369.9,268.6 373.3,257.7 376.7,256.3 380.0,254.9 383.4,253.4 386.8,251.9 390.2,245.6 393.6,244.2 396.9,242.9 400.3,241.6 403.7,240.3 407.1,231.9 410.5,230.2 413.9,228.4 417.2,226.6 420.6,224.7 424.0,237.2 427.4,236.2 430.8,235.2 434.1,234.1 437.5,233.1 440.9,240.4 444.3,239.5 447.7,238.5 451.1,237.6 454.4,236.7 457.8,237.9 461.2,237.3 464.6,236.7 468.0,236.1 471.3,235.6 474.7,235.4 478.1,234.7 481.5,234.0 484.9,233.3 488.3,232.6 491.6,239.4 495.0,238.8 498.4,238.3 501.8,237.7 505.2,237.1 508.5,220.4 511.9,219.2 515.3,218.1 518.7,216.9 522.1,215.7 525.5,204.8 528.8,203.2 532.2,201.6 535.6,199.9 539.0,198.3 542.4,186.0 545.7,184.0 549.1,182.0 552.5,179.9 555.9,177.8 559.3,197.8 562.7,196.4 566.0,194.9 569.4,193.4 572.8,192.0 576.2,189.0 579.6,187.1 582.9,185.2 586.3,183.2 589.7,181.2 593.1,190.5 596.5,188.9 599.9,187.4 603.2,185.8 606.6,184.3 610.0,183.7 613.4,182.1 616.8,180.6 620.1,179.0 623.5,177.4 626.9,181.2 630.3,179.6 633.7,177.9 637.1,176.2 640.4,174.6 643.8,181.6 647.2,180.1 650.6,178.4 654.0,176.8 657.3,175.2 660.7,190.1 664.1,188.9 667.5,187.7 670.9,186.5 674.3,185.3 677.6,195.3 681.0,194.3 684.4,193.2 687.8,192.1 691.2,191.0 694.5,177.2 697.9,175.7 701.3,174.2 704.7,172.7 708.1,171.3 711.5,188.4 714.8,187.3 718.2,186.2 721.6,185.1 725.0,183.9 728.4,190.5 731.7,189.3 735.1,188.0 738.5,186.7 741.9,185.3 745.3,184.6 748.7,183.6 752.0,182.5 755.4,181.4 758.8,180.3 762.2,193.7 765.6,193.1 768.9,192.5 772.3,191.9 775.7,191.2 779.1,198.5 782.5,197.9 785.9,197.3 789.2,196.6 792.6,196.0 796.0,203.9"/>
<text x="640" y="56" font-family="Arial" font-size="12" fill="#0f766e">position error</text>
<polyline fill="none" stroke="#2563eb" stroke-width="2.3" points="52.0,42.5 55.4,42.4 58.8,42.4 62.1,42.2 65.5,42.0 68.9,106.1 72.3,106.0 75.7,105.8 79.1,105.6 82.4,105.3 85.8,136.1 89.2,135.9 92.6,135.7 96.0,135.3 99.3,134.9 102.7,154.3 106.1,154.0 109.5,153.7 112.9,153.2 116.3,152.7 119.6,166.7 123.0,166.3 126.4,165.9 129.8,165.4 133.2,164.7 136.5,175.7 139.9,175.3 143.3,174.8 146.7,174.2 150.1,173.5 153.5,182.6 156.8,182.1 160.2,181.6 163.6,181.0 167.0,180.3 170.4,188.0 173.7,187.5 177.1,186.9 180.5,186.3 183.9,185.5 187.3,192.4 190.7,191.8 194.0,191.2 197.4,190.5 200.8,189.8 204.2,195.9 207.6,195.4 210.9,194.7 214.3,194.0 217.7,193.3 221.1,198.9 224.5,198.3 227.9,197.7 231.2,197.0 234.6,196.2 238.0,201.4 241.4,200.8 244.8,200.1 248.1,199.4 251.5,198.6 254.9,203.5 258.3,202.9 261.7,202.2 265.1,201.5 268.4,200.7 271.8,205.4 275.2,204.7 278.6,204.0 282.0,203.3 285.3,202.5 288.7,206.9 292.1,206.3 295.5,205.5 298.9,204.8 302.3,204.0 305.6,208.3 309.0,207.6 312.4,206.9 315.8,206.1 319.2,205.3 322.5,209.4 325.9,208.8 329.3,208.0 332.7,207.3 336.1,206.5 339.5,210.5 342.8,209.8 346.2,209.1 349.6,208.3 353.0,207.5 356.4,211.4 359.7,210.7 363.1,209.9 366.5,209.2 369.9,208.3 373.3,212.1 376.7,211.5 380.0,210.7 383.4,209.9 386.8,209.1 390.2,212.8 393.6,212.1 396.9,211.4 400.3,210.6 403.7,209.8 407.1,213.4 410.5,212.7 413.9,212.0 417.2,211.2 420.6,210.4 424.0,214.0 427.4,213.3 430.8,212.5 434.1,211.8 437.5,211.0 440.9,214.5 444.3,213.8 447.7,213.0 451.1,212.2 454.4,211.4 457.8,214.9 461.2,214.2 464.6,213.4 468.0,212.7 471.3,211.9 474.7,215.3 478.1,214.6 481.5,213.8 484.9,213.1 488.3,212.2 491.6,215.6 495.0,214.9 498.4,214.2 501.8,213.4 505.2,212.6 508.5,215.9 511.9,215.2 515.3,214.5 518.7,213.7 522.1,212.9 525.5,216.2 528.8,215.5 532.2,214.7 535.6,214.0 539.0,213.2 542.4,216.4 545.7,215.7 549.1,215.0 552.5,214.2 555.9,213.4 559.3,216.6 562.7,215.9 566.0,215.2 569.4,214.4 572.8,213.6 576.2,216.8 579.6,216.1 582.9,215.4 586.3,214.6 589.7,213.8 593.1,217.0 596.5,216.3 599.9,215.5 603.2,214.8 606.6,214.0 610.0,217.1 613.4,216.4 616.8,215.7 620.1,215.0 623.5,214.2 626.9,217.3 630.3,216.6 633.7,215.8 637.1,215.1 640.4,214.3 643.8,217.4 647.2,216.7 650.6,216.0 654.0,215.2 657.3,214.4 660.7,217.5 664.1,216.8 667.5,216.1 670.9,215.3 674.3,214.6 677.6,217.6 681.0,216.9 684.4,216.2 687.8,215.4 691.2,214.7 694.5,217.7 697.9,217.0 701.3,216.3 704.7,215.5 708.1,214.8 711.5,217.8 714.8,217.1 718.2,216.4 721.6,215.6 725.0,214.9 728.4,217.8 731.7,217.2 735.1,216.5 738.5,215.7 741.9,215.0 745.3,217.9 748.7,217.2 752.0,216.5 755.4,215.8 758.8,215.0 762.2,218.0 765.6,217.3 768.9,216.6 772.3,215.9 775.7,215.1 779.1,218.0 782.5,217.3 785.9,216.6 789.2,215.9 792.6,215.2 796.0,218.1"/>
<text x="640" y="72" font-family="Arial" font-size="12" fill="#2563eb">sqrt trace Ppos</text>
</svg>