<svg xmlns="http://www.w3.org/2000/svg" width="820" height="320" viewBox="0 0 820 320">
<rect width="100%" height="100%" fill="white"/>
<text x="52" y="30" font-family="Arial" font-size="18" font-weight="700">abg_nominal NEES proxy</text>
<line x1="52" y1="274" x2="796" y2="274" stroke="#263238"/>
<line x1="52" y1="42" x2="52" y2="274" stroke="#263238"/>
<text x="52" y="306" font-family="Arial" font-size="12">time (s)</text>
<text x="630" y="306" font-family="Arial" font-size="12">value</text>

<rect x="998.9" y="42" width="270.5" height="232" fill="#fef3c7" opacity="0.72"/>
<polyline fill="none" stroke="#0f766e" stroke-width="2.3" points="52.0,271.4 55.4,271.3 58.8,271.2 62.1,271.1 65.5,271.0 68.9,268.5 72.3,268.3 75.7,268.1 79.1,267.9 82.4,267.6 85.8,271.8 89.2,271.8 92.6,271.7 96.0,271.7 99.3,271.6 102.7,274.0 106.1,274.0 109.5,274.0 112.9,274.0 116.3,273.9 119.6,271.1 123.0,271.0 126.4,270.8 129.8,270.7 133.2,270.5 136.5,267.7 139.9,267.5 143.3,267.3 146.7,267.0 150.1,266.7 153.5,246.4 156.8,245.6 160.2,244.7 163.6,243.6 167.0,242.4 170.4,270.4 173.7,270.7 177.1,271.0 180.5,271.3 183.9,271.5 187.3,264.2 190.7,262.9 194.0,261.4 197.4,259.7 200.8,257.8 204.2,267.1 207.6,266.6 210.9,265.9 214.3,265.1 217.7,264.1 221.1,262.3 224.5,261.8 227.9,261.1 231.2,260.2 234.6,259.3 238.0,271.8 241.4,271.5 244.8,271.1 248.1,270.8 251.5,270.3 254.9,259.8 258.3,259.1 261.7,258.2 265.1,257.3 268.4,256.1 271.8,269.8 275.2,270.0 278.6,270.2 282.0,270.3 285.3,270.3 288.7,257.9 292.1,257.0 295.5,255.9 298.9,254.7 302.3,253.4 305.6,259.3 309.0,258.4 312.4,257.5 315.8,256.4 319.2,255.2 322.5,265.0 325.9,264.5 329.3,263.9 332.7,263.2 336.1,262.3 339.5,264.3 342.8,264.3 346.2,264.1 349.6,263.9 353.0,263.6 356.4,245.6 359.7,246.4 363.1,246.9 366.5,247.1 369.9,247.2 373.3,255.4 376.7,254.4 380.0,253.1 383.4,251.6 386.8,249.8 390.2,234.8 393.6,232.4 396.9,229.7 400.3,226.6 403.7,223.2 407.1,185.3 410.5,185.4 413.9,184.8 417.2,183.5 420.6,181.7 424.0,197.0 427.4,199.0 430.8,200.3 434.1,201.0 437.5,201.2 440.9,236.2 444.3,238.7 447.7,240.7 451.1,242.4 454.4,243.8 457.8,246.4 461.2,246.1 464.6,245.4 468.0,244.5 471.3,243.3 474.7,258.0 478.1,257.2 481.5,256.3 484.9,255.2 488.3,253.9 491.6,191.7 495.0,187.5 498.4,182.7 501.8,177.3 505.2,171.1 508.5,250.0 511.9,249.7 515.3,249.4 518.7,249.0 522.1,248.6 525.5,195.1 528.8,193.4 532.2,191.3 535.6,188.8 539.0,185.9 542.4,182.3 545.7,179.8 549.1,177.0 552.5,173.8 555.9,170.3 559.3,203.2 562.7,204.1 566.0,204.3 569.4,204.0 572.8,203.1 576.2,189.9 579.6,192.2 582.9,193.7 586.3,194.2 589.7,194.0 593.1,262.1 596.5,262.6 599.9,262.8 603.2,262.9 606.6,262.8 610.0,225.8 613.4,223.7 616.8,221.3 620.1,218.6 623.5,215.6 626.9,243.9 630.3,241.9 633.7,239.6 637.1,237.2 640.4,234.6 643.8,209.2 647.2,205.4 650.6,200.7 654.0,195.3 657.3,188.9 660.7,42.0 664.1,46.5 667.5,48.7 670.9,48.9 674.3,47.2 677.6,245.2 681.0,242.8 684.4,239.6 687.8,235.7 691.2,231.1 694.5,238.8 697.9,235.8 701.3,232.4 704.7,228.8 708.1,224.9 711.5,189.6 714.8,190.3 718.2,190.2 721.6,189.3 725.0,187.7 728.4,203.6 731.7,197.0 735.1,189.6 738.5,181.2 741.9,171.9 745.3,154.3 748.7,149.0 752.0,142.9 755.4,136.0 758.8,128.3 762.2,196.5 765.6,198.0 768.9,198.9 772.3,199.3 775.7,199.2 779.1,272.6 782.5,272.9 785.9,273.1 789.2,273.1 792.6,272.9 796.0,184.0"/>
<text x="640" y="56" font-family="Arial" font-size="12" fill="#0f766e">abg_nominal NEES proxy</text>
</svg>