<svg xmlns="http://www.w3.org/2000/svg" width="820" height="320" viewBox="0 0 820 320">
<rect width="100%" height="100%" fill="white"/>
<text x="52" y="30" font-family="Arial" font-size="18" font-weight="700">linear_nominal NEES proxy</text>
<line x1="52" y1="274" x2="796" y2="274" stroke="#263238"/>
<line x1="52" y1="42" x2="52" y2="274" stroke="#263238"/>
<text x="52" y="306" font-family="Arial" font-size="12">time (s)</text>
<text x="630" y="306" font-family="Arial" font-size="12">value</text>

<rect x="998.9" y="42" width="270.5" height="232" fill="#fef3c7" opacity="0.72"/>
<polyline fill="none" stroke="#0f766e" stroke-width="2.3" points="52.0,202.4 55.4,200.4 58.8,198.4 62.1,196.5 65.5,194.6 68.9,179.6 72.3,179.9 75.7,180.2 79.1,180.5 82.4,180.8 85.8,214.4 89.2,214.4 92.6,214.4 96.0,214.4 99.3,214.3 102.7,238.2 106.1,239.0 109.5,239.5 112.9,239.6 116.3,239.4 119.6,226.6 123.0,225.4 126.4,224.1 129.8,222.6 133.2,221.0 136.5,211.2 139.9,208.8 143.3,206.4 146.7,204.0 150.1,201.7 153.5,154.7 156.8,152.0 160.2,149.5 163.6,147.2 167.0,145.0 170.4,177.9 173.7,177.0 177.1,176.1 180.5,175.3 183.9,174.5 187.3,216.1 190.7,216.6 194.0,217.3 197.4,217.9 200.8,218.7 204.2,239.3 207.6,239.5 210.9,239.8 214.3,240.2 217.7,240.7 221.1,239.0 224.5,238.8 227.9,238.6 231.2,238.4 234.6,238.3 238.0,251.3 241.4,251.2 244.8,251.1 248.1,251.1 251.5,251.1 254.9,252.2 258.3,251.4 261.7,250.7 265.1,250.0 268.4,249.2 271.8,247.9 275.2,247.0 278.6,246.2 282.0,245.4 285.3,244.6 288.7,268.0 292.1,267.8 295.5,267.6 298.9,267.4 302.3,267.2 305.6,272.6 309.0,272.7 312.4,272.7 315.8,272.7 319.2,272.8 322.5,271.7 325.9,271.3 329.3,270.9 332.7,270.5 336.1,269.9 339.5,273.8 342.8,273.7 346.2,273.6 349.6,273.4 353.0,273.2 356.4,274.0 359.7,273.7 363.1,273.4 366.5,273.1 369.9,272.7 373.3,262.8 376.7,261.9 380.0,260.9 383.4,259.8 386.8,258.7 390.2,246.9 393.6,245.9 396.9,244.8 400.3,243.9 403.7,243.1 407.1,196.5 410.5,195.0 413.9,193.5 417.2,192.0 420.6,190.4 424.0,176.8 427.4,177.3 430.8,178.0 434.1,178.9 437.5,179.8 440.9,192.4 444.3,193.0 447.7,193.7 451.1,194.6 454.4,195.6 457.8,191.8 461.2,193.4 464.6,195.2 468.0,197.1 471.3,198.9 474.7,214.1 478.1,215.3 481.5,216.4 484.9,217.5 488.3,218.6 491.6,237.7 495.0,238.1 498.4,238.4 501.8,238.6 505.2,238.8 508.5,171.5 511.9,171.7 515.3,171.8 518.7,172.1 522.1,172.4 525.5,123.5 528.8,122.0 532.2,120.6 535.6,119.2 539.0,118.0 542.4,61.1 545.7,58.2 549.1,55.4 552.5,52.6 555.9,49.9 559.3,76.5 562.7,76.1 566.0,75.7 569.4,75.5 572.8,75.5 576.2,47.0 579.6,45.7 582.9,44.5 586.3,43.3 589.7,42.0 593.1,66.4 596.5,66.0 599.9,65.7 603.2,65.3 606.6,65.2 610.0,66.8 613.4,65.4 616.8,64.1 620.1,62.7 623.5,61.4 626.9,80.4 630.3,77.6 633.7,74.9 637.1,72.3 640.4,70.0 643.8,79.3 647.2,77.0 650.6,74.7 654.0,72.4 657.3,70.4 660.7,112.0 664.1,110.9 667.5,110.0 670.9,109.1 674.3,108.3 677.6,129.5 681.0,128.6 684.4,127.8 687.8,127.0 691.2,126.3 694.5,59.4 697.9,57.4 701.3,55.6 704.7,54.2 708.1,52.9 711.5,104.5 714.8,103.5 718.2,102.5 721.6,101.7 725.0,100.9 728.4,112.0 731.7,110.4 735.1,108.8 738.5,107.2 741.9,105.6 745.3,88.0 748.7,87.7 752.0,87.5 755.4,87.4 758.8,87.3 762.2,122.8 765.6,123.5 768.9,124.4 772.3,125.3 775.7,126.1 779.1,134.5 782.5,134.6 785.9,134.9 789.2,135.2 792.6,135.7 796.0,147.8"/>
<text x="640" y="56" font-family="Arial" font-size="12" fill="#0f766e">linear_nominal NEES proxy</text>
</svg>