<svg xmlns="http://www.w3.org/2000/svg" width="820" height="320" viewBox="0 0 820 320">
<rect width="100%" height="100%" fill="white"/>
<text x="52" y="30" font-family="Arial" font-size="18" font-weight="700">abg_nominal NIS</text>
<line x1="52" y1="274" x2="796" y2="274" stroke="#263238"/>
<line x1="52" y1="42" x2="52" y2="274" stroke="#263238"/>
<text x="52" y="306" font-family="Arial" font-size="12">time (s)</text>
<text x="630" y="306" font-family="Arial" font-size="12">value</text>

<polyline fill="none" stroke="#0f766e" stroke-width="2.3" points="52.0,259.5 52.0,273.4 68.9,258.8 68.9,268.7 85.8,261.3 85.8,271.4 102.7,267.8 102.7,271.1 119.6,264.7 119.6,262.9 136.5,272.0 136.5,263.8 153.5,244.0 153.5,219.9 170.4,240.2 170.4,245.0 187.3,226.8 187.3,263.5 204.2,195.6 204.2,255.0 221.1,256.8 221.1,274.0 238.0,201.8 238.0,259.4 254.9,214.7 254.9,241.8 271.8,239.1 271.8,252.8 288.7,250.4 288.7,266.0 305.6,255.1 305.6,260.1 322.5,204.4 322.5,270.6 339.5,262.0 339.5,235.9 356.4,248.1 356.4,178.1 373.3,241.5 373.3,259.6 390.2,256.9 390.2,260.9 407.1,129.1 407.1,237.0 424.0,267.7 424.0,230.3 440.9,262.9 440.9,135.3 457.8,221.7 457.8,272.9 474.7,262.9 474.7,274.0 491.6,197.6 491.6,233.2 508.5,207.7 508.5,216.7 525.5,258.7 525.5,161.2 542.4,249.4 542.4,266.5 559.3,143.0 559.3,239.3 576.2,267.4 576.2,217.7 593.1,218.0 593.1,274.0 610.0,261.8 610.0,266.0 626.9,258.3 626.9,270.0 643.8,224.1 643.8,232.7 660.7,183.9 660.7,196.4 677.6,191.0 677.6,270.6 694.5,188.5 694.5,226.6 711.5,209.0 711.5,142.6 728.4,132.0 728.4,42.0 745.3,169.1 745.3,257.8 762.2,230.3 762.2,151.3 779.1,256.5 779.1,174.2 796.0,244.3 796.0,254.6"/>
<text x="640" y="56" font-family="Arial" font-size="12" fill="#0f766e">abg_nominal NIS</text>
</svg>