<svg xmlns="http://www.w3.org/2000/svg" width="820" height="320" viewBox="0 0 820 320">
<rect width="100%" height="100%" fill="white"/>
<text x="52" y="30" font-family="Arial" font-size="18" font-weight="700">linear_nominal NIS</text>
<line x1="52" y1="274" x2="796" y2="274" stroke="#263238"/>
<line x1="52" y1="42" x2="52" y2="274" stroke="#263238"/>
<text x="52" y="306" font-family="Arial" font-size="12">time (s)</text>
<text x="630" y="306" font-family="Arial" font-size="12">value</text>

<polyline fill="none" stroke="#0f766e" stroke-width="2.3" points="52.0,262.9 52.0,273.0 68.9,138.8 68.9,273.7 85.8,209.4 85.8,272.2 102.7,229.3 102.7,270.0 119.6,164.7 119.6,273.5 136.5,246.3 136.5,272.1 153.5,143.6 153.5,271.5 170.4,229.1 170.4,240.0 187.3,42.9 187.3,258.8 204.2,201.0 204.2,273.4 221.1,203.6 221.1,243.4 238.0,224.3 238.0,250.3 254.9,191.2 254.9,270.7 271.8,190.3 271.8,273.6 288.7,141.6 288.7,263.8 305.6,198.3 305.6,271.8 322.5,123.1 322.5,271.8 339.5,208.8 339.5,265.6 356.4,238.3 356.4,272.3 373.3,204.7 373.3,273.9 390.2,226.7 390.2,264.6 407.1,164.4 407.1,242.4 424.0,141.4 424.0,265.2 440.9,160.3 440.9,245.4 457.8,210.0 457.8,273.3 474.7,239.5 474.7,266.7 491.6,183.4 491.6,208.5 508.5,197.9 508.5,214.7 525.5,183.9 525.5,254.0 542.4,99.6 542.4,274.0 559.3,141.2 559.3,271.9 576.2,120.8 576.2,273.9 593.1,236.3 593.1,269.7 610.0,240.6 610.0,206.8 626.9,141.6 626.9,245.7 643.8,119.2 643.8,274.0 660.7,42.0 660.7,208.8 677.6,210.5 677.6,273.9 694.5,162.9 694.5,228.2 711.5,123.9 711.5,273.4 728.4,147.8 728.4,203.5 745.3,195.2 745.3,249.1 762.2,183.7 762.2,267.6 779.1,256.1 779.1,241.0 796.0,193.8 796.0,273.2"/>
<text x="640" y="56" font-family="Arial" font-size="12" fill="#0f766e">linear_nominal NIS</text>
</svg>