<svg xmlns="http://www.w3.org/2000/svg" width="820" height="320" viewBox="0 0 820 320">
<rect width="100%" height="100%" fill="white"/>
<text x="52" y="30" font-family="Arial" font-size="18" font-weight="700">linear_nominal position error</text>
<line x1="52" y1="274" x2="796" y2="274" stroke="#263238"/>
<line x1="52" y1="42" x2="52" y2="274" stroke="#263238"/>
<text x="52" y="306" font-family="Arial" font-size="12">time (s)</text>
<text x="630" y="306" font-family="Arial" font-size="12">m</text>

<rect x="998.9" y="42" width="270.5" height="232" fill="#fef3c7" opacity="0.72"/>
<polyline fill="none" stroke="#0f766e" stroke-width="2.3" points="52.0,42.0 55.4,42.2 58.8,42.4 62.1,42.6 65.5,42.8 68.9,62.0 72.3,61.6 75.7,61.0 79.1,60.4 82.4,59.7 85.8,134.6 89.2,134.3 92.6,133.8 96.0,133.3 99.3,132.8 102.7,180.7 106.1,181.6 109.5,182.5 112.9,183.4 116.3,184.3 119.6,177.3 123.0,175.8 126.4,174.3 129.8,172.6 133.2,170.8 136.5,173.8 139.9,171.8 143.3,169.8 146.7,167.6 150.1,165.4 153.5,149.8 156.8,147.8 160.2,145.8 163.6,143.8 167.0,141.7 170.4,162.6 173.7,161.5 177.1,160.4 180.5,159.2 183.9,157.9 187.3,195.2 190.7,195.4 194.0,195.5 197.4,195.6 200.8,195.8 204.2,220.7 207.6,221.0 210.9,221.3 214.3,221.6 217.7,222.0 221.1,219.5 224.5,219.2 227.9,218.9 231.2,218.6 234.6,218.3 238.0,233.3 241.4,233.4 244.8,233.5 248.1,233.7 251.5,233.7 254.9,236.1 258.3,235.3 261.7,234.4 265.1,233.5 268.4,232.5 271.8,233.8 275.2,232.8 278.6,231.7 282.0,230.7 285.3,229.7 288.7,256.8 292.1,256.2 295.5,255.6 298.9,255.0 302.3,254.3 305.6,267.6 309.0,267.7 312.4,267.8 315.8,268.0 319.2,268.1 322.5,271.5 325.9,270.6 329.3,269.4 332.7,268.1 336.1,266.5 339.5,274.0 342.8,273.9 346.2,273.6 349.6,273.0 353.0,272.2 356.4,273.0 359.7,271.8 363.1,270.5 366.5,269.2 369.9,267.8 373.3,255.5 376.7,253.9 380.0,252.3 383.4,250.7 386.8,249.0 390.2,241.7 393.6,240.2 396.9,238.7 400.3,237.3 403.7,235.8 407.1,226.3 410.5,224.3 413.9,222.3 417.2,220.2 420.6,218.1 424.0,232.2 427.4,231.1 430.8,229.9 434.1,228.8 437.5,227.6 440.9,235.9 444.3,234.8 447.7,233.8 451.1,232.7 454.4,231.7 457.8,233.0 461.2,232.3 464.6,231.7 468.0,231.1 471.3,230.4 474.7,230.2 478.1,229.5 481.5,228.7 484.9,227.9 488.3,227.1 491.6,234.8 495.0,234.1 498.4,233.5 501.8,232.8 505.2,232.1 508.5,213.2 511.9,211.9 515.3,210.5 518.7,209.2 522.1,207.9 525.5,195.5 528.8,193.7 532.2,191.9 535.6,190.0 539.0,188.1 542.4,174.2 545.7,171.9 549.1,169.6 552.5,167.3 555.9,164.9 559.3,187.6 562.7,186.0 566.0,184.3 569.4,182.6 572.8,180.9 576.2,177.6 579.6,175.4 582.9,173.2 586.3,171.0 589.7,168.7 593.1,179.3 596.5,177.5 599.9,175.7 603.2,174.0 606.6,172.2 610.0,171.5 613.4,169.8 616.8,168.1 620.1,166.3 623.5,164.5 626.9,168.7 630.3,166.9 633.7,165.0 637.1,163.1 640.4,161.2 643.8,169.2 647.2,167.4 650.6,165.6 654.0,163.8 657.3,161.9 660.7,178.8 664.1,177.5 667.5,176.2 670.9,174.8 674.3,173.4 677.6,184.8 681.0,183.6 684.4,182.3 687.8,181.1 691.2,179.8 694.5,164.2 697.9,162.5 701.3,160.8 704.7,159.1 708.1,157.5 711.5,176.9 714.8,175.7 718.2,174.4 721.6,173.1 725.0,171.8 728.4,179.3 731.7,177.9 735.1,176.5 738.5,174.9 741.9,173.4 745.3,172.6 748.7,171.4 752.0,170.2 755.4,169.0 758.8,167.8 762.2,183.0 765.6,182.2 768.9,181.6 772.3,180.9 775.7,180.1 779.1,188.3 782.5,187.6 785.9,187.0 789.2,186.2 792.6,185.6 796.0,194.5"/>
<text x="640" y="56" font-family="Arial" font-size="12" fill="#0f766e">linear_nominal position error</text>
</svg>