<svg xmlns="http://www.w3.org/2000/svg" width="820" height="320" viewBox="0 0 820 320">
<rect width="100%" height="100%" fill="white"/>
<text x="52" y="30" font-family="Arial" font-size="18" font-weight="700">abg_nominal position error</text>
<line x1="52" y1="274" x2="796" y2="274" stroke="#263238"/>
<line x1="52" y1="42" x2="52" y2="274" stroke="#263238"/>
<text x="52" y="306" font-family="Arial" font-size="12">time (s)</text>
<text x="630" y="306" font-family="Arial" font-size="12">m</text>

<rect x="998.9" y="42" width="270.5" height="232" fill="#fef3c7" opacity="0.72"/>
<polyline fill="none" stroke="#0f766e" stroke-width="2.3" points="52.0,134.0 55.4,131.6 58.8,129.1 62.1,126.4 65.5,123.6 68.9,93.3 72.3,89.8 75.7,86.1 79.1,82.0 82.4,77.7 85.8,172.8 89.2,171.6 92.6,170.0 96.0,168.0 99.3,165.5 102.7,252.3 106.1,252.2 109.5,251.0 112.9,248.6 116.3,244.9 119.6,190.9 123.0,188.6 126.4,186.1 129.8,183.1 133.2,179.7 136.5,161.4 139.9,158.5 143.3,155.2 146.7,151.5 150.1,147.5 153.5,65.1 156.8,60.2 160.2,54.6 163.6,48.6 167.0,42.0 170.4,193.6 173.7,195.5 177.1,197.5 180.5,199.5 183.9,201.4 187.3,196.4 190.7,188.7 194.0,180.4 197.4,171.4 200.8,161.7 204.2,181.0 207.6,174.6 210.9,167.6 214.3,159.9 217.7,151.5 221.1,154.7 224.5,149.5 227.9,143.8 231.2,137.5 234.6,130.7 238.0,221.8 241.4,218.2 244.8,214.3 248.1,210.0 251.5,205.3 254.9,158.3 258.3,153.2 261.7,147.7 265.1,141.7 268.4,135.2 271.8,239.1 275.2,239.4 278.6,239.4 282.0,239.3 285.3,238.8 288.7,150.5 292.1,145.9 295.5,140.8 298.9,135.2 302.3,129.1 305.6,168.1 309.0,163.8 312.4,159.0 315.8,153.9 319.2,148.3 322.5,215.3 325.9,212.2 329.3,208.8 332.7,204.9 336.1,200.7 339.5,212.8 342.8,211.2 346.2,209.3 349.6,207.3 353.0,205.0 356.4,205.9 359.7,204.7 363.1,203.4 366.5,201.7 369.9,199.9 373.3,188.9 376.7,183.3 380.0,177.3 383.4,170.8 386.8,163.9 390.2,131.6 393.6,125.3 396.9,118.6 400.3,111.4 403.7,103.6 407.1,164.1 410.5,160.4 413.9,156.3 417.2,151.8 420.6,147.0 424.0,173.3 427.4,171.0 430.8,168.3 434.1,165.3 437.5,161.9 440.9,208.0 444.3,207.9 447.7,207.6 451.1,207.0 454.4,206.2 457.8,182.8 461.2,179.5 464.6,175.9 468.0,171.8 471.3,167.4 474.7,205.2 478.1,202.9 481.5,200.3 484.9,197.5 488.3,194.4 491.6,111.4 495.0,105.3 498.4,98.5 501.8,91.2 505.2,83.2 508.5,204.5 511.9,202.9 515.3,201.2 518.7,199.5 522.1,197.7 525.5,151.4 528.8,147.2 532.2,142.8 535.6,138.2 539.0,133.3 542.4,119.0 545.7,114.7 549.1,110.1 552.5,105.2 555.9,100.0 559.3,199.6 562.7,197.6 566.0,195.3 569.4,192.5 572.8,189.2 576.2,187.2 579.6,184.9 582.9,182.1 586.3,178.7 589.7,174.7 593.1,230.7 596.5,230.6 599.9,230.3 603.2,229.9 606.6,229.2 610.0,187.5 613.4,184.5 616.8,181.1 620.1,177.6 623.5,173.7 626.9,214.6 630.3,211.9 633.7,209.0 637.1,206.0 640.4,202.8 643.8,180.1 647.2,174.4 650.6,168.2 654.0,161.3 657.3,154.0 660.7,152.1 664.1,149.0 667.5,145.4 670.9,141.3 674.3,136.7 677.6,211.8 681.0,207.4 684.4,202.4 687.8,196.9 691.2,190.9 694.5,208.7 697.9,204.6 701.3,200.2 704.7,195.7 708.1,190.9 711.5,201.5 714.8,199.1 718.2,196.3 721.6,193.3 725.0,189.8 728.4,185.8 731.7,179.9 735.1,173.4 738.5,166.5 741.9,159.0 745.3,152.8 748.7,147.9 752.0,142.6 755.4,137.0 758.8,130.8 762.2,200.8 765.6,199.8 768.9,198.5 772.3,197.1 775.7,195.5 779.1,273.5 782.5,274.0 785.9,273.8 789.2,272.9 792.6,271.1 796.0,181.4"/>
<text x="640" y="56" font-family="Arial" font-size="12" fill="#0f766e">abg_nominal position error</text>
</svg>