<svg xmlns="http://www.w3.org/2000/svg" width="820" height="320" viewBox="0 0 820 320">
<rect width="100%" height="100%" fill="white"/>
<text x="52" y="30" font-family="Arial" font-size="18" font-weight="700">abg_nominal residuals</text>
<line x1="52" y1="274" x2="796" y2="274" stroke="#263238"/>
<line x1="52" y1="42" x2="52" y2="274" stroke="#263238"/>
<text x="52" y="306" font-family="Arial" font-size="12">time (s)</text>
<text x="630" y="306" font-family="Arial" font-size="12">norm</text>

<polyline fill="none" stroke="#0f766e" stroke-width="2.3" points="52.0,103.8 52.0,245.8 68.9,116.3 68.9,204.6 85.8,134.2 85.8,232.1 102.7,182.8 102.7,235.9 119.6,181.4 119.6,208.7 136.5,235.1 136.5,219.0 153.5,133.3 153.5,160.7 170.4,125.2 170.4,199.6 187.3,108.4 187.3,233.6 204.2,88.1 204.2,223.9 221.1,165.9 221.1,272.6 238.0,66.3 238.0,235.6 254.9,95.4 254.9,219.7 271.8,134.6 271.8,232.0 288.7,164.2 288.7,249.3 305.6,178.9 305.6,242.4 322.5,96.0 322.5,259.0 339.5,200.2 339.5,223.9 356.4,175.6 356.4,195.9 373.3,157.6 373.3,244.6 390.2,193.0 390.2,246.5 407.1,42.0 407.1,228.1 424.0,224.9 424.0,224.8 440.9,208.9 440.9,187.3 457.8,134.6 457.8,266.7 474.7,210.7 474.7,274.0 491.6,107.5 491.6,228.9 508.5,120.1 508.5,221.1 525.5,204.0 525.5,200.4 542.4,186.0 542.4,255.5 559.3,64.1 559.3,234.2 576.2,227.0 576.2,223.7 593.1,139.3 593.1,273.6 610.0,210.7 610.0,255.7 626.9,202.3 626.9,261.3 643.8,145.8 643.8,232.5 660.7,105.4 660.7,217.4 677.6,114.6 677.6,262.7 694.5,107.9 694.5,230.6 711.5,131.1 711.5,201.9 728.4,64.8 728.4,178.7 745.3,92.2 745.3,249.3 762.2,157.6 762.2,205.7 779.1,200.5 779.1,212.9 796.0,178.2 796.0,247.5"/>
<text x="640" y="56" font-family="Arial" font-size="12" fill="#0f766e">abg_nominal residuals</text>
</svg>