<svg xmlns="http://www.w3.org/2000/svg" width="820" height="320" viewBox="0 0 820 320">
<rect width="100%" height="100%" fill="white"/>
<text x="52" y="30" font-family="Arial" font-size="18" font-weight="700">linear_nominal residuals</text>
<line x1="52" y1="274" x2="796" y2="274" stroke="#263238"/>
<line x1="52" y1="42" x2="52" y2="274" stroke="#263238"/>
<text x="52" y="306" font-family="Arial" font-size="12">time (s)</text>
<text x="630" y="306" font-family="Arial" font-size="12">norm</text>

<polyline fill="none" stroke="#0f766e" stroke-width="2.3" points="52.0,64.1 52.0,250.7 68.9,42.0 68.9,268.3 85.8,86.2 85.8,262.1 102.7,156.5 102.7,256.8 119.6,148.3 119.6,268.4 136.5,159.0 136.5,262.8 153.5,49.0 153.5,261.2 170.4,211.3 170.4,225.8 187.3,64.8 187.3,242.0 204.2,75.7 204.2,267.9 221.1,129.5 221.1,228.6 238.0,122.7 238.0,234.2 254.9,75.1 254.9,259.4 271.8,175.4 271.8,269.3 288.7,84.0 288.7,248.0 305.6,159.1 305.6,262.0 322.5,151.4 322.5,262.2 339.5,193.7 339.5,250.5 356.4,153.9 356.4,263.7 373.3,150.2 373.3,271.3 390.2,145.8 390.2,249.2 407.1,79.9 407.1,228.2 424.0,168.4 424.0,250.0 440.9,183.2 440.9,230.4 457.8,154.7 457.8,267.6 474.7,223.1 474.7,252.1 491.6,62.3 491.6,207.9 508.5,237.3 508.5,211.2 525.5,153.5 525.5,237.7 542.4,156.1 542.4,272.9 559.3,99.7 559.3,262.5 576.2,136.0 576.2,271.8 593.1,174.6 593.1,257.3 610.0,195.4 610.0,207.2 626.9,215.1 626.9,230.8 643.8,90.0 643.8,274.0 660.7,69.0 660.7,208.2 677.6,118.9 677.6,271.2 694.5,197.3 694.5,219.0 711.5,85.3 711.5,268.2 728.4,59.7 728.4,205.7 745.3,167.7 745.3,233.5 762.2,166.6 762.2,253.6 779.1,179.4 779.1,227.4 796.0,87.9 796.0,267.1"/>
<text x="640" y="56" font-family="Arial" font-size="12" fill="#0f766e">linear_nominal residuals</text>
</svg>