<svg xmlns="http://www.w3.org/2000/svg" width="820" height="320" viewBox="0 0 820 320">
<rect width="100%" height="100%" fill="white"/>
<text x="52" y="30" font-family="Arial" font-size="18" font-weight="700">linear_nominal velocity error</text>
<line x1="52" y1="274" x2="796" y2="274" stroke="#263238"/>
<line x1="52" y1="42" x2="52" y2="274" stroke="#263238"/>
<text x="52" y="306" font-family="Arial" font-size="12">time (s)</text>
<text x="630" y="306" font-family="Arial" font-size="12">m/s</text>

<rect x="998.9" y="42" width="270.5" height="232" fill="#fef3c7" opacity="0.72"/>
<polyline fill="none" stroke="#0f766e" stroke-width="2.3" points="52.0,54.3 55.4,59.9 58.8,63.1 62.1,70.5 65.5,71.8 68.9,227.9 72.3,205.2 75.7,184.4 79.1,168.8 82.4,150.3 85.8,260.3 89.2,251.4 92.6,237.1 96.0,230.4 99.3,220.9 102.7,104.2 106.1,93.0 109.5,73.1 112.9,56.0 116.3,42.0 119.6,160.1 123.0,147.8 126.4,132.7 129.8,124.4 133.2,108.8 136.5,135.8 139.9,127.3 143.3,120.1 146.7,117.6 150.1,108.0 153.5,115.8 156.8,108.6 160.2,104.1 163.6,98.8 167.0,91.1 170.4,106.6 173.7,105.6 177.1,98.5 180.5,90.8 183.9,80.1 187.3,267.2 190.7,264.2 194.0,265.6 197.4,266.0 200.8,266.6 204.2,234.7 207.6,230.5 210.9,228.4 214.3,226.6 217.7,220.0 221.1,241.0 224.5,245.3 227.9,246.7 231.2,242.1 234.6,239.8 238.0,222.9 241.4,217.4 244.8,216.9 248.1,215.4 251.5,212.3 254.9,187.2 258.3,184.2 261.7,186.7 265.1,184.9 268.4,181.1 271.8,217.7 275.2,217.9 278.6,215.0 282.0,215.2 285.3,214.6 288.7,240.0 292.1,241.1 295.5,243.1 298.9,235.4 302.3,232.9 305.6,274.0 309.0,271.5 312.4,266.7 315.8,264.3 319.2,263.2 322.5,163.1 325.9,158.3 329.3,154.6 332.7,148.8 336.1,137.9 339.5,192.9 342.8,188.8 346.2,180.9 349.6,182.4 353.0,183.9 356.4,191.0 359.7,189.9 363.1,190.6 366.5,186.2 369.9,189.5 373.3,171.0 376.7,171.6 380.0,166.3 383.4,163.8 386.8,159.7 390.2,180.6 393.6,179.3 396.9,180.8 400.3,182.9 403.7,183.2 407.1,138.8 410.5,136.5 413.9,132.9 417.2,126.4 420.6,125.7 424.0,206.6 427.4,210.9 430.8,208.9 434.1,206.0 437.5,205.2 440.9,214.6 444.3,212.4 447.7,211.9 451.1,215.5 454.4,218.4 457.8,253.5 461.2,248.6 464.6,253.6 468.0,250.8 471.3,251.6 474.7,228.5 478.1,225.1 481.5,221.1 484.9,224.0 488.3,227.1 491.6,232.1 495.0,231.2 498.4,235.5 501.8,231.2 505.2,230.7 508.5,196.4 511.9,194.2 515.3,193.3 518.7,195.5 522.1,191.2 525.5,157.8 528.8,157.7 532.2,152.2 535.6,151.6 539.0,148.5 542.4,111.2 545.7,111.1 549.1,110.7 552.5,108.2 555.9,106.3 559.3,174.5 562.7,169.6 566.0,165.3 569.4,165.5 572.8,164.8 576.2,116.1 579.6,113.4 582.9,112.5 586.3,108.5 589.7,107.7 593.1,146.0 596.5,149.8 599.9,149.6 603.2,152.0 606.6,157.9 610.0,158.0 613.4,160.4 616.8,155.5 620.1,152.9 623.5,151.5 626.9,141.8 630.3,141.1 633.7,140.6 637.1,142.6 640.4,143.7 643.8,157.8 647.2,154.6 650.6,149.8 654.0,151.2 657.3,148.0 660.7,200.7 664.1,197.4 667.5,197.5 670.9,194.3 674.3,195.2 677.6,208.3 681.0,206.8 684.4,204.6 687.8,203.4 691.2,200.0 694.5,168.0 697.9,165.1 701.3,169.0 704.7,173.4 708.1,162.5 711.5,192.5 714.8,192.3 718.2,191.2 721.6,187.4 725.0,190.8 728.4,173.7 731.7,169.3 735.1,168.5 738.5,166.9 741.9,165.6 745.3,199.1 748.7,199.0 752.0,199.1 755.4,197.2 758.8,197.9 762.2,229.0 765.6,229.4 768.9,231.8 772.3,229.0 775.7,225.7 779.1,232.0 782.5,232.1 785.9,231.4 789.2,230.9 792.6,234.1 796.0,221.0"/>
<text x="640" y="56" font-family="Arial" font-size="12" fill="#0f766e">linear_nominal velocity error</text>
</svg>