<svg xmlns="http://www.w3.org/2000/svg" width="820" height="320" viewBox="0 0 820 320">
<rect width="100%" height="100%" fill="white"/>
<text x="52" y="30" font-family="Arial" font-size="18" font-weight="700">abg_nominal velocity error</text>
<line x1="52" y1="274" x2="796" y2="274" stroke="#263238"/>
<line x1="52" y1="42" x2="52" y2="274" stroke="#263238"/>
<text x="52" y="306" font-family="Arial" font-size="12">time (s)</text>
<text x="630" y="306" font-family="Arial" font-size="12">m/s</text>

<rect x="998.9" y="42" width="270.5" height="232" fill="#fef3c7" opacity="0.72"/>
<polyline fill="none" stroke="#0f766e" stroke-width="2.3" points="52.0,215.0 55.4,211.5 58.8,207.9 62.1,204.3 65.5,200.7 68.9,209.6 72.3,201.1 75.7,192.6 79.1,183.9 82.4,175.2 85.8,182.8 89.2,170.1 92.6,157.4 96.0,144.7 99.3,131.9 102.7,172.3 106.1,160.3 109.5,148.3 112.9,136.3 116.3,124.3 119.6,211.6 123.0,201.2 126.4,190.7 129.8,180.1 133.2,169.6 136.5,212.1 139.9,202.4 143.3,192.5 146.7,182.5 150.1,172.4 153.5,184.7 156.8,171.4 160.2,158.0 163.6,144.3 167.0,130.6 170.4,218.9 173.7,217.9 177.1,216.9 180.5,215.8 183.9,214.6 187.3,105.7 190.7,89.8 194.0,73.9 197.4,57.9 200.8,42.0 204.2,141.8 207.6,126.7 210.9,111.5 214.3,96.3 217.7,81.1 221.1,174.2 224.5,161.5 227.9,148.8 231.2,135.9 234.6,123.1 238.0,210.9 241.4,202.9 244.8,194.8 248.1,186.7 251.5,178.5 254.9,178.2 258.3,167.4 261.7,156.6 265.1,145.6 268.4,134.7 271.8,259.5 275.2,256.9 278.6,253.9 282.0,250.7 285.3,247.2 288.7,191.2 292.1,178.9 295.5,166.6 298.9,154.3 302.3,142.0 305.6,191.4 309.0,181.4 312.4,171.5 315.8,161.6 319.2,151.7 322.5,227.9 325.9,218.4 329.3,208.9 332.7,199.4 336.1,189.8 339.5,263.0 342.8,257.3 346.2,251.5 349.6,245.7 353.0,239.9 356.4,258.4 359.7,254.1 363.1,249.5 366.5,244.7 369.9,239.8 373.3,159.3 376.7,148.9 380.0,138.6 383.4,128.2 386.8,117.8 390.2,150.9 393.6,138.6 396.9,126.3 400.3,114.0 403.7,101.7 407.1,212.2 410.5,202.1 413.9,192.0 417.2,181.9 420.6,171.6 424.0,223.4 427.4,214.7 430.8,206.0 434.1,197.3 437.5,188.5 440.9,244.2 444.3,239.8 447.7,235.2 451.1,230.5 454.4,225.6 457.8,196.1 461.2,187.8 464.6,179.4 468.0,171.0 471.3,162.7 474.7,216.0 478.1,210.6 481.5,205.1 484.9,199.7 488.3,194.2 491.6,148.2 495.0,132.9 498.4,117.5 501.8,102.2 505.2,86.8 508.5,258.7 511.9,256.9 515.3,255.0 518.7,253.0 522.1,250.9 525.5,201.5 528.8,195.5 532.2,189.4 535.6,183.2 539.0,177.1 542.4,187.3 545.7,180.8 549.1,174.1 552.5,167.3 555.9,160.5 559.3,192.5 562.7,182.0 566.0,171.4 569.4,160.9 572.8,150.3 576.2,199.9 579.6,188.1 582.9,176.1 586.3,164.0 589.7,151.7 593.1,242.4 596.5,237.5 599.9,232.5 603.2,227.2 606.6,221.7 610.0,215.2 613.4,209.1 616.8,202.9 620.1,196.6 623.5,190.2 626.9,208.7 630.3,204.0 633.7,199.3 637.1,194.6 640.4,189.8 643.8,159.9 647.2,146.3 650.6,132.5 654.0,118.7 657.3,104.8 660.7,217.7 664.1,205.2 667.5,192.6 670.9,180.0 674.3,167.4 677.6,168.6 681.0,159.1 684.4,149.5 687.8,139.7 691.2,129.8 694.5,198.1 697.9,193.0 701.3,188.0 704.7,182.9 708.1,177.8 711.5,238.4 714.8,229.5 718.2,220.5 721.6,211.5 725.0,202.4 728.4,158.4 731.7,146.3 735.1,134.2 738.5,122.0 741.9,109.7 745.3,185.3 748.7,175.3 752.0,165.3 755.4,155.3 758.8,145.3 762.2,274.0 765.6,268.9 768.9,263.7 772.3,258.6 775.7,253.4 779.1,238.7 782.5,234.4 785.9,230.1 789.2,225.6 792.6,221.1 796.0,172.0"/>
<text x="640" y="56" font-family="Arial" font-size="12" fill="#0f766e">abg_nominal velocity error</text>
</svg>