<svg xmlns="http://www.w3.org/2000/svg" width="820" height="320" viewBox="0 0 820 320">
<rect width="100%" height="100%" fill="white"/>
<text x="52" y="30" font-family="Arial" font-size="18" font-weight="700">aggressive position error</text>
<line x1="52" y1="274" x2="796" y2="274" stroke="#263238"/>
<line x1="52" y1="42" x2="52" y2="274" stroke="#263238"/>
<text x="52" y="306" font-family="Arial" font-size="12">time (s)</text>
<text x="630" y="306" font-family="Arial" font-size="12">m</text>

<rect x="399.2" y="42" width="99.2" height="232" fill="#fef3c7" opacity="0.72"/>
<polyline fill="none" stroke="#0f766e" stroke-width="2.3" points="52.0,56.5 52.6,55.7 53.2,55.0 53.9,54.3 54.5,52.5 55.1,51.2 55.7,49.9 56.3,48.5 57.0,49.2 57.6,48.0 58.2,46.6 58.8,45.2 59.4,47.4 60.1,46.6 60.7,45.8 61.3,45.0 61.9,44.4 62.5,43.6 63.2,42.8 63.8,42.0 64.4,181.5 65.0,179.0 65.6,175.7 66.3,171.8 66.9,167.0 67.5,162.0 68.1,156.4 68.7,150.5 69.4,144.1 70.0,137.5 70.6,130.6 71.2,123.5 71.8,116.5 72.5,109.0 73.1,101.3 73.7,93.5 74.3,85.6 74.9,77.6 75.6,69.5 76.2,61.2 76.8,170.3 77.4,166.9 78.0,163.4 78.7,159.8 79.3,156.1 79.9,152.3 80.5,148.4 81.1,144.3 81.8,140.2 82.4,136.0 83.0,131.8 83.6,127.5 84.2,122.8 84.9,118.4 85.5,113.9 86.1,109.3 86.7,104.1 87.3,99.5 88.0,94.7 88.6,90.0 89.2,199.6 89.8,199.9 90.4,200.1 91.1,200.3 91.7,202.6 92.3,202.9 92.9,203.2 93.5,203.6 94.2,203.7 94.8,204.0 95.4,204.2 96.0,204.4 96.6,205.3 97.3,205.5 97.9,205.7 98.5,205.9 99.1,205.4 99.7,205.4 100.4,205.3 101.0,205.3 101.6,189.9 102.2,189.6 102.8,189.3 103.5,188.9 104.1,189.3 104.7,189.0 105.3,188.6 105.9,188.2 106.6,187.5 107.2,187.0 107.8,186.5 108.4,186.0 109.0,187.4 109.7,187.0 110.3,186.6 110.9,186.2 111.5,185.4 112.1,185.0 112.8,184.5 113.4,184.1 114.0,197.6 114.6,196.3 115.2,195.0 115.9,193.7 116.5,192.6 117.1,191.2 117.7,189.8 118.3,188.3 119.0,186.8 119.6,185.3 120.2,183.8 120.8,182.2 121.4,180.5 122.1,178.9 122.7,177.2 123.3,175.6 123.9,173.6 124.5,171.9 125.2,170.1 125.8,168.4 126.4,218.2 127.0,215.4 127.6,212.6 128.3,209.7 128.9,207.6 129.5,204.7 130.1,201.8 130.7,198.8 131.4,194.9 132.0,191.9 132.6,188.8 133.2,185.7 133.8,183.5 134.5,180.4 135.1,177.2 135.7,173.9 136.3,170.6 136.9,167.4 137.6,164.0 138.2,160.7 138.8,229.7 139.4,227.6 140.0,225.4 140.7,223.2 141.3,220.7 141.9,218.5 142.5,216.2 143.1,214.0 143.8,211.6 144.4,209.3 145.0,206.9 145.6,204.6 146.2,202.2 146.9,199.8 147.5,197.4 148.1,194.9 148.7,192.5 149.3,190.0 150.0,187.4 150.6,184.8 151.2,267.1 151.8,266.0 152.4,264.8 153.1,263.7 153.7,260.9 154.3,259.7 154.9,258.4 155.5,257.1 156.2,253.5 156.8,252.2 157.4,250.8 158.0,249.5 158.6,248.2 159.3,246.8 159.9,245.3 160.5,243.8 161.1,243.7 161.7,242.2 162.4,240.7 163.0,239.1 163.6,244.0 164.2,242.7 164.8,241.4 165.5,240.1 166.1,239.5 166.7,238.2 167.3,236.8 167.9,235.5 168.6,234.2 169.2,232.8 169.8,231.3 170.4,229.9 171.0,228.5 171.7,227.0 172.3,225.5 172.9,224.0 173.5,222.5 174.1,221.0 174.8,219.4 175.4,217.8 176.0,266.0 176.6,265.4 177.2,264.8 177.9,264.1 178.5,262.7 179.1,262.0 179.7,261.3 180.3,260.6 181.0,258.1 181.6,257.3 182.2,256.5 182.8,255.7 183.4,256.2 184.1,255.3 184.7,254.5 185.3,253.6 185.9,251.1 186.5,250.2 187.2,249.3 187.8,248.3 188.4,204.1 189.0,203.2 189.6,202.2 190.3,201.3 190.9,201.0 191.5,200.1 192.1,199.2 192.7,198.2 193.4,197.6 194.0,196.7 194.6,195.8 195.2,194.8 195.8,192.5 196.5,191.5 197.1,190.5 197.7,189.5 198.3,189.7 198.9,188.7 199.6,187.7 200.2,186.7 200.8,233.4 201.4,232.7 202.0,232.0 202.7,231.3 203.3,231.0 203.9,230.3 204.5,229.6 205.1,228.9 205.8,228.0 206.4,227.3 207.0,226.5 207.6,225.7 208.2,225.0 208.9,224.2 209.5,223.3 210.1,222.5 210.7,221.6 211.3,220.7 212.0,219.8 212.6,218.9 213.2,237.1 213.8,236.9 214.4,236.6 215.1,236.3 215.7,236.0 216.3,235.7 216.9,235.4 217.5,235.1 218.2,234.4 218.8,234.1 219.4,233.8 220.0,233.4 220.6,233.1 221.3,232.8 221.9,232.4 222.5,232.1 223.1,231.4 223.7,231.0 224.4,230.6 225.0,230.2 225.6,223.6 226.2,223.0 226.8,222.3 227.5,221.7 228.1,220.7 228.7,220.0 229.3,219.3 229.9,218.6 230.6,217.3 231.2,216.6 231.8,215.8 232.4,215.0 233.0,212.8 233.7,212.0 234.3,211.2 234.9,210.4 235.5,209.5 236.1,208.7 236.8,207.8 237.4,206.9 238.0,258.1 238.6,258.0 239.2,257.8 239.9,257.6 240.5,260.5 241.1,260.3 241.7,260.1 242.3,259.9 243.0,258.3 243.6,258.0 244.2,257.7 244.8,257.3 245.4,259.8 246.1,259.4 246.7,258.9 247.3,258.5 247.9,258.0 248.5,257.5 249.2,257.0 249.8,256.5 250.4,272.3 251.0,271.8 251.6,271.3 252.3,270.7 252.9,271.8 253.5,271.1 254.1,270.4 254.7,269.7 255.4,268.9 256.0,268.1 256.6,267.3 257.2,266.5 257.8,265.7 258.5,264.8 259.1,264.0 259.7,263.1 260.3,261.5 260.9,260.6 261.6,259.7 262.2,258.8 262.8,272.2 263.4,272.4 264.0,272.5 264.7,272.6 265.3,274.0 265.9,274.0 266.5,273.9 267.1,273.8 267.8,273.7 268.4,273.5 269.0,273.3 269.6,273.0 270.2,271.6 270.9,271.3 271.5,270.9 272.1,270.5 272.7,270.6 273.3,270.1 274.0,269.6 274.6,269.1 275.2,216.2 275.8,215.1 276.4,213.9 277.1,212.8 277.7,211.5 278.3,210.3 278.9,209.1 279.5,208.0 280.2,207.1 280.8,205.9 281.4,204.7 282.0,203.4 282.6,202.2 283.3,201.0 283.9,199.7 284.5,198.4 285.1,197.1 285.7,195.8 286.4,194.5 287.0,193.2 287.6,206.2 288.2,205.1 288.8,203.9 289.5,202.7 290.1,201.6 290.7,200.4 291.3,199.1 291.9,197.9 292.6,196.8 293.2,195.6 293.8,194.4 294.4,193.1 295.0,191.9 295.7,190.6 296.3,189.4 296.9,188.1 297.5,186.7 298.1,185.4 298.8,184.1 299.4,182.8 300.0,266.8 300.6,266.5 301.2,266.2 301.9,265.9 302.5,266.1 303.1,265.7 303.7,265.4 304.3,265.0 305.0,264.3 305.6,263.9 306.2,263.5 306.8,263.0 307.4,262.7 308.1,262.2 308.7,261.8 309.3,261.3 309.9,261.1 310.5,260.6 311.2,260.1 311.8,259.6 312.4,250.0 313.0,249.6 313.6,249.2 314.3,248.7 314.9,248.2 315.5,247.7 316.1,247.3 316.7,246.8 317.4,246.6 318.0,246.1 318.6,245.6 319.2,245.1 319.8,244.1 320.5,243.6 321.1,243.0 321.7,242.5 322.3,242.3 322.9,241.7 323.6,241.2 324.2,240.6 324.8,234.6 325.4,234.2 326.0,233.8 326.7,233.3 327.3,233.0 327.9,232.6 328.5,232.1 329.1,231.7 329.8,231.5 330.4,231.1 331.0,230.6 331.6,230.1 332.2,230.2 332.9,229.7 333.5,229.2 334.1,228.7 334.7,228.0 335.3,227.5 336.0,226.9 336.6,226.4 337.2,221.9 337.8,221.7 338.4,221.6 339.1,221.5 339.7,221.0 340.3,220.9 340.9,220.7 341.5,220.6 342.2,221.4 342.8,221.3 343.4,221.1 344.0,221.0 344.6,220.7 345.3,220.6 345.9,220.5 346.5,220.3 347.1,221.0 347.7,220.9 348.4,220.7 349.0,220.6 349.6,240.0 350.2,240.1 350.8,240.1 351.5,240.2 352.1,241.1 352.7,241.2 353.3,241.3 353.9,241.4 354.6,240.1 355.2,240.1 355.8,240.2 356.4,240.3 357.0,241.1 357.7,241.2 358.3,241.3 358.9,241.3 359.5,241.4 360.1,241.5 360.8,241.6 361.4,241.7 362.0,244.6 362.6,244.6 363.2,244.6 363.9,244.7 364.5,244.4 365.1,244.4 365.7,244.4 366.3,244.4 367.0,245.7 367.6,245.8 368.2,245.8 368.8,245.8 369.4,246.3 370.1,246.3 370.7,246.4 371.3,246.4 371.9,247.2 372.5,247.2 373.2,247.2 373.8,247.2 374.4,231.5 375.0,231.1 375.6,230.7 376.3,230.3 376.9,229.9 377.5,229.5 378.1,229.1 378.7,228.7 379.4,228.6 380.0,228.2 380.6,227.8 381.2,227.4 381.8,227.2 382.5,226.8 383.1,226.3 383.7,225.8 384.3,225.1 384.9,224.6 385.6,224.2 386.2,223.7 386.8,253.6 387.4,253.2 388.0,252.9 388.7,252.6 389.3,252.1 389.9,251.8 390.5,251.5 391.1,251.1 391.8,250.8 392.4,250.5 393.0,250.1 393.6,249.7 394.2,249.2 394.9,248.8 395.5,248.4 396.1,248.0 396.7,247.7 397.3,247.3 398.0,246.9 398.6,246.5 399.2,246.1 399.8,245.6 400.4,245.1 401.1,244.7 401.7,244.0 402.3,243.5 402.9,243.0 403.5,242.5 404.2,242.0 404.8,241.5 405.4,241.0 406.0,240.4 406.6,239.7 407.3,239.2 407.9,238.6 408.5,238.1 409.1,237.5 409.7,237.0 410.4,236.4 411.0,235.8 411.6,235.2 412.2,234.6 412.8,234.0 413.5,233.4 414.1,233.0 414.7,232.4 415.3,231.8 415.9,231.1 416.6,230.5 417.2,229.9 417.8,229.3 418.4,228.6 419.0,228.0 419.7,227.3 420.3,226.6 420.9,226.0 421.5,225.1 422.1,224.4 422.8,223.8 423.4,223.1 424.0,222.4 424.6,221.7 425.2,221.0 425.9,220.3 426.5,219.3 427.1,218.6 427.7,217.8 428.3,217.1 429.0,216.2 429.6,215.5 430.2,214.7 430.8,213.9 431.4,213.3 432.1,212.5 432.7,211.7 433.3,210.9 433.9,210.2 434.5,209.4 435.2,208.6 435.8,207.8 436.4,207.0 437.0,206.1 437.6,205.3 438.3,204.5 438.9,203.7 439.5,202.9 440.1,202.1 440.7,201.2 441.4,200.5 442.0,199.6 442.6,198.8 443.2,197.9 443.8,196.8 444.5,195.9 445.1,195.1 445.7,194.2 446.3,193.9 446.9,193.0 447.6,192.2 448.2,191.3 448.8,190.5 449.4,189.7 450.0,188.8 450.7,187.9 451.3,187.0 451.9,186.1 452.5,185.2 453.1,184.3 453.8,182.7 454.4,181.7 455.0,180.8 455.6,179.9 456.2,179.3 456.9,178.3 457.5,177.4 458.1,176.4 458.7,175.7 459.3,174.7 460.0,173.7 460.6,172.7 461.2,172.3 461.8,171.3 462.4,170.3 463.1,169.3 463.7,168.3 464.3,167.3 464.9,166.3 465.5,165.3 466.2,164.4 466.8,163.4 467.4,162.4 468.0,161.4 468.6,160.1 469.3,159.1 469.9,158.1 470.5,157.1 471.1,156.5 471.7,155.4 472.4,154.4 473.0,153.4 473.6,152.3 474.2,151.3 474.8,150.3 475.5,149.2 476.1,148.4 476.7,147.3 477.3,146.3 477.9,145.2 478.6,144.3 479.2,143.2 479.8,142.2 480.4,141.1 481.0,140.1 481.7,139.1 482.3,138.0 482.9,136.9 483.5,135.9 484.1,134.9 484.8,133.8 485.4,132.7 486.0,131.7 486.6,130.6 487.2,129.5 487.9,128.4 488.5,127.3 489.1,126.2 489.7,125.1 490.3,124.0 491.0,122.9 491.6,121.8 492.2,120.7 492.8,119.6 493.4,118.5 494.1,117.4 494.7,116.3 495.3,115.2 495.9,114.0 496.5,112.9 497.2,111.8 497.8,110.7 498.4,109.4 499.0,108.3 499.6,107.2 500.3,106.0 500.9,104.8 501.5,103.6 502.1,102.5 502.7,101.3 503.4,100.2 504.0,99.0 504.6,97.9 505.2,96.7 505.8,95.7 506.5,94.5 507.1,93.4 507.7,92.2 508.3,90.9 508.9,89.7 509.6,88.5 510.2,87.3 510.8,222.9 511.4,222.3 512.0,221.7 512.7,221.1 513.3,220.5 513.9,219.9 514.5,219.3 515.1,218.7 515.8,218.2 516.4,217.6 517.0,217.0 517.6,216.4 518.2,215.9 518.9,215.3 519.5,214.6 520.1,214.0 520.7,213.3 521.3,212.7 522.0,212.1 522.6,211.5 523.2,250.8 523.8,250.4 524.4,250.0 525.1,249.5 525.7,249.3 526.3,248.9 526.9,248.4 527.5,248.0 528.2,247.5 528.8,247.1 529.4,246.7 530.0,246.3 530.6,245.9 531.3,245.5 531.9,245.1 532.5,244.6 533.1,244.2 533.7,243.7 534.4,243.3 535.0,242.9 535.6,216.7 536.2,216.2 536.8,215.6 537.5,215.1 538.1,214.3 538.7,213.8 539.3,213.2 539.9,212.7 540.6,211.8 541.2,211.2 541.8,210.7 542.4,210.1 543.0,209.8 543.7,209.2 544.3,208.6 544.9,208.1 545.5,207.2 546.1,206.6 546.8,206.1 547.4,205.5 548.0,219.5 548.6,218.9 549.2,218.4 549.9,217.9 550.5,216.8 551.1,216.2 551.7,215.7 552.3,215.2 553.0,214.4 553.6,213.9 554.2,213.3 554.8,212.8 555.4,213.4 556.1,212.9 556.7,212.4 557.3,211.9 557.9,211.6 558.5,211.1 559.2,210.5 559.8,210.0 560.4,222.7 561.0,222.3 561.6,221.8 562.3,221.4 562.9,220.6 563.5,220.2 564.1,219.7 564.7,219.3 565.4,219.2 566.0,218.7 566.6,218.3 567.2,217.8 567.8,217.4 568.5,217.0 569.1,216.6 569.7,216.1 570.3,215.8 570.9,215.3 571.6,214.9 572.2,214.4 572.8,205.8 573.4,205.3 574.0,204.7 574.7,204.2 575.3,204.0 575.9,203.4 576.5,202.9 577.1,202.4 577.8,201.8 578.4,201.3 579.0,200.8 579.6,200.3 580.2,199.9 580.9,199.3 581.5,198.8 582.1,198.3 582.7,197.7 583.3,197.1 584.0,196.6 584.6,196.0 585.2,195.5 585.8,195.0 586.4,194.4 587.1,193.9 587.7,193.3 588.3,192.7 588.9,192.2 589.5,191.6 590.2,191.0 590.8,190.5 591.4,189.9 592.0,189.4 592.6,188.8 593.3,188.3 593.9,187.7 594.5,187.2 595.1,186.5 595.7,185.9 596.4,185.3 597.0,184.7 597.6,201.7 598.2,201.2 598.8,200.7 599.5,200.2 600.1,200.1 600.7,199.6 601.3,199.0 601.9,198.5 602.6,198.3 603.2,197.8 603.8,197.2 604.4,196.7 605.0,196.4 605.7,195.9 606.3,195.3 606.9,194.8 607.5,194.1 608.1,193.6 608.8,193.1 609.4,192.6 610.0,209.7 610.6,209.2 611.2,208.8 611.9,208.3 612.5,208.0 613.1,207.5 613.7,207.1 614.3,206.7 615.0,206.1 615.6,205.7 616.2,205.3 616.8,204.8 617.4,204.2 618.1,203.8 618.7,203.4 619.3,202.9 619.9,202.4 620.5,201.9 621.2,201.5 621.8,201.1 622.4,237.2 623.0,236.9 623.6,236.6 624.3,236.4 624.9,236.9 625.5,236.7 626.1,236.4 626.7,236.2 627.4,236.0 628.0,235.7 628.6,235.5 629.2,235.2 629.8,235.3 630.5,235.0 631.1,234.8 631.7,234.5 632.3,234.7 632.9,234.4 633.6,234.2 634.2,233.9 634.8,220.5 635.4,220.2 636.0,219.8 636.7,219.5 637.3,219.5 637.9,219.2 638.5,218.8 639.1,218.5 639.8,218.2 640.4,217.8 641.0,217.4 641.6,217.1 642.2,216.5 642.9,216.1 643.5,215.8 644.1,215.4 644.7,215.3 645.3,214.9 646.0,214.6 646.6,214.2 647.2,235.8 647.8,235.6 648.4,235.3 649.1,235.0 649.7,234.7 650.3,234.4 650.9,234.1 651.5,233.9 652.2,233.4 652.8,233.1 653.4,232.8 654.0,232.6 654.6,232.2 655.3,231.9 655.9,231.6 656.5,231.3 657.1,231.1 657.7,230.8 658.4,230.5 659.0,230.2 659.6,245.1 660.2,244.9 660.8,244.6 661.5,244.4 662.1,244.1 662.7,243.9 663.3,243.7 663.9,243.4 664.6,244.1 665.2,243.9 665.8,243.6 666.4,243.4 667.0,243.4 667.7,243.2 668.3,243.0 668.9,242.8 669.5,242.3 670.1,242.1 670.8,241.9 671.4,241.7 672.0,256.7 672.6,256.6 673.2,256.4 673.9,256.3 674.5,256.3 675.1,256.1 675.7,256.0 676.3,255.9 677.0,255.9 677.6,255.8 678.2,255.7 678.8,255.5 679.4,255.4 680.1,255.3 680.7,255.1 681.3,255.0 681.9,255.0 682.5,254.8 683.2,254.7 683.8,254.6 684.4,231.8 685.0,231.6 685.6,231.4 686.3,231.1 686.9,230.9 687.5,230.7 688.1,230.5 688.7,230.2 689.4,230.0 690.0,229.8 690.6,229.5 691.2,229.3 691.8,229.1 692.5,228.8 693.1,228.6 693.7,228.3 694.3,228.0 694.9,227.7 695.6,227.5 696.2,227.2 696.8,239.8 697.4,239.6 698.0,239.4 698.7,239.1 699.3,238.3 699.9,238.0 700.5,237.8 701.1,237.6 701.8,236.7 702.4,236.4 703.0,236.2 703.6,235.9 704.2,236.9 704.9,236.7 705.5,236.4 706.1,236.2 706.7,236.3 707.3,236.1 708.0,235.9 708.6,235.6 709.2,252.3 709.8,252.2 710.4,252.0 711.1,251.9 711.7,252.2 712.3,252.0 712.9,251.9 713.5,251.8 714.2,252.0 714.8,251.9 715.4,251.8 716.0,251.7 716.6,251.3 717.3,251.2 717.9,251.1 718.5,250.9 719.1,251.1 719.7,250.9 720.4,250.8 721.0,250.7 721.6,241.6 722.2,241.4 722.8,241.2 723.5,241.1 724.1,241.0 724.7,240.9 725.3,240.7 725.9,240.5 726.6,240.1 727.2,240.0 727.8,239.8 728.4,239.6 729.0,239.8 729.7,239.6 730.3,239.4 730.9,239.2 731.5,239.1 732.1,238.9 732.8,238.7 733.4,238.5 734.0,239.6 734.6,239.4 735.2,239.3 735.9,239.1 736.5,239.0 737.1,238.9 737.7,238.7 738.3,238.6 739.0,238.4 739.6,238.3 740.2,238.1 740.8,238.0 741.4,237.9 742.1,237.7 742.7,237.5 743.3,237.4 743.9,237.2 744.5,237.1 745.2,236.9 745.8,236.7 746.4,233.3 747.0,233.1 747.6,232.9 748.3,232.8 748.9,232.6 749.5,232.4 750.1,232.2 750.7,232.0 751.4,231.8 752.0,231.6 752.6,231.4 753.2,231.2 753.8,230.9 754.5,230.7 755.1,230.5 755.7,230.3 756.3,229.8 756.9,229.6 757.6,229.4 758.2,229.2 758.8,255.0 759.4,254.9 760.0,254.8 760.7,254.7 761.3,254.8 761.9,254.7 762.5,254.6 763.1,254.5 763.8,254.3 764.4,254.2 765.0,254.1 765.6,254.0 766.2,253.9 766.9,253.8 767.5,253.7 768.1,253.6 768.7,253.2 769.3,253.1 770.0,253.0 770.6,252.9 771.2,261.0 771.8,260.9 772.4,260.8 773.1,260.7 773.7,260.4 774.3,260.3 774.9,260.2 775.5,260.1 776.2,260.7 776.8,260.6 777.4,260.5 778.0,260.4 778.6,258.6 779.3,258.4 779.9,258.3 780.5,258.1 781.1,257.8 781.7,257.7 782.4,257.5 783.0,257.4 783.6,251.5 784.2,251.3 784.8,251.2 785.5,251.0 786.1,251.6 786.7,251.5 787.3,251.3 787.9,251.1 788.6,250.6 789.2,250.4 789.8,250.2 790.4,250.0 791.0,248.5 791.7,248.3 792.3,248.1 792.9,247.9 793.5,248.9 794.1,248.7 794.8,248.5 795.4,248.2 796.0,233.7"/>
<text x="640" y="56" font-family="Arial" font-size="12" fill="#0f766e">aggressive position error</text>
</svg>