<svg xmlns="http://www.w3.org/2000/svg" width="820" height="320" viewBox="0 0 820 320">
<rect width="100%" height="100%" fill="white"/>
<text x="52" y="30" font-family="Arial" font-size="18" font-weight="700">ekf_dropout_robust altitude</text>
<line x1="52" y1="274" x2="796" y2="274" stroke="#263238"/>
<line x1="52" y1="42" x2="52" y2="274" stroke="#263238"/>
<text x="52" y="306" font-family="Arial" font-size="12">time (s)</text>
<text x="630" y="306" font-family="Arial" font-size="12">m</text>

<rect x="399.2" y="42" width="99.2" height="232" fill="#fef3c7" opacity="0.72"/>
<polyline fill="none" stroke="#0f766e" stroke-width="2.3" points="52.0,120.7 52.6,120.7 53.2,120.6 53.9,120.5 54.5,120.5 55.1,120.4 55.7,120.3 56.3,120.2 57.0,120.2 57.6,120.1 58.2,120.0 58.8,120.0 59.4,119.9 60.1,119.8 60.7,119.8 61.3,119.7 61.9,119.6 62.5,119.6 63.2,119.5 63.8,119.4 64.4,119.4 65.0,119.3 65.6,119.2 66.3,119.2 66.9,119.1 67.5,119.0 68.1,119.0 68.7,118.9 69.4,118.8 70.0,118.7 70.6,118.7 71.2,118.6 71.8,118.5 72.5,118.4 73.1,118.4 73.7,118.3 74.3,118.2 74.9,118.1 75.6,118.0 76.2,117.9 76.8,117.9 77.4,117.8 78.0,117.7 78.7,117.6 79.3,117.5 79.9,117.4 80.5,117.3 81.1,117.2 81.8,117.1 82.4,117.0 83.0,116.9 83.6,116.8 84.2,116.7 84.9,116.6 85.5,116.5 86.1,116.4 86.7,116.3 87.3,116.2 88.0,116.1 88.6,115.9 89.2,115.8 89.8,115.7 90.4,115.6 91.1,115.5 91.7,115.3 92.3,115.2 92.9,115.1 93.5,114.9 94.2,114.8 94.8,114.6 95.4,114.5 96.0,114.4 96.6,114.2 97.3,114.1 97.9,113.9 98.5,113.7 99.1,113.6 99.7,113.4 100.4,113.3 101.0,113.1 101.6,112.9 102.2,112.8 102.8,112.6 103.5,112.4 104.1,112.2 104.7,112.0 105.3,111.9 105.9,111.7 106.6,111.5 107.2,111.3 107.8,111.1 108.4,110.9 109.0,110.7 109.7,110.5 110.3,110.3 110.9,110.1 111.5,109.9 112.1,109.6 112.8,109.4 113.4,109.2 114.0,109.0 114.6,108.7 115.2,108.5 115.9,108.3 116.5,108.0 117.1,107.8 117.7,107.6 118.3,107.3 119.0,107.1 119.6,106.8 120.2,106.6 120.8,106.3 121.4,106.1 122.1,105.8 122.7,105.5 123.3,105.3 123.9,105.0 124.5,104.7 125.2,104.4 125.8,104.2 126.4,103.9 127.0,103.6 127.6,103.3 128.3,103.0 128.9,102.7 129.5,102.4 130.1,102.1 130.7,101.8 131.4,101.5 132.0,101.2 132.6,100.9 133.2,100.6 133.8,100.3 134.5,100.0 135.1,99.7 135.7,99.3 136.3,99.0 136.9,98.7 137.6,98.4 138.2,98.0 138.8,97.7 139.4,97.4 140.0,97.0 140.7,96.7 141.3,96.3 141.9,96.0 142.5,95.6 143.1,95.3 143.8,94.9 144.4,94.6 145.0,94.2 145.6,93.9 146.2,93.5 146.9,93.2 147.5,92.8 148.1,92.4 148.7,92.1 149.3,91.7 150.0,91.3 150.6,91.0 151.2,90.6 151.8,90.2 152.4,89.9 153.1,89.5 153.7,89.1 154.3,88.7 154.9,88.3 155.5,88.0 156.2,87.6 156.8,87.2 157.4,86.8 158.0,86.4 158.6,86.0 159.3,85.7 159.9,85.3 160.5,84.9 161.1,84.5 161.7,84.1 162.4,83.7 163.0,83.3 163.6,82.9 164.2,82.5 164.8,82.1 165.5,81.7 166.1,81.3 166.7,80.9 167.3,80.6 167.9,80.2 168.6,79.8 169.2,79.4 169.8,79.0 170.4,78.6 171.0,78.2 171.7,77.8 172.3,77.4 172.9,77.0 173.5,76.6 174.1,76.2 174.8,75.8 175.4,75.4 176.0,75.0 176.6,74.6 177.2,74.2 177.9,73.8 178.5,73.4 179.1,73.1 179.7,72.7 180.3,72.3 181.0,71.9 181.6,71.5 182.2,71.1 182.8,70.7 183.4,70.4 184.1,70.0 184.7,69.6 185.3,69.2 185.9,68.8 186.5,68.5 187.2,68.1 187.8,67.7 188.4,67.3 189.0,67.0 189.6,66.6 190.3,66.2 190.9,65.9 191.5,65.5 192.1,65.1 192.7,64.8 193.4,64.4 194.0,64.1 194.6,63.7 195.2,63.4 195.8,63.0 196.5,62.7 197.1,62.3 197.7,62.0 198.3,61.6 198.9,61.3 199.6,61.0 200.2,60.6 200.8,60.3 201.4,60.0 202.0,59.7 202.7,59.3 203.3,59.0 203.9,58.7 204.5,58.4 205.1,58.1 205.8,57.8 206.4,57.5 207.0,57.2 207.6,56.9 208.2,56.6 208.9,56.3 209.5,56.0 210.1,55.7 210.7,55.4 211.3,55.2 212.0,54.9 212.6,54.6 213.2,54.3 213.8,54.1 214.4,53.8 215.1,53.6 215.7,53.3 216.3,53.1 216.9,52.8 217.5,52.6 218.2,52.3 218.8,52.1 219.4,51.9 220.0,51.6 220.6,51.4 221.3,51.2 221.9,51.0 222.5,50.8 223.1,50.6 223.7,50.4 224.4,50.2 225.0,50.0 225.6,49.8 226.2,49.6 226.8,49.4 227.5,49.2 228.1,49.1 228.7,48.9 229.3,48.7 229.9,48.6 230.6,48.4 231.2,48.2 231.8,48.1 232.4,47.9 233.0,47.8 233.7,47.7 234.3,47.5 234.9,47.4 235.5,47.3 236.1,47.2 236.8,47.0 237.4,46.9 238.0,46.8 238.6,46.7 239.2,46.6 239.9,46.5 240.5,46.4 241.1,46.4 241.7,46.3 242.3,46.2 243.0,46.1 243.6,46.1 244.2,46.0 244.8,45.9 245.4,45.9 246.1,45.8 246.7,45.8 247.3,45.7 247.9,45.7 248.5,45.7 249.2,45.6 249.8,45.6 250.4,45.6 251.0,45.6 251.6,45.6 252.3,45.6 252.9,45.6 253.5,45.6 254.1,45.6 254.7,45.6 255.4,45.6 256.0,45.6 256.6,45.6 257.2,45.6 257.8,45.7 258.5,45.7 259.1,45.7 259.7,45.8 260.3,45.8 260.9,45.9 261.6,45.9 262.2,46.0 262.8,46.0 263.4,46.1 264.0,46.2 264.7,46.2 265.3,46.3 265.9,46.4 266.5,46.5 267.1,46.6 267.8,46.7 268.4,46.8 269.0,46.8 269.6,46.9 270.2,47.1 270.9,47.2 271.5,47.3 272.1,47.4 272.7,47.5 273.3,47.6 274.0,47.7 274.6,47.9 275.2,48.0 275.8,48.1 276.4,48.3 277.1,48.4 277.7,48.5 278.3,48.7 278.9,48.8 279.5,49.0 280.2,49.1 280.8,49.3 281.4,49.5 282.0,49.6 282.6,49.8 283.3,50.0 283.9,50.1 284.5,50.3 285.1,50.5 285.7,50.6 286.4,50.8 287.0,51.0 287.6,51.2 288.2,51.4 288.8,51.6 289.5,51.7 290.1,51.9 290.7,52.1 291.3,52.3 291.9,52.5 292.6,52.7 293.2,52.9 293.8,53.1 294.4,53.3 295.0,53.5 295.7,53.7 296.3,53.9 296.9,54.1 297.5,54.4 298.1,54.6 298.8,54.8 299.4,55.0 300.0,55.2 300.6,55.4 301.2,55.6 301.9,55.9 302.5,56.1 303.1,56.3 303.7,56.5 304.3,56.7 305.0,57.0 305.6,57.2 306.2,57.4 306.8,57.6 307.4,57.9 308.1,58.1 308.7,58.3 309.3,58.5 309.9,58.8 310.5,59.0 311.2,59.2 311.8,59.4 312.4,59.7 313.0,59.9 313.6,60.1 314.3,60.3 314.9,60.6 315.5,60.8 316.1,61.0 316.7,61.2 317.4,61.5 318.0,61.7 318.6,61.9 319.2,62.1 319.8,62.3 320.5,62.6 321.1,62.8 321.7,63.0 322.3,63.2 322.9,63.4 323.6,63.7 324.2,63.9 324.8,64.1 325.4,64.3 326.0,64.5 326.7,64.7 327.3,64.9 327.9,65.1 328.5,65.3 329.1,65.6 329.8,65.8 330.4,66.0 331.0,66.2 331.6,66.4 332.2,66.6 332.9,66.8 333.5,66.9 334.1,67.1 334.7,67.3 335.3,67.5 336.0,67.7 336.6,67.9 337.2,68.1 337.8,68.3 338.4,68.4 339.1,68.6 339.7,68.8 340.3,69.0 340.9,69.1 341.5,69.3 342.2,69.5 342.8,69.6 343.4,69.8 344.0,70.0 344.6,70.1 345.3,70.3 345.9,70.4 346.5,70.6 347.1,70.7 347.7,70.9 348.4,71.0 349.0,71.2 349.6,71.3 350.2,71.4 350.8,71.6 351.5,71.7 352.1,71.8 352.7,71.9 353.3,72.1 353.9,72.2 354.6,72.3 355.2,72.4 355.8,72.5 356.4,72.6 357.0,72.7 357.7,72.8 358.3,72.9 358.9,73.0 359.5,73.1 360.1,73.2 360.8,73.3 361.4,73.4 362.0,73.5 362.6,73.6 363.2,73.6 363.9,73.7 364.5,73.8 365.1,73.9 365.7,73.9 366.3,74.0 367.0,74.1 367.6,74.1 368.2,74.2 368.8,74.2 369.4,74.3 370.1,74.3 370.7,74.4 371.3,74.4 371.9,74.4 372.5,74.5 373.2,74.5 373.8,74.5 374.4,74.5 375.0,74.6 375.6,74.6 376.3,74.6 376.9,74.6 377.5,74.6 378.1,74.6 378.7,74.7 379.4,74.7 380.0,74.7 380.6,74.7 381.2,74.7 381.8,74.6 382.5,74.6 383.1,74.6 383.7,74.6 384.3,74.6 384.9,74.6 385.6,74.5 386.2,74.5 386.8,74.5 387.4,74.5 388.0,74.4 388.7,74.4 389.3,74.4 389.9,74.3 390.5,74.3 391.1,74.2 391.8,74.2 392.4,74.1 393.0,74.1 393.6,74.0 394.2,74.0 394.9,73.9 395.5,73.9 396.1,73.8 396.7,73.7 397.3,73.7 398.0,73.6 398.6,73.5 399.2,73.5 399.8,73.4 400.4,73.3 401.1,73.3 401.7,73.2 402.3,73.1 402.9,73.0 403.5,72.9 404.2,72.9 404.8,72.8 405.4,72.7 406.0,72.6 406.6,72.5 407.3,72.4 407.9,72.3 408.5,72.2 409.1,72.2 409.7,72.1 410.4,72.0 411.0,71.9 411.6,71.8 412.2,71.7 412.8,71.6 413.5,71.5 414.1,71.4 414.7,71.3 415.3,71.2 415.9,71.1 416.6,71.0 417.2,70.9 417.8,70.8 418.4,70.7 419.0,70.6 419.7,70.5 420.3,70.4 420.9,70.3 421.5,70.2 422.1,70.1 422.8,69.9 423.4,69.8 424.0,69.7 424.6,69.6 425.2,69.5 425.9,69.4 426.5,69.3 427.1,69.2 427.7,69.1 428.3,69.0 429.0,68.9 429.6,68.8 430.2,68.7 430.8,68.6 431.4,68.5 432.1,68.4 432.7,68.4 433.3,68.3 433.9,68.2 434.5,68.1 435.2,68.0 435.8,67.9 436.4,67.8 437.0,67.7 437.6,67.6 438.3,67.6 438.9,67.5 439.5,67.4 440.1,67.3 440.7,67.2 441.4,67.2 442.0,67.1 442.6,67.0 443.2,67.0 443.8,66.9 444.5,66.8 445.1,66.8 445.7,66.7 446.3,66.6 446.9,66.6 447.6,66.5 448.2,66.5 448.8,66.4 449.4,66.4 450.0,66.3 450.7,66.3 451.3,66.2 451.9,66.2 452.5,66.2 453.1,66.1 453.8,66.1 454.4,66.1 455.0,66.1 455.6,66.0 456.2,66.0 456.9,66.0 457.5,66.0 458.1,66.0 458.7,66.0 459.3,66.0 460.0,66.0 460.6,66.0 461.2,66.0 461.8,66.0 462.4,66.0 463.1,66.0 463.7,66.1 464.3,66.1 464.9,66.1 465.5,66.1 466.2,66.2 466.8,66.2 467.4,66.2 468.0,66.3 468.6,66.3 469.3,66.4 469.9,66.5 470.5,66.5 471.1,66.6 471.7,66.6 472.4,66.7 473.0,66.8 473.6,66.9 474.2,67.0 474.8,67.0 475.5,67.1 476.1,67.2 476.7,67.3 477.3,67.4 477.9,67.5 478.6,67.7 479.2,67.8 479.8,67.9 480.4,68.0 481.0,68.1 481.7,68.3 482.3,68.4 482.9,68.6 483.5,68.7 484.1,68.9 484.8,69.0 485.4,69.2 486.0,69.3 486.6,69.5 487.2,69.7 487.9,69.8 488.5,70.0 489.1,70.2 489.7,70.4 490.3,70.6 491.0,70.8 491.6,71.0 492.2,71.2 492.8,71.4 493.4,71.6 494.1,71.8 494.7,72.1 495.3,72.3 495.9,72.5 496.5,72.8 497.2,73.0 497.8,73.2 498.4,73.5 499.0,73.7 499.6,74.0 500.3,74.3 500.9,74.5 501.5,74.8 502.1,75.1 502.7,75.3 503.4,75.6 504.0,75.9 504.6,76.2 505.2,76.5 505.8,76.8 506.5,77.1 507.1,77.4 507.7,77.7 508.3,78.0 508.9,78.4 509.6,78.7 510.2,79.0 510.8,79.3 511.4,79.7 512.0,80.0 512.7,80.4 513.3,80.7 513.9,81.1 514.5,81.4 515.1,81.8 515.8,82.1 516.4,82.5 517.0,82.9 517.6,83.3 518.2,83.6 518.9,84.0 519.5,84.4 520.1,84.8 520.7,85.2 521.3,85.6 522.0,86.0 522.6,86.4 523.2,86.8 523.8,87.2 524.4,87.6 525.1,88.0 525.7,88.4 526.3,88.9 526.9,89.3 527.5,89.7 528.2,90.1 528.8,90.6 529.4,91.0 530.0,91.4 530.6,91.9 531.3,92.3 531.9,92.8 532.5,93.2 533.1,93.7 533.7,94.1 534.4,94.6 535.0,95.1 535.6,95.5 536.2,96.0 536.8,96.5 537.5,96.9 538.1,97.4 538.7,97.9 539.3,98.3 539.9,98.8 540.6,99.3 541.2,99.8 541.8,100.3 542.4,100.8 543.0,101.2 543.7,101.7 544.3,102.2 544.9,102.7 545.5,103.2 546.1,103.7 546.8,104.2 547.4,104.7 548.0,105.2 548.6,105.7 549.2,106.2 549.9,106.7 550.5,107.2 551.1,107.7 551.7,108.2 552.3,108.8 553.0,109.3 553.6,109.8 554.2,110.3 554.8,110.8 555.4,111.3 556.1,111.8 556.7,112.3 557.3,112.9 557.9,113.4 558.5,113.9 559.2,114.4 559.8,114.9 560.4,115.4 561.0,116.0 561.6,116.5 562.3,117.0 562.9,117.5 563.5,118.0 564.1,118.6 564.7,119.1 565.4,119.6 566.0,120.1 566.6,120.6 567.2,121.1 567.8,121.7 568.5,122.2 569.1,122.7 569.7,123.2 570.3,123.7 570.9,124.2 571.6,124.8 572.2,125.3 572.8,125.8 573.4,126.3 574.0,126.8 574.7,127.3 575.3,127.8 575.9,128.3 576.5,128.8 577.1,129.3 577.8,129.8 578.4,130.3 579.0,130.8 579.6,131.3 580.2,131.8 580.9,132.3 581.5,132.8 582.1,133.3 582.7,133.8 583.3,134.3 584.0,134.8 584.6,135.3 585.2,135.8 585.8,136.3 586.4,136.7 587.1,137.2 587.7,137.7 588.3,138.2 588.9,138.7 589.5,139.1 590.2,139.6 590.8,140.1 591.4,140.5 592.0,141.0 592.6,141.5 593.3,141.9 593.9,142.4 594.5,142.8 595.1,143.3 595.7,143.7 596.4,144.2 597.0,144.6 597.6,145.1 598.2,145.5 598.8,146.0 599.5,146.4 600.1,146.8 600.7,147.3 601.3,147.7 601.9,148.1 602.6,148.5 603.2,149.0 603.8,149.4 604.4,149.8 605.0,150.2 605.7,150.6 606.3,151.0 606.9,151.4 607.5,151.8 608.1,152.2 608.8,152.6 609.4,153.0 610.0,153.4 610.6,153.8 611.2,154.2 611.9,154.6 612.5,155.0 613.1,155.3 613.7,155.7 614.3,156.1 615.0,156.4 615.6,156.8 616.2,157.2 616.8,157.5 617.4,157.9 618.1,158.2 618.7,158.6 619.3,158.9 619.9,159.3 620.5,159.6 621.2,160.0 621.8,160.3 622.4,160.6 623.0,161.0 623.6,161.3 624.3,161.6 624.9,161.9 625.5,162.3 626.1,162.6 626.7,162.9 627.4,163.2 628.0,163.5 628.6,163.8 629.2,164.1 629.8,164.4 630.5,164.7 631.1,165.0 631.7,165.3 632.3,165.6 632.9,165.9 633.6,166.2 634.2,166.5 634.8,166.7 635.4,167.0 636.0,167.3 636.7,167.6 637.3,167.8 637.9,168.1 638.5,168.4 639.1,168.6 639.8,168.9 640.4,169.1 641.0,169.4 641.6,169.6 642.2,169.9 642.9,170.1 643.5,170.4 644.1,170.6 644.7,170.9 645.3,171.1 646.0,171.3 646.6,171.6 647.2,171.8 647.8,172.0 648.4,172.3 649.1,172.5 649.7,172.7 650.3,172.9 650.9,173.2 651.5,173.4 652.2,173.6 652.8,173.8 653.4,174.0 654.0,174.2 654.6,174.5 655.3,174.7 655.9,174.9 656.5,175.1 657.1,175.3 657.7,175.5 658.4,175.7 659.0,175.9 659.6,176.1 660.2,176.3 660.8,176.5 661.5,176.7 662.1,176.9 662.7,177.1 663.3,177.3 663.9,177.5 664.6,177.7 665.2,177.9 665.8,178.1 666.4,178.3 667.0,178.5 667.7,178.6 668.3,178.8 668.9,179.0 669.5,179.2 670.1,179.4 670.8,179.6 671.4,179.8 672.0,180.0 672.6,180.2 673.2,180.4 673.9,180.5 674.5,180.7 675.1,180.9 675.7,181.1 676.3,181.3 677.0,181.5 677.6,181.7 678.2,181.9 678.8,182.1 679.4,182.3 680.1,182.5 680.7,182.6 681.3,182.8 681.9,183.0 682.5,183.2 683.2,183.4 683.8,183.6 684.4,183.8 685.0,184.0 685.6,184.2 686.3,184.4 686.9,184.6 687.5,184.8 688.1,185.0 688.7,185.3 689.4,185.5 690.0,185.7 690.6,185.9 691.2,186.1 691.8,186.3 692.5,186.5 693.1,186.7 693.7,187.0 694.3,187.2 694.9,187.4 695.6,187.6 696.2,187.9 696.8,188.1 697.4,188.3 698.0,188.6 698.7,188.8 699.3,189.0 699.9,189.3 700.5,189.5 701.1,189.8 701.8,190.0 702.4,190.3 703.0,190.5 703.6,190.8 704.2,191.1 704.9,191.3 705.5,191.6 706.1,191.8 706.7,192.1 707.3,192.4 708.0,192.7 708.6,192.9 709.2,193.2 709.8,193.5 710.4,193.8 711.1,194.1 711.7,194.4 712.3,194.7 712.9,195.0 713.5,195.3 714.2,195.6 714.8,195.9 715.4,196.2 716.0,196.6 716.6,196.9 717.3,197.2 717.9,197.5 718.5,197.9 719.1,198.2 719.7,198.5 720.4,198.9 721.0,199.2 721.6,199.6 722.2,199.9 722.8,200.3 723.5,200.7 724.1,201.0 724.7,201.4 725.3,201.8 725.9,202.2 726.6,202.5 727.2,202.9 727.8,203.3 728.4,203.7 729.0,204.1 729.7,204.5 730.3,204.9 730.9,205.3 731.5,205.7 732.1,206.2 732.8,206.6 733.4,207.0 734.0,207.5 734.6,207.9 735.2,208.3 735.9,208.8 736.5,209.2 737.1,209.7 737.7,210.1 738.3,210.6 739.0,211.1 739.6,211.5 740.2,212.0 740.8,212.5 741.4,213.0 742.1,213.5 742.7,214.0 743.3,214.5 743.9,215.0 744.5,215.5 745.2,216.0 745.8,216.5 746.4,217.0 747.0,217.5 747.6,218.1 748.3,218.6 748.9,219.1 749.5,219.7 750.1,220.2 750.7,220.8 751.4,221.3 752.0,221.9 752.6,222.4 753.2,223.0 753.8,223.6 754.5,224.1 755.1,224.7 755.7,225.3 756.3,225.9 756.9,226.5 757.6,227.1 758.2,227.7 758.8,228.3 759.4,228.9 760.0,229.5 760.7,230.1 761.3,230.7 761.9,231.3 762.5,232.0 763.1,232.6 763.8,233.2 764.4,233.9 765.0,234.5 765.6,235.2 766.2,235.8 766.9,236.5 767.5,237.1 768.1,237.8 768.7,238.5 769.3,239.1 770.0,239.8 770.6,240.5 771.2,241.2 771.8,241.8 772.4,242.5 773.1,243.2 773.7,243.9 774.3,244.6 774.9,245.3 775.5,246.0 776.2,246.7 776.8,247.4 777.4,248.1 778.0,248.8 778.6,249.6 779.3,250.3 779.9,251.0 780.5,251.7 781.1,252.5 781.7,253.2 782.4,253.9 783.0,254.7 783.6,255.4 784.2,256.2 784.8,256.9 785.5,257.7 786.1,258.4 786.7,259.2 787.3,259.9 787.9,260.7 788.6,261.5 789.2,262.2 789.8,263.0 790.4,263.8 791.0,264.5 791.7,265.3 792.3,266.1 792.9,266.8 793.5,267.6 794.1,268.4 794.8,269.2 795.4,270.0 796.0,270.8"/>
<text x="640" y="56" font-family="Arial" font-size="12" fill="#0f766e">truth</text>
<polyline fill="none" stroke="#2563eb" stroke-width="2.3" points="52.0,118.7 52.6,118.6 53.2,118.5 53.9,118.4 54.5,123.0 55.1,123.3 55.7,123.5 56.3,123.8 57.0,116.5 57.6,116.0 58.2,115.5 58.8,115.0 59.4,118.7 60.1,118.6 60.7,118.5 61.3,118.3 61.9,120.1 62.5,120.1 63.2,120.1 63.8,120.1 64.4,119.4 65.0,119.3 65.6,119.3 66.3,119.2 66.9,120.4 67.5,120.4 68.1,120.4 68.7,120.5 69.4,120.7 70.0,120.8 70.6,120.8 71.2,120.8 71.8,120.0 72.5,120.0 73.1,120.0 73.7,120.0 74.3,116.8 74.9,116.7 75.6,116.5 76.2,116.4 76.8,118.0 77.4,117.9 78.0,117.8 78.7,117.7 79.3,118.2 79.9,118.1 80.5,118.0 81.1,118.0 81.8,117.9 82.4,117.8 83.0,117.7 83.6,117.6 84.2,118.6 84.9,118.6 85.5,118.5 86.1,118.4 86.7,119.5 87.3,119.5 88.0,119.5 88.6,119.5 89.2,118.8 89.8,118.8 90.4,118.7 91.1,118.7 91.7,117.0 92.3,116.9 92.9,116.8 93.5,116.7 94.2,116.8 94.8,116.6 95.4,116.5 96.0,116.4 96.6,115.2 97.3,115.0 97.9,114.8 98.5,114.7 99.1,112.1 99.7,111.9 100.4,111.6 101.0,111.3 101.6,111.0 102.2,110.7 102.8,110.4 103.5,110.0 104.1,110.6 104.7,110.3 105.3,110.0 105.9,109.6 106.6,108.8 107.2,108.4 107.8,108.1 108.4,107.7 109.0,110.4 109.7,110.1 110.3,109.9 110.9,109.6 111.5,111.2 112.1,111.0 112.8,110.8 113.4,110.6 114.0,110.0 114.6,109.8 115.2,109.6 115.9,109.3 116.5,108.0 117.1,107.7 117.7,107.4 118.3,107.1 119.0,107.0 119.6,106.7 120.2,106.4 120.8,106.1 121.4,106.9 122.1,106.6 122.7,106.4 123.3,106.1 123.9,106.8 124.5,106.5 125.2,106.3 125.8,106.0 126.4,105.7 127.0,105.5 127.6,105.2 128.3,105.0 128.9,103.5 129.5,103.2 130.1,102.9 130.7,102.6 131.4,103.9 132.0,103.6 132.6,103.4 133.2,103.1 133.8,100.4 134.5,100.1 135.1,99.7 135.7,99.4 136.3,99.4 136.9,99.1 137.6,98.7 138.2,98.4 138.8,97.7 139.4,97.3 140.0,96.9 140.7,96.5 141.3,97.2 141.9,96.8 142.5,96.5 143.1,96.1 143.8,95.9 144.4,95.6 145.0,95.2 145.6,94.9 146.2,94.4 146.9,94.1 147.5,93.7 148.1,93.3 148.7,92.5 149.3,92.1 150.0,91.7 150.6,91.3 151.2,90.2 151.8,89.8 152.4,89.4 153.1,89.0 153.7,87.2 154.3,86.7 154.9,86.3 155.5,85.8 156.2,84.3 156.8,83.9 157.4,83.4 158.0,82.9 158.6,82.5 159.3,82.0 159.9,81.5 160.5,81.0 161.1,81.3 161.7,80.8 162.4,80.3 163.0,79.8 163.6,81.3 164.2,80.9 164.8,80.4 165.5,80.0 166.1,80.8 166.7,80.3 167.3,79.9 167.9,79.5 168.6,80.1 169.2,79.7 169.8,79.3 170.4,78.9 171.0,78.4 171.7,78.0 172.3,77.6 172.9,77.2 173.5,76.4 174.1,76.0 174.8,75.6 175.4,75.2 176.0,74.6 176.6,74.2 177.2,73.8 177.9,73.3 178.5,72.2 179.1,71.8 179.7,71.4 180.3,71.0 181.0,69.6 181.6,69.1 182.2,68.7 182.8,68.3 183.4,68.5 184.1,68.1 184.7,67.7 185.3,67.3 185.9,66.0 186.5,65.5 187.2,65.1 187.8,64.7 188.4,63.7 189.0,63.2 189.6,62.8 190.3,62.3 190.9,62.7 191.5,62.3 192.1,61.9 192.7,61.5 193.4,61.5 194.0,61.1 194.6,60.7 195.2,60.3 195.8,58.5 196.5,58.1 197.1,57.7 197.7,57.3 198.3,58.1 198.9,57.7 199.6,57.3 200.2,57.0 200.8,59.2 201.4,58.8 202.0,58.5 202.7,58.2 203.3,58.9 203.9,58.6 204.5,58.4 205.1,58.1 205.8,57.3 206.4,57.0 207.0,56.7 207.6,56.4 208.2,56.8 208.9,56.5 209.5,56.3 210.1,56.0 210.7,55.5 211.3,55.3 212.0,55.0 212.6,54.8 213.2,54.9 213.8,54.7 214.4,54.5 215.1,54.3 215.7,53.2 216.3,53.0 216.9,52.8 217.5,52.6 218.2,51.2 218.8,50.9 219.4,50.7 220.0,50.5 220.6,50.3 221.3,50.1 221.9,49.9 222.5,49.7 223.1,48.9 223.7,48.7 224.4,48.5 225.0,48.3 225.6,47.6 226.2,47.4 226.8,47.2 227.5,47.0 228.1,46.5 228.7,46.3 229.3,46.1 229.9,45.9 230.6,45.1 231.2,45.0 231.8,44.8 232.4,44.6 233.0,43.2 233.7,43.0 234.3,42.8 234.9,42.7 235.5,42.5 236.1,42.3 236.8,42.2 237.4,42.0 238.0,42.7 238.6,42.6 239.2,42.5 239.9,42.3 240.5,43.2 241.1,43.1 241.7,43.0 242.3,42.9 243.0,42.4 243.6,42.3 244.2,42.2 244.8,42.1 245.4,43.1 246.1,43.1 246.7,43.0 247.3,43.0 247.9,42.9 248.5,42.9 249.2,42.8 249.8,42.8 250.4,44.2 251.0,44.2 251.6,44.2 252.3,44.2 252.9,44.9 253.5,44.9 254.1,45.0 254.7,45.0 255.4,44.9 256.0,45.0 256.6,45.0 257.2,45.1 257.8,45.1 258.5,45.2 259.1,45.2 259.7,45.3 260.3,44.6 260.9,44.7 261.6,44.7 262.2,44.8 262.8,45.3 263.4,45.4 264.0,45.5 264.7,45.6 265.3,47.4 265.9,47.6 266.5,47.7 267.1,47.8 267.8,46.9 268.4,47.0 269.0,47.1 269.6,47.2 270.2,46.3 270.9,46.5 271.5,46.6 272.1,46.7 272.7,47.3 273.3,47.4 274.0,47.5 274.6,47.7 275.2,47.2 275.8,47.3 276.4,47.5 277.1,47.6 277.7,47.2 278.3,47.3 278.9,47.5 279.5,47.6 280.2,49.2 280.8,49.4 281.4,49.6 282.0,49.7 282.6,50.2 283.3,50.4 283.9,50.6 284.5,50.8 285.1,50.8 285.7,51.0 286.4,51.2 287.0,51.4 287.6,52.8 288.2,53.0 288.8,53.2 289.5,53.5 290.1,53.4 290.7,53.7 291.3,53.9 291.9,54.1 292.6,53.3 293.2,53.5 293.8,53.7 294.4,54.0 295.0,54.1 295.7,54.3 296.3,54.5 296.9,54.8 297.5,55.4 298.1,55.6 298.8,55.8 299.4,56.1 300.0,56.3 300.6,56.5 301.2,56.8 301.9,57.0 302.5,56.5 303.1,56.7 303.7,57.0 304.3,57.2 305.0,58.0 305.6,58.3 306.2,58.5 306.8,58.8 307.4,58.9 308.1,59.1 308.7,59.3 309.3,59.6 309.9,58.2 310.5,58.4 311.2,58.6 311.8,58.8 312.4,57.6 313.0,57.8 313.6,58.0 314.3,58.2 314.9,58.3 315.5,58.5 316.1,58.7 316.7,58.9 317.4,59.7 318.0,59.8 318.6,60.0 319.2,60.2 319.8,59.8 320.5,59.9 321.1,60.1 321.7,60.3 322.3,61.0 322.9,61.2 323.6,61.4 324.2,61.5 324.8,60.3 325.4,60.5 326.0,60.6 326.7,60.8 327.3,61.2 327.9,61.3 328.5,61.4 329.1,61.6 329.8,62.2 330.4,62.3 331.0,62.4 331.6,62.6 332.2,63.4 332.9,63.6 333.5,63.7 334.1,63.9 334.7,63.9 335.3,64.0 336.0,64.2 336.6,64.3 337.2,63.7 337.8,63.8 338.4,63.9 339.1,64.0 339.7,64.0 340.3,64.1 340.9,64.2 341.5,64.3 342.2,65.5 342.8,65.6 343.4,65.7 344.0,65.8 344.6,65.9 345.3,66.0 345.9,66.1 346.5,66.2 347.1,67.3 347.7,67.4 348.4,67.5 349.0,67.6 349.6,68.2 350.2,68.3 350.8,68.4 351.5,68.5 352.1,69.3 352.7,69.4 353.3,69.5 353.9,69.7 354.6,68.6 355.2,68.7 355.8,68.8 356.4,68.8 357.0,69.5 357.7,69.6 358.3,69.7 358.9,69.8 359.5,69.9 360.1,69.9 360.8,70.0 361.4,70.1 362.0,70.8 362.6,70.9 363.2,70.9 363.9,71.0 364.5,70.8 365.1,70.9 365.7,70.9 366.3,71.0 367.0,72.1 367.6,72.1 368.2,72.2 368.8,72.2 369.4,72.7 370.1,72.7 370.7,72.8 371.3,72.8 371.9,73.7 372.5,73.7 373.2,73.8 373.8,73.9 374.4,73.6 375.0,73.6 375.6,73.7 376.3,73.7 376.9,73.6 377.5,73.6 378.1,73.6 378.7,73.7 379.4,74.4 380.0,74.4 380.6,74.4 381.2,74.5 381.8,75.5 382.5,75.6 383.1,75.6 383.7,75.7 384.3,74.1 384.9,74.1 385.6,74.1 386.2,74.1 386.8,74.7 387.4,74.7 388.0,74.7 388.7,74.7 389.3,74.2 389.9,74.2 390.5,74.2 391.1,74.1 391.8,74.1 392.4,74.1 393.0,74.1 393.6,74.1 394.2,73.6 394.9,73.6 395.5,73.5 396.1,73.5 396.7,73.8 397.3,73.8 398.0,73.7 398.6,73.7 399.2,73.9 399.8,73.9 400.4,73.9 401.1,73.8 401.7,72.9 402.3,72.8 402.9,72.8 403.5,72.7 404.2,72.5 404.8,72.4 405.4,72.4 406.0,72.3 406.6,71.7 407.3,71.6 407.9,71.5 408.5,71.4 409.1,71.3 409.7,71.2 410.4,71.2 411.0,71.1 411.6,70.9 412.2,70.8 412.8,70.7 413.5,70.6 414.1,71.7 414.7,71.6 415.3,71.6 415.9,71.5 416.6,71.2 417.2,71.1 417.8,71.1 418.4,71.0 419.0,71.6 419.7,71.5 420.3,71.4 420.9,71.4 421.5,72.2 422.1,72.2 422.8,72.1 423.4,72.1 424.0,71.7 424.6,71.6 425.2,71.6 425.9,71.5 426.5,72.1 427.1,72.0 427.7,72.0 428.3,72.0 429.0,72.0 429.6,72.0 430.2,72.0 430.8,71.9 431.4,71.4 432.1,71.3 432.7,71.3 433.3,71.3 433.9,70.9 434.5,70.9 435.2,70.9 435.8,70.8 436.4,70.8 437.0,70.7 437.6,70.7 438.3,70.7 438.9,70.4 439.5,70.4 440.1,70.3 440.7,70.3 441.4,70.0 442.0,70.0 442.6,70.0 443.2,69.9 443.8,70.5 444.5,70.5 445.1,70.5 445.7,70.5 446.3,69.1 446.9,69.0 447.6,69.0 448.2,69.0 448.8,68.6 449.4,68.6 450.0,68.5 450.7,68.5 451.3,68.6 451.9,68.5 452.5,68.5 453.1,68.5 453.8,70.2 454.4,70.2 455.0,70.3 455.6,70.3 456.2,69.4 456.9,69.5 457.5,69.5 458.1,69.5 458.7,69.0 459.3,69.0 460.0,69.1 460.6,69.1 461.2,67.4 461.8,67.4 462.4,67.4 463.1,67.4 463.7,67.8 464.3,67.8 464.9,67.9 465.5,67.9 466.2,67.6 466.8,67.6 467.4,67.7 468.0,67.7 468.6,68.7 469.3,68.8 469.9,68.8 470.5,68.9 471.1,67.5 471.7,67.6 472.4,67.6 473.0,67.7 473.6,67.8 474.2,67.9 474.8,68.0 475.5,68.0 476.1,67.4 476.7,67.4 477.3,67.5 477.9,67.6 478.6,67.2 479.2,67.2 479.8,67.3 480.4,67.4 481.0,67.1 481.7,67.2 482.3,67.3 482.9,67.4 483.5,66.9 484.1,67.0 484.8,67.1 485.4,67.2 486.0,67.3 486.6,67.4 487.2,67.5 487.9,67.7 488.5,68.3 489.1,68.5 489.7,68.6 490.3,68.8 491.0,68.7 491.6,68.8 492.2,69.0 492.8,69.1 493.4,69.7 494.1,69.9 494.7,70.1 495.3,70.3 495.9,69.3 496.5,69.5 497.2,69.7 497.8,69.9 498.4,69.5 499.0,69.7 499.6,69.8 500.3,70.0 500.9,69.6 501.5,69.8 502.1,70.0 502.7,70.2 503.4,71.2 504.0,71.4 504.6,71.6 505.2,71.8 505.8,73.7 506.5,73.9 507.1,74.2 507.7,74.4 508.3,74.4 508.9,74.7 509.6,74.9 510.2,75.2 510.8,77.4 511.4,77.7 512.0,78.0 512.7,78.3 513.3,78.9 513.9,79.2 514.5,79.5 515.1,79.9 515.8,81.2 516.4,81.5 517.0,81.9 517.6,82.3 518.2,83.4 518.9,83.8 519.5,84.2 520.1,84.6 520.7,86.6 521.3,87.0 522.0,87.4 522.6,87.9 523.2,87.9 523.8,88.3 524.4,88.8 525.1,89.2 525.7,88.7 526.3,89.2 526.9,89.6 527.5,90.0 528.2,91.0 528.8,91.5 529.4,91.9 530.0,92.4 530.6,92.8 531.3,93.3 531.9,93.7 532.5,94.2 533.1,94.9 533.7,95.4 534.4,95.9 535.0,96.4 535.6,97.3 536.2,97.8 536.8,98.3 537.5,98.8 538.1,100.0 538.7,100.5 539.3,101.0 539.9,101.6 540.6,102.9 541.2,103.4 541.8,104.0 542.4,104.5 543.0,104.2 543.7,104.8 544.3,105.3 544.9,105.9 545.5,106.8 546.1,107.4 546.8,108.0 547.4,108.5 548.0,109.2 548.6,109.7 549.2,110.3 549.9,110.8 550.5,112.1 551.1,112.7 551.7,113.3 552.3,113.8 553.0,114.5 553.6,115.1 554.2,115.7 554.8,116.3 555.4,114.9 556.1,115.5 556.7,116.0 557.3,116.6 557.9,116.6 558.5,117.2 559.2,117.7 559.8,118.3 560.4,118.9 561.0,119.5 561.6,120.0 562.3,120.6 562.9,121.4 563.5,121.9 564.1,122.5 564.7,123.1 565.4,123.0 566.0,123.5 566.6,124.1 567.2,124.6 567.8,125.0 568.5,125.5 569.1,126.1 569.7,126.6 570.3,126.9 570.9,127.4 571.6,128.0 572.2,128.5 572.8,127.0 573.4,127.5 574.0,128.0 574.7,128.5 575.3,128.0 575.9,128.5 576.5,129.0 577.1,129.5 577.8,130.2 578.4,130.7 579.0,131.1 579.6,131.6 580.2,131.0 580.9,131.5 581.5,131.9 582.1,132.4 582.7,133.4 583.3,133.9 584.0,134.3 584.6,134.8 585.2,134.8 585.8,135.2 586.4,135.6 587.1,136.1 587.7,137.1 588.3,137.5 588.9,138.0 589.5,138.4 590.2,137.9 590.8,138.3 591.4,138.8 592.0,139.2 592.6,139.9 593.3,140.3 593.9,140.7 594.5,141.1 595.1,140.4 595.7,140.8 596.4,141.2 597.0,141.6 597.6,140.7 598.2,141.1 598.8,141.4 599.5,141.8 600.1,143.2 600.7,143.6 601.3,143.9 601.9,144.3 602.6,145.6 603.2,146.0 603.8,146.4 604.4,146.7 605.0,147.9 605.7,148.2 606.3,148.6 606.9,148.9 607.5,148.9 608.1,149.3 608.8,149.6 609.4,150.0 610.0,150.8 610.6,151.1 611.2,151.4 611.9,151.8 612.5,152.5 613.1,152.9 613.7,153.2 614.3,153.5 615.0,153.8 615.6,154.1 616.2,154.4 616.8,154.7 617.4,154.8 618.1,155.1 618.7,155.4 619.3,155.7 619.9,155.8 620.5,156.1 621.2,156.4 621.8,156.7 622.4,157.3 623.0,157.6 623.6,157.9 624.3,158.1 624.9,159.5 625.5,159.8 626.1,160.1 626.7,160.4 627.4,160.9 628.0,161.2 628.6,161.5 629.2,161.7 629.8,162.6 630.5,162.9 631.1,163.1 631.7,163.4 632.3,164.5 632.9,164.8 633.6,165.1 634.2,165.3 634.8,165.4 635.4,165.7 636.0,166.0 636.7,166.3 637.3,167.9 637.9,168.2 638.5,168.5 639.1,168.7 639.8,170.2 640.4,170.5 641.0,170.8 641.6,171.1 642.2,172.5 642.9,172.8 643.5,173.1 644.1,173.4 644.7,172.3 645.3,172.6 646.0,172.9 646.6,173.2 647.2,173.3 647.8,173.6 648.4,173.9 649.1,174.1 649.7,174.5 650.3,174.8 650.9,175.1 651.5,175.3 652.2,176.0 652.8,176.2 653.4,176.5 654.0,176.8 654.6,177.1 655.3,177.4 655.9,177.6 656.5,177.9 657.1,177.8 657.7,178.0 658.4,178.3 659.0,178.5 659.6,178.8 660.2,179.1 660.8,179.3 661.5,179.6 662.1,179.9 662.7,180.1 663.3,180.4 663.9,180.6 664.6,179.1 665.2,179.3 665.8,179.5 666.4,179.8 667.0,179.4 667.7,179.6 668.3,179.8 668.9,180.0 669.5,181.0 670.1,181.2 670.8,181.4 671.4,181.6 672.0,180.9 672.6,181.1 673.2,181.3 673.9,181.5 674.5,181.5 675.1,181.7 675.7,181.9 676.3,182.1 677.0,181.8 677.6,182.0 678.2,182.2 678.8,182.4 679.4,182.8 680.1,183.0 680.7,183.2 681.3,183.4 681.9,183.3 682.5,183.5 683.2,183.7 683.8,183.9 684.4,183.6 685.0,183.8 685.6,184.0 686.3,184.1 686.9,184.5 687.5,184.7 688.1,184.9 688.7,185.2 689.4,185.2 690.0,185.5 690.6,185.7 691.2,185.9 691.8,185.8 692.5,186.1 693.1,186.3 693.7,186.5 694.3,187.9 694.9,188.1 695.6,188.3 696.2,188.6 696.8,188.8 697.4,189.0 698.0,189.3 698.7,189.6 699.3,191.2 699.9,191.4 700.5,191.7 701.1,192.0 701.8,193.1 702.4,193.4 703.0,193.7 703.6,194.0 704.2,192.6 704.9,192.9 705.5,193.2 706.1,193.5 706.7,193.3 707.3,193.6 708.0,193.9 708.6,194.2 709.2,194.6 709.8,194.9 710.4,195.2 711.1,195.6 711.7,195.4 712.3,195.7 712.9,196.0 713.5,196.3 714.2,196.1 714.8,196.4 715.4,196.7 716.0,197.0 716.6,197.8 717.3,198.2 717.9,198.5 718.5,198.9 719.1,198.9 719.7,199.2 720.4,199.6 721.0,199.9 721.6,200.1 722.2,200.4 722.8,200.8 723.5,201.2 724.1,201.2 724.7,201.6 725.3,201.9 725.9,202.3 726.6,203.4 727.2,203.8 727.8,204.2 728.4,204.6 729.0,204.1 729.7,204.5 730.3,204.9 730.9,205.3 731.5,205.8 732.1,206.2 732.8,206.6 733.4,207.0 734.0,207.5 734.6,207.9 735.2,208.4 735.9,208.8 736.5,209.0 737.1,209.5 737.7,209.9 738.3,210.4 739.0,210.8 739.6,211.3 740.2,211.7 740.8,212.2 741.4,212.4 742.1,212.9 742.7,213.3 743.3,213.8 743.9,214.5 744.5,215.0 745.2,215.5 745.8,216.0 746.4,216.3 747.0,216.8 747.6,217.3 748.3,217.8 748.9,218.2 749.5,218.7 750.1,219.2 750.7,219.7 751.4,220.9 752.0,221.5 752.6,222.0 753.2,222.6 753.8,223.8 754.5,224.4 755.1,225.0 755.7,225.6 756.3,227.1 756.9,227.7 757.6,228.3 758.2,228.9 758.8,228.4 759.4,229.0 760.0,229.7 760.7,230.3 761.3,230.5 761.9,231.1 762.5,231.8 763.1,232.4 763.8,233.5 764.4,234.1 765.0,234.8 765.6,235.4 766.2,236.2 766.9,236.8 767.5,237.5 768.1,238.2 768.7,239.3 769.3,240.0 770.0,240.7 770.6,241.3 771.2,241.9 771.8,242.6 772.4,243.3 773.1,244.0 773.7,244.9 774.3,245.6 774.9,246.4 775.5,247.1 776.2,246.9 776.8,247.7 777.4,248.4 778.0,249.1 778.6,251.7 779.3,252.4 779.9,253.2 780.5,254.0 781.1,254.8 781.7,255.6 782.4,256.4 783.0,257.2 783.6,258.2 784.2,259.0 784.8,259.8 785.5,260.5 786.1,260.6 786.7,261.4 787.3,262.2 787.9,263.0 788.6,264.1 789.2,264.8 789.8,265.6 790.4,266.4 791.0,268.2 791.7,269.0 792.3,269.8 792.9,270.7 793.5,270.5 794.1,271.3 794.8,272.2 795.4,273.0 796.0,274.0"/>
<text x="640" y="72" font-family="Arial" font-size="12" fill="#2563eb">estimate</text>
</svg>