<svg xmlns="http://www.w3.org/2000/svg" width="820" height="320" viewBox="0 0 820 320">
<rect width="100%" height="100%" fill="white"/>
<text x="52" y="30" font-family="Arial" font-size="18" font-weight="700">ekf_nominal accelerometer bias estimates</text>
<line x1="52" y1="274" x2="796" y2="274" stroke="#263238"/>
<line x1="52" y1="42" x2="52" y2="274" stroke="#263238"/>
<text x="52" y="306" font-family="Arial" font-size="12">time (s)</text>
<text x="630" y="306" font-family="Arial" font-size="12">m/s^2</text>

<polyline fill="none" stroke="#0f766e" stroke-width="2.3" points="52.0,118.6 52.6,118.6 53.2,118.6 53.9,118.6 54.5,118.6 55.1,118.6 55.7,118.6 56.3,118.6 57.0,118.6 57.6,118.6 58.2,118.6 58.8,118.6 59.4,118.6 60.1,118.6 60.7,118.6 61.3,118.6 61.9,118.6 62.5,118.6 63.2,118.6 63.8,118.6 64.4,106.5 65.0,106.5 65.6,106.5 66.3,106.5 66.9,106.5 67.5,106.5 68.1,106.5 68.7,106.5 69.4,106.5 70.0,106.5 70.6,106.5 71.2,106.5 71.8,106.5 72.5,106.5 73.1,106.5 73.7,106.5 74.3,106.5 74.9,106.5 75.6,106.5 76.2,106.5 76.8,114.4 77.4,114.4 78.0,114.4 78.7,114.4 79.3,114.4 79.9,114.4 80.5,114.4 81.1,114.4 81.8,114.4 82.4,114.4 83.0,114.4 83.6,114.4 84.2,114.4 84.9,114.4 85.5,114.4 86.1,114.4 86.7,114.4 87.3,114.4 88.0,114.4 88.6,114.4 89.2,175.5 89.8,175.5 90.4,175.5 91.1,175.5 91.7,175.5 92.3,175.5 92.9,175.5 93.5,175.5 94.2,175.5 94.8,175.5 95.4,175.5 96.0,175.5 96.6,175.5 97.3,175.5 97.9,175.5 98.5,175.5 99.1,175.5 99.7,175.5 100.4,175.5 101.0,175.5 101.6,183.2 102.2,183.2 102.8,183.2 103.5,183.2 104.1,183.2 104.7,183.2 105.3,183.2 105.9,183.2 106.6,183.2 107.2,183.2 107.8,183.2 108.4,183.2 109.0,183.2 109.7,183.2 110.3,183.2 110.9,183.2 111.5,183.2 112.1,183.2 112.8,183.2 113.4,183.2 114.0,77.8 114.6,77.8 115.2,77.8 115.9,77.8 116.5,77.8 117.1,77.8 117.7,77.8 118.3,77.8 119.0,77.8 119.6,77.8 120.2,77.8 120.8,77.8 121.4,77.8 122.1,77.8 122.7,77.8 123.3,77.8 123.9,77.8 124.5,77.8 125.2,77.8 125.8,77.8 126.4,84.6 127.0,84.6 127.6,84.6 128.3,84.6 128.9,84.6 129.5,84.6 130.1,84.6 130.7,84.6 131.4,84.6 132.0,84.6 132.6,84.6 133.2,84.6 133.8,84.6 134.5,84.6 135.1,84.6 135.7,84.6 136.3,84.6 136.9,84.6 137.6,84.6 138.2,84.6 138.8,171.1 139.4,171.1 140.0,171.1 140.7,171.1 141.3,171.1 141.9,171.1 142.5,171.1 143.1,171.1 143.8,171.1 144.4,171.1 145.0,171.1 145.6,171.1 146.2,171.1 146.9,171.1 147.5,171.1 148.1,171.1 148.7,171.1 149.3,171.1 150.0,171.1 150.6,171.1 151.2,216.7 151.8,216.7 152.4,216.7 153.1,216.7 153.7,216.7 154.3,216.7 154.9,216.7 155.5,216.7 156.2,216.7 156.8,216.7 157.4,216.7 158.0,216.7 158.6,216.7 159.3,216.7 159.9,216.7 160.5,216.7 161.1,216.7 161.7,216.7 162.4,216.7 163.0,216.7 163.6,192.0 164.2,192.0 164.8,192.0 165.5,192.0 166.1,192.0 166.7,192.0 167.3,192.0 167.9,192.0 168.6,192.0 169.2,192.0 169.8,192.0 170.4,192.0 171.0,192.0 171.7,192.0 172.3,192.0 172.9,192.0 173.5,192.0 174.1,192.0 174.8,192.0 175.4,192.0 176.0,180.8 176.6,180.8 177.2,180.8 177.9,180.8 178.5,180.8 179.1,180.8 179.7,180.8 180.3,180.8 181.0,180.8 181.6,180.8 182.2,180.8 182.8,180.8 183.4,180.8 184.1,180.8 184.7,180.8 185.3,180.8 185.9,180.8 186.5,180.8 187.2,180.8 187.8,180.8 188.4,123.8 189.0,123.8 189.6,123.8 190.3,123.8 190.9,123.8 191.5,123.8 192.1,123.8 192.7,123.8 193.4,123.8 194.0,123.8 194.6,123.8 195.2,123.8 195.8,123.8 196.5,123.8 197.1,123.8 197.7,123.8 198.3,123.8 198.9,123.8 199.6,123.8 200.2,123.8 200.8,165.5 201.4,165.5 202.0,165.5 202.7,165.5 203.3,165.5 203.9,165.5 204.5,165.5 205.1,165.5 205.8,165.5 206.4,165.5 207.0,165.5 207.6,165.5 208.2,165.5 208.9,165.5 209.5,165.5 210.1,165.5 210.7,165.5 211.3,165.5 212.0,165.5 212.6,165.5 213.2,151.5 213.8,151.5 214.4,151.5 215.1,151.5 215.7,151.5 216.3,151.5 216.9,151.5 217.5,151.5 218.2,151.5 218.8,151.5 219.4,151.5 220.0,151.5 220.6,151.5 221.3,151.5 221.9,151.5 222.5,151.5 223.1,151.5 223.7,151.5 224.4,151.5 225.0,151.5 225.6,157.0 226.2,157.0 226.8,157.0 227.5,157.0 228.1,157.0 228.7,157.0 229.3,157.0 229.9,157.0 230.6,157.0 231.2,157.0 231.8,157.0 232.4,157.0 233.0,157.0 233.7,157.0 234.3,157.0 234.9,157.0 235.5,157.0 236.1,157.0 236.8,157.0 237.4,157.0 238.0,147.6 238.6,147.6 239.2,147.6 239.9,147.6 240.5,147.6 241.1,147.6 241.7,147.6 242.3,147.6 243.0,147.6 243.6,147.6 244.2,147.6 244.8,147.6 245.4,147.6 246.1,147.6 246.7,147.6 247.3,147.6 247.9,147.6 248.5,147.6 249.2,147.6 249.8,147.6 250.4,147.3 251.0,147.3 251.6,147.3 252.3,147.3 252.9,147.3 253.5,147.3 254.1,147.3 254.7,147.3 255.4,147.3 256.0,147.3 256.6,147.3 257.2,147.3 257.8,147.3 258.5,147.3 259.1,147.3 259.7,147.3 260.3,147.3 260.9,147.3 261.6,147.3 262.2,147.3 262.8,137.5 263.4,137.5 264.0,137.5 264.7,137.5 265.3,137.5 265.9,137.5 266.5,137.5 267.1,137.5 267.8,137.5 268.4,137.5 269.0,137.5 269.6,137.5 270.2,137.5 270.9,137.5 271.5,137.5 272.1,137.5 272.7,137.5 273.3,137.5 274.0,137.5 274.6,137.5 275.2,151.7 275.8,151.7 276.4,151.7 277.1,151.7 277.7,151.7 278.3,151.7 278.9,151.7 279.5,151.7 280.2,151.7 280.8,151.7 281.4,151.7 282.0,151.7 282.6,151.7 283.3,151.7 283.9,151.7 284.5,151.7 285.1,151.7 285.7,151.7 286.4,151.7 287.0,151.7 287.6,147.8 288.2,147.8 288.8,147.8 289.5,147.8 290.1,147.8 290.7,147.8 291.3,147.8 291.9,147.8 292.6,147.8 293.2,147.8 293.8,147.8 294.4,147.8 295.0,147.8 295.7,147.8 296.3,147.8 296.9,147.8 297.5,147.8 298.1,147.8 298.8,147.8 299.4,147.8 300.0,126.8 300.6,126.8 301.2,126.8 301.9,126.8 302.5,126.8 303.1,126.8 303.7,126.8 304.3,126.8 305.0,126.8 305.6,126.8 306.2,126.8 306.8,126.8 307.4,126.8 308.1,126.8 308.7,126.8 309.3,126.8 309.9,126.8 310.5,126.8 311.2,126.8 311.8,126.8 312.4,121.4 313.0,121.4 313.6,121.4 314.3,121.4 314.9,121.4 315.5,121.4 316.1,121.4 316.7,121.4 317.4,121.4 318.0,121.4 318.6,121.4 319.2,121.4 319.8,121.4 320.5,121.4 321.1,121.4 321.7,121.4 322.3,121.4 322.9,121.4 323.6,121.4 324.2,121.4 324.8,116.5 325.4,116.5 326.0,116.5 326.7,116.5 327.3,116.5 327.9,116.5 328.5,116.5 329.1,116.5 329.8,116.5 330.4,116.5 331.0,116.5 331.6,116.5 332.2,116.5 332.9,116.5 333.5,116.5 334.1,116.5 334.7,116.5 335.3,116.5 336.0,116.5 336.6,116.5 337.2,106.6 337.8,106.6 338.4,106.6 339.1,106.6 339.7,106.6 340.3,106.6 340.9,106.6 341.5,106.6 342.2,106.6 342.8,106.6 343.4,106.6 344.0,106.6 344.6,106.6 345.3,106.6 345.9,106.6 346.5,106.6 347.1,106.6 347.7,106.6 348.4,106.6 349.0,106.6 349.6,109.6 350.2,109.6 350.8,109.6 351.5,109.6 352.1,109.6 352.7,109.6 353.3,109.6 353.9,109.6 354.6,109.6 355.2,109.6 355.8,109.6 356.4,109.6 357.0,109.6 357.7,109.6 358.3,109.6 358.9,109.6 359.5,109.6 360.1,109.6 360.8,109.6 361.4,109.6 362.0,111.0 362.6,111.0 363.2,111.0 363.9,111.0 364.5,111.0 365.1,111.0 365.7,111.0 366.3,111.0 367.0,111.0 367.6,111.0 368.2,111.0 368.8,111.0 369.4,111.0 370.1,111.0 370.7,111.0 371.3,111.0 371.9,111.0 372.5,111.0 373.2,111.0 373.8,111.0 374.4,113.8 375.0,113.8 375.6,113.8 376.3,113.8 376.9,113.8 377.5,113.8 378.1,113.8 378.7,113.8 379.4,113.8 380.0,113.8 380.6,113.8 381.2,113.8 381.8,113.8 382.5,113.8 383.1,113.8 383.7,113.8 384.3,113.8 384.9,113.8 385.6,113.8 386.2,113.8 386.8,114.3 387.4,114.3 388.0,114.3 388.7,114.3 389.3,114.3 389.9,114.3 390.5,114.3 391.1,114.3 391.8,114.3 392.4,114.3 393.0,114.3 393.6,114.3 394.2,114.3 394.9,114.3 395.5,114.3 396.1,114.3 396.7,114.3 397.3,114.3 398.0,114.3 398.6,114.3 399.2,114.3 399.8,114.3 400.4,114.3 401.1,114.3 401.7,114.3 402.3,114.3 402.9,114.3 403.5,114.3 404.2,114.3 404.8,114.3 405.4,114.3 406.0,114.3 406.6,114.3 407.3,114.3 407.9,114.3 408.5,114.3 409.1,114.3 409.7,114.3 410.4,114.3 411.0,114.3 411.6,114.3 412.2,114.3 412.8,114.3 413.5,114.3 414.1,114.3 414.7,114.3 415.3,114.3 415.9,114.3 416.6,114.3 417.2,114.3 417.8,114.3 418.4,114.3 419.0,114.3 419.7,114.3 420.3,114.3 420.9,114.3 421.5,114.3 422.1,114.3 422.8,114.3 423.4,114.3 424.0,114.3 424.6,114.3 425.2,114.3 425.9,114.3 426.5,114.3 427.1,114.3 427.7,114.3 428.3,114.3 429.0,114.3 429.6,114.3 430.2,114.3 430.8,114.3 431.4,114.3 432.1,114.3 432.7,114.3 433.3,114.3 433.9,114.3 434.5,114.3 435.2,114.3 435.8,114.3 436.4,114.3 437.0,114.3 437.6,114.3 438.3,114.3 438.9,114.3 439.5,114.3 440.1,114.3 440.7,114.3 441.4,114.3 442.0,114.3 442.6,114.3 443.2,114.3 443.8,114.3 444.5,114.3 445.1,114.3 445.7,114.3 446.3,114.3 446.9,114.3 447.6,114.3 448.2,114.3 448.8,114.3 449.4,114.3 450.0,114.3 450.7,114.3 451.3,114.3 451.9,114.3 452.5,114.3 453.1,114.3 453.8,114.3 454.4,114.3 455.0,114.3 455.6,114.3 456.2,114.3 456.9,114.3 457.5,114.3 458.1,114.3 458.7,114.3 459.3,114.3 460.0,114.3 460.6,114.3 461.2,114.3 461.8,114.3 462.4,114.3 463.1,114.3 463.7,114.3 464.3,114.3 464.9,114.3 465.5,114.3 466.2,114.3 466.8,114.3 467.4,114.3 468.0,114.3 468.6,114.3 469.3,114.3 469.9,114.3 470.5,114.3 471.1,114.3 471.7,114.3 472.4,114.3 473.0,114.3 473.6,114.3 474.2,114.3 474.8,114.3 475.5,114.3 476.1,114.3 476.7,114.3 477.3,114.3 477.9,114.3 478.6,114.3 479.2,114.3 479.8,114.3 480.4,114.3 481.0,114.3 481.7,114.3 482.3,114.3 482.9,114.3 483.5,114.3 484.1,114.3 484.8,114.3 485.4,114.3 486.0,114.3 486.6,114.3 487.2,114.3 487.9,114.3 488.5,114.3 489.1,114.3 489.7,114.3 490.3,114.3 491.0,114.3 491.6,114.3 492.2,114.3 492.8,114.3 493.4,114.3 494.1,114.3 494.7,114.3 495.3,114.3 495.9,114.3 496.5,114.3 497.2,114.3 497.8,114.3 498.4,114.3 499.0,114.3 499.6,114.3 500.3,114.3 500.9,114.3 501.5,114.3 502.1,114.3 502.7,114.3 503.4,114.3 504.0,114.3 504.6,114.3 505.2,114.3 505.8,114.3 506.5,114.3 507.1,114.3 507.7,114.3 508.3,114.3 508.9,114.3 509.6,114.3 510.2,114.3 510.8,107.2 511.4,107.2 512.0,107.2 512.7,107.2 513.3,107.2 513.9,107.2 514.5,107.2 515.1,107.2 515.8,107.2 516.4,107.2 517.0,107.2 517.6,107.2 518.2,107.2 518.9,107.2 519.5,107.2 520.1,107.2 520.7,107.2 521.3,107.2 522.0,107.2 522.6,107.2 523.2,105.0 523.8,105.0 524.4,105.0 525.1,105.0 525.7,105.0 526.3,105.0 526.9,105.0 527.5,105.0 528.2,105.0 528.8,105.0 529.4,105.0 530.0,105.0 530.6,105.0 531.3,105.0 531.9,105.0 532.5,105.0 533.1,105.0 533.7,105.0 534.4,105.0 535.0,105.0 535.6,106.3 536.2,106.3 536.8,106.3 537.5,106.3 538.1,106.3 538.7,106.3 539.3,106.3 539.9,106.3 540.6,106.3 541.2,106.3 541.8,106.3 542.4,106.3 543.0,106.3 543.7,106.3 544.3,106.3 544.9,106.3 545.5,106.3 546.1,106.3 546.8,106.3 547.4,106.3 548.0,105.4 548.6,105.4 549.2,105.4 549.9,105.4 550.5,105.4 551.1,105.4 551.7,105.4 552.3,105.4 553.0,105.4 553.6,105.4 554.2,105.4 554.8,105.4 555.4,105.4 556.1,105.4 556.7,105.4 557.3,105.4 557.9,105.4 558.5,105.4 559.2,105.4 559.8,105.4 560.4,104.4 561.0,104.4 561.6,104.4 562.3,104.4 562.9,104.4 563.5,104.4 564.1,104.4 564.7,104.4 565.4,104.4 566.0,104.4 566.6,104.4 567.2,104.4 567.8,104.4 568.5,104.4 569.1,104.4 569.7,104.4 570.3,104.4 570.9,104.4 571.6,104.4 572.2,104.4 572.8,105.7 573.4,105.7 574.0,105.7 574.7,105.7 575.3,105.7 575.9,105.7 576.5,105.7 577.1,105.7 577.8,105.7 578.4,105.7 579.0,105.7 579.6,105.7 580.2,105.7 580.9,105.7 581.5,105.7 582.1,105.7 582.7,105.7 583.3,105.7 584.0,105.7 584.6,105.7 585.2,105.7 585.8,105.7 586.4,105.7 587.1,105.7 587.7,105.7 588.3,105.7 588.9,105.7 589.5,105.7 590.2,105.7 590.8,105.7 591.4,105.7 592.0,105.7 592.6,105.7 593.3,105.7 593.9,105.7 594.5,105.7 595.1,105.7 595.7,105.7 596.4,105.7 597.0,105.7 597.6,104.4 598.2,104.4 598.8,104.4 599.5,104.4 600.1,104.4 600.7,104.4 601.3,104.4 601.9,104.4 602.6,104.4 603.2,104.4 603.8,104.4 604.4,104.4 605.0,104.4 605.7,104.4 606.3,104.4 606.9,104.4 607.5,104.4 608.1,104.4 608.8,104.4 609.4,104.4 610.0,103.5 610.6,103.5 611.2,103.5 611.9,103.5 612.5,103.5 613.1,103.5 613.7,103.5 614.3,103.5 615.0,103.5 615.6,103.5 616.2,103.5 616.8,103.5 617.4,103.5 618.1,103.5 618.7,103.5 619.3,103.5 619.9,103.5 620.5,103.5 621.2,103.5 621.8,103.5 622.4,100.9 623.0,100.9 623.6,100.9 624.3,100.9 624.9,100.9 625.5,100.9 626.1,100.9 626.7,100.9 627.4,100.9 628.0,100.9 628.6,100.9 629.2,100.9 629.8,100.9 630.5,100.9 631.1,100.9 631.7,100.9 632.3,100.9 632.9,100.9 633.6,100.9 634.2,100.9 634.8,101.0 635.4,101.0 636.0,101.0 636.7,101.0 637.3,101.0 637.9,101.0 638.5,101.0 639.1,101.0 639.8,101.0 640.4,101.0 641.0,101.0 641.6,101.0 642.2,101.0 642.9,101.0 643.5,101.0 644.1,101.0 644.7,101.0 645.3,101.0 646.0,101.0 646.6,101.0 647.2,99.9 647.8,99.9 648.4,99.9 649.1,99.9 649.7,99.9 650.3,99.9 650.9,99.9 651.5,99.9 652.2,99.9 652.8,99.9 653.4,99.9 654.0,99.9 654.6,99.9 655.3,99.9 655.9,99.9 656.5,99.9 657.1,99.9 657.7,99.9 658.4,99.9 659.0,99.9 659.6,99.7 660.2,99.7 660.8,99.7 661.5,99.7 662.1,99.7 662.7,99.7 663.3,99.7 663.9,99.7 664.6,99.7 665.2,99.7 665.8,99.7 666.4,99.7 667.0,99.7 667.7,99.7 668.3,99.7 668.9,99.7 669.5,99.7 670.1,99.7 670.8,99.7 671.4,99.7 672.0,98.5 672.6,98.5 673.2,98.5 673.9,98.5 674.5,98.5 675.1,98.5 675.7,98.5 676.3,98.5 677.0,98.5 677.6,98.5 678.2,98.5 678.8,98.5 679.4,98.5 680.1,98.5 680.7,98.5 681.3,98.5 681.9,98.5 682.5,98.5 683.2,98.5 683.8,98.5 684.4,100.2 685.0,100.2 685.6,100.2 686.3,100.2 686.9,100.2 687.5,100.2 688.1,100.2 688.7,100.2 689.4,100.2 690.0,100.2 690.6,100.2 691.2,100.2 691.8,100.2 692.5,100.2 693.1,100.2 693.7,100.2 694.3,100.2 694.9,100.2 695.6,100.2 696.2,100.2 696.8,99.6 697.4,99.6 698.0,99.6 698.7,99.6 699.3,99.6 699.9,99.6 700.5,99.6 701.1,99.6 701.8,99.6 702.4,99.6 703.0,99.6 703.6,99.6 704.2,99.6 704.9,99.6 705.5,99.6 706.1,99.6 706.7,99.6 707.3,99.6 708.0,99.6 708.6,99.6 709.2,99.1 709.8,99.1 710.4,99.1 711.1,99.1 711.7,99.1 712.3,99.1 712.9,99.1 713.5,99.1 714.2,99.1 714.8,99.1 715.4,99.1 716.0,99.1 716.6,99.1 717.3,99.1 717.9,99.1 718.5,99.1 719.1,99.1 719.7,99.1 720.4,99.1 721.0,99.1 721.6,99.9 722.2,99.9 722.8,99.9 723.5,99.9 724.1,99.9 724.7,99.9 725.3,99.9 725.9,99.9 726.6,99.9 727.2,99.9 727.8,99.9 728.4,99.9 729.0,99.9 729.7,99.9 730.3,99.9 730.9,99.9 731.5,99.9 732.1,99.9 732.8,99.9 733.4,99.9 734.0,99.8 734.6,99.8 735.2,99.8 735.9,99.8 736.5,99.8 737.1,99.8 737.7,99.8 738.3,99.8 739.0,99.8 739.6,99.8 740.2,99.8 740.8,99.8 741.4,99.8 742.1,99.8 742.7,99.8 743.3,99.8 743.9,99.8 744.5,99.8 745.2,99.8 745.8,99.8 746.4,100.0 747.0,100.0 747.6,100.0 748.3,100.0 748.9,100.0 749.5,100.0 750.1,100.0 750.7,100.0 751.4,100.0 752.0,100.0 752.6,100.0 753.2,100.0 753.8,100.0 754.5,100.0 755.1,100.0 755.7,100.0 756.3,100.0 756.9,100.0 757.6,100.0 758.2,100.0 758.8,98.6 759.4,98.6 760.0,98.6 760.7,98.6 761.3,98.6 761.9,98.6 762.5,98.6 763.1,98.6 763.8,98.6 764.4,98.6 765.0,98.6 765.6,98.6 766.2,98.6 766.9,98.6 767.5,98.6 768.1,98.6 768.7,98.6 769.3,98.6 770.0,98.6 770.6,98.6 771.2,98.1 771.8,98.1 772.4,98.1 773.1,98.1 773.7,98.1 774.3,98.1 774.9,98.1 775.5,98.1 776.2,98.1 776.8,98.1 777.4,98.1 778.0,98.1 778.6,98.1 779.3,98.1 779.9,98.1 780.5,98.1 781.1,98.1 781.7,98.1 782.4,98.1 783.0,98.1 783.6,98.6 784.2,98.6 784.8,98.6 785.5,98.6 786.1,98.6 786.7,98.6 787.3,98.6 787.9,98.6 788.6,98.6 789.2,98.6 789.8,98.6 790.4,98.6 791.0,98.6 791.7,98.6 792.3,98.6 792.9,98.6 793.5,98.6 794.1,98.6 794.8,98.6 795.4,98.6 796.0,99.4"/>
<text x="640" y="56" font-family="Arial" font-size="12" fill="#0f766e">bax</text>
<polyline fill="none" stroke="#2563eb" stroke-width="2.3" points="52.0,118.6 52.6,118.6 53.2,118.6 53.9,118.6 54.5,118.6 55.1,118.6 55.7,118.6 56.3,118.6 57.0,118.6 57.6,118.6 58.2,118.6 58.8,118.6 59.4,118.6 60.1,118.6 60.7,118.6 61.3,118.6 61.9,118.6 62.5,118.6 63.2,118.6 63.8,118.6 64.4,109.9 65.0,109.9 65.6,109.9 66.3,109.9 66.9,109.9 67.5,109.9 68.1,109.9 68.7,109.9 69.4,109.9 70.0,109.9 70.6,109.9 71.2,109.9 71.8,109.9 72.5,109.9 73.1,109.9 73.7,109.9 74.3,109.9 74.9,109.9 75.6,109.9 76.2,109.9 76.8,123.9 77.4,123.9 78.0,123.9 78.7,123.9 79.3,123.9 79.9,123.9 80.5,123.9 81.1,123.9 81.8,123.9 82.4,123.9 83.0,123.9 83.6,123.9 84.2,123.9 84.9,123.9 85.5,123.9 86.1,123.9 86.7,123.9 87.3,123.9 88.0,123.9 88.6,123.9 89.2,185.3 89.8,185.3 90.4,185.3 91.1,185.3 91.7,185.3 92.3,185.3 92.9,185.3 93.5,185.3 94.2,185.3 94.8,185.3 95.4,185.3 96.0,185.3 96.6,185.3 97.3,185.3 97.9,185.3 98.5,185.3 99.1,185.3 99.7,185.3 100.4,185.3 101.0,185.3 101.6,160.4 102.2,160.4 102.8,160.4 103.5,160.4 104.1,160.4 104.7,160.4 105.3,160.4 105.9,160.4 106.6,160.4 107.2,160.4 107.8,160.4 108.4,160.4 109.0,160.4 109.7,160.4 110.3,160.4 110.9,160.4 111.5,160.4 112.1,160.4 112.8,160.4 113.4,160.4 114.0,127.9 114.6,127.9 115.2,127.9 115.9,127.9 116.5,127.9 117.1,127.9 117.7,127.9 118.3,127.9 119.0,127.9 119.6,127.9 120.2,127.9 120.8,127.9 121.4,127.9 122.1,127.9 122.7,127.9 123.3,127.9 123.9,127.9 124.5,127.9 125.2,127.9 125.8,127.9 126.4,274.0 127.0,274.0 127.6,274.0 128.3,274.0 128.9,274.0 129.5,274.0 130.1,274.0 130.7,274.0 131.4,274.0 132.0,274.0 132.6,274.0 133.2,274.0 133.8,274.0 134.5,274.0 135.1,274.0 135.7,274.0 136.3,274.0 136.9,274.0 137.6,274.0 138.2,274.0 138.8,257.4 139.4,257.4 140.0,257.4 140.7,257.4 141.3,257.4 141.9,257.4 142.5,257.4 143.1,257.4 143.8,257.4 144.4,257.4 145.0,257.4 145.6,257.4 146.2,257.4 146.9,257.4 147.5,257.4 148.1,257.4 148.7,257.4 149.3,257.4 150.0,257.4 150.6,257.4 151.2,172.1 151.8,172.1 152.4,172.1 153.1,172.1 153.7,172.1 154.3,172.1 154.9,172.1 155.5,172.1 156.2,172.1 156.8,172.1 157.4,172.1 158.0,172.1 158.6,172.1 159.3,172.1 159.9,172.1 160.5,172.1 161.1,172.1 161.7,172.1 162.4,172.1 163.0,172.1 163.6,192.9 164.2,192.9 164.8,192.9 165.5,192.9 166.1,192.9 166.7,192.9 167.3,192.9 167.9,192.9 168.6,192.9 169.2,192.9 169.8,192.9 170.4,192.9 171.0,192.9 171.7,192.9 172.3,192.9 172.9,192.9 173.5,192.9 174.1,192.9 174.8,192.9 175.4,192.9 176.0,156.7 176.6,156.7 177.2,156.7 177.9,156.7 178.5,156.7 179.1,156.7 179.7,156.7 180.3,156.7 181.0,156.7 181.6,156.7 182.2,156.7 182.8,156.7 183.4,156.7 184.1,156.7 184.7,156.7 185.3,156.7 185.9,156.7 186.5,156.7 187.2,156.7 187.8,156.7 188.4,170.8 189.0,170.8 189.6,170.8 190.3,170.8 190.9,170.8 191.5,170.8 192.1,170.8 192.7,170.8 193.4,170.8 194.0,170.8 194.6,170.8 195.2,170.8 195.8,170.8 196.5,170.8 197.1,170.8 197.7,170.8 198.3,170.8 198.9,170.8 199.6,170.8 200.2,170.8 200.8,162.3 201.4,162.3 202.0,162.3 202.7,162.3 203.3,162.3 203.9,162.3 204.5,162.3 205.1,162.3 205.8,162.3 206.4,162.3 207.0,162.3 207.6,162.3 208.2,162.3 208.9,162.3 209.5,162.3 210.1,162.3 210.7,162.3 211.3,162.3 212.0,162.3 212.6,162.3 213.2,149.4 213.8,149.4 214.4,149.4 215.1,149.4 215.7,149.4 216.3,149.4 216.9,149.4 217.5,149.4 218.2,149.4 218.8,149.4 219.4,149.4 220.0,149.4 220.6,149.4 221.3,149.4 221.9,149.4 222.5,149.4 223.1,149.4 223.7,149.4 224.4,149.4 225.0,149.4 225.6,153.4 226.2,153.4 226.8,153.4 227.5,153.4 228.1,153.4 228.7,153.4 229.3,153.4 229.9,153.4 230.6,153.4 231.2,153.4 231.8,153.4 232.4,153.4 233.0,153.4 233.7,153.4 234.3,153.4 234.9,153.4 235.5,153.4 236.1,153.4 236.8,153.4 237.4,153.4 238.0,114.8 238.6,114.8 239.2,114.8 239.9,114.8 240.5,114.8 241.1,114.8 241.7,114.8 242.3,114.8 243.0,114.8 243.6,114.8 244.2,114.8 244.8,114.8 245.4,114.8 246.1,114.8 246.7,114.8 247.3,114.8 247.9,114.8 248.5,114.8 249.2,114.8 249.8,114.8 250.4,121.7 251.0,121.7 251.6,121.7 252.3,121.7 252.9,121.7 253.5,121.7 254.1,121.7 254.7,121.7 255.4,121.7 256.0,121.7 256.6,121.7 257.2,121.7 257.8,121.7 258.5,121.7 259.1,121.7 259.7,121.7 260.3,121.7 260.9,121.7 261.6,121.7 262.2,121.7 262.8,123.3 263.4,123.3 264.0,123.3 264.7,123.3 265.3,123.3 265.9,123.3 266.5,123.3 267.1,123.3 267.8,123.3 268.4,123.3 269.0,123.3 269.6,123.3 270.2,123.3 270.9,123.3 271.5,123.3 272.1,123.3 272.7,123.3 273.3,123.3 274.0,123.3 274.6,123.3 275.2,141.7 275.8,141.7 276.4,141.7 277.1,141.7 277.7,141.7 278.3,141.7 278.9,141.7 279.5,141.7 280.2,141.7 280.8,141.7 281.4,141.7 282.0,141.7 282.6,141.7 283.3,141.7 283.9,141.7 284.5,141.7 285.1,141.7 285.7,141.7 286.4,141.7 287.0,141.7 287.6,140.2 288.2,140.2 288.8,140.2 289.5,140.2 290.1,140.2 290.7,140.2 291.3,140.2 291.9,140.2 292.6,140.2 293.2,140.2 293.8,140.2 294.4,140.2 295.0,140.2 295.7,140.2 296.3,140.2 296.9,140.2 297.5,140.2 298.1,140.2 298.8,140.2 299.4,140.2 300.0,130.2 300.6,130.2 301.2,130.2 301.9,130.2 302.5,130.2 303.1,130.2 303.7,130.2 304.3,130.2 305.0,130.2 305.6,130.2 306.2,130.2 306.8,130.2 307.4,130.2 308.1,130.2 308.7,130.2 309.3,130.2 309.9,130.2 310.5,130.2 311.2,130.2 311.8,130.2 312.4,119.0 313.0,119.0 313.6,119.0 314.3,119.0 314.9,119.0 315.5,119.0 316.1,119.0 316.7,119.0 317.4,119.0 318.0,119.0 318.6,119.0 319.2,119.0 319.8,119.0 320.5,119.0 321.1,119.0 321.7,119.0 322.3,119.0 322.9,119.0 323.6,119.0 324.2,119.0 324.8,118.4 325.4,118.4 326.0,118.4 326.7,118.4 327.3,118.4 327.9,118.4 328.5,118.4 329.1,118.4 329.8,118.4 330.4,118.4 331.0,118.4 331.6,118.4 332.2,118.4 332.9,118.4 333.5,118.4 334.1,118.4 334.7,118.4 335.3,118.4 336.0,118.4 336.6,118.4 337.2,126.1 337.8,126.1 338.4,126.1 339.1,126.1 339.7,126.1 340.3,126.1 340.9,126.1 341.5,126.1 342.2,126.1 342.8,126.1 343.4,126.1 344.0,126.1 344.6,126.1 345.3,126.1 345.9,126.1 346.5,126.1 347.1,126.1 347.7,126.1 348.4,126.1 349.0,126.1 349.6,129.4 350.2,129.4 350.8,129.4 351.5,129.4 352.1,129.4 352.7,129.4 353.3,129.4 353.9,129.4 354.6,129.4 355.2,129.4 355.8,129.4 356.4,129.4 357.0,129.4 357.7,129.4 358.3,129.4 358.9,129.4 359.5,129.4 360.1,129.4 360.8,129.4 361.4,129.4 362.0,127.3 362.6,127.3 363.2,127.3 363.9,127.3 364.5,127.3 365.1,127.3 365.7,127.3 366.3,127.3 367.0,127.3 367.6,127.3 368.2,127.3 368.8,127.3 369.4,127.3 370.1,127.3 370.7,127.3 371.3,127.3 371.9,127.3 372.5,127.3 373.2,127.3 373.8,127.3 374.4,123.2 375.0,123.2 375.6,123.2 376.3,123.2 376.9,123.2 377.5,123.2 378.1,123.2 378.7,123.2 379.4,123.2 380.0,123.2 380.6,123.2 381.2,123.2 381.8,123.2 382.5,123.2 383.1,123.2 383.7,123.2 384.3,123.2 384.9,123.2 385.6,123.2 386.2,123.2 386.8,127.8 387.4,127.8 388.0,127.8 388.7,127.8 389.3,127.8 389.9,127.8 390.5,127.8 391.1,127.8 391.8,127.8 392.4,127.8 393.0,127.8 393.6,127.8 394.2,127.8 394.9,127.8 395.5,127.8 396.1,127.8 396.7,127.8 397.3,127.8 398.0,127.8 398.6,127.8 399.2,127.8 399.8,127.8 400.4,127.8 401.1,127.8 401.7,127.8 402.3,127.8 402.9,127.8 403.5,127.8 404.2,127.8 404.8,127.8 405.4,127.8 406.0,127.8 406.6,127.8 407.3,127.8 407.9,127.8 408.5,127.8 409.1,127.8 409.7,127.8 410.4,127.8 411.0,127.8 411.6,127.8 412.2,127.8 412.8,127.8 413.5,127.8 414.1,127.8 414.7,127.8 415.3,127.8 415.9,127.8 416.6,127.8 417.2,127.8 417.8,127.8 418.4,127.8 419.0,127.8 419.7,127.8 420.3,127.8 420.9,127.8 421.5,127.8 422.1,127.8 422.8,127.8 423.4,127.8 424.0,127.8 424.6,127.8 425.2,127.8 425.9,127.8 426.5,127.8 427.1,127.8 427.7,127.8 428.3,127.8 429.0,127.8 429.6,127.8 430.2,127.8 430.8,127.8 431.4,127.8 432.1,127.8 432.7,127.8 433.3,127.8 433.9,127.8 434.5,127.8 435.2,127.8 435.8,127.8 436.4,127.8 437.0,127.8 437.6,127.8 438.3,127.8 438.9,127.8 439.5,127.8 440.1,127.8 440.7,127.8 441.4,127.8 442.0,127.8 442.6,127.8 443.2,127.8 443.8,127.8 444.5,127.8 445.1,127.8 445.7,127.8 446.3,127.8 446.9,127.8 447.6,127.8 448.2,127.8 448.8,127.8 449.4,127.8 450.0,127.8 450.7,127.8 451.3,127.8 451.9,127.8 452.5,127.8 453.1,127.8 453.8,127.8 454.4,127.8 455.0,127.8 455.6,127.8 456.2,127.8 456.9,127.8 457.5,127.8 458.1,127.8 458.7,127.8 459.3,127.8 460.0,127.8 460.6,127.8 461.2,127.8 461.8,127.8 462.4,127.8 463.1,127.8 463.7,127.8 464.3,127.8 464.9,127.8 465.5,127.8 466.2,127.8 466.8,127.8 467.4,127.8 468.0,127.8 468.6,127.8 469.3,127.8 469.9,127.8 470.5,127.8 471.1,127.8 471.7,127.8 472.4,127.8 473.0,127.8 473.6,127.8 474.2,127.8 474.8,127.8 475.5,127.8 476.1,127.8 476.7,127.8 477.3,127.8 477.9,127.8 478.6,127.8 479.2,127.8 479.8,127.8 480.4,127.8 481.0,127.8 481.7,127.8 482.3,127.8 482.9,127.8 483.5,127.8 484.1,127.8 484.8,127.8 485.4,127.8 486.0,127.8 486.6,127.8 487.2,127.8 487.9,127.8 488.5,127.8 489.1,127.8 489.7,127.8 490.3,127.8 491.0,127.8 491.6,127.8 492.2,127.8 492.8,127.8 493.4,127.8 494.1,127.8 494.7,127.8 495.3,127.8 495.9,127.8 496.5,127.8 497.2,127.8 497.8,127.8 498.4,127.8 499.0,127.8 499.6,127.8 500.3,127.8 500.9,127.8 501.5,127.8 502.1,127.8 502.7,127.8 503.4,127.8 504.0,127.8 504.6,127.8 505.2,127.8 505.8,127.8 506.5,127.8 507.1,127.8 507.7,127.8 508.3,127.8 508.9,127.8 509.6,127.8 510.2,127.8 510.8,133.3 511.4,133.3 512.0,133.3 512.7,133.3 513.3,133.3 513.9,133.3 514.5,133.3 515.1,133.3 515.8,133.3 516.4,133.3 517.0,133.3 517.6,133.3 518.2,133.3 518.9,133.3 519.5,133.3 520.1,133.3 520.7,133.3 521.3,133.3 522.0,133.3 522.6,133.3 523.2,133.5 523.8,133.5 524.4,133.5 525.1,133.5 525.7,133.5 526.3,133.5 526.9,133.5 527.5,133.5 528.2,133.5 528.8,133.5 529.4,133.5 530.0,133.5 530.6,133.5 531.3,133.5 531.9,133.5 532.5,133.5 533.1,133.5 533.7,133.5 534.4,133.5 535.0,133.5 535.6,132.3 536.2,132.3 536.8,132.3 537.5,132.3 538.1,132.3 538.7,132.3 539.3,132.3 539.9,132.3 540.6,132.3 541.2,132.3 541.8,132.3 542.4,132.3 543.0,132.3 543.7,132.3 544.3,132.3 544.9,132.3 545.5,132.3 546.1,132.3 546.8,132.3 547.4,132.3 548.0,132.5 548.6,132.5 549.2,132.5 549.9,132.5 550.5,132.5 551.1,132.5 551.7,132.5 552.3,132.5 553.0,132.5 553.6,132.5 554.2,132.5 554.8,132.5 555.4,132.5 556.1,132.5 556.7,132.5 557.3,132.5 557.9,132.5 558.5,132.5 559.2,132.5 559.8,132.5 560.4,132.5 561.0,132.5 561.6,132.5 562.3,132.5 562.9,132.5 563.5,132.5 564.1,132.5 564.7,132.5 565.4,132.5 566.0,132.5 566.6,132.5 567.2,132.5 567.8,132.5 568.5,132.5 569.1,132.5 569.7,132.5 570.3,132.5 570.9,132.5 571.6,132.5 572.2,132.5 572.8,133.7 573.4,133.7 574.0,133.7 574.7,133.7 575.3,133.7 575.9,133.7 576.5,133.7 577.1,133.7 577.8,133.7 578.4,133.7 579.0,133.7 579.6,133.7 580.2,133.7 580.9,133.7 581.5,133.7 582.1,133.7 582.7,133.7 583.3,133.7 584.0,133.7 584.6,133.7 585.2,133.7 585.8,133.7 586.4,133.7 587.1,133.7 587.7,133.7 588.3,133.7 588.9,133.7 589.5,133.7 590.2,133.7 590.8,133.7 591.4,133.7 592.0,133.7 592.6,133.7 593.3,133.7 593.9,133.7 594.5,133.7 595.1,133.7 595.7,133.7 596.4,133.7 597.0,133.7 597.6,133.5 598.2,133.5 598.8,133.5 599.5,133.5 600.1,133.5 600.7,133.5 601.3,133.5 601.9,133.5 602.6,133.5 603.2,133.5 603.8,133.5 604.4,133.5 605.0,133.5 605.7,133.5 606.3,133.5 606.9,133.5 607.5,133.5 608.1,133.5 608.8,133.5 609.4,133.5 610.0,136.1 610.6,136.1 611.2,136.1 611.9,136.1 612.5,136.1 613.1,136.1 613.7,136.1 614.3,136.1 615.0,136.1 615.6,136.1 616.2,136.1 616.8,136.1 617.4,136.1 618.1,136.1 618.7,136.1 619.3,136.1 619.9,136.1 620.5,136.1 621.2,136.1 621.8,136.1 622.4,135.7 623.0,135.7 623.6,135.7 624.3,135.7 624.9,135.7 625.5,135.7 626.1,135.7 626.7,135.7 627.4,135.7 628.0,135.7 628.6,135.7 629.2,135.7 629.8,135.7 630.5,135.7 631.1,135.7 631.7,135.7 632.3,135.7 632.9,135.7 633.6,135.7 634.2,135.7 634.8,132.7 635.4,132.7 636.0,132.7 636.7,132.7 637.3,132.7 637.9,132.7 638.5,132.7 639.1,132.7 639.8,132.7 640.4,132.7 641.0,132.7 641.6,132.7 642.2,132.7 642.9,132.7 643.5,132.7 644.1,132.7 644.7,132.7 645.3,132.7 646.0,132.7 646.6,132.7 647.2,133.8 647.8,133.8 648.4,133.8 649.1,133.8 649.7,133.8 650.3,133.8 650.9,133.8 651.5,133.8 652.2,133.8 652.8,133.8 653.4,133.8 654.0,133.8 654.6,133.8 655.3,133.8 655.9,133.8 656.5,133.8 657.1,133.8 657.7,133.8 658.4,133.8 659.0,133.8 659.6,135.4 660.2,135.4 660.8,135.4 661.5,135.4 662.1,135.4 662.7,135.4 663.3,135.4 663.9,135.4 664.6,135.4 665.2,135.4 665.8,135.4 666.4,135.4 667.0,135.4 667.7,135.4 668.3,135.4 668.9,135.4 669.5,135.4 670.1,135.4 670.8,135.4 671.4,135.4 672.0,135.2 672.6,135.2 673.2,135.2 673.9,135.2 674.5,135.2 675.1,135.2 675.7,135.2 676.3,135.2 677.0,135.2 677.6,135.2 678.2,135.2 678.8,135.2 679.4,135.2 680.1,135.2 680.7,135.2 681.3,135.2 681.9,135.2 682.5,135.2 683.2,135.2 683.8,135.2 684.4,134.2 685.0,134.2 685.6,134.2 686.3,134.2 686.9,134.2 687.5,134.2 688.1,134.2 688.7,134.2 689.4,134.2 690.0,134.2 690.6,134.2 691.2,134.2 691.8,134.2 692.5,134.2 693.1,134.2 693.7,134.2 694.3,134.2 694.9,134.2 695.6,134.2 696.2,134.2 696.8,134.8 697.4,134.8 698.0,134.8 698.7,134.8 699.3,134.8 699.9,134.8 700.5,134.8 701.1,134.8 701.8,134.8 702.4,134.8 703.0,134.8 703.6,134.8 704.2,134.8 704.9,134.8 705.5,134.8 706.1,134.8 706.7,134.8 707.3,134.8 708.0,134.8 708.6,134.8 709.2,136.5 709.8,136.5 710.4,136.5 711.1,136.5 711.7,136.5 712.3,136.5 712.9,136.5 713.5,136.5 714.2,136.5 714.8,136.5 715.4,136.5 716.0,136.5 716.6,136.5 717.3,136.5 717.9,136.5 718.5,136.5 719.1,136.5 719.7,136.5 720.4,136.5 721.0,136.5 721.6,136.4 722.2,136.4 722.8,136.4 723.5,136.4 724.1,136.4 724.7,136.4 725.3,136.4 725.9,136.4 726.6,136.4 727.2,136.4 727.8,136.4 728.4,136.4 729.0,136.4 729.7,136.4 730.3,136.4 730.9,136.4 731.5,136.4 732.1,136.4 732.8,136.4 733.4,136.4 734.0,137.7 734.6,137.7 735.2,137.7 735.9,137.7 736.5,137.7 737.1,137.7 737.7,137.7 738.3,137.7 739.0,137.7 739.6,137.7 740.2,137.7 740.8,137.7 741.4,137.7 742.1,137.7 742.7,137.7 743.3,137.7 743.9,137.7 744.5,137.7 745.2,137.7 745.8,137.7 746.4,138.0 747.0,138.0 747.6,138.0 748.3,138.0 748.9,138.0 749.5,138.0 750.1,138.0 750.7,138.0 751.4,138.0 752.0,138.0 752.6,138.0 753.2,138.0 753.8,138.0 754.5,138.0 755.1,138.0 755.7,138.0 756.3,138.0 756.9,138.0 757.6,138.0 758.2,138.0 758.8,136.7 759.4,136.7 760.0,136.7 760.7,136.7 761.3,136.7 761.9,136.7 762.5,136.7 763.1,136.7 763.8,136.7 764.4,136.7 765.0,136.7 765.6,136.7 766.2,136.7 766.9,136.7 767.5,136.7 768.1,136.7 768.7,136.7 769.3,136.7 770.0,136.7 770.6,136.7 771.2,135.7 771.8,135.7 772.4,135.7 773.1,135.7 773.7,135.7 774.3,135.7 774.9,135.7 775.5,135.7 776.2,135.7 776.8,135.7 777.4,135.7 778.0,135.7 778.6,135.7 779.3,135.7 779.9,135.7 780.5,135.7 781.1,135.7 781.7,135.7 782.4,135.7 783.0,135.7 783.6,135.4 784.2,135.4 784.8,135.4 785.5,135.4 786.1,135.4 786.7,135.4 787.3,135.4 787.9,135.4 788.6,135.4 789.2,135.4 789.8,135.4 790.4,135.4 791.0,135.4 791.7,135.4 792.3,135.4 792.9,135.4 793.5,135.4 794.1,135.4 794.8,135.4 795.4,135.4 796.0,134.6"/>
<text x="640" y="72" font-family="Arial" font-size="12" fill="#2563eb">bay</text>
<polyline fill="none" stroke="#b45309" stroke-width="2.3" points="52.0,118.6 52.6,118.6 53.2,118.6 53.9,118.6 54.5,117.3 55.1,117.3 55.7,117.3 56.3,117.3 57.0,124.6 57.6,124.6 58.2,124.6 58.8,124.6 59.4,117.1 60.1,117.1 60.7,117.1 61.3,117.1 61.9,112.2 62.5,112.2 63.2,112.2 63.8,112.2 64.4,114.0 65.0,114.0 65.6,114.0 66.3,114.0 66.9,107.5 67.5,107.5 68.1,107.5 68.7,107.5 69.4,106.0 70.0,106.0 70.6,106.0 71.2,106.0 71.8,116.2 72.5,116.2 73.1,116.2 73.7,116.2 74.3,165.9 74.9,165.9 75.6,165.9 76.2,165.9 76.8,133.8 77.4,133.8 78.0,133.8 78.7,133.8 79.3,117.2 79.9,117.2 80.5,117.2 81.1,117.2 81.8,115.6 82.4,115.6 83.0,115.6 83.6,115.6 84.2,80.8 84.9,80.8 85.5,80.8 86.1,80.8 86.7,42.0 87.3,42.0 88.0,42.0 88.6,42.0 89.2,64.3 89.8,64.3 90.4,64.3 91.1,64.3 91.7,123.5 92.3,123.5 92.9,123.5 93.5,123.5 94.2,116.1 94.8,116.1 95.4,116.1 96.0,116.1 96.6,152.6 97.3,152.6 97.9,152.6 98.5,152.6 99.1,225.9 99.7,225.9 100.4,225.9 101.0,225.9 101.6,220.7 102.2,220.7 102.8,220.7 103.5,220.7 104.1,194.5 104.7,194.5 105.3,194.5 105.9,194.5 106.6,207.5 107.2,207.5 107.8,207.5 108.4,207.5 109.0,131.9 109.7,131.9 110.3,131.9 110.9,131.9 111.5,90.6 112.1,90.6 112.8,90.6 113.4,90.6 114.0,98.4 114.6,98.4 115.2,98.4 115.9,98.4 116.5,122.0 117.1,122.0 117.7,122.0 118.3,122.0 119.0,120.2 119.6,120.2 120.2,120.2 120.8,120.2 121.4,102.9 122.1,102.9 122.7,102.9 123.3,102.9 123.9,88.6 124.5,88.6 125.2,88.6 125.8,88.6 126.4,89.8 127.0,89.8 127.6,89.8 128.3,89.8 128.9,107.7 129.5,107.7 130.1,107.7 130.7,107.7 131.4,86.5 132.0,86.5 132.6,86.5 133.2,86.5 133.8,117.2 134.5,117.2 135.1,117.2 135.7,117.2 136.3,112.8 136.9,112.8 137.6,112.8 138.2,112.8 138.8,116.3 139.4,116.3 140.0,116.3 140.7,116.3 141.3,106.1 141.9,106.1 142.5,106.1 143.1,106.1 143.8,105.2 144.4,105.2 145.0,105.2 145.6,105.2 146.2,106.1 146.9,106.1 147.5,106.1 148.1,106.1 148.7,110.9 149.3,110.9 150.0,110.9 150.6,110.9 151.2,116.8 151.8,116.8 152.4,116.8 153.1,116.8 153.7,128.3 154.3,128.3 154.9,128.3 155.5,128.3 156.2,136.3 156.8,136.3 157.4,136.3 158.0,136.3 158.6,135.7 159.3,135.7 159.9,135.7 160.5,135.7 161.1,130.8 161.7,130.8 162.4,130.8 163.0,130.8 163.6,118.2 164.2,118.2 164.8,118.2 165.5,118.2 166.1,110.7 166.7,110.7 167.3,110.7 167.9,110.7 168.6,105.0 169.2,105.0 169.8,105.0 170.4,105.0 171.0,105.4 171.7,105.4 172.3,105.4 172.9,105.4 173.5,107.9 174.1,107.9 174.8,107.9 175.4,107.9 176.0,109.0 176.6,109.0 177.2,109.0 177.9,109.0 178.5,112.7 179.1,112.7 179.7,112.7 180.3,112.7 181.0,117.5 181.6,117.5 182.2,117.5 182.8,117.5 183.4,114.2 184.1,114.2 184.7,114.2 185.3,114.2 185.9,118.3 186.5,118.3 187.2,118.3 187.8,118.3 188.4,120.7 189.0,120.7 189.6,120.7 190.3,120.7 190.9,117.5 191.5,117.5 192.1,117.5 192.7,117.5 193.4,115.7 194.0,115.7 194.6,115.7 195.2,115.7 195.8,121.2 196.5,121.2 197.1,121.2 197.7,121.2 198.3,116.7 198.9,116.7 199.6,116.7 200.2,116.7 200.8,107.6 201.4,107.6 202.0,107.6 202.7,107.6 203.3,103.9 203.9,103.9 204.5,103.9 205.1,103.9 205.8,105.5 206.4,105.5 207.0,105.5 207.6,105.5 208.2,103.3 208.9,103.3 209.5,103.3 210.1,103.3 210.7,103.9 211.3,103.9 212.0,103.9 212.6,103.9 213.2,102.6 213.8,102.6 214.4,102.6 215.1,102.6 215.7,105.0 216.3,105.0 216.9,105.0 217.5,105.0 218.2,108.3 218.8,108.3 219.4,108.3 220.0,108.3 220.6,108.2 221.3,108.2 221.9,108.2 222.5,108.2 223.1,109.6 223.7,109.6 224.4,109.6 225.0,109.6 225.6,111.2 226.2,111.2 226.8,111.2 227.5,111.2 228.1,111.9 228.7,111.9 229.3,111.9 229.9,111.9 230.6,113.4 231.2,113.4 231.8,113.4 232.4,113.4 233.0,116.3 233.7,116.3 234.3,116.3 234.9,116.3 235.5,116.4 236.1,116.4 236.8,116.4 237.4,116.4 238.0,114.5 238.6,114.5 239.2,114.5 239.9,114.5 240.5,112.2 241.1,112.2 241.7,112.2 242.3,112.2 243.0,113.2 243.6,113.2 244.2,113.2 244.8,113.2 245.4,111.0 246.1,111.0 246.7,111.0 247.3,111.0 247.9,111.0 248.5,111.0 249.2,111.0 249.8,111.0 250.4,108.2 251.0,108.2 251.6,108.2 252.3,108.2 252.9,106.8 253.5,106.8 254.1,106.8 254.7,106.8 255.4,106.9 256.0,106.9 256.6,106.9 257.2,106.9 257.8,106.9 258.5,106.9 259.1,106.9 259.7,106.9 260.3,108.2 260.9,108.2 261.6,108.2 262.2,108.2 262.8,107.4 263.4,107.4 264.0,107.4 264.7,107.4 265.3,104.3 265.9,104.3 266.5,104.3 267.1,104.3 267.8,106.0 268.4,106.0 269.0,106.0 269.6,106.0 270.2,107.6 270.9,107.6 271.5,107.6 272.1,107.6 272.7,106.9 273.3,106.9 274.0,106.9 274.6,106.9 275.2,107.7 275.8,107.7 276.4,107.7 277.1,107.7 277.7,108.6 278.3,108.6 278.9,108.6 279.5,108.6 280.2,106.4 280.8,106.4 281.4,106.4 282.0,106.4 282.6,105.9 283.3,105.9 283.9,105.9 284.5,105.9 285.1,106.1 285.7,106.1 286.4,106.1 287.0,106.1 287.6,104.4 288.2,104.4 288.8,104.4 289.5,104.4 290.1,104.7 290.7,104.7 291.3,104.7 291.9,104.7 292.6,106.0 293.2,106.0 293.8,106.0 294.4,106.0 295.0,106.1 295.7,106.1 296.3,106.1 296.9,106.1 297.5,105.6 298.1,105.6 298.8,105.6 299.4,105.6 300.0,105.6 300.6,105.6 301.2,105.6 301.9,105.6 302.5,106.5 303.1,106.5 303.7,106.5 304.3,106.5 305.0,105.7 305.6,105.7 306.2,105.7 306.8,105.7 307.4,105.9 308.1,105.9 308.7,105.9 309.3,105.9 309.9,107.8 310.5,107.8 311.2,107.8 311.8,107.8 312.4,109.5 313.0,109.5 313.6,109.5 314.3,109.5 314.9,109.6 315.5,109.6 316.1,109.6 316.7,109.6 317.4,109.0 318.0,109.0 318.6,109.0 319.2,109.0 319.8,109.9 320.5,109.9 321.1,109.9 321.7,109.9 322.3,109.3 322.9,109.3 323.6,109.3 324.2,109.3 324.8,111.0 325.4,111.0 326.0,111.0 326.7,111.0 327.3,110.8 327.9,110.8 328.5,110.8 329.1,110.8 329.8,110.4 330.4,110.4 331.0,110.4 331.6,110.4 332.2,109.7 332.9,109.7 333.5,109.7 334.1,109.7 334.7,110.0 335.3,110.0 336.0,110.0 336.6,110.0 337.2,110.8 337.8,110.8 338.4,110.8 339.1,110.8 339.7,111.1 340.3,111.1 340.9,111.1 341.5,111.1 342.2,110.1 342.8,110.1 343.4,110.1 344.0,110.1 344.6,110.1 345.3,110.1 345.9,110.1 346.5,110.1 347.1,109.2 347.7,109.2 348.4,109.2 349.0,109.2 349.6,108.7 350.2,108.7 350.8,108.7 351.5,108.7 352.1,108.0 352.7,108.0 353.3,108.0 353.9,108.0 354.6,109.2 355.2,109.2 355.8,109.2 356.4,109.2 357.0,108.6 357.7,108.6 358.3,108.6 358.9,108.6 359.5,108.5 360.1,108.5 360.8,108.5 361.4,108.5 362.0,107.9 362.6,107.9 363.2,107.9 363.9,107.9 364.5,108.1 365.1,108.1 365.7,108.1 366.3,108.1 367.0,107.1 367.6,107.1 368.2,107.1 368.8,107.1 369.4,106.7 370.1,106.7 370.7,106.7 371.3,106.7 371.9,105.9 372.5,105.9 373.2,105.9 373.8,105.9 374.4,106.1 375.0,106.1 375.6,106.1 376.3,106.1 376.9,106.2 377.5,106.2 378.1,106.2 378.7,106.2 379.4,105.5 380.0,105.5 380.6,105.5 381.2,105.5 381.8,104.5 382.5,104.5 383.1,104.5 383.7,104.5 384.3,105.8 384.9,105.8 385.6,105.8 386.2,105.8 386.8,105.3 387.4,105.3 388.0,105.3 388.7,105.3 389.3,105.6 389.9,105.6 390.5,105.6 391.1,105.6 391.8,105.6 392.4,105.6 393.0,105.6 393.6,105.6 394.2,105.9 394.9,105.9 395.5,105.9 396.1,105.9 396.7,105.6 397.3,105.6 398.0,105.6 398.6,105.6 399.2,105.2 399.8,105.2 400.4,105.2 401.1,105.2 401.7,105.9 402.3,105.9 402.9,105.9 403.5,105.9 404.2,106.0 404.8,106.0 405.4,106.0 406.0,106.0 406.6,106.4 407.3,106.4 407.9,106.4 408.5,106.4 409.1,106.4 409.7,106.4 410.4,106.4 411.0,106.4 411.6,106.5 412.2,106.5 412.8,106.5 413.5,106.5 414.1,105.5 414.7,105.5 415.3,105.5 415.9,105.5 416.6,105.6 417.2,105.6 417.8,105.6 418.4,105.6 419.0,105.1 419.7,105.1 420.3,105.1 420.9,105.1 421.5,104.4 422.1,104.4 422.8,104.4 423.4,104.4 424.0,104.6 424.6,104.6 425.2,104.6 425.9,104.6 426.5,104.1 427.1,104.1 427.7,104.1 428.3,104.1 429.0,103.9 429.6,103.9 430.2,103.9 430.8,103.9 431.4,104.2 432.1,104.2 432.7,104.2 433.3,104.2 433.9,104.3 434.5,104.3 435.2,104.3 435.8,104.3 436.4,104.3 437.0,104.3 437.6,104.3 438.3,104.3 438.9,104.4 439.5,104.4 440.1,104.4 440.7,104.4 441.4,104.6 442.0,104.6 442.6,104.6 443.2,104.6 443.8,104.2 444.5,104.2 445.1,104.2 445.7,104.2 446.3,105.1 446.9,105.1 447.6,105.1 448.2,105.1 448.8,105.3 449.4,105.3 450.0,105.3 450.7,105.3 451.3,105.3 451.9,105.3 452.5,105.3 453.1,105.3 453.8,104.2 454.4,104.2 455.0,104.2 455.6,104.2 456.2,104.8 456.9,104.8 457.5,104.8 458.1,104.8 458.7,105.1 459.3,105.1 460.0,105.1 460.6,105.1 461.2,106.3 461.8,106.3 462.4,106.3 463.1,106.3 463.7,106.2 464.3,106.2 464.9,106.2 465.5,106.2 466.2,106.5 466.8,106.5 467.4,106.5 468.0,106.5 468.6,106.0 469.3,106.0 469.9,106.0 470.5,106.0 471.1,107.0 471.7,107.0 472.4,107.0 473.0,107.0 473.6,107.1 474.2,107.1 474.8,107.1 475.5,107.1 476.1,107.7 476.7,107.7 477.3,107.7 477.9,107.7 478.6,108.1 479.2,108.1 479.8,108.1 480.4,108.1 481.0,108.5 481.7,108.5 482.3,108.5 482.9,108.5 483.5,109.1 484.1,109.1 484.8,109.1 485.4,109.1 486.0,109.3 486.6,109.3 487.2,109.3 487.9,109.3 488.5,109.1 489.1,109.1 489.7,109.1 490.3,109.1 491.0,109.4 491.6,109.4 492.2,109.4 492.8,109.4 493.4,109.3 494.1,109.3 494.7,109.3 495.3,109.3 495.9,110.2 496.5,110.2 497.2,110.2 497.8,110.2 498.4,110.7 499.0,110.7 499.6,110.7 500.3,110.7 500.9,111.3 501.5,111.3 502.1,111.3 502.7,111.3 503.4,111.0 504.0,111.0 504.6,111.0 505.2,111.0 505.8,110.1 506.5,110.1 507.1,110.1 507.7,110.1 508.3,110.4 508.9,110.4 509.6,110.4 510.2,110.4 510.8,109.2 511.4,109.2 512.0,109.2 512.7,109.2 513.3,109.1 513.9,109.1 514.5,109.1 515.1,109.1 515.8,108.5 516.4,108.5 517.0,108.5 517.6,108.5 518.2,107.9 518.9,107.9 519.5,107.9 520.1,107.9 520.7,106.8 521.3,106.8 522.0,106.8 522.6,106.8 523.2,107.0 523.8,107.0 524.4,107.0 525.1,107.0 525.7,107.7 526.3,107.7 526.9,107.7 527.5,107.7 528.2,107.3 528.8,107.3 529.4,107.3 530.0,107.3 530.6,107.2 531.3,107.2 531.9,107.2 532.5,107.2 533.1,107.0 533.7,107.0 534.4,107.0 535.0,107.0 535.6,106.6 536.2,106.6 536.8,106.6 537.5,106.6 538.1,106.1 538.7,106.1 539.3,106.1 539.9,106.1 540.6,105.4 541.2,105.4 541.8,105.4 542.4,105.4 543.0,105.9 543.7,105.9 544.3,105.9 544.9,105.9 545.5,105.4 546.1,105.4 546.8,105.4 547.4,105.4 548.0,105.2 548.6,105.2 549.2,105.2 549.9,105.2 550.5,104.6 551.1,104.6 551.7,104.6 552.3,104.6 553.0,104.4 553.6,104.4 554.2,104.4 554.8,104.4 555.4,105.7 556.1,105.7 556.7,105.7 557.3,105.7 557.9,106.0 558.5,106.0 559.2,106.0 559.8,106.0 560.4,105.8 561.0,105.8 561.6,105.8 562.3,105.8 562.9,105.6 563.5,105.6 564.1,105.6 564.7,105.6 565.4,106.0 566.0,106.0 566.6,106.0 567.2,106.0 567.8,106.0 568.5,106.0 569.1,106.0 569.7,106.0 570.3,106.2 570.9,106.2 571.6,106.2 572.2,106.2 572.8,107.5 573.4,107.5 574.0,107.5 574.7,107.5 575.3,108.3 575.9,108.3 576.5,108.3 577.1,108.3 577.8,108.2 578.4,108.2 579.0,108.2 579.6,108.2 580.2,109.0 580.9,109.0 581.5,109.0 582.1,109.0 582.7,108.7 583.3,108.7 584.0,108.7 584.6,108.7 585.2,109.1 585.8,109.1 586.4,109.1 587.1,109.1 587.7,108.7 588.3,108.7 588.9,108.7 589.5,108.7 590.2,109.4 590.8,109.4 591.4,109.4 592.0,109.4 592.6,109.3 593.3,109.3 593.9,109.3 594.5,109.3 595.1,110.1 595.7,110.1 596.4,110.1 597.0,110.1 597.6,111.1 598.2,111.1 598.8,111.1 599.5,111.1 600.1,110.5 600.7,110.5 601.3,110.5 601.9,110.5 602.6,109.9 603.2,109.9 603.8,109.9 604.4,109.9 605.0,109.4 605.7,109.4 606.3,109.4 606.9,109.4 607.5,109.7 608.1,109.7 608.8,109.7 609.4,109.7 610.0,109.4 610.6,109.4 611.2,109.4 611.9,109.4 612.5,109.2 613.1,109.2 613.7,109.2 614.3,109.2 615.0,109.3 615.6,109.3 616.2,109.3 616.8,109.3 617.4,109.5 618.1,109.5 618.7,109.5 619.3,109.5 619.9,109.7 620.5,109.7 621.2,109.7 621.8,109.7 622.4,109.6 623.0,109.6 623.6,109.6 624.3,109.6 624.9,108.9 625.5,108.9 626.1,108.9 626.7,108.9 627.4,108.8 628.0,108.8 628.6,108.8 629.2,108.8 629.8,108.4 630.5,108.4 631.1,108.4 631.7,108.4 632.3,107.9 632.9,107.9 633.6,107.9 634.2,107.9 634.8,108.0 635.4,108.0 636.0,108.0 636.7,108.0 637.3,107.1 637.9,107.1 638.5,107.1 639.1,107.1 639.8,106.2 640.4,106.2 641.0,106.2 641.6,106.2 642.2,105.4 642.9,105.4 643.5,105.4 644.1,105.4 644.7,106.3 645.3,106.3 646.0,106.3 646.6,106.3 647.2,106.3 647.8,106.3 648.4,106.3 649.1,106.3 649.7,106.1 650.3,106.1 650.9,106.1 651.5,106.1 652.2,105.8 652.8,105.8 653.4,105.8 654.0,105.8 654.6,105.7 655.3,105.7 655.9,105.7 656.5,105.7 657.1,105.9 657.7,105.9 658.4,105.9 659.0,105.9 659.6,105.7 660.2,105.7 660.8,105.7 661.5,105.7 662.1,105.6 662.7,105.6 663.3,105.6 663.9,105.6 664.6,106.7 665.2,106.7 665.8,106.7 666.4,106.7 667.0,107.1 667.7,107.1 668.3,107.1 668.9,107.1 669.5,106.6 670.1,106.6 670.8,106.6 671.4,106.6 672.0,107.2 672.6,107.2 673.2,107.2 673.9,107.2 674.5,107.3 675.1,107.3 675.7,107.3 676.3,107.3 677.0,107.6 677.6,107.6 678.2,107.6 678.8,107.6 679.4,107.5 680.1,107.5 680.7,107.5 681.3,107.5 681.9,107.7 682.5,107.7 683.2,107.7 683.8,107.7 684.4,108.1 685.0,108.1 685.6,108.1 686.3,108.1 686.9,108.0 687.5,108.0 688.1,108.0 688.7,108.0 689.4,108.1 690.0,108.1 690.6,108.1 691.2,108.1 691.8,108.2 692.5,108.2 693.1,108.2 693.7,108.2 694.3,107.5 694.9,107.5 695.6,107.5 696.2,107.5 696.8,107.5 697.4,107.5 698.0,107.5 698.7,107.5 699.3,106.7 699.9,106.7 700.5,106.7 701.1,106.7 701.8,106.2 702.4,106.2 703.0,106.2 703.6,106.2 704.2,107.2 704.9,107.2 705.5,107.2 706.1,107.2 706.7,107.5 707.3,107.5 708.0,107.5 708.6,107.5 709.2,107.4 709.8,107.4 710.4,107.4 711.1,107.4 711.7,107.8 712.3,107.8 712.9,107.8 713.5,107.8 714.2,108.1 714.8,108.1 715.4,108.1 716.0,108.1 716.6,107.9 717.3,107.9 717.9,107.9 718.5,107.9 719.1,108.1 719.7,108.1 720.4,108.1 721.0,108.1 721.6,108.3 722.2,108.3 722.8,108.3 723.5,108.3 724.1,108.6 724.7,108.6 725.3,108.6 725.9,108.6 726.6,108.2 727.2,108.2 727.8,108.2 728.4,108.2 729.0,108.8 729.7,108.8 730.3,108.8 730.9,108.8 731.5,108.8 732.1,108.8 732.8,108.8 733.4,108.8 734.0,108.8 734.6,108.8 735.2,108.8 735.9,108.8 736.5,109.0 737.1,109.0 737.7,109.0 738.3,109.0 739.0,109.0 739.6,109.0 740.2,109.0 740.8,109.0 741.4,109.3 742.1,109.3 742.7,109.3 743.3,109.3 743.9,109.2 744.5,109.2 745.2,109.2 745.8,109.2 746.4,109.4 747.0,109.4 747.6,109.4 748.3,109.4 748.9,109.6 749.5,109.6 750.1,109.6 750.7,109.6 751.4,109.2 752.0,109.2 752.6,109.2 753.2,109.2 753.8,108.8 754.5,108.8 755.1,108.8 755.7,108.8 756.3,108.3 756.9,108.3 757.6,108.3 758.2,108.3 758.8,109.0 759.4,109.0 760.0,109.0 760.7,109.0 761.3,109.2 761.9,109.2 762.5,109.2 763.1,109.2 763.8,109.0 764.4,109.0 765.0,109.0 765.6,109.0 766.2,109.0 766.9,109.0 767.5,109.0 768.1,109.0 768.7,108.7 769.3,108.7 770.0,108.7 770.6,108.7 771.2,108.8 771.8,108.8 772.4,108.8 773.1,108.8 773.7,108.7 774.3,108.7 774.9,108.7 775.5,108.7 776.2,109.2 776.8,109.2 777.4,109.2 778.0,109.2 778.6,108.1 779.3,108.1 779.9,108.1 780.5,108.1 781.1,108.0 781.7,108.0 782.4,108.0 783.0,108.0 783.6,107.9 784.2,107.9 784.8,107.9 785.5,107.9 786.1,108.3 786.7,108.3 787.3,108.3 787.9,108.3 788.6,108.1 789.2,108.1 789.8,108.1 790.4,108.1 791.0,107.5 791.7,107.5 792.3,107.5 792.9,107.5 793.5,108.1 794.1,108.1 794.8,108.1 795.4,108.1 796.0,107.9"/>
<text x="640" y="88" font-family="Arial" font-size="12" fill="#b45309">baz</text>
</svg>