<svg xmlns="http://www.w3.org/2000/svg" width="820" height="320" viewBox="0 0 820 320">
<rect width="100%" height="100%" fill="white"/>
<text x="52" y="30" font-family="Arial" font-size="18" font-weight="700">ekf_high_bias covariance bounds</text>
<line x1="52" y1="274" x2="796" y2="274" stroke="#263238"/>
<line x1="52" y1="42" x2="52" y2="274" stroke="#263238"/>
<text x="52" y="306" font-family="Arial" font-size="12">time (s)</text>
<text x="630" y="306" font-family="Arial" font-size="12">m</text>

<rect x="399.2" y="42" width="99.2" height="232" fill="#fef3c7" opacity="0.72"/>
<polyline fill="none" stroke="#0f766e" stroke-width="2.3" points="52.0,175.7 52.6,175.3 53.2,175.0 53.9,174.6 54.5,174.1 55.1,173.7 55.7,173.2 56.3,172.8 57.0,172.4 57.6,171.9 58.2,171.4 58.8,170.9 59.4,171.2 60.1,170.8 60.7,170.4 61.3,170.0 61.9,169.7 62.5,169.3 63.2,168.9 63.8,168.5 64.4,228.7 65.0,228.9 65.6,228.9 66.3,228.7 66.9,228.3 67.5,227.9 68.1,227.3 68.7,226.6 69.4,225.8 70.0,224.8 70.6,223.7 71.2,222.6 71.8,221.5 72.5,220.1 73.1,218.7 73.7,217.1 74.3,215.6 74.9,213.9 75.6,212.2 76.2,210.4 76.8,231.4 77.4,230.4 78.0,229.4 78.7,228.3 79.3,227.1 79.9,225.9 80.5,224.7 81.1,223.3 81.8,222.0 82.4,220.6 83.0,219.2 83.6,217.7 84.2,216.1 84.9,214.5 85.5,212.9 86.1,211.3 86.7,209.5 87.3,207.8 88.0,206.1 88.6,204.4 89.2,239.6 89.8,239.9 90.4,240.2 91.1,240.4 91.7,241.3 92.3,241.6 92.9,241.9 93.5,242.2 94.2,242.5 94.8,242.7 95.4,243.0 96.0,243.3 96.6,243.8 97.3,244.1 97.9,244.4 98.5,244.7 99.1,244.8 99.7,245.0 100.4,245.2 101.0,245.4 101.6,235.3 102.2,235.3 102.8,235.3 103.5,235.3 104.1,235.5 104.7,235.4 105.3,235.4 105.9,235.4 106.6,235.1 107.2,235.0 107.8,235.0 108.4,234.9 109.0,235.5 109.7,235.5 110.3,235.5 110.9,235.4 111.5,235.3 112.1,235.2 112.8,235.1 113.4,235.1 114.0,237.4 114.6,236.8 115.2,236.1 115.9,235.5 116.5,234.9 117.1,234.3 117.7,233.6 118.3,232.9 119.0,232.2 119.6,231.5 120.2,230.7 120.8,230.0 121.4,229.2 122.1,228.4 122.7,227.7 123.3,226.9 123.9,226.0 124.5,225.2 125.2,224.4 125.8,223.6 126.4,249.5 127.0,248.5 127.6,247.5 128.3,246.5 128.9,245.9 129.5,244.9 130.1,243.9 130.7,242.9 131.4,241.4 132.0,240.4 132.6,239.4 133.2,238.3 133.8,237.7 134.5,236.7 135.1,235.6 135.7,234.6 136.3,233.5 136.9,232.5 137.6,231.4 138.2,230.3 138.8,255.8 139.4,255.2 140.0,254.5 140.7,253.8 141.3,253.0 141.9,252.3 142.5,251.6 143.1,250.9 143.8,250.1 144.4,249.4 145.0,248.7 145.6,248.0 146.2,247.3 146.9,246.6 147.5,245.8 148.1,245.1 148.7,244.4 149.3,243.7 150.0,242.9 150.6,242.2 151.2,274.0 151.8,273.8 152.4,273.5 153.1,273.3 153.7,271.0 154.3,270.7 154.9,270.4 155.5,270.1 156.2,267.8 156.8,267.4 157.4,267.1 158.0,266.7 158.6,266.5 159.3,266.1 159.9,265.7 160.5,265.3 161.1,266.2 161.7,265.8 162.4,265.4 163.0,265.0 163.6,261.2 164.2,260.8 164.8,260.4 165.5,259.9 166.1,260.0 166.7,259.6 167.3,259.1 167.9,258.7 168.6,258.3 169.2,257.9 169.8,257.5 170.4,257.0 171.0,256.6 171.7,256.1 172.3,255.6 172.9,255.2 173.5,254.7 174.1,254.2 174.8,253.7 175.4,253.2 176.0,269.7 176.6,269.6 177.2,269.5 177.9,269.3 178.5,268.7 179.1,268.6 179.7,268.4 180.3,268.2 181.0,266.9 181.6,266.7 182.2,266.5 182.8,266.3 183.4,266.9 184.1,266.7 184.7,266.4 185.3,266.2 185.9,264.9 186.5,264.6 187.2,264.3 187.8,264.1 188.4,239.5 189.0,239.1 189.6,238.7 190.3,238.2 190.9,238.2 191.5,237.8 192.1,237.4 192.7,237.0 193.4,236.8 194.0,236.3 194.6,235.9 195.2,235.5 195.8,234.4 196.5,234.0 197.1,233.6 197.7,233.1 198.3,233.3 198.9,232.9 199.6,232.5 200.2,232.0 200.8,254.0 201.4,253.8 202.0,253.5 202.7,253.3 203.3,253.2 203.9,252.9 204.5,252.7 205.1,252.4 205.8,252.1 206.4,251.8 207.0,251.5 207.6,251.2 208.2,250.9 208.9,250.6 209.5,250.3 210.1,250.0 210.7,249.7 211.3,249.3 212.0,249.0 212.6,248.7 213.2,255.0 213.8,254.9 214.4,254.8 215.1,254.7 215.7,254.6 216.3,254.5 216.9,254.4 217.5,254.3 218.2,254.0 218.8,253.9 219.4,253.8 220.0,253.7 220.6,253.6 221.3,253.5 221.9,253.3 222.5,253.2 223.1,252.9 223.7,252.8 224.4,252.6 225.0,252.5 225.6,249.2 226.2,249.0 226.8,248.7 227.5,248.4 228.1,248.0 228.7,247.7 229.3,247.4 229.9,247.1 230.6,246.5 231.2,246.2 231.8,245.9 232.4,245.5 233.0,244.4 233.7,244.1 234.3,243.7 234.9,243.4 235.5,243.0 236.1,242.7 236.8,242.3 237.4,241.9 238.0,263.7 238.6,263.6 239.2,263.5 239.9,263.4 240.5,265.0 241.1,264.9 241.7,264.8 242.3,264.7 243.0,263.9 243.6,263.8 244.2,263.6 244.8,263.4 245.4,264.8 246.1,264.6 246.7,264.4 247.3,264.2 247.9,264.0 248.5,263.8 249.2,263.6 249.8,263.4 250.4,271.5 251.0,271.4 251.6,271.2 252.3,270.9 252.9,271.4 253.5,271.1 254.1,270.8 254.7,270.5 255.4,270.1 256.0,269.8 256.6,269.4 257.2,269.1 257.8,268.7 258.5,268.3 259.1,267.9 259.7,267.6 260.3,266.8 260.9,266.4 261.6,266.0 262.2,265.6 262.8,270.7 263.4,270.8 264.0,270.8 264.7,270.9 265.3,270.6 265.9,270.6 266.5,270.6 267.1,270.5 267.8,271.1 268.4,271.1 269.0,271.0 269.6,270.9 270.2,270.6 270.9,270.4 271.5,270.3 272.1,270.2 272.7,270.2 273.3,270.0 274.0,269.8 274.6,269.6 275.2,245.4 275.8,244.9 276.4,244.4 277.1,243.8 277.7,243.2 278.3,242.7 278.9,242.1 279.5,241.6 280.2,241.2 280.8,240.6 281.4,240.1 282.0,239.5 282.6,238.9 283.3,238.3 283.9,237.7 284.5,237.2 285.1,236.6 285.7,236.0 286.4,235.4 287.0,234.8 287.6,240.5 288.2,239.9 288.8,239.4 289.5,238.9 290.1,238.4 290.7,237.8 291.3,237.2 291.9,236.7 292.6,236.3 293.2,235.7 293.8,235.1 294.4,234.6 295.0,234.0 295.7,233.4 296.3,232.8 296.9,232.2 297.5,231.6 298.1,231.0 298.8,230.4 299.4,229.8 300.0,269.0 300.6,269.0 301.2,268.9 301.9,268.8 302.5,269.1 303.1,269.0 303.7,268.9 304.3,268.8 305.0,268.3 305.6,268.2 306.2,268.0 306.8,267.9 307.4,267.8 308.1,267.6 308.7,267.5 309.3,267.3 309.9,267.4 310.5,267.2 311.2,267.0 311.8,266.8 312.4,259.3 313.0,259.1 313.6,258.9 314.3,258.7 314.9,258.4 315.5,258.2 316.1,258.0 316.7,257.7 317.4,257.8 318.0,257.5 318.6,257.3 319.2,257.1 319.8,256.4 320.5,256.2 321.1,255.9 321.7,255.6 322.3,255.7 322.9,255.4 323.6,255.2 324.2,254.9 324.8,251.3 325.4,251.0 326.0,250.8 326.7,250.6 327.3,250.5 327.9,250.3 328.5,250.0 329.1,249.8 329.8,249.8 330.4,249.6 331.0,249.3 331.6,249.1 332.2,249.3 332.9,249.0 333.5,248.8 334.1,248.5 334.7,248.1 335.3,247.9 336.0,247.6 336.6,247.3 337.2,244.2 337.8,244.1 338.4,243.9 339.1,243.8 339.7,243.5 340.3,243.3 340.9,243.2 341.5,243.0 342.2,243.7 342.8,243.5 343.4,243.4 344.0,243.2 344.6,243.1 345.3,243.0 345.9,242.8 346.5,242.7 347.1,243.1 347.7,243.0 348.4,242.9 349.0,242.7 349.6,253.5 350.2,253.4 350.8,253.4 351.5,253.4 352.1,253.9 352.7,253.9 353.3,253.9 353.9,253.9 354.6,253.0 355.2,253.0 355.8,253.0 356.4,253.0 357.0,253.5 357.7,253.5 358.3,253.5 358.9,253.5 359.5,253.5 360.1,253.5 360.8,253.5 361.4,253.4 362.0,256.3 362.6,256.3 363.2,256.3 363.9,256.3 364.5,256.1 365.1,256.1 365.7,256.1 366.3,256.1 367.0,256.8 367.6,256.8 368.2,256.8 368.8,256.8 369.4,257.0 370.1,257.0 370.7,257.0 371.3,257.0 371.9,257.3 372.5,257.3 373.2,257.3 373.8,257.3 374.4,251.0 375.0,250.8 375.6,250.6 376.3,250.4 376.9,250.2 377.5,250.0 378.1,249.8 378.7,249.6 379.4,249.5 380.0,249.3 380.6,249.1 381.2,248.9 381.8,248.6 382.5,248.3 383.1,248.1 383.7,247.9 384.3,247.7 384.9,247.5 385.6,247.3 386.2,247.1 386.8,262.9 387.4,262.8 388.0,262.7 388.7,262.6 389.3,262.5 389.9,262.3 390.5,262.2 391.1,262.1 391.8,262.0 392.4,261.8 393.0,261.7 393.6,261.5 394.2,261.4 394.9,261.2 395.5,261.1 396.1,260.9 396.7,260.8 397.3,260.6 398.0,260.4 398.6,260.2 399.2,260.0 399.8,259.8 400.4,259.6 401.1,259.4 401.7,259.3 402.3,259.1 402.9,258.9 403.5,258.7 404.2,258.5 404.8,258.3 405.4,258.1 406.0,257.9 406.6,257.6 407.3,257.4 407.9,257.1 408.5,256.9 409.1,256.7 409.7,256.4 410.4,256.2 411.0,256.0 411.6,255.7 412.2,255.5 412.8,255.2 413.5,255.0 414.1,254.8 414.7,254.5 415.3,254.2 415.9,254.0 416.6,253.7 417.2,253.5 417.8,253.2 418.4,252.9 419.0,252.6 419.7,252.3 420.3,252.0 420.9,251.7 421.5,251.1 422.1,250.8 422.8,250.5 423.4,250.2 424.0,250.1 424.6,249.7 425.2,249.4 425.9,249.1 426.5,248.5 427.1,248.2 427.7,247.9 428.3,247.5 429.0,247.1 429.6,246.8 430.2,246.4 430.8,246.1 431.4,246.0 432.1,245.7 432.7,245.3 433.3,245.0 433.9,244.8 434.5,244.4 435.2,244.1 435.8,243.7 436.4,243.4 437.0,243.1 437.6,242.7 438.3,242.3 438.9,242.1 439.5,241.7 440.1,241.4 440.7,241.0 441.4,240.8 442.0,240.4 442.6,240.0 443.2,239.7 443.8,239.0 444.5,238.6 445.1,238.3 445.7,237.9 446.3,238.1 446.9,237.8 447.6,237.4 448.2,237.0 448.8,236.8 449.4,236.4 450.0,236.0 450.7,235.6 451.3,235.3 451.9,234.9 452.5,234.5 453.1,234.1 453.8,233.0 454.4,232.6 455.0,232.2 455.6,231.8 456.2,231.8 456.9,231.4 457.5,231.0 458.1,230.5 458.7,230.4 459.3,229.9 460.0,229.5 460.6,229.1 461.2,229.1 461.8,228.7 462.4,228.3 463.1,227.9 463.7,227.4 464.3,226.9 464.9,226.5 465.5,226.1 466.2,225.7 466.8,225.3 467.4,224.9 468.0,224.4 468.6,223.8 469.3,223.4 469.9,222.9 470.5,222.5 471.1,222.3 471.7,221.9 472.4,221.4 473.0,221.0 473.6,220.6 474.2,220.1 474.8,219.7 475.5,219.2 476.1,218.8 476.7,218.4 477.3,217.9 477.9,217.5 478.6,217.0 479.2,216.6 479.8,216.1 480.4,215.6 481.0,215.2 481.7,214.7 482.3,214.2 482.9,213.8 483.5,213.3 484.1,212.8 484.8,212.3 485.4,211.9 486.0,211.4 486.6,210.9 487.2,210.4 487.9,209.9 488.5,209.5 489.1,209.1 489.7,208.6 490.3,208.1 491.0,207.6 491.6,207.1 492.2,206.6 492.8,206.1 493.4,205.7 494.1,205.2 494.7,204.7 495.3,204.2 495.9,203.6 496.5,203.1 497.2,202.6 497.8,202.1 498.4,201.4 499.0,200.9 499.6,200.4 500.3,199.9 500.9,199.2 501.5,198.7 502.1,198.2 502.7,197.6 503.4,197.4 504.0,196.8 504.6,196.3 505.2,195.8 505.8,195.7 506.5,195.2 507.1,194.7 507.7,194.1 508.3,193.5 508.9,193.0 509.6,192.5 510.2,192.0 510.8,260.0 511.4,259.8 512.0,259.6 512.7,259.4 513.3,259.4 513.9,259.2 514.5,259.0 515.1,258.9 515.8,259.2 516.4,259.0 517.0,258.8 517.6,258.7 518.2,258.7 518.9,258.5 519.5,258.4 520.1,258.2 520.7,257.9 521.3,257.7 522.0,257.5 522.6,257.3 523.2,270.8 523.8,270.7 524.4,270.6 525.1,270.5 525.7,270.9 526.3,270.8 526.9,270.7 527.5,270.6 528.2,270.4 528.8,270.3 529.4,270.3 530.0,270.2 530.6,270.1 531.3,270.1 531.9,270.0 532.5,269.9 533.1,269.6 533.7,269.5 534.4,269.5 535.0,269.4 535.6,250.9 536.2,250.7 536.8,250.6 537.5,250.4 538.1,249.9 538.7,249.7 539.3,249.5 539.9,249.3 540.6,248.7 541.2,248.4 541.8,248.2 542.4,248.0 543.0,248.3 543.7,248.1 544.3,247.9 544.9,247.6 545.5,247.2 546.1,246.9 546.8,246.7 547.4,246.5 548.0,251.5 548.6,251.3 549.2,251.1 549.9,250.9 550.5,250.1 551.1,249.9 551.7,249.7 552.3,249.5 553.0,249.3 553.6,249.0 554.2,248.8 554.8,248.6 555.4,250.1 556.1,249.9 556.7,249.8 557.3,249.6 557.9,249.8 558.5,249.6 559.2,249.5 559.8,249.3 560.4,253.9 561.0,253.8 561.6,253.7 562.3,253.5 562.9,253.2 563.5,253.1 564.1,253.0 564.7,252.8 565.4,253.3 566.0,253.2 566.6,253.0 567.2,252.9 567.8,253.0 568.5,252.9 569.1,252.8 569.7,252.7 570.3,252.8 570.9,252.7 571.6,252.6 572.2,252.5 572.8,244.1 573.4,243.9 574.0,243.7 574.7,243.5 575.3,243.5 575.9,243.3 576.5,243.1 577.1,242.9 577.8,242.6 578.4,242.4 579.0,242.2 579.6,242.0 580.2,241.8 580.9,241.6 581.5,241.4 582.1,241.1 582.7,241.0 583.3,240.8 584.0,240.5 584.6,240.3 585.2,240.1 585.8,239.8 586.4,239.6 587.1,239.4 587.7,239.2 588.3,239.0 588.9,238.8 589.5,238.6 590.2,238.2 590.8,238.0 591.4,237.7 592.0,237.5 592.6,237.4 593.3,237.1 593.9,236.9 594.5,236.7 595.1,236.1 595.7,235.9 596.4,235.7 597.0,235.4 597.6,246.3 598.2,246.2 598.8,246.0 599.5,245.8 600.1,246.5 600.7,246.3 601.3,246.2 601.9,246.0 602.6,246.5 603.2,246.4 603.8,246.2 604.4,246.1 605.0,246.4 605.7,246.2 606.3,246.1 606.9,246.0 607.5,245.7 608.1,245.6 608.8,245.5 609.4,245.3 610.0,246.1 610.6,245.9 611.2,245.7 611.9,245.5 612.5,245.5 613.1,245.3 613.7,245.1 614.3,244.9 615.0,244.6 615.6,244.4 616.2,244.2 616.8,244.0 617.4,243.7 618.1,243.5 618.7,243.3 619.3,243.1 619.9,242.8 620.5,242.6 621.2,242.4 621.8,242.2 622.4,261.7 623.0,261.5 623.6,261.4 624.3,261.2 624.9,262.3 625.5,262.2 626.1,262.0 626.7,261.9 627.4,261.9 628.0,261.7 628.6,261.5 629.2,261.4 629.8,261.6 630.5,261.5 631.1,261.3 631.7,261.1 632.3,261.4 632.9,261.2 633.6,261.0 634.2,260.8 634.8,255.2 635.4,255.1 636.0,254.9 636.7,254.8 637.3,254.9 637.9,254.8 638.5,254.7 639.1,254.5 639.8,254.2 640.4,254.1 641.0,253.9 641.6,253.8 642.2,253.1 642.9,252.9 643.5,252.7 644.1,252.6 644.7,253.0 645.3,252.9 646.0,252.7 646.6,252.5 647.2,264.2 647.8,264.1 648.4,263.9 649.1,263.8 649.7,263.5 650.3,263.4 650.9,263.2 651.5,263.1 652.2,262.6 652.8,262.4 653.4,262.3 654.0,262.1 654.6,261.8 655.3,261.7 655.9,261.5 656.5,261.3 657.1,261.4 657.7,261.2 658.4,261.1 659.0,260.9 659.6,268.9 660.2,268.7 660.8,268.5 661.5,268.3 662.1,268.1 662.7,267.9 663.3,267.7 663.9,267.4 664.6,270.1 665.2,269.9 665.8,269.7 666.4,269.5 667.0,269.9 667.7,269.7 668.3,269.5 668.9,269.3 669.5,268.4 670.1,268.2 670.8,268.0 671.4,267.7 672.0,264.4 672.6,264.2 673.2,263.9 673.9,263.7 674.5,263.5 675.1,263.2 675.7,263.0 676.3,262.7 677.0,262.6 677.6,262.3 678.2,262.1 678.8,261.8 679.4,261.5 680.1,261.2 680.7,260.9 681.3,260.7 681.9,260.5 682.5,260.2 683.2,259.9 683.8,259.6 684.4,263.0 685.0,263.0 685.6,263.0 686.3,263.0 686.9,262.9 687.5,262.9 688.1,262.9 688.7,262.8 689.4,262.8 690.0,262.8 690.6,262.7 691.2,262.7 691.8,262.6 692.5,262.6 693.1,262.5 693.7,262.5 694.3,262.4 694.9,262.3 695.6,262.3 696.2,262.2 696.8,268.3 697.4,268.3 698.0,268.3 698.7,268.3 699.3,267.0 699.9,266.9 700.5,266.9 701.1,266.8 701.8,265.6 702.4,265.5 703.0,265.4 703.6,265.3 704.2,267.5 704.9,267.5 705.5,267.4 706.1,267.4 706.7,267.8 707.3,267.8 708.0,267.7 708.6,267.7 709.2,267.1 709.8,267.0 710.4,266.9 711.1,266.7 711.7,267.0 712.3,266.9 712.9,266.7 713.5,266.6 714.2,266.7 714.8,266.6 715.4,266.5 716.0,266.3 716.6,266.0 717.3,265.9 717.9,265.7 718.5,265.6 719.1,265.6 719.7,265.5 720.4,265.3 721.0,265.2 721.6,264.5 722.2,264.5 722.8,264.4 723.5,264.4 724.1,264.4 724.7,264.3 725.3,264.3 725.9,264.2 726.6,264.0 727.2,264.0 727.8,263.9 728.4,263.9 729.0,264.0 729.7,263.9 730.3,263.9 730.9,263.8 731.5,263.8 732.1,263.7 732.8,263.7 733.4,263.6 734.0,253.2 734.6,253.0 735.2,252.9 735.9,252.7 736.5,252.5 737.1,252.4 737.7,252.2 738.3,252.0 739.0,251.8 739.6,251.6 740.2,251.5 740.8,251.3 741.4,251.1 742.1,250.9 742.7,250.7 743.3,250.5 743.9,250.4 744.5,250.2 745.2,250.0 745.8,249.8 746.4,247.8 747.0,247.6 747.6,247.4 748.3,247.2 748.9,247.0 749.5,246.7 750.1,246.5 750.7,246.3 751.4,246.2 752.0,246.0 752.6,245.8 753.2,245.6 753.8,245.4 754.5,245.2 755.1,245.0 755.7,244.7 756.3,244.4 756.9,244.2 757.6,244.0 758.2,243.8 758.8,266.4 759.4,266.4 760.0,266.3 760.7,266.3 761.3,266.2 761.9,266.2 762.5,266.1 763.1,266.1 763.8,266.0 764.4,266.0 765.0,265.9 765.6,265.8 766.2,265.8 766.9,265.7 767.5,265.6 768.1,265.6 768.7,265.4 769.3,265.3 770.0,265.2 770.6,265.1 771.2,271.9 771.8,271.8 772.4,271.7 773.1,271.6 773.7,271.2 774.3,271.1 774.9,271.0 775.5,270.9 776.2,271.3 776.8,271.2 777.4,271.1 778.0,270.9 778.6,269.1 779.3,269.0 779.9,268.8 780.5,268.7 781.1,268.4 781.7,268.2 782.4,268.1 783.0,268.0 783.6,267.4 784.2,267.3 784.8,267.2 785.5,267.1 786.1,268.1 786.7,268.0 787.3,267.9 787.9,267.8 788.6,267.3 789.2,267.2 789.8,267.1 790.4,267.0 791.0,265.3 791.7,265.1 792.3,265.0 792.9,264.9 793.5,266.3 794.1,266.2 794.8,266.1 795.4,266.0 796.0,253.3"/>
<text x="640" y="56" font-family="Arial" font-size="12" fill="#0f766e">position error</text>
<polyline fill="none" stroke="#2563eb" stroke-width="2.3" points="52.0,214.2 52.6,214.0 53.2,213.4 53.9,212.4 54.5,212.6 55.1,211.2 55.7,209.4 56.3,207.3 57.0,206.5 57.6,204.2 58.2,201.7 58.8,199.0 59.4,197.3 60.1,194.5 60.7,191.5 61.3,188.4 61.9,186.1 62.5,182.9 63.2,179.6 63.8,176.2 64.4,219.4 65.0,217.4 65.6,215.3 66.3,213.1 66.9,211.5 67.5,209.2 68.1,206.8 68.7,204.4 69.4,202.4 70.0,199.9 70.6,197.3 71.2,194.7 71.8,192.4 72.5,189.7 73.1,187.0 73.7,184.3 74.3,181.8 74.9,179.0 75.6,176.2 76.2,173.4 76.8,219.3 77.4,217.7 78.0,216.1 78.7,214.5 79.3,213.1 79.9,211.4 80.5,209.6 81.1,207.9 81.8,206.3 82.4,204.6 83.0,202.7 83.6,200.9 84.2,199.2 84.9,197.4 85.5,195.5 86.1,193.6 86.7,191.8 87.3,189.9 88.0,187.9 88.6,185.9 89.2,221.7 89.8,220.5 90.4,219.3 91.1,218.0 91.7,216.9 92.3,215.6 92.9,214.3 93.5,213.0 94.2,211.8 94.8,210.5 95.4,209.1 96.0,207.6 96.6,206.4 97.3,205.0 97.9,203.5 98.5,202.0 99.1,200.7 99.7,199.1 100.4,197.6 101.0,196.0 101.6,224.1 102.2,223.1 102.8,222.0 103.5,220.9 104.1,220.0 104.7,218.9 105.3,217.8 105.9,216.6 106.6,215.6 107.2,214.4 107.8,213.2 108.4,211.9 109.0,210.8 109.7,209.6 110.3,208.2 110.9,206.9 111.5,205.7 112.1,204.4 112.8,203.0 113.4,201.5 114.0,225.7 114.6,224.7 115.2,223.7 115.9,222.6 116.5,221.8 117.1,220.7 117.7,219.6 118.3,218.5 119.0,217.5 119.6,216.3 120.2,215.1 120.8,213.9 121.4,212.8 122.1,211.6 122.7,210.3 123.3,209.0 123.9,207.8 124.5,206.5 125.2,205.1 125.8,203.7 126.4,226.3 127.0,225.3 127.6,224.3 128.3,223.3 128.9,222.4 129.5,221.3 130.1,220.2 130.7,219.1 131.4,218.1 132.0,216.9 132.6,215.7 133.2,214.5 133.8,213.4 134.5,212.1 135.1,210.8 135.7,209.5 136.3,208.3 136.9,206.9 137.6,205.6 138.2,204.2 138.8,226.5 139.4,225.5 140.0,224.5 140.7,223.5 141.3,222.6 141.9,221.5 142.5,220.4 143.1,219.3 143.8,218.2 144.4,217.1 145.0,215.9 145.6,214.7 146.2,213.6 146.9,212.3 147.5,211.1 148.1,209.8 148.7,208.6 149.3,207.2 150.0,205.9 150.6,204.5 151.2,226.7 151.8,225.7 152.4,224.7 153.1,223.7 153.7,222.8 154.3,221.8 154.9,220.7 155.5,219.6 156.2,218.6 156.8,217.5 157.4,216.4 158.0,215.2 158.6,214.1 159.3,212.9 159.9,211.7 160.5,210.5 161.1,209.4 161.7,208.1 162.4,206.8 163.0,205.5 163.6,227.0 164.2,226.1 164.8,225.2 165.5,224.2 166.1,223.4 166.7,222.4 167.3,221.4 167.9,220.4 168.6,219.4 169.2,218.4 169.8,217.3 170.4,216.2 171.0,215.2 171.7,214.1 172.3,213.0 172.9,211.9 173.5,210.8 174.1,209.6 174.8,208.4 175.4,207.2 176.0,227.6 176.6,226.8 177.2,225.9 177.9,225.0 178.5,224.2 179.1,223.3 179.7,222.4 180.3,221.5 181.0,220.6 181.6,219.6 182.2,218.6 182.8,217.7 183.4,216.7 184.1,215.7 184.7,214.7 185.3,213.6 185.9,212.6 186.5,211.6 187.2,210.5 187.8,209.4 188.4,228.4 189.0,227.6 189.6,226.8 190.3,226.0 190.9,225.3 191.5,224.4 192.1,223.6 192.7,222.7 193.4,221.9 194.0,221.0 194.6,220.2 195.2,219.3 195.8,218.4 196.5,217.5 197.1,216.5 197.7,215.6 198.3,214.7 198.9,213.7 199.6,212.8 200.2,211.8 200.8,229.3 201.4,228.6 202.0,227.8 202.7,227.1 203.3,226.4 203.9,225.6 204.5,224.9 205.1,224.1 205.8,223.4 206.4,222.5 207.0,221.7 207.6,220.9 208.2,220.1 208.9,219.3 209.5,218.4 210.1,217.6 210.7,216.8 211.3,215.9 212.0,215.0 212.6,214.1 213.2,230.2 213.8,229.6 214.4,228.9 215.1,228.2 215.7,227.6 216.3,226.9 216.9,226.2 217.5,225.4 218.2,224.8 218.8,224.0 219.4,223.3 220.0,222.5 220.6,221.8 221.3,221.1 221.9,220.3 222.5,219.5 223.1,218.8 223.7,218.0 224.4,217.2 225.0,216.4 225.6,231.2 226.2,230.5 226.8,229.9 227.5,229.3 228.1,228.7 228.7,228.1 229.3,227.4 229.9,226.7 230.6,226.1 231.2,225.5 231.8,224.8 232.4,224.1 233.0,223.4 233.7,222.7 234.3,222.0 234.9,221.3 235.5,220.7 236.1,219.9 236.8,219.2 237.4,218.5 238.0,232.1 238.6,231.5 239.2,230.9 239.9,230.3 240.5,229.8 241.1,229.2 241.7,228.6 242.3,228.0 243.0,227.4 243.6,226.8 244.2,226.2 244.8,225.5 245.4,225.0 246.1,224.3 246.7,223.7 247.3,223.0 247.9,222.4 248.5,221.7 249.2,221.0 249.8,220.4 250.4,232.9 251.0,232.4 251.6,231.9 252.3,231.3 252.9,230.8 253.5,230.3 254.1,229.7 254.7,229.1 255.4,228.6 256.0,228.0 256.6,227.5 257.2,226.9 257.8,226.3 258.5,225.7 259.1,225.1 259.7,224.5 260.3,224.0 260.9,223.4 261.6,222.7 262.2,222.1 262.8,233.7 263.4,233.2 264.0,232.7 264.7,232.2 265.3,231.8 265.9,231.3 266.5,230.7 267.1,230.2 267.8,229.7 268.4,229.2 269.0,228.7 269.6,228.1 270.2,227.6 270.9,227.1 271.5,226.5 272.1,225.9 272.7,225.4 273.3,224.8 274.0,224.3 274.6,223.7 275.2,234.5 275.8,234.0 276.4,233.6 277.1,233.1 277.7,232.7 278.3,232.2 278.9,231.7 279.5,231.2 280.2,230.7 280.8,230.2 281.4,229.7 282.0,229.2 282.6,228.8 283.3,228.2 283.9,227.7 284.5,227.2 285.1,226.7 285.7,226.2 286.4,225.6 287.0,225.1 287.6,235.2 288.2,234.8 288.8,234.3 289.5,233.9 290.1,233.5 290.7,233.0 291.3,232.6 291.9,232.1 292.6,231.7 293.2,231.2 293.8,230.7 294.4,230.2 295.0,229.8 295.7,229.3 296.3,228.8 296.9,228.3 297.5,227.9 298.1,227.4 298.8,226.9 299.4,226.4 300.0,235.9 300.6,235.5 301.2,235.0 301.9,234.6 302.5,234.2 303.1,233.8 303.7,233.4 304.3,232.9 305.0,232.5 305.6,232.1 306.2,231.6 306.8,231.2 307.4,230.8 308.1,230.3 308.7,229.8 309.3,229.4 309.9,228.9 310.5,228.5 311.2,228.0 311.8,227.5 312.4,236.5 313.0,236.1 313.6,235.7 314.3,235.3 314.9,234.9 315.5,234.5 316.1,234.1 316.7,233.6 317.4,233.3 318.0,232.9 318.6,232.4 319.2,232.0 319.8,231.6 320.5,231.2 321.1,230.7 321.7,230.3 322.3,229.9 322.9,229.4 323.6,229.0 324.2,228.5 324.8,237.0 325.4,236.6 326.0,236.2 326.7,235.8 327.3,235.5 327.9,235.1 328.5,234.7 329.1,234.3 329.8,234.0 330.4,233.6 331.0,233.1 331.6,232.7 332.2,232.4 332.9,231.9 333.5,231.5 334.1,231.1 334.7,230.7 335.3,230.3 336.0,229.8 336.6,229.4 337.2,237.5 337.8,237.1 338.4,236.8 339.1,236.4 339.7,236.1 340.3,235.7 340.9,235.3 341.5,234.9 342.2,234.6 342.8,234.2 343.4,233.8 344.0,233.4 344.6,233.0 345.3,232.6 345.9,232.2 346.5,231.8 347.1,231.4 347.7,231.0 348.4,230.6 349.0,230.2 349.6,237.9 350.2,237.6 350.8,237.2 351.5,236.8 352.1,236.5 352.7,236.2 353.3,235.8 353.9,235.4 354.6,235.1 355.2,234.7 355.8,234.3 356.4,233.9 357.0,233.6 357.7,233.2 358.3,232.8 358.9,232.4 359.5,232.1 360.1,231.6 360.8,231.2 361.4,230.8 362.0,238.3 362.6,238.0 363.2,237.6 363.9,237.3 364.5,237.0 365.1,236.6 365.7,236.2 366.3,235.9 367.0,235.6 367.6,235.2 368.2,234.8 368.8,234.4 369.4,234.1 370.1,233.7 370.7,233.3 371.3,232.9 371.9,232.6 372.5,232.2 373.2,231.8 373.8,231.4 374.4,238.7 375.0,238.3 375.6,238.0 376.3,237.6 376.9,237.3 377.5,237.0 378.1,236.6 378.7,236.3 379.4,236.0 380.0,235.6 380.6,235.2 381.2,234.8 381.8,234.5 382.5,234.2 383.1,233.8 383.7,233.4 384.3,233.1 384.9,232.7 385.6,232.3 386.2,231.9 386.8,238.9 387.4,238.6 388.0,238.3 388.7,237.9 389.3,237.6 389.9,237.3 390.5,236.9 391.1,236.6 391.8,236.3 392.4,235.9 393.0,235.6 393.6,235.2 394.2,234.9 394.9,234.5 395.5,234.1 396.1,233.8 396.7,233.5 397.3,233.1 398.0,232.7 398.6,232.3 399.2,231.9 399.8,231.3 400.4,230.8 401.1,230.3 401.7,229.9 402.3,229.3 402.9,228.8 403.5,228.3 404.2,227.8 404.8,227.2 405.4,226.7 406.0,226.1 406.6,225.6 407.3,225.0 407.9,224.5 408.5,223.9 409.1,223.4 409.7,222.8 410.4,222.2 411.0,221.6 411.6,221.0 412.2,220.4 412.8,219.8 413.5,219.2 414.1,218.6 414.7,218.0 415.3,217.3 415.9,216.7 416.6,216.1 417.2,215.4 417.8,214.8 418.4,214.1 419.0,213.5 419.7,212.8 420.3,212.1 420.9,211.4 421.5,210.8 422.1,210.1 422.8,209.3 423.4,208.6 424.0,208.0 424.6,207.2 425.2,206.5 425.9,205.8 426.5,205.0 427.1,204.3 427.7,203.5 428.3,202.8 429.0,202.0 429.6,201.3 430.2,200.5 430.8,199.7 431.4,198.9 432.1,198.1 432.7,197.3 433.3,196.5 433.9,195.7 434.5,194.9 435.2,194.0 435.8,193.2 436.4,192.4 437.0,191.5 437.6,190.7 438.3,189.8 438.9,189.0 439.5,188.1 440.1,187.2 440.7,186.3 441.4,185.4 442.0,184.5 442.6,183.6 443.2,182.6 443.8,181.7 444.5,180.8 445.1,179.8 445.7,178.9 446.3,178.0 446.9,177.0 447.6,176.0 448.2,175.0 448.8,174.1 449.4,173.1 450.0,172.0 450.7,171.0 451.3,170.0 451.9,169.0 452.5,168.0 453.1,166.9 453.8,165.9 454.4,164.8 455.0,163.7 455.6,162.7 456.2,161.6 456.9,160.5 457.5,159.4 458.1,158.3 458.7,157.2 459.3,156.1 460.0,154.9 460.6,153.8 461.2,152.6 461.8,151.5 462.4,150.3 463.1,149.1 463.7,148.0 464.3,146.8 464.9,145.5 465.5,144.3 466.2,143.1 466.8,141.9 467.4,140.7 468.0,139.4 468.6,138.2 469.3,136.9 469.9,135.6 470.5,134.3 471.1,133.1 471.7,131.7 472.4,130.4 473.0,129.1 473.6,127.8 474.2,126.4 474.8,125.1 475.5,123.7 476.1,122.4 476.7,121.0 477.3,119.6 477.9,118.2 478.6,116.8 479.2,115.4 479.8,114.0 480.4,112.5 481.0,111.1 481.7,109.6 482.3,108.1 482.9,106.7 483.5,105.2 484.1,103.7 484.8,102.2 485.4,100.6 486.0,99.1 486.6,97.6 487.2,96.0 487.9,94.5 488.5,92.9 489.1,91.3 489.7,89.7 490.3,88.1 491.0,86.5 491.6,84.9 492.2,83.2 492.8,81.6 493.4,79.9 494.1,78.3 494.7,76.6 495.3,74.9 495.9,73.2 496.5,71.5 497.2,69.7 497.8,68.0 498.4,66.2 499.0,65.0 499.6,63.7 500.3,62.5 500.9,61.3 501.5,60.0 502.1,58.7 502.7,57.5 503.4,56.2 504.0,54.9 504.6,53.7 505.2,52.4 505.8,51.1 506.5,49.8 507.1,48.5 507.7,47.2 508.3,45.9 508.9,44.6 509.6,43.3 510.2,42.0 510.8,211.9 511.4,211.5 512.0,211.1 512.7,210.7 513.3,210.4 513.9,210.0 514.5,209.6 515.1,209.2 515.8,208.9 516.4,208.5 517.0,208.1 517.6,207.7 518.2,207.3 518.9,206.9 519.5,206.4 520.1,206.0 520.7,205.6 521.3,205.2 522.0,204.8 522.6,204.3 523.2,227.0 523.8,226.7 524.4,226.4 525.1,226.0 525.7,225.8 526.3,225.4 526.9,225.1 527.5,224.8 528.2,224.5 528.8,224.1 529.4,223.8 530.0,223.4 530.6,223.1 531.3,222.7 531.9,222.4 532.5,222.0 533.1,221.6 533.7,221.3 534.4,220.9 535.0,220.5 535.6,233.1 536.2,232.8 536.8,232.5 537.5,232.1 538.1,231.9 538.7,231.5 539.3,231.2 539.9,230.8 540.6,230.5 541.2,230.2 541.8,229.8 542.4,229.4 543.0,229.1 543.7,228.7 544.3,228.3 544.9,227.9 545.5,227.6 546.1,227.2 546.8,226.8 547.4,226.4 548.0,235.9 548.6,235.6 549.2,235.2 549.9,234.9 550.5,234.6 551.1,234.2 551.7,233.8 552.3,233.5 553.0,233.1 553.6,232.7 554.2,232.4 554.8,232.0 555.4,231.6 556.1,231.2 556.7,230.8 557.3,230.4 557.9,230.0 558.5,229.6 559.2,229.1 559.8,228.7 560.4,237.1 561.0,236.7 561.6,236.4 562.3,236.0 562.9,235.7 563.5,235.3 564.1,234.9 564.7,234.5 565.4,234.1 566.0,233.7 566.6,233.3 567.2,232.9 567.8,232.5 568.5,232.0 569.1,231.6 569.7,231.2 570.3,230.8 570.9,230.3 571.6,229.8 572.2,229.4 572.8,237.5 573.4,237.1 574.0,236.7 574.7,236.3 575.3,235.9 575.9,235.5 576.5,235.1 577.1,234.7 577.8,234.3 578.4,233.9 579.0,233.4 579.6,233.0 580.2,232.6 580.9,232.2 581.5,231.7 582.1,231.2 582.7,230.8 583.3,230.4 584.0,229.9 584.6,229.4 585.2,229.0 585.8,228.5 586.4,228.0 587.1,227.5 587.7,227.0 588.3,226.5 588.9,226.0 589.5,225.5 590.2,225.0 590.8,224.5 591.4,224.0 592.0,223.4 592.6,223.0 593.3,222.4 593.9,221.9 594.5,221.3 595.1,220.8 595.7,220.3 596.4,219.7 597.0,219.1 597.6,232.4 598.2,232.0 598.8,231.6 599.5,231.1 600.1,230.7 600.7,230.3 601.3,229.8 601.9,229.3 602.6,228.9 603.2,228.4 603.8,228.0 604.4,227.5 605.0,227.1 605.7,226.6 606.3,226.1 606.9,225.6 607.5,225.1 608.1,224.6 608.8,224.1 609.4,223.6 610.0,234.5 610.6,234.1 611.2,233.7 611.9,233.3 612.5,232.9 613.1,232.5 613.7,232.1 614.3,231.6 615.0,231.2 615.6,230.8 616.2,230.4 616.8,229.9 617.4,229.5 618.1,229.1 618.7,228.6 619.3,228.1 619.9,227.7 620.5,227.3 621.2,226.8 621.8,226.3 622.4,235.9 623.0,235.5 623.6,235.1 624.3,234.7 624.9,234.4 625.5,233.9 626.1,233.5 626.7,233.1 627.4,232.8 628.0,232.4 628.6,231.9 629.2,231.5 629.8,231.1 630.5,230.7 631.1,230.3 631.7,229.8 632.3,229.4 632.9,229.0 633.6,228.6 634.2,228.1 634.8,236.8 635.4,236.4 636.0,236.1 636.7,235.7 637.3,235.4 637.9,235.0 638.5,234.6 639.1,234.2 639.8,233.8 640.4,233.4 641.0,233.0 641.6,232.6 642.2,232.3 642.9,231.9 643.5,231.4 644.1,231.0 644.7,230.7 645.3,230.2 646.0,229.8 646.6,229.4 647.2,237.5 647.8,237.1 648.4,236.8 649.1,236.4 649.7,236.1 650.3,235.7 650.9,235.3 651.5,235.0 652.2,234.6 652.8,234.2 653.4,233.8 654.0,233.4 654.6,233.1 655.3,232.7 655.9,232.3 656.5,231.9 657.1,231.5 657.7,231.1 658.4,230.7 659.0,230.3 659.6,238.0 660.2,237.7 660.8,237.3 661.5,236.9 662.1,236.6 662.7,236.3 663.3,235.9 663.9,235.5 664.6,235.2 665.2,234.8 665.8,234.5 666.4,234.1 667.0,233.7 667.7,233.4 668.3,233.0 668.9,232.6 669.5,232.2 670.1,231.8 670.8,231.4 671.4,231.0 672.0,238.4 672.6,238.1 673.2,237.7 673.9,237.4 674.5,237.1 675.1,236.7 675.7,236.4 676.3,236.0 677.0,235.7 677.6,235.3 678.2,234.9 678.8,234.6 679.4,234.3 680.1,233.9 680.7,233.5 681.3,233.1 681.9,232.8 682.5,232.4 683.2,232.0 683.8,231.6 684.4,238.8 685.0,238.4 685.6,238.1 686.3,237.7 686.9,237.4 687.5,237.1 688.1,236.7 688.7,236.4 689.4,236.1 690.0,235.7 690.6,235.3 691.2,235.0 691.8,234.7 692.5,234.3 693.1,233.9 693.7,233.5 694.3,233.2 694.9,232.8 695.6,232.4 696.2,232.0 696.8,239.0 697.4,238.7 698.0,238.3 698.7,238.0 699.3,237.7 699.9,237.4 700.5,237.0 701.1,236.7 701.8,236.4 702.4,236.0 703.0,235.6 703.6,235.3 704.2,235.0 704.9,234.6 705.5,234.2 706.1,233.9 706.7,233.5 707.3,233.2 708.0,232.8 708.6,232.4 709.2,239.2 709.8,238.9 710.4,238.6 711.1,238.2 711.7,237.9 712.3,237.6 712.9,237.3 713.5,236.9 714.2,236.6 714.8,236.3 715.4,235.9 716.0,235.5 716.6,235.2 717.3,234.9 717.9,234.5 718.5,234.1 719.1,233.8 719.7,233.4 720.4,233.1 721.0,232.7 721.6,239.4 722.2,239.1 722.8,238.7 723.5,238.4 724.1,238.1 724.7,237.8 725.3,237.4 725.9,237.1 726.6,236.8 727.2,236.5 727.8,236.1 728.4,235.7 729.0,235.4 729.7,235.1 730.3,234.7 730.9,234.3 731.5,234.0 732.1,233.7 732.8,233.3 733.4,232.9 734.0,239.5 734.6,239.2 735.2,238.9 735.9,238.5 736.5,238.3 737.1,237.9 737.7,237.6 738.3,237.2 739.0,237.0 739.6,236.6 740.2,236.3 740.8,235.9 741.4,235.6 742.1,235.2 742.7,234.9 743.3,234.5 743.9,234.2 744.5,233.8 745.2,233.4 745.8,233.1 746.4,239.6 747.0,239.3 747.6,239.0 748.3,238.6 748.9,238.4 749.5,238.0 750.1,237.7 750.7,237.4 751.4,237.1 752.0,236.7 752.6,236.4 753.2,236.0 753.8,235.7 754.5,235.4 755.1,235.0 755.7,234.6 756.3,234.3 756.9,234.0 757.6,233.6 758.2,233.2 758.8,239.7 759.4,239.4 760.0,239.1 760.7,238.7 761.3,238.5 761.9,238.1 762.5,237.8 763.1,237.4 763.8,237.2 764.4,236.8 765.0,236.5 765.6,236.1 766.2,235.8 766.9,235.5 767.5,235.1 768.1,234.7 768.7,234.4 769.3,234.1 770.0,233.7 770.6,233.3 771.2,239.8 771.8,239.4 772.4,239.1 773.1,238.8 773.7,238.5 774.3,238.2 774.9,237.9 775.5,237.5 776.2,237.2 776.8,236.9 777.4,236.5 778.0,236.2 778.6,235.9 779.3,235.5 779.9,235.2 780.5,234.8 781.1,234.5 781.7,234.1 782.4,233.8 783.0,233.4 783.6,239.8 784.2,239.5 784.8,239.2 785.5,238.8 786.1,238.6 786.7,238.2 787.3,237.9 787.9,237.6 788.6,237.3 789.2,236.9 789.8,236.6 790.4,236.2 791.0,235.9 791.7,235.6 792.3,235.2 792.9,234.9 793.5,234.5 794.1,234.2 794.8,233.8 795.4,233.4 796.0,239.8"/>
<text x="640" y="72" font-family="Arial" font-size="12" fill="#2563eb">sqrt trace Ppos</text>
</svg>