<svg xmlns="http://www.w3.org/2000/svg" width="820" height="320" viewBox="0 0 820 320">
<rect width="100%" height="100%" fill="white"/>
<text x="52" y="30" font-family="Arial" font-size="18" font-weight="700">dropout_robust position error</text>
<line x1="52" y1="274" x2="796" y2="274" stroke="#263238"/>
<line x1="52" y1="42" x2="52" y2="274" stroke="#263238"/>
<text x="52" y="306" font-family="Arial" font-size="12">time (s)</text>
<text x="630" y="306" font-family="Arial" font-size="12">m</text>

<rect x="399.2" y="42" width="99.2" height="232" fill="#fef3c7" opacity="0.72"/>
<polyline fill="none" stroke="#0f766e" stroke-width="2.3" points="52.0,58.1 52.6,57.3 53.2,56.4 53.9,55.6 54.5,54.7 55.1,53.7 55.7,52.7 56.3,51.8 57.0,50.9 57.6,49.8 58.2,48.7 58.8,47.6 59.4,48.1 60.1,47.2 60.7,46.4 61.3,45.5 61.9,44.7 62.5,43.8 63.2,42.9 63.8,42.0 64.4,171.5 65.0,172.0 65.6,172.3 66.3,172.3 66.9,171.9 67.5,171.3 68.1,170.5 68.7,169.4 69.4,168.0 70.0,166.5 70.6,164.7 71.2,162.7 71.8,160.9 72.5,158.5 73.1,156.0 73.7,153.2 74.3,150.5 74.9,147.5 75.6,144.3 76.2,141.0 76.8,180.5 77.4,178.6 78.0,176.6 78.7,174.4 79.3,172.0 79.9,169.6 80.5,167.1 81.1,164.4 81.8,161.7 82.4,158.8 83.0,155.9 83.6,152.9 84.2,149.5 84.9,146.4 85.5,143.1 86.1,139.8 86.7,135.9 87.3,132.5 88.0,129.0 88.6,125.5 89.2,196.9 89.8,197.5 90.4,198.1 91.1,198.7 91.7,200.7 92.3,201.3 92.9,202.0 93.5,202.7 94.2,203.2 94.8,203.8 95.4,204.4 96.0,205.1 96.6,206.3 97.3,206.9 97.9,207.5 98.5,208.1 99.1,208.5 99.7,209.0 100.4,209.5 101.0,210.0 101.6,187.9 102.2,187.9 102.8,187.8 103.5,187.8 104.1,188.2 104.7,188.2 105.3,188.2 105.9,188.1 106.6,187.6 107.2,187.5 107.8,187.4 108.4,187.2 109.0,188.6 109.7,188.6 110.3,188.5 110.9,188.5 111.5,188.2 112.1,188.1 112.8,188.0 113.4,187.9 114.0,192.6 114.6,191.2 115.2,189.9 115.9,188.4 116.5,187.2 117.1,185.7 117.7,184.2 118.3,182.7 119.0,181.2 119.6,179.6 120.2,178.0 120.8,176.4 121.4,174.7 122.1,173.0 122.7,171.4 123.3,169.7 123.9,167.7 124.5,165.9 125.2,164.2 125.8,162.4 126.4,219.4 127.0,217.3 127.6,215.2 128.3,213.1 128.9,211.6 129.5,209.5 130.1,207.4 130.7,205.2 131.4,202.1 132.0,199.9 132.6,197.7 133.2,195.5 133.8,194.3 134.5,192.1 135.1,189.8 135.7,187.6 136.3,185.3 136.9,183.0 137.6,180.8 138.2,178.5 138.8,233.5 139.4,232.1 140.0,230.6 140.7,229.1 141.3,227.5 141.9,226.0 142.5,224.5 143.1,223.1 143.8,221.5 144.4,220.0 145.0,218.6 145.6,217.1 146.2,215.6 146.9,214.1 147.5,212.6 148.1,211.0 148.7,209.6 149.3,208.1 150.0,206.6 150.6,205.0 151.2,274.0 151.8,273.7 152.4,273.3 153.1,272.8 153.7,266.9 154.3,266.3 154.9,265.8 155.5,265.2 156.2,259.8 156.8,259.1 157.4,258.4 158.0,257.7 158.6,257.4 159.3,256.7 159.9,255.9 160.5,255.1 161.1,257.4 161.7,256.7 162.4,255.9 163.0,255.1 163.6,245.3 164.2,244.5 164.8,243.6 165.5,242.8 166.1,242.9 166.7,242.1 167.3,241.2 167.9,240.4 168.6,239.6 169.2,238.7 169.8,237.8 170.4,236.9 171.0,236.0 171.7,235.0 172.3,234.1 172.9,233.1 173.5,232.2 174.1,231.2 174.8,230.2 175.4,229.2 176.0,263.4 176.6,263.2 177.2,263.0 177.9,262.8 178.5,261.4 179.1,261.1 179.7,260.8 180.3,260.5 181.0,257.6 181.6,257.2 182.2,256.8 182.8,256.3 183.4,257.9 184.1,257.5 184.7,257.0 185.3,256.6 185.9,253.5 186.5,253.0 187.2,252.5 187.8,251.9 188.4,196.5 189.0,195.6 189.6,194.7 190.3,193.7 190.9,193.7 191.5,192.8 192.1,191.9 192.7,191.0 193.4,190.5 194.0,189.7 194.6,188.7 195.2,187.8 195.8,185.4 196.5,184.4 197.1,183.5 197.7,182.5 198.3,183.0 198.9,182.1 199.6,181.1 200.2,180.2 200.8,229.0 201.4,228.5 202.0,228.0 202.7,227.5 203.3,227.2 203.9,226.7 204.5,226.1 205.1,225.5 205.8,224.9 206.4,224.3 207.0,223.7 207.6,223.1 208.2,222.5 208.9,221.8 209.5,221.2 210.1,220.5 210.7,219.8 211.3,219.2 212.0,218.5 212.6,217.7 213.2,230.7 213.8,230.5 214.4,230.2 215.1,230.0 215.7,230.0 216.3,229.7 216.9,229.5 217.5,229.3 218.2,228.7 218.8,228.5 219.4,228.2 220.0,228.0 220.6,227.8 221.3,227.6 221.9,227.3 222.5,227.1 223.1,226.4 223.7,226.1 224.4,225.9 225.0,225.6 225.6,218.3 226.2,217.7 226.8,217.2 227.5,216.6 228.1,215.7 228.7,215.0 229.3,214.4 229.9,213.8 230.6,212.4 231.2,211.7 231.8,211.0 232.4,210.3 233.0,207.8 233.7,207.0 234.3,206.2 234.9,205.5 235.5,204.7 236.1,204.0 236.8,203.2 237.4,202.3 238.0,249.5 238.6,249.3 239.2,249.0 239.9,248.8 240.5,252.3 241.1,252.2 241.7,251.9 242.3,251.7 243.0,249.9 243.6,249.6 244.2,249.3 244.8,249.0 245.4,252.0 246.1,251.6 246.7,251.2 247.3,250.8 247.9,250.4 248.5,249.9 249.2,249.4 249.8,248.9 250.4,267.3 251.0,267.0 251.6,266.5 252.3,266.1 252.9,267.1 253.5,266.5 254.1,265.8 254.7,265.1 255.4,264.3 256.0,263.6 256.6,262.8 257.2,262.1 257.8,261.2 258.5,260.4 259.1,259.6 259.7,258.8 260.3,257.1 260.9,256.2 261.6,255.4 262.2,254.5 262.8,265.0 263.4,265.2 264.0,265.4 264.7,265.5 265.3,264.8 265.9,264.7 266.5,264.6 267.1,264.5 267.8,266.1 268.4,265.9 269.0,265.8 269.6,265.6 270.2,264.9 270.9,264.7 271.5,264.4 272.1,264.1 272.7,264.1 273.3,263.8 274.0,263.3 274.6,262.9 275.2,209.8 275.8,208.6 276.4,207.5 277.1,206.3 277.7,204.9 278.3,203.8 278.9,202.6 279.5,201.4 280.2,200.5 280.8,199.3 281.4,198.1 282.0,196.8 282.6,195.5 283.3,194.3 283.9,193.0 284.5,191.7 285.1,190.4 285.7,189.1 286.4,187.8 287.0,186.4 287.6,198.9 288.2,197.7 288.8,196.5 289.5,195.3 290.1,194.2 290.7,193.0 291.3,191.8 291.9,190.5 292.6,189.6 293.2,188.4 293.8,187.1 294.4,185.9 295.0,184.6 295.7,183.3 296.3,182.0 296.9,180.7 297.5,179.4 298.1,178.0 298.8,176.7 299.4,175.4 300.0,261.8 300.6,261.6 301.2,261.5 301.9,261.3 302.5,262.0 303.1,261.8 303.7,261.5 304.3,261.3 305.0,260.2 305.6,259.9 306.2,259.6 306.8,259.3 307.4,259.1 308.1,258.8 308.7,258.4 309.3,258.0 309.9,258.1 310.5,257.7 311.2,257.2 311.8,256.8 312.4,240.2 313.0,239.7 313.6,239.2 314.3,238.8 314.9,238.2 315.5,237.7 316.1,237.2 316.7,236.6 317.4,236.9 318.0,236.4 318.6,235.8 319.2,235.3 319.8,233.9 320.5,233.3 321.1,232.7 321.7,232.1 322.3,232.4 322.9,231.8 323.6,231.2 324.2,230.6 324.8,222.5 325.4,222.0 326.0,221.5 326.7,220.9 327.3,220.9 327.9,220.4 328.5,219.8 329.1,219.3 329.8,219.5 330.4,218.9 331.0,218.4 331.6,217.8 332.2,218.4 332.9,217.8 333.5,217.3 334.1,216.7 334.7,216.0 335.3,215.4 336.0,214.8 336.6,214.2 337.2,207.3 337.8,207.1 338.4,206.8 339.1,206.5 339.7,205.9 340.3,205.6 340.9,205.3 341.5,205.0 342.2,206.5 342.8,206.2 343.4,205.9 344.0,205.7 344.6,205.4 345.3,205.1 345.9,204.9 346.5,204.6 347.1,205.7 347.7,205.4 348.4,205.2 349.0,204.9 349.6,228.0 350.2,228.0 350.8,228.0 351.5,228.1 352.1,229.1 352.7,229.2 353.3,229.2 353.9,229.3 354.6,227.4 355.2,227.4 355.8,227.4 356.4,227.4 357.0,228.6 357.7,228.6 358.3,228.6 358.9,228.6 359.5,228.7 360.1,228.7 360.8,228.8 361.4,228.8 362.0,234.6 362.6,234.6 363.2,234.6 363.9,234.7 364.5,234.3 365.1,234.3 365.7,234.3 366.3,234.3 367.0,235.9 367.6,236.0 368.2,236.0 368.8,236.1 369.4,236.5 370.1,236.6 370.7,236.6 371.3,236.7 371.9,237.3 372.5,237.4 373.2,237.4 373.8,237.4 374.4,222.6 375.0,222.2 375.6,221.8 376.3,221.4 376.9,220.9 377.5,220.5 378.1,220.1 378.7,219.7 379.4,219.5 380.0,219.0 380.6,218.6 381.2,218.1 381.8,217.5 382.5,217.0 383.1,216.5 383.7,216.0 384.3,215.7 384.9,215.2 385.6,214.8 386.2,214.3 386.8,248.2 387.4,247.9 388.0,247.7 388.7,247.4 389.3,247.1 389.9,246.8 390.5,246.5 391.1,246.2 391.8,245.9 392.4,245.6 393.0,245.2 393.6,244.9 394.2,244.5 394.9,244.1 395.5,243.7 396.1,243.3 396.7,243.0 397.3,242.6 398.0,242.2 398.6,241.8 399.2,241.3 399.8,240.8 400.4,240.4 401.1,239.9 401.7,239.5 402.3,239.1 402.9,238.6 403.5,238.1 404.2,237.6 404.8,237.1 405.4,236.6 406.0,236.1 406.6,235.4 407.3,234.8 407.9,234.3 408.5,233.8 409.1,233.2 409.7,232.7 410.4,232.1 411.0,231.5 411.6,230.9 412.2,230.3 412.8,229.7 413.5,229.1 414.1,228.7 414.7,228.1 415.3,227.5 415.9,226.9 416.6,226.3 417.2,225.7 417.8,225.0 418.4,224.4 419.0,223.5 419.7,222.9 420.3,222.2 420.9,221.5 421.5,220.2 422.1,219.5 422.8,218.8 423.4,218.0 424.0,217.6 424.6,216.9 425.2,216.2 425.9,215.4 426.5,214.1 427.1,213.3 427.7,212.6 428.3,211.8 429.0,210.8 429.6,210.0 430.2,209.2 430.8,208.4 431.4,208.2 432.1,207.4 432.7,206.6 433.3,205.8 433.9,205.3 434.5,204.5 435.2,203.7 435.8,202.8 436.4,202.1 437.0,201.2 437.6,200.4 438.3,199.5 438.9,198.9 439.5,198.1 440.1,197.2 440.7,196.4 441.4,195.8 442.0,194.9 442.6,194.1 443.2,193.2 443.8,191.7 444.5,190.8 445.1,190.0 445.7,189.1 446.3,189.5 446.9,188.6 447.6,187.7 448.2,186.9 448.8,186.2 449.4,185.4 450.0,184.5 450.7,183.6 451.3,182.6 451.9,181.7 452.5,180.8 453.1,179.9 453.8,177.5 454.4,176.6 455.0,175.6 455.6,174.6 456.2,174.5 456.9,173.6 457.5,172.6 458.1,171.6 458.7,171.1 459.3,170.1 460.0,169.1 460.6,168.1 461.2,168.0 461.8,167.0 462.4,166.0 463.1,165.0 463.7,163.9 464.3,162.9 464.9,161.9 465.5,160.8 466.2,160.0 466.8,158.9 467.4,157.9 468.0,156.9 468.6,155.5 469.3,154.5 469.9,153.4 470.5,152.4 471.1,151.9 471.7,150.8 472.4,149.8 473.0,148.7 473.6,147.7 474.2,146.6 474.8,145.5 475.5,144.5 476.1,143.5 476.7,142.4 477.3,141.4 477.9,140.3 478.6,139.2 479.2,138.1 479.8,137.0 480.4,135.9 481.0,134.8 481.7,133.7 482.3,132.6 482.9,131.5 483.5,130.3 484.1,129.2 484.8,128.1 485.4,127.0 486.0,125.8 486.6,124.7 487.2,123.6 487.9,122.5 488.5,121.5 489.1,120.4 489.7,119.2 490.3,118.1 491.0,116.9 491.6,115.7 492.2,114.6 492.8,113.4 493.4,112.4 494.1,111.3 494.7,110.1 495.3,109.0 495.9,107.4 496.5,106.2 497.2,105.1 497.8,103.9 498.4,102.4 499.0,101.2 499.6,100.0 500.3,98.8 500.9,97.2 501.5,96.0 502.1,94.7 502.7,93.5 503.4,92.9 504.0,91.6 504.6,90.4 505.2,89.2 505.8,88.8 506.5,87.6 507.1,86.4 507.7,85.2 508.3,83.8 508.9,82.6 509.6,81.3 510.2,80.1 510.8,243.2 511.4,242.7 512.0,242.3 512.7,241.8 513.3,241.6 513.9,241.2 514.5,240.7 515.1,240.2 515.8,240.7 516.4,240.3 517.0,239.8 517.6,239.4 518.2,239.2 518.9,238.8 519.5,238.3 520.1,237.8 520.7,236.8 521.3,236.3 522.0,235.8 522.6,235.3 523.2,264.8 523.8,264.5 524.4,264.2 525.1,263.8 525.7,265.0 526.3,264.7 526.9,264.4 527.5,264.1 528.2,263.3 528.8,263.0 529.4,262.7 530.0,262.4 530.6,262.2 531.3,261.9 531.9,261.6 532.5,261.3 533.1,260.6 533.7,260.3 534.4,259.9 535.0,259.6 535.6,220.5 536.2,220.0 536.8,219.4 537.5,218.9 538.1,217.7 538.7,217.2 539.3,216.6 539.9,216.0 540.6,214.4 541.2,213.8 541.8,213.2 542.4,212.6 543.0,213.2 543.7,212.6 544.3,212.0 544.9,211.4 545.5,210.3 546.1,209.7 546.8,209.0 547.4,208.4 548.0,220.3 548.6,219.8 549.2,219.3 549.9,218.8 550.5,216.9 551.1,216.3 551.7,215.7 552.3,215.2 553.0,214.5 553.6,213.9 554.2,213.4 554.8,212.8 555.4,215.9 556.1,215.4 556.7,214.9 557.3,214.4 557.9,214.7 558.5,214.3 559.2,213.8 559.8,213.3 560.4,224.8 561.0,224.4 561.6,224.1 562.3,223.7 562.9,222.9 563.5,222.5 564.1,222.1 564.7,221.7 565.4,222.5 566.0,222.1 566.6,221.8 567.2,221.4 567.8,221.4 568.5,221.0 569.1,220.7 569.7,220.3 570.3,220.4 570.9,220.1 571.6,219.7 572.2,219.4 572.8,203.3 573.4,202.8 574.0,202.3 574.7,201.7 575.3,201.4 575.9,200.9 576.5,200.3 577.1,199.8 577.8,199.2 578.4,198.7 579.0,198.1 579.6,197.6 580.2,196.9 580.9,196.3 581.5,195.7 582.1,195.2 582.7,194.7 583.3,194.1 584.0,193.6 584.6,193.0 585.2,192.3 585.8,191.7 586.4,191.1 587.1,190.5 587.7,190.0 588.3,189.4 588.9,188.8 589.5,188.3 590.2,187.3 590.8,186.7 591.4,186.1 592.0,185.5 592.6,185.0 593.3,184.5 593.9,183.9 594.5,183.3 595.1,182.0 595.7,181.4 596.4,180.7 597.0,180.1 597.6,205.5 598.2,205.0 598.8,204.6 599.5,204.1 600.1,205.3 600.7,204.9 601.3,204.5 601.9,204.0 602.6,204.8 603.2,204.4 603.8,204.0 604.4,203.6 605.0,204.0 605.7,203.6 606.3,203.2 606.9,202.8 607.5,202.1 608.1,201.7 608.8,201.3 609.4,200.9 610.0,209.2 610.6,208.8 611.2,208.4 611.9,207.9 612.5,207.9 613.1,207.5 613.7,207.1 614.3,206.6 615.0,206.1 615.6,205.7 616.2,205.3 616.8,204.8 617.4,204.1 618.1,203.7 618.7,203.3 619.3,202.9 619.9,202.2 620.5,201.8 621.2,201.4 621.8,201.0 622.4,247.3 623.0,247.1 623.6,246.9 624.3,246.7 624.9,249.5 625.5,249.3 626.1,249.2 626.7,249.0 627.4,249.2 628.0,249.0 628.6,248.8 629.2,248.7 629.8,249.6 630.5,249.4 631.1,249.2 631.7,249.0 632.3,249.9 632.9,249.7 633.6,249.6 634.2,249.4 634.8,228.7 635.4,228.4 636.0,228.1 636.7,227.8 637.3,228.0 637.9,227.7 638.5,227.4 639.1,227.1 639.8,226.3 640.4,226.0 641.0,225.7 641.6,225.3 642.2,223.9 642.9,223.5 643.5,223.1 644.1,222.7 644.7,223.8 645.3,223.4 646.0,223.1 646.6,222.7 647.2,249.8 647.8,249.6 648.4,249.4 649.1,249.2 649.7,248.7 650.3,248.4 650.9,248.2 651.5,247.9 652.2,247.0 652.8,246.7 653.4,246.3 654.0,246.0 654.6,245.6 655.3,245.3 655.9,245.0 656.5,244.7 657.1,245.1 657.7,244.8 658.4,244.5 659.0,244.2 659.6,263.2 660.2,262.9 660.8,262.6 661.5,262.3 662.1,261.9 662.7,261.5 663.3,261.2 663.9,260.9 664.6,268.8 665.2,268.6 665.8,268.3 666.4,268.1 667.0,270.0 667.7,269.8 668.3,269.5 668.9,269.3 669.5,266.4 670.1,266.1 670.8,265.8 671.4,265.5 672.0,257.6 672.6,257.2 673.2,256.7 673.9,256.3 674.5,256.1 675.1,255.7 675.7,255.2 676.3,254.8 677.0,254.6 677.6,254.2 678.2,253.7 678.8,253.3 679.4,252.8 680.1,252.3 680.7,251.8 681.3,251.4 681.9,251.0 682.5,250.6 683.2,250.1 683.8,249.6 684.4,245.4 685.0,245.3 685.6,245.2 686.3,245.1 686.9,245.1 687.5,245.0 688.1,244.9 688.7,244.8 689.4,244.7 690.0,244.6 690.6,244.5 691.2,244.4 691.8,244.2 692.5,244.1 693.1,244.0 693.7,243.8 694.3,243.6 694.9,243.5 695.6,243.4 696.2,243.3 696.8,257.3 697.4,257.3 698.0,257.2 698.7,257.2 699.3,254.8 699.9,254.7 700.5,254.6 701.1,254.4 701.8,252.1 702.4,251.9 703.0,251.7 703.6,251.5 704.2,255.7 704.9,255.6 705.5,255.5 706.1,255.5 706.7,256.3 707.3,256.2 708.0,256.1 708.6,256.1 709.2,260.4 709.8,260.2 710.4,260.0 711.1,259.8 711.7,260.5 712.3,260.4 712.9,260.2 713.5,260.0 714.2,260.4 714.8,260.3 715.4,260.1 716.0,259.9 716.6,259.2 717.3,259.0 717.9,258.8 718.5,258.6 719.1,258.8 719.7,258.6 720.4,258.4 721.0,258.2 721.6,251.1 722.2,251.0 722.8,250.9 723.5,250.8 724.1,250.8 724.7,250.7 725.3,250.6 725.9,250.6 726.6,250.2 727.2,250.1 727.8,250.0 728.4,249.9 729.0,250.1 729.7,250.0 730.3,250.0 730.9,249.9 731.5,249.8 732.1,249.7 732.8,249.6 733.4,249.5 734.0,229.2 734.6,228.9 735.2,228.6 735.9,228.3 736.5,228.0 737.1,227.6 737.7,227.3 738.3,227.0 739.0,226.7 739.6,226.4 740.2,226.1 740.8,225.7 741.4,225.3 742.1,225.0 742.7,224.7 743.3,224.3 743.9,224.1 744.5,223.7 745.2,223.4 745.8,223.1 746.4,217.5 747.0,217.2 747.6,216.8 748.3,216.4 748.9,216.0 749.5,215.6 750.1,215.2 750.7,214.8 751.4,214.6 752.0,214.2 752.6,213.8 753.2,213.4 753.8,213.1 754.5,212.7 755.1,212.3 755.7,211.9 756.3,211.2 756.9,210.8 757.6,210.4 758.2,210.0 758.8,256.9 759.4,256.8 760.0,256.8 760.7,256.7 761.3,256.6 761.9,256.6 762.5,256.5 763.1,256.4 763.8,256.3 764.4,256.2 765.0,256.1 765.6,256.0 766.2,255.9 766.9,255.8 767.5,255.7 768.1,255.5 768.7,255.1 769.3,255.0 770.0,254.8 770.6,254.7 771.2,270.3 771.8,270.1 772.4,269.9 773.1,269.7 773.7,268.7 774.3,268.5 774.9,268.3 775.5,268.1 776.2,269.6 776.8,269.4 777.4,269.2 778.0,269.0 778.6,263.8 779.3,263.5 779.9,263.2 780.5,263.0 781.1,262.2 781.7,261.9 782.4,261.6 783.0,261.4 783.6,257.8 784.2,257.6 784.8,257.4 785.5,257.2 786.1,259.4 786.7,259.2 787.3,259.1 787.9,258.9 788.6,257.8 789.2,257.6 789.8,257.4 790.4,257.2 791.0,253.4 791.7,253.2 792.3,252.9 792.9,252.6 793.5,255.9 794.1,255.7 794.8,255.5 795.4,255.3 796.0,229.1"/>
<text x="640" y="56" font-family="Arial" font-size="12" fill="#0f766e">dropout_robust position error</text>
</svg>