<svg xmlns="http://www.w3.org/2000/svg" width="760" height="340" viewBox="0 0 760 340">
<rect width="100%" height="100%" fill="white"/><text x="52" y="30" font-family="Arial" font-size="18" font-weight="700">Filter comparison</text>
<line x1="52" y1="280" x2="736" y2="280" stroke="#263238"/><line x1="52" y1="42" x2="52" y2="280" stroke="#263238"/>
<text x="585" y="324" font-family="Arial" font-size="12">position RMSE (m)</text>
<rect x="62.0" y="56.0" width="85.8" height="224.0" fill="#0f766e"/>
<text x="62.0" y="300" font-family="Arial" font-size="11" transform="rotate(25 62.0,300)">ekf_aggressive</text>
<rect x="192.0" y="69.0" width="85.8" height="211.0" fill="#2563eb"/>
<text x="192.0" y="300" font-family="Arial" font-size="11" transform="rotate(25 192.0,300)">ekf_nominal</text>
<rect x="322.0" y="132.4" width="85.8" height="147.6" fill="#b45309"/>
<text x="322.0" y="300" font-family="Arial" font-size="11" transform="rotate(25 322.0,300)">ekf_conservative</text>
<rect x="452.0" y="78.7" width="85.8" height="201.3" fill="#be123c"/>
<text x="452.0" y="300" font-family="Arial" font-size="11" transform="rotate(25 452.0,300)">ekf_dropout_robust</text>
<rect x="582.0" y="81.8" width="85.8" height="198.2" fill="#4f46e5"/>
<text x="582.0" y="300" font-family="Arial" font-size="11" transform="rotate(25 582.0,300)">ekf_high_bias</text>
</svg>