<svg xmlns="http://www.w3.org/2000/svg" width="820" height="320" viewBox="0 0 820 320">
<rect width="100%" height="100%" fill="white"/>
<text x="52" y="30" font-family="Arial" font-size="18" font-weight="700">high_bias position error</text>
<line x1="52" y1="274" x2="796" y2="274" stroke="#263238"/>
<line x1="52" y1="42" x2="52" y2="274" stroke="#263238"/>
<text x="52" y="306" font-family="Arial" font-size="12">time (s)</text>
<text x="630" y="306" font-family="Arial" font-size="12">m</text>

<rect x="399.2" y="42" width="99.2" height="232" fill="#fef3c7" opacity="0.72"/>
<polyline fill="none" stroke="#0f766e" stroke-width="2.3" points="52.0,57.9 52.6,57.1 53.2,56.2 53.9,55.4 54.5,54.4 55.1,53.4 55.7,52.4 56.3,51.4 57.0,50.6 57.6,49.6 58.2,48.5 58.8,47.3 59.4,48.0 60.1,47.1 60.7,46.3 61.3,45.4 61.9,44.6 62.5,43.8 63.2,42.9 63.8,42.0 64.4,174.4 65.0,174.7 65.6,174.8 66.3,174.5 66.9,173.6 67.5,172.7 68.1,171.4 68.7,169.9 69.4,167.9 70.0,165.8 70.6,163.5 71.2,160.9 71.8,158.5 72.5,155.5 73.1,152.3 73.7,149.0 74.3,145.6 74.9,141.9 75.6,138.1 76.2,134.1 76.8,180.4 77.4,178.2 78.0,176.0 78.7,173.5 79.3,170.9 79.9,168.3 80.5,165.5 81.1,162.6 81.8,159.6 82.4,156.6 83.0,153.4 83.6,150.2 84.2,146.6 84.9,143.2 85.5,139.7 86.1,136.2 86.7,132.1 87.3,128.4 88.0,124.7 88.6,121.0 89.2,198.4 89.8,199.0 90.4,199.6 91.1,200.2 91.7,202.2 92.3,202.9 92.9,203.5 93.5,204.2 94.2,204.7 94.8,205.3 95.4,205.9 96.0,206.5 96.6,207.7 97.3,208.3 97.9,208.9 98.5,209.5 99.1,209.7 99.7,210.2 100.4,210.7 101.0,211.1 101.6,189.0 102.2,189.0 102.8,188.9 103.5,188.8 104.1,189.3 104.7,189.2 105.3,189.1 105.9,189.0 106.6,188.5 107.2,188.4 107.8,188.2 108.4,188.0 109.0,189.4 109.7,189.4 110.3,189.3 110.9,189.2 111.5,188.8 112.1,188.7 112.8,188.6 113.4,188.4 114.0,193.5 114.6,192.2 115.2,190.8 115.9,189.3 116.5,188.1 117.1,186.6 117.7,185.1 118.3,183.6 119.0,182.0 119.6,180.4 120.2,178.8 120.8,177.2 121.4,175.5 122.1,173.8 122.7,172.1 123.3,170.4 123.9,168.4 124.5,166.7 125.2,164.9 125.8,163.1 126.4,220.1 127.0,218.0 127.6,215.8 128.3,213.6 128.9,212.1 129.5,209.9 130.1,207.7 130.7,205.5 131.4,202.4 132.0,200.1 132.6,197.9 133.2,195.6 133.8,194.3 134.5,192.0 135.1,189.7 135.7,187.4 136.3,185.0 136.9,182.7 137.6,180.3 138.2,177.9 138.8,234.1 139.4,232.6 140.0,231.0 140.7,229.5 141.3,227.8 141.9,226.2 142.5,224.7 143.1,223.1 143.8,221.5 144.4,220.0 145.0,218.4 145.6,216.8 146.2,215.3 146.9,213.7 147.5,212.1 148.1,210.5 148.7,209.0 149.3,207.3 150.0,205.7 150.6,204.0 151.2,274.0 151.8,273.5 152.4,273.0 153.1,272.5 153.7,267.3 154.3,266.7 154.9,266.1 155.5,265.4 156.2,260.3 156.8,259.6 157.4,258.8 158.0,258.0 158.6,257.6 159.3,256.7 159.9,255.9 160.5,255.0 161.1,256.9 161.7,256.0 162.4,255.1 163.0,254.2 163.6,245.8 164.2,244.9 164.8,244.0 165.5,243.1 166.1,243.2 166.7,242.2 167.3,241.3 167.9,240.4 168.6,239.5 169.2,238.6 169.8,237.6 170.4,236.6 171.0,235.6 171.7,234.6 172.3,233.6 172.9,232.6 173.5,231.5 174.1,230.5 174.8,229.4 175.4,228.3 176.0,264.6 176.6,264.3 177.2,264.1 177.9,263.8 178.5,262.4 179.1,262.0 179.7,261.7 180.3,261.3 181.0,258.5 181.6,258.0 182.2,257.5 182.8,257.0 183.4,258.4 184.1,257.9 184.7,257.4 185.3,256.9 185.9,254.0 186.5,253.4 187.2,252.8 187.8,252.1 188.4,198.1 189.0,197.2 189.6,196.3 190.3,195.4 190.9,195.3 191.5,194.4 192.1,193.5 192.7,192.6 193.4,192.1 194.0,191.2 194.6,190.3 195.2,189.4 195.8,187.0 196.5,186.0 197.1,185.1 197.7,184.1 198.3,184.5 198.9,183.6 199.6,182.7 200.2,181.7 200.8,230.1 201.4,229.6 202.0,229.0 202.7,228.5 203.3,228.3 203.9,227.7 204.5,227.1 205.1,226.5 205.8,225.8 206.4,225.2 207.0,224.5 207.6,223.9 208.2,223.3 208.9,222.6 209.5,221.9 210.1,221.2 210.7,220.5 211.3,219.8 212.0,219.1 212.6,218.3 213.2,232.2 213.8,231.9 214.4,231.7 215.1,231.5 215.7,231.4 216.3,231.1 216.9,230.9 217.5,230.7 218.2,230.0 218.8,229.8 219.4,229.6 220.0,229.3 220.6,229.1 221.3,228.8 221.9,228.6 222.5,228.3 223.1,227.7 223.7,227.4 224.4,227.1 225.0,226.7 225.6,219.5 226.2,218.9 226.8,218.3 227.5,217.7 228.1,216.8 228.7,216.2 229.3,215.6 229.9,214.9 230.6,213.5 231.2,212.8 231.8,212.1 232.4,211.4 233.0,209.0 233.7,208.2 234.3,207.4 234.9,206.6 235.5,205.9 236.1,205.1 236.8,204.3 237.4,203.4 238.0,251.4 238.6,251.2 239.2,251.0 239.9,250.8 240.5,254.2 241.1,254.0 241.7,253.8 242.3,253.5 243.0,251.8 243.6,251.5 244.2,251.1 244.8,250.8 245.4,253.7 246.1,253.3 246.7,252.9 247.3,252.5 247.9,252.1 248.5,251.6 249.2,251.1 249.8,250.6 250.4,268.6 251.0,268.2 251.6,267.8 252.3,267.3 252.9,268.3 253.5,267.7 254.1,267.0 254.7,266.3 255.4,265.5 256.0,264.7 256.6,264.0 257.2,263.2 257.8,262.3 258.5,261.5 259.1,260.7 259.7,259.8 260.3,258.2 260.9,257.3 261.6,256.5 262.2,255.6 262.8,266.7 263.4,266.9 264.0,267.0 264.7,267.2 265.3,266.6 265.9,266.6 266.5,266.5 267.1,266.3 267.8,267.7 268.4,267.6 269.0,267.4 269.6,267.2 270.2,266.5 270.9,266.2 271.5,265.9 272.1,265.6 272.7,265.6 273.3,265.2 274.0,264.7 274.6,264.3 275.2,211.1 275.8,210.0 276.4,208.8 277.1,207.7 277.7,206.3 278.3,205.1 278.9,203.9 279.5,202.7 280.2,201.8 280.8,200.6 281.4,199.4 282.0,198.1 282.6,196.8 283.3,195.6 283.9,194.3 284.5,193.0 285.1,191.7 285.7,190.4 286.4,189.1 287.0,187.7 287.6,200.3 288.2,199.1 288.8,197.9 289.5,196.7 290.1,195.7 290.7,194.4 291.3,193.2 291.9,192.0 292.6,191.1 293.2,189.8 293.8,188.6 294.4,187.3 295.0,186.1 295.7,184.8 296.3,183.5 296.9,182.2 297.5,180.8 298.1,179.5 298.8,178.2 299.4,176.8 300.0,263.1 300.6,262.9 301.2,262.7 301.9,262.5 302.5,263.3 303.1,263.1 303.7,262.8 304.3,262.6 305.0,261.5 305.6,261.2 306.2,260.8 306.8,260.5 307.4,260.4 308.1,260.0 308.7,259.6 309.3,259.2 309.9,259.6 310.5,259.1 311.2,258.7 311.8,258.2 312.4,241.8 313.0,241.3 313.6,240.8 314.3,240.3 314.9,239.8 315.5,239.2 316.1,238.7 316.7,238.2 317.4,238.4 318.0,237.8 318.6,237.3 319.2,236.8 319.8,235.4 320.5,234.8 321.1,234.2 321.7,233.6 322.3,233.8 322.9,233.2 323.6,232.6 324.2,232.0 324.8,224.1 325.4,223.5 326.0,223.0 326.7,222.5 327.3,222.4 327.9,221.8 328.5,221.3 329.1,220.7 329.8,220.8 330.4,220.3 331.0,219.7 331.6,219.2 332.2,219.6 332.9,219.1 333.5,218.5 334.1,217.9 334.7,217.1 335.3,216.5 336.0,215.9 336.6,215.3 337.2,208.5 337.8,208.2 338.4,207.8 339.1,207.5 339.7,206.9 340.3,206.6 340.9,206.3 341.5,205.9 342.2,207.3 342.8,207.0 343.4,206.7 344.0,206.4 344.6,206.0 345.3,205.7 345.9,205.4 346.5,205.1 347.1,206.1 347.7,205.8 348.4,205.6 349.0,205.3 349.6,228.8 350.2,228.8 350.8,228.8 351.5,228.7 352.1,229.8 352.7,229.8 353.3,229.8 353.9,229.8 354.6,227.9 355.2,227.9 355.8,227.9 356.4,227.8 357.0,228.9 357.7,228.9 358.3,228.9 358.9,228.8 359.5,228.9 360.1,228.8 360.8,228.8 361.4,228.8 362.0,235.2 362.6,235.1 363.2,235.1 363.9,235.1 364.5,234.7 365.1,234.7 365.7,234.7 366.3,234.6 367.0,236.2 367.6,236.2 368.2,236.2 368.8,236.2 369.4,236.6 370.1,236.7 370.7,236.7 371.3,236.7 371.9,237.3 372.5,237.3 373.2,237.3 373.8,237.3 374.4,223.4 375.0,222.9 375.6,222.5 376.3,222.1 376.9,221.6 377.5,221.2 378.1,220.8 378.7,220.3 379.4,220.1 380.0,219.6 380.6,219.2 381.2,218.7 381.8,218.1 382.5,217.6 383.1,217.1 383.7,216.6 384.3,216.3 384.9,215.8 385.6,215.3 386.2,214.8 386.8,249.7 387.4,249.4 388.0,249.2 388.7,248.9 389.3,248.6 389.9,248.4 390.5,248.1 391.1,247.8 391.8,247.5 392.4,247.2 393.0,246.9 393.6,246.6 394.2,246.2 394.9,245.9 395.5,245.6 396.1,245.2 396.7,244.9 397.3,244.5 398.0,244.1 398.6,243.7 399.2,243.3 399.8,242.9 400.4,242.4 401.1,242.0 401.7,241.7 402.3,241.3 402.9,240.8 403.5,240.4 404.2,239.9 404.8,239.5 405.4,239.0 406.0,238.5 406.6,237.9 407.3,237.4 407.9,236.9 408.5,236.4 409.1,235.9 409.7,235.4 410.4,234.9 411.0,234.4 411.6,233.8 412.2,233.2 412.8,232.7 413.5,232.2 414.1,231.7 414.7,231.1 415.3,230.6 415.9,230.0 416.6,229.5 417.2,228.9 417.8,228.3 418.4,227.7 419.0,226.9 419.7,226.3 420.3,225.7 420.9,225.0 421.5,223.7 422.1,223.0 422.8,222.4 423.4,221.7 424.0,221.3 424.6,220.7 425.2,220.0 425.9,219.3 426.5,218.0 427.1,217.3 427.7,216.5 428.3,215.8 429.0,214.9 429.6,214.2 430.2,213.4 430.8,212.6 431.4,212.5 432.1,211.8 432.7,211.0 433.3,210.2 433.9,209.8 434.5,209.0 435.2,208.2 435.8,207.5 436.4,206.8 437.0,206.0 437.6,205.2 438.3,204.4 438.9,203.8 439.5,203.0 440.1,202.2 440.7,201.4 441.4,200.9 442.0,200.1 442.6,199.3 443.2,198.5 443.8,197.1 444.5,196.3 445.1,195.4 445.7,194.6 446.3,195.1 446.9,194.3 447.6,193.5 448.2,192.7 448.8,192.2 449.4,191.3 450.0,190.5 450.7,189.7 451.3,188.8 451.9,188.0 452.5,187.1 453.1,186.3 453.8,183.9 454.4,183.0 455.0,182.1 455.6,181.2 456.2,181.2 456.9,180.3 457.5,179.4 458.1,178.5 458.7,178.0 459.3,177.1 460.0,176.2 460.6,175.2 461.2,175.3 461.8,174.4 462.4,173.5 463.1,172.5 463.7,171.5 464.3,170.5 464.9,169.6 465.5,168.6 466.2,167.9 466.8,166.9 467.4,166.0 468.0,165.0 468.6,163.7 469.3,162.7 469.9,161.7 470.5,160.8 471.1,160.4 471.7,159.4 472.4,158.5 473.0,157.5 473.6,156.5 474.2,155.5 474.8,154.5 475.5,153.5 476.1,152.7 476.7,151.7 477.3,150.7 477.9,149.7 478.6,148.7 479.2,147.7 479.8,146.7 480.4,145.7 481.0,144.6 481.7,143.6 482.3,142.6 482.9,141.6 483.5,140.5 484.1,139.4 484.8,138.4 485.4,137.4 486.0,136.3 486.6,135.3 487.2,134.2 487.9,133.2 488.5,132.3 489.1,131.2 489.7,130.2 490.3,129.1 491.0,128.0 491.6,126.9 492.2,125.8 492.8,124.8 493.4,123.8 494.1,122.8 494.7,121.7 495.3,120.6 495.9,119.1 496.5,118.0 497.2,116.9 497.8,115.8 498.4,114.4 499.0,113.3 499.6,112.2 500.3,111.1 500.9,109.6 501.5,108.4 502.1,107.3 502.7,106.1 503.4,105.5 504.0,104.4 504.6,103.2 505.2,102.1 505.8,101.8 506.5,100.7 507.1,99.5 507.7,98.4 508.3,97.1 508.9,96.0 509.6,94.8 510.2,93.6 510.8,243.2 511.4,242.8 512.0,242.4 512.7,242.0 513.3,241.9 513.9,241.5 514.5,241.1 515.1,240.7 515.8,241.4 516.4,241.0 517.0,240.7 517.6,240.3 518.2,240.4 518.9,240.0 519.5,239.6 520.1,239.2 520.7,238.5 521.3,238.2 522.0,237.8 522.6,237.4 523.2,266.9 523.8,266.7 524.4,266.6 525.1,266.4 525.7,267.1 526.3,266.9 526.9,266.8 527.5,266.6 528.2,266.1 528.8,266.0 529.4,265.8 530.0,265.6 530.6,265.5 531.3,265.3 531.9,265.2 532.5,265.0 533.1,264.4 533.7,264.2 534.4,264.0 535.0,263.8 535.6,223.3 536.2,222.9 536.8,222.5 537.5,222.1 538.1,221.0 538.7,220.6 539.3,220.2 539.9,219.7 540.6,218.3 541.2,217.8 541.8,217.3 542.4,216.8 543.0,217.4 543.7,217.0 544.3,216.5 544.9,216.0 545.5,215.0 546.1,214.5 546.8,214.0 547.4,213.5 548.0,224.5 548.6,224.1 549.2,223.7 549.9,223.3 550.5,221.5 551.1,221.1 551.7,220.6 552.3,220.2 553.0,219.6 553.6,219.1 554.2,218.7 554.8,218.2 555.4,221.5 556.1,221.1 556.7,220.7 557.3,220.4 557.9,220.8 558.5,220.5 559.2,220.1 559.8,219.8 560.4,229.8 561.0,229.5 561.6,229.3 562.3,229.0 562.9,228.3 563.5,228.0 564.1,227.7 564.7,227.5 565.4,228.4 566.0,228.2 566.6,227.9 567.2,227.7 567.8,227.8 568.5,227.5 569.1,227.3 569.7,227.1 570.3,227.4 570.9,227.2 571.6,226.9 572.2,226.7 572.8,208.4 573.4,207.9 574.0,207.5 574.7,207.0 575.3,206.9 575.9,206.4 576.5,206.0 577.1,205.5 577.8,205.1 578.4,204.6 579.0,204.2 579.6,203.7 580.2,203.2 580.9,202.7 581.5,202.2 582.1,201.8 582.7,201.4 583.3,200.9 584.0,200.4 584.6,200.0 585.2,199.4 585.8,198.9 586.4,198.4 587.1,197.9 587.7,197.6 588.3,197.1 588.9,196.6 589.5,196.1 590.2,195.3 590.8,194.8 591.4,194.3 592.0,193.8 592.6,193.4 593.3,192.9 593.9,192.5 594.5,192.0 595.1,190.8 595.7,190.3 596.4,189.7 597.0,189.2 597.6,213.1 598.2,212.8 598.8,212.4 599.5,212.1 600.1,213.5 600.7,213.2 601.3,212.8 601.9,212.5 602.6,213.5 603.2,213.2 603.8,213.0 604.4,212.7 605.0,213.2 605.7,213.0 606.3,212.7 606.9,212.4 607.5,211.8 608.1,211.5 608.8,211.2 609.4,211.0 610.0,212.6 610.6,212.2 611.2,211.7 611.9,211.3 612.5,211.3 613.1,210.8 613.7,210.4 614.3,210.0 615.0,209.4 615.6,209.0 616.2,208.5 616.8,208.1 617.4,207.4 618.1,206.9 618.7,206.5 619.3,206.0 619.9,205.4 620.5,205.0 621.2,204.5 621.8,204.1 622.4,247.0 623.0,246.6 623.6,246.3 624.3,245.9 624.9,248.3 625.5,248.0 626.1,247.7 626.7,247.3 627.4,247.3 628.0,246.9 628.6,246.6 629.2,246.2 629.8,246.8 630.5,246.4 631.1,246.0 631.7,245.6 632.3,246.2 632.9,245.8 633.6,245.4 634.2,245.0 634.8,232.7 635.4,232.4 636.0,232.1 636.7,231.8 637.3,232.1 637.9,231.8 638.5,231.5 639.1,231.2 639.8,230.5 640.4,230.2 641.0,229.9 641.6,229.5 642.2,228.0 642.9,227.7 643.5,227.3 644.1,226.8 644.7,227.9 645.3,227.5 646.0,227.2 646.6,226.8 647.2,252.4 647.8,252.2 648.4,251.9 649.1,251.6 649.7,251.0 650.3,250.7 650.9,250.3 651.5,250.0 652.2,249.0 652.8,248.6 653.4,248.2 654.0,247.8 654.6,247.3 655.3,246.9 655.9,246.5 656.5,246.0 657.1,246.4 657.7,246.0 658.4,245.5 659.0,245.1 659.6,262.9 660.2,262.4 660.8,262.0 661.5,261.6 662.1,261.0 662.7,260.5 663.3,260.0 663.9,259.6 664.6,265.4 665.2,265.0 665.8,264.6 666.4,264.2 667.0,265.0 667.7,264.6 668.3,264.1 668.9,263.7 669.5,261.7 670.1,261.2 670.8,260.7 671.4,260.2 672.0,253.0 672.6,252.4 673.2,251.9 673.9,251.3 674.5,250.9 675.1,250.4 675.7,249.8 676.3,249.2 677.0,248.9 677.6,248.3 678.2,247.7 678.8,247.1 679.4,246.5 680.1,245.9 680.7,245.3 681.3,244.7 681.9,244.2 682.5,243.6 683.2,243.0 683.8,242.4 684.4,249.9 685.0,249.8 685.6,249.8 686.3,249.7 686.9,249.7 687.5,249.6 688.1,249.5 688.7,249.5 689.4,249.4 690.0,249.3 690.6,249.2 691.2,249.1 691.8,249.0 692.5,248.9 693.1,248.8 693.7,248.7 694.3,248.5 694.9,248.3 695.6,248.2 696.2,248.1 696.8,261.5 697.4,261.5 698.0,261.5 698.7,261.4 699.3,258.6 699.9,258.4 700.5,258.3 701.1,258.1 701.8,255.5 702.4,255.3 703.0,255.1 703.6,254.8 704.2,259.7 704.9,259.6 705.5,259.5 706.1,259.4 706.7,260.4 707.3,260.3 708.0,260.2 708.6,260.1 709.2,258.9 709.8,258.6 710.4,258.3 711.1,258.0 711.7,258.6 712.3,258.3 712.9,258.0 713.5,257.7 714.2,258.0 714.8,257.7 715.4,257.4 716.0,257.2 716.6,256.4 717.3,256.1 717.9,255.8 718.5,255.5 719.1,255.6 719.7,255.3 720.4,254.9 721.0,254.6 721.6,253.1 722.2,253.0 722.8,252.9 723.5,252.8 724.1,252.8 724.7,252.7 725.3,252.6 725.9,252.5 726.6,252.1 727.2,252.0 727.8,251.8 728.4,251.7 729.0,252.0 729.7,251.9 730.3,251.7 730.9,251.6 731.5,251.5 732.1,251.4 732.8,251.3 733.4,251.2 734.0,228.3 734.6,227.9 735.2,227.6 735.9,227.2 736.5,226.8 737.1,226.4 737.7,226.0 738.3,225.6 739.0,225.3 739.6,224.9 740.2,224.5 740.8,224.1 741.4,223.6 742.1,223.2 742.7,222.8 743.3,222.4 743.9,222.0 744.5,221.6 745.2,221.2 745.8,220.8 746.4,216.4 747.0,216.0 747.6,215.5 748.3,215.1 748.9,214.5 749.5,214.1 750.1,213.6 750.7,213.1 751.4,212.9 752.0,212.4 752.6,211.9 753.2,211.5 753.8,211.1 754.5,210.6 755.1,210.1 755.7,209.7 756.3,209.0 756.9,208.5 757.6,208.0 758.2,207.5 758.8,257.4 759.4,257.3 760.0,257.2 760.7,257.0 761.3,256.9 761.9,256.8 762.5,256.7 763.1,256.6 763.8,256.5 764.4,256.3 765.0,256.2 765.6,256.1 766.2,255.9 766.9,255.7 767.5,255.6 768.1,255.4 768.7,255.0 769.3,254.8 770.0,254.7 770.6,254.5 771.2,269.4 771.8,269.2 772.4,268.9 773.1,268.7 773.7,267.9 774.3,267.7 774.9,267.4 775.5,267.2 776.2,268.0 776.8,267.8 777.4,267.5 778.0,267.3 778.6,263.3 779.3,263.0 779.9,262.7 780.5,262.4 781.1,261.6 781.7,261.3 782.4,261.0 783.0,260.7 783.6,259.5 784.2,259.2 784.8,259.0 785.5,258.8 786.1,260.9 786.7,260.7 787.3,260.5 787.9,260.4 788.6,259.2 789.2,259.0 789.8,258.8 790.4,258.5 791.0,254.8 791.7,254.5 792.3,254.2 792.9,253.9 793.5,257.1 794.1,256.9 794.8,256.6 795.4,256.4 796.0,228.4"/>
<text x="640" y="56" font-family="Arial" font-size="12" fill="#0f766e">high_bias position error</text>
</svg>