<svg xmlns="http://www.w3.org/2000/svg" width="820" height="320" viewBox="0 0 820 320">
<rect width="100%" height="100%" fill="white"/>
<text x="52" y="30" font-family="Arial" font-size="18" font-weight="700">ekf_dropout_robust NEES proxy</text>
<line x1="52" y1="274" x2="796" y2="274" stroke="#263238"/>
<line x1="52" y1="42" x2="52" y2="274" stroke="#263238"/>
<text x="52" y="306" font-family="Arial" font-size="12">time (s)</text>
<text x="630" y="306" font-family="Arial" font-size="12">value</text>

<rect x="399.2" y="42" width="99.2" height="232" fill="#fef3c7" opacity="0.72"/>
<polyline fill="none" stroke="#0f766e" stroke-width="2.3" points="52.0,42.8 52.6,42.0 53.2,43.3 53.9,46.5 54.5,45.1 55.1,50.4 55.7,57.3 56.3,65.3 57.0,64.1 57.6,72.5 58.2,81.5 58.8,90.6 59.4,116.9 60.1,125.5 60.7,133.8 61.3,141.7 61.9,150.4 62.5,157.2 63.2,163.6 63.8,169.6 64.4,212.1 65.0,216.5 65.6,220.5 66.3,223.9 66.9,223.8 67.5,226.3 68.1,228.4 68.7,230.3 69.4,227.9 70.0,229.2 70.6,230.4 71.2,231.4 71.8,234.8 72.5,235.5 73.1,236.1 73.7,236.6 74.3,237.7 74.9,238.0 75.6,238.2 76.2,238.3 76.8,223.7 77.4,224.4 78.0,225.0 78.7,225.5 79.3,224.6 79.9,224.9 80.5,225.2 81.1,225.3 81.8,225.0 82.4,225.1 83.0,225.2 83.6,225.2 84.2,216.5 84.9,216.6 85.5,216.7 86.1,216.8 86.7,195.3 87.3,195.7 88.0,196.1 88.6,196.5 89.2,210.7 89.8,213.6 90.4,216.3 91.1,219.0 91.7,236.9 92.3,239.1 92.9,241.2 93.5,243.2 94.2,240.1 94.8,242.1 95.4,243.9 96.0,245.7 96.6,253.7 97.3,255.0 97.9,256.3 98.5,257.5 99.1,254.0 99.7,254.2 100.4,254.5 101.0,254.6 101.6,212.1 102.2,213.4 102.8,214.6 103.5,215.9 104.1,222.5 104.7,223.7 105.3,224.8 105.9,225.9 106.6,214.7 107.2,215.4 107.8,216.1 108.4,216.8 109.0,242.1 109.7,243.2 110.3,244.3 110.9,245.3 111.5,241.1 112.1,242.3 112.8,243.4 113.4,244.5 114.0,222.1 114.6,222.6 115.2,223.0 115.9,223.4 116.5,226.5 117.1,226.8 117.7,227.0 118.3,227.2 119.0,227.6 119.6,227.8 120.2,228.0 120.8,228.3 121.4,226.3 122.1,226.7 122.7,227.1 123.3,227.5 123.9,219.1 124.5,219.7 125.2,220.2 125.8,220.7 126.4,239.6 127.0,239.1 127.6,238.7 128.3,238.3 128.9,246.5 129.5,245.9 130.1,245.4 130.7,244.9 131.4,225.8 132.0,225.7 132.6,225.6 133.2,225.5 133.8,243.8 134.5,243.3 135.1,242.9 135.7,242.5 136.3,241.6 136.9,241.3 137.6,241.1 138.2,240.9 138.8,260.8 139.4,260.4 140.0,260.1 140.7,259.7 141.3,256.6 141.9,256.5 142.5,256.4 143.1,256.2 143.8,254.7 144.4,254.6 145.0,254.6 145.6,254.6 146.2,254.2 146.9,254.3 147.5,254.3 148.1,254.3 148.7,256.4 149.3,256.3 150.0,256.2 150.6,256.2 151.2,274.0 151.8,273.9 152.4,273.8 153.1,273.7 153.7,258.8 154.3,258.5 154.9,258.1 155.5,257.8 156.2,229.2 156.8,228.7 157.4,228.2 158.0,227.8 158.6,219.9 159.3,219.4 159.9,219.0 160.5,218.6 161.1,228.7 161.7,228.4 162.4,228.2 163.0,228.0 163.6,255.9 164.2,255.8 164.8,255.6 165.5,255.5 166.1,265.6 166.7,265.5 167.3,265.4 167.9,265.3 168.6,266.4 169.2,266.3 169.8,266.3 170.4,266.2 171.0,266.2 171.7,266.2 172.3,266.1 172.9,266.1 173.5,266.0 174.1,266.0 174.8,265.9 175.4,265.8 176.0,272.2 176.6,272.2 177.2,272.2 177.9,272.2 178.5,265.7 179.1,265.6 179.7,265.6 180.3,265.6 181.0,246.1 181.6,246.2 182.2,246.2 182.8,246.2 183.4,256.6 184.1,256.7 184.7,256.7 185.3,256.8 185.9,231.3 186.5,231.4 187.2,231.6 187.8,231.8 188.4,157.5 189.0,158.3 189.6,159.2 190.3,160.2 190.9,177.6 191.5,178.6 192.1,179.5 192.7,180.5 193.4,187.4 194.0,188.4 194.6,189.3 195.2,190.3 195.8,127.1 196.5,128.6 197.1,130.0 197.7,131.5 198.3,169.1 198.9,170.6 199.6,172.0 200.2,173.5 200.8,249.1 201.4,249.6 202.0,250.1 202.7,250.6 203.3,257.0 203.9,257.2 204.5,257.3 205.1,257.5 205.8,256.3 206.4,256.5 207.0,256.8 207.6,257.0 208.2,257.8 208.9,257.9 209.5,257.9 210.1,257.9 210.7,258.4 211.3,258.4 212.0,258.5 212.6,258.5 213.2,254.7 213.8,254.9 214.4,255.0 215.1,255.2 215.7,258.1 216.3,258.4 216.9,258.8 217.5,259.1 218.2,251.7 218.8,252.3 219.4,252.9 220.0,253.5 220.6,253.4 221.3,254.0 221.9,254.5 222.5,255.0 223.1,246.2 223.7,246.9 224.4,247.5 225.0,248.2 225.6,217.9 226.2,218.8 226.8,219.6 227.5,220.5 228.1,208.7 228.7,209.7 229.3,210.7 229.9,211.7 230.6,186.1 231.2,187.3 231.8,188.5 232.4,189.7 233.0,126.0 233.7,127.7 234.3,129.4 234.9,131.1 235.5,115.9 236.1,117.9 236.8,119.8 237.4,121.8 238.0,172.1 238.6,173.9 239.2,175.7 239.9,177.6 240.5,210.8 241.1,212.4 241.7,213.9 242.3,215.3 243.0,189.7 243.6,191.4 244.2,193.1 244.8,194.9 245.4,226.3 246.1,227.6 246.7,229.0 247.3,230.2 247.9,225.1 248.5,226.6 249.2,227.9 249.8,229.2 250.4,262.0 251.0,262.7 251.6,263.3 252.3,263.9 252.9,271.2 253.5,271.5 254.1,271.6 254.7,271.8 255.4,270.9 256.0,271.1 256.6,271.2 257.2,271.3 257.8,270.9 258.5,271.0 259.1,271.1 259.7,271.1 260.3,263.3 260.9,263.6 261.6,263.9 262.2,264.1 262.8,270.1 263.4,270.5 264.0,270.8 264.7,271.0 265.3,265.9 265.9,265.6 266.5,265.2 267.1,264.9 267.8,273.3 268.4,273.2 269.0,273.2 269.6,273.1 270.2,270.5 270.9,270.6 271.5,270.8 272.1,270.9 272.7,273.1 273.3,273.1 274.0,273.1 274.6,273.1 275.2,225.7 275.8,225.3 276.4,225.0 277.1,224.6 277.7,215.9 278.3,215.7 278.9,215.5 279.5,215.3 280.2,225.5 280.8,225.0 281.4,224.5 282.0,224.1 282.6,222.4 283.3,221.9 283.9,221.4 284.5,220.8 285.1,221.2 285.7,220.7 286.4,220.2 287.0,219.7 287.6,196.1 288.2,195.3 288.8,194.5 289.5,193.7 290.1,196.2 290.7,195.5 291.3,194.8 291.9,194.1 292.6,206.0 293.2,205.4 293.8,204.9 294.4,204.4 295.0,204.3 295.7,203.8 296.3,203.3 296.9,202.8 297.5,198.2 298.1,197.7 298.8,197.2 299.4,196.7 300.0,265.1 300.6,265.0 301.2,265.0 301.9,264.9 302.5,271.2 303.1,271.1 303.7,271.1 304.3,271.1 305.0,264.8 305.6,264.8 306.2,264.8 306.8,264.7 307.4,265.6 308.1,265.6 308.7,265.6 309.3,265.6 309.9,269.8 310.5,269.7 311.2,269.6 311.8,269.5 312.4,234.2 313.0,234.1 313.6,234.0 314.3,233.9 314.9,229.2 315.5,229.1 316.1,228.9 316.7,228.8 317.4,239.5 318.0,239.4 318.6,239.3 319.2,239.2 319.8,217.7 320.5,217.6 321.1,217.6 321.7,217.5 322.3,229.0 322.9,229.0 323.6,228.8 324.2,228.7 324.8,154.9 325.4,155.0 326.0,155.2 326.7,155.3 327.3,155.4 327.9,155.6 328.5,155.8 329.1,156.1 329.8,163.7 330.4,164.1 331.0,164.5 331.6,164.8 332.2,183.9 332.9,184.3 333.5,184.8 334.1,185.3 334.7,170.6 335.3,171.2 336.0,171.8 336.6,172.4 337.2,101.5 337.8,103.1 338.4,104.6 339.1,106.2 339.7,80.9 340.3,82.7 340.9,84.4 341.5,86.2 342.2,127.3 342.8,129.0 343.4,130.7 344.0,132.3 344.6,119.7 345.3,121.4 345.9,123.2 346.5,124.9 347.1,157.0 347.7,158.7 348.4,160.3 349.0,161.9 349.6,187.3 350.2,189.0 350.8,190.6 351.5,192.3 352.1,211.0 352.7,212.5 353.3,213.9 353.9,215.4 354.6,166.0 355.2,167.9 355.8,169.9 356.4,171.7 357.0,189.1 357.7,190.8 358.3,192.5 358.9,194.2 359.5,187.9 360.1,189.7 360.8,191.5 361.4,193.3 362.0,208.1 362.6,209.8 363.2,211.5 363.9,213.1 364.5,199.9 365.1,201.7 365.7,203.5 366.3,205.2 367.0,232.4 367.6,233.7 368.2,234.9 368.8,236.1 369.4,242.6 370.1,243.7 370.7,244.7 371.3,245.7 371.9,256.2 372.5,256.9 373.2,257.5 373.8,258.1 374.4,231.7 375.0,232.3 375.6,232.8 376.3,233.3 376.9,230.9 377.5,231.5 378.1,232.1 378.7,232.7 379.4,237.7 380.0,237.9 380.6,238.1 381.2,238.3 381.8,233.4 382.5,233.0 383.1,232.6 383.7,232.1 384.3,237.0 384.9,237.3 385.6,237.5 386.2,237.8 386.8,263.5 387.4,263.4 388.0,263.3 388.7,263.2 389.3,263.4 389.9,263.4 390.5,263.5 391.1,263.5 391.8,263.4 392.4,263.4 393.0,263.4 393.6,263.3 394.2,262.3 394.9,262.4 395.5,262.5 396.1,262.5 396.7,263.0 397.3,262.9 398.0,262.8 398.6,262.7 399.2,261.5 399.8,261.4 400.4,261.2 401.1,261.1 401.7,262.3 402.3,262.4 402.9,262.5 403.5,262.5 404.2,262.0 404.8,262.1 405.4,262.2 406.0,262.2 406.6,258.7 407.3,258.9 407.9,259.1 408.5,259.3 409.1,258.9 409.7,259.1 410.4,259.3 411.0,259.5 411.6,258.0 412.2,258.2 412.8,258.4 413.5,258.6 414.1,262.0 414.7,261.9 415.3,261.9 415.9,261.8 416.6,262.3 417.2,262.2 417.8,262.2 418.4,262.1 419.0,257.2 419.7,257.0 420.3,256.8 420.9,256.7 421.5,239.6 422.1,239.3 422.8,239.1 423.4,238.8 424.0,242.2 424.6,242.0 425.2,241.8 425.9,241.7 426.5,222.4 427.1,222.3 427.7,222.3 428.3,222.2 429.0,211.5 429.6,211.5 430.2,211.6 430.8,211.7 431.4,220.1 432.1,220.2 432.7,220.3 433.3,220.5 433.9,221.9 434.5,222.0 435.2,222.2 435.8,222.4 436.4,217.1 437.0,217.4 437.6,217.7 438.3,218.0 438.9,218.3 439.5,218.7 440.1,219.2 440.7,219.6 441.4,220.3 442.0,220.9 442.6,221.5 443.2,222.1 443.8,194.8 444.5,195.7 445.1,196.7 445.7,197.7 446.3,232.1 446.9,232.7 447.6,233.4 448.2,234.0 448.8,238.9 449.4,239.5 450.0,240.1 450.7,240.7 451.3,235.6 451.9,236.3 452.5,237.0 453.1,237.7 453.8,177.0 454.4,178.6 455.0,180.0 455.6,181.5 456.2,203.4 456.9,204.7 457.5,206.0 458.1,207.2 458.7,217.0 459.3,218.2 460.0,219.2 460.6,220.3 461.2,253.6 461.8,254.1 462.4,254.6 463.1,255.0 463.7,248.0 464.3,248.6 464.9,249.3 465.5,249.9 466.2,253.7 466.8,254.2 467.4,254.6 468.0,255.1 468.6,236.0 469.3,236.9 469.9,237.7 470.5,238.5 471.1,259.7 471.7,260.0 472.4,260.3 473.0,260.6 473.6,259.8 474.2,260.1 474.8,260.4 475.5,260.7 476.1,264.3 476.7,264.3 477.3,264.4 477.9,264.4 478.6,263.2 479.2,263.2 479.8,263.1 480.4,263.0 481.0,259.2 481.7,259.1 482.3,258.9 482.9,258.8 483.5,248.8 484.1,248.6 484.8,248.4 485.4,248.2 486.0,244.9 486.6,244.7 487.2,244.6 487.9,244.6 488.5,251.2 489.1,251.1 489.7,251.1 490.3,251.1 491.0,242.9 491.6,242.9 492.2,242.9 492.8,243.0 493.4,247.6 494.1,247.7 494.7,247.8 495.3,247.9 495.9,216.1 496.5,216.4 497.2,216.7 497.8,217.1 498.4,186.8 499.0,186.8 499.6,186.9 500.3,187.0 500.9,144.2 501.5,144.4 502.1,144.7 502.7,145.0 503.4,164.1 504.0,164.5 504.6,164.9 505.2,165.3 505.8,214.1 506.5,214.5 507.1,214.9 507.7,215.3 508.3,194.5 508.9,195.1 509.6,195.7 510.2,196.3 510.8,248.8 511.4,249.1 512.0,249.4 512.7,249.7 513.3,250.9 513.9,251.2 514.5,251.5 515.1,251.8 515.8,264.3 516.4,264.4 517.0,264.5 517.6,264.7 518.2,269.1 518.9,269.1 519.5,269.1 520.1,269.1 520.7,258.3 521.3,258.0 522.0,257.6 522.6,257.3 523.2,266.7 523.8,266.4 524.4,266.2 525.1,266.0 525.7,273.1 526.3,273.0 526.9,272.9 527.5,272.9 528.2,269.2 528.8,269.0 529.4,268.9 530.0,268.8 530.6,268.7 531.3,268.5 531.9,268.4 532.5,268.3 533.1,264.5 533.7,264.4 534.4,264.2 535.0,264.1 535.6,227.3 536.2,227.1 536.8,226.8 537.5,226.6 538.1,205.9 538.7,205.7 539.3,205.5 539.9,205.3 540.6,170.2 541.2,170.1 541.8,170.1 542.4,170.1 543.0,191.9 543.7,192.0 544.3,192.2 544.9,192.3 545.5,167.0 546.1,167.3 546.8,167.7 547.4,168.1 548.0,151.7 548.6,152.3 549.2,152.9 549.9,153.5 550.5,104.0 551.1,104.8 551.7,105.7 552.3,106.7 553.0,83.8 553.6,85.0 554.2,86.1 554.8,87.1 555.4,168.1 556.1,169.0 556.7,169.9 557.3,170.8 557.9,182.5 558.5,183.4 559.2,184.4 559.8,185.3 560.4,174.6 561.0,175.7 561.6,176.9 562.3,178.1 562.9,157.3 563.5,158.7 564.1,160.1 564.7,161.5 565.4,178.9 566.0,180.2 566.6,181.5 567.2,182.8 567.8,181.5 568.5,182.9 569.1,184.2 569.7,185.6 570.3,188.8 570.9,190.1 571.6,191.4 572.2,192.7 572.8,200.1 573.4,200.8 574.0,201.5 574.7,202.2 575.3,210.6 575.9,210.9 576.5,211.3 577.1,211.6 577.8,211.3 578.4,211.7 579.0,212.1 579.6,212.5 580.2,209.1 580.9,209.2 581.5,209.2 582.1,209.2 582.7,213.5 583.3,213.7 584.0,213.9 584.6,214.1 585.2,209.7 585.8,209.7 586.4,209.7 587.1,209.7 587.7,215.0 588.3,215.1 588.9,215.2 589.5,215.4 590.2,201.6 590.8,201.5 591.4,201.4 592.0,201.2 592.6,204.6 593.3,204.5 593.9,204.5 594.5,204.5 595.1,172.2 595.7,171.9 596.4,171.7 597.0,171.5 597.6,114.7 598.2,114.4 598.8,114.0 599.5,113.8 600.1,152.3 600.7,152.3 601.3,152.2 601.9,152.2 602.6,181.9 603.2,182.0 603.8,182.2 604.4,182.3 605.0,201.0 605.7,201.2 606.3,201.5 606.9,201.7 607.5,185.1 608.1,185.4 608.8,185.7 609.4,186.0 610.0,184.4 610.6,184.8 611.2,185.2 611.9,185.6 612.5,193.2 613.1,193.6 613.7,194.1 614.3,194.5 615.0,186.3 615.6,186.8 616.2,187.3 616.8,187.9 617.4,172.4 618.1,173.1 618.7,173.9 619.3,174.7 619.9,159.8 620.5,160.7 621.2,161.7 621.8,162.7 622.4,196.5 623.0,197.4 623.6,198.3 624.3,199.2 624.9,231.9 625.5,232.6 626.1,233.3 626.7,234.0 627.4,234.2 628.0,234.9 628.6,235.6 629.2,236.3 629.8,246.7 630.5,247.3 631.1,247.8 631.7,248.4 632.3,260.7 632.9,261.0 633.6,261.3 634.2,261.7 634.8,236.7 635.4,237.3 636.0,237.8 636.7,238.4 637.3,248.1 637.9,248.2 638.5,248.3 639.1,248.4 639.8,237.7 640.4,237.4 641.0,237.2 641.6,237.0 642.2,206.5 642.9,205.9 643.5,205.4 644.1,204.9 644.7,236.3 645.3,236.1 646.0,235.9 646.6,235.7 647.2,251.7 647.8,251.4 648.4,251.1 649.1,250.9 649.7,245.3 650.3,245.0 650.9,244.7 651.5,244.5 652.2,231.0 652.8,230.7 653.4,230.4 654.0,230.1 654.6,223.0 655.3,222.7 655.9,222.5 656.5,222.2 657.1,227.7 657.7,227.5 658.4,227.3 659.0,227.1 659.6,227.5 660.2,227.3 660.8,227.2 661.5,227.1 662.1,218.7 662.7,218.6 663.3,218.6 663.9,218.5 664.6,261.7 665.2,261.6 665.8,261.6 666.4,261.6 667.0,268.5 667.7,268.5 668.3,268.5 668.9,268.4 669.5,254.7 670.1,254.6 670.8,254.6 671.4,254.6 672.0,264.4 672.6,264.3 673.2,264.2 673.9,264.1 674.5,265.6 675.1,265.5 675.7,265.4 676.3,265.3 677.0,268.2 677.6,268.1 678.2,267.9 678.8,267.8 679.4,266.6 680.1,266.5 680.7,266.4 681.3,266.3 681.9,267.5 682.5,267.3 683.2,267.2 683.8,267.1 684.4,260.8 685.0,261.0 685.6,261.1 686.3,261.3 686.9,261.8 687.5,261.9 688.1,262.1 688.7,262.2 689.4,262.1 690.0,262.3 690.6,262.4 691.2,262.5 691.8,261.5 692.5,261.6 693.1,261.7 693.7,261.9 694.3,260.5 694.9,260.6 695.6,260.6 696.2,260.7 696.8,266.3 697.4,266.3 698.0,266.3 698.7,266.4 699.3,241.3 699.9,241.2 700.5,241.2 701.1,241.2 701.8,211.0 702.4,211.0 703.0,211.0 703.6,211.1 704.2,254.4 704.9,254.5 705.5,254.6 706.1,254.7 706.7,261.8 707.3,261.9 708.0,262.0 708.6,262.1 709.2,258.9 709.8,259.0 710.4,259.0 711.1,259.0 711.7,264.9 712.3,264.9 712.9,265.0 713.5,265.0 714.2,269.7 714.8,269.7 715.4,269.7 716.0,269.8 716.6,265.2 717.3,265.3 717.9,265.4 718.5,265.4 719.1,268.4 719.7,268.4 720.4,268.4 721.0,268.4 721.6,263.6 722.2,263.8 722.8,263.9 723.5,264.0 724.1,265.4 724.7,265.5 725.3,265.6 725.9,265.7 726.6,261.6 727.2,261.7 727.8,261.8 728.4,261.9 729.0,266.2 729.7,266.3 730.3,266.4 730.9,266.5 731.5,266.6 732.1,266.6 732.8,266.7 733.4,266.8 734.0,242.9 734.6,243.0 735.2,243.1 735.9,243.2 736.5,243.1 737.1,243.2 737.7,243.3 738.3,243.4 739.0,243.4 739.6,243.5 740.2,243.6 740.8,243.7 741.4,242.0 742.1,242.1 742.7,242.2 743.3,242.3 743.9,243.5 744.5,243.6 745.2,243.7 745.8,243.8 746.4,222.5 747.0,222.7 747.6,222.9 748.3,223.0 748.9,220.4 749.5,220.6 750.1,220.7 750.7,220.9 751.4,226.0 752.0,226.2 752.6,226.4 753.2,226.5 753.8,227.3 754.5,227.5 755.1,227.7 755.7,227.8 756.3,219.6 756.9,219.7 757.6,219.9 758.2,220.0 758.8,268.5 759.4,268.5 760.0,268.6 760.7,268.6 761.3,268.7 761.9,268.7 762.5,268.8 763.1,268.8 763.8,268.7 764.4,268.7 765.0,268.7 765.6,268.8 766.2,268.5 766.9,268.5 767.5,268.5 768.1,268.5 768.7,264.9 769.3,264.9 770.0,264.9 770.6,265.0 771.2,270.7 771.8,270.7 772.4,270.7 773.1,270.7 773.7,267.1 774.3,267.0 774.9,267.0 775.5,267.0 776.2,273.5 776.8,273.5 777.4,273.4 778.0,273.4 778.6,245.2 779.3,245.2 779.9,245.2 780.5,245.3 781.1,237.5 781.7,237.6 782.4,237.7 783.0,237.8 783.6,222.5 784.2,222.8 784.8,223.1 785.5,223.4 786.1,240.4 786.7,240.7 787.3,241.0 787.9,241.3 788.6,228.5 789.2,228.9 789.8,229.3 790.4,229.8 791.0,185.5 791.7,186.3 792.3,187.2 792.9,188.0 793.5,218.0 794.1,218.7 794.8,219.5 795.4,220.2 796.0,177.3"/>
<text x="640" y="56" font-family="Arial" font-size="12" fill="#0f766e">ekf_dropout_robust NEES proxy</text>
</svg>