<svg xmlns="http://www.w3.org/2000/svg" width="820" height="320" viewBox="0 0 820 320">
<rect width="100%" height="100%" fill="white"/>
<text x="52" y="30" font-family="Arial" font-size="18" font-weight="700">ekf_high_bias NEES proxy</text>
<line x1="52" y1="274" x2="796" y2="274" stroke="#263238"/>
<line x1="52" y1="42" x2="52" y2="274" stroke="#263238"/>
<text x="52" y="306" font-family="Arial" font-size="12">time (s)</text>
<text x="630" y="306" font-family="Arial" font-size="12">value</text>

<rect x="399.2" y="42" width="99.2" height="232" fill="#fef3c7" opacity="0.72"/>
<polyline fill="none" stroke="#0f766e" stroke-width="2.3" points="52.0,42.7 52.6,42.0 53.2,43.7 53.9,47.4 54.5,44.0 55.1,50.1 55.7,57.9 56.3,66.8 57.0,66.3 57.6,75.2 58.2,84.6 58.8,94.1 59.4,123.3 60.1,132.2 60.7,140.6 61.3,148.6 61.9,157.5 62.5,164.3 63.2,170.7 63.8,176.6 64.4,214.8 65.0,219.0 65.6,222.7 66.3,225.8 66.9,224.9 67.5,227.1 68.1,228.9 68.7,230.5 69.4,227.5 70.0,228.5 70.6,229.4 71.2,230.2 71.8,233.6 72.5,234.1 73.1,234.5 73.7,234.8 74.3,235.6 74.9,235.6 75.6,235.6 76.2,235.5 76.8,222.3 77.4,222.9 78.0,223.3 78.7,223.7 79.3,222.8 79.9,223.0 80.5,223.2 81.1,223.3 81.8,222.8 82.4,222.9 83.0,222.8 83.6,222.8 84.2,213.6 84.9,213.6 85.5,213.7 86.1,213.7 86.7,190.7 87.3,191.1 88.0,191.5 88.6,192.0 89.2,208.9 89.8,211.9 90.4,214.8 91.1,217.6 91.7,236.8 92.3,239.1 92.9,241.2 93.5,243.2 94.2,239.8 94.8,241.8 95.4,243.7 96.0,245.5 96.6,253.9 97.3,255.3 97.9,256.5 98.5,257.7 99.1,252.9 99.7,253.0 100.4,253.2 101.0,253.3 101.6,210.0 102.2,211.3 102.8,212.5 103.5,213.7 104.1,221.1 104.7,222.2 105.3,223.3 105.9,224.4 106.6,212.1 107.2,212.8 107.8,213.5 108.4,214.1 109.0,241.9 109.7,243.0 110.3,244.1 110.9,245.1 111.5,240.4 112.1,241.6 112.8,242.8 113.4,243.9 114.0,221.0 114.6,221.5 115.2,222.0 115.9,222.5 116.5,226.1 117.1,226.4 117.7,226.7 118.3,227.0 119.0,227.4 119.6,227.7 120.2,228.0 120.8,228.2 121.4,226.0 122.1,226.5 122.7,226.9 123.3,227.4 123.9,218.2 124.5,218.8 125.2,219.4 125.8,220.0 126.4,237.8 127.0,237.4 127.6,236.9 128.3,236.5 128.9,245.7 129.5,245.2 130.1,244.6 130.7,244.1 131.4,223.3 132.0,223.2 132.6,223.1 133.2,223.0 133.8,243.2 134.5,242.8 135.1,242.4 135.7,242.0 136.3,240.9 136.9,240.7 137.6,240.5 138.2,240.3 138.8,260.4 139.4,260.0 140.0,259.6 140.7,259.3 141.3,255.6 141.9,255.5 142.5,255.3 143.1,255.2 143.8,253.5 144.4,253.5 145.0,253.4 145.6,253.4 146.2,253.1 146.9,253.1 147.5,253.1 148.1,253.1 148.7,255.5 149.3,255.4 150.0,255.4 150.6,255.3 151.2,274.0 151.8,273.9 152.4,273.8 153.1,273.7 153.7,258.2 154.3,257.8 154.9,257.4 155.5,257.1 156.2,226.9 156.8,226.3 157.4,225.8 158.0,225.3 158.6,216.8 159.3,216.3 159.9,215.8 160.5,215.4 161.1,225.8 161.7,225.4 162.4,225.1 163.0,224.9 163.6,254.7 164.2,254.5 164.8,254.3 165.5,254.1 166.1,264.9 166.7,264.8 167.3,264.7 167.9,264.6 168.6,265.9 169.2,265.8 169.8,265.8 170.4,265.7 171.0,265.7 171.7,265.6 172.3,265.5 172.9,265.5 173.5,265.3 174.1,265.2 174.8,265.1 175.4,265.0 176.0,272.0 176.6,272.0 177.2,271.9 177.9,271.9 178.5,264.9 179.1,264.8 179.7,264.8 180.3,264.8 181.0,244.0 181.6,244.0 182.2,244.0 182.8,244.0 183.4,255.0 184.1,255.0 184.7,255.0 185.3,255.1 185.9,227.9 186.5,228.0 187.2,228.1 187.8,228.3 188.4,152.9 189.0,153.7 189.6,154.6 190.3,155.6 190.9,173.8 191.5,174.7 192.1,175.7 192.7,176.7 193.4,183.8 194.0,184.7 194.6,185.7 195.2,186.7 195.8,119.4 196.5,120.9 197.1,122.3 197.7,123.8 198.3,163.4 198.9,164.8 199.6,166.3 200.2,167.7 200.8,247.2 201.4,247.7 202.0,248.2 202.7,248.7 203.3,256.5 203.9,256.7 204.5,256.9 205.1,257.0 205.8,255.2 206.4,255.5 207.0,255.8 207.6,256.0 208.2,257.6 208.9,257.6 209.5,257.7 210.1,257.7 210.7,258.0 211.3,258.1 212.0,258.1 212.6,258.2 213.2,255.1 213.8,255.2 214.4,255.4 215.1,255.6 215.7,257.9 216.3,258.3 216.9,258.6 217.5,258.9 218.2,250.4 218.8,251.1 219.4,251.7 220.0,252.3 220.6,252.3 221.3,252.9 221.9,253.5 222.5,254.0 223.1,244.5 223.7,245.3 224.4,245.9 225.0,246.6 225.6,214.7 226.2,215.7 226.8,216.6 227.5,217.5 228.1,205.0 228.7,206.1 229.3,207.2 229.9,208.2 230.6,181.0 231.2,182.4 231.8,183.7 232.4,185.0 233.0,117.7 233.7,119.5 234.3,121.4 234.9,123.2 235.5,106.9 236.1,108.9 236.8,111.0 237.4,113.0 238.0,164.9 238.6,166.9 239.2,168.7 239.9,170.6 240.5,205.7 241.1,207.3 241.7,208.9 242.3,210.4 243.0,183.1 243.6,185.0 244.2,186.8 244.8,188.6 245.4,221.9 246.1,223.3 246.7,224.7 247.3,226.1 247.9,220.6 248.5,222.1 249.2,223.6 249.8,224.9 250.4,260.3 251.0,261.0 251.6,261.6 252.3,262.3 252.9,270.5 253.5,270.8 254.1,271.0 254.7,271.2 255.4,270.3 256.0,270.5 256.6,270.6 257.2,270.8 257.8,270.3 258.5,270.5 259.1,270.6 259.7,270.6 260.3,262.0 260.9,262.4 261.6,262.7 262.2,263.0 262.8,269.5 263.4,269.9 264.0,270.2 264.7,270.5 265.3,266.4 265.9,266.0 266.5,265.7 267.1,265.3 267.8,273.5 268.4,273.4 269.0,273.3 269.6,273.2 270.2,270.1 270.9,270.3 271.5,270.4 272.1,270.6 272.7,273.0 273.3,273.0 274.0,273.0 274.6,273.0 275.2,224.8 275.8,224.5 276.4,224.2 277.1,223.9 277.7,214.7 278.3,214.6 278.9,214.5 279.5,214.3 280.2,224.8 280.8,224.3 281.4,223.8 282.0,223.3 282.6,221.6 283.3,221.0 283.9,220.4 284.5,219.9 285.1,220.3 285.7,219.8 286.4,219.3 287.0,218.7 287.6,194.0 288.2,193.1 288.8,192.3 289.5,191.4 290.1,194.0 290.7,193.2 291.3,192.5 291.9,191.8 292.6,204.8 293.2,204.2 293.8,203.6 294.4,203.1 295.0,203.0 295.7,202.5 296.3,201.9 296.9,201.4 297.5,196.3 298.1,195.7 298.8,195.2 299.4,194.6 300.0,263.6 300.6,263.5 301.2,263.4 301.9,263.3 302.5,270.6 303.1,270.6 303.7,270.5 304.3,270.5 305.0,263.1 305.6,263.0 306.2,263.0 306.8,262.9 307.4,264.0 308.1,264.0 308.7,263.9 309.3,263.9 309.9,270.3 310.5,270.2 311.2,270.1 311.8,270.1 312.4,235.7 313.0,235.6 313.6,235.5 314.3,235.5 314.9,230.6 315.5,230.5 316.1,230.4 316.7,230.3 317.4,240.8 318.0,240.7 318.6,240.6 319.2,240.5 319.8,218.6 320.5,218.6 321.1,218.5 321.7,218.5 322.3,229.9 322.9,229.9 323.6,229.7 324.2,229.6 324.8,153.8 325.4,153.9 326.0,154.0 326.7,154.1 327.3,153.8 327.9,154.0 328.5,154.1 329.1,154.4 329.8,161.9 330.4,162.2 331.0,162.6 331.6,162.9 332.2,182.4 332.9,182.8 333.5,183.2 334.1,183.7 334.7,168.0 335.3,168.6 336.0,169.1 336.6,169.7 337.2,95.2 337.8,96.6 338.4,98.1 339.1,99.6 339.7,72.5 340.3,74.1 340.9,75.8 341.5,77.5 342.2,120.8 342.8,122.4 343.4,124.0 344.0,125.5 344.6,111.8 345.3,113.5 345.9,115.2 346.5,116.9 347.1,150.9 347.7,152.5 348.4,154.1 349.0,155.7 349.6,182.4 350.2,184.1 350.8,185.7 351.5,187.3 352.1,207.3 352.7,208.7 353.3,210.2 353.9,211.6 354.6,158.5 355.2,160.5 355.8,162.4 356.4,164.3 357.0,182.9 357.7,184.6 358.3,186.4 358.9,188.1 359.5,181.3 360.1,183.1 360.8,185.0 361.4,186.8 362.0,203.6 362.6,205.3 363.2,207.1 363.9,208.7 364.5,194.5 365.1,196.4 365.7,198.2 366.3,200.1 367.0,229.3 367.6,230.7 368.2,232.0 368.8,233.3 369.4,240.2 370.1,241.4 370.7,242.5 371.3,243.5 371.9,254.9 372.5,255.6 373.2,256.3 373.8,256.9 374.4,230.4 375.0,231.1 375.6,231.7 376.3,232.3 376.9,229.7 377.5,230.3 378.1,231.0 378.7,231.6 379.4,237.0 380.0,237.2 380.6,237.4 381.2,237.6 381.8,232.1 382.5,231.7 383.1,231.2 383.7,230.7 384.3,236.4 384.9,236.7 385.6,237.1 386.2,237.3 386.8,263.6 387.4,263.5 388.0,263.3 388.7,263.2 389.3,263.7 389.9,263.8 390.5,263.8 391.1,263.8 391.8,263.8 392.4,263.8 393.0,263.8 393.6,263.7 394.2,263.0 394.9,263.1 395.5,263.2 396.1,263.3 396.7,263.5 397.3,263.4 398.0,263.2 398.6,263.1 399.2,261.4 399.8,261.3 400.4,261.0 401.1,260.8 401.7,263.2 402.3,263.3 402.9,263.3 403.5,263.3 404.2,263.0 404.8,263.0 405.4,263.1 406.0,263.1 406.6,260.1 407.3,260.3 407.9,260.4 408.5,260.6 409.1,260.2 409.7,260.4 410.4,260.6 411.0,260.8 411.6,259.4 412.2,259.6 412.8,259.8 413.5,260.0 414.1,261.9 414.7,261.8 415.3,261.7 415.9,261.5 416.6,262.3 417.2,262.2 417.8,262.0 418.4,261.9 419.0,255.9 419.7,255.6 420.3,255.3 420.9,255.0 421.5,236.0 422.1,235.5 422.8,235.0 423.4,234.5 424.0,238.2 424.6,237.8 425.2,237.4 425.9,237.1 426.5,215.8 427.1,215.4 427.7,215.1 428.3,214.8 429.0,203.0 429.6,202.7 430.2,202.4 430.8,202.3 431.4,211.4 432.1,211.2 432.7,211.1 433.3,211.0 433.9,212.6 434.5,212.5 435.2,212.4 435.8,212.3 436.4,206.5 437.0,206.5 437.6,206.6 438.3,206.7 438.9,207.2 439.5,207.3 440.1,207.6 440.7,207.8 441.4,208.8 442.0,209.2 442.6,209.6 443.2,210.1 443.8,179.7 444.5,180.4 445.1,181.2 445.7,181.9 446.3,221.3 446.9,221.9 447.6,222.5 448.2,223.1 448.8,229.2 449.4,229.7 450.0,230.3 450.7,230.9 451.3,225.3 451.9,226.0 452.5,226.7 453.1,227.4 453.8,159.3 454.4,160.7 455.0,162.0 455.6,163.4 456.2,188.1 456.9,189.3 457.5,190.5 458.1,191.7 458.7,203.2 459.3,204.3 460.0,205.4 460.6,206.5 461.2,246.6 461.8,247.2 462.4,247.7 463.1,248.3 463.7,239.9 464.3,240.6 464.9,241.3 465.5,242.0 466.2,247.1 466.8,247.7 467.4,248.3 468.0,248.8 468.6,226.5 469.3,227.5 469.9,228.4 470.5,229.3 471.1,255.3 471.7,255.7 472.4,256.1 473.0,256.5 473.6,255.6 474.2,256.0 474.8,256.4 475.5,256.8 476.1,262.4 476.7,262.6 477.3,262.7 477.9,262.8 478.6,262.8 479.2,262.8 479.8,262.7 480.4,262.7 481.0,259.6 481.7,259.3 482.3,259.1 482.9,258.9 483.5,249.5 484.1,249.2 484.8,248.8 485.4,248.5 486.0,244.8 486.6,244.5 487.2,244.2 487.9,243.9 488.5,250.1 489.1,249.8 489.7,249.6 490.3,249.4 491.0,240.8 491.6,240.5 492.2,240.3 492.8,240.2 493.4,244.6 494.1,244.5 494.7,244.4 495.3,244.3 495.9,210.6 496.5,210.5 497.2,210.5 497.8,210.5 498.4,178.0 499.0,177.7 499.6,177.4 500.3,177.2 500.9,131.5 501.5,131.3 502.1,131.1 502.7,131.0 503.4,150.8 504.0,150.8 504.6,150.8 505.2,150.8 505.8,203.6 506.5,203.7 507.1,203.9 507.7,204.1 508.3,181.1 508.9,181.4 509.6,181.7 510.2,182.0 510.8,242.0 511.4,242.2 512.0,242.3 512.7,242.5 513.3,244.1 513.9,244.3 514.5,244.5 515.1,244.6 515.8,260.4 516.4,260.5 517.0,260.6 517.6,260.7 518.2,267.9 518.9,267.9 519.5,268.0 520.1,268.0 520.7,261.8 521.3,261.6 522.0,261.5 522.6,261.3 523.2,269.4 523.8,269.3 524.4,269.2 525.1,269.1 525.7,273.7 526.3,273.7 526.9,273.7 527.5,273.6 528.2,271.4 528.8,271.4 529.4,271.3 530.0,271.3 530.6,271.1 531.3,271.0 531.9,271.0 532.5,270.9 533.1,267.7 533.7,267.7 534.4,267.6 535.0,267.5 535.6,232.2 536.2,232.2 536.8,232.1 537.5,232.1 538.1,212.2 538.7,212.2 539.3,212.1 539.9,212.1 540.6,177.2 541.2,177.2 541.8,177.3 542.4,177.5 543.0,198.5 543.7,198.7 544.3,199.0 544.9,199.3 545.5,173.4 546.1,173.9 546.8,174.3 547.4,174.7 548.0,156.2 548.6,156.8 549.2,157.5 549.9,158.2 550.5,106.6 551.1,107.5 551.7,108.4 552.3,109.4 553.0,85.0 553.6,86.1 554.2,87.2 554.8,88.2 555.4,171.6 556.1,172.5 556.7,173.4 557.3,174.3 557.9,186.1 558.5,187.0 559.2,188.0 559.8,188.9 560.4,175.7 561.0,176.8 561.6,178.0 562.3,179.2 562.9,157.1 563.5,158.5 564.1,159.8 564.7,161.2 565.4,179.4 566.0,180.8 566.6,182.1 567.2,183.3 567.8,181.9 568.5,183.2 569.1,184.6 569.7,186.0 570.3,189.3 570.9,190.6 571.6,191.9 572.2,193.2 572.8,205.6 573.4,206.5 574.0,207.4 574.7,208.3 575.3,218.5 575.9,219.0 576.5,219.5 577.1,220.0 577.8,219.5 578.4,220.0 579.0,220.6 579.6,221.2 580.2,219.1 580.9,219.3 581.5,219.5 582.1,219.7 582.7,223.6 583.3,223.9 584.0,224.2 584.6,224.5 585.2,220.5 585.8,220.6 586.4,220.7 587.1,220.8 587.7,225.8 588.3,226.0 588.9,226.2 589.5,226.4 590.2,213.0 590.8,212.9 591.4,212.8 592.0,212.7 592.6,215.9 593.3,215.9 593.9,215.9 594.5,215.9 595.1,182.5 595.7,182.2 596.4,181.9 597.0,181.7 597.6,119.9 598.2,119.4 598.8,119.0 599.5,118.6 600.1,158.6 600.7,158.4 601.3,158.2 601.9,158.1 602.6,189.0 603.2,189.0 603.8,189.1 604.4,189.1 605.0,208.6 605.7,208.8 606.3,208.9 606.9,209.1 607.5,191.2 608.1,191.4 608.8,191.6 609.4,191.8 610.0,185.5 610.6,185.7 611.2,186.0 611.9,186.3 612.5,194.2 613.1,194.6 613.7,194.9 614.3,195.2 615.0,186.2 615.6,186.6 616.2,187.0 616.8,187.5 617.4,170.6 618.1,171.2 618.7,171.8 619.3,172.4 619.9,156.2 620.5,157.0 621.2,157.8 621.8,158.6 622.4,188.0 623.0,188.7 623.6,189.4 624.3,190.2 624.9,225.8 625.5,226.4 626.1,227.0 626.7,227.6 627.4,227.7 628.0,228.3 628.6,228.8 629.2,229.4 629.8,241.1 630.5,241.5 631.1,242.0 631.7,242.5 632.3,256.5 632.9,256.8 633.6,257.0 634.2,257.3 634.8,237.7 635.4,238.3 636.0,238.8 636.7,239.4 637.3,251.7 637.9,251.9 638.5,252.0 639.1,252.2 639.8,242.5 640.4,242.2 641.0,242.0 641.6,241.8 642.2,210.8 642.9,210.3 643.5,209.7 644.1,209.2 644.7,240.7 645.3,240.5 646.0,240.3 646.6,240.1 647.2,253.7 647.8,253.4 648.4,253.1 649.1,252.8 649.7,246.9 650.3,246.6 650.9,246.2 651.5,245.9 652.2,231.8 652.8,231.4 653.4,231.0 654.0,230.6 654.6,222.9 655.3,222.5 655.9,222.1 656.5,221.7 657.1,227.1 657.7,226.8 658.4,226.4 659.0,226.1 659.6,225.0 660.2,224.7 660.8,224.4 661.5,224.1 662.1,214.9 662.7,214.6 663.3,214.4 663.9,214.1 664.6,259.9 665.2,259.7 665.8,259.6 666.4,259.4 667.0,266.8 667.7,266.7 668.3,266.5 668.9,266.4 669.5,251.4 670.1,251.2 670.8,251.0 671.4,250.9 672.0,260.6 672.6,260.4 673.2,260.2 673.9,260.0 674.5,261.6 675.1,261.4 675.7,261.2 676.3,261.0 677.0,264.2 677.6,264.0 678.2,263.8 678.8,263.6 679.4,262.2 680.1,262.0 680.7,261.8 681.3,261.6 681.9,263.0 682.5,262.8 683.2,262.6 683.8,262.4 684.4,263.8 685.0,263.9 685.6,264.1 686.3,264.2 686.9,264.6 687.5,264.8 688.1,264.9 688.7,265.0 689.4,265.0 690.0,265.1 690.6,265.2 691.2,265.4 691.8,264.4 692.5,264.6 693.1,264.7 693.7,264.8 694.3,262.4 694.9,262.4 695.6,262.5 696.2,262.6 696.8,266.8 697.4,266.8 698.0,266.9 698.7,266.9 699.3,238.4 699.9,238.3 700.5,238.2 701.1,238.2 701.8,204.9 702.4,204.9 703.0,204.8 703.6,204.9 704.2,253.2 704.9,253.2 705.5,253.3 706.1,253.4 706.7,261.5 707.3,261.6 708.0,261.7 708.6,261.7 709.2,255.6 709.8,255.7 710.4,255.7 711.1,255.6 711.7,262.3 712.3,262.3 712.9,262.4 713.5,262.4 714.2,267.8 714.8,267.8 715.4,267.8 716.0,267.8 716.6,262.6 717.3,262.7 717.9,262.8 718.5,262.8 719.1,266.2 719.7,266.2 720.4,266.2 721.0,266.1 721.6,264.3 722.2,264.4 722.8,264.5 723.5,264.7 724.1,266.2 724.7,266.3 725.3,266.3 725.9,266.4 726.6,262.0 727.2,262.1 727.8,262.2 728.4,262.4 729.0,267.0 729.7,267.0 730.3,267.1 730.9,267.2 731.5,267.3 732.1,267.3 732.8,267.4 733.4,267.5 734.0,241.3 734.6,241.4 735.2,241.5 735.9,241.6 736.5,241.4 737.1,241.5 737.7,241.5 738.3,241.6 739.0,241.5 739.6,241.6 740.2,241.7 740.8,241.7 741.4,239.7 742.1,239.8 742.7,239.8 743.3,239.9 743.9,241.3 744.5,241.4 745.2,241.5 745.8,241.5 746.4,220.1 747.0,220.2 747.6,220.4 748.3,220.5 748.9,217.4 749.5,217.5 750.1,217.6 750.7,217.7 751.4,223.8 752.0,223.9 752.6,224.1 753.2,224.2 753.8,225.6 754.5,225.8 755.1,226.0 755.7,226.2 756.3,218.1 756.9,218.3 757.6,218.5 758.2,218.7 758.8,268.4 759.4,268.5 760.0,268.5 760.7,268.6 761.3,268.1 761.9,268.2 762.5,268.2 763.1,268.2 763.8,268.6 764.4,268.7 765.0,268.7 765.6,268.7 766.2,268.5 766.9,268.5 767.5,268.6 768.1,268.6 768.7,265.3 769.3,265.4 770.0,265.4 770.6,265.5 771.2,271.0 771.8,271.0 772.4,271.0 773.1,271.0 773.7,267.5 774.3,267.5 774.9,267.6 775.5,267.6 776.2,273.2 776.8,273.1 777.4,273.1 778.0,273.1 778.6,245.6 779.3,245.7 779.9,245.8 780.5,245.8 781.1,237.8 781.7,237.9 782.4,238.1 783.0,238.3 783.6,223.6 784.2,223.9 784.8,224.3 785.5,224.6 786.1,241.8 786.7,242.2 787.3,242.5 787.9,242.9 788.6,229.5 789.2,230.0 789.8,230.5 790.4,231.0 791.0,184.7 791.7,185.6 792.3,186.5 792.9,187.4 793.5,218.4 794.1,219.2 794.8,220.0 795.4,220.7 796.0,175.8"/>
<text x="640" y="56" font-family="Arial" font-size="12" fill="#0f766e">ekf_high_bias NEES proxy</text>
</svg>