<svg xmlns="http://www.w3.org/2000/svg" width="820" height="320" viewBox="0 0 820 320">
<rect width="100%" height="100%" fill="white"/>
<text x="52" y="30" font-family="Arial" font-size="18" font-weight="700">ekf_nominal NEES proxy</text>
<line x1="52" y1="274" x2="796" y2="274" stroke="#263238"/>
<line x1="52" y1="42" x2="52" y2="274" stroke="#263238"/>
<text x="52" y="306" font-family="Arial" font-size="12">time (s)</text>
<text x="630" y="306" font-family="Arial" font-size="12">value</text>

<rect x="399.2" y="42" width="99.2" height="232" fill="#fef3c7" opacity="0.72"/>
<polyline fill="none" stroke="#0f766e" stroke-width="2.3" points="52.0,43.8 52.6,43.5 53.2,46.2 53.9,51.4 54.5,42.0 55.1,50.0 55.7,60.2 56.3,71.5 57.0,72.0 57.6,81.7 58.2,91.9 58.8,102.1 59.4,139.3 60.1,148.5 60.7,157.0 61.3,165.0 61.9,174.4 62.5,181.0 63.2,187.0 63.8,192.6 64.4,219.8 65.0,223.3 65.6,226.2 66.3,228.5 66.9,225.6 67.5,227.1 68.1,228.2 68.7,229.0 69.4,224.4 70.0,224.9 70.6,225.2 71.2,225.5 71.8,229.1 72.5,229.1 73.1,229.1 73.7,229.0 74.3,228.9 74.9,228.5 75.6,228.1 76.2,227.6 76.8,218.8 77.4,219.1 78.0,219.3 78.7,219.4 79.3,218.7 79.9,218.7 80.5,218.7 81.1,218.6 81.8,218.0 82.4,217.9 83.0,217.8 83.6,217.6 84.2,207.0 84.9,207.0 85.5,207.1 86.1,207.1 86.7,179.4 87.3,179.9 88.0,180.5 88.6,181.1 89.2,203.5 89.8,206.7 90.4,209.8 91.1,212.8 91.7,236.1 92.3,238.5 92.9,240.7 93.5,242.8 94.2,238.5 94.8,240.7 95.4,242.7 96.0,244.6 96.6,254.1 97.3,255.5 97.9,256.8 98.5,258.0 99.1,249.4 99.7,249.4 100.4,249.3 101.0,249.2 101.6,205.0 102.2,206.1 102.8,207.2 103.5,208.3 104.1,217.8 104.7,218.9 105.3,220.0 105.9,221.0 106.6,205.7 107.2,206.3 107.8,206.9 108.4,207.6 109.0,241.7 109.7,242.9 110.3,243.9 110.9,245.0 111.5,238.6 112.1,239.8 112.8,241.1 113.4,242.3 114.0,219.1 114.6,219.8 115.2,220.5 115.9,221.1 116.5,226.5 117.1,226.9 117.7,227.3 118.3,227.8 119.0,228.2 119.6,228.6 120.2,229.1 120.8,229.5 121.4,226.3 122.1,226.9 122.7,227.5 123.3,228.1 123.9,216.6 124.5,217.4 125.2,218.2 125.8,218.9 126.4,233.0 127.0,232.6 127.6,232.2 128.3,231.8 128.9,243.9 129.5,243.3 130.1,242.8 130.7,242.4 131.4,216.5 132.0,216.5 132.6,216.5 133.2,216.4 133.8,242.1 134.5,241.7 135.1,241.3 135.7,240.9 136.3,239.5 136.9,239.3 137.6,239.1 138.2,238.9 138.8,259.4 139.4,259.0 140.0,258.6 140.7,258.2 141.3,252.9 141.9,252.8 142.5,252.6 143.1,252.5 143.8,250.4 144.4,250.4 145.0,250.3 145.6,250.3 146.2,250.0 146.9,250.0 147.5,250.1 148.1,250.1 148.7,253.3 149.3,253.2 150.0,253.2 150.6,253.1 151.2,274.0 151.8,273.9 152.4,273.7 153.1,273.6 153.7,256.2 154.3,255.7 154.9,255.2 155.5,254.7 156.2,219.7 156.8,219.0 157.4,218.3 158.0,217.7 158.6,207.6 159.3,206.9 159.9,206.3 160.5,205.7 161.1,217.6 161.7,217.2 162.4,216.8 163.0,216.4 163.6,252.0 164.2,251.7 164.8,251.4 165.5,251.2 166.1,263.8 166.7,263.6 167.3,263.4 167.9,263.3 168.6,264.8 169.2,264.7 169.8,264.6 170.4,264.5 171.0,264.5 171.7,264.4 172.3,264.2 172.9,264.1 173.5,263.9 174.1,263.8 174.8,263.6 175.4,263.5 176.0,271.8 176.6,271.8 177.2,271.7 177.9,271.6 178.5,263.3 179.1,263.2 179.7,263.1 180.3,263.1 181.0,238.6 181.6,238.5 182.2,238.4 182.8,238.4 183.4,251.3 184.1,251.2 184.7,251.2 185.3,251.2 185.9,219.2 186.5,219.2 187.2,219.3 187.8,219.3 188.4,141.1 189.0,141.9 189.6,142.7 190.3,143.7 190.9,164.3 191.5,165.3 192.1,166.2 192.7,167.2 193.4,175.1 194.0,176.0 194.6,177.0 195.2,177.9 195.8,99.2 196.5,100.6 197.1,102.0 197.7,103.5 198.3,149.1 198.9,150.6 199.6,152.0 200.2,153.5 200.8,243.1 201.4,243.6 202.0,244.1 202.7,244.6 203.3,255.5 203.9,255.7 204.5,255.9 205.1,256.1 205.8,253.1 206.4,253.4 207.0,253.7 207.6,254.0 208.2,257.0 208.9,257.1 209.5,257.2 210.1,257.2 210.7,257.2 211.3,257.3 212.0,257.4 212.6,257.4 213.2,255.9 213.8,256.1 214.4,256.3 215.1,256.4 215.7,257.6 216.3,257.9 216.9,258.3 217.5,258.7 218.2,247.0 218.8,247.7 219.4,248.4 220.0,249.1 220.6,249.1 221.3,249.7 221.9,250.3 222.5,250.9 223.1,239.3 223.7,240.1 224.4,240.9 225.0,241.6 225.6,205.0 226.2,206.1 226.8,207.1 227.5,208.1 228.1,193.2 228.7,194.4 229.3,195.6 229.9,196.8 230.6,164.8 231.2,166.3 231.8,167.7 232.4,169.1 233.0,91.5 233.7,93.4 234.3,95.3 234.9,97.3 235.5,77.7 236.1,79.8 236.8,82.0 237.4,84.1 238.0,140.2 238.6,142.2 239.2,144.2 239.9,146.3 240.5,186.7 241.1,188.5 241.7,190.2 242.3,191.9 243.0,159.6 243.6,161.6 244.2,163.5 244.8,165.4 245.4,204.6 246.1,206.2 246.7,207.7 247.3,209.3 247.9,202.7 248.5,204.4 249.2,206.0 249.8,207.6 250.4,251.3 251.0,252.2 251.6,253.1 252.3,253.9 252.9,266.0 253.5,266.5 254.1,266.9 254.7,267.2 255.4,266.0 256.0,266.3 256.6,266.7 257.2,266.9 257.8,266.5 258.5,266.7 259.1,267.0 259.7,267.2 260.3,254.9 260.9,255.4 261.6,255.8 262.2,256.3 262.8,264.7 263.4,265.2 264.0,265.7 264.7,266.1 265.3,271.0 265.9,270.8 266.5,270.6 267.1,270.3 267.8,273.8 268.4,273.8 269.0,273.9 269.6,273.9 270.2,266.3 270.9,266.5 271.5,266.7 272.1,267.0 272.7,271.4 273.3,271.5 274.0,271.6 274.6,271.6 275.2,220.3 275.8,220.0 276.4,219.7 277.1,219.4 277.7,207.8 278.3,207.7 278.9,207.6 279.5,207.5 280.2,223.4 280.8,223.0 281.4,222.5 282.0,222.0 282.6,221.4 283.3,220.9 283.9,220.3 284.5,219.8 285.1,219.6 285.7,219.1 286.4,218.5 287.0,218.0 287.6,197.4 288.2,196.5 288.8,195.7 289.5,194.8 290.1,196.3 290.7,195.5 291.3,194.7 291.9,193.9 292.6,204.1 293.2,203.5 293.8,202.9 294.4,202.3 295.0,201.9 295.7,201.3 296.3,200.7 296.9,200.1 297.5,195.6 298.1,195.0 298.8,194.3 299.4,193.7 300.0,264.7 300.6,264.5 301.2,264.4 301.9,264.2 302.5,270.6 303.1,270.5 303.7,270.5 304.3,270.4 305.0,263.4 305.6,263.2 306.2,263.1 306.8,263.0 307.4,263.7 308.1,263.7 308.7,263.6 309.3,263.5 309.9,269.7 310.5,269.6 311.2,269.5 311.8,269.4 312.4,239.2 313.0,239.2 313.6,239.2 314.3,239.1 314.9,233.8 315.5,233.8 316.1,233.7 316.7,233.6 317.4,243.0 318.0,242.9 318.6,242.7 319.2,242.6 319.8,220.8 320.5,220.7 321.1,220.6 321.7,220.5 322.3,230.8 322.9,230.6 323.6,230.4 324.2,230.2 324.8,156.0 325.4,155.9 326.0,155.9 326.7,155.8 327.3,153.3 327.9,153.2 328.5,153.1 329.1,153.1 329.8,158.6 330.4,158.7 331.0,158.8 331.6,158.9 332.2,177.2 332.9,177.3 333.5,177.5 334.1,177.7 334.7,160.0 335.3,160.3 336.0,160.6 336.6,160.8 337.2,85.6 337.8,86.7 338.4,87.8 339.1,88.9 339.7,58.0 340.3,59.2 340.9,60.4 341.5,61.7 342.2,104.8 342.8,106.1 343.4,107.2 344.0,108.4 344.6,91.6 345.3,92.8 345.9,94.1 346.5,95.3 347.1,131.0 347.7,132.2 348.4,133.4 349.0,134.7 349.6,160.6 350.2,162.0 350.8,163.3 351.5,164.7 352.1,187.8 352.7,189.0 353.3,190.3 353.9,191.6 354.6,128.9 355.2,130.6 355.8,132.1 356.4,133.7 357.0,154.3 357.7,155.8 358.3,157.2 358.9,158.7 359.5,150.1 360.1,151.6 360.8,153.2 361.4,154.9 362.0,175.6 362.6,177.2 363.2,178.8 363.9,180.4 364.5,162.7 365.1,164.5 365.7,166.2 366.3,167.9 367.0,205.5 367.6,206.9 368.2,208.2 368.8,209.4 369.4,219.8 370.1,221.0 370.7,222.2 371.3,223.3 371.9,243.2 372.5,244.1 373.2,245.0 373.8,245.9 374.4,215.9 375.0,216.7 375.6,217.5 376.3,218.3 376.9,214.1 377.5,215.0 378.1,215.9 378.7,216.8 379.4,229.6 380.0,230.1 380.6,230.6 381.2,231.1 381.8,237.8 382.5,237.7 383.1,237.7 383.7,237.6 384.3,227.2 384.9,227.8 385.6,228.4 386.2,229.0 386.8,260.5 387.4,260.7 388.0,260.9 388.7,261.0 389.3,257.6 389.9,257.9 390.5,258.2 391.1,258.4 391.8,258.8 392.4,259.0 393.0,259.1 393.6,259.3 394.2,255.5 394.9,255.8 395.5,256.1 396.1,256.3 396.7,259.5 397.3,259.6 398.0,259.6 398.6,259.6 399.2,260.5 399.8,260.4 400.4,260.3 401.1,260.1 401.7,256.8 402.3,257.0 402.9,257.0 403.5,257.1 404.2,256.0 404.8,256.1 405.4,256.1 406.0,256.1 406.6,250.5 407.3,250.7 407.9,250.9 408.5,251.1 409.1,250.6 409.7,250.7 410.4,250.9 411.0,251.1 411.6,249.1 412.2,249.3 412.8,249.5 413.5,249.6 414.1,257.0 414.7,256.9 415.3,256.7 415.9,256.6 416.6,256.4 417.2,256.3 417.8,256.1 418.4,255.9 419.0,253.1 419.7,252.7 420.3,252.3 420.9,251.9 421.5,237.7 422.1,236.9 422.8,236.2 423.4,235.5 424.0,236.8 424.6,236.1 425.2,235.4 425.9,234.8 426.5,215.6 427.1,214.7 427.7,213.9 428.3,213.1 429.0,200.4 429.6,199.5 430.2,198.6 430.8,197.8 431.4,203.3 432.1,202.5 432.7,201.8 433.3,201.0 433.9,200.2 434.5,199.4 435.2,198.6 435.8,197.8 436.4,190.0 437.0,189.2 437.6,188.5 438.3,187.8 438.9,186.0 439.5,185.4 440.1,184.8 440.7,184.3 441.4,183.3 442.0,182.9 442.6,182.5 443.2,182.2 443.8,149.0 444.5,148.8 445.1,148.6 445.7,148.4 446.3,188.0 446.9,187.9 447.6,187.9 448.2,187.8 448.8,194.0 449.4,193.9 450.0,193.9 450.7,194.0 451.3,186.8 451.9,186.9 452.5,187.1 453.1,187.2 453.8,110.9 454.4,111.2 455.0,111.5 455.6,111.7 456.2,136.0 456.9,136.2 457.5,136.6 458.1,136.9 458.7,148.7 459.3,149.0 460.0,149.3 460.6,149.7 461.2,201.3 461.8,201.6 462.4,201.8 463.1,202.1 463.7,190.3 464.3,190.7 464.9,191.1 465.5,191.4 466.2,199.5 466.8,199.9 467.4,200.2 468.0,200.5 468.6,169.6 469.3,170.0 469.9,170.5 470.5,171.0 471.1,210.4 471.7,210.7 472.4,211.0 473.0,211.4 473.6,210.7 474.2,211.0 474.8,211.2 475.5,211.5 476.1,226.9 476.7,227.0 477.3,227.2 477.9,227.3 478.6,235.7 479.2,235.8 479.8,235.9 480.4,236.0 481.0,240.2 481.7,240.2 482.3,240.2 482.9,240.2 483.5,240.9 484.1,240.8 484.8,240.7 485.4,240.5 486.0,239.1 486.6,238.9 487.2,238.8 487.9,238.6 488.5,239.6 489.1,239.5 489.7,239.3 490.3,239.2 491.0,235.4 491.6,235.2 492.2,235.0 492.8,234.8 493.4,235.6 494.1,235.5 494.7,235.4 495.3,235.2 495.9,215.3 496.5,215.0 497.2,214.8 497.8,214.6 498.4,190.1 499.0,189.7 499.6,189.4 500.3,189.2 500.9,151.6 501.5,151.3 502.1,151.0 502.7,150.7 503.4,159.6 504.0,159.3 504.6,159.0 505.2,158.8 505.8,194.9 506.5,194.8 507.1,194.6 507.7,194.5 508.3,173.1 508.9,173.0 509.6,172.9 510.2,172.7 510.8,238.1 511.4,237.9 512.0,237.7 512.7,237.6 513.3,237.7 513.9,237.5 514.5,237.3 515.1,237.1 515.8,250.3 516.4,250.1 517.0,250.0 517.6,249.8 518.2,256.6 518.9,256.5 519.5,256.3 520.1,256.2 520.7,253.7 521.3,253.5 522.0,253.4 522.6,253.2 523.2,266.5 523.8,266.3 524.4,266.2 525.1,266.1 525.7,268.3 526.3,268.2 526.9,268.1 527.5,268.0 528.2,267.1 528.8,267.0 529.4,266.9 530.0,266.8 530.6,266.5 531.3,266.4 531.9,266.3 532.5,266.2 533.1,264.0 533.7,263.9 534.4,263.8 535.0,263.7 535.6,221.6 536.2,221.4 536.8,221.1 537.5,220.9 538.1,204.3 538.7,204.1 539.3,203.9 539.9,203.7 540.6,173.2 541.2,173.1 541.8,173.0 542.4,173.0 543.0,188.1 543.7,188.1 544.3,188.2 544.9,188.2 545.5,164.1 546.1,164.2 546.8,164.4 547.4,164.6 548.0,146.9 548.6,147.2 549.2,147.5 549.9,147.9 550.5,98.3 551.1,98.8 551.7,99.3 552.3,99.8 553.0,72.9 553.6,73.5 554.2,74.0 554.8,74.5 555.4,146.8 556.1,147.1 556.7,147.5 557.3,147.9 557.9,156.7 558.5,157.1 559.2,157.5 559.8,158.0 560.4,146.1 561.0,146.7 561.6,147.3 562.3,147.9 562.9,123.7 563.5,124.5 564.1,125.2 564.7,126.0 565.4,141.6 566.0,142.3 566.6,143.1 567.2,143.8 567.8,140.2 568.5,141.0 569.1,141.8 569.7,142.6 570.3,144.2 570.9,145.0 571.6,145.8 572.2,146.5 572.8,159.4 573.4,159.6 574.0,159.8 574.7,160.1 575.3,176.3 575.9,176.2 576.5,176.2 577.1,176.1 577.8,173.6 578.4,173.7 579.0,173.7 579.6,173.8 580.2,179.8 580.9,179.5 581.5,179.3 582.1,179.0 582.7,178.4 583.3,178.3 584.0,178.1 584.6,178.0 585.2,177.6 585.8,177.3 586.4,177.1 587.1,176.8 587.7,177.5 588.3,177.3 588.9,177.2 589.5,177.0 590.2,170.4 590.8,169.9 591.4,169.5 592.0,169.1 592.6,170.1 593.3,169.8 593.9,169.5 594.5,169.2 595.1,143.7 595.7,143.1 596.4,142.5 597.0,142.0 597.6,94.9 598.2,94.1 598.8,93.2 599.5,92.3 600.1,121.4 600.7,120.7 601.3,120.0 601.9,119.3 602.6,142.5 603.2,142.0 603.8,141.4 604.4,140.9 605.0,155.7 605.7,155.3 606.3,154.9 606.9,154.6 607.5,136.8 608.1,136.4 608.8,136.0 609.4,135.7 610.0,153.6 610.6,153.3 611.2,153.1 611.9,152.9 612.5,158.4 613.1,158.2 613.7,158.1 614.3,157.9 615.0,147.8 615.6,147.7 616.2,147.6 616.8,147.6 617.4,129.5 618.1,129.6 618.7,129.7 619.3,129.9 619.9,111.9 620.5,112.1 621.2,112.4 621.8,112.7 622.4,165.3 623.0,165.8 623.6,166.3 624.3,166.8 624.9,201.6 625.5,202.0 626.1,202.5 626.7,202.9 627.4,202.3 628.0,202.8 628.6,203.3 629.2,203.8 629.8,216.1 630.5,216.6 631.1,217.0 631.7,217.4 632.3,234.2 632.9,234.5 633.6,234.8 634.2,235.1 634.8,194.2 635.4,194.6 636.0,195.0 636.7,195.5 637.3,215.5 637.9,215.7 638.5,215.9 639.1,216.1 639.8,215.5 640.4,215.5 641.0,215.4 641.6,215.4 642.2,194.7 642.9,194.4 643.5,194.1 644.1,193.9 644.7,214.0 645.3,214.0 646.0,213.9 646.6,213.9 647.2,240.9 647.8,240.8 648.4,240.7 649.1,240.7 649.7,236.3 650.3,236.2 650.9,236.1 651.5,236.0 652.2,224.9 652.8,224.7 653.4,224.5 654.0,224.4 654.6,217.1 655.3,216.9 655.9,216.7 656.5,216.5 657.1,219.2 657.7,219.1 658.4,218.9 659.0,218.7 659.6,223.5 660.2,223.3 660.8,223.2 661.5,223.0 662.1,213.5 662.7,213.4 663.3,213.2 663.9,213.0 664.6,251.0 665.2,250.9 665.8,250.8 666.4,250.8 667.0,256.8 667.7,256.8 668.3,256.8 668.9,256.7 669.5,243.2 670.1,243.0 670.8,242.9 671.4,242.9 672.0,264.8 672.6,264.8 673.2,264.7 673.9,264.7 674.5,266.3 675.1,266.3 675.7,266.2 676.3,266.2 677.0,269.7 677.6,269.7 678.2,269.7 678.8,269.7 679.4,268.3 680.1,268.3 680.7,268.3 681.3,268.3 681.9,270.1 682.5,270.1 683.2,270.1 683.8,270.1 684.4,238.1 685.0,238.3 685.6,238.4 686.3,238.6 686.9,238.7 687.5,238.8 688.1,239.0 688.7,239.1 689.4,239.4 690.0,239.5 690.6,239.7 691.2,239.8 691.8,239.7 692.5,239.9 693.1,240.0 693.7,240.2 694.3,235.0 694.9,235.0 695.6,235.0 696.2,235.0 696.8,245.0 697.4,245.0 698.0,244.9 698.7,244.8 699.3,213.2 699.9,212.8 700.5,212.5 701.1,212.3 701.8,176.9 702.4,176.5 703.0,176.2 703.6,175.9 704.2,226.5 704.9,226.4 705.5,226.3 706.1,226.3 706.7,235.9 707.3,235.9 708.0,235.8 708.6,235.8 709.2,242.8 709.8,242.8 710.4,242.7 711.1,242.6 711.7,251.4 712.3,251.3 712.9,251.3 713.5,251.3 714.2,260.1 714.8,260.1 715.4,260.2 716.0,260.3 716.6,252.3 717.3,252.3 717.9,252.4 718.5,252.5 719.1,258.0 719.7,258.0 720.4,258.0 721.0,257.9 721.6,245.7 722.2,245.8 722.8,245.9 723.5,246.0 724.1,249.9 724.7,250.0 725.3,250.1 725.9,250.2 726.6,241.5 727.2,241.6 727.8,241.6 728.4,241.6 729.0,252.7 729.7,252.8 730.3,252.9 730.9,252.9 731.5,252.8 732.1,252.8 732.8,252.9 733.4,253.0 734.0,239.6 734.6,239.6 735.2,239.7 735.9,239.8 736.5,241.8 737.1,241.9 737.7,242.1 738.3,242.2 739.0,242.8 739.6,242.9 740.2,243.0 740.8,243.2 741.4,244.1 742.1,244.2 742.7,244.4 743.3,244.5 743.9,244.5 744.5,244.7 745.2,244.8 745.8,244.9 746.4,226.7 747.0,226.9 747.6,227.0 748.3,227.2 748.9,226.4 749.5,226.6 750.1,226.7 750.7,226.9 751.4,228.0 752.0,228.1 752.6,228.3 753.2,228.5 753.8,225.3 754.5,225.5 755.1,225.6 755.7,225.8 756.3,212.4 756.9,212.4 757.6,212.5 758.2,212.6 758.8,263.5 759.4,263.5 760.0,263.6 760.7,263.7 761.3,266.0 761.9,266.1 762.5,266.1 763.1,266.2 763.8,263.7 764.4,263.7 765.0,263.8 765.6,263.8 766.2,263.2 766.9,263.3 767.5,263.3 768.1,263.3 768.7,257.4 769.3,257.4 770.0,257.5 770.6,257.6 771.2,264.9 771.8,264.9 772.4,265.0 773.1,265.0 773.7,260.1 774.3,260.1 774.9,260.2 775.5,260.2 776.2,270.5 776.8,270.5 777.4,270.5 778.0,270.5 778.6,233.9 779.3,233.9 779.9,233.9 780.5,233.9 781.1,224.5 781.7,224.6 782.4,224.7 783.0,224.7 783.6,203.6 784.2,203.8 784.8,204.0 785.5,204.3 786.1,223.0 786.7,223.2 787.3,223.5 787.9,223.8 788.6,208.4 789.2,208.7 789.8,209.1 790.4,209.5 791.0,158.6 791.7,159.3 792.3,160.1 792.9,160.8 793.5,193.3 794.1,194.0 794.8,194.7 795.4,195.4 796.0,147.5"/>
<text x="640" y="56" font-family="Arial" font-size="12" fill="#0f766e">ekf_nominal NEES proxy</text>
</svg>