<svg xmlns="http://www.w3.org/2000/svg" width="820" height="320" viewBox="0 0 820 320">
<rect width="100%" height="100%" fill="white"/>
<text x="52" y="30" font-family="Arial" font-size="18" font-weight="700">ekf_aggressive NEES proxy</text>
<line x1="52" y1="274" x2="796" y2="274" stroke="#263238"/>
<line x1="52" y1="42" x2="52" y2="274" stroke="#263238"/>
<text x="52" y="306" font-family="Arial" font-size="12">time (s)</text>
<text x="630" y="306" font-family="Arial" font-size="12">value</text>

<rect x="399.2" y="42" width="99.2" height="232" fill="#fef3c7" opacity="0.72"/>
<polyline fill="none" stroke="#0f766e" stroke-width="2.3" points="52.0,77.2 52.6,78.1 53.2,83.4 53.9,92.1 54.5,70.4 55.1,82.8 55.7,97.3 56.3,112.0 57.0,112.6 57.6,121.4 58.2,130.4 58.8,139.1 59.4,190.1 60.1,197.5 60.7,204.1 61.3,210.0 61.9,218.8 62.5,223.4 63.2,227.5 63.8,231.2 64.4,231.0 65.0,232.5 65.6,233.4 66.3,233.9 66.9,227.3 67.5,227.1 68.1,226.8 68.7,226.3 69.4,219.4 70.0,218.8 70.6,218.3 71.2,217.7 71.8,221.7 72.5,221.2 73.1,220.6 73.7,220.1 74.3,217.1 74.9,215.9 75.6,214.7 76.2,213.6 76.8,216.9 77.4,216.8 78.0,216.7 78.7,216.6 79.3,217.0 79.9,216.8 80.5,216.7 81.1,216.6 81.8,215.9 82.4,215.8 83.0,215.7 83.6,215.6 84.2,202.9 84.9,203.1 85.5,203.3 86.1,203.5 86.7,167.9 87.3,168.8 88.0,169.7 88.6,170.7 89.2,197.1 89.8,200.4 90.4,203.6 91.1,206.7 91.7,237.6 92.3,240.0 92.9,242.1 93.5,244.1 94.2,238.4 94.8,240.6 95.4,242.7 96.0,244.6 96.6,255.7 97.3,257.0 97.9,258.2 98.5,259.3 99.1,244.2 99.7,243.8 100.4,243.4 101.0,243.0 101.6,204.0 102.2,204.8 102.8,205.6 103.5,206.4 104.1,219.2 104.7,220.1 105.3,221.0 105.9,221.9 106.6,202.5 107.2,202.9 107.8,203.4 108.4,203.9 109.0,246.2 109.7,247.2 110.3,248.3 110.9,249.2 111.5,239.5 112.1,240.8 112.8,242.0 113.4,243.1 114.0,224.8 114.6,225.8 115.2,226.8 115.9,227.8 116.5,236.4 117.1,237.2 117.7,237.8 118.3,238.5 119.0,239.1 119.6,239.8 120.2,240.4 120.8,241.0 121.4,236.0 122.1,236.8 122.7,237.5 123.3,238.3 123.9,223.3 124.5,224.2 125.2,225.1 125.8,226.0 126.4,227.7 127.0,227.3 127.6,227.0 128.3,226.6 128.9,243.4 129.5,242.9 130.1,242.4 130.7,241.9 131.4,208.5 132.0,208.5 132.6,208.6 133.2,208.6 133.8,242.8 134.5,242.4 135.1,242.0 135.7,241.6 136.3,239.6 136.9,239.4 137.6,239.2 138.2,239.0 138.8,258.5 139.4,258.0 140.0,257.5 140.7,257.1 141.3,249.0 141.9,248.8 142.5,248.7 143.1,248.5 143.8,245.8 144.4,245.8 145.0,245.8 145.6,245.7 146.2,245.5 146.9,245.5 147.5,245.6 148.1,245.6 148.7,250.2 149.3,250.1 150.0,250.0 150.6,249.9 151.2,273.9 151.8,273.7 152.4,273.5 153.1,273.2 153.7,253.9 154.3,253.3 154.9,252.6 155.5,252.1 156.2,210.9 156.8,210.0 157.4,209.2 158.0,208.4 158.6,196.1 159.3,195.3 159.9,194.5 160.5,193.8 161.1,207.5 161.7,206.9 162.4,206.3 163.0,205.9 163.6,249.7 164.2,249.3 164.8,249.0 165.5,248.7 166.1,263.3 166.7,263.1 167.3,262.8 167.9,262.6 168.6,264.1 169.2,264.0 169.8,263.8 170.4,263.6 171.0,263.6 171.7,263.5 172.3,263.3 172.9,263.2 173.5,263.0 174.1,262.8 174.8,262.7 175.4,262.5 176.0,272.1 176.6,272.0 177.2,271.9 177.9,271.8 178.5,262.0 179.1,261.8 179.7,261.7 180.3,261.6 181.0,232.4 181.6,232.3 182.2,232.2 182.8,232.1 183.4,247.3 184.1,247.2 184.7,247.1 185.3,247.1 185.9,208.9 186.5,208.9 187.2,208.9 187.8,209.0 188.4,134.5 189.0,135.2 189.6,136.0 190.3,136.9 190.9,160.6 191.5,161.5 192.1,162.4 192.7,163.3 193.4,172.2 194.0,173.1 194.6,173.9 195.2,174.8 195.8,81.4 196.5,82.8 197.1,84.2 197.7,85.6 198.3,139.1 198.9,140.5 199.6,142.0 200.2,143.5 200.8,241.8 201.4,242.3 202.0,242.9 202.7,243.4 203.3,257.3 203.9,257.5 204.5,257.7 205.1,257.8 205.8,253.7 206.4,254.0 207.0,254.3 207.6,254.6 208.2,258.9 208.9,259.0 209.5,259.0 210.1,259.1 210.7,258.8 211.3,258.9 212.0,259.0 212.6,259.1 213.2,259.1 213.8,259.2 214.4,259.4 215.1,259.5 215.7,259.9 216.3,260.3 216.9,260.6 217.5,261.0 218.2,246.1 218.8,246.8 219.4,247.6 220.0,248.3 220.6,248.2 221.3,248.9 221.9,249.5 222.5,250.2 223.1,236.0 223.7,236.9 224.4,237.7 225.0,238.6 225.6,197.1 226.2,198.3 226.8,199.5 227.5,200.6 228.1,182.4 228.7,183.8 229.3,185.2 229.9,186.6 230.6,147.9 231.2,149.6 231.8,151.2 232.4,152.8 233.0,59.7 233.7,61.9 234.3,64.1 234.9,66.3 235.5,42.7 236.1,45.1 236.8,47.6 237.4,50.0 238.0,108.9 238.6,111.2 239.2,113.5 239.9,115.8 240.5,164.6 241.1,166.6 241.7,168.6 242.3,170.6 243.0,131.6 243.6,133.9 244.2,136.1 244.8,138.3 245.4,185.8 246.1,187.7 246.7,189.5 247.3,191.3 247.9,183.4 248.5,185.4 249.2,187.4 249.8,189.2 250.4,243.2 251.0,244.3 251.6,245.3 252.3,246.3 252.9,262.2 253.5,262.9 254.1,263.4 254.7,264.0 255.4,262.4 256.0,263.0 256.6,263.4 257.2,263.9 257.8,263.4 258.5,263.9 259.1,264.2 259.7,264.6 260.3,248.8 260.9,249.5 261.6,250.1 262.2,250.6 262.8,259.7 263.4,260.4 264.0,261.0 264.7,261.5 265.3,273.5 265.9,273.4 266.5,273.2 267.1,273.0 267.8,273.7 268.4,273.8 269.0,273.9 269.6,274.0 270.2,262.4 270.9,262.7 271.5,263.1 272.1,263.4 272.7,269.9 273.3,270.0 274.0,270.2 274.6,270.3 275.2,222.9 275.8,222.7 276.4,222.5 277.1,222.4 277.7,208.2 278.3,208.2 278.9,208.3 279.5,208.3 280.2,229.4 280.8,229.0 281.4,228.6 282.0,228.2 282.6,228.4 283.3,227.9 283.9,227.5 284.5,227.0 285.1,226.6 285.7,226.2 286.4,225.7 287.0,225.3 287.6,207.3 288.2,206.4 288.8,205.6 289.5,204.8 290.1,206.1 290.7,205.3 291.3,204.6 291.9,203.9 292.6,213.5 293.2,213.0 293.8,212.4 294.4,211.9 295.0,211.5 295.7,211.0 296.3,210.4 296.9,209.9 297.5,205.5 298.1,204.8 298.8,204.2 299.4,203.6 300.0,265.4 300.6,265.2 301.2,264.9 301.9,264.7 302.5,271.5 303.1,271.4 303.7,271.3 304.3,271.2 305.0,263.6 305.6,263.4 306.2,263.2 306.8,263.1 307.4,263.8 308.1,263.7 308.7,263.6 309.3,263.5 309.9,270.6 310.5,270.5 311.2,270.4 311.8,270.4 312.4,242.8 313.0,242.9 313.6,242.9 314.3,242.9 314.9,237.1 315.5,237.0 316.1,237.0 316.7,237.0 317.4,246.3 318.0,246.2 318.6,246.1 319.2,246.0 319.8,222.8 320.5,222.8 321.1,222.7 321.7,222.7 322.3,233.0 322.9,232.8 323.6,232.6 324.2,232.4 324.8,156.3 325.4,156.2 326.0,156.1 326.7,155.9 327.3,151.9 327.9,151.7 328.5,151.5 329.1,151.4 329.8,156.1 330.4,156.1 331.0,156.0 331.6,156.0 332.2,174.8 332.9,174.8 333.5,174.9 334.1,175.0 334.7,154.6 335.3,154.8 336.0,154.9 336.6,155.0 337.2,75.6 337.8,76.5 338.4,77.3 339.1,78.2 339.7,42.0 340.3,42.8 340.9,43.8 341.5,44.7 342.2,91.0 342.8,92.0 343.4,92.9 344.0,93.7 344.6,73.3 345.3,74.2 345.9,75.1 346.5,76.0 347.1,115.1 347.7,116.0 348.4,116.9 349.0,117.9 349.6,143.9 350.2,145.0 350.8,146.1 351.5,147.2 352.1,173.4 352.7,174.5 353.3,175.6 353.9,176.7 354.6,103.0 355.2,104.3 355.8,105.7 356.4,107.0 357.0,130.0 357.7,131.2 358.3,132.4 358.9,133.6 359.5,122.8 360.1,124.1 360.8,125.5 361.4,127.0 362.0,154.0 362.6,155.5 363.2,157.1 363.9,158.5 364.5,137.0 365.1,138.6 365.7,140.2 366.3,141.8 367.0,186.8 367.6,188.1 368.2,189.3 368.8,190.5 369.4,203.3 370.1,204.5 370.7,205.7 371.3,206.8 371.9,232.8 372.5,233.8 373.2,234.8 373.8,235.8 374.4,207.4 375.0,208.4 375.6,209.3 376.3,210.3 376.9,204.9 377.5,205.9 378.1,207.0 378.7,208.0 379.4,226.1 380.0,226.8 380.6,227.5 381.2,228.1 381.8,242.4 382.5,242.5 383.1,242.7 383.7,242.8 384.3,222.9 384.9,223.8 385.6,224.6 386.2,225.4 386.8,258.2 387.4,258.6 388.0,259.0 388.7,259.3 389.3,253.5 389.9,254.0 390.5,254.5 391.1,255.0 391.8,255.8 392.4,256.2 393.0,256.5 393.6,256.8 394.2,251.1 394.9,251.6 395.5,252.1 396.1,252.5 396.7,258.1 397.3,258.3 398.0,258.5 398.6,258.7 399.2,261.5 399.8,261.5 400.4,261.5 401.1,261.4 401.7,254.6 402.3,254.9 402.9,255.1 403.5,255.2 404.2,253.7 404.8,253.9 405.4,254.0 406.0,254.2 406.6,246.4 407.3,246.7 407.9,247.0 408.5,247.3 409.1,246.8 409.7,247.1 410.4,247.4 411.0,247.6 411.6,245.2 412.2,245.5 412.8,245.8 413.5,246.0 414.1,258.0 414.7,257.9 415.3,257.8 415.9,257.7 416.6,257.2 417.2,257.2 417.8,257.1 418.4,257.0 419.0,256.2 419.7,255.8 420.3,255.5 420.9,255.1 421.5,242.9 422.1,242.1 422.8,241.3 423.4,240.5 424.0,241.1 424.6,240.3 425.2,239.6 425.9,238.8 426.5,219.6 427.1,218.6 427.7,217.6 428.3,216.6 429.0,202.8 429.6,201.7 430.2,200.5 430.8,199.4 431.4,203.7 432.1,202.6 432.7,201.5 433.3,200.4 433.9,198.4 434.5,197.2 435.2,196.1 435.8,194.9 436.4,185.4 437.0,184.2 437.6,183.0 438.3,181.9 438.9,178.8 439.5,177.7 440.1,176.6 440.7,175.7 441.4,173.3 442.0,172.4 442.6,171.6 443.2,170.9 443.8,133.3 444.5,132.5 445.1,131.8 445.7,131.1 446.3,173.6 446.9,173.1 447.6,172.6 448.2,172.1 448.8,178.3 449.4,177.9 450.0,177.5 450.7,177.1 451.3,168.1 451.9,167.9 452.5,167.6 453.1,167.4 453.8,79.8 454.4,79.5 455.0,79.0 455.6,78.6 456.2,104.4 456.9,104.1 457.5,103.8 458.1,103.6 458.7,116.0 459.3,115.7 460.0,115.4 460.6,115.2 461.2,176.7 461.8,176.6 462.4,176.5 463.1,176.5 463.7,161.6 464.3,161.7 464.9,161.7 465.5,161.7 466.2,171.8 466.8,171.8 467.4,171.8 468.0,171.7 468.6,133.1 469.3,133.1 469.9,133.1 470.5,133.2 471.1,183.4 471.7,183.4 472.4,183.5 473.0,183.7 473.6,183.0 474.2,183.0 474.8,183.0 475.5,183.1 476.1,205.4 476.7,205.4 477.3,205.3 477.9,205.3 478.6,219.6 479.2,219.6 479.8,219.7 480.4,219.7 481.0,229.2 481.7,229.2 482.3,229.2 482.9,229.2 483.5,236.9 484.1,236.9 484.8,236.8 485.4,236.7 486.0,237.9 486.6,237.8 487.2,237.7 487.9,237.6 488.5,237.0 489.1,236.9 489.7,236.8 490.3,236.7 491.0,236.9 491.6,236.8 492.2,236.7 492.8,236.5 493.4,236.5 494.1,236.4 494.7,236.2 495.3,236.1 495.9,225.1 496.5,224.9 497.2,224.7 497.8,224.6 498.4,205.2 499.0,205.0 499.6,204.8 500.3,204.6 500.9,171.6 501.5,171.4 502.1,171.1 502.7,170.9 503.4,176.2 504.0,175.9 504.6,175.6 505.2,175.4 505.8,204.4 506.5,204.2 507.1,204.0 507.7,203.9 508.3,184.0 508.9,183.8 509.6,183.6 510.2,183.4 510.8,244.4 511.4,244.2 512.0,244.0 512.7,243.7 513.3,243.1 513.9,242.8 514.5,242.6 515.1,242.3 515.8,252.3 516.4,252.1 517.0,251.9 517.6,251.7 518.2,256.1 518.9,255.9 519.5,255.7 520.1,255.5 520.7,248.3 521.3,248.2 522.0,248.0 522.6,247.9 523.2,262.7 523.8,262.6 524.4,262.5 525.1,262.4 525.7,267.2 526.3,267.0 526.9,266.9 527.5,266.8 528.2,264.4 528.8,264.3 529.4,264.3 530.0,264.2 530.6,263.9 531.3,263.8 531.9,263.7 532.5,263.6 533.1,260.6 533.7,260.5 534.4,260.5 535.0,260.4 535.6,219.5 536.2,219.4 536.8,219.2 537.5,218.9 538.1,200.0 538.7,199.9 539.3,199.7 539.9,199.6 540.6,165.7 541.2,165.7 541.8,165.7 542.4,165.8 543.0,181.9 543.7,182.1 544.3,182.2 544.9,182.3 545.5,155.5 546.1,155.8 546.8,156.1 547.4,156.3 548.0,134.2 548.6,134.7 549.2,135.1 549.9,135.6 550.5,80.4 551.1,80.9 551.7,81.5 552.3,82.2 553.0,51.3 553.6,52.0 554.2,52.5 554.8,53.0 555.4,131.4 556.1,131.7 556.7,132.1 557.3,132.4 557.9,141.6 558.5,142.0 559.2,142.5 559.8,142.9 560.4,126.8 561.0,127.3 561.6,127.9 562.3,128.5 562.9,100.3 563.5,101.1 564.1,101.8 564.7,102.5 565.4,119.5 566.0,120.2 566.6,120.8 567.2,121.5 567.8,116.8 568.5,117.5 569.1,118.2 569.7,119.0 570.3,120.2 570.9,121.0 571.6,121.6 572.2,122.2 572.8,148.2 573.4,148.4 574.0,148.5 574.7,148.7 575.3,172.2 575.9,172.1 576.5,172.0 577.1,171.9 577.8,168.2 578.4,168.2 579.0,168.2 579.6,168.3 580.2,181.7 580.9,181.5 581.5,181.2 582.1,181.0 582.7,177.5 583.3,177.3 584.0,177.2 584.6,177.0 585.2,180.1 585.8,179.8 586.4,179.5 587.1,179.2 587.7,177.3 588.3,177.2 588.9,177.0 589.5,176.9 590.2,175.6 590.8,175.1 591.4,174.6 592.0,174.2 592.6,174.4 593.3,173.9 593.9,173.6 594.5,173.2 595.1,152.3 595.7,151.6 596.4,150.9 597.0,150.2 597.6,106.9 598.2,105.8 598.8,104.7 599.5,103.5 600.1,128.9 600.7,127.9 601.3,126.9 601.9,125.9 602.6,146.2 603.2,145.4 603.8,144.5 604.4,143.7 605.0,156.4 605.7,155.7 606.3,155.1 606.9,154.5 607.5,136.3 608.1,135.5 608.8,134.8 609.4,134.1 610.0,156.9 610.6,156.3 611.2,155.8 611.9,155.2 612.5,159.4 613.1,158.9 613.7,158.4 614.3,157.9 615.0,146.7 615.6,146.2 616.2,145.7 616.8,145.3 617.4,125.8 618.1,125.4 618.7,125.0 619.3,124.8 619.9,104.8 620.5,104.5 621.2,104.3 621.8,104.2 622.4,154.6 623.0,154.8 623.6,154.9 624.3,155.0 624.9,190.2 625.5,190.3 626.1,190.5 626.7,190.6 627.4,189.0 628.0,189.2 628.6,189.3 629.2,189.5 629.8,202.1 630.5,202.2 631.1,202.4 631.7,202.5 632.3,220.6 632.9,220.7 633.6,220.8 634.2,220.9 634.8,179.7 635.4,179.8 636.0,180.0 636.7,180.1 637.3,204.5 637.9,204.5 638.5,204.5 639.1,204.5 639.8,207.6 640.4,207.4 641.0,207.3 641.6,207.1 642.2,189.4 642.9,189.1 643.5,188.8 644.1,188.5 644.7,205.3 645.3,205.2 646.0,205.0 646.6,204.9 647.2,233.2 647.8,233.1 648.4,232.9 649.1,232.8 649.7,229.1 650.3,228.9 650.9,228.8 651.5,228.6 652.2,218.7 652.8,218.4 653.4,218.1 654.0,217.9 654.6,210.6 655.3,210.3 655.9,210.0 656.5,209.7 657.1,211.5 657.7,211.3 658.4,211.0 659.0,210.7 659.6,216.9 660.2,216.6 660.8,216.3 661.5,216.1 662.1,205.9 662.7,205.6 663.3,205.3 663.9,205.0 664.6,240.9 665.2,240.7 665.8,240.6 666.4,240.4 667.0,245.7 667.7,245.5 668.3,245.4 668.9,245.2 669.5,231.8 670.1,231.6 670.8,231.3 671.4,231.1 672.0,257.5 672.6,257.4 673.2,257.3 673.9,257.2 674.5,258.6 675.1,258.5 675.7,258.4 676.3,258.3 677.0,261.6 677.6,261.5 678.2,261.5 678.8,261.4 679.4,260.0 680.1,259.9 680.7,259.8 681.3,259.7 681.9,261.6 682.5,261.5 683.2,261.4 683.8,261.4 684.4,225.2 685.0,225.2 685.6,225.2 686.3,225.3 686.9,225.2 687.5,225.2 688.1,225.2 688.7,225.2 689.4,225.5 690.0,225.5 690.6,225.5 691.2,225.5 691.8,225.5 692.5,225.6 693.1,225.6 693.7,225.7 694.3,219.1 694.9,218.9 695.6,218.7 696.2,218.5 696.8,228.8 697.4,228.6 698.0,228.3 698.7,228.0 699.3,191.0 699.9,190.3 700.5,189.7 701.1,189.1 701.8,148.8 702.4,148.0 703.0,147.2 703.6,146.6 704.2,203.4 704.9,203.0 705.5,202.6 706.1,202.3 706.7,213.6 707.3,213.3 708.0,213.0 708.6,212.7 709.2,223.1 709.8,222.8 710.4,222.4 711.1,222.1 711.7,232.9 712.3,232.6 712.9,232.3 713.5,232.1 714.2,243.7 714.8,243.6 715.4,243.5 716.0,243.5 716.6,232.7 717.3,232.7 717.9,232.6 718.5,232.4 719.1,239.7 719.7,239.6 720.4,239.4 721.0,239.1 721.6,227.8 722.2,227.7 722.8,227.6 723.5,227.5 724.1,233.2 724.7,233.1 725.3,233.0 725.9,232.9 726.6,220.6 727.2,220.4 727.8,220.2 728.4,220.0 729.0,236.2 729.7,236.1 730.3,236.0 730.9,235.9 731.5,235.6 732.1,235.4 732.8,235.3 733.4,235.2 734.0,229.4 734.6,229.3 735.2,229.1 735.9,229.1 736.5,232.8 737.1,232.8 737.7,232.8 738.3,232.8 739.0,234.0 739.6,234.0 740.2,234.0 740.8,234.1 741.4,237.4 742.1,237.4 742.7,237.5 743.3,237.5 743.9,236.7 744.5,236.7 745.2,236.8 745.8,236.8 746.4,224.4 747.0,224.5 747.6,224.6 748.3,224.6 748.9,225.9 749.5,225.9 750.1,226.0 750.7,226.1 751.4,223.7 752.0,223.8 752.6,223.8 753.2,223.9 753.8,216.8 754.5,216.8 755.1,216.9 755.7,216.8 756.3,197.3 756.9,197.1 757.6,197.0 758.2,196.9 758.8,250.9 759.4,250.8 760.0,250.8 760.7,250.8 761.3,255.9 761.9,255.9 762.5,255.9 763.1,255.9 763.8,250.7 764.4,250.7 765.0,250.6 765.6,250.6 766.2,249.7 766.9,249.7 767.5,249.6 768.1,249.6 768.7,240.6 769.3,240.6 770.0,240.5 770.6,240.5 771.2,249.6 771.8,249.5 772.4,249.5 773.1,249.5 773.7,242.7 774.3,242.6 774.9,242.6 775.5,242.5 776.2,258.3 776.8,258.3 777.4,258.2 778.0,258.2 778.6,209.0 779.3,208.9 779.9,208.8 780.5,208.6 781.1,197.1 781.7,197.0 782.4,197.0 783.0,196.9 783.6,172.5 784.2,172.6 784.8,172.7 785.5,172.8 786.1,195.0 786.7,195.2 787.3,195.4 787.9,195.6 788.6,176.8 789.2,177.1 789.8,177.4 790.4,177.7 791.0,117.5 791.7,118.1 792.3,118.8 792.9,119.4 793.5,157.0 794.1,157.6 794.8,158.2 795.4,158.8 796.0,107.0"/>
<text x="640" y="56" font-family="Arial" font-size="12" fill="#0f766e">ekf_aggressive NEES proxy</text>
</svg>