<svg xmlns="http://www.w3.org/2000/svg" width="820" height="320" viewBox="0 0 820 320">
<rect width="100%" height="100%" fill="white"/>
<text x="52" y="30" font-family="Arial" font-size="18" font-weight="700">ekf_conservative position error</text>
<line x1="52" y1="274" x2="796" y2="274" stroke="#263238"/>
<line x1="52" y1="42" x2="52" y2="274" stroke="#263238"/>
<text x="52" y="306" font-family="Arial" font-size="12">time (s)</text>
<text x="630" y="306" font-family="Arial" font-size="12">m</text>

<rect x="399.2" y="42" width="99.2" height="232" fill="#fef3c7" opacity="0.72"/>
<polyline fill="none" stroke="#0f766e" stroke-width="2.3" points="52.0,59.9 52.6,58.8 53.2,57.8 53.9,56.7 54.5,56.9 55.1,56.0 55.7,55.1 56.3,54.2 57.0,52.2 57.6,51.1 58.2,50.0 58.8,48.8 59.4,48.9 60.1,47.8 60.7,46.7 61.3,45.6 61.9,45.2 62.5,44.1 63.2,43.1 63.8,42.0 64.4,137.1 65.0,136.1 65.6,135.0 66.3,134.0 66.9,133.5 67.5,132.4 68.1,131.4 68.7,130.4 69.4,129.6 70.0,128.7 70.6,127.7 71.2,126.7 71.8,125.7 72.5,124.7 73.1,123.7 73.7,122.6 74.3,121.0 74.9,119.9 75.6,118.9 76.2,117.8 76.8,149.9 77.4,149.7 78.0,149.4 78.7,149.2 79.3,149.9 79.9,149.7 80.5,149.5 81.1,149.3 81.8,149.8 82.4,149.7 83.0,149.5 83.6,149.4 84.2,150.7 84.9,150.7 85.5,150.7 86.1,150.7 86.7,151.7 87.3,151.8 88.0,151.9 88.6,152.1 89.2,133.6 89.8,133.3 90.4,133.1 91.1,132.8 91.7,132.5 92.3,132.2 92.9,131.9 93.5,131.7 94.2,131.8 94.8,131.6 95.4,131.4 96.0,131.2 96.6,130.9 97.3,130.7 97.9,130.5 98.5,130.3 99.1,129.3 99.7,129.1 100.4,128.9 101.0,128.7 101.6,134.5 102.2,134.7 102.8,135.0 103.5,135.3 104.1,135.8 104.7,136.1 105.3,136.5 105.9,136.8 106.6,136.8 107.2,137.1 107.8,137.4 108.4,137.8 109.0,139.3 109.7,139.7 110.3,140.1 110.9,140.5 111.5,141.1 112.1,141.5 112.8,142.0 113.4,142.4 114.0,163.6 114.6,163.5 115.2,163.4 115.9,163.4 116.5,163.4 117.1,163.3 117.7,163.3 118.3,163.3 119.0,163.2 119.6,163.2 120.2,163.1 120.8,163.1 121.4,162.8 122.1,162.7 122.7,162.7 123.3,162.6 123.9,162.1 124.5,161.9 125.2,161.7 125.8,161.5 126.4,212.3 127.0,212.5 127.6,212.7 128.3,212.8 128.9,213.2 129.5,213.4 130.1,213.5 130.7,213.7 131.4,213.1 132.0,213.2 132.6,213.3 133.2,213.4 133.8,214.5 134.5,214.6 135.1,214.7 135.7,214.8 136.3,214.9 136.9,214.9 137.6,215.0 138.2,215.0 138.8,219.5 139.4,219.7 140.0,219.8 140.7,220.0 141.3,219.3 141.9,219.4 142.5,219.4 143.1,219.5 143.8,219.8 144.4,219.8 145.0,219.8 145.6,219.8 146.2,220.5 146.9,220.5 147.5,220.5 148.1,220.5 148.7,222.2 149.3,222.3 150.0,222.3 150.6,222.4 151.2,221.4 151.8,221.7 152.4,222.0 153.1,222.2 153.7,223.9 154.3,224.3 154.9,224.7 155.5,225.1 156.2,225.6 156.8,226.0 157.4,226.4 158.0,226.9 158.6,227.0 159.3,227.5 159.9,227.9 160.5,228.3 161.1,228.8 161.7,229.2 162.4,229.7 163.0,230.1 163.6,233.3 164.2,233.6 164.8,233.8 165.5,234.0 166.1,233.8 166.7,234.0 167.3,234.2 167.9,234.4 168.6,233.7 169.2,233.8 169.8,234.0 170.4,234.1 171.0,234.7 171.7,234.9 172.3,235.0 172.9,235.2 173.5,236.5 174.1,236.7 174.8,236.9 175.4,237.1 176.0,236.9 176.6,237.0 177.2,237.0 177.9,237.1 178.5,238.0 179.1,238.2 179.7,238.3 180.3,238.4 181.0,238.6 181.6,238.7 182.2,238.8 182.8,238.9 183.4,239.2 184.1,239.2 184.7,239.3 185.3,239.4 185.9,238.7 186.5,238.8 187.2,238.9 187.8,239.0 188.4,255.4 189.0,255.0 189.6,254.7 190.3,254.3 190.9,255.7 191.5,255.3 192.1,255.0 192.7,254.6 193.4,254.7 194.0,254.3 194.6,253.9 195.2,253.5 195.8,246.5 196.5,246.1 197.1,245.6 197.7,245.2 198.3,248.5 198.9,248.0 199.6,247.6 200.2,247.1 200.8,263.0 201.4,263.1 202.0,263.2 202.7,263.3 203.3,264.0 203.9,264.0 204.5,264.0 205.1,264.0 205.8,264.3 206.4,264.3 207.0,264.4 207.6,264.4 208.2,263.8 208.9,263.7 209.5,263.6 210.1,263.5 210.7,263.9 211.3,263.8 212.0,263.6 212.6,263.5 213.2,272.1 213.8,271.8 214.4,271.5 215.1,271.2 215.7,274.0 216.3,273.9 216.9,273.8 217.5,273.6 218.2,268.4 218.8,268.4 219.4,268.5 220.0,268.6 220.6,268.5 221.3,268.5 221.9,268.6 222.5,268.6 223.1,265.2 223.7,265.2 224.4,265.2 225.0,265.2 225.6,254.3 226.2,254.2 226.8,254.1 227.5,254.0 228.1,252.3 228.7,252.2 229.3,252.1 229.9,252.0 230.6,248.7 231.2,248.5 231.8,248.4 232.4,248.2 233.0,241.3 233.7,241.0 234.3,240.8 234.9,240.5 235.5,239.5 236.1,239.2 236.8,239.0 237.4,238.7 238.0,238.6 238.6,238.2 239.2,237.8 239.9,237.4 240.5,242.2 241.1,241.9 241.7,241.6 242.3,241.3 243.0,238.7 243.6,238.4 244.2,238.0 244.8,237.7 245.4,242.7 246.1,242.4 246.7,242.2 247.3,241.9 247.9,241.8 248.5,241.6 249.2,241.3 249.8,241.1 250.4,250.3 251.0,250.0 251.6,249.8 252.3,249.5 252.9,251.2 253.5,250.9 254.1,250.6 254.7,250.3 255.4,249.9 256.0,249.5 256.6,249.2 257.2,248.8 257.8,248.5 258.5,248.1 259.1,247.8 259.7,247.4 260.3,245.5 260.9,245.2 261.6,244.8 262.2,244.4 262.8,237.2 263.4,236.8 264.0,236.3 264.7,235.9 265.3,235.7 265.9,235.2 266.5,234.7 267.1,234.2 267.8,234.0 268.4,233.6 269.0,233.1 269.6,232.6 270.2,231.7 270.9,231.3 271.5,230.8 272.1,230.4 272.7,230.1 273.3,229.7 274.0,229.2 274.6,228.7 275.2,218.1 275.8,217.4 276.4,216.6 277.1,215.8 277.7,214.5 278.3,213.7 278.9,212.9 279.5,212.1 280.2,212.1 280.8,211.2 281.4,210.4 282.0,209.6 282.6,208.7 283.3,207.8 283.9,207.0 284.5,206.1 285.1,205.2 285.7,204.4 286.4,203.5 287.0,202.6 287.6,208.7 288.2,207.9 288.8,207.1 289.5,206.3 290.1,205.6 290.7,204.8 291.3,204.0 291.9,203.2 292.6,202.6 293.2,201.8 293.8,201.0 294.4,200.2 295.0,199.4 295.7,198.6 296.3,197.7 296.9,196.9 297.5,196.0 298.1,195.1 298.8,194.3 299.4,193.4 300.0,197.3 300.6,196.4 301.2,195.6 301.9,194.8 302.5,193.9 303.1,193.1 303.7,192.2 304.3,191.4 305.0,190.5 305.6,189.6 306.2,188.8 306.8,187.9 307.4,187.0 308.1,186.1 308.7,185.2 309.3,184.3 309.9,183.1 310.5,182.1 311.2,181.2 311.8,180.3 312.4,206.9 313.0,206.3 313.6,205.6 314.3,205.0 314.9,204.2 315.5,203.6 316.1,202.9 316.7,202.3 317.4,202.0 318.0,201.4 318.6,200.7 319.2,200.1 319.8,198.8 320.5,198.1 321.1,197.4 321.7,196.8 322.3,196.5 322.9,195.8 323.6,195.2 324.2,194.5 324.8,194.5 325.4,193.9 326.0,193.3 326.7,192.6 327.3,192.0 327.9,191.3 328.5,190.7 329.1,190.0 329.8,189.6 330.4,188.9 331.0,188.3 331.6,187.6 332.2,187.4 332.9,186.8 333.5,186.1 334.1,185.5 334.7,184.5 335.3,183.8 336.0,183.1 336.6,182.5 337.2,161.4 337.8,160.7 338.4,160.0 339.1,159.2 339.7,158.0 340.3,157.3 340.9,156.5 341.5,155.8 342.2,156.2 342.8,155.4 343.4,154.6 344.0,153.9 344.6,152.9 345.3,152.1 345.9,151.4 346.5,150.6 347.1,150.8 347.7,150.0 348.4,149.3 349.0,148.5 349.6,161.5 350.2,160.9 350.8,160.2 351.5,159.6 352.1,159.2 352.7,158.5 353.3,157.9 353.9,157.2 354.6,155.6 355.2,154.9 355.8,154.3 356.4,153.6 357.0,153.2 357.7,152.4 358.3,151.7 358.9,151.0 359.5,150.1 360.1,149.4 360.8,148.6 361.4,147.9 362.0,158.9 362.6,158.2 363.2,157.4 363.9,156.7 364.5,155.6 365.1,154.9 365.7,154.1 366.3,153.3 367.0,153.2 367.6,152.5 368.2,151.7 368.8,150.9 369.4,150.3 370.1,149.6 370.7,148.8 371.3,148.0 371.9,147.5 372.5,146.7 373.2,145.8 373.8,145.0 374.4,192.0 375.0,191.7 375.6,191.4 376.3,191.1 376.9,190.7 377.5,190.4 378.1,190.1 378.7,189.8 379.4,189.7 380.0,189.4 380.6,189.1 381.2,188.8 381.8,188.4 382.5,188.0 383.1,187.7 383.7,187.3 384.3,187.0 384.9,186.6 385.6,186.3 386.2,185.9 386.8,189.9 387.4,189.4 388.0,189.0 388.7,188.6 389.3,188.0 389.9,187.5 390.5,187.0 391.1,186.5 391.8,186.1 392.4,185.6 393.0,185.1 393.6,184.6 394.2,184.0 394.9,183.6 395.5,183.1 396.1,182.6 396.7,182.3 397.3,181.8 398.0,181.3 398.6,180.8 399.2,180.4 399.8,179.9 400.4,179.5 401.1,179.0 401.7,178.3 402.3,177.9 402.9,177.4 403.5,176.9 404.2,176.4 404.8,176.0 405.4,175.5 406.0,175.0 406.6,174.3 407.3,173.9 407.9,173.4 408.5,172.9 409.1,172.4 409.7,172.0 410.4,171.5 411.0,171.0 411.6,170.5 412.2,170.0 412.8,169.6 413.5,169.1 414.1,169.0 414.7,168.5 415.3,168.0 415.9,167.6 416.6,167.1 417.2,166.6 417.8,166.1 418.4,165.6 419.0,165.0 419.7,164.5 420.3,164.0 420.9,163.5 421.5,162.5 422.1,162.0 422.8,161.5 423.4,160.9 424.0,160.6 424.6,160.1 425.2,159.5 425.9,159.0 426.5,157.9 427.1,157.4 427.7,156.8 428.3,156.3 429.0,155.5 429.6,155.0 430.2,154.4 430.8,153.9 431.4,153.8 432.1,153.2 432.7,152.7 433.3,152.1 433.9,151.8 434.5,151.2 435.2,150.7 435.8,150.1 436.4,149.5 437.0,149.0 437.6,148.4 438.3,147.9 438.9,147.5 439.5,147.0 440.1,146.4 440.7,145.8 441.4,145.5 442.0,145.0 442.6,144.4 443.2,143.8 443.8,142.4 444.5,141.9 445.1,141.2 445.7,140.7 446.3,141.7 446.9,141.2 447.6,140.6 448.2,140.1 448.8,139.9 449.4,139.3 450.0,138.8 450.7,138.2 451.3,137.6 451.9,137.1 452.5,136.5 453.1,135.9 453.8,133.2 454.4,132.6 455.0,132.0 455.6,131.4 456.2,132.0 456.9,131.5 457.5,130.9 458.1,130.3 458.7,130.5 459.3,129.9 460.0,129.4 460.6,128.8 461.2,130.1 461.8,129.6 462.4,129.1 463.1,128.5 463.7,127.8 464.3,127.3 464.9,126.7 465.5,126.2 466.2,126.0 466.8,125.5 467.4,124.9 468.0,124.3 468.6,123.1 469.3,122.5 469.9,121.9 470.5,121.3 471.1,121.9 471.7,121.4 472.4,120.8 473.0,120.2 473.6,119.7 474.2,119.1 474.8,118.6 475.5,118.0 476.1,117.8 476.7,117.2 477.3,116.6 477.9,116.0 478.6,115.6 479.2,115.0 479.8,114.4 480.4,113.8 481.0,113.2 481.7,112.6 482.3,112.0 482.9,111.3 483.5,110.6 484.1,110.0 484.8,109.3 485.4,108.7 486.0,108.0 486.6,107.3 487.2,106.7 487.9,106.0 488.5,105.5 489.1,104.8 489.7,104.2 490.3,103.5 491.0,102.7 491.6,102.0 492.2,101.4 492.8,100.7 493.4,100.1 494.1,99.4 494.7,98.7 495.3,98.0 495.9,96.7 496.5,96.0 497.2,95.3 497.8,94.6 498.4,93.3 499.0,92.6 499.6,91.9 500.3,91.1 500.9,89.6 501.5,88.8 502.1,88.1 502.7,87.3 503.4,87.2 504.0,86.5 504.6,85.8 505.2,85.0 505.8,85.6 506.5,84.9 507.1,84.1 507.7,83.4 508.3,82.3 508.9,81.6 509.6,80.8 510.2,80.1 510.8,120.0 511.4,119.2 512.0,118.3 512.7,117.5 513.3,116.6 513.9,115.8 514.5,114.9 515.1,114.0 515.8,113.2 516.4,112.3 517.0,111.4 517.6,110.5 518.2,109.6 518.9,108.6 519.5,107.7 520.1,106.8 520.7,105.4 521.3,104.5 522.0,103.6 522.6,102.6 523.2,193.9 523.8,193.6 524.4,193.2 525.1,192.9 525.7,193.1 526.3,192.7 526.9,192.4 527.5,192.1 528.2,191.5 528.8,191.2 529.4,190.8 530.0,190.4 530.6,190.1 531.3,189.7 531.9,189.4 532.5,189.0 533.1,188.5 533.7,188.1 534.4,187.7 535.0,187.4 535.6,244.9 536.2,244.6 536.8,244.3 537.5,244.0 538.1,242.1 538.7,241.7 539.3,241.4 539.9,241.1 540.6,238.2 541.2,237.8 541.8,237.4 542.4,237.1 543.0,238.6 543.7,238.3 544.3,237.9 544.9,237.6 545.5,235.5 546.1,235.2 546.8,234.8 547.4,234.5 548.0,248.4 548.6,248.2 549.2,248.0 549.9,247.8 550.5,243.6 551.1,243.4 551.7,243.1 552.3,242.9 553.0,241.1 553.6,240.8 554.2,240.5 554.8,240.2 555.4,247.1 556.1,246.9 556.7,246.8 557.3,246.6 557.9,247.6 558.5,247.5 559.2,247.3 559.8,247.2 560.4,249.3 561.0,249.2 561.6,249.0 562.3,248.8 562.9,246.8 563.5,246.6 564.1,246.4 564.7,246.2 565.4,248.3 566.0,248.1 566.6,248.0 567.2,247.8 567.8,247.9 568.5,247.8 569.1,247.6 569.7,247.5 570.3,248.1 570.9,248.0 571.6,247.8 572.2,247.7 572.8,221.4 573.4,221.3 574.0,221.1 574.7,220.9 575.3,222.0 575.9,221.8 576.5,221.6 577.1,221.5 577.8,221.2 578.4,221.0 579.0,220.8 579.6,220.7 580.2,221.2 580.9,221.0 581.5,220.9 582.1,220.7 582.7,220.4 583.3,220.2 584.0,220.1 584.6,219.9 585.2,219.9 585.8,219.7 586.4,219.6 587.1,219.4 587.7,219.2 588.3,219.0 588.9,218.9 589.5,218.8 590.2,218.5 590.8,218.3 591.4,218.2 592.0,218.0 592.6,218.0 593.3,217.8 593.9,217.7 594.5,217.6 595.1,216.2 595.7,216.1 596.4,215.9 597.0,215.7 597.6,202.3 598.2,201.8 598.8,201.3 599.5,200.8 600.1,201.4 600.7,200.9 601.3,200.4 601.9,199.9 602.6,200.3 603.2,199.8 603.8,199.2 604.4,198.7 605.0,198.7 605.7,198.2 606.3,197.7 606.9,197.2 607.5,196.2 608.1,195.7 608.8,195.2 609.4,194.7 610.0,182.3 610.6,181.7 611.2,181.2 611.9,180.6 612.5,180.4 613.1,179.8 613.7,179.3 614.3,178.7 615.0,178.0 615.6,177.4 616.2,176.9 616.8,176.3 617.4,175.3 618.1,174.8 618.7,174.2 619.3,173.7 619.9,172.8 620.5,172.3 621.2,171.7 621.8,171.2 622.4,215.9 623.0,215.7 623.6,215.4 624.3,215.2 624.9,217.9 625.5,217.8 626.1,217.6 626.7,217.4 627.4,217.7 628.0,217.5 628.6,217.4 629.2,217.2 629.8,218.4 630.5,218.3 631.1,218.1 631.7,218.0 632.3,219.6 632.9,219.4 633.6,219.3 634.2,219.2 634.8,244.5 635.4,244.6 636.0,244.7 636.7,244.8 637.3,247.9 637.9,248.1 638.5,248.3 639.1,248.5 639.8,249.3 640.4,249.4 641.0,249.6 641.6,249.8 642.2,248.0 642.9,248.1 643.5,248.2 644.1,248.3 644.7,250.6 645.3,250.7 646.0,250.9 646.6,251.1 647.2,260.7 647.8,260.6 648.4,260.6 649.1,260.5 649.7,259.7 650.3,259.6 650.9,259.5 651.5,259.3 652.2,257.3 652.8,257.1 653.4,256.9 654.0,256.6 654.6,255.6 655.3,255.3 655.9,255.1 656.5,254.8 657.1,255.7 657.7,255.4 658.4,255.1 659.0,254.8 659.6,256.1 660.2,255.9 660.8,255.8 661.5,255.7 662.1,254.8 662.7,254.7 663.3,254.5 663.9,254.3 664.6,256.0 665.2,255.8 665.8,255.6 666.4,255.4 667.0,255.0 667.7,254.7 668.3,254.5 668.9,254.2 669.5,254.0 670.1,253.7 670.8,253.4 671.4,253.0 672.0,264.3 672.6,264.2 673.2,264.1 673.9,264.0 674.5,263.8 675.1,263.7 675.7,263.5 676.3,263.4 677.0,262.8 677.6,262.6 678.2,262.5 678.8,262.3 679.4,262.6 680.1,262.4 680.7,262.3 681.3,262.2 681.9,261.7 682.5,261.6 683.2,261.4 683.8,261.2 684.4,255.7 685.0,255.8 685.6,255.9 686.3,256.0 686.9,256.8 687.5,257.0 688.1,257.1 688.7,257.3 689.4,257.4 690.0,257.5 690.6,257.7 691.2,257.8 691.8,257.4 692.5,257.6 693.1,257.7 693.7,257.8 694.3,260.1 694.9,260.3 695.6,260.5 696.2,260.6 696.8,266.0 697.4,265.6 698.0,265.1 698.7,264.7 699.3,263.2 699.9,262.7 700.5,262.2 701.1,261.7 701.8,257.8 702.4,257.3 703.0,256.8 703.6,256.3 704.2,260.2 704.9,259.6 705.5,259.1 706.1,258.6 706.7,258.5 707.3,257.9 708.0,257.4 708.6,256.8 709.2,238.4 709.8,238.0 710.4,237.6 711.1,237.2 711.7,236.7 712.3,236.3 712.9,235.9 713.5,235.5 714.2,234.9 714.8,234.4 715.4,234.0 716.0,233.6 716.6,233.6 717.3,233.2 717.9,232.8 718.5,232.3 719.1,231.8 719.7,231.4 720.4,230.9 721.0,230.5 721.6,241.7 722.2,241.6 722.8,241.5 723.5,241.3 724.1,241.1 724.7,240.9 725.3,240.8 725.9,240.6 726.6,240.6 727.2,240.5 727.8,240.4 728.4,240.2 729.0,239.9 729.7,239.8 730.3,239.7 730.9,239.6 731.5,239.5 732.1,239.4 732.8,239.3 733.4,239.2 734.0,240.1 734.6,240.2 735.2,240.2 735.9,240.3 736.5,240.2 737.1,240.2 737.7,240.3 738.3,240.3 739.0,240.4 739.6,240.4 740.2,240.4 740.8,240.5 741.4,240.2 742.1,240.2 742.7,240.2 743.3,240.2 743.9,240.6 744.5,240.6 745.2,240.6 745.8,240.6 746.4,222.7 747.0,222.6 747.6,222.5 748.3,222.4 748.9,222.1 749.5,222.0 750.1,221.9 750.7,221.8 751.4,222.0 752.0,221.9 752.6,221.8 753.2,221.6 753.8,221.6 754.5,221.5 755.1,221.4 755.7,221.3 756.3,220.7 756.9,220.5 757.6,220.4 758.2,220.3 758.8,249.9 759.4,249.9 760.0,249.9 760.7,249.9 761.3,250.3 761.9,250.3 762.5,250.4 763.1,250.4 763.8,250.1 764.4,250.1 765.0,250.0 765.6,250.0 766.2,250.0 766.9,249.9 767.5,249.9 768.1,249.9 768.7,249.1 769.3,249.0 770.0,248.9 770.6,248.8 771.2,265.3 771.8,265.2 772.4,265.1 773.1,265.0 773.7,263.7 774.3,263.5 774.9,263.3 775.5,263.1 776.2,266.8 776.8,266.7 777.4,266.6 778.0,266.4 778.6,257.2 779.3,256.9 779.9,256.6 780.5,256.3 781.1,255.2 781.7,254.8 782.4,254.5 783.0,254.2 783.6,250.3 784.2,249.9 784.8,249.6 785.5,249.3 786.1,252.7 786.7,252.4 787.3,252.1 787.9,251.8 788.6,250.1 789.2,249.8 789.8,249.4 790.4,249.1 791.0,243.5 791.7,243.1 792.3,242.7 792.9,242.3 793.5,247.2 794.1,246.8 794.8,246.5 795.4,246.1 796.0,232.2"/>
<text x="640" y="56" font-family="Arial" font-size="12" fill="#0f766e">ekf_conservative position error</text>
</svg>