<svg xmlns="http://www.w3.org/2000/svg" width="820" height="320" viewBox="0 0 820 320">
<rect width="100%" height="100%" fill="white"/>
<text x="52" y="30" font-family="Arial" font-size="18" font-weight="700">ekf_nominal residuals</text>
<line x1="52" y1="274" x2="796" y2="274" stroke="#263238"/>
<line x1="52" y1="42" x2="52" y2="274" stroke="#263238"/>
<text x="52" y="306" font-family="Arial" font-size="12">time (s)</text>
<text x="630" y="306" font-family="Arial" font-size="12">norm</text>

<polyline fill="none" stroke="#0f766e" stroke-width="2.3" points="52.0,261.4 52.0,258.1 54.5,268.7 57.0,263.7 59.4,267.8 61.9,271.4 64.4,237.7 64.4,271.5 66.9,272.3 69.4,273.7 71.8,272.4 74.3,267.7 76.8,256.7 76.8,272.8 79.3,272.4 81.8,273.9 84.2,271.3 86.7,271.2 89.2,242.8 89.2,273.8 91.7,269.8 94.2,273.5 96.6,271.3 99.1,268.3 101.6,271.5 101.6,273.3 104.1,271.6 106.6,272.7 109.0,266.0 111.5,269.3 114.0,248.3 114.0,273.8 116.5,270.8 119.0,273.7 121.4,271.2 123.9,271.5 126.4,267.0 126.4,273.5 128.9,270.2 131.4,269.2 133.8,266.5 136.3,272.9 138.8,254.9 138.8,273.7 141.3,270.8 143.8,273.7 146.2,273.7 148.7,272.1 151.2,267.2 151.2,271.6 153.7,268.9 156.2,270.2 158.6,273.7 161.1,271.4 163.6,267.4 163.6,267.2 166.1,269.5 168.6,270.3 171.0,273.8 173.5,272.2 176.0,269.2 176.0,273.3 178.5,271.0 181.0,269.9 183.4,271.0 185.9,270.1 188.4,253.7 188.4,272.5 190.9,270.7 193.4,272.1 195.8,267.7 198.3,268.6 200.8,254.4 200.8,263.8 203.3,269.1 205.8,271.8 208.2,271.0 210.7,273.1 213.2,266.2 213.2,272.0 215.7,270.3 218.2,268.4 220.6,273.8 223.1,271.5 225.6,260.9 225.6,269.6 228.1,272.5 230.6,271.0 233.0,268.0 235.5,274.0 238.0,262.5 238.0,270.4 240.5,268.9 243.0,271.8 245.4,268.8 247.9,274.0 250.4,271.3 250.4,266.5 252.9,270.4 255.4,273.7 257.8,274.0 260.3,270.4 262.8,258.2 262.8,273.2 265.3,264.8 267.8,268.8 270.2,269.0 272.7,271.6 275.2,253.4 275.2,272.3 277.7,271.0 280.2,266.4 282.6,272.3 285.1,273.1 287.6,266.4 287.6,268.2 290.1,272.9 292.6,268.8 295.0,273.7 297.5,272.0 300.0,241.0 300.0,273.2 302.5,270.2 305.0,270.7 307.4,273.4 309.9,265.6 312.4,252.6 312.4,268.8 314.9,273.5 317.4,271.3 319.8,270.3 322.3,271.4 324.8,264.1 324.8,266.5 327.3,273.1 329.8,272.3 332.2,270.8 334.7,272.9 337.2,254.7 337.2,269.4 339.7,272.7 342.2,268.9 344.6,273.7 347.1,269.4 349.6,265.8 349.6,271.1 352.1,270.3 354.6,268.0 357.0,270.8 359.5,273.9 362.0,267.2 362.0,269.5 364.5,272.8 367.0,268.4 369.4,271.8 371.9,269.5 374.4,266.4 374.4,273.2 376.9,273.4 379.4,270.1 381.8,268.0 384.3,265.9 386.8,270.3 386.8,270.3 389.3,271.7 391.8,273.7 394.2,272.1 396.7,271.9 399.2,272.1 401.7,269.9 404.2,273.5 406.6,271.6 409.1,273.9 411.6,273.5 414.1,268.2 416.6,273.4 419.0,270.8 421.5,269.5 424.0,273.0 426.5,270.9 429.0,273.0 431.4,272.2 433.9,273.2 436.4,273.9 438.9,273.2 441.4,273.1 443.8,271.3 446.3,268.2 448.8,272.2 451.3,273.9 453.8,266.9 456.2,270.4 458.7,271.6 461.2,266.4 463.7,273.0 466.2,272.0 468.6,270.6 471.1,267.4 473.6,273.5 476.1,270.1 478.6,270.9 481.0,271.3 483.5,270.5 486.0,272.8 488.5,272.9 491.0,271.9 493.4,273.3 495.9,268.5 498.4,270.5 500.9,270.2 503.4,271.9 505.8,268.1 508.3,271.8 510.8,255.2 510.8,265.7 513.3,273.4 515.8,269.8 518.2,270.4 520.7,266.6 523.2,262.1 523.2,273.2 525.7,269.8 528.2,271.2 530.6,273.9 533.1,272.5 535.6,266.0 535.6,271.1 538.1,270.1 540.6,269.5 543.0,270.8 545.5,271.1 548.0,261.9 548.0,271.3 550.5,269.8 553.0,272.8 555.4,265.4 557.9,271.9 560.4,262.6 560.4,272.0 562.9,272.3 565.4,271.2 567.8,273.5 570.3,272.9 572.8,251.8 572.8,266.6 575.3,268.6 577.8,273.2 580.2,268.2 582.7,271.6 585.2,42.0 585.2,271.2 587.7,271.6 590.2,268.9 592.6,273.1 595.1,268.0 597.6,263.2 597.6,267.2 600.1,269.3 602.6,269.6 605.0,270.6 607.5,271.7 610.0,258.2 610.0,270.3 612.5,272.3 615.0,273.1 617.4,272.3 619.9,272.7 622.4,250.9 622.4,272.5 624.9,268.4 627.4,273.4 629.8,271.3 632.3,269.9 634.8,269.8 634.8,272.6 637.3,266.7 639.8,267.5 642.2,267.6 644.7,267.4 647.2,259.5 647.2,272.4 649.7,272.7 652.2,271.5 654.6,273.1 657.1,272.8 659.6,271.5 659.6,272.9 662.1,273.2 664.6,265.2 667.0,271.3 669.5,270.0 672.0,262.2 672.0,268.6 674.5,273.0 677.0,271.4 679.4,273.1 681.9,272.3 684.4,258.7 684.4,270.9 686.9,273.2 689.4,273.2 691.8,272.4 694.3,268.1 696.8,254.6 696.8,271.8 699.3,266.9 701.8,269.8 704.2,265.3 706.7,271.2 709.2,269.3 709.2,272.9 711.7,271.3 714.2,270.8 716.6,271.8 719.1,271.9 721.6,260.4 721.6,271.3 724.1,271.9 726.6,270.8 729.0,268.9 731.5,274.0 734.0,266.5 734.0,273.3 736.5,272.4 739.0,273.4 741.4,272.0 743.9,273.3 746.4,265.1 746.4,273.4 748.9,272.4 751.4,271.0 753.8,270.8 756.3,269.4 758.8,256.6 758.8,268.4 761.3,271.7 763.8,271.8 766.2,273.8 768.7,271.7 771.2,266.2 771.2,272.5 773.7,272.7 776.2,269.3 778.6,264.2 781.1,273.2 783.6,264.5 783.6,273.6 786.1,270.4 788.6,272.4 791.0,268.8 793.5,269.2 796.0,265.4 796.0,272.7"/>
<text x="640" y="56" font-family="Arial" font-size="12" fill="#0f766e">ekf_nominal residuals</text>
</svg>