<svg xmlns="http://www.w3.org/2000/svg" width="820" height="320" viewBox="0 0 820 320">
<rect width="100%" height="100%" fill="white"/>
<text x="52" y="30" font-family="Arial" font-size="18" font-weight="700">ekf_high_bias velocity error</text>
<line x1="52" y1="274" x2="796" y2="274" stroke="#263238"/>
<line x1="52" y1="42" x2="52" y2="274" stroke="#263238"/>
<text x="52" y="306" font-family="Arial" font-size="12">time (s)</text>
<text x="630" y="306" font-family="Arial" font-size="12">m/s</text>

<rect x="399.2" y="42" width="99.2" height="232" fill="#fef3c7" opacity="0.72"/>
<polyline fill="none" stroke="#0f766e" stroke-width="2.3" points="52.0,236.0 52.6,235.7 53.2,235.5 53.9,235.2 54.5,185.1 55.1,185.0 55.7,184.7 56.3,184.7 57.0,164.2 57.6,164.2 58.2,163.9 58.8,163.6 59.4,232.3 60.1,232.3 60.7,232.2 61.3,232.0 61.9,231.4 62.5,231.5 63.2,231.5 63.8,231.1 64.4,43.6 65.0,43.4 65.6,43.4 66.3,43.1 66.9,42.3 67.5,42.0 68.1,42.0 68.7,42.1 69.4,42.0 70.0,42.0 70.6,42.4 71.2,42.7 71.8,43.1 72.5,43.1 73.1,43.3 73.7,43.3 74.3,43.2 74.9,43.2 75.6,43.1 76.2,43.4 76.8,96.8 77.4,96.8 78.0,96.8 78.7,96.9 79.3,97.1 79.9,97.2 80.5,97.4 81.1,97.4 81.8,97.6 82.4,97.4 83.0,97.2 83.6,97.2 84.2,96.9 84.9,96.7 85.5,96.3 86.1,96.2 86.7,95.4 87.3,95.2 88.0,95.4 88.6,95.5 89.2,246.1 89.8,246.3 90.4,246.3 91.1,246.3 91.7,251.9 92.3,252.2 92.9,252.4 93.5,252.7 94.2,252.6 94.8,252.9 95.4,253.2 96.0,253.6 96.6,253.6 97.3,253.8 97.9,254.1 98.5,254.3 99.1,243.1 99.7,243.0 100.4,242.4 101.0,242.1 101.6,245.5 102.2,245.1 102.8,244.7 103.5,244.4 104.1,250.2 104.7,249.8 105.3,249.6 105.9,249.2 106.6,244.5 107.2,244.0 107.8,243.4 108.4,243.1 109.0,263.3 109.7,263.4 110.3,263.6 110.9,263.8 111.5,266.0 112.1,266.0 112.8,266.1 113.4,266.0 114.0,195.3 114.6,195.0 115.2,194.7 115.9,194.7 116.5,194.4 117.1,194.2 117.7,193.9 118.3,193.5 119.0,193.2 119.6,193.0 120.2,193.1 120.8,193.0 121.4,193.1 122.1,192.8 122.7,192.6 123.3,192.6 123.9,192.3 124.5,191.8 125.2,191.2 125.8,191.1 126.4,186.9 127.0,186.4 127.6,186.0 128.3,185.6 128.9,185.4 129.5,185.0 130.1,184.7 130.7,184.2 131.4,183.1 132.0,182.7 132.6,182.1 133.2,181.7 133.8,181.6 134.5,181.3 135.1,181.0 135.7,180.5 136.3,180.0 136.9,179.8 137.6,179.5 138.2,179.0 138.8,215.9 139.4,215.4 140.0,215.0 140.7,214.6 141.3,214.7 141.9,214.6 142.5,214.1 143.1,213.7 143.8,213.4 144.4,213.2 145.0,212.7 145.6,212.7 146.2,212.2 146.9,211.7 147.5,211.1 148.1,210.6 148.7,210.3 149.3,209.4 150.0,209.0 150.6,208.4 151.2,255.0 151.8,254.5 152.4,254.0 153.1,253.7 153.7,250.5 154.3,249.7 154.9,249.0 155.5,248.5 156.2,245.1 156.8,244.5 157.4,244.1 158.0,243.2 158.6,242.8 159.3,242.2 159.9,241.3 160.5,240.8 161.1,241.9 161.7,241.5 162.4,241.1 163.0,240.6 163.6,238.8 164.2,238.3 164.8,238.1 165.5,237.7 166.1,238.2 166.7,237.6 167.3,237.3 167.9,236.8 168.6,236.4 169.2,236.0 169.8,235.4 170.4,235.0 171.0,234.5 171.7,234.1 172.3,233.6 172.9,233.0 173.5,232.5 174.1,231.8 174.8,231.5 175.4,231.0 176.0,256.5 176.6,255.6 177.2,255.1 177.9,254.7 178.5,253.8 179.1,253.4 179.7,252.9 180.3,252.8 181.0,251.3 181.6,251.1 182.2,250.6 182.8,250.3 183.4,250.8 184.1,250.2 184.7,249.8 185.3,249.3 185.9,247.4 186.5,247.1 187.2,246.8 187.8,246.3 188.4,239.4 189.0,239.3 189.6,239.3 190.3,239.1 190.9,240.0 191.5,240.0 192.1,239.7 192.7,239.9 193.4,240.2 194.0,239.9 194.6,239.4 195.2,239.1 195.8,237.4 196.5,237.4 197.1,237.4 197.7,237.0 198.3,238.4 198.9,238.5 199.6,238.1 200.2,238.0 200.8,245.0 201.4,244.8 202.0,243.9 202.7,243.7 203.3,243.3 203.9,243.2 204.5,242.6 205.1,242.2 205.8,242.1 206.4,241.6 207.0,241.2 207.6,240.9 208.2,240.0 208.9,239.8 209.5,239.4 210.1,238.7 210.7,238.3 211.3,237.9 212.0,237.7 212.6,237.4 213.2,255.1 213.8,254.8 214.4,254.3 215.1,254.2 215.7,254.7 216.3,254.2 216.9,254.0 217.5,253.7 218.2,253.8 218.8,253.7 219.4,253.7 220.0,253.6 220.6,253.1 221.3,252.9 221.9,252.5 222.5,252.0 223.1,251.7 223.7,251.5 224.4,251.2 225.0,251.0 225.6,242.5 226.2,242.0 226.8,241.6 227.5,241.4 228.1,240.8 228.7,240.4 229.3,240.1 229.9,239.8 230.6,239.0 231.2,238.8 231.8,238.7 232.4,238.3 233.0,237.2 233.7,237.0 234.3,236.7 234.9,236.7 235.5,236.4 236.1,236.3 236.8,235.6 237.4,235.2 238.0,250.3 238.6,249.6 239.2,249.4 239.9,249.0 240.5,249.6 241.1,249.2 241.7,248.9 242.3,248.3 243.0,247.6 243.6,246.9 244.2,246.5 244.8,246.3 245.4,246.2 246.1,245.7 246.7,245.0 247.3,244.5 247.9,243.8 248.5,243.5 249.2,243.0 249.8,242.6 250.4,246.5 251.0,246.0 251.6,245.7 252.3,245.5 252.9,245.1 253.5,245.0 254.1,244.7 254.7,244.6 255.4,244.2 256.0,243.7 256.6,243.2 257.2,243.0 257.8,242.6 258.5,242.4 259.1,242.1 259.7,241.9 260.3,241.8 260.9,241.4 261.6,241.1 262.2,240.7 262.8,253.2 263.4,253.0 264.0,252.7 264.7,252.4 265.3,250.8 265.9,250.6 266.5,250.4 267.1,250.3 267.8,251.0 268.4,250.6 269.0,250.3 269.6,250.3 270.2,250.3 270.9,250.0 271.5,249.6 272.1,249.5 272.7,249.1 273.3,248.8 274.0,248.5 274.6,248.4 275.2,228.2 275.8,228.2 276.4,227.8 277.1,227.6 277.7,227.5 278.3,227.4 278.9,227.0 279.5,226.4 280.2,225.8 280.8,225.4 281.4,225.1 282.0,224.9 282.6,224.3 283.3,223.9 283.9,223.6 284.5,223.2 285.1,222.7 285.7,222.3 286.4,222.1 287.0,221.8 287.6,227.6 288.2,227.3 288.8,226.8 289.5,226.5 290.1,226.3 290.7,226.0 291.3,225.6 291.9,225.4 292.6,225.6 293.2,225.5 293.8,225.4 294.4,225.1 295.0,224.8 295.7,224.4 296.3,224.0 296.9,223.6 297.5,223.2 298.1,223.1 298.8,222.6 299.4,222.1 300.0,257.8 300.6,257.3 301.2,257.3 301.9,257.2 302.5,257.5 303.1,257.5 303.7,257.3 304.3,257.2 305.0,256.7 305.6,256.4 306.2,256.3 306.8,256.2 307.4,256.3 308.1,256.0 308.7,255.9 309.3,255.6 309.9,255.9 310.5,255.7 311.2,255.4 311.8,255.0 312.4,252.9 313.0,252.8 313.6,252.4 314.3,252.0 314.9,251.6 315.5,251.5 316.1,251.1 316.7,251.0 317.4,251.3 318.0,251.1 318.6,251.0 319.2,250.9 319.8,250.1 320.5,250.0 321.1,249.7 321.7,249.4 322.3,250.1 322.9,249.5 323.6,249.2 324.2,249.1 324.8,250.7 325.4,250.4 326.0,250.2 326.7,250.0 327.3,250.6 327.9,250.2 328.5,249.9 329.1,249.9 329.8,250.5 330.4,250.2 331.0,249.9 331.6,249.8 332.2,250.7 332.9,250.2 333.5,249.7 334.1,250.0 334.7,249.6 335.3,249.2 336.0,249.1 336.6,248.8 337.2,261.7 337.8,261.5 338.4,261.6 339.1,261.3 339.7,260.9 340.3,260.7 340.9,260.6 341.5,260.6 342.2,263.2 342.8,262.9 343.4,262.7 344.0,262.8 344.6,262.8 345.3,262.4 345.9,262.6 346.5,262.7 347.1,264.6 347.7,264.2 348.4,264.1 349.0,264.1 349.6,272.1 350.2,272.1 350.8,272.2 351.5,272.1 352.1,274.0 352.7,273.7 353.3,273.8 353.9,273.8 354.6,271.2 355.2,271.1 355.8,271.1 356.4,271.1 357.0,273.0 357.7,272.8 358.3,273.0 358.9,272.8 359.5,273.0 360.1,273.0 360.8,273.2 361.4,273.2 362.0,268.6 362.6,268.3 363.2,268.3 363.9,268.1 364.5,268.1 365.1,268.0 365.7,267.8 366.3,267.8 367.0,267.9 367.6,267.8 368.2,267.6 368.8,267.3 369.4,267.2 370.1,267.2 370.7,267.3 371.3,267.2 371.9,266.3 372.5,266.2 373.2,266.0 373.8,265.8 374.4,253.8 375.0,253.6 375.6,253.4 376.3,253.0 376.9,253.0 377.5,253.0 378.1,253.0 378.7,252.8 379.4,252.1 380.0,252.0 380.6,252.0 381.2,251.8 381.8,250.5 382.5,250.3 383.1,249.8 383.7,249.5 384.3,251.6 384.9,251.5 385.6,251.6 386.2,251.5 386.8,257.0 387.4,256.9 388.0,257.0 388.7,257.0 389.3,257.7 389.9,258.0 390.5,257.8 391.1,257.6 391.8,257.7 392.4,257.3 393.0,257.2 393.6,257.0 394.2,256.9 394.9,256.7 395.5,256.8 396.1,257.0 396.7,256.2 397.3,256.3 398.0,256.3 398.6,256.2 399.2,255.5 399.8,255.2 400.4,254.8 401.1,255.0 401.7,255.5 402.3,255.1 402.9,255.3 403.5,255.0 404.2,255.3 404.8,255.1 405.4,254.8 406.0,254.7 406.6,254.6 407.3,254.5 407.9,254.5 408.5,254.4 409.1,254.2 409.7,254.2 410.4,253.8 411.0,253.5 411.6,253.6 412.2,253.4 412.8,253.4 413.5,253.1 414.1,252.2 414.7,252.3 415.3,252.4 415.9,252.3 416.6,252.2 417.2,252.1 417.8,251.9 418.4,251.6 419.0,250.8 419.7,250.6 420.3,250.2 420.9,250.1 421.5,248.7 422.1,248.3 422.8,248.1 423.4,247.7 424.0,248.0 424.6,247.9 425.2,247.5 425.9,247.4 426.5,246.7 427.1,246.5 427.7,246.0 428.3,245.8 429.0,245.5 429.6,245.3 430.2,244.9 430.8,245.0 431.4,245.6 432.1,245.6 432.7,245.7 433.3,245.5 433.9,245.7 434.5,245.6 435.2,245.4 435.8,245.1 436.4,245.1 437.0,244.8 437.6,244.9 438.3,244.7 438.9,244.9 439.5,245.0 440.1,244.9 440.7,244.5 441.4,245.0 442.0,244.8 442.6,244.5 443.2,244.7 443.8,244.0 444.5,243.9 445.1,243.5 445.7,243.2 446.3,244.7 446.9,244.4 447.6,244.3 448.2,244.0 448.8,244.4 449.4,243.8 450.0,243.9 450.7,243.7 451.3,243.7 451.9,243.5 452.5,243.2 453.1,242.9 453.8,241.2 454.4,241.0 455.0,240.8 455.6,240.5 456.2,241.1 456.9,240.8 457.5,240.5 458.1,239.9 458.7,240.1 459.3,239.8 460.0,239.5 460.6,239.5 461.2,240.1 461.8,240.0 462.4,239.9 463.1,240.0 463.7,239.9 464.3,239.8 464.9,239.8 465.5,239.7 466.2,239.7 466.8,239.5 467.4,239.5 468.0,239.4 468.6,238.9 469.3,238.8 469.9,238.9 470.5,238.7 471.1,238.5 471.7,238.7 472.4,238.2 473.0,238.1 473.6,237.9 474.2,238.1 474.8,238.0 475.5,238.0 476.1,237.8 476.7,237.7 477.3,237.6 477.9,237.7 478.6,237.1 479.2,237.3 479.8,236.8 480.4,236.9 481.0,236.7 481.7,236.7 482.3,236.5 482.9,236.6 483.5,235.8 484.1,235.6 484.8,235.5 485.4,235.3 486.0,235.2 486.6,235.1 487.2,234.8 487.9,234.9 488.5,235.3 489.1,234.9 489.7,234.7 490.3,234.6 491.0,234.3 491.6,234.3 492.2,234.7 492.8,234.8 493.4,235.0 494.1,234.8 494.7,234.4 495.3,234.5 495.9,233.6 496.5,233.4 497.2,233.2 497.8,233.2 498.4,232.2 499.0,232.0 499.6,232.0 500.3,231.9 500.9,230.7 501.5,230.4 502.1,230.2 502.7,230.0 503.4,231.0 504.0,230.7 504.6,230.5 505.2,230.2 505.8,232.2 506.5,232.2 507.1,232.0 507.7,231.9 508.3,231.6 508.9,231.0 509.6,230.7 510.2,230.6 510.8,262.7 511.4,262.8 512.0,262.7 512.7,262.9 513.3,263.0 513.9,262.7 514.5,262.5 515.1,262.6 515.8,263.4 516.4,263.6 517.0,263.8 517.6,263.6 518.2,263.9 518.9,263.9 519.5,263.9 520.1,264.3 520.7,262.8 521.3,262.7 522.0,262.8 522.6,262.9 523.2,269.9 523.8,269.6 524.4,270.0 525.1,270.0 525.7,271.5 526.3,271.4 526.9,271.6 527.5,271.5 528.2,271.0 528.8,271.2 529.4,271.4 530.0,271.1 530.6,271.2 531.3,271.2 531.9,271.0 532.5,270.6 533.1,269.9 533.7,270.0 534.4,270.3 535.0,270.1 535.6,262.2 536.2,262.1 536.8,261.9 537.5,261.8 538.1,260.4 538.7,260.4 539.3,260.4 539.9,260.2 540.6,258.5 541.2,258.1 541.8,258.2 542.4,258.0 543.0,259.8 543.7,259.7 544.3,259.6 544.9,259.5 545.5,258.5 546.1,258.6 546.8,258.6 547.4,258.3 548.0,261.7 548.6,261.6 549.2,261.4 549.9,261.3 550.5,259.3 551.1,259.2 551.7,259.3 552.3,259.3 553.0,259.1 553.6,258.9 554.2,258.5 554.8,258.4 555.4,263.6 556.1,263.6 556.7,263.9 557.3,263.6 557.9,264.9 558.5,265.0 559.2,265.3 559.8,265.0 560.4,268.4 561.0,268.5 561.6,268.4 562.3,268.4 562.9,267.6 563.5,267.5 564.1,267.4 564.7,267.5 565.4,269.3 566.0,269.3 566.6,269.5 567.2,269.3 567.8,270.1 568.5,269.9 569.1,270.0 569.7,270.1 570.3,270.6 570.9,270.4 571.6,270.3 572.2,270.2 572.8,260.5 573.4,260.6 574.0,260.7 574.7,260.5 575.3,259.5 575.9,259.5 576.5,259.5 577.1,259.5 577.8,259.8 578.4,259.7 579.0,259.8 579.6,259.8 580.2,258.2 580.9,258.2 581.5,258.1 582.1,258.1 582.7,259.0 583.3,258.6 584.0,258.5 584.6,258.6 585.2,257.8 585.8,257.6 586.4,257.4 587.1,257.5 587.7,258.2 588.3,258.3 588.9,258.1 589.5,258.5 590.2,257.0 590.8,256.9 591.4,256.7 592.0,256.8 592.6,257.6 593.3,257.7 593.9,258.1 594.5,258.0 595.1,255.5 595.7,255.3 596.4,255.0 597.0,255.1 597.6,259.1 598.2,258.7 598.8,258.4 599.5,258.2 600.1,261.9 600.7,261.8 601.3,261.4 601.9,261.3 602.6,264.4 603.2,264.3 603.8,264.0 604.4,264.0 605.0,266.4 605.7,266.3 606.3,266.5 606.9,266.3 607.5,265.0 608.1,265.2 608.8,265.1 609.4,265.2 610.0,256.6 610.6,256.7 611.2,256.6 611.9,256.3 612.5,256.9 613.1,256.5 613.7,256.4 614.3,256.5 615.0,256.2 615.6,256.3 616.2,256.4 616.8,256.4 617.4,256.0 618.1,256.0 618.7,256.1 619.3,256.1 619.9,255.6 620.5,255.9 621.2,255.9 621.8,256.0 622.4,256.2 623.0,256.3 623.6,256.3 624.3,256.3 624.9,257.6 625.5,257.5 626.1,257.4 626.7,257.1 627.4,256.9 628.0,256.6 628.6,256.5 629.2,256.5 629.8,256.6 630.5,256.3 631.1,256.4 631.7,256.1 632.3,256.4 632.9,256.3 633.6,256.2 634.2,256.3 634.8,260.9 635.4,260.7 636.0,260.8 636.7,260.8 637.3,260.2 637.9,259.9 638.5,259.6 639.1,259.8 639.8,258.7 640.4,258.4 641.0,258.2 641.6,258.1 642.2,255.7 642.9,255.4 643.5,255.4 644.1,255.4 644.7,257.9 645.3,257.8 646.0,257.4 646.6,257.4 647.2,259.7 647.8,259.7 648.4,259.6 649.1,259.5 649.7,259.1 650.3,259.0 650.9,258.7 651.5,258.9 652.2,258.0 652.8,257.8 653.4,257.7 654.0,257.7 654.6,257.6 655.3,257.4 655.9,257.4 656.5,257.1 657.1,257.5 657.7,257.4 658.4,256.9 659.0,256.6 659.6,259.5 660.2,259.4 660.8,259.5 661.5,259.3 662.1,259.0 662.7,258.8 663.3,258.9 663.9,258.8 664.6,261.8 665.2,261.9 665.8,261.8 666.4,261.4 667.0,262.0 667.7,261.7 668.3,261.4 668.9,261.3 669.5,260.2 670.1,259.9 670.8,259.8 671.4,259.5 672.0,257.0 672.6,257.1 673.2,256.9 673.9,256.5 674.5,256.6 675.1,256.3 675.7,256.2 676.3,256.2 677.0,256.1 677.6,256.4 678.2,256.1 678.8,255.9 679.4,255.5 680.1,255.6 680.7,255.6 681.3,255.5 681.9,255.3 682.5,255.1 683.2,255.4 683.8,255.1 684.4,271.3 685.0,271.4 685.6,271.6 686.3,271.2 686.9,271.2 687.5,271.0 688.1,271.0 688.7,271.1 689.4,271.3 690.0,271.0 690.6,271.0 691.2,270.9 691.8,271.2 692.5,270.9 693.1,270.9 693.7,270.8 694.3,270.1 694.9,270.4 695.6,270.3 696.2,269.9 696.8,270.6 697.4,271.0 698.0,270.7 698.7,270.5 699.3,267.7 699.9,267.5 700.5,267.5 701.1,267.3 701.8,264.9 702.4,264.8 703.0,265.0 703.6,264.9 704.2,269.1 704.9,269.1 705.5,269.3 706.1,269.3 706.7,270.2 707.3,269.8 708.0,269.9 708.6,270.0 709.2,265.4 709.8,265.4 710.4,265.4 711.1,265.4 711.7,265.9 712.3,265.8 712.9,265.8 713.5,265.8 714.2,265.8 714.8,265.8 715.4,266.0 716.0,266.1 716.6,266.0 717.3,265.9 717.9,265.5 718.5,265.4 719.1,265.6 719.7,265.5 720.4,265.4 721.0,265.3 721.6,272.6 722.2,272.5 722.8,272.5 723.5,272.6 724.1,272.4 724.7,272.5 725.3,272.6 725.9,272.6 726.6,272.3 727.2,272.2 727.8,272.4 728.4,272.4 729.0,273.0 729.7,273.1 730.3,273.2 730.9,273.5 731.5,273.6 732.1,273.3 732.8,273.4 733.4,273.2 734.0,263.8 734.6,263.7 735.2,263.4 735.9,263.3 736.5,263.1 737.1,263.1 737.7,263.1 738.3,262.9 739.0,262.6 739.6,262.7 740.2,262.4 740.8,262.2 741.4,262.0 742.1,262.1 742.7,262.1 743.3,262.0 743.9,261.7 744.5,261.9 745.2,261.8 745.8,261.7 746.4,261.0 747.0,261.1 747.6,260.6 748.3,260.4 748.9,260.1 749.5,260.0 750.1,260.1 750.7,260.2 751.4,260.5 752.0,260.4 752.6,260.1 753.2,260.2 753.8,260.4 754.5,260.7 755.1,260.3 755.7,260.1 756.3,259.8 756.9,259.5 757.6,259.7 758.2,259.7 758.8,272.4 759.4,272.4 760.0,272.5 760.7,272.3 761.3,272.4 761.9,272.3 762.5,271.9 763.1,271.9 763.8,271.9 764.4,271.6 765.0,271.4 765.6,271.4 766.2,271.5 766.9,271.2 767.5,271.4 768.1,271.0 768.7,270.8 769.3,270.7 770.0,270.7 770.6,270.8 771.2,270.3 771.8,270.3 772.4,270.2 773.1,270.1 773.7,269.9 774.3,270.0 774.9,269.7 775.5,270.2 776.2,270.4 776.8,270.4 777.4,270.4 778.0,270.4 778.6,268.4 779.3,268.1 779.9,268.0 780.5,268.0 781.1,267.7 781.7,267.8 782.4,267.9 783.0,267.8 783.6,269.6 784.2,269.5 784.8,269.5 785.5,269.4 786.1,271.2 786.7,270.9 787.3,270.7 787.9,270.4 788.6,269.8 789.2,269.9 789.8,270.0 790.4,269.9 791.0,267.5 791.7,267.7 792.3,267.4 792.9,267.4 793.5,269.8 794.1,269.8 794.8,269.6 795.4,269.6 796.0,261.2"/>
<text x="640" y="56" font-family="Arial" font-size="12" fill="#0f766e">ekf_high_bias velocity error</text>
</svg>