<svg xmlns="http://www.w3.org/2000/svg" width="820" height="320" viewBox="0 0 820 320">
<rect width="100%" height="100%" fill="white"/>
<text x="52" y="30" font-family="Arial" font-size="18" font-weight="700">ekf_nominal velocity error</text>
<line x1="52" y1="274" x2="796" y2="274" stroke="#263238"/>
<line x1="52" y1="42" x2="52" y2="274" stroke="#263238"/>
<text x="52" y="306" font-family="Arial" font-size="12">time (s)</text>
<text x="630" y="306" font-family="Arial" font-size="12">m/s</text>

<rect x="399.2" y="42" width="99.2" height="232" fill="#fef3c7" opacity="0.72"/>
<polyline fill="none" stroke="#0f766e" stroke-width="2.3" points="52.0,239.2 52.6,239.0 53.2,238.9 53.9,238.6 54.5,174.3 55.1,174.1 55.7,174.0 56.3,173.9 57.0,158.8 57.6,158.7 58.2,158.5 58.8,158.3 59.4,234.2 60.1,234.2 60.7,234.2 61.3,233.9 61.9,236.2 62.5,236.3 63.2,236.2 63.8,235.9 64.4,43.2 65.0,43.0 65.6,43.0 66.3,42.8 66.9,42.3 67.5,42.0 68.1,42.0 68.7,42.1 69.4,42.0 70.0,42.0 70.6,42.3 71.2,42.6 71.8,42.8 72.5,42.8 73.1,42.9 73.7,42.9 74.3,42.6 74.9,42.6 75.6,42.5 76.2,42.7 76.8,112.5 77.4,112.5 78.0,112.6 78.7,112.7 79.3,112.9 79.9,113.0 80.5,113.2 81.1,113.2 81.8,113.4 82.4,113.2 83.0,113.1 83.6,113.1 84.2,112.9 84.9,112.7 85.5,112.4 86.1,112.4 86.7,111.5 87.3,111.4 88.0,111.5 88.6,111.6 89.2,247.4 89.8,247.6 90.4,247.5 91.1,247.5 91.7,253.9 92.3,254.2 92.9,254.5 93.5,254.7 94.2,254.6 94.8,254.8 95.4,255.0 96.0,255.3 96.6,255.2 97.3,255.4 97.9,255.5 98.5,255.7 99.1,243.7 99.7,243.5 100.4,242.9 101.0,242.4 101.6,245.8 102.2,245.4 102.8,244.9 103.5,244.6 104.1,250.7 104.7,250.3 105.3,250.1 105.9,249.7 106.6,245.5 107.2,245.0 107.8,244.5 108.4,244.2 109.0,263.6 109.7,263.6 110.3,263.6 110.9,263.7 111.5,265.0 112.1,265.0 112.8,264.9 113.4,264.7 114.0,204.4 114.6,204.2 115.2,204.0 115.9,203.9 116.5,203.8 117.1,203.6 117.7,203.3 118.3,203.0 119.0,202.8 119.6,202.6 120.2,202.7 120.8,202.6 121.4,202.6 122.1,202.4 122.7,202.2 123.3,202.1 123.9,201.9 124.5,201.5 125.2,201.0 125.8,200.9 126.4,192.6 127.0,192.1 127.6,191.6 128.3,191.1 128.9,190.9 129.5,190.4 130.1,190.0 130.7,189.4 131.4,188.4 132.0,187.9 132.6,187.3 133.2,186.8 133.8,186.7 134.5,186.2 135.1,185.8 135.7,185.3 136.3,184.7 136.9,184.4 137.6,183.9 138.2,183.4 138.8,216.3 139.4,215.8 140.0,215.3 140.7,214.8 141.3,214.7 141.9,214.4 142.5,213.8 143.1,213.4 143.8,213.0 144.4,212.6 145.0,212.1 145.6,211.9 146.2,211.4 146.9,210.8 147.5,210.2 148.1,209.6 148.7,209.2 149.3,208.4 150.0,207.9 150.6,207.2 151.2,248.7 151.8,248.2 152.4,247.7 153.1,247.3 153.7,245.2 154.3,244.4 154.9,243.8 155.5,243.3 156.2,240.9 156.8,240.3 157.4,239.8 158.0,239.1 158.6,238.6 159.3,238.0 159.9,237.2 160.5,236.7 161.1,237.1 161.7,236.7 162.4,236.3 163.0,235.8 163.6,236.9 164.2,236.3 164.8,236.1 165.5,235.7 166.1,236.0 166.7,235.4 167.3,235.1 167.9,234.6 168.6,234.2 169.2,233.8 169.8,233.3 170.4,232.9 171.0,232.4 171.7,232.0 172.3,231.5 172.9,231.0 173.5,230.5 174.1,229.9 174.8,229.6 175.4,229.1 176.0,252.7 176.6,251.9 177.2,251.4 177.9,251.1 178.5,250.4 179.1,250.0 179.7,249.6 180.3,249.5 181.0,248.4 181.6,248.2 182.2,247.8 182.8,247.4 183.4,247.7 184.1,247.2 184.7,246.8 185.3,246.4 185.9,245.0 186.5,244.7 187.2,244.4 187.8,243.9 188.4,241.1 189.0,241.0 189.6,241.1 190.3,240.8 190.9,241.5 191.5,241.4 192.1,241.2 192.7,241.3 193.4,241.5 194.0,241.2 194.6,240.8 195.2,240.5 195.8,239.3 196.5,239.2 197.1,239.3 197.7,238.9 198.3,239.9 198.9,239.9 199.6,239.6 200.2,239.5 200.8,244.5 201.4,244.4 202.0,243.7 202.7,243.4 203.3,243.3 203.9,243.2 204.5,242.7 205.1,242.3 205.8,242.1 206.4,241.7 207.0,241.4 207.6,241.1 208.2,240.4 208.9,240.3 209.5,239.9 210.1,239.3 210.7,239.0 211.3,238.6 212.0,238.5 212.6,238.2 213.2,253.7 213.8,253.5 214.4,253.0 215.1,253.0 215.7,253.1 216.3,252.7 216.9,252.5 217.5,252.3 218.2,252.2 218.8,252.1 219.4,252.1 220.0,252.0 220.6,251.6 221.3,251.4 221.9,251.1 222.5,250.7 223.1,250.4 223.7,250.2 224.4,249.9 225.0,249.8 225.6,243.3 226.2,242.9 226.8,242.6 227.5,242.4 228.1,241.9 228.7,241.6 229.3,241.3 229.9,241.1 230.6,240.5 231.2,240.3 231.8,240.2 232.4,239.9 233.0,239.2 233.7,239.1 234.3,238.8 234.9,238.8 235.5,238.5 236.1,238.4 236.8,237.9 237.4,237.5 238.0,250.8 238.6,250.3 239.2,250.2 239.9,249.8 240.5,250.0 241.1,249.8 241.7,249.5 242.3,249.1 243.0,248.5 243.6,247.9 244.2,247.6 244.8,247.4 245.4,247.2 246.1,246.8 246.7,246.3 247.3,245.9 247.9,245.3 248.5,245.0 249.2,244.6 249.8,244.3 250.4,247.5 251.0,247.0 251.6,246.8 252.3,246.7 252.9,246.5 253.5,246.3 254.1,246.1 254.7,246.0 255.4,245.6 256.0,245.2 256.6,244.8 257.2,244.6 257.8,244.3 258.5,244.1 259.1,243.9 259.7,243.7 260.3,243.5 260.9,243.1 261.6,242.9 262.2,242.6 262.8,252.8 263.4,252.7 264.0,252.4 264.7,252.2 265.3,251.5 265.9,251.4 266.5,251.3 267.1,251.1 267.8,251.2 268.4,250.9 269.0,250.6 269.6,250.6 270.2,250.4 270.9,250.1 271.5,249.8 272.1,249.7 272.7,249.4 273.3,249.1 274.0,248.9 274.6,248.8 275.2,232.7 275.8,232.7 276.4,232.4 277.1,232.2 277.7,232.1 278.3,232.0 278.9,231.7 279.5,231.2 280.2,230.9 280.8,230.5 281.4,230.2 282.0,230.1 282.6,229.6 283.3,229.3 283.9,229.1 284.5,228.8 285.1,228.3 285.7,228.0 286.4,227.8 287.0,227.6 287.6,232.4 288.2,232.2 288.8,231.8 289.5,231.6 290.1,231.3 290.7,231.1 291.3,230.7 291.9,230.5 292.6,230.5 293.2,230.4 293.8,230.3 294.4,230.1 295.0,229.8 295.7,229.5 296.3,229.2 296.9,228.8 297.5,228.6 298.1,228.5 298.8,228.1 299.4,227.6 300.0,255.6 300.6,255.2 301.2,255.2 301.9,255.1 302.5,255.1 303.1,255.0 303.7,254.9 304.3,254.8 305.0,254.4 305.6,254.2 306.2,254.1 306.8,254.0 307.4,254.0 308.1,253.7 308.7,253.6 309.3,253.4 309.9,253.5 310.5,253.3 311.2,253.1 311.8,252.7 312.4,253.2 313.0,253.1 313.6,252.8 314.3,252.5 314.9,252.2 315.5,252.1 316.1,251.8 316.7,251.6 317.4,251.6 318.0,251.4 318.6,251.3 319.2,251.3 319.8,250.9 320.5,250.8 321.1,250.6 321.7,250.3 322.3,250.6 322.9,250.2 323.6,250.0 324.2,249.8 324.8,252.6 325.4,252.3 326.0,252.2 326.7,252.1 327.3,252.3 327.9,252.0 328.5,251.8 329.1,251.8 329.8,251.9 330.4,251.7 331.0,251.5 331.6,251.3 332.2,251.7 332.9,251.3 333.5,250.9 334.1,251.1 334.7,250.9 335.3,250.5 336.0,250.5 336.6,250.2 337.2,263.0 337.8,262.8 338.4,262.9 339.1,262.7 339.7,262.5 340.3,262.4 340.9,262.4 341.5,262.4 342.2,263.6 342.8,263.4 343.4,263.3 344.0,263.4 344.6,263.2 345.3,262.9 345.9,263.0 346.5,263.1 347.1,264.0 347.7,263.6 348.4,263.5 349.0,263.5 349.6,267.0 350.2,267.0 350.8,266.9 351.5,266.8 352.1,267.6 352.7,267.3 353.3,267.4 353.9,267.3 354.6,266.2 355.2,266.2 355.8,266.2 356.4,266.3 357.0,267.0 357.7,267.0 358.3,267.1 358.9,266.9 359.5,267.0 360.1,266.9 360.8,267.0 361.4,266.9 362.0,263.7 362.6,263.6 363.2,263.5 363.9,263.3 364.5,263.3 365.1,263.2 365.7,263.0 366.3,263.0 367.0,263.1 367.6,263.0 368.2,262.8 368.8,262.6 369.4,262.6 370.1,262.6 370.7,262.7 371.3,262.7 371.9,262.7 372.5,262.7 373.2,262.6 373.8,262.4 374.4,254.1 375.0,253.9 375.6,253.7 376.3,253.4 376.9,253.3 377.5,253.4 378.1,253.4 378.7,253.2 379.4,252.9 380.0,252.9 380.6,253.0 381.2,252.9 381.8,252.5 382.5,252.4 383.1,252.0 383.7,251.8 384.3,252.4 384.9,252.3 385.6,252.4 386.2,252.3 386.8,256.0 387.4,256.0 388.0,256.0 388.7,256.0 389.3,256.2 389.9,256.4 390.5,256.3 391.1,256.1 391.8,256.1 392.4,255.8 393.0,255.6 393.6,255.5 394.2,255.2 394.9,255.0 395.5,255.0 396.1,255.2 396.7,254.8 397.3,254.8 398.0,254.8 398.6,254.7 399.2,254.3 399.8,254.0 400.4,253.7 401.1,253.9 401.7,253.7 402.3,253.4 402.9,253.6 403.5,253.3 404.2,253.5 404.8,253.3 405.4,253.0 406.0,252.9 406.6,252.7 407.3,252.6 407.9,252.7 408.5,252.5 409.1,252.4 409.7,252.4 410.4,252.1 411.0,251.7 411.6,251.8 412.2,251.7 412.8,251.7 413.5,251.4 414.1,251.0 414.7,251.1 415.3,251.2 415.9,251.1 416.6,250.9 417.2,250.8 417.8,250.7 418.4,250.5 419.0,250.1 419.7,250.0 420.3,249.7 420.9,249.6 421.5,249.1 422.1,248.8 422.8,248.6 423.4,248.3 424.0,248.2 424.6,248.1 425.2,247.8 425.9,247.7 426.5,247.5 427.1,247.4 427.7,247.0 428.3,246.8 429.0,246.6 429.6,246.4 430.2,246.1 430.8,246.2 431.4,246.2 432.1,246.2 432.7,246.3 433.3,246.1 433.9,246.1 434.5,246.0 435.2,245.9 435.8,245.6 436.4,245.5 437.0,245.3 437.6,245.4 438.3,245.2 438.9,245.1 439.5,245.2 440.1,245.1 440.7,244.7 441.4,244.9 442.0,244.8 442.6,244.5 443.2,244.7 443.8,244.4 444.5,244.3 445.1,244.1 445.7,243.8 446.3,244.2 446.9,244.0 447.6,243.9 448.2,243.7 448.8,243.9 449.4,243.4 450.0,243.4 450.7,243.2 451.3,243.3 451.9,243.1 452.5,242.8 453.1,242.6 453.8,241.9 454.4,241.8 455.0,241.6 455.6,241.4 456.2,241.3 456.9,241.1 457.5,240.8 458.1,240.4 458.7,240.3 459.3,240.0 460.0,239.8 460.6,239.8 461.2,240.0 461.8,240.0 462.4,239.9 463.1,240.0 463.7,239.9 464.3,239.8 464.9,239.8 465.5,239.7 466.2,239.7 466.8,239.5 467.4,239.5 468.0,239.4 468.6,239.1 469.3,238.9 469.9,239.0 470.5,238.8 471.1,238.8 471.7,238.9 472.4,238.6 473.0,238.4 473.6,238.3 474.2,238.5 474.8,238.3 475.5,238.3 476.1,238.4 476.7,238.3 477.3,238.2 477.9,238.3 478.6,238.1 479.2,238.2 479.8,237.9 480.4,237.9 481.0,238.0 481.7,238.0 482.3,237.9 482.9,237.9 483.5,237.7 484.1,237.6 484.8,237.5 485.4,237.3 486.0,237.2 486.6,237.1 487.2,236.9 487.9,237.0 488.5,236.9 489.1,236.7 489.7,236.4 490.3,236.4 491.0,236.3 491.6,236.3 492.2,236.6 492.8,236.7 493.4,236.5 494.1,236.4 494.7,236.1 495.3,236.2 495.9,236.2 496.5,236.1 497.2,235.9 497.8,235.9 498.4,235.6 499.0,235.4 499.6,235.5 500.3,235.4 500.9,234.9 501.5,234.7 502.1,234.6 502.7,234.5 503.4,234.4 504.0,234.2 504.6,234.1 505.2,233.8 505.8,234.3 506.5,234.2 507.1,234.1 507.7,234.1 508.3,234.0 508.9,233.5 509.6,233.3 510.2,233.2 510.8,255.2 511.4,255.3 512.0,255.2 512.7,255.4 513.3,255.4 513.9,255.1 514.5,255.0 515.1,255.1 515.8,255.2 516.4,255.3 517.0,255.4 517.6,255.2 518.2,255.3 518.9,255.3 519.5,255.2 520.1,255.4 520.7,255.1 521.3,255.1 522.0,255.4 522.6,255.5 523.2,261.4 523.8,261.3 524.4,261.5 525.1,261.5 525.7,261.5 526.3,261.5 526.9,261.5 527.5,261.2 528.2,261.5 528.8,261.8 529.4,261.9 530.0,261.6 530.6,261.7 531.3,261.6 531.9,261.4 532.5,261.3 533.1,261.1 533.7,260.9 534.4,261.0 535.0,260.8 535.6,256.9 536.2,256.8 536.8,256.7 537.5,256.5 538.1,256.2 538.7,256.3 539.3,256.3 539.9,256.1 540.6,255.7 541.2,255.4 541.8,255.4 542.4,255.3 543.0,255.6 543.7,255.4 544.3,255.3 544.9,255.2 545.5,255.0 546.1,255.0 546.8,255.1 547.4,254.8 548.0,257.2 548.6,257.2 549.2,257.0 549.9,256.9 550.5,256.6 551.1,256.5 551.7,256.6 552.3,256.7 553.0,256.6 553.6,256.7 554.2,256.5 554.8,256.5 555.4,257.4 556.1,257.4 556.7,257.6 557.3,257.4 557.9,257.7 558.5,257.7 559.2,257.9 559.8,257.7 560.4,260.0 561.0,260.1 561.6,260.0 562.3,259.9 562.9,259.8 563.5,259.7 564.1,259.6 564.7,259.7 565.4,260.0 566.0,259.9 566.6,260.2 567.2,260.2 567.8,260.3 568.5,260.3 569.1,260.4 569.7,260.4 570.3,260.2 570.9,260.0 571.6,260.1 572.2,259.9 572.8,257.5 573.4,257.6 574.0,257.6 574.7,257.6 575.3,257.1 575.9,257.1 576.5,257.2 577.1,257.2 577.8,257.3 578.4,257.2 579.0,257.3 579.6,257.2 580.2,256.8 580.9,256.7 581.5,256.5 582.1,256.5 582.7,256.8 583.3,256.5 584.0,256.4 584.6,256.4 585.2,256.2 585.8,256.1 586.4,255.9 587.1,256.0 587.7,256.1 588.3,256.1 588.9,256.0 589.5,256.2 590.2,255.7 590.8,255.7 591.4,255.7 592.0,255.9 592.6,256.2 593.3,256.3 593.9,256.5 594.5,256.4 595.1,255.4 595.7,255.2 596.4,254.9 597.0,255.1 597.6,257.2 598.2,257.0 598.8,256.9 599.5,256.8 600.1,257.8 600.7,257.6 601.3,257.2 601.9,257.2 602.6,257.7 603.2,257.7 603.8,257.5 604.4,257.4 605.0,258.0 605.7,257.9 606.3,257.9 606.9,257.7 607.5,257.2 608.1,257.4 608.8,257.4 609.4,257.4 610.0,260.5 610.6,260.4 611.2,260.4 611.9,260.3 612.5,260.7 613.1,260.7 613.7,260.5 614.3,260.5 615.0,260.5 615.6,260.7 616.2,260.7 616.8,261.0 617.4,260.7 618.1,260.6 618.7,260.8 619.3,261.0 619.9,260.7 620.5,260.8 621.2,260.9 621.8,261.2 622.4,267.9 623.0,267.9 623.6,267.7 624.3,267.8 624.9,268.9 625.5,269.0 626.1,268.9 626.7,268.9 627.4,269.3 628.0,269.1 628.6,269.2 629.2,269.2 629.8,269.8 630.5,269.7 631.1,269.6 631.7,269.6 632.3,269.9 632.9,269.8 633.6,269.9 634.2,269.8 634.8,264.7 635.4,264.7 636.0,264.7 636.7,264.7 637.3,264.8 637.9,264.8 638.5,264.7 639.1,264.7 639.8,264.3 640.4,264.0 641.0,263.9 641.6,264.2 642.2,263.3 642.9,263.2 643.5,263.2 644.1,263.2 644.7,264.2 645.3,264.2 646.0,264.0 646.6,263.8 647.2,267.8 647.8,267.8 648.4,267.7 649.1,267.5 649.7,267.3 650.3,267.3 650.9,267.4 651.5,267.2 652.2,266.7 652.8,266.6 653.4,266.4 654.0,266.3 654.6,266.4 655.3,266.3 655.9,266.6 656.5,266.4 657.1,266.6 657.7,266.6 658.4,266.5 659.0,266.5 659.6,268.9 660.2,269.1 660.8,269.1 661.5,269.0 662.1,268.7 662.7,268.7 663.3,268.4 663.9,268.3 664.6,270.6 665.2,270.5 665.8,270.5 666.4,270.6 667.0,271.0 667.7,271.2 668.3,271.1 668.9,271.0 669.5,270.0 670.1,270.2 670.8,270.4 671.4,270.5 672.0,271.7 672.6,271.6 673.2,271.6 673.9,271.4 674.5,271.5 675.1,271.5 675.7,271.5 676.3,271.6 677.0,272.0 677.6,272.0 678.2,271.9 678.8,271.7 679.4,271.3 680.1,271.3 680.7,271.3 681.3,271.3 681.9,271.4 682.5,271.2 683.2,271.5 683.8,271.2 684.4,268.9 685.0,268.9 685.6,269.0 686.3,269.1 686.9,269.0 687.5,268.9 688.1,268.7 688.7,268.6 689.4,268.8 690.0,268.5 690.6,268.4 691.2,268.6 691.8,268.8 692.5,268.5 693.1,268.4 693.7,268.4 694.3,267.5 694.9,267.8 695.6,267.8 696.2,267.5 696.8,269.3 697.4,269.3 698.0,269.1 698.7,269.2 699.3,267.5 699.9,267.3 700.5,267.3 701.1,267.3 701.8,266.1 702.4,266.0 703.0,266.1 703.6,266.0 704.2,268.3 704.9,268.4 705.5,268.4 706.1,268.5 706.7,269.0 707.3,268.9 708.0,269.0 708.6,268.8 709.2,270.8 709.8,270.7 710.4,270.6 711.1,270.4 711.7,271.2 712.3,271.5 712.9,271.7 713.5,271.7 714.2,272.9 714.8,272.9 715.4,273.0 716.0,273.1 716.6,272.3 717.3,272.5 717.9,272.1 718.5,272.0 719.1,272.3 719.7,272.2 720.4,272.2 721.0,271.9 721.6,271.4 722.2,271.5 722.8,271.3 723.5,271.2 724.1,271.6 724.7,271.4 725.3,271.5 725.9,271.4 726.6,270.7 727.2,270.7 727.8,270.6 728.4,270.5 729.0,271.4 729.7,271.4 730.3,271.1 730.9,271.1 731.5,271.2 732.1,271.1 732.8,271.0 733.4,270.8 734.0,269.7 734.6,269.7 735.2,269.7 735.9,269.8 736.5,270.0 737.1,270.1 737.7,270.0 738.3,270.0 739.0,269.9 739.6,270.0 740.2,269.8 740.8,269.7 741.4,269.8 742.1,269.9 742.7,270.0 743.3,269.9 743.9,269.7 744.5,269.7 745.2,269.7 745.8,269.7 746.4,268.5 747.0,268.6 747.6,268.2 748.3,268.2 748.9,268.0 749.5,267.9 750.1,267.9 750.7,268.0 751.4,267.9 752.0,268.0 752.6,267.9 753.2,268.0 753.8,268.0 754.5,268.2 755.1,267.9 755.7,267.7 756.3,267.2 756.9,267.0 757.6,267.1 758.2,267.2 758.8,273.4 759.4,273.3 760.0,273.5 760.7,273.4 761.3,274.0 761.9,273.9 762.5,273.9 763.1,273.7 763.8,273.2 764.4,273.0 765.0,272.9 765.6,272.7 766.2,272.7 766.9,272.6 767.5,272.6 768.1,272.5 768.7,271.9 769.3,271.8 770.0,272.0 770.6,272.1 771.2,272.3 771.8,272.4 772.4,272.5 773.1,272.4 773.7,271.9 774.3,272.0 774.9,271.8 775.5,271.9 776.2,272.7 776.8,272.7 777.4,272.6 778.0,272.6 778.6,270.2 779.3,270.1 779.9,270.1 780.5,270.1 781.1,269.8 781.7,270.1 782.4,270.1 783.0,270.1 783.6,269.5 784.2,269.5 784.8,269.5 785.5,269.5 786.1,270.5 786.7,270.3 787.3,270.2 787.9,270.0 788.6,269.6 789.2,269.5 789.8,269.5 790.4,269.4 791.0,268.3 791.7,268.4 792.3,268.2 792.9,268.3 793.5,269.4 794.1,269.2 794.8,269.1 795.4,269.1 796.0,265.8"/>
<text x="640" y="56" font-family="Arial" font-size="12" fill="#0f766e">ekf_nominal velocity error</text>
</svg>