<svg xmlns="http://www.w3.org/2000/svg" width="820" height="320" viewBox="0 0 820 320">
<rect width="100%" height="100%" fill="white"/>
<text x="52" y="30" font-family="Arial" font-size="18" font-weight="700">robust_nominal altitude</text>
<line x1="52" y1="274" x2="796" y2="274" stroke="#263238"/>
<line x1="52" y1="42" x2="52" y2="274" stroke="#263238"/>
<text x="52" y="306" font-family="Arial" font-size="12">time (s)</text>
<text x="630" y="306" font-family="Arial" font-size="12">m</text>

<rect x="370.9" y="42" width="79.7" height="232" fill="#fef3c7" opacity="0.72"/>
<polyline fill="none" stroke="#0f766e" stroke-width="2.3" points="52.0,242.9 53.8,242.8 55.5,242.6 57.3,242.5 59.1,242.3 60.9,242.1 62.6,242.0 64.4,241.8 66.2,241.6 67.9,241.5 69.7,241.3 71.5,241.2 73.3,241.0 75.0,240.8 76.8,240.7 78.6,240.5 80.3,240.3 82.1,240.2 83.9,240.0 85.7,239.8 87.4,239.7 89.2,239.5 91.0,239.3 92.7,239.2 94.5,239.0 96.3,238.8 98.1,238.7 99.8,238.5 101.6,238.3 103.4,238.1 105.1,238.0 106.9,237.8 108.7,237.6 110.5,237.4 112.2,237.2 114.0,237.1 115.8,236.9 117.5,236.7 119.3,236.5 121.1,236.3 122.9,236.1 124.6,235.9 126.4,235.7 128.2,235.5 129.9,235.3 131.7,235.1 133.5,234.9 135.3,234.7 137.0,234.5 138.8,234.3 140.6,234.1 142.3,233.9 144.1,233.7 145.9,233.5 147.7,233.3 149.4,233.1 151.2,232.9 153.0,232.6 154.7,232.4 156.5,232.2 158.3,232.0 160.1,231.8 161.8,231.5 163.6,231.3 165.4,231.1 167.1,230.8 168.9,230.6 170.7,230.3 172.5,230.1 174.2,229.9 176.0,229.6 177.8,229.4 179.5,229.1 181.3,228.9 183.1,228.6 184.9,228.3 186.6,228.1 188.4,227.8 190.2,227.5 191.9,227.3 193.7,227.0 195.5,226.7 197.3,226.4 199.0,226.2 200.8,225.9 202.6,225.6 204.3,225.3 206.1,225.0 207.9,224.7 209.7,224.4 211.4,224.1 213.2,223.8 215.0,223.5 216.7,223.2 218.5,222.9 220.3,222.6 222.1,222.3 223.8,222.0 225.6,221.6 227.4,221.3 229.1,221.0 230.9,220.6 232.7,220.3 234.5,220.0 236.2,219.6 238.0,219.3 239.8,218.9 241.5,218.6 243.3,218.2 245.1,217.9 246.9,217.5 248.6,217.2 250.4,216.8 252.2,216.4 253.9,216.1 255.7,215.7 257.5,215.3 259.3,214.9 261.0,214.5 262.8,214.2 264.6,213.8 266.3,213.4 268.1,213.0 269.9,212.6 271.7,212.2 273.4,211.8 275.2,211.4 277.0,210.9 278.7,210.5 280.5,210.1 282.3,209.7 284.1,209.3 285.8,208.8 287.6,208.4 289.4,208.0 291.1,207.5 292.9,207.1 294.7,206.6 296.5,206.2 298.2,205.7 300.0,205.3 301.8,204.8 303.5,204.4 305.3,203.9 307.1,203.4 308.9,203.0 310.6,202.5 312.4,202.0 314.2,201.5 315.9,201.1 317.7,200.6 319.5,200.1 321.3,199.6 323.0,199.1 324.8,198.6 326.6,198.1 328.3,197.6 330.1,197.1 331.9,196.6 333.7,196.1 335.4,195.5 337.2,195.0 339.0,194.5 340.7,194.0 342.5,193.4 344.3,192.9 346.1,192.4 347.8,191.8 349.6,191.3 351.4,190.8 353.1,190.2 354.9,189.7 356.7,189.1 358.5,188.6 360.2,188.0 362.0,187.4 363.8,186.9 365.5,186.3 367.3,185.7 369.1,185.2 370.9,184.6 372.6,184.0 374.4,183.4 376.2,182.9 377.9,182.3 379.7,181.7 381.5,181.1 383.3,180.5 385.0,179.9 386.8,179.3 388.6,178.7 390.3,178.1 392.1,177.5 393.9,176.9 395.7,176.3 397.4,175.7 399.2,175.0 401.0,174.4 402.7,173.8 404.5,173.2 406.3,172.6 408.1,171.9 409.8,171.3 411.6,170.7 413.4,170.1 415.1,169.4 416.9,168.8 418.7,168.1 420.5,167.5 422.2,166.9 424.0,166.2 425.8,165.6 427.5,164.9 429.3,164.3 431.1,163.6 432.9,163.0 434.6,162.3 436.4,161.7 438.2,161.0 439.9,160.3 441.7,159.7 443.5,159.0 445.3,158.4 447.0,157.7 448.8,157.0 450.6,156.3 452.3,155.7 454.1,155.0 455.9,154.3 457.7,153.7 459.4,153.0 461.2,152.3 463.0,151.6 464.7,150.9 466.5,150.3 468.3,149.6 470.1,148.9 471.8,148.2 473.6,147.5 475.4,146.9 477.1,146.2 478.9,145.5 480.7,144.8 482.5,144.1 484.2,143.4 486.0,142.7 487.8,142.0 489.5,141.3 491.3,140.6 493.1,140.0 494.9,139.3 496.6,138.6 498.4,137.9 500.2,137.2 501.9,136.5 503.7,135.8 505.5,135.1 507.3,134.4 509.0,133.7 510.8,133.0 512.6,132.3 514.3,131.6 516.1,130.9 517.9,130.2 519.7,129.5 521.4,128.8 523.2,128.1 525.0,127.4 526.7,126.7 528.5,126.1 530.3,125.4 532.1,124.7 533.8,124.0 535.6,123.3 537.4,122.6 539.1,121.9 540.9,121.2 542.7,120.5 544.5,119.8 546.2,119.1 548.0,118.4 549.8,117.7 551.5,117.1 553.3,116.4 555.1,115.7 556.9,115.0 558.6,114.3 560.4,113.6 562.2,112.9 563.9,112.3 565.7,111.6 567.5,110.9 569.3,110.2 571.0,109.5 572.8,108.9 574.6,108.2 576.3,107.5 578.1,106.8 579.9,106.2 581.7,105.5 583.4,104.8 585.2,104.1 587.0,103.5 588.7,102.8 590.5,102.1 592.3,101.5 594.1,100.8 595.8,100.2 597.6,99.5 599.4,98.9 601.1,98.2 602.9,97.5 604.7,96.9 606.5,96.2 608.2,95.6 610.0,95.0 611.8,94.3 613.5,93.7 615.3,93.0 617.1,92.4 618.9,91.8 620.6,91.1 622.4,90.5 624.2,89.9 625.9,89.2 627.7,88.6 629.5,88.0 631.3,87.4 633.0,86.8 634.8,86.1 636.6,85.5 638.3,84.9 640.1,84.3 641.9,83.7 643.7,83.1 645.4,82.5 647.2,81.9 649.0,81.3 650.7,80.7 652.5,80.1 654.3,79.5 656.1,78.9 657.8,78.3 659.6,77.8 661.4,77.2 663.1,76.6 664.9,76.0 666.7,75.5 668.5,74.9 670.2,74.3 672.0,73.8 673.8,73.2 675.5,72.7 677.3,72.1 679.1,71.5 680.9,71.0 682.6,70.5 684.4,69.9 686.2,69.4 687.9,68.8 689.7,68.3 691.5,67.8 693.3,67.2 695.0,66.7 696.8,66.2 698.6,65.7 700.3,65.2 702.1,64.7 703.9,64.1 705.7,63.6 707.4,63.1 709.2,62.6 711.0,62.1 712.7,61.6 714.5,61.1 716.3,60.7 718.1,60.2 719.8,59.7 721.6,59.2 723.4,58.7 725.1,58.3 726.9,57.8 728.7,57.3 730.5,56.9 732.2,56.4 734.0,56.0 735.8,55.5 737.5,55.1 739.3,54.6 741.1,54.2 742.9,53.7 744.6,53.3 746.4,52.9 748.2,52.4 749.9,52.0 751.7,51.6 753.5,51.1 755.3,50.7 757.0,50.3 758.8,49.9 760.6,49.5 762.3,49.1 764.1,48.7 765.9,48.3 767.7,47.9 769.4,47.5 771.2,47.1 773.0,46.7 774.7,46.3 776.5,46.0 778.3,45.6 780.1,45.2 781.8,44.8 783.6,44.5 785.4,44.1 787.1,43.8 788.9,43.4 790.7,43.0 792.5,42.7 794.2,42.3 796.0,42.0"/>
<text x="640" y="56" font-family="Arial" font-size="12" fill="#0f766e">truth</text>
<polyline fill="none" stroke="#2563eb" stroke-width="2.3" points="52.0,230.6 53.8,230.3 55.5,229.9 57.3,229.6 59.1,229.3 60.9,258.3 62.6,262.2 64.4,266.1 66.2,270.1 67.9,274.0 69.7,259.6 71.5,261.7 73.3,263.8 75.0,266.0 76.8,268.1 78.6,244.7 80.3,244.8 82.1,244.9 83.9,245.0 85.7,245.1 87.4,244.4 89.2,244.4 91.0,244.5 92.7,244.5 94.5,244.5 96.3,234.7 98.1,234.2 99.8,233.6 101.6,233.0 103.4,232.4 105.1,234.9 106.9,234.5 108.7,234.0 110.5,233.5 112.2,233.0 114.0,233.3 115.8,232.8 117.5,232.3 119.3,231.8 121.1,231.4 122.9,227.7 124.6,227.1 126.4,226.4 128.2,225.7 129.9,224.9 131.7,219.0 133.5,218.0 135.3,216.9 137.0,215.9 138.8,214.8 140.6,211.1 142.3,209.8 144.1,208.5 145.9,207.2 147.7,205.8 149.4,216.4 151.2,215.7 153.0,215.0 154.7,214.2 156.5,213.5 158.3,217.3 160.1,216.8 161.8,216.3 163.6,215.8 165.4,215.3 167.1,221.6 168.9,221.4 170.7,221.2 172.5,221.1 174.2,220.9 176.0,213.3 177.8,212.8 179.5,212.3 181.3,211.8 183.1,211.3 184.9,218.1 186.6,217.9 188.4,217.7 190.2,217.6 191.9,217.5 193.7,214.6 195.5,214.3 197.3,214.1 199.0,213.8 200.8,213.6 202.6,220.2 204.3,220.3 206.1,220.3 207.9,220.4 209.7,220.5 211.4,218.8 213.2,218.8 215.0,218.9 216.7,218.9 218.5,219.0 220.3,223.3 222.1,223.6 223.8,223.8 225.6,224.1 227.4,224.4 229.1,232.8 230.9,233.5 232.7,234.1 234.5,234.8 236.2,235.5 238.0,228.2 239.8,228.6 241.5,229.0 243.3,229.4 245.1,229.9 246.9,234.9 248.6,235.5 250.4,236.1 252.2,236.8 253.9,237.4 255.7,228.6 257.5,228.9 259.3,229.3 261.0,229.6 262.8,230.0 264.6,231.7 266.3,232.1 268.1,232.6 269.9,233.0 271.7,233.5 273.4,224.7 275.2,224.9 277.0,225.1 278.7,225.2 280.5,225.4 282.3,217.4 284.1,217.3 285.8,217.3 287.6,217.2 289.4,217.1 291.1,210.3 292.9,210.0 294.7,209.7 296.5,209.5 298.2,209.2 300.0,210.4 301.8,210.1 303.5,209.9 305.3,209.6 307.1,209.4 308.9,206.2 310.6,205.9 312.4,205.5 314.2,205.2 315.9,204.8 317.7,201.0 319.5,200.6 321.3,200.1 323.0,199.6 324.8,199.2 326.6,206.4 328.3,206.1 330.1,205.8 331.9,205.6 333.7,205.3 335.4,209.6 337.2,209.4 339.0,209.3 340.7,209.1 342.5,208.9 344.3,214.3 346.1,214.3 347.8,214.2 349.6,214.2 351.4,214.2 353.1,210.2 354.9,210.1 356.7,210.0 358.5,209.9 360.2,209.9 362.0,206.6 363.8,206.5 365.5,206.3 367.3,206.2 369.1,206.0 370.9,199.1 372.6,198.8 374.4,198.5 376.2,198.2 377.9,197.9 379.7,191.3 381.5,190.8 383.3,190.4 385.0,190.0 386.8,189.5 388.6,188.5 390.3,188.1 392.1,187.6 393.9,187.2 395.7,186.7 397.4,193.3 399.2,193.0 401.0,192.7 402.7,192.4 404.5,192.0 406.3,186.4 408.1,185.9 409.8,185.5 411.6,185.1 413.4,184.7 415.1,179.5 416.9,179.0 418.7,178.4 420.5,177.9 422.2,177.4 424.0,171.6 425.8,171.0 427.5,170.3 429.3,169.6 431.1,169.0 432.9,175.8 434.6,175.3 436.4,174.8 438.2,174.3 439.9,173.8 441.7,170.2 443.5,169.6 445.3,169.0 447.0,168.5 448.8,167.9 450.6,170.3 452.3,169.8 454.1,169.3 455.9,168.7 457.7,168.2 459.4,164.5 461.2,163.9 463.0,163.3 464.7,162.7 466.5,162.1 468.3,156.4 470.1,155.7 471.8,155.0 473.6,154.2 475.4,153.5 477.1,147.1 478.9,146.2 480.7,145.4 482.5,144.6 484.2,143.8 486.0,138.7 487.8,137.8 489.5,136.9 491.3,136.0 493.1,135.1 494.9,135.1 496.6,134.2 498.4,133.3 500.2,132.4 501.9,131.6 503.7,131.4 505.5,130.5 507.3,129.6 509.0,128.7 510.8,127.8 512.6,131.0 514.3,130.2 516.1,129.4 517.9,128.6 519.7,127.7 521.4,126.5 523.2,125.7 525.0,124.8 526.7,124.0 528.5,123.1 530.3,128.8 532.1,128.1 533.8,127.3 535.6,126.6 537.4,125.8 539.1,120.5 540.9,119.7 542.7,118.9 544.5,118.0 546.2,117.2 548.0,110.9 549.8,109.9 551.5,109.0 553.3,108.0 555.1,107.1 556.9,108.8 558.6,107.9 560.4,107.0 562.2,106.1 563.9,105.2 565.7,109.8 567.5,108.9 569.3,108.1 571.0,107.3 572.8,106.5 574.6,101.3 576.3,100.3 578.1,99.4 579.9,98.5 581.7,97.6 583.4,96.8 585.2,95.9 587.0,95.0 588.7,94.1 590.5,93.2 592.3,93.5 594.1,92.7 595.8,91.8 597.6,90.9 599.4,90.0 601.1,94.4 602.9,93.6 604.7,92.8 606.5,92.0 608.2,91.1 610.0,88.3 611.8,87.5 613.5,86.6 615.3,85.8 617.1,85.0 618.9,89.1 620.6,88.4 622.4,87.7 624.2,86.9 625.9,86.2 627.7,84.8 629.5,84.0 631.3,83.3 633.0,82.6 634.8,81.9 636.6,78.1 638.3,77.3 640.1,76.5 641.9,75.8 643.7,75.0 645.4,79.4 647.2,78.8 649.0,78.1 650.7,77.4 652.5,76.8 654.3,77.1 656.1,76.4 657.8,75.8 659.6,75.1 661.4,74.5 663.1,74.2 664.9,73.6 666.7,72.9 668.5,72.3 670.2,71.7 672.0,75.7 673.8,75.2 675.5,74.6 677.3,74.1 679.1,73.5 680.9,74.7 682.6,74.2 684.4,73.7 686.2,73.2 687.9,72.7 689.7,77.3 691.5,76.9 693.3,76.5 695.0,76.2 696.8,75.8 698.6,74.0 700.3,73.6 702.1,73.2 703.9,72.8 705.7,72.4 707.4,72.5 709.2,72.1 711.0,71.7 712.7,71.3 714.5,71.0 716.3,70.9 718.1,70.6 719.8,70.2 721.6,69.9 723.4,69.6 725.1,66.3 726.9,65.9 728.7,65.5 730.5,65.2 732.2,64.8 734.0,66.0 735.8,65.7 737.5,65.3 739.3,65.0 741.1,64.7 742.9,65.4 744.6,65.0 746.4,64.7 748.2,64.4 749.9,64.1 751.7,61.4 753.5,61.1 755.3,60.7 757.0,60.4 758.8,60.0 760.6,56.0 762.3,55.6 764.1,55.2 765.9,54.8 767.7,54.4 769.4,50.8 771.2,50.3 773.0,49.8 774.7,49.4 776.5,48.9 778.3,46.6 780.1,46.1 781.8,45.6 783.6,45.2 785.4,44.7 787.1,48.8 788.9,48.5 790.7,48.1 792.5,47.7 794.2,47.3 796.0,49.5"/>
<text x="640" y="72" font-family="Arial" font-size="12" fill="#2563eb">estimate</text>
</svg>