<svg xmlns="http://www.w3.org/2000/svg" width="820" height="320" viewBox="0 0 820 320">
<rect width="100%" height="100%" fill="white"/>
<text x="52" y="30" font-family="Arial" font-size="18" font-weight="700">adaptive_nominal altitude</text>
<line x1="52" y1="274" x2="796" y2="274" stroke="#263238"/>
<line x1="52" y1="42" x2="52" y2="274" stroke="#263238"/>
<text x="52" y="306" font-family="Arial" font-size="12">time (s)</text>
<text x="630" y="306" font-family="Arial" font-size="12">m</text>

<rect x="370.9" y="42" width="79.7" height="232" fill="#fef3c7" opacity="0.72"/>
<polyline fill="none" stroke="#0f766e" stroke-width="2.3" points="52.0,227.5 53.8,227.3 55.5,227.2 57.3,227.0 59.1,226.9 60.9,226.7 62.6,226.6 64.4,226.4 66.2,226.3 67.9,226.1 69.7,226.0 71.5,225.8 73.3,225.7 75.0,225.5 76.8,225.4 78.6,225.2 80.3,225.1 82.1,224.9 83.9,224.8 85.7,224.6 87.4,224.5 89.2,224.3 91.0,224.2 92.7,224.0 94.5,223.8 96.3,223.7 98.1,223.5 99.8,223.4 101.6,223.2 103.4,223.0 105.1,222.9 106.9,222.7 108.7,222.5 110.5,222.4 112.2,222.2 114.0,222.0 115.8,221.9 117.5,221.7 119.3,221.5 121.1,221.4 122.9,221.2 124.6,221.0 126.4,220.8 128.2,220.6 129.9,220.5 131.7,220.3 133.5,220.1 135.3,219.9 137.0,219.7 138.8,219.5 140.6,219.4 142.3,219.2 144.1,219.0 145.9,218.8 147.7,218.6 149.4,218.4 151.2,218.2 153.0,218.0 154.7,217.8 156.5,217.6 158.3,217.4 160.1,217.2 161.8,216.9 163.6,216.7 165.4,216.5 167.1,216.3 168.9,216.1 170.7,215.9 172.5,215.6 174.2,215.4 176.0,215.2 177.8,214.9 179.5,214.7 181.3,214.5 183.1,214.2 184.9,214.0 186.6,213.8 188.4,213.5 190.2,213.3 191.9,213.0 193.7,212.8 195.5,212.5 197.3,212.3 199.0,212.0 200.8,211.7 202.6,211.5 204.3,211.2 206.1,210.9 207.9,210.7 209.7,210.4 211.4,210.1 213.2,209.8 215.0,209.6 216.7,209.3 218.5,209.0 220.3,208.7 222.1,208.4 223.8,208.1 225.6,207.8 227.4,207.5 229.1,207.2 230.9,206.9 232.7,206.6 234.5,206.3 236.2,206.0 238.0,205.7 239.8,205.3 241.5,205.0 243.3,204.7 245.1,204.4 246.9,204.0 248.6,203.7 250.4,203.4 252.2,203.0 253.9,202.7 255.7,202.3 257.5,202.0 259.3,201.6 261.0,201.3 262.8,200.9 264.6,200.6 266.3,200.2 268.1,199.8 269.9,199.5 271.7,199.1 273.4,198.7 275.2,198.3 277.0,197.9 278.7,197.6 280.5,197.2 282.3,196.8 284.1,196.4 285.8,196.0 287.6,195.6 289.4,195.2 291.1,194.8 292.9,194.4 294.7,194.0 296.5,193.6 298.2,193.1 300.0,192.7 301.8,192.3 303.5,191.9 305.3,191.5 307.1,191.0 308.9,190.6 310.6,190.1 312.4,189.7 314.2,189.3 315.9,188.8 317.7,188.4 319.5,187.9 321.3,187.5 323.0,187.0 324.8,186.5 326.6,186.1 328.3,185.6 330.1,185.2 331.9,184.7 333.7,184.2 335.4,183.7 337.2,183.2 339.0,182.8 340.7,182.3 342.5,181.8 344.3,181.3 346.1,180.8 347.8,180.3 349.6,179.8 351.4,179.3 353.1,178.8 354.9,178.3 356.7,177.8 358.5,177.3 360.2,176.8 362.0,176.2 363.8,175.7 365.5,175.2 367.3,174.7 369.1,174.1 370.9,173.6 372.6,173.1 374.4,172.5 376.2,172.0 377.9,171.5 379.7,170.9 381.5,170.4 383.3,169.8 385.0,169.3 386.8,168.7 388.6,168.2 390.3,167.6 392.1,167.1 393.9,166.5 395.7,165.9 397.4,165.4 399.2,164.8 401.0,164.2 402.7,163.7 404.5,163.1 406.3,162.5 408.1,161.9 409.8,161.4 411.6,160.8 413.4,160.2 415.1,159.6 416.9,159.0 418.7,158.4 420.5,157.8 422.2,157.3 424.0,156.7 425.8,156.1 427.5,155.5 429.3,154.9 431.1,154.3 432.9,153.7 434.6,153.1 436.4,152.5 438.2,151.8 439.9,151.2 441.7,150.6 443.5,150.0 445.3,149.4 447.0,148.8 448.8,148.2 450.6,147.5 452.3,146.9 454.1,146.3 455.9,145.7 457.7,145.1 459.4,144.4 461.2,143.8 463.0,143.2 464.7,142.6 466.5,141.9 468.3,141.3 470.1,140.7 471.8,140.0 473.6,139.4 475.4,138.8 477.1,138.2 478.9,137.5 480.7,136.9 482.5,136.2 484.2,135.6 486.0,135.0 487.8,134.3 489.5,133.7 491.3,133.1 493.1,132.4 494.9,131.8 496.6,131.1 498.4,130.5 500.2,129.9 501.9,129.2 503.7,128.6 505.5,127.9 507.3,127.3 509.0,126.7 510.8,126.0 512.6,125.4 514.3,124.7 516.1,124.1 517.9,123.4 519.7,122.8 521.4,122.2 523.2,121.5 525.0,120.9 526.7,120.2 528.5,119.6 530.3,118.9 532.1,118.3 533.8,117.7 535.6,117.0 537.4,116.4 539.1,115.7 540.9,115.1 542.7,114.5 544.5,113.8 546.2,113.2 548.0,112.5 549.8,111.9 551.5,111.3 553.3,110.6 555.1,110.0 556.9,109.4 558.6,108.7 560.4,108.1 562.2,107.5 563.9,106.8 565.7,106.2 567.5,105.6 569.3,105.0 571.0,104.3 572.8,103.7 574.6,103.1 576.3,102.5 578.1,101.8 579.9,101.2 581.7,100.6 583.4,100.0 585.2,99.4 587.0,98.7 588.7,98.1 590.5,97.5 592.3,96.9 594.1,96.3 595.8,95.7 597.6,95.1 599.4,94.5 601.1,93.9 602.9,93.3 604.7,92.7 606.5,92.1 608.2,91.5 610.0,90.9 611.8,90.3 613.5,89.7 615.3,89.1 617.1,88.5 618.9,87.9 620.6,87.3 622.4,86.8 624.2,86.2 625.9,85.6 627.7,85.0 629.5,84.5 631.3,83.9 633.0,83.3 634.8,82.7 636.6,82.2 638.3,81.6 640.1,81.0 641.9,80.5 643.7,79.9 645.4,79.4 647.2,78.8 649.0,78.3 650.7,77.7 652.5,77.2 654.3,76.6 656.1,76.1 657.8,75.5 659.6,75.0 661.4,74.5 663.1,73.9 664.9,73.4 666.7,72.9 668.5,72.4 670.2,71.8 672.0,71.3 673.8,70.8 675.5,70.3 677.3,69.8 679.1,69.3 680.9,68.8 682.6,68.3 684.4,67.8 686.2,67.3 687.9,66.8 689.7,66.3 691.5,65.8 693.3,65.3 695.0,64.8 696.8,64.3 698.6,63.9 700.3,63.4 702.1,62.9 703.9,62.4 705.7,62.0 707.4,61.5 709.2,61.0 711.0,60.6 712.7,60.1 714.5,59.7 716.3,59.2 718.1,58.8 719.8,58.3 721.6,57.9 723.4,57.5 725.1,57.0 726.9,56.6 728.7,56.2 730.5,55.7 732.2,55.3 734.0,54.9 735.8,54.5 737.5,54.0 739.3,53.6 741.1,53.2 742.9,52.8 744.6,52.4 746.4,52.0 748.2,51.6 749.9,51.2 751.7,50.8 753.5,50.4 755.3,50.1 757.0,49.7 758.8,49.3 760.6,48.9 762.3,48.5 764.1,48.2 765.9,47.8 767.7,47.4 769.4,47.1 771.2,46.7 773.0,46.4 774.7,46.0 776.5,45.7 778.3,45.3 780.1,45.0 781.8,44.6 783.6,44.3 785.4,44.0 787.1,43.6 788.9,43.3 790.7,43.0 792.5,42.6 794.2,42.3 796.0,42.0"/>
<text x="640" y="56" font-family="Arial" font-size="12" fill="#0f766e">truth</text>
<polyline fill="none" stroke="#2563eb" stroke-width="2.3" points="52.0,216.2 53.8,215.9 55.5,215.6 57.3,215.3 59.1,215.0 60.9,253.0 62.6,258.2 64.4,263.5 66.2,268.7 67.9,274.0 69.7,250.5 71.5,252.7 73.3,254.8 75.0,256.9 76.8,259.0 78.6,232.2 80.3,232.0 82.1,231.7 83.9,231.5 85.7,231.3 87.4,229.5 89.2,229.2 91.0,228.8 92.7,228.4 94.5,228.1 96.3,219.6 98.1,218.8 99.8,217.9 101.6,217.1 103.4,216.2 105.1,219.0 106.9,218.3 108.7,217.6 110.5,216.9 112.2,216.1 114.0,217.1 115.8,216.5 117.5,215.8 119.3,215.1 121.1,214.4 122.9,212.0 124.6,211.2 126.4,210.4 128.2,209.6 129.9,208.8 131.7,204.1 133.5,203.0 135.3,202.0 137.0,200.9 138.8,199.8 140.6,196.9 142.3,195.7 144.1,194.5 145.9,193.2 147.7,192.0 149.4,211.6 151.2,211.5 153.0,211.3 154.7,211.2 156.5,211.1 158.3,209.5 160.1,209.4 161.8,209.2 163.6,209.1 165.4,209.0 167.1,211.7 168.9,211.8 170.7,211.8 172.5,211.9 174.2,211.9 176.0,203.1 177.8,202.7 179.5,202.3 181.3,202.0 183.1,201.6 184.9,206.6 186.6,206.5 188.4,206.4 190.2,206.3 191.9,206.3 193.7,202.7 195.5,202.5 197.3,202.3 199.0,202.1 200.8,201.9 202.6,207.6 204.3,207.6 206.1,207.7 207.9,207.8 209.7,207.9 211.4,205.9 213.2,205.9 215.0,206.0 216.7,206.0 218.5,206.1 220.3,209.9 222.1,210.1 223.8,210.4 225.6,210.6 227.4,210.9 229.1,218.6 230.9,219.2 232.7,219.8 234.5,220.5 236.2,221.1 238.0,205.3 239.8,205.3 241.5,205.4 243.3,205.4 245.1,205.5 246.9,212.5 248.6,212.8 250.4,213.1 252.2,213.5 253.9,213.8 255.7,208.9 257.5,209.1 259.3,209.2 261.0,209.4 262.8,209.6 264.6,212.9 266.3,213.2 268.1,213.5 269.9,213.8 271.7,214.1 273.4,206.0 275.2,206.1 277.0,206.1 278.7,206.2 280.5,206.2 282.3,201.1 284.1,201.0 285.8,200.8 287.6,200.8 289.4,200.7 291.1,183.1 292.9,182.5 294.7,181.9 296.5,181.2 298.2,180.6 300.0,184.2 301.8,183.6 303.5,183.1 305.3,182.5 307.1,182.0 308.9,182.7 310.6,182.1 312.4,181.6 314.2,181.0 315.9,180.5 317.7,180.2 319.5,179.7 321.3,179.1 323.0,178.6 324.8,178.0 326.6,184.7 328.3,184.3 330.1,184.0 331.9,183.6 333.7,183.2 335.4,188.2 337.2,188.0 339.0,187.7 340.7,187.5 342.5,187.2 344.3,196.9 346.1,196.9 347.8,196.9 349.6,196.9 351.4,196.9 353.1,194.8 354.9,194.8 356.7,194.7 358.5,194.7 360.2,194.7 362.0,192.7 363.8,192.7 365.5,192.6 367.3,192.6 369.1,192.5 370.9,187.3 372.6,187.1 374.4,187.0 376.2,186.9 377.9,186.7 379.7,178.3 381.5,178.0 383.3,177.7 385.0,177.4 386.8,177.1 388.6,176.5 390.3,176.2 392.1,175.9 393.9,175.6 395.7,175.3 397.4,180.6 399.2,180.4 401.0,180.2 402.7,180.0 404.5,179.8 406.3,170.1 408.1,169.7 409.8,169.4 411.6,169.0 413.4,168.6 415.1,165.8 416.9,165.3 418.7,164.9 420.5,164.4 422.2,164.0 424.0,154.1 425.8,153.5 427.5,152.8 429.3,152.2 431.1,151.6 432.9,157.6 434.6,157.1 436.4,156.5 438.2,156.0 439.9,155.5 441.7,154.3 443.5,153.8 445.3,153.3 447.0,152.7 448.8,152.2 450.6,155.1 452.3,154.6 454.1,154.1 455.9,153.7 457.7,153.2 459.4,151.2 461.2,150.7 463.0,150.2 464.7,149.7 466.5,149.2 468.3,141.2 470.1,140.5 471.8,139.9 473.6,139.2 475.4,138.6 477.1,134.9 478.9,134.2 480.7,133.5 482.5,132.8 484.2,132.1 486.0,128.9 487.8,128.1 489.5,127.4 491.3,126.7 493.1,125.9 494.9,126.2 496.6,125.5 498.4,124.8 500.2,124.1 501.9,123.3 503.7,123.4 505.5,122.7 507.3,122.0 509.0,121.3 510.8,120.5 512.6,128.3 514.3,127.7 516.1,127.1 517.9,126.5 519.7,126.0 521.4,124.3 523.2,123.7 525.0,123.1 526.7,122.5 528.5,121.9 530.3,126.1 532.1,125.5 533.8,125.0 535.6,124.5 537.4,124.0 539.1,119.2 540.9,118.6 542.7,118.0 544.5,117.4 546.2,116.8 548.0,109.7 549.8,109.0 551.5,108.3 553.3,107.6 555.1,106.9 556.9,107.4 558.6,106.7 560.4,106.0 562.2,105.3 563.9,104.6 565.7,108.6 567.5,108.0 569.3,107.4 571.0,106.8 572.8,106.2 574.6,97.5 576.3,96.8 578.1,96.0 579.9,95.2 581.7,94.5 583.4,93.6 585.2,92.8 587.0,92.1 588.7,91.3 590.5,90.5 592.3,90.5 594.1,89.8 595.8,89.0 597.6,88.3 599.4,87.5 601.1,92.1 602.9,91.5 604.7,90.8 606.5,90.1 608.2,89.5 610.0,87.6 611.8,86.9 613.5,86.3 615.3,85.6 617.1,84.9 618.9,86.6 620.6,86.0 622.4,85.4 624.2,84.8 625.9,84.2 627.7,83.0 629.5,82.4 631.3,81.8 633.0,81.2 634.8,80.6 636.6,78.2 638.3,77.6 640.1,77.0 641.9,76.3 643.7,75.7 645.4,77.4 647.2,76.8 649.0,76.3 650.7,75.7 652.5,75.1 654.3,74.9 656.1,74.3 657.8,73.8 659.6,73.2 661.4,72.6 663.1,72.2 664.9,71.6 666.7,71.1 668.5,70.6 670.2,70.0 672.0,73.2 673.8,72.8 675.5,72.3 677.3,71.8 679.1,71.3 680.9,71.8 682.6,71.3 684.4,70.9 686.2,70.4 687.9,70.0 689.7,73.0 691.5,72.6 693.3,72.2 695.0,71.8 696.8,71.4 698.6,70.2 700.3,69.8 702.1,69.4 703.9,69.1 705.7,68.7 707.4,68.9 709.2,68.5 711.0,68.2 712.7,67.8 714.5,67.5 716.3,66.7 718.1,66.3 719.8,66.0 721.6,65.7 723.4,65.3 725.1,62.5 726.9,62.1 728.7,61.8 730.5,61.4 732.2,61.1 734.0,62.6 735.8,62.3 737.5,62.0 739.3,61.7 741.1,61.3 742.9,62.4 744.6,62.1 746.4,61.8 748.2,61.5 749.9,61.2 751.7,58.5 753.5,58.2 755.3,57.9 757.0,57.6 758.8,57.2 760.6,53.2 762.3,52.9 764.1,52.5 765.9,52.1 767.7,51.8 769.4,48.3 771.2,47.8 773.0,47.4 774.7,47.0 776.5,46.6 778.3,44.4 780.1,44.0 781.8,43.6 783.6,43.2 785.4,42.8 787.1,47.8 788.9,47.5 790.7,47.2 792.5,46.8 794.2,46.5 796.0,49.0"/>
<text x="640" y="72" font-family="Arial" font-size="12" fill="#2563eb">estimate</text>
</svg>