<svg xmlns="http://www.w3.org/2000/svg" width="820" height="320" viewBox="0 0 820 320">
<rect width="100%" height="100%" fill="white"/>
<text x="52" y="30" font-family="Arial" font-size="18" font-weight="700">abg_nominal altitude</text>
<line x1="52" y1="274" x2="796" y2="274" stroke="#263238"/>
<line x1="52" y1="42" x2="52" y2="274" stroke="#263238"/>
<text x="52" y="306" font-family="Arial" font-size="12">time (s)</text>
<text x="630" y="306" font-family="Arial" font-size="12">m</text>

<rect x="370.9" y="42" width="79.7" height="232" fill="#fef3c7" opacity="0.72"/>
<polyline fill="none" stroke="#0f766e" stroke-width="2.3" points="52.0,102.5 53.8,102.5 55.5,102.5 57.3,102.5 59.1,102.4 60.9,102.4 62.6,102.4 64.4,102.4 66.2,102.4 67.9,102.3 69.7,102.3 71.5,102.3 73.3,102.3 75.0,102.3 76.8,102.3 78.6,102.2 80.3,102.2 82.1,102.2 83.9,102.2 85.7,102.2 87.4,102.1 89.2,102.1 91.0,102.1 92.7,102.1 94.5,102.0 96.3,102.0 98.1,102.0 99.8,102.0 101.6,102.0 103.4,101.9 105.1,101.9 106.9,101.9 108.7,101.9 110.5,101.9 112.2,101.8 114.0,101.8 115.8,101.8 117.5,101.8 119.3,101.7 121.1,101.7 122.9,101.7 124.6,101.7 126.4,101.7 128.2,101.6 129.9,101.6 131.7,101.6 133.5,101.6 135.3,101.5 137.0,101.5 138.8,101.5 140.6,101.5 142.3,101.4 144.1,101.4 145.9,101.4 147.7,101.4 149.4,101.3 151.2,101.3 153.0,101.3 154.7,101.3 156.5,101.2 158.3,101.2 160.1,101.2 161.8,101.1 163.6,101.1 165.4,101.1 167.1,101.1 168.9,101.0 170.7,101.0 172.5,101.0 174.2,100.9 176.0,100.9 177.8,100.9 179.5,100.9 181.3,100.8 183.1,100.8 184.9,100.8 186.6,100.7 188.4,100.7 190.2,100.7 191.9,100.6 193.7,100.6 195.5,100.6 197.3,100.5 199.0,100.5 200.8,100.5 202.6,100.4 204.3,100.4 206.1,100.4 207.9,100.3 209.7,100.3 211.4,100.2 213.2,100.2 215.0,100.2 216.7,100.1 218.5,100.1 220.3,100.1 222.1,100.0 223.8,100.0 225.6,99.9 227.4,99.9 229.1,99.9 230.9,99.8 232.7,99.8 234.5,99.7 236.2,99.7 238.0,99.7 239.8,99.6 241.5,99.6 243.3,99.5 245.1,99.5 246.9,99.4 248.6,99.4 250.4,99.4 252.2,99.3 253.9,99.3 255.7,99.2 257.5,99.2 259.3,99.1 261.0,99.1 262.8,99.0 264.6,99.0 266.3,98.9 268.1,98.9 269.9,98.8 271.7,98.8 273.4,98.8 275.2,98.7 277.0,98.7 278.7,98.6 280.5,98.5 282.3,98.5 284.1,98.4 285.8,98.4 287.6,98.3 289.4,98.3 291.1,98.2 292.9,98.2 294.7,98.1 296.5,98.1 298.2,98.0 300.0,98.0 301.8,97.9 303.5,97.9 305.3,97.8 307.1,97.7 308.9,97.7 310.6,97.6 312.4,97.6 314.2,97.5 315.9,97.5 317.7,97.4 319.5,97.3 321.3,97.3 323.0,97.2 324.8,97.2 326.6,97.1 328.3,97.0 330.1,97.0 331.9,96.9 333.7,96.8 335.4,96.8 337.2,96.7 339.0,96.7 340.7,96.6 342.5,96.5 344.3,96.5 346.1,96.4 347.8,96.3 349.6,96.3 351.4,96.2 353.1,96.1 354.9,96.1 356.7,96.0 358.5,95.9 360.2,95.9 362.0,95.8 363.8,95.7 365.5,95.7 367.3,95.6 369.1,95.5 370.9,95.5 372.6,95.4 374.4,95.3 376.2,95.2 377.9,95.2 379.7,95.1 381.5,95.0 383.3,95.0 385.0,94.9 386.8,94.8 388.6,94.7 390.3,94.7 392.1,94.6 393.9,94.5 395.7,94.5 397.4,94.4 399.2,94.3 401.0,94.2 402.7,94.2 404.5,94.1 406.3,94.0 408.1,93.9 409.8,93.9 411.6,93.8 413.4,93.7 415.1,93.6 416.9,93.5 418.7,93.5 420.5,93.4 422.2,93.3 424.0,93.2 425.8,93.2 427.5,93.1 429.3,93.0 431.1,92.9 432.9,92.8 434.6,92.8 436.4,92.7 438.2,92.6 439.9,92.5 441.7,92.4 443.5,92.4 445.3,92.3 447.0,92.2 448.8,92.1 450.6,92.0 452.3,92.0 454.1,91.9 455.9,91.8 457.7,91.7 459.4,91.6 461.2,91.5 463.0,91.5 464.7,91.4 466.5,91.3 468.3,91.2 470.1,91.1 471.8,91.1 473.6,91.0 475.4,90.9 477.1,90.8 478.9,90.7 480.7,90.6 482.5,90.6 484.2,90.5 486.0,90.4 487.8,90.3 489.5,90.2 491.3,90.1 493.1,90.1 494.9,90.0 496.6,89.9 498.4,89.8 500.2,89.7 501.9,89.6 503.7,89.5 505.5,89.5 507.3,89.4 509.0,89.3 510.8,89.2 512.6,89.1 514.3,89.0 516.1,89.0 517.9,88.9 519.7,88.8 521.4,88.7 523.2,88.6 525.0,88.5 526.7,88.5 528.5,88.4 530.3,88.3 532.1,88.2 533.8,88.1 535.6,88.0 537.4,87.9 539.1,87.9 540.9,87.8 542.7,87.7 544.5,87.6 546.2,87.5 548.0,87.4 549.8,87.4 551.5,87.3 553.3,87.2 555.1,87.1 556.9,87.0 558.6,86.9 560.4,86.9 562.2,86.8 563.9,86.7 565.7,86.6 567.5,86.5 569.3,86.4 571.0,86.4 572.8,86.3 574.6,86.2 576.3,86.1 578.1,86.0 579.9,86.0 581.7,85.9 583.4,85.8 585.2,85.7 587.0,85.6 588.7,85.6 590.5,85.5 592.3,85.4 594.1,85.3 595.8,85.2 597.6,85.2 599.4,85.1 601.1,85.0 602.9,84.9 604.7,84.8 606.5,84.8 608.2,84.7 610.0,84.6 611.8,84.5 613.5,84.4 615.3,84.4 617.1,84.3 618.9,84.2 620.6,84.1 622.4,84.1 624.2,84.0 625.9,83.9 627.7,83.8 629.5,83.8 631.3,83.7 633.0,83.6 634.8,83.5 636.6,83.5 638.3,83.4 640.1,83.3 641.9,83.2 643.7,83.2 645.4,83.1 647.2,83.0 649.0,82.9 650.7,82.9 652.5,82.8 654.3,82.7 656.1,82.7 657.8,82.6 659.6,82.5 661.4,82.4 663.1,82.4 664.9,82.3 666.7,82.2 668.5,82.2 670.2,82.1 672.0,82.0 673.8,82.0 675.5,81.9 677.3,81.8 679.1,81.8 680.9,81.7 682.6,81.6 684.4,81.6 686.2,81.5 687.9,81.4 689.7,81.4 691.5,81.3 693.3,81.2 695.0,81.2 696.8,81.1 698.6,81.1 700.3,81.0 702.1,80.9 703.9,80.9 705.7,80.8 707.4,80.7 709.2,80.7 711.0,80.6 712.7,80.6 714.5,80.5 716.3,80.4 718.1,80.4 719.8,80.3 721.6,80.3 723.4,80.2 725.1,80.2 726.9,80.1 728.7,80.0 730.5,80.0 732.2,79.9 734.0,79.9 735.8,79.8 737.5,79.8 739.3,79.7 741.1,79.7 742.9,79.6 744.6,79.6 746.4,79.5 748.2,79.5 749.9,79.4 751.7,79.3 753.5,79.3 755.3,79.2 757.0,79.2 758.8,79.1 760.6,79.1 762.3,79.0 764.1,79.0 765.9,78.9 767.7,78.9 769.4,78.9 771.2,78.8 773.0,78.8 774.7,78.7 776.5,78.7 778.3,78.6 780.1,78.6 781.8,78.5 783.6,78.5 785.4,78.4 787.1,78.4 788.9,78.4 790.7,78.3 792.5,78.3 794.2,78.2 796.0,78.2"/>
<text x="640" y="56" font-family="Arial" font-size="12" fill="#0f766e">truth</text>
<polyline fill="none" stroke="#2563eb" stroke-width="2.3" points="52.0,100.0 53.8,122.6 55.5,145.1 57.3,167.6 59.1,190.1 60.9,183.7 62.6,202.0 64.4,220.3 66.2,238.6 67.9,256.9 69.7,228.2 71.5,239.6 73.3,251.1 75.0,262.5 76.8,274.0 78.6,235.0 80.3,239.2 82.1,243.3 83.9,247.4 85.7,251.6 87.4,213.6 89.2,211.6 91.0,209.6 92.7,207.6 94.5,205.6 96.3,175.2 98.1,169.1 99.8,163.0 101.6,156.9 103.4,150.8 105.1,132.6 106.9,124.7 108.7,116.8 110.5,109.0 112.2,101.1 114.0,95.5 115.8,87.9 117.5,80.4 119.3,72.9 121.1,65.3 122.9,69.4 124.6,63.6 126.4,57.7 128.2,51.9 129.9,46.0 131.7,56.1 133.5,52.6 135.3,49.1 137.0,45.5 138.8,42.0 140.6,54.9 142.3,53.8 144.1,52.6 145.9,51.5 147.7,50.3 149.4,64.2 151.2,65.3 153.0,66.3 154.7,67.3 156.5,68.4 158.3,77.8 160.1,80.1 161.8,82.4 163.6,84.6 165.4,86.9 167.1,92.4 168.9,95.2 170.7,97.9 172.5,100.6 174.2,103.4 176.0,103.8 177.8,106.2 179.5,108.6 181.3,111.0 183.1,113.4 184.9,111.7 186.6,113.6 188.4,115.4 190.2,117.2 191.9,119.0 193.7,114.7 195.5,115.6 197.3,116.5 199.0,117.4 200.8,118.4 202.6,114.3 204.3,114.5 206.1,114.7 207.9,114.9 209.7,115.1 211.4,110.7 213.2,110.3 215.0,109.8 216.7,109.3 218.5,108.9 220.3,106.4 222.1,105.6 223.8,104.9 225.6,104.1 227.4,103.4 229.1,102.8 230.9,102.0 232.7,101.3 234.5,100.6 236.2,99.8 238.0,98.0 239.8,97.1 241.5,96.2 243.3,95.3 245.1,94.4 246.9,96.0 248.6,95.5 250.4,94.9 252.2,94.4 253.9,93.8 255.7,94.8 257.5,94.4 259.3,94.1 261.0,93.8 262.8,93.4 264.6,95.6 266.3,95.6 268.1,95.7 269.9,95.7 271.7,95.7 273.4,96.0 275.2,96.1 277.0,96.2 278.7,96.2 280.5,96.3 282.3,96.6 284.1,96.7 285.8,96.8 287.6,96.9 289.4,97.0 291.1,95.3 292.9,95.2 294.7,95.0 296.5,94.9 298.2,94.7 300.0,95.7 301.8,95.8 303.5,95.8 305.3,95.8 307.1,95.8 308.9,96.2 310.6,96.3 312.4,96.3 314.2,96.4 315.9,96.5 317.7,96.6 319.5,96.7 321.3,96.8 323.0,96.9 324.8,96.9 326.6,98.0 328.3,98.2 330.1,98.5 331.9,98.7 333.7,98.9 335.4,99.4 337.2,99.7 339.0,99.9 340.7,100.2 342.5,100.4 344.3,101.5 346.1,101.9 347.8,102.3 349.6,102.7 351.4,103.0 353.1,101.7 354.9,101.8 356.7,102.0 358.5,102.1 360.2,102.2 362.0,100.9 363.8,100.8 365.5,100.7 367.3,100.6 369.1,100.5 370.9,98.8 372.6,98.5 374.4,98.2 376.2,97.8 377.9,97.5 379.7,95.7 381.5,95.2 383.3,94.6 385.0,94.1 386.8,93.6 388.6,93.8 390.3,93.3 392.1,92.9 393.9,92.5 395.7,92.0 397.4,93.7 399.2,93.6 401.0,93.5 402.7,93.3 404.5,93.2 406.3,92.2 408.1,92.0 409.8,91.7 411.6,91.5 413.4,91.2 415.1,91.5 416.9,91.4 418.7,91.2 420.5,91.0 422.2,90.9 424.0,89.9 425.8,89.6 427.5,89.3 429.3,89.0 431.1,88.7 432.9,90.8 434.6,90.8 436.4,90.9 438.2,90.9 439.9,91.0 441.7,91.4 443.5,91.6 445.3,91.7 447.0,91.8 448.8,91.9 450.6,92.8 452.3,93.1 454.1,93.3 455.9,93.5 457.7,93.7 459.4,93.3 461.2,93.4 463.0,93.6 464.7,93.7 466.5,93.8 468.3,92.0 470.1,91.8 471.8,91.6 473.6,91.5 475.4,91.3 477.1,90.5 478.9,90.2 480.7,89.9 482.5,89.7 484.2,89.4 486.0,88.8 487.8,88.5 489.5,88.2 491.3,87.9 493.1,87.6 494.9,88.0 496.6,87.8 498.4,87.6 500.2,87.4 501.9,87.2 503.7,87.9 505.5,87.8 507.3,87.7 509.0,87.6 510.8,87.6 512.6,89.6 514.3,89.8 516.1,90.0 517.9,90.3 519.7,90.5 521.4,90.0 523.2,90.2 525.0,90.3 526.7,90.4 528.5,90.5 530.3,91.1 532.1,91.3 533.8,91.5 535.6,91.7 537.4,91.9 539.1,90.2 540.9,90.1 542.7,90.1 544.5,90.0 546.2,89.9 548.0,87.8 549.8,87.5 551.5,87.1 553.3,86.7 555.1,86.4 556.9,86.5 558.6,86.2 560.4,86.0 562.2,85.7 563.9,85.4 565.7,86.5 567.5,86.4 569.3,86.4 571.0,86.3 572.8,86.2 574.6,84.4 576.3,84.0 578.1,83.7 579.9,83.3 581.7,83.0 583.4,83.6 585.2,83.4 587.0,83.1 588.7,82.9 590.5,82.7 592.3,83.2 594.1,83.1 595.8,83.0 597.6,82.9 599.4,82.8 601.1,84.3 602.9,84.5 604.7,84.6 606.5,84.7 608.2,84.9 610.0,84.5 611.8,84.5 613.5,84.6 615.3,84.7 617.1,84.7 618.9,85.3 620.6,85.4 622.4,85.5 624.2,85.7 625.9,85.8 627.7,85.1 629.5,85.1 631.3,85.2 633.0,85.2 634.8,85.2 636.6,83.9 638.3,83.7 640.1,83.5 641.9,83.4 643.7,83.2 645.4,84.0 647.2,83.9 649.0,83.9 650.7,83.9 652.5,83.8 654.3,83.6 656.1,83.5 657.8,83.4 659.6,83.4 661.4,83.3 663.1,83.1 664.9,83.0 666.7,82.9 668.5,82.8 670.2,82.7 672.0,83.7 673.8,83.8 675.5,83.9 677.3,83.9 679.1,84.0 680.9,83.8 682.6,83.9 684.4,83.9 686.2,83.9 687.9,84.0 689.7,84.4 691.5,84.4 693.3,84.5 695.0,84.6 696.8,84.7 698.6,83.8 700.3,83.8 702.1,83.7 703.9,83.7 705.7,83.6 707.4,83.2 709.2,83.0 711.0,82.9 712.7,82.8 714.5,82.7 716.3,82.6 718.1,82.5 719.8,82.4 721.6,82.3 723.4,82.2 725.1,81.3 726.9,81.1 728.7,80.9 730.5,80.7 732.2,80.5 734.0,80.8 735.8,80.6 737.5,80.5 739.3,80.3 741.1,80.2 742.9,80.6 744.6,80.5 746.4,80.4 748.2,80.4 749.9,80.3 751.7,79.9 753.5,79.8 755.3,79.7 757.0,79.5 758.8,79.4 760.6,78.8 762.3,78.6 764.1,78.4 765.9,78.3 767.7,78.1 769.4,77.6 771.2,77.3 773.0,77.1 774.7,76.9 776.5,76.6 778.3,76.7 780.1,76.5 781.8,76.4 783.6,76.2 785.4,76.0 787.1,77.5 788.9,77.6 790.7,77.6 792.5,77.7 794.2,77.8 796.0,78.8"/>
<text x="640" y="72" font-family="Arial" font-size="12" fill="#2563eb">estimate</text>
</svg>