<svg xmlns="http://www.w3.org/2000/svg" width="820" height="320" viewBox="0 0 820 320">
<rect width="100%" height="100%" fill="white"/>
<text x="52" y="30" font-family="Arial" font-size="18" font-weight="700">ekf_nominal altitude</text>
<line x1="52" y1="274" x2="796" y2="274" stroke="#263238"/>
<line x1="52" y1="42" x2="52" y2="274" stroke="#263238"/>
<text x="52" y="306" font-family="Arial" font-size="12">time (s)</text>
<text x="630" y="306" font-family="Arial" font-size="12">m</text>

<rect x="370.9" y="42" width="79.7" height="232" fill="#fef3c7" opacity="0.72"/>
<polyline fill="none" stroke="#0f766e" stroke-width="2.3" points="52.0,226.6 53.8,226.4 55.5,226.3 57.3,226.1 59.1,226.0 60.9,225.8 62.6,225.7 64.4,225.5 66.2,225.4 67.9,225.2 69.7,225.1 71.5,224.9 73.3,224.8 75.0,224.6 76.8,224.5 78.6,224.3 80.3,224.2 82.1,224.0 83.9,223.9 85.7,223.7 87.4,223.6 89.2,223.4 91.0,223.3 92.7,223.1 94.5,223.0 96.3,222.8 98.1,222.6 99.8,222.5 101.6,222.3 103.4,222.2 105.1,222.0 106.9,221.8 108.7,221.7 110.5,221.5 112.2,221.3 114.0,221.2 115.8,221.0 117.5,220.8 119.3,220.7 121.1,220.5 122.9,220.3 124.6,220.1 126.4,220.0 128.2,219.8 129.9,219.6 131.7,219.4 133.5,219.2 135.3,219.1 137.0,218.9 138.8,218.7 140.6,218.5 142.3,218.3 144.1,218.1 145.9,217.9 147.7,217.7 149.4,217.5 151.2,217.3 153.0,217.1 154.7,216.9 156.5,216.7 158.3,216.5 160.1,216.3 161.8,216.1 163.6,215.9 165.4,215.7 167.1,215.4 168.9,215.2 170.7,215.0 172.5,214.8 174.2,214.6 176.0,214.3 177.8,214.1 179.5,213.9 181.3,213.6 183.1,213.4 184.9,213.2 186.6,212.9 188.4,212.7 190.2,212.4 191.9,212.2 193.7,211.9 195.5,211.7 197.3,211.4 199.0,211.2 200.8,210.9 202.6,210.6 204.3,210.4 206.1,210.1 207.9,209.8 209.7,209.6 211.4,209.3 213.2,209.0 215.0,208.7 216.7,208.5 218.5,208.2 220.3,207.9 222.1,207.6 223.8,207.3 225.6,207.0 227.4,206.7 229.1,206.4 230.9,206.1 232.7,205.8 234.5,205.5 236.2,205.2 238.0,204.9 239.8,204.5 241.5,204.2 243.3,203.9 245.1,203.6 246.9,203.2 248.6,202.9 250.4,202.6 252.2,202.2 253.9,201.9 255.7,201.5 257.5,201.2 259.3,200.8 261.0,200.5 262.8,200.1 264.6,199.8 266.3,199.4 268.1,199.1 269.9,198.7 271.7,198.3 273.4,197.9 275.2,197.6 277.0,197.2 278.7,196.8 280.5,196.4 282.3,196.0 284.1,195.6 285.8,195.2 287.6,194.9 289.4,194.5 291.1,194.1 292.9,193.6 294.7,193.2 296.5,192.8 298.2,192.4 300.0,192.0 301.8,191.6 303.5,191.2 305.3,190.7 307.1,190.3 308.9,189.9 310.6,189.4 312.4,189.0 314.2,188.5 315.9,188.1 317.7,187.7 319.5,187.2 321.3,186.8 323.0,186.3 324.8,185.8 326.6,185.4 328.3,184.9 330.1,184.5 331.9,184.0 333.7,183.5 335.4,183.0 337.2,182.6 339.0,182.1 340.7,181.6 342.5,181.1 344.3,180.6 346.1,180.1 347.8,179.6 349.6,179.1 351.4,178.6 353.1,178.1 354.9,177.6 356.7,177.1 358.5,176.6 360.2,176.1 362.0,175.6 363.8,175.1 365.5,174.6 367.3,174.0 369.1,173.5 370.9,173.0 372.6,172.4 374.4,171.9 376.2,171.4 377.9,170.8 379.7,170.3 381.5,169.8 383.3,169.2 385.0,168.7 386.8,168.1 388.6,167.6 390.3,167.0 392.1,166.5 393.9,165.9 395.7,165.3 397.4,164.8 399.2,164.2 401.0,163.6 402.7,163.1 404.5,162.5 406.3,161.9 408.1,161.4 409.8,160.8 411.6,160.2 413.4,159.6 415.1,159.0 416.9,158.5 418.7,157.9 420.5,157.3 422.2,156.7 424.0,156.1 425.8,155.5 427.5,154.9 429.3,154.3 431.1,153.7 432.9,153.1 434.6,152.5 436.4,151.9 438.2,151.3 439.9,150.7 441.7,150.1 443.5,149.5 445.3,148.9 447.0,148.3 448.8,147.6 450.6,147.0 452.3,146.4 454.1,145.8 455.9,145.2 457.7,144.6 459.4,143.9 461.2,143.3 463.0,142.7 464.7,142.1 466.5,141.5 468.3,140.8 470.1,140.2 471.8,139.6 473.6,138.9 475.4,138.3 477.1,137.7 478.9,137.1 480.7,136.4 482.5,135.8 484.2,135.2 486.0,134.5 487.8,133.9 489.5,133.3 491.3,132.6 493.1,132.0 494.9,131.3 496.6,130.7 498.4,130.1 500.2,129.4 501.9,128.8 503.7,128.2 505.5,127.5 507.3,126.9 509.0,126.2 510.8,125.6 512.6,125.0 514.3,124.3 516.1,123.7 517.9,123.0 519.7,122.4 521.4,121.8 523.2,121.1 525.0,120.5 526.7,119.8 528.5,119.2 530.3,118.6 532.1,117.9 533.8,117.3 535.6,116.7 537.4,116.0 539.1,115.4 540.9,114.7 542.7,114.1 544.5,113.5 546.2,112.8 548.0,112.2 549.8,111.6 551.5,110.9 553.3,110.3 555.1,109.7 556.9,109.0 558.6,108.4 560.4,107.8 562.2,107.2 563.9,106.5 565.7,105.9 567.5,105.3 569.3,104.7 571.0,104.0 572.8,103.4 574.6,102.8 576.3,102.2 578.1,101.5 579.9,100.9 581.7,100.3 583.4,99.7 585.2,99.1 587.0,98.5 588.7,97.9 590.5,97.3 592.3,96.6 594.1,96.0 595.8,95.4 597.6,94.8 599.4,94.2 601.1,93.6 602.9,93.0 604.7,92.4 606.5,91.8 608.2,91.2 610.0,90.6 611.8,90.1 613.5,89.5 615.3,88.9 617.1,88.3 618.9,87.7 620.6,87.1 622.4,86.5 624.2,86.0 625.9,85.4 627.7,84.8 629.5,84.2 631.3,83.7 633.0,83.1 634.8,82.5 636.6,82.0 638.3,81.4 640.1,80.9 641.9,80.3 643.7,79.7 645.4,79.2 647.2,78.6 649.0,78.1 650.7,77.5 652.5,77.0 654.3,76.5 656.1,75.9 657.8,75.4 659.6,74.9 661.4,74.3 663.1,73.8 664.9,73.3 666.7,72.7 668.5,72.2 670.2,71.7 672.0,71.2 673.8,70.7 675.5,70.2 677.3,69.6 679.1,69.1 680.9,68.6 682.6,68.1 684.4,67.6 686.2,67.1 687.9,66.7 689.7,66.2 691.5,65.7 693.3,65.2 695.0,64.7 696.8,64.2 698.6,63.8 700.3,63.3 702.1,62.8 703.9,62.3 705.7,61.9 707.4,61.4 709.2,61.0 711.0,60.5 712.7,60.0 714.5,59.6 716.3,59.1 718.1,58.7 719.8,58.3 721.6,57.8 723.4,57.4 725.1,56.9 726.9,56.5 728.7,56.1 730.5,55.7 732.2,55.2 734.0,54.8 735.8,54.4 737.5,54.0 739.3,53.6 741.1,53.2 742.9,52.8 744.6,52.4 746.4,52.0 748.2,51.6 749.9,51.2 751.7,50.8 753.5,50.4 755.3,50.0 757.0,49.6 758.8,49.3 760.6,48.9 762.3,48.5 764.1,48.1 765.9,47.8 767.7,47.4 769.4,47.1 771.2,46.7 773.0,46.3 774.7,46.0 776.5,45.6 778.3,45.3 780.1,45.0 781.8,44.6 783.6,44.3 785.4,43.9 787.1,43.6 788.9,43.3 790.7,43.0 792.5,42.6 794.2,42.3 796.0,42.0"/>
<text x="640" y="56" font-family="Arial" font-size="12" fill="#0f766e">truth</text>
<polyline fill="none" stroke="#2563eb" stroke-width="2.3" points="52.0,215.4 53.8,215.1 55.5,214.8 57.3,214.5 59.1,214.2 60.9,252.7 62.6,258.0 64.4,263.3 66.2,268.7 67.9,274.0 69.7,249.0 71.5,251.0 73.3,253.0 75.0,255.0 76.8,257.0 78.6,229.4 80.3,228.9 82.1,228.4 83.9,228.0 85.7,227.5 87.4,227.2 89.2,226.8 91.0,226.3 92.7,225.8 94.5,225.3 96.3,217.5 98.1,216.6 99.8,215.6 101.6,214.7 103.4,213.7 105.1,217.4 106.9,216.7 108.7,215.9 110.5,215.2 112.2,214.4 114.0,215.8 115.8,215.1 117.5,214.4 119.3,213.8 121.1,213.1 122.9,210.9 124.6,210.1 126.4,209.3 128.2,208.5 129.9,207.7 131.7,203.3 133.5,202.3 135.3,201.2 137.0,200.2 138.8,199.1 140.6,196.4 142.3,195.2 144.1,194.0 145.9,192.8 147.7,191.6 149.4,209.7 151.2,209.5 153.0,209.4 154.7,209.2 156.5,209.1 158.3,208.1 160.1,207.9 161.8,207.8 163.6,207.6 165.4,207.5 167.1,210.5 168.9,210.5 170.7,210.6 172.5,210.7 174.2,210.8 176.0,202.3 177.8,202.0 179.5,201.7 181.3,201.4 183.1,201.0 184.9,205.8 186.6,205.8 188.4,205.7 190.2,205.7 191.9,205.7 193.7,202.2 195.5,202.0 197.3,201.9 199.0,201.7 200.8,201.6 202.6,206.9 204.3,207.0 206.1,207.2 207.9,207.3 209.7,207.4 211.4,205.4 213.2,205.5 215.0,205.5 216.7,205.6 218.5,205.7 220.3,209.3 222.1,209.6 223.8,209.9 225.6,210.1 227.4,210.5 229.1,217.9 230.9,218.5 232.7,219.1 234.5,219.8 236.2,220.4 238.0,204.9 239.8,205.0 241.5,205.1 243.3,205.2 245.1,205.3 246.9,212.0 248.6,212.3 250.4,212.7 252.2,213.0 253.9,213.4 255.7,208.5 257.5,208.7 259.3,208.9 261.0,209.1 262.8,209.3 264.6,212.4 266.3,212.8 268.1,213.1 269.9,213.4 271.7,213.8 273.4,205.2 275.2,205.3 277.0,205.4 278.7,205.4 280.5,205.5 282.3,200.2 284.1,200.1 285.8,200.0 287.6,199.9 289.4,199.9 291.1,182.1 292.9,181.5 294.7,180.9 296.5,180.3 298.2,179.7 300.0,184.4 301.8,184.0 303.5,183.5 305.3,183.0 307.1,182.5 308.9,183.2 310.6,182.8 312.4,182.3 314.2,181.8 315.9,181.3 317.7,180.8 319.5,180.3 321.3,179.8 323.0,179.3 324.8,178.8 326.6,186.7 328.3,186.4 330.1,186.1 331.9,185.8 333.7,185.5 335.4,190.8 337.2,190.6 339.0,190.5 340.7,190.3 342.5,190.2 344.3,200.2 346.1,200.3 347.8,200.5 349.6,200.6 351.4,200.7 353.1,197.4 354.9,197.5 356.7,197.6 358.5,197.7 360.2,197.7 362.0,194.8 363.8,194.8 365.5,194.8 367.3,194.9 369.1,194.9 370.9,188.6 372.6,188.5 374.4,188.4 376.2,188.3 377.9,188.1 379.7,178.7 381.5,178.4 383.3,178.1 385.0,177.8 386.8,177.5 388.6,176.7 390.3,176.4 392.1,176.1 393.9,175.8 395.7,175.5 397.4,180.9 399.2,180.7 401.0,180.5 402.7,180.3 404.5,180.1 406.3,169.6 408.1,169.2 409.8,168.8 411.6,168.4 413.4,168.0 415.1,165.0 416.9,164.5 418.7,164.0 420.5,163.6 422.2,163.1 424.0,152.6 425.8,151.9 427.5,151.2 429.3,150.5 431.1,149.8 432.9,156.5 434.6,155.9 436.4,155.3 438.2,154.8 439.9,154.2 441.7,153.1 443.5,152.5 445.3,152.0 447.0,151.4 448.8,150.9 450.6,154.0 452.3,153.6 454.1,153.1 455.9,152.6 457.7,152.1 459.4,150.1 461.2,149.5 463.0,149.0 464.7,148.5 466.5,147.9 468.3,139.5 470.1,138.8 471.8,138.1 473.6,137.4 475.4,136.7 477.1,133.1 478.9,132.3 480.7,131.6 482.5,130.8 484.2,130.0 486.0,126.8 487.8,126.0 489.5,125.2 491.3,124.4 493.1,123.7 494.9,124.3 496.6,123.5 498.4,122.8 500.2,122.0 501.9,121.2 503.7,121.6 505.5,120.9 507.3,120.1 509.0,119.3 510.8,118.6 512.6,127.1 514.3,126.6 516.1,126.0 517.9,125.4 519.7,124.8 521.4,123.1 523.2,122.5 525.0,121.9 526.7,121.3 528.5,120.7 530.3,125.4 532.1,124.8 533.8,124.3 535.6,123.8 537.4,123.3 539.1,118.2 540.9,117.6 542.7,117.0 544.5,116.4 546.2,115.8 548.0,108.3 549.8,107.6 551.5,106.8 553.3,106.1 555.1,105.3 556.9,106.1 558.6,105.4 560.4,104.7 562.2,103.9 563.9,103.2 565.7,107.8 567.5,107.2 569.3,106.6 571.0,106.0 572.8,105.3 574.6,96.1 576.3,95.3 578.1,94.5 579.9,93.7 581.7,92.9 583.4,92.2 585.2,91.5 587.0,90.7 588.7,89.9 590.5,89.1 592.3,89.3 594.1,88.5 595.8,87.7 597.6,87.0 599.4,86.2 601.1,91.4 602.9,90.8 604.7,90.1 606.5,89.4 608.2,88.7 610.0,86.8 611.8,86.1 613.5,85.4 615.3,84.8 617.1,84.1 618.9,87.1 620.6,86.5 622.4,85.9 624.2,85.3 625.9,84.7 627.7,83.2 629.5,82.6 631.3,82.0 633.0,81.4 634.8,80.8 636.6,77.1 638.3,76.5 640.1,75.8 641.9,75.2 643.7,74.6 645.4,79.0 647.2,78.4 649.0,77.9 650.7,77.3 652.5,76.8 654.3,76.6 656.1,76.1 657.8,75.6 659.6,75.1 661.4,74.6 663.1,73.8 664.9,73.3 666.7,72.8 668.5,72.3 670.2,71.8 672.0,76.8 673.8,76.4 675.5,76.0 677.3,75.6 679.1,75.2 680.9,75.6 682.6,75.2 684.4,74.8 686.2,74.4 687.9,74.1 689.7,77.4 691.5,77.1 693.3,76.8 695.0,76.5 696.8,76.2 698.6,74.2 700.3,73.9 702.1,73.6 703.9,73.3 705.7,73.0 707.4,72.6 709.2,72.3 711.0,72.0 712.7,71.7 714.5,71.5 716.3,69.9 718.1,69.6 719.8,69.3 721.6,69.0 723.4,68.8 725.1,65.6 726.9,65.3 728.7,65.0 730.5,64.7 732.2,64.4 734.0,65.2 735.8,65.0 737.5,64.7 739.3,64.4 741.1,64.1 742.9,64.5 744.6,64.3 746.4,64.0 748.2,63.7 749.9,63.5 751.7,60.9 753.5,60.6 755.3,60.3 757.0,60.0 758.8,59.7 760.6,55.8 762.3,55.5 764.1,55.1 765.9,54.8 767.7,54.4 769.4,51.0 771.2,50.6 773.0,50.1 774.7,49.7 776.5,49.3 778.3,47.1 780.1,46.7 781.8,46.2 783.6,45.8 785.4,45.4 787.1,49.1 788.9,48.7 790.7,48.4 792.5,48.0 794.2,47.7 796.0,49.6"/>
<text x="640" y="72" font-family="Arial" font-size="12" fill="#2563eb">estimate</text>
</svg>