<svg xmlns="http://www.w3.org/2000/svg" width="820" height="320" viewBox="0 0 820 320">
<rect width="100%" height="100%" fill="white"/>
<text x="52" y="30" font-family="Arial" font-size="18" font-weight="700">sqrt_nominal altitude</text>
<line x1="52" y1="274" x2="796" y2="274" stroke="#263238"/>
<line x1="52" y1="42" x2="52" y2="274" stroke="#263238"/>
<text x="52" y="306" font-family="Arial" font-size="12">time (s)</text>
<text x="630" y="306" font-family="Arial" font-size="12">m</text>

<rect x="370.9" y="42" width="79.7" height="232" fill="#fef3c7" opacity="0.72"/>
<polyline fill="none" stroke="#0f766e" stroke-width="2.3" points="52.0,261.6 53.8,261.4 55.5,261.2 57.3,261.0 59.1,260.9 60.9,260.7 62.6,260.5 64.4,260.3 66.2,260.2 67.9,260.0 69.7,259.8 71.5,259.6 73.3,259.4 75.0,259.3 76.8,259.1 78.6,258.9 80.3,258.7 82.1,258.5 83.9,258.4 85.7,258.2 87.4,258.0 89.2,257.8 91.0,257.6 92.7,257.4 94.5,257.3 96.3,257.1 98.1,256.9 99.8,256.7 101.6,256.5 103.4,256.3 105.1,256.1 106.9,255.9 108.7,255.7 110.5,255.5 112.2,255.3 114.0,255.1 115.8,254.9 117.5,254.7 119.3,254.5 121.1,254.3 122.9,254.1 124.6,253.9 126.4,253.7 128.2,253.5 129.9,253.3 131.7,253.1 133.5,252.8 135.3,252.6 137.0,252.4 138.8,252.2 140.6,252.0 142.3,251.7 144.1,251.5 145.9,251.3 147.7,251.0 149.4,250.8 151.2,250.6 153.0,250.3 154.7,250.1 156.5,249.8 158.3,249.6 160.1,249.3 161.8,249.1 163.6,248.8 165.4,248.6 167.1,248.3 168.9,248.1 170.7,247.8 172.5,247.5 174.2,247.3 176.0,247.0 177.8,246.7 179.5,246.5 181.3,246.2 183.1,245.9 184.9,245.6 186.6,245.3 188.4,245.0 190.2,244.7 191.9,244.4 193.7,244.2 195.5,243.9 197.3,243.5 199.0,243.2 200.8,242.9 202.6,242.6 204.3,242.3 206.1,242.0 207.9,241.7 209.7,241.3 211.4,241.0 213.2,240.7 215.0,240.4 216.7,240.0 218.5,239.7 220.3,239.3 222.1,239.0 223.8,238.6 225.6,238.3 227.4,237.9 229.1,237.6 230.9,237.2 232.7,236.8 234.5,236.5 236.2,236.1 238.0,235.7 239.8,235.3 241.5,235.0 243.3,234.6 245.1,234.2 246.9,233.8 248.6,233.4 250.4,233.0 252.2,232.6 253.9,232.2 255.7,231.8 257.5,231.4 259.3,231.0 261.0,230.5 262.8,230.1 264.6,229.7 266.3,229.3 268.1,228.8 269.9,228.4 271.7,228.0 273.4,227.5 275.2,227.1 277.0,226.6 278.7,226.2 280.5,225.7 282.3,225.2 284.1,224.8 285.8,224.3 287.6,223.8 289.4,223.4 291.1,222.9 292.9,222.4 294.7,221.9 296.5,221.4 298.2,220.9 300.0,220.4 301.8,219.9 303.5,219.4 305.3,218.9 307.1,218.4 308.9,217.9 310.6,217.4 312.4,216.9 314.2,216.3 315.9,215.8 317.7,215.3 319.5,214.7 321.3,214.2 323.0,213.7 324.8,213.1 326.6,212.6 328.3,212.0 330.1,211.5 331.9,210.9 333.7,210.3 335.4,209.8 337.2,209.2 339.0,208.6 340.7,208.1 342.5,207.5 344.3,206.9 346.1,206.3 347.8,205.7 349.6,205.1 351.4,204.5 353.1,203.9 354.9,203.3 356.7,202.7 358.5,202.1 360.2,201.5 362.0,200.9 363.8,200.3 365.5,199.7 367.3,199.1 369.1,198.4 370.9,197.8 372.6,197.2 374.4,196.5 376.2,195.9 377.9,195.3 379.7,194.6 381.5,194.0 383.3,193.3 385.0,192.7 386.8,192.0 388.6,191.4 390.3,190.7 392.1,190.1 393.9,189.4 395.7,188.7 397.4,188.1 399.2,187.4 401.0,186.7 402.7,186.0 404.5,185.4 406.3,184.7 408.1,184.0 409.8,183.3 411.6,182.6 413.4,181.9 415.1,181.2 416.9,180.5 418.7,179.8 420.5,179.1 422.2,178.4 424.0,177.7 425.8,177.0 427.5,176.3 429.3,175.6 431.1,174.9 432.9,174.2 434.6,173.5 436.4,172.8 438.2,172.0 439.9,171.3 441.7,170.6 443.5,169.9 445.3,169.1 447.0,168.4 448.8,167.7 450.6,166.9 452.3,166.2 454.1,165.5 455.9,164.7 457.7,164.0 459.4,163.3 461.2,162.5 463.0,161.8 464.7,161.0 466.5,160.3 468.3,159.6 470.1,158.8 471.8,158.1 473.6,157.3 475.4,156.6 477.1,155.8 478.9,155.1 480.7,154.3 482.5,153.6 484.2,152.8 486.0,152.1 487.8,151.3 489.5,150.6 491.3,149.8 493.1,149.0 494.9,148.3 496.6,147.5 498.4,146.8 500.2,146.0 501.9,145.2 503.7,144.5 505.5,143.7 507.3,143.0 509.0,142.2 510.8,141.4 512.6,140.7 514.3,139.9 516.1,139.2 517.9,138.4 519.7,137.6 521.4,136.9 523.2,136.1 525.0,135.4 526.7,134.6 528.5,133.8 530.3,133.1 532.1,132.3 533.8,131.6 535.6,130.8 537.4,130.1 539.1,129.3 540.9,128.5 542.7,127.8 544.5,127.0 546.2,126.3 548.0,125.5 549.8,124.8 551.5,124.0 553.3,123.3 555.1,122.5 556.9,121.8 558.6,121.0 560.4,120.3 562.2,119.5 563.9,118.8 565.7,118.0 567.5,117.3 569.3,116.5 571.0,115.8 572.8,115.1 574.6,114.3 576.3,113.6 578.1,112.8 579.9,112.1 581.7,111.4 583.4,110.6 585.2,109.9 587.0,109.2 588.7,108.5 590.5,107.7 592.3,107.0 594.1,106.3 595.8,105.6 597.6,104.8 599.4,104.1 601.1,103.4 602.9,102.7 604.7,102.0 606.5,101.3 608.2,100.6 610.0,99.9 611.8,99.2 613.5,98.5 615.3,97.8 617.1,97.1 618.9,96.4 620.6,95.7 622.4,95.0 624.2,94.3 625.9,93.6 627.7,92.9 629.5,92.3 631.3,91.6 633.0,90.9 634.8,90.2 636.6,89.6 638.3,88.9 640.1,88.2 641.9,87.6 643.7,86.9 645.4,86.2 647.2,85.6 649.0,84.9 650.7,84.3 652.5,83.6 654.3,83.0 656.1,82.4 657.8,81.7 659.6,81.1 661.4,80.4 663.1,79.8 664.9,79.2 666.7,78.6 668.5,77.9 670.2,77.3 672.0,76.7 673.8,76.1 675.5,75.5 677.3,74.9 679.1,74.3 680.9,73.7 682.6,73.1 684.4,72.5 686.2,71.9 687.9,71.3 689.7,70.7 691.5,70.2 693.3,69.6 695.0,69.0 696.8,68.4 698.6,67.9 700.3,67.3 702.1,66.8 703.9,66.2 705.7,65.6 707.4,65.1 709.2,64.5 711.0,64.0 712.7,63.5 714.5,62.9 716.3,62.4 718.1,61.9 719.8,61.3 721.6,60.8 723.4,60.3 725.1,59.8 726.9,59.3 728.7,58.8 730.5,58.3 732.2,57.7 734.0,57.2 735.8,56.8 737.5,56.3 739.3,55.8 741.1,55.3 742.9,54.8 744.6,54.3 746.4,53.9 748.2,53.4 749.9,52.9 751.7,52.5 753.5,52.0 755.3,51.5 757.0,51.1 758.8,50.6 760.6,50.2 762.3,49.7 764.1,49.3 765.9,48.9 767.7,48.4 769.4,48.0 771.2,47.6 773.0,47.2 774.7,46.8 776.5,46.3 778.3,45.9 780.1,45.5 781.8,45.1 783.6,44.7 785.4,44.3 787.1,43.9 788.9,43.5 790.7,43.1 792.5,42.8 794.2,42.4 796.0,42.0"/>
<text x="640" y="56" font-family="Arial" font-size="12" fill="#0f766e">truth</text>
<polyline fill="none" stroke="#2563eb" stroke-width="2.3" points="52.0,247.9 53.8,247.1 55.5,246.4 57.3,245.6 59.1,244.8 60.9,274.0 62.6,273.3 64.4,272.7 66.2,272.0 67.9,271.4 69.7,272.5 71.5,271.9 73.3,271.3 75.0,270.7 76.8,270.0 78.6,258.9 80.3,257.4 82.1,255.8 83.9,254.2 85.7,252.5 87.4,253.5 89.2,251.8 91.0,250.1 92.7,248.3 94.5,246.5 96.3,244.3 98.1,242.4 99.8,240.4 101.6,238.5 103.4,236.5 105.1,248.9 106.9,248.1 108.7,247.3 110.5,246.5 112.2,245.7 114.0,246.3 115.8,245.5 117.5,244.8 119.3,244.1 121.1,243.4 122.9,242.2 124.6,241.5 126.4,240.8 128.2,240.1 129.9,239.4 131.7,233.1 133.5,232.1 135.3,231.0 137.0,229.9 138.8,228.8 140.6,226.9 142.3,225.7 144.1,224.6 145.9,223.5 147.7,222.4 149.4,231.7 151.2,230.9 153.0,230.2 154.7,229.4 156.5,228.7 158.3,234.8 160.1,234.4 161.8,234.1 163.6,233.8 165.4,233.6 167.1,235.8 168.9,235.7 170.7,235.5 172.5,235.3 174.2,235.2 176.0,231.7 177.8,231.4 179.5,231.2 181.3,231.0 183.1,230.8 184.9,233.3 186.6,233.2 188.4,233.1 190.2,233.0 191.9,233.0 193.7,231.7 195.5,231.6 197.3,231.6 199.0,231.5 200.8,231.5 202.6,234.8 204.3,234.9 206.1,235.0 207.9,235.1 209.7,235.2 211.4,226.6 213.2,226.3 215.0,226.0 216.7,225.7 218.5,225.4 220.3,229.2 222.1,229.1 223.8,229.0 225.6,228.8 227.4,228.7 229.1,235.7 230.9,235.9 232.7,236.0 234.5,236.1 236.2,236.2 238.0,232.1 239.8,232.1 241.5,232.2 243.3,232.3 245.1,232.4 246.9,237.4 248.6,237.6 250.4,237.9 252.2,238.2 253.9,238.4 255.7,236.4 257.5,236.7 259.3,236.9 261.0,237.1 262.8,237.4 264.6,235.1 266.3,235.2 268.1,235.3 269.9,235.4 271.7,235.6 273.4,231.5 275.2,231.5 277.0,231.5 278.7,231.6 280.5,231.6 282.3,228.6 284.1,228.5 285.8,228.5 287.6,228.5 289.4,228.5 291.1,215.3 292.9,215.0 294.7,214.7 296.5,214.4 298.2,214.1 300.0,216.3 301.8,216.0 303.5,215.7 305.3,215.5 307.1,215.2 308.9,214.8 310.6,214.5 312.4,214.2 314.2,214.0 315.9,213.7 317.7,211.9 319.5,211.6 321.3,211.3 323.0,211.0 324.8,210.6 326.6,215.7 328.3,215.5 330.1,215.3 331.9,215.1 333.7,214.9 335.4,218.8 337.2,218.7 339.0,218.6 340.7,218.5 342.5,218.4 344.3,222.4 346.1,222.4 347.8,222.3 349.6,222.2 351.4,222.2 353.1,220.8 354.9,220.7 356.7,220.7 358.5,220.6 360.2,220.6 362.0,219.1 363.8,219.0 365.5,219.0 367.3,218.9 369.1,218.9 370.9,214.1 372.6,214.0 374.4,213.9 376.2,213.8 377.9,213.6 379.7,205.4 381.5,205.1 383.3,204.9 385.0,204.6 386.8,204.3 388.6,203.4 390.3,203.1 392.1,202.8 393.9,202.6 395.7,202.3 397.4,207.4 399.2,207.2 401.0,207.0 402.7,206.9 404.5,206.7 406.3,196.2 408.1,195.8 409.8,195.5 411.6,195.1 413.4,194.8 415.1,191.2 416.9,190.7 418.7,190.3 420.5,189.9 422.2,189.5 424.0,177.8 425.8,177.2 427.5,176.5 429.3,175.8 431.1,175.2 432.9,181.4 434.6,180.9 436.4,180.4 438.2,179.9 439.9,179.3 441.7,177.5 443.5,176.9 445.3,176.4 447.0,175.9 448.8,175.3 450.6,178.3 452.3,177.8 454.1,177.4 455.9,176.9 457.7,176.4 459.4,173.6 461.2,173.1 463.0,172.6 464.7,172.0 466.5,171.5 468.3,161.5 470.1,160.8 471.8,160.1 473.6,159.4 475.4,158.7 477.1,147.5 478.9,146.6 480.7,145.6 482.5,144.6 484.2,143.6 486.0,140.6 487.8,139.6 489.5,138.6 491.3,137.6 493.1,136.6 494.9,137.5 496.6,136.5 498.4,135.6 500.2,134.6 501.9,133.6 503.7,134.9 505.5,134.0 507.3,133.0 509.0,132.1 510.8,131.1 512.6,139.9 514.3,139.1 516.1,138.3 517.9,137.6 519.7,136.8 521.4,135.5 523.2,134.7 525.0,133.9 526.7,133.1 528.5,132.3 530.3,136.8 532.1,136.1 533.8,135.3 535.6,134.6 537.4,133.9 539.1,129.5 540.9,128.7 542.7,127.9 544.5,127.1 546.2,126.3 548.0,119.2 549.8,118.3 551.5,117.4 553.3,116.5 555.1,115.6 556.9,119.0 558.6,118.2 560.4,117.4 562.2,116.7 563.9,115.9 565.7,120.1 567.5,119.4 569.3,118.7 571.0,118.0 572.8,117.3 574.6,108.2 576.3,107.3 578.1,106.5 579.9,105.6 581.7,104.8 583.4,106.5 585.2,105.8 587.0,105.0 588.7,104.2 590.5,103.5 592.3,102.9 594.1,102.2 595.8,101.5 597.6,100.7 599.4,100.0 601.1,104.4 602.9,103.7 604.7,103.1 606.5,102.4 608.2,101.8 610.0,99.2 611.8,98.5 613.5,97.8 615.3,97.2 617.1,96.5 618.9,99.0 620.6,98.4 622.4,97.8 624.2,97.2 625.9,96.6 627.7,94.5 629.5,93.9 631.3,93.3 633.0,92.7 634.8,92.1 636.6,87.5 638.3,86.8 640.1,86.2 641.9,85.6 643.7,85.0 645.4,88.8 647.2,88.3 649.0,87.7 650.7,87.2 652.5,86.6 654.3,86.0 656.1,85.5 657.8,84.9 659.6,84.4 661.4,83.9 663.1,82.0 664.9,81.5 666.7,80.9 668.5,80.4 670.2,79.8 672.0,84.5 673.8,84.1 675.5,83.6 677.3,83.1 679.1,82.7 680.9,82.9 682.6,82.4 684.4,82.0 686.2,81.6 687.9,81.2 689.7,83.4 691.5,83.1 693.3,82.7 695.0,82.3 696.8,82.0 698.6,80.0 700.3,79.6 702.1,79.2 703.9,78.9 705.7,78.5 707.4,78.1 709.2,77.8 711.0,77.4 712.7,77.1 714.5,76.8 716.3,75.8 718.1,75.5 719.8,75.2 721.6,74.9 723.4,74.6 725.1,71.3 726.9,71.0 728.7,70.7 730.5,70.4 732.2,70.1 734.0,70.7 735.8,70.4 737.5,70.1 739.3,69.8 741.1,69.5 742.9,69.5 744.6,69.2 746.4,68.9 748.2,68.6 749.9,68.3 751.7,65.6 753.5,65.3 755.3,65.0 757.0,64.7 758.8,64.4 760.6,60.4 762.3,60.0 764.1,59.6 765.9,59.3 767.7,58.9 769.4,52.7 771.2,52.1 773.0,51.6 774.7,51.1 776.5,50.6 778.3,48.3 780.1,47.8 781.8,47.3 783.6,46.8 785.4,46.3 787.1,49.8 788.9,49.4 790.7,48.9 792.5,48.5 794.2,48.1 796.0,48.1"/>
<text x="640" y="72" font-family="Arial" font-size="12" fill="#2563eb">estimate</text>
</svg>