<svg xmlns="http://www.w3.org/2000/svg" width="820" height="320" viewBox="0 0 820 320">
<rect width="100%" height="100%" fill="white"/>
<text x="52" y="30" font-family="Arial" font-size="18" font-weight="700">Truth altitude</text>
<line x1="52" y1="274" x2="796" y2="274" stroke="#263238"/>
<line x1="52" y1="42" x2="52" y2="274" stroke="#263238"/>
<text x="52" y="306" font-family="Arial" font-size="12">time (s)</text>
<text x="630" y="306" font-family="Arial" font-size="12">m</text>

<polyline fill="none" stroke="#0f766e" stroke-width="2.3" points="52.0,274.0 53.8,273.8 55.5,273.6 57.3,273.4 59.1,273.3 60.9,273.1 62.6,272.9 64.4,272.7 66.2,272.5 67.9,272.3 69.7,272.1 71.5,272.0 73.3,271.8 75.0,271.6 76.8,271.4 78.6,271.2 80.3,271.0 82.1,270.8 83.9,270.6 85.7,270.4 87.4,270.2 89.2,270.0 91.0,269.8 92.7,269.7 94.5,269.5 96.3,269.3 98.1,269.1 99.8,268.9 101.6,268.7 103.4,268.5 105.1,268.2 106.9,268.0 108.7,267.8 110.5,267.6 112.2,267.4 114.0,267.2 115.8,267.0 117.5,266.8 119.3,266.6 121.1,266.3 122.9,266.1 124.6,265.9 126.4,265.7 128.2,265.5 129.9,265.2 131.7,265.0 133.5,264.8 135.3,264.5 137.0,264.3 138.8,264.1 140.6,263.8 142.3,263.6 144.1,263.4 145.9,263.1 147.7,262.9 149.4,262.6 151.2,262.4 153.0,262.1 154.7,261.9 156.5,261.6 158.3,261.3 160.1,261.1 161.8,260.8 163.6,260.6 165.4,260.3 167.1,260.0 168.9,259.7 170.7,259.5 172.5,259.2 174.2,258.9 176.0,258.6 177.8,258.3 179.5,258.0 181.3,257.7 183.1,257.4 184.9,257.1 186.6,256.8 188.4,256.5 190.2,256.2 191.9,255.9 193.7,255.6 195.5,255.3 197.3,255.0 199.0,254.6 200.8,254.3 202.6,254.0 204.3,253.7 206.1,253.3 207.9,253.0 209.7,252.6 211.4,252.3 213.2,251.9 215.0,251.6 216.7,251.2 218.5,250.9 220.3,250.5 222.1,250.1 223.8,249.8 225.6,249.4 227.4,249.0 229.1,248.6 230.9,248.3 232.7,247.9 234.5,247.5 236.2,247.1 238.0,246.7 239.8,246.3 241.5,245.9 243.3,245.5 245.1,245.1 246.9,244.7 248.6,244.2 250.4,243.8 252.2,243.4 253.9,243.0 255.7,242.5 257.5,242.1 259.3,241.7 261.0,241.2 262.8,240.8 264.6,240.3 266.3,239.9 268.1,239.4 269.9,239.0 271.7,238.5 273.4,238.0 275.2,237.5 277.0,237.1 278.7,236.6 280.5,236.1 282.3,235.6 284.1,235.1 285.8,234.6 287.6,234.1 289.4,233.6 291.1,233.1 292.9,232.6 294.7,232.1 296.5,231.6 298.2,231.1 300.0,230.5 301.8,230.0 303.5,229.5 305.3,228.9 307.1,228.4 308.9,227.9 310.6,227.3 312.4,226.8 314.2,226.2 315.9,225.7 317.7,225.1 319.5,224.5 321.3,224.0 323.0,223.4 324.8,222.8 326.6,222.2 328.3,221.6 330.1,221.1 331.9,220.5 333.7,219.9 335.4,219.3 337.2,218.7 339.0,218.1 340.7,217.5 342.5,216.9 344.3,216.2 346.1,215.6 347.8,215.0 349.6,214.4 351.4,213.8 353.1,213.1 354.9,212.5 356.7,211.9 358.5,211.2 360.2,210.6 362.0,209.9 363.8,209.3 365.5,208.6 367.3,208.0 369.1,207.3 370.9,206.6 372.6,206.0 374.4,205.3 376.2,204.6 377.9,204.0 379.7,203.3 381.5,202.6 383.3,201.9 385.0,201.2 386.8,200.5 388.6,199.8 390.3,199.1 392.1,198.4 393.9,197.7 395.7,197.0 397.4,196.3 399.2,195.6 401.0,194.9 402.7,194.2 404.5,193.5 406.3,192.8 408.1,192.0 409.8,191.3 411.6,190.6 413.4,189.8 415.1,189.1 416.9,188.4 418.7,187.6 420.5,186.9 422.2,186.2 424.0,185.4 425.8,184.7 427.5,183.9 429.3,183.2 431.1,182.4 432.9,181.7 434.6,180.9 436.4,180.2 438.2,179.4 439.9,178.6 441.7,177.9 443.5,177.1 445.3,176.3 447.0,175.6 448.8,174.8 450.6,174.0 452.3,173.3 454.1,172.5 455.9,171.7 457.7,170.9 459.4,170.1 461.2,169.4 463.0,168.6 464.7,167.8 466.5,167.0 468.3,166.2 470.1,165.4 471.8,164.6 473.6,163.9 475.4,163.1 477.1,162.3 478.9,161.5 480.7,160.7 482.5,159.9 484.2,159.1 486.0,158.3 487.8,157.5 489.5,156.7 491.3,155.9 493.1,155.1 494.9,154.3 496.6,153.5 498.4,152.7 500.2,151.9 501.9,151.1 503.7,150.3 505.5,149.5 507.3,148.7 509.0,147.9 510.8,147.1 512.6,146.3 514.3,145.5 516.1,144.7 517.9,143.9 519.7,143.1 521.4,142.3 523.2,141.5 525.0,140.7 526.7,139.9 528.5,139.0 530.3,138.2 532.1,137.4 533.8,136.6 535.6,135.8 537.4,135.0 539.1,134.2 540.9,133.4 542.7,132.6 544.5,131.8 546.2,131.0 548.0,130.2 549.8,129.5 551.5,128.7 553.3,127.9 555.1,127.1 556.9,126.3 558.6,125.5 560.4,124.7 562.2,123.9 563.9,123.1 565.7,122.3 567.5,121.5 569.3,120.8 571.0,120.0 572.8,119.2 574.6,118.4 576.3,117.6 578.1,116.9 579.9,116.1 581.7,115.3 583.4,114.5 585.2,113.8 587.0,113.0 588.7,112.2 590.5,111.4 592.3,110.7 594.1,109.9 595.8,109.2 597.6,108.4 599.4,107.6 601.1,106.9 602.9,106.1 604.7,105.4 606.5,104.6 608.2,103.9 610.0,103.1 611.8,102.4 613.5,101.7 615.3,100.9 617.1,100.2 618.9,99.5 620.6,98.7 622.4,98.0 624.2,97.3 625.9,96.5 627.7,95.8 629.5,95.1 631.3,94.4 633.0,93.7 634.8,93.0 636.6,92.2 638.3,91.5 640.1,90.8 641.9,90.1 643.7,89.4 645.4,88.7 647.2,88.1 649.0,87.4 650.7,86.7 652.5,86.0 654.3,85.3 656.1,84.6 657.8,84.0 659.6,83.3 661.4,82.6 663.1,82.0 664.9,81.3 666.7,80.6 668.5,80.0 670.2,79.3 672.0,78.7 673.8,78.0 675.5,77.4 677.3,76.8 679.1,76.1 680.9,75.5 682.6,74.9 684.4,74.2 686.2,73.6 687.9,73.0 689.7,72.4 691.5,71.8 693.3,71.1 695.0,70.5 696.8,69.9 698.6,69.3 700.3,68.7 702.1,68.2 703.9,67.6 705.7,67.0 707.4,66.4 709.2,65.8 711.0,65.2 712.7,64.7 714.5,64.1 716.3,63.5 718.1,63.0 719.8,62.4 721.6,61.9 723.4,61.3 725.1,60.8 726.9,60.2 728.7,59.7 730.5,59.2 732.2,58.6 734.0,58.1 735.8,57.6 737.5,57.1 739.3,56.6 741.1,56.0 742.9,55.5 744.6,55.0 746.4,54.5 748.2,54.0 749.9,53.5 751.7,53.0 753.5,52.6 755.3,52.1 757.0,51.6 758.8,51.1 760.6,50.7 762.3,50.2 764.1,49.7 765.9,49.3 767.7,48.8 769.4,48.4 771.2,47.9 773.0,47.5 774.7,47.0 776.5,46.6 778.3,46.1 780.1,45.7 781.8,45.3 783.6,44.9 785.4,44.4 787.1,44.0 788.9,43.6 790.7,43.2 792.5,42.8 794.2,42.4 796.0,42.0"/>
<text x="640" y="56" font-family="Arial" font-size="12" fill="#0f766e">Truth altitude</text>
</svg>