<svg xmlns="http://www.w3.org/2000/svg" width="820" height="320" viewBox="0 0 820 320">
<rect width="100%" height="100%" fill="white"/>
<text x="52" y="30" font-family="Arial" font-size="18" font-weight="700">particle_nominal altitude</text>
<line x1="52" y1="274" x2="796" y2="274" stroke="#263238"/>
<line x1="52" y1="42" x2="52" y2="274" stroke="#263238"/>
<text x="52" y="306" font-family="Arial" font-size="12">time (s)</text>
<text x="630" y="306" font-family="Arial" font-size="12">m</text>

<rect x="370.9" y="42" width="79.7" height="232" fill="#fef3c7" opacity="0.72"/>
<polyline fill="none" stroke="#0f766e" stroke-width="2.3" points="52.0,274.0 53.8,273.9 55.5,273.9 57.3,273.9 59.1,273.8 60.9,273.8 62.6,273.8 64.4,273.7 66.2,273.7 67.9,273.7 69.7,273.6 71.5,273.6 73.3,273.6 75.0,273.5 76.8,273.5 78.6,273.5 80.3,273.4 82.1,273.4 83.9,273.4 85.7,273.3 87.4,273.3 89.2,273.3 91.0,273.2 92.7,273.2 94.5,273.2 96.3,273.1 98.1,273.1 99.8,273.1 101.6,273.0 103.4,273.0 105.1,273.0 106.9,272.9 108.7,272.9 110.5,272.9 112.2,272.8 114.0,272.8 115.8,272.8 117.5,272.7 119.3,272.7 121.1,272.6 122.9,272.6 124.6,272.6 126.4,272.5 128.2,272.5 129.9,272.4 131.7,272.4 133.5,272.4 135.3,272.3 137.0,272.3 138.8,272.2 140.6,272.2 142.3,272.2 144.1,272.1 145.9,272.1 147.7,272.0 149.4,272.0 151.2,272.0 153.0,271.9 154.7,271.9 156.5,271.8 158.3,271.8 160.1,271.7 161.8,271.7 163.6,271.6 165.4,271.6 167.1,271.5 168.9,271.5 170.7,271.5 172.5,271.4 174.2,271.4 176.0,271.3 177.8,271.3 179.5,271.2 181.3,271.2 183.1,271.1 184.9,271.1 186.6,271.0 188.4,270.9 190.2,270.9 191.9,270.8 193.7,270.8 195.5,270.7 197.3,270.7 199.0,270.6 200.8,270.6 202.6,270.5 204.3,270.5 206.1,270.4 207.9,270.3 209.7,270.3 211.4,270.2 213.2,270.2 215.0,270.1 216.7,270.0 218.5,270.0 220.3,269.9 222.1,269.8 223.8,269.8 225.6,269.7 227.4,269.7 229.1,269.6 230.9,269.5 232.7,269.5 234.5,269.4 236.2,269.3 238.0,269.3 239.8,269.2 241.5,269.1 243.3,269.0 245.1,269.0 246.9,268.9 248.6,268.8 250.4,268.8 252.2,268.7 253.9,268.6 255.7,268.5 257.5,268.5 259.3,268.4 261.0,268.3 262.8,268.2 264.6,268.2 266.3,268.1 268.1,268.0 269.9,267.9 271.7,267.8 273.4,267.8 275.2,267.7 277.0,267.6 278.7,267.5 280.5,267.4 282.3,267.3 284.1,267.3 285.8,267.2 287.6,267.1 289.4,267.0 291.1,266.9 292.9,266.8 294.7,266.7 296.5,266.6 298.2,266.6 300.0,266.5 301.8,266.4 303.5,266.3 305.3,266.2 307.1,266.1 308.9,266.0 310.6,265.9 312.4,265.8 314.2,265.7 315.9,265.6 317.7,265.5 319.5,265.4 321.3,265.3 323.0,265.2 324.8,265.1 326.6,265.0 328.3,264.9 330.1,264.8 331.9,264.7 333.7,264.6 335.4,264.5 337.2,264.4 339.0,264.3 340.7,264.2 342.5,264.1 344.3,264.0 346.1,263.9 347.8,263.8 349.6,263.7 351.4,263.6 353.1,263.5 354.9,263.4 356.7,263.2 358.5,263.1 360.2,263.0 362.0,262.9 363.8,262.8 365.5,262.7 367.3,262.6 369.1,262.5 370.9,262.3 372.6,262.2 374.4,262.1 376.2,262.0 377.9,261.9 379.7,261.8 381.5,261.6 383.3,261.5 385.0,261.4 386.8,261.3 388.6,261.2 390.3,261.1 392.1,260.9 393.9,260.8 395.7,260.7 397.4,260.6 399.2,260.4 401.0,260.3 402.7,260.2 404.5,260.1 406.3,260.0 408.1,259.8 409.8,259.7 411.6,259.6 413.4,259.5 415.1,259.3 416.9,259.2 418.7,259.1 420.5,258.9 422.2,258.8 424.0,258.7 425.8,258.6 427.5,258.4 429.3,258.3 431.1,258.2 432.9,258.0 434.6,257.9 436.4,257.8 438.2,257.6 439.9,257.5 441.7,257.4 443.5,257.3 445.3,257.1 447.0,257.0 448.8,256.9 450.6,256.7 452.3,256.6 454.1,256.5 455.9,256.3 457.7,256.2 459.4,256.1 461.2,255.9 463.0,255.8 464.7,255.6 466.5,255.5 468.3,255.4 470.1,255.2 471.8,255.1 473.6,255.0 475.4,254.8 477.1,254.7 478.9,254.6 480.7,254.4 482.5,254.3 484.2,254.1 486.0,254.0 487.8,253.9 489.5,253.7 491.3,253.6 493.1,253.5 494.9,253.3 496.6,253.2 498.4,253.0 500.2,252.9 501.9,252.8 503.7,252.6 505.5,252.5 507.3,252.4 509.0,252.2 510.8,252.1 512.6,251.9 514.3,251.8 516.1,251.7 517.9,251.5 519.7,251.4 521.4,251.2 523.2,251.1 525.0,251.0 526.7,250.8 528.5,250.7 530.3,250.6 532.1,250.4 533.8,250.3 535.6,250.1 537.4,250.0 539.1,249.9 540.9,249.7 542.7,249.6 544.5,249.4 546.2,249.3 548.0,249.2 549.8,249.0 551.5,248.9 553.3,248.8 555.1,248.6 556.9,248.5 558.6,248.4 560.4,248.2 562.2,248.1 563.9,247.9 565.7,247.8 567.5,247.7 569.3,247.5 571.0,247.4 572.8,247.3 574.6,247.1 576.3,247.0 578.1,246.9 579.9,246.7 581.7,246.6 583.4,246.5 585.2,246.3 587.0,246.2 588.7,246.1 590.5,245.9 592.3,245.8 594.1,245.7 595.8,245.5 597.6,245.4 599.4,245.3 601.1,245.1 602.9,245.0 604.7,244.9 606.5,244.8 608.2,244.6 610.0,244.5 611.8,244.4 613.5,244.2 615.3,244.1 617.1,244.0 618.9,243.9 620.6,243.7 622.4,243.6 624.2,243.5 625.9,243.4 627.7,243.2 629.5,243.1 631.3,243.0 633.0,242.9 634.8,242.7 636.6,242.6 638.3,242.5 640.1,242.4 641.9,242.3 643.7,242.1 645.4,242.0 647.2,241.9 649.0,241.8 650.7,241.7 652.5,241.5 654.3,241.4 656.1,241.3 657.8,241.2 659.6,241.1 661.4,241.0 663.1,240.8 664.9,240.7 666.7,240.6 668.5,240.5 670.2,240.4 672.0,240.3 673.8,240.2 675.5,240.1 677.3,240.0 679.1,239.8 680.9,239.7 682.6,239.6 684.4,239.5 686.2,239.4 687.9,239.3 689.7,239.2 691.5,239.1 693.3,239.0 695.0,238.9 696.8,238.8 698.6,238.7 700.3,238.6 702.1,238.5 703.9,238.4 705.7,238.3 707.4,238.2 709.2,238.1 711.0,238.0 712.7,237.9 714.5,237.8 716.3,237.7 718.1,237.6 719.8,237.5 721.6,237.4 723.4,237.3 725.1,237.2 726.9,237.1 728.7,237.0 730.5,236.9 732.2,236.8 734.0,236.7 735.8,236.6 737.5,236.6 739.3,236.5 741.1,236.4 742.9,236.3 744.6,236.2 746.4,236.1 748.2,236.0 749.9,235.9 751.7,235.9 753.5,235.8 755.3,235.7 757.0,235.6 758.8,235.5 760.6,235.5 762.3,235.4 764.1,235.3 765.9,235.2 767.7,235.1 769.4,235.1 771.2,235.0 773.0,234.9 774.7,234.8 776.5,234.7 778.3,234.7 780.1,234.6 781.8,234.5 783.6,234.5 785.4,234.4 787.1,234.3 788.9,234.2 790.7,234.2 792.5,234.1 794.2,234.0 796.0,234.0"/>
<text x="640" y="56" font-family="Arial" font-size="12" fill="#0f766e">truth</text>
<polyline fill="none" stroke="#2563eb" stroke-width="2.3" points="52.0,270.5 53.8,270.5 55.5,270.5 57.3,270.5 59.1,270.4 60.9,273.9 62.6,273.9 64.4,273.8 66.2,273.7 67.9,273.6 69.7,274.0 71.5,273.9 73.3,273.7 75.0,273.6 76.8,273.4 78.6,271.8 80.3,271.6 82.1,271.3 83.9,271.0 85.7,270.7 87.4,270.8 89.2,270.4 91.0,270.1 92.7,269.7 94.5,269.3 96.3,269.1 98.1,268.7 99.8,268.3 101.6,267.9 103.4,267.5 105.1,269.3 106.9,269.0 108.7,268.7 110.5,268.4 112.2,268.1 114.0,268.5 115.8,268.1 117.5,267.8 119.3,267.4 121.1,267.0 122.9,267.0 124.6,266.7 126.4,266.3 128.2,265.9 129.9,265.4 131.7,264.6 133.5,264.3 135.3,263.9 137.0,263.5 138.8,263.1 140.6,263.4 142.3,263.0 144.1,262.6 145.9,262.2 147.7,261.8 149.4,263.4 151.2,263.0 153.0,262.6 154.7,262.1 156.5,261.7 158.3,262.4 160.1,261.9 161.8,261.5 163.6,261.0 165.4,260.6 167.1,262.4 168.9,261.9 170.7,261.5 172.5,261.0 174.2,260.5 176.0,261.0 177.8,260.5 179.5,260.0 181.3,259.5 183.1,259.0 184.9,260.5 186.6,260.0 188.4,259.5 190.2,259.0 191.9,258.5 193.7,259.6 195.5,259.1 197.3,258.6 199.0,258.0 200.8,257.5 202.6,258.7 204.3,258.1 206.1,257.5 207.9,257.0 209.7,256.4 211.4,257.3 213.2,256.7 215.0,256.2 216.7,255.6 218.5,255.0 220.3,256.1 222.1,255.6 223.8,255.0 225.6,254.4 227.4,253.8 229.1,255.2 230.9,254.6 232.7,254.1 234.5,253.5 236.2,252.9 238.0,252.5 239.8,252.0 241.5,251.4 243.3,250.9 245.1,250.3 246.9,251.9 248.6,251.3 250.4,250.7 252.2,250.1 253.9,249.5 255.7,250.2 257.5,249.6 259.3,248.9 261.0,248.3 262.8,247.7 264.6,248.4 266.3,247.8 268.1,247.1 269.9,246.5 271.7,245.9 273.4,247.7 275.2,247.1 277.0,246.5 278.7,245.8 280.5,245.2 282.3,246.5 284.1,245.8 285.8,245.2 287.6,244.5 289.4,243.8 291.1,243.6 292.9,243.0 294.7,242.3 296.5,241.7 298.2,241.0 300.0,243.7 301.8,243.0 303.5,242.3 305.3,241.6 307.1,240.9 308.9,242.0 310.6,241.3 312.4,240.5 314.2,239.8 315.9,239.1 317.7,239.3 319.5,238.6 321.3,237.9 323.0,237.2 324.8,236.5 326.6,239.4 328.3,238.6 330.1,237.9 331.9,237.1 333.7,236.3 335.4,237.3 337.2,236.5 339.0,235.7 340.7,234.9 342.5,234.1 344.3,236.4 346.1,235.6 347.8,234.8 349.6,234.1 351.4,233.3 353.1,234.6 354.9,233.7 356.7,232.9 358.5,232.1 360.2,231.3 362.0,232.3 363.8,231.5 365.5,230.6 367.3,229.8 369.1,228.9 370.9,229.5 372.6,228.7 374.4,227.8 376.2,226.9 377.9,226.0 379.7,227.9 381.5,227.0 383.3,226.1 385.0,225.2 386.8,224.3 388.6,226.1 390.3,225.2 392.1,224.4 393.9,223.5 395.7,222.6 397.4,223.4 399.2,222.5 401.0,221.6 402.7,220.7 404.5,219.7 406.3,221.5 408.1,220.6 409.8,219.7 411.6,218.7 413.4,217.8 415.1,218.4 416.9,217.5 418.7,216.5 420.5,215.6 422.2,214.6 424.0,215.3 425.8,214.3 427.5,213.3 429.3,212.3 431.1,211.3 432.9,213.8 434.6,212.8 436.4,211.8 438.2,210.7 439.9,209.7 441.7,210.3 443.5,209.2 445.3,208.2 447.0,207.1 448.8,206.1 450.6,206.6 452.3,205.6 454.1,204.5 455.9,203.4 457.7,202.4 459.4,205.1 461.2,204.1 463.0,203.0 464.7,201.9 466.5,200.8 468.3,201.6 470.1,200.5 471.8,199.4 473.6,198.2 475.4,197.1 477.1,198.8 478.9,197.7 480.7,196.5 482.5,195.3 484.2,194.2 486.0,195.8 487.8,194.7 489.5,193.5 491.3,192.3 493.1,191.1 494.9,192.3 496.6,191.1 498.4,189.9 500.2,188.7 501.9,187.5 503.7,188.6 505.5,187.4 507.3,186.2 509.0,185.0 510.8,183.7 512.6,185.9 514.3,184.7 516.1,183.4 517.9,182.2 519.7,180.9 521.4,181.4 523.2,180.2 525.0,178.9 526.7,177.6 528.5,176.3 530.3,176.7 532.1,175.5 533.8,174.2 535.6,173.0 537.4,171.7 539.1,173.7 540.9,172.4 542.7,171.1 544.5,169.8 546.2,168.5 548.0,169.1 549.8,167.8 551.5,166.5 553.3,165.2 555.1,163.9 556.9,165.5 558.6,164.2 560.4,162.9 562.2,161.6 563.9,160.3 565.7,162.1 567.5,160.8 569.3,159.5 571.0,158.1 572.8,156.8 574.6,157.1 576.3,155.7 578.1,154.4 579.9,153.0 581.7,151.6 583.4,153.2 585.2,151.8 587.0,150.5 588.7,149.1 590.5,147.8 592.3,150.6 594.1,149.3 595.8,147.9 597.6,146.5 599.4,145.1 601.1,145.9 602.9,144.5 604.7,143.1 606.5,141.7 608.2,140.3 610.0,141.8 611.8,140.4 613.5,139.0 615.3,137.6 617.1,136.2 618.9,138.5 620.6,137.2 622.4,135.8 624.2,134.4 625.9,133.0 627.7,133.6 629.5,132.2 631.3,130.8 633.0,129.4 634.8,127.9 636.6,130.5 638.3,129.0 640.1,127.6 641.9,126.2 643.7,124.8 645.4,125.6 647.2,124.2 649.0,122.7 650.7,121.3 652.5,119.8 654.3,120.4 656.1,118.9 657.8,117.5 659.6,116.0 661.4,114.6 663.1,117.0 664.9,115.6 666.7,114.1 668.5,112.7 670.2,111.2 672.0,114.1 673.8,112.6 675.5,111.1 677.3,109.6 679.1,108.1 680.9,108.7 682.6,107.2 684.4,105.7 686.2,104.1 687.9,102.6 689.7,105.4 691.5,103.8 693.3,102.3 695.0,100.8 696.8,99.3 698.6,101.1 700.3,99.6 702.1,98.1 703.9,96.5 705.7,95.0 707.4,96.0 709.2,94.5 711.0,92.9 712.7,91.3 714.5,89.7 716.3,91.5 718.1,89.9 719.8,88.3 721.6,86.7 723.4,85.1 725.1,86.9 726.9,85.3 728.7,83.7 730.5,82.1 732.2,80.5 734.0,80.9 735.8,79.2 737.5,77.6 739.3,76.0 741.1,74.3 742.9,76.1 744.6,74.5 746.4,72.9 748.2,71.2 749.9,69.6 751.7,70.1 753.5,68.5 755.3,66.8 757.0,65.2 758.8,63.5 760.6,64.8 762.3,63.1 764.1,61.4 765.9,59.6 767.7,57.9 769.4,60.8 771.2,59.1 773.0,57.3 774.7,55.6 776.5,53.8 778.3,55.9 780.1,54.1 781.8,52.3 783.6,50.6 785.4,48.8 787.1,49.2 788.9,47.4 790.7,45.6 792.5,43.8 794.2,42.0 796.0,44.1"/>
<text x="640" y="72" font-family="Arial" font-size="12" fill="#2563eb">estimate</text>
</svg>