<svg xmlns="http://www.w3.org/2000/svg" width="820" height="320" viewBox="0 0 820 320">
<rect width="100%" height="100%" fill="white"/>
<text x="52" y="30" font-family="Arial" font-size="18" font-weight="700">sqrt_nominal accelerometer bias estimates</text>
<line x1="52" y1="274" x2="796" y2="274" stroke="#263238"/>
<line x1="52" y1="42" x2="52" y2="274" stroke="#263238"/>
<text x="52" y="306" font-family="Arial" font-size="12">time (s)</text>
<text x="630" y="306" font-family="Arial" font-size="12">m/s^2</text>

<polyline fill="none" stroke="#0f766e" stroke-width="2.3" points="52.0,150.2 53.8,150.2 55.5,150.2 57.3,150.2 59.1,150.2 60.9,150.2 62.6,150.2 64.4,150.2 66.2,150.2 67.9,150.2 69.7,150.2 71.5,150.2 73.3,150.2 75.0,150.2 76.8,150.2 78.6,178.8 80.3,178.8 82.1,178.8 83.9,178.8 85.7,178.8 87.4,178.8 89.2,178.8 91.0,178.8 92.7,178.8 94.5,178.8 96.3,178.8 98.1,178.8 99.8,178.8 101.6,178.8 103.4,178.8 105.1,45.8 106.9,45.8 108.7,45.8 110.5,45.8 112.2,45.8 114.0,45.8 115.8,45.8 117.5,45.8 119.3,45.8 121.1,45.8 122.9,45.8 124.6,45.8 126.4,45.8 128.2,45.8 129.9,45.8 131.7,42.0 133.5,42.0 135.3,42.0 137.0,42.0 138.8,42.0 140.6,42.0 142.3,42.0 144.1,42.0 145.9,42.0 147.7,42.0 149.4,42.0 151.2,42.0 153.0,42.0 154.7,42.0 156.5,42.0 158.3,87.7 160.1,87.7 161.8,87.7 163.6,87.7 165.4,87.7 167.1,87.7 168.9,87.7 170.7,87.7 172.5,87.7 174.2,87.7 176.0,87.7 177.8,87.7 179.5,87.7 181.3,87.7 183.1,87.7 184.9,96.2 186.6,96.2 188.4,96.2 190.2,96.2 191.9,96.2 193.7,96.2 195.5,96.2 197.3,96.2 199.0,96.2 200.8,96.2 202.6,96.2 204.3,96.2 206.1,96.2 207.9,96.2 209.7,96.2 211.4,146.1 213.2,146.1 215.0,146.1 216.7,146.1 218.5,146.1 220.3,146.1 222.1,146.1 223.8,146.1 225.6,146.1 227.4,146.1 229.1,146.1 230.9,146.1 232.7,146.1 234.5,146.1 236.2,146.1 238.0,157.8 239.8,157.8 241.5,157.8 243.3,157.8 245.1,157.8 246.9,157.8 248.6,157.8 250.4,157.8 252.2,157.8 253.9,157.8 255.7,157.8 257.5,157.8 259.3,157.8 261.0,157.8 262.8,157.8 264.6,152.9 266.3,152.9 268.1,152.9 269.9,152.9 271.7,152.9 273.4,152.9 275.2,152.9 277.0,152.9 278.7,152.9 280.5,152.9 282.3,152.9 284.1,152.9 285.8,152.9 287.6,152.9 289.4,152.9 291.1,158.5 292.9,158.5 294.7,158.5 296.5,158.5 298.2,158.5 300.0,158.5 301.8,158.5 303.5,158.5 305.3,158.5 307.1,158.5 308.9,158.5 310.6,158.5 312.4,158.5 314.2,158.5 315.9,158.5 317.7,156.5 319.5,156.5 321.3,156.5 323.0,156.5 324.8,156.5 326.6,156.5 328.3,156.5 330.1,156.5 331.9,156.5 333.7,156.5 335.4,156.5 337.2,156.5 339.0,156.5 340.7,156.5 342.5,156.5 344.3,154.6 346.1,154.6 347.8,154.6 349.6,154.6 351.4,154.6 353.1,154.6 354.9,154.6 356.7,154.6 358.5,154.6 360.2,154.6 362.0,154.6 363.8,154.6 365.5,154.6 367.3,154.6 369.1,154.6 370.9,154.6 372.6,154.6 374.4,154.6 376.2,154.6 377.9,154.6 379.7,154.6 381.5,154.6 383.3,154.6 385.0,154.6 386.8,154.6 388.6,154.6 390.3,154.6 392.1,154.6 393.9,154.6 395.7,154.6 397.4,154.6 399.2,154.6 401.0,154.6 402.7,154.6 404.5,154.6 406.3,154.6 408.1,154.6 409.8,154.6 411.6,154.6 413.4,154.6 415.1,154.6 416.9,154.6 418.7,154.6 420.5,154.6 422.2,154.6 424.0,154.6 425.8,154.6 427.5,154.6 429.3,154.6 431.1,154.6 432.9,154.6 434.6,154.6 436.4,154.6 438.2,154.6 439.9,154.6 441.7,154.6 443.5,154.6 445.3,154.6 447.0,154.6 448.8,154.6 450.6,154.6 452.3,154.6 454.1,154.6 455.9,154.6 457.7,154.6 459.4,154.6 461.2,154.6 463.0,154.6 464.7,154.6 466.5,154.6 468.3,154.6 470.1,154.6 471.8,154.6 473.6,154.6 475.4,154.6 477.1,145.1 478.9,145.1 480.7,145.1 482.5,145.1 484.2,145.1 486.0,145.1 487.8,145.1 489.5,145.1 491.3,145.1 493.1,145.1 494.9,145.1 496.6,145.1 498.4,145.1 500.2,145.1 501.9,145.1 503.7,135.6 505.5,135.6 507.3,135.6 509.0,135.6 510.8,135.6 512.6,135.6 514.3,135.6 516.1,135.6 517.9,135.6 519.7,135.6 521.4,135.6 523.2,135.6 525.0,135.6 526.7,135.6 528.5,135.6 530.3,139.0 532.1,139.0 533.8,139.0 535.6,139.0 537.4,139.0 539.1,139.0 540.9,139.0 542.7,139.0 544.5,139.0 546.2,139.0 548.0,139.0 549.8,139.0 551.5,139.0 553.3,139.0 555.1,139.0 556.9,135.9 558.6,135.9 560.4,135.9 562.2,135.9 563.9,135.9 565.7,135.9 567.5,135.9 569.3,135.9 571.0,135.9 572.8,135.9 574.6,135.9 576.3,135.9 578.1,135.9 579.9,135.9 581.7,135.9 583.4,135.1 585.2,135.1 587.0,135.1 588.7,135.1 590.5,135.1 592.3,135.1 594.1,135.1 595.8,135.1 597.6,135.1 599.4,135.1 601.1,135.1 602.9,135.1 604.7,135.1 606.5,135.1 608.2,135.1 610.0,135.1 611.8,135.1 613.5,135.1 615.3,135.1 617.1,135.1 618.9,135.1 620.6,135.1 622.4,135.1 624.2,135.1 625.9,135.1 627.7,135.1 629.5,135.1 631.3,135.1 633.0,135.1 634.8,135.1 636.6,139.0 638.3,139.0 640.1,139.0 641.9,139.0 643.7,139.0 645.4,139.0 647.2,139.0 649.0,139.0 650.7,139.0 652.5,139.0 654.3,139.0 656.1,139.0 657.8,139.0 659.6,139.0 661.4,139.0 663.1,141.2 664.9,141.2 666.7,141.2 668.5,141.2 670.2,141.2 672.0,141.2 673.8,141.2 675.5,141.2 677.3,141.2 679.1,141.2 680.9,141.2 682.6,141.2 684.4,141.2 686.2,141.2 687.9,141.2 689.7,140.5 691.5,140.5 693.3,140.5 695.0,140.5 696.8,140.5 698.6,140.5 700.3,140.5 702.1,140.5 703.9,140.5 705.7,140.5 707.4,140.5 709.2,140.5 711.0,140.5 712.7,140.5 714.5,140.5 716.3,136.9 718.1,136.9 719.8,136.9 721.6,136.9 723.4,136.9 725.1,136.9 726.9,136.9 728.7,136.9 730.5,136.9 732.2,136.9 734.0,136.9 735.8,136.9 737.5,136.9 739.3,136.9 741.1,136.9 742.9,139.8 744.6,139.8 746.4,139.8 748.2,139.8 749.9,139.8 751.7,139.8 753.5,139.8 755.3,139.8 757.0,139.8 758.8,139.8 760.6,139.8 762.3,139.8 764.1,139.8 765.9,139.8 767.7,139.8 769.4,138.6 771.2,138.6 773.0,138.6 774.7,138.6 776.5,138.6 778.3,138.6 780.1,138.6 781.8,138.6 783.6,138.6 785.4,138.6 787.1,138.6 788.9,138.6 790.7,138.6 792.5,138.6 794.2,138.6 796.0,140.1"/>
<text x="640" y="56" font-family="Arial" font-size="12" fill="#0f766e">bax</text>
<polyline fill="none" stroke="#2563eb" stroke-width="2.3" points="52.0,150.2 53.8,150.2 55.5,150.2 57.3,150.2 59.1,150.2 60.9,150.2 62.6,150.2 64.4,150.2 66.2,150.2 67.9,150.2 69.7,150.2 71.5,150.2 73.3,150.2 75.0,150.2 76.8,150.2 78.6,256.3 80.3,256.3 82.1,256.3 83.9,256.3 85.7,256.3 87.4,256.3 89.2,256.3 91.0,256.3 92.7,256.3 94.5,256.3 96.3,256.3 98.1,256.3 99.8,256.3 101.6,256.3 103.4,256.3 105.1,212.2 106.9,212.2 108.7,212.2 110.5,212.2 112.2,212.2 114.0,212.2 115.8,212.2 117.5,212.2 119.3,212.2 121.1,212.2 122.9,212.2 124.6,212.2 126.4,212.2 128.2,212.2 129.9,212.2 131.7,210.5 133.5,210.5 135.3,210.5 137.0,210.5 138.8,210.5 140.6,210.5 142.3,210.5 144.1,210.5 145.9,210.5 147.7,210.5 149.4,210.5 151.2,210.5 153.0,210.5 154.7,210.5 156.5,210.5 158.3,180.1 160.1,180.1 161.8,180.1 163.6,180.1 165.4,180.1 167.1,180.1 168.9,180.1 170.7,180.1 172.5,180.1 174.2,180.1 176.0,180.1 177.8,180.1 179.5,180.1 181.3,180.1 183.1,180.1 184.9,202.6 186.6,202.6 188.4,202.6 190.2,202.6 191.9,202.6 193.7,202.6 195.5,202.6 197.3,202.6 199.0,202.6 200.8,202.6 202.6,202.6 204.3,202.6 206.1,202.6 207.9,202.6 209.7,202.6 211.4,186.4 213.2,186.4 215.0,186.4 216.7,186.4 218.5,186.4 220.3,186.4 222.1,186.4 223.8,186.4 225.6,186.4 227.4,186.4 229.1,186.4 230.9,186.4 232.7,186.4 234.5,186.4 236.2,186.4 238.0,159.1 239.8,159.1 241.5,159.1 243.3,159.1 245.1,159.1 246.9,159.1 248.6,159.1 250.4,159.1 252.2,159.1 253.9,159.1 255.7,159.1 257.5,159.1 259.3,159.1 261.0,159.1 262.8,159.1 264.6,155.0 266.3,155.0 268.1,155.0 269.9,155.0 271.7,155.0 273.4,155.0 275.2,155.0 277.0,155.0 278.7,155.0 280.5,155.0 282.3,155.0 284.1,155.0 285.8,155.0 287.6,155.0 289.4,155.0 291.1,156.8 292.9,156.8 294.7,156.8 296.5,156.8 298.2,156.8 300.0,156.8 301.8,156.8 303.5,156.8 305.3,156.8 307.1,156.8 308.9,156.8 310.6,156.8 312.4,156.8 314.2,156.8 315.9,156.8 317.7,155.3 319.5,155.3 321.3,155.3 323.0,155.3 324.8,155.3 326.6,155.3 328.3,155.3 330.1,155.3 331.9,155.3 333.7,155.3 335.4,155.3 337.2,155.3 339.0,155.3 340.7,155.3 342.5,155.3 344.3,163.7 346.1,163.7 347.8,163.7 349.6,163.7 351.4,163.7 353.1,163.7 354.9,163.7 356.7,163.7 358.5,163.7 360.2,163.7 362.0,163.7 363.8,163.7 365.5,163.7 367.3,163.7 369.1,163.7 370.9,163.7 372.6,163.7 374.4,163.7 376.2,163.7 377.9,163.7 379.7,163.7 381.5,163.7 383.3,163.7 385.0,163.7 386.8,163.7 388.6,163.7 390.3,163.7 392.1,163.7 393.9,163.7 395.7,163.7 397.4,163.7 399.2,163.7 401.0,163.7 402.7,163.7 404.5,163.7 406.3,163.7 408.1,163.7 409.8,163.7 411.6,163.7 413.4,163.7 415.1,163.7 416.9,163.7 418.7,163.7 420.5,163.7 422.2,163.7 424.0,163.7 425.8,163.7 427.5,163.7 429.3,163.7 431.1,163.7 432.9,163.7 434.6,163.7 436.4,163.7 438.2,163.7 439.9,163.7 441.7,163.7 443.5,163.7 445.3,163.7 447.0,163.7 448.8,163.7 450.6,163.7 452.3,163.7 454.1,163.7 455.9,163.7 457.7,163.7 459.4,163.7 461.2,163.7 463.0,163.7 464.7,163.7 466.5,163.7 468.3,163.7 470.1,163.7 471.8,163.7 473.6,163.7 475.4,163.7 477.1,160.5 478.9,160.5 480.7,160.5 482.5,160.5 484.2,160.5 486.0,160.5 487.8,160.5 489.5,160.5 491.3,160.5 493.1,160.5 494.9,160.5 496.6,160.5 498.4,160.5 500.2,160.5 501.9,160.5 503.7,159.1 505.5,159.1 507.3,159.1 509.0,159.1 510.8,159.1 512.6,159.1 514.3,159.1 516.1,159.1 517.9,159.1 519.7,159.1 521.4,159.1 523.2,159.1 525.0,159.1 526.7,159.1 528.5,159.1 530.3,160.2 532.1,160.2 533.8,160.2 535.6,160.2 537.4,160.2 539.1,160.2 540.9,160.2 542.7,160.2 544.5,160.2 546.2,160.2 548.0,160.2 549.8,160.2 551.5,160.2 553.3,160.2 555.1,160.2 556.9,160.8 558.6,160.8 560.4,160.8 562.2,160.8 563.9,160.8 565.7,160.8 567.5,160.8 569.3,160.8 571.0,160.8 572.8,160.8 574.6,160.8 576.3,160.8 578.1,160.8 579.9,160.8 581.7,160.8 583.4,158.1 585.2,158.1 587.0,158.1 588.7,158.1 590.5,158.1 592.3,158.1 594.1,158.1 595.8,158.1 597.6,158.1 599.4,158.1 601.1,158.1 602.9,158.1 604.7,158.1 606.5,158.1 608.2,158.1 610.0,158.1 611.8,158.1 613.5,158.1 615.3,158.1 617.1,158.1 618.9,158.1 620.6,158.1 622.4,158.1 624.2,158.1 625.9,158.1 627.7,158.1 629.5,158.1 631.3,158.1 633.0,158.1 634.8,158.1 636.6,157.6 638.3,157.6 640.1,157.6 641.9,157.6 643.7,157.6 645.4,157.6 647.2,157.6 649.0,157.6 650.7,157.6 652.5,157.6 654.3,157.6 656.1,157.6 657.8,157.6 659.6,157.6 661.4,157.6 663.1,156.7 664.9,156.7 666.7,156.7 668.5,156.7 670.2,156.7 672.0,156.7 673.8,156.7 675.5,156.7 677.3,156.7 679.1,156.7 680.9,156.7 682.6,156.7 684.4,156.7 686.2,156.7 687.9,156.7 689.7,161.2 691.5,161.2 693.3,161.2 695.0,161.2 696.8,161.2 698.6,161.2 700.3,161.2 702.1,161.2 703.9,161.2 705.7,161.2 707.4,161.2 709.2,161.2 711.0,161.2 712.7,161.2 714.5,161.2 716.3,162.7 718.1,162.7 719.8,162.7 721.6,162.7 723.4,162.7 725.1,162.7 726.9,162.7 728.7,162.7 730.5,162.7 732.2,162.7 734.0,162.7 735.8,162.7 737.5,162.7 739.3,162.7 741.1,162.7 742.9,163.6 744.6,163.6 746.4,163.6 748.2,163.6 749.9,163.6 751.7,163.6 753.5,163.6 755.3,163.6 757.0,163.6 758.8,163.6 760.6,163.6 762.3,163.6 764.1,163.6 765.9,163.6 767.7,163.6 769.4,163.0 771.2,163.0 773.0,163.0 774.7,163.0 776.5,163.0 778.3,163.0 780.1,163.0 781.8,163.0 783.6,163.0 785.4,163.0 787.1,163.0 788.9,163.0 790.7,163.0 792.5,163.0 794.2,163.0 796.0,163.0"/>
<text x="640" y="72" font-family="Arial" font-size="12" fill="#2563eb">bay</text>
<polyline fill="none" stroke="#b45309" stroke-width="2.3" points="52.0,150.2 53.8,150.2 55.5,150.2 57.3,150.2 59.1,150.2 60.9,142.9 62.6,142.9 64.4,142.9 66.2,142.9 67.9,142.9 69.7,140.3 71.5,140.3 73.3,140.3 75.0,140.3 76.8,140.3 78.6,274.0 80.3,274.0 82.1,274.0 83.9,274.0 85.7,274.0 87.4,269.0 89.2,269.0 91.0,269.0 92.7,269.0 94.5,269.0 96.3,270.6 98.1,270.6 99.8,270.6 101.6,270.6 103.4,270.6 105.1,116.4 106.9,116.4 108.7,116.4 110.5,116.4 112.2,116.4 114.0,113.3 115.8,113.3 117.5,113.3 119.3,113.3 121.1,113.3 122.9,114.8 124.6,114.8 126.4,114.8 128.2,114.8 129.9,114.8 131.7,149.6 133.5,149.6 135.3,149.6 137.0,149.6 138.8,149.6 140.6,151.3 142.3,151.3 144.1,151.3 145.9,151.3 147.7,151.3 149.4,126.9 151.2,126.9 153.0,126.9 154.7,126.9 156.5,126.9 158.3,96.3 160.1,96.3 161.8,96.3 163.6,96.3 165.4,96.3 167.1,92.2 168.9,92.2 170.7,92.2 172.5,92.2 174.2,92.2 176.0,98.1 177.8,98.1 179.5,98.1 181.3,98.1 183.1,98.1 184.9,94.4 186.6,94.4 188.4,94.4 190.2,94.4 191.9,94.4 193.7,96.0 195.5,96.0 197.3,96.0 199.0,96.0 200.8,96.0 202.6,91.3 204.3,91.3 206.1,91.3 207.9,91.3 209.7,91.3 211.4,116.9 213.2,116.9 215.0,116.9 216.7,116.9 218.5,116.9 220.3,112.4 222.1,112.4 223.8,112.4 225.6,112.4 227.4,112.4 229.1,104.1 230.9,104.1 232.7,104.1 234.5,104.1 236.2,104.1 238.0,105.1 239.8,105.1 241.5,105.1 243.3,105.1 245.1,105.1 246.9,100.6 248.6,100.6 250.4,100.6 252.2,100.6 253.9,100.6 255.7,102.7 257.5,102.7 259.3,102.7 261.0,102.7 262.8,102.7 264.6,110.4 266.3,110.4 268.1,110.4 269.9,110.4 271.7,110.4 273.4,113.8 275.2,113.8 277.0,113.8 278.7,113.8 280.5,113.8 282.3,116.3 284.1,116.3 285.8,116.3 287.6,116.3 289.4,116.3 291.1,126.6 292.9,126.6 294.7,126.6 296.5,126.6 298.2,126.6 300.0,124.9 301.8,124.9 303.5,124.9 305.3,124.9 307.1,124.9 308.9,124.9 310.6,124.9 312.4,124.9 314.2,124.9 315.9,124.9 317.7,126.2 319.5,126.2 321.3,126.2 323.0,126.2 324.8,126.2 326.6,122.8 328.3,122.8 330.1,122.8 331.9,122.8 333.7,122.8 335.4,120.4 337.2,120.4 339.0,120.4 340.7,120.4 342.5,120.4 344.3,120.3 346.1,120.3 347.8,120.3 349.6,120.3 351.4,120.3 353.1,121.1 354.9,121.1 356.7,121.1 358.5,121.1 360.2,121.1 362.0,121.9 363.8,121.9 365.5,121.9 367.3,121.9 369.1,121.9 370.9,124.3 372.6,124.3 374.4,124.3 376.2,124.3 377.9,124.3 379.7,128.5 381.5,128.5 383.3,128.5 385.0,128.5 386.8,128.5 388.6,128.8 390.3,128.8 392.1,128.8 393.9,128.8 395.7,128.8 397.4,126.3 399.2,126.3 401.0,126.3 402.7,126.3 404.5,126.3 406.3,131.2 408.1,131.2 409.8,131.2 411.6,131.2 413.4,131.2 415.1,132.6 416.9,132.6 418.7,132.6 420.5,132.6 422.2,132.6 424.0,137.6 425.8,137.6 427.5,137.6 429.3,137.6 431.1,137.6 432.9,134.6 434.6,134.6 436.4,134.6 438.2,134.6 439.9,134.6 441.7,135.2 443.5,135.2 445.3,135.2 447.0,135.2 448.8,135.2 450.6,133.8 452.3,133.8 454.1,133.8 455.9,133.8 457.7,133.8 459.4,134.7 461.2,134.7 463.0,134.7 464.7,134.7 466.5,134.7 468.3,138.3 470.1,138.3 471.8,138.3 473.6,138.3 475.4,138.3 477.1,143.8 478.9,143.8 480.7,143.8 482.5,143.8 484.2,143.8 486.0,144.4 487.8,144.4 489.5,144.4 491.3,144.4 493.1,144.4 494.9,143.8 496.6,143.8 498.4,143.8 500.2,143.8 501.9,143.8 503.7,142.9 505.5,142.9 507.3,142.9 509.0,142.9 510.8,142.9 512.6,140.1 514.3,140.1 516.1,140.1 517.9,140.1 519.7,140.1 521.4,140.2 523.2,140.2 525.0,140.2 526.7,140.2 528.5,140.2 530.3,138.9 532.1,138.9 533.8,138.9 535.6,138.9 537.4,138.9 539.1,139.9 540.9,139.9 542.7,139.9 544.5,139.9 546.2,139.9 548.0,141.7 549.8,141.7 551.5,141.7 553.3,141.7 555.1,141.7 556.9,139.8 558.6,139.8 560.4,139.8 562.2,139.8 563.9,139.8 565.7,138.6 567.5,138.6 569.3,138.6 571.0,138.6 572.8,138.6 574.6,140.7 576.3,140.7 578.1,140.7 579.9,140.7 581.7,140.7 583.4,139.4 585.2,139.4 587.0,139.4 588.7,139.4 590.5,139.4 592.3,139.3 594.1,139.3 595.8,139.3 597.6,139.3 599.4,139.3 601.1,138.1 602.9,138.1 604.7,138.1 606.5,138.1 608.2,138.1 610.0,138.6 611.8,138.6 613.5,138.6 615.3,138.6 617.1,138.6 618.9,137.8 620.6,137.8 622.4,137.8 624.2,137.8 625.9,137.8 627.7,138.2 629.5,138.2 631.3,138.2 633.0,138.2 634.8,138.2 636.6,139.2 638.3,139.2 640.1,139.2 641.9,139.2 643.7,139.2 645.4,138.2 647.2,138.2 649.0,138.2 650.7,138.2 652.5,138.2 654.3,138.2 656.1,138.2 657.8,138.2 659.6,138.2 661.4,138.2 663.1,138.7 664.9,138.7 666.7,138.7 668.5,138.7 670.2,138.7 672.0,137.6 673.8,137.6 675.5,137.6 677.3,137.6 679.1,137.6 680.9,137.5 682.6,137.5 684.4,137.5 686.2,137.5 687.9,137.5 689.7,137.2 691.5,137.2 693.3,137.2 695.0,137.2 696.8,137.2 698.6,137.5 700.3,137.5 702.1,137.5 703.9,137.5 705.7,137.5 707.4,137.5 709.2,137.5 711.0,137.5 712.7,137.5 714.5,137.5 716.3,137.5 718.1,137.5 719.8,137.5 721.6,137.5 723.4,137.5 725.1,138.1 726.9,138.1 728.7,138.1 730.5,138.1 732.2,138.1 734.0,137.9 735.8,137.9 737.5,137.9 739.3,137.9 741.1,137.9 742.9,137.9 744.6,137.9 746.4,137.9 748.2,137.9 749.9,137.9 751.7,138.3 753.5,138.3 755.3,138.3 757.0,138.3 758.8,138.3 760.6,139.0 762.3,139.0 764.1,139.0 765.9,139.0 767.7,139.0 769.4,140.5 771.2,140.5 773.0,140.5 774.7,140.5 776.5,140.5 778.3,140.8 780.1,140.8 781.8,140.8 783.6,140.8 785.4,140.8 787.1,140.1 788.9,140.1 790.7,140.1 792.5,140.1 794.2,140.1 796.0,140.4"/>
<text x="640" y="88" font-family="Arial" font-size="12" fill="#b45309">baz</text>
</svg>