<svg xmlns="http://www.w3.org/2000/svg" width="820" height="320" viewBox="0 0 820 320">
<rect width="100%" height="100%" fill="white"/>
<text x="52" y="30" font-family="Arial" font-size="18" font-weight="700">particle_nominal accelerometer bias estimates</text>
<line x1="52" y1="274" x2="796" y2="274" stroke="#263238"/>
<line x1="52" y1="42" x2="52" y2="274" stroke="#263238"/>
<text x="52" y="306" font-family="Arial" font-size="12">time (s)</text>
<text x="630" y="306" font-family="Arial" font-size="12">m/s^2</text>

<polyline fill="none" stroke="#0f766e" stroke-width="2.3" points="52.0,129.7 53.8,129.7 55.5,129.7 57.3,129.7 59.1,129.7 60.9,115.8 62.6,115.8 64.4,115.8 66.2,115.8 67.9,115.8 69.7,114.3 71.5,114.3 73.3,114.3 75.0,114.3 76.8,114.4 78.6,119.8 80.3,119.8 82.1,119.8 83.9,119.8 85.7,119.8 87.4,119.2 89.2,119.2 91.0,119.2 92.7,119.2 94.5,119.2 96.3,118.9 98.1,118.9 99.8,118.9 101.6,118.9 103.4,118.9 105.1,110.6 106.9,110.6 108.7,110.6 110.5,110.6 112.2,110.6 114.0,111.3 115.8,111.3 117.5,111.3 119.3,111.3 121.1,111.3 122.9,111.6 124.6,111.6 126.4,111.6 128.2,111.6 129.9,111.6 131.7,112.4 133.5,112.4 135.3,112.4 137.0,112.4 138.8,112.4 140.6,112.5 142.3,112.5 144.1,112.5 145.9,112.5 147.7,112.5 149.4,111.9 151.2,111.9 153.0,111.9 154.7,111.9 156.5,111.9 158.3,111.4 160.1,111.4 161.8,111.4 163.6,111.4 165.4,111.4 167.1,110.7 168.9,110.8 170.7,110.7 172.5,110.7 174.2,110.7 176.0,111.0 177.8,111.0 179.5,110.9 181.3,110.9 183.1,110.9 184.9,112.3 186.6,112.3 188.4,112.3 190.2,112.3 191.9,112.3 193.7,113.2 195.5,113.2 197.3,113.2 199.0,113.2 200.8,113.2 202.6,113.7 204.3,113.7 206.1,113.7 207.9,113.7 209.7,113.7 211.4,114.4 213.2,114.4 215.0,114.4 216.7,114.4 218.5,114.4 220.3,114.4 222.1,114.4 223.8,114.4 225.6,114.4 227.4,114.4 229.1,114.2 230.9,114.2 232.7,114.2 234.5,114.2 236.2,114.2 238.0,114.5 239.8,114.5 241.5,114.5 243.3,114.5 245.1,114.5 246.9,113.9 248.6,113.9 250.4,113.9 252.2,113.9 253.9,113.9 255.7,113.6 257.5,113.6 259.3,113.6 261.0,113.6 262.8,113.6 264.6,112.9 266.3,112.9 268.1,112.9 269.9,112.9 271.7,112.9 273.4,113.3 275.2,113.3 277.0,113.3 278.7,113.3 280.5,113.3 282.3,113.6 284.1,113.6 285.8,113.6 287.6,113.6 289.4,113.6 291.1,112.8 292.9,112.8 294.7,112.8 296.5,112.8 298.2,112.8 300.0,113.7 301.8,113.7 303.5,113.7 305.3,113.7 307.1,113.7 308.9,113.8 310.6,113.8 312.4,113.8 314.2,113.8 315.9,113.8 317.7,113.5 319.5,113.5 321.3,113.5 323.0,113.5 324.8,113.5 326.6,113.3 328.3,113.3 330.1,113.3 331.9,113.3 333.7,113.3 335.4,113.9 337.2,113.9 339.0,113.9 340.7,113.9 342.5,113.9 344.3,113.8 346.1,113.8 347.8,113.8 349.6,113.8 351.4,113.8 353.1,114.3 354.9,114.3 356.7,114.3 358.5,114.3 360.2,114.3 362.0,114.5 363.8,114.5 365.5,114.5 367.3,114.5 369.1,114.5 370.9,114.8 372.6,114.8 374.4,114.8 376.2,114.8 377.9,114.8 379.7,115.5 381.5,115.5 383.3,115.5 385.0,115.5 386.8,115.5 388.6,114.7 390.3,114.7 392.1,114.7 393.9,114.7 395.7,114.7 397.4,114.6 399.2,114.6 401.0,114.6 402.7,114.6 404.5,114.6 406.3,114.5 408.1,114.5 409.8,114.5 411.6,114.5 413.4,114.5 415.1,114.5 416.9,114.5 418.7,114.5 420.5,114.5 422.2,114.5 424.0,112.9 425.8,112.9 427.5,112.9 429.3,112.9 431.1,112.9 432.9,112.4 434.6,112.4 436.4,112.4 438.2,112.4 439.9,112.4 441.7,112.3 443.5,112.3 445.3,112.3 447.0,112.3 448.8,112.3 450.6,112.4 452.3,112.4 454.1,112.4 455.9,112.4 457.7,112.4 459.4,113.1 461.2,113.1 463.0,113.1 464.7,113.1 466.5,113.1 468.3,112.9 470.1,112.9 471.8,112.9 473.6,112.9 475.4,112.9 477.1,113.1 478.9,113.1 480.7,113.1 482.5,113.1 484.2,113.1 486.0,112.2 487.8,112.2 489.5,112.2 491.3,112.2 493.1,112.2 494.9,111.7 496.6,111.7 498.4,111.7 500.2,111.7 501.9,111.7 503.7,112.9 505.5,112.9 507.3,112.9 509.0,112.9 510.8,112.9 512.6,112.9 514.3,112.9 516.1,112.9 517.9,112.9 519.7,112.9 521.4,112.5 523.2,112.5 525.0,112.5 526.7,112.5 528.5,112.5 530.3,113.9 532.1,113.9 533.8,113.9 535.6,113.9 537.4,113.9 539.1,113.7 540.9,113.7 542.7,113.7 544.5,113.7 546.2,113.7 548.0,113.6 549.8,113.6 551.5,113.6 553.3,113.6 555.1,113.6 556.9,112.2 558.6,112.2 560.4,112.2 562.2,112.2 563.9,112.2 565.7,113.3 567.5,113.3 569.3,113.3 571.0,113.3 572.8,113.3 574.6,113.0 576.3,113.0 578.1,113.0 579.9,113.0 581.7,113.0 583.4,112.4 585.2,112.4 587.0,112.4 588.7,112.4 590.5,112.4 592.3,112.4 594.1,112.4 595.8,112.4 597.6,112.4 599.4,112.4 601.1,111.7 602.9,111.7 604.7,111.7 606.5,111.7 608.2,111.7 610.0,110.9 611.8,110.8 613.5,110.9 615.3,110.9 617.1,110.9 618.9,111.0 620.6,111.0 622.4,111.0 624.2,111.0 625.9,111.0 627.7,110.6 629.5,110.6 631.3,110.6 633.0,110.6 634.8,110.6 636.6,110.5 638.3,110.5 640.1,110.5 641.9,110.5 643.7,110.5 645.4,110.1 647.2,110.1 649.0,110.1 650.7,110.1 652.5,110.1 654.3,111.0 656.1,111.0 657.8,111.0 659.6,111.0 661.4,111.0 663.1,112.4 664.9,112.4 666.7,112.4 668.5,112.4 670.2,112.4 672.0,112.4 673.8,112.4 675.5,112.4 677.3,112.4 679.1,112.4 680.9,112.3 682.6,112.3 684.4,112.3 686.2,112.3 687.9,112.3 689.7,111.4 691.5,111.4 693.3,111.4 695.0,111.4 696.8,111.4 698.6,110.2 700.3,110.2 702.1,110.2 703.9,110.2 705.7,110.2 707.4,110.5 709.2,110.5 711.0,110.5 712.7,110.5 714.5,110.5 716.3,110.3 718.1,110.3 719.8,110.3 721.6,110.3 723.4,110.3 725.1,111.3 726.9,111.3 728.7,111.3 730.5,111.3 732.2,111.3 734.0,110.9 735.8,110.9 737.5,110.9 739.3,110.9 741.1,110.9 742.9,112.1 744.6,112.1 746.4,112.1 748.2,112.1 749.9,112.1 751.7,112.5 753.5,112.5 755.3,112.5 757.0,112.5 758.8,112.5 760.6,113.1 762.3,113.1 764.1,113.1 765.9,113.1 767.7,113.1 769.4,113.6 771.2,113.7 773.0,113.7 774.7,113.7 776.5,113.7 778.3,114.0 780.1,114.0 781.8,114.0 783.6,114.0 785.4,114.0 787.1,114.1 788.9,114.1 790.7,114.1 792.5,114.1 794.2,114.1 796.0,112.6"/>
<text x="640" y="56" font-family="Arial" font-size="12" fill="#0f766e">bax</text>
<polyline fill="none" stroke="#2563eb" stroke-width="2.3" points="52.0,152.0 53.8,152.0 55.5,152.0 57.3,152.0 59.1,152.0 60.9,224.8 62.6,224.8 64.4,224.8 66.2,224.8 67.9,224.8 69.7,231.5 71.5,231.5 73.3,231.5 75.0,231.5 76.8,231.5 78.6,238.4 80.3,238.4 82.1,238.4 83.9,238.4 85.7,238.5 87.4,238.7 89.2,238.7 91.0,238.7 92.7,238.7 94.5,238.7 96.3,238.6 98.1,238.6 99.8,238.6 101.6,238.6 103.4,238.6 105.1,193.0 106.9,193.0 108.7,193.0 110.5,193.0 112.2,193.0 114.0,193.3 115.8,193.3 117.5,193.3 119.3,193.3 121.1,193.3 122.9,193.5 124.6,193.5 126.4,193.5 128.2,193.5 129.9,193.5 131.7,173.5 133.5,173.5 135.3,173.5 137.0,173.5 138.8,173.5 140.6,174.2 142.3,174.2 144.1,174.2 145.9,174.2 147.7,174.2 149.4,175.6 151.2,175.6 153.0,175.6 154.7,175.6 156.5,175.6 158.3,168.2 160.1,168.2 161.8,168.2 163.6,168.2 165.4,168.2 167.1,171.6 168.9,171.6 170.7,171.6 172.5,171.6 174.2,171.6 176.0,172.6 177.8,172.6 179.5,172.6 181.3,172.6 183.1,172.6 184.9,172.5 186.6,172.5 188.4,172.5 190.2,172.5 191.9,172.5 193.7,172.5 195.5,172.5 197.3,172.5 199.0,172.5 200.8,172.5 202.6,171.6 204.3,171.6 206.1,171.6 207.9,171.6 209.7,171.6 211.4,170.8 213.2,170.8 215.0,170.8 216.7,170.8 218.5,170.8 220.3,170.5 222.1,170.5 223.8,170.6 225.6,170.6 227.4,170.6 229.1,172.3 230.9,172.3 232.7,172.3 234.5,172.3 236.2,172.3 238.0,171.7 239.8,171.7 241.5,171.7 243.3,171.7 245.1,171.7 246.9,172.0 248.6,172.1 250.4,172.0 252.2,172.1 253.9,172.1 255.7,172.2 257.5,172.2 259.3,172.1 261.0,172.1 262.8,172.1 264.6,170.4 266.3,170.4 268.1,170.4 269.9,170.4 271.7,170.4 273.4,170.5 275.2,170.5 277.0,170.5 278.7,170.5 280.5,170.5 282.3,170.3 284.1,170.3 285.8,170.3 287.6,170.3 289.4,170.3 291.1,169.6 292.9,169.6 294.7,169.6 296.5,169.6 298.2,169.6 300.0,169.3 301.8,169.2 303.5,169.3 305.3,169.3 307.1,169.3 308.9,169.5 310.6,169.5 312.4,169.5 314.2,169.5 315.9,169.5 317.7,169.0 319.5,169.0 321.3,169.0 323.0,169.0 324.8,169.0 326.6,168.9 328.3,168.9 330.1,168.9 331.9,168.8 333.7,168.8 335.4,168.9 337.2,168.9 339.0,168.9 340.7,168.9 342.5,168.9 344.3,168.8 346.1,168.8 347.8,168.8 349.6,168.8 351.4,168.8 353.1,168.8 354.9,168.8 356.7,168.8 358.5,168.8 360.2,168.8 362.0,168.6 363.8,168.6 365.5,168.6 367.3,168.6 369.1,168.6 370.9,169.0 372.6,168.9 374.4,168.9 376.2,168.9 377.9,168.9 379.7,168.9 381.5,168.9 383.3,168.9 385.0,168.9 386.8,168.9 388.6,167.6 390.3,167.7 392.1,167.7 393.9,167.7 395.7,167.7 397.4,167.2 399.2,167.2 401.0,167.2 402.7,167.2 404.5,167.2 406.3,167.8 408.1,167.8 409.8,167.8 411.6,167.8 413.4,167.8 415.1,167.7 416.9,167.7 418.7,167.7 420.5,167.7 422.2,167.7 424.0,168.5 425.8,168.5 427.5,168.5 429.3,168.5 431.1,168.5 432.9,168.0 434.6,168.0 436.4,168.0 438.2,168.0 439.9,168.0 441.7,167.8 443.5,167.8 445.3,167.8 447.0,167.8 448.8,167.8 450.6,167.4 452.3,167.4 454.1,167.4 455.9,167.4 457.7,167.4 459.4,167.1 461.2,167.1 463.0,167.1 464.7,167.1 466.5,167.1 468.3,167.0 470.1,167.0 471.8,167.0 473.6,167.0 475.4,167.0 477.1,165.9 478.9,165.9 480.7,165.9 482.5,165.9 484.2,165.9 486.0,165.8 487.8,165.8 489.5,165.8 491.3,165.8 493.1,165.8 494.9,165.6 496.6,165.6 498.4,165.6 500.2,165.6 501.9,165.6 503.7,165.9 505.5,165.9 507.3,165.9 509.0,165.9 510.8,165.9 512.6,166.7 514.3,166.7 516.1,166.7 517.9,166.7 519.7,166.8 521.4,166.4 523.2,166.4 525.0,166.4 526.7,166.4 528.5,166.4 530.3,166.7 532.1,166.7 533.8,166.7 535.6,166.7 537.4,166.7 539.1,165.7 540.9,165.7 542.7,165.7 544.5,165.7 546.2,165.7 548.0,165.7 549.8,165.7 551.5,165.7 553.3,165.7 555.1,165.7 556.9,165.8 558.6,165.8 560.4,165.8 562.2,165.8 563.9,165.8 565.7,167.2 567.5,167.2 569.3,167.2 571.0,167.2 572.8,167.2 574.6,167.2 576.3,167.3 578.1,167.3 579.9,167.2 581.7,167.2 583.4,168.4 585.2,168.4 587.0,168.4 588.7,168.4 590.5,168.4 592.3,168.0 594.1,168.0 595.8,168.0 597.6,168.0 599.4,168.0 601.1,168.1 602.9,168.1 604.7,168.1 606.5,168.1 608.2,168.1 610.0,168.6 611.8,168.6 613.5,168.6 615.3,168.6 617.1,168.6 618.9,168.5 620.6,168.5 622.4,168.5 624.2,168.5 625.9,168.5 627.7,168.5 629.5,168.5 631.3,168.5 633.0,168.5 634.8,168.5 636.6,171.1 638.3,171.0 640.1,171.0 641.9,171.0 643.7,171.0 645.4,170.9 647.2,170.9 649.0,170.9 650.7,170.9 652.5,170.9 654.3,171.7 656.1,171.7 657.8,171.7 659.6,171.7 661.4,171.7 663.1,173.2 664.9,173.2 666.7,173.2 668.5,173.2 670.2,173.2 672.0,173.3 673.8,173.3 675.5,173.3 677.3,173.3 679.1,173.3 680.9,173.3 682.6,173.3 684.4,173.3 686.2,173.3 687.9,173.3 689.7,173.8 691.5,173.8 693.3,173.8 695.0,173.8 696.8,173.8 698.6,173.9 700.3,173.9 702.1,173.9 703.9,173.9 705.7,173.9 707.4,173.8 709.2,173.8 711.0,173.8 712.7,173.8 714.5,173.8 716.3,174.3 718.1,174.3 719.8,174.3 721.6,174.3 723.4,174.3 725.1,174.1 726.9,174.1 728.7,174.1 730.5,174.1 732.2,174.1 734.0,173.8 735.8,173.8 737.5,173.8 739.3,173.9 741.1,173.8 742.9,174.1 744.6,174.1 746.4,174.1 748.2,174.1 749.9,174.1 751.7,173.5 753.5,173.5 755.3,173.5 757.0,173.5 758.8,173.5 760.6,173.4 762.3,173.4 764.1,173.4 765.9,173.4 767.7,173.4 769.4,173.2 771.2,173.2 773.0,173.2 774.7,173.2 776.5,173.2 778.3,172.9 780.1,172.9 781.8,172.9 783.6,172.9 785.4,172.9 787.1,173.1 788.9,173.1 790.7,173.1 792.5,173.1 794.2,173.1 796.0,172.7"/>
<text x="640" y="72" font-family="Arial" font-size="12" fill="#2563eb">bay</text>
<polyline fill="none" stroke="#b45309" stroke-width="2.3" points="52.0,42.0 53.8,42.0 55.5,42.0 57.3,42.0 59.1,42.0 60.9,224.2 62.6,224.2 64.4,224.2 66.2,224.2 67.9,224.2 69.7,241.3 71.5,241.3 73.3,241.3 75.0,241.4 76.8,241.3 78.6,274.0 80.3,274.0 82.1,274.0 83.9,274.0 85.7,274.0 87.4,271.1 89.2,271.1 91.0,271.1 92.7,271.1 94.5,271.1 96.3,267.4 98.1,267.4 99.8,267.4 101.6,267.4 103.4,267.4 105.1,216.7 106.9,216.7 108.7,216.7 110.5,216.7 112.2,216.7 114.0,218.9 115.8,218.9 117.5,218.9 119.3,218.9 121.1,218.9 122.9,220.4 124.6,220.4 126.4,220.4 128.2,220.4 129.9,220.4 131.7,193.8 133.5,193.8 135.3,193.8 137.0,193.8 138.8,193.8 140.6,193.8 142.3,193.8 144.1,193.8 145.9,193.8 147.7,193.8 149.4,192.7 151.2,192.7 153.0,192.7 154.7,192.7 156.5,192.7 158.3,186.9 160.1,186.9 161.8,186.9 163.6,186.9 165.4,186.9 167.1,188.1 168.9,188.1 170.7,188.1 172.5,188.1 174.2,188.1 176.0,188.5 177.8,188.5 179.5,188.5 181.3,188.5 183.1,188.5 184.9,186.1 186.6,186.1 188.4,186.1 190.2,186.1 191.9,186.1 193.7,187.6 195.5,187.6 197.3,187.6 199.0,187.6 200.8,187.6 202.6,189.1 204.3,189.1 206.1,189.1 207.9,189.1 209.7,189.1 211.4,184.2 213.2,184.2 215.0,184.2 216.7,184.2 218.5,184.2 220.3,181.4 222.1,181.3 223.8,181.3 225.6,181.3 227.4,181.3 229.1,176.9 230.9,176.9 232.7,176.9 234.5,176.9 236.2,176.9 238.0,174.9 239.8,174.9 241.5,174.9 243.3,174.9 245.1,174.9 246.9,175.1 248.6,175.1 250.4,175.1 252.2,175.1 253.9,175.1 255.7,174.9 257.5,174.9 259.3,174.9 261.0,174.9 262.8,174.9 264.6,176.7 266.3,176.7 268.1,176.7 269.9,176.7 271.7,176.7 273.4,175.6 275.2,175.6 277.0,175.6 278.7,175.6 280.5,175.6 282.3,173.7 284.1,173.7 285.8,173.7 287.6,173.7 289.4,173.7 291.1,181.8 292.9,181.7 294.7,181.8 296.5,181.7 298.2,181.8 300.0,180.2 301.8,180.2 303.5,180.2 305.3,180.2 307.1,180.2 308.9,179.8 310.6,179.8 312.4,179.8 314.2,179.8 315.9,179.8 317.7,181.6 319.5,181.6 321.3,181.6 323.0,181.6 324.8,181.6 326.6,182.1 328.3,182.1 330.1,182.1 331.9,182.1 333.7,182.1 335.4,182.2 337.2,182.2 339.0,182.2 340.7,182.2 342.5,182.2 344.3,180.4 346.1,180.4 347.8,180.4 349.6,180.4 351.4,180.4 353.1,180.4 354.9,180.4 356.7,180.4 358.5,180.4 360.2,180.4 362.0,180.5 363.8,180.5 365.5,180.5 367.3,180.5 369.1,180.5 370.9,179.8 372.6,179.8 374.4,179.8 376.2,179.8 377.9,179.8 379.7,180.0 381.5,180.0 383.3,180.0 385.0,180.0 386.8,180.0 388.6,181.0 390.3,181.0 392.1,181.0 393.9,181.0 395.7,181.0 397.4,181.3 399.2,181.3 401.0,181.3 402.7,181.3 404.5,181.3 406.3,181.5 408.1,181.5 409.8,181.5 411.6,181.5 413.4,181.5 415.1,181.3 416.9,181.3 418.7,181.3 420.5,181.3 422.2,181.2 424.0,182.9 425.8,182.9 427.5,182.9 429.3,182.9 431.1,182.9 432.9,183.6 434.6,183.6 436.4,183.6 438.2,183.6 439.9,183.6 441.7,183.6 443.5,183.6 445.3,183.6 447.0,183.6 448.8,183.6 450.6,183.4 452.3,183.4 454.1,183.4 455.9,183.4 457.7,183.4 459.4,183.2 461.2,183.2 463.0,183.2 464.7,183.2 466.5,183.2 468.3,183.2 470.1,183.2 471.8,183.2 473.6,183.2 475.4,183.2 477.1,182.6 478.9,182.6 480.7,182.6 482.5,182.6 484.2,182.6 486.0,182.4 487.8,182.4 489.5,182.4 491.3,182.4 493.1,182.4 494.9,181.6 496.6,181.6 498.4,181.6 500.2,181.6 501.9,181.6 503.7,181.6 505.5,181.6 507.3,181.6 509.0,181.6 510.8,181.6 512.6,181.2 514.3,181.2 516.1,181.2 517.9,181.2 519.7,181.2 521.4,180.6 523.2,180.6 525.0,180.6 526.7,180.6 528.5,180.6 530.3,183.1 532.1,183.1 533.8,183.1 535.6,183.1 537.4,183.1 539.1,183.1 540.9,183.1 542.7,183.1 544.5,183.1 546.2,183.1 548.0,183.6 549.8,183.6 551.5,183.6 553.3,183.6 555.1,183.6 556.9,182.5 558.6,182.5 560.4,182.5 562.2,182.5 563.9,182.5 565.7,182.8 567.5,182.8 569.3,182.8 571.0,182.8 572.8,182.8 574.6,182.9 576.3,182.9 578.1,182.9 579.9,182.9 581.7,182.9 583.4,182.5 585.2,182.5 587.0,182.5 588.7,182.6 590.5,182.6 592.3,182.1 594.1,182.1 595.8,182.1 597.6,182.1 599.4,182.1 601.1,181.6 602.9,181.7 604.7,181.7 606.5,181.7 608.2,181.7 610.0,182.3 611.8,182.3 613.5,182.3 615.3,182.3 617.1,182.3 618.9,182.9 620.6,182.9 622.4,182.9 624.2,182.9 625.9,182.9 627.7,183.3 629.5,183.3 631.3,183.3 633.0,183.3 634.8,183.3 636.6,183.3 638.3,183.3 640.1,183.3 641.9,183.3 643.7,183.3 645.4,183.3 647.2,183.3 649.0,183.3 650.7,183.3 652.5,183.3 654.3,183.5 656.1,183.5 657.8,183.5 659.6,183.5 661.4,183.5 663.1,183.8 664.9,183.8 666.7,183.8 668.5,183.8 670.2,183.9 672.0,185.1 673.8,185.1 675.5,185.1 677.3,185.1 679.1,185.1 680.9,185.7 682.6,185.7 684.4,185.7 686.2,185.7 687.9,185.7 689.7,184.5 691.5,184.5 693.3,184.5 695.0,184.5 696.8,184.5 698.6,184.4 700.3,184.4 702.1,184.4 703.9,184.4 705.7,184.4 707.4,184.1 709.2,184.1 711.0,184.1 712.7,184.1 714.5,184.1 716.3,184.2 718.1,184.2 719.8,184.2 721.6,184.2 723.4,184.2 725.1,184.5 726.9,184.5 728.7,184.5 730.5,184.5 732.2,184.5 734.0,184.7 735.8,184.7 737.5,184.7 739.3,184.7 741.1,184.7 742.9,184.3 744.6,184.3 746.4,184.3 748.2,184.2 749.9,184.2 751.7,184.1 753.5,184.1 755.3,184.1 757.0,184.1 758.8,184.1 760.6,184.0 762.3,184.0 764.1,184.0 765.9,184.0 767.7,184.0 769.4,183.4 771.2,183.4 773.0,183.4 774.7,183.4 776.5,183.4 778.3,183.4 780.1,183.4 781.8,183.4 783.6,183.4 785.4,183.4 787.1,183.5 788.9,183.5 790.7,183.5 792.5,183.5 794.2,183.5 796.0,183.0"/>
<text x="640" y="88" font-family="Arial" font-size="12" fill="#b45309">baz</text>
</svg>