<svg xmlns="http://www.w3.org/2000/svg" width="820" height="320" viewBox="0 0 820 320">
<rect width="100%" height="100%" fill="white"/>
<text x="52" y="30" font-family="Arial" font-size="18" font-weight="700">adaptive_nominal accelerometer bias estimates</text>
<line x1="52" y1="274" x2="796" y2="274" stroke="#263238"/>
<line x1="52" y1="42" x2="52" y2="274" stroke="#263238"/>
<text x="52" y="306" font-family="Arial" font-size="12">time (s)</text>
<text x="630" y="306" font-family="Arial" font-size="12">m/s^2</text>

<polyline fill="none" stroke="#0f766e" stroke-width="2.3" points="52.0,139.7 53.8,139.7 55.5,139.7 57.3,139.7 59.1,139.7 60.9,139.7 62.6,139.7 64.4,139.7 66.2,139.7 67.9,139.7 69.7,139.7 71.5,139.7 73.3,139.7 75.0,139.7 76.8,139.7 78.6,137.7 80.3,137.7 82.1,137.7 83.9,137.7 85.7,137.7 87.4,137.7 89.2,137.7 91.0,137.7 92.7,137.7 94.5,137.7 96.3,137.7 98.1,137.7 99.8,137.7 101.6,137.7 103.4,137.7 105.1,130.8 106.9,130.8 108.7,130.8 110.5,130.8 112.2,130.8 114.0,130.8 115.8,130.8 117.5,130.8 119.3,130.8 121.1,130.8 122.9,130.8 124.6,130.8 126.4,130.8 128.2,130.8 129.9,130.8 131.7,218.4 133.5,218.4 135.3,218.4 137.0,218.4 138.8,218.4 140.6,218.4 142.3,218.4 144.1,218.4 145.9,218.4 147.7,218.4 149.4,218.7 151.2,218.7 153.0,218.7 154.7,218.7 156.5,218.7 158.3,197.3 160.1,197.3 161.8,197.3 163.6,197.3 165.4,197.3 167.1,197.4 168.9,197.4 170.7,197.4 172.5,197.4 174.2,197.4 176.0,197.1 177.8,197.1 179.5,197.1 181.3,197.1 183.1,197.1 184.9,124.7 186.6,124.7 188.4,124.7 190.2,124.7 191.9,124.7 193.7,124.6 195.5,124.6 197.3,124.6 199.0,124.6 200.8,124.6 202.6,124.8 204.3,124.8 206.1,124.8 207.9,124.8 209.7,124.8 211.4,87.4 213.2,87.4 215.0,87.4 216.7,87.4 218.5,87.4 220.3,87.5 222.1,87.5 223.8,87.5 225.6,87.5 227.4,87.5 229.1,87.7 230.9,87.7 232.7,87.7 234.5,87.7 236.2,87.7 238.0,42.0 239.8,42.0 241.5,42.0 243.3,42.0 245.1,42.0 246.9,42.2 248.6,42.2 250.4,42.2 252.2,42.2 253.9,42.2 255.7,42.1 257.5,42.1 259.3,42.1 261.0,42.1 262.8,42.1 264.6,84.1 266.3,84.1 268.1,84.1 269.9,84.1 271.7,84.1 273.4,83.9 275.2,83.9 277.0,83.9 278.7,83.9 280.5,83.9 282.3,83.9 284.1,83.9 285.8,83.9 287.6,83.9 289.4,83.9 291.1,126.9 292.9,126.9 294.7,126.9 296.5,126.9 298.2,126.9 300.0,126.9 301.8,126.9 303.5,126.9 305.3,126.9 307.1,126.9 308.9,127.0 310.6,127.0 312.4,127.0 314.2,127.0 315.9,127.0 317.7,132.8 319.5,132.8 321.3,132.8 323.0,132.8 324.8,132.8 326.6,132.9 328.3,132.9 330.1,132.9 331.9,132.9 333.7,132.9 335.4,132.9 337.2,132.9 339.0,132.9 340.7,132.9 342.5,132.9 344.3,138.8 346.1,138.8 347.8,138.8 349.6,138.8 351.4,138.8 353.1,138.8 354.9,138.8 356.7,138.8 358.5,138.8 360.2,138.8 362.0,138.8 363.8,138.8 365.5,138.8 367.3,138.8 369.1,138.8 370.9,146.3 372.6,146.3 374.4,146.3 376.2,146.3 377.9,146.3 379.7,146.3 381.5,146.3 383.3,146.3 385.0,146.3 386.8,146.3 388.6,146.3 390.3,146.3 392.1,146.3 393.9,146.3 395.7,146.3 397.4,143.0 399.2,143.0 401.0,143.0 402.7,143.0 404.5,143.0 406.3,142.9 408.1,142.9 409.8,142.9 411.6,142.9 413.4,142.9 415.1,142.9 416.9,142.9 418.7,142.9 420.5,142.9 422.2,142.9 424.0,132.3 425.8,132.3 427.5,132.3 429.3,132.3 431.1,132.3 432.9,132.3 434.6,132.3 436.4,132.3 438.2,132.3 439.9,132.3 441.7,132.3 443.5,132.3 445.3,132.3 447.0,132.3 448.8,132.3 450.6,142.9 452.3,142.9 454.1,142.9 455.9,142.9 457.7,142.9 459.4,142.9 461.2,142.9 463.0,142.9 464.7,142.9 466.5,142.9 468.3,142.8 470.1,142.8 471.8,142.8 473.6,142.8 475.4,142.8 477.1,134.7 478.9,134.7 480.7,134.7 482.5,134.7 484.2,134.7 486.0,134.7 487.8,134.7 489.5,134.7 491.3,134.7 493.1,134.7 494.9,134.7 496.6,134.7 498.4,134.7 500.2,134.7 501.9,134.7 503.7,135.5 505.5,135.5 507.3,135.5 509.0,135.5 510.8,135.5 512.6,135.5 514.3,135.5 516.1,135.5 517.9,135.5 519.7,135.5 521.4,135.5 523.2,135.5 525.0,135.5 526.7,135.5 528.5,135.5 530.3,132.5 532.1,132.5 533.8,132.5 535.6,132.5 537.4,132.5 539.1,132.4 540.9,132.4 542.7,132.4 544.5,132.4 546.2,132.4 548.0,132.4 549.8,132.4 551.5,132.4 553.3,132.4 555.1,132.4 556.9,128.5 558.6,128.5 560.4,128.5 562.2,128.5 563.9,128.5 565.7,128.5 567.5,128.5 569.3,128.5 571.0,128.5 572.8,128.5 574.6,128.5 576.3,128.5 578.1,128.5 579.9,128.5 581.7,128.5 583.4,128.2 585.2,128.2 587.0,128.2 588.7,128.2 590.5,128.2 592.3,128.2 594.1,128.2 595.8,128.2 597.6,128.2 599.4,128.2 601.1,128.2 602.9,128.2 604.7,128.2 606.5,128.2 608.2,128.2 610.0,126.6 611.8,126.6 613.5,126.6 615.3,126.6 617.1,126.6 618.9,126.6 620.6,126.6 622.4,126.6 624.2,126.6 625.9,126.6 627.7,126.6 629.5,126.6 631.3,126.6 633.0,126.6 634.8,126.6 636.6,126.9 638.3,126.9 640.1,126.9 641.9,126.9 643.7,126.9 645.4,126.9 647.2,126.9 649.0,126.9 650.7,126.9 652.5,126.9 654.3,126.9 656.1,126.9 657.8,126.9 659.6,126.9 661.4,126.9 663.1,126.7 664.9,126.7 666.7,126.7 668.5,126.7 670.2,126.7 672.0,126.7 673.8,126.7 675.5,126.7 677.3,126.7 679.1,126.7 680.9,126.7 682.6,126.7 684.4,126.7 686.2,126.7 687.9,126.7 689.7,127.3 691.5,127.3 693.3,127.3 695.0,127.3 696.8,127.3 698.6,127.3 700.3,127.3 702.1,127.3 703.9,127.3 705.7,127.3 707.4,127.3 709.2,127.3 711.0,127.3 712.7,127.3 714.5,127.3 716.3,127.3 718.1,127.3 719.8,127.3 721.6,127.3 723.4,127.3 725.1,127.3 726.9,127.3 728.7,127.3 730.5,127.3 732.2,127.3 734.0,127.3 735.8,127.3 737.5,127.3 739.3,127.3 741.1,127.3 742.9,127.1 744.6,127.1 746.4,127.1 748.2,127.1 749.9,127.1 751.7,127.1 753.5,127.1 755.3,127.1 757.0,127.1 758.8,127.1 760.6,127.1 762.3,127.1 764.1,127.1 765.9,127.1 767.7,127.1 769.4,129.2 771.2,129.2 773.0,129.2 774.7,129.2 776.5,129.2 778.3,129.2 780.1,129.2 781.8,129.2 783.6,129.2 785.4,129.2 787.1,129.2 788.9,129.2 790.7,129.2 792.5,129.2 794.2,129.2 796.0,129.3"/>
<text x="640" y="56" font-family="Arial" font-size="12" fill="#0f766e">bax</text>
<polyline fill="none" stroke="#2563eb" stroke-width="2.3" points="52.0,139.7 53.8,139.7 55.5,139.7 57.3,139.7 59.1,139.7 60.9,139.7 62.6,139.7 64.4,139.7 66.2,139.7 67.9,139.7 69.7,139.7 71.5,139.7 73.3,139.7 75.0,139.7 76.8,139.7 78.6,140.5 80.3,140.5 82.1,140.5 83.9,140.5 85.7,140.5 87.4,140.5 89.2,140.5 91.0,140.5 92.7,140.5 94.5,140.5 96.3,140.5 98.1,140.5 99.8,140.5 101.6,140.5 103.4,140.5 105.1,138.1 106.9,138.1 108.7,138.1 110.5,138.1 112.2,138.1 114.0,138.1 115.8,138.1 117.5,138.1 119.3,138.1 121.1,138.1 122.9,138.1 124.6,138.1 126.4,138.1 128.2,138.1 129.9,138.1 131.7,114.2 133.5,114.2 135.3,114.2 137.0,114.2 138.8,114.2 140.6,114.2 142.3,114.2 144.1,114.2 145.9,114.2 147.7,114.2 149.4,113.7 151.2,113.7 153.0,113.7 154.7,113.7 156.5,113.7 158.3,72.3 160.1,72.3 161.8,72.3 163.6,72.3 165.4,72.3 167.1,72.2 168.9,72.2 170.7,72.2 172.5,72.2 174.2,72.2 176.0,72.6 177.8,72.6 179.5,72.6 181.3,72.6 183.1,72.6 184.9,174.7 186.6,174.7 188.4,174.7 190.2,174.7 191.9,174.7 193.7,174.9 195.5,174.9 197.3,174.9 199.0,174.9 200.8,174.9 202.6,174.5 204.3,174.5 206.1,174.5 207.9,174.5 209.7,174.5 211.4,274.0 213.2,274.0 215.0,274.0 216.7,274.0 218.5,274.0 220.3,273.8 222.1,273.8 223.8,273.8 225.6,273.8 227.4,273.8 229.1,273.3 230.9,273.3 232.7,273.3 234.5,273.3 236.2,273.3 238.0,173.9 239.8,173.9 241.5,173.9 243.3,173.9 245.1,173.9 246.9,173.6 248.6,173.6 250.4,173.6 252.2,173.6 253.9,173.6 255.7,173.8 257.5,173.8 259.3,173.8 261.0,173.8 262.8,173.8 264.6,170.4 266.3,170.4 268.1,170.4 269.9,170.4 271.7,170.4 273.4,170.8 275.2,170.8 277.0,170.8 278.7,170.8 280.5,170.8 282.3,171.0 284.1,171.0 285.8,171.0 287.6,171.0 289.4,171.0 291.1,172.6 292.9,172.6 294.7,172.6 296.5,172.6 298.2,172.6 300.0,172.4 301.8,172.4 303.5,172.4 305.3,172.4 307.1,172.4 308.9,172.4 310.6,172.4 312.4,172.4 314.2,172.4 315.9,172.4 317.7,156.6 319.5,156.6 321.3,156.6 323.0,156.6 324.8,156.6 326.6,156.4 328.3,156.4 330.1,156.4 331.9,156.4 333.7,156.4 335.4,156.3 337.2,156.3 339.0,156.3 340.7,156.3 342.5,156.3 344.3,165.3 346.1,165.3 347.8,165.3 349.6,165.3 351.4,165.3 353.1,165.4 354.9,165.4 356.7,165.4 358.5,165.4 360.2,165.4 362.0,165.4 363.8,165.4 365.5,165.4 367.3,165.4 369.1,165.4 370.9,166.4 372.6,166.4 374.4,166.4 376.2,166.4 377.9,166.4 379.7,166.5 381.5,166.5 383.3,166.5 385.0,166.5 386.8,166.5 388.6,166.6 390.3,166.6 392.1,166.6 393.9,166.6 395.7,166.6 397.4,156.1 399.2,156.1 401.0,156.1 402.7,156.1 404.5,156.1 406.3,156.3 408.1,156.3 409.8,156.3 411.6,156.3 413.4,156.3 415.1,156.3 416.9,156.3 418.7,156.3 420.5,156.3 422.2,156.3 424.0,149.6 425.8,149.6 427.5,149.6 429.3,149.6 431.1,149.6 432.9,149.5 434.6,149.5 436.4,149.5 438.2,149.5 439.9,149.5 441.7,149.5 443.5,149.5 445.3,149.5 447.0,149.5 448.8,149.5 450.6,143.9 452.3,143.9 454.1,143.9 455.9,143.9 457.7,143.9 459.4,143.9 461.2,143.9 463.0,143.9 464.7,143.9 466.5,143.9 468.3,144.0 470.1,144.0 471.8,144.0 473.6,144.0 475.4,144.0 477.1,134.2 478.9,134.2 480.7,134.2 482.5,134.2 484.2,134.2 486.0,134.2 487.8,134.2 489.5,134.2 491.3,134.2 493.1,134.2 494.9,134.2 496.6,134.2 498.4,134.2 500.2,134.2 501.9,134.2 503.7,135.3 505.5,135.3 507.3,135.3 509.0,135.3 510.8,135.3 512.6,135.3 514.3,135.3 516.1,135.3 517.9,135.3 519.7,135.3 521.4,135.3 523.2,135.3 525.0,135.3 526.7,135.3 528.5,135.3 530.3,136.7 532.1,136.7 533.8,136.7 535.6,136.7 537.4,136.7 539.1,136.7 540.9,136.7 542.7,136.7 544.5,136.7 546.2,136.7 548.0,136.8 549.8,136.8 551.5,136.8 553.3,136.8 555.1,136.8 556.9,135.0 558.6,135.0 560.4,135.0 562.2,135.0 563.9,135.0 565.7,135.0 567.5,135.0 569.3,135.0 571.0,135.0 572.8,135.0 574.6,135.1 576.3,135.1 578.1,135.1 579.9,135.1 581.7,135.1 583.4,137.5 585.2,137.5 587.0,137.5 588.7,137.5 590.5,137.5 592.3,137.5 594.1,137.5 595.8,137.5 597.6,137.5 599.4,137.5 601.1,137.5 602.9,137.5 604.7,137.5 606.5,137.5 608.2,137.5 610.0,139.0 611.8,139.0 613.5,139.0 615.3,139.0 617.1,139.0 618.9,139.0 620.6,139.0 622.4,139.0 624.2,139.0 625.9,139.0 627.7,139.0 629.5,139.0 631.3,139.0 633.0,139.0 634.8,139.0 636.6,141.3 638.3,141.3 640.1,141.3 641.9,141.3 643.7,141.3 645.4,141.3 647.2,141.3 649.0,141.3 650.7,141.3 652.5,141.3 654.3,141.3 656.1,141.3 657.8,141.3 659.6,141.3 661.4,141.3 663.1,142.2 664.9,142.2 666.7,142.2 668.5,142.2 670.2,142.2 672.0,142.2 673.8,142.2 675.5,142.2 677.3,142.2 679.1,142.2 680.9,142.2 682.6,142.2 684.4,142.2 686.2,142.2 687.9,142.2 689.7,142.9 691.5,142.9 693.3,142.9 695.0,142.9 696.8,142.9 698.6,142.9 700.3,142.9 702.1,142.9 703.9,142.9 705.7,142.9 707.4,142.9 709.2,142.9 711.0,142.9 712.7,142.9 714.5,142.9 716.3,143.0 718.1,143.0 719.8,143.0 721.6,143.0 723.4,143.0 725.1,143.0 726.9,143.0 728.7,143.0 730.5,143.0 732.2,143.0 734.0,143.0 735.8,143.0 737.5,143.0 739.3,143.0 741.1,143.0 742.9,144.3 744.6,144.3 746.4,144.3 748.2,144.3 749.9,144.3 751.7,144.3 753.5,144.3 755.3,144.3 757.0,144.3 758.8,144.3 760.6,144.3 762.3,144.3 764.1,144.3 765.9,144.3 767.7,144.3 769.4,145.5 771.2,145.5 773.0,145.5 774.7,145.5 776.5,145.5 778.3,145.5 780.1,145.5 781.8,145.5 783.6,145.5 785.4,145.5 787.1,145.5 788.9,145.5 790.7,145.5 792.5,145.5 794.2,145.5 796.0,145.9"/>
<text x="640" y="72" font-family="Arial" font-size="12" fill="#2563eb">bay</text>
<polyline fill="none" stroke="#b45309" stroke-width="2.3" points="52.0,139.7 53.8,139.7 55.5,139.7 57.3,139.7 59.1,139.7 60.9,137.0 62.6,137.0 64.4,137.0 66.2,137.0 67.9,137.0 69.7,142.8 71.5,142.8 73.3,142.8 75.0,142.8 76.8,142.8 78.6,155.2 80.3,155.2 82.1,155.2 83.9,155.2 85.7,155.2 87.4,156.4 89.2,156.4 91.0,156.4 92.7,156.4 94.5,156.4 96.3,167.0 98.1,167.0 99.8,167.0 101.6,167.0 103.4,167.0 105.1,159.7 106.9,159.7 108.7,159.7 110.5,159.7 112.2,159.7 114.0,155.0 115.8,155.0 117.5,155.0 119.3,155.0 121.1,155.0 122.9,161.0 124.6,161.0 126.4,161.0 128.2,161.0 129.9,161.0 131.7,177.2 133.5,177.2 135.3,177.2 137.0,177.2 138.8,177.2 140.6,184.7 142.3,184.7 144.1,184.7 145.9,184.7 147.7,184.7 149.4,91.2 151.2,91.2 153.0,91.2 154.7,91.2 156.5,91.2 158.3,97.8 160.1,97.8 161.8,97.8 163.6,97.8 165.4,97.8 167.1,85.7 168.9,85.7 170.7,85.7 172.5,85.7 174.2,85.7 176.0,120.5 177.8,120.5 179.5,120.5 181.3,120.5 183.1,120.5 184.9,101.1 186.6,101.1 188.4,101.1 190.2,101.1 191.9,101.1 193.7,112.4 195.5,112.4 197.3,112.4 199.0,112.4 200.8,112.4 202.6,95.1 204.3,95.1 206.1,95.1 207.9,95.1 209.7,95.1 211.4,100.6 213.2,100.6 215.0,100.6 216.7,100.6 218.5,100.6 220.3,91.7 222.1,91.7 223.8,91.7 225.6,91.7 227.4,91.7 229.1,75.5 230.9,75.5 232.7,75.5 234.5,75.5 236.2,75.5 238.0,108.3 239.8,108.3 241.5,108.3 243.3,108.3 245.1,108.3 246.9,95.6 248.6,95.6 250.4,95.6 252.2,95.6 253.9,95.6 255.7,104.4 257.5,104.4 259.3,104.4 261.0,104.4 262.8,104.4 264.6,99.6 266.3,99.6 268.1,99.6 269.9,99.6 271.7,99.6 273.4,111.5 275.2,111.5 277.0,111.5 278.7,111.5 280.5,111.5 282.3,118.4 284.1,118.4 285.8,118.4 287.6,118.4 289.4,118.4 291.1,139.8 292.9,139.8 294.7,139.8 296.5,139.8 298.2,139.8 300.0,135.0 301.8,135.0 303.5,135.0 305.3,135.0 307.1,135.0 308.9,133.7 310.6,133.7 312.4,133.7 314.2,133.7 315.9,133.7 317.7,133.4 319.5,133.4 321.3,133.4 323.0,133.4 324.8,133.4 326.6,126.9 328.3,126.9 330.1,126.9 331.9,126.9 333.7,126.9 335.4,122.3 337.2,122.3 339.0,122.3 340.7,122.3 342.5,122.3 344.3,114.5 346.1,114.5 347.8,114.5 349.6,114.5 351.4,114.5 353.1,116.1 354.9,116.1 356.7,116.1 358.5,116.1 360.2,116.1 362.0,117.5 363.8,117.5 365.5,117.5 367.3,117.5 369.1,117.5 370.9,120.8 372.6,120.8 374.4,120.8 376.2,120.8 377.9,120.8 379.7,125.8 381.5,125.8 383.3,125.8 385.0,125.8 386.8,125.8 388.6,126.0 390.3,126.0 392.1,126.0 393.9,126.0 395.7,126.0 397.4,123.0 399.2,123.0 401.0,123.0 402.7,123.0 404.5,123.0 406.3,127.9 408.1,127.9 409.8,127.9 411.6,127.9 413.4,127.9 415.1,129.1 416.9,129.1 418.7,129.1 420.5,129.1 422.2,129.1 424.0,133.5 425.8,133.5 427.5,133.5 429.3,133.5 431.1,133.5 432.9,130.5 434.6,130.5 436.4,130.5 438.2,130.5 439.9,130.5 441.7,130.8 443.5,130.8 445.3,130.8 447.0,130.8 448.8,130.8 450.6,129.4 452.3,129.4 454.1,129.4 455.9,129.4 457.7,129.4 459.4,130.0 461.2,130.0 463.0,130.0 464.7,130.0 466.5,130.0 468.3,132.9 470.1,132.9 471.8,132.9 473.6,132.9 475.4,132.9 477.1,134.0 478.9,134.0 480.7,134.0 482.5,134.0 484.2,134.0 486.0,135.0 487.8,135.0 489.5,135.0 491.3,135.0 493.1,135.0 494.9,134.6 496.6,134.6 498.4,134.6 500.2,134.6 501.9,134.6 503.7,134.3 505.5,134.3 507.3,134.3 509.0,134.3 510.8,134.3 512.6,131.6 514.3,131.6 516.1,131.6 517.9,131.6 519.7,131.6 521.4,132.0 523.2,132.0 525.0,132.0 526.7,132.0 528.5,132.0 530.3,130.5 532.1,130.5 533.8,130.5 535.6,130.5 537.4,130.5 539.1,131.7 540.9,131.7 542.7,131.7 544.5,131.7 546.2,131.7 548.0,133.6 549.8,133.6 551.5,133.6 553.3,133.6 555.1,133.6 556.9,133.3 558.6,133.3 560.4,133.3 562.2,133.3 563.9,133.3 565.7,132.0 567.5,132.0 569.3,132.0 571.0,132.0 572.8,132.0 574.6,134.2 576.3,134.2 578.1,134.2 579.9,134.2 581.7,134.2 583.4,134.2 585.2,134.2 587.0,134.2 588.7,134.2 590.5,134.2 592.3,134.0 594.1,134.0 595.8,134.0 597.6,134.0 599.4,134.0 601.1,132.6 602.9,132.6 604.7,132.6 606.5,132.6 608.2,132.6 610.0,132.9 611.8,132.9 613.5,132.9 615.3,132.9 617.1,132.9 618.9,132.4 620.6,132.4 622.4,132.4 624.2,132.4 625.9,132.4 627.7,132.5 629.5,132.5 631.3,132.5 633.0,132.5 634.8,132.5 636.6,132.9 638.3,132.9 640.1,132.9 641.9,132.9 643.7,132.9 645.4,132.4 647.2,132.4 649.0,132.4 650.7,132.4 652.5,132.4 654.3,132.3 656.1,132.3 657.8,132.3 659.6,132.3 661.4,132.3 663.1,132.3 664.9,132.3 666.7,132.3 668.5,132.3 670.2,132.3 672.0,131.5 673.8,131.5 675.5,131.5 677.3,131.5 679.1,131.5 680.9,131.3 682.6,131.3 684.4,131.3 686.2,131.3 687.9,131.3 689.7,130.7 691.5,130.7 693.3,130.7 695.0,130.7 696.8,130.7 698.6,130.9 700.3,130.9 702.1,130.9 703.9,130.9 705.7,130.9 707.4,130.8 709.2,130.8 711.0,130.8 712.7,130.8 714.5,130.8 716.3,130.8 718.1,130.8 719.8,130.8 721.6,130.8 723.4,130.8 725.1,131.3 726.9,131.3 728.7,131.3 730.5,131.3 732.2,131.3 734.0,131.0 735.8,131.0 737.5,131.0 739.3,131.0 741.1,131.0 742.9,130.7 744.6,130.7 746.4,130.7 748.2,130.7 749.9,130.7 751.7,131.1 753.5,131.1 755.3,131.1 757.0,131.1 758.8,131.1 760.6,131.7 762.3,131.7 764.1,131.7 765.9,131.7 767.7,131.7 769.4,132.2 771.2,132.2 773.0,132.2 774.7,132.2 776.5,132.2 778.3,132.5 780.1,132.5 781.8,132.5 783.6,132.5 785.4,132.5 787.1,131.6 788.9,131.6 790.7,131.6 792.5,131.6 794.2,131.6 796.0,131.2"/>
<text x="640" y="88" font-family="Arial" font-size="12" fill="#b45309">baz</text>
</svg>