<svg xmlns="http://www.w3.org/2000/svg" width="820" height="320" viewBox="0 0 820 320">
<rect width="100%" height="100%" fill="white"/>
<text x="52" y="30" font-family="Arial" font-size="18" font-weight="700">ekf_nominal accelerometer bias estimates</text>
<line x1="52" y1="274" x2="796" y2="274" stroke="#263238"/>
<line x1="52" y1="42" x2="52" y2="274" stroke="#263238"/>
<text x="52" y="306" font-family="Arial" font-size="12">time (s)</text>
<text x="630" y="306" font-family="Arial" font-size="12">m/s^2</text>

<polyline fill="none" stroke="#0f766e" stroke-width="2.3" points="52.0,140.9 53.8,140.9 55.5,140.9 57.3,140.9 59.1,140.9 60.9,140.9 62.6,140.9 64.4,140.9 66.2,140.9 67.9,140.9 69.7,140.9 71.5,140.9 73.3,140.9 75.0,140.9 76.8,140.9 78.6,138.8 80.3,138.8 82.1,138.8 83.9,138.8 85.7,138.8 87.4,138.8 89.2,138.8 91.0,138.8 92.7,138.8 94.5,138.8 96.3,138.8 98.1,138.8 99.8,138.8 101.6,138.8 103.4,138.8 105.1,130.4 106.9,130.4 108.7,130.4 110.5,130.4 112.2,130.4 114.0,130.4 115.8,130.4 117.5,130.4 119.3,130.4 121.1,130.4 122.9,130.4 124.6,130.4 126.4,130.4 128.2,130.4 129.9,130.4 131.7,239.3 133.5,239.3 135.3,239.3 137.0,239.3 138.8,239.3 140.6,239.2 142.3,239.2 144.1,239.2 145.9,239.2 147.7,239.2 149.4,239.6 151.2,239.6 153.0,239.6 154.7,239.6 156.5,239.6 158.3,213.7 160.1,213.7 161.8,213.7 163.6,213.7 165.4,213.7 167.1,213.8 168.9,213.8 170.7,213.8 172.5,213.8 174.2,213.8 176.0,213.5 177.8,213.5 179.5,213.5 181.3,213.5 183.1,213.5 184.9,134.7 186.6,134.7 188.4,134.7 190.2,134.7 191.9,134.7 193.7,134.5 195.5,134.5 197.3,134.5 199.0,134.5 200.8,134.5 202.6,134.7 204.3,134.7 206.1,134.7 207.9,134.7 209.7,134.7 211.4,91.8 213.2,91.8 215.0,91.8 216.7,91.8 218.5,91.8 220.3,91.9 222.1,91.9 223.8,91.9 225.6,91.9 227.4,91.9 229.1,92.1 230.9,92.1 232.7,92.1 234.5,92.1 236.2,92.1 238.0,42.0 239.8,42.0 241.5,42.0 243.3,42.0 245.1,42.0 246.9,42.2 248.6,42.2 250.4,42.2 252.2,42.2 253.9,42.2 255.7,42.0 257.5,42.0 259.3,42.0 261.0,42.0 262.8,42.0 264.6,83.5 266.3,83.5 268.1,83.5 269.9,83.5 271.7,83.5 273.4,83.4 275.2,83.4 277.0,83.4 278.7,83.4 280.5,83.4 282.3,83.3 284.1,83.3 285.8,83.3 287.6,83.3 289.4,83.3 291.1,128.9 292.9,128.9 294.7,128.9 296.5,128.9 298.2,128.9 300.0,129.0 301.8,129.0 303.5,129.0 305.3,129.0 307.1,129.0 308.9,129.0 310.6,129.0 312.4,129.0 314.2,129.0 315.9,129.0 317.7,134.9 319.5,134.9 321.3,134.9 323.0,134.9 324.8,134.9 326.6,135.0 328.3,135.0 330.1,135.0 331.9,135.0 333.7,135.0 335.4,135.1 337.2,135.1 339.0,135.1 340.7,135.1 342.5,135.1 344.3,140.8 346.1,140.8 347.8,140.8 349.6,140.8 351.4,140.8 353.1,140.7 354.9,140.7 356.7,140.7 358.5,140.7 360.2,140.7 362.0,140.7 363.8,140.7 365.5,140.7 367.3,140.7 369.1,140.7 370.9,148.8 372.6,148.8 374.4,148.8 376.2,148.8 377.9,148.8 379.7,148.7 381.5,148.7 383.3,148.7 385.0,148.7 386.8,148.7 388.6,148.7 390.3,148.7 392.1,148.7 393.9,148.7 395.7,148.7 397.4,143.8 399.2,143.8 401.0,143.8 402.7,143.8 404.5,143.8 406.3,143.7 408.1,143.7 409.8,143.7 411.6,143.7 413.4,143.7 415.1,143.6 416.9,143.6 418.7,143.6 420.5,143.6 422.2,143.6 424.0,130.4 425.8,130.4 427.5,130.4 429.3,130.4 431.1,130.4 432.9,130.4 434.6,130.4 436.4,130.4 438.2,130.4 439.9,130.4 441.7,130.4 443.5,130.4 445.3,130.4 447.0,130.4 448.8,130.4 450.6,143.7 452.3,143.7 454.1,143.7 455.9,143.7 457.7,143.7 459.4,143.7 461.2,143.7 463.0,143.7 464.7,143.7 466.5,143.7 468.3,143.7 470.1,143.7 471.8,143.7 473.6,143.7 475.4,143.7 477.1,133.5 478.9,133.5 480.7,133.5 482.5,133.5 484.2,133.5 486.0,133.5 487.8,133.5 489.5,133.5 491.3,133.5 493.1,133.5 494.9,133.5 496.6,133.5 498.4,133.5 500.2,133.5 501.9,133.5 503.7,134.8 505.5,134.8 507.3,134.8 509.0,134.8 510.8,134.8 512.6,134.9 514.3,134.9 516.1,134.9 517.9,134.9 519.7,134.9 521.4,134.9 523.2,134.9 525.0,134.9 526.7,134.9 528.5,134.9 530.3,131.4 532.1,131.4 533.8,131.4 535.6,131.4 537.4,131.4 539.1,131.4 540.9,131.4 542.7,131.4 544.5,131.4 546.2,131.4 548.0,131.3 549.8,131.3 551.5,131.3 553.3,131.3 555.1,131.3 556.9,126.9 558.6,126.9 560.4,126.9 562.2,126.9 563.9,126.9 565.7,126.9 567.5,126.9 569.3,126.9 571.0,126.9 572.8,126.9 574.6,126.9 576.3,126.9 578.1,126.9 579.9,126.9 581.7,126.9 583.4,126.9 585.2,126.9 587.0,126.9 588.7,126.9 590.5,126.9 592.3,126.9 594.1,126.9 595.8,126.9 597.6,126.9 599.4,126.9 601.1,127.0 602.9,127.0 604.7,127.0 606.5,127.0 608.2,127.0 610.0,124.9 611.8,124.9 613.5,124.9 615.3,124.9 617.1,124.9 618.9,124.9 620.6,124.9 622.4,124.9 624.2,124.9 625.9,124.9 627.7,124.9 629.5,124.9 631.3,124.9 633.0,124.9 634.8,124.9 636.6,125.7 638.3,125.7 640.1,125.7 641.9,125.7 643.7,125.7 645.4,125.7 647.2,125.7 649.0,125.7 650.7,125.7 652.5,125.7 654.3,125.7 656.1,125.7 657.8,125.7 659.6,125.7 661.4,125.7 663.1,125.6 664.9,125.6 666.7,125.6 668.5,125.6 670.2,125.6 672.0,125.6 673.8,125.6 675.5,125.6 677.3,125.6 679.1,125.6 680.9,125.6 682.6,125.6 684.4,125.6 686.2,125.6 687.9,125.6 689.7,126.7 691.5,126.7 693.3,126.7 695.0,126.7 696.8,126.7 698.6,126.7 700.3,126.7 702.1,126.7 703.9,126.7 705.7,126.7 707.4,126.7 709.2,126.7 711.0,126.7 712.7,126.7 714.5,126.7 716.3,126.9 718.1,126.9 719.8,126.9 721.6,126.9 723.4,126.9 725.1,126.9 726.9,126.9 728.7,126.9 730.5,126.9 732.2,126.9 734.0,126.9 735.8,126.9 737.5,126.9 739.3,126.9 741.1,126.9 742.9,127.0 744.6,127.0 746.4,127.0 748.2,127.0 749.9,127.0 751.7,127.0 753.5,127.0 755.3,127.0 757.0,127.0 758.8,127.0 760.6,127.0 762.3,127.0 764.1,127.0 765.9,127.0 767.7,127.0 769.4,129.2 771.2,129.2 773.0,129.2 774.7,129.2 776.5,129.2 778.3,129.2 780.1,129.2 781.8,129.2 783.6,129.2 785.4,129.2 787.1,129.3 788.9,129.3 790.7,129.3 792.5,129.3 794.2,129.3 796.0,129.7"/>
<text x="640" y="56" font-family="Arial" font-size="12" fill="#0f766e">bax</text>
<polyline fill="none" stroke="#2563eb" stroke-width="2.3" points="52.0,140.9 53.8,140.9 55.5,140.9 57.3,140.9 59.1,140.9 60.9,140.9 62.6,140.9 64.4,140.9 66.2,140.9 67.9,140.9 69.7,140.9 71.5,140.9 73.3,140.9 75.0,140.9 76.8,140.9 78.6,141.8 80.3,141.8 82.1,141.8 83.9,141.8 85.7,141.8 87.4,141.8 89.2,141.8 91.0,141.8 92.7,141.8 94.5,141.8 96.3,141.8 98.1,141.8 99.8,141.8 101.6,141.8 103.4,141.8 105.1,138.5 106.9,138.5 108.7,138.5 110.5,138.5 112.2,138.5 114.0,138.4 115.8,138.4 117.5,138.4 119.3,138.4 121.1,138.4 122.9,138.5 124.6,138.5 126.4,138.5 128.2,138.5 129.9,138.5 131.7,109.6 133.5,109.6 135.3,109.6 137.0,109.6 138.8,109.6 140.6,109.6 142.3,109.6 144.1,109.6 145.9,109.6 147.7,109.6 149.4,109.1 151.2,109.1 153.0,109.1 154.7,109.1 156.5,109.1 158.3,65.8 160.1,65.8 161.8,65.8 163.6,65.8 165.4,65.8 167.1,65.6 168.9,65.6 170.7,65.6 172.5,65.6 174.2,65.6 176.0,66.1 177.8,66.1 179.5,66.1 181.3,66.1 183.1,66.1 184.9,170.1 186.6,170.1 188.4,170.1 190.2,170.1 191.9,170.1 193.7,170.4 195.5,170.4 197.3,170.4 199.0,170.4 200.8,170.4 202.6,170.0 204.3,170.0 206.1,170.0 207.9,170.0 209.7,170.0 211.4,274.0 213.2,274.0 215.0,274.0 216.7,274.0 218.5,274.0 220.3,273.8 222.1,273.8 223.8,273.8 225.6,273.8 227.4,273.8 229.1,273.3 230.9,273.3 232.7,273.3 234.5,273.3 236.2,273.3 238.0,176.2 239.8,176.2 241.5,176.2 243.3,176.2 245.1,176.2 246.9,175.9 248.6,175.9 250.4,175.9 252.2,175.9 253.9,175.9 255.7,176.1 257.5,176.1 259.3,176.1 261.0,176.1 262.8,176.1 264.6,172.9 266.3,172.9 268.1,172.9 269.9,172.9 271.7,172.9 273.4,173.3 275.2,173.3 277.0,173.3 278.7,173.3 280.5,173.3 282.3,173.5 284.1,173.5 285.8,173.5 287.6,173.5 289.4,173.5 291.1,175.5 292.9,175.5 294.7,175.5 296.5,175.5 298.2,175.5 300.0,175.3 301.8,175.3 303.5,175.3 305.3,175.3 307.1,175.3 308.9,175.2 310.6,175.2 312.4,175.2 314.2,175.2 315.9,175.2 317.7,155.8 319.5,155.8 321.3,155.8 323.0,155.8 324.8,155.8 326.6,155.6 328.3,155.6 330.1,155.6 331.9,155.6 333.7,155.6 335.4,155.4 337.2,155.4 339.0,155.4 340.7,155.4 342.5,155.4 344.3,168.6 346.1,168.6 347.8,168.6 349.6,168.6 351.4,168.6 353.1,168.7 354.9,168.7 356.7,168.7 358.5,168.7 360.2,168.7 362.0,168.8 363.8,168.8 365.5,168.8 367.3,168.8 369.1,168.8 370.9,170.2 372.6,170.2 374.4,170.2 376.2,170.2 377.9,170.2 379.7,170.4 381.5,170.4 383.3,170.4 385.0,170.4 386.8,170.4 388.6,170.4 390.3,170.4 392.1,170.4 393.9,170.4 395.7,170.4 397.4,157.5 399.2,157.5 401.0,157.5 402.7,157.5 404.5,157.5 406.3,157.7 408.1,157.7 409.8,157.7 411.6,157.7 413.4,157.7 415.1,157.8 416.9,157.8 418.7,157.8 420.5,157.8 422.2,157.8 424.0,149.8 425.8,149.8 427.5,149.8 429.3,149.8 431.1,149.8 432.9,149.7 434.6,149.7 436.4,149.7 438.2,149.7 439.9,149.7 441.7,149.7 443.5,149.7 445.3,149.7 447.0,149.7 448.8,149.7 450.6,143.3 452.3,143.3 454.1,143.3 455.9,143.3 457.7,143.3 459.4,143.3 461.2,143.3 463.0,143.3 464.7,143.3 466.5,143.3 468.3,143.4 470.1,143.4 471.8,143.4 473.6,143.4 475.4,143.4 477.1,131.9 478.9,131.9 480.7,131.9 482.5,131.9 484.2,131.9 486.0,131.9 487.8,131.9 489.5,131.9 491.3,131.9 493.1,131.9 494.9,131.9 496.6,131.9 498.4,131.9 500.2,131.9 501.9,131.9 503.7,134.2 505.5,134.2 507.3,134.2 509.0,134.2 510.8,134.2 512.6,134.1 514.3,134.1 516.1,134.1 517.9,134.1 519.7,134.1 521.4,134.1 523.2,134.1 525.0,134.1 526.7,134.1 528.5,134.1 530.3,136.4 532.1,136.4 533.8,136.4 535.6,136.4 537.4,136.4 539.1,136.4 540.9,136.4 542.7,136.4 544.5,136.4 546.2,136.4 548.0,136.5 549.8,136.5 551.5,136.5 553.3,136.5 555.1,136.5 556.9,134.8 558.6,134.8 560.4,134.8 562.2,134.8 563.9,134.8 565.7,134.8 567.5,134.8 569.3,134.8 571.0,134.8 572.8,134.8 574.6,134.8 576.3,134.8 578.1,134.8 579.9,134.8 581.7,134.8 583.4,138.1 585.2,138.1 587.0,138.1 588.7,138.1 590.5,138.1 592.3,138.1 594.1,138.1 595.8,138.1 597.6,138.1 599.4,138.1 601.1,138.1 602.9,138.1 604.7,138.1 606.5,138.1 608.2,138.1 610.0,140.6 611.8,140.6 613.5,140.6 615.3,140.6 617.1,140.6 618.9,140.6 620.6,140.6 622.4,140.6 624.2,140.6 625.9,140.6 627.7,140.6 629.5,140.6 631.3,140.6 633.0,140.6 634.8,140.6 636.6,145.3 638.3,145.3 640.1,145.3 641.9,145.3 643.7,145.3 645.4,145.2 647.2,145.2 649.0,145.2 650.7,145.2 652.5,145.2 654.3,145.2 656.1,145.2 657.8,145.2 659.6,145.2 661.4,145.2 663.1,146.4 664.9,146.4 666.7,146.4 668.5,146.4 670.2,146.4 672.0,146.4 673.8,146.4 675.5,146.4 677.3,146.4 679.1,146.4 680.9,146.4 682.6,146.4 684.4,146.4 686.2,146.4 687.9,146.4 689.7,146.7 691.5,146.7 693.3,146.7 695.0,146.7 696.8,146.7 698.6,146.7 700.3,146.7 702.1,146.7 703.9,146.7 705.7,146.7 707.4,146.7 709.2,146.7 711.0,146.7 712.7,146.7 714.5,146.7 716.3,146.1 718.1,146.1 719.8,146.1 721.6,146.1 723.4,146.1 725.1,146.1 726.9,146.1 728.7,146.1 730.5,146.1 732.2,146.1 734.0,146.1 735.8,146.1 737.5,146.1 739.3,146.1 741.1,146.1 742.9,147.0 744.6,147.0 746.4,147.0 748.2,147.0 749.9,147.0 751.7,147.0 753.5,147.0 755.3,147.0 757.0,147.0 758.8,147.0 760.6,147.0 762.3,147.0 764.1,147.0 765.9,147.0 767.7,147.0 769.4,147.9 771.2,147.9 773.0,147.9 774.7,147.9 776.5,147.9 778.3,147.9 780.1,147.9 781.8,147.9 783.6,147.9 785.4,147.9 787.1,147.9 788.9,147.9 790.7,147.9 792.5,147.9 794.2,147.9 796.0,148.1"/>
<text x="640" y="72" font-family="Arial" font-size="12" fill="#2563eb">bay</text>
<polyline fill="none" stroke="#b45309" stroke-width="2.3" points="52.0,140.9 53.8,140.9 55.5,140.9 57.3,140.9 59.1,140.9 60.9,138.1 62.6,138.1 64.4,138.1 66.2,138.1 67.9,138.1 69.7,144.8 71.5,144.8 73.3,144.8 75.0,144.8 76.8,144.8 78.6,159.4 80.3,159.4 82.1,159.4 83.9,159.4 85.7,159.4 87.4,159.2 89.2,159.2 91.0,159.2 92.7,159.2 94.5,159.2 96.3,171.4 98.1,171.4 99.8,171.4 101.6,171.4 103.4,171.4 105.1,159.5 106.9,159.5 108.7,159.5 110.5,159.5 112.2,159.5 114.0,152.0 115.8,152.0 117.5,152.0 119.3,152.0 121.1,152.0 122.9,158.5 124.6,158.5 126.4,158.5 128.2,158.5 129.9,158.5 131.7,176.7 133.5,176.7 135.3,176.7 137.0,176.7 138.8,176.7 140.6,184.8 142.3,184.8 144.1,184.8 145.9,184.8 147.7,184.8 149.4,89.0 151.2,89.0 153.0,89.0 154.7,89.0 156.5,89.0 158.3,93.2 160.1,93.2 161.8,93.2 163.6,93.2 165.4,93.2 167.1,79.9 168.9,79.9 170.7,79.9 172.5,79.9 174.2,79.9 176.0,114.0 177.8,114.0 179.5,114.0 181.3,114.0 183.1,114.0 184.9,95.2 186.6,95.2 188.4,95.2 190.2,95.2 191.9,95.2 193.7,106.7 195.5,106.7 197.3,106.7 199.0,106.7 200.8,106.7 202.6,90.2 204.3,90.2 206.1,90.2 207.9,90.2 209.7,90.2 211.4,96.0 213.2,96.0 215.0,96.0 216.7,96.0 218.5,96.0 220.3,87.5 222.1,87.5 223.8,87.5 225.6,87.5 227.4,87.5 229.1,71.6 230.9,71.6 232.7,71.6 234.5,71.6 236.2,71.6 238.0,104.9 239.8,104.9 241.5,104.9 243.3,104.9 245.1,104.9 246.9,92.4 248.6,92.4 250.4,92.4 252.2,92.4 253.9,92.4 255.7,101.6 257.5,101.6 259.3,101.6 261.0,101.6 262.8,101.6 264.6,96.9 266.3,96.9 268.1,96.9 269.9,96.9 271.7,96.9 273.4,110.1 275.2,110.1 277.0,110.1 278.7,110.1 280.5,110.1 282.3,117.5 284.1,117.5 285.8,117.5 287.6,117.5 289.4,117.5 291.1,140.1 292.9,140.1 294.7,140.1 296.5,140.1 298.2,140.1 300.0,133.7 301.8,133.7 303.5,133.7 305.3,133.7 307.1,133.7 308.9,132.2 310.6,132.2 312.4,132.2 314.2,132.2 315.9,132.2 317.7,132.3 319.5,132.3 321.3,132.3 323.0,132.3 324.8,132.3 326.6,124.0 328.3,124.0 330.1,124.0 331.9,124.0 333.7,124.0 335.4,118.9 337.2,118.9 339.0,118.9 340.7,118.9 342.5,118.9 344.3,110.0 346.1,110.0 347.8,110.0 349.6,110.0 351.4,110.0 353.1,112.8 354.9,112.8 356.7,112.8 358.5,112.8 360.2,112.8 362.0,115.2 363.8,115.2 365.5,115.2 367.3,115.2 369.1,115.2 370.9,119.8 372.6,119.8 374.4,119.8 376.2,119.8 377.9,119.8 379.7,126.4 381.5,126.4 383.3,126.4 385.0,126.4 386.8,126.4 388.6,126.7 390.3,126.7 392.1,126.7 393.9,126.7 395.7,126.7 397.4,123.1 399.2,123.1 401.0,123.1 402.7,123.1 404.5,123.1 406.3,129.3 408.1,129.3 409.8,129.3 411.6,129.3 413.4,129.3 415.1,130.8 416.9,130.8 418.7,130.8 420.5,130.8 422.2,130.8 424.0,136.3 425.8,136.3 427.5,136.3 429.3,136.3 431.1,136.3 432.9,132.4 434.6,132.4 436.4,132.4 438.2,132.4 439.9,132.4 441.7,132.7 443.5,132.7 445.3,132.7 447.0,132.7 448.8,132.7 450.6,130.9 452.3,130.9 454.1,130.9 455.9,130.9 457.7,130.9 459.4,131.6 461.2,131.6 463.0,131.6 464.7,131.6 466.5,131.6 468.3,135.1 470.1,135.1 471.8,135.1 473.6,135.1 475.4,135.1 477.1,136.4 478.9,136.4 480.7,136.4 482.5,136.4 484.2,136.4 486.0,137.4 487.8,137.4 489.5,137.4 491.3,137.4 493.1,137.4 494.9,136.8 496.6,136.8 498.4,136.8 500.2,136.8 501.9,136.8 503.7,136.4 505.5,136.4 507.3,136.4 509.0,136.4 510.8,136.4 512.6,132.8 514.3,132.8 516.1,132.8 517.9,132.8 519.7,132.8 521.4,133.2 523.2,133.2 525.0,133.2 526.7,133.2 528.5,133.2 530.3,131.3 532.1,131.3 533.8,131.3 535.6,131.3 537.4,131.3 539.1,132.9 540.9,132.9 542.7,132.9 544.5,132.9 546.2,132.9 548.0,135.2 549.8,135.2 551.5,135.2 553.3,135.2 555.1,135.2 556.9,134.7 558.6,134.7 560.4,134.7 562.2,134.7 563.9,134.7 565.7,133.0 567.5,133.0 569.3,133.0 571.0,133.0 572.8,133.0 574.6,135.7 576.3,135.7 578.1,135.7 579.9,135.7 581.7,135.7 583.4,135.7 585.2,135.7 587.0,135.7 588.7,135.7 590.5,135.7 592.3,135.4 594.1,135.4 595.8,135.4 597.6,135.4 599.4,135.4 601.1,133.6 602.9,133.6 604.7,133.6 606.5,133.6 608.2,133.6 610.0,134.0 611.8,134.0 613.5,134.0 615.3,134.0 617.1,134.0 618.9,132.9 620.6,132.9 622.4,132.9 624.2,132.9 625.9,132.9 627.7,133.2 629.5,133.2 631.3,133.2 633.0,133.2 634.8,133.2 636.6,134.0 638.3,134.0 640.1,134.0 641.9,134.0 643.7,134.0 645.4,132.7 647.2,132.7 649.0,132.7 650.7,132.7 652.5,132.7 654.3,132.6 656.1,132.6 657.8,132.6 659.6,132.6 661.4,132.6 663.1,132.7 664.9,132.7 666.7,132.7 668.5,132.7 670.2,132.7 672.0,131.3 673.8,131.3 675.5,131.3 677.3,131.3 679.1,131.3 680.9,131.1 682.6,131.1 684.4,131.1 686.2,131.1 687.9,131.1 689.7,130.3 691.5,130.3 693.3,130.3 695.0,130.3 696.8,130.3 698.6,130.7 700.3,130.7 702.1,130.7 703.9,130.7 705.7,130.7 707.4,130.7 709.2,130.7 711.0,130.7 712.7,130.7 714.5,130.7 716.3,131.0 718.1,131.0 719.8,131.0 721.6,131.0 723.4,131.0 725.1,131.6 726.9,131.6 728.7,131.6 730.5,131.6 732.2,131.6 734.0,131.4 735.8,131.4 737.5,131.4 739.3,131.4 741.1,131.4 742.9,131.2 744.6,131.2 746.4,131.2 748.2,131.2 749.9,131.2 751.7,131.7 753.5,131.7 755.3,131.7 757.0,131.7 758.8,131.7 760.6,132.5 762.3,132.5 764.1,132.5 765.9,132.5 767.7,132.5 769.4,133.1 771.2,133.1 773.0,133.1 774.7,133.1 776.5,133.1 778.3,133.5 780.1,133.5 781.8,133.5 783.6,133.5 785.4,133.5 787.1,132.7 788.9,132.7 790.7,132.7 792.5,132.7 794.2,132.7 796.0,132.2"/>
<text x="640" y="88" font-family="Arial" font-size="12" fill="#b45309">baz</text>
</svg>