<svg xmlns="http://www.w3.org/2000/svg" width="820" height="320" viewBox="0 0 820 320">
<rect width="100%" height="100%" fill="white"/>
<text x="52" y="30" font-family="Arial" font-size="18" font-weight="700">abg_nominal accelerometer bias estimates</text>
<line x1="52" y1="274" x2="796" y2="274" stroke="#263238"/>
<line x1="52" y1="42" x2="52" y2="274" stroke="#263238"/>
<text x="52" y="306" font-family="Arial" font-size="12">time (s)</text>
<text x="630" y="306" font-family="Arial" font-size="12">m/s^2</text>

<polyline fill="none" stroke="#0f766e" stroke-width="2.3" points="52.0,42.0 53.8,42.0 55.5,42.0 57.3,42.0 59.1,42.0 60.9,42.0 62.6,42.0 64.4,42.0 66.2,42.0 67.9,42.0 69.7,42.0 71.5,42.0 73.3,42.0 75.0,42.0 76.8,42.0 78.6,42.0 80.3,42.0 82.1,42.0 83.9,42.0 85.7,42.0 87.4,42.0 89.2,42.0 91.0,42.0 92.7,42.0 94.5,42.0 96.3,42.0 98.1,42.0 99.8,42.0 101.6,42.0 103.4,42.0 105.1,42.0 106.9,42.0 108.7,42.0 110.5,42.0 112.2,42.0 114.0,42.0 115.8,42.0 117.5,42.0 119.3,42.0 121.1,42.0 122.9,42.0 124.6,42.0 126.4,42.0 128.2,42.0 129.9,42.0 131.7,42.0 133.5,42.0 135.3,42.0 137.0,42.0 138.8,42.0 140.6,42.0 142.3,42.0 144.1,42.0 145.9,42.0 147.7,42.0 149.4,42.0 151.2,42.0 153.0,42.0 154.7,42.0 156.5,42.0 158.3,42.0 160.1,42.0 161.8,42.0 163.6,42.0 165.4,42.0 167.1,42.0 168.9,42.0 170.7,42.0 172.5,42.0 174.2,42.0 176.0,42.0 177.8,42.0 179.5,42.0 181.3,42.0 183.1,42.0 184.9,42.0 186.6,42.0 188.4,42.0 190.2,42.0 191.9,42.0 193.7,42.0 195.5,42.0 197.3,42.0 199.0,42.0 200.8,42.0 202.6,42.0 204.3,42.0 206.1,42.0 207.9,42.0 209.7,42.0 211.4,42.0 213.2,42.0 215.0,42.0 216.7,42.0 218.5,42.0 220.3,42.0 222.1,42.0 223.8,42.0 225.6,42.0 227.4,42.0 229.1,42.0 230.9,42.0 232.7,42.0 234.5,42.0 236.2,42.0 238.0,42.0 239.8,42.0 241.5,42.0 243.3,42.0 245.1,42.0 246.9,42.0 248.6,42.0 250.4,42.0 252.2,42.0 253.9,42.0 255.7,42.0 257.5,42.0 259.3,42.0 261.0,42.0 262.8,42.0 264.6,42.0 266.3,42.0 268.1,42.0 269.9,42.0 271.7,42.0 273.4,42.0 275.2,42.0 277.0,42.0 278.7,42.0 280.5,42.0 282.3,42.0 284.1,42.0 285.8,42.0 287.6,42.0 289.4,42.0 291.1,42.0 292.9,42.0 294.7,42.0 296.5,42.0 298.2,42.0 300.0,42.0 301.8,42.0 303.5,42.0 305.3,42.0 307.1,42.0 308.9,42.0 310.6,42.0 312.4,42.0 314.2,42.0 315.9,42.0 317.7,42.0 319.5,42.0 321.3,42.0 323.0,42.0 324.8,42.0 326.6,42.0 328.3,42.0 330.1,42.0 331.9,42.0 333.7,42.0 335.4,42.0 337.2,42.0 339.0,42.0 340.7,42.0 342.5,42.0 344.3,42.0 346.1,42.0 347.8,42.0 349.6,42.0 351.4,42.0 353.1,42.0 354.9,42.0 356.7,42.0 358.5,42.0 360.2,42.0 362.0,42.0 363.8,42.0 365.5,42.0 367.3,42.0 369.1,42.0 370.9,42.0 372.6,42.0 374.4,42.0 376.2,42.0 377.9,42.0 379.7,42.0 381.5,42.0 383.3,42.0 385.0,42.0 386.8,42.0 388.6,42.0 390.3,42.0 392.1,42.0 393.9,42.0 395.7,42.0 397.4,42.0 399.2,42.0 401.0,42.0 402.7,42.0 404.5,42.0 406.3,42.0 408.1,42.0 409.8,42.0 411.6,42.0 413.4,42.0 415.1,42.0 416.9,42.0 418.7,42.0 420.5,42.0 422.2,42.0 424.0,42.0 425.8,42.0 427.5,42.0 429.3,42.0 431.1,42.0 432.9,42.0 434.6,42.0 436.4,42.0 438.2,42.0 439.9,42.0 441.7,42.0 443.5,42.0 445.3,42.0 447.0,42.0 448.8,42.0 450.6,42.0 452.3,42.0 454.1,42.0 455.9,42.0 457.7,42.0 459.4,42.0 461.2,42.0 463.0,42.0 464.7,42.0 466.5,42.0 468.3,42.0 470.1,42.0 471.8,42.0 473.6,42.0 475.4,42.0 477.1,42.0 478.9,42.0 480.7,42.0 482.5,42.0 484.2,42.0 486.0,42.0 487.8,42.0 489.5,42.0 491.3,42.0 493.1,42.0 494.9,42.0 496.6,42.0 498.4,42.0 500.2,42.0 501.9,42.0 503.7,42.0 505.5,42.0 507.3,42.0 509.0,42.0 510.8,42.0 512.6,42.0 514.3,42.0 516.1,42.0 517.9,42.0 519.7,42.0 521.4,42.0 523.2,42.0 525.0,42.0 526.7,42.0 528.5,42.0 530.3,42.0 532.1,42.0 533.8,42.0 535.6,42.0 537.4,42.0 539.1,42.0 540.9,42.0 542.7,42.0 544.5,42.0 546.2,42.0 548.0,42.0 549.8,42.0 551.5,42.0 553.3,42.0 555.1,42.0 556.9,42.0 558.6,42.0 560.4,42.0 562.2,42.0 563.9,42.0 565.7,42.0 567.5,42.0 569.3,42.0 571.0,42.0 572.8,42.0 574.6,42.0 576.3,42.0 578.1,42.0 579.9,42.0 581.7,42.0 583.4,42.0 585.2,42.0 587.0,42.0 588.7,42.0 590.5,42.0 592.3,42.0 594.1,42.0 595.8,42.0 597.6,42.0 599.4,42.0 601.1,42.0 602.9,42.0 604.7,42.0 606.5,42.0 608.2,42.0 610.0,42.0 611.8,42.0 613.5,42.0 615.3,42.0 617.1,42.0 618.9,42.0 620.6,42.0 622.4,42.0 624.2,42.0 625.9,42.0 627.7,42.0 629.5,42.0 631.3,42.0 633.0,42.0 634.8,42.0 636.6,42.0 638.3,42.0 640.1,42.0 641.9,42.0 643.7,42.0 645.4,42.0 647.2,42.0 649.0,42.0 650.7,42.0 652.5,42.0 654.3,42.0 656.1,42.0 657.8,42.0 659.6,42.0 661.4,42.0 663.1,42.0 664.9,42.0 666.7,42.0 668.5,42.0 670.2,42.0 672.0,42.0 673.8,42.0 675.5,42.0 677.3,42.0 679.1,42.0 680.9,42.0 682.6,42.0 684.4,42.0 686.2,42.0 687.9,42.0 689.7,42.0 691.5,42.0 693.3,42.0 695.0,42.0 696.8,42.0 698.6,42.0 700.3,42.0 702.1,42.0 703.9,42.0 705.7,42.0 707.4,42.0 709.2,42.0 711.0,42.0 712.7,42.0 714.5,42.0 716.3,42.0 718.1,42.0 719.8,42.0 721.6,42.0 723.4,42.0 725.1,42.0 726.9,42.0 728.7,42.0 730.5,42.0 732.2,42.0 734.0,42.0 735.8,42.0 737.5,42.0 739.3,42.0 741.1,42.0 742.9,42.0 744.6,42.0 746.4,42.0 748.2,42.0 749.9,42.0 751.7,42.0 753.5,42.0 755.3,42.0 757.0,42.0 758.8,42.0 760.6,42.0 762.3,42.0 764.1,42.0 765.9,42.0 767.7,42.0 769.4,42.0 771.2,42.0 773.0,42.0 774.7,42.0 776.5,42.0 778.3,42.0 780.1,42.0 781.8,42.0 783.6,42.0 785.4,42.0 787.1,42.0 788.9,42.0 790.7,42.0 792.5,42.0 794.2,42.0 796.0,42.0"/>
<text x="640" y="56" font-family="Arial" font-size="12" fill="#0f766e">bax</text>
<polyline fill="none" stroke="#2563eb" stroke-width="2.3" points="52.0,274.0 53.8,274.0 55.5,274.0 57.3,274.0 59.1,274.0 60.9,274.0 62.6,274.0 64.4,274.0 66.2,274.0 67.9,274.0 69.7,274.0 71.5,274.0 73.3,274.0 75.0,274.0 76.8,274.0 78.6,274.0 80.3,274.0 82.1,274.0 83.9,274.0 85.7,274.0 87.4,274.0 89.2,274.0 91.0,274.0 92.7,274.0 94.5,274.0 96.3,274.0 98.1,274.0 99.8,274.0 101.6,274.0 103.4,274.0 105.1,274.0 106.9,274.0 108.7,274.0 110.5,274.0 112.2,274.0 114.0,274.0 115.8,274.0 117.5,274.0 119.3,274.0 121.1,274.0 122.9,274.0 124.6,274.0 126.4,274.0 128.2,274.0 129.9,274.0 131.7,274.0 133.5,274.0 135.3,274.0 137.0,274.0 138.8,274.0 140.6,274.0 142.3,274.0 144.1,274.0 145.9,274.0 147.7,274.0 149.4,274.0 151.2,274.0 153.0,274.0 154.7,274.0 156.5,274.0 158.3,274.0 160.1,274.0 161.8,274.0 163.6,274.0 165.4,274.0 167.1,274.0 168.9,274.0 170.7,274.0 172.5,274.0 174.2,274.0 176.0,274.0 177.8,274.0 179.5,274.0 181.3,274.0 183.1,274.0 184.9,274.0 186.6,274.0 188.4,274.0 190.2,274.0 191.9,274.0 193.7,274.0 195.5,274.0 197.3,274.0 199.0,274.0 200.8,274.0 202.6,274.0 204.3,274.0 206.1,274.0 207.9,274.0 209.7,274.0 211.4,274.0 213.2,274.0 215.0,274.0 216.7,274.0 218.5,274.0 220.3,274.0 222.1,274.0 223.8,274.0 225.6,274.0 227.4,274.0 229.1,274.0 230.9,274.0 232.7,274.0 234.5,274.0 236.2,274.0 238.0,274.0 239.8,274.0 241.5,274.0 243.3,274.0 245.1,274.0 246.9,274.0 248.6,274.0 250.4,274.0 252.2,274.0 253.9,274.0 255.7,274.0 257.5,274.0 259.3,274.0 261.0,274.0 262.8,274.0 264.6,274.0 266.3,274.0 268.1,274.0 269.9,274.0 271.7,274.0 273.4,274.0 275.2,274.0 277.0,274.0 278.7,274.0 280.5,274.0 282.3,274.0 284.1,274.0 285.8,274.0 287.6,274.0 289.4,274.0 291.1,274.0 292.9,274.0 294.7,274.0 296.5,274.0 298.2,274.0 300.0,274.0 301.8,274.0 303.5,274.0 305.3,274.0 307.1,274.0 308.9,274.0 310.6,274.0 312.4,274.0 314.2,274.0 315.9,274.0 317.7,274.0 319.5,274.0 321.3,274.0 323.0,274.0 324.8,274.0 326.6,274.0 328.3,274.0 330.1,274.0 331.9,274.0 333.7,274.0 335.4,274.0 337.2,274.0 339.0,274.0 340.7,274.0 342.5,274.0 344.3,274.0 346.1,274.0 347.8,274.0 349.6,274.0 351.4,274.0 353.1,274.0 354.9,274.0 356.7,274.0 358.5,274.0 360.2,274.0 362.0,274.0 363.8,274.0 365.5,274.0 367.3,274.0 369.1,274.0 370.9,274.0 372.6,274.0 374.4,274.0 376.2,274.0 377.9,274.0 379.7,274.0 381.5,274.0 383.3,274.0 385.0,274.0 386.8,274.0 388.6,274.0 390.3,274.0 392.1,274.0 393.9,274.0 395.7,274.0 397.4,274.0 399.2,274.0 401.0,274.0 402.7,274.0 404.5,274.0 406.3,274.0 408.1,274.0 409.8,274.0 411.6,274.0 413.4,274.0 415.1,274.0 416.9,274.0 418.7,274.0 420.5,274.0 422.2,274.0 424.0,274.0 425.8,274.0 427.5,274.0 429.3,274.0 431.1,274.0 432.9,274.0 434.6,274.0 436.4,274.0 438.2,274.0 439.9,274.0 441.7,274.0 443.5,274.0 445.3,274.0 447.0,274.0 448.8,274.0 450.6,274.0 452.3,274.0 454.1,274.0 455.9,274.0 457.7,274.0 459.4,274.0 461.2,274.0 463.0,274.0 464.7,274.0 466.5,274.0 468.3,274.0 470.1,274.0 471.8,274.0 473.6,274.0 475.4,274.0 477.1,274.0 478.9,274.0 480.7,274.0 482.5,274.0 484.2,274.0 486.0,274.0 487.8,274.0 489.5,274.0 491.3,274.0 493.1,274.0 494.9,274.0 496.6,274.0 498.4,274.0 500.2,274.0 501.9,274.0 503.7,274.0 505.5,274.0 507.3,274.0 509.0,274.0 510.8,274.0 512.6,274.0 514.3,274.0 516.1,274.0 517.9,274.0 519.7,274.0 521.4,274.0 523.2,274.0 525.0,274.0 526.7,274.0 528.5,274.0 530.3,274.0 532.1,274.0 533.8,274.0 535.6,274.0 537.4,274.0 539.1,274.0 540.9,274.0 542.7,274.0 544.5,274.0 546.2,274.0 548.0,274.0 549.8,274.0 551.5,274.0 553.3,274.0 555.1,274.0 556.9,274.0 558.6,274.0 560.4,274.0 562.2,274.0 563.9,274.0 565.7,274.0 567.5,274.0 569.3,274.0 571.0,274.0 572.8,274.0 574.6,274.0 576.3,274.0 578.1,274.0 579.9,274.0 581.7,274.0 583.4,274.0 585.2,274.0 587.0,274.0 588.7,274.0 590.5,274.0 592.3,274.0 594.1,274.0 595.8,274.0 597.6,274.0 599.4,274.0 601.1,274.0 602.9,274.0 604.7,274.0 606.5,274.0 608.2,274.0 610.0,274.0 611.8,274.0 613.5,274.0 615.3,274.0 617.1,274.0 618.9,274.0 620.6,274.0 622.4,274.0 624.2,274.0 625.9,274.0 627.7,274.0 629.5,274.0 631.3,274.0 633.0,274.0 634.8,274.0 636.6,274.0 638.3,274.0 640.1,274.0 641.9,274.0 643.7,274.0 645.4,274.0 647.2,274.0 649.0,274.0 650.7,274.0 652.5,274.0 654.3,274.0 656.1,274.0 657.8,274.0 659.6,274.0 661.4,274.0 663.1,274.0 664.9,274.0 666.7,274.0 668.5,274.0 670.2,274.0 672.0,274.0 673.8,274.0 675.5,274.0 677.3,274.0 679.1,274.0 680.9,274.0 682.6,274.0 684.4,274.0 686.2,274.0 687.9,274.0 689.7,274.0 691.5,274.0 693.3,274.0 695.0,274.0 696.8,274.0 698.6,274.0 700.3,274.0 702.1,274.0 703.9,274.0 705.7,274.0 707.4,274.0 709.2,274.0 711.0,274.0 712.7,274.0 714.5,274.0 716.3,274.0 718.1,274.0 719.8,274.0 721.6,274.0 723.4,274.0 725.1,274.0 726.9,274.0 728.7,274.0 730.5,274.0 732.2,274.0 734.0,274.0 735.8,274.0 737.5,274.0 739.3,274.0 741.1,274.0 742.9,274.0 744.6,274.0 746.4,274.0 748.2,274.0 749.9,274.0 751.7,274.0 753.5,274.0 755.3,274.0 757.0,274.0 758.8,274.0 760.6,274.0 762.3,274.0 764.1,274.0 765.9,274.0 767.7,274.0 769.4,274.0 771.2,274.0 773.0,274.0 774.7,274.0 776.5,274.0 778.3,274.0 780.1,274.0 781.8,274.0 783.6,274.0 785.4,274.0 787.1,274.0 788.9,274.0 790.7,274.0 792.5,274.0 794.2,274.0 796.0,274.0"/>
<text x="640" y="72" font-family="Arial" font-size="12" fill="#2563eb">bay</text>
<polyline fill="none" stroke="#b45309" stroke-width="2.3" points="52.0,156.2 53.8,156.2 55.5,156.2 57.3,156.2 59.1,156.2 60.9,156.2 62.6,156.2 64.4,156.2 66.2,156.2 67.9,156.2 69.7,156.2 71.5,156.2 73.3,156.2 75.0,156.2 76.8,156.2 78.6,156.2 80.3,156.2 82.1,156.2 83.9,156.2 85.7,156.2 87.4,156.2 89.2,156.2 91.0,156.2 92.7,156.2 94.5,156.2 96.3,156.2 98.1,156.2 99.8,156.2 101.6,156.2 103.4,156.2 105.1,156.2 106.9,156.2 108.7,156.2 110.5,156.2 112.2,156.2 114.0,156.2 115.8,156.2 117.5,156.2 119.3,156.2 121.1,156.2 122.9,156.2 124.6,156.2 126.4,156.2 128.2,156.2 129.9,156.2 131.7,156.2 133.5,156.2 135.3,156.2 137.0,156.2 138.8,156.2 140.6,156.2 142.3,156.2 144.1,156.2 145.9,156.2 147.7,156.2 149.4,156.2 151.2,156.2 153.0,156.2 154.7,156.2 156.5,156.2 158.3,156.2 160.1,156.2 161.8,156.2 163.6,156.2 165.4,156.2 167.1,156.2 168.9,156.2 170.7,156.2 172.5,156.2 174.2,156.2 176.0,156.2 177.8,156.2 179.5,156.2 181.3,156.2 183.1,156.2 184.9,156.2 186.6,156.2 188.4,156.2 190.2,156.2 191.9,156.2 193.7,156.2 195.5,156.2 197.3,156.2 199.0,156.2 200.8,156.2 202.6,156.2 204.3,156.2 206.1,156.2 207.9,156.2 209.7,156.2 211.4,156.2 213.2,156.2 215.0,156.2 216.7,156.2 218.5,156.2 220.3,156.2 222.1,156.2 223.8,156.2 225.6,156.2 227.4,156.2 229.1,156.2 230.9,156.2 232.7,156.2 234.5,156.2 236.2,156.2 238.0,156.2 239.8,156.2 241.5,156.2 243.3,156.2 245.1,156.2 246.9,156.2 248.6,156.2 250.4,156.2 252.2,156.2 253.9,156.2 255.7,156.2 257.5,156.2 259.3,156.2 261.0,156.2 262.8,156.2 264.6,156.2 266.3,156.2 268.1,156.2 269.9,156.2 271.7,156.2 273.4,156.2 275.2,156.2 277.0,156.2 278.7,156.2 280.5,156.2 282.3,156.2 284.1,156.2 285.8,156.2 287.6,156.2 289.4,156.2 291.1,156.2 292.9,156.2 294.7,156.2 296.5,156.2 298.2,156.2 300.0,156.2 301.8,156.2 303.5,156.2 305.3,156.2 307.1,156.2 308.9,156.2 310.6,156.2 312.4,156.2 314.2,156.2 315.9,156.2 317.7,156.2 319.5,156.2 321.3,156.2 323.0,156.2 324.8,156.2 326.6,156.2 328.3,156.2 330.1,156.2 331.9,156.2 333.7,156.2 335.4,156.2 337.2,156.2 339.0,156.2 340.7,156.2 342.5,156.2 344.3,156.2 346.1,156.2 347.8,156.2 349.6,156.2 351.4,156.2 353.1,156.2 354.9,156.2 356.7,156.2 358.5,156.2 360.2,156.2 362.0,156.2 363.8,156.2 365.5,156.2 367.3,156.2 369.1,156.2 370.9,156.2 372.6,156.2 374.4,156.2 376.2,156.2 377.9,156.2 379.7,156.2 381.5,156.2 383.3,156.2 385.0,156.2 386.8,156.2 388.6,156.2 390.3,156.2 392.1,156.2 393.9,156.2 395.7,156.2 397.4,156.2 399.2,156.2 401.0,156.2 402.7,156.2 404.5,156.2 406.3,156.2 408.1,156.2 409.8,156.2 411.6,156.2 413.4,156.2 415.1,156.2 416.9,156.2 418.7,156.2 420.5,156.2 422.2,156.2 424.0,156.2 425.8,156.2 427.5,156.2 429.3,156.2 431.1,156.2 432.9,156.2 434.6,156.2 436.4,156.2 438.2,156.2 439.9,156.2 441.7,156.2 443.5,156.2 445.3,156.2 447.0,156.2 448.8,156.2 450.6,156.2 452.3,156.2 454.1,156.2 455.9,156.2 457.7,156.2 459.4,156.2 461.2,156.2 463.0,156.2 464.7,156.2 466.5,156.2 468.3,156.2 470.1,156.2 471.8,156.2 473.6,156.2 475.4,156.2 477.1,156.2 478.9,156.2 480.7,156.2 482.5,156.2 484.2,156.2 486.0,156.2 487.8,156.2 489.5,156.2 491.3,156.2 493.1,156.2 494.9,156.2 496.6,156.2 498.4,156.2 500.2,156.2 501.9,156.2 503.7,156.2 505.5,156.2 507.3,156.2 509.0,156.2 510.8,156.2 512.6,156.2 514.3,156.2 516.1,156.2 517.9,156.2 519.7,156.2 521.4,156.2 523.2,156.2 525.0,156.2 526.7,156.2 528.5,156.2 530.3,156.2 532.1,156.2 533.8,156.2 535.6,156.2 537.4,156.2 539.1,156.2 540.9,156.2 542.7,156.2 544.5,156.2 546.2,156.2 548.0,156.2 549.8,156.2 551.5,156.2 553.3,156.2 555.1,156.2 556.9,156.2 558.6,156.2 560.4,156.2 562.2,156.2 563.9,156.2 565.7,156.2 567.5,156.2 569.3,156.2 571.0,156.2 572.8,156.2 574.6,156.2 576.3,156.2 578.1,156.2 579.9,156.2 581.7,156.2 583.4,156.2 585.2,156.2 587.0,156.2 588.7,156.2 590.5,156.2 592.3,156.2 594.1,156.2 595.8,156.2 597.6,156.2 599.4,156.2 601.1,156.2 602.9,156.2 604.7,156.2 606.5,156.2 608.2,156.2 610.0,156.2 611.8,156.2 613.5,156.2 615.3,156.2 617.1,156.2 618.9,156.2 620.6,156.2 622.4,156.2 624.2,156.2 625.9,156.2 627.7,156.2 629.5,156.2 631.3,156.2 633.0,156.2 634.8,156.2 636.6,156.2 638.3,156.2 640.1,156.2 641.9,156.2 643.7,156.2 645.4,156.2 647.2,156.2 649.0,156.2 650.7,156.2 652.5,156.2 654.3,156.2 656.1,156.2 657.8,156.2 659.6,156.2 661.4,156.2 663.1,156.2 664.9,156.2 666.7,156.2 668.5,156.2 670.2,156.2 672.0,156.2 673.8,156.2 675.5,156.2 677.3,156.2 679.1,156.2 680.9,156.2 682.6,156.2 684.4,156.2 686.2,156.2 687.9,156.2 689.7,156.2 691.5,156.2 693.3,156.2 695.0,156.2 696.8,156.2 698.6,156.2 700.3,156.2 702.1,156.2 703.9,156.2 705.7,156.2 707.4,156.2 709.2,156.2 711.0,156.2 712.7,156.2 714.5,156.2 716.3,156.2 718.1,156.2 719.8,156.2 721.6,156.2 723.4,156.2 725.1,156.2 726.9,156.2 728.7,156.2 730.5,156.2 732.2,156.2 734.0,156.2 735.8,156.2 737.5,156.2 739.3,156.2 741.1,156.2 742.9,156.2 744.6,156.2 746.4,156.2 748.2,156.2 749.9,156.2 751.7,156.2 753.5,156.2 755.3,156.2 757.0,156.2 758.8,156.2 760.6,156.2 762.3,156.2 764.1,156.2 765.9,156.2 767.7,156.2 769.4,156.2 771.2,156.2 773.0,156.2 774.7,156.2 776.5,156.2 778.3,156.2 780.1,156.2 781.8,156.2 783.6,156.2 785.4,156.2 787.1,156.2 788.9,156.2 790.7,156.2 792.5,156.2 794.2,156.2 796.0,156.2"/>
<text x="640" y="88" font-family="Arial" font-size="12" fill="#b45309">baz</text>
</svg>