<svg xmlns="http://www.w3.org/2000/svg" width="820" height="320" viewBox="0 0 820 320">
<rect width="100%" height="100%" fill="white"/>
<text x="52" y="30" font-family="Arial" font-size="18" font-weight="700">robust_nominal accelerometer bias estimates</text>
<line x1="52" y1="274" x2="796" y2="274" stroke="#263238"/>
<line x1="52" y1="42" x2="52" y2="274" stroke="#263238"/>
<text x="52" y="306" font-family="Arial" font-size="12">time (s)</text>
<text x="630" y="306" font-family="Arial" font-size="12">m/s^2</text>

<polyline fill="none" stroke="#0f766e" stroke-width="2.3" points="52.0,127.7 53.8,127.7 55.5,127.7 57.3,127.7 59.1,127.7 60.9,127.7 62.6,127.7 64.4,127.7 66.2,127.7 67.9,127.7 69.7,127.7 71.5,127.7 73.3,127.7 75.0,127.7 76.8,127.7 78.6,123.2 80.3,123.2 82.1,123.2 83.9,123.2 85.7,123.2 87.4,123.2 89.2,123.2 91.0,123.2 92.7,123.2 94.5,123.2 96.3,123.2 98.1,123.2 99.8,123.2 101.6,123.2 103.4,123.2 105.1,126.1 106.9,126.1 108.7,126.1 110.5,126.1 112.2,126.1 114.0,126.1 115.8,126.1 117.5,126.1 119.3,126.1 121.1,126.1 122.9,126.1 124.6,126.1 126.4,126.1 128.2,126.1 129.9,126.1 131.7,236.8 133.5,236.8 135.3,236.8 137.0,236.8 138.8,236.8 140.6,236.7 142.3,236.7 144.1,236.7 145.9,236.7 147.7,236.7 149.4,236.9 151.2,236.9 153.0,236.9 154.7,236.9 156.5,236.9 158.3,273.8 160.1,273.8 161.8,273.8 163.6,273.8 165.4,273.8 167.1,274.0 168.9,274.0 170.7,274.0 172.5,274.0 174.2,274.0 176.0,273.8 177.8,273.8 179.5,273.8 181.3,273.8 183.1,273.8 184.9,204.9 186.6,204.9 188.4,204.9 190.2,204.9 191.9,204.9 193.7,204.8 195.5,204.8 197.3,204.8 199.0,204.8 200.8,204.8 202.6,205.0 204.3,205.0 206.1,205.0 207.9,205.0 209.7,205.0 211.4,111.0 213.2,111.0 215.0,111.0 216.7,111.0 218.5,111.0 220.3,111.1 222.1,111.1 223.8,111.1 225.6,111.1 227.4,111.1 229.1,111.4 230.9,111.4 232.7,111.4 234.5,111.4 236.2,111.4 238.0,42.1 239.8,42.1 241.5,42.1 243.3,42.1 245.1,42.1 246.9,42.2 248.6,42.2 250.4,42.2 252.2,42.2 253.9,42.2 255.7,42.0 257.5,42.0 259.3,42.0 261.0,42.0 262.8,42.0 264.6,88.4 266.3,88.4 268.1,88.4 269.9,88.4 271.7,88.4 273.4,88.2 275.2,88.2 277.0,88.2 278.7,88.2 280.5,88.2 282.3,88.0 284.1,88.0 285.8,88.0 287.6,88.0 289.4,88.0 291.1,135.1 292.9,135.1 294.7,135.1 296.5,135.1 298.2,135.1 300.0,135.1 301.8,135.1 303.5,135.1 305.3,135.1 307.1,135.1 308.9,135.1 310.6,135.1 312.4,135.1 314.2,135.1 315.9,135.1 317.7,139.7 319.5,139.7 321.3,139.7 323.0,139.7 324.8,139.7 326.6,139.8 328.3,139.8 330.1,139.8 331.9,139.8 333.7,139.8 335.4,139.9 337.2,139.9 339.0,139.9 340.7,139.9 342.5,139.9 344.3,144.4 346.1,144.4 347.8,144.4 349.6,144.4 351.4,144.4 353.1,144.3 354.9,144.3 356.7,144.3 358.5,144.3 360.2,144.3 362.0,144.3 363.8,144.3 365.5,144.3 367.3,144.3 369.1,144.3 370.9,151.2 372.6,151.2 374.4,151.2 376.2,151.2 377.9,151.2 379.7,151.1 381.5,151.1 383.3,151.1 385.0,151.1 386.8,151.1 388.6,151.1 390.3,151.1 392.1,151.1 393.9,151.1 395.7,151.1 397.4,143.2 399.2,143.2 401.0,143.2 402.7,143.2 404.5,143.2 406.3,143.1 408.1,143.1 409.8,143.1 411.6,143.1 413.4,143.1 415.1,143.1 416.9,143.1 418.7,143.1 420.5,143.1 422.2,143.1 424.0,133.3 425.8,133.3 427.5,133.3 429.3,133.3 431.1,133.3 432.9,133.4 434.6,133.4 436.4,133.4 438.2,133.4 439.9,133.4 441.7,133.3 443.5,133.3 445.3,133.3 447.0,133.3 448.8,133.3 450.6,143.6 452.3,143.6 454.1,143.6 455.9,143.6 457.7,143.6 459.4,143.5 461.2,143.5 463.0,143.5 464.7,143.5 466.5,143.5 468.3,143.5 470.1,143.5 471.8,143.5 473.6,143.5 475.4,143.5 477.1,130.9 478.9,130.9 480.7,130.9 482.5,130.9 484.2,130.9 486.0,130.9 487.8,130.9 489.5,130.9 491.3,130.9 493.1,130.9 494.9,130.9 496.6,130.9 498.4,130.9 500.2,130.9 501.9,130.9 503.7,126.6 505.5,126.6 507.3,126.6 509.0,126.6 510.8,126.6 512.6,126.7 514.3,126.7 516.1,126.7 517.9,126.7 519.7,126.7 521.4,126.7 523.2,126.7 525.0,126.7 526.7,126.7 528.5,126.7 530.3,122.0 532.1,122.0 533.8,122.0 535.6,122.0 537.4,122.0 539.1,122.0 540.9,122.0 542.7,122.0 544.5,122.0 546.2,122.0 548.0,121.9 549.8,121.9 551.5,121.9 553.3,121.9 555.1,121.9 556.9,115.9 558.6,115.9 560.4,115.9 562.2,115.9 563.9,115.9 565.7,115.9 567.5,115.9 569.3,115.9 571.0,115.9 572.8,115.9 574.6,115.9 576.3,115.9 578.1,115.9 579.9,115.9 581.7,115.9 583.4,113.9 585.2,113.9 587.0,113.9 588.7,113.9 590.5,113.9 592.3,113.9 594.1,113.9 595.8,113.9 597.6,113.9 599.4,113.9 601.1,114.0 602.9,114.0 604.7,114.0 606.5,114.0 608.2,114.0 610.0,112.2 611.8,112.2 613.5,112.2 615.3,112.2 617.1,112.2 618.9,112.3 620.6,112.3 622.4,112.3 624.2,112.3 625.9,112.3 627.7,112.3 629.5,112.3 631.3,112.3 633.0,112.3 634.8,112.3 636.6,111.6 638.3,111.6 640.1,111.6 641.9,111.6 643.7,111.6 645.4,111.7 647.2,111.7 649.0,111.7 650.7,111.7 652.5,111.7 654.3,111.7 656.1,111.7 657.8,111.7 659.6,111.7 661.4,111.7 663.1,111.0 664.9,111.0 666.7,111.0 668.5,111.0 670.2,111.0 672.0,111.0 673.8,111.0 675.5,111.0 677.3,111.0 679.1,111.0 680.9,111.1 682.6,111.1 684.4,111.1 686.2,111.1 687.9,111.1 689.7,112.1 691.5,112.1 693.3,112.1 695.0,112.1 696.8,112.1 698.6,112.1 700.3,112.1 702.1,112.1 703.9,112.1 705.7,112.1 707.4,112.1 709.2,112.1 711.0,112.1 712.7,112.1 714.5,112.1 716.3,112.3 718.1,112.3 719.8,112.3 721.6,112.3 723.4,112.3 725.1,112.2 726.9,112.2 728.7,112.2 730.5,112.2 732.2,112.2 734.0,112.3 735.8,112.3 737.5,112.3 739.3,112.3 741.1,112.3 742.9,112.3 744.6,112.3 746.4,112.3 748.2,112.3 749.9,112.3 751.7,112.3 753.5,112.3 755.3,112.3 757.0,112.3 758.8,112.3 760.6,112.3 762.3,112.3 764.1,112.3 765.9,112.3 767.7,112.3 769.4,115.0 771.2,115.0 773.0,115.0 774.7,115.0 776.5,115.0 778.3,115.0 780.1,115.0 781.8,115.0 783.6,115.0 785.4,115.0 787.1,115.0 788.9,115.0 790.7,115.0 792.5,115.0 794.2,115.0 796.0,115.6"/>
<text x="640" y="56" font-family="Arial" font-size="12" fill="#0f766e">bax</text>
<polyline fill="none" stroke="#2563eb" stroke-width="2.3" points="52.0,127.7 53.8,127.7 55.5,127.7 57.3,127.7 59.1,127.7 60.9,127.7 62.6,127.7 64.4,127.7 66.2,127.7 67.9,127.7 69.7,127.7 71.5,127.7 73.3,127.7 75.0,127.7 76.8,127.7 78.6,130.2 80.3,130.2 82.1,130.2 83.9,130.2 85.7,130.2 87.4,130.2 89.2,130.2 91.0,130.2 92.7,130.2 94.5,130.2 96.3,130.2 98.1,130.2 99.8,130.2 101.6,130.2 103.4,130.2 105.1,118.3 106.9,118.3 108.7,118.3 110.5,118.3 112.2,118.3 114.0,118.3 115.8,118.3 117.5,118.3 119.3,118.3 121.1,118.3 122.9,118.3 124.6,118.3 126.4,118.3 128.2,118.3 129.9,118.3 131.7,73.0 133.5,73.0 135.3,73.0 137.0,73.0 138.8,73.0 140.6,73.1 142.3,73.1 144.1,73.1 145.9,73.1 147.7,73.1 149.4,72.8 151.2,72.8 153.0,72.8 154.7,72.8 156.5,72.8 158.3,43.5 160.1,43.5 161.8,43.5 163.6,43.5 165.4,43.5 167.1,43.2 168.9,43.2 170.7,43.2 172.5,43.2 174.2,43.2 176.0,43.5 177.8,43.5 179.5,43.5 181.3,43.5 183.1,43.5 184.9,117.8 186.6,117.8 188.4,117.8 190.2,117.8 191.9,117.8 193.7,118.0 195.5,118.0 197.3,118.0 199.0,118.0 200.8,118.0 202.6,117.6 204.3,117.6 206.1,117.6 207.9,117.6 209.7,117.6 211.4,162.9 213.2,162.9 215.0,162.9 216.7,162.9 218.5,162.9 220.3,162.6 222.1,162.6 223.8,162.6 225.6,162.6 227.4,162.6 229.1,162.2 230.9,162.2 232.7,162.2 234.5,162.2 236.2,162.2 238.0,113.0 239.8,113.0 241.5,113.0 243.3,113.0 245.1,113.0 246.9,112.8 248.6,112.8 250.4,112.8 252.2,112.8 253.9,112.8 255.7,113.2 257.5,113.2 259.3,113.2 261.0,113.2 262.8,113.2 264.6,143.3 266.3,143.3 268.1,143.3 269.9,143.3 271.7,143.3 273.4,143.7 275.2,143.7 277.0,143.7 278.7,143.7 280.5,143.7 282.3,144.0 284.1,144.0 285.8,144.0 287.6,144.0 289.4,144.0 291.1,158.2 292.9,158.2 294.7,158.2 296.5,158.2 298.2,158.2 300.0,158.2 301.8,158.2 303.5,158.2 305.3,158.2 307.1,158.2 308.9,158.3 310.6,158.3 312.4,158.3 314.2,158.3 315.9,158.3 317.7,143.9 319.5,143.9 321.3,143.9 323.0,143.9 324.8,143.9 326.6,143.6 328.3,143.6 330.1,143.6 331.9,143.6 333.7,143.6 335.4,143.5 337.2,143.5 339.0,143.5 340.7,143.5 342.5,143.5 344.3,160.8 346.1,160.8 347.8,160.8 349.6,160.8 351.4,160.8 353.1,160.9 354.9,160.9 356.7,160.9 358.5,160.9 360.2,160.9 362.0,160.9 363.8,160.9 365.5,160.9 367.3,160.9 369.1,160.9 370.9,161.8 372.6,161.8 374.4,161.8 376.2,161.8 377.9,161.8 379.7,161.9 381.5,161.9 383.3,161.9 385.0,161.9 386.8,161.9 388.6,161.9 390.3,161.9 392.1,161.9 393.9,161.9 395.7,161.9 397.4,145.6 399.2,145.6 401.0,145.6 402.7,145.6 404.5,145.6 406.3,145.7 408.1,145.7 409.8,145.7 411.6,145.7 413.4,145.7 415.1,145.8 416.9,145.8 418.7,145.8 420.5,145.8 422.2,145.8 424.0,138.9 425.8,138.9 427.5,138.9 429.3,138.9 431.1,138.9 432.9,138.8 434.6,138.8 436.4,138.8 438.2,138.8 439.9,138.8 441.7,138.8 443.5,138.8 445.3,138.8 447.0,138.8 448.8,138.8 450.6,130.9 452.3,130.9 454.1,130.9 455.9,130.9 457.7,130.9 459.4,131.0 461.2,131.0 463.0,131.0 464.7,131.0 466.5,131.0 468.3,131.0 470.1,131.0 471.8,131.0 473.6,131.0 475.4,131.0 477.1,122.1 478.9,122.1 480.7,122.1 482.5,122.1 484.2,122.1 486.0,122.1 487.8,122.1 489.5,122.1 491.3,122.1 493.1,122.1 494.9,122.1 496.6,122.1 498.4,122.1 500.2,122.1 501.9,122.1 503.7,120.1 505.5,120.1 507.3,120.1 509.0,120.1 510.8,120.1 512.6,120.0 514.3,120.0 516.1,120.0 517.9,120.0 519.7,120.0 521.4,120.0 523.2,120.0 525.0,120.0 526.7,120.0 528.5,120.0 530.3,121.7 532.1,121.7 533.8,121.7 535.6,121.7 537.4,121.7 539.1,121.7 540.9,121.7 542.7,121.7 544.5,121.7 546.2,121.7 548.0,121.7 549.8,121.7 551.5,121.7 553.3,121.7 555.1,121.7 556.9,119.0 558.6,119.0 560.4,119.0 562.2,119.0 563.9,119.0 565.7,118.9 567.5,118.9 569.3,118.9 571.0,118.9 572.8,118.9 574.6,119.0 576.3,119.0 578.1,119.0 579.9,119.0 581.7,119.0 583.4,121.8 585.2,121.8 587.0,121.8 588.7,121.8 590.5,121.8 592.3,121.8 594.1,121.8 595.8,121.8 597.6,121.8 599.4,121.8 601.1,121.8 602.9,121.8 604.7,121.8 606.5,121.8 608.2,121.8 610.0,123.1 611.8,123.1 613.5,123.1 615.3,123.1 617.1,123.1 618.9,123.1 620.6,123.1 622.4,123.1 624.2,123.1 625.9,123.1 627.7,123.1 629.5,123.1 631.3,123.1 633.0,123.1 634.8,123.1 636.6,128.0 638.3,128.0 640.1,128.0 641.9,128.0 643.7,128.0 645.4,127.9 647.2,127.9 649.0,127.9 650.7,127.9 652.5,127.9 654.3,127.9 656.1,127.9 657.8,127.9 659.6,127.9 661.4,127.9 663.1,129.9 664.9,129.9 666.7,129.9 668.5,129.9 670.2,129.9 672.0,129.9 673.8,129.9 675.5,129.9 677.3,129.9 679.1,129.9 680.9,129.9 682.6,129.9 684.4,129.9 686.2,129.9 687.9,129.9 689.7,130.7 691.5,130.7 693.3,130.7 695.0,130.7 696.8,130.7 698.6,130.7 700.3,130.7 702.1,130.7 703.9,130.7 705.7,130.7 707.4,130.7 709.2,130.7 711.0,130.7 712.7,130.7 714.5,130.7 716.3,130.5 718.1,130.5 719.8,130.5 721.6,130.5 723.4,130.5 725.1,130.5 726.9,130.5 728.7,130.5 730.5,130.5 732.2,130.5 734.0,130.5 735.8,130.5 737.5,130.5 739.3,130.5 741.1,130.5 742.9,131.8 744.6,131.8 746.4,131.8 748.2,131.8 749.9,131.8 751.7,131.8 753.5,131.8 755.3,131.8 757.0,131.8 758.8,131.8 760.6,131.8 762.3,131.8 764.1,131.8 765.9,131.8 767.7,131.8 769.4,133.2 771.2,133.2 773.0,133.2 774.7,133.2 776.5,133.2 778.3,133.2 780.1,133.2 781.8,133.2 783.6,133.2 785.4,133.2 787.1,133.2 788.9,133.2 790.7,133.2 792.5,133.2 794.2,133.2 796.0,133.7"/>
<text x="640" y="72" font-family="Arial" font-size="12" fill="#2563eb">bay</text>
<polyline fill="none" stroke="#b45309" stroke-width="2.3" points="52.0,127.7 53.8,127.7 55.5,127.7 57.3,127.7 59.1,127.7 60.9,125.5 62.6,125.5 64.4,125.5 66.2,125.5 67.9,125.5 69.7,128.1 71.5,128.1 73.3,128.1 75.0,128.1 76.8,128.1 78.6,139.5 80.3,139.5 82.1,139.5 83.9,139.5 85.7,139.5 87.4,140.3 89.2,140.3 91.0,140.3 92.7,140.3 94.5,140.3 96.3,156.8 98.1,156.8 99.8,156.8 101.6,156.8 103.4,156.8 105.1,149.0 106.9,149.0 108.7,149.0 110.5,149.0 112.2,149.0 114.0,146.5 115.8,146.5 117.5,146.5 119.3,146.5 121.1,146.5 122.9,159.7 124.6,159.7 126.4,159.7 128.2,159.7 129.9,159.7 131.7,185.2 133.5,185.2 135.3,185.2 137.0,185.2 138.8,185.2 140.6,197.6 142.3,197.6 144.1,197.6 145.9,197.6 147.7,197.6 149.4,139.2 151.2,139.2 153.0,139.2 154.7,139.2 156.5,139.2 158.3,119.2 160.1,119.2 161.8,119.2 163.6,119.2 165.4,119.2 167.1,91.1 168.9,91.1 170.7,91.1 172.5,91.1 174.2,91.1 176.0,120.0 177.8,120.0 179.5,120.0 181.3,120.0 183.1,120.0 184.9,93.6 186.6,93.6 188.4,93.6 190.2,93.6 191.9,93.6 193.7,102.5 195.5,102.5 197.3,102.5 199.0,102.5 200.8,102.5 202.6,81.8 204.3,81.8 206.1,81.8 207.9,81.8 209.7,81.8 211.4,86.6 213.2,86.6 215.0,86.6 216.7,86.6 218.5,86.6 220.3,76.0 222.1,76.0 223.8,76.0 225.6,76.0 227.4,76.0 229.1,57.2 230.9,57.2 232.7,57.2 234.5,57.2 236.2,57.2 238.0,74.2 239.8,74.2 241.5,74.2 243.3,74.2 245.1,74.2 246.9,65.5 248.6,65.5 250.4,65.5 252.2,65.5 253.9,65.5 255.7,82.2 257.5,82.2 259.3,82.2 261.0,82.2 262.8,82.2 264.6,79.9 266.3,79.9 268.1,79.9 269.9,79.9 271.7,79.9 273.4,93.6 275.2,93.6 277.0,93.6 278.7,93.6 280.5,93.6 282.3,104.9 284.1,104.9 285.8,104.9 287.6,104.9 289.4,104.9 291.1,113.7 292.9,113.7 294.7,113.7 296.5,113.7 298.2,113.7 300.0,111.9 301.8,111.9 303.5,111.9 305.3,111.9 307.1,111.9 308.9,115.0 310.6,115.0 312.4,115.0 314.2,115.0 315.9,115.0 317.7,118.6 319.5,118.6 321.3,118.6 323.0,118.6 324.8,118.6 326.6,111.1 328.3,111.1 330.1,111.1 331.9,111.1 333.7,111.1 335.4,106.9 337.2,106.9 339.0,106.9 340.7,106.9 342.5,106.9 344.3,102.1 346.1,102.1 347.8,102.1 349.6,102.1 351.4,102.1 353.1,105.4 354.9,105.4 356.7,105.4 358.5,105.4 360.2,105.4 362.0,107.9 363.8,107.9 365.5,107.9 367.3,107.9 369.1,107.9 370.9,112.9 372.6,112.9 374.4,112.9 376.2,112.9 377.9,112.9 379.7,117.4 381.5,117.4 383.3,117.4 385.0,117.4 386.8,117.4 388.6,117.7 390.3,117.7 392.1,117.7 393.9,117.7 395.7,117.7 397.4,113.3 399.2,113.3 401.0,113.3 402.7,113.3 404.5,113.3 406.3,116.6 408.1,116.6 409.8,116.6 411.6,116.6 413.4,116.6 415.1,119.3 416.9,119.3 418.7,119.3 420.5,119.3 422.2,119.3 424.0,122.1 425.8,122.1 427.5,122.1 429.3,122.1 431.1,122.1 432.9,118.2 434.6,118.2 436.4,118.2 438.2,118.2 439.9,118.2 441.7,119.7 443.5,119.7 445.3,119.7 447.0,119.7 448.8,119.7 450.6,118.3 452.3,118.3 454.1,118.3 455.9,118.3 457.7,118.3 459.4,119.8 461.2,119.8 463.0,119.8 464.7,119.8 466.5,119.8 468.3,122.0 470.1,122.0 471.8,122.0 473.6,122.0 475.4,122.0 477.1,124.5 478.9,124.5 480.7,124.5 482.5,124.5 484.2,124.5 486.0,126.2 487.8,126.2 489.5,126.2 491.3,126.2 493.1,126.2 494.9,125.9 496.6,125.9 498.4,125.9 500.2,125.9 501.9,125.9 503.7,125.6 505.5,125.6 507.3,125.6 509.0,125.6 510.8,125.6 512.6,124.0 514.3,124.0 516.1,124.0 517.9,124.0 519.7,124.0 521.4,124.2 523.2,124.2 525.0,124.2 526.7,124.2 528.5,124.2 530.3,121.8 532.1,121.8 533.8,121.8 535.6,121.8 537.4,121.8 539.1,123.4 540.9,123.4 542.7,123.4 544.5,123.4 546.2,123.4 548.0,125.3 549.8,125.3 551.5,125.3 553.3,125.3 555.1,125.3 556.9,124.4 558.6,124.4 560.4,124.4 562.2,124.4 563.9,124.4 565.7,122.6 567.5,122.6 569.3,122.6 571.0,122.6 572.8,122.6 574.6,124.0 576.3,124.0 578.1,124.0 579.9,124.0 581.7,124.0 583.4,124.0 585.2,124.0 587.0,124.0 588.7,124.0 590.5,124.0 592.3,123.6 594.1,123.6 595.8,123.6 597.6,123.6 599.4,123.6 601.1,122.1 602.9,122.1 604.7,122.1 606.5,122.1 608.2,122.1 610.0,122.7 611.8,122.7 613.5,122.7 615.3,122.7 617.1,122.7 618.9,121.3 620.6,121.3 622.4,121.3 624.2,121.3 625.9,121.3 627.7,121.5 629.5,121.5 631.3,121.5 633.0,121.5 634.8,121.5 636.6,122.3 638.3,122.3 640.1,122.3 641.9,122.3 643.7,122.3 645.4,121.0 647.2,121.0 649.0,121.0 650.7,121.0 652.5,121.0 654.3,120.7 656.1,120.7 657.8,120.7 659.6,120.7 661.4,120.7 663.1,120.6 664.9,120.6 666.7,120.6 668.5,120.6 670.2,120.6 672.0,119.5 673.8,119.5 675.5,119.5 677.3,119.5 679.1,119.5 680.9,119.1 682.6,119.1 684.4,119.1 686.2,119.1 687.9,119.1 689.7,117.9 691.5,117.9 693.3,117.9 695.0,117.9 696.8,117.9 698.6,118.2 700.3,118.2 702.1,118.2 703.9,118.2 705.7,118.2 707.4,118.1 709.2,118.1 711.0,118.1 712.7,118.1 714.5,118.1 716.3,118.0 718.1,118.0 719.8,118.0 721.6,118.0 723.4,118.0 725.1,118.7 726.9,118.7 728.7,118.7 730.5,118.7 732.2,118.7 734.0,118.4 735.8,118.4 737.5,118.4 739.3,118.4 741.1,118.4 742.9,118.2 744.6,118.2 746.4,118.2 748.2,118.2 749.9,118.2 751.7,118.7 753.5,118.7 755.3,118.7 757.0,118.7 758.8,118.7 760.6,119.4 762.3,119.4 764.1,119.4 765.9,119.4 767.7,119.4 769.4,120.1 771.2,120.1 773.0,120.1 774.7,120.1 776.5,120.1 778.3,120.5 780.1,120.5 781.8,120.5 783.6,120.5 785.4,120.5 787.1,119.6 788.9,119.6 790.7,119.6 792.5,119.6 794.2,119.6 796.0,119.0"/>
<text x="640" y="88" font-family="Arial" font-size="12" fill="#b45309">baz</text>
</svg>