<svg xmlns="http://www.w3.org/2000/svg" width="820" height="320" viewBox="0 0 820 320">
<rect width="100%" height="100%" fill="white"/>
<text x="52" y="30" font-family="Arial" font-size="18" font-weight="700">ekf_nominal covariance bounds</text>
<line x1="52" y1="274" x2="796" y2="274" stroke="#263238"/>
<line x1="52" y1="42" x2="52" y2="274" stroke="#263238"/>
<text x="52" y="306" font-family="Arial" font-size="12">time (s)</text>
<text x="630" y="306" font-family="Arial" font-size="12">m</text>

<rect x="370.9" y="42" width="79.7" height="232" fill="#fef3c7" opacity="0.72"/>
<polyline fill="none" stroke="#0f766e" stroke-width="2.3" points="52.0,252.3 53.8,250.7 55.5,249.1 57.3,247.4 59.1,245.6 60.9,216.2 62.6,204.0 64.4,191.7 66.2,179.3 67.9,166.9 69.7,216.1 71.5,210.9 73.3,205.7 75.0,200.5 76.8,195.2 78.6,272.5 80.3,273.1 82.1,273.5 83.9,273.8 85.7,274.0 87.4,273.7 89.2,273.6 91.0,273.3 92.7,272.9 94.5,272.4 96.3,267.6 98.1,265.6 99.8,263.6 101.6,261.6 103.4,259.5 105.1,244.5 106.9,242.4 108.7,240.3 110.5,238.2 112.2,236.1 114.0,235.4 115.8,233.4 117.5,231.3 119.3,229.2 121.1,227.2 122.9,223.9 124.6,221.7 126.4,219.5 128.2,217.3 129.9,215.0 131.7,225.8 133.5,222.7 135.3,219.6 137.0,216.3 138.8,213.0 140.6,207.4 142.3,203.8 144.1,200.1 145.9,196.4 147.7,192.6 149.4,208.5 151.2,205.4 153.0,202.3 154.7,199.0 156.5,195.7 158.3,176.2 160.1,172.5 161.8,168.7 163.6,164.8 165.4,160.9 167.1,157.5 168.9,153.4 170.7,149.2 172.5,144.9 174.2,140.6 176.0,134.3 177.8,129.8 179.5,125.3 181.3,120.7 183.1,116.0 184.9,217.6 186.6,217.4 188.4,217.2 190.2,216.9 191.9,216.7 193.7,214.6 195.5,214.3 197.3,214.1 199.0,213.9 200.8,213.7 202.6,215.8 204.3,215.6 206.1,215.5 207.9,215.3 209.7,215.1 211.4,234.8 213.2,230.9 215.0,226.8 216.7,222.7 218.5,218.4 220.3,214.3 222.1,209.6 223.8,204.9 225.6,200.0 227.4,195.1 229.1,187.5 230.9,182.2 232.7,176.7 234.5,171.1 236.2,165.4 238.0,200.4 239.8,196.8 241.5,193.2 243.3,189.6 245.1,185.8 246.9,180.4 248.6,176.3 250.4,172.2 252.2,168.0 253.9,163.8 255.7,161.4 257.5,157.1 259.3,152.8 261.0,148.4 262.8,143.9 264.6,202.4 266.3,199.6 268.1,196.7 269.9,193.8 271.7,190.9 273.4,193.3 275.2,190.5 277.0,187.6 278.7,184.8 280.5,181.9 282.3,180.5 284.1,177.7 285.8,174.7 287.6,171.8 289.4,168.8 291.1,235.6 292.9,234.2 294.7,232.7 296.5,231.2 298.2,229.7 300.0,233.9 301.8,232.4 303.5,230.9 305.3,229.4 307.1,227.8 308.9,227.2 310.6,225.6 312.4,223.9 314.2,222.3 315.9,220.6 317.7,259.4 319.5,259.0 321.3,258.7 323.0,258.3 324.8,257.9 326.6,263.2 328.3,262.7 330.1,262.2 331.9,261.6 333.7,261.1 335.4,255.5 337.2,254.7 339.0,253.8 340.7,252.9 342.5,251.9 344.3,210.0 346.1,207.8 347.8,205.6 349.6,203.4 351.4,201.2 353.1,203.2 354.9,201.0 356.7,198.8 358.5,196.5 360.2,194.3 362.0,195.4 363.8,193.3 365.5,191.1 367.3,188.8 369.1,186.6 370.9,177.5 372.6,175.1 374.4,172.6 376.2,170.1 377.9,167.6 379.7,169.9 381.5,167.5 383.3,165.0 385.0,162.6 386.8,160.1 388.6,157.7 390.3,155.2 392.1,152.6 393.9,150.0 395.7,147.4 397.4,191.3 399.2,189.6 401.0,187.8 402.7,186.0 404.5,184.2 406.3,188.9 408.1,187.3 409.8,185.6 411.6,183.9 413.4,182.2 415.1,181.3 416.9,179.6 418.7,177.9 420.5,176.2 422.2,174.4 424.0,226.4 425.8,225.8 427.5,225.3 429.3,224.7 431.1,224.2 432.9,224.3 434.6,223.8 436.4,223.3 438.2,222.8 439.9,222.3 441.7,221.9 443.5,221.4 445.3,220.9 447.0,220.4 448.8,219.8 450.6,202.4 452.3,201.2 454.1,199.9 455.9,198.6 457.7,197.3 459.4,196.6 461.2,195.3 463.0,194.0 464.7,192.7 466.5,191.4 468.3,191.5 470.1,190.2 471.8,188.8 473.6,187.4 475.4,186.0 477.1,237.3 478.9,236.1 480.7,234.9 482.5,233.7 484.2,232.5 486.0,229.9 487.8,228.6 489.5,227.3 491.3,226.0 493.1,224.7 494.9,224.2 496.6,222.8 498.4,221.4 500.2,220.0 501.9,218.6 503.7,220.5 505.5,219.3 507.3,218.0 509.0,216.7 510.8,215.4 512.6,215.1 514.3,213.7 516.1,212.4 517.9,211.0 519.7,209.6 521.4,208.5 523.2,207.1 525.0,205.7 526.7,204.2 528.5,202.7 530.3,229.6 532.1,228.5 533.8,227.4 535.6,226.3 537.4,225.1 539.1,226.3 540.9,225.2 542.7,224.0 544.5,222.9 546.2,221.7 548.0,220.7 549.8,219.4 551.5,218.2 553.3,216.9 555.1,215.7 556.9,220.9 558.6,219.5 560.4,218.2 562.2,216.8 563.9,215.4 565.7,214.0 567.5,212.5 569.3,211.1 571.0,209.7 572.8,208.2 574.6,205.8 576.3,204.3 578.1,202.7 579.9,201.2 581.7,199.7 583.4,225.4 585.2,224.3 587.0,223.1 588.7,221.9 590.5,220.7 592.3,220.0 594.1,218.8 595.8,217.6 597.6,216.3 599.4,215.1 601.1,215.9 602.9,214.7 604.7,213.5 606.5,212.3 608.2,211.1 610.0,235.4 611.8,234.4 613.5,233.4 615.3,232.4 617.1,231.4 618.9,231.1 620.6,230.1 622.4,229.1 624.2,228.0 625.9,227.0 627.7,225.8 629.5,224.8 631.3,223.7 633.0,222.6 634.8,221.5 636.6,264.5 638.3,264.1 640.1,263.6 641.9,263.1 643.7,262.6 645.4,265.5 647.2,265.1 649.0,264.6 650.7,264.1 652.5,263.7 654.3,263.2 656.1,262.7 657.8,262.3 659.6,261.8 661.4,261.3 663.1,269.4 664.9,268.9 666.7,268.6 668.5,268.2 670.2,267.8 672.0,263.3 673.8,262.9 675.5,262.4 677.3,261.9 679.1,261.5 680.9,260.0 682.6,259.5 684.4,259.0 686.2,258.5 687.9,258.0 689.7,256.5 691.5,256.0 693.3,255.5 695.0,255.1 696.8,254.6 698.6,257.6 700.3,257.1 702.1,256.7 703.9,256.2 705.7,255.7 707.4,255.5 709.2,255.0 711.0,254.5 712.7,254.0 714.5,253.5 716.3,252.5 718.1,252.0 719.8,251.6 721.6,251.1 723.4,250.6 725.1,254.8 726.9,254.4 728.7,254.0 730.5,253.6 732.2,253.2 734.0,251.0 735.8,250.6 737.5,250.1 739.3,249.7 741.1,249.3 742.9,253.8 744.6,253.5 746.4,253.1 748.2,252.7 749.9,252.4 751.7,256.4 753.5,256.1 755.3,255.8 757.0,255.5 758.8,255.2 760.6,260.7 762.3,260.5 764.1,260.3 765.9,260.1 767.7,259.9 769.4,266.9 771.2,266.8 773.0,266.6 774.7,266.4 776.5,266.2 778.3,267.6 780.1,267.3 781.8,267.1 783.6,266.8 785.4,266.6 787.1,262.6 788.9,262.5 790.7,262.3 792.5,262.0 794.2,261.8 796.0,255.1"/>
<text x="640" y="56" font-family="Arial" font-size="12" fill="#0f766e">position error</text>
<polyline fill="none" stroke="#2563eb" stroke-width="2.3" points="52.0,217.7 53.8,214.7 55.5,206.5 57.3,194.4 59.1,179.8 60.9,179.4 62.6,164.5 64.4,148.8 66.2,132.5 67.9,115.8 69.7,107.4 71.5,91.3 73.3,75.0 75.0,58.6 76.8,42.0 78.6,221.2 80.3,216.7 82.1,212.0 83.9,207.1 85.7,202.0 87.4,203.1 89.2,198.2 91.0,193.1 92.7,187.9 94.5,182.6 96.3,180.9 98.1,175.6 99.8,170.3 101.6,164.8 103.4,159.2 105.1,226.5 106.9,223.8 108.7,221.0 110.5,218.1 112.2,215.0 114.0,215.2 115.8,212.0 117.5,208.7 119.3,205.3 121.1,201.7 122.9,200.7 124.6,197.1 126.4,193.3 128.2,189.4 129.9,185.3 131.7,229.6 133.5,227.2 135.3,224.6 137.0,221.8 138.8,218.9 140.6,219.0 142.3,216.0 144.1,212.8 145.9,209.5 147.7,206.0 149.4,205.1 151.2,201.5 153.0,197.7 154.7,193.8 156.5,189.8 158.3,230.2 160.1,227.8 161.8,225.1 163.6,222.4 165.4,219.5 167.1,219.4 168.9,216.4 170.7,213.3 172.5,210.0 174.2,206.6 176.0,205.5 177.8,202.0 179.5,198.3 181.3,194.6 183.1,190.7 184.9,230.4 186.6,228.0 188.4,225.6 190.2,223.0 191.9,220.3 193.7,220.1 195.5,217.3 197.3,214.4 199.0,211.5 200.8,208.4 202.6,207.3 204.3,204.1 206.1,200.9 207.9,197.5 209.7,194.1 211.4,231.1 213.2,229.0 215.0,226.8 216.7,224.5 218.5,222.2 220.3,221.8 222.1,219.4 223.8,216.9 225.6,214.4 227.4,211.7 229.1,210.7 230.9,208.0 232.7,205.2 234.5,202.4 236.2,199.5 238.0,232.2 239.8,230.4 241.5,228.5 243.3,226.6 245.1,224.5 246.9,224.2 248.6,222.1 250.4,220.0 252.2,217.8 253.9,215.6 255.7,214.7 257.5,212.4 259.3,210.1 261.0,207.7 262.8,205.2 264.6,233.4 266.3,231.8 268.1,230.1 269.9,228.4 271.7,226.7 273.4,226.3 275.2,224.5 277.0,222.7 278.7,220.8 280.5,218.9 282.3,218.1 284.1,216.2 285.8,214.2 287.6,212.2 289.4,210.1 291.1,234.6 292.9,233.2 294.7,231.7 296.5,230.2 298.2,228.7 300.0,228.3 301.8,226.8 303.5,225.2 305.3,223.6 307.1,221.9 308.9,221.3 310.6,219.6 312.4,217.9 314.2,216.1 315.9,214.3 317.7,235.9 319.5,234.7 321.3,233.4 323.0,232.1 324.8,230.7 326.6,230.4 328.3,229.0 330.1,227.7 331.9,226.2 333.7,224.8 335.4,224.2 337.2,222.7 339.0,221.3 340.7,219.7 342.5,218.2 344.3,237.5 346.1,236.4 347.8,235.3 349.6,234.1 351.4,232.9 353.1,232.6 354.9,231.4 356.7,230.2 358.5,229.0 360.2,227.7 362.0,227.2 363.8,225.9 365.5,224.6 367.3,223.3 369.1,221.9 370.9,237.9 372.6,236.9 374.4,235.8 376.2,234.7 377.9,233.6 379.7,233.3 381.5,232.1 383.3,230.9 385.0,229.8 386.8,228.6 388.6,228.1 390.3,226.9 392.1,225.6 393.9,224.3 395.7,223.1 397.4,239.0 399.2,238.0 401.0,237.0 402.7,236.0 404.5,235.0 406.3,234.8 408.1,233.7 409.8,232.7 411.6,231.6 413.4,230.5 415.1,230.1 416.9,229.0 418.7,227.8 420.5,226.7 422.2,225.5 424.0,240.4 425.8,239.5 427.5,238.6 429.3,237.7 431.1,236.7 432.9,236.5 434.6,235.6 436.4,234.6 438.2,233.6 439.9,232.6 441.7,232.3 443.5,231.3 445.3,230.2 447.0,229.2 448.8,228.1 450.6,241.7 452.3,240.9 454.1,240.1 455.9,239.2 457.7,238.4 459.4,238.3 461.2,237.4 463.0,236.6 464.7,235.7 466.5,234.8 468.3,234.6 470.1,233.7 471.8,232.8 473.6,231.8 475.4,230.9 477.1,243.8 478.9,243.1 480.7,242.3 482.5,241.6 484.2,240.8 486.0,240.7 487.8,240.0 489.5,239.2 491.3,238.4 493.1,237.6 494.9,237.4 496.6,236.5 498.4,235.7 500.2,234.9 501.9,234.0 503.7,245.0 505.5,244.3 507.3,243.6 509.0,242.9 510.8,242.2 512.6,242.1 514.3,241.4 516.1,240.6 517.9,239.9 519.7,239.1 521.4,238.9 523.2,238.2 525.0,237.4 526.7,236.6 528.5,235.8 530.3,245.6 532.1,244.9 533.8,244.2 535.6,243.6 537.4,242.9 539.1,242.8 540.9,242.1 542.7,241.4 544.5,240.7 546.2,240.0 548.0,239.8 549.8,239.1 551.5,238.3 553.3,237.6 555.1,236.8 556.9,245.8 558.6,245.2 560.4,244.5 562.2,243.9 563.9,243.2 565.7,243.1 567.5,242.5 569.3,241.8 571.0,241.1 572.8,240.4 574.6,240.2 576.3,239.5 578.1,238.8 579.9,238.1 581.7,237.4 583.4,245.8 585.2,245.2 587.0,244.5 588.7,243.9 590.5,243.3 592.3,243.2 594.1,242.5 595.8,241.9 597.6,241.2 599.4,240.5 601.1,240.4 602.9,239.7 604.7,239.0 606.5,238.3 608.2,237.6 610.0,244.6 611.8,244.0 613.5,243.4 615.3,242.8 617.1,242.1 618.9,242.1 620.6,241.4 622.4,240.8 624.2,240.1 625.9,239.4 627.7,239.3 629.5,238.6 631.3,237.9 633.0,237.2 634.8,236.5 636.6,244.6 638.3,244.0 640.1,243.4 641.9,242.8 643.7,242.2 645.4,242.1 647.2,241.5 649.0,240.8 650.7,240.2 652.5,239.5 654.3,239.4 656.1,238.7 657.8,238.1 659.6,237.4 661.4,236.7 663.1,244.4 664.9,243.8 666.7,243.2 668.5,242.6 670.2,242.0 672.0,241.9 673.8,241.3 675.5,240.7 677.3,240.1 679.1,239.4 680.9,239.3 682.6,238.6 684.4,238.0 686.2,237.4 687.9,236.7 689.7,244.0 691.5,243.4 693.3,242.8 695.0,242.3 696.8,241.7 698.6,241.6 700.3,241.0 702.1,240.4 703.9,239.8 705.7,239.2 707.4,239.0 709.2,238.4 711.0,237.7 712.7,237.1 714.5,236.5 716.3,243.5 718.1,243.0 719.8,242.4 721.6,241.8 723.4,241.2 725.1,241.1 726.9,240.6 728.7,240.0 730.5,239.4 732.2,238.8 734.0,238.6 735.8,238.0 737.5,237.4 739.3,236.7 741.1,236.1 742.9,243.0 744.6,242.4 746.4,241.9 748.2,241.3 749.9,240.7 751.7,240.6 753.5,240.0 755.3,239.5 757.0,238.9 758.8,238.3 760.6,238.1 762.3,237.5 764.1,236.9 765.9,236.3 767.7,235.6 769.4,242.4 771.2,241.8 773.0,241.3 774.7,240.7 776.5,240.2 778.3,240.0 780.1,239.5 781.8,238.9 783.6,238.3 785.4,237.7 787.1,237.5 788.9,237.0 790.7,236.3 792.5,235.7 794.2,235.1 796.0,241.8"/>
<text x="640" y="72" font-family="Arial" font-size="12" fill="#2563eb">sqrt trace Ppos</text>
</svg>