<svg xmlns="http://www.w3.org/2000/svg" width="820" height="320" viewBox="0 0 820 320">
<rect width="100%" height="100%" fill="white"/>
<text x="52" y="30" font-family="Arial" font-size="18" font-weight="700">particle_nominal covariance bounds</text>
<line x1="52" y1="274" x2="796" y2="274" stroke="#263238"/>
<line x1="52" y1="42" x2="52" y2="274" stroke="#263238"/>
<text x="52" y="306" font-family="Arial" font-size="12">time (s)</text>
<text x="630" y="306" font-family="Arial" font-size="12">m</text>

<rect x="370.9" y="42" width="79.7" height="232" fill="#fef3c7" opacity="0.72"/>
<polyline fill="none" stroke="#0f766e" stroke-width="2.3" points="52.0,270.1 53.8,270.0 55.5,269.9 57.3,269.8 59.1,269.7 60.9,264.6 62.6,264.5 64.4,264.5 66.2,264.4 67.9,264.4 69.7,262.9 71.5,262.8 73.3,262.7 75.0,262.6 76.8,262.5 78.6,266.4 80.3,266.4 82.1,266.5 83.9,266.5 85.7,266.5 87.4,266.7 89.2,266.7 91.0,266.6 92.7,266.6 94.5,266.5 96.3,266.6 98.1,266.4 99.8,266.2 101.6,266.0 103.4,265.8 105.1,264.6 106.9,264.5 108.7,264.3 110.5,264.1 112.2,263.9 114.0,263.7 115.8,263.5 117.5,263.2 119.3,263.0 121.1,262.7 122.9,262.3 124.6,262.0 126.4,261.6 128.2,261.3 129.9,260.9 131.7,265.6 133.5,265.2 135.3,264.9 137.0,264.5 138.8,264.2 140.6,264.2 142.3,263.8 144.1,263.4 145.9,263.0 147.7,262.6 149.4,263.5 151.2,263.1 153.0,262.7 154.7,262.3 156.5,261.8 158.3,264.5 160.1,264.1 161.8,263.7 163.6,263.3 165.4,262.8 167.1,264.3 168.9,263.8 170.7,263.3 172.5,262.9 174.2,262.3 176.0,262.6 177.8,262.1 179.5,261.5 181.3,261.0 183.1,260.4 184.9,263.6 186.6,263.1 188.4,262.5 190.2,262.0 191.9,261.4 193.7,262.1 195.5,261.5 197.3,260.9 199.0,260.3 200.8,259.6 202.6,260.3 204.3,259.7 206.1,259.0 207.9,258.3 209.7,257.7 211.4,259.1 213.2,258.5 215.0,257.9 216.7,257.2 218.5,256.6 220.3,257.0 222.1,256.3 223.8,255.7 225.6,255.0 227.4,254.4 229.1,254.8 230.9,254.1 232.7,253.4 234.5,252.8 236.2,252.1 238.0,254.3 239.8,253.7 241.5,253.1 243.3,252.5 245.1,251.8 246.9,252.7 248.6,252.0 250.4,251.3 252.2,250.7 253.9,250.0 255.7,250.0 257.5,249.3 259.3,248.6 261.0,247.9 262.8,247.2 264.6,250.9 266.3,250.3 268.1,249.6 269.9,248.9 271.7,248.2 273.4,248.5 275.2,247.8 277.0,247.0 278.7,246.3 280.5,245.6 282.3,245.4 284.1,244.6 285.8,243.8 287.6,243.1 289.4,242.3 291.1,247.1 292.9,246.4 294.7,245.6 296.5,244.9 298.2,244.2 300.0,245.6 301.8,244.9 303.5,244.1 305.3,243.3 307.1,242.6 308.9,242.6 310.6,241.8 312.4,241.0 314.2,240.1 315.9,239.3 317.7,243.1 319.5,242.4 321.3,241.6 323.0,240.9 324.8,240.1 326.6,242.2 328.3,241.4 330.1,240.6 331.9,239.8 333.7,239.0 335.4,239.5 337.2,238.7 339.0,237.9 340.7,237.0 342.5,236.2 344.3,240.5 346.1,239.6 347.8,238.8 349.6,238.0 351.4,237.2 353.1,238.1 354.9,237.3 356.7,236.4 358.5,235.6 360.2,234.7 362.0,235.2 363.8,234.3 365.5,233.4 367.3,232.6 369.1,231.7 370.9,234.7 372.6,233.8 374.4,232.8 376.2,231.9 377.9,231.0 379.7,231.7 381.5,230.7 383.3,229.8 385.0,228.8 386.8,227.8 388.6,227.7 390.3,226.8 392.1,225.8 393.9,224.9 395.7,224.0 397.4,226.0 399.2,225.1 401.0,224.1 402.7,223.1 404.5,222.2 406.3,223.1 408.1,222.2 409.8,221.2 411.6,220.2 413.4,219.2 415.1,219.2 416.9,218.2 418.7,217.2 420.5,216.2 422.2,215.2 424.0,219.8 425.8,218.7 427.5,217.7 429.3,216.7 431.1,215.6 432.9,216.6 434.6,215.6 436.4,214.5 438.2,213.5 439.9,212.5 441.7,212.5 443.5,211.5 445.3,210.4 447.0,209.4 448.8,208.3 450.6,210.4 452.3,209.3 454.1,208.3 455.9,207.2 457.7,206.1 459.4,207.5 461.2,206.4 463.0,205.3 464.7,204.2 466.5,203.0 468.3,203.4 470.1,202.3 471.8,201.1 473.6,200.0 475.4,198.8 477.1,203.5 478.9,202.3 480.7,201.1 482.5,199.9 484.2,198.7 486.0,200.0 487.8,198.8 489.5,197.6 491.3,196.3 493.1,195.1 494.9,196.4 496.6,195.2 498.4,194.0 500.2,192.7 501.9,191.5 503.7,195.0 505.5,193.8 507.3,192.6 509.0,191.3 510.8,190.1 512.6,191.0 514.3,189.8 516.1,188.5 517.9,187.2 519.7,185.9 521.4,186.0 523.2,184.7 525.0,183.4 526.7,182.1 528.5,180.7 530.3,184.1 532.1,182.8 533.8,181.5 535.6,180.2 537.4,178.9 539.1,179.7 540.9,178.3 542.7,177.0 544.5,175.7 546.2,174.3 548.0,174.2 549.8,172.8 551.5,171.5 553.3,170.1 555.1,168.7 556.9,172.8 558.6,171.5 560.4,170.1 562.2,168.7 563.9,167.3 565.7,168.5 567.5,167.1 569.3,165.7 571.0,164.3 572.8,162.9 574.6,162.9 576.3,161.5 578.1,160.1 579.9,158.7 581.7,157.2 583.4,161.7 585.2,160.3 587.0,158.9 588.7,157.5 590.5,156.0 592.3,158.1 594.1,156.6 595.8,155.2 597.6,153.7 599.4,152.2 601.1,152.8 602.9,151.3 604.7,149.8 606.5,148.3 608.2,146.8 610.0,151.2 611.8,149.7 613.5,148.1 615.3,146.6 617.1,145.1 618.9,145.2 620.6,143.7 622.4,142.2 624.2,140.7 625.9,139.2 627.7,139.1 629.5,137.6 631.3,136.1 633.0,134.5 634.8,133.0 636.6,135.7 638.3,134.2 640.1,132.6 641.9,131.1 643.7,129.6 645.4,129.7 647.2,128.1 649.0,126.6 650.7,125.0 652.5,123.4 654.3,124.7 656.1,123.1 657.8,121.5 659.6,120.0 661.4,118.4 663.1,123.1 664.9,121.6 666.7,120.0 668.5,118.4 670.2,116.9 672.0,118.1 673.8,116.5 675.5,114.9 677.3,113.2 679.1,111.6 680.9,112.0 682.6,110.3 684.4,108.7 686.2,107.0 687.9,105.4 689.7,109.8 691.5,108.2 693.3,106.5 695.0,104.8 696.8,103.2 698.6,103.3 700.3,101.6 702.1,100.0 703.9,98.3 705.7,96.6 707.4,97.3 709.2,95.6 711.0,93.9 712.7,92.2 714.5,90.4 716.3,94.4 718.1,92.7 719.8,91.0 721.6,89.2 723.4,87.5 725.1,89.6 726.9,87.9 728.7,86.2 730.5,84.5 732.2,82.7 734.0,82.7 735.8,80.9 737.5,79.1 739.3,77.4 741.1,75.6 742.9,80.0 744.6,78.2 746.4,76.4 748.2,74.6 749.9,72.9 751.7,73.0 753.5,71.2 755.3,69.4 757.0,67.5 758.8,65.7 760.6,66.1 762.3,64.2 764.1,62.4 765.9,60.6 767.7,58.7 769.4,63.3 771.2,61.5 773.0,59.6 774.7,57.7 776.5,55.8 778.3,57.8 780.1,55.9 781.8,54.0 783.6,52.1 785.4,50.2 787.1,49.8 788.9,47.9 790.7,45.9 792.5,44.0 794.2,42.0 796.0,45.2"/>
<text x="640" y="56" font-family="Arial" font-size="12" fill="#0f766e">position error</text>
<polyline fill="none" stroke="#2563eb" stroke-width="2.3" points="52.0,267.9 53.8,267.7 55.5,267.5 57.3,267.2 59.1,267.0 60.9,266.9 62.6,266.6 64.4,266.4 66.2,266.2 67.9,265.9 69.7,267.2 71.5,267.0 73.3,266.7 75.0,266.5 76.8,266.3 78.6,272.0 80.3,272.0 82.1,271.9 83.9,271.9 85.7,271.8 87.4,271.8 89.2,271.7 91.0,271.7 92.7,271.6 94.5,271.5 96.3,271.5 98.1,271.4 99.8,271.3 101.6,271.2 103.4,271.1 105.1,272.2 106.9,272.1 108.7,272.1 110.5,272.0 112.2,272.0 114.0,271.9 115.8,271.9 117.5,271.8 119.3,271.8 121.1,271.7 122.9,271.7 124.6,271.6 126.4,271.5 128.2,271.4 129.9,271.4 131.7,272.4 133.5,272.4 135.3,272.4 137.0,272.4 138.8,272.4 140.6,272.5 142.3,272.5 144.1,272.4 145.9,272.4 147.7,272.4 149.4,272.2 151.2,272.2 153.0,272.2 154.7,272.2 156.5,272.2 158.3,272.0 160.1,272.0 161.8,272.0 163.6,271.9 165.4,271.9 167.1,271.9 168.9,271.9 170.7,271.9 172.5,271.9 174.2,271.9 176.0,272.0 177.8,272.0 179.5,272.0 181.3,272.0 183.1,272.0 184.9,272.2 186.6,272.2 188.4,272.2 190.2,272.2 191.9,272.2 193.7,272.3 195.5,272.3 197.3,272.3 199.0,272.2 200.8,272.2 202.6,272.3 204.3,272.3 206.1,272.2 207.9,272.2 209.7,272.2 211.4,272.6 213.2,272.6 215.0,272.6 216.7,272.6 218.5,272.6 220.3,272.5 222.1,272.5 223.8,272.5 225.6,272.4 227.4,272.4 229.1,272.6 230.9,272.6 232.7,272.6 234.5,272.6 236.2,272.6 238.0,273.0 239.8,273.0 241.5,273.0 243.3,273.0 245.1,273.0 246.9,272.7 248.6,272.7 250.4,272.7 252.2,272.7 253.9,272.7 255.7,272.6 257.5,272.6 259.3,272.6 261.0,272.6 262.8,272.6 264.6,272.2 266.3,272.2 268.1,272.2 269.9,272.2 271.7,272.2 273.4,271.8 275.2,271.8 277.0,271.8 278.7,271.8 280.5,271.8 282.3,272.3 284.1,272.3 285.8,272.3 287.6,272.3 289.4,272.2 291.1,272.6 292.9,272.6 294.7,272.6 296.5,272.6 298.2,272.6 300.0,272.6 301.8,272.6 303.5,272.6 305.3,272.6 307.1,272.6 308.9,272.6 310.6,272.6 312.4,272.6 314.2,272.6 315.9,272.6 317.7,272.4 319.5,272.4 321.3,272.4 323.0,272.4 324.8,272.4 326.6,272.3 328.3,272.3 330.1,272.3 331.9,272.3 333.7,272.3 335.4,273.1 337.2,273.1 339.0,273.1 340.7,273.1 342.5,273.1 344.3,273.3 346.1,273.3 347.8,273.3 349.6,273.3 351.4,273.2 353.1,272.9 354.9,272.9 356.7,272.9 358.5,272.9 360.2,272.9 362.0,272.5 363.8,272.5 365.5,272.5 367.3,272.5 369.1,272.5 370.9,272.5 372.6,272.5 374.4,272.5 376.2,272.4 377.9,272.4 379.7,272.4 381.5,272.4 383.3,272.4 385.0,272.3 386.8,272.3 388.6,273.3 390.3,273.3 392.1,273.3 393.9,273.3 395.7,273.3 397.4,273.0 399.2,273.0 401.0,273.0 402.7,273.0 404.5,273.0 406.3,272.8 408.1,272.8 409.8,272.7 411.6,272.7 413.4,272.7 415.1,272.7 416.9,272.7 418.7,272.7 420.5,272.7 422.2,272.6 424.0,272.7 425.8,272.7 427.5,272.7 429.3,272.7 431.1,272.7 432.9,273.2 434.6,273.2 436.4,273.2 438.2,273.2 439.9,273.2 441.7,273.5 443.5,273.5 445.3,273.5 447.0,273.5 448.8,273.5 450.6,272.9 452.3,272.9 454.1,272.9 455.9,272.9 457.7,272.9 459.4,273.8 461.2,273.8 463.0,273.8 464.7,273.8 466.5,273.8 468.3,273.4 470.1,273.4 471.8,273.4 473.6,273.4 475.4,273.4 477.1,273.3 478.9,273.3 480.7,273.3 482.5,273.3 484.2,273.3 486.0,273.2 487.8,273.2 489.5,273.2 491.3,273.2 493.1,273.2 494.9,273.5 496.6,273.5 498.4,273.5 500.2,273.5 501.9,273.5 503.7,273.0 505.5,273.0 507.3,273.0 509.0,273.0 510.8,273.0 512.6,273.4 514.3,273.4 516.1,273.4 517.9,273.4 519.7,273.4 521.4,273.4 523.2,273.4 525.0,273.4 526.7,273.4 528.5,273.4 530.3,273.1 532.1,273.1 533.8,273.1 535.6,273.1 537.4,273.1 539.1,273.3 540.9,273.3 542.7,273.3 544.5,273.3 546.2,273.3 548.0,273.1 549.8,273.1 551.5,273.1 553.3,273.1 555.1,273.1 556.9,272.9 558.6,272.9 560.4,272.9 562.2,272.9 563.9,272.9 565.7,273.2 567.5,273.2 569.3,273.2 571.0,273.1 572.8,273.1 574.6,272.8 576.3,272.8 578.1,272.8 579.9,272.8 581.7,272.8 583.4,272.5 585.2,272.5 587.0,272.5 588.7,272.5 590.5,272.5 592.3,273.7 594.1,273.7 595.8,273.7 597.6,273.7 599.4,273.7 601.1,273.6 602.9,273.6 604.7,273.5 606.5,273.5 608.2,273.5 610.0,273.3 611.8,273.3 613.5,273.3 615.3,273.3 617.1,273.3 618.9,274.0 620.6,274.0 622.4,274.0 624.2,274.0 625.9,274.0 627.7,273.7 629.5,273.7 631.3,273.7 633.0,273.7 634.8,273.7 636.6,273.6 638.3,273.6 640.1,273.6 641.9,273.6 643.7,273.6 645.4,273.1 647.2,273.1 649.0,273.1 650.7,273.1 652.5,273.1 654.3,273.2 656.1,273.2 657.8,273.2 659.6,273.2 661.4,273.2 663.1,272.7 664.9,272.7 666.7,272.7 668.5,272.7 670.2,272.7 672.0,273.8 673.8,273.8 675.5,273.8 677.3,273.8 679.1,273.8 680.9,273.7 682.6,273.7 684.4,273.7 686.2,273.7 687.9,273.7 689.7,273.6 691.5,273.7 693.3,273.7 695.0,273.7 696.8,273.7 698.6,274.0 700.3,274.0 702.1,274.0 703.9,274.0 705.7,274.0 707.4,274.0 709.2,274.0 711.0,274.0 712.7,274.0 714.5,274.0 716.3,273.1 718.1,273.1 719.8,273.1 721.6,273.1 723.4,273.1 725.1,273.9 726.9,273.9 728.7,273.9 730.5,273.9 732.2,273.9 734.0,273.6 735.8,273.6 737.5,273.6 739.3,273.6 741.1,273.6 742.9,273.7 744.6,273.7 746.4,273.7 748.2,273.7 749.9,273.7 751.7,273.6 753.5,273.6 755.3,273.6 757.0,273.6 758.8,273.6 760.6,274.0 762.3,274.0 764.1,274.0 765.9,274.0 767.7,274.0 769.4,273.1 771.2,273.1 773.0,273.1 774.7,273.1 776.5,273.1 778.3,273.9 780.1,273.9 781.8,273.9 783.6,273.9 785.4,273.9 787.1,273.8 788.9,273.8 790.7,273.8 792.5,273.8 794.2,273.8 796.0,272.8"/>
<text x="640" y="72" font-family="Arial" font-size="12" fill="#2563eb">sqrt trace Ppos</text>
</svg>