<svg xmlns="http://www.w3.org/2000/svg" width="820" height="320" viewBox="0 0 820 320">
<rect width="100%" height="100%" fill="white"/>
<text x="52" y="30" font-family="Arial" font-size="18" font-weight="700">adaptive_nominal covariance bounds</text>
<line x1="52" y1="274" x2="796" y2="274" stroke="#263238"/>
<line x1="52" y1="42" x2="52" y2="274" stroke="#263238"/>
<text x="52" y="306" font-family="Arial" font-size="12">time (s)</text>
<text x="630" y="306" font-family="Arial" font-size="12">m</text>

<rect x="370.9" y="42" width="79.7" height="232" fill="#fef3c7" opacity="0.72"/>
<polyline fill="none" stroke="#0f766e" stroke-width="2.3" points="52.0,254.4 53.8,252.8 55.5,251.2 57.3,249.5 59.1,247.7 60.9,219.5 62.6,207.5 64.4,195.3 66.2,183.1 67.9,170.8 69.7,217.1 71.5,211.6 73.3,206.1 75.0,200.6 76.8,195.1 78.6,270.6 80.3,270.9 82.1,271.0 83.9,271.0 85.7,271.0 87.4,274.0 89.2,274.0 91.0,273.8 92.7,273.7 94.5,273.4 96.3,272.9 98.1,271.2 99.8,269.4 101.6,267.6 103.4,265.8 105.1,247.6 106.9,245.6 108.7,243.6 110.5,241.6 112.2,239.6 114.0,238.6 115.8,236.6 117.5,234.7 119.3,232.7 121.1,230.6 122.9,227.3 124.6,225.2 126.4,223.0 128.2,220.8 129.9,218.6 131.7,226.6 133.5,223.7 135.3,220.6 137.0,217.5 138.8,214.4 140.6,208.7 142.3,205.2 144.1,201.7 145.9,198.1 147.7,194.5 149.4,211.8 151.2,209.0 153.0,206.2 154.7,203.3 156.5,200.3 158.3,177.8 160.1,174.2 161.8,170.6 163.6,166.9 165.4,163.1 167.1,159.8 168.9,155.9 170.7,151.9 172.5,147.8 174.2,143.7 176.0,137.6 177.8,133.3 179.5,129.0 181.3,124.6 183.1,120.2 184.9,221.4 186.6,221.4 188.4,221.5 190.2,221.6 191.9,221.7 193.7,219.7 195.5,219.8 197.3,219.9 199.0,220.0 200.8,220.2 202.6,223.2 204.3,223.5 206.1,223.7 207.9,224.0 209.7,224.3 211.4,234.3 213.2,230.0 215.0,225.5 216.7,221.0 218.5,216.2 220.3,211.9 222.1,206.8 223.8,201.6 225.6,196.4 227.4,191.0 229.1,183.2 230.9,177.4 232.7,171.5 234.5,165.5 236.2,159.3 238.0,199.3 239.8,195.5 241.5,191.6 243.3,187.7 245.1,183.8 246.9,178.2 248.6,174.0 250.4,169.6 252.2,165.2 253.9,160.7 255.7,157.9 257.5,153.4 259.3,148.8 261.0,144.1 262.8,139.3 264.6,201.7 266.3,198.8 268.1,195.8 269.9,192.8 271.7,189.8 273.4,191.5 275.2,188.6 277.0,185.6 278.7,182.6 280.5,179.6 282.3,178.0 284.1,175.0 285.8,171.9 287.6,168.8 289.4,165.7 291.1,234.4 292.9,232.9 294.7,231.4 296.5,229.8 298.2,228.2 300.0,230.9 301.8,229.3 303.5,227.7 305.3,226.1 307.1,224.5 308.9,223.8 310.6,222.1 312.4,220.4 314.2,218.6 315.9,216.9 317.7,252.0 319.5,251.4 321.3,250.8 323.0,250.1 324.8,249.4 326.6,254.5 328.3,253.9 330.1,253.2 331.9,252.5 333.7,251.7 335.4,250.0 337.2,249.1 339.0,248.2 340.7,247.3 342.5,246.4 344.3,215.7 346.1,213.8 347.8,211.8 349.6,209.8 351.4,207.8 353.1,207.9 354.9,205.9 356.7,203.8 358.5,201.8 360.2,199.7 362.0,199.5 363.8,197.5 365.5,195.4 367.3,193.3 369.1,191.2 370.9,182.9 372.6,180.5 374.4,178.1 376.2,175.8 377.9,173.3 379.7,174.8 381.5,172.5 383.3,170.1 385.0,167.8 386.8,165.4 388.6,163.0 390.3,160.6 392.1,158.1 393.9,155.6 395.7,153.1 397.4,193.6 399.2,191.8 401.0,190.0 402.7,188.1 404.5,186.3 406.3,190.1 408.1,188.4 409.8,186.7 411.6,184.9 413.4,183.1 415.1,182.2 416.9,180.4 418.7,178.6 420.5,176.8 422.2,175.0 424.0,225.2 425.8,224.5 427.5,223.9 429.3,223.2 431.1,222.5 432.9,222.0 434.6,221.4 436.4,220.7 438.2,220.1 439.9,219.4 441.7,218.9 443.5,218.2 445.3,217.5 447.0,216.8 448.8,216.1 450.6,203.3 452.3,202.0 454.1,200.6 455.9,199.2 457.7,197.9 459.4,197.2 461.2,195.9 463.0,194.5 464.7,193.1 466.5,191.8 468.3,192.0 470.1,190.7 471.8,189.3 473.6,187.8 475.4,186.4 477.1,243.3 478.9,242.2 480.7,241.2 482.5,240.1 484.2,239.0 486.0,236.8 487.8,235.7 489.5,234.6 491.3,233.4 493.1,232.3 494.9,231.6 496.6,230.4 498.4,229.2 500.2,228.0 501.9,226.8 503.7,225.3 505.5,224.2 507.3,223.0 509.0,221.7 510.8,220.5 512.6,219.4 514.3,218.2 516.1,216.9 517.9,215.6 519.7,214.2 521.4,213.2 523.2,211.9 525.0,210.5 526.7,209.1 528.5,207.7 530.3,232.3 532.1,231.2 533.8,230.1 535.6,229.0 537.4,227.9 539.1,229.2 540.9,228.0 542.7,226.9 544.5,225.7 546.2,224.5 548.0,224.0 549.8,222.8 551.5,221.6 553.3,220.4 555.1,219.1 556.9,226.5 558.6,225.2 560.4,224.0 562.2,222.7 563.9,221.3 565.7,219.7 567.5,218.4 569.3,217.0 571.0,215.6 572.8,214.3 574.6,212.5 576.3,211.1 578.1,209.7 579.9,208.2 581.7,206.8 583.4,229.2 585.2,228.0 587.0,226.9 588.7,225.7 590.5,224.5 592.3,223.7 594.1,222.5 595.8,221.3 597.6,220.1 599.4,218.9 601.1,219.2 602.9,218.0 604.7,216.8 606.5,215.6 608.2,214.4 610.0,233.5 611.8,232.5 613.5,231.5 615.3,230.4 617.1,229.4 618.9,228.7 620.6,227.7 622.4,226.6 624.2,225.6 625.9,224.5 627.7,223.3 629.5,222.2 631.3,221.1 633.0,220.0 634.8,218.8 636.6,243.9 638.3,243.1 640.1,242.3 641.9,241.5 643.7,240.7 645.4,240.7 647.2,239.9 649.0,239.1 650.7,238.3 652.5,237.6 654.3,236.9 656.1,236.2 657.8,235.4 659.6,234.6 661.4,233.8 663.1,245.8 664.9,245.1 666.7,244.4 668.5,243.8 670.2,243.1 672.0,242.2 673.8,241.5 675.5,240.8 677.3,240.1 679.1,239.4 680.9,238.4 682.6,237.7 684.4,237.0 686.2,236.3 687.9,235.6 689.7,242.0 691.5,241.4 693.3,240.8 695.0,240.3 696.8,239.7 698.6,239.8 700.3,239.2 702.1,238.6 703.9,238.0 705.7,237.4 707.4,236.3 709.2,235.7 711.0,235.1 712.7,234.5 714.5,233.8 716.3,235.3 718.1,234.7 719.8,234.1 721.6,233.5 723.4,232.9 725.1,234.1 726.9,233.5 728.7,232.9 730.5,232.3 732.2,231.7 734.0,230.0 735.8,229.4 737.5,228.7 739.3,228.1 741.1,227.5 742.9,246.7 744.6,246.3 746.4,245.8 748.2,245.4 749.9,244.9 751.7,247.2 753.5,246.7 755.3,246.3 757.0,245.8 758.8,245.4 760.6,247.9 762.3,247.5 764.1,247.1 765.9,246.6 767.7,246.2 769.4,250.7 771.2,250.4 773.0,250.0 774.7,249.5 776.5,249.1 778.3,248.8 780.1,248.4 781.8,247.9 783.6,247.5 785.4,247.0 787.1,245.3 788.9,244.9 790.7,244.5 792.5,244.0 794.2,243.6 796.0,245.1"/>
<text x="640" y="56" font-family="Arial" font-size="12" fill="#0f766e">position error</text>
<polyline fill="none" stroke="#2563eb" stroke-width="2.3" points="52.0,219.6 53.8,216.6 55.5,208.3 57.3,196.1 59.1,181.4 60.9,180.7 62.6,165.6 64.4,149.8 66.2,133.3 67.9,116.4 69.7,108.1 71.5,91.8 73.3,75.3 75.0,58.7 76.8,42.0 78.6,213.8 80.3,208.7 82.1,203.4 83.9,198.0 85.7,192.3 87.4,193.2 89.2,187.8 91.0,182.2 92.7,176.5 94.5,170.8 96.3,169.0 98.1,163.3 99.8,157.5 101.6,151.6 103.4,145.6 105.1,219.3 106.9,216.4 108.7,213.3 110.5,210.1 112.2,206.7 114.0,207.1 115.8,203.7 117.5,200.2 119.3,196.5 121.1,192.8 122.9,191.8 124.6,188.0 126.4,184.0 128.2,179.9 129.9,175.7 131.7,228.3 133.5,225.9 135.3,223.3 137.0,220.6 138.8,217.6 140.6,218.4 142.3,215.3 144.1,212.2 145.9,208.8 147.7,205.3 149.4,204.6 151.2,201.0 153.0,197.2 154.7,193.3 156.5,189.2 158.3,233.0 160.1,230.6 161.8,228.0 163.6,225.2 165.4,222.3 167.1,222.4 168.9,219.3 170.7,216.2 172.5,212.8 174.2,209.4 176.0,208.3 177.8,204.7 179.5,201.0 181.3,197.2 183.1,193.2 184.9,233.6 186.6,231.2 188.4,228.7 190.2,226.1 191.9,223.4 193.7,223.1 195.5,220.3 197.3,217.4 199.0,214.3 200.8,211.2 202.6,210.1 204.3,206.8 206.1,203.5 207.9,200.0 209.7,196.5 211.4,234.2 213.2,232.1 215.0,229.9 216.7,227.6 218.5,225.2 220.3,224.9 222.1,222.4 223.8,219.9 225.6,217.3 227.4,214.6 229.1,213.6 230.9,210.8 232.7,208.0 234.5,205.1 236.2,202.2 238.0,235.4 239.8,233.6 241.5,231.7 243.3,229.7 245.1,227.7 246.9,227.3 248.6,225.2 250.4,223.1 252.2,220.9 253.9,218.7 255.7,217.8 257.5,215.5 259.3,213.1 261.0,210.7 262.8,208.3 264.6,235.7 266.3,234.1 268.1,232.4 269.9,230.7 271.7,228.9 273.4,228.4 275.2,226.6 277.0,224.7 278.7,222.9 280.5,220.9 282.3,220.1 284.1,218.1 285.8,216.1 287.6,214.0 289.4,211.9 291.1,234.8 292.9,233.4 294.7,231.8 296.5,230.3 298.2,228.7 300.0,228.0 301.8,226.4 303.5,224.7 305.3,223.0 307.1,221.3 308.9,220.4 310.6,218.6 312.4,216.8 314.2,215.0 315.9,213.1 317.7,230.6 319.5,229.2 321.3,227.7 323.0,226.2 324.8,224.7 326.6,224.1 328.3,222.6 330.1,221.0 331.9,219.4 333.7,217.8 335.4,217.0 337.2,215.4 339.0,213.7 340.7,212.0 342.5,210.2 344.3,229.8 346.1,228.5 347.8,227.1 349.6,225.8 351.4,224.4 353.1,224.0 354.9,222.6 356.7,221.2 358.5,219.7 360.2,218.3 362.0,217.7 363.8,216.2 365.5,214.7 367.3,213.2 369.1,211.6 370.9,229.3 372.6,228.0 374.4,226.7 376.2,225.5 377.9,224.2 379.7,223.8 381.5,222.5 383.3,221.1 385.0,219.7 386.8,218.4 388.6,217.8 390.3,216.4 392.1,215.0 393.9,213.5 395.7,212.1 397.4,230.2 399.2,229.0 401.0,227.9 402.7,226.7 404.5,225.5 406.3,225.3 408.1,224.1 409.8,222.8 411.6,221.6 413.4,220.3 415.1,219.9 416.9,218.6 418.7,217.3 420.5,216.0 422.2,214.7 424.0,231.8 425.8,230.8 427.5,229.7 429.3,228.6 431.1,227.6 432.9,227.3 434.6,226.2 436.4,225.1 438.2,224.0 439.9,222.9 441.7,222.5 443.5,221.3 445.3,220.1 447.0,218.9 448.8,217.7 450.6,233.4 452.3,232.5 454.1,231.6 455.9,230.6 457.7,229.7 459.4,229.5 461.2,228.6 463.0,227.6 464.7,226.6 466.5,225.6 468.3,225.3 470.1,224.3 471.8,223.3 473.6,222.2 475.4,221.2 477.1,236.1 478.9,235.2 480.7,234.4 482.5,233.5 484.2,232.7 486.0,232.6 487.8,231.7 489.5,230.8 491.3,229.9 493.1,229.0 494.9,228.7 496.6,227.8 498.4,226.9 500.2,225.9 501.9,224.9 503.7,237.6 505.5,236.8 507.3,236.0 509.0,235.2 510.8,234.4 512.6,234.3 514.3,233.5 516.1,232.6 517.9,231.8 519.7,230.9 521.4,230.7 523.2,229.8 525.0,229.0 526.7,228.1 528.5,227.2 530.3,238.4 532.1,237.7 533.8,236.9 535.6,236.1 537.4,235.4 539.1,235.2 540.9,234.5 542.7,233.7 544.5,232.9 546.2,232.0 548.0,231.8 549.8,231.0 551.5,230.2 553.3,229.3 555.1,228.5 556.9,238.8 558.6,238.0 560.4,237.3 562.2,236.6 563.9,235.8 565.7,235.7 567.5,234.9 569.3,234.2 571.0,233.4 572.8,232.6 574.6,232.4 576.3,231.6 578.1,230.8 579.9,230.0 581.7,229.2 583.4,238.8 585.2,238.1 587.0,237.4 588.7,236.6 590.5,235.9 592.3,235.8 594.1,235.1 595.8,234.3 597.6,233.6 599.4,232.8 601.1,232.6 602.9,231.8 604.7,231.1 606.5,230.3 608.2,229.5 610.0,236.0 611.8,235.3 613.5,234.6 615.3,233.9 617.1,233.1 618.9,232.8 620.6,232.1 622.4,231.3 624.2,230.5 625.9,229.7 627.7,229.4 629.5,228.6 631.3,227.8 633.0,227.0 634.8,226.2 636.6,231.4 638.3,230.7 640.1,229.9 641.9,229.1 643.7,228.4 645.4,227.9 647.2,227.1 649.0,226.3 650.7,225.5 652.5,224.7 654.3,224.2 656.1,223.4 657.8,222.6 659.6,221.8 661.4,220.9 663.1,226.4 664.9,225.6 666.7,224.8 668.5,224.0 670.2,223.2 672.0,222.9 673.8,222.1 675.5,221.3 677.3,220.4 679.1,219.6 680.9,219.3 682.6,218.4 684.4,217.6 686.2,216.7 687.9,215.9 689.7,224.2 691.5,223.4 693.3,222.7 695.0,221.9 696.8,221.1 698.6,221.0 700.3,220.2 702.1,219.4 703.9,218.6 705.7,217.8 707.4,217.6 709.2,216.8 711.0,216.0 712.7,215.2 714.5,214.3 716.3,225.1 718.1,224.3 719.8,223.6 721.6,222.9 723.4,222.1 725.1,222.2 726.9,221.4 728.7,220.7 730.5,219.9 732.2,219.2 734.0,219.1 735.8,218.4 737.5,217.6 739.3,216.8 741.1,216.0 742.9,228.1 744.6,227.4 746.4,226.8 748.2,226.1 749.9,225.4 751.7,225.5 753.5,224.8 755.3,224.2 757.0,223.5 758.8,222.8 760.6,222.7 762.3,222.0 764.1,221.3 765.9,220.6 767.7,219.9 769.4,232.4 771.2,231.8 773.0,231.2 774.7,230.5 776.5,229.9 778.3,230.0 780.1,229.4 781.8,228.8 783.6,228.1 785.4,227.5 787.1,227.4 788.9,226.8 790.7,226.1 792.5,225.5 794.2,224.8 796.0,235.5"/>
<text x="640" y="72" font-family="Arial" font-size="12" fill="#2563eb">sqrt trace Ppos</text>
</svg>