<svg xmlns="http://www.w3.org/2000/svg" width="820" height="320" viewBox="0 0 820 320">
<rect width="100%" height="100%" fill="white"/>
<text x="52" y="30" font-family="Arial" font-size="18" font-weight="700">linear_nominal covariance bounds</text>
<line x1="52" y1="274" x2="796" y2="274" stroke="#263238"/>
<line x1="52" y1="42" x2="52" y2="274" stroke="#263238"/>
<text x="52" y="306" font-family="Arial" font-size="12">time (s)</text>
<text x="630" y="306" font-family="Arial" font-size="12">m</text>

<rect x="370.9" y="42" width="79.7" height="232" fill="#fef3c7" opacity="0.72"/>
<polyline fill="none" stroke="#0f766e" stroke-width="2.3" points="52.0,213.1 53.8,210.2 55.5,207.3 57.3,204.3 59.1,201.4 60.9,203.1 62.6,201.5 64.4,199.9 66.2,198.2 67.9,196.4 69.7,192.7 71.5,190.8 73.3,188.8 75.0,186.8 76.8,184.8 78.6,226.7 80.3,226.1 82.1,225.3 83.9,224.2 85.7,223.0 87.4,223.3 89.2,222.1 91.0,220.6 92.7,218.9 94.5,216.9 96.3,214.0 98.1,211.4 99.8,208.6 101.6,205.4 103.4,202.0 105.1,202.8 106.9,200.7 108.7,198.5 110.5,196.3 112.2,194.0 114.0,192.8 115.8,190.4 117.5,188.0 119.3,185.5 121.1,183.0 122.9,179.9 124.6,177.2 126.4,174.5 128.2,171.6 129.9,168.7 131.7,194.7 133.5,193.1 135.3,191.3 137.0,189.3 138.8,187.2 140.6,183.2 142.3,180.7 144.1,178.1 145.9,175.3 147.7,172.3 149.4,188.5 151.2,186.0 153.0,183.4 154.7,180.6 156.5,177.6 158.3,229.2 160.1,229.2 161.8,229.1 163.6,229.0 165.4,228.7 167.1,233.0 168.9,232.5 170.7,231.9 172.5,231.2 174.2,230.2 176.0,223.4 177.8,222.2 179.5,220.8 181.3,219.3 183.1,217.7 184.9,259.3 186.6,260.9 188.4,262.2 190.2,263.1 191.9,263.7 193.7,260.3 195.5,260.1 197.3,259.5 199.0,258.6 200.8,257.2 202.6,262.7 204.3,260.2 206.1,257.2 207.9,254.1 209.7,250.6 211.4,253.4 213.2,253.3 215.0,253.1 216.7,253.0 218.5,252.8 220.3,263.6 222.1,263.5 223.8,263.3 225.6,263.1 227.4,262.8 229.1,274.0 230.9,272.8 232.7,271.5 234.5,270.0 236.2,268.5 238.0,229.9 239.8,229.7 241.5,229.5 243.3,229.3 245.1,229.0 246.9,228.0 248.6,227.4 250.4,226.7 252.2,225.9 253.9,225.1 255.7,225.9 257.5,225.2 259.3,224.4 261.0,223.6 262.8,222.8 264.6,239.6 266.3,238.6 268.1,237.5 269.9,236.3 271.7,235.2 273.4,237.7 275.2,236.8 277.0,235.9 278.7,234.9 280.5,234.0 282.3,235.1 284.1,234.3 285.8,233.6 287.6,232.8 289.4,232.0 291.1,258.7 292.9,258.7 294.7,258.8 296.5,258.8 298.2,258.9 300.0,262.0 301.8,262.0 303.5,261.8 305.3,261.7 307.1,261.5 308.9,261.3 310.6,261.1 312.4,260.9 314.2,260.7 315.9,260.4 317.7,233.6 319.5,233.3 321.3,233.0 323.0,232.7 324.8,232.3 326.6,231.6 328.3,231.0 330.1,230.4 331.9,229.8 333.7,229.2 335.4,224.9 337.2,223.9 339.0,222.9 340.7,221.9 342.5,220.9 344.3,241.6 346.1,240.6 347.8,239.5 349.6,238.4 351.4,237.2 353.1,239.6 354.9,238.4 356.7,237.2 358.5,235.9 360.2,234.5 362.0,237.0 363.8,235.7 365.5,234.3 367.3,232.9 369.1,231.4 370.9,242.6 372.6,241.3 374.4,240.0 376.2,238.6 377.9,237.2 379.7,256.7 381.5,255.7 383.3,254.7 385.0,253.6 386.8,252.5 388.6,252.9 390.3,251.7 392.1,250.5 393.9,249.2 395.7,247.8 397.4,232.8 399.2,231.1 401.0,229.3 402.7,227.6 404.5,225.7 406.3,249.4 408.1,248.0 409.8,246.6 411.6,245.1 413.4,243.5 415.1,248.3 416.9,246.8 418.7,245.2 420.5,243.6 422.2,242.0 424.0,251.3 425.8,249.8 427.5,248.3 429.3,246.7 431.1,245.1 432.9,239.3 434.6,237.5 436.4,235.8 438.2,234.0 439.9,232.2 441.7,231.7 443.5,229.9 445.3,228.1 447.0,226.2 448.8,224.3 450.6,218.6 452.3,216.6 454.1,214.6 455.9,212.5 457.7,210.5 459.4,211.2 461.2,209.2 463.0,207.2 464.7,205.2 466.5,203.2 468.3,207.3 470.1,205.3 471.8,203.3 473.6,201.2 475.4,199.1 477.1,239.6 478.9,239.4 480.7,239.3 482.5,239.1 484.2,238.9 486.0,235.6 487.8,235.2 489.5,234.9 491.3,234.6 493.1,234.2 494.9,237.2 496.6,236.9 498.4,236.6 500.2,236.2 501.9,235.9 503.7,150.8 505.5,149.7 507.3,148.6 509.0,147.6 510.8,146.5 512.6,148.8 514.3,147.8 516.1,146.9 517.9,145.9 519.7,145.0 521.4,144.0 523.2,143.0 525.0,142.2 526.7,141.3 528.5,140.4 530.3,202.1 532.1,201.9 533.8,201.8 535.6,201.6 537.4,201.4 539.1,201.9 540.9,201.7 542.7,201.5 544.5,201.3 546.2,201.2 548.0,199.1 549.8,198.9 551.5,198.6 553.3,198.4 555.1,198.1 556.9,178.9 558.6,178.3 560.4,177.7 562.2,177.1 563.9,176.5 565.7,176.0 567.5,175.4 569.3,174.9 571.0,174.3 572.8,173.7 574.6,171.9 576.3,171.2 578.1,170.6 579.9,169.9 581.7,169.3 583.4,144.0 585.2,142.9 587.0,141.9 588.7,140.9 590.5,139.8 592.3,138.8 594.1,137.8 595.8,136.7 597.6,135.5 599.4,134.5 601.1,133.8 602.9,132.7 604.7,131.6 606.5,130.5 608.2,129.4 610.0,128.4 611.8,127.2 613.5,126.1 615.3,125.0 617.1,123.9 618.9,122.6 620.6,121.4 622.4,120.3 624.2,119.1 625.9,117.9 627.7,116.9 629.5,115.7 631.3,114.5 633.0,113.3 634.8,112.1 636.6,166.1 638.3,165.5 640.1,164.9 641.9,164.3 643.7,163.6 645.4,162.9 647.2,162.3 649.0,161.6 650.7,160.9 652.5,160.2 654.3,159.6 656.1,158.9 657.8,158.2 659.6,157.5 661.4,156.9 663.1,196.8 664.9,196.2 666.7,195.6 668.5,195.0 670.2,194.4 672.0,191.5 673.8,190.8 675.5,190.1 677.3,189.4 679.1,188.7 680.9,187.5 682.6,186.8 684.4,186.0 686.2,185.3 687.9,184.6 689.7,214.2 691.5,214.2 693.3,214.2 695.0,214.1 696.8,214.1 698.6,216.4 700.3,216.4 702.1,216.4 703.9,216.4 705.7,216.4 707.4,216.5 709.2,216.5 711.0,216.5 712.7,216.4 714.5,216.3 716.3,185.2 718.1,184.3 719.8,183.4 721.6,182.4 723.4,181.5 725.1,183.6 726.9,182.7 728.7,181.8 730.5,181.0 732.2,180.1 734.0,178.3 735.8,177.4 737.5,176.5 739.3,175.7 741.1,174.8 742.9,209.2 744.6,208.3 746.4,207.4 748.2,206.4 749.9,205.5 751.7,208.0 753.5,207.2 755.3,206.4 757.0,205.6 758.8,204.7 760.6,208.2 762.3,207.4 764.1,206.7 765.9,205.9 767.7,205.1 769.4,204.2 771.2,203.5 773.0,202.9 774.7,202.2 776.5,201.6 778.3,201.4 780.1,200.8 781.8,200.1 783.6,199.3 785.4,198.6 787.1,196.5 788.9,195.8 790.7,195.0 792.5,194.3 794.2,193.5 796.0,213.7"/>
<text x="640" y="56" font-family="Arial" font-size="12" fill="#0f766e">position error</text>
<polyline fill="none" stroke="#2563eb" stroke-width="2.3" points="52.0,42.2 53.8,42.2 55.5,42.2 57.3,42.1 59.1,42.0 60.9,44.9 62.6,44.8 64.4,44.6 66.2,44.4 67.9,44.1 69.7,45.0 71.5,44.7 73.3,44.3 75.0,43.8 76.8,43.3 78.6,112.3 80.3,112.2 82.1,112.0 83.9,111.8 85.7,111.5 87.4,111.9 89.2,111.5 91.0,111.1 92.7,110.7 94.5,110.2 96.3,110.3 98.1,109.6 99.8,108.9 101.6,108.1 103.4,107.2 105.1,143.6 106.9,143.3 108.7,143.0 110.5,142.7 112.2,142.3 114.0,142.3 115.8,141.9 117.5,141.3 119.3,140.7 121.1,140.1 122.9,140.0 124.6,139.3 126.4,138.5 128.2,137.6 129.9,136.6 131.7,161.8 133.5,161.5 135.3,161.1 137.0,160.6 138.8,160.1 140.6,160.1 142.3,159.5 144.1,158.9 145.9,158.3 147.7,157.6 149.4,157.4 151.2,156.7 153.0,155.8 154.7,154.9 156.5,154.0 158.3,173.8 160.1,173.3 161.8,172.8 163.6,172.3 165.4,171.8 167.1,171.7 168.9,171.1 170.7,170.5 172.5,169.8 174.2,169.0 176.0,168.9 177.8,168.1 179.5,167.2 181.3,166.4 183.1,165.4 184.9,182.1 186.6,181.6 188.4,181.1 190.2,180.5 191.9,179.9 193.7,179.8 195.5,179.2 197.3,178.5 199.0,177.8 200.8,177.0 202.6,176.9 204.3,176.1 206.1,175.2 207.9,174.3 209.7,173.4 211.4,188.1 213.2,187.6 215.0,187.0 216.7,186.4 218.5,185.8 220.3,185.7 222.1,185.0 223.8,184.3 225.6,183.6 227.4,182.9 229.1,182.7 230.9,181.9 232.7,181.0 234.5,180.2 236.2,179.3 238.0,192.6 239.8,192.1 241.5,191.5 243.3,190.9 245.1,190.2 246.9,190.1 248.6,189.4 250.4,188.7 252.2,188.0 253.9,187.2 255.7,187.0 257.5,186.2 259.3,185.4 261.0,184.5 262.8,183.6 264.6,196.1 266.3,195.5 268.1,194.9 269.9,194.2 271.7,193.6 273.4,193.4 275.2,192.8 277.0,192.0 278.7,191.3 280.5,190.5 282.3,190.3 284.1,189.5 285.8,188.7 287.6,187.9 289.4,187.0 291.1,198.7 292.9,198.1 294.7,197.5 296.5,196.8 298.2,196.2 300.0,196.0 301.8,195.3 303.5,194.6 305.3,193.9 307.1,193.1 308.9,192.9 310.6,192.1 312.4,191.3 314.2,190.5 315.9,189.6 317.7,200.7 319.5,200.1 321.3,199.5 323.0,198.9 324.8,198.2 326.6,198.0 328.3,197.3 330.1,196.6 331.9,195.9 333.7,195.1 335.4,194.9 337.2,194.1 339.0,193.3 340.7,192.5 342.5,191.6 344.3,202.3 346.1,201.7 347.8,201.1 349.6,200.4 351.4,199.8 353.1,199.6 354.9,198.9 356.7,198.2 358.5,197.5 360.2,196.7 362.0,196.5 363.8,195.7 365.5,194.9 367.3,194.1 369.1,193.3 370.9,192.9 372.6,191.9 374.4,191.0 376.2,190.0 377.9,189.0 379.7,188.5 381.5,187.5 383.3,186.4 385.0,185.4 386.8,184.3 388.6,183.7 390.3,182.6 392.1,181.5 393.9,180.3 395.7,179.1 397.4,178.5 399.2,177.3 401.0,176.0 402.7,174.8 404.5,173.5 406.3,172.7 408.1,171.4 409.8,170.1 411.6,168.7 413.4,167.3 415.1,166.5 416.9,165.1 418.7,163.6 420.5,162.2 422.2,160.7 424.0,159.7 425.8,158.2 427.5,156.7 429.3,155.2 431.1,153.6 432.9,152.5 434.6,150.9 436.4,149.3 438.2,147.6 439.9,145.9 441.7,144.7 443.5,143.0 445.3,141.3 447.0,139.5 448.8,137.8 450.6,136.4 452.3,134.7 454.1,133.0 455.9,131.3 457.7,129.6 459.4,128.3 461.2,126.5 463.0,124.7 464.7,122.9 466.5,121.1 468.3,119.6 470.1,117.8 471.8,115.9 473.6,114.0 475.4,112.1 477.1,167.0 478.9,166.0 480.7,164.9 482.5,163.9 484.2,162.8 486.0,162.1 487.8,161.0 489.5,159.9 491.3,158.7 493.1,157.6 494.9,156.8 496.6,155.6 498.4,154.4 500.2,153.2 501.9,152.0 503.7,179.0 505.5,178.2 507.3,177.4 509.0,176.6 510.8,175.7 512.6,175.2 514.3,174.4 516.1,173.5 517.9,172.6 519.7,171.7 521.4,171.1 523.2,170.2 525.0,169.3 526.7,168.3 528.5,167.4 530.3,186.1 532.1,185.4 533.8,184.7 535.6,184.0 537.4,183.3 539.1,182.9 540.9,182.1 542.7,181.4 544.5,180.6 546.2,179.8 548.0,179.4 549.8,178.6 551.5,177.8 553.3,176.9 555.1,176.1 556.9,191.0 558.6,190.4 560.4,189.7 562.2,189.1 563.9,188.4 565.7,188.1 567.5,187.4 569.3,186.7 571.0,186.0 572.8,185.3 574.6,184.9 576.3,184.2 578.1,183.5 579.9,182.7 581.7,181.9 583.4,194.7 585.2,194.1 587.0,193.5 588.7,192.8 590.5,192.2 592.3,191.9 594.1,191.3 595.8,190.7 597.6,190.0 599.4,189.3 601.1,189.0 602.9,188.3 604.7,187.6 606.5,186.9 608.2,186.2 610.0,185.8 611.8,185.1 613.5,184.3 615.3,183.6 617.1,182.8 618.9,182.4 620.6,181.6 622.4,180.8 624.2,180.0 625.9,179.2 627.7,178.7 629.5,177.9 631.3,177.0 633.0,176.2 634.8,175.3 636.6,190.8 638.3,190.1 640.1,189.5 641.9,188.8 643.7,188.1 645.4,187.8 647.2,187.1 649.0,186.3 650.7,185.6 652.5,184.9 654.3,184.5 656.1,183.8 657.8,183.0 659.6,182.2 661.4,181.5 663.1,194.5 664.9,193.9 666.7,193.2 668.5,192.6 670.2,192.0 672.0,191.7 673.8,191.0 675.5,190.4 677.3,189.7 679.1,189.0 680.9,188.7 682.6,188.0 684.4,187.3 686.2,186.6 687.9,185.8 689.7,197.3 691.5,196.8 693.3,196.2 695.0,195.6 696.8,195.0 698.6,194.7 700.3,194.1 702.1,193.5 703.9,192.8 705.7,192.2 707.4,191.9 709.2,191.2 711.0,190.5 712.7,189.8 714.5,189.1 716.3,199.6 718.1,199.0 719.8,198.5 721.6,197.9 723.4,197.3 725.1,197.1 726.9,196.5 728.7,195.9 730.5,195.2 732.2,194.6 734.0,194.3 735.8,193.7 737.5,193.0 739.3,192.4 741.1,191.7 742.9,201.4 744.6,200.9 746.4,200.3 748.2,199.8 749.9,199.2 751.7,199.0 753.5,198.4 755.3,197.8 757.0,197.2 758.8,196.6 760.6,196.3 762.3,195.7 764.1,195.0 765.9,194.4 767.7,193.7 769.4,202.9 771.2,202.4 773.0,201.9 774.7,201.3 776.5,200.7 778.3,200.5 780.1,199.9 781.8,199.3 783.6,198.7 785.4,198.1 787.1,197.9 788.9,197.3 790.7,196.6 792.5,196.0 794.2,195.3 796.0,204.2"/>
<text x="640" y="72" font-family="Arial" font-size="12" fill="#2563eb">sqrt trace Ppos</text>
</svg>