<svg xmlns="http://www.w3.org/2000/svg" width="820" height="320" viewBox="0 0 820 320">
<rect width="100%" height="100%" fill="white"/>
<text x="52" y="30" font-family="Arial" font-size="18" font-weight="700">robust_nominal covariance bounds</text>
<line x1="52" y1="274" x2="796" y2="274" stroke="#263238"/>
<line x1="52" y1="42" x2="52" y2="274" stroke="#263238"/>
<text x="52" y="306" font-family="Arial" font-size="12">time (s)</text>
<text x="630" y="306" font-family="Arial" font-size="12">m</text>

<rect x="370.9" y="42" width="79.7" height="232" fill="#fef3c7" opacity="0.72"/>
<polyline fill="none" stroke="#0f766e" stroke-width="2.3" points="52.0,182.6 53.8,180.7 55.5,178.7 57.3,176.7 59.1,174.7 60.9,170.8 62.6,166.3 64.4,161.4 66.2,156.2 67.9,150.6 69.7,160.3 71.5,156.9 73.3,153.5 75.0,149.9 76.8,146.3 78.6,258.5 80.3,262.2 82.1,265.2 83.9,267.0 85.7,267.0 87.4,266.5 89.2,263.4 91.0,259.7 92.7,255.7 94.5,251.6 96.3,248.0 98.1,243.6 99.8,239.1 101.6,234.6 103.4,230.1 105.1,237.5 106.9,234.1 108.7,230.7 110.5,227.2 112.2,223.7 114.0,220.4 115.8,216.9 117.5,213.4 119.3,209.8 121.1,206.3 122.9,201.6 124.6,197.9 126.4,194.3 128.2,190.6 129.9,186.9 131.7,235.2 133.5,233.6 135.3,231.8 137.0,230.0 138.8,228.2 140.6,222.3 142.3,220.1 144.1,217.7 145.9,215.4 147.7,212.9 149.4,228.1 151.2,226.5 153.0,224.9 154.7,223.2 156.5,221.4 158.3,198.2 160.1,195.1 161.8,192.0 163.6,188.8 165.4,185.4 167.1,185.2 168.9,181.7 170.7,178.1 172.5,174.4 174.2,170.6 176.0,163.7 177.8,159.7 179.5,155.5 181.3,151.3 183.1,147.0 184.9,216.4 186.6,214.9 188.4,213.3 190.2,211.6 191.9,209.9 193.7,206.6 195.5,204.7 197.3,202.8 199.0,200.9 200.8,198.9 202.6,199.5 204.3,197.4 206.1,195.2 207.9,192.9 209.7,190.6 211.4,266.4 213.2,267.3 215.0,268.1 216.7,268.8 218.5,269.3 220.3,274.0 222.1,272.5 223.8,270.9 225.6,269.2 227.4,267.5 229.1,252.5 230.9,250.3 232.7,248.0 234.5,245.7 236.2,243.3 238.0,181.5 239.8,178.3 241.5,175.0 243.3,171.7 245.1,168.3 246.9,162.5 248.6,158.9 250.4,155.2 252.2,151.5 253.9,147.7 255.7,148.9 257.5,145.2 259.3,141.5 261.0,137.8 262.8,134.0 264.6,196.3 266.3,194.2 268.1,192.0 269.9,189.8 271.7,187.6 273.4,192.3 275.2,190.3 277.0,188.3 278.7,186.3 280.5,184.3 282.3,186.1 284.1,184.2 285.8,182.3 287.6,180.4 289.4,178.5 291.1,247.8 292.9,247.2 294.7,246.6 296.5,245.9 298.2,245.2 300.0,243.8 301.8,243.0 303.5,242.1 305.3,241.3 307.1,240.4 308.9,240.6 310.6,239.7 312.4,238.7 314.2,237.7 315.9,236.7 317.7,262.5 319.5,262.4 321.3,262.3 323.0,262.1 324.8,261.8 326.6,255.0 328.3,254.4 330.1,253.8 331.9,253.1 333.7,252.4 335.4,244.7 337.2,243.8 339.0,242.8 340.7,241.8 342.5,240.8 344.3,204.5 346.1,202.4 347.8,200.2 349.6,198.0 351.4,195.8 353.1,197.5 354.9,195.3 356.7,193.0 358.5,190.7 360.2,188.4 362.0,188.7 363.8,186.5 365.5,184.1 367.3,181.8 369.1,179.4 370.9,171.5 372.6,168.9 374.4,166.2 376.2,163.5 377.9,160.8 379.7,160.4 381.5,157.7 383.3,154.9 385.0,152.1 386.8,149.3 388.6,146.6 390.3,143.8 392.1,140.8 393.9,137.9 395.7,134.9 397.4,181.5 399.2,179.5 401.0,177.5 402.7,175.5 404.5,173.4 406.3,174.5 408.1,172.5 409.8,170.5 411.6,168.4 413.4,166.4 415.1,166.2 416.9,164.1 418.7,162.0 420.5,159.9 422.2,157.8 424.0,198.3 425.8,197.1 427.5,195.9 429.3,194.6 431.1,193.4 432.9,189.2 434.6,187.9 436.4,186.6 438.2,185.3 439.9,184.0 441.7,184.1 443.5,182.7 445.3,181.4 447.0,180.0 448.8,178.7 450.6,156.9 452.3,154.9 454.1,152.8 455.9,150.8 457.7,148.8 459.4,148.0 461.2,146.0 463.0,143.9 464.7,141.8 466.5,139.7 468.3,139.1 470.1,137.0 471.8,134.8 473.6,132.6 475.4,130.4 477.1,198.4 478.9,197.2 480.7,196.0 482.5,194.7 484.2,193.4 486.0,192.0 487.8,190.7 489.5,189.3 491.3,188.0 493.1,186.6 494.9,185.3 496.6,184.0 498.4,182.5 500.2,181.1 501.9,179.7 503.7,200.8 505.5,199.5 507.3,198.3 509.0,197.0 510.8,195.7 512.6,194.8 514.3,193.5 516.1,192.2 517.9,190.8 519.7,189.5 521.4,188.1 523.2,186.7 525.0,185.3 526.7,183.8 528.5,182.3 530.3,210.9 532.1,209.9 533.8,208.9 535.6,207.8 537.4,206.8 539.1,206.3 540.9,205.2 542.7,204.0 544.5,202.9 546.2,201.7 548.0,199.6 549.8,198.3 551.5,197.0 553.3,195.8 555.1,194.5 556.9,215.8 558.6,214.6 560.4,213.3 562.2,212.0 563.9,210.6 565.7,210.4 567.5,209.0 569.3,207.7 571.0,206.3 572.8,205.0 574.6,202.8 576.3,201.3 578.1,199.9 579.9,198.4 581.7,196.9 583.4,221.2 585.2,220.1 587.0,218.9 588.7,217.7 590.5,216.5 592.3,215.9 594.1,214.7 595.8,213.4 597.6,212.2 599.4,210.9 601.1,211.4 602.9,210.2 604.7,209.0 606.5,207.7 608.2,206.5 610.0,220.5 611.8,219.4 613.5,218.2 615.3,217.1 617.1,215.9 618.9,216.0 620.6,214.9 622.4,213.7 624.2,212.5 625.9,211.3 627.7,209.9 629.5,208.7 631.3,207.4 633.0,206.2 634.8,204.9 636.6,244.4 638.3,243.6 640.1,242.9 641.9,242.1 643.7,241.4 645.4,243.7 647.2,242.9 649.0,242.2 650.7,241.5 652.5,240.8 654.3,240.4 656.1,239.7 657.8,239.0 659.6,238.3 661.4,237.5 663.1,256.1 664.9,255.5 666.7,254.9 668.5,254.3 670.2,253.7 672.0,253.2 673.8,252.6 675.5,252.0 677.3,251.3 679.1,250.7 680.9,249.3 682.6,248.7 684.4,248.0 686.2,247.4 687.9,246.7 689.7,248.9 691.5,248.4 693.3,247.9 695.0,247.4 696.8,246.8 698.6,247.9 700.3,247.4 702.1,246.9 703.9,246.4 705.7,245.8 707.4,244.8 709.2,244.3 711.0,243.7 712.7,243.1 714.5,242.5 716.3,240.0 718.1,239.4 719.8,238.8 721.6,238.2 723.4,237.6 725.1,239.9 726.9,239.3 728.7,238.8 730.5,238.2 732.2,237.6 734.0,235.7 735.8,235.1 737.5,234.5 739.3,233.9 741.1,233.3 742.9,243.9 744.6,243.4 746.4,243.0 748.2,242.5 749.9,242.0 751.7,244.5 753.5,244.0 755.3,243.5 757.0,243.1 758.8,242.6 760.6,245.7 762.3,245.2 764.1,244.8 765.9,244.3 767.7,243.9 769.4,254.5 771.2,254.2 773.0,254.0 774.7,253.7 776.5,253.4 778.3,253.8 780.1,253.5 781.8,253.2 783.6,252.9 785.4,252.6 787.1,250.2 788.9,250.0 790.7,249.7 792.5,249.4 794.2,249.2 796.0,246.4"/>
<text x="640" y="56" font-family="Arial" font-size="12" fill="#0f766e">position error</text>
<polyline fill="none" stroke="#2563eb" stroke-width="2.3" points="52.0,192.8 53.8,190.7 55.5,184.7 57.3,175.4 59.1,163.8 60.9,159.2 62.6,146.1 64.4,132.0 66.2,117.1 67.9,101.7 69.7,101.0 71.5,86.6 73.3,72.0 75.0,57.1 76.8,42.0 78.6,215.0 80.3,210.8 82.1,206.2 83.9,201.2 85.7,196.0 87.4,196.4 89.2,191.1 91.0,185.7 92.7,180.1 94.5,174.4 96.3,171.8 98.1,166.0 99.8,160.1 101.6,154.1 103.4,148.0 105.1,221.8 106.9,219.1 108.7,216.2 110.5,213.2 112.2,210.1 114.0,210.0 115.8,206.8 117.5,203.4 119.3,199.9 121.1,196.3 122.9,195.1 124.6,191.4 126.4,187.5 128.2,183.6 129.9,179.5 131.7,222.1 133.5,219.6 135.3,217.0 137.0,214.3 138.8,211.4 140.6,211.2 142.3,208.2 144.1,205.1 145.9,201.8 147.7,198.4 149.4,196.2 151.2,192.6 153.0,188.9 154.7,185.1 156.5,181.1 158.3,218.9 160.1,216.4 161.8,213.7 163.6,210.9 165.4,208.0 167.1,208.0 168.9,205.0 170.7,201.9 172.5,198.7 174.2,195.3 176.0,194.1 177.8,190.6 179.5,187.0 181.3,183.3 183.1,179.5 184.9,222.5 186.6,220.2 188.4,217.9 190.2,215.4 191.9,212.8 193.7,212.4 195.5,209.7 197.3,206.9 199.0,204.0 200.8,201.0 202.6,199.7 204.3,196.6 206.1,193.4 207.9,190.1 209.7,186.7 211.4,218.2 213.2,216.0 215.0,213.6 216.7,211.2 218.5,208.7 220.3,207.8 222.1,205.2 223.8,202.5 225.6,199.8 227.4,196.9 229.1,195.4 230.9,192.5 232.7,189.5 234.5,186.4 236.2,183.3 238.0,224.8 239.8,223.0 241.5,221.1 243.3,219.1 245.1,217.1 246.9,217.3 248.6,215.2 250.4,213.1 252.2,210.9 253.9,208.7 255.7,208.1 257.5,205.8 259.3,203.4 261.0,201.0 262.8,198.6 264.6,227.7 266.3,226.1 268.1,224.5 269.9,222.8 271.7,221.1 273.4,220.4 275.2,218.7 277.0,216.8 278.7,214.9 280.5,213.0 282.3,212.4 284.1,210.4 285.8,208.4 287.6,206.4 289.4,204.3 291.1,225.9 292.9,224.4 294.7,222.9 296.5,221.3 298.2,219.7 300.0,219.8 301.8,218.2 303.5,216.5 305.3,214.8 307.1,213.1 308.9,212.6 310.6,210.8 312.4,209.0 314.2,207.1 315.9,205.3 317.7,228.9 319.5,227.6 321.3,226.3 323.0,224.9 324.8,223.6 326.6,223.3 328.3,221.9 330.1,220.4 331.9,219.0 333.7,217.5 335.4,216.9 337.2,215.4 339.0,213.8 340.7,212.2 342.5,210.6 344.3,231.2 346.1,230.0 347.8,228.9 349.6,227.7 351.4,226.5 353.1,226.4 354.9,225.2 356.7,223.9 358.5,222.7 360.2,221.4 362.0,221.0 363.8,219.7 365.5,218.3 367.3,217.0 369.1,215.6 370.9,232.2 372.6,231.2 374.4,230.1 376.2,229.0 377.9,227.9 379.7,227.3 381.5,226.1 383.3,225.0 385.0,223.8 386.8,222.5 388.6,222.2 390.3,221.0 392.1,219.7 393.9,218.4 395.7,217.1 397.4,232.5 399.2,231.5 401.0,230.5 402.7,229.5 404.5,228.4 406.3,227.8 408.1,226.7 409.8,225.6 411.6,224.5 413.4,223.4 415.1,223.2 416.9,222.1 418.7,220.9 420.5,219.7 422.2,218.5 424.0,229.4 425.8,228.4 427.5,227.4 429.3,226.4 431.1,225.4 432.9,225.4 434.6,224.4 436.4,223.3 438.2,222.2 439.9,221.1 441.7,220.9 443.5,219.8 445.3,218.7 447.0,217.5 448.8,216.4 450.6,233.0 452.3,232.2 454.1,231.4 455.9,230.5 457.7,229.7 459.4,229.6 461.2,228.7 463.0,227.8 464.7,226.9 466.5,226.0 468.3,225.4 470.1,224.5 471.8,223.6 473.6,222.6 475.4,221.6 477.1,231.7 478.9,230.9 480.7,230.1 482.5,229.2 484.2,228.4 486.0,228.2 487.8,227.4 489.5,226.5 491.3,225.6 493.1,224.8 494.9,224.5 496.6,223.6 498.4,222.7 500.2,221.7 501.9,220.8 503.7,236.8 505.5,236.1 507.3,235.4 509.0,234.7 510.8,234.0 512.6,233.5 514.3,232.8 516.1,232.1 517.9,231.3 519.7,230.6 521.4,230.5 523.2,229.7 525.0,228.9 526.7,228.1 528.5,227.3 530.3,237.5 532.1,236.8 533.8,236.2 535.6,235.5 537.4,234.8 539.1,234.8 540.9,234.1 542.7,233.4 544.5,232.7 546.2,232.0 548.0,231.7 549.8,231.0 551.5,230.3 553.3,229.5 555.1,228.8 556.9,238.1 558.6,237.5 560.4,236.8 562.2,236.2 563.9,235.5 565.7,235.4 567.5,234.7 569.3,234.0 571.0,233.3 572.8,232.7 574.6,232.2 576.3,231.5 578.1,230.8 579.9,230.1 581.7,229.4 583.4,239.0 585.2,238.4 587.0,237.8 588.7,237.1 590.5,236.5 592.3,236.6 594.1,236.0 595.8,235.3 597.6,234.7 599.4,234.0 601.1,233.8 602.9,233.2 604.7,232.5 606.5,231.8 608.2,231.1 610.0,237.4 611.8,236.8 613.5,236.2 615.3,235.5 617.1,234.9 618.9,234.9 620.6,234.3 622.4,233.6 624.2,233.0 625.9,232.3 627.7,232.2 629.5,231.6 631.3,230.9 633.0,230.2 634.8,229.5 636.6,237.5 638.3,237.0 640.1,236.4 641.9,235.8 643.7,235.2 645.4,235.0 647.2,234.4 649.0,233.8 650.7,233.2 652.5,232.5 654.3,232.4 656.1,231.8 657.8,231.1 659.6,230.5 661.4,229.8 663.1,238.0 664.9,237.4 666.7,236.9 668.5,236.3 670.2,235.7 672.0,235.5 673.8,234.9 675.5,234.3 677.3,233.7 679.1,233.1 680.9,233.0 682.6,232.4 684.4,231.7 686.2,231.1 687.9,230.5 689.7,238.0 691.5,237.4 693.3,236.9 695.0,236.3 696.8,235.8 698.6,235.7 700.3,235.1 702.1,234.6 703.9,234.0 705.7,233.4 707.4,233.2 709.2,232.7 711.0,232.1 712.7,231.4 714.5,230.8 716.3,237.8 718.1,237.3 719.8,236.8 721.6,236.2 723.4,235.7 725.1,235.6 726.9,235.0 728.7,234.5 730.5,233.9 732.2,233.3 734.0,233.2 735.8,232.6 737.5,232.0 739.3,231.4 741.1,230.8 742.9,237.5 744.6,237.0 746.4,236.5 748.2,235.9 749.9,235.4 751.7,235.3 753.5,234.7 755.3,234.2 757.0,233.6 758.8,233.0 760.6,232.9 762.3,232.3 764.1,231.7 765.9,231.1 767.7,230.5 769.4,237.1 771.2,236.6 773.0,236.1 774.7,235.5 776.5,235.0 778.3,234.9 780.1,234.3 781.8,233.8 783.6,233.2 785.4,232.7 787.1,232.5 788.9,231.9 790.7,231.4 792.5,230.8 794.2,230.2 796.0,236.6"/>
<text x="640" y="72" font-family="Arial" font-size="12" fill="#2563eb">sqrt trace Ppos</text>
</svg>