<svg xmlns="http://www.w3.org/2000/svg" width="820" height="320" viewBox="0 0 820 320">
<rect width="100%" height="100%" fill="white"/>
<text x="52" y="30" font-family="Arial" font-size="18" font-weight="700">abg_nominal covariance bounds</text>
<line x1="52" y1="274" x2="796" y2="274" stroke="#263238"/>
<line x1="52" y1="42" x2="52" y2="274" stroke="#263238"/>
<text x="52" y="306" font-family="Arial" font-size="12">time (s)</text>
<text x="630" y="306" font-family="Arial" font-size="12">m</text>

<rect x="370.9" y="42" width="79.7" height="232" fill="#fef3c7" opacity="0.72"/>
<polyline fill="none" stroke="#0f766e" stroke-width="2.3" points="52.0,274.0 53.8,273.5 55.5,272.9 57.3,272.3 59.1,271.8 60.9,271.2 62.6,270.7 64.4,270.1 66.2,269.6 67.9,269.0 69.7,268.5 71.5,267.9 73.3,267.3 75.0,266.8 76.8,266.2 78.6,265.7 80.3,265.2 82.1,264.6 83.9,264.0 85.7,263.5 87.4,263.0 89.2,262.4 91.0,261.8 92.7,261.3 94.5,260.7 96.3,260.2 98.1,259.6 99.8,259.1 101.6,258.5 103.4,258.0 105.1,257.4 106.9,256.9 108.7,256.3 110.5,255.8 112.2,255.2 114.0,254.7 115.8,254.1 117.5,253.6 119.3,253.0 121.1,252.5 122.9,251.9 124.6,251.4 126.4,250.8 128.2,250.3 129.9,249.7 131.7,249.2 133.5,248.6 135.3,248.0 137.0,247.5 138.8,246.9 140.6,246.4 142.3,245.8 144.1,245.3 145.9,244.7 147.7,244.2 149.4,243.6 151.2,243.1 153.0,242.5 154.7,242.0 156.5,241.4 158.3,240.9 160.1,240.3 161.8,239.8 163.6,239.2 165.4,238.7 167.1,238.1 168.9,237.5 170.7,237.0 172.5,236.4 174.2,235.9 176.0,235.3 177.8,234.8 179.5,234.2 181.3,233.7 183.1,233.1 184.9,232.6 186.6,232.0 188.4,231.5 190.2,230.9 191.9,230.4 193.7,229.8 195.5,229.3 197.3,228.7 199.0,228.2 200.8,227.6 202.6,227.1 204.3,226.5 206.1,225.9 207.9,225.4 209.7,224.8 211.4,224.3 213.2,223.7 215.0,223.2 216.7,222.6 218.5,222.1 220.3,221.5 222.1,221.0 223.8,220.4 225.6,219.9 227.4,219.3 229.1,218.8 230.9,218.2 232.7,217.7 234.5,217.1 236.2,216.6 238.0,216.0 239.8,215.4 241.5,214.9 243.3,214.3 245.1,213.8 246.9,213.2 248.6,212.7 250.4,212.1 252.2,211.6 253.9,211.0 255.7,210.5 257.5,209.9 259.3,209.4 261.0,208.8 262.8,208.3 264.6,207.7 266.3,207.2 268.1,206.6 269.9,206.1 271.7,205.5 273.4,205.0 275.2,204.4 277.0,203.8 278.7,203.3 280.5,202.7 282.3,202.2 284.1,201.6 285.8,201.1 287.6,200.5 289.4,200.0 291.1,199.4 292.9,198.9 294.7,198.3 296.5,197.8 298.2,197.2 300.0,196.7 301.8,196.1 303.5,195.6 305.3,195.0 307.1,194.5 308.9,193.9 310.6,193.3 312.4,192.8 314.2,192.2 315.9,191.7 317.7,191.1 319.5,190.6 321.3,190.0 323.0,189.5 324.8,188.9 326.6,188.4 328.3,187.8 330.1,187.3 331.9,186.7 333.7,186.2 335.4,185.6 337.2,185.1 339.0,184.5 340.7,184.0 342.5,183.4 344.3,182.9 346.1,182.3 347.8,181.7 349.6,181.2 351.4,180.6 353.1,180.1 354.9,179.5 356.7,179.0 358.5,178.4 360.2,177.9 362.0,177.3 363.8,176.8 365.5,176.2 367.3,175.7 369.1,175.1 370.9,174.6 372.6,174.0 374.4,173.5 376.2,172.9 377.9,172.4 379.7,171.8 381.5,171.2 383.3,170.7 385.0,170.1 386.8,169.6 388.6,169.0 390.3,168.5 392.1,167.9 393.9,167.4 395.7,166.8 397.4,166.3 399.2,165.7 401.0,165.2 402.7,164.6 404.5,164.1 406.3,163.5 408.1,163.0 409.8,162.4 411.6,161.9 413.4,161.3 415.1,160.8 416.9,160.2 418.7,159.6 420.5,159.1 422.2,158.5 424.0,158.0 425.8,157.4 427.5,156.9 429.3,156.3 431.1,155.8 432.9,155.2 434.6,154.7 436.4,154.1 438.2,153.6 439.9,153.0 441.7,152.5 443.5,151.9 445.3,151.4 447.0,150.8 448.8,150.3 450.6,149.7 452.3,149.2 454.1,148.6 455.9,148.0 457.7,147.5 459.4,146.9 461.2,146.4 463.0,145.8 464.7,145.3 466.5,144.7 468.3,144.2 470.1,143.6 471.8,143.1 473.6,142.5 475.4,142.0 477.1,141.4 478.9,140.9 480.7,140.3 482.5,139.8 484.2,139.2 486.0,138.7 487.8,138.1 489.5,137.6 491.3,137.0 493.1,136.4 494.9,135.9 496.6,135.3 498.4,134.8 500.2,134.2 501.9,133.7 503.7,133.1 505.5,132.6 507.3,132.0 509.0,131.5 510.8,130.9 512.6,130.4 514.3,129.8 516.1,129.3 517.9,128.7 519.7,128.2 521.4,127.6 523.2,127.1 525.0,126.5 526.7,125.9 528.5,125.4 530.3,124.8 532.1,124.3 533.8,123.7 535.6,123.2 537.4,122.6 539.1,122.1 540.9,121.5 542.7,121.0 544.5,120.4 546.2,119.9 548.0,119.3 549.8,118.8 551.5,118.2 553.3,117.7 555.1,117.1 556.9,116.6 558.6,116.0 560.4,115.5 562.2,114.9 563.9,114.4 565.7,113.8 567.5,113.2 569.3,112.7 571.0,112.1 572.8,111.6 574.6,111.0 576.3,110.5 578.1,109.9 579.9,109.4 581.7,108.8 583.4,108.3 585.2,107.7 587.0,107.2 588.7,106.6 590.5,106.1 592.3,105.5 594.1,105.0 595.8,104.4 597.6,103.9 599.4,103.3 601.1,102.8 602.9,102.2 604.7,101.6 606.5,101.1 608.2,100.5 610.0,100.0 611.8,99.4 613.5,98.9 615.3,98.3 617.1,97.8 618.9,97.2 620.6,96.7 622.4,96.1 624.2,95.6 625.9,95.0 627.7,94.5 629.5,93.9 631.3,93.4 633.0,92.8 634.8,92.3 636.6,91.7 638.3,91.2 640.1,90.6 641.9,90.0 643.7,89.5 645.4,88.9 647.2,88.4 649.0,87.8 650.7,87.3 652.5,86.7 654.3,86.2 656.1,85.6 657.8,85.1 659.6,84.5 661.4,84.0 663.1,83.4 664.9,82.9 666.7,82.3 668.5,81.8 670.2,81.2 672.0,80.7 673.8,80.1 675.5,79.6 677.3,79.0 679.1,78.5 680.9,77.9 682.6,77.3 684.4,76.8 686.2,76.2 687.9,75.7 689.7,75.1 691.5,74.6 693.3,74.0 695.0,73.5 696.8,72.9 698.6,72.4 700.3,71.8 702.1,71.3 703.9,70.7 705.7,70.2 707.4,69.6 709.2,69.1 711.0,68.5 712.7,68.0 714.5,67.4 716.3,66.9 718.1,66.3 719.8,65.7 721.6,65.2 723.4,64.6 725.1,64.1 726.9,63.5 728.7,63.0 730.5,62.4 732.2,61.9 734.0,61.3 735.8,60.8 737.5,60.2 739.3,59.7 741.1,59.1 742.9,58.6 744.6,58.0 746.4,57.5 748.2,56.9 749.9,56.4 751.7,55.8 753.5,55.3 755.3,54.7 757.0,54.1 758.8,53.6 760.6,53.0 762.3,52.5 764.1,51.9 765.9,51.4 767.7,50.8 769.4,50.3 771.2,49.7 773.0,49.2 774.7,48.6 776.5,48.1 778.3,47.5 780.1,47.0 781.8,46.4 783.6,45.9 785.4,45.3 787.1,44.8 788.9,44.2 790.7,43.7 792.5,43.1 794.2,42.6 796.0,42.0"/>
<text x="640" y="56" font-family="Arial" font-size="12" fill="#0f766e">position error</text>
<polyline fill="none" stroke="#2563eb" stroke-width="2.3" points="52.0,273.9 53.8,273.9 55.5,273.9 57.3,273.9 59.1,273.9 60.9,273.9 62.6,273.9 64.4,273.9 66.2,273.9 67.9,273.9 69.7,273.9 71.5,273.9 73.3,273.9 75.0,273.9 76.8,273.9 78.6,273.9 80.3,273.9 82.1,273.9 83.9,273.9 85.7,273.9 87.4,273.9 89.2,273.9 91.0,273.9 92.7,273.9 94.5,273.9 96.3,273.9 98.1,273.8 99.8,273.8 101.6,273.8 103.4,273.8 105.1,273.8 106.9,273.8 108.7,273.8 110.5,273.8 112.2,273.8 114.0,273.8 115.8,273.8 117.5,273.8 119.3,273.8 121.1,273.8 122.9,273.8 124.6,273.8 126.4,273.8 128.2,273.8 129.9,273.8 131.7,273.8 133.5,273.8 135.3,273.8 137.0,273.7 138.8,273.7 140.6,273.7 142.3,273.7 144.1,273.7 145.9,273.7 147.7,273.7 149.4,273.7 151.2,273.7 153.0,273.7 154.7,273.7 156.5,273.7 158.3,273.7 160.1,273.7 161.8,273.7 163.6,273.7 165.4,273.7 167.1,273.7 168.9,273.7 170.7,273.7 172.5,273.7 174.2,273.6 176.0,273.6 177.8,273.6 179.5,273.6 181.3,273.6 183.1,273.6 184.9,273.6 186.6,273.6 188.4,273.6 190.2,273.6 191.9,273.6 193.7,273.6 195.5,273.6 197.3,273.6 199.0,273.6 200.8,273.6 202.6,273.6 204.3,273.6 206.1,273.6 207.9,273.5 209.7,273.5 211.4,273.5 213.2,273.5 215.0,273.5 216.7,273.5 218.5,273.5 220.3,273.5 222.1,273.5 223.8,273.5 225.6,273.5 227.4,273.5 229.1,273.5 230.9,273.5 232.7,273.5 234.5,273.5 236.2,273.4 238.0,273.4 239.8,273.4 241.5,273.4 243.3,273.4 245.1,273.4 246.9,273.4 248.6,273.4 250.4,273.4 252.2,273.4 253.9,273.4 255.7,273.4 257.5,273.4 259.3,273.4 261.0,273.4 262.8,273.3 264.6,273.3 266.3,273.3 268.1,273.3 269.9,273.3 271.7,273.3 273.4,273.3 275.2,273.3 277.0,273.3 278.7,273.3 280.5,273.3 282.3,273.3 284.1,273.3 285.8,273.3 287.6,273.2 289.4,273.2 291.1,273.2 292.9,273.2 294.7,273.2 296.5,273.2 298.2,273.2 300.0,273.2 301.8,273.2 303.5,273.2 305.3,273.2 307.1,273.2 308.9,273.2 310.6,273.2 312.4,273.1 314.2,273.1 315.9,273.1 317.7,273.1 319.5,273.1 321.3,273.1 323.0,273.1 324.8,273.1 326.6,273.1 328.3,273.1 330.1,273.1 331.9,273.0 333.7,273.0 335.4,273.0 337.2,273.0 339.0,273.0 340.7,273.0 342.5,273.0 344.3,273.0 346.1,273.0 347.8,273.0 349.6,272.9 351.4,272.9 353.1,272.9 354.9,272.9 356.7,272.9 358.5,272.9 360.2,272.9 362.0,272.9 363.8,272.9 365.5,272.9 367.3,272.8 369.1,272.8 370.9,272.8 372.6,272.8 374.4,272.8 376.2,272.8 377.9,272.8 379.7,272.8 381.5,272.8 383.3,272.7 385.0,272.7 386.8,272.7 388.6,272.7 390.3,272.7 392.1,272.7 393.9,272.7 395.7,272.6 397.4,272.7 399.2,272.6 401.0,272.6 402.7,272.6 404.5,272.6 406.3,272.6 408.1,272.6 409.8,272.5 411.6,272.5 413.4,272.5 415.1,272.5 416.9,272.5 418.7,272.5 420.5,272.4 422.2,272.4 424.0,272.4 425.8,272.4 427.5,272.4 429.3,272.3 431.1,272.3 432.9,272.4 434.6,272.3 436.4,272.3 438.2,272.3 439.9,272.2 441.7,272.3 443.5,272.2 445.3,272.2 447.0,272.2 448.8,272.1 450.6,272.2 452.3,272.1 454.1,272.1 455.9,272.1 457.7,272.0 459.4,272.1 461.2,272.1 463.0,272.0 464.7,272.0 466.5,271.9 468.3,272.0 470.1,272.0 471.8,271.9 473.6,271.9 475.4,271.8 477.1,271.9 478.9,271.9 480.7,271.8 482.5,271.8 484.2,271.7 486.0,271.8 487.8,271.8 489.5,271.7 491.3,271.7 493.1,271.6 494.9,271.7 496.6,271.6 498.4,271.6 500.2,271.6 501.9,271.5 503.7,271.6 505.5,271.5 507.3,271.5 509.0,271.4 510.8,271.4 512.6,271.5 514.3,271.4 516.1,271.4 517.9,271.3 519.7,271.2 521.4,271.3 523.2,271.3 525.0,271.2 526.7,271.2 528.5,271.1 530.3,271.2 532.1,271.1 533.8,271.1 535.6,271.0 537.4,271.0 539.1,271.0 540.9,271.0 542.7,270.9 544.5,270.9 546.2,270.8 548.0,270.9 549.8,270.8 551.5,270.8 553.3,270.7 555.1,270.6 556.9,270.7 558.6,270.7 560.4,270.6 562.2,270.5 563.9,270.4 565.7,270.6 567.5,270.5 569.3,270.4 571.0,270.3 572.8,270.2 574.6,270.4 576.3,270.3 578.1,270.2 579.9,270.1 581.7,270.0 583.4,270.2 585.2,270.1 587.0,270.0 588.7,269.9 590.5,269.8 592.3,270.0 594.1,269.9 595.8,269.8 597.6,269.7 599.4,269.6 601.1,269.8 602.9,269.7 604.7,269.6 606.5,269.4 608.2,269.3 610.0,269.5 611.8,269.4 613.5,269.3 615.3,269.2 617.1,269.1 618.9,269.3 620.6,269.2 622.4,269.0 624.2,268.9 625.9,268.8 627.7,269.0 629.5,268.9 631.3,268.8 633.0,268.6 634.8,268.5 636.6,268.7 638.3,268.6 640.1,268.5 641.9,268.3 643.7,268.2 645.4,268.4 647.2,268.3 649.0,268.1 650.7,268.0 652.5,267.9 654.3,268.1 656.1,268.0 657.8,267.8 659.6,267.7 661.4,267.5 663.1,267.8 664.9,267.6 666.7,267.5 668.5,267.3 670.2,267.1 672.0,267.4 673.8,267.2 675.5,267.1 677.3,266.9 679.1,266.7 680.9,267.0 682.6,266.8 684.4,266.7 686.2,266.5 687.9,266.3 689.7,266.6 691.5,266.4 693.3,266.2 695.0,266.0 696.8,265.8 698.6,266.2 700.3,266.0 702.1,265.8 703.9,265.6 705.7,265.3 707.4,265.7 709.2,265.5 711.0,265.3 712.7,265.1 714.5,264.8 716.3,265.2 718.1,265.0 719.8,264.8 721.6,264.5 723.4,264.3 725.1,264.7 726.9,264.5 728.7,264.2 730.5,263.9 732.2,263.7 734.0,264.2 735.8,263.9 737.5,263.6 739.3,263.3 741.1,263.1 742.9,263.6 744.6,263.3 746.4,263.0 748.2,262.7 749.9,262.4 751.7,262.9 753.5,262.6 755.3,262.3 757.0,262.0 758.8,261.7 760.6,262.3 762.3,261.9 764.1,261.6 765.9,261.3 767.7,260.9 769.4,261.5 771.2,261.2 773.0,260.8 774.7,260.5 776.5,260.1 778.3,260.8 780.1,260.4 781.8,260.0 783.6,259.6 785.4,259.3 787.1,260.0 788.9,259.6 790.7,259.2 792.5,258.8 794.2,258.4 796.0,259.1"/>
<text x="640" y="72" font-family="Arial" font-size="12" fill="#2563eb">sqrt trace Ppos</text>
</svg>