<svg xmlns="http://www.w3.org/2000/svg" width="820" height="320" viewBox="0 0 820 320">
<rect width="100%" height="100%" fill="white"/>
<text x="52" y="30" font-family="Arial" font-size="18" font-weight="700">abg_nominal NEES proxy</text>
<line x1="52" y1="274" x2="796" y2="274" stroke="#263238"/>
<line x1="52" y1="42" x2="52" y2="274" stroke="#263238"/>
<text x="52" y="306" font-family="Arial" font-size="12">time (s)</text>
<text x="630" y="306" font-family="Arial" font-size="12">value</text>

<rect x="370.9" y="42" width="79.7" height="232" fill="#fef3c7" opacity="0.72"/>
<polyline fill="none" stroke="#0f766e" stroke-width="2.3" points="52.0,274.0 53.8,273.4 55.5,271.6 57.3,268.5 59.1,264.4 60.9,259.5 62.6,253.6 64.4,246.9 66.2,239.6 67.9,231.9 69.7,224.3 71.5,216.1 73.3,207.8 75.0,199.5 76.8,191.2 78.6,183.6 80.3,175.8 82.1,168.2 83.9,160.8 85.7,153.7 87.4,147.2 89.2,140.8 91.0,134.7 92.7,128.9 94.5,123.3 96.3,118.2 98.1,113.2 99.8,108.6 101.6,104.2 103.4,100.0 105.1,96.1 106.9,92.4 108.7,88.9 110.5,85.6 112.2,82.6 114.0,79.7 115.8,76.9 117.5,74.4 119.3,72.0 121.1,69.7 122.9,67.6 124.6,65.6 126.4,63.8 128.2,62.0 129.9,60.4 131.7,58.9 133.5,57.4 135.3,56.1 137.0,54.8 138.8,53.7 140.6,52.6 142.3,51.6 144.1,50.6 145.9,49.8 147.7,48.9 149.4,48.2 151.2,47.5 153.0,46.8 154.7,46.2 156.5,45.7 158.3,45.2 160.1,44.7 161.8,44.3 163.6,44.0 165.4,43.6 167.1,43.3 168.9,43.1 170.7,42.8 172.5,42.6 174.2,42.5 176.0,42.3 177.8,42.2 179.5,42.1 181.3,42.0 183.1,42.0 184.9,42.0 186.6,42.0 188.4,42.0 190.2,42.1 191.9,42.2 193.7,42.3 195.5,42.4 197.3,42.5 199.0,42.6 200.8,42.8 202.6,43.0 204.3,43.2 206.1,43.4 207.9,43.6 209.7,43.9 211.4,44.1 213.2,44.4 215.0,44.7 216.7,45.0 218.5,45.3 220.3,45.6 222.1,45.9 223.8,46.2 225.6,46.6 227.4,46.9 229.1,47.3 230.9,47.7 232.7,48.1 234.5,48.4 236.2,48.8 238.0,49.3 239.8,49.7 241.5,50.1 243.3,50.5 245.1,51.0 246.9,51.4 248.6,51.9 250.4,52.3 252.2,52.8 253.9,53.3 255.7,53.7 257.5,54.2 259.3,54.7 261.0,55.2 262.8,55.7 264.6,56.2 266.3,56.7 268.1,57.3 269.9,57.8 271.7,58.3 273.4,58.8 275.2,59.4 277.0,59.9 278.7,60.4 280.5,61.0 282.3,61.5 284.1,62.1 285.8,62.6 287.6,63.2 289.4,63.8 291.1,64.3 292.9,64.9 294.7,65.5 296.5,66.0 298.2,66.6 300.0,67.2 301.8,67.8 303.5,68.3 305.3,68.9 307.1,69.5 308.9,70.1 310.6,70.7 312.4,71.3 314.2,71.9 315.9,72.5 317.7,73.1 319.5,73.7 321.3,74.3 323.0,74.9 324.8,75.5 326.6,76.1 328.3,76.7 330.1,77.3 331.9,77.9 333.7,78.5 335.4,79.1 337.2,79.7 339.0,80.3 340.7,81.0 342.5,81.6 344.3,82.2 346.1,82.8 347.8,83.4 349.6,84.0 351.4,84.6 353.1,85.3 354.9,85.9 356.7,86.5 358.5,87.1 360.2,87.7 362.0,88.3 363.8,88.9 365.5,89.6 367.3,90.2 369.1,90.8 370.9,91.7 372.6,92.6 374.4,93.4 376.2,94.3 377.9,95.2 379.7,96.1 381.5,96.9 383.3,97.8 385.0,98.7 386.8,99.5 388.6,100.4 390.3,101.3 392.1,102.1 393.9,103.0 395.7,103.8 397.4,104.7 399.2,105.5 401.0,106.3 402.7,107.2 404.5,108.0 406.3,108.8 408.1,109.7 409.8,110.5 411.6,111.3 413.4,112.1 415.1,112.9 416.9,113.8 418.7,114.6 420.5,115.4 422.2,116.2 424.0,117.0 425.8,117.8 427.5,118.6 429.3,119.4 431.1,120.1 432.9,120.9 434.6,121.7 436.4,122.5 438.2,123.3 439.9,124.0 441.7,124.8 443.5,125.6 445.3,126.3 447.0,127.1 448.8,127.8 450.6,128.6 452.3,129.1 454.1,129.6 455.9,130.2 457.7,130.7 459.4,131.2 461.2,131.7 463.0,132.3 464.7,132.8 466.5,133.3 468.3,133.8 470.1,134.3 471.8,134.8 473.6,135.4 475.4,135.9 477.1,136.4 478.9,136.9 480.7,137.4 482.5,137.9 484.2,138.4 486.0,138.9 487.8,139.4 489.5,139.9 491.3,140.4 493.1,140.9 494.9,141.4 496.6,141.9 498.4,142.4 500.2,142.9 501.9,143.3 503.7,143.8 505.5,144.3 507.3,144.8 509.0,145.3 510.8,145.7 512.6,146.2 514.3,146.7 516.1,147.2 517.9,147.6 519.7,148.1 521.4,148.6 523.2,149.1 525.0,149.5 526.7,150.0 528.5,150.4 530.3,150.9 532.1,151.4 533.8,151.8 535.6,152.3 537.4,152.7 539.1,153.2 540.9,153.6 542.7,154.1 544.5,154.5 546.2,155.0 548.0,155.4 549.8,155.9 551.5,156.3 553.3,156.7 555.1,157.2 556.9,157.6 558.6,158.0 560.4,158.5 562.2,158.9 563.9,159.3 565.7,159.8 567.5,160.2 569.3,160.6 571.0,161.0 572.8,161.4 574.6,161.9 576.3,162.3 578.1,162.7 579.9,163.1 581.7,163.5 583.4,163.9 585.2,164.3 587.0,164.7 588.7,165.1 590.5,165.6 592.3,166.0 594.1,166.4 595.8,166.8 597.6,167.1 599.4,167.5 601.1,167.9 602.9,168.3 604.7,168.7 606.5,169.1 608.2,169.5 610.0,169.9 611.8,170.3 613.5,170.6 615.3,171.0 617.1,171.4 618.9,171.8 620.6,172.2 622.4,172.5 624.2,172.9 625.9,173.3 627.7,173.6 629.5,174.0 631.3,174.4 633.0,174.7 634.8,175.1 636.6,175.5 638.3,175.8 640.1,176.2 641.9,176.5 643.7,176.9 645.4,177.3 647.2,177.6 649.0,178.0 650.7,178.3 652.5,178.7 654.3,179.0 656.1,179.3 657.8,179.7 659.6,180.0 661.4,180.4 663.1,180.7 664.9,181.0 666.7,181.4 668.5,181.7 670.2,182.1 672.0,182.4 673.8,182.7 675.5,183.0 677.3,183.4 679.1,183.7 680.9,184.0 682.6,184.3 684.4,184.7 686.2,185.0 687.9,185.3 689.7,185.6 691.5,185.9 693.3,186.3 695.0,186.6 696.8,186.9 698.6,187.2 700.3,187.5 702.1,187.8 703.9,188.1 705.7,188.4 707.4,188.7 709.2,189.0 711.0,189.3 712.7,189.6 714.5,189.9 716.3,190.2 718.1,190.5 719.8,190.8 721.6,191.1 723.4,191.4 725.1,191.7 726.9,192.0 728.7,192.3 730.5,192.6 732.2,192.8 734.0,193.1 735.8,193.4 737.5,193.7 739.3,194.0 741.1,194.3 742.9,194.5 744.6,194.8 746.4,195.1 748.2,195.4 749.9,195.6 751.7,195.9 753.5,196.2 755.3,196.5 757.0,196.7 758.8,197.0 760.6,197.3 762.3,197.5 764.1,197.8 765.9,198.0 767.7,198.3 769.4,198.6 771.2,198.8 773.0,199.1 774.7,199.3 776.5,199.6 778.3,199.9 780.1,200.1 781.8,200.4 783.6,200.6 785.4,200.9 787.1,201.1 788.9,201.4 790.7,201.6 792.5,201.9 794.2,202.1 796.0,202.3"/>
<text x="640" y="56" font-family="Arial" font-size="12" fill="#0f766e">abg_nominal NEES proxy</text>
</svg>