<svg xmlns="http://www.w3.org/2000/svg" width="820" height="320" viewBox="0 0 820 320">
<rect width="100%" height="100%" fill="white"/>
<text x="52" y="30" font-family="Arial" font-size="18" font-weight="700">particle_nominal NEES proxy</text>
<line x1="52" y1="274" x2="796" y2="274" stroke="#263238"/>
<line x1="52" y1="42" x2="52" y2="274" stroke="#263238"/>
<text x="52" y="306" font-family="Arial" font-size="12">time (s)</text>
<text x="630" y="306" font-family="Arial" font-size="12">value</text>

<rect x="370.9" y="42" width="79.7" height="232" fill="#fef3c7" opacity="0.72"/>
<polyline fill="none" stroke="#0f766e" stroke-width="2.3" points="52.0,274.0 53.8,274.0 55.5,274.0 57.3,274.0 59.1,274.0 60.9,274.0 62.6,274.0 64.4,274.0 66.2,274.0 67.9,274.0 69.7,274.0 71.5,274.0 73.3,274.0 75.0,274.0 76.8,274.0 78.6,274.0 80.3,274.0 82.1,274.0 83.9,274.0 85.7,274.0 87.4,274.0 89.2,274.0 91.0,274.0 92.7,274.0 94.5,274.0 96.3,274.0 98.1,274.0 99.8,274.0 101.6,274.0 103.4,274.0 105.1,273.9 106.9,273.9 108.7,273.9 110.5,273.9 112.2,273.9 114.0,273.9 115.8,273.9 117.5,273.9 119.3,273.9 121.1,273.9 122.9,273.9 124.6,273.9 126.4,273.9 128.2,273.8 129.9,273.8 131.7,273.9 133.5,273.9 135.3,273.9 137.0,273.9 138.8,273.9 140.6,273.9 142.3,273.8 144.1,273.8 145.9,273.8 147.7,273.8 149.4,273.9 151.2,273.8 153.0,273.8 154.7,273.8 156.5,273.8 158.3,273.9 160.1,273.9 161.8,273.9 163.6,273.9 165.4,273.9 167.1,273.9 168.9,273.9 170.7,273.9 172.5,273.9 174.2,273.9 176.0,273.9 177.8,273.8 179.5,273.8 181.3,273.8 183.1,273.8 184.9,273.9 186.6,273.9 188.4,273.9 190.2,273.9 191.9,273.8 193.7,273.8 195.5,273.8 197.3,273.8 199.0,273.8 200.8,273.8 202.6,273.8 204.3,273.7 206.1,273.7 207.9,273.7 209.7,273.7 211.4,273.7 213.2,273.7 215.0,273.6 216.7,273.6 218.5,273.6 220.3,273.5 222.1,273.5 223.8,273.5 225.6,273.5 227.4,273.4 229.1,273.4 230.9,273.4 232.7,273.3 234.5,273.3 236.2,273.2 238.0,273.3 239.8,273.2 241.5,273.2 243.3,273.1 245.1,273.0 246.9,273.2 248.6,273.1 250.4,273.1 252.2,273.0 253.9,273.0 255.7,272.9 257.5,272.8 259.3,272.7 261.0,272.7 262.8,272.6 264.6,273.3 266.3,273.2 268.1,273.2 269.9,273.1 271.7,273.1 273.4,273.0 275.2,273.0 277.0,272.9 278.7,272.9 280.5,272.9 282.3,273.1 284.1,273.0 285.8,273.0 287.6,272.9 289.4,272.9 291.1,273.1 292.9,273.0 294.7,273.0 296.5,272.9 298.2,272.9 300.0,272.4 301.8,272.3 303.5,272.2 305.3,272.1 307.1,272.0 308.9,272.0 310.6,271.9 312.4,271.8 314.2,271.7 315.9,271.6 317.7,273.0 319.5,272.9 321.3,272.9 323.0,272.8 324.8,272.8 326.6,271.5 328.3,271.4 330.1,271.2 331.9,271.1 333.7,271.0 335.4,271.5 337.2,271.4 339.0,271.3 340.7,271.2 342.5,271.1 344.3,272.0 346.1,271.9 347.8,271.8 349.6,271.7 351.4,271.6 353.1,271.2 354.9,271.1 356.7,271.0 358.5,270.8 360.2,270.7 362.0,271.0 363.8,270.8 365.5,270.7 367.3,270.6 369.1,270.5 370.9,271.8 372.6,271.7 374.4,271.5 376.2,271.4 377.9,271.3 379.7,270.6 381.5,270.4 383.3,270.2 385.0,269.9 386.8,269.7 388.6,268.1 390.3,267.9 392.1,267.7 393.9,267.6 395.7,267.4 397.4,269.7 399.2,269.6 401.0,269.4 402.7,269.2 404.5,269.0 406.3,269.4 408.1,269.2 409.8,269.1 411.6,268.9 413.4,268.7 415.1,266.7 416.9,266.4 418.7,266.2 420.5,266.0 422.2,265.8 424.0,270.7 425.8,270.6 427.5,270.4 429.3,270.3 431.1,270.2 432.9,261.4 434.6,261.2 436.4,260.9 438.2,260.5 439.9,260.2 441.7,262.1 443.5,261.9 445.3,261.7 447.0,261.6 448.8,261.4 450.6,266.6 452.3,266.3 454.1,266.0 455.9,265.7 457.7,265.4 459.4,258.8 461.2,258.4 463.0,257.9 464.7,257.5 466.5,257.0 468.3,262.0 470.1,261.5 471.8,261.0 473.6,260.5 475.4,260.0 477.1,265.6 478.9,265.3 480.7,265.0 482.5,264.7 484.2,264.4 486.0,259.2 487.8,258.7 489.5,258.1 491.3,257.6 493.1,257.0 494.9,252.8 496.6,252.2 498.4,251.5 500.2,251.0 501.9,250.4 503.7,261.7 505.5,261.3 507.3,260.9 509.0,260.5 510.8,260.1 512.6,246.5 514.3,245.4 516.1,244.3 517.9,243.2 519.7,242.3 521.4,252.0 523.2,251.2 525.0,250.3 526.7,249.5 528.5,248.7 530.3,257.9 532.1,257.5 533.8,257.0 535.6,256.5 537.4,256.1 539.1,242.9 540.9,242.1 542.7,241.2 544.5,240.4 546.2,239.5 548.0,241.6 549.8,240.8 551.5,240.0 553.3,239.2 555.1,238.4 556.9,254.0 558.6,253.6 560.4,253.3 562.2,253.0 563.9,252.7 565.7,230.7 567.5,229.6 569.3,228.4 571.0,227.3 572.8,226.3 574.6,230.7 576.3,229.7 578.1,228.8 579.9,227.9 581.7,227.1 583.4,261.1 585.2,260.6 587.0,260.1 588.7,259.6 590.5,259.1 592.3,220.5 594.1,219.0 595.8,217.5 597.6,216.1 599.4,214.6 601.1,214.3 602.9,212.7 604.7,211.2 606.5,209.7 608.2,208.3 610.0,242.9 611.8,242.2 613.5,241.4 615.3,240.7 617.1,240.0 618.9,193.9 620.6,192.0 622.4,190.1 624.2,188.2 625.9,186.4 627.7,198.6 629.5,197.0 631.3,195.5 633.0,194.0 634.8,192.5 636.6,228.6 638.3,227.5 640.1,226.4 641.9,225.3 643.7,224.2 645.4,194.5 647.2,193.4 649.0,192.4 650.7,191.4 652.5,190.6 654.3,197.5 656.1,195.8 657.8,194.2 659.6,192.6 661.4,191.0 663.1,245.5 664.9,245.1 666.7,244.6 668.5,244.2 670.2,243.8 672.0,165.3 673.8,163.2 675.5,161.2 677.3,159.2 679.1,157.3 680.9,162.1 682.6,160.0 684.4,157.9 686.2,155.9 687.9,154.1 689.7,187.5 691.5,185.3 693.3,183.2 695.0,181.0 696.8,178.9 698.6,129.1 700.3,126.0 702.1,123.0 703.9,120.0 705.7,117.0 707.4,136.9 709.2,134.2 711.0,131.5 712.7,128.9 714.5,126.2 716.3,198.8 718.1,198.0 719.8,197.1 721.6,196.3 723.4,195.5 725.1,132.6 726.9,130.0 728.7,127.3 730.5,124.6 732.2,121.9 734.0,132.4 735.8,129.9 737.5,127.4 739.3,125.0 741.1,122.6 742.9,146.3 744.6,144.2 746.4,142.2 748.2,140.3 749.9,138.4 751.7,91.5 753.5,87.6 755.3,83.8 757.0,80.0 758.8,76.3 760.6,86.8 762.3,83.2 764.1,79.7 765.9,76.1 767.7,72.7 769.4,195.8 771.2,194.4 773.0,193.0 774.7,191.7 776.5,190.4 778.3,64.0 780.1,60.3 781.8,56.6 783.6,52.9 785.4,49.3 787.1,58.0 788.9,53.9 790.7,49.8 792.5,45.9 794.2,42.0 796.0,192.8"/>
<text x="640" y="56" font-family="Arial" font-size="12" fill="#0f766e">particle_nominal NEES proxy</text>
</svg>