<svg xmlns="http://www.w3.org/2000/svg" width="820" height="320" viewBox="0 0 820 320">
<rect width="100%" height="100%" fill="white"/>
<text x="52" y="30" font-family="Arial" font-size="18" font-weight="700">sqrt_nominal NEES proxy</text>
<line x1="52" y1="274" x2="796" y2="274" stroke="#263238"/>
<line x1="52" y1="42" x2="52" y2="274" stroke="#263238"/>
<text x="52" y="306" font-family="Arial" font-size="12">time (s)</text>
<text x="630" y="306" font-family="Arial" font-size="12">value</text>

<rect x="370.9" y="42" width="79.7" height="232" fill="#fef3c7" opacity="0.72"/>
<polyline fill="none" stroke="#0f766e" stroke-width="2.3" points="52.0,260.0 53.8,258.6 55.5,257.2 57.3,255.7 59.1,254.3 60.9,248.6 62.6,250.1 64.4,251.5 66.2,252.9 67.9,254.3 69.7,240.7 71.5,243.1 73.3,245.5 75.0,247.8 76.8,249.9 78.6,269.6 80.3,269.1 82.1,267.7 83.9,265.4 85.7,262.4 87.4,263.8 89.2,259.9 91.0,255.3 92.7,249.9 94.5,244.0 96.3,225.5 98.1,217.0 99.8,208.7 101.6,200.6 103.4,193.0 105.1,241.7 106.9,238.8 108.7,236.0 110.5,233.4 112.2,230.9 114.0,230.5 115.8,228.4 117.5,226.4 119.3,224.6 121.1,223.1 122.9,210.7 124.6,209.6 126.4,208.7 128.2,208.1 129.9,207.6 131.7,112.0 133.5,107.3 135.3,103.3 137.0,99.9 138.8,97.1 140.6,44.9 142.3,43.1 144.1,42.1 145.9,42.0 147.7,42.7 149.4,144.4 151.2,145.6 153.0,147.1 154.7,148.7 156.5,150.4 158.3,185.8 160.1,189.3 161.8,193.0 163.6,196.7 165.4,200.5 167.1,214.4 168.9,218.0 170.7,221.4 172.5,224.6 174.2,227.6 176.0,193.1 177.8,197.5 179.5,201.7 181.3,205.7 183.1,209.4 184.9,219.3 186.6,224.1 188.4,228.6 190.2,232.9 191.9,236.8 193.7,222.6 195.5,227.2 197.3,231.5 199.0,235.3 200.8,238.8 202.6,254.7 204.3,256.9 206.1,258.7 207.9,260.0 209.7,261.1 211.4,197.2 213.2,201.4 215.0,205.5 216.7,209.4 218.5,213.2 220.3,239.5 222.1,242.6 223.8,245.5 225.6,248.2 227.4,250.7 229.1,273.6 230.9,273.9 232.7,274.0 234.5,273.9 236.2,273.6 238.0,251.3 239.8,252.6 241.5,253.6 243.3,254.5 245.1,255.2 246.9,251.6 248.6,250.1 250.4,248.5 252.2,246.7 253.9,244.8 255.7,249.0 257.5,247.3 259.3,245.6 261.0,243.8 262.8,242.0 264.6,250.0 266.3,248.1 268.1,246.1 269.9,244.1 271.7,242.1 273.4,254.8 275.2,253.6 277.0,252.2 278.7,250.9 280.5,249.5 282.3,256.1 284.1,255.2 285.8,254.2 287.6,253.2 289.4,252.2 291.1,249.0 292.9,250.8 294.7,252.6 296.5,254.3 298.2,255.8 300.0,264.7 301.8,265.6 303.5,266.4 305.3,267.1 307.1,267.7 308.9,267.5 310.6,268.1 312.4,268.6 314.2,269.1 315.9,269.5 317.7,250.6 319.5,251.3 321.3,251.9 323.0,252.5 324.8,252.9 326.6,251.1 328.3,250.4 330.1,249.6 331.9,248.9 333.7,248.1 335.4,224.4 337.2,222.6 339.0,220.8 340.7,219.0 342.5,217.3 344.3,172.1 346.1,169.7 347.8,167.3 349.6,165.0 351.4,162.7 353.1,159.6 354.9,157.1 356.7,154.8 358.5,152.4 360.2,150.1 362.0,145.5 363.8,143.3 365.5,141.2 367.3,139.1 369.1,136.9 370.9,173.8 372.6,172.1 374.4,170.5 376.2,169.0 377.9,167.6 379.7,231.7 381.5,230.8 383.3,229.8 385.0,228.8 386.8,227.8 388.6,222.9 390.3,221.9 392.1,220.7 393.9,219.6 395.7,218.6 397.4,144.6 399.2,143.2 401.0,141.9 402.7,140.8 404.5,139.8 406.3,227.9 408.1,227.3 409.8,226.5 411.6,225.8 413.4,225.1 415.1,239.1 416.9,238.5 418.7,238.0 420.5,237.4 422.2,236.9 424.0,271.2 425.8,270.9 427.5,270.7 429.3,270.4 431.1,270.1 432.9,252.4 434.6,252.0 436.4,251.6 438.2,251.1 439.9,250.7 441.7,252.9 443.5,252.4 445.3,252.0 447.0,251.5 448.8,251.0 450.6,225.0 452.3,224.3 454.1,223.7 455.9,223.2 457.7,222.7 459.4,230.4 461.2,230.0 463.0,229.6 464.7,229.2 466.5,228.8 468.3,263.1 470.1,262.8 471.8,262.5 473.6,262.2 475.4,261.9 477.1,243.0 478.9,242.7 480.7,242.3 482.5,242.0 484.2,241.8 486.0,220.2 487.8,220.0 489.5,219.8 491.3,219.7 493.1,219.6 494.9,227.0 496.6,226.9 498.4,226.9 500.2,226.9 501.9,226.9 503.7,166.8 505.5,166.7 507.3,166.5 509.0,166.5 510.8,166.4 512.6,204.1 514.3,204.1 516.1,204.2 517.9,204.2 519.7,204.3 521.4,203.9 523.2,204.0 525.0,204.2 526.7,204.4 528.5,204.6 530.3,235.1 532.1,235.5 533.8,235.8 535.6,236.2 537.4,236.5 539.1,242.4 540.9,242.7 542.7,243.0 544.5,243.3 546.2,243.5 548.0,226.9 549.8,227.1 551.5,227.3 553.3,227.5 555.1,227.6 556.9,212.5 558.6,212.6 560.4,212.7 562.2,212.8 563.9,212.9 565.7,214.3 567.5,214.3 569.3,214.4 571.0,214.6 572.8,214.7 574.6,200.4 576.3,200.5 578.1,200.7 579.9,200.8 581.7,201.0 583.4,159.9 585.2,159.8 587.0,159.6 588.7,159.5 590.5,159.4 592.3,159.0 594.1,158.9 595.8,158.8 597.6,158.6 599.4,158.6 601.1,164.7 602.9,164.5 604.7,164.3 606.5,164.1 608.2,163.9 610.0,164.2 611.8,164.1 613.5,164.0 615.3,164.0 617.1,164.0 618.9,161.1 620.6,161.0 622.4,160.8 624.2,160.6 625.9,160.5 627.7,162.9 629.5,162.8 631.3,162.7 633.0,162.6 634.8,162.6 636.6,200.3 638.3,200.6 640.1,200.8 641.9,201.1 643.7,201.4 645.4,200.1 647.2,200.1 649.0,200.2 650.7,200.2 652.5,200.2 654.3,200.0 656.1,200.1 657.8,200.1 659.6,200.2 661.4,200.3 663.1,227.4 664.9,227.3 666.7,227.2 668.5,227.1 670.2,227.0 672.0,202.2 673.8,202.0 675.5,201.9 677.3,201.7 679.1,201.6 680.9,192.2 682.6,192.1 684.4,192.0 686.2,191.9 687.9,191.8 689.7,174.4 691.5,174.8 693.3,175.2 695.0,175.8 696.8,176.3 698.6,184.6 700.3,185.2 702.1,185.8 703.9,186.3 705.7,186.8 707.4,178.0 709.2,178.6 711.0,179.3 712.7,180.0 714.5,180.7 716.3,134.8 718.1,134.5 719.8,134.3 721.6,134.2 723.4,134.0 725.1,156.9 726.9,156.8 728.7,156.8 730.5,156.7 732.2,156.6 734.0,135.9 735.8,136.0 737.5,136.3 739.3,136.7 741.1,137.4 742.9,141.8 744.6,142.3 746.4,142.7 748.2,143.2 749.9,143.8 751.7,162.1 753.5,162.7 755.3,163.4 757.0,164.2 758.8,165.0 760.6,195.0 762.3,195.6 764.1,196.3 765.9,197.0 767.7,197.7 769.4,219.0 771.2,219.4 773.0,219.9 774.7,220.3 776.5,220.7 778.3,225.5 780.1,225.6 781.8,225.7 783.6,225.8 785.4,225.9 787.1,211.2 788.9,211.7 790.7,212.3 792.5,212.8 794.2,213.2 796.0,220.3"/>
<text x="640" y="56" font-family="Arial" font-size="12" fill="#0f766e">sqrt_nominal NEES proxy</text>
</svg>