<svg xmlns="http://www.w3.org/2000/svg" width="820" height="320" viewBox="0 0 820 320">
<rect width="100%" height="100%" fill="white"/>
<text x="52" y="30" font-family="Arial" font-size="18" font-weight="700">adaptive_nominal NEES proxy</text>
<line x1="52" y1="274" x2="796" y2="274" stroke="#263238"/>
<line x1="52" y1="42" x2="52" y2="274" stroke="#263238"/>
<text x="52" y="306" font-family="Arial" font-size="12">time (s)</text>
<text x="630" y="306" font-family="Arial" font-size="12">value</text>

<rect x="370.9" y="42" width="79.7" height="232" fill="#fef3c7" opacity="0.72"/>
<polyline fill="none" stroke="#0f766e" stroke-width="2.3" points="52.0,258.2 53.8,258.3 55.5,261.0 57.3,264.0 59.1,266.5 60.9,211.4 62.6,207.0 64.4,205.7 66.2,205.9 67.9,206.8 69.7,222.8 71.5,224.7 73.3,226.8 75.0,228.8 76.8,230.6 78.6,271.0 80.3,271.7 82.1,272.3 83.9,272.7 85.7,273.1 87.4,272.8 89.2,273.2 91.0,273.5 92.7,273.8 94.5,274.0 96.3,273.3 98.1,272.9 99.8,272.5 101.6,272.1 103.4,271.7 105.1,255.1 106.9,254.6 108.7,254.3 110.5,254.0 112.2,253.8 114.0,253.8 115.8,253.7 117.5,253.6 119.3,253.6 121.1,253.7 122.9,246.8 124.6,246.8 126.4,246.9 128.2,247.1 129.9,247.3 131.7,194.4 133.5,193.8 135.3,193.5 137.0,193.6 138.8,194.0 140.6,152.0 142.3,153.5 144.1,155.4 145.9,157.7 147.7,160.2 149.4,225.6 151.2,227.0 153.0,228.4 154.7,229.7 156.5,230.9 158.3,42.0 160.1,47.2 161.8,53.0 163.6,59.1 165.4,65.5 167.1,74.0 168.9,80.6 170.7,87.0 172.5,93.3 174.2,99.4 176.0,80.1 177.8,87.5 179.5,94.6 181.3,101.3 183.1,107.8 184.9,181.6 186.6,189.7 188.4,197.2 190.2,204.1 191.9,210.5 193.7,201.9 195.5,208.4 197.3,214.3 199.0,219.7 200.8,224.6 202.6,237.6 204.3,241.2 206.1,244.5 207.9,247.4 209.7,250.0 211.4,227.4 213.2,223.4 215.0,219.4 216.7,215.4 218.5,211.4 220.3,208.1 222.1,203.8 223.8,199.6 225.6,195.5 227.4,191.6 229.1,162.1 230.9,156.8 232.7,151.8 234.5,147.1 236.2,142.6 238.0,118.6 239.8,114.8 241.5,111.4 243.3,108.2 245.1,105.4 246.9,86.3 248.6,82.7 250.4,79.4 252.2,76.4 253.9,73.6 255.7,83.8 257.5,81.7 259.3,79.7 261.0,78.0 262.8,76.4 264.6,91.6 266.3,89.1 268.1,86.9 269.9,85.0 271.7,83.2 273.4,113.2 275.2,112.1 277.0,111.3 278.7,110.6 280.5,110.0 282.3,121.4 284.1,121.2 285.8,121.1 287.6,121.0 289.4,121.0 291.1,188.9 292.9,189.5 294.7,190.1 296.5,190.7 298.2,191.3 300.0,205.7 301.8,206.2 303.5,206.7 305.3,207.3 307.1,207.8 308.9,209.3 310.6,209.8 312.4,210.3 314.2,210.9 315.9,211.4 317.7,241.5 319.5,242.2 321.3,242.8 323.0,243.4 324.8,243.9 326.6,257.0 328.3,257.2 330.1,257.4 331.9,257.6 333.7,257.8 335.4,253.8 337.2,253.7 339.0,253.6 340.7,253.5 342.5,253.4 344.3,155.0 346.1,154.3 347.8,153.6 349.6,152.9 351.4,152.3 353.1,152.8 354.9,152.1 356.7,151.5 358.5,151.0 360.2,150.5 362.0,149.9 363.8,149.6 365.5,149.3 367.3,148.9 369.1,148.6 370.9,103.6 372.6,103.6 374.4,103.6 376.2,103.6 377.9,103.7 379.7,133.9 381.5,134.2 383.3,134.6 385.0,134.9 386.8,135.3 388.6,133.3 390.3,133.7 392.1,133.9 393.9,134.2 395.7,134.6 397.4,125.9 399.2,126.1 401.0,126.4 402.7,126.7 404.5,127.2 406.3,166.3 408.1,166.8 409.8,167.4 411.6,167.9 413.4,168.4 415.1,173.8 416.9,174.4 418.7,174.9 420.5,175.5 422.2,176.1 424.0,210.0 425.8,211.2 427.5,212.4 429.3,213.6 431.1,214.7 432.9,213.8 434.6,214.9 436.4,216.0 438.2,217.1 439.9,218.1 441.7,219.5 443.5,220.5 445.3,221.4 447.0,222.3 448.8,223.2 450.6,166.2 452.3,166.2 454.1,166.2 455.9,166.2 457.7,166.2 459.4,168.9 461.2,169.0 463.0,169.2 464.7,169.3 466.5,169.5 468.3,180.7 470.1,180.8 471.8,181.0 473.6,181.1 475.4,181.2 477.1,236.5 478.9,235.9 480.7,235.3 482.5,234.7 484.2,234.1 486.0,226.7 487.8,226.2 489.5,225.8 491.3,225.3 493.1,224.8 494.9,225.7 496.6,225.3 498.4,224.8 500.2,224.4 501.9,223.9 503.7,193.1 505.5,192.6 507.3,192.1 509.0,191.7 510.8,191.2 512.6,195.3 514.3,194.7 516.1,194.2 517.9,193.7 519.7,193.2 521.4,193.8 523.2,193.3 525.0,192.8 526.7,192.3 528.5,191.8 530.3,207.9 532.1,207.5 533.8,207.0 535.6,206.5 537.4,206.1 539.1,216.0 540.9,215.6 542.7,215.1 544.5,214.7 546.2,214.2 548.0,214.7 549.8,214.2 551.5,213.7 553.3,213.2 555.1,212.7 556.9,214.2 558.6,213.3 560.4,212.5 562.2,211.7 563.9,210.9 565.7,209.7 567.5,209.0 569.3,208.3 571.0,207.6 572.8,206.9 574.6,199.0 576.3,198.2 578.1,197.5 579.9,196.7 581.7,196.0 583.4,214.1 585.2,213.4 587.0,212.7 588.7,212.0 590.5,211.3 592.3,211.2 594.1,210.6 595.8,209.9 597.6,209.3 599.4,208.7 601.1,219.5 602.9,219.1 604.7,218.6 606.5,218.2 608.2,217.7 610.0,233.3 611.8,232.8 613.5,232.3 615.3,231.8 617.1,231.3 618.9,233.6 620.6,233.2 622.4,232.8 624.2,232.3 625.9,231.9 627.7,230.9 629.5,230.5 631.3,230.1 633.0,229.7 634.8,229.3 636.6,251.1 638.3,250.8 640.1,250.6 641.9,250.3 643.7,250.1 645.4,252.9 647.2,252.6 649.0,252.4 650.7,252.3 652.5,252.1 654.3,252.1 656.1,252.0 657.8,251.9 659.6,251.7 661.4,251.5 663.1,257.5 664.9,257.3 666.7,257.2 668.5,257.0 670.2,256.9 672.0,256.6 673.8,256.5 675.5,256.3 677.3,256.2 679.1,256.0 680.9,254.9 682.6,254.7 684.4,254.6 686.2,254.5 687.9,254.4 689.7,251.5 691.5,251.4 693.3,251.3 695.0,251.3 696.8,251.3 698.6,252.0 700.3,251.9 702.1,251.9 703.9,251.8 705.7,251.7 707.4,249.0 709.2,248.9 711.0,248.9 712.7,248.9 714.5,248.8 716.3,242.3 718.1,242.3 719.8,242.2 721.6,242.2 723.4,242.1 725.1,246.8 726.9,246.8 728.7,246.7 730.5,246.7 732.2,246.7 734.0,240.1 735.8,240.1 737.5,240.1 739.3,240.2 741.1,240.3 742.9,240.2 744.6,240.4 746.4,240.5 748.2,240.6 749.9,240.7 751.7,246.5 753.5,246.6 755.3,246.7 757.0,246.9 758.8,247.0 760.6,255.9 762.3,256.0 764.1,256.1 765.9,256.2 767.7,256.3 769.4,254.8 771.2,254.8 773.0,254.8 774.7,254.8 776.5,254.8 778.3,254.8 780.1,254.7 781.8,254.7 783.6,254.6 785.4,254.5 787.1,249.2 788.9,249.5 790.7,249.7 792.5,249.8 794.2,250.0 796.0,223.8"/>
<text x="640" y="56" font-family="Arial" font-size="12" fill="#0f766e">adaptive_nominal NEES proxy</text>
</svg>