<svg xmlns="http://www.w3.org/2000/svg" width="820" height="320" viewBox="0 0 820 320">
<rect width="100%" height="100%" fill="white"/>
<text x="52" y="30" font-family="Arial" font-size="18" font-weight="700">robust_nominal NEES proxy</text>
<line x1="52" y1="274" x2="796" y2="274" stroke="#263238"/>
<line x1="52" y1="42" x2="52" y2="274" stroke="#263238"/>
<text x="52" y="306" font-family="Arial" font-size="12">time (s)</text>
<text x="630" y="306" font-family="Arial" font-size="12">value</text>

<rect x="370.9" y="42" width="79.7" height="232" fill="#fef3c7" opacity="0.72"/>
<polyline fill="none" stroke="#0f766e" stroke-width="2.3" points="52.0,200.6 53.8,202.8 55.5,212.4 57.3,223.9 59.1,234.2 60.9,237.2 62.6,241.5 64.4,244.7 66.2,247.3 67.9,249.3 69.7,244.9 71.5,245.8 73.3,246.7 75.0,247.5 76.8,248.3 78.6,270.0 80.3,271.6 82.1,272.6 83.9,273.1 85.7,273.2 87.4,272.3 89.2,272.1 91.0,271.7 92.7,271.3 94.5,270.8 96.3,270.3 98.1,269.6 99.8,269.0 101.6,268.5 103.4,267.9 105.1,252.1 106.9,250.1 108.7,248.4 110.5,246.9 112.2,245.7 114.0,244.3 115.8,243.4 117.5,242.7 119.3,242.2 121.1,241.8 122.9,236.1 124.6,236.0 126.4,235.9 128.2,236.0 129.9,236.2 131.7,238.7 133.5,239.2 135.3,239.7 137.0,240.3 138.8,241.0 140.6,212.8 142.3,214.0 144.1,215.4 145.9,216.8 147.7,218.4 149.4,245.9 151.2,247.1 153.0,248.2 154.7,249.2 156.5,250.2 158.3,181.8 160.1,182.8 161.8,183.9 163.6,185.1 165.4,186.3 167.1,193.2 168.9,194.6 170.7,196.0 172.5,197.3 174.2,198.6 176.0,177.6 177.8,180.1 179.5,182.4 181.3,184.7 183.1,186.9 184.9,211.4 186.6,214.1 188.4,216.6 190.2,218.9 191.9,221.2 193.7,212.7 195.5,215.5 197.3,218.1 199.0,220.5 200.8,222.8 202.6,232.2 204.3,233.9 206.1,235.4 207.9,236.8 209.7,238.0 211.4,270.7 213.2,271.4 215.0,272.0 216.7,272.4 218.5,272.8 220.3,274.0 222.1,273.8 223.8,273.6 225.6,273.2 227.4,272.9 229.1,256.3 230.9,254.8 232.7,253.3 234.5,251.8 236.2,250.4 238.0,166.7 239.8,165.7 241.5,164.9 243.3,164.3 245.1,163.9 246.9,141.0 248.6,140.0 250.4,139.3 252.2,138.6 253.9,138.1 255.7,157.9 257.5,157.7 259.3,157.7 261.0,157.7 262.8,157.7 264.6,156.0 266.3,155.8 268.1,155.8 269.9,155.9 271.7,156.1 273.4,182.5 275.2,182.9 277.0,183.4 278.7,184.0 280.5,184.6 282.3,200.7 284.1,201.5 285.8,202.2 287.6,203.0 289.4,203.7 291.1,255.4 292.9,255.6 294.7,255.7 296.5,255.8 298.2,256.0 300.0,253.9 301.8,254.0 303.5,254.2 305.3,254.3 307.1,254.4 308.9,256.7 310.6,256.9 312.4,257.0 314.2,257.1 315.9,257.3 317.7,269.2 319.5,269.4 321.3,269.6 323.0,269.8 324.8,269.9 326.6,259.1 328.3,259.2 330.1,259.3 331.9,259.3 333.7,259.4 335.4,237.8 337.2,237.8 339.0,237.9 340.7,238.0 342.5,238.0 344.3,141.9 346.1,141.8 347.8,141.8 349.6,141.8 351.4,141.8 353.1,146.6 354.9,146.7 356.7,146.8 358.5,147.0 360.2,147.3 362.0,148.9 363.8,149.3 365.5,149.8 367.3,150.2 369.1,150.6 370.9,89.9 372.6,90.4 374.4,90.9 376.2,91.6 377.9,92.3 379.7,113.5 381.5,114.2 383.3,114.9 385.0,115.6 386.8,116.4 388.6,114.6 390.3,115.4 392.1,116.1 393.9,116.9 395.7,117.7 397.4,107.9 399.2,109.0 401.0,110.3 402.7,111.5 404.5,112.9 406.3,136.4 408.1,137.6 409.8,138.7 411.6,139.9 413.4,141.0 415.1,153.0 416.9,154.1 418.7,155.2 420.5,156.2 422.2,157.3 424.0,186.4 425.8,188.0 427.5,189.5 429.3,191.0 431.1,192.4 432.9,170.0 434.6,171.8 436.4,173.6 438.2,175.4 439.9,177.1 441.7,183.9 443.5,185.4 445.3,186.9 447.0,188.4 448.8,189.8 450.6,42.0 452.3,42.5 454.1,43.1 455.9,43.7 457.7,44.4 459.4,52.4 461.2,53.2 463.0,54.0 464.7,54.9 466.5,55.7 468.3,70.9 470.1,71.6 471.8,72.2 473.6,72.8 475.4,73.3 477.1,172.0 478.9,171.8 480.7,171.6 482.5,171.4 484.2,171.2 486.0,167.8 487.8,167.5 489.5,167.2 491.3,166.8 493.1,166.5 494.9,166.9 496.6,166.6 498.4,166.4 500.2,166.1 501.9,165.8 503.7,137.3 505.5,137.1 507.3,136.9 509.0,136.8 510.8,136.6 512.6,141.5 514.3,141.5 516.1,141.5 517.9,141.5 519.7,141.6 521.4,141.1 523.2,141.1 525.0,141.0 526.7,141.0 528.5,140.9 530.3,171.2 532.1,171.5 533.8,171.8 535.6,172.1 537.4,172.4 539.1,174.1 540.9,174.2 542.7,174.2 544.5,174.3 546.2,174.3 548.0,162.9 549.8,162.6 551.5,162.4 553.3,162.1 555.1,161.9 556.9,190.6 558.6,189.7 560.4,188.8 562.2,188.0 563.9,187.2 565.7,195.5 567.5,194.8 569.3,194.2 571.0,193.5 572.8,192.9 574.6,183.8 576.3,183.0 578.1,182.2 579.9,181.5 581.7,180.7 583.4,203.8 585.2,203.1 587.0,202.4 588.7,201.6 590.5,200.8 592.3,201.3 594.1,200.6 595.8,199.9 597.6,199.2 599.4,198.5 601.1,210.1 602.9,209.6 604.7,209.1 606.5,208.6 608.2,208.2 610.0,216.7 611.8,215.9 613.5,215.1 615.3,214.3 617.1,213.5 618.9,222.0 620.6,221.3 622.4,220.6 624.2,220.0 625.9,219.3 627.7,217.1 629.5,216.4 631.3,215.7 633.0,215.1 634.8,214.5 636.6,247.6 638.3,247.2 640.1,246.9 641.9,246.5 643.7,246.2 645.4,257.5 647.2,257.2 649.0,256.9 650.7,256.6 652.5,256.4 654.3,257.0 656.1,256.7 657.8,256.5 659.6,256.2 661.4,255.9 663.1,264.0 664.9,263.6 666.7,263.2 668.5,262.9 670.2,262.5 672.0,262.8 673.8,262.5 675.5,262.2 677.3,261.9 679.1,261.5 680.9,258.7 682.6,258.4 684.4,258.1 686.2,257.9 687.9,257.6 689.7,245.0 691.5,244.8 693.3,244.7 695.0,244.6 696.8,244.6 698.6,246.8 700.3,246.8 702.1,246.7 703.9,246.6 705.7,246.5 707.4,241.1 709.2,241.1 711.0,241.0 712.7,241.0 714.5,241.0 716.3,227.6 718.1,227.4 719.8,227.4 721.6,227.3 723.4,227.3 725.1,236.9 726.9,236.8 728.7,236.8 730.5,236.8 732.2,236.7 734.0,226.3 735.8,226.4 737.5,226.5 739.3,226.7 741.1,226.9 742.9,221.8 744.6,222.2 746.4,222.5 748.2,222.9 749.9,223.2 751.7,231.2 753.5,231.5 755.3,231.9 757.0,232.3 758.8,232.7 760.6,245.0 762.3,245.2 764.1,245.4 765.9,245.7 767.7,246.0 769.4,263.8 771.2,264.0 773.0,264.2 774.7,264.4 776.5,264.6 778.3,266.3 780.1,266.4 781.8,266.4 783.6,266.4 785.4,266.5 787.1,259.6 788.9,259.9 790.7,260.3 792.5,260.6 794.2,260.8 796.0,242.4"/>
<text x="640" y="56" font-family="Arial" font-size="12" fill="#0f766e">robust_nominal NEES proxy</text>
</svg>