<svg xmlns="http://www.w3.org/2000/svg" width="820" height="320" viewBox="0 0 820 320">
<rect width="100%" height="100%" fill="white"/>
<text x="52" y="30" font-family="Arial" font-size="18" font-weight="700">ekf_nominal NEES proxy</text>
<line x1="52" y1="274" x2="796" y2="274" stroke="#263238"/>
<line x1="52" y1="42" x2="52" y2="274" stroke="#263238"/>
<text x="52" y="306" font-family="Arial" font-size="12">time (s)</text>
<text x="630" y="306" font-family="Arial" font-size="12">value</text>

<rect x="370.9" y="42" width="79.7" height="232" fill="#fef3c7" opacity="0.72"/>
<polyline fill="none" stroke="#0f766e" stroke-width="2.3" points="52.0,260.5 53.8,260.7 55.5,262.9 57.3,265.4 59.1,267.4 60.9,215.5 62.6,211.7 64.4,210.7 66.2,211.1 67.9,212.2 69.7,227.4 71.5,229.5 73.3,231.7 75.0,233.8 76.8,235.7 78.6,272.4 80.3,273.0 82.1,273.4 83.9,273.7 85.7,273.9 87.4,273.2 89.2,273.5 91.0,273.7 92.7,273.9 94.5,274.0 96.3,271.1 98.1,270.5 99.8,270.0 101.6,269.4 103.4,269.0 105.1,250.7 106.9,250.2 108.7,249.9 110.5,249.6 112.2,249.5 114.0,249.9 115.8,250.0 117.5,250.1 119.3,250.2 121.1,250.5 122.9,243.4 124.6,243.6 126.4,244.0 128.2,244.4 129.9,244.8 131.7,200.0 133.5,199.5 135.3,199.4 137.0,199.6 138.8,200.0 140.6,165.8 142.3,167.3 144.1,169.1 145.9,171.2 147.7,173.4 149.4,227.5 151.2,228.7 153.0,229.9 154.7,231.0 156.5,232.1 158.3,84.5 160.1,88.3 161.8,92.5 163.6,96.9 165.4,101.5 167.1,108.1 168.9,112.8 170.7,117.5 172.5,122.0 174.2,126.4 176.0,110.6 177.8,116.2 179.5,121.6 181.3,126.7 183.1,131.6 184.9,195.4 186.6,201.5 188.4,207.1 190.2,212.3 191.9,217.2 193.7,210.6 195.5,215.6 197.3,220.3 199.0,224.6 200.8,228.5 202.6,238.4 204.3,241.4 206.1,244.0 207.9,246.4 209.7,248.6 211.4,241.3 213.2,238.6 215.0,235.9 216.7,233.2 218.5,230.5 220.3,228.0 222.1,224.9 223.8,221.9 225.6,219.0 227.4,216.1 229.1,192.7 230.9,188.6 232.7,184.7 234.5,181.0 236.2,177.5 238.0,158.7 239.8,155.9 241.5,153.3 243.3,150.9 245.1,148.7 246.9,132.8 248.6,129.9 250.4,127.3 252.2,124.9 253.9,122.6 255.7,131.2 257.5,129.4 259.3,127.8 261.0,126.3 262.8,125.0 264.6,130.9 266.3,128.8 268.1,126.8 269.9,125.1 271.7,123.5 273.4,149.5 275.2,148.5 277.0,147.7 278.7,147.1 280.5,146.5 282.3,156.1 284.1,155.8 285.8,155.6 287.6,155.5 289.4,155.3 291.1,205.3 292.9,205.8 294.7,206.3 296.5,206.8 298.2,207.3 300.0,222.7 301.8,223.0 303.5,223.4 305.3,223.8 307.1,224.2 308.9,225.1 310.6,225.5 312.4,225.9 314.2,226.3 315.9,226.7 317.7,253.9 319.5,254.5 321.3,255.0 323.0,255.5 324.8,256.0 326.6,265.4 328.3,265.4 330.1,265.4 331.9,265.4 333.7,265.4 335.4,251.5 337.2,251.1 339.0,250.7 340.7,250.3 342.5,250.0 344.3,100.3 346.1,99.1 347.8,97.9 349.6,96.9 351.4,95.9 353.1,101.9 354.9,101.0 356.7,100.2 358.5,99.5 360.2,98.9 362.0,102.2 363.8,101.8 365.5,101.5 367.3,101.2 369.1,101.0 370.9,42.0 372.6,42.3 374.4,42.6 376.2,43.1 377.9,43.7 379.7,91.5 381.5,92.3 383.3,93.0 385.0,93.9 386.8,94.7 388.6,92.5 390.3,93.4 392.1,94.1 393.9,94.9 395.7,95.8 397.4,80.5 399.2,81.5 401.0,82.6 402.7,83.7 404.5,84.9 406.3,141.1 408.1,142.2 409.8,143.4 411.6,144.5 413.4,145.7 415.1,153.2 416.9,154.4 418.7,155.5 420.5,156.7 422.2,157.8 424.0,198.4 425.8,200.1 427.5,201.8 429.3,203.4 431.1,205.0 432.9,207.1 434.6,208.7 436.4,210.4 438.2,212.0 439.9,213.5 441.7,215.3 443.5,216.7 445.3,218.0 447.0,219.3 448.8,220.5 450.6,137.8 452.3,138.3 454.1,138.8 455.9,139.3 457.7,139.9 459.4,143.3 461.2,144.0 463.0,144.7 464.7,145.4 466.5,146.0 468.3,156.9 470.1,157.4 471.8,157.9 473.6,158.3 475.4,158.7 477.1,214.4 478.9,213.5 480.7,212.6 482.5,211.7 484.2,210.9 486.0,198.3 487.8,197.6 489.5,196.9 491.3,196.2 493.1,195.5 494.9,197.9 496.6,197.2 498.4,196.6 500.2,195.9 501.9,195.4 503.7,158.7 505.5,158.3 507.3,157.8 509.0,157.4 510.8,157.0 512.6,169.1 514.3,168.6 516.1,168.1 517.9,167.7 519.7,167.3 521.4,168.0 523.2,167.6 525.0,167.2 526.7,166.8 528.5,166.4 530.3,190.5 532.1,190.2 533.8,189.9 535.6,189.5 537.4,189.2 539.1,201.5 540.9,201.2 542.7,200.9 544.5,200.5 546.2,200.1 548.0,197.0 549.8,196.5 551.5,196.1 553.3,195.6 555.1,195.2 556.9,186.9 558.6,185.8 560.4,184.7 562.2,183.7 563.9,182.7 565.7,183.8 567.5,182.9 569.3,182.1 571.0,181.2 572.8,180.5 574.6,165.1 576.3,164.1 578.1,163.1 579.9,162.2 581.7,161.3 583.4,189.7 585.2,188.9 587.0,188.1 588.7,187.3 590.5,186.5 592.3,187.2 594.1,186.5 595.8,185.8 597.6,185.1 599.4,184.4 601.1,202.2 602.9,201.7 604.7,201.2 606.5,200.7 608.2,200.3 610.0,219.4 611.8,218.7 613.5,218.1 615.3,217.5 617.1,216.9 618.9,221.7 620.6,221.1 622.4,220.6 624.2,220.1 625.9,219.6 627.7,218.2 629.5,217.7 631.3,217.2 633.0,216.8 634.8,216.4 636.6,258.5 638.3,258.3 640.1,258.2 641.9,258.0 643.7,257.9 645.4,266.1 647.2,265.9 649.0,265.7 650.7,265.5 652.5,265.4 654.3,265.2 656.1,265.0 657.8,264.8 659.6,264.7 661.4,264.5 663.1,265.2 664.9,265.0 666.7,264.8 668.5,264.6 670.2,264.5 672.0,252.5 673.8,252.4 675.5,252.2 677.3,252.1 679.1,252.0 680.9,245.9 682.6,245.8 684.4,245.8 686.2,245.7 687.9,245.6 689.7,222.1 691.5,222.1 693.3,222.1 695.0,222.2 696.8,222.3 698.6,228.2 700.3,228.4 702.1,228.5 703.9,228.6 705.7,228.6 707.4,222.3 709.2,222.4 711.0,222.6 712.7,222.8 714.5,223.0 716.3,218.2 718.1,218.3 719.8,218.5 721.6,218.8 723.4,219.0 725.1,233.4 726.9,233.6 728.7,233.8 730.5,234.0 732.2,234.2 734.0,220.9 735.8,221.2 737.5,221.6 739.3,222.1 741.1,222.6 742.9,211.7 744.6,212.4 746.4,213.1 748.2,213.9 749.9,214.5 751.7,226.0 753.5,226.7 755.3,227.4 757.0,228.2 758.8,228.9 760.6,246.2 762.3,246.8 764.1,247.3 765.9,247.9 767.7,248.5 769.4,261.9 771.2,262.2 773.0,262.5 774.7,262.7 776.5,263.0 778.3,266.2 780.1,266.3 781.8,266.4 783.6,266.5 785.4,266.5 787.1,256.0 788.9,256.4 790.7,256.8 792.5,257.2 794.2,257.6 796.0,231.8"/>
<text x="640" y="56" font-family="Arial" font-size="12" fill="#0f766e">ekf_nominal NEES proxy</text>
</svg>