<svg xmlns="http://www.w3.org/2000/svg" width="820" height="320" viewBox="0 0 820 320">
<rect width="100%" height="100%" fill="white"/>
<text x="52" y="30" font-family="Arial" font-size="18" font-weight="700">adaptive_nominal NIS</text>
<line x1="52" y1="274" x2="796" y2="274" stroke="#263238"/>
<line x1="52" y1="42" x2="52" y2="274" stroke="#263238"/>
<text x="52" y="306" font-family="Arial" font-size="12">time (s)</text>
<text x="630" y="306" font-family="Arial" font-size="12">value</text>

<polyline fill="none" stroke="#0f766e" stroke-width="2.3" points="52.0,271.9 52.0,274.0 52.0,273.2 52.0,265.1 52.0,267.8 60.9,271.0 69.7,272.1 78.6,269.2 78.6,273.4 78.6,273.0 78.6,272.8 78.6,274.0 87.4,274.0 96.3,273.5 105.1,270.6 105.1,273.9 105.1,273.8 105.1,273.6 105.1,274.0 114.0,274.0 122.9,274.0 131.7,269.5 131.7,273.3 131.7,271.8 131.7,273.8 131.7,273.9 140.6,274.0 149.4,267.6 158.3,272.6 158.3,274.0 158.3,273.8 158.3,274.0 158.3,269.4 167.1,273.9 176.0,272.6 184.9,269.9 184.9,273.1 184.9,269.7 184.9,273.2 184.9,273.7 193.7,273.7 202.6,273.2 211.4,270.2 211.4,273.7 211.4,273.7 211.4,274.0 211.4,263.9 220.3,273.6 229.1,272.4 238.0,267.9 238.0,265.0 238.0,273.3 238.0,273.9 238.0,269.5 246.9,272.3 255.7,273.0 264.6,269.9 264.6,272.9 264.6,271.0 264.6,274.0 264.6,269.8 273.4,270.7 282.3,272.7 291.1,271.1 291.1,259.7 291.1,269.7 291.1,271.6 291.1,273.9 300.0,272.8 308.9,273.9 317.7,271.7 317.7,273.9 317.7,273.1 317.7,274.0 317.7,270.3 326.6,270.8 335.4,272.3 344.3,273.6 344.3,267.7 344.3,273.6 344.3,273.5 344.3,273.7 353.1,273.7 362.0,273.8 370.9,272.4 370.9,272.6 370.9,273.4 370.9,273.7 379.7,269.9 388.6,274.0 397.4,272.1 397.4,273.0 397.4,273.5 397.4,271.9 406.3,268.3 415.1,273.6 424.0,267.9 424.0,269.1 424.0,273.9 424.0,273.9 432.9,270.9 441.7,274.0 450.6,273.2 450.6,270.0 450.6,271.9 450.6,270.4 459.4,273.8 468.3,269.5 477.1,272.1 477.1,273.3 477.1,271.5 477.1,268.8 477.1,273.9 486.0,273.4 494.9,273.9 503.7,271.2 503.7,273.6 503.7,274.0 503.7,272.3 503.7,273.5 512.6,267.2 521.4,273.9 530.3,273.2 530.3,272.0 530.3,271.2 530.3,272.8 530.3,273.1 539.1,272.2 548.0,269.6 556.9,271.1 556.9,273.7 556.9,270.6 556.9,273.8 556.9,273.9 565.7,271.6 574.6,267.0 583.4,270.0 583.4,273.8 583.4,273.9 583.4,272.4 583.4,273.9 592.3,273.9 601.1,270.7 610.0,42.0 610.0,273.8 610.0,274.0 610.0,273.9 610.0,271.0 618.9,273.1 627.7,274.0 636.6,273.7 636.6,273.3 636.6,273.7 636.6,272.2 636.6,273.4 645.4,273.0 654.3,274.0 663.1,273.3 663.1,274.0 663.1,273.8 663.1,273.6 663.1,274.0 672.0,272.3 680.9,273.9 689.7,273.4 689.7,273.0 689.7,273.8 689.7,274.0 689.7,273.9 698.6,273.9 707.4,274.0 716.3,269.7 716.3,273.8 716.3,273.5 716.3,273.2 716.3,273.9 725.1,273.5 734.0,273.8 742.9,269.9 742.9,273.8 742.9,274.0 742.9,274.0 742.9,273.7 751.7,273.6 760.6,272.9 769.4,271.9 769.4,272.7 769.4,272.3 769.4,273.9 769.4,272.0 778.3,273.7 787.1,271.1 796.0,273.4 796.0,272.6 796.0,273.3 796.0,272.8 796.0,273.8"/>
<text x="640" y="56" font-family="Arial" font-size="12" fill="#0f766e">adaptive_nominal NIS</text>
</svg>