<svg xmlns="http://www.w3.org/2000/svg" width="820" height="320" viewBox="0 0 820 320">
<rect width="100%" height="100%" fill="white"/>
<text x="52" y="30" font-family="Arial" font-size="18" font-weight="700">particle_nominal NIS</text>
<line x1="52" y1="274" x2="796" y2="274" stroke="#263238"/>
<line x1="52" y1="42" x2="52" y2="274" stroke="#263238"/>
<text x="52" y="306" font-family="Arial" font-size="12">time (s)</text>
<text x="630" y="306" font-family="Arial" font-size="12">value</text>

<polyline fill="none" stroke="#0f766e" stroke-width="2.3" points="52.0,273.2 52.0,274.0 52.0,273.4 52.0,273.7 52.0,273.5 60.9,273.3 69.7,274.0 78.6,273.7 78.6,274.0 78.6,273.9 78.6,273.5 78.6,273.9 87.4,273.9 96.3,274.0 105.1,273.6 105.1,274.0 105.1,273.6 105.1,273.9 105.1,274.0 114.0,273.9 122.9,273.9 131.7,273.4 131.7,274.0 131.7,272.8 131.7,273.7 131.7,274.0 140.6,273.9 149.4,272.9 158.3,273.8 158.3,273.6 158.3,273.5 158.3,273.6 158.3,273.1 167.1,273.4 176.0,273.8 184.9,273.7 184.9,273.1 184.9,274.0 184.9,273.7 184.9,273.8 193.7,273.5 202.6,272.8 211.4,273.6 211.4,273.2 211.4,274.0 211.4,273.8 211.4,273.9 220.3,272.4 229.1,271.4 238.0,273.3 238.0,273.5 238.0,273.9 238.0,273.9 238.0,272.9 246.9,270.8 255.7,272.0 264.6,273.8 264.6,270.2 264.6,274.0 264.6,273.8 264.6,272.7 273.4,272.0 282.3,271.6 291.1,273.5 291.1,273.2 291.1,273.9 291.1,273.0 291.1,273.7 300.0,269.8 308.9,270.4 317.7,273.0 317.7,269.8 317.7,273.9 317.7,273.3 317.7,272.1 326.6,267.1 335.4,267.2 344.3,273.1 344.3,263.7 344.3,273.9 344.3,273.2 344.3,273.5 353.1,268.0 362.0,267.3 370.9,267.8 370.9,273.6 370.9,272.2 370.9,273.4 379.7,268.5 388.6,265.3 397.4,261.3 397.4,274.0 397.4,271.2 397.4,271.2 406.3,267.2 415.1,263.9 424.0,266.6 424.0,273.4 424.0,270.1 424.0,272.3 432.9,256.7 441.7,260.2 450.6,255.6 450.6,273.9 450.6,267.8 450.6,269.7 459.4,256.7 468.3,260.6 477.1,270.1 477.1,256.2 477.1,273.3 477.1,262.8 477.1,271.5 486.0,255.1 494.9,250.5 503.7,269.9 503.7,247.6 503.7,273.6 503.7,268.0 503.7,270.4 512.6,237.0 521.4,244.8 530.3,267.4 530.3,234.9 530.3,273.1 530.3,267.0 530.3,271.9 539.1,240.7 548.0,242.1 556.9,268.3 556.9,229.6 556.9,272.7 556.9,262.8 556.9,270.5 565.7,221.0 574.6,235.4 583.4,267.9 583.4,220.2 583.4,272.7 583.4,264.4 583.4,271.5 592.3,216.7 601.1,206.2 610.0,234.2 610.0,211.1 610.0,272.0 610.0,260.4 610.0,273.8 618.9,198.9 627.7,202.6 636.6,261.5 636.6,201.7 636.6,272.8 636.6,262.4 636.6,273.2 645.4,183.2 654.3,184.3 663.1,261.4 663.1,178.2 663.1,271.1 663.1,259.4 663.1,273.0 672.0,161.7 680.9,165.7 689.7,256.9 689.7,151.8 689.7,271.2 689.7,253.7 689.7,273.3 698.6,156.7 707.4,146.6 716.3,259.2 716.3,136.8 716.3,271.6 716.3,249.3 716.3,273.6 725.1,137.7 734.0,120.8 742.9,252.7 742.9,109.7 742.9,270.3 742.9,250.7 742.9,273.8 751.7,108.6 760.6,102.0 769.4,245.8 769.4,94.0 769.4,271.5 769.4,253.8 769.4,272.6 778.3,81.3 787.1,54.4 796.0,242.6 796.0,42.0 796.0,270.4 796.0,253.6 796.0,273.2"/>
<text x="640" y="56" font-family="Arial" font-size="12" fill="#0f766e">particle_nominal NIS</text>
</svg>