<svg xmlns="http://www.w3.org/2000/svg" width="820" height="320" viewBox="0 0 820 320">
<rect width="100%" height="100%" fill="white"/>
<text x="52" y="30" font-family="Arial" font-size="18" font-weight="700">abg_nominal NIS</text>
<line x1="52" y1="274" x2="796" y2="274" stroke="#263238"/>
<line x1="52" y1="42" x2="52" y2="274" stroke="#263238"/>
<text x="52" y="306" font-family="Arial" font-size="12">time (s)</text>
<text x="630" y="306" font-family="Arial" font-size="12">value</text>

<polyline fill="none" stroke="#0f766e" stroke-width="2.3" points="52.0,274.0 52.0,274.0 52.0,274.0 52.0,274.0 52.0,274.0 60.9,273.5 69.7,272.8 78.6,208.2 78.6,272.8 78.6,204.0 78.6,190.7 78.6,235.5 87.4,273.3 96.3,273.7 105.1,136.2 105.1,274.0 105.1,122.9 105.1,103.5 105.1,157.9 114.0,274.0 122.9,274.0 131.7,100.2 131.7,274.0 131.7,84.1 131.7,62.4 131.7,111.3 140.6,274.0 149.4,274.0 158.3,86.6 158.3,274.0 158.3,67.3 158.3,45.8 158.3,87.9 167.1,274.0 176.0,274.0 184.9,82.2 184.9,274.0 184.9,62.4 184.9,42.0 184.9,77.3 193.7,274.0 202.6,274.0 211.4,83.5 211.4,274.0 211.4,64.7 211.4,45.5 211.4,75.1 220.3,274.0 229.1,274.0 238.0,87.0 238.0,274.0 238.0,71.4 238.0,53.7 238.0,79.2 246.9,274.0 255.7,274.0 264.6,92.4 264.6,274.0 264.6,81.3 264.6,65.0 264.6,86.6 273.4,274.0 282.3,274.0 291.1,98.8 291.1,274.0 291.1,93.2 291.1,78.2 291.1,96.5 300.0,274.0 308.9,274.0 317.7,105.9 317.7,274.0 317.7,106.5 317.7,93.1 317.7,108.6 326.6,274.0 335.4,274.0 344.3,113.4 344.3,274.0 344.3,120.6 344.3,108.8 344.3,121.6 353.1,274.0 362.0,274.0 370.9,274.0 370.9,135.4 370.9,125.2 370.9,135.8 379.7,274.0 388.6,274.0 397.4,274.0 397.4,152.8 397.4,144.4 397.4,152.9 406.3,274.0 415.1,274.0 424.0,274.0 424.0,169.4 424.0,162.5 424.0,169.1 432.9,274.0 441.7,274.0 450.6,274.0 450.6,185.0 450.6,179.3 450.6,184.5 459.4,274.0 468.3,274.0 477.1,158.6 477.1,274.0 477.1,197.4 477.1,192.8 477.1,196.9 486.0,274.0 494.9,274.0 503.7,164.8 503.7,274.0 503.7,209.1 503.7,205.4 503.7,208.6 512.6,274.0 521.4,274.0 530.3,170.7 530.3,274.0 530.3,219.8 530.3,216.9 530.3,219.3 539.1,274.0 548.0,274.0 556.9,176.4 556.9,274.0 556.9,229.3 556.9,227.0 556.9,228.8 565.7,274.0 574.6,274.0 583.4,181.7 583.4,274.0 583.4,237.6 583.4,235.9 583.4,237.3 592.3,274.0 601.1,274.0 610.0,186.1 610.0,274.0 610.0,244.8 610.0,243.5 610.0,244.5 618.9,274.0 627.7,274.0 636.6,191.3 636.6,274.0 636.6,250.9 636.6,249.8 636.6,250.6 645.4,274.0 654.3,274.0 663.1,195.7 663.1,274.0 663.1,255.9 663.1,255.1 663.1,255.7 672.0,274.0 680.9,274.0 689.7,199.9 689.7,274.0 689.7,259.9 689.7,259.4 689.7,259.8 698.6,274.0 707.4,274.0 716.3,203.7 716.3,274.0 716.3,263.2 716.3,262.8 716.3,263.1 725.1,274.0 734.0,274.0 742.9,207.3 742.9,274.0 742.9,265.8 742.9,265.4 742.9,265.7 751.7,274.0 760.6,274.0 769.4,210.7 769.4,274.0 769.4,267.8 769.4,267.5 769.4,267.7 778.3,274.0 787.1,274.0 796.0,213.8 796.0,274.0 796.0,269.3 796.0,269.1 796.0,269.2"/>
<text x="640" y="56" font-family="Arial" font-size="12" fill="#0f766e">abg_nominal NIS</text>
</svg>