<svg xmlns="http://www.w3.org/2000/svg" width="820" height="320" viewBox="0 0 820 320">
<rect width="100%" height="100%" fill="white"/>
<text x="52" y="30" font-family="Arial" font-size="18" font-weight="700">sqrt_nominal NIS</text>
<line x1="52" y1="274" x2="796" y2="274" stroke="#263238"/>
<line x1="52" y1="42" x2="52" y2="274" stroke="#263238"/>
<text x="52" y="306" font-family="Arial" font-size="12">time (s)</text>
<text x="630" y="306" font-family="Arial" font-size="12">value</text>

<polyline fill="none" stroke="#0f766e" stroke-width="2.3" points="52.0,272.8 52.0,274.0 52.0,274.0 52.0,274.0 52.0,274.0 60.9,269.8 69.7,274.0 78.6,269.8 78.6,274.0 78.6,274.0 78.6,274.0 78.6,274.0 87.4,273.8 96.3,274.0 105.1,266.2 105.1,274.0 105.1,274.0 105.1,274.0 105.1,274.0 114.0,273.9 122.9,274.0 131.7,270.6 131.7,273.7 131.7,274.0 131.7,274.0 131.7,274.0 140.6,274.0 149.4,269.6 158.3,269.2 158.3,274.0 158.3,274.0 158.3,274.0 158.3,274.0 167.1,273.7 176.0,273.5 184.9,271.1 184.9,273.4 184.9,274.0 184.9,274.0 184.9,274.0 193.7,273.9 202.6,273.5 211.4,259.4 211.4,274.0 211.4,274.0 211.4,274.0 211.4,274.0 220.3,273.1 229.1,271.5 238.0,267.6 238.0,270.8 238.0,274.0 238.0,274.0 238.0,274.0 246.9,272.6 255.7,273.7 264.6,269.9 264.6,272.7 264.6,274.0 264.6,274.0 264.6,274.0 273.4,272.9 282.3,273.5 291.1,272.7 291.1,265.1 291.1,274.0 291.1,274.0 291.1,274.0 300.0,273.6 308.9,274.0 317.7,272.8 317.7,274.0 317.7,274.0 317.7,274.0 317.7,274.0 326.6,271.9 335.4,272.9 344.3,270.1 344.3,267.9 344.3,274.0 344.3,274.0 344.3,274.0 353.1,273.9 362.0,273.9 370.9,272.6 370.9,274.0 370.9,274.0 370.9,274.0 379.7,270.1 388.6,274.0 397.4,272.5 397.4,274.0 397.4,274.0 397.4,274.0 406.3,268.3 415.1,273.5 424.0,267.8 424.0,274.0 424.0,274.0 424.0,274.0 432.9,271.6 441.7,273.9 450.6,273.4 450.6,274.0 450.6,274.0 450.6,274.0 459.4,273.7 468.3,269.4 477.1,266.8 477.1,273.7 477.1,274.0 477.1,274.0 477.1,274.0 486.0,273.7 494.9,273.7 503.7,268.0 503.7,273.4 503.7,274.0 503.7,274.0 503.7,274.0 512.6,266.8 521.4,274.0 530.3,270.6 530.3,271.5 530.3,274.0 530.3,274.0 530.3,274.0 539.1,272.8 548.0,270.6 556.9,270.5 556.9,273.7 556.9,274.0 556.9,274.0 556.9,274.0 565.7,271.7 574.6,267.6 583.4,267.9 583.4,273.9 583.4,274.0 583.4,274.0 583.4,274.0 592.3,274.0 601.1,271.5 610.0,42.0 610.0,273.6 610.0,274.0 610.0,274.0 610.0,274.0 618.9,273.2 627.7,273.8 636.6,270.9 636.6,272.5 636.6,274.0 636.6,274.0 636.6,274.0 645.4,272.2 654.3,274.0 663.1,270.2 663.1,274.0 663.1,274.0 663.1,274.0 663.1,274.0 672.0,271.4 680.9,274.0 689.7,267.3 689.7,272.8 689.7,274.0 689.7,274.0 689.7,274.0 698.6,273.7 707.4,274.0 716.3,261.0 716.3,273.9 716.3,274.0 716.3,274.0 716.3,274.0 725.1,273.1 734.0,273.9 742.9,267.9 742.9,273.9 742.9,274.0 742.9,274.0 742.9,274.0 751.7,273.4 760.6,272.6 769.4,269.7 769.4,272.7 769.4,274.0 769.4,274.0 769.4,274.0 778.3,273.7 787.1,272.3 796.0,271.1 796.0,272.9 796.0,274.0 796.0,274.0 796.0,274.0"/>
<text x="640" y="56" font-family="Arial" font-size="12" fill="#0f766e">sqrt_nominal NIS</text>
</svg>