<svg xmlns="http://www.w3.org/2000/svg" width="820" height="320" viewBox="0 0 820 320">
<rect width="100%" height="100%" fill="white"/>
<text x="52" y="30" font-family="Arial" font-size="18" font-weight="700">robust_nominal NIS</text>
<line x1="52" y1="274" x2="796" y2="274" stroke="#263238"/>
<line x1="52" y1="42" x2="52" y2="274" stroke="#263238"/>
<text x="52" y="306" font-family="Arial" font-size="12">time (s)</text>
<text x="630" y="306" font-family="Arial" font-size="12">value</text>

<polyline fill="none" stroke="#0f766e" stroke-width="2.3" points="52.0,246.2 52.0,273.9 52.0,273.6 52.0,212.8 52.0,242.2 60.9,237.6 69.7,268.4 78.6,202.9 78.6,268.2 78.6,248.8 78.6,261.2 78.6,274.0 87.4,273.9 96.3,261.5 105.1,201.7 105.1,269.8 105.1,259.3 105.1,268.6 105.1,274.0 114.0,273.9 122.9,271.8 131.7,191.3 131.7,256.7 131.7,223.5 131.7,269.5 131.7,271.6 140.6,272.5 149.4,215.3 158.3,246.2 158.3,270.5 158.3,273.4 158.3,273.4 158.3,225.4 167.1,264.3 176.0,260.5 184.9,234.4 184.9,252.3 184.9,224.1 184.9,258.9 184.9,273.5 193.7,271.7 202.6,258.8 211.4,202.1 211.4,269.5 211.4,251.6 211.4,271.9 211.4,212.8 220.3,267.1 229.1,247.1 238.0,230.2 238.0,208.1 238.0,258.1 238.0,260.6 238.0,262.9 246.9,267.0 255.7,237.0 264.6,184.4 264.6,266.3 264.6,234.4 264.6,260.3 264.6,241.2 273.4,215.2 282.3,239.2 291.1,226.4 291.1,202.6 291.1,226.4 291.1,253.8 291.1,264.9 300.0,273.0 308.9,269.5 317.7,216.7 317.7,271.7 317.7,255.1 317.7,265.1 317.7,215.2 326.6,228.5 335.4,256.3 344.3,264.3 344.3,207.4 344.3,270.3 344.3,251.3 344.3,261.1 353.1,260.7 362.0,265.0 370.9,228.7 370.9,257.5 370.9,260.8 370.9,262.3 379.7,208.0 388.6,273.7 397.4,224.5 397.4,229.7 397.4,262.3 397.4,231.0 406.3,204.4 415.1,253.8 424.0,203.7 424.0,210.3 424.0,264.3 424.0,272.1 432.9,226.6 441.7,265.1 450.6,264.0 450.6,246.1 450.6,217.9 450.6,221.1 459.4,261.4 468.3,204.5 477.1,195.4 477.1,240.9 477.1,210.7 477.1,207.7 477.1,257.1 486.0,250.0 494.9,272.8 503.7,163.2 503.7,264.7 503.7,261.7 503.7,253.1 503.7,268.7 512.6,202.3 521.4,273.8 530.3,257.7 530.3,209.4 530.3,208.9 530.3,262.7 530.3,224.9 539.1,241.3 548.0,207.7 556.9,179.5 556.9,255.7 556.9,207.8 556.9,257.5 556.9,274.0 565.7,207.7 574.6,203.2 583.4,154.9 583.4,266.4 583.4,264.9 583.4,240.3 583.4,274.0 592.3,271.4 601.1,206.9 610.0,42.0 610.0,271.7 610.0,272.9 610.0,271.6 610.0,206.9 618.9,230.2 627.7,273.0 636.6,256.5 636.6,247.2 636.6,264.5 636.6,211.1 636.6,228.4 645.4,207.6 654.3,272.2 663.1,235.4 663.1,271.7 663.1,258.9 663.1,259.0 663.1,274.0 672.0,205.4 680.9,268.1 689.7,246.9 689.7,225.1 689.7,262.4 689.7,274.0 689.7,262.4 698.6,269.9 707.4,273.6 716.3,173.7 716.3,267.5 716.3,253.0 716.3,231.6 716.3,272.1 725.1,253.1 734.0,268.6 742.9,163.5 742.9,268.6 742.9,273.2 742.9,272.6 742.9,270.5 751.7,260.2 760.6,241.0 769.4,226.9 769.4,238.1 769.4,226.9 769.4,269.7 769.4,216.6 778.3,265.6 787.1,221.0 796.0,261.3 796.0,247.1 796.0,266.8 796.0,245.9 796.0,264.9"/>
<text x="640" y="56" font-family="Arial" font-size="12" fill="#0f766e">robust_nominal NIS</text>
</svg>