<svg xmlns="http://www.w3.org/2000/svg" width="820" height="320" viewBox="0 0 820 320">
<rect width="100%" height="100%" fill="white"/>
<text x="52" y="30" font-family="Arial" font-size="18" font-weight="700">ekf_nominal NIS</text>
<line x1="52" y1="274" x2="796" y2="274" stroke="#263238"/>
<line x1="52" y1="42" x2="52" y2="274" stroke="#263238"/>
<text x="52" y="306" font-family="Arial" font-size="12">time (s)</text>
<text x="630" y="306" font-family="Arial" font-size="12">value</text>

<polyline fill="none" stroke="#0f766e" stroke-width="2.3" points="52.0,272.7 52.0,274.0 52.0,273.5 52.0,268.5 52.0,270.2 60.9,272.1 69.7,272.7 78.6,270.4 78.6,273.7 78.6,273.3 78.6,272.9 78.6,274.0 87.4,274.0 96.3,273.7 105.1,271.1 105.1,273.9 105.1,273.8 105.1,273.7 105.1,274.0 114.0,274.0 122.9,274.0 131.7,270.6 131.7,273.5 131.7,272.4 131.7,273.9 131.7,273.9 140.6,274.0 149.4,270.1 158.3,273.2 158.3,274.0 158.3,273.9 158.3,274.0 158.3,271.3 167.1,273.9 176.0,273.2 184.9,271.6 184.9,273.5 184.9,271.3 184.9,273.4 184.9,273.8 193.7,273.8 202.6,273.6 211.4,271.6 211.4,273.8 211.4,273.8 211.4,274.0 211.4,267.9 220.3,273.8 229.1,273.1 238.0,270.5 238.0,268.6 238.0,273.4 238.0,274.0 238.0,271.4 246.9,273.1 255.7,273.4 264.6,271.7 264.6,273.4 264.6,272.3 264.6,274.0 264.6,271.4 273.4,271.9 282.3,273.2 291.1,272.2 291.1,265.1 291.1,271.4 291.1,272.5 291.1,273.9 300.0,273.0 308.9,273.9 317.7,271.8 317.7,274.0 317.7,273.2 317.7,273.9 317.7,270.8 326.6,271.2 335.4,272.7 344.3,273.7 344.3,268.7 344.3,273.7 344.3,273.3 344.3,273.6 353.1,273.4 362.0,273.6 370.9,272.0 370.9,272.9 370.9,273.5 370.9,273.7 379.7,269.6 388.6,274.0 397.4,272.2 397.4,272.8 397.4,273.6 397.4,272.1 406.3,268.2 415.1,273.6 424.0,268.1 424.0,269.1 424.0,273.9 424.0,274.0 432.9,270.7 441.7,274.0 450.6,273.1 450.6,269.8 450.6,272.1 450.6,270.7 459.4,273.8 468.3,269.7 477.1,272.3 477.1,273.5 477.1,271.6 477.1,269.4 477.1,273.8 486.0,273.5 494.9,273.8 503.7,271.5 503.7,273.5 503.7,274.0 503.7,271.9 503.7,273.5 512.6,266.8 521.4,273.9 530.3,273.2 530.3,271.9 530.3,271.5 530.3,272.5 530.3,273.1 539.1,272.2 548.0,269.8 556.9,271.1 556.9,273.6 556.9,271.1 556.9,273.9 556.9,273.9 565.7,271.4 574.6,267.2 583.4,270.1 583.4,273.7 583.4,274.0 583.4,272.1 583.4,273.9 592.3,273.9 601.1,270.6 610.0,42.0 610.0,273.8 610.0,274.0 610.0,273.8 610.0,270.6 618.9,272.7 627.7,273.9 636.6,273.5 636.6,272.8 636.6,273.1 636.6,270.9 636.6,273.2 645.4,271.5 654.3,274.0 663.1,272.8 663.1,274.0 663.1,273.6 663.1,273.6 663.1,273.9 672.0,270.8 680.9,273.9 689.7,273.3 689.7,272.7 689.7,273.6 689.7,274.0 689.7,273.3 698.6,273.7 707.4,274.0 716.3,267.6 716.3,273.8 716.3,273.3 716.3,272.0 716.3,274.0 725.1,273.1 734.0,273.9 742.9,269.8 742.9,273.9 742.9,274.0 742.9,273.8 742.9,273.9 751.7,273.4 760.6,272.7 769.4,272.6 769.4,272.6 769.4,272.5 769.4,273.9 769.4,271.8 778.3,273.6 787.1,272.2 796.0,273.5 796.0,273.1 796.0,273.6 796.0,273.3 796.0,273.7"/>
<text x="640" y="56" font-family="Arial" font-size="12" fill="#0f766e">ekf_nominal NIS</text>
</svg>