<svg xmlns="http://www.w3.org/2000/svg" width="820" height="320" viewBox="0 0 820 320">
<rect width="100%" height="100%" fill="white"/>
<text x="52" y="30" font-family="Arial" font-size="18" font-weight="700">nominal position error</text>
<line x1="52" y1="274" x2="796" y2="274" stroke="#263238"/>
<line x1="52" y1="42" x2="52" y2="274" stroke="#263238"/>
<text x="52" y="306" font-family="Arial" font-size="12">time (s)</text>
<text x="630" y="306" font-family="Arial" font-size="12">m</text>

<rect x="370.9" y="42" width="79.7" height="232" fill="#fef3c7" opacity="0.72"/>
<polyline fill="none" stroke="#0f766e" stroke-width="2.3" points="52.0,242.2 53.8,239.8 55.5,237.4 57.3,234.9 59.1,232.3 60.9,189.1 62.6,171.2 64.4,153.2 66.2,135.0 67.9,116.7 69.7,189.0 71.5,181.4 73.3,173.7 75.0,166.1 76.8,158.4 78.6,271.8 80.3,272.7 82.1,273.3 83.9,273.8 85.7,274.0 87.4,273.5 89.2,273.3 91.0,272.9 92.7,272.4 94.5,271.6 96.3,264.6 98.1,261.7 99.8,258.8 101.6,255.8 103.4,252.8 105.1,230.7 106.9,227.6 108.7,224.5 110.5,221.4 112.2,218.3 114.0,217.3 115.8,214.3 117.5,211.3 119.3,208.3 121.1,205.2 122.9,200.5 124.6,197.3 126.4,194.0 128.2,190.7 129.9,187.4 131.7,203.2 133.5,198.7 135.3,194.1 137.0,189.3 138.8,184.5 140.6,176.2 142.3,170.9 144.1,165.5 145.9,160.1 147.7,154.5 149.4,177.8 151.2,173.3 153.0,168.7 154.7,163.9 156.5,159.1 158.3,130.5 160.1,125.0 161.8,119.4 163.6,113.7 165.4,107.9 167.1,102.9 168.9,96.9 170.7,90.7 172.5,84.4 174.2,78.1 176.0,68.8 177.8,62.3 179.5,55.6 181.3,48.8 183.1,42.0 184.9,191.2 186.6,190.9 188.4,190.5 190.2,190.2 191.9,189.8 193.7,186.8 195.5,186.4 197.3,186.0 199.0,185.7 200.8,185.4 202.6,188.6 204.3,188.3 206.1,188.1 207.9,187.8 209.7,187.5 211.4,216.5 213.2,210.7 215.0,204.8 216.7,198.6 218.5,192.3 220.3,186.3 222.1,179.5 223.8,172.5 225.6,165.4 227.4,158.2 229.1,147.0 230.9,139.1 232.7,131.1 234.5,122.9 236.2,114.6 238.0,165.9 239.8,160.7 241.5,155.4 243.3,150.0 245.1,144.5 246.9,136.6 248.6,130.6 250.4,124.6 252.2,118.4 253.9,112.1 255.7,108.7 257.5,102.4 259.3,96.0 261.0,89.5 262.8,83.0 264.6,168.9 266.3,164.7 268.1,160.5 269.9,156.3 271.7,151.9 273.4,155.4 275.2,151.3 277.0,147.2 278.7,143.0 280.5,138.7 282.3,136.8 284.1,132.5 285.8,128.2 287.6,123.9 289.4,119.5 291.1,217.6 292.9,215.5 294.7,213.4 296.5,211.2 298.2,208.9 300.0,215.1 301.8,212.9 303.5,210.7 305.3,208.5 307.1,206.2 308.9,205.2 310.6,202.9 312.4,200.5 314.2,198.1 315.9,195.6 317.7,252.6 319.5,252.0 321.3,251.5 323.0,250.9 324.8,250.3 326.6,258.2 328.3,257.5 330.1,256.7 331.9,255.9 333.7,255.0 335.4,246.9 337.2,245.6 339.0,244.3 340.7,243.0 342.5,241.6 344.3,180.0 346.1,176.8 347.8,173.6 349.6,170.4 351.4,167.1 353.1,170.0 354.9,166.8 356.7,163.5 358.5,160.3 360.2,157.0 362.0,158.6 363.8,155.5 365.5,152.2 367.3,149.0 369.1,145.6 370.9,132.3 372.6,128.7 374.4,125.1 376.2,121.4 377.9,117.7 379.7,121.2 381.5,117.6 383.3,114.0 385.0,110.4 386.8,106.8 388.6,103.3 390.3,99.6 392.1,95.8 393.9,92.0 395.7,88.1 397.4,152.6 399.2,150.0 401.0,147.4 402.7,144.8 404.5,142.2 406.3,149.1 408.1,146.6 409.8,144.2 411.6,141.7 413.4,139.2 415.1,137.9 416.9,135.4 418.7,132.9 420.5,130.3 422.2,127.8 424.0,204.1 425.8,203.2 427.5,202.4 429.3,201.6 431.1,200.8 432.9,201.1 434.6,200.3 436.4,199.6 438.2,198.9 439.9,198.1 441.7,197.6 443.5,196.8 445.3,196.0 447.0,195.2 448.8,194.5 450.6,168.9 452.3,167.0 454.1,165.2 455.9,163.3 457.7,161.4 459.4,160.4 461.2,158.5 463.0,156.6 464.7,154.7 466.5,152.8 468.3,152.8 470.1,150.9 471.8,148.9 473.6,146.8 475.4,144.8 477.1,220.2 478.9,218.4 480.7,216.6 482.5,214.8 484.2,213.0 486.0,209.3 487.8,207.4 489.5,205.5 491.3,203.5 493.1,201.6 494.9,200.8 496.6,198.8 498.4,196.8 500.2,194.8 501.9,192.7 503.7,195.5 505.5,193.6 507.3,191.8 509.0,189.9 510.8,188.0 512.6,187.5 514.3,185.5 516.1,183.5 517.9,181.5 519.7,179.5 521.4,177.8 523.2,175.7 525.0,173.6 526.7,171.5 528.5,169.4 530.3,208.8 532.1,207.2 533.8,205.6 535.6,203.9 537.4,202.3 539.1,204.0 540.9,202.3 542.7,200.6 544.5,198.9 546.2,197.1 548.0,195.7 549.8,193.9 551.5,192.1 553.3,190.2 555.1,188.4 556.9,196.0 558.6,194.0 560.4,192.0 562.2,190.0 563.9,187.9 565.7,185.9 567.5,183.8 569.3,181.6 571.0,179.5 572.8,177.4 574.6,173.9 576.3,171.6 578.1,169.4 579.9,167.1 581.7,164.8 583.4,202.7 585.2,201.0 587.0,199.2 588.7,197.5 590.5,195.7 592.3,194.7 594.1,192.9 595.8,191.1 597.6,189.3 599.4,187.5 601.1,188.7 602.9,186.9 604.7,185.1 606.5,183.3 608.2,181.6 610.0,217.3 611.8,215.8 613.5,214.4 615.3,212.9 617.1,211.4 618.9,211.0 620.6,209.5 622.4,208.0 624.2,206.5 625.9,205.0 627.7,203.3 629.5,201.7 631.3,200.1 633.0,198.5 634.8,196.9 636.6,260.1 638.3,259.4 640.1,258.7 641.9,258.0 643.7,257.3 645.4,261.6 647.2,260.9 649.0,260.2 650.7,259.5 652.5,258.8 654.3,258.1 656.1,257.5 657.8,256.8 659.6,256.0 661.4,255.3 663.1,267.2 664.9,266.6 666.7,266.0 668.5,265.4 670.2,264.9 672.0,258.3 673.8,257.7 675.5,257.0 677.3,256.3 679.1,255.6 680.9,253.4 682.6,252.7 684.4,251.9 686.2,251.2 687.9,250.5 689.7,248.4 691.5,247.6 693.3,246.9 695.0,246.2 696.8,245.4 698.6,249.9 700.3,249.2 702.1,248.5 703.9,247.8 705.7,247.1 707.4,246.8 709.2,246.1 711.0,245.4 712.7,244.7 714.5,244.0 716.3,242.5 718.1,241.8 719.8,241.1 721.6,240.4 723.4,239.7 725.1,245.9 726.9,245.3 728.7,244.7 730.5,244.1 732.2,243.5 734.0,240.3 735.8,239.6 737.5,239.0 739.3,238.3 741.1,237.7 742.9,244.4 744.6,243.9 746.4,243.3 748.2,242.8 749.9,242.2 751.7,248.2 753.5,247.7 755.3,247.3 757.0,246.8 758.8,246.4 760.6,254.5 762.3,254.2 764.1,253.8 765.9,253.5 767.7,253.2 769.4,263.6 771.2,263.4 773.0,263.2 774.7,262.9 776.5,262.6 778.3,264.6 780.1,264.2 781.8,263.9 783.6,263.5 785.4,263.1 787.1,257.3 788.9,257.0 790.7,256.8 792.5,256.5 794.2,256.2 796.0,246.2"/>
<text x="640" y="56" font-family="Arial" font-size="12" fill="#0f766e">nominal position error</text>
</svg>