<svg xmlns="http://www.w3.org/2000/svg" width="820" height="320" viewBox="0 0 820 320">
<rect width="100%" height="100%" fill="white"/>
<text x="52" y="30" font-family="Arial" font-size="18" font-weight="700">nominal covariance trace</text>
<line x1="52" y1="274" x2="796" y2="274" stroke="#263238"/>
<line x1="52" y1="42" x2="52" y2="274" stroke="#263238"/>
<text x="52" y="306" font-family="Arial" font-size="12">time (s)</text>
<text x="630" y="306" font-family="Arial" font-size="12">sqrt trace P</text>

<polyline fill="none" stroke="#0f766e" stroke-width="2.3" points="52.0,242.0 53.8,238.6 55.5,229.3 57.3,215.5 59.1,198.9 60.9,198.5 62.6,181.5 64.4,163.6 66.2,145.0 67.9,126.0 69.7,116.5 71.5,98.1 73.3,79.6 75.0,60.9 76.8,42.0 78.6,246.0 80.3,240.9 82.1,235.6 83.9,230.0 85.7,224.1 87.4,225.4 89.2,219.8 91.0,214.0 92.7,208.1 94.5,202.0 96.3,200.1 98.1,194.1 99.8,188.0 101.6,181.8 103.4,175.4 105.1,252.0 106.9,249.0 108.7,245.8 110.5,242.4 112.2,238.9 114.0,239.1 115.8,235.5 117.5,231.8 119.3,227.9 121.1,223.8 122.9,222.7 124.6,218.5 126.4,214.2 128.2,209.8 129.9,205.2 131.7,255.6 133.5,252.8 135.3,249.9 137.0,246.7 138.8,243.4 140.6,243.5 142.3,240.1 144.1,236.5 145.9,232.7 147.7,228.7 149.4,227.7 151.2,223.6 153.0,219.3 154.7,214.9 156.5,210.3 158.3,256.3 160.1,253.5 161.8,250.5 163.6,247.3 165.4,244.0 167.1,244.0 168.9,240.6 170.7,237.0 172.5,233.2 174.2,229.3 176.0,228.1 177.8,224.1 179.5,220.0 181.3,215.7 183.1,211.3 184.9,256.4 186.6,253.8 188.4,251.0 190.2,248.0 191.9,245.0 193.7,244.7 195.5,241.6 197.3,238.3 199.0,234.9 200.8,231.4 202.6,230.2 204.3,226.6 206.1,222.9 207.9,219.0 209.7,215.1 211.4,257.2 213.2,254.8 215.0,252.4 216.7,249.8 218.5,247.1 220.3,246.7 222.1,244.0 223.8,241.2 225.6,238.2 227.4,235.2 229.1,234.1 230.9,231.0 232.7,227.8 234.5,224.6 236.2,221.3 238.0,258.6 239.8,256.5 241.5,254.3 243.3,252.1 245.1,249.8 246.9,249.4 248.6,247.0 250.4,244.6 252.2,242.1 253.9,239.6 255.7,238.6 257.5,236.0 259.3,233.3 261.0,230.6 262.8,227.8 264.6,259.9 266.3,258.0 268.1,256.2 269.9,254.2 271.7,252.2 273.4,251.8 275.2,249.8 277.0,247.7 278.7,245.6 280.5,243.4 282.3,242.5 284.1,240.3 285.8,238.0 287.6,235.7 289.4,233.4 291.1,261.2 292.9,259.6 294.7,258.0 296.5,256.3 298.2,254.5 300.0,254.1 301.8,252.4 303.5,250.5 305.3,248.7 307.1,246.8 308.9,246.1 310.6,244.1 312.4,242.2 314.2,240.2 315.9,238.2 317.7,262.8 319.5,261.3 321.3,259.9 323.0,258.4 324.8,256.9 326.6,256.5 328.3,254.9 330.1,253.3 331.9,251.7 333.7,250.1 335.4,249.4 337.2,247.8 339.0,246.1 340.7,244.3 342.5,242.6 344.3,264.6 346.1,263.3 347.8,262.0 349.6,260.7 351.4,259.3 353.1,259.0 354.9,257.6 356.7,256.2 358.5,254.8 360.2,253.4 362.0,252.8 363.8,251.4 365.5,249.9 367.3,248.3 369.1,246.8 370.9,265.0 372.6,263.8 374.4,262.6 376.2,261.3 377.9,260.1 379.7,259.7 381.5,258.4 383.3,257.1 385.0,255.7 386.8,254.4 388.6,253.8 390.3,252.4 392.1,251.0 393.9,249.6 395.7,248.1 397.4,266.3 399.2,265.2 401.0,264.0 402.7,262.9 404.5,261.7 406.3,261.4 408.1,260.3 409.8,259.0 411.6,257.8 413.4,256.6 415.1,256.1 416.9,254.8 418.7,253.6 420.5,252.2 422.2,250.9 424.0,267.8 425.8,266.8 427.5,265.8 429.3,264.7 431.1,263.7 432.9,263.4 434.6,262.4 436.4,261.3 438.2,260.1 439.9,259.0 441.7,258.6 443.5,257.4 445.3,256.3 447.0,255.1 448.8,253.9 450.6,269.3 452.3,268.4 454.1,267.5 455.9,266.5 457.7,265.6 459.4,265.4 461.2,264.5 463.0,263.5 464.7,262.5 466.5,261.5 468.3,261.2 470.1,260.2 471.8,259.2 473.6,258.1 475.4,257.0 477.1,271.7 478.9,270.9 480.7,270.1 482.5,269.2 484.2,268.3 486.0,268.2 487.8,267.3 489.5,266.4 491.3,265.5 493.1,264.6 494.9,264.4 496.6,263.4 498.4,262.5 500.2,261.5 501.9,260.6 503.7,273.1 505.5,272.3 507.3,271.5 509.0,270.7 510.8,269.9 512.6,269.8 514.3,268.9 516.1,268.1 517.9,267.2 519.7,266.4 521.4,266.2 523.2,265.3 525.0,264.4 526.7,263.5 528.5,262.6 530.3,273.7 532.1,273.0 533.8,272.2 535.6,271.5 537.4,270.7 539.1,270.6 540.9,269.8 542.7,269.0 544.5,268.2 546.2,267.4 548.0,267.2 549.8,266.3 551.5,265.5 553.3,264.6 555.1,263.8 556.9,274.0 558.6,273.3 560.4,272.6 562.2,271.8 563.9,271.1 565.7,271.0 567.5,270.2 569.3,269.4 571.0,268.6 572.8,267.9 574.6,267.7 576.3,266.9 578.1,266.1 579.9,265.2 581.7,264.4 583.4,274.0 585.2,273.3 587.0,272.6 588.7,271.8 590.5,271.1 592.3,271.0 594.1,270.3 595.8,269.5 597.6,268.8 599.4,268.0 601.1,267.8 602.9,267.1 604.7,266.3 606.5,265.5 608.2,264.7 610.0,272.7 611.8,272.0 613.5,271.3 615.3,270.6 617.1,269.8 618.9,269.7 620.6,269.0 622.4,268.3 624.2,267.5 625.9,266.8 627.7,266.6 629.5,265.8 631.3,265.0 633.0,264.2 634.8,263.4 636.6,272.6 638.3,272.0 640.1,271.3 641.9,270.6 643.7,269.9 645.4,269.8 647.2,269.1 649.0,268.3 650.7,267.6 652.5,266.9 654.3,266.7 656.1,266.0 657.8,265.2 659.6,264.5 661.4,263.7 663.1,272.4 664.9,271.7 666.7,271.0 668.5,270.4 670.2,269.7 672.0,269.6 673.8,268.9 675.5,268.2 677.3,267.5 679.1,266.8 680.9,266.6 682.6,265.9 684.4,265.1 686.2,264.4 687.9,263.6 689.7,271.9 691.5,271.3 693.3,270.6 695.0,270.0 696.8,269.3 698.6,269.2 700.3,268.5 702.1,267.8 703.9,267.1 705.7,266.4 707.4,266.3 709.2,265.6 711.0,264.8 712.7,264.1 714.5,263.4 716.3,271.4 718.1,270.8 719.8,270.1 721.6,269.5 723.4,268.8 725.1,268.7 726.9,268.0 728.7,267.4 730.5,266.7 732.2,266.0 734.0,265.8 735.8,265.1 737.5,264.4 739.3,263.7 741.1,263.0 742.9,270.8 744.6,270.2 746.4,269.5 748.2,268.9 749.9,268.2 751.7,268.1 753.5,267.4 755.3,266.8 757.0,266.1 758.8,265.4 760.6,265.2 762.3,264.5 764.1,263.9 765.9,263.1 767.7,262.4 769.4,270.1 771.2,269.5 773.0,268.9 774.7,268.2 776.5,267.6 778.3,267.4 780.1,266.8 781.8,266.1 783.6,265.5 785.4,264.8 787.1,264.6 788.9,263.9 790.7,263.2 792.5,262.5 794.2,261.8 796.0,269.4"/>
<text x="640" y="56" font-family="Arial" font-size="12" fill="#0f766e">nominal covariance trace</text>
</svg>