<svg xmlns="http://www.w3.org/2000/svg" width="820" height="320" viewBox="0 0 820 320">
<rect width="100%" height="100%" fill="white"/>
<text x="52" y="30" font-family="Arial" font-size="18" font-weight="700">robust_nominal position error</text>
<line x1="52" y1="274" x2="796" y2="274" stroke="#263238"/>
<line x1="52" y1="42" x2="52" y2="274" stroke="#263238"/>
<text x="52" y="306" font-family="Arial" font-size="12">time (s)</text>
<text x="630" y="306" font-family="Arial" font-size="12">m</text>

<rect x="370.9" y="42" width="79.7" height="232" fill="#fef3c7" opacity="0.72"/>
<polyline fill="none" stroke="#0f766e" stroke-width="2.3" points="52.0,126.4 53.8,123.2 55.5,120.0 57.3,116.8 59.1,113.6 60.9,107.3 62.6,100.0 64.4,92.1 66.2,83.6 67.9,74.5 69.7,90.2 71.5,84.8 73.3,79.3 75.0,73.5 76.8,67.7 78.6,249.0 80.3,254.9 82.1,259.7 83.9,262.6 85.7,262.6 87.4,261.9 89.2,256.9 91.0,250.9 92.7,244.5 94.5,237.8 96.3,232.1 98.1,224.8 99.8,217.6 101.6,210.3 103.4,203.1 105.1,215.0 106.9,209.5 108.7,204.0 110.5,198.4 112.2,192.7 114.0,187.4 115.8,181.8 117.5,176.1 119.3,170.3 121.1,164.6 122.9,157.0 124.6,151.1 126.4,145.2 128.2,139.3 129.9,133.3 131.7,211.4 133.5,208.7 135.3,205.9 137.0,203.0 138.8,200.0 140.6,190.5 142.3,186.8 144.1,183.1 145.9,179.3 147.7,175.3 149.4,199.8 151.2,197.3 153.0,194.6 154.7,191.9 156.5,189.0 158.3,151.5 160.1,146.6 161.8,141.5 163.6,136.3 165.4,130.9 167.1,130.5 168.9,124.8 170.7,119.0 172.5,113.1 174.2,106.9 176.0,95.8 177.8,89.3 179.5,82.6 181.3,75.8 183.1,68.8 184.9,180.9 186.6,178.5 188.4,175.9 190.2,173.2 191.9,170.4 193.7,165.0 195.5,162.1 197.3,159.0 199.0,155.8 200.8,152.6 202.6,153.6 204.3,150.2 206.1,146.7 207.9,143.0 209.7,139.3 211.4,261.7 213.2,263.1 215.0,264.5 216.7,265.6 218.5,266.5 220.3,274.0 222.1,271.6 223.8,269.0 225.6,266.3 227.4,263.5 229.1,239.3 230.9,235.7 232.7,232.0 234.5,228.2 236.2,224.4 238.0,124.5 239.8,119.4 241.5,114.1 243.3,108.7 245.1,103.3 246.9,93.9 248.6,88.1 250.4,82.1 252.2,76.1 253.9,69.9 255.7,71.8 257.5,65.9 259.3,60.0 261.0,53.9 262.8,47.8 264.6,148.4 266.3,145.0 268.1,141.5 269.9,138.0 271.7,134.4 273.4,141.9 275.2,138.8 277.0,135.6 278.7,132.4 280.5,129.1 282.3,132.0 284.1,129.0 285.8,125.9 287.6,122.8 289.4,119.7 291.1,231.7 292.9,230.7 294.7,229.7 296.5,228.6 298.2,227.4 300.0,225.1 301.8,223.8 303.5,222.5 305.3,221.1 307.1,219.7 308.9,220.1 310.6,218.6 312.4,217.0 314.2,215.4 315.9,213.7 317.7,255.4 319.5,255.3 321.3,255.0 323.0,254.7 324.8,254.3 326.6,243.3 328.3,242.4 330.1,241.4 331.9,240.3 333.7,239.1 335.4,226.7 337.2,225.1 339.0,223.6 340.7,222.0 342.5,220.4 344.3,161.7 346.1,158.3 347.8,154.8 349.6,151.2 351.4,147.6 353.1,150.4 354.9,146.8 356.7,143.1 358.5,139.4 360.2,135.7 362.0,136.2 363.8,132.6 365.5,128.8 367.3,125.0 369.1,121.2 370.9,108.4 372.6,104.2 374.4,99.8 376.2,95.5 377.9,91.1 379.7,90.5 381.5,86.1 383.3,81.6 385.0,77.1 386.8,72.6 388.6,68.2 390.3,63.6 392.1,58.8 393.9,54.1 395.7,49.3 397.4,124.5 399.2,121.3 401.0,118.0 402.7,114.8 404.5,111.5 406.3,113.3 408.1,110.1 409.8,106.8 411.6,103.5 413.4,100.1 415.1,99.8 416.9,96.5 418.7,93.1 420.5,89.6 422.2,86.2 424.0,151.8 425.8,149.8 427.5,147.8 429.3,145.7 431.1,143.7 432.9,137.0 434.6,134.9 436.4,132.8 438.2,130.7 439.9,128.5 441.7,128.7 443.5,126.6 445.3,124.4 447.0,122.2 448.8,120.0 450.6,84.7 452.3,81.5 454.1,78.2 455.9,75.0 457.7,71.6 459.4,70.5 461.2,67.1 463.0,63.8 464.7,60.5 466.5,57.1 468.3,56.0 470.1,52.6 471.8,49.1 473.6,45.6 475.4,42.0 477.1,151.9 478.9,149.9 480.7,147.9 482.5,145.9 484.2,143.8 486.0,141.5 487.8,139.3 489.5,137.2 491.3,135.0 493.1,132.8 494.9,130.8 496.6,128.5 498.4,126.2 500.2,123.9 501.9,121.6 503.7,155.7 505.5,153.7 507.3,151.7 509.0,149.6 510.8,147.6 512.6,146.0 514.3,143.9 516.1,141.8 517.9,139.6 519.7,137.4 521.4,135.2 523.2,133.0 525.0,130.6 526.7,128.3 528.5,125.9 530.3,172.0 532.1,170.4 533.8,168.8 535.6,167.1 537.4,165.4 539.1,164.6 540.9,162.8 542.7,161.0 544.5,159.1 546.2,157.2 548.0,153.7 549.8,151.7 551.5,149.7 553.3,147.6 555.1,145.5 556.9,180.0 558.6,178.0 560.4,175.9 562.2,173.8 563.9,171.6 565.7,171.2 567.5,169.0 569.3,166.8 571.0,164.7 572.8,162.5 574.6,158.9 576.3,156.6 578.1,154.2 579.9,151.9 581.7,149.5 583.4,188.7 585.2,186.9 587.0,185.0 588.7,183.0 590.5,181.1 592.3,180.1 594.1,178.1 595.8,176.1 597.6,174.1 599.4,172.1 601.1,172.8 602.9,170.9 604.7,168.9 606.5,166.9 608.2,164.9 610.0,187.6 611.8,185.8 613.5,183.9 615.3,182.0 617.1,180.1 618.9,180.4 620.6,178.5 622.4,176.6 624.2,174.6 625.9,172.7 627.7,170.5 629.5,168.5 631.3,166.4 633.0,164.4 634.8,162.3 636.6,226.1 638.3,224.9 640.1,223.7 641.9,222.5 643.7,221.3 645.4,225.0 647.2,223.8 649.0,222.7 650.7,221.5 652.5,220.4 654.3,219.7 656.1,218.6 657.8,217.5 659.6,216.3 661.4,215.1 663.1,245.1 664.9,244.1 666.7,243.1 668.5,242.2 670.2,241.1 672.0,240.5 673.8,239.5 675.5,238.4 677.3,237.4 679.1,236.3 680.9,234.1 682.6,233.1 684.4,232.1 686.2,231.0 687.9,230.0 689.7,233.5 691.5,232.6 693.3,231.8 695.0,231.0 696.8,230.1 698.6,231.9 700.3,231.1 702.1,230.2 703.9,229.4 705.7,228.5 707.4,226.8 709.2,225.9 711.0,225.0 712.7,224.1 714.5,223.2 716.3,219.0 718.1,218.1 719.8,217.1 721.6,216.2 723.4,215.2 725.1,218.9 726.9,218.0 728.7,217.1 730.5,216.1 732.2,215.2 734.0,212.1 735.8,211.1 737.5,210.1 739.3,209.2 741.1,208.2 742.9,225.3 744.6,224.6 746.4,223.9 748.2,223.1 749.9,222.3 751.7,226.3 753.5,225.5 755.3,224.8 757.0,224.0 758.8,223.3 760.6,228.2 762.3,227.5 764.1,226.8 765.9,226.0 767.7,225.3 769.4,242.4 771.2,242.1 773.0,241.7 774.7,241.2 776.5,240.8 778.3,241.4 780.1,240.9 781.8,240.5 783.6,240.0 785.4,239.4 787.1,235.6 788.9,235.2 790.7,234.7 792.5,234.3 794.2,233.9 796.0,229.4"/>
<text x="640" y="56" font-family="Arial" font-size="12" fill="#0f766e">robust_nominal position error</text>
</svg>