<svg xmlns="http://www.w3.org/2000/svg" width="820" height="320" viewBox="0 0 820 320">
<rect width="100%" height="100%" fill="white"/>
<text x="52" y="30" font-family="Arial" font-size="18" font-weight="700">sqrt_nominal position error</text>
<line x1="52" y1="274" x2="796" y2="274" stroke="#263238"/>
<line x1="52" y1="42" x2="52" y2="274" stroke="#263238"/>
<text x="52" y="306" font-family="Arial" font-size="12">time (s)</text>
<text x="630" y="306" font-family="Arial" font-size="12">m</text>

<rect x="370.9" y="42" width="79.7" height="232" fill="#fef3c7" opacity="0.72"/>
<polyline fill="none" stroke="#0f766e" stroke-width="2.3" points="52.0,186.7 53.8,182.6 55.5,178.4 57.3,174.2 59.1,170.0 60.9,172.4 62.6,170.1 64.4,167.8 66.2,165.3 67.9,162.8 69.7,157.5 71.5,154.8 73.3,152.0 75.0,149.1 76.8,146.2 78.6,206.3 80.3,205.4 82.1,204.2 83.9,202.7 85.7,200.9 87.4,201.4 89.2,199.6 91.0,197.5 92.7,195.0 94.5,192.1 96.3,188.0 98.1,184.3 99.8,180.2 101.6,175.7 103.4,170.8 105.1,171.9 106.9,168.9 108.7,165.8 110.5,162.6 112.2,159.4 114.0,157.6 115.8,154.2 117.5,150.8 119.3,147.2 121.1,143.6 122.9,139.2 124.6,135.4 126.4,131.4 128.2,127.3 129.9,123.1 131.7,160.4 133.5,158.0 135.3,155.5 137.0,152.7 138.8,149.6 140.6,144.0 142.3,140.4 144.1,136.5 145.9,132.5 147.7,128.3 149.4,151.5 151.2,147.9 153.0,144.1 154.7,140.2 156.5,135.9 158.3,209.9 160.1,209.8 161.8,209.7 163.6,209.5 165.4,209.0 167.1,215.2 168.9,214.5 170.7,213.7 172.5,212.6 174.2,211.3 176.0,201.5 177.8,199.8 179.5,197.8 181.3,195.7 183.1,193.4 184.9,253.0 186.6,255.2 188.4,257.0 190.2,258.4 191.9,259.3 193.7,254.4 195.5,254.1 197.3,253.3 199.0,251.9 200.8,249.9 202.6,257.9 204.3,254.2 206.1,250.0 207.9,245.4 209.7,240.5 211.4,244.4 213.2,244.3 215.0,244.1 216.7,243.9 218.5,243.6 220.3,259.1 222.1,258.9 223.8,258.7 225.6,258.4 227.4,258.0 229.1,274.0 230.9,272.3 232.7,270.4 234.5,268.3 236.2,266.1 238.0,210.9 239.8,210.6 241.5,210.2 243.3,209.9 245.1,209.6 246.9,208.2 248.6,207.2 250.4,206.2 252.2,205.1 253.9,204.0 255.7,205.0 257.5,204.0 259.3,203.0 261.0,201.8 262.8,200.6 264.6,224.8 266.3,223.2 268.1,221.7 269.9,220.0 271.7,218.4 273.4,222.0 275.2,220.7 277.0,219.4 278.7,218.0 280.5,216.6 282.3,218.3 284.1,217.2 285.8,216.1 287.6,215.0 289.4,213.9 291.1,252.0 292.9,252.1 294.7,252.2 296.5,252.3 298.2,252.3 300.0,256.9 301.8,256.7 303.5,256.6 305.3,256.3 307.1,256.1 308.9,255.8 310.6,255.6 312.4,255.2 314.2,254.9 315.9,254.5 317.7,216.1 319.5,215.7 321.3,215.2 323.0,214.8 324.8,214.2 326.6,213.2 328.3,212.4 330.1,211.5 331.9,210.7 333.7,209.8 335.4,203.6 337.2,202.3 339.0,200.9 340.7,199.4 342.5,197.9 344.3,227.6 346.1,226.1 347.8,224.6 349.6,223.0 351.4,221.3 353.1,224.7 354.9,223.0 356.7,221.3 358.5,219.4 360.2,217.4 362.0,221.1 363.8,219.2 365.5,217.2 367.3,215.1 369.1,212.9 370.9,229.0 372.6,227.2 374.4,225.3 376.2,223.3 377.9,221.3 379.7,249.2 381.5,247.8 383.3,246.4 385.0,244.8 386.8,243.2 388.6,243.8 390.3,242.1 392.1,240.3 393.9,238.4 395.7,236.5 397.4,215.0 399.2,212.5 401.0,210.0 402.7,207.5 404.5,204.9 406.3,238.8 408.1,236.8 409.8,234.7 411.6,232.5 413.4,230.3 415.1,237.1 416.9,235.0 418.7,232.7 420.5,230.4 422.2,228.1 424.0,241.5 425.8,239.4 427.5,237.1 429.3,234.9 431.1,232.6 432.9,224.2 434.6,221.7 436.4,219.2 438.2,216.7 439.9,214.1 441.7,213.4 443.5,210.8 445.3,208.2 447.0,205.5 448.8,202.8 450.6,194.6 452.3,191.7 454.1,188.8 455.9,185.9 457.7,183.0 459.4,184.0 461.2,181.2 463.0,178.3 464.7,175.4 466.5,172.5 468.3,178.4 470.1,175.6 471.8,172.7 473.6,169.7 475.4,166.7 477.1,224.8 478.9,224.5 480.7,224.2 482.5,224.0 484.2,223.7 486.0,218.9 487.8,218.5 489.5,218.0 491.3,217.5 493.1,217.0 494.9,221.2 496.6,220.8 498.4,220.4 500.2,219.9 501.9,219.5 503.7,97.4 505.5,95.9 507.3,94.4 509.0,92.9 510.8,91.4 512.6,94.6 514.3,93.2 516.1,91.8 517.9,90.5 519.7,89.1 521.4,87.7 523.2,86.4 525.0,85.1 526.7,83.8 528.5,82.5 530.3,171.0 532.1,170.7 533.8,170.5 535.6,170.2 537.4,170.0 539.1,170.7 540.9,170.4 542.7,170.2 544.5,169.9 546.2,169.6 548.0,166.7 549.8,166.3 551.5,166.0 553.3,165.7 555.1,165.3 556.9,137.8 558.6,136.9 560.4,136.1 562.2,135.2 563.9,134.3 565.7,133.6 567.5,132.8 569.3,132.0 571.0,131.1 572.8,130.2 574.6,127.7 576.3,126.8 578.1,125.8 579.9,124.9 581.7,123.9 583.4,87.7 585.2,86.2 587.0,84.7 588.7,83.2 590.5,81.8 592.3,80.3 594.1,78.8 595.8,77.2 597.6,75.6 599.4,74.1 601.1,73.2 602.9,71.6 604.7,70.0 606.5,68.4 608.2,66.9 610.0,65.3 611.8,63.7 613.5,62.1 615.3,60.6 617.1,59.0 618.9,57.1 620.6,55.4 622.4,53.7 624.2,52.0 625.9,50.3 627.7,48.9 629.5,47.2 631.3,45.4 633.0,43.7 634.8,42.0 636.6,119.4 638.3,118.5 640.1,117.6 641.9,116.8 643.7,115.9 645.4,114.8 647.2,113.9 649.0,112.9 650.7,111.9 652.5,111.0 654.3,110.0 656.1,109.1 657.8,108.1 659.6,107.1 661.4,106.2 663.1,163.4 664.9,162.5 666.7,161.7 668.5,160.9 670.2,160.0 672.0,155.8 673.8,154.8 675.5,153.8 677.3,152.8 679.1,151.7 680.9,150.1 682.6,149.0 684.4,148.0 686.2,146.9 687.9,145.9 689.7,188.3 691.5,188.3 693.3,188.3 695.0,188.2 696.8,188.2 698.6,191.4 700.3,191.5 702.1,191.5 703.9,191.5 705.7,191.5 707.4,191.6 709.2,191.6 711.0,191.5 712.7,191.5 714.5,191.4 716.3,146.8 718.1,145.4 719.8,144.1 721.6,142.8 723.4,141.5 725.1,144.4 726.9,143.2 728.7,142.0 730.5,140.7 732.2,139.5 734.0,136.9 735.8,135.6 737.5,134.4 739.3,133.1 741.1,131.8 742.9,181.1 744.6,179.8 746.4,178.5 748.2,177.2 749.9,175.9 751.7,179.5 753.5,178.3 755.3,177.1 757.0,175.9 758.8,174.7 760.6,179.8 762.3,178.6 764.1,177.5 765.9,176.4 767.7,175.3 769.4,174.0 771.2,173.0 773.0,172.1 774.7,171.1 776.5,170.2 778.3,170.0 780.1,169.1 781.8,168.0 783.6,167.0 785.4,166.0 787.1,162.9 788.9,161.9 790.7,160.8 792.5,159.8 794.2,158.7 796.0,187.6"/>
<text x="640" y="56" font-family="Arial" font-size="12" fill="#0f766e">sqrt_nominal position error</text>
</svg>