<svg xmlns="http://www.w3.org/2000/svg" width="820" height="320" viewBox="0 0 820 320">
<rect width="100%" height="100%" fill="white"/>
<text x="52" y="30" font-family="Arial" font-size="18" font-weight="700">particle_nominal position error</text>
<line x1="52" y1="274" x2="796" y2="274" stroke="#263238"/>
<line x1="52" y1="42" x2="52" y2="274" stroke="#263238"/>
<text x="52" y="306" font-family="Arial" font-size="12">time (s)</text>
<text x="630" y="306" font-family="Arial" font-size="12">m</text>

<rect x="370.9" y="42" width="79.7" height="232" fill="#fef3c7" opacity="0.72"/>
<polyline fill="none" stroke="#0f766e" stroke-width="2.3" points="52.0,274.0 53.8,273.9 55.5,273.8 57.3,273.7 59.1,273.6 60.9,268.4 62.6,268.3 64.4,268.3 66.2,268.2 67.9,268.2 69.7,266.7 71.5,266.6 73.3,266.5 75.0,266.4 76.8,266.3 78.6,270.2 80.3,270.3 82.1,270.3 83.9,270.3 85.7,270.3 87.4,270.6 89.2,270.5 91.0,270.5 92.7,270.4 94.5,270.3 96.3,270.4 98.1,270.2 99.8,270.1 101.6,269.8 103.4,269.6 105.1,268.4 106.9,268.3 108.7,268.1 110.5,267.9 112.2,267.7 114.0,267.5 115.8,267.3 117.5,267.0 119.3,266.7 121.1,266.4 122.9,266.1 124.6,265.7 126.4,265.4 128.2,265.0 129.9,264.7 131.7,269.4 133.5,269.1 135.3,268.7 137.0,268.4 138.8,268.0 140.6,268.0 142.3,267.6 144.1,267.2 145.9,266.8 147.7,266.3 149.4,267.3 151.2,266.9 153.0,266.5 154.7,266.0 156.5,265.6 158.3,268.3 160.1,267.9 161.8,267.5 163.6,267.1 165.4,266.6 167.1,268.1 168.9,267.6 170.7,267.1 172.5,266.6 174.2,266.1 176.0,266.4 177.8,265.8 179.5,265.3 181.3,264.7 183.1,264.1 184.9,267.4 186.6,266.9 188.4,266.3 190.2,265.7 191.9,265.2 193.7,265.8 195.5,265.2 197.3,264.6 199.0,264.0 200.8,263.4 202.6,264.0 204.3,263.4 206.1,262.7 207.9,262.0 209.7,261.4 211.4,262.8 213.2,262.2 215.0,261.6 216.7,260.9 218.5,260.2 220.3,260.7 222.1,260.0 223.8,259.3 225.6,258.7 227.4,258.0 229.1,258.4 230.9,257.7 232.7,257.0 234.5,256.4 236.2,255.7 238.0,258.0 239.8,257.3 241.5,256.7 243.3,256.1 245.1,255.4 246.9,256.3 248.6,255.6 250.4,254.9 252.2,254.2 253.9,253.5 255.7,253.6 257.5,252.9 259.3,252.1 261.0,251.4 262.8,250.7 264.6,254.5 266.3,253.8 268.1,253.1 269.9,252.4 271.7,251.7 273.4,252.0 275.2,251.3 277.0,250.5 278.7,249.8 280.5,249.0 282.3,248.8 284.1,248.1 285.8,247.3 287.6,246.5 289.4,245.7 291.1,250.6 292.9,249.8 294.7,249.1 296.5,248.4 298.2,247.6 300.0,249.1 301.8,248.3 303.5,247.6 305.3,246.8 307.1,246.0 308.9,246.0 310.6,245.2 312.4,244.4 314.2,243.5 315.9,242.7 317.7,246.6 319.5,245.8 321.3,245.0 323.0,244.3 324.8,243.5 326.6,245.6 328.3,244.8 330.1,244.0 331.9,243.2 333.7,242.4 335.4,242.9 337.2,242.0 339.0,241.2 340.7,240.4 342.5,239.5 344.3,243.9 346.1,243.0 347.8,242.2 349.6,241.3 351.4,240.5 353.1,241.5 354.9,240.6 356.7,239.8 358.5,238.9 360.2,238.0 362.0,238.5 363.8,237.6 365.5,236.7 367.3,235.8 369.1,234.9 370.9,238.0 372.6,237.0 374.4,236.1 376.2,235.2 377.9,234.2 379.7,234.9 381.5,234.0 383.3,233.0 385.0,232.0 386.8,231.0 388.6,230.9 390.3,229.9 392.1,229.0 393.9,228.0 395.7,227.1 397.4,229.2 399.2,228.2 401.0,227.2 402.7,226.2 404.5,225.2 406.3,226.2 408.1,225.2 409.8,224.2 411.6,223.2 413.4,222.2 415.1,222.3 416.9,221.2 418.7,220.2 420.5,219.2 422.2,218.2 424.0,222.8 425.8,221.8 427.5,220.7 429.3,219.7 431.1,218.6 432.9,219.6 434.6,218.5 436.4,217.5 438.2,216.4 439.9,215.4 441.7,215.4 443.5,214.3 445.3,213.3 447.0,212.2 448.8,211.1 450.6,213.3 452.3,212.2 454.1,211.1 455.9,210.0 457.7,208.9 459.4,210.3 461.2,209.2 463.0,208.1 464.7,206.9 466.5,205.8 468.3,206.2 470.1,205.0 471.8,203.9 473.6,202.7 475.4,201.5 477.1,206.2 478.9,205.0 480.7,203.8 482.5,202.6 484.2,201.4 486.0,202.7 487.8,201.4 489.5,200.2 491.3,199.0 493.1,197.7 494.9,199.1 496.6,197.8 498.4,196.6 500.2,195.3 501.9,194.0 503.7,197.6 505.5,196.4 507.3,195.1 509.0,193.9 510.8,192.6 512.6,193.6 514.3,192.3 516.1,191.0 517.9,189.7 519.7,188.4 521.4,188.5 523.2,187.2 525.0,185.8 526.7,184.5 528.5,183.1 530.3,186.6 532.1,185.2 533.8,183.9 535.6,182.6 537.4,181.2 539.1,182.0 540.9,180.7 542.7,179.3 544.5,177.9 546.2,176.6 548.0,176.4 549.8,175.1 551.5,173.7 553.3,172.3 555.1,170.9 556.9,175.1 558.6,173.7 560.4,172.3 562.2,170.9 563.9,169.5 565.7,170.6 567.5,169.2 569.3,167.8 571.0,166.4 572.8,164.9 574.6,165.0 576.3,163.6 578.1,162.1 579.9,160.7 581.7,159.2 583.4,163.7 585.2,162.3 587.0,160.9 588.7,159.4 590.5,158.0 592.3,160.0 594.1,158.6 595.8,157.1 597.6,155.6 599.4,154.1 601.1,154.7 602.9,153.1 604.7,151.6 606.5,150.1 608.2,148.6 610.0,153.0 611.8,151.5 613.5,150.0 615.3,148.4 617.1,146.9 618.9,147.0 620.6,145.5 622.4,143.9 624.2,142.4 625.9,140.8 627.7,140.8 629.5,139.2 631.3,137.7 633.0,136.1 634.8,134.5 636.6,137.3 638.3,135.8 640.1,134.2 641.9,132.6 643.7,131.1 645.4,131.2 647.2,129.6 649.0,128.0 650.7,126.4 652.5,124.8 654.3,126.1 656.1,124.5 657.8,122.9 659.6,121.3 661.4,119.7 663.1,124.5 664.9,122.9 666.7,121.3 668.5,119.7 670.2,118.2 672.0,119.4 673.8,117.8 675.5,116.1 677.3,114.5 679.1,112.8 680.9,113.2 682.6,111.5 684.4,109.8 686.2,108.1 687.9,106.5 689.7,111.0 691.5,109.3 693.3,107.6 695.0,105.9 696.8,104.2 698.6,104.4 700.3,102.7 702.1,100.9 703.9,99.2 705.7,97.5 707.4,98.2 709.2,96.5 711.0,94.8 712.7,93.0 714.5,91.3 716.3,95.3 718.1,93.6 719.8,91.8 721.6,90.0 723.4,88.3 725.1,90.5 726.9,88.7 728.7,87.0 730.5,85.2 732.2,83.4 734.0,83.4 735.8,81.6 737.5,79.8 739.3,78.0 741.1,76.1 742.9,80.6 744.6,78.8 746.4,77.0 748.2,75.2 749.9,73.4 751.7,73.5 753.5,71.7 755.3,69.8 757.0,68.0 758.8,66.1 760.6,66.5 762.3,64.6 764.1,62.8 765.9,60.9 767.7,59.0 769.4,63.7 771.2,61.8 773.0,59.9 774.7,58.0 776.5,56.1 778.3,58.1 780.1,56.2 781.8,54.2 783.6,52.3 785.4,50.3 787.1,50.0 788.9,48.0 790.7,46.0 792.5,44.0 794.2,42.0 796.0,45.2"/>
<text x="640" y="56" font-family="Arial" font-size="12" fill="#0f766e">particle_nominal position error</text>
</svg>