<svg xmlns="http://www.w3.org/2000/svg" width="820" height="320" viewBox="0 0 820 320">
<rect width="100%" height="100%" fill="white"/>
<text x="52" y="30" font-family="Arial" font-size="18" font-weight="700">abg_nominal position error</text>
<line x1="52" y1="274" x2="796" y2="274" stroke="#263238"/>
<line x1="52" y1="42" x2="52" y2="274" stroke="#263238"/>
<text x="52" y="306" font-family="Arial" font-size="12">time (s)</text>
<text x="630" y="306" font-family="Arial" font-size="12">m</text>

<rect x="370.9" y="42" width="79.7" height="232" fill="#fef3c7" opacity="0.72"/>
<polyline fill="none" stroke="#0f766e" stroke-width="2.3" points="52.0,274.0 53.8,273.5 55.5,272.9 57.3,272.3 59.1,271.8 60.9,271.2 62.6,270.7 64.4,270.1 66.2,269.6 67.9,269.0 69.7,268.5 71.5,267.9 73.3,267.3 75.0,266.8 76.8,266.2 78.6,265.7 80.3,265.2 82.1,264.6 83.9,264.0 85.7,263.5 87.4,263.0 89.2,262.4 91.0,261.8 92.7,261.3 94.5,260.7 96.3,260.2 98.1,259.6 99.8,259.1 101.6,258.5 103.4,258.0 105.1,257.4 106.9,256.9 108.7,256.3 110.5,255.8 112.2,255.2 114.0,254.7 115.8,254.1 117.5,253.6 119.3,253.0 121.1,252.5 122.9,251.9 124.6,251.4 126.4,250.8 128.2,250.3 129.9,249.7 131.7,249.2 133.5,248.6 135.3,248.0 137.0,247.5 138.8,246.9 140.6,246.4 142.3,245.8 144.1,245.3 145.9,244.7 147.7,244.2 149.4,243.6 151.2,243.1 153.0,242.5 154.7,242.0 156.5,241.4 158.3,240.9 160.1,240.3 161.8,239.8 163.6,239.2 165.4,238.7 167.1,238.1 168.9,237.5 170.7,237.0 172.5,236.4 174.2,235.9 176.0,235.3 177.8,234.8 179.5,234.2 181.3,233.7 183.1,233.1 184.9,232.6 186.6,232.0 188.4,231.5 190.2,230.9 191.9,230.4 193.7,229.8 195.5,229.3 197.3,228.7 199.0,228.2 200.8,227.6 202.6,227.1 204.3,226.5 206.1,225.9 207.9,225.4 209.7,224.8 211.4,224.3 213.2,223.7 215.0,223.2 216.7,222.6 218.5,222.1 220.3,221.5 222.1,221.0 223.8,220.4 225.6,219.9 227.4,219.3 229.1,218.8 230.9,218.2 232.7,217.7 234.5,217.1 236.2,216.6 238.0,216.0 239.8,215.4 241.5,214.9 243.3,214.3 245.1,213.8 246.9,213.2 248.6,212.7 250.4,212.1 252.2,211.6 253.9,211.0 255.7,210.5 257.5,209.9 259.3,209.4 261.0,208.8 262.8,208.3 264.6,207.7 266.3,207.2 268.1,206.6 269.9,206.1 271.7,205.5 273.4,205.0 275.2,204.4 277.0,203.8 278.7,203.3 280.5,202.7 282.3,202.2 284.1,201.6 285.8,201.1 287.6,200.5 289.4,200.0 291.1,199.4 292.9,198.9 294.7,198.3 296.5,197.8 298.2,197.2 300.0,196.7 301.8,196.1 303.5,195.6 305.3,195.0 307.1,194.5 308.9,193.9 310.6,193.3 312.4,192.8 314.2,192.2 315.9,191.7 317.7,191.1 319.5,190.6 321.3,190.0 323.0,189.5 324.8,188.9 326.6,188.4 328.3,187.8 330.1,187.3 331.9,186.7 333.7,186.2 335.4,185.6 337.2,185.1 339.0,184.5 340.7,184.0 342.5,183.4 344.3,182.9 346.1,182.3 347.8,181.7 349.6,181.2 351.4,180.6 353.1,180.1 354.9,179.5 356.7,179.0 358.5,178.4 360.2,177.9 362.0,177.3 363.8,176.8 365.5,176.2 367.3,175.7 369.1,175.1 370.9,174.6 372.6,174.0 374.4,173.5 376.2,172.9 377.9,172.4 379.7,171.8 381.5,171.2 383.3,170.7 385.0,170.1 386.8,169.6 388.6,169.0 390.3,168.5 392.1,167.9 393.9,167.4 395.7,166.8 397.4,166.3 399.2,165.7 401.0,165.2 402.7,164.6 404.5,164.1 406.3,163.5 408.1,163.0 409.8,162.4 411.6,161.9 413.4,161.3 415.1,160.8 416.9,160.2 418.7,159.6 420.5,159.1 422.2,158.5 424.0,158.0 425.8,157.4 427.5,156.9 429.3,156.3 431.1,155.8 432.9,155.2 434.6,154.7 436.4,154.1 438.2,153.6 439.9,153.0 441.7,152.5 443.5,151.9 445.3,151.4 447.0,150.8 448.8,150.3 450.6,149.7 452.3,149.2 454.1,148.6 455.9,148.0 457.7,147.5 459.4,146.9 461.2,146.4 463.0,145.8 464.7,145.3 466.5,144.7 468.3,144.2 470.1,143.6 471.8,143.1 473.6,142.5 475.4,142.0 477.1,141.4 478.9,140.9 480.7,140.3 482.5,139.8 484.2,139.2 486.0,138.7 487.8,138.1 489.5,137.6 491.3,137.0 493.1,136.4 494.9,135.9 496.6,135.3 498.4,134.8 500.2,134.2 501.9,133.7 503.7,133.1 505.5,132.6 507.3,132.0 509.0,131.5 510.8,130.9 512.6,130.4 514.3,129.8 516.1,129.3 517.9,128.7 519.7,128.2 521.4,127.6 523.2,127.1 525.0,126.5 526.7,125.9 528.5,125.4 530.3,124.8 532.1,124.3 533.8,123.7 535.6,123.2 537.4,122.6 539.1,122.1 540.9,121.5 542.7,121.0 544.5,120.4 546.2,119.9 548.0,119.3 549.8,118.8 551.5,118.2 553.3,117.7 555.1,117.1 556.9,116.6 558.6,116.0 560.4,115.5 562.2,114.9 563.9,114.4 565.7,113.8 567.5,113.2 569.3,112.7 571.0,112.1 572.8,111.6 574.6,111.0 576.3,110.5 578.1,109.9 579.9,109.4 581.7,108.8 583.4,108.3 585.2,107.7 587.0,107.2 588.7,106.6 590.5,106.1 592.3,105.5 594.1,105.0 595.8,104.4 597.6,103.9 599.4,103.3 601.1,102.8 602.9,102.2 604.7,101.6 606.5,101.1 608.2,100.5 610.0,100.0 611.8,99.4 613.5,98.9 615.3,98.3 617.1,97.8 618.9,97.2 620.6,96.7 622.4,96.1 624.2,95.6 625.9,95.0 627.7,94.5 629.5,93.9 631.3,93.4 633.0,92.8 634.8,92.3 636.6,91.7 638.3,91.2 640.1,90.6 641.9,90.0 643.7,89.5 645.4,88.9 647.2,88.4 649.0,87.8 650.7,87.3 652.5,86.7 654.3,86.2 656.1,85.6 657.8,85.1 659.6,84.5 661.4,84.0 663.1,83.4 664.9,82.9 666.7,82.3 668.5,81.8 670.2,81.2 672.0,80.7 673.8,80.1 675.5,79.6 677.3,79.0 679.1,78.5 680.9,77.9 682.6,77.3 684.4,76.8 686.2,76.2 687.9,75.7 689.7,75.1 691.5,74.6 693.3,74.0 695.0,73.5 696.8,72.9 698.6,72.4 700.3,71.8 702.1,71.3 703.9,70.7 705.7,70.2 707.4,69.6 709.2,69.1 711.0,68.5 712.7,68.0 714.5,67.4 716.3,66.9 718.1,66.3 719.8,65.7 721.6,65.2 723.4,64.6 725.1,64.1 726.9,63.5 728.7,63.0 730.5,62.4 732.2,61.9 734.0,61.3 735.8,60.8 737.5,60.2 739.3,59.7 741.1,59.1 742.9,58.6 744.6,58.0 746.4,57.5 748.2,56.9 749.9,56.4 751.7,55.8 753.5,55.3 755.3,54.7 757.0,54.1 758.8,53.6 760.6,53.0 762.3,52.5 764.1,51.9 765.9,51.4 767.7,50.8 769.4,50.3 771.2,49.7 773.0,49.2 774.7,48.6 776.5,48.1 778.3,47.5 780.1,47.0 781.8,46.4 783.6,45.9 785.4,45.3 787.1,44.8 788.9,44.2 790.7,43.7 792.5,43.1 794.2,42.6 796.0,42.0"/>
<text x="640" y="56" font-family="Arial" font-size="12" fill="#0f766e">abg_nominal position error</text>
</svg>