<svg xmlns="http://www.w3.org/2000/svg" width="820" height="320" viewBox="0 0 820 320">
<rect width="100%" height="100%" fill="white"/>
<text x="52" y="30" font-family="Arial" font-size="18" font-weight="700">adaptive_nominal position error</text>
<line x1="52" y1="274" x2="796" y2="274" stroke="#263238"/>
<line x1="52" y1="42" x2="52" y2="274" stroke="#263238"/>
<text x="52" y="306" font-family="Arial" font-size="12">time (s)</text>
<text x="630" y="306" font-family="Arial" font-size="12">m</text>

<rect x="370.9" y="42" width="79.7" height="232" fill="#fef3c7" opacity="0.72"/>
<polyline fill="none" stroke="#0f766e" stroke-width="2.3" points="52.0,244.5 53.8,242.1 55.5,239.6 57.3,237.0 59.1,234.3 60.9,191.8 62.6,173.7 64.4,155.4 66.2,136.9 67.9,118.3 69.7,188.1 71.5,179.8 73.3,171.6 75.0,163.3 76.8,154.9 78.6,268.9 80.3,269.3 82.1,269.4 83.9,269.5 85.7,269.5 87.4,274.0 89.2,273.9 91.0,273.8 92.7,273.5 94.5,273.1 96.3,272.3 98.1,269.7 99.8,267.0 101.6,264.3 103.4,261.6 105.1,234.2 106.9,231.2 108.7,228.2 110.5,225.2 112.2,222.1 114.0,220.6 115.8,217.7 117.5,214.7 119.3,211.6 121.1,208.6 122.9,203.6 124.6,200.4 126.4,197.1 128.2,193.8 129.9,190.4 131.7,202.5 133.5,198.1 135.3,193.5 137.0,188.8 138.8,184.0 140.6,175.5 142.3,170.3 144.1,165.0 145.9,159.6 147.7,154.1 149.4,180.2 151.2,176.0 153.0,171.7 154.7,167.3 156.5,162.8 158.3,128.9 160.1,123.5 161.8,118.0 163.6,112.4 165.4,106.7 167.1,101.7 168.9,95.8 170.7,89.8 172.5,83.7 174.2,77.4 176.0,68.2 177.8,61.8 179.5,55.3 181.3,48.7 183.1,42.0 184.9,194.6 186.6,194.7 188.4,194.8 190.2,194.9 191.9,195.1 193.7,192.2 195.5,192.3 197.3,192.4 199.0,192.6 200.8,192.8 202.6,197.4 204.3,197.8 206.1,198.2 207.9,198.6 209.7,199.0 211.4,214.1 213.2,207.6 215.0,200.9 216.7,194.0 218.5,186.9 220.3,180.3 222.1,172.6 223.8,164.8 225.6,156.9 227.4,148.8 229.1,137.0 230.9,128.2 232.7,119.3 234.5,110.3 236.2,101.0 238.0,161.2 239.8,155.6 241.5,149.8 243.3,143.9 245.1,137.9 246.9,129.6 248.6,123.1 250.4,116.5 252.2,109.8 253.9,103.0 255.7,98.8 257.5,92.0 259.3,85.1 261.0,78.0 262.8,70.9 264.6,164.9 266.3,160.5 268.1,156.1 269.9,151.5 271.7,146.9 273.4,149.5 275.2,145.1 277.0,140.7 278.7,136.2 280.5,131.6 282.3,129.2 284.1,124.6 285.8,120.0 287.6,115.3 289.4,110.6 291.1,214.3 292.9,212.0 294.7,209.7 296.5,207.3 298.2,204.9 300.0,208.9 301.8,206.6 303.5,204.2 305.3,201.7 307.1,199.3 308.9,198.2 310.6,195.7 312.4,193.1 314.2,190.5 315.9,187.9 317.7,240.9 319.5,239.9 321.3,238.9 323.0,237.9 324.8,236.9 326.6,244.7 328.3,243.6 330.1,242.6 331.9,241.5 333.7,240.4 335.4,237.8 337.2,236.5 339.0,235.2 340.7,233.8 342.5,232.3 344.3,186.1 346.1,183.2 347.8,180.2 349.6,177.2 351.4,174.1 353.1,174.3 354.9,171.3 356.7,168.2 358.5,165.1 360.2,161.9 362.0,161.7 363.8,158.6 365.5,155.5 367.3,152.3 369.1,149.1 370.9,136.5 372.6,133.0 374.4,129.4 376.2,125.8 377.9,122.2 379.7,124.4 381.5,120.8 383.3,117.3 385.0,113.7 386.8,110.1 388.6,106.6 390.3,102.9 392.1,99.2 393.9,95.4 395.7,91.6 397.4,152.7 399.2,150.0 401.0,147.2 402.7,144.5 404.5,141.7 406.3,147.5 408.1,144.9 409.8,142.3 411.6,139.6 413.4,136.9 415.1,135.5 416.9,132.8 418.7,130.1 420.5,127.4 422.2,124.6 424.0,200.3 425.8,199.3 427.5,198.4 429.3,197.4 431.1,196.4 432.9,195.6 434.6,194.6 436.4,193.6 438.2,192.6 439.9,191.6 441.7,190.9 443.5,189.9 445.3,188.8 447.0,187.8 448.8,186.7 450.6,167.3 452.3,165.3 454.1,163.3 455.9,161.2 457.7,159.2 459.4,158.2 461.2,156.1 463.0,154.1 464.7,152.0 466.5,149.9 468.3,150.4 470.1,148.3 471.8,146.2 473.6,144.0 475.4,141.8 477.1,227.7 478.9,226.1 480.7,224.5 482.5,222.8 484.2,221.2 486.0,217.9 487.8,216.2 489.5,214.5 491.3,212.8 493.1,211.0 494.9,210.0 496.6,208.2 498.4,206.4 500.2,204.6 501.9,202.7 503.7,200.6 505.5,198.8 507.3,197.0 509.0,195.2 510.8,193.3 512.6,191.7 514.3,189.8 516.1,187.8 517.9,185.8 519.7,183.9 521.4,182.3 523.2,180.3 525.0,178.2 526.7,176.1 528.5,174.0 530.3,211.1 532.1,209.5 533.8,207.8 535.6,206.2 537.4,204.4 539.1,206.4 540.9,204.6 542.7,202.9 544.5,201.1 546.2,199.3 548.0,198.6 549.8,196.8 551.5,194.9 553.3,193.1 555.1,191.2 556.9,202.4 558.6,200.4 560.4,198.5 562.2,196.6 563.9,194.6 565.7,192.1 567.5,190.1 569.3,188.0 571.0,186.0 572.8,183.9 574.6,181.2 576.3,179.1 578.1,176.9 579.9,174.8 581.7,172.6 583.4,206.4 585.2,204.7 587.0,202.9 588.7,201.1 590.5,199.4 592.3,198.1 594.1,196.3 595.8,194.5 597.6,192.7 599.4,190.8 601.1,191.3 602.9,189.5 604.7,187.7 606.5,185.9 608.2,184.1 610.0,212.9 611.8,211.4 613.5,209.8 615.3,208.3 617.1,206.7 618.9,205.7 620.6,204.2 622.4,202.6 624.2,201.0 625.9,199.3 627.7,197.6 629.5,195.9 631.3,194.2 633.0,192.5 634.8,190.8 636.6,228.6 638.3,227.4 640.1,226.2 641.9,225.0 643.7,223.8 645.4,223.7 647.2,222.5 649.0,221.4 650.7,220.2 652.5,219.1 654.3,218.0 656.1,216.9 657.8,215.8 659.6,214.6 661.4,213.4 663.1,231.4 664.9,230.4 666.7,229.4 668.5,228.4 670.2,227.3 672.0,226.1 673.8,225.0 675.5,224.0 677.3,222.9 679.1,221.8 680.9,220.3 682.6,219.2 684.4,218.1 686.2,217.1 687.9,216.0 689.7,225.7 691.5,224.8 693.3,224.0 695.0,223.1 696.8,222.2 698.6,222.3 700.3,221.5 702.1,220.6 703.9,219.7 705.7,218.7 707.4,217.2 709.2,216.2 711.0,215.3 712.7,214.4 714.5,213.4 716.3,215.7 718.1,214.8 719.8,213.9 721.6,213.0 723.4,212.1 725.1,213.8 726.9,212.9 728.7,212.0 730.5,211.2 732.2,210.3 734.0,207.6 735.8,206.7 737.5,205.7 739.3,204.8 741.1,203.9 742.9,232.8 744.6,232.2 746.4,231.5 748.2,230.8 749.9,230.1 751.7,233.5 753.5,232.8 755.3,232.2 757.0,231.5 758.8,230.8 760.6,234.6 762.3,234.0 764.1,233.4 765.9,232.7 767.7,232.1 769.4,238.9 771.2,238.3 773.0,237.7 774.7,237.1 776.5,236.5 778.3,236.0 780.1,235.3 781.8,234.7 783.6,234.0 785.4,233.3 787.1,230.6 788.9,230.0 790.7,229.4 792.5,228.8 794.2,228.2 796.0,230.4"/>
<text x="640" y="56" font-family="Arial" font-size="12" fill="#0f766e">adaptive_nominal position error</text>
</svg>