<svg xmlns="http://www.w3.org/2000/svg" width="820" height="320" viewBox="0 0 820 320">
<rect width="100%" height="100%" fill="white"/>
<text x="52" y="30" font-family="Arial" font-size="18" font-weight="700">particle_nominal residuals</text>
<line x1="52" y1="274" x2="796" y2="274" stroke="#263238"/>
<line x1="52" y1="42" x2="52" y2="274" stroke="#263238"/>
<text x="52" y="306" font-family="Arial" font-size="12">time (s)</text>
<text x="630" y="306" font-family="Arial" font-size="12">norm</text>

<polyline fill="none" stroke="#0f766e" stroke-width="2.3" points="52.0,241.3 52.0,272.8 52.0,258.2 52.0,264.5 52.0,260.6 60.9,264.6 69.7,272.3 78.6,253.2 78.6,274.0 78.6,270.4 78.6,263.7 78.6,268.8 87.4,271.7 96.3,273.7 105.1,253.0 105.1,273.9 105.1,264.3 105.1,271.0 105.1,272.8 114.0,271.1 122.9,272.0 131.7,244.9 131.7,273.6 131.7,257.1 131.7,266.5 131.7,271.8 140.6,271.3 149.4,261.9 158.3,256.9 158.3,267.1 158.3,263.1 158.3,263.8 158.3,259.5 167.1,265.0 176.0,269.7 184.9,255.4 184.9,263.4 184.9,271.8 184.9,266.7 184.9,267.9 193.7,266.6 202.6,261.9 211.4,252.5 211.4,264.1 211.4,273.9 211.4,267.0 211.4,269.7 220.3,259.8 229.1,255.6 238.0,243.1 238.0,266.4 238.0,270.2 238.0,270.3 238.0,258.3 246.9,253.5 255.7,258.4 264.6,259.7 264.6,251.4 264.6,271.5 264.6,267.4 264.6,256.6 273.4,257.8 282.3,256.5 291.1,249.3 291.1,264.3 291.1,271.0 291.1,259.3 291.1,265.8 300.0,250.3 308.9,252.6 317.7,237.9 317.7,250.8 317.7,270.7 317.7,261.4 317.7,252.6 326.6,243.6 335.4,244.3 344.3,240.4 344.3,237.3 344.3,269.9 344.3,260.7 344.3,264.3 353.1,245.8 362.0,244.3 370.9,245.7 370.9,264.6 370.9,253.4 370.9,263.0 379.7,247.1 388.6,239.8 397.4,233.1 397.4,272.6 397.4,248.7 397.4,248.6 406.3,244.2 415.1,237.8 424.0,242.9 424.0,262.5 424.0,243.0 424.0,254.0 432.9,226.2 441.7,231.3 450.6,224.5 450.6,270.7 450.6,235.5 450.6,242.0 459.4,226.1 468.3,231.9 477.1,202.2 477.1,225.6 477.1,262.1 477.1,221.9 477.1,250.2 486.0,224.1 494.9,218.5 503.7,200.7 503.7,215.1 503.7,265.6 503.7,236.6 503.7,245.0 512.6,204.2 521.4,211.8 530.3,180.5 530.3,201.8 530.3,260.1 530.3,233.4 530.3,252.1 539.1,207.7 548.0,209.0 556.9,186.8 556.9,197.2 556.9,256.8 556.9,222.1 556.9,245.3 565.7,190.2 574.6,202.5 583.4,184.3 583.4,189.5 583.4,256.3 583.4,225.4 583.4,249.6 592.3,186.7 601.1,179.0 610.0,42.0 610.0,182.6 610.0,252.7 610.0,216.5 610.0,268.4 618.9,174.1 627.7,176.4 636.6,144.8 636.6,176.0 636.6,257.8 636.6,221.9 636.6,261.4 645.4,164.0 654.3,164.6 663.1,144.0 663.1,160.8 663.1,248.5 663.1,214.5 663.1,259.2 672.0,151.6 680.9,153.9 689.7,122.6 689.7,146.3 689.7,248.8 689.7,204.5 689.7,261.7 698.6,148.8 707.4,143.6 716.3,133.0 716.3,138.5 716.3,250.6 716.3,196.8 716.3,265.3 725.1,138.9 734.0,130.7 742.9,104.4 742.9,125.7 742.9,244.8 742.9,199.9 742.9,268.7 751.7,125.4 760.6,122.1 769.4,79.1 769.4,118.7 769.4,250.0 769.4,205.0 769.4,256.1 778.3,113.3 787.1,102.2 796.0,68.5 796.0,97.5 796.0,244.7 796.0,204.1 796.0,261.1"/>
<text x="640" y="56" font-family="Arial" font-size="12" fill="#0f766e">particle_nominal residuals</text>
</svg>