<svg xmlns="http://www.w3.org/2000/svg" width="820" height="320" viewBox="0 0 820 320">
<rect width="100%" height="100%" fill="white"/>
<text x="52" y="30" font-family="Arial" font-size="18" font-weight="700">abg_nominal residuals</text>
<line x1="52" y1="274" x2="796" y2="274" stroke="#263238"/>
<line x1="52" y1="42" x2="52" y2="274" stroke="#263238"/>
<text x="52" y="306" font-family="Arial" font-size="12">time (s)</text>
<text x="630" y="306" font-family="Arial" font-size="12">norm</text>

<polyline fill="none" stroke="#0f766e" stroke-width="2.3" points="52.0,273.9 52.0,274.0 52.0,274.0 52.0,273.9 52.0,274.0 60.9,273.5 69.7,273.2 78.6,265.7 78.6,273.2 78.6,266.4 78.6,265.7 78.6,268.4 87.4,273.3 96.3,273.5 105.1,257.4 105.1,273.8 105.1,258.5 105.1,257.5 105.1,260.4 114.0,274.0 122.9,273.8 131.7,249.1 131.7,273.7 131.7,250.5 131.7,249.2 131.7,252.2 140.6,273.7 149.4,273.7 158.3,240.8 158.3,273.9 158.3,242.5 158.3,240.9 158.3,244.1 167.1,273.9 176.0,274.0 184.9,232.5 184.9,273.9 184.9,234.4 184.9,232.6 184.9,235.9 193.7,273.9 202.6,273.9 211.4,224.3 211.4,273.9 211.4,226.4 211.4,224.3 211.4,227.6 220.3,274.0 229.1,274.0 238.0,216.0 238.0,274.0 238.0,218.4 238.0,216.0 238.0,219.5 246.9,274.0 255.7,274.0 264.6,207.7 264.6,274.0 264.6,210.4 264.6,207.8 264.6,211.3 273.4,274.0 282.3,274.0 291.1,199.4 291.1,274.0 291.1,202.4 291.1,199.5 291.1,203.1 300.0,274.0 308.9,274.0 317.7,191.1 317.7,274.0 317.7,194.4 317.7,191.3 317.7,194.9 326.6,274.0 335.4,274.0 344.3,182.8 344.3,274.0 344.3,186.4 344.3,183.1 344.3,186.7 353.1,274.0 362.0,274.0 370.9,274.0 370.9,178.4 370.9,174.9 370.9,178.5 379.7,274.0 388.6,274.0 397.4,274.0 397.4,170.4 397.4,166.8 397.4,170.4 406.3,274.0 415.1,274.0 424.0,274.0 424.0,162.3 424.0,158.7 424.0,162.2 432.9,274.0 441.7,274.0 450.6,274.0 450.6,154.4 450.6,150.6 450.6,154.1 459.4,274.0 468.3,274.0 477.1,141.4 477.1,274.0 477.1,146.3 477.1,142.5 477.1,145.9 486.0,274.0 494.9,274.0 503.7,133.1 503.7,274.0 503.7,138.3 503.7,134.6 503.7,137.8 512.6,274.0 521.4,274.0 530.3,124.8 530.3,274.0 530.3,130.3 530.3,126.5 530.3,129.7 539.1,274.0 548.0,274.0 556.9,116.6 556.9,274.0 556.9,122.3 556.9,118.5 556.9,121.6 565.7,274.0 574.6,274.0 583.4,108.3 583.4,274.0 583.4,114.3 583.4,110.5 583.4,113.5 592.3,274.0 601.1,274.0 610.0,99.5 610.0,274.0 610.0,106.4 610.0,102.5 610.0,105.4 618.9,274.0 627.7,274.0 636.6,91.7 636.6,274.0 636.6,98.4 636.6,94.5 636.6,97.4 645.4,274.0 654.3,274.0 663.1,83.4 663.1,274.0 663.1,90.4 663.1,86.5 663.1,89.3 672.0,274.0 680.9,274.0 689.7,75.2 689.7,274.0 689.7,82.4 689.7,78.5 689.7,81.3 698.6,274.0 707.4,274.0 716.3,66.9 716.3,274.0 716.3,74.5 716.3,70.5 716.3,73.3 725.1,274.0 734.0,274.0 742.9,58.6 742.9,274.0 742.9,66.5 742.9,62.6 742.9,65.3 751.7,274.0 760.6,274.0 769.4,50.3 769.4,274.0 769.4,58.5 769.4,54.6 769.4,57.3 778.3,274.0 787.1,274.0 796.0,42.0 796.0,274.0 796.0,50.5 796.0,46.7 796.0,49.3"/>
<text x="640" y="56" font-family="Arial" font-size="12" fill="#0f766e">abg_nominal residuals</text>
</svg>