<svg xmlns="http://www.w3.org/2000/svg" width="820" height="320" viewBox="0 0 820 320">
<rect width="100%" height="100%" fill="white"/>
<text x="52" y="30" font-family="Arial" font-size="18" font-weight="700">robust_nominal residuals</text>
<line x1="52" y1="274" x2="796" y2="274" stroke="#263238"/>
<line x1="52" y1="42" x2="52" y2="274" stroke="#263238"/>
<text x="52" y="306" font-family="Arial" font-size="12">time (s)</text>
<text x="630" y="306" font-family="Arial" font-size="12">norm</text>

<polyline fill="none" stroke="#0f766e" stroke-width="2.3" points="52.0,205.6 52.0,272.9 52.0,270.0 52.0,237.4 52.0,246.1 60.9,253.6 69.7,266.0 78.6,227.1 78.6,268.5 78.6,251.9 78.6,264.2 78.6,273.6 87.4,273.5 96.3,267.1 105.1,237.3 105.1,270.3 105.1,261.9 105.1,268.6 105.1,273.6 114.0,273.5 122.9,271.4 131.7,222.1 131.7,266.6 131.7,248.1 131.7,268.7 131.7,269.4 140.6,271.8 149.4,255.9 158.3,257.4 158.3,270.5 158.3,271.9 158.3,272.2 158.3,249.8 167.1,268.4 176.0,267.5 184.9,260.9 184.9,265.9 184.9,250.5 184.9,264.4 184.9,272.1 193.7,271.4 202.6,267.3 211.4,228.1 211.4,270.5 211.4,260.7 211.4,270.6 211.4,241.5 220.3,269.6 229.1,265.3 238.0,249.5 238.0,254.2 238.0,263.5 238.0,265.1 238.0,265.2 246.9,269.5 255.7,263.8 264.6,238.0 264.6,269.5 264.6,257.7 264.6,265.3 264.6,260.4 273.4,260.0 282.3,264.4 291.1,241.9 291.1,247.9 291.1,254.4 291.1,263.5 291.1,267.2 300.0,272.4 308.9,270.6 317.7,252.3 317.7,271.6 317.7,262.8 317.7,267.1 317.7,255.7 326.6,263.3 335.4,267.4 344.3,261.1 344.3,257.3 344.3,269.3 344.3,263.0 344.3,266.4 353.1,268.3 362.0,269.3 370.9,263.5 370.9,263.8 370.9,265.6 370.9,266.8 379.7,258.2 388.6,273.2 397.4,263.1 397.4,256.5 397.4,266.1 397.4,260.1 406.3,254.7 415.1,267.0 424.0,253.2 424.0,242.1 424.0,266.8 424.0,271.1 432.9,263.2 441.7,269.4 450.6,269.2 450.6,260.4 450.6,254.4 450.6,258.2 459.4,268.6 468.3,255.9 477.1,237.3 477.1,265.2 477.1,247.4 477.1,244.6 477.1,265.1 486.0,266.5 494.9,272.4 503.7,226.9 503.7,269.4 503.7,265.9 503.7,263.6 503.7,269.1 512.6,253.8 521.4,273.3 530.3,261.7 530.3,260.9 530.3,249.7 530.3,266.6 530.3,259.1 539.1,265.4 548.0,259.9 556.9,238.2 556.9,267.6 556.9,249.2 556.9,265.2 556.9,273.6 565.7,260.1 574.6,255.3 583.4,233.7 583.4,269.9 583.4,267.6 583.4,261.7 583.4,273.7 592.3,271.6 601.1,259.4 610.0,42.0 610.0,271.8 610.0,271.8 610.0,270.8 610.0,250.9 618.9,264.1 627.7,272.6 636.6,264.4 636.6,266.3 636.6,267.6 636.6,254.9 636.6,259.9 645.4,260.7 654.3,272.0 663.1,255.5 663.1,271.8 663.1,266.1 663.1,265.9 663.1,274.0 672.0,259.1 680.9,270.4 689.7,261.2 689.7,263.6 689.7,267.1 689.7,273.9 689.7,267.1 698.6,271.0 707.4,273.2 716.3,218.0 716.3,270.3 716.3,264.8 716.3,260.6 716.3,271.2 725.1,267.2 734.0,270.6 742.9,230.7 742.9,270.6 742.9,272.2 742.9,271.6 742.9,270.3 751.7,268.5 760.6,265.5 769.4,250.6 769.4,265.1 769.4,260.3 769.4,269.8 769.4,258.7 778.3,269.7 787.1,263.2 796.0,258.9 796.0,266.3 796.0,268.7 796.0,263.2 796.0,268.0"/>
<text x="640" y="56" font-family="Arial" font-size="12" fill="#0f766e">robust_nominal residuals</text>
</svg>