<svg xmlns="http://www.w3.org/2000/svg" width="820" height="320" viewBox="0 0 820 320">
<rect width="100%" height="100%" fill="white"/>
<text x="52" y="30" font-family="Arial" font-size="18" font-weight="700">ekf_nominal residuals</text>
<line x1="52" y1="274" x2="796" y2="274" stroke="#263238"/>
<line x1="52" y1="42" x2="52" y2="274" stroke="#263238"/>
<text x="52" y="306" font-family="Arial" font-size="12">time (s)</text>
<text x="630" y="306" font-family="Arial" font-size="12">norm</text>

<polyline fill="none" stroke="#0f766e" stroke-width="2.3" points="52.0,206.6 52.0,273.0 52.0,257.5 52.0,240.6 52.0,233.8 60.9,254.0 69.7,258.0 78.6,227.2 78.6,267.6 78.6,256.3 78.6,260.9 78.6,273.7 87.4,274.0 96.3,268.6 105.1,234.6 105.1,271.7 105.1,266.9 105.1,267.2 105.1,271.8 114.0,272.2 122.9,272.7 131.7,228.2 131.7,267.7 131.7,256.3 131.7,270.5 131.7,269.8 140.6,272.6 149.4,255.9 158.3,266.9 158.3,273.9 158.3,269.3 158.3,272.5 158.3,250.6 167.1,271.2 176.0,265.8 184.9,260.1 184.9,267.5 184.9,251.3 184.9,265.1 184.9,268.0 193.7,270.5 202.6,268.3 211.4,236.4 211.4,270.0 211.4,267.5 211.4,272.1 211.4,240.5 220.3,270.2 229.1,265.9 238.0,250.6 238.0,254.3 238.0,264.2 238.0,271.8 238.0,253.6 246.9,265.8 255.7,267.3 264.6,240.0 264.6,267.6 264.6,257.2 264.6,272.6 264.6,254.7 273.4,261.9 282.3,266.6 291.1,241.6 291.1,249.4 291.1,253.1 291.1,259.5 291.1,271.0 300.0,266.0 308.9,272.2 317.7,256.2 317.7,272.6 317.7,263.0 317.7,270.5 317.7,254.1 326.6,260.5 335.4,265.0 344.3,261.6 344.3,255.6 344.3,267.4 344.3,264.1 344.3,267.0 353.1,268.2 362.0,268.8 370.9,262.8 370.9,260.8 370.9,265.9 370.9,267.8 379.7,257.3 388.6,273.3 397.4,263.5 397.4,260.4 397.4,266.6 397.4,259.1 406.3,254.9 415.1,269.2 424.0,254.9 424.0,246.6 424.0,270.6 424.0,272.0 432.9,259.8 441.7,273.0 450.6,266.6 450.6,249.4 450.6,258.0 450.6,254.2 459.4,271.1 468.3,257.9 477.1,248.3 477.1,268.4 477.1,256.1 477.1,250.0 477.1,269.2 486.0,268.9 494.9,271.0 503.7,238.2 503.7,268.5 503.7,272.3 503.7,257.9 503.7,266.7 512.6,253.3 521.4,271.8 530.3,256.7 530.3,262.8 530.3,256.6 530.3,260.6 530.3,264.0 539.1,263.8 548.0,258.2 556.9,244.8 556.9,269.2 556.9,255.6 556.9,271.2 556.9,270.0 565.7,261.7 574.6,254.0 583.4,237.7 583.4,270.1 583.4,273.1 583.4,259.0 583.4,270.6 592.3,271.8 601.1,259.8 610.0,42.0 610.0,270.9 610.0,272.6 610.0,269.2 610.0,254.2 618.9,265.3 627.7,271.8 636.6,264.2 636.6,265.6 636.6,264.3 636.6,255.0 636.6,264.5 645.4,261.9 654.3,273.3 663.1,254.3 663.1,273.0 663.1,267.3 663.1,267.6 663.1,271.5 672.0,260.4 680.9,272.2 689.7,262.3 689.7,265.3 689.7,267.2 689.7,272.7 689.7,265.5 698.6,269.8 707.4,273.8 716.3,217.9 716.3,271.0 716.3,265.3 716.3,259.2 716.3,272.5 725.1,266.8 734.0,271.3 742.9,232.0 742.9,271.2 742.9,273.2 742.9,269.8 742.9,270.9 751.7,268.2 760.6,265.3 769.4,252.1 769.4,264.9 769.4,261.6 769.4,271.7 769.4,258.8 778.3,269.5 787.1,263.8 796.0,259.2 796.0,266.8 796.0,267.9 796.0,265.1 796.0,268.0"/>
<text x="640" y="56" font-family="Arial" font-size="12" fill="#0f766e">ekf_nominal residuals</text>
</svg>