<svg xmlns="http://www.w3.org/2000/svg" width="820" height="320" viewBox="0 0 820 320">
<rect width="100%" height="100%" fill="white"/>
<text x="52" y="30" font-family="Arial" font-size="18" font-weight="700">adaptive_nominal residuals</text>
<line x1="52" y1="274" x2="796" y2="274" stroke="#263238"/>
<line x1="52" y1="42" x2="52" y2="274" stroke="#263238"/>
<text x="52" y="306" font-family="Arial" font-size="12">time (s)</text>
<text x="630" y="306" font-family="Arial" font-size="12">norm</text>

<polyline fill="none" stroke="#0f766e" stroke-width="2.3" points="52.0,206.2 52.0,273.0 52.0,257.4 52.0,240.4 52.0,233.5 60.9,253.9 69.7,258.4 78.6,226.5 78.6,266.4 78.6,256.1 78.6,261.3 78.6,273.7 87.4,273.0 96.3,267.7 105.1,234.9 105.1,271.2 105.1,267.4 105.1,267.1 105.1,272.0 114.0,272.5 122.9,272.5 131.7,228.2 131.7,267.6 131.7,256.5 131.7,270.0 131.7,269.4 140.6,272.6 149.4,255.6 158.3,266.2 158.3,273.4 158.3,269.5 158.3,272.9 158.3,250.1 167.1,271.4 176.0,265.6 184.9,259.2 184.9,267.3 184.9,251.9 184.9,265.7 184.9,268.1 193.7,270.6 202.6,268.0 211.4,237.3 211.4,270.1 211.4,268.8 211.4,273.1 211.4,240.8 220.3,270.0 229.1,265.7 238.0,251.5 238.0,254.2 238.0,265.2 238.0,270.7 238.0,253.0 246.9,265.5 255.7,267.5 264.6,239.0 264.6,267.4 264.6,256.3 264.6,273.3 264.6,254.4 273.4,262.0 282.3,266.5 291.1,240.7 291.1,249.3 291.1,252.3 291.1,258.7 291.1,271.7 300.0,266.1 308.9,271.7 317.7,257.5 317.7,272.1 317.7,262.7 317.7,272.2 317.7,253.1 326.6,259.8 335.4,263.7 344.3,261.5 344.3,254.1 344.3,266.0 344.3,266.2 344.3,268.1 353.1,270.0 362.0,270.3 370.9,264.0 370.9,259.4 370.9,265.4 370.9,268.7 379.7,258.1 388.6,273.7 397.4,263.1 397.4,261.8 397.4,266.2 397.4,258.4 406.3,255.2 415.1,269.1 424.0,254.6 424.0,246.9 424.0,269.7 424.0,271.5 432.9,260.3 441.7,272.7 450.6,266.9 450.6,250.0 450.6,257.3 450.6,253.3 459.4,270.8 468.3,257.5 477.1,248.0 477.1,267.7 477.1,255.8 477.1,248.3 477.1,270.2 486.0,268.1 494.9,271.7 503.7,236.6 503.7,269.2 503.7,273.4 503.7,259.7 503.7,266.1 512.6,253.8 521.4,271.4 530.3,257.6 530.3,263.0 530.3,255.6 530.3,262.2 530.3,264.1 539.1,263.6 548.0,257.9 556.9,243.3 556.9,269.7 556.9,254.2 556.9,269.8 556.9,270.5 565.7,262.0 574.6,253.6 583.4,236.2 583.4,270.6 583.4,271.4 583.4,260.2 583.4,271.4 592.3,272.2 601.1,260.1 610.0,42.0 610.0,270.6 610.0,274.0 610.0,270.0 610.0,253.1 618.9,265.5 627.7,272.1 636.6,264.9 636.6,265.8 636.6,266.1 636.6,254.1 636.6,262.4 645.4,262.2 654.3,272.5 663.1,254.9 663.1,272.3 663.1,267.4 663.1,264.3 663.1,272.8 672.0,259.5 680.9,270.6 689.7,261.4 689.7,263.5 689.7,267.3 689.7,271.4 689.7,269.1 698.6,271.8 707.4,272.7 716.3,219.1 716.3,269.4 716.3,265.0 716.3,262.5 716.3,269.7 725.1,268.2 734.0,269.9 742.9,231.6 742.9,270.1 742.9,273.2 742.9,272.2 742.9,268.6 751.7,269.1 760.6,266.2 769.4,251.1 769.4,265.9 769.4,261.4 769.4,270.6 769.4,260.6 778.3,270.5 787.1,262.7 796.0,259.9 796.0,266.3 796.0,266.8 796.0,263.9 796.0,270.0"/>
<text x="640" y="56" font-family="Arial" font-size="12" fill="#0f766e">adaptive_nominal residuals</text>
</svg>