<svg xmlns="http://www.w3.org/2000/svg" width="820" height="320" viewBox="0 0 820 320">
<rect width="100%" height="100%" fill="white"/>
<text x="52" y="30" font-family="Arial" font-size="18" font-weight="700">sqrt_nominal residuals</text>
<line x1="52" y1="274" x2="796" y2="274" stroke="#263238"/>
<line x1="52" y1="42" x2="52" y2="274" stroke="#263238"/>
<text x="52" y="306" font-family="Arial" font-size="12">time (s)</text>
<text x="630" y="306" font-family="Arial" font-size="12">norm</text>

<polyline fill="none" stroke="#0f766e" stroke-width="2.3" points="52.0,232.4 52.0,273.3 52.0,274.0 52.0,274.0 52.0,274.0 60.9,261.2 69.7,272.9 78.6,250.1 78.6,273.7 78.6,274.0 78.6,274.0 78.6,274.0 87.4,271.6 96.3,273.6 105.1,243.5 105.1,273.4 105.1,274.0 105.1,274.0 105.1,274.0 114.0,272.6 122.9,273.6 131.7,246.4 131.7,271.5 131.7,274.0 131.7,274.0 131.7,274.0 140.6,273.0 149.4,263.4 158.3,251.6 158.3,272.9 158.3,274.0 158.3,274.0 158.3,274.0 167.1,271.1 176.0,270.5 184.9,250.3 184.9,270.2 184.9,274.0 184.9,274.0 184.9,274.0 193.7,272.6 202.6,270.4 211.4,255.3 211.4,273.6 211.4,274.0 211.4,274.0 211.4,274.0 220.3,269.2 229.1,266.1 238.0,253.3 238.0,265.1 238.0,274.0 238.0,274.0 238.0,274.0 246.9,268.2 255.7,271.4 264.6,253.7 264.6,268.4 264.6,274.0 264.6,274.0 264.6,274.0 273.4,268.8 282.3,270.4 291.1,259.9 291.1,259.4 291.1,274.0 291.1,274.0 291.1,274.0 300.0,270.9 308.9,273.9 317.7,257.2 317.7,273.7 317.7,274.0 317.7,274.0 317.7,274.0 326.6,266.9 335.4,268.9 344.3,264.5 344.3,262.0 344.3,274.0 344.3,274.0 344.3,274.0 353.1,272.2 362.0,272.1 370.9,268.1 370.9,274.0 370.9,274.0 370.9,274.0 379.7,264.2 388.6,273.2 397.4,267.9 397.4,274.0 397.4,274.0 397.4,274.0 406.3,262.2 415.1,270.4 424.0,261.5 424.0,274.0 424.0,274.0 424.0,274.0 432.9,266.3 441.7,272.5 450.6,270.2 450.6,274.0 450.6,274.0 450.6,274.0 459.4,271.4 468.3,263.4 477.1,258.4 477.1,271.2 477.1,274.0 477.1,274.0 477.1,274.0 486.0,271.4 494.9,271.5 503.7,253.3 503.7,270.2 503.7,274.0 503.7,274.0 503.7,274.0 512.6,260.9 521.4,273.3 530.3,246.1 530.3,266.3 530.3,274.0 530.3,274.0 530.3,274.0 539.1,268.7 548.0,265.0 556.9,256.4 556.9,271.3 556.9,274.0 556.9,274.0 556.9,274.0 565.7,266.6 574.6,261.7 583.4,251.7 583.4,272.7 583.4,274.0 583.4,274.0 583.4,274.0 592.3,273.7 601.1,266.4 610.0,42.0 610.0,271.1 610.0,274.0 610.0,274.0 610.0,274.0 618.9,269.6 627.7,271.8 636.6,260.3 636.6,268.1 636.6,274.0 636.6,274.0 636.6,274.0 645.4,267.4 654.3,273.8 663.1,252.1 663.1,273.8 663.1,274.0 663.1,274.0 663.1,274.0 672.0,266.1 680.9,273.1 689.7,258.5 689.7,268.6 689.7,274.0 689.7,274.0 689.7,274.0 698.6,271.5 707.4,273.9 716.3,237.8 716.3,272.3 716.3,274.0 716.3,274.0 716.3,274.0 725.1,269.4 734.0,272.6 742.9,243.2 742.9,272.5 742.9,274.0 742.9,274.0 742.9,274.0 751.7,270.2 760.6,268.3 769.4,261.4 769.4,268.6 769.4,274.0 769.4,274.0 769.4,274.0 778.3,271.2 787.1,267.8 796.0,258.1 796.0,269.0 796.0,274.0 796.0,274.0 796.0,274.0"/>
<text x="640" y="56" font-family="Arial" font-size="12" fill="#0f766e">sqrt_nominal residuals</text>
</svg>