<svg xmlns="http://www.w3.org/2000/svg" width="820" height="320" viewBox="0 0 820 320">
<rect width="100%" height="100%" fill="white"/>
<text x="52" y="30" font-family="Arial" font-size="18" font-weight="700">adaptive_nominal velocity error</text>
<line x1="52" y1="274" x2="796" y2="274" stroke="#263238"/>
<line x1="52" y1="42" x2="52" y2="274" stroke="#263238"/>
<text x="52" y="306" font-family="Arial" font-size="12">time (s)</text>
<text x="630" y="306" font-family="Arial" font-size="12">m/s</text>

<rect x="370.9" y="42" width="79.7" height="232" fill="#fef3c7" opacity="0.72"/>
<polyline fill="none" stroke="#0f766e" stroke-width="2.3" points="52.0,238.0 53.8,237.4 55.5,237.5 57.3,237.8 59.1,238.0 60.9,42.6 62.6,42.6 64.4,42.4 66.2,42.4 67.9,42.0 69.7,172.2 71.5,172.6 73.3,172.7 75.0,172.6 76.8,172.4 78.6,257.0 80.3,257.6 82.1,257.9 83.9,258.0 85.7,258.4 87.4,257.2 89.2,257.2 91.0,257.0 92.7,257.3 94.5,257.3 96.3,244.0 98.1,243.7 99.8,243.6 101.6,243.2 103.4,242.8 105.1,238.1 106.9,238.0 108.7,237.7 110.5,237.9 112.2,237.7 114.0,239.8 115.8,239.3 117.5,238.9 119.3,238.8 121.1,238.6 122.9,236.3 124.6,236.1 126.4,235.6 128.2,235.3 129.9,234.9 131.7,222.1 133.5,220.7 135.3,219.4 137.0,218.0 138.8,216.8 140.6,213.1 142.3,211.6 144.1,210.5 145.9,209.6 147.7,208.4 149.4,223.5 151.2,222.3 153.0,221.0 154.7,219.6 156.5,218.5 158.3,210.0 160.1,209.2 161.8,207.8 163.6,206.3 165.4,205.0 167.1,203.2 168.9,201.7 170.7,200.6 172.5,199.5 174.2,197.9 176.0,198.0 177.8,197.1 179.5,196.2 181.3,195.0 183.1,193.9 184.9,271.4 186.6,270.7 188.4,270.6 190.2,270.0 191.9,269.7 193.7,274.0 195.5,273.5 197.3,273.3 199.0,273.3 200.8,273.0 202.6,263.8 204.3,263.0 206.1,262.3 207.9,261.7 209.7,261.0 211.4,191.2 213.2,189.6 215.0,188.0 216.7,186.2 218.5,183.9 220.3,181.3 222.1,179.4 223.8,177.9 225.6,176.2 227.4,174.5 229.1,169.1 230.9,166.8 232.7,165.3 234.5,163.3 236.2,161.3 238.0,202.1 239.8,201.2 241.5,200.3 243.3,199.3 245.1,198.2 246.9,194.1 248.6,193.2 250.4,192.2 252.2,190.8 253.9,189.8 255.7,191.1 257.5,189.5 259.3,188.6 261.0,187.4 262.8,186.0 264.6,220.6 266.3,220.0 268.1,219.4 269.9,218.7 271.7,217.6 273.4,221.2 275.2,220.6 277.0,220.4 278.7,219.4 280.5,218.7 282.3,219.7 284.1,219.1 285.8,218.4 287.6,217.6 289.4,216.8 291.1,246.8 292.9,246.8 294.7,245.9 296.5,245.6 298.2,245.3 300.0,246.6 301.8,246.3 303.5,245.8 305.3,245.6 307.1,244.7 308.9,244.6 310.6,244.3 312.4,244.1 314.2,243.4 315.9,243.1 317.7,262.3 319.5,262.4 321.3,262.4 323.0,262.3 324.8,262.3 326.6,262.2 328.3,261.6 330.1,261.4 331.9,261.3 333.7,261.1 335.4,258.8 337.2,259.0 339.0,258.8 340.7,258.1 342.5,257.9 344.3,241.3 346.1,240.9 347.8,240.2 349.6,239.9 351.4,239.3 353.1,239.6 354.9,239.1 356.7,238.8 358.5,238.9 360.2,238.0 362.0,239.4 363.8,239.0 365.5,238.6 367.3,237.7 369.1,237.6 370.9,233.9 372.6,233.7 374.4,233.2 376.2,232.9 377.9,232.5 379.7,234.1 381.5,233.8 383.3,233.7 385.0,233.2 386.8,232.7 388.6,232.5 390.3,231.6 392.1,231.1 393.9,230.7 395.7,230.2 397.4,243.5 399.2,243.6 401.0,243.4 402.7,243.2 404.5,243.4 406.3,245.4 408.1,245.3 409.8,244.9 411.6,244.3 413.4,244.1 415.1,244.4 416.9,244.3 418.7,243.7 420.5,243.7 422.2,243.6 424.0,264.5 425.8,265.0 427.5,264.9 429.3,264.9 431.1,265.1 432.9,264.7 434.6,264.9 436.4,265.0 438.2,265.1 439.9,264.9 441.7,264.6 443.5,264.6 445.3,264.2 447.0,264.2 448.8,264.5 450.6,251.3 452.3,251.0 454.1,251.0 455.9,250.6 457.7,250.7 459.4,251.0 461.2,251.0 463.0,251.2 464.7,250.8 466.5,250.8 468.3,250.9 470.1,250.7 471.8,250.0 473.6,249.5 475.4,249.4 477.1,257.1 478.9,257.2 480.7,257.1 482.5,256.9 484.2,257.2 486.0,256.5 487.8,256.4 489.5,255.9 491.3,255.6 493.1,255.4 494.9,255.3 496.6,254.7 498.4,254.8 500.2,254.5 501.9,254.7 503.7,255.2 505.5,255.0 507.3,254.9 509.0,254.7 510.8,254.4 512.6,253.4 514.3,253.6 516.1,253.5 517.9,253.0 519.7,253.0 521.4,252.9 523.2,252.5 525.0,251.9 526.7,251.9 528.5,251.4 530.3,257.8 532.1,257.4 533.8,257.1 535.6,256.6 537.4,256.5 539.1,256.6 540.9,256.2 542.7,256.1 544.5,255.8 546.2,255.4 548.0,255.3 549.8,255.2 551.5,254.9 553.3,254.9 555.1,254.8 556.9,254.6 558.6,254.7 560.4,254.4 562.2,254.1 563.9,254.0 565.7,253.6 567.5,253.3 569.3,253.3 571.0,253.0 572.8,253.2 574.6,252.0 576.3,252.1 578.1,251.6 579.9,251.9 581.7,251.3 583.4,257.5 585.2,257.1 587.0,256.7 588.7,256.5 590.5,256.7 592.3,256.2 594.1,256.1 595.8,255.9 597.6,255.8 599.4,255.9 601.1,256.4 602.9,256.2 604.7,256.4 606.5,256.3 608.2,256.3 610.0,260.2 611.8,259.6 613.5,259.3 615.3,259.1 617.1,258.9 618.9,259.1 620.6,258.9 622.4,258.8 624.2,258.7 625.9,258.2 627.7,257.6 629.5,257.7 631.3,257.6 633.0,257.9 634.8,257.8 636.6,263.8 638.3,263.8 640.1,263.9 641.9,263.8 643.7,264.1 645.4,264.2 647.2,263.8 649.0,264.1 650.7,264.2 652.5,264.5 654.3,264.6 656.1,264.4 657.8,263.9 659.6,263.8 661.4,263.9 663.1,266.1 664.9,266.2 666.7,266.4 668.5,265.9 670.2,265.6 672.0,265.5 673.8,265.6 675.5,265.3 677.3,265.4 679.1,265.4 680.9,265.3 682.6,265.4 684.4,265.8 686.2,265.5 687.9,265.7 689.7,267.3 691.5,267.9 693.3,267.9 695.0,267.9 696.8,268.0 698.6,268.1 700.3,267.8 702.1,267.4 703.9,267.2 705.7,266.9 707.4,267.0 709.2,267.1 711.0,266.8 712.7,266.8 714.5,266.9 716.3,267.3 718.1,267.3 719.8,267.5 721.6,267.5 723.4,267.4 725.1,267.7 726.9,268.0 728.7,267.9 730.5,267.6 732.2,267.5 734.0,267.2 735.8,267.4 737.5,267.0 739.3,267.2 741.1,267.1 742.9,270.9 744.6,270.7 746.4,270.5 748.2,270.4 749.9,270.0 751.7,270.6 753.5,270.5 755.3,270.5 757.0,270.4 758.8,270.2 760.6,271.0 762.3,270.7 764.1,270.6 765.9,270.6 767.7,270.8 769.4,271.3 771.2,270.9 773.0,270.3 774.7,270.6 776.5,270.4 778.3,270.4 780.1,269.9 781.8,270.1 783.6,269.9 785.4,270.3 787.1,271.3 788.9,271.5 790.7,270.9 792.5,271.2 794.2,271.6 796.0,271.1"/>
<text x="640" y="56" font-family="Arial" font-size="12" fill="#0f766e">adaptive_nominal velocity error</text>
</svg>