<svg xmlns="http://www.w3.org/2000/svg" width="820" height="320" viewBox="0 0 820 320">
<rect width="100%" height="100%" fill="white"/>
<text x="52" y="30" font-family="Arial" font-size="18" font-weight="700">particle_nominal velocity error</text>
<line x1="52" y1="274" x2="796" y2="274" stroke="#263238"/>
<line x1="52" y1="42" x2="52" y2="274" stroke="#263238"/>
<text x="52" y="306" font-family="Arial" font-size="12">time (s)</text>
<text x="630" y="306" font-family="Arial" font-size="12">m/s</text>

<rect x="370.9" y="42" width="79.7" height="232" fill="#fef3c7" opacity="0.72"/>
<polyline fill="none" stroke="#0f766e" stroke-width="2.3" points="52.0,263.9 53.8,263.6 55.5,263.6 57.3,263.7 59.1,263.8 60.9,274.0 62.6,272.5 64.4,271.2 66.2,269.9 67.9,268.9 69.7,262.0 71.5,260.5 73.3,259.0 75.0,257.5 76.8,255.9 78.6,256.6 80.3,254.7 82.1,252.7 83.9,250.5 85.7,248.5 87.4,246.5 89.2,244.2 91.0,241.9 92.7,239.8 94.5,237.5 96.3,236.2 98.1,234.1 99.8,232.1 101.6,229.7 103.4,227.5 105.1,251.5 106.9,250.0 108.7,248.7 110.5,247.5 112.2,246.3 114.0,244.4 115.8,242.9 117.5,241.5 119.3,240.0 121.1,238.6 122.9,236.8 124.6,235.2 126.4,233.7 128.2,232.5 129.9,231.2 131.7,241.4 133.5,240.5 135.3,239.4 137.0,238.2 138.8,237.2 140.6,236.2 142.3,235.4 144.1,234.4 145.9,233.5 147.7,232.6 149.4,233.0 151.2,231.9 153.0,231.0 154.7,229.7 156.5,228.9 158.3,233.8 160.1,233.1 161.8,232.3 163.6,231.7 165.4,230.7 167.1,228.7 168.9,228.0 170.7,227.0 172.5,225.7 174.2,224.8 176.0,223.7 177.8,222.6 179.5,221.6 181.3,220.9 183.1,219.9 184.9,224.4 186.6,223.7 188.4,222.9 190.2,222.0 191.9,221.2 193.7,219.7 195.5,218.8 197.3,218.0 199.0,216.8 200.8,215.9 202.6,214.4 204.3,213.5 206.1,212.5 207.9,211.7 209.7,210.9 211.4,217.3 213.2,216.6 215.0,215.8 216.7,214.8 218.5,213.9 220.3,214.8 222.1,213.8 223.8,213.0 225.6,212.3 227.4,211.5 229.1,213.6 230.9,212.8 232.7,212.1 234.5,211.1 236.2,210.0 238.0,218.4 239.8,217.5 241.5,217.0 243.3,216.2 245.1,215.5 246.9,213.0 248.6,212.2 250.4,211.5 252.2,210.9 253.9,210.1 255.7,208.3 257.5,207.3 259.3,206.7 261.0,205.7 262.8,205.1 264.6,210.7 266.3,209.8 268.1,209.0 269.9,208.4 271.7,207.3 273.4,206.7 275.2,205.9 277.0,205.0 278.7,204.3 280.5,203.2 282.3,202.0 284.1,201.1 285.8,200.3 287.6,199.5 289.4,198.5 291.1,208.2 292.9,207.5 294.7,206.4 296.5,205.6 298.2,204.6 300.0,202.3 301.8,201.5 303.5,200.4 305.3,199.6 307.1,198.5 308.9,196.1 310.6,195.1 312.4,194.5 314.2,193.5 315.9,192.6 317.7,202.6 319.5,201.8 321.3,201.1 323.0,200.2 324.8,199.2 326.6,197.3 328.3,196.4 330.1,195.5 331.9,194.7 333.7,194.0 335.4,193.1 337.2,192.3 339.0,191.5 340.7,190.5 342.5,189.4 344.3,193.3 346.1,192.6 347.8,191.7 349.6,191.1 351.4,190.0 353.1,189.3 354.9,188.3 356.7,187.7 358.5,187.1 360.2,186.5 362.0,185.2 363.8,184.4 365.5,183.6 367.3,183.1 369.1,182.4 370.9,181.3 372.6,180.6 374.4,179.6 376.2,178.7 377.9,177.7 379.7,175.8 381.5,175.4 383.3,174.8 385.0,174.0 386.8,172.9 388.6,178.8 390.3,178.0 392.1,177.3 393.9,176.5 395.7,175.6 397.4,176.8 399.2,175.8 401.0,174.8 402.7,174.0 404.5,173.3 406.3,173.4 408.1,172.9 409.8,172.2 411.6,171.3 413.4,170.5 415.1,170.7 416.9,169.8 418.7,168.9 420.5,168.0 422.2,167.1 424.0,167.0 425.8,166.3 427.5,165.4 429.3,164.7 431.1,163.7 432.9,165.3 434.6,164.6 436.4,163.8 438.2,162.9 439.9,161.9 441.7,162.2 443.5,161.3 445.3,160.6 447.0,159.9 448.8,159.2 450.6,160.4 452.3,159.6 454.1,158.4 455.9,157.5 457.7,156.5 459.4,155.0 461.2,154.2 463.0,153.2 464.7,152.6 466.5,151.7 468.3,150.1 470.1,148.8 471.8,148.1 473.6,147.3 475.4,146.5 477.1,145.3 478.9,144.4 480.7,143.3 482.5,142.5 484.2,141.8 486.0,141.2 487.8,140.5 489.5,139.7 491.3,138.9 493.1,138.0 494.9,136.7 496.6,135.9 498.4,134.8 500.2,134.1 501.9,133.3 503.7,139.9 505.5,138.7 507.3,138.0 509.0,137.0 510.8,136.2 512.6,133.3 514.3,132.3 516.1,131.3 517.9,130.5 519.7,129.7 521.4,127.7 523.2,126.8 525.0,125.9 526.7,125.1 528.5,124.3 530.3,129.6 532.1,128.8 533.8,127.9 535.6,127.2 537.4,126.2 539.1,125.9 540.9,125.0 542.7,124.4 544.5,123.6 546.2,122.9 548.0,123.8 549.8,122.8 551.5,122.0 553.3,121.0 555.1,120.1 556.9,121.8 558.6,120.6 560.4,120.0 562.2,119.3 563.9,118.7 565.7,118.5 567.5,117.8 569.3,116.9 571.0,115.9 572.8,114.7 574.6,115.7 576.3,114.8 578.1,114.1 579.9,113.2 581.7,112.4 583.4,118.1 585.2,117.0 587.0,116.2 588.7,115.1 590.5,114.4 592.3,111.3 594.1,110.5 595.8,109.3 597.6,108.3 599.4,107.5 601.1,106.5 602.9,105.6 604.7,104.6 606.5,103.6 608.2,102.7 610.0,103.9 611.8,103.3 613.5,102.7 615.3,102.0 617.1,100.9 618.9,104.7 620.6,103.7 622.4,102.9 624.2,102.3 625.9,101.5 627.7,101.5 629.5,100.8 631.3,99.8 633.0,98.8 634.8,97.8 636.6,101.2 638.3,100.5 640.1,99.7 641.9,98.8 643.7,97.7 645.4,97.5 647.2,96.5 649.0,95.6 650.7,94.9 652.5,93.9 654.3,95.3 656.1,94.3 657.8,93.6 659.6,92.6 661.4,91.6 663.1,99.2 664.9,98.4 666.7,97.2 668.5,96.4 670.2,95.5 672.0,90.8 673.8,89.8 675.5,88.9 677.3,88.1 679.1,87.1 680.9,86.3 682.6,85.2 684.4,84.3 686.2,83.4 687.9,82.4 689.7,85.7 691.5,84.5 693.3,83.5 695.0,82.6 696.8,81.5 698.6,81.4 700.3,80.7 702.1,80.0 703.9,79.3 705.7,78.4 707.4,77.7 709.2,76.7 711.0,75.8 712.7,75.0 714.5,74.0 716.3,74.4 718.1,73.6 719.8,72.5 721.6,71.6 723.4,70.8 725.1,75.7 726.9,74.5 728.7,73.7 730.5,73.1 732.2,72.1 734.0,70.3 735.8,69.2 737.5,68.4 739.3,67.0 741.1,66.0 742.9,68.8 744.6,68.1 746.4,67.3 748.2,66.2 749.9,65.5 751.7,65.0 753.5,64.1 755.3,63.0 757.0,62.1 758.8,61.2 760.6,60.2 762.3,59.4 764.1,58.4 765.9,57.3 767.7,56.3 769.4,55.0 771.2,54.0 773.0,53.2 774.7,52.5 776.5,51.5 778.3,50.0 780.1,49.1 781.8,48.0 783.6,47.5 785.4,46.6 787.1,45.5 788.9,44.6 790.7,43.7 792.5,43.1 794.2,42.0 796.0,49.5"/>
<text x="640" y="56" font-family="Arial" font-size="12" fill="#0f766e">particle_nominal velocity error</text>
</svg>