<svg xmlns="http://www.w3.org/2000/svg" width="820" height="320" viewBox="0 0 820 320">
<rect width="100%" height="100%" fill="white"/>
<text x="52" y="30" font-family="Arial" font-size="18" font-weight="700">information_nominal velocity error</text>
<line x1="52" y1="274" x2="796" y2="274" stroke="#263238"/>
<line x1="52" y1="42" x2="52" y2="274" stroke="#263238"/>
<text x="52" y="306" font-family="Arial" font-size="12">time (s)</text>
<text x="630" y="306" font-family="Arial" font-size="12">m/s</text>

<rect x="370.9" y="42" width="79.7" height="232" fill="#fef3c7" opacity="0.72"/>
<polyline fill="none" stroke="#0f766e" stroke-width="2.3" points="52.0,148.9 53.8,147.7 55.5,148.1 57.3,149.5 59.1,148.6 60.9,155.3 62.6,155.5 64.4,155.9 66.2,156.0 67.9,155.9 69.7,156.8 71.5,155.2 73.3,155.1 75.0,155.5 76.8,157.3 78.6,107.8 80.3,104.3 82.1,100.4 83.9,96.4 85.7,91.9 87.4,93.3 89.2,88.5 91.0,83.0 92.7,77.3 94.5,71.6 96.3,65.6 98.1,60.6 99.8,55.5 101.6,48.3 103.4,42.0 105.1,151.9 106.9,150.3 108.7,147.7 110.5,146.6 112.2,144.6 114.0,145.1 115.8,141.6 117.5,138.1 119.3,135.3 121.1,132.5 122.9,128.9 124.6,125.5 126.4,121.9 128.2,118.4 129.9,115.7 131.7,89.5 133.5,87.2 135.3,83.3 137.0,79.9 138.8,75.7 140.6,70.2 142.3,67.6 144.1,64.2 145.9,60.6 147.7,57.4 149.4,73.7 151.2,69.9 153.0,67.0 154.7,64.3 156.5,59.7 158.3,151.8 160.1,150.0 161.8,148.6 163.6,146.8 165.4,145.6 167.1,141.8 168.9,138.7 170.7,135.7 172.5,134.4 174.2,132.5 176.0,130.9 177.8,128.6 179.5,125.7 181.3,123.6 183.1,121.0 184.9,125.3 186.6,123.6 188.4,122.2 190.2,119.5 191.9,116.3 193.7,115.7 195.5,112.6 197.3,110.0 199.0,106.2 200.8,102.9 202.6,96.5 204.3,94.4 206.1,91.9 207.9,89.0 209.7,86.8 211.4,217.7 213.2,217.5 215.0,217.4 216.7,216.6 218.5,213.4 220.3,209.8 222.1,208.5 223.8,207.5 225.6,206.3 227.4,205.4 229.1,190.0 230.9,187.1 232.7,186.1 234.5,184.2 236.2,182.5 238.0,221.8 239.8,221.5 241.5,218.8 243.3,217.7 245.1,215.1 246.9,199.5 248.6,198.9 250.4,197.0 252.2,194.4 253.9,192.7 255.7,199.6 257.5,198.6 259.3,197.0 261.0,196.7 262.8,193.8 264.6,209.5 266.3,208.7 268.1,207.6 269.9,205.4 271.7,205.5 273.4,215.8 275.2,214.9 277.0,214.9 278.7,213.4 280.5,214.0 282.3,220.8 284.1,220.3 285.8,219.6 287.6,218.2 289.4,218.2 291.1,246.1 292.9,244.8 294.7,244.7 296.5,244.7 298.2,243.9 300.0,237.9 301.8,237.0 303.5,236.7 305.3,235.5 307.1,234.6 308.9,234.6 310.6,233.6 312.4,231.9 314.2,231.3 315.9,230.8 317.7,236.6 319.5,235.2 321.3,233.7 323.0,233.6 324.8,232.9 326.6,224.5 328.3,223.4 330.1,221.7 331.9,221.1 333.7,219.6 335.4,211.8 337.2,210.4 339.0,208.9 340.7,208.9 342.5,208.3 344.3,209.9 346.1,208.1 347.8,206.4 349.6,204.8 351.4,203.5 353.1,203.4 354.9,202.2 356.7,200.9 358.5,199.3 360.2,196.5 362.0,201.5 363.8,200.4 365.5,198.0 367.3,194.5 369.1,193.9 370.9,203.2 372.6,202.4 374.4,201.5 376.2,201.3 377.9,200.5 379.7,214.7 381.5,212.5 383.3,211.4 385.0,210.1 386.8,209.5 388.6,210.0 390.3,207.4 392.1,205.5 393.9,204.6 395.7,203.3 397.4,192.8 399.2,193.2 401.0,192.8 402.7,191.7 404.5,192.0 406.3,207.2 408.1,205.9 409.8,204.2 411.6,202.3 413.4,201.6 415.1,205.3 416.9,204.7 418.7,202.6 420.5,203.0 422.2,202.4 424.0,208.3 425.8,208.2 427.5,207.4 429.3,206.5 431.1,206.8 432.9,202.7 434.6,202.1 436.4,201.9 438.2,201.2 439.9,201.0 441.7,200.1 443.5,200.2 445.3,198.7 447.0,198.1 448.8,198.5 450.6,195.0 452.3,193.9 454.1,194.0 455.9,192.6 457.7,193.1 459.4,194.7 461.2,194.7 463.0,195.0 464.7,193.5 466.5,193.7 468.3,196.5 470.1,195.5 471.8,193.3 473.6,191.5 475.4,190.7 477.1,246.0 478.9,246.3 480.7,244.9 482.5,244.6 484.2,246.2 486.0,243.4 487.8,244.5 489.5,243.7 491.3,242.8 493.1,242.9 494.9,246.8 496.6,245.5 498.4,245.4 500.2,244.8 501.9,245.3 503.7,232.8 505.5,231.2 507.3,232.2 509.0,231.5 510.8,231.5 512.6,239.0 514.3,239.0 516.1,238.4 517.9,238.5 519.7,238.8 521.4,239.1 523.2,240.9 525.0,242.9 526.7,241.2 528.5,242.0 530.3,271.5 532.1,271.8 533.8,272.6 535.6,273.0 537.4,272.9 539.1,273.0 540.9,271.9 542.7,274.0 544.5,274.0 546.2,273.7 548.0,263.7 549.8,263.9 551.5,263.8 553.3,263.0 555.1,263.0 556.9,252.2 558.6,252.4 560.4,251.6 562.2,252.7 563.9,253.1 565.7,252.7 567.5,253.6 569.3,254.7 571.0,253.5 572.8,252.5 574.6,250.0 576.3,251.1 578.1,250.7 579.9,249.8 581.7,249.8 583.4,238.0 585.2,238.4 587.0,238.1 588.7,239.4 590.5,238.9 592.3,237.6 594.1,236.5 595.8,234.5 597.6,235.9 599.4,236.7 601.1,235.6 602.9,236.1 604.7,235.2 606.5,235.7 608.2,235.7 610.0,235.1 611.8,234.3 613.5,235.7 615.3,235.4 617.1,234.1 618.9,232.1 620.6,231.9 622.4,231.2 624.2,230.3 625.9,230.6 627.7,230.7 629.5,230.1 631.3,230.0 633.0,231.4 634.8,230.1 636.6,248.0 638.3,248.2 640.1,248.7 641.9,248.3 643.7,249.2 645.4,247.3 647.2,246.7 649.0,247.1 650.7,247.0 652.5,247.7 654.3,248.6 656.1,248.7 657.8,246.9 659.6,247.3 661.4,248.0 663.1,239.4 664.9,239.1 666.7,239.8 668.5,237.4 670.2,236.5 672.0,233.0 673.8,233.6 675.5,233.8 677.3,233.0 679.1,233.4 680.9,232.8 682.6,233.7 684.4,233.6 686.2,233.6 687.9,234.3 689.7,252.3 691.5,251.6 693.3,251.9 695.0,251.6 696.8,251.3 698.6,254.6 700.3,253.9 702.1,253.0 703.9,251.9 705.7,252.4 707.4,252.9 709.2,253.3 711.0,253.7 712.7,252.2 714.5,251.9 716.3,234.4 718.1,233.7 719.8,234.6 721.6,233.3 723.4,232.3 725.1,236.0 726.9,236.6 728.7,235.8 730.5,235.6 732.2,236.3 734.0,234.2 735.8,235.3 737.5,236.1 739.3,236.7 741.1,238.0 742.9,233.2 744.6,232.8 746.4,233.1 748.2,233.5 749.9,234.3 751.7,236.6 753.5,236.4 755.3,237.0 757.0,237.2 758.8,237.1 760.6,238.1 762.3,238.7 764.1,239.1 765.9,238.7 767.7,237.9 769.4,244.8 771.2,245.2 773.0,246.3 774.7,246.4 776.5,246.5 778.3,244.4 780.1,244.1 781.8,242.4 783.6,244.2 785.4,244.2 787.1,245.9 788.9,246.2 790.7,245.8 792.5,245.8 794.2,244.3 796.0,239.3"/>
<text x="640" y="56" font-family="Arial" font-size="12" fill="#0f766e">information_nominal velocity error</text>
</svg>