<svg xmlns="http://www.w3.org/2000/svg" width="820" height="320" viewBox="0 0 820 320">
<rect width="100%" height="100%" fill="white"/>
<text x="52" y="30" font-family="Arial" font-size="18" font-weight="700">robust_nominal velocity error</text>
<line x1="52" y1="274" x2="796" y2="274" stroke="#263238"/>
<line x1="52" y1="42" x2="52" y2="274" stroke="#263238"/>
<text x="52" y="306" font-family="Arial" font-size="12">time (s)</text>
<text x="630" y="306" font-family="Arial" font-size="12">m/s</text>

<rect x="370.9" y="42" width="79.7" height="232" fill="#fef3c7" opacity="0.72"/>
<polyline fill="none" stroke="#0f766e" stroke-width="2.3" points="52.0,224.0 53.8,223.1 55.5,223.2 57.3,223.6 59.1,224.0 60.9,42.8 62.6,42.8 64.4,42.6 66.2,42.6 67.9,42.0 69.7,139.4 71.5,139.8 73.3,139.9 75.0,139.8 76.8,139.4 78.6,150.5 80.3,151.3 82.1,151.6 83.9,151.8 85.7,152.4 87.4,152.7 89.2,152.8 91.0,152.8 92.7,153.5 94.5,153.9 96.3,151.9 98.1,152.0 99.8,152.4 101.6,152.9 103.4,153.1 105.1,175.7 106.9,176.0 108.7,175.8 110.5,176.3 112.2,176.6 114.0,177.3 115.8,177.2 117.5,177.0 119.3,176.9 121.1,177.1 122.9,175.0 124.6,174.8 126.4,174.6 128.2,174.5 129.9,174.8 131.7,230.1 133.5,228.2 135.3,226.2 137.0,224.3 138.8,222.2 140.6,213.7 142.3,211.4 144.1,209.7 145.9,208.2 147.7,206.3 149.4,230.8 151.2,228.9 153.0,227.0 154.7,224.7 156.5,222.9 158.3,188.7 160.1,186.6 161.8,183.7 163.6,180.7 165.4,177.7 167.1,176.1 168.9,173.3 170.7,170.8 172.5,168.0 174.2,164.9 176.0,161.8 177.8,159.4 179.5,157.1 181.3,154.3 183.1,151.8 184.9,228.2 186.6,226.3 188.4,224.7 190.2,223.3 191.9,222.2 193.7,220.9 195.5,219.6 197.3,218.2 199.0,217.5 200.8,216.4 202.6,212.6 204.3,210.6 206.1,208.9 207.9,207.3 209.7,205.5 211.4,244.9 213.2,244.2 215.0,243.8 216.7,243.1 218.5,241.6 220.3,234.9 222.1,234.0 223.8,233.5 225.6,232.6 227.4,231.8 229.1,216.6 230.9,215.1 232.7,214.2 234.5,213.1 236.2,212.2 238.0,182.8 239.8,181.8 241.5,180.6 243.3,179.6 245.1,178.2 246.9,172.5 248.6,171.4 250.4,170.1 252.2,168.2 253.9,167.0 255.7,174.3 257.5,172.6 259.3,171.4 261.0,170.2 262.8,168.3 264.6,214.2 266.3,213.7 268.1,213.2 269.9,212.3 271.7,211.4 273.4,220.2 275.2,219.8 277.0,219.9 278.7,218.8 280.5,218.4 282.3,223.8 284.1,223.5 285.8,222.9 287.6,222.3 289.4,221.6 291.1,245.9 292.9,246.0 294.7,244.5 296.5,244.6 298.2,244.4 300.0,243.8 301.8,243.4 303.5,242.9 305.3,242.6 307.1,241.1 308.9,241.6 310.6,241.2 312.4,240.9 314.2,240.0 315.9,239.7 317.7,255.2 319.5,255.1 321.3,254.7 323.0,254.6 324.8,254.5 326.6,251.7 328.3,250.7 330.1,249.9 331.9,249.6 333.7,249.3 335.4,246.2 337.2,246.0 339.0,245.5 340.7,245.0 342.5,244.2 344.3,217.5 346.1,216.7 347.8,215.6 349.6,215.1 351.4,214.0 353.1,214.8 354.9,213.9 356.7,213.5 358.5,213.1 360.2,211.9 362.0,213.7 363.8,213.0 365.5,212.0 367.3,210.7 369.1,210.5 370.9,203.8 372.6,203.4 374.4,202.6 376.2,202.0 377.9,201.3 379.7,201.3 381.5,200.8 383.3,200.5 385.0,199.6 386.8,198.7 388.6,198.3 390.3,196.9 392.1,195.9 393.9,195.2 395.7,194.3 397.4,222.4 399.2,222.4 401.0,222.0 402.7,221.6 404.5,221.8 406.3,221.9 408.1,221.6 409.8,220.9 411.6,219.9 413.4,219.5 415.1,219.9 416.9,219.5 418.7,218.5 420.5,218.4 422.2,218.1 424.0,241.9 425.8,242.1 427.5,241.8 429.3,241.5 431.1,241.7 432.9,240.7 434.6,240.6 436.4,240.6 438.2,240.3 439.9,240.2 441.7,239.9 443.5,239.9 445.3,239.4 447.0,239.3 448.8,239.6 450.6,220.8 452.3,220.2 454.1,219.9 455.9,219.1 457.7,219.2 459.4,219.4 461.2,219.2 463.0,219.3 464.7,218.6 466.5,218.4 468.3,217.7 470.1,217.3 471.8,216.1 473.6,215.2 475.4,214.8 477.1,240.4 478.9,240.4 480.7,240.0 482.5,239.4 484.2,239.9 486.0,238.6 487.8,238.5 489.5,237.8 491.3,237.1 493.1,237.1 494.9,237.0 496.6,236.0 498.4,236.1 500.2,235.5 501.9,235.4 503.7,241.2 505.5,240.7 507.3,240.5 509.0,240.1 510.8,239.6 512.6,239.2 514.3,239.3 516.1,239.1 517.9,238.3 519.7,238.3 521.4,237.7 523.2,237.0 525.0,235.9 526.7,235.9 528.5,235.1 530.3,248.3 532.1,247.7 533.8,247.1 535.6,246.4 537.4,246.0 539.1,244.8 540.9,244.0 542.7,244.0 544.5,243.5 546.2,242.8 548.0,241.2 549.8,240.9 551.5,240.4 553.3,240.3 555.1,240.1 556.9,241.5 558.6,241.4 560.4,241.1 562.2,240.6 563.9,240.4 565.7,240.8 567.5,240.4 569.3,240.2 571.0,239.6 572.8,239.8 574.6,237.8 576.3,237.8 578.1,237.1 579.9,237.4 581.7,236.6 583.4,246.0 585.2,245.4 587.0,244.7 588.7,244.5 590.5,244.6 592.3,244.1 594.1,244.0 595.8,243.4 597.6,243.2 599.4,243.3 601.1,244.4 602.9,244.1 604.7,244.3 606.5,244.0 608.2,244.0 610.0,247.4 611.8,246.5 613.5,246.1 615.3,245.8 617.1,245.4 618.9,246.4 620.6,246.1 622.4,245.9 624.2,245.8 625.9,244.9 627.7,243.9 629.5,244.0 631.3,243.9 633.0,244.2 634.8,243.9 636.6,258.2 638.3,258.3 640.1,258.5 641.9,258.2 643.7,258.3 645.4,259.6 647.2,258.9 649.0,259.1 650.7,259.2 652.5,259.6 654.3,259.8 656.1,259.4 657.8,258.7 659.6,258.6 661.4,258.7 663.1,263.3 664.9,263.6 666.7,263.9 668.5,263.4 670.2,263.0 672.0,263.4 673.8,263.3 675.5,262.7 677.3,263.0 679.1,262.8 680.9,262.5 682.6,262.6 684.4,263.3 686.2,262.7 687.9,262.9 689.7,265.3 691.5,266.0 693.3,265.9 695.0,266.0 696.8,266.1 698.6,266.6 700.3,266.2 702.1,265.7 703.9,265.3 705.7,264.9 707.4,265.0 709.2,264.8 711.0,264.5 712.7,264.4 714.5,264.7 716.3,264.1 718.1,264.0 719.8,264.5 721.6,264.3 723.4,264.1 725.1,264.9 726.9,265.4 728.7,265.2 730.5,265.0 732.2,264.9 734.0,264.3 735.8,264.7 737.5,264.1 739.3,264.3 741.1,264.3 742.9,268.8 744.6,268.5 746.4,268.2 748.2,267.8 749.9,267.3 751.7,268.2 753.5,268.3 755.3,268.1 757.0,267.8 758.8,267.5 760.6,268.5 762.3,268.1 764.1,267.9 765.9,268.1 767.7,268.2 769.4,273.4 771.2,272.8 773.0,272.0 774.7,272.3 776.5,271.9 778.3,271.6 780.1,271.1 781.8,271.4 783.6,271.1 785.4,271.6 787.1,273.6 788.9,273.6 790.7,273.0 792.5,273.5 794.2,274.0 796.0,273.1"/>
<text x="640" y="56" font-family="Arial" font-size="12" fill="#0f766e">robust_nominal velocity error</text>
</svg>