<svg xmlns="http://www.w3.org/2000/svg" width="820" height="320" viewBox="0 0 820 320">
<rect width="100%" height="100%" fill="white"/>
<text x="52" y="30" font-family="Arial" font-size="18" font-weight="700">abg_nominal velocity error</text>
<line x1="52" y1="274" x2="796" y2="274" stroke="#263238"/>
<line x1="52" y1="42" x2="52" y2="274" stroke="#263238"/>
<text x="52" y="306" font-family="Arial" font-size="12">time (s)</text>
<text x="630" y="306" font-family="Arial" font-size="12">m/s</text>

<rect x="370.9" y="42" width="79.7" height="232" fill="#fef3c7" opacity="0.72"/>
<polyline fill="none" stroke="#0f766e" stroke-width="2.3" points="52.0,42.2 53.8,42.3 55.5,42.3 57.3,42.1 59.1,42.0 60.9,117.7 62.6,117.5 64.4,117.4 66.2,117.4 67.9,117.5 69.7,208.1 71.5,208.0 73.3,208.1 75.0,208.1 76.8,208.0 78.6,259.4 80.3,259.5 82.1,259.6 83.9,259.6 85.7,259.7 87.4,265.6 89.2,265.6 91.0,265.6 92.7,265.7 94.5,265.8 96.3,250.9 98.1,250.9 99.8,251.0 101.6,251.1 103.4,251.2 105.1,240.3 106.9,240.3 108.7,240.2 110.5,240.3 112.2,240.4 114.0,242.6 115.8,242.6 117.5,242.6 119.3,242.5 121.1,242.5 122.9,252.6 124.6,252.5 126.4,252.4 128.2,252.4 129.9,252.6 131.7,262.2 133.5,262.3 135.3,262.2 137.0,262.3 138.8,262.2 140.6,267.1 142.3,267.2 144.1,267.2 145.9,267.1 147.7,267.1 149.4,267.3 151.2,267.3 153.0,267.3 154.7,267.4 156.5,267.3 158.3,265.4 160.1,265.3 161.8,265.3 163.6,265.4 165.4,265.4 167.1,264.3 168.9,264.2 170.7,264.2 172.5,264.2 174.2,264.3 176.0,265.0 177.8,264.9 179.5,264.8 181.3,264.8 183.1,264.8 184.9,265.8 186.6,265.9 188.4,266.0 190.2,266.0 191.9,266.0 193.7,267.2 195.5,267.1 197.3,267.1 199.0,267.0 200.8,266.9 202.6,267.2 204.3,267.3 206.1,267.3 207.9,267.3 209.7,267.4 211.4,267.4 213.2,267.5 215.0,267.5 216.7,267.6 218.5,267.3 220.3,267.3 222.1,267.3 223.8,267.3 225.6,267.3 227.4,267.3 229.1,267.3 230.9,267.3 232.7,267.3 234.5,267.2 236.2,267.2 238.0,267.0 239.8,267.1 241.5,267.2 243.3,267.3 245.1,267.3 246.9,267.5 248.6,267.6 250.4,267.6 252.2,267.7 253.9,267.7 255.7,267.9 257.5,267.8 259.3,267.9 261.0,267.9 262.8,267.9 264.6,268.0 266.3,268.1 268.1,268.1 269.9,268.2 271.7,268.0 273.4,268.0 275.2,268.1 277.0,268.2 278.7,268.1 280.5,268.0 282.3,268.1 284.1,268.1 285.8,268.1 287.6,268.1 289.4,268.0 291.1,268.1 292.9,268.1 294.7,268.0 296.5,267.9 298.2,268.0 300.0,268.2 301.8,268.2 303.5,268.2 305.3,268.3 307.1,268.3 308.9,268.3 310.6,268.3 312.4,268.4 314.2,268.3 315.9,268.3 317.7,268.2 319.5,268.3 321.3,268.4 323.0,268.3 324.8,268.4 326.6,268.1 328.3,268.1 330.1,268.2 331.9,268.2 333.7,268.1 335.4,267.9 337.2,268.1 339.0,268.1 340.7,267.9 342.5,268.0 344.3,268.1 346.1,268.1 347.8,268.1 349.6,268.1 351.4,268.1 353.1,268.3 354.9,268.3 356.7,268.3 358.5,268.6 360.2,268.6 362.0,268.6 363.8,268.6 365.5,268.9 367.3,268.9 369.1,268.8 370.9,268.9 372.6,268.9 374.4,268.9 376.2,268.8 377.9,268.8 379.7,268.9 381.5,268.9 383.3,269.0 385.0,269.0 386.8,269.0 388.6,268.9 390.3,268.9 392.1,269.0 393.9,269.0 395.7,269.1 397.4,269.2 399.2,269.1 401.0,269.1 402.7,269.2 404.5,269.2 406.3,269.3 408.1,269.3 409.8,269.3 411.6,269.4 413.4,269.5 415.1,269.5 416.9,269.5 418.7,269.7 420.5,269.5 422.2,269.6 424.0,269.8 425.8,269.9 427.5,269.9 429.3,270.0 431.1,269.9 432.9,269.9 434.6,270.0 436.4,270.0 438.2,270.1 439.9,270.0 441.7,270.0 443.5,269.9 445.3,269.9 447.0,269.9 448.8,269.8 450.6,269.9 452.3,270.0 454.1,270.0 455.9,270.1 457.7,270.0 459.4,269.9 461.2,269.9 463.0,269.8 464.7,269.9 466.5,269.9 468.3,270.0 470.1,269.9 471.8,270.1 473.6,270.2 475.4,270.1 477.1,270.0 478.9,270.0 480.7,269.9 482.5,270.0 484.2,269.9 486.0,269.9 487.8,269.9 489.5,270.0 491.3,270.1 493.1,270.1 494.9,270.1 496.6,270.3 498.4,270.2 500.2,270.2 501.9,270.2 503.7,270.3 505.5,270.3 507.3,270.3 509.0,270.3 510.8,270.4 512.6,270.6 514.3,270.5 516.1,270.5 517.9,270.6 519.7,270.5 521.4,270.6 523.2,270.7 525.0,270.9 526.7,270.8 528.5,271.0 530.3,271.0 532.1,271.0 533.8,271.1 535.6,271.3 537.4,271.3 539.1,271.4 540.9,271.5 542.7,271.5 544.5,271.6 546.2,271.7 548.0,271.6 549.8,271.7 551.5,271.8 553.3,271.7 555.1,271.7 556.9,271.8 558.6,271.8 560.4,271.8 562.2,271.9 563.9,271.9 565.7,272.0 567.5,272.1 569.3,272.2 571.0,272.2 572.8,272.0 574.6,272.1 576.3,272.2 578.1,272.2 579.9,272.1 581.7,272.2 583.4,272.1 585.2,272.2 587.0,272.3 588.7,272.4 590.5,272.3 592.3,272.4 594.1,272.3 595.8,272.2 597.6,272.3 599.4,272.3 601.1,272.3 602.9,272.4 604.7,272.2 606.5,272.3 608.2,272.3 610.0,272.3 611.8,272.4 613.5,272.6 615.3,272.7 617.1,272.6 618.9,272.6 620.6,272.5 622.4,272.5 624.2,272.5 625.9,272.7 627.7,272.8 629.5,272.8 631.3,272.7 633.0,272.8 634.8,272.6 636.6,272.8 638.3,272.8 640.1,272.8 641.9,272.7 643.7,272.5 645.4,272.6 647.2,272.6 649.0,272.4 650.7,272.4 652.5,272.2 654.3,272.2 656.1,272.2 657.8,272.3 659.6,272.4 661.4,272.5 663.1,272.5 664.9,272.6 666.7,272.6 668.5,272.9 670.2,272.9 672.0,273.0 673.8,272.9 675.5,272.8 677.3,272.9 679.1,272.9 680.9,272.9 682.6,272.8 684.4,272.9 686.2,272.8 687.9,272.7 689.7,272.7 691.5,272.6 693.3,272.6 695.0,272.6 696.8,272.6 698.6,272.6 700.3,272.7 702.1,272.7 703.9,272.7 705.7,272.8 707.4,272.7 709.2,272.6 711.0,272.7 712.7,272.6 714.5,272.8 716.3,272.6 718.1,272.6 719.8,272.7 721.6,272.6 723.4,272.6 725.1,272.7 726.9,272.8 728.7,272.7 730.5,272.8 732.2,272.9 734.0,272.8 735.8,272.9 737.5,273.0 739.3,272.9 741.1,273.0 742.9,273.1 744.6,273.2 746.4,273.2 748.2,273.1 749.9,273.2 751.7,273.4 753.5,273.5 755.3,273.4 757.0,273.4 758.8,273.3 760.6,273.3 762.3,273.4 764.1,273.5 765.9,273.6 767.7,273.5 769.4,273.5 771.2,273.6 773.0,273.8 774.7,273.8 776.5,273.8 778.3,273.8 780.1,273.9 781.8,273.9 783.6,274.0 785.4,273.9 787.1,273.7 788.9,273.7 790.7,273.9 792.5,273.7 794.2,273.7 796.0,273.8"/>
<text x="640" y="56" font-family="Arial" font-size="12" fill="#0f766e">abg_nominal velocity error</text>
</svg>