<svg xmlns="http://www.w3.org/2000/svg" width="820" height="320" viewBox="0 0 820 320">
<rect width="100%" height="100%" fill="white"/>
<text x="52" y="30" font-family="Arial" font-size="18" font-weight="700">ekf_nominal velocity error</text>
<line x1="52" y1="274" x2="796" y2="274" stroke="#263238"/>
<line x1="52" y1="42" x2="52" y2="274" stroke="#263238"/>
<text x="52" y="306" font-family="Arial" font-size="12">time (s)</text>
<text x="630" y="306" font-family="Arial" font-size="12">m/s</text>

<rect x="370.9" y="42" width="79.7" height="232" fill="#fef3c7" opacity="0.72"/>
<polyline fill="none" stroke="#0f766e" stroke-width="2.3" points="52.0,238.3 53.8,237.7 55.5,237.8 57.3,238.1 59.1,238.3 60.9,42.6 62.6,42.6 64.4,42.4 66.2,42.4 67.9,42.0 69.7,178.7 71.5,179.0 73.3,179.1 75.0,179.1 76.8,178.8 78.6,252.3 80.3,252.8 82.1,253.1 83.9,253.2 85.7,253.4 87.4,253.7 89.2,253.6 91.0,253.4 92.7,253.5 94.5,253.4 96.3,239.9 98.1,239.6 99.8,239.5 101.6,239.0 103.4,238.6 105.1,236.6 106.9,236.5 108.7,236.2 110.5,236.4 112.2,236.3 114.0,238.9 115.8,238.5 117.5,238.2 119.3,238.1 121.1,237.9 122.9,235.9 124.6,235.7 126.4,235.3 128.2,234.9 129.9,234.6 131.7,219.9 133.5,218.4 135.3,217.0 137.0,215.5 138.8,214.2 140.6,210.7 142.3,209.0 144.1,207.8 145.9,206.8 147.7,205.5 149.4,218.2 151.2,216.9 153.0,215.4 154.7,213.8 156.5,212.6 158.3,206.9 160.1,205.9 161.8,204.5 163.6,202.8 165.4,201.4 167.1,199.5 168.9,198.0 170.7,196.8 172.5,195.5 174.2,193.8 176.0,194.0 177.8,192.9 179.5,192.0 181.3,190.6 183.1,189.4 184.9,266.1 186.6,265.5 188.4,265.2 190.2,264.8 191.9,264.7 193.7,268.0 195.5,267.9 197.3,267.7 199.0,268.1 200.8,268.0 202.6,260.7 204.3,259.8 206.1,259.2 207.9,258.6 209.7,258.0 211.4,198.7 213.2,197.1 215.0,195.7 216.7,194.1 218.5,191.9 220.3,189.3 222.1,187.5 223.8,186.2 225.6,184.6 227.4,183.0 229.1,177.7 230.9,175.6 232.7,174.1 234.5,172.3 236.2,170.4 238.0,206.6 239.8,205.8 241.5,205.0 243.3,204.0 245.1,203.0 246.9,198.9 248.6,198.0 250.4,197.0 252.2,195.7 253.9,194.7 255.7,196.3 257.5,194.7 259.3,193.9 261.0,192.8 262.8,191.5 264.6,222.6 266.3,222.0 268.1,221.5 269.9,220.7 271.7,219.7 273.4,223.7 275.2,223.2 277.0,222.9 278.7,222.0 280.5,221.3 282.3,222.5 284.1,222.0 285.8,221.2 287.6,220.5 289.4,219.7 291.1,248.1 292.9,248.1 294.7,247.2 296.5,246.9 298.2,246.7 300.0,248.1 301.8,247.8 303.5,247.3 305.3,247.1 307.1,246.2 308.9,246.0 310.6,245.7 312.4,245.6 314.2,244.9 315.9,244.6 317.7,265.8 319.5,265.9 321.3,265.9 323.0,265.9 324.8,266.0 326.6,264.2 328.3,263.6 330.1,263.3 331.9,263.2 333.7,263.0 335.4,259.2 337.2,259.3 339.0,259.1 340.7,258.5 342.5,258.4 344.3,238.0 346.1,237.5 347.8,236.8 349.6,236.5 351.4,235.8 353.1,237.1 354.9,236.5 356.7,236.2 358.5,236.2 360.2,235.3 362.0,237.4 363.8,237.0 365.5,236.5 367.3,235.6 369.1,235.4 370.9,232.1 372.6,231.9 374.4,231.4 376.2,231.1 377.9,230.7 379.7,232.7 381.5,232.4 383.3,232.3 385.0,231.8 386.8,231.3 388.6,231.1 390.3,230.2 392.1,229.7 393.9,229.2 395.7,228.8 397.4,244.4 399.2,244.4 401.0,244.3 402.7,244.1 404.5,244.3 406.3,246.7 408.1,246.6 409.8,246.2 411.6,245.7 413.4,245.5 415.1,245.8 416.9,245.7 418.7,245.1 420.5,245.1 422.2,245.0 424.0,266.7 425.8,267.2 427.5,267.1 429.3,267.2 431.1,267.3 432.9,268.2 434.6,268.5 436.4,268.6 438.2,268.7 439.9,268.5 441.7,268.3 443.5,268.2 445.3,268.0 447.0,267.9 448.8,268.2 450.6,251.7 452.3,251.4 454.1,251.4 455.9,251.0 457.7,251.2 459.4,251.4 461.2,251.4 463.0,251.6 464.7,251.2 466.5,251.2 468.3,251.0 470.1,250.8 471.8,250.1 473.6,249.6 475.4,249.6 477.1,253.5 478.9,253.5 480.7,253.4 482.5,253.2 484.2,253.5 486.0,252.6 487.8,252.5 489.5,251.9 491.3,251.7 493.1,251.4 494.9,251.4 496.6,250.7 498.4,250.9 500.2,250.6 501.9,250.7 503.7,253.1 505.5,252.8 507.3,252.8 509.0,252.5 510.8,252.2 512.6,251.7 514.3,251.9 516.1,251.8 517.9,251.3 519.7,251.3 521.4,251.1 523.2,250.8 525.0,250.3 526.7,250.2 528.5,249.7 530.3,257.0 532.1,256.7 533.8,256.3 535.6,255.9 537.4,255.7 539.1,255.9 540.9,255.4 542.7,255.4 544.5,255.1 546.2,254.6 548.0,254.3 549.8,254.3 551.5,253.9 553.3,253.9 555.1,253.8 556.9,252.5 558.6,252.5 560.4,252.2 562.2,251.9 563.9,251.8 565.7,251.6 567.5,251.3 569.3,251.3 571.0,250.9 572.8,251.1 574.6,249.7 576.3,249.7 578.1,249.3 579.9,249.4 581.7,248.9 583.4,256.4 585.2,256.0 587.0,255.6 588.7,255.5 590.5,255.6 592.3,255.3 594.1,255.1 595.8,254.8 597.6,254.7 599.4,254.8 601.1,255.6 602.9,255.4 604.7,255.6 606.5,255.4 608.2,255.5 610.0,260.2 611.8,259.7 613.5,259.6 615.3,259.4 617.1,259.1 618.9,259.4 620.6,259.2 622.4,259.0 624.2,258.9 625.9,258.5 627.7,258.0 629.5,258.0 631.3,257.9 633.0,258.2 634.8,258.0 636.6,269.1 638.3,269.3 640.1,269.5 641.9,269.2 643.7,269.2 645.4,269.8 647.2,269.4 649.0,269.3 650.7,269.4 652.5,269.4 654.3,269.5 656.1,269.3 657.8,269.0 659.6,269.0 661.4,269.2 663.1,270.6 664.9,270.9 666.7,271.2 668.5,271.2 670.2,271.0 672.0,270.0 673.8,270.0 675.5,269.6 677.3,269.8 679.1,269.6 680.9,269.2 682.6,269.2 684.4,269.6 686.2,269.1 687.9,269.1 689.7,268.8 691.5,269.1 693.3,269.1 695.0,269.1 696.8,269.2 698.6,270.3 700.3,270.1 702.1,269.7 703.9,269.3 705.7,269.2 707.4,269.5 709.2,269.4 711.0,269.3 712.7,269.1 714.5,269.3 716.3,269.3 718.1,269.2 719.8,269.6 721.6,269.4 723.4,269.1 725.1,270.5 726.9,270.9 728.7,270.7 730.5,270.5 732.2,270.5 734.0,270.0 735.8,270.3 737.5,270.1 739.3,270.4 741.1,270.6 742.9,272.0 744.6,271.8 746.4,271.6 748.2,271.5 749.9,271.2 751.7,272.6 753.5,272.7 755.3,272.7 757.0,272.5 758.8,272.3 760.6,273.7 762.3,273.4 764.1,273.4 765.9,273.7 767.7,273.7 769.4,273.2 771.2,272.9 773.0,272.4 774.7,272.8 776.5,272.6 778.3,272.2 780.1,271.7 781.8,271.7 783.6,271.8 785.4,272.2 787.1,273.7 788.9,274.0 790.7,273.3 792.5,273.8 794.2,274.0 796.0,271.8"/>
<text x="640" y="56" font-family="Arial" font-size="12" fill="#0f766e">ekf_nominal velocity error</text>
</svg>