<svg xmlns="http://www.w3.org/2000/svg" width="820" height="320" viewBox="0 0 820 320">
<rect width="100%" height="100%" fill="white"/>
<text x="52" y="30" font-family="Arial" font-size="18" font-weight="700">aggressive covariance trace</text>
<line x1="52" y1="274" x2="796" y2="274" stroke="#263238"/>
<line x1="52" y1="42" x2="52" y2="274" stroke="#263238"/>
<text x="52" y="306" font-family="Arial" font-size="12">time (s)</text>
<text x="630" y="306" font-family="Arial" font-size="12">sqrt trace P</text>

<polyline fill="none" stroke="#0f766e" stroke-width="2.3" points="52.0,200.1 52.6,199.1 53.2,196.0 53.9,190.9 54.5,189.7 55.1,183.2 55.7,175.6 56.3,166.9 57.0,161.3 57.6,151.9 58.2,142.0 58.8,131.5 59.4,122.6 60.1,111.6 60.7,100.3 61.3,88.8 61.9,78.0 62.5,66.2 63.2,54.2 63.8,42.0 64.4,207.3 65.0,202.0 65.6,196.6 66.3,190.8 66.9,185.7 67.5,179.7 68.1,173.5 68.7,167.1 69.4,161.2 70.0,154.6 70.6,148.0 71.2,141.2 71.8,134.7 72.5,127.8 73.1,120.8 73.7,113.7 74.3,106.9 74.9,99.7 75.6,92.4 76.2,85.1 76.8,211.5 77.4,208.0 78.0,204.3 78.7,200.6 79.3,197.2 79.9,193.4 80.5,189.4 81.1,185.4 81.8,181.7 82.4,177.6 83.0,173.4 83.6,169.1 84.2,165.2 84.9,160.8 85.5,156.4 86.1,151.9 86.7,147.7 87.3,143.1 88.0,138.4 88.6,133.7 89.2,218.3 89.8,215.5 90.4,212.7 91.1,209.8 91.7,207.3 92.3,204.3 92.9,201.3 93.5,198.1 94.2,195.3 94.8,192.1 95.4,188.7 96.0,185.3 96.6,182.2 97.3,178.7 97.9,175.1 98.5,171.4 99.1,168.0 99.7,164.2 100.4,160.3 101.0,156.4 101.6,222.8 102.2,220.3 102.8,217.7 103.5,215.1 104.1,212.7 104.7,209.9 105.3,207.0 105.9,204.1 106.6,201.3 107.2,198.2 107.8,195.1 108.4,191.8 109.0,188.7 109.7,185.3 110.3,181.8 110.9,178.3 111.5,174.9 112.1,171.2 112.8,167.4 113.4,163.5 114.0,224.5 114.6,222.0 115.2,219.4 115.9,216.7 116.5,214.2 117.1,211.4 117.7,208.5 118.3,205.5 119.0,202.7 119.6,199.5 120.2,196.3 120.8,193.0 121.4,189.9 122.1,186.4 122.7,182.9 123.3,179.3 123.9,175.9 124.5,172.1 125.2,168.3 125.8,164.5 126.4,224.8 127.0,222.3 127.6,219.7 128.3,217.0 128.9,214.5 129.5,211.7 130.1,208.8 130.7,205.9 131.4,203.1 132.0,200.0 132.6,196.9 133.2,193.6 133.8,190.5 134.5,187.2 135.1,183.8 135.7,180.3 136.3,176.9 136.9,173.4 137.6,169.7 138.2,166.0 138.8,225.2 139.4,222.8 140.0,220.4 140.7,217.8 141.3,215.4 141.9,212.8 142.5,210.1 143.1,207.3 143.8,204.6 144.4,201.8 145.0,198.8 145.6,195.9 146.2,193.0 146.9,189.9 147.5,186.7 148.1,183.5 148.7,180.4 149.3,177.1 150.0,173.8 150.6,170.4 151.2,226.5 151.8,224.2 152.4,222.0 153.1,219.6 153.7,217.4 154.3,215.0 154.9,212.5 155.5,210.0 156.2,207.5 156.8,205.0 157.4,202.3 158.0,199.6 158.6,197.0 159.3,194.2 159.9,191.4 160.5,188.6 161.1,185.7 161.7,182.8 162.4,179.8 163.0,176.8 163.6,228.3 164.2,226.3 164.8,224.2 165.5,222.1 166.1,220.1 166.7,217.9 167.3,215.7 167.9,213.4 168.6,211.2 169.2,208.9 169.8,206.6 170.4,204.2 171.0,201.8 171.7,199.4 172.3,196.9 172.9,194.3 173.5,191.9 174.1,189.3 174.8,186.6 175.4,184.0 176.0,230.5 176.6,228.6 177.2,226.8 177.9,224.9 178.5,223.0 179.1,221.1 179.7,219.1 180.3,217.1 181.0,215.2 181.6,213.1 182.2,211.0 182.8,208.9 183.4,206.8 184.1,204.6 184.7,202.4 185.3,200.2 185.9,198.0 186.5,195.7 187.2,193.4 187.8,191.1 188.4,232.8 189.0,231.1 189.6,229.4 190.3,227.7 190.9,226.1 191.5,224.4 192.1,222.6 192.7,220.8 193.4,219.0 194.0,217.2 194.6,215.3 195.2,213.4 195.8,211.6 196.5,209.7 197.1,207.7 197.7,205.7 198.3,203.8 198.9,201.8 199.6,199.7 200.2,197.6 200.8,235.1 201.4,233.6 202.0,232.1 202.7,230.6 203.3,229.1 203.9,227.5 204.5,225.9 205.1,224.3 205.8,222.7 206.4,221.1 207.0,219.4 207.6,217.7 208.2,216.1 208.9,214.3 209.5,212.6 210.1,210.8 210.7,209.1 211.3,207.3 212.0,205.5 212.6,203.6 213.2,237.4 213.8,236.0 214.4,234.6 215.1,233.2 215.7,231.9 216.3,230.5 216.9,229.0 217.5,227.6 218.2,226.2 218.8,224.7 219.4,223.2 220.0,221.6 220.6,220.2 221.3,218.6 221.9,217.0 222.5,215.5 223.1,213.9 223.7,212.3 224.4,210.7 225.0,209.0 225.6,239.5 226.2,238.3 226.8,237.0 227.5,235.8 228.1,234.5 228.7,233.3 229.3,231.9 229.9,230.6 230.6,229.3 231.2,228.0 231.8,226.6 232.4,225.3 233.0,223.9 233.7,222.5 234.3,221.1 234.9,219.7 235.5,218.3 236.1,216.8 236.8,215.3 237.4,213.9 238.0,241.6 238.6,240.4 239.2,239.3 239.9,238.1 240.5,237.0 241.1,235.8 241.7,234.7 242.3,233.4 243.0,232.3 243.6,231.0 244.2,229.8 244.8,228.6 245.4,227.3 246.1,226.1 246.7,224.8 247.3,223.5 247.9,222.2 248.5,220.9 249.2,219.6 249.8,218.2 250.4,243.5 251.0,242.5 251.6,241.4 252.3,240.4 252.9,239.3 253.5,238.3 254.1,237.2 254.7,236.1 255.4,235.0 256.0,233.9 256.6,232.7 257.2,231.6 257.8,230.5 258.5,229.3 259.1,228.1 259.7,226.9 260.3,225.8 260.9,224.6 261.6,223.4 262.2,222.1 262.8,245.4 263.4,244.4 264.0,243.4 264.7,242.4 265.3,241.5 265.9,240.5 266.5,239.5 267.1,238.5 267.8,237.5 268.4,236.5 269.0,235.4 269.6,234.4 270.2,233.3 270.9,232.3 271.5,231.2 272.1,230.1 272.7,229.0 273.3,227.9 274.0,226.8 274.6,225.7 275.2,247.1 275.8,246.2 276.4,245.3 277.1,244.4 277.7,243.5 278.3,242.6 278.9,241.7 279.5,240.7 280.2,239.8 280.8,238.8 281.4,237.9 282.0,236.9 282.6,236.0 283.3,235.0 283.9,234.0 284.5,233.0 285.1,232.0 285.7,231.0 286.4,230.0 287.0,228.9 287.6,248.7 288.2,247.9 288.8,247.1 289.5,246.2 290.1,245.4 290.7,244.5 291.3,243.7 291.9,242.8 292.6,242.0 293.2,241.1 293.8,240.2 294.4,239.3 295.0,238.4 295.7,237.5 296.3,236.6 296.9,235.6 297.5,234.7 298.1,233.8 298.8,232.8 299.4,231.9 300.0,250.3 300.6,249.5 301.2,248.7 301.9,247.9 302.5,247.2 303.1,246.4 303.7,245.6 304.3,244.7 305.0,244.0 305.6,243.1 306.2,242.3 306.8,241.4 307.4,240.6 308.1,239.8 308.7,238.9 309.3,238.1 309.9,237.2 310.5,236.4 311.2,235.5 311.8,234.6 312.4,251.7 313.0,251.0 313.6,250.3 314.3,249.5 314.9,248.8 315.5,248.1 316.1,247.3 316.7,246.5 317.4,245.8 318.0,245.0 318.6,244.3 319.2,243.5 319.8,242.7 320.5,241.9 321.1,241.1 321.7,240.3 322.3,239.5 322.9,238.7 323.6,237.9 324.2,237.1 324.8,253.1 325.4,252.4 326.0,251.7 326.7,251.0 327.3,250.4 327.9,249.7 328.5,249.0 329.1,248.2 329.8,247.6 330.4,246.8 331.0,246.1 331.6,245.4 332.2,244.6 332.9,243.9 333.5,243.2 334.1,242.4 334.7,241.7 335.3,240.9 336.0,240.1 336.6,239.4 337.2,254.4 337.8,253.8 338.4,253.1 339.1,252.5 339.7,251.8 340.3,251.2 340.9,250.5 341.5,249.8 342.2,249.2 342.8,248.5 343.4,247.8 344.0,247.1 344.6,246.4 345.3,245.7 345.9,245.0 346.5,244.3 347.1,243.6 347.7,242.9 348.4,242.2 349.0,241.5 349.6,255.7 350.2,255.0 350.8,254.4 351.5,253.8 352.1,253.2 352.7,252.6 353.3,251.9 353.9,251.3 354.6,250.7 355.2,250.1 355.8,249.4 356.4,248.8 357.0,248.1 357.7,247.5 358.3,246.8 358.9,246.1 359.5,245.5 360.1,244.8 360.8,244.1 361.4,243.4 362.0,256.8 362.6,256.2 363.2,255.7 363.9,255.1 364.5,254.5 365.1,253.9 365.7,253.3 366.3,252.7 367.0,252.1 367.6,251.5 368.2,250.9 368.8,250.3 369.4,249.7 370.1,249.1 370.7,248.4 371.3,247.8 371.9,247.2 372.5,246.6 373.2,245.9 373.8,245.3 374.4,257.9 375.0,257.4 375.6,256.8 376.3,256.3 376.9,255.7 377.5,255.2 378.1,254.6 378.7,254.0 379.4,253.5 380.0,252.9 380.6,252.3 381.2,251.7 381.8,251.2 382.5,250.6 383.1,250.0 383.7,249.4 384.3,248.8 384.9,248.2 385.6,247.6 386.2,247.0 386.8,259.0 387.4,258.4 388.0,257.9 388.7,257.4 389.3,256.9 389.9,256.3 390.5,255.8 391.1,255.3 391.8,254.7 392.4,254.2 393.0,253.6 393.6,253.1 394.2,252.6 394.9,252.0 395.5,251.4 396.1,250.9 396.7,250.3 397.3,249.7 398.0,249.2 398.6,248.6 399.2,248.0 399.8,247.4 400.4,246.8 401.1,246.2 401.7,245.6 402.3,245.0 402.9,244.3 403.5,243.7 404.2,243.1 404.8,242.5 405.4,241.8 406.0,241.2 406.6,240.6 407.3,239.9 407.9,239.3 408.5,238.6 409.1,238.0 409.7,237.3 410.4,236.7 411.0,236.0 411.6,235.4 412.2,234.7 412.8,234.0 413.5,233.4 414.1,232.7 414.7,232.0 415.3,231.3 415.9,230.6 416.6,230.0 417.2,229.3 417.8,228.6 418.4,227.9 419.0,227.2 419.7,226.5 420.3,225.8 420.9,225.0 421.5,224.4 422.1,223.6 422.8,222.9 423.4,222.2 424.0,221.5 424.6,220.7 425.2,220.0 425.9,219.3 426.5,218.5 427.1,217.8 427.7,217.1 428.3,216.3 429.0,215.6 429.6,214.8 430.2,214.0 430.8,213.3 431.4,212.5 432.1,211.8 432.7,211.0 433.3,210.2 433.9,209.5 434.5,208.7 435.2,207.9 435.8,207.1 436.4,206.3 437.0,205.5 437.6,204.7 438.3,203.9 438.9,203.2 439.5,202.4 440.1,201.5 440.7,200.7 441.4,199.9 442.0,199.1 442.6,198.3 443.2,197.5 443.8,196.7 444.5,195.8 445.1,195.0 445.7,194.2 446.3,193.3 446.9,192.5 447.6,191.7 448.2,190.8 448.8,190.0 449.4,189.1 450.0,188.3 450.7,187.4 451.3,186.6 451.9,185.7 452.5,184.8 453.1,183.9 453.8,183.1 454.4,182.2 455.0,181.3 455.6,180.4 456.2,179.6 456.9,178.7 457.5,177.8 458.1,176.9 458.7,176.0 459.3,175.1 460.0,174.2 460.6,173.3 461.2,172.4 461.8,171.5 462.4,170.6 463.1,169.7 463.7,168.7 464.3,167.8 464.9,166.9 465.5,166.0 466.2,165.0 466.8,164.1 467.4,163.2 468.0,162.2 468.6,161.3 469.3,160.3 469.9,159.4 470.5,158.4 471.1,157.5 471.7,156.5 472.4,155.6 473.0,154.6 473.6,153.6 474.2,152.7 474.8,151.7 475.5,150.7 476.1,149.7 476.7,148.7 477.3,147.8 477.9,146.8 478.6,145.8 479.2,144.8 479.8,143.8 480.4,142.8 481.0,141.8 481.7,140.8 482.3,139.8 482.9,138.8 483.5,137.8 484.1,136.7 484.8,135.7 485.4,134.7 486.0,133.7 486.6,132.6 487.2,131.6 487.9,130.5 488.5,129.5 489.1,128.5 489.7,127.4 490.3,126.4 491.0,125.3 491.6,124.3 492.2,123.2 492.8,122.1 493.4,121.1 494.1,120.0 494.7,119.0 495.3,117.9 495.9,116.8 496.5,115.7 497.2,114.6 497.8,113.6 498.4,112.5 499.0,111.4 499.6,110.4 500.3,109.4 500.9,108.3 501.5,107.3 502.1,106.2 502.7,105.2 503.4,104.1 504.0,103.1 504.6,102.0 505.2,100.9 505.8,99.9 506.5,98.8 507.1,97.7 507.7,96.7 508.3,95.6 508.9,94.5 509.6,93.4 510.2,92.4 510.8,213.6 511.4,213.1 512.0,212.6 512.7,212.0 513.3,211.5 513.9,211.0 514.5,210.4 515.1,209.9 515.8,209.4 516.4,208.8 517.0,208.3 517.6,207.7 518.2,207.2 518.9,206.6 519.5,206.1 520.1,205.5 520.7,205.0 521.3,204.4 522.0,203.9 522.6,203.3 523.2,237.8 523.8,237.4 524.4,237.0 525.1,236.6 525.7,236.2 526.3,235.8 526.9,235.3 527.5,234.9 528.2,234.5 528.8,234.1 529.4,233.7 530.0,233.2 530.6,232.8 531.3,232.4 531.9,232.0 532.5,231.5 533.1,231.1 533.7,230.7 534.4,230.2 535.0,229.8 535.6,249.5 536.2,249.1 536.8,248.8 537.5,248.4 538.1,248.1 538.7,247.7 539.3,247.4 539.9,247.0 540.6,246.7 541.2,246.3 541.8,245.9 542.4,245.6 543.0,245.2 543.7,244.8 544.3,244.5 544.9,244.1 545.5,243.7 546.1,243.3 546.8,243.0 547.4,242.6 548.0,256.5 548.6,256.2 549.2,255.8 549.9,255.5 550.5,255.2 551.1,254.9 551.7,254.5 552.3,254.2 553.0,253.9 553.6,253.6 554.2,253.2 554.8,252.9 555.4,252.6 556.1,252.2 556.7,251.9 557.3,251.5 557.9,251.2 558.5,250.8 559.2,250.5 559.8,250.1 560.4,261.1 561.0,260.8 561.6,260.5 562.3,260.2 562.9,259.9 563.5,259.6 564.1,259.3 564.7,258.9 565.4,258.6 566.0,258.3 566.6,258.0 567.2,257.7 567.8,257.4 568.5,257.1 569.1,256.7 569.7,256.4 570.3,256.1 570.9,255.8 571.6,255.4 572.2,255.1 572.8,264.3 573.4,264.0 574.0,263.7 574.7,263.4 575.3,263.1 575.9,262.8 576.5,262.5 577.1,262.2 577.8,261.9 578.4,261.6 579.0,261.3 579.6,261.0 580.2,260.7 580.9,260.4 581.5,260.1 582.1,259.7 582.7,259.5 583.3,259.1 584.0,258.8 584.6,258.5 585.2,258.2 585.8,257.9 586.4,257.5 587.1,257.2 587.7,256.9 588.3,256.6 588.9,256.2 589.5,255.9 590.2,255.6 590.8,255.2 591.4,254.9 592.0,254.5 592.6,254.2 593.3,253.9 593.9,253.5 594.5,253.2 595.1,252.8 595.7,252.5 596.4,252.1 597.0,251.8 597.6,262.1 598.2,261.8 598.8,261.5 599.5,261.2 600.1,260.9 600.7,260.6 601.3,260.3 601.9,259.9 602.6,259.6 603.2,259.3 603.8,259.0 604.4,258.7 605.0,258.4 605.7,258.0 606.3,257.7 606.9,257.4 607.5,257.1 608.1,256.7 608.8,256.4 609.4,256.1 610.0,264.9 610.6,264.6 611.2,264.3 611.9,264.0 612.5,263.8 613.1,263.5 613.7,263.1 614.3,262.8 615.0,262.6 615.6,262.2 616.2,261.9 616.8,261.6 617.4,261.3 618.1,261.0 618.7,260.7 619.3,260.4 619.9,260.1 620.5,259.7 621.2,259.4 621.8,259.1 622.4,267.0 623.0,266.7 623.6,266.4 624.3,266.1 624.9,265.9 625.5,265.6 626.1,265.2 626.7,264.9 627.4,264.7 628.0,264.4 628.6,264.1 629.2,263.7 629.8,263.5 630.5,263.2 631.1,262.8 631.7,262.5 632.3,262.3 632.9,261.9 633.6,261.6 634.2,261.3 634.8,268.5 635.4,268.3 636.0,268.0 636.7,267.7 637.3,267.4 637.9,267.1 638.5,266.8 639.1,266.5 639.8,266.3 640.4,266.0 641.0,265.6 641.6,265.3 642.2,265.1 642.9,264.8 643.5,264.5 644.1,264.1 644.7,263.9 645.3,263.6 646.0,263.2 646.6,262.9 647.2,269.7 647.8,269.4 648.4,269.1 649.1,268.8 649.7,268.6 650.3,268.3 650.9,268.0 651.5,267.7 652.2,267.4 652.8,267.1 653.4,266.8 654.0,266.5 654.6,266.3 655.3,266.0 655.9,265.7 656.5,265.4 657.1,265.1 657.7,264.8 658.4,264.5 659.0,264.2 659.6,270.6 660.2,270.3 660.8,270.0 661.5,269.7 662.1,269.5 662.7,269.2 663.3,268.9 663.9,268.6 664.6,268.4 665.2,268.1 665.8,267.8 666.4,267.5 667.0,267.2 667.7,266.9 668.3,266.6 668.9,266.3 669.5,266.0 670.1,265.7 670.8,265.4 671.4,265.1 672.0,271.3 672.6,271.0 673.2,270.7 673.9,270.4 674.5,270.2 675.1,269.9 675.7,269.6 676.3,269.3 677.0,269.1 677.6,268.8 678.2,268.5 678.8,268.2 679.4,267.9 680.1,267.6 680.7,267.3 681.3,267.0 681.9,266.7 682.5,266.4 683.2,266.1 683.8,265.8 684.4,271.8 685.0,271.5 685.6,271.2 686.3,271.0 686.9,270.7 687.5,270.4 688.1,270.1 688.7,269.8 689.4,269.6 690.0,269.3 690.6,269.0 691.2,268.7 691.8,268.5 692.5,268.2 693.1,267.9 693.7,267.6 694.3,267.3 694.9,267.0 695.6,266.7 696.2,266.4 696.8,272.2 697.4,271.9 698.0,271.7 698.7,271.4 699.3,271.1 699.9,270.9 700.5,270.6 701.1,270.3 701.8,270.0 702.4,269.7 703.0,269.4 703.6,269.2 704.2,268.9 704.9,268.6 705.5,268.3 706.1,268.0 706.7,267.8 707.3,267.5 708.0,267.2 708.6,266.9 709.2,272.6 709.8,272.3 710.4,272.0 711.1,271.7 711.7,271.5 712.3,271.2 712.9,270.9 713.5,270.6 714.2,270.4 714.8,270.1 715.4,269.8 716.0,269.5 716.6,269.3 717.3,269.0 717.9,268.7 718.5,268.4 719.1,268.1 719.7,267.8 720.4,267.5 721.0,267.2 721.6,272.8 722.2,272.6 722.8,272.3 723.5,272.0 724.1,271.8 724.7,271.5 725.3,271.2 725.9,270.9 726.6,270.7 727.2,270.4 727.8,270.1 728.4,269.8 729.0,269.6 729.7,269.3 730.3,269.0 730.9,268.7 731.5,268.4 732.1,268.1 732.8,267.8 733.4,267.5 734.0,273.1 734.6,272.8 735.2,272.5 735.9,272.3 736.5,272.0 737.1,271.7 737.7,271.5 738.3,271.2 739.0,270.9 739.6,270.7 740.2,270.4 740.8,270.1 741.4,269.8 742.1,269.5 742.7,269.3 743.3,269.0 743.9,268.7 744.5,268.4 745.2,268.1 745.8,267.8 746.4,273.3 747.0,273.0 747.6,272.7 748.3,272.5 748.9,272.2 749.5,272.0 750.1,271.7 750.7,271.4 751.4,271.2 752.0,270.9 752.6,270.6 753.2,270.3 753.8,270.1 754.5,269.8 755.1,269.5 755.7,269.2 756.3,269.0 756.9,268.7 757.6,268.4 758.2,268.1 758.8,273.5 759.4,273.2 760.0,272.9 760.7,272.7 761.3,272.4 761.9,272.2 762.5,271.9 763.1,271.6 763.8,271.4 764.4,271.1 765.0,270.8 765.6,270.5 766.2,270.3 766.9,270.0 767.5,269.7 768.1,269.4 768.7,269.2 769.3,268.9 770.0,268.6 770.6,268.3 771.2,273.7 771.8,273.4 772.4,273.1 773.1,272.9 773.7,272.6 774.3,272.4 774.9,272.1 775.5,271.8 776.2,271.6 776.8,271.3 777.4,271.0 778.0,270.7 778.6,270.5 779.3,270.2 779.9,269.9 780.5,269.7 781.1,269.4 781.7,269.1 782.4,268.8 783.0,268.6 783.6,273.8 784.2,273.6 784.8,273.3 785.5,273.0 786.1,272.8 786.7,272.5 787.3,272.3 787.9,272.0 788.6,271.8 789.2,271.5 789.8,271.2 790.4,270.9 791.0,270.7 791.7,270.4 792.3,270.1 792.9,269.9 793.5,269.6 794.1,269.3 794.8,269.1 795.4,268.8 796.0,274.0"/>
<text x="640" y="56" font-family="Arial" font-size="12" fill="#0f766e">aggressive covariance trace</text>
</svg>