<svg xmlns="http://www.w3.org/2000/svg" width="820" height="320" viewBox="0 0 820 320">
<rect width="100%" height="100%" fill="white"/>
<text x="52" y="30" font-family="Arial" font-size="18" font-weight="700">Truth altitude</text>
<line x1="52" y1="274" x2="796" y2="274" stroke="#263238"/>
<line x1="52" y1="42" x2="52" y2="274" stroke="#263238"/>
<text x="52" y="306" font-family="Arial" font-size="12">time (s)</text>
<text x="630" y="306" font-family="Arial" font-size="12">m</text>

<polyline fill="none" stroke="#0f766e" stroke-width="2.3" points="52.0,119.5 52.6,119.4 53.2,119.3 53.9,119.2 54.5,119.2 55.1,119.1 55.7,119.0 56.3,119.0 57.0,118.9 57.6,118.8 58.2,118.7 58.8,118.7 59.4,118.6 60.1,118.5 60.7,118.5 61.3,118.4 61.9,118.3 62.5,118.3 63.2,118.2 63.8,118.1 64.4,118.0 65.0,118.0 65.6,117.9 66.3,117.8 66.9,117.8 67.5,117.7 68.1,117.6 68.7,117.5 69.4,117.5 70.0,117.4 70.6,117.3 71.2,117.2 71.8,117.2 72.5,117.1 73.1,117.0 73.7,116.9 74.3,116.8 74.9,116.8 75.6,116.7 76.2,116.6 76.8,116.5 77.4,116.4 78.0,116.3 78.7,116.2 79.3,116.1 79.9,116.0 80.5,115.9 81.1,115.8 81.8,115.7 82.4,115.6 83.0,115.5 83.6,115.4 84.2,115.3 84.9,115.2 85.5,115.1 86.1,115.0 86.7,114.9 87.3,114.8 88.0,114.6 88.6,114.5 89.2,114.4 89.8,114.3 90.4,114.1 91.1,114.0 91.7,113.9 92.3,113.7 92.9,113.6 93.5,113.5 94.2,113.3 94.8,113.2 95.4,113.0 96.0,112.9 96.6,112.7 97.3,112.6 97.9,112.4 98.5,112.3 99.1,112.1 99.7,111.9 100.4,111.8 101.0,111.6 101.6,111.4 102.2,111.2 102.8,111.1 103.5,110.9 104.1,110.7 104.7,110.5 105.3,110.3 105.9,110.1 106.6,109.9 107.2,109.7 107.8,109.5 108.4,109.3 109.0,109.1 109.7,108.9 110.3,108.7 110.9,108.5 111.5,108.2 112.1,108.0 112.8,107.8 113.4,107.6 114.0,107.3 114.6,107.1 115.2,106.9 115.9,106.6 116.5,106.4 117.1,106.1 117.7,105.9 118.3,105.6 119.0,105.4 119.6,105.1 120.2,104.9 120.8,104.6 121.4,104.3 122.1,104.1 122.7,103.8 123.3,103.5 123.9,103.2 124.5,102.9 125.2,102.7 125.8,102.4 126.4,102.1 127.0,101.8 127.6,101.5 128.3,101.2 128.9,100.9 129.5,100.6 130.1,100.3 130.7,100.0 131.4,99.7 132.0,99.3 132.6,99.0 133.2,98.7 133.8,98.4 134.5,98.1 135.1,97.7 135.7,97.4 136.3,97.1 136.9,96.7 137.6,96.4 138.2,96.1 138.8,95.7 139.4,95.4 140.0,95.0 140.7,94.7 141.3,94.3 141.9,94.0 142.5,93.6 143.1,93.2 143.8,92.9 144.4,92.5 145.0,92.2 145.6,91.8 146.2,91.4 146.9,91.1 147.5,90.7 148.1,90.3 148.7,89.9 149.3,89.6 150.0,89.2 150.6,88.8 151.2,88.4 151.8,88.0 152.4,87.6 153.1,87.3 153.7,86.9 154.3,86.5 154.9,86.1 155.5,85.7 156.2,85.3 156.8,84.9 157.4,84.5 158.0,84.1 158.6,83.7 159.3,83.3 159.9,82.9 160.5,82.5 161.1,82.1 161.7,81.7 162.4,81.3 163.0,80.9 163.6,80.5 164.2,80.1 164.8,79.7 165.5,79.3 166.1,78.9 166.7,78.5 167.3,78.1 167.9,77.6 168.6,77.2 169.2,76.8 169.8,76.4 170.4,76.0 171.0,75.6 171.7,75.2 172.3,74.8 172.9,74.4 173.5,74.0 174.1,73.6 174.8,73.2 175.4,72.8 176.0,72.4 176.6,71.9 177.2,71.5 177.9,71.1 178.5,70.7 179.1,70.3 179.7,69.9 180.3,69.5 181.0,69.1 181.6,68.7 182.2,68.3 182.8,67.9 183.4,67.5 184.1,67.2 184.7,66.8 185.3,66.4 185.9,66.0 186.5,65.6 187.2,65.2 187.8,64.8 188.4,64.4 189.0,64.1 189.6,63.7 190.3,63.3 190.9,62.9 191.5,62.5 192.1,62.2 192.7,61.8 193.4,61.4 194.0,61.1 194.6,60.7 195.2,60.3 195.8,60.0 196.5,59.6 197.1,59.3 197.7,58.9 198.3,58.6 198.9,58.2 199.6,57.9 200.2,57.5 200.8,57.2 201.4,56.9 202.0,56.5 202.7,56.2 203.3,55.9 203.9,55.5 204.5,55.2 205.1,54.9 205.8,54.6 206.4,54.3 207.0,54.0 207.6,53.7 208.2,53.4 208.9,53.1 209.5,52.8 210.1,52.5 210.7,52.2 211.3,51.9 212.0,51.6 212.6,51.3 213.2,51.1 213.8,50.8 214.4,50.5 215.1,50.3 215.7,50.0 216.3,49.7 216.9,49.5 217.5,49.2 218.2,49.0 218.8,48.7 219.4,48.5 220.0,48.3 220.6,48.0 221.3,47.8 221.9,47.6 222.5,47.4 223.1,47.2 223.7,47.0 224.4,46.7 225.0,46.5 225.6,46.4 226.2,46.2 226.8,46.0 227.5,45.8 228.1,45.6 228.7,45.4 229.3,45.3 229.9,45.1 230.6,44.9 231.2,44.8 231.8,44.6 232.4,44.5 233.0,44.3 233.7,44.2 234.3,44.0 234.9,43.9 235.5,43.8 236.1,43.7 236.8,43.5 237.4,43.4 238.0,43.3 238.6,43.2 239.2,43.1 239.9,43.0 240.5,42.9 241.1,42.8 241.7,42.7 242.3,42.7 243.0,42.6 243.6,42.5 244.2,42.5 244.8,42.4 245.4,42.3 246.1,42.3 246.7,42.2 247.3,42.2 247.9,42.2 248.5,42.1 249.2,42.1 249.8,42.1 250.4,42.0 251.0,42.0 251.6,42.0 252.3,42.0 252.9,42.0 253.5,42.0 254.1,42.0 254.7,42.0 255.4,42.0 256.0,42.0 256.6,42.1 257.2,42.1 257.8,42.1 258.5,42.2 259.1,42.2 259.7,42.2 260.3,42.3 260.9,42.3 261.6,42.4 262.2,42.4 262.8,42.5 263.4,42.6 264.0,42.6 264.7,42.7 265.3,42.8 265.9,42.9 266.5,43.0 267.1,43.0 267.8,43.1 268.4,43.2 269.0,43.3 269.6,43.4 270.2,43.5 270.9,43.7 271.5,43.8 272.1,43.9 272.7,44.0 273.3,44.1 274.0,44.3 274.6,44.4 275.2,44.5 275.8,44.7 276.4,44.8 277.1,44.9 277.7,45.1 278.3,45.2 278.9,45.4 279.5,45.5 280.2,45.7 280.8,45.9 281.4,46.0 282.0,46.2 282.6,46.4 283.3,46.5 283.9,46.7 284.5,46.9 285.1,47.1 285.7,47.2 286.4,47.4 287.0,47.6 287.6,47.8 288.2,48.0 288.8,48.2 289.5,48.4 290.1,48.6 290.7,48.8 291.3,49.0 291.9,49.2 292.6,49.4 293.2,49.6 293.8,49.8 294.4,50.0 295.0,50.2 295.7,50.4 296.3,50.6 296.9,50.9 297.5,51.1 298.1,51.3 298.8,51.5 299.4,51.7 300.0,51.9 300.6,52.2 301.2,52.4 301.9,52.6 302.5,52.8 303.1,53.1 303.7,53.3 304.3,53.5 305.0,53.8 305.6,54.0 306.2,54.2 306.8,54.4 307.4,54.7 308.1,54.9 308.7,55.1 309.3,55.4 309.9,55.6 310.5,55.8 311.2,56.1 311.8,56.3 312.4,56.5 313.0,56.8 313.6,57.0 314.3,57.2 314.9,57.5 315.5,57.7 316.1,57.9 316.7,58.2 317.4,58.4 318.0,58.6 318.6,58.8 319.2,59.1 319.8,59.3 320.5,59.5 321.1,59.8 321.7,60.0 322.3,60.2 322.9,60.4 323.6,60.6 324.2,60.9 324.8,61.1 325.4,61.3 326.0,61.5 326.7,61.7 327.3,62.0 327.9,62.2 328.5,62.4 329.1,62.6 329.8,62.8 330.4,63.0 331.0,63.2 331.6,63.4 332.2,63.6 332.9,63.8 333.5,64.0 334.1,64.2 334.7,64.4 335.3,64.6 336.0,64.8 336.6,65.0 337.2,65.2 337.8,65.4 338.4,65.6 339.1,65.8 339.7,65.9 340.3,66.1 340.9,66.3 341.5,66.5 342.2,66.6 342.8,66.8 343.4,67.0 344.0,67.1 344.6,67.3 345.3,67.5 345.9,67.6 346.5,67.8 347.1,67.9 347.7,68.1 348.4,68.2 349.0,68.4 349.6,68.5 350.2,68.7 350.8,68.8 351.5,68.9 352.1,69.1 352.7,69.2 353.3,69.3 353.9,69.4 354.6,69.6 355.2,69.7 355.8,69.8 356.4,69.9 357.0,70.0 357.7,70.1 358.3,70.2 358.9,70.3 359.5,70.4 360.1,70.5 360.8,70.6 361.4,70.7 362.0,70.8 362.6,70.9 363.2,70.9 363.9,71.0 364.5,71.1 365.1,71.2 365.7,71.2 366.3,71.3 367.0,71.4 367.6,71.4 368.2,71.5 368.8,71.5 369.4,71.6 370.1,71.6 370.7,71.7 371.3,71.7 371.9,71.7 372.5,71.8 373.2,71.8 373.8,71.8 374.4,71.9 375.0,71.9 375.6,71.9 376.3,71.9 376.9,71.9 377.5,72.0 378.1,72.0 378.7,72.0 379.4,72.0 380.0,72.0 380.6,72.0 381.2,72.0 381.8,72.0 382.5,72.0 383.1,71.9 383.7,71.9 384.3,71.9 384.9,71.9 385.6,71.9 386.2,71.8 386.8,71.8 387.4,71.8 388.0,71.8 388.7,71.7 389.3,71.7 389.9,71.6 390.5,71.6 391.1,71.6 391.8,71.5 392.4,71.5 393.0,71.4 393.6,71.3 394.2,71.3 394.9,71.2 395.5,71.2 396.1,71.1 396.7,71.0 397.3,71.0 398.0,70.9 398.6,70.8 399.2,70.8 399.8,70.7 400.4,70.6 401.1,70.5 401.7,70.5 402.3,70.4 402.9,70.3 403.5,70.2 404.2,70.1 404.8,70.0 405.4,70.0 406.0,69.9 406.6,69.8 407.3,69.7 407.9,69.6 408.5,69.5 409.1,69.4 409.7,69.3 410.4,69.2 411.0,69.1 411.6,69.0 412.2,68.9 412.8,68.8 413.5,68.7 414.1,68.6 414.7,68.5 415.3,68.4 415.9,68.3 416.6,68.2 417.2,68.1 417.8,68.0 418.4,67.9 419.0,67.8 419.7,67.7 420.3,67.6 420.9,67.5 421.5,67.3 422.1,67.2 422.8,67.1 423.4,67.0 424.0,66.9 424.6,66.8 425.2,66.7 425.9,66.6 426.5,66.5 427.1,66.4 427.7,66.3 428.3,66.2 429.0,66.1 429.6,66.0 430.2,65.9 430.8,65.8 431.4,65.7 432.1,65.6 432.7,65.5 433.3,65.4 433.9,65.3 434.5,65.2 435.2,65.1 435.8,65.0 436.4,64.9 437.0,64.8 437.6,64.8 438.3,64.7 438.9,64.6 439.5,64.5 440.1,64.4 440.7,64.3 441.4,64.3 442.0,64.2 442.6,64.1 443.2,64.0 443.8,64.0 444.5,63.9 445.1,63.8 445.7,63.8 446.3,63.7 446.9,63.7 447.6,63.6 448.2,63.5 448.8,63.5 449.4,63.4 450.0,63.4 450.7,63.4 451.3,63.3 451.9,63.3 452.5,63.2 453.1,63.2 453.8,63.2 454.4,63.2 455.0,63.1 455.6,63.1 456.2,63.1 456.9,63.1 457.5,63.1 458.1,63.1 458.7,63.0 459.3,63.0 460.0,63.0 460.6,63.0 461.2,63.1 461.8,63.1 462.4,63.1 463.1,63.1 463.7,63.1 464.3,63.1 464.9,63.2 465.5,63.2 466.2,63.2 466.8,63.3 467.4,63.3 468.0,63.4 468.6,63.4 469.3,63.5 469.9,63.5 470.5,63.6 471.1,63.7 471.7,63.7 472.4,63.8 473.0,63.9 473.6,64.0 474.2,64.0 474.8,64.1 475.5,64.2 476.1,64.3 476.7,64.4 477.3,64.5 477.9,64.7 478.6,64.8 479.2,64.9 479.8,65.0 480.4,65.1 481.0,65.3 481.7,65.4 482.3,65.6 482.9,65.7 483.5,65.8 484.1,66.0 484.8,66.2 485.4,66.3 486.0,66.5 486.6,66.7 487.2,66.8 487.9,67.0 488.5,67.2 489.1,67.4 489.7,67.6 490.3,67.8 491.0,68.0 491.6,68.2 492.2,68.4 492.8,68.6 493.4,68.8 494.1,69.1 494.7,69.3 495.3,69.5 495.9,69.8 496.5,70.0 497.2,70.3 497.8,70.5 498.4,70.8 499.0,71.0 499.6,71.3 500.3,71.6 500.9,71.8 501.5,72.1 502.1,72.4 502.7,72.7 503.4,73.0 504.0,73.3 504.6,73.6 505.2,73.9 505.8,74.2 506.5,74.5 507.1,74.8 507.7,75.1 508.3,75.5 508.9,75.8 509.6,76.1 510.2,76.5 510.8,76.8 511.4,77.2 512.0,77.5 512.7,77.9 513.3,78.2 513.9,78.6 514.5,79.0 515.1,79.3 515.8,79.7 516.4,80.1 517.0,80.5 517.6,80.8 518.2,81.2 518.9,81.6 519.5,82.0 520.1,82.4 520.7,82.8 521.3,83.2 522.0,83.6 522.6,84.1 523.2,84.5 523.8,84.9 524.4,85.3 525.1,85.7 525.7,86.2 526.3,86.6 526.9,87.0 527.5,87.5 528.2,87.9 528.8,88.4 529.4,88.8 530.0,89.3 530.6,89.7 531.3,90.2 531.9,90.6 532.5,91.1 533.1,91.6 533.7,92.0 534.4,92.5 535.0,93.0 535.6,93.5 536.2,94.0 536.8,94.4 537.5,94.9 538.1,95.4 538.7,95.9 539.3,96.4 539.9,96.9 540.6,97.4 541.2,97.9 541.8,98.4 542.4,98.9 543.0,99.4 543.7,99.9 544.3,100.4 544.9,100.9 545.5,101.4 546.1,101.9 546.8,102.4 547.4,102.9 548.0,103.5 548.6,104.0 549.2,104.5 549.9,105.0 550.5,105.5 551.1,106.1 551.7,106.6 552.3,107.1 553.0,107.6 553.6,108.2 554.2,108.7 554.8,109.2 555.4,109.7 556.1,110.3 556.7,110.8 557.3,111.3 557.9,111.9 558.5,112.4 559.2,112.9 559.8,113.5 560.4,114.0 561.0,114.5 561.6,115.1 562.3,115.6 562.9,116.1 563.5,116.7 564.1,117.2 564.7,117.7 565.4,118.3 566.0,118.8 566.6,119.3 567.2,119.9 567.8,120.4 568.5,120.9 569.1,121.5 569.7,122.0 570.3,122.5 570.9,123.1 571.6,123.6 572.2,124.1 572.8,124.6 573.4,125.2 574.0,125.7 574.7,126.2 575.3,126.7 575.9,127.3 576.5,127.8 577.1,128.3 577.8,128.8 578.4,129.3 579.0,129.9 579.6,130.4 580.2,130.9 580.9,131.4 581.5,131.9 582.1,132.4 582.7,132.9 583.3,133.4 584.0,133.9 584.6,134.4 585.2,134.9 585.8,135.4 586.4,135.9 587.1,136.4 587.7,136.9 588.3,137.4 588.9,137.9 589.5,138.4 590.2,138.9 590.8,139.4 591.4,139.8 592.0,140.3 592.6,140.8 593.3,141.3 593.9,141.7 594.5,142.2 595.1,142.7 595.7,143.1 596.4,143.6 597.0,144.1 597.6,144.5 598.2,145.0 598.8,145.4 599.5,145.9 600.1,146.3 600.7,146.8 601.3,147.2 601.9,147.7 602.6,148.1 603.2,148.5 603.8,149.0 604.4,149.4 605.0,149.8 605.7,150.2 606.3,150.7 606.9,151.1 607.5,151.5 608.1,151.9 608.8,152.3 609.4,152.7 610.0,153.1 610.6,153.5 611.2,153.9 611.9,154.3 612.5,154.7 613.1,155.1 613.7,155.5 614.3,155.9 615.0,156.2 615.6,156.6 616.2,157.0 616.8,157.4 617.4,157.7 618.1,158.1 618.7,158.5 619.3,158.8 619.9,159.2 620.5,159.5 621.2,159.9 621.8,160.2 622.4,160.6 623.0,160.9 623.6,161.2 624.3,161.6 624.9,161.9 625.5,162.2 626.1,162.6 626.7,162.9 627.4,163.2 628.0,163.5 628.6,163.8 629.2,164.2 629.8,164.5 630.5,164.8 631.1,165.1 631.7,165.4 632.3,165.7 632.9,166.0 633.6,166.3 634.2,166.5 634.8,166.8 635.4,167.1 636.0,167.4 636.7,167.7 637.3,168.0 637.9,168.2 638.5,168.5 639.1,168.8 639.8,169.0 640.4,169.3 641.0,169.6 641.6,169.8 642.2,170.1 642.9,170.3 643.5,170.6 644.1,170.8 644.7,171.1 645.3,171.3 646.0,171.6 646.6,171.8 647.2,172.1 647.8,172.3 648.4,172.5 649.1,172.8 649.7,173.0 650.3,173.2 650.9,173.5 651.5,173.7 652.2,173.9 652.8,174.1 653.4,174.4 654.0,174.6 654.6,174.8 655.3,175.0 655.9,175.2 656.5,175.4 657.1,175.7 657.7,175.9 658.4,176.1 659.0,176.3 659.6,176.5 660.2,176.7 660.8,176.9 661.5,177.1 662.1,177.3 662.7,177.5 663.3,177.7 663.9,177.9 664.6,178.1 665.2,178.3 665.8,178.5 666.4,178.7 667.0,178.9 667.7,179.1 668.3,179.3 668.9,179.5 669.5,179.7 670.1,179.9 670.8,180.1 671.4,180.3 672.0,180.5 672.6,180.7 673.2,180.9 673.9,181.1 674.5,181.3 675.1,181.5 675.7,181.7 676.3,181.8 677.0,182.0 677.6,182.2 678.2,182.4 678.8,182.6 679.4,182.8 680.1,183.0 680.7,183.2 681.3,183.4 681.9,183.6 682.5,183.8 683.2,184.0 683.8,184.2 684.4,184.4 685.0,184.7 685.6,184.9 686.3,185.1 686.9,185.3 687.5,185.5 688.1,185.7 688.7,185.9 689.4,186.1 690.0,186.3 690.6,186.6 691.2,186.8 691.8,187.0 692.5,187.2 693.1,187.5 693.7,187.7 694.3,187.9 694.9,188.1 695.6,188.4 696.2,188.6 696.8,188.9 697.4,189.1 698.0,189.3 698.7,189.6 699.3,189.8 699.9,190.1 700.5,190.3 701.1,190.6 701.8,190.8 702.4,191.1 703.0,191.4 703.6,191.6 704.2,191.9 704.9,192.2 705.5,192.4 706.1,192.7 706.7,193.0 707.3,193.3 708.0,193.6 708.6,193.8 709.2,194.1 709.8,194.4 710.4,194.7 711.1,195.0 711.7,195.3 712.3,195.6 712.9,195.9 713.5,196.3 714.2,196.6 714.8,196.9 715.4,197.2 716.0,197.6 716.6,197.9 717.3,198.2 717.9,198.6 718.5,198.9 719.1,199.3 719.7,199.6 720.4,200.0 721.0,200.3 721.6,200.7 722.2,201.0 722.8,201.4 723.5,201.8 724.1,202.2 724.7,202.6 725.3,202.9 725.9,203.3 726.6,203.7 727.2,204.1 727.8,204.5 728.4,204.9 729.0,205.3 729.7,205.8 730.3,206.2 730.9,206.6 731.5,207.0 732.1,207.5 732.8,207.9 733.4,208.3 734.0,208.8 734.6,209.2 735.2,209.7 735.9,210.1 736.5,210.6 737.1,211.1 737.7,211.5 738.3,212.0 739.0,212.5 739.6,213.0 740.2,213.5 740.8,214.0 741.4,214.5 742.1,215.0 742.7,215.5 743.3,216.0 743.9,216.5 744.5,217.0 745.2,217.6 745.8,218.1 746.4,218.6 747.0,219.2 747.6,219.7 748.3,220.3 748.9,220.8 749.5,221.4 750.1,221.9 750.7,222.5 751.4,223.1 752.0,223.6 752.6,224.2 753.2,224.8 753.8,225.4 754.5,226.0 755.1,226.6 755.7,227.2 756.3,227.8 756.9,228.4 757.6,229.0 758.2,229.6 758.8,230.2 759.4,230.9 760.0,231.5 760.7,232.1 761.3,232.8 761.9,233.4 762.5,234.0 763.1,234.7 763.8,235.3 764.4,236.0 765.0,236.7 765.6,237.3 766.2,238.0 766.9,238.7 767.5,239.4 768.1,240.0 768.7,240.7 769.3,241.4 770.0,242.1 770.6,242.8 771.2,243.5 771.8,244.2 772.4,244.9 773.1,245.6 773.7,246.3 774.3,247.1 774.9,247.8 775.5,248.5 776.2,249.2 776.8,250.0 777.4,250.7 778.0,251.4 778.6,252.2 779.3,252.9 779.9,253.7 780.5,254.4 781.1,255.2 781.7,255.9 782.4,256.7 783.0,257.4 783.6,258.2 784.2,259.0 784.8,259.7 785.5,260.5 786.1,261.3 786.7,262.1 787.3,262.8 787.9,263.6 788.6,264.4 789.2,265.2 789.8,266.0 790.4,266.8 791.0,267.6 791.7,268.4 792.3,269.2 792.9,270.0 793.5,270.8 794.1,271.6 794.8,272.4 795.4,273.2 796.0,274.0"/>
<text x="640" y="56" font-family="Arial" font-size="12" fill="#0f766e">Truth altitude</text>
</svg>