<svg xmlns="http://www.w3.org/2000/svg" width="820" height="320" viewBox="0 0 820 320">
<rect width="100%" height="100%" fill="white"/>
<text x="52" y="30" font-family="Arial" font-size="18" font-weight="700">ekf_aggressive altitude</text>
<line x1="52" y1="274" x2="796" y2="274" stroke="#263238"/>
<line x1="52" y1="42" x2="52" y2="274" stroke="#263238"/>
<text x="52" y="306" font-family="Arial" font-size="12">time (s)</text>
<text x="630" y="306" font-family="Arial" font-size="12">m</text>

<rect x="399.2" y="42" width="99.2" height="232" fill="#fef3c7" opacity="0.72"/>
<polyline fill="none" stroke="#0f766e" stroke-width="2.3" points="52.0,120.7 52.6,120.6 53.2,120.6 53.9,120.5 54.5,120.4 55.1,120.3 55.7,120.3 56.3,120.2 57.0,120.1 57.6,120.1 58.2,120.0 58.8,119.9 59.4,119.9 60.1,119.8 60.7,119.7 61.3,119.7 61.9,119.6 62.5,119.5 63.2,119.5 63.8,119.4 64.4,119.3 65.0,119.3 65.6,119.2 66.3,119.1 66.9,119.1 67.5,119.0 68.1,118.9 68.7,118.8 69.4,118.8 70.0,118.7 70.6,118.6 71.2,118.5 71.8,118.5 72.5,118.4 73.1,118.3 73.7,118.2 74.3,118.2 74.9,118.1 75.6,118.0 76.2,117.9 76.8,117.8 77.4,117.7 78.0,117.6 78.7,117.6 79.3,117.5 79.9,117.4 80.5,117.3 81.1,117.2 81.8,117.1 82.4,117.0 83.0,116.9 83.6,116.8 84.2,116.7 84.9,116.6 85.5,116.5 86.1,116.4 86.7,116.2 87.3,116.1 88.0,116.0 88.6,115.9 89.2,115.8 89.8,115.7 90.4,115.5 91.1,115.4 91.7,115.3 92.3,115.1 92.9,115.0 93.5,114.9 94.2,114.7 94.8,114.6 95.4,114.4 96.0,114.3 96.6,114.2 97.3,114.0 97.9,113.9 98.5,113.7 99.1,113.5 99.7,113.4 100.4,113.2 101.0,113.0 101.6,112.9 102.2,112.7 102.8,112.5 103.5,112.4 104.1,112.2 104.7,112.0 105.3,111.8 105.9,111.6 106.6,111.4 107.2,111.2 107.8,111.0 108.4,110.8 109.0,110.6 109.7,110.4 110.3,110.2 110.9,110.0 111.5,109.8 112.1,109.6 112.8,109.4 113.4,109.1 114.0,108.9 114.6,108.7 115.2,108.5 115.9,108.2 116.5,108.0 117.1,107.7 117.7,107.5 118.3,107.3 119.0,107.0 119.6,106.8 120.2,106.5 120.8,106.2 121.4,106.0 122.1,105.7 122.7,105.5 123.3,105.2 123.9,104.9 124.5,104.6 125.2,104.4 125.8,104.1 126.4,103.8 127.0,103.5 127.6,103.2 128.3,102.9 128.9,102.6 129.5,102.3 130.1,102.0 130.7,101.7 131.4,101.4 132.0,101.1 132.6,100.8 133.2,100.5 133.8,100.2 134.5,99.9 135.1,99.6 135.7,99.2 136.3,98.9 136.9,98.6 137.6,98.3 138.2,97.9 138.8,97.6 139.4,97.3 140.0,96.9 140.7,96.6 141.3,96.2 141.9,95.9 142.5,95.5 143.1,95.2 143.8,94.8 144.4,94.5 145.0,94.1 145.6,93.8 146.2,93.4 146.9,93.1 147.5,92.7 148.1,92.3 148.7,92.0 149.3,91.6 150.0,91.2 150.6,90.9 151.2,90.5 151.8,90.1 152.4,89.7 153.1,89.4 153.7,89.0 154.3,88.6 154.9,88.2 155.5,87.8 156.2,87.5 156.8,87.1 157.4,86.7 158.0,86.3 158.6,85.9 159.3,85.5 159.9,85.1 160.5,84.7 161.1,84.4 161.7,84.0 162.4,83.6 163.0,83.2 163.6,82.8 164.2,82.4 164.8,82.0 165.5,81.6 166.1,81.2 166.7,80.8 167.3,80.4 167.9,80.0 168.6,79.6 169.2,79.2 169.8,78.8 170.4,78.4 171.0,78.0 171.7,77.6 172.3,77.2 172.9,76.8 173.5,76.4 174.1,76.1 174.8,75.7 175.4,75.3 176.0,74.9 176.6,74.5 177.2,74.1 177.9,73.7 178.5,73.3 179.1,72.9 179.7,72.5 180.3,72.1 181.0,71.7 181.6,71.3 182.2,71.0 182.8,70.6 183.4,70.2 184.1,69.8 184.7,69.4 185.3,69.0 185.9,68.7 186.5,68.3 187.2,67.9 187.8,67.5 188.4,67.2 189.0,66.8 189.6,66.4 190.3,66.1 190.9,65.7 191.5,65.3 192.1,65.0 192.7,64.6 193.4,64.2 194.0,63.9 194.6,63.5 195.2,63.2 195.8,62.8 196.5,62.5 197.1,62.1 197.7,61.8 198.3,61.5 198.9,61.1 199.6,60.8 200.2,60.5 200.8,60.1 201.4,59.8 202.0,59.5 202.7,59.1 203.3,58.8 203.9,58.5 204.5,58.2 205.1,57.9 205.8,57.6 206.4,57.3 207.0,57.0 207.6,56.7 208.2,56.4 208.9,56.1 209.5,55.8 210.1,55.5 210.7,55.2 211.3,55.0 212.0,54.7 212.6,54.4 213.2,54.1 213.8,53.9 214.4,53.6 215.1,53.4 215.7,53.1 216.3,52.9 216.9,52.6 217.5,52.4 218.2,52.1 218.8,51.9 219.4,51.7 220.0,51.4 220.6,51.2 221.3,51.0 221.9,50.8 222.5,50.6 223.1,50.4 223.7,50.2 224.4,50.0 225.0,49.8 225.6,49.6 226.2,49.4 226.8,49.2 227.5,49.0 228.1,48.8 228.7,48.7 229.3,48.5 229.9,48.3 230.6,48.2 231.2,48.0 231.8,47.9 232.4,47.7 233.0,47.6 233.7,47.4 234.3,47.3 234.9,47.2 235.5,47.1 236.1,46.9 236.8,46.8 237.4,46.7 238.0,46.6 238.6,46.5 239.2,46.4 239.9,46.3 240.5,46.2 241.1,46.1 241.7,46.1 242.3,46.0 243.0,45.9 243.6,45.8 244.2,45.8 244.8,45.7 245.4,45.7 246.1,45.6 246.7,45.6 247.3,45.5 247.9,45.5 248.5,45.4 249.2,45.4 249.8,45.4 250.4,45.4 251.0,45.4 251.6,45.3 252.3,45.3 252.9,45.3 253.5,45.3 254.1,45.3 254.7,45.3 255.4,45.4 256.0,45.4 256.6,45.4 257.2,45.4 257.8,45.4 258.5,45.5 259.1,45.5 259.7,45.6 260.3,45.6 260.9,45.6 261.6,45.7 262.2,45.8 262.8,45.8 263.4,45.9 264.0,46.0 264.7,46.0 265.3,46.1 265.9,46.2 266.5,46.3 267.1,46.3 267.8,46.4 268.4,46.5 269.0,46.6 269.6,46.7 270.2,46.8 270.9,46.9 271.5,47.0 272.1,47.2 272.7,47.3 273.3,47.4 274.0,47.5 274.6,47.7 275.2,47.8 275.8,47.9 276.4,48.1 277.1,48.2 277.7,48.3 278.3,48.5 278.9,48.6 279.5,48.8 280.2,48.9 280.8,49.1 281.4,49.2 282.0,49.4 282.6,49.6 283.3,49.7 283.9,49.9 284.5,50.1 285.1,50.3 285.7,50.4 286.4,50.6 287.0,50.8 287.6,51.0 288.2,51.2 288.8,51.3 289.5,51.5 290.1,51.7 290.7,51.9 291.3,52.1 291.9,52.3 292.6,52.5 293.2,52.7 293.8,52.9 294.4,53.1 295.0,53.3 295.7,53.5 296.3,53.7 296.9,53.9 297.5,54.2 298.1,54.4 298.8,54.6 299.4,54.8 300.0,55.0 300.6,55.2 301.2,55.4 301.9,55.7 302.5,55.9 303.1,56.1 303.7,56.3 304.3,56.5 305.0,56.8 305.6,57.0 306.2,57.2 306.8,57.4 307.4,57.7 308.1,57.9 308.7,58.1 309.3,58.3 309.9,58.6 310.5,58.8 311.2,59.0 311.8,59.2 312.4,59.5 313.0,59.7 313.6,59.9 314.3,60.1 314.9,60.4 315.5,60.6 316.1,60.8 316.7,61.0 317.4,61.3 318.0,61.5 318.6,61.7 319.2,61.9 319.8,62.2 320.5,62.4 321.1,62.6 321.7,62.8 322.3,63.0 322.9,63.3 323.6,63.5 324.2,63.7 324.8,63.9 325.4,64.1 326.0,64.3 326.7,64.5 327.3,64.8 327.9,65.0 328.5,65.2 329.1,65.4 329.8,65.6 330.4,65.8 331.0,66.0 331.6,66.2 332.2,66.4 332.9,66.6 333.5,66.8 334.1,67.0 334.7,67.2 335.3,67.4 336.0,67.5 336.6,67.7 337.2,67.9 337.8,68.1 338.4,68.3 339.1,68.4 339.7,68.6 340.3,68.8 340.9,69.0 341.5,69.1 342.2,69.3 342.8,69.5 343.4,69.6 344.0,69.8 344.6,70.0 345.3,70.1 345.9,70.3 346.5,70.4 347.1,70.6 347.7,70.7 348.4,70.9 349.0,71.0 349.6,71.1 350.2,71.3 350.8,71.4 351.5,71.5 352.1,71.7 352.7,71.8 353.3,71.9 353.9,72.0 354.6,72.1 355.2,72.3 355.8,72.4 356.4,72.5 357.0,72.6 357.7,72.7 358.3,72.8 358.9,72.9 359.5,73.0 360.1,73.1 360.8,73.2 361.4,73.3 362.0,73.3 362.6,73.4 363.2,73.5 363.9,73.6 364.5,73.6 365.1,73.7 365.7,73.8 366.3,73.8 367.0,73.9 367.6,74.0 368.2,74.0 368.8,74.1 369.4,74.1 370.1,74.2 370.7,74.2 371.3,74.2 371.9,74.3 372.5,74.3 373.2,74.3 373.8,74.4 374.4,74.4 375.0,74.4 375.6,74.4 376.3,74.5 376.9,74.5 377.5,74.5 378.1,74.5 378.7,74.5 379.4,74.5 380.0,74.5 380.6,74.5 381.2,74.5 381.8,74.5 382.5,74.5 383.1,74.5 383.7,74.5 384.3,74.4 384.9,74.4 385.6,74.4 386.2,74.4 386.8,74.3 387.4,74.3 388.0,74.3 388.7,74.2 389.3,74.2 389.9,74.2 390.5,74.1 391.1,74.1 391.8,74.0 392.4,74.0 393.0,73.9 393.6,73.9 394.2,73.8 394.9,73.8 395.5,73.7 396.1,73.7 396.7,73.6 397.3,73.5 398.0,73.5 398.6,73.4 399.2,73.3 399.8,73.3 400.4,73.2 401.1,73.1 401.7,73.0 402.3,72.9 402.9,72.9 403.5,72.8 404.2,72.7 404.8,72.6 405.4,72.5 406.0,72.4 406.6,72.4 407.3,72.3 407.9,72.2 408.5,72.1 409.1,72.0 409.7,71.9 410.4,71.8 411.0,71.7 411.6,71.6 412.2,71.5 412.8,71.4 413.5,71.3 414.1,71.2 414.7,71.1 415.3,71.0 415.9,70.9 416.6,70.8 417.2,70.7 417.8,70.6 418.4,70.5 419.0,70.4 419.7,70.3 420.3,70.2 420.9,70.1 421.5,70.0 422.1,69.9 422.8,69.8 423.4,69.7 424.0,69.6 424.6,69.5 425.2,69.4 425.9,69.3 426.5,69.2 427.1,69.1 427.7,69.0 428.3,68.9 429.0,68.8 429.6,68.7 430.2,68.6 430.8,68.5 431.4,68.4 432.1,68.3 432.7,68.2 433.3,68.1 433.9,68.0 434.5,67.9 435.2,67.8 435.8,67.7 436.4,67.6 437.0,67.6 437.6,67.5 438.3,67.4 438.9,67.3 439.5,67.2 440.1,67.1 440.7,67.1 441.4,67.0 442.0,66.9 442.6,66.8 443.2,66.8 443.8,66.7 444.5,66.6 445.1,66.6 445.7,66.5 446.3,66.5 446.9,66.4 447.6,66.3 448.2,66.3 448.8,66.2 449.4,66.2 450.0,66.2 450.7,66.1 451.3,66.1 451.9,66.0 452.5,66.0 453.1,66.0 453.8,65.9 454.4,65.9 455.0,65.9 455.6,65.9 456.2,65.8 456.9,65.8 457.5,65.8 458.1,65.8 458.7,65.8 459.3,65.8 460.0,65.8 460.6,65.8 461.2,65.8 461.8,65.8 462.4,65.8 463.1,65.9 463.7,65.9 464.3,65.9 464.9,65.9 465.5,66.0 466.2,66.0 466.8,66.0 467.4,66.1 468.0,66.1 468.6,66.2 469.3,66.2 469.9,66.3 470.5,66.3 471.1,66.4 471.7,66.5 472.4,66.5 473.0,66.6 473.6,66.7 474.2,66.8 474.8,66.9 475.5,67.0 476.1,67.1 476.7,67.2 477.3,67.3 477.9,67.4 478.6,67.5 479.2,67.6 479.8,67.7 480.4,67.8 481.0,68.0 481.7,68.1 482.3,68.2 482.9,68.4 483.5,68.5 484.1,68.7 484.8,68.8 485.4,69.0 486.0,69.2 486.6,69.3 487.2,69.5 487.9,69.7 488.5,69.9 489.1,70.0 489.7,70.2 490.3,70.4 491.0,70.6 491.6,70.8 492.2,71.0 492.8,71.2 493.4,71.5 494.1,71.7 494.7,71.9 495.3,72.1 495.9,72.4 496.5,72.6 497.2,72.8 497.8,73.1 498.4,73.3 499.0,73.6 499.6,73.8 500.3,74.1 500.9,74.4 501.5,74.6 502.1,74.9 502.7,75.2 503.4,75.5 504.0,75.8 504.6,76.1 505.2,76.4 505.8,76.7 506.5,77.0 507.1,77.3 507.7,77.6 508.3,77.9 508.9,78.2 509.6,78.5 510.2,78.9 510.8,79.2 511.4,79.5 512.0,79.9 512.7,80.2 513.3,80.6 513.9,80.9 514.5,81.3 515.1,81.6 515.8,82.0 516.4,82.4 517.0,82.7 517.6,83.1 518.2,83.5 518.9,83.9 519.5,84.3 520.1,84.7 520.7,85.1 521.3,85.4 522.0,85.8 522.6,86.2 523.2,86.7 523.8,87.1 524.4,87.5 525.1,87.9 525.7,88.3 526.3,88.7 526.9,89.2 527.5,89.6 528.2,90.0 528.8,90.5 529.4,90.9 530.0,91.3 530.6,91.8 531.3,92.2 531.9,92.7 532.5,93.1 533.1,93.6 533.7,94.0 534.4,94.5 535.0,95.0 535.6,95.4 536.2,95.9 536.8,96.4 537.5,96.8 538.1,97.3 538.7,97.8 539.3,98.3 539.9,98.7 540.6,99.2 541.2,99.7 541.8,100.2 542.4,100.7 543.0,101.2 543.7,101.7 544.3,102.1 544.9,102.6 545.5,103.1 546.1,103.6 546.8,104.1 547.4,104.6 548.0,105.1 548.6,105.6 549.2,106.1 549.9,106.7 550.5,107.2 551.1,107.7 551.7,108.2 552.3,108.7 553.0,109.2 553.6,109.7 554.2,110.2 554.8,110.7 555.4,111.3 556.1,111.8 556.7,112.3 557.3,112.8 557.9,113.3 558.5,113.8 559.2,114.4 559.8,114.9 560.4,115.4 561.0,115.9 561.6,116.4 562.3,117.0 562.9,117.5 563.5,118.0 564.1,118.5 564.7,119.0 565.4,119.6 566.0,120.1 566.6,120.6 567.2,121.1 567.8,121.6 568.5,122.1 569.1,122.7 569.7,123.2 570.3,123.7 570.9,124.2 571.6,124.7 572.2,125.2 572.8,125.8 573.4,126.3 574.0,126.8 574.7,127.3 575.3,127.8 575.9,128.3 576.5,128.8 577.1,129.3 577.8,129.8 578.4,130.3 579.0,130.8 579.6,131.3 580.2,131.8 580.9,132.3 581.5,132.8 582.1,133.3 582.7,133.8 583.3,134.3 584.0,134.8 584.6,135.3 585.2,135.8 585.8,136.3 586.4,136.7 587.1,137.2 587.7,137.7 588.3,138.2 588.9,138.7 589.5,139.1 590.2,139.6 590.8,140.1 591.4,140.5 592.0,141.0 592.6,141.5 593.3,141.9 593.9,142.4 594.5,142.9 595.1,143.3 595.7,143.8 596.4,144.2 597.0,144.7 597.6,145.1 598.2,145.5 598.8,146.0 599.5,146.4 600.1,146.9 600.7,147.3 601.3,147.7 601.9,148.2 602.6,148.6 603.2,149.0 603.8,149.4 604.4,149.8 605.0,150.2 605.7,150.7 606.3,151.1 606.9,151.5 607.5,151.9 608.1,152.3 608.8,152.7 609.4,153.1 610.0,153.5 610.6,153.9 611.2,154.2 611.9,154.6 612.5,155.0 613.1,155.4 613.7,155.8 614.3,156.1 615.0,156.5 615.6,156.9 616.2,157.2 616.8,157.6 617.4,157.9 618.1,158.3 618.7,158.7 619.3,159.0 619.9,159.4 620.5,159.7 621.2,160.0 621.8,160.4 622.4,160.7 623.0,161.0 623.6,161.4 624.3,161.7 624.9,162.0 625.5,162.3 626.1,162.7 626.7,163.0 627.4,163.3 628.0,163.6 628.6,163.9 629.2,164.2 629.8,164.5 630.5,164.8 631.1,165.1 631.7,165.4 632.3,165.7 632.9,166.0 633.6,166.2 634.2,166.5 634.8,166.8 635.4,167.1 636.0,167.4 636.7,167.6 637.3,167.9 637.9,168.2 638.5,168.4 639.1,168.7 639.8,169.0 640.4,169.2 641.0,169.5 641.6,169.7 642.2,170.0 642.9,170.2 643.5,170.5 644.1,170.7 644.7,171.0 645.3,171.2 646.0,171.4 646.6,171.7 647.2,171.9 647.8,172.1 648.4,172.4 649.1,172.6 649.7,172.8 650.3,173.0 650.9,173.3 651.5,173.5 652.2,173.7 652.8,173.9 653.4,174.1 654.0,174.3 654.6,174.6 655.3,174.8 655.9,175.0 656.5,175.2 657.1,175.4 657.7,175.6 658.4,175.8 659.0,176.0 659.6,176.2 660.2,176.4 660.8,176.6 661.5,176.8 662.1,177.0 662.7,177.2 663.3,177.4 663.9,177.6 664.6,177.8 665.2,178.0 665.8,178.2 666.4,178.4 667.0,178.6 667.7,178.8 668.3,178.9 668.9,179.1 669.5,179.3 670.1,179.5 670.8,179.7 671.4,179.9 672.0,180.1 672.6,180.3 673.2,180.5 673.9,180.7 674.5,180.8 675.1,181.0 675.7,181.2 676.3,181.4 677.0,181.6 677.6,181.8 678.2,182.0 678.8,182.2 679.4,182.4 680.1,182.6 680.7,182.8 681.3,183.0 681.9,183.2 682.5,183.4 683.2,183.6 683.8,183.7 684.4,183.9 685.0,184.1 685.6,184.4 686.3,184.6 686.9,184.8 687.5,185.0 688.1,185.2 688.7,185.4 689.4,185.6 690.0,185.8 690.6,186.0 691.2,186.2 691.8,186.4 692.5,186.7 693.1,186.9 693.7,187.1 694.3,187.3 694.9,187.5 695.6,187.8 696.2,188.0 696.8,188.2 697.4,188.5 698.0,188.7 698.7,188.9 699.3,189.2 699.9,189.4 700.5,189.7 701.1,189.9 701.8,190.2 702.4,190.4 703.0,190.7 703.6,190.9 704.2,191.2 704.9,191.5 705.5,191.7 706.1,192.0 706.7,192.3 707.3,192.5 708.0,192.8 708.6,193.1 709.2,193.4 709.8,193.7 710.4,194.0 711.1,194.2 711.7,194.5 712.3,194.8 712.9,195.1 713.5,195.4 714.2,195.8 714.8,196.1 715.4,196.4 716.0,196.7 716.6,197.0 717.3,197.4 717.9,197.7 718.5,198.0 719.1,198.4 719.7,198.7 720.4,199.0 721.0,199.4 721.6,199.7 722.2,200.1 722.8,200.5 723.5,200.8 724.1,201.2 724.7,201.6 725.3,201.9 725.9,202.3 726.6,202.7 727.2,203.1 727.8,203.5 728.4,203.9 729.0,204.3 729.7,204.7 730.3,205.1 730.9,205.5 731.5,205.9 732.1,206.3 732.8,206.8 733.4,207.2 734.0,207.6 734.6,208.1 735.2,208.5 735.9,209.0 736.5,209.4 737.1,209.9 737.7,210.3 738.3,210.8 739.0,211.3 739.6,211.7 740.2,212.2 740.8,212.7 741.4,213.2 742.1,213.7 742.7,214.2 743.3,214.6 743.9,215.2 744.5,215.7 745.2,216.2 745.8,216.7 746.4,217.2 747.0,217.7 747.6,218.3 748.3,218.8 748.9,219.3 749.5,219.9 750.1,220.4 750.7,221.0 751.4,221.5 752.0,222.1 752.6,222.6 753.2,223.2 753.8,223.8 754.5,224.4 755.1,224.9 755.7,225.5 756.3,226.1 756.9,226.7 757.6,227.3 758.2,227.9 758.8,228.5 759.4,229.1 760.0,229.7 760.7,230.3 761.3,231.0 761.9,231.6 762.5,232.2 763.1,232.8 763.8,233.5 764.4,234.1 765.0,234.8 765.6,235.4 766.2,236.1 766.9,236.7 767.5,237.4 768.1,238.0 768.7,238.7 769.3,239.4 770.0,240.1 770.6,240.7 771.2,241.4 771.8,242.1 772.4,242.8 773.1,243.5 773.7,244.2 774.3,244.9 774.9,245.6 775.5,246.3 776.2,247.0 776.8,247.7 777.4,248.4 778.0,249.1 778.6,249.9 779.3,250.6 779.9,251.3 780.5,252.0 781.1,252.8 781.7,253.5 782.4,254.2 783.0,255.0 783.6,255.7 784.2,256.5 784.8,257.2 785.5,258.0 786.1,258.7 786.7,259.5 787.3,260.2 787.9,261.0 788.6,261.8 789.2,262.5 789.8,263.3 790.4,264.1 791.0,264.8 791.7,265.6 792.3,266.4 792.9,267.2 793.5,268.0 794.1,268.7 794.8,269.5 795.4,270.3 796.0,271.1"/>
<text x="640" y="56" font-family="Arial" font-size="12" fill="#0f766e">truth</text>
<polyline fill="none" stroke="#2563eb" stroke-width="2.3" points="52.0,120.0 52.6,119.9 53.2,119.7 53.9,119.6 54.5,125.0 55.1,125.8 55.7,126.7 56.3,127.5 57.0,115.1 57.6,114.2 58.2,113.2 58.8,112.2 59.4,118.4 60.1,118.2 60.7,118.0 61.3,117.7 61.9,120.0 62.5,119.9 63.2,119.9 63.8,119.9 64.4,119.8 65.0,119.7 65.6,119.7 66.3,119.7 66.9,120.7 67.5,120.7 68.1,120.8 68.7,120.8 69.4,120.9 70.0,121.0 70.6,121.0 71.2,121.0 71.8,120.1 72.5,120.1 73.1,120.0 73.7,120.0 74.3,116.5 74.9,116.2 75.6,116.0 76.2,115.8 76.8,117.4 77.4,117.2 78.0,117.1 78.7,117.0 79.3,117.8 79.9,117.7 80.5,117.6 81.1,117.5 81.8,117.6 82.4,117.5 83.0,117.4 83.6,117.3 84.2,118.6 84.9,118.6 85.5,118.6 86.1,118.6 86.7,120.0 87.3,120.0 88.0,120.1 88.6,120.2 89.2,119.3 89.8,119.3 90.4,119.4 91.1,119.4 91.7,117.0 92.3,116.9 92.9,116.8 93.5,116.7 94.2,116.8 94.8,116.7 95.4,116.6 96.0,116.5 96.6,115.0 97.3,114.8 97.9,114.6 98.5,114.4 99.1,111.4 99.7,111.0 100.4,110.7 101.0,110.3 101.6,110.4 102.2,110.0 102.8,109.7 103.5,109.3 104.1,110.2 104.7,109.8 105.3,109.5 105.9,109.2 106.6,108.3 107.2,107.9 107.8,107.6 108.4,107.2 109.0,110.4 109.7,110.1 110.3,109.9 110.9,109.7 111.5,111.4 112.1,111.2 112.8,111.1 113.4,110.9 114.0,110.3 114.6,110.1 115.2,109.9 115.9,109.7 116.5,108.1 117.1,107.9 117.7,107.6 118.3,107.3 119.0,107.1 119.6,106.9 120.2,106.6 120.8,106.3 121.4,107.1 122.1,106.8 122.7,106.6 123.3,106.3 123.9,107.0 124.5,106.8 125.2,106.5 125.8,106.3 126.4,106.0 127.0,105.8 127.6,105.5 128.3,105.3 128.9,103.6 129.5,103.3 130.1,103.1 130.7,102.8 131.4,104.1 132.0,103.9 132.6,103.6 133.2,103.4 133.8,100.5 134.5,100.2 135.1,99.8 135.7,99.5 136.3,99.5 136.9,99.2 137.6,98.8 138.2,98.5 138.8,97.9 139.4,97.5 140.0,97.2 140.7,96.8 141.3,97.4 141.9,97.1 142.5,96.7 143.1,96.4 143.8,96.1 144.4,95.8 145.0,95.4 145.6,95.1 146.2,94.6 146.9,94.2 147.5,93.9 148.1,93.5 148.7,92.6 149.3,92.2 150.0,91.8 150.6,91.4 151.2,90.3 151.8,89.9 152.4,89.5 153.1,89.1 153.7,87.2 154.3,86.8 154.9,86.4 155.5,85.9 156.2,84.4 156.8,83.9 157.4,83.4 158.0,83.0 158.6,82.5 159.3,82.1 159.9,81.6 160.5,81.1 161.1,81.3 161.7,80.8 162.4,80.3 163.0,79.9 163.6,81.2 164.2,80.8 164.8,80.4 165.5,79.9 166.1,80.6 166.7,80.2 167.3,79.8 167.9,79.4 168.6,79.9 169.2,79.5 169.8,79.1 170.4,78.7 171.0,78.3 171.7,77.9 172.3,77.5 172.9,77.1 173.5,76.2 174.1,75.8 174.8,75.4 175.4,75.0 176.0,74.4 176.6,74.0 177.2,73.6 177.9,73.2 178.5,72.1 179.1,71.7 179.7,71.2 180.3,70.8 181.0,69.5 181.6,69.0 182.2,68.6 182.8,68.2 183.4,68.4 184.1,68.0 184.7,67.6 185.3,67.1 185.9,65.9 186.5,65.4 187.2,65.0 187.8,64.6 188.4,63.7 189.0,63.2 189.6,62.8 190.3,62.4 190.9,62.7 191.5,62.3 192.1,61.8 192.7,61.4 193.4,61.4 194.0,61.0 194.6,60.6 195.2,60.3 195.8,58.5 196.5,58.1 197.1,57.7 197.7,57.3 198.3,58.0 198.9,57.6 199.6,57.3 200.2,56.9 200.8,58.8 201.4,58.4 202.0,58.1 202.7,57.8 203.3,58.5 203.9,58.1 204.5,57.8 205.1,57.5 205.8,56.8 206.4,56.5 207.0,56.2 207.6,56.0 208.2,56.3 208.9,56.0 209.5,55.7 210.1,55.5 210.7,55.0 211.3,54.8 212.0,54.5 212.6,54.3 213.2,54.4 213.8,54.2 214.4,53.9 215.1,53.7 215.7,52.8 216.3,52.6 216.9,52.3 217.5,52.1 218.2,50.9 218.8,50.6 219.4,50.4 220.0,50.2 220.6,50.0 221.3,49.8 221.9,49.6 222.5,49.4 223.1,48.7 223.7,48.5 224.4,48.3 225.0,48.1 225.6,47.3 226.2,47.1 226.8,46.9 227.5,46.7 228.1,46.3 228.7,46.1 229.3,45.9 229.9,45.7 230.6,45.0 231.2,44.8 231.8,44.7 232.4,44.5 233.0,43.3 233.7,43.1 234.3,42.9 234.9,42.8 235.5,42.6 236.1,42.4 236.8,42.3 237.4,42.1 238.0,42.7 238.6,42.5 239.2,42.4 239.9,42.3 240.5,43.0 241.1,42.9 241.7,42.8 242.3,42.7 243.0,42.3 243.6,42.2 244.2,42.1 244.8,42.0 245.4,42.8 246.1,42.7 246.7,42.7 247.3,42.6 247.9,42.6 248.5,42.6 249.2,42.5 249.8,42.5 250.4,43.7 251.0,43.7 251.6,43.7 252.3,43.7 252.9,44.3 253.5,44.3 254.1,44.3 254.7,44.3 255.4,44.3 256.0,44.4 256.6,44.4 257.2,44.4 257.8,44.5 258.5,44.5 259.1,44.6 259.7,44.6 260.3,44.1 260.9,44.2 261.6,44.2 262.2,44.3 262.8,44.7 263.4,44.7 264.0,44.8 264.7,44.9 265.3,46.4 265.9,46.6 266.5,46.7 267.1,46.8 267.8,46.1 268.4,46.2 269.0,46.3 269.6,46.4 270.2,45.8 270.9,45.9 271.5,46.0 272.1,46.1 272.7,46.6 273.3,46.8 274.0,46.9 274.6,47.0 275.2,46.8 275.8,46.9 276.4,47.1 277.1,47.2 277.7,46.9 278.3,47.1 278.9,47.2 279.5,47.3 280.2,48.7 280.8,48.8 281.4,49.0 282.0,49.2 282.6,49.6 283.3,49.8 283.9,50.0 284.5,50.2 285.1,50.2 285.7,50.4 286.4,50.6 287.0,50.8 287.6,51.9 288.2,52.1 288.8,52.4 289.5,52.6 290.1,52.6 290.7,52.9 291.3,53.1 291.9,53.3 292.6,52.8 293.2,53.0 293.8,53.2 294.4,53.4 295.0,53.6 295.7,53.8 296.3,54.0 296.9,54.3 297.5,54.8 298.1,55.0 298.8,55.3 299.4,55.5 300.0,55.8 300.6,56.0 301.2,56.3 301.9,56.5 302.5,56.2 303.1,56.4 303.7,56.7 304.3,56.9 305.0,57.6 305.6,57.9 306.2,58.1 306.8,58.3 307.4,58.5 308.1,58.7 308.7,59.0 309.3,59.2 309.9,58.2 310.5,58.5 311.2,58.7 311.8,58.9 312.4,58.2 313.0,58.4 313.6,58.6 314.3,58.8 314.9,58.9 315.5,59.1 316.1,59.3 316.7,59.5 317.4,60.1 318.0,60.3 318.6,60.5 319.2,60.7 319.8,60.4 320.5,60.6 321.1,60.8 321.7,61.0 322.3,61.5 322.9,61.7 323.6,61.9 324.2,62.1 324.8,61.2 325.4,61.4 326.0,61.5 326.7,61.7 327.3,62.0 327.9,62.1 328.5,62.3 329.1,62.5 329.8,62.9 330.4,63.0 331.0,63.2 331.6,63.4 332.2,63.9 332.9,64.1 333.5,64.3 334.1,64.4 334.7,64.4 335.3,64.6 336.0,64.7 336.6,64.9 337.2,64.4 337.8,64.5 338.4,64.7 339.1,64.8 339.7,64.8 340.3,64.9 340.9,65.0 341.5,65.1 342.2,65.9 342.8,66.1 343.4,66.2 344.0,66.3 344.6,66.4 345.3,66.5 345.9,66.6 346.5,66.7 347.1,67.4 347.7,67.5 348.4,67.7 349.0,67.8 349.6,68.2 350.2,68.3 350.8,68.4 351.5,68.5 352.1,69.1 352.7,69.2 353.3,69.3 353.9,69.4 354.6,68.7 355.2,68.8 355.8,68.9 356.4,69.0 357.0,69.5 357.7,69.5 358.3,69.6 358.9,69.7 359.5,69.7 360.1,69.8 360.8,69.9 361.4,69.9 362.0,70.5 362.6,70.6 363.2,70.6 363.9,70.7 364.5,70.6 365.1,70.6 365.7,70.7 366.3,70.7 367.0,71.5 367.6,71.6 368.2,71.6 368.8,71.7 369.4,72.0 370.1,72.0 370.7,72.1 371.3,72.1 371.9,72.8 372.5,72.8 373.2,72.8 373.8,72.9 374.4,72.8 375.0,72.8 375.6,72.8 376.3,72.8 376.9,72.8 377.5,72.8 378.1,72.8 378.7,72.8 379.4,73.4 380.0,73.4 380.6,73.4 381.2,73.4 381.8,74.2 382.5,74.2 383.1,74.3 383.7,74.3 384.3,73.2 384.9,73.2 385.6,73.2 386.2,73.2 386.8,73.7 387.4,73.7 388.0,73.6 388.7,73.6 389.3,73.3 389.9,73.3 390.5,73.3 391.1,73.2 391.8,73.3 392.4,73.2 393.0,73.2 393.6,73.2 394.2,72.9 394.9,72.8 395.5,72.8 396.1,72.7 396.7,73.0 397.3,72.9 398.0,72.9 398.6,72.8 399.2,73.1 399.8,73.0 400.4,72.9 401.1,72.9 401.7,72.3 402.3,72.2 402.9,72.2 403.5,72.1 404.2,72.0 404.8,71.9 405.4,71.8 406.0,71.7 406.6,71.3 407.3,71.2 407.9,71.2 408.5,71.1 409.1,71.0 409.7,70.9 410.4,70.8 411.0,70.7 411.6,70.6 412.2,70.5 412.8,70.4 413.5,70.3 414.1,71.0 414.7,70.9 415.3,70.8 415.9,70.7 416.6,70.6 417.2,70.5 417.8,70.4 418.4,70.3 419.0,70.7 419.7,70.6 420.3,70.5 420.9,70.5 421.5,71.0 422.1,70.9 422.8,70.9 423.4,70.8 424.0,70.6 424.6,70.6 425.2,70.5 425.9,70.4 426.5,70.8 427.1,70.7 427.7,70.7 428.3,70.6 429.0,70.7 429.6,70.7 430.2,70.6 430.8,70.5 431.4,70.3 432.1,70.2 432.7,70.2 433.3,70.1 433.9,70.0 434.5,70.0 435.2,69.9 435.8,69.9 436.4,69.9 437.0,69.8 437.6,69.8 438.3,69.7 438.9,69.6 439.5,69.6 440.1,69.5 440.7,69.5 441.4,69.4 442.0,69.3 442.6,69.3 443.2,69.3 443.8,69.6 444.5,69.6 445.1,69.6 445.7,69.6 446.3,68.8 446.9,68.8 447.6,68.8 448.2,68.8 448.8,68.5 449.4,68.5 450.0,68.5 450.7,68.5 451.3,68.5 451.9,68.5 452.5,68.5 453.1,68.5 453.8,69.4 454.4,69.5 455.0,69.5 455.6,69.5 456.2,69.1 456.9,69.1 457.5,69.1 458.1,69.2 458.7,68.9 459.3,68.9 460.0,69.0 460.6,69.0 461.2,68.1 461.8,68.1 462.4,68.1 463.1,68.2 463.7,68.3 464.3,68.4 464.9,68.4 465.5,68.5 466.2,68.3 466.8,68.4 467.4,68.4 468.0,68.5 468.6,69.0 469.3,69.1 469.9,69.2 470.5,69.3 471.1,68.5 471.7,68.6 472.4,68.7 473.0,68.8 473.6,68.8 474.2,68.9 474.8,69.0 475.5,69.1 476.1,68.7 476.7,68.8 477.3,68.9 477.9,69.0 478.6,68.7 479.2,68.8 479.8,69.0 480.4,69.1 481.0,68.8 481.7,69.0 482.3,69.1 482.9,69.3 483.5,68.9 484.1,69.1 484.8,69.2 485.4,69.4 486.0,69.3 486.6,69.5 487.2,69.6 487.9,69.8 488.5,70.1 489.1,70.3 489.7,70.5 490.3,70.6 491.0,70.5 491.6,70.7 492.2,70.9 492.8,71.1 493.4,71.4 494.1,71.6 494.7,71.8 495.3,72.0 495.9,71.5 496.5,71.7 497.2,71.9 497.8,72.1 498.4,71.8 499.0,72.1 499.6,72.3 500.3,72.6 500.9,72.2 501.5,72.5 502.1,72.7 502.7,73.0 503.4,73.4 504.0,73.7 504.6,73.9 505.2,74.2 505.8,75.2 506.5,75.5 507.1,75.8 507.7,76.1 508.3,76.0 508.9,76.3 509.6,76.6 510.2,76.9 510.8,78.2 511.4,78.5 512.0,78.8 512.7,79.2 513.3,79.5 513.9,79.9 514.5,80.2 515.1,80.6 515.8,81.4 516.4,81.8 517.0,82.1 517.6,82.5 518.2,83.3 518.9,83.7 519.5,84.1 520.1,84.5 520.7,85.8 521.3,86.2 522.0,86.6 522.6,87.0 523.2,87.3 523.8,87.7 524.4,88.1 525.1,88.5 525.7,88.4 526.3,88.8 526.9,89.2 527.5,89.7 528.2,90.4 528.8,90.9 529.4,91.3 530.0,91.7 530.6,92.2 531.3,92.6 531.9,93.1 532.5,93.5 533.1,94.2 533.7,94.6 534.4,95.1 535.0,95.6 535.6,96.4 536.2,96.8 536.8,97.3 537.5,97.8 538.1,98.8 538.7,99.3 539.3,99.8 539.9,100.3 540.6,101.3 541.2,101.9 541.8,102.4 542.4,102.9 543.0,103.0 543.7,103.5 544.3,104.0 544.9,104.5 545.5,105.4 546.1,105.9 546.8,106.4 547.4,106.9 548.0,107.7 548.6,108.3 549.2,108.8 549.9,109.3 550.5,110.4 551.1,110.9 551.7,111.5 552.3,112.0 553.0,112.7 553.6,113.3 554.2,113.8 554.8,114.4 555.4,113.8 556.1,114.4 556.7,114.9 557.3,115.5 557.9,115.7 558.5,116.3 559.2,116.8 559.8,117.4 560.4,118.1 561.0,118.6 561.6,119.2 562.3,119.7 562.9,120.5 563.5,121.0 564.1,121.6 564.7,122.1 565.4,122.3 566.0,122.8 566.6,123.4 567.2,123.9 567.8,124.4 568.5,124.9 569.1,125.5 569.7,126.0 570.3,126.4 570.9,126.9 571.6,127.5 572.2,128.0 572.8,127.4 573.4,127.9 574.0,128.5 574.7,129.0 575.3,128.8 575.9,129.3 576.5,129.8 577.1,130.3 577.8,130.9 578.4,131.4 579.0,131.9 579.6,132.4 580.2,132.1 580.9,132.6 581.5,133.1 582.1,133.6 582.7,134.4 583.3,134.8 584.0,135.3 584.6,135.8 585.2,135.9 585.8,136.4 586.4,136.8 587.1,137.3 587.7,138.1 588.3,138.5 588.9,139.0 589.5,139.4 590.2,139.2 590.8,139.7 591.4,140.1 592.0,140.6 592.6,141.1 593.3,141.5 593.9,142.0 594.5,142.4 595.1,142.0 595.7,142.4 596.4,142.9 597.0,143.3 597.6,142.8 598.2,143.2 598.8,143.6 599.5,144.0 600.1,144.9 600.7,145.3 601.3,145.7 601.9,146.1 602.6,147.0 603.2,147.4 603.8,147.7 604.4,148.1 605.0,148.9 605.7,149.3 606.3,149.7 606.9,150.0 607.5,150.1 608.1,150.5 608.8,150.8 609.4,151.2 610.0,151.8 610.6,152.2 611.2,152.6 611.9,152.9 612.5,153.5 613.1,153.8 613.7,154.2 614.3,154.5 615.0,154.7 615.6,155.0 616.2,155.4 616.8,155.7 617.4,155.8 618.1,156.1 618.7,156.4 619.3,156.8 619.9,156.9 620.5,157.2 621.2,157.5 621.8,157.8 622.4,158.2 623.0,158.5 623.6,158.8 624.3,159.1 624.9,160.1 625.5,160.4 626.1,160.7 626.7,161.0 627.4,161.3 628.0,161.6 628.6,161.9 629.2,162.2 629.8,162.8 630.5,163.1 631.1,163.4 631.7,163.6 632.3,164.4 632.9,164.7 633.6,165.0 634.2,165.2 634.8,165.4 635.4,165.6 636.0,165.9 636.7,166.2 637.3,167.3 637.9,167.6 638.5,167.9 639.1,168.1 639.8,169.2 640.4,169.5 641.0,169.8 641.6,170.0 642.2,171.1 642.9,171.4 643.5,171.7 644.1,171.9 644.7,171.4 645.3,171.6 646.0,171.9 646.6,172.1 647.2,172.3 647.8,172.6 648.4,172.8 649.1,173.0 649.7,173.5 650.3,173.7 650.9,174.0 651.5,174.2 652.2,174.8 652.8,175.0 653.4,175.2 654.0,175.5 654.6,175.9 655.3,176.1 655.9,176.3 656.5,176.6 657.1,176.7 657.7,176.9 658.4,177.1 659.0,177.3 659.6,177.7 660.2,177.9 660.8,178.2 661.5,178.4 662.1,178.8 662.7,179.0 663.3,179.2 663.9,179.4 664.6,178.6 665.2,178.8 665.8,179.0 666.4,179.2 667.0,179.1 667.7,179.3 668.3,179.5 668.9,179.7 669.5,180.4 670.1,180.7 670.8,180.9 671.4,181.1 672.0,180.7 672.6,180.9 673.2,181.1 673.9,181.3 674.5,181.4 675.1,181.6 675.7,181.8 676.3,182.0 677.0,181.9 677.6,182.1 678.2,182.3 678.8,182.5 679.4,182.8 680.1,183.0 680.7,183.2 681.3,183.4 681.9,183.4 682.5,183.6 683.2,183.9 683.8,184.1 684.4,183.9 685.0,184.1 685.6,184.3 686.3,184.5 686.9,184.9 687.5,185.1 688.1,185.3 688.7,185.5 689.4,185.6 690.0,185.9 690.6,186.1 691.2,186.3 691.8,186.3 692.5,186.6 693.1,186.8 693.7,187.0 694.3,188.0 694.9,188.2 695.6,188.5 696.2,188.7 696.8,189.1 697.4,189.3 698.0,189.6 698.7,189.9 699.3,191.0 699.9,191.3 700.5,191.6 701.1,191.8 701.8,192.7 702.4,193.0 703.0,193.3 703.6,193.6 704.2,192.8 704.9,193.1 705.5,193.4 706.1,193.7 706.7,193.6 707.3,193.9 708.0,194.2 708.6,194.5 709.2,194.9 709.8,195.2 710.4,195.6 711.1,195.9 711.7,195.9 712.3,196.2 712.9,196.5 713.5,196.8 714.2,196.8 714.8,197.1 715.4,197.4 716.0,197.8 716.6,198.4 717.3,198.7 717.9,199.1 718.5,199.4 719.1,199.5 719.7,199.9 720.4,200.2 721.0,200.6 721.6,200.7 722.2,201.1 722.8,201.5 723.5,201.9 724.1,202.0 724.7,202.4 725.3,202.7 725.9,203.1 726.6,203.9 727.2,204.3 727.8,204.8 728.4,205.2 729.0,204.9 729.7,205.4 730.3,205.8 730.9,206.2 731.5,206.6 732.1,207.1 732.8,207.5 733.4,207.9 734.0,208.4 734.6,208.8 735.2,209.3 735.9,209.8 736.5,210.0 737.1,210.5 737.7,211.0 738.3,211.4 739.0,211.8 739.6,212.3 740.2,212.8 740.8,213.3 741.4,213.5 742.1,214.0 742.7,214.5 743.3,215.0 743.9,215.6 744.5,216.1 745.2,216.6 745.8,217.1 746.4,217.5 747.0,218.0 747.6,218.5 748.3,219.1 748.9,219.4 749.5,219.9 750.1,220.5 750.7,221.0 751.4,221.9 752.0,222.5 752.6,223.1 753.2,223.7 753.8,224.6 754.5,225.2 755.1,225.8 755.7,226.4 756.3,227.5 756.9,228.2 757.6,228.8 758.2,229.4 758.8,229.3 759.4,229.9 760.0,230.5 760.7,231.2 761.3,231.5 761.9,232.1 762.5,232.8 763.1,233.4 763.8,234.3 764.4,234.9 765.0,235.6 765.6,236.3 766.2,236.9 766.9,237.6 767.5,238.3 768.1,238.9 768.7,239.9 769.3,240.6 770.0,241.3 770.6,242.0 771.2,242.5 771.8,243.2 772.4,243.9 773.1,244.6 773.7,245.4 774.3,246.2 774.9,246.9 775.5,247.6 776.2,247.7 776.8,248.4 777.4,249.2 778.0,249.9 778.6,251.8 779.3,252.6 779.9,253.3 780.5,254.1 781.1,255.0 781.7,255.7 782.4,256.5 783.0,257.2 783.6,258.2 784.2,258.9 784.8,259.7 785.5,260.5 786.1,260.8 786.7,261.6 787.3,262.4 787.9,263.1 788.6,264.1 789.2,264.9 789.8,265.7 790.4,266.5 791.0,268.0 791.7,268.8 792.3,269.6 792.9,270.4 793.5,270.6 794.1,271.4 794.8,272.2 795.4,273.0 796.0,274.0"/>
<text x="640" y="72" font-family="Arial" font-size="12" fill="#2563eb">estimate</text>
</svg>