<svg xmlns="http://www.w3.org/2000/svg" width="820" height="320" viewBox="0 0 820 320">
<rect width="100%" height="100%" fill="white"/>
<text x="52" y="30" font-family="Arial" font-size="18" font-weight="700">ekf_conservative altitude</text>
<line x1="52" y1="274" x2="796" y2="274" stroke="#263238"/>
<line x1="52" y1="42" x2="52" y2="274" stroke="#263238"/>
<text x="52" y="306" font-family="Arial" font-size="12">time (s)</text>
<text x="630" y="306" font-family="Arial" font-size="12">m</text>

<rect x="399.2" y="42" width="99.2" height="232" fill="#fef3c7" opacity="0.72"/>
<polyline fill="none" stroke="#0f766e" stroke-width="2.3" points="52.0,120.6 52.6,120.5 53.2,120.5 53.9,120.4 54.5,120.3 55.1,120.3 55.7,120.2 56.3,120.1 57.0,120.1 57.6,120.0 58.2,119.9 58.8,119.9 59.4,119.8 60.1,119.7 60.7,119.7 61.3,119.6 61.9,119.5 62.5,119.5 63.2,119.4 63.8,119.3 64.4,119.3 65.0,119.2 65.6,119.1 66.3,119.0 66.9,119.0 67.5,118.9 68.1,118.8 68.7,118.8 69.4,118.7 70.0,118.6 70.6,118.5 71.2,118.5 71.8,118.4 72.5,118.3 73.1,118.2 73.7,118.2 74.3,118.1 74.9,118.0 75.6,117.9 76.2,117.8 76.8,117.7 77.4,117.7 78.0,117.6 78.7,117.5 79.3,117.4 79.9,117.3 80.5,117.2 81.1,117.1 81.8,117.0 82.4,116.9 83.0,116.8 83.6,116.7 84.2,116.6 84.9,116.5 85.5,116.4 86.1,116.3 86.7,116.2 87.3,116.1 88.0,115.9 88.6,115.8 89.2,115.7 89.8,115.6 90.4,115.5 91.1,115.3 91.7,115.2 92.3,115.1 92.9,114.9 93.5,114.8 94.2,114.7 94.8,114.5 95.4,114.4 96.0,114.2 96.6,114.1 97.3,113.9 97.9,113.8 98.5,113.6 99.1,113.5 99.7,113.3 100.4,113.1 101.0,113.0 101.6,112.8 102.2,112.6 102.8,112.5 103.5,112.3 104.1,112.1 104.7,111.9 105.3,111.7 105.9,111.5 106.6,111.4 107.2,111.2 107.8,111.0 108.4,110.8 109.0,110.6 109.7,110.4 110.3,110.2 110.9,109.9 111.5,109.7 112.1,109.5 112.8,109.3 113.4,109.1 114.0,108.8 114.6,108.6 115.2,108.4 115.9,108.2 116.5,107.9 117.1,107.7 117.7,107.4 118.3,107.2 119.0,106.9 119.6,106.7 120.2,106.4 120.8,106.2 121.4,105.9 122.1,105.7 122.7,105.4 123.3,105.1 123.9,104.9 124.5,104.6 125.2,104.3 125.8,104.0 126.4,103.7 127.0,103.5 127.6,103.2 128.3,102.9 128.9,102.6 129.5,102.3 130.1,102.0 130.7,101.7 131.4,101.4 132.0,101.1 132.6,100.8 133.2,100.5 133.8,100.1 134.5,99.8 135.1,99.5 135.7,99.2 136.3,98.9 136.9,98.5 137.6,98.2 138.2,97.9 138.8,97.5 139.4,97.2 140.0,96.9 140.7,96.5 141.3,96.2 141.9,95.8 142.5,95.5 143.1,95.2 143.8,94.8 144.4,94.5 145.0,94.1 145.6,93.7 146.2,93.4 146.9,93.0 147.5,92.7 148.1,92.3 148.7,91.9 149.3,91.6 150.0,91.2 150.6,90.8 151.2,90.5 151.8,90.1 152.4,89.7 153.1,89.3 153.7,89.0 154.3,88.6 154.9,88.2 155.5,87.8 156.2,87.4 156.8,87.0 157.4,86.7 158.0,86.3 158.6,85.9 159.3,85.5 159.9,85.1 160.5,84.7 161.1,84.3 161.7,83.9 162.4,83.5 163.0,83.2 163.6,82.8 164.2,82.4 164.8,82.0 165.5,81.6 166.1,81.2 166.7,80.8 167.3,80.4 167.9,80.0 168.6,79.6 169.2,79.2 169.8,78.8 170.4,78.4 171.0,78.0 171.7,77.6 172.3,77.2 172.9,76.8 173.5,76.4 174.1,76.0 174.8,75.6 175.4,75.2 176.0,74.8 176.6,74.5 177.2,74.1 177.9,73.7 178.5,73.3 179.1,72.9 179.7,72.5 180.3,72.1 181.0,71.7 181.6,71.3 182.2,70.9 182.8,70.6 183.4,70.2 184.1,69.8 184.7,69.4 185.3,69.0 185.9,68.7 186.5,68.3 187.2,67.9 187.8,67.5 188.4,67.2 189.0,66.8 189.6,66.4 190.3,66.1 190.9,65.7 191.5,65.3 192.1,65.0 192.7,64.6 193.4,64.2 194.0,63.9 194.6,63.5 195.2,63.2 195.8,62.8 196.5,62.5 197.1,62.1 197.7,61.8 198.3,61.5 198.9,61.1 199.6,60.8 200.2,60.5 200.8,60.1 201.4,59.8 202.0,59.5 202.7,59.2 203.3,58.8 203.9,58.5 204.5,58.2 205.1,57.9 205.8,57.6 206.4,57.3 207.0,57.0 207.6,56.7 208.2,56.4 208.9,56.1 209.5,55.8 210.1,55.5 210.7,55.2 211.3,55.0 212.0,54.7 212.6,54.4 213.2,54.2 213.8,53.9 214.4,53.6 215.1,53.4 215.7,53.1 216.3,52.9 216.9,52.6 217.5,52.4 218.2,52.1 218.8,51.9 219.4,51.7 220.0,51.5 220.6,51.2 221.3,51.0 221.9,50.8 222.5,50.6 223.1,50.4 223.7,50.2 224.4,50.0 225.0,49.8 225.6,49.6 226.2,49.4 226.8,49.2 227.5,49.0 228.1,48.9 228.7,48.7 229.3,48.5 229.9,48.4 230.6,48.2 231.2,48.0 231.8,47.9 232.4,47.7 233.0,47.6 233.7,47.5 234.3,47.3 234.9,47.2 235.5,47.1 236.1,47.0 236.8,46.8 237.4,46.7 238.0,46.6 238.6,46.5 239.2,46.4 239.9,46.3 240.5,46.2 241.1,46.2 241.7,46.1 242.3,46.0 243.0,45.9 243.6,45.9 244.2,45.8 244.8,45.7 245.4,45.7 246.1,45.6 246.7,45.6 247.3,45.5 247.9,45.5 248.5,45.5 249.2,45.4 249.8,45.4 250.4,45.4 251.0,45.4 251.6,45.4 252.3,45.4 252.9,45.4 253.5,45.4 254.1,45.4 254.7,45.4 255.4,45.4 256.0,45.4 256.6,45.4 257.2,45.4 257.8,45.5 258.5,45.5 259.1,45.5 259.7,45.6 260.3,45.6 260.9,45.7 261.6,45.7 262.2,45.8 262.8,45.8 263.4,45.9 264.0,46.0 264.7,46.0 265.3,46.1 265.9,46.2 266.5,46.3 267.1,46.4 267.8,46.5 268.4,46.6 269.0,46.7 269.6,46.8 270.2,46.9 270.9,47.0 271.5,47.1 272.1,47.2 272.7,47.3 273.3,47.4 274.0,47.5 274.6,47.7 275.2,47.8 275.8,47.9 276.4,48.1 277.1,48.2 277.7,48.4 278.3,48.5 278.9,48.6 279.5,48.8 280.2,49.0 280.8,49.1 281.4,49.3 282.0,49.4 282.6,49.6 283.3,49.8 283.9,49.9 284.5,50.1 285.1,50.3 285.7,50.4 286.4,50.6 287.0,50.8 287.6,51.0 288.2,51.2 288.8,51.4 289.5,51.5 290.1,51.7 290.7,51.9 291.3,52.1 291.9,52.3 292.6,52.5 293.2,52.7 293.8,52.9 294.4,53.1 295.0,53.3 295.7,53.5 296.3,53.7 296.9,54.0 297.5,54.2 298.1,54.4 298.8,54.6 299.4,54.8 300.0,55.0 300.6,55.2 301.2,55.5 301.9,55.7 302.5,55.9 303.1,56.1 303.7,56.3 304.3,56.6 305.0,56.8 305.6,57.0 306.2,57.2 306.8,57.4 307.4,57.7 308.1,57.9 308.7,58.1 309.3,58.3 309.9,58.6 310.5,58.8 311.2,59.0 311.8,59.2 312.4,59.5 313.0,59.7 313.6,59.9 314.3,60.2 314.9,60.4 315.5,60.6 316.1,60.8 316.7,61.1 317.4,61.3 318.0,61.5 318.6,61.7 319.2,61.9 319.8,62.2 320.5,62.4 321.1,62.6 321.7,62.8 322.3,63.0 322.9,63.3 323.6,63.5 324.2,63.7 324.8,63.9 325.4,64.1 326.0,64.3 326.7,64.5 327.3,64.8 327.9,65.0 328.5,65.2 329.1,65.4 329.8,65.6 330.4,65.8 331.0,66.0 331.6,66.2 332.2,66.4 332.9,66.6 333.5,66.8 334.1,67.0 334.7,67.2 335.3,67.3 336.0,67.5 336.6,67.7 337.2,67.9 337.8,68.1 338.4,68.3 339.1,68.4 339.7,68.6 340.3,68.8 340.9,69.0 341.5,69.1 342.2,69.3 342.8,69.5 343.4,69.6 344.0,69.8 344.6,69.9 345.3,70.1 345.9,70.3 346.5,70.4 347.1,70.6 347.7,70.7 348.4,70.8 349.0,71.0 349.6,71.1 350.2,71.3 350.8,71.4 351.5,71.5 352.1,71.6 352.7,71.8 353.3,71.9 353.9,72.0 354.6,72.1 355.2,72.2 355.8,72.4 356.4,72.5 357.0,72.6 357.7,72.7 358.3,72.8 358.9,72.9 359.5,73.0 360.1,73.1 360.8,73.1 361.4,73.2 362.0,73.3 362.6,73.4 363.2,73.5 363.9,73.6 364.5,73.6 365.1,73.7 365.7,73.8 366.3,73.8 367.0,73.9 367.6,73.9 368.2,74.0 368.8,74.0 369.4,74.1 370.1,74.1 370.7,74.2 371.3,74.2 371.9,74.3 372.5,74.3 373.2,74.3 373.8,74.4 374.4,74.4 375.0,74.4 375.6,74.4 376.3,74.4 376.9,74.5 377.5,74.5 378.1,74.5 378.7,74.5 379.4,74.5 380.0,74.5 380.6,74.5 381.2,74.5 381.8,74.5 382.5,74.5 383.1,74.5 383.7,74.4 384.3,74.4 384.9,74.4 385.6,74.4 386.2,74.4 386.8,74.3 387.4,74.3 388.0,74.3 388.7,74.2 389.3,74.2 389.9,74.2 390.5,74.1 391.1,74.1 391.8,74.0 392.4,74.0 393.0,73.9 393.6,73.9 394.2,73.8 394.9,73.8 395.5,73.7 396.1,73.6 396.7,73.6 397.3,73.5 398.0,73.4 398.6,73.4 399.2,73.3 399.8,73.2 400.4,73.2 401.1,73.1 401.7,73.0 402.3,72.9 402.9,72.9 403.5,72.8 404.2,72.7 404.8,72.6 405.4,72.5 406.0,72.4 406.6,72.3 407.3,72.3 407.9,72.2 408.5,72.1 409.1,72.0 409.7,71.9 410.4,71.8 411.0,71.7 411.6,71.6 412.2,71.5 412.8,71.4 413.5,71.3 414.1,71.2 414.7,71.1 415.3,71.0 415.9,70.9 416.6,70.8 417.2,70.7 417.8,70.6 418.4,70.5 419.0,70.4 419.7,70.3 420.3,70.2 420.9,70.1 421.5,70.0 422.1,69.9 422.8,69.8 423.4,69.7 424.0,69.6 424.6,69.5 425.2,69.4 425.9,69.3 426.5,69.2 427.1,69.1 427.7,69.0 428.3,68.9 429.0,68.8 429.6,68.7 430.2,68.6 430.8,68.5 431.4,68.4 432.1,68.3 432.7,68.2 433.3,68.1 433.9,68.0 434.5,67.9 435.2,67.8 435.8,67.7 436.4,67.6 437.0,67.5 437.6,67.5 438.3,67.4 438.9,67.3 439.5,67.2 440.1,67.1 440.7,67.1 441.4,67.0 442.0,66.9 442.6,66.8 443.2,66.8 443.8,66.7 444.5,66.6 445.1,66.6 445.7,66.5 446.3,66.5 446.9,66.4 447.6,66.3 448.2,66.3 448.8,66.2 449.4,66.2 450.0,66.2 450.7,66.1 451.3,66.1 451.9,66.0 452.5,66.0 453.1,66.0 453.8,65.9 454.4,65.9 455.0,65.9 455.6,65.9 456.2,65.8 456.9,65.8 457.5,65.8 458.1,65.8 458.7,65.8 459.3,65.8 460.0,65.8 460.6,65.8 461.2,65.8 461.8,65.8 462.4,65.8 463.1,65.9 463.7,65.9 464.3,65.9 464.9,65.9 465.5,66.0 466.2,66.0 466.8,66.0 467.4,66.1 468.0,66.1 468.6,66.2 469.3,66.2 469.9,66.3 470.5,66.3 471.1,66.4 471.7,66.5 472.4,66.5 473.0,66.6 473.6,66.7 474.2,66.8 474.8,66.9 475.5,67.0 476.1,67.1 476.7,67.2 477.3,67.3 477.9,67.4 478.6,67.5 479.2,67.6 479.8,67.7 480.4,67.8 481.0,68.0 481.7,68.1 482.3,68.2 482.9,68.4 483.5,68.5 484.1,68.7 484.8,68.8 485.4,69.0 486.0,69.2 486.6,69.3 487.2,69.5 487.9,69.7 488.5,69.8 489.1,70.0 489.7,70.2 490.3,70.4 491.0,70.6 491.6,70.8 492.2,71.0 492.8,71.2 493.4,71.4 494.1,71.7 494.7,71.9 495.3,72.1 495.9,72.3 496.5,72.6 497.2,72.8 497.8,73.1 498.4,73.3 499.0,73.6 499.6,73.8 500.3,74.1 500.9,74.4 501.5,74.6 502.1,74.9 502.7,75.2 503.4,75.5 504.0,75.8 504.6,76.0 505.2,76.3 505.8,76.6 506.5,76.9 507.1,77.2 507.7,77.6 508.3,77.9 508.9,78.2 509.6,78.5 510.2,78.9 510.8,79.2 511.4,79.5 512.0,79.9 512.7,80.2 513.3,80.6 513.9,80.9 514.5,81.3 515.1,81.6 515.8,82.0 516.4,82.3 517.0,82.7 517.6,83.1 518.2,83.5 518.9,83.9 519.5,84.2 520.1,84.6 520.7,85.0 521.3,85.4 522.0,85.8 522.6,86.2 523.2,86.6 523.8,87.0 524.4,87.4 525.1,87.9 525.7,88.3 526.3,88.7 526.9,89.1 527.5,89.6 528.2,90.0 528.8,90.4 529.4,90.9 530.0,91.3 530.6,91.7 531.3,92.2 531.9,92.6 532.5,93.1 533.1,93.5 533.7,94.0 534.4,94.4 535.0,94.9 535.6,95.4 536.2,95.8 536.8,96.3 537.5,96.8 538.1,97.2 538.7,97.7 539.3,98.2 539.9,98.7 540.6,99.2 541.2,99.6 541.8,100.1 542.4,100.6 543.0,101.1 543.7,101.6 544.3,102.1 544.9,102.6 545.5,103.1 546.1,103.6 546.8,104.1 547.4,104.6 548.0,105.1 548.6,105.6 549.2,106.1 549.9,106.6 550.5,107.1 551.1,107.6 551.7,108.1 552.3,108.6 553.0,109.1 553.6,109.6 554.2,110.2 554.8,110.7 555.4,111.2 556.1,111.7 556.7,112.2 557.3,112.7 557.9,113.3 558.5,113.8 559.2,114.3 559.8,114.8 560.4,115.3 561.0,115.8 561.6,116.4 562.3,116.9 562.9,117.4 563.5,117.9 564.1,118.4 564.7,119.0 565.4,119.5 566.0,120.0 566.6,120.5 567.2,121.0 567.8,121.5 568.5,122.1 569.1,122.6 569.7,123.1 570.3,123.6 570.9,124.1 571.6,124.6 572.2,125.1 572.8,125.7 573.4,126.2 574.0,126.7 574.7,127.2 575.3,127.7 575.9,128.2 576.5,128.7 577.1,129.2 577.8,129.7 578.4,130.2 579.0,130.7 579.6,131.2 580.2,131.7 580.9,132.2 581.5,132.7 582.1,133.2 582.7,133.7 583.3,134.2 584.0,134.7 584.6,135.2 585.2,135.7 585.8,136.2 586.4,136.6 587.1,137.1 587.7,137.6 588.3,138.1 588.9,138.6 589.5,139.0 590.2,139.5 590.8,140.0 591.4,140.4 592.0,140.9 592.6,141.4 593.3,141.8 593.9,142.3 594.5,142.7 595.1,143.2 595.7,143.6 596.4,144.1 597.0,144.5 597.6,145.0 598.2,145.4 598.8,145.9 599.5,146.3 600.1,146.7 600.7,147.2 601.3,147.6 601.9,148.0 602.6,148.5 603.2,148.9 603.8,149.3 604.4,149.7 605.0,150.1 605.7,150.5 606.3,150.9 606.9,151.3 607.5,151.8 608.1,152.2 608.8,152.5 609.4,152.9 610.0,153.3 610.6,153.7 611.2,154.1 611.9,154.5 612.5,154.9 613.1,155.2 613.7,155.6 614.3,156.0 615.0,156.4 615.6,156.7 616.2,157.1 616.8,157.5 617.4,157.8 618.1,158.2 618.7,158.5 619.3,158.9 619.9,159.2 620.5,159.6 621.2,159.9 621.8,160.2 622.4,160.6 623.0,160.9 623.6,161.2 624.3,161.6 624.9,161.9 625.5,162.2 626.1,162.5 626.7,162.8 627.4,163.1 628.0,163.4 628.6,163.8 629.2,164.1 629.8,164.4 630.5,164.7 631.1,164.9 631.7,165.2 632.3,165.5 632.9,165.8 633.6,166.1 634.2,166.4 634.8,166.7 635.4,166.9 636.0,167.2 636.7,167.5 637.3,167.8 637.9,168.0 638.5,168.3 639.1,168.5 639.8,168.8 640.4,169.1 641.0,169.3 641.6,169.6 642.2,169.8 642.9,170.1 643.5,170.3 644.1,170.6 644.7,170.8 645.3,171.0 646.0,171.3 646.6,171.5 647.2,171.7 647.8,172.0 648.4,172.2 649.1,172.4 649.7,172.7 650.3,172.9 650.9,173.1 651.5,173.3 652.2,173.5 652.8,173.8 653.4,174.0 654.0,174.2 654.6,174.4 655.3,174.6 655.9,174.8 656.5,175.0 657.1,175.2 657.7,175.4 658.4,175.6 659.0,175.8 659.6,176.0 660.2,176.2 660.8,176.4 661.5,176.6 662.1,176.8 662.7,177.0 663.3,177.2 663.9,177.4 664.6,177.6 665.2,177.8 665.8,178.0 666.4,178.2 667.0,178.4 667.7,178.6 668.3,178.8 668.9,179.0 669.5,179.2 670.1,179.3 670.8,179.5 671.4,179.7 672.0,179.9 672.6,180.1 673.2,180.3 673.9,180.5 674.5,180.7 675.1,180.9 675.7,181.1 676.3,181.2 677.0,181.4 677.6,181.6 678.2,181.8 678.8,182.0 679.4,182.2 680.1,182.4 680.7,182.6 681.3,182.8 681.9,183.0 682.5,183.2 683.2,183.4 683.8,183.6 684.4,183.8 685.0,184.0 685.6,184.2 686.3,184.4 686.9,184.6 687.5,184.8 688.1,185.0 688.7,185.2 689.4,185.4 690.0,185.6 690.6,185.8 691.2,186.0 691.8,186.3 692.5,186.5 693.1,186.7 693.7,186.9 694.3,187.1 694.9,187.4 695.6,187.6 696.2,187.8 696.8,188.1 697.4,188.3 698.0,188.5 698.7,188.8 699.3,189.0 699.9,189.2 700.5,189.5 701.1,189.7 701.8,190.0 702.4,190.2 703.0,190.5 703.6,190.7 704.2,191.0 704.9,191.3 705.5,191.5 706.1,191.8 706.7,192.1 707.3,192.3 708.0,192.6 708.6,192.9 709.2,193.2 709.8,193.5 710.4,193.8 711.1,194.1 711.7,194.3 712.3,194.6 712.9,195.0 713.5,195.3 714.2,195.6 714.8,195.9 715.4,196.2 716.0,196.5 716.6,196.8 717.3,197.2 717.9,197.5 718.5,197.8 719.1,198.2 719.7,198.5 720.4,198.8 721.0,199.2 721.6,199.5 722.2,199.9 722.8,200.3 723.5,200.6 724.1,201.0 724.7,201.4 725.3,201.7 725.9,202.1 726.6,202.5 727.2,202.9 727.8,203.3 728.4,203.7 729.0,204.1 729.7,204.5 730.3,204.9 730.9,205.3 731.5,205.7 732.1,206.1 732.8,206.6 733.4,207.0 734.0,207.4 734.6,207.9 735.2,208.3 735.9,208.7 736.5,209.2 737.1,209.7 737.7,210.1 738.3,210.6 739.0,211.0 739.6,211.5 740.2,212.0 740.8,212.5 741.4,213.0 742.1,213.4 742.7,213.9 743.3,214.4 743.9,214.9 744.5,215.4 745.2,215.9 745.8,216.5 746.4,217.0 747.0,217.5 747.6,218.0 748.3,218.6 748.9,219.1 749.5,219.6 750.1,220.2 750.7,220.7 751.4,221.3 752.0,221.8 752.6,222.4 753.2,223.0 753.8,223.5 754.5,224.1 755.1,224.7 755.7,225.3 756.3,225.9 756.9,226.5 757.6,227.1 758.2,227.7 758.8,228.3 759.4,228.9 760.0,229.5 760.7,230.1 761.3,230.7 761.9,231.3 762.5,232.0 763.1,232.6 763.8,233.2 764.4,233.9 765.0,234.5 765.6,235.2 766.2,235.8 766.9,236.5 767.5,237.1 768.1,237.8 768.7,238.5 769.3,239.1 770.0,239.8 770.6,240.5 771.2,241.2 771.8,241.8 772.4,242.5 773.1,243.2 773.7,243.9 774.3,244.6 774.9,245.3 775.5,246.0 776.2,246.7 776.8,247.4 777.4,248.1 778.0,248.9 778.6,249.6 779.3,250.3 779.9,251.0 780.5,251.8 781.1,252.5 781.7,253.2 782.4,254.0 783.0,254.7 783.6,255.4 784.2,256.2 784.8,256.9 785.5,257.7 786.1,258.4 786.7,259.2 787.3,260.0 787.9,260.7 788.6,261.5 789.2,262.2 789.8,263.0 790.4,263.8 791.0,264.6 791.7,265.3 792.3,266.1 792.9,266.9 793.5,267.7 794.1,268.4 794.8,269.2 795.4,270.0 796.0,270.8"/>
<text x="640" y="56" font-family="Arial" font-size="12" fill="#0f766e">truth</text>
<polyline fill="none" stroke="#2563eb" stroke-width="2.3" points="52.0,118.2 52.6,118.0 53.2,117.7 53.9,117.5 54.5,121.5 55.1,121.3 55.7,121.1 56.3,120.8 57.0,117.4 57.6,117.1 58.2,116.9 58.8,116.7 59.4,117.8 60.1,117.6 60.7,117.4 61.3,117.1 61.9,117.9 62.5,117.7 63.2,117.5 63.8,117.3 64.4,117.9 65.0,117.8 65.6,117.6 66.3,117.5 66.9,118.1 67.5,118.0 68.1,117.9 68.7,117.7 69.4,118.1 70.0,118.0 70.6,117.9 71.2,117.8 71.8,117.8 72.5,117.7 73.1,117.6 73.7,117.6 74.3,116.4 74.9,116.2 75.6,116.1 76.2,116.0 76.8,115.3 77.4,115.1 78.0,114.9 78.7,114.7 79.3,115.1 79.9,114.9 80.5,114.7 81.1,114.5 81.8,114.7 82.4,114.5 83.0,114.3 83.6,114.1 84.2,114.9 84.9,114.7 85.5,114.5 86.1,114.3 86.7,115.4 87.3,115.2 88.0,115.1 88.6,114.9 89.2,114.9 89.8,114.7 90.4,114.5 91.1,114.3 91.7,114.0 92.3,113.8 92.9,113.6 93.5,113.4 94.2,113.7 94.8,113.6 95.4,113.4 96.0,113.2 96.6,112.9 97.3,112.7 97.9,112.5 98.5,112.3 99.1,111.2 99.7,111.0 100.4,110.8 101.0,110.5 101.6,110.9 102.2,110.7 102.8,110.5 103.5,110.3 104.1,110.4 104.7,110.2 105.3,110.0 105.9,109.8 106.6,109.3 107.2,109.1 107.8,108.8 108.4,108.6 109.0,109.8 109.7,109.6 110.3,109.4 110.9,109.2 111.5,110.0 112.1,109.9 112.8,109.7 113.4,109.5 114.0,109.1 114.6,108.9 115.2,108.7 115.9,108.5 116.5,107.8 117.1,107.6 117.7,107.4 118.3,107.2 119.0,107.0 119.6,106.8 120.2,106.6 120.8,106.4 121.4,106.7 122.1,106.5 122.7,106.2 123.3,106.0 123.9,106.3 124.5,106.1 125.2,105.9 125.8,105.7 126.4,104.2 127.0,103.9 127.6,103.7 128.3,103.4 128.9,102.7 129.5,102.4 130.1,102.1 130.7,101.8 131.4,102.5 132.0,102.3 132.6,102.0 133.2,101.7 133.8,100.2 134.5,99.9 135.1,99.6 135.7,99.3 136.3,99.2 136.9,98.9 137.6,98.6 138.2,98.3 138.8,98.9 139.4,98.6 140.0,98.3 140.7,98.1 141.3,98.2 141.9,97.9 142.5,97.6 143.1,97.4 143.8,97.0 144.4,96.7 145.0,96.4 145.6,96.2 146.2,95.7 146.9,95.4 147.5,95.1 148.1,94.8 148.7,94.0 149.3,93.7 150.0,93.4 150.6,93.1 151.2,91.7 151.8,91.4 152.4,91.1 153.1,90.7 153.7,89.4 154.3,89.0 154.9,88.7 155.5,88.3 156.2,87.0 156.8,86.6 157.4,86.3 158.0,85.9 158.6,85.2 159.3,84.8 159.9,84.4 160.5,84.1 161.1,83.8 161.7,83.4 162.4,83.0 163.0,82.6 163.6,82.9 164.2,82.5 164.8,82.2 165.5,81.8 166.1,82.0 166.7,81.6 167.3,81.2 167.9,80.9 168.6,81.0 169.2,80.6 169.8,80.3 170.4,79.9 171.0,79.4 171.7,79.0 172.3,78.7 172.9,78.3 173.5,77.5 174.1,77.1 174.8,76.8 175.4,76.4 176.0,75.7 176.6,75.3 177.2,75.0 177.9,74.6 178.5,73.6 179.1,73.3 179.7,72.9 180.3,72.5 181.0,71.3 181.6,70.9 182.2,70.6 182.8,70.2 183.4,70.1 184.1,69.7 184.7,69.4 185.3,69.0 185.9,67.8 186.5,67.4 187.2,67.0 187.8,66.7 188.4,65.4 189.0,65.0 189.6,64.7 190.3,64.3 190.9,64.2 191.5,63.9 192.1,63.5 192.7,63.1 193.4,62.9 194.0,62.5 194.6,62.2 195.2,61.8 195.8,60.3 196.5,59.9 197.1,59.6 197.7,59.2 198.3,59.5 198.9,59.2 199.6,58.8 200.2,58.5 200.8,59.6 201.4,59.3 202.0,59.0 202.7,58.7 203.3,59.0 203.9,58.7 204.5,58.4 205.1,58.2 205.8,57.5 206.4,57.2 207.0,57.0 207.6,56.7 208.2,56.8 208.9,56.6 209.5,56.3 210.1,56.1 210.7,55.6 211.3,55.4 212.0,55.1 212.6,54.9 213.2,54.5 213.8,54.3 214.4,54.1 215.1,53.9 215.7,53.1 216.3,52.9 216.9,52.6 217.5,52.4 218.2,51.3 218.8,51.1 219.4,50.9 220.0,50.7 220.6,50.5 221.3,50.3 221.9,50.1 222.5,49.9 223.1,49.2 223.7,49.0 224.4,48.8 225.0,48.6 225.6,48.0 226.2,47.8 226.8,47.6 227.5,47.4 228.1,47.0 228.7,46.8 229.3,46.6 229.9,46.5 230.6,45.8 231.2,45.6 231.8,45.5 232.4,45.3 233.0,44.2 233.7,44.0 234.3,43.9 234.9,43.7 235.5,43.4 236.1,43.3 236.8,43.2 237.4,43.0 238.0,42.8 238.6,42.7 239.2,42.5 239.9,42.4 240.5,43.0 241.1,42.9 241.7,42.8 242.3,42.7 243.0,42.3 243.6,42.2 244.2,42.1 244.8,42.0 245.4,42.7 246.1,42.6 246.7,42.6 247.3,42.5 247.9,42.5 248.5,42.4 249.2,42.4 249.8,42.4 250.4,43.7 251.0,43.7 251.6,43.7 252.3,43.7 252.9,44.3 253.5,44.3 254.1,44.3 254.7,44.3 255.4,44.3 256.0,44.4 256.6,44.4 257.2,44.5 257.8,44.5 258.5,44.6 259.1,44.6 259.7,44.7 260.3,44.2 260.9,44.3 261.6,44.3 262.2,44.4 262.8,45.0 263.4,45.1 264.0,45.2 264.7,45.3 265.3,46.7 265.9,46.8 266.5,46.9 267.1,47.0 267.8,46.4 268.4,46.5 269.0,46.7 269.6,46.8 270.2,46.2 270.9,46.3 271.5,46.4 272.1,46.5 272.7,47.0 273.3,47.1 274.0,47.3 274.6,47.4 275.2,47.0 275.8,47.2 276.4,47.3 277.1,47.4 277.7,47.2 278.3,47.3 278.9,47.5 279.5,47.6 280.2,48.8 280.8,49.0 281.4,49.2 282.0,49.4 282.6,49.8 283.3,50.0 283.9,50.2 284.5,50.3 285.1,50.4 285.7,50.6 286.4,50.8 287.0,51.0 287.6,51.7 288.2,51.9 288.8,52.1 289.5,52.3 290.1,52.4 290.7,52.6 291.3,52.8 291.9,53.0 292.6,52.6 293.2,52.8 293.8,53.0 294.4,53.2 295.0,53.4 295.7,53.6 296.3,53.8 296.9,54.1 297.5,54.6 298.1,54.8 298.8,55.1 299.4,55.3 300.0,55.2 300.6,55.4 301.2,55.6 301.9,55.8 302.5,55.6 303.1,55.8 303.7,56.1 304.3,56.3 305.0,57.0 305.6,57.2 306.2,57.5 306.8,57.7 307.4,57.9 308.1,58.1 308.7,58.4 309.3,58.6 309.9,57.7 310.5,57.9 311.2,58.1 311.8,58.3 312.4,58.4 313.0,58.6 313.6,58.8 314.3,59.0 314.9,59.1 315.5,59.3 316.1,59.6 316.7,59.8 317.4,60.3 318.0,60.5 318.6,60.8 319.2,61.0 319.8,60.6 320.5,60.8 321.1,61.1 321.7,61.3 322.3,61.8 322.9,62.0 323.6,62.2 324.2,62.4 324.8,62.1 325.4,62.3 326.0,62.5 326.7,62.7 327.3,62.9 327.9,63.1 328.5,63.3 329.1,63.5 329.8,63.8 330.4,64.0 331.0,64.2 331.6,64.3 332.2,64.9 332.9,65.1 333.5,65.2 334.1,65.4 334.7,65.3 335.3,65.5 336.0,65.7 336.6,65.9 337.2,65.0 337.8,65.1 338.4,65.3 339.1,65.4 339.7,65.3 340.3,65.5 340.9,65.6 341.5,65.7 342.2,66.5 342.8,66.6 343.4,66.8 344.0,66.9 344.6,66.9 345.3,67.0 345.9,67.2 346.5,67.3 347.1,68.0 347.7,68.1 348.4,68.2 349.0,68.4 349.6,69.6 350.2,69.8 350.8,69.9 351.5,70.1 352.1,70.5 352.7,70.7 353.3,70.8 353.9,71.0 354.6,70.1 355.2,70.2 355.8,70.4 356.4,70.5 357.0,70.9 357.7,71.0 358.3,71.1 358.9,71.2 359.5,71.2 360.1,71.3 360.8,71.4 361.4,71.4 362.0,71.5 362.6,71.6 363.2,71.6 363.9,71.7 364.5,71.5 365.1,71.6 365.7,71.7 366.3,71.7 367.0,72.5 367.6,72.5 368.2,72.6 368.8,72.7 369.4,72.9 370.1,73.0 370.7,73.0 371.3,73.1 371.9,73.7 372.5,73.8 373.2,73.8 373.8,73.9 374.4,73.5 375.0,73.5 375.6,73.5 376.3,73.6 376.9,73.5 377.5,73.5 378.1,73.5 378.7,73.5 379.4,74.0 380.0,74.1 380.6,74.1 381.2,74.1 381.8,74.9 382.5,74.9 383.1,75.0 383.7,75.0 384.3,73.8 384.9,73.8 385.6,73.8 386.2,73.8 386.8,73.8 387.4,73.8 388.0,73.8 388.7,73.8 389.3,73.5 389.9,73.5 390.5,73.4 391.1,73.4 391.8,73.4 392.4,73.4 393.0,73.3 393.6,73.3 394.2,73.0 394.9,72.9 395.5,72.9 396.1,72.8 396.7,73.1 397.3,73.0 398.0,73.0 398.6,72.9 399.2,73.2 399.8,73.1 400.4,73.0 401.1,73.0 401.7,72.3 402.3,72.3 402.9,72.2 403.5,72.1 404.2,72.0 404.8,71.9 405.4,71.8 406.0,71.7 406.6,71.3 407.3,71.2 407.9,71.1 408.5,71.0 409.1,71.0 409.7,70.9 410.4,70.8 411.0,70.7 411.6,70.5 412.2,70.4 412.8,70.3 413.5,70.2 414.1,71.1 414.7,71.0 415.3,70.9 415.9,70.8 416.6,70.7 417.2,70.6 417.8,70.5 418.4,70.4 419.0,70.9 419.7,70.8 420.3,70.7 420.9,70.6 421.5,71.3 422.1,71.2 422.8,71.2 423.4,71.1 424.0,70.9 424.6,70.8 425.2,70.8 425.9,70.7 426.5,71.2 427.1,71.1 427.7,71.1 428.3,71.0 429.0,71.1 429.6,71.1 430.2,71.1 430.8,71.0 431.4,70.7 432.1,70.6 432.7,70.6 433.3,70.5 433.9,70.3 434.5,70.3 435.2,70.2 435.8,70.2 436.4,70.2 437.0,70.1 437.6,70.1 438.3,70.1 438.9,69.9 439.5,69.9 440.1,69.8 440.7,69.8 441.4,69.6 442.0,69.6 442.6,69.6 443.2,69.5 443.8,70.0 444.5,70.0 445.1,70.0 445.7,70.0 446.3,68.9 446.9,68.9 447.6,68.9 448.2,68.9 448.8,68.5 449.4,68.5 450.0,68.5 450.7,68.5 451.3,68.5 451.9,68.5 452.5,68.5 453.1,68.5 453.8,69.8 454.4,69.8 455.0,69.8 455.6,69.9 456.2,69.3 456.9,69.3 457.5,69.3 458.1,69.4 458.7,69.0 459.3,69.0 460.0,69.0 460.6,69.1 461.2,67.8 461.8,67.8 462.4,67.8 463.1,67.9 463.7,68.1 464.3,68.1 464.9,68.2 465.5,68.2 466.2,68.0 466.8,68.0 467.4,68.1 468.0,68.1 468.6,68.8 469.3,68.9 469.9,69.0 470.5,69.1 471.1,68.0 471.7,68.1 472.4,68.2 473.0,68.3 473.6,68.3 474.2,68.4 474.8,68.5 475.5,68.6 476.1,68.0 476.7,68.1 477.3,68.2 477.9,68.3 478.6,67.9 479.2,68.0 479.8,68.1 480.4,68.3 481.0,67.9 481.7,68.1 482.3,68.2 482.9,68.3 483.5,67.9 484.1,68.0 484.8,68.1 485.4,68.2 486.0,68.2 486.6,68.4 487.2,68.5 487.9,68.7 488.5,69.1 489.1,69.3 489.7,69.4 490.3,69.6 491.0,69.4 491.6,69.6 492.2,69.8 492.8,70.0 493.4,70.4 494.1,70.6 494.7,70.8 495.3,71.0 495.9,70.2 496.5,70.4 497.2,70.6 497.8,70.8 498.4,70.5 499.0,70.7 499.6,70.9 500.3,71.1 500.9,70.7 501.5,70.9 502.1,71.1 502.7,71.4 503.4,72.1 504.0,72.3 504.6,72.5 505.2,72.8 505.8,74.1 506.5,74.4 507.1,74.7 507.7,75.0 508.3,74.9 508.9,75.2 509.6,75.5 510.2,75.7 510.8,78.5 511.4,78.8 512.0,79.2 512.7,79.5 513.3,79.9 513.9,80.2 514.5,80.6 515.1,81.0 515.8,81.9 516.4,82.3 517.0,82.7 517.6,83.0 518.2,83.9 518.9,84.3 519.5,84.7 520.1,85.1 520.7,86.6 521.3,87.1 522.0,87.5 522.6,87.9 523.2,87.8 523.8,88.2 524.4,88.6 525.1,89.1 525.7,88.8 526.3,89.3 526.9,89.7 527.5,90.2 528.2,90.9 528.8,91.4 529.4,91.8 530.0,92.3 530.6,92.7 531.3,93.2 531.9,93.6 532.5,94.1 533.1,94.7 533.7,95.2 534.4,95.7 535.0,96.2 535.6,96.4 536.2,96.8 536.8,97.3 537.5,97.8 538.1,98.8 538.7,99.3 539.3,99.8 539.9,100.3 540.6,101.5 541.2,102.0 541.8,102.5 542.4,103.0 543.0,103.1 543.7,103.6 544.3,104.1 544.9,104.6 545.5,105.5 546.1,106.0 546.8,106.6 547.4,107.1 548.0,107.3 548.6,107.8 549.2,108.3 549.9,108.8 550.5,110.0 551.1,110.5 551.7,111.0 552.3,111.6 553.0,112.3 553.6,112.9 554.2,113.4 554.8,114.0 555.4,113.4 556.1,113.9 556.7,114.4 557.3,114.9 557.9,115.2 558.5,115.8 559.2,116.3 559.8,116.8 560.4,117.7 561.0,118.2 561.6,118.8 562.3,119.3 562.9,120.1 563.5,120.7 564.1,121.2 564.7,121.7 565.4,121.9 566.0,122.5 566.6,123.0 567.2,123.5 567.8,124.0 568.5,124.6 569.1,125.1 569.7,125.6 570.3,126.1 570.9,126.6 571.6,127.1 572.2,127.6 572.8,127.3 573.4,127.8 574.0,128.3 574.7,128.8 575.3,128.6 575.9,129.1 576.5,129.6 577.1,130.1 577.8,130.7 578.4,131.2 579.0,131.8 579.6,132.3 580.2,131.9 580.9,132.4 581.5,132.9 582.1,133.4 582.7,134.2 583.3,134.7 584.0,135.2 584.6,135.6 585.2,135.7 585.8,136.2 586.4,136.6 587.1,137.1 587.7,137.9 588.3,138.4 588.9,138.8 589.5,139.3 590.2,139.0 590.8,139.4 591.4,139.8 592.0,140.3 592.6,140.8 593.3,141.3 593.9,141.7 594.5,142.1 595.1,141.6 595.7,142.1 596.4,142.5 597.0,142.9 597.6,142.7 598.2,143.1 598.8,143.5 599.5,143.9 600.1,144.9 600.7,145.3 601.3,145.7 601.9,146.1 602.6,147.0 603.2,147.4 603.8,147.8 604.4,148.2 605.0,149.0 605.7,149.4 606.3,149.8 606.9,150.2 607.5,150.2 608.1,150.6 608.8,150.9 609.4,151.3 610.0,151.3 610.6,151.7 611.2,152.0 611.9,152.4 612.5,152.9 613.1,153.3 613.7,153.6 614.3,154.0 615.0,154.2 615.6,154.5 616.2,154.8 616.8,155.2 617.4,155.2 618.1,155.6 618.7,155.9 619.3,156.2 619.9,156.3 620.5,156.6 621.2,156.9 621.8,157.2 622.4,157.3 623.0,157.6 623.6,157.9 624.3,158.1 624.9,159.2 625.5,159.5 626.1,159.8 626.7,160.1 627.4,160.5 628.0,160.7 628.6,161.0 629.2,161.3 629.8,162.0 630.5,162.3 631.1,162.5 631.7,162.8 632.3,163.7 632.9,163.9 633.6,164.2 634.2,164.5 634.8,165.0 635.4,165.3 636.0,165.5 636.7,165.8 637.3,167.1 637.9,167.3 638.5,167.6 639.1,167.9 639.8,169.0 640.4,169.3 641.0,169.6 641.6,169.9 642.2,171.0 642.9,171.3 643.5,171.6 644.1,171.9 644.7,171.2 645.3,171.5 646.0,171.8 646.6,172.0 647.2,172.5 647.8,172.8 648.4,173.0 649.1,173.3 649.7,173.7 650.3,174.0 650.9,174.2 651.5,174.5 652.2,175.0 652.8,175.3 653.4,175.6 654.0,175.8 654.6,176.2 655.3,176.4 655.9,176.7 656.5,176.9 657.1,177.0 657.7,177.2 658.4,177.5 659.0,177.7 659.6,176.8 660.2,177.0 660.8,177.2 661.5,177.4 662.1,177.9 662.7,178.1 663.3,178.3 663.9,178.5 664.6,177.6 665.2,177.8 665.8,178.0 666.4,178.2 667.0,178.1 667.7,178.3 668.3,178.4 668.9,178.6 669.5,179.5 670.1,179.7 670.8,179.9 671.4,180.1 672.0,179.8 672.6,180.0 673.2,180.2 673.9,180.4 674.5,180.5 675.1,180.7 675.7,180.9 676.3,181.0 677.0,181.0 677.6,181.2 678.2,181.3 678.8,181.5 679.4,181.9 680.1,182.1 680.7,182.3 681.3,182.5 681.9,182.5 682.5,182.7 683.2,182.9 683.8,183.1 684.4,182.9 685.0,183.0 685.6,183.2 686.3,183.4 686.9,183.8 687.5,184.0 688.1,184.2 688.7,184.4 689.4,184.6 690.0,184.8 690.6,185.0 691.2,185.2 691.8,185.3 692.5,185.5 693.1,185.7 693.7,185.9 694.3,187.0 694.9,187.3 695.6,187.5 696.2,187.7 696.8,187.7 697.4,187.9 698.0,188.1 698.7,188.4 699.3,189.7 699.9,189.9 700.5,190.2 701.1,190.5 701.8,191.4 702.4,191.7 703.0,192.0 703.6,192.2 704.2,191.5 704.9,191.7 705.5,192.0 706.1,192.3 706.7,192.3 707.3,192.6 708.0,192.9 708.6,193.1 709.2,193.0 709.8,193.3 710.4,193.6 711.1,193.9 711.7,194.0 712.3,194.3 712.9,194.6 713.5,194.8 714.2,194.9 714.8,195.2 715.4,195.5 716.0,195.8 716.6,196.5 717.3,196.8 717.9,197.2 718.5,197.5 719.1,197.7 719.7,198.0 720.4,198.3 721.0,198.7 721.6,199.3 722.2,199.7 722.8,200.1 723.5,200.4 724.1,200.6 724.7,201.0 725.3,201.4 725.9,201.7 726.6,202.6 727.2,203.0 727.8,203.4 728.4,203.8 729.0,203.6 729.7,204.0 730.3,204.4 730.9,204.9 731.5,205.4 732.1,205.8 732.8,206.2 733.4,206.6 734.0,206.8 734.6,207.2 735.2,207.6 735.9,208.1 736.5,208.4 737.1,208.8 737.7,209.3 738.3,209.7 739.0,210.2 739.6,210.7 740.2,211.2 740.8,211.6 741.4,211.9 742.1,212.4 742.7,212.9 743.3,213.4 743.9,214.1 744.5,214.5 745.2,215.0 745.8,215.6 746.4,216.4 747.0,216.9 747.6,217.4 748.3,217.9 748.9,218.3 749.5,218.8 750.1,219.4 750.7,219.9 751.4,220.9 752.0,221.5 752.6,222.1 753.2,222.6 753.8,223.7 754.5,224.3 755.1,224.8 755.7,225.4 756.3,226.7 756.9,227.3 757.6,228.0 758.2,228.6 758.8,228.7 759.4,229.3 760.0,230.0 760.7,230.6 761.3,230.9 761.9,231.6 762.5,232.2 763.1,232.9 763.8,233.8 764.4,234.5 765.0,235.1 765.6,235.8 766.2,236.5 766.9,237.2 767.5,237.8 768.1,238.5 768.7,239.5 769.3,240.2 770.0,240.9 770.6,241.6 771.2,242.0 771.8,242.7 772.4,243.4 773.1,244.1 773.7,245.0 774.3,245.8 774.9,246.5 775.5,247.2 776.2,247.3 776.8,248.0 777.4,248.8 778.0,249.5 778.6,251.5 779.3,252.3 779.9,253.1 780.5,253.8 781.1,254.7 781.7,255.5 782.4,256.2 783.0,257.0 783.6,258.1 784.2,258.9 784.8,259.7 785.5,260.5 786.1,260.8 786.7,261.5 787.3,262.3 787.9,263.1 788.6,264.1 789.2,264.9 789.8,265.7 790.4,266.5 791.0,268.0 791.7,268.8 792.3,269.6 792.9,270.5 793.5,270.6 794.1,271.4 794.8,272.2 795.4,273.0 796.0,274.0"/>
<text x="640" y="72" font-family="Arial" font-size="12" fill="#2563eb">estimate</text>
</svg>