<svg xmlns="http://www.w3.org/2000/svg" width="820" height="320" viewBox="0 0 820 320">
<rect width="100%" height="100%" fill="white"/>
<text x="52" y="30" font-family="Arial" font-size="18" font-weight="700">ekf_nominal altitude</text>
<line x1="52" y1="274" x2="796" y2="274" stroke="#263238"/>
<line x1="52" y1="42" x2="52" y2="274" stroke="#263238"/>
<text x="52" y="306" font-family="Arial" font-size="12">time (s)</text>
<text x="630" y="306" font-family="Arial" font-size="12">m</text>

<rect x="399.2" y="42" width="99.2" height="232" fill="#fef3c7" opacity="0.72"/>
<polyline fill="none" stroke="#0f766e" stroke-width="2.3" points="52.0,120.7 52.6,120.6 53.2,120.5 53.9,120.5 54.5,120.4 55.1,120.3 55.7,120.3 56.3,120.2 57.0,120.1 57.6,120.1 58.2,120.0 58.8,119.9 59.4,119.8 60.1,119.8 60.7,119.7 61.3,119.6 61.9,119.6 62.5,119.5 63.2,119.4 63.8,119.4 64.4,119.3 65.0,119.2 65.6,119.2 66.3,119.1 66.9,119.0 67.5,119.0 68.1,118.9 68.7,118.8 69.4,118.7 70.0,118.7 70.6,118.6 71.2,118.5 71.8,118.4 72.5,118.4 73.1,118.3 73.7,118.2 74.3,118.1 74.9,118.1 75.6,118.0 76.2,117.9 76.8,117.8 77.4,117.7 78.0,117.6 78.7,117.5 79.3,117.4 79.9,117.4 80.5,117.3 81.1,117.2 81.8,117.1 82.4,117.0 83.0,116.9 83.6,116.8 84.2,116.7 84.9,116.6 85.5,116.4 86.1,116.3 86.7,116.2 87.3,116.1 88.0,116.0 88.6,115.9 89.2,115.8 89.8,115.6 90.4,115.5 91.1,115.4 91.7,115.3 92.3,115.1 92.9,115.0 93.5,114.8 94.2,114.7 94.8,114.6 95.4,114.4 96.0,114.3 96.6,114.1 97.3,114.0 97.9,113.8 98.5,113.7 99.1,113.5 99.7,113.4 100.4,113.2 101.0,113.0 101.6,112.9 102.2,112.7 102.8,112.5 103.5,112.3 104.1,112.2 104.7,112.0 105.3,111.8 105.9,111.6 106.6,111.4 107.2,111.2 107.8,111.0 108.4,110.8 109.0,110.6 109.7,110.4 110.3,110.2 110.9,110.0 111.5,109.8 112.1,109.6 112.8,109.3 113.4,109.1 114.0,108.9 114.6,108.7 115.2,108.4 115.9,108.2 116.5,108.0 117.1,107.7 117.7,107.5 118.3,107.2 119.0,107.0 119.6,106.7 120.2,106.5 120.8,106.2 121.4,106.0 122.1,105.7 122.7,105.4 123.3,105.2 123.9,104.9 124.5,104.6 125.2,104.3 125.8,104.1 126.4,103.8 127.0,103.5 127.6,103.2 128.3,102.9 128.9,102.6 129.5,102.3 130.1,102.0 130.7,101.7 131.4,101.4 132.0,101.1 132.6,100.8 133.2,100.5 133.8,100.2 134.5,99.9 135.1,99.5 135.7,99.2 136.3,98.9 136.9,98.6 137.6,98.2 138.2,97.9 138.8,97.6 139.4,97.2 140.0,96.9 140.7,96.6 141.3,96.2 141.9,95.9 142.5,95.5 143.1,95.2 143.8,94.8 144.4,94.5 145.0,94.1 145.6,93.8 146.2,93.4 146.9,93.0 147.5,92.7 148.1,92.3 148.7,92.0 149.3,91.6 150.0,91.2 150.6,90.8 151.2,90.5 151.8,90.1 152.4,89.7 153.1,89.4 153.7,89.0 154.3,88.6 154.9,88.2 155.5,87.8 156.2,87.4 156.8,87.1 157.4,86.7 158.0,86.3 158.6,85.9 159.3,85.5 159.9,85.1 160.5,84.7 161.1,84.3 161.7,84.0 162.4,83.6 163.0,83.2 163.6,82.8 164.2,82.4 164.8,82.0 165.5,81.6 166.1,81.2 166.7,80.8 167.3,80.4 167.9,80.0 168.6,79.6 169.2,79.2 169.8,78.8 170.4,78.4 171.0,78.0 171.7,77.6 172.3,77.2 172.9,76.8 173.5,76.4 174.1,76.0 174.8,75.6 175.4,75.2 176.0,74.9 176.6,74.5 177.2,74.1 177.9,73.7 178.5,73.3 179.1,72.9 179.7,72.5 180.3,72.1 181.0,71.7 181.6,71.3 182.2,70.9 182.8,70.6 183.4,70.2 184.1,69.8 184.7,69.4 185.3,69.0 185.9,68.7 186.5,68.3 187.2,67.9 187.8,67.5 188.4,67.2 189.0,66.8 189.6,66.4 190.3,66.0 190.9,65.7 191.5,65.3 192.1,65.0 192.7,64.6 193.4,64.2 194.0,63.9 194.6,63.5 195.2,63.2 195.8,62.8 196.5,62.5 197.1,62.1 197.7,61.8 198.3,61.4 198.9,61.1 199.6,60.8 200.2,60.4 200.8,60.1 201.4,59.8 202.0,59.5 202.7,59.1 203.3,58.8 203.9,58.5 204.5,58.2 205.1,57.9 205.8,57.6 206.4,57.3 207.0,57.0 207.6,56.7 208.2,56.4 208.9,56.1 209.5,55.8 210.1,55.5 210.7,55.2 211.3,54.9 212.0,54.7 212.6,54.4 213.2,54.1 213.8,53.9 214.4,53.6 215.1,53.4 215.7,53.1 216.3,52.8 216.9,52.6 217.5,52.4 218.2,52.1 218.8,51.9 219.4,51.7 220.0,51.4 220.6,51.2 221.3,51.0 221.9,50.8 222.5,50.6 223.1,50.3 223.7,50.1 224.4,49.9 225.0,49.7 225.6,49.6 226.2,49.4 226.8,49.2 227.5,49.0 228.1,48.8 228.7,48.7 229.3,48.5 229.9,48.3 230.6,48.2 231.2,48.0 231.8,47.9 232.4,47.7 233.0,47.6 233.7,47.4 234.3,47.3 234.9,47.2 235.5,47.1 236.1,46.9 236.8,46.8 237.4,46.7 238.0,46.6 238.6,46.5 239.2,46.4 239.9,46.3 240.5,46.2 241.1,46.1 241.7,46.0 242.3,46.0 243.0,45.9 243.6,45.8 244.2,45.8 244.8,45.7 245.4,45.6 246.1,45.6 246.7,45.6 247.3,45.5 247.9,45.5 248.5,45.4 249.2,45.4 249.8,45.4 250.4,45.4 251.0,45.3 251.6,45.3 252.3,45.3 252.9,45.3 253.5,45.3 254.1,45.3 254.7,45.3 255.4,45.3 256.0,45.4 256.6,45.4 257.2,45.4 257.8,45.4 258.5,45.5 259.1,45.5 259.7,45.5 260.3,45.6 260.9,45.6 261.6,45.7 262.2,45.8 262.8,45.8 263.4,45.9 264.0,45.9 264.7,46.0 265.3,46.1 265.9,46.2 266.5,46.3 267.1,46.3 267.8,46.4 268.4,46.5 269.0,46.6 269.6,46.7 270.2,46.8 270.9,46.9 271.5,47.0 272.1,47.2 272.7,47.3 273.3,47.4 274.0,47.5 274.6,47.6 275.2,47.8 275.8,47.9 276.4,48.0 277.1,48.2 277.7,48.3 278.3,48.5 278.9,48.6 279.5,48.8 280.2,48.9 280.8,49.1 281.4,49.2 282.0,49.4 282.6,49.6 283.3,49.7 283.9,49.9 284.5,50.1 285.1,50.2 285.7,50.4 286.4,50.6 287.0,50.8 287.6,51.0 288.2,51.1 288.8,51.3 289.5,51.5 290.1,51.7 290.7,51.9 291.3,52.1 291.9,52.3 292.6,52.5 293.2,52.7 293.8,52.9 294.4,53.1 295.0,53.3 295.7,53.5 296.3,53.7 296.9,53.9 297.5,54.1 298.1,54.4 298.8,54.6 299.4,54.8 300.0,55.0 300.6,55.2 301.2,55.4 301.9,55.7 302.5,55.9 303.1,56.1 303.7,56.3 304.3,56.5 305.0,56.8 305.6,57.0 306.2,57.2 306.8,57.4 307.4,57.7 308.1,57.9 308.7,58.1 309.3,58.3 309.9,58.6 310.5,58.8 311.2,59.0 311.8,59.2 312.4,59.5 313.0,59.7 313.6,59.9 314.3,60.1 314.9,60.4 315.5,60.6 316.1,60.8 316.7,61.0 317.4,61.3 318.0,61.5 318.6,61.7 319.2,61.9 319.8,62.2 320.5,62.4 321.1,62.6 321.7,62.8 322.3,63.0 322.9,63.2 323.6,63.5 324.2,63.7 324.8,63.9 325.4,64.1 326.0,64.3 326.7,64.5 327.3,64.7 327.9,65.0 328.5,65.2 329.1,65.4 329.8,65.6 330.4,65.8 331.0,66.0 331.6,66.2 332.2,66.4 332.9,66.6 333.5,66.8 334.1,67.0 334.7,67.1 335.3,67.3 336.0,67.5 336.6,67.7 337.2,67.9 337.8,68.1 338.4,68.3 339.1,68.4 339.7,68.6 340.3,68.8 340.9,69.0 341.5,69.1 342.2,69.3 342.8,69.5 343.4,69.6 344.0,69.8 344.6,69.9 345.3,70.1 345.9,70.3 346.5,70.4 347.1,70.6 347.7,70.7 348.4,70.8 349.0,71.0 349.6,71.1 350.2,71.3 350.8,71.4 351.5,71.5 352.1,71.6 352.7,71.8 353.3,71.9 353.9,72.0 354.6,72.1 355.2,72.2 355.8,72.4 356.4,72.5 357.0,72.6 357.7,72.7 358.3,72.8 358.9,72.9 359.5,73.0 360.1,73.1 360.8,73.2 361.4,73.2 362.0,73.3 362.6,73.4 363.2,73.5 363.9,73.6 364.5,73.6 365.1,73.7 365.7,73.8 366.3,73.8 367.0,73.9 367.6,73.9 368.2,74.0 368.8,74.0 369.4,74.1 370.1,74.1 370.7,74.2 371.3,74.2 371.9,74.3 372.5,74.3 373.2,74.3 373.8,74.4 374.4,74.4 375.0,74.4 375.6,74.4 376.3,74.4 376.9,74.5 377.5,74.5 378.1,74.5 378.7,74.5 379.4,74.5 380.0,74.5 380.6,74.5 381.2,74.5 381.8,74.5 382.5,74.5 383.1,74.5 383.7,74.4 384.3,74.4 384.9,74.4 385.6,74.4 386.2,74.4 386.8,74.3 387.4,74.3 388.0,74.3 388.7,74.2 389.3,74.2 389.9,74.2 390.5,74.1 391.1,74.1 391.8,74.0 392.4,74.0 393.0,73.9 393.6,73.9 394.2,73.8 394.9,73.8 395.5,73.7 396.1,73.6 396.7,73.6 397.3,73.5 398.0,73.5 398.6,73.4 399.2,73.3 399.8,73.2 400.4,73.2 401.1,73.1 401.7,73.0 402.3,72.9 402.9,72.9 403.5,72.8 404.2,72.7 404.8,72.6 405.4,72.5 406.0,72.4 406.6,72.3 407.3,72.3 407.9,72.2 408.5,72.1 409.1,72.0 409.7,71.9 410.4,71.8 411.0,71.7 411.6,71.6 412.2,71.5 412.8,71.4 413.5,71.3 414.1,71.2 414.7,71.1 415.3,71.0 415.9,70.9 416.6,70.8 417.2,70.7 417.8,70.6 418.4,70.5 419.0,70.4 419.7,70.3 420.3,70.2 420.9,70.1 421.5,70.0 422.1,69.9 422.8,69.8 423.4,69.7 424.0,69.6 424.6,69.5 425.2,69.4 425.9,69.3 426.5,69.2 427.1,69.1 427.7,69.0 428.3,68.9 429.0,68.8 429.6,68.7 430.2,68.6 430.8,68.5 431.4,68.4 432.1,68.3 432.7,68.2 433.3,68.1 433.9,68.0 434.5,67.9 435.2,67.8 435.8,67.7 436.4,67.6 437.0,67.5 437.6,67.5 438.3,67.4 438.9,67.3 439.5,67.2 440.1,67.1 440.7,67.1 441.4,67.0 442.0,66.9 442.6,66.8 443.2,66.8 443.8,66.7 444.5,66.6 445.1,66.6 445.7,66.5 446.3,66.5 446.9,66.4 447.6,66.3 448.2,66.3 448.8,66.2 449.4,66.2 450.0,66.1 450.7,66.1 451.3,66.1 451.9,66.0 452.5,66.0 453.1,66.0 453.8,65.9 454.4,65.9 455.0,65.9 455.6,65.9 456.2,65.8 456.9,65.8 457.5,65.8 458.1,65.8 458.7,65.8 459.3,65.8 460.0,65.8 460.6,65.8 461.2,65.8 461.8,65.8 462.4,65.8 463.1,65.8 463.7,65.9 464.3,65.9 464.9,65.9 465.5,65.9 466.2,66.0 466.8,66.0 467.4,66.1 468.0,66.1 468.6,66.2 469.3,66.2 469.9,66.3 470.5,66.3 471.1,66.4 471.7,66.5 472.4,66.5 473.0,66.6 473.6,66.7 474.2,66.8 474.8,66.9 475.5,67.0 476.1,67.1 476.7,67.2 477.3,67.3 477.9,67.4 478.6,67.5 479.2,67.6 479.8,67.7 480.4,67.8 481.0,68.0 481.7,68.1 482.3,68.2 482.9,68.4 483.5,68.5 484.1,68.7 484.8,68.8 485.4,69.0 486.0,69.1 486.6,69.3 487.2,69.5 487.9,69.7 488.5,69.8 489.1,70.0 489.7,70.2 490.3,70.4 491.0,70.6 491.6,70.8 492.2,71.0 492.8,71.2 493.4,71.4 494.1,71.7 494.7,71.9 495.3,72.1 495.9,72.3 496.5,72.6 497.2,72.8 497.8,73.1 498.4,73.3 499.0,73.6 499.6,73.8 500.3,74.1 500.9,74.4 501.5,74.6 502.1,74.9 502.7,75.2 503.4,75.5 504.0,75.8 504.6,76.0 505.2,76.3 505.8,76.6 506.5,76.9 507.1,77.3 507.7,77.6 508.3,77.9 508.9,78.2 509.6,78.5 510.2,78.9 510.8,79.2 511.4,79.5 512.0,79.9 512.7,80.2 513.3,80.6 513.9,80.9 514.5,81.3 515.1,81.6 515.8,82.0 516.4,82.4 517.0,82.7 517.6,83.1 518.2,83.5 518.9,83.9 519.5,84.3 520.1,84.6 520.7,85.0 521.3,85.4 522.0,85.8 522.6,86.2 523.2,86.6 523.8,87.0 524.4,87.5 525.1,87.9 525.7,88.3 526.3,88.7 526.9,89.1 527.5,89.6 528.2,90.0 528.8,90.4 529.4,90.9 530.0,91.3 530.6,91.8 531.3,92.2 531.9,92.7 532.5,93.1 533.1,93.6 533.7,94.0 534.4,94.5 535.0,94.9 535.6,95.4 536.2,95.9 536.8,96.3 537.5,96.8 538.1,97.3 538.7,97.8 539.3,98.2 539.9,98.7 540.6,99.2 541.2,99.7 541.8,100.2 542.4,100.7 543.0,101.1 543.7,101.6 544.3,102.1 544.9,102.6 545.5,103.1 546.1,103.6 546.8,104.1 547.4,104.6 548.0,105.1 548.6,105.6 549.2,106.1 549.9,106.6 550.5,107.1 551.1,107.6 551.7,108.2 552.3,108.7 553.0,109.2 553.6,109.7 554.2,110.2 554.8,110.7 555.4,111.2 556.1,111.8 556.7,112.3 557.3,112.8 557.9,113.3 558.5,113.8 559.2,114.3 559.8,114.9 560.4,115.4 561.0,115.9 561.6,116.4 562.3,116.9 562.9,117.5 563.5,118.0 564.1,118.5 564.7,119.0 565.4,119.5 566.0,120.0 566.6,120.6 567.2,121.1 567.8,121.6 568.5,122.1 569.1,122.6 569.7,123.2 570.3,123.7 570.9,124.2 571.6,124.7 572.2,125.2 572.8,125.7 573.4,126.2 574.0,126.8 574.7,127.3 575.3,127.8 575.9,128.3 576.5,128.8 577.1,129.3 577.8,129.8 578.4,130.3 579.0,130.8 579.6,131.3 580.2,131.8 580.9,132.3 581.5,132.8 582.1,133.3 582.7,133.8 583.3,134.3 584.0,134.8 584.6,135.3 585.2,135.7 585.8,136.2 586.4,136.7 587.1,137.2 587.7,137.7 588.3,138.2 588.9,138.6 589.5,139.1 590.2,139.6 590.8,140.1 591.4,140.5 592.0,141.0 592.6,141.4 593.3,141.9 593.9,142.4 594.5,142.8 595.1,143.3 595.7,143.7 596.4,144.2 597.0,144.6 597.6,145.1 598.2,145.5 598.8,146.0 599.5,146.4 600.1,146.8 600.7,147.3 601.3,147.7 601.9,148.1 602.6,148.5 603.2,149.0 603.8,149.4 604.4,149.8 605.0,150.2 605.7,150.6 606.3,151.0 606.9,151.4 607.5,151.8 608.1,152.2 608.8,152.6 609.4,153.0 610.0,153.4 610.6,153.8 611.2,154.2 611.9,154.6 612.5,155.0 613.1,155.4 613.7,155.7 614.3,156.1 615.0,156.5 615.6,156.8 616.2,157.2 616.8,157.6 617.4,157.9 618.1,158.3 618.7,158.6 619.3,159.0 619.9,159.3 620.5,159.7 621.2,160.0 621.8,160.3 622.4,160.7 623.0,161.0 623.6,161.3 624.3,161.7 624.9,162.0 625.5,162.3 626.1,162.6 626.7,162.9 627.4,163.2 628.0,163.6 628.6,163.9 629.2,164.2 629.8,164.5 630.5,164.8 631.1,165.1 631.7,165.4 632.3,165.6 632.9,165.9 633.6,166.2 634.2,166.5 634.8,166.8 635.4,167.1 636.0,167.3 636.7,167.6 637.3,167.9 637.9,168.1 638.5,168.4 639.1,168.7 639.8,168.9 640.4,169.2 641.0,169.4 641.6,169.7 642.2,169.9 642.9,170.2 643.5,170.4 644.1,170.7 644.7,170.9 645.3,171.2 646.0,171.4 646.6,171.6 647.2,171.9 647.8,172.1 648.4,172.3 649.1,172.6 649.7,172.8 650.3,173.0 650.9,173.2 651.5,173.4 652.2,173.7 652.8,173.9 653.4,174.1 654.0,174.3 654.6,174.5 655.3,174.7 655.9,174.9 656.5,175.2 657.1,175.4 657.7,175.6 658.4,175.8 659.0,176.0 659.6,176.2 660.2,176.4 660.8,176.6 661.5,176.8 662.1,177.0 662.7,177.2 663.3,177.4 663.9,177.6 664.6,177.8 665.2,177.9 665.8,178.1 666.4,178.3 667.0,178.5 667.7,178.7 668.3,178.9 668.9,179.1 669.5,179.3 670.1,179.5 670.8,179.7 671.4,179.9 672.0,180.1 672.6,180.2 673.2,180.4 673.9,180.6 674.5,180.8 675.1,181.0 675.7,181.2 676.3,181.4 677.0,181.6 677.6,181.8 678.2,182.0 678.8,182.1 679.4,182.3 680.1,182.5 680.7,182.7 681.3,182.9 681.9,183.1 682.5,183.3 683.2,183.5 683.8,183.7 684.4,183.9 685.0,184.1 685.6,184.3 686.3,184.5 686.9,184.7 687.5,184.9 688.1,185.1 688.7,185.3 689.4,185.5 690.0,185.8 690.6,186.0 691.2,186.2 691.8,186.4 692.5,186.6 693.1,186.8 693.7,187.1 694.3,187.3 694.9,187.5 695.6,187.7 696.2,188.0 696.8,188.2 697.4,188.4 698.0,188.7 698.7,188.9 699.3,189.1 699.9,189.4 700.5,189.6 701.1,189.9 701.8,190.1 702.4,190.4 703.0,190.6 703.6,190.9 704.2,191.2 704.9,191.4 705.5,191.7 706.1,191.9 706.7,192.2 707.3,192.5 708.0,192.8 708.6,193.1 709.2,193.3 709.8,193.6 710.4,193.9 711.1,194.2 711.7,194.5 712.3,194.8 712.9,195.1 713.5,195.4 714.2,195.7 714.8,196.0 715.4,196.3 716.0,196.7 716.6,197.0 717.3,197.3 717.9,197.6 718.5,198.0 719.1,198.3 719.7,198.7 720.4,199.0 721.0,199.4 721.6,199.7 722.2,200.1 722.8,200.4 723.5,200.8 724.1,201.2 724.7,201.5 725.3,201.9 725.9,202.3 726.6,202.7 727.2,203.1 727.8,203.4 728.4,203.8 729.0,204.2 729.7,204.6 730.3,205.1 730.9,205.5 731.5,205.9 732.1,206.3 732.8,206.7 733.4,207.2 734.0,207.6 734.6,208.0 735.2,208.5 735.9,208.9 736.5,209.4 737.1,209.8 737.7,210.3 738.3,210.7 739.0,211.2 739.6,211.7 740.2,212.2 740.8,212.6 741.4,213.1 742.1,213.6 742.7,214.1 743.3,214.6 743.9,215.1 744.5,215.6 745.2,216.1 745.8,216.6 746.4,217.2 747.0,217.7 747.6,218.2 748.3,218.7 748.9,219.3 749.5,219.8 750.1,220.4 750.7,220.9 751.4,221.5 752.0,222.0 752.6,222.6 753.2,223.2 753.8,223.7 754.5,224.3 755.1,224.9 755.7,225.5 756.3,226.1 756.9,226.7 757.6,227.2 758.2,227.8 758.8,228.5 759.4,229.1 760.0,229.7 760.7,230.3 761.3,230.9 761.9,231.5 762.5,232.2 763.1,232.8 763.8,233.4 764.4,234.1 765.0,234.7 765.6,235.4 766.2,236.0 766.9,236.7 767.5,237.3 768.1,238.0 768.7,238.7 769.3,239.3 770.0,240.0 770.6,240.7 771.2,241.4 771.8,242.1 772.4,242.7 773.1,243.4 773.7,244.1 774.3,244.8 774.9,245.5 775.5,246.2 776.2,246.9 776.8,247.6 777.4,248.4 778.0,249.1 778.6,249.8 779.3,250.5 779.9,251.3 780.5,252.0 781.1,252.7 781.7,253.4 782.4,254.2 783.0,254.9 783.6,255.7 784.2,256.4 784.8,257.2 785.5,257.9 786.1,258.7 786.7,259.4 787.3,260.2 787.9,260.9 788.6,261.7 789.2,262.5 789.8,263.2 790.4,264.0 791.0,264.8 791.7,265.6 792.3,266.3 792.9,267.1 793.5,267.9 794.1,268.7 794.8,269.5 795.4,270.3 796.0,271.0"/>
<text x="640" y="56" font-family="Arial" font-size="12" fill="#0f766e">truth</text>
<polyline fill="none" stroke="#2563eb" stroke-width="2.3" points="52.0,119.3 52.6,119.2 53.2,119.1 53.9,118.9 54.5,123.8 55.1,124.2 55.7,124.7 56.3,125.2 57.0,115.9 57.6,115.2 58.2,114.5 58.8,113.7 59.4,118.6 60.1,118.4 60.7,118.2 61.3,118.0 61.9,120.0 62.5,120.0 63.2,120.0 63.8,120.0 64.4,119.5 65.0,119.5 65.6,119.4 66.3,119.4 66.9,120.5 67.5,120.5 68.1,120.5 68.7,120.6 69.4,120.8 70.0,120.8 70.6,120.8 71.2,120.9 71.8,120.0 72.5,120.0 73.1,120.0 73.7,120.0 74.3,116.7 74.9,116.5 75.6,116.3 76.2,116.2 76.8,117.7 77.4,117.6 78.0,117.5 78.7,117.3 79.3,118.0 79.9,117.9 80.5,117.8 81.1,117.7 81.8,117.7 82.4,117.6 83.0,117.5 83.6,117.4 84.2,118.5 84.9,118.5 85.5,118.4 86.1,118.4 86.7,119.6 87.3,119.6 88.0,119.6 88.6,119.6 89.2,118.9 89.8,118.9 90.4,118.9 91.1,118.8 91.7,116.9 92.3,116.8 92.9,116.7 93.5,116.6 94.2,116.7 94.8,116.6 95.4,116.5 96.0,116.4 96.6,115.0 97.3,114.8 97.9,114.6 98.5,114.5 99.1,111.7 99.7,111.4 100.4,111.1 101.0,110.8 101.6,110.6 102.2,110.3 102.8,110.0 103.5,109.6 104.1,110.3 104.7,110.0 105.3,109.6 105.9,109.3 106.6,108.5 107.2,108.1 107.8,107.7 108.4,107.4 109.0,110.3 109.7,110.1 110.3,109.8 110.9,109.6 111.5,111.3 112.1,111.1 112.8,110.9 113.4,110.7 114.0,110.1 114.6,109.9 115.2,109.7 115.9,109.5 116.5,108.0 117.1,107.7 117.7,107.4 118.3,107.2 119.0,107.0 119.6,106.7 120.2,106.4 120.8,106.1 121.4,106.9 122.1,106.7 122.7,106.4 123.3,106.1 123.9,106.8 124.5,106.6 125.2,106.3 125.8,106.1 126.4,105.8 127.0,105.5 127.6,105.3 128.3,105.0 128.9,103.5 129.5,103.2 130.1,102.9 130.7,102.6 131.4,103.9 132.0,103.7 132.6,103.4 133.2,103.2 133.8,100.4 134.5,100.0 135.1,99.7 135.7,99.4 136.3,99.4 136.9,99.0 137.6,98.7 138.2,98.4 138.8,97.7 139.4,97.3 140.0,97.0 140.7,96.6 141.3,97.2 141.9,96.9 142.5,96.5 143.1,96.2 143.8,95.9 144.4,95.6 145.0,95.2 145.6,94.9 146.2,94.4 146.9,94.1 147.5,93.7 148.1,93.4 148.7,92.4 149.3,92.1 150.0,91.7 150.6,91.3 151.2,90.2 151.8,89.8 152.4,89.4 153.1,89.0 153.7,87.1 154.3,86.7 154.9,86.3 155.5,85.8 156.2,84.3 156.8,83.8 157.4,83.3 158.0,82.9 158.6,82.5 159.3,82.0 159.9,81.5 160.5,81.0 161.1,81.2 161.7,80.7 162.4,80.3 163.0,79.8 163.6,81.2 164.2,80.8 164.8,80.3 165.5,79.9 166.1,80.6 166.7,80.2 167.3,79.8 167.9,79.4 168.6,79.9 169.2,79.5 169.8,79.1 170.4,78.7 171.0,78.2 171.7,77.8 172.3,77.4 172.9,77.0 173.5,76.2 174.1,75.8 174.8,75.4 175.4,75.0 176.0,74.4 176.6,74.0 177.2,73.6 177.9,73.2 178.5,72.0 179.1,71.6 179.7,71.2 180.3,70.8 181.0,69.4 181.6,69.0 182.2,68.6 182.8,68.1 183.4,68.4 184.1,68.0 184.7,67.5 185.3,67.1 185.9,65.8 186.5,65.4 187.2,65.0 187.8,64.5 188.4,63.6 189.0,63.2 189.6,62.7 190.3,62.3 190.9,62.6 191.5,62.2 192.1,61.8 192.7,61.4 193.4,61.4 194.0,61.0 194.6,60.6 195.2,60.2 195.8,58.4 196.5,58.0 197.1,57.6 197.7,57.2 198.3,58.0 198.9,57.6 199.6,57.2 200.2,56.8 200.8,58.8 201.4,58.5 202.0,58.1 202.7,57.8 203.3,58.5 203.9,58.2 204.5,57.9 205.1,57.6 205.8,56.9 206.4,56.6 207.0,56.3 207.6,56.0 208.2,56.3 208.9,56.1 209.5,55.8 210.1,55.5 210.7,55.1 211.3,54.8 212.0,54.6 212.6,54.3 213.2,54.5 213.8,54.2 214.4,54.0 215.1,53.8 215.7,52.8 216.3,52.6 216.9,52.4 217.5,52.2 218.2,50.9 218.8,50.6 219.4,50.4 220.0,50.2 220.6,50.0 221.3,49.8 221.9,49.6 222.5,49.4 223.1,48.7 223.7,48.5 224.4,48.3 225.0,48.1 225.6,47.3 226.2,47.1 226.8,46.9 227.5,46.8 228.1,46.3 228.7,46.1 229.3,45.9 229.9,45.7 230.6,45.0 231.2,44.8 231.8,44.7 232.4,44.5 233.0,43.2 233.7,43.1 234.3,42.9 234.9,42.7 235.5,42.5 236.1,42.4 236.8,42.2 237.4,42.1 238.0,42.6 238.6,42.5 239.2,42.4 239.9,42.3 240.5,43.0 241.1,42.9 241.7,42.8 242.3,42.7 243.0,42.3 243.6,42.2 244.2,42.1 244.8,42.0 245.4,42.8 246.1,42.8 246.7,42.7 247.3,42.7 247.9,42.6 248.5,42.6 249.2,42.6 249.8,42.5 250.4,43.7 251.0,43.7 251.6,43.7 252.3,43.7 252.9,44.4 253.5,44.4 254.1,44.4 254.7,44.4 255.4,44.4 256.0,44.5 256.6,44.5 257.2,44.5 257.8,44.6 258.5,44.6 259.1,44.7 259.7,44.7 260.3,44.2 260.9,44.3 261.6,44.3 262.2,44.4 262.8,44.8 263.4,44.9 264.0,45.0 264.7,45.0 265.3,46.7 265.9,46.8 266.5,46.9 267.1,47.0 267.8,46.3 268.4,46.4 269.0,46.5 269.6,46.6 270.2,45.9 270.9,46.0 271.5,46.1 272.1,46.2 272.7,46.8 273.3,46.9 274.0,47.0 274.6,47.2 275.2,46.9 275.8,47.0 276.4,47.1 277.1,47.3 277.7,46.9 278.3,47.1 278.9,47.2 279.5,47.4 280.2,48.8 280.8,48.9 281.4,49.1 282.0,49.3 282.6,49.7 283.3,49.9 283.9,50.1 284.5,50.3 285.1,50.3 285.7,50.5 286.4,50.7 287.0,50.9 287.6,52.1 288.2,52.3 288.8,52.6 289.5,52.8 290.1,52.8 290.7,53.0 291.3,53.3 291.9,53.5 292.6,52.9 293.2,53.1 293.8,53.3 294.4,53.5 295.0,53.7 295.7,53.9 296.3,54.1 296.9,54.4 297.5,54.9 298.1,55.1 298.8,55.4 299.4,55.6 300.0,55.9 300.6,56.1 301.2,56.4 301.9,56.6 302.5,56.2 303.1,56.5 303.7,56.7 304.3,56.9 305.0,57.7 305.6,57.9 306.2,58.2 306.8,58.4 307.4,58.5 308.1,58.8 308.7,59.0 309.3,59.3 309.9,58.2 310.5,58.4 311.2,58.6 311.8,58.8 312.4,57.9 313.0,58.1 313.6,58.3 314.3,58.6 314.9,58.7 315.5,58.9 316.1,59.1 316.7,59.3 317.4,59.9 318.0,60.1 318.6,60.3 319.2,60.5 319.8,60.1 320.5,60.3 321.1,60.5 321.7,60.7 322.3,61.3 322.9,61.5 323.6,61.7 324.2,61.9 324.8,60.8 325.4,61.0 326.0,61.2 326.7,61.3 327.3,61.6 327.9,61.8 328.5,62.0 329.1,62.1 329.8,62.6 330.4,62.7 331.0,62.9 331.6,63.0 332.2,63.7 332.9,63.9 333.5,64.0 334.1,64.2 334.7,64.2 335.3,64.3 336.0,64.5 336.6,64.6 337.2,64.1 337.8,64.2 338.4,64.4 339.1,64.5 339.7,64.4 340.3,64.5 340.9,64.7 341.5,64.8 342.2,65.7 342.8,65.8 343.4,65.9 344.0,66.0 344.6,66.1 345.3,66.2 345.9,66.3 346.5,66.4 347.1,67.3 347.7,67.4 348.4,67.5 349.0,67.6 349.6,68.1 350.2,68.2 350.8,68.3 351.5,68.4 352.1,69.1 352.7,69.2 353.3,69.3 353.9,69.4 354.6,68.6 355.2,68.6 355.8,68.7 356.4,68.8 357.0,69.4 357.7,69.4 358.3,69.5 358.9,69.6 359.5,69.7 360.1,69.7 360.8,69.8 361.4,69.8 362.0,70.5 362.6,70.5 363.2,70.6 363.9,70.7 364.5,70.5 365.1,70.6 365.7,70.6 366.3,70.7 367.0,71.6 367.6,71.6 368.2,71.7 368.8,71.7 369.4,72.1 370.1,72.1 370.7,72.2 371.3,72.2 371.9,72.9 372.5,73.0 373.2,73.0 373.8,73.0 374.4,72.9 375.0,72.9 375.6,73.0 376.3,73.0 376.9,72.9 377.5,72.9 378.1,73.0 378.7,73.0 379.4,73.6 380.0,73.6 380.6,73.6 381.2,73.6 381.8,74.5 382.5,74.6 383.1,74.6 383.7,74.6 384.3,73.4 384.9,73.4 385.6,73.4 386.2,73.4 386.8,73.9 387.4,73.9 388.0,73.9 388.7,73.9 389.3,73.5 389.9,73.5 390.5,73.5 391.1,73.5 391.8,73.5 392.4,73.4 393.0,73.4 393.6,73.4 394.2,73.0 394.9,73.0 395.5,73.0 396.1,72.9 396.7,73.2 397.3,73.2 398.0,73.1 398.6,73.1 399.2,73.3 399.8,73.2 400.4,73.2 401.1,73.1 401.7,72.5 402.3,72.4 402.9,72.3 403.5,72.2 404.2,72.1 404.8,72.0 405.4,71.9 406.0,71.9 406.6,71.4 407.3,71.3 407.9,71.3 408.5,71.2 409.1,71.1 409.7,71.0 410.4,70.9 411.0,70.8 411.6,70.7 412.2,70.6 412.8,70.5 413.5,70.4 414.1,71.2 414.7,71.1 415.3,71.0 415.9,70.9 416.6,70.8 417.2,70.7 417.8,70.6 418.4,70.5 419.0,70.9 419.7,70.8 420.3,70.8 420.9,70.7 421.5,71.3 422.1,71.3 422.8,71.2 423.4,71.1 424.0,70.9 424.6,70.9 425.2,70.8 425.9,70.7 426.5,71.1 427.1,71.1 427.7,71.0 428.3,71.0 429.0,71.1 429.6,71.0 430.2,71.0 430.8,70.9 431.4,70.6 432.1,70.6 432.7,70.5 433.3,70.5 433.9,70.3 434.5,70.3 435.2,70.2 435.8,70.2 436.4,70.2 437.0,70.1 437.6,70.1 438.3,70.0 438.9,69.9 439.5,69.9 440.1,69.8 440.7,69.8 441.4,69.6 442.0,69.6 442.6,69.6 443.2,69.5 443.8,69.9 444.5,69.9 445.1,69.9 445.7,69.9 446.3,69.0 446.9,68.9 447.6,68.9 448.2,68.9 448.8,68.6 449.4,68.6 450.0,68.6 450.7,68.6 451.3,68.6 451.9,68.6 452.5,68.6 453.1,68.6 453.8,69.7 454.4,69.7 455.0,69.7 455.6,69.8 456.2,69.2 456.9,69.3 457.5,69.3 458.1,69.3 458.7,69.0 459.3,69.0 460.0,69.1 460.6,69.1 461.2,68.0 461.8,68.0 462.4,68.0 463.1,68.1 463.7,68.3 464.3,68.3 464.9,68.4 465.5,68.4 466.2,68.1 466.8,68.2 467.4,68.3 468.0,68.3 468.6,68.9 469.3,69.0 469.9,69.1 470.5,69.2 471.1,68.2 471.7,68.3 472.4,68.4 473.0,68.5 473.6,68.5 474.2,68.6 474.8,68.7 475.5,68.8 476.1,68.3 476.7,68.4 477.3,68.5 477.9,68.7 478.6,68.3 479.2,68.4 479.8,68.5 480.4,68.6 481.0,68.4 481.7,68.5 482.3,68.6 482.9,68.7 483.5,68.3 484.1,68.5 484.8,68.6 485.4,68.7 486.0,68.7 486.6,68.9 487.2,69.0 487.9,69.2 488.5,69.5 489.1,69.7 489.7,69.9 490.3,70.0 491.0,69.9 491.6,70.1 492.2,70.3 492.8,70.5 493.4,70.8 494.1,71.0 494.7,71.2 495.3,71.4 495.9,70.7 496.5,71.0 497.2,71.2 497.8,71.4 498.4,71.0 499.0,71.3 499.6,71.5 500.3,71.7 500.9,71.3 501.5,71.6 502.1,71.8 502.7,72.0 503.4,72.6 504.0,72.9 504.6,73.1 505.2,73.4 505.8,74.5 506.5,74.8 507.1,75.1 507.7,75.4 508.3,75.3 508.9,75.6 509.6,75.9 510.2,76.2 510.8,77.7 511.4,78.0 512.0,78.3 512.7,78.6 513.3,79.1 513.9,79.4 514.5,79.7 515.1,80.1 515.8,81.0 516.4,81.4 517.0,81.8 517.6,82.1 518.2,83.0 518.9,83.4 519.5,83.8 520.1,84.2 520.7,85.7 521.3,86.1 522.0,86.5 522.6,86.9 523.2,87.1 523.8,87.5 524.4,88.0 525.1,88.4 525.7,88.2 526.3,88.6 526.9,89.0 527.5,89.5 528.2,90.3 528.8,90.7 529.4,91.2 530.0,91.6 530.6,92.1 531.3,92.5 531.9,93.0 532.5,93.4 533.1,94.1 533.7,94.6 534.4,95.0 535.0,95.5 535.6,96.4 536.2,96.8 536.8,97.3 537.5,97.8 538.1,98.9 538.7,99.4 539.3,99.9 539.9,100.4 540.6,101.5 541.2,102.0 541.8,102.6 542.4,103.1 543.0,103.1 543.7,103.6 544.3,104.1 544.9,104.7 545.5,105.6 546.1,106.1 546.8,106.6 547.4,107.2 548.0,107.9 548.6,108.5 549.2,109.0 549.9,109.5 550.5,110.7 551.1,111.2 551.7,111.8 552.3,112.3 553.0,113.1 553.6,113.6 554.2,114.2 554.8,114.7 555.4,114.0 556.1,114.5 556.7,115.1 557.3,115.6 557.9,115.9 558.5,116.4 559.2,117.0 559.8,117.5 560.4,118.2 561.0,118.7 561.6,119.3 562.3,119.8 562.9,120.6 563.5,121.2 564.1,121.7 564.7,122.3 565.4,122.4 566.0,122.9 566.6,123.5 567.2,124.0 567.8,124.5 568.5,125.0 569.1,125.6 569.7,126.1 570.3,126.5 570.9,127.0 571.6,127.6 572.2,128.1 572.8,127.2 573.4,127.8 574.0,128.3 574.7,128.8 575.3,128.5 575.9,129.0 576.5,129.5 577.1,130.0 577.8,130.6 578.4,131.1 579.0,131.6 579.6,132.1 580.2,131.8 580.9,132.2 581.5,132.7 582.1,133.2 582.7,134.0 583.3,134.5 584.0,135.0 584.6,135.5 585.2,135.5 585.8,136.0 586.4,136.4 587.1,136.9 587.7,137.7 588.3,138.2 588.9,138.6 589.5,139.1 590.2,138.8 590.8,139.2 591.4,139.7 592.0,140.1 592.6,140.7 593.3,141.1 593.9,141.5 594.5,142.0 595.1,141.5 595.7,141.9 596.4,142.3 597.0,142.7 597.6,142.1 598.2,142.5 598.8,142.9 599.5,143.2 600.1,144.3 600.7,144.7 601.3,145.1 601.9,145.5 602.6,146.5 603.2,146.9 603.8,147.2 604.4,147.6 605.0,148.5 605.7,148.9 606.3,149.2 606.9,149.6 607.5,149.7 608.1,150.0 608.8,150.4 609.4,150.7 610.0,151.4 610.6,151.8 611.2,152.1 611.9,152.5 612.5,153.1 613.1,153.4 613.7,153.8 614.3,154.1 615.0,154.3 615.6,154.6 616.2,155.0 616.8,155.3 617.4,155.4 618.1,155.7 618.7,156.0 619.3,156.3 619.9,156.4 620.5,156.7 621.2,157.0 621.8,157.4 622.4,157.8 623.0,158.1 623.6,158.4 624.3,158.7 624.9,159.8 625.5,160.1 626.1,160.4 626.7,160.7 627.4,161.1 628.0,161.4 628.6,161.6 629.2,161.9 629.8,162.6 630.5,162.9 631.1,163.2 631.7,163.4 632.3,164.3 632.9,164.6 633.6,164.9 634.2,165.1 634.8,165.3 635.4,165.5 636.0,165.8 636.7,166.1 637.3,167.4 637.9,167.7 638.5,167.9 639.1,168.2 639.8,169.4 640.4,169.7 641.0,170.0 641.6,170.3 642.2,171.5 642.9,171.7 643.5,172.0 644.1,172.3 644.7,171.6 645.3,171.9 646.0,172.1 646.6,172.4 647.2,172.6 647.8,172.8 648.4,173.1 649.1,173.3 649.7,173.8 650.3,174.0 650.9,174.3 651.5,174.5 652.2,175.1 652.8,175.4 653.4,175.6 654.0,175.8 654.6,176.2 655.3,176.5 655.9,176.7 656.5,176.9 657.1,177.0 657.7,177.2 658.4,177.5 659.0,177.7 659.6,178.1 660.2,178.3 660.8,178.5 661.5,178.8 662.1,179.1 662.7,179.3 663.3,179.6 663.9,179.8 664.6,178.8 665.2,179.0 665.8,179.2 666.4,179.4 667.0,179.2 667.7,179.4 668.3,179.6 668.9,179.8 669.5,180.6 670.1,180.9 670.8,181.1 671.4,181.3 672.0,180.8 672.6,181.0 673.2,181.2 673.9,181.4 674.5,181.5 675.1,181.7 675.7,181.9 676.3,182.1 677.0,181.9 677.6,182.1 678.2,182.3 678.8,182.5 679.4,182.9 680.1,183.1 680.7,183.3 681.3,183.5 681.9,183.4 682.5,183.6 683.2,183.9 683.8,184.1 684.4,183.9 685.0,184.1 685.6,184.3 686.3,184.5 686.9,184.8 687.5,185.0 688.1,185.2 688.7,185.5 689.4,185.6 690.0,185.8 690.6,186.0 691.2,186.2 691.8,186.2 692.5,186.5 693.1,186.7 693.7,186.9 694.3,188.0 694.9,188.3 695.6,188.5 696.2,188.8 696.8,189.0 697.4,189.3 698.0,189.5 698.7,189.8 699.3,191.1 699.9,191.4 700.5,191.7 701.1,191.9 701.8,192.8 702.4,193.1 703.0,193.4 703.6,193.7 704.2,192.8 704.9,193.1 705.5,193.4 706.1,193.6 706.7,193.5 707.3,193.8 708.0,194.1 708.6,194.4 709.2,194.9 709.8,195.2 710.4,195.5 711.1,195.8 711.7,195.7 712.3,196.1 712.9,196.4 713.5,196.7 714.2,196.6 714.8,196.9 715.4,197.2 716.0,197.6 716.6,198.2 717.3,198.6 717.9,198.9 718.5,199.3 719.1,199.3 719.7,199.7 720.4,200.0 721.0,200.4 721.6,200.5 722.2,200.9 722.8,201.3 723.5,201.7 724.1,201.8 724.7,202.1 725.3,202.5 725.9,202.9 726.6,203.8 727.2,204.2 727.8,204.6 728.4,205.0 729.0,204.7 729.7,205.1 730.3,205.5 730.9,205.9 731.5,206.4 732.1,206.8 732.8,207.2 733.4,207.7 734.0,208.1 734.6,208.6 735.2,209.0 735.9,209.5 736.5,209.7 737.1,210.2 737.7,210.6 738.3,211.1 739.0,211.5 739.6,212.0 740.2,212.4 740.8,212.9 741.4,213.1 742.1,213.6 742.7,214.1 743.3,214.6 743.9,215.2 744.5,215.7 745.2,216.2 745.8,216.8 746.4,217.1 747.0,217.6 747.6,218.1 748.3,218.7 748.9,219.0 749.5,219.5 750.1,220.0 750.7,220.6 751.4,221.6 752.0,222.1 752.6,222.7 753.2,223.3 753.8,224.3 754.5,224.9 755.1,225.5 755.7,226.1 756.3,227.3 756.9,228.0 757.6,228.6 758.2,229.2 758.8,229.0 759.4,229.6 760.0,230.2 760.7,230.8 761.3,231.1 761.9,231.8 762.5,232.4 763.1,233.0 763.8,234.0 764.4,234.6 765.0,235.3 765.6,235.9 766.2,236.6 766.9,237.3 767.5,238.0 768.1,238.6 768.7,239.6 769.3,240.3 770.0,241.0 770.6,241.7 771.2,242.2 771.8,242.9 772.4,243.6 773.1,244.3 773.7,245.2 774.3,245.9 774.9,246.7 775.5,247.4 776.2,247.4 776.8,248.1 777.4,248.9 778.0,249.6 778.6,251.7 779.3,252.5 779.9,253.2 780.5,254.0 781.1,254.9 781.7,255.6 782.4,256.4 783.0,257.2 783.6,258.1 784.2,258.9 784.8,259.7 785.5,260.5 786.1,260.7 786.7,261.5 787.3,262.3 787.9,263.1 788.6,264.1 789.2,264.9 789.8,265.7 790.4,266.5 791.0,268.0 791.7,268.8 792.3,269.6 792.9,270.4 793.5,270.6 794.1,271.4 794.8,272.2 795.4,273.0 796.0,274.0"/>
<text x="640" y="72" font-family="Arial" font-size="12" fill="#2563eb">estimate</text>
</svg>