<svg xmlns="http://www.w3.org/2000/svg" width="820" height="320" viewBox="0 0 820 320">
<rect width="100%" height="100%" fill="white"/>
<text x="52" y="30" font-family="Arial" font-size="18" font-weight="700">ekf_conservative accelerometer bias estimates</text>
<line x1="52" y1="274" x2="796" y2="274" stroke="#263238"/>
<line x1="52" y1="42" x2="52" y2="274" stroke="#263238"/>
<text x="52" y="306" font-family="Arial" font-size="12">time (s)</text>
<text x="630" y="306" font-family="Arial" font-size="12">m/s^2</text>

<polyline fill="none" stroke="#0f766e" stroke-width="2.3" points="52.0,227.3 52.6,227.3 53.2,227.3 53.9,227.3 54.5,227.3 55.1,227.3 55.7,227.3 56.3,227.3 57.0,227.3 57.6,227.3 58.2,227.3 58.8,227.3 59.4,227.3 60.1,227.3 60.7,227.3 61.3,227.3 61.9,227.3 62.5,227.3 63.2,227.3 63.8,227.3 64.4,217.6 65.0,217.6 65.6,217.6 66.3,217.6 66.9,217.6 67.5,217.6 68.1,217.6 68.7,217.6 69.4,217.6 70.0,217.6 70.6,217.6 71.2,217.6 71.8,217.6 72.5,217.6 73.1,217.6 73.7,217.6 74.3,217.6 74.9,217.6 75.6,217.6 76.2,217.6 76.8,42.0 77.4,42.0 78.0,42.0 78.7,42.0 79.3,42.0 79.9,42.0 80.5,42.0 81.1,42.0 81.8,42.0 82.4,42.0 83.0,42.0 83.6,42.0 84.2,42.0 84.9,42.0 85.5,42.0 86.1,42.0 86.7,42.0 87.3,42.0 88.0,42.0 88.6,42.0 89.2,142.3 89.8,142.3 90.4,142.3 91.1,142.3 91.7,142.3 92.3,142.3 92.9,142.3 93.5,142.3 94.2,142.3 94.8,142.3 95.4,142.3 96.0,142.3 96.6,142.3 97.3,142.3 97.9,142.3 98.5,142.3 99.1,142.3 99.7,142.3 100.4,142.3 101.0,142.3 101.6,82.0 102.2,82.0 102.8,82.0 103.5,82.0 104.1,82.0 104.7,82.0 105.3,82.0 105.9,82.0 106.6,82.0 107.2,82.0 107.8,82.0 108.4,82.0 109.0,82.0 109.7,82.0 110.3,82.0 110.9,82.0 111.5,82.0 112.1,82.0 112.8,82.0 113.4,82.0 114.0,112.9 114.6,112.9 115.2,112.9 115.9,112.9 116.5,112.9 117.1,112.9 117.7,112.9 118.3,112.9 119.0,112.9 119.6,112.9 120.2,112.9 120.8,112.9 121.4,112.9 122.1,112.9 122.7,112.9 123.3,112.9 123.9,112.9 124.5,112.9 125.2,112.9 125.8,112.9 126.4,126.0 127.0,126.0 127.6,126.0 128.3,126.0 128.9,126.0 129.5,126.0 130.1,126.0 130.7,126.0 131.4,126.0 132.0,126.0 132.6,126.0 133.2,126.0 133.8,126.0 134.5,126.0 135.1,126.0 135.7,126.0 136.3,126.0 136.9,126.0 137.6,126.0 138.2,126.0 138.8,152.9 139.4,152.9 140.0,152.9 140.7,152.9 141.3,152.9 141.9,152.9 142.5,152.9 143.1,152.9 143.8,152.9 144.4,152.9 145.0,152.9 145.6,152.9 146.2,152.9 146.9,152.9 147.5,152.9 148.1,152.9 148.7,152.9 149.3,152.9 150.0,152.9 150.6,152.9 151.2,150.7 151.8,150.7 152.4,150.7 153.1,150.7 153.7,150.7 154.3,150.7 154.9,150.7 155.5,150.7 156.2,150.7 156.8,150.7 157.4,150.7 158.0,150.7 158.6,150.7 159.3,150.7 159.9,150.7 160.5,150.7 161.1,150.7 161.7,150.7 162.4,150.7 163.0,150.7 163.6,169.8 164.2,169.8 164.8,169.8 165.5,169.8 166.1,169.8 166.7,169.8 167.3,169.8 167.9,169.8 168.6,169.8 169.2,169.8 169.8,169.8 170.4,169.8 171.0,169.8 171.7,169.8 172.3,169.8 172.9,169.8 173.5,169.8 174.1,169.8 174.8,169.8 175.4,169.8 176.0,171.0 176.6,171.0 177.2,171.0 177.9,171.0 178.5,171.0 179.1,171.0 179.7,171.0 180.3,171.0 181.0,171.0 181.6,171.0 182.2,171.0 182.8,171.0 183.4,171.0 184.1,171.0 184.7,171.0 185.3,171.0 185.9,171.0 186.5,171.0 187.2,171.0 187.8,171.0 188.4,169.0 189.0,169.0 189.6,169.0 190.3,169.0 190.9,169.0 191.5,169.0 192.1,169.0 192.7,169.0 193.4,169.0 194.0,169.0 194.6,169.0 195.2,169.0 195.8,169.0 196.5,169.0 197.1,169.0 197.7,169.0 198.3,169.0 198.9,169.0 199.6,169.0 200.2,169.0 200.8,186.7 201.4,186.7 202.0,186.7 202.7,186.7 203.3,186.7 203.9,186.7 204.5,186.7 205.1,186.7 205.8,186.7 206.4,186.7 207.0,186.7 207.6,186.7 208.2,186.7 208.9,186.7 209.5,186.7 210.1,186.7 210.7,186.7 211.3,186.7 212.0,186.7 212.6,186.7 213.2,187.5 213.8,187.5 214.4,187.5 215.1,187.5 215.7,187.5 216.3,187.5 216.9,187.5 217.5,187.5 218.2,187.5 218.8,187.5 219.4,187.5 220.0,187.5 220.6,187.5 221.3,187.5 221.9,187.5 222.5,187.5 223.1,187.5 223.7,187.5 224.4,187.5 225.0,187.5 225.6,192.2 226.2,192.2 226.8,192.2 227.5,192.2 228.1,192.2 228.7,192.2 229.3,192.2 229.9,192.2 230.6,192.2 231.2,192.2 231.8,192.2 232.4,192.2 233.0,192.2 233.7,192.2 234.3,192.2 234.9,192.2 235.5,192.2 236.1,192.2 236.8,192.2 237.4,192.2 238.0,184.4 238.6,184.4 239.2,184.4 239.9,184.4 240.5,184.4 241.1,184.4 241.7,184.4 242.3,184.4 243.0,184.4 243.6,184.4 244.2,184.4 244.8,184.4 245.4,184.4 246.1,184.4 246.7,184.4 247.3,184.4 247.9,184.4 248.5,184.4 249.2,184.4 249.8,184.4 250.4,186.4 251.0,186.4 251.6,186.4 252.3,186.4 252.9,186.4 253.5,186.4 254.1,186.4 254.7,186.4 255.4,186.4 256.0,186.4 256.6,186.4 257.2,186.4 257.8,186.4 258.5,186.4 259.1,186.4 259.7,186.4 260.3,186.4 260.9,186.4 261.6,186.4 262.2,186.4 262.8,181.2 263.4,181.2 264.0,181.2 264.7,181.2 265.3,181.2 265.9,181.2 266.5,181.2 267.1,181.2 267.8,181.2 268.4,181.2 269.0,181.2 269.6,181.2 270.2,181.2 270.9,181.2 271.5,181.2 272.1,181.2 272.7,181.2 273.3,181.2 274.0,181.2 274.6,181.2 275.2,175.2 275.8,175.2 276.4,175.2 277.1,175.2 277.7,175.2 278.3,175.2 278.9,175.2 279.5,175.2 280.2,175.2 280.8,175.2 281.4,175.2 282.0,175.2 282.6,175.2 283.3,175.2 283.9,175.2 284.5,175.2 285.1,175.2 285.7,175.2 286.4,175.2 287.0,175.2 287.6,181.3 288.2,181.3 288.8,181.3 289.5,181.3 290.1,181.3 290.7,181.3 291.3,181.3 291.9,181.3 292.6,181.3 293.2,181.3 293.8,181.3 294.4,181.3 295.0,181.3 295.7,181.3 296.3,181.3 296.9,181.3 297.5,181.3 298.1,181.3 298.8,181.3 299.4,181.3 300.0,177.0 300.6,177.0 301.2,177.0 301.9,177.0 302.5,177.0 303.1,177.0 303.7,177.0 304.3,177.0 305.0,177.0 305.6,177.0 306.2,177.0 306.8,177.0 307.4,177.0 308.1,177.0 308.7,177.0 309.3,177.0 309.9,177.0 310.5,177.0 311.2,177.0 311.8,177.0 312.4,183.4 313.0,183.4 313.6,183.4 314.3,183.4 314.9,183.4 315.5,183.4 316.1,183.4 316.7,183.4 317.4,183.4 318.0,183.4 318.6,183.4 319.2,183.4 319.8,183.4 320.5,183.4 321.1,183.4 321.7,183.4 322.3,183.4 322.9,183.4 323.6,183.4 324.2,183.4 324.8,182.6 325.4,182.6 326.0,182.6 326.7,182.6 327.3,182.6 327.9,182.6 328.5,182.6 329.1,182.6 329.8,182.6 330.4,182.6 331.0,182.6 331.6,182.6 332.2,182.6 332.9,182.6 333.5,182.6 334.1,182.6 334.7,182.6 335.3,182.6 336.0,182.6 336.6,182.6 337.2,182.6 337.8,182.6 338.4,182.6 339.1,182.6 339.7,182.6 340.3,182.6 340.9,182.6 341.5,182.6 342.2,182.6 342.8,182.6 343.4,182.6 344.0,182.6 344.6,182.6 345.3,182.6 345.9,182.6 346.5,182.6 347.1,182.6 347.7,182.6 348.4,182.6 349.0,182.6 349.6,183.6 350.2,183.6 350.8,183.6 351.5,183.6 352.1,183.6 352.7,183.6 353.3,183.6 353.9,183.6 354.6,183.6 355.2,183.6 355.8,183.6 356.4,183.6 357.0,183.6 357.7,183.6 358.3,183.6 358.9,183.6 359.5,183.6 360.1,183.6 360.8,183.6 361.4,183.6 362.0,184.7 362.6,184.7 363.2,184.7 363.9,184.7 364.5,184.7 365.1,184.7 365.7,184.7 366.3,184.7 367.0,184.7 367.6,184.7 368.2,184.7 368.8,184.7 369.4,184.7 370.1,184.7 370.7,184.7 371.3,184.7 371.9,184.7 372.5,184.7 373.2,184.7 373.8,184.7 374.4,188.6 375.0,188.6 375.6,188.6 376.3,188.6 376.9,188.6 377.5,188.6 378.1,188.6 378.7,188.6 379.4,188.6 380.0,188.6 380.6,188.6 381.2,188.6 381.8,188.6 382.5,188.6 383.1,188.6 383.7,188.6 384.3,188.6 384.9,188.6 385.6,188.6 386.2,188.6 386.8,189.5 387.4,189.5 388.0,189.5 388.7,189.5 389.3,189.5 389.9,189.5 390.5,189.5 391.1,189.5 391.8,189.5 392.4,189.5 393.0,189.5 393.6,189.5 394.2,189.5 394.9,189.5 395.5,189.5 396.1,189.5 396.7,189.5 397.3,189.5 398.0,189.5 398.6,189.5 399.2,189.5 399.8,189.5 400.4,189.5 401.1,189.5 401.7,189.5 402.3,189.5 402.9,189.5 403.5,189.5 404.2,189.5 404.8,189.5 405.4,189.5 406.0,189.5 406.6,189.5 407.3,189.5 407.9,189.5 408.5,189.5 409.1,189.5 409.7,189.5 410.4,189.5 411.0,189.5 411.6,189.5 412.2,189.5 412.8,189.5 413.5,189.5 414.1,189.5 414.7,189.5 415.3,189.5 415.9,189.5 416.6,189.5 417.2,189.5 417.8,189.5 418.4,189.5 419.0,189.5 419.7,189.5 420.3,189.5 420.9,189.5 421.5,189.5 422.1,189.5 422.8,189.5 423.4,189.5 424.0,189.5 424.6,189.5 425.2,189.5 425.9,189.5 426.5,189.5 427.1,189.5 427.7,189.5 428.3,189.5 429.0,189.5 429.6,189.5 430.2,189.5 430.8,189.5 431.4,189.5 432.1,189.5 432.7,189.5 433.3,189.5 433.9,189.5 434.5,189.5 435.2,189.5 435.8,189.5 436.4,189.5 437.0,189.5 437.6,189.5 438.3,189.5 438.9,189.5 439.5,189.5 440.1,189.5 440.7,189.5 441.4,189.5 442.0,189.5 442.6,189.5 443.2,189.5 443.8,189.5 444.5,189.5 445.1,189.5 445.7,189.5 446.3,189.5 446.9,189.5 447.6,189.5 448.2,189.5 448.8,189.5 449.4,189.5 450.0,189.5 450.7,189.5 451.3,189.5 451.9,189.5 452.5,189.5 453.1,189.5 453.8,189.5 454.4,189.5 455.0,189.5 455.6,189.5 456.2,189.5 456.9,189.5 457.5,189.5 458.1,189.5 458.7,189.5 459.3,189.5 460.0,189.5 460.6,189.5 461.2,189.5 461.8,189.5 462.4,189.5 463.1,189.5 463.7,189.5 464.3,189.5 464.9,189.5 465.5,189.5 466.2,189.5 466.8,189.5 467.4,189.5 468.0,189.5 468.6,189.5 469.3,189.5 469.9,189.5 470.5,189.5 471.1,189.5 471.7,189.5 472.4,189.5 473.0,189.5 473.6,189.5 474.2,189.5 474.8,189.5 475.5,189.5 476.1,189.5 476.7,189.5 477.3,189.5 477.9,189.5 478.6,189.5 479.2,189.5 479.8,189.5 480.4,189.5 481.0,189.5 481.7,189.5 482.3,189.5 482.9,189.5 483.5,189.5 484.1,189.5 484.8,189.5 485.4,189.5 486.0,189.5 486.6,189.5 487.2,189.5 487.9,189.5 488.5,189.5 489.1,189.5 489.7,189.5 490.3,189.5 491.0,189.5 491.6,189.5 492.2,189.5 492.8,189.5 493.4,189.5 494.1,189.5 494.7,189.5 495.3,189.5 495.9,189.5 496.5,189.5 497.2,189.5 497.8,189.5 498.4,189.5 499.0,189.5 499.6,189.5 500.3,189.5 500.9,189.5 501.5,189.5 502.1,189.5 502.7,189.5 503.4,189.5 504.0,189.5 504.6,189.5 505.2,189.5 505.8,189.5 506.5,189.5 507.1,189.5 507.7,189.5 508.3,189.5 508.9,189.5 509.6,189.5 510.2,189.5 510.8,182.3 511.4,182.3 512.0,182.3 512.7,182.3 513.3,182.3 513.9,182.3 514.5,182.3 515.1,182.3 515.8,182.3 516.4,182.3 517.0,182.3 517.6,182.3 518.2,182.3 518.9,182.3 519.5,182.3 520.1,182.3 520.7,182.3 521.3,182.3 522.0,182.3 522.6,182.3 523.2,187.2 523.8,187.2 524.4,187.2 525.1,187.2 525.7,187.2 526.3,187.2 526.9,187.2 527.5,187.2 528.2,187.2 528.8,187.2 529.4,187.2 530.0,187.2 530.6,187.2 531.3,187.2 531.9,187.2 532.5,187.2 533.1,187.2 533.7,187.2 534.4,187.2 535.0,187.2 535.6,189.0 536.2,189.0 536.8,189.0 537.5,189.0 538.1,189.0 538.7,189.0 539.3,189.0 539.9,189.0 540.6,189.0 541.2,189.0 541.8,189.0 542.4,189.0 543.0,189.0 543.7,189.0 544.3,189.0 544.9,189.0 545.5,189.0 546.1,189.0 546.8,189.0 547.4,189.0 548.0,190.7 548.6,190.7 549.2,190.7 549.9,190.7 550.5,190.7 551.1,190.7 551.7,190.7 552.3,190.7 553.0,190.7 553.6,190.7 554.2,190.7 554.8,190.7 555.4,190.7 556.1,190.7 556.7,190.7 557.3,190.7 557.9,190.7 558.5,190.7 559.2,190.7 559.8,190.7 560.4,190.2 561.0,190.2 561.6,190.2 562.3,190.2 562.9,190.2 563.5,190.2 564.1,190.2 564.7,190.2 565.4,190.2 566.0,190.2 566.6,190.2 567.2,190.2 567.8,190.2 568.5,190.2 569.1,190.2 569.7,190.2 570.3,190.2 570.9,190.2 571.6,190.2 572.2,190.2 572.8,190.2 573.4,190.2 574.0,190.2 574.7,190.2 575.3,190.2 575.9,190.2 576.5,190.2 577.1,190.2 577.8,190.2 578.4,190.2 579.0,190.2 579.6,190.2 580.2,190.2 580.9,190.2 581.5,190.2 582.1,190.2 582.7,190.2 583.3,190.2 584.0,190.2 584.6,190.2 585.2,190.2 585.8,190.2 586.4,190.2 587.1,190.2 587.7,190.2 588.3,190.2 588.9,190.2 589.5,190.2 590.2,190.2 590.8,190.2 591.4,190.2 592.0,190.2 592.6,190.2 593.3,190.2 593.9,190.2 594.5,190.2 595.1,190.2 595.7,190.2 596.4,190.2 597.0,190.2 597.6,193.7 598.2,193.7 598.8,193.7 599.5,193.7 600.1,193.7 600.7,193.7 601.3,193.7 601.9,193.7 602.6,193.7 603.2,193.7 603.8,193.7 604.4,193.7 605.0,193.7 605.7,193.7 606.3,193.7 606.9,193.7 607.5,193.7 608.1,193.7 608.8,193.7 609.4,193.7 610.0,194.3 610.6,194.3 611.2,194.3 611.9,194.3 612.5,194.3 613.1,194.3 613.7,194.3 614.3,194.3 615.0,194.3 615.6,194.3 616.2,194.3 616.8,194.3 617.4,194.3 618.1,194.3 618.7,194.3 619.3,194.3 619.9,194.3 620.5,194.3 621.2,194.3 621.8,194.3 622.4,189.5 623.0,189.5 623.6,189.5 624.3,189.5 624.9,189.5 625.5,189.5 626.1,189.5 626.7,189.5 627.4,189.5 628.0,189.5 628.6,189.5 629.2,189.5 629.8,189.5 630.5,189.5 631.1,189.5 631.7,189.5 632.3,189.5 632.9,189.5 633.6,189.5 634.2,189.5 634.8,187.1 635.4,187.1 636.0,187.1 636.7,187.1 637.3,187.1 637.9,187.1 638.5,187.1 639.1,187.1 639.8,187.1 640.4,187.1 641.0,187.1 641.6,187.1 642.2,187.1 642.9,187.1 643.5,187.1 644.1,187.1 644.7,187.1 645.3,187.1 646.0,187.1 646.6,187.1 647.2,185.5 647.8,185.5 648.4,185.5 649.1,185.5 649.7,185.5 650.3,185.5 650.9,185.5 651.5,185.5 652.2,185.5 652.8,185.5 653.4,185.5 654.0,185.5 654.6,185.5 655.3,185.5 655.9,185.5 656.5,185.5 657.1,185.5 657.7,185.5 658.4,185.5 659.0,185.5 659.6,183.2 660.2,183.2 660.8,183.2 661.5,183.2 662.1,183.2 662.7,183.2 663.3,183.2 663.9,183.2 664.6,183.2 665.2,183.2 665.8,183.2 666.4,183.2 667.0,183.2 667.7,183.2 668.3,183.2 668.9,183.2 669.5,183.2 670.1,183.2 670.8,183.2 671.4,183.2 672.0,188.0 672.6,188.0 673.2,188.0 673.9,188.0 674.5,188.0 675.1,188.0 675.7,188.0 676.3,188.0 677.0,188.0 677.6,188.0 678.2,188.0 678.8,188.0 679.4,188.0 680.1,188.0 680.7,188.0 681.3,188.0 681.9,188.0 682.5,188.0 683.2,188.0 683.8,188.0 684.4,188.7 685.0,188.7 685.6,188.7 686.3,188.7 686.9,188.7 687.5,188.7 688.1,188.7 688.7,188.7 689.4,188.7 690.0,188.7 690.6,188.7 691.2,188.7 691.8,188.7 692.5,188.7 693.1,188.7 693.7,188.7 694.3,188.7 694.9,188.7 695.6,188.7 696.2,188.7 696.8,183.5 697.4,183.5 698.0,183.5 698.7,183.5 699.3,183.5 699.9,183.5 700.5,183.5 701.1,183.5 701.8,183.5 702.4,183.5 703.0,183.5 703.6,183.5 704.2,183.5 704.9,183.5 705.5,183.5 706.1,183.5 706.7,183.5 707.3,183.5 708.0,183.5 708.6,183.5 709.2,186.6 709.8,186.6 710.4,186.6 711.1,186.6 711.7,186.6 712.3,186.6 712.9,186.6 713.5,186.6 714.2,186.6 714.8,186.6 715.4,186.6 716.0,186.6 716.6,186.6 717.3,186.6 717.9,186.6 718.5,186.6 719.1,186.6 719.7,186.6 720.4,186.6 721.0,186.6 721.6,190.3 722.2,190.3 722.8,190.3 723.5,190.3 724.1,190.3 724.7,190.3 725.3,190.3 725.9,190.3 726.6,190.3 727.2,190.3 727.8,190.3 728.4,190.3 729.0,190.3 729.7,190.3 730.3,190.3 730.9,190.3 731.5,190.3 732.1,190.3 732.8,190.3 733.4,190.3 734.0,187.7 734.6,187.7 735.2,187.7 735.9,187.7 736.5,187.7 737.1,187.7 737.7,187.7 738.3,187.7 739.0,187.7 739.6,187.7 740.2,187.7 740.8,187.7 741.4,187.7 742.1,187.7 742.7,187.7 743.3,187.7 743.9,187.7 744.5,187.7 745.2,187.7 745.8,187.7 746.4,192.0 747.0,192.0 747.6,192.0 748.3,192.0 748.9,192.0 749.5,192.0 750.1,192.0 750.7,192.0 751.4,192.0 752.0,192.0 752.6,192.0 753.2,192.0 753.8,192.0 754.5,192.0 755.1,192.0 755.7,192.0 756.3,192.0 756.9,192.0 757.6,192.0 758.2,192.0 758.8,191.3 759.4,191.3 760.0,191.3 760.7,191.3 761.3,191.3 761.9,191.3 762.5,191.3 763.1,191.3 763.8,191.3 764.4,191.3 765.0,191.3 765.6,191.3 766.2,191.3 766.9,191.3 767.5,191.3 768.1,191.3 768.7,191.3 769.3,191.3 770.0,191.3 770.6,191.3 771.2,191.6 771.8,191.6 772.4,191.6 773.1,191.6 773.7,191.6 774.3,191.6 774.9,191.6 775.5,191.6 776.2,191.6 776.8,191.6 777.4,191.6 778.0,191.6 778.6,191.6 779.3,191.6 779.9,191.6 780.5,191.6 781.1,191.6 781.7,191.6 782.4,191.6 783.0,191.6 783.6,190.2 784.2,190.2 784.8,190.2 785.5,190.2 786.1,190.2 786.7,190.2 787.3,190.2 787.9,190.2 788.6,190.2 789.2,190.2 789.8,190.2 790.4,190.2 791.0,190.2 791.7,190.2 792.3,190.2 792.9,190.2 793.5,190.2 794.1,190.2 794.8,190.2 795.4,190.2 796.0,190.8"/>
<text x="640" y="56" font-family="Arial" font-size="12" fill="#0f766e">bax</text>
<polyline fill="none" stroke="#2563eb" stroke-width="2.3" points="52.0,227.3 52.6,227.3 53.2,227.3 53.9,227.3 54.5,227.3 55.1,227.3 55.7,227.3 56.3,227.3 57.0,227.3 57.6,227.3 58.2,227.3 58.8,227.3 59.4,227.3 60.1,227.3 60.7,227.3 61.3,227.3 61.9,227.3 62.5,227.3 63.2,227.3 63.8,227.3 64.4,225.0 65.0,225.0 65.6,225.0 66.3,225.0 66.9,225.0 67.5,225.0 68.1,225.0 68.7,225.0 69.4,225.0 70.0,225.0 70.6,225.0 71.2,225.0 71.8,225.0 72.5,225.0 73.1,225.0 73.7,225.0 74.3,225.0 74.9,225.0 75.6,225.0 76.2,225.0 76.8,227.9 77.4,227.9 78.0,227.9 78.7,227.9 79.3,227.9 79.9,227.9 80.5,227.9 81.1,227.9 81.8,227.9 82.4,227.9 83.0,227.9 83.6,227.9 84.2,227.9 84.9,227.9 85.5,227.9 86.1,227.9 86.7,227.9 87.3,227.9 88.0,227.9 88.6,227.9 89.2,267.0 89.8,267.0 90.4,267.0 91.1,267.0 91.7,267.0 92.3,267.0 92.9,267.0 93.5,267.0 94.2,267.0 94.8,267.0 95.4,267.0 96.0,267.0 96.6,267.0 97.3,267.0 97.9,267.0 98.5,267.0 99.1,267.0 99.7,267.0 100.4,267.0 101.0,267.0 101.6,229.7 102.2,229.7 102.8,229.7 103.5,229.7 104.1,229.7 104.7,229.7 105.3,229.7 105.9,229.7 106.6,229.7 107.2,229.7 107.8,229.7 108.4,229.7 109.0,229.7 109.7,229.7 110.3,229.7 110.9,229.7 111.5,229.7 112.1,229.7 112.8,229.7 113.4,229.7 114.0,221.6 114.6,221.6 115.2,221.6 115.9,221.6 116.5,221.6 117.1,221.6 117.7,221.6 118.3,221.6 119.0,221.6 119.6,221.6 120.2,221.6 120.8,221.6 121.4,221.6 122.1,221.6 122.7,221.6 123.3,221.6 123.9,221.6 124.5,221.6 125.2,221.6 125.8,221.6 126.4,238.0 127.0,238.0 127.6,238.0 128.3,238.0 128.9,238.0 129.5,238.0 130.1,238.0 130.7,238.0 131.4,238.0 132.0,238.0 132.6,238.0 133.2,238.0 133.8,238.0 134.5,238.0 135.1,238.0 135.7,238.0 136.3,238.0 136.9,238.0 137.6,238.0 138.2,238.0 138.8,260.6 139.4,260.6 140.0,260.6 140.7,260.6 141.3,260.6 141.9,260.6 142.5,260.6 143.1,260.6 143.8,260.6 144.4,260.6 145.0,260.6 145.6,260.6 146.2,260.6 146.9,260.6 147.5,260.6 148.1,260.6 148.7,260.6 149.3,260.6 150.0,260.6 150.6,260.6 151.2,268.0 151.8,268.0 152.4,268.0 153.1,268.0 153.7,268.0 154.3,268.0 154.9,268.0 155.5,268.0 156.2,268.0 156.8,268.0 157.4,268.0 158.0,268.0 158.6,268.0 159.3,268.0 159.9,268.0 160.5,268.0 161.1,268.0 161.7,268.0 162.4,268.0 163.0,268.0 163.6,266.3 164.2,266.3 164.8,266.3 165.5,266.3 166.1,266.3 166.7,266.3 167.3,266.3 167.9,266.3 168.6,266.3 169.2,266.3 169.8,266.3 170.4,266.3 171.0,266.3 171.7,266.3 172.3,266.3 172.9,266.3 173.5,266.3 174.1,266.3 174.8,266.3 175.4,266.3 176.0,259.3 176.6,259.3 177.2,259.3 177.9,259.3 178.5,259.3 179.1,259.3 179.7,259.3 180.3,259.3 181.0,259.3 181.6,259.3 182.2,259.3 182.8,259.3 183.4,259.3 184.1,259.3 184.7,259.3 185.3,259.3 185.9,259.3 186.5,259.3 187.2,259.3 187.8,259.3 188.4,267.3 189.0,267.3 189.6,267.3 190.3,267.3 190.9,267.3 191.5,267.3 192.1,267.3 192.7,267.3 193.4,267.3 194.0,267.3 194.6,267.3 195.2,267.3 195.8,267.3 196.5,267.3 197.1,267.3 197.7,267.3 198.3,267.3 198.9,267.3 199.6,267.3 200.2,267.3 200.8,270.2 201.4,270.2 202.0,270.2 202.7,270.2 203.3,270.2 203.9,270.2 204.5,270.2 205.1,270.2 205.8,270.2 206.4,270.2 207.0,270.2 207.6,270.2 208.2,270.2 208.9,270.2 209.5,270.2 210.1,270.2 210.7,270.2 211.3,270.2 212.0,270.2 212.6,270.2 213.2,262.5 213.8,262.5 214.4,262.5 215.1,262.5 215.7,262.5 216.3,262.5 216.9,262.5 217.5,262.5 218.2,262.5 218.8,262.5 219.4,262.5 220.0,262.5 220.6,262.5 221.3,262.5 221.9,262.5 222.5,262.5 223.1,262.5 223.7,262.5 224.4,262.5 225.0,262.5 225.6,264.9 226.2,264.9 226.8,264.9 227.5,264.9 228.1,264.9 228.7,264.9 229.3,264.9 229.9,264.9 230.6,264.9 231.2,264.9 231.8,264.9 232.4,264.9 233.0,264.9 233.7,264.9 234.3,264.9 234.9,264.9 235.5,264.9 236.1,264.9 236.8,264.9 237.4,264.9 238.0,263.3 238.6,263.3 239.2,263.3 239.9,263.3 240.5,263.3 241.1,263.3 241.7,263.3 242.3,263.3 243.0,263.3 243.6,263.3 244.2,263.3 244.8,263.3 245.4,263.3 246.1,263.3 246.7,263.3 247.3,263.3 247.9,263.3 248.5,263.3 249.2,263.3 249.8,263.3 250.4,271.7 251.0,271.7 251.6,271.7 252.3,271.7 252.9,271.7 253.5,271.7 254.1,271.7 254.7,271.7 255.4,271.7 256.0,271.7 256.6,271.7 257.2,271.7 257.8,271.7 258.5,271.7 259.1,271.7 259.7,271.7 260.3,271.7 260.9,271.7 261.6,271.7 262.2,271.7 262.8,266.7 263.4,266.7 264.0,266.7 264.7,266.7 265.3,266.7 265.9,266.7 266.5,266.7 267.1,266.7 267.8,266.7 268.4,266.7 269.0,266.7 269.6,266.7 270.2,266.7 270.9,266.7 271.5,266.7 272.1,266.7 272.7,266.7 273.3,266.7 274.0,266.7 274.6,266.7 275.2,271.5 275.8,271.5 276.4,271.5 277.1,271.5 277.7,271.5 278.3,271.5 278.9,271.5 279.5,271.5 280.2,271.5 280.8,271.5 281.4,271.5 282.0,271.5 282.6,271.5 283.3,271.5 283.9,271.5 284.5,271.5 285.1,271.5 285.7,271.5 286.4,271.5 287.0,271.5 287.6,274.0 288.2,274.0 288.8,274.0 289.5,274.0 290.1,274.0 290.7,274.0 291.3,274.0 291.9,274.0 292.6,274.0 293.2,274.0 293.8,274.0 294.4,274.0 295.0,274.0 295.7,274.0 296.3,274.0 296.9,274.0 297.5,274.0 298.1,274.0 298.8,274.0 299.4,274.0 300.0,268.6 300.6,268.6 301.2,268.6 301.9,268.6 302.5,268.6 303.1,268.6 303.7,268.6 304.3,268.6 305.0,268.6 305.6,268.6 306.2,268.6 306.8,268.6 307.4,268.6 308.1,268.6 308.7,268.6 309.3,268.6 309.9,268.6 310.5,268.6 311.2,268.6 311.8,268.6 312.4,268.4 313.0,268.4 313.6,268.4 314.3,268.4 314.9,268.4 315.5,268.4 316.1,268.4 316.7,268.4 317.4,268.4 318.0,268.4 318.6,268.4 319.2,268.4 319.8,268.4 320.5,268.4 321.1,268.4 321.7,268.4 322.3,268.4 322.9,268.4 323.6,268.4 324.2,268.4 324.8,267.5 325.4,267.5 326.0,267.5 326.7,267.5 327.3,267.5 327.9,267.5 328.5,267.5 329.1,267.5 329.8,267.5 330.4,267.5 331.0,267.5 331.6,267.5 332.2,267.5 332.9,267.5 333.5,267.5 334.1,267.5 334.7,267.5 335.3,267.5 336.0,267.5 336.6,267.5 337.2,268.1 337.8,268.1 338.4,268.1 339.1,268.1 339.7,268.1 340.3,268.1 340.9,268.1 341.5,268.1 342.2,268.1 342.8,268.1 343.4,268.1 344.0,268.1 344.6,268.1 345.3,268.1 345.9,268.1 346.5,268.1 347.1,268.1 347.7,268.1 348.4,268.1 349.0,268.1 349.6,267.0 350.2,267.0 350.8,267.0 351.5,267.0 352.1,267.0 352.7,267.0 353.3,267.0 353.9,267.0 354.6,267.0 355.2,267.0 355.8,267.0 356.4,267.0 357.0,267.0 357.7,267.0 358.3,267.0 358.9,267.0 359.5,267.0 360.1,267.0 360.8,267.0 361.4,267.0 362.0,269.8 362.6,269.8 363.2,269.8 363.9,269.8 364.5,269.8 365.1,269.8 365.7,269.8 366.3,269.8 367.0,269.8 367.6,269.8 368.2,269.8 368.8,269.8 369.4,269.8 370.1,269.8 370.7,269.8 371.3,269.8 371.9,269.8 372.5,269.8 373.2,269.8 373.8,269.8 374.4,262.3 375.0,262.3 375.6,262.3 376.3,262.3 376.9,262.3 377.5,262.3 378.1,262.3 378.7,262.3 379.4,262.3 380.0,262.3 380.6,262.3 381.2,262.3 381.8,262.3 382.5,262.3 383.1,262.3 383.7,262.3 384.3,262.3 384.9,262.3 385.6,262.3 386.2,262.3 386.8,264.7 387.4,264.7 388.0,264.7 388.7,264.7 389.3,264.7 389.9,264.7 390.5,264.7 391.1,264.7 391.8,264.7 392.4,264.7 393.0,264.7 393.6,264.7 394.2,264.7 394.9,264.7 395.5,264.7 396.1,264.7 396.7,264.7 397.3,264.7 398.0,264.7 398.6,264.7 399.2,264.7 399.8,264.7 400.4,264.7 401.1,264.7 401.7,264.7 402.3,264.7 402.9,264.7 403.5,264.7 404.2,264.7 404.8,264.7 405.4,264.7 406.0,264.7 406.6,264.7 407.3,264.7 407.9,264.7 408.5,264.7 409.1,264.7 409.7,264.7 410.4,264.7 411.0,264.7 411.6,264.7 412.2,264.7 412.8,264.7 413.5,264.7 414.1,264.7 414.7,264.7 415.3,264.7 415.9,264.7 416.6,264.7 417.2,264.7 417.8,264.7 418.4,264.7 419.0,264.7 419.7,264.7 420.3,264.7 420.9,264.7 421.5,264.7 422.1,264.7 422.8,264.7 423.4,264.7 424.0,264.7 424.6,264.7 425.2,264.7 425.9,264.7 426.5,264.7 427.1,264.7 427.7,264.7 428.3,264.7 429.0,264.7 429.6,264.7 430.2,264.7 430.8,264.7 431.4,264.7 432.1,264.7 432.7,264.7 433.3,264.7 433.9,264.7 434.5,264.7 435.2,264.7 435.8,264.7 436.4,264.7 437.0,264.7 437.6,264.7 438.3,264.7 438.9,264.7 439.5,264.7 440.1,264.7 440.7,264.7 441.4,264.7 442.0,264.7 442.6,264.7 443.2,264.7 443.8,264.7 444.5,264.7 445.1,264.7 445.7,264.7 446.3,264.7 446.9,264.7 447.6,264.7 448.2,264.7 448.8,264.7 449.4,264.7 450.0,264.7 450.7,264.7 451.3,264.7 451.9,264.7 452.5,264.7 453.1,264.7 453.8,264.7 454.4,264.7 455.0,264.7 455.6,264.7 456.2,264.7 456.9,264.7 457.5,264.7 458.1,264.7 458.7,264.7 459.3,264.7 460.0,264.7 460.6,264.7 461.2,264.7 461.8,264.7 462.4,264.7 463.1,264.7 463.7,264.7 464.3,264.7 464.9,264.7 465.5,264.7 466.2,264.7 466.8,264.7 467.4,264.7 468.0,264.7 468.6,264.7 469.3,264.7 469.9,264.7 470.5,264.7 471.1,264.7 471.7,264.7 472.4,264.7 473.0,264.7 473.6,264.7 474.2,264.7 474.8,264.7 475.5,264.7 476.1,264.7 476.7,264.7 477.3,264.7 477.9,264.7 478.6,264.7 479.2,264.7 479.8,264.7 480.4,264.7 481.0,264.7 481.7,264.7 482.3,264.7 482.9,264.7 483.5,264.7 484.1,264.7 484.8,264.7 485.4,264.7 486.0,264.7 486.6,264.7 487.2,264.7 487.9,264.7 488.5,264.7 489.1,264.7 489.7,264.7 490.3,264.7 491.0,264.7 491.6,264.7 492.2,264.7 492.8,264.7 493.4,264.7 494.1,264.7 494.7,264.7 495.3,264.7 495.9,264.7 496.5,264.7 497.2,264.7 497.8,264.7 498.4,264.7 499.0,264.7 499.6,264.7 500.3,264.7 500.9,264.7 501.5,264.7 502.1,264.7 502.7,264.7 503.4,264.7 504.0,264.7 504.6,264.7 505.2,264.7 505.8,264.7 506.5,264.7 507.1,264.7 507.7,264.7 508.3,264.7 508.9,264.7 509.6,264.7 510.2,264.7 510.8,266.3 511.4,266.3 512.0,266.3 512.7,266.3 513.3,266.3 513.9,266.3 514.5,266.3 515.1,266.3 515.8,266.3 516.4,266.3 517.0,266.3 517.6,266.3 518.2,266.3 518.9,266.3 519.5,266.3 520.1,266.3 520.7,266.3 521.3,266.3 522.0,266.3 522.6,266.3 523.2,259.0 523.8,259.0 524.4,259.0 525.1,259.0 525.7,259.0 526.3,259.0 526.9,259.0 527.5,259.0 528.2,259.0 528.8,259.0 529.4,259.0 530.0,259.0 530.6,259.0 531.3,259.0 531.9,259.0 532.5,259.0 533.1,259.0 533.7,259.0 534.4,259.0 535.0,259.0 535.6,259.4 536.2,259.4 536.8,259.4 537.5,259.4 538.1,259.4 538.7,259.4 539.3,259.4 539.9,259.4 540.6,259.4 541.2,259.4 541.8,259.4 542.4,259.4 543.0,259.4 543.7,259.4 544.3,259.4 544.9,259.4 545.5,259.4 546.1,259.4 546.8,259.4 547.4,259.4 548.0,256.4 548.6,256.4 549.2,256.4 549.9,256.4 550.5,256.4 551.1,256.4 551.7,256.4 552.3,256.4 553.0,256.4 553.6,256.4 554.2,256.4 554.8,256.4 555.4,256.4 556.1,256.4 556.7,256.4 557.3,256.4 557.9,256.4 558.5,256.4 559.2,256.4 559.8,256.4 560.4,255.5 561.0,255.5 561.6,255.5 562.3,255.5 562.9,255.5 563.5,255.5 564.1,255.5 564.7,255.5 565.4,255.5 566.0,255.5 566.6,255.5 567.2,255.5 567.8,255.5 568.5,255.5 569.1,255.5 569.7,255.5 570.3,255.5 570.9,255.5 571.6,255.5 572.2,255.5 572.8,258.7 573.4,258.7 574.0,258.7 574.7,258.7 575.3,258.7 575.9,258.7 576.5,258.7 577.1,258.7 577.8,258.7 578.4,258.7 579.0,258.7 579.6,258.7 580.2,258.7 580.9,258.7 581.5,258.7 582.1,258.7 582.7,258.7 583.3,258.7 584.0,258.7 584.6,258.7 585.2,258.7 585.8,258.7 586.4,258.7 587.1,258.7 587.7,258.7 588.3,258.7 588.9,258.7 589.5,258.7 590.2,258.7 590.8,258.7 591.4,258.7 592.0,258.7 592.6,258.7 593.3,258.7 593.9,258.7 594.5,258.7 595.1,258.7 595.7,258.7 596.4,258.7 597.0,258.7 597.6,265.2 598.2,265.2 598.8,265.2 599.5,265.2 600.1,265.2 600.7,265.2 601.3,265.2 601.9,265.2 602.6,265.2 603.2,265.2 603.8,265.2 604.4,265.2 605.0,265.2 605.7,265.2 606.3,265.2 606.9,265.2 607.5,265.2 608.1,265.2 608.8,265.2 609.4,265.2 610.0,263.7 610.6,263.7 611.2,263.7 611.9,263.7 612.5,263.7 613.1,263.7 613.7,263.7 614.3,263.7 615.0,263.7 615.6,263.7 616.2,263.7 616.8,263.7 617.4,263.7 618.1,263.7 618.7,263.7 619.3,263.7 619.9,263.7 620.5,263.7 621.2,263.7 621.8,263.7 622.4,259.8 623.0,259.8 623.6,259.8 624.3,259.8 624.9,259.8 625.5,259.8 626.1,259.8 626.7,259.8 627.4,259.8 628.0,259.8 628.6,259.8 629.2,259.8 629.8,259.8 630.5,259.8 631.1,259.8 631.7,259.8 632.3,259.8 632.9,259.8 633.6,259.8 634.2,259.8 634.8,259.1 635.4,259.1 636.0,259.1 636.7,259.1 637.3,259.1 637.9,259.1 638.5,259.1 639.1,259.1 639.8,259.1 640.4,259.1 641.0,259.1 641.6,259.1 642.2,259.1 642.9,259.1 643.5,259.1 644.1,259.1 644.7,259.1 645.3,259.1 646.0,259.1 646.6,259.1 647.2,255.2 647.8,255.2 648.4,255.2 649.1,255.2 649.7,255.2 650.3,255.2 650.9,255.2 651.5,255.2 652.2,255.2 652.8,255.2 653.4,255.2 654.0,255.2 654.6,255.2 655.3,255.2 655.9,255.2 656.5,255.2 657.1,255.2 657.7,255.2 658.4,255.2 659.0,255.2 659.6,259.3 660.2,259.3 660.8,259.3 661.5,259.3 662.1,259.3 662.7,259.3 663.3,259.3 663.9,259.3 664.6,259.3 665.2,259.3 665.8,259.3 666.4,259.3 667.0,259.3 667.7,259.3 668.3,259.3 668.9,259.3 669.5,259.3 670.1,259.3 670.8,259.3 671.4,259.3 672.0,258.7 672.6,258.7 673.2,258.7 673.9,258.7 674.5,258.7 675.1,258.7 675.7,258.7 676.3,258.7 677.0,258.7 677.6,258.7 678.2,258.7 678.8,258.7 679.4,258.7 680.1,258.7 680.7,258.7 681.3,258.7 681.9,258.7 682.5,258.7 683.2,258.7 683.8,258.7 684.4,260.2 685.0,260.2 685.6,260.2 686.3,260.2 686.9,260.2 687.5,260.2 688.1,260.2 688.7,260.2 689.4,260.2 690.0,260.2 690.6,260.2 691.2,260.2 691.8,260.2 692.5,260.2 693.1,260.2 693.7,260.2 694.3,260.2 694.9,260.2 695.6,260.2 696.2,260.2 696.8,260.1 697.4,260.1 698.0,260.1 698.7,260.1 699.3,260.1 699.9,260.1 700.5,260.1 701.1,260.1 701.8,260.1 702.4,260.1 703.0,260.1 703.6,260.1 704.2,260.1 704.9,260.1 705.5,260.1 706.1,260.1 706.7,260.1 707.3,260.1 708.0,260.1 708.6,260.1 709.2,263.9 709.8,263.9 710.4,263.9 711.1,263.9 711.7,263.9 712.3,263.9 712.9,263.9 713.5,263.9 714.2,263.9 714.8,263.9 715.4,263.9 716.0,263.9 716.6,263.9 717.3,263.9 717.9,263.9 718.5,263.9 719.1,263.9 719.7,263.9 720.4,263.9 721.0,263.9 721.6,261.7 722.2,261.7 722.8,261.7 723.5,261.7 724.1,261.7 724.7,261.7 725.3,261.7 725.9,261.7 726.6,261.7 727.2,261.7 727.8,261.7 728.4,261.7 729.0,261.7 729.7,261.7 730.3,261.7 730.9,261.7 731.5,261.7 732.1,261.7 732.8,261.7 733.4,261.7 734.0,258.3 734.6,258.3 735.2,258.3 735.9,258.3 736.5,258.3 737.1,258.3 737.7,258.3 738.3,258.3 739.0,258.3 739.6,258.3 740.2,258.3 740.8,258.3 741.4,258.3 742.1,258.3 742.7,258.3 743.3,258.3 743.9,258.3 744.5,258.3 745.2,258.3 745.8,258.3 746.4,259.8 747.0,259.8 747.6,259.8 748.3,259.8 748.9,259.8 749.5,259.8 750.1,259.8 750.7,259.8 751.4,259.8 752.0,259.8 752.6,259.8 753.2,259.8 753.8,259.8 754.5,259.8 755.1,259.8 755.7,259.8 756.3,259.8 756.9,259.8 757.6,259.8 758.2,259.8 758.8,257.8 759.4,257.8 760.0,257.8 760.7,257.8 761.3,257.8 761.9,257.8 762.5,257.8 763.1,257.8 763.8,257.8 764.4,257.8 765.0,257.8 765.6,257.8 766.2,257.8 766.9,257.8 767.5,257.8 768.1,257.8 768.7,257.8 769.3,257.8 770.0,257.8 770.6,257.8 771.2,255.7 771.8,255.7 772.4,255.7 773.1,255.7 773.7,255.7 774.3,255.7 774.9,255.7 775.5,255.7 776.2,255.7 776.8,255.7 777.4,255.7 778.0,255.7 778.6,255.7 779.3,255.7 779.9,255.7 780.5,255.7 781.1,255.7 781.7,255.7 782.4,255.7 783.0,255.7 783.6,255.9 784.2,255.9 784.8,255.9 785.5,255.9 786.1,255.9 786.7,255.9 787.3,255.9 787.9,255.9 788.6,255.9 789.2,255.9 789.8,255.9 790.4,255.9 791.0,255.9 791.7,255.9 792.3,255.9 792.9,255.9 793.5,255.9 794.1,255.9 794.8,255.9 795.4,255.9 796.0,255.9"/>
<text x="640" y="72" font-family="Arial" font-size="12" fill="#2563eb">bay</text>
<polyline fill="none" stroke="#b45309" stroke-width="2.3" points="52.0,227.3 52.6,227.3 53.2,227.3 53.9,227.3 54.5,225.8 55.1,225.8 55.7,225.8 56.3,225.8 57.0,233.1 57.6,233.1 58.2,233.1 58.8,233.1 59.4,223.9 60.1,223.9 60.7,223.9 61.3,223.9 61.9,210.0 62.5,210.0 63.2,210.0 63.8,210.0 64.4,102.9 65.0,102.9 65.6,102.9 66.3,102.9 66.9,95.7 67.5,95.7 68.1,95.7 68.7,95.7 69.4,86.4 70.0,86.4 70.6,86.4 71.2,86.4 71.8,83.2 72.5,83.2 73.1,83.2 73.7,83.2 74.3,120.2 74.9,120.2 75.6,120.2 76.2,120.2 76.8,264.8 77.4,264.8 78.0,264.8 78.7,264.8 79.3,252.6 79.9,252.6 80.5,252.6 81.1,252.6 81.8,240.9 82.4,240.9 83.0,240.9 83.6,240.9 84.2,210.5 84.9,210.5 85.5,210.5 86.1,210.5 86.7,169.6 87.3,169.6 88.0,169.6 88.6,169.6 89.2,179.5 89.8,179.5 90.4,179.5 91.1,179.5 91.7,183.3 92.3,183.3 92.9,183.3 93.5,183.3 94.2,171.8 94.8,171.8 95.4,171.8 96.0,171.8 96.6,174.6 97.3,174.6 97.9,174.6 98.5,174.6 99.1,198.3 99.7,198.3 100.4,198.3 101.0,198.3 101.6,165.6 102.2,165.6 102.8,165.6 103.5,165.6 104.1,160.3 104.7,160.3 105.3,160.3 105.9,160.3 106.6,166.2 107.2,166.2 107.8,166.2 108.4,166.2 109.0,139.6 109.7,139.6 110.3,139.6 110.9,139.6 111.5,119.5 112.1,119.5 112.8,119.5 113.4,119.5 114.0,128.4 114.6,128.4 115.2,128.4 115.9,128.4 116.5,135.1 117.1,135.1 117.7,135.1 118.3,135.1 119.0,134.6 119.6,134.6 120.2,134.6 120.8,134.6 121.4,126.9 122.1,126.9 122.7,126.9 123.3,126.9 123.9,119.1 124.5,119.1 125.2,119.1 125.8,119.1 126.4,159.4 127.0,159.4 127.6,159.4 128.3,159.4 128.9,165.1 129.5,165.1 130.1,165.1 130.7,165.1 131.4,153.1 132.0,153.1 132.6,153.1 133.2,153.1 133.8,168.6 134.5,168.6 135.1,168.6 135.7,168.6 136.3,165.9 136.9,165.9 137.6,165.9 138.2,165.9 138.8,141.8 139.4,141.8 140.0,141.8 140.7,141.8 141.3,138.1 141.9,138.1 142.5,138.1 143.1,138.1 143.8,139.1 144.4,139.1 145.0,139.1 145.6,139.1 146.2,141.5 146.9,141.5 147.5,141.5 148.1,141.5 148.7,147.2 149.3,147.2 150.0,147.2 150.6,147.2 151.2,160.8 151.8,160.8 152.4,160.8 153.1,160.8 153.7,170.1 154.3,170.1 154.9,170.1 155.5,170.1 156.2,178.6 156.8,178.6 157.4,178.6 158.0,178.6 158.6,181.4 159.3,181.4 159.9,181.4 160.5,181.4 161.1,180.8 161.7,180.8 162.4,180.8 163.0,180.8 163.6,177.6 164.2,177.6 164.8,177.6 165.5,177.6 166.1,173.7 166.7,173.7 167.3,173.7 167.9,173.7 168.6,170.4 169.2,170.4 169.8,170.4 170.4,170.4 171.0,171.9 171.7,171.9 172.3,171.9 172.9,171.9 173.5,175.4 174.1,175.4 174.8,175.4 175.4,175.4 176.0,178.3 176.6,178.3 177.2,178.3 177.9,178.3 178.5,182.5 179.1,182.5 179.7,182.5 180.3,182.5 181.0,188.2 181.6,188.2 182.2,188.2 182.8,188.2 183.4,186.6 184.1,186.6 184.7,186.6 185.3,186.6 185.9,192.2 186.5,192.2 187.2,192.2 187.8,192.2 188.4,198.2 189.0,198.2 189.6,198.2 190.3,198.2 190.9,196.5 191.5,196.5 192.1,196.5 192.7,196.5 193.4,195.9 194.0,195.9 194.6,195.9 195.2,195.9 195.8,202.6 196.5,202.6 197.1,202.6 197.7,202.6 198.3,199.0 198.9,199.0 199.6,199.0 200.2,199.0 200.8,192.7 201.4,192.7 202.0,192.7 202.7,192.7 203.3,189.4 203.9,189.4 204.5,189.4 205.1,189.4 205.8,191.3 206.4,191.3 207.0,191.3 207.6,191.3 208.2,189.3 208.9,189.3 209.5,189.3 210.1,189.3 210.7,190.3 211.3,190.3 212.0,190.3 212.6,190.3 213.2,192.7 213.8,192.7 214.4,192.7 215.1,192.7 215.7,195.2 216.3,195.2 216.9,195.2 217.5,195.2 218.2,199.1 218.8,199.1 219.4,199.1 220.0,199.1 220.6,199.2 221.3,199.2 221.9,199.2 222.5,199.2 223.1,201.1 223.7,201.1 224.4,201.1 225.0,201.1 225.6,203.6 226.2,203.6 226.8,203.6 227.5,203.6 228.1,204.7 228.7,204.7 229.3,204.7 229.9,204.7 230.6,206.8 231.2,206.8 231.8,206.8 232.4,206.8 233.0,210.8 233.7,210.8 234.3,210.8 234.9,210.8 235.5,211.2 236.1,211.2 236.8,211.2 237.4,211.2 238.0,213.9 238.6,213.9 239.2,213.9 239.9,213.9 240.5,211.2 241.1,211.2 241.7,211.2 242.3,211.2 243.0,212.4 243.6,212.4 244.2,212.4 244.8,212.4 245.4,209.5 246.1,209.5 246.7,209.5 247.3,209.5 247.9,209.4 248.5,209.4 249.2,209.4 249.8,209.4 250.4,203.0 251.0,203.0 251.6,203.0 252.3,203.0 252.9,201.2 253.5,201.2 254.1,201.2 254.7,201.2 255.4,201.3 256.0,201.3 256.6,201.3 257.2,201.3 257.8,201.3 258.5,201.3 259.1,201.3 259.7,201.3 260.3,203.1 260.9,203.1 261.6,203.1 262.2,203.1 262.8,200.7 263.4,200.7 264.0,200.7 264.7,200.7 265.3,196.7 265.9,196.7 266.5,196.7 267.1,196.7 267.8,199.0 268.4,199.0 269.0,199.0 269.6,199.0 270.2,201.4 270.9,201.4 271.5,201.4 272.1,201.4 272.7,200.3 273.3,200.3 274.0,200.3 274.6,200.3 275.2,202.3 275.8,202.3 276.4,202.3 277.1,202.3 277.7,203.6 278.3,203.6 278.9,203.6 279.5,203.6 280.2,200.5 280.8,200.5 281.4,200.5 282.0,200.5 282.6,199.8 283.3,199.8 283.9,199.8 284.5,199.8 285.1,200.2 285.7,200.2 286.4,200.2 287.0,200.2 287.6,200.4 288.2,200.4 288.8,200.4 289.5,200.4 290.1,200.7 290.7,200.7 291.3,200.7 291.9,200.7 292.6,202.6 293.2,202.6 293.8,202.6 294.4,202.6 295.0,202.6 295.7,202.6 296.3,202.6 296.9,202.6 297.5,201.7 298.1,201.7 298.8,201.7 299.4,201.7 300.0,203.9 300.6,203.9 301.2,203.9 301.9,203.9 302.5,205.0 303.1,205.0 303.7,205.0 304.3,205.0 305.0,203.6 305.6,203.6 306.2,203.6 306.8,203.6 307.4,203.7 308.1,203.7 308.7,203.7 309.3,203.7 309.9,206.7 310.5,206.7 311.2,206.7 311.8,206.7 312.4,204.4 313.0,204.4 313.6,204.4 314.3,204.4 314.9,204.7 315.5,204.7 316.1,204.7 316.7,204.7 317.4,203.9 318.0,203.9 318.6,203.9 319.2,203.9 319.8,205.4 320.5,205.4 321.1,205.4 321.7,205.4 322.3,204.6 322.9,204.6 323.6,204.6 324.2,204.6 324.8,204.1 325.4,204.1 326.0,204.1 326.7,204.1 327.3,204.1 327.9,204.1 328.5,204.1 329.1,204.1 329.8,203.8 330.4,203.8 331.0,203.8 331.6,203.8 332.2,203.0 332.9,203.0 333.5,203.0 334.1,203.0 334.7,203.7 335.3,203.7 336.0,203.7 336.6,203.7 337.2,207.3 337.8,207.3 338.4,207.3 339.1,207.3 339.7,207.9 340.3,207.9 340.9,207.9 341.5,207.9 342.2,206.5 342.8,206.5 343.4,206.5 344.0,206.5 344.6,206.8 345.3,206.8 345.9,206.8 346.5,206.8 347.1,205.4 347.7,205.4 348.4,205.4 349.0,205.4 349.6,200.3 350.2,200.3 350.8,200.3 351.5,200.3 352.1,199.5 352.7,199.5 353.3,199.5 353.9,199.5 354.6,201.7 355.2,201.7 355.8,201.7 356.4,201.7 357.0,201.1 357.7,201.1 358.3,201.1 358.9,201.1 359.5,201.4 360.1,201.4 360.8,201.4 361.4,201.4 362.0,202.6 362.6,202.6 363.2,202.6 363.9,202.6 364.5,203.1 365.1,203.1 365.7,203.1 366.3,203.1 367.0,201.6 367.6,201.6 368.2,201.6 368.8,201.6 369.4,201.2 370.1,201.2 370.7,201.2 371.3,201.2 371.9,199.9 372.5,199.9 373.2,199.9 373.8,199.9 374.4,201.5 375.0,201.5 375.6,201.5 376.3,201.5 376.9,201.7 377.5,201.7 378.1,201.7 378.7,201.7 379.4,200.7 380.0,200.7 380.6,200.7 381.2,200.7 381.8,199.0 382.5,199.0 383.1,199.0 383.7,199.0 384.3,201.6 384.9,201.6 385.6,201.6 386.2,201.6 386.8,202.7 387.4,202.7 388.0,202.7 388.7,202.7 389.3,203.3 389.9,203.3 390.5,203.3 391.1,203.3 391.8,203.2 392.4,203.2 393.0,203.2 393.6,203.2 394.2,203.8 394.9,203.8 395.5,203.8 396.1,203.8 396.7,203.1 397.3,203.1 398.0,203.1 398.6,203.1 399.2,202.5 399.8,202.5 400.4,202.5 401.1,202.5 401.7,203.8 402.3,203.8 402.9,203.8 403.5,203.8 404.2,203.9 404.8,203.9 405.4,203.9 406.0,203.9 406.6,204.7 407.3,204.7 407.9,204.7 408.5,204.7 409.1,204.6 409.7,204.6 410.4,204.6 411.0,204.6 411.6,204.8 412.2,204.8 412.8,204.8 413.5,204.8 414.1,202.7 414.7,202.7 415.3,202.7 415.9,202.7 416.6,202.9 417.2,202.9 417.8,202.9 418.4,202.9 419.0,201.7 419.7,201.7 420.3,201.7 420.9,201.7 421.5,200.0 422.1,200.0 422.8,200.0 423.4,200.0 424.0,200.4 424.6,200.4 425.2,200.4 425.9,200.4 426.5,199.3 427.1,199.3 427.7,199.3 428.3,199.3 429.0,198.9 429.6,198.9 430.2,198.9 430.8,198.9 431.4,199.6 432.1,199.6 432.7,199.6 433.3,199.6 433.9,199.9 434.5,199.9 435.2,199.9 435.8,199.9 436.4,199.9 437.0,199.9 437.6,199.9 438.3,199.9 438.9,200.2 439.5,200.2 440.1,200.2 440.7,200.2 441.4,200.6 442.0,200.6 442.6,200.6 443.2,200.6 443.8,199.5 444.5,199.5 445.1,199.5 445.7,199.5 446.3,201.8 446.9,201.8 447.6,201.8 448.2,201.8 448.8,202.5 449.4,202.5 450.0,202.5 450.7,202.5 451.3,202.4 451.9,202.4 452.5,202.4 453.1,202.4 453.8,199.6 454.4,199.6 455.0,199.6 455.6,199.6 456.2,201.0 456.9,201.0 457.5,201.0 458.1,201.0 458.7,202.0 459.3,202.0 460.0,202.0 460.6,202.0 461.2,205.1 461.8,205.1 462.4,205.1 463.1,205.1 463.7,204.6 464.3,204.6 464.9,204.6 465.5,204.6 466.2,205.4 466.8,205.4 467.4,205.4 468.0,205.4 468.6,203.9 469.3,203.9 469.9,203.9 470.5,203.9 471.1,206.6 471.7,206.6 472.4,206.6 473.0,206.6 473.6,206.7 474.2,206.7 474.8,206.7 475.5,206.7 476.1,208.3 476.7,208.3 477.3,208.3 477.9,208.3 478.6,209.5 479.2,209.5 479.8,209.5 480.4,209.5 481.0,210.5 481.7,210.5 482.3,210.5 482.9,210.5 483.5,211.9 484.1,211.9 484.8,211.9 485.4,211.9 486.0,212.2 486.6,212.2 487.2,212.2 487.9,212.2 488.5,211.6 489.1,211.6 489.7,211.6 490.3,211.6 491.0,212.4 491.6,212.4 492.2,212.4 492.8,212.4 493.4,211.9 494.1,211.9 494.7,211.9 495.3,211.9 495.9,214.2 496.5,214.2 497.2,214.2 497.8,214.2 498.4,215.6 499.0,215.6 499.6,215.6 500.3,215.6 500.9,217.1 501.5,217.1 502.1,217.1 502.7,217.1 503.4,215.9 504.0,215.9 504.6,215.9 505.2,215.9 505.8,213.2 506.5,213.2 507.1,213.2 507.7,213.2 508.3,214.0 508.9,214.0 509.6,214.0 510.2,214.0 510.8,205.1 511.4,205.1 512.0,205.1 512.7,205.1 513.3,205.1 513.9,205.1 514.5,205.1 515.1,205.1 515.8,203.8 516.4,203.8 517.0,203.8 517.6,203.8 518.2,202.7 518.9,202.7 519.5,202.7 520.1,202.7 520.7,200.1 521.3,200.1 522.0,200.1 522.6,200.1 523.2,202.4 523.8,202.4 524.4,202.4 525.1,202.4 525.7,203.9 526.3,203.9 526.9,203.9 527.5,203.9 528.2,203.1 528.8,203.1 529.4,203.1 530.0,203.1 530.6,203.3 531.3,203.3 531.9,203.3 532.5,203.3 533.1,202.9 533.7,202.9 534.4,202.9 535.0,202.9 535.6,205.4 536.2,205.4 536.8,205.4 537.5,205.4 538.1,204.2 538.7,204.2 539.3,204.2 539.9,204.2 540.6,202.7 541.2,202.7 541.8,202.7 542.4,202.7 543.0,203.8 543.7,203.8 544.3,203.8 544.9,203.8 545.5,202.8 546.1,202.8 546.8,202.8 547.4,202.8 548.0,205.1 548.6,205.1 549.2,205.1 549.9,205.1 550.5,203.7 551.1,203.7 551.7,203.7 552.3,203.7 553.0,203.1 553.6,203.1 554.2,203.1 554.8,203.1 555.4,205.8 556.1,205.8 556.7,205.8 557.3,205.8 557.9,206.3 558.5,206.3 559.2,206.3 559.8,206.3 560.4,205.0 561.0,205.0 561.6,205.0 562.3,205.0 562.9,204.4 563.5,204.4 564.1,204.4 564.7,204.4 565.4,205.1 566.0,205.1 566.6,205.1 567.2,205.1 567.8,205.2 568.5,205.2 569.1,205.2 569.7,205.2 570.3,205.5 570.9,205.5 571.6,205.5 572.2,205.5 572.8,206.2 573.4,206.2 574.0,206.2 574.7,206.2 575.3,207.8 575.9,207.8 576.5,207.8 577.1,207.8 577.8,207.6 578.4,207.6 579.0,207.6 579.6,207.6 580.2,209.4 580.9,209.4 581.5,209.4 582.1,209.4 582.7,208.7 583.3,208.7 584.0,208.7 584.6,208.7 585.2,209.7 585.8,209.7 586.4,209.7 587.1,209.7 587.7,209.0 588.3,209.0 588.9,209.0 589.5,209.0 590.2,210.8 590.8,210.8 591.4,210.8 592.0,210.8 592.6,210.6 593.3,210.6 593.9,210.6 594.5,210.6 595.1,212.7 595.7,212.7 596.4,212.7 597.0,212.7 597.6,212.7 598.2,212.7 598.8,212.7 599.5,212.7 600.1,211.4 600.7,211.4 601.3,211.4 601.9,211.4 602.6,210.2 603.2,210.2 603.8,210.2 604.4,210.2 605.0,209.3 605.7,209.3 606.3,209.3 606.9,209.3 607.5,210.2 608.1,210.2 608.8,210.2 609.4,210.2 610.0,212.2 610.6,212.2 611.2,212.2 611.9,212.2 612.5,211.8 613.1,211.8 613.7,211.8 614.3,211.8 615.0,212.0 615.6,212.0 616.2,212.0 616.8,212.0 617.4,212.5 618.1,212.5 618.7,212.5 619.3,212.5 619.9,212.9 620.5,212.9 621.2,212.9 621.8,212.9 622.4,214.3 623.0,214.3 623.6,214.3 624.3,214.3 624.9,212.6 625.5,212.6 626.1,212.6 626.7,212.6 627.4,212.4 628.0,212.4 628.6,212.4 629.2,212.4 629.8,211.4 630.5,211.4 631.1,211.4 631.7,211.4 632.3,210.1 632.9,210.1 633.6,210.1 634.2,210.1 634.8,208.7 635.4,208.7 636.0,208.7 636.7,208.7 637.3,206.7 637.9,206.7 638.5,206.7 639.1,206.7 639.8,204.9 640.4,204.9 641.0,204.9 641.6,204.9 642.2,203.0 642.9,203.0 643.5,203.0 644.1,203.0 644.7,204.9 645.3,204.9 646.0,204.9 646.6,204.9 647.2,203.8 647.8,203.8 648.4,203.8 649.1,203.8 649.7,203.5 650.3,203.5 650.9,203.5 651.5,203.5 652.2,202.8 652.8,202.8 653.4,202.8 654.0,202.8 654.6,202.6 655.3,202.6 655.9,202.6 656.5,202.6 657.1,203.0 657.7,203.0 658.4,203.0 659.0,203.0 659.6,208.2 660.2,208.2 660.8,208.2 661.5,208.2 662.1,207.8 662.7,207.8 663.3,207.8 663.9,207.8 664.6,209.9 665.2,209.9 665.8,209.9 666.4,209.9 667.0,210.4 667.7,210.4 668.3,210.4 668.9,210.4 669.5,209.1 670.1,209.1 670.8,209.1 671.4,209.1 672.0,209.8 672.6,209.8 673.2,209.8 673.9,209.8 674.5,209.9 675.1,209.9 675.7,209.9 676.3,209.9 677.0,210.4 677.6,210.4 678.2,210.4 678.8,210.4 679.4,210.0 680.1,210.0 680.7,210.0 681.3,210.0 681.9,210.3 682.5,210.3 683.2,210.3 683.8,210.3 684.4,211.6 685.0,211.6 685.6,211.6 686.3,211.6 686.9,211.2 687.5,211.2 688.1,211.2 688.7,211.2 689.4,211.2 690.0,211.2 690.6,211.2 691.2,211.2 691.8,211.5 692.5,211.5 693.1,211.5 693.7,211.5 694.3,209.7 694.9,209.7 695.6,209.7 696.2,209.7 696.8,211.0 697.4,211.0 698.0,211.0 698.7,211.0 699.3,209.1 699.9,209.1 700.5,209.1 701.1,209.1 701.8,207.7 702.4,207.7 703.0,207.7 703.6,207.7 704.2,209.8 704.9,209.8 705.5,209.8 706.1,209.8 706.7,210.3 707.3,210.3 708.0,210.3 708.6,210.3 709.2,212.5 709.8,212.5 710.4,212.5 711.1,212.5 711.7,212.9 712.3,212.9 712.9,212.9 713.5,212.9 714.2,213.4 714.8,213.4 715.4,213.4 716.0,213.4 716.6,212.5 717.3,212.5 717.9,212.5 718.5,212.5 719.1,212.8 719.7,212.8 720.4,212.8 721.0,212.8 721.6,211.4 722.2,211.4 722.8,211.4 723.5,211.4 724.1,211.8 724.7,211.8 725.3,211.8 725.9,211.8 726.6,210.8 727.2,210.8 727.8,210.8 728.4,210.8 729.0,211.9 729.7,211.9 730.3,211.9 730.9,211.9 731.5,211.8 732.1,211.8 732.8,211.8 733.4,211.8 734.0,213.2 734.6,213.2 735.2,213.2 735.9,213.2 736.5,213.4 737.1,213.4 737.7,213.4 738.3,213.4 739.0,213.3 739.6,213.3 740.2,213.3 740.8,213.3 741.4,213.7 742.1,213.7 742.7,213.7 743.3,213.7 743.9,213.3 744.5,213.3 745.2,213.3 745.8,213.3 746.4,211.7 747.0,211.7 747.6,211.7 748.3,211.7 748.9,212.0 749.5,212.0 750.1,212.0 750.7,212.0 751.4,211.2 752.0,211.2 752.6,211.2 753.2,211.2 753.8,210.3 754.5,210.3 755.1,210.3 755.7,210.3 756.3,209.0 756.9,209.0 757.6,209.0 758.2,209.0 758.8,209.3 759.4,209.3 760.0,209.3 760.7,209.3 761.3,209.8 761.9,209.8 762.5,209.8 763.1,209.8 763.8,209.3 764.4,209.3 765.0,209.3 765.6,209.3 766.2,209.3 766.9,209.3 767.5,209.3 768.1,209.3 768.7,208.7 769.3,208.7 770.0,208.7 770.6,208.7 771.2,209.5 771.8,209.5 772.4,209.5 773.1,209.5 773.7,209.2 774.3,209.2 774.9,209.2 775.5,209.2 776.2,210.4 776.8,210.4 777.4,210.4 778.0,210.4 778.6,207.9 779.3,207.9 779.9,207.9 780.5,207.9 781.1,207.8 781.7,207.8 782.4,207.8 783.0,207.8 783.6,207.0 784.2,207.0 784.8,207.0 785.5,207.0 786.1,207.9 786.7,207.9 787.3,207.9 787.9,207.9 788.6,207.5 789.2,207.5 789.8,207.5 790.4,207.5 791.0,206.3 791.7,206.3 792.3,206.3 792.9,206.3 793.5,207.5 794.1,207.5 794.8,207.5 795.4,207.5 796.0,207.4"/>
<text x="640" y="88" font-family="Arial" font-size="12" fill="#b45309">baz</text>
</svg>