<svg xmlns="http://www.w3.org/2000/svg" width="820" height="320" viewBox="0 0 820 320">
<rect width="100%" height="100%" fill="white"/>
<text x="52" y="30" font-family="Arial" font-size="18" font-weight="700">ekf_dropout_robust accelerometer bias estimates</text>
<line x1="52" y1="274" x2="796" y2="274" stroke="#263238"/>
<line x1="52" y1="42" x2="52" y2="274" stroke="#263238"/>
<text x="52" y="306" font-family="Arial" font-size="12">time (s)</text>
<text x="630" y="306" font-family="Arial" font-size="12">m/s^2</text>

<polyline fill="none" stroke="#0f766e" stroke-width="2.3" points="52.0,108.5 52.6,108.5 53.2,108.5 53.9,108.5 54.5,108.5 55.1,108.5 55.7,108.5 56.3,108.5 57.0,108.5 57.6,108.5 58.2,108.5 58.8,108.5 59.4,108.5 60.1,108.5 60.7,108.5 61.3,108.5 61.9,108.5 62.5,108.5 63.2,108.5 63.8,108.5 64.4,94.1 65.0,94.1 65.6,94.1 66.3,94.1 66.9,94.1 67.5,94.1 68.1,94.1 68.7,94.1 69.4,94.1 70.0,94.1 70.6,94.1 71.2,94.1 71.8,94.1 72.5,94.1 73.1,94.1 73.7,94.1 74.3,94.1 74.9,94.1 75.6,94.1 76.2,94.1 76.8,96.6 77.4,96.6 78.0,96.6 78.7,96.6 79.3,96.6 79.9,96.6 80.5,96.6 81.1,96.6 81.8,96.6 82.4,96.6 83.0,96.6 83.6,96.6 84.2,96.6 84.9,96.6 85.5,96.6 86.1,96.6 86.7,96.6 87.3,96.6 88.0,96.6 88.6,96.6 89.2,158.4 89.8,158.4 90.4,158.4 91.1,158.4 91.7,158.4 92.3,158.4 92.9,158.4 93.5,158.4 94.2,158.4 94.8,158.4 95.4,158.4 96.0,158.4 96.6,158.4 97.3,158.4 97.9,158.4 98.5,158.4 99.1,158.4 99.7,158.4 100.4,158.4 101.0,158.4 101.6,167.8 102.2,167.8 102.8,167.8 103.5,167.8 104.1,167.8 104.7,167.8 105.3,167.8 105.9,167.8 106.6,167.8 107.2,167.8 107.8,167.8 108.4,167.8 109.0,167.8 109.7,167.8 110.3,167.8 110.9,167.8 111.5,167.8 112.1,167.8 112.8,167.8 113.4,167.8 114.0,56.2 114.6,56.2 115.2,56.2 115.9,56.2 116.5,56.2 117.1,56.2 117.7,56.2 118.3,56.2 119.0,56.2 119.6,56.2 120.2,56.2 120.8,56.2 121.4,56.2 122.1,56.2 122.7,56.2 123.3,56.2 123.9,56.2 124.5,56.2 125.2,56.2 125.8,56.2 126.4,60.7 127.0,60.7 127.6,60.7 128.3,60.7 128.9,60.7 129.5,60.7 130.1,60.7 130.7,60.7 131.4,60.7 132.0,60.7 132.6,60.7 133.2,60.7 133.8,60.7 134.5,60.7 135.1,60.7 135.7,60.7 136.3,60.7 136.9,60.7 137.6,60.7 138.2,60.7 138.8,161.8 139.4,161.8 140.0,161.8 140.7,161.8 141.3,161.8 141.9,161.8 142.5,161.8 143.1,161.8 143.8,161.8 144.4,161.8 145.0,161.8 145.6,161.8 146.2,161.8 146.9,161.8 147.5,161.8 148.1,161.8 148.7,161.8 149.3,161.8 150.0,161.8 150.6,161.8 151.2,224.1 151.8,224.1 152.4,224.1 153.1,224.1 153.7,224.1 154.3,224.1 154.9,224.1 155.5,224.1 156.2,224.1 156.8,224.1 157.4,224.1 158.0,224.1 158.6,224.1 159.3,224.1 159.9,224.1 160.5,224.1 161.1,224.1 161.7,224.1 162.4,224.1 163.0,224.1 163.6,199.3 164.2,199.3 164.8,199.3 165.5,199.3 166.1,199.3 166.7,199.3 167.3,199.3 167.9,199.3 168.6,199.3 169.2,199.3 169.8,199.3 170.4,199.3 171.0,199.3 171.7,199.3 172.3,199.3 172.9,199.3 173.5,199.3 174.1,199.3 174.8,199.3 175.4,199.3 176.0,188.7 176.6,188.7 177.2,188.7 177.9,188.7 178.5,188.7 179.1,188.7 179.7,188.7 180.3,188.7 181.0,188.7 181.6,188.7 182.2,188.7 182.8,188.7 183.4,188.7 184.1,188.7 184.7,188.7 185.3,188.7 185.9,188.7 186.5,188.7 187.2,188.7 187.8,188.7 188.4,112.5 189.0,112.5 189.6,112.5 190.3,112.5 190.9,112.5 191.5,112.5 192.1,112.5 192.7,112.5 193.4,112.5 194.0,112.5 194.6,112.5 195.2,112.5 195.8,112.5 196.5,112.5 197.1,112.5 197.7,112.5 198.3,112.5 198.9,112.5 199.6,112.5 200.2,112.5 200.8,172.5 201.4,172.5 202.0,172.5 202.7,172.5 203.3,172.5 203.9,172.5 204.5,172.5 205.1,172.5 205.8,172.5 206.4,172.5 207.0,172.5 207.6,172.5 208.2,172.5 208.9,172.5 209.5,172.5 210.1,172.5 210.7,172.5 211.3,172.5 212.0,172.5 212.6,172.5 213.2,153.8 213.8,153.8 214.4,153.8 215.1,153.8 215.7,153.8 216.3,153.8 216.9,153.8 217.5,153.8 218.2,153.8 218.8,153.8 219.4,153.8 220.0,153.8 220.6,153.8 221.3,153.8 221.9,153.8 222.5,153.8 223.1,153.8 223.7,153.8 224.4,153.8 225.0,153.8 225.6,162.7 226.2,162.7 226.8,162.7 227.5,162.7 228.1,162.7 228.7,162.7 229.3,162.7 229.9,162.7 230.6,162.7 231.2,162.7 231.8,162.7 232.4,162.7 233.0,162.7 233.7,162.7 234.3,162.7 234.9,162.7 235.5,162.7 236.1,162.7 236.8,162.7 237.4,162.7 238.0,149.5 238.6,149.5 239.2,149.5 239.9,149.5 240.5,149.5 241.1,149.5 241.7,149.5 242.3,149.5 243.0,149.5 243.6,149.5 244.2,149.5 244.8,149.5 245.4,149.5 246.1,149.5 246.7,149.5 247.3,149.5 247.9,149.5 248.5,149.5 249.2,149.5 249.8,149.5 250.4,149.7 251.0,149.7 251.6,149.7 252.3,149.7 252.9,149.7 253.5,149.7 254.1,149.7 254.7,149.7 255.4,149.7 256.0,149.7 256.6,149.7 257.2,149.7 257.8,149.7 258.5,149.7 259.1,149.7 259.7,149.7 260.3,149.7 260.9,149.7 261.6,149.7 262.2,149.7 262.8,135.4 263.4,135.4 264.0,135.4 264.7,135.4 265.3,135.4 265.9,135.4 266.5,135.4 267.1,135.4 267.8,135.4 268.4,135.4 269.0,135.4 269.6,135.4 270.2,135.4 270.9,135.4 271.5,135.4 272.1,135.4 272.7,135.4 273.3,135.4 274.0,135.4 274.6,135.4 275.2,157.1 275.8,157.1 276.4,157.1 277.1,157.1 277.7,157.1 278.3,157.1 278.9,157.1 279.5,157.1 280.2,157.1 280.8,157.1 281.4,157.1 282.0,157.1 282.6,157.1 283.3,157.1 283.9,157.1 284.5,157.1 285.1,157.1 285.7,157.1 286.4,157.1 287.0,157.1 287.6,151.3 288.2,151.3 288.8,151.3 289.5,151.3 290.1,151.3 290.7,151.3 291.3,151.3 291.9,151.3 292.6,151.3 293.2,151.3 293.8,151.3 294.4,151.3 295.0,151.3 295.7,151.3 296.3,151.3 296.9,151.3 297.5,151.3 298.1,151.3 298.8,151.3 299.4,151.3 300.0,119.3 300.6,119.3 301.2,119.3 301.9,119.3 302.5,119.3 303.1,119.3 303.7,119.3 304.3,119.3 305.0,119.3 305.6,119.3 306.2,119.3 306.8,119.3 307.4,119.3 308.1,119.3 308.7,119.3 309.3,119.3 309.9,119.3 310.5,119.3 311.2,119.3 311.8,119.3 312.4,111.4 313.0,111.4 313.6,111.4 314.3,111.4 314.9,111.4 315.5,111.4 316.1,111.4 316.7,111.4 317.4,111.4 318.0,111.4 318.6,111.4 319.2,111.4 319.8,111.4 320.5,111.4 321.1,111.4 321.7,111.4 322.3,111.4 322.9,111.4 323.6,111.4 324.2,111.4 324.8,104.0 325.4,104.0 326.0,104.0 326.7,104.0 327.3,104.0 327.9,104.0 328.5,104.0 329.1,104.0 329.8,104.0 330.4,104.0 331.0,104.0 331.6,104.0 332.2,104.0 332.9,104.0 333.5,104.0 334.1,104.0 334.7,104.0 335.3,104.0 336.0,104.0 336.6,104.0 337.2,88.7 337.8,88.7 338.4,88.7 339.1,88.7 339.7,88.7 340.3,88.7 340.9,88.7 341.5,88.7 342.2,88.7 342.8,88.7 343.4,88.7 344.0,88.7 344.6,88.7 345.3,88.7 345.9,88.7 346.5,88.7 347.1,88.7 347.7,88.7 348.4,88.7 349.0,88.7 349.6,94.2 350.2,94.2 350.8,94.2 351.5,94.2 352.1,94.2 352.7,94.2 353.3,94.2 353.9,94.2 354.6,94.2 355.2,94.2 355.8,94.2 356.4,94.2 357.0,94.2 357.7,94.2 358.3,94.2 358.9,94.2 359.5,94.2 360.1,94.2 360.8,94.2 361.4,94.2 362.0,96.8 362.6,96.8 363.2,96.8 363.9,96.8 364.5,96.8 365.1,96.8 365.7,96.8 366.3,96.8 367.0,96.8 367.6,96.8 368.2,96.8 368.8,96.8 369.4,96.8 370.1,96.8 370.7,96.8 371.3,96.8 371.9,96.8 372.5,96.8 373.2,96.8 373.8,96.8 374.4,101.9 375.0,101.9 375.6,101.9 376.3,101.9 376.9,101.9 377.5,101.9 378.1,101.9 378.7,101.9 379.4,101.9 380.0,101.9 380.6,101.9 381.2,101.9 381.8,101.9 382.5,101.9 383.1,101.9 383.7,101.9 384.3,101.9 384.9,101.9 385.6,101.9 386.2,101.9 386.8,102.8 387.4,102.8 388.0,102.8 388.7,102.8 389.3,102.8 389.9,102.8 390.5,102.8 391.1,102.8 391.8,102.8 392.4,102.8 393.0,102.8 393.6,102.8 394.2,102.8 394.9,102.8 395.5,102.8 396.1,102.8 396.7,102.8 397.3,102.8 398.0,102.8 398.6,102.8 399.2,102.8 399.8,102.8 400.4,102.8 401.1,102.8 401.7,102.8 402.3,102.8 402.9,102.8 403.5,102.8 404.2,102.8 404.8,102.8 405.4,102.8 406.0,102.8 406.6,102.8 407.3,102.8 407.9,102.8 408.5,102.8 409.1,102.8 409.7,102.8 410.4,102.8 411.0,102.8 411.6,102.8 412.2,102.8 412.8,102.8 413.5,102.8 414.1,102.8 414.7,102.8 415.3,102.8 415.9,102.8 416.6,102.8 417.2,102.8 417.8,102.8 418.4,102.8 419.0,102.8 419.7,102.8 420.3,102.8 420.9,102.8 421.5,102.8 422.1,102.8 422.8,102.8 423.4,102.8 424.0,102.8 424.6,102.8 425.2,102.8 425.9,102.8 426.5,102.8 427.1,102.8 427.7,102.8 428.3,102.8 429.0,102.8 429.6,102.8 430.2,102.8 430.8,102.8 431.4,102.8 432.1,102.8 432.7,102.8 433.3,102.8 433.9,102.8 434.5,102.8 435.2,102.8 435.8,102.8 436.4,102.8 437.0,102.8 437.6,102.8 438.3,102.8 438.9,102.8 439.5,102.8 440.1,102.8 440.7,102.8 441.4,102.8 442.0,102.8 442.6,102.8 443.2,102.8 443.8,102.8 444.5,102.8 445.1,102.8 445.7,102.8 446.3,102.8 446.9,102.8 447.6,102.8 448.2,102.8 448.8,102.8 449.4,102.8 450.0,102.8 450.7,102.8 451.3,102.8 451.9,102.8 452.5,102.8 453.1,102.8 453.8,102.8 454.4,102.8 455.0,102.8 455.6,102.8 456.2,102.8 456.9,102.8 457.5,102.8 458.1,102.8 458.7,102.8 459.3,102.8 460.0,102.8 460.6,102.8 461.2,102.8 461.8,102.8 462.4,102.8 463.1,102.8 463.7,102.8 464.3,102.8 464.9,102.8 465.5,102.8 466.2,102.8 466.8,102.8 467.4,102.8 468.0,102.8 468.6,102.8 469.3,102.8 469.9,102.8 470.5,102.8 471.1,102.8 471.7,102.8 472.4,102.8 473.0,102.8 473.6,102.8 474.2,102.8 474.8,102.8 475.5,102.8 476.1,102.8 476.7,102.8 477.3,102.8 477.9,102.8 478.6,102.8 479.2,102.8 479.8,102.8 480.4,102.8 481.0,102.8 481.7,102.8 482.3,102.8 482.9,102.8 483.5,102.8 484.1,102.8 484.8,102.8 485.4,102.8 486.0,102.8 486.6,102.8 487.2,102.8 487.9,102.8 488.5,102.8 489.1,102.8 489.7,102.8 490.3,102.8 491.0,102.8 491.6,102.8 492.2,102.8 492.8,102.8 493.4,102.8 494.1,102.8 494.7,102.8 495.3,102.8 495.9,102.8 496.5,102.8 497.2,102.8 497.8,102.8 498.4,102.8 499.0,102.8 499.6,102.8 500.3,102.8 500.9,102.8 501.5,102.8 502.1,102.8 502.7,102.8 503.4,102.8 504.0,102.8 504.6,102.8 505.2,102.8 505.8,102.8 506.5,102.8 507.1,102.8 507.7,102.8 508.3,102.8 508.9,102.8 509.6,102.8 510.2,102.8 510.8,89.0 511.4,89.0 512.0,89.0 512.7,89.0 513.3,89.0 513.9,89.0 514.5,89.0 515.1,89.0 515.8,89.0 516.4,89.0 517.0,89.0 517.6,89.0 518.2,89.0 518.9,89.0 519.5,89.0 520.1,89.0 520.7,89.0 521.3,89.0 522.0,89.0 522.6,89.0 523.2,85.3 523.8,85.3 524.4,85.3 525.1,85.3 525.7,85.3 526.3,85.3 526.9,85.3 527.5,85.3 528.2,85.3 528.8,85.3 529.4,85.3 530.0,85.3 530.6,85.3 531.3,85.3 531.9,85.3 532.5,85.3 533.1,85.3 533.7,85.3 534.4,85.3 535.0,85.3 535.6,90.3 536.2,90.3 536.8,90.3 537.5,90.3 538.1,90.3 538.7,90.3 539.3,90.3 539.9,90.3 540.6,90.3 541.2,90.3 541.8,90.3 542.4,90.3 543.0,90.3 543.7,90.3 544.3,90.3 544.9,90.3 545.5,90.3 546.1,90.3 546.8,90.3 547.4,90.3 548.0,87.5 548.6,87.5 549.2,87.5 549.9,87.5 550.5,87.5 551.1,87.5 551.7,87.5 552.3,87.5 553.0,87.5 553.6,87.5 554.2,87.5 554.8,87.5 555.4,87.5 556.1,87.5 556.7,87.5 557.3,87.5 557.9,87.5 558.5,87.5 559.2,87.5 559.8,87.5 560.4,83.5 561.0,83.5 561.6,83.5 562.3,83.5 562.9,83.5 563.5,83.5 564.1,83.5 564.7,83.5 565.4,83.5 566.0,83.5 566.6,83.5 567.2,83.5 567.8,83.5 568.5,83.5 569.1,83.5 569.7,83.5 570.3,83.5 570.9,83.5 571.6,83.5 572.2,83.5 572.8,91.5 573.4,91.5 574.0,91.5 574.7,91.5 575.3,91.5 575.9,91.5 576.5,91.5 577.1,91.5 577.8,91.5 578.4,91.5 579.0,91.5 579.6,91.5 580.2,91.5 580.9,91.5 581.5,91.5 582.1,91.5 582.7,91.5 583.3,91.5 584.0,91.5 584.6,91.5 585.2,91.5 585.8,91.5 586.4,91.5 587.1,91.5 587.7,91.5 588.3,91.5 588.9,91.5 589.5,91.5 590.2,91.5 590.8,91.5 591.4,91.5 592.0,91.5 592.6,91.5 593.3,91.5 593.9,91.5 594.5,91.5 595.1,91.5 595.7,91.5 596.4,91.5 597.0,91.5 597.6,83.6 598.2,83.6 598.8,83.6 599.5,83.6 600.1,83.6 600.7,83.6 601.3,83.6 601.9,83.6 602.6,83.6 603.2,83.6 603.8,83.6 604.4,83.6 605.0,83.6 605.7,83.6 606.3,83.6 606.9,83.6 607.5,83.6 608.1,83.6 608.8,83.6 609.4,83.6 610.0,80.2 610.6,80.2 611.2,80.2 611.9,80.2 612.5,80.2 613.1,80.2 613.7,80.2 614.3,80.2 615.0,80.2 615.6,80.2 616.2,80.2 616.8,80.2 617.4,80.2 618.1,80.2 618.7,80.2 619.3,80.2 619.9,80.2 620.5,80.2 621.2,80.2 621.8,80.2 622.4,67.9 623.0,67.9 623.6,67.9 624.3,67.9 624.9,67.9 625.5,67.9 626.1,67.9 626.7,67.9 627.4,67.9 628.0,67.9 628.6,67.9 629.2,67.9 629.8,67.9 630.5,67.9 631.1,67.9 631.7,67.9 632.3,67.9 632.9,67.9 633.6,67.9 634.2,67.9 634.8,71.4 635.4,71.4 636.0,71.4 636.7,71.4 637.3,71.4 637.9,71.4 638.5,71.4 639.1,71.4 639.8,71.4 640.4,71.4 641.0,71.4 641.6,71.4 642.2,71.4 642.9,71.4 643.5,71.4 644.1,71.4 644.7,71.4 645.3,71.4 646.0,71.4 646.6,71.4 647.2,68.2 647.8,68.2 648.4,68.2 649.1,68.2 649.7,68.2 650.3,68.2 650.9,68.2 651.5,68.2 652.2,68.2 652.8,68.2 653.4,68.2 654.0,68.2 654.6,68.2 655.3,68.2 655.9,68.2 656.5,68.2 657.1,68.2 657.7,68.2 658.4,68.2 659.0,68.2 659.6,69.5 660.2,69.5 660.8,69.5 661.5,69.5 662.1,69.5 662.7,69.5 663.3,69.5 663.9,69.5 664.6,69.5 665.2,69.5 665.8,69.5 666.4,69.5 667.0,69.5 667.7,69.5 668.3,69.5 668.9,69.5 669.5,69.5 670.1,69.5 670.8,69.5 671.4,69.5 672.0,66.4 672.6,66.4 673.2,66.4 673.9,66.4 674.5,66.4 675.1,66.4 675.7,66.4 676.3,66.4 677.0,66.4 677.6,66.4 678.2,66.4 678.8,66.4 679.4,66.4 680.1,66.4 680.7,66.4 681.3,66.4 681.9,66.4 682.5,66.4 683.2,66.4 683.8,66.4 684.4,76.0 685.0,76.0 685.6,76.0 686.3,76.0 686.9,76.0 687.5,76.0 688.1,76.0 688.7,76.0 689.4,76.0 690.0,76.0 690.6,76.0 691.2,76.0 691.8,76.0 692.5,76.0 693.1,76.0 693.7,76.0 694.3,76.0 694.9,76.0 695.6,76.0 696.2,76.0 696.8,74.5 697.4,74.5 698.0,74.5 698.7,74.5 699.3,74.5 699.9,74.5 700.5,74.5 701.1,74.5 701.8,74.5 702.4,74.5 703.0,74.5 703.6,74.5 704.2,74.5 704.9,74.5 705.5,74.5 706.1,74.5 706.7,74.5 707.3,74.5 708.0,74.5 708.6,74.5 709.2,73.6 709.8,73.6 710.4,73.6 711.1,73.6 711.7,73.6 712.3,73.6 712.9,73.6 713.5,73.6 714.2,73.6 714.8,73.6 715.4,73.6 716.0,73.6 716.6,73.6 717.3,73.6 717.9,73.6 718.5,73.6 719.1,73.6 719.7,73.6 720.4,73.6 721.0,73.6 721.6,78.4 722.2,78.4 722.8,78.4 723.5,78.4 724.1,78.4 724.7,78.4 725.3,78.4 725.9,78.4 726.6,78.4 727.2,78.4 727.8,78.4 728.4,78.4 729.0,78.4 729.7,78.4 730.3,78.4 730.9,78.4 731.5,78.4 732.1,78.4 732.8,78.4 733.4,78.4 734.0,78.7 734.6,78.7 735.2,78.7 735.9,78.7 736.5,78.7 737.1,78.7 737.7,78.7 738.3,78.7 739.0,78.7 739.6,78.7 740.2,78.7 740.8,78.7 741.4,78.7 742.1,78.7 742.7,78.7 743.3,78.7 743.9,78.7 744.5,78.7 745.2,78.7 745.8,78.7 746.4,80.0 747.0,80.0 747.6,80.0 748.3,80.0 748.9,80.0 749.5,80.0 750.1,80.0 750.7,80.0 751.4,80.0 752.0,80.0 752.6,80.0 753.2,80.0 753.8,80.0 754.5,80.0 755.1,80.0 755.7,80.0 756.3,80.0 756.9,80.0 757.6,80.0 758.2,80.0 758.8,74.5 759.4,74.5 760.0,74.5 760.7,74.5 761.3,74.5 761.9,74.5 762.5,74.5 763.1,74.5 763.8,74.5 764.4,74.5 765.0,74.5 765.6,74.5 766.2,74.5 766.9,74.5 767.5,74.5 768.1,74.5 768.7,74.5 769.3,74.5 770.0,74.5 770.6,74.5 771.2,73.1 771.8,73.1 772.4,73.1 773.1,73.1 773.7,73.1 774.3,73.1 774.9,73.1 775.5,73.1 776.2,73.1 776.8,73.1 777.4,73.1 778.0,73.1 778.6,73.1 779.3,73.1 779.9,73.1 780.5,73.1 781.1,73.1 781.7,73.1 782.4,73.1 783.0,73.1 783.6,76.0 784.2,76.0 784.8,76.0 785.5,76.0 786.1,76.0 786.7,76.0 787.3,76.0 787.9,76.0 788.6,76.0 789.2,76.0 789.8,76.0 790.4,76.0 791.0,76.0 791.7,76.0 792.3,76.0 792.9,76.0 793.5,76.0 794.1,76.0 794.8,76.0 795.4,76.0 796.0,79.8"/>
<text x="640" y="56" font-family="Arial" font-size="12" fill="#0f766e">bax</text>
<polyline fill="none" stroke="#2563eb" stroke-width="2.3" points="52.0,108.5 52.6,108.5 53.2,108.5 53.9,108.5 54.5,108.5 55.1,108.5 55.7,108.5 56.3,108.5 57.0,108.5 57.6,108.5 58.2,108.5 58.8,108.5 59.4,108.5 60.1,108.5 60.7,108.5 61.3,108.5 61.9,108.5 62.5,108.5 63.2,108.5 63.8,108.5 64.4,99.1 65.0,99.1 65.6,99.1 66.3,99.1 66.9,99.1 67.5,99.1 68.1,99.1 68.7,99.1 69.4,99.1 70.0,99.1 70.6,99.1 71.2,99.1 71.8,99.1 72.5,99.1 73.1,99.1 73.7,99.1 74.3,99.1 74.9,99.1 75.6,99.1 76.2,99.1 76.8,110.2 77.4,110.2 78.0,110.2 78.7,110.2 79.3,110.2 79.9,110.2 80.5,110.2 81.1,110.2 81.8,110.2 82.4,110.2 83.0,110.2 83.6,110.2 84.2,110.2 84.9,110.2 85.5,110.2 86.1,110.2 86.7,110.2 87.3,110.2 88.0,110.2 88.6,110.2 89.2,173.6 89.8,173.6 90.4,173.6 91.1,173.6 91.7,173.6 92.3,173.6 92.9,173.6 93.5,173.6 94.2,173.6 94.8,173.6 95.4,173.6 96.0,173.6 96.6,173.6 97.3,173.6 97.9,173.6 98.5,173.6 99.1,173.6 99.7,173.6 100.4,173.6 101.0,173.6 101.6,145.5 102.2,145.5 102.8,145.5 103.5,145.5 104.1,145.5 104.7,145.5 105.3,145.5 105.9,145.5 106.6,145.5 107.2,145.5 107.8,145.5 108.4,145.5 109.0,145.5 109.7,145.5 110.3,145.5 110.9,145.5 111.5,145.5 112.1,145.5 112.8,145.5 113.4,145.5 114.0,109.3 114.6,109.3 115.2,109.3 115.9,109.3 116.5,109.3 117.1,109.3 117.7,109.3 118.3,109.3 119.0,109.3 119.6,109.3 120.2,109.3 120.8,109.3 121.4,109.3 122.1,109.3 122.7,109.3 123.3,109.3 123.9,109.3 124.5,109.3 125.2,109.3 125.8,109.3 126.4,274.0 127.0,274.0 127.6,274.0 128.3,274.0 128.9,274.0 129.5,274.0 130.1,274.0 130.7,274.0 131.4,274.0 132.0,274.0 132.6,274.0 133.2,274.0 133.8,274.0 134.5,274.0 135.1,274.0 135.7,274.0 136.3,274.0 136.9,274.0 137.6,274.0 138.2,274.0 138.8,266.0 139.4,266.0 140.0,266.0 140.7,266.0 141.3,266.0 141.9,266.0 142.5,266.0 143.1,266.0 143.8,266.0 144.4,266.0 145.0,266.0 145.6,266.0 146.2,266.0 146.9,266.0 147.5,266.0 148.1,266.0 148.7,266.0 149.3,266.0 150.0,266.0 150.6,266.0 151.2,170.0 151.8,170.0 152.4,170.0 153.1,170.0 153.7,170.0 154.3,170.0 154.9,170.0 155.5,170.0 156.2,170.0 156.8,170.0 157.4,170.0 158.0,170.0 158.6,170.0 159.3,170.0 159.9,170.0 160.5,170.0 161.1,170.0 161.7,170.0 162.4,170.0 163.0,170.0 163.6,201.8 164.2,201.8 164.8,201.8 165.5,201.8 166.1,201.8 166.7,201.8 167.3,201.8 167.9,201.8 168.6,201.8 169.2,201.8 169.8,201.8 170.4,201.8 171.0,201.8 171.7,201.8 172.3,201.8 172.9,201.8 173.5,201.8 174.1,201.8 174.8,201.8 175.4,201.8 176.0,157.3 176.6,157.3 177.2,157.3 177.9,157.3 178.5,157.3 179.1,157.3 179.7,157.3 180.3,157.3 181.0,157.3 181.6,157.3 182.2,157.3 182.8,157.3 183.4,157.3 184.1,157.3 184.7,157.3 185.3,157.3 185.9,157.3 186.5,157.3 187.2,157.3 187.8,157.3 188.4,179.3 189.0,179.3 189.6,179.3 190.3,179.3 190.9,179.3 191.5,179.3 192.1,179.3 192.7,179.3 193.4,179.3 194.0,179.3 194.6,179.3 195.2,179.3 195.8,179.3 196.5,179.3 197.1,179.3 197.7,179.3 198.3,179.3 198.9,179.3 199.6,179.3 200.2,179.3 200.8,169.1 201.4,169.1 202.0,169.1 202.7,169.1 203.3,169.1 203.9,169.1 204.5,169.1 205.1,169.1 205.8,169.1 206.4,169.1 207.0,169.1 207.6,169.1 208.2,169.1 208.9,169.1 209.5,169.1 210.1,169.1 210.7,169.1 211.3,169.1 212.0,169.1 212.6,169.1 213.2,151.8 213.8,151.8 214.4,151.8 215.1,151.8 215.7,151.8 216.3,151.8 216.9,151.8 217.5,151.8 218.2,151.8 218.8,151.8 219.4,151.8 220.0,151.8 220.6,151.8 221.3,151.8 221.9,151.8 222.5,151.8 223.1,151.8 223.7,151.8 224.4,151.8 225.0,151.8 225.6,158.5 226.2,158.5 226.8,158.5 227.5,158.5 228.1,158.5 228.7,158.5 229.3,158.5 229.9,158.5 230.6,158.5 231.2,158.5 231.8,158.5 232.4,158.5 233.0,158.5 233.7,158.5 234.3,158.5 234.9,158.5 235.5,158.5 236.1,158.5 236.8,158.5 237.4,158.5 238.0,102.4 238.6,102.4 239.2,102.4 239.9,102.4 240.5,102.4 241.1,102.4 241.7,102.4 242.3,102.4 243.0,102.4 243.6,102.4 244.2,102.4 244.8,102.4 245.4,102.4 246.1,102.4 246.7,102.4 247.3,102.4 247.9,102.4 248.5,102.4 249.2,102.4 249.8,102.4 250.4,113.0 251.0,113.0 251.6,113.0 252.3,113.0 252.9,113.0 253.5,113.0 254.1,113.0 254.7,113.0 255.4,113.0 256.0,113.0 256.6,113.0 257.2,113.0 257.8,113.0 258.5,113.0 259.1,113.0 259.7,113.0 260.3,113.0 260.9,113.0 261.6,113.0 262.2,113.0 262.8,115.5 263.4,115.5 264.0,115.5 264.7,115.5 265.3,115.5 265.9,115.5 266.5,115.5 267.1,115.5 267.8,115.5 268.4,115.5 269.0,115.5 269.6,115.5 270.2,115.5 270.9,115.5 271.5,115.5 272.1,115.5 272.7,115.5 273.3,115.5 274.0,115.5 274.6,115.5 275.2,143.4 275.8,143.4 276.4,143.4 277.1,143.4 277.7,143.4 278.3,143.4 278.9,143.4 279.5,143.4 280.2,143.4 280.8,143.4 281.4,143.4 282.0,143.4 282.6,143.4 283.3,143.4 283.9,143.4 284.5,143.4 285.1,143.4 285.7,143.4 286.4,143.4 287.0,143.4 287.6,141.2 288.2,141.2 288.8,141.2 289.5,141.2 290.1,141.2 290.7,141.2 291.3,141.2 291.9,141.2 292.6,141.2 293.2,141.2 293.8,141.2 294.4,141.2 295.0,141.2 295.7,141.2 296.3,141.2 296.9,141.2 297.5,141.2 298.1,141.2 298.8,141.2 299.4,141.2 300.0,125.8 300.6,125.8 301.2,125.8 301.9,125.8 302.5,125.8 303.1,125.8 303.7,125.8 304.3,125.8 305.0,125.8 305.6,125.8 306.2,125.8 306.8,125.8 307.4,125.8 308.1,125.8 308.7,125.8 309.3,125.8 309.9,125.8 310.5,125.8 311.2,125.8 311.8,125.8 312.4,108.5 313.0,108.5 313.6,108.5 314.3,108.5 314.9,108.5 315.5,108.5 316.1,108.5 316.7,108.5 317.4,108.5 318.0,108.5 318.6,108.5 319.2,108.5 319.8,108.5 320.5,108.5 321.1,108.5 321.7,108.5 322.3,108.5 322.9,108.5 323.6,108.5 324.2,108.5 324.8,107.9 325.4,107.9 326.0,107.9 326.7,107.9 327.3,107.9 327.9,107.9 328.5,107.9 329.1,107.9 329.8,107.9 330.4,107.9 331.0,107.9 331.6,107.9 332.2,107.9 332.9,107.9 333.5,107.9 334.1,107.9 334.7,107.9 335.3,107.9 336.0,107.9 336.6,107.9 337.2,120.3 337.8,120.3 338.4,120.3 339.1,120.3 339.7,120.3 340.3,120.3 340.9,120.3 341.5,120.3 342.2,120.3 342.8,120.3 343.4,120.3 344.0,120.3 344.6,120.3 345.3,120.3 345.9,120.3 346.5,120.3 347.1,120.3 347.7,120.3 348.4,120.3 349.0,120.3 349.6,125.6 350.2,125.6 350.8,125.6 351.5,125.6 352.1,125.6 352.7,125.6 353.3,125.6 353.9,125.6 354.6,125.6 355.2,125.6 355.8,125.6 356.4,125.6 357.0,125.6 357.7,125.6 358.3,125.6 358.9,125.6 359.5,125.6 360.1,125.6 360.8,125.6 361.4,125.6 362.0,122.1 362.6,122.1 363.2,122.1 363.9,122.1 364.5,122.1 365.1,122.1 365.7,122.1 366.3,122.1 367.0,122.1 367.6,122.1 368.2,122.1 368.8,122.1 369.4,122.1 370.1,122.1 370.7,122.1 371.3,122.1 371.9,122.1 372.5,122.1 373.2,122.1 373.8,122.1 374.4,115.2 375.0,115.2 375.6,115.2 376.3,115.2 376.9,115.2 377.5,115.2 378.1,115.2 378.7,115.2 379.4,115.2 380.0,115.2 380.6,115.2 381.2,115.2 381.8,115.2 382.5,115.2 383.1,115.2 383.7,115.2 384.3,115.2 384.9,115.2 385.6,115.2 386.2,115.2 386.8,123.3 387.4,123.3 388.0,123.3 388.7,123.3 389.3,123.3 389.9,123.3 390.5,123.3 391.1,123.3 391.8,123.3 392.4,123.3 393.0,123.3 393.6,123.3 394.2,123.3 394.9,123.3 395.5,123.3 396.1,123.3 396.7,123.3 397.3,123.3 398.0,123.3 398.6,123.3 399.2,123.3 399.8,123.3 400.4,123.3 401.1,123.3 401.7,123.3 402.3,123.3 402.9,123.3 403.5,123.3 404.2,123.3 404.8,123.3 405.4,123.3 406.0,123.3 406.6,123.3 407.3,123.3 407.9,123.3 408.5,123.3 409.1,123.3 409.7,123.3 410.4,123.3 411.0,123.3 411.6,123.3 412.2,123.3 412.8,123.3 413.5,123.3 414.1,123.3 414.7,123.3 415.3,123.3 415.9,123.3 416.6,123.3 417.2,123.3 417.8,123.3 418.4,123.3 419.0,123.3 419.7,123.3 420.3,123.3 420.9,123.3 421.5,123.3 422.1,123.3 422.8,123.3 423.4,123.3 424.0,123.3 424.6,123.3 425.2,123.3 425.9,123.3 426.5,123.3 427.1,123.3 427.7,123.3 428.3,123.3 429.0,123.3 429.6,123.3 430.2,123.3 430.8,123.3 431.4,123.3 432.1,123.3 432.7,123.3 433.3,123.3 433.9,123.3 434.5,123.3 435.2,123.3 435.8,123.3 436.4,123.3 437.0,123.3 437.6,123.3 438.3,123.3 438.9,123.3 439.5,123.3 440.1,123.3 440.7,123.3 441.4,123.3 442.0,123.3 442.6,123.3 443.2,123.3 443.8,123.3 444.5,123.3 445.1,123.3 445.7,123.3 446.3,123.3 446.9,123.3 447.6,123.3 448.2,123.3 448.8,123.3 449.4,123.3 450.0,123.3 450.7,123.3 451.3,123.3 451.9,123.3 452.5,123.3 453.1,123.3 453.8,123.3 454.4,123.3 455.0,123.3 455.6,123.3 456.2,123.3 456.9,123.3 457.5,123.3 458.1,123.3 458.7,123.3 459.3,123.3 460.0,123.3 460.6,123.3 461.2,123.3 461.8,123.3 462.4,123.3 463.1,123.3 463.7,123.3 464.3,123.3 464.9,123.3 465.5,123.3 466.2,123.3 466.8,123.3 467.4,123.3 468.0,123.3 468.6,123.3 469.3,123.3 469.9,123.3 470.5,123.3 471.1,123.3 471.7,123.3 472.4,123.3 473.0,123.3 473.6,123.3 474.2,123.3 474.8,123.3 475.5,123.3 476.1,123.3 476.7,123.3 477.3,123.3 477.9,123.3 478.6,123.3 479.2,123.3 479.8,123.3 480.4,123.3 481.0,123.3 481.7,123.3 482.3,123.3 482.9,123.3 483.5,123.3 484.1,123.3 484.8,123.3 485.4,123.3 486.0,123.3 486.6,123.3 487.2,123.3 487.9,123.3 488.5,123.3 489.1,123.3 489.7,123.3 490.3,123.3 491.0,123.3 491.6,123.3 492.2,123.3 492.8,123.3 493.4,123.3 494.1,123.3 494.7,123.3 495.3,123.3 495.9,123.3 496.5,123.3 497.2,123.3 497.8,123.3 498.4,123.3 499.0,123.3 499.6,123.3 500.3,123.3 500.9,123.3 501.5,123.3 502.1,123.3 502.7,123.3 503.4,123.3 504.0,123.3 504.6,123.3 505.2,123.3 505.8,123.3 506.5,123.3 507.1,123.3 507.7,123.3 508.3,123.3 508.9,123.3 509.6,123.3 510.2,123.3 510.8,133.4 511.4,133.4 512.0,133.4 512.7,133.4 513.3,133.4 513.9,133.4 514.5,133.4 515.1,133.4 515.8,133.4 516.4,133.4 517.0,133.4 517.6,133.4 518.2,133.4 518.9,133.4 519.5,133.4 520.1,133.4 520.7,133.4 521.3,133.4 522.0,133.4 522.6,133.4 523.2,132.8 523.8,132.8 524.4,132.8 525.1,132.8 525.7,132.8 526.3,132.8 526.9,132.8 527.5,132.8 528.2,132.8 528.8,132.8 529.4,132.8 530.0,132.8 530.6,132.8 531.3,132.8 531.9,132.8 532.5,132.8 533.1,132.8 533.7,132.8 534.4,132.8 535.0,132.8 535.6,128.3 536.2,128.3 536.8,128.3 537.5,128.3 538.1,128.3 538.7,128.3 539.3,128.3 539.9,128.3 540.6,128.3 541.2,128.3 541.8,128.3 542.4,128.3 543.0,128.3 543.7,128.3 544.3,128.3 544.9,128.3 545.5,128.3 546.1,128.3 546.8,128.3 547.4,128.3 548.0,128.8 548.6,128.8 549.2,128.8 549.9,128.8 550.5,128.8 551.1,128.8 551.7,128.8 552.3,128.8 553.0,128.8 553.6,128.8 554.2,128.8 554.8,128.8 555.4,128.8 556.1,128.8 556.7,128.8 557.3,128.8 557.9,128.8 558.5,128.8 559.2,128.8 559.8,128.8 560.4,128.4 561.0,128.4 561.6,128.4 562.3,128.4 562.9,128.4 563.5,128.4 564.1,128.4 564.7,128.4 565.4,128.4 566.0,128.4 566.6,128.4 567.2,128.4 567.8,128.4 568.5,128.4 569.1,128.4 569.7,128.4 570.3,128.4 570.9,128.4 571.6,128.4 572.2,128.4 572.8,134.6 573.4,134.6 574.0,134.6 574.7,134.6 575.3,134.6 575.9,134.6 576.5,134.6 577.1,134.6 577.8,134.6 578.4,134.6 579.0,134.6 579.6,134.6 580.2,134.6 580.9,134.6 581.5,134.6 582.1,134.6 582.7,134.6 583.3,134.6 584.0,134.6 584.6,134.6 585.2,134.6 585.8,134.6 586.4,134.6 587.1,134.6 587.7,134.6 588.3,134.6 588.9,134.6 589.5,134.6 590.2,134.6 590.8,134.6 591.4,134.6 592.0,134.6 592.6,134.6 593.3,134.6 593.9,134.6 594.5,134.6 595.1,134.6 595.7,134.6 596.4,134.6 597.0,134.6 597.6,132.3 598.2,132.3 598.8,132.3 599.5,132.3 600.1,132.3 600.7,132.3 601.3,132.3 601.9,132.3 602.6,132.3 603.2,132.3 603.8,132.3 604.4,132.3 605.0,132.3 605.7,132.3 606.3,132.3 606.9,132.3 607.5,132.3 608.1,132.3 608.8,132.3 609.4,132.3 610.0,146.3 610.6,146.3 611.2,146.3 611.9,146.3 612.5,146.3 613.1,146.3 613.7,146.3 614.3,146.3 615.0,146.3 615.6,146.3 616.2,146.3 616.8,146.3 617.4,146.3 618.1,146.3 618.7,146.3 619.3,146.3 619.9,146.3 620.5,146.3 621.2,146.3 621.8,146.3 622.4,141.9 623.0,141.9 623.6,141.9 624.3,141.9 624.9,141.9 625.5,141.9 626.1,141.9 626.7,141.9 627.4,141.9 628.0,141.9 628.6,141.9 629.2,141.9 629.8,141.9 630.5,141.9 631.1,141.9 631.7,141.9 632.3,141.9 632.9,141.9 633.6,141.9 634.2,141.9 634.8,125.3 635.4,125.3 636.0,125.3 636.7,125.3 637.3,125.3 637.9,125.3 638.5,125.3 639.1,125.3 639.8,125.3 640.4,125.3 641.0,125.3 641.6,125.3 642.2,125.3 642.9,125.3 643.5,125.3 644.1,125.3 644.7,125.3 645.3,125.3 646.0,125.3 646.6,125.3 647.2,131.0 647.8,131.0 648.4,131.0 649.1,131.0 649.7,131.0 650.3,131.0 650.9,131.0 651.5,131.0 652.2,131.0 652.8,131.0 653.4,131.0 654.0,131.0 654.6,131.0 655.3,131.0 655.9,131.0 656.5,131.0 657.1,131.0 657.7,131.0 658.4,131.0 659.0,131.0 659.6,138.5 660.2,138.5 660.8,138.5 661.5,138.5 662.1,138.5 662.7,138.5 663.3,138.5 663.9,138.5 664.6,138.5 665.2,138.5 665.8,138.5 666.4,138.5 667.0,138.5 667.7,138.5 668.3,138.5 668.9,138.5 669.5,138.5 670.1,138.5 670.8,138.5 671.4,138.5 672.0,136.5 672.6,136.5 673.2,136.5 673.9,136.5 674.5,136.5 675.1,136.5 675.7,136.5 676.3,136.5 677.0,136.5 677.6,136.5 678.2,136.5 678.8,136.5 679.4,136.5 680.1,136.5 680.7,136.5 681.3,136.5 681.9,136.5 682.5,136.5 683.2,136.5 683.8,136.5 684.4,131.6 685.0,131.6 685.6,131.6 686.3,131.6 686.9,131.6 687.5,131.6 688.1,131.6 688.7,131.6 689.4,131.6 690.0,131.6 690.6,131.6 691.2,131.6 691.8,131.6 692.5,131.6 693.1,131.6 693.7,131.6 694.3,131.6 694.9,131.6 695.6,131.6 696.2,131.6 696.8,134.0 697.4,134.0 698.0,134.0 698.7,134.0 699.3,134.0 699.9,134.0 700.5,134.0 701.1,134.0 701.8,134.0 702.4,134.0 703.0,134.0 703.6,134.0 704.2,134.0 704.9,134.0 705.5,134.0 706.1,134.0 706.7,134.0 707.3,134.0 708.0,134.0 708.6,134.0 709.2,140.8 709.8,140.8 710.4,140.8 711.1,140.8 711.7,140.8 712.3,140.8 712.9,140.8 713.5,140.8 714.2,140.8 714.8,140.8 715.4,140.8 716.0,140.8 716.6,140.8 717.3,140.8 717.9,140.8 718.5,140.8 719.1,140.8 719.7,140.8 720.4,140.8 721.0,140.8 721.6,139.5 722.2,139.5 722.8,139.5 723.5,139.5 724.1,139.5 724.7,139.5 725.3,139.5 725.9,139.5 726.6,139.5 727.2,139.5 727.8,139.5 728.4,139.5 729.0,139.5 729.7,139.5 730.3,139.5 730.9,139.5 731.5,139.5 732.1,139.5 732.8,139.5 733.4,139.5 734.0,144.3 734.6,144.3 735.2,144.3 735.9,144.3 736.5,144.3 737.1,144.3 737.7,144.3 738.3,144.3 739.0,144.3 739.6,144.3 740.2,144.3 740.8,144.3 741.4,144.3 742.1,144.3 742.7,144.3 743.3,144.3 743.9,144.3 744.5,144.3 745.2,144.3 745.8,144.3 746.4,144.6 747.0,144.6 747.6,144.6 748.3,144.6 748.9,144.6 749.5,144.6 750.1,144.6 750.7,144.6 751.4,144.6 752.0,144.6 752.6,144.6 753.2,144.6 753.8,144.6 754.5,144.6 755.1,144.6 755.7,144.6 756.3,144.6 756.9,144.6 757.6,144.6 758.2,144.6 758.8,138.0 759.4,138.0 760.0,138.0 760.7,138.0 761.3,138.0 761.9,138.0 762.5,138.0 763.1,138.0 763.8,138.0 764.4,138.0 765.0,138.0 765.6,138.0 766.2,138.0 766.9,138.0 767.5,138.0 768.1,138.0 768.7,138.0 769.3,138.0 770.0,138.0 770.6,138.0 771.2,133.4 771.8,133.4 772.4,133.4 773.1,133.4 773.7,133.4 774.3,133.4 774.9,133.4 775.5,133.4 776.2,133.4 776.8,133.4 777.4,133.4 778.0,133.4 778.6,133.4 779.3,133.4 779.9,133.4 780.5,133.4 781.1,133.4 781.7,133.4 782.4,133.4 783.0,133.4 783.6,132.4 784.2,132.4 784.8,132.4 785.5,132.4 786.1,132.4 786.7,132.4 787.3,132.4 787.9,132.4 788.6,132.4 789.2,132.4 789.8,132.4 790.4,132.4 791.0,132.4 791.7,132.4 792.3,132.4 792.9,132.4 793.5,132.4 794.1,132.4 794.8,132.4 795.4,132.4 796.0,129.1"/>
<text x="640" y="72" font-family="Arial" font-size="12" fill="#2563eb">bay</text>
<polyline fill="none" stroke="#b45309" stroke-width="2.3" points="52.0,108.5 52.6,108.5 53.2,108.5 53.9,108.5 54.5,107.3 55.1,107.3 55.7,107.3 56.3,107.3 57.0,113.8 57.6,113.8 58.2,113.8 58.8,113.8 59.4,107.4 60.1,107.4 60.7,107.4 61.3,107.4 61.9,103.2 62.5,103.2 63.2,103.2 63.8,103.2 64.4,105.8 65.0,105.8 65.6,105.8 66.3,105.8 66.9,99.8 67.5,99.8 68.1,99.8 68.7,99.8 69.4,98.1 70.0,98.1 70.6,98.1 71.2,98.1 71.8,106.1 72.5,106.1 73.1,106.1 73.7,106.1 74.3,147.0 74.9,147.0 75.6,147.0 76.2,147.0 76.8,118.6 77.4,118.6 78.0,118.6 78.7,118.6 79.3,106.5 79.9,106.5 80.5,106.5 81.1,106.5 81.8,106.7 82.4,106.7 83.0,106.7 83.6,106.7 84.2,77.3 84.9,77.3 85.5,77.3 86.1,77.3 86.7,42.0 87.3,42.0 88.0,42.0 88.6,42.0 89.2,64.4 89.8,64.4 90.4,64.4 91.1,64.4 91.7,120.5 92.3,120.5 92.9,120.5 93.5,120.5 94.2,113.0 94.8,113.0 95.4,113.0 96.0,113.0 96.6,152.1 97.3,152.1 97.9,152.1 98.5,152.1 99.1,235.5 99.7,235.5 100.4,235.5 101.0,235.5 101.6,235.0 102.2,235.0 102.8,235.0 103.5,235.0 104.1,207.0 104.7,207.0 105.3,207.0 105.9,207.0 106.6,225.2 107.2,225.2 107.8,225.2 108.4,225.2 109.0,131.6 109.7,131.6 110.3,131.6 110.9,131.6 111.5,77.9 112.1,77.9 112.8,77.9 113.4,77.9 114.0,89.3 114.6,89.3 115.2,89.3 115.9,89.3 116.5,119.6 117.1,119.6 117.7,119.6 118.3,119.6 119.0,116.3 119.6,116.3 120.2,116.3 120.8,116.3 121.4,91.8 122.1,91.8 122.7,91.8 123.3,91.8 123.9,71.0 124.5,71.0 125.2,71.0 125.8,71.0 126.4,72.8 127.0,72.8 127.6,72.8 128.3,72.8 128.9,97.4 129.5,97.4 130.1,97.4 130.7,97.4 131.4,66.4 132.0,66.4 132.6,66.4 133.2,66.4 133.8,110.0 134.5,110.0 135.1,110.0 135.7,110.0 136.3,103.3 136.9,103.3 137.6,103.3 138.2,103.3 138.8,109.3 139.4,109.3 140.0,109.3 140.7,109.3 141.3,93.8 141.9,93.8 142.5,93.8 143.1,93.8 143.8,92.0 144.4,92.0 145.0,92.0 145.6,92.0 146.2,92.8 146.9,92.8 147.5,92.8 148.1,92.8 148.7,99.7 149.3,99.7 150.0,99.7 150.6,99.7 151.2,108.2 151.8,108.2 152.4,108.2 153.1,108.2 153.7,125.1 154.3,125.1 154.9,125.1 155.5,125.1 156.2,136.9 156.8,136.9 157.4,136.9 158.0,136.9 158.6,135.7 159.3,135.7 159.9,135.7 160.5,135.7 161.1,128.0 161.7,128.0 162.4,128.0 163.0,128.0 163.6,108.4 164.2,108.4 164.8,108.4 165.5,108.4 166.1,97.0 166.7,97.0 167.3,97.0 167.9,97.0 168.6,88.2 169.2,88.2 169.8,88.2 170.4,88.2 171.0,88.8 171.7,88.8 172.3,88.8 172.9,88.8 173.5,92.9 174.1,92.9 174.8,92.9 175.4,92.9 176.0,94.6 176.6,94.6 177.2,94.6 177.9,94.6 178.5,100.4 179.1,100.4 179.7,100.4 180.3,100.4 181.0,108.0 181.6,108.0 182.2,108.0 182.8,108.0 183.4,102.6 184.1,102.6 184.7,102.6 185.3,102.6 185.9,109.2 186.5,109.2 187.2,109.2 187.8,109.2 188.4,113.3 189.0,113.3 189.6,113.3 190.3,113.3 190.9,108.0 191.5,108.0 192.1,108.0 192.7,108.0 193.4,105.0 194.0,105.0 194.6,105.0 195.2,105.0 195.8,114.0 196.5,114.0 197.1,114.0 197.7,114.0 198.3,106.3 198.9,106.3 199.6,106.3 200.2,106.3 200.8,91.0 201.4,91.0 202.0,91.0 202.7,91.0 203.3,84.9 203.9,84.9 204.5,84.9 205.1,84.9 205.8,87.8 206.4,87.8 207.0,87.8 207.6,87.8 208.2,84.4 208.9,84.4 209.5,84.4 210.1,84.4 210.7,85.6 211.3,85.6 212.0,85.6 212.6,85.6 213.2,83.7 213.8,83.7 214.4,83.7 215.1,83.7 215.7,87.9 216.3,87.9 216.9,87.9 217.5,87.9 218.2,93.9 218.8,93.9 219.4,93.9 220.0,93.9 220.6,93.7 221.3,93.7 221.9,93.7 222.5,93.7 223.1,96.3 223.7,96.3 224.4,96.3 225.0,96.3 225.6,98.8 226.2,98.8 226.8,98.8 227.5,98.8 228.1,100.2 228.7,100.2 229.3,100.2 229.9,100.2 230.6,102.9 231.2,102.9 231.8,102.9 232.4,102.9 233.0,108.2 233.7,108.2 234.3,108.2 234.9,108.2 235.5,108.0 236.1,108.0 236.8,108.0 237.4,108.0 238.0,104.2 238.6,104.2 239.2,104.2 239.9,104.2 240.5,99.9 241.1,99.9 241.7,99.9 242.3,99.9 243.0,101.7 243.6,101.7 244.2,101.7 244.8,101.7 245.4,97.4 246.1,97.4 246.7,97.4 247.3,97.4 247.9,97.4 248.5,97.4 249.2,97.4 249.8,97.4 250.4,92.0 251.0,92.0 251.6,92.0 252.3,92.0 252.9,89.3 253.5,89.3 254.1,89.3 254.7,89.3 255.4,89.7 256.0,89.7 256.6,89.7 257.2,89.7 257.8,89.9 258.5,89.9 259.1,89.9 259.7,89.9 260.3,92.7 260.9,92.7 261.6,92.7 262.2,92.7 262.8,91.0 263.4,91.0 264.0,91.0 264.7,91.0 265.3,84.7 265.9,84.7 266.5,84.7 267.1,84.7 267.8,88.6 268.4,88.6 269.0,88.6 269.6,88.6 270.2,92.2 270.9,92.2 271.5,92.2 272.1,92.2 272.7,90.7 273.3,90.7 274.0,90.7 274.6,90.7 275.2,92.7 275.8,92.7 276.4,92.7 277.1,92.7 277.7,94.7 278.3,94.7 278.9,94.7 279.5,94.7 280.2,89.9 280.8,89.9 281.4,89.9 282.0,89.9 282.6,88.9 283.3,88.9 283.9,88.9 284.5,88.9 285.1,89.6 285.7,89.6 286.4,89.6 287.0,89.6 287.6,85.7 288.2,85.7 288.8,85.7 289.5,85.7 290.1,86.6 290.7,86.6 291.3,86.6 291.9,86.6 292.6,89.9 293.2,89.9 293.8,89.9 294.4,89.9 295.0,90.2 295.7,90.2 296.3,90.2 296.9,90.2 297.5,89.1 298.1,89.1 298.8,89.1 299.4,89.1 300.0,89.2 300.6,89.2 301.2,89.2 301.9,89.2 302.5,91.5 303.1,91.5 303.7,91.5 304.3,91.5 305.0,89.6 305.6,89.6 306.2,89.6 306.8,89.6 307.4,90.0 308.1,90.0 308.7,90.0 309.3,90.0 309.9,94.8 310.5,94.8 311.2,94.8 311.8,94.8 312.4,99.0 313.0,99.0 313.6,99.0 314.3,99.0 314.9,99.1 315.5,99.1 316.1,99.1 316.7,99.1 317.4,97.4 318.0,97.4 318.6,97.4 319.2,97.4 319.8,99.2 320.5,99.2 321.1,99.2 321.7,99.2 322.3,97.6 322.9,97.6 323.6,97.6 324.2,97.6 324.8,101.6 325.4,101.6 326.0,101.6 326.7,101.6 327.3,100.8 327.9,100.8 328.5,100.8 329.1,100.8 329.8,99.6 330.4,99.6 331.0,99.6 331.6,99.6 332.2,97.7 332.9,97.7 333.5,97.7 334.1,97.7 334.7,98.1 335.3,98.1 336.0,98.1 336.6,98.1 337.2,100.1 337.8,100.1 338.4,100.1 339.1,100.1 339.7,100.5 340.3,100.5 340.9,100.5 341.5,100.5 342.2,97.6 342.8,97.6 343.4,97.6 344.0,97.6 344.6,97.6 345.3,97.6 345.9,97.6 346.5,97.6 347.1,95.1 347.7,95.1 348.4,95.1 349.0,95.1 349.6,93.7 350.2,93.7 350.8,93.7 351.5,93.7 352.1,91.8 352.7,91.8 353.3,91.8 353.9,91.8 354.6,94.9 355.2,94.9 355.8,94.9 356.4,94.9 357.0,93.3 357.7,93.3 358.3,93.3 358.9,93.3 359.5,93.2 360.1,93.2 360.8,93.2 361.4,93.2 362.0,91.4 362.6,91.4 363.2,91.4 363.9,91.4 364.5,92.1 365.1,92.1 365.7,92.1 366.3,92.1 367.0,89.4 367.6,89.4 368.2,89.4 368.8,89.4 369.4,88.4 370.1,88.4 370.7,88.4 371.3,88.4 371.9,86.3 372.5,86.3 373.2,86.3 373.8,86.3 374.4,87.1 375.0,87.1 375.6,87.1 376.3,87.1 376.9,87.6 377.5,87.6 378.1,87.6 378.7,87.6 379.4,85.9 380.0,85.9 380.6,85.9 381.2,85.9 381.8,83.3 382.5,83.3 383.1,83.3 383.7,83.3 384.3,87.5 384.9,87.5 385.6,87.5 386.2,87.5 386.8,86.1 387.4,86.1 388.0,86.1 388.7,86.1 389.3,87.3 389.9,87.3 390.5,87.3 391.1,87.3 391.8,87.4 392.4,87.4 393.0,87.4 393.6,87.4 394.2,88.4 394.9,88.4 395.5,88.4 396.1,88.4 396.7,87.6 397.3,87.6 398.0,87.6 398.6,87.6 399.2,86.8 399.8,86.8 400.4,86.8 401.1,86.8 401.7,89.0 402.3,89.0 402.9,89.0 403.5,89.0 404.2,89.4 404.8,89.4 405.4,89.4 406.0,89.4 406.6,90.7 407.3,90.7 407.9,90.7 408.5,90.7 409.1,90.7 409.7,90.7 410.4,90.7 411.0,90.7 411.6,90.9 412.2,90.9 412.8,90.9 413.5,90.9 414.1,87.9 414.7,87.9 415.3,87.9 415.9,87.9 416.6,88.4 417.2,88.4 417.8,88.4 418.4,88.4 419.0,86.8 419.7,86.8 420.3,86.8 420.9,86.8 421.5,84.5 422.1,84.5 422.8,84.5 423.4,84.5 424.0,85.4 424.6,85.4 425.2,85.4 425.9,85.4 426.5,83.9 427.1,83.9 427.7,83.9 428.3,83.9 429.0,83.7 429.6,83.7 430.2,83.7 430.8,83.7 431.4,85.0 432.1,85.0 432.7,85.0 433.3,85.0 433.9,85.8 434.5,85.8 435.2,85.8 435.8,85.8 436.4,85.9 437.0,85.9 437.6,85.9 438.3,85.9 438.9,86.6 439.5,86.6 440.1,86.6 440.7,86.6 441.4,87.3 442.0,87.3 442.6,87.3 443.2,87.3 443.8,85.7 444.5,85.7 445.1,85.7 445.7,85.7 446.3,89.5 446.9,89.5 447.6,89.5 448.2,89.5 448.8,90.6 449.4,90.6 450.0,90.6 450.7,90.6 451.3,90.4 451.9,90.4 452.5,90.4 453.1,90.4 453.8,85.5 454.4,85.5 455.0,85.5 455.6,85.5 456.2,88.2 456.9,88.2 457.5,88.2 458.1,88.2 458.7,89.9 459.3,89.9 460.0,89.9 460.6,89.9 461.2,95.1 461.8,95.1 462.4,95.1 463.1,95.1 463.7,94.0 464.3,94.0 464.9,94.0 465.5,94.0 466.2,95.1 466.8,95.1 467.4,95.1 468.0,95.1 468.6,92.1 469.3,92.1 469.9,92.1 470.5,92.1 471.1,97.0 471.7,97.0 472.4,97.0 473.0,97.0 473.6,96.8 474.2,96.8 474.8,96.8 475.5,96.8 476.1,99.4 476.7,99.4 477.3,99.4 477.9,99.4 478.6,101.2 479.2,101.2 479.8,101.2 480.4,101.2 481.0,102.6 481.7,102.6 482.3,102.6 482.9,102.6 483.5,104.6 484.1,104.6 484.8,104.6 485.4,104.6 486.0,104.6 486.6,104.6 487.2,104.6 487.9,104.6 488.5,102.6 489.1,102.6 489.7,102.6 490.3,102.6 491.0,103.6 491.6,103.6 492.2,103.6 492.8,103.6 493.4,102.0 494.1,102.0 494.7,102.0 495.3,102.0 495.9,106.2 496.5,106.2 497.2,106.2 497.8,106.2 498.4,108.4 499.0,108.4 499.6,108.4 500.3,108.4 500.9,110.8 501.5,110.8 502.1,110.8 502.7,110.8 503.4,107.5 504.0,107.5 504.6,107.5 505.2,107.5 505.8,100.9 506.5,100.9 507.1,100.9 507.7,100.9 508.3,102.3 508.9,102.3 509.6,102.3 510.2,102.3 510.8,94.4 511.4,94.4 512.0,94.4 512.7,94.4 513.3,93.5 513.9,93.5 514.5,93.5 515.1,93.5 515.8,89.5 516.4,89.5 517.0,89.5 517.6,89.5 518.2,86.2 518.9,86.2 519.5,86.2 520.1,86.2 520.7,79.6 521.3,79.6 522.0,79.6 522.6,79.6 523.2,81.6 523.8,81.6 524.4,81.6 525.1,81.6 525.7,85.8 526.3,85.8 526.9,85.8 527.5,85.8 528.2,83.7 528.8,83.7 529.4,83.7 530.0,83.7 530.6,84.0 531.3,84.0 531.9,84.0 532.5,84.0 533.1,83.0 533.7,83.0 534.4,83.0 535.0,83.0 535.6,81.4 536.2,81.4 536.8,81.4 537.5,81.4 538.1,78.5 538.7,78.5 539.3,78.5 539.9,78.5 540.6,75.3 541.2,75.3 541.8,75.3 542.4,75.3 543.0,78.8 543.7,78.8 544.3,78.8 544.9,78.8 545.5,77.0 546.1,77.0 546.8,77.0 547.4,77.0 548.0,76.7 548.6,76.7 549.2,76.7 549.9,76.7 550.5,74.0 551.1,74.0 551.7,74.0 552.3,74.0 553.0,73.8 553.6,73.8 554.2,73.8 554.8,73.8 555.4,81.7 556.1,81.7 556.7,81.7 557.3,81.7 557.9,83.9 558.5,83.9 559.2,83.9 559.8,83.9 560.4,83.6 561.0,83.6 561.6,83.6 562.3,83.6 562.9,82.6 563.5,82.6 564.1,82.6 564.7,82.6 565.4,85.2 566.0,85.2 566.6,85.2 567.2,85.2 567.8,85.9 568.5,85.9 569.1,85.9 569.7,85.9 570.3,87.0 570.9,87.0 571.6,87.0 572.2,87.0 572.8,94.6 573.4,94.6 574.0,94.6 574.7,94.6 575.3,98.4 575.9,98.4 576.5,98.4 577.1,98.4 577.8,97.5 578.4,97.5 579.0,97.5 579.6,97.5 580.2,101.4 580.9,101.4 581.5,101.4 582.1,101.4 582.7,99.2 583.3,99.2 584.0,99.2 584.6,99.2 585.2,100.8 585.8,100.8 586.4,100.8 587.1,100.8 587.7,98.7 588.3,98.7 588.9,98.7 589.5,98.7 590.2,101.9 590.8,101.9 591.4,101.9 592.0,101.9 592.6,100.9 593.3,100.9 593.9,100.9 594.5,100.9 595.1,104.5 595.7,104.5 596.4,104.5 597.0,104.5 597.6,108.6 598.2,108.6 598.8,108.6 599.5,108.6 600.1,104.9 600.7,104.9 601.3,104.9 601.9,104.9 602.6,101.6 603.2,101.6 603.8,101.6 604.4,101.6 605.0,99.0 605.7,99.0 606.3,99.0 606.9,99.0 607.5,100.1 608.1,100.1 608.8,100.1 609.4,100.1 610.0,98.7 610.6,98.7 611.2,98.7 611.9,98.7 612.5,97.4 613.1,97.4 613.7,97.4 614.3,97.4 615.0,97.7 615.6,97.7 616.2,97.7 616.8,97.7 617.4,98.5 618.1,98.5 618.7,98.5 619.3,98.5 619.9,99.0 620.5,99.0 621.2,99.0 621.8,99.0 622.4,98.2 623.0,98.2 623.6,98.2 624.3,98.2 624.9,94.8 625.5,94.8 626.1,94.8 626.7,94.8 627.4,94.3 628.0,94.3 628.6,94.3 629.2,94.3 629.8,92.7 630.5,92.7 631.1,92.7 631.7,92.7 632.3,90.4 632.9,90.4 633.6,90.4 634.2,90.4 634.8,91.0 635.4,91.0 636.0,91.0 636.7,91.0 637.3,87.1 637.9,87.1 638.5,87.1 639.1,87.1 639.8,83.7 640.4,83.7 641.0,83.7 641.6,83.7 642.2,80.6 642.9,80.6 643.5,80.6 644.1,80.6 644.7,84.6 645.3,84.6 646.0,84.6 646.6,84.6 647.2,85.0 647.8,85.0 648.4,85.0 649.1,85.0 649.7,84.6 650.3,84.6 650.9,84.6 651.5,84.6 652.2,83.6 652.8,83.6 653.4,83.6 654.0,83.6 654.6,83.5 655.3,83.5 655.9,83.5 656.5,83.5 657.1,84.5 657.7,84.5 658.4,84.5 659.0,84.5 659.6,84.4 660.2,84.4 660.8,84.4 661.5,84.4 662.1,84.3 662.7,84.3 663.3,84.3 663.9,84.3 664.6,89.1 665.2,89.1 665.8,89.1 666.4,89.1 667.0,90.7 667.7,90.7 668.3,90.7 668.9,90.7 669.5,88.7 670.1,88.7 670.8,88.7 671.4,88.7 672.0,91.3 672.6,91.3 673.2,91.3 673.9,91.3 674.5,91.9 675.1,91.9 675.7,91.9 676.3,91.9 677.0,93.2 677.6,93.2 678.2,93.2 678.8,93.2 679.4,92.7 680.1,92.7 680.7,92.7 681.3,92.7 681.9,93.5 682.5,93.5 683.2,93.5 683.8,93.5 684.4,94.8 685.0,94.8 685.6,94.8 686.3,94.8 686.9,94.4 687.5,94.4 688.1,94.4 688.7,94.4 689.4,94.7 690.0,94.7 690.6,94.7 691.2,94.7 691.8,95.3 692.5,95.3 693.1,95.3 693.7,95.3 694.3,92.4 694.9,92.4 695.6,92.4 696.2,92.4 696.8,92.5 697.4,92.5 698.0,92.5 698.7,92.5 699.3,89.1 699.9,89.1 700.5,89.1 701.1,89.1 701.8,87.2 702.4,87.2 703.0,87.2 703.6,87.2 704.2,91.4 704.9,91.4 705.5,91.4 706.1,91.4 706.7,92.7 707.3,92.7 708.0,92.7 708.6,92.7 709.2,92.3 709.8,92.3 710.4,92.3 711.1,92.3 711.7,93.5 712.3,93.5 712.9,93.5 713.5,93.5 714.2,94.9 714.8,94.9 715.4,94.9 716.0,94.9 716.6,93.7 717.3,93.7 717.9,93.7 718.5,93.7 719.1,94.6 719.7,94.6 720.4,94.6 721.0,94.6 721.6,95.1 722.2,95.1 722.8,95.1 723.5,95.1 724.1,95.9 724.7,95.9 725.3,95.9 725.9,95.9 726.6,94.3 727.2,94.3 727.8,94.3 728.4,94.3 729.0,96.5 729.7,96.5 730.3,96.5 730.9,96.5 731.5,96.4 732.1,96.4 732.8,96.4 733.4,96.4 734.0,96.3 734.6,96.3 735.2,96.3 735.9,96.3 736.5,96.9 737.1,96.9 737.7,96.9 738.3,96.9 739.0,97.0 739.6,97.0 740.2,97.0 740.8,97.0 741.4,97.7 742.1,97.7 742.7,97.7 743.3,97.7 743.9,97.2 744.5,97.2 745.2,97.2 745.8,97.2 746.4,97.8 747.0,97.8 747.6,97.8 748.3,97.8 748.9,98.3 749.5,98.3 750.1,98.3 750.7,98.3 751.4,96.7 752.0,96.7 752.6,96.7 753.2,96.7 753.8,95.1 754.5,95.1 755.1,95.1 755.7,95.1 756.3,93.0 756.9,93.0 757.6,93.0 758.2,93.0 758.8,95.6 759.4,95.6 760.0,95.6 760.7,95.6 761.3,96.5 761.9,96.5 762.5,96.5 763.1,96.5 763.8,95.4 764.4,95.4 765.0,95.4 765.6,95.4 766.2,95.2 766.9,95.2 767.5,95.2 768.1,95.2 768.7,94.1 769.3,94.1 770.0,94.1 770.6,94.1 771.2,94.6 771.8,94.6 772.4,94.6 773.1,94.6 773.7,93.9 774.3,93.9 774.9,93.9 775.5,93.9 776.2,95.9 776.8,95.9 777.4,95.9 778.0,95.9 778.6,91.6 779.3,91.6 779.9,91.6 780.5,91.6 781.1,91.3 781.7,91.3 782.4,91.3 783.0,91.3 783.6,90.8 784.2,90.8 784.8,90.8 785.5,90.8 786.1,92.4 786.7,92.4 787.3,92.4 787.9,92.4 788.6,91.8 789.2,91.8 789.8,91.8 790.4,91.8 791.0,89.6 791.7,89.6 792.3,89.6 792.9,89.6 793.5,91.8 794.1,91.8 794.8,91.8 795.4,91.8 796.0,91.3"/>
<text x="640" y="88" font-family="Arial" font-size="12" fill="#b45309">baz</text>
</svg>