<svg xmlns="http://www.w3.org/2000/svg" width="820" height="320" viewBox="0 0 820 320">
<rect width="100%" height="100%" fill="white"/>
<text x="52" y="30" font-family="Arial" font-size="18" font-weight="700">ekf_aggressive accelerometer bias estimates</text>
<line x1="52" y1="274" x2="796" y2="274" stroke="#263238"/>
<line x1="52" y1="42" x2="52" y2="274" stroke="#263238"/>
<text x="52" y="306" font-family="Arial" font-size="12">time (s)</text>
<text x="630" y="306" font-family="Arial" font-size="12">m/s^2</text>

<polyline fill="none" stroke="#0f766e" stroke-width="2.3" points="52.0,128.6 52.6,128.6 53.2,128.6 53.9,128.6 54.5,128.6 55.1,128.6 55.7,128.6 56.3,128.6 57.0,128.6 57.6,128.6 58.2,128.6 58.8,128.6 59.4,128.6 60.1,128.6 60.7,128.6 61.3,128.6 61.9,128.6 62.5,128.6 63.2,128.6 63.8,128.6 64.4,119.2 65.0,119.2 65.6,119.2 66.3,119.2 66.9,119.2 67.5,119.2 68.1,119.2 68.7,119.2 69.4,119.2 70.0,119.2 70.6,119.2 71.2,119.2 71.8,119.2 72.5,119.2 73.1,119.2 73.7,119.2 74.3,119.2 74.9,119.2 75.6,119.2 76.2,119.2 76.8,134.4 77.4,134.4 78.0,134.4 78.7,134.4 79.3,134.4 79.9,134.4 80.5,134.4 81.1,134.4 81.8,134.4 82.4,134.4 83.0,134.4 83.6,134.4 84.2,134.4 84.9,134.4 85.5,134.4 86.1,134.4 86.7,134.4 87.3,134.4 88.0,134.4 88.6,134.4 89.2,200.4 89.8,200.4 90.4,200.4 91.1,200.4 91.7,200.4 92.3,200.4 92.9,200.4 93.5,200.4 94.2,200.4 94.8,200.4 95.4,200.4 96.0,200.4 96.6,200.4 97.3,200.4 97.9,200.4 98.5,200.4 99.1,200.4 99.7,200.4 100.4,200.4 101.0,200.4 101.6,203.3 102.2,203.3 102.8,203.3 103.5,203.3 104.1,203.3 104.7,203.3 105.3,203.3 105.9,203.3 106.6,203.3 107.2,203.3 107.8,203.3 108.4,203.3 109.0,203.3 109.7,203.3 110.3,203.3 110.9,203.3 111.5,203.3 112.1,203.3 112.8,203.3 113.4,203.3 114.0,95.2 114.6,95.2 115.2,95.2 115.9,95.2 116.5,95.2 117.1,95.2 117.7,95.2 118.3,95.2 119.0,95.2 119.6,95.2 120.2,95.2 120.8,95.2 121.4,95.2 122.1,95.2 122.7,95.2 123.3,95.2 123.9,95.2 124.5,95.2 125.2,95.2 125.8,95.2 126.4,104.7 127.0,104.7 127.6,104.7 128.3,104.7 128.9,104.7 129.5,104.7 130.1,104.7 130.7,104.7 131.4,104.7 132.0,104.7 132.6,104.7 133.2,104.7 133.8,104.7 134.5,104.7 135.1,104.7 135.7,104.7 136.3,104.7 136.9,104.7 137.6,104.7 138.2,104.7 138.8,174.9 139.4,174.9 140.0,174.9 140.7,174.9 141.3,174.9 141.9,174.9 142.5,174.9 143.1,174.9 143.8,174.9 144.4,174.9 145.0,174.9 145.6,174.9 146.2,174.9 146.9,174.9 147.5,174.9 148.1,174.9 148.7,174.9 149.3,174.9 150.0,174.9 150.6,174.9 151.2,203.7 151.8,203.7 152.4,203.7 153.1,203.7 153.7,203.7 154.3,203.7 154.9,203.7 155.5,203.7 156.2,203.7 156.8,203.7 157.4,203.7 158.0,203.7 158.6,203.7 159.3,203.7 159.9,203.7 160.5,203.7 161.1,203.7 161.7,203.7 162.4,203.7 163.0,203.7 163.6,181.5 164.2,181.5 164.8,181.5 165.5,181.5 166.1,181.5 166.7,181.5 167.3,181.5 167.9,181.5 168.6,181.5 169.2,181.5 169.8,181.5 170.4,181.5 171.0,181.5 171.7,181.5 172.3,181.5 172.9,181.5 173.5,181.5 174.1,181.5 174.8,181.5 175.4,181.5 176.0,171.4 176.6,171.4 177.2,171.4 177.9,171.4 178.5,171.4 179.1,171.4 179.7,171.4 180.3,171.4 181.0,171.4 181.6,171.4 182.2,171.4 182.8,171.4 183.4,171.4 184.1,171.4 184.7,171.4 185.3,171.4 185.9,171.4 186.5,171.4 187.2,171.4 187.8,171.4 188.4,133.3 189.0,133.3 189.6,133.3 190.3,133.3 190.9,133.3 191.5,133.3 192.1,133.3 192.7,133.3 193.4,133.3 194.0,133.3 194.6,133.3 195.2,133.3 195.8,133.3 196.5,133.3 197.1,133.3 197.7,133.3 198.3,133.3 198.9,133.3 199.6,133.3 200.2,133.3 200.8,159.3 201.4,159.3 202.0,159.3 202.7,159.3 203.3,159.3 203.9,159.3 204.5,159.3 205.1,159.3 205.8,159.3 206.4,159.3 207.0,159.3 207.6,159.3 208.2,159.3 208.9,159.3 209.5,159.3 210.1,159.3 210.7,159.3 211.3,159.3 212.0,159.3 212.6,159.3 213.2,150.0 213.8,150.0 214.4,150.0 215.1,150.0 215.7,150.0 216.3,150.0 216.9,150.0 217.5,150.0 218.2,150.0 218.8,150.0 219.4,150.0 220.0,150.0 220.6,150.0 221.3,150.0 221.9,150.0 222.5,150.0 223.1,150.0 223.7,150.0 224.4,150.0 225.0,150.0 225.6,153.0 226.2,153.0 226.8,153.0 227.5,153.0 228.1,153.0 228.7,153.0 229.3,153.0 229.9,153.0 230.6,153.0 231.2,153.0 231.8,153.0 232.4,153.0 233.0,153.0 233.7,153.0 234.3,153.0 234.9,153.0 235.5,153.0 236.1,153.0 236.8,153.0 237.4,153.0 238.0,147.0 238.6,147.0 239.2,147.0 239.9,147.0 240.5,147.0 241.1,147.0 241.7,147.0 242.3,147.0 243.0,147.0 243.6,147.0 244.2,147.0 244.8,147.0 245.4,147.0 246.1,147.0 246.7,147.0 247.3,147.0 247.9,147.0 248.5,147.0 249.2,147.0 249.8,147.0 250.4,146.7 251.0,146.7 251.6,146.7 252.3,146.7 252.9,146.7 253.5,146.7 254.1,146.7 254.7,146.7 255.4,146.7 256.0,146.7 256.6,146.7 257.2,146.7 257.8,146.7 258.5,146.7 259.1,146.7 259.7,146.7 260.3,146.7 260.9,146.7 261.6,146.7 262.2,146.7 262.8,140.5 263.4,140.5 264.0,140.5 264.7,140.5 265.3,140.5 265.9,140.5 266.5,140.5 267.1,140.5 267.8,140.5 268.4,140.5 269.0,140.5 269.6,140.5 270.2,140.5 270.9,140.5 271.5,140.5 272.1,140.5 272.7,140.5 273.3,140.5 274.0,140.5 274.6,140.5 275.2,149.1 275.8,149.1 276.4,149.1 277.1,149.1 277.7,149.1 278.3,149.1 278.9,149.1 279.5,149.1 280.2,149.1 280.8,149.1 281.4,149.1 282.0,149.1 282.6,149.1 283.3,149.1 283.9,149.1 284.5,149.1 285.1,149.1 285.7,149.1 286.4,149.1 287.0,149.1 287.6,146.6 288.2,146.6 288.8,146.6 289.5,146.6 290.1,146.6 290.7,146.6 291.3,146.6 291.9,146.6 292.6,146.6 293.2,146.6 293.8,146.6 294.4,146.6 295.0,146.6 295.7,146.6 296.3,146.6 296.9,146.6 297.5,146.6 298.1,146.6 298.8,146.6 299.4,146.6 300.0,133.9 300.6,133.9 301.2,133.9 301.9,133.9 302.5,133.9 303.1,133.9 303.7,133.9 304.3,133.9 305.0,133.9 305.6,133.9 306.2,133.9 306.8,133.9 307.4,133.9 308.1,133.9 308.7,133.9 309.3,133.9 309.9,133.9 310.5,133.9 311.2,133.9 311.8,133.9 312.4,130.6 313.0,130.6 313.6,130.6 314.3,130.6 314.9,130.6 315.5,130.6 316.1,130.6 316.7,130.6 317.4,130.6 318.0,130.6 318.6,130.6 319.2,130.6 319.8,130.6 320.5,130.6 321.1,130.6 321.7,130.6 322.3,130.6 322.9,130.6 323.6,130.6 324.2,130.6 324.8,127.6 325.4,127.6 326.0,127.6 326.7,127.6 327.3,127.6 327.9,127.6 328.5,127.6 329.1,127.6 329.8,127.6 330.4,127.6 331.0,127.6 331.6,127.6 332.2,127.6 332.9,127.6 333.5,127.6 334.1,127.6 334.7,127.6 335.3,127.6 336.0,127.6 336.6,127.6 337.2,121.6 337.8,121.6 338.4,121.6 339.1,121.6 339.7,121.6 340.3,121.6 340.9,121.6 341.5,121.6 342.2,121.6 342.8,121.6 343.4,121.6 344.0,121.6 344.6,121.6 345.3,121.6 345.9,121.6 346.5,121.6 347.1,121.6 347.7,121.6 348.4,121.6 349.0,121.6 349.6,123.4 350.2,123.4 350.8,123.4 351.5,123.4 352.1,123.4 352.7,123.4 353.3,123.4 353.9,123.4 354.6,123.4 355.2,123.4 355.8,123.4 356.4,123.4 357.0,123.4 357.7,123.4 358.3,123.4 358.9,123.4 359.5,123.4 360.1,123.4 360.8,123.4 361.4,123.4 362.0,124.1 362.6,124.1 363.2,124.1 363.9,124.1 364.5,124.1 365.1,124.1 365.7,124.1 366.3,124.1 367.0,124.1 367.6,124.1 368.2,124.1 368.8,124.1 369.4,124.1 370.1,124.1 370.7,124.1 371.3,124.1 371.9,124.1 372.5,124.1 373.2,124.1 373.8,124.1 374.4,125.8 375.0,125.8 375.6,125.8 376.3,125.8 376.9,125.8 377.5,125.8 378.1,125.8 378.7,125.8 379.4,125.8 380.0,125.8 380.6,125.8 381.2,125.8 381.8,125.8 382.5,125.8 383.1,125.8 383.7,125.8 384.3,125.8 384.9,125.8 385.6,125.8 386.2,125.8 386.8,126.0 387.4,126.0 388.0,126.0 388.7,126.0 389.3,126.0 389.9,126.0 390.5,126.0 391.1,126.0 391.8,126.0 392.4,126.0 393.0,126.0 393.6,126.0 394.2,126.0 394.9,126.0 395.5,126.0 396.1,126.0 396.7,126.0 397.3,126.0 398.0,126.0 398.6,126.0 399.2,126.0 399.8,126.0 400.4,126.0 401.1,126.0 401.7,126.0 402.3,126.0 402.9,126.0 403.5,126.0 404.2,126.0 404.8,126.0 405.4,126.0 406.0,126.0 406.6,126.0 407.3,126.0 407.9,126.0 408.5,126.0 409.1,126.0 409.7,126.0 410.4,126.0 411.0,126.0 411.6,126.0 412.2,126.0 412.8,126.0 413.5,126.0 414.1,126.0 414.7,126.0 415.3,126.0 415.9,126.0 416.6,126.0 417.2,126.0 417.8,126.0 418.4,126.0 419.0,126.0 419.7,126.0 420.3,126.0 420.9,126.0 421.5,126.0 422.1,126.0 422.8,126.0 423.4,126.0 424.0,126.0 424.6,126.0 425.2,126.0 425.9,126.0 426.5,126.0 427.1,126.0 427.7,126.0 428.3,126.0 429.0,126.0 429.6,126.0 430.2,126.0 430.8,126.0 431.4,126.0 432.1,126.0 432.7,126.0 433.3,126.0 433.9,126.0 434.5,126.0 435.2,126.0 435.8,126.0 436.4,126.0 437.0,126.0 437.6,126.0 438.3,126.0 438.9,126.0 439.5,126.0 440.1,126.0 440.7,126.0 441.4,126.0 442.0,126.0 442.6,126.0 443.2,126.0 443.8,126.0 444.5,126.0 445.1,126.0 445.7,126.0 446.3,126.0 446.9,126.0 447.6,126.0 448.2,126.0 448.8,126.0 449.4,126.0 450.0,126.0 450.7,126.0 451.3,126.0 451.9,126.0 452.5,126.0 453.1,126.0 453.8,126.0 454.4,126.0 455.0,126.0 455.6,126.0 456.2,126.0 456.9,126.0 457.5,126.0 458.1,126.0 458.7,126.0 459.3,126.0 460.0,126.0 460.6,126.0 461.2,126.0 461.8,126.0 462.4,126.0 463.1,126.0 463.7,126.0 464.3,126.0 464.9,126.0 465.5,126.0 466.2,126.0 466.8,126.0 467.4,126.0 468.0,126.0 468.6,126.0 469.3,126.0 469.9,126.0 470.5,126.0 471.1,126.0 471.7,126.0 472.4,126.0 473.0,126.0 473.6,126.0 474.2,126.0 474.8,126.0 475.5,126.0 476.1,126.0 476.7,126.0 477.3,126.0 477.9,126.0 478.6,126.0 479.2,126.0 479.8,126.0 480.4,126.0 481.0,126.0 481.7,126.0 482.3,126.0 482.9,126.0 483.5,126.0 484.1,126.0 484.8,126.0 485.4,126.0 486.0,126.0 486.6,126.0 487.2,126.0 487.9,126.0 488.5,126.0 489.1,126.0 489.7,126.0 490.3,126.0 491.0,126.0 491.6,126.0 492.2,126.0 492.8,126.0 493.4,126.0 494.1,126.0 494.7,126.0 495.3,126.0 495.9,126.0 496.5,126.0 497.2,126.0 497.8,126.0 498.4,126.0 499.0,126.0 499.6,126.0 500.3,126.0 500.9,126.0 501.5,126.0 502.1,126.0 502.7,126.0 503.4,126.0 504.0,126.0 504.6,126.0 505.2,126.0 505.8,126.0 506.5,126.0 507.1,126.0 507.7,126.0 508.3,126.0 508.9,126.0 509.6,126.0 510.2,126.0 510.8,122.1 511.4,122.1 512.0,122.1 512.7,122.1 513.3,122.1 513.9,122.1 514.5,122.1 515.1,122.1 515.8,122.1 516.4,122.1 517.0,122.1 517.6,122.1 518.2,122.1 518.9,122.1 519.5,122.1 520.1,122.1 520.7,122.1 521.3,122.1 522.0,122.1 522.6,122.1 523.2,120.7 523.8,120.7 524.4,120.7 525.1,120.7 525.7,120.7 526.3,120.7 526.9,120.7 527.5,120.7 528.2,120.7 528.8,120.7 529.4,120.7 530.0,120.7 530.6,120.7 531.3,120.7 531.9,120.7 532.5,120.7 533.1,120.7 533.7,120.7 534.4,120.7 535.0,120.7 535.6,121.3 536.2,121.3 536.8,121.3 537.5,121.3 538.1,121.3 538.7,121.3 539.3,121.3 539.9,121.3 540.6,121.3 541.2,121.3 541.8,121.3 542.4,121.3 543.0,121.3 543.7,121.3 544.3,121.3 544.9,121.3 545.5,121.3 546.1,121.3 546.8,121.3 547.4,121.3 548.0,120.8 548.6,120.8 549.2,120.8 549.9,120.8 550.5,120.8 551.1,120.8 551.7,120.8 552.3,120.8 553.0,120.8 553.6,120.8 554.2,120.8 554.8,120.8 555.4,120.8 556.1,120.8 556.7,120.8 557.3,120.8 557.9,120.8 558.5,120.8 559.2,120.8 559.8,120.8 560.4,120.3 561.0,120.3 561.6,120.3 562.3,120.3 562.9,120.3 563.5,120.3 564.1,120.3 564.7,120.3 565.4,120.3 566.0,120.3 566.6,120.3 567.2,120.3 567.8,120.3 568.5,120.3 569.1,120.3 569.7,120.3 570.3,120.3 570.9,120.3 571.6,120.3 572.2,120.3 572.8,120.9 573.4,120.9 574.0,120.9 574.7,120.9 575.3,120.9 575.9,120.9 576.5,120.9 577.1,120.9 577.8,120.9 578.4,120.9 579.0,120.9 579.6,120.9 580.2,120.9 580.9,120.9 581.5,120.9 582.1,120.9 582.7,120.9 583.3,120.9 584.0,120.9 584.6,120.9 585.2,120.9 585.8,120.9 586.4,120.9 587.1,120.9 587.7,120.9 588.3,120.9 588.9,120.9 589.5,120.9 590.2,120.9 590.8,120.9 591.4,120.9 592.0,120.9 592.6,120.9 593.3,120.9 593.9,120.9 594.5,120.9 595.1,120.9 595.7,120.9 596.4,120.9 597.0,120.9 597.6,120.3 598.2,120.3 598.8,120.3 599.5,120.3 600.1,120.3 600.7,120.3 601.3,120.3 601.9,120.3 602.6,120.3 603.2,120.3 603.8,120.3 604.4,120.3 605.0,120.3 605.7,120.3 606.3,120.3 606.9,120.3 607.5,120.3 608.1,120.3 608.8,120.3 609.4,120.3 610.0,119.9 610.6,119.9 611.2,119.9 611.9,119.9 612.5,119.9 613.1,119.9 613.7,119.9 614.3,119.9 615.0,119.9 615.6,119.9 616.2,119.9 616.8,119.9 617.4,119.9 618.1,119.9 618.7,119.9 619.3,119.9 619.9,119.9 620.5,119.9 621.2,119.9 621.8,119.9 622.4,118.7 623.0,118.7 623.6,118.7 624.3,118.7 624.9,118.7 625.5,118.7 626.1,118.7 626.7,118.7 627.4,118.7 628.0,118.7 628.6,118.7 629.2,118.7 629.8,118.7 630.5,118.7 631.1,118.7 631.7,118.7 632.3,118.7 632.9,118.7 633.6,118.7 634.2,118.7 634.8,118.7 635.4,118.7 636.0,118.7 636.7,118.7 637.3,118.7 637.9,118.7 638.5,118.7 639.1,118.7 639.8,118.7 640.4,118.7 641.0,118.7 641.6,118.7 642.2,118.7 642.9,118.7 643.5,118.7 644.1,118.7 644.7,118.7 645.3,118.7 646.0,118.7 646.6,118.7 647.2,118.2 647.8,118.2 648.4,118.2 649.1,118.2 649.7,118.2 650.3,118.2 650.9,118.2 651.5,118.2 652.2,118.2 652.8,118.2 653.4,118.2 654.0,118.2 654.6,118.2 655.3,118.2 655.9,118.2 656.5,118.2 657.1,118.2 657.7,118.2 658.4,118.2 659.0,118.2 659.6,118.1 660.2,118.1 660.8,118.1 661.5,118.1 662.1,118.1 662.7,118.1 663.3,118.1 663.9,118.1 664.6,118.1 665.2,118.1 665.8,118.1 666.4,118.1 667.0,118.1 667.7,118.1 668.3,118.1 668.9,118.1 669.5,118.1 670.1,118.1 670.8,118.1 671.4,118.1 672.0,117.5 672.6,117.5 673.2,117.5 673.9,117.5 674.5,117.5 675.1,117.5 675.7,117.5 676.3,117.5 677.0,117.5 677.6,117.5 678.2,117.5 678.8,117.5 679.4,117.5 680.1,117.5 680.7,117.5 681.3,117.5 681.9,117.5 682.5,117.5 683.2,117.5 683.8,117.5 684.4,118.1 685.0,118.1 685.6,118.1 686.3,118.1 686.9,118.1 687.5,118.1 688.1,118.1 688.7,118.1 689.4,118.1 690.0,118.1 690.6,118.1 691.2,118.1 691.8,118.1 692.5,118.1 693.1,118.1 693.7,118.1 694.3,118.1 694.9,118.1 695.6,118.1 696.2,118.1 696.8,117.8 697.4,117.8 698.0,117.8 698.7,117.8 699.3,117.8 699.9,117.8 700.5,117.8 701.1,117.8 701.8,117.8 702.4,117.8 703.0,117.8 703.6,117.8 704.2,117.8 704.9,117.8 705.5,117.8 706.1,117.8 706.7,117.8 707.3,117.8 708.0,117.8 708.6,117.8 709.2,117.6 709.8,117.6 710.4,117.6 711.1,117.6 711.7,117.6 712.3,117.6 712.9,117.6 713.5,117.6 714.2,117.6 714.8,117.6 715.4,117.6 716.0,117.6 716.6,117.6 717.3,117.6 717.9,117.6 718.5,117.6 719.1,117.6 719.7,117.6 720.4,117.6 721.0,117.6 721.6,117.8 722.2,117.8 722.8,117.8 723.5,117.8 724.1,117.8 724.7,117.8 725.3,117.8 725.9,117.8 726.6,117.8 727.2,117.8 727.8,117.8 728.4,117.8 729.0,117.8 729.7,117.8 730.3,117.8 730.9,117.8 731.5,117.8 732.1,117.8 732.8,117.8 733.4,117.8 734.0,117.7 734.6,117.7 735.2,117.7 735.9,117.7 736.5,117.7 737.1,117.7 737.7,117.7 738.3,117.7 739.0,117.7 739.6,117.7 740.2,117.7 740.8,117.7 741.4,117.7 742.1,117.7 742.7,117.7 743.3,117.7 743.9,117.7 744.5,117.7 745.2,117.7 745.8,117.7 746.4,117.8 747.0,117.8 747.6,117.8 748.3,117.8 748.9,117.8 749.5,117.8 750.1,117.8 750.7,117.8 751.4,117.8 752.0,117.8 752.6,117.8 753.2,117.8 753.8,117.8 754.5,117.8 755.1,117.8 755.7,117.8 756.3,117.8 756.9,117.8 757.6,117.8 758.2,117.8 758.8,117.2 759.4,117.2 760.0,117.2 760.7,117.2 761.3,117.2 761.9,117.2 762.5,117.2 763.1,117.2 763.8,117.2 764.4,117.2 765.0,117.2 765.6,117.2 766.2,117.2 766.9,117.2 767.5,117.2 768.1,117.2 768.7,117.2 769.3,117.2 770.0,117.2 770.6,117.2 771.2,117.0 771.8,117.0 772.4,117.0 773.1,117.0 773.7,117.0 774.3,117.0 774.9,117.0 775.5,117.0 776.2,117.0 776.8,117.0 777.4,117.0 778.0,117.0 778.6,117.0 779.3,117.0 779.9,117.0 780.5,117.0 781.1,117.0 781.7,117.0 782.4,117.0 783.0,117.0 783.6,117.1 784.2,117.1 784.8,117.1 785.5,117.1 786.1,117.1 786.7,117.1 787.3,117.1 787.9,117.1 788.6,117.1 789.2,117.1 789.8,117.1 790.4,117.1 791.0,117.1 791.7,117.1 792.3,117.1 792.9,117.1 793.5,117.1 794.1,117.1 794.8,117.1 795.4,117.1 796.0,117.3"/>
<text x="640" y="56" font-family="Arial" font-size="12" fill="#0f766e">bax</text>
<polyline fill="none" stroke="#2563eb" stroke-width="2.3" points="52.0,128.6 52.6,128.6 53.2,128.6 53.9,128.6 54.5,128.6 55.1,128.6 55.7,128.6 56.3,128.6 57.0,128.6 57.6,128.6 58.2,128.6 58.8,128.6 59.4,128.6 60.1,128.6 60.7,128.6 61.3,128.6 61.9,128.6 62.5,128.6 63.2,128.6 63.8,128.6 64.4,121.2 65.0,121.2 65.6,121.2 66.3,121.2 66.9,121.2 67.5,121.2 68.1,121.2 68.7,121.2 69.4,121.2 70.0,121.2 70.6,121.2 71.2,121.2 71.8,121.2 72.5,121.2 73.1,121.2 73.7,121.2 74.3,121.2 74.9,121.2 75.6,121.2 76.2,121.2 76.8,139.9 77.4,139.9 78.0,139.9 78.7,139.9 79.3,139.9 79.9,139.9 80.5,139.9 81.1,139.9 81.8,139.9 82.4,139.9 83.0,139.9 83.6,139.9 84.2,139.9 84.9,139.9 85.5,139.9 86.1,139.9 86.7,139.9 87.3,139.9 88.0,139.9 88.6,139.9 89.2,207.6 89.8,207.6 90.4,207.6 91.1,207.6 91.7,207.6 92.3,207.6 92.9,207.6 93.5,207.6 94.2,207.6 94.8,207.6 95.4,207.6 96.0,207.6 96.6,207.6 97.3,207.6 97.9,207.6 98.5,207.6 99.1,207.6 99.7,207.6 100.4,207.6 101.0,207.6 101.6,182.6 102.2,182.6 102.8,182.6 103.5,182.6 104.1,182.6 104.7,182.6 105.3,182.6 105.9,182.6 106.6,182.6 107.2,182.6 107.8,182.6 108.4,182.6 109.0,182.6 109.7,182.6 110.3,182.6 110.9,182.6 111.5,182.6 112.1,182.6 112.8,182.6 113.4,182.6 114.0,149.3 114.6,149.3 115.2,149.3 115.9,149.3 116.5,149.3 117.1,149.3 117.7,149.3 118.3,149.3 119.0,149.3 119.6,149.3 120.2,149.3 120.8,149.3 121.4,149.3 122.1,149.3 122.7,149.3 123.3,149.3 123.9,149.3 124.5,149.3 125.2,149.3 125.8,149.3 126.4,274.0 127.0,274.0 127.6,274.0 128.3,274.0 128.9,274.0 129.5,274.0 130.1,274.0 130.7,274.0 131.4,274.0 132.0,274.0 132.6,274.0 133.2,274.0 133.8,274.0 134.5,274.0 135.1,274.0 135.7,274.0 136.3,274.0 136.9,274.0 137.6,274.0 138.2,274.0 138.8,245.2 139.4,245.2 140.0,245.2 140.7,245.2 141.3,245.2 141.9,245.2 142.5,245.2 143.1,245.2 143.8,245.2 144.4,245.2 145.0,245.2 145.6,245.2 146.2,245.2 146.9,245.2 147.5,245.2 148.1,245.2 148.7,245.2 149.3,245.2 150.0,245.2 150.6,245.2 151.2,172.0 151.8,172.0 152.4,172.0 153.1,172.0 153.7,172.0 154.3,172.0 154.9,172.0 155.5,172.0 156.2,172.0 156.8,172.0 157.4,172.0 158.0,172.0 158.6,172.0 159.3,172.0 159.9,172.0 160.5,172.0 161.1,172.0 161.7,172.0 162.4,172.0 163.0,172.0 163.6,182.4 164.2,182.4 164.8,182.4 165.5,182.4 166.1,182.4 166.7,182.4 167.3,182.4 167.9,182.4 168.6,182.4 169.2,182.4 169.8,182.4 170.4,182.4 171.0,182.4 171.7,182.4 172.3,182.4 172.9,182.4 173.5,182.4 174.1,182.4 174.8,182.4 175.4,182.4 176.0,155.4 176.6,155.4 177.2,155.4 177.9,155.4 178.5,155.4 179.1,155.4 179.7,155.4 180.3,155.4 181.0,155.4 181.6,155.4 182.2,155.4 182.8,155.4 183.4,155.4 184.1,155.4 184.7,155.4 185.3,155.4 185.9,155.4 186.5,155.4 187.2,155.4 187.8,155.4 188.4,163.2 189.0,163.2 189.6,163.2 190.3,163.2 190.9,163.2 191.5,163.2 192.1,163.2 192.7,163.2 193.4,163.2 194.0,163.2 194.6,163.2 195.2,163.2 195.8,163.2 196.5,163.2 197.1,163.2 197.7,163.2 198.3,163.2 198.9,163.2 199.6,163.2 200.2,163.2 200.8,156.8 201.4,156.8 202.0,156.8 202.7,156.8 203.3,156.8 203.9,156.8 204.5,156.8 205.1,156.8 205.8,156.8 206.4,156.8 207.0,156.8 207.6,156.8 208.2,156.8 208.9,156.8 209.5,156.8 210.1,156.8 210.7,156.8 211.3,156.8 212.0,156.8 212.6,156.8 213.2,148.1 213.8,148.1 214.4,148.1 215.1,148.1 215.7,148.1 216.3,148.1 216.9,148.1 217.5,148.1 218.2,148.1 218.8,148.1 219.4,148.1 220.0,148.1 220.6,148.1 221.3,148.1 221.9,148.1 222.5,148.1 223.1,148.1 223.7,148.1 224.4,148.1 225.0,148.1 225.6,150.2 226.2,150.2 226.8,150.2 227.5,150.2 228.1,150.2 228.7,150.2 229.3,150.2 229.9,150.2 230.6,150.2 231.2,150.2 231.8,150.2 232.4,150.2 233.0,150.2 233.7,150.2 234.3,150.2 234.9,150.2 235.5,150.2 236.1,150.2 236.8,150.2 237.4,150.2 238.0,126.3 238.6,126.3 239.2,126.3 239.9,126.3 240.5,126.3 241.1,126.3 241.7,126.3 242.3,126.3 243.0,126.3 243.6,126.3 244.2,126.3 244.8,126.3 245.4,126.3 246.1,126.3 246.7,126.3 247.3,126.3 247.9,126.3 248.5,126.3 249.2,126.3 249.8,126.3 250.4,130.4 251.0,130.4 251.6,130.4 252.3,130.4 252.9,130.4 253.5,130.4 254.1,130.4 254.7,130.4 255.4,130.4 256.0,130.4 256.6,130.4 257.2,130.4 257.8,130.4 258.5,130.4 259.1,130.4 259.7,130.4 260.3,130.4 260.9,130.4 261.6,130.4 262.2,130.4 262.8,131.3 263.4,131.3 264.0,131.3 264.7,131.3 265.3,131.3 265.9,131.3 266.5,131.3 267.1,131.3 267.8,131.3 268.4,131.3 269.0,131.3 269.6,131.3 270.2,131.3 270.9,131.3 271.5,131.3 272.1,131.3 272.7,131.3 273.3,131.3 274.0,131.3 274.6,131.3 275.2,142.5 275.8,142.5 276.4,142.5 277.1,142.5 277.7,142.5 278.3,142.5 278.9,142.5 279.5,142.5 280.2,142.5 280.8,142.5 281.4,142.5 282.0,142.5 282.6,142.5 283.3,142.5 283.9,142.5 284.5,142.5 285.1,142.5 285.7,142.5 286.4,142.5 287.0,142.5 287.6,141.5 288.2,141.5 288.8,141.5 289.5,141.5 290.1,141.5 290.7,141.5 291.3,141.5 291.9,141.5 292.6,141.5 293.2,141.5 293.8,141.5 294.4,141.5 295.0,141.5 295.7,141.5 296.3,141.5 296.9,141.5 297.5,141.5 298.1,141.5 298.8,141.5 299.4,141.5 300.0,135.5 300.6,135.5 301.2,135.5 301.9,135.5 302.5,135.5 303.1,135.5 303.7,135.5 304.3,135.5 305.0,135.5 305.6,135.5 306.2,135.5 306.8,135.5 307.4,135.5 308.1,135.5 308.7,135.5 309.3,135.5 309.9,135.5 310.5,135.5 311.2,135.5 311.8,135.5 312.4,128.7 313.0,128.7 313.6,128.7 314.3,128.7 314.9,128.7 315.5,128.7 316.1,128.7 316.7,128.7 317.4,128.7 318.0,128.7 318.6,128.7 319.2,128.7 319.8,128.7 320.5,128.7 321.1,128.7 321.7,128.7 322.3,128.7 322.9,128.7 323.6,128.7 324.2,128.7 324.8,128.4 325.4,128.4 326.0,128.4 326.7,128.4 327.3,128.4 327.9,128.4 328.5,128.4 329.1,128.4 329.8,128.4 330.4,128.4 331.0,128.4 331.6,128.4 332.2,128.4 332.9,128.4 333.5,128.4 334.1,128.4 334.7,128.4 335.3,128.4 336.0,128.4 336.6,128.4 337.2,132.9 337.8,132.9 338.4,132.9 339.1,132.9 339.7,132.9 340.3,132.9 340.9,132.9 341.5,132.9 342.2,132.9 342.8,132.9 343.4,132.9 344.0,132.9 344.6,132.9 345.3,132.9 345.9,132.9 346.5,132.9 347.1,132.9 347.7,132.9 348.4,132.9 349.0,132.9 349.6,134.9 350.2,134.9 350.8,134.9 351.5,134.9 352.1,134.9 352.7,134.9 353.3,134.9 353.9,134.9 354.6,134.9 355.2,134.9 355.8,134.9 356.4,134.9 357.0,134.9 357.7,134.9 358.3,134.9 358.9,134.9 359.5,134.9 360.1,134.9 360.8,134.9 361.4,134.9 362.0,133.7 362.6,133.7 363.2,133.7 363.9,133.7 364.5,133.7 365.1,133.7 365.7,133.7 366.3,133.7 367.0,133.7 367.6,133.7 368.2,133.7 368.8,133.7 369.4,133.7 370.1,133.7 370.7,133.7 371.3,133.7 371.9,133.7 372.5,133.7 373.2,133.7 373.8,133.7 374.4,131.3 375.0,131.3 375.6,131.3 376.3,131.3 376.9,131.3 377.5,131.3 378.1,131.3 378.7,131.3 379.4,131.3 380.0,131.3 380.6,131.3 381.2,131.3 381.8,131.3 382.5,131.3 383.1,131.3 383.7,131.3 384.3,131.3 384.9,131.3 385.6,131.3 386.2,131.3 386.8,134.0 387.4,134.0 388.0,134.0 388.7,134.0 389.3,134.0 389.9,134.0 390.5,134.0 391.1,134.0 391.8,134.0 392.4,134.0 393.0,134.0 393.6,134.0 394.2,134.0 394.9,134.0 395.5,134.0 396.1,134.0 396.7,134.0 397.3,134.0 398.0,134.0 398.6,134.0 399.2,134.0 399.8,134.0 400.4,134.0 401.1,134.0 401.7,134.0 402.3,134.0 402.9,134.0 403.5,134.0 404.2,134.0 404.8,134.0 405.4,134.0 406.0,134.0 406.6,134.0 407.3,134.0 407.9,134.0 408.5,134.0 409.1,134.0 409.7,134.0 410.4,134.0 411.0,134.0 411.6,134.0 412.2,134.0 412.8,134.0 413.5,134.0 414.1,134.0 414.7,134.0 415.3,134.0 415.9,134.0 416.6,134.0 417.2,134.0 417.8,134.0 418.4,134.0 419.0,134.0 419.7,134.0 420.3,134.0 420.9,134.0 421.5,134.0 422.1,134.0 422.8,134.0 423.4,134.0 424.0,134.0 424.6,134.0 425.2,134.0 425.9,134.0 426.5,134.0 427.1,134.0 427.7,134.0 428.3,134.0 429.0,134.0 429.6,134.0 430.2,134.0 430.8,134.0 431.4,134.0 432.1,134.0 432.7,134.0 433.3,134.0 433.9,134.0 434.5,134.0 435.2,134.0 435.8,134.0 436.4,134.0 437.0,134.0 437.6,134.0 438.3,134.0 438.9,134.0 439.5,134.0 440.1,134.0 440.7,134.0 441.4,134.0 442.0,134.0 442.6,134.0 443.2,134.0 443.8,134.0 444.5,134.0 445.1,134.0 445.7,134.0 446.3,134.0 446.9,134.0 447.6,134.0 448.2,134.0 448.8,134.0 449.4,134.0 450.0,134.0 450.7,134.0 451.3,134.0 451.9,134.0 452.5,134.0 453.1,134.0 453.8,134.0 454.4,134.0 455.0,134.0 455.6,134.0 456.2,134.0 456.9,134.0 457.5,134.0 458.1,134.0 458.7,134.0 459.3,134.0 460.0,134.0 460.6,134.0 461.2,134.0 461.8,134.0 462.4,134.0 463.1,134.0 463.7,134.0 464.3,134.0 464.9,134.0 465.5,134.0 466.2,134.0 466.8,134.0 467.4,134.0 468.0,134.0 468.6,134.0 469.3,134.0 469.9,134.0 470.5,134.0 471.1,134.0 471.7,134.0 472.4,134.0 473.0,134.0 473.6,134.0 474.2,134.0 474.8,134.0 475.5,134.0 476.1,134.0 476.7,134.0 477.3,134.0 477.9,134.0 478.6,134.0 479.2,134.0 479.8,134.0 480.4,134.0 481.0,134.0 481.7,134.0 482.3,134.0 482.9,134.0 483.5,134.0 484.1,134.0 484.8,134.0 485.4,134.0 486.0,134.0 486.6,134.0 487.2,134.0 487.9,134.0 488.5,134.0 489.1,134.0 489.7,134.0 490.3,134.0 491.0,134.0 491.6,134.0 492.2,134.0 492.8,134.0 493.4,134.0 494.1,134.0 494.7,134.0 495.3,134.0 495.9,134.0 496.5,134.0 497.2,134.0 497.8,134.0 498.4,134.0 499.0,134.0 499.6,134.0 500.3,134.0 500.9,134.0 501.5,134.0 502.1,134.0 502.7,134.0 503.4,134.0 504.0,134.0 504.6,134.0 505.2,134.0 505.8,134.0 506.5,134.0 507.1,134.0 507.7,134.0 508.3,134.0 508.9,134.0 509.6,134.0 510.2,134.0 510.8,137.2 511.4,137.2 512.0,137.2 512.7,137.2 513.3,137.2 513.9,137.2 514.5,137.2 515.1,137.2 515.8,137.2 516.4,137.2 517.0,137.2 517.6,137.2 518.2,137.2 518.9,137.2 519.5,137.2 520.1,137.2 520.7,137.2 521.3,137.2 522.0,137.2 522.6,137.2 523.2,137.4 523.8,137.4 524.4,137.4 525.1,137.4 525.7,137.4 526.3,137.4 526.9,137.4 527.5,137.4 528.2,137.4 528.8,137.4 529.4,137.4 530.0,137.4 530.6,137.4 531.3,137.4 531.9,137.4 532.5,137.4 533.1,137.4 533.7,137.4 534.4,137.4 535.0,137.4 535.6,136.7 536.2,136.7 536.8,136.7 537.5,136.7 538.1,136.7 538.7,136.7 539.3,136.7 539.9,136.7 540.6,136.7 541.2,136.7 541.8,136.7 542.4,136.7 543.0,136.7 543.7,136.7 544.3,136.7 544.9,136.7 545.5,136.7 546.1,136.7 546.8,136.7 547.4,136.7 548.0,136.9 548.6,136.9 549.2,136.9 549.9,136.9 550.5,136.9 551.1,136.9 551.7,136.9 552.3,136.9 553.0,136.9 553.6,136.9 554.2,136.9 554.8,136.9 555.4,136.9 556.1,136.9 556.7,136.9 557.3,136.9 557.9,136.9 558.5,136.9 559.2,136.9 559.8,136.9 560.4,136.9 561.0,136.9 561.6,136.9 562.3,136.9 562.9,136.9 563.5,136.9 564.1,136.9 564.7,136.9 565.4,136.9 566.0,136.9 566.6,136.9 567.2,136.9 567.8,136.9 568.5,136.9 569.1,136.9 569.7,136.9 570.3,136.9 570.9,136.9 571.6,136.9 572.2,136.9 572.8,137.5 573.4,137.5 574.0,137.5 574.7,137.5 575.3,137.5 575.9,137.5 576.5,137.5 577.1,137.5 577.8,137.5 578.4,137.5 579.0,137.5 579.6,137.5 580.2,137.5 580.9,137.5 581.5,137.5 582.1,137.5 582.7,137.5 583.3,137.5 584.0,137.5 584.6,137.5 585.2,137.5 585.8,137.5 586.4,137.5 587.1,137.5 587.7,137.5 588.3,137.5 588.9,137.5 589.5,137.5 590.2,137.5 590.8,137.5 591.4,137.5 592.0,137.5 592.6,137.5 593.3,137.5 593.9,137.5 594.5,137.5 595.1,137.5 595.7,137.5 596.4,137.5 597.0,137.5 597.6,137.4 598.2,137.4 598.8,137.4 599.5,137.4 600.1,137.4 600.7,137.4 601.3,137.4 601.9,137.4 602.6,137.4 603.2,137.4 603.8,137.4 604.4,137.4 605.0,137.4 605.7,137.4 606.3,137.4 606.9,137.4 607.5,137.4 608.1,137.4 608.8,137.4 609.4,137.4 610.0,138.6 610.6,138.6 611.2,138.6 611.9,138.6 612.5,138.6 613.1,138.6 613.7,138.6 614.3,138.6 615.0,138.6 615.6,138.6 616.2,138.6 616.8,138.6 617.4,138.6 618.1,138.6 618.7,138.6 619.3,138.6 619.9,138.6 620.5,138.6 621.2,138.6 621.8,138.6 622.4,138.5 623.0,138.5 623.6,138.5 624.3,138.5 624.9,138.5 625.5,138.5 626.1,138.5 626.7,138.5 627.4,138.5 628.0,138.5 628.6,138.5 629.2,138.5 629.8,138.5 630.5,138.5 631.1,138.5 631.7,138.5 632.3,138.5 632.9,138.5 633.6,138.5 634.2,138.5 634.8,137.3 635.4,137.3 636.0,137.3 636.7,137.3 637.3,137.3 637.9,137.3 638.5,137.3 639.1,137.3 639.8,137.3 640.4,137.3 641.0,137.3 641.6,137.3 642.2,137.3 642.9,137.3 643.5,137.3 644.1,137.3 644.7,137.3 645.3,137.3 646.0,137.3 646.6,137.3 647.2,137.7 647.8,137.7 648.4,137.7 649.1,137.7 649.7,137.7 650.3,137.7 650.9,137.7 651.5,137.7 652.2,137.7 652.8,137.7 653.4,137.7 654.0,137.7 654.6,137.7 655.3,137.7 655.9,137.7 656.5,137.7 657.1,137.7 657.7,137.7 658.4,137.7 659.0,137.7 659.6,138.4 660.2,138.4 660.8,138.4 661.5,138.4 662.1,138.4 662.7,138.4 663.3,138.4 663.9,138.4 664.6,138.4 665.2,138.4 665.8,138.4 666.4,138.4 667.0,138.4 667.7,138.4 668.3,138.4 668.9,138.4 669.5,138.4 670.1,138.4 670.8,138.4 671.4,138.4 672.0,138.3 672.6,138.3 673.2,138.3 673.9,138.3 674.5,138.3 675.1,138.3 675.7,138.3 676.3,138.3 677.0,138.3 677.6,138.3 678.2,138.3 678.8,138.3 679.4,138.3 680.1,138.3 680.7,138.3 681.3,138.3 681.9,138.3 682.5,138.3 683.2,138.3 683.8,138.3 684.4,137.9 685.0,137.9 685.6,137.9 686.3,137.9 686.9,137.9 687.5,137.9 688.1,137.9 688.7,137.9 689.4,137.9 690.0,137.9 690.6,137.9 691.2,137.9 691.8,137.9 692.5,137.9 693.1,137.9 693.7,137.9 694.3,137.9 694.9,137.9 695.6,137.9 696.2,137.9 696.8,138.2 697.4,138.2 698.0,138.2 698.7,138.2 699.3,138.2 699.9,138.2 700.5,138.2 701.1,138.2 701.8,138.2 702.4,138.2 703.0,138.2 703.6,138.2 704.2,138.2 704.9,138.2 705.5,138.2 706.1,138.2 706.7,138.2 707.3,138.2 708.0,138.2 708.6,138.2 709.2,138.8 709.8,138.8 710.4,138.8 711.1,138.8 711.7,138.8 712.3,138.8 712.9,138.8 713.5,138.8 714.2,138.8 714.8,138.8 715.4,138.8 716.0,138.8 716.6,138.8 717.3,138.8 717.9,138.8 718.5,138.8 719.1,138.8 719.7,138.8 720.4,138.8 721.0,138.8 721.6,138.8 722.2,138.8 722.8,138.8 723.5,138.8 724.1,138.8 724.7,138.8 725.3,138.8 725.9,138.8 726.6,138.8 727.2,138.8 727.8,138.8 728.4,138.8 729.0,138.8 729.7,138.8 730.3,138.8 730.9,138.8 731.5,138.8 732.1,138.8 732.8,138.8 733.4,138.8 734.0,139.4 734.6,139.4 735.2,139.4 735.9,139.4 736.5,139.4 737.1,139.4 737.7,139.4 738.3,139.4 739.0,139.4 739.6,139.4 740.2,139.4 740.8,139.4 741.4,139.4 742.1,139.4 742.7,139.4 743.3,139.4 743.9,139.4 744.5,139.4 745.2,139.4 745.8,139.4 746.4,139.6 747.0,139.6 747.6,139.6 748.3,139.6 748.9,139.6 749.5,139.6 750.1,139.6 750.7,139.6 751.4,139.6 752.0,139.6 752.6,139.6 753.2,139.6 753.8,139.6 754.5,139.6 755.1,139.6 755.7,139.6 756.3,139.6 756.9,139.6 757.6,139.6 758.2,139.6 758.8,139.1 759.4,139.1 760.0,139.1 760.7,139.1 761.3,139.1 761.9,139.1 762.5,139.1 763.1,139.1 763.8,139.1 764.4,139.1 765.0,139.1 765.6,139.1 766.2,139.1 766.9,139.1 767.5,139.1 768.1,139.1 768.7,139.1 769.3,139.1 770.0,139.1 770.6,139.1 771.2,138.8 771.8,138.8 772.4,138.8 773.1,138.8 773.7,138.8 774.3,138.8 774.9,138.8 775.5,138.8 776.2,138.8 776.8,138.8 777.4,138.8 778.0,138.8 778.6,138.8 779.3,138.8 779.9,138.8 780.5,138.8 781.1,138.8 781.7,138.8 782.4,138.8 783.0,138.8 783.6,138.7 784.2,138.7 784.8,138.7 785.5,138.7 786.1,138.7 786.7,138.7 787.3,138.7 787.9,138.7 788.6,138.7 789.2,138.7 789.8,138.7 790.4,138.7 791.0,138.7 791.7,138.7 792.3,138.7 792.9,138.7 793.5,138.7 794.1,138.7 794.8,138.7 795.4,138.7 796.0,138.4"/>
<text x="640" y="72" font-family="Arial" font-size="12" fill="#2563eb">bay</text>
<polyline fill="none" stroke="#b45309" stroke-width="2.3" points="52.0,128.6 52.6,128.6 53.2,128.6 53.9,128.6 54.5,127.4 55.1,127.4 55.7,127.4 56.3,127.4 57.0,136.4 57.6,136.4 58.2,136.4 58.8,136.4 59.4,125.5 60.1,125.5 60.7,125.5 61.3,125.5 61.9,118.2 62.5,118.2 63.2,118.2 63.8,118.2 64.4,118.6 65.0,118.6 65.6,118.6 66.3,118.6 66.9,109.9 67.5,109.9 68.1,109.9 68.7,109.9 69.4,108.7 70.0,108.7 70.6,108.7 71.2,108.7 71.8,125.0 72.5,125.0 73.1,125.0 73.7,125.0 74.3,197.9 74.9,197.9 75.6,197.9 76.2,197.9 76.8,154.0 77.4,154.0 78.0,154.0 78.7,154.0 79.3,127.5 79.9,127.5 80.5,127.5 81.1,127.5 81.8,123.2 82.4,123.2 83.0,123.2 83.6,123.2 84.2,81.3 84.9,81.3 85.5,81.3 86.1,81.3 86.7,42.0 87.3,42.0 88.0,42.0 88.6,42.0 89.2,66.0 89.8,66.0 90.4,66.0 91.1,66.0 91.7,125.4 92.3,125.4 92.9,125.4 93.5,125.4 94.2,119.6 94.8,119.6 95.4,119.6 96.0,119.6 96.6,150.3 97.3,150.3 97.9,150.3 98.5,150.3 99.1,206.2 99.7,206.2 100.4,206.2 101.0,206.2 101.6,198.8 102.2,198.8 102.8,198.8 103.5,198.8 104.1,178.1 104.7,178.1 105.3,178.1 105.9,178.1 106.6,186.2 107.2,186.2 107.8,186.2 108.4,186.2 109.0,133.8 109.7,133.8 110.3,133.8 110.9,133.8 111.5,106.6 112.1,106.6 112.8,106.6 113.4,106.6 114.0,111.2 114.6,111.2 115.2,111.2 115.9,111.2 116.5,127.4 117.1,127.4 117.7,127.4 118.3,127.4 119.0,126.7 119.6,126.7 120.2,126.7 120.8,126.7 121.4,116.2 122.1,116.2 122.7,116.2 123.3,116.2 123.9,107.6 124.5,107.6 125.2,107.6 125.8,107.6 126.4,108.3 127.0,108.3 127.6,108.3 128.3,108.3 128.9,120.0 129.5,120.0 130.1,120.0 130.7,120.0 131.4,107.1 132.0,107.1 132.6,107.1 133.2,107.1 133.8,126.3 134.5,126.3 135.1,126.3 135.7,126.3 136.3,123.9 136.9,123.9 137.6,123.9 138.2,123.9 138.8,125.6 139.4,125.6 140.0,125.6 140.7,125.6 141.3,119.6 141.9,119.6 142.5,119.6 143.1,119.6 143.8,119.3 144.4,119.3 145.0,119.3 145.6,119.3 146.2,120.0 146.9,120.0 147.5,120.0 148.1,120.0 148.7,123.1 149.3,123.1 150.0,123.1 150.6,123.1 151.2,126.8 151.8,126.8 152.4,126.8 153.1,126.8 153.7,133.8 154.3,133.8 154.9,133.8 155.5,133.8 156.2,138.8 156.8,138.8 157.4,138.8 158.0,138.8 158.6,138.5 159.3,138.5 159.9,138.5 160.5,138.5 161.1,135.6 161.7,135.6 162.4,135.6 163.0,135.6 163.6,128.1 164.2,128.1 164.8,128.1 165.5,128.1 166.1,123.7 166.7,123.7 167.3,123.7 167.9,123.7 168.6,120.3 169.2,120.3 169.8,120.3 170.4,120.3 171.0,120.5 171.7,120.5 172.3,120.5 172.9,120.5 173.5,122.0 174.1,122.0 174.8,122.0 175.4,122.0 176.0,122.6 176.6,122.6 177.2,122.6 177.9,122.6 178.5,124.9 179.1,124.9 179.7,124.9 180.3,124.9 181.0,127.7 181.6,127.7 182.2,127.7 182.8,127.7 183.4,125.8 184.1,125.8 184.7,125.8 185.3,125.8 185.9,128.2 186.5,128.2 187.2,128.2 187.8,128.2 188.4,129.5 189.0,129.5 189.6,129.5 190.3,129.5 190.9,127.7 191.5,127.7 192.1,127.7 192.7,127.7 193.4,126.6 194.0,126.6 194.6,126.6 195.2,126.6 195.8,129.9 196.5,129.9 197.1,129.9 197.7,129.9 198.3,127.3 198.9,127.3 199.6,127.3 200.2,127.3 200.8,122.1 201.4,122.1 202.0,122.1 202.7,122.1 203.3,119.9 203.9,119.9 204.5,119.9 205.1,119.9 205.8,120.8 206.4,120.8 207.0,120.8 207.6,120.8 208.2,119.5 208.9,119.5 209.5,119.5 210.1,119.5 210.7,119.9 211.3,119.9 212.0,119.9 212.6,119.9 213.2,119.1 213.8,119.1 214.4,119.1 215.1,119.1 215.7,120.4 216.3,120.4 216.9,120.4 217.5,120.4 218.2,122.3 218.8,122.3 219.4,122.3 220.0,122.3 220.6,122.3 221.3,122.3 221.9,122.3 222.5,122.3 223.1,123.1 223.7,123.1 224.4,123.1 225.0,123.1 225.6,124.1 226.2,124.1 226.8,124.1 227.5,124.1 228.1,124.5 228.7,124.5 229.3,124.5 229.9,124.5 230.6,125.4 231.2,125.4 231.8,125.4 232.4,125.4 233.0,127.0 233.7,127.0 234.3,127.0 234.9,127.0 235.5,127.0 236.1,127.0 236.8,127.0 237.4,127.0 238.0,126.0 238.6,126.0 239.2,126.0 239.9,126.0 240.5,124.7 241.1,124.7 241.7,124.7 242.3,124.7 243.0,125.3 243.6,125.3 244.2,125.3 244.8,125.3 245.4,124.0 246.1,124.0 246.7,124.0 247.3,124.0 247.9,124.0 248.5,124.0 249.2,124.0 249.8,124.0 250.4,122.4 251.0,122.4 251.6,122.4 252.3,122.4 252.9,121.7 253.5,121.7 254.1,121.7 254.7,121.7 255.4,121.7 256.0,121.7 256.6,121.7 257.2,121.7 257.8,121.7 258.5,121.7 259.1,121.7 259.7,121.7 260.3,122.4 260.9,122.4 261.6,122.4 262.2,122.4 262.8,122.0 263.4,122.0 264.0,122.0 264.7,122.0 265.3,120.3 265.9,120.3 266.5,120.3 267.1,120.3 267.8,121.2 268.4,121.2 269.0,121.2 269.6,121.2 270.2,122.0 270.9,122.0 271.5,122.0 272.1,122.0 272.7,121.6 273.3,121.6 274.0,121.6 274.6,121.6 275.2,122.0 275.8,122.0 276.4,122.0 277.1,122.0 277.7,122.5 278.3,122.5 278.9,122.5 279.5,122.5 280.2,121.3 280.8,121.3 281.4,121.3 282.0,121.3 282.6,121.0 283.3,121.0 283.9,121.0 284.5,121.0 285.1,121.1 285.7,121.1 286.4,121.1 287.0,121.1 287.6,120.2 288.2,120.2 288.8,120.2 289.5,120.2 290.1,120.4 290.7,120.4 291.3,120.4 291.9,120.4 292.6,121.1 293.2,121.1 293.8,121.1 294.4,121.1 295.0,121.1 295.7,121.1 296.3,121.1 296.9,121.1 297.5,120.8 298.1,120.8 298.8,120.8 299.4,120.8 300.0,120.8 300.6,120.8 301.2,120.8 301.9,120.8 302.5,121.2 303.1,121.2 303.7,121.2 304.3,121.2 305.0,120.8 305.6,120.8 306.2,120.8 306.8,120.8 307.4,120.9 308.1,120.9 308.7,120.9 309.3,120.9 309.9,121.9 310.5,121.9 311.2,121.9 311.8,121.9 312.4,122.7 313.0,122.7 313.6,122.7 314.3,122.7 314.9,122.7 315.5,122.7 316.1,122.7 316.7,122.7 317.4,122.5 318.0,122.5 318.6,122.5 319.2,122.5 319.8,122.9 320.5,122.9 321.1,122.9 321.7,122.9 322.3,122.6 322.9,122.6 323.6,122.6 324.2,122.6 324.8,123.5 325.4,123.5 326.0,123.5 326.7,123.5 327.3,123.4 327.9,123.4 328.5,123.4 329.1,123.4 329.8,123.2 330.4,123.2 331.0,123.2 331.6,123.2 332.2,122.9 332.9,122.9 333.5,122.9 334.1,122.9 334.7,123.1 335.3,123.1 336.0,123.1 336.6,123.1 337.2,123.5 337.8,123.5 338.4,123.5 339.1,123.5 339.7,123.7 340.3,123.7 340.9,123.7 341.5,123.7 342.2,123.2 342.8,123.2 343.4,123.2 344.0,123.2 344.6,123.2 345.3,123.2 345.9,123.2 346.5,123.2 347.1,122.8 347.7,122.8 348.4,122.8 349.0,122.8 349.6,122.6 350.2,122.6 350.8,122.6 351.5,122.6 352.1,122.3 352.7,122.3 353.3,122.3 353.9,122.3 354.6,122.8 355.2,122.8 355.8,122.8 356.4,122.8 357.0,122.5 357.7,122.5 358.3,122.5 358.9,122.5 359.5,122.5 360.1,122.5 360.8,122.5 361.4,122.5 362.0,122.2 362.6,122.2 363.2,122.2 363.9,122.2 364.5,122.3 365.1,122.3 365.7,122.3 366.3,122.3 367.0,121.8 367.6,121.8 368.2,121.8 368.8,121.8 369.4,121.7 370.1,121.7 370.7,121.7 371.3,121.7 371.9,121.3 372.5,121.3 373.2,121.3 373.8,121.3 374.4,121.4 375.0,121.4 375.6,121.4 376.3,121.4 376.9,121.4 377.5,121.4 378.1,121.4 378.7,121.4 379.4,121.1 380.0,121.1 380.6,121.1 381.2,121.1 381.8,120.6 382.5,120.6 383.1,120.6 383.7,120.6 384.3,121.2 384.9,121.2 385.6,121.2 386.2,121.2 386.8,120.9 387.4,120.9 388.0,120.9 388.7,120.9 389.3,121.1 389.9,121.1 390.5,121.1 391.1,121.1 391.8,121.0 392.4,121.0 393.0,121.0 393.6,121.0 394.2,121.2 394.9,121.2 395.5,121.2 396.1,121.2 396.7,121.0 397.3,121.0 398.0,121.0 398.6,121.0 399.2,120.9 399.8,120.9 400.4,120.9 401.1,120.9 401.7,121.2 402.3,121.2 402.9,121.2 403.5,121.2 404.2,121.2 404.8,121.2 405.4,121.2 406.0,121.2 406.6,121.3 407.3,121.3 407.9,121.3 408.5,121.3 409.1,121.3 409.7,121.3 410.4,121.3 411.0,121.3 411.6,121.4 412.2,121.4 412.8,121.4 413.5,121.4 414.1,121.0 414.7,121.0 415.3,121.0 415.9,121.0 416.6,121.0 417.2,121.0 417.8,121.0 418.4,121.0 419.0,120.8 419.7,120.8 420.3,120.8 420.9,120.8 421.5,120.4 422.1,120.4 422.8,120.4 423.4,120.4 424.0,120.5 424.6,120.5 425.2,120.5 425.9,120.5 426.5,120.3 427.1,120.3 427.7,120.3 428.3,120.3 429.0,120.2 429.6,120.2 430.2,120.2 430.8,120.2 431.4,120.3 432.1,120.3 432.7,120.3 433.3,120.3 433.9,120.3 434.5,120.3 435.2,120.3 435.8,120.3 436.4,120.3 437.0,120.3 437.6,120.3 438.3,120.3 438.9,120.3 439.5,120.3 440.1,120.3 440.7,120.3 441.4,120.4 442.0,120.4 442.6,120.4 443.2,120.4 443.8,120.2 444.5,120.2 445.1,120.2 445.7,120.2 446.3,120.6 446.9,120.6 447.6,120.6 448.2,120.6 448.8,120.7 449.4,120.7 450.0,120.7 450.7,120.7 451.3,120.7 451.9,120.7 452.5,120.7 453.1,120.7 453.8,120.2 454.4,120.2 455.0,120.2 455.6,120.2 456.2,120.4 456.9,120.4 457.5,120.4 458.1,120.4 458.7,120.6 459.3,120.6 460.0,120.6 460.6,120.6 461.2,121.0 461.8,121.0 462.4,121.0 463.1,121.0 463.7,121.0 464.3,121.0 464.9,121.0 465.5,121.0 466.2,121.1 466.8,121.1 467.4,121.1 468.0,121.1 468.6,120.9 469.3,120.9 469.9,120.9 470.5,120.9 471.1,121.3 471.7,121.3 472.4,121.3 473.0,121.3 473.6,121.3 474.2,121.3 474.8,121.3 475.5,121.3 476.1,121.6 476.7,121.6 477.3,121.6 477.9,121.6 478.6,121.8 479.2,121.8 479.8,121.8 480.4,121.8 481.0,122.0 481.7,122.0 482.3,122.0 482.9,122.0 483.5,122.2 484.1,122.2 484.8,122.2 485.4,122.2 486.0,122.3 486.6,122.3 487.2,122.3 487.9,122.3 488.5,122.2 489.1,122.2 489.7,122.2 490.3,122.2 491.0,122.4 491.6,122.4 492.2,122.4 492.8,122.4 493.4,122.4 494.1,122.4 494.7,122.4 495.3,122.4 495.9,122.7 496.5,122.7 497.2,122.7 497.8,122.7 498.4,122.9 499.0,122.9 499.6,122.9 500.3,122.9 500.9,123.2 501.5,123.2 502.1,123.2 502.7,123.2 503.4,123.1 504.0,123.1 504.6,123.1 505.2,123.1 505.8,122.8 506.5,122.8 507.1,122.8 507.7,122.8 508.3,123.0 508.9,123.0 509.6,123.0 510.2,123.0 510.8,122.5 511.4,122.5 512.0,122.5 512.7,122.5 513.3,122.5 513.9,122.5 514.5,122.5 515.1,122.5 515.8,122.3 516.4,122.3 517.0,122.3 517.6,122.3 518.2,122.1 518.9,122.1 519.5,122.1 520.1,122.1 520.7,121.7 521.3,121.7 522.0,121.7 522.6,121.7 523.2,121.8 523.8,121.8 524.4,121.8 525.1,121.8 525.7,122.0 526.3,122.0 526.9,122.0 527.5,122.0 528.2,121.9 528.8,121.9 529.4,121.9 530.0,121.9 530.6,121.9 531.3,121.9 531.9,121.9 532.5,121.9 533.1,121.8 533.7,121.8 534.4,121.8 535.0,121.8 535.6,121.7 536.2,121.7 536.8,121.7 537.5,121.7 538.1,121.5 538.7,121.5 539.3,121.5 539.9,121.5 540.6,121.2 541.2,121.2 541.8,121.2 542.4,121.2 543.0,121.4 543.7,121.4 544.3,121.4 544.9,121.4 545.5,121.2 546.1,121.2 546.8,121.2 547.4,121.2 548.0,121.1 548.6,121.1 549.2,121.1 549.9,121.1 550.5,120.9 551.1,120.9 551.7,120.9 552.3,120.9 553.0,120.8 553.6,120.8 554.2,120.8 554.8,120.8 555.4,121.2 556.1,121.2 556.7,121.2 557.3,121.2 557.9,121.3 558.5,121.3 559.2,121.3 559.8,121.3 560.4,121.3 561.0,121.3 561.6,121.3 562.3,121.3 562.9,121.2 563.5,121.2 564.1,121.2 564.7,121.2 565.4,121.3 566.0,121.3 566.6,121.3 567.2,121.3 567.8,121.3 568.5,121.3 569.1,121.3 569.7,121.3 570.3,121.4 570.9,121.4 571.6,121.4 572.2,121.4 572.8,121.8 573.4,121.8 574.0,121.8 574.7,121.8 575.3,122.1 575.9,122.1 576.5,122.1 577.1,122.1 577.8,122.1 578.4,122.1 579.0,122.1 579.6,122.1 580.2,122.4 580.9,122.4 581.5,122.4 582.1,122.4 582.7,122.3 583.3,122.3 584.0,122.3 584.6,122.3 585.2,122.4 585.8,122.4 586.4,122.4 587.1,122.4 587.7,122.3 588.3,122.3 588.9,122.3 589.5,122.3 590.2,122.6 590.8,122.6 591.4,122.6 592.0,122.6 592.6,122.5 593.3,122.5 593.9,122.5 594.5,122.5 595.1,122.9 595.7,122.9 596.4,122.9 597.0,122.9 597.6,123.2 598.2,123.2 598.8,123.2 599.5,123.2 600.1,123.0 600.7,123.0 601.3,123.0 601.9,123.0 602.6,122.8 603.2,122.8 603.8,122.8 604.4,122.8 605.0,122.7 605.7,122.7 606.3,122.7 606.9,122.7 607.5,122.8 608.1,122.8 608.8,122.8 609.4,122.8 610.0,122.7 610.6,122.7 611.2,122.7 611.9,122.7 612.5,122.6 613.1,122.6 613.7,122.6 614.3,122.6 615.0,122.7 615.6,122.7 616.2,122.7 616.8,122.7 617.4,122.8 618.1,122.8 618.7,122.8 619.3,122.8 619.9,122.8 620.5,122.8 621.2,122.8 621.8,122.8 622.4,122.8 623.0,122.8 623.6,122.8 624.3,122.8 624.9,122.6 625.5,122.6 626.1,122.6 626.7,122.6 627.4,122.5 628.0,122.5 628.6,122.5 629.2,122.5 629.8,122.4 630.5,122.4 631.1,122.4 631.7,122.4 632.3,122.2 632.9,122.2 633.6,122.2 634.2,122.2 634.8,122.3 635.4,122.3 636.0,122.3 636.7,122.3 637.3,121.9 637.9,121.9 638.5,121.9 639.1,121.9 639.8,121.6 640.4,121.6 641.0,121.6 641.6,121.6 642.2,121.3 642.9,121.3 643.5,121.3 644.1,121.3 644.7,121.6 645.3,121.6 646.0,121.6 646.6,121.6 647.2,121.6 647.8,121.6 648.4,121.6 649.1,121.6 649.7,121.6 650.3,121.6 650.9,121.6 651.5,121.6 652.2,121.4 652.8,121.4 653.4,121.4 654.0,121.4 654.6,121.4 655.3,121.4 655.9,121.4 656.5,121.4 657.1,121.4 657.7,121.4 658.4,121.4 659.0,121.4 659.6,121.4 660.2,121.4 660.8,121.4 661.5,121.4 662.1,121.3 662.7,121.3 663.3,121.3 663.9,121.3 664.6,121.7 665.2,121.7 665.8,121.7 666.4,121.7 667.0,121.8 667.7,121.8 668.3,121.8 668.9,121.8 669.5,121.6 670.1,121.6 670.8,121.6 671.4,121.6 672.0,121.9 672.6,121.9 673.2,121.9 673.9,121.9 674.5,121.9 675.1,121.9 675.7,121.9 676.3,121.9 677.0,122.0 677.6,122.0 678.2,122.0 678.8,122.0 679.4,122.0 680.1,122.0 680.7,122.0 681.3,122.0 681.9,122.0 682.5,122.0 683.2,122.0 683.8,122.0 684.4,122.2 685.0,122.2 685.6,122.2 686.3,122.2 686.9,122.1 687.5,122.1 688.1,122.1 688.7,122.1 689.4,122.2 690.0,122.2 690.6,122.2 691.2,122.2 691.8,122.2 692.5,122.2 693.1,122.2 693.7,122.2 694.3,122.0 694.9,122.0 695.6,122.0 696.2,122.0 696.8,121.9 697.4,121.9 698.0,121.9 698.7,121.9 699.3,121.6 699.9,121.6 700.5,121.6 701.1,121.6 701.8,121.5 702.4,121.5 703.0,121.5 703.6,121.5 704.2,121.8 704.9,121.8 705.5,121.8 706.1,121.8 706.7,121.9 707.3,121.9 708.0,121.9 708.6,121.9 709.2,121.9 709.8,121.9 710.4,121.9 711.1,121.9 711.7,122.0 712.3,122.0 712.9,122.0 713.5,122.0 714.2,122.2 714.8,122.2 715.4,122.2 716.0,122.2 716.6,122.1 717.3,122.1 717.9,122.1 718.5,122.1 719.1,122.2 719.7,122.2 720.4,122.2 721.0,122.2 721.6,122.2 722.2,122.2 722.8,122.2 723.5,122.2 724.1,122.3 724.7,122.3 725.3,122.3 725.9,122.3 726.6,122.2 727.2,122.2 727.8,122.2 728.4,122.2 729.0,122.4 729.7,122.4 730.3,122.4 730.9,122.4 731.5,122.4 732.1,122.4 732.8,122.4 733.4,122.4 734.0,122.4 734.6,122.4 735.2,122.4 735.9,122.4 736.5,122.5 737.1,122.5 737.7,122.5 738.3,122.5 739.0,122.5 739.6,122.5 740.2,122.5 740.8,122.5 741.4,122.6 742.1,122.6 742.7,122.6 743.3,122.6 743.9,122.6 744.5,122.6 745.2,122.6 745.8,122.6 746.4,122.7 747.0,122.7 747.6,122.7 748.3,122.7 748.9,122.8 749.5,122.8 750.1,122.8 750.7,122.8 751.4,122.6 752.0,122.6 752.6,122.6 753.2,122.6 753.8,122.5 754.5,122.5 755.1,122.5 755.7,122.5 756.3,122.3 756.9,122.3 757.6,122.3 758.2,122.3 758.8,122.6 759.4,122.6 760.0,122.6 760.7,122.6 761.3,122.7 761.9,122.7 762.5,122.7 763.1,122.7 763.8,122.6 764.4,122.6 765.0,122.6 765.6,122.6 766.2,122.6 766.9,122.6 767.5,122.6 768.1,122.6 768.7,122.5 769.3,122.5 770.0,122.5 770.6,122.5 771.2,122.6 771.8,122.6 772.4,122.6 773.1,122.6 773.7,122.5 774.3,122.5 774.9,122.5 775.5,122.5 776.2,122.7 776.8,122.7 777.4,122.7 778.0,122.7 778.6,122.3 779.3,122.3 779.9,122.3 780.5,122.3 781.1,122.3 781.7,122.3 782.4,122.3 783.0,122.3 783.6,122.3 784.2,122.3 784.8,122.3 785.5,122.3 786.1,122.4 786.7,122.4 787.3,122.4 787.9,122.4 788.6,122.3 789.2,122.3 789.8,122.3 790.4,122.3 791.0,122.1 791.7,122.1 792.3,122.1 792.9,122.1 793.5,122.3 794.1,122.3 794.8,122.3 795.4,122.3 796.0,122.3"/>
<text x="640" y="88" font-family="Arial" font-size="12" fill="#b45309">baz</text>
</svg>