<svg xmlns="http://www.w3.org/2000/svg" width="820" height="320" viewBox="0 0 820 320">
<rect width="100%" height="100%" fill="white"/>
<text x="52" y="30" font-family="Arial" font-size="18" font-weight="700">ekf_high_bias accelerometer bias estimates</text>
<line x1="52" y1="274" x2="796" y2="274" stroke="#263238"/>
<line x1="52" y1="42" x2="52" y2="274" stroke="#263238"/>
<text x="52" y="306" font-family="Arial" font-size="12">time (s)</text>
<text x="630" y="306" font-family="Arial" font-size="12">m/s^2</text>

<polyline fill="none" stroke="#0f766e" stroke-width="2.3" points="52.0,111.4 52.6,111.4 53.2,111.4 53.9,111.4 54.5,111.4 55.1,111.4 55.7,111.4 56.3,111.4 57.0,111.4 57.6,111.4 58.2,111.4 58.8,111.4 59.4,111.4 60.1,111.4 60.7,111.4 61.3,111.4 61.9,111.4 62.5,111.4 63.2,111.4 63.8,111.4 64.4,97.7 65.0,97.7 65.6,97.7 66.3,97.7 66.9,97.7 67.5,97.7 68.1,97.7 68.7,97.7 69.4,97.7 70.0,97.7 70.6,97.7 71.2,97.7 71.8,97.7 72.5,97.7 73.1,97.7 73.7,97.7 74.3,97.7 74.9,97.7 75.6,97.7 76.2,97.7 76.8,102.0 77.4,102.0 78.0,102.0 78.7,102.0 79.3,102.0 79.9,102.0 80.5,102.0 81.1,102.0 81.8,102.0 82.4,102.0 83.0,102.0 83.6,102.0 84.2,102.0 84.9,102.0 85.5,102.0 86.1,102.0 86.7,102.0 87.3,102.0 88.0,102.0 88.6,102.0 89.2,163.5 89.8,163.5 90.4,163.5 91.1,163.5 91.7,163.5 92.3,163.5 92.9,163.5 93.5,163.5 94.2,163.5 94.8,163.5 95.4,163.5 96.0,163.5 96.6,163.5 97.3,163.5 97.9,163.5 98.5,163.5 99.1,163.5 99.7,163.5 100.4,163.5 101.0,163.5 101.6,172.5 102.2,172.5 102.8,172.5 103.5,172.5 104.1,172.5 104.7,172.5 105.3,172.5 105.9,172.5 106.6,172.5 107.2,172.5 107.8,172.5 108.4,172.5 109.0,172.5 109.7,172.5 110.3,172.5 110.9,172.5 111.5,172.5 112.1,172.5 112.8,172.5 113.4,172.5 114.0,63.1 114.6,63.1 115.2,63.1 115.9,63.1 116.5,63.1 117.1,63.1 117.7,63.1 118.3,63.1 119.0,63.1 119.6,63.1 120.2,63.1 120.8,63.1 121.4,63.1 122.1,63.1 122.7,63.1 123.3,63.1 123.9,63.1 124.5,63.1 125.2,63.1 125.8,63.1 126.4,68.5 127.0,68.5 127.6,68.5 128.3,68.5 128.9,68.5 129.5,68.5 130.1,68.5 130.7,68.5 131.4,68.5 132.0,68.5 132.6,68.5 133.2,68.5 133.8,68.5 134.5,68.5 135.1,68.5 135.7,68.5 136.3,68.5 136.9,68.5 137.6,68.5 138.2,68.5 138.8,165.2 139.4,165.2 140.0,165.2 140.7,165.2 141.3,165.2 141.9,165.2 142.5,165.2 143.1,165.2 143.8,165.2 144.4,165.2 145.0,165.2 145.6,165.2 146.2,165.2 146.9,165.2 147.5,165.2 148.1,165.2 148.7,165.2 149.3,165.2 150.0,165.2 150.6,165.2 151.2,222.0 151.8,222.0 152.4,222.0 153.1,222.0 153.7,222.0 154.3,222.0 154.9,222.0 155.5,222.0 156.2,222.0 156.8,222.0 157.4,222.0 158.0,222.0 158.6,222.0 159.3,222.0 159.9,222.0 160.5,222.0 161.1,222.0 161.7,222.0 162.4,222.0 163.0,222.0 163.6,196.9 164.2,196.9 164.8,196.9 165.5,196.9 166.1,196.9 166.7,196.9 167.3,196.9 167.9,196.9 168.6,196.9 169.2,196.9 169.8,196.9 170.4,196.9 171.0,196.9 171.7,196.9 172.3,196.9 172.9,196.9 173.5,196.9 174.1,196.9 174.8,196.9 175.4,196.9 176.0,185.8 176.6,185.8 177.2,185.8 177.9,185.8 178.5,185.8 179.1,185.8 179.7,185.8 180.3,185.8 181.0,185.8 181.6,185.8 182.2,185.8 182.8,185.8 183.4,185.8 184.1,185.8 184.7,185.8 185.3,185.8 185.9,185.8 186.5,185.8 187.2,185.8 187.8,185.8 188.4,115.7 189.0,115.7 189.6,115.7 190.3,115.7 190.9,115.7 191.5,115.7 192.1,115.7 192.7,115.7 193.4,115.7 194.0,115.7 194.6,115.7 195.2,115.7 195.8,115.7 196.5,115.7 197.1,115.7 197.7,115.7 198.3,115.7 198.9,115.7 199.6,115.7 200.2,115.7 200.8,169.6 201.4,169.6 202.0,169.6 202.7,169.6 203.3,169.6 203.9,169.6 204.5,169.6 205.1,169.6 205.8,169.6 206.4,169.6 207.0,169.6 207.6,169.6 208.2,169.6 208.9,169.6 209.5,169.6 210.1,169.6 210.7,169.6 211.3,169.6 212.0,169.6 212.6,169.6 213.2,152.3 213.8,152.3 214.4,152.3 215.1,152.3 215.7,152.3 216.3,152.3 216.9,152.3 217.5,152.3 218.2,152.3 218.8,152.3 219.4,152.3 220.0,152.3 220.6,152.3 221.3,152.3 221.9,152.3 222.5,152.3 223.1,152.3 223.7,152.3 224.4,152.3 225.0,152.3 225.6,160.0 226.2,160.0 226.8,160.0 227.5,160.0 228.1,160.0 228.7,160.0 229.3,160.0 229.9,160.0 230.6,160.0 231.2,160.0 231.8,160.0 232.4,160.0 233.0,160.0 233.7,160.0 234.3,160.0 234.9,160.0 235.5,160.0 236.1,160.0 236.8,160.0 237.4,160.0 238.0,147.9 238.6,147.9 239.2,147.9 239.9,147.9 240.5,147.9 241.1,147.9 241.7,147.9 242.3,147.9 243.0,147.9 243.6,147.9 244.2,147.9 244.8,147.9 245.4,147.9 246.1,147.9 246.7,147.9 247.3,147.9 247.9,147.9 248.5,147.9 249.2,147.9 249.8,147.9 250.4,147.9 251.0,147.9 251.6,147.9 252.3,147.9 252.9,147.9 253.5,147.9 254.1,147.9 254.7,147.9 255.4,147.9 256.0,147.9 256.6,147.9 257.2,147.9 257.8,147.9 258.5,147.9 259.1,147.9 259.7,147.9 260.3,147.9 260.9,147.9 261.6,147.9 262.2,147.9 262.8,134.7 263.4,134.7 264.0,134.7 264.7,134.7 265.3,134.7 265.9,134.7 266.5,134.7 267.1,134.7 267.8,134.7 268.4,134.7 269.0,134.7 269.6,134.7 270.2,134.7 270.9,134.7 271.5,134.7 272.1,134.7 272.7,134.7 273.3,134.7 274.0,134.7 274.6,134.7 275.2,154.7 275.8,154.7 276.4,154.7 277.1,154.7 277.7,154.7 278.3,154.7 278.9,154.7 279.5,154.7 280.2,154.7 280.8,154.7 281.4,154.7 282.0,154.7 282.6,154.7 283.3,154.7 283.9,154.7 284.5,154.7 285.1,154.7 285.7,154.7 286.4,154.7 287.0,154.7 287.6,149.2 288.2,149.2 288.8,149.2 289.5,149.2 290.1,149.2 290.7,149.2 291.3,149.2 291.9,149.2 292.6,149.2 293.2,149.2 293.8,149.2 294.4,149.2 295.0,149.2 295.7,149.2 296.3,149.2 296.9,149.2 297.5,149.2 298.1,149.2 298.8,149.2 299.4,149.2 300.0,118.7 300.6,118.7 301.2,118.7 301.9,118.7 302.5,118.7 303.1,118.7 303.7,118.7 304.3,118.7 305.0,118.7 305.6,118.7 306.2,118.7 306.8,118.7 307.4,118.7 308.1,118.7 308.7,118.7 309.3,118.7 309.9,118.7 310.5,118.7 311.2,118.7 311.8,118.7 312.4,111.0 313.0,111.0 313.6,111.0 314.3,111.0 314.9,111.0 315.5,111.0 316.1,111.0 316.7,111.0 317.4,111.0 318.0,111.0 318.6,111.0 319.2,111.0 319.8,111.0 320.5,111.0 321.1,111.0 321.7,111.0 322.3,111.0 322.9,111.0 323.6,111.0 324.2,111.0 324.8,103.7 325.4,103.7 326.0,103.7 326.7,103.7 327.3,103.7 327.9,103.7 328.5,103.7 329.1,103.7 329.8,103.7 330.4,103.7 331.0,103.7 331.6,103.7 332.2,103.7 332.9,103.7 333.5,103.7 334.1,103.7 334.7,103.7 335.3,103.7 336.0,103.7 336.6,103.7 337.2,88.0 337.8,88.0 338.4,88.0 339.1,88.0 339.7,88.0 340.3,88.0 340.9,88.0 341.5,88.0 342.2,88.0 342.8,88.0 343.4,88.0 344.0,88.0 344.6,88.0 345.3,88.0 345.9,88.0 346.5,88.0 347.1,88.0 347.7,88.0 348.4,88.0 349.0,88.0 349.6,93.9 350.2,93.9 350.8,93.9 351.5,93.9 352.1,93.9 352.7,93.9 353.3,93.9 353.9,93.9 354.6,93.9 355.2,93.9 355.8,93.9 356.4,93.9 357.0,93.9 357.7,93.9 358.3,93.9 358.9,93.9 359.5,93.9 360.1,93.9 360.8,93.9 361.4,93.9 362.0,97.0 362.6,97.0 363.2,97.0 363.9,97.0 364.5,97.0 365.1,97.0 365.7,97.0 366.3,97.0 367.0,97.0 367.6,97.0 368.2,97.0 368.8,97.0 369.4,97.0 370.1,97.0 370.7,97.0 371.3,97.0 371.9,97.0 372.5,97.0 373.2,97.0 373.8,97.0 374.4,102.9 375.0,102.9 375.6,102.9 376.3,102.9 376.9,102.9 377.5,102.9 378.1,102.9 378.7,102.9 379.4,102.9 380.0,102.9 380.6,102.9 381.2,102.9 381.8,102.9 382.5,102.9 383.1,102.9 383.7,102.9 384.3,102.9 384.9,102.9 385.6,102.9 386.2,102.9 386.8,104.2 387.4,104.2 388.0,104.2 388.7,104.2 389.3,104.2 389.9,104.2 390.5,104.2 391.1,104.2 391.8,104.2 392.4,104.2 393.0,104.2 393.6,104.2 394.2,104.2 394.9,104.2 395.5,104.2 396.1,104.2 396.7,104.2 397.3,104.2 398.0,104.2 398.6,104.2 399.2,104.2 399.8,104.2 400.4,104.2 401.1,104.2 401.7,104.2 402.3,104.2 402.9,104.2 403.5,104.2 404.2,104.2 404.8,104.2 405.4,104.2 406.0,104.2 406.6,104.2 407.3,104.2 407.9,104.2 408.5,104.2 409.1,104.2 409.7,104.2 410.4,104.2 411.0,104.2 411.6,104.2 412.2,104.2 412.8,104.2 413.5,104.2 414.1,104.2 414.7,104.2 415.3,104.2 415.9,104.2 416.6,104.2 417.2,104.2 417.8,104.2 418.4,104.2 419.0,104.2 419.7,104.2 420.3,104.2 420.9,104.2 421.5,104.2 422.1,104.2 422.8,104.2 423.4,104.2 424.0,104.2 424.6,104.2 425.2,104.2 425.9,104.2 426.5,104.2 427.1,104.2 427.7,104.2 428.3,104.2 429.0,104.2 429.6,104.2 430.2,104.2 430.8,104.2 431.4,104.2 432.1,104.2 432.7,104.2 433.3,104.2 433.9,104.2 434.5,104.2 435.2,104.2 435.8,104.2 436.4,104.2 437.0,104.2 437.6,104.2 438.3,104.2 438.9,104.2 439.5,104.2 440.1,104.2 440.7,104.2 441.4,104.2 442.0,104.2 442.6,104.2 443.2,104.2 443.8,104.2 444.5,104.2 445.1,104.2 445.7,104.2 446.3,104.2 446.9,104.2 447.6,104.2 448.2,104.2 448.8,104.2 449.4,104.2 450.0,104.2 450.7,104.2 451.3,104.2 451.9,104.2 452.5,104.2 453.1,104.2 453.8,104.2 454.4,104.2 455.0,104.2 455.6,104.2 456.2,104.2 456.9,104.2 457.5,104.2 458.1,104.2 458.7,104.2 459.3,104.2 460.0,104.2 460.6,104.2 461.2,104.2 461.8,104.2 462.4,104.2 463.1,104.2 463.7,104.2 464.3,104.2 464.9,104.2 465.5,104.2 466.2,104.2 466.8,104.2 467.4,104.2 468.0,104.2 468.6,104.2 469.3,104.2 469.9,104.2 470.5,104.2 471.1,104.2 471.7,104.2 472.4,104.2 473.0,104.2 473.6,104.2 474.2,104.2 474.8,104.2 475.5,104.2 476.1,104.2 476.7,104.2 477.3,104.2 477.9,104.2 478.6,104.2 479.2,104.2 479.8,104.2 480.4,104.2 481.0,104.2 481.7,104.2 482.3,104.2 482.9,104.2 483.5,104.2 484.1,104.2 484.8,104.2 485.4,104.2 486.0,104.2 486.6,104.2 487.2,104.2 487.9,104.2 488.5,104.2 489.1,104.2 489.7,104.2 490.3,104.2 491.0,104.2 491.6,104.2 492.2,104.2 492.8,104.2 493.4,104.2 494.1,104.2 494.7,104.2 495.3,104.2 495.9,104.2 496.5,104.2 497.2,104.2 497.8,104.2 498.4,104.2 499.0,104.2 499.6,104.2 500.3,104.2 500.9,104.2 501.5,104.2 502.1,104.2 502.7,104.2 503.4,104.2 504.0,104.2 504.6,104.2 505.2,104.2 505.8,104.2 506.5,104.2 507.1,104.2 507.7,104.2 508.3,104.2 508.9,104.2 509.6,104.2 510.2,104.2 510.8,88.4 511.4,88.4 512.0,88.4 512.7,88.4 513.3,88.4 513.9,88.4 514.5,88.4 515.1,88.4 515.8,88.4 516.4,88.4 517.0,88.4 517.6,88.4 518.2,88.4 518.9,88.4 519.5,88.4 520.1,88.4 520.7,88.4 521.3,88.4 522.0,88.4 522.6,88.4 523.2,83.6 523.8,83.6 524.4,83.6 525.1,83.6 525.7,83.6 526.3,83.6 526.9,83.6 527.5,83.6 528.2,83.6 528.8,83.6 529.4,83.6 530.0,83.6 530.6,83.6 531.3,83.6 531.9,83.6 532.5,83.6 533.1,83.6 533.7,83.6 534.4,83.6 535.0,83.6 535.6,90.4 536.2,90.4 536.8,90.4 537.5,90.4 538.1,90.4 538.7,90.4 539.3,90.4 539.9,90.4 540.6,90.4 541.2,90.4 541.8,90.4 542.4,90.4 543.0,90.4 543.7,90.4 544.3,90.4 544.9,90.4 545.5,90.4 546.1,90.4 546.8,90.4 547.4,90.4 548.0,87.0 548.6,87.0 549.2,87.0 549.9,87.0 550.5,87.0 551.1,87.0 551.7,87.0 552.3,87.0 553.0,87.0 553.6,87.0 554.2,87.0 554.8,87.0 555.4,87.0 556.1,87.0 556.7,87.0 557.3,87.0 557.9,87.0 558.5,87.0 559.2,87.0 559.8,87.0 560.4,82.2 561.0,82.2 561.6,82.2 562.3,82.2 562.9,82.2 563.5,82.2 564.1,82.2 564.7,82.2 565.4,82.2 566.0,82.2 566.6,82.2 567.2,82.2 567.8,82.2 568.5,82.2 569.1,82.2 569.7,82.2 570.3,82.2 570.9,82.2 571.6,82.2 572.2,82.2 572.8,93.3 573.4,93.3 574.0,93.3 574.7,93.3 575.3,93.3 575.9,93.3 576.5,93.3 577.1,93.3 577.8,93.3 578.4,93.3 579.0,93.3 579.6,93.3 580.2,93.3 580.9,93.3 581.5,93.3 582.1,93.3 582.7,93.3 583.3,93.3 584.0,93.3 584.6,93.3 585.2,93.3 585.8,93.3 586.4,93.3 587.1,93.3 587.7,93.3 588.3,93.3 588.9,93.3 589.5,93.3 590.2,93.3 590.8,93.3 591.4,93.3 592.0,93.3 592.6,93.3 593.3,93.3 593.9,93.3 594.5,93.3 595.1,93.3 595.7,93.3 596.4,93.3 597.0,93.3 597.6,84.1 598.2,84.1 598.8,84.1 599.5,84.1 600.1,84.1 600.7,84.1 601.3,84.1 601.9,84.1 602.6,84.1 603.2,84.1 603.8,84.1 604.4,84.1 605.0,84.1 605.7,84.1 606.3,84.1 606.9,84.1 607.5,84.1 608.1,84.1 608.8,84.1 609.4,84.1 610.0,80.6 610.6,80.6 611.2,80.6 611.9,80.6 612.5,80.6 613.1,80.6 613.7,80.6 614.3,80.6 615.0,80.6 615.6,80.6 616.2,80.6 616.8,80.6 617.4,80.6 618.1,80.6 618.7,80.6 619.3,80.6 619.9,80.6 620.5,80.6 621.2,80.6 621.8,80.6 622.4,65.7 623.0,65.7 623.6,65.7 624.3,65.7 624.9,65.7 625.5,65.7 626.1,65.7 626.7,65.7 627.4,65.7 628.0,65.7 628.6,65.7 629.2,65.7 629.8,65.7 630.5,65.7 631.1,65.7 631.7,65.7 632.3,65.7 632.9,65.7 633.6,65.7 634.2,65.7 634.8,71.2 635.4,71.2 636.0,71.2 636.7,71.2 637.3,71.2 637.9,71.2 638.5,71.2 639.1,71.2 639.8,71.2 640.4,71.2 641.0,71.2 641.6,71.2 642.2,71.2 642.9,71.2 643.5,71.2 644.1,71.2 644.7,71.2 645.3,71.2 646.0,71.2 646.6,71.2 647.2,67.9 647.8,67.9 648.4,67.9 649.1,67.9 649.7,67.9 650.3,67.9 650.9,67.9 651.5,67.9 652.2,67.9 652.8,67.9 653.4,67.9 654.0,67.9 654.6,67.9 655.3,67.9 655.9,67.9 656.5,67.9 657.1,67.9 657.7,67.9 658.4,67.9 659.0,67.9 659.6,70.4 660.2,70.4 660.8,70.4 661.5,70.4 662.1,70.4 662.7,70.4 663.3,70.4 663.9,70.4 664.6,70.4 665.2,70.4 665.8,70.4 666.4,70.4 667.0,70.4 667.7,70.4 668.3,70.4 668.9,70.4 669.5,70.4 670.1,70.4 670.8,70.4 671.4,70.4 672.0,66.9 672.6,66.9 673.2,66.9 673.9,66.9 674.5,66.9 675.1,66.9 675.7,66.9 676.3,66.9 677.0,66.9 677.6,66.9 678.2,66.9 678.8,66.9 679.4,66.9 680.1,66.9 680.7,66.9 681.3,66.9 681.9,66.9 682.5,66.9 683.2,66.9 683.8,66.9 684.4,80.8 685.0,80.8 685.6,80.8 686.3,80.8 686.9,80.8 687.5,80.8 688.1,80.8 688.7,80.8 689.4,80.8 690.0,80.8 690.6,80.8 691.2,80.8 691.8,80.8 692.5,80.8 693.1,80.8 693.7,80.8 694.3,80.8 694.9,80.8 695.6,80.8 696.2,80.8 696.8,79.1 697.4,79.1 698.0,79.1 698.7,79.1 699.3,79.1 699.9,79.1 700.5,79.1 701.1,79.1 701.8,79.1 702.4,79.1 703.0,79.1 703.6,79.1 704.2,79.1 704.9,79.1 705.5,79.1 706.1,79.1 706.7,79.1 707.3,79.1 708.0,79.1 708.6,79.1 709.2,78.2 709.8,78.2 710.4,78.2 711.1,78.2 711.7,78.2 712.3,78.2 712.9,78.2 713.5,78.2 714.2,78.2 714.8,78.2 715.4,78.2 716.0,78.2 716.6,78.2 717.3,78.2 717.9,78.2 718.5,78.2 719.1,78.2 719.7,78.2 720.4,78.2 721.0,78.2 721.6,85.7 722.2,85.7 722.8,85.7 723.5,85.7 724.1,85.7 724.7,85.7 725.3,85.7 725.9,85.7 726.6,85.7 727.2,85.7 727.8,85.7 728.4,85.7 729.0,85.7 729.7,85.7 730.3,85.7 730.9,85.7 731.5,85.7 732.1,85.7 732.8,85.7 733.4,85.7 734.0,86.4 734.6,86.4 735.2,86.4 735.9,86.4 736.5,86.4 737.1,86.4 737.7,86.4 738.3,86.4 739.0,86.4 739.6,86.4 740.2,86.4 740.8,86.4 741.4,86.4 742.1,86.4 742.7,86.4 743.3,86.4 743.9,86.4 744.5,86.4 745.2,86.4 745.8,86.4 746.4,88.6 747.0,88.6 747.6,88.6 748.3,88.6 748.9,88.6 749.5,88.6 750.1,88.6 750.7,88.6 751.4,88.6 752.0,88.6 752.6,88.6 753.2,88.6 753.8,88.6 754.5,88.6 755.1,88.6 755.7,88.6 756.3,88.6 756.9,88.6 757.6,88.6 758.2,88.6 758.8,79.9 759.4,79.9 760.0,79.9 760.7,79.9 761.3,79.9 761.9,79.9 762.5,79.9 763.1,79.9 763.8,79.9 764.4,79.9 765.0,79.9 765.6,79.9 766.2,79.9 766.9,79.9 767.5,79.9 768.1,79.9 768.7,79.9 769.3,79.9 770.0,79.9 770.6,79.9 771.2,77.8 771.8,77.8 772.4,77.8 773.1,77.8 773.7,77.8 774.3,77.8 774.9,77.8 775.5,77.8 776.2,77.8 776.8,77.8 777.4,77.8 778.0,77.8 778.6,77.8 779.3,77.8 779.9,77.8 780.5,77.8 781.1,77.8 781.7,77.8 782.4,77.8 783.0,77.8 783.6,83.0 784.2,83.0 784.8,83.0 785.5,83.0 786.1,83.0 786.7,83.0 787.3,83.0 787.9,83.0 788.6,83.0 789.2,83.0 789.8,83.0 790.4,83.0 791.0,83.0 791.7,83.0 792.3,83.0 792.9,83.0 793.5,83.0 794.1,83.0 794.8,83.0 795.4,83.0 796.0,89.6"/>
<text x="640" y="56" font-family="Arial" font-size="12" fill="#0f766e">bax</text>
<polyline fill="none" stroke="#2563eb" stroke-width="2.3" points="52.0,111.4 52.6,111.4 53.2,111.4 53.9,111.4 54.5,111.4 55.1,111.4 55.7,111.4 56.3,111.4 57.0,111.4 57.6,111.4 58.2,111.4 58.8,111.4 59.4,111.4 60.1,111.4 60.7,111.4 61.3,111.4 61.9,111.4 62.5,111.4 63.2,111.4 63.8,111.4 64.4,102.1 65.0,102.1 65.6,102.1 66.3,102.1 66.9,102.1 67.5,102.1 68.1,102.1 68.7,102.1 69.4,102.1 70.0,102.1 70.6,102.1 71.2,102.1 71.8,102.1 72.5,102.1 73.1,102.1 73.7,102.1 74.3,102.1 74.9,102.1 75.6,102.1 76.2,102.1 76.8,114.2 77.4,114.2 78.0,114.2 78.7,114.2 79.3,114.2 79.9,114.2 80.5,114.2 81.1,114.2 81.8,114.2 82.4,114.2 83.0,114.2 83.6,114.2 84.2,114.2 84.9,114.2 85.5,114.2 86.1,114.2 86.7,114.2 87.3,114.2 88.0,114.2 88.6,114.2 89.2,176.6 89.8,176.6 90.4,176.6 91.1,176.6 91.7,176.6 92.3,176.6 92.9,176.6 93.5,176.6 94.2,176.6 94.8,176.6 95.4,176.6 96.0,176.6 96.6,176.6 97.3,176.6 97.9,176.6 98.5,176.6 99.1,176.6 99.7,176.6 100.4,176.6 101.0,176.6 101.6,149.7 102.2,149.7 102.8,149.7 103.5,149.7 104.1,149.7 104.7,149.7 105.3,149.7 105.9,149.7 106.6,149.7 107.2,149.7 107.8,149.7 108.4,149.7 109.0,149.7 109.7,149.7 110.3,149.7 110.9,149.7 111.5,149.7 112.1,149.7 112.8,149.7 113.4,149.7 114.0,114.9 114.6,114.9 115.2,114.9 115.9,114.9 116.5,114.9 117.1,114.9 117.7,114.9 118.3,114.9 119.0,114.9 119.6,114.9 120.2,114.9 120.8,114.9 121.4,114.9 122.1,114.9 122.7,114.9 123.3,114.9 123.9,114.9 124.5,114.9 125.2,114.9 125.8,114.9 126.4,274.0 127.0,274.0 127.6,274.0 128.3,274.0 128.9,274.0 129.5,274.0 130.1,274.0 130.7,274.0 131.4,274.0 132.0,274.0 132.6,274.0 133.2,274.0 133.8,274.0 134.5,274.0 135.1,274.0 135.7,274.0 136.3,274.0 136.9,274.0 137.6,274.0 138.2,274.0 138.8,263.3 139.4,263.3 140.0,263.3 140.7,263.3 141.3,263.3 141.9,263.3 142.5,263.3 143.1,263.3 143.8,263.3 144.4,263.3 145.0,263.3 145.6,263.3 146.2,263.3 146.9,263.3 147.5,263.3 148.1,263.3 148.7,263.3 149.3,263.3 150.0,263.3 150.6,263.3 151.2,170.4 151.8,170.4 152.4,170.4 153.1,170.4 153.7,170.4 154.3,170.4 154.9,170.4 155.5,170.4 156.2,170.4 156.8,170.4 157.4,170.4 158.0,170.4 158.6,170.4 159.3,170.4 159.9,170.4 160.5,170.4 161.1,170.4 161.7,170.4 162.4,170.4 163.0,170.4 163.6,198.5 164.2,198.5 164.8,198.5 165.5,198.5 166.1,198.5 166.7,198.5 167.3,198.5 167.9,198.5 168.6,198.5 169.2,198.5 169.8,198.5 170.4,198.5 171.0,198.5 171.7,198.5 172.3,198.5 172.9,198.5 173.5,198.5 174.1,198.5 174.8,198.5 175.4,198.5 176.0,156.5 176.6,156.5 177.2,156.5 177.9,156.5 178.5,156.5 179.1,156.5 179.7,156.5 180.3,156.5 181.0,156.5 181.6,156.5 182.2,156.5 182.8,156.5 183.4,156.5 184.1,156.5 184.7,156.5 185.3,156.5 185.9,156.5 186.5,156.5 187.2,156.5 187.8,156.5 188.4,175.8 189.0,175.8 189.6,175.8 190.3,175.8 190.9,175.8 191.5,175.8 192.1,175.8 192.7,175.8 193.4,175.8 194.0,175.8 194.6,175.8 195.2,175.8 195.8,175.8 196.5,175.8 197.1,175.8 197.7,175.8 198.3,175.8 198.9,175.8 199.6,175.8 200.2,175.8 200.8,166.0 201.4,166.0 202.0,166.0 202.7,166.0 203.3,166.0 203.9,166.0 204.5,166.0 205.1,166.0 205.8,166.0 206.4,166.0 207.0,166.0 207.6,166.0 208.2,166.0 208.9,166.0 209.5,166.0 210.1,166.0 210.7,166.0 211.3,166.0 212.0,166.0 212.6,166.0 213.2,150.0 213.8,150.0 214.4,150.0 215.1,150.0 215.7,150.0 216.3,150.0 216.9,150.0 217.5,150.0 218.2,150.0 218.8,150.0 219.4,150.0 220.0,150.0 220.6,150.0 221.3,150.0 221.9,150.0 222.5,150.0 223.1,150.0 223.7,150.0 224.4,150.0 225.0,150.0 225.6,155.8 226.2,155.8 226.8,155.8 227.5,155.8 228.1,155.8 228.7,155.8 229.3,155.8 229.9,155.8 230.6,155.8 231.2,155.8 231.8,155.8 232.4,155.8 233.0,155.8 233.7,155.8 234.3,155.8 234.9,155.8 235.5,155.8 236.1,155.8 236.8,155.8 237.4,155.8 238.0,105.0 238.6,105.0 239.2,105.0 239.9,105.0 240.5,105.0 241.1,105.0 241.7,105.0 242.3,105.0 243.0,105.0 243.6,105.0 244.2,105.0 244.8,105.0 245.4,105.0 246.1,105.0 246.7,105.0 247.3,105.0 247.9,105.0 248.5,105.0 249.2,105.0 249.8,105.0 250.4,114.5 251.0,114.5 251.6,114.5 252.3,114.5 252.9,114.5 253.5,114.5 254.1,114.5 254.7,114.5 255.4,114.5 256.0,114.5 256.6,114.5 257.2,114.5 257.8,114.5 258.5,114.5 259.1,114.5 259.7,114.5 260.3,114.5 260.9,114.5 261.6,114.5 262.2,114.5 262.8,116.8 263.4,116.8 264.0,116.8 264.7,116.8 265.3,116.8 265.9,116.8 266.5,116.8 267.1,116.8 267.8,116.8 268.4,116.8 269.0,116.8 269.6,116.8 270.2,116.8 270.9,116.8 271.5,116.8 272.1,116.8 272.7,116.8 273.3,116.8 274.0,116.8 274.6,116.8 275.2,142.5 275.8,142.5 276.4,142.5 277.1,142.5 277.7,142.5 278.3,142.5 278.9,142.5 279.5,142.5 280.2,142.5 280.8,142.5 281.4,142.5 282.0,142.5 282.6,142.5 283.3,142.5 283.9,142.5 284.5,142.5 285.1,142.5 285.7,142.5 286.4,142.5 287.0,142.5 287.6,140.4 288.2,140.4 288.8,140.4 289.5,140.4 290.1,140.4 290.7,140.4 291.3,140.4 291.9,140.4 292.6,140.4 293.2,140.4 293.8,140.4 294.4,140.4 295.0,140.4 295.7,140.4 296.3,140.4 296.9,140.4 297.5,140.4 298.1,140.4 298.8,140.4 299.4,140.4 300.0,125.8 300.6,125.8 301.2,125.8 301.9,125.8 302.5,125.8 303.1,125.8 303.7,125.8 304.3,125.8 305.0,125.8 305.6,125.8 306.2,125.8 306.8,125.8 307.4,125.8 308.1,125.8 308.7,125.8 309.3,125.8 309.9,125.8 310.5,125.8 311.2,125.8 311.8,125.8 312.4,109.0 313.0,109.0 313.6,109.0 314.3,109.0 314.9,109.0 315.5,109.0 316.1,109.0 316.7,109.0 317.4,109.0 318.0,109.0 318.6,109.0 319.2,109.0 319.8,109.0 320.5,109.0 321.1,109.0 321.7,109.0 322.3,109.0 322.9,109.0 323.6,109.0 324.2,109.0 324.8,108.4 325.4,108.4 326.0,108.4 326.7,108.4 327.3,108.4 327.9,108.4 328.5,108.4 329.1,108.4 329.8,108.4 330.4,108.4 331.0,108.4 331.6,108.4 332.2,108.4 332.9,108.4 333.5,108.4 334.1,108.4 334.7,108.4 335.3,108.4 336.0,108.4 336.6,108.4 337.2,121.2 337.8,121.2 338.4,121.2 339.1,121.2 339.7,121.2 340.3,121.2 340.9,121.2 341.5,121.2 342.2,121.2 342.8,121.2 343.4,121.2 344.0,121.2 344.6,121.2 345.3,121.2 345.9,121.2 346.5,121.2 347.1,121.2 347.7,121.2 348.4,121.2 349.0,121.2 349.6,126.9 350.2,126.9 350.8,126.9 351.5,126.9 352.1,126.9 352.7,126.9 353.3,126.9 353.9,126.9 354.6,126.9 355.2,126.9 355.8,126.9 356.4,126.9 357.0,126.9 357.7,126.9 358.3,126.9 358.9,126.9 359.5,126.9 360.1,126.9 360.8,126.9 361.4,126.9 362.0,123.0 362.6,123.0 363.2,123.0 363.9,123.0 364.5,123.0 365.1,123.0 365.7,123.0 366.3,123.0 367.0,123.0 367.6,123.0 368.2,123.0 368.8,123.0 369.4,123.0 370.1,123.0 370.7,123.0 371.3,123.0 371.9,123.0 372.5,123.0 373.2,123.0 373.8,123.0 374.4,115.2 375.0,115.2 375.6,115.2 376.3,115.2 376.9,115.2 377.5,115.2 378.1,115.2 378.7,115.2 379.4,115.2 380.0,115.2 380.6,115.2 381.2,115.2 381.8,115.2 382.5,115.2 383.1,115.2 383.7,115.2 384.3,115.2 384.9,115.2 385.6,115.2 386.2,115.2 386.8,124.9 387.4,124.9 388.0,124.9 388.7,124.9 389.3,124.9 389.9,124.9 390.5,124.9 391.1,124.9 391.8,124.9 392.4,124.9 393.0,124.9 393.6,124.9 394.2,124.9 394.9,124.9 395.5,124.9 396.1,124.9 396.7,124.9 397.3,124.9 398.0,124.9 398.6,124.9 399.2,124.9 399.8,124.9 400.4,124.9 401.1,124.9 401.7,124.9 402.3,124.9 402.9,124.9 403.5,124.9 404.2,124.9 404.8,124.9 405.4,124.9 406.0,124.9 406.6,124.9 407.3,124.9 407.9,124.9 408.5,124.9 409.1,124.9 409.7,124.9 410.4,124.9 411.0,124.9 411.6,124.9 412.2,124.9 412.8,124.9 413.5,124.9 414.1,124.9 414.7,124.9 415.3,124.9 415.9,124.9 416.6,124.9 417.2,124.9 417.8,124.9 418.4,124.9 419.0,124.9 419.7,124.9 420.3,124.9 420.9,124.9 421.5,124.9 422.1,124.9 422.8,124.9 423.4,124.9 424.0,124.9 424.6,124.9 425.2,124.9 425.9,124.9 426.5,124.9 427.1,124.9 427.7,124.9 428.3,124.9 429.0,124.9 429.6,124.9 430.2,124.9 430.8,124.9 431.4,124.9 432.1,124.9 432.7,124.9 433.3,124.9 433.9,124.9 434.5,124.9 435.2,124.9 435.8,124.9 436.4,124.9 437.0,124.9 437.6,124.9 438.3,124.9 438.9,124.9 439.5,124.9 440.1,124.9 440.7,124.9 441.4,124.9 442.0,124.9 442.6,124.9 443.2,124.9 443.8,124.9 444.5,124.9 445.1,124.9 445.7,124.9 446.3,124.9 446.9,124.9 447.6,124.9 448.2,124.9 448.8,124.9 449.4,124.9 450.0,124.9 450.7,124.9 451.3,124.9 451.9,124.9 452.5,124.9 453.1,124.9 453.8,124.9 454.4,124.9 455.0,124.9 455.6,124.9 456.2,124.9 456.9,124.9 457.5,124.9 458.1,124.9 458.7,124.9 459.3,124.9 460.0,124.9 460.6,124.9 461.2,124.9 461.8,124.9 462.4,124.9 463.1,124.9 463.7,124.9 464.3,124.9 464.9,124.9 465.5,124.9 466.2,124.9 466.8,124.9 467.4,124.9 468.0,124.9 468.6,124.9 469.3,124.9 469.9,124.9 470.5,124.9 471.1,124.9 471.7,124.9 472.4,124.9 473.0,124.9 473.6,124.9 474.2,124.9 474.8,124.9 475.5,124.9 476.1,124.9 476.7,124.9 477.3,124.9 477.9,124.9 478.6,124.9 479.2,124.9 479.8,124.9 480.4,124.9 481.0,124.9 481.7,124.9 482.3,124.9 482.9,124.9 483.5,124.9 484.1,124.9 484.8,124.9 485.4,124.9 486.0,124.9 486.6,124.9 487.2,124.9 487.9,124.9 488.5,124.9 489.1,124.9 489.7,124.9 490.3,124.9 491.0,124.9 491.6,124.9 492.2,124.9 492.8,124.9 493.4,124.9 494.1,124.9 494.7,124.9 495.3,124.9 495.9,124.9 496.5,124.9 497.2,124.9 497.8,124.9 498.4,124.9 499.0,124.9 499.6,124.9 500.3,124.9 500.9,124.9 501.5,124.9 502.1,124.9 502.7,124.9 503.4,124.9 504.0,124.9 504.6,124.9 505.2,124.9 505.8,124.9 506.5,124.9 507.1,124.9 507.7,124.9 508.3,124.9 508.9,124.9 509.6,124.9 510.2,124.9 510.8,137.6 511.4,137.6 512.0,137.6 512.7,137.6 513.3,137.6 513.9,137.6 514.5,137.6 515.1,137.6 515.8,137.6 516.4,137.6 517.0,137.6 517.6,137.6 518.2,137.6 518.9,137.6 519.5,137.6 520.1,137.6 520.7,137.6 521.3,137.6 522.0,137.6 522.6,137.6 523.2,136.9 523.8,136.9 524.4,136.9 525.1,136.9 525.7,136.9 526.3,136.9 526.9,136.9 527.5,136.9 528.2,136.9 528.8,136.9 529.4,136.9 530.0,136.9 530.6,136.9 531.3,136.9 531.9,136.9 532.5,136.9 533.1,136.9 533.7,136.9 534.4,136.9 535.0,136.9 535.6,130.9 536.2,130.9 536.8,130.9 537.5,130.9 538.1,130.9 538.7,130.9 539.3,130.9 539.9,130.9 540.6,130.9 541.2,130.9 541.8,130.9 542.4,130.9 543.0,130.9 543.7,130.9 544.3,130.9 544.9,130.9 545.5,130.9 546.1,130.9 546.8,130.9 547.4,130.9 548.0,131.5 548.6,131.5 549.2,131.5 549.9,131.5 550.5,131.5 551.1,131.5 551.7,131.5 552.3,131.5 553.0,131.5 553.6,131.5 554.2,131.5 554.8,131.5 555.4,131.5 556.1,131.5 556.7,131.5 557.3,131.5 557.9,131.5 558.5,131.5 559.2,131.5 559.8,131.5 560.4,130.7 561.0,130.7 561.6,130.7 562.3,130.7 562.9,130.7 563.5,130.7 564.1,130.7 564.7,130.7 565.4,130.7 566.0,130.7 566.6,130.7 567.2,130.7 567.8,130.7 568.5,130.7 569.1,130.7 569.7,130.7 570.3,130.7 570.9,130.7 571.6,130.7 572.2,130.7 572.8,138.5 573.4,138.5 574.0,138.5 574.7,138.5 575.3,138.5 575.9,138.5 576.5,138.5 577.1,138.5 577.8,138.5 578.4,138.5 579.0,138.5 579.6,138.5 580.2,138.5 580.9,138.5 581.5,138.5 582.1,138.5 582.7,138.5 583.3,138.5 584.0,138.5 584.6,138.5 585.2,138.5 585.8,138.5 586.4,138.5 587.1,138.5 587.7,138.5 588.3,138.5 588.9,138.5 589.5,138.5 590.2,138.5 590.8,138.5 591.4,138.5 592.0,138.5 592.6,138.5 593.3,138.5 593.9,138.5 594.5,138.5 595.1,138.5 595.7,138.5 596.4,138.5 597.0,138.5 597.6,134.8 598.2,134.8 598.8,134.8 599.5,134.8 600.1,134.8 600.7,134.8 601.3,134.8 601.9,134.8 602.6,134.8 603.2,134.8 603.8,134.8 604.4,134.8 605.0,134.8 605.7,134.8 606.3,134.8 606.9,134.8 607.5,134.8 608.1,134.8 608.8,134.8 609.4,134.8 610.0,152.2 610.6,152.2 611.2,152.2 611.9,152.2 612.5,152.2 613.1,152.2 613.7,152.2 614.3,152.2 615.0,152.2 615.6,152.2 616.2,152.2 616.8,152.2 617.4,152.2 618.1,152.2 618.7,152.2 619.3,152.2 619.9,152.2 620.5,152.2 621.2,152.2 621.8,152.2 622.4,145.8 623.0,145.8 623.6,145.8 624.3,145.8 624.9,145.8 625.5,145.8 626.1,145.8 626.7,145.8 627.4,145.8 628.0,145.8 628.6,145.8 629.2,145.8 629.8,145.8 630.5,145.8 631.1,145.8 631.7,145.8 632.3,145.8 632.9,145.8 633.6,145.8 634.2,145.8 634.8,124.0 635.4,124.0 636.0,124.0 636.7,124.0 637.3,124.0 637.9,124.0 638.5,124.0 639.1,124.0 639.8,124.0 640.4,124.0 641.0,124.0 641.6,124.0 642.2,124.0 642.9,124.0 643.5,124.0 644.1,124.0 644.7,124.0 645.3,124.0 646.0,124.0 646.6,124.0 647.2,131.3 647.8,131.3 648.4,131.3 649.1,131.3 649.7,131.3 650.3,131.3 650.9,131.3 651.5,131.3 652.2,131.3 652.8,131.3 653.4,131.3 654.0,131.3 654.6,131.3 655.3,131.3 655.9,131.3 656.5,131.3 657.1,131.3 657.7,131.3 658.4,131.3 659.0,131.3 659.6,141.0 660.2,141.0 660.8,141.0 661.5,141.0 662.1,141.0 662.7,141.0 663.3,141.0 663.9,141.0 664.6,141.0 665.2,141.0 665.8,141.0 666.4,141.0 667.0,141.0 667.7,141.0 668.3,141.0 668.9,141.0 669.5,141.0 670.1,141.0 670.8,141.0 671.4,141.0 672.0,138.0 672.6,138.0 673.2,138.0 673.9,138.0 674.5,138.0 675.1,138.0 675.7,138.0 676.3,138.0 677.0,138.0 677.6,138.0 678.2,138.0 678.8,138.0 679.4,138.0 680.1,138.0 680.7,138.0 681.3,138.0 681.9,138.0 682.5,138.0 683.2,138.0 683.8,138.0 684.4,131.0 685.0,131.0 685.6,131.0 686.3,131.0 686.9,131.0 687.5,131.0 688.1,131.0 688.7,131.0 689.4,131.0 690.0,131.0 690.6,131.0 691.2,131.0 691.8,131.0 692.5,131.0 693.1,131.0 693.7,131.0 694.3,131.0 694.9,131.0 695.6,131.0 696.2,131.0 696.8,134.2 697.4,134.2 698.0,134.2 698.7,134.2 699.3,134.2 699.9,134.2 700.5,134.2 701.1,134.2 701.8,134.2 702.4,134.2 703.0,134.2 703.6,134.2 704.2,134.2 704.9,134.2 705.5,134.2 706.1,134.2 706.7,134.2 707.3,134.2 708.0,134.2 708.6,134.2 709.2,143.9 709.8,143.9 710.4,143.9 711.1,143.9 711.7,143.9 712.3,143.9 712.9,143.9 713.5,143.9 714.2,143.9 714.8,143.9 715.4,143.9 716.0,143.9 716.6,143.9 717.3,143.9 717.9,143.9 718.5,143.9 719.1,143.9 719.7,143.9 720.4,143.9 721.0,143.9 721.6,141.6 722.2,141.6 722.8,141.6 723.5,141.6 724.1,141.6 724.7,141.6 725.3,141.6 725.9,141.6 726.6,141.6 727.2,141.6 727.8,141.6 728.4,141.6 729.0,141.6 729.7,141.6 730.3,141.6 730.9,141.6 731.5,141.6 732.1,141.6 732.8,141.6 733.4,141.6 734.0,148.7 734.6,148.7 735.2,148.7 735.9,148.7 736.5,148.7 737.1,148.7 737.7,148.7 738.3,148.7 739.0,148.7 739.6,148.7 740.2,148.7 740.8,148.7 741.4,148.7 742.1,148.7 742.7,148.7 743.3,148.7 743.9,148.7 744.5,148.7 745.2,148.7 745.8,148.7 746.4,148.7 747.0,148.7 747.6,148.7 748.3,148.7 748.9,148.7 749.5,148.7 750.1,148.7 750.7,148.7 751.4,148.7 752.0,148.7 752.6,148.7 753.2,148.7 753.8,148.7 754.5,148.7 755.1,148.7 755.7,148.7 756.3,148.7 756.9,148.7 757.6,148.7 758.2,148.7 758.8,137.7 759.4,137.7 760.0,137.7 760.7,137.7 761.3,137.7 761.9,137.7 762.5,137.7 763.1,137.7 763.8,137.7 764.4,137.7 765.0,137.7 765.6,137.7 766.2,137.7 766.9,137.7 767.5,137.7 768.1,137.7 768.7,137.7 769.3,137.7 770.0,137.7 770.6,137.7 771.2,129.9 771.8,129.9 772.4,129.9 773.1,129.9 773.7,129.9 774.3,129.9 774.9,129.9 775.5,129.9 776.2,129.9 776.8,129.9 777.4,129.9 778.0,129.9 778.6,129.9 779.3,129.9 779.9,129.9 780.5,129.9 781.1,129.9 781.7,129.9 782.4,129.9 783.0,129.9 783.6,128.3 784.2,128.3 784.8,128.3 785.5,128.3 786.1,128.3 786.7,128.3 787.3,128.3 787.9,128.3 788.6,128.3 789.2,128.3 789.8,128.3 790.4,128.3 791.0,128.3 791.7,128.3 792.3,128.3 792.9,128.3 793.5,128.3 794.1,128.3 794.8,128.3 795.4,128.3 796.0,122.8"/>
<text x="640" y="72" font-family="Arial" font-size="12" fill="#2563eb">bay</text>
<polyline fill="none" stroke="#b45309" stroke-width="2.3" points="52.0,111.4 52.6,111.4 53.2,111.4 53.9,111.4 54.5,110.1 55.1,110.1 55.7,110.1 56.3,110.1 57.0,116.8 57.6,116.8 58.2,116.8 58.8,116.8 59.4,110.2 60.1,110.2 60.7,110.2 61.3,110.2 61.9,105.9 62.5,105.9 63.2,105.9 63.8,105.9 64.4,108.2 65.0,108.2 65.6,108.2 66.3,108.2 66.9,102.2 67.5,102.2 68.1,102.2 68.7,102.2 69.4,100.5 70.0,100.5 70.6,100.5 71.2,100.5 71.8,109.1 72.5,109.1 73.1,109.1 73.7,109.1 74.3,152.0 74.9,152.0 75.6,152.0 76.2,152.0 76.8,122.8 77.4,122.8 78.0,122.8 78.7,122.8 79.3,109.6 79.9,109.6 80.5,109.6 81.1,109.6 81.8,109.3 82.4,109.3 83.0,109.3 83.6,109.3 84.2,78.4 84.9,78.4 85.5,78.4 86.1,78.4 86.7,42.0 87.3,42.0 88.0,42.0 88.6,42.0 89.2,64.3 89.8,64.3 90.4,64.3 91.1,64.3 91.7,121.4 92.3,121.4 92.9,121.4 93.5,121.4 94.2,113.8 94.8,113.8 95.4,113.8 96.0,113.8 96.6,152.3 97.3,152.3 97.9,152.3 98.5,152.3 99.1,232.9 99.7,232.9 100.4,232.9 101.0,232.9 101.6,230.8 102.2,230.8 102.8,230.8 103.5,230.8 104.1,203.0 104.7,203.0 105.3,203.0 105.9,203.0 106.6,219.5 107.2,219.5 107.8,219.5 108.4,219.5 109.0,131.3 109.7,131.3 110.3,131.3 110.9,131.3 111.5,81.4 112.1,81.4 112.8,81.4 113.4,81.4 114.0,91.6 114.6,91.6 115.2,91.6 115.9,91.6 116.5,119.7 117.1,119.7 117.7,119.7 118.3,119.7 119.0,116.9 119.6,116.9 120.2,116.9 120.8,116.9 121.4,94.7 122.1,94.7 122.7,94.7 123.3,94.7 123.9,76.2 124.5,76.2 125.2,76.2 125.8,76.2 126.4,77.7 127.0,77.7 127.6,77.7 128.3,77.7 128.9,100.1 129.5,100.1 130.1,100.1 130.7,100.1 131.4,72.4 132.0,72.4 132.6,72.4 133.2,72.4 133.8,111.6 134.5,111.6 135.1,111.6 135.7,111.6 136.3,105.8 136.9,105.8 137.6,105.8 138.2,105.8 138.8,110.9 139.4,110.9 140.0,110.9 140.7,110.9 141.3,97.2 141.9,97.2 142.5,97.2 143.1,97.2 143.8,95.7 144.4,95.7 145.0,95.7 145.6,95.7 146.2,96.5 146.9,96.5 147.5,96.5 148.1,96.5 148.7,102.8 149.3,102.8 150.0,102.8 150.6,102.8 151.2,110.5 151.8,110.5 152.4,110.5 153.1,110.5 153.7,125.6 154.3,125.6 154.9,125.6 155.5,125.6 156.2,136.3 156.8,136.3 157.4,136.3 158.0,136.3 158.6,135.3 159.3,135.3 159.9,135.3 160.5,135.3 161.1,128.5 161.7,128.5 162.4,128.5 163.0,128.5 163.6,111.0 164.2,111.0 164.8,111.0 165.5,111.0 166.1,100.8 166.7,100.8 167.3,100.8 167.9,100.8 168.6,92.9 169.2,92.9 169.8,92.9 170.4,92.9 171.0,93.5 171.7,93.5 172.3,93.5 172.9,93.5 173.5,97.0 174.1,97.0 174.8,97.0 175.4,97.0 176.0,98.6 176.6,98.6 177.2,98.6 177.9,98.6 178.5,103.8 179.1,103.8 179.7,103.8 180.3,103.8 181.0,110.8 181.6,110.8 182.2,110.8 182.8,110.8 183.4,105.9 184.1,105.9 184.7,105.9 185.3,105.9 185.9,111.9 186.5,111.9 187.2,111.9 187.8,111.9 188.4,115.6 189.0,115.6 189.6,115.6 190.3,115.6 190.9,110.8 191.5,110.8 192.1,110.8 192.7,110.8 193.4,108.0 194.0,108.0 194.6,108.0 195.2,108.0 195.8,116.4 196.5,116.4 197.1,116.4 197.7,116.4 198.3,109.3 198.9,109.3 199.6,109.3 200.2,109.3 200.8,94.8 201.4,94.8 202.0,94.8 202.7,94.8 203.3,88.9 203.9,88.9 204.5,88.9 205.1,88.9 205.8,91.6 206.4,91.6 207.0,91.6 207.6,91.6 208.2,88.1 208.9,88.1 209.5,88.1 210.1,88.1 210.7,89.3 211.3,89.3 212.0,89.3 212.6,89.3 213.2,87.3 213.8,87.3 214.4,87.3 215.1,87.3 215.7,91.4 216.3,91.4 216.9,91.4 217.5,91.4 218.2,97.5 218.8,97.5 219.4,97.5 220.0,97.5 220.6,97.3 221.3,97.3 221.9,97.3 222.5,97.3 223.1,99.9 223.7,99.9 224.4,99.9 225.0,99.9 225.6,102.6 226.2,102.6 226.8,102.6 227.5,102.6 228.1,104.1 228.7,104.1 229.3,104.1 229.9,104.1 230.6,107.0 231.2,107.0 231.8,107.0 232.4,107.0 233.0,112.8 233.7,112.8 234.3,112.8 234.9,112.8 235.5,112.7 236.1,112.7 236.8,112.7 237.4,112.7 238.0,108.6 238.6,108.6 239.2,108.6 239.9,108.6 240.5,103.8 241.1,103.8 241.7,103.8 242.3,103.8 243.0,105.8 243.6,105.8 244.2,105.8 244.8,105.8 245.4,101.0 246.1,101.0 246.7,101.0 247.3,101.0 247.9,100.9 248.5,100.9 249.2,100.9 249.8,100.9 250.4,94.5 251.0,94.5 251.6,94.5 252.3,94.5 252.9,91.4 253.5,91.4 254.1,91.4 254.7,91.4 255.4,91.8 256.0,91.8 256.6,91.8 257.2,91.8 257.8,92.0 258.5,92.0 259.1,92.0 259.7,92.0 260.3,95.4 260.9,95.4 261.6,95.4 262.2,95.4 262.8,93.4 263.4,93.4 264.0,93.4 264.7,93.4 265.3,85.5 265.9,85.5 266.5,85.5 267.1,85.5 267.8,90.3 268.4,90.3 269.0,90.3 269.6,90.3 270.2,94.9 270.9,94.9 271.5,94.9 272.1,94.9 272.7,93.0 273.3,93.0 274.0,93.0 274.6,93.0 275.2,95.6 275.8,95.6 276.4,95.6 277.1,95.6 277.7,98.3 278.3,98.3 278.9,98.3 279.5,98.3 280.2,91.7 280.8,91.7 281.4,91.7 282.0,91.7 282.6,90.4 283.3,90.4 283.9,90.4 284.5,90.4 285.1,91.4 285.7,91.4 286.4,91.4 287.0,91.4 287.6,86.1 288.2,86.1 288.8,86.1 289.5,86.1 290.1,87.3 290.7,87.3 291.3,87.3 291.9,87.3 292.6,92.0 293.2,92.0 293.8,92.0 294.4,92.0 295.0,92.5 295.7,92.5 296.3,92.5 296.9,92.5 297.5,90.9 298.1,90.9 298.8,90.9 299.4,90.9 300.0,91.1 300.6,91.1 301.2,91.1 301.9,91.1 302.5,94.4 303.1,94.4 303.7,94.4 304.3,94.4 305.0,91.7 305.6,91.7 306.2,91.7 306.8,91.7 307.4,92.4 308.1,92.4 308.7,92.4 309.3,92.4 309.9,99.6 310.5,99.6 311.2,99.6 311.8,99.6 312.4,105.9 313.0,105.9 313.6,105.9 314.3,105.9 314.9,106.1 315.5,106.1 316.1,106.1 316.7,106.1 317.4,103.6 318.0,103.6 318.6,103.6 319.2,103.6 319.8,106.5 320.5,106.5 321.1,106.5 321.7,106.5 322.3,104.1 322.9,104.1 323.6,104.1 324.2,104.1 324.8,110.4 325.4,110.4 326.0,110.4 326.7,110.4 327.3,109.2 327.9,109.2 328.5,109.2 329.1,109.2 329.8,107.4 330.4,107.4 331.0,107.4 331.6,107.4 332.2,104.3 332.9,104.3 333.5,104.3 334.1,104.3 334.7,105.0 335.3,105.0 336.0,105.0 336.6,105.0 337.2,108.4 337.8,108.4 338.4,108.4 339.1,108.4 339.7,109.1 340.3,109.1 340.9,109.1 341.5,109.1 342.2,104.4 342.8,104.4 343.4,104.4 344.0,104.4 344.6,104.4 345.3,104.4 345.9,104.4 346.5,104.4 347.1,100.3 347.7,100.3 348.4,100.3 349.0,100.3 349.6,97.9 350.2,97.9 350.8,97.9 351.5,97.9 352.1,94.8 352.7,94.8 353.3,94.8 353.9,94.8 354.6,99.9 355.2,99.9 355.8,99.9 356.4,99.9 357.0,97.2 357.7,97.2 358.3,97.2 358.9,97.2 359.5,97.0 360.1,97.0 360.8,97.0 361.4,97.0 362.0,94.0 362.6,94.0 363.2,94.0 363.9,94.0 364.5,95.0 365.1,95.0 365.7,95.0 366.3,95.0 367.0,90.4 367.6,90.4 368.2,90.4 368.8,90.4 369.4,88.7 370.1,88.7 370.7,88.7 371.3,88.7 371.9,85.1 372.5,85.1 373.2,85.1 373.8,85.1 374.4,86.5 375.0,86.5 375.6,86.5 376.3,86.5 376.9,87.3 377.5,87.3 378.1,87.3 378.7,87.3 379.4,84.3 380.0,84.3 380.6,84.3 381.2,84.3 381.8,79.7 382.5,79.7 383.1,79.7 383.7,79.7 384.3,87.1 384.9,87.1 385.6,87.1 386.2,87.1 386.8,84.6 387.4,84.6 388.0,84.6 388.7,84.6 389.3,86.9 389.9,86.9 390.5,86.9 391.1,86.9 391.8,87.0 392.4,87.0 393.0,87.0 393.6,87.0 394.2,89.0 394.9,89.0 395.5,89.0 396.1,89.0 396.7,87.5 397.3,87.5 398.0,87.5 398.6,87.5 399.2,86.2 399.8,86.2 400.4,86.2 401.1,86.2 401.7,90.2 402.3,90.2 402.9,90.2 403.5,90.2 404.2,90.9 404.8,90.9 405.4,90.9 406.0,90.9 406.6,93.3 407.3,93.3 407.9,93.3 408.5,93.3 409.1,93.4 409.7,93.4 410.4,93.4 411.0,93.4 411.6,93.9 412.2,93.9 412.8,93.9 413.5,93.9 414.1,88.7 414.7,88.7 415.3,88.7 415.9,88.7 416.6,89.6 417.2,89.6 417.8,89.6 418.4,89.6 419.0,86.9 419.7,86.9 420.3,86.9 420.9,86.9 421.5,83.0 422.1,83.0 422.8,83.0 423.4,83.0 424.0,84.6 424.6,84.6 425.2,84.6 425.9,84.6 426.5,82.1 427.1,82.1 427.7,82.1 428.3,82.1 429.0,81.7 429.6,81.7 430.2,81.7 430.8,81.7 431.4,84.1 432.1,84.1 432.7,84.1 433.3,84.1 433.9,85.4 434.5,85.4 435.2,85.4 435.8,85.4 436.4,85.8 437.0,85.8 437.6,85.8 438.3,85.8 438.9,87.0 439.5,87.0 440.1,87.0 440.7,87.0 441.4,88.3 442.0,88.3 442.6,88.3 443.2,88.3 443.8,85.8 444.5,85.8 445.1,85.8 445.7,85.8 446.3,92.3 446.9,92.3 447.6,92.3 448.2,92.3 448.8,94.2 449.4,94.2 450.0,94.2 450.7,94.2 451.3,94.1 451.9,94.1 452.5,94.1 453.1,94.1 453.8,86.4 454.4,86.4 455.0,86.4 455.6,86.4 456.2,90.7 456.9,90.7 457.5,90.7 458.1,90.7 458.7,93.5 459.3,93.5 460.0,93.5 460.6,93.5 461.2,102.0 461.8,102.0 462.4,102.0 463.1,102.0 463.7,100.4 464.3,100.4 464.9,100.4 465.5,100.4 466.2,102.3 466.8,102.3 467.4,102.3 468.0,102.3 468.6,98.0 469.3,98.0 469.9,98.0 470.5,98.0 471.1,105.4 471.7,105.4 472.4,105.4 473.0,105.4 473.6,105.3 474.2,105.3 474.8,105.3 475.5,105.3 476.1,109.3 476.7,109.3 477.3,109.3 477.9,109.3 478.6,112.1 479.2,112.1 479.8,112.1 480.4,112.1 481.0,114.2 481.7,114.2 482.3,114.2 482.9,114.2 483.5,117.3 484.1,117.3 484.8,117.3 485.4,117.3 486.0,117.4 486.6,117.4 487.2,117.4 487.9,117.4 488.5,114.8 489.1,114.8 489.7,114.8 490.3,114.8 491.0,116.2 491.6,116.2 492.2,116.2 492.8,116.2 493.4,114.1 494.1,114.1 494.7,114.1 495.3,114.1 495.9,119.7 496.5,119.7 497.2,119.7 497.8,119.7 498.4,122.6 499.0,122.6 499.6,122.6 500.3,122.6 500.9,125.7 501.5,125.7 502.1,125.7 502.7,125.7 503.4,121.5 504.0,121.5 504.6,121.5 505.2,121.5 505.8,113.1 506.5,113.1 507.1,113.1 507.7,113.1 508.3,114.7 508.9,114.7 509.6,114.7 510.2,114.7 510.8,104.5 511.4,104.5 512.0,104.5 512.7,104.5 513.3,103.3 513.9,103.3 514.5,103.3 515.1,103.3 515.8,98.1 516.4,98.1 517.0,98.1 517.6,98.1 518.2,93.7 518.9,93.7 519.5,93.7 520.1,93.7 520.7,85.3 521.3,85.3 522.0,85.3 522.6,85.3 523.2,87.4 523.8,87.4 524.4,87.4 525.1,87.4 525.7,92.4 526.3,92.4 526.9,92.4 527.5,92.4 528.2,89.5 528.8,89.5 529.4,89.5 530.0,89.5 530.6,89.6 531.3,89.6 531.9,89.6 532.5,89.6 533.1,88.2 533.7,88.2 534.4,88.2 535.0,88.2 535.6,86.0 536.2,86.0 536.8,86.0 537.5,86.0 538.1,82.3 538.7,82.3 539.3,82.3 539.9,82.3 540.6,78.1 541.2,78.1 541.8,78.1 542.4,78.1 543.0,82.2 543.7,82.2 544.3,82.2 544.9,82.2 545.5,79.8 546.1,79.8 546.8,79.8 547.4,79.8 548.0,79.2 548.6,79.2 549.2,79.2 549.9,79.2 550.5,75.7 551.1,75.7 551.7,75.7 552.3,75.7 553.0,75.4 553.6,75.4 554.2,75.4 554.8,75.4 555.4,85.0 556.1,85.0 556.7,85.0 557.3,85.0 557.9,87.6 558.5,87.6 559.2,87.6 559.8,87.6 560.4,87.2 561.0,87.2 561.6,87.2 562.3,87.2 562.9,85.9 563.5,85.9 564.1,85.9 564.7,85.9 565.4,89.1 566.0,89.1 566.6,89.1 567.2,89.1 567.8,90.0 568.5,90.0 569.1,90.0 569.7,90.0 570.3,91.4 570.9,91.4 571.6,91.4 572.2,91.4 572.8,100.9 573.4,100.9 574.0,100.9 574.7,100.9 575.3,105.9 575.9,105.9 576.5,105.9 577.1,105.9 577.8,104.8 578.4,104.8 579.0,104.8 579.6,104.8 580.2,109.9 580.9,109.9 581.5,109.9 582.1,109.9 582.7,107.2 583.3,107.2 584.0,107.2 584.6,107.2 585.2,109.4 585.8,109.4 586.4,109.4 587.1,109.4 587.7,106.7 588.3,106.7 588.9,106.7 589.5,106.7 590.2,111.0 590.8,111.0 591.4,111.0 592.0,111.0 592.6,109.7 593.3,109.7 593.9,109.7 594.5,109.7 595.1,114.7 595.7,114.7 596.4,114.7 597.0,114.7 597.6,120.3 598.2,120.3 598.8,120.3 599.5,120.3 600.1,115.2 600.7,115.2 601.3,115.2 601.9,115.2 602.6,110.7 603.2,110.7 603.8,110.7 604.4,110.7 605.0,107.1 605.7,107.1 606.3,107.1 606.9,107.1 607.5,108.7 608.1,108.7 608.8,108.7 609.4,108.7 610.0,106.6 610.6,106.6 611.2,106.6 611.9,106.6 612.5,104.7 613.1,104.7 613.7,104.7 614.3,104.7 615.0,105.1 615.6,105.1 616.2,105.1 616.8,105.1 617.4,106.3 618.1,106.3 618.7,106.3 619.3,106.3 619.9,107.0 620.5,107.0 621.2,107.0 621.8,107.0 622.4,105.7 623.0,105.7 623.6,105.7 624.3,105.7 624.9,100.6 625.5,100.6 626.1,100.6 626.7,100.6 627.4,99.9 628.0,99.9 628.6,99.9 629.2,99.9 629.8,97.4 630.5,97.4 631.1,97.4 631.7,97.4 632.3,93.8 632.9,93.8 633.6,93.8 634.2,93.8 634.8,94.6 635.4,94.6 636.0,94.6 636.7,94.6 637.3,88.4 637.9,88.4 638.5,88.4 639.1,88.4 639.8,83.1 640.4,83.1 641.0,83.1 641.6,83.1 642.2,78.1 642.9,78.1 643.5,78.1 644.1,78.1 644.7,84.4 645.3,84.4 646.0,84.4 646.6,84.4 647.2,85.1 647.8,85.1 648.4,85.1 649.1,85.1 649.7,84.4 650.3,84.4 650.9,84.4 651.5,84.4 652.2,82.7 652.8,82.7 653.4,82.7 654.0,82.7 654.6,82.5 655.3,82.5 655.9,82.5 656.5,82.5 657.1,84.1 657.7,84.1 658.4,84.1 659.0,84.1 659.6,83.9 660.2,83.9 660.8,83.9 661.5,83.9 662.1,83.7 662.7,83.7 663.3,83.7 663.9,83.7 664.6,91.7 665.2,91.7 665.8,91.7 666.4,91.7 667.0,94.3 667.7,94.3 668.3,94.3 668.9,94.3 669.5,91.0 670.1,91.0 670.8,91.0 671.4,91.0 672.0,95.4 672.6,95.4 673.2,95.4 673.9,95.4 674.5,96.4 675.1,96.4 675.7,96.4 676.3,96.4 677.0,98.7 677.6,98.7 678.2,98.7 678.8,98.7 679.4,97.9 680.1,97.9 680.7,97.9 681.3,97.9 681.9,99.3 682.5,99.3 683.2,99.3 683.8,99.3 684.4,101.7 685.0,101.7 685.6,101.7 686.3,101.7 686.9,100.9 687.5,100.9 688.1,100.9 688.7,100.9 689.4,101.4 690.0,101.4 690.6,101.4 691.2,101.4 691.8,102.7 692.5,102.7 693.1,102.7 693.7,102.7 694.3,97.5 694.9,97.5 695.6,97.5 696.2,97.5 696.8,97.6 697.4,97.6 698.0,97.6 698.7,97.6 699.3,91.6 699.9,91.6 700.5,91.6 701.1,91.6 701.8,88.2 702.4,88.2 703.0,88.2 703.6,88.2 704.2,95.9 704.9,95.9 705.5,95.9 706.1,95.9 706.7,98.3 707.3,98.3 708.0,98.3 708.6,98.3 709.2,97.6 709.8,97.6 710.4,97.6 711.1,97.6 711.7,99.8 712.3,99.8 712.9,99.8 713.5,99.8 714.2,102.4 714.8,102.4 715.4,102.4 716.0,102.4 716.6,100.3 717.3,100.3 717.9,100.3 718.5,100.3 719.1,101.9 719.7,101.9 720.4,101.9 721.0,101.9 721.6,102.9 722.2,102.9 722.8,102.9 723.5,102.9 724.1,104.4 724.7,104.4 725.3,104.4 725.9,104.4 726.6,101.5 727.2,101.5 727.8,101.5 728.4,101.5 729.0,105.6 729.7,105.6 730.3,105.6 730.9,105.6 731.5,105.3 732.1,105.3 732.8,105.3 733.4,105.3 734.0,105.2 734.6,105.2 735.2,105.2 735.9,105.2 736.5,106.2 737.1,106.2 737.7,106.2 738.3,106.2 739.0,106.3 739.6,106.3 740.2,106.3 740.8,106.3 741.4,107.7 742.1,107.7 742.7,107.7 743.3,107.7 743.9,106.7 744.5,106.7 745.2,106.7 745.8,106.7 746.4,107.7 747.0,107.7 747.6,107.7 748.3,107.7 748.9,108.6 749.5,108.6 750.1,108.6 750.7,108.6 751.4,105.6 752.0,105.6 752.6,105.6 753.2,105.6 753.8,102.6 754.5,102.6 755.1,102.6 755.7,102.6 756.3,98.4 756.9,98.4 757.6,98.4 758.2,98.4 758.8,103.3 759.4,103.3 760.0,103.3 760.7,103.3 761.3,105.0 761.9,105.0 762.5,105.0 763.1,105.0 763.8,102.8 764.4,102.8 765.0,102.8 765.6,102.8 766.2,102.4 766.9,102.4 767.5,102.4 768.1,102.4 768.7,100.3 769.3,100.3 770.0,100.3 770.6,100.3 771.2,101.0 771.8,101.0 772.4,101.0 773.1,101.0 773.7,99.7 774.3,99.7 774.9,99.7 775.5,99.7 776.2,103.6 776.8,103.6 777.4,103.6 778.0,103.6 778.6,95.1 779.3,95.1 779.9,95.1 780.5,95.1 781.1,94.4 781.7,94.4 782.4,94.4 783.0,94.4 783.6,93.4 784.2,93.4 784.8,93.4 785.5,93.4 786.1,96.5 786.7,96.5 787.3,96.5 787.9,96.5 788.6,95.2 789.2,95.2 789.8,95.2 790.4,95.2 791.0,90.9 791.7,90.9 792.3,90.9 792.9,90.9 793.5,95.1 794.1,95.1 794.8,95.1 795.4,95.1 796.0,94.1"/>
<text x="640" y="88" font-family="Arial" font-size="12" fill="#b45309">baz</text>
</svg>