<svg xmlns="http://www.w3.org/2000/svg" width="820" height="320" viewBox="0 0 820 320">
<rect width="100%" height="100%" fill="white"/>
<text x="52" y="30" font-family="Arial" font-size="18" font-weight="700">conservative covariance trace</text>
<line x1="52" y1="274" x2="796" y2="274" stroke="#263238"/>
<line x1="52" y1="42" x2="52" y2="274" stroke="#263238"/>
<text x="52" y="306" font-family="Arial" font-size="12">time (s)</text>
<text x="630" y="306" font-family="Arial" font-size="12">sqrt trace P</text>

<polyline fill="none" stroke="#0f766e" stroke-width="2.3" points="52.0,149.8 52.6,149.8 53.2,149.7 53.9,149.7 54.5,153.0 55.1,152.9 55.7,152.8 56.3,152.7 57.0,153.9 57.6,153.8 58.2,153.7 58.8,153.5 59.4,154.0 60.1,153.9 60.7,153.6 61.3,153.4 61.9,153.6 62.5,153.4 63.2,153.0 63.8,152.7 64.4,202.8 65.0,202.7 65.6,202.6 66.3,202.4 66.9,202.6 67.5,202.4 68.1,202.2 68.7,202.0 69.4,202.1 70.0,201.8 70.6,201.6 71.2,201.3 71.8,201.2 72.5,200.9 73.1,200.5 73.7,200.1 74.3,200.0 74.9,199.5 75.6,199.0 76.2,198.4 76.8,226.3 77.4,226.1 78.0,225.9 78.7,225.6 79.3,225.6 79.9,225.3 80.5,225.0 81.1,224.7 81.8,224.6 82.4,224.3 83.0,223.9 83.6,223.5 84.2,223.3 84.9,222.9 85.5,222.4 86.1,221.8 86.7,221.6 87.3,221.1 88.0,220.4 88.6,219.8 89.2,240.0 89.8,239.8 90.4,239.5 91.1,239.2 91.7,239.1 92.3,238.7 92.9,238.4 93.5,238.0 94.2,237.9 94.8,237.4 95.4,237.0 96.0,236.5 96.6,236.3 97.3,235.8 97.9,235.2 98.5,234.7 99.1,234.4 99.7,233.8 100.4,233.2 101.0,232.5 101.6,249.0 102.2,248.7 102.8,248.3 103.5,248.0 104.1,247.9 104.7,247.5 105.3,247.0 105.9,246.6 106.6,246.5 107.2,246.0 107.8,245.5 108.4,245.0 109.0,244.8 109.7,244.3 110.3,243.7 110.9,243.1 111.5,242.8 112.1,242.2 112.8,241.6 113.4,240.9 114.0,255.2 114.6,254.8 115.2,254.5 115.9,254.1 116.5,253.9 117.1,253.5 117.7,253.1 118.3,252.6 119.0,252.4 119.6,251.9 120.2,251.4 120.8,250.9 121.4,250.7 122.1,250.1 122.7,249.6 123.3,249.0 123.9,248.7 124.5,248.1 125.2,247.4 125.8,246.7 126.4,259.7 127.0,259.3 127.6,258.9 128.3,258.4 128.9,258.3 129.5,257.8 130.1,257.4 130.7,256.9 131.4,256.7 132.0,256.2 132.6,255.7 133.2,255.1 133.8,254.9 134.5,254.4 135.1,253.8 135.7,253.2 136.3,252.9 136.9,252.3 137.6,251.7 138.2,251.0 138.8,262.9 139.4,262.5 140.0,262.1 140.7,261.6 141.3,261.5 141.9,261.0 142.5,260.5 143.1,260.1 143.8,259.9 144.4,259.4 145.0,258.8 145.6,258.3 146.2,258.1 146.9,257.5 147.5,256.9 148.1,256.3 148.7,256.0 149.3,255.4 150.0,254.8 150.6,254.1 151.2,265.4 151.8,264.9 152.4,264.5 153.1,264.0 153.7,263.9 154.3,263.4 154.9,262.9 155.5,262.4 156.2,262.2 156.8,261.7 157.4,261.2 158.0,260.6 158.6,260.4 159.3,259.8 159.9,259.3 160.5,258.7 161.1,258.4 161.7,257.8 162.4,257.2 163.0,256.5 163.6,267.2 164.2,266.8 164.8,266.3 165.5,265.9 166.1,265.7 166.7,265.2 167.3,264.7 167.9,264.2 168.6,264.0 169.2,263.5 169.8,263.0 170.4,262.4 171.0,262.2 171.7,261.6 172.3,261.0 172.9,260.5 173.5,260.2 174.1,259.6 174.8,259.0 175.4,258.3 176.0,268.6 176.6,268.1 177.2,267.7 177.9,267.2 178.5,267.0 179.1,266.6 179.7,266.1 180.3,265.6 181.0,265.4 181.6,264.8 182.2,264.3 182.8,263.8 183.4,263.5 184.1,263.0 184.7,262.4 185.3,261.9 185.9,261.6 186.5,261.0 187.2,260.4 187.8,259.8 188.4,269.6 189.0,269.2 189.6,268.8 190.3,268.3 190.9,268.1 191.5,267.6 192.1,267.1 192.7,266.6 193.4,266.4 194.0,265.9 194.6,265.4 195.2,264.9 195.8,264.6 196.5,264.0 197.1,263.5 197.7,262.9 198.3,262.6 198.9,262.1 199.6,261.5 200.2,260.9 200.8,270.5 201.4,270.0 202.0,269.6 202.7,269.1 203.3,268.9 203.9,268.4 204.5,267.9 205.1,267.5 205.8,267.2 206.4,266.7 207.0,266.2 207.6,265.7 208.2,265.4 208.9,264.9 209.5,264.3 210.1,263.8 210.7,263.5 211.3,262.9 212.0,262.3 212.6,261.7 213.2,271.1 213.8,270.6 214.4,270.2 215.1,269.7 215.7,269.5 216.3,269.1 216.9,268.6 217.5,268.1 218.2,267.8 218.8,267.4 219.4,266.8 220.0,266.3 220.6,266.1 221.3,265.5 221.9,265.0 222.5,264.5 223.1,264.1 223.7,263.6 224.4,263.0 225.0,262.4 225.6,271.6 226.2,271.1 226.8,270.7 227.5,270.2 228.1,270.0 228.7,269.6 229.3,269.1 229.9,268.6 230.6,268.4 231.2,267.9 231.8,267.4 232.4,266.9 233.0,266.6 233.7,266.1 234.3,265.5 234.9,265.0 235.5,264.7 236.1,264.1 236.8,263.6 237.4,263.0 238.0,272.0 238.6,271.5 239.2,271.1 239.9,270.6 240.5,270.4 241.1,269.9 241.7,269.5 242.3,269.0 243.0,268.8 243.6,268.3 244.2,267.8 244.8,267.3 245.4,267.0 246.1,266.5 246.7,266.0 247.3,265.4 247.9,265.1 248.5,264.6 249.2,264.0 249.8,263.5 250.4,272.3 251.0,271.8 251.6,271.4 252.3,270.9 252.9,270.7 253.5,270.3 254.1,269.8 254.7,269.3 255.4,269.1 256.0,268.6 256.6,268.1 257.2,267.6 257.8,267.3 258.5,266.8 259.1,266.3 259.7,265.8 260.3,265.5 260.9,265.0 261.6,264.4 262.2,263.9 262.8,272.5 263.4,272.1 264.0,271.6 264.7,271.2 265.3,271.0 265.9,270.5 266.5,270.1 267.1,269.6 267.8,269.3 268.4,268.9 269.0,268.4 269.6,267.9 270.2,267.6 270.9,267.1 271.5,266.6 272.1,266.1 272.7,265.8 273.3,265.3 274.0,264.7 274.6,264.2 275.2,272.7 275.8,272.3 276.4,271.8 277.1,271.4 277.7,271.2 278.3,270.7 278.9,270.3 279.5,269.8 280.2,269.6 280.8,269.1 281.4,268.6 282.0,268.1 282.6,267.9 283.3,267.4 283.9,266.9 284.5,266.4 285.1,266.1 285.7,265.5 286.4,265.0 287.0,264.5 287.6,272.9 288.2,272.4 288.8,272.0 289.5,271.6 290.1,271.3 290.7,270.9 291.3,270.5 291.9,270.0 292.6,269.7 293.2,269.3 293.8,268.8 294.4,268.3 295.0,268.1 295.7,267.6 296.3,267.1 296.9,266.6 297.5,266.3 298.1,265.8 298.8,265.3 299.4,264.7 300.0,273.0 300.6,272.6 301.2,272.1 301.9,271.7 302.5,271.5 303.1,271.1 303.7,270.6 304.3,270.2 305.0,269.9 305.6,269.4 306.2,269.0 306.8,268.5 307.4,268.2 308.1,267.8 308.7,267.3 309.3,266.8 309.9,266.5 310.5,266.0 311.2,265.5 311.8,264.9 312.4,273.1 313.0,272.7 313.6,272.3 314.3,271.8 314.9,271.6 315.5,271.2 316.1,270.7 316.7,270.3 317.4,270.1 318.0,269.6 318.6,269.1 319.2,268.7 319.8,268.4 320.5,267.9 321.1,267.4 321.7,266.9 322.3,266.7 322.9,266.2 323.6,265.6 324.2,265.1 324.8,273.2 325.4,272.8 326.0,272.4 326.7,272.0 327.3,271.7 327.9,271.3 328.5,270.9 329.1,270.4 329.8,270.2 330.4,269.7 331.0,269.3 331.6,268.8 332.2,268.5 332.9,268.1 333.5,267.6 334.1,267.1 334.7,266.8 335.3,266.3 336.0,265.8 336.6,265.3 337.2,273.3 337.8,272.9 338.4,272.5 339.1,272.1 339.7,271.8 340.3,271.4 340.9,271.0 341.5,270.5 342.2,270.3 342.8,269.8 343.4,269.4 344.0,268.9 344.6,268.7 345.3,268.2 345.9,267.7 346.5,267.2 347.1,267.0 347.7,266.5 348.4,266.0 349.0,265.5 349.6,273.4 350.2,273.0 350.8,272.6 351.5,272.1 352.1,271.9 352.7,271.5 353.3,271.1 353.9,270.6 354.6,270.4 355.2,269.9 355.8,269.5 356.4,269.0 357.0,268.8 357.7,268.3 358.3,267.8 358.9,267.4 359.5,267.1 360.1,266.6 360.8,266.1 361.4,265.6 362.0,273.4 362.6,273.0 363.2,272.6 363.9,272.2 364.5,272.0 365.1,271.6 365.7,271.2 366.3,270.7 367.0,270.5 367.6,270.0 368.2,269.6 368.8,269.1 369.4,268.9 370.1,268.4 370.7,268.0 371.3,267.5 371.9,267.2 372.5,266.7 373.2,266.2 373.8,265.7 374.4,273.5 375.0,273.1 375.6,272.7 376.3,272.3 376.9,272.1 377.5,271.7 378.1,271.2 378.7,270.8 379.4,270.6 380.0,270.1 380.6,269.7 381.2,269.2 381.8,269.0 382.5,268.5 383.1,268.1 383.7,267.6 384.3,267.3 384.9,266.8 385.6,266.3 386.2,265.9 386.8,273.6 387.4,273.2 388.0,272.8 388.7,272.4 389.3,272.2 389.9,271.7 390.5,271.3 391.1,270.9 391.8,270.6 392.4,270.2 393.0,269.8 393.6,269.3 394.2,269.1 394.9,268.6 395.5,268.2 396.1,267.7 396.7,267.4 397.3,266.9 398.0,266.5 398.6,266.0 399.2,265.6 399.8,264.9 400.4,264.3 401.1,263.7 401.7,263.2 402.3,262.6 402.9,261.9 403.5,261.2 404.2,260.8 404.8,260.1 405.4,259.4 406.0,258.7 406.6,258.2 407.3,257.5 407.9,256.8 408.5,256.1 409.1,255.6 409.7,254.8 410.4,254.1 411.0,253.3 411.6,252.8 412.2,252.0 412.8,251.3 413.5,250.5 414.1,249.9 414.7,249.1 415.3,248.3 415.9,247.5 416.6,246.9 417.2,246.1 417.8,245.3 418.4,244.4 419.0,243.8 419.7,242.9 420.3,242.1 420.9,241.2 421.5,240.6 422.1,239.7 422.8,238.8 423.4,237.9 424.0,237.2 424.6,236.3 425.2,235.4 425.9,234.4 426.5,233.7 427.1,232.8 427.7,231.8 428.3,230.9 429.0,230.1 429.6,229.1 430.2,228.2 430.8,227.2 431.4,226.4 432.1,225.4 432.7,224.4 433.3,223.3 433.9,222.5 434.5,221.5 435.2,220.4 435.8,219.4 436.4,218.5 437.0,217.5 437.6,216.4 438.3,215.3 438.9,214.4 439.5,213.3 440.1,212.2 440.7,211.1 441.4,210.2 442.0,209.0 442.6,207.9 443.2,206.7 443.8,205.8 444.5,204.6 445.1,203.4 445.7,202.3 446.3,201.3 446.9,200.1 447.6,198.8 448.2,197.6 448.8,196.6 449.4,195.4 450.0,194.1 450.7,192.9 451.3,191.8 451.9,190.5 452.5,189.2 453.1,188.0 453.8,186.8 454.4,185.5 455.0,184.2 455.6,182.9 456.2,181.8 456.9,180.4 457.5,179.1 458.1,177.7 458.7,176.5 459.3,175.2 460.0,173.8 460.6,172.4 461.2,171.2 461.8,169.8 462.4,168.3 463.1,166.9 463.7,165.7 464.3,164.2 464.9,162.8 465.5,161.3 466.2,160.0 466.8,158.5 467.4,157.0 468.0,155.5 468.6,154.2 469.3,152.7 469.9,151.1 470.5,149.6 471.1,148.2 471.7,146.7 472.4,145.1 473.0,143.5 473.6,142.1 474.2,140.5 474.8,138.9 475.5,137.3 476.1,135.8 476.7,134.2 477.3,132.6 477.9,130.9 478.6,129.4 479.2,127.7 479.8,126.1 480.4,124.4 481.0,122.8 481.7,121.1 482.3,119.4 482.9,117.7 483.5,116.1 484.1,114.3 484.8,112.6 485.4,110.8 486.0,109.2 486.6,107.4 487.2,105.6 487.9,103.8 488.5,102.1 489.1,100.3 489.7,98.5 490.3,96.6 491.0,94.9 491.6,93.0 492.2,91.2 492.8,89.3 493.4,87.5 494.1,85.6 494.7,83.7 495.3,81.8 495.9,80.0 496.5,78.0 497.2,76.1 497.8,74.1 498.4,72.2 499.0,70.7 499.6,69.1 500.3,67.5 500.9,66.0 501.5,64.5 502.1,62.9 502.7,61.3 503.4,59.8 504.0,58.2 504.6,56.6 505.2,54.9 505.8,53.4 506.5,51.8 507.1,50.1 507.7,48.5 508.3,47.0 508.9,45.3 509.6,43.7 510.2,42.0 510.8,194.0 511.4,193.4 512.0,192.7 512.7,192.0 513.3,191.5 513.9,190.8 514.5,190.1 515.1,189.5 515.8,188.9 516.4,188.2 517.0,187.5 517.6,186.8 518.2,186.2 518.9,185.5 519.5,184.8 520.1,184.1 520.7,183.5 521.3,182.8 522.0,182.1 522.6,181.3 523.2,222.8 523.8,222.4 524.4,221.9 525.1,221.4 525.7,221.1 526.3,220.6 526.9,220.2 527.5,219.7 528.2,219.3 528.8,218.9 529.4,218.4 530.0,217.9 530.6,217.5 531.3,217.0 531.9,216.5 532.5,216.0 533.1,215.6 533.7,215.1 534.4,214.5 535.0,214.0 535.6,237.6 536.2,237.2 536.8,236.9 537.5,236.5 538.1,236.2 538.7,235.9 539.3,235.5 539.9,235.1 540.6,234.8 541.2,234.4 541.8,234.0 542.4,233.6 543.0,233.3 543.7,232.9 544.3,232.4 544.9,232.0 545.5,231.7 546.1,231.3 546.8,230.8 547.4,230.4 548.0,247.1 548.6,246.7 549.2,246.4 549.9,246.0 550.5,245.8 551.1,245.5 551.7,245.1 552.3,244.8 553.0,244.6 553.6,244.2 554.2,243.8 554.8,243.4 555.4,243.2 556.1,242.8 556.7,242.4 557.3,242.0 557.9,241.8 558.5,241.4 559.2,241.0 559.8,240.6 560.4,253.7 561.0,253.4 561.6,253.0 562.3,252.7 562.9,252.5 563.5,252.2 564.1,251.9 564.7,251.5 565.4,251.3 566.0,251.0 566.6,250.6 567.2,250.3 567.8,250.1 568.5,249.7 569.1,249.3 569.7,248.9 570.3,248.7 570.9,248.3 571.6,247.9 572.2,247.5 572.8,258.6 573.4,258.3 574.0,257.9 574.7,257.6 575.3,257.5 575.9,257.1 576.5,256.8 577.1,256.4 577.8,256.3 578.4,255.9 579.0,255.6 579.6,255.2 580.2,255.0 580.9,254.6 581.5,254.3 582.1,253.9 582.7,253.7 583.3,253.3 584.0,252.9 584.6,252.5 585.2,252.3 585.8,251.9 586.4,251.4 587.1,251.0 587.7,250.8 588.3,250.3 588.9,249.9 589.5,249.5 590.2,249.2 590.8,248.7 591.4,248.3 592.0,247.8 592.6,247.5 593.3,247.1 593.9,246.6 594.5,246.1 595.1,245.8 595.7,245.3 596.4,244.8 597.0,244.3 597.6,257.3 598.2,256.9 598.8,256.5 599.5,256.1 600.1,255.9 600.7,255.5 601.3,255.1 601.9,254.7 602.6,254.5 603.2,254.1 603.8,253.6 604.4,253.2 605.0,253.0 605.7,252.5 606.3,252.1 606.9,251.6 607.5,251.4 608.1,250.9 608.8,250.4 609.4,250.0 610.0,261.0 610.6,260.7 611.2,260.3 611.9,259.9 612.5,259.8 613.1,259.4 613.7,259.0 614.3,258.6 615.0,258.4 615.6,258.0 616.2,257.6 616.8,257.2 617.4,256.9 618.1,256.5 618.7,256.1 619.3,255.7 619.9,255.4 620.5,255.0 621.2,254.5 621.8,254.1 622.4,264.0 623.0,263.6 623.6,263.2 624.3,262.9 624.9,262.7 625.5,262.3 626.1,261.9 626.7,261.6 627.4,261.4 628.0,261.0 628.6,260.6 629.2,260.2 629.8,259.9 630.5,259.5 631.1,259.1 631.7,258.7 632.3,258.5 632.9,258.0 633.6,257.6 634.2,257.1 634.8,266.2 635.4,265.9 636.0,265.5 636.7,265.2 637.3,265.0 637.9,264.6 638.5,264.2 639.1,263.9 639.8,263.7 640.4,263.3 641.0,262.9 641.6,262.5 642.2,262.3 642.9,261.8 643.5,261.4 644.1,261.0 644.7,260.8 645.3,260.3 646.0,259.9 646.6,259.5 647.2,268.0 647.8,267.7 648.4,267.3 649.1,266.9 649.7,266.8 650.3,266.4 650.9,266.0 651.5,265.6 652.2,265.4 652.8,265.0 653.4,264.6 654.0,264.2 654.6,264.0 655.3,263.6 655.9,263.2 656.5,262.8 657.1,262.6 657.7,262.1 658.4,261.7 659.0,261.2 659.6,269.4 660.2,269.0 660.8,268.7 661.5,268.3 662.1,268.1 662.7,267.8 663.3,267.4 663.9,267.0 664.6,266.8 665.2,266.4 665.8,266.0 666.4,265.6 667.0,265.4 667.7,265.0 668.3,264.6 668.9,264.2 669.5,263.9 670.1,263.5 670.8,263.0 671.4,262.6 672.0,270.5 672.6,270.1 673.2,269.8 673.9,269.4 674.5,269.2 675.1,268.9 675.7,268.5 676.3,268.1 677.0,267.9 677.6,267.5 678.2,267.1 678.8,266.7 679.4,266.5 680.1,266.1 680.7,265.6 681.3,265.2 681.9,265.0 682.5,264.5 683.2,264.1 683.8,263.7 684.4,271.4 685.0,271.0 685.6,270.6 686.3,270.3 686.9,270.1 687.5,269.7 688.1,269.3 688.7,268.9 689.4,268.7 690.0,268.3 690.6,267.9 691.2,267.5 691.8,267.3 692.5,266.9 693.1,266.4 693.7,266.0 694.3,265.8 694.9,265.3 695.6,264.9 696.2,264.5 696.8,272.0 697.4,271.7 698.0,271.3 698.7,270.9 699.3,270.7 699.9,270.3 700.5,270.0 701.1,269.6 701.8,269.4 702.4,269.0 703.0,268.6 703.6,268.1 704.2,267.9 704.9,267.5 705.5,267.1 706.1,266.6 706.7,266.4 707.3,266.0 708.0,265.5 708.6,265.1 709.2,272.5 709.8,272.2 710.4,271.8 711.1,271.4 711.7,271.2 712.3,270.8 712.9,270.5 713.5,270.1 714.2,269.9 714.8,269.5 715.4,269.0 716.0,268.6 716.6,268.4 717.3,268.0 717.9,267.6 718.5,267.1 719.1,266.9 719.7,266.4 720.4,266.0 721.0,265.5 721.6,272.9 722.2,272.6 722.8,272.2 723.5,271.8 724.1,271.6 724.7,271.2 725.3,270.8 725.9,270.4 726.6,270.2 727.2,269.8 727.8,269.4 728.4,269.0 729.0,268.8 729.7,268.4 730.3,267.9 730.9,267.5 731.5,267.2 732.1,266.8 732.8,266.3 733.4,265.9 734.0,273.3 734.6,272.9 735.2,272.5 735.9,272.1 736.5,271.9 737.1,271.5 737.7,271.1 738.3,270.7 739.0,270.5 739.6,270.1 740.2,269.7 740.8,269.3 741.4,269.1 742.1,268.6 742.7,268.2 743.3,267.8 743.9,267.5 744.5,267.1 745.2,266.6 745.8,266.2 746.4,273.5 747.0,273.1 747.6,272.7 748.3,272.4 748.9,272.2 749.5,271.8 750.1,271.4 750.7,271.0 751.4,270.8 752.0,270.3 752.6,269.9 753.2,269.5 753.8,269.3 754.5,268.9 755.1,268.4 755.7,268.0 756.3,267.7 756.9,267.3 757.6,266.8 758.2,266.4 758.8,273.7 759.4,273.3 760.0,272.9 760.7,272.5 761.3,272.3 761.9,271.9 762.5,271.5 763.1,271.1 763.8,270.9 764.4,270.5 765.0,270.1 765.6,269.7 766.2,269.4 766.9,269.0 767.5,268.6 768.1,268.1 768.7,267.9 769.3,267.4 770.0,267.0 770.6,266.5 771.2,273.8 771.8,273.4 772.4,273.1 773.1,272.7 773.7,272.5 774.3,272.1 774.9,271.7 775.5,271.3 776.2,271.1 776.8,270.6 777.4,270.2 778.0,269.8 778.6,269.6 779.3,269.1 779.9,268.7 780.5,268.3 781.1,268.0 781.7,267.6 782.4,267.1 783.0,266.7 783.6,273.9 784.2,273.5 784.8,273.2 785.5,272.8 786.1,272.6 786.7,272.2 787.3,271.8 787.9,271.4 788.6,271.2 789.2,270.7 789.8,270.3 790.4,269.9 791.0,269.7 791.7,269.2 792.3,268.8 792.9,268.4 793.5,268.1 794.1,267.7 794.8,267.2 795.4,266.7 796.0,274.0"/>
<text x="640" y="56" font-family="Arial" font-size="12" fill="#0f766e">conservative covariance trace</text>
</svg>