<svg xmlns="http://www.w3.org/2000/svg" width="820" height="320" viewBox="0 0 820 320">
<rect width="100%" height="100%" fill="white"/>
<text x="52" y="30" font-family="Arial" font-size="18" font-weight="700">ekf_dropout_robust covariance bounds</text>
<line x1="52" y1="274" x2="796" y2="274" stroke="#263238"/>
<line x1="52" y1="42" x2="52" y2="274" stroke="#263238"/>
<text x="52" y="306" font-family="Arial" font-size="12">time (s)</text>
<text x="630" y="306" font-family="Arial" font-size="12">m</text>

<rect x="399.2" y="42" width="99.2" height="232" fill="#fef3c7" opacity="0.72"/>
<polyline fill="none" stroke="#0f766e" stroke-width="2.3" points="52.0,194.3 52.6,194.0 53.2,193.7 53.9,193.4 54.5,193.0 55.1,192.7 55.7,192.3 56.3,191.9 57.0,191.6 57.6,191.2 58.2,190.8 58.8,190.4 59.4,190.6 60.1,190.3 60.7,189.9 61.3,189.6 61.9,189.3 62.5,189.0 63.2,188.7 63.8,188.3 64.4,236.1 65.0,236.3 65.6,236.4 66.3,236.5 66.9,236.3 67.5,236.1 68.1,235.8 68.7,235.4 69.4,234.9 70.0,234.3 70.6,233.6 71.2,232.9 71.8,232.2 72.5,231.3 73.1,230.4 73.7,229.4 74.3,228.4 74.9,227.3 75.6,226.1 76.2,224.9 76.8,239.5 77.4,238.8 78.0,238.0 78.7,237.2 79.3,236.3 79.9,235.4 80.5,234.5 81.1,233.5 81.8,232.5 82.4,231.5 83.0,230.4 83.6,229.3 84.2,228.0 84.9,226.9 85.5,225.7 86.1,224.5 86.7,223.0 87.3,221.7 88.0,220.4 88.6,219.2 89.2,245.5 89.8,245.7 90.4,246.0 91.1,246.2 91.7,246.9 92.3,247.2 92.9,247.4 93.5,247.7 94.2,247.8 94.8,248.1 95.4,248.3 96.0,248.5 96.6,249.0 97.3,249.2 97.9,249.5 98.5,249.7 99.1,249.8 99.7,250.0 100.4,250.2 101.0,250.4 101.6,242.2 102.2,242.2 102.8,242.2 103.5,242.2 104.1,242.3 104.7,242.3 105.3,242.3 105.9,242.3 106.6,242.1 107.2,242.1 107.8,242.0 108.4,241.9 109.0,242.5 109.7,242.5 110.3,242.4 110.9,242.4 111.5,242.3 112.1,242.3 112.8,242.2 113.4,242.2 114.0,243.9 114.6,243.4 115.2,242.9 115.9,242.4 116.5,241.9 117.1,241.4 117.7,240.9 118.3,240.3 119.0,239.7 119.6,239.1 120.2,238.6 120.8,238.0 121.4,237.3 122.1,236.7 122.7,236.1 123.3,235.5 123.9,234.7 124.5,234.1 125.2,233.4 125.8,232.8 126.4,253.8 127.0,253.1 127.6,252.3 128.3,251.5 128.9,251.0 129.5,250.2 130.1,249.4 130.7,248.6 131.4,247.5 132.0,246.7 132.6,245.8 133.2,245.0 133.8,244.6 134.5,243.7 135.1,242.9 135.7,242.1 136.3,241.3 136.9,240.4 137.6,239.6 138.2,238.7 138.8,259.0 139.4,258.5 140.0,258.0 140.7,257.4 141.3,256.8 141.9,256.3 142.5,255.7 143.1,255.2 143.8,254.6 144.4,254.1 145.0,253.5 145.6,253.0 146.2,252.4 146.9,251.9 147.5,251.3 148.1,250.8 148.7,250.2 149.3,249.7 150.0,249.1 150.6,248.5 151.2,274.0 151.8,273.9 152.4,273.7 153.1,273.6 153.7,271.4 154.3,271.2 154.9,271.0 155.5,270.7 156.2,268.8 156.8,268.5 157.4,268.2 158.0,268.0 158.6,267.9 159.3,267.6 159.9,267.3 160.5,267.0 161.1,267.9 161.7,267.6 162.4,267.3 163.0,267.0 163.6,263.4 164.2,263.1 164.8,262.8 165.5,262.5 166.1,262.5 166.7,262.2 167.3,261.9 167.9,261.6 168.6,261.3 169.2,261.0 169.8,260.6 170.4,260.3 171.0,260.0 171.7,259.6 172.3,259.3 172.9,258.9 173.5,258.6 174.1,258.2 174.8,257.8 175.4,257.5 176.0,270.1 176.6,270.0 177.2,269.9 177.9,269.9 178.5,269.4 179.1,269.3 179.7,269.1 180.3,269.0 181.0,267.9 181.6,267.8 182.2,267.6 182.8,267.5 183.4,268.0 184.1,267.9 184.7,267.7 185.3,267.6 185.9,266.4 186.5,266.3 187.2,266.0 187.8,265.8 188.4,245.4 189.0,245.0 189.6,244.7 190.3,244.4 190.9,244.3 191.5,244.0 192.1,243.7 192.7,243.4 193.4,243.2 194.0,242.9 194.6,242.5 195.2,242.2 195.8,241.3 196.5,240.9 197.1,240.6 197.7,240.2 198.3,240.4 198.9,240.1 199.6,239.7 200.2,239.4 200.8,257.4 201.4,257.2 202.0,257.0 202.7,256.8 203.3,256.7 203.9,256.5 204.5,256.3 205.1,256.1 205.8,255.9 206.4,255.6 207.0,255.4 207.6,255.2 208.2,255.0 208.9,254.7 209.5,254.5 210.1,254.2 210.7,254.0 211.3,253.7 212.0,253.5 212.6,253.2 213.2,258.0 213.8,257.9 214.4,257.8 215.1,257.8 215.7,257.7 216.3,257.7 216.9,257.6 217.5,257.5 218.2,257.3 218.8,257.2 219.4,257.1 220.0,257.0 220.6,256.9 221.3,256.9 221.9,256.8 222.5,256.7 223.1,256.4 223.7,256.3 224.4,256.2 225.0,256.1 225.6,253.4 226.2,253.2 226.8,253.0 227.5,252.8 228.1,252.5 228.7,252.2 229.3,252.0 229.9,251.8 230.6,251.2 231.2,251.0 231.8,250.7 232.4,250.5 233.0,249.5 233.7,249.3 234.3,249.0 234.9,248.7 235.5,248.4 236.1,248.1 236.8,247.8 237.4,247.5 238.0,264.9 238.6,264.9 239.2,264.8 239.9,264.7 240.5,266.0 241.1,265.9 241.7,265.9 242.3,265.8 243.0,265.1 243.6,265.0 244.2,264.9 244.8,264.8 245.4,265.9 246.1,265.7 246.7,265.6 247.3,265.4 247.9,265.3 248.5,265.1 249.2,264.9 249.8,264.7 250.4,271.5 251.0,271.4 251.6,271.2 252.3,271.1 252.9,271.5 253.5,271.2 254.1,271.0 254.7,270.7 255.4,270.4 256.0,270.2 256.6,269.9 257.2,269.6 257.8,269.3 258.5,269.0 259.1,268.7 259.7,268.4 260.3,267.8 260.9,267.4 261.6,267.1 262.2,266.8 262.8,270.7 263.4,270.8 264.0,270.8 264.7,270.9 265.3,270.6 265.9,270.6 266.5,270.5 267.1,270.5 267.8,271.1 268.4,271.0 269.0,271.0 269.6,270.9 270.2,270.7 270.9,270.6 271.5,270.5 272.1,270.3 272.7,270.4 273.3,270.2 274.0,270.1 274.6,269.9 275.2,250.3 275.8,249.9 276.4,249.4 277.1,249.0 277.7,248.5 278.3,248.1 278.9,247.6 279.5,247.2 280.2,246.9 280.8,246.4 281.4,246.0 282.0,245.5 282.6,245.0 283.3,244.6 283.9,244.1 284.5,243.6 285.1,243.1 285.7,242.6 286.4,242.2 287.0,241.7 287.6,246.3 288.2,245.8 288.8,245.4 289.5,244.9 290.1,244.5 290.7,244.1 291.3,243.6 291.9,243.2 292.6,242.8 293.2,242.4 293.8,241.9 294.4,241.5 295.0,241.0 295.7,240.5 296.3,240.0 296.9,239.6 297.5,239.1 298.1,238.6 298.8,238.1 299.4,237.6 300.0,269.5 300.6,269.4 301.2,269.4 301.9,269.3 302.5,269.6 303.1,269.5 303.7,269.4 304.3,269.3 305.0,268.9 305.6,268.8 306.2,268.7 306.8,268.6 307.4,268.5 308.1,268.4 308.7,268.2 309.3,268.1 309.9,268.1 310.5,268.0 311.2,267.8 311.8,267.6 312.4,261.5 313.0,261.3 313.6,261.2 314.3,261.0 314.9,260.8 315.5,260.6 316.1,260.4 316.7,260.2 317.4,260.3 318.0,260.1 318.6,259.9 319.2,259.7 319.8,259.2 320.5,259.0 321.1,258.8 321.7,258.5 322.3,258.6 322.9,258.4 323.6,258.2 324.2,258.0 324.8,255.0 325.4,254.8 326.0,254.6 326.7,254.4 327.3,254.4 327.9,254.2 328.5,254.0 329.1,253.8 329.8,253.9 330.4,253.7 331.0,253.5 331.6,253.3 332.2,253.5 332.9,253.3 333.5,253.1 334.1,252.9 334.7,252.6 335.3,252.4 336.0,252.1 336.6,251.9 337.2,249.4 337.8,249.3 338.4,249.2 339.1,249.1 339.7,248.9 340.3,248.8 340.9,248.6 341.5,248.5 342.2,249.1 342.8,249.0 343.4,248.9 344.0,248.8 344.6,248.7 345.3,248.6 345.9,248.5 346.5,248.4 347.1,248.8 347.7,248.7 348.4,248.6 349.0,248.5 349.6,257.0 350.2,257.0 350.8,257.0 351.5,257.0 352.1,257.4 352.7,257.5 353.3,257.5 353.9,257.5 354.6,256.8 355.2,256.8 355.8,256.8 356.4,256.8 357.0,257.2 357.7,257.2 358.3,257.2 358.9,257.3 359.5,257.3 360.1,257.3 360.8,257.3 361.4,257.3 362.0,259.4 362.6,259.5 363.2,259.5 363.9,259.5 364.5,259.3 365.1,259.3 365.7,259.3 366.3,259.3 367.0,259.9 367.6,260.0 368.2,260.0 368.8,260.0 369.4,260.2 370.1,260.2 370.7,260.2 371.3,260.2 371.9,260.5 372.5,260.5 373.2,260.5 373.8,260.5 374.4,255.0 375.0,254.9 375.6,254.7 376.3,254.6 376.9,254.4 377.5,254.2 378.1,254.1 378.7,253.9 379.4,253.9 380.0,253.7 380.6,253.5 381.2,253.4 381.8,253.1 382.5,253.0 383.1,252.8 383.7,252.6 384.3,252.5 384.9,252.3 385.6,252.1 386.2,251.9 386.8,264.5 387.4,264.4 388.0,264.3 388.7,264.2 389.3,264.1 389.9,264.0 390.5,263.9 391.1,263.7 391.8,263.6 392.4,263.5 393.0,263.4 393.6,263.2 394.2,263.1 394.9,263.0 395.5,262.8 396.1,262.7 396.7,262.6 397.3,262.4 398.0,262.3 398.6,262.1 399.2,261.9 399.8,261.8 400.4,261.6 401.1,261.4 401.7,261.3 402.3,261.1 402.9,260.9 403.5,260.7 404.2,260.6 404.8,260.4 405.4,260.2 406.0,260.0 406.6,259.7 407.3,259.5 407.9,259.3 408.5,259.1 409.1,258.9 409.7,258.7 410.4,258.5 411.0,258.3 411.6,258.1 412.2,257.9 412.8,257.6 413.5,257.4 414.1,257.3 414.7,257.1 415.3,256.8 415.9,256.6 416.6,256.4 417.2,256.1 417.8,255.9 418.4,255.7 419.0,255.4 419.7,255.1 420.3,254.9 420.9,254.6 421.5,254.1 422.1,253.9 422.8,253.6 423.4,253.3 424.0,253.2 424.6,252.9 425.2,252.6 425.9,252.4 426.5,251.9 427.1,251.6 427.7,251.3 428.3,251.0 429.0,250.7 429.6,250.4 430.2,250.1 430.8,249.8 431.4,249.7 432.1,249.4 432.7,249.1 433.3,248.8 433.9,248.6 434.5,248.3 435.2,248.0 435.8,247.7 436.4,247.4 437.0,247.1 437.6,246.8 438.3,246.5 438.9,246.3 439.5,246.0 440.1,245.7 440.7,245.3 441.4,245.1 442.0,244.8 442.6,244.5 443.2,244.2 443.8,243.6 444.5,243.3 445.1,243.0 445.7,242.6 446.3,242.8 446.9,242.5 447.6,242.1 448.2,241.8 448.8,241.6 449.4,241.3 450.0,240.9 450.7,240.6 451.3,240.3 451.9,239.9 452.5,239.6 453.1,239.3 453.8,238.4 454.4,238.0 455.0,237.7 455.6,237.3 456.2,237.3 456.9,236.9 457.5,236.6 458.1,236.2 458.7,236.0 459.3,235.6 460.0,235.3 460.6,234.9 461.2,234.9 461.8,234.5 462.4,234.1 463.1,233.8 463.7,233.3 464.3,233.0 464.9,232.6 465.5,232.2 466.2,231.9 466.8,231.5 467.4,231.1 468.0,230.8 468.6,230.2 469.3,229.9 469.9,229.5 470.5,229.1 471.1,228.9 471.7,228.5 472.4,228.1 473.0,227.7 473.6,227.3 474.2,227.0 474.8,226.6 475.5,226.2 476.1,225.8 476.7,225.4 477.3,225.0 477.9,224.6 478.6,224.2 479.2,223.8 479.8,223.4 480.4,223.0 481.0,222.6 481.7,222.2 482.3,221.8 482.9,221.4 483.5,220.9 484.1,220.5 484.8,220.1 485.4,219.7 486.0,219.3 486.6,218.9 487.2,218.5 487.9,218.0 488.5,217.7 489.1,217.3 489.7,216.9 490.3,216.4 491.0,216.0 491.6,215.5 492.2,215.1 492.8,214.7 493.4,214.3 494.1,213.9 494.7,213.5 495.3,213.1 495.9,212.5 496.5,212.0 497.2,211.6 497.8,211.2 498.4,210.6 499.0,210.2 499.6,209.7 500.3,209.3 500.9,208.7 501.5,208.3 502.1,207.8 502.7,207.4 503.4,207.1 504.0,206.7 504.6,206.2 505.2,205.7 505.8,205.6 506.5,205.2 507.1,204.7 507.7,204.3 508.3,203.8 508.9,203.3 509.6,202.8 510.2,202.4 510.8,262.6 511.4,262.5 512.0,262.3 512.7,262.1 513.3,262.1 513.9,261.9 514.5,261.7 515.1,261.5 515.8,261.7 516.4,261.5 517.0,261.4 517.6,261.2 518.2,261.2 518.9,261.0 519.5,260.8 520.1,260.6 520.7,260.2 521.3,260.1 522.0,259.9 522.6,259.7 523.2,270.6 523.8,270.5 524.4,270.4 525.1,270.2 525.7,270.7 526.3,270.6 526.9,270.5 527.5,270.4 528.2,270.0 528.8,269.9 529.4,269.8 530.0,269.7 530.6,269.6 531.3,269.5 531.9,269.4 532.5,269.3 533.1,269.1 533.7,268.9 534.4,268.8 535.0,268.7 535.6,254.2 536.2,254.0 536.8,253.8 537.5,253.7 538.1,253.2 538.7,253.0 539.3,252.8 539.9,252.6 540.6,252.0 541.2,251.8 541.8,251.6 542.4,251.3 543.0,251.5 543.7,251.3 544.3,251.1 544.9,250.9 545.5,250.5 546.1,250.2 546.8,250.0 547.4,249.8 548.0,254.2 548.6,254.0 549.2,253.8 549.9,253.6 550.5,252.9 551.1,252.7 551.7,252.5 552.3,252.3 553.0,252.0 553.6,251.8 554.2,251.6 554.8,251.4 555.4,252.5 556.1,252.4 556.7,252.2 557.3,252.0 557.9,252.1 558.5,251.9 559.2,251.8 559.8,251.6 560.4,255.8 561.0,255.7 561.6,255.6 562.3,255.4 562.9,255.1 563.5,255.0 564.1,254.8 564.7,254.7 565.4,255.0 566.0,254.8 566.6,254.7 567.2,254.6 567.8,254.6 568.5,254.4 569.1,254.3 569.7,254.2 570.3,254.2 570.9,254.1 571.6,254.0 572.2,253.8 572.8,247.9 573.4,247.7 574.0,247.5 574.7,247.3 575.3,247.2 575.9,247.0 576.5,246.8 577.1,246.6 577.8,246.4 578.4,246.2 579.0,246.0 579.6,245.8 580.2,245.5 580.9,245.3 581.5,245.1 582.1,244.9 582.7,244.7 583.3,244.5 584.0,244.3 584.6,244.1 585.2,243.8 585.8,243.6 586.4,243.4 587.1,243.2 587.7,243.0 588.3,242.8 588.9,242.6 589.5,242.3 590.2,242.0 590.8,241.8 591.4,241.5 592.0,241.3 592.6,241.2 593.3,240.9 593.9,240.7 594.5,240.5 595.1,240.0 595.7,239.8 596.4,239.6 597.0,239.3 597.6,248.7 598.2,248.5 598.8,248.4 599.5,248.2 600.1,248.6 600.7,248.5 601.3,248.3 601.9,248.2 602.6,248.5 603.2,248.3 603.8,248.2 604.4,248.0 605.0,248.1 605.7,248.0 606.3,247.9 606.9,247.7 607.5,247.5 608.1,247.3 608.8,247.2 609.4,247.0 610.0,250.1 610.6,249.9 611.2,249.8 611.9,249.6 612.5,249.6 613.1,249.4 613.7,249.3 614.3,249.1 615.0,248.9 615.6,248.8 616.2,248.6 616.8,248.5 617.4,248.2 618.1,248.0 618.7,247.9 619.3,247.7 619.9,247.5 620.5,247.3 621.2,247.2 621.8,247.0 622.4,264.2 623.0,264.1 623.6,264.0 624.3,263.9 624.9,264.9 625.5,264.9 626.1,264.8 626.7,264.8 627.4,264.8 628.0,264.8 628.6,264.7 629.2,264.6 629.8,265.0 630.5,264.9 631.1,264.8 631.7,264.8 632.3,265.1 632.9,265.0 633.6,265.0 634.2,264.9 634.8,257.3 635.4,257.2 636.0,257.0 636.7,256.9 637.3,257.0 637.9,256.9 638.5,256.8 639.1,256.7 639.8,256.4 640.4,256.3 641.0,256.2 641.6,256.0 642.2,255.5 642.9,255.3 643.5,255.2 644.1,255.0 644.7,255.5 645.3,255.3 646.0,255.2 646.6,255.1 647.2,265.1 647.8,265.0 648.4,264.9 649.1,264.8 649.7,264.7 650.3,264.6 650.9,264.5 651.5,264.4 652.2,264.0 652.8,263.9 653.4,263.8 654.0,263.7 654.6,263.5 655.3,263.4 655.9,263.3 656.5,263.2 657.1,263.3 657.7,263.2 658.4,263.1 659.0,263.0 659.6,270.0 660.2,269.9 660.8,269.8 661.5,269.7 662.1,269.5 662.7,269.4 663.3,269.3 663.9,269.2 664.6,272.1 665.2,272.0 665.8,271.9 666.4,271.8 667.0,272.5 667.7,272.4 668.3,272.3 668.9,272.3 669.5,271.2 670.1,271.1 670.8,271.0 671.4,270.9 672.0,267.9 672.6,267.8 673.2,267.6 673.9,267.5 674.5,267.4 675.1,267.2 675.7,267.1 676.3,266.9 677.0,266.8 677.6,266.7 678.2,266.5 678.8,266.4 679.4,266.2 680.1,266.0 680.7,265.8 681.3,265.6 681.9,265.5 682.5,265.3 683.2,265.2 683.8,265.0 684.4,263.4 685.0,263.4 685.6,263.4 686.3,263.3 686.9,263.3 687.5,263.3 688.1,263.3 688.7,263.2 689.4,263.2 690.0,263.1 690.6,263.1 691.2,263.1 691.8,263.0 692.5,263.0 693.1,262.9 693.7,262.9 694.3,262.8 694.9,262.7 695.6,262.7 696.2,262.7 696.8,267.8 697.4,267.8 698.0,267.8 698.7,267.8 699.3,266.9 699.9,266.9 700.5,266.8 701.1,266.8 701.8,265.9 702.4,265.8 703.0,265.8 703.6,265.7 704.2,267.2 704.9,267.2 705.5,267.2 706.1,267.2 706.7,267.4 707.3,267.4 708.0,267.4 708.6,267.4 709.2,269.0 709.8,268.9 710.4,268.8 711.1,268.8 711.7,269.0 712.3,269.0 712.9,268.9 713.5,268.8 714.2,269.0 714.8,268.9 715.4,268.9 716.0,268.8 716.6,268.5 717.3,268.5 717.9,268.4 718.5,268.3 719.1,268.4 719.7,268.3 720.4,268.2 721.0,268.2 721.6,265.5 722.2,265.5 722.8,265.5 723.5,265.4 724.1,265.4 724.7,265.4 725.3,265.4 725.9,265.3 726.6,265.2 727.2,265.2 727.8,265.1 728.4,265.1 729.0,265.2 729.7,265.2 730.3,265.1 730.9,265.1 731.5,265.1 732.1,265.0 732.8,265.0 733.4,265.0 734.0,257.5 734.6,257.3 735.2,257.2 735.9,257.1 736.5,257.0 737.1,256.9 737.7,256.8 738.3,256.7 739.0,256.5 739.6,256.4 740.2,256.3 740.8,256.2 741.4,256.0 742.1,255.9 742.7,255.8 743.3,255.7 743.9,255.6 744.5,255.4 745.2,255.3 745.8,255.2 746.4,253.2 747.0,253.0 747.6,252.9 748.3,252.7 748.9,252.6 749.5,252.4 750.1,252.3 750.7,252.1 751.4,252.1 752.0,251.9 752.6,251.8 753.2,251.6 753.8,251.5 754.5,251.4 755.1,251.2 755.7,251.1 756.3,250.8 756.9,250.7 757.6,250.5 758.2,250.4 758.8,267.7 759.4,267.7 760.0,267.6 760.7,267.6 761.3,267.6 761.9,267.6 762.5,267.5 763.1,267.5 763.8,267.5 764.4,267.4 765.0,267.4 765.6,267.4 766.2,267.3 766.9,267.3 767.5,267.2 768.1,267.2 768.7,267.0 769.3,267.0 770.0,266.9 770.6,266.9 771.2,272.6 771.8,272.5 772.4,272.5 773.1,272.4 773.7,272.1 774.3,272.0 774.9,271.9 775.5,271.8 776.2,272.4 776.8,272.3 777.4,272.2 778.0,272.1 778.6,270.2 779.3,270.1 779.9,270.0 780.5,269.9 781.1,269.6 781.7,269.5 782.4,269.4 783.0,269.3 783.6,268.0 784.2,267.9 784.8,267.9 785.5,267.8 786.1,268.6 786.7,268.6 787.3,268.5 787.9,268.4 788.6,268.0 789.2,267.9 789.8,267.9 790.4,267.8 791.0,266.4 791.7,266.3 792.3,266.2 792.9,266.1 793.5,267.3 794.1,267.3 794.8,267.2 795.4,267.1 796.0,257.4"/>
<text x="640" y="56" font-family="Arial" font-size="12" fill="#0f766e">position error</text>
<polyline fill="none" stroke="#2563eb" stroke-width="2.3" points="52.0,221.7 52.6,221.5 53.2,221.1 53.9,220.3 54.5,220.6 55.1,219.5 55.7,218.1 56.3,216.4 57.0,215.8 57.6,214.0 58.2,212.0 58.8,209.9 59.4,208.7 60.1,206.4 60.7,204.0 61.3,201.5 61.9,199.8 62.5,197.2 63.2,194.6 63.8,191.9 64.4,226.3 65.0,224.7 65.6,222.9 66.3,221.1 66.9,219.8 67.5,217.9 68.1,215.9 68.7,213.9 69.4,212.3 70.0,210.2 70.6,208.0 71.2,205.9 71.8,204.0 72.5,201.7 73.1,199.5 73.7,197.2 74.3,195.2 74.9,192.8 75.6,190.5 76.2,188.1 76.8,226.0 77.4,224.6 78.0,223.3 78.7,221.8 79.3,220.7 79.9,219.2 80.5,217.8 81.1,216.3 81.8,215.0 82.4,213.4 83.0,211.9 83.6,210.3 84.2,208.9 84.9,207.3 85.5,205.7 86.1,204.1 86.7,202.6 87.3,200.9 88.0,199.3 88.6,197.6 89.2,227.9 89.8,226.9 90.4,225.8 91.1,224.7 91.7,223.8 92.3,222.7 92.9,221.6 93.5,220.4 94.2,219.5 94.8,218.3 95.4,217.1 96.0,215.9 96.6,214.8 97.3,213.6 97.9,212.3 98.5,211.1 99.1,209.9 99.7,208.7 100.4,207.3 101.0,206.0 101.6,230.0 102.2,229.1 102.8,228.2 103.5,227.2 104.1,226.5 104.7,225.5 105.3,224.6 105.9,223.6 106.6,222.7 107.2,221.7 107.8,220.7 108.4,219.6 109.0,218.7 109.7,217.6 110.3,216.5 110.9,215.4 111.5,214.4 112.1,213.2 112.8,212.1 113.4,210.9 114.0,231.4 114.6,230.5 115.2,229.7 115.9,228.8 116.5,228.1 117.1,227.2 117.7,226.2 118.3,225.3 119.0,224.5 119.6,223.5 120.2,222.5 120.8,221.5 121.4,220.6 122.1,219.5 122.7,218.4 123.3,217.3 123.9,216.4 124.5,215.2 125.2,214.1 125.8,212.9 126.4,232.0 127.0,231.2 127.6,230.3 128.3,229.4 128.9,228.7 129.5,227.8 130.1,226.9 130.7,225.9 131.4,225.1 132.0,224.1 132.6,223.1 133.2,222.1 133.8,221.2 134.5,220.1 135.1,219.0 135.7,217.9 136.3,216.9 136.9,215.8 137.6,214.6 138.2,213.4 138.8,232.2 139.4,231.4 140.0,230.5 140.7,229.6 141.3,228.9 141.9,228.0 142.5,227.0 143.1,226.1 143.8,225.2 144.4,224.3 145.0,223.3 145.6,222.3 146.2,221.3 146.9,220.3 147.5,219.2 148.1,218.1 148.7,217.1 149.3,216.0 150.0,214.9 150.6,213.7 151.2,232.3 151.8,231.5 152.4,230.7 153.1,229.8 153.7,229.0 154.3,228.2 154.9,227.3 155.5,226.3 156.2,225.5 156.8,224.6 157.4,223.6 158.0,222.6 158.6,221.7 159.3,220.7 159.9,219.7 160.5,218.6 161.1,217.7 161.7,216.6 162.4,215.5 163.0,214.4 163.6,232.6 164.2,231.8 164.8,231.0 165.5,230.2 166.1,229.5 166.7,228.6 167.3,227.8 167.9,226.9 168.6,226.1 169.2,225.2 169.8,224.3 170.4,223.4 171.0,222.5 171.7,221.6 172.3,220.6 172.9,219.6 173.5,218.7 174.1,217.7 174.8,216.7 175.4,215.7 176.0,233.1 176.6,232.3 177.2,231.6 177.9,230.8 178.5,230.1 179.1,229.3 179.7,228.5 180.3,227.7 181.0,227.0 181.6,226.2 182.2,225.3 182.8,224.5 183.4,223.7 184.1,222.8 184.7,221.9 185.3,221.0 185.9,220.2 186.5,219.3 187.2,218.3 187.8,217.4 188.4,233.7 189.0,233.0 189.6,232.3 190.3,231.6 190.9,231.0 191.5,230.2 192.1,229.5 192.7,228.8 193.4,228.1 194.0,227.3 194.6,226.5 195.2,225.8 195.8,225.0 196.5,224.2 197.1,223.4 197.7,222.6 198.3,221.8 198.9,221.0 199.6,220.2 200.2,219.3 200.8,234.4 201.4,233.8 202.0,233.1 202.7,232.5 203.3,231.9 203.9,231.2 204.5,230.6 205.1,229.9 205.8,229.2 206.4,228.6 207.0,227.8 207.6,227.1 208.2,226.5 208.9,225.7 209.5,225.0 210.1,224.3 210.7,223.6 211.3,222.8 212.0,222.0 212.6,221.3 213.2,235.2 213.8,234.6 214.4,234.0 215.1,233.4 215.7,232.9 216.3,232.3 216.9,231.6 217.5,231.0 218.2,230.4 218.8,229.8 219.4,229.2 220.0,228.5 220.6,227.9 221.3,227.2 221.9,226.5 222.5,225.9 223.1,225.2 223.7,224.5 224.4,223.8 225.0,223.1 225.6,236.0 226.2,235.4 226.8,234.9 227.5,234.3 228.1,233.8 228.7,233.3 229.3,232.7 229.9,232.1 230.6,231.6 231.2,231.0 231.8,230.4 232.4,229.8 233.0,229.3 233.7,228.6 234.3,228.0 234.9,227.4 235.5,226.8 236.1,226.2 236.8,225.5 237.4,224.9 238.0,236.7 238.6,236.2 239.2,235.7 239.9,235.2 240.5,234.8 241.1,234.2 241.7,233.7 242.3,233.2 243.0,232.7 243.6,232.1 244.2,231.6 244.8,231.0 245.4,230.5 246.1,230.0 246.7,229.4 247.3,228.8 247.9,228.3 248.5,227.7 249.2,227.1 249.8,226.5 250.4,237.5 251.0,237.0 251.6,236.5 252.3,236.1 252.9,235.6 253.5,235.1 254.1,234.7 254.7,234.2 255.4,233.7 256.0,233.2 256.6,232.7 257.2,232.2 257.8,231.7 258.5,231.2 259.1,230.7 259.7,230.1 260.3,229.7 260.9,229.1 261.6,228.6 262.2,228.0 262.8,238.2 263.4,237.7 264.0,237.3 264.7,236.9 265.3,236.5 265.9,236.0 266.5,235.5 267.1,235.1 267.8,234.7 268.4,234.2 269.0,233.7 269.6,233.3 270.2,232.8 270.9,232.3 271.5,231.8 272.1,231.4 272.7,230.9 273.3,230.4 274.0,229.9 274.6,229.4 275.2,238.8 275.8,238.4 276.4,238.0 277.1,237.6 277.7,237.2 278.3,236.8 278.9,236.4 279.5,235.9 280.2,235.6 280.8,235.1 281.4,234.7 282.0,234.2 282.6,233.8 283.3,233.4 283.9,232.9 284.5,232.5 285.1,232.0 285.7,231.6 286.4,231.1 287.0,230.6 287.6,239.5 288.2,239.1 288.8,238.7 289.5,238.3 290.1,237.9 290.7,237.5 291.3,237.1 291.9,236.7 292.6,236.4 293.2,236.0 293.8,235.5 294.4,235.1 295.0,234.7 295.7,234.3 296.3,233.9 296.9,233.5 297.5,233.1 298.1,232.6 298.8,232.2 299.4,231.7 300.0,240.0 300.6,239.7 301.2,239.3 301.9,238.9 302.5,238.6 303.1,238.2 303.7,237.8 304.3,237.5 305.0,237.1 305.6,236.7 306.2,236.3 306.8,235.9 307.4,235.6 308.1,235.2 308.7,234.8 309.3,234.4 309.9,234.0 310.5,233.6 311.2,233.2 311.8,232.8 312.4,240.6 313.0,240.2 313.6,239.9 314.3,239.5 314.9,239.2 315.5,238.9 316.1,238.5 316.7,238.1 317.4,237.8 318.0,237.4 318.6,237.1 319.2,236.7 319.8,236.4 320.5,236.0 321.1,235.6 321.7,235.2 322.3,234.9 322.9,234.5 323.6,234.1 324.2,233.7 324.8,241.1 325.4,240.7 326.0,240.4 326.7,240.1 327.3,239.8 327.9,239.4 328.5,239.1 329.1,238.7 329.8,238.4 330.4,238.1 331.0,237.7 331.6,237.4 332.2,237.1 332.9,236.7 333.5,236.3 334.1,235.9 334.7,235.6 335.3,235.2 336.0,234.9 336.6,234.5 337.2,241.5 337.8,241.2 338.4,240.9 339.1,240.6 339.7,240.3 340.3,240.0 340.9,239.6 341.5,239.3 342.2,239.0 342.8,238.7 343.4,238.3 344.0,238.0 344.6,237.7 345.3,237.3 345.9,237.0 346.5,236.6 347.1,236.3 347.7,236.0 348.4,235.6 349.0,235.2 349.6,241.9 350.2,241.6 350.8,241.3 351.5,241.0 352.1,240.8 352.7,240.4 353.3,240.1 353.9,239.8 354.6,239.5 355.2,239.2 355.8,238.9 356.4,238.5 357.0,238.3 357.7,237.9 358.3,237.6 358.9,237.2 359.5,236.9 360.1,236.6 360.8,236.2 361.4,235.9 362.0,242.3 362.6,242.0 363.2,241.7 363.9,241.4 364.5,241.2 365.1,240.9 365.7,240.6 366.3,240.2 367.0,240.0 367.6,239.7 368.2,239.4 368.8,239.0 369.4,238.8 370.1,238.4 370.7,238.1 371.3,237.8 371.9,237.5 372.5,237.2 373.2,236.8 373.8,236.5 374.4,242.7 375.0,242.4 375.6,242.1 376.3,241.8 376.9,241.6 377.5,241.3 378.1,241.0 378.7,240.7 379.4,240.4 380.0,240.1 380.6,239.8 381.2,239.5 381.8,239.2 382.5,238.9 383.1,238.6 383.7,238.3 384.3,238.0 384.9,237.7 385.6,237.4 386.2,237.0 386.8,243.0 387.4,242.7 388.0,242.4 388.7,242.1 389.3,241.9 389.9,241.6 390.5,241.3 391.1,241.0 391.8,240.8 392.4,240.5 393.0,240.2 393.6,239.9 394.2,239.6 394.9,239.3 395.5,239.0 396.1,238.7 396.7,238.4 397.3,238.1 398.0,237.8 398.6,237.5 399.2,237.1 399.8,236.6 400.4,236.1 401.1,235.6 401.7,235.2 402.3,234.7 402.9,234.2 403.5,233.7 404.2,233.2 404.8,232.7 405.4,232.2 406.0,231.6 406.6,231.1 407.3,230.6 407.9,230.0 408.5,229.5 409.1,229.0 409.7,228.4 410.4,227.8 411.0,227.3 411.6,226.7 412.2,226.1 412.8,225.5 413.5,224.9 414.1,224.4 414.7,223.8 415.3,223.1 415.9,222.5 416.6,221.9 417.2,221.3 417.8,220.7 418.4,220.0 419.0,219.4 419.7,218.7 420.3,218.1 420.9,217.4 421.5,216.7 422.1,216.1 422.8,215.4 423.4,214.7 424.0,214.0 424.6,213.3 425.2,212.6 425.9,211.8 426.5,211.1 427.1,210.4 427.7,209.6 428.3,208.9 429.0,208.2 429.6,207.4 430.2,206.6 430.8,205.8 431.4,205.1 432.1,204.3 432.7,203.5 433.3,202.6 433.9,201.9 434.5,201.0 435.2,200.2 435.8,199.3 436.4,198.5 437.0,197.7 437.6,196.8 438.3,195.9 438.9,195.1 439.5,194.2 440.1,193.3 440.7,192.4 441.4,191.5 442.0,190.6 442.6,189.6 443.2,188.7 443.8,187.8 444.5,186.8 445.1,185.8 445.7,184.9 446.3,183.9 446.9,182.9 447.6,181.9 448.2,180.9 448.8,179.9 449.4,178.9 450.0,177.9 450.7,176.8 451.3,175.8 451.9,174.7 452.5,173.6 453.1,172.6 453.8,171.5 454.4,170.4 455.0,169.3 455.6,168.2 456.2,167.1 456.9,165.9 457.5,164.8 458.1,163.6 458.7,162.5 459.3,161.3 460.0,160.1 460.6,158.9 461.2,157.7 461.8,156.5 462.4,155.3 463.1,154.0 463.7,152.8 464.3,151.5 464.9,150.3 465.5,149.0 466.2,147.7 466.8,146.4 467.4,145.1 468.0,143.8 468.6,142.5 469.3,141.1 469.9,139.7 470.5,138.4 471.1,137.0 471.7,135.6 472.4,134.2 473.0,132.8 473.6,131.4 474.2,130.0 474.8,128.5 475.5,127.0 476.1,125.6 476.7,124.1 477.3,122.6 477.9,121.1 478.6,119.6 479.2,118.0 479.8,116.5 480.4,114.9 481.0,113.4 481.7,111.8 482.3,110.2 482.9,108.6 483.5,107.0 484.1,105.3 484.8,103.7 485.4,102.0 486.0,100.4 486.6,98.7 487.2,97.0 487.9,95.2 488.5,93.5 489.1,91.8 489.7,90.0 490.3,88.3 491.0,86.5 491.6,84.7 492.2,82.9 492.8,81.0 493.4,79.2 494.1,77.3 494.7,75.5 495.3,73.6 495.9,71.7 496.5,69.8 497.2,67.8 497.8,65.9 498.4,63.9 499.0,62.8 499.6,61.7 500.3,60.5 500.9,59.4 501.5,58.3 502.1,57.1 502.7,56.0 503.4,54.8 504.0,53.7 504.6,52.5 505.2,51.4 505.8,50.2 506.5,49.1 507.1,47.9 507.7,46.7 508.3,45.5 508.9,44.4 509.6,43.2 510.2,42.0 510.8,218.6 511.4,218.3 512.0,218.0 512.7,217.7 513.3,217.4 513.9,217.1 514.5,216.8 515.1,216.4 515.8,216.2 516.4,215.9 517.0,215.5 517.6,215.2 518.2,214.9 518.9,214.6 519.5,214.2 520.1,213.9 520.7,213.6 521.3,213.2 522.0,212.9 522.6,212.5 523.2,232.3 523.8,232.0 524.4,231.8 525.1,231.5 525.7,231.3 526.3,231.1 526.9,230.8 527.5,230.5 528.2,230.3 528.8,230.0 529.4,229.7 530.0,229.4 530.6,229.2 531.3,228.9 531.9,228.6 532.5,228.3 533.1,228.0 533.7,227.7 534.4,227.4 535.0,227.1 535.6,237.8 536.2,237.6 536.8,237.3 537.5,237.0 538.1,236.8 538.7,236.6 539.3,236.3 539.9,236.0 540.6,235.8 541.2,235.5 541.8,235.2 542.4,234.9 543.0,234.6 543.7,234.3 544.3,234.0 544.9,233.7 545.5,233.4 546.1,233.1 546.8,232.8 547.4,232.4 548.0,240.4 548.6,240.2 549.2,239.9 549.9,239.6 550.5,239.4 551.1,239.1 551.7,238.8 552.3,238.4 553.0,238.2 553.6,237.9 554.2,237.6 554.8,237.2 555.4,237.0 556.1,236.6 556.7,236.3 557.3,236.0 557.9,235.7 558.5,235.3 559.2,235.0 559.8,234.6 560.4,241.6 561.0,241.3 561.6,241.0 562.3,240.7 562.9,240.4 563.5,240.1 564.1,239.8 564.7,239.5 565.4,239.2 566.0,238.9 566.6,238.5 567.2,238.2 567.8,237.9 568.5,237.5 569.1,237.2 569.7,236.8 570.3,236.5 570.9,236.1 571.6,235.8 572.2,235.4 572.8,242.0 573.4,241.7 574.0,241.4 574.7,241.1 575.3,240.8 575.9,240.4 576.5,240.1 577.1,239.8 577.8,239.5 578.4,239.1 579.0,238.8 579.6,238.4 580.2,238.1 580.9,237.8 581.5,237.4 582.1,237.0 582.7,236.7 583.3,236.3 584.0,235.9 584.6,235.6 585.2,235.2 585.8,234.8 586.4,234.4 587.1,234.0 587.7,233.7 588.3,233.3 588.9,232.9 589.5,232.5 590.2,232.1 590.8,231.7 591.4,231.3 592.0,230.8 592.6,230.5 593.3,230.0 593.9,229.6 594.5,229.2 595.1,228.8 595.7,228.3 596.4,227.9 597.0,227.4 597.6,237.9 598.2,237.6 598.8,237.2 599.5,236.9 600.1,236.6 600.7,236.2 601.3,235.8 601.9,235.5 602.6,235.1 603.2,234.8 603.8,234.4 604.4,234.0 605.0,233.7 605.7,233.3 606.3,232.9 606.9,232.5 607.5,232.1 608.1,231.7 608.8,231.3 609.4,230.9 610.0,239.6 610.6,239.3 611.2,239.0 611.9,238.6 612.5,238.4 613.1,238.0 613.7,237.7 614.3,237.3 615.0,237.0 615.6,236.7 616.2,236.3 616.8,236.0 617.4,235.6 618.1,235.3 618.7,234.9 619.3,234.5 619.9,234.2 620.5,233.8 621.2,233.5 621.8,233.1 622.4,240.8 623.0,240.5 623.6,240.1 624.3,239.8 624.9,239.5 625.5,239.2 626.1,238.9 626.7,238.6 627.4,238.3 628.0,237.9 628.6,237.6 629.2,237.3 629.8,237.0 630.5,236.6 631.1,236.3 631.7,235.9 632.3,235.6 632.9,235.3 633.6,234.9 634.2,234.5 634.8,241.6 635.4,241.3 636.0,241.0 636.7,240.6 637.3,240.4 637.9,240.1 638.5,239.8 639.1,239.4 639.8,239.2 640.4,238.9 641.0,238.5 641.6,238.2 642.2,237.9 642.9,237.6 643.5,237.3 644.1,236.9 644.7,236.6 645.3,236.3 646.0,235.9 646.6,235.6 647.2,242.2 647.8,241.9 648.4,241.6 649.1,241.3 649.7,241.0 650.3,240.7 650.9,240.4 651.5,240.1 652.2,239.8 652.8,239.5 653.4,239.2 654.0,238.9 654.6,238.6 655.3,238.3 655.9,238.0 656.5,237.7 657.1,237.4 657.7,237.0 658.4,236.7 659.0,236.4 659.6,242.6 660.2,242.3 660.8,242.0 661.5,241.7 662.1,241.5 662.7,241.2 663.3,240.9 663.9,240.6 664.6,240.4 665.2,240.1 665.8,239.7 666.4,239.4 667.0,239.2 667.7,238.9 668.3,238.5 668.9,238.2 669.5,238.0 670.1,237.6 670.8,237.3 671.4,237.0 672.0,243.0 672.6,242.7 673.2,242.4 673.9,242.1 674.5,241.9 675.1,241.6 675.7,241.3 676.3,241.0 677.0,240.8 677.6,240.5 678.2,240.2 678.8,239.9 679.4,239.6 680.1,239.3 680.7,239.0 681.3,238.7 681.9,238.4 682.5,238.1 683.2,237.8 683.8,237.5 684.4,243.3 685.0,243.0 685.6,242.7 686.3,242.4 686.9,242.2 687.5,241.9 688.1,241.6 688.7,241.3 689.4,241.1 690.0,240.8 690.6,240.5 691.2,240.2 691.8,240.0 692.5,239.7 693.1,239.4 693.7,239.1 694.3,238.8 694.9,238.5 695.6,238.2 696.2,237.9 696.8,243.5 697.4,243.2 698.0,243.0 698.7,242.7 699.3,242.5 699.9,242.2 700.5,241.9 701.1,241.6 701.8,241.4 702.4,241.1 703.0,240.8 703.6,240.5 704.2,240.3 704.9,240.0 705.5,239.7 706.1,239.4 706.7,239.2 707.3,238.9 708.0,238.6 708.6,238.3 709.2,243.7 709.8,243.5 710.4,243.2 711.1,242.9 711.7,242.7 712.3,242.4 712.9,242.2 713.5,241.9 714.2,241.7 714.8,241.4 715.4,241.1 716.0,240.8 716.6,240.6 717.3,240.3 717.9,240.0 718.5,239.7 719.1,239.5 719.7,239.2 720.4,238.9 721.0,238.6 721.6,243.9 722.2,243.6 722.8,243.4 723.5,243.1 724.1,242.9 724.7,242.6 725.3,242.4 725.9,242.1 726.6,241.9 727.2,241.6 727.8,241.3 728.4,241.0 729.0,240.8 729.7,240.5 730.3,240.2 730.9,239.9 731.5,239.7 732.1,239.4 732.8,239.1 733.4,238.8 734.0,244.1 734.6,243.8 735.2,243.6 735.9,243.3 736.5,243.1 737.1,242.8 737.7,242.6 738.3,242.3 739.0,242.1 739.6,241.8 740.2,241.5 740.8,241.2 741.4,241.0 742.1,240.7 742.7,240.4 743.3,240.2 743.9,239.9 744.5,239.6 745.2,239.3 745.8,239.1 746.4,244.2 747.0,244.0 747.6,243.7 748.3,243.4 748.9,243.2 749.5,243.0 750.1,242.7 750.7,242.4 751.4,242.2 752.0,242.0 752.6,241.7 753.2,241.4 753.8,241.2 754.5,240.9 755.1,240.6 755.7,240.3 756.3,240.1 756.9,239.8 757.6,239.5 758.2,239.3 758.8,244.3 759.4,244.1 760.0,243.8 760.7,243.6 761.3,243.4 761.9,243.1 762.5,242.9 763.1,242.6 763.8,242.4 764.4,242.1 765.0,241.8 765.6,241.6 766.2,241.3 766.9,241.1 767.5,240.8 768.1,240.5 768.7,240.3 769.3,240.0 770.0,239.7 770.6,239.4 771.2,244.5 771.8,244.2 772.4,243.9 773.1,243.7 773.7,243.5 774.3,243.2 774.9,243.0 775.5,242.7 776.2,242.5 776.8,242.2 777.4,242.0 778.0,241.7 778.6,241.5 779.3,241.2 779.9,240.9 780.5,240.7 781.1,240.4 781.7,240.2 782.4,239.9 783.0,239.6 783.6,244.5 784.2,244.3 784.8,244.0 785.5,243.8 786.1,243.6 786.7,243.3 787.3,243.1 787.9,242.8 788.6,242.6 789.2,242.4 789.8,242.1 790.4,241.8 791.0,241.6 791.7,241.3 792.3,241.1 792.9,240.8 793.5,240.6 794.1,240.3 794.8,240.0 795.4,239.7 796.0,244.6"/>
<text x="640" y="72" font-family="Arial" font-size="12" fill="#2563eb">sqrt trace Ppos</text>
</svg>