<svg xmlns="http://www.w3.org/2000/svg" width="820" height="320" viewBox="0 0 820 320">
<rect width="100%" height="100%" fill="white"/>
<text x="52" y="30" font-family="Arial" font-size="18" font-weight="700">ekf_nominal covariance bounds</text>
<line x1="52" y1="274" x2="796" y2="274" stroke="#263238"/>
<line x1="52" y1="42" x2="52" y2="274" stroke="#263238"/>
<text x="52" y="306" font-family="Arial" font-size="12">time (s)</text>
<text x="630" y="306" font-family="Arial" font-size="12">m</text>

<rect x="399.2" y="42" width="99.2" height="232" fill="#fef3c7" opacity="0.72"/>
<polyline fill="none" stroke="#0f766e" stroke-width="2.3" points="52.0,68.6 52.6,67.8 53.2,67.1 53.9,66.3 54.5,65.1 55.1,64.1 55.7,63.1 56.3,62.0 57.0,61.7 57.6,60.6 58.2,59.5 58.8,58.3 59.4,59.4 60.1,58.6 60.7,57.8 61.3,57.0 61.9,56.3 62.5,55.5 63.2,54.7 63.8,53.9 64.4,184.7 65.0,184.4 65.6,183.6 66.3,182.5 66.9,180.7 67.5,178.7 68.1,176.3 68.7,173.6 69.4,170.5 70.0,167.2 70.6,163.6 71.2,159.8 71.8,156.0 72.5,151.8 73.1,147.3 73.7,142.7 74.3,138.1 74.9,133.2 75.6,128.2 76.2,123.0 76.8,184.3 77.4,181.8 78.0,179.2 78.7,176.4 79.3,173.5 79.9,170.6 80.5,167.5 81.1,164.3 81.8,161.0 82.4,157.7 83.0,154.2 83.6,150.7 84.2,146.9 84.9,143.2 85.5,139.5 86.1,135.8 86.7,131.4 87.3,127.6 88.0,123.6 88.6,119.7 89.2,205.1 89.8,205.6 90.4,206.1 91.1,206.6 91.7,208.6 92.3,209.2 92.9,209.8 93.5,210.3 94.2,210.7 94.8,211.2 95.4,211.8 96.0,212.3 96.6,213.4 97.3,213.9 97.9,214.4 98.5,214.9 99.1,214.9 99.7,215.2 100.4,215.6 101.0,215.9 101.6,195.6 102.2,195.5 102.8,195.3 103.5,195.2 104.1,195.6 104.7,195.5 105.3,195.3 105.9,195.2 106.6,194.6 107.2,194.4 107.8,194.1 108.4,193.8 109.0,195.3 109.7,195.1 110.3,195.0 110.9,194.8 111.5,194.4 112.1,194.2 112.8,194.0 113.4,193.7 114.0,200.1 114.6,198.8 115.2,197.4 115.9,196.1 116.5,194.9 117.1,193.5 117.7,192.1 118.3,190.6 119.0,189.1 119.6,187.6 120.2,186.1 120.8,184.5 121.4,182.8 122.1,181.2 122.7,179.6 123.3,178.0 123.9,176.1 124.5,174.4 125.2,172.7 125.8,170.9 126.4,224.5 127.0,222.3 127.6,220.1 128.3,217.9 128.9,216.4 129.5,214.1 130.1,211.8 130.7,209.6 131.4,206.4 132.0,204.1 132.6,201.7 133.2,199.3 133.8,198.0 134.5,195.6 135.1,193.2 135.7,190.8 136.3,188.3 136.9,185.9 137.6,183.4 138.2,180.9 138.8,237.3 139.4,235.7 140.0,234.0 140.7,232.4 141.3,230.6 141.9,228.9 142.5,227.3 143.1,225.6 143.8,223.9 144.4,222.2 145.0,220.5 145.6,218.8 146.2,217.1 146.9,215.4 147.5,213.6 148.1,211.9 148.7,210.2 149.3,208.4 150.0,206.6 150.6,204.8 151.2,274.0 151.8,273.3 152.4,272.6 153.1,271.9 153.7,268.2 154.3,267.4 154.9,266.6 155.5,265.8 156.2,261.6 156.8,260.7 157.4,259.7 158.0,258.8 158.6,258.1 159.3,257.1 159.9,256.1 160.5,255.1 161.1,256.1 161.7,255.0 162.4,254.0 163.0,252.9 163.6,248.7 164.2,247.7 164.8,246.7 165.5,245.7 166.1,245.5 166.7,244.5 167.3,243.5 167.9,242.5 168.6,241.5 169.2,240.5 169.8,239.4 170.4,238.3 171.0,237.2 171.7,236.1 172.3,235.0 172.9,233.8 173.5,232.6 174.1,231.5 174.8,230.3 175.4,229.1 176.0,267.7 176.6,267.4 177.2,267.0 177.9,266.6 178.5,265.3 179.1,264.8 179.7,264.3 180.3,263.8 181.0,261.3 181.6,260.7 182.2,260.1 182.8,259.6 183.4,260.5 184.1,259.9 184.7,259.3 185.3,258.6 185.9,256.1 186.5,255.4 187.2,254.7 187.8,254.0 188.4,205.6 189.0,204.7 189.6,203.9 190.3,203.0 190.9,202.8 191.5,202.0 192.1,201.1 192.7,200.2 193.4,199.7 194.0,198.9 194.6,198.0 195.2,197.1 195.8,194.9 196.5,194.0 197.1,193.0 197.7,192.1 198.3,192.4 198.9,191.5 199.6,190.6 200.2,189.7 200.8,235.1 201.4,234.5 202.0,234.0 202.7,233.4 203.3,233.2 203.9,232.6 204.5,231.9 205.1,231.3 205.8,230.6 206.4,229.9 207.0,229.3 207.6,228.6 208.2,228.0 208.9,227.3 209.5,226.6 210.1,225.9 210.7,225.1 211.3,224.4 212.0,223.6 212.6,222.9 213.2,237.7 213.8,237.5 214.4,237.2 215.1,237.0 215.7,236.8 216.3,236.5 216.9,236.3 217.5,236.0 218.2,235.4 218.8,235.1 219.4,234.9 220.0,234.6 220.6,234.4 221.3,234.1 221.9,233.8 222.5,233.5 223.1,232.9 223.7,232.5 224.4,232.2 225.0,231.9 225.6,225.2 226.2,224.6 226.8,224.0 227.5,223.4 228.1,222.5 228.7,221.9 229.3,221.3 229.9,220.6 230.6,219.4 231.2,218.7 231.8,218.0 232.4,217.3 233.0,215.1 233.7,214.4 234.3,213.6 234.9,212.8 235.5,212.0 236.1,211.3 236.8,210.5 237.4,209.7 238.0,257.0 238.6,256.9 239.2,256.7 239.9,256.5 240.5,259.5 241.1,259.3 241.7,259.1 242.3,258.9 243.0,257.3 243.6,257.0 244.2,256.7 244.8,256.4 245.4,258.9 246.1,258.5 246.7,258.2 247.3,257.8 247.9,257.3 248.5,256.9 249.2,256.4 249.8,255.9 250.4,271.8 251.0,271.4 251.6,271.0 252.3,270.5 252.9,271.6 253.5,271.0 254.1,270.3 254.7,269.6 255.4,268.9 256.0,268.1 256.6,267.4 257.2,266.6 257.8,265.9 258.5,265.1 259.1,264.3 259.7,263.5 260.3,261.9 260.9,261.0 261.6,260.2 262.2,259.4 262.8,271.0 263.4,271.1 264.0,271.3 264.7,271.4 265.3,272.2 265.9,272.1 266.5,272.1 267.1,272.0 267.8,272.4 268.4,272.3 269.0,272.1 269.6,271.8 270.2,270.7 270.9,270.4 271.5,270.1 272.1,269.7 272.7,269.9 273.3,269.4 274.0,269.0 274.6,268.5 275.2,217.6 275.8,216.5 276.4,215.4 277.1,214.3 277.7,213.0 278.3,211.9 278.9,210.8 279.5,209.7 280.2,208.8 280.8,207.7 281.4,206.5 282.0,205.3 282.6,204.1 283.3,202.9 283.9,201.7 284.5,200.5 285.1,199.3 285.7,198.0 286.4,196.8 287.0,195.5 287.6,207.6 288.2,206.5 288.8,205.4 289.5,204.2 290.1,203.1 290.7,202.0 291.3,200.8 291.9,199.6 292.6,198.6 293.2,197.4 293.8,196.3 294.4,195.1 295.0,193.9 295.7,192.7 296.3,191.4 296.9,190.2 297.5,188.9 298.1,187.7 298.8,186.4 299.4,185.1 300.0,266.4 300.6,266.2 301.2,265.9 301.9,265.7 302.5,266.0 303.1,265.7 303.7,265.4 304.3,265.0 305.0,264.2 305.6,263.9 306.2,263.5 306.8,263.1 307.4,262.8 308.1,262.4 308.7,261.9 309.3,261.5 309.9,261.4 310.5,261.0 311.2,260.5 311.8,260.0 312.4,249.2 313.0,248.8 313.6,248.4 314.3,247.9 314.9,247.4 315.5,246.9 316.1,246.5 316.7,246.0 317.4,246.0 318.0,245.5 318.6,245.0 319.2,244.5 319.8,243.4 320.5,242.9 321.1,242.4 321.7,241.9 322.3,241.8 322.9,241.2 323.6,240.7 324.2,240.1 324.8,233.7 325.4,233.3 326.0,232.8 326.7,232.4 327.3,232.2 327.9,231.7 328.5,231.3 329.1,230.8 329.8,230.8 330.4,230.3 331.0,229.8 331.6,229.4 332.2,229.5 332.9,229.1 333.5,228.6 334.1,228.1 334.7,227.4 335.3,226.9 336.0,226.4 336.6,225.9 337.2,220.8 337.8,220.6 338.4,220.5 339.1,220.3 339.7,219.8 340.3,219.7 340.9,219.5 341.5,219.3 342.2,220.3 342.8,220.1 343.4,220.0 344.0,219.8 344.6,219.6 345.3,219.4 345.9,219.2 346.5,219.1 347.1,219.9 347.7,219.7 348.4,219.6 349.0,219.4 349.6,238.8 350.2,238.9 350.8,238.9 351.5,239.0 352.1,239.9 352.7,240.0 353.3,240.1 353.9,240.2 354.6,238.7 355.2,238.8 355.8,238.8 356.4,238.9 357.0,239.8 357.7,239.9 358.3,239.9 358.9,240.0 359.5,240.1 360.1,240.2 360.8,240.2 361.4,240.3 362.0,243.7 362.6,243.7 363.2,243.8 363.9,243.8 364.5,243.5 365.1,243.5 365.7,243.5 366.3,243.5 367.0,245.0 367.6,245.0 368.2,245.0 368.8,245.1 369.4,245.6 370.1,245.6 370.7,245.6 371.3,245.7 371.9,246.4 372.5,246.5 373.2,246.5 373.8,246.5 374.4,231.5 375.0,231.1 375.6,230.8 376.3,230.4 376.9,230.0 377.5,229.6 378.1,229.2 378.7,228.8 379.4,228.7 380.0,228.3 380.6,227.9 381.2,227.5 381.8,227.3 382.5,226.8 383.1,226.4 383.7,225.9 384.3,225.3 384.9,224.8 385.6,224.4 386.2,224.0 386.8,253.6 387.4,253.3 388.0,253.0 388.7,252.7 389.3,252.3 389.9,252.0 390.5,251.7 391.1,251.4 391.8,251.1 392.4,250.7 393.0,250.4 393.6,250.0 394.2,249.5 394.9,249.2 395.5,248.8 396.1,248.4 396.7,248.1 397.3,247.7 398.0,247.3 398.6,246.9 399.2,246.5 399.8,246.1 400.4,245.6 401.1,245.2 401.7,244.6 402.3,244.1 402.9,243.7 403.5,243.2 404.2,242.7 404.8,242.2 405.4,241.7 406.0,241.2 406.6,240.5 407.3,240.0 407.9,239.5 408.5,238.9 409.1,238.4 409.7,237.9 410.4,237.3 411.0,236.7 411.6,236.1 412.2,235.6 412.8,235.0 413.5,234.4 414.1,234.0 414.7,233.4 415.3,232.9 415.9,232.3 416.6,231.7 417.2,231.1 417.8,230.4 418.4,229.8 419.0,229.1 419.7,228.5 420.3,227.9 420.9,227.2 421.5,226.3 422.1,225.6 422.8,225.0 423.4,224.3 424.0,223.7 424.6,223.0 425.2,222.3 425.9,221.6 426.5,220.6 427.1,219.9 427.7,219.2 428.3,218.5 429.0,217.6 429.6,216.8 430.2,216.1 430.8,215.3 431.4,214.8 432.1,214.1 432.7,213.3 433.3,212.5 433.9,211.9 434.5,211.1 435.2,210.3 435.8,209.5 436.4,208.7 437.0,208.0 437.6,207.2 438.3,206.4 438.9,205.7 439.5,204.9 440.1,204.0 440.7,203.2 441.4,202.5 442.0,201.7 442.6,200.9 443.2,200.1 443.8,198.9 444.5,198.1 445.1,197.2 445.7,196.4 446.3,196.3 446.9,195.4 447.6,194.6 448.2,193.8 448.8,193.1 449.4,192.2 450.0,191.4 450.7,190.5 451.3,189.7 451.9,188.8 452.5,187.9 453.1,187.1 453.8,185.3 454.4,184.4 455.0,183.5 455.6,182.6 456.2,182.1 456.9,181.2 457.5,180.3 458.1,179.4 458.7,178.7 459.3,177.7 460.0,176.8 460.6,175.8 461.2,175.6 461.8,174.6 462.4,173.7 463.1,172.7 463.7,171.7 464.3,170.7 464.9,169.7 465.5,168.8 466.2,168.0 466.8,167.0 467.4,166.0 468.0,165.0 468.6,163.8 469.3,162.8 469.9,161.8 470.5,160.8 471.1,160.3 471.7,159.3 472.4,158.3 473.0,157.3 473.6,156.3 474.2,155.3 474.8,154.3 475.5,153.3 476.1,152.5 476.7,151.5 477.3,150.4 477.9,149.4 478.6,148.5 479.2,147.5 479.8,146.5 480.4,145.5 481.0,144.5 481.7,143.5 482.3,142.4 482.9,141.4 483.5,140.4 484.1,139.4 484.8,138.3 485.4,137.3 486.0,136.2 486.6,135.2 487.2,134.1 487.9,133.1 488.5,132.0 489.1,131.0 489.7,129.9 490.3,128.8 491.0,127.7 491.6,126.7 492.2,125.6 492.8,124.5 493.4,123.5 494.1,122.4 494.7,121.3 495.3,120.2 495.9,119.0 496.5,117.9 497.2,116.9 497.8,115.8 498.4,114.5 499.0,113.4 499.6,112.3 500.3,111.2 500.9,109.9 501.5,108.8 502.1,107.7 502.7,106.5 503.4,105.5 504.0,104.4 504.6,103.3 505.2,102.1 505.8,101.3 506.5,100.1 507.1,99.0 507.7,97.9 508.3,96.6 508.9,95.5 509.6,94.3 510.2,93.1 510.8,230.1 511.4,229.5 512.0,229.0 512.7,228.4 513.3,227.9 513.9,227.4 514.5,226.8 515.1,226.3 515.8,226.0 516.4,225.5 517.0,224.9 517.6,224.4 518.2,224.0 518.9,223.4 519.5,222.9 520.1,222.3 520.7,221.7 521.3,221.2 522.0,220.6 522.6,220.1 523.2,256.0 523.8,255.6 524.4,255.2 525.1,254.9 525.7,254.6 526.3,254.2 526.9,253.9 527.5,253.5 528.2,253.1 528.8,252.7 529.4,252.4 530.0,252.0 530.6,251.7 531.3,251.3 531.9,250.9 532.5,250.5 533.1,250.1 533.7,249.7 534.4,249.3 535.0,248.9 535.6,220.5 536.2,220.0 536.8,219.6 537.5,219.1 538.1,218.3 538.7,217.8 539.3,217.3 539.9,216.7 540.6,215.8 541.2,215.2 541.8,214.7 542.4,214.1 543.0,214.0 543.7,213.4 544.3,212.9 544.9,212.4 545.5,211.5 546.1,210.9 546.8,210.4 547.4,209.8 548.0,222.6 548.6,222.1 549.2,221.6 549.9,221.2 550.5,219.9 551.1,219.4 551.7,218.9 552.3,218.4 553.0,217.6 553.6,217.1 554.2,216.6 554.8,216.1 555.4,217.1 556.1,216.6 556.7,216.2 557.3,215.7 557.9,215.5 558.5,215.0 559.2,214.5 559.8,214.0 560.4,225.8 561.0,225.4 561.6,225.0 562.3,224.6 562.9,223.8 563.5,223.4 564.1,223.0 564.7,222.6 565.4,222.7 566.0,222.2 566.6,221.8 567.2,221.4 567.8,221.1 568.5,220.7 569.1,220.3 569.7,219.9 570.3,219.6 570.9,219.2 571.6,218.8 572.2,218.4 572.8,208.7 573.4,208.2 574.0,207.7 574.7,207.3 575.3,207.0 575.9,206.5 576.5,206.0 577.1,205.5 577.8,205.0 578.4,204.5 579.0,204.0 579.6,203.5 580.2,203.1 580.9,202.6 581.5,202.1 582.1,201.6 582.7,201.0 583.3,200.5 584.0,200.0 584.6,199.5 585.2,198.9 585.8,198.4 586.4,197.9 587.1,197.4 587.7,196.8 588.3,196.3 588.9,195.8 589.5,195.3 590.2,194.6 590.8,194.1 591.4,193.6 592.0,193.0 592.6,192.5 593.3,192.0 593.9,191.5 594.5,191.0 595.1,190.1 595.7,189.6 596.4,189.1 597.0,188.5 597.6,205.6 598.2,205.1 598.8,204.6 599.5,204.1 600.1,204.2 600.7,203.8 601.3,203.3 601.9,202.8 602.6,202.8 603.2,202.3 603.8,201.8 604.4,201.3 605.0,201.1 605.7,200.7 606.3,200.2 606.9,199.7 607.5,199.0 608.1,198.5 608.8,198.1 609.4,197.6 610.0,213.2 610.6,212.8 611.2,212.4 611.9,212.0 612.5,211.7 613.1,211.3 613.7,210.9 614.3,210.5 615.0,210.0 615.6,209.6 616.2,209.2 616.8,208.8 617.4,208.3 618.1,207.9 618.7,207.5 619.3,207.1 619.9,206.5 620.5,206.1 621.2,205.7 621.8,205.4 622.4,242.9 623.0,242.7 623.6,242.5 624.3,242.3 624.9,243.4 625.5,243.2 626.1,243.1 626.7,242.9 627.4,242.9 628.0,242.7 628.6,242.6 629.2,242.4 629.8,242.8 630.5,242.6 631.1,242.5 631.7,242.3 632.3,242.7 632.9,242.6 633.6,242.5 634.2,242.3 634.8,226.2 635.4,225.9 636.0,225.7 636.7,225.4 637.3,225.5 637.9,225.2 638.5,224.9 639.1,224.7 639.8,224.4 640.4,224.1 641.0,223.8 641.6,223.5 642.2,222.8 642.9,222.5 643.5,222.2 644.1,221.9 644.7,222.0 645.3,221.7 646.0,221.4 646.6,221.1 647.2,243.4 647.8,243.2 648.4,243.0 649.1,242.8 649.7,242.5 650.3,242.3 650.9,242.1 651.5,241.9 652.2,241.5 652.8,241.2 653.4,241.0 654.0,240.8 654.6,240.5 655.3,240.3 655.9,240.0 656.5,239.8 657.1,239.8 657.7,239.6 658.4,239.4 659.0,239.2 659.6,254.0 660.2,253.8 660.8,253.7 661.5,253.6 662.1,253.3 662.7,253.2 663.3,253.0 663.9,252.9 664.6,254.5 665.2,254.4 665.8,254.3 666.4,254.2 667.0,254.4 667.7,254.3 668.3,254.2 668.9,254.1 669.5,253.5 670.1,253.4 670.8,253.3 671.4,253.2 672.0,267.0 672.6,267.0 673.2,267.0 673.9,266.9 674.5,267.1 675.1,267.1 675.7,267.1 676.3,267.1 677.0,267.3 677.6,267.3 678.2,267.3 678.8,267.3 679.4,267.2 680.1,267.2 680.7,267.2 681.3,267.1 681.9,267.3 682.5,267.3 683.2,267.2 683.8,267.2 684.4,239.5 685.0,239.3 685.6,239.1 686.3,239.0 686.9,238.8 687.5,238.7 688.1,238.5 688.7,238.4 689.4,238.2 690.0,238.0 690.6,237.9 691.2,237.7 691.8,237.5 692.5,237.4 693.1,237.2 693.7,237.0 694.3,236.7 694.9,236.5 695.6,236.3 696.2,236.2 696.8,248.6 697.4,248.5 698.0,248.4 698.7,248.2 699.3,247.1 699.9,246.9 700.5,246.8 701.1,246.6 701.8,245.5 702.4,245.3 703.0,245.1 703.6,245.0 704.2,246.6 704.9,246.4 705.5,246.3 706.1,246.2 706.7,246.4 707.3,246.3 708.0,246.2 708.6,246.0 709.2,261.5 709.8,261.4 710.4,261.4 711.1,261.3 711.7,261.9 712.3,261.9 712.9,261.9 713.5,261.8 714.2,262.4 714.8,262.4 715.4,262.4 716.0,262.3 716.6,261.9 717.3,261.9 717.9,261.8 718.5,261.8 719.1,262.2 719.7,262.1 720.4,262.1 721.0,262.1 721.6,249.5 722.2,249.4 722.8,249.3 723.5,249.2 724.1,249.2 724.7,249.1 725.3,249.0 725.9,248.9 726.6,248.6 727.2,248.5 727.8,248.4 728.4,248.3 729.0,248.6 729.7,248.5 730.3,248.4 730.9,248.3 731.5,248.2 732.1,248.1 732.8,248.0 733.4,247.9 734.0,242.5 734.6,242.3 735.2,242.2 735.9,242.0 736.5,241.9 737.1,241.8 737.7,241.7 738.3,241.5 739.0,241.4 739.6,241.3 740.2,241.1 740.8,241.0 741.4,240.9 742.1,240.7 742.7,240.6 743.3,240.4 743.9,240.3 744.5,240.1 745.2,240.0 745.8,239.8 746.4,234.0 747.0,233.9 747.6,233.7 748.3,233.5 748.9,233.3 749.5,233.1 750.1,232.9 750.7,232.7 751.4,232.5 752.0,232.3 752.6,232.1 753.2,231.9 753.8,231.6 754.5,231.4 755.1,231.2 755.7,231.0 756.3,230.5 756.9,230.3 757.6,230.1 758.2,229.9 758.8,261.7 759.4,261.6 760.0,261.6 760.7,261.6 761.3,261.7 761.9,261.7 762.5,261.6 763.1,261.6 763.8,261.4 764.4,261.4 765.0,261.4 765.6,261.3 766.2,261.3 766.9,261.2 767.5,261.2 768.1,261.2 768.7,260.8 769.3,260.8 770.0,260.7 770.6,260.6 771.2,271.4 771.8,271.4 772.4,271.4 773.1,271.4 773.7,271.0 774.3,271.0 774.9,270.9 775.5,270.9 776.2,272.1 776.8,272.1 777.4,272.0 778.0,272.0 778.6,268.6 779.3,268.5 779.9,268.4 780.5,268.3 781.1,267.8 781.7,267.7 782.4,267.6 783.0,267.5 783.6,259.4 784.2,259.3 784.8,259.1 785.5,259.0 786.1,260.1 786.7,260.0 787.3,259.9 787.9,259.8 788.6,259.1 789.2,259.0 789.8,258.8 790.4,258.7 791.0,256.5 791.7,256.3 792.3,256.2 792.9,256.0 793.5,257.7 794.1,257.5 794.8,257.4 795.4,257.2 796.0,238.7"/>
<text x="640" y="56" font-family="Arial" font-size="12" fill="#0f766e">position error</text>
<polyline fill="none" stroke="#2563eb" stroke-width="2.3" points="52.0,169.6 52.6,169.1 53.2,167.6 53.9,165.2 54.5,165.2 55.1,161.9 55.7,157.8 56.3,153.2 57.0,151.0 57.6,145.9 58.2,140.3 58.8,134.4 59.4,130.3 60.1,124.1 60.7,117.6 61.3,110.9 61.9,105.3 62.5,98.4 63.2,91.3 63.8,84.1 64.4,178.2 65.0,174.3 65.6,170.1 66.3,165.9 66.9,162.4 67.5,157.9 68.1,153.2 68.7,148.4 69.4,144.3 70.0,139.3 70.6,134.3 71.2,129.2 71.8,124.5 72.5,119.3 73.1,114.0 73.7,108.6 74.3,103.6 74.9,98.2 75.6,92.7 76.2,87.1 76.8,179.2 77.4,176.2 78.0,173.2 78.7,170.2 79.3,167.5 79.9,164.3 80.5,161.1 81.1,157.8 81.8,154.9 82.4,151.5 83.0,148.1 83.6,144.7 84.2,141.5 84.9,138.0 85.5,134.4 86.1,130.8 86.7,127.5 87.3,123.8 88.0,120.1 88.6,116.4 89.2,184.2 89.8,181.9 90.4,179.6 91.1,177.3 91.7,175.3 92.3,172.9 92.9,170.4 93.5,167.9 94.2,165.8 94.8,163.2 95.4,160.5 96.0,157.9 96.6,155.5 97.3,152.8 97.9,150.0 98.5,147.2 99.1,144.7 99.7,141.8 100.4,138.8 101.0,135.9 101.6,188.5 102.2,186.6 102.8,184.6 103.5,182.5 104.1,180.8 104.7,178.7 105.3,176.5 105.9,174.3 106.6,172.4 107.2,170.1 107.8,167.7 108.4,165.3 109.0,163.2 109.7,160.7 110.3,158.2 110.9,155.6 111.5,153.3 112.1,150.6 112.8,147.9 113.4,145.1 114.0,191.0 114.6,189.2 115.2,187.2 115.9,185.2 116.5,183.5 117.1,181.4 117.7,179.3 118.3,177.1 119.0,175.2 119.6,172.9 120.2,170.6 120.8,168.2 121.4,166.0 122.1,163.6 122.7,161.1 123.3,158.5 123.9,156.1 124.5,153.5 125.2,150.7 125.8,148.0 126.4,191.9 127.0,190.0 127.6,188.1 128.3,186.1 128.9,184.3 129.5,182.2 130.1,180.0 130.7,177.8 131.4,175.8 132.0,173.5 132.6,171.2 133.2,168.8 133.8,166.6 134.5,164.1 135.1,161.6 135.7,159.1 136.3,156.6 136.9,154.0 137.6,151.3 138.2,148.5 138.8,192.1 139.4,190.2 140.0,188.3 140.7,186.3 141.3,184.5 141.9,182.5 142.5,180.4 143.1,178.2 143.8,176.2 144.4,174.0 145.0,171.7 145.6,169.4 146.2,167.2 146.9,164.8 147.5,162.4 148.1,159.9 148.7,157.5 149.3,155.0 150.0,152.4 150.6,149.7 151.2,192.6 151.8,190.8 152.4,188.9 153.1,187.0 153.7,185.3 154.3,183.3 154.9,181.3 155.5,179.3 156.2,177.3 156.8,175.2 157.4,173.1 158.0,170.9 158.6,168.8 159.3,166.6 159.9,164.3 160.5,162.0 161.1,159.8 161.7,157.4 162.4,155.0 163.0,152.6 163.6,193.5 164.2,191.8 164.8,190.1 165.5,188.3 166.1,186.7 166.7,184.8 167.3,183.0 167.9,181.1 168.6,179.3 169.2,177.4 169.8,175.4 170.4,173.4 171.0,171.5 171.7,169.5 172.3,167.4 172.9,165.3 173.5,163.2 174.1,161.1 174.8,158.9 175.4,156.7 176.0,194.9 176.6,193.3 177.2,191.7 177.9,190.1 178.5,188.6 179.1,186.9 179.7,185.2 180.3,183.5 181.0,181.9 181.6,180.1 182.2,178.3 182.8,176.5 183.4,174.8 184.1,172.9 184.7,171.1 185.3,169.1 185.9,167.3 186.5,165.4 187.2,163.4 187.8,161.4 188.4,196.5 189.0,195.1 189.6,193.6 190.3,192.2 190.9,190.8 191.5,189.3 192.1,187.7 192.7,186.2 193.4,184.7 194.0,183.1 194.6,181.5 195.2,179.8 195.8,178.3 196.5,176.6 197.1,174.9 197.7,173.2 198.3,171.5 198.9,169.8 199.6,168.0 200.2,166.2 200.8,198.3 201.4,197.0 202.0,195.7 202.7,194.3 203.3,193.0 203.9,191.7 204.5,190.3 205.1,188.9 205.8,187.5 206.4,186.1 207.0,184.6 207.6,183.1 208.2,181.7 208.9,180.2 209.5,178.7 210.1,177.1 210.7,175.7 211.3,174.1 212.0,172.5 212.6,170.9 213.2,200.1 213.8,198.9 214.4,197.7 215.1,196.5 215.7,195.3 216.3,194.1 216.9,192.8 217.5,191.5 218.2,190.3 218.8,189.0 219.4,187.6 220.0,186.3 220.6,185.0 221.3,183.7 221.9,182.3 222.5,180.9 223.1,179.5 223.7,178.1 224.4,176.7 225.0,175.2 225.6,201.9 226.2,200.8 226.8,199.7 227.5,198.6 228.1,197.5 228.7,196.4 229.3,195.2 229.9,194.0 230.6,192.9 231.2,191.7 231.8,190.5 232.4,189.3 233.0,188.1 233.7,186.9 234.3,185.6 234.9,184.4 235.5,183.1 236.1,181.9 236.8,180.6 237.4,179.2 238.0,203.6 238.6,202.6 239.2,201.6 239.9,200.6 240.5,199.6 241.1,198.5 241.7,197.5 242.3,196.4 243.0,195.4 243.6,194.3 244.2,193.2 244.8,192.1 245.4,191.0 246.1,189.9 246.7,188.7 247.3,187.6 247.9,186.5 248.5,185.3 249.2,184.1 249.8,182.9 250.4,205.3 251.0,204.3 251.6,203.4 252.3,202.4 252.9,201.5 253.5,200.6 254.1,199.6 254.7,198.6 255.4,197.7 256.0,196.7 256.6,195.7 257.2,194.6 257.8,193.7 258.5,192.6 259.1,191.6 259.7,190.5 260.3,189.5 260.9,188.4 261.6,187.3 262.2,186.2 262.8,206.8 263.4,206.0 264.0,205.1 264.7,204.2 265.3,203.4 265.9,202.5 266.5,201.6 267.1,200.7 267.8,199.8 268.4,198.9 269.0,197.9 269.6,197.0 270.2,196.1 270.9,195.1 271.5,194.2 272.1,193.2 272.7,192.3 273.3,191.3 274.0,190.3 274.6,189.3 275.2,208.3 275.8,207.5 276.4,206.7 277.1,205.9 277.7,205.1 278.3,204.3 278.9,203.4 279.5,202.6 280.2,201.8 280.8,200.9 281.4,200.1 282.0,199.2 282.6,198.4 283.3,197.5 283.9,196.6 284.5,195.7 285.1,194.8 285.7,193.9 286.4,193.0 287.0,192.1 287.6,209.7 288.2,209.0 288.8,208.2 289.5,207.5 290.1,206.7 290.7,206.0 291.3,205.2 291.9,204.4 292.6,203.7 293.2,202.8 293.8,202.0 294.4,201.2 295.0,200.5 295.7,199.6 296.3,198.8 296.9,198.0 297.5,197.2 298.1,196.3 298.8,195.5 299.4,194.6 300.0,211.1 300.6,210.4 301.2,209.6 301.9,208.9 302.5,208.3 303.1,207.5 303.7,206.8 304.3,206.1 305.0,205.4 305.6,204.6 306.2,203.9 306.8,203.1 307.4,202.4 308.1,201.6 308.7,200.8 309.3,200.0 309.9,199.3 310.5,198.5 311.2,197.7 311.8,196.9 312.4,212.3 313.0,211.6 313.6,211.0 314.3,210.3 314.9,209.7 315.5,209.0 316.1,208.3 316.7,207.6 317.4,207.0 318.0,206.3 318.6,205.6 319.2,204.8 319.8,204.2 320.5,203.4 321.1,202.7 321.7,202.0 322.3,201.3 322.9,200.5 323.6,199.8 324.2,199.0 324.8,213.5 325.4,212.9 326.0,212.2 326.7,211.6 327.3,211.0 327.9,210.4 328.5,209.7 329.1,209.1 329.8,208.5 330.4,207.8 331.0,207.1 331.6,206.4 332.2,205.8 332.9,205.1 333.5,204.5 334.1,203.8 334.7,203.1 335.3,202.4 336.0,201.7 336.6,201.0 337.2,214.6 337.8,214.0 338.4,213.4 339.1,212.8 339.7,212.3 340.3,211.6 340.9,211.0 341.5,210.4 342.2,209.8 342.8,209.2 343.4,208.6 344.0,207.9 344.6,207.4 345.3,206.7 345.9,206.1 346.5,205.4 347.1,204.8 347.7,204.1 348.4,203.5 349.0,202.8 349.6,215.6 350.2,215.1 350.8,214.5 351.5,213.9 352.1,213.4 352.7,212.8 353.3,212.3 353.9,211.7 354.6,211.1 355.2,210.5 355.8,209.9 356.4,209.3 357.0,208.8 357.7,208.2 358.3,207.6 358.9,206.9 359.5,206.4 360.1,205.7 360.8,205.1 361.4,204.5 362.0,216.6 362.6,216.1 363.2,215.6 363.9,215.0 364.5,214.5 365.1,214.0 365.7,213.4 366.3,212.8 367.0,212.3 367.6,211.8 368.2,211.2 368.8,210.6 369.4,210.1 370.1,209.5 370.7,208.9 371.3,208.4 371.9,207.8 372.5,207.2 373.2,206.6 373.8,206.0 374.4,217.6 375.0,217.0 375.6,216.5 376.3,216.0 376.9,215.5 377.5,215.0 378.1,214.5 378.7,213.9 379.4,213.5 380.0,212.9 380.6,212.4 381.2,211.8 381.8,211.3 382.5,210.8 383.1,210.2 383.7,209.7 384.3,209.2 384.9,208.6 385.6,208.0 386.2,207.5 386.8,218.4 387.4,217.9 388.0,217.4 388.7,216.9 389.3,216.5 389.9,216.0 390.5,215.5 391.1,215.0 391.8,214.5 392.4,214.0 393.0,213.5 393.6,213.0 394.2,212.5 394.9,212.0 395.5,211.4 396.1,210.9 396.7,210.4 397.3,209.9 398.0,209.3 398.6,208.8 399.2,208.2 399.8,207.6 400.4,207.0 401.1,206.4 401.7,205.8 402.3,205.2 402.9,204.6 403.5,203.9 404.2,203.3 404.8,202.7 405.4,202.1 406.0,201.4 406.6,200.8 407.3,200.2 407.9,199.5 408.5,198.8 409.1,198.2 409.7,197.6 410.4,196.9 411.0,196.2 411.6,195.6 412.2,194.9 412.8,194.2 413.5,193.5 414.1,192.9 414.7,192.2 415.3,191.4 415.9,190.7 416.6,190.1 417.2,189.4 417.8,188.6 418.4,187.9 419.0,187.2 419.7,186.5 420.3,185.8 420.9,185.0 421.5,184.3 422.1,183.6 422.8,182.8 423.4,182.1 424.0,181.4 424.6,180.6 425.2,179.9 425.9,179.1 426.5,178.4 427.1,177.6 427.7,176.8 428.3,176.0 429.0,175.3 429.6,174.5 430.2,173.7 430.8,172.9 431.4,172.1 432.1,171.3 432.7,170.5 433.3,169.7 433.9,168.9 434.5,168.1 435.2,167.3 435.8,166.4 436.4,165.7 437.0,164.8 437.6,164.0 438.3,163.1 438.9,162.3 439.5,161.5 440.1,160.6 440.7,159.8 441.4,158.9 442.0,158.1 442.6,157.2 443.2,156.3 443.8,155.5 444.5,154.6 445.1,153.7 445.7,152.8 446.3,151.9 446.9,151.0 447.6,150.1 448.2,149.2 448.8,148.4 449.4,147.4 450.0,146.5 450.7,145.6 451.3,144.7 451.9,143.8 452.5,142.8 453.1,141.9 453.8,141.0 454.4,140.1 455.0,139.1 455.6,138.2 456.2,137.2 456.9,136.3 457.5,135.3 458.1,134.3 458.7,133.4 459.3,132.4 460.0,131.4 460.6,130.4 461.2,129.5 461.8,128.5 462.4,127.5 463.1,126.5 463.7,125.5 464.3,124.5 464.9,123.5 465.5,122.5 466.2,121.5 466.8,120.4 467.4,119.4 468.0,118.4 468.6,117.4 469.3,116.3 469.9,115.3 470.5,114.2 471.1,113.2 471.7,112.1 472.4,111.1 473.0,110.0 473.6,109.0 474.2,107.9 474.8,106.8 475.5,105.7 476.1,104.7 476.7,103.6 477.3,102.5 477.9,101.4 478.6,100.3 479.2,99.2 479.8,98.1 480.4,97.0 481.0,95.9 481.7,94.7 482.3,93.6 482.9,92.5 483.5,91.4 484.1,90.2 484.8,89.1 485.4,87.9 486.0,86.8 486.6,85.6 487.2,84.5 487.9,83.3 488.5,82.2 489.1,81.0 489.7,79.8 490.3,78.6 491.0,77.4 491.6,76.3 492.2,75.1 492.8,73.9 493.4,72.7 494.1,71.5 494.7,70.2 495.3,69.0 495.9,67.8 496.5,66.6 497.2,65.4 497.8,64.1 498.4,62.9 499.0,61.8 499.6,60.7 500.3,59.7 500.9,58.6 501.5,57.5 502.1,56.4 502.7,55.3 503.4,54.2 504.0,53.1 504.6,52.0 505.2,50.9 505.8,49.8 506.5,48.7 507.1,47.6 507.7,46.5 508.3,45.4 508.9,44.3 509.6,43.1 510.2,42.0 510.8,175.5 511.4,175.0 512.0,174.5 512.7,174.0 513.3,173.5 513.9,173.0 514.5,172.5 515.1,171.9 515.8,171.4 516.4,170.9 517.0,170.4 517.6,169.9 518.2,169.4 518.9,168.9 519.5,168.3 520.1,167.8 520.7,167.3 521.3,166.7 522.0,166.2 522.6,165.7 523.2,198.6 523.8,198.2 524.4,197.8 525.1,197.4 525.7,197.1 526.3,196.7 526.9,196.3 527.5,195.9 528.2,195.5 528.8,195.1 529.4,194.7 530.0,194.3 530.6,193.9 531.3,193.5 531.9,193.1 532.5,192.6 533.1,192.3 533.7,191.8 534.4,191.4 535.0,191.0 535.6,209.5 536.2,209.1 536.8,208.8 537.5,208.4 538.1,208.1 538.7,207.8 539.3,207.4 539.9,207.0 540.6,206.7 541.2,206.4 541.8,206.0 542.4,205.6 543.0,205.3 543.7,204.9 544.3,204.5 544.9,204.2 545.5,203.8 546.1,203.4 546.8,203.1 547.4,202.7 548.0,215.7 548.6,215.4 549.2,215.1 549.9,214.7 550.5,214.5 551.1,214.1 551.7,213.8 552.3,213.4 553.0,213.2 553.6,212.8 554.2,212.5 554.8,212.1 555.4,211.8 556.1,211.5 556.7,211.1 557.3,210.7 557.9,210.4 558.5,210.1 559.2,209.7 559.8,209.3 560.4,219.7 561.0,219.4 561.6,219.1 562.3,218.7 562.9,218.5 563.5,218.1 564.1,217.8 564.7,217.5 565.4,217.2 566.0,216.8 566.6,216.5 567.2,216.2 567.8,215.9 568.5,215.5 569.1,215.2 569.7,214.8 570.3,214.5 570.9,214.2 571.6,213.8 572.2,213.4 572.8,222.3 573.4,222.0 574.0,221.7 574.7,221.3 575.3,221.1 575.9,220.7 576.5,220.4 577.1,220.1 577.8,219.8 578.4,219.5 579.0,219.1 579.6,218.8 580.2,218.5 580.9,218.1 581.5,217.8 582.1,217.4 582.7,217.1 583.3,216.8 584.0,216.4 584.6,216.1 585.2,215.8 585.8,215.4 586.4,215.0 587.1,214.7 587.7,214.3 588.3,214.0 588.9,213.6 589.5,213.2 590.2,212.9 590.8,212.5 591.4,212.1 592.0,211.7 592.6,211.4 593.3,211.0 593.9,210.6 594.5,210.2 595.1,209.9 595.7,209.5 596.4,209.1 597.0,208.6 597.6,219.3 598.2,218.9 598.8,218.6 599.5,218.2 600.1,217.9 600.7,217.5 601.3,217.2 601.9,216.8 602.6,216.5 603.2,216.1 603.8,215.8 604.4,215.4 605.0,215.1 605.7,214.7 606.3,214.3 606.9,213.9 607.5,213.6 608.1,213.2 608.8,212.8 609.4,212.4 610.0,221.7 610.6,221.3 611.2,221.0 611.9,220.6 612.5,220.3 613.1,220.0 613.7,219.6 614.3,219.3 615.0,219.0 615.6,218.6 616.2,218.2 616.8,217.9 617.4,217.6 618.1,217.2 618.7,216.8 619.3,216.5 619.9,216.1 620.5,215.8 621.2,215.4 621.8,215.0 622.4,223.3 623.0,223.0 623.6,222.6 624.3,222.3 624.9,222.0 625.5,221.7 626.1,221.3 626.7,221.0 627.4,220.7 628.0,220.3 628.6,220.0 629.2,219.6 629.8,219.3 630.5,218.9 631.1,218.6 631.7,218.2 632.3,217.9 632.9,217.5 633.6,217.1 634.2,216.8 634.8,224.5 635.4,224.1 636.0,223.8 636.7,223.5 637.3,223.2 637.9,222.8 638.5,222.5 639.1,222.1 639.8,221.9 640.4,221.5 641.0,221.1 641.6,220.8 642.2,220.5 642.9,220.1 643.5,219.8 644.1,219.4 644.7,219.1 645.3,218.7 646.0,218.3 646.6,218.0 647.2,225.3 647.8,225.0 648.4,224.6 649.1,224.3 649.7,224.0 650.3,223.7 650.9,223.3 651.5,223.0 652.2,222.7 652.8,222.3 653.4,222.0 654.0,221.6 654.6,221.3 655.3,221.0 655.9,220.6 656.5,220.2 657.1,219.9 657.7,219.6 658.4,219.2 659.0,218.8 659.6,225.9 660.2,225.6 660.8,225.2 661.5,224.9 662.1,224.6 662.7,224.3 663.3,223.9 663.9,223.6 664.6,223.3 665.2,222.9 665.8,222.6 666.4,222.2 667.0,221.9 667.7,221.6 668.3,221.2 668.9,220.8 669.5,220.5 670.1,220.2 670.8,219.8 671.4,219.4 672.0,226.3 672.6,226.0 673.2,225.6 673.9,225.3 674.5,225.0 675.1,224.7 675.7,224.3 676.3,224.0 677.0,223.7 677.6,223.4 678.2,223.0 678.8,222.7 679.4,222.4 680.1,222.0 680.7,221.6 681.3,221.3 681.9,221.0 682.5,220.6 683.2,220.2 683.8,219.9 684.4,226.6 685.0,226.3 685.6,226.0 686.3,225.6 686.9,225.3 687.5,225.0 688.1,224.7 688.7,224.3 689.4,224.0 690.0,223.7 690.6,223.3 691.2,223.0 691.8,222.7 692.5,222.3 693.1,222.0 693.7,221.6 694.3,221.3 694.9,220.9 695.6,220.6 696.2,220.2 696.8,226.9 697.4,226.5 698.0,226.2 698.7,225.9 699.3,225.6 699.9,225.2 700.5,224.9 701.1,224.6 701.8,224.3 702.4,223.9 703.0,223.6 703.6,223.2 704.2,222.9 704.9,222.6 705.5,222.2 706.1,221.9 706.7,221.6 707.3,221.2 708.0,220.8 708.6,220.5 709.2,227.0 709.8,226.7 710.4,226.4 711.1,226.0 711.7,225.8 712.3,225.4 712.9,225.1 713.5,224.8 714.2,224.5 714.8,224.1 715.4,223.8 716.0,223.4 716.6,223.2 717.3,222.8 717.9,222.4 718.5,222.1 719.1,221.8 719.7,221.4 720.4,221.1 721.0,220.7 721.6,227.2 722.2,226.9 722.8,226.5 723.5,226.2 724.1,225.9 724.7,225.6 725.3,225.3 725.9,224.9 726.6,224.7 727.2,224.3 727.8,224.0 728.4,223.6 729.0,223.3 729.7,223.0 730.3,222.6 730.9,222.3 731.5,222.0 732.1,221.6 732.8,221.3 733.4,220.9 734.0,227.3 734.6,227.0 735.2,226.7 735.9,226.4 736.5,226.1 737.1,225.8 737.7,225.4 738.3,225.1 739.0,224.8 739.6,224.5 740.2,224.1 740.8,223.8 741.4,223.5 742.1,223.2 742.7,222.8 743.3,222.5 743.9,222.2 744.5,221.8 745.2,221.5 745.8,221.1 746.4,227.5 747.0,227.2 747.6,226.8 748.3,226.5 748.9,226.2 749.5,225.9 750.1,225.6 750.7,225.2 751.4,225.0 752.0,224.6 752.6,224.3 753.2,224.0 753.8,223.7 754.5,223.3 755.1,223.0 755.7,222.6 756.3,222.3 756.9,222.0 757.6,221.6 758.2,221.3 758.8,227.6 759.4,227.3 760.0,227.0 760.7,226.6 761.3,226.4 761.9,226.1 762.5,225.7 763.1,225.4 763.8,225.1 764.4,224.8 765.0,224.4 765.6,224.1 766.2,223.8 766.9,223.5 767.5,223.1 768.1,222.8 768.7,222.5 769.3,222.2 770.0,221.8 770.6,221.5 771.2,227.7 771.8,227.4 772.4,227.1 773.1,226.8 773.7,226.5 774.3,226.2 774.9,225.9 775.5,225.5 776.2,225.3 776.8,224.9 777.4,224.6 778.0,224.3 778.6,224.0 779.3,223.6 779.9,223.3 780.5,223.0 781.1,222.7 781.7,222.3 782.4,222.0 783.0,221.6 783.6,227.9 784.2,227.5 784.8,227.2 785.5,226.9 786.1,226.6 786.7,226.3 787.3,226.0 787.9,225.7 788.6,225.4 789.2,225.1 789.8,224.7 790.4,224.4 791.0,224.1 791.7,223.8 792.3,223.5 792.9,223.1 793.5,222.8 794.1,222.5 794.8,222.1 795.4,221.8 796.0,228.0"/>
<text x="640" y="72" font-family="Arial" font-size="12" fill="#2563eb">sqrt trace Ppos</text>
</svg>