<svg xmlns="http://www.w3.org/2000/svg" width="820" height="320" viewBox="0 0 820 320">
<rect width="100%" height="100%" fill="white"/>
<text x="52" y="30" font-family="Arial" font-size="18" font-weight="700">ekf_conservative covariance bounds</text>
<line x1="52" y1="274" x2="796" y2="274" stroke="#263238"/>
<line x1="52" y1="42" x2="52" y2="274" stroke="#263238"/>
<text x="52" y="306" font-family="Arial" font-size="12">time (s)</text>
<text x="630" y="306" font-family="Arial" font-size="12">m</text>

<rect x="399.2" y="42" width="99.2" height="232" fill="#fef3c7" opacity="0.72"/>
<polyline fill="none" stroke="#0f766e" stroke-width="2.3" points="52.0,146.6 52.6,146.0 53.2,145.4 53.9,144.7 54.5,144.9 55.1,144.3 55.7,143.8 56.3,143.3 57.0,142.1 57.6,141.4 58.2,140.7 58.8,140.1 59.4,140.1 60.1,139.5 60.7,138.8 61.3,138.2 61.9,137.9 62.5,137.3 63.2,136.6 63.8,136.0 64.4,192.6 65.0,192.0 65.6,191.3 66.3,190.7 66.9,190.4 67.5,189.8 68.1,189.2 68.7,188.6 69.4,188.1 70.0,187.5 70.6,187.0 71.2,186.4 71.8,185.8 72.5,185.2 73.1,184.6 73.7,184.0 74.3,183.0 74.9,182.4 75.6,181.7 76.2,181.1 76.8,200.2 77.4,200.0 78.0,199.9 78.7,199.7 79.3,200.2 79.9,200.0 80.5,199.9 81.1,199.8 81.8,200.1 82.4,200.0 83.0,200.0 83.6,199.9 84.2,200.6 84.9,200.6 85.5,200.6 86.1,200.6 86.7,201.3 87.3,201.3 88.0,201.4 88.6,201.5 89.2,190.5 89.8,190.3 90.4,190.2 91.1,190.0 91.7,189.8 92.3,189.7 92.9,189.5 93.5,189.4 94.2,189.4 94.8,189.3 95.4,189.2 96.0,189.0 96.6,188.9 97.3,188.8 97.9,188.7 98.5,188.5 99.1,187.9 99.7,187.8 100.4,187.7 101.0,187.6 101.6,191.0 102.2,191.2 102.8,191.3 103.5,191.5 104.1,191.8 104.7,192.0 105.3,192.2 105.9,192.4 106.6,192.4 107.2,192.6 107.8,192.8 108.4,193.0 109.0,193.9 109.7,194.1 110.3,194.4 110.9,194.6 111.5,194.9 112.1,195.2 112.8,195.5 113.4,195.7 114.0,208.3 114.6,208.3 115.2,208.2 115.9,208.2 116.5,208.2 117.1,208.2 117.7,208.2 118.3,208.1 119.0,208.1 119.6,208.1 120.2,208.0 120.8,208.0 121.4,207.9 122.1,207.8 122.7,207.8 123.3,207.7 123.9,207.4 124.5,207.3 125.2,207.2 125.8,207.1 126.4,237.3 127.0,237.4 127.6,237.5 128.3,237.6 128.9,237.8 129.5,237.9 130.1,238.0 130.7,238.1 131.4,237.8 132.0,237.8 132.6,237.9 133.2,237.9 133.8,238.6 134.5,238.7 135.1,238.7 135.7,238.8 136.3,238.8 136.9,238.9 137.6,238.9 138.2,238.9 138.8,241.6 139.4,241.7 140.0,241.8 140.7,241.9 141.3,241.5 141.9,241.5 142.5,241.5 143.1,241.6 143.8,241.8 144.4,241.8 145.0,241.8 145.6,241.8 146.2,242.2 146.9,242.2 147.5,242.2 148.1,242.2 148.7,243.2 149.3,243.2 150.0,243.3 150.6,243.3 151.2,242.7 151.8,242.9 152.4,243.0 153.1,243.2 153.7,244.2 154.3,244.4 154.9,244.7 155.5,244.9 156.2,245.2 156.8,245.4 157.4,245.7 158.0,246.0 158.6,246.1 159.3,246.3 159.9,246.6 160.5,246.8 161.1,247.1 161.7,247.4 162.4,247.6 163.0,247.9 163.6,249.8 164.2,249.9 164.8,250.1 165.5,250.2 166.1,250.1 166.7,250.2 167.3,250.3 167.9,250.4 168.6,250.0 169.2,250.1 169.8,250.2 170.4,250.3 171.0,250.6 171.7,250.7 172.3,250.8 172.9,250.9 173.5,251.7 174.1,251.8 174.8,251.9 175.4,252.1 176.0,251.9 176.6,252.0 177.2,252.0 177.9,252.1 178.5,252.6 179.1,252.7 179.7,252.8 180.3,252.8 181.0,252.9 181.6,253.0 182.2,253.1 182.8,253.1 183.4,253.3 184.1,253.3 184.7,253.4 185.3,253.4 185.9,253.0 186.5,253.0 187.2,253.1 187.8,253.2 188.4,262.9 189.0,262.7 189.6,262.5 190.3,262.3 190.9,263.1 191.5,262.9 192.1,262.7 192.7,262.5 193.4,262.5 194.0,262.3 194.6,262.1 195.2,261.8 195.8,257.7 196.5,257.4 197.1,257.1 197.7,256.9 198.3,258.8 198.9,258.5 199.6,258.3 200.2,258.0 200.8,267.4 201.4,267.5 202.0,267.6 202.7,267.6 203.3,268.1 203.9,268.1 204.5,268.1 205.1,268.1 205.8,268.2 206.4,268.2 207.0,268.3 207.6,268.3 208.2,268.0 208.9,267.9 209.5,267.8 210.1,267.8 210.7,268.0 211.3,267.9 212.0,267.8 212.6,267.7 213.2,272.9 213.8,272.7 214.4,272.5 215.1,272.4 215.7,274.0 216.3,273.9 216.9,273.9 217.5,273.8 218.2,270.7 218.8,270.7 219.4,270.7 220.0,270.8 220.6,270.7 221.3,270.7 221.9,270.8 222.5,270.8 223.1,268.8 223.7,268.8 224.4,268.7 225.0,268.8 225.6,262.3 226.2,262.2 226.8,262.2 227.5,262.1 228.1,261.1 228.7,261.1 229.3,261.0 229.9,260.9 230.6,258.9 231.2,258.9 231.8,258.8 232.4,258.7 233.0,254.6 233.7,254.4 234.3,254.2 234.9,254.1 235.5,253.5 236.1,253.3 236.8,253.2 237.4,253.0 238.0,252.9 238.6,252.7 239.2,252.4 239.9,252.2 240.5,255.1 241.1,254.9 241.7,254.7 242.3,254.5 243.0,253.0 243.6,252.8 244.2,252.6 244.8,252.4 245.4,255.4 246.1,255.2 246.7,255.1 247.3,254.9 247.9,254.9 248.5,254.7 249.2,254.6 249.8,254.4 250.4,259.9 251.0,259.7 251.6,259.6 252.3,259.4 252.9,260.5 253.5,260.3 254.1,260.1 254.7,259.9 255.4,259.6 256.0,259.4 256.6,259.2 257.2,259.0 257.8,258.8 258.5,258.6 259.1,258.4 259.7,258.2 260.3,257.1 260.9,256.8 261.6,256.6 262.2,256.4 262.8,252.1 263.4,251.8 264.0,251.6 264.7,251.3 265.3,251.2 265.9,250.9 266.5,250.6 267.1,250.3 267.8,250.2 268.4,250.0 269.0,249.7 269.6,249.4 270.2,248.9 270.9,248.6 271.5,248.3 272.1,248.0 272.7,247.9 273.3,247.6 274.0,247.3 274.6,247.1 275.2,240.8 275.8,240.3 276.4,239.9 277.1,239.4 277.7,238.6 278.3,238.1 278.9,237.7 279.5,237.2 280.2,237.2 280.8,236.7 281.4,236.2 282.0,235.7 282.6,235.1 283.3,234.6 283.9,234.1 284.5,233.6 285.1,233.1 285.7,232.6 286.4,232.1 287.0,231.5 287.6,235.1 288.2,234.7 288.8,234.2 289.5,233.7 290.1,233.3 290.7,232.8 291.3,232.4 291.9,231.9 292.6,231.5 293.2,231.1 293.8,230.6 294.4,230.1 295.0,229.6 295.7,229.1 296.3,228.6 296.9,228.1 297.5,227.6 298.1,227.1 298.8,226.6 299.4,226.1 300.0,228.4 300.6,227.9 301.2,227.4 301.9,226.9 302.5,226.4 303.1,225.9 303.7,225.4 304.3,224.8 305.0,224.3 305.6,223.8 306.2,223.3 306.8,222.8 307.4,222.2 308.1,221.7 308.7,221.2 309.3,220.6 309.9,219.9 310.5,219.4 311.2,218.8 311.8,218.3 312.4,234.1 313.0,233.7 313.6,233.3 314.3,233.0 314.9,232.5 315.5,232.1 316.1,231.7 316.7,231.4 317.4,231.2 318.0,230.8 318.6,230.4 319.2,230.0 319.8,229.3 320.5,228.9 321.1,228.5 321.7,228.1 322.3,227.9 322.9,227.5 323.6,227.1 324.2,226.7 324.8,226.7 325.4,226.3 326.0,226.0 326.7,225.6 327.3,225.2 327.9,224.8 328.5,224.4 329.1,224.1 329.8,223.8 330.4,223.4 331.0,223.0 331.6,222.6 332.2,222.5 332.9,222.1 333.5,221.7 334.1,221.4 334.7,220.7 335.3,220.3 336.0,220.0 336.6,219.6 337.2,207.0 337.8,206.6 338.4,206.2 339.1,205.7 339.7,205.0 340.3,204.6 340.9,204.1 341.5,203.7 342.2,203.9 342.8,203.5 343.4,203.0 344.0,202.5 344.6,202.0 345.3,201.5 345.9,201.1 346.5,200.6 347.1,200.7 347.7,200.3 348.4,199.8 349.0,199.4 349.6,207.1 350.2,206.7 350.8,206.3 351.5,205.9 352.1,205.7 352.7,205.3 353.3,204.9 353.9,204.5 354.6,203.6 355.2,203.2 355.8,202.8 356.4,202.4 357.0,202.1 357.7,201.7 358.3,201.3 358.9,200.8 359.5,200.3 360.1,199.9 360.8,199.4 361.4,199.0 362.0,205.6 362.6,205.1 363.2,204.7 363.9,204.2 364.5,203.6 365.1,203.1 365.7,202.7 366.3,202.2 367.0,202.2 367.6,201.7 368.2,201.3 368.8,200.8 369.4,200.4 370.1,200.0 370.7,199.5 371.3,199.1 371.9,198.7 372.5,198.3 373.2,197.8 373.8,197.3 374.4,225.2 375.0,225.0 375.6,224.8 376.3,224.7 376.9,224.4 377.5,224.3 378.1,224.1 378.7,223.9 379.4,223.9 380.0,223.7 380.6,223.5 381.2,223.3 381.8,223.1 382.5,222.9 383.1,222.7 383.7,222.4 384.3,222.2 384.9,222.0 385.6,221.8 386.2,221.6 386.8,224.0 387.4,223.7 388.0,223.4 388.7,223.2 389.3,222.8 389.9,222.5 390.5,222.3 391.1,222.0 391.8,221.7 392.4,221.4 393.0,221.1 393.6,220.8 394.2,220.5 394.9,220.2 395.5,219.9 396.1,219.6 396.7,219.5 397.3,219.2 398.0,218.9 398.6,218.6 399.2,218.3 399.8,218.0 400.4,217.8 401.1,217.5 401.7,217.1 402.3,216.8 402.9,216.5 403.5,216.3 404.2,216.0 404.8,215.7 405.4,215.4 406.0,215.1 406.6,214.7 407.3,214.4 407.9,214.1 408.5,213.9 409.1,213.6 409.7,213.3 410.4,213.0 411.0,212.7 411.6,212.4 412.2,212.2 412.8,211.9 413.5,211.6 414.1,211.5 414.7,211.3 415.3,211.0 415.9,210.7 416.6,210.4 417.2,210.1 417.8,209.8 418.4,209.5 419.0,209.2 419.7,208.9 420.3,208.6 420.9,208.3 421.5,207.7 422.1,207.4 422.8,207.1 423.4,206.8 424.0,206.5 424.6,206.2 425.2,205.9 425.9,205.6 426.5,205.0 427.1,204.6 427.7,204.3 428.3,204.0 429.0,203.5 429.6,203.2 430.2,202.9 430.8,202.5 431.4,202.5 432.1,202.2 432.7,201.8 433.3,201.5 433.9,201.3 434.5,201.0 435.2,200.6 435.8,200.3 436.4,200.0 437.0,199.6 437.6,199.3 438.3,199.0 438.9,198.8 439.5,198.4 440.1,198.1 440.7,197.8 441.4,197.6 442.0,197.2 442.6,196.9 443.2,196.6 443.8,195.8 444.5,195.4 445.1,195.0 445.7,194.7 446.3,195.3 446.9,195.0 447.6,194.7 448.2,194.3 448.8,194.2 449.4,193.9 450.0,193.6 450.7,193.2 451.3,192.9 451.9,192.5 452.5,192.2 453.1,191.9 453.8,190.3 454.4,189.9 455.0,189.5 455.6,189.2 456.2,189.6 456.9,189.2 457.5,188.9 458.1,188.5 458.7,188.6 459.3,188.3 460.0,188.0 460.6,187.7 461.2,188.4 461.8,188.1 462.4,187.8 463.1,187.5 463.7,187.0 464.3,186.7 464.9,186.4 465.5,186.1 466.2,186.0 466.8,185.6 467.4,185.3 468.0,185.0 468.6,184.2 469.3,183.9 469.9,183.5 470.5,183.2 471.1,183.6 471.7,183.2 472.4,182.9 473.0,182.5 473.6,182.2 474.2,181.9 474.8,181.5 475.5,181.2 476.1,181.1 476.7,180.7 477.3,180.4 477.9,180.0 478.6,179.8 479.2,179.4 479.8,179.1 480.4,178.7 481.0,178.4 481.7,178.0 482.3,177.6 482.9,177.2 483.5,176.8 484.1,176.4 484.8,176.0 485.4,175.7 486.0,175.2 486.6,174.9 487.2,174.5 487.9,174.1 488.5,173.8 489.1,173.4 489.7,173.0 490.3,172.6 491.0,172.1 491.6,171.7 492.2,171.3 492.8,170.9 493.4,170.6 494.1,170.1 494.7,169.7 495.3,169.3 495.9,168.6 496.5,168.1 497.2,167.7 497.8,167.3 498.4,166.5 499.0,166.1 499.6,165.7 500.3,165.2 500.9,164.3 501.5,163.9 502.1,163.4 502.7,163.0 503.4,162.9 504.0,162.5 504.6,162.0 505.2,161.6 505.8,161.9 506.5,161.5 507.1,161.1 507.7,160.6 508.3,160.0 508.9,159.5 509.6,159.1 510.2,158.7 510.8,182.4 511.4,181.9 512.0,181.4 512.7,180.9 513.3,180.4 513.9,179.9 514.5,179.4 515.1,178.8 515.8,178.4 516.4,177.8 517.0,177.3 517.6,176.7 518.2,176.2 518.9,175.6 519.5,175.1 520.1,174.6 520.7,173.7 521.3,173.2 522.0,172.6 522.6,172.1 523.2,226.4 523.8,226.2 524.4,226.0 525.1,225.8 525.7,225.9 526.3,225.7 526.9,225.5 527.5,225.3 528.2,224.9 528.8,224.7 529.4,224.5 530.0,224.3 530.6,224.1 531.3,223.9 531.9,223.7 532.5,223.4 533.1,223.1 533.7,222.9 534.4,222.7 535.0,222.5 535.6,256.7 536.2,256.5 536.8,256.3 537.5,256.1 538.1,255.0 538.7,254.8 539.3,254.6 539.9,254.4 540.6,252.7 541.2,252.5 541.8,252.2 542.4,252.0 543.0,252.9 543.7,252.7 544.3,252.5 544.9,252.4 545.5,251.1 546.1,250.9 546.8,250.7 547.4,250.5 548.0,258.8 548.6,258.7 549.2,258.5 549.9,258.4 550.5,255.9 551.1,255.8 551.7,255.6 552.3,255.5 553.0,254.4 553.6,254.3 554.2,254.1 554.8,253.9 555.4,258.0 556.1,257.9 556.7,257.8 557.3,257.7 557.9,258.3 558.5,258.2 559.2,258.1 559.8,258.0 560.4,259.3 561.0,259.2 561.6,259.1 562.3,259.0 562.9,257.8 563.5,257.7 564.1,257.6 564.7,257.5 565.4,258.7 566.0,258.6 566.6,258.5 567.2,258.4 567.8,258.5 568.5,258.4 569.1,258.3 569.7,258.2 570.3,258.6 570.9,258.5 571.6,258.4 572.2,258.3 572.8,242.7 573.4,242.6 574.0,242.5 574.7,242.4 575.3,243.1 575.9,243.0 576.5,242.9 577.1,242.7 577.8,242.6 578.4,242.5 579.0,242.4 579.6,242.3 580.2,242.6 580.9,242.5 581.5,242.4 582.1,242.3 582.7,242.1 583.3,242.0 584.0,241.9 584.6,241.8 585.2,241.8 585.8,241.7 586.4,241.6 587.1,241.5 587.7,241.4 588.3,241.3 588.9,241.2 589.5,241.1 590.2,241.0 590.8,240.9 591.4,240.8 592.0,240.7 592.6,240.7 593.3,240.6 593.9,240.5 594.5,240.5 595.1,239.6 595.7,239.5 596.4,239.4 597.0,239.3 597.6,231.4 598.2,231.1 598.8,230.7 599.5,230.4 600.1,230.8 600.7,230.5 601.3,230.2 601.9,229.9 602.6,230.1 603.2,229.8 603.8,229.5 604.4,229.2 605.0,229.2 605.7,228.9 606.3,228.6 606.9,228.3 607.5,227.7 608.1,227.4 608.8,227.1 609.4,226.8 610.0,219.4 610.6,219.1 611.2,218.8 611.9,218.4 612.5,218.3 613.1,218.0 613.7,217.7 614.3,217.3 615.0,216.9 615.6,216.5 616.2,216.2 616.8,215.9 617.4,215.3 618.1,215.0 618.7,214.7 619.3,214.3 619.9,213.8 620.5,213.5 621.2,213.2 621.8,212.9 622.4,239.4 623.0,239.3 623.6,239.2 624.3,239.0 624.9,240.7 625.5,240.5 626.1,240.4 626.7,240.3 627.4,240.5 628.0,240.4 628.6,240.3 629.2,240.2 629.8,240.9 630.5,240.9 631.1,240.8 631.7,240.7 632.3,241.6 632.9,241.5 633.6,241.5 634.2,241.4 634.8,256.4 635.4,256.5 636.0,256.6 636.7,256.7 637.3,258.5 637.9,258.6 638.5,258.7 639.1,258.8 639.8,259.3 640.4,259.4 641.0,259.5 641.6,259.6 642.2,258.6 642.9,258.6 643.5,258.6 644.1,258.7 644.7,260.1 645.3,260.2 646.0,260.3 646.6,260.4 647.2,266.1 647.8,266.0 648.4,266.0 649.1,266.0 649.7,265.5 650.3,265.4 650.9,265.4 651.5,265.3 652.2,264.1 652.8,263.9 653.4,263.8 654.0,263.7 654.6,263.1 655.3,262.9 655.9,262.7 656.5,262.6 657.1,263.1 657.7,262.9 658.4,262.8 659.0,262.6 659.6,263.3 660.2,263.3 660.8,263.2 661.5,263.1 662.1,262.6 662.7,262.5 663.3,262.4 663.9,262.3 664.6,263.3 665.2,263.2 665.8,263.1 666.4,262.9 667.0,262.7 667.7,262.5 668.3,262.4 668.9,262.2 669.5,262.1 670.1,261.9 670.8,261.7 671.4,261.5 672.0,268.2 672.6,268.2 673.2,268.1 673.9,268.0 674.5,267.9 675.1,267.9 675.7,267.8 676.3,267.7 677.0,267.3 677.6,267.2 678.2,267.1 678.8,267.0 679.4,267.2 680.1,267.1 680.7,267.0 681.3,267.0 681.9,266.7 682.5,266.6 683.2,266.5 683.8,266.4 684.4,263.1 685.0,263.2 685.6,263.2 686.3,263.3 686.9,263.8 687.5,263.9 688.1,264.0 688.7,264.1 689.4,264.1 690.0,264.2 690.6,264.3 691.2,264.4 691.8,264.2 692.5,264.2 693.1,264.3 693.7,264.4 694.3,265.8 694.9,265.9 695.6,266.0 696.2,266.1 696.8,269.3 697.4,269.0 698.0,268.7 698.7,268.5 699.3,267.6 699.9,267.3 700.5,267.0 701.1,266.7 701.8,264.4 702.4,264.1 703.0,263.8 703.6,263.5 704.2,265.8 704.9,265.5 705.5,265.1 706.1,264.8 706.7,264.8 707.3,264.4 708.0,264.1 708.6,263.8 709.2,252.8 709.8,252.6 710.4,252.4 711.1,252.1 711.7,251.8 712.3,251.6 712.9,251.4 713.5,251.1 714.2,250.7 714.8,250.5 715.4,250.2 716.0,250.0 716.6,250.0 717.3,249.7 717.9,249.5 718.5,249.2 719.1,248.9 719.7,248.7 720.4,248.4 721.0,248.1 721.6,254.8 722.2,254.7 722.8,254.6 723.5,254.6 724.1,254.4 724.7,254.3 725.3,254.2 725.9,254.2 726.6,254.2 727.2,254.1 727.8,254.0 728.4,253.9 729.0,253.7 729.7,253.7 730.3,253.6 730.9,253.5 731.5,253.5 732.1,253.4 732.8,253.4 733.4,253.3 734.0,253.8 734.6,253.9 735.2,253.9 735.9,253.9 736.5,253.9 737.1,253.9 737.7,253.9 738.3,254.0 739.0,254.0 739.6,254.0 740.2,254.0 740.8,254.1 741.4,253.9 742.1,253.9 742.7,253.9 743.3,253.9 743.9,254.1 744.5,254.1 745.2,254.1 745.8,254.1 746.4,243.5 747.0,243.4 747.6,243.4 748.3,243.3 748.9,243.1 749.5,243.1 750.1,243.0 750.7,242.9 751.4,243.1 752.0,243.0 752.6,242.9 753.2,242.9 753.8,242.8 754.5,242.8 755.1,242.7 755.7,242.6 756.3,242.3 756.9,242.2 757.6,242.1 758.2,242.0 758.8,259.7 759.4,259.7 760.0,259.7 760.7,259.7 761.3,259.9 761.9,259.9 762.5,259.9 763.1,260.0 763.8,259.8 764.4,259.8 765.0,259.8 765.6,259.7 766.2,259.7 766.9,259.7 767.5,259.7 768.1,259.6 768.7,259.2 769.3,259.1 770.0,259.1 770.6,259.0 771.2,268.8 771.8,268.8 772.4,268.7 773.1,268.6 773.7,267.8 774.3,267.7 774.9,267.6 775.5,267.5 776.2,269.7 776.8,269.7 777.4,269.6 778.0,269.5 778.6,264.0 779.3,263.8 779.9,263.7 780.5,263.5 781.1,262.8 781.7,262.6 782.4,262.4 783.0,262.2 783.6,259.9 784.2,259.7 784.8,259.5 785.5,259.3 786.1,261.3 786.7,261.2 787.3,261.0 787.9,260.8 788.6,259.8 789.2,259.6 789.8,259.4 790.4,259.2 791.0,255.9 791.7,255.6 792.3,255.4 792.9,255.1 793.5,258.0 794.1,257.8 794.8,257.6 795.4,257.4 796.0,249.1"/>
<text x="640" y="56" font-family="Arial" font-size="12" fill="#0f766e">position error</text>
<polyline fill="none" stroke="#2563eb" stroke-width="2.3" points="52.0,123.3 52.6,123.3 53.2,123.3 53.9,123.3 54.5,125.7 55.1,125.7 55.7,125.6 56.3,125.6 57.0,126.5 57.6,126.4 58.2,126.3 58.8,126.1 59.4,126.5 60.1,126.4 60.7,126.2 61.3,126.0 61.9,126.2 62.5,126.0 63.2,125.8 63.8,125.5 64.4,163.4 65.0,163.3 65.6,163.2 66.3,163.1 66.9,163.2 67.5,163.1 68.1,162.9 68.7,162.7 69.4,162.8 70.0,162.6 70.6,162.4 71.2,162.2 71.8,162.1 72.5,161.9 73.1,161.6 73.7,161.3 74.3,161.2 74.9,160.8 75.6,160.5 76.2,160.0 76.8,181.1 77.4,180.9 78.0,180.7 78.7,180.5 79.3,180.5 79.9,180.3 80.5,180.1 81.1,179.9 81.8,179.8 82.4,179.5 83.0,179.2 83.6,178.9 84.2,178.8 84.9,178.5 85.5,178.1 86.1,177.7 86.7,177.5 87.3,177.1 88.0,176.6 88.6,176.1 89.2,191.4 89.8,191.2 90.4,191.0 91.1,190.8 91.7,190.7 92.3,190.4 92.9,190.2 93.5,189.9 94.2,189.8 94.8,189.5 95.4,189.1 96.0,188.7 96.6,188.6 97.3,188.2 97.9,187.8 98.5,187.4 99.1,187.2 99.7,186.7 100.4,186.2 101.0,185.7 101.6,198.2 102.2,197.9 102.8,197.7 103.5,197.4 104.1,197.3 104.7,197.0 105.3,196.7 105.9,196.4 106.6,196.3 107.2,195.9 107.8,195.6 108.4,195.2 109.0,195.0 109.7,194.6 110.3,194.2 110.9,193.7 111.5,193.5 112.1,193.1 112.8,192.6 113.4,192.0 114.0,202.9 114.6,202.6 115.2,202.3 115.9,202.0 116.5,201.9 117.1,201.6 117.7,201.2 118.3,200.9 119.0,200.8 119.6,200.4 120.2,200.0 120.8,199.6 121.4,199.5 122.1,199.0 122.7,198.6 123.3,198.1 123.9,198.0 124.5,197.5 125.2,197.0 125.8,196.5 126.4,206.2 127.0,205.9 127.6,205.6 128.3,205.3 128.9,205.2 129.5,204.9 130.1,204.5 130.7,204.1 131.4,204.0 132.0,203.6 132.6,203.2 133.2,202.8 133.8,202.7 134.5,202.2 135.1,201.8 135.7,201.3 136.3,201.1 136.9,200.7 137.6,200.2 138.2,199.7 138.8,208.7 139.4,208.4 140.0,208.1 140.7,207.7 141.3,207.6 141.9,207.3 142.5,206.9 143.1,206.5 143.8,206.4 144.4,206.0 145.0,205.6 145.6,205.2 146.2,205.0 146.9,204.6 147.5,204.2 148.1,203.7 148.7,203.5 149.3,203.0 150.0,202.6 150.6,202.1 151.2,210.5 151.8,210.2 152.4,209.9 153.1,209.5 153.7,209.4 154.3,209.1 154.9,208.7 155.5,208.3 156.2,208.2 156.8,207.8 157.4,207.4 158.0,207.0 158.6,206.8 159.3,206.4 159.9,205.9 160.5,205.5 161.1,205.3 161.7,204.8 162.4,204.3 163.0,203.9 163.6,211.9 164.2,211.6 164.8,211.2 165.5,210.9 166.1,210.8 166.7,210.4 167.3,210.0 167.9,209.7 168.6,209.5 169.2,209.1 169.8,208.7 170.4,208.3 171.0,208.1 171.7,207.7 172.3,207.3 172.9,206.8 173.5,206.6 174.1,206.2 174.8,205.7 175.4,205.2 176.0,213.0 176.6,212.6 177.2,212.3 177.9,211.9 178.5,211.8 179.1,211.4 179.7,211.1 180.3,210.7 181.0,210.5 181.6,210.1 182.2,209.7 182.8,209.3 183.4,209.1 184.1,208.7 184.7,208.3 185.3,207.9 185.9,207.7 186.5,207.2 187.2,206.8 187.8,206.3 188.4,213.8 189.0,213.4 189.6,213.1 190.3,212.7 190.9,212.6 191.5,212.2 192.1,211.9 192.7,211.5 193.4,211.3 194.0,210.9 194.6,210.5 195.2,210.1 195.8,209.9 196.5,209.5 197.1,209.1 197.7,208.7 198.3,208.5 198.9,208.0 199.6,207.6 200.2,207.1 200.8,214.4 201.4,214.0 202.0,213.7 202.7,213.4 203.3,213.2 203.9,212.8 204.5,212.5 205.1,212.1 205.8,211.9 206.4,211.6 207.0,211.2 207.6,210.8 208.2,210.6 208.9,210.2 209.5,209.8 210.1,209.3 210.7,209.1 211.3,208.7 212.0,208.2 212.6,207.8 213.2,214.8 213.8,214.5 214.4,214.2 215.1,213.8 215.7,213.7 216.3,213.3 216.9,213.0 217.5,212.6 218.2,212.4 218.8,212.0 219.4,211.7 220.0,211.3 220.6,211.1 221.3,210.7 221.9,210.3 222.5,209.8 223.1,209.6 223.7,209.2 224.4,208.8 225.0,208.3 225.6,215.2 226.2,214.9 226.8,214.6 227.5,214.2 228.1,214.0 228.7,213.7 229.3,213.3 229.9,213.0 230.6,212.8 231.2,212.4 231.8,212.0 232.4,211.7 233.0,211.4 233.7,211.1 234.3,210.7 234.9,210.3 235.5,210.0 236.1,209.6 236.8,209.2 237.4,208.8 238.0,215.5 238.6,215.2 239.2,214.8 239.9,214.5 240.5,214.3 241.1,214.0 241.7,213.6 242.3,213.3 243.0,213.1 243.6,212.7 244.2,212.4 244.8,212.0 245.4,211.8 246.1,211.4 246.7,211.0 247.3,210.6 247.9,210.4 248.5,210.0 249.2,209.5 249.8,209.1 250.4,215.7 251.0,215.4 251.6,215.1 252.3,214.7 252.9,214.6 253.5,214.2 254.1,213.9 254.7,213.5 255.4,213.3 256.0,213.0 256.6,212.6 257.2,212.2 257.8,212.0 258.5,211.6 259.1,211.3 259.7,210.9 260.3,210.6 260.9,210.2 261.6,209.8 262.2,209.4 262.8,215.9 263.4,215.6 264.0,215.3 264.7,214.9 265.3,214.8 265.9,214.4 266.5,214.1 267.1,213.7 267.8,213.5 268.4,213.2 269.0,212.8 269.6,212.4 270.2,212.2 270.9,211.9 271.5,211.5 272.1,211.1 272.7,210.9 273.3,210.5 274.0,210.1 274.6,209.7 275.2,216.1 275.8,215.7 276.4,215.4 277.1,215.1 277.7,214.9 278.3,214.6 278.9,214.2 279.5,213.9 280.2,213.7 280.8,213.3 281.4,213.0 282.0,212.6 282.6,212.4 283.3,212.0 283.9,211.7 284.5,211.3 285.1,211.1 285.7,210.7 286.4,210.3 287.0,209.9 287.6,216.2 288.2,215.9 288.8,215.5 289.5,215.2 290.1,215.0 290.7,214.7 291.3,214.4 291.9,214.0 292.6,213.8 293.2,213.5 293.8,213.1 294.4,212.8 295.0,212.6 295.7,212.2 296.3,211.8 296.9,211.5 297.5,211.2 298.1,210.8 298.8,210.5 299.4,210.1 300.0,216.3 300.6,216.0 301.2,215.7 301.9,215.3 302.5,215.2 303.1,214.8 303.7,214.5 304.3,214.2 305.0,214.0 305.6,213.6 306.2,213.3 306.8,212.9 307.4,212.7 308.1,212.3 308.7,212.0 309.3,211.6 309.9,211.4 310.5,211.0 311.2,210.6 311.8,210.2 312.4,216.4 313.0,216.1 313.6,215.7 314.3,215.4 314.9,215.3 315.5,214.9 316.1,214.6 316.7,214.3 317.4,214.1 318.0,213.7 318.6,213.4 319.2,213.0 319.8,212.8 320.5,212.5 321.1,212.1 321.7,211.7 322.3,211.5 322.9,211.1 323.6,210.7 324.2,210.4 324.8,216.4 325.4,216.1 326.0,215.8 326.7,215.5 327.3,215.3 327.9,215.0 328.5,214.7 329.1,214.3 329.8,214.2 330.4,213.8 331.0,213.5 331.6,213.1 332.2,212.9 332.9,212.6 333.5,212.2 334.1,211.8 334.7,211.6 335.3,211.3 336.0,210.9 336.6,210.5 337.2,216.5 337.8,216.2 338.4,215.9 339.1,215.6 339.7,215.4 340.3,215.1 340.9,214.8 341.5,214.4 342.2,214.2 342.8,213.9 343.4,213.6 344.0,213.2 344.6,213.0 345.3,212.7 345.9,212.3 346.5,211.9 347.1,211.7 347.7,211.4 348.4,211.0 349.0,210.6 349.6,216.6 350.2,216.3 350.8,216.0 351.5,215.6 352.1,215.5 352.7,215.2 353.3,214.8 353.9,214.5 354.6,214.3 355.2,214.0 355.8,213.6 356.4,213.3 357.0,213.1 357.7,212.8 358.3,212.4 358.9,212.0 359.5,211.8 360.1,211.5 360.8,211.1 361.4,210.7 362.0,216.6 362.6,216.3 363.2,216.0 363.9,215.7 364.5,215.5 365.1,215.2 365.7,214.9 366.3,214.6 367.0,214.4 367.6,214.1 368.2,213.7 368.8,213.4 369.4,213.2 370.1,212.8 370.7,212.5 371.3,212.1 371.9,211.9 372.5,211.6 373.2,211.2 373.8,210.8 374.4,216.7 375.0,216.4 375.6,216.1 376.3,215.8 376.9,215.6 377.5,215.3 378.1,215.0 378.7,214.6 379.4,214.5 380.0,214.1 380.6,213.8 381.2,213.5 381.8,213.3 382.5,212.9 383.1,212.6 383.7,212.2 384.3,212.0 384.9,211.6 385.6,211.3 386.2,210.9 386.8,216.7 387.4,216.4 388.0,216.1 388.7,215.8 389.3,215.7 389.9,215.3 390.5,215.0 391.1,214.7 391.8,214.5 392.4,214.2 393.0,213.9 393.6,213.5 394.2,213.3 394.9,213.0 395.5,212.6 396.1,212.3 396.7,212.1 397.3,211.7 398.0,211.4 398.6,211.0 399.2,210.7 399.8,210.2 400.4,209.7 401.1,209.2 401.7,208.9 402.3,208.4 402.9,207.9 403.5,207.4 404.2,207.1 404.8,206.6 405.4,206.0 406.0,205.5 406.6,205.1 407.3,204.6 407.9,204.1 408.5,203.5 409.1,203.1 409.7,202.6 410.4,202.0 411.0,201.5 411.6,201.1 412.2,200.5 412.8,199.9 413.5,199.3 414.1,198.9 414.7,198.3 415.3,197.7 415.9,197.1 416.6,196.6 417.2,196.0 417.8,195.4 418.4,194.7 419.0,194.3 419.7,193.6 420.3,193.0 420.9,192.3 421.5,191.8 422.1,191.2 422.8,190.5 423.4,189.8 424.0,189.3 424.6,188.6 425.2,187.9 425.9,187.2 426.5,186.7 427.1,186.0 427.7,185.2 428.3,184.5 429.0,183.9 429.6,183.2 430.2,182.5 430.8,181.7 431.4,181.1 432.1,180.4 432.7,179.6 433.3,178.8 433.9,178.2 434.5,177.4 435.2,176.6 435.8,175.8 436.4,175.2 437.0,174.4 437.6,173.6 438.3,172.8 438.9,172.1 439.5,171.3 440.1,170.4 440.7,169.6 441.4,168.9 442.0,168.0 442.6,167.2 443.2,166.3 443.8,165.6 444.5,164.7 445.1,163.8 445.7,162.9 446.3,162.2 446.9,161.3 447.6,160.3 448.2,159.4 448.8,158.6 449.4,157.7 450.0,156.8 450.7,155.8 451.3,155.0 451.9,154.1 452.5,153.1 453.1,152.1 453.8,151.3 454.4,150.3 455.0,149.3 455.6,148.3 456.2,147.5 456.9,146.4 457.5,145.4 458.1,144.4 458.7,143.5 459.3,142.5 460.0,141.4 460.6,140.4 461.2,139.5 461.8,138.4 462.4,137.3 463.1,136.3 463.7,135.3 464.3,134.2 464.9,133.1 465.5,132.0 466.2,131.0 466.8,129.9 467.4,128.8 468.0,127.7 468.6,126.6 469.3,125.5 469.9,124.3 470.5,123.2 471.1,122.1 471.7,121.0 472.4,119.8 473.0,118.6 473.6,117.5 474.2,116.3 474.8,115.1 475.5,113.9 476.1,112.8 476.7,111.6 477.3,110.3 477.9,109.1 478.6,107.9 479.2,106.7 479.8,105.4 480.4,104.2 481.0,103.0 481.7,101.7 482.3,100.4 482.9,99.1 483.5,97.9 484.1,96.6 484.8,95.3 485.4,93.9 486.0,92.7 486.6,91.4 487.2,90.0 487.9,88.6 488.5,87.4 489.1,86.0 489.7,84.6 490.3,83.2 491.0,81.9 491.6,80.5 492.2,79.1 492.8,77.7 493.4,76.3 494.1,74.9 494.7,73.5 495.3,72.0 495.9,70.6 496.5,69.2 497.2,67.7 497.8,66.2 498.4,64.8 499.0,63.6 499.6,62.4 500.3,61.3 500.9,60.1 501.5,58.9 502.1,57.7 502.7,56.5 503.4,55.4 504.0,54.2 504.6,53.0 505.2,51.8 505.8,50.6 506.5,49.4 507.1,48.1 507.7,46.9 508.3,45.7 508.9,44.5 509.6,43.3 510.2,42.0 510.8,156.7 511.4,156.2 512.0,155.7 512.7,155.2 513.3,154.8 513.9,154.3 514.5,153.8 515.1,153.3 515.8,152.8 516.4,152.3 517.0,151.8 517.6,151.3 518.2,150.8 518.9,150.3 519.5,149.8 520.1,149.2 520.7,148.8 521.3,148.2 522.0,147.7 522.6,147.1 523.2,178.4 523.8,178.1 524.4,177.7 525.1,177.4 525.7,177.2 526.3,176.8 526.9,176.4 527.5,176.1 528.2,175.8 528.8,175.4 529.4,175.1 530.0,174.7 530.6,174.4 531.3,174.0 531.9,173.6 532.5,173.3 533.1,173.0 533.7,172.6 534.4,172.2 535.0,171.8 535.6,189.6 536.2,189.3 536.8,189.0 537.5,188.7 538.1,188.6 538.7,188.3 539.3,188.0 539.9,187.7 540.6,187.5 541.2,187.2 541.8,186.9 542.4,186.5 543.0,186.3 543.7,186.0 544.3,185.7 544.9,185.4 545.5,185.2 546.1,184.8 546.8,184.5 547.4,184.1 548.0,196.7 548.6,196.5 549.2,196.2 549.9,196.0 550.5,195.8 551.1,195.5 551.7,195.3 552.3,195.0 553.0,194.8 553.6,194.6 554.2,194.3 554.8,194.0 555.4,193.8 556.1,193.5 556.7,193.2 557.3,192.9 557.9,192.8 558.5,192.4 559.2,192.1 559.8,191.8 560.4,201.7 561.0,201.5 561.6,201.2 562.3,201.0 562.9,200.9 563.5,200.6 564.1,200.4 564.7,200.1 565.4,200.0 566.0,199.7 566.6,199.4 567.2,199.1 567.8,199.0 568.5,198.7 569.1,198.4 569.7,198.1 570.3,198.0 570.9,197.7 571.6,197.4 572.2,197.1 572.8,205.4 573.4,205.2 574.0,204.9 574.7,204.7 575.3,204.6 575.9,204.3 576.5,204.1 577.1,203.8 577.8,203.7 578.4,203.4 579.0,203.1 579.6,202.9 580.2,202.7 580.9,202.4 581.5,202.2 582.1,201.9 582.7,201.7 583.3,201.4 584.0,201.1 584.6,200.8 585.2,200.6 585.8,200.3 586.4,200.0 587.1,199.7 587.7,199.5 588.3,199.2 588.9,198.9 589.5,198.5 590.2,198.3 590.8,198.0 591.4,197.7 592.0,197.3 592.6,197.1 593.3,196.7 593.9,196.4 594.5,196.0 595.1,195.8 595.7,195.4 596.4,195.0 597.0,194.7 597.6,204.4 598.2,204.1 598.8,203.9 599.5,203.6 600.1,203.4 600.7,203.1 601.3,202.8 601.9,202.5 602.6,202.3 603.2,202.0 603.8,201.7 604.4,201.4 605.0,201.2 605.7,200.8 606.3,200.5 606.9,200.2 607.5,200.0 608.1,199.6 608.8,199.3 609.4,198.9 610.0,207.3 610.6,207.0 611.2,206.7 611.9,206.4 612.5,206.3 613.1,206.0 613.7,205.7 614.3,205.4 615.0,205.3 615.6,205.0 616.2,204.7 616.8,204.4 617.4,204.2 618.1,203.9 618.7,203.5 619.3,203.2 619.9,203.0 620.5,202.7 621.2,202.4 621.8,202.0 622.4,209.5 623.0,209.2 623.6,208.9 624.3,208.7 624.9,208.5 625.5,208.2 626.1,208.0 626.7,207.7 627.4,207.5 628.0,207.2 628.6,206.9 629.2,206.6 629.8,206.4 630.5,206.1 631.1,205.8 631.7,205.5 632.3,205.3 632.9,205.0 633.6,204.7 634.2,204.3 634.8,211.2 635.4,210.9 636.0,210.7 636.7,210.4 637.3,210.2 637.9,210.0 638.5,209.7 639.1,209.4 639.8,209.2 640.4,208.9 641.0,208.7 641.6,208.3 642.2,208.2 642.9,207.9 643.5,207.6 644.1,207.2 644.7,207.1 645.3,206.7 646.0,206.4 646.6,206.1 647.2,212.5 647.8,212.3 648.4,212.0 649.1,211.7 649.7,211.6 650.3,211.3 650.9,211.0 651.5,210.7 652.2,210.6 652.8,210.3 653.4,210.0 654.0,209.7 654.6,209.5 655.3,209.2 655.9,208.9 656.5,208.6 657.1,208.4 657.7,208.1 658.4,207.8 659.0,207.4 659.6,213.6 660.2,213.3 660.8,213.0 661.5,212.8 662.1,212.6 662.7,212.4 663.3,212.1 663.9,211.8 664.6,211.6 665.2,211.3 665.8,211.0 666.4,210.7 667.0,210.6 667.7,210.3 668.3,209.9 668.9,209.6 669.5,209.4 670.1,209.1 670.8,208.8 671.4,208.5 672.0,214.4 672.6,214.1 673.2,213.9 673.9,213.6 674.5,213.4 675.1,213.2 675.7,212.9 676.3,212.6 677.0,212.4 677.6,212.1 678.2,211.8 678.8,211.5 679.4,211.4 680.1,211.1 680.7,210.7 681.3,210.4 681.9,210.2 682.5,209.9 683.2,209.6 683.8,209.2 684.4,215.1 685.0,214.8 685.6,214.5 686.3,214.2 686.9,214.1 687.5,213.8 688.1,213.5 688.7,213.2 689.4,213.1 690.0,212.8 690.6,212.5 691.2,212.1 691.8,212.0 692.5,211.7 693.1,211.4 693.7,211.0 694.3,210.8 694.9,210.5 695.6,210.2 696.2,209.8 696.8,215.6 697.4,215.3 698.0,215.0 698.7,214.7 699.3,214.6 699.9,214.3 700.5,214.0 701.1,213.7 701.8,213.5 702.4,213.2 703.0,212.9 703.6,212.6 704.2,212.5 704.9,212.1 705.5,211.8 706.1,211.5 706.7,211.3 707.3,211.0 708.0,210.6 708.6,210.3 709.2,215.9 709.8,215.7 710.4,215.4 711.1,215.1 711.7,215.0 712.3,214.7 712.9,214.4 713.5,214.1 714.2,213.9 714.8,213.6 715.4,213.3 716.0,213.0 716.6,212.8 717.3,212.5 717.9,212.2 718.5,211.9 719.1,211.7 719.7,211.3 720.4,211.0 721.0,210.7 721.6,216.3 722.2,216.0 722.8,215.7 723.5,215.4 724.1,215.3 724.7,215.0 725.3,214.7 725.9,214.4 726.6,214.2 727.2,213.9 727.8,213.6 728.4,213.3 729.0,213.1 729.7,212.8 730.3,212.5 730.9,212.1 731.5,212.0 732.1,211.6 732.8,211.3 733.4,210.9 734.0,216.5 734.6,216.2 735.2,215.9 735.9,215.6 736.5,215.5 737.1,215.2 737.7,214.9 738.3,214.6 739.0,214.4 739.6,214.1 740.2,213.8 740.8,213.5 741.4,213.3 742.1,213.0 742.7,212.7 743.3,212.3 743.9,212.2 744.5,211.8 745.2,211.5 745.8,211.1 746.4,216.7 747.0,216.4 747.6,216.1 748.3,215.8 748.9,215.7 749.5,215.4 750.1,215.1 750.7,214.8 751.4,214.6 752.0,214.3 752.6,214.0 753.2,213.7 753.8,213.5 754.5,213.2 755.1,212.8 755.7,212.5 756.3,212.3 756.9,212.0 757.6,211.6 758.2,211.3 758.8,216.8 759.4,216.5 760.0,216.2 760.7,215.9 761.3,215.8 761.9,215.5 762.5,215.2 763.1,214.9 763.8,214.7 764.4,214.4 765.0,214.1 765.6,213.8 766.2,213.6 766.9,213.3 767.5,213.0 768.1,212.6 768.7,212.4 769.3,212.1 770.0,211.8 770.6,211.4 771.2,216.9 771.8,216.6 772.4,216.3 773.1,216.0 773.7,215.9 774.3,215.6 774.9,215.3 775.5,215.0 776.2,214.8 776.8,214.5 777.4,214.2 778.0,213.9 778.6,213.7 779.3,213.4 779.9,213.1 780.5,212.7 781.1,212.5 781.7,212.2 782.4,211.9 783.0,211.5 783.6,217.0 784.2,216.7 784.8,216.4 785.5,216.1 786.1,216.0 786.7,215.7 787.3,215.4 787.9,215.1 788.6,214.9 789.2,214.6 789.8,214.3 790.4,214.0 791.0,213.8 791.7,213.5 792.3,213.1 792.9,212.8 793.5,212.6 794.1,212.3 794.8,211.9 795.4,211.6 796.0,217.1"/>
<text x="640" y="72" font-family="Arial" font-size="12" fill="#2563eb">sqrt trace Ppos</text>
</svg>