<svg xmlns="http://www.w3.org/2000/svg" width="820" height="320" viewBox="0 0 820 320">
<rect width="100%" height="100%" fill="white"/>
<text x="52" y="30" font-family="Arial" font-size="18" font-weight="700">dropout_robust covariance trace</text>
<line x1="52" y1="274" x2="796" y2="274" stroke="#263238"/>
<line x1="52" y1="42" x2="52" y2="274" stroke="#263238"/>
<text x="52" y="306" font-family="Arial" font-size="12">time (s)</text>
<text x="630" y="306" font-family="Arial" font-size="12">sqrt trace P</text>

<polyline fill="none" stroke="#0f766e" stroke-width="2.3" points="52.0,247.7 52.6,247.6 53.2,247.0 53.9,246.1 54.5,246.5 55.1,245.2 55.7,243.6 56.3,241.7 57.0,241.0 57.6,239.0 58.2,236.7 58.8,234.2 59.4,232.8 60.1,230.2 60.7,227.5 61.3,224.7 61.9,222.6 62.5,219.7 63.2,216.7 63.8,213.6 64.4,253.0 65.0,251.1 65.6,249.2 66.3,247.1 66.9,245.6 67.5,243.4 68.1,241.1 68.7,238.8 69.4,236.9 70.0,234.5 70.6,232.1 71.2,229.6 71.8,227.4 72.5,224.9 73.1,222.3 73.7,219.7 74.3,217.3 74.9,214.7 75.6,212.0 76.2,209.3 76.8,252.6 77.4,251.1 78.0,249.5 78.7,247.9 79.3,246.6 79.9,244.9 80.5,243.2 81.1,241.5 81.8,240.0 82.4,238.3 83.0,236.5 83.6,234.7 84.2,233.1 84.9,231.3 85.5,229.4 86.1,227.6 86.7,225.9 87.3,224.0 88.0,222.1 88.6,220.1 89.2,254.8 89.8,253.7 90.4,252.4 91.1,251.2 91.7,250.2 92.3,248.9 92.9,247.6 93.5,246.3 94.2,245.2 94.8,243.8 95.4,242.5 96.0,241.1 96.6,239.9 97.3,238.5 97.9,237.0 98.5,235.6 99.1,234.3 99.7,232.8 100.4,231.3 101.0,229.8 101.6,257.2 102.2,256.2 102.8,255.1 103.5,254.1 104.1,253.2 104.7,252.1 105.3,251.0 105.9,249.9 106.6,248.9 107.2,247.8 107.8,246.6 108.4,245.3 109.0,244.3 109.7,243.1 110.3,241.8 110.9,240.5 111.5,239.4 112.1,238.1 112.8,236.7 113.4,235.3 114.0,258.8 114.6,257.8 115.2,256.9 115.9,255.8 116.5,255.0 117.1,254.0 117.7,252.9 118.3,251.8 119.0,250.9 119.6,249.8 120.2,248.6 120.8,247.5 121.4,246.5 122.1,245.2 122.7,244.0 123.3,242.8 123.9,241.6 124.5,240.3 125.2,239.0 125.8,237.7 126.4,259.5 127.0,258.6 127.6,257.6 128.3,256.6 128.9,255.8 129.5,254.7 130.1,253.7 130.7,252.6 131.4,251.6 132.0,250.5 132.6,249.3 133.2,248.2 133.8,247.1 134.5,245.9 135.1,244.7 135.7,243.4 136.3,242.3 136.9,241.0 137.6,239.6 138.2,238.3 138.8,259.8 139.4,258.8 140.0,257.8 140.7,256.8 141.3,256.0 141.9,254.9 142.5,253.9 143.1,252.8 143.8,251.8 144.4,250.7 145.0,249.5 145.6,248.4 146.2,247.3 146.9,246.1 147.5,244.9 148.1,243.6 148.7,242.5 149.3,241.2 150.0,239.9 150.6,238.6 151.2,259.9 151.8,259.0 152.4,258.0 153.1,257.0 153.7,256.2 154.3,255.1 154.9,254.1 155.5,253.1 156.2,252.1 156.8,251.0 157.4,249.9 158.0,248.8 158.6,247.7 159.3,246.6 159.9,245.4 160.5,244.2 161.1,243.1 161.7,241.9 162.4,240.6 163.0,239.4 163.6,260.2 164.2,259.3 164.8,258.4 165.5,257.5 166.1,256.6 166.7,255.7 167.3,254.7 167.9,253.7 168.6,252.8 169.2,251.8 169.8,250.7 170.4,249.7 171.0,248.7 171.7,247.6 172.3,246.5 172.9,245.4 173.5,244.3 174.1,243.2 174.8,242.0 175.4,240.9 176.0,260.7 176.6,259.9 177.2,259.0 177.9,258.2 178.5,257.4 179.1,256.5 179.7,255.6 180.3,254.7 181.0,253.8 181.6,252.9 182.2,251.9 182.8,250.9 183.4,250.0 184.1,249.0 184.7,248.0 185.3,247.0 185.9,246.0 186.5,244.9 187.2,243.9 187.8,242.8 188.4,261.5 189.0,260.7 189.6,259.9 190.3,259.1 190.9,258.3 191.5,257.5 192.1,256.7 192.7,255.8 193.4,255.0 194.0,254.2 194.6,253.3 195.2,252.4 195.8,251.6 196.5,250.6 197.1,249.7 197.7,248.8 198.3,247.9 198.9,246.9 199.6,246.0 200.2,245.0 200.8,262.3 201.4,261.6 202.0,260.8 202.7,260.1 203.3,259.4 203.9,258.7 204.5,257.9 205.1,257.1 205.8,256.4 206.4,255.6 207.0,254.8 207.6,254.0 208.2,253.2 208.9,252.4 209.5,251.5 210.1,250.7 210.7,249.9 211.3,249.0 212.0,248.1 212.6,247.2 213.2,263.2 213.8,262.5 214.4,261.8 215.1,261.2 215.7,260.5 216.3,259.8 216.9,259.1 217.5,258.4 218.2,257.7 218.8,257.0 219.4,256.3 220.0,255.5 220.6,254.8 221.3,254.1 221.9,253.3 222.5,252.5 223.1,251.8 223.7,251.0 224.4,250.2 225.0,249.4 225.6,264.1 226.2,263.5 226.8,262.8 227.5,262.2 228.1,261.6 228.7,261.0 229.3,260.3 229.9,259.7 230.6,259.1 231.2,258.4 231.8,257.7 232.4,257.0 233.0,256.4 233.7,255.7 234.3,255.0 234.9,254.3 235.5,253.6 236.1,252.9 236.8,252.1 237.4,251.4 238.0,265.0 238.6,264.4 239.2,263.8 239.9,263.2 240.5,262.7 241.1,262.1 241.7,261.5 242.3,260.9 243.0,260.3 243.6,259.7 244.2,259.1 244.8,258.4 245.4,257.9 246.1,257.2 246.7,256.6 247.3,255.9 247.9,255.3 248.5,254.6 249.2,254.0 249.8,253.3 250.4,265.8 251.0,265.3 251.6,264.7 252.3,264.2 252.9,263.7 253.5,263.1 254.1,262.6 254.7,262.0 255.4,261.5 256.0,260.9 256.6,260.3 257.2,259.8 257.8,259.2 258.5,258.6 259.1,258.0 259.7,257.4 260.3,256.9 260.9,256.2 261.6,255.6 262.2,255.0 262.8,266.6 263.4,266.1 264.0,265.6 264.7,265.1 265.3,264.6 265.9,264.1 266.5,263.6 267.1,263.1 267.8,262.6 268.4,262.1 269.0,261.5 269.6,261.0 270.2,260.5 270.9,259.9 271.5,259.4 272.1,258.8 272.7,258.3 273.3,257.7 274.0,257.1 274.6,256.5 275.2,267.4 275.8,266.9 276.4,266.4 277.1,265.9 277.7,265.5 278.3,265.0 278.9,264.5 279.5,264.0 280.2,263.6 280.8,263.1 281.4,262.6 282.0,262.1 282.6,261.6 283.3,261.1 283.9,260.6 284.5,260.1 285.1,259.6 285.7,259.0 286.4,258.5 287.0,258.0 287.6,268.1 288.2,267.6 288.8,267.2 289.5,266.7 290.1,266.3 290.7,265.9 291.3,265.4 291.9,265.0 292.6,264.5 293.2,264.1 293.8,263.6 294.4,263.1 295.0,262.7 295.7,262.2 296.3,261.7 296.9,261.2 297.5,260.8 298.1,260.3 298.8,259.7 299.4,259.2 300.0,268.7 300.6,268.3 301.2,267.9 301.9,267.5 302.5,267.1 303.1,266.7 303.7,266.2 304.3,265.8 305.0,265.4 305.6,265.0 306.2,264.5 306.8,264.0 307.4,263.6 308.1,263.2 308.7,262.7 309.3,262.2 309.9,261.8 310.5,261.4 311.2,260.9 311.8,260.4 312.4,269.3 313.0,268.9 313.6,268.5 314.3,268.1 314.9,267.8 315.5,267.4 316.1,267.0 316.7,266.5 317.4,266.2 318.0,265.8 318.6,265.3 319.2,264.9 319.8,264.5 320.5,264.1 321.1,263.6 321.7,263.2 322.3,262.8 322.9,262.4 323.6,261.9 324.2,261.4 324.8,269.9 325.4,269.5 326.0,269.1 326.7,268.8 327.3,268.4 327.9,268.0 328.5,267.6 329.1,267.2 329.8,266.9 330.4,266.5 331.0,266.1 331.6,265.7 332.2,265.3 332.9,264.9 333.5,264.5 334.1,264.1 334.7,263.7 335.3,263.3 336.0,262.8 336.6,262.4 337.2,270.4 337.8,270.1 338.4,269.7 339.1,269.3 339.7,269.0 340.3,268.6 340.9,268.3 341.5,267.9 342.2,267.6 342.8,267.2 343.4,266.8 344.0,266.4 344.6,266.0 345.3,265.6 345.9,265.2 346.5,264.8 347.1,264.5 347.7,264.1 348.4,263.7 349.0,263.2 349.6,270.9 350.2,270.6 350.8,270.2 351.5,269.9 352.1,269.6 352.7,269.2 353.3,268.8 353.9,268.5 354.6,268.1 355.2,267.8 355.8,267.4 356.4,267.0 357.0,266.7 357.7,266.3 358.3,265.9 358.9,265.5 359.5,265.2 360.1,264.8 360.8,264.4 361.4,264.0 362.0,271.4 362.6,271.0 363.2,270.7 363.9,270.3 364.5,270.0 365.1,269.7 365.7,269.3 366.3,269.0 367.0,268.7 367.6,268.3 368.2,268.0 368.8,267.6 369.4,267.3 370.1,266.9 370.7,266.5 371.3,266.2 371.9,265.8 372.5,265.5 373.2,265.1 373.8,264.7 374.4,271.8 375.0,271.4 375.6,271.1 376.3,270.8 376.9,270.5 377.5,270.1 378.1,269.8 378.7,269.4 379.4,269.2 380.0,268.8 380.6,268.5 381.2,268.1 381.8,267.8 382.5,267.4 383.1,267.1 383.7,266.7 384.3,266.4 384.9,266.0 385.6,265.7 386.2,265.3 386.8,272.1 387.4,271.8 388.0,271.5 388.7,271.1 389.3,270.9 389.9,270.5 390.5,270.2 391.1,269.9 391.8,269.6 392.4,269.3 393.0,268.9 393.6,268.6 394.2,268.3 394.9,267.9 395.5,267.6 396.1,267.2 396.7,266.9 397.3,266.6 398.0,266.2 398.6,265.8 399.2,265.3 399.8,264.8 400.4,264.2 401.1,263.7 401.7,263.2 402.3,262.6 402.9,262.0 403.5,261.4 404.2,260.9 404.8,260.3 405.4,259.7 406.0,259.1 406.6,258.5 407.3,257.9 407.9,257.3 408.5,256.7 409.1,256.1 409.7,255.4 410.4,254.8 411.0,254.1 411.6,253.5 412.2,252.8 412.8,252.1 413.5,251.5 414.1,250.8 414.7,250.1 415.3,249.4 415.9,248.7 416.6,248.0 417.2,247.3 417.8,246.5 418.4,245.8 419.0,245.1 419.7,244.3 420.3,243.6 420.9,242.8 421.5,242.1 422.1,241.3 422.8,240.5 423.4,239.7 424.0,238.9 424.6,238.1 425.2,237.3 425.9,236.4 426.5,235.6 427.1,234.8 427.7,233.9 428.3,233.1 429.0,232.2 429.6,231.4 430.2,230.5 430.8,229.6 431.4,228.7 432.1,227.8 432.7,226.9 433.3,225.9 433.9,225.0 434.5,224.1 435.2,223.1 435.8,222.1 436.4,221.2 437.0,220.2 437.6,219.2 438.3,218.2 438.9,217.3 439.5,216.2 440.1,215.2 440.7,214.2 441.4,213.1 442.0,212.1 442.6,211.0 443.2,209.9 443.8,208.9 444.5,207.8 445.1,206.7 445.7,205.6 446.3,204.5 446.9,203.3 447.6,202.2 448.2,201.0 448.8,199.9 449.4,198.7 450.0,197.5 450.7,196.3 451.3,195.2 451.9,193.9 452.5,192.7 453.1,191.5 453.8,190.3 454.4,189.0 455.0,187.7 455.6,186.4 456.2,185.2 456.9,183.9 457.5,182.6 458.1,181.2 458.7,179.9 459.3,178.6 460.0,177.2 460.6,175.8 461.2,174.5 461.8,173.1 462.4,171.7 463.1,170.3 463.7,168.9 464.3,167.4 464.9,166.0 465.5,164.5 466.2,163.0 466.8,161.5 467.4,160.0 468.0,158.5 468.6,157.0 469.3,155.5 469.9,153.9 470.5,152.3 471.1,150.8 471.7,149.2 472.4,147.6 473.0,146.0 473.6,144.3 474.2,142.7 474.8,141.0 475.5,139.4 476.1,137.7 476.7,136.0 477.3,134.3 477.9,132.5 478.6,130.8 479.2,129.1 479.8,127.3 480.4,125.5 481.0,123.7 481.7,121.9 482.3,120.1 482.9,118.2 483.5,116.4 484.1,114.5 484.8,112.6 485.4,110.7 486.0,108.8 486.6,106.9 487.2,104.9 487.9,103.0 488.5,101.0 489.1,99.0 489.7,97.0 490.3,95.0 491.0,92.9 491.6,90.9 492.2,88.8 492.8,86.7 493.4,84.6 494.1,82.5 494.7,80.3 495.3,78.2 495.9,76.0 496.5,73.8 497.2,71.6 497.8,69.4 498.4,67.1 499.0,65.8 499.6,64.5 500.3,63.2 500.9,61.9 501.5,60.6 502.1,59.3 502.7,58.0 503.4,56.7 504.0,55.4 504.6,54.1 505.2,52.7 505.8,51.4 506.5,50.1 507.1,48.7 507.7,47.4 508.3,46.1 508.9,44.7 509.6,43.4 510.2,42.0 510.8,244.1 511.4,243.8 512.0,243.5 512.7,243.1 513.3,242.8 513.9,242.5 514.5,242.1 515.1,241.7 515.8,241.4 516.4,241.0 517.0,240.7 517.6,240.3 518.2,240.0 518.9,239.6 519.5,239.2 520.1,238.8 520.7,238.5 521.3,238.1 522.0,237.7 522.6,237.3 523.2,259.9 523.8,259.6 524.4,259.3 525.1,259.0 525.7,258.8 526.3,258.5 526.9,258.1 527.5,257.8 528.2,257.6 528.8,257.2 529.4,256.9 530.0,256.6 530.6,256.3 531.3,256.0 531.9,255.6 532.5,255.3 533.1,255.0 533.7,254.6 534.4,254.3 535.0,253.9 535.6,266.2 536.2,265.9 536.8,265.6 537.5,265.3 538.1,265.1 538.7,264.7 539.3,264.4 539.9,264.1 540.6,263.8 541.2,263.5 541.8,263.2 542.4,262.8 543.0,262.5 543.7,262.2 544.3,261.8 544.9,261.5 545.5,261.2 546.1,260.8 546.8,260.4 547.4,260.0 548.0,269.2 548.6,268.9 549.2,268.5 549.9,268.2 550.5,268.0 551.1,267.6 551.7,267.3 552.3,266.9 553.0,266.6 553.6,266.3 554.2,265.9 554.8,265.5 555.4,265.2 556.1,264.8 556.7,264.5 557.3,264.1 557.9,263.7 558.5,263.3 559.2,262.9 559.8,262.5 560.4,270.5 561.0,270.2 561.6,269.8 562.3,269.5 562.9,269.2 563.5,268.8 564.1,268.4 564.7,268.1 565.4,267.8 566.0,267.4 566.6,267.0 567.2,266.6 567.8,266.3 568.5,265.9 569.1,265.5 569.7,265.0 570.3,264.7 570.9,264.3 571.6,263.9 572.2,263.4 572.8,271.0 573.4,270.6 574.0,270.3 574.7,269.9 575.3,269.6 575.9,269.2 576.5,268.8 577.1,268.4 577.8,268.1 578.4,267.7 579.0,267.3 579.6,266.9 580.2,266.5 580.9,266.1 581.5,265.7 582.1,265.3 582.7,264.9 583.3,264.5 584.0,264.0 584.6,263.6 585.2,263.2 585.8,262.8 586.4,262.3 587.1,261.9 587.7,261.5 588.3,261.0 588.9,260.5 589.5,260.1 590.2,259.6 590.8,259.2 591.4,258.7 592.0,258.2 592.6,257.8 593.3,257.3 593.9,256.8 594.5,256.3 595.1,255.8 595.7,255.3 596.4,254.8 597.0,254.3 597.6,266.3 598.2,265.9 598.8,265.5 599.5,265.1 600.1,264.8 600.7,264.3 601.3,263.9 601.9,263.5 602.6,263.1 603.2,262.7 603.8,262.3 604.4,261.8 605.0,261.4 605.7,261.0 606.3,260.5 606.9,260.1 607.5,259.7 608.1,259.2 608.8,258.8 609.4,258.3 610.0,268.3 610.6,267.9 611.2,267.5 611.9,267.1 612.5,266.8 613.1,266.4 613.7,266.0 614.3,265.6 615.0,265.3 615.6,264.9 616.2,264.5 616.8,264.1 617.4,263.7 618.1,263.3 618.7,262.9 619.3,262.4 619.9,262.1 620.5,261.6 621.2,261.2 621.8,260.8 622.4,269.6 623.0,269.2 623.6,268.8 624.3,268.5 624.9,268.2 625.5,267.8 626.1,267.4 626.7,267.0 627.4,266.7 628.0,266.3 628.6,266.0 629.2,265.6 629.8,265.2 630.5,264.8 631.1,264.4 631.7,264.0 632.3,263.7 632.9,263.3 633.6,262.9 634.2,262.4 634.8,270.5 635.4,270.1 636.0,269.8 636.7,269.4 637.3,269.1 637.9,268.8 638.5,268.4 639.1,268.1 639.8,267.7 640.4,267.4 641.0,267.0 641.6,266.6 642.2,266.3 642.9,265.9 643.5,265.5 644.1,265.2 644.7,264.8 645.3,264.4 646.0,264.0 646.6,263.6 647.2,271.2 647.8,270.8 648.4,270.5 649.1,270.1 649.7,269.9 650.3,269.5 650.9,269.2 651.5,268.8 652.2,268.5 652.8,268.2 653.4,267.8 654.0,267.4 654.6,267.1 655.3,266.8 655.9,266.4 656.5,266.0 657.1,265.7 657.7,265.3 658.4,264.9 659.0,264.5 659.6,271.7 660.2,271.3 660.8,271.0 661.5,270.7 662.1,270.4 662.7,270.1 663.3,269.7 663.9,269.4 664.6,269.1 665.2,268.8 665.8,268.4 666.4,268.0 667.0,267.8 667.7,267.4 668.3,267.0 668.9,266.7 669.5,266.4 670.1,266.0 670.8,265.6 671.4,265.2 672.0,272.1 672.6,271.8 673.2,271.4 673.9,271.1 674.5,270.9 675.1,270.5 675.7,270.2 676.3,269.9 677.0,269.6 677.6,269.2 678.2,268.9 678.8,268.5 679.4,268.3 680.1,267.9 680.7,267.6 681.3,267.2 681.9,266.9 682.5,266.5 683.2,266.2 683.8,265.8 684.4,272.4 685.0,272.1 685.6,271.8 686.3,271.5 686.9,271.2 687.5,270.9 688.1,270.6 688.7,270.2 689.4,270.0 690.0,269.6 690.6,269.3 691.2,269.0 691.8,268.7 692.5,268.3 693.1,268.0 693.7,267.6 694.3,267.4 694.9,267.0 695.6,266.6 696.2,266.3 696.8,272.7 697.4,272.4 698.0,272.1 698.7,271.8 699.3,271.5 699.9,271.2 700.5,270.9 701.1,270.6 701.8,270.3 702.4,270.0 703.0,269.6 703.6,269.3 704.2,269.0 704.9,268.7 705.5,268.4 706.1,268.0 706.7,267.7 707.3,267.4 708.0,267.0 708.6,266.7 709.2,273.0 709.8,272.7 710.4,272.3 711.1,272.0 711.7,271.8 712.3,271.5 712.9,271.2 713.5,270.8 714.2,270.6 714.8,270.3 715.4,269.9 716.0,269.6 716.6,269.4 717.3,269.0 717.9,268.7 718.5,268.3 719.1,268.1 719.7,267.7 720.4,267.4 721.0,267.0 721.6,273.2 722.2,272.9 722.8,272.6 723.5,272.3 724.1,272.0 724.7,271.7 725.3,271.4 725.9,271.1 726.6,270.8 727.2,270.5 727.8,270.2 728.4,269.9 729.0,269.6 729.7,269.3 730.3,269.0 730.9,268.6 731.5,268.4 732.1,268.0 732.8,267.7 733.4,267.3 734.0,273.4 734.6,273.1 735.2,272.8 735.9,272.5 736.5,272.2 737.1,271.9 737.7,271.6 738.3,271.3 739.0,271.1 739.6,270.7 740.2,270.4 740.8,270.1 741.4,269.9 742.1,269.5 742.7,269.2 743.3,268.9 743.9,268.6 744.5,268.3 745.2,267.9 745.8,267.6 746.4,273.5 747.0,273.2 747.6,272.9 748.3,272.6 748.9,272.4 749.5,272.1 750.1,271.8 750.7,271.5 751.4,271.2 752.0,270.9 752.6,270.6 753.2,270.3 753.8,270.1 754.5,269.7 755.1,269.4 755.7,269.1 756.3,268.8 756.9,268.5 757.6,268.2 758.2,267.8 758.8,273.7 759.4,273.4 760.0,273.1 760.7,272.8 761.3,272.6 761.9,272.3 762.5,272.0 763.1,271.7 763.8,271.4 764.4,271.1 765.0,270.8 765.6,270.5 766.2,270.2 766.9,269.9 767.5,269.6 768.1,269.3 768.7,269.0 769.3,268.7 770.0,268.4 770.6,268.0 771.2,273.8 771.8,273.5 772.4,273.2 773.1,272.9 773.7,272.7 774.3,272.4 774.9,272.1 775.5,271.8 776.2,271.6 776.8,271.3 777.4,271.0 778.0,270.6 778.6,270.4 779.3,270.1 779.9,269.8 780.5,269.4 781.1,269.2 781.7,268.9 782.4,268.5 783.0,268.2 783.6,273.9 784.2,273.6 784.8,273.3 785.5,273.0 786.1,272.8 786.7,272.5 787.3,272.2 787.9,271.9 788.6,271.7 789.2,271.4 789.8,271.1 790.4,270.8 791.0,270.5 791.7,270.2 792.3,269.9 792.9,269.6 793.5,269.3 794.1,269.0 794.8,268.7 795.4,268.4 796.0,274.0"/>
<text x="640" y="56" font-family="Arial" font-size="12" fill="#0f766e">dropout_robust covariance trace</text>
</svg>