<svg xmlns="http://www.w3.org/2000/svg" width="820" height="320" viewBox="0 0 820 320">
<rect width="100%" height="100%" fill="white"/>
<text x="52" y="30" font-family="Arial" font-size="18" font-weight="700">high_bias covariance trace</text>
<line x1="52" y1="274" x2="796" y2="274" stroke="#263238"/>
<line x1="52" y1="42" x2="52" y2="274" stroke="#263238"/>
<text x="52" y="306" font-family="Arial" font-size="12">time (s)</text>
<text x="630" y="306" font-family="Arial" font-size="12">sqrt trace P</text>

<polyline fill="none" stroke="#0f766e" stroke-width="2.3" points="52.0,243.9 52.6,243.7 53.2,243.0 53.9,241.8 54.5,242.1 55.1,240.4 55.7,238.3 56.3,235.8 57.0,234.9 57.6,232.2 58.2,229.2 58.8,226.0 59.4,224.2 60.1,220.8 60.7,217.3 61.3,213.7 61.9,211.0 62.5,207.2 63.2,203.4 63.8,199.4 64.4,250.0 65.0,247.7 65.6,245.2 66.3,242.7 66.9,240.8 67.5,238.1 68.1,235.3 68.7,232.5 69.4,230.1 70.0,227.1 70.6,224.1 71.2,221.1 71.8,218.4 72.5,215.2 73.1,212.1 73.7,208.9 74.3,205.9 74.9,202.7 75.6,199.4 76.2,196.1 76.8,249.9 77.4,248.0 78.0,246.2 78.7,244.2 79.3,242.6 79.9,240.6 80.5,238.6 81.1,236.5 81.8,234.7 82.4,232.6 83.0,230.5 83.6,228.3 84.2,226.4 84.9,224.2 85.5,222.0 86.1,219.7 86.7,217.7 87.3,215.4 88.0,213.1 88.6,210.8 89.2,252.7 89.8,251.3 90.4,249.9 91.1,248.4 91.7,247.1 92.3,245.6 92.9,244.1 93.5,242.5 94.2,241.1 94.8,239.5 95.4,237.9 96.0,236.2 96.6,234.8 97.3,233.1 97.9,231.4 98.5,229.6 99.1,228.1 99.7,226.3 100.4,224.5 101.0,222.6 101.6,255.5 102.2,254.3 102.8,253.1 103.5,251.8 104.1,250.8 104.7,249.4 105.3,248.1 105.9,246.7 106.6,245.6 107.2,244.2 107.8,242.7 108.4,241.3 109.0,240.0 109.7,238.5 110.3,236.9 110.9,235.4 111.5,234.0 112.1,232.4 112.8,230.7 113.4,229.1 114.0,257.4 114.6,256.2 115.2,255.0 115.9,253.8 116.5,252.8 117.1,251.5 117.7,250.2 118.3,248.9 119.0,247.8 119.6,246.4 120.2,245.0 120.8,243.6 121.4,242.3 122.1,240.8 122.7,239.3 123.3,237.8 123.9,236.4 124.5,234.8 125.2,233.2 125.8,231.6 126.4,258.2 127.0,257.0 127.6,255.8 128.3,254.6 128.9,253.5 129.5,252.3 130.1,251.0 130.7,249.7 131.4,248.5 132.0,247.1 132.6,245.7 133.2,244.3 133.8,243.0 134.5,241.5 135.1,240.0 135.7,238.4 136.3,237.0 136.9,235.4 137.6,233.8 138.2,232.2 138.8,258.4 139.4,257.2 140.0,256.0 140.7,254.8 141.3,253.7 141.9,252.5 142.5,251.2 143.1,249.9 143.8,248.7 144.4,247.3 145.0,245.9 145.6,244.5 146.2,243.2 146.9,241.7 147.5,240.2 148.1,238.7 148.7,237.3 149.3,235.8 150.0,234.2 150.6,232.6 151.2,258.5 151.8,257.4 152.4,256.3 153.1,255.1 153.7,254.0 154.3,252.8 154.9,251.6 155.5,250.3 156.2,249.1 156.8,247.8 157.4,246.5 158.0,245.1 158.6,243.9 159.3,242.5 159.9,241.0 160.5,239.6 161.1,238.2 161.7,236.8 162.4,235.3 163.0,233.7 163.6,259.0 164.2,257.9 164.8,256.8 165.5,255.7 166.1,254.7 166.7,253.5 167.3,252.4 167.9,251.2 168.6,250.1 169.2,248.8 169.8,247.6 170.4,246.3 171.0,245.1 171.7,243.8 172.3,242.5 172.9,241.2 173.5,239.9 174.1,238.5 174.8,237.2 175.4,235.8 176.0,259.7 176.6,258.7 177.2,257.7 177.9,256.6 178.5,255.7 179.1,254.6 179.7,253.5 180.3,252.4 181.0,251.4 181.6,250.3 182.2,249.1 182.8,248.0 183.4,246.9 184.1,245.7 184.7,244.5 185.3,243.3 185.9,242.1 186.5,240.8 187.2,239.6 187.8,238.3 188.4,260.6 189.0,259.7 189.6,258.7 190.3,257.8 190.9,256.9 191.5,255.9 192.1,254.9 192.7,253.9 193.4,253.0 194.0,252.0 194.6,250.9 195.2,249.9 195.8,248.8 196.5,247.8 197.1,246.7 197.7,245.6 198.3,244.5 198.9,243.4 199.6,242.2 200.2,241.1 200.8,261.6 201.4,260.8 202.0,259.9 202.7,259.1 203.3,258.2 203.9,257.3 204.5,256.4 205.1,255.5 205.8,254.7 206.4,253.7 207.0,252.8 207.6,251.8 208.2,250.9 208.9,249.9 209.5,248.9 210.1,247.9 210.7,246.9 211.3,245.9 212.0,244.9 212.6,243.8 213.2,262.7 213.8,261.9 214.4,261.2 215.1,260.3 215.7,259.6 216.3,258.8 216.9,257.9 217.5,257.1 218.2,256.3 218.8,255.5 219.4,254.6 220.0,253.7 220.6,252.9 221.3,252.0 221.9,251.1 222.5,250.2 223.1,249.3 223.7,248.4 224.4,247.4 225.0,246.5 225.6,263.8 226.2,263.1 226.8,262.4 227.5,261.6 228.1,260.9 228.7,260.2 229.3,259.4 229.9,258.6 230.6,257.9 231.2,257.1 231.8,256.3 232.4,255.5 233.0,254.8 233.7,253.9 234.3,253.1 234.9,252.3 235.5,251.5 236.1,250.6 236.8,249.8 237.4,248.9 238.0,264.9 238.6,264.2 239.2,263.5 239.9,262.8 240.5,262.2 241.1,261.5 241.7,260.8 242.3,260.1 243.0,259.4 243.6,258.7 244.2,258.0 244.8,257.2 245.4,256.5 246.1,255.8 246.7,255.0 247.3,254.2 247.9,253.5 248.5,252.7 249.2,251.9 249.8,251.2 250.4,265.9 251.0,265.3 251.6,264.6 252.3,264.0 252.9,263.4 253.5,262.8 254.1,262.1 254.7,261.4 255.4,260.8 256.0,260.2 256.6,259.5 257.2,258.8 257.8,258.2 258.5,257.5 259.1,256.8 259.7,256.0 260.3,255.4 260.9,254.7 261.6,253.9 262.2,253.2 262.8,266.8 263.4,266.3 264.0,265.7 264.7,265.1 265.3,264.5 265.9,263.9 266.5,263.3 267.1,262.7 267.8,262.1 268.4,261.5 269.0,260.9 269.6,260.2 270.2,259.6 270.9,259.0 271.5,258.3 272.1,257.7 272.7,257.1 273.3,256.4 274.0,255.7 274.6,255.0 275.2,267.7 275.8,267.2 276.4,266.6 277.1,266.1 277.7,265.6 278.3,265.0 278.9,264.4 279.5,263.9 280.2,263.3 280.8,262.7 281.4,262.1 282.0,261.5 282.6,261.0 283.3,260.4 283.9,259.8 284.5,259.2 285.1,258.6 285.7,258.0 286.4,257.3 287.0,256.7 287.6,268.6 288.2,268.1 288.8,267.5 289.5,267.0 290.1,266.5 290.7,266.0 291.3,265.5 291.9,264.9 292.6,264.4 293.2,263.9 293.8,263.3 294.4,262.7 295.0,262.2 295.7,261.7 296.3,261.1 296.9,260.5 297.5,260.0 298.1,259.4 298.8,258.8 299.4,258.2 300.0,269.3 300.6,268.8 301.2,268.3 301.9,267.8 302.5,267.4 303.1,266.9 303.7,266.4 304.3,265.9 305.0,265.4 305.6,264.9 306.2,264.4 306.8,263.8 307.4,263.3 308.1,262.8 308.7,262.2 309.3,261.7 309.9,261.2 310.5,260.6 311.2,260.1 311.8,259.5 312.4,270.0 313.0,269.6 313.6,269.1 314.3,268.6 314.9,268.2 315.5,267.7 316.1,267.2 316.7,266.7 317.4,266.3 318.0,265.8 318.6,265.3 319.2,264.8 319.8,264.3 320.5,263.8 321.1,263.3 321.7,262.8 322.3,262.3 322.9,261.8 323.6,261.2 324.2,260.7 324.8,270.7 325.4,270.2 326.0,269.8 326.7,269.3 327.3,268.9 327.9,268.5 328.5,268.0 329.1,267.5 329.8,267.1 330.4,266.6 331.0,266.1 331.6,265.6 332.2,265.2 332.9,264.7 333.5,264.2 334.1,263.7 334.7,263.3 335.3,262.8 336.0,262.2 336.6,261.7 337.2,271.2 337.8,270.8 338.4,270.4 339.1,269.9 339.7,269.6 340.3,269.1 340.9,268.7 341.5,268.2 342.2,267.8 342.8,267.3 343.4,266.9 344.0,266.4 344.6,266.0 345.3,265.5 345.9,265.0 346.5,264.5 347.1,264.1 347.7,263.6 348.4,263.1 349.0,262.6 349.6,271.8 350.2,271.3 350.8,270.9 351.5,270.5 352.1,270.1 352.7,269.7 353.3,269.2 353.9,268.8 354.6,268.4 355.2,268.0 355.8,267.5 356.4,267.1 357.0,266.7 357.7,266.2 358.3,265.7 358.9,265.3 359.5,264.9 360.1,264.4 360.8,263.9 361.4,263.4 362.0,272.2 362.6,271.8 363.2,271.4 363.9,271.0 364.5,270.6 365.1,270.2 365.7,269.8 366.3,269.3 367.0,269.0 367.6,268.5 368.2,268.1 368.8,267.6 369.4,267.3 370.1,266.8 370.7,266.4 371.3,265.9 371.9,265.5 372.5,265.0 373.2,264.6 373.8,264.1 374.4,272.6 375.0,272.2 375.6,271.8 376.3,271.4 376.9,271.0 377.5,270.6 378.1,270.2 378.7,269.8 379.4,269.4 380.0,269.0 380.6,268.6 381.2,268.1 381.8,267.8 382.5,267.3 383.1,266.9 383.7,266.4 384.3,266.0 384.9,265.6 385.6,265.1 386.2,264.7 386.8,272.9 387.4,272.5 388.0,272.1 388.7,271.7 389.3,271.4 389.9,271.0 390.5,270.6 391.1,270.2 391.8,269.8 392.4,269.4 393.0,269.0 393.6,268.6 394.2,268.2 394.9,267.8 395.5,267.3 396.1,266.9 396.7,266.5 397.3,266.1 398.0,265.6 398.6,265.1 399.2,264.6 399.8,264.0 400.4,263.4 401.1,262.8 401.7,262.3 402.3,261.7 402.9,261.0 403.5,260.4 404.2,259.8 404.8,259.2 405.4,258.6 406.0,257.9 406.6,257.3 407.3,256.6 407.9,256.0 408.5,255.3 409.1,254.7 409.7,254.0 410.4,253.3 411.0,252.6 411.6,251.9 412.2,251.2 412.8,250.5 413.5,249.8 414.1,249.1 414.7,248.3 415.3,247.6 415.9,246.8 416.6,246.1 417.2,245.4 417.8,244.6 418.4,243.8 419.0,243.1 419.7,242.3 420.3,241.5 420.9,240.7 421.5,239.9 422.1,239.1 422.8,238.2 423.4,237.4 424.0,236.6 424.6,235.7 425.2,234.9 425.9,234.0 426.5,233.2 427.1,232.3 427.7,231.4 428.3,230.5 429.0,229.7 429.6,228.8 430.2,227.8 430.8,226.9 431.4,226.0 432.1,225.1 432.7,224.1 433.3,223.2 433.9,222.3 434.5,221.3 435.2,220.3 435.8,219.3 436.4,218.4 437.0,217.3 437.6,216.3 438.3,215.3 438.9,214.3 439.5,213.3 440.1,212.2 440.7,211.2 441.4,210.2 442.0,209.1 442.6,208.0 443.2,206.9 443.8,205.9 444.5,204.8 445.1,203.6 445.7,202.5 446.3,201.4 446.9,200.3 447.6,199.1 448.2,198.0 448.8,196.9 449.4,195.7 450.0,194.5 450.7,193.3 451.3,192.1 451.9,190.9 452.5,189.7 453.1,188.5 453.8,187.3 454.4,186.0 455.0,184.8 455.6,183.5 456.2,182.2 456.9,181.0 457.5,179.7 458.1,178.4 458.7,177.1 459.3,175.7 460.0,174.4 460.6,173.1 461.2,171.7 461.8,170.4 462.4,169.0 463.1,167.6 463.7,166.2 464.3,164.8 464.9,163.4 465.5,162.0 466.2,160.6 466.8,159.1 467.4,157.7 468.0,156.2 468.6,154.8 469.3,153.3 469.9,151.8 470.5,150.3 471.1,148.8 471.7,147.2 472.4,145.7 473.0,144.1 473.6,142.6 474.2,141.0 474.8,139.4 475.5,137.8 476.1,136.3 476.7,134.6 477.3,133.0 477.9,131.3 478.6,129.7 479.2,128.1 479.8,126.4 480.4,124.7 481.0,123.0 481.7,121.3 482.3,119.6 482.9,117.8 483.5,116.1 484.1,114.3 484.8,112.6 485.4,110.8 486.0,109.0 486.6,107.2 487.2,105.4 487.9,103.5 488.5,101.7 489.1,99.8 489.7,98.0 490.3,96.1 491.0,94.2 491.6,92.3 492.2,90.3 492.8,88.4 493.4,86.5 494.1,84.5 494.7,82.5 495.3,80.5 495.9,78.6 496.5,76.5 497.2,74.5 497.8,72.5 498.4,70.4 499.0,69.0 499.6,67.5 500.3,66.0 500.9,64.6 501.5,63.1 502.1,61.6 502.7,60.2 503.4,58.7 504.0,57.2 504.6,55.7 505.2,54.2 505.8,52.7 506.5,51.2 507.1,49.7 507.7,48.1 508.3,46.6 508.9,45.1 509.6,43.5 510.2,42.0 510.8,241.2 511.4,240.7 512.0,240.3 512.7,239.9 513.3,239.5 513.9,239.0 514.5,238.6 515.1,238.1 515.8,237.7 516.4,237.2 517.0,236.7 517.6,236.2 518.2,235.8 518.9,235.3 519.5,234.8 520.1,234.3 520.7,233.9 521.3,233.4 522.0,232.9 522.6,232.3 523.2,258.9 523.8,258.6 524.4,258.2 525.1,257.8 525.7,257.5 526.3,257.1 526.9,256.7 527.5,256.3 528.2,256.0 528.8,255.6 529.4,255.1 530.0,254.7 530.6,254.4 531.3,253.9 531.9,253.5 532.5,253.0 533.1,252.7 533.7,252.2 534.4,251.7 535.0,251.3 535.6,266.1 536.2,265.7 536.8,265.3 537.5,264.9 538.1,264.6 538.7,264.2 539.3,263.8 539.9,263.4 540.6,263.1 541.2,262.6 541.8,262.2 542.4,261.8 543.0,261.4 543.7,261.0 544.3,260.5 544.9,260.0 545.5,259.6 546.1,259.2 546.8,258.7 547.4,258.2 548.0,269.4 548.6,269.0 549.2,268.6 549.9,268.2 550.5,267.8 551.1,267.4 551.7,267.0 552.3,266.5 553.0,266.1 553.6,265.7 554.2,265.2 554.8,264.7 555.4,264.3 556.1,263.9 556.7,263.4 557.3,262.9 557.9,262.4 558.5,261.9 559.2,261.4 559.8,260.9 560.4,270.8 561.0,270.4 561.6,269.9 562.3,269.5 562.9,269.1 563.5,268.6 564.1,268.2 564.7,267.7 565.4,267.3 566.0,266.8 566.6,266.3 567.2,265.8 567.8,265.4 568.5,264.8 569.1,264.3 569.7,263.8 570.3,263.3 570.9,262.8 571.6,262.3 572.2,261.7 572.8,271.2 573.4,270.8 574.0,270.3 574.7,269.8 575.3,269.4 575.9,268.9 576.5,268.4 577.1,267.9 577.8,267.5 578.4,267.0 579.0,266.5 579.6,266.0 580.2,265.5 580.9,265.0 581.5,264.4 582.1,263.9 582.7,263.4 583.3,262.9 584.0,262.3 584.6,261.7 585.2,261.2 585.8,260.7 586.4,260.1 587.1,259.5 587.7,259.0 588.3,258.4 588.9,257.8 589.5,257.2 590.2,256.6 590.8,256.0 591.4,255.4 592.0,254.8 592.6,254.2 593.3,253.6 593.9,252.9 594.5,252.3 595.1,251.7 595.7,251.0 596.4,250.4 597.0,249.7 597.6,265.3 598.2,264.8 598.8,264.3 599.5,263.7 600.1,263.3 600.7,262.7 601.3,262.2 601.9,261.7 602.6,261.2 603.2,260.6 603.8,260.1 604.4,259.5 605.0,259.0 605.7,258.4 606.3,257.9 606.9,257.3 607.5,256.7 608.1,256.2 608.8,255.6 609.4,255.0 610.0,267.7 610.6,267.3 611.2,266.8 611.9,266.3 612.5,265.9 613.1,265.4 613.7,264.9 614.3,264.4 615.0,263.9 615.6,263.4 616.2,262.9 616.8,262.4 617.4,261.9 618.1,261.4 618.7,260.8 619.3,260.3 619.9,259.8 620.5,259.2 621.2,258.7 621.8,258.1 622.4,269.3 623.0,268.9 623.6,268.4 624.3,268.0 624.9,267.6 625.5,267.1 626.1,266.6 626.7,266.1 627.4,265.7 628.0,265.2 628.6,264.7 629.2,264.2 629.8,263.8 630.5,263.3 631.1,262.8 631.7,262.3 632.3,261.8 632.9,261.3 633.6,260.8 634.2,260.2 634.8,270.4 635.4,270.0 636.0,269.6 636.7,269.1 637.3,268.7 637.9,268.3 638.5,267.8 639.1,267.4 639.8,267.0 640.4,266.5 641.0,266.0 641.6,265.5 642.2,265.1 642.9,264.6 643.5,264.1 644.1,263.7 644.7,263.2 645.3,262.7 646.0,262.2 646.6,261.7 647.2,271.2 647.8,270.8 648.4,270.4 649.1,270.0 649.7,269.6 650.3,269.1 650.9,268.7 651.5,268.3 652.2,267.9 652.8,267.4 653.4,267.0 654.0,266.5 654.6,266.1 655.3,265.6 655.9,265.2 656.5,264.7 657.1,264.3 657.7,263.8 658.4,263.3 659.0,262.8 659.6,271.9 660.2,271.4 660.8,271.0 661.5,270.6 662.1,270.2 662.7,269.8 663.3,269.4 663.9,268.9 664.6,268.6 665.2,268.1 665.8,267.7 666.4,267.2 667.0,266.8 667.7,266.4 668.3,265.9 668.9,265.5 669.5,265.1 670.1,264.6 670.8,264.1 671.4,263.6 672.0,272.3 672.6,271.9 673.2,271.5 673.9,271.1 674.5,270.8 675.1,270.3 675.7,269.9 676.3,269.5 677.0,269.1 677.6,268.7 678.2,268.3 678.8,267.8 679.4,267.4 680.1,267.0 680.7,266.5 681.3,266.1 681.9,265.7 682.5,265.2 683.2,264.8 683.8,264.3 684.4,272.7 685.0,272.3 685.6,271.9 686.3,271.5 686.9,271.2 687.5,270.8 688.1,270.3 688.7,269.9 689.4,269.6 690.0,269.1 690.6,268.7 691.2,268.3 691.8,267.9 692.5,267.5 693.1,267.0 693.7,266.6 694.3,266.2 694.9,265.7 695.6,265.3 696.2,264.8 696.8,273.0 697.4,272.6 698.0,272.2 698.7,271.8 699.3,271.5 699.9,271.1 700.5,270.7 701.1,270.3 701.8,269.9 702.4,269.5 703.0,269.1 703.6,268.6 704.2,268.3 704.9,267.9 705.5,267.4 706.1,267.0 706.7,266.6 707.3,266.2 708.0,265.7 708.6,265.2 709.2,273.3 709.8,272.9 710.4,272.5 711.1,272.1 711.7,271.8 712.3,271.4 712.9,271.0 713.5,270.5 714.2,270.2 714.8,269.8 715.4,269.4 716.0,268.9 716.6,268.6 717.3,268.2 717.9,267.7 718.5,267.3 719.1,266.9 719.7,266.5 720.4,266.0 721.0,265.6 721.6,273.5 722.2,273.1 722.8,272.7 723.5,272.3 724.1,272.0 724.7,271.6 725.3,271.2 725.9,270.8 726.6,270.4 727.2,270.0 727.8,269.6 728.4,269.2 729.0,268.8 729.7,268.4 730.3,268.0 730.9,267.5 731.5,267.2 732.1,266.7 732.8,266.3 733.4,265.8 734.0,273.6 734.6,273.2 735.2,272.9 735.9,272.5 736.5,272.1 737.1,271.7 737.7,271.3 738.3,270.9 739.0,270.6 739.6,270.2 740.2,269.8 740.8,269.4 741.4,269.0 742.1,268.6 742.7,268.2 743.3,267.7 743.9,267.4 744.5,266.9 745.2,266.5 745.8,266.1 746.4,273.7 747.0,273.4 747.6,273.0 748.3,272.6 748.9,272.3 749.5,271.9 750.1,271.5 750.7,271.1 751.4,270.7 752.0,270.3 752.6,269.9 753.2,269.5 753.8,269.2 754.5,268.7 755.1,268.3 755.7,267.9 756.3,267.5 756.9,267.1 757.6,266.7 758.2,266.2 758.8,273.8 759.4,273.5 760.0,273.1 760.7,272.7 761.3,272.4 761.9,272.0 762.5,271.6 763.1,271.2 763.8,270.8 764.4,270.4 765.0,270.0 765.6,269.6 766.2,269.3 766.9,268.9 767.5,268.4 768.1,268.0 768.7,267.6 769.3,267.2 770.0,266.8 770.6,266.3 771.2,273.9 771.8,273.5 772.4,273.1 773.1,272.8 773.7,272.4 774.3,272.1 774.9,271.7 775.5,271.3 776.2,270.9 776.8,270.5 777.4,270.1 778.0,269.7 778.6,269.4 779.3,268.9 779.9,268.5 780.5,268.1 781.1,267.7 781.7,267.3 782.4,266.9 783.0,266.4 783.6,274.0 784.2,273.6 784.8,273.2 785.5,272.8 786.1,272.5 786.7,272.1 787.3,271.7 787.9,271.3 788.6,271.0 789.2,270.6 789.8,270.2 790.4,269.8 791.0,269.4 791.7,269.0 792.3,268.6 792.9,268.1 793.5,267.8 794.1,267.3 794.8,266.9 795.4,266.5 796.0,274.0"/>
<text x="640" y="56" font-family="Arial" font-size="12" fill="#0f766e">high_bias covariance trace</text>
</svg>