<svg xmlns="http://www.w3.org/2000/svg" width="820" height="320" viewBox="0 0 820 320">
<rect width="100%" height="100%" fill="white"/>
<text x="52" y="30" font-family="Arial" font-size="18" font-weight="700">ekf_conservative NEES proxy</text>
<line x1="52" y1="274" x2="796" y2="274" stroke="#263238"/>
<line x1="52" y1="42" x2="52" y2="274" stroke="#263238"/>
<text x="52" y="306" font-family="Arial" font-size="12">time (s)</text>
<text x="630" y="306" font-family="Arial" font-size="12">value</text>

<rect x="399.2" y="42" width="99.2" height="232" fill="#fef3c7" opacity="0.72"/>
<polyline fill="none" stroke="#0f766e" stroke-width="2.3" points="52.0,186.6 52.6,185.2 53.2,183.8 53.9,182.3 54.5,186.6 55.1,186.4 55.7,186.2 56.3,185.9 57.0,170.0 57.6,167.3 58.2,164.6 58.8,161.9 59.4,172.3 60.1,170.0 60.7,167.7 61.3,165.4 61.9,172.5 62.5,170.6 63.2,168.7 63.8,166.8 64.4,206.6 65.0,205.2 65.6,203.9 66.3,202.6 66.9,207.4 67.5,206.3 68.1,205.3 68.7,204.3 69.4,206.4 70.0,205.6 70.6,204.8 71.2,204.0 71.8,203.6 72.5,202.9 73.1,202.2 73.7,201.6 74.3,189.3 74.9,188.8 75.6,188.4 76.2,188.0 76.8,172.6 77.4,170.4 78.0,168.2 78.7,166.2 79.3,176.8 79.9,175.2 80.5,173.8 81.1,172.4 81.8,178.5 82.4,177.6 83.0,176.8 83.6,176.2 84.2,193.7 84.9,193.6 85.5,193.6 86.1,193.7 86.7,207.6 87.3,208.1 88.0,208.6 88.6,209.1 89.2,155.8 89.8,155.5 90.4,155.3 91.1,155.1 91.7,151.7 92.3,151.6 92.9,151.5 93.5,151.6 94.2,157.0 94.8,157.2 95.4,157.5 96.0,157.9 96.6,156.2 97.3,156.7 97.9,157.3 98.5,158.0 99.1,141.3 99.7,142.1 100.4,143.1 101.0,144.1 101.6,120.3 102.2,121.7 102.8,123.2 103.5,124.8 104.1,130.3 104.7,132.0 105.3,133.8 105.9,135.6 106.6,128.4 107.2,130.4 107.8,132.5 108.4,134.6 109.0,155.1 109.7,157.0 110.3,159.0 110.9,160.9 111.5,164.7 112.1,166.4 112.8,168.1 113.4,169.8 114.0,177.3 114.6,177.7 115.2,178.1 115.9,178.5 116.5,179.6 117.1,180.3 117.7,180.9 118.3,181.6 119.0,182.2 119.6,182.8 120.2,183.5 120.8,184.1 121.4,182.1 122.1,182.5 122.7,183.0 123.3,183.4 123.9,176.7 124.5,176.8 125.2,177.0 125.8,177.2 126.4,238.9 127.0,239.2 127.6,239.6 128.3,239.9 128.9,241.9 129.5,242.3 130.1,242.7 130.7,243.1 131.4,236.2 132.0,236.4 132.6,236.5 133.2,236.7 133.8,245.3 134.5,245.7 135.1,246.1 135.7,246.5 136.3,246.2 136.9,246.5 137.6,246.8 138.2,247.1 138.8,235.0 139.4,234.9 140.0,234.7 140.7,234.6 141.3,224.8 141.9,224.4 142.5,224.0 143.1,223.7 143.8,222.3 144.4,221.9 145.0,221.5 145.6,221.2 146.2,222.6 146.9,222.2 147.5,221.9 148.1,221.6 148.7,230.8 149.3,230.6 150.0,230.4 150.6,230.2 151.2,236.2 151.8,236.5 152.4,236.7 153.1,236.9 153.7,248.1 154.3,248.6 154.9,249.1 155.5,249.6 156.2,250.5 156.8,251.2 157.4,251.9 158.0,252.6 158.6,251.1 159.3,251.9 159.9,252.6 160.5,253.4 161.1,254.3 161.7,255.0 162.4,255.7 163.0,256.3 163.6,255.8 164.2,256.1 164.8,256.4 165.5,256.7 166.1,253.5 166.7,253.6 167.3,253.8 167.9,253.9 168.6,247.1 169.2,247.0 169.8,247.0 170.4,246.9 171.0,248.7 171.7,248.7 172.3,248.7 172.9,248.8 173.5,254.6 174.1,254.7 174.8,254.8 175.4,254.9 176.0,253.9 176.6,253.9 177.2,254.0 177.9,254.0 178.5,259.0 179.1,259.2 179.7,259.4 180.3,259.5 181.0,259.8 181.6,260.1 182.2,260.4 182.8,260.7 183.4,261.7 184.1,261.9 184.7,262.1 185.3,262.3 185.9,257.5 186.5,257.9 187.2,258.3 187.8,258.7 188.4,251.3 189.0,251.7 189.6,252.0 190.3,252.4 190.9,257.1 191.5,257.4 192.1,257.7 192.7,258.0 193.4,258.9 194.0,259.1 194.6,259.4 195.2,259.7 195.8,228.3 196.5,229.1 197.1,229.8 197.7,230.5 198.3,245.5 198.9,246.1 199.6,246.8 200.2,247.3 200.8,270.4 201.4,270.6 202.0,270.8 202.7,271.1 203.3,272.4 203.9,272.4 204.5,272.3 205.1,272.3 205.8,272.7 206.4,272.7 207.0,272.8 207.6,272.8 208.2,271.6 208.9,271.5 209.5,271.3 210.1,271.1 210.7,271.9 211.3,271.8 212.0,271.6 212.6,271.5 213.2,272.9 213.8,272.8 214.4,272.6 215.1,272.5 215.7,274.0 216.3,274.0 216.9,274.0 217.5,274.0 218.2,269.5 218.8,269.8 219.4,270.0 220.0,270.3 220.6,270.0 221.3,270.2 221.9,270.4 222.5,270.7 223.1,265.0 223.7,265.4 224.4,265.7 225.0,266.1 225.6,251.8 226.2,252.3 226.8,252.9 227.5,253.4 228.1,245.1 228.7,245.8 229.3,246.5 229.9,247.2 230.6,229.4 231.2,230.4 231.8,231.3 232.4,232.1 233.0,188.6 233.7,189.9 234.3,191.2 234.9,192.5 235.5,179.6 236.1,181.1 236.8,182.6 237.4,184.1 238.0,162.0 238.6,163.1 239.2,164.2 239.9,165.4 240.5,193.2 241.1,194.3 241.7,195.4 242.3,196.5 243.0,173.8 243.6,175.1 244.2,176.4 244.8,177.8 245.4,206.2 246.1,207.4 246.7,208.6 247.3,209.8 247.9,205.5 248.5,206.8 249.2,208.2 249.8,209.4 250.4,248.2 251.0,249.0 251.6,249.7 252.3,250.4 252.9,259.6 253.5,260.0 254.1,260.4 254.7,260.8 255.4,260.0 256.0,260.3 256.6,260.7 257.2,261.0 257.8,260.7 258.5,261.0 259.1,261.3 259.7,261.5 260.3,252.8 260.9,253.2 261.6,253.7 262.2,254.1 262.8,252.6 263.4,252.7 264.0,252.8 264.7,252.9 265.3,254.5 265.9,254.0 266.5,253.5 267.1,253.0 267.8,255.6 268.4,255.4 269.0,255.2 269.6,255.0 270.2,251.4 270.9,251.4 271.5,251.4 272.1,251.4 272.7,253.3 273.3,253.2 274.0,253.1 274.6,252.9 275.2,231.4 275.8,231.0 276.4,230.6 277.1,230.1 277.7,222.9 278.3,222.6 278.9,222.3 279.5,221.9 280.2,230.7 280.8,230.1 281.4,229.4 282.0,228.8 282.6,227.9 283.3,227.1 283.9,226.4 284.5,225.7 285.1,225.3 285.7,224.6 286.4,223.9 287.0,223.3 287.6,218.8 288.2,217.9 288.8,217.1 289.5,216.3 290.1,216.3 290.7,215.5 291.3,214.8 291.9,214.0 292.6,216.7 293.2,216.1 293.8,215.4 294.4,214.8 295.0,214.1 295.7,213.5 296.3,212.8 296.9,212.2 297.5,210.2 298.1,209.6 298.8,208.9 299.4,208.2 300.0,202.1 300.6,201.3 301.2,200.5 301.9,199.6 302.5,198.4 303.1,197.6 303.7,196.8 304.3,196.0 305.0,195.4 305.6,194.6 306.2,193.9 306.8,193.1 307.4,192.4 308.1,191.6 308.7,190.9 309.3,190.1 309.9,183.8 310.5,183.0 311.2,182.3 311.8,181.5 312.4,209.9 313.0,209.6 313.6,209.4 314.3,209.1 314.9,205.8 315.5,205.6 316.1,205.4 316.7,205.2 317.4,209.2 318.0,209.0 318.6,208.7 319.2,208.5 319.8,196.9 320.5,196.8 321.1,196.6 321.7,196.5 322.3,201.1 322.9,201.0 323.6,200.7 324.2,200.5 324.8,173.1 325.4,173.1 326.0,173.1 326.7,173.1 327.3,170.4 327.9,170.4 328.5,170.5 329.1,170.5 329.8,171.1 330.4,171.2 331.0,171.3 331.6,171.4 332.2,177.3 332.9,177.4 333.5,177.5 334.1,177.6 334.7,169.1 335.3,169.3 336.0,169.5 336.6,169.8 337.2,60.3 337.8,60.6 338.4,60.8 339.1,61.1 339.7,42.0 340.3,42.4 340.9,42.8 341.5,43.2 342.2,64.3 342.8,64.7 343.4,65.1 344.0,65.4 344.6,54.3 345.3,54.8 345.9,55.3 346.5,55.8 347.1,73.5 347.7,74.0 348.4,74.6 349.0,75.2 349.6,104.5 350.2,104.9 350.8,105.3 351.5,105.7 352.1,111.4 352.7,111.7 353.3,112.0 353.9,112.3 354.6,89.1 355.2,89.9 355.8,90.6 356.4,91.3 357.0,96.9 357.7,97.5 358.3,98.1 358.9,98.6 359.5,93.5 360.1,94.2 360.8,94.9 361.4,95.6 362.0,89.0 362.6,89.2 363.2,89.5 363.9,89.7 364.5,79.8 365.1,80.1 365.7,80.5 366.3,80.9 367.0,96.1 367.6,96.3 368.2,96.5 368.8,96.6 369.4,99.7 370.1,99.9 370.7,100.0 371.3,100.1 371.9,106.2 372.5,106.1 373.2,106.1 373.8,106.0 374.4,185.0 375.0,185.6 375.6,186.1 376.3,186.7 376.9,184.7 377.5,185.4 378.1,186.0 378.7,186.6 379.4,191.7 380.0,192.1 380.6,192.5 381.2,192.9 381.8,192.6 382.5,192.6 383.1,192.6 383.7,192.5 384.3,192.2 384.9,192.7 385.6,193.2 386.2,193.6 386.8,185.0 387.4,185.1 388.0,185.2 388.7,185.3 389.3,182.6 389.9,182.7 390.5,182.8 391.1,182.9 391.8,183.2 392.4,183.3 393.0,183.4 393.6,183.6 394.2,180.7 394.9,181.0 395.5,181.3 396.1,181.5 396.7,184.2 397.3,184.4 398.0,184.5 398.6,184.6 399.2,186.1 399.8,186.5 400.4,186.9 401.1,187.2 401.7,184.4 402.3,185.0 402.9,185.5 403.5,186.0 404.2,185.6 404.8,186.2 405.4,186.7 406.0,187.3 406.6,183.3 407.3,184.0 407.9,184.7 408.5,185.3 409.1,185.6 409.7,186.3 410.4,186.9 411.0,187.6 411.6,186.7 412.2,187.5 412.8,188.2 413.5,188.9 414.1,196.1 414.7,196.6 415.3,197.1 415.9,197.6 416.6,197.9 417.2,198.4 417.8,198.9 418.4,199.4 419.0,198.6 419.7,198.9 420.3,199.2 420.9,199.6 421.5,190.7 422.1,190.8 422.8,191.0 423.4,191.1 424.0,192.7 424.6,192.9 425.2,193.1 425.9,193.3 426.5,180.5 427.1,180.7 427.7,180.8 428.3,180.9 429.0,172.8 429.6,172.9 430.2,173.0 430.8,173.2 431.4,177.9 432.1,178.1 432.7,178.3 433.3,178.5 433.9,178.7 434.5,178.9 435.2,179.0 435.8,179.2 436.4,174.5 437.0,174.7 437.6,174.9 438.3,175.2 438.9,174.8 439.5,175.1 440.1,175.4 440.7,175.8 441.4,175.8 442.0,176.2 442.6,176.7 443.2,177.2 443.8,154.5 444.5,155.1 445.1,155.7 445.7,156.3 446.3,184.7 446.9,185.3 447.6,185.9 448.2,186.5 448.8,191.2 449.4,191.8 450.0,192.4 450.7,193.0 451.3,188.6 451.9,189.3 452.5,190.0 453.1,190.7 453.8,138.1 454.4,139.0 455.0,139.9 455.6,140.8 456.2,158.8 456.9,159.7 457.5,160.6 458.1,161.5 458.7,170.4 459.3,171.3 460.0,172.1 460.6,173.0 461.2,207.8 461.8,208.5 462.4,209.2 463.1,209.9 463.7,202.6 464.3,203.4 464.9,204.2 465.5,204.9 466.2,210.3 466.8,211.0 467.4,211.7 468.0,212.3 468.6,192.4 469.3,193.2 469.9,194.0 470.5,194.8 471.1,220.3 471.7,220.9 472.4,221.6 473.0,222.2 473.6,221.8 474.2,222.4 474.8,223.0 475.5,223.5 476.1,232.3 476.7,232.8 477.3,233.2 477.9,233.6 478.6,237.6 479.2,237.9 479.8,238.2 480.4,238.6 481.0,239.7 481.7,239.9 482.3,240.2 482.9,240.4 483.5,238.1 484.1,238.2 484.8,238.3 485.4,238.5 486.0,236.7 486.6,236.8 487.2,236.9 487.9,237.1 488.5,239.2 489.1,239.3 489.7,239.5 490.3,239.6 491.0,235.4 491.6,235.5 492.2,235.7 492.8,235.8 493.4,237.4 494.1,237.5 494.7,237.7 495.3,237.8 495.9,219.2 496.5,219.4 497.2,219.5 497.8,219.7 498.4,199.2 499.0,199.2 499.6,199.2 500.3,199.3 500.9,169.0 501.5,169.0 502.1,169.1 502.7,169.2 503.4,178.5 504.0,178.7 504.6,178.8 505.2,178.9 505.8,210.1 506.5,210.3 507.1,210.5 507.7,210.7 508.3,194.5 508.9,194.8 509.6,195.0 510.2,195.3 510.8,203.6 511.4,203.6 512.0,203.6 512.7,203.5 513.3,203.2 513.9,203.1 514.5,203.1 515.1,203.0 515.8,205.4 516.4,205.3 517.0,205.1 517.6,204.9 518.2,203.5 518.9,203.2 519.5,203.0 520.1,202.7 520.7,187.2 521.3,186.7 522.0,186.2 522.6,185.8 523.2,237.4 523.8,237.1 524.4,236.9 525.1,236.7 525.7,244.2 526.3,244.1 526.9,244.0 527.5,243.9 528.2,239.9 528.8,239.8 529.4,239.6 530.0,239.5 530.6,239.5 531.3,239.4 531.9,239.3 532.5,239.2 533.1,235.8 533.7,235.7 534.4,235.7 535.0,235.6 535.6,262.0 536.2,262.0 536.8,262.0 537.5,262.0 538.1,250.6 538.7,250.6 539.3,250.6 539.9,250.7 540.6,229.9 541.2,230.1 541.8,230.3 542.4,230.5 543.0,240.9 543.7,241.2 544.3,241.4 544.9,241.7 545.5,225.3 546.1,225.7 546.8,226.1 547.4,226.5 548.0,234.0 548.6,234.6 549.2,235.3 549.9,235.9 550.5,207.7 551.1,208.5 551.7,209.4 552.3,210.2 553.0,193.8 553.6,194.8 554.2,195.6 554.8,196.4 555.4,236.1 556.1,236.7 556.7,237.3 557.3,237.9 557.9,242.0 558.5,242.6 559.2,243.2 559.8,243.7 560.4,227.8 561.0,228.4 561.6,229.0 562.3,229.6 562.9,214.8 563.5,215.5 564.1,216.2 564.7,216.9 565.4,225.6 566.0,226.3 566.6,227.0 567.2,227.6 567.8,225.0 568.5,225.7 569.1,226.4 569.7,227.2 570.3,227.6 570.9,228.3 571.6,229.0 572.2,229.7 572.8,231.2 573.4,231.5 574.0,231.7 574.7,232.0 575.3,245.1 575.9,245.3 576.5,245.4 577.1,245.5 577.8,243.6 578.4,243.8 579.0,244.0 579.6,244.2 580.2,251.3 580.9,251.3 581.5,251.4 582.1,251.5 582.7,250.0 583.3,250.1 584.0,250.2 584.6,250.3 585.2,251.8 585.8,251.9 586.4,251.9 587.1,251.9 587.7,251.4 588.3,251.5 588.9,251.6 589.5,251.7 590.2,250.1 590.8,250.1 591.4,250.0 592.0,250.0 592.6,250.5 593.3,250.5 593.9,250.5 594.5,250.5 595.1,236.2 595.7,236.1 596.4,235.9 597.0,235.8 597.6,195.7 598.2,195.4 598.8,195.0 599.5,194.6 600.1,208.5 600.7,208.2 601.3,207.9 601.9,207.5 602.6,218.0 603.2,217.7 603.8,217.4 604.4,217.2 605.0,223.2 605.7,222.9 606.3,222.7 606.9,222.5 607.5,213.5 608.1,213.3 608.8,213.2 609.4,213.0 610.0,169.8 610.6,169.3 611.2,168.8 611.9,168.3 612.5,171.8 613.1,171.4 613.7,171.0 614.3,170.6 615.0,163.2 615.6,162.8 616.2,162.5 616.8,162.3 617.4,149.5 618.1,149.3 618.7,149.1 619.3,149.1 619.9,136.4 620.5,136.4 621.2,136.4 621.8,136.6 622.4,164.6 623.0,164.7 623.6,164.8 624.3,165.0 624.9,194.2 625.5,194.4 626.1,194.7 626.7,194.9 627.4,195.3 628.0,195.5 628.6,195.8 629.2,196.2 629.8,207.7 630.5,208.1 631.1,208.4 631.7,208.7 632.3,225.0 632.9,225.3 633.6,225.5 634.2,225.8 634.8,245.0 635.4,245.5 636.0,246.0 636.7,246.5 637.3,263.4 637.9,263.6 638.5,263.9 639.1,264.2 639.8,267.2 640.4,267.3 641.0,267.4 641.6,267.5 642.2,256.9 642.9,256.8 643.5,256.7 644.1,256.6 644.7,267.2 645.3,267.3 646.0,267.3 646.6,267.4 647.2,267.4 647.8,267.2 648.4,267.1 649.1,266.9 649.7,263.6 650.3,263.3 650.9,263.1 651.5,262.9 652.2,254.7 652.8,254.4 653.4,254.1 654.0,253.8 654.6,248.5 655.3,248.1 655.9,247.8 656.5,247.5 657.1,249.5 657.7,249.2 658.4,248.9 659.0,248.6 659.6,265.6 660.2,265.7 660.8,265.7 661.5,265.8 662.1,262.3 662.7,262.4 663.3,262.4 663.9,262.5 664.6,270.2 665.2,270.2 665.8,270.1 666.4,270.1 667.0,269.3 667.7,269.2 668.3,269.1 668.9,269.0 669.5,269.0 670.1,268.9 670.8,268.8 671.4,268.8 672.0,272.5 672.6,272.5 673.2,272.5 673.9,272.5 674.5,272.3 675.1,272.3 675.7,272.3 676.3,272.2 677.0,270.8 677.6,270.8 678.2,270.8 678.8,270.8 679.4,271.8 680.1,271.8 680.7,271.8 681.3,271.8 681.9,270.9 682.5,270.9 683.2,270.8 683.8,270.8 684.4,263.5 685.0,263.6 685.6,263.7 686.3,263.9 686.9,266.0 687.5,266.1 688.1,266.2 688.7,266.4 689.4,265.8 690.0,266.0 690.6,266.2 691.2,266.3 691.8,264.1 692.5,264.3 693.1,264.4 693.7,264.6 694.3,271.6 694.9,271.7 695.6,271.8 696.2,271.9 696.8,272.0 697.4,271.9 698.0,271.9 698.7,271.8 699.3,269.0 699.9,268.9 700.5,268.7 701.1,268.6 701.8,256.3 702.4,256.1 703.0,256.0 703.6,255.8 704.2,270.2 704.9,270.0 705.5,269.8 706.1,269.7 706.7,270.8 707.3,270.6 708.0,270.5 708.6,270.3 709.2,257.9 709.8,257.7 710.4,257.5 711.1,257.3 711.7,256.2 712.3,256.0 712.9,255.8 713.5,255.5 714.2,252.8 714.8,252.6 715.4,252.3 716.0,252.0 716.6,255.1 717.3,254.9 717.9,254.7 718.5,254.4 719.1,253.3 719.7,253.1 720.4,252.9 721.0,252.7 721.6,260.4 722.2,260.4 722.8,260.4 723.5,260.4 724.1,259.6 724.7,259.6 725.3,259.6 725.9,259.7 726.6,260.6 727.2,260.6 727.8,260.7 728.4,260.7 729.0,259.3 729.7,259.4 730.3,259.5 730.9,259.6 731.5,260.0 732.1,260.1 732.8,260.2 733.4,260.3 734.0,256.0 734.6,256.2 735.2,256.4 735.9,256.6 736.5,255.3 737.1,255.4 737.7,255.6 738.3,255.8 739.0,255.8 739.6,256.0 740.2,256.1 740.8,256.3 741.4,253.4 742.1,253.6 742.7,253.8 743.3,254.0 743.9,256.3 744.5,256.5 745.2,256.6 745.8,256.8 746.4,238.1 747.0,238.3 747.6,238.5 748.3,238.8 748.9,236.9 749.5,237.1 750.1,237.4 750.7,237.6 751.4,241.4 752.0,241.6 752.6,241.8 753.2,242.0 753.8,243.0 754.5,243.1 755.1,243.3 755.7,243.4 756.3,238.3 756.9,238.3 757.6,238.4 758.2,238.4 758.8,264.8 759.4,264.8 760.0,264.8 760.7,264.8 761.3,266.3 761.9,266.4 762.5,266.4 763.1,266.5 763.8,264.6 764.4,264.5 765.0,264.5 765.6,264.5 766.2,264.0 766.9,263.9 767.5,263.9 768.1,263.8 768.7,259.2 769.3,259.1 770.0,259.0 770.6,259.0 771.2,267.3 771.8,267.2 772.4,267.1 773.1,267.1 773.7,263.4 774.3,263.3 774.9,263.2 775.5,263.1 776.2,270.8 776.8,270.8 777.4,270.7 778.0,270.6 778.6,243.8 779.3,243.6 779.9,243.4 780.5,243.2 781.1,236.5 781.7,236.3 782.4,236.2 783.0,236.1 783.6,216.2 784.2,216.0 784.8,215.8 785.5,215.7 786.1,230.2 786.7,230.2 787.3,230.1 787.9,230.2 788.6,218.4 789.2,218.4 789.8,218.5 790.4,218.6 791.0,180.4 791.7,180.7 792.3,181.1 792.9,181.4 793.5,206.5 794.1,206.9 794.8,207.2 795.4,207.6 796.0,177.7"/>
<text x="640" y="56" font-family="Arial" font-size="12" fill="#0f766e">ekf_conservative NEES proxy</text>
</svg>