<svg xmlns="http://www.w3.org/2000/svg" width="820" height="320" viewBox="0 0 820 320">
<rect width="100%" height="100%" fill="white"/>
<text x="52" y="30" font-family="Arial" font-size="18" font-weight="700">ekf_nominal NIS</text>
<line x1="52" y1="274" x2="796" y2="274" stroke="#263238"/>
<line x1="52" y1="42" x2="52" y2="274" stroke="#263238"/>
<text x="52" y="306" font-family="Arial" font-size="12">time (s)</text>
<text x="630" y="306" font-family="Arial" font-size="12">value</text>

<polyline fill="none" stroke="#0f766e" stroke-width="2.3" points="52.0,273.5 52.0,273.0 54.5,273.6 57.0,272.5 59.4,273.4 61.9,273.9 64.4,271.7 64.4,273.9 66.9,273.9 69.4,274.0 71.8,273.9 74.3,273.0 76.8,272.9 76.8,274.0 79.3,273.9 81.8,274.0 84.2,273.8 86.7,273.8 89.2,271.5 89.2,274.0 91.7,273.5 94.2,274.0 96.6,273.8 99.1,273.1 101.6,273.9 101.6,274.0 104.1,273.8 106.6,274.0 109.0,272.2 111.5,273.4 114.0,272.7 114.0,274.0 116.5,273.7 119.0,274.0 121.4,273.8 123.9,273.8 126.4,272.5 126.4,274.0 128.9,273.6 131.4,273.3 133.8,272.3 136.3,274.0 138.8,273.1 138.8,274.0 141.3,273.7 143.8,274.0 146.2,274.0 148.7,273.9 151.2,273.3 151.2,273.8 153.7,273.2 156.2,273.5 158.6,274.0 161.1,273.8 163.6,273.8 163.6,272.5 166.1,273.3 168.6,273.6 171.0,274.0 173.5,273.9 176.0,273.8 176.0,274.0 178.5,273.7 181.0,273.4 183.4,273.7 185.9,273.5 188.4,273.0 188.4,273.9 190.9,273.6 193.4,273.9 195.8,272.7 198.3,273.0 200.8,273.0 200.8,270.5 203.3,273.2 205.8,273.8 208.2,273.7 210.7,274.0 213.2,273.8 213.2,273.9 215.7,273.5 218.2,272.9 220.6,274.0 223.1,273.8 225.6,273.4 225.6,273.3 228.1,273.9 230.6,273.7 233.0,272.8 235.5,274.0 238.0,272.2 238.0,273.5 240.5,273.1 243.0,273.8 245.4,273.0 247.9,274.0 250.4,273.9 250.4,272.0 252.9,273.5 255.4,274.0 257.8,274.0 260.3,273.5 262.8,273.2 262.8,274.0 265.3,271.0 267.8,273.1 270.2,273.1 272.7,273.8 275.2,272.1 275.2,273.9 277.7,273.7 280.2,272.0 282.6,273.9 285.1,274.0 287.6,273.8 287.6,272.8 290.1,274.0 292.6,273.0 295.0,274.0 297.5,273.9 300.0,270.9 300.0,274.0 302.5,273.5 305.0,273.6 307.4,274.0 309.9,271.5 312.4,271.6 312.4,273.0 314.9,274.0 317.4,273.7 319.8,273.5 322.3,273.8 324.8,273.7 324.8,272.0 327.3,274.0 329.8,273.9 332.2,273.6 334.7,274.0 337.2,272.1 337.2,273.2 339.7,273.9 342.2,273.1 344.6,274.0 347.1,273.2 349.6,273.7 349.6,273.7 352.1,273.5 354.6,272.7 357.0,273.6 359.5,274.0 362.0,273.7 362.0,273.3 364.5,274.0 367.0,272.9 369.4,273.8 371.9,273.3 374.4,273.4 374.4,274.0 376.9,274.0 379.4,273.4 381.8,272.7 384.3,271.6 386.8,273.4 386.8,273.5 389.3,273.8 391.8,274.0 394.2,273.9 396.7,273.8 399.2,273.9 401.7,273.4 404.2,274.0 406.6,273.8 409.1,274.0 411.6,274.0 414.1,272.8 416.6,274.0 419.0,273.6 421.5,273.3 424.0,274.0 426.5,273.7 429.0,274.0 431.4,273.9 433.9,274.0 436.4,274.0 438.9,274.0 441.4,274.0 443.8,273.7 446.3,272.8 448.8,273.9 451.3,274.0 453.8,272.2 456.2,273.5 458.7,273.8 461.2,272.0 463.7,274.0 466.2,273.9 468.6,273.6 471.1,272.4 473.6,274.0 476.1,273.5 478.6,273.7 481.0,273.7 483.5,273.6 486.0,273.9 488.5,274.0 491.0,273.8 493.4,274.0 495.9,272.9 498.4,273.6 500.9,273.5 503.4,273.8 505.8,272.8 508.3,273.8 510.8,273.5 510.8,271.5 513.3,274.0 515.8,273.4 518.2,273.5 520.7,272.0 523.2,273.7 523.2,274.0 525.7,273.4 528.2,273.7 530.6,274.0 533.1,273.9 535.6,273.7 535.6,273.7 538.1,273.5 540.6,273.3 543.0,273.6 545.5,273.7 548.0,273.5 548.0,273.7 550.5,273.4 553.0,274.0 555.4,271.3 557.9,273.8 560.4,273.6 560.4,273.9 562.9,273.9 565.4,273.7 567.8,274.0 570.3,274.0 572.8,272.0 572.8,272.0 575.3,272.9 577.8,274.0 580.2,272.8 582.7,273.8 585.2,42.0 585.2,273.7 587.7,273.8 590.2,273.1 592.6,274.0 595.1,272.7 597.6,273.7 597.6,272.4 600.1,273.2 602.6,273.3 605.0,273.6 607.5,273.8 610.0,271.7 610.0,273.5 612.5,273.9 615.0,274.0 617.4,273.9 619.9,273.9 622.4,272.4 622.4,273.9 624.9,272.9 627.4,274.0 629.8,273.7 632.3,273.4 634.8,271.8 634.8,273.9 637.3,272.1 639.8,272.5 642.2,272.5 644.7,272.5 647.2,272.9 647.2,273.9 649.7,273.9 652.2,273.8 654.6,274.0 657.1,273.9 659.6,273.3 659.6,274.0 662.1,274.0 664.6,271.3 667.0,273.7 669.5,273.4 672.0,273.6 672.0,273.0 674.5,274.0 677.0,273.8 679.4,274.0 681.9,273.9 684.4,272.9 684.4,273.7 686.9,274.0 689.4,274.0 691.8,273.9 694.3,272.8 696.8,272.5 696.8,273.8 699.3,272.2 701.8,273.4 704.2,271.3 706.7,273.7 709.2,273.0 709.2,274.0 711.7,273.7 714.2,273.6 716.6,273.8 719.1,273.8 721.6,273.3 721.6,273.7 724.1,273.8 726.6,273.6 729.0,273.1 731.5,274.0 734.0,273.2 734.0,274.0 736.5,273.9 739.0,274.0 741.4,273.9 743.9,274.0 746.4,273.7 746.4,274.0 748.9,273.9 751.4,273.7 753.8,273.6 756.3,273.2 758.8,272.5 758.8,272.9 761.3,273.8 763.8,273.8 766.2,274.0 768.7,273.8 771.2,273.4 771.2,273.9 773.7,273.9 776.2,273.2 778.6,270.6 781.1,274.0 783.6,273.6 783.6,274.0 786.1,273.5 788.6,273.9 791.0,273.0 793.5,273.2 796.0,273.4 796.0,273.9"/>
<text x="640" y="56" font-family="Arial" font-size="12" fill="#0f766e">ekf_nominal NIS</text>
</svg>