<svg xmlns="http://www.w3.org/2000/svg" width="820" height="320" viewBox="0 0 820 320">
<rect width="100%" height="100%" fill="white"/>
<text x="52" y="30" font-family="Arial" font-size="18" font-weight="700">ekf_aggressive NIS</text>
<line x1="52" y1="274" x2="796" y2="274" stroke="#263238"/>
<line x1="52" y1="42" x2="52" y2="274" stroke="#263238"/>
<text x="52" y="306" font-family="Arial" font-size="12">time (s)</text>
<text x="630" y="306" font-family="Arial" font-size="12">value</text>

<polyline fill="none" stroke="#0f766e" stroke-width="2.3" points="52.0,273.7 52.0,272.9 54.5,273.7 57.0,272.0 59.4,273.0 61.9,273.8 64.4,272.1 64.4,273.9 66.9,273.9 69.4,274.0 71.8,273.9 74.3,272.6 76.8,272.6 76.8,273.9 79.3,273.9 81.8,274.0 84.2,273.7 86.7,273.8 89.2,271.3 89.2,274.0 91.7,273.2 94.2,274.0 96.6,273.7 99.1,272.8 101.6,273.9 101.6,274.0 104.1,273.7 106.6,274.0 109.0,271.5 111.5,273.2 114.0,272.7 114.0,274.0 116.5,273.5 119.0,274.0 121.4,273.7 123.9,273.8 126.4,272.7 126.4,274.0 128.9,273.4 131.4,273.1 133.8,271.5 136.3,274.0 138.8,273.1 138.8,274.0 141.3,273.6 143.8,274.0 146.2,274.0 148.7,273.8 151.2,273.2 151.2,273.7 153.7,272.8 156.2,273.3 158.6,274.0 161.1,273.7 163.6,273.8 163.6,271.9 166.1,273.1 168.6,273.4 171.0,274.0 173.5,273.8 176.0,273.7 176.0,274.0 178.5,273.6 181.0,273.2 183.4,273.6 185.9,273.3 188.4,273.0 188.4,273.9 190.9,273.5 193.4,273.8 195.8,272.1 198.3,272.7 200.8,273.0 200.8,269.1 203.3,272.8 205.8,273.8 208.2,273.6 210.7,274.0 213.2,273.8 213.2,273.8 215.7,273.4 218.2,272.5 220.6,274.0 223.1,273.7 225.6,273.4 225.6,273.1 228.1,273.9 230.6,273.6 233.0,272.3 235.5,274.0 238.0,272.2 238.0,273.4 240.5,272.8 243.0,273.8 245.4,272.7 247.9,274.0 250.4,273.9 250.4,271.2 252.9,273.3 255.4,274.0 257.8,274.0 260.3,273.4 262.8,273.1 262.8,274.0 265.3,269.8 267.8,272.8 270.2,272.8 272.7,273.7 275.2,272.1 275.2,273.9 277.7,273.6 280.2,271.2 282.6,273.8 285.1,274.0 287.6,273.8 287.6,272.3 290.1,274.0 292.6,272.7 295.0,274.0 297.5,273.8 300.0,271.0 300.0,274.0 302.5,273.3 305.0,273.4 307.4,274.0 309.9,270.6 312.4,271.6 312.4,272.6 314.9,274.0 317.4,273.7 319.8,273.3 322.3,273.7 324.8,273.7 324.8,271.1 327.3,274.0 329.8,273.9 332.2,273.6 334.7,273.9 337.2,272.1 337.2,272.9 339.7,273.9 342.2,272.8 344.6,274.0 347.1,273.0 349.6,273.7 349.6,273.6 352.1,273.4 354.6,272.2 357.0,273.5 359.5,274.0 362.0,273.7 362.0,273.0 364.5,273.9 367.0,272.5 369.4,273.7 371.9,272.9 374.4,273.4 374.4,274.0 376.9,274.0 379.4,273.2 381.8,272.1 384.3,270.9 386.8,273.4 386.8,273.2 389.3,273.8 391.8,274.0 394.2,273.8 396.7,273.7 399.2,273.8 401.7,273.2 404.2,274.0 406.6,273.7 409.1,274.0 411.6,274.0 414.1,272.3 416.6,274.0 419.0,273.4 421.5,272.9 424.0,274.0 426.5,273.5 429.0,273.9 431.4,273.9 433.9,274.0 436.4,274.0 438.9,274.0 441.4,274.0 443.8,273.6 446.3,272.5 448.8,273.9 451.3,274.0 453.8,271.4 456.2,273.4 458.7,273.7 461.2,271.2 463.7,274.0 466.2,273.8 468.6,273.5 471.1,271.8 473.6,274.0 476.1,273.2 478.6,273.4 481.0,273.6 483.5,273.3 486.0,273.9 488.5,274.0 491.0,273.7 493.4,274.0 495.9,272.3 498.4,273.2 500.9,273.0 503.4,273.9 505.8,272.6 508.3,273.6 510.8,273.4 510.8,271.0 513.3,274.0 515.8,273.3 518.2,273.4 520.7,271.4 523.2,273.6 523.2,274.0 525.7,273.1 528.2,273.7 530.6,274.0 533.1,273.9 535.6,273.7 535.6,273.6 538.1,273.2 540.6,272.9 543.0,273.5 545.5,273.5 548.0,273.5 548.0,273.6 550.5,273.1 553.0,273.9 555.4,270.5 557.9,273.8 560.4,273.6 560.4,273.8 562.9,273.8 565.4,273.6 567.8,274.0 570.3,273.9 572.8,272.0 572.8,271.2 575.3,272.5 577.8,274.0 580.2,272.2 582.7,273.8 585.2,42.0 585.2,273.5 587.7,273.8 590.2,272.6 592.6,274.0 595.1,272.0 597.6,273.6 597.6,271.5 600.1,273.1 602.6,273.2 605.0,273.5 607.5,273.7 610.0,271.6 610.0,273.4 612.5,273.9 615.0,273.9 617.4,273.8 619.9,273.9 622.4,272.3 622.4,273.9 624.9,272.6 627.4,274.0 629.8,273.7 632.3,273.2 634.8,271.9 634.8,273.9 637.3,271.4 639.8,271.8 642.2,271.8 644.7,272.0 647.2,272.8 647.2,273.9 649.7,273.9 652.2,273.6 654.6,273.9 657.1,274.0 659.6,273.2 659.6,273.9 662.1,273.9 664.6,270.4 667.0,273.7 669.5,273.1 672.0,273.4 672.0,272.7 674.5,274.0 677.0,273.7 679.4,274.0 681.9,273.9 684.4,273.1 684.4,273.5 686.9,274.0 689.4,274.0 691.8,273.9 694.3,272.3 696.8,272.4 696.8,273.8 699.3,271.5 701.8,273.1 704.2,270.3 706.7,273.6 709.2,272.9 709.2,273.9 711.7,273.6 714.2,273.5 716.6,273.8 719.1,273.8 721.6,273.4 721.6,273.6 724.1,273.8 726.6,273.5 729.0,272.6 731.5,274.0 734.0,273.0 734.0,274.0 736.5,273.8 739.0,274.0 741.4,273.7 743.9,274.0 746.4,273.6 746.4,274.0 748.9,273.8 751.4,273.6 753.8,273.6 756.3,273.0 758.8,272.5 758.8,272.4 761.3,273.7 763.8,273.8 766.2,274.0 768.7,273.8 771.2,273.4 771.2,273.9 773.7,273.9 776.2,272.8 778.6,269.4 781.1,274.0 783.6,273.7 783.6,274.0 786.1,273.4 788.6,273.9 791.0,272.6 793.5,272.9 796.0,273.5 796.0,273.9"/>
<text x="640" y="56" font-family="Arial" font-size="12" fill="#0f766e">ekf_aggressive NIS</text>
</svg>