<svg xmlns="http://www.w3.org/2000/svg" width="820" height="320" viewBox="0 0 820 320">
<rect width="100%" height="100%" fill="white"/>
<text x="52" y="30" font-family="Arial" font-size="18" font-weight="700">ekf_conservative NIS</text>
<line x1="52" y1="274" x2="796" y2="274" stroke="#263238"/>
<line x1="52" y1="42" x2="52" y2="274" stroke="#263238"/>
<text x="52" y="306" font-family="Arial" font-size="12">time (s)</text>
<text x="630" y="306" font-family="Arial" font-size="12">value</text>

<polyline fill="none" stroke="#0f766e" stroke-width="2.3" points="52.0,273.5 52.0,273.2 54.5,273.5 57.0,273.2 59.4,273.7 61.9,273.8 64.4,272.1 64.4,273.8 66.9,273.8 69.4,273.9 71.8,274.0 74.3,273.6 76.8,271.9 76.8,273.8 79.3,273.8 81.8,273.9 84.2,273.5 86.7,273.4 89.2,272.7 89.2,273.8 91.7,274.0 94.2,273.8 96.6,274.0 99.1,273.6 101.6,273.5 101.6,274.0 104.1,273.9 106.6,273.9 109.0,273.0 111.5,273.5 114.0,271.8 114.0,274.0 116.5,273.9 119.0,274.0 121.4,273.9 123.9,273.9 126.4,271.3 126.4,273.9 128.9,273.8 131.4,273.4 133.8,273.1 136.3,274.0 138.8,272.4 138.8,274.0 141.3,273.9 143.8,274.0 146.2,274.0 148.7,273.8 151.2,273.7 151.2,273.8 153.7,273.1 156.2,273.3 158.6,273.9 161.1,274.0 163.6,273.1 163.6,273.5 166.1,273.8 168.6,273.9 171.0,274.0 173.5,273.8 176.0,273.9 176.0,273.9 178.5,273.7 181.0,273.4 183.4,274.0 185.9,273.4 188.4,272.2 188.4,273.8 190.9,273.9 193.4,274.0 195.8,272.8 198.3,273.7 200.8,272.8 200.8,272.2 203.3,273.6 205.8,273.9 208.2,273.9 210.7,274.0 213.2,273.4 213.2,273.9 215.7,273.7 218.2,273.3 220.6,274.0 223.1,273.8 225.6,273.2 225.6,273.5 228.1,273.9 230.6,273.7 233.0,273.1 235.5,274.0 238.0,272.0 238.0,273.7 240.5,273.5 243.0,273.9 245.4,273.4 247.9,274.0 250.4,273.2 250.4,272.8 252.9,273.7 255.4,274.0 257.8,274.0 260.3,273.7 262.8,273.0 262.8,274.0 265.3,272.2 267.8,273.4 270.2,273.4 272.7,273.9 275.2,270.5 275.2,273.9 277.7,273.8 280.2,272.8 282.6,273.9 285.1,274.0 287.6,273.0 287.6,273.2 290.1,274.0 292.6,273.5 295.0,274.0 297.5,273.9 300.0,272.2 300.0,274.0 302.5,273.8 305.0,273.7 307.4,274.0 309.9,272.7 312.4,269.3 312.4,273.4 314.9,274.0 317.4,273.9 319.8,273.6 322.3,273.9 324.8,273.0 324.8,272.5 327.3,274.0 329.8,274.0 332.2,273.9 334.7,273.9 337.2,272.8 337.2,273.4 339.7,273.9 342.2,273.6 344.6,274.0 347.1,273.7 349.6,272.2 349.6,273.9 352.1,273.9 354.6,272.9 357.0,273.9 359.5,274.0 362.0,272.5 362.0,273.7 364.5,273.9 367.0,273.5 369.4,273.9 371.9,273.7 374.4,271.3 374.4,274.0 376.9,274.0 379.4,273.7 381.8,273.3 384.3,272.5 386.8,273.3 386.8,273.7 389.3,273.9 391.8,274.0 394.2,273.9 396.7,273.9 399.2,273.9 401.7,273.7 404.2,274.0 406.6,273.9 409.1,274.0 411.6,274.0 414.1,273.3 416.6,274.0 419.0,273.8 421.5,273.6 424.0,274.0 426.5,273.8 429.0,274.0 431.4,273.9 433.9,274.0 436.4,274.0 438.9,274.0 441.4,274.0 443.8,273.8 446.3,273.3 448.8,273.9 451.3,274.0 453.8,272.9 456.2,273.7 458.7,273.9 461.2,272.8 463.7,274.0 466.2,273.9 468.6,273.7 471.1,273.1 473.6,274.0 476.1,273.7 478.6,273.8 481.0,273.9 483.5,273.8 486.0,274.0 488.5,274.0 491.0,273.9 493.4,274.0 495.9,273.4 498.4,273.8 500.9,273.8 503.4,273.9 505.8,273.2 508.3,273.9 510.8,270.6 510.8,272.7 513.3,274.0 515.8,273.7 518.2,273.8 520.7,273.0 523.2,272.9 523.2,274.0 525.7,273.5 528.2,273.9 530.6,274.0 533.1,274.0 535.6,272.1 535.6,273.8 538.1,273.7 540.6,273.6 543.0,273.8 545.5,273.8 548.0,272.9 548.0,273.8 550.5,273.5 553.0,273.9 555.4,272.6 557.9,273.9 560.4,273.6 560.4,273.9 562.9,273.9 565.4,273.9 567.8,274.0 570.3,274.0 572.8,271.4 572.8,272.8 575.3,273.3 577.8,274.0 580.2,273.2 582.7,273.9 585.2,42.0 585.2,273.8 587.7,273.9 590.2,273.4 592.6,274.0 595.1,273.2 597.6,272.1 597.6,272.9 600.1,273.6 602.6,273.7 605.0,273.8 607.5,273.8 610.0,272.0 610.0,273.7 612.5,273.9 615.0,274.0 617.4,273.9 619.9,274.0 622.4,272.2 622.4,273.9 624.9,273.3 627.4,274.0 629.8,273.8 632.3,273.6 634.8,270.8 634.8,274.0 637.3,272.8 639.8,273.0 642.2,273.1 644.7,273.1 647.2,272.7 647.2,273.9 649.7,274.0 652.2,273.9 654.6,274.0 657.1,274.0 659.6,270.1 659.6,273.9 662.1,273.9 664.6,272.7 667.0,273.9 669.5,273.5 672.0,272.7 672.0,273.5 674.5,274.0 677.0,273.9 679.4,273.9 681.9,274.0 684.4,272.2 684.4,273.9 686.9,274.0 689.4,274.0 691.8,274.0 694.3,273.1 696.8,271.8 696.8,273.8 699.3,272.6 701.8,273.4 704.2,272.7 706.7,273.9 709.2,272.1 709.2,273.9 711.7,274.0 714.2,273.9 716.6,273.8 719.1,274.0 721.6,272.5 721.6,273.9 724.1,274.0 726.6,273.7 729.0,273.6 731.5,274.0 734.0,271.9 734.0,273.9 736.5,274.0 739.0,274.0 741.4,274.0 743.9,274.0 746.4,272.5 746.4,274.0 748.9,274.0 751.4,273.8 753.8,273.7 756.3,273.5 758.8,272.8 758.8,273.3 761.3,273.9 763.8,273.9 766.2,274.0 768.7,273.9 771.2,273.4 771.2,274.0 773.7,274.0 776.2,273.5 778.6,272.0 781.1,274.0 783.6,273.4 783.6,274.0 786.1,273.7 788.6,274.0 791.0,273.5 793.5,273.5 796.0,273.2 796.0,274.0"/>
<text x="640" y="56" font-family="Arial" font-size="12" fill="#0f766e">ekf_conservative NIS</text>
</svg>