<svg xmlns="http://www.w3.org/2000/svg" width="820" height="320" viewBox="0 0 820 320">
<rect width="100%" height="100%" fill="white"/>
<text x="52" y="30" font-family="Arial" font-size="18" font-weight="700">nominal covariance trace</text>
<line x1="52" y1="274" x2="796" y2="274" stroke="#263238"/>
<line x1="52" y1="42" x2="52" y2="274" stroke="#263238"/>
<text x="52" y="306" font-family="Arial" font-size="12">time (s)</text>
<text x="630" y="306" font-family="Arial" font-size="12">sqrt trace P</text>

<polyline fill="none" stroke="#0f766e" stroke-width="2.3" points="52.0,201.1 52.6,200.5 53.2,198.7 53.9,195.7 54.5,195.7 55.1,191.5 55.7,186.5 56.3,180.7 57.0,178.0 57.6,171.6 58.2,164.6 58.8,157.2 59.4,152.2 60.1,144.4 60.7,136.3 61.3,128.0 61.9,121.0 62.5,112.4 63.2,103.5 63.8,94.5 64.4,211.9 65.0,207.0 65.6,201.8 66.3,196.5 66.9,192.2 67.5,186.5 68.1,180.7 68.7,174.8 69.4,169.5 70.0,163.4 70.6,157.1 71.2,150.8 71.8,144.9 72.5,138.4 73.1,131.8 73.7,125.1 74.3,118.8 74.9,112.1 75.6,105.2 76.2,98.3 76.8,213.1 77.4,209.5 78.0,205.7 78.7,201.9 79.3,198.5 79.9,194.6 80.5,190.6 81.1,186.5 81.8,182.8 82.4,178.6 83.0,174.4 83.6,170.1 84.2,166.1 84.9,161.7 85.5,157.3 86.1,152.8 86.7,148.6 87.3,144.1 88.0,139.4 88.6,134.8 89.2,219.4 89.8,216.6 90.4,213.7 91.1,210.8 91.7,208.3 92.3,205.3 92.9,202.2 93.5,199.1 94.2,196.4 94.8,193.2 95.4,189.9 96.0,186.6 96.6,183.6 97.3,180.2 97.9,176.7 98.5,173.2 99.1,170.1 99.7,166.5 100.4,162.8 101.0,159.1 101.6,224.8 102.2,222.4 102.8,219.9 103.5,217.3 104.1,215.2 104.7,212.5 105.3,209.8 105.9,207.0 106.6,204.7 107.2,201.8 107.8,198.8 108.4,195.8 109.0,193.2 109.7,190.1 110.3,186.9 110.9,183.7 111.5,180.8 112.1,177.5 112.8,174.1 113.4,170.7 114.0,227.9 114.6,225.6 115.2,223.1 115.9,220.7 116.5,218.5 117.1,215.9 117.7,213.3 118.3,210.5 119.0,208.1 119.6,205.3 120.2,202.4 120.8,199.4 121.4,196.7 122.1,193.7 122.7,190.5 123.3,187.3 123.9,184.3 124.5,181.0 125.2,177.7 125.8,174.2 126.4,229.0 127.0,226.6 127.6,224.2 128.3,221.7 128.9,219.5 129.5,216.8 130.1,214.2 130.7,211.4 131.4,208.9 132.0,206.1 132.6,203.2 133.2,200.2 133.8,197.4 134.5,194.3 135.1,191.2 135.7,188.0 136.3,185.0 136.9,181.7 137.6,178.3 138.2,174.9 138.8,229.3 139.4,226.9 140.0,224.5 140.7,222.1 141.3,219.8 141.9,217.2 142.5,214.6 143.1,211.9 143.8,209.4 144.4,206.6 145.0,203.8 145.6,200.9 146.2,198.2 146.9,195.2 147.5,192.1 148.1,189.1 148.7,186.1 149.3,182.9 150.0,179.7 150.6,176.4 151.2,229.8 151.8,227.6 152.4,225.3 153.1,222.9 153.7,220.7 154.3,218.3 154.9,215.8 155.5,213.2 156.2,210.8 156.8,208.2 157.4,205.5 158.0,202.8 158.6,200.2 159.3,197.4 159.9,194.6 160.5,191.7 161.1,188.9 161.7,186.0 162.4,183.0 163.0,179.9 163.6,231.0 164.2,228.9 164.8,226.7 165.5,224.5 166.1,222.5 166.7,220.2 167.3,217.9 167.9,215.5 168.6,213.3 169.2,210.9 169.8,208.4 170.4,206.0 171.0,203.6 171.7,201.0 172.3,198.4 172.9,195.8 173.5,193.2 174.1,190.5 174.8,187.8 175.4,185.0 176.0,232.7 176.6,230.7 177.2,228.8 177.9,226.7 178.5,224.8 179.1,222.8 179.7,220.7 180.3,218.5 181.0,216.5 181.6,214.3 182.2,212.1 182.8,209.8 183.4,207.6 184.1,205.3 184.7,203.0 185.3,200.6 185.9,198.3 186.5,195.9 187.2,193.4 187.8,190.9 188.4,234.7 189.0,233.0 189.6,231.1 190.3,229.3 190.9,227.6 191.5,225.7 192.1,223.8 192.7,221.8 193.4,220.0 194.0,218.0 194.6,216.0 195.2,213.9 195.8,212.0 196.5,209.9 197.1,207.8 197.7,205.6 198.3,203.6 198.9,201.4 199.6,199.2 200.2,197.0 200.8,237.0 201.4,235.3 202.0,233.7 202.7,232.0 203.3,230.4 203.9,228.7 204.5,227.0 205.1,225.2 205.8,223.5 206.4,221.7 207.0,219.9 207.6,218.1 208.2,216.3 208.9,214.4 209.5,212.5 210.1,210.6 210.7,208.7 211.3,206.8 212.0,204.8 212.6,202.8 213.2,239.2 213.8,237.7 214.4,236.2 215.1,234.7 215.7,233.2 216.3,231.7 216.9,230.1 217.5,228.5 218.2,227.0 218.8,225.3 219.4,223.7 220.0,222.0 220.6,220.4 221.3,218.7 221.9,217.0 222.5,215.2 223.1,213.6 223.7,211.8 224.4,210.0 225.0,208.2 225.6,241.4 226.2,240.1 226.8,238.7 227.5,237.3 228.1,236.0 228.7,234.5 229.3,233.1 229.9,231.6 230.6,230.2 231.2,228.8 231.8,227.3 232.4,225.7 233.0,224.3 233.7,222.7 234.3,221.2 234.9,219.6 235.5,218.1 236.1,216.5 236.8,214.8 237.4,213.2 238.0,243.6 238.6,242.3 239.2,241.1 239.9,239.8 240.5,238.6 241.1,237.3 241.7,235.9 242.3,234.6 243.0,233.3 243.6,232.0 244.2,230.6 244.8,229.2 245.4,227.9 246.1,226.4 246.7,225.0 247.3,223.6 247.9,222.2 248.5,220.7 249.2,219.3 249.8,217.8 250.4,245.7 251.0,244.5 251.6,243.3 252.3,242.1 252.9,241.0 253.5,239.8 254.1,238.6 254.7,237.4 255.4,236.2 256.0,234.9 256.6,233.7 257.2,232.4 257.8,231.2 258.5,229.9 259.1,228.6 259.7,227.2 260.3,226.0 260.9,224.6 261.6,223.3 262.2,221.9 262.8,247.6 263.4,246.5 264.0,245.5 264.7,244.4 265.3,243.3 265.9,242.2 266.5,241.1 267.1,239.9 267.8,238.9 268.4,237.7 269.0,236.5 269.6,235.4 270.2,234.2 270.9,233.0 271.5,231.8 272.1,230.6 272.7,229.5 273.3,228.2 274.0,227.0 274.6,225.7 275.2,249.5 275.8,248.5 276.4,247.5 277.1,246.4 277.7,245.5 278.3,244.4 278.9,243.4 279.5,242.3 280.2,241.3 280.8,240.3 281.4,239.2 282.0,238.1 282.6,237.1 283.3,235.9 283.9,234.8 284.5,233.7 285.1,232.6 285.7,231.5 286.4,230.3 287.0,229.2 287.6,251.2 288.2,250.3 288.8,249.3 289.5,248.4 290.1,247.5 290.7,246.5 291.3,245.6 291.9,244.6 292.6,243.6 293.2,242.6 293.8,241.6 294.4,240.6 295.0,239.7 295.7,238.6 296.3,237.6 296.9,236.5 297.5,235.6 298.1,234.5 298.8,233.4 299.4,232.3 300.0,252.9 300.6,252.0 301.2,251.1 301.9,250.2 302.5,249.4 303.1,248.5 303.7,247.6 304.3,246.6 305.0,245.8 305.6,244.9 306.2,243.9 306.8,243.0 307.4,242.1 308.1,241.1 308.7,240.1 309.3,239.2 309.9,238.2 310.5,237.2 311.2,236.2 311.8,235.2 312.4,254.4 313.0,253.6 313.6,252.8 314.3,251.9 314.9,251.2 315.5,250.3 316.1,249.5 316.7,248.6 317.4,247.8 318.0,246.9 318.6,246.0 319.2,245.1 319.8,244.3 320.5,243.4 321.1,242.5 321.7,241.6 322.3,240.7 322.9,239.8 323.6,238.8 324.2,237.9 324.8,255.9 325.4,255.1 326.0,254.3 326.7,253.6 327.3,252.8 327.9,252.0 328.5,251.2 329.1,250.4 329.8,249.6 330.4,248.8 331.0,248.0 331.6,247.1 332.2,246.4 332.9,245.5 333.5,244.6 334.1,243.8 334.7,243.0 335.3,242.1 336.0,241.2 336.6,240.3 337.2,257.3 337.8,256.6 338.4,255.8 339.1,255.1 339.7,254.4 340.3,253.6 340.9,252.8 341.5,252.1 342.2,251.4 342.8,250.6 343.4,249.8 344.0,249.0 344.6,248.3 345.3,247.5 345.9,246.7 346.5,245.8 347.1,245.1 347.7,244.3 348.4,243.4 349.0,242.6 349.6,258.6 350.2,257.9 350.8,257.2 351.5,256.5 352.1,255.8 352.7,255.1 353.3,254.4 353.9,253.6 354.6,253.0 355.2,252.2 355.8,251.5 356.4,250.7 357.0,250.0 357.7,249.3 358.3,248.5 358.9,247.7 359.5,247.0 360.1,246.3 360.8,245.5 361.4,244.7 362.0,259.8 362.6,259.2 363.2,258.5 363.9,257.8 364.5,257.2 365.1,256.5 365.7,255.8 366.3,255.1 367.0,254.5 367.6,253.8 368.2,253.1 368.8,252.4 369.4,251.7 370.1,251.0 370.7,250.2 371.3,249.5 371.9,248.8 372.5,248.1 373.2,247.4 373.8,246.6 374.4,261.0 375.0,260.4 375.6,259.7 376.3,259.1 376.9,258.5 377.5,257.8 378.1,257.2 378.7,256.5 379.4,255.9 380.0,255.2 380.6,254.5 381.2,253.9 381.8,253.2 382.5,252.5 383.1,251.9 383.7,251.2 384.3,250.5 384.9,249.8 385.6,249.1 386.2,248.4 386.8,262.1 387.4,261.5 388.0,260.8 388.7,260.2 389.3,259.7 389.9,259.0 390.5,258.4 391.1,257.8 391.8,257.2 392.4,256.6 393.0,255.9 393.6,255.3 394.2,254.7 394.9,254.0 395.5,253.3 396.1,252.7 396.7,252.1 397.3,251.4 398.0,250.7 398.6,250.0 399.2,249.3 399.8,248.6 400.4,247.8 401.1,247.1 401.7,246.3 402.3,245.6 402.9,244.8 403.5,244.0 404.2,243.3 404.8,242.5 405.4,241.7 406.0,240.9 406.6,240.1 407.3,239.3 407.9,238.5 408.5,237.6 409.1,236.9 409.7,236.0 410.4,235.2 411.0,234.4 411.6,233.6 412.2,232.7 412.8,231.8 413.5,231.0 414.1,230.2 414.7,229.3 415.3,228.4 415.9,227.5 416.6,226.7 417.2,225.8 417.8,224.9 418.4,224.0 419.0,223.2 419.7,222.3 420.3,221.3 420.9,220.4 421.5,219.6 422.1,218.6 422.8,217.7 423.4,216.8 424.0,215.9 424.6,214.9 425.2,214.0 425.9,213.0 426.5,212.1 427.1,211.1 427.7,210.2 428.3,209.2 429.0,208.2 429.6,207.3 430.2,206.3 430.8,205.3 431.4,204.3 432.1,203.3 432.7,202.3 433.3,201.3 433.9,200.3 434.5,199.3 435.2,198.3 435.8,197.2 436.4,196.2 437.0,195.2 437.6,194.2 438.3,193.1 438.9,192.1 439.5,191.0 440.1,190.0 440.7,188.9 441.4,187.9 442.0,186.8 442.6,185.7 443.2,184.6 443.8,183.5 444.5,182.4 445.1,181.3 445.7,180.2 446.3,179.1 446.9,178.0 447.6,176.9 448.2,175.8 448.8,174.7 449.4,173.5 450.0,172.4 450.7,171.2 451.3,170.1 451.9,169.0 452.5,167.8 453.1,166.6 453.8,165.5 454.4,164.3 455.0,163.1 455.6,161.9 456.2,160.8 456.9,159.6 457.5,158.4 458.1,157.2 458.7,156.0 459.3,154.8 460.0,153.6 460.6,152.3 461.2,151.1 461.8,149.9 462.4,148.6 463.1,147.4 463.7,146.2 464.3,144.9 464.9,143.6 465.5,142.4 466.2,141.1 466.8,139.9 467.4,138.6 468.0,137.3 468.6,136.0 469.3,134.7 469.9,133.4 470.5,132.1 471.1,130.8 471.7,129.5 472.4,128.2 473.0,126.8 473.6,125.5 474.2,124.2 474.8,122.9 475.5,121.5 476.1,120.2 476.7,118.8 477.3,117.5 477.9,116.1 478.6,114.7 479.2,113.3 479.8,112.0 480.4,110.6 481.0,109.2 481.7,107.8 482.3,106.4 482.9,105.0 483.5,103.6 484.1,102.2 484.8,100.7 485.4,99.3 486.0,97.9 486.6,96.4 487.2,95.0 487.9,93.5 488.5,92.1 489.1,90.6 489.7,89.2 490.3,87.7 491.0,86.2 491.6,84.7 492.2,83.2 492.8,81.7 493.4,80.3 494.1,78.7 494.7,77.2 495.3,75.7 495.9,74.2 496.5,72.7 497.2,71.1 497.8,69.6 498.4,68.1 499.0,66.7 499.6,65.4 500.3,64.0 500.9,62.7 501.5,61.3 502.1,60.0 502.7,58.6 503.4,57.3 504.0,55.9 504.6,54.5 505.2,53.1 505.8,51.8 506.5,50.4 507.1,49.0 507.7,47.6 508.3,46.2 508.9,44.8 509.6,43.4 510.2,42.0 510.8,208.5 511.4,207.9 512.0,207.2 512.7,206.6 513.3,206.0 513.9,205.4 514.5,204.7 515.1,204.1 515.8,203.5 516.4,202.8 517.0,202.2 517.6,201.5 518.2,200.9 518.9,200.2 519.5,199.6 520.1,198.9 520.7,198.3 521.3,197.6 522.0,196.9 522.6,196.3 523.2,237.4 523.8,236.9 524.4,236.4 525.1,235.9 525.7,235.5 526.3,235.0 526.9,234.5 527.5,234.0 528.2,233.5 528.8,233.0 529.4,232.5 530.0,232.0 530.6,231.5 531.3,231.0 531.9,230.4 532.5,229.9 533.1,229.4 533.7,228.9 534.4,228.4 535.0,227.8 535.6,250.9 536.2,250.5 536.8,250.0 537.5,249.6 538.1,249.2 538.7,248.8 539.3,248.3 539.9,247.9 540.6,247.5 541.2,247.0 541.8,246.6 542.4,246.1 543.0,245.7 543.7,245.2 544.3,244.8 544.9,244.3 545.5,243.9 546.1,243.4 546.8,242.9 547.4,242.4 548.0,258.7 548.6,258.3 549.2,257.9 549.9,257.5 550.5,257.1 551.1,256.7 551.7,256.3 552.3,255.9 553.0,255.5 553.6,255.1 554.2,254.6 554.8,254.2 555.4,253.8 556.1,253.4 556.7,252.9 557.3,252.5 557.9,252.1 558.5,251.6 559.2,251.2 559.8,250.7 560.4,263.7 561.0,263.3 561.6,262.9 562.3,262.5 562.9,262.1 563.5,261.7 564.1,261.3 564.7,260.9 565.4,260.5 566.0,260.1 566.6,259.7 567.2,259.2 567.8,258.9 568.5,258.5 569.1,258.0 569.7,257.6 570.3,257.2 570.9,256.8 571.6,256.3 572.2,255.9 572.8,266.9 573.4,266.5 574.0,266.1 574.7,265.7 575.3,265.4 575.9,265.0 576.5,264.6 577.1,264.1 577.8,263.8 578.4,263.4 579.0,262.9 579.6,262.5 580.2,262.2 580.9,261.7 581.5,261.3 582.1,260.8 582.7,260.5 583.3,260.0 584.0,259.6 584.6,259.1 585.2,258.7 585.8,258.3 586.4,257.8 587.1,257.4 587.7,257.0 588.3,256.5 588.9,256.0 589.5,255.6 590.2,255.2 590.8,254.7 591.4,254.2 592.0,253.7 592.6,253.3 593.3,252.8 593.9,252.3 594.5,251.8 595.1,251.4 595.7,250.9 596.4,250.4 597.0,249.9 597.6,263.1 598.2,262.7 598.8,262.2 599.5,261.8 600.1,261.4 600.7,261.0 601.3,260.5 601.9,260.1 602.6,259.7 603.2,259.2 603.8,258.8 604.4,258.3 605.0,257.9 605.7,257.4 606.3,257.0 606.9,256.5 607.5,256.1 608.1,255.6 608.8,255.1 609.4,254.6 610.0,266.1 610.6,265.7 611.2,265.2 611.9,264.8 612.5,264.4 613.1,264.0 613.7,263.6 614.3,263.1 615.0,262.8 615.6,262.3 616.2,261.8 616.8,261.4 617.4,261.0 618.1,260.5 618.7,260.1 619.3,259.6 619.9,259.2 620.5,258.8 621.2,258.3 621.8,257.8 622.4,268.2 623.0,267.8 623.6,267.3 624.3,266.9 624.9,266.5 625.5,266.1 626.1,265.7 626.7,265.2 627.4,264.9 628.0,264.4 628.6,264.0 629.2,263.5 629.8,263.2 630.5,262.7 631.1,262.2 631.7,261.8 632.3,261.4 632.9,260.9 633.6,260.5 634.2,260.0 634.8,269.6 635.4,269.2 636.0,268.8 636.7,268.4 637.3,268.0 637.9,267.6 638.5,267.1 639.1,266.7 639.8,266.4 640.4,265.9 641.0,265.5 641.6,265.0 642.2,264.6 642.9,264.2 643.5,263.7 644.1,263.3 644.7,262.9 645.3,262.4 646.0,262.0 646.6,261.5 647.2,270.7 647.8,270.2 648.4,269.8 649.1,269.4 649.7,269.0 650.3,268.6 650.9,268.2 651.5,267.8 652.2,267.4 652.8,267.0 653.4,266.5 654.0,266.1 654.6,265.7 655.3,265.2 655.9,264.8 656.5,264.3 657.1,264.0 657.7,263.5 658.4,263.0 659.0,262.6 659.6,271.4 660.2,271.0 660.8,270.6 661.5,270.1 662.1,269.8 662.7,269.4 663.3,268.9 663.9,268.5 664.6,268.1 665.2,267.7 665.8,267.3 666.4,266.8 667.0,266.4 667.7,266.0 668.3,265.5 668.9,265.1 669.5,264.7 670.1,264.3 670.8,263.8 671.4,263.3 672.0,271.9 672.6,271.5 673.2,271.1 673.9,270.7 674.5,270.3 675.1,269.9 675.7,269.5 676.3,269.0 677.0,268.7 677.6,268.2 678.2,267.8 678.8,267.4 679.4,267.0 680.1,266.5 680.7,266.1 681.3,265.6 681.9,265.3 682.5,264.8 683.2,264.3 683.8,263.9 684.4,272.3 685.0,271.9 685.6,271.5 686.3,271.0 686.9,270.7 687.5,270.3 688.1,269.9 688.7,269.4 689.4,269.1 690.0,268.6 690.6,268.2 691.2,267.8 691.8,267.4 692.5,266.9 693.1,266.5 693.7,266.0 694.3,265.7 694.9,265.2 695.6,264.8 696.2,264.3 696.8,272.6 697.4,272.2 698.0,271.8 698.7,271.3 699.3,271.0 699.9,270.6 700.5,270.2 701.1,269.7 701.8,269.4 702.4,268.9 703.0,268.5 703.6,268.1 704.2,267.7 704.9,267.3 705.5,266.8 706.1,266.4 706.7,266.0 707.3,265.6 708.0,265.1 708.6,264.6 709.2,272.8 709.8,272.4 710.4,272.0 711.1,271.6 711.7,271.2 712.3,270.8 712.9,270.4 713.5,270.0 714.2,269.6 714.8,269.2 715.4,268.8 716.0,268.3 716.6,268.0 717.3,267.5 717.9,267.1 718.5,266.6 719.1,266.3 719.7,265.8 720.4,265.4 721.0,264.9 721.6,273.0 722.2,272.6 722.8,272.2 723.5,271.8 724.1,271.5 724.7,271.0 725.3,270.6 725.9,270.2 726.6,269.8 727.2,269.4 727.8,269.0 728.4,268.6 729.0,268.2 729.7,267.8 730.3,267.3 730.9,266.9 731.5,266.5 732.1,266.1 732.8,265.6 733.4,265.2 734.0,273.2 734.6,272.8 735.2,272.4 735.9,272.0 736.5,271.6 737.1,271.2 737.7,270.8 738.3,270.4 739.0,270.0 739.6,269.6 740.2,269.2 740.8,268.8 741.4,268.4 742.1,268.0 742.7,267.5 743.3,267.1 743.9,266.7 744.5,266.3 745.2,265.9 745.8,265.4 746.4,273.4 747.0,273.0 747.6,272.6 748.3,272.2 748.9,271.8 749.5,271.4 750.1,271.0 750.7,270.6 751.4,270.2 752.0,269.8 752.6,269.4 753.2,269.0 753.8,268.6 754.5,268.2 755.1,267.8 755.7,267.3 756.3,267.0 756.9,266.5 757.6,266.1 758.2,265.6 758.8,273.5 759.4,273.1 760.0,272.7 760.7,272.3 761.3,272.0 761.9,271.6 762.5,271.2 763.1,270.8 763.8,270.4 764.4,270.0 765.0,269.6 765.6,269.2 766.2,268.8 766.9,268.4 767.5,268.0 768.1,267.5 768.7,267.2 769.3,266.7 770.0,266.3 770.6,265.9 771.2,273.7 771.8,273.3 772.4,272.9 773.1,272.5 773.7,272.2 774.3,271.8 774.9,271.4 775.5,270.9 776.2,270.6 776.8,270.2 777.4,269.8 778.0,269.4 778.6,269.0 779.3,268.6 779.9,268.2 780.5,267.7 781.1,267.4 781.7,266.9 782.4,266.5 783.0,266.1 783.6,273.8 784.2,273.5 784.8,273.1 785.5,272.7 786.1,272.3 786.7,271.9 787.3,271.5 787.9,271.1 788.6,270.8 789.2,270.4 789.8,270.0 790.4,269.5 791.0,269.2 791.7,268.8 792.3,268.4 792.9,267.9 793.5,267.6 794.1,267.1 794.8,266.7 795.4,266.3 796.0,274.0"/>
<text x="640" y="56" font-family="Arial" font-size="12" fill="#0f766e">nominal covariance trace</text>
</svg>