<svg xmlns="http://www.w3.org/2000/svg" width="820" height="320" viewBox="0 0 820 320">
<rect width="100%" height="100%" fill="white"/>
<text x="52" y="30" font-family="Arial" font-size="18" font-weight="700">nominal position error</text>
<line x1="52" y1="274" x2="796" y2="274" stroke="#263238"/>
<line x1="52" y1="42" x2="52" y2="274" stroke="#263238"/>
<text x="52" y="306" font-family="Arial" font-size="12">time (s)</text>
<text x="630" y="306" font-family="Arial" font-size="12">m</text>

<rect x="399.2" y="42" width="99.2" height="232" fill="#fef3c7" opacity="0.72"/>
<polyline fill="none" stroke="#0f766e" stroke-width="2.3" points="52.0,57.5 52.6,56.7 53.2,55.9 53.9,55.1 54.5,53.8 55.1,52.8 55.7,51.7 56.3,50.6 57.0,50.2 57.6,49.0 58.2,47.9 58.8,46.6 59.4,47.8 60.1,47.0 60.7,46.1 61.3,45.3 61.9,44.6 62.5,43.7 63.2,42.9 63.8,42.0 64.4,179.8 65.0,179.5 65.6,178.8 66.3,177.5 66.9,175.6 67.5,173.5 68.1,171.0 68.7,168.2 69.4,164.9 70.0,161.4 70.6,157.6 71.2,153.6 71.8,149.7 72.5,145.2 73.1,140.5 73.7,135.7 74.3,130.7 74.9,125.6 75.6,120.3 76.2,114.9 76.8,179.4 77.4,176.8 78.0,174.1 78.7,171.2 79.3,168.1 79.9,165.0 80.5,161.7 81.1,158.4 81.8,154.9 82.4,151.4 83.0,147.7 83.6,144.1 84.2,140.0 84.9,136.2 85.5,132.3 86.1,128.3 86.7,123.7 87.3,119.6 88.0,115.5 88.6,111.3 89.2,201.4 89.8,201.9 90.4,202.5 91.1,203.0 91.7,205.1 92.3,205.7 92.9,206.3 93.5,206.9 94.2,207.3 94.8,207.8 95.4,208.4 96.0,208.9 96.6,210.1 97.3,210.6 97.9,211.1 98.5,211.7 99.1,211.7 99.7,212.0 100.4,212.4 101.0,212.7 101.6,191.3 102.2,191.2 102.8,191.1 103.5,190.9 104.1,191.4 104.7,191.2 105.3,191.1 105.9,190.9 106.6,190.3 107.2,190.1 107.8,189.8 108.4,189.5 109.0,191.0 109.7,190.9 110.3,190.7 110.9,190.5 111.5,190.1 112.1,189.8 112.8,189.6 113.4,189.4 114.0,196.1 114.6,194.7 115.2,193.3 115.9,191.8 116.5,190.6 117.1,189.1 117.7,187.6 118.3,186.1 119.0,184.5 119.6,182.9 120.2,181.3 120.8,179.7 121.4,177.9 122.1,176.2 122.7,174.5 123.3,172.8 123.9,170.8 124.5,169.0 125.2,167.2 125.8,165.4 126.4,221.8 127.0,219.5 127.6,217.2 128.3,214.9 128.9,213.2 129.5,210.9 130.1,208.5 130.7,206.1 131.4,202.7 132.0,200.3 132.6,197.8 133.2,195.3 133.8,193.9 134.5,191.3 135.1,188.8 135.7,186.3 136.3,183.7 136.9,181.1 137.6,178.5 138.2,175.9 138.8,235.3 139.4,233.6 140.0,231.9 140.7,230.2 141.3,228.2 141.9,226.5 142.5,224.7 143.1,223.0 143.8,221.2 144.4,219.4 145.0,217.6 145.6,215.8 146.2,214.0 146.9,212.2 147.5,210.4 148.1,208.5 148.7,206.8 149.3,204.9 150.0,203.0 150.6,201.0 151.2,274.0 151.8,273.3 152.4,272.5 153.1,271.8 153.7,267.9 154.3,267.1 154.9,266.2 155.5,265.3 156.2,260.9 156.8,259.9 157.4,259.0 158.0,258.0 158.6,257.2 159.3,256.2 159.9,255.1 160.5,254.0 161.1,255.1 161.7,254.0 162.4,252.9 163.0,251.8 163.6,247.3 164.2,246.3 164.8,245.2 165.5,244.2 166.1,244.0 166.7,242.9 167.3,241.9 167.9,240.8 168.6,239.8 169.2,238.6 169.8,237.5 170.4,236.4 171.0,235.2 171.7,234.0 172.3,232.8 172.9,231.6 173.5,230.4 174.1,229.2 174.8,227.9 175.4,226.6 176.0,267.4 176.6,267.0 177.2,266.6 177.9,266.2 178.5,264.8 179.1,264.3 179.7,263.8 180.3,263.2 181.0,260.6 181.6,260.0 182.2,259.4 182.8,258.8 183.4,259.7 184.1,259.1 184.7,258.5 185.3,257.8 185.9,255.1 186.5,254.4 187.2,253.6 187.8,252.9 188.4,201.9 189.0,201.0 189.6,200.1 190.3,199.1 190.9,199.0 191.5,198.1 192.1,197.2 192.7,196.2 193.4,195.7 194.0,194.8 194.6,193.9 195.2,192.9 195.8,190.6 196.5,189.6 197.1,188.7 197.7,187.7 198.3,188.0 198.9,187.0 199.6,186.1 200.2,185.1 200.8,233.0 201.4,232.4 202.0,231.8 202.7,231.2 203.3,231.0 203.9,230.3 204.5,229.7 205.1,229.0 205.8,228.2 206.4,227.6 207.0,226.9 207.6,226.1 208.2,225.5 208.9,224.8 209.5,224.0 210.1,223.3 210.7,222.5 211.3,221.7 212.0,220.9 212.6,220.1 213.2,235.7 213.8,235.5 214.4,235.2 215.1,235.0 215.7,234.8 216.3,234.5 216.9,234.2 217.5,234.0 218.2,233.3 218.8,233.0 219.4,232.8 220.0,232.5 220.6,232.2 221.3,231.9 221.9,231.6 222.5,231.3 223.1,230.6 223.7,230.3 224.4,230.0 225.0,229.6 225.6,222.5 226.2,221.9 226.8,221.3 227.5,220.7 228.1,219.8 228.7,219.1 229.3,218.4 229.9,217.7 230.6,216.4 231.2,215.7 231.8,214.9 232.4,214.2 233.0,211.9 233.7,211.1 234.3,210.3 234.9,209.5 235.5,208.7 236.1,207.9 236.8,207.0 237.4,206.2 238.0,256.1 238.6,256.0 239.2,255.8 239.9,255.6 240.5,258.7 241.1,258.5 241.7,258.3 242.3,258.0 243.0,256.4 243.6,256.1 244.2,255.8 244.8,255.5 245.4,258.1 246.1,257.7 246.7,257.3 247.3,256.9 247.9,256.4 248.5,256.0 249.2,255.5 249.8,254.9 250.4,271.7 251.0,271.3 251.6,270.8 252.3,270.3 252.9,271.5 253.5,270.8 254.1,270.1 254.7,269.4 255.4,268.6 256.0,267.8 256.6,267.0 257.2,266.2 257.8,265.4 258.5,264.6 259.1,263.8 259.7,262.9 260.3,261.2 260.9,260.3 261.6,259.5 262.2,258.6 262.8,270.8 263.4,271.0 264.0,271.1 264.7,271.3 265.3,272.1 265.9,272.0 266.5,272.0 267.1,271.9 267.8,272.3 268.4,272.2 269.0,272.0 269.6,271.7 270.2,270.5 270.9,270.2 271.5,269.9 272.1,269.5 272.7,269.6 273.3,269.2 274.0,268.7 274.6,268.2 275.2,214.5 275.8,213.4 276.4,212.2 277.1,211.1 277.7,209.7 278.3,208.6 278.9,207.4 279.5,206.2 280.2,205.3 280.8,204.1 281.4,202.9 282.0,201.6 282.6,200.4 283.3,199.1 283.9,197.8 284.5,196.5 285.1,195.2 285.7,193.9 286.4,192.6 287.0,191.3 287.6,204.0 288.2,202.8 288.8,201.7 289.5,200.4 290.1,199.3 290.7,198.1 291.3,196.9 291.9,195.6 292.6,194.6 293.2,193.3 293.8,192.1 294.4,190.8 295.0,189.5 295.7,188.3 296.3,187.0 296.9,185.7 297.5,184.3 298.1,183.0 298.8,181.7 299.4,180.3 300.0,266.0 300.6,265.8 301.2,265.5 301.9,265.2 302.5,265.5 303.1,265.2 303.7,264.9 304.3,264.5 305.0,263.7 305.6,263.3 306.2,262.9 306.8,262.5 307.4,262.2 308.1,261.8 308.7,261.3 309.3,260.8 309.9,260.8 310.5,260.3 311.2,259.8 311.8,259.3 312.4,247.8 313.0,247.4 313.6,247.0 314.3,246.5 314.9,246.0 315.5,245.5 316.1,245.0 316.7,244.5 317.4,244.4 318.0,243.9 318.6,243.4 319.2,242.9 319.8,241.8 320.5,241.2 321.1,240.7 321.7,240.1 322.3,240.0 322.9,239.5 323.6,238.9 324.2,238.3 324.8,231.5 325.4,231.1 326.0,230.6 326.7,230.2 327.3,229.9 327.9,229.5 328.5,229.0 329.1,228.5 329.8,228.4 330.4,227.9 331.0,227.5 331.6,227.0 332.2,227.1 332.9,226.7 333.5,226.1 334.1,225.6 334.7,224.9 335.3,224.4 336.0,223.8 336.6,223.3 337.2,217.9 337.8,217.7 338.4,217.6 339.1,217.4 339.7,216.9 340.3,216.7 340.9,216.5 341.5,216.3 342.2,217.4 342.8,217.2 343.4,217.0 344.0,216.9 344.6,216.6 345.3,216.4 345.9,216.3 346.5,216.1 347.1,216.9 347.7,216.8 348.4,216.6 349.0,216.5 349.6,236.9 350.2,237.0 350.8,237.0 351.5,237.1 352.1,238.1 352.7,238.2 353.3,238.3 353.9,238.4 354.6,236.8 355.2,236.9 355.8,236.9 356.4,237.0 357.0,238.0 357.7,238.0 358.3,238.1 358.9,238.2 359.5,238.3 360.1,238.3 360.8,238.4 361.4,238.5 362.0,242.1 362.6,242.1 363.2,242.1 363.9,242.2 364.5,241.8 365.1,241.9 365.7,241.9 366.3,241.9 367.0,243.4 367.6,243.4 368.2,243.5 368.8,243.5 369.4,244.0 370.1,244.1 370.7,244.1 371.3,244.1 371.9,244.9 372.5,245.0 373.2,245.0 373.8,245.0 374.4,229.2 375.0,228.8 375.6,228.4 376.3,228.0 376.9,227.6 377.5,227.2 378.1,226.8 378.7,226.4 379.4,226.3 380.0,225.9 380.6,225.4 381.2,225.0 381.8,224.7 382.5,224.3 383.1,223.8 383.7,223.3 384.3,222.7 384.9,222.2 385.6,221.7 386.2,221.3 386.8,252.5 387.4,252.2 388.0,251.9 388.7,251.6 389.3,251.1 389.9,250.8 390.5,250.5 391.1,250.1 391.8,249.8 392.4,249.5 393.0,249.1 393.6,248.7 394.2,248.2 394.9,247.8 395.5,247.4 396.1,247.0 396.7,246.7 397.3,246.3 398.0,245.9 398.6,245.4 399.2,245.0 399.8,244.6 400.4,244.1 401.1,243.6 401.7,243.0 402.3,242.5 402.9,242.0 403.5,241.5 404.2,241.0 404.8,240.5 405.4,239.9 406.0,239.4 406.6,238.7 407.3,238.1 407.9,237.6 408.5,237.0 409.1,236.5 409.7,235.9 410.4,235.3 411.0,234.7 411.6,234.1 412.2,233.5 412.8,232.9 413.5,232.3 414.1,231.9 414.7,231.3 415.3,230.6 415.9,230.0 416.6,229.4 417.2,228.7 417.8,228.1 418.4,227.4 419.0,226.7 419.7,226.1 420.3,225.4 420.9,224.7 421.5,223.7 422.1,223.0 422.8,222.3 423.4,221.6 424.0,221.0 424.6,220.3 425.2,219.5 425.9,218.8 426.5,217.7 427.1,217.0 427.7,216.2 428.3,215.5 429.0,214.5 429.6,213.8 430.2,213.0 430.8,212.2 431.4,211.6 432.1,210.8 432.7,210.0 433.3,209.2 433.9,208.5 434.5,207.7 435.2,206.9 435.8,206.1 436.4,205.2 437.0,204.4 437.6,203.5 438.3,202.7 438.9,202.0 439.5,201.1 440.1,200.3 440.7,199.4 441.4,198.7 442.0,197.8 442.6,197.0 443.2,196.1 443.8,194.8 444.5,194.0 445.1,193.1 445.7,192.2 446.3,192.1 446.9,191.2 447.6,190.3 448.2,189.4 448.8,188.7 449.4,187.8 450.0,186.9 450.7,186.0 451.3,185.1 451.9,184.2 452.5,183.3 453.1,182.4 453.8,180.5 454.4,179.6 455.0,178.6 455.6,177.6 456.2,177.2 456.9,176.2 457.5,175.2 458.1,174.2 458.7,173.5 459.3,172.5 460.0,171.5 460.6,170.5 461.2,170.3 461.8,169.3 462.4,168.2 463.1,167.2 463.7,166.1 464.3,165.1 464.9,164.1 465.5,163.1 466.2,162.2 466.8,161.2 467.4,160.2 468.0,159.1 468.6,157.8 469.3,156.8 469.9,155.7 470.5,154.7 471.1,154.2 471.7,153.1 472.4,152.1 473.0,151.0 473.6,150.0 474.2,148.9 474.8,147.8 475.5,146.8 476.1,145.9 476.7,144.8 477.3,143.8 477.9,142.7 478.6,141.7 479.2,140.7 479.8,139.6 480.4,138.5 481.0,137.5 481.7,136.4 482.3,135.3 482.9,134.2 483.5,133.2 484.1,132.1 484.8,131.0 485.4,129.9 486.0,128.8 486.6,127.7 487.2,126.6 487.9,125.5 488.5,124.4 489.1,123.2 489.7,122.1 490.3,121.0 491.0,119.8 491.6,118.7 492.2,117.6 492.8,116.5 493.4,115.3 494.1,114.2 494.7,113.1 495.3,111.9 495.9,110.7 496.5,109.5 497.2,108.4 497.8,107.2 498.4,105.9 499.0,104.8 499.6,103.6 500.3,102.4 500.9,101.0 501.5,99.9 502.1,98.7 502.7,97.5 503.4,96.4 504.0,95.2 504.6,94.0 505.2,92.8 505.8,92.0 506.5,90.8 507.1,89.6 507.7,88.3 508.3,87.0 508.9,85.8 509.6,84.6 510.2,83.4 510.8,227.7 511.4,227.1 512.0,226.5 512.7,225.9 513.3,225.4 513.9,224.8 514.5,224.3 515.1,223.7 515.8,223.4 516.4,222.9 517.0,222.3 517.6,221.7 518.2,221.3 518.9,220.7 519.5,220.1 520.1,219.5 520.7,218.9 521.3,218.3 522.0,217.7 522.6,217.1 523.2,255.0 523.8,254.6 524.4,254.2 525.1,253.8 525.7,253.6 526.3,253.2 526.9,252.8 527.5,252.4 528.2,252.0 528.8,251.6 529.4,251.2 530.0,250.8 530.6,250.4 531.3,250.1 531.9,249.7 532.5,249.3 533.1,248.8 533.7,248.4 534.4,248.0 535.0,247.6 535.6,217.7 536.2,217.1 536.8,216.6 537.5,216.1 538.1,215.3 538.7,214.7 539.3,214.2 539.9,213.7 540.6,212.6 541.2,212.0 541.8,211.5 542.4,210.9 543.0,210.7 543.7,210.2 544.3,209.6 544.9,209.0 545.5,208.1 546.1,207.5 546.8,207.0 547.4,206.4 548.0,219.8 548.6,219.3 549.2,218.8 549.9,218.3 550.5,217.0 551.1,216.4 551.7,215.9 552.3,215.4 553.0,214.6 553.6,214.0 554.2,213.5 554.8,213.0 555.4,214.1 556.1,213.5 556.7,213.0 557.3,212.5 557.9,212.3 558.5,211.8 559.2,211.3 559.8,210.8 560.4,223.2 561.0,222.8 561.6,222.3 562.3,221.9 562.9,221.1 563.5,220.7 564.1,220.2 564.7,219.8 565.4,219.9 566.0,219.4 566.6,219.0 567.2,218.6 567.8,218.2 568.5,217.8 569.1,217.4 569.7,216.9 570.3,216.7 570.9,216.3 571.6,215.8 572.2,215.4 572.8,205.2 573.4,204.7 574.0,204.2 574.7,203.6 575.3,203.4 575.9,202.9 576.5,202.4 577.1,201.8 577.8,201.3 578.4,200.8 579.0,200.2 579.6,199.7 580.2,199.3 580.9,198.7 581.5,198.2 582.1,197.6 582.7,197.1 583.3,196.5 584.0,196.0 584.6,195.4 585.2,194.9 585.8,194.3 586.4,193.8 587.1,193.2 587.7,192.7 588.3,192.1 588.9,191.6 589.5,191.0 590.2,190.3 590.8,189.8 591.4,189.2 592.0,188.7 592.6,188.1 593.3,187.6 593.9,187.0 594.5,186.5 595.1,185.6 595.7,185.0 596.4,184.5 597.0,183.9 597.6,201.9 598.2,201.4 598.8,200.8 599.5,200.3 600.1,200.5 600.7,200.0 601.3,199.5 601.9,199.0 602.6,198.9 603.2,198.4 603.8,197.9 604.4,197.4 605.0,197.2 605.7,196.7 606.3,196.2 606.9,195.7 607.5,195.0 608.1,194.5 608.8,194.0 609.4,193.4 610.0,209.9 610.6,209.5 611.2,209.0 611.9,208.6 612.5,208.4 613.1,207.9 613.7,207.5 614.3,207.1 615.0,206.6 615.6,206.2 616.2,205.7 616.8,205.3 617.4,204.7 618.1,204.3 618.7,203.9 619.3,203.5 619.9,202.9 620.5,202.5 621.2,202.1 621.8,201.7 622.4,241.2 623.0,241.0 623.6,240.8 624.3,240.6 624.9,241.8 625.5,241.6 626.1,241.4 626.7,241.2 627.4,241.2 628.0,241.0 628.6,240.9 629.2,240.7 629.8,241.1 630.5,240.9 631.1,240.8 631.7,240.6 632.3,241.1 632.9,240.9 633.6,240.7 634.2,240.6 634.8,223.6 635.4,223.3 636.0,223.0 636.7,222.7 637.3,222.9 637.9,222.6 638.5,222.3 639.1,222.0 639.8,221.7 640.4,221.4 641.0,221.1 641.6,220.7 642.2,220.0 642.9,219.7 643.5,219.4 644.1,219.0 644.7,219.2 645.3,218.9 646.0,218.6 646.6,218.2 647.2,241.7 647.8,241.5 648.4,241.3 649.1,241.1 649.7,240.8 650.3,240.6 650.9,240.4 651.5,240.2 652.2,239.7 652.8,239.5 653.4,239.2 654.0,239.0 654.6,238.7 655.3,238.4 655.9,238.2 656.5,238.0 657.1,237.9 657.7,237.7 658.4,237.5 659.0,237.3 659.6,252.9 660.2,252.8 660.8,252.6 661.5,252.5 662.1,252.2 662.7,252.0 663.3,251.9 663.9,251.8 664.6,253.4 665.2,253.3 665.8,253.2 666.4,253.1 667.0,253.3 667.7,253.2 668.3,253.1 668.9,253.0 669.5,252.4 670.1,252.3 670.8,252.2 671.4,252.1 672.0,266.6 672.6,266.6 673.2,266.6 673.9,266.6 674.5,266.7 675.1,266.7 675.7,266.7 676.3,266.7 677.0,267.0 677.6,267.0 678.2,267.0 678.8,266.9 679.4,266.8 680.1,266.8 680.7,266.8 681.3,266.8 681.9,266.9 682.5,266.9 683.2,266.9 683.8,266.9 684.4,237.6 685.0,237.4 685.6,237.3 686.3,237.1 686.9,236.9 687.5,236.8 688.1,236.6 688.7,236.4 689.4,236.3 690.0,236.1 690.6,235.9 691.2,235.7 691.8,235.6 692.5,235.4 693.1,235.2 693.7,235.0 694.3,234.7 694.9,234.5 695.6,234.3 696.2,234.1 696.8,247.2 697.4,247.1 698.0,247.0 698.7,246.8 699.3,245.7 699.9,245.5 700.5,245.3 701.1,245.1 701.8,244.0 702.4,243.8 703.0,243.6 703.6,243.4 704.2,245.1 704.9,245.0 705.5,244.8 706.1,244.7 706.7,244.9 707.3,244.8 708.0,244.6 708.6,244.5 709.2,260.8 709.8,260.8 710.4,260.7 711.1,260.7 711.7,261.3 712.3,261.2 712.9,261.2 713.5,261.2 714.2,261.8 714.8,261.7 715.4,261.7 716.0,261.7 716.6,261.3 717.3,261.2 717.9,261.2 718.5,261.2 719.1,261.5 719.7,261.5 720.4,261.5 721.0,261.4 721.6,248.1 722.2,248.0 722.8,247.9 723.5,247.8 724.1,247.9 724.7,247.8 725.3,247.7 725.9,247.6 726.6,247.2 727.2,247.1 727.8,247.0 728.4,246.9 729.0,247.2 729.7,247.1 730.3,247.0 730.9,246.9 731.5,246.8 732.1,246.7 732.8,246.6 733.4,246.4 734.0,240.7 734.6,240.6 735.2,240.4 735.9,240.3 736.5,240.2 737.1,240.1 737.7,239.9 738.3,239.8 739.0,239.7 739.6,239.5 740.2,239.4 740.8,239.2 741.4,239.1 742.1,238.9 742.7,238.8 743.3,238.6 743.9,238.5 744.5,238.3 745.2,238.2 745.8,238.0 746.4,231.9 747.0,231.7 747.6,231.5 748.3,231.3 748.9,231.1 749.5,230.9 750.1,230.6 750.7,230.4 751.4,230.2 752.0,230.0 752.6,229.8 753.2,229.6 753.8,229.3 754.5,229.1 755.1,228.9 755.7,228.7 756.3,228.2 756.9,228.0 757.6,227.7 758.2,227.5 758.8,261.0 759.4,261.0 760.0,260.9 760.7,260.9 761.3,261.0 761.9,261.0 762.5,261.0 763.1,260.9 763.8,260.8 764.4,260.7 765.0,260.7 765.6,260.7 766.2,260.6 766.9,260.5 767.5,260.5 768.1,260.5 768.7,260.1 769.3,260.0 770.0,260.0 770.6,259.9 771.2,271.3 771.8,271.3 772.4,271.3 773.1,271.3 773.7,270.8 774.3,270.8 774.9,270.8 775.5,270.7 776.2,272.0 776.8,272.0 777.4,271.9 778.0,271.9 778.6,268.3 779.3,268.2 779.9,268.1 780.5,268.0 781.1,267.5 781.7,267.4 782.4,267.3 783.0,267.1 783.6,258.6 784.2,258.5 784.8,258.3 785.5,258.2 786.1,259.4 786.7,259.3 787.3,259.1 787.9,259.0 788.6,258.3 789.2,258.2 789.8,258.0 790.4,257.9 791.0,255.6 791.7,255.4 792.3,255.2 792.9,255.0 793.5,256.8 794.1,256.7 794.8,256.5 795.4,256.3 796.0,236.8"/>
<text x="640" y="56" font-family="Arial" font-size="12" fill="#0f766e">nominal position error</text>
</svg>