<svg xmlns="http://www.w3.org/2000/svg" width="820" height="320" viewBox="0 0 820 320">
<rect width="100%" height="100%" fill="white"/>
<text x="52" y="30" font-family="Arial" font-size="18" font-weight="700">ekf_high_bias residuals</text>
<line x1="52" y1="274" x2="796" y2="274" stroke="#263238"/>
<line x1="52" y1="42" x2="52" y2="274" stroke="#263238"/>
<text x="52" y="306" font-family="Arial" font-size="12">time (s)</text>
<text x="630" y="306" font-family="Arial" font-size="12">norm</text>

<polyline fill="none" stroke="#0f766e" stroke-width="2.3" points="52.0,261.5 52.0,258.5 54.5,268.4 57.0,264.5 59.4,268.5 61.9,271.5 64.4,238.2 64.4,271.4 66.9,272.2 69.4,273.6 71.8,272.5 74.3,267.7 76.8,257.8 76.8,272.9 79.3,272.6 81.8,274.0 84.2,271.4 86.7,271.2 89.2,244.2 89.2,274.0 91.7,269.9 94.2,273.5 96.6,271.3 99.1,268.2 101.6,271.2 101.6,273.5 104.1,271.8 106.6,272.6 109.0,266.2 111.5,269.3 114.0,248.8 114.0,273.7 116.5,270.9 119.0,273.7 121.4,271.1 123.9,271.4 126.4,267.3 126.4,273.4 128.9,270.3 131.4,269.1 133.8,266.6 136.3,272.8 138.8,255.0 138.8,273.6 141.3,270.7 143.8,273.6 146.2,273.8 148.7,272.2 151.2,266.5 151.2,271.7 153.7,269.0 156.2,270.2 158.6,273.6 161.1,271.3 163.6,268.1 163.6,267.2 166.1,269.5 168.6,270.3 171.0,273.7 173.5,272.2 176.0,270.0 176.0,273.3 178.5,271.0 181.0,269.9 183.4,271.0 185.9,270.1 188.4,254.2 188.4,272.6 190.9,270.6 193.4,272.0 195.8,267.7 198.3,268.5 200.8,254.2 200.8,263.9 203.3,269.2 205.8,271.7 208.2,271.1 210.7,273.0 213.2,266.5 213.2,272.1 215.7,270.1 218.2,268.3 220.6,273.8 223.1,271.4 225.6,260.9 225.6,269.6 228.1,272.5 230.6,271.0 233.0,268.1 235.5,273.9 238.0,262.7 238.0,270.2 240.5,268.9 243.0,271.8 245.4,268.7 247.9,274.0 250.4,271.2 250.4,266.5 252.9,270.5 255.4,273.5 257.8,273.8 260.3,270.2 262.8,258.4 262.8,273.4 265.3,265.0 267.8,268.5 270.2,268.8 272.7,271.8 275.2,253.2 275.2,272.2 277.7,270.9 280.2,266.4 282.6,272.5 285.1,272.9 287.6,266.6 287.6,268.5 290.1,272.5 292.6,268.5 295.0,273.5 297.5,272.1 300.0,241.1 300.0,273.4 302.5,270.0 305.0,270.8 307.4,273.2 309.9,265.5 312.4,252.9 312.4,268.9 314.9,273.8 317.4,271.0 319.8,270.5 322.3,271.1 324.8,264.7 324.8,266.8 327.3,272.7 329.8,271.8 332.2,270.4 334.7,273.2 337.2,255.3 337.2,269.7 339.7,273.1 342.2,268.5 344.6,274.0 347.1,269.1 349.6,264.8 349.6,271.0 352.1,270.3 354.6,267.9 357.0,270.7 359.5,273.9 362.0,266.7 362.0,269.5 364.5,272.7 367.0,268.5 369.4,272.0 371.9,269.8 374.4,265.5 374.4,272.8 376.9,273.0 379.4,270.4 381.8,268.5 384.3,265.2 386.8,269.6 386.8,270.6 389.3,271.3 391.8,273.9 394.2,271.6 396.7,272.2 399.2,272.5 401.7,269.4 404.2,273.2 406.6,271.4 409.1,273.9 411.6,273.4 414.1,268.4 416.6,273.0 419.0,271.1 421.5,270.0 424.0,272.4 426.5,271.4 429.0,273.6 431.4,271.6 433.9,272.7 436.4,273.6 438.9,272.8 441.4,272.7 443.8,271.6 446.3,267.8 448.8,272.1 451.3,273.9 453.8,266.9 456.2,270.0 458.7,271.4 461.2,266.4 463.7,272.6 466.2,272.3 468.6,270.2 471.1,267.6 473.6,273.9 476.1,270.6 478.6,271.6 481.0,272.2 483.5,271.5 486.0,273.9 488.5,271.8 491.0,272.8 493.4,272.3 495.9,269.5 498.4,271.6 500.9,271.4 503.4,270.5 505.8,266.9 508.3,272.6 510.8,257.1 510.8,264.8 513.3,272.9 515.8,269.4 518.2,270.2 520.7,266.6 523.2,264.4 523.2,272.9 525.7,269.5 528.2,271.4 530.6,273.9 533.1,272.7 535.6,263.6 535.6,271.4 538.1,270.5 540.6,270.0 543.0,270.1 545.5,271.7 548.0,261.9 548.0,271.9 550.5,270.6 553.0,273.7 555.4,264.5 557.9,271.4 560.4,263.5 560.4,272.4 562.9,272.7 565.4,270.7 567.8,273.1 570.3,272.5 572.8,250.3 572.8,266.4 575.3,268.7 577.8,272.8 580.2,268.5 582.7,271.1 585.2,42.0 585.2,271.6 587.7,271.1 590.2,269.3 592.6,272.5 595.1,268.6 597.6,264.2 597.6,268.0 600.1,268.3 602.6,268.9 605.0,270.0 607.5,272.2 610.0,259.4 610.0,269.7 612.5,271.8 615.0,273.5 617.4,272.7 619.9,273.2 622.4,254.0 622.4,272.1 624.9,268.0 627.4,273.2 629.8,271.1 632.3,269.8 634.8,267.6 634.8,272.5 637.3,266.8 639.8,267.8 642.2,268.2 644.7,266.7 647.2,262.8 647.2,271.8 649.7,273.2 652.2,272.0 654.6,273.7 657.1,272.1 659.6,268.3 659.6,273.5 662.1,273.8 664.6,264.6 667.0,271.0 669.5,270.2 672.0,267.2 672.0,268.3 674.5,272.8 677.0,271.3 679.4,273.1 681.9,272.3 684.4,252.7 684.4,271.0 686.9,273.1 689.4,273.3 691.8,272.6 694.3,267.9 696.8,255.3 696.8,271.7 699.3,266.9 701.8,270.0 704.2,264.9 706.7,271.2 709.2,270.9 709.2,272.8 711.7,271.4 714.2,271.0 716.6,271.5 719.1,272.1 721.6,257.9 721.6,271.4 724.1,272.2 726.6,270.5 729.0,269.1 731.5,273.6 734.0,266.5 734.0,272.8 736.5,272.8 739.0,273.8 741.4,272.4 743.9,272.8 746.4,265.1 746.4,273.9 748.9,272.9 751.4,270.5 753.8,270.4 756.3,269.1 758.8,257.4 758.8,268.5 761.3,272.1 763.8,271.5 766.2,273.5 768.7,271.5 771.2,268.1 771.2,272.7 773.7,272.5 776.2,269.4 778.6,263.9 781.1,273.3 783.6,262.7 783.6,273.7 786.1,270.2 788.6,272.4 791.0,268.9 793.5,268.9 796.0,263.7 796.0,272.8"/>
<text x="640" y="56" font-family="Arial" font-size="12" fill="#0f766e">ekf_high_bias residuals</text>
</svg>