<svg xmlns="http://www.w3.org/2000/svg" width="820" height="320" viewBox="0 0 820 320">
<rect width="100%" height="100%" fill="white"/>
<text x="52" y="30" font-family="Arial" font-size="18" font-weight="700">ekf_aggressive residuals</text>
<line x1="52" y1="274" x2="796" y2="274" stroke="#263238"/>
<line x1="52" y1="42" x2="52" y2="274" stroke="#263238"/>
<text x="52" y="306" font-family="Arial" font-size="12">time (s)</text>
<text x="630" y="306" font-family="Arial" font-size="12">norm</text>

<polyline fill="none" stroke="#0f766e" stroke-width="2.3" points="52.0,261.4 52.0,257.5 54.5,269.1 57.0,261.8 59.4,266.6 61.9,271.1 64.4,236.9 64.4,271.8 66.9,272.5 69.4,273.9 71.8,272.3 74.3,267.7 76.8,252.8 76.8,272.4 79.3,272.1 81.8,273.7 84.2,271.2 86.7,271.3 89.2,240.9 89.2,273.4 91.7,269.4 94.2,273.5 96.6,271.2 99.1,268.3 101.6,272.3 101.6,273.0 104.1,271.4 106.6,272.9 109.0,265.9 111.5,269.3 114.0,246.5 114.0,274.0 116.5,270.6 119.0,273.9 121.4,271.3 123.9,271.6 126.4,266.4 126.4,273.7 128.9,270.1 131.4,269.3 133.8,266.3 136.3,272.9 138.8,254.9 138.8,273.9 141.3,271.0 143.8,273.8 146.2,273.6 148.7,272.0 151.2,269.0 151.2,271.5 153.7,268.8 156.2,270.1 158.6,273.8 161.1,271.4 163.6,265.7 163.6,267.2 166.1,269.5 168.6,270.3 171.0,273.7 173.5,272.2 176.0,267.9 176.0,273.3 178.5,271.0 181.0,269.9 183.4,271.0 185.9,270.1 188.4,252.8 188.4,272.5 190.9,270.7 193.4,272.1 195.8,267.7 198.3,268.6 200.8,254.7 200.8,263.8 203.3,269.0 205.8,271.9 208.2,270.9 210.7,273.2 213.2,265.6 213.2,272.0 215.7,270.3 218.2,268.5 220.6,273.7 223.1,271.5 225.6,261.0 225.6,269.7 228.1,272.6 230.6,271.0 233.0,268.1 235.5,273.9 238.0,262.2 238.0,270.4 240.5,268.9 243.0,271.8 245.4,268.8 247.9,273.9 250.4,271.4 250.4,266.5 252.9,270.3 255.4,273.8 257.8,273.9 260.3,270.5 262.8,258.0 262.8,273.1 265.3,264.7 267.8,269.0 270.2,269.1 272.7,271.5 275.2,253.6 275.2,272.4 277.7,271.0 280.2,266.4 282.6,272.2 285.1,273.2 287.6,266.2 287.6,268.1 290.1,273.0 292.6,268.9 295.0,273.8 297.5,271.9 300.0,240.8 300.0,273.1 302.5,270.3 305.0,270.6 307.4,273.4 309.9,265.7 312.4,252.5 312.4,268.7 314.9,273.3 317.4,271.5 319.8,270.1 322.3,271.6 324.8,263.9 324.8,266.4 327.3,273.4 329.8,272.5 332.2,271.0 334.7,272.7 337.2,254.5 337.2,269.2 339.7,272.5 342.2,269.1 344.6,273.6 347.1,269.6 349.6,266.0 349.6,271.3 352.1,270.4 354.6,267.9 357.0,270.9 359.5,273.9 362.0,267.2 362.0,269.6 364.5,272.8 367.0,268.4 369.4,271.7 371.9,269.4 374.4,266.5 374.4,273.4 376.9,273.5 379.4,269.9 381.8,267.8 384.3,266.1 386.8,270.5 386.8,270.1 389.3,271.9 391.8,273.6 394.2,272.2 396.7,271.7 399.2,272.0 401.7,270.0 404.2,273.6 406.6,271.7 409.1,273.9 411.6,273.6 414.1,268.2 416.6,273.5 419.0,270.7 421.5,269.4 424.0,273.2 426.5,270.7 429.0,272.7 431.4,272.5 433.9,273.4 436.4,273.7 438.9,273.4 441.4,273.3 443.8,271.1 446.3,268.4 448.8,272.4 451.3,273.8 453.8,266.8 456.2,270.6 458.7,271.7 461.2,266.5 463.7,273.1 466.2,271.9 468.6,270.7 471.1,267.3 473.6,273.4 476.1,269.9 478.6,270.6 481.0,271.0 483.5,270.2 486.0,272.4 488.5,273.3 491.0,271.5 493.4,273.7 495.9,268.1 498.4,269.9 500.9,269.6 503.4,272.5 505.8,268.7 508.3,271.3 510.8,254.9 510.8,266.2 513.3,273.7 515.8,270.2 518.2,270.6 520.7,266.7 523.2,261.3 523.2,273.1 525.7,269.7 528.2,271.4 530.6,274.0 533.1,272.5 535.6,266.7 535.6,271.2 538.1,270.1 540.6,269.4 543.0,271.0 545.5,271.0 548.0,261.8 548.0,271.1 550.5,269.6 553.0,272.6 555.4,265.6 557.9,272.1 560.4,262.4 560.4,272.0 562.9,272.2 565.4,271.4 567.8,273.6 570.3,273.0 572.8,252.1 572.8,266.6 575.3,268.5 577.8,273.3 580.2,268.0 582.7,271.8 585.2,42.0 585.2,270.9 587.7,271.8 590.2,268.6 592.6,273.4 595.1,267.7 597.6,262.8 597.6,266.9 600.1,269.8 602.6,270.1 605.0,270.9 607.5,271.5 610.0,257.8 610.0,270.6 612.5,272.6 615.0,272.8 617.4,272.0 619.9,272.5 622.4,250.3 622.4,272.9 624.9,268.7 627.4,273.6 629.8,271.4 632.3,270.0 634.8,269.4 634.8,272.6 637.3,266.7 639.8,267.4 642.2,267.4 644.7,267.7 647.2,258.5 647.2,272.7 649.7,272.4 652.2,271.2 654.6,272.8 657.1,273.1 659.6,270.8 659.6,272.6 662.1,272.9 664.6,265.5 667.0,271.5 669.5,269.9 672.0,260.7 672.0,268.8 674.5,273.1 677.0,271.5 679.4,273.0 681.9,272.4 684.4,260.6 684.4,271.0 686.9,273.2 689.4,273.2 691.8,272.4 694.3,268.2 696.8,254.2 696.8,271.9 699.3,266.9 701.8,269.7 704.2,265.4 706.7,271.2 709.2,268.1 709.2,272.9 711.7,271.3 714.2,270.8 716.6,271.9 719.1,271.9 721.6,261.4 721.6,271.2 724.1,271.8 726.6,271.0 729.0,268.8 731.5,273.8 734.0,266.3 734.0,273.5 736.5,272.2 739.0,273.2 741.4,271.8 743.9,273.6 746.4,265.1 746.4,273.2 748.9,272.1 751.4,271.3 753.8,271.0 756.3,269.6 758.8,255.7 758.8,268.3 761.3,271.6 763.8,272.1 766.2,274.0 768.7,271.9 771.2,264.8 771.2,272.4 773.7,272.8 776.2,269.2 778.6,264.4 781.1,273.2 783.6,265.4 783.6,273.5 786.1,270.4 788.6,272.4 791.0,268.7 793.5,269.3 796.0,266.8 796.0,272.6"/>
<text x="640" y="56" font-family="Arial" font-size="12" fill="#0f766e">ekf_aggressive residuals</text>
</svg>