<svg xmlns="http://www.w3.org/2000/svg" width="820" height="320" viewBox="0 0 820 320">
<rect width="100%" height="100%" fill="white"/>
<text x="52" y="30" font-family="Arial" font-size="18" font-weight="700">ekf_dropout_robust residuals</text>
<line x1="52" y1="274" x2="796" y2="274" stroke="#263238"/>
<line x1="52" y1="42" x2="52" y2="274" stroke="#263238"/>
<text x="52" y="306" font-family="Arial" font-size="12">time (s)</text>
<text x="630" y="306" font-family="Arial" font-size="12">norm</text>

<polyline fill="none" stroke="#0f766e" stroke-width="2.3" points="52.0,261.4 52.0,258.6 54.5,268.3 57.0,264.8 59.4,268.7 61.9,271.6 64.4,238.4 64.4,271.4 66.9,272.1 69.4,273.6 71.8,272.5 74.3,267.7 76.8,258.1 76.8,273.0 79.3,272.6 81.8,274.0 84.2,271.5 86.7,271.2 89.2,244.9 89.2,274.0 91.7,269.9 94.2,273.5 96.6,271.3 99.1,268.2 101.6,271.1 101.6,273.6 104.1,271.9 106.6,272.6 109.0,266.2 111.5,269.3 114.0,248.8 114.0,273.6 116.5,270.9 119.0,273.7 121.4,271.1 123.9,271.4 126.4,267.4 126.4,273.4 128.9,270.3 131.4,269.1 133.8,266.6 136.3,272.8 138.8,255.0 138.8,273.6 141.3,270.7 143.8,273.6 146.2,273.8 148.7,272.2 151.2,266.1 151.2,271.7 153.7,269.0 156.2,270.3 158.6,273.6 161.1,271.3 163.6,268.4 163.6,267.1 166.1,269.5 168.6,270.3 171.0,273.7 173.5,272.1 176.0,270.3 176.0,273.3 178.5,271.0 181.0,269.9 183.4,271.0 185.9,270.1 188.4,254.5 188.4,272.6 190.9,270.6 193.4,272.0 195.8,267.8 198.3,268.5 200.8,254.1 200.8,263.9 203.3,269.2 205.8,271.7 208.2,271.1 210.7,272.9 213.2,266.7 213.2,272.2 215.7,270.1 218.2,268.3 220.6,273.8 223.1,271.4 225.6,260.8 225.6,269.6 228.1,272.5 230.6,271.0 233.0,268.1 235.5,273.8 238.0,262.8 238.0,270.2 240.5,268.8 243.0,271.8 245.4,268.7 247.9,274.0 250.4,271.2 250.4,266.5 252.9,270.5 255.4,273.5 257.8,273.8 260.3,270.2 262.8,258.4 262.8,273.4 265.3,265.0 267.8,268.4 270.2,268.7 272.7,271.8 275.2,253.1 275.2,272.2 277.7,270.9 280.2,266.4 282.6,272.4 285.1,272.9 287.6,266.7 287.6,268.4 290.1,272.5 292.6,268.5 295.0,273.5 297.5,272.1 300.0,241.1 300.0,273.3 302.5,270.1 305.0,270.7 307.4,273.2 309.9,265.5 312.4,252.9 312.4,269.0 314.9,273.9 317.4,270.9 319.8,270.6 322.3,271.0 324.8,264.7 324.8,266.9 327.3,272.6 329.8,271.7 332.2,270.3 334.7,273.2 337.2,255.2 337.2,269.7 339.7,273.2 342.2,268.4 344.6,274.0 347.1,269.1 349.6,265.0 349.6,271.0 352.1,270.3 354.6,267.9 357.0,270.7 359.5,273.9 362.0,266.8 362.0,269.5 364.5,272.7 367.0,268.5 369.4,272.0 371.9,269.8 374.4,265.7 374.4,272.8 376.9,273.0 379.4,270.4 381.8,268.5 384.3,265.2 386.8,269.8 386.8,270.6 389.3,271.3 391.8,273.9 394.2,271.7 396.7,272.1 399.2,272.5 401.7,269.5 404.2,273.3 406.6,271.5 409.1,274.0 411.6,273.5 414.1,268.2 416.6,273.1 419.0,271.0 421.5,269.9 424.0,272.4 426.5,271.4 429.0,273.5 431.4,271.6 433.9,272.7 436.4,273.7 438.9,272.9 441.4,272.9 443.8,271.4 446.3,267.9 448.8,272.3 451.3,273.7 453.8,266.7 456.2,270.1 458.7,271.6 461.2,266.6 463.7,272.4 466.2,272.5 468.6,270.0 471.1,267.7 473.6,273.8 476.1,270.8 478.6,271.8 481.0,272.3 483.5,271.6 486.0,274.0 488.5,271.7 491.0,272.9 493.4,272.2 495.9,269.5 498.4,271.6 500.9,271.5 503.4,270.4 505.8,266.9 508.3,272.5 510.8,255.3 510.8,264.9 513.3,273.1 515.8,269.6 518.2,270.4 520.7,266.8 523.2,264.2 523.2,272.7 525.7,269.3 528.2,271.6 530.6,273.7 533.1,272.9 535.6,263.8 535.6,271.6 538.1,270.7 540.6,270.2 543.0,269.9 545.5,271.9 548.0,261.6 548.0,272.0 550.5,270.7 553.0,273.8 555.4,264.4 557.9,271.3 560.4,263.0 560.4,272.5 562.9,272.7 565.4,270.7 567.8,273.1 570.3,272.5 572.8,250.7 572.8,266.5 575.3,268.8 577.8,272.7 580.2,268.6 582.7,271.0 585.2,42.0 585.2,271.7 587.7,271.0 590.2,269.3 592.6,272.5 595.1,268.6 597.6,263.4 597.6,268.1 600.1,268.3 602.6,268.8 605.0,270.0 607.5,272.2 610.0,259.2 610.0,269.6 612.5,271.8 615.0,273.5 617.4,272.7 619.9,273.1 622.4,253.0 622.4,272.1 624.9,268.1 627.4,273.2 629.8,271.2 632.3,269.9 634.8,268.6 634.8,272.4 637.3,266.9 639.8,267.9 642.2,268.2 644.7,266.6 647.2,262.4 647.2,271.8 649.7,273.3 652.2,272.1 654.6,273.8 657.1,272.1 659.6,269.2 659.6,273.5 662.1,273.8 664.6,264.6 667.0,271.0 669.5,270.2 672.0,266.3 672.0,268.3 674.5,272.8 677.0,271.4 679.4,273.0 681.9,272.3 684.4,253.8 684.4,271.0 686.9,273.0 689.4,273.4 691.8,272.6 694.3,267.9 696.8,255.2 696.8,271.6 699.3,266.8 701.8,269.9 704.2,265.0 706.7,271.2 709.2,270.9 709.2,272.7 711.7,271.4 714.2,271.0 716.6,271.5 719.1,272.1 721.6,258.3 721.6,271.5 724.1,272.2 726.6,270.5 729.0,269.1 731.5,273.7 734.0,266.6 734.0,272.9 736.5,272.8 739.0,273.8 741.4,272.4 743.9,272.9 746.4,265.1 746.4,273.9 748.9,272.9 751.4,270.5 753.8,270.4 756.3,269.2 758.8,257.3 758.8,268.5 761.3,272.0 763.8,271.5 766.2,273.6 768.7,271.6 771.2,267.8 771.2,272.6 773.7,272.6 776.2,269.3 778.6,264.0 781.1,273.3 783.6,263.1 783.6,273.8 786.1,270.2 788.6,272.5 791.0,268.9 793.5,268.9 796.0,263.9 796.0,272.8"/>
<text x="640" y="56" font-family="Arial" font-size="12" fill="#0f766e">ekf_dropout_robust residuals</text>
</svg>