<svg xmlns="http://www.w3.org/2000/svg" width="820" height="320" viewBox="0 0 820 320">
<rect width="100%" height="100%" fill="white"/>
<text x="52" y="30" font-family="Arial" font-size="18" font-weight="700">ekf_conservative residuals</text>
<line x1="52" y1="274" x2="796" y2="274" stroke="#263238"/>
<line x1="52" y1="42" x2="52" y2="274" stroke="#263238"/>
<text x="52" y="306" font-family="Arial" font-size="12">time (s)</text>
<text x="630" y="306" font-family="Arial" font-size="12">norm</text>

<polyline fill="none" stroke="#0f766e" stroke-width="2.3" points="52.0,253.5 52.0,261.6 54.5,268.8 57.0,268.4 59.4,270.9 61.9,271.4 64.4,251.9 64.4,271.7 66.9,271.5 69.4,272.1 71.8,273.6 74.3,270.2 76.8,257.7 76.8,271.8 79.3,271.2 81.8,272.0 84.2,269.9 86.7,269.4 89.2,257.2 89.2,271.6 91.7,273.1 94.2,271.8 96.6,273.5 99.1,270.5 101.6,267.6 101.6,273.8 104.1,272.6 106.6,272.6 109.0,268.3 111.5,270.0 114.0,252.7 114.0,273.2 116.5,271.9 119.0,273.9 121.4,271.9 123.9,271.9 126.4,252.3 126.4,272.7 128.9,271.8 131.4,269.7 133.8,268.6 136.3,273.1 138.8,263.0 138.8,273.4 141.3,272.3 143.8,273.5 146.2,273.0 148.7,271.6 151.2,268.9 151.2,271.3 153.7,268.8 156.2,269.4 158.6,272.5 161.1,273.6 163.6,264.8 163.6,269.9 166.1,271.4 168.6,271.9 171.0,273.1 173.5,271.8 176.0,270.0 176.0,272.6 178.5,270.7 181.0,269.6 183.4,272.8 185.9,269.7 188.4,254.1 188.4,271.7 190.9,272.4 193.4,273.4 195.8,267.9 198.3,270.7 200.8,262.5 200.8,266.5 203.3,270.4 205.8,271.9 208.2,271.9 210.7,273.0 213.2,267.6 213.2,272.5 215.7,270.9 218.2,269.3 220.6,273.9 223.1,271.7 225.6,261.4 225.6,270.2 228.1,272.4 230.6,271.1 233.0,268.7 235.5,273.4 238.0,257.6 238.0,271.2 240.5,269.9 243.0,272.2 245.4,269.7 247.9,273.9 250.4,270.0 250.4,268.0 252.9,271.0 255.4,273.8 257.8,273.9 260.3,271.1 262.8,262.5 262.8,273.5 265.3,266.6 267.8,269.8 270.2,269.8 272.7,272.2 275.2,250.6 275.2,272.6 277.7,271.4 280.2,267.9 282.6,272.6 285.1,273.3 287.6,265.1 287.6,269.1 290.1,273.4 292.6,270.0 295.0,273.9 297.5,272.1 300.0,255.9 300.0,272.9 302.5,271.4 305.0,270.9 307.4,273.9 309.9,267.5 312.4,251.0 312.4,269.5 314.9,273.3 317.4,272.1 319.8,270.7 322.3,272.2 324.8,264.6 324.8,267.2 327.3,274.0 329.8,273.3 332.2,272.1 334.7,272.4 337.2,260.4 337.2,269.7 339.7,272.4 342.2,270.4 344.6,273.3 347.1,270.7 349.6,266.7 349.6,272.6 352.1,271.9 354.6,268.1 357.0,272.4 359.5,273.2 362.0,261.0 362.0,271.0 364.5,272.4 367.0,270.0 369.4,272.7 371.9,270.8 374.4,252.8 374.4,273.0 376.9,273.2 379.4,271.1 381.8,269.4 384.3,267.1 386.8,266.3 386.8,270.9 389.3,272.2 391.8,273.7 394.2,272.5 396.7,272.2 399.2,272.4 401.7,270.7 404.2,273.6 406.6,272.1 409.1,273.9 411.6,273.7 414.1,269.2 416.6,273.5 419.0,271.3 421.5,270.3 424.0,273.2 426.5,271.5 429.0,273.2 431.4,272.5 433.9,273.3 436.4,274.0 438.9,273.3 441.4,273.3 443.8,271.8 446.3,269.2 448.8,272.6 451.3,273.9 453.8,268.1 456.2,271.0 458.7,272.0 461.2,267.8 463.7,273.1 466.2,272.5 468.6,271.1 471.1,268.6 473.6,273.8 476.1,270.9 478.6,271.6 481.0,272.1 483.5,271.4 486.0,273.3 488.5,272.8 491.0,272.5 493.4,273.1 495.9,269.8 498.4,271.4 500.9,271.2 503.4,271.9 505.8,268.8 508.3,272.4 510.8,260.0 510.8,267.6 513.3,274.0 515.8,271.1 518.2,271.6 520.7,268.5 523.2,261.5 523.2,272.9 525.7,270.2 528.2,272.2 530.6,273.7 533.1,273.2 535.6,255.3 535.6,271.7 538.1,270.8 540.6,270.3 543.0,271.4 545.5,271.6 548.0,263.9 548.0,271.4 550.5,270.2 553.0,272.6 555.4,267.3 557.9,272.7 560.4,266.1 560.4,272.1 562.9,272.3 565.4,272.0 567.8,273.8 570.3,273.3 572.8,252.9 572.8,267.9 575.3,269.5 577.8,273.4 580.2,269.1 582.7,272.2 585.2,42.0 585.2,271.5 587.7,272.2 590.2,269.6 592.6,273.4 595.1,269.0 597.6,267.5 597.6,268.1 600.1,270.6 602.6,270.9 605.0,271.6 607.5,271.8 610.0,256.7 610.0,271.0 612.5,272.6 615.0,273.3 617.4,272.6 619.9,273.0 622.4,257.7 622.4,272.6 624.9,269.2 627.4,273.2 629.8,271.5 632.3,270.3 634.8,249.5 634.8,273.0 637.3,267.9 639.8,268.5 642.2,268.6 644.7,268.8 647.2,263.0 647.2,272.7 649.7,273.0 652.2,272.0 654.6,273.3 657.1,272.9 659.6,263.2 659.6,272.4 662.1,272.6 664.6,267.5 667.0,272.4 669.5,270.1 672.0,266.2 672.0,270.2 674.5,273.7 677.0,272.4 679.4,272.7 681.9,273.1 684.4,256.1 684.4,272.1 686.9,272.8 689.4,273.9 691.8,273.2 694.3,268.7 696.8,259.0 696.8,271.5 699.3,267.5 701.8,269.8 704.2,267.6 706.7,272.4 709.2,262.7 709.2,272.1 711.7,272.8 714.2,272.4 716.6,271.3 719.1,273.2 721.6,259.5 721.6,272.4 724.1,272.9 726.6,270.8 729.0,270.4 731.5,273.5 734.0,262.4 734.0,272.7 736.5,273.4 739.0,273.8 741.4,273.0 743.9,272.8 746.4,264.5 746.4,273.9 748.9,273.0 751.4,271.3 753.8,271.1 756.3,270.0 758.8,258.5 758.8,269.5 761.3,272.2 763.8,272.3 766.2,273.9 768.7,272.2 771.2,263.4 771.2,272.8 773.7,272.9 776.2,270.1 778.6,266.0 781.1,273.4 783.6,265.3 783.6,273.8 786.1,270.9 788.6,272.8 791.0,269.9 793.5,269.9 796.0,261.2 796.0,273.1"/>
<text x="640" y="56" font-family="Arial" font-size="12" fill="#0f766e">ekf_conservative residuals</text>
</svg>