<svg xmlns="http://www.w3.org/2000/svg" width="820" height="320" viewBox="0 0 820 320">
<rect width="100%" height="100%" fill="white"/>
<text x="52" y="30" font-family="Arial" font-size="18" font-weight="700">ekf_conservative velocity error</text>
<line x1="52" y1="274" x2="796" y2="274" stroke="#263238"/>
<line x1="52" y1="42" x2="52" y2="274" stroke="#263238"/>
<text x="52" y="306" font-family="Arial" font-size="12">time (s)</text>
<text x="630" y="306" font-family="Arial" font-size="12">m/s</text>

<rect x="399.2" y="42" width="99.2" height="232" fill="#fef3c7" opacity="0.72"/>
<polyline fill="none" stroke="#0f766e" stroke-width="2.3" points="52.0,56.3 52.6,55.8 53.2,55.8 53.9,55.0 54.5,60.3 55.1,60.5 55.7,59.3 56.3,59.4 57.0,45.3 57.6,45.0 58.2,43.7 58.8,42.0 59.4,51.8 60.1,53.7 60.7,54.0 61.3,52.4 61.9,65.7 62.5,66.8 63.2,65.2 63.8,64.1 64.4,134.4 65.0,135.7 65.6,135.9 66.3,137.0 66.9,141.6 67.5,141.8 68.1,144.2 68.7,144.7 69.4,149.0 70.0,150.5 70.6,149.1 71.2,147.2 71.8,148.7 72.5,149.2 73.1,147.3 73.7,147.2 74.3,138.3 74.9,137.7 75.6,136.8 76.2,135.7 76.8,131.7 77.4,130.9 78.0,128.7 78.7,126.4 79.3,141.1 79.9,138.1 80.5,136.3 81.1,134.3 81.8,146.6 82.4,145.5 83.0,144.0 83.6,141.7 84.2,170.6 84.9,168.7 85.5,165.8 86.1,163.8 86.7,194.5 87.3,191.9 88.0,190.4 88.6,189.2 89.2,220.5 89.8,221.5 90.4,223.0 91.1,224.4 91.7,219.8 92.3,221.3 92.9,222.4 93.5,222.9 94.2,236.3 94.8,237.1 95.4,238.0 96.0,238.7 96.6,237.6 97.3,238.7 97.9,239.0 98.5,241.2 99.1,211.6 99.7,213.5 100.4,212.5 101.0,212.0 101.6,207.7 102.2,206.5 102.8,205.6 103.5,204.3 104.1,205.2 104.7,203.1 105.3,200.8 105.9,198.5 106.6,194.3 107.2,193.5 107.8,191.0 108.4,188.1 109.0,191.5 109.7,190.0 110.3,187.9 110.9,185.4 111.5,172.8 112.1,169.8 112.8,167.1 113.4,163.2 114.0,181.9 114.6,179.0 115.2,176.4 115.9,175.3 116.5,179.5 117.1,177.4 117.7,174.1 118.3,170.7 119.0,166.6 119.6,164.1 120.2,162.8 120.8,161.1 121.4,152.6 122.1,149.5 122.7,147.3 123.3,145.8 123.9,135.9 124.5,131.5 125.2,127.1 125.8,125.0 126.4,183.0 127.0,181.6 127.6,180.1 128.3,179.1 128.9,180.1 129.5,179.4 130.1,179.1 130.7,176.9 131.4,167.2 132.0,164.1 132.6,160.8 133.2,159.0 133.8,167.8 134.5,167.6 135.1,166.7 135.7,166.3 136.3,162.3 136.9,161.8 137.6,161.2 138.2,161.0 138.8,197.2 139.4,195.9 140.0,193.5 140.7,191.8 141.3,183.4 141.9,183.7 142.5,182.1 143.1,179.7 143.8,181.3 144.4,180.1 145.0,178.9 145.6,177.2 146.2,181.0 146.9,180.3 147.5,178.1 148.1,178.1 148.7,186.6 149.3,184.8 150.0,183.4 150.6,182.4 151.2,201.0 151.8,199.3 152.4,196.7 153.1,195.1 153.7,204.9 154.3,204.5 154.9,203.4 155.5,201.9 156.2,209.1 156.8,208.2 157.4,206.1 158.0,206.7 158.6,208.3 159.3,207.8 159.9,207.4 160.5,206.4 161.1,205.6 161.7,204.2 162.4,203.0 163.0,201.0 163.6,238.9 164.2,238.5 164.8,236.8 165.5,235.5 166.1,226.7 166.7,226.3 167.3,225.2 167.9,224.1 168.6,215.6 169.2,216.4 169.8,216.4 170.4,214.9 171.0,218.5 171.7,217.8 172.3,217.0 172.9,216.5 173.5,221.7 174.1,221.7 174.8,220.2 175.4,218.7 176.0,221.2 176.6,222.3 177.2,222.2 177.9,220.8 178.5,226.4 179.1,225.1 179.7,225.0 180.3,222.6 181.0,228.6 181.6,227.0 182.2,227.0 182.8,226.6 183.4,224.0 184.1,224.8 184.7,223.9 185.3,223.4 185.9,228.9 186.5,227.7 187.2,225.7 187.8,226.0 188.4,215.5 189.0,214.7 189.6,214.0 190.3,213.2 190.9,213.3 191.5,212.7 192.1,211.5 192.7,212.2 193.4,210.7 194.0,209.4 194.6,208.0 195.2,205.7 195.8,204.6 196.5,203.9 197.1,204.1 197.7,202.6 198.3,204.5 198.9,204.3 199.6,202.5 200.2,202.6 200.8,247.1 201.4,246.8 202.0,245.9 202.7,245.7 203.3,238.1 203.9,239.5 204.5,238.8 205.1,237.4 205.8,241.0 206.4,239.5 207.0,238.3 207.6,238.0 208.2,232.7 208.9,231.8 209.5,230.6 210.1,228.8 210.7,231.2 211.3,231.4 212.0,229.1 212.6,228.0 213.2,245.1 213.8,243.4 214.4,244.3 215.1,243.3 215.7,251.4 216.3,251.2 216.9,249.2 217.5,248.4 218.2,261.1 218.8,260.2 219.4,259.6 220.0,259.1 220.6,260.0 221.3,259.9 221.9,259.5 222.5,259.6 223.1,261.8 223.7,262.3 224.4,261.3 225.0,261.1 225.6,270.0 226.2,269.0 226.8,268.0 227.5,267.1 228.1,266.3 228.7,266.7 229.3,265.9 229.9,265.2 230.6,261.3 231.2,261.9 231.8,261.3 232.4,261.6 233.0,249.0 233.7,248.8 234.3,249.9 234.9,249.4 235.5,247.4 236.1,248.4 236.8,247.1 237.4,247.1 238.0,224.8 238.6,225.5 239.2,225.6 239.9,227.5 240.5,234.2 241.1,233.3 241.7,232.9 242.3,234.0 243.0,231.7 243.6,231.9 244.2,233.4 244.8,233.0 245.4,240.6 246.1,241.3 246.7,242.7 247.3,243.2 247.9,245.2 248.5,246.1 249.2,246.2 249.8,245.3 250.4,231.7 251.0,232.5 251.6,231.2 252.3,230.3 252.9,225.5 253.5,225.1 254.1,225.6 254.7,224.3 255.4,223.5 256.0,223.4 256.6,223.2 257.2,222.9 257.8,223.0 258.5,222.8 259.1,221.9 259.7,221.1 260.3,223.8 260.9,224.6 261.6,224.0 262.2,225.4 262.8,220.1 263.4,219.8 264.0,219.9 264.7,219.4 265.3,208.8 265.9,207.7 266.5,207.1 267.1,207.3 267.8,213.5 268.4,213.6 269.0,214.6 269.6,213.7 270.2,219.0 270.9,219.0 271.5,219.1 272.1,218.4 272.7,216.5 273.3,216.7 274.0,216.8 274.6,215.5 275.2,177.9 275.8,176.2 276.4,176.1 277.1,174.5 277.7,173.7 278.3,172.1 278.9,173.2 279.5,172.3 280.2,168.9 280.8,169.9 281.4,169.4 282.0,167.6 282.6,166.9 283.3,167.5 283.9,165.2 284.5,164.0 285.1,165.1 285.7,165.7 286.4,165.3 287.0,164.1 287.6,175.5 288.2,176.5 288.8,175.5 289.5,176.2 290.1,176.6 290.7,177.3 291.3,175.0 291.9,174.0 292.6,175.7 293.2,174.9 293.8,174.3 294.4,173.9 295.0,173.1 295.7,172.5 296.3,171.5 296.9,171.1 297.5,168.8 298.1,167.5 298.8,167.0 299.4,167.6 300.0,173.8 300.6,175.2 301.2,174.3 301.9,173.6 302.5,172.7 303.1,171.7 303.7,170.9 304.3,170.1 305.0,169.1 305.6,169.4 306.2,168.4 306.8,166.8 307.4,166.0 308.1,165.2 308.7,164.7 309.3,164.2 309.9,160.9 310.5,160.7 311.2,160.9 311.8,160.7 312.4,192.5 313.0,191.8 313.6,192.4 314.3,193.4 314.9,193.3 315.5,192.8 316.1,193.5 316.7,193.2 317.4,193.1 318.0,192.8 318.6,191.7 319.2,190.7 319.8,189.8 320.5,189.3 321.1,189.4 321.7,189.4 322.3,187.8 322.9,188.7 323.6,188.3 324.2,188.4 324.8,192.2 325.4,192.6 326.0,192.0 326.7,190.6 327.3,189.0 327.9,189.8 328.5,189.8 329.1,189.3 329.8,189.3 330.4,189.9 331.0,189.5 331.6,189.5 332.2,189.0 332.9,190.6 333.5,192.5 334.1,189.9 334.7,189.3 335.3,190.1 336.0,188.4 336.6,189.4 337.2,182.2 337.8,183.3 338.4,182.0 339.1,181.4 339.7,177.8 340.3,177.6 340.9,177.5 341.5,176.1 342.2,179.1 342.8,177.3 343.4,176.3 344.0,175.6 344.6,174.9 345.3,176.6 345.9,176.0 346.5,174.8 347.1,178.1 347.7,178.5 348.4,179.3 349.0,178.9 349.6,190.0 350.2,189.3 350.8,189.1 351.5,189.0 352.1,186.9 352.7,187.6 353.3,187.2 353.9,186.6 354.6,187.7 355.2,185.6 355.8,184.9 356.4,183.5 357.0,181.9 357.7,180.9 358.3,180.1 358.9,179.7 359.5,179.1 360.1,178.8 360.8,178.9 361.4,179.1 362.0,170.7 362.6,171.4 363.2,170.7 363.9,171.1 364.5,169.6 365.1,169.1 365.7,169.4 366.3,168.9 367.0,169.1 367.6,168.8 368.2,169.5 368.8,169.9 369.4,168.4 370.1,167.3 370.7,166.3 371.3,166.0 371.9,163.9 372.5,161.6 373.2,161.3 373.8,161.7 374.4,227.3 375.0,227.1 375.6,226.2 376.3,227.8 376.9,228.5 377.5,226.2 378.1,224.9 378.7,225.8 379.4,222.2 380.0,222.5 380.6,221.4 381.2,220.1 381.8,212.0 382.5,211.5 383.1,213.3 383.7,212.1 384.3,220.1 384.9,219.7 385.6,218.5 386.2,218.3 386.8,207.8 387.4,207.2 388.0,206.1 388.7,205.8 389.3,205.8 389.9,204.3 390.5,204.6 391.1,205.0 391.8,204.0 392.4,204.8 393.0,205.1 393.6,206.1 394.2,207.4 394.9,207.1 395.5,206.7 396.1,205.6 396.7,204.8 397.3,204.2 398.0,205.2 398.6,205.5 399.2,205.7 399.8,206.5 400.4,207.6 401.1,206.3 401.7,208.5 402.3,209.6 402.9,208.0 403.5,208.3 404.2,208.5 404.8,209.2 405.4,211.0 406.0,209.9 406.6,211.1 407.3,210.4 407.9,210.5 408.5,210.6 409.1,210.3 409.7,210.3 410.4,210.9 411.0,213.0 411.6,212.3 412.2,211.8 412.8,210.3 413.5,211.4 414.1,209.5 414.7,208.5 415.3,207.9 415.9,208.0 416.6,207.9 417.2,206.7 417.8,205.9 418.4,206.0 419.0,202.6 419.7,201.3 420.3,201.0 420.9,200.0 421.5,193.8 422.1,193.7 422.8,192.5 423.4,192.2 424.0,194.2 424.6,193.7 425.2,193.7 425.9,193.0 426.5,187.7 427.1,188.0 427.7,188.4 428.3,189.2 429.0,187.2 429.6,185.8 430.2,187.1 430.8,186.3 431.4,190.0 432.1,188.8 432.7,188.6 433.3,190.5 433.9,191.9 434.5,189.2 435.2,188.4 435.8,188.5 436.4,190.1 437.0,190.3 437.6,189.6 438.3,190.4 438.9,191.9 439.5,190.4 440.1,189.7 440.7,191.1 441.4,191.5 442.0,192.3 442.6,191.7 443.2,192.1 443.8,187.1 444.5,185.8 445.1,185.5 445.7,186.0 446.3,195.1 446.9,193.5 447.6,193.6 448.2,193.6 448.8,194.5 449.4,194.5 450.0,193.8 450.7,194.1 451.3,193.3 451.9,193.2 452.5,192.1 453.1,193.5 453.8,181.7 454.4,180.9 455.0,180.0 455.6,180.4 456.2,187.2 456.9,187.5 457.5,188.1 458.1,185.6 458.7,189.8 459.3,188.1 460.0,188.4 460.6,189.0 461.2,197.5 461.8,198.0 462.4,196.1 463.1,196.9 463.7,196.1 464.3,195.0 464.9,195.3 465.5,194.7 466.2,195.9 466.8,195.8 467.4,193.1 468.0,192.3 468.6,189.4 469.3,188.0 469.9,185.5 470.5,186.7 471.1,192.3 471.7,191.9 472.4,192.2 473.0,190.8 473.6,190.0 474.2,190.3 474.8,190.3 475.5,189.7 476.1,190.5 476.7,190.3 477.3,190.3 477.9,190.4 478.6,189.9 479.2,188.7 479.8,188.8 480.4,188.1 481.0,186.2 481.7,185.9 482.3,186.2 482.9,186.5 483.5,183.8 484.1,183.9 484.8,182.9 485.4,183.4 486.0,182.0 486.6,183.0 487.2,182.7 487.9,182.1 488.5,182.5 489.1,182.0 489.7,182.1 490.3,182.4 491.0,179.8 491.6,179.9 492.2,179.7 492.8,181.9 493.4,181.9 494.1,181.8 494.7,182.7 495.3,181.4 495.9,176.5 496.5,176.6 497.2,178.2 497.8,177.7 498.4,172.3 499.0,172.6 499.6,172.0 500.3,171.9 500.9,166.1 501.5,166.3 502.1,165.9 502.7,165.4 503.4,170.3 504.0,170.4 504.6,169.9 505.2,169.9 505.8,178.4 506.5,176.1 507.1,175.6 507.7,175.5 508.3,173.5 508.9,173.0 509.6,172.2 510.2,172.3 510.8,171.8 511.4,171.4 512.0,171.0 512.7,169.2 513.3,167.8 513.9,167.5 514.5,166.3 515.1,164.7 515.8,163.5 516.4,162.9 517.0,162.6 517.6,162.8 518.2,161.4 518.9,161.4 519.5,161.2 520.1,161.6 520.7,157.6 521.3,156.3 522.0,153.4 522.6,152.3 523.2,231.9 523.8,230.6 524.4,231.4 525.1,231.1 525.7,237.1 526.3,236.4 526.9,237.5 527.5,239.5 528.2,234.7 528.8,232.7 529.4,233.3 530.0,233.5 530.6,233.5 531.3,233.7 531.9,234.2 532.5,231.3 533.1,229.8 533.7,232.0 534.4,233.0 535.0,233.1 535.6,247.8 536.2,247.0 536.8,246.8 537.5,247.1 538.1,241.9 538.7,241.9 539.3,241.3 539.9,242.0 540.6,237.1 541.2,236.8 541.8,238.3 542.4,235.7 543.0,241.0 543.7,242.9 544.3,243.1 544.9,241.9 545.5,238.8 546.1,239.5 546.8,238.7 547.4,239.1 548.0,257.7 548.6,257.7 549.2,257.5 549.9,257.4 550.5,252.7 551.1,252.4 551.7,253.7 552.3,253.8 553.0,251.1 553.6,250.3 554.2,248.4 554.8,248.3 555.4,262.2 556.1,262.0 556.7,262.9 557.3,261.5 557.9,264.4 558.5,265.7 559.2,268.6 559.8,267.6 560.4,264.3 561.0,265.1 561.6,264.7 562.3,264.5 562.9,261.2 563.5,260.4 564.1,259.7 564.7,260.7 565.4,265.2 566.0,264.8 566.6,265.8 567.2,265.1 567.8,267.3 568.5,266.1 569.1,266.4 569.7,266.9 570.3,267.6 570.9,266.0 571.6,265.8 572.2,265.6 572.8,256.8 573.4,257.1 574.0,257.4 574.7,256.3 575.3,257.6 575.9,257.7 576.5,257.2 577.1,257.1 577.8,257.6 578.4,258.9 579.0,259.9 579.6,260.4 580.2,256.9 580.9,257.3 581.5,258.4 582.1,259.6 582.7,261.4 583.3,259.3 584.0,260.0 584.6,261.7 585.2,257.4 585.8,256.7 586.4,256.4 587.1,257.3 587.7,260.1 588.3,261.1 588.9,260.0 589.5,262.6 590.2,254.2 590.8,253.8 591.4,252.8 592.0,252.6 592.6,254.5 593.3,255.3 593.9,257.6 594.5,257.8 595.1,243.0 595.7,243.4 596.4,243.2 597.0,243.9 597.6,205.0 598.2,203.1 598.8,203.3 599.5,201.9 600.1,206.2 600.7,205.7 601.3,205.5 601.9,204.8 602.6,207.0 603.2,206.7 603.8,206.8 604.4,206.0 605.0,207.9 605.7,208.6 606.3,210.8 606.9,211.7 607.5,208.8 608.1,208.4 608.8,207.8 609.4,208.7 610.0,205.6 610.6,206.0 611.2,205.7 611.9,204.9 612.5,207.4 613.1,206.2 613.7,205.5 614.3,206.1 615.0,205.1 615.6,206.4 616.2,207.1 616.8,208.2 617.4,206.4 618.1,206.6 618.7,207.7 619.3,208.9 619.9,206.1 620.5,207.7 621.2,208.4 621.8,210.2 622.4,230.7 623.0,232.1 623.6,231.1 624.3,232.0 624.9,243.3 625.5,244.0 626.1,243.0 626.7,242.1 627.4,244.9 628.0,242.7 628.6,243.5 629.2,243.7 629.8,249.1 630.5,247.8 631.1,248.4 631.7,247.6 632.3,254.9 632.9,254.8 633.6,255.0 634.2,256.6 634.8,259.6 635.4,259.3 636.0,259.7 636.7,259.8 637.3,261.1 637.9,260.3 638.5,259.8 639.1,260.2 639.8,255.3 640.4,255.8 641.0,255.4 641.6,254.3 642.2,242.3 642.9,241.7 643.5,242.4 644.1,241.8 644.7,252.3 645.3,251.3 646.0,251.0 646.6,251.8 647.2,231.0 647.8,231.3 648.4,231.1 649.1,230.5 649.7,228.4 650.3,228.6 650.9,227.4 651.5,228.3 652.2,224.2 652.8,223.4 653.4,223.1 654.0,223.1 654.6,222.5 655.3,222.2 655.9,222.5 656.5,221.0 657.1,222.2 657.7,222.1 658.4,219.7 659.0,218.3 659.6,225.0 660.2,224.5 660.8,225.1 661.5,224.5 662.1,223.5 662.7,223.0 663.3,224.8 663.9,224.9 664.6,224.8 665.2,226.2 665.8,225.8 666.4,224.2 667.0,224.2 667.7,222.6 668.3,221.5 668.9,221.5 669.5,220.8 670.1,219.6 670.8,218.8 671.4,217.4 672.0,254.5 672.6,255.6 673.2,254.7 673.9,252.8 674.5,253.5 675.1,252.3 675.7,252.0 676.3,251.9 677.0,250.6 677.6,252.0 678.2,251.1 678.8,250.6 679.4,249.8 680.1,251.0 680.7,251.3 681.3,251.1 681.9,249.9 682.5,249.2 683.2,250.7 683.8,249.8 684.4,254.8 685.0,256.0 685.6,255.5 686.3,253.8 686.9,255.5 687.5,255.2 688.1,256.4 688.7,257.2 689.4,256.8 690.0,258.2 690.6,258.3 691.2,257.0 691.8,256.7 692.5,257.2 693.1,258.0 693.7,257.9 694.3,259.5 694.9,258.7 695.6,258.9 696.2,258.7 696.8,217.4 697.4,219.4 698.0,218.6 698.7,217.4 699.3,216.5 699.9,216.2 700.5,216.0 701.1,214.8 701.8,210.3 702.4,210.4 703.0,211.2 703.6,211.0 704.2,213.8 704.9,213.0 705.5,213.9 706.1,213.8 706.7,214.0 707.3,212.2 708.0,212.7 708.6,213.4 709.2,221.0 709.8,221.5 710.4,222.5 711.1,222.8 711.7,222.1 712.3,221.3 712.9,220.8 713.5,220.5 714.2,218.0 714.8,217.7 715.4,219.0 716.0,219.5 716.6,221.7 717.3,220.8 717.9,219.8 718.5,219.5 719.1,220.2 719.7,219.6 720.4,219.5 721.0,219.1 721.6,256.3 722.2,255.8 722.8,256.0 723.5,257.1 724.1,256.0 724.7,256.9 725.3,257.1 725.9,257.3 726.6,256.5 727.2,255.5 727.8,256.9 728.4,257.8 729.0,260.6 729.7,260.6 730.3,261.5 730.9,262.7 731.5,262.8 732.1,262.0 732.8,263.2 733.4,263.4 734.0,254.7 734.6,253.7 735.2,252.8 735.9,251.3 736.5,250.9 737.1,248.9 737.7,250.5 738.3,249.6 739.0,250.3 739.6,249.8 740.2,250.7 740.8,250.3 741.4,249.4 742.1,249.3 742.7,247.8 743.3,248.9 743.9,249.9 744.5,251.0 745.2,250.4 745.8,250.4 746.4,273.6 747.0,274.0 747.6,272.1 748.3,271.5 748.9,270.6 749.5,270.1 750.1,270.7 750.7,271.4 751.4,271.0 752.0,271.1 752.6,270.5 753.2,271.6 753.8,268.5 754.5,269.1 755.1,267.1 755.7,265.6 756.3,257.0 756.9,256.4 757.6,256.4 758.2,257.0 758.8,263.8 759.4,264.1 760.0,264.5 760.7,263.4 761.3,267.5 761.9,267.8 762.5,268.6 763.1,267.9 763.8,263.3 764.4,264.4 765.0,264.8 765.6,263.6 766.2,262.6 766.9,262.4 767.5,261.8 768.1,262.8 768.7,257.9 769.3,258.2 770.0,259.4 770.6,259.4 771.2,255.5 771.8,256.5 772.4,256.3 773.1,255.8 773.7,252.4 774.3,252.8 774.9,251.3 775.5,250.7 776.2,255.3 776.8,255.5 777.4,254.3 778.0,253.6 778.6,239.4 779.3,238.7 779.9,239.2 780.5,239.2 781.1,237.7 781.7,239.0 782.4,238.9 783.0,239.0 783.6,235.1 784.2,234.6 784.8,234.9 785.5,234.6 786.1,241.7 786.7,240.5 787.3,240.4 787.9,238.8 788.6,236.7 789.2,236.7 789.8,237.5 790.4,236.9 791.0,229.1 791.7,229.9 792.3,228.6 792.9,228.8 793.5,237.9 794.1,237.8 794.8,236.7 795.4,236.8 796.0,233.4"/>
<text x="640" y="56" font-family="Arial" font-size="12" fill="#0f766e">ekf_conservative velocity error</text>
</svg>