<svg xmlns="http://www.w3.org/2000/svg" width="820" height="320" viewBox="0 0 820 320">
<rect width="100%" height="100%" fill="white"/>
<text x="52" y="30" font-family="Arial" font-size="18" font-weight="700">ekf_dropout_robust velocity error</text>
<line x1="52" y1="274" x2="796" y2="274" stroke="#263238"/>
<line x1="52" y1="42" x2="52" y2="274" stroke="#263238"/>
<text x="52" y="306" font-family="Arial" font-size="12">time (s)</text>
<text x="630" y="306" font-family="Arial" font-size="12">m/s</text>

<rect x="399.2" y="42" width="99.2" height="232" fill="#fef3c7" opacity="0.72"/>
<polyline fill="none" stroke="#0f766e" stroke-width="2.3" points="52.0,230.8 52.6,230.5 53.2,230.3 53.9,229.9 54.5,186.6 55.1,186.5 55.7,186.2 56.3,186.1 57.0,164.2 57.6,164.2 58.2,163.9 58.8,163.5 59.4,227.7 60.1,227.6 60.7,227.5 61.3,227.2 61.9,225.5 62.5,225.6 63.2,225.6 63.8,225.1 64.4,43.8 65.0,43.6 65.6,43.6 66.3,43.3 66.9,42.3 67.5,42.0 68.1,42.1 68.7,42.2 69.4,42.0 70.0,42.0 70.6,42.4 71.2,42.8 71.8,43.3 72.5,43.3 73.1,43.6 73.7,43.6 74.3,43.5 74.9,43.5 75.6,43.5 76.2,43.7 76.8,87.8 77.4,87.8 78.0,87.8 78.7,87.9 79.3,88.1 79.9,88.2 80.5,88.4 81.1,88.4 81.8,88.6 82.4,88.3 83.0,88.1 83.6,88.1 84.2,87.8 84.9,87.6 85.5,87.2 86.1,87.1 86.7,86.2 87.3,86.0 88.0,86.3 88.6,86.4 89.2,241.9 89.8,242.1 90.4,242.1 91.1,242.2 91.7,247.5 92.3,247.8 92.9,248.0 93.5,248.3 94.2,248.2 94.8,248.5 95.4,248.8 96.0,249.3 96.6,249.4 97.3,249.6 97.9,249.8 98.5,250.1 99.1,239.4 99.7,239.3 100.4,238.8 101.0,238.5 101.6,242.1 102.2,241.7 102.8,241.4 103.5,241.0 104.1,246.7 104.7,246.3 105.3,246.1 105.9,245.7 106.6,240.7 107.2,240.3 107.8,239.6 108.4,239.3 109.0,259.7 109.7,259.8 110.3,260.0 110.9,260.2 111.5,262.6 112.1,262.7 112.8,262.7 113.4,262.6 114.0,187.5 114.6,187.2 115.2,186.9 115.9,186.9 116.5,186.5 117.1,186.3 117.7,186.0 118.3,185.5 119.0,185.3 119.6,185.1 120.2,185.1 120.8,185.0 121.4,185.2 122.1,184.8 122.7,184.6 123.3,184.6 123.9,184.3 124.5,183.7 125.2,183.2 125.8,183.0 126.4,180.5 127.0,180.1 127.6,179.7 128.3,179.3 128.9,179.2 129.5,178.9 130.1,178.6 130.7,178.1 131.4,177.0 132.0,176.6 132.6,176.1 133.2,175.7 133.8,175.7 134.5,175.4 135.1,175.1 135.7,174.7 136.3,174.2 136.9,174.1 137.6,173.8 138.2,173.4 138.8,212.2 139.4,211.8 140.0,211.5 140.7,211.1 141.3,211.4 141.9,211.3 142.5,210.8 143.1,210.5 143.8,210.3 144.4,210.1 145.0,209.7 145.6,209.8 146.2,209.4 146.9,208.9 147.5,208.4 148.1,207.9 148.7,207.6 149.3,206.8 150.0,206.4 150.6,205.8 151.2,255.1 151.8,254.6 152.4,254.1 153.1,253.8 153.7,249.8 154.3,249.0 154.9,248.3 155.5,247.9 156.2,243.8 156.8,243.2 157.4,242.8 158.0,242.0 158.6,241.7 159.3,241.1 159.9,240.2 160.5,239.7 161.1,241.3 161.7,240.9 162.4,240.6 163.0,240.1 163.6,236.9 164.2,236.3 164.8,236.2 165.5,235.8 166.1,236.4 166.7,235.9 167.3,235.6 167.9,235.1 168.6,234.6 169.2,234.3 169.8,233.7 170.4,233.3 171.0,232.8 171.7,232.4 172.3,231.9 172.9,231.3 173.5,230.8 174.1,230.1 174.8,229.8 175.4,229.3 176.0,255.4 176.6,254.5 177.2,253.9 177.9,253.5 178.5,252.5 179.1,252.1 179.7,251.6 180.3,251.5 181.0,249.7 181.6,249.5 182.2,249.0 182.8,248.6 183.4,249.4 184.1,248.8 184.7,248.4 185.3,247.9 185.9,245.6 186.5,245.3 187.2,245.0 187.8,244.4 188.4,234.9 189.0,234.8 189.6,234.9 190.3,234.7 190.9,235.8 191.5,235.8 192.1,235.5 192.7,235.7 193.4,236.1 194.0,235.8 194.6,235.3 195.2,234.9 195.8,232.9 196.5,232.9 197.1,233.0 197.7,232.5 198.3,234.3 198.9,234.4 199.6,234.0 200.2,233.9 200.8,242.0 201.4,241.8 202.0,240.9 202.7,240.6 203.3,240.1 203.9,240.0 204.5,239.4 205.1,238.9 205.8,238.9 206.4,238.4 207.0,238.0 207.6,237.7 208.2,236.6 208.9,236.4 209.5,236.0 210.1,235.2 210.7,234.9 211.3,234.4 212.0,234.2 212.6,233.9 213.2,252.4 213.8,252.1 214.4,251.5 215.1,251.5 215.7,252.1 216.3,251.7 216.9,251.4 217.5,251.1 218.2,251.3 218.8,251.2 219.4,251.2 220.0,251.1 220.6,250.6 221.3,250.3 221.9,250.0 222.5,249.4 223.1,249.1 223.7,248.9 224.4,248.5 225.0,248.4 225.6,238.7 226.2,238.2 226.8,237.8 227.5,237.5 228.1,236.8 228.7,236.5 229.3,236.1 229.9,235.8 230.6,234.9 231.2,234.7 231.8,234.6 232.4,234.2 233.0,232.7 233.7,232.6 234.3,232.3 234.9,232.2 235.5,231.9 236.1,231.8 236.8,231.1 237.4,230.7 238.0,246.6 238.6,245.9 239.2,245.7 239.9,245.2 240.5,245.9 241.1,245.5 241.7,245.3 242.3,244.6 243.0,243.8 243.6,243.0 244.2,242.6 244.8,242.4 245.4,242.3 246.1,241.8 246.7,241.1 247.3,240.5 247.9,239.8 248.5,239.4 249.2,238.9 249.8,238.5 250.4,242.7 251.0,242.1 251.6,241.8 252.3,241.6 252.9,241.1 253.5,240.9 254.1,240.6 254.7,240.5 255.4,240.1 256.0,239.6 256.6,239.1 257.2,238.8 257.8,238.4 258.5,238.2 259.1,237.9 259.7,237.7 260.3,237.6 260.9,237.1 261.6,236.8 262.2,236.4 262.8,249.9 263.4,249.7 264.0,249.4 264.7,249.1 265.3,247.2 265.9,246.9 266.5,246.8 267.1,246.6 267.8,247.6 268.4,247.1 269.0,246.7 269.6,246.7 270.2,246.8 270.9,246.4 271.5,246.1 272.1,245.9 272.7,245.5 273.3,245.1 274.0,244.8 274.6,244.7 275.2,222.5 275.8,222.5 276.4,222.1 277.1,221.9 277.7,221.8 278.3,221.7 278.9,221.2 279.5,220.6 280.2,220.1 280.8,219.6 281.4,219.2 282.0,219.1 282.6,218.4 283.3,217.9 283.9,217.7 284.5,217.2 285.1,216.7 285.7,216.3 286.4,216.1 287.0,215.7 287.6,221.9 288.2,221.6 288.8,221.1 289.5,220.8 290.1,220.5 290.7,220.3 291.3,219.8 291.9,219.6 292.6,219.8 293.2,219.6 293.8,219.5 294.4,219.3 295.0,218.9 295.7,218.4 296.3,218.0 296.9,217.6 297.5,217.2 298.1,217.1 298.8,216.5 299.4,216.0 300.0,254.8 300.6,254.3 301.2,254.3 301.9,254.2 302.5,254.4 303.1,254.4 303.7,254.2 304.3,254.1 305.0,253.5 305.6,253.2 306.2,253.1 306.8,253.0 307.4,253.0 308.1,252.6 308.7,252.5 309.3,252.3 309.9,252.3 310.5,252.0 311.2,251.7 311.8,251.2 312.4,249.0 313.0,248.9 313.6,248.5 314.3,248.1 314.9,247.7 315.5,247.5 316.1,247.1 316.7,247.0 317.4,247.4 318.0,247.1 318.6,247.0 319.2,247.0 319.8,246.1 320.5,245.9 321.1,245.6 321.7,245.3 322.3,246.1 322.9,245.4 323.6,245.1 324.2,245.0 324.8,246.8 325.4,246.5 326.0,246.3 326.7,246.1 327.3,246.7 327.9,246.3 328.5,246.1 329.1,246.0 329.8,246.7 330.4,246.4 331.0,246.2 331.6,246.0 332.2,247.0 332.9,246.5 333.5,246.0 334.1,246.3 334.7,245.9 335.3,245.5 336.0,245.4 336.6,245.0 337.2,259.6 337.8,259.5 338.4,259.6 339.1,259.3 339.7,258.9 340.3,258.8 340.9,258.7 341.5,258.7 342.2,261.6 342.8,261.4 343.4,261.2 344.0,261.3 344.6,261.2 345.3,260.9 345.9,261.0 346.5,261.2 347.1,263.4 347.7,262.9 348.4,262.8 349.0,262.8 349.6,270.4 350.2,270.3 350.8,270.4 351.5,270.2 352.1,272.0 352.7,271.7 353.3,271.7 353.9,271.7 354.6,269.1 355.2,269.0 355.8,269.0 356.4,269.1 357.0,270.9 357.7,270.8 358.3,271.0 358.9,270.7 359.5,270.9 360.1,270.8 360.8,271.0 361.4,270.9 362.0,265.7 362.6,265.4 363.2,265.3 363.9,265.1 364.5,265.0 365.1,264.9 365.7,264.7 366.3,264.7 367.0,264.6 367.6,264.5 368.2,264.3 368.8,264.0 369.4,263.8 370.1,263.8 370.7,263.8 371.3,263.9 371.9,262.9 372.5,262.9 373.2,262.6 373.8,262.4 374.4,249.9 375.0,249.7 375.6,249.4 376.3,249.0 376.9,249.0 377.5,249.1 378.1,249.0 378.7,248.8 379.4,248.0 380.0,248.0 380.6,248.1 381.2,247.9 381.8,246.5 382.5,246.4 383.1,245.8 383.7,245.5 384.3,247.6 384.9,247.5 385.6,247.7 386.2,247.5 386.8,252.8 387.4,252.8 388.0,252.8 388.7,252.8 389.3,253.5 389.9,253.8 390.5,253.6 391.1,253.4 391.8,253.4 392.4,253.0 393.0,252.8 393.6,252.6 394.2,252.4 394.9,252.3 395.5,252.3 396.1,252.6 396.7,251.7 397.3,251.8 398.0,251.8 398.6,251.6 399.2,251.0 399.8,250.6 400.4,250.2 401.1,250.4 401.7,250.7 402.3,250.2 402.9,250.5 403.5,250.2 404.2,250.4 404.8,250.2 405.4,249.8 406.0,249.7 406.6,249.5 407.3,249.4 407.9,249.4 408.5,249.2 409.1,249.0 409.7,249.0 410.4,248.6 411.0,248.2 411.6,248.3 412.2,248.1 412.8,248.1 413.5,247.8 414.1,247.0 414.7,247.0 415.3,247.2 415.9,247.0 416.6,246.9 417.2,246.8 417.8,246.5 418.4,246.2 419.0,245.4 419.7,245.2 420.3,244.8 420.9,244.7 421.5,243.3 422.1,242.9 422.8,242.7 423.4,242.2 424.0,242.4 424.6,242.3 425.2,241.9 425.9,241.7 426.5,241.1 427.1,240.9 427.7,240.4 428.3,240.2 429.0,239.8 429.6,239.6 430.2,239.2 430.8,239.3 431.4,239.8 432.1,239.9 432.7,240.0 433.3,239.8 433.9,239.9 434.5,239.8 435.2,239.7 435.8,239.3 436.4,239.2 437.0,238.9 437.6,239.1 438.3,238.8 438.9,238.9 439.5,239.0 440.1,238.9 440.7,238.4 441.4,238.8 442.0,238.7 442.6,238.3 443.2,238.5 443.8,237.8 444.5,237.7 445.1,237.3 445.7,236.9 446.3,238.2 446.9,237.9 447.6,237.8 448.2,237.5 448.8,237.8 449.4,237.1 450.0,237.2 450.7,236.9 451.3,237.0 451.9,236.7 452.5,236.3 453.1,236.0 453.8,234.4 454.4,234.2 455.0,234.0 455.6,233.6 456.2,234.1 456.9,233.8 457.5,233.4 458.1,232.8 458.7,232.9 459.3,232.5 460.0,232.2 460.6,232.2 461.2,232.5 461.8,232.4 462.4,232.3 463.1,232.4 463.7,232.3 464.3,232.2 464.9,232.2 465.5,232.0 466.2,232.0 466.8,231.7 467.4,231.8 468.0,231.6 468.6,231.2 469.3,231.0 469.9,231.1 470.5,230.9 471.1,230.5 471.7,230.7 472.4,230.2 473.0,230.0 473.6,229.9 474.2,230.1 474.8,230.0 475.5,230.0 476.1,229.7 476.7,229.5 477.3,229.5 477.9,229.5 478.6,228.9 479.2,229.1 479.8,228.6 480.4,228.6 481.0,228.5 481.7,228.5 482.3,228.3 482.9,228.3 483.5,227.6 484.1,227.3 484.8,227.3 485.4,227.0 486.0,226.9 486.6,226.8 487.2,226.5 487.9,226.6 488.5,227.0 489.1,226.6 489.7,226.3 490.3,226.3 491.0,225.9 491.6,226.0 492.2,226.4 492.8,226.5 493.4,226.7 494.1,226.5 494.7,226.1 495.3,226.1 495.9,225.4 496.5,225.1 497.2,224.9 497.8,224.9 498.4,223.9 499.0,223.7 499.6,223.7 500.3,223.6 500.9,222.4 501.5,222.1 502.1,221.9 502.7,221.7 503.4,222.7 504.0,222.4 504.6,222.2 505.2,221.8 505.8,223.8 506.5,223.7 507.1,223.5 507.7,223.5 508.3,223.2 508.9,222.5 509.6,222.2 510.2,222.1 510.8,258.0 511.4,258.2 512.0,258.1 512.7,258.4 513.3,258.4 513.9,258.0 514.5,257.8 515.1,257.9 515.8,258.1 516.4,258.3 517.0,258.5 517.6,258.2 518.2,257.9 518.9,258.0 519.5,257.9 520.1,258.1 520.7,255.9 521.3,255.7 522.0,255.9 522.6,256.0 523.2,263.5 523.8,263.2 524.4,263.5 525.1,263.6 525.7,265.5 526.3,265.5 526.9,265.6 527.5,265.4 528.2,264.9 528.8,265.2 529.4,265.4 530.0,265.0 530.6,265.2 531.3,265.1 531.9,264.8 532.5,264.6 533.1,263.9 533.7,263.8 534.4,264.0 535.0,263.8 535.6,254.4 536.2,254.3 536.8,254.0 537.5,253.8 538.1,252.4 538.7,252.5 539.3,252.4 539.9,252.2 540.6,250.4 541.2,250.0 541.8,250.1 542.4,249.9 543.0,251.8 543.7,251.6 544.3,251.5 544.9,251.3 545.5,250.4 546.1,250.4 546.8,250.5 547.4,250.1 548.0,254.3 548.6,254.2 549.2,253.9 549.9,253.7 550.5,251.9 551.1,251.8 551.7,251.9 552.3,252.0 553.0,251.8 553.6,251.7 554.2,251.3 554.8,251.2 555.4,256.1 556.1,256.1 556.7,256.4 557.3,256.1 557.9,257.2 558.5,257.3 559.2,257.6 559.8,257.2 560.4,262.0 561.0,262.1 561.6,261.9 562.3,261.8 562.9,261.3 563.5,261.1 564.1,261.0 564.7,261.1 565.4,262.6 566.0,262.6 566.6,262.9 567.2,262.8 567.8,263.3 568.5,263.2 569.1,263.3 569.7,263.4 570.3,263.6 570.9,263.3 571.6,263.3 572.2,263.1 572.8,253.9 573.4,254.1 574.0,254.1 574.7,254.0 575.3,252.7 575.9,252.7 576.5,252.8 577.1,252.8 577.8,253.1 578.4,252.9 579.0,253.0 579.6,252.9 580.2,251.3 580.9,251.3 581.5,251.0 582.1,251.0 582.7,252.0 583.3,251.6 584.0,251.5 584.6,251.5 585.2,250.7 585.8,250.5 586.4,250.3 587.1,250.3 587.7,251.1 588.3,251.1 588.9,251.0 589.5,251.3 590.2,249.8 590.8,249.7 591.4,249.6 592.0,249.7 592.6,250.6 593.3,250.7 593.9,251.1 594.5,250.9 595.1,248.4 595.7,248.1 596.4,247.8 597.0,248.0 597.6,253.3 598.2,252.9 598.8,252.7 599.5,252.5 600.1,256.4 600.7,256.1 601.3,255.7 601.9,255.6 602.6,258.5 603.2,258.5 603.8,258.1 604.4,258.0 605.0,260.3 605.7,260.2 606.3,260.3 606.9,260.0 607.5,258.8 608.1,259.0 608.8,259.0 609.4,259.1 610.0,256.2 610.6,256.3 611.2,256.2 611.9,256.0 612.5,256.8 613.1,256.5 613.7,256.3 614.3,256.5 615.0,256.2 615.6,256.5 616.2,256.6 616.8,256.7 617.4,256.3 618.1,256.3 618.7,256.5 619.3,256.6 619.9,256.1 620.5,256.4 621.2,256.5 621.8,256.8 622.4,259.9 623.0,260.2 623.6,260.2 624.3,260.3 624.9,262.0 625.5,262.0 626.1,261.9 626.7,261.8 627.4,261.6 628.0,261.3 628.6,261.3 629.2,261.3 629.8,261.4 630.5,261.2 631.1,261.4 631.7,261.1 632.3,261.4 632.9,261.3 633.6,261.3 634.2,261.4 634.8,260.5 635.4,260.4 636.0,260.5 636.7,260.5 637.3,259.6 637.9,259.3 638.5,259.1 639.1,259.2 639.8,257.6 640.4,257.3 641.0,257.2 641.6,257.2 642.2,254.3 642.9,254.1 643.5,254.1 644.1,254.1 644.7,257.4 645.3,257.3 646.0,256.9 646.6,256.9 647.2,260.6 647.8,260.7 648.4,260.6 649.1,260.5 649.7,260.0 650.3,260.0 650.9,259.8 651.5,260.0 652.2,258.9 652.8,258.7 653.4,258.6 654.0,258.6 654.6,258.6 655.3,258.5 655.9,258.6 656.5,258.3 657.1,259.0 657.7,258.9 658.4,258.4 659.0,258.1 659.6,261.2 660.2,261.2 660.8,261.3 661.5,261.1 662.1,260.8 662.7,260.7 663.3,260.7 663.9,260.7 664.6,264.7 665.2,264.8 665.8,264.7 666.4,264.4 667.0,265.2 667.7,264.9 668.3,264.6 668.9,264.5 669.5,263.1 670.1,262.9 670.8,262.9 671.4,262.6 672.0,259.3 672.6,259.5 673.2,259.3 673.9,258.8 674.5,259.0 675.1,258.8 675.7,258.7 676.3,258.7 677.0,258.6 677.6,258.9 678.2,258.7 678.8,258.4 679.4,258.1 680.1,258.3 680.7,258.3 681.3,258.2 681.9,258.0 682.5,257.8 683.2,258.1 683.8,257.9 684.4,270.5 685.0,270.7 685.6,270.9 686.3,270.5 686.9,270.7 687.5,270.4 688.1,270.4 688.7,270.5 689.4,270.7 690.0,270.4 690.6,270.3 691.2,270.3 691.8,270.5 692.5,270.2 693.1,270.2 693.7,270.1 694.3,269.4 694.9,269.7 695.6,269.6 696.2,269.2 696.8,270.8 697.4,271.2 698.0,270.8 698.7,270.7 699.3,267.2 699.9,267.0 700.5,267.0 701.1,266.8 701.8,264.1 702.4,264.0 703.0,264.2 703.6,264.1 704.2,269.1 704.9,269.1 705.5,269.3 706.1,269.3 706.7,270.4 707.3,270.0 708.0,270.2 708.6,270.2 709.2,266.3 709.8,266.3 710.4,266.4 711.1,266.4 711.7,267.0 712.3,267.0 712.9,267.0 713.5,267.0 714.2,267.1 714.8,267.1 715.4,267.4 716.0,267.5 716.6,267.4 717.3,267.3 717.9,266.9 718.5,266.8 719.1,267.1 719.7,266.9 720.4,266.9 721.0,266.7 721.6,272.6 722.2,272.5 722.8,272.5 723.5,272.6 724.1,272.5 724.7,272.6 725.3,272.7 725.9,272.8 726.6,272.2 727.2,272.1 727.8,272.3 728.4,272.4 729.0,273.2 729.7,273.4 730.3,273.5 730.9,273.8 731.5,274.0 732.1,273.6 732.8,273.7 733.4,273.5 734.0,264.2 734.6,264.2 735.2,263.9 735.9,263.8 736.5,263.7 737.1,263.7 737.7,263.7 738.3,263.6 739.0,263.3 739.6,263.4 740.2,263.2 740.8,262.9 741.4,262.8 742.1,263.0 742.7,263.0 743.3,262.9 743.9,262.6 744.5,262.8 745.2,262.8 745.8,262.7 746.4,261.5 747.0,261.5 747.6,261.1 748.3,260.9 748.9,260.6 749.5,260.5 750.1,260.7 750.7,260.8 751.4,261.0 752.0,261.0 752.6,260.8 753.2,260.9 753.8,261.0 754.5,261.3 755.1,261.0 755.7,260.7 756.3,260.1 756.9,259.8 757.6,260.1 758.2,260.1 758.8,272.2 759.4,272.2 760.0,272.3 760.7,272.1 761.3,272.4 761.9,272.3 762.5,272.0 763.1,271.9 763.8,271.7 764.4,271.4 765.0,271.1 765.6,271.1 766.2,271.2 766.9,270.9 767.5,271.1 768.1,270.7 768.7,270.2 769.3,270.1 770.0,270.1 770.6,270.2 771.2,269.8 771.8,269.7 772.4,269.7 773.1,269.7 773.7,269.3 774.3,269.4 774.9,269.1 775.5,269.6 776.2,270.3 776.8,270.3 777.4,270.3 778.0,270.3 778.6,267.2 779.3,266.9 779.9,266.9 780.5,266.8 781.1,266.5 781.7,266.7 782.4,266.8 783.0,266.7 783.6,267.8 784.2,267.7 784.8,267.8 785.5,267.7 786.1,270.0 786.7,269.7 787.3,269.6 787.9,269.3 788.6,268.6 789.2,268.6 789.8,268.8 790.4,268.7 791.0,266.0 791.7,266.2 792.3,265.9 792.9,265.9 793.5,268.8 794.1,268.8 794.8,268.6 795.4,268.6 796.0,261.1"/>
<text x="640" y="56" font-family="Arial" font-size="12" fill="#0f766e">ekf_dropout_robust velocity error</text>
</svg>