<svg xmlns="http://www.w3.org/2000/svg" width="820" height="320" viewBox="0 0 820 320">
<rect width="100%" height="100%" fill="white"/>
<text x="52" y="30" font-family="Arial" font-size="18" font-weight="700">ekf_aggressive velocity error</text>
<line x1="52" y1="274" x2="796" y2="274" stroke="#263238"/>
<line x1="52" y1="42" x2="52" y2="274" stroke="#263238"/>
<text x="52" y="306" font-family="Arial" font-size="12">time (s)</text>
<text x="630" y="306" font-family="Arial" font-size="12">m/s</text>

<rect x="399.2" y="42" width="99.2" height="232" fill="#fef3c7" opacity="0.72"/>
<polyline fill="none" stroke="#0f766e" stroke-width="2.3" points="52.0,250.3 52.6,250.1 53.2,250.0 53.9,249.8 54.5,157.2 55.1,157.2 55.7,157.1 56.3,157.0 57.0,160.2 57.6,160.1 58.2,160.0 58.8,159.7 59.4,242.8 60.1,242.9 60.7,242.9 61.3,242.7 61.9,248.8 62.5,248.8 63.2,248.7 63.8,248.5 64.4,43.1 65.0,43.0 65.6,43.0 66.3,42.8 66.9,42.5 67.5,42.2 68.1,42.2 68.7,42.2 69.4,42.2 70.0,42.2 70.6,42.4 71.2,42.6 71.8,42.7 72.5,42.6 73.1,42.7 73.7,42.7 74.3,42.1 74.9,42.1 75.6,42.0 76.2,42.1 76.8,140.7 77.4,140.8 78.0,140.8 78.7,141.0 79.3,141.4 79.9,141.5 80.5,141.7 81.1,141.8 81.8,142.0 82.4,141.9 83.0,141.9 83.6,142.0 84.2,141.7 84.9,141.6 85.5,141.5 86.1,141.5 86.7,140.4 87.3,140.3 88.0,140.5 88.6,140.5 89.2,255.5 89.8,255.3 90.4,254.9 91.1,254.6 91.7,264.3 92.3,264.1 92.9,263.9 93.5,263.8 94.2,263.1 94.8,262.7 95.4,262.4 96.0,262.1 96.6,261.8 97.3,261.5 97.9,261.0 98.5,260.7 99.1,249.5 99.7,249.0 100.4,248.2 101.0,247.4 101.6,253.8 102.2,253.2 102.8,252.6 103.5,252.0 104.1,257.8 104.7,257.2 105.3,256.8 105.9,256.2 106.6,252.9 107.2,252.1 107.8,251.5 108.4,251.1 109.0,264.4 109.7,263.8 110.3,263.2 110.9,262.7 111.5,262.1 112.1,261.5 112.8,261.0 113.4,260.4 114.0,222.3 114.6,222.1 115.2,221.9 115.9,221.9 116.5,221.8 117.1,221.7 117.7,221.5 118.3,221.2 119.0,221.0 119.6,220.9 120.2,220.9 120.8,220.8 121.4,220.7 122.1,220.5 122.7,220.4 123.3,220.3 123.9,220.1 124.5,219.7 125.2,219.4 125.8,219.3 126.4,200.8 127.0,200.1 127.6,199.3 128.3,198.7 128.9,198.2 129.5,197.5 130.1,196.8 130.7,196.1 131.4,195.0 132.0,194.4 132.6,193.7 133.2,193.0 133.8,192.5 134.5,191.8 135.1,191.2 135.7,190.5 136.3,189.7 136.9,189.2 137.6,188.5 138.2,187.7 138.8,220.2 139.4,219.5 140.0,218.9 140.7,218.3 141.3,217.8 141.9,217.4 142.5,216.7 143.1,216.1 143.8,215.6 144.4,215.0 145.0,214.4 145.6,213.9 146.2,213.3 146.9,212.6 147.5,211.9 148.1,211.2 148.7,210.6 149.3,209.8 150.0,209.2 150.6,208.5 151.2,247.9 151.8,247.3 152.4,246.9 153.1,246.5 153.7,245.2 154.3,244.5 154.9,243.9 155.5,243.4 156.2,241.9 156.8,241.4 157.4,240.9 158.0,240.2 158.6,239.7 159.3,239.1 159.9,238.4 160.5,237.9 161.1,237.8 161.7,237.4 162.4,236.9 163.0,236.4 163.6,241.8 164.2,241.3 164.8,241.1 165.5,240.8 166.1,240.7 166.7,240.2 167.3,239.9 167.9,239.5 168.6,239.1 169.2,238.7 169.8,238.2 170.4,237.8 171.0,237.4 171.7,237.0 172.3,236.6 172.9,236.1 173.5,235.7 174.1,235.1 174.8,234.8 175.4,234.4 176.0,256.0 176.6,255.4 177.2,255.1 177.9,254.8 178.5,254.2 179.1,254.0 179.7,253.6 180.3,253.5 181.0,252.7 181.6,252.6 182.2,252.2 182.8,251.9 183.4,252.0 184.1,251.6 184.7,251.3 185.3,250.9 185.9,249.9 186.5,249.7 187.2,249.4 187.8,249.0 188.4,250.1 189.0,250.0 189.6,250.0 190.3,249.8 190.9,250.2 191.5,250.1 192.1,249.9 192.7,250.0 193.4,250.1 194.0,249.9 194.6,249.5 195.2,249.3 195.8,248.4 196.5,248.4 197.1,248.4 197.7,248.1 198.3,248.7 198.9,248.7 199.6,248.4 200.2,248.3 200.8,251.9 201.4,251.7 202.0,251.2 202.7,251.0 203.3,250.9 203.9,250.8 204.5,250.4 205.1,250.1 205.8,249.9 206.4,249.6 207.0,249.4 207.6,249.2 208.2,248.7 208.9,248.5 209.5,248.2 210.1,247.8 210.7,247.5 211.3,247.2 212.0,247.1 212.6,246.9 213.2,259.5 213.8,259.3 214.4,259.0 215.1,258.9 215.7,259.0 216.3,258.7 216.9,258.5 217.5,258.4 218.2,258.2 218.8,258.1 219.4,258.1 220.0,258.0 220.6,257.7 221.3,257.5 221.9,257.3 222.5,257.0 223.1,256.8 223.7,256.6 224.4,256.4 225.0,256.3 225.6,251.9 226.2,251.7 226.8,251.4 227.5,251.3 228.1,250.9 228.7,250.7 229.3,250.4 229.9,250.3 230.6,249.9 231.2,249.7 231.8,249.6 232.4,249.4 233.0,249.0 233.7,248.8 234.3,248.7 234.9,248.6 235.5,248.4 236.1,248.3 236.8,247.9 237.4,247.7 238.0,258.3 238.6,257.9 239.2,257.8 239.9,257.5 240.5,257.6 241.1,257.4 241.7,257.3 242.3,256.9 243.0,256.5 243.6,256.1 244.2,255.8 244.8,255.7 245.4,255.5 246.1,255.2 246.7,254.8 247.3,254.5 247.9,254.1 248.5,253.9 249.2,253.6 249.8,253.3 250.4,255.7 251.0,255.4 251.6,255.3 252.3,255.1 252.9,255.0 253.5,254.9 254.1,254.7 254.7,254.7 255.4,254.4 256.0,254.1 256.6,253.8 257.2,253.6 257.8,253.4 258.5,253.2 259.1,253.1 259.7,252.9 260.3,252.7 260.9,252.5 261.6,252.3 262.2,252.1 262.8,259.8 263.4,259.7 264.0,259.5 264.7,259.4 265.3,259.0 265.9,258.9 266.5,258.8 267.1,258.6 267.8,258.6 268.4,258.4 269.0,258.2 269.6,258.2 270.2,257.9 270.9,257.7 271.5,257.5 272.1,257.4 272.7,257.2 273.3,257.0 274.0,256.8 274.6,256.7 275.2,245.0 275.8,244.9 276.4,244.7 277.1,244.6 277.7,244.5 278.3,244.5 278.9,244.2 279.5,243.9 280.2,243.6 280.8,243.4 281.4,243.1 282.0,243.0 282.6,242.7 283.3,242.4 283.9,242.3 284.5,242.0 285.1,241.7 285.7,241.5 286.4,241.3 287.0,241.2 287.6,244.9 288.2,244.7 288.8,244.5 289.5,244.3 290.1,244.0 290.7,243.9 291.3,243.6 291.9,243.5 292.6,243.4 293.2,243.3 293.8,243.3 294.4,243.1 295.0,242.9 295.7,242.6 296.3,242.4 296.9,242.2 297.5,242.0 298.1,241.9 298.8,241.6 299.4,241.3 300.0,261.8 300.6,261.5 301.2,261.5 301.9,261.4 302.5,261.4 303.1,261.3 303.7,261.2 304.3,261.1 305.0,260.9 305.6,260.7 306.2,260.7 306.8,260.6 307.4,260.6 308.1,260.4 308.7,260.3 309.3,260.1 309.9,260.2 310.5,260.1 311.2,259.9 311.8,259.6 312.4,260.3 313.0,260.2 313.6,260.0 314.3,259.8 314.9,259.6 315.5,259.5 316.1,259.3 316.7,259.2 317.4,259.1 318.0,259.0 318.6,258.9 319.2,258.9 319.8,258.6 320.5,258.6 321.1,258.4 321.7,258.2 322.3,258.4 322.9,258.1 323.6,257.9 324.2,257.8 324.8,260.2 325.4,260.0 326.0,259.9 326.7,259.8 327.3,259.9 327.9,259.7 328.5,259.6 329.1,259.5 329.8,259.6 330.4,259.4 331.0,259.2 331.6,259.1 332.2,259.3 332.9,259.0 333.5,258.7 334.1,258.8 334.7,258.7 335.3,258.5 336.0,258.5 336.6,258.2 337.2,268.2 337.8,268.0 338.4,268.1 339.1,267.9 339.7,267.8 340.3,267.8 340.9,267.7 341.5,267.8 342.2,268.3 342.8,268.3 343.4,268.1 344.0,268.2 344.6,268.1 345.3,267.8 345.9,267.9 346.5,268.0 347.1,268.4 347.7,268.2 348.4,268.1 349.0,268.1 349.6,270.3 350.2,270.3 350.8,270.2 351.5,270.1 352.1,270.6 352.7,270.4 353.3,270.4 353.9,270.4 354.6,269.8 355.2,269.8 355.8,269.8 356.4,269.9 357.0,270.2 357.7,270.2 358.3,270.3 358.9,270.1 359.5,270.2 360.1,270.1 360.8,270.2 361.4,270.1 362.0,267.8 362.6,267.7 363.2,267.6 363.9,267.5 364.5,267.5 365.1,267.4 365.7,267.3 366.3,267.3 367.0,267.3 367.6,267.2 368.2,267.1 368.8,266.9 369.4,267.0 370.1,267.0 370.7,267.0 371.3,267.1 371.9,267.1 372.5,267.2 373.2,267.1 373.8,267.0 374.4,261.1 375.0,260.9 375.6,260.8 376.3,260.6 376.9,260.5 377.5,260.5 378.1,260.5 378.7,260.4 379.4,260.3 380.0,260.2 380.6,260.3 381.2,260.2 381.8,260.1 382.5,260.0 383.1,259.7 383.7,259.6 384.3,259.8 384.9,259.8 385.6,259.9 386.2,259.8 386.8,262.5 387.4,262.5 388.0,262.5 388.7,262.5 389.3,262.6 389.9,262.7 390.5,262.6 391.1,262.5 391.8,262.5 392.4,262.3 393.0,262.2 393.6,262.1 394.2,261.8 394.9,261.7 395.5,261.7 396.1,261.8 396.7,261.5 397.3,261.6 398.0,261.5 398.6,261.4 399.2,261.2 399.8,261.0 400.4,260.7 401.1,260.9 401.7,260.7 402.3,260.4 402.9,260.6 403.5,260.4 404.2,260.5 404.8,260.3 405.4,260.1 406.0,260.1 406.6,259.9 407.3,259.9 407.9,259.9 408.5,259.8 409.1,259.7 409.7,259.7 410.4,259.4 411.0,259.2 411.6,259.3 412.2,259.2 412.8,259.1 413.5,259.0 414.1,258.7 414.7,258.8 415.3,258.9 415.9,258.8 416.6,258.6 417.2,258.6 417.8,258.5 418.4,258.3 419.0,258.1 419.7,258.0 420.3,257.8 420.9,257.8 421.5,257.5 422.1,257.2 422.8,257.1 423.4,256.9 424.0,256.8 424.6,256.7 425.2,256.5 425.9,256.4 426.5,256.4 427.1,256.2 427.7,255.9 428.3,255.8 429.0,255.7 429.6,255.6 430.2,255.3 430.8,255.4 431.4,255.3 432.1,255.4 432.7,255.4 433.3,255.3 433.9,255.2 434.5,255.2 435.2,255.1 435.8,254.9 436.4,254.8 437.0,254.6 437.6,254.7 438.3,254.6 438.9,254.4 439.5,254.5 440.1,254.5 440.7,254.2 441.4,254.3 442.0,254.2 442.6,254.0 443.2,254.1 443.8,253.9 444.5,253.9 445.1,253.7 445.7,253.5 446.3,253.7 446.9,253.6 447.6,253.5 448.2,253.3 448.8,253.4 449.4,253.1 450.0,253.1 450.7,253.0 451.3,253.0 451.9,252.9 452.5,252.7 453.1,252.5 453.8,252.1 454.4,252.0 455.0,251.9 455.6,251.7 456.2,251.6 456.9,251.5 457.5,251.2 458.1,250.9 458.7,250.8 459.3,250.6 460.0,250.4 460.6,250.4 461.2,250.6 461.8,250.5 462.4,250.4 463.1,250.5 463.7,250.4 464.3,250.4 464.9,250.4 465.5,250.3 466.2,250.3 466.8,250.2 467.4,250.2 468.0,250.1 468.6,249.9 469.3,249.8 469.9,249.8 470.5,249.7 471.1,249.6 471.7,249.7 472.4,249.5 473.0,249.4 473.6,249.3 474.2,249.4 474.8,249.3 475.5,249.3 476.1,249.4 476.7,249.2 477.3,249.2 477.9,249.3 478.6,249.2 479.2,249.3 479.8,249.0 480.4,249.0 481.0,249.2 481.7,249.1 482.3,249.1 482.9,249.1 483.5,249.0 484.1,248.9 484.8,248.8 485.4,248.7 486.0,248.6 486.6,248.5 487.2,248.4 487.9,248.5 488.5,248.4 489.1,248.2 489.7,248.0 490.3,248.0 491.0,247.9 491.6,248.0 492.2,248.2 492.8,248.2 493.4,248.1 494.1,248.0 494.7,247.8 495.3,247.8 495.9,248.0 496.5,247.9 497.2,247.8 497.8,247.7 498.4,247.6 499.0,247.5 499.6,247.5 500.3,247.4 500.9,247.2 501.5,247.0 502.1,247.0 502.7,246.9 503.4,246.7 504.0,246.6 504.6,246.6 505.2,246.3 505.8,246.5 506.5,246.5 507.1,246.4 507.7,246.4 508.3,246.3 508.9,246.0 509.6,245.8 510.2,245.8 510.8,261.0 511.4,261.0 512.0,261.0 512.7,261.2 513.3,261.1 513.9,260.9 514.5,260.9 515.1,260.9 515.8,260.9 516.4,261.0 517.0,261.0 517.6,260.9 518.2,260.9 518.9,260.9 519.5,260.8 520.1,261.0 520.7,260.8 521.3,260.8 522.0,261.0 522.6,261.1 523.2,265.5 523.8,265.5 524.4,265.6 525.1,265.6 525.7,265.6 526.3,265.6 526.9,265.5 527.5,265.3 528.2,265.6 528.8,265.8 529.4,265.9 530.0,265.7 530.6,265.7 531.3,265.6 531.9,265.5 532.5,265.5 533.1,265.3 533.7,265.2 534.4,265.2 535.0,265.1 535.6,262.6 536.2,262.6 536.8,262.5 537.5,262.4 538.1,262.2 538.7,262.3 539.3,262.3 539.9,262.2 540.6,261.9 541.2,261.7 541.8,261.7 542.4,261.7 543.0,261.8 543.7,261.6 544.3,261.5 544.9,261.5 545.5,261.4 546.1,261.4 546.8,261.5 547.4,261.2 548.0,263.0 548.6,263.0 549.2,262.8 549.9,262.8 550.5,262.7 551.1,262.6 551.7,262.7 552.3,262.8 553.0,262.8 553.6,262.8 554.2,262.7 554.8,262.7 555.4,263.1 556.1,263.0 556.7,263.2 557.3,263.1 557.9,263.2 558.5,263.2 559.2,263.4 559.8,263.2 560.4,264.8 561.0,264.8 561.6,264.8 562.3,264.7 562.9,264.7 563.5,264.6 564.1,264.6 564.7,264.6 565.4,264.7 566.0,264.7 566.6,264.9 567.2,264.9 567.8,264.9 568.5,264.9 569.1,265.0 569.7,265.0 570.3,264.9 570.9,264.7 571.6,264.8 572.2,264.7 572.8,263.2 573.4,263.3 574.0,263.4 574.7,263.3 575.3,263.0 575.9,263.0 576.5,263.1 577.1,263.1 577.8,263.2 578.4,263.1 579.0,263.1 579.6,263.1 580.2,262.9 580.9,262.8 581.5,262.7 582.1,262.7 582.7,262.8 583.3,262.6 584.0,262.5 584.6,262.5 585.2,262.4 585.8,262.4 586.4,262.3 587.1,262.3 587.7,262.3 588.3,262.3 588.9,262.3 589.5,262.4 590.2,262.2 590.8,262.2 591.4,262.2 592.0,262.3 592.6,262.5 593.3,262.6 593.9,262.7 594.5,262.6 595.1,262.1 595.7,261.9 596.4,261.7 597.0,261.8 597.6,263.3 598.2,263.3 598.8,263.2 599.5,263.1 600.1,263.6 600.7,263.4 601.3,263.1 601.9,263.1 602.6,263.3 603.2,263.3 603.8,263.1 604.4,263.1 605.0,263.3 605.7,263.3 606.3,263.3 606.9,263.1 607.5,262.8 608.1,262.9 608.8,262.9 609.4,262.9 610.0,265.1 610.6,265.0 611.2,265.0 611.9,265.0 612.5,265.2 613.1,265.2 613.7,265.1 614.3,265.1 615.0,265.1 615.6,265.2 616.2,265.2 616.8,265.4 617.4,265.2 618.1,265.2 618.7,265.3 619.3,265.4 619.9,265.3 620.5,265.3 621.2,265.4 621.8,265.5 622.4,269.6 623.0,269.6 623.6,269.4 624.3,269.4 624.9,269.8 625.5,269.8 626.1,269.7 626.7,269.7 627.4,270.0 628.0,269.9 628.6,270.0 629.2,269.9 629.8,270.1 630.5,270.2 631.1,270.0 631.7,270.1 632.3,270.1 632.9,270.0 633.6,270.1 634.2,270.0 634.8,267.7 635.4,267.7 636.0,267.7 636.7,267.6 637.3,267.8 637.9,267.8 638.5,267.7 639.1,267.7 639.8,267.6 640.4,267.4 641.0,267.4 641.6,267.5 642.2,267.3 642.9,267.2 643.5,267.2 644.1,267.2 644.7,267.6 645.3,267.6 646.0,267.4 646.6,267.3 647.2,269.7 647.8,269.7 648.4,269.7 649.1,269.5 649.7,269.4 650.3,269.4 650.9,269.5 651.5,269.3 652.2,269.2 652.8,269.1 653.4,269.0 654.0,268.9 654.6,269.0 655.3,269.0 655.9,269.1 656.5,269.1 657.1,269.1 657.7,269.1 658.4,269.1 659.0,269.2 659.6,270.8 660.2,270.9 660.8,270.8 661.5,270.8 662.1,270.7 662.7,270.7 663.3,270.5 663.9,270.4 664.6,271.0 665.2,270.9 665.8,270.9 666.4,271.0 667.0,271.1 667.7,271.2 668.3,271.2 668.9,271.2 669.5,270.9 670.1,271.1 670.8,271.2 671.4,271.4 672.0,273.2 672.6,273.0 673.2,273.0 673.9,273.1 674.5,273.0 675.1,273.2 675.7,273.2 676.3,273.2 677.0,273.4 677.6,273.2 678.2,273.2 678.8,273.2 679.4,273.1 680.1,273.0 680.7,272.9 681.3,272.9 681.9,273.0 682.5,272.9 683.2,272.9 683.8,272.8 684.4,270.6 685.0,270.5 685.6,270.6 686.3,270.7 686.9,270.6 687.5,270.5 688.1,270.4 688.7,270.3 689.4,270.4 690.0,270.2 690.6,270.1 691.2,270.3 691.8,270.3 692.5,270.2 693.1,270.1 693.7,270.1 694.3,269.6 694.9,269.8 695.6,269.7 696.2,269.6 696.8,270.8 697.4,270.7 698.0,270.6 698.7,270.7 699.3,269.9 699.9,269.8 700.5,269.8 701.1,269.8 701.8,269.4 702.4,269.2 703.0,269.2 703.6,269.2 704.2,270.2 704.9,270.3 705.5,270.3 706.1,270.3 706.7,270.5 707.3,270.5 708.0,270.5 708.6,270.4 709.2,272.4 709.8,272.2 710.4,272.1 711.1,272.0 711.7,272.3 712.3,272.5 712.9,272.5 713.5,272.6 714.2,273.1 714.8,273.1 715.4,273.0 716.0,272.9 716.6,272.7 717.3,272.8 717.9,272.7 718.5,272.6 719.1,272.7 719.7,272.6 720.4,272.6 721.0,272.5 721.6,272.0 722.2,272.1 722.8,272.0 723.5,271.8 724.1,272.0 724.7,271.9 725.3,271.9 725.9,271.9 726.6,271.6 727.2,271.6 727.8,271.5 728.4,271.3 729.0,271.7 729.7,271.7 730.3,271.4 730.9,271.4 731.5,271.4 732.1,271.4 732.8,271.3 733.4,271.2 734.0,271.8 734.6,271.9 735.2,272.0 735.9,272.2 736.5,272.3 737.1,272.5 737.7,272.3 738.3,272.4 739.0,272.3 739.6,272.4 740.2,272.3 740.8,272.3 741.4,272.4 742.1,272.4 742.7,272.5 743.3,272.4 743.9,272.3 744.5,272.2 745.2,272.3 745.8,272.2 746.4,272.0 747.0,272.1 747.6,271.9 748.3,271.9 748.9,271.8 749.5,271.7 750.1,271.6 750.7,271.6 751.4,271.5 752.0,271.6 752.6,271.6 753.2,271.6 753.8,271.6 754.5,271.7 755.1,271.5 755.7,271.3 756.3,271.0 756.9,270.9 757.6,270.9 758.2,270.9 758.8,273.7 759.4,273.7 760.0,273.7 760.7,273.7 761.3,273.8 761.9,273.8 762.5,274.0 763.1,273.9 763.8,273.8 764.4,273.8 765.0,273.9 765.6,273.7 766.2,273.6 766.9,273.7 767.5,273.6 768.1,273.7 768.7,273.4 769.3,273.4 770.0,273.5 770.6,273.6 771.2,273.9 771.8,274.0 772.4,274.0 773.1,273.9 773.7,273.6 774.3,273.6 774.9,273.5 775.5,273.3 776.2,273.6 776.8,273.6 777.4,273.5 778.0,273.4 778.6,272.4 779.3,272.4 779.9,272.4 780.5,272.4 781.1,272.3 781.7,272.4 782.4,272.4 783.0,272.4 783.6,271.9 784.2,271.9 784.8,272.0 785.5,271.9 786.1,272.3 786.7,272.1 787.3,272.1 787.9,271.9 788.6,271.7 789.2,271.6 789.8,271.5 790.4,271.4 791.0,270.9 791.7,271.0 792.3,270.8 792.9,271.0 793.5,271.4 794.1,271.2 794.8,271.0 795.4,271.1 796.0,269.5"/>
<text x="640" y="56" font-family="Arial" font-size="12" fill="#0f766e">ekf_aggressive velocity error</text>
</svg>